<?xml version="1.0" encoding="utf-8" standalone="no"?>
<!DOCTYPE svg PUBLIC "-//W3C//DTD SVG 1.1//EN"
  "http://www.w3.org/Graphics/SVG/1.1/DTD/svg11.dtd">
<svg xmlns:xlink="http://www.w3.org/1999/xlink" width="647.026pt" height="345.42825pt" viewBox="0 0 647.026 345.42825" xmlns="http://www.w3.org/2000/svg" version="1.1">
 <metadata>
  <rdf:RDF xmlns:dc="http://purl.org/dc/elements/1.1/" xmlns:cc="http://creativecommons.org/ns#" xmlns:rdf="http://www.w3.org/1999/02/22-rdf-syntax-ns#">
   <cc:Work>
    <dc:type rdf:resource="http://purl.org/dc/dcmitype/StillImage"/>
    <dc:date>2023-12-25T16:03:01.963249</dc:date>
    <dc:format>image/svg+xml</dc:format>
    <dc:creator>
     <cc:Agent>
      <dc:title>Matplotlib v3.8.2, https://matplotlib.org/</dc:title>
     </cc:Agent>
    </dc:creator>
   </cc:Work>
  </rdf:RDF>
 </metadata>
 <defs>
  <style type="text/css">*{stroke-linejoin: round; stroke-linecap: butt}</style>
 </defs>
 <g id="figure_1">
  <g id="patch_1">
   <path d="M 0 345.42825 
L 647.026 345.42825 
L 647.026 -0 
L 0 -0 
L 0 345.42825 
z
" style="fill: none; opacity: 0"/>
  </g>
  <g id="axes_1">
   <g id="patch_2">
    <path d="M 40.603125 307.872 
L 397.723125 307.872 
L 397.723125 41.76 
L 40.603125 41.76 
z
" style="fill: #ffffff"/>
   </g>
   <g id="matplotlib.axis_1">
    <g id="xtick_1">
     <g id="line2d_1">
      <defs>
       <path id="m81bb1753bd" d="M 0 0 
L 0 3.5 
" style="stroke: #000000; stroke-width: 0.8"/>
      </defs>
      <g>
       <use xlink:href="#m81bb1753bd" x="58.087257" y="307.872" style="stroke: #000000; stroke-width: 0.8"/>
      </g>
     </g>
     <g id="text_1">
      <!-- 911.5 -->
      <g transform="translate(43.773195 322.470438) scale(0.1 -0.1)">
       <defs>
        <path id="DejaVuSans-39" d="M 703 97 
L 703 672 
Q 941 559 1184 500 
Q 1428 441 1663 441 
Q 2288 441 2617 861 
Q 2947 1281 2994 2138 
Q 2813 1869 2534 1725 
Q 2256 1581 1919 1581 
Q 1219 1581 811 2004 
Q 403 2428 403 3163 
Q 403 3881 828 4315 
Q 1253 4750 1959 4750 
Q 2769 4750 3195 4129 
Q 3622 3509 3622 2328 
Q 3622 1225 3098 567 
Q 2575 -91 1691 -91 
Q 1453 -91 1209 -44 
Q 966 3 703 97 
z
M 1959 2075 
Q 2384 2075 2632 2365 
Q 2881 2656 2881 3163 
Q 2881 3666 2632 3958 
Q 2384 4250 1959 4250 
Q 1534 4250 1286 3958 
Q 1038 3666 1038 3163 
Q 1038 2656 1286 2365 
Q 1534 2075 1959 2075 
z
" transform="scale(0.015625)"/>
        <path id="DejaVuSans-31" d="M 794 531 
L 1825 531 
L 1825 4091 
L 703 3866 
L 703 4441 
L 1819 4666 
L 2450 4666 
L 2450 531 
L 3481 531 
L 3481 0 
L 794 0 
L 794 531 
z
" transform="scale(0.015625)"/>
        <path id="DejaVuSans-2e" d="M 684 794 
L 1344 794 
L 1344 0 
L 684 0 
L 684 794 
z
" transform="scale(0.015625)"/>
        <path id="DejaVuSans-35" d="M 691 4666 
L 3169 4666 
L 3169 4134 
L 1269 4134 
L 1269 2991 
Q 1406 3038 1543 3061 
Q 1681 3084 1819 3084 
Q 2600 3084 3056 2656 
Q 3513 2228 3513 1497 
Q 3513 744 3044 326 
Q 2575 -91 1722 -91 
Q 1428 -91 1123 -41 
Q 819 9 494 109 
L 494 744 
Q 775 591 1075 516 
Q 1375 441 1709 441 
Q 2250 441 2565 725 
Q 2881 1009 2881 1497 
Q 2881 1984 2565 2268 
Q 2250 2553 1709 2553 
Q 1456 2553 1204 2497 
Q 953 2441 691 2322 
L 691 4666 
z
" transform="scale(0.015625)"/>
       </defs>
       <use xlink:href="#DejaVuSans-39"/>
       <use xlink:href="#DejaVuSans-31" x="63.623047"/>
       <use xlink:href="#DejaVuSans-31" x="127.246094"/>
       <use xlink:href="#DejaVuSans-2e" x="190.869141"/>
       <use xlink:href="#DejaVuSans-35" x="222.65625"/>
      </g>
     </g>
    </g>
    <g id="xtick_2">
     <g id="line2d_2">
      <g>
       <use xlink:href="#m81bb1753bd" x="98.669076" y="307.872" style="stroke: #000000; stroke-width: 0.8"/>
      </g>
     </g>
     <g id="text_2">
      <!-- 912 -->
      <g transform="translate(89.125326 322.470438) scale(0.1 -0.1)">
       <defs>
        <path id="DejaVuSans-32" d="M 1228 531 
L 3431 531 
L 3431 0 
L 469 0 
L 469 531 
Q 828 903 1448 1529 
Q 2069 2156 2228 2338 
Q 2531 2678 2651 2914 
Q 2772 3150 2772 3378 
Q 2772 3750 2511 3984 
Q 2250 4219 1831 4219 
Q 1534 4219 1204 4116 
Q 875 4013 500 3803 
L 500 4441 
Q 881 4594 1212 4672 
Q 1544 4750 1819 4750 
Q 2544 4750 2975 4387 
Q 3406 4025 3406 3419 
Q 3406 3131 3298 2873 
Q 3191 2616 2906 2266 
Q 2828 2175 2409 1742 
Q 1991 1309 1228 531 
z
" transform="scale(0.015625)"/>
       </defs>
       <use xlink:href="#DejaVuSans-39"/>
       <use xlink:href="#DejaVuSans-31" x="63.623047"/>
       <use xlink:href="#DejaVuSans-32" x="127.246094"/>
      </g>
     </g>
    </g>
    <g id="xtick_3">
     <g id="line2d_3">
      <g>
       <use xlink:href="#m81bb1753bd" x="139.250894" y="307.872" style="stroke: #000000; stroke-width: 0.8"/>
      </g>
     </g>
     <g id="text_3">
      <!-- 912.5 -->
      <g transform="translate(124.936831 322.470438) scale(0.1 -0.1)">
       <use xlink:href="#DejaVuSans-39"/>
       <use xlink:href="#DejaVuSans-31" x="63.623047"/>
       <use xlink:href="#DejaVuSans-32" x="127.246094"/>
       <use xlink:href="#DejaVuSans-2e" x="190.869141"/>
       <use xlink:href="#DejaVuSans-35" x="222.65625"/>
      </g>
     </g>
    </g>
    <g id="xtick_4">
     <g id="line2d_4">
      <g>
       <use xlink:href="#m81bb1753bd" x="179.832712" y="307.872" style="stroke: #000000; stroke-width: 0.8"/>
      </g>
     </g>
     <g id="text_4">
      <!-- 913 -->
      <g transform="translate(170.288962 322.470438) scale(0.1 -0.1)">
       <defs>
        <path id="DejaVuSans-33" d="M 2597 2516 
Q 3050 2419 3304 2112 
Q 3559 1806 3559 1356 
Q 3559 666 3084 287 
Q 2609 -91 1734 -91 
Q 1441 -91 1130 -33 
Q 819 25 488 141 
L 488 750 
Q 750 597 1062 519 
Q 1375 441 1716 441 
Q 2309 441 2620 675 
Q 2931 909 2931 1356 
Q 2931 1769 2642 2001 
Q 2353 2234 1838 2234 
L 1294 2234 
L 1294 2753 
L 1863 2753 
Q 2328 2753 2575 2939 
Q 2822 3125 2822 3475 
Q 2822 3834 2567 4026 
Q 2313 4219 1838 4219 
Q 1578 4219 1281 4162 
Q 984 4106 628 3988 
L 628 4550 
Q 988 4650 1302 4700 
Q 1616 4750 1894 4750 
Q 2613 4750 3031 4423 
Q 3450 4097 3450 3541 
Q 3450 3153 3228 2886 
Q 3006 2619 2597 2516 
z
" transform="scale(0.015625)"/>
       </defs>
       <use xlink:href="#DejaVuSans-39"/>
       <use xlink:href="#DejaVuSans-31" x="63.623047"/>
       <use xlink:href="#DejaVuSans-33" x="127.246094"/>
      </g>
     </g>
    </g>
    <g id="xtick_5">
     <g id="line2d_5">
      <g>
       <use xlink:href="#m81bb1753bd" x="220.41453" y="307.872" style="stroke: #000000; stroke-width: 0.8"/>
      </g>
     </g>
     <g id="text_5">
      <!-- 913.5 -->
      <g transform="translate(206.100468 322.470438) scale(0.1 -0.1)">
       <use xlink:href="#DejaVuSans-39"/>
       <use xlink:href="#DejaVuSans-31" x="63.623047"/>
       <use xlink:href="#DejaVuSans-33" x="127.246094"/>
       <use xlink:href="#DejaVuSans-2e" x="190.869141"/>
       <use xlink:href="#DejaVuSans-35" x="222.65625"/>
      </g>
     </g>
    </g>
    <g id="xtick_6">
     <g id="line2d_6">
      <g>
       <use xlink:href="#m81bb1753bd" x="260.996348" y="307.872" style="stroke: #000000; stroke-width: 0.8"/>
      </g>
     </g>
     <g id="text_6">
      <!-- 914 -->
      <g transform="translate(251.452598 322.470438) scale(0.1 -0.1)">
       <defs>
        <path id="DejaVuSans-34" d="M 2419 4116 
L 825 1625 
L 2419 1625 
L 2419 4116 
z
M 2253 4666 
L 3047 4666 
L 3047 1625 
L 3713 1625 
L 3713 1100 
L 3047 1100 
L 3047 0 
L 2419 0 
L 2419 1100 
L 313 1100 
L 313 1709 
L 2253 4666 
z
" transform="scale(0.015625)"/>
       </defs>
       <use xlink:href="#DejaVuSans-39"/>
       <use xlink:href="#DejaVuSans-31" x="63.623047"/>
       <use xlink:href="#DejaVuSans-34" x="127.246094"/>
      </g>
     </g>
    </g>
    <g id="xtick_7">
     <g id="line2d_7">
      <g>
       <use xlink:href="#m81bb1753bd" x="301.578167" y="307.872" style="stroke: #000000; stroke-width: 0.8"/>
      </g>
     </g>
     <g id="text_7">
      <!-- 914.5 -->
      <g transform="translate(287.264104 322.470438) scale(0.1 -0.1)">
       <use xlink:href="#DejaVuSans-39"/>
       <use xlink:href="#DejaVuSans-31" x="63.623047"/>
       <use xlink:href="#DejaVuSans-34" x="127.246094"/>
       <use xlink:href="#DejaVuSans-2e" x="190.869141"/>
       <use xlink:href="#DejaVuSans-35" x="222.65625"/>
      </g>
     </g>
    </g>
    <g id="xtick_8">
     <g id="line2d_8">
      <g>
       <use xlink:href="#m81bb1753bd" x="342.159985" y="307.872" style="stroke: #000000; stroke-width: 0.8"/>
      </g>
     </g>
     <g id="text_8">
      <!-- 915 -->
      <g transform="translate(332.616235 322.470438) scale(0.1 -0.1)">
       <use xlink:href="#DejaVuSans-39"/>
       <use xlink:href="#DejaVuSans-31" x="63.623047"/>
       <use xlink:href="#DejaVuSans-35" x="127.246094"/>
      </g>
     </g>
    </g>
    <g id="xtick_9">
     <g id="line2d_9">
      <g>
       <use xlink:href="#m81bb1753bd" x="382.741803" y="307.872" style="stroke: #000000; stroke-width: 0.8"/>
      </g>
     </g>
     <g id="text_9">
      <!-- 915.5 -->
      <g transform="translate(368.42774 322.470438) scale(0.1 -0.1)">
       <use xlink:href="#DejaVuSans-39"/>
       <use xlink:href="#DejaVuSans-31" x="63.623047"/>
       <use xlink:href="#DejaVuSans-35" x="127.246094"/>
       <use xlink:href="#DejaVuSans-2e" x="190.869141"/>
       <use xlink:href="#DejaVuSans-35" x="222.65625"/>
      </g>
     </g>
    </g>
    <g id="text_10">
     <!-- Frequency [MHz] -->
     <g transform="translate(177.144375 336.148562) scale(0.1 -0.1)">
      <defs>
       <path id="DejaVuSans-46" d="M 628 4666 
L 3309 4666 
L 3309 4134 
L 1259 4134 
L 1259 2759 
L 3109 2759 
L 3109 2228 
L 1259 2228 
L 1259 0 
L 628 0 
L 628 4666 
z
" transform="scale(0.015625)"/>
       <path id="DejaVuSans-72" d="M 2631 2963 
Q 2534 3019 2420 3045 
Q 2306 3072 2169 3072 
Q 1681 3072 1420 2755 
Q 1159 2438 1159 1844 
L 1159 0 
L 581 0 
L 581 3500 
L 1159 3500 
L 1159 2956 
Q 1341 3275 1631 3429 
Q 1922 3584 2338 3584 
Q 2397 3584 2469 3576 
Q 2541 3569 2628 3553 
L 2631 2963 
z
" transform="scale(0.015625)"/>
       <path id="DejaVuSans-65" d="M 3597 1894 
L 3597 1613 
L 953 1613 
Q 991 1019 1311 708 
Q 1631 397 2203 397 
Q 2534 397 2845 478 
Q 3156 559 3463 722 
L 3463 178 
Q 3153 47 2828 -22 
Q 2503 -91 2169 -91 
Q 1331 -91 842 396 
Q 353 884 353 1716 
Q 353 2575 817 3079 
Q 1281 3584 2069 3584 
Q 2775 3584 3186 3129 
Q 3597 2675 3597 1894 
z
M 3022 2063 
Q 3016 2534 2758 2815 
Q 2500 3097 2075 3097 
Q 1594 3097 1305 2825 
Q 1016 2553 972 2059 
L 3022 2063 
z
" transform="scale(0.015625)"/>
       <path id="DejaVuSans-71" d="M 947 1747 
Q 947 1113 1208 752 
Q 1469 391 1925 391 
Q 2381 391 2643 752 
Q 2906 1113 2906 1747 
Q 2906 2381 2643 2742 
Q 2381 3103 1925 3103 
Q 1469 3103 1208 2742 
Q 947 2381 947 1747 
z
M 2906 525 
Q 2725 213 2448 61 
Q 2172 -91 1784 -91 
Q 1150 -91 751 415 
Q 353 922 353 1747 
Q 353 2572 751 3078 
Q 1150 3584 1784 3584 
Q 2172 3584 2448 3432 
Q 2725 3281 2906 2969 
L 2906 3500 
L 3481 3500 
L 3481 -1331 
L 2906 -1331 
L 2906 525 
z
" transform="scale(0.015625)"/>
       <path id="DejaVuSans-75" d="M 544 1381 
L 544 3500 
L 1119 3500 
L 1119 1403 
Q 1119 906 1312 657 
Q 1506 409 1894 409 
Q 2359 409 2629 706 
Q 2900 1003 2900 1516 
L 2900 3500 
L 3475 3500 
L 3475 0 
L 2900 0 
L 2900 538 
Q 2691 219 2414 64 
Q 2138 -91 1772 -91 
Q 1169 -91 856 284 
Q 544 659 544 1381 
z
M 1991 3584 
L 1991 3584 
z
" transform="scale(0.015625)"/>
       <path id="DejaVuSans-6e" d="M 3513 2113 
L 3513 0 
L 2938 0 
L 2938 2094 
Q 2938 2591 2744 2837 
Q 2550 3084 2163 3084 
Q 1697 3084 1428 2787 
Q 1159 2491 1159 1978 
L 1159 0 
L 581 0 
L 581 3500 
L 1159 3500 
L 1159 2956 
Q 1366 3272 1645 3428 
Q 1925 3584 2291 3584 
Q 2894 3584 3203 3211 
Q 3513 2838 3513 2113 
z
" transform="scale(0.015625)"/>
       <path id="DejaVuSans-63" d="M 3122 3366 
L 3122 2828 
Q 2878 2963 2633 3030 
Q 2388 3097 2138 3097 
Q 1578 3097 1268 2742 
Q 959 2388 959 1747 
Q 959 1106 1268 751 
Q 1578 397 2138 397 
Q 2388 397 2633 464 
Q 2878 531 3122 666 
L 3122 134 
Q 2881 22 2623 -34 
Q 2366 -91 2075 -91 
Q 1284 -91 818 406 
Q 353 903 353 1747 
Q 353 2603 823 3093 
Q 1294 3584 2113 3584 
Q 2378 3584 2631 3529 
Q 2884 3475 3122 3366 
z
" transform="scale(0.015625)"/>
       <path id="DejaVuSans-79" d="M 2059 -325 
Q 1816 -950 1584 -1140 
Q 1353 -1331 966 -1331 
L 506 -1331 
L 506 -850 
L 844 -850 
Q 1081 -850 1212 -737 
Q 1344 -625 1503 -206 
L 1606 56 
L 191 3500 
L 800 3500 
L 1894 763 
L 2988 3500 
L 3597 3500 
L 2059 -325 
z
" transform="scale(0.015625)"/>
       <path id="DejaVuSans-20" transform="scale(0.015625)"/>
       <path id="DejaVuSans-5b" d="M 550 4863 
L 1875 4863 
L 1875 4416 
L 1125 4416 
L 1125 -397 
L 1875 -397 
L 1875 -844 
L 550 -844 
L 550 4863 
z
" transform="scale(0.015625)"/>
       <path id="DejaVuSans-4d" d="M 628 4666 
L 1569 4666 
L 2759 1491 
L 3956 4666 
L 4897 4666 
L 4897 0 
L 4281 0 
L 4281 4097 
L 3078 897 
L 2444 897 
L 1241 4097 
L 1241 0 
L 628 0 
L 628 4666 
z
" transform="scale(0.015625)"/>
       <path id="DejaVuSans-48" d="M 628 4666 
L 1259 4666 
L 1259 2753 
L 3553 2753 
L 3553 4666 
L 4184 4666 
L 4184 0 
L 3553 0 
L 3553 2222 
L 1259 2222 
L 1259 0 
L 628 0 
L 628 4666 
z
" transform="scale(0.015625)"/>
       <path id="DejaVuSans-7a" d="M 353 3500 
L 3084 3500 
L 3084 2975 
L 922 459 
L 3084 459 
L 3084 0 
L 275 0 
L 275 525 
L 2438 3041 
L 353 3041 
L 353 3500 
z
" transform="scale(0.015625)"/>
       <path id="DejaVuSans-5d" d="M 1947 4863 
L 1947 -844 
L 622 -844 
L 622 -397 
L 1369 -397 
L 1369 4416 
L 622 4416 
L 622 4863 
L 1947 4863 
z
" transform="scale(0.015625)"/>
      </defs>
      <use xlink:href="#DejaVuSans-46"/>
      <use xlink:href="#DejaVuSans-72" x="50.269531"/>
      <use xlink:href="#DejaVuSans-65" x="89.132812"/>
      <use xlink:href="#DejaVuSans-71" x="150.65625"/>
      <use xlink:href="#DejaVuSans-75" x="214.132812"/>
      <use xlink:href="#DejaVuSans-65" x="277.511719"/>
      <use xlink:href="#DejaVuSans-6e" x="339.035156"/>
      <use xlink:href="#DejaVuSans-63" x="402.414062"/>
      <use xlink:href="#DejaVuSans-79" x="457.394531"/>
      <use xlink:href="#DejaVuSans-20" x="516.574219"/>
      <use xlink:href="#DejaVuSans-5b" x="548.361328"/>
      <use xlink:href="#DejaVuSans-4d" x="587.375"/>
      <use xlink:href="#DejaVuSans-48" x="673.654297"/>
      <use xlink:href="#DejaVuSans-7a" x="748.849609"/>
      <use xlink:href="#DejaVuSans-5d" x="801.339844"/>
     </g>
    </g>
    <g id="text_11">
     <!-- +5 GHz -->
     <g transform="translate(359.285625 335.148562) scale(0.1 -0.1)">
      <defs>
       <path id="DejaVuSans-2b" d="M 2944 4013 
L 2944 2272 
L 4684 2272 
L 4684 1741 
L 2944 1741 
L 2944 0 
L 2419 0 
L 2419 1741 
L 678 1741 
L 678 2272 
L 2419 2272 
L 2419 4013 
L 2944 4013 
z
" transform="scale(0.015625)"/>
       <path id="DejaVuSans-47" d="M 3809 666 
L 3809 1919 
L 2778 1919 
L 2778 2438 
L 4434 2438 
L 4434 434 
Q 4069 175 3628 42 
Q 3188 -91 2688 -91 
Q 1594 -91 976 548 
Q 359 1188 359 2328 
Q 359 3472 976 4111 
Q 1594 4750 2688 4750 
Q 3144 4750 3555 4637 
Q 3966 4525 4313 4306 
L 4313 3634 
Q 3963 3931 3569 4081 
Q 3175 4231 2741 4231 
Q 1884 4231 1454 3753 
Q 1025 3275 1025 2328 
Q 1025 1384 1454 906 
Q 1884 428 2741 428 
Q 3075 428 3337 486 
Q 3600 544 3809 666 
z
" transform="scale(0.015625)"/>
      </defs>
      <use xlink:href="#DejaVuSans-2b"/>
      <use xlink:href="#DejaVuSans-35" x="83.789062"/>
      <use xlink:href="#DejaVuSans-20" x="147.412109"/>
      <use xlink:href="#DejaVuSans-47" x="179.199219"/>
      <use xlink:href="#DejaVuSans-48" x="256.689453"/>
      <use xlink:href="#DejaVuSans-7a" x="331.884766"/>
     </g>
    </g>
   </g>
   <g id="matplotlib.axis_2">
    <g id="ytick_1">
     <g id="line2d_10">
      <defs>
       <path id="m98cf99b319" d="M 0 0 
L -3.5 0 
" style="stroke: #000000; stroke-width: 0.8"/>
      </defs>
      <g>
       <use xlink:href="#m98cf99b319" x="40.603125" y="296.566357" style="stroke: #000000; stroke-width: 0.8"/>
      </g>
     </g>
     <g id="text_12">
      <!-- 0 -->
      <g transform="translate(27.240625 300.365576) scale(0.1 -0.1)">
       <defs>
        <path id="DejaVuSans-30" d="M 2034 4250 
Q 1547 4250 1301 3770 
Q 1056 3291 1056 2328 
Q 1056 1369 1301 889 
Q 1547 409 2034 409 
Q 2525 409 2770 889 
Q 3016 1369 3016 2328 
Q 3016 3291 2770 3770 
Q 2525 4250 2034 4250 
z
M 2034 4750 
Q 2819 4750 3233 4129 
Q 3647 3509 3647 2328 
Q 3647 1150 3233 529 
Q 2819 -91 2034 -91 
Q 1250 -91 836 529 
Q 422 1150 422 2328 
Q 422 3509 836 4129 
Q 1250 4750 2034 4750 
z
" transform="scale(0.015625)"/>
       </defs>
       <use xlink:href="#DejaVuSans-30"/>
      </g>
     </g>
    </g>
    <g id="ytick_2">
     <g id="line2d_11">
      <g>
       <use xlink:href="#m98cf99b319" x="40.603125" y="263.583708" style="stroke: #000000; stroke-width: 0.8"/>
      </g>
     </g>
     <g id="text_13">
      <!-- 10 -->
      <g transform="translate(20.878125 267.382926) scale(0.1 -0.1)">
       <use xlink:href="#DejaVuSans-31"/>
       <use xlink:href="#DejaVuSans-30" x="63.623047"/>
      </g>
     </g>
    </g>
    <g id="ytick_3">
     <g id="line2d_12">
      <g>
       <use xlink:href="#m98cf99b319" x="40.603125" y="230.601058" style="stroke: #000000; stroke-width: 0.8"/>
      </g>
     </g>
     <g id="text_14">
      <!-- 20 -->
      <g transform="translate(20.878125 234.400277) scale(0.1 -0.1)">
       <use xlink:href="#DejaVuSans-32"/>
       <use xlink:href="#DejaVuSans-30" x="63.623047"/>
      </g>
     </g>
    </g>
    <g id="ytick_4">
     <g id="line2d_13">
      <g>
       <use xlink:href="#m98cf99b319" x="40.603125" y="197.618409" style="stroke: #000000; stroke-width: 0.8"/>
      </g>
     </g>
     <g id="text_15">
      <!-- 30 -->
      <g transform="translate(20.878125 201.417628) scale(0.1 -0.1)">
       <use xlink:href="#DejaVuSans-33"/>
       <use xlink:href="#DejaVuSans-30" x="63.623047"/>
      </g>
     </g>
    </g>
    <g id="ytick_5">
     <g id="line2d_14">
      <g>
       <use xlink:href="#m98cf99b319" x="40.603125" y="164.635759" style="stroke: #000000; stroke-width: 0.8"/>
      </g>
     </g>
     <g id="text_16">
      <!-- 40 -->
      <g transform="translate(20.878125 168.434978) scale(0.1 -0.1)">
       <use xlink:href="#DejaVuSans-34"/>
       <use xlink:href="#DejaVuSans-30" x="63.623047"/>
      </g>
     </g>
    </g>
    <g id="ytick_6">
     <g id="line2d_15">
      <g>
       <use xlink:href="#m98cf99b319" x="40.603125" y="131.65311" style="stroke: #000000; stroke-width: 0.8"/>
      </g>
     </g>
     <g id="text_17">
      <!-- 50 -->
      <g transform="translate(20.878125 135.452329) scale(0.1 -0.1)">
       <use xlink:href="#DejaVuSans-35"/>
       <use xlink:href="#DejaVuSans-30" x="63.623047"/>
      </g>
     </g>
    </g>
    <g id="ytick_7">
     <g id="line2d_16">
      <g>
       <use xlink:href="#m98cf99b319" x="40.603125" y="98.67046" style="stroke: #000000; stroke-width: 0.8"/>
      </g>
     </g>
     <g id="text_18">
      <!-- 60 -->
      <g transform="translate(20.878125 102.469679) scale(0.1 -0.1)">
       <defs>
        <path id="DejaVuSans-36" d="M 2113 2584 
Q 1688 2584 1439 2293 
Q 1191 2003 1191 1497 
Q 1191 994 1439 701 
Q 1688 409 2113 409 
Q 2538 409 2786 701 
Q 3034 994 3034 1497 
Q 3034 2003 2786 2293 
Q 2538 2584 2113 2584 
z
M 3366 4563 
L 3366 3988 
Q 3128 4100 2886 4159 
Q 2644 4219 2406 4219 
Q 1781 4219 1451 3797 
Q 1122 3375 1075 2522 
Q 1259 2794 1537 2939 
Q 1816 3084 2150 3084 
Q 2853 3084 3261 2657 
Q 3669 2231 3669 1497 
Q 3669 778 3244 343 
Q 2819 -91 2113 -91 
Q 1303 -91 875 529 
Q 447 1150 447 2328 
Q 447 3434 972 4092 
Q 1497 4750 2381 4750 
Q 2619 4750 2861 4703 
Q 3103 4656 3366 4563 
z
" transform="scale(0.015625)"/>
       </defs>
       <use xlink:href="#DejaVuSans-36"/>
       <use xlink:href="#DejaVuSans-30" x="63.623047"/>
      </g>
     </g>
    </g>
    <g id="ytick_8">
     <g id="line2d_17">
      <g>
       <use xlink:href="#m98cf99b319" x="40.603125" y="65.687811" style="stroke: #000000; stroke-width: 0.8"/>
      </g>
     </g>
     <g id="text_19">
      <!-- 70 -->
      <g transform="translate(20.878125 69.48703) scale(0.1 -0.1)">
       <defs>
        <path id="DejaVuSans-37" d="M 525 4666 
L 3525 4666 
L 3525 4397 
L 1831 0 
L 1172 0 
L 2766 4134 
L 525 4134 
L 525 4666 
z
" transform="scale(0.015625)"/>
       </defs>
       <use xlink:href="#DejaVuSans-37"/>
       <use xlink:href="#DejaVuSans-30" x="63.623047"/>
      </g>
     </g>
    </g>
    <g id="text_20">
     <!-- Magnitude0 [mV] -->
     <g transform="translate(14.798438 218.268344) rotate(-90) scale(0.1 -0.1)">
      <defs>
       <path id="DejaVuSans-61" d="M 2194 1759 
Q 1497 1759 1228 1600 
Q 959 1441 959 1056 
Q 959 750 1161 570 
Q 1363 391 1709 391 
Q 2188 391 2477 730 
Q 2766 1069 2766 1631 
L 2766 1759 
L 2194 1759 
z
M 3341 1997 
L 3341 0 
L 2766 0 
L 2766 531 
Q 2569 213 2275 61 
Q 1981 -91 1556 -91 
Q 1019 -91 701 211 
Q 384 513 384 1019 
Q 384 1609 779 1909 
Q 1175 2209 1959 2209 
L 2766 2209 
L 2766 2266 
Q 2766 2663 2505 2880 
Q 2244 3097 1772 3097 
Q 1472 3097 1187 3025 
Q 903 2953 641 2809 
L 641 3341 
Q 956 3463 1253 3523 
Q 1550 3584 1831 3584 
Q 2591 3584 2966 3190 
Q 3341 2797 3341 1997 
z
" transform="scale(0.015625)"/>
       <path id="DejaVuSans-67" d="M 2906 1791 
Q 2906 2416 2648 2759 
Q 2391 3103 1925 3103 
Q 1463 3103 1205 2759 
Q 947 2416 947 1791 
Q 947 1169 1205 825 
Q 1463 481 1925 481 
Q 2391 481 2648 825 
Q 2906 1169 2906 1791 
z
M 3481 434 
Q 3481 -459 3084 -895 
Q 2688 -1331 1869 -1331 
Q 1566 -1331 1297 -1286 
Q 1028 -1241 775 -1147 
L 775 -588 
Q 1028 -725 1275 -790 
Q 1522 -856 1778 -856 
Q 2344 -856 2625 -561 
Q 2906 -266 2906 331 
L 2906 616 
Q 2728 306 2450 153 
Q 2172 0 1784 0 
Q 1141 0 747 490 
Q 353 981 353 1791 
Q 353 2603 747 3093 
Q 1141 3584 1784 3584 
Q 2172 3584 2450 3431 
Q 2728 3278 2906 2969 
L 2906 3500 
L 3481 3500 
L 3481 434 
z
" transform="scale(0.015625)"/>
       <path id="DejaVuSans-69" d="M 603 3500 
L 1178 3500 
L 1178 0 
L 603 0 
L 603 3500 
z
M 603 4863 
L 1178 4863 
L 1178 4134 
L 603 4134 
L 603 4863 
z
" transform="scale(0.015625)"/>
       <path id="DejaVuSans-74" d="M 1172 4494 
L 1172 3500 
L 2356 3500 
L 2356 3053 
L 1172 3053 
L 1172 1153 
Q 1172 725 1289 603 
Q 1406 481 1766 481 
L 2356 481 
L 2356 0 
L 1766 0 
Q 1100 0 847 248 
Q 594 497 594 1153 
L 594 3053 
L 172 3053 
L 172 3500 
L 594 3500 
L 594 4494 
L 1172 4494 
z
" transform="scale(0.015625)"/>
       <path id="DejaVuSans-64" d="M 2906 2969 
L 2906 4863 
L 3481 4863 
L 3481 0 
L 2906 0 
L 2906 525 
Q 2725 213 2448 61 
Q 2172 -91 1784 -91 
Q 1150 -91 751 415 
Q 353 922 353 1747 
Q 353 2572 751 3078 
Q 1150 3584 1784 3584 
Q 2172 3584 2448 3432 
Q 2725 3281 2906 2969 
z
M 947 1747 
Q 947 1113 1208 752 
Q 1469 391 1925 391 
Q 2381 391 2643 752 
Q 2906 1113 2906 1747 
Q 2906 2381 2643 2742 
Q 2381 3103 1925 3103 
Q 1469 3103 1208 2742 
Q 947 2381 947 1747 
z
" transform="scale(0.015625)"/>
       <path id="DejaVuSans-6d" d="M 3328 2828 
Q 3544 3216 3844 3400 
Q 4144 3584 4550 3584 
Q 5097 3584 5394 3201 
Q 5691 2819 5691 2113 
L 5691 0 
L 5113 0 
L 5113 2094 
Q 5113 2597 4934 2840 
Q 4756 3084 4391 3084 
Q 3944 3084 3684 2787 
Q 3425 2491 3425 1978 
L 3425 0 
L 2847 0 
L 2847 2094 
Q 2847 2600 2669 2842 
Q 2491 3084 2119 3084 
Q 1678 3084 1418 2786 
Q 1159 2488 1159 1978 
L 1159 0 
L 581 0 
L 581 3500 
L 1159 3500 
L 1159 2956 
Q 1356 3278 1631 3431 
Q 1906 3584 2284 3584 
Q 2666 3584 2933 3390 
Q 3200 3197 3328 2828 
z
" transform="scale(0.015625)"/>
       <path id="DejaVuSans-56" d="M 1831 0 
L 50 4666 
L 709 4666 
L 2188 738 
L 3669 4666 
L 4325 4666 
L 2547 0 
L 1831 0 
z
" transform="scale(0.015625)"/>
      </defs>
      <use xlink:href="#DejaVuSans-4d"/>
      <use xlink:href="#DejaVuSans-61" x="86.279297"/>
      <use xlink:href="#DejaVuSans-67" x="147.558594"/>
      <use xlink:href="#DejaVuSans-6e" x="211.035156"/>
      <use xlink:href="#DejaVuSans-69" x="274.414062"/>
      <use xlink:href="#DejaVuSans-74" x="302.197266"/>
      <use xlink:href="#DejaVuSans-75" x="341.40625"/>
      <use xlink:href="#DejaVuSans-64" x="404.785156"/>
      <use xlink:href="#DejaVuSans-65" x="468.261719"/>
      <use xlink:href="#DejaVuSans-30" x="529.785156"/>
      <use xlink:href="#DejaVuSans-20" x="593.408203"/>
      <use xlink:href="#DejaVuSans-5b" x="625.195312"/>
      <use xlink:href="#DejaVuSans-6d" x="664.208984"/>
      <use xlink:href="#DejaVuSans-56" x="761.621094"/>
      <use xlink:href="#DejaVuSans-5d" x="830.029297"/>
     </g>
    </g>
   </g>
   <g id="line2d_18">
    <path d="M 56.835852 292.998894 
L 68.030837 293.039438 
L 79.225821 292.932255 
L 90.420805 292.962689 
L 101.61579 293.302224 
L 112.810774 293.264219 
L 124.005758 293.195987 
L 135.200743 293.2365 
L 146.395727 293.214171 
L 157.590711 293.264676 
L 168.785696 293.632623 
L 179.98068 293.883691 
L 191.175664 294.039377 
L 202.370649 294.804679 
L 213.565633 295.169459 
L 224.760617 295.35927 
L 235.955601 295.776 
L 247.150586 295.69941 
L 258.34557 295.721933 
L 269.540554 295.555463 
L 280.735539 295.336577 
L 291.930523 294.895242 
L 303.125507 294.773445 
L 314.320492 294.958388 
L 325.515476 294.522302 
L 336.71046 294.362871 
L 347.905445 294.464688 
L 359.100429 294.524948 
L 370.295413 293.967208 
L 381.490398 294.008249 
" clip-path="url(#pffefa66790)" style="fill: none; stroke: #440154; stroke-width: 1.5; stroke-linecap: square"/>
   </g>
   <g id="line2d_19">
    <path d="M 56.835852 284.516347 
L 68.030837 284.899603 
L 79.225821 284.92628 
L 90.420805 284.842267 
L 101.61579 284.754714 
L 112.810774 285.171159 
L 124.005758 285.03327 
L 135.200743 285.084003 
L 146.395727 285.597463 
L 157.590711 286.007455 
L 168.785696 286.38373 
L 179.98068 287.306211 
L 191.175664 287.953574 
L 202.370649 289.720005 
L 213.565633 290.855129 
L 224.760617 292.324928 
L 235.955601 293.595261 
L 247.150586 294.24186 
L 258.34557 293.537346 
L 269.540554 292.954981 
L 280.735539 291.726227 
L 291.930523 291.008912 
L 303.125507 290.489842 
L 314.320492 289.725246 
L 325.515476 289.447741 
L 336.71046 289.041282 
L 347.905445 288.670869 
L 359.100429 288.454743 
L 370.295413 288.016393 
L 381.490398 287.789739 
" clip-path="url(#pffefa66790)" style="fill: none; stroke: #470d60; stroke-width: 1.5; stroke-linecap: square"/>
   </g>
   <g id="line2d_20">
    <path d="M 56.835852 276.429933 
L 68.030837 276.299803 
L 79.225821 276.466543 
L 90.420805 276.547234 
L 101.61579 276.450321 
L 112.810774 276.697884 
L 124.005758 276.843963 
L 135.200743 277.141434 
L 146.395727 277.482273 
L 157.590711 278.076755 
L 168.785696 279.310545 
L 179.98068 280.674957 
L 191.175664 282.790563 
L 202.370649 284.551381 
L 213.565633 287.282562 
L 224.760617 289.647306 
L 235.955601 291.853281 
L 247.150586 292.311411 
L 258.34557 291.600999 
L 269.540554 290.091983 
L 280.735539 288.210819 
L 291.930523 287.000869 
L 303.125507 285.903206 
L 314.320492 284.868174 
L 325.515476 284.071618 
L 336.71046 283.347803 
L 347.905445 282.992611 
L 359.100429 282.795115 
L 370.295413 281.612231 
L 381.490398 281.741748 
" clip-path="url(#pffefa66790)" style="fill: none; stroke: #481a6c; stroke-width: 1.5; stroke-linecap: square"/>
   </g>
   <g id="line2d_21">
    <path d="M 56.835852 268.238463 
L 68.030837 267.899549 
L 79.225821 268.193273 
L 90.420805 268.313483 
L 101.61579 268.557436 
L 112.810774 268.411611 
L 124.005758 269.191902 
L 135.200743 269.634786 
L 146.395727 269.986409 
L 157.590711 270.697933 
L 168.785696 272.167207 
L 179.98068 274.793504 
L 191.175664 277.364035 
L 202.370649 280.271539 
L 213.565633 283.824357 
L 224.760617 287.321403 
L 235.955601 290.011689 
L 247.150586 290.21358 
L 258.34557 288.723553 
L 269.540554 286.727365 
L 280.735539 284.719568 
L 291.930523 282.38908 
L 303.125507 281.178955 
L 314.320492 280.038913 
L 325.515476 279.109336 
L 336.71046 278.052649 
L 347.905445 277.335229 
L 359.100429 276.675167 
L 370.295413 275.978429 
L 381.490398 275.636045 
" clip-path="url(#pffefa66790)" style="fill: none; stroke: #482576; stroke-width: 1.5; stroke-linecap: square"/>
   </g>
   <g id="line2d_22">
    <path d="M 56.835852 259.508879 
L 68.030837 259.520353 
L 79.225821 259.888073 
L 90.420805 259.652246 
L 101.61579 259.946241 
L 112.810774 260.189689 
L 124.005758 260.65765 
L 135.200743 261.557664 
L 146.395727 262.033827 
L 157.590711 263.67316 
L 168.785696 265.571818 
L 179.98068 268.343854 
L 191.175664 271.865939 
L 202.370649 276.095877 
L 213.565633 280.649214 
L 224.760617 284.833382 
L 235.955601 288.274688 
L 247.150586 288.508296 
L 258.34557 286.462048 
L 269.540554 283.78046 
L 280.735539 280.907448 
L 291.930523 278.407615 
L 303.125507 276.678822 
L 314.320492 275.0708 
L 325.515476 273.506041 
L 336.71046 272.693011 
L 347.905445 271.454955 
L 359.100429 270.870283 
L 370.295413 269.962441 
L 381.490398 269.565497 
" clip-path="url(#pffefa66790)" style="fill: none; stroke: #46307e; stroke-width: 1.5; stroke-linecap: square"/>
   </g>
   <g id="line2d_23">
    <path d="M 56.835852 251.686142 
L 68.030837 251.124559 
L 79.225821 251.857836 
L 90.420805 251.732292 
L 101.61579 252.07957 
L 112.810774 252.796883 
L 124.005758 253.449116 
L 135.200743 254.105595 
L 146.395727 255.175425 
L 157.590711 256.674099 
L 168.785696 258.693323 
L 179.98068 262.581381 
L 191.175664 266.908862 
L 202.370649 272.109462 
L 213.565633 277.837588 
L 224.760617 283.227507 
L 235.955601 286.422013 
L 247.150586 286.321753 
L 258.34557 283.293762 
L 269.540554 280.237294 
L 280.735539 276.921604 
L 291.930523 274.250004 
L 303.125507 271.891744 
L 314.320492 269.999504 
L 325.515476 268.346479 
L 336.71046 267.171826 
L 347.905445 265.647932 
L 359.100429 264.746043 
L 370.295413 264.194297 
L 381.490398 263.267628 
" clip-path="url(#pffefa66790)" style="fill: none; stroke: #443b84; stroke-width: 1.5; stroke-linecap: square"/>
   </g>
   <g id="line2d_24">
    <path d="M 56.835852 243.166504 
L 68.030837 242.900967 
L 79.225821 243.344349 
L 90.420805 243.595499 
L 101.61579 243.801838 
L 112.810774 244.135335 
L 124.005758 245.877013 
L 135.200743 246.645011 
L 146.395727 247.880634 
L 157.590711 249.739251 
L 168.785696 252.872429 
L 179.98068 256.989276 
L 191.175664 263.045659 
L 202.370649 269.341536 
L 213.565633 275.843381 
L 224.760617 281.739015 
L 235.955601 284.714126 
L 247.150586 283.658616 
L 258.34557 280.398845 
L 269.540554 276.397803 
L 280.735539 272.646593 
L 291.930523 269.849533 
L 303.125507 267.160641 
L 314.320492 264.983363 
L 325.515476 262.84719 
L 336.71046 261.38919 
L 347.905445 259.902767 
L 359.100429 259.195515 
L 370.295413 257.869732 
L 381.490398 256.738382 
" clip-path="url(#pffefa66790)" style="fill: none; stroke: #404588; stroke-width: 1.5; stroke-linecap: square"/>
   </g>
   <g id="line2d_25">
    <path d="M 56.835852 234.674823 
L 68.030837 235.141746 
L 79.225821 235.425028 
L 90.420805 235.323656 
L 101.61579 235.591247 
L 112.810774 237.115693 
L 124.005758 236.87888 
L 135.200743 239.166032 
L 146.395727 240.882874 
L 157.590711 243.612902 
L 168.785696 247.221912 
L 179.98068 252.720582 
L 191.175664 258.108393 
L 202.370649 266.489941 
L 213.565633 274.242509 
L 224.760617 280.005653 
L 235.955601 283.051435 
L 247.150586 280.886984 
L 258.34557 277.307736 
L 269.540554 272.50221 
L 280.735539 268.582398 
L 291.930523 264.422727 
L 303.125507 261.739748 
L 314.320492 259.508135 
L 325.515476 257.289772 
L 336.71046 255.731348 
L 347.905445 254.175632 
L 359.100429 252.820238 
L 370.295413 251.895103 
L 381.490398 250.785325 
" clip-path="url(#pffefa66790)" style="fill: none; stroke: #3c4f8a; stroke-width: 1.5; stroke-linecap: square"/>
   </g>
   <g id="line2d_26">
    <path d="M 56.835852 226.283078 
L 68.030837 226.536969 
L 79.225821 226.597085 
L 90.420805 227.389146 
L 101.61579 227.335293 
L 112.810774 228.351999 
L 124.005758 229.589419 
L 135.200743 231.795239 
L 146.395727 234.151782 
L 157.590711 237.568323 
L 168.785696 242.120968 
L 179.98068 248.330772 
L 191.175664 256.371529 
L 202.370649 265.174958 
L 213.565633 272.712653 
L 224.760617 279.17153 
L 235.955601 280.965782 
L 247.150586 277.845253 
L 258.34557 272.681315 
L 269.540554 268.02157 
L 280.735539 263.876034 
L 291.930523 259.823343 
L 303.125507 257.108753 
L 314.320492 253.693044 
L 325.515476 251.78503 
L 336.71046 249.670055 
L 347.905445 247.898056 
L 359.100429 246.655087 
L 370.295413 245.546805 
L 381.490398 244.528281 
" clip-path="url(#pffefa66790)" style="fill: none; stroke: #38598c; stroke-width: 1.5; stroke-linecap: square"/>
   </g>
   <g id="line2d_27">
    <path d="M 56.835852 218.166574 
L 68.030837 217.780672 
L 79.225821 218.265063 
L 90.420805 219.109484 
L 101.61579 219.341273 
L 112.810774 220.84285 
L 124.005758 222.480299 
L 135.200743 223.910341 
L 146.395727 226.331576 
L 157.590711 231.74446 
L 168.785696 236.953835 
L 179.98068 243.635546 
L 191.175664 252.969624 
L 202.370649 264.143893 
L 213.565633 272.882067 
L 224.760617 278.079097 
L 235.955601 278.556176 
L 247.150586 274.60189 
L 258.34557 268.140012 
L 269.540554 263.523338 
L 280.735539 259.025319 
L 291.930523 255.130037 
L 303.125507 251.566632 
L 314.320492 248.56673 
L 325.515476 246.208325 
L 336.71046 243.883904 
L 347.905445 242.13206 
L 359.100429 240.662389 
L 370.295413 239.359478 
L 381.490398 238.170054 
" clip-path="url(#pffefa66790)" style="fill: none; stroke: #33628d; stroke-width: 1.5; stroke-linecap: square"/>
   </g>
   <g id="line2d_28">
    <path d="M 56.835852 209.773581 
L 68.030837 209.922951 
L 79.225821 210.422342 
L 90.420805 210.458027 
L 101.61579 211.102301 
L 112.810774 212.347576 
L 124.005758 213.957212 
L 135.200743 217.726302 
L 146.395727 221.028995 
L 157.590711 225.052645 
L 168.785696 231.433239 
L 179.98068 239.870794 
L 191.175664 251.227897 
L 202.370649 261.491577 
L 213.565633 271.386727 
L 224.760617 275.951539 
L 235.955601 275.946252 
L 247.150586 271.067061 
L 258.34557 265.915177 
L 269.540554 259.895005 
L 280.735539 254.93903 
L 291.930523 250.101014 
L 303.125507 246.426549 
L 314.320492 243.237481 
L 325.515476 240.799191 
L 336.71046 238.606851 
L 347.905445 236.308219 
L 359.100429 234.538629 
L 370.295413 233.341837 
L 381.490398 231.850728 
" clip-path="url(#pffefa66790)" style="fill: none; stroke: #2f6b8e; stroke-width: 1.5; stroke-linecap: square"/>
   </g>
   <g id="line2d_29">
    <path d="M 56.835852 201.22544 
L 68.030837 201.42215 
L 79.225821 202.108698 
L 90.420805 202.541041 
L 101.61579 203.433229 
L 112.810774 205.159957 
L 124.005758 206.16648 
L 135.200743 209.36112 
L 146.395727 212.774599 
L 157.590711 219.14722 
L 168.785696 227.263416 
L 179.98068 238.531471 
L 191.175664 248.19532 
L 202.370649 260.216569 
L 213.565633 270.099702 
L 224.760617 275.407071 
L 235.955601 273.132826 
L 247.150586 267.614361 
L 258.34557 261.195685 
L 269.540554 254.731029 
L 280.735539 249.640847 
L 291.930523 244.860697 
L 303.125507 241.365577 
L 314.320492 237.517982 
L 325.515476 234.990636 
L 336.71046 232.639848 
L 347.905445 230.54227 
L 359.100429 228.340955 
L 370.295413 226.657388 
L 381.490398 225.705339 
" clip-path="url(#pffefa66790)" style="fill: none; stroke: #2c738e; stroke-width: 1.5; stroke-linecap: square"/>
   </g>
   <g id="line2d_30">
    <path d="M 56.835852 193.04082 
L 68.030837 193.360031 
L 79.225821 193.777953 
L 90.420805 194.350735 
L 101.61579 195.167041 
L 112.810774 196.854424 
L 124.005758 198.323529 
L 135.200743 200.788998 
L 146.395727 206.262909 
L 157.590711 214.96049 
L 168.785696 223.695969 
L 179.98068 234.655155 
L 191.175664 247.864177 
L 202.370649 260.615181 
L 213.565633 270.47075 
L 224.760617 273.670229 
L 235.955601 269.968717 
L 247.150586 263.181452 
L 258.34557 255.823789 
L 269.540554 249.761092 
L 280.735539 244.511109 
L 291.930523 239.565132 
L 303.125507 235.551824 
L 314.320492 231.840016 
L 325.515476 229.037549 
L 336.71046 226.854745 
L 347.905445 224.285686 
L 359.100429 222.240041 
L 370.295413 220.486949 
L 381.490398 219.008037 
" clip-path="url(#pffefa66790)" style="fill: none; stroke: #297b8e; stroke-width: 1.5; stroke-linecap: square"/>
   </g>
   <g id="line2d_31">
    <path d="M 56.835852 184.789131 
L 68.030837 184.875746 
L 79.225821 185.431268 
L 90.420805 186.241905 
L 101.61579 186.737177 
L 112.810774 188.48733 
L 124.005758 190.685306 
L 135.200743 194.04026 
L 146.395727 200.872126 
L 157.590711 208.372369 
L 168.785696 219.504859 
L 179.98068 231.281986 
L 191.175664 245.098636 
L 202.370649 258.768968 
L 213.565633 269.606484 
L 224.760617 272.470751 
L 235.955601 266.206605 
L 247.150586 257.939903 
L 258.34557 251.045087 
L 269.540554 244.87143 
L 280.735539 239.050843 
L 291.930523 234.181183 
L 303.125507 229.898459 
L 314.320492 226.40891 
L 325.515476 223.403325 
L 336.71046 220.391208 
L 347.905445 218.061021 
L 359.100429 216.125886 
L 370.295413 214.207315 
L 381.490398 212.765873 
" clip-path="url(#pffefa66790)" style="fill: none; stroke: #25838e; stroke-width: 1.5; stroke-linecap: square"/>
   </g>
   <g id="line2d_32">
    <path d="M 56.835852 176.705297 
L 68.030837 176.975434 
L 79.225821 177.303558 
L 90.420805 177.927193 
L 101.61579 179.418476 
L 112.810774 180.823099 
L 124.005758 182.414988 
L 135.200743 187.533541 
L 146.395727 193.708659 
L 157.590711 201.474774 
L 168.785696 215.216189 
L 179.98068 229.44704 
L 191.175664 243.941505 
L 202.370649 259.153136 
L 213.565633 269.824721 
L 224.760617 270.772675 
L 235.955601 263.3512 
L 247.150586 253.788873 
L 258.34557 245.596304 
L 269.540554 239.023772 
L 280.735539 233.452743 
L 291.930523 229.022553 
L 303.125507 224.091865 
L 314.320492 220.695544 
L 325.515476 217.216252 
L 336.71046 214.507869 
L 347.905445 211.26897 
L 359.100429 209.244004 
L 370.295413 207.846262 
L 381.490398 206.413673 
" clip-path="url(#pffefa66790)" style="fill: none; stroke: #228c8d; stroke-width: 1.5; stroke-linecap: square"/>
   </g>
   <g id="line2d_33">
    <path d="M 56.835852 168.21221 
L 68.030837 168.436035 
L 79.225821 169.076544 
L 90.420805 169.549617 
L 101.61579 170.84666 
L 112.810774 172.905383 
L 124.005758 175.6391 
L 135.200743 181.081813 
L 146.395727 187.456329 
L 157.590711 196.9416 
L 168.785696 209.524861 
L 179.98068 225.659159 
L 191.175664 242.261731 
L 202.370649 259.377979 
L 213.565633 269.048809 
L 224.760617 268.094402 
L 235.955601 261.22026 
L 247.150586 251.828221 
L 258.34557 242.71889 
L 269.540554 235.000474 
L 280.735539 228.289839 
L 291.930523 222.118564 
L 303.125507 218.477436 
L 314.320492 215.075869 
L 325.515476 211.876731 
L 336.71046 208.621209 
L 347.905445 205.998989 
L 359.100429 203.867196 
L 370.295413 201.982593 
L 381.490398 200.083546 
" clip-path="url(#pffefa66790)" style="fill: none; stroke: #1f948c; stroke-width: 1.5; stroke-linecap: square"/>
   </g>
   <g id="line2d_34">
    <path d="M 56.835852 159.613917 
L 68.030837 160.127466 
L 79.225821 160.938187 
L 90.420805 161.14109 
L 101.61579 162.459296 
L 112.810774 165.115897 
L 124.005758 167.809057 
L 135.200743 173.49817 
L 146.395727 180.489311 
L 157.590711 190.818638 
L 168.785696 204.851389 
L 179.98068 220.749108 
L 191.175664 240.815564 
L 202.370649 258.309888 
L 213.565633 268.408078 
L 224.760617 266.877971 
L 235.955601 257.765081 
L 247.150586 248.183987 
L 258.34557 238.710517 
L 269.540554 230.356203 
L 280.735539 222.829379 
L 291.930523 216.095248 
L 303.125507 213.105837 
L 314.320492 208.291207 
L 325.515476 204.971141 
L 336.71046 202.370342 
L 347.905445 199.353114 
L 359.100429 197.078638 
L 370.295413 194.865314 
L 381.490398 193.172673 
" clip-path="url(#pffefa66790)" style="fill: none; stroke: #1e9d89; stroke-width: 1.5; stroke-linecap: square"/>
   </g>
   <g id="line2d_35">
    <path d="M 56.835852 151.596272 
L 68.030837 151.642443 
L 79.225821 152.361948 
L 90.420805 153.278878 
L 101.61579 154.926088 
L 112.810774 156.838601 
L 124.005758 160.614067 
L 135.200743 167.065154 
L 146.395727 173.017973 
L 157.590711 185.595192 
L 168.785696 200.280452 
L 179.98068 219.587404 
L 191.175664 239.470228 
L 202.370649 257.450029 
L 213.565633 267.594495 
L 224.760617 264.481393 
L 235.955601 255.886235 
L 247.150586 244.073678 
L 258.34557 234.966172 
L 269.540554 225.437332 
L 280.735539 217.375234 
L 291.930523 211.732757 
L 303.125507 207.111757 
L 314.320492 203.012363 
L 325.515476 199.138644 
L 336.71046 196.269451 
L 347.905445 193.732025 
L 359.100429 190.98842 
L 370.295413 188.950922 
L 381.490398 187.373098 
" clip-path="url(#pffefa66790)" style="fill: none; stroke: #21a585; stroke-width: 1.5; stroke-linecap: square"/>
   </g>
   <g id="line2d_36">
    <path d="M 56.835852 143.083959 
L 68.030837 143.518355 
L 79.225821 144.287062 
L 90.420805 144.689778 
L 101.61579 145.926327 
L 112.810774 149.180308 
L 124.005758 153.114788 
L 135.200743 158.767525 
L 146.395727 166.880551 
L 157.590711 179.419387 
L 168.785696 195.989885 
L 179.98068 215.130987 
L 191.175664 236.545427 
L 202.370649 255.67729 
L 213.565633 266.166419 
L 224.760617 263.33 
L 235.955601 252.311523 
L 247.150586 241.502067 
L 258.34557 229.158889 
L 269.540554 219.748154 
L 280.735539 213.071033 
L 291.930523 206.451267 
L 303.125507 201.207157 
L 314.320492 197.103329 
L 325.515476 193.078861 
L 336.71046 190.276169 
L 347.905445 187.272196 
L 359.100429 184.639358 
L 370.295413 182.82663 
L 381.490398 180.755981 
" clip-path="url(#pffefa66790)" style="fill: none; stroke: #26ad81; stroke-width: 1.5; stroke-linecap: square"/>
   </g>
   <g id="line2d_37">
    <path d="M 56.835852 135.057505 
L 68.030837 135.185795 
L 79.225821 135.70184 
L 90.420805 136.661845 
L 101.61579 138.172407 
L 112.810774 141.156582 
L 124.005758 145.746379 
L 135.200743 151.902851 
L 146.395727 161.015209 
L 157.590711 173.791111 
L 168.785696 189.903964 
L 179.98068 211.267407 
L 191.175664 233.090147 
L 202.370649 254.359539 
L 213.565633 265.375999 
L 224.760617 260.277903 
L 235.955601 247.204974 
L 247.150586 235.782464 
L 258.34557 225.243264 
L 269.540554 216.272468 
L 280.735539 207.11987 
L 291.930523 201.374259 
L 303.125507 196.371236 
L 314.320492 191.290335 
L 325.515476 187.973446 
L 336.71046 184.362275 
L 347.905445 180.966856 
L 359.100429 178.375105 
L 370.295413 175.709214 
L 381.490398 173.772021 
" clip-path="url(#pffefa66790)" style="fill: none; stroke: #31b57b; stroke-width: 1.5; stroke-linecap: square"/>
   </g>
   <g id="line2d_38">
    <path d="M 56.835852 126.366812 
L 68.030837 127.076507 
L 79.225821 127.492079 
L 90.420805 129.154353 
L 101.61579 130.438059 
L 112.810774 133.626353 
L 124.005758 137.357293 
L 135.200743 144.16547 
L 146.395727 153.263801 
L 157.590711 167.636554 
L 168.785696 184.636869 
L 179.98068 207.474952 
L 191.175664 229.539675 
L 202.370649 252.268417 
L 213.565633 264.625311 
L 224.760617 259.852082 
L 235.955601 247.276264 
L 247.150586 233.191129 
L 258.34557 219.957903 
L 269.540554 210.923741 
L 280.735539 203.670351 
L 291.930523 195.888871 
L 303.125507 190.838302 
L 314.320492 185.048314 
L 325.515476 181.553433 
L 336.71046 178.273917 
L 347.905445 175.485039 
L 359.100429 172.25939 
L 370.295413 170.127504 
L 381.490398 167.861963 
" clip-path="url(#pffefa66790)" style="fill: none; stroke: #3fbc73; stroke-width: 1.5; stroke-linecap: square"/>
   </g>
   <g id="line2d_39">
    <path d="M 56.835852 118.543759 
L 68.030837 118.892125 
L 79.225821 119.623352 
L 90.420805 120.395344 
L 101.61579 122.749688 
L 112.810774 125.996296 
L 124.005758 130.193452 
L 135.200743 136.938419 
L 146.395727 146.594244 
L 157.590711 162.340681 
L 168.785696 180.122696 
L 179.98068 203.289891 
L 191.175664 228.048734 
L 202.370649 250.107783 
L 213.565633 263.628081 
L 224.760617 258.720462 
L 235.955601 245.21714 
L 247.150586 229.897238 
L 258.34557 217.843664 
L 269.540554 206.715423 
L 280.735539 198.735715 
L 291.930523 191.259512 
L 303.125507 184.476158 
L 314.320492 179.394156 
L 325.515476 176.109205 
L 336.71046 171.922876 
L 347.905445 168.623523 
L 359.100429 166.135127 
L 370.295413 163.980974 
L 381.490398 161.735136 
" clip-path="url(#pffefa66790)" style="fill: none; stroke: #50c46a; stroke-width: 1.5; stroke-linecap: square"/>
   </g>
   <g id="line2d_40">
    <path d="M 56.835852 110.311696 
L 68.030837 110.540991 
L 79.225821 111.405106 
L 90.420805 112.822768 
L 101.61579 114.841312 
L 112.810774 118.208725 
L 124.005758 121.605447 
L 135.200743 128.603467 
L 146.395727 140.324967 
L 157.590711 155.431717 
L 168.785696 175.595223 
L 179.98068 198.773862 
L 191.175664 224.696044 
L 202.370649 248.657316 
L 213.565633 262.609191 
L 224.760617 256.911015 
L 235.955601 242.306562 
L 247.150586 227.199118 
L 258.34557 213.689068 
L 269.540554 202.652442 
L 280.735539 194.618534 
L 291.930523 186.480244 
L 303.125507 179.971819 
L 314.320492 174.293665 
L 325.515476 169.965776 
L 336.71046 165.993419 
L 347.905445 163.026395 
L 359.100429 159.810176 
L 370.295413 157.36535 
L 381.490398 155.289004 
" clip-path="url(#pffefa66790)" style="fill: none; stroke: #63cb5f; stroke-width: 1.5; stroke-linecap: square"/>
   </g>
   <g id="line2d_41">
    <path d="M 56.835852 102.144468 
L 68.030837 102.477708 
L 79.225821 103.21792 
L 90.420805 104.585591 
L 101.61579 107.305472 
L 112.810774 110.702046 
L 124.005758 115.160479 
L 135.200743 123.181747 
L 146.395727 134.083005 
L 157.590711 150.762744 
L 168.785696 170.052468 
L 179.98068 196.572657 
L 191.175664 220.937231 
L 202.370649 248.590732 
L 213.565633 261.794254 
L 224.760617 255.7026 
L 235.955601 238.406135 
L 247.150586 221.825083 
L 258.34557 208.737045 
L 269.540554 198.522723 
L 280.735539 188.473588 
L 291.930523 181.169189 
L 303.125507 174.322944 
L 314.320492 168.561951 
L 325.515476 164.018965 
L 336.71046 160.162603 
L 347.905445 156.55527 
L 359.100429 153.067517 
L 370.295413 151.074871 
L 381.490398 148.751437 
" clip-path="url(#pffefa66790)" style="fill: none; stroke: #77d153; stroke-width: 1.5; stroke-linecap: square"/>
   </g>
   <g id="line2d_42">
    <path d="M 56.835852 93.878423 
L 68.030837 94.155006 
L 79.225821 95.506858 
L 90.420805 96.385893 
L 101.61579 98.850295 
L 112.810774 102.325997 
L 124.005758 107.360862 
L 135.200743 115.801263 
L 146.395727 127.341373 
L 157.590711 142.913712 
L 168.785696 164.346112 
L 179.98068 189.864878 
L 191.175664 219.275206 
L 202.370649 244.944316 
L 213.565633 260.745554 
L 224.760617 253.890619 
L 235.955601 236.883059 
L 247.150586 220.719505 
L 258.34557 206.479781 
L 269.540554 193.38887 
L 280.735539 184.06028 
L 291.930523 175.758402 
L 303.125507 168.738453 
L 314.320492 163.23865 
L 325.515476 157.760862 
L 336.71046 153.361828 
L 347.905445 150.204657 
L 359.100429 147.010834 
L 370.295413 144.356175 
L 381.490398 142.12231 
" clip-path="url(#pffefa66790)" style="fill: none; stroke: #8bd646; stroke-width: 1.5; stroke-linecap: square"/>
   </g>
   <g id="line2d_43">
    <path d="M 56.835852 85.679215 
L 68.030837 86.558157 
L 79.225821 87.59488 
L 90.420805 88.782816 
L 101.61579 91.049932 
L 112.810774 94.603813 
L 124.005758 99.924411 
L 135.200743 108.437307 
L 146.395727 121.188672 
L 157.590711 137.891426 
L 168.785696 159.594164 
L 179.98068 184.970308 
L 191.175664 215.264497 
L 202.370649 243.839852 
L 213.565633 259.66425 
L 224.760617 251.782222 
L 235.955601 234.015854 
L 247.150586 217.098474 
L 258.34557 203.379204 
L 269.540554 188.451281 
L 280.735539 178.563167 
L 291.930523 170.475444 
L 303.125507 164.39115 
L 314.320492 157.764459 
L 325.515476 151.454872 
L 336.71046 147.588557 
L 347.905445 144.295763 
L 359.100429 141.65989 
L 370.295413 138.351209 
L 381.490398 135.454552 
" clip-path="url(#pffefa66790)" style="fill: none; stroke: #a2da37; stroke-width: 1.5; stroke-linecap: square"/>
   </g>
   <g id="line2d_44">
    <path d="M 56.835852 77.85995 
L 68.030837 78.190174 
L 79.225821 79.380849 
L 90.420805 80.604898 
L 101.61579 82.848896 
L 112.810774 86.513188 
L 124.005758 92.473052 
L 135.200743 100.9411 
L 146.395727 113.448776 
L 157.590711 130.914493 
L 168.785696 153.829819 
L 179.98068 182.620456 
L 191.175664 212.633376 
L 202.370649 241.223748 
L 213.565633 258.194377 
L 224.760617 249.935613 
L 235.955601 232.000651 
L 247.150586 213.693345 
L 258.34557 199.056135 
L 269.540554 185.042535 
L 280.735539 174.052859 
L 291.930523 165.31316 
L 303.125507 158.636682 
L 314.320492 151.262255 
L 325.515476 147.29054 
L 336.71046 142.596592 
L 347.905445 138.067576 
L 359.100429 134.960972 
L 370.295413 132.030608 
L 381.490398 129.522981 
" clip-path="url(#pffefa66790)" style="fill: none; stroke: #bade28; stroke-width: 1.5; stroke-linecap: square"/>
   </g>
   <g id="line2d_45">
    <path d="M 56.835852 70.059851 
L 68.030837 70.179935 
L 79.225821 71.462509 
L 90.420805 73.040328 
L 101.61579 75.385703 
L 112.810774 78.615679 
L 124.005758 84.960044 
L 135.200743 93.845999 
L 146.395727 106.972934 
L 157.590711 125.342956 
L 168.785696 149.643655 
L 179.98068 178.880886 
L 191.175664 210.614997 
L 202.370649 239.889178 
L 213.565633 257.29734 
L 224.760617 249.849272 
L 235.955601 229.150065 
L 247.150586 210.48329 
L 258.34557 195.770652 
L 269.540554 180.385457 
L 280.735539 169.956006 
L 291.930523 159.424501 
L 303.125507 152.533262 
L 314.320492 146.439661 
L 325.515476 140.801554 
L 336.71046 135.975635 
L 347.905445 131.527909 
L 359.100429 128.306853 
L 370.295413 125.897858 
L 381.490398 123.312874 
" clip-path="url(#pffefa66790)" style="fill: none; stroke: #d2e21b; stroke-width: 1.5; stroke-linecap: square"/>
   </g>
   <g id="line2d_46">
    <path d="M 56.835852 61.831824 
L 68.030837 62.383635 
L 79.225821 63.309512 
L 90.420805 64.620282 
L 101.61579 67.432904 
L 112.810774 71.452143 
L 124.005758 77.420474 
L 135.200743 86.81135 
L 146.395727 100.057128 
L 157.590711 119.255546 
L 168.785696 144.168211 
L 179.98068 173.216296 
L 191.175664 208.5761 
L 202.370649 238.661637 
L 213.565633 256.321752 
L 224.760617 247.213718 
L 235.955601 226.882458 
L 247.150586 207.979523 
L 258.34557 190.194776 
L 269.540554 176.486676 
L 280.735539 165.199734 
L 291.930523 155.754517 
L 303.125507 148.415812 
L 314.320492 140.662236 
L 325.515476 135.491139 
L 336.71046 130.633189 
L 347.905445 126.655658 
L 359.100429 122.7201 
L 370.295413 119.454551 
L 381.490398 116.998584 
" clip-path="url(#pffefa66790)" style="fill: none; stroke: #eae51a; stroke-width: 1.5; stroke-linecap: square"/>
   </g>
   <g id="line2d_47">
    <path d="M 56.835852 53.856 
L 68.030837 54.424577 
L 79.225821 55.540415 
L 90.420805 57.168122 
L 101.61579 59.46635 
L 112.810774 63.858355 
L 124.005758 70.814255 
L 135.200743 79.517427 
L 146.395727 93.455386 
L 157.590711 113.356395 
L 168.785696 138.255392 
L 179.98068 169.396939 
L 191.175664 203.521269 
L 202.370649 236.509241 
L 213.565633 255.034953 
L 224.760617 245.996682 
L 235.955601 225.499717 
L 247.150586 206.217726 
L 258.34557 186.455496 
L 269.540554 172.441306 
L 280.735539 160.058636 
L 291.930523 149.939111 
L 303.125507 141.825915 
L 314.320492 135.648215 
L 325.515476 129.452242 
L 336.71046 124.835097 
L 347.905445 119.99462 
L 359.100429 116.679798 
L 370.295413 113.065423 
L 381.490398 110.545052 
" clip-path="url(#pffefa66790)" style="fill: none; stroke: #fde725; stroke-width: 1.5; stroke-linecap: square"/>
   </g>
   <g id="patch_3">
    <path d="M 40.603125 307.872 
L 40.603125 41.76 
" style="fill: none; stroke: #000000; stroke-width: 0.8; stroke-linejoin: miter; stroke-linecap: square"/>
   </g>
   <g id="patch_4">
    <path d="M 397.723125 307.872 
L 397.723125 41.76 
" style="fill: none; stroke: #000000; stroke-width: 0.8; stroke-linejoin: miter; stroke-linecap: square"/>
   </g>
   <g id="patch_5">
    <path d="M 40.603125 307.872 
L 397.723125 307.872 
" style="fill: none; stroke: #000000; stroke-width: 0.8; stroke-linejoin: miter; stroke-linecap: square"/>
   </g>
   <g id="patch_6">
    <path d="M 40.603125 41.76 
L 397.723125 41.76 
" style="fill: none; stroke: #000000; stroke-width: 0.8; stroke-linejoin: miter; stroke-linecap: square"/>
   </g>
   <g id="legend_1">
    <g id="patch_7">
     <path d="M 417.579125 307.872 
L 637.826 307.872 
Q 639.826 307.872 639.826 305.872 
L 639.826 145.412625 
Q 639.826 143.412625 637.826 143.412625 
L 417.579125 143.412625 
Q 415.579125 143.412625 415.579125 145.412625 
L 415.579125 305.872 
Q 415.579125 307.872 417.579125 307.872 
z
" style="fill: #ffffff; opacity: 0.8; stroke: #cccccc; stroke-linejoin: miter"/>
    </g>
    <g id="text_21">
     <!-- Readout pulse amplitude () -->
     <g transform="translate(459.601781 155.011063) scale(0.1 -0.1)">
      <defs>
       <path id="DejaVuSans-52" d="M 2841 2188 
Q 3044 2119 3236 1894 
Q 3428 1669 3622 1275 
L 4263 0 
L 3584 0 
L 2988 1197 
Q 2756 1666 2539 1819 
Q 2322 1972 1947 1972 
L 1259 1972 
L 1259 0 
L 628 0 
L 628 4666 
L 2053 4666 
Q 2853 4666 3247 4331 
Q 3641 3997 3641 3322 
Q 3641 2881 3436 2590 
Q 3231 2300 2841 2188 
z
M 1259 4147 
L 1259 2491 
L 2053 2491 
Q 2509 2491 2742 2702 
Q 2975 2913 2975 3322 
Q 2975 3731 2742 3939 
Q 2509 4147 2053 4147 
L 1259 4147 
z
" transform="scale(0.015625)"/>
       <path id="DejaVuSans-6f" d="M 1959 3097 
Q 1497 3097 1228 2736 
Q 959 2375 959 1747 
Q 959 1119 1226 758 
Q 1494 397 1959 397 
Q 2419 397 2687 759 
Q 2956 1122 2956 1747 
Q 2956 2369 2687 2733 
Q 2419 3097 1959 3097 
z
M 1959 3584 
Q 2709 3584 3137 3096 
Q 3566 2609 3566 1747 
Q 3566 888 3137 398 
Q 2709 -91 1959 -91 
Q 1206 -91 779 398 
Q 353 888 353 1747 
Q 353 2609 779 3096 
Q 1206 3584 1959 3584 
z
" transform="scale(0.015625)"/>
       <path id="DejaVuSans-70" d="M 1159 525 
L 1159 -1331 
L 581 -1331 
L 581 3500 
L 1159 3500 
L 1159 2969 
Q 1341 3281 1617 3432 
Q 1894 3584 2278 3584 
Q 2916 3584 3314 3078 
Q 3713 2572 3713 1747 
Q 3713 922 3314 415 
Q 2916 -91 2278 -91 
Q 1894 -91 1617 61 
Q 1341 213 1159 525 
z
M 3116 1747 
Q 3116 2381 2855 2742 
Q 2594 3103 2138 3103 
Q 1681 3103 1420 2742 
Q 1159 2381 1159 1747 
Q 1159 1113 1420 752 
Q 1681 391 2138 391 
Q 2594 391 2855 752 
Q 3116 1113 3116 1747 
z
" transform="scale(0.015625)"/>
       <path id="DejaVuSans-6c" d="M 603 4863 
L 1178 4863 
L 1178 0 
L 603 0 
L 603 4863 
z
" transform="scale(0.015625)"/>
       <path id="DejaVuSans-73" d="M 2834 3397 
L 2834 2853 
Q 2591 2978 2328 3040 
Q 2066 3103 1784 3103 
Q 1356 3103 1142 2972 
Q 928 2841 928 2578 
Q 928 2378 1081 2264 
Q 1234 2150 1697 2047 
L 1894 2003 
Q 2506 1872 2764 1633 
Q 3022 1394 3022 966 
Q 3022 478 2636 193 
Q 2250 -91 1575 -91 
Q 1294 -91 989 -36 
Q 684 19 347 128 
L 347 722 
Q 666 556 975 473 
Q 1284 391 1588 391 
Q 1994 391 2212 530 
Q 2431 669 2431 922 
Q 2431 1156 2273 1281 
Q 2116 1406 1581 1522 
L 1381 1569 
Q 847 1681 609 1914 
Q 372 2147 372 2553 
Q 372 3047 722 3315 
Q 1072 3584 1716 3584 
Q 2034 3584 2315 3537 
Q 2597 3491 2834 3397 
z
" transform="scale(0.015625)"/>
       <path id="DejaVuSans-28" d="M 1984 4856 
Q 1566 4138 1362 3434 
Q 1159 2731 1159 2009 
Q 1159 1288 1364 580 
Q 1569 -128 1984 -844 
L 1484 -844 
Q 1016 -109 783 600 
Q 550 1309 550 2009 
Q 550 2706 781 3412 
Q 1013 4119 1484 4856 
L 1984 4856 
z
" transform="scale(0.015625)"/>
       <path id="DejaVuSans-29" d="M 513 4856 
L 1013 4856 
Q 1481 4119 1714 3412 
Q 1947 2706 1947 2009 
Q 1947 1309 1714 600 
Q 1481 -109 1013 -844 
L 513 -844 
Q 928 -128 1133 580 
Q 1338 1288 1338 2009 
Q 1338 2731 1133 3434 
Q 928 4138 513 4856 
z
" transform="scale(0.015625)"/>
      </defs>
      <use xlink:href="#DejaVuSans-52"/>
      <use xlink:href="#DejaVuSans-65" x="64.982422"/>
      <use xlink:href="#DejaVuSans-61" x="126.505859"/>
      <use xlink:href="#DejaVuSans-64" x="187.785156"/>
      <use xlink:href="#DejaVuSans-6f" x="251.261719"/>
      <use xlink:href="#DejaVuSans-75" x="312.443359"/>
      <use xlink:href="#DejaVuSans-74" x="375.822266"/>
      <use xlink:href="#DejaVuSans-20" x="415.03125"/>
      <use xlink:href="#DejaVuSans-70" x="446.818359"/>
      <use xlink:href="#DejaVuSans-75" x="510.294922"/>
      <use xlink:href="#DejaVuSans-6c" x="573.673828"/>
      <use xlink:href="#DejaVuSans-73" x="601.457031"/>
      <use xlink:href="#DejaVuSans-65" x="653.556641"/>
      <use xlink:href="#DejaVuSans-20" x="715.080078"/>
      <use xlink:href="#DejaVuSans-61" x="746.867188"/>
      <use xlink:href="#DejaVuSans-6d" x="808.146484"/>
      <use xlink:href="#DejaVuSans-70" x="905.558594"/>
      <use xlink:href="#DejaVuSans-6c" x="969.035156"/>
      <use xlink:href="#DejaVuSans-69" x="996.818359"/>
      <use xlink:href="#DejaVuSans-74" x="1024.601562"/>
      <use xlink:href="#DejaVuSans-75" x="1063.810547"/>
      <use xlink:href="#DejaVuSans-64" x="1127.189453"/>
      <use xlink:href="#DejaVuSans-65" x="1190.666016"/>
      <use xlink:href="#DejaVuSans-20" x="1252.189453"/>
      <use xlink:href="#DejaVuSans-28" x="1283.976562"/>
      <use xlink:href="#DejaVuSans-29" x="1322.990234"/>
     </g>
    </g>
    <g id="line2d_48">
     <path d="M 419.579125 166.189188 
L 429.579125 166.189188 
L 439.579125 166.189188 
" style="fill: none; stroke: #440154; stroke-width: 1.5; stroke-linecap: square"/>
    </g>
    <g id="text_22">
     <!-- 0.01 -->
     <g transform="translate(447.579125 169.689188) scale(0.1 -0.1)">
      <use xlink:href="#DejaVuSans-30"/>
      <use xlink:href="#DejaVuSans-2e" x="63.623047"/>
      <use xlink:href="#DejaVuSans-30" x="95.410156"/>
      <use xlink:href="#DejaVuSans-31" x="159.033203"/>
     </g>
    </g>
    <g id="line2d_49">
     <path d="M 419.579125 180.867313 
L 429.579125 180.867313 
L 439.579125 180.867313 
" style="fill: none; stroke: #470d60; stroke-width: 1.5; stroke-linecap: square"/>
    </g>
    <g id="text_23">
     <!-- 0.0338 -->
     <g transform="translate(447.579125 184.367313) scale(0.1 -0.1)">
      <defs>
       <path id="DejaVuSans-38" d="M 2034 2216 
Q 1584 2216 1326 1975 
Q 1069 1734 1069 1313 
Q 1069 891 1326 650 
Q 1584 409 2034 409 
Q 2484 409 2743 651 
Q 3003 894 3003 1313 
Q 3003 1734 2745 1975 
Q 2488 2216 2034 2216 
z
M 1403 2484 
Q 997 2584 770 2862 
Q 544 3141 544 3541 
Q 544 4100 942 4425 
Q 1341 4750 2034 4750 
Q 2731 4750 3128 4425 
Q 3525 4100 3525 3541 
Q 3525 3141 3298 2862 
Q 3072 2584 2669 2484 
Q 3125 2378 3379 2068 
Q 3634 1759 3634 1313 
Q 3634 634 3220 271 
Q 2806 -91 2034 -91 
Q 1263 -91 848 271 
Q 434 634 434 1313 
Q 434 1759 690 2068 
Q 947 2378 1403 2484 
z
M 1172 3481 
Q 1172 3119 1398 2916 
Q 1625 2713 2034 2713 
Q 2441 2713 2670 2916 
Q 2900 3119 2900 3481 
Q 2900 3844 2670 4047 
Q 2441 4250 2034 4250 
Q 1625 4250 1398 4047 
Q 1172 3844 1172 3481 
z
" transform="scale(0.015625)"/>
      </defs>
      <use xlink:href="#DejaVuSans-30"/>
      <use xlink:href="#DejaVuSans-2e" x="63.623047"/>
      <use xlink:href="#DejaVuSans-30" x="95.410156"/>
      <use xlink:href="#DejaVuSans-33" x="159.033203"/>
      <use xlink:href="#DejaVuSans-33" x="222.65625"/>
      <use xlink:href="#DejaVuSans-38" x="286.279297"/>
     </g>
    </g>
    <g id="line2d_50">
     <path d="M 419.579125 195.545438 
L 429.579125 195.545438 
L 439.579125 195.545438 
" style="fill: none; stroke: #481a6c; stroke-width: 1.5; stroke-linecap: square"/>
    </g>
    <g id="text_24">
     <!-- 0.0576 -->
     <g transform="translate(447.579125 199.045438) scale(0.1 -0.1)">
      <use xlink:href="#DejaVuSans-30"/>
      <use xlink:href="#DejaVuSans-2e" x="63.623047"/>
      <use xlink:href="#DejaVuSans-30" x="95.410156"/>
      <use xlink:href="#DejaVuSans-35" x="159.033203"/>
      <use xlink:href="#DejaVuSans-37" x="222.65625"/>
      <use xlink:href="#DejaVuSans-36" x="286.279297"/>
     </g>
    </g>
    <g id="line2d_51">
     <path d="M 419.579125 210.223563 
L 429.579125 210.223563 
L 439.579125 210.223563 
" style="fill: none; stroke: #482576; stroke-width: 1.5; stroke-linecap: square"/>
    </g>
    <g id="text_25">
     <!-- 0.0814 -->
     <g transform="translate(447.579125 213.723563) scale(0.1 -0.1)">
      <use xlink:href="#DejaVuSans-30"/>
      <use xlink:href="#DejaVuSans-2e" x="63.623047"/>
      <use xlink:href="#DejaVuSans-30" x="95.410156"/>
      <use xlink:href="#DejaVuSans-38" x="159.033203"/>
      <use xlink:href="#DejaVuSans-31" x="222.65625"/>
      <use xlink:href="#DejaVuSans-34" x="286.279297"/>
     </g>
    </g>
    <g id="line2d_52">
     <path d="M 419.579125 224.901688 
L 429.579125 224.901688 
L 439.579125 224.901688 
" style="fill: none; stroke: #46307e; stroke-width: 1.5; stroke-linecap: square"/>
    </g>
    <g id="text_26">
     <!-- 0.105 -->
     <g transform="translate(447.579125 228.401688) scale(0.1 -0.1)">
      <use xlink:href="#DejaVuSans-30"/>
      <use xlink:href="#DejaVuSans-2e" x="63.623047"/>
      <use xlink:href="#DejaVuSans-31" x="95.410156"/>
      <use xlink:href="#DejaVuSans-30" x="159.033203"/>
      <use xlink:href="#DejaVuSans-35" x="222.65625"/>
     </g>
    </g>
    <g id="line2d_53">
     <path d="M 419.579125 239.579813 
L 429.579125 239.579813 
L 439.579125 239.579813 
" style="fill: none; stroke: #443b84; stroke-width: 1.5; stroke-linecap: square"/>
    </g>
    <g id="text_27">
     <!-- 0.129 -->
     <g transform="translate(447.579125 243.079813) scale(0.1 -0.1)">
      <use xlink:href="#DejaVuSans-30"/>
      <use xlink:href="#DejaVuSans-2e" x="63.623047"/>
      <use xlink:href="#DejaVuSans-31" x="95.410156"/>
      <use xlink:href="#DejaVuSans-32" x="159.033203"/>
      <use xlink:href="#DejaVuSans-39" x="222.65625"/>
     </g>
    </g>
    <g id="line2d_54">
     <path d="M 419.579125 254.257938 
L 429.579125 254.257938 
L 439.579125 254.257938 
" style="fill: none; stroke: #404588; stroke-width: 1.5; stroke-linecap: square"/>
    </g>
    <g id="text_28">
     <!-- 0.153 -->
     <g transform="translate(447.579125 257.757938) scale(0.1 -0.1)">
      <use xlink:href="#DejaVuSans-30"/>
      <use xlink:href="#DejaVuSans-2e" x="63.623047"/>
      <use xlink:href="#DejaVuSans-31" x="95.410156"/>
      <use xlink:href="#DejaVuSans-35" x="159.033203"/>
      <use xlink:href="#DejaVuSans-33" x="222.65625"/>
     </g>
    </g>
    <g id="line2d_55">
     <path d="M 419.579125 268.936062 
L 429.579125 268.936062 
L 439.579125 268.936062 
" style="fill: none; stroke: #3c4f8a; stroke-width: 1.5; stroke-linecap: square"/>
    </g>
    <g id="text_29">
     <!-- 0.177 -->
     <g transform="translate(447.579125 272.436062) scale(0.1 -0.1)">
      <use xlink:href="#DejaVuSans-30"/>
      <use xlink:href="#DejaVuSans-2e" x="63.623047"/>
      <use xlink:href="#DejaVuSans-31" x="95.410156"/>
      <use xlink:href="#DejaVuSans-37" x="159.033203"/>
      <use xlink:href="#DejaVuSans-37" x="222.65625"/>
     </g>
    </g>
    <g id="line2d_56">
     <path d="M 419.579125 283.614188 
L 429.579125 283.614188 
L 439.579125 283.614188 
" style="fill: none; stroke: #38598c; stroke-width: 1.5; stroke-linecap: square"/>
    </g>
    <g id="text_30">
     <!-- 0.2 -->
     <g transform="translate(447.579125 287.114188) scale(0.1 -0.1)">
      <use xlink:href="#DejaVuSans-30"/>
      <use xlink:href="#DejaVuSans-2e" x="63.623047"/>
      <use xlink:href="#DejaVuSans-32" x="95.410156"/>
     </g>
    </g>
    <g id="line2d_57">
     <path d="M 419.579125 298.292312 
L 429.579125 298.292312 
L 439.579125 298.292312 
" style="fill: none; stroke: #33628d; stroke-width: 1.5; stroke-linecap: square"/>
    </g>
    <g id="text_31">
     <!-- 0.224 -->
     <g transform="translate(447.579125 301.792312) scale(0.1 -0.1)">
      <use xlink:href="#DejaVuSans-30"/>
      <use xlink:href="#DejaVuSans-2e" x="63.623047"/>
      <use xlink:href="#DejaVuSans-32" x="95.410156"/>
      <use xlink:href="#DejaVuSans-32" x="159.033203"/>
      <use xlink:href="#DejaVuSans-34" x="222.65625"/>
     </g>
    </g>
    <g id="line2d_58">
     <path d="M 502.56975 166.189188 
L 512.56975 166.189188 
L 522.56975 166.189188 
" style="fill: none; stroke: #2f6b8e; stroke-width: 1.5; stroke-linecap: square"/>
    </g>
    <g id="text_32">
     <!-- 0.248 -->
     <g transform="translate(530.56975 169.689188) scale(0.1 -0.1)">
      <use xlink:href="#DejaVuSans-30"/>
      <use xlink:href="#DejaVuSans-2e" x="63.623047"/>
      <use xlink:href="#DejaVuSans-32" x="95.410156"/>
      <use xlink:href="#DejaVuSans-34" x="159.033203"/>
      <use xlink:href="#DejaVuSans-38" x="222.65625"/>
     </g>
    </g>
    <g id="line2d_59">
     <path d="M 502.56975 180.867313 
L 512.56975 180.867313 
L 522.56975 180.867313 
" style="fill: none; stroke: #2c738e; stroke-width: 1.5; stroke-linecap: square"/>
    </g>
    <g id="text_33">
     <!-- 0.272 -->
     <g transform="translate(530.56975 184.367313) scale(0.1 -0.1)">
      <use xlink:href="#DejaVuSans-30"/>
      <use xlink:href="#DejaVuSans-2e" x="63.623047"/>
      <use xlink:href="#DejaVuSans-32" x="95.410156"/>
      <use xlink:href="#DejaVuSans-37" x="159.033203"/>
      <use xlink:href="#DejaVuSans-32" x="222.65625"/>
     </g>
    </g>
    <g id="line2d_60">
     <path d="M 502.56975 195.545438 
L 512.56975 195.545438 
L 522.56975 195.545438 
" style="fill: none; stroke: #297b8e; stroke-width: 1.5; stroke-linecap: square"/>
    </g>
    <g id="text_34">
     <!-- 0.296 -->
     <g transform="translate(530.56975 199.045438) scale(0.1 -0.1)">
      <use xlink:href="#DejaVuSans-30"/>
      <use xlink:href="#DejaVuSans-2e" x="63.623047"/>
      <use xlink:href="#DejaVuSans-32" x="95.410156"/>
      <use xlink:href="#DejaVuSans-39" x="159.033203"/>
      <use xlink:href="#DejaVuSans-36" x="222.65625"/>
     </g>
    </g>
    <g id="line2d_61">
     <path d="M 502.56975 210.223563 
L 512.56975 210.223563 
L 522.56975 210.223563 
" style="fill: none; stroke: #25838e; stroke-width: 1.5; stroke-linecap: square"/>
    </g>
    <g id="text_35">
     <!-- 0.319 -->
     <g transform="translate(530.56975 213.723563) scale(0.1 -0.1)">
      <use xlink:href="#DejaVuSans-30"/>
      <use xlink:href="#DejaVuSans-2e" x="63.623047"/>
      <use xlink:href="#DejaVuSans-33" x="95.410156"/>
      <use xlink:href="#DejaVuSans-31" x="159.033203"/>
      <use xlink:href="#DejaVuSans-39" x="222.65625"/>
     </g>
    </g>
    <g id="line2d_62">
     <path d="M 502.56975 224.901688 
L 512.56975 224.901688 
L 522.56975 224.901688 
" style="fill: none; stroke: #228c8d; stroke-width: 1.5; stroke-linecap: square"/>
    </g>
    <g id="text_36">
     <!-- 0.343 -->
     <g transform="translate(530.56975 228.401688) scale(0.1 -0.1)">
      <use xlink:href="#DejaVuSans-30"/>
      <use xlink:href="#DejaVuSans-2e" x="63.623047"/>
      <use xlink:href="#DejaVuSans-33" x="95.410156"/>
      <use xlink:href="#DejaVuSans-34" x="159.033203"/>
      <use xlink:href="#DejaVuSans-33" x="222.65625"/>
     </g>
    </g>
    <g id="line2d_63">
     <path d="M 502.56975 239.579813 
L 512.56975 239.579813 
L 522.56975 239.579813 
" style="fill: none; stroke: #1f948c; stroke-width: 1.5; stroke-linecap: square"/>
    </g>
    <g id="text_37">
     <!-- 0.367 -->
     <g transform="translate(530.56975 243.079813) scale(0.1 -0.1)">
      <use xlink:href="#DejaVuSans-30"/>
      <use xlink:href="#DejaVuSans-2e" x="63.623047"/>
      <use xlink:href="#DejaVuSans-33" x="95.410156"/>
      <use xlink:href="#DejaVuSans-36" x="159.033203"/>
      <use xlink:href="#DejaVuSans-37" x="222.65625"/>
     </g>
    </g>
    <g id="line2d_64">
     <path d="M 502.56975 254.257938 
L 512.56975 254.257938 
L 522.56975 254.257938 
" style="fill: none; stroke: #1e9d89; stroke-width: 1.5; stroke-linecap: square"/>
    </g>
    <g id="text_38">
     <!-- 0.391 -->
     <g transform="translate(530.56975 257.757938) scale(0.1 -0.1)">
      <use xlink:href="#DejaVuSans-30"/>
      <use xlink:href="#DejaVuSans-2e" x="63.623047"/>
      <use xlink:href="#DejaVuSans-33" x="95.410156"/>
      <use xlink:href="#DejaVuSans-39" x="159.033203"/>
      <use xlink:href="#DejaVuSans-31" x="222.65625"/>
     </g>
    </g>
    <g id="line2d_65">
     <path d="M 502.56975 268.936062 
L 512.56975 268.936062 
L 522.56975 268.936062 
" style="fill: none; stroke: #21a585; stroke-width: 1.5; stroke-linecap: square"/>
    </g>
    <g id="text_39">
     <!-- 0.414 -->
     <g transform="translate(530.56975 272.436062) scale(0.1 -0.1)">
      <use xlink:href="#DejaVuSans-30"/>
      <use xlink:href="#DejaVuSans-2e" x="63.623047"/>
      <use xlink:href="#DejaVuSans-34" x="95.410156"/>
      <use xlink:href="#DejaVuSans-31" x="159.033203"/>
      <use xlink:href="#DejaVuSans-34" x="222.65625"/>
     </g>
    </g>
    <g id="line2d_66">
     <path d="M 502.56975 283.614188 
L 512.56975 283.614188 
L 522.56975 283.614188 
" style="fill: none; stroke: #26ad81; stroke-width: 1.5; stroke-linecap: square"/>
    </g>
    <g id="text_40">
     <!-- 0.438 -->
     <g transform="translate(530.56975 287.114188) scale(0.1 -0.1)">
      <use xlink:href="#DejaVuSans-30"/>
      <use xlink:href="#DejaVuSans-2e" x="63.623047"/>
      <use xlink:href="#DejaVuSans-34" x="95.410156"/>
      <use xlink:href="#DejaVuSans-33" x="159.033203"/>
      <use xlink:href="#DejaVuSans-38" x="222.65625"/>
     </g>
    </g>
    <g id="line2d_67">
     <path d="M 502.56975 298.292312 
L 512.56975 298.292312 
L 522.56975 298.292312 
" style="fill: none; stroke: #31b57b; stroke-width: 1.5; stroke-linecap: square"/>
    </g>
    <g id="text_41">
     <!-- 0.462 -->
     <g transform="translate(530.56975 301.792312) scale(0.1 -0.1)">
      <use xlink:href="#DejaVuSans-30"/>
      <use xlink:href="#DejaVuSans-2e" x="63.623047"/>
      <use xlink:href="#DejaVuSans-34" x="95.410156"/>
      <use xlink:href="#DejaVuSans-36" x="159.033203"/>
      <use xlink:href="#DejaVuSans-32" x="222.65625"/>
     </g>
    </g>
    <g id="line2d_68">
     <path d="M 579.197875 166.189188 
L 589.197875 166.189188 
L 599.197875 166.189188 
" style="fill: none; stroke: #3fbc73; stroke-width: 1.5; stroke-linecap: square"/>
    </g>
    <g id="text_42">
     <!-- 0.486 -->
     <g transform="translate(607.197875 169.689188) scale(0.1 -0.1)">
      <use xlink:href="#DejaVuSans-30"/>
      <use xlink:href="#DejaVuSans-2e" x="63.623047"/>
      <use xlink:href="#DejaVuSans-34" x="95.410156"/>
      <use xlink:href="#DejaVuSans-38" x="159.033203"/>
      <use xlink:href="#DejaVuSans-36" x="222.65625"/>
     </g>
    </g>
    <g id="line2d_69">
     <path d="M 579.197875 180.867313 
L 589.197875 180.867313 
L 599.197875 180.867313 
" style="fill: none; stroke: #50c46a; stroke-width: 1.5; stroke-linecap: square"/>
    </g>
    <g id="text_43">
     <!-- 0.51 -->
     <g transform="translate(607.197875 184.367313) scale(0.1 -0.1)">
      <use xlink:href="#DejaVuSans-30"/>
      <use xlink:href="#DejaVuSans-2e" x="63.623047"/>
      <use xlink:href="#DejaVuSans-35" x="95.410156"/>
      <use xlink:href="#DejaVuSans-31" x="159.033203"/>
     </g>
    </g>
    <g id="line2d_70">
     <path d="M 579.197875 195.545438 
L 589.197875 195.545438 
L 599.197875 195.545438 
" style="fill: none; stroke: #63cb5f; stroke-width: 1.5; stroke-linecap: square"/>
    </g>
    <g id="text_44">
     <!-- 0.533 -->
     <g transform="translate(607.197875 199.045438) scale(0.1 -0.1)">
      <use xlink:href="#DejaVuSans-30"/>
      <use xlink:href="#DejaVuSans-2e" x="63.623047"/>
      <use xlink:href="#DejaVuSans-35" x="95.410156"/>
      <use xlink:href="#DejaVuSans-33" x="159.033203"/>
      <use xlink:href="#DejaVuSans-33" x="222.65625"/>
     </g>
    </g>
    <g id="line2d_71">
     <path d="M 579.197875 210.223563 
L 589.197875 210.223563 
L 599.197875 210.223563 
" style="fill: none; stroke: #77d153; stroke-width: 1.5; stroke-linecap: square"/>
    </g>
    <g id="text_45">
     <!-- 0.557 -->
     <g transform="translate(607.197875 213.723563) scale(0.1 -0.1)">
      <use xlink:href="#DejaVuSans-30"/>
      <use xlink:href="#DejaVuSans-2e" x="63.623047"/>
      <use xlink:href="#DejaVuSans-35" x="95.410156"/>
      <use xlink:href="#DejaVuSans-35" x="159.033203"/>
      <use xlink:href="#DejaVuSans-37" x="222.65625"/>
     </g>
    </g>
    <g id="line2d_72">
     <path d="M 579.197875 224.901688 
L 589.197875 224.901688 
L 599.197875 224.901688 
" style="fill: none; stroke: #8bd646; stroke-width: 1.5; stroke-linecap: square"/>
    </g>
    <g id="text_46">
     <!-- 0.581 -->
     <g transform="translate(607.197875 228.401688) scale(0.1 -0.1)">
      <use xlink:href="#DejaVuSans-30"/>
      <use xlink:href="#DejaVuSans-2e" x="63.623047"/>
      <use xlink:href="#DejaVuSans-35" x="95.410156"/>
      <use xlink:href="#DejaVuSans-38" x="159.033203"/>
      <use xlink:href="#DejaVuSans-31" x="222.65625"/>
     </g>
    </g>
    <g id="line2d_73">
     <path d="M 579.197875 239.579813 
L 589.197875 239.579813 
L 599.197875 239.579813 
" style="fill: none; stroke: #a2da37; stroke-width: 1.5; stroke-linecap: square"/>
    </g>
    <g id="text_47">
     <!-- 0.605 -->
     <g transform="translate(607.197875 243.079813) scale(0.1 -0.1)">
      <use xlink:href="#DejaVuSans-30"/>
      <use xlink:href="#DejaVuSans-2e" x="63.623047"/>
      <use xlink:href="#DejaVuSans-36" x="95.410156"/>
      <use xlink:href="#DejaVuSans-30" x="159.033203"/>
      <use xlink:href="#DejaVuSans-35" x="222.65625"/>
     </g>
    </g>
    <g id="line2d_74">
     <path d="M 579.197875 254.257938 
L 589.197875 254.257938 
L 599.197875 254.257938 
" style="fill: none; stroke: #bade28; stroke-width: 1.5; stroke-linecap: square"/>
    </g>
    <g id="text_48">
     <!-- 0.629 -->
     <g transform="translate(607.197875 257.757938) scale(0.1 -0.1)">
      <use xlink:href="#DejaVuSans-30"/>
      <use xlink:href="#DejaVuSans-2e" x="63.623047"/>
      <use xlink:href="#DejaVuSans-36" x="95.410156"/>
      <use xlink:href="#DejaVuSans-32" x="159.033203"/>
      <use xlink:href="#DejaVuSans-39" x="222.65625"/>
     </g>
    </g>
    <g id="line2d_75">
     <path d="M 579.197875 268.936062 
L 589.197875 268.936062 
L 599.197875 268.936062 
" style="fill: none; stroke: #d2e21b; stroke-width: 1.5; stroke-linecap: square"/>
    </g>
    <g id="text_49">
     <!-- 0.652 -->
     <g transform="translate(607.197875 272.436062) scale(0.1 -0.1)">
      <use xlink:href="#DejaVuSans-30"/>
      <use xlink:href="#DejaVuSans-2e" x="63.623047"/>
      <use xlink:href="#DejaVuSans-36" x="95.410156"/>
      <use xlink:href="#DejaVuSans-35" x="159.033203"/>
      <use xlink:href="#DejaVuSans-32" x="222.65625"/>
     </g>
    </g>
    <g id="line2d_76">
     <path d="M 579.197875 283.614188 
L 589.197875 283.614188 
L 599.197875 283.614188 
" style="fill: none; stroke: #eae51a; stroke-width: 1.5; stroke-linecap: square"/>
    </g>
    <g id="text_50">
     <!-- 0.676 -->
     <g transform="translate(607.197875 287.114188) scale(0.1 -0.1)">
      <use xlink:href="#DejaVuSans-30"/>
      <use xlink:href="#DejaVuSans-2e" x="63.623047"/>
      <use xlink:href="#DejaVuSans-36" x="95.410156"/>
      <use xlink:href="#DejaVuSans-37" x="159.033203"/>
      <use xlink:href="#DejaVuSans-36" x="222.65625"/>
     </g>
    </g>
    <g id="line2d_77">
     <path d="M 579.197875 298.292312 
L 589.197875 298.292312 
L 599.197875 298.292312 
" style="fill: none; stroke: #fde725; stroke-width: 1.5; stroke-linecap: square"/>
    </g>
    <g id="text_51">
     <!-- 0.7 -->
     <g transform="translate(607.197875 301.792312) scale(0.1 -0.1)">
      <use xlink:href="#DejaVuSans-30"/>
      <use xlink:href="#DejaVuSans-2e" x="63.623047"/>
      <use xlink:href="#DejaVuSans-37" x="95.410156"/>
     </g>
    </g>
   </g>
  </g>
  <g id="text_52">
   <!-- x0x1-y0 resonator punchout -->
   <g transform="translate(128.292188 16.318125) scale(0.12 -0.12)">
    <defs>
     <path id="DejaVuSans-78" d="M 3513 3500 
L 2247 1797 
L 3578 0 
L 2900 0 
L 1881 1375 
L 863 0 
L 184 0 
L 1544 1831 
L 300 3500 
L 978 3500 
L 1906 2253 
L 2834 3500 
L 3513 3500 
z
" transform="scale(0.015625)"/>
     <path id="DejaVuSans-2d" d="M 313 2009 
L 1997 2009 
L 1997 1497 
L 313 1497 
L 313 2009 
z
" transform="scale(0.015625)"/>
     <path id="DejaVuSans-68" d="M 3513 2113 
L 3513 0 
L 2938 0 
L 2938 2094 
Q 2938 2591 2744 2837 
Q 2550 3084 2163 3084 
Q 1697 3084 1428 2787 
Q 1159 2491 1159 1978 
L 1159 0 
L 581 0 
L 581 4863 
L 1159 4863 
L 1159 2956 
Q 1366 3272 1645 3428 
Q 1925 3584 2291 3584 
Q 2894 3584 3203 3211 
Q 3513 2838 3513 2113 
z
" transform="scale(0.015625)"/>
    </defs>
    <use xlink:href="#DejaVuSans-78"/>
    <use xlink:href="#DejaVuSans-30" x="59.179688"/>
    <use xlink:href="#DejaVuSans-78" x="122.802734"/>
    <use xlink:href="#DejaVuSans-31" x="181.982422"/>
    <use xlink:href="#DejaVuSans-2d" x="245.605469"/>
    <use xlink:href="#DejaVuSans-79" x="279.939453"/>
    <use xlink:href="#DejaVuSans-30" x="339.119141"/>
    <use xlink:href="#DejaVuSans-20" x="402.742188"/>
    <use xlink:href="#DejaVuSans-72" x="434.529297"/>
    <use xlink:href="#DejaVuSans-65" x="473.392578"/>
    <use xlink:href="#DejaVuSans-73" x="534.916016"/>
    <use xlink:href="#DejaVuSans-6f" x="587.015625"/>
    <use xlink:href="#DejaVuSans-6e" x="648.197266"/>
    <use xlink:href="#DejaVuSans-61" x="711.576172"/>
    <use xlink:href="#DejaVuSans-74" x="772.855469"/>
    <use xlink:href="#DejaVuSans-6f" x="812.064453"/>
    <use xlink:href="#DejaVuSans-72" x="873.246094"/>
    <use xlink:href="#DejaVuSans-20" x="914.359375"/>
    <use xlink:href="#DejaVuSans-70" x="946.146484"/>
    <use xlink:href="#DejaVuSans-75" x="1009.623047"/>
    <use xlink:href="#DejaVuSans-6e" x="1073.001953"/>
    <use xlink:href="#DejaVuSans-63" x="1136.380859"/>
    <use xlink:href="#DejaVuSans-68" x="1191.361328"/>
    <use xlink:href="#DejaVuSans-6f" x="1254.740234"/>
    <use xlink:href="#DejaVuSans-75" x="1315.921875"/>
    <use xlink:href="#DejaVuSans-74" x="1379.300781"/>
   </g>
   <!-- tuid: 20231225-160223-225-0a1436 -->
   <g transform="translate(103.688438 29.7555) scale(0.12 -0.12)">
    <defs>
     <path id="DejaVuSans-3a" d="M 750 794 
L 1409 794 
L 1409 0 
L 750 0 
L 750 794 
z
M 750 3309 
L 1409 3309 
L 1409 2516 
L 750 2516 
L 750 3309 
z
" transform="scale(0.015625)"/>
    </defs>
    <use xlink:href="#DejaVuSans-74"/>
    <use xlink:href="#DejaVuSans-75" x="39.208984"/>
    <use xlink:href="#DejaVuSans-69" x="102.587891"/>
    <use xlink:href="#DejaVuSans-64" x="130.371094"/>
    <use xlink:href="#DejaVuSans-3a" x="193.847656"/>
    <use xlink:href="#DejaVuSans-20" x="227.539062"/>
    <use xlink:href="#DejaVuSans-32" x="259.326172"/>
    <use xlink:href="#DejaVuSans-30" x="322.949219"/>
    <use xlink:href="#DejaVuSans-32" x="386.572266"/>
    <use xlink:href="#DejaVuSans-33" x="450.195312"/>
    <use xlink:href="#DejaVuSans-31" x="513.818359"/>
    <use xlink:href="#DejaVuSans-32" x="577.441406"/>
    <use xlink:href="#DejaVuSans-32" x="641.064453"/>
    <use xlink:href="#DejaVuSans-35" x="704.6875"/>
    <use xlink:href="#DejaVuSans-2d" x="768.310547"/>
    <use xlink:href="#DejaVuSans-31" x="804.394531"/>
    <use xlink:href="#DejaVuSans-36" x="868.017578"/>
    <use xlink:href="#DejaVuSans-30" x="931.640625"/>
    <use xlink:href="#DejaVuSans-32" x="995.263672"/>
    <use xlink:href="#DejaVuSans-32" x="1058.886719"/>
    <use xlink:href="#DejaVuSans-33" x="1122.509766"/>
    <use xlink:href="#DejaVuSans-2d" x="1186.132812"/>
    <use xlink:href="#DejaVuSans-32" x="1222.216797"/>
    <use xlink:href="#DejaVuSans-32" x="1285.839844"/>
    <use xlink:href="#DejaVuSans-35" x="1349.462891"/>
    <use xlink:href="#DejaVuSans-2d" x="1413.085938"/>
    <use xlink:href="#DejaVuSans-30" x="1449.169922"/>
    <use xlink:href="#DejaVuSans-61" x="1512.792969"/>
    <use xlink:href="#DejaVuSans-31" x="1574.072266"/>
    <use xlink:href="#DejaVuSans-34" x="1637.695312"/>
    <use xlink:href="#DejaVuSans-33" x="1701.318359"/>
    <use xlink:href="#DejaVuSans-36" x="1764.941406"/>
   </g>
  </g>
 </g>
 <defs>
  <clipPath id="pffefa66790">
   <rect x="40.603125" y="41.76" width="357.12" height="266.112"/>
  </clipPath>
 </defs>
</svg>
