<?xml version="1.0" encoding="utf-8" standalone="no"?>
<!DOCTYPE svg PUBLIC "-//W3C//DTD SVG 1.1//EN"
  "http://www.w3.org/Graphics/SVG/1.1/DTD/svg11.dtd">
<svg xmlns:xlink="http://www.w3.org/1999/xlink" width="578.271312pt" height="345.42825pt" viewBox="0 0 578.271312 345.42825" xmlns="http://www.w3.org/2000/svg" version="1.1">
 <metadata>
  <rdf:RDF xmlns:dc="http://purl.org/dc/elements/1.1/" xmlns:cc="http://creativecommons.org/ns#" xmlns:rdf="http://www.w3.org/1999/02/22-rdf-syntax-ns#">
   <cc:Work>
    <dc:type rdf:resource="http://purl.org/dc/dcmitype/StillImage"/>
    <dc:date>2023-12-27T19:34:10.756617</dc:date>
    <dc:format>image/svg+xml</dc:format>
    <dc:creator>
     <cc:Agent>
      <dc:title>Matplotlib v3.8.2, https://matplotlib.org/</dc:title>
     </cc:Agent>
    </dc:creator>
   </cc:Work>
  </rdf:RDF>
 </metadata>
 <defs>
  <style type="text/css">*{stroke-linejoin: round; stroke-linecap: butt}</style>
 </defs>
 <g id="figure_1">
  <g id="patch_1">
   <path d="M 0 345.42825 
L 578.271312 345.42825 
L 578.271312 -0 
L 0 -0 
L 0 345.42825 
z
" style="fill: none; opacity: 0"/>
  </g>
  <g id="axes_1">
   <g id="patch_2">
    <path d="M 50.595313 162.72 
L 407.715312 162.72 
L 407.715312 41.76 
L 50.595313 41.76 
z
" style="fill: #ffffff"/>
   </g>
   <g id="matplotlib.axis_1">
    <g id="xtick_1">
     <g id="line2d_1">
      <defs>
       <path id="m6e2b724323" d="M 0 0 
L 0 3.5 
" style="stroke: #000000; stroke-width: 0.8"/>
      </defs>
      <g>
       <use xlink:href="#m6e2b724323" x="83.060767" y="162.72" style="stroke: #000000; stroke-width: 0.8"/>
      </g>
     </g>
    </g>
    <g id="xtick_2">
     <g id="line2d_2">
      <g>
       <use xlink:href="#m6e2b724323" x="147.991676" y="162.72" style="stroke: #000000; stroke-width: 0.8"/>
      </g>
     </g>
    </g>
    <g id="xtick_3">
     <g id="line2d_3">
      <g>
       <use xlink:href="#m6e2b724323" x="212.922585" y="162.72" style="stroke: #000000; stroke-width: 0.8"/>
      </g>
     </g>
    </g>
    <g id="xtick_4">
     <g id="line2d_4">
      <g>
       <use xlink:href="#m6e2b724323" x="277.853494" y="162.72" style="stroke: #000000; stroke-width: 0.8"/>
      </g>
     </g>
    </g>
    <g id="xtick_5">
     <g id="line2d_5">
      <g>
       <use xlink:href="#m6e2b724323" x="342.784403" y="162.72" style="stroke: #000000; stroke-width: 0.8"/>
      </g>
     </g>
    </g>
    <g id="xtick_6">
     <g id="line2d_6">
      <g>
       <use xlink:href="#m6e2b724323" x="407.715312" y="162.72" style="stroke: #000000; stroke-width: 0.8"/>
      </g>
     </g>
    </g>
   </g>
   <g id="matplotlib.axis_2">
    <g id="ytick_1">
     <g id="line2d_7">
      <defs>
       <path id="m9ee29f741b" d="M 0 0 
L -3.5 0 
" style="stroke: #000000; stroke-width: 0.8"/>
      </defs>
      <g>
       <use xlink:href="#m9ee29f741b" x="50.595313" y="152.442154" style="stroke: #000000; stroke-width: 0.8"/>
      </g>
     </g>
     <g id="text_1">
      <!-- 2 -->
      <g transform="translate(37.232813 156.241373) scale(0.1 -0.1)">
       <defs>
        <path id="DejaVuSans-32" d="M 1228 531 
L 3431 531 
L 3431 0 
L 469 0 
L 469 531 
Q 828 903 1448 1529 
Q 2069 2156 2228 2338 
Q 2531 2678 2651 2914 
Q 2772 3150 2772 3378 
Q 2772 3750 2511 3984 
Q 2250 4219 1831 4219 
Q 1534 4219 1204 4116 
Q 875 4013 500 3803 
L 500 4441 
Q 881 4594 1212 4672 
Q 1544 4750 1819 4750 
Q 2544 4750 2975 4387 
Q 3406 4025 3406 3419 
Q 3406 3131 3298 2873 
Q 3191 2616 2906 2266 
Q 2828 2175 2409 1742 
Q 1991 1309 1228 531 
z
" transform="scale(0.015625)"/>
       </defs>
       <use xlink:href="#DejaVuSans-32"/>
      </g>
     </g>
    </g>
    <g id="ytick_2">
     <g id="line2d_8">
      <g>
       <use xlink:href="#m9ee29f741b" x="50.595313" y="130.084506" style="stroke: #000000; stroke-width: 0.8"/>
      </g>
     </g>
     <g id="text_2">
      <!-- 4 -->
      <g transform="translate(37.232813 133.883725) scale(0.1 -0.1)">
       <defs>
        <path id="DejaVuSans-34" d="M 2419 4116 
L 825 1625 
L 2419 1625 
L 2419 4116 
z
M 2253 4666 
L 3047 4666 
L 3047 1625 
L 3713 1625 
L 3713 1100 
L 3047 1100 
L 3047 0 
L 2419 0 
L 2419 1100 
L 313 1100 
L 313 1709 
L 2253 4666 
z
" transform="scale(0.015625)"/>
       </defs>
       <use xlink:href="#DejaVuSans-34"/>
      </g>
     </g>
    </g>
    <g id="ytick_3">
     <g id="line2d_9">
      <g>
       <use xlink:href="#m9ee29f741b" x="50.595313" y="107.726859" style="stroke: #000000; stroke-width: 0.8"/>
      </g>
     </g>
     <g id="text_3">
      <!-- 6 -->
      <g transform="translate(37.232813 111.526077) scale(0.1 -0.1)">
       <defs>
        <path id="DejaVuSans-36" d="M 2113 2584 
Q 1688 2584 1439 2293 
Q 1191 2003 1191 1497 
Q 1191 994 1439 701 
Q 1688 409 2113 409 
Q 2538 409 2786 701 
Q 3034 994 3034 1497 
Q 3034 2003 2786 2293 
Q 2538 2584 2113 2584 
z
M 3366 4563 
L 3366 3988 
Q 3128 4100 2886 4159 
Q 2644 4219 2406 4219 
Q 1781 4219 1451 3797 
Q 1122 3375 1075 2522 
Q 1259 2794 1537 2939 
Q 1816 3084 2150 3084 
Q 2853 3084 3261 2657 
Q 3669 2231 3669 1497 
Q 3669 778 3244 343 
Q 2819 -91 2113 -91 
Q 1303 -91 875 529 
Q 447 1150 447 2328 
Q 447 3434 972 4092 
Q 1497 4750 2381 4750 
Q 2619 4750 2861 4703 
Q 3103 4656 3366 4563 
z
" transform="scale(0.015625)"/>
       </defs>
       <use xlink:href="#DejaVuSans-36"/>
      </g>
     </g>
    </g>
    <g id="ytick_4">
     <g id="line2d_10">
      <g>
       <use xlink:href="#m9ee29f741b" x="50.595313" y="85.369211" style="stroke: #000000; stroke-width: 0.8"/>
      </g>
     </g>
     <g id="text_4">
      <!-- 8 -->
      <g transform="translate(37.232813 89.16843) scale(0.1 -0.1)">
       <defs>
        <path id="DejaVuSans-38" d="M 2034 2216 
Q 1584 2216 1326 1975 
Q 1069 1734 1069 1313 
Q 1069 891 1326 650 
Q 1584 409 2034 409 
Q 2484 409 2743 651 
Q 3003 894 3003 1313 
Q 3003 1734 2745 1975 
Q 2488 2216 2034 2216 
z
M 1403 2484 
Q 997 2584 770 2862 
Q 544 3141 544 3541 
Q 544 4100 942 4425 
Q 1341 4750 2034 4750 
Q 2731 4750 3128 4425 
Q 3525 4100 3525 3541 
Q 3525 3141 3298 2862 
Q 3072 2584 2669 2484 
Q 3125 2378 3379 2068 
Q 3634 1759 3634 1313 
Q 3634 634 3220 271 
Q 2806 -91 2034 -91 
Q 1263 -91 848 271 
Q 434 634 434 1313 
Q 434 1759 690 2068 
Q 947 2378 1403 2484 
z
M 1172 3481 
Q 1172 3119 1398 2916 
Q 1625 2713 2034 2713 
Q 2441 2713 2670 2916 
Q 2900 3119 2900 3481 
Q 2900 3844 2670 4047 
Q 2441 4250 2034 4250 
Q 1625 4250 1398 4047 
Q 1172 3844 1172 3481 
z
" transform="scale(0.015625)"/>
       </defs>
       <use xlink:href="#DejaVuSans-38"/>
      </g>
     </g>
    </g>
    <g id="ytick_5">
     <g id="line2d_11">
      <g>
       <use xlink:href="#m9ee29f741b" x="50.595313" y="63.011563" style="stroke: #000000; stroke-width: 0.8"/>
      </g>
     </g>
     <g id="text_5">
      <!-- 10 -->
      <g transform="translate(30.870313 66.810782) scale(0.1 -0.1)">
       <defs>
        <path id="DejaVuSans-31" d="M 794 531 
L 1825 531 
L 1825 4091 
L 703 3866 
L 703 4441 
L 1819 4666 
L 2450 4666 
L 2450 531 
L 3481 531 
L 3481 0 
L 794 0 
L 794 531 
z
" transform="scale(0.015625)"/>
        <path id="DejaVuSans-30" d="M 2034 4250 
Q 1547 4250 1301 3770 
Q 1056 3291 1056 2328 
Q 1056 1369 1301 889 
Q 1547 409 2034 409 
Q 2525 409 2770 889 
Q 3016 1369 3016 2328 
Q 3016 3291 2770 3770 
Q 2525 4250 2034 4250 
z
M 2034 4750 
Q 2819 4750 3233 4129 
Q 3647 3509 3647 2328 
Q 3647 1150 3233 529 
Q 2819 -91 2034 -91 
Q 1250 -91 836 529 
Q 422 1150 422 2328 
Q 422 3509 836 4129 
Q 1250 4750 2034 4750 
z
" transform="scale(0.015625)"/>
       </defs>
       <use xlink:href="#DejaVuSans-31"/>
       <use xlink:href="#DejaVuSans-30" x="63.623047"/>
      </g>
     </g>
    </g>
    <g id="text_6">
     <!-- $|S_{21}|$ [mV] -->
     <g transform="translate(24.470313 127.19) rotate(-90) scale(0.1 -0.1)">
      <defs>
       <path id="DejaVuSans-7c" d="M 1344 4891 
L 1344 -1509 
L 813 -1509 
L 813 4891 
L 1344 4891 
z
" transform="scale(0.015625)"/>
       <path id="DejaVuSans-Oblique-53" d="M 3859 4513 
L 3738 3897 
Q 3422 4066 3111 4152 
Q 2800 4238 2509 4238 
Q 1944 4238 1609 3991 
Q 1275 3744 1275 3334 
Q 1275 3109 1398 2989 
Q 1522 2869 2034 2731 
L 2413 2638 
Q 3053 2472 3303 2217 
Q 3553 1963 3553 1503 
Q 3553 797 2998 353 
Q 2444 -91 1538 -91 
Q 1166 -91 791 -17 
Q 416 56 38 206 
L 166 856 
Q 513 641 861 531 
Q 1209 422 1556 422 
Q 2147 422 2503 684 
Q 2859 947 2859 1369 
Q 2859 1650 2717 1795 
Q 2575 1941 2106 2059 
L 1728 2156 
Q 1081 2325 845 2545 
Q 609 2766 609 3163 
Q 609 3859 1145 4304 
Q 1681 4750 2541 4750 
Q 2875 4750 3203 4690 
Q 3531 4631 3859 4513 
z
" transform="scale(0.015625)"/>
       <path id="DejaVuSans-20" transform="scale(0.015625)"/>
       <path id="DejaVuSans-5b" d="M 550 4863 
L 1875 4863 
L 1875 4416 
L 1125 4416 
L 1125 -397 
L 1875 -397 
L 1875 -844 
L 550 -844 
L 550 4863 
z
" transform="scale(0.015625)"/>
       <path id="DejaVuSans-6d" d="M 3328 2828 
Q 3544 3216 3844 3400 
Q 4144 3584 4550 3584 
Q 5097 3584 5394 3201 
Q 5691 2819 5691 2113 
L 5691 0 
L 5113 0 
L 5113 2094 
Q 5113 2597 4934 2840 
Q 4756 3084 4391 3084 
Q 3944 3084 3684 2787 
Q 3425 2491 3425 1978 
L 3425 0 
L 2847 0 
L 2847 2094 
Q 2847 2600 2669 2842 
Q 2491 3084 2119 3084 
Q 1678 3084 1418 2786 
Q 1159 2488 1159 1978 
L 1159 0 
L 581 0 
L 581 3500 
L 1159 3500 
L 1159 2956 
Q 1356 3278 1631 3431 
Q 1906 3584 2284 3584 
Q 2666 3584 2933 3390 
Q 3200 3197 3328 2828 
z
" transform="scale(0.015625)"/>
       <path id="DejaVuSans-56" d="M 1831 0 
L 50 4666 
L 709 4666 
L 2188 738 
L 3669 4666 
L 4325 4666 
L 2547 0 
L 1831 0 
z
" transform="scale(0.015625)"/>
       <path id="DejaVuSans-5d" d="M 1947 4863 
L 1947 -844 
L 622 -844 
L 622 -397 
L 1369 -397 
L 1369 4416 
L 622 4416 
L 622 4863 
L 1947 4863 
z
" transform="scale(0.015625)"/>
      </defs>
      <use xlink:href="#DejaVuSans-7c" transform="translate(0 0.578125)"/>
      <use xlink:href="#DejaVuSans-Oblique-53" transform="translate(33.691406 0.578125)"/>
      <use xlink:href="#DejaVuSans-32" transform="translate(97.167969 -15.828125) scale(0.7)"/>
      <use xlink:href="#DejaVuSans-31" transform="translate(141.704102 -15.828125) scale(0.7)"/>
      <use xlink:href="#DejaVuSans-7c" transform="translate(188.974609 0.578125)"/>
      <use xlink:href="#DejaVuSans-20" transform="translate(222.666016 0.578125)"/>
      <use xlink:href="#DejaVuSans-5b" transform="translate(254.453125 0.578125)"/>
      <use xlink:href="#DejaVuSans-6d" transform="translate(293.466797 0.578125)"/>
      <use xlink:href="#DejaVuSans-56" transform="translate(390.878906 0.578125)"/>
      <use xlink:href="#DejaVuSans-5d" transform="translate(459.287109 0.578125)"/>
     </g>
    </g>
   </g>
   <g id="line2d_12">
    <path d="M 66.82804 48.999449 
L 68.45947 48.7188 
L 70.0909 49.824069 
L 71.722329 48.156785 
L 73.353759 49.459155 
L 74.985189 49.681576 
L 76.616619 47.967971 
L 78.248049 48.164641 
L 79.879479 48.846101 
L 81.510909 49.73534 
L 83.142339 49.683709 
L 84.773768 49.06285 
L 86.405198 48.732368 
L 88.036628 50.25845 
L 89.668058 48.981658 
L 91.299488 48.199812 
L 92.930918 48.611783 
L 94.562348 48.557743 
L 96.193778 48.797834 
L 97.825207 49.262276 
L 99.456637 47.258182 
L 101.088067 48.994695 
L 102.719497 48.942811 
L 104.350927 50.032245 
L 105.982357 49.57564 
L 107.613787 50.60819 
L 109.245217 48.241857 
L 110.876646 48.592877 
L 112.508076 49.6529 
L 114.139506 49.30964 
L 115.770936 49.377126 
L 117.402366 50.317588 
L 119.033796 49.467621 
L 120.665226 50.541577 
L 122.296656 50.99102 
L 123.928085 50.817542 
L 125.559515 51.098462 
L 127.190945 50.923406 
L 128.822375 50.425396 
L 130.453805 50.322745 
L 132.085235 51.745929 
L 133.716665 51.694238 
L 135.348095 50.644742 
L 136.979524 51.22824 
L 138.610954 52.760641 
L 140.242384 54.621892 
L 141.873814 53.895336 
L 143.505244 54.145446 
L 145.136674 52.76643 
L 148.399534 54.798351 
L 150.030963 55.059188 
L 151.662393 55.756138 
L 153.293823 55.244543 
L 154.925253 55.611266 
L 156.556683 57.107188 
L 158.188113 56.685441 
L 159.819543 58.610444 
L 161.450973 59.110189 
L 163.082402 59.960799 
L 164.713832 60.048526 
L 166.345262 62.106959 
L 167.976692 62.453305 
L 169.608122 64.609554 
L 171.239552 64.948312 
L 172.870982 64.96559 
L 174.502412 67.058887 
L 176.133842 69.774667 
L 177.765271 71.132119 
L 179.396701 71.693629 
L 181.028131 74.661317 
L 182.659561 75.594043 
L 184.290991 78.721663 
L 185.922421 80.617854 
L 187.553851 83.645772 
L 189.185281 87.313697 
L 190.81671 89.694948 
L 194.07957 97.221655 
L 195.711 100.231751 
L 197.34243 103.493923 
L 198.97386 108.835546 
L 200.60529 110.924146 
L 202.23672 117.76216 
L 203.868149 121.271765 
L 205.499579 126.043203 
L 208.762439 134.015625 
L 212.025299 145.234766 
L 213.656729 148.767283 
L 215.288159 153.005489 
L 216.919588 153.719189 
L 218.551018 156.573132 
L 220.182448 155.563284 
L 221.813878 154.322478 
L 223.445308 150.495896 
L 225.076738 147.145847 
L 226.708168 143.060185 
L 228.339598 139.804639 
L 229.971027 134.719686 
L 234.865317 123.438478 
L 236.496747 118.907979 
L 238.128177 116.350839 
L 239.759607 111.78561 
L 243.022466 106.372562 
L 244.653896 106.580757 
L 246.285326 101.08153 
L 247.916756 98.641428 
L 249.548186 96.602374 
L 251.179616 94.951513 
L 252.811046 93.106548 
L 254.442476 91.046086 
L 257.705335 87.391021 
L 259.336765 84.395894 
L 260.968195 84.879662 
L 262.599625 82.523374 
L 264.231055 81.330052 
L 265.862485 80.876749 
L 267.493915 78.406395 
L 269.125344 77.068583 
L 270.756774 76.371802 
L 272.388204 75.849861 
L 274.019634 75.880135 
L 275.651064 73.375363 
L 277.282494 72.202019 
L 280.545354 70.244757 
L 282.176783 70.732605 
L 283.808213 70.437937 
L 285.439643 69.580283 
L 287.071073 69.076621 
L 288.702503 67.815041 
L 290.333933 67.73299 
L 291.965363 66.374502 
L 293.596793 65.964397 
L 295.228223 67.061683 
L 296.859652 66.007965 
L 298.491082 64.532777 
L 300.122512 64.864609 
L 301.753942 64.733077 
L 303.385372 63.415387 
L 305.016802 63.832336 
L 306.648232 63.352831 
L 308.279662 63.223463 
L 309.911091 64.427393 
L 311.542521 62.008446 
L 314.805381 61.236139 
L 316.436811 61.41183 
L 318.068241 61.371948 
L 319.699671 59.267126 
L 321.331101 60.751691 
L 322.96253 59.883172 
L 324.59396 59.509616 
L 326.22539 58.939401 
L 327.85682 58.677491 
L 329.48825 59.59957 
L 331.11968 59.202683 
L 332.75111 58.08385 
L 334.38254 59.602651 
L 336.013969 58.167962 
L 337.645399 59.015875 
L 339.276829 58.047726 
L 340.908259 57.41556 
L 342.539689 57.536401 
L 344.171119 56.762064 
L 345.802549 57.995671 
L 347.433979 57.168979 
L 349.065408 57.12001 
L 350.696838 57.835985 
L 352.328268 57.026254 
L 353.959698 57.484029 
L 355.591128 57.128356 
L 357.222558 56.518409 
L 358.853988 57.563423 
L 360.485418 57.330843 
L 362.116847 55.735304 
L 363.748277 57.528162 
L 365.379707 56.168319 
L 367.011137 55.655964 
L 368.642567 56.162689 
L 370.273997 55.40998 
L 371.905427 54.847697 
L 373.536857 56.071014 
L 376.799716 54.66848 
L 380.062576 55.69697 
L 381.694006 55.142545 
L 383.325436 53.716986 
L 384.956866 55.205205 
L 386.588296 53.915013 
L 388.219725 54.857575 
L 389.851155 55.252548 
L 391.482585 55.472933 
L 391.482585 55.472933 
" clip-path="url(#pb6a410fe28)" style="fill: none; stroke: #1f77b4; stroke-width: 1.5; stroke-linecap: square"/>
    <defs>
     <path id="m7669537e40" d="M 0 1.5 
C 0.397805 1.5 0.77937 1.341951 1.06066 1.06066 
C 1.341951 0.77937 1.5 0.397805 1.5 0 
C 1.5 -0.397805 1.341951 -0.77937 1.06066 -1.06066 
C 0.77937 -1.341951 0.397805 -1.5 0 -1.5 
C -0.397805 -1.5 -0.77937 -1.341951 -1.06066 -1.06066 
C -1.341951 -0.77937 -1.5 -0.397805 -1.5 0 
C -1.5 0.397805 -1.341951 0.77937 -1.06066 1.06066 
C -0.77937 1.341951 -0.397805 1.5 0 1.5 
z
" style="stroke: #1f77b4"/>
    </defs>
    <g clip-path="url(#pb6a410fe28)">
     <use xlink:href="#m7669537e40" x="66.82804" y="48.999449" style="fill: #1f77b4; stroke: #1f77b4"/>
     <use xlink:href="#m7669537e40" x="68.45947" y="48.7188" style="fill: #1f77b4; stroke: #1f77b4"/>
     <use xlink:href="#m7669537e40" x="70.0909" y="49.824069" style="fill: #1f77b4; stroke: #1f77b4"/>
     <use xlink:href="#m7669537e40" x="71.722329" y="48.156785" style="fill: #1f77b4; stroke: #1f77b4"/>
     <use xlink:href="#m7669537e40" x="73.353759" y="49.459155" style="fill: #1f77b4; stroke: #1f77b4"/>
     <use xlink:href="#m7669537e40" x="74.985189" y="49.681576" style="fill: #1f77b4; stroke: #1f77b4"/>
     <use xlink:href="#m7669537e40" x="76.616619" y="47.967971" style="fill: #1f77b4; stroke: #1f77b4"/>
     <use xlink:href="#m7669537e40" x="78.248049" y="48.164641" style="fill: #1f77b4; stroke: #1f77b4"/>
     <use xlink:href="#m7669537e40" x="79.879479" y="48.846101" style="fill: #1f77b4; stroke: #1f77b4"/>
     <use xlink:href="#m7669537e40" x="81.510909" y="49.73534" style="fill: #1f77b4; stroke: #1f77b4"/>
     <use xlink:href="#m7669537e40" x="83.142339" y="49.683709" style="fill: #1f77b4; stroke: #1f77b4"/>
     <use xlink:href="#m7669537e40" x="84.773768" y="49.06285" style="fill: #1f77b4; stroke: #1f77b4"/>
     <use xlink:href="#m7669537e40" x="86.405198" y="48.732368" style="fill: #1f77b4; stroke: #1f77b4"/>
     <use xlink:href="#m7669537e40" x="88.036628" y="50.25845" style="fill: #1f77b4; stroke: #1f77b4"/>
     <use xlink:href="#m7669537e40" x="89.668058" y="48.981658" style="fill: #1f77b4; stroke: #1f77b4"/>
     <use xlink:href="#m7669537e40" x="91.299488" y="48.199812" style="fill: #1f77b4; stroke: #1f77b4"/>
     <use xlink:href="#m7669537e40" x="92.930918" y="48.611783" style="fill: #1f77b4; stroke: #1f77b4"/>
     <use xlink:href="#m7669537e40" x="94.562348" y="48.557743" style="fill: #1f77b4; stroke: #1f77b4"/>
     <use xlink:href="#m7669537e40" x="96.193778" y="48.797834" style="fill: #1f77b4; stroke: #1f77b4"/>
     <use xlink:href="#m7669537e40" x="97.825207" y="49.262276" style="fill: #1f77b4; stroke: #1f77b4"/>
     <use xlink:href="#m7669537e40" x="99.456637" y="47.258182" style="fill: #1f77b4; stroke: #1f77b4"/>
     <use xlink:href="#m7669537e40" x="101.088067" y="48.994695" style="fill: #1f77b4; stroke: #1f77b4"/>
     <use xlink:href="#m7669537e40" x="102.719497" y="48.942811" style="fill: #1f77b4; stroke: #1f77b4"/>
     <use xlink:href="#m7669537e40" x="104.350927" y="50.032245" style="fill: #1f77b4; stroke: #1f77b4"/>
     <use xlink:href="#m7669537e40" x="105.982357" y="49.57564" style="fill: #1f77b4; stroke: #1f77b4"/>
     <use xlink:href="#m7669537e40" x="107.613787" y="50.60819" style="fill: #1f77b4; stroke: #1f77b4"/>
     <use xlink:href="#m7669537e40" x="109.245217" y="48.241857" style="fill: #1f77b4; stroke: #1f77b4"/>
     <use xlink:href="#m7669537e40" x="110.876646" y="48.592877" style="fill: #1f77b4; stroke: #1f77b4"/>
     <use xlink:href="#m7669537e40" x="112.508076" y="49.6529" style="fill: #1f77b4; stroke: #1f77b4"/>
     <use xlink:href="#m7669537e40" x="114.139506" y="49.30964" style="fill: #1f77b4; stroke: #1f77b4"/>
     <use xlink:href="#m7669537e40" x="115.770936" y="49.377126" style="fill: #1f77b4; stroke: #1f77b4"/>
     <use xlink:href="#m7669537e40" x="117.402366" y="50.317588" style="fill: #1f77b4; stroke: #1f77b4"/>
     <use xlink:href="#m7669537e40" x="119.033796" y="49.467621" style="fill: #1f77b4; stroke: #1f77b4"/>
     <use xlink:href="#m7669537e40" x="120.665226" y="50.541577" style="fill: #1f77b4; stroke: #1f77b4"/>
     <use xlink:href="#m7669537e40" x="122.296656" y="50.99102" style="fill: #1f77b4; stroke: #1f77b4"/>
     <use xlink:href="#m7669537e40" x="123.928085" y="50.817542" style="fill: #1f77b4; stroke: #1f77b4"/>
     <use xlink:href="#m7669537e40" x="125.559515" y="51.098462" style="fill: #1f77b4; stroke: #1f77b4"/>
     <use xlink:href="#m7669537e40" x="127.190945" y="50.923406" style="fill: #1f77b4; stroke: #1f77b4"/>
     <use xlink:href="#m7669537e40" x="128.822375" y="50.425396" style="fill: #1f77b4; stroke: #1f77b4"/>
     <use xlink:href="#m7669537e40" x="130.453805" y="50.322745" style="fill: #1f77b4; stroke: #1f77b4"/>
     <use xlink:href="#m7669537e40" x="132.085235" y="51.745929" style="fill: #1f77b4; stroke: #1f77b4"/>
     <use xlink:href="#m7669537e40" x="133.716665" y="51.694238" style="fill: #1f77b4; stroke: #1f77b4"/>
     <use xlink:href="#m7669537e40" x="135.348095" y="50.644742" style="fill: #1f77b4; stroke: #1f77b4"/>
     <use xlink:href="#m7669537e40" x="136.979524" y="51.22824" style="fill: #1f77b4; stroke: #1f77b4"/>
     <use xlink:href="#m7669537e40" x="138.610954" y="52.760641" style="fill: #1f77b4; stroke: #1f77b4"/>
     <use xlink:href="#m7669537e40" x="140.242384" y="54.621892" style="fill: #1f77b4; stroke: #1f77b4"/>
     <use xlink:href="#m7669537e40" x="141.873814" y="53.895336" style="fill: #1f77b4; stroke: #1f77b4"/>
     <use xlink:href="#m7669537e40" x="143.505244" y="54.145446" style="fill: #1f77b4; stroke: #1f77b4"/>
     <use xlink:href="#m7669537e40" x="145.136674" y="52.76643" style="fill: #1f77b4; stroke: #1f77b4"/>
     <use xlink:href="#m7669537e40" x="146.768104" y="53.814033" style="fill: #1f77b4; stroke: #1f77b4"/>
     <use xlink:href="#m7669537e40" x="148.399534" y="54.798351" style="fill: #1f77b4; stroke: #1f77b4"/>
     <use xlink:href="#m7669537e40" x="150.030963" y="55.059188" style="fill: #1f77b4; stroke: #1f77b4"/>
     <use xlink:href="#m7669537e40" x="151.662393" y="55.756138" style="fill: #1f77b4; stroke: #1f77b4"/>
     <use xlink:href="#m7669537e40" x="153.293823" y="55.244543" style="fill: #1f77b4; stroke: #1f77b4"/>
     <use xlink:href="#m7669537e40" x="154.925253" y="55.611266" style="fill: #1f77b4; stroke: #1f77b4"/>
     <use xlink:href="#m7669537e40" x="156.556683" y="57.107188" style="fill: #1f77b4; stroke: #1f77b4"/>
     <use xlink:href="#m7669537e40" x="158.188113" y="56.685441" style="fill: #1f77b4; stroke: #1f77b4"/>
     <use xlink:href="#m7669537e40" x="159.819543" y="58.610444" style="fill: #1f77b4; stroke: #1f77b4"/>
     <use xlink:href="#m7669537e40" x="161.450973" y="59.110189" style="fill: #1f77b4; stroke: #1f77b4"/>
     <use xlink:href="#m7669537e40" x="163.082402" y="59.960799" style="fill: #1f77b4; stroke: #1f77b4"/>
     <use xlink:href="#m7669537e40" x="164.713832" y="60.048526" style="fill: #1f77b4; stroke: #1f77b4"/>
     <use xlink:href="#m7669537e40" x="166.345262" y="62.106959" style="fill: #1f77b4; stroke: #1f77b4"/>
     <use xlink:href="#m7669537e40" x="167.976692" y="62.453305" style="fill: #1f77b4; stroke: #1f77b4"/>
     <use xlink:href="#m7669537e40" x="169.608122" y="64.609554" style="fill: #1f77b4; stroke: #1f77b4"/>
     <use xlink:href="#m7669537e40" x="171.239552" y="64.948312" style="fill: #1f77b4; stroke: #1f77b4"/>
     <use xlink:href="#m7669537e40" x="172.870982" y="64.96559" style="fill: #1f77b4; stroke: #1f77b4"/>
     <use xlink:href="#m7669537e40" x="174.502412" y="67.058887" style="fill: #1f77b4; stroke: #1f77b4"/>
     <use xlink:href="#m7669537e40" x="176.133842" y="69.774667" style="fill: #1f77b4; stroke: #1f77b4"/>
     <use xlink:href="#m7669537e40" x="177.765271" y="71.132119" style="fill: #1f77b4; stroke: #1f77b4"/>
     <use xlink:href="#m7669537e40" x="179.396701" y="71.693629" style="fill: #1f77b4; stroke: #1f77b4"/>
     <use xlink:href="#m7669537e40" x="181.028131" y="74.661317" style="fill: #1f77b4; stroke: #1f77b4"/>
     <use xlink:href="#m7669537e40" x="182.659561" y="75.594043" style="fill: #1f77b4; stroke: #1f77b4"/>
     <use xlink:href="#m7669537e40" x="184.290991" y="78.721663" style="fill: #1f77b4; stroke: #1f77b4"/>
     <use xlink:href="#m7669537e40" x="185.922421" y="80.617854" style="fill: #1f77b4; stroke: #1f77b4"/>
     <use xlink:href="#m7669537e40" x="187.553851" y="83.645772" style="fill: #1f77b4; stroke: #1f77b4"/>
     <use xlink:href="#m7669537e40" x="189.185281" y="87.313697" style="fill: #1f77b4; stroke: #1f77b4"/>
     <use xlink:href="#m7669537e40" x="190.81671" y="89.694948" style="fill: #1f77b4; stroke: #1f77b4"/>
     <use xlink:href="#m7669537e40" x="192.44814" y="93.504846" style="fill: #1f77b4; stroke: #1f77b4"/>
     <use xlink:href="#m7669537e40" x="194.07957" y="97.221655" style="fill: #1f77b4; stroke: #1f77b4"/>
     <use xlink:href="#m7669537e40" x="195.711" y="100.231751" style="fill: #1f77b4; stroke: #1f77b4"/>
     <use xlink:href="#m7669537e40" x="197.34243" y="103.493923" style="fill: #1f77b4; stroke: #1f77b4"/>
     <use xlink:href="#m7669537e40" x="198.97386" y="108.835546" style="fill: #1f77b4; stroke: #1f77b4"/>
     <use xlink:href="#m7669537e40" x="200.60529" y="110.924146" style="fill: #1f77b4; stroke: #1f77b4"/>
     <use xlink:href="#m7669537e40" x="202.23672" y="117.76216" style="fill: #1f77b4; stroke: #1f77b4"/>
     <use xlink:href="#m7669537e40" x="203.868149" y="121.271765" style="fill: #1f77b4; stroke: #1f77b4"/>
     <use xlink:href="#m7669537e40" x="205.499579" y="126.043203" style="fill: #1f77b4; stroke: #1f77b4"/>
     <use xlink:href="#m7669537e40" x="207.131009" y="130.082462" style="fill: #1f77b4; stroke: #1f77b4"/>
     <use xlink:href="#m7669537e40" x="208.762439" y="134.015625" style="fill: #1f77b4; stroke: #1f77b4"/>
     <use xlink:href="#m7669537e40" x="210.393869" y="139.625342" style="fill: #1f77b4; stroke: #1f77b4"/>
     <use xlink:href="#m7669537e40" x="212.025299" y="145.234766" style="fill: #1f77b4; stroke: #1f77b4"/>
     <use xlink:href="#m7669537e40" x="213.656729" y="148.767283" style="fill: #1f77b4; stroke: #1f77b4"/>
     <use xlink:href="#m7669537e40" x="215.288159" y="153.005489" style="fill: #1f77b4; stroke: #1f77b4"/>
     <use xlink:href="#m7669537e40" x="216.919588" y="153.719189" style="fill: #1f77b4; stroke: #1f77b4"/>
     <use xlink:href="#m7669537e40" x="218.551018" y="156.573132" style="fill: #1f77b4; stroke: #1f77b4"/>
     <use xlink:href="#m7669537e40" x="220.182448" y="155.563284" style="fill: #1f77b4; stroke: #1f77b4"/>
     <use xlink:href="#m7669537e40" x="221.813878" y="154.322478" style="fill: #1f77b4; stroke: #1f77b4"/>
     <use xlink:href="#m7669537e40" x="223.445308" y="150.495896" style="fill: #1f77b4; stroke: #1f77b4"/>
     <use xlink:href="#m7669537e40" x="225.076738" y="147.145847" style="fill: #1f77b4; stroke: #1f77b4"/>
     <use xlink:href="#m7669537e40" x="226.708168" y="143.060185" style="fill: #1f77b4; stroke: #1f77b4"/>
     <use xlink:href="#m7669537e40" x="228.339598" y="139.804639" style="fill: #1f77b4; stroke: #1f77b4"/>
     <use xlink:href="#m7669537e40" x="229.971027" y="134.719686" style="fill: #1f77b4; stroke: #1f77b4"/>
     <use xlink:href="#m7669537e40" x="231.602457" y="130.883698" style="fill: #1f77b4; stroke: #1f77b4"/>
     <use xlink:href="#m7669537e40" x="233.233887" y="126.909794" style="fill: #1f77b4; stroke: #1f77b4"/>
     <use xlink:href="#m7669537e40" x="234.865317" y="123.438478" style="fill: #1f77b4; stroke: #1f77b4"/>
     <use xlink:href="#m7669537e40" x="236.496747" y="118.907979" style="fill: #1f77b4; stroke: #1f77b4"/>
     <use xlink:href="#m7669537e40" x="238.128177" y="116.350839" style="fill: #1f77b4; stroke: #1f77b4"/>
     <use xlink:href="#m7669537e40" x="239.759607" y="111.78561" style="fill: #1f77b4; stroke: #1f77b4"/>
     <use xlink:href="#m7669537e40" x="241.391037" y="109.155102" style="fill: #1f77b4; stroke: #1f77b4"/>
     <use xlink:href="#m7669537e40" x="243.022466" y="106.372562" style="fill: #1f77b4; stroke: #1f77b4"/>
     <use xlink:href="#m7669537e40" x="244.653896" y="106.580757" style="fill: #1f77b4; stroke: #1f77b4"/>
     <use xlink:href="#m7669537e40" x="246.285326" y="101.08153" style="fill: #1f77b4; stroke: #1f77b4"/>
     <use xlink:href="#m7669537e40" x="247.916756" y="98.641428" style="fill: #1f77b4; stroke: #1f77b4"/>
     <use xlink:href="#m7669537e40" x="249.548186" y="96.602374" style="fill: #1f77b4; stroke: #1f77b4"/>
     <use xlink:href="#m7669537e40" x="251.179616" y="94.951513" style="fill: #1f77b4; stroke: #1f77b4"/>
     <use xlink:href="#m7669537e40" x="252.811046" y="93.106548" style="fill: #1f77b4; stroke: #1f77b4"/>
     <use xlink:href="#m7669537e40" x="254.442476" y="91.046086" style="fill: #1f77b4; stroke: #1f77b4"/>
     <use xlink:href="#m7669537e40" x="256.073905" y="89.182443" style="fill: #1f77b4; stroke: #1f77b4"/>
     <use xlink:href="#m7669537e40" x="257.705335" y="87.391021" style="fill: #1f77b4; stroke: #1f77b4"/>
     <use xlink:href="#m7669537e40" x="259.336765" y="84.395894" style="fill: #1f77b4; stroke: #1f77b4"/>
     <use xlink:href="#m7669537e40" x="260.968195" y="84.879662" style="fill: #1f77b4; stroke: #1f77b4"/>
     <use xlink:href="#m7669537e40" x="262.599625" y="82.523374" style="fill: #1f77b4; stroke: #1f77b4"/>
     <use xlink:href="#m7669537e40" x="264.231055" y="81.330052" style="fill: #1f77b4; stroke: #1f77b4"/>
     <use xlink:href="#m7669537e40" x="265.862485" y="80.876749" style="fill: #1f77b4; stroke: #1f77b4"/>
     <use xlink:href="#m7669537e40" x="267.493915" y="78.406395" style="fill: #1f77b4; stroke: #1f77b4"/>
     <use xlink:href="#m7669537e40" x="269.125344" y="77.068583" style="fill: #1f77b4; stroke: #1f77b4"/>
     <use xlink:href="#m7669537e40" x="270.756774" y="76.371802" style="fill: #1f77b4; stroke: #1f77b4"/>
     <use xlink:href="#m7669537e40" x="272.388204" y="75.849861" style="fill: #1f77b4; stroke: #1f77b4"/>
     <use xlink:href="#m7669537e40" x="274.019634" y="75.880135" style="fill: #1f77b4; stroke: #1f77b4"/>
     <use xlink:href="#m7669537e40" x="275.651064" y="73.375363" style="fill: #1f77b4; stroke: #1f77b4"/>
     <use xlink:href="#m7669537e40" x="277.282494" y="72.202019" style="fill: #1f77b4; stroke: #1f77b4"/>
     <use xlink:href="#m7669537e40" x="278.913924" y="71.221702" style="fill: #1f77b4; stroke: #1f77b4"/>
     <use xlink:href="#m7669537e40" x="280.545354" y="70.244757" style="fill: #1f77b4; stroke: #1f77b4"/>
     <use xlink:href="#m7669537e40" x="282.176783" y="70.732605" style="fill: #1f77b4; stroke: #1f77b4"/>
     <use xlink:href="#m7669537e40" x="283.808213" y="70.437937" style="fill: #1f77b4; stroke: #1f77b4"/>
     <use xlink:href="#m7669537e40" x="285.439643" y="69.580283" style="fill: #1f77b4; stroke: #1f77b4"/>
     <use xlink:href="#m7669537e40" x="287.071073" y="69.076621" style="fill: #1f77b4; stroke: #1f77b4"/>
     <use xlink:href="#m7669537e40" x="288.702503" y="67.815041" style="fill: #1f77b4; stroke: #1f77b4"/>
     <use xlink:href="#m7669537e40" x="290.333933" y="67.73299" style="fill: #1f77b4; stroke: #1f77b4"/>
     <use xlink:href="#m7669537e40" x="291.965363" y="66.374502" style="fill: #1f77b4; stroke: #1f77b4"/>
     <use xlink:href="#m7669537e40" x="293.596793" y="65.964397" style="fill: #1f77b4; stroke: #1f77b4"/>
     <use xlink:href="#m7669537e40" x="295.228223" y="67.061683" style="fill: #1f77b4; stroke: #1f77b4"/>
     <use xlink:href="#m7669537e40" x="296.859652" y="66.007965" style="fill: #1f77b4; stroke: #1f77b4"/>
     <use xlink:href="#m7669537e40" x="298.491082" y="64.532777" style="fill: #1f77b4; stroke: #1f77b4"/>
     <use xlink:href="#m7669537e40" x="300.122512" y="64.864609" style="fill: #1f77b4; stroke: #1f77b4"/>
     <use xlink:href="#m7669537e40" x="301.753942" y="64.733077" style="fill: #1f77b4; stroke: #1f77b4"/>
     <use xlink:href="#m7669537e40" x="303.385372" y="63.415387" style="fill: #1f77b4; stroke: #1f77b4"/>
     <use xlink:href="#m7669537e40" x="305.016802" y="63.832336" style="fill: #1f77b4; stroke: #1f77b4"/>
     <use xlink:href="#m7669537e40" x="306.648232" y="63.352831" style="fill: #1f77b4; stroke: #1f77b4"/>
     <use xlink:href="#m7669537e40" x="308.279662" y="63.223463" style="fill: #1f77b4; stroke: #1f77b4"/>
     <use xlink:href="#m7669537e40" x="309.911091" y="64.427393" style="fill: #1f77b4; stroke: #1f77b4"/>
     <use xlink:href="#m7669537e40" x="311.542521" y="62.008446" style="fill: #1f77b4; stroke: #1f77b4"/>
     <use xlink:href="#m7669537e40" x="313.173951" y="61.636593" style="fill: #1f77b4; stroke: #1f77b4"/>
     <use xlink:href="#m7669537e40" x="314.805381" y="61.236139" style="fill: #1f77b4; stroke: #1f77b4"/>
     <use xlink:href="#m7669537e40" x="316.436811" y="61.41183" style="fill: #1f77b4; stroke: #1f77b4"/>
     <use xlink:href="#m7669537e40" x="318.068241" y="61.371948" style="fill: #1f77b4; stroke: #1f77b4"/>
     <use xlink:href="#m7669537e40" x="319.699671" y="59.267126" style="fill: #1f77b4; stroke: #1f77b4"/>
     <use xlink:href="#m7669537e40" x="321.331101" y="60.751691" style="fill: #1f77b4; stroke: #1f77b4"/>
     <use xlink:href="#m7669537e40" x="322.96253" y="59.883172" style="fill: #1f77b4; stroke: #1f77b4"/>
     <use xlink:href="#m7669537e40" x="324.59396" y="59.509616" style="fill: #1f77b4; stroke: #1f77b4"/>
     <use xlink:href="#m7669537e40" x="326.22539" y="58.939401" style="fill: #1f77b4; stroke: #1f77b4"/>
     <use xlink:href="#m7669537e40" x="327.85682" y="58.677491" style="fill: #1f77b4; stroke: #1f77b4"/>
     <use xlink:href="#m7669537e40" x="329.48825" y="59.59957" style="fill: #1f77b4; stroke: #1f77b4"/>
     <use xlink:href="#m7669537e40" x="331.11968" y="59.202683" style="fill: #1f77b4; stroke: #1f77b4"/>
     <use xlink:href="#m7669537e40" x="332.75111" y="58.08385" style="fill: #1f77b4; stroke: #1f77b4"/>
     <use xlink:href="#m7669537e40" x="334.38254" y="59.602651" style="fill: #1f77b4; stroke: #1f77b4"/>
     <use xlink:href="#m7669537e40" x="336.013969" y="58.167962" style="fill: #1f77b4; stroke: #1f77b4"/>
     <use xlink:href="#m7669537e40" x="337.645399" y="59.015875" style="fill: #1f77b4; stroke: #1f77b4"/>
     <use xlink:href="#m7669537e40" x="339.276829" y="58.047726" style="fill: #1f77b4; stroke: #1f77b4"/>
     <use xlink:href="#m7669537e40" x="340.908259" y="57.41556" style="fill: #1f77b4; stroke: #1f77b4"/>
     <use xlink:href="#m7669537e40" x="342.539689" y="57.536401" style="fill: #1f77b4; stroke: #1f77b4"/>
     <use xlink:href="#m7669537e40" x="344.171119" y="56.762064" style="fill: #1f77b4; stroke: #1f77b4"/>
     <use xlink:href="#m7669537e40" x="345.802549" y="57.995671" style="fill: #1f77b4; stroke: #1f77b4"/>
     <use xlink:href="#m7669537e40" x="347.433979" y="57.168979" style="fill: #1f77b4; stroke: #1f77b4"/>
     <use xlink:href="#m7669537e40" x="349.065408" y="57.12001" style="fill: #1f77b4; stroke: #1f77b4"/>
     <use xlink:href="#m7669537e40" x="350.696838" y="57.835985" style="fill: #1f77b4; stroke: #1f77b4"/>
     <use xlink:href="#m7669537e40" x="352.328268" y="57.026254" style="fill: #1f77b4; stroke: #1f77b4"/>
     <use xlink:href="#m7669537e40" x="353.959698" y="57.484029" style="fill: #1f77b4; stroke: #1f77b4"/>
     <use xlink:href="#m7669537e40" x="355.591128" y="57.128356" style="fill: #1f77b4; stroke: #1f77b4"/>
     <use xlink:href="#m7669537e40" x="357.222558" y="56.518409" style="fill: #1f77b4; stroke: #1f77b4"/>
     <use xlink:href="#m7669537e40" x="358.853988" y="57.563423" style="fill: #1f77b4; stroke: #1f77b4"/>
     <use xlink:href="#m7669537e40" x="360.485418" y="57.330843" style="fill: #1f77b4; stroke: #1f77b4"/>
     <use xlink:href="#m7669537e40" x="362.116847" y="55.735304" style="fill: #1f77b4; stroke: #1f77b4"/>
     <use xlink:href="#m7669537e40" x="363.748277" y="57.528162" style="fill: #1f77b4; stroke: #1f77b4"/>
     <use xlink:href="#m7669537e40" x="365.379707" y="56.168319" style="fill: #1f77b4; stroke: #1f77b4"/>
     <use xlink:href="#m7669537e40" x="367.011137" y="55.655964" style="fill: #1f77b4; stroke: #1f77b4"/>
     <use xlink:href="#m7669537e40" x="368.642567" y="56.162689" style="fill: #1f77b4; stroke: #1f77b4"/>
     <use xlink:href="#m7669537e40" x="370.273997" y="55.40998" style="fill: #1f77b4; stroke: #1f77b4"/>
     <use xlink:href="#m7669537e40" x="371.905427" y="54.847697" style="fill: #1f77b4; stroke: #1f77b4"/>
     <use xlink:href="#m7669537e40" x="373.536857" y="56.071014" style="fill: #1f77b4; stroke: #1f77b4"/>
     <use xlink:href="#m7669537e40" x="375.168286" y="55.327383" style="fill: #1f77b4; stroke: #1f77b4"/>
     <use xlink:href="#m7669537e40" x="376.799716" y="54.66848" style="fill: #1f77b4; stroke: #1f77b4"/>
     <use xlink:href="#m7669537e40" x="378.431146" y="55.133947" style="fill: #1f77b4; stroke: #1f77b4"/>
     <use xlink:href="#m7669537e40" x="380.062576" y="55.69697" style="fill: #1f77b4; stroke: #1f77b4"/>
     <use xlink:href="#m7669537e40" x="381.694006" y="55.142545" style="fill: #1f77b4; stroke: #1f77b4"/>
     <use xlink:href="#m7669537e40" x="383.325436" y="53.716986" style="fill: #1f77b4; stroke: #1f77b4"/>
     <use xlink:href="#m7669537e40" x="384.956866" y="55.205205" style="fill: #1f77b4; stroke: #1f77b4"/>
     <use xlink:href="#m7669537e40" x="386.588296" y="53.915013" style="fill: #1f77b4; stroke: #1f77b4"/>
     <use xlink:href="#m7669537e40" x="388.219725" y="54.857575" style="fill: #1f77b4; stroke: #1f77b4"/>
     <use xlink:href="#m7669537e40" x="389.851155" y="55.252548" style="fill: #1f77b4; stroke: #1f77b4"/>
     <use xlink:href="#m7669537e40" x="391.482585" y="55.472933" style="fill: #1f77b4; stroke: #1f77b4"/>
    </g>
   </g>
   <g id="line2d_13">
    <path d="M 66.82804 47.818224 
L 85.351873 48.234185 
L 99.650972 48.771011 
L 111.025255 49.417596 
L 120.124682 50.147482 
L 127.92419 50.989196 
L 134.74876 51.951446 
L 140.598392 53.000571 
L 145.798064 54.159625 
L 150.347778 55.395875 
L 154.572512 56.775167 
L 158.472266 58.29099 
L 162.047041 59.928445 
L 165.296836 61.662969 
L 168.221652 63.459698 
L 171.146467 65.516343 
L 173.746303 67.595502 
L 176.34614 69.944479 
L 178.945976 72.599081 
L 181.545812 75.598349 
L 184.145648 78.983908 
L 186.420505 82.296956 
L 188.695362 85.96722 
L 190.970218 90.021404 
L 193.245075 94.482351 
L 195.844911 100.099152 
L 198.444747 106.276268 
L 201.369563 113.872654 
L 204.619358 123.01863 
L 209.494051 137.563257 
L 212.743846 146.971359 
L 214.368744 151.135133 
L 215.668662 153.934065 
L 216.643601 155.571731 
L 217.29356 156.381931 
L 217.943519 156.931288 
L 218.593478 157.197943 
L 219.243437 157.172759 
L 219.893396 156.861652 
L 220.543355 156.284534 
L 221.518294 154.987067 
L 222.493232 153.276682 
L 223.79315 150.545308 
L 225.743027 145.88716 
L 234.842454 123.371468 
L 237.76727 116.989363 
L 240.692086 111.173524 
L 243.291922 106.473515 
L 245.891758 102.194384 
L 248.491594 98.308171 
L 251.09143 94.783623 
L 254.016246 91.210952 
L 256.941062 88.011167 
L 259.865878 85.142738 
L 262.790693 82.56771 
L 266.040489 80.009302 
L 269.290284 77.729726 
L 272.865059 75.501453 
L 276.439833 73.526001 
L 280.339588 71.618388 
L 284.564322 69.80037 
L 289.114035 68.086861 
L 293.988728 66.486764 
L 299.51338 64.918043 
L 305.363011 63.490157 
L 311.862602 62.132424 
L 319.012151 60.86334 
L 327.136639 59.648428 
L 336.236066 58.513198 
L 346.635411 57.441348 
L 358.659653 56.429995 
L 372.633773 55.483544 
L 389.207729 54.593342 
L 391.482585 54.486712 
L 391.482585 54.486712 
" clip-path="url(#pb6a410fe28)" style="fill: none; stroke: #d62728; stroke-width: 1.5; stroke-linecap: square"/>
   </g>
   <g id="patch_3">
    <path d="M 50.595313 162.72 
L 50.595313 41.76 
" style="fill: none; stroke: #000000; stroke-width: 0.8; stroke-linejoin: miter; stroke-linecap: square"/>
   </g>
   <g id="patch_4">
    <path d="M 407.715312 162.72 
L 407.715312 41.76 
" style="fill: none; stroke: #000000; stroke-width: 0.8; stroke-linejoin: miter; stroke-linecap: square"/>
   </g>
   <g id="patch_5">
    <path d="M 50.595312 162.72 
L 407.715312 162.72 
" style="fill: none; stroke: #000000; stroke-width: 0.8; stroke-linejoin: miter; stroke-linecap: square"/>
   </g>
   <g id="patch_6">
    <path d="M 50.595312 41.76 
L 407.715312 41.76 
" style="fill: none; stroke: #000000; stroke-width: 0.8; stroke-linejoin: miter; stroke-linecap: square"/>
   </g>
   <g id="text_7">
    <g id="patch_7">
     <path d="M 425.571312 95.079562 
L 571.071312 95.079562 
Q 575.071312 95.079562 575.071312 91.079562 
L 575.071312 47.808 
Q 575.071312 43.808 571.071312 43.808 
L 425.571312 43.808 
Q 421.571312 43.808 421.571312 47.808 
L 421.571312 91.079562 
Q 421.571312 95.079562 425.571312 95.079562 
z
" style="fill: #ffffff; opacity: 0.5; stroke: #000000; stroke-linejoin: miter"/>
    </g>
    <!-- Summary -->
    <g transform="translate(425.571312 55.406437) scale(0.1 -0.1)">
     <defs>
      <path id="DejaVuSans-53" d="M 3425 4513 
L 3425 3897 
Q 3066 4069 2747 4153 
Q 2428 4238 2131 4238 
Q 1616 4238 1336 4038 
Q 1056 3838 1056 3469 
Q 1056 3159 1242 3001 
Q 1428 2844 1947 2747 
L 2328 2669 
Q 3034 2534 3370 2195 
Q 3706 1856 3706 1288 
Q 3706 609 3251 259 
Q 2797 -91 1919 -91 
Q 1588 -91 1214 -16 
Q 841 59 441 206 
L 441 856 
Q 825 641 1194 531 
Q 1563 422 1919 422 
Q 2459 422 2753 634 
Q 3047 847 3047 1241 
Q 3047 1584 2836 1778 
Q 2625 1972 2144 2069 
L 1759 2144 
Q 1053 2284 737 2584 
Q 422 2884 422 3419 
Q 422 4038 858 4394 
Q 1294 4750 2059 4750 
Q 2388 4750 2728 4690 
Q 3069 4631 3425 4513 
z
" transform="scale(0.015625)"/>
      <path id="DejaVuSans-75" d="M 544 1381 
L 544 3500 
L 1119 3500 
L 1119 1403 
Q 1119 906 1312 657 
Q 1506 409 1894 409 
Q 2359 409 2629 706 
Q 2900 1003 2900 1516 
L 2900 3500 
L 3475 3500 
L 3475 0 
L 2900 0 
L 2900 538 
Q 2691 219 2414 64 
Q 2138 -91 1772 -91 
Q 1169 -91 856 284 
Q 544 659 544 1381 
z
M 1991 3584 
L 1991 3584 
z
" transform="scale(0.015625)"/>
      <path id="DejaVuSans-61" d="M 2194 1759 
Q 1497 1759 1228 1600 
Q 959 1441 959 1056 
Q 959 750 1161 570 
Q 1363 391 1709 391 
Q 2188 391 2477 730 
Q 2766 1069 2766 1631 
L 2766 1759 
L 2194 1759 
z
M 3341 1997 
L 3341 0 
L 2766 0 
L 2766 531 
Q 2569 213 2275 61 
Q 1981 -91 1556 -91 
Q 1019 -91 701 211 
Q 384 513 384 1019 
Q 384 1609 779 1909 
Q 1175 2209 1959 2209 
L 2766 2209 
L 2766 2266 
Q 2766 2663 2505 2880 
Q 2244 3097 1772 3097 
Q 1472 3097 1187 3025 
Q 903 2953 641 2809 
L 641 3341 
Q 956 3463 1253 3523 
Q 1550 3584 1831 3584 
Q 2591 3584 2966 3190 
Q 3341 2797 3341 1997 
z
" transform="scale(0.015625)"/>
      <path id="DejaVuSans-72" d="M 2631 2963 
Q 2534 3019 2420 3045 
Q 2306 3072 2169 3072 
Q 1681 3072 1420 2755 
Q 1159 2438 1159 1844 
L 1159 0 
L 581 0 
L 581 3500 
L 1159 3500 
L 1159 2956 
Q 1341 3275 1631 3429 
Q 1922 3584 2338 3584 
Q 2397 3584 2469 3576 
Q 2541 3569 2628 3553 
L 2631 2963 
z
" transform="scale(0.015625)"/>
      <path id="DejaVuSans-79" d="M 2059 -325 
Q 1816 -950 1584 -1140 
Q 1353 -1331 966 -1331 
L 506 -1331 
L 506 -850 
L 844 -850 
Q 1081 -850 1212 -737 
Q 1344 -625 1503 -206 
L 1606 56 
L 191 3500 
L 800 3500 
L 1894 763 
L 2988 3500 
L 3597 3500 
L 2059 -325 
z
" transform="scale(0.015625)"/>
     </defs>
     <use xlink:href="#DejaVuSans-53"/>
     <use xlink:href="#DejaVuSans-75" x="63.476562"/>
     <use xlink:href="#DejaVuSans-6d" x="126.855469"/>
     <use xlink:href="#DejaVuSans-6d" x="224.267578"/>
     <use xlink:href="#DejaVuSans-61" x="321.679688"/>
     <use xlink:href="#DejaVuSans-72" x="382.958984"/>
     <use xlink:href="#DejaVuSans-79" x="424.072266"/>
    </g>
    <!-- $Q_I$: 19.55$\pm$0.18 k -->
    <g transform="translate(425.571312 66.60425) scale(0.1 -0.1)">
     <defs>
      <path id="DejaVuSans-Oblique-51" d="M 2309 -84 
Q 2275 -88 2237 -89 
Q 2200 -91 2125 -91 
Q 1250 -91 756 411 
Q 263 913 263 1797 
Q 263 2319 452 2844 
Q 641 3369 978 3788 
Q 1369 4269 1858 4509 
Q 2347 4750 2938 4750 
Q 3794 4750 4287 4245 
Q 4781 3741 4781 2869 
Q 4781 1928 4265 1147 
Q 3750 366 2919 44 
L 3553 -825 
L 2847 -825 
L 2309 -84 
z
M 2919 4238 
Q 2400 4238 2003 3986 
Q 1606 3734 1313 3219 
Q 1125 2891 1026 2522 
Q 928 2153 928 1778 
Q 928 1128 1239 775 
Q 1550 422 2119 422 
Q 2631 422 3032 676 
Q 3434 931 3719 1434 
Q 3909 1772 4009 2142 
Q 4109 2513 4109 2881 
Q 4109 3528 3796 3883 
Q 3484 4238 2919 4238 
z
" transform="scale(0.015625)"/>
      <path id="DejaVuSans-Oblique-49" d="M 1081 4666 
L 1716 4666 
L 806 0 
L 172 0 
L 1081 4666 
z
" transform="scale(0.015625)"/>
      <path id="DejaVuSans-3a" d="M 750 794 
L 1409 794 
L 1409 0 
L 750 0 
L 750 794 
z
M 750 3309 
L 1409 3309 
L 1409 2516 
L 750 2516 
L 750 3309 
z
" transform="scale(0.015625)"/>
      <path id="DejaVuSans-39" d="M 703 97 
L 703 672 
Q 941 559 1184 500 
Q 1428 441 1663 441 
Q 2288 441 2617 861 
Q 2947 1281 2994 2138 
Q 2813 1869 2534 1725 
Q 2256 1581 1919 1581 
Q 1219 1581 811 2004 
Q 403 2428 403 3163 
Q 403 3881 828 4315 
Q 1253 4750 1959 4750 
Q 2769 4750 3195 4129 
Q 3622 3509 3622 2328 
Q 3622 1225 3098 567 
Q 2575 -91 1691 -91 
Q 1453 -91 1209 -44 
Q 966 3 703 97 
z
M 1959 2075 
Q 2384 2075 2632 2365 
Q 2881 2656 2881 3163 
Q 2881 3666 2632 3958 
Q 2384 4250 1959 4250 
Q 1534 4250 1286 3958 
Q 1038 3666 1038 3163 
Q 1038 2656 1286 2365 
Q 1534 2075 1959 2075 
z
" transform="scale(0.015625)"/>
      <path id="DejaVuSans-2e" d="M 684 794 
L 1344 794 
L 1344 0 
L 684 0 
L 684 794 
z
" transform="scale(0.015625)"/>
      <path id="DejaVuSans-35" d="M 691 4666 
L 3169 4666 
L 3169 4134 
L 1269 4134 
L 1269 2991 
Q 1406 3038 1543 3061 
Q 1681 3084 1819 3084 
Q 2600 3084 3056 2656 
Q 3513 2228 3513 1497 
Q 3513 744 3044 326 
Q 2575 -91 1722 -91 
Q 1428 -91 1123 -41 
Q 819 9 494 109 
L 494 744 
Q 775 591 1075 516 
Q 1375 441 1709 441 
Q 2250 441 2565 725 
Q 2881 1009 2881 1497 
Q 2881 1984 2565 2268 
Q 2250 2553 1709 2553 
Q 1456 2553 1204 2497 
Q 953 2441 691 2322 
L 691 4666 
z
" transform="scale(0.015625)"/>
      <path id="DejaVuSans-b1" d="M 2944 4013 
L 2944 2803 
L 4684 2803 
L 4684 2272 
L 2944 2272 
L 2944 1063 
L 2419 1063 
L 2419 2272 
L 678 2272 
L 678 2803 
L 2419 2803 
L 2419 4013 
L 2944 4013 
z
M 678 531 
L 4684 531 
L 4684 0 
L 678 0 
L 678 531 
z
" transform="scale(0.015625)"/>
      <path id="DejaVuSans-6b" d="M 581 4863 
L 1159 4863 
L 1159 1991 
L 2875 3500 
L 3609 3500 
L 1753 1863 
L 3688 0 
L 2938 0 
L 1159 1709 
L 1159 0 
L 581 0 
L 581 4863 
z
" transform="scale(0.015625)"/>
     </defs>
     <use xlink:href="#DejaVuSans-Oblique-51" transform="translate(0 0.015625)"/>
     <use xlink:href="#DejaVuSans-Oblique-49" transform="translate(78.710938 -16.390625) scale(0.7)"/>
     <use xlink:href="#DejaVuSans-3a" transform="translate(102.089844 0.015625)"/>
     <use xlink:href="#DejaVuSans-20" transform="translate(135.78125 0.015625)"/>
     <use xlink:href="#DejaVuSans-31" transform="translate(167.568359 0.015625)"/>
     <use xlink:href="#DejaVuSans-39" transform="translate(231.191406 0.015625)"/>
     <use xlink:href="#DejaVuSans-2e" transform="translate(294.814453 0.015625)"/>
     <use xlink:href="#DejaVuSans-35" transform="translate(326.601562 0.015625)"/>
     <use xlink:href="#DejaVuSans-35" transform="translate(390.224609 0.015625)"/>
     <use xlink:href="#DejaVuSans-b1" transform="translate(453.847656 0.015625)"/>
     <use xlink:href="#DejaVuSans-30" transform="translate(537.636719 0.015625)"/>
     <use xlink:href="#DejaVuSans-2e" transform="translate(601.259766 0.015625)"/>
     <use xlink:href="#DejaVuSans-31" transform="translate(633.046875 0.015625)"/>
     <use xlink:href="#DejaVuSans-38" transform="translate(696.669922 0.015625)"/>
     <use xlink:href="#DejaVuSans-20" transform="translate(760.292969 0.015625)"/>
     <use xlink:href="#DejaVuSans-6b" transform="translate(792.080078 0.015625)"/>
    </g>
    <!-- $Q_C$: 3.2040$\pm$0.0070 k -->
    <g transform="translate(425.571312 77.802062) scale(0.1 -0.1)">
     <defs>
      <path id="DejaVuSans-Oblique-43" d="M 4447 4306 
L 4319 3641 
Q 4019 3944 3683 4091 
Q 3347 4238 2956 4238 
Q 2422 4238 2017 3981 
Q 1613 3725 1319 3200 
Q 1131 2863 1032 2486 
Q 934 2109 934 1728 
Q 934 1091 1264 756 
Q 1594 422 2222 422 
Q 2656 422 3056 561 
Q 3456 700 3834 978 
L 3688 231 
Q 3316 72 2936 -9 
Q 2556 -91 2175 -91 
Q 1278 -91 773 396 
Q 269 884 269 1753 
Q 269 2309 461 2846 
Q 653 3384 1013 3828 
Q 1394 4300 1883 4525 
Q 2372 4750 3022 4750 
Q 3422 4750 3780 4639 
Q 4138 4528 4447 4306 
z
" transform="scale(0.015625)"/>
      <path id="DejaVuSans-33" d="M 2597 2516 
Q 3050 2419 3304 2112 
Q 3559 1806 3559 1356 
Q 3559 666 3084 287 
Q 2609 -91 1734 -91 
Q 1441 -91 1130 -33 
Q 819 25 488 141 
L 488 750 
Q 750 597 1062 519 
Q 1375 441 1716 441 
Q 2309 441 2620 675 
Q 2931 909 2931 1356 
Q 2931 1769 2642 2001 
Q 2353 2234 1838 2234 
L 1294 2234 
L 1294 2753 
L 1863 2753 
Q 2328 2753 2575 2939 
Q 2822 3125 2822 3475 
Q 2822 3834 2567 4026 
Q 2313 4219 1838 4219 
Q 1578 4219 1281 4162 
Q 984 4106 628 3988 
L 628 4550 
Q 988 4650 1302 4700 
Q 1616 4750 1894 4750 
Q 2613 4750 3031 4423 
Q 3450 4097 3450 3541 
Q 3450 3153 3228 2886 
Q 3006 2619 2597 2516 
z
" transform="scale(0.015625)"/>
      <path id="DejaVuSans-37" d="M 525 4666 
L 3525 4666 
L 3525 4397 
L 1831 0 
L 1172 0 
L 2766 4134 
L 525 4134 
L 525 4666 
z
" transform="scale(0.015625)"/>
     </defs>
     <use xlink:href="#DejaVuSans-Oblique-51" transform="translate(0 0.015625)"/>
     <use xlink:href="#DejaVuSans-Oblique-43" transform="translate(78.710938 -16.390625) scale(0.7)"/>
     <use xlink:href="#DejaVuSans-3a" transform="translate(130.322266 0.015625)"/>
     <use xlink:href="#DejaVuSans-20" transform="translate(164.013672 0.015625)"/>
     <use xlink:href="#DejaVuSans-33" transform="translate(195.800781 0.015625)"/>
     <use xlink:href="#DejaVuSans-2e" transform="translate(259.423828 0.015625)"/>
     <use xlink:href="#DejaVuSans-32" transform="translate(285.710938 0.015625)"/>
     <use xlink:href="#DejaVuSans-30" transform="translate(349.333984 0.015625)"/>
     <use xlink:href="#DejaVuSans-34" transform="translate(412.957031 0.015625)"/>
     <use xlink:href="#DejaVuSans-30" transform="translate(476.580078 0.015625)"/>
     <use xlink:href="#DejaVuSans-b1" transform="translate(540.203125 0.015625)"/>
     <use xlink:href="#DejaVuSans-30" transform="translate(623.992188 0.015625)"/>
     <use xlink:href="#DejaVuSans-2e" transform="translate(687.615234 0.015625)"/>
     <use xlink:href="#DejaVuSans-30" transform="translate(719.402344 0.015625)"/>
     <use xlink:href="#DejaVuSans-30" transform="translate(783.025391 0.015625)"/>
     <use xlink:href="#DejaVuSans-37" transform="translate(846.648438 0.015625)"/>
     <use xlink:href="#DejaVuSans-30" transform="translate(910.271484 0.015625)"/>
     <use xlink:href="#DejaVuSans-20" transform="translate(973.894531 0.015625)"/>
     <use xlink:href="#DejaVuSans-6b" transform="translate(1005.681641 0.015625)"/>
    </g>
    <!-- $f_{res}$: 6.0080199$\pm$2.8e-06 GHz -->
    <g transform="translate(425.571312 88.999875) scale(0.1 -0.1)">
     <defs>
      <path id="DejaVuSans-Oblique-66" d="M 3059 4863 
L 2969 4384 
L 2419 4384 
Q 2106 4384 1964 4261 
Q 1822 4138 1753 3809 
L 1691 3500 
L 2638 3500 
L 2553 3053 
L 1606 3053 
L 1013 0 
L 434 0 
L 1031 3053 
L 481 3053 
L 563 3500 
L 1113 3500 
L 1159 3744 
Q 1278 4363 1576 4613 
Q 1875 4863 2516 4863 
L 3059 4863 
z
" transform="scale(0.015625)"/>
      <path id="DejaVuSans-Oblique-72" d="M 2853 2969 
Q 2766 3016 2653 3041 
Q 2541 3066 2413 3066 
Q 1953 3066 1609 2717 
Q 1266 2369 1153 1784 
L 800 0 
L 225 0 
L 909 3500 
L 1484 3500 
L 1375 2956 
Q 1603 3259 1920 3421 
Q 2238 3584 2597 3584 
Q 2691 3584 2781 3573 
Q 2872 3563 2963 3538 
L 2853 2969 
z
" transform="scale(0.015625)"/>
      <path id="DejaVuSans-Oblique-65" d="M 3078 2063 
Q 3088 2113 3092 2166 
Q 3097 2219 3097 2272 
Q 3097 2653 2873 2875 
Q 2650 3097 2266 3097 
Q 1838 3097 1509 2826 
Q 1181 2556 1013 2059 
L 3078 2063 
z
M 3578 1613 
L 903 1613 
Q 884 1494 878 1425 
Q 872 1356 872 1306 
Q 872 872 1139 634 
Q 1406 397 1894 397 
Q 2269 397 2603 481 
Q 2938 566 3225 728 
L 3116 159 
Q 2806 34 2476 -28 
Q 2147 -91 1806 -91 
Q 1078 -91 686 257 
Q 294 606 294 1247 
Q 294 1794 489 2264 
Q 684 2734 1063 3103 
Q 1306 3334 1642 3459 
Q 1978 3584 2356 3584 
Q 2950 3584 3301 3228 
Q 3653 2872 3653 2272 
Q 3653 2128 3634 1964 
Q 3616 1800 3578 1613 
z
" transform="scale(0.015625)"/>
      <path id="DejaVuSans-Oblique-73" d="M 3200 3397 
L 3091 2853 
Q 2863 2978 2609 3040 
Q 2356 3103 2088 3103 
Q 1634 3103 1373 2948 
Q 1113 2794 1113 2528 
Q 1113 2219 1719 2053 
Q 1766 2041 1788 2034 
L 1972 1978 
Q 2547 1819 2739 1644 
Q 2931 1469 2931 1166 
Q 2931 609 2489 259 
Q 2047 -91 1331 -91 
Q 1053 -91 747 -37 
Q 441 16 72 128 
L 184 722 
Q 500 559 806 475 
Q 1113 391 1394 391 
Q 1816 391 2080 572 
Q 2344 753 2344 1031 
Q 2344 1331 1650 1516 
L 1591 1531 
L 1394 1581 
Q 956 1697 753 1886 
Q 550 2075 550 2369 
Q 550 2928 970 3256 
Q 1391 3584 2113 3584 
Q 2397 3584 2667 3537 
Q 2938 3491 3200 3397 
z
" transform="scale(0.015625)"/>
      <path id="DejaVuSans-65" d="M 3597 1894 
L 3597 1613 
L 953 1613 
Q 991 1019 1311 708 
Q 1631 397 2203 397 
Q 2534 397 2845 478 
Q 3156 559 3463 722 
L 3463 178 
Q 3153 47 2828 -22 
Q 2503 -91 2169 -91 
Q 1331 -91 842 396 
Q 353 884 353 1716 
Q 353 2575 817 3079 
Q 1281 3584 2069 3584 
Q 2775 3584 3186 3129 
Q 3597 2675 3597 1894 
z
M 3022 2063 
Q 3016 2534 2758 2815 
Q 2500 3097 2075 3097 
Q 1594 3097 1305 2825 
Q 1016 2553 972 2059 
L 3022 2063 
z
" transform="scale(0.015625)"/>
      <path id="DejaVuSans-2d" d="M 313 2009 
L 1997 2009 
L 1997 1497 
L 313 1497 
L 313 2009 
z
" transform="scale(0.015625)"/>
      <path id="DejaVuSans-47" d="M 3809 666 
L 3809 1919 
L 2778 1919 
L 2778 2438 
L 4434 2438 
L 4434 434 
Q 4069 175 3628 42 
Q 3188 -91 2688 -91 
Q 1594 -91 976 548 
Q 359 1188 359 2328 
Q 359 3472 976 4111 
Q 1594 4750 2688 4750 
Q 3144 4750 3555 4637 
Q 3966 4525 4313 4306 
L 4313 3634 
Q 3963 3931 3569 4081 
Q 3175 4231 2741 4231 
Q 1884 4231 1454 3753 
Q 1025 3275 1025 2328 
Q 1025 1384 1454 906 
Q 1884 428 2741 428 
Q 3075 428 3337 486 
Q 3600 544 3809 666 
z
" transform="scale(0.015625)"/>
      <path id="DejaVuSans-48" d="M 628 4666 
L 1259 4666 
L 1259 2753 
L 3553 2753 
L 3553 4666 
L 4184 4666 
L 4184 0 
L 3553 0 
L 3553 2222 
L 1259 2222 
L 1259 0 
L 628 0 
L 628 4666 
z
" transform="scale(0.015625)"/>
      <path id="DejaVuSans-7a" d="M 353 3500 
L 3084 3500 
L 3084 2975 
L 922 459 
L 3084 459 
L 3084 0 
L 275 0 
L 275 525 
L 2438 3041 
L 353 3041 
L 353 3500 
z
" transform="scale(0.015625)"/>
     </defs>
     <use xlink:href="#DejaVuSans-Oblique-66" transform="translate(0 0.015625)"/>
     <use xlink:href="#DejaVuSans-Oblique-72" transform="translate(35.205078 -16.390625) scale(0.7)"/>
     <use xlink:href="#DejaVuSans-Oblique-65" transform="translate(63.984375 -16.390625) scale(0.7)"/>
     <use xlink:href="#DejaVuSans-Oblique-73" transform="translate(107.050781 -16.390625) scale(0.7)"/>
     <use xlink:href="#DejaVuSans-3a" transform="translate(146.254883 0.015625)"/>
     <use xlink:href="#DejaVuSans-20" transform="translate(179.946289 0.015625)"/>
     <use xlink:href="#DejaVuSans-36" transform="translate(211.733398 0.015625)"/>
     <use xlink:href="#DejaVuSans-2e" transform="translate(275.356445 0.015625)"/>
     <use xlink:href="#DejaVuSans-30" transform="translate(307.143555 0.015625)"/>
     <use xlink:href="#DejaVuSans-30" transform="translate(370.766602 0.015625)"/>
     <use xlink:href="#DejaVuSans-38" transform="translate(434.389648 0.015625)"/>
     <use xlink:href="#DejaVuSans-30" transform="translate(498.012695 0.015625)"/>
     <use xlink:href="#DejaVuSans-31" transform="translate(561.635742 0.015625)"/>
     <use xlink:href="#DejaVuSans-39" transform="translate(625.258789 0.015625)"/>
     <use xlink:href="#DejaVuSans-39" transform="translate(688.881836 0.015625)"/>
     <use xlink:href="#DejaVuSans-b1" transform="translate(752.504883 0.015625)"/>
     <use xlink:href="#DejaVuSans-32" transform="translate(836.293945 0.015625)"/>
     <use xlink:href="#DejaVuSans-2e" transform="translate(899.916992 0.015625)"/>
     <use xlink:href="#DejaVuSans-38" transform="translate(929.079102 0.015625)"/>
     <use xlink:href="#DejaVuSans-65" transform="translate(992.702148 0.015625)"/>
     <use xlink:href="#DejaVuSans-2d" transform="translate(1054.225586 0.015625)"/>
     <use xlink:href="#DejaVuSans-30" transform="translate(1090.30957 0.015625)"/>
     <use xlink:href="#DejaVuSans-36" transform="translate(1153.932617 0.015625)"/>
     <use xlink:href="#DejaVuSans-20" transform="translate(1217.555664 0.015625)"/>
     <use xlink:href="#DejaVuSans-47" transform="translate(1249.342773 0.015625)"/>
     <use xlink:href="#DejaVuSans-48" transform="translate(1326.833008 0.015625)"/>
     <use xlink:href="#DejaVuSans-7a" transform="translate(1402.02832 0.015625)"/>
    </g>
   </g>
  </g>
  <g id="axes_2">
   <g id="patch_8">
    <path d="M 50.595313 307.872 
L 407.715312 307.872 
L 407.715312 186.912 
L 50.595313 186.912 
z
" style="fill: #ffffff"/>
   </g>
   <g id="matplotlib.axis_3">
    <g id="xtick_7">
     <g id="line2d_14">
      <g>
       <use xlink:href="#m6e2b724323" x="83.060767" y="307.872" style="stroke: #000000; stroke-width: 0.8"/>
      </g>
     </g>
     <g id="text_8">
      <!-- 4 -->
      <g transform="translate(79.879517 322.470438) scale(0.1 -0.1)">
       <use xlink:href="#DejaVuSans-34"/>
      </g>
     </g>
    </g>
    <g id="xtick_8">
     <g id="line2d_15">
      <g>
       <use xlink:href="#m6e2b724323" x="147.991676" y="307.872" style="stroke: #000000; stroke-width: 0.8"/>
      </g>
     </g>
     <g id="text_9">
      <!-- 6 -->
      <g transform="translate(144.810426 322.470438) scale(0.1 -0.1)">
       <use xlink:href="#DejaVuSans-36"/>
      </g>
     </g>
    </g>
    <g id="xtick_9">
     <g id="line2d_16">
      <g>
       <use xlink:href="#m6e2b724323" x="212.922585" y="307.872" style="stroke: #000000; stroke-width: 0.8"/>
      </g>
     </g>
     <g id="text_10">
      <!-- 8 -->
      <g transform="translate(209.741335 322.470438) scale(0.1 -0.1)">
       <use xlink:href="#DejaVuSans-38"/>
      </g>
     </g>
    </g>
    <g id="xtick_10">
     <g id="line2d_17">
      <g>
       <use xlink:href="#m6e2b724323" x="277.853494" y="307.872" style="stroke: #000000; stroke-width: 0.8"/>
      </g>
     </g>
     <g id="text_11">
      <!-- 10 -->
      <g transform="translate(271.490994 322.470438) scale(0.1 -0.1)">
       <use xlink:href="#DejaVuSans-31"/>
       <use xlink:href="#DejaVuSans-30" x="63.623047"/>
      </g>
     </g>
    </g>
    <g id="xtick_11">
     <g id="line2d_18">
      <g>
       <use xlink:href="#m6e2b724323" x="342.784403" y="307.872" style="stroke: #000000; stroke-width: 0.8"/>
      </g>
     </g>
     <g id="text_12">
      <!-- 12 -->
      <g transform="translate(336.421903 322.470438) scale(0.1 -0.1)">
       <use xlink:href="#DejaVuSans-31"/>
       <use xlink:href="#DejaVuSans-32" x="63.623047"/>
      </g>
     </g>
    </g>
    <g id="xtick_12">
     <g id="line2d_19">
      <g>
       <use xlink:href="#m6e2b724323" x="407.715312" y="307.872" style="stroke: #000000; stroke-width: 0.8"/>
      </g>
     </g>
     <g id="text_13">
      <!-- 14 -->
      <g transform="translate(401.352812 322.470438) scale(0.1 -0.1)">
       <use xlink:href="#DejaVuSans-31"/>
       <use xlink:href="#DejaVuSans-34" x="63.623047"/>
      </g>
     </g>
    </g>
    <g id="text_14">
     <!-- Frequency [MHz] -->
     <g transform="translate(187.136562 336.148562) scale(0.1 -0.1)">
      <defs>
       <path id="DejaVuSans-46" d="M 628 4666 
L 3309 4666 
L 3309 4134 
L 1259 4134 
L 1259 2759 
L 3109 2759 
L 3109 2228 
L 1259 2228 
L 1259 0 
L 628 0 
L 628 4666 
z
" transform="scale(0.015625)"/>
       <path id="DejaVuSans-71" d="M 947 1747 
Q 947 1113 1208 752 
Q 1469 391 1925 391 
Q 2381 391 2643 752 
Q 2906 1113 2906 1747 
Q 2906 2381 2643 2742 
Q 2381 3103 1925 3103 
Q 1469 3103 1208 2742 
Q 947 2381 947 1747 
z
M 2906 525 
Q 2725 213 2448 61 
Q 2172 -91 1784 -91 
Q 1150 -91 751 415 
Q 353 922 353 1747 
Q 353 2572 751 3078 
Q 1150 3584 1784 3584 
Q 2172 3584 2448 3432 
Q 2725 3281 2906 2969 
L 2906 3500 
L 3481 3500 
L 3481 -1331 
L 2906 -1331 
L 2906 525 
z
" transform="scale(0.015625)"/>
       <path id="DejaVuSans-6e" d="M 3513 2113 
L 3513 0 
L 2938 0 
L 2938 2094 
Q 2938 2591 2744 2837 
Q 2550 3084 2163 3084 
Q 1697 3084 1428 2787 
Q 1159 2491 1159 1978 
L 1159 0 
L 581 0 
L 581 3500 
L 1159 3500 
L 1159 2956 
Q 1366 3272 1645 3428 
Q 1925 3584 2291 3584 
Q 2894 3584 3203 3211 
Q 3513 2838 3513 2113 
z
" transform="scale(0.015625)"/>
       <path id="DejaVuSans-63" d="M 3122 3366 
L 3122 2828 
Q 2878 2963 2633 3030 
Q 2388 3097 2138 3097 
Q 1578 3097 1268 2742 
Q 959 2388 959 1747 
Q 959 1106 1268 751 
Q 1578 397 2138 397 
Q 2388 397 2633 464 
Q 2878 531 3122 666 
L 3122 134 
Q 2881 22 2623 -34 
Q 2366 -91 2075 -91 
Q 1284 -91 818 406 
Q 353 903 353 1747 
Q 353 2603 823 3093 
Q 1294 3584 2113 3584 
Q 2378 3584 2631 3529 
Q 2884 3475 3122 3366 
z
" transform="scale(0.015625)"/>
       <path id="DejaVuSans-4d" d="M 628 4666 
L 1569 4666 
L 2759 1491 
L 3956 4666 
L 4897 4666 
L 4897 0 
L 4281 0 
L 4281 4097 
L 3078 897 
L 2444 897 
L 1241 4097 
L 1241 0 
L 628 0 
L 628 4666 
z
" transform="scale(0.015625)"/>
      </defs>
      <use xlink:href="#DejaVuSans-46"/>
      <use xlink:href="#DejaVuSans-72" x="50.269531"/>
      <use xlink:href="#DejaVuSans-65" x="89.132812"/>
      <use xlink:href="#DejaVuSans-71" x="150.65625"/>
      <use xlink:href="#DejaVuSans-75" x="214.132812"/>
      <use xlink:href="#DejaVuSans-65" x="277.511719"/>
      <use xlink:href="#DejaVuSans-6e" x="339.035156"/>
      <use xlink:href="#DejaVuSans-63" x="402.414062"/>
      <use xlink:href="#DejaVuSans-79" x="457.394531"/>
      <use xlink:href="#DejaVuSans-20" x="516.574219"/>
      <use xlink:href="#DejaVuSans-5b" x="548.361328"/>
      <use xlink:href="#DejaVuSans-4d" x="587.375"/>
      <use xlink:href="#DejaVuSans-48" x="673.654297"/>
      <use xlink:href="#DejaVuSans-7a" x="748.849609"/>
      <use xlink:href="#DejaVuSans-5d" x="801.339844"/>
     </g>
    </g>
    <g id="text_15">
     <!-- +6 GHz -->
     <g transform="translate(369.277812 335.148562) scale(0.1 -0.1)">
      <defs>
       <path id="DejaVuSans-2b" d="M 2944 4013 
L 2944 2272 
L 4684 2272 
L 4684 1741 
L 2944 1741 
L 2944 0 
L 2419 0 
L 2419 1741 
L 678 1741 
L 678 2272 
L 2419 2272 
L 2419 4013 
L 2944 4013 
z
" transform="scale(0.015625)"/>
      </defs>
      <use xlink:href="#DejaVuSans-2b"/>
      <use xlink:href="#DejaVuSans-36" x="83.789062"/>
      <use xlink:href="#DejaVuSans-20" x="147.412109"/>
      <use xlink:href="#DejaVuSans-47" x="179.199219"/>
      <use xlink:href="#DejaVuSans-48" x="256.689453"/>
      <use xlink:href="#DejaVuSans-7a" x="331.884766"/>
     </g>
    </g>
   </g>
   <g id="matplotlib.axis_4">
    <g id="ytick_6">
     <g id="line2d_20">
      <g>
       <use xlink:href="#m9ee29f741b" x="50.595313" y="277.969385" style="stroke: #000000; stroke-width: 0.8"/>
      </g>
     </g>
     <g id="text_16">
      <!-- -100 -->
      <g transform="translate(20.9 281.768603) scale(0.1 -0.1)">
       <use xlink:href="#DejaVuSans-2d"/>
       <use xlink:href="#DejaVuSans-31" x="36.083984"/>
       <use xlink:href="#DejaVuSans-30" x="99.707031"/>
       <use xlink:href="#DejaVuSans-30" x="163.330078"/>
      </g>
     </g>
    </g>
    <g id="ytick_7">
     <g id="line2d_21">
      <g>
       <use xlink:href="#m9ee29f741b" x="50.595313" y="247.411026" style="stroke: #000000; stroke-width: 0.8"/>
      </g>
     </g>
     <g id="text_17">
      <!-- 0 -->
      <g transform="translate(37.232813 251.210245) scale(0.1 -0.1)">
       <use xlink:href="#DejaVuSans-30"/>
      </g>
     </g>
    </g>
    <g id="ytick_8">
     <g id="line2d_22">
      <g>
       <use xlink:href="#m9ee29f741b" x="50.595313" y="216.852667" style="stroke: #000000; stroke-width: 0.8"/>
      </g>
     </g>
     <g id="text_18">
      <!-- 100 -->
      <g transform="translate(24.507813 220.651886) scale(0.1 -0.1)">
       <use xlink:href="#DejaVuSans-31"/>
       <use xlink:href="#DejaVuSans-30" x="63.623047"/>
       <use xlink:href="#DejaVuSans-30" x="127.246094"/>
      </g>
     </g>
    </g>
    <g id="text_19">
     <!-- $\angle S_{21}$ [deg] -->
     <g transform="translate(14.8 274.592) rotate(-90) scale(0.1 -0.1)">
      <defs>
       <path id="DejaVuSans-2220" d="M 5028 631 
L 5028 0 
L 547 0 
L 3525 4666 
L 4281 4666 
L 1716 631 
L 5028 631 
z
" transform="scale(0.015625)"/>
       <path id="DejaVuSans-64" d="M 2906 2969 
L 2906 4863 
L 3481 4863 
L 3481 0 
L 2906 0 
L 2906 525 
Q 2725 213 2448 61 
Q 2172 -91 1784 -91 
Q 1150 -91 751 415 
Q 353 922 353 1747 
Q 353 2572 751 3078 
Q 1150 3584 1784 3584 
Q 2172 3584 2448 3432 
Q 2725 3281 2906 2969 
z
M 947 1747 
Q 947 1113 1208 752 
Q 1469 391 1925 391 
Q 2381 391 2643 752 
Q 2906 1113 2906 1747 
Q 2906 2381 2643 2742 
Q 2381 3103 1925 3103 
Q 1469 3103 1208 2742 
Q 947 2381 947 1747 
z
" transform="scale(0.015625)"/>
       <path id="DejaVuSans-67" d="M 2906 1791 
Q 2906 2416 2648 2759 
Q 2391 3103 1925 3103 
Q 1463 3103 1205 2759 
Q 947 2416 947 1791 
Q 947 1169 1205 825 
Q 1463 481 1925 481 
Q 2391 481 2648 825 
Q 2906 1169 2906 1791 
z
M 3481 434 
Q 3481 -459 3084 -895 
Q 2688 -1331 1869 -1331 
Q 1566 -1331 1297 -1286 
Q 1028 -1241 775 -1147 
L 775 -588 
Q 1028 -725 1275 -790 
Q 1522 -856 1778 -856 
Q 2344 -856 2625 -561 
Q 2906 -266 2906 331 
L 2906 616 
Q 2728 306 2450 153 
Q 2172 0 1784 0 
Q 1141 0 747 490 
Q 353 981 353 1791 
Q 353 2603 747 3093 
Q 1141 3584 1784 3584 
Q 2172 3584 2450 3431 
Q 2728 3278 2906 2969 
L 2906 3500 
L 3481 3500 
L 3481 434 
z
" transform="scale(0.015625)"/>
      </defs>
      <use xlink:href="#DejaVuSans-2220" transform="translate(0 0.015625)"/>
      <use xlink:href="#DejaVuSans-Oblique-53" transform="translate(89.648438 0.015625)"/>
      <use xlink:href="#DejaVuSans-32" transform="translate(153.125 -16.390625) scale(0.7)"/>
      <use xlink:href="#DejaVuSans-31" transform="translate(197.661133 -16.390625) scale(0.7)"/>
      <use xlink:href="#DejaVuSans-20" transform="translate(244.931641 0.015625)"/>
      <use xlink:href="#DejaVuSans-5b" transform="translate(276.71875 0.015625)"/>
      <use xlink:href="#DejaVuSans-64" transform="translate(315.732422 0.015625)"/>
      <use xlink:href="#DejaVuSans-65" transform="translate(379.208984 0.015625)"/>
      <use xlink:href="#DejaVuSans-67" transform="translate(440.732422 0.015625)"/>
      <use xlink:href="#DejaVuSans-5d" transform="translate(504.208984 0.015625)"/>
     </g>
    </g>
   </g>
   <g id="line2d_23">
    <path d="M 66.82804 290.442492 
L 68.45947 290.507074 
L 70.0909 290.726569 
L 74.985189 290.874037 
L 76.616619 291.213887 
L 79.879479 291.362347 
L 84.773768 291.556715 
L 86.405198 291.624556 
L 88.036628 292.045552 
L 89.668058 291.973759 
L 94.562348 292.43516 
L 102.719497 293.140246 
L 104.350927 293.340153 
L 105.982357 293.268029 
L 114.139506 294.024442 
L 115.770936 293.97742 
L 119.033796 294.270422 
L 120.665226 294.401255 
L 122.296656 294.699847 
L 125.559515 294.875621 
L 130.453805 295.703256 
L 132.085235 295.630578 
L 133.716665 295.894133 
L 140.242384 296.47308 
L 141.873814 296.850095 
L 146.768104 297.279381 
L 148.399534 297.714434 
L 150.030963 297.817144 
L 151.662393 298.144237 
L 154.925253 298.519396 
L 156.556683 298.716671 
L 158.188113 299.133494 
L 159.819543 299.14467 
L 161.450973 299.669266 
L 163.082402 299.851332 
L 164.713832 300.331585 
L 166.345262 300.491827 
L 167.976692 300.962009 
L 169.608122 301.242001 
L 171.239552 301.362692 
L 174.502412 302.045621 
L 176.133842 192.410182 
L 177.765271 192.921903 
L 179.396701 193.166997 
L 181.028131 193.644402 
L 182.659561 193.934825 
L 184.290991 194.646039 
L 185.922421 194.842032 
L 187.553851 195.388655 
L 189.185281 195.78119 
L 190.81671 196.442316 
L 195.711 197.483808 
L 197.34243 198.385377 
L 198.97386 198.377999 
L 200.60529 198.910277 
L 202.23672 198.993477 
L 203.868149 199.765198 
L 207.131009 199.163196 
L 208.762439 199.418673 
L 210.393869 198.538286 
L 212.025299 198.193604 
L 213.656729 196.095346 
L 215.288159 194.406115 
L 216.919588 300.608426 
L 218.551018 296.402254 
L 220.182448 290.880621 
L 223.445308 284.646049 
L 225.076738 282.296645 
L 226.708168 281.670393 
L 228.339598 281.237779 
L 229.971027 281.2207 
L 231.602457 280.813427 
L 233.233887 280.592215 
L 234.865317 281.131469 
L 236.496747 280.972925 
L 238.128177 281.046037 
L 239.759607 281.437671 
L 241.391037 281.625085 
L 243.022466 281.936747 
L 244.653896 282.559809 
L 247.916756 282.881086 
L 249.548186 283.453297 
L 252.811046 283.59294 
L 256.073905 284.476958 
L 257.705335 284.950464 
L 267.493915 286.407138 
L 269.125344 286.783388 
L 270.756774 286.858823 
L 272.388204 287.219245 
L 275.651064 287.590177 
L 277.282494 287.620767 
L 278.913924 288.01463 
L 283.808213 288.686055 
L 285.439643 288.720066 
L 287.071073 289.019879 
L 290.333933 289.438128 
L 291.965363 289.63826 
L 295.228223 289.86871 
L 296.859652 290.13254 
L 298.491082 290.132647 
L 303.385372 290.845853 
L 305.016802 290.809826 
L 308.279662 291.232922 
L 311.542521 291.49917 
L 326.22539 292.737607 
L 327.85682 292.648887 
L 329.48825 292.967775 
L 334.38254 293.174892 
L 336.013969 293.433276 
L 337.645399 293.402794 
L 339.276829 293.725205 
L 342.539689 293.713399 
L 344.171119 293.995189 
L 349.065408 294.326996 
L 350.696838 294.400042 
L 352.328268 294.354284 
L 353.959698 294.628595 
L 355.591128 294.649781 
L 358.853988 295.026698 
L 360.485418 294.993582 
L 362.116847 295.111326 
L 363.748277 295.114809 
L 367.011137 295.546707 
L 368.642567 295.653788 
L 370.273997 295.570647 
L 371.905427 295.90196 
L 373.536857 295.844945 
L 376.799716 296.054497 
L 380.062576 296.187081 
L 383.325436 296.673901 
L 386.588296 296.62215 
L 388.219725 296.920852 
L 391.482585 296.912491 
L 391.482585 296.912491 
" clip-path="url(#p014f37bd6a)" style="fill: none; stroke: #1f77b4; stroke-width: 1.5; stroke-linecap: square"/>
    <g clip-path="url(#p014f37bd6a)">
     <use xlink:href="#m7669537e40" x="66.82804" y="290.442492" style="fill: #1f77b4; stroke: #1f77b4"/>
     <use xlink:href="#m7669537e40" x="68.45947" y="290.507074" style="fill: #1f77b4; stroke: #1f77b4"/>
     <use xlink:href="#m7669537e40" x="70.0909" y="290.726569" style="fill: #1f77b4; stroke: #1f77b4"/>
     <use xlink:href="#m7669537e40" x="71.722329" y="290.803445" style="fill: #1f77b4; stroke: #1f77b4"/>
     <use xlink:href="#m7669537e40" x="73.353759" y="290.956256" style="fill: #1f77b4; stroke: #1f77b4"/>
     <use xlink:href="#m7669537e40" x="74.985189" y="290.874037" style="fill: #1f77b4; stroke: #1f77b4"/>
     <use xlink:href="#m7669537e40" x="76.616619" y="291.213887" style="fill: #1f77b4; stroke: #1f77b4"/>
     <use xlink:href="#m7669537e40" x="78.248049" y="291.337688" style="fill: #1f77b4; stroke: #1f77b4"/>
     <use xlink:href="#m7669537e40" x="79.879479" y="291.362347" style="fill: #1f77b4; stroke: #1f77b4"/>
     <use xlink:href="#m7669537e40" x="81.510909" y="291.463796" style="fill: #1f77b4; stroke: #1f77b4"/>
     <use xlink:href="#m7669537e40" x="83.142339" y="291.504109" style="fill: #1f77b4; stroke: #1f77b4"/>
     <use xlink:href="#m7669537e40" x="84.773768" y="291.556715" style="fill: #1f77b4; stroke: #1f77b4"/>
     <use xlink:href="#m7669537e40" x="86.405198" y="291.624556" style="fill: #1f77b4; stroke: #1f77b4"/>
     <use xlink:href="#m7669537e40" x="88.036628" y="292.045552" style="fill: #1f77b4; stroke: #1f77b4"/>
     <use xlink:href="#m7669537e40" x="89.668058" y="291.973759" style="fill: #1f77b4; stroke: #1f77b4"/>
     <use xlink:href="#m7669537e40" x="91.299488" y="292.152713" style="fill: #1f77b4; stroke: #1f77b4"/>
     <use xlink:href="#m7669537e40" x="92.930918" y="292.255821" style="fill: #1f77b4; stroke: #1f77b4"/>
     <use xlink:href="#m7669537e40" x="94.562348" y="292.43516" style="fill: #1f77b4; stroke: #1f77b4"/>
     <use xlink:href="#m7669537e40" x="96.193778" y="292.558869" style="fill: #1f77b4; stroke: #1f77b4"/>
     <use xlink:href="#m7669537e40" x="97.825207" y="292.681611" style="fill: #1f77b4; stroke: #1f77b4"/>
     <use xlink:href="#m7669537e40" x="99.456637" y="292.763666" style="fill: #1f77b4; stroke: #1f77b4"/>
     <use xlink:href="#m7669537e40" x="101.088067" y="292.887515" style="fill: #1f77b4; stroke: #1f77b4"/>
     <use xlink:href="#m7669537e40" x="102.719497" y="293.140246" style="fill: #1f77b4; stroke: #1f77b4"/>
     <use xlink:href="#m7669537e40" x="104.350927" y="293.340153" style="fill: #1f77b4; stroke: #1f77b4"/>
     <use xlink:href="#m7669537e40" x="105.982357" y="293.268029" style="fill: #1f77b4; stroke: #1f77b4"/>
     <use xlink:href="#m7669537e40" x="107.613787" y="293.411815" style="fill: #1f77b4; stroke: #1f77b4"/>
     <use xlink:href="#m7669537e40" x="109.245217" y="293.500967" style="fill: #1f77b4; stroke: #1f77b4"/>
     <use xlink:href="#m7669537e40" x="110.876646" y="293.803222" style="fill: #1f77b4; stroke: #1f77b4"/>
     <use xlink:href="#m7669537e40" x="112.508076" y="293.838207" style="fill: #1f77b4; stroke: #1f77b4"/>
     <use xlink:href="#m7669537e40" x="114.139506" y="294.024442" style="fill: #1f77b4; stroke: #1f77b4"/>
     <use xlink:href="#m7669537e40" x="115.770936" y="293.97742" style="fill: #1f77b4; stroke: #1f77b4"/>
     <use xlink:href="#m7669537e40" x="117.402366" y="294.166887" style="fill: #1f77b4; stroke: #1f77b4"/>
     <use xlink:href="#m7669537e40" x="119.033796" y="294.270422" style="fill: #1f77b4; stroke: #1f77b4"/>
     <use xlink:href="#m7669537e40" x="120.665226" y="294.401255" style="fill: #1f77b4; stroke: #1f77b4"/>
     <use xlink:href="#m7669537e40" x="122.296656" y="294.699847" style="fill: #1f77b4; stroke: #1f77b4"/>
     <use xlink:href="#m7669537e40" x="123.928085" y="294.778484" style="fill: #1f77b4; stroke: #1f77b4"/>
     <use xlink:href="#m7669537e40" x="125.559515" y="294.875621" style="fill: #1f77b4; stroke: #1f77b4"/>
     <use xlink:href="#m7669537e40" x="127.190945" y="295.129146" style="fill: #1f77b4; stroke: #1f77b4"/>
     <use xlink:href="#m7669537e40" x="128.822375" y="295.27471" style="fill: #1f77b4; stroke: #1f77b4"/>
     <use xlink:href="#m7669537e40" x="130.453805" y="295.703256" style="fill: #1f77b4; stroke: #1f77b4"/>
     <use xlink:href="#m7669537e40" x="132.085235" y="295.630578" style="fill: #1f77b4; stroke: #1f77b4"/>
     <use xlink:href="#m7669537e40" x="133.716665" y="295.894133" style="fill: #1f77b4; stroke: #1f77b4"/>
     <use xlink:href="#m7669537e40" x="135.348095" y="296.015406" style="fill: #1f77b4; stroke: #1f77b4"/>
     <use xlink:href="#m7669537e40" x="136.979524" y="296.204775" style="fill: #1f77b4; stroke: #1f77b4"/>
     <use xlink:href="#m7669537e40" x="138.610954" y="296.353257" style="fill: #1f77b4; stroke: #1f77b4"/>
     <use xlink:href="#m7669537e40" x="140.242384" y="296.47308" style="fill: #1f77b4; stroke: #1f77b4"/>
     <use xlink:href="#m7669537e40" x="141.873814" y="296.850095" style="fill: #1f77b4; stroke: #1f77b4"/>
     <use xlink:href="#m7669537e40" x="143.505244" y="297.004876" style="fill: #1f77b4; stroke: #1f77b4"/>
     <use xlink:href="#m7669537e40" x="145.136674" y="297.112293" style="fill: #1f77b4; stroke: #1f77b4"/>
     <use xlink:href="#m7669537e40" x="146.768104" y="297.279381" style="fill: #1f77b4; stroke: #1f77b4"/>
     <use xlink:href="#m7669537e40" x="148.399534" y="297.714434" style="fill: #1f77b4; stroke: #1f77b4"/>
     <use xlink:href="#m7669537e40" x="150.030963" y="297.817144" style="fill: #1f77b4; stroke: #1f77b4"/>
     <use xlink:href="#m7669537e40" x="151.662393" y="298.144237" style="fill: #1f77b4; stroke: #1f77b4"/>
     <use xlink:href="#m7669537e40" x="153.293823" y="298.277704" style="fill: #1f77b4; stroke: #1f77b4"/>
     <use xlink:href="#m7669537e40" x="154.925253" y="298.519396" style="fill: #1f77b4; stroke: #1f77b4"/>
     <use xlink:href="#m7669537e40" x="156.556683" y="298.716671" style="fill: #1f77b4; stroke: #1f77b4"/>
     <use xlink:href="#m7669537e40" x="158.188113" y="299.133494" style="fill: #1f77b4; stroke: #1f77b4"/>
     <use xlink:href="#m7669537e40" x="159.819543" y="299.14467" style="fill: #1f77b4; stroke: #1f77b4"/>
     <use xlink:href="#m7669537e40" x="161.450973" y="299.669266" style="fill: #1f77b4; stroke: #1f77b4"/>
     <use xlink:href="#m7669537e40" x="163.082402" y="299.851332" style="fill: #1f77b4; stroke: #1f77b4"/>
     <use xlink:href="#m7669537e40" x="164.713832" y="300.331585" style="fill: #1f77b4; stroke: #1f77b4"/>
     <use xlink:href="#m7669537e40" x="166.345262" y="300.491827" style="fill: #1f77b4; stroke: #1f77b4"/>
     <use xlink:href="#m7669537e40" x="167.976692" y="300.962009" style="fill: #1f77b4; stroke: #1f77b4"/>
     <use xlink:href="#m7669537e40" x="169.608122" y="301.242001" style="fill: #1f77b4; stroke: #1f77b4"/>
     <use xlink:href="#m7669537e40" x="171.239552" y="301.362692" style="fill: #1f77b4; stroke: #1f77b4"/>
     <use xlink:href="#m7669537e40" x="172.870982" y="301.758428" style="fill: #1f77b4; stroke: #1f77b4"/>
     <use xlink:href="#m7669537e40" x="174.502412" y="302.045621" style="fill: #1f77b4; stroke: #1f77b4"/>
     <use xlink:href="#m7669537e40" x="176.133842" y="192.410182" style="fill: #1f77b4; stroke: #1f77b4"/>
     <use xlink:href="#m7669537e40" x="177.765271" y="192.921903" style="fill: #1f77b4; stroke: #1f77b4"/>
     <use xlink:href="#m7669537e40" x="179.396701" y="193.166997" style="fill: #1f77b4; stroke: #1f77b4"/>
     <use xlink:href="#m7669537e40" x="181.028131" y="193.644402" style="fill: #1f77b4; stroke: #1f77b4"/>
     <use xlink:href="#m7669537e40" x="182.659561" y="193.934825" style="fill: #1f77b4; stroke: #1f77b4"/>
     <use xlink:href="#m7669537e40" x="184.290991" y="194.646039" style="fill: #1f77b4; stroke: #1f77b4"/>
     <use xlink:href="#m7669537e40" x="185.922421" y="194.842032" style="fill: #1f77b4; stroke: #1f77b4"/>
     <use xlink:href="#m7669537e40" x="187.553851" y="195.388655" style="fill: #1f77b4; stroke: #1f77b4"/>
     <use xlink:href="#m7669537e40" x="189.185281" y="195.78119" style="fill: #1f77b4; stroke: #1f77b4"/>
     <use xlink:href="#m7669537e40" x="190.81671" y="196.442316" style="fill: #1f77b4; stroke: #1f77b4"/>
     <use xlink:href="#m7669537e40" x="192.44814" y="196.812059" style="fill: #1f77b4; stroke: #1f77b4"/>
     <use xlink:href="#m7669537e40" x="194.07957" y="197.225559" style="fill: #1f77b4; stroke: #1f77b4"/>
     <use xlink:href="#m7669537e40" x="195.711" y="197.483808" style="fill: #1f77b4; stroke: #1f77b4"/>
     <use xlink:href="#m7669537e40" x="197.34243" y="198.385377" style="fill: #1f77b4; stroke: #1f77b4"/>
     <use xlink:href="#m7669537e40" x="198.97386" y="198.377999" style="fill: #1f77b4; stroke: #1f77b4"/>
     <use xlink:href="#m7669537e40" x="200.60529" y="198.910277" style="fill: #1f77b4; stroke: #1f77b4"/>
     <use xlink:href="#m7669537e40" x="202.23672" y="198.993477" style="fill: #1f77b4; stroke: #1f77b4"/>
     <use xlink:href="#m7669537e40" x="203.868149" y="199.765198" style="fill: #1f77b4; stroke: #1f77b4"/>
     <use xlink:href="#m7669537e40" x="205.499579" y="199.516963" style="fill: #1f77b4; stroke: #1f77b4"/>
     <use xlink:href="#m7669537e40" x="207.131009" y="199.163196" style="fill: #1f77b4; stroke: #1f77b4"/>
     <use xlink:href="#m7669537e40" x="208.762439" y="199.418673" style="fill: #1f77b4; stroke: #1f77b4"/>
     <use xlink:href="#m7669537e40" x="210.393869" y="198.538286" style="fill: #1f77b4; stroke: #1f77b4"/>
     <use xlink:href="#m7669537e40" x="212.025299" y="198.193604" style="fill: #1f77b4; stroke: #1f77b4"/>
     <use xlink:href="#m7669537e40" x="213.656729" y="196.095346" style="fill: #1f77b4; stroke: #1f77b4"/>
     <use xlink:href="#m7669537e40" x="215.288159" y="194.406115" style="fill: #1f77b4; stroke: #1f77b4"/>
     <use xlink:href="#m7669537e40" x="216.919588" y="300.608426" style="fill: #1f77b4; stroke: #1f77b4"/>
     <use xlink:href="#m7669537e40" x="218.551018" y="296.402254" style="fill: #1f77b4; stroke: #1f77b4"/>
     <use xlink:href="#m7669537e40" x="220.182448" y="290.880621" style="fill: #1f77b4; stroke: #1f77b4"/>
     <use xlink:href="#m7669537e40" x="221.813878" y="287.770141" style="fill: #1f77b4; stroke: #1f77b4"/>
     <use xlink:href="#m7669537e40" x="223.445308" y="284.646049" style="fill: #1f77b4; stroke: #1f77b4"/>
     <use xlink:href="#m7669537e40" x="225.076738" y="282.296645" style="fill: #1f77b4; stroke: #1f77b4"/>
     <use xlink:href="#m7669537e40" x="226.708168" y="281.670393" style="fill: #1f77b4; stroke: #1f77b4"/>
     <use xlink:href="#m7669537e40" x="228.339598" y="281.237779" style="fill: #1f77b4; stroke: #1f77b4"/>
     <use xlink:href="#m7669537e40" x="229.971027" y="281.2207" style="fill: #1f77b4; stroke: #1f77b4"/>
     <use xlink:href="#m7669537e40" x="231.602457" y="280.813427" style="fill: #1f77b4; stroke: #1f77b4"/>
     <use xlink:href="#m7669537e40" x="233.233887" y="280.592215" style="fill: #1f77b4; stroke: #1f77b4"/>
     <use xlink:href="#m7669537e40" x="234.865317" y="281.131469" style="fill: #1f77b4; stroke: #1f77b4"/>
     <use xlink:href="#m7669537e40" x="236.496747" y="280.972925" style="fill: #1f77b4; stroke: #1f77b4"/>
     <use xlink:href="#m7669537e40" x="238.128177" y="281.046037" style="fill: #1f77b4; stroke: #1f77b4"/>
     <use xlink:href="#m7669537e40" x="239.759607" y="281.437671" style="fill: #1f77b4; stroke: #1f77b4"/>
     <use xlink:href="#m7669537e40" x="241.391037" y="281.625085" style="fill: #1f77b4; stroke: #1f77b4"/>
     <use xlink:href="#m7669537e40" x="243.022466" y="281.936747" style="fill: #1f77b4; stroke: #1f77b4"/>
     <use xlink:href="#m7669537e40" x="244.653896" y="282.559809" style="fill: #1f77b4; stroke: #1f77b4"/>
     <use xlink:href="#m7669537e40" x="246.285326" y="282.739458" style="fill: #1f77b4; stroke: #1f77b4"/>
     <use xlink:href="#m7669537e40" x="247.916756" y="282.881086" style="fill: #1f77b4; stroke: #1f77b4"/>
     <use xlink:href="#m7669537e40" x="249.548186" y="283.453297" style="fill: #1f77b4; stroke: #1f77b4"/>
     <use xlink:href="#m7669537e40" x="251.179616" y="283.560883" style="fill: #1f77b4; stroke: #1f77b4"/>
     <use xlink:href="#m7669537e40" x="252.811046" y="283.59294" style="fill: #1f77b4; stroke: #1f77b4"/>
     <use xlink:href="#m7669537e40" x="254.442476" y="284.084147" style="fill: #1f77b4; stroke: #1f77b4"/>
     <use xlink:href="#m7669537e40" x="256.073905" y="284.476958" style="fill: #1f77b4; stroke: #1f77b4"/>
     <use xlink:href="#m7669537e40" x="257.705335" y="284.950464" style="fill: #1f77b4; stroke: #1f77b4"/>
     <use xlink:href="#m7669537e40" x="259.336765" y="285.184774" style="fill: #1f77b4; stroke: #1f77b4"/>
     <use xlink:href="#m7669537e40" x="260.968195" y="285.34758" style="fill: #1f77b4; stroke: #1f77b4"/>
     <use xlink:href="#m7669537e40" x="262.599625" y="285.663296" style="fill: #1f77b4; stroke: #1f77b4"/>
     <use xlink:href="#m7669537e40" x="264.231055" y="285.88489" style="fill: #1f77b4; stroke: #1f77b4"/>
     <use xlink:href="#m7669537e40" x="265.862485" y="286.109011" style="fill: #1f77b4; stroke: #1f77b4"/>
     <use xlink:href="#m7669537e40" x="267.493915" y="286.407138" style="fill: #1f77b4; stroke: #1f77b4"/>
     <use xlink:href="#m7669537e40" x="269.125344" y="286.783388" style="fill: #1f77b4; stroke: #1f77b4"/>
     <use xlink:href="#m7669537e40" x="270.756774" y="286.858823" style="fill: #1f77b4; stroke: #1f77b4"/>
     <use xlink:href="#m7669537e40" x="272.388204" y="287.219245" style="fill: #1f77b4; stroke: #1f77b4"/>
     <use xlink:href="#m7669537e40" x="274.019634" y="287.405524" style="fill: #1f77b4; stroke: #1f77b4"/>
     <use xlink:href="#m7669537e40" x="275.651064" y="287.590177" style="fill: #1f77b4; stroke: #1f77b4"/>
     <use xlink:href="#m7669537e40" x="277.282494" y="287.620767" style="fill: #1f77b4; stroke: #1f77b4"/>
     <use xlink:href="#m7669537e40" x="278.913924" y="288.01463" style="fill: #1f77b4; stroke: #1f77b4"/>
     <use xlink:href="#m7669537e40" x="280.545354" y="288.221125" style="fill: #1f77b4; stroke: #1f77b4"/>
     <use xlink:href="#m7669537e40" x="282.176783" y="288.491024" style="fill: #1f77b4; stroke: #1f77b4"/>
     <use xlink:href="#m7669537e40" x="283.808213" y="288.686055" style="fill: #1f77b4; stroke: #1f77b4"/>
     <use xlink:href="#m7669537e40" x="285.439643" y="288.720066" style="fill: #1f77b4; stroke: #1f77b4"/>
     <use xlink:href="#m7669537e40" x="287.071073" y="289.019879" style="fill: #1f77b4; stroke: #1f77b4"/>
     <use xlink:href="#m7669537e40" x="288.702503" y="289.18642" style="fill: #1f77b4; stroke: #1f77b4"/>
     <use xlink:href="#m7669537e40" x="290.333933" y="289.438128" style="fill: #1f77b4; stroke: #1f77b4"/>
     <use xlink:href="#m7669537e40" x="291.965363" y="289.63826" style="fill: #1f77b4; stroke: #1f77b4"/>
     <use xlink:href="#m7669537e40" x="293.596793" y="289.714914" style="fill: #1f77b4; stroke: #1f77b4"/>
     <use xlink:href="#m7669537e40" x="295.228223" y="289.86871" style="fill: #1f77b4; stroke: #1f77b4"/>
     <use xlink:href="#m7669537e40" x="296.859652" y="290.13254" style="fill: #1f77b4; stroke: #1f77b4"/>
     <use xlink:href="#m7669537e40" x="298.491082" y="290.132647" style="fill: #1f77b4; stroke: #1f77b4"/>
     <use xlink:href="#m7669537e40" x="300.122512" y="290.333663" style="fill: #1f77b4; stroke: #1f77b4"/>
     <use xlink:href="#m7669537e40" x="301.753942" y="290.485318" style="fill: #1f77b4; stroke: #1f77b4"/>
     <use xlink:href="#m7669537e40" x="303.385372" y="290.845853" style="fill: #1f77b4; stroke: #1f77b4"/>
     <use xlink:href="#m7669537e40" x="305.016802" y="290.809826" style="fill: #1f77b4; stroke: #1f77b4"/>
     <use xlink:href="#m7669537e40" x="306.648232" y="291.056465" style="fill: #1f77b4; stroke: #1f77b4"/>
     <use xlink:href="#m7669537e40" x="308.279662" y="291.232922" style="fill: #1f77b4; stroke: #1f77b4"/>
     <use xlink:href="#m7669537e40" x="309.911091" y="291.318056" style="fill: #1f77b4; stroke: #1f77b4"/>
     <use xlink:href="#m7669537e40" x="311.542521" y="291.49917" style="fill: #1f77b4; stroke: #1f77b4"/>
     <use xlink:href="#m7669537e40" x="313.173951" y="291.637821" style="fill: #1f77b4; stroke: #1f77b4"/>
     <use xlink:href="#m7669537e40" x="314.805381" y="291.693201" style="fill: #1f77b4; stroke: #1f77b4"/>
     <use xlink:href="#m7669537e40" x="316.436811" y="291.808925" style="fill: #1f77b4; stroke: #1f77b4"/>
     <use xlink:href="#m7669537e40" x="318.068241" y="291.960329" style="fill: #1f77b4; stroke: #1f77b4"/>
     <use xlink:href="#m7669537e40" x="319.699671" y="292.094765" style="fill: #1f77b4; stroke: #1f77b4"/>
     <use xlink:href="#m7669537e40" x="321.331101" y="292.294134" style="fill: #1f77b4; stroke: #1f77b4"/>
     <use xlink:href="#m7669537e40" x="322.96253" y="292.406241" style="fill: #1f77b4; stroke: #1f77b4"/>
     <use xlink:href="#m7669537e40" x="324.59396" y="292.55201" style="fill: #1f77b4; stroke: #1f77b4"/>
     <use xlink:href="#m7669537e40" x="326.22539" y="292.737607" style="fill: #1f77b4; stroke: #1f77b4"/>
     <use xlink:href="#m7669537e40" x="327.85682" y="292.648887" style="fill: #1f77b4; stroke: #1f77b4"/>
     <use xlink:href="#m7669537e40" x="329.48825" y="292.967775" style="fill: #1f77b4; stroke: #1f77b4"/>
     <use xlink:href="#m7669537e40" x="331.11968" y="293.037008" style="fill: #1f77b4; stroke: #1f77b4"/>
     <use xlink:href="#m7669537e40" x="332.75111" y="293.146293" style="fill: #1f77b4; stroke: #1f77b4"/>
     <use xlink:href="#m7669537e40" x="334.38254" y="293.174892" style="fill: #1f77b4; stroke: #1f77b4"/>
     <use xlink:href="#m7669537e40" x="336.013969" y="293.433276" style="fill: #1f77b4; stroke: #1f77b4"/>
     <use xlink:href="#m7669537e40" x="337.645399" y="293.402794" style="fill: #1f77b4; stroke: #1f77b4"/>
     <use xlink:href="#m7669537e40" x="339.276829" y="293.725205" style="fill: #1f77b4; stroke: #1f77b4"/>
     <use xlink:href="#m7669537e40" x="340.908259" y="293.756688" style="fill: #1f77b4; stroke: #1f77b4"/>
     <use xlink:href="#m7669537e40" x="342.539689" y="293.713399" style="fill: #1f77b4; stroke: #1f77b4"/>
     <use xlink:href="#m7669537e40" x="344.171119" y="293.995189" style="fill: #1f77b4; stroke: #1f77b4"/>
     <use xlink:href="#m7669537e40" x="345.802549" y="294.12557" style="fill: #1f77b4; stroke: #1f77b4"/>
     <use xlink:href="#m7669537e40" x="347.433979" y="294.238672" style="fill: #1f77b4; stroke: #1f77b4"/>
     <use xlink:href="#m7669537e40" x="349.065408" y="294.326996" style="fill: #1f77b4; stroke: #1f77b4"/>
     <use xlink:href="#m7669537e40" x="350.696838" y="294.400042" style="fill: #1f77b4; stroke: #1f77b4"/>
     <use xlink:href="#m7669537e40" x="352.328268" y="294.354284" style="fill: #1f77b4; stroke: #1f77b4"/>
     <use xlink:href="#m7669537e40" x="353.959698" y="294.628595" style="fill: #1f77b4; stroke: #1f77b4"/>
     <use xlink:href="#m7669537e40" x="355.591128" y="294.649781" style="fill: #1f77b4; stroke: #1f77b4"/>
     <use xlink:href="#m7669537e40" x="357.222558" y="294.822731" style="fill: #1f77b4; stroke: #1f77b4"/>
     <use xlink:href="#m7669537e40" x="358.853988" y="295.026698" style="fill: #1f77b4; stroke: #1f77b4"/>
     <use xlink:href="#m7669537e40" x="360.485418" y="294.993582" style="fill: #1f77b4; stroke: #1f77b4"/>
     <use xlink:href="#m7669537e40" x="362.116847" y="295.111326" style="fill: #1f77b4; stroke: #1f77b4"/>
     <use xlink:href="#m7669537e40" x="363.748277" y="295.114809" style="fill: #1f77b4; stroke: #1f77b4"/>
     <use xlink:href="#m7669537e40" x="365.379707" y="295.365285" style="fill: #1f77b4; stroke: #1f77b4"/>
     <use xlink:href="#m7669537e40" x="367.011137" y="295.546707" style="fill: #1f77b4; stroke: #1f77b4"/>
     <use xlink:href="#m7669537e40" x="368.642567" y="295.653788" style="fill: #1f77b4; stroke: #1f77b4"/>
     <use xlink:href="#m7669537e40" x="370.273997" y="295.570647" style="fill: #1f77b4; stroke: #1f77b4"/>
     <use xlink:href="#m7669537e40" x="371.905427" y="295.90196" style="fill: #1f77b4; stroke: #1f77b4"/>
     <use xlink:href="#m7669537e40" x="373.536857" y="295.844945" style="fill: #1f77b4; stroke: #1f77b4"/>
     <use xlink:href="#m7669537e40" x="375.168286" y="296.001602" style="fill: #1f77b4; stroke: #1f77b4"/>
     <use xlink:href="#m7669537e40" x="376.799716" y="296.054497" style="fill: #1f77b4; stroke: #1f77b4"/>
     <use xlink:href="#m7669537e40" x="378.431146" y="296.10843" style="fill: #1f77b4; stroke: #1f77b4"/>
     <use xlink:href="#m7669537e40" x="380.062576" y="296.187081" style="fill: #1f77b4; stroke: #1f77b4"/>
     <use xlink:href="#m7669537e40" x="381.694006" y="296.465845" style="fill: #1f77b4; stroke: #1f77b4"/>
     <use xlink:href="#m7669537e40" x="383.325436" y="296.673901" style="fill: #1f77b4; stroke: #1f77b4"/>
     <use xlink:href="#m7669537e40" x="384.956866" y="296.642836" style="fill: #1f77b4; stroke: #1f77b4"/>
     <use xlink:href="#m7669537e40" x="386.588296" y="296.62215" style="fill: #1f77b4; stroke: #1f77b4"/>
     <use xlink:href="#m7669537e40" x="388.219725" y="296.920852" style="fill: #1f77b4; stroke: #1f77b4"/>
     <use xlink:href="#m7669537e40" x="389.851155" y="296.967871" style="fill: #1f77b4; stroke: #1f77b4"/>
     <use xlink:href="#m7669537e40" x="391.482585" y="296.912491" style="fill: #1f77b4; stroke: #1f77b4"/>
    </g>
   </g>
   <g id="line2d_24">
    <path d="M 66.82804 290.475452 
L 91.851463 292.167321 
L 111.350235 293.699196 
L 126.949252 295.137003 
L 139.948433 296.552045 
L 150.672757 297.932856 
L 160.097163 299.365917 
L 168.221652 300.8179 
L 175.696181 302.373818 
L 176.02116 192.436713 
L 183.17071 194.160482 
L 191.295198 196.364763 
L 200.394625 198.82187 
L 203.64442 199.464729 
L 205.919276 199.707395 
L 207.869154 199.682607 
L 209.494051 199.408421 
L 210.793969 198.947703 
L 211.768908 198.410622 
L 212.743846 197.660595 
L 213.718785 196.642619 
L 214.693724 195.293581 
L 215.668662 193.551946 
L 215.993642 192.87644 
L 216.318621 302.162695 
L 217.618539 298.819911 
L 221.193314 288.795419 
L 222.168253 286.743737 
L 223.143191 285.10705 
L 224.11813 283.837317 
L 225.093068 282.870997 
L 226.392987 281.950937 
L 227.692905 281.346042 
L 228.992823 280.969789 
L 230.61772 280.728516 
L 232.567598 280.669446 
L 235.167434 280.837826 
L 238.742208 281.3262 
L 244.59184 282.391245 
L 260.190857 285.301799 
L 269.615263 286.797582 
L 280.014608 288.214482 
L 291.713871 289.575678 
L 305.363011 290.933162 
L 321.611987 292.320834 
L 341.760718 293.808884 
L 366.784141 295.425052 
L 391.482585 296.858649 
L 391.482585 296.858649 
" clip-path="url(#p014f37bd6a)" style="fill: none; stroke: #d62728; stroke-width: 1.5; stroke-linecap: square"/>
   </g>
   <g id="patch_9">
    <path d="M 50.595313 307.872 
L 50.595313 186.912 
" style="fill: none; stroke: #000000; stroke-width: 0.8; stroke-linejoin: miter; stroke-linecap: square"/>
   </g>
   <g id="patch_10">
    <path d="M 407.715312 307.872 
L 407.715312 186.912 
" style="fill: none; stroke: #000000; stroke-width: 0.8; stroke-linejoin: miter; stroke-linecap: square"/>
   </g>
   <g id="patch_11">
    <path d="M 50.595312 307.872 
L 407.715312 307.872 
" style="fill: none; stroke: #000000; stroke-width: 0.8; stroke-linejoin: miter; stroke-linecap: square"/>
   </g>
   <g id="patch_12">
    <path d="M 50.595312 186.912 
L 407.715312 186.912 
" style="fill: none; stroke: #000000; stroke-width: 0.8; stroke-linejoin: miter; stroke-linecap: square"/>
   </g>
  </g>
  <g id="text_20">
   <!-- S21 resonator spectroscopy -->
   <g transform="translate(139.610938 16.318125) scale(0.12 -0.12)">
    <defs>
     <path id="DejaVuSans-73" d="M 2834 3397 
L 2834 2853 
Q 2591 2978 2328 3040 
Q 2066 3103 1784 3103 
Q 1356 3103 1142 2972 
Q 928 2841 928 2578 
Q 928 2378 1081 2264 
Q 1234 2150 1697 2047 
L 1894 2003 
Q 2506 1872 2764 1633 
Q 3022 1394 3022 966 
Q 3022 478 2636 193 
Q 2250 -91 1575 -91 
Q 1294 -91 989 -36 
Q 684 19 347 128 
L 347 722 
Q 666 556 975 473 
Q 1284 391 1588 391 
Q 1994 391 2212 530 
Q 2431 669 2431 922 
Q 2431 1156 2273 1281 
Q 2116 1406 1581 1522 
L 1381 1569 
Q 847 1681 609 1914 
Q 372 2147 372 2553 
Q 372 3047 722 3315 
Q 1072 3584 1716 3584 
Q 2034 3584 2315 3537 
Q 2597 3491 2834 3397 
z
" transform="scale(0.015625)"/>
     <path id="DejaVuSans-6f" d="M 1959 3097 
Q 1497 3097 1228 2736 
Q 959 2375 959 1747 
Q 959 1119 1226 758 
Q 1494 397 1959 397 
Q 2419 397 2687 759 
Q 2956 1122 2956 1747 
Q 2956 2369 2687 2733 
Q 2419 3097 1959 3097 
z
M 1959 3584 
Q 2709 3584 3137 3096 
Q 3566 2609 3566 1747 
Q 3566 888 3137 398 
Q 2709 -91 1959 -91 
Q 1206 -91 779 398 
Q 353 888 353 1747 
Q 353 2609 779 3096 
Q 1206 3584 1959 3584 
z
" transform="scale(0.015625)"/>
     <path id="DejaVuSans-74" d="M 1172 4494 
L 1172 3500 
L 2356 3500 
L 2356 3053 
L 1172 3053 
L 1172 1153 
Q 1172 725 1289 603 
Q 1406 481 1766 481 
L 2356 481 
L 2356 0 
L 1766 0 
Q 1100 0 847 248 
Q 594 497 594 1153 
L 594 3053 
L 172 3053 
L 172 3500 
L 594 3500 
L 594 4494 
L 1172 4494 
z
" transform="scale(0.015625)"/>
     <path id="DejaVuSans-70" d="M 1159 525 
L 1159 -1331 
L 581 -1331 
L 581 3500 
L 1159 3500 
L 1159 2969 
Q 1341 3281 1617 3432 
Q 1894 3584 2278 3584 
Q 2916 3584 3314 3078 
Q 3713 2572 3713 1747 
Q 3713 922 3314 415 
Q 2916 -91 2278 -91 
Q 1894 -91 1617 61 
Q 1341 213 1159 525 
z
M 3116 1747 
Q 3116 2381 2855 2742 
Q 2594 3103 2138 3103 
Q 1681 3103 1420 2742 
Q 1159 2381 1159 1747 
Q 1159 1113 1420 752 
Q 1681 391 2138 391 
Q 2594 391 2855 752 
Q 3116 1113 3116 1747 
z
" transform="scale(0.015625)"/>
    </defs>
    <use xlink:href="#DejaVuSans-53"/>
    <use xlink:href="#DejaVuSans-32" x="63.476562"/>
    <use xlink:href="#DejaVuSans-31" x="127.099609"/>
    <use xlink:href="#DejaVuSans-20" x="190.722656"/>
    <use xlink:href="#DejaVuSans-72" x="222.509766"/>
    <use xlink:href="#DejaVuSans-65" x="261.373047"/>
    <use xlink:href="#DejaVuSans-73" x="322.896484"/>
    <use xlink:href="#DejaVuSans-6f" x="374.996094"/>
    <use xlink:href="#DejaVuSans-6e" x="436.177734"/>
    <use xlink:href="#DejaVuSans-61" x="499.556641"/>
    <use xlink:href="#DejaVuSans-74" x="560.835938"/>
    <use xlink:href="#DejaVuSans-6f" x="600.044922"/>
    <use xlink:href="#DejaVuSans-72" x="661.226562"/>
    <use xlink:href="#DejaVuSans-20" x="702.339844"/>
    <use xlink:href="#DejaVuSans-73" x="734.126953"/>
    <use xlink:href="#DejaVuSans-70" x="786.226562"/>
    <use xlink:href="#DejaVuSans-65" x="849.703125"/>
    <use xlink:href="#DejaVuSans-63" x="911.226562"/>
    <use xlink:href="#DejaVuSans-74" x="966.207031"/>
    <use xlink:href="#DejaVuSans-72" x="1005.416016"/>
    <use xlink:href="#DejaVuSans-6f" x="1044.279297"/>
    <use xlink:href="#DejaVuSans-73" x="1105.460938"/>
    <use xlink:href="#DejaVuSans-63" x="1157.560547"/>
    <use xlink:href="#DejaVuSans-6f" x="1212.541016"/>
    <use xlink:href="#DejaVuSans-70" x="1273.722656"/>
    <use xlink:href="#DejaVuSans-79" x="1337.199219"/>
   </g>
   <!-- tuid: 20231227-193347-426-f6302e -->
   <g transform="translate(115.370938 29.7555) scale(0.12 -0.12)">
    <defs>
     <path id="DejaVuSans-69" d="M 603 3500 
L 1178 3500 
L 1178 0 
L 603 0 
L 603 3500 
z
M 603 4863 
L 1178 4863 
L 1178 4134 
L 603 4134 
L 603 4863 
z
" transform="scale(0.015625)"/>
     <path id="DejaVuSans-66" d="M 2375 4863 
L 2375 4384 
L 1825 4384 
Q 1516 4384 1395 4259 
Q 1275 4134 1275 3809 
L 1275 3500 
L 2222 3500 
L 2222 3053 
L 1275 3053 
L 1275 0 
L 697 0 
L 697 3053 
L 147 3053 
L 147 3500 
L 697 3500 
L 697 3744 
Q 697 4328 969 4595 
Q 1241 4863 1831 4863 
L 2375 4863 
z
" transform="scale(0.015625)"/>
    </defs>
    <use xlink:href="#DejaVuSans-74"/>
    <use xlink:href="#DejaVuSans-75" x="39.208984"/>
    <use xlink:href="#DejaVuSans-69" x="102.587891"/>
    <use xlink:href="#DejaVuSans-64" x="130.371094"/>
    <use xlink:href="#DejaVuSans-3a" x="193.847656"/>
    <use xlink:href="#DejaVuSans-20" x="227.539062"/>
    <use xlink:href="#DejaVuSans-32" x="259.326172"/>
    <use xlink:href="#DejaVuSans-30" x="322.949219"/>
    <use xlink:href="#DejaVuSans-32" x="386.572266"/>
    <use xlink:href="#DejaVuSans-33" x="450.195312"/>
    <use xlink:href="#DejaVuSans-31" x="513.818359"/>
    <use xlink:href="#DejaVuSans-32" x="577.441406"/>
    <use xlink:href="#DejaVuSans-32" x="641.064453"/>
    <use xlink:href="#DejaVuSans-37" x="704.6875"/>
    <use xlink:href="#DejaVuSans-2d" x="768.310547"/>
    <use xlink:href="#DejaVuSans-31" x="804.394531"/>
    <use xlink:href="#DejaVuSans-39" x="868.017578"/>
    <use xlink:href="#DejaVuSans-33" x="931.640625"/>
    <use xlink:href="#DejaVuSans-33" x="995.263672"/>
    <use xlink:href="#DejaVuSans-34" x="1058.886719"/>
    <use xlink:href="#DejaVuSans-37" x="1122.509766"/>
    <use xlink:href="#DejaVuSans-2d" x="1186.132812"/>
    <use xlink:href="#DejaVuSans-34" x="1222.216797"/>
    <use xlink:href="#DejaVuSans-32" x="1285.839844"/>
    <use xlink:href="#DejaVuSans-36" x="1349.462891"/>
    <use xlink:href="#DejaVuSans-2d" x="1413.085938"/>
    <use xlink:href="#DejaVuSans-66" x="1449.169922"/>
    <use xlink:href="#DejaVuSans-36" x="1484.375"/>
    <use xlink:href="#DejaVuSans-33" x="1547.998047"/>
    <use xlink:href="#DejaVuSans-30" x="1611.621094"/>
    <use xlink:href="#DejaVuSans-32" x="1675.244141"/>
    <use xlink:href="#DejaVuSans-65" x="1738.867188"/>
   </g>
  </g>
 </g>
 <defs>
  <clipPath id="pb6a410fe28">
   <rect x="50.595313" y="41.76" width="357.12" height="120.96"/>
  </clipPath>
  <clipPath id="p014f37bd6a">
   <rect x="50.595313" y="186.912" width="357.12" height="120.96"/>
  </clipPath>
 </defs>
</svg>
