<?xml version="1.0" encoding="utf-8" standalone="no"?>
<!DOCTYPE svg PUBLIC "-//W3C//DTD SVG 1.1//EN"
  "http://www.w3.org/Graphics/SVG/1.1/DTD/svg11.dtd">
<svg xmlns:xlink="http://www.w3.org/1999/xlink" width="617.6635pt" height="345.42825pt" viewBox="0 0 617.6635 345.42825" xmlns="http://www.w3.org/2000/svg" version="1.1">
 <metadata>
  <rdf:RDF xmlns:dc="http://purl.org/dc/elements/1.1/" xmlns:cc="http://creativecommons.org/ns#" xmlns:rdf="http://www.w3.org/1999/02/22-rdf-syntax-ns#">
   <cc:Work>
    <dc:type rdf:resource="http://purl.org/dc/dcmitype/StillImage"/>
    <dc:date>2023-12-25T16:38:40.305786</dc:date>
    <dc:format>image/svg+xml</dc:format>
    <dc:creator>
     <cc:Agent>
      <dc:title>Matplotlib v3.8.2, https://matplotlib.org/</dc:title>
     </cc:Agent>
    </dc:creator>
   </cc:Work>
  </rdf:RDF>
 </metadata>
 <defs>
  <style type="text/css">*{stroke-linejoin: round; stroke-linecap: butt}</style>
 </defs>
 <g id="figure_1">
  <g id="patch_1">
   <path d="M 0 345.42825 
L 617.6635 345.42825 
L 617.6635 -0 
L 0 -0 
L 0 345.42825 
z
" style="fill: none; opacity: 0"/>
  </g>
  <g id="axes_1">
   <g id="patch_2">
    <path d="M 47.3875 307.872 
L 404.5075 307.872 
L 404.5075 41.76 
L 47.3875 41.76 
z
" style="fill: #ffffff"/>
   </g>
   <g id="matplotlib.axis_1">
    <g id="xtick_1">
     <g id="line2d_1">
      <defs>
       <path id="m5019efb2fe" d="M 0 0 
L 0 3.5 
" style="stroke: #000000; stroke-width: 0.8"/>
      </defs>
      <g>
       <use xlink:href="#m5019efb2fe" x="62.765873" y="307.872" style="stroke: #000000; stroke-width: 0.8"/>
      </g>
     </g>
     <g id="text_1">
      <!-- 0 -->
      <g transform="translate(59.584623 322.470438) scale(0.1 -0.1)">
       <defs>
        <path id="DejaVuSans-30" d="M 2034 4250 
Q 1547 4250 1301 3770 
Q 1056 3291 1056 2328 
Q 1056 1369 1301 889 
Q 1547 409 2034 409 
Q 2525 409 2770 889 
Q 3016 1369 3016 2328 
Q 3016 3291 2770 3770 
Q 2525 4250 2034 4250 
z
M 2034 4750 
Q 2819 4750 3233 4129 
Q 3647 3509 3647 2328 
Q 3647 1150 3233 529 
Q 2819 -91 2034 -91 
Q 1250 -91 836 529 
Q 422 1150 422 2328 
Q 422 3509 836 4129 
Q 1250 4750 2034 4750 
z
" transform="scale(0.015625)"/>
       </defs>
       <use xlink:href="#DejaVuSans-30"/>
      </g>
     </g>
    </g>
    <g id="xtick_2">
     <g id="line2d_2">
      <g>
       <use xlink:href="#m5019efb2fe" x="105.483577" y="307.872" style="stroke: #000000; stroke-width: 0.8"/>
      </g>
     </g>
     <g id="text_2">
      <!-- 2 -->
      <g transform="translate(102.302327 322.470438) scale(0.1 -0.1)">
       <defs>
        <path id="DejaVuSans-32" d="M 1228 531 
L 3431 531 
L 3431 0 
L 469 0 
L 469 531 
Q 828 903 1448 1529 
Q 2069 2156 2228 2338 
Q 2531 2678 2651 2914 
Q 2772 3150 2772 3378 
Q 2772 3750 2511 3984 
Q 2250 4219 1831 4219 
Q 1534 4219 1204 4116 
Q 875 4013 500 3803 
L 500 4441 
Q 881 4594 1212 4672 
Q 1544 4750 1819 4750 
Q 2544 4750 2975 4387 
Q 3406 4025 3406 3419 
Q 3406 3131 3298 2873 
Q 3191 2616 2906 2266 
Q 2828 2175 2409 1742 
Q 1991 1309 1228 531 
z
" transform="scale(0.015625)"/>
       </defs>
       <use xlink:href="#DejaVuSans-32"/>
      </g>
     </g>
    </g>
    <g id="xtick_3">
     <g id="line2d_3">
      <g>
       <use xlink:href="#m5019efb2fe" x="148.20128" y="307.872" style="stroke: #000000; stroke-width: 0.8"/>
      </g>
     </g>
     <g id="text_3">
      <!-- 4 -->
      <g transform="translate(145.02003 322.470438) scale(0.1 -0.1)">
       <defs>
        <path id="DejaVuSans-34" d="M 2419 4116 
L 825 1625 
L 2419 1625 
L 2419 4116 
z
M 2253 4666 
L 3047 4666 
L 3047 1625 
L 3713 1625 
L 3713 1100 
L 3047 1100 
L 3047 0 
L 2419 0 
L 2419 1100 
L 313 1100 
L 313 1709 
L 2253 4666 
z
" transform="scale(0.015625)"/>
       </defs>
       <use xlink:href="#DejaVuSans-34"/>
      </g>
     </g>
    </g>
    <g id="xtick_4">
     <g id="line2d_4">
      <g>
       <use xlink:href="#m5019efb2fe" x="190.918983" y="307.872" style="stroke: #000000; stroke-width: 0.8"/>
      </g>
     </g>
     <g id="text_4">
      <!-- 6 -->
      <g transform="translate(187.737733 322.470438) scale(0.1 -0.1)">
       <defs>
        <path id="DejaVuSans-36" d="M 2113 2584 
Q 1688 2584 1439 2293 
Q 1191 2003 1191 1497 
Q 1191 994 1439 701 
Q 1688 409 2113 409 
Q 2538 409 2786 701 
Q 3034 994 3034 1497 
Q 3034 2003 2786 2293 
Q 2538 2584 2113 2584 
z
M 3366 4563 
L 3366 3988 
Q 3128 4100 2886 4159 
Q 2644 4219 2406 4219 
Q 1781 4219 1451 3797 
Q 1122 3375 1075 2522 
Q 1259 2794 1537 2939 
Q 1816 3084 2150 3084 
Q 2853 3084 3261 2657 
Q 3669 2231 3669 1497 
Q 3669 778 3244 343 
Q 2819 -91 2113 -91 
Q 1303 -91 875 529 
Q 447 1150 447 2328 
Q 447 3434 972 4092 
Q 1497 4750 2381 4750 
Q 2619 4750 2861 4703 
Q 3103 4656 3366 4563 
z
" transform="scale(0.015625)"/>
       </defs>
       <use xlink:href="#DejaVuSans-36"/>
      </g>
     </g>
    </g>
    <g id="xtick_5">
     <g id="line2d_5">
      <g>
       <use xlink:href="#m5019efb2fe" x="233.636687" y="307.872" style="stroke: #000000; stroke-width: 0.8"/>
      </g>
     </g>
     <g id="text_5">
      <!-- 8 -->
      <g transform="translate(230.455437 322.470438) scale(0.1 -0.1)">
       <defs>
        <path id="DejaVuSans-38" d="M 2034 2216 
Q 1584 2216 1326 1975 
Q 1069 1734 1069 1313 
Q 1069 891 1326 650 
Q 1584 409 2034 409 
Q 2484 409 2743 651 
Q 3003 894 3003 1313 
Q 3003 1734 2745 1975 
Q 2488 2216 2034 2216 
z
M 1403 2484 
Q 997 2584 770 2862 
Q 544 3141 544 3541 
Q 544 4100 942 4425 
Q 1341 4750 2034 4750 
Q 2731 4750 3128 4425 
Q 3525 4100 3525 3541 
Q 3525 3141 3298 2862 
Q 3072 2584 2669 2484 
Q 3125 2378 3379 2068 
Q 3634 1759 3634 1313 
Q 3634 634 3220 271 
Q 2806 -91 2034 -91 
Q 1263 -91 848 271 
Q 434 634 434 1313 
Q 434 1759 690 2068 
Q 947 2378 1403 2484 
z
M 1172 3481 
Q 1172 3119 1398 2916 
Q 1625 2713 2034 2713 
Q 2441 2713 2670 2916 
Q 2900 3119 2900 3481 
Q 2900 3844 2670 4047 
Q 2441 4250 2034 4250 
Q 1625 4250 1398 4047 
Q 1172 3844 1172 3481 
z
" transform="scale(0.015625)"/>
       </defs>
       <use xlink:href="#DejaVuSans-38"/>
      </g>
     </g>
    </g>
    <g id="xtick_6">
     <g id="line2d_6">
      <g>
       <use xlink:href="#m5019efb2fe" x="276.35439" y="307.872" style="stroke: #000000; stroke-width: 0.8"/>
      </g>
     </g>
     <g id="text_6">
      <!-- 10 -->
      <g transform="translate(269.99189 322.470438) scale(0.1 -0.1)">
       <defs>
        <path id="DejaVuSans-31" d="M 794 531 
L 1825 531 
L 1825 4091 
L 703 3866 
L 703 4441 
L 1819 4666 
L 2450 4666 
L 2450 531 
L 3481 531 
L 3481 0 
L 794 0 
L 794 531 
z
" transform="scale(0.015625)"/>
       </defs>
       <use xlink:href="#DejaVuSans-31"/>
       <use xlink:href="#DejaVuSans-30" x="63.623047"/>
      </g>
     </g>
    </g>
    <g id="xtick_7">
     <g id="line2d_7">
      <g>
       <use xlink:href="#m5019efb2fe" x="319.072093" y="307.872" style="stroke: #000000; stroke-width: 0.8"/>
      </g>
     </g>
     <g id="text_7">
      <!-- 12 -->
      <g transform="translate(312.709593 322.470438) scale(0.1 -0.1)">
       <use xlink:href="#DejaVuSans-31"/>
       <use xlink:href="#DejaVuSans-32" x="63.623047"/>
      </g>
     </g>
    </g>
    <g id="xtick_8">
     <g id="line2d_8">
      <g>
       <use xlink:href="#m5019efb2fe" x="361.789797" y="307.872" style="stroke: #000000; stroke-width: 0.8"/>
      </g>
     </g>
     <g id="text_8">
      <!-- 14 -->
      <g transform="translate(355.427297 322.470438) scale(0.1 -0.1)">
       <use xlink:href="#DejaVuSans-31"/>
       <use xlink:href="#DejaVuSans-34" x="63.623047"/>
      </g>
     </g>
    </g>
    <g id="xtick_9">
     <g id="line2d_9">
      <g>
       <use xlink:href="#m5019efb2fe" x="404.5075" y="307.872" style="stroke: #000000; stroke-width: 0.8"/>
      </g>
     </g>
     <g id="text_9">
      <!-- 16 -->
      <g transform="translate(398.145 322.470438) scale(0.1 -0.1)">
       <use xlink:href="#DejaVuSans-31"/>
       <use xlink:href="#DejaVuSans-36" x="63.623047"/>
      </g>
     </g>
    </g>
    <g id="text_10">
     <!-- Time [μs] -->
     <g transform="translate(202.437344 336.148562) scale(0.1 -0.1)">
      <defs>
       <path id="DejaVuSans-54" d="M -19 4666 
L 3928 4666 
L 3928 4134 
L 2272 4134 
L 2272 0 
L 1638 0 
L 1638 4134 
L -19 4134 
L -19 4666 
z
" transform="scale(0.015625)"/>
       <path id="DejaVuSans-69" d="M 603 3500 
L 1178 3500 
L 1178 0 
L 603 0 
L 603 3500 
z
M 603 4863 
L 1178 4863 
L 1178 4134 
L 603 4134 
L 603 4863 
z
" transform="scale(0.015625)"/>
       <path id="DejaVuSans-6d" d="M 3328 2828 
Q 3544 3216 3844 3400 
Q 4144 3584 4550 3584 
Q 5097 3584 5394 3201 
Q 5691 2819 5691 2113 
L 5691 0 
L 5113 0 
L 5113 2094 
Q 5113 2597 4934 2840 
Q 4756 3084 4391 3084 
Q 3944 3084 3684 2787 
Q 3425 2491 3425 1978 
L 3425 0 
L 2847 0 
L 2847 2094 
Q 2847 2600 2669 2842 
Q 2491 3084 2119 3084 
Q 1678 3084 1418 2786 
Q 1159 2488 1159 1978 
L 1159 0 
L 581 0 
L 581 3500 
L 1159 3500 
L 1159 2956 
Q 1356 3278 1631 3431 
Q 1906 3584 2284 3584 
Q 2666 3584 2933 3390 
Q 3200 3197 3328 2828 
z
" transform="scale(0.015625)"/>
       <path id="DejaVuSans-65" d="M 3597 1894 
L 3597 1613 
L 953 1613 
Q 991 1019 1311 708 
Q 1631 397 2203 397 
Q 2534 397 2845 478 
Q 3156 559 3463 722 
L 3463 178 
Q 3153 47 2828 -22 
Q 2503 -91 2169 -91 
Q 1331 -91 842 396 
Q 353 884 353 1716 
Q 353 2575 817 3079 
Q 1281 3584 2069 3584 
Q 2775 3584 3186 3129 
Q 3597 2675 3597 1894 
z
M 3022 2063 
Q 3016 2534 2758 2815 
Q 2500 3097 2075 3097 
Q 1594 3097 1305 2825 
Q 1016 2553 972 2059 
L 3022 2063 
z
" transform="scale(0.015625)"/>
       <path id="DejaVuSans-20" transform="scale(0.015625)"/>
       <path id="DejaVuSans-5b" d="M 550 4863 
L 1875 4863 
L 1875 4416 
L 1125 4416 
L 1125 -397 
L 1875 -397 
L 1875 -844 
L 550 -844 
L 550 4863 
z
" transform="scale(0.015625)"/>
       <path id="DejaVuSans-3bc" d="M 544 -1331 
L 544 3500 
L 1119 3500 
L 1119 1325 
Q 1119 872 1334 640 
Q 1550 409 1972 409 
Q 2434 409 2667 671 
Q 2900 934 2900 1459 
L 2900 3500 
L 3475 3500 
L 3475 806 
Q 3475 619 3529 530 
Q 3584 441 3700 441 
Q 3728 441 3778 458 
Q 3828 475 3916 513 
L 3916 50 
Q 3788 -22 3673 -56 
Q 3559 -91 3450 -91 
Q 3234 -91 3106 31 
Q 2978 153 2931 403 
Q 2775 156 2548 32 
Q 2322 -91 2016 -91 
Q 1697 -91 1473 31 
Q 1250 153 1119 397 
L 1119 -1331 
L 544 -1331 
z
" transform="scale(0.015625)"/>
       <path id="DejaVuSans-73" d="M 2834 3397 
L 2834 2853 
Q 2591 2978 2328 3040 
Q 2066 3103 1784 3103 
Q 1356 3103 1142 2972 
Q 928 2841 928 2578 
Q 928 2378 1081 2264 
Q 1234 2150 1697 2047 
L 1894 2003 
Q 2506 1872 2764 1633 
Q 3022 1394 3022 966 
Q 3022 478 2636 193 
Q 2250 -91 1575 -91 
Q 1294 -91 989 -36 
Q 684 19 347 128 
L 347 722 
Q 666 556 975 473 
Q 1284 391 1588 391 
Q 1994 391 2212 530 
Q 2431 669 2431 922 
Q 2431 1156 2273 1281 
Q 2116 1406 1581 1522 
L 1381 1569 
Q 847 1681 609 1914 
Q 372 2147 372 2553 
Q 372 3047 722 3315 
Q 1072 3584 1716 3584 
Q 2034 3584 2315 3537 
Q 2597 3491 2834 3397 
z
" transform="scale(0.015625)"/>
       <path id="DejaVuSans-5d" d="M 1947 4863 
L 1947 -844 
L 622 -844 
L 622 -397 
L 1369 -397 
L 1369 4416 
L 622 4416 
L 622 4863 
L 1947 4863 
z
" transform="scale(0.015625)"/>
      </defs>
      <use xlink:href="#DejaVuSans-54"/>
      <use xlink:href="#DejaVuSans-69" x="57.958984"/>
      <use xlink:href="#DejaVuSans-6d" x="85.742188"/>
      <use xlink:href="#DejaVuSans-65" x="183.154297"/>
      <use xlink:href="#DejaVuSans-20" x="244.677734"/>
      <use xlink:href="#DejaVuSans-5b" x="276.464844"/>
      <use xlink:href="#DejaVuSans-3bc" x="315.478516"/>
      <use xlink:href="#DejaVuSans-73" x="379.101562"/>
      <use xlink:href="#DejaVuSans-5d" x="431.201172"/>
     </g>
    </g>
   </g>
   <g id="matplotlib.axis_2">
    <g id="ytick_1">
     <g id="line2d_10">
      <defs>
       <path id="m4e86d358f8" d="M 0 0 
L -3.5 0 
" style="stroke: #000000; stroke-width: 0.8"/>
      </defs>
      <g>
       <use xlink:href="#m4e86d358f8" x="47.3875" y="289.930841" style="stroke: #000000; stroke-width: 0.8"/>
      </g>
     </g>
     <g id="text_11">
      <!-- 650 -->
      <g transform="translate(21.3 293.73006) scale(0.1 -0.1)">
       <defs>
        <path id="DejaVuSans-35" d="M 691 4666 
L 3169 4666 
L 3169 4134 
L 1269 4134 
L 1269 2991 
Q 1406 3038 1543 3061 
Q 1681 3084 1819 3084 
Q 2600 3084 3056 2656 
Q 3513 2228 3513 1497 
Q 3513 744 3044 326 
Q 2575 -91 1722 -91 
Q 1428 -91 1123 -41 
Q 819 9 494 109 
L 494 744 
Q 775 591 1075 516 
Q 1375 441 1709 441 
Q 2250 441 2565 725 
Q 2881 1009 2881 1497 
Q 2881 1984 2565 2268 
Q 2250 2553 1709 2553 
Q 1456 2553 1204 2497 
Q 953 2441 691 2322 
L 691 4666 
z
" transform="scale(0.015625)"/>
       </defs>
       <use xlink:href="#DejaVuSans-36"/>
       <use xlink:href="#DejaVuSans-35" x="63.623047"/>
       <use xlink:href="#DejaVuSans-30" x="127.246094"/>
      </g>
     </g>
    </g>
    <g id="ytick_2">
     <g id="line2d_11">
      <g>
       <use xlink:href="#m4e86d358f8" x="47.3875" y="243.848638" style="stroke: #000000; stroke-width: 0.8"/>
      </g>
     </g>
     <g id="text_12">
      <!-- 700 -->
      <g transform="translate(21.3 247.647856) scale(0.1 -0.1)">
       <defs>
        <path id="DejaVuSans-37" d="M 525 4666 
L 3525 4666 
L 3525 4397 
L 1831 0 
L 1172 0 
L 2766 4134 
L 525 4134 
L 525 4666 
z
" transform="scale(0.015625)"/>
       </defs>
       <use xlink:href="#DejaVuSans-37"/>
       <use xlink:href="#DejaVuSans-30" x="63.623047"/>
       <use xlink:href="#DejaVuSans-30" x="127.246094"/>
      </g>
     </g>
    </g>
    <g id="ytick_3">
     <g id="line2d_12">
      <g>
       <use xlink:href="#m4e86d358f8" x="47.3875" y="197.766434" style="stroke: #000000; stroke-width: 0.8"/>
      </g>
     </g>
     <g id="text_13">
      <!-- 750 -->
      <g transform="translate(21.3 201.565653) scale(0.1 -0.1)">
       <use xlink:href="#DejaVuSans-37"/>
       <use xlink:href="#DejaVuSans-35" x="63.623047"/>
       <use xlink:href="#DejaVuSans-30" x="127.246094"/>
      </g>
     </g>
    </g>
    <g id="ytick_4">
     <g id="line2d_13">
      <g>
       <use xlink:href="#m4e86d358f8" x="47.3875" y="151.68423" style="stroke: #000000; stroke-width: 0.8"/>
      </g>
     </g>
     <g id="text_14">
      <!-- 800 -->
      <g transform="translate(21.3 155.483449) scale(0.1 -0.1)">
       <use xlink:href="#DejaVuSans-38"/>
       <use xlink:href="#DejaVuSans-30" x="63.623047"/>
       <use xlink:href="#DejaVuSans-30" x="127.246094"/>
      </g>
     </g>
    </g>
    <g id="ytick_5">
     <g id="line2d_14">
      <g>
       <use xlink:href="#m4e86d358f8" x="47.3875" y="105.602027" style="stroke: #000000; stroke-width: 0.8"/>
      </g>
     </g>
     <g id="text_15">
      <!-- 850 -->
      <g transform="translate(21.3 109.401245) scale(0.1 -0.1)">
       <use xlink:href="#DejaVuSans-38"/>
       <use xlink:href="#DejaVuSans-35" x="63.623047"/>
       <use xlink:href="#DejaVuSans-30" x="127.246094"/>
      </g>
     </g>
    </g>
    <g id="ytick_6">
     <g id="line2d_15">
      <g>
       <use xlink:href="#m4e86d358f8" x="47.3875" y="59.519823" style="stroke: #000000; stroke-width: 0.8"/>
      </g>
     </g>
     <g id="text_16">
      <!-- 900 -->
      <g transform="translate(21.3 63.319042) scale(0.1 -0.1)">
       <defs>
        <path id="DejaVuSans-39" d="M 703 97 
L 703 672 
Q 941 559 1184 500 
Q 1428 441 1663 441 
Q 2288 441 2617 861 
Q 2947 1281 2994 2138 
Q 2813 1869 2534 1725 
Q 2256 1581 1919 1581 
Q 1219 1581 811 2004 
Q 403 2428 403 3163 
Q 403 3881 828 4315 
Q 1253 4750 1959 4750 
Q 2769 4750 3195 4129 
Q 3622 3509 3622 2328 
Q 3622 1225 3098 567 
Q 2575 -91 1691 -91 
Q 1453 -91 1209 -44 
Q 966 3 703 97 
z
M 1959 2075 
Q 2384 2075 2632 2365 
Q 2881 2656 2881 3163 
Q 2881 3666 2632 3958 
Q 2384 4250 1959 4250 
Q 1534 4250 1286 3958 
Q 1038 3666 1038 3163 
Q 1038 2656 1286 2365 
Q 1534 2075 1959 2075 
z
" transform="scale(0.015625)"/>
       </defs>
       <use xlink:href="#DejaVuSans-39"/>
       <use xlink:href="#DejaVuSans-30" x="63.623047"/>
       <use xlink:href="#DejaVuSans-30" x="127.246094"/>
      </g>
     </g>
    </g>
    <g id="text_17">
     <!-- Magnitude |$S_{21}|$ [μV] -->
     <g transform="translate(14.9 226.166) rotate(-90) scale(0.1 -0.1)">
      <defs>
       <path id="DejaVuSans-4d" d="M 628 4666 
L 1569 4666 
L 2759 1491 
L 3956 4666 
L 4897 4666 
L 4897 0 
L 4281 0 
L 4281 4097 
L 3078 897 
L 2444 897 
L 1241 4097 
L 1241 0 
L 628 0 
L 628 4666 
z
" transform="scale(0.015625)"/>
       <path id="DejaVuSans-61" d="M 2194 1759 
Q 1497 1759 1228 1600 
Q 959 1441 959 1056 
Q 959 750 1161 570 
Q 1363 391 1709 391 
Q 2188 391 2477 730 
Q 2766 1069 2766 1631 
L 2766 1759 
L 2194 1759 
z
M 3341 1997 
L 3341 0 
L 2766 0 
L 2766 531 
Q 2569 213 2275 61 
Q 1981 -91 1556 -91 
Q 1019 -91 701 211 
Q 384 513 384 1019 
Q 384 1609 779 1909 
Q 1175 2209 1959 2209 
L 2766 2209 
L 2766 2266 
Q 2766 2663 2505 2880 
Q 2244 3097 1772 3097 
Q 1472 3097 1187 3025 
Q 903 2953 641 2809 
L 641 3341 
Q 956 3463 1253 3523 
Q 1550 3584 1831 3584 
Q 2591 3584 2966 3190 
Q 3341 2797 3341 1997 
z
" transform="scale(0.015625)"/>
       <path id="DejaVuSans-67" d="M 2906 1791 
Q 2906 2416 2648 2759 
Q 2391 3103 1925 3103 
Q 1463 3103 1205 2759 
Q 947 2416 947 1791 
Q 947 1169 1205 825 
Q 1463 481 1925 481 
Q 2391 481 2648 825 
Q 2906 1169 2906 1791 
z
M 3481 434 
Q 3481 -459 3084 -895 
Q 2688 -1331 1869 -1331 
Q 1566 -1331 1297 -1286 
Q 1028 -1241 775 -1147 
L 775 -588 
Q 1028 -725 1275 -790 
Q 1522 -856 1778 -856 
Q 2344 -856 2625 -561 
Q 2906 -266 2906 331 
L 2906 616 
Q 2728 306 2450 153 
Q 2172 0 1784 0 
Q 1141 0 747 490 
Q 353 981 353 1791 
Q 353 2603 747 3093 
Q 1141 3584 1784 3584 
Q 2172 3584 2450 3431 
Q 2728 3278 2906 2969 
L 2906 3500 
L 3481 3500 
L 3481 434 
z
" transform="scale(0.015625)"/>
       <path id="DejaVuSans-6e" d="M 3513 2113 
L 3513 0 
L 2938 0 
L 2938 2094 
Q 2938 2591 2744 2837 
Q 2550 3084 2163 3084 
Q 1697 3084 1428 2787 
Q 1159 2491 1159 1978 
L 1159 0 
L 581 0 
L 581 3500 
L 1159 3500 
L 1159 2956 
Q 1366 3272 1645 3428 
Q 1925 3584 2291 3584 
Q 2894 3584 3203 3211 
Q 3513 2838 3513 2113 
z
" transform="scale(0.015625)"/>
       <path id="DejaVuSans-74" d="M 1172 4494 
L 1172 3500 
L 2356 3500 
L 2356 3053 
L 1172 3053 
L 1172 1153 
Q 1172 725 1289 603 
Q 1406 481 1766 481 
L 2356 481 
L 2356 0 
L 1766 0 
Q 1100 0 847 248 
Q 594 497 594 1153 
L 594 3053 
L 172 3053 
L 172 3500 
L 594 3500 
L 594 4494 
L 1172 4494 
z
" transform="scale(0.015625)"/>
       <path id="DejaVuSans-75" d="M 544 1381 
L 544 3500 
L 1119 3500 
L 1119 1403 
Q 1119 906 1312 657 
Q 1506 409 1894 409 
Q 2359 409 2629 706 
Q 2900 1003 2900 1516 
L 2900 3500 
L 3475 3500 
L 3475 0 
L 2900 0 
L 2900 538 
Q 2691 219 2414 64 
Q 2138 -91 1772 -91 
Q 1169 -91 856 284 
Q 544 659 544 1381 
z
M 1991 3584 
L 1991 3584 
z
" transform="scale(0.015625)"/>
       <path id="DejaVuSans-64" d="M 2906 2969 
L 2906 4863 
L 3481 4863 
L 3481 0 
L 2906 0 
L 2906 525 
Q 2725 213 2448 61 
Q 2172 -91 1784 -91 
Q 1150 -91 751 415 
Q 353 922 353 1747 
Q 353 2572 751 3078 
Q 1150 3584 1784 3584 
Q 2172 3584 2448 3432 
Q 2725 3281 2906 2969 
z
M 947 1747 
Q 947 1113 1208 752 
Q 1469 391 1925 391 
Q 2381 391 2643 752 
Q 2906 1113 2906 1747 
Q 2906 2381 2643 2742 
Q 2381 3103 1925 3103 
Q 1469 3103 1208 2742 
Q 947 2381 947 1747 
z
" transform="scale(0.015625)"/>
       <path id="DejaVuSans-7c" d="M 1344 4891 
L 1344 -1509 
L 813 -1509 
L 813 4891 
L 1344 4891 
z
" transform="scale(0.015625)"/>
       <path id="DejaVuSans-Oblique-53" d="M 3859 4513 
L 3738 3897 
Q 3422 4066 3111 4152 
Q 2800 4238 2509 4238 
Q 1944 4238 1609 3991 
Q 1275 3744 1275 3334 
Q 1275 3109 1398 2989 
Q 1522 2869 2034 2731 
L 2413 2638 
Q 3053 2472 3303 2217 
Q 3553 1963 3553 1503 
Q 3553 797 2998 353 
Q 2444 -91 1538 -91 
Q 1166 -91 791 -17 
Q 416 56 38 206 
L 166 856 
Q 513 641 861 531 
Q 1209 422 1556 422 
Q 2147 422 2503 684 
Q 2859 947 2859 1369 
Q 2859 1650 2717 1795 
Q 2575 1941 2106 2059 
L 1728 2156 
Q 1081 2325 845 2545 
Q 609 2766 609 3163 
Q 609 3859 1145 4304 
Q 1681 4750 2541 4750 
Q 2875 4750 3203 4690 
Q 3531 4631 3859 4513 
z
" transform="scale(0.015625)"/>
       <path id="DejaVuSans-56" d="M 1831 0 
L 50 4666 
L 709 4666 
L 2188 738 
L 3669 4666 
L 4325 4666 
L 2547 0 
L 1831 0 
z
" transform="scale(0.015625)"/>
      </defs>
      <use xlink:href="#DejaVuSans-4d" transform="translate(0 0.578125)"/>
      <use xlink:href="#DejaVuSans-61" transform="translate(86.279297 0.578125)"/>
      <use xlink:href="#DejaVuSans-67" transform="translate(147.558594 0.578125)"/>
      <use xlink:href="#DejaVuSans-6e" transform="translate(211.035156 0.578125)"/>
      <use xlink:href="#DejaVuSans-69" transform="translate(274.414062 0.578125)"/>
      <use xlink:href="#DejaVuSans-74" transform="translate(302.197266 0.578125)"/>
      <use xlink:href="#DejaVuSans-75" transform="translate(341.40625 0.578125)"/>
      <use xlink:href="#DejaVuSans-64" transform="translate(404.785156 0.578125)"/>
      <use xlink:href="#DejaVuSans-65" transform="translate(468.261719 0.578125)"/>
      <use xlink:href="#DejaVuSans-20" transform="translate(529.785156 0.578125)"/>
      <use xlink:href="#DejaVuSans-7c" transform="translate(561.572266 0.578125)"/>
      <use xlink:href="#DejaVuSans-Oblique-53" transform="translate(595.263672 0.578125)"/>
      <use xlink:href="#DejaVuSans-32" transform="translate(658.740234 -15.828125) scale(0.7)"/>
      <use xlink:href="#DejaVuSans-31" transform="translate(703.276367 -15.828125) scale(0.7)"/>
      <use xlink:href="#DejaVuSans-7c" transform="translate(750.546875 0.578125)"/>
      <use xlink:href="#DejaVuSans-20" transform="translate(784.238281 0.578125)"/>
      <use xlink:href="#DejaVuSans-5b" transform="translate(816.025391 0.578125)"/>
      <use xlink:href="#DejaVuSans-3bc" transform="translate(855.039062 0.578125)"/>
      <use xlink:href="#DejaVuSans-56" transform="translate(918.662109 0.578125)"/>
      <use xlink:href="#DejaVuSans-5d" transform="translate(987.070312 0.578125)"/>
     </g>
    </g>
   </g>
   <g id="line2d_16">
    <defs>
     <path id="m27d986dbb6" d="M 0 1.5 
C 0.397805 1.5 0.77937 1.341951 1.06066 1.06066 
C 1.341951 0.77937 1.5 0.397805 1.5 0 
C 1.5 -0.397805 1.341951 -0.77937 1.06066 -1.06066 
C 0.77937 -1.341951 0.397805 -1.5 0 -1.5 
C -0.397805 -1.5 -0.77937 -1.341951 -1.06066 -1.06066 
C -1.341951 -0.77937 -1.5 -0.397805 -1.5 0 
C -1.5 0.397805 -1.341951 0.77937 -1.06066 1.06066 
C -0.77937 1.341951 -0.397805 1.5 0 1.5 
z
" style="stroke: #1f77b4"/>
    </defs>
    <g clip-path="url(#p5eefe6f5e4)">
     <use xlink:href="#m27d986dbb6" x="63.620227" y="68.080225" style="fill: #1f77b4; stroke: #1f77b4"/>
     <use xlink:href="#m27d986dbb6" x="72.163768" y="295.776" style="fill: #1f77b4; stroke: #1f77b4"/>
     <use xlink:href="#m27d986dbb6" x="80.707309" y="77.80704" style="fill: #1f77b4; stroke: #1f77b4"/>
     <use xlink:href="#m27d986dbb6" x="89.250849" y="292.031318" style="fill: #1f77b4; stroke: #1f77b4"/>
     <use xlink:href="#m27d986dbb6" x="97.79439" y="79.768056" style="fill: #1f77b4; stroke: #1f77b4"/>
     <use xlink:href="#m27d986dbb6" x="106.337931" y="252.85002" style="fill: #1f77b4; stroke: #1f77b4"/>
     <use xlink:href="#m27d986dbb6" x="114.881471" y="140.737963" style="fill: #1f77b4; stroke: #1f77b4"/>
     <use xlink:href="#m27d986dbb6" x="123.425012" y="224.955977" style="fill: #1f77b4; stroke: #1f77b4"/>
     <use xlink:href="#m27d986dbb6" x="131.968553" y="128.339732" style="fill: #1f77b4; stroke: #1f77b4"/>
     <use xlink:href="#m27d986dbb6" x="140.512093" y="207.963265" style="fill: #1f77b4; stroke: #1f77b4"/>
     <use xlink:href="#m27d986dbb6" x="149.055634" y="153.853546" style="fill: #1f77b4; stroke: #1f77b4"/>
     <use xlink:href="#m27d986dbb6" x="157.599175" y="166.114183" style="fill: #1f77b4; stroke: #1f77b4"/>
     <use xlink:href="#m27d986dbb6" x="166.142715" y="169.071508" style="fill: #1f77b4; stroke: #1f77b4"/>
     <use xlink:href="#m27d986dbb6" x="174.686256" y="171.755476" style="fill: #1f77b4; stroke: #1f77b4"/>
     <use xlink:href="#m27d986dbb6" x="183.229797" y="190.70339" style="fill: #1f77b4; stroke: #1f77b4"/>
     <use xlink:href="#m27d986dbb6" x="191.773337" y="180.591432" style="fill: #1f77b4; stroke: #1f77b4"/>
     <use xlink:href="#m27d986dbb6" x="200.316878" y="196.818039" style="fill: #1f77b4; stroke: #1f77b4"/>
     <use xlink:href="#m27d986dbb6" x="208.860419" y="125.802992" style="fill: #1f77b4; stroke: #1f77b4"/>
     <use xlink:href="#m27d986dbb6" x="217.403959" y="188.528115" style="fill: #1f77b4; stroke: #1f77b4"/>
     <use xlink:href="#m27d986dbb6" x="225.9475" y="173.212925" style="fill: #1f77b4; stroke: #1f77b4"/>
     <use xlink:href="#m27d986dbb6" x="234.491041" y="203.159686" style="fill: #1f77b4; stroke: #1f77b4"/>
     <use xlink:href="#m27d986dbb6" x="243.034581" y="139.404215" style="fill: #1f77b4; stroke: #1f77b4"/>
     <use xlink:href="#m27d986dbb6" x="251.578122" y="191.318119" style="fill: #1f77b4; stroke: #1f77b4"/>
     <use xlink:href="#m27d986dbb6" x="260.121663" y="149.691312" style="fill: #1f77b4; stroke: #1f77b4"/>
     <use xlink:href="#m27d986dbb6" x="268.665203" y="214.232027" style="fill: #1f77b4; stroke: #1f77b4"/>
     <use xlink:href="#m27d986dbb6" x="277.208744" y="162.061" style="fill: #1f77b4; stroke: #1f77b4"/>
     <use xlink:href="#m27d986dbb6" x="285.752285" y="187.051659" style="fill: #1f77b4; stroke: #1f77b4"/>
     <use xlink:href="#m27d986dbb6" x="294.295825" y="147.209612" style="fill: #1f77b4; stroke: #1f77b4"/>
     <use xlink:href="#m27d986dbb6" x="302.839366" y="175.024911" style="fill: #1f77b4; stroke: #1f77b4"/>
     <use xlink:href="#m27d986dbb6" x="311.382907" y="152.014226" style="fill: #1f77b4; stroke: #1f77b4"/>
     <use xlink:href="#m27d986dbb6" x="319.926447" y="183.037807" style="fill: #1f77b4; stroke: #1f77b4"/>
     <use xlink:href="#m27d986dbb6" x="328.469988" y="168.821344" style="fill: #1f77b4; stroke: #1f77b4"/>
     <use xlink:href="#m27d986dbb6" x="337.013529" y="176.261221" style="fill: #1f77b4; stroke: #1f77b4"/>
     <use xlink:href="#m27d986dbb6" x="345.557069" y="155.02419" style="fill: #1f77b4; stroke: #1f77b4"/>
     <use xlink:href="#m27d986dbb6" x="354.10061" y="177.601542" style="fill: #1f77b4; stroke: #1f77b4"/>
     <use xlink:href="#m27d986dbb6" x="362.644151" y="173.796568" style="fill: #1f77b4; stroke: #1f77b4"/>
     <use xlink:href="#m27d986dbb6" x="371.187691" y="185.946138" style="fill: #1f77b4; stroke: #1f77b4"/>
     <use xlink:href="#m27d986dbb6" x="379.731232" y="172.054128" style="fill: #1f77b4; stroke: #1f77b4"/>
     <use xlink:href="#m27d986dbb6" x="388.274773" y="159.647267" style="fill: #1f77b4; stroke: #1f77b4"/>
    </g>
   </g>
   <g id="line2d_17">
    <path d="M 63.620227 53.856 
L 63.945207 56.633031 
L 64.595166 66.702953 
L 65.245125 82.273935 
L 66.220063 113.988347 
L 67.844961 179.169035 
L 69.144879 230.13408 
L 70.119818 260.762542 
L 70.769777 275.561363 
L 71.419736 284.989409 
L 71.744715 287.542626 
L 72.069695 288.614805 
L 72.394674 288.199807 
L 72.719654 286.3109 
L 73.044633 282.980492 
L 73.694593 272.217095 
L 74.344552 256.525787 
L 75.31949 225.697792 
L 78.894265 99.059797 
L 79.544224 84.198243 
L 80.194183 74.194165 
L 80.519163 71.170476 
L 80.844142 69.514695 
L 81.169122 69.241165 
L 81.494101 70.346143 
L 81.819081 72.807942 
L 82.46904 81.628032 
L 83.118999 95.189023 
L 84.093937 122.717569 
L 85.718835 179.123555 
L 87.018753 223.10653 
L 87.993692 249.466323 
L 88.643651 262.159301 
L 89.29361 270.198136 
L 89.618589 272.347206 
L 89.943569 273.215381 
L 90.268548 272.79812 
L 90.593528 271.107657 
L 90.918507 268.17275 
L 91.568466 258.764294 
L 92.218425 245.110692 
L 93.193364 218.364776 
L 96.768139 109.006794 
L 97.418098 96.249291 
L 98.068057 87.702651 
L 98.393036 85.14228 
L 98.718016 83.765307 
L 99.042995 83.583417 
L 99.367975 84.592662 
L 99.692955 86.773594 
L 100.342914 94.497428 
L 100.992873 106.306898 
L 101.967811 130.200982 
L 103.592709 179.012131 
L 104.892627 216.968432 
L 105.867566 239.653435 
L 106.517525 250.539274 
L 107.167484 257.392119 
L 107.492463 259.199655 
L 107.817443 259.899423 
L 108.142422 259.48816 
L 108.467402 257.977099 
L 108.792381 255.391746 
L 109.44234 247.168913 
L 110.092299 235.289244 
L 111.067238 212.085832 
L 114.642013 117.652625 
L 115.291972 106.702109 
L 115.941931 99.401788 
L 116.26691 97.234737 
L 116.59189 96.091431 
L 116.916869 95.981357 
L 117.241849 96.900485 
L 117.566828 98.831398 
L 118.216787 105.59391 
L 118.866747 115.877233 
L 119.841685 136.615772 
L 121.466583 178.853492 
L 122.766501 211.607936 
L 123.741439 231.129542 
L 124.391398 240.464701 
L 125.041357 246.305231 
L 125.366337 247.824305 
L 125.691317 248.385362 
L 126.016296 247.986158 
L 126.341276 246.63697 
L 126.666255 244.360403 
L 127.316214 237.174852 
L 127.966173 226.839366 
L 128.941112 206.710073 
L 132.515887 125.167057 
L 133.165846 115.768301 
L 133.815805 109.53361 
L 134.140784 107.700334 
L 134.465764 106.752666 
L 134.790743 106.698273 
L 135.115723 107.53314 
L 135.440702 109.241687 
L 136.090661 115.161399 
L 136.74062 124.115073 
L 137.715559 142.114003 
L 139.340457 178.662502 
L 140.640375 206.927152 
L 141.615313 223.725706 
L 142.265272 231.730355 
L 142.915231 236.706977 
L 143.240211 237.982552 
L 143.56519 238.429642 
L 143.89017 238.046801 
L 144.215149 236.843407 
L 144.540129 234.839479 
L 145.190088 228.561273 
L 145.840047 219.569874 
L 146.814986 202.108128 
L 150.38976 131.697772 
L 151.039719 123.631502 
L 151.689679 118.307815 
L 152.014658 116.757681 
L 152.339638 115.973634 
L 152.664617 115.961842 
L 152.989597 116.718376 
L 153.314576 118.229314 
L 153.964535 123.410301 
L 154.614494 131.205626 
L 155.589433 146.826172 
L 157.21433 178.450862 
L 158.514249 202.840422 
L 159.489187 217.295078 
L 160.139146 224.158221 
L 160.789105 228.397724 
L 161.114085 229.467879 
L 161.439064 229.821587 
L 161.764044 229.458026 
L 162.089023 228.385727 
L 162.414003 226.622408 
L 163.063962 221.137753 
L 163.713921 213.316184 
L 164.68886 198.16909 
L 168.263634 137.373225 
L 168.913593 130.451074 
L 169.563552 125.906085 
L 169.888532 124.596045 
L 170.213511 123.948686 
L 170.538491 123.968938 
L 170.863471 124.65301 
L 171.18845 125.988476 
L 171.838409 130.522105 
L 172.488368 137.3084 
L 173.463307 150.864253 
L 175.088204 178.227694 
L 176.388122 199.272807 
L 177.363061 211.710015 
L 178.01302 217.593889 
L 178.662979 221.20458 
L 178.987959 222.101549 
L 179.312938 222.378974 
L 179.637918 222.036515 
L 179.962897 221.081913 
L 180.287877 219.530843 
L 180.937836 214.740102 
L 181.587795 207.936623 
L 182.562733 194.797883 
L 185.812529 145.961303 
L 186.462488 139.093309 
L 187.112447 134.15411 
L 187.762406 131.379289 
L 188.087385 130.845976 
L 188.412365 130.889796 
L 188.737344 131.507127 
L 189.062324 132.686893 
L 189.712283 136.653349 
L 190.362242 142.560764 
L 191.337181 154.324323 
L 192.962078 178.000024 
L 194.261996 196.158753 
L 195.236935 206.859577 
L 195.886894 211.90343 
L 196.536853 214.97781 
L 196.861833 215.728866 
L 197.186812 215.944188 
L 197.511792 215.623805 
L 197.836771 214.774723 
L 198.161751 213.410801 
L 198.81171 209.226752 
L 199.461669 203.309239 
L 200.436607 191.913017 
L 203.686403 149.734569 
L 204.336362 143.832604 
L 204.986321 139.60368 
L 205.63628 137.249274 
L 205.961259 136.810991 
L 206.286239 136.871611 
L 206.611218 137.427706 
L 206.936198 138.469411 
L 207.586157 141.939052 
L 208.236116 147.081014 
L 209.211054 157.288812 
L 211.160932 181.910816 
L 212.46085 196.825928 
L 213.110809 202.647343 
L 213.760768 206.970687 
L 214.410727 209.587745 
L 214.735706 210.215951 
L 215.060686 210.38091 
L 215.385665 210.082922 
L 215.710645 209.328318 
L 216.035624 208.129345 
L 216.685584 204.475644 
L 217.335543 199.329064 
L 218.310481 189.444648 
L 221.560276 153.017611 
L 222.210235 147.946107 
L 222.860195 144.325746 
L 223.510154 142.328811 
L 223.835133 141.9696 
L 224.160113 142.041654 
L 224.485092 142.541754 
L 224.810072 143.461121 
L 225.460031 146.495665 
L 226.10999 150.971018 
L 227.084928 159.828432 
L 229.034805 181.124479 
L 230.334724 193.984191 
L 230.984683 198.989522 
L 231.634642 202.694917 
L 232.284601 204.922092 
L 232.60958 205.446942 
L 232.93456 205.571235 
L 233.259539 205.295469 
L 233.584519 204.625353 
L 234.234478 202.150278 
L 234.884437 198.290384 
L 235.859376 190.389799 
L 237.484273 174.079599 
L 239.109171 158.459967 
L 240.084109 151.516292 
L 240.734068 148.417291 
L 241.384027 146.724217 
L 241.709007 146.430698 
L 242.033986 146.509967 
L 242.358966 146.959019 
L 242.683946 147.770048 
L 243.333905 150.42362 
L 243.983864 154.318493 
L 244.958802 162.003841 
L 248.533577 193.790564 
L 249.183536 197.553083 
L 249.833495 200.103201 
L 250.158475 200.88361 
L 250.483454 201.321573 
L 250.808434 201.413194 
L 251.133413 201.159111 
L 251.458393 200.564463 
L 252.108352 198.395928 
L 252.758311 195.033872 
L 253.733249 188.175602 
L 255.358147 174.06051 
L 256.658065 163.009965 
L 257.633004 156.360581 
L 258.282963 153.14281 
L 258.932922 151.087366 
L 259.257901 150.527523 
L 259.582881 150.288492 
L 259.90786 150.37169 
L 260.23284 150.774331 
L 260.557819 151.489478 
L 261.207778 153.809535 
L 261.857738 157.19897 
L 262.832676 163.867067 
L 266.407451 191.317549 
L 267.05741 194.54773 
L 267.707369 196.726847 
L 268.032348 197.388094 
L 268.357328 197.753074 
L 268.682308 197.818599 
L 269.007287 197.585397 
L 269.332267 197.058086 
L 269.982226 195.158523 
L 270.632185 192.230346 
L 271.607123 186.27715 
L 273.232021 174.062088 
L 274.531939 164.525308 
L 275.506878 158.802525 
L 276.156837 156.042527 
L 276.806796 154.28978 
L 277.131775 153.818399 
L 277.456755 153.624479 
L 277.781734 153.70908 
L 278.106714 154.069628 
L 278.431693 154.699965 
L 279.081652 156.728107 
L 279.731611 159.677479 
L 280.70655 165.462732 
L 284.281325 189.167844 
L 284.931284 191.940801 
L 285.581243 193.802594 
L 285.906222 194.362632 
L 286.231202 194.666363 
L 286.556181 194.711183 
L 286.881161 194.497877 
L 287.20614 194.030591 
L 287.8561 192.366974 
L 288.506059 189.8169 
L 289.480997 184.64957 
L 291.105895 174.079078 
L 292.405813 165.848943 
L 293.380751 160.923863 
L 294.03071 158.556719 
L 294.68067 157.062411 
L 295.005649 156.665804 
L 295.330629 156.509159 
L 295.655608 156.59325 
L 295.980588 156.915707 
L 296.305567 157.471069 
L 296.955526 159.243753 
L 297.605485 161.810015 
L 298.580424 166.829103 
L 302.155199 187.299293 
L 302.805158 189.679567 
L 303.455117 191.269983 
L 303.780096 191.74409 
L 304.105076 191.996465 
L 304.430055 192.024991 
L 304.755035 191.830481 
L 305.080014 191.416648 
L 305.729973 189.959958 
L 306.379932 187.739348 
L 307.354871 183.254345 
L 308.979769 174.107268 
L 310.279687 167.004964 
L 311.254625 162.766591 
L 311.904584 160.736563 
L 312.554543 159.462866 
L 312.879523 159.12943 
L 313.204502 159.00352 
L 313.529482 159.08568 
L 313.854462 159.373738 
L 314.504421 160.545589 
L 315.15438 162.449899 
L 316.129318 166.438224 
L 317.429236 173.084893 
L 319.379113 183.047187 
L 320.354052 186.776902 
L 321.004011 188.487879 
L 321.65397 189.477804 
L 321.97895 189.687161 
L 322.303929 189.702989 
L 322.628909 189.526104 
L 322.953888 189.15983 
L 323.603847 187.884575 
L 324.253806 185.951022 
L 325.228745 182.058419 
L 326.853643 174.143307 
L 328.153561 168.014463 
L 329.128499 164.367219 
L 329.778458 162.626451 
L 330.428417 161.54104 
L 330.753397 161.260943 
L 331.078376 161.160315 
L 331.403356 161.239518 
L 331.728335 161.49657 
L 332.378294 162.524822 
L 333.028253 164.184494 
L 334.003192 167.647696 
L 335.30311 173.402767 
L 337.252987 182.002272 
L 338.227926 185.209986 
L 338.877885 186.675492 
L 339.527844 187.516444 
L 339.852824 187.689805 
L 340.177803 187.695854 
L 340.502783 187.535396 
L 340.827762 187.211403 
L 341.477721 186.095193 
L 342.12768 184.411725 
L 343.102619 181.033424 
L 344.727516 174.184546 
L 346.027434 168.895895 
L 347.002373 165.757482 
L 347.652332 164.264894 
L 348.302291 163.34015 
L 348.627271 163.105063 
L 348.95225 163.025176 
L 349.27723 163.100712 
L 349.602209 163.329863 
L 350.252168 164.231887 
L 350.902127 165.67821 
L 351.877066 168.685285 
L 353.176984 173.668207 
L 355.126861 181.091131 
L 356.1018 183.849757 
L 356.751759 185.104871 
L 357.401718 185.81903 
L 357.726697 185.962305 
L 358.051677 185.960936 
L 358.376656 185.815708 
L 359.026615 185.106107 
L 359.676575 183.876209 
L 360.326534 182.195226 
L 361.301472 179.033887 
L 364.226288 168.67487 
L 365.201226 166.266907 
L 365.851186 165.227094 
L 366.501145 164.700494 
L 366.826124 164.637575 
L 367.151104 164.708979 
L 367.801063 165.246467 
L 368.451022 166.279528 
L 369.100981 167.74941 
L 370.075919 170.591637 
L 373.650694 181.971022 
L 374.300653 183.262329 
L 374.950612 184.107771 
L 375.600571 184.468243 
L 375.925551 184.461359 
L 376.25053 184.330183 
L 376.900489 183.706002 
L 377.550448 182.633168 
L 378.525387 180.320086 
L 379.825305 176.379887 
L 381.775182 170.337129 
L 382.750121 168.013651 
L 383.40008 166.916625 
L 384.050039 166.245872 
L 384.699998 166.031652 
L 385.024977 166.098652 
L 385.674937 166.573468 
L 386.324896 167.475761 
L 386.974855 168.75427 
L 387.949793 171.219592 
L 388.274773 172.143967 
L 388.274773 172.143967 
" clip-path="url(#p5eefe6f5e4)" style="fill: none; stroke: #d62728; stroke-width: 1.5; stroke-linecap: square"/>
   </g>
   <g id="patch_3">
    <path d="M 47.3875 307.872 
L 47.3875 41.76 
" style="fill: none; stroke: #000000; stroke-width: 0.8; stroke-linejoin: miter; stroke-linecap: square"/>
   </g>
   <g id="patch_4">
    <path d="M 404.5075 307.872 
L 404.5075 41.76 
" style="fill: none; stroke: #000000; stroke-width: 0.8; stroke-linejoin: miter; stroke-linecap: square"/>
   </g>
   <g id="patch_5">
    <path d="M 47.3875 307.872 
L 404.5075 307.872 
" style="fill: none; stroke: #000000; stroke-width: 0.8; stroke-linejoin: miter; stroke-linecap: square"/>
   </g>
   <g id="patch_6">
    <path d="M 47.3875 41.76 
L 404.5075 41.76 
" style="fill: none; stroke: #000000; stroke-width: 0.8; stroke-linejoin: miter; stroke-linecap: square"/>
   </g>
   <g id="text_18">
    <g id="patch_7">
     <path d="M 422.3635 138.497163 
L 610.4635 138.497163 
Q 614.4635 138.497163 614.4635 134.497163 
L 614.4635 55.0656 
Q 614.4635 51.0656 610.4635 51.0656 
L 422.3635 51.0656 
Q 418.3635 51.0656 418.3635 55.0656 
L 418.3635 134.497163 
Q 418.3635 138.497163 422.3635 138.497163 
z
" style="fill: #ffffff; opacity: 0.5; stroke: #000000; stroke-linejoin: miter"/>
    </g>
    <!-- Summary -->
    <g transform="translate(422.3635 62.664038) scale(0.1 -0.1)">
     <defs>
      <path id="DejaVuSans-53" d="M 3425 4513 
L 3425 3897 
Q 3066 4069 2747 4153 
Q 2428 4238 2131 4238 
Q 1616 4238 1336 4038 
Q 1056 3838 1056 3469 
Q 1056 3159 1242 3001 
Q 1428 2844 1947 2747 
L 2328 2669 
Q 3034 2534 3370 2195 
Q 3706 1856 3706 1288 
Q 3706 609 3251 259 
Q 2797 -91 1919 -91 
Q 1588 -91 1214 -16 
Q 841 59 441 206 
L 441 856 
Q 825 641 1194 531 
Q 1563 422 1919 422 
Q 2459 422 2753 634 
Q 3047 847 3047 1241 
Q 3047 1584 2836 1778 
Q 2625 1972 2144 2069 
L 1759 2144 
Q 1053 2284 737 2584 
Q 422 2884 422 3419 
Q 422 4038 858 4394 
Q 1294 4750 2059 4750 
Q 2388 4750 2728 4690 
Q 3069 4631 3425 4513 
z
" transform="scale(0.015625)"/>
      <path id="DejaVuSans-72" d="M 2631 2963 
Q 2534 3019 2420 3045 
Q 2306 3072 2169 3072 
Q 1681 3072 1420 2755 
Q 1159 2438 1159 1844 
L 1159 0 
L 581 0 
L 581 3500 
L 1159 3500 
L 1159 2956 
Q 1341 3275 1631 3429 
Q 1922 3584 2338 3584 
Q 2397 3584 2469 3576 
Q 2541 3569 2628 3553 
L 2631 2963 
z
" transform="scale(0.015625)"/>
      <path id="DejaVuSans-79" d="M 2059 -325 
Q 1816 -950 1584 -1140 
Q 1353 -1331 966 -1331 
L 506 -1331 
L 506 -850 
L 844 -850 
Q 1081 -850 1212 -737 
Q 1344 -625 1503 -206 
L 1606 56 
L 191 3500 
L 800 3500 
L 1894 763 
L 2988 3500 
L 3597 3500 
L 2059 -325 
z
" transform="scale(0.015625)"/>
     </defs>
     <use xlink:href="#DejaVuSans-53"/>
     <use xlink:href="#DejaVuSans-75" x="63.476562"/>
     <use xlink:href="#DejaVuSans-6d" x="126.855469"/>
     <use xlink:href="#DejaVuSans-6d" x="224.267578"/>
     <use xlink:href="#DejaVuSans-61" x="321.679688"/>
     <use xlink:href="#DejaVuSans-72" x="382.958984"/>
     <use xlink:href="#DejaVuSans-79" x="424.072266"/>
    </g>
    <!-- $T_2^*$: 5.74$\pm$0.63 μs -->
    <g transform="translate(422.3635 75.663725) scale(0.1 -0.1)">
     <defs>
      <path id="DejaVuSans-Oblique-54" d="M 378 4666 
L 4325 4666 
L 4225 4134 
L 2559 4134 
L 1759 0 
L 1125 0 
L 1925 4134 
L 275 4134 
L 378 4666 
z
" transform="scale(0.015625)"/>
      <path id="DejaVuSans-2a" d="M 3009 3897 
L 1888 3291 
L 3009 2681 
L 2828 2375 
L 1778 3009 
L 1778 1831 
L 1422 1831 
L 1422 3009 
L 372 2375 
L 191 2681 
L 1313 3291 
L 191 3897 
L 372 4206 
L 1422 3572 
L 1422 4750 
L 1778 4750 
L 1778 3572 
L 2828 4206 
L 3009 3897 
z
" transform="scale(0.015625)"/>
      <path id="DejaVuSans-3a" d="M 750 794 
L 1409 794 
L 1409 0 
L 750 0 
L 750 794 
z
M 750 3309 
L 1409 3309 
L 1409 2516 
L 750 2516 
L 750 3309 
z
" transform="scale(0.015625)"/>
      <path id="DejaVuSans-2e" d="M 684 794 
L 1344 794 
L 1344 0 
L 684 0 
L 684 794 
z
" transform="scale(0.015625)"/>
      <path id="DejaVuSans-b1" d="M 2944 4013 
L 2944 2803 
L 4684 2803 
L 4684 2272 
L 2944 2272 
L 2944 1063 
L 2419 1063 
L 2419 2272 
L 678 2272 
L 678 2803 
L 2419 2803 
L 2419 4013 
L 2944 4013 
z
M 678 531 
L 4684 531 
L 4684 0 
L 678 0 
L 678 531 
z
" transform="scale(0.015625)"/>
      <path id="DejaVuSans-33" d="M 2597 2516 
Q 3050 2419 3304 2112 
Q 3559 1806 3559 1356 
Q 3559 666 3084 287 
Q 2609 -91 1734 -91 
Q 1441 -91 1130 -33 
Q 819 25 488 141 
L 488 750 
Q 750 597 1062 519 
Q 1375 441 1716 441 
Q 2309 441 2620 675 
Q 2931 909 2931 1356 
Q 2931 1769 2642 2001 
Q 2353 2234 1838 2234 
L 1294 2234 
L 1294 2753 
L 1863 2753 
Q 2328 2753 2575 2939 
Q 2822 3125 2822 3475 
Q 2822 3834 2567 4026 
Q 2313 4219 1838 4219 
Q 1578 4219 1281 4162 
Q 984 4106 628 3988 
L 628 4550 
Q 988 4650 1302 4700 
Q 1616 4750 1894 4750 
Q 2613 4750 3031 4423 
Q 3450 4097 3450 3541 
Q 3450 3153 3228 2886 
Q 3006 2619 2597 2516 
z
" transform="scale(0.015625)"/>
     </defs>
     <use xlink:href="#DejaVuSans-Oblique-54" transform="translate(0 0.765625)"/>
     <use xlink:href="#DejaVuSans-2a" transform="translate(81.738451 39.046875) scale(0.7)"/>
     <use xlink:href="#DejaVuSans-32" transform="translate(61.083984 -26.578125) scale(0.7)"/>
     <use xlink:href="#DejaVuSans-3a" transform="translate(133.110521 0.765625)"/>
     <use xlink:href="#DejaVuSans-20" transform="translate(166.801927 0.765625)"/>
     <use xlink:href="#DejaVuSans-35" transform="translate(198.589036 0.765625)"/>
     <use xlink:href="#DejaVuSans-2e" transform="translate(262.212083 0.765625)"/>
     <use xlink:href="#DejaVuSans-37" transform="translate(286.249193 0.765625)"/>
     <use xlink:href="#DejaVuSans-34" transform="translate(349.87224 0.765625)"/>
     <use xlink:href="#DejaVuSans-b1" transform="translate(413.495286 0.765625)"/>
     <use xlink:href="#DejaVuSans-30" transform="translate(497.284349 0.765625)"/>
     <use xlink:href="#DejaVuSans-2e" transform="translate(560.907396 0.765625)"/>
     <use xlink:href="#DejaVuSans-36" transform="translate(592.694505 0.765625)"/>
     <use xlink:href="#DejaVuSans-33" transform="translate(656.317552 0.765625)"/>
     <use xlink:href="#DejaVuSans-20" transform="translate(719.940599 0.765625)"/>
     <use xlink:href="#DejaVuSans-3bc" transform="translate(751.727708 0.765625)"/>
     <use xlink:href="#DejaVuSans-73" transform="translate(815.350755 0.765625)"/>
    </g>
    <!--  -->
    <g transform="translate(422.3635 87.58185) scale(0.1 -0.1)"/>
    <!-- artificial detuning: 0 Hz -->
    <g transform="translate(422.3635 98.779663) scale(0.1 -0.1)">
     <defs>
      <path id="DejaVuSans-66" d="M 2375 4863 
L 2375 4384 
L 1825 4384 
Q 1516 4384 1395 4259 
Q 1275 4134 1275 3809 
L 1275 3500 
L 2222 3500 
L 2222 3053 
L 1275 3053 
L 1275 0 
L 697 0 
L 697 3053 
L 147 3053 
L 147 3500 
L 697 3500 
L 697 3744 
Q 697 4328 969 4595 
Q 1241 4863 1831 4863 
L 2375 4863 
z
" transform="scale(0.015625)"/>
      <path id="DejaVuSans-63" d="M 3122 3366 
L 3122 2828 
Q 2878 2963 2633 3030 
Q 2388 3097 2138 3097 
Q 1578 3097 1268 2742 
Q 959 2388 959 1747 
Q 959 1106 1268 751 
Q 1578 397 2138 397 
Q 2388 397 2633 464 
Q 2878 531 3122 666 
L 3122 134 
Q 2881 22 2623 -34 
Q 2366 -91 2075 -91 
Q 1284 -91 818 406 
Q 353 903 353 1747 
Q 353 2603 823 3093 
Q 1294 3584 2113 3584 
Q 2378 3584 2631 3529 
Q 2884 3475 3122 3366 
z
" transform="scale(0.015625)"/>
      <path id="DejaVuSans-6c" d="M 603 4863 
L 1178 4863 
L 1178 0 
L 603 0 
L 603 4863 
z
" transform="scale(0.015625)"/>
      <path id="DejaVuSans-48" d="M 628 4666 
L 1259 4666 
L 1259 2753 
L 3553 2753 
L 3553 4666 
L 4184 4666 
L 4184 0 
L 3553 0 
L 3553 2222 
L 1259 2222 
L 1259 0 
L 628 0 
L 628 4666 
z
" transform="scale(0.015625)"/>
      <path id="DejaVuSans-7a" d="M 353 3500 
L 3084 3500 
L 3084 2975 
L 922 459 
L 3084 459 
L 3084 0 
L 275 0 
L 275 525 
L 2438 3041 
L 353 3041 
L 353 3500 
z
" transform="scale(0.015625)"/>
     </defs>
     <use xlink:href="#DejaVuSans-61"/>
     <use xlink:href="#DejaVuSans-72" x="61.279297"/>
     <use xlink:href="#DejaVuSans-74" x="102.392578"/>
     <use xlink:href="#DejaVuSans-69" x="141.601562"/>
     <use xlink:href="#DejaVuSans-66" x="169.384766"/>
     <use xlink:href="#DejaVuSans-69" x="204.589844"/>
     <use xlink:href="#DejaVuSans-63" x="232.373047"/>
     <use xlink:href="#DejaVuSans-69" x="287.353516"/>
     <use xlink:href="#DejaVuSans-61" x="315.136719"/>
     <use xlink:href="#DejaVuSans-6c" x="376.416016"/>
     <use xlink:href="#DejaVuSans-20" x="404.199219"/>
     <use xlink:href="#DejaVuSans-64" x="435.986328"/>
     <use xlink:href="#DejaVuSans-65" x="499.462891"/>
     <use xlink:href="#DejaVuSans-74" x="560.986328"/>
     <use xlink:href="#DejaVuSans-75" x="600.195312"/>
     <use xlink:href="#DejaVuSans-6e" x="663.574219"/>
     <use xlink:href="#DejaVuSans-69" x="726.953125"/>
     <use xlink:href="#DejaVuSans-6e" x="754.736328"/>
     <use xlink:href="#DejaVuSans-67" x="818.115234"/>
     <use xlink:href="#DejaVuSans-3a" x="881.591797"/>
     <use xlink:href="#DejaVuSans-20" x="915.283203"/>
     <use xlink:href="#DejaVuSans-30" x="947.070312"/>
     <use xlink:href="#DejaVuSans-20" x="1010.693359"/>
     <use xlink:href="#DejaVuSans-48" x="1042.480469"/>
     <use xlink:href="#DejaVuSans-7a" x="1117.675781"/>
    </g>
    <!-- fitted detuning: 1.1960$\pm$0.0050 MHz -->
    <g transform="translate(422.3635 109.97935) scale(0.1 -0.1)">
     <use xlink:href="#DejaVuSans-66" transform="translate(0 0.015625)"/>
     <use xlink:href="#DejaVuSans-69" transform="translate(35.205078 0.015625)"/>
     <use xlink:href="#DejaVuSans-74" transform="translate(62.988281 0.015625)"/>
     <use xlink:href="#DejaVuSans-74" transform="translate(102.197266 0.015625)"/>
     <use xlink:href="#DejaVuSans-65" transform="translate(141.40625 0.015625)"/>
     <use xlink:href="#DejaVuSans-64" transform="translate(202.929688 0.015625)"/>
     <use xlink:href="#DejaVuSans-20" transform="translate(266.40625 0.015625)"/>
     <use xlink:href="#DejaVuSans-64" transform="translate(298.193359 0.015625)"/>
     <use xlink:href="#DejaVuSans-65" transform="translate(361.669922 0.015625)"/>
     <use xlink:href="#DejaVuSans-74" transform="translate(423.193359 0.015625)"/>
     <use xlink:href="#DejaVuSans-75" transform="translate(462.402344 0.015625)"/>
     <use xlink:href="#DejaVuSans-6e" transform="translate(525.78125 0.015625)"/>
     <use xlink:href="#DejaVuSans-69" transform="translate(589.160156 0.015625)"/>
     <use xlink:href="#DejaVuSans-6e" transform="translate(616.943359 0.015625)"/>
     <use xlink:href="#DejaVuSans-67" transform="translate(680.322266 0.015625)"/>
     <use xlink:href="#DejaVuSans-3a" transform="translate(743.798828 0.015625)"/>
     <use xlink:href="#DejaVuSans-20" transform="translate(777.490234 0.015625)"/>
     <use xlink:href="#DejaVuSans-31" transform="translate(809.277344 0.015625)"/>
     <use xlink:href="#DejaVuSans-2e" transform="translate(872.900391 0.015625)"/>
     <use xlink:href="#DejaVuSans-31" transform="translate(904.6875 0.015625)"/>
     <use xlink:href="#DejaVuSans-39" transform="translate(968.310547 0.015625)"/>
     <use xlink:href="#DejaVuSans-36" transform="translate(1031.933594 0.015625)"/>
     <use xlink:href="#DejaVuSans-30" transform="translate(1095.556641 0.015625)"/>
     <use xlink:href="#DejaVuSans-b1" transform="translate(1159.179688 0.015625)"/>
     <use xlink:href="#DejaVuSans-30" transform="translate(1242.96875 0.015625)"/>
     <use xlink:href="#DejaVuSans-2e" transform="translate(1306.591797 0.015625)"/>
     <use xlink:href="#DejaVuSans-30" transform="translate(1338.378906 0.015625)"/>
     <use xlink:href="#DejaVuSans-30" transform="translate(1402.001953 0.015625)"/>
     <use xlink:href="#DejaVuSans-35" transform="translate(1465.625 0.015625)"/>
     <use xlink:href="#DejaVuSans-30" transform="translate(1529.248047 0.015625)"/>
     <use xlink:href="#DejaVuSans-20" transform="translate(1592.871094 0.015625)"/>
     <use xlink:href="#DejaVuSans-4d" transform="translate(1624.658203 0.015625)"/>
     <use xlink:href="#DejaVuSans-48" transform="translate(1710.9375 0.015625)"/>
     <use xlink:href="#DejaVuSans-7a" transform="translate(1786.132812 0.015625)"/>
    </g>
    <!-- actual detuning: 1.1960$\pm$0.0050 MHz -->
    <g transform="translate(422.3635 121.19935) scale(0.1 -0.1)">
     <use xlink:href="#DejaVuSans-61" transform="translate(0 0.015625)"/>
     <use xlink:href="#DejaVuSans-63" transform="translate(61.279297 0.015625)"/>
     <use xlink:href="#DejaVuSans-74" transform="translate(116.259766 0.015625)"/>
     <use xlink:href="#DejaVuSans-75" transform="translate(155.46875 0.015625)"/>
     <use xlink:href="#DejaVuSans-61" transform="translate(218.847656 0.015625)"/>
     <use xlink:href="#DejaVuSans-6c" transform="translate(280.126953 0.015625)"/>
     <use xlink:href="#DejaVuSans-20" transform="translate(307.910156 0.015625)"/>
     <use xlink:href="#DejaVuSans-64" transform="translate(339.697266 0.015625)"/>
     <use xlink:href="#DejaVuSans-65" transform="translate(403.173828 0.015625)"/>
     <use xlink:href="#DejaVuSans-74" transform="translate(464.697266 0.015625)"/>
     <use xlink:href="#DejaVuSans-75" transform="translate(503.90625 0.015625)"/>
     <use xlink:href="#DejaVuSans-6e" transform="translate(567.285156 0.015625)"/>
     <use xlink:href="#DejaVuSans-69" transform="translate(630.664062 0.015625)"/>
     <use xlink:href="#DejaVuSans-6e" transform="translate(658.447266 0.015625)"/>
     <use xlink:href="#DejaVuSans-67" transform="translate(721.826172 0.015625)"/>
     <use xlink:href="#DejaVuSans-3a" transform="translate(785.302734 0.015625)"/>
     <use xlink:href="#DejaVuSans-20" transform="translate(818.994141 0.015625)"/>
     <use xlink:href="#DejaVuSans-31" transform="translate(850.78125 0.015625)"/>
     <use xlink:href="#DejaVuSans-2e" transform="translate(914.404297 0.015625)"/>
     <use xlink:href="#DejaVuSans-31" transform="translate(946.191406 0.015625)"/>
     <use xlink:href="#DejaVuSans-39" transform="translate(1009.814453 0.015625)"/>
     <use xlink:href="#DejaVuSans-36" transform="translate(1073.4375 0.015625)"/>
     <use xlink:href="#DejaVuSans-30" transform="translate(1137.060547 0.015625)"/>
     <use xlink:href="#DejaVuSans-b1" transform="translate(1200.683594 0.015625)"/>
     <use xlink:href="#DejaVuSans-30" transform="translate(1284.472656 0.015625)"/>
     <use xlink:href="#DejaVuSans-2e" transform="translate(1348.095703 0.015625)"/>
     <use xlink:href="#DejaVuSans-30" transform="translate(1379.882812 0.015625)"/>
     <use xlink:href="#DejaVuSans-30" transform="translate(1443.505859 0.015625)"/>
     <use xlink:href="#DejaVuSans-35" transform="translate(1507.128906 0.015625)"/>
     <use xlink:href="#DejaVuSans-30" transform="translate(1570.751953 0.015625)"/>
     <use xlink:href="#DejaVuSans-20" transform="translate(1634.375 0.015625)"/>
     <use xlink:href="#DejaVuSans-4d" transform="translate(1666.162109 0.015625)"/>
     <use xlink:href="#DejaVuSans-48" transform="translate(1752.441406 0.015625)"/>
     <use xlink:href="#DejaVuSans-7a" transform="translate(1827.636719 0.015625)"/>
    </g>
    <!--  -->
    <g transform="translate(422.3635 132.417475) scale(0.1 -0.1)"/>
   </g>
  </g>
  <g id="text_19">
   <!--  ramsey -->
   <g transform="translate(195.924062 16.318125) scale(0.12 -0.12)">
    <use xlink:href="#DejaVuSans-20"/>
    <use xlink:href="#DejaVuSans-72" x="31.787109"/>
    <use xlink:href="#DejaVuSans-61" x="72.900391"/>
    <use xlink:href="#DejaVuSans-6d" x="134.179688"/>
    <use xlink:href="#DejaVuSans-73" x="231.591797"/>
    <use xlink:href="#DejaVuSans-65" x="283.691406"/>
    <use xlink:href="#DejaVuSans-79" x="345.214844"/>
   </g>
   <!-- tuid: 20231225-163804-196-0e8f36 -->
   <g transform="translate(112.163125 29.7555) scale(0.12 -0.12)">
    <defs>
     <path id="DejaVuSans-2d" d="M 313 2009 
L 1997 2009 
L 1997 1497 
L 313 1497 
L 313 2009 
z
" transform="scale(0.015625)"/>
    </defs>
    <use xlink:href="#DejaVuSans-74"/>
    <use xlink:href="#DejaVuSans-75" x="39.208984"/>
    <use xlink:href="#DejaVuSans-69" x="102.587891"/>
    <use xlink:href="#DejaVuSans-64" x="130.371094"/>
    <use xlink:href="#DejaVuSans-3a" x="193.847656"/>
    <use xlink:href="#DejaVuSans-20" x="227.539062"/>
    <use xlink:href="#DejaVuSans-32" x="259.326172"/>
    <use xlink:href="#DejaVuSans-30" x="322.949219"/>
    <use xlink:href="#DejaVuSans-32" x="386.572266"/>
    <use xlink:href="#DejaVuSans-33" x="450.195312"/>
    <use xlink:href="#DejaVuSans-31" x="513.818359"/>
    <use xlink:href="#DejaVuSans-32" x="577.441406"/>
    <use xlink:href="#DejaVuSans-32" x="641.064453"/>
    <use xlink:href="#DejaVuSans-35" x="704.6875"/>
    <use xlink:href="#DejaVuSans-2d" x="768.310547"/>
    <use xlink:href="#DejaVuSans-31" x="804.394531"/>
    <use xlink:href="#DejaVuSans-36" x="868.017578"/>
    <use xlink:href="#DejaVuSans-33" x="931.640625"/>
    <use xlink:href="#DejaVuSans-38" x="995.263672"/>
    <use xlink:href="#DejaVuSans-30" x="1058.886719"/>
    <use xlink:href="#DejaVuSans-34" x="1122.509766"/>
    <use xlink:href="#DejaVuSans-2d" x="1186.132812"/>
    <use xlink:href="#DejaVuSans-31" x="1222.216797"/>
    <use xlink:href="#DejaVuSans-39" x="1285.839844"/>
    <use xlink:href="#DejaVuSans-36" x="1349.462891"/>
    <use xlink:href="#DejaVuSans-2d" x="1413.085938"/>
    <use xlink:href="#DejaVuSans-30" x="1449.169922"/>
    <use xlink:href="#DejaVuSans-65" x="1512.792969"/>
    <use xlink:href="#DejaVuSans-38" x="1574.316406"/>
    <use xlink:href="#DejaVuSans-66" x="1637.939453"/>
    <use xlink:href="#DejaVuSans-33" x="1673.144531"/>
    <use xlink:href="#DejaVuSans-36" x="1736.767578"/>
   </g>
  </g>
 </g>
 <defs>
  <clipPath id="p5eefe6f5e4">
   <rect x="47.3875" y="41.76" width="357.12" height="266.112"/>
  </clipPath>
 </defs>
</svg>
