<?xml version="1.0" encoding="utf-8" standalone="no"?>
<!DOCTYPE svg PUBLIC "-//W3C//DTD SVG 1.1//EN"
  "http://www.w3.org/Graphics/SVG/1.1/DTD/svg11.dtd">
<svg xmlns:xlink="http://www.w3.org/1999/xlink" width="574.265062pt" height="345.42825pt" viewBox="0 0 574.265062 345.42825" xmlns="http://www.w3.org/2000/svg" version="1.1">
 <metadata>
  <rdf:RDF xmlns:dc="http://purl.org/dc/elements/1.1/" xmlns:cc="http://creativecommons.org/ns#" xmlns:rdf="http://www.w3.org/1999/02/22-rdf-syntax-ns#">
   <cc:Work>
    <dc:type rdf:resource="http://purl.org/dc/dcmitype/StillImage"/>
    <dc:date>2023-12-25T16:27:37.403389</dc:date>
    <dc:format>image/svg+xml</dc:format>
    <dc:creator>
     <cc:Agent>
      <dc:title>Matplotlib v3.8.2, https://matplotlib.org/</dc:title>
     </cc:Agent>
    </dc:creator>
   </cc:Work>
  </rdf:RDF>
 </metadata>
 <defs>
  <style type="text/css">*{stroke-linejoin: round; stroke-linecap: butt}</style>
 </defs>
 <g id="figure_1">
  <g id="patch_1">
   <path d="M 0 345.42825 
L 574.265062 345.42825 
L 574.265062 -0 
L 0 -0 
L 0 345.42825 
z
" style="fill: none; opacity: 0"/>
  </g>
  <g id="axes_1">
   <g id="patch_2">
    <path d="M 47.389063 307.872 
L 404.509063 307.872 
L 404.509063 41.76 
L 47.389063 41.76 
z
" style="fill: #ffffff"/>
   </g>
   <g id="matplotlib.axis_1">
    <g id="xtick_1">
     <g id="line2d_1">
      <defs>
       <path id="m41432b5fda" d="M 0 0 
L 0 3.5 
" style="stroke: #000000; stroke-width: 0.8"/>
      </defs>
      <g>
       <use xlink:href="#m41432b5fda" x="49.706691" y="307.872" style="stroke: #000000; stroke-width: 0.8"/>
      </g>
     </g>
     <g id="text_1">
      <!-- -3 -->
      <g transform="translate(44.721535 322.470438) scale(0.1 -0.1)">
       <defs>
        <path id="DejaVuSans-2d" d="M 313 2009 
L 1997 2009 
L 1997 1497 
L 313 1497 
L 313 2009 
z
" transform="scale(0.015625)"/>
        <path id="DejaVuSans-33" d="M 2597 2516 
Q 3050 2419 3304 2112 
Q 3559 1806 3559 1356 
Q 3559 666 3084 287 
Q 2609 -91 1734 -91 
Q 1441 -91 1130 -33 
Q 819 25 488 141 
L 488 750 
Q 750 597 1062 519 
Q 1375 441 1716 441 
Q 2309 441 2620 675 
Q 2931 909 2931 1356 
Q 2931 1769 2642 2001 
Q 2353 2234 1838 2234 
L 1294 2234 
L 1294 2753 
L 1863 2753 
Q 2328 2753 2575 2939 
Q 2822 3125 2822 3475 
Q 2822 3834 2567 4026 
Q 2313 4219 1838 4219 
Q 1578 4219 1281 4162 
Q 984 4106 628 3988 
L 628 4550 
Q 988 4650 1302 4700 
Q 1616 4750 1894 4750 
Q 2613 4750 3031 4423 
Q 3450 4097 3450 3541 
Q 3450 3153 3228 2886 
Q 3006 2619 2597 2516 
z
" transform="scale(0.015625)"/>
       </defs>
       <use xlink:href="#DejaVuSans-2d"/>
       <use xlink:href="#DejaVuSans-33" x="36.083984"/>
      </g>
     </g>
    </g>
    <g id="xtick_2">
     <g id="line2d_2">
      <g>
       <use xlink:href="#m41432b5fda" x="109.330069" y="307.872" style="stroke: #000000; stroke-width: 0.8"/>
      </g>
     </g>
     <g id="text_2">
      <!-- -2 -->
      <g transform="translate(104.344912 322.470438) scale(0.1 -0.1)">
       <defs>
        <path id="DejaVuSans-32" d="M 1228 531 
L 3431 531 
L 3431 0 
L 469 0 
L 469 531 
Q 828 903 1448 1529 
Q 2069 2156 2228 2338 
Q 2531 2678 2651 2914 
Q 2772 3150 2772 3378 
Q 2772 3750 2511 3984 
Q 2250 4219 1831 4219 
Q 1534 4219 1204 4116 
Q 875 4013 500 3803 
L 500 4441 
Q 881 4594 1212 4672 
Q 1544 4750 1819 4750 
Q 2544 4750 2975 4387 
Q 3406 4025 3406 3419 
Q 3406 3131 3298 2873 
Q 3191 2616 2906 2266 
Q 2828 2175 2409 1742 
Q 1991 1309 1228 531 
z
" transform="scale(0.015625)"/>
       </defs>
       <use xlink:href="#DejaVuSans-2d"/>
       <use xlink:href="#DejaVuSans-32" x="36.083984"/>
      </g>
     </g>
    </g>
    <g id="xtick_3">
     <g id="line2d_3">
      <g>
       <use xlink:href="#m41432b5fda" x="168.953446" y="307.872" style="stroke: #000000; stroke-width: 0.8"/>
      </g>
     </g>
     <g id="text_3">
      <!-- -1 -->
      <g transform="translate(163.96829 322.470438) scale(0.1 -0.1)">
       <defs>
        <path id="DejaVuSans-31" d="M 794 531 
L 1825 531 
L 1825 4091 
L 703 3866 
L 703 4441 
L 1819 4666 
L 2450 4666 
L 2450 531 
L 3481 531 
L 3481 0 
L 794 0 
L 794 531 
z
" transform="scale(0.015625)"/>
       </defs>
       <use xlink:href="#DejaVuSans-2d"/>
       <use xlink:href="#DejaVuSans-31" x="36.083984"/>
      </g>
     </g>
    </g>
    <g id="xtick_4">
     <g id="line2d_4">
      <g>
       <use xlink:href="#m41432b5fda" x="228.576824" y="307.872" style="stroke: #000000; stroke-width: 0.8"/>
      </g>
     </g>
     <g id="text_4">
      <!-- 0 -->
      <g transform="translate(225.395574 322.470438) scale(0.1 -0.1)">
       <defs>
        <path id="DejaVuSans-30" d="M 2034 4250 
Q 1547 4250 1301 3770 
Q 1056 3291 1056 2328 
Q 1056 1369 1301 889 
Q 1547 409 2034 409 
Q 2525 409 2770 889 
Q 3016 1369 3016 2328 
Q 3016 3291 2770 3770 
Q 2525 4250 2034 4250 
z
M 2034 4750 
Q 2819 4750 3233 4129 
Q 3647 3509 3647 2328 
Q 3647 1150 3233 529 
Q 2819 -91 2034 -91 
Q 1250 -91 836 529 
Q 422 1150 422 2328 
Q 422 3509 836 4129 
Q 1250 4750 2034 4750 
z
" transform="scale(0.015625)"/>
       </defs>
       <use xlink:href="#DejaVuSans-30"/>
      </g>
     </g>
    </g>
    <g id="xtick_5">
     <g id="line2d_5">
      <g>
       <use xlink:href="#m41432b5fda" x="288.200202" y="307.872" style="stroke: #000000; stroke-width: 0.8"/>
      </g>
     </g>
     <g id="text_5">
      <!-- 1 -->
      <g transform="translate(285.018952 322.470438) scale(0.1 -0.1)">
       <use xlink:href="#DejaVuSans-31"/>
      </g>
     </g>
    </g>
    <g id="xtick_6">
     <g id="line2d_6">
      <g>
       <use xlink:href="#m41432b5fda" x="347.823579" y="307.872" style="stroke: #000000; stroke-width: 0.8"/>
      </g>
     </g>
     <g id="text_6">
      <!-- 2 -->
      <g transform="translate(344.642329 322.470438) scale(0.1 -0.1)">
       <use xlink:href="#DejaVuSans-32"/>
      </g>
     </g>
    </g>
    <g id="text_7">
     <!-- Re$(S_{21})$ [mV] -->
     <g transform="translate(193.949063 336.148562) scale(0.1 -0.1)">
      <defs>
       <path id="DejaVuSans-52" d="M 2841 2188 
Q 3044 2119 3236 1894 
Q 3428 1669 3622 1275 
L 4263 0 
L 3584 0 
L 2988 1197 
Q 2756 1666 2539 1819 
Q 2322 1972 1947 1972 
L 1259 1972 
L 1259 0 
L 628 0 
L 628 4666 
L 2053 4666 
Q 2853 4666 3247 4331 
Q 3641 3997 3641 3322 
Q 3641 2881 3436 2590 
Q 3231 2300 2841 2188 
z
M 1259 4147 
L 1259 2491 
L 2053 2491 
Q 2509 2491 2742 2702 
Q 2975 2913 2975 3322 
Q 2975 3731 2742 3939 
Q 2509 4147 2053 4147 
L 1259 4147 
z
" transform="scale(0.015625)"/>
       <path id="DejaVuSans-65" d="M 3597 1894 
L 3597 1613 
L 953 1613 
Q 991 1019 1311 708 
Q 1631 397 2203 397 
Q 2534 397 2845 478 
Q 3156 559 3463 722 
L 3463 178 
Q 3153 47 2828 -22 
Q 2503 -91 2169 -91 
Q 1331 -91 842 396 
Q 353 884 353 1716 
Q 353 2575 817 3079 
Q 1281 3584 2069 3584 
Q 2775 3584 3186 3129 
Q 3597 2675 3597 1894 
z
M 3022 2063 
Q 3016 2534 2758 2815 
Q 2500 3097 2075 3097 
Q 1594 3097 1305 2825 
Q 1016 2553 972 2059 
L 3022 2063 
z
" transform="scale(0.015625)"/>
       <path id="DejaVuSans-28" d="M 1984 4856 
Q 1566 4138 1362 3434 
Q 1159 2731 1159 2009 
Q 1159 1288 1364 580 
Q 1569 -128 1984 -844 
L 1484 -844 
Q 1016 -109 783 600 
Q 550 1309 550 2009 
Q 550 2706 781 3412 
Q 1013 4119 1484 4856 
L 1984 4856 
z
" transform="scale(0.015625)"/>
       <path id="DejaVuSans-Oblique-53" d="M 3859 4513 
L 3738 3897 
Q 3422 4066 3111 4152 
Q 2800 4238 2509 4238 
Q 1944 4238 1609 3991 
Q 1275 3744 1275 3334 
Q 1275 3109 1398 2989 
Q 1522 2869 2034 2731 
L 2413 2638 
Q 3053 2472 3303 2217 
Q 3553 1963 3553 1503 
Q 3553 797 2998 353 
Q 2444 -91 1538 -91 
Q 1166 -91 791 -17 
Q 416 56 38 206 
L 166 856 
Q 513 641 861 531 
Q 1209 422 1556 422 
Q 2147 422 2503 684 
Q 2859 947 2859 1369 
Q 2859 1650 2717 1795 
Q 2575 1941 2106 2059 
L 1728 2156 
Q 1081 2325 845 2545 
Q 609 2766 609 3163 
Q 609 3859 1145 4304 
Q 1681 4750 2541 4750 
Q 2875 4750 3203 4690 
Q 3531 4631 3859 4513 
z
" transform="scale(0.015625)"/>
       <path id="DejaVuSans-29" d="M 513 4856 
L 1013 4856 
Q 1481 4119 1714 3412 
Q 1947 2706 1947 2009 
Q 1947 1309 1714 600 
Q 1481 -109 1013 -844 
L 513 -844 
Q 928 -128 1133 580 
Q 1338 1288 1338 2009 
Q 1338 2731 1133 3434 
Q 928 4138 513 4856 
z
" transform="scale(0.015625)"/>
       <path id="DejaVuSans-20" transform="scale(0.015625)"/>
       <path id="DejaVuSans-5b" d="M 550 4863 
L 1875 4863 
L 1875 4416 
L 1125 4416 
L 1125 -397 
L 1875 -397 
L 1875 -844 
L 550 -844 
L 550 4863 
z
" transform="scale(0.015625)"/>
       <path id="DejaVuSans-6d" d="M 3328 2828 
Q 3544 3216 3844 3400 
Q 4144 3584 4550 3584 
Q 5097 3584 5394 3201 
Q 5691 2819 5691 2113 
L 5691 0 
L 5113 0 
L 5113 2094 
Q 5113 2597 4934 2840 
Q 4756 3084 4391 3084 
Q 3944 3084 3684 2787 
Q 3425 2491 3425 1978 
L 3425 0 
L 2847 0 
L 2847 2094 
Q 2847 2600 2669 2842 
Q 2491 3084 2119 3084 
Q 1678 3084 1418 2786 
Q 1159 2488 1159 1978 
L 1159 0 
L 581 0 
L 581 3500 
L 1159 3500 
L 1159 2956 
Q 1356 3278 1631 3431 
Q 1906 3584 2284 3584 
Q 2666 3584 2933 3390 
Q 3200 3197 3328 2828 
z
" transform="scale(0.015625)"/>
       <path id="DejaVuSans-56" d="M 1831 0 
L 50 4666 
L 709 4666 
L 2188 738 
L 3669 4666 
L 4325 4666 
L 2547 0 
L 1831 0 
z
" transform="scale(0.015625)"/>
       <path id="DejaVuSans-5d" d="M 1947 4863 
L 1947 -844 
L 622 -844 
L 622 -397 
L 1369 -397 
L 1369 4416 
L 622 4416 
L 622 4863 
L 1947 4863 
z
" transform="scale(0.015625)"/>
      </defs>
      <use xlink:href="#DejaVuSans-52" transform="translate(0 0.015625)"/>
      <use xlink:href="#DejaVuSans-65" transform="translate(69.482422 0.015625)"/>
      <use xlink:href="#DejaVuSans-28" transform="translate(131.005859 0.015625)"/>
      <use xlink:href="#DejaVuSans-Oblique-53" transform="translate(170.019531 0.015625)"/>
      <use xlink:href="#DejaVuSans-32" transform="translate(233.496094 -16.390625) scale(0.7)"/>
      <use xlink:href="#DejaVuSans-31" transform="translate(278.032227 -16.390625) scale(0.7)"/>
      <use xlink:href="#DejaVuSans-29" transform="translate(325.302734 0.015625)"/>
      <use xlink:href="#DejaVuSans-20" transform="translate(364.316406 0.015625)"/>
      <use xlink:href="#DejaVuSans-5b" transform="translate(396.103516 0.015625)"/>
      <use xlink:href="#DejaVuSans-6d" transform="translate(435.117188 0.015625)"/>
      <use xlink:href="#DejaVuSans-56" transform="translate(532.529297 0.015625)"/>
      <use xlink:href="#DejaVuSans-5d" transform="translate(600.9375 0.015625)"/>
     </g>
    </g>
   </g>
   <g id="matplotlib.axis_2">
    <g id="ytick_1">
     <g id="line2d_7">
      <defs>
       <path id="mab4f4e8850" d="M 0 0 
L -3.5 0 
" style="stroke: #000000; stroke-width: 0.8"/>
      </defs>
      <g>
       <use xlink:href="#mab4f4e8850" x="47.389063" y="307.638483" style="stroke: #000000; stroke-width: 0.8"/>
      </g>
     </g>
     <g id="text_8">
      <!-- -4.5 -->
      <g transform="translate(20.878125 311.437701) scale(0.1 -0.1)">
       <defs>
        <path id="DejaVuSans-34" d="M 2419 4116 
L 825 1625 
L 2419 1625 
L 2419 4116 
z
M 2253 4666 
L 3047 4666 
L 3047 1625 
L 3713 1625 
L 3713 1100 
L 3047 1100 
L 3047 0 
L 2419 0 
L 2419 1100 
L 313 1100 
L 313 1709 
L 2253 4666 
z
" transform="scale(0.015625)"/>
        <path id="DejaVuSans-2e" d="M 684 794 
L 1344 794 
L 1344 0 
L 684 0 
L 684 794 
z
" transform="scale(0.015625)"/>
        <path id="DejaVuSans-35" d="M 691 4666 
L 3169 4666 
L 3169 4134 
L 1269 4134 
L 1269 2991 
Q 1406 3038 1543 3061 
Q 1681 3084 1819 3084 
Q 2600 3084 3056 2656 
Q 3513 2228 3513 1497 
Q 3513 744 3044 326 
Q 2575 -91 1722 -91 
Q 1428 -91 1123 -41 
Q 819 9 494 109 
L 494 744 
Q 775 591 1075 516 
Q 1375 441 1709 441 
Q 2250 441 2565 725 
Q 2881 1009 2881 1497 
Q 2881 1984 2565 2268 
Q 2250 2553 1709 2553 
Q 1456 2553 1204 2497 
Q 953 2441 691 2322 
L 691 4666 
z
" transform="scale(0.015625)"/>
       </defs>
       <use xlink:href="#DejaVuSans-2d"/>
       <use xlink:href="#DejaVuSans-34" x="36.083984"/>
       <use xlink:href="#DejaVuSans-2e" x="99.707031"/>
       <use xlink:href="#DejaVuSans-35" x="131.494141"/>
      </g>
     </g>
    </g>
    <g id="ytick_2">
     <g id="line2d_8">
      <g>
       <use xlink:href="#mab4f4e8850" x="47.389063" y="257.546221" style="stroke: #000000; stroke-width: 0.8"/>
      </g>
     </g>
     <g id="text_9">
      <!-- -4 -->
      <g transform="translate(30.41875 261.34544) scale(0.1 -0.1)">
       <use xlink:href="#DejaVuSans-2d"/>
       <use xlink:href="#DejaVuSans-34" x="36.083984"/>
      </g>
     </g>
    </g>
    <g id="ytick_3">
     <g id="line2d_9">
      <g>
       <use xlink:href="#mab4f4e8850" x="47.389063" y="207.45396" style="stroke: #000000; stroke-width: 0.8"/>
      </g>
     </g>
     <g id="text_10">
      <!-- -3.5 -->
      <g transform="translate(20.878125 211.253179) scale(0.1 -0.1)">
       <use xlink:href="#DejaVuSans-2d"/>
       <use xlink:href="#DejaVuSans-33" x="36.083984"/>
       <use xlink:href="#DejaVuSans-2e" x="99.707031"/>
       <use xlink:href="#DejaVuSans-35" x="131.494141"/>
      </g>
     </g>
    </g>
    <g id="ytick_4">
     <g id="line2d_10">
      <g>
       <use xlink:href="#mab4f4e8850" x="47.389063" y="157.361698" style="stroke: #000000; stroke-width: 0.8"/>
      </g>
     </g>
     <g id="text_11">
      <!-- -3 -->
      <g transform="translate(30.41875 161.160917) scale(0.1 -0.1)">
       <use xlink:href="#DejaVuSans-2d"/>
       <use xlink:href="#DejaVuSans-33" x="36.083984"/>
      </g>
     </g>
    </g>
    <g id="ytick_5">
     <g id="line2d_11">
      <g>
       <use xlink:href="#mab4f4e8850" x="47.389063" y="107.269437" style="stroke: #000000; stroke-width: 0.8"/>
      </g>
     </g>
     <g id="text_12">
      <!-- -2.5 -->
      <g transform="translate(20.878125 111.068656) scale(0.1 -0.1)">
       <use xlink:href="#DejaVuSans-2d"/>
       <use xlink:href="#DejaVuSans-32" x="36.083984"/>
       <use xlink:href="#DejaVuSans-2e" x="99.707031"/>
       <use xlink:href="#DejaVuSans-35" x="131.494141"/>
      </g>
     </g>
    </g>
    <g id="ytick_6">
     <g id="line2d_12">
      <g>
       <use xlink:href="#mab4f4e8850" x="47.389063" y="57.177175" style="stroke: #000000; stroke-width: 0.8"/>
      </g>
     </g>
     <g id="text_13">
      <!-- -2 -->
      <g transform="translate(30.41875 60.976394) scale(0.1 -0.1)">
       <use xlink:href="#DejaVuSans-2d"/>
       <use xlink:href="#DejaVuSans-32" x="36.083984"/>
      </g>
     </g>
    </g>
    <g id="text_14">
     <!-- Im$(S_{21})$ [mV] -->
     <g transform="translate(14.798438 206.466) rotate(-90) scale(0.1 -0.1)">
      <defs>
       <path id="DejaVuSans-49" d="M 628 4666 
L 1259 4666 
L 1259 0 
L 628 0 
L 628 4666 
z
" transform="scale(0.015625)"/>
      </defs>
      <use xlink:href="#DejaVuSans-49" transform="translate(0 0.015625)"/>
      <use xlink:href="#DejaVuSans-6d" transform="translate(25.867188 0.015625)"/>
      <use xlink:href="#DejaVuSans-28" transform="translate(123.279297 0.015625)"/>
      <use xlink:href="#DejaVuSans-Oblique-53" transform="translate(162.292969 0.015625)"/>
      <use xlink:href="#DejaVuSans-32" transform="translate(225.769531 -16.390625) scale(0.7)"/>
      <use xlink:href="#DejaVuSans-31" transform="translate(270.305664 -16.390625) scale(0.7)"/>
      <use xlink:href="#DejaVuSans-29" transform="translate(317.576172 0.015625)"/>
      <use xlink:href="#DejaVuSans-20" transform="translate(356.589844 0.015625)"/>
      <use xlink:href="#DejaVuSans-5b" transform="translate(388.376953 0.015625)"/>
      <use xlink:href="#DejaVuSans-6d" transform="translate(427.390625 0.015625)"/>
      <use xlink:href="#DejaVuSans-56" transform="translate(524.802734 0.015625)"/>
      <use xlink:href="#DejaVuSans-5d" transform="translate(593.210938 0.015625)"/>
     </g>
    </g>
   </g>
   <g id="line2d_13">
    <path d="M 378.928839 158.163805 
L 384.614922 158.390897 
L 382.569739 159.034323 
L 378.875698 157.214872 
L 379.727248 167.7048 
L 377.738896 160.400569 
L 378.375681 167.148709 
L 375.907378 171.000998 
L 376.970132 176.114253 
L 370.88779 168.496357 
L 373.959739 171.770259 
L 368.445766 174.288168 
L 364.187046 179.573264 
L 359.740617 183.088288 
L 365.844125 190.605036 
L 360.313064 178.444442 
L 362.755023 186.165333 
L 359.966126 188.709018 
L 361.012699 195.456723 
L 358.731521 200.662968 
L 353.035471 192.68301 
L 356.752943 201.896854 
L 349.271589 202.141238 
L 350.541341 207.095377 
L 344.739721 210.788115 
L 342.313166 203.360876 
L 339.52045 207.773715 
L 344.658165 208.644667 
L 336.464554 209.694313 
L 334.709608 214.531534 
L 339.23578 214.883374 
L 338.701199 225.590496 
L 340.533494 227.924165 
L 337.223673 215.646871 
L 335.494683 218.798091 
L 330.438654 228.306349 
L 327.247025 224.288201 
L 330.879575 231.404059 
L 327.83766 219.459027 
L 321.502623 239.548463 
L 323.333236 242.160885 
L 315.799065 240.185581 
L 319.911502 236.884924 
L 317.825541 243.956299 
L 317.263645 244.98006 
L 315.045447 240.455089 
L 308.732159 251.354499 
L 307.072361 237.418611 
L 305.431011 250.275923 
L 304.791443 251.022236 
L 303.180256 245.683956 
L 299.002185 251.987484 
L 300.015035 247.767477 
L 295.169046 255.152625 
L 298.131347 258.675697 
L 287.908088 262.898858 
L 292.970525 254.289612 
L 286.631022 261.390897 
L 284.075596 261.470618 
L 284.959509 261.802228 
L 275.713824 267.466137 
L 271.239563 268.625086 
L 275.493105 263.481487 
L 274.945319 268.456616 
L 274.53838 268.124789 
L 266.945243 270.328598 
L 263.258063 272.972234 
L 264.99482 281.685237 
L 264.102104 272.180568 
L 260.229287 292.49579 
L 251.789001 284.751298 
L 250.861721 278.19164 
L 249.746084 282.652551 
L 243.398297 277.024751 
L 241.498038 284.796977 
L 238.04873 282.995254 
L 231.788777 277.625216 
L 232.335851 292.578122 
L 231.561003 291.897282 
L 224.296679 285.357854 
L 220.948281 291.285941 
L 217.151777 295.776 
L 204.794465 291.498676 
L 198.289391 285.471726 
L 195.926075 275.478397 
L 182.841166 276.368709 
L 178.545745 271.700065 
L 164.603784 263.575021 
L 153.295181 248.051667 
L 144.341933 232.776722 
L 143.368179 202.217588 
L 149.809886 154.606366 
L 148.47217 125.306893 
L 155.918183 91.551838 
L 175.606681 66.108025 
L 191.765998 57.298661 
L 218.060157 59.628632 
L 231.37174 69.715059 
L 242.677754 88.717001 
L 255.010728 118.201584 
L 263.818276 127.742688 
L 261.274177 134.656578 
L 261.62079 148.481857 
L 258.040022 164.73521 
L 250.110692 189.610424 
L 251.608154 179.826785 
L 248.34636 190.821034 
L 243.505808 196.131798 
L 238.661761 207.63994 
L 236.964098 213.119717 
L 234.916068 205.847571 
L 228.643234 228.930307 
L 226.329369 206.954098 
L 223.508821 224.799809 
L 228.69508 222.362383 
L 219.235472 227.492387 
L 220.042295 223.957461 
L 218.44483 227.122711 
L 215.386992 224.183573 
L 209.992829 230.95564 
L 208.737058 225.179709 
L 210.503332 236.870133 
L 207.634626 235.332045 
L 203.943174 232.143846 
L 203.016865 231.597 
L 203.956961 235.475717 
L 198.825137 233.309213 
L 196.382206 236.421714 
L 196.348289 234.542228 
L 190.813021 235.24558 
L 185.516208 236.496541 
L 179.148031 227.720349 
L 178.472927 229.143585 
L 178.366192 240.110754 
L 175.816785 231.220254 
L 179.093013 237.157151 
L 169.227954 235.56142 
L 165.936516 234.733755 
L 172.551108 230.928124 
L 166.185844 244.003827 
L 162.12862 232.56551 
L 163.489637 224.996883 
L 162.011723 225.768537 
L 156.133465 216.689012 
L 160.467463 236.296966 
L 151.927239 231.046673 
L 152.436835 223.578866 
L 147.253682 221.209524 
L 146.487767 232.281319 
L 150.740661 227.361548 
L 139.87285 226.394017 
L 137.554908 231.007193 
L 141.010429 232.377028 
L 139.352444 217.663504 
L 140.922206 216.253427 
L 135.716852 222.76088 
L 135.045696 214.54948 
L 128.859921 224.174872 
L 128.840049 224.45754 
L 126.251289 224.162148 
L 127.526154 222.180644 
L 124.193743 217.639685 
L 119.358693 216.92165 
L 120.939652 208.546674 
L 119.87515 215.419671 
L 113.396226 214.688475 
L 115.94492 210.599959 
L 113.172788 211.187917 
L 115.550797 198.483956 
L 111.621085 205.305836 
L 108.392885 196.807199 
L 110.064915 200.38476 
L 109.964588 200.10046 
L 103.924254 200.052497 
L 101.602428 197.013735 
L 102.057654 202.735722 
L 99.874279 186.872166 
L 93.792455 195.107059 
L 92.406777 191.892214 
L 92.698761 188.563932 
L 94.222114 182.184381 
L 91.9755 190.033283 
L 92.16897 187.632944 
L 87.301685 191.691443 
L 84.88607 183.937488 
L 80.230637 176.58562 
L 77.931983 176.774863 
L 80.950855 178.973669 
L 89.126213 177.269613 
L 75.27856 183.24077 
L 75.104962 176.158301 
L 75.640967 181.559227 
L 70.654714 171.203292 
L 75.339533 160.714669 
L 65.139899 170.488845 
L 66.361365 165.357971 
L 71.302697 163.034525 
L 69.504125 170.50777 
L 63.62179 159.002891 
L 63.62179 159.002891 
" clip-path="url(#pf3de17060f)" style="fill: none; stroke: #1f77b4; stroke-width: 1.5; stroke-linecap: square"/>
    <defs>
     <path id="m0e0a2a8fac" d="M 0 1.5 
C 0.397805 1.5 0.77937 1.341951 1.06066 1.06066 
C 1.341951 0.77937 1.5 0.397805 1.5 0 
C 1.5 -0.397805 1.341951 -0.77937 1.06066 -1.06066 
C 0.77937 -1.341951 0.397805 -1.5 0 -1.5 
C -0.397805 -1.5 -0.77937 -1.341951 -1.06066 -1.06066 
C -1.341951 -0.77937 -1.5 -0.397805 -1.5 0 
C -1.5 0.397805 -1.341951 0.77937 -1.06066 1.06066 
C -0.77937 1.341951 -0.397805 1.5 0 1.5 
z
" style="stroke: #1f77b4"/>
    </defs>
    <g clip-path="url(#pf3de17060f)">
     <use xlink:href="#m0e0a2a8fac" x="378.928839" y="158.163805" style="fill: #1f77b4; stroke: #1f77b4"/>
     <use xlink:href="#m0e0a2a8fac" x="384.614922" y="158.390897" style="fill: #1f77b4; stroke: #1f77b4"/>
     <use xlink:href="#m0e0a2a8fac" x="382.569739" y="159.034323" style="fill: #1f77b4; stroke: #1f77b4"/>
     <use xlink:href="#m0e0a2a8fac" x="378.875698" y="157.214872" style="fill: #1f77b4; stroke: #1f77b4"/>
     <use xlink:href="#m0e0a2a8fac" x="379.727248" y="167.7048" style="fill: #1f77b4; stroke: #1f77b4"/>
     <use xlink:href="#m0e0a2a8fac" x="377.738896" y="160.400569" style="fill: #1f77b4; stroke: #1f77b4"/>
     <use xlink:href="#m0e0a2a8fac" x="378.375681" y="167.148709" style="fill: #1f77b4; stroke: #1f77b4"/>
     <use xlink:href="#m0e0a2a8fac" x="375.907378" y="171.000998" style="fill: #1f77b4; stroke: #1f77b4"/>
     <use xlink:href="#m0e0a2a8fac" x="376.970132" y="176.114253" style="fill: #1f77b4; stroke: #1f77b4"/>
     <use xlink:href="#m0e0a2a8fac" x="370.88779" y="168.496357" style="fill: #1f77b4; stroke: #1f77b4"/>
     <use xlink:href="#m0e0a2a8fac" x="373.959739" y="171.770259" style="fill: #1f77b4; stroke: #1f77b4"/>
     <use xlink:href="#m0e0a2a8fac" x="368.445766" y="174.288168" style="fill: #1f77b4; stroke: #1f77b4"/>
     <use xlink:href="#m0e0a2a8fac" x="364.187046" y="179.573264" style="fill: #1f77b4; stroke: #1f77b4"/>
     <use xlink:href="#m0e0a2a8fac" x="359.740617" y="183.088288" style="fill: #1f77b4; stroke: #1f77b4"/>
     <use xlink:href="#m0e0a2a8fac" x="365.844125" y="190.605036" style="fill: #1f77b4; stroke: #1f77b4"/>
     <use xlink:href="#m0e0a2a8fac" x="360.313064" y="178.444442" style="fill: #1f77b4; stroke: #1f77b4"/>
     <use xlink:href="#m0e0a2a8fac" x="362.755023" y="186.165333" style="fill: #1f77b4; stroke: #1f77b4"/>
     <use xlink:href="#m0e0a2a8fac" x="359.966126" y="188.709018" style="fill: #1f77b4; stroke: #1f77b4"/>
     <use xlink:href="#m0e0a2a8fac" x="361.012699" y="195.456723" style="fill: #1f77b4; stroke: #1f77b4"/>
     <use xlink:href="#m0e0a2a8fac" x="358.731521" y="200.662968" style="fill: #1f77b4; stroke: #1f77b4"/>
     <use xlink:href="#m0e0a2a8fac" x="353.035471" y="192.68301" style="fill: #1f77b4; stroke: #1f77b4"/>
     <use xlink:href="#m0e0a2a8fac" x="356.752943" y="201.896854" style="fill: #1f77b4; stroke: #1f77b4"/>
     <use xlink:href="#m0e0a2a8fac" x="349.271589" y="202.141238" style="fill: #1f77b4; stroke: #1f77b4"/>
     <use xlink:href="#m0e0a2a8fac" x="350.541341" y="207.095377" style="fill: #1f77b4; stroke: #1f77b4"/>
     <use xlink:href="#m0e0a2a8fac" x="344.739721" y="210.788115" style="fill: #1f77b4; stroke: #1f77b4"/>
     <use xlink:href="#m0e0a2a8fac" x="342.313166" y="203.360876" style="fill: #1f77b4; stroke: #1f77b4"/>
     <use xlink:href="#m0e0a2a8fac" x="339.52045" y="207.773715" style="fill: #1f77b4; stroke: #1f77b4"/>
     <use xlink:href="#m0e0a2a8fac" x="344.658165" y="208.644667" style="fill: #1f77b4; stroke: #1f77b4"/>
     <use xlink:href="#m0e0a2a8fac" x="336.464554" y="209.694313" style="fill: #1f77b4; stroke: #1f77b4"/>
     <use xlink:href="#m0e0a2a8fac" x="334.709608" y="214.531534" style="fill: #1f77b4; stroke: #1f77b4"/>
     <use xlink:href="#m0e0a2a8fac" x="339.23578" y="214.883374" style="fill: #1f77b4; stroke: #1f77b4"/>
     <use xlink:href="#m0e0a2a8fac" x="338.701199" y="225.590496" style="fill: #1f77b4; stroke: #1f77b4"/>
     <use xlink:href="#m0e0a2a8fac" x="340.533494" y="227.924165" style="fill: #1f77b4; stroke: #1f77b4"/>
     <use xlink:href="#m0e0a2a8fac" x="337.223673" y="215.646871" style="fill: #1f77b4; stroke: #1f77b4"/>
     <use xlink:href="#m0e0a2a8fac" x="335.494683" y="218.798091" style="fill: #1f77b4; stroke: #1f77b4"/>
     <use xlink:href="#m0e0a2a8fac" x="330.438654" y="228.306349" style="fill: #1f77b4; stroke: #1f77b4"/>
     <use xlink:href="#m0e0a2a8fac" x="327.247025" y="224.288201" style="fill: #1f77b4; stroke: #1f77b4"/>
     <use xlink:href="#m0e0a2a8fac" x="330.879575" y="231.404059" style="fill: #1f77b4; stroke: #1f77b4"/>
     <use xlink:href="#m0e0a2a8fac" x="327.83766" y="219.459027" style="fill: #1f77b4; stroke: #1f77b4"/>
     <use xlink:href="#m0e0a2a8fac" x="321.502623" y="239.548463" style="fill: #1f77b4; stroke: #1f77b4"/>
     <use xlink:href="#m0e0a2a8fac" x="323.333236" y="242.160885" style="fill: #1f77b4; stroke: #1f77b4"/>
     <use xlink:href="#m0e0a2a8fac" x="315.799065" y="240.185581" style="fill: #1f77b4; stroke: #1f77b4"/>
     <use xlink:href="#m0e0a2a8fac" x="319.911502" y="236.884924" style="fill: #1f77b4; stroke: #1f77b4"/>
     <use xlink:href="#m0e0a2a8fac" x="317.825541" y="243.956299" style="fill: #1f77b4; stroke: #1f77b4"/>
     <use xlink:href="#m0e0a2a8fac" x="317.263645" y="244.98006" style="fill: #1f77b4; stroke: #1f77b4"/>
     <use xlink:href="#m0e0a2a8fac" x="315.045447" y="240.455089" style="fill: #1f77b4; stroke: #1f77b4"/>
     <use xlink:href="#m0e0a2a8fac" x="308.732159" y="251.354499" style="fill: #1f77b4; stroke: #1f77b4"/>
     <use xlink:href="#m0e0a2a8fac" x="307.072361" y="237.418611" style="fill: #1f77b4; stroke: #1f77b4"/>
     <use xlink:href="#m0e0a2a8fac" x="305.431011" y="250.275923" style="fill: #1f77b4; stroke: #1f77b4"/>
     <use xlink:href="#m0e0a2a8fac" x="304.791443" y="251.022236" style="fill: #1f77b4; stroke: #1f77b4"/>
     <use xlink:href="#m0e0a2a8fac" x="303.180256" y="245.683956" style="fill: #1f77b4; stroke: #1f77b4"/>
     <use xlink:href="#m0e0a2a8fac" x="299.002185" y="251.987484" style="fill: #1f77b4; stroke: #1f77b4"/>
     <use xlink:href="#m0e0a2a8fac" x="300.015035" y="247.767477" style="fill: #1f77b4; stroke: #1f77b4"/>
     <use xlink:href="#m0e0a2a8fac" x="295.169046" y="255.152625" style="fill: #1f77b4; stroke: #1f77b4"/>
     <use xlink:href="#m0e0a2a8fac" x="298.131347" y="258.675697" style="fill: #1f77b4; stroke: #1f77b4"/>
     <use xlink:href="#m0e0a2a8fac" x="287.908088" y="262.898858" style="fill: #1f77b4; stroke: #1f77b4"/>
     <use xlink:href="#m0e0a2a8fac" x="292.970525" y="254.289612" style="fill: #1f77b4; stroke: #1f77b4"/>
     <use xlink:href="#m0e0a2a8fac" x="286.631022" y="261.390897" style="fill: #1f77b4; stroke: #1f77b4"/>
     <use xlink:href="#m0e0a2a8fac" x="284.075596" y="261.470618" style="fill: #1f77b4; stroke: #1f77b4"/>
     <use xlink:href="#m0e0a2a8fac" x="284.959509" y="261.802228" style="fill: #1f77b4; stroke: #1f77b4"/>
     <use xlink:href="#m0e0a2a8fac" x="275.713824" y="267.466137" style="fill: #1f77b4; stroke: #1f77b4"/>
     <use xlink:href="#m0e0a2a8fac" x="271.239563" y="268.625086" style="fill: #1f77b4; stroke: #1f77b4"/>
     <use xlink:href="#m0e0a2a8fac" x="275.493105" y="263.481487" style="fill: #1f77b4; stroke: #1f77b4"/>
     <use xlink:href="#m0e0a2a8fac" x="274.945319" y="268.456616" style="fill: #1f77b4; stroke: #1f77b4"/>
     <use xlink:href="#m0e0a2a8fac" x="274.53838" y="268.124789" style="fill: #1f77b4; stroke: #1f77b4"/>
     <use xlink:href="#m0e0a2a8fac" x="266.945243" y="270.328598" style="fill: #1f77b4; stroke: #1f77b4"/>
     <use xlink:href="#m0e0a2a8fac" x="263.258063" y="272.972234" style="fill: #1f77b4; stroke: #1f77b4"/>
     <use xlink:href="#m0e0a2a8fac" x="264.99482" y="281.685237" style="fill: #1f77b4; stroke: #1f77b4"/>
     <use xlink:href="#m0e0a2a8fac" x="264.102104" y="272.180568" style="fill: #1f77b4; stroke: #1f77b4"/>
     <use xlink:href="#m0e0a2a8fac" x="260.229287" y="292.49579" style="fill: #1f77b4; stroke: #1f77b4"/>
     <use xlink:href="#m0e0a2a8fac" x="251.789001" y="284.751298" style="fill: #1f77b4; stroke: #1f77b4"/>
     <use xlink:href="#m0e0a2a8fac" x="250.861721" y="278.19164" style="fill: #1f77b4; stroke: #1f77b4"/>
     <use xlink:href="#m0e0a2a8fac" x="249.746084" y="282.652551" style="fill: #1f77b4; stroke: #1f77b4"/>
     <use xlink:href="#m0e0a2a8fac" x="243.398297" y="277.024751" style="fill: #1f77b4; stroke: #1f77b4"/>
     <use xlink:href="#m0e0a2a8fac" x="241.498038" y="284.796977" style="fill: #1f77b4; stroke: #1f77b4"/>
     <use xlink:href="#m0e0a2a8fac" x="238.04873" y="282.995254" style="fill: #1f77b4; stroke: #1f77b4"/>
     <use xlink:href="#m0e0a2a8fac" x="231.788777" y="277.625216" style="fill: #1f77b4; stroke: #1f77b4"/>
     <use xlink:href="#m0e0a2a8fac" x="232.335851" y="292.578122" style="fill: #1f77b4; stroke: #1f77b4"/>
     <use xlink:href="#m0e0a2a8fac" x="231.561003" y="291.897282" style="fill: #1f77b4; stroke: #1f77b4"/>
     <use xlink:href="#m0e0a2a8fac" x="224.296679" y="285.357854" style="fill: #1f77b4; stroke: #1f77b4"/>
     <use xlink:href="#m0e0a2a8fac" x="220.948281" y="291.285941" style="fill: #1f77b4; stroke: #1f77b4"/>
     <use xlink:href="#m0e0a2a8fac" x="217.151777" y="295.776" style="fill: #1f77b4; stroke: #1f77b4"/>
     <use xlink:href="#m0e0a2a8fac" x="204.794465" y="291.498676" style="fill: #1f77b4; stroke: #1f77b4"/>
     <use xlink:href="#m0e0a2a8fac" x="198.289391" y="285.471726" style="fill: #1f77b4; stroke: #1f77b4"/>
     <use xlink:href="#m0e0a2a8fac" x="195.926075" y="275.478397" style="fill: #1f77b4; stroke: #1f77b4"/>
     <use xlink:href="#m0e0a2a8fac" x="182.841166" y="276.368709" style="fill: #1f77b4; stroke: #1f77b4"/>
     <use xlink:href="#m0e0a2a8fac" x="178.545745" y="271.700065" style="fill: #1f77b4; stroke: #1f77b4"/>
     <use xlink:href="#m0e0a2a8fac" x="164.603784" y="263.575021" style="fill: #1f77b4; stroke: #1f77b4"/>
     <use xlink:href="#m0e0a2a8fac" x="153.295181" y="248.051667" style="fill: #1f77b4; stroke: #1f77b4"/>
     <use xlink:href="#m0e0a2a8fac" x="144.341933" y="232.776722" style="fill: #1f77b4; stroke: #1f77b4"/>
     <use xlink:href="#m0e0a2a8fac" x="143.368179" y="202.217588" style="fill: #1f77b4; stroke: #1f77b4"/>
     <use xlink:href="#m0e0a2a8fac" x="149.809886" y="154.606366" style="fill: #1f77b4; stroke: #1f77b4"/>
     <use xlink:href="#m0e0a2a8fac" x="148.47217" y="125.306893" style="fill: #1f77b4; stroke: #1f77b4"/>
     <use xlink:href="#m0e0a2a8fac" x="155.918183" y="91.551838" style="fill: #1f77b4; stroke: #1f77b4"/>
     <use xlink:href="#m0e0a2a8fac" x="175.606681" y="66.108025" style="fill: #1f77b4; stroke: #1f77b4"/>
     <use xlink:href="#m0e0a2a8fac" x="191.765998" y="57.298661" style="fill: #1f77b4; stroke: #1f77b4"/>
     <use xlink:href="#m0e0a2a8fac" x="218.060157" y="59.628632" style="fill: #1f77b4; stroke: #1f77b4"/>
     <use xlink:href="#m0e0a2a8fac" x="231.37174" y="69.715059" style="fill: #1f77b4; stroke: #1f77b4"/>
     <use xlink:href="#m0e0a2a8fac" x="242.677754" y="88.717001" style="fill: #1f77b4; stroke: #1f77b4"/>
     <use xlink:href="#m0e0a2a8fac" x="255.010728" y="118.201584" style="fill: #1f77b4; stroke: #1f77b4"/>
     <use xlink:href="#m0e0a2a8fac" x="263.818276" y="127.742688" style="fill: #1f77b4; stroke: #1f77b4"/>
     <use xlink:href="#m0e0a2a8fac" x="261.274177" y="134.656578" style="fill: #1f77b4; stroke: #1f77b4"/>
     <use xlink:href="#m0e0a2a8fac" x="261.62079" y="148.481857" style="fill: #1f77b4; stroke: #1f77b4"/>
     <use xlink:href="#m0e0a2a8fac" x="258.040022" y="164.73521" style="fill: #1f77b4; stroke: #1f77b4"/>
     <use xlink:href="#m0e0a2a8fac" x="250.110692" y="189.610424" style="fill: #1f77b4; stroke: #1f77b4"/>
     <use xlink:href="#m0e0a2a8fac" x="251.608154" y="179.826785" style="fill: #1f77b4; stroke: #1f77b4"/>
     <use xlink:href="#m0e0a2a8fac" x="248.34636" y="190.821034" style="fill: #1f77b4; stroke: #1f77b4"/>
     <use xlink:href="#m0e0a2a8fac" x="243.505808" y="196.131798" style="fill: #1f77b4; stroke: #1f77b4"/>
     <use xlink:href="#m0e0a2a8fac" x="238.661761" y="207.63994" style="fill: #1f77b4; stroke: #1f77b4"/>
     <use xlink:href="#m0e0a2a8fac" x="236.964098" y="213.119717" style="fill: #1f77b4; stroke: #1f77b4"/>
     <use xlink:href="#m0e0a2a8fac" x="234.916068" y="205.847571" style="fill: #1f77b4; stroke: #1f77b4"/>
     <use xlink:href="#m0e0a2a8fac" x="228.643234" y="228.930307" style="fill: #1f77b4; stroke: #1f77b4"/>
     <use xlink:href="#m0e0a2a8fac" x="226.329369" y="206.954098" style="fill: #1f77b4; stroke: #1f77b4"/>
     <use xlink:href="#m0e0a2a8fac" x="223.508821" y="224.799809" style="fill: #1f77b4; stroke: #1f77b4"/>
     <use xlink:href="#m0e0a2a8fac" x="228.69508" y="222.362383" style="fill: #1f77b4; stroke: #1f77b4"/>
     <use xlink:href="#m0e0a2a8fac" x="219.235472" y="227.492387" style="fill: #1f77b4; stroke: #1f77b4"/>
     <use xlink:href="#m0e0a2a8fac" x="220.042295" y="223.957461" style="fill: #1f77b4; stroke: #1f77b4"/>
     <use xlink:href="#m0e0a2a8fac" x="218.44483" y="227.122711" style="fill: #1f77b4; stroke: #1f77b4"/>
     <use xlink:href="#m0e0a2a8fac" x="215.386992" y="224.183573" style="fill: #1f77b4; stroke: #1f77b4"/>
     <use xlink:href="#m0e0a2a8fac" x="209.992829" y="230.95564" style="fill: #1f77b4; stroke: #1f77b4"/>
     <use xlink:href="#m0e0a2a8fac" x="208.737058" y="225.179709" style="fill: #1f77b4; stroke: #1f77b4"/>
     <use xlink:href="#m0e0a2a8fac" x="210.503332" y="236.870133" style="fill: #1f77b4; stroke: #1f77b4"/>
     <use xlink:href="#m0e0a2a8fac" x="207.634626" y="235.332045" style="fill: #1f77b4; stroke: #1f77b4"/>
     <use xlink:href="#m0e0a2a8fac" x="203.943174" y="232.143846" style="fill: #1f77b4; stroke: #1f77b4"/>
     <use xlink:href="#m0e0a2a8fac" x="203.016865" y="231.597" style="fill: #1f77b4; stroke: #1f77b4"/>
     <use xlink:href="#m0e0a2a8fac" x="203.956961" y="235.475717" style="fill: #1f77b4; stroke: #1f77b4"/>
     <use xlink:href="#m0e0a2a8fac" x="198.825137" y="233.309213" style="fill: #1f77b4; stroke: #1f77b4"/>
     <use xlink:href="#m0e0a2a8fac" x="196.382206" y="236.421714" style="fill: #1f77b4; stroke: #1f77b4"/>
     <use xlink:href="#m0e0a2a8fac" x="196.348289" y="234.542228" style="fill: #1f77b4; stroke: #1f77b4"/>
     <use xlink:href="#m0e0a2a8fac" x="190.813021" y="235.24558" style="fill: #1f77b4; stroke: #1f77b4"/>
     <use xlink:href="#m0e0a2a8fac" x="185.516208" y="236.496541" style="fill: #1f77b4; stroke: #1f77b4"/>
     <use xlink:href="#m0e0a2a8fac" x="181.833559" y="231.32847" style="fill: #1f77b4; stroke: #1f77b4"/>
     <use xlink:href="#m0e0a2a8fac" x="179.148031" y="227.720349" style="fill: #1f77b4; stroke: #1f77b4"/>
     <use xlink:href="#m0e0a2a8fac" x="178.472927" y="229.143585" style="fill: #1f77b4; stroke: #1f77b4"/>
     <use xlink:href="#m0e0a2a8fac" x="178.366192" y="240.110754" style="fill: #1f77b4; stroke: #1f77b4"/>
     <use xlink:href="#m0e0a2a8fac" x="175.816785" y="231.220254" style="fill: #1f77b4; stroke: #1f77b4"/>
     <use xlink:href="#m0e0a2a8fac" x="179.093013" y="237.157151" style="fill: #1f77b4; stroke: #1f77b4"/>
     <use xlink:href="#m0e0a2a8fac" x="169.227954" y="235.56142" style="fill: #1f77b4; stroke: #1f77b4"/>
     <use xlink:href="#m0e0a2a8fac" x="165.936516" y="234.733755" style="fill: #1f77b4; stroke: #1f77b4"/>
     <use xlink:href="#m0e0a2a8fac" x="172.551108" y="230.928124" style="fill: #1f77b4; stroke: #1f77b4"/>
     <use xlink:href="#m0e0a2a8fac" x="166.185844" y="244.003827" style="fill: #1f77b4; stroke: #1f77b4"/>
     <use xlink:href="#m0e0a2a8fac" x="162.12862" y="232.56551" style="fill: #1f77b4; stroke: #1f77b4"/>
     <use xlink:href="#m0e0a2a8fac" x="163.489637" y="224.996883" style="fill: #1f77b4; stroke: #1f77b4"/>
     <use xlink:href="#m0e0a2a8fac" x="162.011723" y="225.768537" style="fill: #1f77b4; stroke: #1f77b4"/>
     <use xlink:href="#m0e0a2a8fac" x="156.133465" y="216.689012" style="fill: #1f77b4; stroke: #1f77b4"/>
     <use xlink:href="#m0e0a2a8fac" x="160.467463" y="236.296966" style="fill: #1f77b4; stroke: #1f77b4"/>
     <use xlink:href="#m0e0a2a8fac" x="151.927239" y="231.046673" style="fill: #1f77b4; stroke: #1f77b4"/>
     <use xlink:href="#m0e0a2a8fac" x="152.436835" y="223.578866" style="fill: #1f77b4; stroke: #1f77b4"/>
     <use xlink:href="#m0e0a2a8fac" x="147.253682" y="221.209524" style="fill: #1f77b4; stroke: #1f77b4"/>
     <use xlink:href="#m0e0a2a8fac" x="146.487767" y="232.281319" style="fill: #1f77b4; stroke: #1f77b4"/>
     <use xlink:href="#m0e0a2a8fac" x="150.740661" y="227.361548" style="fill: #1f77b4; stroke: #1f77b4"/>
     <use xlink:href="#m0e0a2a8fac" x="139.87285" y="226.394017" style="fill: #1f77b4; stroke: #1f77b4"/>
     <use xlink:href="#m0e0a2a8fac" x="137.554908" y="231.007193" style="fill: #1f77b4; stroke: #1f77b4"/>
     <use xlink:href="#m0e0a2a8fac" x="141.010429" y="232.377028" style="fill: #1f77b4; stroke: #1f77b4"/>
     <use xlink:href="#m0e0a2a8fac" x="139.352444" y="217.663504" style="fill: #1f77b4; stroke: #1f77b4"/>
     <use xlink:href="#m0e0a2a8fac" x="140.922206" y="216.253427" style="fill: #1f77b4; stroke: #1f77b4"/>
     <use xlink:href="#m0e0a2a8fac" x="135.716852" y="222.76088" style="fill: #1f77b4; stroke: #1f77b4"/>
     <use xlink:href="#m0e0a2a8fac" x="135.045696" y="214.54948" style="fill: #1f77b4; stroke: #1f77b4"/>
     <use xlink:href="#m0e0a2a8fac" x="128.859921" y="224.174872" style="fill: #1f77b4; stroke: #1f77b4"/>
     <use xlink:href="#m0e0a2a8fac" x="128.840049" y="224.45754" style="fill: #1f77b4; stroke: #1f77b4"/>
     <use xlink:href="#m0e0a2a8fac" x="126.251289" y="224.162148" style="fill: #1f77b4; stroke: #1f77b4"/>
     <use xlink:href="#m0e0a2a8fac" x="127.526154" y="222.180644" style="fill: #1f77b4; stroke: #1f77b4"/>
     <use xlink:href="#m0e0a2a8fac" x="124.193743" y="217.639685" style="fill: #1f77b4; stroke: #1f77b4"/>
     <use xlink:href="#m0e0a2a8fac" x="119.358693" y="216.92165" style="fill: #1f77b4; stroke: #1f77b4"/>
     <use xlink:href="#m0e0a2a8fac" x="120.939652" y="208.546674" style="fill: #1f77b4; stroke: #1f77b4"/>
     <use xlink:href="#m0e0a2a8fac" x="119.87515" y="215.419671" style="fill: #1f77b4; stroke: #1f77b4"/>
     <use xlink:href="#m0e0a2a8fac" x="113.396226" y="214.688475" style="fill: #1f77b4; stroke: #1f77b4"/>
     <use xlink:href="#m0e0a2a8fac" x="115.94492" y="210.599959" style="fill: #1f77b4; stroke: #1f77b4"/>
     <use xlink:href="#m0e0a2a8fac" x="113.172788" y="211.187917" style="fill: #1f77b4; stroke: #1f77b4"/>
     <use xlink:href="#m0e0a2a8fac" x="115.550797" y="198.483956" style="fill: #1f77b4; stroke: #1f77b4"/>
     <use xlink:href="#m0e0a2a8fac" x="111.621085" y="205.305836" style="fill: #1f77b4; stroke: #1f77b4"/>
     <use xlink:href="#m0e0a2a8fac" x="108.392885" y="196.807199" style="fill: #1f77b4; stroke: #1f77b4"/>
     <use xlink:href="#m0e0a2a8fac" x="110.064915" y="200.38476" style="fill: #1f77b4; stroke: #1f77b4"/>
     <use xlink:href="#m0e0a2a8fac" x="109.964588" y="200.10046" style="fill: #1f77b4; stroke: #1f77b4"/>
     <use xlink:href="#m0e0a2a8fac" x="103.924254" y="200.052497" style="fill: #1f77b4; stroke: #1f77b4"/>
     <use xlink:href="#m0e0a2a8fac" x="101.602428" y="197.013735" style="fill: #1f77b4; stroke: #1f77b4"/>
     <use xlink:href="#m0e0a2a8fac" x="102.057654" y="202.735722" style="fill: #1f77b4; stroke: #1f77b4"/>
     <use xlink:href="#m0e0a2a8fac" x="99.874279" y="186.872166" style="fill: #1f77b4; stroke: #1f77b4"/>
     <use xlink:href="#m0e0a2a8fac" x="93.792455" y="195.107059" style="fill: #1f77b4; stroke: #1f77b4"/>
     <use xlink:href="#m0e0a2a8fac" x="92.406777" y="191.892214" style="fill: #1f77b4; stroke: #1f77b4"/>
     <use xlink:href="#m0e0a2a8fac" x="92.698761" y="188.563932" style="fill: #1f77b4; stroke: #1f77b4"/>
     <use xlink:href="#m0e0a2a8fac" x="94.222114" y="182.184381" style="fill: #1f77b4; stroke: #1f77b4"/>
     <use xlink:href="#m0e0a2a8fac" x="91.9755" y="190.033283" style="fill: #1f77b4; stroke: #1f77b4"/>
     <use xlink:href="#m0e0a2a8fac" x="92.16897" y="187.632944" style="fill: #1f77b4; stroke: #1f77b4"/>
     <use xlink:href="#m0e0a2a8fac" x="87.301685" y="191.691443" style="fill: #1f77b4; stroke: #1f77b4"/>
     <use xlink:href="#m0e0a2a8fac" x="84.88607" y="183.937488" style="fill: #1f77b4; stroke: #1f77b4"/>
     <use xlink:href="#m0e0a2a8fac" x="80.230637" y="176.58562" style="fill: #1f77b4; stroke: #1f77b4"/>
     <use xlink:href="#m0e0a2a8fac" x="77.931983" y="176.774863" style="fill: #1f77b4; stroke: #1f77b4"/>
     <use xlink:href="#m0e0a2a8fac" x="80.950855" y="178.973669" style="fill: #1f77b4; stroke: #1f77b4"/>
     <use xlink:href="#m0e0a2a8fac" x="89.126213" y="177.269613" style="fill: #1f77b4; stroke: #1f77b4"/>
     <use xlink:href="#m0e0a2a8fac" x="75.27856" y="183.24077" style="fill: #1f77b4; stroke: #1f77b4"/>
     <use xlink:href="#m0e0a2a8fac" x="75.104962" y="176.158301" style="fill: #1f77b4; stroke: #1f77b4"/>
     <use xlink:href="#m0e0a2a8fac" x="75.640967" y="181.559227" style="fill: #1f77b4; stroke: #1f77b4"/>
     <use xlink:href="#m0e0a2a8fac" x="70.654714" y="171.203292" style="fill: #1f77b4; stroke: #1f77b4"/>
     <use xlink:href="#m0e0a2a8fac" x="75.339533" y="160.714669" style="fill: #1f77b4; stroke: #1f77b4"/>
     <use xlink:href="#m0e0a2a8fac" x="65.139899" y="170.488845" style="fill: #1f77b4; stroke: #1f77b4"/>
     <use xlink:href="#m0e0a2a8fac" x="66.361365" y="165.357971" style="fill: #1f77b4; stroke: #1f77b4"/>
     <use xlink:href="#m0e0a2a8fac" x="71.302697" y="163.034525" style="fill: #1f77b4; stroke: #1f77b4"/>
     <use xlink:href="#m0e0a2a8fac" x="69.504125" y="170.50777" style="fill: #1f77b4; stroke: #1f77b4"/>
     <use xlink:href="#m0e0a2a8fac" x="63.62179" y="159.002891" style="fill: #1f77b4; stroke: #1f77b4"/>
    </g>
   </g>
   <g id="line2d_14">
    <path d="M 388.276335 165.545575 
L 383.116144 173.179573 
L 377.815075 180.605077 
L 372.679697 187.423433 
L 367.419311 194.050054 
L 362.033545 200.482695 
L 356.521414 206.719534 
L 350.881152 212.759216 
L 345.109984 218.600911 
L 339.55509 223.917899 
L 333.875902 229.059633 
L 328.06596 234.027028 
L 322.116571 238.82163 
L 316.016076 243.445653 
L 309.748836 247.901977 
L 303.703218 251.930546 
L 297.469273 255.817868 
L 291.015603 259.566834 
L 284.756373 262.942592 
L 278.698174 265.969866 
L 272.350044 268.889088 
L 266.171701 271.477618 
L 260.172666 273.74377 
L 254.370942 275.690581 
L 248.796465 277.317975 
L 243.494489 278.62642 
L 238.528139 279.621977 
L 233.979108 280.32201 
L 229.109013 280.828113 
L 224.76239 281.050381 
L 220.109597 281.029566 
L 216.134209 280.784516 
L 211.90283 280.277385 
L 208.542117 279.682291 
L 205.004782 278.860905 
L 201.275489 277.765695 
L 197.338656 276.338032 
L 193.179215 274.505497 
L 190.275894 273.0155 
L 187.264537 271.2747 
L 184.143129 269.246874 
L 180.911245 266.890473 
L 177.57071 264.15799 
L 174.126447 260.995363 
L 170.587571 257.341466 
L 166.968784 253.127812 
L 163.292119 248.278632 
L 159.589077 242.711558 
L 157.740714 239.631642 
L 155.903162 236.339258 
L 154.084212 232.823204 
L 152.29278 229.072451 
L 150.539004 225.076345 
L 148.834344 220.824864 
L 147.191656 216.308927 
L 145.625272 211.520749 
L 144.151034 206.454256 
L 142.786319 201.105564 
L 141.550002 195.473504 
L 140.46238 189.5602 
L 139.545025 183.371686 
L 138.820556 176.918544 
L 138.312331 170.216532 
L 138.044031 163.287181 
L 138.039146 156.158313 
L 138.320359 148.864438 
L 138.908824 141.446968 
L 139.823378 133.954208 
L 141.079689 126.441064 
L 142.689398 118.968425 
L 144.659287 111.602205 
L 146.990545 104.412019 
L 149.678177 97.469544 
L 152.710614 90.846596 
L 156.069591 84.613019 
L 159.730295 78.834504 
L 163.661833 73.570455 
L 167.827975 68.87205 
L 172.18816 64.780616 
L 176.698702 61.326434 
L 181.314113 58.528036 
L 185.988469 56.39203 
L 190.676739 54.913448 
L 195.335986 54.076548 
L 199.926398 53.856 
L 204.412096 54.218358 
L 208.761707 55.123684 
L 212.948698 56.527243 
L 216.951479 58.38115 
L 220.75333 60.635904 
L 224.34215 63.241756 
L 227.710104 66.149861 
L 230.853179 69.313216 
L 233.770703 72.687376 
L 236.46484 76.230967 
L 238.940104 79.906006 
L 241.202887 83.678077 
L 243.26104 87.516363 
L 245.123481 91.393586 
L 246.799873 95.285866 
L 248.300332 99.172525 
L 249.635194 103.035854 
L 250.814818 106.860866 
L 251.849435 110.635039 
L 253.523242 117.991547 
L 254.732029 125.044932 
L 255.544177 131.758964 
L 256.020333 138.115506 
L 256.213433 144.109558 
L 256.169142 149.745351 
L 255.926511 155.03338 
L 255.518723 159.988163 
L 254.973842 164.626615 
L 253.950167 171.030966 
L 252.734915 176.826711 
L 251.37768 182.074319 
L 249.916488 186.830344 
L 248.380454 191.14647 
L 246.791854 195.069238 
L 244.620774 199.758776 
L 242.415693 203.907876 
L 240.197211 207.589071 
L 237.979545 210.863673 
L 235.772397 213.783504 
L 233.037931 217.000566 
L 230.337789 219.802709 
L 227.676216 222.248311 
L 225.055092 224.38538 
L 221.963571 226.598026 
L 218.929633 228.479391 
L 215.95103 230.074891 
L 212.542162 231.623999 
L 209.199944 232.881715 
L 205.919531 233.886251 
L 202.240243 234.763731 
L 198.629254 235.388131 
L 195.080802 235.789446 
L 191.157187 236.004401 
L 187.299856 235.995793 
L 183.084978 235.75149 
L 178.938659 235.284293 
L 174.4504 234.5371 
L 170.032425 233.56668 
L 165.679704 232.390817 
L 161.000844 230.890831 
L 156.390304 229.179282 
L 151.468543 227.101271 
L 146.6192 224.80371 
L 141.839465 222.297996 
L 136.767437 219.377789 
L 131.771621 216.237645 
L 126.850585 212.886424 
L 121.659949 209.070366 
L 116.553384 205.029252 
L 111.530628 200.770551 
L 106.591764 196.301009 
L 101.416521 191.30805 
L 96.337865 186.089152 
L 91.356756 180.650789 
L 86.474346 174.999078 
L 81.396393 168.766899 
L 76.433051 162.307205 
L 71.586152 155.626534 
L 68.235958 150.781194 
L 68.235958 150.781194 
" clip-path="url(#pf3de17060f)" style="fill: none; stroke: #d62728; stroke-width: 1.5; stroke-linecap: square"/>
   </g>
   <g id="patch_3">
    <path d="M 47.389063 307.872 
L 47.389063 41.76 
" style="fill: none; stroke: #000000; stroke-width: 0.8; stroke-linejoin: miter; stroke-linecap: square"/>
   </g>
   <g id="patch_4">
    <path d="M 404.509063 307.872 
L 404.509063 41.76 
" style="fill: none; stroke: #000000; stroke-width: 0.8; stroke-linejoin: miter; stroke-linecap: square"/>
   </g>
   <g id="patch_5">
    <path d="M 47.389062 307.872 
L 404.509062 307.872 
" style="fill: none; stroke: #000000; stroke-width: 0.8; stroke-linejoin: miter; stroke-linecap: square"/>
   </g>
   <g id="patch_6">
    <path d="M 47.389062 41.76 
L 404.509062 41.76 
" style="fill: none; stroke: #000000; stroke-width: 0.8; stroke-linejoin: miter; stroke-linecap: square"/>
   </g>
   <g id="text_15">
    <g id="patch_7">
     <path d="M 422.365063 102.337163 
L 567.065063 102.337163 
Q 571.065063 102.337163 571.065063 98.337163 
L 571.065063 55.0656 
Q 571.065063 51.0656 567.065063 51.0656 
L 422.365063 51.0656 
Q 418.365063 51.0656 418.365063 55.0656 
L 418.365063 98.337163 
Q 418.365063 102.337163 422.365063 102.337163 
z
" style="fill: #ffffff; opacity: 0.5; stroke: #000000; stroke-linejoin: miter"/>
    </g>
    <!-- Summary -->
    <g transform="translate(422.365063 62.664038) scale(0.1 -0.1)">
     <defs>
      <path id="DejaVuSans-53" d="M 3425 4513 
L 3425 3897 
Q 3066 4069 2747 4153 
Q 2428 4238 2131 4238 
Q 1616 4238 1336 4038 
Q 1056 3838 1056 3469 
Q 1056 3159 1242 3001 
Q 1428 2844 1947 2747 
L 2328 2669 
Q 3034 2534 3370 2195 
Q 3706 1856 3706 1288 
Q 3706 609 3251 259 
Q 2797 -91 1919 -91 
Q 1588 -91 1214 -16 
Q 841 59 441 206 
L 441 856 
Q 825 641 1194 531 
Q 1563 422 1919 422 
Q 2459 422 2753 634 
Q 3047 847 3047 1241 
Q 3047 1584 2836 1778 
Q 2625 1972 2144 2069 
L 1759 2144 
Q 1053 2284 737 2584 
Q 422 2884 422 3419 
Q 422 4038 858 4394 
Q 1294 4750 2059 4750 
Q 2388 4750 2728 4690 
Q 3069 4631 3425 4513 
z
" transform="scale(0.015625)"/>
      <path id="DejaVuSans-75" d="M 544 1381 
L 544 3500 
L 1119 3500 
L 1119 1403 
Q 1119 906 1312 657 
Q 1506 409 1894 409 
Q 2359 409 2629 706 
Q 2900 1003 2900 1516 
L 2900 3500 
L 3475 3500 
L 3475 0 
L 2900 0 
L 2900 538 
Q 2691 219 2414 64 
Q 2138 -91 1772 -91 
Q 1169 -91 856 284 
Q 544 659 544 1381 
z
M 1991 3584 
L 1991 3584 
z
" transform="scale(0.015625)"/>
      <path id="DejaVuSans-61" d="M 2194 1759 
Q 1497 1759 1228 1600 
Q 959 1441 959 1056 
Q 959 750 1161 570 
Q 1363 391 1709 391 
Q 2188 391 2477 730 
Q 2766 1069 2766 1631 
L 2766 1759 
L 2194 1759 
z
M 3341 1997 
L 3341 0 
L 2766 0 
L 2766 531 
Q 2569 213 2275 61 
Q 1981 -91 1556 -91 
Q 1019 -91 701 211 
Q 384 513 384 1019 
Q 384 1609 779 1909 
Q 1175 2209 1959 2209 
L 2766 2209 
L 2766 2266 
Q 2766 2663 2505 2880 
Q 2244 3097 1772 3097 
Q 1472 3097 1187 3025 
Q 903 2953 641 2809 
L 641 3341 
Q 956 3463 1253 3523 
Q 1550 3584 1831 3584 
Q 2591 3584 2966 3190 
Q 3341 2797 3341 1997 
z
" transform="scale(0.015625)"/>
      <path id="DejaVuSans-72" d="M 2631 2963 
Q 2534 3019 2420 3045 
Q 2306 3072 2169 3072 
Q 1681 3072 1420 2755 
Q 1159 2438 1159 1844 
L 1159 0 
L 581 0 
L 581 3500 
L 1159 3500 
L 1159 2956 
Q 1341 3275 1631 3429 
Q 1922 3584 2338 3584 
Q 2397 3584 2469 3576 
Q 2541 3569 2628 3553 
L 2631 2963 
z
" transform="scale(0.015625)"/>
      <path id="DejaVuSans-79" d="M 2059 -325 
Q 1816 -950 1584 -1140 
Q 1353 -1331 966 -1331 
L 506 -1331 
L 506 -850 
L 844 -850 
Q 1081 -850 1212 -737 
Q 1344 -625 1503 -206 
L 1606 56 
L 191 3500 
L 800 3500 
L 1894 763 
L 2988 3500 
L 3597 3500 
L 2059 -325 
z
" transform="scale(0.015625)"/>
     </defs>
     <use xlink:href="#DejaVuSans-53"/>
     <use xlink:href="#DejaVuSans-75" x="63.476562"/>
     <use xlink:href="#DejaVuSans-6d" x="126.855469"/>
     <use xlink:href="#DejaVuSans-6d" x="224.267578"/>
     <use xlink:href="#DejaVuSans-61" x="321.679688"/>
     <use xlink:href="#DejaVuSans-72" x="382.958984"/>
     <use xlink:href="#DejaVuSans-79" x="424.072266"/>
    </g>
    <!-- $Q_I$: 10.53$\pm$0.27 k -->
    <g transform="translate(422.365063 73.86185) scale(0.1 -0.1)">
     <defs>
      <path id="DejaVuSans-Oblique-51" d="M 2309 -84 
Q 2275 -88 2237 -89 
Q 2200 -91 2125 -91 
Q 1250 -91 756 411 
Q 263 913 263 1797 
Q 263 2319 452 2844 
Q 641 3369 978 3788 
Q 1369 4269 1858 4509 
Q 2347 4750 2938 4750 
Q 3794 4750 4287 4245 
Q 4781 3741 4781 2869 
Q 4781 1928 4265 1147 
Q 3750 366 2919 44 
L 3553 -825 
L 2847 -825 
L 2309 -84 
z
M 2919 4238 
Q 2400 4238 2003 3986 
Q 1606 3734 1313 3219 
Q 1125 2891 1026 2522 
Q 928 2153 928 1778 
Q 928 1128 1239 775 
Q 1550 422 2119 422 
Q 2631 422 3032 676 
Q 3434 931 3719 1434 
Q 3909 1772 4009 2142 
Q 4109 2513 4109 2881 
Q 4109 3528 3796 3883 
Q 3484 4238 2919 4238 
z
" transform="scale(0.015625)"/>
      <path id="DejaVuSans-Oblique-49" d="M 1081 4666 
L 1716 4666 
L 806 0 
L 172 0 
L 1081 4666 
z
" transform="scale(0.015625)"/>
      <path id="DejaVuSans-3a" d="M 750 794 
L 1409 794 
L 1409 0 
L 750 0 
L 750 794 
z
M 750 3309 
L 1409 3309 
L 1409 2516 
L 750 2516 
L 750 3309 
z
" transform="scale(0.015625)"/>
      <path id="DejaVuSans-b1" d="M 2944 4013 
L 2944 2803 
L 4684 2803 
L 4684 2272 
L 2944 2272 
L 2944 1063 
L 2419 1063 
L 2419 2272 
L 678 2272 
L 678 2803 
L 2419 2803 
L 2419 4013 
L 2944 4013 
z
M 678 531 
L 4684 531 
L 4684 0 
L 678 0 
L 678 531 
z
" transform="scale(0.015625)"/>
      <path id="DejaVuSans-37" d="M 525 4666 
L 3525 4666 
L 3525 4397 
L 1831 0 
L 1172 0 
L 2766 4134 
L 525 4134 
L 525 4666 
z
" transform="scale(0.015625)"/>
      <path id="DejaVuSans-6b" d="M 581 4863 
L 1159 4863 
L 1159 1991 
L 2875 3500 
L 3609 3500 
L 1753 1863 
L 3688 0 
L 2938 0 
L 1159 1709 
L 1159 0 
L 581 0 
L 581 4863 
z
" transform="scale(0.015625)"/>
     </defs>
     <use xlink:href="#DejaVuSans-Oblique-51" transform="translate(0 0.015625)"/>
     <use xlink:href="#DejaVuSans-Oblique-49" transform="translate(78.710938 -16.390625) scale(0.7)"/>
     <use xlink:href="#DejaVuSans-3a" transform="translate(102.089844 0.015625)"/>
     <use xlink:href="#DejaVuSans-20" transform="translate(135.78125 0.015625)"/>
     <use xlink:href="#DejaVuSans-31" transform="translate(167.568359 0.015625)"/>
     <use xlink:href="#DejaVuSans-30" transform="translate(231.191406 0.015625)"/>
     <use xlink:href="#DejaVuSans-2e" transform="translate(294.814453 0.015625)"/>
     <use xlink:href="#DejaVuSans-35" transform="translate(326.601562 0.015625)"/>
     <use xlink:href="#DejaVuSans-33" transform="translate(390.224609 0.015625)"/>
     <use xlink:href="#DejaVuSans-b1" transform="translate(453.847656 0.015625)"/>
     <use xlink:href="#DejaVuSans-30" transform="translate(537.636719 0.015625)"/>
     <use xlink:href="#DejaVuSans-2e" transform="translate(601.259766 0.015625)"/>
     <use xlink:href="#DejaVuSans-32" transform="translate(627.546875 0.015625)"/>
     <use xlink:href="#DejaVuSans-37" transform="translate(691.169922 0.015625)"/>
     <use xlink:href="#DejaVuSans-20" transform="translate(754.792969 0.015625)"/>
     <use xlink:href="#DejaVuSans-6b" transform="translate(786.580078 0.015625)"/>
    </g>
    <!-- $Q_C$: 11.56$\pm$0.17 k -->
    <g transform="translate(422.365063 85.059663) scale(0.1 -0.1)">
     <defs>
      <path id="DejaVuSans-Oblique-43" d="M 4447 4306 
L 4319 3641 
Q 4019 3944 3683 4091 
Q 3347 4238 2956 4238 
Q 2422 4238 2017 3981 
Q 1613 3725 1319 3200 
Q 1131 2863 1032 2486 
Q 934 2109 934 1728 
Q 934 1091 1264 756 
Q 1594 422 2222 422 
Q 2656 422 3056 561 
Q 3456 700 3834 978 
L 3688 231 
Q 3316 72 2936 -9 
Q 2556 -91 2175 -91 
Q 1278 -91 773 396 
Q 269 884 269 1753 
Q 269 2309 461 2846 
Q 653 3384 1013 3828 
Q 1394 4300 1883 4525 
Q 2372 4750 3022 4750 
Q 3422 4750 3780 4639 
Q 4138 4528 4447 4306 
z
" transform="scale(0.015625)"/>
      <path id="DejaVuSans-36" d="M 2113 2584 
Q 1688 2584 1439 2293 
Q 1191 2003 1191 1497 
Q 1191 994 1439 701 
Q 1688 409 2113 409 
Q 2538 409 2786 701 
Q 3034 994 3034 1497 
Q 3034 2003 2786 2293 
Q 2538 2584 2113 2584 
z
M 3366 4563 
L 3366 3988 
Q 3128 4100 2886 4159 
Q 2644 4219 2406 4219 
Q 1781 4219 1451 3797 
Q 1122 3375 1075 2522 
Q 1259 2794 1537 2939 
Q 1816 3084 2150 3084 
Q 2853 3084 3261 2657 
Q 3669 2231 3669 1497 
Q 3669 778 3244 343 
Q 2819 -91 2113 -91 
Q 1303 -91 875 529 
Q 447 1150 447 2328 
Q 447 3434 972 4092 
Q 1497 4750 2381 4750 
Q 2619 4750 2861 4703 
Q 3103 4656 3366 4563 
z
" transform="scale(0.015625)"/>
     </defs>
     <use xlink:href="#DejaVuSans-Oblique-51" transform="translate(0 0.015625)"/>
     <use xlink:href="#DejaVuSans-Oblique-43" transform="translate(78.710938 -16.390625) scale(0.7)"/>
     <use xlink:href="#DejaVuSans-3a" transform="translate(130.322266 0.015625)"/>
     <use xlink:href="#DejaVuSans-20" transform="translate(164.013672 0.015625)"/>
     <use xlink:href="#DejaVuSans-31" transform="translate(195.800781 0.015625)"/>
     <use xlink:href="#DejaVuSans-31" transform="translate(259.423828 0.015625)"/>
     <use xlink:href="#DejaVuSans-2e" transform="translate(323.046875 0.015625)"/>
     <use xlink:href="#DejaVuSans-35" transform="translate(354.833984 0.015625)"/>
     <use xlink:href="#DejaVuSans-36" transform="translate(418.457031 0.015625)"/>
     <use xlink:href="#DejaVuSans-b1" transform="translate(482.080078 0.015625)"/>
     <use xlink:href="#DejaVuSans-30" transform="translate(565.869141 0.015625)"/>
     <use xlink:href="#DejaVuSans-2e" transform="translate(629.492188 0.015625)"/>
     <use xlink:href="#DejaVuSans-31" transform="translate(661.279297 0.015625)"/>
     <use xlink:href="#DejaVuSans-37" transform="translate(724.902344 0.015625)"/>
     <use xlink:href="#DejaVuSans-20" transform="translate(788.525391 0.015625)"/>
     <use xlink:href="#DejaVuSans-6b" transform="translate(820.3125 0.015625)"/>
    </g>
    <!-- $f_{res}$: 5.7197668$\pm$8.8e-06 GHz -->
    <g transform="translate(422.365063 96.257475) scale(0.1 -0.1)">
     <defs>
      <path id="DejaVuSans-Oblique-66" d="M 3059 4863 
L 2969 4384 
L 2419 4384 
Q 2106 4384 1964 4261 
Q 1822 4138 1753 3809 
L 1691 3500 
L 2638 3500 
L 2553 3053 
L 1606 3053 
L 1013 0 
L 434 0 
L 1031 3053 
L 481 3053 
L 563 3500 
L 1113 3500 
L 1159 3744 
Q 1278 4363 1576 4613 
Q 1875 4863 2516 4863 
L 3059 4863 
z
" transform="scale(0.015625)"/>
      <path id="DejaVuSans-Oblique-72" d="M 2853 2969 
Q 2766 3016 2653 3041 
Q 2541 3066 2413 3066 
Q 1953 3066 1609 2717 
Q 1266 2369 1153 1784 
L 800 0 
L 225 0 
L 909 3500 
L 1484 3500 
L 1375 2956 
Q 1603 3259 1920 3421 
Q 2238 3584 2597 3584 
Q 2691 3584 2781 3573 
Q 2872 3563 2963 3538 
L 2853 2969 
z
" transform="scale(0.015625)"/>
      <path id="DejaVuSans-Oblique-65" d="M 3078 2063 
Q 3088 2113 3092 2166 
Q 3097 2219 3097 2272 
Q 3097 2653 2873 2875 
Q 2650 3097 2266 3097 
Q 1838 3097 1509 2826 
Q 1181 2556 1013 2059 
L 3078 2063 
z
M 3578 1613 
L 903 1613 
Q 884 1494 878 1425 
Q 872 1356 872 1306 
Q 872 872 1139 634 
Q 1406 397 1894 397 
Q 2269 397 2603 481 
Q 2938 566 3225 728 
L 3116 159 
Q 2806 34 2476 -28 
Q 2147 -91 1806 -91 
Q 1078 -91 686 257 
Q 294 606 294 1247 
Q 294 1794 489 2264 
Q 684 2734 1063 3103 
Q 1306 3334 1642 3459 
Q 1978 3584 2356 3584 
Q 2950 3584 3301 3228 
Q 3653 2872 3653 2272 
Q 3653 2128 3634 1964 
Q 3616 1800 3578 1613 
z
" transform="scale(0.015625)"/>
      <path id="DejaVuSans-Oblique-73" d="M 3200 3397 
L 3091 2853 
Q 2863 2978 2609 3040 
Q 2356 3103 2088 3103 
Q 1634 3103 1373 2948 
Q 1113 2794 1113 2528 
Q 1113 2219 1719 2053 
Q 1766 2041 1788 2034 
L 1972 1978 
Q 2547 1819 2739 1644 
Q 2931 1469 2931 1166 
Q 2931 609 2489 259 
Q 2047 -91 1331 -91 
Q 1053 -91 747 -37 
Q 441 16 72 128 
L 184 722 
Q 500 559 806 475 
Q 1113 391 1394 391 
Q 1816 391 2080 572 
Q 2344 753 2344 1031 
Q 2344 1331 1650 1516 
L 1591 1531 
L 1394 1581 
Q 956 1697 753 1886 
Q 550 2075 550 2369 
Q 550 2928 970 3256 
Q 1391 3584 2113 3584 
Q 2397 3584 2667 3537 
Q 2938 3491 3200 3397 
z
" transform="scale(0.015625)"/>
      <path id="DejaVuSans-39" d="M 703 97 
L 703 672 
Q 941 559 1184 500 
Q 1428 441 1663 441 
Q 2288 441 2617 861 
Q 2947 1281 2994 2138 
Q 2813 1869 2534 1725 
Q 2256 1581 1919 1581 
Q 1219 1581 811 2004 
Q 403 2428 403 3163 
Q 403 3881 828 4315 
Q 1253 4750 1959 4750 
Q 2769 4750 3195 4129 
Q 3622 3509 3622 2328 
Q 3622 1225 3098 567 
Q 2575 -91 1691 -91 
Q 1453 -91 1209 -44 
Q 966 3 703 97 
z
M 1959 2075 
Q 2384 2075 2632 2365 
Q 2881 2656 2881 3163 
Q 2881 3666 2632 3958 
Q 2384 4250 1959 4250 
Q 1534 4250 1286 3958 
Q 1038 3666 1038 3163 
Q 1038 2656 1286 2365 
Q 1534 2075 1959 2075 
z
" transform="scale(0.015625)"/>
      <path id="DejaVuSans-38" d="M 2034 2216 
Q 1584 2216 1326 1975 
Q 1069 1734 1069 1313 
Q 1069 891 1326 650 
Q 1584 409 2034 409 
Q 2484 409 2743 651 
Q 3003 894 3003 1313 
Q 3003 1734 2745 1975 
Q 2488 2216 2034 2216 
z
M 1403 2484 
Q 997 2584 770 2862 
Q 544 3141 544 3541 
Q 544 4100 942 4425 
Q 1341 4750 2034 4750 
Q 2731 4750 3128 4425 
Q 3525 4100 3525 3541 
Q 3525 3141 3298 2862 
Q 3072 2584 2669 2484 
Q 3125 2378 3379 2068 
Q 3634 1759 3634 1313 
Q 3634 634 3220 271 
Q 2806 -91 2034 -91 
Q 1263 -91 848 271 
Q 434 634 434 1313 
Q 434 1759 690 2068 
Q 947 2378 1403 2484 
z
M 1172 3481 
Q 1172 3119 1398 2916 
Q 1625 2713 2034 2713 
Q 2441 2713 2670 2916 
Q 2900 3119 2900 3481 
Q 2900 3844 2670 4047 
Q 2441 4250 2034 4250 
Q 1625 4250 1398 4047 
Q 1172 3844 1172 3481 
z
" transform="scale(0.015625)"/>
      <path id="DejaVuSans-47" d="M 3809 666 
L 3809 1919 
L 2778 1919 
L 2778 2438 
L 4434 2438 
L 4434 434 
Q 4069 175 3628 42 
Q 3188 -91 2688 -91 
Q 1594 -91 976 548 
Q 359 1188 359 2328 
Q 359 3472 976 4111 
Q 1594 4750 2688 4750 
Q 3144 4750 3555 4637 
Q 3966 4525 4313 4306 
L 4313 3634 
Q 3963 3931 3569 4081 
Q 3175 4231 2741 4231 
Q 1884 4231 1454 3753 
Q 1025 3275 1025 2328 
Q 1025 1384 1454 906 
Q 1884 428 2741 428 
Q 3075 428 3337 486 
Q 3600 544 3809 666 
z
" transform="scale(0.015625)"/>
      <path id="DejaVuSans-48" d="M 628 4666 
L 1259 4666 
L 1259 2753 
L 3553 2753 
L 3553 4666 
L 4184 4666 
L 4184 0 
L 3553 0 
L 3553 2222 
L 1259 2222 
L 1259 0 
L 628 0 
L 628 4666 
z
" transform="scale(0.015625)"/>
      <path id="DejaVuSans-7a" d="M 353 3500 
L 3084 3500 
L 3084 2975 
L 922 459 
L 3084 459 
L 3084 0 
L 275 0 
L 275 525 
L 2438 3041 
L 353 3041 
L 353 3500 
z
" transform="scale(0.015625)"/>
     </defs>
     <use xlink:href="#DejaVuSans-Oblique-66" transform="translate(0 0.015625)"/>
     <use xlink:href="#DejaVuSans-Oblique-72" transform="translate(35.205078 -16.390625) scale(0.7)"/>
     <use xlink:href="#DejaVuSans-Oblique-65" transform="translate(63.984375 -16.390625) scale(0.7)"/>
     <use xlink:href="#DejaVuSans-Oblique-73" transform="translate(107.050781 -16.390625) scale(0.7)"/>
     <use xlink:href="#DejaVuSans-3a" transform="translate(146.254883 0.015625)"/>
     <use xlink:href="#DejaVuSans-20" transform="translate(179.946289 0.015625)"/>
     <use xlink:href="#DejaVuSans-35" transform="translate(211.733398 0.015625)"/>
     <use xlink:href="#DejaVuSans-2e" transform="translate(275.356445 0.015625)"/>
     <use xlink:href="#DejaVuSans-37" transform="translate(299.393555 0.015625)"/>
     <use xlink:href="#DejaVuSans-31" transform="translate(363.016602 0.015625)"/>
     <use xlink:href="#DejaVuSans-39" transform="translate(426.639648 0.015625)"/>
     <use xlink:href="#DejaVuSans-37" transform="translate(490.262695 0.015625)"/>
     <use xlink:href="#DejaVuSans-36" transform="translate(553.885742 0.015625)"/>
     <use xlink:href="#DejaVuSans-36" transform="translate(617.508789 0.015625)"/>
     <use xlink:href="#DejaVuSans-38" transform="translate(681.131836 0.015625)"/>
     <use xlink:href="#DejaVuSans-b1" transform="translate(744.754883 0.015625)"/>
     <use xlink:href="#DejaVuSans-38" transform="translate(828.543945 0.015625)"/>
     <use xlink:href="#DejaVuSans-2e" transform="translate(892.166992 0.015625)"/>
     <use xlink:href="#DejaVuSans-38" transform="translate(921.329102 0.015625)"/>
     <use xlink:href="#DejaVuSans-65" transform="translate(984.952148 0.015625)"/>
     <use xlink:href="#DejaVuSans-2d" transform="translate(1046.475586 0.015625)"/>
     <use xlink:href="#DejaVuSans-30" transform="translate(1082.55957 0.015625)"/>
     <use xlink:href="#DejaVuSans-36" transform="translate(1146.182617 0.015625)"/>
     <use xlink:href="#DejaVuSans-20" transform="translate(1209.805664 0.015625)"/>
     <use xlink:href="#DejaVuSans-47" transform="translate(1241.592773 0.015625)"/>
     <use xlink:href="#DejaVuSans-48" transform="translate(1319.083008 0.015625)"/>
     <use xlink:href="#DejaVuSans-7a" transform="translate(1394.27832 0.015625)"/>
    </g>
   </g>
  </g>
  <g id="text_16">
   <!-- S21 resonator spectroscopy -->
   <g transform="translate(136.404688 16.318125) scale(0.12 -0.12)">
    <defs>
     <path id="DejaVuSans-73" d="M 2834 3397 
L 2834 2853 
Q 2591 2978 2328 3040 
Q 2066 3103 1784 3103 
Q 1356 3103 1142 2972 
Q 928 2841 928 2578 
Q 928 2378 1081 2264 
Q 1234 2150 1697 2047 
L 1894 2003 
Q 2506 1872 2764 1633 
Q 3022 1394 3022 966 
Q 3022 478 2636 193 
Q 2250 -91 1575 -91 
Q 1294 -91 989 -36 
Q 684 19 347 128 
L 347 722 
Q 666 556 975 473 
Q 1284 391 1588 391 
Q 1994 391 2212 530 
Q 2431 669 2431 922 
Q 2431 1156 2273 1281 
Q 2116 1406 1581 1522 
L 1381 1569 
Q 847 1681 609 1914 
Q 372 2147 372 2553 
Q 372 3047 722 3315 
Q 1072 3584 1716 3584 
Q 2034 3584 2315 3537 
Q 2597 3491 2834 3397 
z
" transform="scale(0.015625)"/>
     <path id="DejaVuSans-6f" d="M 1959 3097 
Q 1497 3097 1228 2736 
Q 959 2375 959 1747 
Q 959 1119 1226 758 
Q 1494 397 1959 397 
Q 2419 397 2687 759 
Q 2956 1122 2956 1747 
Q 2956 2369 2687 2733 
Q 2419 3097 1959 3097 
z
M 1959 3584 
Q 2709 3584 3137 3096 
Q 3566 2609 3566 1747 
Q 3566 888 3137 398 
Q 2709 -91 1959 -91 
Q 1206 -91 779 398 
Q 353 888 353 1747 
Q 353 2609 779 3096 
Q 1206 3584 1959 3584 
z
" transform="scale(0.015625)"/>
     <path id="DejaVuSans-6e" d="M 3513 2113 
L 3513 0 
L 2938 0 
L 2938 2094 
Q 2938 2591 2744 2837 
Q 2550 3084 2163 3084 
Q 1697 3084 1428 2787 
Q 1159 2491 1159 1978 
L 1159 0 
L 581 0 
L 581 3500 
L 1159 3500 
L 1159 2956 
Q 1366 3272 1645 3428 
Q 1925 3584 2291 3584 
Q 2894 3584 3203 3211 
Q 3513 2838 3513 2113 
z
" transform="scale(0.015625)"/>
     <path id="DejaVuSans-74" d="M 1172 4494 
L 1172 3500 
L 2356 3500 
L 2356 3053 
L 1172 3053 
L 1172 1153 
Q 1172 725 1289 603 
Q 1406 481 1766 481 
L 2356 481 
L 2356 0 
L 1766 0 
Q 1100 0 847 248 
Q 594 497 594 1153 
L 594 3053 
L 172 3053 
L 172 3500 
L 594 3500 
L 594 4494 
L 1172 4494 
z
" transform="scale(0.015625)"/>
     <path id="DejaVuSans-70" d="M 1159 525 
L 1159 -1331 
L 581 -1331 
L 581 3500 
L 1159 3500 
L 1159 2969 
Q 1341 3281 1617 3432 
Q 1894 3584 2278 3584 
Q 2916 3584 3314 3078 
Q 3713 2572 3713 1747 
Q 3713 922 3314 415 
Q 2916 -91 2278 -91 
Q 1894 -91 1617 61 
Q 1341 213 1159 525 
z
M 3116 1747 
Q 3116 2381 2855 2742 
Q 2594 3103 2138 3103 
Q 1681 3103 1420 2742 
Q 1159 2381 1159 1747 
Q 1159 1113 1420 752 
Q 1681 391 2138 391 
Q 2594 391 2855 752 
Q 3116 1113 3116 1747 
z
" transform="scale(0.015625)"/>
     <path id="DejaVuSans-63" d="M 3122 3366 
L 3122 2828 
Q 2878 2963 2633 3030 
Q 2388 3097 2138 3097 
Q 1578 3097 1268 2742 
Q 959 2388 959 1747 
Q 959 1106 1268 751 
Q 1578 397 2138 397 
Q 2388 397 2633 464 
Q 2878 531 3122 666 
L 3122 134 
Q 2881 22 2623 -34 
Q 2366 -91 2075 -91 
Q 1284 -91 818 406 
Q 353 903 353 1747 
Q 353 2603 823 3093 
Q 1294 3584 2113 3584 
Q 2378 3584 2631 3529 
Q 2884 3475 3122 3366 
z
" transform="scale(0.015625)"/>
    </defs>
    <use xlink:href="#DejaVuSans-53"/>
    <use xlink:href="#DejaVuSans-32" x="63.476562"/>
    <use xlink:href="#DejaVuSans-31" x="127.099609"/>
    <use xlink:href="#DejaVuSans-20" x="190.722656"/>
    <use xlink:href="#DejaVuSans-72" x="222.509766"/>
    <use xlink:href="#DejaVuSans-65" x="261.373047"/>
    <use xlink:href="#DejaVuSans-73" x="322.896484"/>
    <use xlink:href="#DejaVuSans-6f" x="374.996094"/>
    <use xlink:href="#DejaVuSans-6e" x="436.177734"/>
    <use xlink:href="#DejaVuSans-61" x="499.556641"/>
    <use xlink:href="#DejaVuSans-74" x="560.835938"/>
    <use xlink:href="#DejaVuSans-6f" x="600.044922"/>
    <use xlink:href="#DejaVuSans-72" x="661.226562"/>
    <use xlink:href="#DejaVuSans-20" x="702.339844"/>
    <use xlink:href="#DejaVuSans-73" x="734.126953"/>
    <use xlink:href="#DejaVuSans-70" x="786.226562"/>
    <use xlink:href="#DejaVuSans-65" x="849.703125"/>
    <use xlink:href="#DejaVuSans-63" x="911.226562"/>
    <use xlink:href="#DejaVuSans-74" x="966.207031"/>
    <use xlink:href="#DejaVuSans-72" x="1005.416016"/>
    <use xlink:href="#DejaVuSans-6f" x="1044.279297"/>
    <use xlink:href="#DejaVuSans-73" x="1105.460938"/>
    <use xlink:href="#DejaVuSans-63" x="1157.560547"/>
    <use xlink:href="#DejaVuSans-6f" x="1212.541016"/>
    <use xlink:href="#DejaVuSans-70" x="1273.722656"/>
    <use xlink:href="#DejaVuSans-79" x="1337.199219"/>
   </g>
   <!-- tuid: 20231225-162705-466-98e24b -->
   <g transform="translate(110.467813 29.7555) scale(0.12 -0.12)">
    <defs>
     <path id="DejaVuSans-69" d="M 603 3500 
L 1178 3500 
L 1178 0 
L 603 0 
L 603 3500 
z
M 603 4863 
L 1178 4863 
L 1178 4134 
L 603 4134 
L 603 4863 
z
" transform="scale(0.015625)"/>
     <path id="DejaVuSans-64" d="M 2906 2969 
L 2906 4863 
L 3481 4863 
L 3481 0 
L 2906 0 
L 2906 525 
Q 2725 213 2448 61 
Q 2172 -91 1784 -91 
Q 1150 -91 751 415 
Q 353 922 353 1747 
Q 353 2572 751 3078 
Q 1150 3584 1784 3584 
Q 2172 3584 2448 3432 
Q 2725 3281 2906 2969 
z
M 947 1747 
Q 947 1113 1208 752 
Q 1469 391 1925 391 
Q 2381 391 2643 752 
Q 2906 1113 2906 1747 
Q 2906 2381 2643 2742 
Q 2381 3103 1925 3103 
Q 1469 3103 1208 2742 
Q 947 2381 947 1747 
z
" transform="scale(0.015625)"/>
     <path id="DejaVuSans-62" d="M 3116 1747 
Q 3116 2381 2855 2742 
Q 2594 3103 2138 3103 
Q 1681 3103 1420 2742 
Q 1159 2381 1159 1747 
Q 1159 1113 1420 752 
Q 1681 391 2138 391 
Q 2594 391 2855 752 
Q 3116 1113 3116 1747 
z
M 1159 2969 
Q 1341 3281 1617 3432 
Q 1894 3584 2278 3584 
Q 2916 3584 3314 3078 
Q 3713 2572 3713 1747 
Q 3713 922 3314 415 
Q 2916 -91 2278 -91 
Q 1894 -91 1617 61 
Q 1341 213 1159 525 
L 1159 0 
L 581 0 
L 581 4863 
L 1159 4863 
L 1159 2969 
z
" transform="scale(0.015625)"/>
    </defs>
    <use xlink:href="#DejaVuSans-74"/>
    <use xlink:href="#DejaVuSans-75" x="39.208984"/>
    <use xlink:href="#DejaVuSans-69" x="102.587891"/>
    <use xlink:href="#DejaVuSans-64" x="130.371094"/>
    <use xlink:href="#DejaVuSans-3a" x="193.847656"/>
    <use xlink:href="#DejaVuSans-20" x="227.539062"/>
    <use xlink:href="#DejaVuSans-32" x="259.326172"/>
    <use xlink:href="#DejaVuSans-30" x="322.949219"/>
    <use xlink:href="#DejaVuSans-32" x="386.572266"/>
    <use xlink:href="#DejaVuSans-33" x="450.195312"/>
    <use xlink:href="#DejaVuSans-31" x="513.818359"/>
    <use xlink:href="#DejaVuSans-32" x="577.441406"/>
    <use xlink:href="#DejaVuSans-32" x="641.064453"/>
    <use xlink:href="#DejaVuSans-35" x="704.6875"/>
    <use xlink:href="#DejaVuSans-2d" x="768.310547"/>
    <use xlink:href="#DejaVuSans-31" x="804.394531"/>
    <use xlink:href="#DejaVuSans-36" x="868.017578"/>
    <use xlink:href="#DejaVuSans-32" x="931.640625"/>
    <use xlink:href="#DejaVuSans-37" x="995.263672"/>
    <use xlink:href="#DejaVuSans-30" x="1058.886719"/>
    <use xlink:href="#DejaVuSans-35" x="1122.509766"/>
    <use xlink:href="#DejaVuSans-2d" x="1186.132812"/>
    <use xlink:href="#DejaVuSans-34" x="1222.216797"/>
    <use xlink:href="#DejaVuSans-36" x="1285.839844"/>
    <use xlink:href="#DejaVuSans-36" x="1349.462891"/>
    <use xlink:href="#DejaVuSans-2d" x="1413.085938"/>
    <use xlink:href="#DejaVuSans-39" x="1449.169922"/>
    <use xlink:href="#DejaVuSans-38" x="1512.792969"/>
    <use xlink:href="#DejaVuSans-65" x="1576.416016"/>
    <use xlink:href="#DejaVuSans-32" x="1637.939453"/>
    <use xlink:href="#DejaVuSans-34" x="1701.5625"/>
    <use xlink:href="#DejaVuSans-62" x="1765.185547"/>
   </g>
  </g>
 </g>
 <defs>
  <clipPath id="pf3de17060f">
   <rect x="47.389063" y="41.76" width="357.12" height="266.112"/>
  </clipPath>
 </defs>
</svg>
