<?xml version="1.0" encoding="utf-8" standalone="no"?>
<!DOCTYPE svg PUBLIC "-//W3C//DTD SVG 1.1//EN"
  "http://www.w3.org/Graphics/SVG/1.1/DTD/svg11.dtd">
<svg xmlns:xlink="http://www.w3.org/1999/xlink" width="612.7635pt" height="345.42825pt" viewBox="0 0 612.7635 345.42825" xmlns="http://www.w3.org/2000/svg" version="1.1">
 <metadata>
  <rdf:RDF xmlns:dc="http://purl.org/dc/elements/1.1/" xmlns:cc="http://creativecommons.org/ns#" xmlns:rdf="http://www.w3.org/1999/02/22-rdf-syntax-ns#">
   <cc:Work>
    <dc:type rdf:resource="http://purl.org/dc/dcmitype/StillImage"/>
    <dc:date>2023-12-27T16:42:29.461416</dc:date>
    <dc:format>image/svg+xml</dc:format>
    <dc:creator>
     <cc:Agent>
      <dc:title>Matplotlib v3.8.2, https://matplotlib.org/</dc:title>
     </cc:Agent>
    </dc:creator>
   </cc:Work>
  </rdf:RDF>
 </metadata>
 <defs>
  <style type="text/css">*{stroke-linejoin: round; stroke-linecap: butt}</style>
 </defs>
 <g id="figure_1">
  <g id="patch_1">
   <path d="M 0 345.42825 
L 612.7635 345.42825 
L 612.7635 -0 
L 0 -0 
L 0 345.42825 
z
" style="fill: none; opacity: 0"/>
  </g>
  <g id="axes_1">
   <g id="patch_2">
    <path d="M 49.0875 307.872 
L 406.2075 307.872 
L 406.2075 41.76 
L 49.0875 41.76 
z
" style="fill: #ffffff"/>
   </g>
   <g id="matplotlib.axis_1">
    <g id="xtick_1">
     <g id="line2d_1">
      <defs>
       <path id="mb6afc594b4" d="M 0 0 
L 0 3.5 
" style="stroke: #000000; stroke-width: 0.8"/>
      </defs>
      <g>
       <use xlink:href="#mb6afc594b4" x="88.509838" y="307.872" style="stroke: #000000; stroke-width: 0.8"/>
      </g>
     </g>
     <g id="text_1">
      <!-- -0.6 -->
      <g transform="translate(78.754369 322.470438) scale(0.1 -0.1)">
       <defs>
        <path id="DejaVuSans-2d" d="M 313 2009 
L 1997 2009 
L 1997 1497 
L 313 1497 
L 313 2009 
z
" transform="scale(0.015625)"/>
        <path id="DejaVuSans-30" d="M 2034 4250 
Q 1547 4250 1301 3770 
Q 1056 3291 1056 2328 
Q 1056 1369 1301 889 
Q 1547 409 2034 409 
Q 2525 409 2770 889 
Q 3016 1369 3016 2328 
Q 3016 3291 2770 3770 
Q 2525 4250 2034 4250 
z
M 2034 4750 
Q 2819 4750 3233 4129 
Q 3647 3509 3647 2328 
Q 3647 1150 3233 529 
Q 2819 -91 2034 -91 
Q 1250 -91 836 529 
Q 422 1150 422 2328 
Q 422 3509 836 4129 
Q 1250 4750 2034 4750 
z
" transform="scale(0.015625)"/>
        <path id="DejaVuSans-2e" d="M 684 794 
L 1344 794 
L 1344 0 
L 684 0 
L 684 794 
z
" transform="scale(0.015625)"/>
        <path id="DejaVuSans-36" d="M 2113 2584 
Q 1688 2584 1439 2293 
Q 1191 2003 1191 1497 
Q 1191 994 1439 701 
Q 1688 409 2113 409 
Q 2538 409 2786 701 
Q 3034 994 3034 1497 
Q 3034 2003 2786 2293 
Q 2538 2584 2113 2584 
z
M 3366 4563 
L 3366 3988 
Q 3128 4100 2886 4159 
Q 2644 4219 2406 4219 
Q 1781 4219 1451 3797 
Q 1122 3375 1075 2522 
Q 1259 2794 1537 2939 
Q 1816 3084 2150 3084 
Q 2853 3084 3261 2657 
Q 3669 2231 3669 1497 
Q 3669 778 3244 343 
Q 2819 -91 2113 -91 
Q 1303 -91 875 529 
Q 447 1150 447 2328 
Q 447 3434 972 4092 
Q 1497 4750 2381 4750 
Q 2619 4750 2861 4703 
Q 3103 4656 3366 4563 
z
" transform="scale(0.015625)"/>
       </defs>
       <use xlink:href="#DejaVuSans-2d"/>
       <use xlink:href="#DejaVuSans-30" x="36.083984"/>
       <use xlink:href="#DejaVuSans-2e" x="99.707031"/>
       <use xlink:href="#DejaVuSans-36" x="131.494141"/>
      </g>
     </g>
    </g>
    <g id="xtick_2">
     <g id="line2d_2">
      <g>
       <use xlink:href="#mb6afc594b4" x="134.889058" y="307.872" style="stroke: #000000; stroke-width: 0.8"/>
      </g>
     </g>
     <g id="text_2">
      <!-- -0.4 -->
      <g transform="translate(125.13359 322.470438) scale(0.1 -0.1)">
       <defs>
        <path id="DejaVuSans-34" d="M 2419 4116 
L 825 1625 
L 2419 1625 
L 2419 4116 
z
M 2253 4666 
L 3047 4666 
L 3047 1625 
L 3713 1625 
L 3713 1100 
L 3047 1100 
L 3047 0 
L 2419 0 
L 2419 1100 
L 313 1100 
L 313 1709 
L 2253 4666 
z
" transform="scale(0.015625)"/>
       </defs>
       <use xlink:href="#DejaVuSans-2d"/>
       <use xlink:href="#DejaVuSans-30" x="36.083984"/>
       <use xlink:href="#DejaVuSans-2e" x="99.707031"/>
       <use xlink:href="#DejaVuSans-34" x="131.494141"/>
      </g>
     </g>
    </g>
    <g id="xtick_3">
     <g id="line2d_3">
      <g>
       <use xlink:href="#mb6afc594b4" x="181.268279" y="307.872" style="stroke: #000000; stroke-width: 0.8"/>
      </g>
     </g>
     <g id="text_3">
      <!-- -0.2 -->
      <g transform="translate(171.51281 322.470438) scale(0.1 -0.1)">
       <defs>
        <path id="DejaVuSans-32" d="M 1228 531 
L 3431 531 
L 3431 0 
L 469 0 
L 469 531 
Q 828 903 1448 1529 
Q 2069 2156 2228 2338 
Q 2531 2678 2651 2914 
Q 2772 3150 2772 3378 
Q 2772 3750 2511 3984 
Q 2250 4219 1831 4219 
Q 1534 4219 1204 4116 
Q 875 4013 500 3803 
L 500 4441 
Q 881 4594 1212 4672 
Q 1544 4750 1819 4750 
Q 2544 4750 2975 4387 
Q 3406 4025 3406 3419 
Q 3406 3131 3298 2873 
Q 3191 2616 2906 2266 
Q 2828 2175 2409 1742 
Q 1991 1309 1228 531 
z
" transform="scale(0.015625)"/>
       </defs>
       <use xlink:href="#DejaVuSans-2d"/>
       <use xlink:href="#DejaVuSans-30" x="36.083984"/>
       <use xlink:href="#DejaVuSans-2e" x="99.707031"/>
       <use xlink:href="#DejaVuSans-32" x="131.494141"/>
      </g>
     </g>
    </g>
    <g id="xtick_4">
     <g id="line2d_4">
      <g>
       <use xlink:href="#mb6afc594b4" x="227.6475" y="307.872" style="stroke: #000000; stroke-width: 0.8"/>
      </g>
     </g>
     <g id="text_4">
      <!-- 0 -->
      <g transform="translate(224.46625 322.470438) scale(0.1 -0.1)">
       <use xlink:href="#DejaVuSans-30"/>
      </g>
     </g>
    </g>
    <g id="xtick_5">
     <g id="line2d_5">
      <g>
       <use xlink:href="#mb6afc594b4" x="274.026721" y="307.872" style="stroke: #000000; stroke-width: 0.8"/>
      </g>
     </g>
     <g id="text_5">
      <!-- 0.2 -->
      <g transform="translate(266.075158 322.470438) scale(0.1 -0.1)">
       <use xlink:href="#DejaVuSans-30"/>
       <use xlink:href="#DejaVuSans-2e" x="63.623047"/>
       <use xlink:href="#DejaVuSans-32" x="95.410156"/>
      </g>
     </g>
    </g>
    <g id="xtick_6">
     <g id="line2d_6">
      <g>
       <use xlink:href="#mb6afc594b4" x="320.405942" y="307.872" style="stroke: #000000; stroke-width: 0.8"/>
      </g>
     </g>
     <g id="text_6">
      <!-- 0.4 -->
      <g transform="translate(312.454379 322.470438) scale(0.1 -0.1)">
       <use xlink:href="#DejaVuSans-30"/>
       <use xlink:href="#DejaVuSans-2e" x="63.623047"/>
       <use xlink:href="#DejaVuSans-34" x="95.410156"/>
      </g>
     </g>
    </g>
    <g id="xtick_7">
     <g id="line2d_7">
      <g>
       <use xlink:href="#mb6afc594b4" x="366.785162" y="307.872" style="stroke: #000000; stroke-width: 0.8"/>
      </g>
     </g>
     <g id="text_7">
      <!-- 0.6 -->
      <g transform="translate(358.8336 322.470438) scale(0.1 -0.1)">
       <use xlink:href="#DejaVuSans-30"/>
       <use xlink:href="#DejaVuSans-2e" x="63.623047"/>
       <use xlink:href="#DejaVuSans-36" x="95.410156"/>
      </g>
     </g>
    </g>
    <g id="text_8">
     <!-- amplitude [V] -->
     <g transform="translate(193.470156 336.148562) scale(0.1 -0.1)">
      <defs>
       <path id="DejaVuSans-61" d="M 2194 1759 
Q 1497 1759 1228 1600 
Q 959 1441 959 1056 
Q 959 750 1161 570 
Q 1363 391 1709 391 
Q 2188 391 2477 730 
Q 2766 1069 2766 1631 
L 2766 1759 
L 2194 1759 
z
M 3341 1997 
L 3341 0 
L 2766 0 
L 2766 531 
Q 2569 213 2275 61 
Q 1981 -91 1556 -91 
Q 1019 -91 701 211 
Q 384 513 384 1019 
Q 384 1609 779 1909 
Q 1175 2209 1959 2209 
L 2766 2209 
L 2766 2266 
Q 2766 2663 2505 2880 
Q 2244 3097 1772 3097 
Q 1472 3097 1187 3025 
Q 903 2953 641 2809 
L 641 3341 
Q 956 3463 1253 3523 
Q 1550 3584 1831 3584 
Q 2591 3584 2966 3190 
Q 3341 2797 3341 1997 
z
" transform="scale(0.015625)"/>
       <path id="DejaVuSans-6d" d="M 3328 2828 
Q 3544 3216 3844 3400 
Q 4144 3584 4550 3584 
Q 5097 3584 5394 3201 
Q 5691 2819 5691 2113 
L 5691 0 
L 5113 0 
L 5113 2094 
Q 5113 2597 4934 2840 
Q 4756 3084 4391 3084 
Q 3944 3084 3684 2787 
Q 3425 2491 3425 1978 
L 3425 0 
L 2847 0 
L 2847 2094 
Q 2847 2600 2669 2842 
Q 2491 3084 2119 3084 
Q 1678 3084 1418 2786 
Q 1159 2488 1159 1978 
L 1159 0 
L 581 0 
L 581 3500 
L 1159 3500 
L 1159 2956 
Q 1356 3278 1631 3431 
Q 1906 3584 2284 3584 
Q 2666 3584 2933 3390 
Q 3200 3197 3328 2828 
z
" transform="scale(0.015625)"/>
       <path id="DejaVuSans-70" d="M 1159 525 
L 1159 -1331 
L 581 -1331 
L 581 3500 
L 1159 3500 
L 1159 2969 
Q 1341 3281 1617 3432 
Q 1894 3584 2278 3584 
Q 2916 3584 3314 3078 
Q 3713 2572 3713 1747 
Q 3713 922 3314 415 
Q 2916 -91 2278 -91 
Q 1894 -91 1617 61 
Q 1341 213 1159 525 
z
M 3116 1747 
Q 3116 2381 2855 2742 
Q 2594 3103 2138 3103 
Q 1681 3103 1420 2742 
Q 1159 2381 1159 1747 
Q 1159 1113 1420 752 
Q 1681 391 2138 391 
Q 2594 391 2855 752 
Q 3116 1113 3116 1747 
z
" transform="scale(0.015625)"/>
       <path id="DejaVuSans-6c" d="M 603 4863 
L 1178 4863 
L 1178 0 
L 603 0 
L 603 4863 
z
" transform="scale(0.015625)"/>
       <path id="DejaVuSans-69" d="M 603 3500 
L 1178 3500 
L 1178 0 
L 603 0 
L 603 3500 
z
M 603 4863 
L 1178 4863 
L 1178 4134 
L 603 4134 
L 603 4863 
z
" transform="scale(0.015625)"/>
       <path id="DejaVuSans-74" d="M 1172 4494 
L 1172 3500 
L 2356 3500 
L 2356 3053 
L 1172 3053 
L 1172 1153 
Q 1172 725 1289 603 
Q 1406 481 1766 481 
L 2356 481 
L 2356 0 
L 1766 0 
Q 1100 0 847 248 
Q 594 497 594 1153 
L 594 3053 
L 172 3053 
L 172 3500 
L 594 3500 
L 594 4494 
L 1172 4494 
z
" transform="scale(0.015625)"/>
       <path id="DejaVuSans-75" d="M 544 1381 
L 544 3500 
L 1119 3500 
L 1119 1403 
Q 1119 906 1312 657 
Q 1506 409 1894 409 
Q 2359 409 2629 706 
Q 2900 1003 2900 1516 
L 2900 3500 
L 3475 3500 
L 3475 0 
L 2900 0 
L 2900 538 
Q 2691 219 2414 64 
Q 2138 -91 1772 -91 
Q 1169 -91 856 284 
Q 544 659 544 1381 
z
M 1991 3584 
L 1991 3584 
z
" transform="scale(0.015625)"/>
       <path id="DejaVuSans-64" d="M 2906 2969 
L 2906 4863 
L 3481 4863 
L 3481 0 
L 2906 0 
L 2906 525 
Q 2725 213 2448 61 
Q 2172 -91 1784 -91 
Q 1150 -91 751 415 
Q 353 922 353 1747 
Q 353 2572 751 3078 
Q 1150 3584 1784 3584 
Q 2172 3584 2448 3432 
Q 2725 3281 2906 2969 
z
M 947 1747 
Q 947 1113 1208 752 
Q 1469 391 1925 391 
Q 2381 391 2643 752 
Q 2906 1113 2906 1747 
Q 2906 2381 2643 2742 
Q 2381 3103 1925 3103 
Q 1469 3103 1208 2742 
Q 947 2381 947 1747 
z
" transform="scale(0.015625)"/>
       <path id="DejaVuSans-65" d="M 3597 1894 
L 3597 1613 
L 953 1613 
Q 991 1019 1311 708 
Q 1631 397 2203 397 
Q 2534 397 2845 478 
Q 3156 559 3463 722 
L 3463 178 
Q 3153 47 2828 -22 
Q 2503 -91 2169 -91 
Q 1331 -91 842 396 
Q 353 884 353 1716 
Q 353 2575 817 3079 
Q 1281 3584 2069 3584 
Q 2775 3584 3186 3129 
Q 3597 2675 3597 1894 
z
M 3022 2063 
Q 3016 2534 2758 2815 
Q 2500 3097 2075 3097 
Q 1594 3097 1305 2825 
Q 1016 2553 972 2059 
L 3022 2063 
z
" transform="scale(0.015625)"/>
       <path id="DejaVuSans-20" transform="scale(0.015625)"/>
       <path id="DejaVuSans-5b" d="M 550 4863 
L 1875 4863 
L 1875 4416 
L 1125 4416 
L 1125 -397 
L 1875 -397 
L 1875 -844 
L 550 -844 
L 550 4863 
z
" transform="scale(0.015625)"/>
       <path id="DejaVuSans-56" d="M 1831 0 
L 50 4666 
L 709 4666 
L 2188 738 
L 3669 4666 
L 4325 4666 
L 2547 0 
L 1831 0 
z
" transform="scale(0.015625)"/>
       <path id="DejaVuSans-5d" d="M 1947 4863 
L 1947 -844 
L 622 -844 
L 622 -397 
L 1369 -397 
L 1369 4416 
L 622 4416 
L 622 4863 
L 1947 4863 
z
" transform="scale(0.015625)"/>
      </defs>
      <use xlink:href="#DejaVuSans-61"/>
      <use xlink:href="#DejaVuSans-6d" x="61.279297"/>
      <use xlink:href="#DejaVuSans-70" x="158.691406"/>
      <use xlink:href="#DejaVuSans-6c" x="222.167969"/>
      <use xlink:href="#DejaVuSans-69" x="249.951172"/>
      <use xlink:href="#DejaVuSans-74" x="277.734375"/>
      <use xlink:href="#DejaVuSans-75" x="316.943359"/>
      <use xlink:href="#DejaVuSans-64" x="380.322266"/>
      <use xlink:href="#DejaVuSans-65" x="443.798828"/>
      <use xlink:href="#DejaVuSans-20" x="505.322266"/>
      <use xlink:href="#DejaVuSans-5b" x="537.109375"/>
      <use xlink:href="#DejaVuSans-56" x="576.123047"/>
      <use xlink:href="#DejaVuSans-5d" x="644.53125"/>
     </g>
    </g>
   </g>
   <g id="matplotlib.axis_2">
    <g id="ytick_1">
     <g id="line2d_8">
      <defs>
       <path id="m02e2312d38" d="M 0 0 
L -3.5 0 
" style="stroke: #000000; stroke-width: 0.8"/>
      </defs>
      <g>
       <use xlink:href="#m02e2312d38" x="49.0875" y="298.108667" style="stroke: #000000; stroke-width: 0.8"/>
      </g>
     </g>
     <g id="text_9">
      <!-- 450 -->
      <g transform="translate(23 301.907886) scale(0.1 -0.1)">
       <defs>
        <path id="DejaVuSans-35" d="M 691 4666 
L 3169 4666 
L 3169 4134 
L 1269 4134 
L 1269 2991 
Q 1406 3038 1543 3061 
Q 1681 3084 1819 3084 
Q 2600 3084 3056 2656 
Q 3513 2228 3513 1497 
Q 3513 744 3044 326 
Q 2575 -91 1722 -91 
Q 1428 -91 1123 -41 
Q 819 9 494 109 
L 494 744 
Q 775 591 1075 516 
Q 1375 441 1709 441 
Q 2250 441 2565 725 
Q 2881 1009 2881 1497 
Q 2881 1984 2565 2268 
Q 2250 2553 1709 2553 
Q 1456 2553 1204 2497 
Q 953 2441 691 2322 
L 691 4666 
z
" transform="scale(0.015625)"/>
       </defs>
       <use xlink:href="#DejaVuSans-34"/>
       <use xlink:href="#DejaVuSans-35" x="63.623047"/>
       <use xlink:href="#DejaVuSans-30" x="127.246094"/>
      </g>
     </g>
    </g>
    <g id="ytick_2">
     <g id="line2d_9">
      <g>
       <use xlink:href="#m02e2312d38" x="49.0875" y="264.810308" style="stroke: #000000; stroke-width: 0.8"/>
      </g>
     </g>
     <g id="text_10">
      <!-- 500 -->
      <g transform="translate(23 268.609527) scale(0.1 -0.1)">
       <use xlink:href="#DejaVuSans-35"/>
       <use xlink:href="#DejaVuSans-30" x="63.623047"/>
       <use xlink:href="#DejaVuSans-30" x="127.246094"/>
      </g>
     </g>
    </g>
    <g id="ytick_3">
     <g id="line2d_10">
      <g>
       <use xlink:href="#m02e2312d38" x="49.0875" y="231.511949" style="stroke: #000000; stroke-width: 0.8"/>
      </g>
     </g>
     <g id="text_11">
      <!-- 550 -->
      <g transform="translate(23 235.311167) scale(0.1 -0.1)">
       <use xlink:href="#DejaVuSans-35"/>
       <use xlink:href="#DejaVuSans-35" x="63.623047"/>
       <use xlink:href="#DejaVuSans-30" x="127.246094"/>
      </g>
     </g>
    </g>
    <g id="ytick_4">
     <g id="line2d_11">
      <g>
       <use xlink:href="#m02e2312d38" x="49.0875" y="198.213589" style="stroke: #000000; stroke-width: 0.8"/>
      </g>
     </g>
     <g id="text_12">
      <!-- 600 -->
      <g transform="translate(23 202.012808) scale(0.1 -0.1)">
       <use xlink:href="#DejaVuSans-36"/>
       <use xlink:href="#DejaVuSans-30" x="63.623047"/>
       <use xlink:href="#DejaVuSans-30" x="127.246094"/>
      </g>
     </g>
    </g>
    <g id="ytick_5">
     <g id="line2d_12">
      <g>
       <use xlink:href="#m02e2312d38" x="49.0875" y="164.91523" style="stroke: #000000; stroke-width: 0.8"/>
      </g>
     </g>
     <g id="text_13">
      <!-- 650 -->
      <g transform="translate(23 168.714449) scale(0.1 -0.1)">
       <use xlink:href="#DejaVuSans-36"/>
       <use xlink:href="#DejaVuSans-35" x="63.623047"/>
       <use xlink:href="#DejaVuSans-30" x="127.246094"/>
      </g>
     </g>
    </g>
    <g id="ytick_6">
     <g id="line2d_13">
      <g>
       <use xlink:href="#m02e2312d38" x="49.0875" y="131.616871" style="stroke: #000000; stroke-width: 0.8"/>
      </g>
     </g>
     <g id="text_14">
      <!-- 700 -->
      <g transform="translate(23 135.41609) scale(0.1 -0.1)">
       <defs>
        <path id="DejaVuSans-37" d="M 525 4666 
L 3525 4666 
L 3525 4397 
L 1831 0 
L 1172 0 
L 2766 4134 
L 525 4134 
L 525 4666 
z
" transform="scale(0.015625)"/>
       </defs>
       <use xlink:href="#DejaVuSans-37"/>
       <use xlink:href="#DejaVuSans-30" x="63.623047"/>
       <use xlink:href="#DejaVuSans-30" x="127.246094"/>
      </g>
     </g>
    </g>
    <g id="ytick_7">
     <g id="line2d_14">
      <g>
       <use xlink:href="#m02e2312d38" x="49.0875" y="98.318512" style="stroke: #000000; stroke-width: 0.8"/>
      </g>
     </g>
     <g id="text_15">
      <!-- 750 -->
      <g transform="translate(23 102.117731) scale(0.1 -0.1)">
       <use xlink:href="#DejaVuSans-37"/>
       <use xlink:href="#DejaVuSans-35" x="63.623047"/>
       <use xlink:href="#DejaVuSans-30" x="127.246094"/>
      </g>
     </g>
    </g>
    <g id="ytick_8">
     <g id="line2d_15">
      <g>
       <use xlink:href="#m02e2312d38" x="49.0875" y="65.020153" style="stroke: #000000; stroke-width: 0.8"/>
      </g>
     </g>
     <g id="text_16">
      <!-- 800 -->
      <g transform="translate(23 68.819371) scale(0.1 -0.1)">
       <defs>
        <path id="DejaVuSans-38" d="M 2034 2216 
Q 1584 2216 1326 1975 
Q 1069 1734 1069 1313 
Q 1069 891 1326 650 
Q 1584 409 2034 409 
Q 2484 409 2743 651 
Q 3003 894 3003 1313 
Q 3003 1734 2745 1975 
Q 2488 2216 2034 2216 
z
M 1403 2484 
Q 997 2584 770 2862 
Q 544 3141 544 3541 
Q 544 4100 942 4425 
Q 1341 4750 2034 4750 
Q 2731 4750 3128 4425 
Q 3525 4100 3525 3541 
Q 3525 3141 3298 2862 
Q 3072 2584 2669 2484 
Q 3125 2378 3379 2068 
Q 3634 1759 3634 1313 
Q 3634 634 3220 271 
Q 2806 -91 2034 -91 
Q 1263 -91 848 271 
Q 434 634 434 1313 
Q 434 1759 690 2068 
Q 947 2378 1403 2484 
z
M 1172 3481 
Q 1172 3119 1398 2916 
Q 1625 2713 2034 2713 
Q 2441 2713 2670 2916 
Q 2900 3119 2900 3481 
Q 2900 3844 2670 4047 
Q 2441 4250 2034 4250 
Q 1625 4250 1398 4047 
Q 1172 3844 1172 3481 
z
" transform="scale(0.015625)"/>
       </defs>
       <use xlink:href="#DejaVuSans-38"/>
       <use xlink:href="#DejaVuSans-30" x="63.623047"/>
       <use xlink:href="#DejaVuSans-30" x="127.246094"/>
      </g>
     </g>
    </g>
    <g id="text_17">
     <!-- Rotated transmission $S_{21}^R$ [μV] -->
     <g transform="translate(16.2 249.566) rotate(-90) scale(0.1 -0.1)">
      <defs>
       <path id="DejaVuSans-52" d="M 2841 2188 
Q 3044 2119 3236 1894 
Q 3428 1669 3622 1275 
L 4263 0 
L 3584 0 
L 2988 1197 
Q 2756 1666 2539 1819 
Q 2322 1972 1947 1972 
L 1259 1972 
L 1259 0 
L 628 0 
L 628 4666 
L 2053 4666 
Q 2853 4666 3247 4331 
Q 3641 3997 3641 3322 
Q 3641 2881 3436 2590 
Q 3231 2300 2841 2188 
z
M 1259 4147 
L 1259 2491 
L 2053 2491 
Q 2509 2491 2742 2702 
Q 2975 2913 2975 3322 
Q 2975 3731 2742 3939 
Q 2509 4147 2053 4147 
L 1259 4147 
z
" transform="scale(0.015625)"/>
       <path id="DejaVuSans-6f" d="M 1959 3097 
Q 1497 3097 1228 2736 
Q 959 2375 959 1747 
Q 959 1119 1226 758 
Q 1494 397 1959 397 
Q 2419 397 2687 759 
Q 2956 1122 2956 1747 
Q 2956 2369 2687 2733 
Q 2419 3097 1959 3097 
z
M 1959 3584 
Q 2709 3584 3137 3096 
Q 3566 2609 3566 1747 
Q 3566 888 3137 398 
Q 2709 -91 1959 -91 
Q 1206 -91 779 398 
Q 353 888 353 1747 
Q 353 2609 779 3096 
Q 1206 3584 1959 3584 
z
" transform="scale(0.015625)"/>
       <path id="DejaVuSans-72" d="M 2631 2963 
Q 2534 3019 2420 3045 
Q 2306 3072 2169 3072 
Q 1681 3072 1420 2755 
Q 1159 2438 1159 1844 
L 1159 0 
L 581 0 
L 581 3500 
L 1159 3500 
L 1159 2956 
Q 1341 3275 1631 3429 
Q 1922 3584 2338 3584 
Q 2397 3584 2469 3576 
Q 2541 3569 2628 3553 
L 2631 2963 
z
" transform="scale(0.015625)"/>
       <path id="DejaVuSans-6e" d="M 3513 2113 
L 3513 0 
L 2938 0 
L 2938 2094 
Q 2938 2591 2744 2837 
Q 2550 3084 2163 3084 
Q 1697 3084 1428 2787 
Q 1159 2491 1159 1978 
L 1159 0 
L 581 0 
L 581 3500 
L 1159 3500 
L 1159 2956 
Q 1366 3272 1645 3428 
Q 1925 3584 2291 3584 
Q 2894 3584 3203 3211 
Q 3513 2838 3513 2113 
z
" transform="scale(0.015625)"/>
       <path id="DejaVuSans-73" d="M 2834 3397 
L 2834 2853 
Q 2591 2978 2328 3040 
Q 2066 3103 1784 3103 
Q 1356 3103 1142 2972 
Q 928 2841 928 2578 
Q 928 2378 1081 2264 
Q 1234 2150 1697 2047 
L 1894 2003 
Q 2506 1872 2764 1633 
Q 3022 1394 3022 966 
Q 3022 478 2636 193 
Q 2250 -91 1575 -91 
Q 1294 -91 989 -36 
Q 684 19 347 128 
L 347 722 
Q 666 556 975 473 
Q 1284 391 1588 391 
Q 1994 391 2212 530 
Q 2431 669 2431 922 
Q 2431 1156 2273 1281 
Q 2116 1406 1581 1522 
L 1381 1569 
Q 847 1681 609 1914 
Q 372 2147 372 2553 
Q 372 3047 722 3315 
Q 1072 3584 1716 3584 
Q 2034 3584 2315 3537 
Q 2597 3491 2834 3397 
z
" transform="scale(0.015625)"/>
       <path id="DejaVuSans-Oblique-53" d="M 3859 4513 
L 3738 3897 
Q 3422 4066 3111 4152 
Q 2800 4238 2509 4238 
Q 1944 4238 1609 3991 
Q 1275 3744 1275 3334 
Q 1275 3109 1398 2989 
Q 1522 2869 2034 2731 
L 2413 2638 
Q 3053 2472 3303 2217 
Q 3553 1963 3553 1503 
Q 3553 797 2998 353 
Q 2444 -91 1538 -91 
Q 1166 -91 791 -17 
Q 416 56 38 206 
L 166 856 
Q 513 641 861 531 
Q 1209 422 1556 422 
Q 2147 422 2503 684 
Q 2859 947 2859 1369 
Q 2859 1650 2717 1795 
Q 2575 1941 2106 2059 
L 1728 2156 
Q 1081 2325 845 2545 
Q 609 2766 609 3163 
Q 609 3859 1145 4304 
Q 1681 4750 2541 4750 
Q 2875 4750 3203 4690 
Q 3531 4631 3859 4513 
z
" transform="scale(0.015625)"/>
       <path id="DejaVuSans-Oblique-52" d="M 1613 4147 
L 1294 2491 
L 2106 2491 
Q 2584 2491 2879 2755 
Q 3175 3019 3175 3444 
Q 3175 3784 2976 3965 
Q 2778 4147 2406 4147 
L 1613 4147 
z
M 2772 2241 
Q 2972 2194 3105 2009 
Q 3238 1825 3413 1275 
L 3809 0 
L 3144 0 
L 2778 1197 
Q 2638 1659 2453 1815 
Q 2269 1972 1888 1972 
L 1191 1972 
L 806 0 
L 172 0 
L 1081 4666 
L 2503 4666 
Q 3150 4666 3495 4373 
Q 3841 4081 3841 3531 
Q 3841 3044 3547 2687 
Q 3253 2331 2772 2241 
z
" transform="scale(0.015625)"/>
       <path id="DejaVuSans-31" d="M 794 531 
L 1825 531 
L 1825 4091 
L 703 3866 
L 703 4441 
L 1819 4666 
L 2450 4666 
L 2450 531 
L 3481 531 
L 3481 0 
L 794 0 
L 794 531 
z
" transform="scale(0.015625)"/>
       <path id="DejaVuSans-3bc" d="M 544 -1331 
L 544 3500 
L 1119 3500 
L 1119 1325 
Q 1119 872 1334 640 
Q 1550 409 1972 409 
Q 2434 409 2667 671 
Q 2900 934 2900 1459 
L 2900 3500 
L 3475 3500 
L 3475 806 
Q 3475 619 3529 530 
Q 3584 441 3700 441 
Q 3728 441 3778 458 
Q 3828 475 3916 513 
L 3916 50 
Q 3788 -22 3673 -56 
Q 3559 -91 3450 -91 
Q 3234 -91 3106 31 
Q 2978 153 2931 403 
Q 2775 156 2548 32 
Q 2322 -91 2016 -91 
Q 1697 -91 1473 31 
Q 1250 153 1119 397 
L 1119 -1331 
L 544 -1331 
z
" transform="scale(0.015625)"/>
      </defs>
      <use xlink:href="#DejaVuSans-52" transform="translate(0 0.684375)"/>
      <use xlink:href="#DejaVuSans-6f" transform="translate(69.482422 0.684375)"/>
      <use xlink:href="#DejaVuSans-74" transform="translate(130.664062 0.684375)"/>
      <use xlink:href="#DejaVuSans-61" transform="translate(169.873047 0.684375)"/>
      <use xlink:href="#DejaVuSans-74" transform="translate(231.152344 0.684375)"/>
      <use xlink:href="#DejaVuSans-65" transform="translate(270.361328 0.684375)"/>
      <use xlink:href="#DejaVuSans-64" transform="translate(331.884766 0.684375)"/>
      <use xlink:href="#DejaVuSans-20" transform="translate(395.361328 0.684375)"/>
      <use xlink:href="#DejaVuSans-74" transform="translate(427.148438 0.684375)"/>
      <use xlink:href="#DejaVuSans-72" transform="translate(466.357422 0.684375)"/>
      <use xlink:href="#DejaVuSans-61" transform="translate(507.470703 0.684375)"/>
      <use xlink:href="#DejaVuSans-6e" transform="translate(568.75 0.684375)"/>
      <use xlink:href="#DejaVuSans-73" transform="translate(632.128906 0.684375)"/>
      <use xlink:href="#DejaVuSans-6d" transform="translate(684.228516 0.684375)"/>
      <use xlink:href="#DejaVuSans-69" transform="translate(781.640625 0.684375)"/>
      <use xlink:href="#DejaVuSans-73" transform="translate(809.423828 0.684375)"/>
      <use xlink:href="#DejaVuSans-73" transform="translate(861.523438 0.684375)"/>
      <use xlink:href="#DejaVuSans-69" transform="translate(913.623047 0.684375)"/>
      <use xlink:href="#DejaVuSans-6f" transform="translate(941.40625 0.684375)"/>
      <use xlink:href="#DejaVuSans-6e" transform="translate(1002.587891 0.684375)"/>
      <use xlink:href="#DejaVuSans-20" transform="translate(1065.966797 0.684375)"/>
      <use xlink:href="#DejaVuSans-Oblique-53" transform="translate(1097.753906 0.684375)"/>
      <use xlink:href="#DejaVuSans-Oblique-52" transform="translate(1168.43099 38.965625) scale(0.7)"/>
      <use xlink:href="#DejaVuSans-32" transform="translate(1161.230469 -26.659375) scale(0.7)"/>
      <use xlink:href="#DejaVuSans-31" transform="translate(1205.766602 -26.659375) scale(0.7)"/>
      <use xlink:href="#DejaVuSans-20" transform="translate(1253.037109 0.684375)"/>
      <use xlink:href="#DejaVuSans-5b" transform="translate(1284.824219 0.684375)"/>
      <use xlink:href="#DejaVuSans-3bc" transform="translate(1323.837891 0.684375)"/>
      <use xlink:href="#DejaVuSans-56" transform="translate(1387.460938 0.684375)"/>
      <use xlink:href="#DejaVuSans-5d" transform="translate(1455.869141 0.684375)"/>
     </g>
    </g>
   </g>
   <g id="line2d_16">
    <defs>
     <path id="m4df51c0208" d="M 0 1.5 
C 0.397805 1.5 0.77937 1.341951 1.06066 1.06066 
C 1.341951 0.77937 1.5 0.397805 1.5 0 
C 1.5 -0.397805 1.341951 -0.77937 1.06066 -1.06066 
C 0.77937 -1.341951 0.397805 -1.5 0 -1.5 
C -0.397805 -1.5 -0.77937 -1.341951 -1.06066 -1.06066 
C -1.341951 -0.77937 -1.5 -0.397805 -1.5 0 
C -1.5 0.397805 -1.341951 0.77937 -1.06066 1.06066 
C -0.77937 1.341951 -0.397805 1.5 0 1.5 
z
" style="stroke: #1f77b4"/>
    </defs>
    <g clip-path="url(#p168e6133e7)">
     <use xlink:href="#m4df51c0208" x="65.320227" y="209.057803" style="fill: #1f77b4; stroke: #1f77b4"/>
     <use xlink:href="#m4df51c0208" x="68.599566" y="247.270366" style="fill: #1f77b4; stroke: #1f77b4"/>
     <use xlink:href="#m4df51c0208" x="71.878905" y="229.235537" style="fill: #1f77b4; stroke: #1f77b4"/>
     <use xlink:href="#m4df51c0208" x="75.158244" y="168.017477" style="fill: #1f77b4; stroke: #1f77b4"/>
     <use xlink:href="#m4df51c0208" x="78.437583" y="205.82123" style="fill: #1f77b4; stroke: #1f77b4"/>
     <use xlink:href="#m4df51c0208" x="81.716921" y="202.878813" style="fill: #1f77b4; stroke: #1f77b4"/>
     <use xlink:href="#m4df51c0208" x="84.99626" y="224.128745" style="fill: #1f77b4; stroke: #1f77b4"/>
     <use xlink:href="#m4df51c0208" x="88.275599" y="176.783718" style="fill: #1f77b4; stroke: #1f77b4"/>
     <use xlink:href="#m4df51c0208" x="91.554938" y="152.835614" style="fill: #1f77b4; stroke: #1f77b4"/>
     <use xlink:href="#m4df51c0208" x="94.834277" y="162.946381" style="fill: #1f77b4; stroke: #1f77b4"/>
     <use xlink:href="#m4df51c0208" x="98.113616" y="144.567428" style="fill: #1f77b4; stroke: #1f77b4"/>
     <use xlink:href="#m4df51c0208" x="101.392955" y="140.717337" style="fill: #1f77b4; stroke: #1f77b4"/>
     <use xlink:href="#m4df51c0208" x="104.672293" y="135.355166" style="fill: #1f77b4; stroke: #1f77b4"/>
     <use xlink:href="#m4df51c0208" x="107.951632" y="110.244491" style="fill: #1f77b4; stroke: #1f77b4"/>
     <use xlink:href="#m4df51c0208" x="111.230971" y="112.272413" style="fill: #1f77b4; stroke: #1f77b4"/>
     <use xlink:href="#m4df51c0208" x="114.51031" y="90.046527" style="fill: #1f77b4; stroke: #1f77b4"/>
     <use xlink:href="#m4df51c0208" x="117.789649" y="105.892354" style="fill: #1f77b4; stroke: #1f77b4"/>
     <use xlink:href="#m4df51c0208" x="121.068988" y="84.856011" style="fill: #1f77b4; stroke: #1f77b4"/>
     <use xlink:href="#m4df51c0208" x="124.348326" y="59.268478" style="fill: #1f77b4; stroke: #1f77b4"/>
     <use xlink:href="#m4df51c0208" x="127.627665" y="91.494278" style="fill: #1f77b4; stroke: #1f77b4"/>
     <use xlink:href="#m4df51c0208" x="130.907004" y="63.306441" style="fill: #1f77b4; stroke: #1f77b4"/>
     <use xlink:href="#m4df51c0208" x="134.186343" y="76.813765" style="fill: #1f77b4; stroke: #1f77b4"/>
     <use xlink:href="#m4df51c0208" x="137.465682" y="67.16903" style="fill: #1f77b4; stroke: #1f77b4"/>
     <use xlink:href="#m4df51c0208" x="140.745021" y="61.111502" style="fill: #1f77b4; stroke: #1f77b4"/>
     <use xlink:href="#m4df51c0208" x="144.02436" y="76.349905" style="fill: #1f77b4; stroke: #1f77b4"/>
     <use xlink:href="#m4df51c0208" x="147.303698" y="64.203578" style="fill: #1f77b4; stroke: #1f77b4"/>
     <use xlink:href="#m4df51c0208" x="150.583037" y="76.12141" style="fill: #1f77b4; stroke: #1f77b4"/>
     <use xlink:href="#m4df51c0208" x="153.862376" y="78.207978" style="fill: #1f77b4; stroke: #1f77b4"/>
     <use xlink:href="#m4df51c0208" x="157.141715" y="79.162661" style="fill: #1f77b4; stroke: #1f77b4"/>
     <use xlink:href="#m4df51c0208" x="160.421054" y="101.504084" style="fill: #1f77b4; stroke: #1f77b4"/>
     <use xlink:href="#m4df51c0208" x="163.700393" y="95.301992" style="fill: #1f77b4; stroke: #1f77b4"/>
     <use xlink:href="#m4df51c0208" x="166.979731" y="119.836404" style="fill: #1f77b4; stroke: #1f77b4"/>
     <use xlink:href="#m4df51c0208" x="170.25907" y="110.666884" style="fill: #1f77b4; stroke: #1f77b4"/>
     <use xlink:href="#m4df51c0208" x="173.538409" y="130.077246" style="fill: #1f77b4; stroke: #1f77b4"/>
     <use xlink:href="#m4df51c0208" x="176.817748" y="155.348926" style="fill: #1f77b4; stroke: #1f77b4"/>
     <use xlink:href="#m4df51c0208" x="180.097087" y="157.705144" style="fill: #1f77b4; stroke: #1f77b4"/>
     <use xlink:href="#m4df51c0208" x="183.376426" y="176.774551" style="fill: #1f77b4; stroke: #1f77b4"/>
     <use xlink:href="#m4df51c0208" x="186.655764" y="176.521675" style="fill: #1f77b4; stroke: #1f77b4"/>
     <use xlink:href="#m4df51c0208" x="189.935103" y="200.233068" style="fill: #1f77b4; stroke: #1f77b4"/>
     <use xlink:href="#m4df51c0208" x="193.214442" y="217.094317" style="fill: #1f77b4; stroke: #1f77b4"/>
     <use xlink:href="#m4df51c0208" x="196.493781" y="206.423538" style="fill: #1f77b4; stroke: #1f77b4"/>
     <use xlink:href="#m4df51c0208" x="199.77312" y="233.358883" style="fill: #1f77b4; stroke: #1f77b4"/>
     <use xlink:href="#m4df51c0208" x="203.052459" y="241.178885" style="fill: #1f77b4; stroke: #1f77b4"/>
     <use xlink:href="#m4df51c0208" x="206.331798" y="256.902442" style="fill: #1f77b4; stroke: #1f77b4"/>
     <use xlink:href="#m4df51c0208" x="209.611136" y="271.696823" style="fill: #1f77b4; stroke: #1f77b4"/>
     <use xlink:href="#m4df51c0208" x="212.890475" y="255.050766" style="fill: #1f77b4; stroke: #1f77b4"/>
     <use xlink:href="#m4df51c0208" x="216.169814" y="271.081125" style="fill: #1f77b4; stroke: #1f77b4"/>
     <use xlink:href="#m4df51c0208" x="219.449153" y="268.385288" style="fill: #1f77b4; stroke: #1f77b4"/>
     <use xlink:href="#m4df51c0208" x="222.728492" y="283.201864" style="fill: #1f77b4; stroke: #1f77b4"/>
     <use xlink:href="#m4df51c0208" x="226.007831" y="295.776" style="fill: #1f77b4; stroke: #1f77b4"/>
     <use xlink:href="#m4df51c0208" x="229.287169" y="289.027058" style="fill: #1f77b4; stroke: #1f77b4"/>
     <use xlink:href="#m4df51c0208" x="232.566508" y="278.492976" style="fill: #1f77b4; stroke: #1f77b4"/>
     <use xlink:href="#m4df51c0208" x="235.845847" y="286.105277" style="fill: #1f77b4; stroke: #1f77b4"/>
     <use xlink:href="#m4df51c0208" x="239.125186" y="276.977531" style="fill: #1f77b4; stroke: #1f77b4"/>
     <use xlink:href="#m4df51c0208" x="242.404525" y="260.267653" style="fill: #1f77b4; stroke: #1f77b4"/>
     <use xlink:href="#m4df51c0208" x="245.683864" y="260.068183" style="fill: #1f77b4; stroke: #1f77b4"/>
     <use xlink:href="#m4df51c0208" x="248.963202" y="255.928208" style="fill: #1f77b4; stroke: #1f77b4"/>
     <use xlink:href="#m4df51c0208" x="252.242541" y="223.970227" style="fill: #1f77b4; stroke: #1f77b4"/>
     <use xlink:href="#m4df51c0208" x="255.52188" y="227.355436" style="fill: #1f77b4; stroke: #1f77b4"/>
     <use xlink:href="#m4df51c0208" x="258.801219" y="215.021286" style="fill: #1f77b4; stroke: #1f77b4"/>
     <use xlink:href="#m4df51c0208" x="262.080558" y="196.31549" style="fill: #1f77b4; stroke: #1f77b4"/>
     <use xlink:href="#m4df51c0208" x="265.359897" y="193.233016" style="fill: #1f77b4; stroke: #1f77b4"/>
     <use xlink:href="#m4df51c0208" x="268.639236" y="179.303115" style="fill: #1f77b4; stroke: #1f77b4"/>
     <use xlink:href="#m4df51c0208" x="271.918574" y="155.963417" style="fill: #1f77b4; stroke: #1f77b4"/>
     <use xlink:href="#m4df51c0208" x="275.197913" y="145.340265" style="fill: #1f77b4; stroke: #1f77b4"/>
     <use xlink:href="#m4df51c0208" x="278.477252" y="142.779984" style="fill: #1f77b4; stroke: #1f77b4"/>
     <use xlink:href="#m4df51c0208" x="281.756591" y="126.982883" style="fill: #1f77b4; stroke: #1f77b4"/>
     <use xlink:href="#m4df51c0208" x="285.03593" y="128.32315" style="fill: #1f77b4; stroke: #1f77b4"/>
     <use xlink:href="#m4df51c0208" x="288.315269" y="111.374073" style="fill: #1f77b4; stroke: #1f77b4"/>
     <use xlink:href="#m4df51c0208" x="291.594607" y="111.271642" style="fill: #1f77b4; stroke: #1f77b4"/>
     <use xlink:href="#m4df51c0208" x="294.873946" y="95.383619" style="fill: #1f77b4; stroke: #1f77b4"/>
     <use xlink:href="#m4df51c0208" x="298.153285" y="67.910084" style="fill: #1f77b4; stroke: #1f77b4"/>
     <use xlink:href="#m4df51c0208" x="301.432624" y="91.595934" style="fill: #1f77b4; stroke: #1f77b4"/>
     <use xlink:href="#m4df51c0208" x="304.711963" y="79.189377" style="fill: #1f77b4; stroke: #1f77b4"/>
     <use xlink:href="#m4df51c0208" x="307.991302" y="53.856" style="fill: #1f77b4; stroke: #1f77b4"/>
     <use xlink:href="#m4df51c0208" x="311.27064" y="72.53662" style="fill: #1f77b4; stroke: #1f77b4"/>
     <use xlink:href="#m4df51c0208" x="314.549979" y="57.769669" style="fill: #1f77b4; stroke: #1f77b4"/>
     <use xlink:href="#m4df51c0208" x="317.829318" y="67.070952" style="fill: #1f77b4; stroke: #1f77b4"/>
     <use xlink:href="#m4df51c0208" x="321.108657" y="75.284777" style="fill: #1f77b4; stroke: #1f77b4"/>
     <use xlink:href="#m4df51c0208" x="324.387996" y="62.651481" style="fill: #1f77b4; stroke: #1f77b4"/>
     <use xlink:href="#m4df51c0208" x="327.667335" y="91.387936" style="fill: #1f77b4; stroke: #1f77b4"/>
     <use xlink:href="#m4df51c0208" x="330.946674" y="73.359399" style="fill: #1f77b4; stroke: #1f77b4"/>
     <use xlink:href="#m4df51c0208" x="334.226012" y="83.983764" style="fill: #1f77b4; stroke: #1f77b4"/>
     <use xlink:href="#m4df51c0208" x="337.505351" y="91.819119" style="fill: #1f77b4; stroke: #1f77b4"/>
     <use xlink:href="#m4df51c0208" x="340.78469" y="88.895346" style="fill: #1f77b4; stroke: #1f77b4"/>
     <use xlink:href="#m4df51c0208" x="344.064029" y="123.988304" style="fill: #1f77b4; stroke: #1f77b4"/>
     <use xlink:href="#m4df51c0208" x="347.343368" y="113.229335" style="fill: #1f77b4; stroke: #1f77b4"/>
     <use xlink:href="#m4df51c0208" x="350.622707" y="130.834665" style="fill: #1f77b4; stroke: #1f77b4"/>
     <use xlink:href="#m4df51c0208" x="353.902045" y="143.965444" style="fill: #1f77b4; stroke: #1f77b4"/>
     <use xlink:href="#m4df51c0208" x="357.181384" y="132.57757" style="fill: #1f77b4; stroke: #1f77b4"/>
     <use xlink:href="#m4df51c0208" x="360.460723" y="164.470842" style="fill: #1f77b4; stroke: #1f77b4"/>
     <use xlink:href="#m4df51c0208" x="363.740062" y="146.163039" style="fill: #1f77b4; stroke: #1f77b4"/>
     <use xlink:href="#m4df51c0208" x="367.019401" y="169.480659" style="fill: #1f77b4; stroke: #1f77b4"/>
     <use xlink:href="#m4df51c0208" x="370.29874" y="190.992663" style="fill: #1f77b4; stroke: #1f77b4"/>
     <use xlink:href="#m4df51c0208" x="373.578079" y="164.631472" style="fill: #1f77b4; stroke: #1f77b4"/>
     <use xlink:href="#m4df51c0208" x="376.857417" y="220.049975" style="fill: #1f77b4; stroke: #1f77b4"/>
     <use xlink:href="#m4df51c0208" x="380.136756" y="202.100834" style="fill: #1f77b4; stroke: #1f77b4"/>
     <use xlink:href="#m4df51c0208" x="383.416095" y="208.249791" style="fill: #1f77b4; stroke: #1f77b4"/>
     <use xlink:href="#m4df51c0208" x="386.695434" y="209.959217" style="fill: #1f77b4; stroke: #1f77b4"/>
     <use xlink:href="#m4df51c0208" x="389.974773" y="183.264296" style="fill: #1f77b4; stroke: #1f77b4"/>
    </g>
   </g>
   <g id="line2d_17">
    <path d="M 65.320227 244.016936 
L 67.920063 237.731996 
L 70.844879 229.999466 
L 73.769695 221.640918 
L 77.34447 210.69754 
L 81.244224 198.028936 
L 86.443896 180.334352 
L 100.093036 133.443583 
L 104.31777 119.970257 
L 107.892545 109.337135 
L 110.817361 101.279809 
L 113.742176 93.88792 
L 116.342013 87.936108 
L 118.616869 83.244947 
L 120.891726 79.065963 
L 122.841603 75.91095 
L 124.79148 73.165 
L 126.741357 70.840364 
L 128.366255 69.232543 
L 129.991153 67.92952 
L 131.61605 66.93533 
L 132.915968 66.364441 
L 134.215887 65.994328 
L 135.515805 65.825725 
L 136.815723 65.858966 
L 138.115641 66.093985 
L 139.415559 66.530317 
L 140.715477 67.167096 
L 142.340375 68.242987 
L 143.965272 69.62674 
L 145.59017 71.314069 
L 147.215068 73.299744 
L 149.164945 76.067647 
L 151.114822 79.243914 
L 153.064699 82.814375 
L 155.339556 87.456786 
L 157.614412 92.585803 
L 160.214249 99.003307 
L 163.139064 106.870447 
L 166.38886 116.322739 
L 169.963634 127.449019 
L 174.188368 141.360241 
L 180.038 161.464281 
L 190.437344 197.289656 
L 194.662078 211.023016 
L 198.236853 221.945289 
L 201.486648 231.172244 
L 204.411464 238.80648 
L 207.0113 244.994964 
L 209.286157 249.908092 
L 211.561014 254.321518 
L 213.510891 257.686336 
L 215.460768 260.649276 
L 217.410645 263.197121 
L 219.035543 264.994981 
L 220.66044 266.491082 
L 222.285338 267.680789 
L 223.910235 268.560416 
L 225.210154 269.038996 
L 226.510072 269.316413 
L 227.80999 269.392115 
L 229.109908 269.265954 
L 230.409826 268.93818 
L 231.709744 268.409442 
L 233.009662 267.680789 
L 234.63456 266.491082 
L 236.259457 264.994981 
L 237.884355 263.197121 
L 239.509253 261.103073 
L 241.45913 258.208447 
L 243.409007 254.909614 
L 245.683864 250.569834 
L 247.95872 245.726335 
L 250.558557 239.611965 
L 253.158393 232.926661 
L 256.083208 224.78941 
L 259.333004 215.078855 
L 263.232758 202.66123 
L 267.782471 187.400403 
L 276.231939 158.074508 
L 282.40655 137.007616 
L 286.631284 123.324508 
L 290.206059 112.458866 
L 293.455854 103.29387 
L 296.38067 95.723279 
L 298.980506 89.597102 
L 301.255362 84.742517 
L 303.530219 80.391019 
L 305.480096 77.081692 
L 307.429973 74.176204 
L 309.379851 71.68752 
L 311.004748 69.940074 
L 312.629646 68.495232 
L 314.254543 67.357471 
L 315.879441 66.530317 
L 317.179359 66.093985 
L 318.479277 65.858966 
L 319.779195 65.825725 
L 321.079113 65.994328 
L 322.379032 66.364441 
L 323.67895 66.93533 
L 325.303847 67.92952 
L 326.928745 69.232543 
L 328.553643 70.840364 
L 330.17854 72.747999 
L 332.128417 75.424531 
L 334.078294 78.512296 
L 336.028172 81.997519 
L 338.303028 86.545117 
L 340.577885 91.584857 
L 343.177721 97.907801 
L 346.102537 105.678979 
L 349.352332 115.038703 
L 352.927107 126.081563 
L 357.151841 139.92069 
L 362.676493 158.84516 
L 374.050776 198.028936 
L 378.27551 211.721611 
L 381.850285 222.598003 
L 385.10008 231.774742 
L 388.024896 239.357383 
L 389.974773 244.016936 
L 389.974773 244.016936 
" clip-path="url(#p168e6133e7)" style="fill: none; stroke: #d62728; stroke-width: 1.5; stroke-linecap: square"/>
   </g>
   <g id="patch_3">
    <path d="M 49.0875 307.872 
L 49.0875 41.76 
" style="fill: none; stroke: #000000; stroke-width: 0.8; stroke-linejoin: miter; stroke-linecap: square"/>
   </g>
   <g id="patch_4">
    <path d="M 406.2075 307.872 
L 406.2075 41.76 
" style="fill: none; stroke: #000000; stroke-width: 0.8; stroke-linejoin: miter; stroke-linecap: square"/>
   </g>
   <g id="patch_5">
    <path d="M 49.0875 307.872 
L 406.2075 307.872 
" style="fill: none; stroke: #000000; stroke-width: 0.8; stroke-linejoin: miter; stroke-linecap: square"/>
   </g>
   <g id="patch_6">
    <path d="M 49.0875 41.76 
L 406.2075 41.76 
" style="fill: none; stroke: #000000; stroke-width: 0.8; stroke-linejoin: miter; stroke-linecap: square"/>
   </g>
   <g id="text_18">
    <g id="patch_7">
     <path d="M 424.0635 113.601538 
L 605.5635 113.601538 
Q 609.5635 113.601538 609.5635 109.601538 
L 609.5635 55.0656 
Q 609.5635 51.0656 605.5635 51.0656 
L 424.0635 51.0656 
Q 420.0635 51.0656 420.0635 55.0656 
L 420.0635 109.601538 
Q 420.0635 113.601538 424.0635 113.601538 
z
" style="fill: #ffffff; opacity: 0.5; stroke: #000000; stroke-linejoin: miter"/>
    </g>
    <!-- Summary -->
    <g transform="translate(424.0635 62.664038) scale(0.1 -0.1)">
     <defs>
      <path id="DejaVuSans-53" d="M 3425 4513 
L 3425 3897 
Q 3066 4069 2747 4153 
Q 2428 4238 2131 4238 
Q 1616 4238 1336 4038 
Q 1056 3838 1056 3469 
Q 1056 3159 1242 3001 
Q 1428 2844 1947 2747 
L 2328 2669 
Q 3034 2534 3370 2195 
Q 3706 1856 3706 1288 
Q 3706 609 3251 259 
Q 2797 -91 1919 -91 
Q 1588 -91 1214 -16 
Q 841 59 441 206 
L 441 856 
Q 825 641 1194 531 
Q 1563 422 1919 422 
Q 2459 422 2753 634 
Q 3047 847 3047 1241 
Q 3047 1584 2836 1778 
Q 2625 1972 2144 2069 
L 1759 2144 
Q 1053 2284 737 2584 
Q 422 2884 422 3419 
Q 422 4038 858 4394 
Q 1294 4750 2059 4750 
Q 2388 4750 2728 4690 
Q 3069 4631 3425 4513 
z
" transform="scale(0.015625)"/>
      <path id="DejaVuSans-79" d="M 2059 -325 
Q 1816 -950 1584 -1140 
Q 1353 -1331 966 -1331 
L 506 -1331 
L 506 -850 
L 844 -850 
Q 1081 -850 1212 -737 
Q 1344 -625 1503 -206 
L 1606 56 
L 191 3500 
L 800 3500 
L 1894 763 
L 2988 3500 
L 3597 3500 
L 2059 -325 
z
" transform="scale(0.015625)"/>
     </defs>
     <use xlink:href="#DejaVuSans-53"/>
     <use xlink:href="#DejaVuSans-75" x="63.476562"/>
     <use xlink:href="#DejaVuSans-6d" x="126.855469"/>
     <use xlink:href="#DejaVuSans-6d" x="224.267578"/>
     <use xlink:href="#DejaVuSans-61" x="321.679688"/>
     <use xlink:href="#DejaVuSans-72" x="382.958984"/>
     <use xlink:href="#DejaVuSans-79" x="424.072266"/>
    </g>
    <!-- Pi-pulse amplitude: 395.4$\pm$2.5 mV -->
    <g transform="translate(424.0635 73.863725) scale(0.1 -0.1)">
     <defs>
      <path id="DejaVuSans-50" d="M 1259 4147 
L 1259 2394 
L 2053 2394 
Q 2494 2394 2734 2622 
Q 2975 2850 2975 3272 
Q 2975 3691 2734 3919 
Q 2494 4147 2053 4147 
L 1259 4147 
z
M 628 4666 
L 2053 4666 
Q 2838 4666 3239 4311 
Q 3641 3956 3641 3272 
Q 3641 2581 3239 2228 
Q 2838 1875 2053 1875 
L 1259 1875 
L 1259 0 
L 628 0 
L 628 4666 
z
" transform="scale(0.015625)"/>
      <path id="DejaVuSans-3a" d="M 750 794 
L 1409 794 
L 1409 0 
L 750 0 
L 750 794 
z
M 750 3309 
L 1409 3309 
L 1409 2516 
L 750 2516 
L 750 3309 
z
" transform="scale(0.015625)"/>
      <path id="DejaVuSans-33" d="M 2597 2516 
Q 3050 2419 3304 2112 
Q 3559 1806 3559 1356 
Q 3559 666 3084 287 
Q 2609 -91 1734 -91 
Q 1441 -91 1130 -33 
Q 819 25 488 141 
L 488 750 
Q 750 597 1062 519 
Q 1375 441 1716 441 
Q 2309 441 2620 675 
Q 2931 909 2931 1356 
Q 2931 1769 2642 2001 
Q 2353 2234 1838 2234 
L 1294 2234 
L 1294 2753 
L 1863 2753 
Q 2328 2753 2575 2939 
Q 2822 3125 2822 3475 
Q 2822 3834 2567 4026 
Q 2313 4219 1838 4219 
Q 1578 4219 1281 4162 
Q 984 4106 628 3988 
L 628 4550 
Q 988 4650 1302 4700 
Q 1616 4750 1894 4750 
Q 2613 4750 3031 4423 
Q 3450 4097 3450 3541 
Q 3450 3153 3228 2886 
Q 3006 2619 2597 2516 
z
" transform="scale(0.015625)"/>
      <path id="DejaVuSans-39" d="M 703 97 
L 703 672 
Q 941 559 1184 500 
Q 1428 441 1663 441 
Q 2288 441 2617 861 
Q 2947 1281 2994 2138 
Q 2813 1869 2534 1725 
Q 2256 1581 1919 1581 
Q 1219 1581 811 2004 
Q 403 2428 403 3163 
Q 403 3881 828 4315 
Q 1253 4750 1959 4750 
Q 2769 4750 3195 4129 
Q 3622 3509 3622 2328 
Q 3622 1225 3098 567 
Q 2575 -91 1691 -91 
Q 1453 -91 1209 -44 
Q 966 3 703 97 
z
M 1959 2075 
Q 2384 2075 2632 2365 
Q 2881 2656 2881 3163 
Q 2881 3666 2632 3958 
Q 2384 4250 1959 4250 
Q 1534 4250 1286 3958 
Q 1038 3666 1038 3163 
Q 1038 2656 1286 2365 
Q 1534 2075 1959 2075 
z
" transform="scale(0.015625)"/>
      <path id="DejaVuSans-b1" d="M 2944 4013 
L 2944 2803 
L 4684 2803 
L 4684 2272 
L 2944 2272 
L 2944 1063 
L 2419 1063 
L 2419 2272 
L 678 2272 
L 678 2803 
L 2419 2803 
L 2419 4013 
L 2944 4013 
z
M 678 531 
L 4684 531 
L 4684 0 
L 678 0 
L 678 531 
z
" transform="scale(0.015625)"/>
     </defs>
     <use xlink:href="#DejaVuSans-50" transform="translate(0 0.015625)"/>
     <use xlink:href="#DejaVuSans-69" transform="translate(60.302734 0.015625)"/>
     <use xlink:href="#DejaVuSans-2d" transform="translate(88.085938 0.015625)"/>
     <use xlink:href="#DejaVuSans-70" transform="translate(124.169922 0.015625)"/>
     <use xlink:href="#DejaVuSans-75" transform="translate(187.646484 0.015625)"/>
     <use xlink:href="#DejaVuSans-6c" transform="translate(251.025391 0.015625)"/>
     <use xlink:href="#DejaVuSans-73" transform="translate(278.808594 0.015625)"/>
     <use xlink:href="#DejaVuSans-65" transform="translate(330.908203 0.015625)"/>
     <use xlink:href="#DejaVuSans-20" transform="translate(392.431641 0.015625)"/>
     <use xlink:href="#DejaVuSans-61" transform="translate(424.21875 0.015625)"/>
     <use xlink:href="#DejaVuSans-6d" transform="translate(485.498047 0.015625)"/>
     <use xlink:href="#DejaVuSans-70" transform="translate(582.910156 0.015625)"/>
     <use xlink:href="#DejaVuSans-6c" transform="translate(646.386719 0.015625)"/>
     <use xlink:href="#DejaVuSans-69" transform="translate(674.169922 0.015625)"/>
     <use xlink:href="#DejaVuSans-74" transform="translate(701.953125 0.015625)"/>
     <use xlink:href="#DejaVuSans-75" transform="translate(741.162109 0.015625)"/>
     <use xlink:href="#DejaVuSans-64" transform="translate(804.541016 0.015625)"/>
     <use xlink:href="#DejaVuSans-65" transform="translate(868.017578 0.015625)"/>
     <use xlink:href="#DejaVuSans-3a" transform="translate(929.541016 0.015625)"/>
     <use xlink:href="#DejaVuSans-20" transform="translate(963.232422 0.015625)"/>
     <use xlink:href="#DejaVuSans-33" transform="translate(995.019531 0.015625)"/>
     <use xlink:href="#DejaVuSans-39" transform="translate(1058.642578 0.015625)"/>
     <use xlink:href="#DejaVuSans-35" transform="translate(1122.265625 0.015625)"/>
     <use xlink:href="#DejaVuSans-2e" transform="translate(1185.888672 0.015625)"/>
     <use xlink:href="#DejaVuSans-34" transform="translate(1217.675781 0.015625)"/>
     <use xlink:href="#DejaVuSans-b1" transform="translate(1281.298828 0.015625)"/>
     <use xlink:href="#DejaVuSans-32" transform="translate(1365.087891 0.015625)"/>
     <use xlink:href="#DejaVuSans-2e" transform="translate(1428.710938 0.015625)"/>
     <use xlink:href="#DejaVuSans-35" transform="translate(1460.498047 0.015625)"/>
     <use xlink:href="#DejaVuSans-20" transform="translate(1524.121094 0.015625)"/>
     <use xlink:href="#DejaVuSans-6d" transform="translate(1555.908203 0.015625)"/>
     <use xlink:href="#DejaVuSans-56" transform="translate(1653.320312 0.015625)"/>
    </g>
    <!-- Oscillation amplitude: 152.8$\pm$3.4 μV -->
    <g transform="translate(424.0635 85.083725) scale(0.1 -0.1)">
     <defs>
      <path id="DejaVuSans-4f" d="M 2522 4238 
Q 1834 4238 1429 3725 
Q 1025 3213 1025 2328 
Q 1025 1447 1429 934 
Q 1834 422 2522 422 
Q 3209 422 3611 934 
Q 4013 1447 4013 2328 
Q 4013 3213 3611 3725 
Q 3209 4238 2522 4238 
z
M 2522 4750 
Q 3503 4750 4090 4092 
Q 4678 3434 4678 2328 
Q 4678 1225 4090 567 
Q 3503 -91 2522 -91 
Q 1538 -91 948 565 
Q 359 1222 359 2328 
Q 359 3434 948 4092 
Q 1538 4750 2522 4750 
z
" transform="scale(0.015625)"/>
      <path id="DejaVuSans-63" d="M 3122 3366 
L 3122 2828 
Q 2878 2963 2633 3030 
Q 2388 3097 2138 3097 
Q 1578 3097 1268 2742 
Q 959 2388 959 1747 
Q 959 1106 1268 751 
Q 1578 397 2138 397 
Q 2388 397 2633 464 
Q 2878 531 3122 666 
L 3122 134 
Q 2881 22 2623 -34 
Q 2366 -91 2075 -91 
Q 1284 -91 818 406 
Q 353 903 353 1747 
Q 353 2603 823 3093 
Q 1294 3584 2113 3584 
Q 2378 3584 2631 3529 
Q 2884 3475 3122 3366 
z
" transform="scale(0.015625)"/>
     </defs>
     <use xlink:href="#DejaVuSans-4f" transform="translate(0 0.015625)"/>
     <use xlink:href="#DejaVuSans-73" transform="translate(78.710938 0.015625)"/>
     <use xlink:href="#DejaVuSans-63" transform="translate(130.810547 0.015625)"/>
     <use xlink:href="#DejaVuSans-69" transform="translate(185.791016 0.015625)"/>
     <use xlink:href="#DejaVuSans-6c" transform="translate(213.574219 0.015625)"/>
     <use xlink:href="#DejaVuSans-6c" transform="translate(241.357422 0.015625)"/>
     <use xlink:href="#DejaVuSans-61" transform="translate(269.140625 0.015625)"/>
     <use xlink:href="#DejaVuSans-74" transform="translate(330.419922 0.015625)"/>
     <use xlink:href="#DejaVuSans-69" transform="translate(369.628906 0.015625)"/>
     <use xlink:href="#DejaVuSans-6f" transform="translate(397.412109 0.015625)"/>
     <use xlink:href="#DejaVuSans-6e" transform="translate(458.59375 0.015625)"/>
     <use xlink:href="#DejaVuSans-20" transform="translate(521.972656 0.015625)"/>
     <use xlink:href="#DejaVuSans-61" transform="translate(553.759766 0.015625)"/>
     <use xlink:href="#DejaVuSans-6d" transform="translate(615.039062 0.015625)"/>
     <use xlink:href="#DejaVuSans-70" transform="translate(712.451172 0.015625)"/>
     <use xlink:href="#DejaVuSans-6c" transform="translate(775.927734 0.015625)"/>
     <use xlink:href="#DejaVuSans-69" transform="translate(803.710938 0.015625)"/>
     <use xlink:href="#DejaVuSans-74" transform="translate(831.494141 0.015625)"/>
     <use xlink:href="#DejaVuSans-75" transform="translate(870.703125 0.015625)"/>
     <use xlink:href="#DejaVuSans-64" transform="translate(934.082031 0.015625)"/>
     <use xlink:href="#DejaVuSans-65" transform="translate(997.558594 0.015625)"/>
     <use xlink:href="#DejaVuSans-3a" transform="translate(1059.082031 0.015625)"/>
     <use xlink:href="#DejaVuSans-20" transform="translate(1092.773438 0.015625)"/>
     <use xlink:href="#DejaVuSans-31" transform="translate(1124.560547 0.015625)"/>
     <use xlink:href="#DejaVuSans-35" transform="translate(1188.183594 0.015625)"/>
     <use xlink:href="#DejaVuSans-32" transform="translate(1251.806641 0.015625)"/>
     <use xlink:href="#DejaVuSans-2e" transform="translate(1315.429688 0.015625)"/>
     <use xlink:href="#DejaVuSans-38" transform="translate(1344.591797 0.015625)"/>
     <use xlink:href="#DejaVuSans-b1" transform="translate(1408.214844 0.015625)"/>
     <use xlink:href="#DejaVuSans-33" transform="translate(1492.003906 0.015625)"/>
     <use xlink:href="#DejaVuSans-2e" transform="translate(1555.626953 0.015625)"/>
     <use xlink:href="#DejaVuSans-34" transform="translate(1587.414062 0.015625)"/>
     <use xlink:href="#DejaVuSans-20" transform="translate(1651.037109 0.015625)"/>
     <use xlink:href="#DejaVuSans-3bc" transform="translate(1682.824219 0.015625)"/>
     <use xlink:href="#DejaVuSans-56" transform="translate(1746.447266 0.015625)"/>
    </g>
    <!-- Offset: 646.0$\pm$2.5 μV -->
    <g transform="translate(424.0635 96.303725) scale(0.1 -0.1)">
     <defs>
      <path id="DejaVuSans-66" d="M 2375 4863 
L 2375 4384 
L 1825 4384 
Q 1516 4384 1395 4259 
Q 1275 4134 1275 3809 
L 1275 3500 
L 2222 3500 
L 2222 3053 
L 1275 3053 
L 1275 0 
L 697 0 
L 697 3053 
L 147 3053 
L 147 3500 
L 697 3500 
L 697 3744 
Q 697 4328 969 4595 
Q 1241 4863 1831 4863 
L 2375 4863 
z
" transform="scale(0.015625)"/>
     </defs>
     <use xlink:href="#DejaVuSans-4f" transform="translate(0 0.015625)"/>
     <use xlink:href="#DejaVuSans-66" transform="translate(78.710938 0.015625)"/>
     <use xlink:href="#DejaVuSans-66" transform="translate(113.916016 0.015625)"/>
     <use xlink:href="#DejaVuSans-73" transform="translate(149.121094 0.015625)"/>
     <use xlink:href="#DejaVuSans-65" transform="translate(201.220703 0.015625)"/>
     <use xlink:href="#DejaVuSans-74" transform="translate(262.744141 0.015625)"/>
     <use xlink:href="#DejaVuSans-3a" transform="translate(301.953125 0.015625)"/>
     <use xlink:href="#DejaVuSans-20" transform="translate(335.644531 0.015625)"/>
     <use xlink:href="#DejaVuSans-36" transform="translate(367.431641 0.015625)"/>
     <use xlink:href="#DejaVuSans-34" transform="translate(431.054688 0.015625)"/>
     <use xlink:href="#DejaVuSans-36" transform="translate(494.677734 0.015625)"/>
     <use xlink:href="#DejaVuSans-2e" transform="translate(558.300781 0.015625)"/>
     <use xlink:href="#DejaVuSans-30" transform="translate(590.087891 0.015625)"/>
     <use xlink:href="#DejaVuSans-b1" transform="translate(653.710938 0.015625)"/>
     <use xlink:href="#DejaVuSans-32" transform="translate(737.5 0.015625)"/>
     <use xlink:href="#DejaVuSans-2e" transform="translate(801.123047 0.015625)"/>
     <use xlink:href="#DejaVuSans-35" transform="translate(832.910156 0.015625)"/>
     <use xlink:href="#DejaVuSans-20" transform="translate(896.533203 0.015625)"/>
     <use xlink:href="#DejaVuSans-3bc" transform="translate(928.320312 0.015625)"/>
     <use xlink:href="#DejaVuSans-56" transform="translate(991.943359 0.015625)"/>
    </g>
    <!--  -->
    <g transform="translate(424.0635 107.52185) scale(0.1 -0.1)"/>
   </g>
  </g>
  <g id="text_19">
   <!--  Rabi -->
   <g transform="translate(206.79375 16.318125) scale(0.12 -0.12)">
    <defs>
     <path id="DejaVuSans-62" d="M 3116 1747 
Q 3116 2381 2855 2742 
Q 2594 3103 2138 3103 
Q 1681 3103 1420 2742 
Q 1159 2381 1159 1747 
Q 1159 1113 1420 752 
Q 1681 391 2138 391 
Q 2594 391 2855 752 
Q 3116 1113 3116 1747 
z
M 1159 2969 
Q 1341 3281 1617 3432 
Q 1894 3584 2278 3584 
Q 2916 3584 3314 3078 
Q 3713 2572 3713 1747 
Q 3713 922 3314 415 
Q 2916 -91 2278 -91 
Q 1894 -91 1617 61 
Q 1341 213 1159 525 
L 1159 0 
L 581 0 
L 581 4863 
L 1159 4863 
L 1159 2969 
z
" transform="scale(0.015625)"/>
    </defs>
    <use xlink:href="#DejaVuSans-20"/>
    <use xlink:href="#DejaVuSans-52" x="31.787109"/>
    <use xlink:href="#DejaVuSans-61" x="99.019531"/>
    <use xlink:href="#DejaVuSans-62" x="160.298828"/>
    <use xlink:href="#DejaVuSans-69" x="223.775391"/>
   </g>
   <!-- tuid: 20231227-164136-253-340b02 -->
   <g transform="translate(112.040625 29.7555) scale(0.12 -0.12)">
    <use xlink:href="#DejaVuSans-74"/>
    <use xlink:href="#DejaVuSans-75" x="39.208984"/>
    <use xlink:href="#DejaVuSans-69" x="102.587891"/>
    <use xlink:href="#DejaVuSans-64" x="130.371094"/>
    <use xlink:href="#DejaVuSans-3a" x="193.847656"/>
    <use xlink:href="#DejaVuSans-20" x="227.539062"/>
    <use xlink:href="#DejaVuSans-32" x="259.326172"/>
    <use xlink:href="#DejaVuSans-30" x="322.949219"/>
    <use xlink:href="#DejaVuSans-32" x="386.572266"/>
    <use xlink:href="#DejaVuSans-33" x="450.195312"/>
    <use xlink:href="#DejaVuSans-31" x="513.818359"/>
    <use xlink:href="#DejaVuSans-32" x="577.441406"/>
    <use xlink:href="#DejaVuSans-32" x="641.064453"/>
    <use xlink:href="#DejaVuSans-37" x="704.6875"/>
    <use xlink:href="#DejaVuSans-2d" x="768.310547"/>
    <use xlink:href="#DejaVuSans-31" x="804.394531"/>
    <use xlink:href="#DejaVuSans-36" x="868.017578"/>
    <use xlink:href="#DejaVuSans-34" x="931.640625"/>
    <use xlink:href="#DejaVuSans-31" x="995.263672"/>
    <use xlink:href="#DejaVuSans-33" x="1058.886719"/>
    <use xlink:href="#DejaVuSans-36" x="1122.509766"/>
    <use xlink:href="#DejaVuSans-2d" x="1186.132812"/>
    <use xlink:href="#DejaVuSans-32" x="1222.216797"/>
    <use xlink:href="#DejaVuSans-35" x="1285.839844"/>
    <use xlink:href="#DejaVuSans-33" x="1349.462891"/>
    <use xlink:href="#DejaVuSans-2d" x="1413.085938"/>
    <use xlink:href="#DejaVuSans-33" x="1449.169922"/>
    <use xlink:href="#DejaVuSans-34" x="1512.792969"/>
    <use xlink:href="#DejaVuSans-30" x="1576.416016"/>
    <use xlink:href="#DejaVuSans-62" x="1640.039062"/>
    <use xlink:href="#DejaVuSans-30" x="1703.515625"/>
    <use xlink:href="#DejaVuSans-32" x="1767.138672"/>
   </g>
  </g>
 </g>
 <defs>
  <clipPath id="p168e6133e7">
   <rect x="49.0875" y="41.76" width="357.12" height="266.112"/>
  </clipPath>
 </defs>
</svg>
