<?xml version="1.0" encoding="utf-8" standalone="no"?>
<!DOCTYPE svg PUBLIC "-//W3C//DTD SVG 1.1//EN"
  "http://www.w3.org/Graphics/SVG/1.1/DTD/svg11.dtd">
<svg xmlns:xlink="http://www.w3.org/1999/xlink" width="578.271312pt" height="345.42825pt" viewBox="0 0 578.271312 345.42825" xmlns="http://www.w3.org/2000/svg" version="1.1">
 <metadata>
  <rdf:RDF xmlns:dc="http://purl.org/dc/elements/1.1/" xmlns:cc="http://creativecommons.org/ns#" xmlns:rdf="http://www.w3.org/1999/02/22-rdf-syntax-ns#">
   <cc:Work>
    <dc:type rdf:resource="http://purl.org/dc/dcmitype/StillImage"/>
    <dc:date>2023-12-27T18:56:44.401089</dc:date>
    <dc:format>image/svg+xml</dc:format>
    <dc:creator>
     <cc:Agent>
      <dc:title>Matplotlib v3.8.2, https://matplotlib.org/</dc:title>
     </cc:Agent>
    </dc:creator>
   </cc:Work>
  </rdf:RDF>
 </metadata>
 <defs>
  <style type="text/css">*{stroke-linejoin: round; stroke-linecap: butt}</style>
 </defs>
 <g id="figure_1">
  <g id="patch_1">
   <path d="M 0 345.42825 
L 578.271312 345.42825 
L 578.271312 -0 
L 0 -0 
L 0 345.42825 
z
" style="fill: none; opacity: 0"/>
  </g>
  <g id="axes_1">
   <g id="patch_2">
    <path d="M 50.595313 162.72 
L 407.715312 162.72 
L 407.715312 41.76 
L 50.595313 41.76 
z
" style="fill: #ffffff"/>
   </g>
   <g id="matplotlib.axis_1">
    <g id="xtick_1">
     <g id="line2d_1">
      <defs>
       <path id="me9b5a73365" d="M 0 0 
L 0 3.5 
" style="stroke: #000000; stroke-width: 0.8"/>
      </defs>
      <g>
       <use xlink:href="#me9b5a73365" x="74.944403" y="162.72" style="stroke: #000000; stroke-width: 0.8"/>
      </g>
     </g>
    </g>
    <g id="xtick_2">
     <g id="line2d_2">
      <g>
       <use xlink:href="#me9b5a73365" x="139.875312" y="162.72" style="stroke: #000000; stroke-width: 0.8"/>
      </g>
     </g>
    </g>
    <g id="xtick_3">
     <g id="line2d_3">
      <g>
       <use xlink:href="#me9b5a73365" x="204.806222" y="162.72" style="stroke: #000000; stroke-width: 0.8"/>
      </g>
     </g>
    </g>
    <g id="xtick_4">
     <g id="line2d_4">
      <g>
       <use xlink:href="#me9b5a73365" x="269.737131" y="162.72" style="stroke: #000000; stroke-width: 0.8"/>
      </g>
     </g>
    </g>
    <g id="xtick_5">
     <g id="line2d_5">
      <g>
       <use xlink:href="#me9b5a73365" x="334.66804" y="162.72" style="stroke: #000000; stroke-width: 0.8"/>
      </g>
     </g>
    </g>
    <g id="xtick_6">
     <g id="line2d_6">
      <g>
       <use xlink:href="#me9b5a73365" x="399.598949" y="162.72" style="stroke: #000000; stroke-width: 0.8"/>
      </g>
     </g>
    </g>
   </g>
   <g id="matplotlib.axis_2">
    <g id="ytick_1">
     <g id="line2d_7">
      <defs>
       <path id="m8a1dd397df" d="M 0 0 
L -3.5 0 
" style="stroke: #000000; stroke-width: 0.8"/>
      </defs>
      <g>
       <use xlink:href="#m8a1dd397df" x="50.595313" y="147.307701" style="stroke: #000000; stroke-width: 0.8"/>
      </g>
     </g>
     <g id="text_1">
      <!-- 2 -->
      <g transform="translate(37.232813 151.106919) scale(0.1 -0.1)">
       <defs>
        <path id="DejaVuSans-32" d="M 1228 531 
L 3431 531 
L 3431 0 
L 469 0 
L 469 531 
Q 828 903 1448 1529 
Q 2069 2156 2228 2338 
Q 2531 2678 2651 2914 
Q 2772 3150 2772 3378 
Q 2772 3750 2511 3984 
Q 2250 4219 1831 4219 
Q 1534 4219 1204 4116 
Q 875 4013 500 3803 
L 500 4441 
Q 881 4594 1212 4672 
Q 1544 4750 1819 4750 
Q 2544 4750 2975 4387 
Q 3406 4025 3406 3419 
Q 3406 3131 3298 2873 
Q 3191 2616 2906 2266 
Q 2828 2175 2409 1742 
Q 1991 1309 1228 531 
z
" transform="scale(0.015625)"/>
       </defs>
       <use xlink:href="#DejaVuSans-32"/>
      </g>
     </g>
    </g>
    <g id="ytick_2">
     <g id="line2d_8">
      <g>
       <use xlink:href="#m8a1dd397df" x="50.595313" y="121.790125" style="stroke: #000000; stroke-width: 0.8"/>
      </g>
     </g>
     <g id="text_2">
      <!-- 4 -->
      <g transform="translate(37.232813 125.589344) scale(0.1 -0.1)">
       <defs>
        <path id="DejaVuSans-34" d="M 2419 4116 
L 825 1625 
L 2419 1625 
L 2419 4116 
z
M 2253 4666 
L 3047 4666 
L 3047 1625 
L 3713 1625 
L 3713 1100 
L 3047 1100 
L 3047 0 
L 2419 0 
L 2419 1100 
L 313 1100 
L 313 1709 
L 2253 4666 
z
" transform="scale(0.015625)"/>
       </defs>
       <use xlink:href="#DejaVuSans-34"/>
      </g>
     </g>
    </g>
    <g id="ytick_3">
     <g id="line2d_9">
      <g>
       <use xlink:href="#m8a1dd397df" x="50.595313" y="96.27255" style="stroke: #000000; stroke-width: 0.8"/>
      </g>
     </g>
     <g id="text_3">
      <!-- 6 -->
      <g transform="translate(37.232813 100.071769) scale(0.1 -0.1)">
       <defs>
        <path id="DejaVuSans-36" d="M 2113 2584 
Q 1688 2584 1439 2293 
Q 1191 2003 1191 1497 
Q 1191 994 1439 701 
Q 1688 409 2113 409 
Q 2538 409 2786 701 
Q 3034 994 3034 1497 
Q 3034 2003 2786 2293 
Q 2538 2584 2113 2584 
z
M 3366 4563 
L 3366 3988 
Q 3128 4100 2886 4159 
Q 2644 4219 2406 4219 
Q 1781 4219 1451 3797 
Q 1122 3375 1075 2522 
Q 1259 2794 1537 2939 
Q 1816 3084 2150 3084 
Q 2853 3084 3261 2657 
Q 3669 2231 3669 1497 
Q 3669 778 3244 343 
Q 2819 -91 2113 -91 
Q 1303 -91 875 529 
Q 447 1150 447 2328 
Q 447 3434 972 4092 
Q 1497 4750 2381 4750 
Q 2619 4750 2861 4703 
Q 3103 4656 3366 4563 
z
" transform="scale(0.015625)"/>
       </defs>
       <use xlink:href="#DejaVuSans-36"/>
      </g>
     </g>
    </g>
    <g id="ytick_4">
     <g id="line2d_10">
      <g>
       <use xlink:href="#m8a1dd397df" x="50.595313" y="70.754975" style="stroke: #000000; stroke-width: 0.8"/>
      </g>
     </g>
     <g id="text_4">
      <!-- 8 -->
      <g transform="translate(37.232813 74.554193) scale(0.1 -0.1)">
       <defs>
        <path id="DejaVuSans-38" d="M 2034 2216 
Q 1584 2216 1326 1975 
Q 1069 1734 1069 1313 
Q 1069 891 1326 650 
Q 1584 409 2034 409 
Q 2484 409 2743 651 
Q 3003 894 3003 1313 
Q 3003 1734 2745 1975 
Q 2488 2216 2034 2216 
z
M 1403 2484 
Q 997 2584 770 2862 
Q 544 3141 544 3541 
Q 544 4100 942 4425 
Q 1341 4750 2034 4750 
Q 2731 4750 3128 4425 
Q 3525 4100 3525 3541 
Q 3525 3141 3298 2862 
Q 3072 2584 2669 2484 
Q 3125 2378 3379 2068 
Q 3634 1759 3634 1313 
Q 3634 634 3220 271 
Q 2806 -91 2034 -91 
Q 1263 -91 848 271 
Q 434 634 434 1313 
Q 434 1759 690 2068 
Q 947 2378 1403 2484 
z
M 1172 3481 
Q 1172 3119 1398 2916 
Q 1625 2713 2034 2713 
Q 2441 2713 2670 2916 
Q 2900 3119 2900 3481 
Q 2900 3844 2670 4047 
Q 2441 4250 2034 4250 
Q 1625 4250 1398 4047 
Q 1172 3844 1172 3481 
z
" transform="scale(0.015625)"/>
       </defs>
       <use xlink:href="#DejaVuSans-38"/>
      </g>
     </g>
    </g>
    <g id="ytick_5">
     <g id="line2d_11">
      <g>
       <use xlink:href="#m8a1dd397df" x="50.595313" y="45.237399" style="stroke: #000000; stroke-width: 0.8"/>
      </g>
     </g>
     <g id="text_5">
      <!-- 10 -->
      <g transform="translate(30.870313 49.036618) scale(0.1 -0.1)">
       <defs>
        <path id="DejaVuSans-31" d="M 794 531 
L 1825 531 
L 1825 4091 
L 703 3866 
L 703 4441 
L 1819 4666 
L 2450 4666 
L 2450 531 
L 3481 531 
L 3481 0 
L 794 0 
L 794 531 
z
" transform="scale(0.015625)"/>
        <path id="DejaVuSans-30" d="M 2034 4250 
Q 1547 4250 1301 3770 
Q 1056 3291 1056 2328 
Q 1056 1369 1301 889 
Q 1547 409 2034 409 
Q 2525 409 2770 889 
Q 3016 1369 3016 2328 
Q 3016 3291 2770 3770 
Q 2525 4250 2034 4250 
z
M 2034 4750 
Q 2819 4750 3233 4129 
Q 3647 3509 3647 2328 
Q 3647 1150 3233 529 
Q 2819 -91 2034 -91 
Q 1250 -91 836 529 
Q 422 1150 422 2328 
Q 422 3509 836 4129 
Q 1250 4750 2034 4750 
z
" transform="scale(0.015625)"/>
       </defs>
       <use xlink:href="#DejaVuSans-31"/>
       <use xlink:href="#DejaVuSans-30" x="63.623047"/>
      </g>
     </g>
    </g>
    <g id="text_6">
     <!-- $|S_{21}|$ [mV] -->
     <g transform="translate(24.470313 127.19) rotate(-90) scale(0.1 -0.1)">
      <defs>
       <path id="DejaVuSans-7c" d="M 1344 4891 
L 1344 -1509 
L 813 -1509 
L 813 4891 
L 1344 4891 
z
" transform="scale(0.015625)"/>
       <path id="DejaVuSans-Oblique-53" d="M 3859 4513 
L 3738 3897 
Q 3422 4066 3111 4152 
Q 2800 4238 2509 4238 
Q 1944 4238 1609 3991 
Q 1275 3744 1275 3334 
Q 1275 3109 1398 2989 
Q 1522 2869 2034 2731 
L 2413 2638 
Q 3053 2472 3303 2217 
Q 3553 1963 3553 1503 
Q 3553 797 2998 353 
Q 2444 -91 1538 -91 
Q 1166 -91 791 -17 
Q 416 56 38 206 
L 166 856 
Q 513 641 861 531 
Q 1209 422 1556 422 
Q 2147 422 2503 684 
Q 2859 947 2859 1369 
Q 2859 1650 2717 1795 
Q 2575 1941 2106 2059 
L 1728 2156 
Q 1081 2325 845 2545 
Q 609 2766 609 3163 
Q 609 3859 1145 4304 
Q 1681 4750 2541 4750 
Q 2875 4750 3203 4690 
Q 3531 4631 3859 4513 
z
" transform="scale(0.015625)"/>
       <path id="DejaVuSans-20" transform="scale(0.015625)"/>
       <path id="DejaVuSans-5b" d="M 550 4863 
L 1875 4863 
L 1875 4416 
L 1125 4416 
L 1125 -397 
L 1875 -397 
L 1875 -844 
L 550 -844 
L 550 4863 
z
" transform="scale(0.015625)"/>
       <path id="DejaVuSans-6d" d="M 3328 2828 
Q 3544 3216 3844 3400 
Q 4144 3584 4550 3584 
Q 5097 3584 5394 3201 
Q 5691 2819 5691 2113 
L 5691 0 
L 5113 0 
L 5113 2094 
Q 5113 2597 4934 2840 
Q 4756 3084 4391 3084 
Q 3944 3084 3684 2787 
Q 3425 2491 3425 1978 
L 3425 0 
L 2847 0 
L 2847 2094 
Q 2847 2600 2669 2842 
Q 2491 3084 2119 3084 
Q 1678 3084 1418 2786 
Q 1159 2488 1159 1978 
L 1159 0 
L 581 0 
L 581 3500 
L 1159 3500 
L 1159 2956 
Q 1356 3278 1631 3431 
Q 1906 3584 2284 3584 
Q 2666 3584 2933 3390 
Q 3200 3197 3328 2828 
z
" transform="scale(0.015625)"/>
       <path id="DejaVuSans-56" d="M 1831 0 
L 50 4666 
L 709 4666 
L 2188 738 
L 3669 4666 
L 4325 4666 
L 2547 0 
L 1831 0 
z
" transform="scale(0.015625)"/>
       <path id="DejaVuSans-5d" d="M 1947 4863 
L 1947 -844 
L 622 -844 
L 622 -397 
L 1369 -397 
L 1369 4416 
L 622 4416 
L 622 4863 
L 1947 4863 
z
" transform="scale(0.015625)"/>
      </defs>
      <use xlink:href="#DejaVuSans-7c" transform="translate(0 0.578125)"/>
      <use xlink:href="#DejaVuSans-Oblique-53" transform="translate(33.691406 0.578125)"/>
      <use xlink:href="#DejaVuSans-32" transform="translate(97.167969 -15.828125) scale(0.7)"/>
      <use xlink:href="#DejaVuSans-31" transform="translate(141.704102 -15.828125) scale(0.7)"/>
      <use xlink:href="#DejaVuSans-7c" transform="translate(188.974609 0.578125)"/>
      <use xlink:href="#DejaVuSans-20" transform="translate(222.666016 0.578125)"/>
      <use xlink:href="#DejaVuSans-5b" transform="translate(254.453125 0.578125)"/>
      <use xlink:href="#DejaVuSans-6d" transform="translate(293.466797 0.578125)"/>
      <use xlink:href="#DejaVuSans-56" transform="translate(390.878906 0.578125)"/>
      <use xlink:href="#DejaVuSans-5d" transform="translate(459.287109 0.578125)"/>
     </g>
    </g>
   </g>
   <g id="line2d_12">
    <path d="M 66.82804 59.378453 
L 68.45947 60.463423 
L 71.722329 58.667426 
L 73.353759 58.11371 
L 74.985189 58.773768 
L 76.616619 58.880061 
L 78.248049 58.191393 
L 79.879479 59.336711 
L 81.510909 59.006449 
L 83.142339 57.472137 
L 84.773768 57.939713 
L 89.668058 56.921283 
L 91.299488 57.409293 
L 92.930918 57.475067 
L 94.562348 56.701362 
L 96.193778 55.026273 
L 97.825207 56.270405 
L 99.456637 55.772226 
L 101.088067 56.66124 
L 102.719497 55.313991 
L 104.350927 53.687955 
L 105.982357 54.249866 
L 107.613787 54.246166 
L 109.245217 54.117848 
L 110.876646 52.7955 
L 112.508076 53.440799 
L 114.139506 51.249044 
L 115.770936 51.374991 
L 117.402366 52.541039 
L 119.033796 53.078536 
L 120.665226 51.761962 
L 122.296656 52.069532 
L 123.928085 50.958126 
L 125.559515 51.222524 
L 127.190945 51.311235 
L 128.822375 49.84293 
L 130.453805 49.009972 
L 132.085235 50.780503 
L 133.716665 50.055234 
L 135.348095 49.715763 
L 136.979524 49.682373 
L 138.610954 48.176518 
L 140.242384 47.258182 
L 141.873814 47.259644 
L 143.505244 49.151052 
L 145.136674 47.544095 
L 146.768104 47.989719 
L 148.399534 48.87506 
L 150.030963 48.495954 
L 151.662393 47.738711 
L 153.293823 49.3647 
L 154.925253 48.260613 
L 156.556683 48.152994 
L 158.188113 50.898853 
L 159.819543 51.106552 
L 161.450973 52.252253 
L 163.082402 52.45612 
L 164.713832 52.997105 
L 166.345262 55.005151 
L 167.976692 54.794524 
L 169.608122 56.019707 
L 171.239552 61.194282 
L 172.870982 62.230237 
L 176.133842 66.562001 
L 177.765271 68.29107 
L 179.396701 69.188237 
L 181.028131 74.926224 
L 182.659561 78.673966 
L 184.290991 81.210259 
L 185.922421 85.589791 
L 187.553851 87.592043 
L 189.185281 93.706594 
L 190.81671 98.493217 
L 192.44814 102.525371 
L 194.07957 103.525046 
L 195.711 107.980352 
L 198.97386 118.359848 
L 200.60529 122.423178 
L 202.23672 126.186635 
L 207.131009 141.535574 
L 208.762439 144.325747 
L 210.393869 147.805094 
L 212.025299 149.974367 
L 213.656729 153.420744 
L 215.288159 155.545969 
L 216.919588 155.278698 
L 218.551018 157.221818 
L 220.182448 155.298498 
L 221.813878 154.516755 
L 223.445308 153.990396 
L 225.076738 151.318987 
L 226.708168 149.07437 
L 228.339598 147.56904 
L 229.971027 145.651791 
L 231.602457 144.309815 
L 233.233887 141.007058 
L 234.865317 141.193393 
L 236.496747 137.762277 
L 238.128177 135.645696 
L 239.759607 134.303343 
L 241.391037 131.684949 
L 243.022466 131.385014 
L 244.653896 127.320288 
L 246.285326 125.440606 
L 247.916756 125.480979 
L 249.548186 124.556608 
L 251.179616 121.559997 
L 254.442476 119.839575 
L 257.705335 116.722609 
L 259.336765 116.504419 
L 260.968195 115.741854 
L 262.599625 114.587983 
L 264.231055 114.005721 
L 265.862485 111.942276 
L 267.493915 111.471081 
L 269.125344 109.017141 
L 270.756774 111.158813 
L 272.388204 108.076692 
L 275.651064 106.071702 
L 277.282494 106.476283 
L 278.913924 106.613688 
L 280.545354 105.445394 
L 282.176783 103.73238 
L 283.808213 104.75445 
L 285.439643 102.745222 
L 287.071073 102.452471 
L 288.702503 101.859671 
L 290.333933 102.921836 
L 291.965363 100.80782 
L 293.596793 100.524637 
L 295.228223 98.800326 
L 296.859652 99.723455 
L 298.491082 98.921402 
L 300.122512 98.438783 
L 301.753942 98.552149 
L 303.385372 97.518711 
L 305.016802 97.047637 
L 306.648232 97.18728 
L 308.279662 95.986086 
L 309.911091 97.304338 
L 311.542521 95.939088 
L 313.173951 95.851737 
L 314.805381 95.063291 
L 316.436811 94.688706 
L 318.068241 93.312663 
L 319.699671 92.107371 
L 321.331101 92.560145 
L 322.96253 92.800412 
L 324.59396 92.720155 
L 326.22539 92.854461 
L 327.85682 91.604536 
L 329.48825 91.464558 
L 331.11968 90.757758 
L 332.75111 90.815952 
L 334.38254 91.645715 
L 336.013969 89.168167 
L 337.645399 90.577394 
L 339.276829 89.320559 
L 342.539689 89.22406 
L 344.171119 89.580345 
L 345.802549 88.569571 
L 347.433979 87.201709 
L 349.065408 88.795533 
L 350.696838 87.954896 
L 352.328268 86.987172 
L 353.959698 87.775903 
L 355.591128 87.897019 
L 357.222558 87.828386 
L 358.853988 86.663211 
L 360.485418 85.923022 
L 362.116847 86.867146 
L 363.748277 86.421336 
L 365.379707 85.853894 
L 367.011137 86.69222 
L 368.642567 84.207889 
L 370.273997 85.078887 
L 371.905427 85.502408 
L 373.536857 85.650257 
L 375.168286 84.433345 
L 376.799716 83.733381 
L 378.431146 85.151958 
L 380.062576 83.695388 
L 381.694006 84.245238 
L 383.325436 82.844808 
L 384.956866 82.278054 
L 386.588296 83.717835 
L 388.219725 83.887062 
L 389.851155 81.255222 
L 391.482585 82.929974 
L 391.482585 82.929974 
" clip-path="url(#p6616085ebc)" style="fill: none; stroke: #1f77b4; stroke-width: 1.5; stroke-linecap: square"/>
    <defs>
     <path id="m4d651e918b" d="M 0 1.5 
C 0.397805 1.5 0.77937 1.341951 1.06066 1.06066 
C 1.341951 0.77937 1.5 0.397805 1.5 0 
C 1.5 -0.397805 1.341951 -0.77937 1.06066 -1.06066 
C 0.77937 -1.341951 0.397805 -1.5 0 -1.5 
C -0.397805 -1.5 -0.77937 -1.341951 -1.06066 -1.06066 
C -1.341951 -0.77937 -1.5 -0.397805 -1.5 0 
C -1.5 0.397805 -1.341951 0.77937 -1.06066 1.06066 
C -0.77937 1.341951 -0.397805 1.5 0 1.5 
z
" style="stroke: #1f77b4"/>
    </defs>
    <g clip-path="url(#p6616085ebc)">
     <use xlink:href="#m4d651e918b" x="66.82804" y="59.378453" style="fill: #1f77b4; stroke: #1f77b4"/>
     <use xlink:href="#m4d651e918b" x="68.45947" y="60.463423" style="fill: #1f77b4; stroke: #1f77b4"/>
     <use xlink:href="#m4d651e918b" x="70.0909" y="59.501305" style="fill: #1f77b4; stroke: #1f77b4"/>
     <use xlink:href="#m4d651e918b" x="71.722329" y="58.667426" style="fill: #1f77b4; stroke: #1f77b4"/>
     <use xlink:href="#m4d651e918b" x="73.353759" y="58.11371" style="fill: #1f77b4; stroke: #1f77b4"/>
     <use xlink:href="#m4d651e918b" x="74.985189" y="58.773768" style="fill: #1f77b4; stroke: #1f77b4"/>
     <use xlink:href="#m4d651e918b" x="76.616619" y="58.880061" style="fill: #1f77b4; stroke: #1f77b4"/>
     <use xlink:href="#m4d651e918b" x="78.248049" y="58.191393" style="fill: #1f77b4; stroke: #1f77b4"/>
     <use xlink:href="#m4d651e918b" x="79.879479" y="59.336711" style="fill: #1f77b4; stroke: #1f77b4"/>
     <use xlink:href="#m4d651e918b" x="81.510909" y="59.006449" style="fill: #1f77b4; stroke: #1f77b4"/>
     <use xlink:href="#m4d651e918b" x="83.142339" y="57.472137" style="fill: #1f77b4; stroke: #1f77b4"/>
     <use xlink:href="#m4d651e918b" x="84.773768" y="57.939713" style="fill: #1f77b4; stroke: #1f77b4"/>
     <use xlink:href="#m4d651e918b" x="86.405198" y="57.586177" style="fill: #1f77b4; stroke: #1f77b4"/>
     <use xlink:href="#m4d651e918b" x="88.036628" y="57.274354" style="fill: #1f77b4; stroke: #1f77b4"/>
     <use xlink:href="#m4d651e918b" x="89.668058" y="56.921283" style="fill: #1f77b4; stroke: #1f77b4"/>
     <use xlink:href="#m4d651e918b" x="91.299488" y="57.409293" style="fill: #1f77b4; stroke: #1f77b4"/>
     <use xlink:href="#m4d651e918b" x="92.930918" y="57.475067" style="fill: #1f77b4; stroke: #1f77b4"/>
     <use xlink:href="#m4d651e918b" x="94.562348" y="56.701362" style="fill: #1f77b4; stroke: #1f77b4"/>
     <use xlink:href="#m4d651e918b" x="96.193778" y="55.026273" style="fill: #1f77b4; stroke: #1f77b4"/>
     <use xlink:href="#m4d651e918b" x="97.825207" y="56.270405" style="fill: #1f77b4; stroke: #1f77b4"/>
     <use xlink:href="#m4d651e918b" x="99.456637" y="55.772226" style="fill: #1f77b4; stroke: #1f77b4"/>
     <use xlink:href="#m4d651e918b" x="101.088067" y="56.66124" style="fill: #1f77b4; stroke: #1f77b4"/>
     <use xlink:href="#m4d651e918b" x="102.719497" y="55.313991" style="fill: #1f77b4; stroke: #1f77b4"/>
     <use xlink:href="#m4d651e918b" x="104.350927" y="53.687955" style="fill: #1f77b4; stroke: #1f77b4"/>
     <use xlink:href="#m4d651e918b" x="105.982357" y="54.249866" style="fill: #1f77b4; stroke: #1f77b4"/>
     <use xlink:href="#m4d651e918b" x="107.613787" y="54.246166" style="fill: #1f77b4; stroke: #1f77b4"/>
     <use xlink:href="#m4d651e918b" x="109.245217" y="54.117848" style="fill: #1f77b4; stroke: #1f77b4"/>
     <use xlink:href="#m4d651e918b" x="110.876646" y="52.7955" style="fill: #1f77b4; stroke: #1f77b4"/>
     <use xlink:href="#m4d651e918b" x="112.508076" y="53.440799" style="fill: #1f77b4; stroke: #1f77b4"/>
     <use xlink:href="#m4d651e918b" x="114.139506" y="51.249044" style="fill: #1f77b4; stroke: #1f77b4"/>
     <use xlink:href="#m4d651e918b" x="115.770936" y="51.374991" style="fill: #1f77b4; stroke: #1f77b4"/>
     <use xlink:href="#m4d651e918b" x="117.402366" y="52.541039" style="fill: #1f77b4; stroke: #1f77b4"/>
     <use xlink:href="#m4d651e918b" x="119.033796" y="53.078536" style="fill: #1f77b4; stroke: #1f77b4"/>
     <use xlink:href="#m4d651e918b" x="120.665226" y="51.761962" style="fill: #1f77b4; stroke: #1f77b4"/>
     <use xlink:href="#m4d651e918b" x="122.296656" y="52.069532" style="fill: #1f77b4; stroke: #1f77b4"/>
     <use xlink:href="#m4d651e918b" x="123.928085" y="50.958126" style="fill: #1f77b4; stroke: #1f77b4"/>
     <use xlink:href="#m4d651e918b" x="125.559515" y="51.222524" style="fill: #1f77b4; stroke: #1f77b4"/>
     <use xlink:href="#m4d651e918b" x="127.190945" y="51.311235" style="fill: #1f77b4; stroke: #1f77b4"/>
     <use xlink:href="#m4d651e918b" x="128.822375" y="49.84293" style="fill: #1f77b4; stroke: #1f77b4"/>
     <use xlink:href="#m4d651e918b" x="130.453805" y="49.009972" style="fill: #1f77b4; stroke: #1f77b4"/>
     <use xlink:href="#m4d651e918b" x="132.085235" y="50.780503" style="fill: #1f77b4; stroke: #1f77b4"/>
     <use xlink:href="#m4d651e918b" x="133.716665" y="50.055234" style="fill: #1f77b4; stroke: #1f77b4"/>
     <use xlink:href="#m4d651e918b" x="135.348095" y="49.715763" style="fill: #1f77b4; stroke: #1f77b4"/>
     <use xlink:href="#m4d651e918b" x="136.979524" y="49.682373" style="fill: #1f77b4; stroke: #1f77b4"/>
     <use xlink:href="#m4d651e918b" x="138.610954" y="48.176518" style="fill: #1f77b4; stroke: #1f77b4"/>
     <use xlink:href="#m4d651e918b" x="140.242384" y="47.258182" style="fill: #1f77b4; stroke: #1f77b4"/>
     <use xlink:href="#m4d651e918b" x="141.873814" y="47.259644" style="fill: #1f77b4; stroke: #1f77b4"/>
     <use xlink:href="#m4d651e918b" x="143.505244" y="49.151052" style="fill: #1f77b4; stroke: #1f77b4"/>
     <use xlink:href="#m4d651e918b" x="145.136674" y="47.544095" style="fill: #1f77b4; stroke: #1f77b4"/>
     <use xlink:href="#m4d651e918b" x="146.768104" y="47.989719" style="fill: #1f77b4; stroke: #1f77b4"/>
     <use xlink:href="#m4d651e918b" x="148.399534" y="48.87506" style="fill: #1f77b4; stroke: #1f77b4"/>
     <use xlink:href="#m4d651e918b" x="150.030963" y="48.495954" style="fill: #1f77b4; stroke: #1f77b4"/>
     <use xlink:href="#m4d651e918b" x="151.662393" y="47.738711" style="fill: #1f77b4; stroke: #1f77b4"/>
     <use xlink:href="#m4d651e918b" x="153.293823" y="49.3647" style="fill: #1f77b4; stroke: #1f77b4"/>
     <use xlink:href="#m4d651e918b" x="154.925253" y="48.260613" style="fill: #1f77b4; stroke: #1f77b4"/>
     <use xlink:href="#m4d651e918b" x="156.556683" y="48.152994" style="fill: #1f77b4; stroke: #1f77b4"/>
     <use xlink:href="#m4d651e918b" x="158.188113" y="50.898853" style="fill: #1f77b4; stroke: #1f77b4"/>
     <use xlink:href="#m4d651e918b" x="159.819543" y="51.106552" style="fill: #1f77b4; stroke: #1f77b4"/>
     <use xlink:href="#m4d651e918b" x="161.450973" y="52.252253" style="fill: #1f77b4; stroke: #1f77b4"/>
     <use xlink:href="#m4d651e918b" x="163.082402" y="52.45612" style="fill: #1f77b4; stroke: #1f77b4"/>
     <use xlink:href="#m4d651e918b" x="164.713832" y="52.997105" style="fill: #1f77b4; stroke: #1f77b4"/>
     <use xlink:href="#m4d651e918b" x="166.345262" y="55.005151" style="fill: #1f77b4; stroke: #1f77b4"/>
     <use xlink:href="#m4d651e918b" x="167.976692" y="54.794524" style="fill: #1f77b4; stroke: #1f77b4"/>
     <use xlink:href="#m4d651e918b" x="169.608122" y="56.019707" style="fill: #1f77b4; stroke: #1f77b4"/>
     <use xlink:href="#m4d651e918b" x="171.239552" y="61.194282" style="fill: #1f77b4; stroke: #1f77b4"/>
     <use xlink:href="#m4d651e918b" x="172.870982" y="62.230237" style="fill: #1f77b4; stroke: #1f77b4"/>
     <use xlink:href="#m4d651e918b" x="174.502412" y="64.438717" style="fill: #1f77b4; stroke: #1f77b4"/>
     <use xlink:href="#m4d651e918b" x="176.133842" y="66.562001" style="fill: #1f77b4; stroke: #1f77b4"/>
     <use xlink:href="#m4d651e918b" x="177.765271" y="68.29107" style="fill: #1f77b4; stroke: #1f77b4"/>
     <use xlink:href="#m4d651e918b" x="179.396701" y="69.188237" style="fill: #1f77b4; stroke: #1f77b4"/>
     <use xlink:href="#m4d651e918b" x="181.028131" y="74.926224" style="fill: #1f77b4; stroke: #1f77b4"/>
     <use xlink:href="#m4d651e918b" x="182.659561" y="78.673966" style="fill: #1f77b4; stroke: #1f77b4"/>
     <use xlink:href="#m4d651e918b" x="184.290991" y="81.210259" style="fill: #1f77b4; stroke: #1f77b4"/>
     <use xlink:href="#m4d651e918b" x="185.922421" y="85.589791" style="fill: #1f77b4; stroke: #1f77b4"/>
     <use xlink:href="#m4d651e918b" x="187.553851" y="87.592043" style="fill: #1f77b4; stroke: #1f77b4"/>
     <use xlink:href="#m4d651e918b" x="189.185281" y="93.706594" style="fill: #1f77b4; stroke: #1f77b4"/>
     <use xlink:href="#m4d651e918b" x="190.81671" y="98.493217" style="fill: #1f77b4; stroke: #1f77b4"/>
     <use xlink:href="#m4d651e918b" x="192.44814" y="102.525371" style="fill: #1f77b4; stroke: #1f77b4"/>
     <use xlink:href="#m4d651e918b" x="194.07957" y="103.525046" style="fill: #1f77b4; stroke: #1f77b4"/>
     <use xlink:href="#m4d651e918b" x="195.711" y="107.980352" style="fill: #1f77b4; stroke: #1f77b4"/>
     <use xlink:href="#m4d651e918b" x="197.34243" y="113.065328" style="fill: #1f77b4; stroke: #1f77b4"/>
     <use xlink:href="#m4d651e918b" x="198.97386" y="118.359848" style="fill: #1f77b4; stroke: #1f77b4"/>
     <use xlink:href="#m4d651e918b" x="200.60529" y="122.423178" style="fill: #1f77b4; stroke: #1f77b4"/>
     <use xlink:href="#m4d651e918b" x="202.23672" y="126.186635" style="fill: #1f77b4; stroke: #1f77b4"/>
     <use xlink:href="#m4d651e918b" x="203.868149" y="131.367786" style="fill: #1f77b4; stroke: #1f77b4"/>
     <use xlink:href="#m4d651e918b" x="205.499579" y="136.314356" style="fill: #1f77b4; stroke: #1f77b4"/>
     <use xlink:href="#m4d651e918b" x="207.131009" y="141.535574" style="fill: #1f77b4; stroke: #1f77b4"/>
     <use xlink:href="#m4d651e918b" x="208.762439" y="144.325747" style="fill: #1f77b4; stroke: #1f77b4"/>
     <use xlink:href="#m4d651e918b" x="210.393869" y="147.805094" style="fill: #1f77b4; stroke: #1f77b4"/>
     <use xlink:href="#m4d651e918b" x="212.025299" y="149.974367" style="fill: #1f77b4; stroke: #1f77b4"/>
     <use xlink:href="#m4d651e918b" x="213.656729" y="153.420744" style="fill: #1f77b4; stroke: #1f77b4"/>
     <use xlink:href="#m4d651e918b" x="215.288159" y="155.545969" style="fill: #1f77b4; stroke: #1f77b4"/>
     <use xlink:href="#m4d651e918b" x="216.919588" y="155.278698" style="fill: #1f77b4; stroke: #1f77b4"/>
     <use xlink:href="#m4d651e918b" x="218.551018" y="157.221818" style="fill: #1f77b4; stroke: #1f77b4"/>
     <use xlink:href="#m4d651e918b" x="220.182448" y="155.298498" style="fill: #1f77b4; stroke: #1f77b4"/>
     <use xlink:href="#m4d651e918b" x="221.813878" y="154.516755" style="fill: #1f77b4; stroke: #1f77b4"/>
     <use xlink:href="#m4d651e918b" x="223.445308" y="153.990396" style="fill: #1f77b4; stroke: #1f77b4"/>
     <use xlink:href="#m4d651e918b" x="225.076738" y="151.318987" style="fill: #1f77b4; stroke: #1f77b4"/>
     <use xlink:href="#m4d651e918b" x="226.708168" y="149.07437" style="fill: #1f77b4; stroke: #1f77b4"/>
     <use xlink:href="#m4d651e918b" x="228.339598" y="147.56904" style="fill: #1f77b4; stroke: #1f77b4"/>
     <use xlink:href="#m4d651e918b" x="229.971027" y="145.651791" style="fill: #1f77b4; stroke: #1f77b4"/>
     <use xlink:href="#m4d651e918b" x="231.602457" y="144.309815" style="fill: #1f77b4; stroke: #1f77b4"/>
     <use xlink:href="#m4d651e918b" x="233.233887" y="141.007058" style="fill: #1f77b4; stroke: #1f77b4"/>
     <use xlink:href="#m4d651e918b" x="234.865317" y="141.193393" style="fill: #1f77b4; stroke: #1f77b4"/>
     <use xlink:href="#m4d651e918b" x="236.496747" y="137.762277" style="fill: #1f77b4; stroke: #1f77b4"/>
     <use xlink:href="#m4d651e918b" x="238.128177" y="135.645696" style="fill: #1f77b4; stroke: #1f77b4"/>
     <use xlink:href="#m4d651e918b" x="239.759607" y="134.303343" style="fill: #1f77b4; stroke: #1f77b4"/>
     <use xlink:href="#m4d651e918b" x="241.391037" y="131.684949" style="fill: #1f77b4; stroke: #1f77b4"/>
     <use xlink:href="#m4d651e918b" x="243.022466" y="131.385014" style="fill: #1f77b4; stroke: #1f77b4"/>
     <use xlink:href="#m4d651e918b" x="244.653896" y="127.320288" style="fill: #1f77b4; stroke: #1f77b4"/>
     <use xlink:href="#m4d651e918b" x="246.285326" y="125.440606" style="fill: #1f77b4; stroke: #1f77b4"/>
     <use xlink:href="#m4d651e918b" x="247.916756" y="125.480979" style="fill: #1f77b4; stroke: #1f77b4"/>
     <use xlink:href="#m4d651e918b" x="249.548186" y="124.556608" style="fill: #1f77b4; stroke: #1f77b4"/>
     <use xlink:href="#m4d651e918b" x="251.179616" y="121.559997" style="fill: #1f77b4; stroke: #1f77b4"/>
     <use xlink:href="#m4d651e918b" x="252.811046" y="120.646137" style="fill: #1f77b4; stroke: #1f77b4"/>
     <use xlink:href="#m4d651e918b" x="254.442476" y="119.839575" style="fill: #1f77b4; stroke: #1f77b4"/>
     <use xlink:href="#m4d651e918b" x="256.073905" y="118.248137" style="fill: #1f77b4; stroke: #1f77b4"/>
     <use xlink:href="#m4d651e918b" x="257.705335" y="116.722609" style="fill: #1f77b4; stroke: #1f77b4"/>
     <use xlink:href="#m4d651e918b" x="259.336765" y="116.504419" style="fill: #1f77b4; stroke: #1f77b4"/>
     <use xlink:href="#m4d651e918b" x="260.968195" y="115.741854" style="fill: #1f77b4; stroke: #1f77b4"/>
     <use xlink:href="#m4d651e918b" x="262.599625" y="114.587983" style="fill: #1f77b4; stroke: #1f77b4"/>
     <use xlink:href="#m4d651e918b" x="264.231055" y="114.005721" style="fill: #1f77b4; stroke: #1f77b4"/>
     <use xlink:href="#m4d651e918b" x="265.862485" y="111.942276" style="fill: #1f77b4; stroke: #1f77b4"/>
     <use xlink:href="#m4d651e918b" x="267.493915" y="111.471081" style="fill: #1f77b4; stroke: #1f77b4"/>
     <use xlink:href="#m4d651e918b" x="269.125344" y="109.017141" style="fill: #1f77b4; stroke: #1f77b4"/>
     <use xlink:href="#m4d651e918b" x="270.756774" y="111.158813" style="fill: #1f77b4; stroke: #1f77b4"/>
     <use xlink:href="#m4d651e918b" x="272.388204" y="108.076692" style="fill: #1f77b4; stroke: #1f77b4"/>
     <use xlink:href="#m4d651e918b" x="274.019634" y="107.043439" style="fill: #1f77b4; stroke: #1f77b4"/>
     <use xlink:href="#m4d651e918b" x="275.651064" y="106.071702" style="fill: #1f77b4; stroke: #1f77b4"/>
     <use xlink:href="#m4d651e918b" x="277.282494" y="106.476283" style="fill: #1f77b4; stroke: #1f77b4"/>
     <use xlink:href="#m4d651e918b" x="278.913924" y="106.613688" style="fill: #1f77b4; stroke: #1f77b4"/>
     <use xlink:href="#m4d651e918b" x="280.545354" y="105.445394" style="fill: #1f77b4; stroke: #1f77b4"/>
     <use xlink:href="#m4d651e918b" x="282.176783" y="103.73238" style="fill: #1f77b4; stroke: #1f77b4"/>
     <use xlink:href="#m4d651e918b" x="283.808213" y="104.75445" style="fill: #1f77b4; stroke: #1f77b4"/>
     <use xlink:href="#m4d651e918b" x="285.439643" y="102.745222" style="fill: #1f77b4; stroke: #1f77b4"/>
     <use xlink:href="#m4d651e918b" x="287.071073" y="102.452471" style="fill: #1f77b4; stroke: #1f77b4"/>
     <use xlink:href="#m4d651e918b" x="288.702503" y="101.859671" style="fill: #1f77b4; stroke: #1f77b4"/>
     <use xlink:href="#m4d651e918b" x="290.333933" y="102.921836" style="fill: #1f77b4; stroke: #1f77b4"/>
     <use xlink:href="#m4d651e918b" x="291.965363" y="100.80782" style="fill: #1f77b4; stroke: #1f77b4"/>
     <use xlink:href="#m4d651e918b" x="293.596793" y="100.524637" style="fill: #1f77b4; stroke: #1f77b4"/>
     <use xlink:href="#m4d651e918b" x="295.228223" y="98.800326" style="fill: #1f77b4; stroke: #1f77b4"/>
     <use xlink:href="#m4d651e918b" x="296.859652" y="99.723455" style="fill: #1f77b4; stroke: #1f77b4"/>
     <use xlink:href="#m4d651e918b" x="298.491082" y="98.921402" style="fill: #1f77b4; stroke: #1f77b4"/>
     <use xlink:href="#m4d651e918b" x="300.122512" y="98.438783" style="fill: #1f77b4; stroke: #1f77b4"/>
     <use xlink:href="#m4d651e918b" x="301.753942" y="98.552149" style="fill: #1f77b4; stroke: #1f77b4"/>
     <use xlink:href="#m4d651e918b" x="303.385372" y="97.518711" style="fill: #1f77b4; stroke: #1f77b4"/>
     <use xlink:href="#m4d651e918b" x="305.016802" y="97.047637" style="fill: #1f77b4; stroke: #1f77b4"/>
     <use xlink:href="#m4d651e918b" x="306.648232" y="97.18728" style="fill: #1f77b4; stroke: #1f77b4"/>
     <use xlink:href="#m4d651e918b" x="308.279662" y="95.986086" style="fill: #1f77b4; stroke: #1f77b4"/>
     <use xlink:href="#m4d651e918b" x="309.911091" y="97.304338" style="fill: #1f77b4; stroke: #1f77b4"/>
     <use xlink:href="#m4d651e918b" x="311.542521" y="95.939088" style="fill: #1f77b4; stroke: #1f77b4"/>
     <use xlink:href="#m4d651e918b" x="313.173951" y="95.851737" style="fill: #1f77b4; stroke: #1f77b4"/>
     <use xlink:href="#m4d651e918b" x="314.805381" y="95.063291" style="fill: #1f77b4; stroke: #1f77b4"/>
     <use xlink:href="#m4d651e918b" x="316.436811" y="94.688706" style="fill: #1f77b4; stroke: #1f77b4"/>
     <use xlink:href="#m4d651e918b" x="318.068241" y="93.312663" style="fill: #1f77b4; stroke: #1f77b4"/>
     <use xlink:href="#m4d651e918b" x="319.699671" y="92.107371" style="fill: #1f77b4; stroke: #1f77b4"/>
     <use xlink:href="#m4d651e918b" x="321.331101" y="92.560145" style="fill: #1f77b4; stroke: #1f77b4"/>
     <use xlink:href="#m4d651e918b" x="322.96253" y="92.800412" style="fill: #1f77b4; stroke: #1f77b4"/>
     <use xlink:href="#m4d651e918b" x="324.59396" y="92.720155" style="fill: #1f77b4; stroke: #1f77b4"/>
     <use xlink:href="#m4d651e918b" x="326.22539" y="92.854461" style="fill: #1f77b4; stroke: #1f77b4"/>
     <use xlink:href="#m4d651e918b" x="327.85682" y="91.604536" style="fill: #1f77b4; stroke: #1f77b4"/>
     <use xlink:href="#m4d651e918b" x="329.48825" y="91.464558" style="fill: #1f77b4; stroke: #1f77b4"/>
     <use xlink:href="#m4d651e918b" x="331.11968" y="90.757758" style="fill: #1f77b4; stroke: #1f77b4"/>
     <use xlink:href="#m4d651e918b" x="332.75111" y="90.815952" style="fill: #1f77b4; stroke: #1f77b4"/>
     <use xlink:href="#m4d651e918b" x="334.38254" y="91.645715" style="fill: #1f77b4; stroke: #1f77b4"/>
     <use xlink:href="#m4d651e918b" x="336.013969" y="89.168167" style="fill: #1f77b4; stroke: #1f77b4"/>
     <use xlink:href="#m4d651e918b" x="337.645399" y="90.577394" style="fill: #1f77b4; stroke: #1f77b4"/>
     <use xlink:href="#m4d651e918b" x="339.276829" y="89.320559" style="fill: #1f77b4; stroke: #1f77b4"/>
     <use xlink:href="#m4d651e918b" x="340.908259" y="89.238922" style="fill: #1f77b4; stroke: #1f77b4"/>
     <use xlink:href="#m4d651e918b" x="342.539689" y="89.22406" style="fill: #1f77b4; stroke: #1f77b4"/>
     <use xlink:href="#m4d651e918b" x="344.171119" y="89.580345" style="fill: #1f77b4; stroke: #1f77b4"/>
     <use xlink:href="#m4d651e918b" x="345.802549" y="88.569571" style="fill: #1f77b4; stroke: #1f77b4"/>
     <use xlink:href="#m4d651e918b" x="347.433979" y="87.201709" style="fill: #1f77b4; stroke: #1f77b4"/>
     <use xlink:href="#m4d651e918b" x="349.065408" y="88.795533" style="fill: #1f77b4; stroke: #1f77b4"/>
     <use xlink:href="#m4d651e918b" x="350.696838" y="87.954896" style="fill: #1f77b4; stroke: #1f77b4"/>
     <use xlink:href="#m4d651e918b" x="352.328268" y="86.987172" style="fill: #1f77b4; stroke: #1f77b4"/>
     <use xlink:href="#m4d651e918b" x="353.959698" y="87.775903" style="fill: #1f77b4; stroke: #1f77b4"/>
     <use xlink:href="#m4d651e918b" x="355.591128" y="87.897019" style="fill: #1f77b4; stroke: #1f77b4"/>
     <use xlink:href="#m4d651e918b" x="357.222558" y="87.828386" style="fill: #1f77b4; stroke: #1f77b4"/>
     <use xlink:href="#m4d651e918b" x="358.853988" y="86.663211" style="fill: #1f77b4; stroke: #1f77b4"/>
     <use xlink:href="#m4d651e918b" x="360.485418" y="85.923022" style="fill: #1f77b4; stroke: #1f77b4"/>
     <use xlink:href="#m4d651e918b" x="362.116847" y="86.867146" style="fill: #1f77b4; stroke: #1f77b4"/>
     <use xlink:href="#m4d651e918b" x="363.748277" y="86.421336" style="fill: #1f77b4; stroke: #1f77b4"/>
     <use xlink:href="#m4d651e918b" x="365.379707" y="85.853894" style="fill: #1f77b4; stroke: #1f77b4"/>
     <use xlink:href="#m4d651e918b" x="367.011137" y="86.69222" style="fill: #1f77b4; stroke: #1f77b4"/>
     <use xlink:href="#m4d651e918b" x="368.642567" y="84.207889" style="fill: #1f77b4; stroke: #1f77b4"/>
     <use xlink:href="#m4d651e918b" x="370.273997" y="85.078887" style="fill: #1f77b4; stroke: #1f77b4"/>
     <use xlink:href="#m4d651e918b" x="371.905427" y="85.502408" style="fill: #1f77b4; stroke: #1f77b4"/>
     <use xlink:href="#m4d651e918b" x="373.536857" y="85.650257" style="fill: #1f77b4; stroke: #1f77b4"/>
     <use xlink:href="#m4d651e918b" x="375.168286" y="84.433345" style="fill: #1f77b4; stroke: #1f77b4"/>
     <use xlink:href="#m4d651e918b" x="376.799716" y="83.733381" style="fill: #1f77b4; stroke: #1f77b4"/>
     <use xlink:href="#m4d651e918b" x="378.431146" y="85.151958" style="fill: #1f77b4; stroke: #1f77b4"/>
     <use xlink:href="#m4d651e918b" x="380.062576" y="83.695388" style="fill: #1f77b4; stroke: #1f77b4"/>
     <use xlink:href="#m4d651e918b" x="381.694006" y="84.245238" style="fill: #1f77b4; stroke: #1f77b4"/>
     <use xlink:href="#m4d651e918b" x="383.325436" y="82.844808" style="fill: #1f77b4; stroke: #1f77b4"/>
     <use xlink:href="#m4d651e918b" x="384.956866" y="82.278054" style="fill: #1f77b4; stroke: #1f77b4"/>
     <use xlink:href="#m4d651e918b" x="386.588296" y="83.717835" style="fill: #1f77b4; stroke: #1f77b4"/>
     <use xlink:href="#m4d651e918b" x="388.219725" y="83.887062" style="fill: #1f77b4; stroke: #1f77b4"/>
     <use xlink:href="#m4d651e918b" x="389.851155" y="81.255222" style="fill: #1f77b4; stroke: #1f77b4"/>
     <use xlink:href="#m4d651e918b" x="391.482585" y="82.929974" style="fill: #1f77b4; stroke: #1f77b4"/>
    </g>
   </g>
   <g id="line2d_13">
    <path d="M 66.82804 56.910014 
L 83.726975 55.352743 
L 100.95089 53.536042 
L 131.823945 50.204736 
L 138.323535 49.776843 
L 143.523208 49.655101 
L 147.747941 49.778977 
L 151.322716 50.102582 
L 154.572512 50.626477 
L 157.497327 51.334985 
L 160.097163 52.196207 
L 162.37202 53.162673 
L 164.646877 54.360844 
L 166.921733 55.825309 
L 169.19659 57.593072 
L 171.146467 59.378837 
L 173.096344 61.439963 
L 175.046222 63.799781 
L 176.996099 66.479502 
L 178.945976 69.496812 
L 181.220833 73.460139 
L 183.495689 77.908098 
L 185.770546 82.833271 
L 188.370382 89.012627 
L 191.295198 96.580973 
L 194.869973 106.504955 
L 206.244256 138.695663 
L 208.844092 145.0771 
L 210.793969 149.286425 
L 212.418867 152.270241 
L 213.718785 154.214427 
L 214.693724 155.361501 
L 215.668662 156.206835 
L 216.643601 156.728441 
L 217.618539 156.920101 
L 218.593478 156.79495 
L 219.568417 156.383912 
L 220.543355 155.72962 
L 221.843273 154.559424 
L 223.468171 152.760978 
L 226.068007 149.462103 
L 234.842454 137.993565 
L 238.417229 133.792476 
L 241.992004 129.947053 
L 245.566779 126.445813 
L 249.141553 123.264049 
L 252.716328 120.372789 
L 256.616082 117.515777 
L 260.515837 114.934217 
L 264.74057 112.411095 
L 269.290284 109.971861 
L 273.839997 107.782976 
L 278.71469 105.67794 
L 283.914362 103.668622 
L 289.763994 101.657043 
L 295.938605 99.77629 
L 302.763175 97.941348 
L 309.912724 96.24896 
L 318.037213 94.563009 
L 326.81166 92.976123 
L 336.561046 91.445817 
L 347.28537 89.992286 
L 359.309612 88.592767 
L 372.633773 87.268536 
L 387.90781 85.981498 
L 391.482585 85.710008 
L 391.482585 85.710008 
" clip-path="url(#p6616085ebc)" style="fill: none; stroke: #d62728; stroke-width: 1.5; stroke-linecap: square"/>
   </g>
   <g id="patch_3">
    <path d="M 50.595313 162.72 
L 50.595313 41.76 
" style="fill: none; stroke: #000000; stroke-width: 0.8; stroke-linejoin: miter; stroke-linecap: square"/>
   </g>
   <g id="patch_4">
    <path d="M 407.715312 162.72 
L 407.715312 41.76 
" style="fill: none; stroke: #000000; stroke-width: 0.8; stroke-linejoin: miter; stroke-linecap: square"/>
   </g>
   <g id="patch_5">
    <path d="M 50.595312 162.72 
L 407.715312 162.72 
" style="fill: none; stroke: #000000; stroke-width: 0.8; stroke-linejoin: miter; stroke-linecap: square"/>
   </g>
   <g id="patch_6">
    <path d="M 50.595312 41.76 
L 407.715312 41.76 
" style="fill: none; stroke: #000000; stroke-width: 0.8; stroke-linejoin: miter; stroke-linecap: square"/>
   </g>
   <g id="text_7">
    <g id="patch_7">
     <path d="M 425.571312 95.079562 
L 571.071312 95.079562 
Q 575.071312 95.079562 575.071312 91.079562 
L 575.071312 47.808 
Q 575.071312 43.808 571.071312 43.808 
L 425.571312 43.808 
Q 421.571312 43.808 421.571312 47.808 
L 421.571312 91.079562 
Q 421.571312 95.079562 425.571312 95.079562 
z
" style="fill: #ffffff; opacity: 0.5; stroke: #000000; stroke-linejoin: miter"/>
    </g>
    <!-- Summary -->
    <g transform="translate(425.571312 55.406437) scale(0.1 -0.1)">
     <defs>
      <path id="DejaVuSans-53" d="M 3425 4513 
L 3425 3897 
Q 3066 4069 2747 4153 
Q 2428 4238 2131 4238 
Q 1616 4238 1336 4038 
Q 1056 3838 1056 3469 
Q 1056 3159 1242 3001 
Q 1428 2844 1947 2747 
L 2328 2669 
Q 3034 2534 3370 2195 
Q 3706 1856 3706 1288 
Q 3706 609 3251 259 
Q 2797 -91 1919 -91 
Q 1588 -91 1214 -16 
Q 841 59 441 206 
L 441 856 
Q 825 641 1194 531 
Q 1563 422 1919 422 
Q 2459 422 2753 634 
Q 3047 847 3047 1241 
Q 3047 1584 2836 1778 
Q 2625 1972 2144 2069 
L 1759 2144 
Q 1053 2284 737 2584 
Q 422 2884 422 3419 
Q 422 4038 858 4394 
Q 1294 4750 2059 4750 
Q 2388 4750 2728 4690 
Q 3069 4631 3425 4513 
z
" transform="scale(0.015625)"/>
      <path id="DejaVuSans-75" d="M 544 1381 
L 544 3500 
L 1119 3500 
L 1119 1403 
Q 1119 906 1312 657 
Q 1506 409 1894 409 
Q 2359 409 2629 706 
Q 2900 1003 2900 1516 
L 2900 3500 
L 3475 3500 
L 3475 0 
L 2900 0 
L 2900 538 
Q 2691 219 2414 64 
Q 2138 -91 1772 -91 
Q 1169 -91 856 284 
Q 544 659 544 1381 
z
M 1991 3584 
L 1991 3584 
z
" transform="scale(0.015625)"/>
      <path id="DejaVuSans-61" d="M 2194 1759 
Q 1497 1759 1228 1600 
Q 959 1441 959 1056 
Q 959 750 1161 570 
Q 1363 391 1709 391 
Q 2188 391 2477 730 
Q 2766 1069 2766 1631 
L 2766 1759 
L 2194 1759 
z
M 3341 1997 
L 3341 0 
L 2766 0 
L 2766 531 
Q 2569 213 2275 61 
Q 1981 -91 1556 -91 
Q 1019 -91 701 211 
Q 384 513 384 1019 
Q 384 1609 779 1909 
Q 1175 2209 1959 2209 
L 2766 2209 
L 2766 2266 
Q 2766 2663 2505 2880 
Q 2244 3097 1772 3097 
Q 1472 3097 1187 3025 
Q 903 2953 641 2809 
L 641 3341 
Q 956 3463 1253 3523 
Q 1550 3584 1831 3584 
Q 2591 3584 2966 3190 
Q 3341 2797 3341 1997 
z
" transform="scale(0.015625)"/>
      <path id="DejaVuSans-72" d="M 2631 2963 
Q 2534 3019 2420 3045 
Q 2306 3072 2169 3072 
Q 1681 3072 1420 2755 
Q 1159 2438 1159 1844 
L 1159 0 
L 581 0 
L 581 3500 
L 1159 3500 
L 1159 2956 
Q 1341 3275 1631 3429 
Q 1922 3584 2338 3584 
Q 2397 3584 2469 3576 
Q 2541 3569 2628 3553 
L 2631 2963 
z
" transform="scale(0.015625)"/>
      <path id="DejaVuSans-79" d="M 2059 -325 
Q 1816 -950 1584 -1140 
Q 1353 -1331 966 -1331 
L 506 -1331 
L 506 -850 
L 844 -850 
Q 1081 -850 1212 -737 
Q 1344 -625 1503 -206 
L 1606 56 
L 191 3500 
L 800 3500 
L 1894 763 
L 2988 3500 
L 3597 3500 
L 2059 -325 
z
" transform="scale(0.015625)"/>
     </defs>
     <use xlink:href="#DejaVuSans-53"/>
     <use xlink:href="#DejaVuSans-75" x="63.476562"/>
     <use xlink:href="#DejaVuSans-6d" x="126.855469"/>
     <use xlink:href="#DejaVuSans-6d" x="224.267578"/>
     <use xlink:href="#DejaVuSans-61" x="321.679688"/>
     <use xlink:href="#DejaVuSans-72" x="382.958984"/>
     <use xlink:href="#DejaVuSans-79" x="424.072266"/>
    </g>
    <!-- $Q_I$: 13.94$\pm$0.24 k -->
    <g transform="translate(425.571312 66.60425) scale(0.1 -0.1)">
     <defs>
      <path id="DejaVuSans-Oblique-51" d="M 2309 -84 
Q 2275 -88 2237 -89 
Q 2200 -91 2125 -91 
Q 1250 -91 756 411 
Q 263 913 263 1797 
Q 263 2319 452 2844 
Q 641 3369 978 3788 
Q 1369 4269 1858 4509 
Q 2347 4750 2938 4750 
Q 3794 4750 4287 4245 
Q 4781 3741 4781 2869 
Q 4781 1928 4265 1147 
Q 3750 366 2919 44 
L 3553 -825 
L 2847 -825 
L 2309 -84 
z
M 2919 4238 
Q 2400 4238 2003 3986 
Q 1606 3734 1313 3219 
Q 1125 2891 1026 2522 
Q 928 2153 928 1778 
Q 928 1128 1239 775 
Q 1550 422 2119 422 
Q 2631 422 3032 676 
Q 3434 931 3719 1434 
Q 3909 1772 4009 2142 
Q 4109 2513 4109 2881 
Q 4109 3528 3796 3883 
Q 3484 4238 2919 4238 
z
" transform="scale(0.015625)"/>
      <path id="DejaVuSans-Oblique-49" d="M 1081 4666 
L 1716 4666 
L 806 0 
L 172 0 
L 1081 4666 
z
" transform="scale(0.015625)"/>
      <path id="DejaVuSans-3a" d="M 750 794 
L 1409 794 
L 1409 0 
L 750 0 
L 750 794 
z
M 750 3309 
L 1409 3309 
L 1409 2516 
L 750 2516 
L 750 3309 
z
" transform="scale(0.015625)"/>
      <path id="DejaVuSans-33" d="M 2597 2516 
Q 3050 2419 3304 2112 
Q 3559 1806 3559 1356 
Q 3559 666 3084 287 
Q 2609 -91 1734 -91 
Q 1441 -91 1130 -33 
Q 819 25 488 141 
L 488 750 
Q 750 597 1062 519 
Q 1375 441 1716 441 
Q 2309 441 2620 675 
Q 2931 909 2931 1356 
Q 2931 1769 2642 2001 
Q 2353 2234 1838 2234 
L 1294 2234 
L 1294 2753 
L 1863 2753 
Q 2328 2753 2575 2939 
Q 2822 3125 2822 3475 
Q 2822 3834 2567 4026 
Q 2313 4219 1838 4219 
Q 1578 4219 1281 4162 
Q 984 4106 628 3988 
L 628 4550 
Q 988 4650 1302 4700 
Q 1616 4750 1894 4750 
Q 2613 4750 3031 4423 
Q 3450 4097 3450 3541 
Q 3450 3153 3228 2886 
Q 3006 2619 2597 2516 
z
" transform="scale(0.015625)"/>
      <path id="DejaVuSans-2e" d="M 684 794 
L 1344 794 
L 1344 0 
L 684 0 
L 684 794 
z
" transform="scale(0.015625)"/>
      <path id="DejaVuSans-39" d="M 703 97 
L 703 672 
Q 941 559 1184 500 
Q 1428 441 1663 441 
Q 2288 441 2617 861 
Q 2947 1281 2994 2138 
Q 2813 1869 2534 1725 
Q 2256 1581 1919 1581 
Q 1219 1581 811 2004 
Q 403 2428 403 3163 
Q 403 3881 828 4315 
Q 1253 4750 1959 4750 
Q 2769 4750 3195 4129 
Q 3622 3509 3622 2328 
Q 3622 1225 3098 567 
Q 2575 -91 1691 -91 
Q 1453 -91 1209 -44 
Q 966 3 703 97 
z
M 1959 2075 
Q 2384 2075 2632 2365 
Q 2881 2656 2881 3163 
Q 2881 3666 2632 3958 
Q 2384 4250 1959 4250 
Q 1534 4250 1286 3958 
Q 1038 3666 1038 3163 
Q 1038 2656 1286 2365 
Q 1534 2075 1959 2075 
z
" transform="scale(0.015625)"/>
      <path id="DejaVuSans-b1" d="M 2944 4013 
L 2944 2803 
L 4684 2803 
L 4684 2272 
L 2944 2272 
L 2944 1063 
L 2419 1063 
L 2419 2272 
L 678 2272 
L 678 2803 
L 2419 2803 
L 2419 4013 
L 2944 4013 
z
M 678 531 
L 4684 531 
L 4684 0 
L 678 0 
L 678 531 
z
" transform="scale(0.015625)"/>
      <path id="DejaVuSans-6b" d="M 581 4863 
L 1159 4863 
L 1159 1991 
L 2875 3500 
L 3609 3500 
L 1753 1863 
L 3688 0 
L 2938 0 
L 1159 1709 
L 1159 0 
L 581 0 
L 581 4863 
z
" transform="scale(0.015625)"/>
     </defs>
     <use xlink:href="#DejaVuSans-Oblique-51" transform="translate(0 0.015625)"/>
     <use xlink:href="#DejaVuSans-Oblique-49" transform="translate(78.710938 -16.390625) scale(0.7)"/>
     <use xlink:href="#DejaVuSans-3a" transform="translate(102.089844 0.015625)"/>
     <use xlink:href="#DejaVuSans-20" transform="translate(135.78125 0.015625)"/>
     <use xlink:href="#DejaVuSans-31" transform="translate(167.568359 0.015625)"/>
     <use xlink:href="#DejaVuSans-33" transform="translate(231.191406 0.015625)"/>
     <use xlink:href="#DejaVuSans-2e" transform="translate(294.814453 0.015625)"/>
     <use xlink:href="#DejaVuSans-39" transform="translate(326.601562 0.015625)"/>
     <use xlink:href="#DejaVuSans-34" transform="translate(390.224609 0.015625)"/>
     <use xlink:href="#DejaVuSans-b1" transform="translate(453.847656 0.015625)"/>
     <use xlink:href="#DejaVuSans-30" transform="translate(537.636719 0.015625)"/>
     <use xlink:href="#DejaVuSans-2e" transform="translate(601.259766 0.015625)"/>
     <use xlink:href="#DejaVuSans-32" transform="translate(627.546875 0.015625)"/>
     <use xlink:href="#DejaVuSans-34" transform="translate(691.169922 0.015625)"/>
     <use xlink:href="#DejaVuSans-20" transform="translate(754.792969 0.015625)"/>
     <use xlink:href="#DejaVuSans-6b" transform="translate(786.580078 0.015625)"/>
    </g>
    <!-- $Q_C$: 3.336$\pm$0.019 k -->
    <g transform="translate(425.571312 77.802062) scale(0.1 -0.1)">
     <defs>
      <path id="DejaVuSans-Oblique-43" d="M 4447 4306 
L 4319 3641 
Q 4019 3944 3683 4091 
Q 3347 4238 2956 4238 
Q 2422 4238 2017 3981 
Q 1613 3725 1319 3200 
Q 1131 2863 1032 2486 
Q 934 2109 934 1728 
Q 934 1091 1264 756 
Q 1594 422 2222 422 
Q 2656 422 3056 561 
Q 3456 700 3834 978 
L 3688 231 
Q 3316 72 2936 -9 
Q 2556 -91 2175 -91 
Q 1278 -91 773 396 
Q 269 884 269 1753 
Q 269 2309 461 2846 
Q 653 3384 1013 3828 
Q 1394 4300 1883 4525 
Q 2372 4750 3022 4750 
Q 3422 4750 3780 4639 
Q 4138 4528 4447 4306 
z
" transform="scale(0.015625)"/>
     </defs>
     <use xlink:href="#DejaVuSans-Oblique-51" transform="translate(0 0.015625)"/>
     <use xlink:href="#DejaVuSans-Oblique-43" transform="translate(78.710938 -16.390625) scale(0.7)"/>
     <use xlink:href="#DejaVuSans-3a" transform="translate(130.322266 0.015625)"/>
     <use xlink:href="#DejaVuSans-20" transform="translate(164.013672 0.015625)"/>
     <use xlink:href="#DejaVuSans-33" transform="translate(195.800781 0.015625)"/>
     <use xlink:href="#DejaVuSans-2e" transform="translate(259.423828 0.015625)"/>
     <use xlink:href="#DejaVuSans-33" transform="translate(291.210938 0.015625)"/>
     <use xlink:href="#DejaVuSans-33" transform="translate(354.833984 0.015625)"/>
     <use xlink:href="#DejaVuSans-36" transform="translate(418.457031 0.015625)"/>
     <use xlink:href="#DejaVuSans-b1" transform="translate(482.080078 0.015625)"/>
     <use xlink:href="#DejaVuSans-30" transform="translate(565.869141 0.015625)"/>
     <use xlink:href="#DejaVuSans-2e" transform="translate(629.492188 0.015625)"/>
     <use xlink:href="#DejaVuSans-30" transform="translate(661.279297 0.015625)"/>
     <use xlink:href="#DejaVuSans-31" transform="translate(724.902344 0.015625)"/>
     <use xlink:href="#DejaVuSans-39" transform="translate(788.525391 0.015625)"/>
     <use xlink:href="#DejaVuSans-20" transform="translate(852.148438 0.015625)"/>
     <use xlink:href="#DejaVuSans-6b" transform="translate(883.935547 0.015625)"/>
    </g>
    <!-- $f_{res}$: 5.8376237$\pm$5.5e-06 GHz -->
    <g transform="translate(425.571312 88.999875) scale(0.1 -0.1)">
     <defs>
      <path id="DejaVuSans-Oblique-66" d="M 3059 4863 
L 2969 4384 
L 2419 4384 
Q 2106 4384 1964 4261 
Q 1822 4138 1753 3809 
L 1691 3500 
L 2638 3500 
L 2553 3053 
L 1606 3053 
L 1013 0 
L 434 0 
L 1031 3053 
L 481 3053 
L 563 3500 
L 1113 3500 
L 1159 3744 
Q 1278 4363 1576 4613 
Q 1875 4863 2516 4863 
L 3059 4863 
z
" transform="scale(0.015625)"/>
      <path id="DejaVuSans-Oblique-72" d="M 2853 2969 
Q 2766 3016 2653 3041 
Q 2541 3066 2413 3066 
Q 1953 3066 1609 2717 
Q 1266 2369 1153 1784 
L 800 0 
L 225 0 
L 909 3500 
L 1484 3500 
L 1375 2956 
Q 1603 3259 1920 3421 
Q 2238 3584 2597 3584 
Q 2691 3584 2781 3573 
Q 2872 3563 2963 3538 
L 2853 2969 
z
" transform="scale(0.015625)"/>
      <path id="DejaVuSans-Oblique-65" d="M 3078 2063 
Q 3088 2113 3092 2166 
Q 3097 2219 3097 2272 
Q 3097 2653 2873 2875 
Q 2650 3097 2266 3097 
Q 1838 3097 1509 2826 
Q 1181 2556 1013 2059 
L 3078 2063 
z
M 3578 1613 
L 903 1613 
Q 884 1494 878 1425 
Q 872 1356 872 1306 
Q 872 872 1139 634 
Q 1406 397 1894 397 
Q 2269 397 2603 481 
Q 2938 566 3225 728 
L 3116 159 
Q 2806 34 2476 -28 
Q 2147 -91 1806 -91 
Q 1078 -91 686 257 
Q 294 606 294 1247 
Q 294 1794 489 2264 
Q 684 2734 1063 3103 
Q 1306 3334 1642 3459 
Q 1978 3584 2356 3584 
Q 2950 3584 3301 3228 
Q 3653 2872 3653 2272 
Q 3653 2128 3634 1964 
Q 3616 1800 3578 1613 
z
" transform="scale(0.015625)"/>
      <path id="DejaVuSans-Oblique-73" d="M 3200 3397 
L 3091 2853 
Q 2863 2978 2609 3040 
Q 2356 3103 2088 3103 
Q 1634 3103 1373 2948 
Q 1113 2794 1113 2528 
Q 1113 2219 1719 2053 
Q 1766 2041 1788 2034 
L 1972 1978 
Q 2547 1819 2739 1644 
Q 2931 1469 2931 1166 
Q 2931 609 2489 259 
Q 2047 -91 1331 -91 
Q 1053 -91 747 -37 
Q 441 16 72 128 
L 184 722 
Q 500 559 806 475 
Q 1113 391 1394 391 
Q 1816 391 2080 572 
Q 2344 753 2344 1031 
Q 2344 1331 1650 1516 
L 1591 1531 
L 1394 1581 
Q 956 1697 753 1886 
Q 550 2075 550 2369 
Q 550 2928 970 3256 
Q 1391 3584 2113 3584 
Q 2397 3584 2667 3537 
Q 2938 3491 3200 3397 
z
" transform="scale(0.015625)"/>
      <path id="DejaVuSans-35" d="M 691 4666 
L 3169 4666 
L 3169 4134 
L 1269 4134 
L 1269 2991 
Q 1406 3038 1543 3061 
Q 1681 3084 1819 3084 
Q 2600 3084 3056 2656 
Q 3513 2228 3513 1497 
Q 3513 744 3044 326 
Q 2575 -91 1722 -91 
Q 1428 -91 1123 -41 
Q 819 9 494 109 
L 494 744 
Q 775 591 1075 516 
Q 1375 441 1709 441 
Q 2250 441 2565 725 
Q 2881 1009 2881 1497 
Q 2881 1984 2565 2268 
Q 2250 2553 1709 2553 
Q 1456 2553 1204 2497 
Q 953 2441 691 2322 
L 691 4666 
z
" transform="scale(0.015625)"/>
      <path id="DejaVuSans-37" d="M 525 4666 
L 3525 4666 
L 3525 4397 
L 1831 0 
L 1172 0 
L 2766 4134 
L 525 4134 
L 525 4666 
z
" transform="scale(0.015625)"/>
      <path id="DejaVuSans-65" d="M 3597 1894 
L 3597 1613 
L 953 1613 
Q 991 1019 1311 708 
Q 1631 397 2203 397 
Q 2534 397 2845 478 
Q 3156 559 3463 722 
L 3463 178 
Q 3153 47 2828 -22 
Q 2503 -91 2169 -91 
Q 1331 -91 842 396 
Q 353 884 353 1716 
Q 353 2575 817 3079 
Q 1281 3584 2069 3584 
Q 2775 3584 3186 3129 
Q 3597 2675 3597 1894 
z
M 3022 2063 
Q 3016 2534 2758 2815 
Q 2500 3097 2075 3097 
Q 1594 3097 1305 2825 
Q 1016 2553 972 2059 
L 3022 2063 
z
" transform="scale(0.015625)"/>
      <path id="DejaVuSans-2d" d="M 313 2009 
L 1997 2009 
L 1997 1497 
L 313 1497 
L 313 2009 
z
" transform="scale(0.015625)"/>
      <path id="DejaVuSans-47" d="M 3809 666 
L 3809 1919 
L 2778 1919 
L 2778 2438 
L 4434 2438 
L 4434 434 
Q 4069 175 3628 42 
Q 3188 -91 2688 -91 
Q 1594 -91 976 548 
Q 359 1188 359 2328 
Q 359 3472 976 4111 
Q 1594 4750 2688 4750 
Q 3144 4750 3555 4637 
Q 3966 4525 4313 4306 
L 4313 3634 
Q 3963 3931 3569 4081 
Q 3175 4231 2741 4231 
Q 1884 4231 1454 3753 
Q 1025 3275 1025 2328 
Q 1025 1384 1454 906 
Q 1884 428 2741 428 
Q 3075 428 3337 486 
Q 3600 544 3809 666 
z
" transform="scale(0.015625)"/>
      <path id="DejaVuSans-48" d="M 628 4666 
L 1259 4666 
L 1259 2753 
L 3553 2753 
L 3553 4666 
L 4184 4666 
L 4184 0 
L 3553 0 
L 3553 2222 
L 1259 2222 
L 1259 0 
L 628 0 
L 628 4666 
z
" transform="scale(0.015625)"/>
      <path id="DejaVuSans-7a" d="M 353 3500 
L 3084 3500 
L 3084 2975 
L 922 459 
L 3084 459 
L 3084 0 
L 275 0 
L 275 525 
L 2438 3041 
L 353 3041 
L 353 3500 
z
" transform="scale(0.015625)"/>
     </defs>
     <use xlink:href="#DejaVuSans-Oblique-66" transform="translate(0 0.015625)"/>
     <use xlink:href="#DejaVuSans-Oblique-72" transform="translate(35.205078 -16.390625) scale(0.7)"/>
     <use xlink:href="#DejaVuSans-Oblique-65" transform="translate(63.984375 -16.390625) scale(0.7)"/>
     <use xlink:href="#DejaVuSans-Oblique-73" transform="translate(107.050781 -16.390625) scale(0.7)"/>
     <use xlink:href="#DejaVuSans-3a" transform="translate(146.254883 0.015625)"/>
     <use xlink:href="#DejaVuSans-20" transform="translate(179.946289 0.015625)"/>
     <use xlink:href="#DejaVuSans-35" transform="translate(211.733398 0.015625)"/>
     <use xlink:href="#DejaVuSans-2e" transform="translate(275.356445 0.015625)"/>
     <use xlink:href="#DejaVuSans-38" transform="translate(304.518555 0.015625)"/>
     <use xlink:href="#DejaVuSans-33" transform="translate(368.141602 0.015625)"/>
     <use xlink:href="#DejaVuSans-37" transform="translate(431.764648 0.015625)"/>
     <use xlink:href="#DejaVuSans-36" transform="translate(495.387695 0.015625)"/>
     <use xlink:href="#DejaVuSans-32" transform="translate(559.010742 0.015625)"/>
     <use xlink:href="#DejaVuSans-33" transform="translate(622.633789 0.015625)"/>
     <use xlink:href="#DejaVuSans-37" transform="translate(686.256836 0.015625)"/>
     <use xlink:href="#DejaVuSans-b1" transform="translate(749.879883 0.015625)"/>
     <use xlink:href="#DejaVuSans-35" transform="translate(833.668945 0.015625)"/>
     <use xlink:href="#DejaVuSans-2e" transform="translate(897.291992 0.015625)"/>
     <use xlink:href="#DejaVuSans-35" transform="translate(929.079102 0.015625)"/>
     <use xlink:href="#DejaVuSans-65" transform="translate(992.702148 0.015625)"/>
     <use xlink:href="#DejaVuSans-2d" transform="translate(1054.225586 0.015625)"/>
     <use xlink:href="#DejaVuSans-30" transform="translate(1090.30957 0.015625)"/>
     <use xlink:href="#DejaVuSans-36" transform="translate(1153.932617 0.015625)"/>
     <use xlink:href="#DejaVuSans-20" transform="translate(1217.555664 0.015625)"/>
     <use xlink:href="#DejaVuSans-47" transform="translate(1249.342773 0.015625)"/>
     <use xlink:href="#DejaVuSans-48" transform="translate(1326.833008 0.015625)"/>
     <use xlink:href="#DejaVuSans-7a" transform="translate(1402.02832 0.015625)"/>
    </g>
   </g>
  </g>
  <g id="axes_2">
   <g id="patch_8">
    <path d="M 50.595313 307.872 
L 407.715312 307.872 
L 407.715312 186.912 
L 50.595313 186.912 
z
" style="fill: #ffffff"/>
   </g>
   <g id="matplotlib.axis_3">
    <g id="xtick_7">
     <g id="line2d_14">
      <g>
       <use xlink:href="#me9b5a73365" x="74.944403" y="307.872" style="stroke: #000000; stroke-width: 0.8"/>
      </g>
     </g>
     <g id="text_8">
      <!-- 834 -->
      <g transform="translate(65.400653 322.470438) scale(0.1 -0.1)">
       <use xlink:href="#DejaVuSans-38"/>
       <use xlink:href="#DejaVuSans-33" x="63.623047"/>
       <use xlink:href="#DejaVuSans-34" x="127.246094"/>
      </g>
     </g>
    </g>
    <g id="xtick_8">
     <g id="line2d_15">
      <g>
       <use xlink:href="#me9b5a73365" x="139.875312" y="307.872" style="stroke: #000000; stroke-width: 0.8"/>
      </g>
     </g>
     <g id="text_9">
      <!-- 836 -->
      <g transform="translate(130.331562 322.470438) scale(0.1 -0.1)">
       <use xlink:href="#DejaVuSans-38"/>
       <use xlink:href="#DejaVuSans-33" x="63.623047"/>
       <use xlink:href="#DejaVuSans-36" x="127.246094"/>
      </g>
     </g>
    </g>
    <g id="xtick_9">
     <g id="line2d_16">
      <g>
       <use xlink:href="#me9b5a73365" x="204.806222" y="307.872" style="stroke: #000000; stroke-width: 0.8"/>
      </g>
     </g>
     <g id="text_10">
      <!-- 838 -->
      <g transform="translate(195.262472 322.470438) scale(0.1 -0.1)">
       <use xlink:href="#DejaVuSans-38"/>
       <use xlink:href="#DejaVuSans-33" x="63.623047"/>
       <use xlink:href="#DejaVuSans-38" x="127.246094"/>
      </g>
     </g>
    </g>
    <g id="xtick_10">
     <g id="line2d_17">
      <g>
       <use xlink:href="#me9b5a73365" x="269.737131" y="307.872" style="stroke: #000000; stroke-width: 0.8"/>
      </g>
     </g>
     <g id="text_11">
      <!-- 840 -->
      <g transform="translate(260.193381 322.470438) scale(0.1 -0.1)">
       <use xlink:href="#DejaVuSans-38"/>
       <use xlink:href="#DejaVuSans-34" x="63.623047"/>
       <use xlink:href="#DejaVuSans-30" x="127.246094"/>
      </g>
     </g>
    </g>
    <g id="xtick_11">
     <g id="line2d_18">
      <g>
       <use xlink:href="#me9b5a73365" x="334.66804" y="307.872" style="stroke: #000000; stroke-width: 0.8"/>
      </g>
     </g>
     <g id="text_12">
      <!-- 842 -->
      <g transform="translate(325.12429 322.470438) scale(0.1 -0.1)">
       <use xlink:href="#DejaVuSans-38"/>
       <use xlink:href="#DejaVuSans-34" x="63.623047"/>
       <use xlink:href="#DejaVuSans-32" x="127.246094"/>
      </g>
     </g>
    </g>
    <g id="xtick_12">
     <g id="line2d_19">
      <g>
       <use xlink:href="#me9b5a73365" x="399.598949" y="307.872" style="stroke: #000000; stroke-width: 0.8"/>
      </g>
     </g>
     <g id="text_13">
      <!-- 844 -->
      <g transform="translate(390.055199 322.470438) scale(0.1 -0.1)">
       <use xlink:href="#DejaVuSans-38"/>
       <use xlink:href="#DejaVuSans-34" x="63.623047"/>
       <use xlink:href="#DejaVuSans-34" x="127.246094"/>
      </g>
     </g>
    </g>
    <g id="text_14">
     <!-- Frequency [MHz] -->
     <g transform="translate(187.136562 336.148562) scale(0.1 -0.1)">
      <defs>
       <path id="DejaVuSans-46" d="M 628 4666 
L 3309 4666 
L 3309 4134 
L 1259 4134 
L 1259 2759 
L 3109 2759 
L 3109 2228 
L 1259 2228 
L 1259 0 
L 628 0 
L 628 4666 
z
" transform="scale(0.015625)"/>
       <path id="DejaVuSans-71" d="M 947 1747 
Q 947 1113 1208 752 
Q 1469 391 1925 391 
Q 2381 391 2643 752 
Q 2906 1113 2906 1747 
Q 2906 2381 2643 2742 
Q 2381 3103 1925 3103 
Q 1469 3103 1208 2742 
Q 947 2381 947 1747 
z
M 2906 525 
Q 2725 213 2448 61 
Q 2172 -91 1784 -91 
Q 1150 -91 751 415 
Q 353 922 353 1747 
Q 353 2572 751 3078 
Q 1150 3584 1784 3584 
Q 2172 3584 2448 3432 
Q 2725 3281 2906 2969 
L 2906 3500 
L 3481 3500 
L 3481 -1331 
L 2906 -1331 
L 2906 525 
z
" transform="scale(0.015625)"/>
       <path id="DejaVuSans-6e" d="M 3513 2113 
L 3513 0 
L 2938 0 
L 2938 2094 
Q 2938 2591 2744 2837 
Q 2550 3084 2163 3084 
Q 1697 3084 1428 2787 
Q 1159 2491 1159 1978 
L 1159 0 
L 581 0 
L 581 3500 
L 1159 3500 
L 1159 2956 
Q 1366 3272 1645 3428 
Q 1925 3584 2291 3584 
Q 2894 3584 3203 3211 
Q 3513 2838 3513 2113 
z
" transform="scale(0.015625)"/>
       <path id="DejaVuSans-63" d="M 3122 3366 
L 3122 2828 
Q 2878 2963 2633 3030 
Q 2388 3097 2138 3097 
Q 1578 3097 1268 2742 
Q 959 2388 959 1747 
Q 959 1106 1268 751 
Q 1578 397 2138 397 
Q 2388 397 2633 464 
Q 2878 531 3122 666 
L 3122 134 
Q 2881 22 2623 -34 
Q 2366 -91 2075 -91 
Q 1284 -91 818 406 
Q 353 903 353 1747 
Q 353 2603 823 3093 
Q 1294 3584 2113 3584 
Q 2378 3584 2631 3529 
Q 2884 3475 3122 3366 
z
" transform="scale(0.015625)"/>
       <path id="DejaVuSans-4d" d="M 628 4666 
L 1569 4666 
L 2759 1491 
L 3956 4666 
L 4897 4666 
L 4897 0 
L 4281 0 
L 4281 4097 
L 3078 897 
L 2444 897 
L 1241 4097 
L 1241 0 
L 628 0 
L 628 4666 
z
" transform="scale(0.015625)"/>
      </defs>
      <use xlink:href="#DejaVuSans-46"/>
      <use xlink:href="#DejaVuSans-72" x="50.269531"/>
      <use xlink:href="#DejaVuSans-65" x="89.132812"/>
      <use xlink:href="#DejaVuSans-71" x="150.65625"/>
      <use xlink:href="#DejaVuSans-75" x="214.132812"/>
      <use xlink:href="#DejaVuSans-65" x="277.511719"/>
      <use xlink:href="#DejaVuSans-6e" x="339.035156"/>
      <use xlink:href="#DejaVuSans-63" x="402.414062"/>
      <use xlink:href="#DejaVuSans-79" x="457.394531"/>
      <use xlink:href="#DejaVuSans-20" x="516.574219"/>
      <use xlink:href="#DejaVuSans-5b" x="548.361328"/>
      <use xlink:href="#DejaVuSans-4d" x="587.375"/>
      <use xlink:href="#DejaVuSans-48" x="673.654297"/>
      <use xlink:href="#DejaVuSans-7a" x="748.849609"/>
      <use xlink:href="#DejaVuSans-5d" x="801.339844"/>
     </g>
    </g>
    <g id="text_15">
     <!-- +5 GHz -->
     <g transform="translate(369.277812 335.148562) scale(0.1 -0.1)">
      <defs>
       <path id="DejaVuSans-2b" d="M 2944 4013 
L 2944 2272 
L 4684 2272 
L 4684 1741 
L 2944 1741 
L 2944 0 
L 2419 0 
L 2419 1741 
L 678 1741 
L 678 2272 
L 2419 2272 
L 2419 4013 
L 2944 4013 
z
" transform="scale(0.015625)"/>
      </defs>
      <use xlink:href="#DejaVuSans-2b"/>
      <use xlink:href="#DejaVuSans-35" x="83.789062"/>
      <use xlink:href="#DejaVuSans-20" x="147.412109"/>
      <use xlink:href="#DejaVuSans-47" x="179.199219"/>
      <use xlink:href="#DejaVuSans-48" x="256.689453"/>
      <use xlink:href="#DejaVuSans-7a" x="331.884766"/>
     </g>
    </g>
   </g>
   <g id="matplotlib.axis_4">
    <g id="ytick_6">
     <g id="line2d_20">
      <g>
       <use xlink:href="#m8a1dd397df" x="50.595313" y="277.937313" style="stroke: #000000; stroke-width: 0.8"/>
      </g>
     </g>
     <g id="text_16">
      <!-- -100 -->
      <g transform="translate(20.9 281.736532) scale(0.1 -0.1)">
       <use xlink:href="#DejaVuSans-2d"/>
       <use xlink:href="#DejaVuSans-31" x="36.083984"/>
       <use xlink:href="#DejaVuSans-30" x="99.707031"/>
       <use xlink:href="#DejaVuSans-30" x="163.330078"/>
      </g>
     </g>
    </g>
    <g id="ytick_7">
     <g id="line2d_21">
      <g>
       <use xlink:href="#m8a1dd397df" x="50.595313" y="247.391007" style="stroke: #000000; stroke-width: 0.8"/>
      </g>
     </g>
     <g id="text_17">
      <!-- 0 -->
      <g transform="translate(37.232813 251.190226) scale(0.1 -0.1)">
       <use xlink:href="#DejaVuSans-30"/>
      </g>
     </g>
    </g>
    <g id="ytick_8">
     <g id="line2d_22">
      <g>
       <use xlink:href="#m8a1dd397df" x="50.595313" y="216.8447" style="stroke: #000000; stroke-width: 0.8"/>
      </g>
     </g>
     <g id="text_18">
      <!-- 100 -->
      <g transform="translate(24.507813 220.643919) scale(0.1 -0.1)">
       <use xlink:href="#DejaVuSans-31"/>
       <use xlink:href="#DejaVuSans-30" x="63.623047"/>
       <use xlink:href="#DejaVuSans-30" x="127.246094"/>
      </g>
     </g>
    </g>
    <g id="text_19">
     <!-- $\angle S_{21}$ [deg] -->
     <g transform="translate(14.8 274.592) rotate(-90) scale(0.1 -0.1)">
      <defs>
       <path id="DejaVuSans-2220" d="M 5028 631 
L 5028 0 
L 547 0 
L 3525 4666 
L 4281 4666 
L 1716 631 
L 5028 631 
z
" transform="scale(0.015625)"/>
       <path id="DejaVuSans-64" d="M 2906 2969 
L 2906 4863 
L 3481 4863 
L 3481 0 
L 2906 0 
L 2906 525 
Q 2725 213 2448 61 
Q 2172 -91 1784 -91 
Q 1150 -91 751 415 
Q 353 922 353 1747 
Q 353 2572 751 3078 
Q 1150 3584 1784 3584 
Q 2172 3584 2448 3432 
Q 2725 3281 2906 2969 
z
M 947 1747 
Q 947 1113 1208 752 
Q 1469 391 1925 391 
Q 2381 391 2643 752 
Q 2906 1113 2906 1747 
Q 2906 2381 2643 2742 
Q 2381 3103 1925 3103 
Q 1469 3103 1208 2742 
Q 947 2381 947 1747 
z
" transform="scale(0.015625)"/>
       <path id="DejaVuSans-67" d="M 2906 1791 
Q 2906 2416 2648 2759 
Q 2391 3103 1925 3103 
Q 1463 3103 1205 2759 
Q 947 2416 947 1791 
Q 947 1169 1205 825 
Q 1463 481 1925 481 
Q 2391 481 2648 825 
Q 2906 1169 2906 1791 
z
M 3481 434 
Q 3481 -459 3084 -895 
Q 2688 -1331 1869 -1331 
Q 1566 -1331 1297 -1286 
Q 1028 -1241 775 -1147 
L 775 -588 
Q 1028 -725 1275 -790 
Q 1522 -856 1778 -856 
Q 2344 -856 2625 -561 
Q 2906 -266 2906 331 
L 2906 616 
Q 2728 306 2450 153 
Q 2172 0 1784 0 
Q 1141 0 747 490 
Q 353 981 353 1791 
Q 353 2603 747 3093 
Q 1141 3584 1784 3584 
Q 2172 3584 2450 3431 
Q 2728 3278 2906 2969 
L 2906 3500 
L 3481 3500 
L 3481 434 
z
" transform="scale(0.015625)"/>
      </defs>
      <use xlink:href="#DejaVuSans-2220" transform="translate(0 0.015625)"/>
      <use xlink:href="#DejaVuSans-Oblique-53" transform="translate(89.648438 0.015625)"/>
      <use xlink:href="#DejaVuSans-32" transform="translate(153.125 -16.390625) scale(0.7)"/>
      <use xlink:href="#DejaVuSans-31" transform="translate(197.661133 -16.390625) scale(0.7)"/>
      <use xlink:href="#DejaVuSans-20" transform="translate(244.931641 0.015625)"/>
      <use xlink:href="#DejaVuSans-5b" transform="translate(276.71875 0.015625)"/>
      <use xlink:href="#DejaVuSans-64" transform="translate(315.732422 0.015625)"/>
      <use xlink:href="#DejaVuSans-65" transform="translate(379.208984 0.015625)"/>
      <use xlink:href="#DejaVuSans-67" transform="translate(440.732422 0.015625)"/>
      <use xlink:href="#DejaVuSans-5d" transform="translate(504.208984 0.015625)"/>
     </g>
    </g>
   </g>
   <g id="line2d_23">
    <path d="M 66.82804 302.093962 
L 68.45947 302.03664 
L 70.0909 302.200962 
L 71.722329 302.09574 
L 73.353759 192.432251 
L 74.985189 192.703291 
L 76.616619 192.543196 
L 78.248049 192.773964 
L 81.510909 192.862737 
L 84.773768 193.245931 
L 86.405198 193.216326 
L 88.036628 193.496592 
L 89.668058 193.536057 
L 92.930918 193.929874 
L 94.562348 193.913789 
L 96.193778 194.275685 
L 97.825207 194.389897 
L 99.456637 194.387784 
L 102.719497 194.837977 
L 104.350927 194.811868 
L 107.613787 195.27025 
L 109.245217 195.355278 
L 110.876646 195.614103 
L 114.139506 195.750574 
L 115.770936 195.890172 
L 117.402366 196.324653 
L 119.033796 196.310957 
L 120.665226 196.534536 
L 122.296656 196.885477 
L 125.559515 197.140167 
L 128.822375 197.715881 
L 130.453805 197.786024 
L 132.085235 198.211731 
L 133.716665 198.200315 
L 136.979524 199.008415 
L 138.610954 199.060153 
L 140.242384 199.285314 
L 145.136674 200.364344 
L 146.768104 200.819058 
L 148.399534 200.971013 
L 150.030963 201.428265 
L 151.662393 201.68236 
L 153.293823 202.132994 
L 154.925253 202.439032 
L 161.450973 204.25772 
L 163.082402 204.911157 
L 164.713832 205.147349 
L 171.239552 207.505515 
L 172.870982 208.341443 
L 174.502412 208.66312 
L 176.133842 209.426069 
L 177.765271 209.726127 
L 179.396701 210.577417 
L 181.028131 211.117845 
L 182.659561 211.862313 
L 185.922421 212.85198 
L 187.553851 213.713862 
L 189.185281 214.023863 
L 190.81671 214.92176 
L 192.44814 215.44563 
L 194.07957 216.395238 
L 195.711 216.584411 
L 197.34243 217.376813 
L 198.97386 217.677921 
L 200.60529 217.351467 
L 202.23672 217.454332 
L 203.868149 218.406206 
L 205.499579 217.571592 
L 207.131009 217.748192 
L 208.762439 215.940312 
L 210.393869 215.723491 
L 212.025299 213.912483 
L 213.656729 211.447297 
L 215.288159 207.791551 
L 216.919588 204.989648 
L 218.551018 201.526467 
L 220.182448 199.523834 
L 221.813878 197.803126 
L 223.445308 194.013567 
L 225.076738 193.793183 
L 226.708168 301.396417 
L 228.339598 301.438545 
L 229.971027 300.390572 
L 233.233887 299.491272 
L 234.865317 299.242172 
L 236.496747 298.148327 
L 238.128177 298.910673 
L 239.759607 298.907328 
L 241.391037 298.636581 
L 243.022466 299.046121 
L 244.653896 298.569864 
L 246.285326 299.078388 
L 247.916756 298.818941 
L 249.548186 298.862424 
L 251.179616 299.792262 
L 252.811046 299.211846 
L 254.442476 299.415249 
L 256.073905 299.120342 
L 260.968195 300.042373 
L 262.599625 300.0478 
L 264.231055 299.932366 
L 265.862485 300.170025 
L 267.493915 299.963595 
L 269.125344 300.464837 
L 270.756774 300.628726 
L 272.388204 300.548633 
L 274.019634 300.940846 
L 275.651064 300.870036 
L 278.913924 301.166008 
L 280.545354 301.184997 
L 282.176783 301.562007 
L 283.808213 301.435683 
L 285.439643 301.665654 
L 287.071073 301.349558 
L 288.702503 301.77671 
L 290.333933 301.752197 
L 291.965363 192.416918 
L 293.596793 302.114394 
L 296.859652 302.373818 
L 298.491082 192.605242 
L 301.753942 192.921069 
L 303.385372 192.819261 
L 305.016802 193.032454 
L 306.648232 193.03322 
L 308.279662 193.162575 
L 309.911091 193.162745 
L 314.805381 193.596359 
L 316.436811 193.594467 
L 321.331101 193.856743 
L 324.59396 194.449652 
L 327.85682 194.239658 
L 331.11968 194.508206 
L 332.75111 194.499617 
L 336.013969 195.13359 
L 337.645399 195.018375 
L 339.276829 194.785116 
L 340.908259 195.145279 
L 345.802549 195.244722 
L 347.433979 195.353932 
L 349.065408 195.592613 
L 350.696838 195.494912 
L 352.328268 195.5913 
L 353.959698 195.514686 
L 355.591128 195.95502 
L 357.222558 195.757902 
L 360.485418 196.269564 
L 362.116847 196.100969 
L 363.748277 196.116051 
L 367.011137 196.578681 
L 368.642567 196.313049 
L 370.273997 196.853521 
L 371.905427 196.719434 
L 378.431146 197.195078 
L 380.062576 196.944586 
L 381.694006 196.946302 
L 383.325436 197.076453 
L 384.956866 197.473161 
L 386.588296 197.282422 
L 391.482585 197.929043 
L 391.482585 197.929043 
" clip-path="url(#pe845ef5075)" style="fill: none; stroke: #1f77b4; stroke-width: 1.5; stroke-linecap: square"/>
    <g clip-path="url(#pe845ef5075)">
     <use xlink:href="#m4d651e918b" x="66.82804" y="302.093962" style="fill: #1f77b4; stroke: #1f77b4"/>
     <use xlink:href="#m4d651e918b" x="68.45947" y="302.03664" style="fill: #1f77b4; stroke: #1f77b4"/>
     <use xlink:href="#m4d651e918b" x="70.0909" y="302.200962" style="fill: #1f77b4; stroke: #1f77b4"/>
     <use xlink:href="#m4d651e918b" x="71.722329" y="302.09574" style="fill: #1f77b4; stroke: #1f77b4"/>
     <use xlink:href="#m4d651e918b" x="73.353759" y="192.432251" style="fill: #1f77b4; stroke: #1f77b4"/>
     <use xlink:href="#m4d651e918b" x="74.985189" y="192.703291" style="fill: #1f77b4; stroke: #1f77b4"/>
     <use xlink:href="#m4d651e918b" x="76.616619" y="192.543196" style="fill: #1f77b4; stroke: #1f77b4"/>
     <use xlink:href="#m4d651e918b" x="78.248049" y="192.773964" style="fill: #1f77b4; stroke: #1f77b4"/>
     <use xlink:href="#m4d651e918b" x="79.879479" y="192.832753" style="fill: #1f77b4; stroke: #1f77b4"/>
     <use xlink:href="#m4d651e918b" x="81.510909" y="192.862737" style="fill: #1f77b4; stroke: #1f77b4"/>
     <use xlink:href="#m4d651e918b" x="83.142339" y="193.07701" style="fill: #1f77b4; stroke: #1f77b4"/>
     <use xlink:href="#m4d651e918b" x="84.773768" y="193.245931" style="fill: #1f77b4; stroke: #1f77b4"/>
     <use xlink:href="#m4d651e918b" x="86.405198" y="193.216326" style="fill: #1f77b4; stroke: #1f77b4"/>
     <use xlink:href="#m4d651e918b" x="88.036628" y="193.496592" style="fill: #1f77b4; stroke: #1f77b4"/>
     <use xlink:href="#m4d651e918b" x="89.668058" y="193.536057" style="fill: #1f77b4; stroke: #1f77b4"/>
     <use xlink:href="#m4d651e918b" x="91.299488" y="193.730793" style="fill: #1f77b4; stroke: #1f77b4"/>
     <use xlink:href="#m4d651e918b" x="92.930918" y="193.929874" style="fill: #1f77b4; stroke: #1f77b4"/>
     <use xlink:href="#m4d651e918b" x="94.562348" y="193.913789" style="fill: #1f77b4; stroke: #1f77b4"/>
     <use xlink:href="#m4d651e918b" x="96.193778" y="194.275685" style="fill: #1f77b4; stroke: #1f77b4"/>
     <use xlink:href="#m4d651e918b" x="97.825207" y="194.389897" style="fill: #1f77b4; stroke: #1f77b4"/>
     <use xlink:href="#m4d651e918b" x="99.456637" y="194.387784" style="fill: #1f77b4; stroke: #1f77b4"/>
     <use xlink:href="#m4d651e918b" x="101.088067" y="194.638117" style="fill: #1f77b4; stroke: #1f77b4"/>
     <use xlink:href="#m4d651e918b" x="102.719497" y="194.837977" style="fill: #1f77b4; stroke: #1f77b4"/>
     <use xlink:href="#m4d651e918b" x="104.350927" y="194.811868" style="fill: #1f77b4; stroke: #1f77b4"/>
     <use xlink:href="#m4d651e918b" x="105.982357" y="195.042563" style="fill: #1f77b4; stroke: #1f77b4"/>
     <use xlink:href="#m4d651e918b" x="107.613787" y="195.27025" style="fill: #1f77b4; stroke: #1f77b4"/>
     <use xlink:href="#m4d651e918b" x="109.245217" y="195.355278" style="fill: #1f77b4; stroke: #1f77b4"/>
     <use xlink:href="#m4d651e918b" x="110.876646" y="195.614103" style="fill: #1f77b4; stroke: #1f77b4"/>
     <use xlink:href="#m4d651e918b" x="112.508076" y="195.647191" style="fill: #1f77b4; stroke: #1f77b4"/>
     <use xlink:href="#m4d651e918b" x="114.139506" y="195.750574" style="fill: #1f77b4; stroke: #1f77b4"/>
     <use xlink:href="#m4d651e918b" x="115.770936" y="195.890172" style="fill: #1f77b4; stroke: #1f77b4"/>
     <use xlink:href="#m4d651e918b" x="117.402366" y="196.324653" style="fill: #1f77b4; stroke: #1f77b4"/>
     <use xlink:href="#m4d651e918b" x="119.033796" y="196.310957" style="fill: #1f77b4; stroke: #1f77b4"/>
     <use xlink:href="#m4d651e918b" x="120.665226" y="196.534536" style="fill: #1f77b4; stroke: #1f77b4"/>
     <use xlink:href="#m4d651e918b" x="122.296656" y="196.885477" style="fill: #1f77b4; stroke: #1f77b4"/>
     <use xlink:href="#m4d651e918b" x="123.928085" y="197.028864" style="fill: #1f77b4; stroke: #1f77b4"/>
     <use xlink:href="#m4d651e918b" x="125.559515" y="197.140167" style="fill: #1f77b4; stroke: #1f77b4"/>
     <use xlink:href="#m4d651e918b" x="127.190945" y="197.427657" style="fill: #1f77b4; stroke: #1f77b4"/>
     <use xlink:href="#m4d651e918b" x="128.822375" y="197.715881" style="fill: #1f77b4; stroke: #1f77b4"/>
     <use xlink:href="#m4d651e918b" x="130.453805" y="197.786024" style="fill: #1f77b4; stroke: #1f77b4"/>
     <use xlink:href="#m4d651e918b" x="132.085235" y="198.211731" style="fill: #1f77b4; stroke: #1f77b4"/>
     <use xlink:href="#m4d651e918b" x="133.716665" y="198.200315" style="fill: #1f77b4; stroke: #1f77b4"/>
     <use xlink:href="#m4d651e918b" x="135.348095" y="198.586833" style="fill: #1f77b4; stroke: #1f77b4"/>
     <use xlink:href="#m4d651e918b" x="136.979524" y="199.008415" style="fill: #1f77b4; stroke: #1f77b4"/>
     <use xlink:href="#m4d651e918b" x="138.610954" y="199.060153" style="fill: #1f77b4; stroke: #1f77b4"/>
     <use xlink:href="#m4d651e918b" x="140.242384" y="199.285314" style="fill: #1f77b4; stroke: #1f77b4"/>
     <use xlink:href="#m4d651e918b" x="141.873814" y="199.633985" style="fill: #1f77b4; stroke: #1f77b4"/>
     <use xlink:href="#m4d651e918b" x="143.505244" y="200.069596" style="fill: #1f77b4; stroke: #1f77b4"/>
     <use xlink:href="#m4d651e918b" x="145.136674" y="200.364344" style="fill: #1f77b4; stroke: #1f77b4"/>
     <use xlink:href="#m4d651e918b" x="146.768104" y="200.819058" style="fill: #1f77b4; stroke: #1f77b4"/>
     <use xlink:href="#m4d651e918b" x="148.399534" y="200.971013" style="fill: #1f77b4; stroke: #1f77b4"/>
     <use xlink:href="#m4d651e918b" x="150.030963" y="201.428265" style="fill: #1f77b4; stroke: #1f77b4"/>
     <use xlink:href="#m4d651e918b" x="151.662393" y="201.68236" style="fill: #1f77b4; stroke: #1f77b4"/>
     <use xlink:href="#m4d651e918b" x="153.293823" y="202.132994" style="fill: #1f77b4; stroke: #1f77b4"/>
     <use xlink:href="#m4d651e918b" x="154.925253" y="202.439032" style="fill: #1f77b4; stroke: #1f77b4"/>
     <use xlink:href="#m4d651e918b" x="156.556683" y="202.887717" style="fill: #1f77b4; stroke: #1f77b4"/>
     <use xlink:href="#m4d651e918b" x="158.188113" y="203.229049" style="fill: #1f77b4; stroke: #1f77b4"/>
     <use xlink:href="#m4d651e918b" x="159.819543" y="203.723676" style="fill: #1f77b4; stroke: #1f77b4"/>
     <use xlink:href="#m4d651e918b" x="161.450973" y="204.25772" style="fill: #1f77b4; stroke: #1f77b4"/>
     <use xlink:href="#m4d651e918b" x="163.082402" y="204.911157" style="fill: #1f77b4; stroke: #1f77b4"/>
     <use xlink:href="#m4d651e918b" x="164.713832" y="205.147349" style="fill: #1f77b4; stroke: #1f77b4"/>
     <use xlink:href="#m4d651e918b" x="166.345262" y="205.722265" style="fill: #1f77b4; stroke: #1f77b4"/>
     <use xlink:href="#m4d651e918b" x="167.976692" y="206.350938" style="fill: #1f77b4; stroke: #1f77b4"/>
     <use xlink:href="#m4d651e918b" x="169.608122" y="206.950559" style="fill: #1f77b4; stroke: #1f77b4"/>
     <use xlink:href="#m4d651e918b" x="171.239552" y="207.505515" style="fill: #1f77b4; stroke: #1f77b4"/>
     <use xlink:href="#m4d651e918b" x="172.870982" y="208.341443" style="fill: #1f77b4; stroke: #1f77b4"/>
     <use xlink:href="#m4d651e918b" x="174.502412" y="208.66312" style="fill: #1f77b4; stroke: #1f77b4"/>
     <use xlink:href="#m4d651e918b" x="176.133842" y="209.426069" style="fill: #1f77b4; stroke: #1f77b4"/>
     <use xlink:href="#m4d651e918b" x="177.765271" y="209.726127" style="fill: #1f77b4; stroke: #1f77b4"/>
     <use xlink:href="#m4d651e918b" x="179.396701" y="210.577417" style="fill: #1f77b4; stroke: #1f77b4"/>
     <use xlink:href="#m4d651e918b" x="181.028131" y="211.117845" style="fill: #1f77b4; stroke: #1f77b4"/>
     <use xlink:href="#m4d651e918b" x="182.659561" y="211.862313" style="fill: #1f77b4; stroke: #1f77b4"/>
     <use xlink:href="#m4d651e918b" x="184.290991" y="212.400796" style="fill: #1f77b4; stroke: #1f77b4"/>
     <use xlink:href="#m4d651e918b" x="185.922421" y="212.85198" style="fill: #1f77b4; stroke: #1f77b4"/>
     <use xlink:href="#m4d651e918b" x="187.553851" y="213.713862" style="fill: #1f77b4; stroke: #1f77b4"/>
     <use xlink:href="#m4d651e918b" x="189.185281" y="214.023863" style="fill: #1f77b4; stroke: #1f77b4"/>
     <use xlink:href="#m4d651e918b" x="190.81671" y="214.92176" style="fill: #1f77b4; stroke: #1f77b4"/>
     <use xlink:href="#m4d651e918b" x="192.44814" y="215.44563" style="fill: #1f77b4; stroke: #1f77b4"/>
     <use xlink:href="#m4d651e918b" x="194.07957" y="216.395238" style="fill: #1f77b4; stroke: #1f77b4"/>
     <use xlink:href="#m4d651e918b" x="195.711" y="216.584411" style="fill: #1f77b4; stroke: #1f77b4"/>
     <use xlink:href="#m4d651e918b" x="197.34243" y="217.376813" style="fill: #1f77b4; stroke: #1f77b4"/>
     <use xlink:href="#m4d651e918b" x="198.97386" y="217.677921" style="fill: #1f77b4; stroke: #1f77b4"/>
     <use xlink:href="#m4d651e918b" x="200.60529" y="217.351467" style="fill: #1f77b4; stroke: #1f77b4"/>
     <use xlink:href="#m4d651e918b" x="202.23672" y="217.454332" style="fill: #1f77b4; stroke: #1f77b4"/>
     <use xlink:href="#m4d651e918b" x="203.868149" y="218.406206" style="fill: #1f77b4; stroke: #1f77b4"/>
     <use xlink:href="#m4d651e918b" x="205.499579" y="217.571592" style="fill: #1f77b4; stroke: #1f77b4"/>
     <use xlink:href="#m4d651e918b" x="207.131009" y="217.748192" style="fill: #1f77b4; stroke: #1f77b4"/>
     <use xlink:href="#m4d651e918b" x="208.762439" y="215.940312" style="fill: #1f77b4; stroke: #1f77b4"/>
     <use xlink:href="#m4d651e918b" x="210.393869" y="215.723491" style="fill: #1f77b4; stroke: #1f77b4"/>
     <use xlink:href="#m4d651e918b" x="212.025299" y="213.912483" style="fill: #1f77b4; stroke: #1f77b4"/>
     <use xlink:href="#m4d651e918b" x="213.656729" y="211.447297" style="fill: #1f77b4; stroke: #1f77b4"/>
     <use xlink:href="#m4d651e918b" x="215.288159" y="207.791551" style="fill: #1f77b4; stroke: #1f77b4"/>
     <use xlink:href="#m4d651e918b" x="216.919588" y="204.989648" style="fill: #1f77b4; stroke: #1f77b4"/>
     <use xlink:href="#m4d651e918b" x="218.551018" y="201.526467" style="fill: #1f77b4; stroke: #1f77b4"/>
     <use xlink:href="#m4d651e918b" x="220.182448" y="199.523834" style="fill: #1f77b4; stroke: #1f77b4"/>
     <use xlink:href="#m4d651e918b" x="221.813878" y="197.803126" style="fill: #1f77b4; stroke: #1f77b4"/>
     <use xlink:href="#m4d651e918b" x="223.445308" y="194.013567" style="fill: #1f77b4; stroke: #1f77b4"/>
     <use xlink:href="#m4d651e918b" x="225.076738" y="193.793183" style="fill: #1f77b4; stroke: #1f77b4"/>
     <use xlink:href="#m4d651e918b" x="226.708168" y="301.396417" style="fill: #1f77b4; stroke: #1f77b4"/>
     <use xlink:href="#m4d651e918b" x="228.339598" y="301.438545" style="fill: #1f77b4; stroke: #1f77b4"/>
     <use xlink:href="#m4d651e918b" x="229.971027" y="300.390572" style="fill: #1f77b4; stroke: #1f77b4"/>
     <use xlink:href="#m4d651e918b" x="231.602457" y="299.916601" style="fill: #1f77b4; stroke: #1f77b4"/>
     <use xlink:href="#m4d651e918b" x="233.233887" y="299.491272" style="fill: #1f77b4; stroke: #1f77b4"/>
     <use xlink:href="#m4d651e918b" x="234.865317" y="299.242172" style="fill: #1f77b4; stroke: #1f77b4"/>
     <use xlink:href="#m4d651e918b" x="236.496747" y="298.148327" style="fill: #1f77b4; stroke: #1f77b4"/>
     <use xlink:href="#m4d651e918b" x="238.128177" y="298.910673" style="fill: #1f77b4; stroke: #1f77b4"/>
     <use xlink:href="#m4d651e918b" x="239.759607" y="298.907328" style="fill: #1f77b4; stroke: #1f77b4"/>
     <use xlink:href="#m4d651e918b" x="241.391037" y="298.636581" style="fill: #1f77b4; stroke: #1f77b4"/>
     <use xlink:href="#m4d651e918b" x="243.022466" y="299.046121" style="fill: #1f77b4; stroke: #1f77b4"/>
     <use xlink:href="#m4d651e918b" x="244.653896" y="298.569864" style="fill: #1f77b4; stroke: #1f77b4"/>
     <use xlink:href="#m4d651e918b" x="246.285326" y="299.078388" style="fill: #1f77b4; stroke: #1f77b4"/>
     <use xlink:href="#m4d651e918b" x="247.916756" y="298.818941" style="fill: #1f77b4; stroke: #1f77b4"/>
     <use xlink:href="#m4d651e918b" x="249.548186" y="298.862424" style="fill: #1f77b4; stroke: #1f77b4"/>
     <use xlink:href="#m4d651e918b" x="251.179616" y="299.792262" style="fill: #1f77b4; stroke: #1f77b4"/>
     <use xlink:href="#m4d651e918b" x="252.811046" y="299.211846" style="fill: #1f77b4; stroke: #1f77b4"/>
     <use xlink:href="#m4d651e918b" x="254.442476" y="299.415249" style="fill: #1f77b4; stroke: #1f77b4"/>
     <use xlink:href="#m4d651e918b" x="256.073905" y="299.120342" style="fill: #1f77b4; stroke: #1f77b4"/>
     <use xlink:href="#m4d651e918b" x="257.705335" y="299.431142" style="fill: #1f77b4; stroke: #1f77b4"/>
     <use xlink:href="#m4d651e918b" x="259.336765" y="299.695787" style="fill: #1f77b4; stroke: #1f77b4"/>
     <use xlink:href="#m4d651e918b" x="260.968195" y="300.042373" style="fill: #1f77b4; stroke: #1f77b4"/>
     <use xlink:href="#m4d651e918b" x="262.599625" y="300.0478" style="fill: #1f77b4; stroke: #1f77b4"/>
     <use xlink:href="#m4d651e918b" x="264.231055" y="299.932366" style="fill: #1f77b4; stroke: #1f77b4"/>
     <use xlink:href="#m4d651e918b" x="265.862485" y="300.170025" style="fill: #1f77b4; stroke: #1f77b4"/>
     <use xlink:href="#m4d651e918b" x="267.493915" y="299.963595" style="fill: #1f77b4; stroke: #1f77b4"/>
     <use xlink:href="#m4d651e918b" x="269.125344" y="300.464837" style="fill: #1f77b4; stroke: #1f77b4"/>
     <use xlink:href="#m4d651e918b" x="270.756774" y="300.628726" style="fill: #1f77b4; stroke: #1f77b4"/>
     <use xlink:href="#m4d651e918b" x="272.388204" y="300.548633" style="fill: #1f77b4; stroke: #1f77b4"/>
     <use xlink:href="#m4d651e918b" x="274.019634" y="300.940846" style="fill: #1f77b4; stroke: #1f77b4"/>
     <use xlink:href="#m4d651e918b" x="275.651064" y="300.870036" style="fill: #1f77b4; stroke: #1f77b4"/>
     <use xlink:href="#m4d651e918b" x="277.282494" y="301.042758" style="fill: #1f77b4; stroke: #1f77b4"/>
     <use xlink:href="#m4d651e918b" x="278.913924" y="301.166008" style="fill: #1f77b4; stroke: #1f77b4"/>
     <use xlink:href="#m4d651e918b" x="280.545354" y="301.184997" style="fill: #1f77b4; stroke: #1f77b4"/>
     <use xlink:href="#m4d651e918b" x="282.176783" y="301.562007" style="fill: #1f77b4; stroke: #1f77b4"/>
     <use xlink:href="#m4d651e918b" x="283.808213" y="301.435683" style="fill: #1f77b4; stroke: #1f77b4"/>
     <use xlink:href="#m4d651e918b" x="285.439643" y="301.665654" style="fill: #1f77b4; stroke: #1f77b4"/>
     <use xlink:href="#m4d651e918b" x="287.071073" y="301.349558" style="fill: #1f77b4; stroke: #1f77b4"/>
     <use xlink:href="#m4d651e918b" x="288.702503" y="301.77671" style="fill: #1f77b4; stroke: #1f77b4"/>
     <use xlink:href="#m4d651e918b" x="290.333933" y="301.752197" style="fill: #1f77b4; stroke: #1f77b4"/>
     <use xlink:href="#m4d651e918b" x="291.965363" y="192.416918" style="fill: #1f77b4; stroke: #1f77b4"/>
     <use xlink:href="#m4d651e918b" x="293.596793" y="302.114394" style="fill: #1f77b4; stroke: #1f77b4"/>
     <use xlink:href="#m4d651e918b" x="295.228223" y="302.295387" style="fill: #1f77b4; stroke: #1f77b4"/>
     <use xlink:href="#m4d651e918b" x="296.859652" y="302.373818" style="fill: #1f77b4; stroke: #1f77b4"/>
     <use xlink:href="#m4d651e918b" x="298.491082" y="192.605242" style="fill: #1f77b4; stroke: #1f77b4"/>
     <use xlink:href="#m4d651e918b" x="300.122512" y="192.818528" style="fill: #1f77b4; stroke: #1f77b4"/>
     <use xlink:href="#m4d651e918b" x="301.753942" y="192.921069" style="fill: #1f77b4; stroke: #1f77b4"/>
     <use xlink:href="#m4d651e918b" x="303.385372" y="192.819261" style="fill: #1f77b4; stroke: #1f77b4"/>
     <use xlink:href="#m4d651e918b" x="305.016802" y="193.032454" style="fill: #1f77b4; stroke: #1f77b4"/>
     <use xlink:href="#m4d651e918b" x="306.648232" y="193.03322" style="fill: #1f77b4; stroke: #1f77b4"/>
     <use xlink:href="#m4d651e918b" x="308.279662" y="193.162575" style="fill: #1f77b4; stroke: #1f77b4"/>
     <use xlink:href="#m4d651e918b" x="309.911091" y="193.162745" style="fill: #1f77b4; stroke: #1f77b4"/>
     <use xlink:href="#m4d651e918b" x="311.542521" y="193.334682" style="fill: #1f77b4; stroke: #1f77b4"/>
     <use xlink:href="#m4d651e918b" x="313.173951" y="193.551262" style="fill: #1f77b4; stroke: #1f77b4"/>
     <use xlink:href="#m4d651e918b" x="314.805381" y="193.596359" style="fill: #1f77b4; stroke: #1f77b4"/>
     <use xlink:href="#m4d651e918b" x="316.436811" y="193.594467" style="fill: #1f77b4; stroke: #1f77b4"/>
     <use xlink:href="#m4d651e918b" x="318.068241" y="193.705186" style="fill: #1f77b4; stroke: #1f77b4"/>
     <use xlink:href="#m4d651e918b" x="319.699671" y="193.804306" style="fill: #1f77b4; stroke: #1f77b4"/>
     <use xlink:href="#m4d651e918b" x="321.331101" y="193.856743" style="fill: #1f77b4; stroke: #1f77b4"/>
     <use xlink:href="#m4d651e918b" x="322.96253" y="194.156772" style="fill: #1f77b4; stroke: #1f77b4"/>
     <use xlink:href="#m4d651e918b" x="324.59396" y="194.449652" style="fill: #1f77b4; stroke: #1f77b4"/>
     <use xlink:href="#m4d651e918b" x="326.22539" y="194.339278" style="fill: #1f77b4; stroke: #1f77b4"/>
     <use xlink:href="#m4d651e918b" x="327.85682" y="194.239658" style="fill: #1f77b4; stroke: #1f77b4"/>
     <use xlink:href="#m4d651e918b" x="329.48825" y="194.388342" style="fill: #1f77b4; stroke: #1f77b4"/>
     <use xlink:href="#m4d651e918b" x="331.11968" y="194.508206" style="fill: #1f77b4; stroke: #1f77b4"/>
     <use xlink:href="#m4d651e918b" x="332.75111" y="194.499617" style="fill: #1f77b4; stroke: #1f77b4"/>
     <use xlink:href="#m4d651e918b" x="334.38254" y="194.81952" style="fill: #1f77b4; stroke: #1f77b4"/>
     <use xlink:href="#m4d651e918b" x="336.013969" y="195.13359" style="fill: #1f77b4; stroke: #1f77b4"/>
     <use xlink:href="#m4d651e918b" x="337.645399" y="195.018375" style="fill: #1f77b4; stroke: #1f77b4"/>
     <use xlink:href="#m4d651e918b" x="339.276829" y="194.785116" style="fill: #1f77b4; stroke: #1f77b4"/>
     <use xlink:href="#m4d651e918b" x="340.908259" y="195.145279" style="fill: #1f77b4; stroke: #1f77b4"/>
     <use xlink:href="#m4d651e918b" x="342.539689" y="195.151376" style="fill: #1f77b4; stroke: #1f77b4"/>
     <use xlink:href="#m4d651e918b" x="344.171119" y="195.10743" style="fill: #1f77b4; stroke: #1f77b4"/>
     <use xlink:href="#m4d651e918b" x="345.802549" y="195.244722" style="fill: #1f77b4; stroke: #1f77b4"/>
     <use xlink:href="#m4d651e918b" x="347.433979" y="195.353932" style="fill: #1f77b4; stroke: #1f77b4"/>
     <use xlink:href="#m4d651e918b" x="349.065408" y="195.592613" style="fill: #1f77b4; stroke: #1f77b4"/>
     <use xlink:href="#m4d651e918b" x="350.696838" y="195.494912" style="fill: #1f77b4; stroke: #1f77b4"/>
     <use xlink:href="#m4d651e918b" x="352.328268" y="195.5913" style="fill: #1f77b4; stroke: #1f77b4"/>
     <use xlink:href="#m4d651e918b" x="353.959698" y="195.514686" style="fill: #1f77b4; stroke: #1f77b4"/>
     <use xlink:href="#m4d651e918b" x="355.591128" y="195.95502" style="fill: #1f77b4; stroke: #1f77b4"/>
     <use xlink:href="#m4d651e918b" x="357.222558" y="195.757902" style="fill: #1f77b4; stroke: #1f77b4"/>
     <use xlink:href="#m4d651e918b" x="358.853988" y="196.044055" style="fill: #1f77b4; stroke: #1f77b4"/>
     <use xlink:href="#m4d651e918b" x="360.485418" y="196.269564" style="fill: #1f77b4; stroke: #1f77b4"/>
     <use xlink:href="#m4d651e918b" x="362.116847" y="196.100969" style="fill: #1f77b4; stroke: #1f77b4"/>
     <use xlink:href="#m4d651e918b" x="363.748277" y="196.116051" style="fill: #1f77b4; stroke: #1f77b4"/>
     <use xlink:href="#m4d651e918b" x="365.379707" y="196.312926" style="fill: #1f77b4; stroke: #1f77b4"/>
     <use xlink:href="#m4d651e918b" x="367.011137" y="196.578681" style="fill: #1f77b4; stroke: #1f77b4"/>
     <use xlink:href="#m4d651e918b" x="368.642567" y="196.313049" style="fill: #1f77b4; stroke: #1f77b4"/>
     <use xlink:href="#m4d651e918b" x="370.273997" y="196.853521" style="fill: #1f77b4; stroke: #1f77b4"/>
     <use xlink:href="#m4d651e918b" x="371.905427" y="196.719434" style="fill: #1f77b4; stroke: #1f77b4"/>
     <use xlink:href="#m4d651e918b" x="373.536857" y="196.827791" style="fill: #1f77b4; stroke: #1f77b4"/>
     <use xlink:href="#m4d651e918b" x="375.168286" y="196.932209" style="fill: #1f77b4; stroke: #1f77b4"/>
     <use xlink:href="#m4d651e918b" x="376.799716" y="197.024077" style="fill: #1f77b4; stroke: #1f77b4"/>
     <use xlink:href="#m4d651e918b" x="378.431146" y="197.195078" style="fill: #1f77b4; stroke: #1f77b4"/>
     <use xlink:href="#m4d651e918b" x="380.062576" y="196.944586" style="fill: #1f77b4; stroke: #1f77b4"/>
     <use xlink:href="#m4d651e918b" x="381.694006" y="196.946302" style="fill: #1f77b4; stroke: #1f77b4"/>
     <use xlink:href="#m4d651e918b" x="383.325436" y="197.076453" style="fill: #1f77b4; stroke: #1f77b4"/>
     <use xlink:href="#m4d651e918b" x="384.956866" y="197.473161" style="fill: #1f77b4; stroke: #1f77b4"/>
     <use xlink:href="#m4d651e918b" x="386.588296" y="197.282422" style="fill: #1f77b4; stroke: #1f77b4"/>
     <use xlink:href="#m4d651e918b" x="388.219725" y="197.468447" style="fill: #1f77b4; stroke: #1f77b4"/>
     <use xlink:href="#m4d651e918b" x="389.851155" y="197.689701" style="fill: #1f77b4; stroke: #1f77b4"/>
     <use xlink:href="#m4d651e918b" x="391.482585" y="197.929043" style="fill: #1f77b4; stroke: #1f77b4"/>
    </g>
   </g>
   <g id="line2d_24">
    <path d="M 66.82804 301.904806 
L 73.32763 302.359848 
L 73.65261 192.416463 
L 92.501422 193.882184 
L 107.45048 195.256693 
L 119.799702 196.605416 
L 130.199047 197.957406 
L 138.973494 199.311698 
L 146.773003 200.734999 
L 153.597573 202.198072 
L 159.772184 203.737219 
L 165.621815 205.415939 
L 171.471447 207.328889 
L 177.646058 209.593637 
L 187.070464 213.340707 
L 192.920095 215.544872 
L 196.49487 216.666552 
L 199.419686 217.348231 
L 201.694543 217.658713 
L 203.64442 217.711528 
L 205.269317 217.555496 
L 206.894215 217.161857 
L 208.194133 216.628887 
L 209.494051 215.852459 
L 210.793969 214.777296 
L 212.093887 213.343658 
L 213.393806 211.500788 
L 214.693724 209.234501 
L 216.318621 205.908225 
L 219.893396 198.389142 
L 221.193314 196.177881 
L 222.493232 194.362177 
L 223.79315 192.912494 
L 224.11813 192.600956 
L 224.443109 302.274598 
L 225.743027 301.268646 
L 227.367925 300.322064 
L 228.992823 299.638197 
L 230.9427 299.070441 
L 233.217557 298.654658 
L 236.142372 298.380315 
L 239.717147 298.293429 
L 244.59184 298.423289 
L 251.741389 298.86102 
L 267.340407 300.102492 
L 292.36383 302.032056 
L 296.913543 302.354207 
L 297.238523 192.410182 
L 321.611987 193.999121 
L 351.510104 195.716459 
L 389.857688 197.685542 
L 391.482585 197.764911 
L 391.482585 197.764911 
" clip-path="url(#pe845ef5075)" style="fill: none; stroke: #d62728; stroke-width: 1.5; stroke-linecap: square"/>
   </g>
   <g id="patch_9">
    <path d="M 50.595313 307.872 
L 50.595313 186.912 
" style="fill: none; stroke: #000000; stroke-width: 0.8; stroke-linejoin: miter; stroke-linecap: square"/>
   </g>
   <g id="patch_10">
    <path d="M 407.715312 307.872 
L 407.715312 186.912 
" style="fill: none; stroke: #000000; stroke-width: 0.8; stroke-linejoin: miter; stroke-linecap: square"/>
   </g>
   <g id="patch_11">
    <path d="M 50.595312 307.872 
L 407.715312 307.872 
" style="fill: none; stroke: #000000; stroke-width: 0.8; stroke-linejoin: miter; stroke-linecap: square"/>
   </g>
   <g id="patch_12">
    <path d="M 50.595312 186.912 
L 407.715312 186.912 
" style="fill: none; stroke: #000000; stroke-width: 0.8; stroke-linejoin: miter; stroke-linecap: square"/>
   </g>
  </g>
  <g id="text_20">
   <!-- S21 resonator spectroscopy -->
   <g transform="translate(139.610938 16.318125) scale(0.12 -0.12)">
    <defs>
     <path id="DejaVuSans-73" d="M 2834 3397 
L 2834 2853 
Q 2591 2978 2328 3040 
Q 2066 3103 1784 3103 
Q 1356 3103 1142 2972 
Q 928 2841 928 2578 
Q 928 2378 1081 2264 
Q 1234 2150 1697 2047 
L 1894 2003 
Q 2506 1872 2764 1633 
Q 3022 1394 3022 966 
Q 3022 478 2636 193 
Q 2250 -91 1575 -91 
Q 1294 -91 989 -36 
Q 684 19 347 128 
L 347 722 
Q 666 556 975 473 
Q 1284 391 1588 391 
Q 1994 391 2212 530 
Q 2431 669 2431 922 
Q 2431 1156 2273 1281 
Q 2116 1406 1581 1522 
L 1381 1569 
Q 847 1681 609 1914 
Q 372 2147 372 2553 
Q 372 3047 722 3315 
Q 1072 3584 1716 3584 
Q 2034 3584 2315 3537 
Q 2597 3491 2834 3397 
z
" transform="scale(0.015625)"/>
     <path id="DejaVuSans-6f" d="M 1959 3097 
Q 1497 3097 1228 2736 
Q 959 2375 959 1747 
Q 959 1119 1226 758 
Q 1494 397 1959 397 
Q 2419 397 2687 759 
Q 2956 1122 2956 1747 
Q 2956 2369 2687 2733 
Q 2419 3097 1959 3097 
z
M 1959 3584 
Q 2709 3584 3137 3096 
Q 3566 2609 3566 1747 
Q 3566 888 3137 398 
Q 2709 -91 1959 -91 
Q 1206 -91 779 398 
Q 353 888 353 1747 
Q 353 2609 779 3096 
Q 1206 3584 1959 3584 
z
" transform="scale(0.015625)"/>
     <path id="DejaVuSans-74" d="M 1172 4494 
L 1172 3500 
L 2356 3500 
L 2356 3053 
L 1172 3053 
L 1172 1153 
Q 1172 725 1289 603 
Q 1406 481 1766 481 
L 2356 481 
L 2356 0 
L 1766 0 
Q 1100 0 847 248 
Q 594 497 594 1153 
L 594 3053 
L 172 3053 
L 172 3500 
L 594 3500 
L 594 4494 
L 1172 4494 
z
" transform="scale(0.015625)"/>
     <path id="DejaVuSans-70" d="M 1159 525 
L 1159 -1331 
L 581 -1331 
L 581 3500 
L 1159 3500 
L 1159 2969 
Q 1341 3281 1617 3432 
Q 1894 3584 2278 3584 
Q 2916 3584 3314 3078 
Q 3713 2572 3713 1747 
Q 3713 922 3314 415 
Q 2916 -91 2278 -91 
Q 1894 -91 1617 61 
Q 1341 213 1159 525 
z
M 3116 1747 
Q 3116 2381 2855 2742 
Q 2594 3103 2138 3103 
Q 1681 3103 1420 2742 
Q 1159 2381 1159 1747 
Q 1159 1113 1420 752 
Q 1681 391 2138 391 
Q 2594 391 2855 752 
Q 3116 1113 3116 1747 
z
" transform="scale(0.015625)"/>
    </defs>
    <use xlink:href="#DejaVuSans-53"/>
    <use xlink:href="#DejaVuSans-32" x="63.476562"/>
    <use xlink:href="#DejaVuSans-31" x="127.099609"/>
    <use xlink:href="#DejaVuSans-20" x="190.722656"/>
    <use xlink:href="#DejaVuSans-72" x="222.509766"/>
    <use xlink:href="#DejaVuSans-65" x="261.373047"/>
    <use xlink:href="#DejaVuSans-73" x="322.896484"/>
    <use xlink:href="#DejaVuSans-6f" x="374.996094"/>
    <use xlink:href="#DejaVuSans-6e" x="436.177734"/>
    <use xlink:href="#DejaVuSans-61" x="499.556641"/>
    <use xlink:href="#DejaVuSans-74" x="560.835938"/>
    <use xlink:href="#DejaVuSans-6f" x="600.044922"/>
    <use xlink:href="#DejaVuSans-72" x="661.226562"/>
    <use xlink:href="#DejaVuSans-20" x="702.339844"/>
    <use xlink:href="#DejaVuSans-73" x="734.126953"/>
    <use xlink:href="#DejaVuSans-70" x="786.226562"/>
    <use xlink:href="#DejaVuSans-65" x="849.703125"/>
    <use xlink:href="#DejaVuSans-63" x="911.226562"/>
    <use xlink:href="#DejaVuSans-74" x="966.207031"/>
    <use xlink:href="#DejaVuSans-72" x="1005.416016"/>
    <use xlink:href="#DejaVuSans-6f" x="1044.279297"/>
    <use xlink:href="#DejaVuSans-73" x="1105.460938"/>
    <use xlink:href="#DejaVuSans-63" x="1157.560547"/>
    <use xlink:href="#DejaVuSans-6f" x="1212.541016"/>
    <use xlink:href="#DejaVuSans-70" x="1273.722656"/>
    <use xlink:href="#DejaVuSans-79" x="1337.199219"/>
   </g>
   <!-- tuid: 20231227-185623-957-7d315d -->
   <g transform="translate(113.556875 29.7555) scale(0.12 -0.12)">
    <defs>
     <path id="DejaVuSans-69" d="M 603 3500 
L 1178 3500 
L 1178 0 
L 603 0 
L 603 3500 
z
M 603 4863 
L 1178 4863 
L 1178 4134 
L 603 4134 
L 603 4863 
z
" transform="scale(0.015625)"/>
    </defs>
    <use xlink:href="#DejaVuSans-74"/>
    <use xlink:href="#DejaVuSans-75" x="39.208984"/>
    <use xlink:href="#DejaVuSans-69" x="102.587891"/>
    <use xlink:href="#DejaVuSans-64" x="130.371094"/>
    <use xlink:href="#DejaVuSans-3a" x="193.847656"/>
    <use xlink:href="#DejaVuSans-20" x="227.539062"/>
    <use xlink:href="#DejaVuSans-32" x="259.326172"/>
    <use xlink:href="#DejaVuSans-30" x="322.949219"/>
    <use xlink:href="#DejaVuSans-32" x="386.572266"/>
    <use xlink:href="#DejaVuSans-33" x="450.195312"/>
    <use xlink:href="#DejaVuSans-31" x="513.818359"/>
    <use xlink:href="#DejaVuSans-32" x="577.441406"/>
    <use xlink:href="#DejaVuSans-32" x="641.064453"/>
    <use xlink:href="#DejaVuSans-37" x="704.6875"/>
    <use xlink:href="#DejaVuSans-2d" x="768.310547"/>
    <use xlink:href="#DejaVuSans-31" x="804.394531"/>
    <use xlink:href="#DejaVuSans-38" x="868.017578"/>
    <use xlink:href="#DejaVuSans-35" x="931.640625"/>
    <use xlink:href="#DejaVuSans-36" x="995.263672"/>
    <use xlink:href="#DejaVuSans-32" x="1058.886719"/>
    <use xlink:href="#DejaVuSans-33" x="1122.509766"/>
    <use xlink:href="#DejaVuSans-2d" x="1186.132812"/>
    <use xlink:href="#DejaVuSans-39" x="1222.216797"/>
    <use xlink:href="#DejaVuSans-35" x="1285.839844"/>
    <use xlink:href="#DejaVuSans-37" x="1349.462891"/>
    <use xlink:href="#DejaVuSans-2d" x="1413.085938"/>
    <use xlink:href="#DejaVuSans-37" x="1449.169922"/>
    <use xlink:href="#DejaVuSans-64" x="1512.792969"/>
    <use xlink:href="#DejaVuSans-33" x="1576.269531"/>
    <use xlink:href="#DejaVuSans-31" x="1639.892578"/>
    <use xlink:href="#DejaVuSans-35" x="1703.515625"/>
    <use xlink:href="#DejaVuSans-64" x="1767.138672"/>
   </g>
  </g>
 </g>
 <defs>
  <clipPath id="p6616085ebc">
   <rect x="50.595313" y="41.76" width="357.12" height="120.96"/>
  </clipPath>
  <clipPath id="pe845ef5075">
   <rect x="50.595313" y="186.912" width="357.12" height="120.96"/>
  </clipPath>
 </defs>
</svg>
