<?xml version="1.0" encoding="utf-8" standalone="no"?>
<!DOCTYPE svg PUBLIC "-//W3C//DTD SVG 1.1//EN"
  "http://www.w3.org/Graphics/SVG/1.1/DTD/svg11.dtd">
<svg xmlns:xlink="http://www.w3.org/1999/xlink" width="565.524437pt" height="345.42825pt" viewBox="0 0 565.524437 345.42825" xmlns="http://www.w3.org/2000/svg" version="1.1">
 <metadata>
  <rdf:RDF xmlns:dc="http://purl.org/dc/elements/1.1/" xmlns:cc="http://creativecommons.org/ns#" xmlns:rdf="http://www.w3.org/1999/02/22-rdf-syntax-ns#">
   <cc:Work>
    <dc:type rdf:resource="http://purl.org/dc/dcmitype/StillImage"/>
    <dc:date>2023-12-27T18:56:45.126975</dc:date>
    <dc:format>image/svg+xml</dc:format>
    <dc:creator>
     <cc:Agent>
      <dc:title>Matplotlib v3.8.2, https://matplotlib.org/</dc:title>
     </cc:Agent>
    </dc:creator>
   </cc:Work>
  </rdf:RDF>
 </metadata>
 <defs>
  <style type="text/css">*{stroke-linejoin: round; stroke-linecap: butt}</style>
 </defs>
 <g id="figure_1">
  <g id="patch_1">
   <path d="M 0 345.42825 
L 565.524437 345.42825 
L 565.524437 -0 
L 0 -0 
L 0 345.42825 
z
" style="fill: none; opacity: 0"/>
  </g>
  <g id="axes_1">
   <g id="patch_2">
    <path d="M 37.848438 307.872 
L 394.968438 307.872 
L 394.968438 41.76 
L 37.848438 41.76 
z
" style="fill: #ffffff"/>
   </g>
   <g id="matplotlib.axis_1">
    <g id="xtick_1">
     <g id="line2d_1">
      <defs>
       <path id="m47650161a6" d="M 0 0 
L 0 3.5 
" style="stroke: #000000; stroke-width: 0.8"/>
      </defs>
      <g>
       <use xlink:href="#m47650161a6" x="102.555235" y="307.872" style="stroke: #000000; stroke-width: 0.8"/>
      </g>
     </g>
     <g id="text_1">
      <!-- -8 -->
      <g transform="translate(97.570079 322.470438) scale(0.1 -0.1)">
       <defs>
        <path id="DejaVuSans-2d" d="M 313 2009 
L 1997 2009 
L 1997 1497 
L 313 1497 
L 313 2009 
z
" transform="scale(0.015625)"/>
        <path id="DejaVuSans-38" d="M 2034 2216 
Q 1584 2216 1326 1975 
Q 1069 1734 1069 1313 
Q 1069 891 1326 650 
Q 1584 409 2034 409 
Q 2484 409 2743 651 
Q 3003 894 3003 1313 
Q 3003 1734 2745 1975 
Q 2488 2216 2034 2216 
z
M 1403 2484 
Q 997 2584 770 2862 
Q 544 3141 544 3541 
Q 544 4100 942 4425 
Q 1341 4750 2034 4750 
Q 2731 4750 3128 4425 
Q 3525 4100 3525 3541 
Q 3525 3141 3298 2862 
Q 3072 2584 2669 2484 
Q 3125 2378 3379 2068 
Q 3634 1759 3634 1313 
Q 3634 634 3220 271 
Q 2806 -91 2034 -91 
Q 1263 -91 848 271 
Q 434 634 434 1313 
Q 434 1759 690 2068 
Q 947 2378 1403 2484 
z
M 1172 3481 
Q 1172 3119 1398 2916 
Q 1625 2713 2034 2713 
Q 2441 2713 2670 2916 
Q 2900 3119 2900 3481 
Q 2900 3844 2670 4047 
Q 2441 4250 2034 4250 
Q 1625 4250 1398 4047 
Q 1172 3844 1172 3481 
z
" transform="scale(0.015625)"/>
       </defs>
       <use xlink:href="#DejaVuSans-2d"/>
       <use xlink:href="#DejaVuSans-38" x="36.083984"/>
      </g>
     </g>
    </g>
    <g id="xtick_2">
     <g id="line2d_2">
      <g>
       <use xlink:href="#m47650161a6" x="174.075616" y="307.872" style="stroke: #000000; stroke-width: 0.8"/>
      </g>
     </g>
     <g id="text_2">
      <!-- -6 -->
      <g transform="translate(169.09046 322.470438) scale(0.1 -0.1)">
       <defs>
        <path id="DejaVuSans-36" d="M 2113 2584 
Q 1688 2584 1439 2293 
Q 1191 2003 1191 1497 
Q 1191 994 1439 701 
Q 1688 409 2113 409 
Q 2538 409 2786 701 
Q 3034 994 3034 1497 
Q 3034 2003 2786 2293 
Q 2538 2584 2113 2584 
z
M 3366 4563 
L 3366 3988 
Q 3128 4100 2886 4159 
Q 2644 4219 2406 4219 
Q 1781 4219 1451 3797 
Q 1122 3375 1075 2522 
Q 1259 2794 1537 2939 
Q 1816 3084 2150 3084 
Q 2853 3084 3261 2657 
Q 3669 2231 3669 1497 
Q 3669 778 3244 343 
Q 2819 -91 2113 -91 
Q 1303 -91 875 529 
Q 447 1150 447 2328 
Q 447 3434 972 4092 
Q 1497 4750 2381 4750 
Q 2619 4750 2861 4703 
Q 3103 4656 3366 4563 
z
" transform="scale(0.015625)"/>
       </defs>
       <use xlink:href="#DejaVuSans-2d"/>
       <use xlink:href="#DejaVuSans-36" x="36.083984"/>
      </g>
     </g>
    </g>
    <g id="xtick_3">
     <g id="line2d_3">
      <g>
       <use xlink:href="#m47650161a6" x="245.595997" y="307.872" style="stroke: #000000; stroke-width: 0.8"/>
      </g>
     </g>
     <g id="text_3">
      <!-- -4 -->
      <g transform="translate(240.610841 322.470438) scale(0.1 -0.1)">
       <defs>
        <path id="DejaVuSans-34" d="M 2419 4116 
L 825 1625 
L 2419 1625 
L 2419 4116 
z
M 2253 4666 
L 3047 4666 
L 3047 1625 
L 3713 1625 
L 3713 1100 
L 3047 1100 
L 3047 0 
L 2419 0 
L 2419 1100 
L 313 1100 
L 313 1709 
L 2253 4666 
z
" transform="scale(0.015625)"/>
       </defs>
       <use xlink:href="#DejaVuSans-2d"/>
       <use xlink:href="#DejaVuSans-34" x="36.083984"/>
      </g>
     </g>
    </g>
    <g id="xtick_4">
     <g id="line2d_4">
      <g>
       <use xlink:href="#m47650161a6" x="317.116378" y="307.872" style="stroke: #000000; stroke-width: 0.8"/>
      </g>
     </g>
     <g id="text_4">
      <!-- -2 -->
      <g transform="translate(312.131221 322.470438) scale(0.1 -0.1)">
       <defs>
        <path id="DejaVuSans-32" d="M 1228 531 
L 3431 531 
L 3431 0 
L 469 0 
L 469 531 
Q 828 903 1448 1529 
Q 2069 2156 2228 2338 
Q 2531 2678 2651 2914 
Q 2772 3150 2772 3378 
Q 2772 3750 2511 3984 
Q 2250 4219 1831 4219 
Q 1534 4219 1204 4116 
Q 875 4013 500 3803 
L 500 4441 
Q 881 4594 1212 4672 
Q 1544 4750 1819 4750 
Q 2544 4750 2975 4387 
Q 3406 4025 3406 3419 
Q 3406 3131 3298 2873 
Q 3191 2616 2906 2266 
Q 2828 2175 2409 1742 
Q 1991 1309 1228 531 
z
" transform="scale(0.015625)"/>
       </defs>
       <use xlink:href="#DejaVuSans-2d"/>
       <use xlink:href="#DejaVuSans-32" x="36.083984"/>
      </g>
     </g>
    </g>
    <g id="xtick_5">
     <g id="line2d_5">
      <g>
       <use xlink:href="#m47650161a6" x="388.636758" y="307.872" style="stroke: #000000; stroke-width: 0.8"/>
      </g>
     </g>
     <g id="text_5">
      <!-- 0 -->
      <g transform="translate(385.455508 322.470438) scale(0.1 -0.1)">
       <defs>
        <path id="DejaVuSans-30" d="M 2034 4250 
Q 1547 4250 1301 3770 
Q 1056 3291 1056 2328 
Q 1056 1369 1301 889 
Q 1547 409 2034 409 
Q 2525 409 2770 889 
Q 3016 1369 3016 2328 
Q 3016 3291 2770 3770 
Q 2525 4250 2034 4250 
z
M 2034 4750 
Q 2819 4750 3233 4129 
Q 3647 3509 3647 2328 
Q 3647 1150 3233 529 
Q 2819 -91 2034 -91 
Q 1250 -91 836 529 
Q 422 1150 422 2328 
Q 422 3509 836 4129 
Q 1250 4750 2034 4750 
z
" transform="scale(0.015625)"/>
       </defs>
       <use xlink:href="#DejaVuSans-30"/>
      </g>
     </g>
    </g>
    <g id="text_6">
     <!-- Re$(S_{21})$ [mV] -->
     <g transform="translate(184.408438 336.148562) scale(0.1 -0.1)">
      <defs>
       <path id="DejaVuSans-52" d="M 2841 2188 
Q 3044 2119 3236 1894 
Q 3428 1669 3622 1275 
L 4263 0 
L 3584 0 
L 2988 1197 
Q 2756 1666 2539 1819 
Q 2322 1972 1947 1972 
L 1259 1972 
L 1259 0 
L 628 0 
L 628 4666 
L 2053 4666 
Q 2853 4666 3247 4331 
Q 3641 3997 3641 3322 
Q 3641 2881 3436 2590 
Q 3231 2300 2841 2188 
z
M 1259 4147 
L 1259 2491 
L 2053 2491 
Q 2509 2491 2742 2702 
Q 2975 2913 2975 3322 
Q 2975 3731 2742 3939 
Q 2509 4147 2053 4147 
L 1259 4147 
z
" transform="scale(0.015625)"/>
       <path id="DejaVuSans-65" d="M 3597 1894 
L 3597 1613 
L 953 1613 
Q 991 1019 1311 708 
Q 1631 397 2203 397 
Q 2534 397 2845 478 
Q 3156 559 3463 722 
L 3463 178 
Q 3153 47 2828 -22 
Q 2503 -91 2169 -91 
Q 1331 -91 842 396 
Q 353 884 353 1716 
Q 353 2575 817 3079 
Q 1281 3584 2069 3584 
Q 2775 3584 3186 3129 
Q 3597 2675 3597 1894 
z
M 3022 2063 
Q 3016 2534 2758 2815 
Q 2500 3097 2075 3097 
Q 1594 3097 1305 2825 
Q 1016 2553 972 2059 
L 3022 2063 
z
" transform="scale(0.015625)"/>
       <path id="DejaVuSans-28" d="M 1984 4856 
Q 1566 4138 1362 3434 
Q 1159 2731 1159 2009 
Q 1159 1288 1364 580 
Q 1569 -128 1984 -844 
L 1484 -844 
Q 1016 -109 783 600 
Q 550 1309 550 2009 
Q 550 2706 781 3412 
Q 1013 4119 1484 4856 
L 1984 4856 
z
" transform="scale(0.015625)"/>
       <path id="DejaVuSans-Oblique-53" d="M 3859 4513 
L 3738 3897 
Q 3422 4066 3111 4152 
Q 2800 4238 2509 4238 
Q 1944 4238 1609 3991 
Q 1275 3744 1275 3334 
Q 1275 3109 1398 2989 
Q 1522 2869 2034 2731 
L 2413 2638 
Q 3053 2472 3303 2217 
Q 3553 1963 3553 1503 
Q 3553 797 2998 353 
Q 2444 -91 1538 -91 
Q 1166 -91 791 -17 
Q 416 56 38 206 
L 166 856 
Q 513 641 861 531 
Q 1209 422 1556 422 
Q 2147 422 2503 684 
Q 2859 947 2859 1369 
Q 2859 1650 2717 1795 
Q 2575 1941 2106 2059 
L 1728 2156 
Q 1081 2325 845 2545 
Q 609 2766 609 3163 
Q 609 3859 1145 4304 
Q 1681 4750 2541 4750 
Q 2875 4750 3203 4690 
Q 3531 4631 3859 4513 
z
" transform="scale(0.015625)"/>
       <path id="DejaVuSans-31" d="M 794 531 
L 1825 531 
L 1825 4091 
L 703 3866 
L 703 4441 
L 1819 4666 
L 2450 4666 
L 2450 531 
L 3481 531 
L 3481 0 
L 794 0 
L 794 531 
z
" transform="scale(0.015625)"/>
       <path id="DejaVuSans-29" d="M 513 4856 
L 1013 4856 
Q 1481 4119 1714 3412 
Q 1947 2706 1947 2009 
Q 1947 1309 1714 600 
Q 1481 -109 1013 -844 
L 513 -844 
Q 928 -128 1133 580 
Q 1338 1288 1338 2009 
Q 1338 2731 1133 3434 
Q 928 4138 513 4856 
z
" transform="scale(0.015625)"/>
       <path id="DejaVuSans-20" transform="scale(0.015625)"/>
       <path id="DejaVuSans-5b" d="M 550 4863 
L 1875 4863 
L 1875 4416 
L 1125 4416 
L 1125 -397 
L 1875 -397 
L 1875 -844 
L 550 -844 
L 550 4863 
z
" transform="scale(0.015625)"/>
       <path id="DejaVuSans-6d" d="M 3328 2828 
Q 3544 3216 3844 3400 
Q 4144 3584 4550 3584 
Q 5097 3584 5394 3201 
Q 5691 2819 5691 2113 
L 5691 0 
L 5113 0 
L 5113 2094 
Q 5113 2597 4934 2840 
Q 4756 3084 4391 3084 
Q 3944 3084 3684 2787 
Q 3425 2491 3425 1978 
L 3425 0 
L 2847 0 
L 2847 2094 
Q 2847 2600 2669 2842 
Q 2491 3084 2119 3084 
Q 1678 3084 1418 2786 
Q 1159 2488 1159 1978 
L 1159 0 
L 581 0 
L 581 3500 
L 1159 3500 
L 1159 2956 
Q 1356 3278 1631 3431 
Q 1906 3584 2284 3584 
Q 2666 3584 2933 3390 
Q 3200 3197 3328 2828 
z
" transform="scale(0.015625)"/>
       <path id="DejaVuSans-56" d="M 1831 0 
L 50 4666 
L 709 4666 
L 2188 738 
L 3669 4666 
L 4325 4666 
L 2547 0 
L 1831 0 
z
" transform="scale(0.015625)"/>
       <path id="DejaVuSans-5d" d="M 1947 4863 
L 1947 -844 
L 622 -844 
L 622 -397 
L 1369 -397 
L 1369 4416 
L 622 4416 
L 622 4863 
L 1947 4863 
z
" transform="scale(0.015625)"/>
      </defs>
      <use xlink:href="#DejaVuSans-52" transform="translate(0 0.015625)"/>
      <use xlink:href="#DejaVuSans-65" transform="translate(69.482422 0.015625)"/>
      <use xlink:href="#DejaVuSans-28" transform="translate(131.005859 0.015625)"/>
      <use xlink:href="#DejaVuSans-Oblique-53" transform="translate(170.019531 0.015625)"/>
      <use xlink:href="#DejaVuSans-32" transform="translate(233.496094 -16.390625) scale(0.7)"/>
      <use xlink:href="#DejaVuSans-31" transform="translate(278.032227 -16.390625) scale(0.7)"/>
      <use xlink:href="#DejaVuSans-29" transform="translate(325.302734 0.015625)"/>
      <use xlink:href="#DejaVuSans-20" transform="translate(364.316406 0.015625)"/>
      <use xlink:href="#DejaVuSans-5b" transform="translate(396.103516 0.015625)"/>
      <use xlink:href="#DejaVuSans-6d" transform="translate(435.117188 0.015625)"/>
      <use xlink:href="#DejaVuSans-56" transform="translate(532.529297 0.015625)"/>
      <use xlink:href="#DejaVuSans-5d" transform="translate(600.9375 0.015625)"/>
     </g>
    </g>
   </g>
   <g id="matplotlib.axis_2">
    <g id="ytick_1">
     <g id="line2d_6">
      <defs>
       <path id="m012c3b5c5a" d="M 0 0 
L -3.5 0 
" style="stroke: #000000; stroke-width: 0.8"/>
      </defs>
      <g>
       <use xlink:href="#m012c3b5c5a" x="37.848438" y="301.548484" style="stroke: #000000; stroke-width: 0.8"/>
      </g>
     </g>
     <g id="text_7">
      <!-- -1 -->
      <g transform="translate(20.878125 305.347703) scale(0.1 -0.1)">
       <use xlink:href="#DejaVuSans-2d"/>
       <use xlink:href="#DejaVuSans-31" x="36.083984"/>
      </g>
     </g>
    </g>
    <g id="ytick_2">
     <g id="line2d_7">
      <g>
       <use xlink:href="#m012c3b5c5a" x="37.848438" y="270.577602" style="stroke: #000000; stroke-width: 0.8"/>
      </g>
     </g>
     <g id="text_8">
      <!-- 0 -->
      <g transform="translate(24.485938 274.376821) scale(0.1 -0.1)">
       <use xlink:href="#DejaVuSans-30"/>
      </g>
     </g>
    </g>
    <g id="ytick_3">
     <g id="line2d_8">
      <g>
       <use xlink:href="#m012c3b5c5a" x="37.848438" y="239.60672" style="stroke: #000000; stroke-width: 0.8"/>
      </g>
     </g>
     <g id="text_9">
      <!-- 1 -->
      <g transform="translate(24.485938 243.405939) scale(0.1 -0.1)">
       <use xlink:href="#DejaVuSans-31"/>
      </g>
     </g>
    </g>
    <g id="ytick_4">
     <g id="line2d_9">
      <g>
       <use xlink:href="#m012c3b5c5a" x="37.848438" y="208.635838" style="stroke: #000000; stroke-width: 0.8"/>
      </g>
     </g>
     <g id="text_10">
      <!-- 2 -->
      <g transform="translate(24.485938 212.435056) scale(0.1 -0.1)">
       <use xlink:href="#DejaVuSans-32"/>
      </g>
     </g>
    </g>
    <g id="ytick_5">
     <g id="line2d_10">
      <g>
       <use xlink:href="#m012c3b5c5a" x="37.848438" y="177.664955" style="stroke: #000000; stroke-width: 0.8"/>
      </g>
     </g>
     <g id="text_11">
      <!-- 3 -->
      <g transform="translate(24.485938 181.464174) scale(0.1 -0.1)">
       <defs>
        <path id="DejaVuSans-33" d="M 2597 2516 
Q 3050 2419 3304 2112 
Q 3559 1806 3559 1356 
Q 3559 666 3084 287 
Q 2609 -91 1734 -91 
Q 1441 -91 1130 -33 
Q 819 25 488 141 
L 488 750 
Q 750 597 1062 519 
Q 1375 441 1716 441 
Q 2309 441 2620 675 
Q 2931 909 2931 1356 
Q 2931 1769 2642 2001 
Q 2353 2234 1838 2234 
L 1294 2234 
L 1294 2753 
L 1863 2753 
Q 2328 2753 2575 2939 
Q 2822 3125 2822 3475 
Q 2822 3834 2567 4026 
Q 2313 4219 1838 4219 
Q 1578 4219 1281 4162 
Q 984 4106 628 3988 
L 628 4550 
Q 988 4650 1302 4700 
Q 1616 4750 1894 4750 
Q 2613 4750 3031 4423 
Q 3450 4097 3450 3541 
Q 3450 3153 3228 2886 
Q 3006 2619 2597 2516 
z
" transform="scale(0.015625)"/>
       </defs>
       <use xlink:href="#DejaVuSans-33"/>
      </g>
     </g>
    </g>
    <g id="ytick_6">
     <g id="line2d_11">
      <g>
       <use xlink:href="#m012c3b5c5a" x="37.848438" y="146.694073" style="stroke: #000000; stroke-width: 0.8"/>
      </g>
     </g>
     <g id="text_12">
      <!-- 4 -->
      <g transform="translate(24.485938 150.493292) scale(0.1 -0.1)">
       <use xlink:href="#DejaVuSans-34"/>
      </g>
     </g>
    </g>
    <g id="ytick_7">
     <g id="line2d_12">
      <g>
       <use xlink:href="#m012c3b5c5a" x="37.848438" y="115.723191" style="stroke: #000000; stroke-width: 0.8"/>
      </g>
     </g>
     <g id="text_13">
      <!-- 5 -->
      <g transform="translate(24.485938 119.52241) scale(0.1 -0.1)">
       <defs>
        <path id="DejaVuSans-35" d="M 691 4666 
L 3169 4666 
L 3169 4134 
L 1269 4134 
L 1269 2991 
Q 1406 3038 1543 3061 
Q 1681 3084 1819 3084 
Q 2600 3084 3056 2656 
Q 3513 2228 3513 1497 
Q 3513 744 3044 326 
Q 2575 -91 1722 -91 
Q 1428 -91 1123 -41 
Q 819 9 494 109 
L 494 744 
Q 775 591 1075 516 
Q 1375 441 1709 441 
Q 2250 441 2565 725 
Q 2881 1009 2881 1497 
Q 2881 1984 2565 2268 
Q 2250 2553 1709 2553 
Q 1456 2553 1204 2497 
Q 953 2441 691 2322 
L 691 4666 
z
" transform="scale(0.015625)"/>
       </defs>
       <use xlink:href="#DejaVuSans-35"/>
      </g>
     </g>
    </g>
    <g id="ytick_8">
     <g id="line2d_13">
      <g>
       <use xlink:href="#m012c3b5c5a" x="37.848438" y="84.752309" style="stroke: #000000; stroke-width: 0.8"/>
      </g>
     </g>
     <g id="text_14">
      <!-- 6 -->
      <g transform="translate(24.485938 88.551527) scale(0.1 -0.1)">
       <use xlink:href="#DejaVuSans-36"/>
      </g>
     </g>
    </g>
    <g id="ytick_9">
     <g id="line2d_14">
      <g>
       <use xlink:href="#m012c3b5c5a" x="37.848438" y="53.781426" style="stroke: #000000; stroke-width: 0.8"/>
      </g>
     </g>
     <g id="text_15">
      <!-- 7 -->
      <g transform="translate(24.485938 57.580645) scale(0.1 -0.1)">
       <defs>
        <path id="DejaVuSans-37" d="M 525 4666 
L 3525 4666 
L 3525 4397 
L 1831 0 
L 1172 0 
L 2766 4134 
L 525 4134 
L 525 4666 
z
" transform="scale(0.015625)"/>
       </defs>
       <use xlink:href="#DejaVuSans-37"/>
      </g>
     </g>
    </g>
    <g id="text_16">
     <!-- Im$(S_{21})$ [mV] -->
     <g transform="translate(14.798438 206.466) rotate(-90) scale(0.1 -0.1)">
      <defs>
       <path id="DejaVuSans-49" d="M 628 4666 
L 1259 4666 
L 1259 0 
L 628 0 
L 628 4666 
z
" transform="scale(0.015625)"/>
      </defs>
      <use xlink:href="#DejaVuSans-49" transform="translate(0 0.015625)"/>
      <use xlink:href="#DejaVuSans-6d" transform="translate(25.867188 0.015625)"/>
      <use xlink:href="#DejaVuSans-28" transform="translate(123.279297 0.015625)"/>
      <use xlink:href="#DejaVuSans-Oblique-53" transform="translate(162.292969 0.015625)"/>
      <use xlink:href="#DejaVuSans-32" transform="translate(225.769531 -16.390625) scale(0.7)"/>
      <use xlink:href="#DejaVuSans-31" transform="translate(270.305664 -16.390625) scale(0.7)"/>
      <use xlink:href="#DejaVuSans-29" transform="translate(317.576172 0.015625)"/>
      <use xlink:href="#DejaVuSans-20" transform="translate(356.589844 0.015625)"/>
      <use xlink:href="#DejaVuSans-5b" transform="translate(388.376953 0.015625)"/>
      <use xlink:href="#DejaVuSans-6d" transform="translate(427.390625 0.015625)"/>
      <use xlink:href="#DejaVuSans-56" transform="translate(524.802734 0.015625)"/>
      <use xlink:href="#DejaVuSans-5d" transform="translate(593.210938 0.015625)"/>
     </g>
    </g>
   </g>
   <g id="line2d_15">
    <path d="M 70.710051 274.989343 
L 73.768816 275.840315 
L 71.029162 273.302932 
L 68.71693 274.988839 
L 67.124754 270.186276 
L 69.020046 265.901323 
L 69.281934 268.43558 
L 67.412536 264.754007 
L 70.646074 263.887064 
L 69.734434 263.394402 
L 65.562665 259.871222 
L 67.006039 257.225509 
L 65.990591 257.65708 
L 65.398567 253.13711 
L 64.457268 252.450684 
L 66.074096 249.417377 
L 66.556527 246.254961 
L 64.370348 246.349909 
L 60.349864 240.115252 
L 64.051082 238.601826 
L 62.659262 238.499246 
L 65.69388 234.738829 
L 62.447764 231.094644 
L 57.865615 230.975623 
L 60.054163 227.407692 
L 60.72018 223.707829 
L 60.632405 222.276441 
L 57.848767 217.496035 
L 59.742972 217.242794 
L 54.081165 214.55112 
L 54.953828 212.302247 
L 59.913552 205.774876 
L 61.324277 206.286267 
L 58.711297 201.923681 
L 61.20102 196.397237 
L 58.906646 193.372335 
L 60.194346 191.729263 
L 61.972553 187.128465 
L 59.676044 181.416361 
L 57.866042 179.663647 
L 65.209003 174.122477 
L 63.213979 173.733101 
L 64.869861 167.247993 
L 67.750397 160.494381 
L 64.208191 158.317123 
L 63.52486 153.858075 
L 66.27783 148.273566 
L 74.693422 143.309719 
L 73.166116 137.036026 
L 78.38571 130.48344 
L 81.992087 129.165895 
L 85.43759 121.82289 
L 86.131791 117.097187 
L 94.666098 112.485159 
L 95.302806 106.604205 
L 100.003282 99.99863 
L 110.170372 99.019726 
L 116.343727 92.576983 
L 125.243691 87.207453 
L 133.762004 79.144567 
L 137.900077 77.05681 
L 149.450562 73.389863 
L 157.368815 65.71205 
L 167.922255 61.167905 
L 185.13214 64.753756 
L 198.491889 58.559546 
L 206.729719 59.862297 
L 220.85774 57.455333 
L 227.76206 58.503397 
L 241.135048 53.856 
L 256.665992 62.226998 
L 271.671218 65.709999 
L 281.956752 68.290855 
L 292.822974 75.757186 
L 305.95461 76.468459 
L 315.583055 89.244608 
L 330.180348 97.391044 
L 339.036095 105.425957 
L 350.007717 105.717493 
L 354.41847 115.986989 
L 364.579349 127.019468 
L 369.312979 139.430886 
L 368.144071 149.524909 
L 370.434719 158.469161 
L 378.73571 170.309039 
L 375.066598 182.733132 
L 377.884865 195.19747 
L 370.721452 203.159826 
L 372.063231 211.563774 
L 367.15312 218.322698 
L 363.381054 228.861406 
L 357.741763 238.276634 
L 351.627766 242.527797 
L 350.706499 251.724113 
L 343.517891 253.751686 
L 339.741011 257.092803 
L 336.068638 266.388338 
L 328.547953 266.449126 
L 322.171874 273.79741 
L 317.950025 273.854131 
L 312.963941 278.038184 
L 309.500697 280.266043 
L 300.664283 283.243336 
L 301.395248 284.24591 
L 293.213593 290.930026 
L 286.464287 288.322238 
L 282.779452 288.980422 
L 275.948737 291.743543 
L 274.582268 289.591837 
L 264.097387 294.400419 
L 258.175633 292.111065 
L 258.669362 293.76382 
L 256.064418 293.931325 
L 246.511907 288.870478 
L 244.770735 293.340419 
L 242.246616 292.220303 
L 238.304862 295.06758 
L 233.611024 293.371553 
L 232.626401 291.419562 
L 230.062102 288.985869 
L 226.849994 289.314523 
L 225.380105 290.434841 
L 219.346235 289.142278 
L 218.302681 291.027328 
L 210.859406 287.443192 
L 216.65767 285.48303 
L 208.146655 286.943535 
L 204.882254 283.641857 
L 202.231268 284.488123 
L 203.212514 282.819598 
L 203.501771 281.66539 
L 200.221065 281.683983 
L 195.19251 278.359475 
L 198.122932 279.435513 
L 192.378164 277.464189 
L 191.734663 280.574357 
L 189.851095 276.458892 
L 192.835944 276.608376 
L 186.787051 270.485074 
L 186.015673 273.184381 
L 181.162551 271.388396 
L 183.747774 270.583082 
L 181.51299 268.552349 
L 180.204559 266.33898 
L 180.554416 265.289504 
L 177.626712 266.278898 
L 176.383345 264.01234 
L 176.774819 264.016408 
L 173.473033 262.534721 
L 177.164467 262.670924 
L 173.443218 260.696608 
L 173.356569 258.377263 
L 171.18883 257.766991 
L 170.139763 257.725737 
L 163.121464 254.958379 
L 164.441192 254.46417 
L 165.463123 251.196282 
L 165.645427 247.941977 
L 165.859177 249.196279 
L 162.238164 249.977821 
L 162.058577 248.274465 
L 160.273499 246.725635 
L 160.421951 246.839546 
L 163.264637 243.507676 
L 157.001799 239.076636 
L 160.67328 240.906344 
L 156.746744 243.127075 
L 157.193615 238.893968 
L 158.089221 239.530263 
L 155.581679 237.568925 
L 152.044404 235.753776 
L 157.008127 233.662859 
L 154.454233 234.425204 
L 152.020102 232.883804 
L 154.00775 234.119344 
L 155.473523 229.078066 
L 154.759795 231.323307 
L 152.336573 227.433514 
L 150.973753 224.406965 
L 153.058726 226.871926 
L 151.880734 226.46853 
L 150.917617 223.860002 
L 154.047309 221.219702 
L 146.418973 222.974366 
L 150.59443 217.05125 
L 151.279121 218.883009 
L 152.054459 217.700961 
L 149.125512 215.724291 
L 147.567266 214.193214 
L 152.043006 213.086244 
L 147.171134 215.118423 
L 148.666994 215.440186 
L 145.360783 213.000071 
L 145.40764 207.846864 
L 148.512602 211.107221 
L 149.710626 209.017312 
L 143.585177 204.507429 
L 149.113633 202.872695 
L 149.113633 202.872695 
" clip-path="url(#pbfcab5f8bd)" style="fill: none; stroke: #1f77b4; stroke-width: 1.5; stroke-linecap: square"/>
    <defs>
     <path id="m1de0956d85" d="M 0 1.5 
C 0.397805 1.5 0.77937 1.341951 1.06066 1.06066 
C 1.341951 0.77937 1.5 0.397805 1.5 0 
C 1.5 -0.397805 1.341951 -0.77937 1.06066 -1.06066 
C 0.77937 -1.341951 0.397805 -1.5 0 -1.5 
C -0.397805 -1.5 -0.77937 -1.341951 -1.06066 -1.06066 
C -1.341951 -0.77937 -1.5 -0.397805 -1.5 0 
C -1.5 0.397805 -1.341951 0.77937 -1.06066 1.06066 
C -0.77937 1.341951 -0.397805 1.5 0 1.5 
z
" style="stroke: #1f77b4"/>
    </defs>
    <g clip-path="url(#pbfcab5f8bd)">
     <use xlink:href="#m1de0956d85" x="70.710051" y="274.989343" style="fill: #1f77b4; stroke: #1f77b4"/>
     <use xlink:href="#m1de0956d85" x="73.768816" y="275.840315" style="fill: #1f77b4; stroke: #1f77b4"/>
     <use xlink:href="#m1de0956d85" x="71.029162" y="273.302932" style="fill: #1f77b4; stroke: #1f77b4"/>
     <use xlink:href="#m1de0956d85" x="68.71693" y="274.988839" style="fill: #1f77b4; stroke: #1f77b4"/>
     <use xlink:href="#m1de0956d85" x="67.124754" y="270.186276" style="fill: #1f77b4; stroke: #1f77b4"/>
     <use xlink:href="#m1de0956d85" x="69.020046" y="265.901323" style="fill: #1f77b4; stroke: #1f77b4"/>
     <use xlink:href="#m1de0956d85" x="69.281934" y="268.43558" style="fill: #1f77b4; stroke: #1f77b4"/>
     <use xlink:href="#m1de0956d85" x="67.412536" y="264.754007" style="fill: #1f77b4; stroke: #1f77b4"/>
     <use xlink:href="#m1de0956d85" x="70.646074" y="263.887064" style="fill: #1f77b4; stroke: #1f77b4"/>
     <use xlink:href="#m1de0956d85" x="69.734434" y="263.394402" style="fill: #1f77b4; stroke: #1f77b4"/>
     <use xlink:href="#m1de0956d85" x="65.562665" y="259.871222" style="fill: #1f77b4; stroke: #1f77b4"/>
     <use xlink:href="#m1de0956d85" x="67.006039" y="257.225509" style="fill: #1f77b4; stroke: #1f77b4"/>
     <use xlink:href="#m1de0956d85" x="65.990591" y="257.65708" style="fill: #1f77b4; stroke: #1f77b4"/>
     <use xlink:href="#m1de0956d85" x="65.398567" y="253.13711" style="fill: #1f77b4; stroke: #1f77b4"/>
     <use xlink:href="#m1de0956d85" x="64.457268" y="252.450684" style="fill: #1f77b4; stroke: #1f77b4"/>
     <use xlink:href="#m1de0956d85" x="66.074096" y="249.417377" style="fill: #1f77b4; stroke: #1f77b4"/>
     <use xlink:href="#m1de0956d85" x="66.556527" y="246.254961" style="fill: #1f77b4; stroke: #1f77b4"/>
     <use xlink:href="#m1de0956d85" x="64.370348" y="246.349909" style="fill: #1f77b4; stroke: #1f77b4"/>
     <use xlink:href="#m1de0956d85" x="60.349864" y="240.115252" style="fill: #1f77b4; stroke: #1f77b4"/>
     <use xlink:href="#m1de0956d85" x="64.051082" y="238.601826" style="fill: #1f77b4; stroke: #1f77b4"/>
     <use xlink:href="#m1de0956d85" x="62.659262" y="238.499246" style="fill: #1f77b4; stroke: #1f77b4"/>
     <use xlink:href="#m1de0956d85" x="65.69388" y="234.738829" style="fill: #1f77b4; stroke: #1f77b4"/>
     <use xlink:href="#m1de0956d85" x="62.447764" y="231.094644" style="fill: #1f77b4; stroke: #1f77b4"/>
     <use xlink:href="#m1de0956d85" x="57.865615" y="230.975623" style="fill: #1f77b4; stroke: #1f77b4"/>
     <use xlink:href="#m1de0956d85" x="60.054163" y="227.407692" style="fill: #1f77b4; stroke: #1f77b4"/>
     <use xlink:href="#m1de0956d85" x="60.72018" y="223.707829" style="fill: #1f77b4; stroke: #1f77b4"/>
     <use xlink:href="#m1de0956d85" x="60.632405" y="222.276441" style="fill: #1f77b4; stroke: #1f77b4"/>
     <use xlink:href="#m1de0956d85" x="57.848767" y="217.496035" style="fill: #1f77b4; stroke: #1f77b4"/>
     <use xlink:href="#m1de0956d85" x="59.742972" y="217.242794" style="fill: #1f77b4; stroke: #1f77b4"/>
     <use xlink:href="#m1de0956d85" x="54.081165" y="214.55112" style="fill: #1f77b4; stroke: #1f77b4"/>
     <use xlink:href="#m1de0956d85" x="54.953828" y="212.302247" style="fill: #1f77b4; stroke: #1f77b4"/>
     <use xlink:href="#m1de0956d85" x="59.913552" y="205.774876" style="fill: #1f77b4; stroke: #1f77b4"/>
     <use xlink:href="#m1de0956d85" x="61.324277" y="206.286267" style="fill: #1f77b4; stroke: #1f77b4"/>
     <use xlink:href="#m1de0956d85" x="58.711297" y="201.923681" style="fill: #1f77b4; stroke: #1f77b4"/>
     <use xlink:href="#m1de0956d85" x="61.20102" y="196.397237" style="fill: #1f77b4; stroke: #1f77b4"/>
     <use xlink:href="#m1de0956d85" x="58.906646" y="193.372335" style="fill: #1f77b4; stroke: #1f77b4"/>
     <use xlink:href="#m1de0956d85" x="60.194346" y="191.729263" style="fill: #1f77b4; stroke: #1f77b4"/>
     <use xlink:href="#m1de0956d85" x="61.972553" y="187.128465" style="fill: #1f77b4; stroke: #1f77b4"/>
     <use xlink:href="#m1de0956d85" x="59.676044" y="181.416361" style="fill: #1f77b4; stroke: #1f77b4"/>
     <use xlink:href="#m1de0956d85" x="57.866042" y="179.663647" style="fill: #1f77b4; stroke: #1f77b4"/>
     <use xlink:href="#m1de0956d85" x="65.209003" y="174.122477" style="fill: #1f77b4; stroke: #1f77b4"/>
     <use xlink:href="#m1de0956d85" x="63.213979" y="173.733101" style="fill: #1f77b4; stroke: #1f77b4"/>
     <use xlink:href="#m1de0956d85" x="64.869861" y="167.247993" style="fill: #1f77b4; stroke: #1f77b4"/>
     <use xlink:href="#m1de0956d85" x="67.750397" y="160.494381" style="fill: #1f77b4; stroke: #1f77b4"/>
     <use xlink:href="#m1de0956d85" x="64.208191" y="158.317123" style="fill: #1f77b4; stroke: #1f77b4"/>
     <use xlink:href="#m1de0956d85" x="63.52486" y="153.858075" style="fill: #1f77b4; stroke: #1f77b4"/>
     <use xlink:href="#m1de0956d85" x="66.27783" y="148.273566" style="fill: #1f77b4; stroke: #1f77b4"/>
     <use xlink:href="#m1de0956d85" x="74.693422" y="143.309719" style="fill: #1f77b4; stroke: #1f77b4"/>
     <use xlink:href="#m1de0956d85" x="73.166116" y="137.036026" style="fill: #1f77b4; stroke: #1f77b4"/>
     <use xlink:href="#m1de0956d85" x="78.38571" y="130.48344" style="fill: #1f77b4; stroke: #1f77b4"/>
     <use xlink:href="#m1de0956d85" x="81.992087" y="129.165895" style="fill: #1f77b4; stroke: #1f77b4"/>
     <use xlink:href="#m1de0956d85" x="85.43759" y="121.82289" style="fill: #1f77b4; stroke: #1f77b4"/>
     <use xlink:href="#m1de0956d85" x="86.131791" y="117.097187" style="fill: #1f77b4; stroke: #1f77b4"/>
     <use xlink:href="#m1de0956d85" x="94.666098" y="112.485159" style="fill: #1f77b4; stroke: #1f77b4"/>
     <use xlink:href="#m1de0956d85" x="95.302806" y="106.604205" style="fill: #1f77b4; stroke: #1f77b4"/>
     <use xlink:href="#m1de0956d85" x="100.003282" y="99.99863" style="fill: #1f77b4; stroke: #1f77b4"/>
     <use xlink:href="#m1de0956d85" x="110.170372" y="99.019726" style="fill: #1f77b4; stroke: #1f77b4"/>
     <use xlink:href="#m1de0956d85" x="116.343727" y="92.576983" style="fill: #1f77b4; stroke: #1f77b4"/>
     <use xlink:href="#m1de0956d85" x="125.243691" y="87.207453" style="fill: #1f77b4; stroke: #1f77b4"/>
     <use xlink:href="#m1de0956d85" x="133.762004" y="79.144567" style="fill: #1f77b4; stroke: #1f77b4"/>
     <use xlink:href="#m1de0956d85" x="137.900077" y="77.05681" style="fill: #1f77b4; stroke: #1f77b4"/>
     <use xlink:href="#m1de0956d85" x="149.450562" y="73.389863" style="fill: #1f77b4; stroke: #1f77b4"/>
     <use xlink:href="#m1de0956d85" x="157.368815" y="65.71205" style="fill: #1f77b4; stroke: #1f77b4"/>
     <use xlink:href="#m1de0956d85" x="167.922255" y="61.167905" style="fill: #1f77b4; stroke: #1f77b4"/>
     <use xlink:href="#m1de0956d85" x="185.13214" y="64.753756" style="fill: #1f77b4; stroke: #1f77b4"/>
     <use xlink:href="#m1de0956d85" x="198.491889" y="58.559546" style="fill: #1f77b4; stroke: #1f77b4"/>
     <use xlink:href="#m1de0956d85" x="206.729719" y="59.862297" style="fill: #1f77b4; stroke: #1f77b4"/>
     <use xlink:href="#m1de0956d85" x="220.85774" y="57.455333" style="fill: #1f77b4; stroke: #1f77b4"/>
     <use xlink:href="#m1de0956d85" x="227.76206" y="58.503397" style="fill: #1f77b4; stroke: #1f77b4"/>
     <use xlink:href="#m1de0956d85" x="241.135048" y="53.856" style="fill: #1f77b4; stroke: #1f77b4"/>
     <use xlink:href="#m1de0956d85" x="256.665992" y="62.226998" style="fill: #1f77b4; stroke: #1f77b4"/>
     <use xlink:href="#m1de0956d85" x="271.671218" y="65.709999" style="fill: #1f77b4; stroke: #1f77b4"/>
     <use xlink:href="#m1de0956d85" x="281.956752" y="68.290855" style="fill: #1f77b4; stroke: #1f77b4"/>
     <use xlink:href="#m1de0956d85" x="292.822974" y="75.757186" style="fill: #1f77b4; stroke: #1f77b4"/>
     <use xlink:href="#m1de0956d85" x="305.95461" y="76.468459" style="fill: #1f77b4; stroke: #1f77b4"/>
     <use xlink:href="#m1de0956d85" x="315.583055" y="89.244608" style="fill: #1f77b4; stroke: #1f77b4"/>
     <use xlink:href="#m1de0956d85" x="330.180348" y="97.391044" style="fill: #1f77b4; stroke: #1f77b4"/>
     <use xlink:href="#m1de0956d85" x="339.036095" y="105.425957" style="fill: #1f77b4; stroke: #1f77b4"/>
     <use xlink:href="#m1de0956d85" x="350.007717" y="105.717493" style="fill: #1f77b4; stroke: #1f77b4"/>
     <use xlink:href="#m1de0956d85" x="354.41847" y="115.986989" style="fill: #1f77b4; stroke: #1f77b4"/>
     <use xlink:href="#m1de0956d85" x="364.579349" y="127.019468" style="fill: #1f77b4; stroke: #1f77b4"/>
     <use xlink:href="#m1de0956d85" x="369.312979" y="139.430886" style="fill: #1f77b4; stroke: #1f77b4"/>
     <use xlink:href="#m1de0956d85" x="368.144071" y="149.524909" style="fill: #1f77b4; stroke: #1f77b4"/>
     <use xlink:href="#m1de0956d85" x="370.434719" y="158.469161" style="fill: #1f77b4; stroke: #1f77b4"/>
     <use xlink:href="#m1de0956d85" x="378.73571" y="170.309039" style="fill: #1f77b4; stroke: #1f77b4"/>
     <use xlink:href="#m1de0956d85" x="375.066598" y="182.733132" style="fill: #1f77b4; stroke: #1f77b4"/>
     <use xlink:href="#m1de0956d85" x="377.884865" y="195.19747" style="fill: #1f77b4; stroke: #1f77b4"/>
     <use xlink:href="#m1de0956d85" x="370.721452" y="203.159826" style="fill: #1f77b4; stroke: #1f77b4"/>
     <use xlink:href="#m1de0956d85" x="372.063231" y="211.563774" style="fill: #1f77b4; stroke: #1f77b4"/>
     <use xlink:href="#m1de0956d85" x="367.15312" y="218.322698" style="fill: #1f77b4; stroke: #1f77b4"/>
     <use xlink:href="#m1de0956d85" x="363.381054" y="228.861406" style="fill: #1f77b4; stroke: #1f77b4"/>
     <use xlink:href="#m1de0956d85" x="357.741763" y="238.276634" style="fill: #1f77b4; stroke: #1f77b4"/>
     <use xlink:href="#m1de0956d85" x="351.627766" y="242.527797" style="fill: #1f77b4; stroke: #1f77b4"/>
     <use xlink:href="#m1de0956d85" x="350.706499" y="251.724113" style="fill: #1f77b4; stroke: #1f77b4"/>
     <use xlink:href="#m1de0956d85" x="343.517891" y="253.751686" style="fill: #1f77b4; stroke: #1f77b4"/>
     <use xlink:href="#m1de0956d85" x="339.741011" y="257.092803" style="fill: #1f77b4; stroke: #1f77b4"/>
     <use xlink:href="#m1de0956d85" x="336.068638" y="266.388338" style="fill: #1f77b4; stroke: #1f77b4"/>
     <use xlink:href="#m1de0956d85" x="328.547953" y="266.449126" style="fill: #1f77b4; stroke: #1f77b4"/>
     <use xlink:href="#m1de0956d85" x="322.171874" y="273.79741" style="fill: #1f77b4; stroke: #1f77b4"/>
     <use xlink:href="#m1de0956d85" x="317.950025" y="273.854131" style="fill: #1f77b4; stroke: #1f77b4"/>
     <use xlink:href="#m1de0956d85" x="312.963941" y="278.038184" style="fill: #1f77b4; stroke: #1f77b4"/>
     <use xlink:href="#m1de0956d85" x="309.500697" y="280.266043" style="fill: #1f77b4; stroke: #1f77b4"/>
     <use xlink:href="#m1de0956d85" x="300.664283" y="283.243336" style="fill: #1f77b4; stroke: #1f77b4"/>
     <use xlink:href="#m1de0956d85" x="301.395248" y="284.24591" style="fill: #1f77b4; stroke: #1f77b4"/>
     <use xlink:href="#m1de0956d85" x="293.213593" y="290.930026" style="fill: #1f77b4; stroke: #1f77b4"/>
     <use xlink:href="#m1de0956d85" x="286.464287" y="288.322238" style="fill: #1f77b4; stroke: #1f77b4"/>
     <use xlink:href="#m1de0956d85" x="282.779452" y="288.980422" style="fill: #1f77b4; stroke: #1f77b4"/>
     <use xlink:href="#m1de0956d85" x="275.948737" y="291.743543" style="fill: #1f77b4; stroke: #1f77b4"/>
     <use xlink:href="#m1de0956d85" x="274.582268" y="289.591837" style="fill: #1f77b4; stroke: #1f77b4"/>
     <use xlink:href="#m1de0956d85" x="264.097387" y="294.400419" style="fill: #1f77b4; stroke: #1f77b4"/>
     <use xlink:href="#m1de0956d85" x="258.175633" y="292.111065" style="fill: #1f77b4; stroke: #1f77b4"/>
     <use xlink:href="#m1de0956d85" x="258.669362" y="293.76382" style="fill: #1f77b4; stroke: #1f77b4"/>
     <use xlink:href="#m1de0956d85" x="256.064418" y="293.931325" style="fill: #1f77b4; stroke: #1f77b4"/>
     <use xlink:href="#m1de0956d85" x="246.511907" y="288.870478" style="fill: #1f77b4; stroke: #1f77b4"/>
     <use xlink:href="#m1de0956d85" x="244.770735" y="293.340419" style="fill: #1f77b4; stroke: #1f77b4"/>
     <use xlink:href="#m1de0956d85" x="242.246616" y="292.220303" style="fill: #1f77b4; stroke: #1f77b4"/>
     <use xlink:href="#m1de0956d85" x="238.304862" y="295.06758" style="fill: #1f77b4; stroke: #1f77b4"/>
     <use xlink:href="#m1de0956d85" x="233.611024" y="293.371553" style="fill: #1f77b4; stroke: #1f77b4"/>
     <use xlink:href="#m1de0956d85" x="232.626401" y="291.419562" style="fill: #1f77b4; stroke: #1f77b4"/>
     <use xlink:href="#m1de0956d85" x="230.062102" y="288.985869" style="fill: #1f77b4; stroke: #1f77b4"/>
     <use xlink:href="#m1de0956d85" x="226.849994" y="289.314523" style="fill: #1f77b4; stroke: #1f77b4"/>
     <use xlink:href="#m1de0956d85" x="225.380105" y="290.434841" style="fill: #1f77b4; stroke: #1f77b4"/>
     <use xlink:href="#m1de0956d85" x="219.346235" y="289.142278" style="fill: #1f77b4; stroke: #1f77b4"/>
     <use xlink:href="#m1de0956d85" x="218.302681" y="291.027328" style="fill: #1f77b4; stroke: #1f77b4"/>
     <use xlink:href="#m1de0956d85" x="210.859406" y="287.443192" style="fill: #1f77b4; stroke: #1f77b4"/>
     <use xlink:href="#m1de0956d85" x="216.65767" y="285.48303" style="fill: #1f77b4; stroke: #1f77b4"/>
     <use xlink:href="#m1de0956d85" x="208.146655" y="286.943535" style="fill: #1f77b4; stroke: #1f77b4"/>
     <use xlink:href="#m1de0956d85" x="204.882254" y="283.641857" style="fill: #1f77b4; stroke: #1f77b4"/>
     <use xlink:href="#m1de0956d85" x="202.231268" y="284.488123" style="fill: #1f77b4; stroke: #1f77b4"/>
     <use xlink:href="#m1de0956d85" x="203.212514" y="282.819598" style="fill: #1f77b4; stroke: #1f77b4"/>
     <use xlink:href="#m1de0956d85" x="203.501771" y="281.66539" style="fill: #1f77b4; stroke: #1f77b4"/>
     <use xlink:href="#m1de0956d85" x="200.221065" y="281.683983" style="fill: #1f77b4; stroke: #1f77b4"/>
     <use xlink:href="#m1de0956d85" x="195.19251" y="278.359475" style="fill: #1f77b4; stroke: #1f77b4"/>
     <use xlink:href="#m1de0956d85" x="198.122932" y="279.435513" style="fill: #1f77b4; stroke: #1f77b4"/>
     <use xlink:href="#m1de0956d85" x="192.378164" y="277.464189" style="fill: #1f77b4; stroke: #1f77b4"/>
     <use xlink:href="#m1de0956d85" x="191.734663" y="280.574357" style="fill: #1f77b4; stroke: #1f77b4"/>
     <use xlink:href="#m1de0956d85" x="189.851095" y="276.458892" style="fill: #1f77b4; stroke: #1f77b4"/>
     <use xlink:href="#m1de0956d85" x="192.835944" y="276.608376" style="fill: #1f77b4; stroke: #1f77b4"/>
     <use xlink:href="#m1de0956d85" x="186.787051" y="270.485074" style="fill: #1f77b4; stroke: #1f77b4"/>
     <use xlink:href="#m1de0956d85" x="186.015673" y="273.184381" style="fill: #1f77b4; stroke: #1f77b4"/>
     <use xlink:href="#m1de0956d85" x="181.162551" y="271.388396" style="fill: #1f77b4; stroke: #1f77b4"/>
     <use xlink:href="#m1de0956d85" x="183.747774" y="270.583082" style="fill: #1f77b4; stroke: #1f77b4"/>
     <use xlink:href="#m1de0956d85" x="181.51299" y="268.552349" style="fill: #1f77b4; stroke: #1f77b4"/>
     <use xlink:href="#m1de0956d85" x="180.204559" y="266.33898" style="fill: #1f77b4; stroke: #1f77b4"/>
     <use xlink:href="#m1de0956d85" x="180.554416" y="265.289504" style="fill: #1f77b4; stroke: #1f77b4"/>
     <use xlink:href="#m1de0956d85" x="177.626712" y="266.278898" style="fill: #1f77b4; stroke: #1f77b4"/>
     <use xlink:href="#m1de0956d85" x="176.383345" y="264.01234" style="fill: #1f77b4; stroke: #1f77b4"/>
     <use xlink:href="#m1de0956d85" x="176.774819" y="264.016408" style="fill: #1f77b4; stroke: #1f77b4"/>
     <use xlink:href="#m1de0956d85" x="173.473033" y="262.534721" style="fill: #1f77b4; stroke: #1f77b4"/>
     <use xlink:href="#m1de0956d85" x="177.164467" y="262.670924" style="fill: #1f77b4; stroke: #1f77b4"/>
     <use xlink:href="#m1de0956d85" x="173.443218" y="260.696608" style="fill: #1f77b4; stroke: #1f77b4"/>
     <use xlink:href="#m1de0956d85" x="173.356569" y="258.377263" style="fill: #1f77b4; stroke: #1f77b4"/>
     <use xlink:href="#m1de0956d85" x="171.18883" y="257.766991" style="fill: #1f77b4; stroke: #1f77b4"/>
     <use xlink:href="#m1de0956d85" x="170.139763" y="257.725737" style="fill: #1f77b4; stroke: #1f77b4"/>
     <use xlink:href="#m1de0956d85" x="166.391843" y="256.281471" style="fill: #1f77b4; stroke: #1f77b4"/>
     <use xlink:href="#m1de0956d85" x="163.121464" y="254.958379" style="fill: #1f77b4; stroke: #1f77b4"/>
     <use xlink:href="#m1de0956d85" x="164.441192" y="254.46417" style="fill: #1f77b4; stroke: #1f77b4"/>
     <use xlink:href="#m1de0956d85" x="165.463123" y="251.196282" style="fill: #1f77b4; stroke: #1f77b4"/>
     <use xlink:href="#m1de0956d85" x="165.645427" y="247.941977" style="fill: #1f77b4; stroke: #1f77b4"/>
     <use xlink:href="#m1de0956d85" x="165.859177" y="249.196279" style="fill: #1f77b4; stroke: #1f77b4"/>
     <use xlink:href="#m1de0956d85" x="162.238164" y="249.977821" style="fill: #1f77b4; stroke: #1f77b4"/>
     <use xlink:href="#m1de0956d85" x="162.058577" y="248.274465" style="fill: #1f77b4; stroke: #1f77b4"/>
     <use xlink:href="#m1de0956d85" x="160.273499" y="246.725635" style="fill: #1f77b4; stroke: #1f77b4"/>
     <use xlink:href="#m1de0956d85" x="160.421951" y="246.839546" style="fill: #1f77b4; stroke: #1f77b4"/>
     <use xlink:href="#m1de0956d85" x="163.264637" y="243.507676" style="fill: #1f77b4; stroke: #1f77b4"/>
     <use xlink:href="#m1de0956d85" x="157.001799" y="239.076636" style="fill: #1f77b4; stroke: #1f77b4"/>
     <use xlink:href="#m1de0956d85" x="160.67328" y="240.906344" style="fill: #1f77b4; stroke: #1f77b4"/>
     <use xlink:href="#m1de0956d85" x="156.746744" y="243.127075" style="fill: #1f77b4; stroke: #1f77b4"/>
     <use xlink:href="#m1de0956d85" x="157.222032" y="238.969415" style="fill: #1f77b4; stroke: #1f77b4"/>
     <use xlink:href="#m1de0956d85" x="157.193615" y="238.893968" style="fill: #1f77b4; stroke: #1f77b4"/>
     <use xlink:href="#m1de0956d85" x="158.089221" y="239.530263" style="fill: #1f77b4; stroke: #1f77b4"/>
     <use xlink:href="#m1de0956d85" x="155.581679" y="237.568925" style="fill: #1f77b4; stroke: #1f77b4"/>
     <use xlink:href="#m1de0956d85" x="152.044404" y="235.753776" style="fill: #1f77b4; stroke: #1f77b4"/>
     <use xlink:href="#m1de0956d85" x="157.008127" y="233.662859" style="fill: #1f77b4; stroke: #1f77b4"/>
     <use xlink:href="#m1de0956d85" x="154.454233" y="234.425204" style="fill: #1f77b4; stroke: #1f77b4"/>
     <use xlink:href="#m1de0956d85" x="152.020102" y="232.883804" style="fill: #1f77b4; stroke: #1f77b4"/>
     <use xlink:href="#m1de0956d85" x="154.00775" y="234.119344" style="fill: #1f77b4; stroke: #1f77b4"/>
     <use xlink:href="#m1de0956d85" x="155.473523" y="229.078066" style="fill: #1f77b4; stroke: #1f77b4"/>
     <use xlink:href="#m1de0956d85" x="154.759795" y="231.323307" style="fill: #1f77b4; stroke: #1f77b4"/>
     <use xlink:href="#m1de0956d85" x="152.336573" y="227.433514" style="fill: #1f77b4; stroke: #1f77b4"/>
     <use xlink:href="#m1de0956d85" x="150.973753" y="224.406965" style="fill: #1f77b4; stroke: #1f77b4"/>
     <use xlink:href="#m1de0956d85" x="153.058726" y="226.871926" style="fill: #1f77b4; stroke: #1f77b4"/>
     <use xlink:href="#m1de0956d85" x="151.880734" y="226.46853" style="fill: #1f77b4; stroke: #1f77b4"/>
     <use xlink:href="#m1de0956d85" x="150.917617" y="223.860002" style="fill: #1f77b4; stroke: #1f77b4"/>
     <use xlink:href="#m1de0956d85" x="154.047309" y="221.219702" style="fill: #1f77b4; stroke: #1f77b4"/>
     <use xlink:href="#m1de0956d85" x="146.418973" y="222.974366" style="fill: #1f77b4; stroke: #1f77b4"/>
     <use xlink:href="#m1de0956d85" x="150.59443" y="217.05125" style="fill: #1f77b4; stroke: #1f77b4"/>
     <use xlink:href="#m1de0956d85" x="151.279121" y="218.883009" style="fill: #1f77b4; stroke: #1f77b4"/>
     <use xlink:href="#m1de0956d85" x="152.054459" y="217.700961" style="fill: #1f77b4; stroke: #1f77b4"/>
     <use xlink:href="#m1de0956d85" x="149.125512" y="215.724291" style="fill: #1f77b4; stroke: #1f77b4"/>
     <use xlink:href="#m1de0956d85" x="147.567266" y="214.193214" style="fill: #1f77b4; stroke: #1f77b4"/>
     <use xlink:href="#m1de0956d85" x="152.043006" y="213.086244" style="fill: #1f77b4; stroke: #1f77b4"/>
     <use xlink:href="#m1de0956d85" x="147.171134" y="215.118423" style="fill: #1f77b4; stroke: #1f77b4"/>
     <use xlink:href="#m1de0956d85" x="148.666994" y="215.440186" style="fill: #1f77b4; stroke: #1f77b4"/>
     <use xlink:href="#m1de0956d85" x="145.360783" y="213.000071" style="fill: #1f77b4; stroke: #1f77b4"/>
     <use xlink:href="#m1de0956d85" x="145.40764" y="207.846864" style="fill: #1f77b4; stroke: #1f77b4"/>
     <use xlink:href="#m1de0956d85" x="148.512602" y="211.107221" style="fill: #1f77b4; stroke: #1f77b4"/>
     <use xlink:href="#m1de0956d85" x="149.710626" y="209.017312" style="fill: #1f77b4; stroke: #1f77b4"/>
     <use xlink:href="#m1de0956d85" x="143.585177" y="204.507429" style="fill: #1f77b4; stroke: #1f77b4"/>
     <use xlink:href="#m1de0956d85" x="149.113633" y="202.872695" style="fill: #1f77b4; stroke: #1f77b4"/>
    </g>
   </g>
   <g id="line2d_16">
    <path d="M 63.867649 278.125675 
L 62.065075 270.435268 
L 60.565239 263.056309 
L 59.29212 255.643485 
L 58.314291 248.662685 
L 57.563653 241.740644 
L 57.044095 234.911203 
L 56.755302 228.215001 
L 56.691382 221.699353 
L 56.839602 215.417723 
L 57.225504 208.814453 
L 57.822132 202.509775 
L 58.595503 196.57199 
L 59.631 190.368452 
L 60.806457 184.618767 
L 62.258779 178.636905 
L 63.78875 173.205089 
L 65.593335 167.58336 
L 67.707974 161.767986 
L 69.797473 156.627832 
L 72.172136 151.344436 
L 74.862939 145.920006 
L 77.90393 140.359052 
L 80.732379 135.625867 
L 83.853144 130.809086 
L 87.291121 125.91689 
L 91.072746 120.959864 
L 95.22589 115.951411 
L 98.835437 111.9187 
L 102.716764 107.87392 
L 106.885539 103.829036 
L 111.357555 99.797907 
L 116.148528 95.79648 
L 121.273848 91.842966 
L 126.748278 87.958025 
L 132.585587 84.164924 
L 137.209205 81.395913 
L 142.048458 78.705164 
L 147.107139 76.105618 
L 152.388159 73.611138 
L 157.893395 71.236493 
L 163.623517 68.997338 
L 169.577821 66.910161 
L 175.754039 64.992218 
L 182.148159 63.261442 
L 188.754236 61.736321 
L 195.564215 60.435753 
L 202.567756 59.378866 
L 209.752088 58.584808 
L 217.101871 58.072506 
L 224.599107 57.860393 
L 232.223074 57.966111 
L 237.364656 58.22138 
L 242.54458 58.629834 
L 247.75471 59.195693 
L 252.986411 59.922793 
L 258.230568 60.814546 
L 263.477621 61.873893 
L 268.717598 63.103256 
L 273.940162 64.504499 
L 279.134657 66.07889 
L 284.290163 67.827061 
L 289.39556 69.748982 
L 294.439587 71.843931 
L 299.41092 74.110476 
L 304.298239 76.546459 
L 309.090307 79.14899 
L 313.776049 81.914446 
L 318.344627 84.838479 
L 322.785524 87.916028 
L 327.088616 91.141346 
L 331.244248 94.508026 
L 335.243307 98.00904 
L 339.077283 101.636781 
L 342.738333 105.383114 
L 346.219334 109.239434 
L 349.513926 113.196718 
L 352.616552 117.245599 
L 355.522489 121.376424 
L 358.227864 125.579331 
L 360.72967 129.84431 
L 363.025767 134.161279 
L 365.114875 138.520148 
L 366.996562 142.910891 
L 368.671219 147.323602 
L 370.140033 151.748562 
L 371.404953 156.17629 
L 372.468644 160.597599 
L 373.334444 165.003637 
L 374.006311 169.385929 
L 374.488775 173.736415 
L 374.786877 178.047475 
L 374.906114 182.311953 
L 374.852385 186.523178 
L 374.631929 190.674972 
L 374.251269 194.761659 
L 373.717164 198.778068 
L 373.036549 202.719529 
L 372.216486 206.581871 
L 370.740569 212.219098 
L 368.991206 217.659657 
L 366.992511 222.895354 
L 364.768219 227.920117 
L 362.341462 232.729837 
L 359.734586 237.322187 
L 356.969002 241.696447 
L 354.065074 245.853321 
L 351.042036 249.794765 
L 347.917941 253.523813 
L 344.70963 257.044418 
L 341.432727 260.361302 
L 338.101647 263.479817 
L 333.598639 267.339437 
L 329.050925 270.87176 
L 324.483295 274.092505 
L 319.917338 277.017852 
L 315.371692 279.664146 
L 310.862297 282.047659 
L 306.402653 284.184397 
L 300.915095 286.532001 
L 295.540645 288.547631 
L 290.293049 290.259065 
L 285.182565 291.692427 
L 280.216509 292.872118 
L 274.454581 293.984692 
L 268.912116 294.800443 
L 263.590379 295.351881 
L 258.488045 295.668298 
L 252.80813 295.775351 
L 247.414564 295.635284 
L 242.297725 295.280601 
L 237.446763 294.739734 
L 232.213501 293.925328 
L 227.294575 292.932121 
L 222.672128 291.787507 
L 217.804445 290.347848 
L 213.265725 288.774315 
L 208.580722 286.897552 
L 204.244176 284.911547 
L 200.228813 282.838458 
L 196.152978 280.479141 
L 192.40494 278.056268 
L 188.657651 275.359396 
L 185.235424 272.622594 
L 181.861504 269.627975 
L 178.802775 266.615282 
L 175.828295 263.362438 
L 173.154317 260.110547 
L 170.591253 256.636003 
L 168.311262 253.178217 
L 166.161831 249.514158 
L 164.167403 245.653402 
L 162.44287 241.829577 
L 160.88336 237.823798 
L 159.506801 233.645355 
L 158.381569 229.519216 
L 157.443969 225.232826 
L 156.707704 220.794763 
L 156.203541 216.420225 
L 155.903151 211.904462 
L 155.817726 207.255433 
L 155.82071 206.854596 
L 155.82071 206.854596 
" clip-path="url(#pbfcab5f8bd)" style="fill: none; stroke: #d62728; stroke-width: 1.5; stroke-linecap: square"/>
   </g>
   <g id="patch_3">
    <path d="M 37.848438 307.872 
L 37.848438 41.76 
" style="fill: none; stroke: #000000; stroke-width: 0.8; stroke-linejoin: miter; stroke-linecap: square"/>
   </g>
   <g id="patch_4">
    <path d="M 394.968438 307.872 
L 394.968438 41.76 
" style="fill: none; stroke: #000000; stroke-width: 0.8; stroke-linejoin: miter; stroke-linecap: square"/>
   </g>
   <g id="patch_5">
    <path d="M 37.848437 307.872 
L 394.968437 307.872 
" style="fill: none; stroke: #000000; stroke-width: 0.8; stroke-linejoin: miter; stroke-linecap: square"/>
   </g>
   <g id="patch_6">
    <path d="M 37.848437 41.76 
L 394.968437 41.76 
" style="fill: none; stroke: #000000; stroke-width: 0.8; stroke-linejoin: miter; stroke-linecap: square"/>
   </g>
   <g id="text_17">
    <g id="patch_7">
     <path d="M 412.824438 102.337163 
L 558.324438 102.337163 
Q 562.324438 102.337163 562.324438 98.337163 
L 562.324438 55.0656 
Q 562.324438 51.0656 558.324438 51.0656 
L 412.824438 51.0656 
Q 408.824438 51.0656 408.824438 55.0656 
L 408.824438 98.337163 
Q 408.824438 102.337163 412.824438 102.337163 
z
" style="fill: #ffffff; opacity: 0.5; stroke: #000000; stroke-linejoin: miter"/>
    </g>
    <!-- Summary -->
    <g transform="translate(412.824438 62.664038) scale(0.1 -0.1)">
     <defs>
      <path id="DejaVuSans-53" d="M 3425 4513 
L 3425 3897 
Q 3066 4069 2747 4153 
Q 2428 4238 2131 4238 
Q 1616 4238 1336 4038 
Q 1056 3838 1056 3469 
Q 1056 3159 1242 3001 
Q 1428 2844 1947 2747 
L 2328 2669 
Q 3034 2534 3370 2195 
Q 3706 1856 3706 1288 
Q 3706 609 3251 259 
Q 2797 -91 1919 -91 
Q 1588 -91 1214 -16 
Q 841 59 441 206 
L 441 856 
Q 825 641 1194 531 
Q 1563 422 1919 422 
Q 2459 422 2753 634 
Q 3047 847 3047 1241 
Q 3047 1584 2836 1778 
Q 2625 1972 2144 2069 
L 1759 2144 
Q 1053 2284 737 2584 
Q 422 2884 422 3419 
Q 422 4038 858 4394 
Q 1294 4750 2059 4750 
Q 2388 4750 2728 4690 
Q 3069 4631 3425 4513 
z
" transform="scale(0.015625)"/>
      <path id="DejaVuSans-75" d="M 544 1381 
L 544 3500 
L 1119 3500 
L 1119 1403 
Q 1119 906 1312 657 
Q 1506 409 1894 409 
Q 2359 409 2629 706 
Q 2900 1003 2900 1516 
L 2900 3500 
L 3475 3500 
L 3475 0 
L 2900 0 
L 2900 538 
Q 2691 219 2414 64 
Q 2138 -91 1772 -91 
Q 1169 -91 856 284 
Q 544 659 544 1381 
z
M 1991 3584 
L 1991 3584 
z
" transform="scale(0.015625)"/>
      <path id="DejaVuSans-61" d="M 2194 1759 
Q 1497 1759 1228 1600 
Q 959 1441 959 1056 
Q 959 750 1161 570 
Q 1363 391 1709 391 
Q 2188 391 2477 730 
Q 2766 1069 2766 1631 
L 2766 1759 
L 2194 1759 
z
M 3341 1997 
L 3341 0 
L 2766 0 
L 2766 531 
Q 2569 213 2275 61 
Q 1981 -91 1556 -91 
Q 1019 -91 701 211 
Q 384 513 384 1019 
Q 384 1609 779 1909 
Q 1175 2209 1959 2209 
L 2766 2209 
L 2766 2266 
Q 2766 2663 2505 2880 
Q 2244 3097 1772 3097 
Q 1472 3097 1187 3025 
Q 903 2953 641 2809 
L 641 3341 
Q 956 3463 1253 3523 
Q 1550 3584 1831 3584 
Q 2591 3584 2966 3190 
Q 3341 2797 3341 1997 
z
" transform="scale(0.015625)"/>
      <path id="DejaVuSans-72" d="M 2631 2963 
Q 2534 3019 2420 3045 
Q 2306 3072 2169 3072 
Q 1681 3072 1420 2755 
Q 1159 2438 1159 1844 
L 1159 0 
L 581 0 
L 581 3500 
L 1159 3500 
L 1159 2956 
Q 1341 3275 1631 3429 
Q 1922 3584 2338 3584 
Q 2397 3584 2469 3576 
Q 2541 3569 2628 3553 
L 2631 2963 
z
" transform="scale(0.015625)"/>
      <path id="DejaVuSans-79" d="M 2059 -325 
Q 1816 -950 1584 -1140 
Q 1353 -1331 966 -1331 
L 506 -1331 
L 506 -850 
L 844 -850 
Q 1081 -850 1212 -737 
Q 1344 -625 1503 -206 
L 1606 56 
L 191 3500 
L 800 3500 
L 1894 763 
L 2988 3500 
L 3597 3500 
L 2059 -325 
z
" transform="scale(0.015625)"/>
     </defs>
     <use xlink:href="#DejaVuSans-53"/>
     <use xlink:href="#DejaVuSans-75" x="63.476562"/>
     <use xlink:href="#DejaVuSans-6d" x="126.855469"/>
     <use xlink:href="#DejaVuSans-6d" x="224.267578"/>
     <use xlink:href="#DejaVuSans-61" x="321.679688"/>
     <use xlink:href="#DejaVuSans-72" x="382.958984"/>
     <use xlink:href="#DejaVuSans-79" x="424.072266"/>
    </g>
    <!-- $Q_I$: 13.94$\pm$0.24 k -->
    <g transform="translate(412.824438 73.86185) scale(0.1 -0.1)">
     <defs>
      <path id="DejaVuSans-Oblique-51" d="M 2309 -84 
Q 2275 -88 2237 -89 
Q 2200 -91 2125 -91 
Q 1250 -91 756 411 
Q 263 913 263 1797 
Q 263 2319 452 2844 
Q 641 3369 978 3788 
Q 1369 4269 1858 4509 
Q 2347 4750 2938 4750 
Q 3794 4750 4287 4245 
Q 4781 3741 4781 2869 
Q 4781 1928 4265 1147 
Q 3750 366 2919 44 
L 3553 -825 
L 2847 -825 
L 2309 -84 
z
M 2919 4238 
Q 2400 4238 2003 3986 
Q 1606 3734 1313 3219 
Q 1125 2891 1026 2522 
Q 928 2153 928 1778 
Q 928 1128 1239 775 
Q 1550 422 2119 422 
Q 2631 422 3032 676 
Q 3434 931 3719 1434 
Q 3909 1772 4009 2142 
Q 4109 2513 4109 2881 
Q 4109 3528 3796 3883 
Q 3484 4238 2919 4238 
z
" transform="scale(0.015625)"/>
      <path id="DejaVuSans-Oblique-49" d="M 1081 4666 
L 1716 4666 
L 806 0 
L 172 0 
L 1081 4666 
z
" transform="scale(0.015625)"/>
      <path id="DejaVuSans-3a" d="M 750 794 
L 1409 794 
L 1409 0 
L 750 0 
L 750 794 
z
M 750 3309 
L 1409 3309 
L 1409 2516 
L 750 2516 
L 750 3309 
z
" transform="scale(0.015625)"/>
      <path id="DejaVuSans-2e" d="M 684 794 
L 1344 794 
L 1344 0 
L 684 0 
L 684 794 
z
" transform="scale(0.015625)"/>
      <path id="DejaVuSans-39" d="M 703 97 
L 703 672 
Q 941 559 1184 500 
Q 1428 441 1663 441 
Q 2288 441 2617 861 
Q 2947 1281 2994 2138 
Q 2813 1869 2534 1725 
Q 2256 1581 1919 1581 
Q 1219 1581 811 2004 
Q 403 2428 403 3163 
Q 403 3881 828 4315 
Q 1253 4750 1959 4750 
Q 2769 4750 3195 4129 
Q 3622 3509 3622 2328 
Q 3622 1225 3098 567 
Q 2575 -91 1691 -91 
Q 1453 -91 1209 -44 
Q 966 3 703 97 
z
M 1959 2075 
Q 2384 2075 2632 2365 
Q 2881 2656 2881 3163 
Q 2881 3666 2632 3958 
Q 2384 4250 1959 4250 
Q 1534 4250 1286 3958 
Q 1038 3666 1038 3163 
Q 1038 2656 1286 2365 
Q 1534 2075 1959 2075 
z
" transform="scale(0.015625)"/>
      <path id="DejaVuSans-b1" d="M 2944 4013 
L 2944 2803 
L 4684 2803 
L 4684 2272 
L 2944 2272 
L 2944 1063 
L 2419 1063 
L 2419 2272 
L 678 2272 
L 678 2803 
L 2419 2803 
L 2419 4013 
L 2944 4013 
z
M 678 531 
L 4684 531 
L 4684 0 
L 678 0 
L 678 531 
z
" transform="scale(0.015625)"/>
      <path id="DejaVuSans-6b" d="M 581 4863 
L 1159 4863 
L 1159 1991 
L 2875 3500 
L 3609 3500 
L 1753 1863 
L 3688 0 
L 2938 0 
L 1159 1709 
L 1159 0 
L 581 0 
L 581 4863 
z
" transform="scale(0.015625)"/>
     </defs>
     <use xlink:href="#DejaVuSans-Oblique-51" transform="translate(0 0.015625)"/>
     <use xlink:href="#DejaVuSans-Oblique-49" transform="translate(78.710938 -16.390625) scale(0.7)"/>
     <use xlink:href="#DejaVuSans-3a" transform="translate(102.089844 0.015625)"/>
     <use xlink:href="#DejaVuSans-20" transform="translate(135.78125 0.015625)"/>
     <use xlink:href="#DejaVuSans-31" transform="translate(167.568359 0.015625)"/>
     <use xlink:href="#DejaVuSans-33" transform="translate(231.191406 0.015625)"/>
     <use xlink:href="#DejaVuSans-2e" transform="translate(294.814453 0.015625)"/>
     <use xlink:href="#DejaVuSans-39" transform="translate(326.601562 0.015625)"/>
     <use xlink:href="#DejaVuSans-34" transform="translate(390.224609 0.015625)"/>
     <use xlink:href="#DejaVuSans-b1" transform="translate(453.847656 0.015625)"/>
     <use xlink:href="#DejaVuSans-30" transform="translate(537.636719 0.015625)"/>
     <use xlink:href="#DejaVuSans-2e" transform="translate(601.259766 0.015625)"/>
     <use xlink:href="#DejaVuSans-32" transform="translate(627.546875 0.015625)"/>
     <use xlink:href="#DejaVuSans-34" transform="translate(691.169922 0.015625)"/>
     <use xlink:href="#DejaVuSans-20" transform="translate(754.792969 0.015625)"/>
     <use xlink:href="#DejaVuSans-6b" transform="translate(786.580078 0.015625)"/>
    </g>
    <!-- $Q_C$: 3.336$\pm$0.019 k -->
    <g transform="translate(412.824438 85.059663) scale(0.1 -0.1)">
     <defs>
      <path id="DejaVuSans-Oblique-43" d="M 4447 4306 
L 4319 3641 
Q 4019 3944 3683 4091 
Q 3347 4238 2956 4238 
Q 2422 4238 2017 3981 
Q 1613 3725 1319 3200 
Q 1131 2863 1032 2486 
Q 934 2109 934 1728 
Q 934 1091 1264 756 
Q 1594 422 2222 422 
Q 2656 422 3056 561 
Q 3456 700 3834 978 
L 3688 231 
Q 3316 72 2936 -9 
Q 2556 -91 2175 -91 
Q 1278 -91 773 396 
Q 269 884 269 1753 
Q 269 2309 461 2846 
Q 653 3384 1013 3828 
Q 1394 4300 1883 4525 
Q 2372 4750 3022 4750 
Q 3422 4750 3780 4639 
Q 4138 4528 4447 4306 
z
" transform="scale(0.015625)"/>
     </defs>
     <use xlink:href="#DejaVuSans-Oblique-51" transform="translate(0 0.015625)"/>
     <use xlink:href="#DejaVuSans-Oblique-43" transform="translate(78.710938 -16.390625) scale(0.7)"/>
     <use xlink:href="#DejaVuSans-3a" transform="translate(130.322266 0.015625)"/>
     <use xlink:href="#DejaVuSans-20" transform="translate(164.013672 0.015625)"/>
     <use xlink:href="#DejaVuSans-33" transform="translate(195.800781 0.015625)"/>
     <use xlink:href="#DejaVuSans-2e" transform="translate(259.423828 0.015625)"/>
     <use xlink:href="#DejaVuSans-33" transform="translate(291.210938 0.015625)"/>
     <use xlink:href="#DejaVuSans-33" transform="translate(354.833984 0.015625)"/>
     <use xlink:href="#DejaVuSans-36" transform="translate(418.457031 0.015625)"/>
     <use xlink:href="#DejaVuSans-b1" transform="translate(482.080078 0.015625)"/>
     <use xlink:href="#DejaVuSans-30" transform="translate(565.869141 0.015625)"/>
     <use xlink:href="#DejaVuSans-2e" transform="translate(629.492188 0.015625)"/>
     <use xlink:href="#DejaVuSans-30" transform="translate(661.279297 0.015625)"/>
     <use xlink:href="#DejaVuSans-31" transform="translate(724.902344 0.015625)"/>
     <use xlink:href="#DejaVuSans-39" transform="translate(788.525391 0.015625)"/>
     <use xlink:href="#DejaVuSans-20" transform="translate(852.148438 0.015625)"/>
     <use xlink:href="#DejaVuSans-6b" transform="translate(883.935547 0.015625)"/>
    </g>
    <!-- $f_{res}$: 5.8376237$\pm$5.5e-06 GHz -->
    <g transform="translate(412.824438 96.257475) scale(0.1 -0.1)">
     <defs>
      <path id="DejaVuSans-Oblique-66" d="M 3059 4863 
L 2969 4384 
L 2419 4384 
Q 2106 4384 1964 4261 
Q 1822 4138 1753 3809 
L 1691 3500 
L 2638 3500 
L 2553 3053 
L 1606 3053 
L 1013 0 
L 434 0 
L 1031 3053 
L 481 3053 
L 563 3500 
L 1113 3500 
L 1159 3744 
Q 1278 4363 1576 4613 
Q 1875 4863 2516 4863 
L 3059 4863 
z
" transform="scale(0.015625)"/>
      <path id="DejaVuSans-Oblique-72" d="M 2853 2969 
Q 2766 3016 2653 3041 
Q 2541 3066 2413 3066 
Q 1953 3066 1609 2717 
Q 1266 2369 1153 1784 
L 800 0 
L 225 0 
L 909 3500 
L 1484 3500 
L 1375 2956 
Q 1603 3259 1920 3421 
Q 2238 3584 2597 3584 
Q 2691 3584 2781 3573 
Q 2872 3563 2963 3538 
L 2853 2969 
z
" transform="scale(0.015625)"/>
      <path id="DejaVuSans-Oblique-65" d="M 3078 2063 
Q 3088 2113 3092 2166 
Q 3097 2219 3097 2272 
Q 3097 2653 2873 2875 
Q 2650 3097 2266 3097 
Q 1838 3097 1509 2826 
Q 1181 2556 1013 2059 
L 3078 2063 
z
M 3578 1613 
L 903 1613 
Q 884 1494 878 1425 
Q 872 1356 872 1306 
Q 872 872 1139 634 
Q 1406 397 1894 397 
Q 2269 397 2603 481 
Q 2938 566 3225 728 
L 3116 159 
Q 2806 34 2476 -28 
Q 2147 -91 1806 -91 
Q 1078 -91 686 257 
Q 294 606 294 1247 
Q 294 1794 489 2264 
Q 684 2734 1063 3103 
Q 1306 3334 1642 3459 
Q 1978 3584 2356 3584 
Q 2950 3584 3301 3228 
Q 3653 2872 3653 2272 
Q 3653 2128 3634 1964 
Q 3616 1800 3578 1613 
z
" transform="scale(0.015625)"/>
      <path id="DejaVuSans-Oblique-73" d="M 3200 3397 
L 3091 2853 
Q 2863 2978 2609 3040 
Q 2356 3103 2088 3103 
Q 1634 3103 1373 2948 
Q 1113 2794 1113 2528 
Q 1113 2219 1719 2053 
Q 1766 2041 1788 2034 
L 1972 1978 
Q 2547 1819 2739 1644 
Q 2931 1469 2931 1166 
Q 2931 609 2489 259 
Q 2047 -91 1331 -91 
Q 1053 -91 747 -37 
Q 441 16 72 128 
L 184 722 
Q 500 559 806 475 
Q 1113 391 1394 391 
Q 1816 391 2080 572 
Q 2344 753 2344 1031 
Q 2344 1331 1650 1516 
L 1591 1531 
L 1394 1581 
Q 956 1697 753 1886 
Q 550 2075 550 2369 
Q 550 2928 970 3256 
Q 1391 3584 2113 3584 
Q 2397 3584 2667 3537 
Q 2938 3491 3200 3397 
z
" transform="scale(0.015625)"/>
      <path id="DejaVuSans-47" d="M 3809 666 
L 3809 1919 
L 2778 1919 
L 2778 2438 
L 4434 2438 
L 4434 434 
Q 4069 175 3628 42 
Q 3188 -91 2688 -91 
Q 1594 -91 976 548 
Q 359 1188 359 2328 
Q 359 3472 976 4111 
Q 1594 4750 2688 4750 
Q 3144 4750 3555 4637 
Q 3966 4525 4313 4306 
L 4313 3634 
Q 3963 3931 3569 4081 
Q 3175 4231 2741 4231 
Q 1884 4231 1454 3753 
Q 1025 3275 1025 2328 
Q 1025 1384 1454 906 
Q 1884 428 2741 428 
Q 3075 428 3337 486 
Q 3600 544 3809 666 
z
" transform="scale(0.015625)"/>
      <path id="DejaVuSans-48" d="M 628 4666 
L 1259 4666 
L 1259 2753 
L 3553 2753 
L 3553 4666 
L 4184 4666 
L 4184 0 
L 3553 0 
L 3553 2222 
L 1259 2222 
L 1259 0 
L 628 0 
L 628 4666 
z
" transform="scale(0.015625)"/>
      <path id="DejaVuSans-7a" d="M 353 3500 
L 3084 3500 
L 3084 2975 
L 922 459 
L 3084 459 
L 3084 0 
L 275 0 
L 275 525 
L 2438 3041 
L 353 3041 
L 353 3500 
z
" transform="scale(0.015625)"/>
     </defs>
     <use xlink:href="#DejaVuSans-Oblique-66" transform="translate(0 0.015625)"/>
     <use xlink:href="#DejaVuSans-Oblique-72" transform="translate(35.205078 -16.390625) scale(0.7)"/>
     <use xlink:href="#DejaVuSans-Oblique-65" transform="translate(63.984375 -16.390625) scale(0.7)"/>
     <use xlink:href="#DejaVuSans-Oblique-73" transform="translate(107.050781 -16.390625) scale(0.7)"/>
     <use xlink:href="#DejaVuSans-3a" transform="translate(146.254883 0.015625)"/>
     <use xlink:href="#DejaVuSans-20" transform="translate(179.946289 0.015625)"/>
     <use xlink:href="#DejaVuSans-35" transform="translate(211.733398 0.015625)"/>
     <use xlink:href="#DejaVuSans-2e" transform="translate(275.356445 0.015625)"/>
     <use xlink:href="#DejaVuSans-38" transform="translate(304.518555 0.015625)"/>
     <use xlink:href="#DejaVuSans-33" transform="translate(368.141602 0.015625)"/>
     <use xlink:href="#DejaVuSans-37" transform="translate(431.764648 0.015625)"/>
     <use xlink:href="#DejaVuSans-36" transform="translate(495.387695 0.015625)"/>
     <use xlink:href="#DejaVuSans-32" transform="translate(559.010742 0.015625)"/>
     <use xlink:href="#DejaVuSans-33" transform="translate(622.633789 0.015625)"/>
     <use xlink:href="#DejaVuSans-37" transform="translate(686.256836 0.015625)"/>
     <use xlink:href="#DejaVuSans-b1" transform="translate(749.879883 0.015625)"/>
     <use xlink:href="#DejaVuSans-35" transform="translate(833.668945 0.015625)"/>
     <use xlink:href="#DejaVuSans-2e" transform="translate(897.291992 0.015625)"/>
     <use xlink:href="#DejaVuSans-35" transform="translate(929.079102 0.015625)"/>
     <use xlink:href="#DejaVuSans-65" transform="translate(992.702148 0.015625)"/>
     <use xlink:href="#DejaVuSans-2d" transform="translate(1054.225586 0.015625)"/>
     <use xlink:href="#DejaVuSans-30" transform="translate(1090.30957 0.015625)"/>
     <use xlink:href="#DejaVuSans-36" transform="translate(1153.932617 0.015625)"/>
     <use xlink:href="#DejaVuSans-20" transform="translate(1217.555664 0.015625)"/>
     <use xlink:href="#DejaVuSans-47" transform="translate(1249.342773 0.015625)"/>
     <use xlink:href="#DejaVuSans-48" transform="translate(1326.833008 0.015625)"/>
     <use xlink:href="#DejaVuSans-7a" transform="translate(1402.02832 0.015625)"/>
    </g>
   </g>
  </g>
  <g id="text_18">
   <!-- S21 resonator spectroscopy -->
   <g transform="translate(126.864063 16.318125) scale(0.12 -0.12)">
    <defs>
     <path id="DejaVuSans-73" d="M 2834 3397 
L 2834 2853 
Q 2591 2978 2328 3040 
Q 2066 3103 1784 3103 
Q 1356 3103 1142 2972 
Q 928 2841 928 2578 
Q 928 2378 1081 2264 
Q 1234 2150 1697 2047 
L 1894 2003 
Q 2506 1872 2764 1633 
Q 3022 1394 3022 966 
Q 3022 478 2636 193 
Q 2250 -91 1575 -91 
Q 1294 -91 989 -36 
Q 684 19 347 128 
L 347 722 
Q 666 556 975 473 
Q 1284 391 1588 391 
Q 1994 391 2212 530 
Q 2431 669 2431 922 
Q 2431 1156 2273 1281 
Q 2116 1406 1581 1522 
L 1381 1569 
Q 847 1681 609 1914 
Q 372 2147 372 2553 
Q 372 3047 722 3315 
Q 1072 3584 1716 3584 
Q 2034 3584 2315 3537 
Q 2597 3491 2834 3397 
z
" transform="scale(0.015625)"/>
     <path id="DejaVuSans-6f" d="M 1959 3097 
Q 1497 3097 1228 2736 
Q 959 2375 959 1747 
Q 959 1119 1226 758 
Q 1494 397 1959 397 
Q 2419 397 2687 759 
Q 2956 1122 2956 1747 
Q 2956 2369 2687 2733 
Q 2419 3097 1959 3097 
z
M 1959 3584 
Q 2709 3584 3137 3096 
Q 3566 2609 3566 1747 
Q 3566 888 3137 398 
Q 2709 -91 1959 -91 
Q 1206 -91 779 398 
Q 353 888 353 1747 
Q 353 2609 779 3096 
Q 1206 3584 1959 3584 
z
" transform="scale(0.015625)"/>
     <path id="DejaVuSans-6e" d="M 3513 2113 
L 3513 0 
L 2938 0 
L 2938 2094 
Q 2938 2591 2744 2837 
Q 2550 3084 2163 3084 
Q 1697 3084 1428 2787 
Q 1159 2491 1159 1978 
L 1159 0 
L 581 0 
L 581 3500 
L 1159 3500 
L 1159 2956 
Q 1366 3272 1645 3428 
Q 1925 3584 2291 3584 
Q 2894 3584 3203 3211 
Q 3513 2838 3513 2113 
z
" transform="scale(0.015625)"/>
     <path id="DejaVuSans-74" d="M 1172 4494 
L 1172 3500 
L 2356 3500 
L 2356 3053 
L 1172 3053 
L 1172 1153 
Q 1172 725 1289 603 
Q 1406 481 1766 481 
L 2356 481 
L 2356 0 
L 1766 0 
Q 1100 0 847 248 
Q 594 497 594 1153 
L 594 3053 
L 172 3053 
L 172 3500 
L 594 3500 
L 594 4494 
L 1172 4494 
z
" transform="scale(0.015625)"/>
     <path id="DejaVuSans-70" d="M 1159 525 
L 1159 -1331 
L 581 -1331 
L 581 3500 
L 1159 3500 
L 1159 2969 
Q 1341 3281 1617 3432 
Q 1894 3584 2278 3584 
Q 2916 3584 3314 3078 
Q 3713 2572 3713 1747 
Q 3713 922 3314 415 
Q 2916 -91 2278 -91 
Q 1894 -91 1617 61 
Q 1341 213 1159 525 
z
M 3116 1747 
Q 3116 2381 2855 2742 
Q 2594 3103 2138 3103 
Q 1681 3103 1420 2742 
Q 1159 2381 1159 1747 
Q 1159 1113 1420 752 
Q 1681 391 2138 391 
Q 2594 391 2855 752 
Q 3116 1113 3116 1747 
z
" transform="scale(0.015625)"/>
     <path id="DejaVuSans-63" d="M 3122 3366 
L 3122 2828 
Q 2878 2963 2633 3030 
Q 2388 3097 2138 3097 
Q 1578 3097 1268 2742 
Q 959 2388 959 1747 
Q 959 1106 1268 751 
Q 1578 397 2138 397 
Q 2388 397 2633 464 
Q 2878 531 3122 666 
L 3122 134 
Q 2881 22 2623 -34 
Q 2366 -91 2075 -91 
Q 1284 -91 818 406 
Q 353 903 353 1747 
Q 353 2603 823 3093 
Q 1294 3584 2113 3584 
Q 2378 3584 2631 3529 
Q 2884 3475 3122 3366 
z
" transform="scale(0.015625)"/>
    </defs>
    <use xlink:href="#DejaVuSans-53"/>
    <use xlink:href="#DejaVuSans-32" x="63.476562"/>
    <use xlink:href="#DejaVuSans-31" x="127.099609"/>
    <use xlink:href="#DejaVuSans-20" x="190.722656"/>
    <use xlink:href="#DejaVuSans-72" x="222.509766"/>
    <use xlink:href="#DejaVuSans-65" x="261.373047"/>
    <use xlink:href="#DejaVuSans-73" x="322.896484"/>
    <use xlink:href="#DejaVuSans-6f" x="374.996094"/>
    <use xlink:href="#DejaVuSans-6e" x="436.177734"/>
    <use xlink:href="#DejaVuSans-61" x="499.556641"/>
    <use xlink:href="#DejaVuSans-74" x="560.835938"/>
    <use xlink:href="#DejaVuSans-6f" x="600.044922"/>
    <use xlink:href="#DejaVuSans-72" x="661.226562"/>
    <use xlink:href="#DejaVuSans-20" x="702.339844"/>
    <use xlink:href="#DejaVuSans-73" x="734.126953"/>
    <use xlink:href="#DejaVuSans-70" x="786.226562"/>
    <use xlink:href="#DejaVuSans-65" x="849.703125"/>
    <use xlink:href="#DejaVuSans-63" x="911.226562"/>
    <use xlink:href="#DejaVuSans-74" x="966.207031"/>
    <use xlink:href="#DejaVuSans-72" x="1005.416016"/>
    <use xlink:href="#DejaVuSans-6f" x="1044.279297"/>
    <use xlink:href="#DejaVuSans-73" x="1105.460938"/>
    <use xlink:href="#DejaVuSans-63" x="1157.560547"/>
    <use xlink:href="#DejaVuSans-6f" x="1212.541016"/>
    <use xlink:href="#DejaVuSans-70" x="1273.722656"/>
    <use xlink:href="#DejaVuSans-79" x="1337.199219"/>
   </g>
   <!-- tuid: 20231227-185623-957-7d315d -->
   <g transform="translate(100.81 29.7555) scale(0.12 -0.12)">
    <defs>
     <path id="DejaVuSans-69" d="M 603 3500 
L 1178 3500 
L 1178 0 
L 603 0 
L 603 3500 
z
M 603 4863 
L 1178 4863 
L 1178 4134 
L 603 4134 
L 603 4863 
z
" transform="scale(0.015625)"/>
     <path id="DejaVuSans-64" d="M 2906 2969 
L 2906 4863 
L 3481 4863 
L 3481 0 
L 2906 0 
L 2906 525 
Q 2725 213 2448 61 
Q 2172 -91 1784 -91 
Q 1150 -91 751 415 
Q 353 922 353 1747 
Q 353 2572 751 3078 
Q 1150 3584 1784 3584 
Q 2172 3584 2448 3432 
Q 2725 3281 2906 2969 
z
M 947 1747 
Q 947 1113 1208 752 
Q 1469 391 1925 391 
Q 2381 391 2643 752 
Q 2906 1113 2906 1747 
Q 2906 2381 2643 2742 
Q 2381 3103 1925 3103 
Q 1469 3103 1208 2742 
Q 947 2381 947 1747 
z
" transform="scale(0.015625)"/>
    </defs>
    <use xlink:href="#DejaVuSans-74"/>
    <use xlink:href="#DejaVuSans-75" x="39.208984"/>
    <use xlink:href="#DejaVuSans-69" x="102.587891"/>
    <use xlink:href="#DejaVuSans-64" x="130.371094"/>
    <use xlink:href="#DejaVuSans-3a" x="193.847656"/>
    <use xlink:href="#DejaVuSans-20" x="227.539062"/>
    <use xlink:href="#DejaVuSans-32" x="259.326172"/>
    <use xlink:href="#DejaVuSans-30" x="322.949219"/>
    <use xlink:href="#DejaVuSans-32" x="386.572266"/>
    <use xlink:href="#DejaVuSans-33" x="450.195312"/>
    <use xlink:href="#DejaVuSans-31" x="513.818359"/>
    <use xlink:href="#DejaVuSans-32" x="577.441406"/>
    <use xlink:href="#DejaVuSans-32" x="641.064453"/>
    <use xlink:href="#DejaVuSans-37" x="704.6875"/>
    <use xlink:href="#DejaVuSans-2d" x="768.310547"/>
    <use xlink:href="#DejaVuSans-31" x="804.394531"/>
    <use xlink:href="#DejaVuSans-38" x="868.017578"/>
    <use xlink:href="#DejaVuSans-35" x="931.640625"/>
    <use xlink:href="#DejaVuSans-36" x="995.263672"/>
    <use xlink:href="#DejaVuSans-32" x="1058.886719"/>
    <use xlink:href="#DejaVuSans-33" x="1122.509766"/>
    <use xlink:href="#DejaVuSans-2d" x="1186.132812"/>
    <use xlink:href="#DejaVuSans-39" x="1222.216797"/>
    <use xlink:href="#DejaVuSans-35" x="1285.839844"/>
    <use xlink:href="#DejaVuSans-37" x="1349.462891"/>
    <use xlink:href="#DejaVuSans-2d" x="1413.085938"/>
    <use xlink:href="#DejaVuSans-37" x="1449.169922"/>
    <use xlink:href="#DejaVuSans-64" x="1512.792969"/>
    <use xlink:href="#DejaVuSans-33" x="1576.269531"/>
    <use xlink:href="#DejaVuSans-31" x="1639.892578"/>
    <use xlink:href="#DejaVuSans-35" x="1703.515625"/>
    <use xlink:href="#DejaVuSans-64" x="1767.138672"/>
   </g>
  </g>
 </g>
 <defs>
  <clipPath id="pbfcab5f8bd">
   <rect x="37.848438" y="41.76" width="357.12" height="266.112"/>
  </clipPath>
 </defs>
</svg>
