<?xml version="1.0" encoding="utf-8" standalone="no"?>
<!DOCTYPE svg PUBLIC "-//W3C//DTD SVG 1.1//EN"
  "http://www.w3.org/Graphics/SVG/1.1/DTD/svg11.dtd">
<svg xmlns:xlink="http://www.w3.org/1999/xlink" width="565.524437pt" height="345.42825pt" viewBox="0 0 565.524437 345.42825" xmlns="http://www.w3.org/2000/svg" version="1.1">
 <metadata>
  <rdf:RDF xmlns:dc="http://purl.org/dc/elements/1.1/" xmlns:cc="http://creativecommons.org/ns#" xmlns:rdf="http://www.w3.org/1999/02/22-rdf-syntax-ns#">
   <cc:Work>
    <dc:type rdf:resource="http://purl.org/dc/dcmitype/StillImage"/>
    <dc:date>2023-12-27T18:54:03.192125</dc:date>
    <dc:format>image/svg+xml</dc:format>
    <dc:creator>
     <cc:Agent>
      <dc:title>Matplotlib v3.8.2, https://matplotlib.org/</dc:title>
     </cc:Agent>
    </dc:creator>
   </cc:Work>
  </rdf:RDF>
 </metadata>
 <defs>
  <style type="text/css">*{stroke-linejoin: round; stroke-linecap: butt}</style>
 </defs>
 <g id="figure_1">
  <g id="patch_1">
   <path d="M 0 345.42825 
L 565.524437 345.42825 
L 565.524437 -0 
L 0 -0 
L 0 345.42825 
z
" style="fill: none; opacity: 0"/>
  </g>
  <g id="axes_1">
   <g id="patch_2">
    <path d="M 37.848438 307.872 
L 394.968438 307.872 
L 394.968438 41.76 
L 37.848438 41.76 
z
" style="fill: #ffffff"/>
   </g>
   <g id="matplotlib.axis_1">
    <g id="xtick_1">
     <g id="line2d_1">
      <defs>
       <path id="m31c01e25a9" d="M 0 0 
L 0 3.5 
" style="stroke: #000000; stroke-width: 0.8"/>
      </defs>
      <g>
       <use xlink:href="#m31c01e25a9" x="62.366561" y="307.872" style="stroke: #000000; stroke-width: 0.8"/>
      </g>
     </g>
     <g id="text_1">
      <!-- -7 -->
      <g transform="translate(57.381405 322.470438) scale(0.1 -0.1)">
       <defs>
        <path id="DejaVuSans-2d" d="M 313 2009 
L 1997 2009 
L 1997 1497 
L 313 1497 
L 313 2009 
z
" transform="scale(0.015625)"/>
        <path id="DejaVuSans-37" d="M 525 4666 
L 3525 4666 
L 3525 4397 
L 1831 0 
L 1172 0 
L 2766 4134 
L 525 4134 
L 525 4666 
z
" transform="scale(0.015625)"/>
       </defs>
       <use xlink:href="#DejaVuSans-2d"/>
       <use xlink:href="#DejaVuSans-37" x="36.083984"/>
      </g>
     </g>
    </g>
    <g id="xtick_2">
     <g id="line2d_2">
      <g>
       <use xlink:href="#m31c01e25a9" x="109.370312" y="307.872" style="stroke: #000000; stroke-width: 0.8"/>
      </g>
     </g>
     <g id="text_2">
      <!-- -6 -->
      <g transform="translate(104.385156 322.470438) scale(0.1 -0.1)">
       <defs>
        <path id="DejaVuSans-36" d="M 2113 2584 
Q 1688 2584 1439 2293 
Q 1191 2003 1191 1497 
Q 1191 994 1439 701 
Q 1688 409 2113 409 
Q 2538 409 2786 701 
Q 3034 994 3034 1497 
Q 3034 2003 2786 2293 
Q 2538 2584 2113 2584 
z
M 3366 4563 
L 3366 3988 
Q 3128 4100 2886 4159 
Q 2644 4219 2406 4219 
Q 1781 4219 1451 3797 
Q 1122 3375 1075 2522 
Q 1259 2794 1537 2939 
Q 1816 3084 2150 3084 
Q 2853 3084 3261 2657 
Q 3669 2231 3669 1497 
Q 3669 778 3244 343 
Q 2819 -91 2113 -91 
Q 1303 -91 875 529 
Q 447 1150 447 2328 
Q 447 3434 972 4092 
Q 1497 4750 2381 4750 
Q 2619 4750 2861 4703 
Q 3103 4656 3366 4563 
z
" transform="scale(0.015625)"/>
       </defs>
       <use xlink:href="#DejaVuSans-2d"/>
       <use xlink:href="#DejaVuSans-36" x="36.083984"/>
      </g>
     </g>
    </g>
    <g id="xtick_3">
     <g id="line2d_3">
      <g>
       <use xlink:href="#m31c01e25a9" x="156.374062" y="307.872" style="stroke: #000000; stroke-width: 0.8"/>
      </g>
     </g>
     <g id="text_3">
      <!-- -5 -->
      <g transform="translate(151.388906 322.470438) scale(0.1 -0.1)">
       <defs>
        <path id="DejaVuSans-35" d="M 691 4666 
L 3169 4666 
L 3169 4134 
L 1269 4134 
L 1269 2991 
Q 1406 3038 1543 3061 
Q 1681 3084 1819 3084 
Q 2600 3084 3056 2656 
Q 3513 2228 3513 1497 
Q 3513 744 3044 326 
Q 2575 -91 1722 -91 
Q 1428 -91 1123 -41 
Q 819 9 494 109 
L 494 744 
Q 775 591 1075 516 
Q 1375 441 1709 441 
Q 2250 441 2565 725 
Q 2881 1009 2881 1497 
Q 2881 1984 2565 2268 
Q 2250 2553 1709 2553 
Q 1456 2553 1204 2497 
Q 953 2441 691 2322 
L 691 4666 
z
" transform="scale(0.015625)"/>
       </defs>
       <use xlink:href="#DejaVuSans-2d"/>
       <use xlink:href="#DejaVuSans-35" x="36.083984"/>
      </g>
     </g>
    </g>
    <g id="xtick_4">
     <g id="line2d_4">
      <g>
       <use xlink:href="#m31c01e25a9" x="203.377813" y="307.872" style="stroke: #000000; stroke-width: 0.8"/>
      </g>
     </g>
     <g id="text_4">
      <!-- -4 -->
      <g transform="translate(198.392657 322.470438) scale(0.1 -0.1)">
       <defs>
        <path id="DejaVuSans-34" d="M 2419 4116 
L 825 1625 
L 2419 1625 
L 2419 4116 
z
M 2253 4666 
L 3047 4666 
L 3047 1625 
L 3713 1625 
L 3713 1100 
L 3047 1100 
L 3047 0 
L 2419 0 
L 2419 1100 
L 313 1100 
L 313 1709 
L 2253 4666 
z
" transform="scale(0.015625)"/>
       </defs>
       <use xlink:href="#DejaVuSans-2d"/>
       <use xlink:href="#DejaVuSans-34" x="36.083984"/>
      </g>
     </g>
    </g>
    <g id="xtick_5">
     <g id="line2d_5">
      <g>
       <use xlink:href="#m31c01e25a9" x="250.381564" y="307.872" style="stroke: #000000; stroke-width: 0.8"/>
      </g>
     </g>
     <g id="text_5">
      <!-- -3 -->
      <g transform="translate(245.396407 322.470438) scale(0.1 -0.1)">
       <defs>
        <path id="DejaVuSans-33" d="M 2597 2516 
Q 3050 2419 3304 2112 
Q 3559 1806 3559 1356 
Q 3559 666 3084 287 
Q 2609 -91 1734 -91 
Q 1441 -91 1130 -33 
Q 819 25 488 141 
L 488 750 
Q 750 597 1062 519 
Q 1375 441 1716 441 
Q 2309 441 2620 675 
Q 2931 909 2931 1356 
Q 2931 1769 2642 2001 
Q 2353 2234 1838 2234 
L 1294 2234 
L 1294 2753 
L 1863 2753 
Q 2328 2753 2575 2939 
Q 2822 3125 2822 3475 
Q 2822 3834 2567 4026 
Q 2313 4219 1838 4219 
Q 1578 4219 1281 4162 
Q 984 4106 628 3988 
L 628 4550 
Q 988 4650 1302 4700 
Q 1616 4750 1894 4750 
Q 2613 4750 3031 4423 
Q 3450 4097 3450 3541 
Q 3450 3153 3228 2886 
Q 3006 2619 2597 2516 
z
" transform="scale(0.015625)"/>
       </defs>
       <use xlink:href="#DejaVuSans-2d"/>
       <use xlink:href="#DejaVuSans-33" x="36.083984"/>
      </g>
     </g>
    </g>
    <g id="xtick_6">
     <g id="line2d_6">
      <g>
       <use xlink:href="#m31c01e25a9" x="297.385314" y="307.872" style="stroke: #000000; stroke-width: 0.8"/>
      </g>
     </g>
     <g id="text_6">
      <!-- -2 -->
      <g transform="translate(292.400158 322.470438) scale(0.1 -0.1)">
       <defs>
        <path id="DejaVuSans-32" d="M 1228 531 
L 3431 531 
L 3431 0 
L 469 0 
L 469 531 
Q 828 903 1448 1529 
Q 2069 2156 2228 2338 
Q 2531 2678 2651 2914 
Q 2772 3150 2772 3378 
Q 2772 3750 2511 3984 
Q 2250 4219 1831 4219 
Q 1534 4219 1204 4116 
Q 875 4013 500 3803 
L 500 4441 
Q 881 4594 1212 4672 
Q 1544 4750 1819 4750 
Q 2544 4750 2975 4387 
Q 3406 4025 3406 3419 
Q 3406 3131 3298 2873 
Q 3191 2616 2906 2266 
Q 2828 2175 2409 1742 
Q 1991 1309 1228 531 
z
" transform="scale(0.015625)"/>
       </defs>
       <use xlink:href="#DejaVuSans-2d"/>
       <use xlink:href="#DejaVuSans-32" x="36.083984"/>
      </g>
     </g>
    </g>
    <g id="xtick_7">
     <g id="line2d_7">
      <g>
       <use xlink:href="#m31c01e25a9" x="344.389065" y="307.872" style="stroke: #000000; stroke-width: 0.8"/>
      </g>
     </g>
     <g id="text_7">
      <!-- -1 -->
      <g transform="translate(339.403908 322.470438) scale(0.1 -0.1)">
       <defs>
        <path id="DejaVuSans-31" d="M 794 531 
L 1825 531 
L 1825 4091 
L 703 3866 
L 703 4441 
L 1819 4666 
L 2450 4666 
L 2450 531 
L 3481 531 
L 3481 0 
L 794 0 
L 794 531 
z
" transform="scale(0.015625)"/>
       </defs>
       <use xlink:href="#DejaVuSans-2d"/>
       <use xlink:href="#DejaVuSans-31" x="36.083984"/>
      </g>
     </g>
    </g>
    <g id="xtick_8">
     <g id="line2d_8">
      <g>
       <use xlink:href="#m31c01e25a9" x="391.392815" y="307.872" style="stroke: #000000; stroke-width: 0.8"/>
      </g>
     </g>
     <g id="text_8">
      <!-- 0 -->
      <g transform="translate(388.211565 322.470438) scale(0.1 -0.1)">
       <defs>
        <path id="DejaVuSans-30" d="M 2034 4250 
Q 1547 4250 1301 3770 
Q 1056 3291 1056 2328 
Q 1056 1369 1301 889 
Q 1547 409 2034 409 
Q 2525 409 2770 889 
Q 3016 1369 3016 2328 
Q 3016 3291 2770 3770 
Q 2525 4250 2034 4250 
z
M 2034 4750 
Q 2819 4750 3233 4129 
Q 3647 3509 3647 2328 
Q 3647 1150 3233 529 
Q 2819 -91 2034 -91 
Q 1250 -91 836 529 
Q 422 1150 422 2328 
Q 422 3509 836 4129 
Q 1250 4750 2034 4750 
z
" transform="scale(0.015625)"/>
       </defs>
       <use xlink:href="#DejaVuSans-30"/>
      </g>
     </g>
    </g>
    <g id="text_9">
     <!-- Re$(S_{21})$ [mV] -->
     <g transform="translate(184.408438 336.148562) scale(0.1 -0.1)">
      <defs>
       <path id="DejaVuSans-52" d="M 2841 2188 
Q 3044 2119 3236 1894 
Q 3428 1669 3622 1275 
L 4263 0 
L 3584 0 
L 2988 1197 
Q 2756 1666 2539 1819 
Q 2322 1972 1947 1972 
L 1259 1972 
L 1259 0 
L 628 0 
L 628 4666 
L 2053 4666 
Q 2853 4666 3247 4331 
Q 3641 3997 3641 3322 
Q 3641 2881 3436 2590 
Q 3231 2300 2841 2188 
z
M 1259 4147 
L 1259 2491 
L 2053 2491 
Q 2509 2491 2742 2702 
Q 2975 2913 2975 3322 
Q 2975 3731 2742 3939 
Q 2509 4147 2053 4147 
L 1259 4147 
z
" transform="scale(0.015625)"/>
       <path id="DejaVuSans-65" d="M 3597 1894 
L 3597 1613 
L 953 1613 
Q 991 1019 1311 708 
Q 1631 397 2203 397 
Q 2534 397 2845 478 
Q 3156 559 3463 722 
L 3463 178 
Q 3153 47 2828 -22 
Q 2503 -91 2169 -91 
Q 1331 -91 842 396 
Q 353 884 353 1716 
Q 353 2575 817 3079 
Q 1281 3584 2069 3584 
Q 2775 3584 3186 3129 
Q 3597 2675 3597 1894 
z
M 3022 2063 
Q 3016 2534 2758 2815 
Q 2500 3097 2075 3097 
Q 1594 3097 1305 2825 
Q 1016 2553 972 2059 
L 3022 2063 
z
" transform="scale(0.015625)"/>
       <path id="DejaVuSans-28" d="M 1984 4856 
Q 1566 4138 1362 3434 
Q 1159 2731 1159 2009 
Q 1159 1288 1364 580 
Q 1569 -128 1984 -844 
L 1484 -844 
Q 1016 -109 783 600 
Q 550 1309 550 2009 
Q 550 2706 781 3412 
Q 1013 4119 1484 4856 
L 1984 4856 
z
" transform="scale(0.015625)"/>
       <path id="DejaVuSans-Oblique-53" d="M 3859 4513 
L 3738 3897 
Q 3422 4066 3111 4152 
Q 2800 4238 2509 4238 
Q 1944 4238 1609 3991 
Q 1275 3744 1275 3334 
Q 1275 3109 1398 2989 
Q 1522 2869 2034 2731 
L 2413 2638 
Q 3053 2472 3303 2217 
Q 3553 1963 3553 1503 
Q 3553 797 2998 353 
Q 2444 -91 1538 -91 
Q 1166 -91 791 -17 
Q 416 56 38 206 
L 166 856 
Q 513 641 861 531 
Q 1209 422 1556 422 
Q 2147 422 2503 684 
Q 2859 947 2859 1369 
Q 2859 1650 2717 1795 
Q 2575 1941 2106 2059 
L 1728 2156 
Q 1081 2325 845 2545 
Q 609 2766 609 3163 
Q 609 3859 1145 4304 
Q 1681 4750 2541 4750 
Q 2875 4750 3203 4690 
Q 3531 4631 3859 4513 
z
" transform="scale(0.015625)"/>
       <path id="DejaVuSans-29" d="M 513 4856 
L 1013 4856 
Q 1481 4119 1714 3412 
Q 1947 2706 1947 2009 
Q 1947 1309 1714 600 
Q 1481 -109 1013 -844 
L 513 -844 
Q 928 -128 1133 580 
Q 1338 1288 1338 2009 
Q 1338 2731 1133 3434 
Q 928 4138 513 4856 
z
" transform="scale(0.015625)"/>
       <path id="DejaVuSans-20" transform="scale(0.015625)"/>
       <path id="DejaVuSans-5b" d="M 550 4863 
L 1875 4863 
L 1875 4416 
L 1125 4416 
L 1125 -397 
L 1875 -397 
L 1875 -844 
L 550 -844 
L 550 4863 
z
" transform="scale(0.015625)"/>
       <path id="DejaVuSans-6d" d="M 3328 2828 
Q 3544 3216 3844 3400 
Q 4144 3584 4550 3584 
Q 5097 3584 5394 3201 
Q 5691 2819 5691 2113 
L 5691 0 
L 5113 0 
L 5113 2094 
Q 5113 2597 4934 2840 
Q 4756 3084 4391 3084 
Q 3944 3084 3684 2787 
Q 3425 2491 3425 1978 
L 3425 0 
L 2847 0 
L 2847 2094 
Q 2847 2600 2669 2842 
Q 2491 3084 2119 3084 
Q 1678 3084 1418 2786 
Q 1159 2488 1159 1978 
L 1159 0 
L 581 0 
L 581 3500 
L 1159 3500 
L 1159 2956 
Q 1356 3278 1631 3431 
Q 1906 3584 2284 3584 
Q 2666 3584 2933 3390 
Q 3200 3197 3328 2828 
z
" transform="scale(0.015625)"/>
       <path id="DejaVuSans-56" d="M 1831 0 
L 50 4666 
L 709 4666 
L 2188 738 
L 3669 4666 
L 4325 4666 
L 2547 0 
L 1831 0 
z
" transform="scale(0.015625)"/>
       <path id="DejaVuSans-5d" d="M 1947 4863 
L 1947 -844 
L 622 -844 
L 622 -397 
L 1369 -397 
L 1369 4416 
L 622 4416 
L 622 4863 
L 1947 4863 
z
" transform="scale(0.015625)"/>
      </defs>
      <use xlink:href="#DejaVuSans-52" transform="translate(0 0.015625)"/>
      <use xlink:href="#DejaVuSans-65" transform="translate(69.482422 0.015625)"/>
      <use xlink:href="#DejaVuSans-28" transform="translate(131.005859 0.015625)"/>
      <use xlink:href="#DejaVuSans-Oblique-53" transform="translate(170.019531 0.015625)"/>
      <use xlink:href="#DejaVuSans-32" transform="translate(233.496094 -16.390625) scale(0.7)"/>
      <use xlink:href="#DejaVuSans-31" transform="translate(278.032227 -16.390625) scale(0.7)"/>
      <use xlink:href="#DejaVuSans-29" transform="translate(325.302734 0.015625)"/>
      <use xlink:href="#DejaVuSans-20" transform="translate(364.316406 0.015625)"/>
      <use xlink:href="#DejaVuSans-5b" transform="translate(396.103516 0.015625)"/>
      <use xlink:href="#DejaVuSans-6d" transform="translate(435.117188 0.015625)"/>
      <use xlink:href="#DejaVuSans-56" transform="translate(532.529297 0.015625)"/>
      <use xlink:href="#DejaVuSans-5d" transform="translate(600.9375 0.015625)"/>
     </g>
    </g>
   </g>
   <g id="matplotlib.axis_2">
    <g id="ytick_1">
     <g id="line2d_9">
      <defs>
       <path id="m0304983e52" d="M 0 0 
L -3.5 0 
" style="stroke: #000000; stroke-width: 0.8"/>
      </defs>
      <g>
       <use xlink:href="#m0304983e52" x="37.848438" y="300.499864" style="stroke: #000000; stroke-width: 0.8"/>
      </g>
     </g>
     <g id="text_10">
      <!-- -1 -->
      <g transform="translate(20.878125 304.299083) scale(0.1 -0.1)">
       <use xlink:href="#DejaVuSans-2d"/>
       <use xlink:href="#DejaVuSans-31" x="36.083984"/>
      </g>
     </g>
    </g>
    <g id="ytick_2">
     <g id="line2d_10">
      <g>
       <use xlink:href="#m0304983e52" x="37.848438" y="269.494711" style="stroke: #000000; stroke-width: 0.8"/>
      </g>
     </g>
     <g id="text_11">
      <!-- 0 -->
      <g transform="translate(24.485938 273.29393) scale(0.1 -0.1)">
       <use xlink:href="#DejaVuSans-30"/>
      </g>
     </g>
    </g>
    <g id="ytick_3">
     <g id="line2d_11">
      <g>
       <use xlink:href="#m0304983e52" x="37.848438" y="238.489558" style="stroke: #000000; stroke-width: 0.8"/>
      </g>
     </g>
     <g id="text_12">
      <!-- 1 -->
      <g transform="translate(24.485938 242.288776) scale(0.1 -0.1)">
       <use xlink:href="#DejaVuSans-31"/>
      </g>
     </g>
    </g>
    <g id="ytick_4">
     <g id="line2d_12">
      <g>
       <use xlink:href="#m0304983e52" x="37.848438" y="207.484405" style="stroke: #000000; stroke-width: 0.8"/>
      </g>
     </g>
     <g id="text_13">
      <!-- 2 -->
      <g transform="translate(24.485938 211.283623) scale(0.1 -0.1)">
       <use xlink:href="#DejaVuSans-32"/>
      </g>
     </g>
    </g>
    <g id="ytick_5">
     <g id="line2d_13">
      <g>
       <use xlink:href="#m0304983e52" x="37.848438" y="176.479252" style="stroke: #000000; stroke-width: 0.8"/>
      </g>
     </g>
     <g id="text_14">
      <!-- 3 -->
      <g transform="translate(24.485938 180.27847) scale(0.1 -0.1)">
       <use xlink:href="#DejaVuSans-33"/>
      </g>
     </g>
    </g>
    <g id="ytick_6">
     <g id="line2d_14">
      <g>
       <use xlink:href="#m0304983e52" x="37.848438" y="145.474098" style="stroke: #000000; stroke-width: 0.8"/>
      </g>
     </g>
     <g id="text_15">
      <!-- 4 -->
      <g transform="translate(24.485938 149.273317) scale(0.1 -0.1)">
       <use xlink:href="#DejaVuSans-34"/>
      </g>
     </g>
    </g>
    <g id="ytick_7">
     <g id="line2d_15">
      <g>
       <use xlink:href="#m0304983e52" x="37.848438" y="114.468945" style="stroke: #000000; stroke-width: 0.8"/>
      </g>
     </g>
     <g id="text_16">
      <!-- 5 -->
      <g transform="translate(24.485938 118.268164) scale(0.1 -0.1)">
       <use xlink:href="#DejaVuSans-35"/>
      </g>
     </g>
    </g>
    <g id="ytick_8">
     <g id="line2d_16">
      <g>
       <use xlink:href="#m0304983e52" x="37.848438" y="83.463792" style="stroke: #000000; stroke-width: 0.8"/>
      </g>
     </g>
     <g id="text_17">
      <!-- 6 -->
      <g transform="translate(24.485938 87.263011) scale(0.1 -0.1)">
       <use xlink:href="#DejaVuSans-36"/>
      </g>
     </g>
    </g>
    <g id="ytick_9">
     <g id="line2d_17">
      <g>
       <use xlink:href="#m0304983e52" x="37.848438" y="52.458639" style="stroke: #000000; stroke-width: 0.8"/>
      </g>
     </g>
     <g id="text_18">
      <!-- 7 -->
      <g transform="translate(24.485938 56.257858) scale(0.1 -0.1)">
       <use xlink:href="#DejaVuSans-37"/>
      </g>
     </g>
    </g>
    <g id="text_19">
     <!-- Im$(S_{21})$ [mV] -->
     <g transform="translate(14.798438 206.466) rotate(-90) scale(0.1 -0.1)">
      <defs>
       <path id="DejaVuSans-49" d="M 628 4666 
L 1259 4666 
L 1259 0 
L 628 0 
L 628 4666 
z
" transform="scale(0.015625)"/>
      </defs>
      <use xlink:href="#DejaVuSans-49" transform="translate(0 0.015625)"/>
      <use xlink:href="#DejaVuSans-6d" transform="translate(25.867188 0.015625)"/>
      <use xlink:href="#DejaVuSans-28" transform="translate(123.279297 0.015625)"/>
      <use xlink:href="#DejaVuSans-Oblique-53" transform="translate(162.292969 0.015625)"/>
      <use xlink:href="#DejaVuSans-32" transform="translate(225.769531 -16.390625) scale(0.7)"/>
      <use xlink:href="#DejaVuSans-31" transform="translate(270.305664 -16.390625) scale(0.7)"/>
      <use xlink:href="#DejaVuSans-29" transform="translate(317.576172 0.015625)"/>
      <use xlink:href="#DejaVuSans-20" transform="translate(356.589844 0.015625)"/>
      <use xlink:href="#DejaVuSans-5b" transform="translate(388.376953 0.015625)"/>
      <use xlink:href="#DejaVuSans-6d" transform="translate(427.390625 0.015625)"/>
      <use xlink:href="#DejaVuSans-56" transform="translate(524.802734 0.015625)"/>
      <use xlink:href="#DejaVuSans-5d" transform="translate(593.210938 0.015625)"/>
     </g>
    </g>
   </g>
   <g id="line2d_18">
    <path d="M 54.081165 75.842614 
L 64.456178 75.575259 
L 65.575869 73.417335 
L 72.147924 67.231518 
L 84.280724 67.865624 
L 78.551537 68.352807 
L 81.73625 63.831133 
L 94.239559 68.10181 
L 104.557269 63.190667 
L 100.791049 64.818122 
L 110.339523 57.408087 
L 124.131066 56.275725 
L 124.897189 59.567492 
L 134.322177 60.617658 
L 146.334706 57.85158 
L 151.713642 58.405779 
L 148.261393 55.248918 
L 155.305246 54.001879 
L 161.357384 53.856 
L 169.725699 56.539444 
L 175.581535 58.560644 
L 184.344649 57.962824 
L 197.806148 58.800702 
L 198.878689 57.455412 
L 205.533306 59.343052 
L 216.161619 59.744976 
L 217.696671 58.855701 
L 223.175569 62.088867 
L 230.083077 62.223335 
L 237.664808 67.250368 
L 243.553811 69.678204 
L 254.083437 74.584669 
L 256.049313 69.017878 
L 269.066875 68.39552 
L 277.091318 73.191112 
L 277.667262 78.919466 
L 287.690902 82.248225 
L 291.629594 81.318087 
L 303.030408 83.495196 
L 305.668006 79.994945 
L 305.842213 88.813246 
L 307.66705 86.825536 
L 322.731671 91.716148 
L 315.441204 96.813763 
L 328.54143 103.238796 
L 332.413582 106.345437 
L 335.799546 107.465345 
L 341.532712 113.731069 
L 343.896907 119.229026 
L 344.927861 120.783811 
L 351.429754 127.985327 
L 353.914678 130.033017 
L 355.950104 135.867668 
L 364.993919 135.932327 
L 361.295515 138.743171 
L 369.811657 145.658551 
L 365.319575 146.289829 
L 368.237466 153.375591 
L 373.162514 158.734132 
L 371.221131 160.296625 
L 370.378212 165.29811 
L 370.514098 173.228044 
L 375.93508 177.218508 
L 368.550773 178.053996 
L 367.205236 186.269966 
L 378.502771 193.284438 
L 373.717435 192.741415 
L 378.73571 194.786513 
L 372.965906 199.036287 
L 372.462573 202.299073 
L 369.378078 207.977915 
L 367.029651 211.377863 
L 368.038103 214.198872 
L 366.057684 216.283352 
L 369.656228 219.226982 
L 362.319989 216.381502 
L 359.955386 226.12543 
L 356.187075 231.431127 
L 360.327273 232.725558 
L 349.617827 235.600085 
L 349.167103 237.80557 
L 347.565613 240.627892 
L 348.331481 242.150397 
L 349.936696 244.504318 
L 342.319144 250.109144 
L 340.681833 251.150593 
L 332.355309 255.742681 
L 327.699021 257.441258 
L 327.021124 258.135276 
L 327.581199 260.892603 
L 324.607484 262.378487 
L 319.764794 265.621751 
L 316.425571 269.549104 
L 306.857911 268.688338 
L 310.242242 269.639916 
L 305.817414 269.949009 
L 296.721858 275.102162 
L 297.235345 273.621124 
L 292.60401 273.709311 
L 298.598487 274.453314 
L 288.790846 277.779144 
L 283.794359 280.465045 
L 288.18403 280.063861 
L 278.192078 281.260445 
L 279.622269 283.541864 
L 275.729911 283.716758 
L 277.272312 285.303081 
L 273.769801 285.642298 
L 264.966019 285.092644 
L 258.245322 285.177162 
L 266.429378 285.520688 
L 258.147758 285.788615 
L 253.746045 287.22152 
L 254.595241 288.760417 
L 249.091135 288.456441 
L 252.132768 290.852201 
L 240.185043 291.355574 
L 245.454628 291.649822 
L 237.233066 291.011274 
L 238.881042 288.559876 
L 234.255422 291.327536 
L 232.351697 291.666012 
L 229.258732 289.524851 
L 226.574188 290.259126 
L 226.651086 288.009447 
L 223.252722 295.776 
L 218.890199 290.660444 
L 220.53047 289.710178 
L 217.714735 292.549869 
L 215.522196 291.272604 
L 211.416544 292.271036 
L 209.215739 292.526745 
L 210.351095 289.847238 
L 211.546255 291.098182 
L 200.625352 291.446857 
L 202.940203 290.072923 
L 203.268155 293.125744 
L 194.783498 289.951885 
L 195.477621 291.757161 
L 194.863151 291.086368 
L 192.213051 288.012679 
L 188.757026 293.001844 
L 192.505335 290.745063 
L 189.05227 291.451334 
L 188.716256 291.755546 
L 181.626785 288.457182 
L 183.263994 293.032541 
L 183.776767 288.304773 
L 179.321578 290.935204 
L 183.451774 287.942667 
L 174.728258 288.908619 
L 177.336363 289.80025 
L 170.40528 287.767101 
L 170.530246 289.722161 
L 172.7757 287.937888 
L 167.537396 285.98478 
L 165.028182 287.366557 
L 167.851366 288.728441 
L 164.483313 285.138521 
L 162.66613 287.455989 
L 157.778894 285.958459 
L 161.080612 288.162193 
L 156.021617 283.070569 
L 157.086913 282.765213 
L 158.100825 283.046603 
L 156.643946 283.718508 
L 153.244153 281.414806 
L 154.702104 281.87449 
L 152.948654 282.458678 
L 151.77865 283.308505 
L 149.716078 283.774618 
L 146.107635 283.688585 
L 147.015665 278.211462 
L 140.288436 282.675645 
L 142.465463 281.918751 
L 144.069709 280.504393 
L 148.211642 277.186372 
L 140.296499 278.52769 
L 147.25983 279.149846 
L 138.055025 277.444672 
L 134.367745 277.988638 
L 138.642451 278.552261 
L 137.846425 279.83545 
L 139.233856 276.458627 
L 136.629783 278.667342 
L 136.55416 277.169946 
L 132.459173 276.377912 
L 131.498176 273.180492 
L 126.32733 277.270587 
L 130.697865 273.902683 
L 132.224958 276.262326 
L 129.075709 276.655365 
L 125.349852 270.4543 
L 129.474232 274.660924 
L 122.475436 272.57052 
L 125.460734 273.396954 
L 124.055801 270.248508 
L 121.115764 272.936867 
L 121.856731 272.452478 
L 121.856731 272.452478 
" clip-path="url(#p3349771f89)" style="fill: none; stroke: #1f77b4; stroke-width: 1.5; stroke-linecap: square"/>
    <defs>
     <path id="mdb27c61bb7" d="M 0 1.5 
C 0.397805 1.5 0.77937 1.341951 1.06066 1.06066 
C 1.341951 0.77937 1.5 0.397805 1.5 0 
C 1.5 -0.397805 1.341951 -0.77937 1.06066 -1.06066 
C 0.77937 -1.341951 0.397805 -1.5 0 -1.5 
C -0.397805 -1.5 -0.77937 -1.341951 -1.06066 -1.06066 
C -1.341951 -0.77937 -1.5 -0.397805 -1.5 0 
C -1.5 0.397805 -1.341951 0.77937 -1.06066 1.06066 
C -0.77937 1.341951 -0.397805 1.5 0 1.5 
z
" style="stroke: #1f77b4"/>
    </defs>
    <g clip-path="url(#p3349771f89)">
     <use xlink:href="#mdb27c61bb7" x="54.081165" y="75.842614" style="fill: #1f77b4; stroke: #1f77b4"/>
     <use xlink:href="#mdb27c61bb7" x="64.456178" y="75.575259" style="fill: #1f77b4; stroke: #1f77b4"/>
     <use xlink:href="#mdb27c61bb7" x="65.575869" y="73.417335" style="fill: #1f77b4; stroke: #1f77b4"/>
     <use xlink:href="#mdb27c61bb7" x="72.147924" y="67.231518" style="fill: #1f77b4; stroke: #1f77b4"/>
     <use xlink:href="#mdb27c61bb7" x="84.280724" y="67.865624" style="fill: #1f77b4; stroke: #1f77b4"/>
     <use xlink:href="#mdb27c61bb7" x="78.551537" y="68.352807" style="fill: #1f77b4; stroke: #1f77b4"/>
     <use xlink:href="#mdb27c61bb7" x="81.73625" y="63.831133" style="fill: #1f77b4; stroke: #1f77b4"/>
     <use xlink:href="#mdb27c61bb7" x="94.239559" y="68.10181" style="fill: #1f77b4; stroke: #1f77b4"/>
     <use xlink:href="#mdb27c61bb7" x="104.557269" y="63.190667" style="fill: #1f77b4; stroke: #1f77b4"/>
     <use xlink:href="#mdb27c61bb7" x="100.791049" y="64.818122" style="fill: #1f77b4; stroke: #1f77b4"/>
     <use xlink:href="#mdb27c61bb7" x="110.339523" y="57.408087" style="fill: #1f77b4; stroke: #1f77b4"/>
     <use xlink:href="#mdb27c61bb7" x="124.131066" y="56.275725" style="fill: #1f77b4; stroke: #1f77b4"/>
     <use xlink:href="#mdb27c61bb7" x="124.897189" y="59.567492" style="fill: #1f77b4; stroke: #1f77b4"/>
     <use xlink:href="#mdb27c61bb7" x="134.322177" y="60.617658" style="fill: #1f77b4; stroke: #1f77b4"/>
     <use xlink:href="#mdb27c61bb7" x="146.334706" y="57.85158" style="fill: #1f77b4; stroke: #1f77b4"/>
     <use xlink:href="#mdb27c61bb7" x="151.713642" y="58.405779" style="fill: #1f77b4; stroke: #1f77b4"/>
     <use xlink:href="#mdb27c61bb7" x="148.261393" y="55.248918" style="fill: #1f77b4; stroke: #1f77b4"/>
     <use xlink:href="#mdb27c61bb7" x="155.305246" y="54.001879" style="fill: #1f77b4; stroke: #1f77b4"/>
     <use xlink:href="#mdb27c61bb7" x="161.357384" y="53.856" style="fill: #1f77b4; stroke: #1f77b4"/>
     <use xlink:href="#mdb27c61bb7" x="169.725699" y="56.539444" style="fill: #1f77b4; stroke: #1f77b4"/>
     <use xlink:href="#mdb27c61bb7" x="175.581535" y="58.560644" style="fill: #1f77b4; stroke: #1f77b4"/>
     <use xlink:href="#mdb27c61bb7" x="184.344649" y="57.962824" style="fill: #1f77b4; stroke: #1f77b4"/>
     <use xlink:href="#mdb27c61bb7" x="197.806148" y="58.800702" style="fill: #1f77b4; stroke: #1f77b4"/>
     <use xlink:href="#mdb27c61bb7" x="198.878689" y="57.455412" style="fill: #1f77b4; stroke: #1f77b4"/>
     <use xlink:href="#mdb27c61bb7" x="205.533306" y="59.343052" style="fill: #1f77b4; stroke: #1f77b4"/>
     <use xlink:href="#mdb27c61bb7" x="216.161619" y="59.744976" style="fill: #1f77b4; stroke: #1f77b4"/>
     <use xlink:href="#mdb27c61bb7" x="217.696671" y="58.855701" style="fill: #1f77b4; stroke: #1f77b4"/>
     <use xlink:href="#mdb27c61bb7" x="223.175569" y="62.088867" style="fill: #1f77b4; stroke: #1f77b4"/>
     <use xlink:href="#mdb27c61bb7" x="230.083077" y="62.223335" style="fill: #1f77b4; stroke: #1f77b4"/>
     <use xlink:href="#mdb27c61bb7" x="237.664808" y="67.250368" style="fill: #1f77b4; stroke: #1f77b4"/>
     <use xlink:href="#mdb27c61bb7" x="243.553811" y="69.678204" style="fill: #1f77b4; stroke: #1f77b4"/>
     <use xlink:href="#mdb27c61bb7" x="254.083437" y="74.584669" style="fill: #1f77b4; stroke: #1f77b4"/>
     <use xlink:href="#mdb27c61bb7" x="256.049313" y="69.017878" style="fill: #1f77b4; stroke: #1f77b4"/>
     <use xlink:href="#mdb27c61bb7" x="269.066875" y="68.39552" style="fill: #1f77b4; stroke: #1f77b4"/>
     <use xlink:href="#mdb27c61bb7" x="277.091318" y="73.191112" style="fill: #1f77b4; stroke: #1f77b4"/>
     <use xlink:href="#mdb27c61bb7" x="277.667262" y="78.919466" style="fill: #1f77b4; stroke: #1f77b4"/>
     <use xlink:href="#mdb27c61bb7" x="287.690902" y="82.248225" style="fill: #1f77b4; stroke: #1f77b4"/>
     <use xlink:href="#mdb27c61bb7" x="291.629594" y="81.318087" style="fill: #1f77b4; stroke: #1f77b4"/>
     <use xlink:href="#mdb27c61bb7" x="303.030408" y="83.495196" style="fill: #1f77b4; stroke: #1f77b4"/>
     <use xlink:href="#mdb27c61bb7" x="305.668006" y="79.994945" style="fill: #1f77b4; stroke: #1f77b4"/>
     <use xlink:href="#mdb27c61bb7" x="305.842213" y="88.813246" style="fill: #1f77b4; stroke: #1f77b4"/>
     <use xlink:href="#mdb27c61bb7" x="307.66705" y="86.825536" style="fill: #1f77b4; stroke: #1f77b4"/>
     <use xlink:href="#mdb27c61bb7" x="322.731671" y="91.716148" style="fill: #1f77b4; stroke: #1f77b4"/>
     <use xlink:href="#mdb27c61bb7" x="315.441204" y="96.813763" style="fill: #1f77b4; stroke: #1f77b4"/>
     <use xlink:href="#mdb27c61bb7" x="328.54143" y="103.238796" style="fill: #1f77b4; stroke: #1f77b4"/>
     <use xlink:href="#mdb27c61bb7" x="332.413582" y="106.345437" style="fill: #1f77b4; stroke: #1f77b4"/>
     <use xlink:href="#mdb27c61bb7" x="335.799546" y="107.465345" style="fill: #1f77b4; stroke: #1f77b4"/>
     <use xlink:href="#mdb27c61bb7" x="341.532712" y="113.731069" style="fill: #1f77b4; stroke: #1f77b4"/>
     <use xlink:href="#mdb27c61bb7" x="343.896907" y="119.229026" style="fill: #1f77b4; stroke: #1f77b4"/>
     <use xlink:href="#mdb27c61bb7" x="344.927861" y="120.783811" style="fill: #1f77b4; stroke: #1f77b4"/>
     <use xlink:href="#mdb27c61bb7" x="351.429754" y="127.985327" style="fill: #1f77b4; stroke: #1f77b4"/>
     <use xlink:href="#mdb27c61bb7" x="353.914678" y="130.033017" style="fill: #1f77b4; stroke: #1f77b4"/>
     <use xlink:href="#mdb27c61bb7" x="355.950104" y="135.867668" style="fill: #1f77b4; stroke: #1f77b4"/>
     <use xlink:href="#mdb27c61bb7" x="364.993919" y="135.932327" style="fill: #1f77b4; stroke: #1f77b4"/>
     <use xlink:href="#mdb27c61bb7" x="361.295515" y="138.743171" style="fill: #1f77b4; stroke: #1f77b4"/>
     <use xlink:href="#mdb27c61bb7" x="369.811657" y="145.658551" style="fill: #1f77b4; stroke: #1f77b4"/>
     <use xlink:href="#mdb27c61bb7" x="365.319575" y="146.289829" style="fill: #1f77b4; stroke: #1f77b4"/>
     <use xlink:href="#mdb27c61bb7" x="368.237466" y="153.375591" style="fill: #1f77b4; stroke: #1f77b4"/>
     <use xlink:href="#mdb27c61bb7" x="373.162514" y="158.734132" style="fill: #1f77b4; stroke: #1f77b4"/>
     <use xlink:href="#mdb27c61bb7" x="371.221131" y="160.296625" style="fill: #1f77b4; stroke: #1f77b4"/>
     <use xlink:href="#mdb27c61bb7" x="370.378212" y="165.29811" style="fill: #1f77b4; stroke: #1f77b4"/>
     <use xlink:href="#mdb27c61bb7" x="370.514098" y="173.228044" style="fill: #1f77b4; stroke: #1f77b4"/>
     <use xlink:href="#mdb27c61bb7" x="375.93508" y="177.218508" style="fill: #1f77b4; stroke: #1f77b4"/>
     <use xlink:href="#mdb27c61bb7" x="368.550773" y="178.053996" style="fill: #1f77b4; stroke: #1f77b4"/>
     <use xlink:href="#mdb27c61bb7" x="367.205236" y="186.269966" style="fill: #1f77b4; stroke: #1f77b4"/>
     <use xlink:href="#mdb27c61bb7" x="378.502771" y="193.284438" style="fill: #1f77b4; stroke: #1f77b4"/>
     <use xlink:href="#mdb27c61bb7" x="373.717435" y="192.741415" style="fill: #1f77b4; stroke: #1f77b4"/>
     <use xlink:href="#mdb27c61bb7" x="378.73571" y="194.786513" style="fill: #1f77b4; stroke: #1f77b4"/>
     <use xlink:href="#mdb27c61bb7" x="372.965906" y="199.036287" style="fill: #1f77b4; stroke: #1f77b4"/>
     <use xlink:href="#mdb27c61bb7" x="372.462573" y="202.299073" style="fill: #1f77b4; stroke: #1f77b4"/>
     <use xlink:href="#mdb27c61bb7" x="369.378078" y="207.977915" style="fill: #1f77b4; stroke: #1f77b4"/>
     <use xlink:href="#mdb27c61bb7" x="367.029651" y="211.377863" style="fill: #1f77b4; stroke: #1f77b4"/>
     <use xlink:href="#mdb27c61bb7" x="368.038103" y="214.198872" style="fill: #1f77b4; stroke: #1f77b4"/>
     <use xlink:href="#mdb27c61bb7" x="366.057684" y="216.283352" style="fill: #1f77b4; stroke: #1f77b4"/>
     <use xlink:href="#mdb27c61bb7" x="369.656228" y="219.226982" style="fill: #1f77b4; stroke: #1f77b4"/>
     <use xlink:href="#mdb27c61bb7" x="362.319989" y="216.381502" style="fill: #1f77b4; stroke: #1f77b4"/>
     <use xlink:href="#mdb27c61bb7" x="359.955386" y="226.12543" style="fill: #1f77b4; stroke: #1f77b4"/>
     <use xlink:href="#mdb27c61bb7" x="356.187075" y="231.431127" style="fill: #1f77b4; stroke: #1f77b4"/>
     <use xlink:href="#mdb27c61bb7" x="360.327273" y="232.725558" style="fill: #1f77b4; stroke: #1f77b4"/>
     <use xlink:href="#mdb27c61bb7" x="349.617827" y="235.600085" style="fill: #1f77b4; stroke: #1f77b4"/>
     <use xlink:href="#mdb27c61bb7" x="349.167103" y="237.80557" style="fill: #1f77b4; stroke: #1f77b4"/>
     <use xlink:href="#mdb27c61bb7" x="347.565613" y="240.627892" style="fill: #1f77b4; stroke: #1f77b4"/>
     <use xlink:href="#mdb27c61bb7" x="348.331481" y="242.150397" style="fill: #1f77b4; stroke: #1f77b4"/>
     <use xlink:href="#mdb27c61bb7" x="349.936696" y="244.504318" style="fill: #1f77b4; stroke: #1f77b4"/>
     <use xlink:href="#mdb27c61bb7" x="342.319144" y="250.109144" style="fill: #1f77b4; stroke: #1f77b4"/>
     <use xlink:href="#mdb27c61bb7" x="340.681833" y="251.150593" style="fill: #1f77b4; stroke: #1f77b4"/>
     <use xlink:href="#mdb27c61bb7" x="332.355309" y="255.742681" style="fill: #1f77b4; stroke: #1f77b4"/>
     <use xlink:href="#mdb27c61bb7" x="327.699021" y="257.441258" style="fill: #1f77b4; stroke: #1f77b4"/>
     <use xlink:href="#mdb27c61bb7" x="327.021124" y="258.135276" style="fill: #1f77b4; stroke: #1f77b4"/>
     <use xlink:href="#mdb27c61bb7" x="327.581199" y="260.892603" style="fill: #1f77b4; stroke: #1f77b4"/>
     <use xlink:href="#mdb27c61bb7" x="324.607484" y="262.378487" style="fill: #1f77b4; stroke: #1f77b4"/>
     <use xlink:href="#mdb27c61bb7" x="319.764794" y="265.621751" style="fill: #1f77b4; stroke: #1f77b4"/>
     <use xlink:href="#mdb27c61bb7" x="316.425571" y="269.549104" style="fill: #1f77b4; stroke: #1f77b4"/>
     <use xlink:href="#mdb27c61bb7" x="310.450994" y="268.945561" style="fill: #1f77b4; stroke: #1f77b4"/>
     <use xlink:href="#mdb27c61bb7" x="306.857911" y="268.688338" style="fill: #1f77b4; stroke: #1f77b4"/>
     <use xlink:href="#mdb27c61bb7" x="310.242242" y="269.639916" style="fill: #1f77b4; stroke: #1f77b4"/>
     <use xlink:href="#mdb27c61bb7" x="305.817414" y="269.949009" style="fill: #1f77b4; stroke: #1f77b4"/>
     <use xlink:href="#mdb27c61bb7" x="296.721858" y="275.102162" style="fill: #1f77b4; stroke: #1f77b4"/>
     <use xlink:href="#mdb27c61bb7" x="297.235345" y="273.621124" style="fill: #1f77b4; stroke: #1f77b4"/>
     <use xlink:href="#mdb27c61bb7" x="292.60401" y="273.709311" style="fill: #1f77b4; stroke: #1f77b4"/>
     <use xlink:href="#mdb27c61bb7" x="298.598487" y="274.453314" style="fill: #1f77b4; stroke: #1f77b4"/>
     <use xlink:href="#mdb27c61bb7" x="288.790846" y="277.779144" style="fill: #1f77b4; stroke: #1f77b4"/>
     <use xlink:href="#mdb27c61bb7" x="283.794359" y="280.465045" style="fill: #1f77b4; stroke: #1f77b4"/>
     <use xlink:href="#mdb27c61bb7" x="288.18403" y="280.063861" style="fill: #1f77b4; stroke: #1f77b4"/>
     <use xlink:href="#mdb27c61bb7" x="278.192078" y="281.260445" style="fill: #1f77b4; stroke: #1f77b4"/>
     <use xlink:href="#mdb27c61bb7" x="279.622269" y="283.541864" style="fill: #1f77b4; stroke: #1f77b4"/>
     <use xlink:href="#mdb27c61bb7" x="275.729911" y="283.716758" style="fill: #1f77b4; stroke: #1f77b4"/>
     <use xlink:href="#mdb27c61bb7" x="277.272312" y="285.303081" style="fill: #1f77b4; stroke: #1f77b4"/>
     <use xlink:href="#mdb27c61bb7" x="273.769801" y="285.642298" style="fill: #1f77b4; stroke: #1f77b4"/>
     <use xlink:href="#mdb27c61bb7" x="264.966019" y="285.092644" style="fill: #1f77b4; stroke: #1f77b4"/>
     <use xlink:href="#mdb27c61bb7" x="258.245322" y="285.177162" style="fill: #1f77b4; stroke: #1f77b4"/>
     <use xlink:href="#mdb27c61bb7" x="266.429378" y="285.520688" style="fill: #1f77b4; stroke: #1f77b4"/>
     <use xlink:href="#mdb27c61bb7" x="258.147758" y="285.788615" style="fill: #1f77b4; stroke: #1f77b4"/>
     <use xlink:href="#mdb27c61bb7" x="253.746045" y="287.22152" style="fill: #1f77b4; stroke: #1f77b4"/>
     <use xlink:href="#mdb27c61bb7" x="254.595241" y="288.760417" style="fill: #1f77b4; stroke: #1f77b4"/>
     <use xlink:href="#mdb27c61bb7" x="249.091135" y="288.456441" style="fill: #1f77b4; stroke: #1f77b4"/>
     <use xlink:href="#mdb27c61bb7" x="252.132768" y="290.852201" style="fill: #1f77b4; stroke: #1f77b4"/>
     <use xlink:href="#mdb27c61bb7" x="240.185043" y="291.355574" style="fill: #1f77b4; stroke: #1f77b4"/>
     <use xlink:href="#mdb27c61bb7" x="245.454628" y="291.649822" style="fill: #1f77b4; stroke: #1f77b4"/>
     <use xlink:href="#mdb27c61bb7" x="237.233066" y="291.011274" style="fill: #1f77b4; stroke: #1f77b4"/>
     <use xlink:href="#mdb27c61bb7" x="238.881042" y="288.559876" style="fill: #1f77b4; stroke: #1f77b4"/>
     <use xlink:href="#mdb27c61bb7" x="234.255422" y="291.327536" style="fill: #1f77b4; stroke: #1f77b4"/>
     <use xlink:href="#mdb27c61bb7" x="232.351697" y="291.666012" style="fill: #1f77b4; stroke: #1f77b4"/>
     <use xlink:href="#mdb27c61bb7" x="229.258732" y="289.524851" style="fill: #1f77b4; stroke: #1f77b4"/>
     <use xlink:href="#mdb27c61bb7" x="226.574188" y="290.259126" style="fill: #1f77b4; stroke: #1f77b4"/>
     <use xlink:href="#mdb27c61bb7" x="226.651086" y="288.009447" style="fill: #1f77b4; stroke: #1f77b4"/>
     <use xlink:href="#mdb27c61bb7" x="223.252722" y="295.776" style="fill: #1f77b4; stroke: #1f77b4"/>
     <use xlink:href="#mdb27c61bb7" x="218.890199" y="290.660444" style="fill: #1f77b4; stroke: #1f77b4"/>
     <use xlink:href="#mdb27c61bb7" x="220.53047" y="289.710178" style="fill: #1f77b4; stroke: #1f77b4"/>
     <use xlink:href="#mdb27c61bb7" x="217.714735" y="292.549869" style="fill: #1f77b4; stroke: #1f77b4"/>
     <use xlink:href="#mdb27c61bb7" x="215.522196" y="291.272604" style="fill: #1f77b4; stroke: #1f77b4"/>
     <use xlink:href="#mdb27c61bb7" x="211.416544" y="292.271036" style="fill: #1f77b4; stroke: #1f77b4"/>
     <use xlink:href="#mdb27c61bb7" x="209.215739" y="292.526745" style="fill: #1f77b4; stroke: #1f77b4"/>
     <use xlink:href="#mdb27c61bb7" x="210.351095" y="289.847238" style="fill: #1f77b4; stroke: #1f77b4"/>
     <use xlink:href="#mdb27c61bb7" x="211.546255" y="291.098182" style="fill: #1f77b4; stroke: #1f77b4"/>
     <use xlink:href="#mdb27c61bb7" x="200.625352" y="291.446857" style="fill: #1f77b4; stroke: #1f77b4"/>
     <use xlink:href="#mdb27c61bb7" x="202.940203" y="290.072923" style="fill: #1f77b4; stroke: #1f77b4"/>
     <use xlink:href="#mdb27c61bb7" x="203.268155" y="293.125744" style="fill: #1f77b4; stroke: #1f77b4"/>
     <use xlink:href="#mdb27c61bb7" x="194.783498" y="289.951885" style="fill: #1f77b4; stroke: #1f77b4"/>
     <use xlink:href="#mdb27c61bb7" x="195.477621" y="291.757161" style="fill: #1f77b4; stroke: #1f77b4"/>
     <use xlink:href="#mdb27c61bb7" x="194.863151" y="291.086368" style="fill: #1f77b4; stroke: #1f77b4"/>
     <use xlink:href="#mdb27c61bb7" x="192.213051" y="288.012679" style="fill: #1f77b4; stroke: #1f77b4"/>
     <use xlink:href="#mdb27c61bb7" x="188.757026" y="293.001844" style="fill: #1f77b4; stroke: #1f77b4"/>
     <use xlink:href="#mdb27c61bb7" x="192.505335" y="290.745063" style="fill: #1f77b4; stroke: #1f77b4"/>
     <use xlink:href="#mdb27c61bb7" x="189.05227" y="291.451334" style="fill: #1f77b4; stroke: #1f77b4"/>
     <use xlink:href="#mdb27c61bb7" x="188.716256" y="291.755546" style="fill: #1f77b4; stroke: #1f77b4"/>
     <use xlink:href="#mdb27c61bb7" x="181.626785" y="288.457182" style="fill: #1f77b4; stroke: #1f77b4"/>
     <use xlink:href="#mdb27c61bb7" x="183.263994" y="293.032541" style="fill: #1f77b4; stroke: #1f77b4"/>
     <use xlink:href="#mdb27c61bb7" x="183.776767" y="288.304773" style="fill: #1f77b4; stroke: #1f77b4"/>
     <use xlink:href="#mdb27c61bb7" x="179.321578" y="290.935204" style="fill: #1f77b4; stroke: #1f77b4"/>
     <use xlink:href="#mdb27c61bb7" x="183.451774" y="287.942667" style="fill: #1f77b4; stroke: #1f77b4"/>
     <use xlink:href="#mdb27c61bb7" x="174.728258" y="288.908619" style="fill: #1f77b4; stroke: #1f77b4"/>
     <use xlink:href="#mdb27c61bb7" x="177.336363" y="289.80025" style="fill: #1f77b4; stroke: #1f77b4"/>
     <use xlink:href="#mdb27c61bb7" x="170.40528" y="287.767101" style="fill: #1f77b4; stroke: #1f77b4"/>
     <use xlink:href="#mdb27c61bb7" x="170.530246" y="289.722161" style="fill: #1f77b4; stroke: #1f77b4"/>
     <use xlink:href="#mdb27c61bb7" x="172.7757" y="287.937888" style="fill: #1f77b4; stroke: #1f77b4"/>
     <use xlink:href="#mdb27c61bb7" x="167.537396" y="285.98478" style="fill: #1f77b4; stroke: #1f77b4"/>
     <use xlink:href="#mdb27c61bb7" x="165.028182" y="287.366557" style="fill: #1f77b4; stroke: #1f77b4"/>
     <use xlink:href="#mdb27c61bb7" x="167.851366" y="288.728441" style="fill: #1f77b4; stroke: #1f77b4"/>
     <use xlink:href="#mdb27c61bb7" x="164.483313" y="285.138521" style="fill: #1f77b4; stroke: #1f77b4"/>
     <use xlink:href="#mdb27c61bb7" x="162.66613" y="287.455989" style="fill: #1f77b4; stroke: #1f77b4"/>
     <use xlink:href="#mdb27c61bb7" x="157.778894" y="285.958459" style="fill: #1f77b4; stroke: #1f77b4"/>
     <use xlink:href="#mdb27c61bb7" x="161.080612" y="288.162193" style="fill: #1f77b4; stroke: #1f77b4"/>
     <use xlink:href="#mdb27c61bb7" x="156.021617" y="283.070569" style="fill: #1f77b4; stroke: #1f77b4"/>
     <use xlink:href="#mdb27c61bb7" x="157.086913" y="282.765213" style="fill: #1f77b4; stroke: #1f77b4"/>
     <use xlink:href="#mdb27c61bb7" x="158.100825" y="283.046603" style="fill: #1f77b4; stroke: #1f77b4"/>
     <use xlink:href="#mdb27c61bb7" x="156.643946" y="283.718508" style="fill: #1f77b4; stroke: #1f77b4"/>
     <use xlink:href="#mdb27c61bb7" x="153.244153" y="281.414806" style="fill: #1f77b4; stroke: #1f77b4"/>
     <use xlink:href="#mdb27c61bb7" x="154.702104" y="281.87449" style="fill: #1f77b4; stroke: #1f77b4"/>
     <use xlink:href="#mdb27c61bb7" x="152.948654" y="282.458678" style="fill: #1f77b4; stroke: #1f77b4"/>
     <use xlink:href="#mdb27c61bb7" x="151.77865" y="283.308505" style="fill: #1f77b4; stroke: #1f77b4"/>
     <use xlink:href="#mdb27c61bb7" x="149.716078" y="283.774618" style="fill: #1f77b4; stroke: #1f77b4"/>
     <use xlink:href="#mdb27c61bb7" x="146.107635" y="283.688585" style="fill: #1f77b4; stroke: #1f77b4"/>
     <use xlink:href="#mdb27c61bb7" x="147.015665" y="278.211462" style="fill: #1f77b4; stroke: #1f77b4"/>
     <use xlink:href="#mdb27c61bb7" x="140.288436" y="282.675645" style="fill: #1f77b4; stroke: #1f77b4"/>
     <use xlink:href="#mdb27c61bb7" x="142.465463" y="281.918751" style="fill: #1f77b4; stroke: #1f77b4"/>
     <use xlink:href="#mdb27c61bb7" x="144.069709" y="280.504393" style="fill: #1f77b4; stroke: #1f77b4"/>
     <use xlink:href="#mdb27c61bb7" x="148.211642" y="277.186372" style="fill: #1f77b4; stroke: #1f77b4"/>
     <use xlink:href="#mdb27c61bb7" x="140.296499" y="278.52769" style="fill: #1f77b4; stroke: #1f77b4"/>
     <use xlink:href="#mdb27c61bb7" x="147.25983" y="279.149846" style="fill: #1f77b4; stroke: #1f77b4"/>
     <use xlink:href="#mdb27c61bb7" x="138.055025" y="277.444672" style="fill: #1f77b4; stroke: #1f77b4"/>
     <use xlink:href="#mdb27c61bb7" x="134.367745" y="277.988638" style="fill: #1f77b4; stroke: #1f77b4"/>
     <use xlink:href="#mdb27c61bb7" x="138.642451" y="278.552261" style="fill: #1f77b4; stroke: #1f77b4"/>
     <use xlink:href="#mdb27c61bb7" x="137.846425" y="279.83545" style="fill: #1f77b4; stroke: #1f77b4"/>
     <use xlink:href="#mdb27c61bb7" x="139.233856" y="276.458627" style="fill: #1f77b4; stroke: #1f77b4"/>
     <use xlink:href="#mdb27c61bb7" x="136.629783" y="278.667342" style="fill: #1f77b4; stroke: #1f77b4"/>
     <use xlink:href="#mdb27c61bb7" x="136.55416" y="277.169946" style="fill: #1f77b4; stroke: #1f77b4"/>
     <use xlink:href="#mdb27c61bb7" x="132.459173" y="276.377912" style="fill: #1f77b4; stroke: #1f77b4"/>
     <use xlink:href="#mdb27c61bb7" x="131.498176" y="273.180492" style="fill: #1f77b4; stroke: #1f77b4"/>
     <use xlink:href="#mdb27c61bb7" x="126.32733" y="277.270587" style="fill: #1f77b4; stroke: #1f77b4"/>
     <use xlink:href="#mdb27c61bb7" x="130.697865" y="273.902683" style="fill: #1f77b4; stroke: #1f77b4"/>
     <use xlink:href="#mdb27c61bb7" x="132.224958" y="276.262326" style="fill: #1f77b4; stroke: #1f77b4"/>
     <use xlink:href="#mdb27c61bb7" x="129.075709" y="276.655365" style="fill: #1f77b4; stroke: #1f77b4"/>
     <use xlink:href="#mdb27c61bb7" x="125.349852" y="270.4543" style="fill: #1f77b4; stroke: #1f77b4"/>
     <use xlink:href="#mdb27c61bb7" x="129.474232" y="274.660924" style="fill: #1f77b4; stroke: #1f77b4"/>
     <use xlink:href="#mdb27c61bb7" x="122.475436" y="272.57052" style="fill: #1f77b4; stroke: #1f77b4"/>
     <use xlink:href="#mdb27c61bb7" x="125.460734" y="273.396954" style="fill: #1f77b4; stroke: #1f77b4"/>
     <use xlink:href="#mdb27c61bb7" x="124.055801" y="270.248508" style="fill: #1f77b4; stroke: #1f77b4"/>
     <use xlink:href="#mdb27c61bb7" x="121.115764" y="272.936867" style="fill: #1f77b4; stroke: #1f77b4"/>
     <use xlink:href="#mdb27c61bb7" x="121.856731" y="272.452478" style="fill: #1f77b4; stroke: #1f77b4"/>
    </g>
   </g>
   <g id="line2d_19">
    <path d="M 63.575769 75.286941 
L 70.89542 72.559086 
L 78.530029 69.962818 
L 86.480014 67.515263 
L 94.743739 65.234436 
L 102.228819 63.39026 
L 109.946857 61.701184 
L 117.891942 60.180596 
L 126.056372 58.842129 
L 134.43054 57.699566 
L 143.00281 56.766719 
L 151.759424 56.057297 
L 160.684421 55.584756 
L 168.454687 55.378159 
L 176.322503 55.363062 
L 184.273825 55.546936 
L 192.293394 55.936756 
L 200.364768 56.538914 
L 208.470369 57.359124 
L 216.591554 58.40233 
L 224.708698 59.67262 
L 232.801301 61.173137 
L 240.848106 62.906003 
L 248.827246 64.872247 
L 256.716394 67.071741 
L 264.49294 69.503153 
L 272.134171 72.163906 
L 278.382168 74.553658 
L 284.507537 77.097132 
L 290.497553 79.790817 
L 296.339798 82.630601 
L 302.022241 85.611784 
L 307.533313 88.7291 
L 312.861988 91.976738 
L 317.997853 95.348379 
L 322.931174 98.837228 
L 327.65296 102.436056 
L 332.155014 106.137244 
L 336.429982 109.93283 
L 340.471393 113.814563 
L 344.273685 117.773952 
L 347.832232 121.802323 
L 351.143355 125.890873 
L 354.204325 130.030725 
L 357.013362 134.212982 
L 359.569619 138.428782 
L 361.873162 142.669348 
L 363.924945 146.926035 
L 365.726773 151.190378 
L 367.281263 155.454133 
L 368.591799 159.709318 
L 369.662479 163.948244 
L 370.498066 168.163547 
L 371.103927 172.348215 
L 371.485981 176.495608 
L 371.650635 180.599477 
L 371.604725 184.653977 
L 371.355461 188.653676 
L 370.910363 192.593559 
L 370.277209 196.469035 
L 369.463976 200.275927 
L 368.261845 204.748404 
L 366.826335 209.111003 
L 365.171762 213.358818 
L 363.312427 217.487731 
L 361.262524 221.494376 
L 359.036052 225.3761 
L 356.646741 229.130918 
L 354.107988 232.757473 
L 350.974564 236.82533 
L 347.675331 240.717236 
L 344.229319 244.433744 
L 340.654618 247.976196 
L 336.968345 251.346626 
L 332.639469 254.991313 
L 328.208325 258.419527 
L 323.695642 261.636743 
L 319.120466 264.649021 
L 313.920311 267.800995 
L 308.685465 270.711631 
L 303.435946 273.39108 
L 297.607478 276.109701 
L 291.804128 278.570013 
L 286.044314 280.786265 
L 279.777521 282.958997 
L 273.600014 284.871607 
L 266.97967 286.682066 
L 260.497803 288.225704 
L 253.645503 289.62085 
L 246.980359 290.751842 
L 240.0205 291.700809 
L 233.292404 292.396725 
L 226.344066 292.889243 
L 219.66531 293.146649 
L 212.835878 293.189943 
L 205.907034 293.003903 
L 199.307132 292.607091 
L 192.666128 291.985626 
L 186.028804 291.133971 
L 179.757518 290.108374 
L 173.532447 288.867169 
L 167.389534 287.411431 
L 161.626771 285.823137 
L 155.972809 284.039439 
L 150.454666 282.065142 
L 145.0962 279.906412 
L 140.117738 277.665387 
L 135.307358 275.260345 
L 130.681693 272.698301 
L 126.254856 269.986718 
L 123.800807 268.360574 
L 123.800807 268.360574 
" clip-path="url(#p3349771f89)" style="fill: none; stroke: #d62728; stroke-width: 1.5; stroke-linecap: square"/>
   </g>
   <g id="patch_3">
    <path d="M 37.848438 307.872 
L 37.848438 41.76 
" style="fill: none; stroke: #000000; stroke-width: 0.8; stroke-linejoin: miter; stroke-linecap: square"/>
   </g>
   <g id="patch_4">
    <path d="M 394.968438 307.872 
L 394.968438 41.76 
" style="fill: none; stroke: #000000; stroke-width: 0.8; stroke-linejoin: miter; stroke-linecap: square"/>
   </g>
   <g id="patch_5">
    <path d="M 37.848437 307.872 
L 394.968438 307.872 
" style="fill: none; stroke: #000000; stroke-width: 0.8; stroke-linejoin: miter; stroke-linecap: square"/>
   </g>
   <g id="patch_6">
    <path d="M 37.848437 41.76 
L 394.968438 41.76 
" style="fill: none; stroke: #000000; stroke-width: 0.8; stroke-linejoin: miter; stroke-linecap: square"/>
   </g>
   <g id="text_20">
    <g id="patch_7">
     <path d="M 412.824438 102.337163 
L 558.324438 102.337163 
Q 562.324438 102.337163 562.324438 98.337163 
L 562.324438 55.0656 
Q 562.324438 51.0656 558.324438 51.0656 
L 412.824438 51.0656 
Q 408.824438 51.0656 408.824438 55.0656 
L 408.824438 98.337163 
Q 408.824438 102.337163 412.824438 102.337163 
z
" style="fill: #ffffff; opacity: 0.5; stroke: #000000; stroke-linejoin: miter"/>
    </g>
    <!-- Summary -->
    <g transform="translate(412.824438 62.664038) scale(0.1 -0.1)">
     <defs>
      <path id="DejaVuSans-53" d="M 3425 4513 
L 3425 3897 
Q 3066 4069 2747 4153 
Q 2428 4238 2131 4238 
Q 1616 4238 1336 4038 
Q 1056 3838 1056 3469 
Q 1056 3159 1242 3001 
Q 1428 2844 1947 2747 
L 2328 2669 
Q 3034 2534 3370 2195 
Q 3706 1856 3706 1288 
Q 3706 609 3251 259 
Q 2797 -91 1919 -91 
Q 1588 -91 1214 -16 
Q 841 59 441 206 
L 441 856 
Q 825 641 1194 531 
Q 1563 422 1919 422 
Q 2459 422 2753 634 
Q 3047 847 3047 1241 
Q 3047 1584 2836 1778 
Q 2625 1972 2144 2069 
L 1759 2144 
Q 1053 2284 737 2584 
Q 422 2884 422 3419 
Q 422 4038 858 4394 
Q 1294 4750 2059 4750 
Q 2388 4750 2728 4690 
Q 3069 4631 3425 4513 
z
" transform="scale(0.015625)"/>
      <path id="DejaVuSans-75" d="M 544 1381 
L 544 3500 
L 1119 3500 
L 1119 1403 
Q 1119 906 1312 657 
Q 1506 409 1894 409 
Q 2359 409 2629 706 
Q 2900 1003 2900 1516 
L 2900 3500 
L 3475 3500 
L 3475 0 
L 2900 0 
L 2900 538 
Q 2691 219 2414 64 
Q 2138 -91 1772 -91 
Q 1169 -91 856 284 
Q 544 659 544 1381 
z
M 1991 3584 
L 1991 3584 
z
" transform="scale(0.015625)"/>
      <path id="DejaVuSans-61" d="M 2194 1759 
Q 1497 1759 1228 1600 
Q 959 1441 959 1056 
Q 959 750 1161 570 
Q 1363 391 1709 391 
Q 2188 391 2477 730 
Q 2766 1069 2766 1631 
L 2766 1759 
L 2194 1759 
z
M 3341 1997 
L 3341 0 
L 2766 0 
L 2766 531 
Q 2569 213 2275 61 
Q 1981 -91 1556 -91 
Q 1019 -91 701 211 
Q 384 513 384 1019 
Q 384 1609 779 1909 
Q 1175 2209 1959 2209 
L 2766 2209 
L 2766 2266 
Q 2766 2663 2505 2880 
Q 2244 3097 1772 3097 
Q 1472 3097 1187 3025 
Q 903 2953 641 2809 
L 641 3341 
Q 956 3463 1253 3523 
Q 1550 3584 1831 3584 
Q 2591 3584 2966 3190 
Q 3341 2797 3341 1997 
z
" transform="scale(0.015625)"/>
      <path id="DejaVuSans-72" d="M 2631 2963 
Q 2534 3019 2420 3045 
Q 2306 3072 2169 3072 
Q 1681 3072 1420 2755 
Q 1159 2438 1159 1844 
L 1159 0 
L 581 0 
L 581 3500 
L 1159 3500 
L 1159 2956 
Q 1341 3275 1631 3429 
Q 1922 3584 2338 3584 
Q 2397 3584 2469 3576 
Q 2541 3569 2628 3553 
L 2631 2963 
z
" transform="scale(0.015625)"/>
      <path id="DejaVuSans-79" d="M 2059 -325 
Q 1816 -950 1584 -1140 
Q 1353 -1331 966 -1331 
L 506 -1331 
L 506 -850 
L 844 -850 
Q 1081 -850 1212 -737 
Q 1344 -625 1503 -206 
L 1606 56 
L 191 3500 
L 800 3500 
L 1894 763 
L 2988 3500 
L 3597 3500 
L 2059 -325 
z
" transform="scale(0.015625)"/>
     </defs>
     <use xlink:href="#DejaVuSans-53"/>
     <use xlink:href="#DejaVuSans-75" x="63.476562"/>
     <use xlink:href="#DejaVuSans-6d" x="126.855469"/>
     <use xlink:href="#DejaVuSans-6d" x="224.267578"/>
     <use xlink:href="#DejaVuSans-61" x="321.679688"/>
     <use xlink:href="#DejaVuSans-72" x="382.958984"/>
     <use xlink:href="#DejaVuSans-79" x="424.072266"/>
    </g>
    <!-- $Q_I$: 13.12$\pm$0.12 k -->
    <g transform="translate(412.824438 73.86185) scale(0.1 -0.1)">
     <defs>
      <path id="DejaVuSans-Oblique-51" d="M 2309 -84 
Q 2275 -88 2237 -89 
Q 2200 -91 2125 -91 
Q 1250 -91 756 411 
Q 263 913 263 1797 
Q 263 2319 452 2844 
Q 641 3369 978 3788 
Q 1369 4269 1858 4509 
Q 2347 4750 2938 4750 
Q 3794 4750 4287 4245 
Q 4781 3741 4781 2869 
Q 4781 1928 4265 1147 
Q 3750 366 2919 44 
L 3553 -825 
L 2847 -825 
L 2309 -84 
z
M 2919 4238 
Q 2400 4238 2003 3986 
Q 1606 3734 1313 3219 
Q 1125 2891 1026 2522 
Q 928 2153 928 1778 
Q 928 1128 1239 775 
Q 1550 422 2119 422 
Q 2631 422 3032 676 
Q 3434 931 3719 1434 
Q 3909 1772 4009 2142 
Q 4109 2513 4109 2881 
Q 4109 3528 3796 3883 
Q 3484 4238 2919 4238 
z
" transform="scale(0.015625)"/>
      <path id="DejaVuSans-Oblique-49" d="M 1081 4666 
L 1716 4666 
L 806 0 
L 172 0 
L 1081 4666 
z
" transform="scale(0.015625)"/>
      <path id="DejaVuSans-3a" d="M 750 794 
L 1409 794 
L 1409 0 
L 750 0 
L 750 794 
z
M 750 3309 
L 1409 3309 
L 1409 2516 
L 750 2516 
L 750 3309 
z
" transform="scale(0.015625)"/>
      <path id="DejaVuSans-2e" d="M 684 794 
L 1344 794 
L 1344 0 
L 684 0 
L 684 794 
z
" transform="scale(0.015625)"/>
      <path id="DejaVuSans-b1" d="M 2944 4013 
L 2944 2803 
L 4684 2803 
L 4684 2272 
L 2944 2272 
L 2944 1063 
L 2419 1063 
L 2419 2272 
L 678 2272 
L 678 2803 
L 2419 2803 
L 2419 4013 
L 2944 4013 
z
M 678 531 
L 4684 531 
L 4684 0 
L 678 0 
L 678 531 
z
" transform="scale(0.015625)"/>
      <path id="DejaVuSans-6b" d="M 581 4863 
L 1159 4863 
L 1159 1991 
L 2875 3500 
L 3609 3500 
L 1753 1863 
L 3688 0 
L 2938 0 
L 1159 1709 
L 1159 0 
L 581 0 
L 581 4863 
z
" transform="scale(0.015625)"/>
     </defs>
     <use xlink:href="#DejaVuSans-Oblique-51" transform="translate(0 0.015625)"/>
     <use xlink:href="#DejaVuSans-Oblique-49" transform="translate(78.710938 -16.390625) scale(0.7)"/>
     <use xlink:href="#DejaVuSans-3a" transform="translate(102.089844 0.015625)"/>
     <use xlink:href="#DejaVuSans-20" transform="translate(135.78125 0.015625)"/>
     <use xlink:href="#DejaVuSans-31" transform="translate(167.568359 0.015625)"/>
     <use xlink:href="#DejaVuSans-33" transform="translate(231.191406 0.015625)"/>
     <use xlink:href="#DejaVuSans-2e" transform="translate(294.814453 0.015625)"/>
     <use xlink:href="#DejaVuSans-31" transform="translate(326.601562 0.015625)"/>
     <use xlink:href="#DejaVuSans-32" transform="translate(390.224609 0.015625)"/>
     <use xlink:href="#DejaVuSans-b1" transform="translate(453.847656 0.015625)"/>
     <use xlink:href="#DejaVuSans-30" transform="translate(537.636719 0.015625)"/>
     <use xlink:href="#DejaVuSans-2e" transform="translate(601.259766 0.015625)"/>
     <use xlink:href="#DejaVuSans-31" transform="translate(633.046875 0.015625)"/>
     <use xlink:href="#DejaVuSans-32" transform="translate(696.669922 0.015625)"/>
     <use xlink:href="#DejaVuSans-20" transform="translate(760.292969 0.015625)"/>
     <use xlink:href="#DejaVuSans-6b" transform="translate(792.080078 0.015625)"/>
    </g>
    <!-- $Q_C$: 3.167$\pm$0.025 k -->
    <g transform="translate(412.824438 85.059663) scale(0.1 -0.1)">
     <defs>
      <path id="DejaVuSans-Oblique-43" d="M 4447 4306 
L 4319 3641 
Q 4019 3944 3683 4091 
Q 3347 4238 2956 4238 
Q 2422 4238 2017 3981 
Q 1613 3725 1319 3200 
Q 1131 2863 1032 2486 
Q 934 2109 934 1728 
Q 934 1091 1264 756 
Q 1594 422 2222 422 
Q 2656 422 3056 561 
Q 3456 700 3834 978 
L 3688 231 
Q 3316 72 2936 -9 
Q 2556 -91 2175 -91 
Q 1278 -91 773 396 
Q 269 884 269 1753 
Q 269 2309 461 2846 
Q 653 3384 1013 3828 
Q 1394 4300 1883 4525 
Q 2372 4750 3022 4750 
Q 3422 4750 3780 4639 
Q 4138 4528 4447 4306 
z
" transform="scale(0.015625)"/>
     </defs>
     <use xlink:href="#DejaVuSans-Oblique-51" transform="translate(0 0.015625)"/>
     <use xlink:href="#DejaVuSans-Oblique-43" transform="translate(78.710938 -16.390625) scale(0.7)"/>
     <use xlink:href="#DejaVuSans-3a" transform="translate(130.322266 0.015625)"/>
     <use xlink:href="#DejaVuSans-20" transform="translate(164.013672 0.015625)"/>
     <use xlink:href="#DejaVuSans-33" transform="translate(195.800781 0.015625)"/>
     <use xlink:href="#DejaVuSans-2e" transform="translate(259.423828 0.015625)"/>
     <use xlink:href="#DejaVuSans-31" transform="translate(291.210938 0.015625)"/>
     <use xlink:href="#DejaVuSans-36" transform="translate(354.833984 0.015625)"/>
     <use xlink:href="#DejaVuSans-37" transform="translate(418.457031 0.015625)"/>
     <use xlink:href="#DejaVuSans-b1" transform="translate(482.080078 0.015625)"/>
     <use xlink:href="#DejaVuSans-30" transform="translate(565.869141 0.015625)"/>
     <use xlink:href="#DejaVuSans-2e" transform="translate(629.492188 0.015625)"/>
     <use xlink:href="#DejaVuSans-30" transform="translate(661.279297 0.015625)"/>
     <use xlink:href="#DejaVuSans-32" transform="translate(724.902344 0.015625)"/>
     <use xlink:href="#DejaVuSans-35" transform="translate(788.525391 0.015625)"/>
     <use xlink:href="#DejaVuSans-20" transform="translate(852.148438 0.015625)"/>
     <use xlink:href="#DejaVuSans-6b" transform="translate(883.935547 0.015625)"/>
    </g>
    <!-- $f_{res}$: 5.8376038$\pm$7.3e-06 GHz -->
    <g transform="translate(412.824438 96.257475) scale(0.1 -0.1)">
     <defs>
      <path id="DejaVuSans-Oblique-66" d="M 3059 4863 
L 2969 4384 
L 2419 4384 
Q 2106 4384 1964 4261 
Q 1822 4138 1753 3809 
L 1691 3500 
L 2638 3500 
L 2553 3053 
L 1606 3053 
L 1013 0 
L 434 0 
L 1031 3053 
L 481 3053 
L 563 3500 
L 1113 3500 
L 1159 3744 
Q 1278 4363 1576 4613 
Q 1875 4863 2516 4863 
L 3059 4863 
z
" transform="scale(0.015625)"/>
      <path id="DejaVuSans-Oblique-72" d="M 2853 2969 
Q 2766 3016 2653 3041 
Q 2541 3066 2413 3066 
Q 1953 3066 1609 2717 
Q 1266 2369 1153 1784 
L 800 0 
L 225 0 
L 909 3500 
L 1484 3500 
L 1375 2956 
Q 1603 3259 1920 3421 
Q 2238 3584 2597 3584 
Q 2691 3584 2781 3573 
Q 2872 3563 2963 3538 
L 2853 2969 
z
" transform="scale(0.015625)"/>
      <path id="DejaVuSans-Oblique-65" d="M 3078 2063 
Q 3088 2113 3092 2166 
Q 3097 2219 3097 2272 
Q 3097 2653 2873 2875 
Q 2650 3097 2266 3097 
Q 1838 3097 1509 2826 
Q 1181 2556 1013 2059 
L 3078 2063 
z
M 3578 1613 
L 903 1613 
Q 884 1494 878 1425 
Q 872 1356 872 1306 
Q 872 872 1139 634 
Q 1406 397 1894 397 
Q 2269 397 2603 481 
Q 2938 566 3225 728 
L 3116 159 
Q 2806 34 2476 -28 
Q 2147 -91 1806 -91 
Q 1078 -91 686 257 
Q 294 606 294 1247 
Q 294 1794 489 2264 
Q 684 2734 1063 3103 
Q 1306 3334 1642 3459 
Q 1978 3584 2356 3584 
Q 2950 3584 3301 3228 
Q 3653 2872 3653 2272 
Q 3653 2128 3634 1964 
Q 3616 1800 3578 1613 
z
" transform="scale(0.015625)"/>
      <path id="DejaVuSans-Oblique-73" d="M 3200 3397 
L 3091 2853 
Q 2863 2978 2609 3040 
Q 2356 3103 2088 3103 
Q 1634 3103 1373 2948 
Q 1113 2794 1113 2528 
Q 1113 2219 1719 2053 
Q 1766 2041 1788 2034 
L 1972 1978 
Q 2547 1819 2739 1644 
Q 2931 1469 2931 1166 
Q 2931 609 2489 259 
Q 2047 -91 1331 -91 
Q 1053 -91 747 -37 
Q 441 16 72 128 
L 184 722 
Q 500 559 806 475 
Q 1113 391 1394 391 
Q 1816 391 2080 572 
Q 2344 753 2344 1031 
Q 2344 1331 1650 1516 
L 1591 1531 
L 1394 1581 
Q 956 1697 753 1886 
Q 550 2075 550 2369 
Q 550 2928 970 3256 
Q 1391 3584 2113 3584 
Q 2397 3584 2667 3537 
Q 2938 3491 3200 3397 
z
" transform="scale(0.015625)"/>
      <path id="DejaVuSans-38" d="M 2034 2216 
Q 1584 2216 1326 1975 
Q 1069 1734 1069 1313 
Q 1069 891 1326 650 
Q 1584 409 2034 409 
Q 2484 409 2743 651 
Q 3003 894 3003 1313 
Q 3003 1734 2745 1975 
Q 2488 2216 2034 2216 
z
M 1403 2484 
Q 997 2584 770 2862 
Q 544 3141 544 3541 
Q 544 4100 942 4425 
Q 1341 4750 2034 4750 
Q 2731 4750 3128 4425 
Q 3525 4100 3525 3541 
Q 3525 3141 3298 2862 
Q 3072 2584 2669 2484 
Q 3125 2378 3379 2068 
Q 3634 1759 3634 1313 
Q 3634 634 3220 271 
Q 2806 -91 2034 -91 
Q 1263 -91 848 271 
Q 434 634 434 1313 
Q 434 1759 690 2068 
Q 947 2378 1403 2484 
z
M 1172 3481 
Q 1172 3119 1398 2916 
Q 1625 2713 2034 2713 
Q 2441 2713 2670 2916 
Q 2900 3119 2900 3481 
Q 2900 3844 2670 4047 
Q 2441 4250 2034 4250 
Q 1625 4250 1398 4047 
Q 1172 3844 1172 3481 
z
" transform="scale(0.015625)"/>
      <path id="DejaVuSans-47" d="M 3809 666 
L 3809 1919 
L 2778 1919 
L 2778 2438 
L 4434 2438 
L 4434 434 
Q 4069 175 3628 42 
Q 3188 -91 2688 -91 
Q 1594 -91 976 548 
Q 359 1188 359 2328 
Q 359 3472 976 4111 
Q 1594 4750 2688 4750 
Q 3144 4750 3555 4637 
Q 3966 4525 4313 4306 
L 4313 3634 
Q 3963 3931 3569 4081 
Q 3175 4231 2741 4231 
Q 1884 4231 1454 3753 
Q 1025 3275 1025 2328 
Q 1025 1384 1454 906 
Q 1884 428 2741 428 
Q 3075 428 3337 486 
Q 3600 544 3809 666 
z
" transform="scale(0.015625)"/>
      <path id="DejaVuSans-48" d="M 628 4666 
L 1259 4666 
L 1259 2753 
L 3553 2753 
L 3553 4666 
L 4184 4666 
L 4184 0 
L 3553 0 
L 3553 2222 
L 1259 2222 
L 1259 0 
L 628 0 
L 628 4666 
z
" transform="scale(0.015625)"/>
      <path id="DejaVuSans-7a" d="M 353 3500 
L 3084 3500 
L 3084 2975 
L 922 459 
L 3084 459 
L 3084 0 
L 275 0 
L 275 525 
L 2438 3041 
L 353 3041 
L 353 3500 
z
" transform="scale(0.015625)"/>
     </defs>
     <use xlink:href="#DejaVuSans-Oblique-66" transform="translate(0 0.015625)"/>
     <use xlink:href="#DejaVuSans-Oblique-72" transform="translate(35.205078 -16.390625) scale(0.7)"/>
     <use xlink:href="#DejaVuSans-Oblique-65" transform="translate(63.984375 -16.390625) scale(0.7)"/>
     <use xlink:href="#DejaVuSans-Oblique-73" transform="translate(107.050781 -16.390625) scale(0.7)"/>
     <use xlink:href="#DejaVuSans-3a" transform="translate(146.254883 0.015625)"/>
     <use xlink:href="#DejaVuSans-20" transform="translate(179.946289 0.015625)"/>
     <use xlink:href="#DejaVuSans-35" transform="translate(211.733398 0.015625)"/>
     <use xlink:href="#DejaVuSans-2e" transform="translate(275.356445 0.015625)"/>
     <use xlink:href="#DejaVuSans-38" transform="translate(304.518555 0.015625)"/>
     <use xlink:href="#DejaVuSans-33" transform="translate(368.141602 0.015625)"/>
     <use xlink:href="#DejaVuSans-37" transform="translate(431.764648 0.015625)"/>
     <use xlink:href="#DejaVuSans-36" transform="translate(495.387695 0.015625)"/>
     <use xlink:href="#DejaVuSans-30" transform="translate(559.010742 0.015625)"/>
     <use xlink:href="#DejaVuSans-33" transform="translate(622.633789 0.015625)"/>
     <use xlink:href="#DejaVuSans-38" transform="translate(686.256836 0.015625)"/>
     <use xlink:href="#DejaVuSans-b1" transform="translate(749.879883 0.015625)"/>
     <use xlink:href="#DejaVuSans-37" transform="translate(833.668945 0.015625)"/>
     <use xlink:href="#DejaVuSans-2e" transform="translate(897.291992 0.015625)"/>
     <use xlink:href="#DejaVuSans-33" transform="translate(929.079102 0.015625)"/>
     <use xlink:href="#DejaVuSans-65" transform="translate(992.702148 0.015625)"/>
     <use xlink:href="#DejaVuSans-2d" transform="translate(1054.225586 0.015625)"/>
     <use xlink:href="#DejaVuSans-30" transform="translate(1090.30957 0.015625)"/>
     <use xlink:href="#DejaVuSans-36" transform="translate(1153.932617 0.015625)"/>
     <use xlink:href="#DejaVuSans-20" transform="translate(1217.555664 0.015625)"/>
     <use xlink:href="#DejaVuSans-47" transform="translate(1249.342773 0.015625)"/>
     <use xlink:href="#DejaVuSans-48" transform="translate(1326.833008 0.015625)"/>
     <use xlink:href="#DejaVuSans-7a" transform="translate(1402.02832 0.015625)"/>
    </g>
   </g>
  </g>
  <g id="text_21">
   <!-- S21 resonator spectroscopy -->
   <g transform="translate(126.864063 16.318125) scale(0.12 -0.12)">
    <defs>
     <path id="DejaVuSans-73" d="M 2834 3397 
L 2834 2853 
Q 2591 2978 2328 3040 
Q 2066 3103 1784 3103 
Q 1356 3103 1142 2972 
Q 928 2841 928 2578 
Q 928 2378 1081 2264 
Q 1234 2150 1697 2047 
L 1894 2003 
Q 2506 1872 2764 1633 
Q 3022 1394 3022 966 
Q 3022 478 2636 193 
Q 2250 -91 1575 -91 
Q 1294 -91 989 -36 
Q 684 19 347 128 
L 347 722 
Q 666 556 975 473 
Q 1284 391 1588 391 
Q 1994 391 2212 530 
Q 2431 669 2431 922 
Q 2431 1156 2273 1281 
Q 2116 1406 1581 1522 
L 1381 1569 
Q 847 1681 609 1914 
Q 372 2147 372 2553 
Q 372 3047 722 3315 
Q 1072 3584 1716 3584 
Q 2034 3584 2315 3537 
Q 2597 3491 2834 3397 
z
" transform="scale(0.015625)"/>
     <path id="DejaVuSans-6f" d="M 1959 3097 
Q 1497 3097 1228 2736 
Q 959 2375 959 1747 
Q 959 1119 1226 758 
Q 1494 397 1959 397 
Q 2419 397 2687 759 
Q 2956 1122 2956 1747 
Q 2956 2369 2687 2733 
Q 2419 3097 1959 3097 
z
M 1959 3584 
Q 2709 3584 3137 3096 
Q 3566 2609 3566 1747 
Q 3566 888 3137 398 
Q 2709 -91 1959 -91 
Q 1206 -91 779 398 
Q 353 888 353 1747 
Q 353 2609 779 3096 
Q 1206 3584 1959 3584 
z
" transform="scale(0.015625)"/>
     <path id="DejaVuSans-6e" d="M 3513 2113 
L 3513 0 
L 2938 0 
L 2938 2094 
Q 2938 2591 2744 2837 
Q 2550 3084 2163 3084 
Q 1697 3084 1428 2787 
Q 1159 2491 1159 1978 
L 1159 0 
L 581 0 
L 581 3500 
L 1159 3500 
L 1159 2956 
Q 1366 3272 1645 3428 
Q 1925 3584 2291 3584 
Q 2894 3584 3203 3211 
Q 3513 2838 3513 2113 
z
" transform="scale(0.015625)"/>
     <path id="DejaVuSans-74" d="M 1172 4494 
L 1172 3500 
L 2356 3500 
L 2356 3053 
L 1172 3053 
L 1172 1153 
Q 1172 725 1289 603 
Q 1406 481 1766 481 
L 2356 481 
L 2356 0 
L 1766 0 
Q 1100 0 847 248 
Q 594 497 594 1153 
L 594 3053 
L 172 3053 
L 172 3500 
L 594 3500 
L 594 4494 
L 1172 4494 
z
" transform="scale(0.015625)"/>
     <path id="DejaVuSans-70" d="M 1159 525 
L 1159 -1331 
L 581 -1331 
L 581 3500 
L 1159 3500 
L 1159 2969 
Q 1341 3281 1617 3432 
Q 1894 3584 2278 3584 
Q 2916 3584 3314 3078 
Q 3713 2572 3713 1747 
Q 3713 922 3314 415 
Q 2916 -91 2278 -91 
Q 1894 -91 1617 61 
Q 1341 213 1159 525 
z
M 3116 1747 
Q 3116 2381 2855 2742 
Q 2594 3103 2138 3103 
Q 1681 3103 1420 2742 
Q 1159 2381 1159 1747 
Q 1159 1113 1420 752 
Q 1681 391 2138 391 
Q 2594 391 2855 752 
Q 3116 1113 3116 1747 
z
" transform="scale(0.015625)"/>
     <path id="DejaVuSans-63" d="M 3122 3366 
L 3122 2828 
Q 2878 2963 2633 3030 
Q 2388 3097 2138 3097 
Q 1578 3097 1268 2742 
Q 959 2388 959 1747 
Q 959 1106 1268 751 
Q 1578 397 2138 397 
Q 2388 397 2633 464 
Q 2878 531 3122 666 
L 3122 134 
Q 2881 22 2623 -34 
Q 2366 -91 2075 -91 
Q 1284 -91 818 406 
Q 353 903 353 1747 
Q 353 2603 823 3093 
Q 1294 3584 2113 3584 
Q 2378 3584 2631 3529 
Q 2884 3475 3122 3366 
z
" transform="scale(0.015625)"/>
    </defs>
    <use xlink:href="#DejaVuSans-53"/>
    <use xlink:href="#DejaVuSans-32" x="63.476562"/>
    <use xlink:href="#DejaVuSans-31" x="127.099609"/>
    <use xlink:href="#DejaVuSans-20" x="190.722656"/>
    <use xlink:href="#DejaVuSans-72" x="222.509766"/>
    <use xlink:href="#DejaVuSans-65" x="261.373047"/>
    <use xlink:href="#DejaVuSans-73" x="322.896484"/>
    <use xlink:href="#DejaVuSans-6f" x="374.996094"/>
    <use xlink:href="#DejaVuSans-6e" x="436.177734"/>
    <use xlink:href="#DejaVuSans-61" x="499.556641"/>
    <use xlink:href="#DejaVuSans-74" x="560.835938"/>
    <use xlink:href="#DejaVuSans-6f" x="600.044922"/>
    <use xlink:href="#DejaVuSans-72" x="661.226562"/>
    <use xlink:href="#DejaVuSans-20" x="702.339844"/>
    <use xlink:href="#DejaVuSans-73" x="734.126953"/>
    <use xlink:href="#DejaVuSans-70" x="786.226562"/>
    <use xlink:href="#DejaVuSans-65" x="849.703125"/>
    <use xlink:href="#DejaVuSans-63" x="911.226562"/>
    <use xlink:href="#DejaVuSans-74" x="966.207031"/>
    <use xlink:href="#DejaVuSans-72" x="1005.416016"/>
    <use xlink:href="#DejaVuSans-6f" x="1044.279297"/>
    <use xlink:href="#DejaVuSans-73" x="1105.460938"/>
    <use xlink:href="#DejaVuSans-63" x="1157.560547"/>
    <use xlink:href="#DejaVuSans-6f" x="1212.541016"/>
    <use xlink:href="#DejaVuSans-70" x="1273.722656"/>
    <use xlink:href="#DejaVuSans-79" x="1337.199219"/>
   </g>
   <!-- tuid: 20231227-185341-832-440ad1 -->
   <g transform="translate(100.942188 29.7555) scale(0.12 -0.12)">
    <defs>
     <path id="DejaVuSans-69" d="M 603 3500 
L 1178 3500 
L 1178 0 
L 603 0 
L 603 3500 
z
M 603 4863 
L 1178 4863 
L 1178 4134 
L 603 4134 
L 603 4863 
z
" transform="scale(0.015625)"/>
     <path id="DejaVuSans-64" d="M 2906 2969 
L 2906 4863 
L 3481 4863 
L 3481 0 
L 2906 0 
L 2906 525 
Q 2725 213 2448 61 
Q 2172 -91 1784 -91 
Q 1150 -91 751 415 
Q 353 922 353 1747 
Q 353 2572 751 3078 
Q 1150 3584 1784 3584 
Q 2172 3584 2448 3432 
Q 2725 3281 2906 2969 
z
M 947 1747 
Q 947 1113 1208 752 
Q 1469 391 1925 391 
Q 2381 391 2643 752 
Q 2906 1113 2906 1747 
Q 2906 2381 2643 2742 
Q 2381 3103 1925 3103 
Q 1469 3103 1208 2742 
Q 947 2381 947 1747 
z
" transform="scale(0.015625)"/>
    </defs>
    <use xlink:href="#DejaVuSans-74"/>
    <use xlink:href="#DejaVuSans-75" x="39.208984"/>
    <use xlink:href="#DejaVuSans-69" x="102.587891"/>
    <use xlink:href="#DejaVuSans-64" x="130.371094"/>
    <use xlink:href="#DejaVuSans-3a" x="193.847656"/>
    <use xlink:href="#DejaVuSans-20" x="227.539062"/>
    <use xlink:href="#DejaVuSans-32" x="259.326172"/>
    <use xlink:href="#DejaVuSans-30" x="322.949219"/>
    <use xlink:href="#DejaVuSans-32" x="386.572266"/>
    <use xlink:href="#DejaVuSans-33" x="450.195312"/>
    <use xlink:href="#DejaVuSans-31" x="513.818359"/>
    <use xlink:href="#DejaVuSans-32" x="577.441406"/>
    <use xlink:href="#DejaVuSans-32" x="641.064453"/>
    <use xlink:href="#DejaVuSans-37" x="704.6875"/>
    <use xlink:href="#DejaVuSans-2d" x="768.310547"/>
    <use xlink:href="#DejaVuSans-31" x="804.394531"/>
    <use xlink:href="#DejaVuSans-38" x="868.017578"/>
    <use xlink:href="#DejaVuSans-35" x="931.640625"/>
    <use xlink:href="#DejaVuSans-33" x="995.263672"/>
    <use xlink:href="#DejaVuSans-34" x="1058.886719"/>
    <use xlink:href="#DejaVuSans-31" x="1122.509766"/>
    <use xlink:href="#DejaVuSans-2d" x="1186.132812"/>
    <use xlink:href="#DejaVuSans-38" x="1222.216797"/>
    <use xlink:href="#DejaVuSans-33" x="1285.839844"/>
    <use xlink:href="#DejaVuSans-32" x="1349.462891"/>
    <use xlink:href="#DejaVuSans-2d" x="1413.085938"/>
    <use xlink:href="#DejaVuSans-34" x="1449.169922"/>
    <use xlink:href="#DejaVuSans-34" x="1512.792969"/>
    <use xlink:href="#DejaVuSans-30" x="1576.416016"/>
    <use xlink:href="#DejaVuSans-61" x="1640.039062"/>
    <use xlink:href="#DejaVuSans-64" x="1701.318359"/>
    <use xlink:href="#DejaVuSans-31" x="1764.794922"/>
   </g>
  </g>
 </g>
 <defs>
  <clipPath id="p3349771f89">
   <rect x="37.848438" y="41.76" width="357.12" height="266.112"/>
  </clipPath>
 </defs>
</svg>
