<?xml version="1.0" encoding="utf-8" standalone="no"?>
<!DOCTYPE svg PUBLIC "-//W3C//DTD SVG 1.1//EN"
  "http://www.w3.org/Graphics/SVG/1.1/DTD/svg11.dtd">
<svg xmlns:xlink="http://www.w3.org/1999/xlink" width="577.971312pt" height="345.42825pt" viewBox="0 0 577.971312 345.42825" xmlns="http://www.w3.org/2000/svg" version="1.1">
 <metadata>
  <rdf:RDF xmlns:dc="http://purl.org/dc/elements/1.1/" xmlns:cc="http://creativecommons.org/ns#" xmlns:rdf="http://www.w3.org/1999/02/22-rdf-syntax-ns#">
   <cc:Work>
    <dc:type rdf:resource="http://purl.org/dc/dcmitype/StillImage"/>
    <dc:date>2023-12-27T18:56:48.431309</dc:date>
    <dc:format>image/svg+xml</dc:format>
    <dc:creator>
     <cc:Agent>
      <dc:title>Matplotlib v3.8.2, https://matplotlib.org/</dc:title>
     </cc:Agent>
    </dc:creator>
   </cc:Work>
  </rdf:RDF>
 </metadata>
 <defs>
  <style type="text/css">*{stroke-linejoin: round; stroke-linecap: butt}</style>
 </defs>
 <g id="figure_1">
  <g id="patch_1">
   <path d="M 0 345.42825 
L 577.971312 345.42825 
L 577.971312 -0 
L 0 -0 
L 0 345.42825 
z
" style="fill: none; opacity: 0"/>
  </g>
  <g id="axes_1">
   <g id="patch_2">
    <path d="M 50.595313 162.72 
L 407.715312 162.72 
L 407.715312 41.76 
L 50.595313 41.76 
z
" style="fill: #ffffff"/>
   </g>
   <g id="matplotlib.axis_1">
    <g id="xtick_1">
     <g id="line2d_1">
      <defs>
       <path id="mdb065cee45" d="M 0 0 
L 0 3.5 
" style="stroke: #000000; stroke-width: 0.8"/>
      </defs>
      <g>
       <use xlink:href="#mdb065cee45" x="102.54004" y="162.72" style="stroke: #000000; stroke-width: 0.8"/>
      </g>
     </g>
    </g>
    <g id="xtick_2">
     <g id="line2d_2">
      <g>
       <use xlink:href="#mdb065cee45" x="167.470949" y="162.72" style="stroke: #000000; stroke-width: 0.8"/>
      </g>
     </g>
    </g>
    <g id="xtick_3">
     <g id="line2d_3">
      <g>
       <use xlink:href="#mdb065cee45" x="232.401858" y="162.72" style="stroke: #000000; stroke-width: 0.8"/>
      </g>
     </g>
    </g>
    <g id="xtick_4">
     <g id="line2d_4">
      <g>
       <use xlink:href="#mdb065cee45" x="297.332767" y="162.72" style="stroke: #000000; stroke-width: 0.8"/>
      </g>
     </g>
    </g>
    <g id="xtick_5">
     <g id="line2d_5">
      <g>
       <use xlink:href="#mdb065cee45" x="362.263676" y="162.72" style="stroke: #000000; stroke-width: 0.8"/>
      </g>
     </g>
    </g>
   </g>
   <g id="matplotlib.axis_2">
    <g id="ytick_1">
     <g id="line2d_6">
      <defs>
       <path id="m2724f40383" d="M 0 0 
L -3.5 0 
" style="stroke: #000000; stroke-width: 0.8"/>
      </defs>
      <g>
       <use xlink:href="#m2724f40383" x="50.595313" y="158.111711" style="stroke: #000000; stroke-width: 0.8"/>
      </g>
     </g>
     <g id="text_1">
      <!-- 2 -->
      <g transform="translate(37.232813 161.91093) scale(0.1 -0.1)">
       <defs>
        <path id="DejaVuSans-32" d="M 1228 531 
L 3431 531 
L 3431 0 
L 469 0 
L 469 531 
Q 828 903 1448 1529 
Q 2069 2156 2228 2338 
Q 2531 2678 2651 2914 
Q 2772 3150 2772 3378 
Q 2772 3750 2511 3984 
Q 2250 4219 1831 4219 
Q 1534 4219 1204 4116 
Q 875 4013 500 3803 
L 500 4441 
Q 881 4594 1212 4672 
Q 1544 4750 1819 4750 
Q 2544 4750 2975 4387 
Q 3406 4025 3406 3419 
Q 3406 3131 3298 2873 
Q 3191 2616 2906 2266 
Q 2828 2175 2409 1742 
Q 1991 1309 1228 531 
z
" transform="scale(0.015625)"/>
       </defs>
       <use xlink:href="#DejaVuSans-32"/>
      </g>
     </g>
    </g>
    <g id="ytick_2">
     <g id="line2d_7">
      <g>
       <use xlink:href="#m2724f40383" x="50.595313" y="132.634428" style="stroke: #000000; stroke-width: 0.8"/>
      </g>
     </g>
     <g id="text_2">
      <!-- 4 -->
      <g transform="translate(37.232813 136.433647) scale(0.1 -0.1)">
       <defs>
        <path id="DejaVuSans-34" d="M 2419 4116 
L 825 1625 
L 2419 1625 
L 2419 4116 
z
M 2253 4666 
L 3047 4666 
L 3047 1625 
L 3713 1625 
L 3713 1100 
L 3047 1100 
L 3047 0 
L 2419 0 
L 2419 1100 
L 313 1100 
L 313 1709 
L 2253 4666 
z
" transform="scale(0.015625)"/>
       </defs>
       <use xlink:href="#DejaVuSans-34"/>
      </g>
     </g>
    </g>
    <g id="ytick_3">
     <g id="line2d_8">
      <g>
       <use xlink:href="#m2724f40383" x="50.595313" y="107.157145" style="stroke: #000000; stroke-width: 0.8"/>
      </g>
     </g>
     <g id="text_3">
      <!-- 6 -->
      <g transform="translate(37.232813 110.956364) scale(0.1 -0.1)">
       <defs>
        <path id="DejaVuSans-36" d="M 2113 2584 
Q 1688 2584 1439 2293 
Q 1191 2003 1191 1497 
Q 1191 994 1439 701 
Q 1688 409 2113 409 
Q 2538 409 2786 701 
Q 3034 994 3034 1497 
Q 3034 2003 2786 2293 
Q 2538 2584 2113 2584 
z
M 3366 4563 
L 3366 3988 
Q 3128 4100 2886 4159 
Q 2644 4219 2406 4219 
Q 1781 4219 1451 3797 
Q 1122 3375 1075 2522 
Q 1259 2794 1537 2939 
Q 1816 3084 2150 3084 
Q 2853 3084 3261 2657 
Q 3669 2231 3669 1497 
Q 3669 778 3244 343 
Q 2819 -91 2113 -91 
Q 1303 -91 875 529 
Q 447 1150 447 2328 
Q 447 3434 972 4092 
Q 1497 4750 2381 4750 
Q 2619 4750 2861 4703 
Q 3103 4656 3366 4563 
z
" transform="scale(0.015625)"/>
       </defs>
       <use xlink:href="#DejaVuSans-36"/>
      </g>
     </g>
    </g>
    <g id="ytick_4">
     <g id="line2d_9">
      <g>
       <use xlink:href="#m2724f40383" x="50.595313" y="81.679862" style="stroke: #000000; stroke-width: 0.8"/>
      </g>
     </g>
     <g id="text_4">
      <!-- 8 -->
      <g transform="translate(37.232813 85.479081) scale(0.1 -0.1)">
       <defs>
        <path id="DejaVuSans-38" d="M 2034 2216 
Q 1584 2216 1326 1975 
Q 1069 1734 1069 1313 
Q 1069 891 1326 650 
Q 1584 409 2034 409 
Q 2484 409 2743 651 
Q 3003 894 3003 1313 
Q 3003 1734 2745 1975 
Q 2488 2216 2034 2216 
z
M 1403 2484 
Q 997 2584 770 2862 
Q 544 3141 544 3541 
Q 544 4100 942 4425 
Q 1341 4750 2034 4750 
Q 2731 4750 3128 4425 
Q 3525 4100 3525 3541 
Q 3525 3141 3298 2862 
Q 3072 2584 2669 2484 
Q 3125 2378 3379 2068 
Q 3634 1759 3634 1313 
Q 3634 634 3220 271 
Q 2806 -91 2034 -91 
Q 1263 -91 848 271 
Q 434 634 434 1313 
Q 434 1759 690 2068 
Q 947 2378 1403 2484 
z
M 1172 3481 
Q 1172 3119 1398 2916 
Q 1625 2713 2034 2713 
Q 2441 2713 2670 2916 
Q 2900 3119 2900 3481 
Q 2900 3844 2670 4047 
Q 2441 4250 2034 4250 
Q 1625 4250 1398 4047 
Q 1172 3844 1172 3481 
z
" transform="scale(0.015625)"/>
       </defs>
       <use xlink:href="#DejaVuSans-38"/>
      </g>
     </g>
    </g>
    <g id="ytick_5">
     <g id="line2d_10">
      <g>
       <use xlink:href="#m2724f40383" x="50.595313" y="56.202579" style="stroke: #000000; stroke-width: 0.8"/>
      </g>
     </g>
     <g id="text_5">
      <!-- 10 -->
      <g transform="translate(30.870313 60.001797) scale(0.1 -0.1)">
       <defs>
        <path id="DejaVuSans-31" d="M 794 531 
L 1825 531 
L 1825 4091 
L 703 3866 
L 703 4441 
L 1819 4666 
L 2450 4666 
L 2450 531 
L 3481 531 
L 3481 0 
L 794 0 
L 794 531 
z
" transform="scale(0.015625)"/>
        <path id="DejaVuSans-30" d="M 2034 4250 
Q 1547 4250 1301 3770 
Q 1056 3291 1056 2328 
Q 1056 1369 1301 889 
Q 1547 409 2034 409 
Q 2525 409 2770 889 
Q 3016 1369 3016 2328 
Q 3016 3291 2770 3770 
Q 2525 4250 2034 4250 
z
M 2034 4750 
Q 2819 4750 3233 4129 
Q 3647 3509 3647 2328 
Q 3647 1150 3233 529 
Q 2819 -91 2034 -91 
Q 1250 -91 836 529 
Q 422 1150 422 2328 
Q 422 3509 836 4129 
Q 1250 4750 2034 4750 
z
" transform="scale(0.015625)"/>
       </defs>
       <use xlink:href="#DejaVuSans-31"/>
       <use xlink:href="#DejaVuSans-30" x="63.623047"/>
      </g>
     </g>
    </g>
    <g id="text_6">
     <!-- $|S_{21}|$ [mV] -->
     <g transform="translate(24.470313 127.19) rotate(-90) scale(0.1 -0.1)">
      <defs>
       <path id="DejaVuSans-7c" d="M 1344 4891 
L 1344 -1509 
L 813 -1509 
L 813 4891 
L 1344 4891 
z
" transform="scale(0.015625)"/>
       <path id="DejaVuSans-Oblique-53" d="M 3859 4513 
L 3738 3897 
Q 3422 4066 3111 4152 
Q 2800 4238 2509 4238 
Q 1944 4238 1609 3991 
Q 1275 3744 1275 3334 
Q 1275 3109 1398 2989 
Q 1522 2869 2034 2731 
L 2413 2638 
Q 3053 2472 3303 2217 
Q 3553 1963 3553 1503 
Q 3553 797 2998 353 
Q 2444 -91 1538 -91 
Q 1166 -91 791 -17 
Q 416 56 38 206 
L 166 856 
Q 513 641 861 531 
Q 1209 422 1556 422 
Q 2147 422 2503 684 
Q 2859 947 2859 1369 
Q 2859 1650 2717 1795 
Q 2575 1941 2106 2059 
L 1728 2156 
Q 1081 2325 845 2545 
Q 609 2766 609 3163 
Q 609 3859 1145 4304 
Q 1681 4750 2541 4750 
Q 2875 4750 3203 4690 
Q 3531 4631 3859 4513 
z
" transform="scale(0.015625)"/>
       <path id="DejaVuSans-20" transform="scale(0.015625)"/>
       <path id="DejaVuSans-5b" d="M 550 4863 
L 1875 4863 
L 1875 4416 
L 1125 4416 
L 1125 -397 
L 1875 -397 
L 1875 -844 
L 550 -844 
L 550 4863 
z
" transform="scale(0.015625)"/>
       <path id="DejaVuSans-6d" d="M 3328 2828 
Q 3544 3216 3844 3400 
Q 4144 3584 4550 3584 
Q 5097 3584 5394 3201 
Q 5691 2819 5691 2113 
L 5691 0 
L 5113 0 
L 5113 2094 
Q 5113 2597 4934 2840 
Q 4756 3084 4391 3084 
Q 3944 3084 3684 2787 
Q 3425 2491 3425 1978 
L 3425 0 
L 2847 0 
L 2847 2094 
Q 2847 2600 2669 2842 
Q 2491 3084 2119 3084 
Q 1678 3084 1418 2786 
Q 1159 2488 1159 1978 
L 1159 0 
L 581 0 
L 581 3500 
L 1159 3500 
L 1159 2956 
Q 1356 3278 1631 3431 
Q 1906 3584 2284 3584 
Q 2666 3584 2933 3390 
Q 3200 3197 3328 2828 
z
" transform="scale(0.015625)"/>
       <path id="DejaVuSans-56" d="M 1831 0 
L 50 4666 
L 709 4666 
L 2188 738 
L 3669 4666 
L 4325 4666 
L 2547 0 
L 1831 0 
z
" transform="scale(0.015625)"/>
       <path id="DejaVuSans-5d" d="M 1947 4863 
L 1947 -844 
L 622 -844 
L 622 -397 
L 1369 -397 
L 1369 4416 
L 622 4416 
L 622 4863 
L 1947 4863 
z
" transform="scale(0.015625)"/>
      </defs>
      <use xlink:href="#DejaVuSans-7c" transform="translate(0 0.578125)"/>
      <use xlink:href="#DejaVuSans-Oblique-53" transform="translate(33.691406 0.578125)"/>
      <use xlink:href="#DejaVuSans-32" transform="translate(97.167969 -15.828125) scale(0.7)"/>
      <use xlink:href="#DejaVuSans-31" transform="translate(141.704102 -15.828125) scale(0.7)"/>
      <use xlink:href="#DejaVuSans-7c" transform="translate(188.974609 0.578125)"/>
      <use xlink:href="#DejaVuSans-20" transform="translate(222.666016 0.578125)"/>
      <use xlink:href="#DejaVuSans-5b" transform="translate(254.453125 0.578125)"/>
      <use xlink:href="#DejaVuSans-6d" transform="translate(293.466797 0.578125)"/>
      <use xlink:href="#DejaVuSans-56" transform="translate(390.878906 0.578125)"/>
      <use xlink:href="#DejaVuSans-5d" transform="translate(459.287109 0.578125)"/>
     </g>
    </g>
   </g>
   <g id="line2d_11">
    <path d="M 66.82804 50.618972 
L 68.45947 50.35502 
L 70.0909 51.249453 
L 71.722329 51.475861 
L 73.353759 50.782066 
L 74.985189 51.642455 
L 76.616619 49.402692 
L 78.248049 50.915531 
L 79.879479 50.419658 
L 81.510909 51.503735 
L 83.142339 49.885608 
L 84.773768 51.316308 
L 86.405198 50.184588 
L 88.036628 51.225141 
L 89.668058 51.865221 
L 91.299488 50.508479 
L 92.930918 49.738613 
L 94.562348 51.080499 
L 96.193778 49.629662 
L 97.825207 49.888189 
L 99.456637 49.545059 
L 101.088067 50.15418 
L 102.719497 50.2981 
L 104.350927 49.584699 
L 105.982357 49.381339 
L 107.613787 50.661002 
L 109.245217 49.348319 
L 110.876646 50.286861 
L 112.508076 49.265644 
L 114.139506 49.307078 
L 115.770936 49.077581 
L 117.402366 49.574213 
L 119.033796 48.711902 
L 120.665226 49.859155 
L 122.296656 48.781623 
L 123.928085 49.791663 
L 125.559515 49.855454 
L 127.190945 48.947803 
L 128.822375 50.134537 
L 130.453805 49.600466 
L 132.085235 49.276827 
L 133.716665 47.258182 
L 135.348095 50.035456 
L 136.979524 50.192816 
L 138.610954 48.596955 
L 140.242384 49.080177 
L 141.873814 48.667898 
L 143.505244 48.391175 
L 145.136674 48.904088 
L 146.768104 48.325441 
L 148.399534 48.574073 
L 150.030963 48.299571 
L 151.662393 48.458632 
L 153.293823 49.374502 
L 154.925253 48.493726 
L 156.556683 48.734602 
L 158.188113 49.606389 
L 159.819543 48.469373 
L 161.450973 48.862773 
L 163.082402 47.860606 
L 164.713832 49.124357 
L 167.976692 49.576665 
L 169.608122 50.487758 
L 171.239552 49.229162 
L 172.870982 50.927898 
L 174.502412 52.219243 
L 176.133842 51.908485 
L 177.765271 53.552808 
L 179.396701 53.71417 
L 181.028131 53.082388 
L 182.659561 54.70776 
L 184.290991 57.22506 
L 185.922421 57.746358 
L 187.553851 58.764395 
L 189.185281 61.512013 
L 190.81671 61.035569 
L 192.44814 64.80431 
L 194.07957 67.852529 
L 195.711 70.046424 
L 197.34243 74.35014 
L 198.97386 75.014203 
L 200.60529 79.09447 
L 202.23672 84.584228 
L 203.868149 90.519905 
L 205.499579 93.713282 
L 207.131009 102.551051 
L 208.762439 107.706185 
L 210.393869 112.420243 
L 212.025299 119.7756 
L 213.656729 126.253737 
L 215.288159 131.911174 
L 216.919588 135.97917 
L 218.551018 142.658649 
L 221.813878 153.16692 
L 223.445308 156.898871 
L 225.076738 157.221818 
L 226.708168 155.83241 
L 228.339598 152.822448 
L 229.971027 155.095034 
L 231.602457 151.320689 
L 233.233887 144.284153 
L 234.865317 140.73255 
L 236.496747 137.557588 
L 238.128177 132.251963 
L 239.759607 128.520193 
L 241.391037 125.43117 
L 243.022466 122.682495 
L 244.653896 118.303147 
L 246.285326 115.531768 
L 247.916756 113.882253 
L 249.548186 110.103255 
L 251.179616 108.242977 
L 254.442476 104.957235 
L 256.073905 101.550806 
L 257.705335 101.302334 
L 259.336765 98.571903 
L 260.968195 98.336713 
L 262.599625 95.556994 
L 264.231055 94.840618 
L 265.862485 93.680081 
L 269.125344 89.534466 
L 270.756774 89.517899 
L 272.388204 88.806451 
L 274.019634 86.950743 
L 275.651064 86.930857 
L 277.282494 85.702431 
L 278.913924 84.674653 
L 280.545354 84.579339 
L 282.176783 83.121289 
L 283.808213 82.081294 
L 285.439643 83.406938 
L 287.071073 81.928189 
L 288.702503 82.061893 
L 290.333933 81.626793 
L 291.965363 78.401158 
L 293.596793 79.422801 
L 295.228223 78.071805 
L 296.859652 78.208367 
L 300.122512 76.551128 
L 301.753942 75.699158 
L 303.385372 74.588203 
L 305.016802 75.628006 
L 306.648232 76.008739 
L 308.279662 73.917666 
L 309.911091 73.893849 
L 313.173951 74.425164 
L 314.805381 73.395795 
L 316.436811 71.386079 
L 318.068241 74.032021 
L 319.699671 71.578901 
L 321.331101 71.640771 
L 322.96253 70.556074 
L 324.59396 69.859144 
L 326.22539 71.304618 
L 327.85682 70.359619 
L 329.48825 70.809107 
L 331.11968 70.477808 
L 332.75111 69.912514 
L 336.013969 69.497399 
L 337.645399 70.889988 
L 339.276829 67.538062 
L 340.908259 68.00531 
L 342.539689 70.143687 
L 344.171119 67.844723 
L 345.802549 67.78609 
L 347.433979 67.481824 
L 349.065408 67.772168 
L 350.696838 66.43928 
L 352.328268 68.159228 
L 353.959698 67.902319 
L 355.591128 66.73205 
L 357.222558 67.204562 
L 358.853988 66.607372 
L 360.485418 64.639514 
L 362.116847 65.037767 
L 363.748277 66.756977 
L 365.379707 64.605907 
L 367.011137 65.604718 
L 368.642567 65.494265 
L 370.273997 65.625791 
L 371.905427 64.300786 
L 373.536857 65.516542 
L 375.168286 64.250814 
L 376.799716 64.079038 
L 378.431146 64.214705 
L 380.062576 64.135711 
L 381.694006 64.252747 
L 384.956866 63.145401 
L 386.588296 64.354686 
L 388.219725 63.881986 
L 389.851155 63.209266 
L 391.482585 61.773288 
L 391.482585 61.773288 
" clip-path="url(#peedc461a11)" style="fill: none; stroke: #1f77b4; stroke-width: 1.5; stroke-linecap: square"/>
    <defs>
     <path id="mc738367552" d="M 0 1.5 
C 0.397805 1.5 0.77937 1.341951 1.06066 1.06066 
C 1.341951 0.77937 1.5 0.397805 1.5 0 
C 1.5 -0.397805 1.341951 -0.77937 1.06066 -1.06066 
C 0.77937 -1.341951 0.397805 -1.5 0 -1.5 
C -0.397805 -1.5 -0.77937 -1.341951 -1.06066 -1.06066 
C -1.341951 -0.77937 -1.5 -0.397805 -1.5 0 
C -1.5 0.397805 -1.341951 0.77937 -1.06066 1.06066 
C -0.77937 1.341951 -0.397805 1.5 0 1.5 
z
" style="stroke: #1f77b4"/>
    </defs>
    <g clip-path="url(#peedc461a11)">
     <use xlink:href="#mc738367552" x="66.82804" y="50.618972" style="fill: #1f77b4; stroke: #1f77b4"/>
     <use xlink:href="#mc738367552" x="68.45947" y="50.35502" style="fill: #1f77b4; stroke: #1f77b4"/>
     <use xlink:href="#mc738367552" x="70.0909" y="51.249453" style="fill: #1f77b4; stroke: #1f77b4"/>
     <use xlink:href="#mc738367552" x="71.722329" y="51.475861" style="fill: #1f77b4; stroke: #1f77b4"/>
     <use xlink:href="#mc738367552" x="73.353759" y="50.782066" style="fill: #1f77b4; stroke: #1f77b4"/>
     <use xlink:href="#mc738367552" x="74.985189" y="51.642455" style="fill: #1f77b4; stroke: #1f77b4"/>
     <use xlink:href="#mc738367552" x="76.616619" y="49.402692" style="fill: #1f77b4; stroke: #1f77b4"/>
     <use xlink:href="#mc738367552" x="78.248049" y="50.915531" style="fill: #1f77b4; stroke: #1f77b4"/>
     <use xlink:href="#mc738367552" x="79.879479" y="50.419658" style="fill: #1f77b4; stroke: #1f77b4"/>
     <use xlink:href="#mc738367552" x="81.510909" y="51.503735" style="fill: #1f77b4; stroke: #1f77b4"/>
     <use xlink:href="#mc738367552" x="83.142339" y="49.885608" style="fill: #1f77b4; stroke: #1f77b4"/>
     <use xlink:href="#mc738367552" x="84.773768" y="51.316308" style="fill: #1f77b4; stroke: #1f77b4"/>
     <use xlink:href="#mc738367552" x="86.405198" y="50.184588" style="fill: #1f77b4; stroke: #1f77b4"/>
     <use xlink:href="#mc738367552" x="88.036628" y="51.225141" style="fill: #1f77b4; stroke: #1f77b4"/>
     <use xlink:href="#mc738367552" x="89.668058" y="51.865221" style="fill: #1f77b4; stroke: #1f77b4"/>
     <use xlink:href="#mc738367552" x="91.299488" y="50.508479" style="fill: #1f77b4; stroke: #1f77b4"/>
     <use xlink:href="#mc738367552" x="92.930918" y="49.738613" style="fill: #1f77b4; stroke: #1f77b4"/>
     <use xlink:href="#mc738367552" x="94.562348" y="51.080499" style="fill: #1f77b4; stroke: #1f77b4"/>
     <use xlink:href="#mc738367552" x="96.193778" y="49.629662" style="fill: #1f77b4; stroke: #1f77b4"/>
     <use xlink:href="#mc738367552" x="97.825207" y="49.888189" style="fill: #1f77b4; stroke: #1f77b4"/>
     <use xlink:href="#mc738367552" x="99.456637" y="49.545059" style="fill: #1f77b4; stroke: #1f77b4"/>
     <use xlink:href="#mc738367552" x="101.088067" y="50.15418" style="fill: #1f77b4; stroke: #1f77b4"/>
     <use xlink:href="#mc738367552" x="102.719497" y="50.2981" style="fill: #1f77b4; stroke: #1f77b4"/>
     <use xlink:href="#mc738367552" x="104.350927" y="49.584699" style="fill: #1f77b4; stroke: #1f77b4"/>
     <use xlink:href="#mc738367552" x="105.982357" y="49.381339" style="fill: #1f77b4; stroke: #1f77b4"/>
     <use xlink:href="#mc738367552" x="107.613787" y="50.661002" style="fill: #1f77b4; stroke: #1f77b4"/>
     <use xlink:href="#mc738367552" x="109.245217" y="49.348319" style="fill: #1f77b4; stroke: #1f77b4"/>
     <use xlink:href="#mc738367552" x="110.876646" y="50.286861" style="fill: #1f77b4; stroke: #1f77b4"/>
     <use xlink:href="#mc738367552" x="112.508076" y="49.265644" style="fill: #1f77b4; stroke: #1f77b4"/>
     <use xlink:href="#mc738367552" x="114.139506" y="49.307078" style="fill: #1f77b4; stroke: #1f77b4"/>
     <use xlink:href="#mc738367552" x="115.770936" y="49.077581" style="fill: #1f77b4; stroke: #1f77b4"/>
     <use xlink:href="#mc738367552" x="117.402366" y="49.574213" style="fill: #1f77b4; stroke: #1f77b4"/>
     <use xlink:href="#mc738367552" x="119.033796" y="48.711902" style="fill: #1f77b4; stroke: #1f77b4"/>
     <use xlink:href="#mc738367552" x="120.665226" y="49.859155" style="fill: #1f77b4; stroke: #1f77b4"/>
     <use xlink:href="#mc738367552" x="122.296656" y="48.781623" style="fill: #1f77b4; stroke: #1f77b4"/>
     <use xlink:href="#mc738367552" x="123.928085" y="49.791663" style="fill: #1f77b4; stroke: #1f77b4"/>
     <use xlink:href="#mc738367552" x="125.559515" y="49.855454" style="fill: #1f77b4; stroke: #1f77b4"/>
     <use xlink:href="#mc738367552" x="127.190945" y="48.947803" style="fill: #1f77b4; stroke: #1f77b4"/>
     <use xlink:href="#mc738367552" x="128.822375" y="50.134537" style="fill: #1f77b4; stroke: #1f77b4"/>
     <use xlink:href="#mc738367552" x="130.453805" y="49.600466" style="fill: #1f77b4; stroke: #1f77b4"/>
     <use xlink:href="#mc738367552" x="132.085235" y="49.276827" style="fill: #1f77b4; stroke: #1f77b4"/>
     <use xlink:href="#mc738367552" x="133.716665" y="47.258182" style="fill: #1f77b4; stroke: #1f77b4"/>
     <use xlink:href="#mc738367552" x="135.348095" y="50.035456" style="fill: #1f77b4; stroke: #1f77b4"/>
     <use xlink:href="#mc738367552" x="136.979524" y="50.192816" style="fill: #1f77b4; stroke: #1f77b4"/>
     <use xlink:href="#mc738367552" x="138.610954" y="48.596955" style="fill: #1f77b4; stroke: #1f77b4"/>
     <use xlink:href="#mc738367552" x="140.242384" y="49.080177" style="fill: #1f77b4; stroke: #1f77b4"/>
     <use xlink:href="#mc738367552" x="141.873814" y="48.667898" style="fill: #1f77b4; stroke: #1f77b4"/>
     <use xlink:href="#mc738367552" x="143.505244" y="48.391175" style="fill: #1f77b4; stroke: #1f77b4"/>
     <use xlink:href="#mc738367552" x="145.136674" y="48.904088" style="fill: #1f77b4; stroke: #1f77b4"/>
     <use xlink:href="#mc738367552" x="146.768104" y="48.325441" style="fill: #1f77b4; stroke: #1f77b4"/>
     <use xlink:href="#mc738367552" x="148.399534" y="48.574073" style="fill: #1f77b4; stroke: #1f77b4"/>
     <use xlink:href="#mc738367552" x="150.030963" y="48.299571" style="fill: #1f77b4; stroke: #1f77b4"/>
     <use xlink:href="#mc738367552" x="151.662393" y="48.458632" style="fill: #1f77b4; stroke: #1f77b4"/>
     <use xlink:href="#mc738367552" x="153.293823" y="49.374502" style="fill: #1f77b4; stroke: #1f77b4"/>
     <use xlink:href="#mc738367552" x="154.925253" y="48.493726" style="fill: #1f77b4; stroke: #1f77b4"/>
     <use xlink:href="#mc738367552" x="156.556683" y="48.734602" style="fill: #1f77b4; stroke: #1f77b4"/>
     <use xlink:href="#mc738367552" x="158.188113" y="49.606389" style="fill: #1f77b4; stroke: #1f77b4"/>
     <use xlink:href="#mc738367552" x="159.819543" y="48.469373" style="fill: #1f77b4; stroke: #1f77b4"/>
     <use xlink:href="#mc738367552" x="161.450973" y="48.862773" style="fill: #1f77b4; stroke: #1f77b4"/>
     <use xlink:href="#mc738367552" x="163.082402" y="47.860606" style="fill: #1f77b4; stroke: #1f77b4"/>
     <use xlink:href="#mc738367552" x="164.713832" y="49.124357" style="fill: #1f77b4; stroke: #1f77b4"/>
     <use xlink:href="#mc738367552" x="166.345262" y="49.377032" style="fill: #1f77b4; stroke: #1f77b4"/>
     <use xlink:href="#mc738367552" x="167.976692" y="49.576665" style="fill: #1f77b4; stroke: #1f77b4"/>
     <use xlink:href="#mc738367552" x="169.608122" y="50.487758" style="fill: #1f77b4; stroke: #1f77b4"/>
     <use xlink:href="#mc738367552" x="171.239552" y="49.229162" style="fill: #1f77b4; stroke: #1f77b4"/>
     <use xlink:href="#mc738367552" x="172.870982" y="50.927898" style="fill: #1f77b4; stroke: #1f77b4"/>
     <use xlink:href="#mc738367552" x="174.502412" y="52.219243" style="fill: #1f77b4; stroke: #1f77b4"/>
     <use xlink:href="#mc738367552" x="176.133842" y="51.908485" style="fill: #1f77b4; stroke: #1f77b4"/>
     <use xlink:href="#mc738367552" x="177.765271" y="53.552808" style="fill: #1f77b4; stroke: #1f77b4"/>
     <use xlink:href="#mc738367552" x="179.396701" y="53.71417" style="fill: #1f77b4; stroke: #1f77b4"/>
     <use xlink:href="#mc738367552" x="181.028131" y="53.082388" style="fill: #1f77b4; stroke: #1f77b4"/>
     <use xlink:href="#mc738367552" x="182.659561" y="54.70776" style="fill: #1f77b4; stroke: #1f77b4"/>
     <use xlink:href="#mc738367552" x="184.290991" y="57.22506" style="fill: #1f77b4; stroke: #1f77b4"/>
     <use xlink:href="#mc738367552" x="185.922421" y="57.746358" style="fill: #1f77b4; stroke: #1f77b4"/>
     <use xlink:href="#mc738367552" x="187.553851" y="58.764395" style="fill: #1f77b4; stroke: #1f77b4"/>
     <use xlink:href="#mc738367552" x="189.185281" y="61.512013" style="fill: #1f77b4; stroke: #1f77b4"/>
     <use xlink:href="#mc738367552" x="190.81671" y="61.035569" style="fill: #1f77b4; stroke: #1f77b4"/>
     <use xlink:href="#mc738367552" x="192.44814" y="64.80431" style="fill: #1f77b4; stroke: #1f77b4"/>
     <use xlink:href="#mc738367552" x="194.07957" y="67.852529" style="fill: #1f77b4; stroke: #1f77b4"/>
     <use xlink:href="#mc738367552" x="195.711" y="70.046424" style="fill: #1f77b4; stroke: #1f77b4"/>
     <use xlink:href="#mc738367552" x="197.34243" y="74.35014" style="fill: #1f77b4; stroke: #1f77b4"/>
     <use xlink:href="#mc738367552" x="198.97386" y="75.014203" style="fill: #1f77b4; stroke: #1f77b4"/>
     <use xlink:href="#mc738367552" x="200.60529" y="79.09447" style="fill: #1f77b4; stroke: #1f77b4"/>
     <use xlink:href="#mc738367552" x="202.23672" y="84.584228" style="fill: #1f77b4; stroke: #1f77b4"/>
     <use xlink:href="#mc738367552" x="203.868149" y="90.519905" style="fill: #1f77b4; stroke: #1f77b4"/>
     <use xlink:href="#mc738367552" x="205.499579" y="93.713282" style="fill: #1f77b4; stroke: #1f77b4"/>
     <use xlink:href="#mc738367552" x="207.131009" y="102.551051" style="fill: #1f77b4; stroke: #1f77b4"/>
     <use xlink:href="#mc738367552" x="208.762439" y="107.706185" style="fill: #1f77b4; stroke: #1f77b4"/>
     <use xlink:href="#mc738367552" x="210.393869" y="112.420243" style="fill: #1f77b4; stroke: #1f77b4"/>
     <use xlink:href="#mc738367552" x="212.025299" y="119.7756" style="fill: #1f77b4; stroke: #1f77b4"/>
     <use xlink:href="#mc738367552" x="213.656729" y="126.253737" style="fill: #1f77b4; stroke: #1f77b4"/>
     <use xlink:href="#mc738367552" x="215.288159" y="131.911174" style="fill: #1f77b4; stroke: #1f77b4"/>
     <use xlink:href="#mc738367552" x="216.919588" y="135.97917" style="fill: #1f77b4; stroke: #1f77b4"/>
     <use xlink:href="#mc738367552" x="218.551018" y="142.658649" style="fill: #1f77b4; stroke: #1f77b4"/>
     <use xlink:href="#mc738367552" x="220.182448" y="147.835649" style="fill: #1f77b4; stroke: #1f77b4"/>
     <use xlink:href="#mc738367552" x="221.813878" y="153.16692" style="fill: #1f77b4; stroke: #1f77b4"/>
     <use xlink:href="#mc738367552" x="223.445308" y="156.898871" style="fill: #1f77b4; stroke: #1f77b4"/>
     <use xlink:href="#mc738367552" x="225.076738" y="157.221818" style="fill: #1f77b4; stroke: #1f77b4"/>
     <use xlink:href="#mc738367552" x="226.708168" y="155.83241" style="fill: #1f77b4; stroke: #1f77b4"/>
     <use xlink:href="#mc738367552" x="228.339598" y="152.822448" style="fill: #1f77b4; stroke: #1f77b4"/>
     <use xlink:href="#mc738367552" x="229.971027" y="155.095034" style="fill: #1f77b4; stroke: #1f77b4"/>
     <use xlink:href="#mc738367552" x="231.602457" y="151.320689" style="fill: #1f77b4; stroke: #1f77b4"/>
     <use xlink:href="#mc738367552" x="233.233887" y="144.284153" style="fill: #1f77b4; stroke: #1f77b4"/>
     <use xlink:href="#mc738367552" x="234.865317" y="140.73255" style="fill: #1f77b4; stroke: #1f77b4"/>
     <use xlink:href="#mc738367552" x="236.496747" y="137.557588" style="fill: #1f77b4; stroke: #1f77b4"/>
     <use xlink:href="#mc738367552" x="238.128177" y="132.251963" style="fill: #1f77b4; stroke: #1f77b4"/>
     <use xlink:href="#mc738367552" x="239.759607" y="128.520193" style="fill: #1f77b4; stroke: #1f77b4"/>
     <use xlink:href="#mc738367552" x="241.391037" y="125.43117" style="fill: #1f77b4; stroke: #1f77b4"/>
     <use xlink:href="#mc738367552" x="243.022466" y="122.682495" style="fill: #1f77b4; stroke: #1f77b4"/>
     <use xlink:href="#mc738367552" x="244.653896" y="118.303147" style="fill: #1f77b4; stroke: #1f77b4"/>
     <use xlink:href="#mc738367552" x="246.285326" y="115.531768" style="fill: #1f77b4; stroke: #1f77b4"/>
     <use xlink:href="#mc738367552" x="247.916756" y="113.882253" style="fill: #1f77b4; stroke: #1f77b4"/>
     <use xlink:href="#mc738367552" x="249.548186" y="110.103255" style="fill: #1f77b4; stroke: #1f77b4"/>
     <use xlink:href="#mc738367552" x="251.179616" y="108.242977" style="fill: #1f77b4; stroke: #1f77b4"/>
     <use xlink:href="#mc738367552" x="252.811046" y="106.559362" style="fill: #1f77b4; stroke: #1f77b4"/>
     <use xlink:href="#mc738367552" x="254.442476" y="104.957235" style="fill: #1f77b4; stroke: #1f77b4"/>
     <use xlink:href="#mc738367552" x="256.073905" y="101.550806" style="fill: #1f77b4; stroke: #1f77b4"/>
     <use xlink:href="#mc738367552" x="257.705335" y="101.302334" style="fill: #1f77b4; stroke: #1f77b4"/>
     <use xlink:href="#mc738367552" x="259.336765" y="98.571903" style="fill: #1f77b4; stroke: #1f77b4"/>
     <use xlink:href="#mc738367552" x="260.968195" y="98.336713" style="fill: #1f77b4; stroke: #1f77b4"/>
     <use xlink:href="#mc738367552" x="262.599625" y="95.556994" style="fill: #1f77b4; stroke: #1f77b4"/>
     <use xlink:href="#mc738367552" x="264.231055" y="94.840618" style="fill: #1f77b4; stroke: #1f77b4"/>
     <use xlink:href="#mc738367552" x="265.862485" y="93.680081" style="fill: #1f77b4; stroke: #1f77b4"/>
     <use xlink:href="#mc738367552" x="267.493915" y="91.625087" style="fill: #1f77b4; stroke: #1f77b4"/>
     <use xlink:href="#mc738367552" x="269.125344" y="89.534466" style="fill: #1f77b4; stroke: #1f77b4"/>
     <use xlink:href="#mc738367552" x="270.756774" y="89.517899" style="fill: #1f77b4; stroke: #1f77b4"/>
     <use xlink:href="#mc738367552" x="272.388204" y="88.806451" style="fill: #1f77b4; stroke: #1f77b4"/>
     <use xlink:href="#mc738367552" x="274.019634" y="86.950743" style="fill: #1f77b4; stroke: #1f77b4"/>
     <use xlink:href="#mc738367552" x="275.651064" y="86.930857" style="fill: #1f77b4; stroke: #1f77b4"/>
     <use xlink:href="#mc738367552" x="277.282494" y="85.702431" style="fill: #1f77b4; stroke: #1f77b4"/>
     <use xlink:href="#mc738367552" x="278.913924" y="84.674653" style="fill: #1f77b4; stroke: #1f77b4"/>
     <use xlink:href="#mc738367552" x="280.545354" y="84.579339" style="fill: #1f77b4; stroke: #1f77b4"/>
     <use xlink:href="#mc738367552" x="282.176783" y="83.121289" style="fill: #1f77b4; stroke: #1f77b4"/>
     <use xlink:href="#mc738367552" x="283.808213" y="82.081294" style="fill: #1f77b4; stroke: #1f77b4"/>
     <use xlink:href="#mc738367552" x="285.439643" y="83.406938" style="fill: #1f77b4; stroke: #1f77b4"/>
     <use xlink:href="#mc738367552" x="287.071073" y="81.928189" style="fill: #1f77b4; stroke: #1f77b4"/>
     <use xlink:href="#mc738367552" x="288.702503" y="82.061893" style="fill: #1f77b4; stroke: #1f77b4"/>
     <use xlink:href="#mc738367552" x="290.333933" y="81.626793" style="fill: #1f77b4; stroke: #1f77b4"/>
     <use xlink:href="#mc738367552" x="291.965363" y="78.401158" style="fill: #1f77b4; stroke: #1f77b4"/>
     <use xlink:href="#mc738367552" x="293.596793" y="79.422801" style="fill: #1f77b4; stroke: #1f77b4"/>
     <use xlink:href="#mc738367552" x="295.228223" y="78.071805" style="fill: #1f77b4; stroke: #1f77b4"/>
     <use xlink:href="#mc738367552" x="296.859652" y="78.208367" style="fill: #1f77b4; stroke: #1f77b4"/>
     <use xlink:href="#mc738367552" x="298.491082" y="77.428229" style="fill: #1f77b4; stroke: #1f77b4"/>
     <use xlink:href="#mc738367552" x="300.122512" y="76.551128" style="fill: #1f77b4; stroke: #1f77b4"/>
     <use xlink:href="#mc738367552" x="301.753942" y="75.699158" style="fill: #1f77b4; stroke: #1f77b4"/>
     <use xlink:href="#mc738367552" x="303.385372" y="74.588203" style="fill: #1f77b4; stroke: #1f77b4"/>
     <use xlink:href="#mc738367552" x="305.016802" y="75.628006" style="fill: #1f77b4; stroke: #1f77b4"/>
     <use xlink:href="#mc738367552" x="306.648232" y="76.008739" style="fill: #1f77b4; stroke: #1f77b4"/>
     <use xlink:href="#mc738367552" x="308.279662" y="73.917666" style="fill: #1f77b4; stroke: #1f77b4"/>
     <use xlink:href="#mc738367552" x="309.911091" y="73.893849" style="fill: #1f77b4; stroke: #1f77b4"/>
     <use xlink:href="#mc738367552" x="311.542521" y="74.188606" style="fill: #1f77b4; stroke: #1f77b4"/>
     <use xlink:href="#mc738367552" x="313.173951" y="74.425164" style="fill: #1f77b4; stroke: #1f77b4"/>
     <use xlink:href="#mc738367552" x="314.805381" y="73.395795" style="fill: #1f77b4; stroke: #1f77b4"/>
     <use xlink:href="#mc738367552" x="316.436811" y="71.386079" style="fill: #1f77b4; stroke: #1f77b4"/>
     <use xlink:href="#mc738367552" x="318.068241" y="74.032021" style="fill: #1f77b4; stroke: #1f77b4"/>
     <use xlink:href="#mc738367552" x="319.699671" y="71.578901" style="fill: #1f77b4; stroke: #1f77b4"/>
     <use xlink:href="#mc738367552" x="321.331101" y="71.640771" style="fill: #1f77b4; stroke: #1f77b4"/>
     <use xlink:href="#mc738367552" x="322.96253" y="70.556074" style="fill: #1f77b4; stroke: #1f77b4"/>
     <use xlink:href="#mc738367552" x="324.59396" y="69.859144" style="fill: #1f77b4; stroke: #1f77b4"/>
     <use xlink:href="#mc738367552" x="326.22539" y="71.304618" style="fill: #1f77b4; stroke: #1f77b4"/>
     <use xlink:href="#mc738367552" x="327.85682" y="70.359619" style="fill: #1f77b4; stroke: #1f77b4"/>
     <use xlink:href="#mc738367552" x="329.48825" y="70.809107" style="fill: #1f77b4; stroke: #1f77b4"/>
     <use xlink:href="#mc738367552" x="331.11968" y="70.477808" style="fill: #1f77b4; stroke: #1f77b4"/>
     <use xlink:href="#mc738367552" x="332.75111" y="69.912514" style="fill: #1f77b4; stroke: #1f77b4"/>
     <use xlink:href="#mc738367552" x="334.38254" y="69.727735" style="fill: #1f77b4; stroke: #1f77b4"/>
     <use xlink:href="#mc738367552" x="336.013969" y="69.497399" style="fill: #1f77b4; stroke: #1f77b4"/>
     <use xlink:href="#mc738367552" x="337.645399" y="70.889988" style="fill: #1f77b4; stroke: #1f77b4"/>
     <use xlink:href="#mc738367552" x="339.276829" y="67.538062" style="fill: #1f77b4; stroke: #1f77b4"/>
     <use xlink:href="#mc738367552" x="340.908259" y="68.00531" style="fill: #1f77b4; stroke: #1f77b4"/>
     <use xlink:href="#mc738367552" x="342.539689" y="70.143687" style="fill: #1f77b4; stroke: #1f77b4"/>
     <use xlink:href="#mc738367552" x="344.171119" y="67.844723" style="fill: #1f77b4; stroke: #1f77b4"/>
     <use xlink:href="#mc738367552" x="345.802549" y="67.78609" style="fill: #1f77b4; stroke: #1f77b4"/>
     <use xlink:href="#mc738367552" x="347.433979" y="67.481824" style="fill: #1f77b4; stroke: #1f77b4"/>
     <use xlink:href="#mc738367552" x="349.065408" y="67.772168" style="fill: #1f77b4; stroke: #1f77b4"/>
     <use xlink:href="#mc738367552" x="350.696838" y="66.43928" style="fill: #1f77b4; stroke: #1f77b4"/>
     <use xlink:href="#mc738367552" x="352.328268" y="68.159228" style="fill: #1f77b4; stroke: #1f77b4"/>
     <use xlink:href="#mc738367552" x="353.959698" y="67.902319" style="fill: #1f77b4; stroke: #1f77b4"/>
     <use xlink:href="#mc738367552" x="355.591128" y="66.73205" style="fill: #1f77b4; stroke: #1f77b4"/>
     <use xlink:href="#mc738367552" x="357.222558" y="67.204562" style="fill: #1f77b4; stroke: #1f77b4"/>
     <use xlink:href="#mc738367552" x="358.853988" y="66.607372" style="fill: #1f77b4; stroke: #1f77b4"/>
     <use xlink:href="#mc738367552" x="360.485418" y="64.639514" style="fill: #1f77b4; stroke: #1f77b4"/>
     <use xlink:href="#mc738367552" x="362.116847" y="65.037767" style="fill: #1f77b4; stroke: #1f77b4"/>
     <use xlink:href="#mc738367552" x="363.748277" y="66.756977" style="fill: #1f77b4; stroke: #1f77b4"/>
     <use xlink:href="#mc738367552" x="365.379707" y="64.605907" style="fill: #1f77b4; stroke: #1f77b4"/>
     <use xlink:href="#mc738367552" x="367.011137" y="65.604718" style="fill: #1f77b4; stroke: #1f77b4"/>
     <use xlink:href="#mc738367552" x="368.642567" y="65.494265" style="fill: #1f77b4; stroke: #1f77b4"/>
     <use xlink:href="#mc738367552" x="370.273997" y="65.625791" style="fill: #1f77b4; stroke: #1f77b4"/>
     <use xlink:href="#mc738367552" x="371.905427" y="64.300786" style="fill: #1f77b4; stroke: #1f77b4"/>
     <use xlink:href="#mc738367552" x="373.536857" y="65.516542" style="fill: #1f77b4; stroke: #1f77b4"/>
     <use xlink:href="#mc738367552" x="375.168286" y="64.250814" style="fill: #1f77b4; stroke: #1f77b4"/>
     <use xlink:href="#mc738367552" x="376.799716" y="64.079038" style="fill: #1f77b4; stroke: #1f77b4"/>
     <use xlink:href="#mc738367552" x="378.431146" y="64.214705" style="fill: #1f77b4; stroke: #1f77b4"/>
     <use xlink:href="#mc738367552" x="380.062576" y="64.135711" style="fill: #1f77b4; stroke: #1f77b4"/>
     <use xlink:href="#mc738367552" x="381.694006" y="64.252747" style="fill: #1f77b4; stroke: #1f77b4"/>
     <use xlink:href="#mc738367552" x="383.325436" y="63.722992" style="fill: #1f77b4; stroke: #1f77b4"/>
     <use xlink:href="#mc738367552" x="384.956866" y="63.145401" style="fill: #1f77b4; stroke: #1f77b4"/>
     <use xlink:href="#mc738367552" x="386.588296" y="64.354686" style="fill: #1f77b4; stroke: #1f77b4"/>
     <use xlink:href="#mc738367552" x="388.219725" y="63.881986" style="fill: #1f77b4; stroke: #1f77b4"/>
     <use xlink:href="#mc738367552" x="389.851155" y="63.209266" style="fill: #1f77b4; stroke: #1f77b4"/>
     <use xlink:href="#mc738367552" x="391.482585" y="61.773288" style="fill: #1f77b4; stroke: #1f77b4"/>
    </g>
   </g>
   <g id="line2d_12">
    <path d="M 66.82804 50.663674 
L 106.150562 49.450863 
L 132.798883 48.697463 
L 143.848187 48.595462 
L 151.647696 48.730916 
L 157.822307 49.056468 
L 162.697 49.526442 
L 166.921733 50.153425 
L 170.496508 50.901333 
L 173.746303 51.808768 
L 176.671119 52.862022 
L 179.270955 54.032861 
L 181.545812 55.277692 
L 183.820669 56.768456 
L 186.095525 58.550406 
L 188.045403 60.349064 
L 189.99528 62.437303 
L 191.945157 64.856173 
L 193.895034 67.649919 
L 195.844911 70.86482 
L 197.794788 74.547265 
L 199.744665 78.740847 
L 201.694543 83.482316 
L 203.64442 88.796323 
L 205.919276 95.726537 
L 208.194133 103.408167 
L 210.793969 112.977059 
L 215.018703 129.55816 
L 218.268498 141.937123 
L 219.893396 147.415424 
L 221.193314 151.166221 
L 222.168253 153.474777 
L 223.143191 155.24914 
L 223.79315 156.095577 
L 224.443109 156.653467 
L 225.093068 156.916147 
L 225.743027 156.8875 
L 226.392987 156.581843 
L 227.042946 156.022236 
L 228.017884 154.771018 
L 228.992823 153.121655 
L 230.292741 150.480383 
L 232.242618 145.968024 
L 239.392168 128.930561 
L 241.992004 123.432693 
L 244.59184 118.43323 
L 247.191676 113.919377 
L 249.791512 109.85802 
L 252.391349 106.208178 
L 254.991185 102.927384 
L 257.591021 99.974888 
L 260.515837 96.999131 
L 263.440652 94.343653 
L 266.365468 91.966699 
L 269.615263 89.608562 
L 273.190038 87.310177 
L 276.764813 85.275991 
L 280.664567 83.312544 
L 284.889301 81.439855 
L 289.439014 79.671168 
L 294.313707 78.013985 
L 299.838359 76.381509 
L 305.687991 74.88634 
L 312.187581 73.453829 
L 319.337131 72.102678 
L 327.461619 70.795368 
L 336.561046 69.558652 
L 346.96039 68.374495 
L 358.984633 67.239266 
L 372.633773 66.180522 
L 388.55777 65.175149 
L 391.482585 65.012069 
L 391.482585 65.012069 
" clip-path="url(#peedc461a11)" style="fill: none; stroke: #d62728; stroke-width: 1.5; stroke-linecap: square"/>
   </g>
   <g id="patch_3">
    <path d="M 50.595313 162.72 
L 50.595313 41.76 
" style="fill: none; stroke: #000000; stroke-width: 0.8; stroke-linejoin: miter; stroke-linecap: square"/>
   </g>
   <g id="patch_4">
    <path d="M 407.715312 162.72 
L 407.715312 41.76 
" style="fill: none; stroke: #000000; stroke-width: 0.8; stroke-linejoin: miter; stroke-linecap: square"/>
   </g>
   <g id="patch_5">
    <path d="M 50.595312 162.72 
L 407.715313 162.72 
" style="fill: none; stroke: #000000; stroke-width: 0.8; stroke-linejoin: miter; stroke-linecap: square"/>
   </g>
   <g id="patch_6">
    <path d="M 50.595312 41.76 
L 407.715313 41.76 
" style="fill: none; stroke: #000000; stroke-width: 0.8; stroke-linejoin: miter; stroke-linecap: square"/>
   </g>
   <g id="text_7">
    <g id="patch_7">
     <path d="M 425.571312 95.079562 
L 570.771313 95.079562 
Q 574.771313 95.079562 574.771313 91.079562 
L 574.771313 47.808 
Q 574.771313 43.808 570.771313 43.808 
L 425.571312 43.808 
Q 421.571312 43.808 421.571312 47.808 
L 421.571312 91.079562 
Q 421.571312 95.079562 425.571312 95.079562 
z
" style="fill: #ffffff; opacity: 0.5; stroke: #000000; stroke-linejoin: miter"/>
    </g>
    <!-- Summary -->
    <g transform="translate(425.571312 55.406437) scale(0.1 -0.1)">
     <defs>
      <path id="DejaVuSans-53" d="M 3425 4513 
L 3425 3897 
Q 3066 4069 2747 4153 
Q 2428 4238 2131 4238 
Q 1616 4238 1336 4038 
Q 1056 3838 1056 3469 
Q 1056 3159 1242 3001 
Q 1428 2844 1947 2747 
L 2328 2669 
Q 3034 2534 3370 2195 
Q 3706 1856 3706 1288 
Q 3706 609 3251 259 
Q 2797 -91 1919 -91 
Q 1588 -91 1214 -16 
Q 841 59 441 206 
L 441 856 
Q 825 641 1194 531 
Q 1563 422 1919 422 
Q 2459 422 2753 634 
Q 3047 847 3047 1241 
Q 3047 1584 2836 1778 
Q 2625 1972 2144 2069 
L 1759 2144 
Q 1053 2284 737 2584 
Q 422 2884 422 3419 
Q 422 4038 858 4394 
Q 1294 4750 2059 4750 
Q 2388 4750 2728 4690 
Q 3069 4631 3425 4513 
z
" transform="scale(0.015625)"/>
      <path id="DejaVuSans-75" d="M 544 1381 
L 544 3500 
L 1119 3500 
L 1119 1403 
Q 1119 906 1312 657 
Q 1506 409 1894 409 
Q 2359 409 2629 706 
Q 2900 1003 2900 1516 
L 2900 3500 
L 3475 3500 
L 3475 0 
L 2900 0 
L 2900 538 
Q 2691 219 2414 64 
Q 2138 -91 1772 -91 
Q 1169 -91 856 284 
Q 544 659 544 1381 
z
M 1991 3584 
L 1991 3584 
z
" transform="scale(0.015625)"/>
      <path id="DejaVuSans-61" d="M 2194 1759 
Q 1497 1759 1228 1600 
Q 959 1441 959 1056 
Q 959 750 1161 570 
Q 1363 391 1709 391 
Q 2188 391 2477 730 
Q 2766 1069 2766 1631 
L 2766 1759 
L 2194 1759 
z
M 3341 1997 
L 3341 0 
L 2766 0 
L 2766 531 
Q 2569 213 2275 61 
Q 1981 -91 1556 -91 
Q 1019 -91 701 211 
Q 384 513 384 1019 
Q 384 1609 779 1909 
Q 1175 2209 1959 2209 
L 2766 2209 
L 2766 2266 
Q 2766 2663 2505 2880 
Q 2244 3097 1772 3097 
Q 1472 3097 1187 3025 
Q 903 2953 641 2809 
L 641 3341 
Q 956 3463 1253 3523 
Q 1550 3584 1831 3584 
Q 2591 3584 2966 3190 
Q 3341 2797 3341 1997 
z
" transform="scale(0.015625)"/>
      <path id="DejaVuSans-72" d="M 2631 2963 
Q 2534 3019 2420 3045 
Q 2306 3072 2169 3072 
Q 1681 3072 1420 2755 
Q 1159 2438 1159 1844 
L 1159 0 
L 581 0 
L 581 3500 
L 1159 3500 
L 1159 2956 
Q 1341 3275 1631 3429 
Q 1922 3584 2338 3584 
Q 2397 3584 2469 3576 
Q 2541 3569 2628 3553 
L 2631 2963 
z
" transform="scale(0.015625)"/>
      <path id="DejaVuSans-79" d="M 2059 -325 
Q 1816 -950 1584 -1140 
Q 1353 -1331 966 -1331 
L 506 -1331 
L 506 -850 
L 844 -850 
Q 1081 -850 1212 -737 
Q 1344 -625 1503 -206 
L 1606 56 
L 191 3500 
L 800 3500 
L 1894 763 
L 2988 3500 
L 3597 3500 
L 2059 -325 
z
" transform="scale(0.015625)"/>
     </defs>
     <use xlink:href="#DejaVuSans-53"/>
     <use xlink:href="#DejaVuSans-75" x="63.476562"/>
     <use xlink:href="#DejaVuSans-6d" x="126.855469"/>
     <use xlink:href="#DejaVuSans-6d" x="224.267578"/>
     <use xlink:href="#DejaVuSans-61" x="321.679688"/>
     <use xlink:href="#DejaVuSans-72" x="382.958984"/>
     <use xlink:href="#DejaVuSans-79" x="424.072266"/>
    </g>
    <!-- $Q_I$: 15.74$\pm$0.16 k -->
    <g transform="translate(425.571312 66.60425) scale(0.1 -0.1)">
     <defs>
      <path id="DejaVuSans-Oblique-51" d="M 2309 -84 
Q 2275 -88 2237 -89 
Q 2200 -91 2125 -91 
Q 1250 -91 756 411 
Q 263 913 263 1797 
Q 263 2319 452 2844 
Q 641 3369 978 3788 
Q 1369 4269 1858 4509 
Q 2347 4750 2938 4750 
Q 3794 4750 4287 4245 
Q 4781 3741 4781 2869 
Q 4781 1928 4265 1147 
Q 3750 366 2919 44 
L 3553 -825 
L 2847 -825 
L 2309 -84 
z
M 2919 4238 
Q 2400 4238 2003 3986 
Q 1606 3734 1313 3219 
Q 1125 2891 1026 2522 
Q 928 2153 928 1778 
Q 928 1128 1239 775 
Q 1550 422 2119 422 
Q 2631 422 3032 676 
Q 3434 931 3719 1434 
Q 3909 1772 4009 2142 
Q 4109 2513 4109 2881 
Q 4109 3528 3796 3883 
Q 3484 4238 2919 4238 
z
" transform="scale(0.015625)"/>
      <path id="DejaVuSans-Oblique-49" d="M 1081 4666 
L 1716 4666 
L 806 0 
L 172 0 
L 1081 4666 
z
" transform="scale(0.015625)"/>
      <path id="DejaVuSans-3a" d="M 750 794 
L 1409 794 
L 1409 0 
L 750 0 
L 750 794 
z
M 750 3309 
L 1409 3309 
L 1409 2516 
L 750 2516 
L 750 3309 
z
" transform="scale(0.015625)"/>
      <path id="DejaVuSans-35" d="M 691 4666 
L 3169 4666 
L 3169 4134 
L 1269 4134 
L 1269 2991 
Q 1406 3038 1543 3061 
Q 1681 3084 1819 3084 
Q 2600 3084 3056 2656 
Q 3513 2228 3513 1497 
Q 3513 744 3044 326 
Q 2575 -91 1722 -91 
Q 1428 -91 1123 -41 
Q 819 9 494 109 
L 494 744 
Q 775 591 1075 516 
Q 1375 441 1709 441 
Q 2250 441 2565 725 
Q 2881 1009 2881 1497 
Q 2881 1984 2565 2268 
Q 2250 2553 1709 2553 
Q 1456 2553 1204 2497 
Q 953 2441 691 2322 
L 691 4666 
z
" transform="scale(0.015625)"/>
      <path id="DejaVuSans-2e" d="M 684 794 
L 1344 794 
L 1344 0 
L 684 0 
L 684 794 
z
" transform="scale(0.015625)"/>
      <path id="DejaVuSans-37" d="M 525 4666 
L 3525 4666 
L 3525 4397 
L 1831 0 
L 1172 0 
L 2766 4134 
L 525 4134 
L 525 4666 
z
" transform="scale(0.015625)"/>
      <path id="DejaVuSans-b1" d="M 2944 4013 
L 2944 2803 
L 4684 2803 
L 4684 2272 
L 2944 2272 
L 2944 1063 
L 2419 1063 
L 2419 2272 
L 678 2272 
L 678 2803 
L 2419 2803 
L 2419 4013 
L 2944 4013 
z
M 678 531 
L 4684 531 
L 4684 0 
L 678 0 
L 678 531 
z
" transform="scale(0.015625)"/>
      <path id="DejaVuSans-6b" d="M 581 4863 
L 1159 4863 
L 1159 1991 
L 2875 3500 
L 3609 3500 
L 1753 1863 
L 3688 0 
L 2938 0 
L 1159 1709 
L 1159 0 
L 581 0 
L 581 4863 
z
" transform="scale(0.015625)"/>
     </defs>
     <use xlink:href="#DejaVuSans-Oblique-51" transform="translate(0 0.015625)"/>
     <use xlink:href="#DejaVuSans-Oblique-49" transform="translate(78.710938 -16.390625) scale(0.7)"/>
     <use xlink:href="#DejaVuSans-3a" transform="translate(102.089844 0.015625)"/>
     <use xlink:href="#DejaVuSans-20" transform="translate(135.78125 0.015625)"/>
     <use xlink:href="#DejaVuSans-31" transform="translate(167.568359 0.015625)"/>
     <use xlink:href="#DejaVuSans-35" transform="translate(231.191406 0.015625)"/>
     <use xlink:href="#DejaVuSans-2e" transform="translate(294.814453 0.015625)"/>
     <use xlink:href="#DejaVuSans-37" transform="translate(318.851562 0.015625)"/>
     <use xlink:href="#DejaVuSans-34" transform="translate(382.474609 0.015625)"/>
     <use xlink:href="#DejaVuSans-b1" transform="translate(446.097656 0.015625)"/>
     <use xlink:href="#DejaVuSans-30" transform="translate(529.886719 0.015625)"/>
     <use xlink:href="#DejaVuSans-2e" transform="translate(593.509766 0.015625)"/>
     <use xlink:href="#DejaVuSans-31" transform="translate(625.296875 0.015625)"/>
     <use xlink:href="#DejaVuSans-36" transform="translate(688.919922 0.015625)"/>
     <use xlink:href="#DejaVuSans-20" transform="translate(752.542969 0.015625)"/>
     <use xlink:href="#DejaVuSans-6b" transform="translate(784.330078 0.015625)"/>
    </g>
    <!-- $Q_C$: 4.537$\pm$0.016 k -->
    <g transform="translate(425.571312 77.802062) scale(0.1 -0.1)">
     <defs>
      <path id="DejaVuSans-Oblique-43" d="M 4447 4306 
L 4319 3641 
Q 4019 3944 3683 4091 
Q 3347 4238 2956 4238 
Q 2422 4238 2017 3981 
Q 1613 3725 1319 3200 
Q 1131 2863 1032 2486 
Q 934 2109 934 1728 
Q 934 1091 1264 756 
Q 1594 422 2222 422 
Q 2656 422 3056 561 
Q 3456 700 3834 978 
L 3688 231 
Q 3316 72 2936 -9 
Q 2556 -91 2175 -91 
Q 1278 -91 773 396 
Q 269 884 269 1753 
Q 269 2309 461 2846 
Q 653 3384 1013 3828 
Q 1394 4300 1883 4525 
Q 2372 4750 3022 4750 
Q 3422 4750 3780 4639 
Q 4138 4528 4447 4306 
z
" transform="scale(0.015625)"/>
      <path id="DejaVuSans-33" d="M 2597 2516 
Q 3050 2419 3304 2112 
Q 3559 1806 3559 1356 
Q 3559 666 3084 287 
Q 2609 -91 1734 -91 
Q 1441 -91 1130 -33 
Q 819 25 488 141 
L 488 750 
Q 750 597 1062 519 
Q 1375 441 1716 441 
Q 2309 441 2620 675 
Q 2931 909 2931 1356 
Q 2931 1769 2642 2001 
Q 2353 2234 1838 2234 
L 1294 2234 
L 1294 2753 
L 1863 2753 
Q 2328 2753 2575 2939 
Q 2822 3125 2822 3475 
Q 2822 3834 2567 4026 
Q 2313 4219 1838 4219 
Q 1578 4219 1281 4162 
Q 984 4106 628 3988 
L 628 4550 
Q 988 4650 1302 4700 
Q 1616 4750 1894 4750 
Q 2613 4750 3031 4423 
Q 3450 4097 3450 3541 
Q 3450 3153 3228 2886 
Q 3006 2619 2597 2516 
z
" transform="scale(0.015625)"/>
     </defs>
     <use xlink:href="#DejaVuSans-Oblique-51" transform="translate(0 0.015625)"/>
     <use xlink:href="#DejaVuSans-Oblique-43" transform="translate(78.710938 -16.390625) scale(0.7)"/>
     <use xlink:href="#DejaVuSans-3a" transform="translate(130.322266 0.015625)"/>
     <use xlink:href="#DejaVuSans-20" transform="translate(164.013672 0.015625)"/>
     <use xlink:href="#DejaVuSans-34" transform="translate(195.800781 0.015625)"/>
     <use xlink:href="#DejaVuSans-2e" transform="translate(259.423828 0.015625)"/>
     <use xlink:href="#DejaVuSans-35" transform="translate(291.210938 0.015625)"/>
     <use xlink:href="#DejaVuSans-33" transform="translate(354.833984 0.015625)"/>
     <use xlink:href="#DejaVuSans-37" transform="translate(418.457031 0.015625)"/>
     <use xlink:href="#DejaVuSans-b1" transform="translate(482.080078 0.015625)"/>
     <use xlink:href="#DejaVuSans-30" transform="translate(565.869141 0.015625)"/>
     <use xlink:href="#DejaVuSans-2e" transform="translate(629.492188 0.015625)"/>
     <use xlink:href="#DejaVuSans-30" transform="translate(661.279297 0.015625)"/>
     <use xlink:href="#DejaVuSans-31" transform="translate(724.902344 0.015625)"/>
     <use xlink:href="#DejaVuSans-36" transform="translate(788.525391 0.015625)"/>
     <use xlink:href="#DejaVuSans-20" transform="translate(852.148438 0.015625)"/>
     <use xlink:href="#DejaVuSans-6b" transform="translate(883.935547 0.015625)"/>
    </g>
    <!-- $f_{res}$: 5.9134684$\pm$3.2e-06 GHz -->
    <g transform="translate(425.571312 88.999875) scale(0.1 -0.1)">
     <defs>
      <path id="DejaVuSans-Oblique-66" d="M 3059 4863 
L 2969 4384 
L 2419 4384 
Q 2106 4384 1964 4261 
Q 1822 4138 1753 3809 
L 1691 3500 
L 2638 3500 
L 2553 3053 
L 1606 3053 
L 1013 0 
L 434 0 
L 1031 3053 
L 481 3053 
L 563 3500 
L 1113 3500 
L 1159 3744 
Q 1278 4363 1576 4613 
Q 1875 4863 2516 4863 
L 3059 4863 
z
" transform="scale(0.015625)"/>
      <path id="DejaVuSans-Oblique-72" d="M 2853 2969 
Q 2766 3016 2653 3041 
Q 2541 3066 2413 3066 
Q 1953 3066 1609 2717 
Q 1266 2369 1153 1784 
L 800 0 
L 225 0 
L 909 3500 
L 1484 3500 
L 1375 2956 
Q 1603 3259 1920 3421 
Q 2238 3584 2597 3584 
Q 2691 3584 2781 3573 
Q 2872 3563 2963 3538 
L 2853 2969 
z
" transform="scale(0.015625)"/>
      <path id="DejaVuSans-Oblique-65" d="M 3078 2063 
Q 3088 2113 3092 2166 
Q 3097 2219 3097 2272 
Q 3097 2653 2873 2875 
Q 2650 3097 2266 3097 
Q 1838 3097 1509 2826 
Q 1181 2556 1013 2059 
L 3078 2063 
z
M 3578 1613 
L 903 1613 
Q 884 1494 878 1425 
Q 872 1356 872 1306 
Q 872 872 1139 634 
Q 1406 397 1894 397 
Q 2269 397 2603 481 
Q 2938 566 3225 728 
L 3116 159 
Q 2806 34 2476 -28 
Q 2147 -91 1806 -91 
Q 1078 -91 686 257 
Q 294 606 294 1247 
Q 294 1794 489 2264 
Q 684 2734 1063 3103 
Q 1306 3334 1642 3459 
Q 1978 3584 2356 3584 
Q 2950 3584 3301 3228 
Q 3653 2872 3653 2272 
Q 3653 2128 3634 1964 
Q 3616 1800 3578 1613 
z
" transform="scale(0.015625)"/>
      <path id="DejaVuSans-Oblique-73" d="M 3200 3397 
L 3091 2853 
Q 2863 2978 2609 3040 
Q 2356 3103 2088 3103 
Q 1634 3103 1373 2948 
Q 1113 2794 1113 2528 
Q 1113 2219 1719 2053 
Q 1766 2041 1788 2034 
L 1972 1978 
Q 2547 1819 2739 1644 
Q 2931 1469 2931 1166 
Q 2931 609 2489 259 
Q 2047 -91 1331 -91 
Q 1053 -91 747 -37 
Q 441 16 72 128 
L 184 722 
Q 500 559 806 475 
Q 1113 391 1394 391 
Q 1816 391 2080 572 
Q 2344 753 2344 1031 
Q 2344 1331 1650 1516 
L 1591 1531 
L 1394 1581 
Q 956 1697 753 1886 
Q 550 2075 550 2369 
Q 550 2928 970 3256 
Q 1391 3584 2113 3584 
Q 2397 3584 2667 3537 
Q 2938 3491 3200 3397 
z
" transform="scale(0.015625)"/>
      <path id="DejaVuSans-39" d="M 703 97 
L 703 672 
Q 941 559 1184 500 
Q 1428 441 1663 441 
Q 2288 441 2617 861 
Q 2947 1281 2994 2138 
Q 2813 1869 2534 1725 
Q 2256 1581 1919 1581 
Q 1219 1581 811 2004 
Q 403 2428 403 3163 
Q 403 3881 828 4315 
Q 1253 4750 1959 4750 
Q 2769 4750 3195 4129 
Q 3622 3509 3622 2328 
Q 3622 1225 3098 567 
Q 2575 -91 1691 -91 
Q 1453 -91 1209 -44 
Q 966 3 703 97 
z
M 1959 2075 
Q 2384 2075 2632 2365 
Q 2881 2656 2881 3163 
Q 2881 3666 2632 3958 
Q 2384 4250 1959 4250 
Q 1534 4250 1286 3958 
Q 1038 3666 1038 3163 
Q 1038 2656 1286 2365 
Q 1534 2075 1959 2075 
z
" transform="scale(0.015625)"/>
      <path id="DejaVuSans-65" d="M 3597 1894 
L 3597 1613 
L 953 1613 
Q 991 1019 1311 708 
Q 1631 397 2203 397 
Q 2534 397 2845 478 
Q 3156 559 3463 722 
L 3463 178 
Q 3153 47 2828 -22 
Q 2503 -91 2169 -91 
Q 1331 -91 842 396 
Q 353 884 353 1716 
Q 353 2575 817 3079 
Q 1281 3584 2069 3584 
Q 2775 3584 3186 3129 
Q 3597 2675 3597 1894 
z
M 3022 2063 
Q 3016 2534 2758 2815 
Q 2500 3097 2075 3097 
Q 1594 3097 1305 2825 
Q 1016 2553 972 2059 
L 3022 2063 
z
" transform="scale(0.015625)"/>
      <path id="DejaVuSans-2d" d="M 313 2009 
L 1997 2009 
L 1997 1497 
L 313 1497 
L 313 2009 
z
" transform="scale(0.015625)"/>
      <path id="DejaVuSans-47" d="M 3809 666 
L 3809 1919 
L 2778 1919 
L 2778 2438 
L 4434 2438 
L 4434 434 
Q 4069 175 3628 42 
Q 3188 -91 2688 -91 
Q 1594 -91 976 548 
Q 359 1188 359 2328 
Q 359 3472 976 4111 
Q 1594 4750 2688 4750 
Q 3144 4750 3555 4637 
Q 3966 4525 4313 4306 
L 4313 3634 
Q 3963 3931 3569 4081 
Q 3175 4231 2741 4231 
Q 1884 4231 1454 3753 
Q 1025 3275 1025 2328 
Q 1025 1384 1454 906 
Q 1884 428 2741 428 
Q 3075 428 3337 486 
Q 3600 544 3809 666 
z
" transform="scale(0.015625)"/>
      <path id="DejaVuSans-48" d="M 628 4666 
L 1259 4666 
L 1259 2753 
L 3553 2753 
L 3553 4666 
L 4184 4666 
L 4184 0 
L 3553 0 
L 3553 2222 
L 1259 2222 
L 1259 0 
L 628 0 
L 628 4666 
z
" transform="scale(0.015625)"/>
      <path id="DejaVuSans-7a" d="M 353 3500 
L 3084 3500 
L 3084 2975 
L 922 459 
L 3084 459 
L 3084 0 
L 275 0 
L 275 525 
L 2438 3041 
L 353 3041 
L 353 3500 
z
" transform="scale(0.015625)"/>
     </defs>
     <use xlink:href="#DejaVuSans-Oblique-66" transform="translate(0 0.015625)"/>
     <use xlink:href="#DejaVuSans-Oblique-72" transform="translate(35.205078 -16.390625) scale(0.7)"/>
     <use xlink:href="#DejaVuSans-Oblique-65" transform="translate(63.984375 -16.390625) scale(0.7)"/>
     <use xlink:href="#DejaVuSans-Oblique-73" transform="translate(107.050781 -16.390625) scale(0.7)"/>
     <use xlink:href="#DejaVuSans-3a" transform="translate(146.254883 0.015625)"/>
     <use xlink:href="#DejaVuSans-20" transform="translate(179.946289 0.015625)"/>
     <use xlink:href="#DejaVuSans-35" transform="translate(211.733398 0.015625)"/>
     <use xlink:href="#DejaVuSans-2e" transform="translate(275.356445 0.015625)"/>
     <use xlink:href="#DejaVuSans-39" transform="translate(307.143555 0.015625)"/>
     <use xlink:href="#DejaVuSans-31" transform="translate(370.766602 0.015625)"/>
     <use xlink:href="#DejaVuSans-33" transform="translate(434.389648 0.015625)"/>
     <use xlink:href="#DejaVuSans-34" transform="translate(498.012695 0.015625)"/>
     <use xlink:href="#DejaVuSans-36" transform="translate(561.635742 0.015625)"/>
     <use xlink:href="#DejaVuSans-38" transform="translate(625.258789 0.015625)"/>
     <use xlink:href="#DejaVuSans-34" transform="translate(688.881836 0.015625)"/>
     <use xlink:href="#DejaVuSans-b1" transform="translate(752.504883 0.015625)"/>
     <use xlink:href="#DejaVuSans-33" transform="translate(836.293945 0.015625)"/>
     <use xlink:href="#DejaVuSans-2e" transform="translate(899.916992 0.015625)"/>
     <use xlink:href="#DejaVuSans-32" transform="translate(926.204102 0.015625)"/>
     <use xlink:href="#DejaVuSans-65" transform="translate(989.827148 0.015625)"/>
     <use xlink:href="#DejaVuSans-2d" transform="translate(1051.350586 0.015625)"/>
     <use xlink:href="#DejaVuSans-30" transform="translate(1087.43457 0.015625)"/>
     <use xlink:href="#DejaVuSans-36" transform="translate(1151.057617 0.015625)"/>
     <use xlink:href="#DejaVuSans-20" transform="translate(1214.680664 0.015625)"/>
     <use xlink:href="#DejaVuSans-47" transform="translate(1246.467773 0.015625)"/>
     <use xlink:href="#DejaVuSans-48" transform="translate(1323.958008 0.015625)"/>
     <use xlink:href="#DejaVuSans-7a" transform="translate(1399.15332 0.015625)"/>
    </g>
   </g>
  </g>
  <g id="axes_2">
   <g id="patch_8">
    <path d="M 50.595313 307.872 
L 407.715312 307.872 
L 407.715312 186.912 
L 50.595313 186.912 
z
" style="fill: #ffffff"/>
   </g>
   <g id="matplotlib.axis_3">
    <g id="xtick_6">
     <g id="line2d_13">
      <g>
       <use xlink:href="#mdb065cee45" x="102.54004" y="307.872" style="stroke: #000000; stroke-width: 0.8"/>
      </g>
     </g>
     <g id="text_8">
      <!-- 910 -->
      <g transform="translate(92.99629 322.470438) scale(0.1 -0.1)">
       <use xlink:href="#DejaVuSans-39"/>
       <use xlink:href="#DejaVuSans-31" x="63.623047"/>
       <use xlink:href="#DejaVuSans-30" x="127.246094"/>
      </g>
     </g>
    </g>
    <g id="xtick_7">
     <g id="line2d_14">
      <g>
       <use xlink:href="#mdb065cee45" x="167.470949" y="307.872" style="stroke: #000000; stroke-width: 0.8"/>
      </g>
     </g>
     <g id="text_9">
      <!-- 912 -->
      <g transform="translate(157.927199 322.470438) scale(0.1 -0.1)">
       <use xlink:href="#DejaVuSans-39"/>
       <use xlink:href="#DejaVuSans-31" x="63.623047"/>
       <use xlink:href="#DejaVuSans-32" x="127.246094"/>
      </g>
     </g>
    </g>
    <g id="xtick_8">
     <g id="line2d_15">
      <g>
       <use xlink:href="#mdb065cee45" x="232.401858" y="307.872" style="stroke: #000000; stroke-width: 0.8"/>
      </g>
     </g>
     <g id="text_10">
      <!-- 914 -->
      <g transform="translate(222.858108 322.470438) scale(0.1 -0.1)">
       <use xlink:href="#DejaVuSans-39"/>
       <use xlink:href="#DejaVuSans-31" x="63.623047"/>
       <use xlink:href="#DejaVuSans-34" x="127.246094"/>
      </g>
     </g>
    </g>
    <g id="xtick_9">
     <g id="line2d_16">
      <g>
       <use xlink:href="#mdb065cee45" x="297.332767" y="307.872" style="stroke: #000000; stroke-width: 0.8"/>
      </g>
     </g>
     <g id="text_11">
      <!-- 916 -->
      <g transform="translate(287.789017 322.470438) scale(0.1 -0.1)">
       <use xlink:href="#DejaVuSans-39"/>
       <use xlink:href="#DejaVuSans-31" x="63.623047"/>
       <use xlink:href="#DejaVuSans-36" x="127.246094"/>
      </g>
     </g>
    </g>
    <g id="xtick_10">
     <g id="line2d_17">
      <g>
       <use xlink:href="#mdb065cee45" x="362.263676" y="307.872" style="stroke: #000000; stroke-width: 0.8"/>
      </g>
     </g>
     <g id="text_12">
      <!-- 918 -->
      <g transform="translate(352.719926 322.470438) scale(0.1 -0.1)">
       <use xlink:href="#DejaVuSans-39"/>
       <use xlink:href="#DejaVuSans-31" x="63.623047"/>
       <use xlink:href="#DejaVuSans-38" x="127.246094"/>
      </g>
     </g>
    </g>
    <g id="text_13">
     <!-- Frequency [MHz] -->
     <g transform="translate(187.136562 336.148562) scale(0.1 -0.1)">
      <defs>
       <path id="DejaVuSans-46" d="M 628 4666 
L 3309 4666 
L 3309 4134 
L 1259 4134 
L 1259 2759 
L 3109 2759 
L 3109 2228 
L 1259 2228 
L 1259 0 
L 628 0 
L 628 4666 
z
" transform="scale(0.015625)"/>
       <path id="DejaVuSans-71" d="M 947 1747 
Q 947 1113 1208 752 
Q 1469 391 1925 391 
Q 2381 391 2643 752 
Q 2906 1113 2906 1747 
Q 2906 2381 2643 2742 
Q 2381 3103 1925 3103 
Q 1469 3103 1208 2742 
Q 947 2381 947 1747 
z
M 2906 525 
Q 2725 213 2448 61 
Q 2172 -91 1784 -91 
Q 1150 -91 751 415 
Q 353 922 353 1747 
Q 353 2572 751 3078 
Q 1150 3584 1784 3584 
Q 2172 3584 2448 3432 
Q 2725 3281 2906 2969 
L 2906 3500 
L 3481 3500 
L 3481 -1331 
L 2906 -1331 
L 2906 525 
z
" transform="scale(0.015625)"/>
       <path id="DejaVuSans-6e" d="M 3513 2113 
L 3513 0 
L 2938 0 
L 2938 2094 
Q 2938 2591 2744 2837 
Q 2550 3084 2163 3084 
Q 1697 3084 1428 2787 
Q 1159 2491 1159 1978 
L 1159 0 
L 581 0 
L 581 3500 
L 1159 3500 
L 1159 2956 
Q 1366 3272 1645 3428 
Q 1925 3584 2291 3584 
Q 2894 3584 3203 3211 
Q 3513 2838 3513 2113 
z
" transform="scale(0.015625)"/>
       <path id="DejaVuSans-63" d="M 3122 3366 
L 3122 2828 
Q 2878 2963 2633 3030 
Q 2388 3097 2138 3097 
Q 1578 3097 1268 2742 
Q 959 2388 959 1747 
Q 959 1106 1268 751 
Q 1578 397 2138 397 
Q 2388 397 2633 464 
Q 2878 531 3122 666 
L 3122 134 
Q 2881 22 2623 -34 
Q 2366 -91 2075 -91 
Q 1284 -91 818 406 
Q 353 903 353 1747 
Q 353 2603 823 3093 
Q 1294 3584 2113 3584 
Q 2378 3584 2631 3529 
Q 2884 3475 3122 3366 
z
" transform="scale(0.015625)"/>
       <path id="DejaVuSans-4d" d="M 628 4666 
L 1569 4666 
L 2759 1491 
L 3956 4666 
L 4897 4666 
L 4897 0 
L 4281 0 
L 4281 4097 
L 3078 897 
L 2444 897 
L 1241 4097 
L 1241 0 
L 628 0 
L 628 4666 
z
" transform="scale(0.015625)"/>
      </defs>
      <use xlink:href="#DejaVuSans-46"/>
      <use xlink:href="#DejaVuSans-72" x="50.269531"/>
      <use xlink:href="#DejaVuSans-65" x="89.132812"/>
      <use xlink:href="#DejaVuSans-71" x="150.65625"/>
      <use xlink:href="#DejaVuSans-75" x="214.132812"/>
      <use xlink:href="#DejaVuSans-65" x="277.511719"/>
      <use xlink:href="#DejaVuSans-6e" x="339.035156"/>
      <use xlink:href="#DejaVuSans-63" x="402.414062"/>
      <use xlink:href="#DejaVuSans-79" x="457.394531"/>
      <use xlink:href="#DejaVuSans-20" x="516.574219"/>
      <use xlink:href="#DejaVuSans-5b" x="548.361328"/>
      <use xlink:href="#DejaVuSans-4d" x="587.375"/>
      <use xlink:href="#DejaVuSans-48" x="673.654297"/>
      <use xlink:href="#DejaVuSans-7a" x="748.849609"/>
      <use xlink:href="#DejaVuSans-5d" x="801.339844"/>
     </g>
    </g>
    <g id="text_14">
     <!-- +5 GHz -->
     <g transform="translate(369.277812 335.148562) scale(0.1 -0.1)">
      <defs>
       <path id="DejaVuSans-2b" d="M 2944 4013 
L 2944 2272 
L 4684 2272 
L 4684 1741 
L 2944 1741 
L 2944 0 
L 2419 0 
L 2419 1741 
L 678 1741 
L 678 2272 
L 2419 2272 
L 2419 4013 
L 2944 4013 
z
" transform="scale(0.015625)"/>
      </defs>
      <use xlink:href="#DejaVuSans-2b"/>
      <use xlink:href="#DejaVuSans-35" x="83.789062"/>
      <use xlink:href="#DejaVuSans-20" x="147.412109"/>
      <use xlink:href="#DejaVuSans-47" x="179.199219"/>
      <use xlink:href="#DejaVuSans-48" x="256.689453"/>
      <use xlink:href="#DejaVuSans-7a" x="331.884766"/>
     </g>
    </g>
   </g>
   <g id="matplotlib.axis_4">
    <g id="ytick_6">
     <g id="line2d_18">
      <g>
       <use xlink:href="#m2724f40383" x="50.595313" y="277.920066" style="stroke: #000000; stroke-width: 0.8"/>
      </g>
     </g>
     <g id="text_15">
      <!-- -100 -->
      <g transform="translate(20.9 281.719284) scale(0.1 -0.1)">
       <use xlink:href="#DejaVuSans-2d"/>
       <use xlink:href="#DejaVuSans-31" x="36.083984"/>
       <use xlink:href="#DejaVuSans-30" x="99.707031"/>
       <use xlink:href="#DejaVuSans-30" x="163.330078"/>
      </g>
     </g>
    </g>
    <g id="ytick_7">
     <g id="line2d_19">
      <g>
       <use xlink:href="#m2724f40383" x="50.595313" y="247.341624" style="stroke: #000000; stroke-width: 0.8"/>
      </g>
     </g>
     <g id="text_16">
      <!-- 0 -->
      <g transform="translate(37.232813 251.140843) scale(0.1 -0.1)">
       <use xlink:href="#DejaVuSans-30"/>
      </g>
     </g>
    </g>
    <g id="ytick_8">
     <g id="line2d_20">
      <g>
       <use xlink:href="#m2724f40383" x="50.595313" y="216.763183" style="stroke: #000000; stroke-width: 0.8"/>
      </g>
     </g>
     <g id="text_17">
      <!-- 100 -->
      <g transform="translate(24.507813 220.562402) scale(0.1 -0.1)">
       <use xlink:href="#DejaVuSans-31"/>
       <use xlink:href="#DejaVuSans-30" x="63.623047"/>
       <use xlink:href="#DejaVuSans-30" x="127.246094"/>
      </g>
     </g>
    </g>
    <g id="text_18">
     <!-- $\angle S_{21}$ [deg] -->
     <g transform="translate(14.8 274.592) rotate(-90) scale(0.1 -0.1)">
      <defs>
       <path id="DejaVuSans-2220" d="M 5028 631 
L 5028 0 
L 547 0 
L 3525 4666 
L 4281 4666 
L 1716 631 
L 5028 631 
z
" transform="scale(0.015625)"/>
       <path id="DejaVuSans-64" d="M 2906 2969 
L 2906 4863 
L 3481 4863 
L 3481 0 
L 2906 0 
L 2906 525 
Q 2725 213 2448 61 
Q 2172 -91 1784 -91 
Q 1150 -91 751 415 
Q 353 922 353 1747 
Q 353 2572 751 3078 
Q 1150 3584 1784 3584 
Q 2172 3584 2448 3432 
Q 2725 3281 2906 2969 
z
M 947 1747 
Q 947 1113 1208 752 
Q 1469 391 1925 391 
Q 2381 391 2643 752 
Q 2906 1113 2906 1747 
Q 2906 2381 2643 2742 
Q 2381 3103 1925 3103 
Q 1469 3103 1208 2742 
Q 947 2381 947 1747 
z
" transform="scale(0.015625)"/>
       <path id="DejaVuSans-67" d="M 2906 1791 
Q 2906 2416 2648 2759 
Q 2391 3103 1925 3103 
Q 1463 3103 1205 2759 
Q 947 2416 947 1791 
Q 947 1169 1205 825 
Q 1463 481 1925 481 
Q 2391 481 2648 825 
Q 2906 1169 2906 1791 
z
M 3481 434 
Q 3481 -459 3084 -895 
Q 2688 -1331 1869 -1331 
Q 1566 -1331 1297 -1286 
Q 1028 -1241 775 -1147 
L 775 -588 
Q 1028 -725 1275 -790 
Q 1522 -856 1778 -856 
Q 2344 -856 2625 -561 
Q 2906 -266 2906 331 
L 2906 616 
Q 2728 306 2450 153 
Q 2172 0 1784 0 
Q 1141 0 747 490 
Q 353 981 353 1791 
Q 353 2603 747 3093 
Q 1141 3584 1784 3584 
Q 2172 3584 2450 3431 
Q 2728 3278 2906 2969 
L 2906 3500 
L 3481 3500 
L 3481 434 
z
" transform="scale(0.015625)"/>
      </defs>
      <use xlink:href="#DejaVuSans-2220" transform="translate(0 0.015625)"/>
      <use xlink:href="#DejaVuSans-Oblique-53" transform="translate(89.648438 0.015625)"/>
      <use xlink:href="#DejaVuSans-32" transform="translate(153.125 -16.390625) scale(0.7)"/>
      <use xlink:href="#DejaVuSans-31" transform="translate(197.661133 -16.390625) scale(0.7)"/>
      <use xlink:href="#DejaVuSans-20" transform="translate(244.931641 0.015625)"/>
      <use xlink:href="#DejaVuSans-5b" transform="translate(276.71875 0.015625)"/>
      <use xlink:href="#DejaVuSans-64" transform="translate(315.732422 0.015625)"/>
      <use xlink:href="#DejaVuSans-65" transform="translate(379.208984 0.015625)"/>
      <use xlink:href="#DejaVuSans-67" transform="translate(440.732422 0.015625)"/>
      <use xlink:href="#DejaVuSans-5d" transform="translate(504.208984 0.015625)"/>
     </g>
    </g>
   </g>
   <g id="line2d_21">
    <path d="M 66.82804 284.42641 
L 68.45947 284.349109 
L 71.722329 284.641349 
L 74.985189 284.956926 
L 76.616619 284.887967 
L 78.248049 285.042153 
L 81.510909 285.061997 
L 83.142339 285.230795 
L 86.405198 285.256422 
L 88.036628 285.512813 
L 89.668058 285.471062 
L 92.930918 285.898877 
L 97.825207 286.082852 
L 99.456637 286.140811 
L 101.088067 286.450019 
L 102.719497 286.403243 
L 104.350927 286.6274 
L 105.982357 286.567106 
L 112.508076 287.01334 
L 114.139506 287.019269 
L 120.665226 287.818659 
L 122.296656 287.751661 
L 127.190945 288.158026 
L 132.085235 288.499535 
L 135.348095 288.879234 
L 136.979524 288.911515 
L 140.242384 289.290942 
L 141.873814 289.397638 
L 143.505244 289.669952 
L 148.399534 290.038971 
L 151.662393 290.40604 
L 153.293823 290.714154 
L 154.925253 290.838218 
L 156.556683 291.140921 
L 158.188113 291.216623 
L 161.450973 291.75866 
L 163.082402 291.911963 
L 164.713832 292.178425 
L 166.345262 292.301401 
L 167.976692 292.902133 
L 169.608122 293.038485 
L 177.765271 294.51644 
L 179.396701 294.966238 
L 181.028131 295.203466 
L 182.659561 295.646164 
L 184.290991 296.325683 
L 187.553851 297.077444 
L 192.44814 298.629375 
L 194.07957 299.139245 
L 195.711 299.827479 
L 197.34243 300.162538 
L 198.97386 301.092928 
L 200.60529 301.45013 
L 202.23672 301.941801 
L 203.868149 192.729534 
L 205.499579 193.26518 
L 207.131009 193.570207 
L 208.762439 194.067571 
L 210.393869 193.887217 
L 212.025299 194.320256 
L 213.656729 194.178293 
L 215.288159 194.386262 
L 216.919588 194.25047 
L 218.551018 193.569468 
L 220.182448 301.456692 
L 221.813878 299.9246 
L 223.445308 294.929119 
L 225.076738 292.861256 
L 226.708168 288.719908 
L 228.339598 285.310864 
L 229.971027 284.935134 
L 231.602457 282.649051 
L 233.233887 282.461724 
L 234.865317 280.946817 
L 239.759607 279.962312 
L 241.391037 280.381279 
L 243.022466 280.108935 
L 246.285326 280.959656 
L 247.916756 280.374929 
L 251.179616 281.5097 
L 252.811046 281.344795 
L 254.442476 281.485149 
L 256.073905 281.869211 
L 257.705335 282.087141 
L 259.336765 282.017137 
L 260.968195 282.602399 
L 264.231055 283.054318 
L 265.862485 282.841817 
L 267.493915 283.475901 
L 269.125344 283.710778 
L 270.756774 283.808904 
L 272.388204 284.105823 
L 275.651064 284.171706 
L 278.913924 284.672327 
L 282.176783 284.892897 
L 285.439643 285.373177 
L 287.071073 285.535575 
L 290.333933 285.622468 
L 293.596793 286.02249 
L 298.491082 286.499968 
L 300.122512 286.316903 
L 301.753942 286.749455 
L 303.385372 286.75589 
L 305.016802 286.916059 
L 306.648232 286.9281 
L 308.279662 287.193867 
L 309.911091 287.289305 
L 311.542521 287.19971 
L 314.805381 287.600827 
L 321.331101 287.989322 
L 322.96253 288.311426 
L 326.22539 288.387597 
L 327.85682 288.617478 
L 329.48825 288.715981 
L 331.11968 288.474469 
L 332.75111 288.814674 
L 336.013969 288.897724 
L 337.645399 289.185181 
L 339.276829 288.952729 
L 340.908259 289.222026 
L 342.539689 289.17235 
L 344.171119 289.378443 
L 345.802549 289.43694 
L 347.433979 289.339571 
L 349.065408 289.761622 
L 350.696838 289.726144 
L 352.328268 289.961724 
L 353.959698 289.890724 
L 357.222558 289.982949 
L 358.853988 290.383106 
L 360.485418 290.273224 
L 363.748277 290.613343 
L 368.642567 290.649218 
L 371.905427 290.973943 
L 373.536857 290.851219 
L 375.168286 291.245677 
L 376.799716 290.946496 
L 378.431146 291.262456 
L 383.325436 291.563613 
L 384.956866 291.534347 
L 388.219725 291.827439 
L 389.851155 291.522468 
L 391.482585 291.843747 
L 391.482585 291.843747 
" clip-path="url(#pbce9096da6)" style="fill: none; stroke: #1f77b4; stroke-width: 1.5; stroke-linecap: square"/>
    <g clip-path="url(#pbce9096da6)">
     <use xlink:href="#mc738367552" x="66.82804" y="284.42641" style="fill: #1f77b4; stroke: #1f77b4"/>
     <use xlink:href="#mc738367552" x="68.45947" y="284.349109" style="fill: #1f77b4; stroke: #1f77b4"/>
     <use xlink:href="#mc738367552" x="70.0909" y="284.443658" style="fill: #1f77b4; stroke: #1f77b4"/>
     <use xlink:href="#mc738367552" x="71.722329" y="284.641349" style="fill: #1f77b4; stroke: #1f77b4"/>
     <use xlink:href="#mc738367552" x="73.353759" y="284.7868" style="fill: #1f77b4; stroke: #1f77b4"/>
     <use xlink:href="#mc738367552" x="74.985189" y="284.956926" style="fill: #1f77b4; stroke: #1f77b4"/>
     <use xlink:href="#mc738367552" x="76.616619" y="284.887967" style="fill: #1f77b4; stroke: #1f77b4"/>
     <use xlink:href="#mc738367552" x="78.248049" y="285.042153" style="fill: #1f77b4; stroke: #1f77b4"/>
     <use xlink:href="#mc738367552" x="79.879479" y="285.029069" style="fill: #1f77b4; stroke: #1f77b4"/>
     <use xlink:href="#mc738367552" x="81.510909" y="285.061997" style="fill: #1f77b4; stroke: #1f77b4"/>
     <use xlink:href="#mc738367552" x="83.142339" y="285.230795" style="fill: #1f77b4; stroke: #1f77b4"/>
     <use xlink:href="#mc738367552" x="84.773768" y="285.221878" style="fill: #1f77b4; stroke: #1f77b4"/>
     <use xlink:href="#mc738367552" x="86.405198" y="285.256422" style="fill: #1f77b4; stroke: #1f77b4"/>
     <use xlink:href="#mc738367552" x="88.036628" y="285.512813" style="fill: #1f77b4; stroke: #1f77b4"/>
     <use xlink:href="#mc738367552" x="89.668058" y="285.471062" style="fill: #1f77b4; stroke: #1f77b4"/>
     <use xlink:href="#mc738367552" x="91.299488" y="285.728546" style="fill: #1f77b4; stroke: #1f77b4"/>
     <use xlink:href="#mc738367552" x="92.930918" y="285.898877" style="fill: #1f77b4; stroke: #1f77b4"/>
     <use xlink:href="#mc738367552" x="94.562348" y="285.995451" style="fill: #1f77b4; stroke: #1f77b4"/>
     <use xlink:href="#mc738367552" x="96.193778" y="285.981001" style="fill: #1f77b4; stroke: #1f77b4"/>
     <use xlink:href="#mc738367552" x="97.825207" y="286.082852" style="fill: #1f77b4; stroke: #1f77b4"/>
     <use xlink:href="#mc738367552" x="99.456637" y="286.140811" style="fill: #1f77b4; stroke: #1f77b4"/>
     <use xlink:href="#mc738367552" x="101.088067" y="286.450019" style="fill: #1f77b4; stroke: #1f77b4"/>
     <use xlink:href="#mc738367552" x="102.719497" y="286.403243" style="fill: #1f77b4; stroke: #1f77b4"/>
     <use xlink:href="#mc738367552" x="104.350927" y="286.6274" style="fill: #1f77b4; stroke: #1f77b4"/>
     <use xlink:href="#mc738367552" x="105.982357" y="286.567106" style="fill: #1f77b4; stroke: #1f77b4"/>
     <use xlink:href="#mc738367552" x="107.613787" y="286.696042" style="fill: #1f77b4; stroke: #1f77b4"/>
     <use xlink:href="#mc738367552" x="109.245217" y="286.817277" style="fill: #1f77b4; stroke: #1f77b4"/>
     <use xlink:href="#mc738367552" x="110.876646" y="286.924366" style="fill: #1f77b4; stroke: #1f77b4"/>
     <use xlink:href="#mc738367552" x="112.508076" y="287.01334" style="fill: #1f77b4; stroke: #1f77b4"/>
     <use xlink:href="#mc738367552" x="114.139506" y="287.019269" style="fill: #1f77b4; stroke: #1f77b4"/>
     <use xlink:href="#mc738367552" x="115.770936" y="287.232053" style="fill: #1f77b4; stroke: #1f77b4"/>
     <use xlink:href="#mc738367552" x="117.402366" y="287.44719" style="fill: #1f77b4; stroke: #1f77b4"/>
     <use xlink:href="#mc738367552" x="119.033796" y="287.551817" style="fill: #1f77b4; stroke: #1f77b4"/>
     <use xlink:href="#mc738367552" x="120.665226" y="287.818659" style="fill: #1f77b4; stroke: #1f77b4"/>
     <use xlink:href="#mc738367552" x="122.296656" y="287.751661" style="fill: #1f77b4; stroke: #1f77b4"/>
     <use xlink:href="#mc738367552" x="123.928085" y="287.910416" style="fill: #1f77b4; stroke: #1f77b4"/>
     <use xlink:href="#mc738367552" x="125.559515" y="288.014755" style="fill: #1f77b4; stroke: #1f77b4"/>
     <use xlink:href="#mc738367552" x="127.190945" y="288.158026" style="fill: #1f77b4; stroke: #1f77b4"/>
     <use xlink:href="#mc738367552" x="128.822375" y="288.260732" style="fill: #1f77b4; stroke: #1f77b4"/>
     <use xlink:href="#mc738367552" x="130.453805" y="288.423073" style="fill: #1f77b4; stroke: #1f77b4"/>
     <use xlink:href="#mc738367552" x="132.085235" y="288.499535" style="fill: #1f77b4; stroke: #1f77b4"/>
     <use xlink:href="#mc738367552" x="133.716665" y="288.722254" style="fill: #1f77b4; stroke: #1f77b4"/>
     <use xlink:href="#mc738367552" x="135.348095" y="288.879234" style="fill: #1f77b4; stroke: #1f77b4"/>
     <use xlink:href="#mc738367552" x="136.979524" y="288.911515" style="fill: #1f77b4; stroke: #1f77b4"/>
     <use xlink:href="#mc738367552" x="138.610954" y="289.157105" style="fill: #1f77b4; stroke: #1f77b4"/>
     <use xlink:href="#mc738367552" x="140.242384" y="289.290942" style="fill: #1f77b4; stroke: #1f77b4"/>
     <use xlink:href="#mc738367552" x="141.873814" y="289.397638" style="fill: #1f77b4; stroke: #1f77b4"/>
     <use xlink:href="#mc738367552" x="143.505244" y="289.669952" style="fill: #1f77b4; stroke: #1f77b4"/>
     <use xlink:href="#mc738367552" x="145.136674" y="289.768653" style="fill: #1f77b4; stroke: #1f77b4"/>
     <use xlink:href="#mc738367552" x="146.768104" y="289.875656" style="fill: #1f77b4; stroke: #1f77b4"/>
     <use xlink:href="#mc738367552" x="148.399534" y="290.038971" style="fill: #1f77b4; stroke: #1f77b4"/>
     <use xlink:href="#mc738367552" x="150.030963" y="290.186539" style="fill: #1f77b4; stroke: #1f77b4"/>
     <use xlink:href="#mc738367552" x="151.662393" y="290.40604" style="fill: #1f77b4; stroke: #1f77b4"/>
     <use xlink:href="#mc738367552" x="153.293823" y="290.714154" style="fill: #1f77b4; stroke: #1f77b4"/>
     <use xlink:href="#mc738367552" x="154.925253" y="290.838218" style="fill: #1f77b4; stroke: #1f77b4"/>
     <use xlink:href="#mc738367552" x="156.556683" y="291.140921" style="fill: #1f77b4; stroke: #1f77b4"/>
     <use xlink:href="#mc738367552" x="158.188113" y="291.216623" style="fill: #1f77b4; stroke: #1f77b4"/>
     <use xlink:href="#mc738367552" x="159.819543" y="291.504057" style="fill: #1f77b4; stroke: #1f77b4"/>
     <use xlink:href="#mc738367552" x="161.450973" y="291.75866" style="fill: #1f77b4; stroke: #1f77b4"/>
     <use xlink:href="#mc738367552" x="163.082402" y="291.911963" style="fill: #1f77b4; stroke: #1f77b4"/>
     <use xlink:href="#mc738367552" x="164.713832" y="292.178425" style="fill: #1f77b4; stroke: #1f77b4"/>
     <use xlink:href="#mc738367552" x="166.345262" y="292.301401" style="fill: #1f77b4; stroke: #1f77b4"/>
     <use xlink:href="#mc738367552" x="167.976692" y="292.902133" style="fill: #1f77b4; stroke: #1f77b4"/>
     <use xlink:href="#mc738367552" x="169.608122" y="293.038485" style="fill: #1f77b4; stroke: #1f77b4"/>
     <use xlink:href="#mc738367552" x="171.239552" y="293.323253" style="fill: #1f77b4; stroke: #1f77b4"/>
     <use xlink:href="#mc738367552" x="172.870982" y="293.559467" style="fill: #1f77b4; stroke: #1f77b4"/>
     <use xlink:href="#mc738367552" x="174.502412" y="293.844311" style="fill: #1f77b4; stroke: #1f77b4"/>
     <use xlink:href="#mc738367552" x="176.133842" y="294.209373" style="fill: #1f77b4; stroke: #1f77b4"/>
     <use xlink:href="#mc738367552" x="177.765271" y="294.51644" style="fill: #1f77b4; stroke: #1f77b4"/>
     <use xlink:href="#mc738367552" x="179.396701" y="294.966238" style="fill: #1f77b4; stroke: #1f77b4"/>
     <use xlink:href="#mc738367552" x="181.028131" y="295.203466" style="fill: #1f77b4; stroke: #1f77b4"/>
     <use xlink:href="#mc738367552" x="182.659561" y="295.646164" style="fill: #1f77b4; stroke: #1f77b4"/>
     <use xlink:href="#mc738367552" x="184.290991" y="296.325683" style="fill: #1f77b4; stroke: #1f77b4"/>
     <use xlink:href="#mc738367552" x="185.922421" y="296.688529" style="fill: #1f77b4; stroke: #1f77b4"/>
     <use xlink:href="#mc738367552" x="187.553851" y="297.077444" style="fill: #1f77b4; stroke: #1f77b4"/>
     <use xlink:href="#mc738367552" x="189.185281" y="297.560094" style="fill: #1f77b4; stroke: #1f77b4"/>
     <use xlink:href="#mc738367552" x="190.81671" y="298.115895" style="fill: #1f77b4; stroke: #1f77b4"/>
     <use xlink:href="#mc738367552" x="192.44814" y="298.629375" style="fill: #1f77b4; stroke: #1f77b4"/>
     <use xlink:href="#mc738367552" x="194.07957" y="299.139245" style="fill: #1f77b4; stroke: #1f77b4"/>
     <use xlink:href="#mc738367552" x="195.711" y="299.827479" style="fill: #1f77b4; stroke: #1f77b4"/>
     <use xlink:href="#mc738367552" x="197.34243" y="300.162538" style="fill: #1f77b4; stroke: #1f77b4"/>
     <use xlink:href="#mc738367552" x="198.97386" y="301.092928" style="fill: #1f77b4; stroke: #1f77b4"/>
     <use xlink:href="#mc738367552" x="200.60529" y="301.45013" style="fill: #1f77b4; stroke: #1f77b4"/>
     <use xlink:href="#mc738367552" x="202.23672" y="301.941801" style="fill: #1f77b4; stroke: #1f77b4"/>
     <use xlink:href="#mc738367552" x="203.868149" y="192.729534" style="fill: #1f77b4; stroke: #1f77b4"/>
     <use xlink:href="#mc738367552" x="205.499579" y="193.26518" style="fill: #1f77b4; stroke: #1f77b4"/>
     <use xlink:href="#mc738367552" x="207.131009" y="193.570207" style="fill: #1f77b4; stroke: #1f77b4"/>
     <use xlink:href="#mc738367552" x="208.762439" y="194.067571" style="fill: #1f77b4; stroke: #1f77b4"/>
     <use xlink:href="#mc738367552" x="210.393869" y="193.887217" style="fill: #1f77b4; stroke: #1f77b4"/>
     <use xlink:href="#mc738367552" x="212.025299" y="194.320256" style="fill: #1f77b4; stroke: #1f77b4"/>
     <use xlink:href="#mc738367552" x="213.656729" y="194.178293" style="fill: #1f77b4; stroke: #1f77b4"/>
     <use xlink:href="#mc738367552" x="215.288159" y="194.386262" style="fill: #1f77b4; stroke: #1f77b4"/>
     <use xlink:href="#mc738367552" x="216.919588" y="194.25047" style="fill: #1f77b4; stroke: #1f77b4"/>
     <use xlink:href="#mc738367552" x="218.551018" y="193.569468" style="fill: #1f77b4; stroke: #1f77b4"/>
     <use xlink:href="#mc738367552" x="220.182448" y="301.456692" style="fill: #1f77b4; stroke: #1f77b4"/>
     <use xlink:href="#mc738367552" x="221.813878" y="299.9246" style="fill: #1f77b4; stroke: #1f77b4"/>
     <use xlink:href="#mc738367552" x="223.445308" y="294.929119" style="fill: #1f77b4; stroke: #1f77b4"/>
     <use xlink:href="#mc738367552" x="225.076738" y="292.861256" style="fill: #1f77b4; stroke: #1f77b4"/>
     <use xlink:href="#mc738367552" x="226.708168" y="288.719908" style="fill: #1f77b4; stroke: #1f77b4"/>
     <use xlink:href="#mc738367552" x="228.339598" y="285.310864" style="fill: #1f77b4; stroke: #1f77b4"/>
     <use xlink:href="#mc738367552" x="229.971027" y="284.935134" style="fill: #1f77b4; stroke: #1f77b4"/>
     <use xlink:href="#mc738367552" x="231.602457" y="282.649051" style="fill: #1f77b4; stroke: #1f77b4"/>
     <use xlink:href="#mc738367552" x="233.233887" y="282.461724" style="fill: #1f77b4; stroke: #1f77b4"/>
     <use xlink:href="#mc738367552" x="234.865317" y="280.946817" style="fill: #1f77b4; stroke: #1f77b4"/>
     <use xlink:href="#mc738367552" x="236.496747" y="280.630353" style="fill: #1f77b4; stroke: #1f77b4"/>
     <use xlink:href="#mc738367552" x="238.128177" y="280.302446" style="fill: #1f77b4; stroke: #1f77b4"/>
     <use xlink:href="#mc738367552" x="239.759607" y="279.962312" style="fill: #1f77b4; stroke: #1f77b4"/>
     <use xlink:href="#mc738367552" x="241.391037" y="280.381279" style="fill: #1f77b4; stroke: #1f77b4"/>
     <use xlink:href="#mc738367552" x="243.022466" y="280.108935" style="fill: #1f77b4; stroke: #1f77b4"/>
     <use xlink:href="#mc738367552" x="244.653896" y="280.52777" style="fill: #1f77b4; stroke: #1f77b4"/>
     <use xlink:href="#mc738367552" x="246.285326" y="280.959656" style="fill: #1f77b4; stroke: #1f77b4"/>
     <use xlink:href="#mc738367552" x="247.916756" y="280.374929" style="fill: #1f77b4; stroke: #1f77b4"/>
     <use xlink:href="#mc738367552" x="249.548186" y="280.889313" style="fill: #1f77b4; stroke: #1f77b4"/>
     <use xlink:href="#mc738367552" x="251.179616" y="281.5097" style="fill: #1f77b4; stroke: #1f77b4"/>
     <use xlink:href="#mc738367552" x="252.811046" y="281.344795" style="fill: #1f77b4; stroke: #1f77b4"/>
     <use xlink:href="#mc738367552" x="254.442476" y="281.485149" style="fill: #1f77b4; stroke: #1f77b4"/>
     <use xlink:href="#mc738367552" x="256.073905" y="281.869211" style="fill: #1f77b4; stroke: #1f77b4"/>
     <use xlink:href="#mc738367552" x="257.705335" y="282.087141" style="fill: #1f77b4; stroke: #1f77b4"/>
     <use xlink:href="#mc738367552" x="259.336765" y="282.017137" style="fill: #1f77b4; stroke: #1f77b4"/>
     <use xlink:href="#mc738367552" x="260.968195" y="282.602399" style="fill: #1f77b4; stroke: #1f77b4"/>
     <use xlink:href="#mc738367552" x="262.599625" y="282.782476" style="fill: #1f77b4; stroke: #1f77b4"/>
     <use xlink:href="#mc738367552" x="264.231055" y="283.054318" style="fill: #1f77b4; stroke: #1f77b4"/>
     <use xlink:href="#mc738367552" x="265.862485" y="282.841817" style="fill: #1f77b4; stroke: #1f77b4"/>
     <use xlink:href="#mc738367552" x="267.493915" y="283.475901" style="fill: #1f77b4; stroke: #1f77b4"/>
     <use xlink:href="#mc738367552" x="269.125344" y="283.710778" style="fill: #1f77b4; stroke: #1f77b4"/>
     <use xlink:href="#mc738367552" x="270.756774" y="283.808904" style="fill: #1f77b4; stroke: #1f77b4"/>
     <use xlink:href="#mc738367552" x="272.388204" y="284.105823" style="fill: #1f77b4; stroke: #1f77b4"/>
     <use xlink:href="#mc738367552" x="274.019634" y="284.141644" style="fill: #1f77b4; stroke: #1f77b4"/>
     <use xlink:href="#mc738367552" x="275.651064" y="284.171706" style="fill: #1f77b4; stroke: #1f77b4"/>
     <use xlink:href="#mc738367552" x="277.282494" y="284.458969" style="fill: #1f77b4; stroke: #1f77b4"/>
     <use xlink:href="#mc738367552" x="278.913924" y="284.672327" style="fill: #1f77b4; stroke: #1f77b4"/>
     <use xlink:href="#mc738367552" x="280.545354" y="284.748906" style="fill: #1f77b4; stroke: #1f77b4"/>
     <use xlink:href="#mc738367552" x="282.176783" y="284.892897" style="fill: #1f77b4; stroke: #1f77b4"/>
     <use xlink:href="#mc738367552" x="283.808213" y="285.164851" style="fill: #1f77b4; stroke: #1f77b4"/>
     <use xlink:href="#mc738367552" x="285.439643" y="285.373177" style="fill: #1f77b4; stroke: #1f77b4"/>
     <use xlink:href="#mc738367552" x="287.071073" y="285.535575" style="fill: #1f77b4; stroke: #1f77b4"/>
     <use xlink:href="#mc738367552" x="288.702503" y="285.552163" style="fill: #1f77b4; stroke: #1f77b4"/>
     <use xlink:href="#mc738367552" x="290.333933" y="285.622468" style="fill: #1f77b4; stroke: #1f77b4"/>
     <use xlink:href="#mc738367552" x="291.965363" y="285.877955" style="fill: #1f77b4; stroke: #1f77b4"/>
     <use xlink:href="#mc738367552" x="293.596793" y="286.02249" style="fill: #1f77b4; stroke: #1f77b4"/>
     <use xlink:href="#mc738367552" x="295.228223" y="286.166893" style="fill: #1f77b4; stroke: #1f77b4"/>
     <use xlink:href="#mc738367552" x="296.859652" y="286.207308" style="fill: #1f77b4; stroke: #1f77b4"/>
     <use xlink:href="#mc738367552" x="298.491082" y="286.499968" style="fill: #1f77b4; stroke: #1f77b4"/>
     <use xlink:href="#mc738367552" x="300.122512" y="286.316903" style="fill: #1f77b4; stroke: #1f77b4"/>
     <use xlink:href="#mc738367552" x="301.753942" y="286.749455" style="fill: #1f77b4; stroke: #1f77b4"/>
     <use xlink:href="#mc738367552" x="303.385372" y="286.75589" style="fill: #1f77b4; stroke: #1f77b4"/>
     <use xlink:href="#mc738367552" x="305.016802" y="286.916059" style="fill: #1f77b4; stroke: #1f77b4"/>
     <use xlink:href="#mc738367552" x="306.648232" y="286.9281" style="fill: #1f77b4; stroke: #1f77b4"/>
     <use xlink:href="#mc738367552" x="308.279662" y="287.193867" style="fill: #1f77b4; stroke: #1f77b4"/>
     <use xlink:href="#mc738367552" x="309.911091" y="287.289305" style="fill: #1f77b4; stroke: #1f77b4"/>
     <use xlink:href="#mc738367552" x="311.542521" y="287.19971" style="fill: #1f77b4; stroke: #1f77b4"/>
     <use xlink:href="#mc738367552" x="313.173951" y="287.416389" style="fill: #1f77b4; stroke: #1f77b4"/>
     <use xlink:href="#mc738367552" x="314.805381" y="287.600827" style="fill: #1f77b4; stroke: #1f77b4"/>
     <use xlink:href="#mc738367552" x="316.436811" y="287.676736" style="fill: #1f77b4; stroke: #1f77b4"/>
     <use xlink:href="#mc738367552" x="318.068241" y="287.777352" style="fill: #1f77b4; stroke: #1f77b4"/>
     <use xlink:href="#mc738367552" x="319.699671" y="287.871299" style="fill: #1f77b4; stroke: #1f77b4"/>
     <use xlink:href="#mc738367552" x="321.331101" y="287.989322" style="fill: #1f77b4; stroke: #1f77b4"/>
     <use xlink:href="#mc738367552" x="322.96253" y="288.311426" style="fill: #1f77b4; stroke: #1f77b4"/>
     <use xlink:href="#mc738367552" x="324.59396" y="288.349321" style="fill: #1f77b4; stroke: #1f77b4"/>
     <use xlink:href="#mc738367552" x="326.22539" y="288.387597" style="fill: #1f77b4; stroke: #1f77b4"/>
     <use xlink:href="#mc738367552" x="327.85682" y="288.617478" style="fill: #1f77b4; stroke: #1f77b4"/>
     <use xlink:href="#mc738367552" x="329.48825" y="288.715981" style="fill: #1f77b4; stroke: #1f77b4"/>
     <use xlink:href="#mc738367552" x="331.11968" y="288.474469" style="fill: #1f77b4; stroke: #1f77b4"/>
     <use xlink:href="#mc738367552" x="332.75111" y="288.814674" style="fill: #1f77b4; stroke: #1f77b4"/>
     <use xlink:href="#mc738367552" x="334.38254" y="288.843164" style="fill: #1f77b4; stroke: #1f77b4"/>
     <use xlink:href="#mc738367552" x="336.013969" y="288.897724" style="fill: #1f77b4; stroke: #1f77b4"/>
     <use xlink:href="#mc738367552" x="337.645399" y="289.185181" style="fill: #1f77b4; stroke: #1f77b4"/>
     <use xlink:href="#mc738367552" x="339.276829" y="288.952729" style="fill: #1f77b4; stroke: #1f77b4"/>
     <use xlink:href="#mc738367552" x="340.908259" y="289.222026" style="fill: #1f77b4; stroke: #1f77b4"/>
     <use xlink:href="#mc738367552" x="342.539689" y="289.17235" style="fill: #1f77b4; stroke: #1f77b4"/>
     <use xlink:href="#mc738367552" x="344.171119" y="289.378443" style="fill: #1f77b4; stroke: #1f77b4"/>
     <use xlink:href="#mc738367552" x="345.802549" y="289.43694" style="fill: #1f77b4; stroke: #1f77b4"/>
     <use xlink:href="#mc738367552" x="347.433979" y="289.339571" style="fill: #1f77b4; stroke: #1f77b4"/>
     <use xlink:href="#mc738367552" x="349.065408" y="289.761622" style="fill: #1f77b4; stroke: #1f77b4"/>
     <use xlink:href="#mc738367552" x="350.696838" y="289.726144" style="fill: #1f77b4; stroke: #1f77b4"/>
     <use xlink:href="#mc738367552" x="352.328268" y="289.961724" style="fill: #1f77b4; stroke: #1f77b4"/>
     <use xlink:href="#mc738367552" x="353.959698" y="289.890724" style="fill: #1f77b4; stroke: #1f77b4"/>
     <use xlink:href="#mc738367552" x="355.591128" y="289.956926" style="fill: #1f77b4; stroke: #1f77b4"/>
     <use xlink:href="#mc738367552" x="357.222558" y="289.982949" style="fill: #1f77b4; stroke: #1f77b4"/>
     <use xlink:href="#mc738367552" x="358.853988" y="290.383106" style="fill: #1f77b4; stroke: #1f77b4"/>
     <use xlink:href="#mc738367552" x="360.485418" y="290.273224" style="fill: #1f77b4; stroke: #1f77b4"/>
     <use xlink:href="#mc738367552" x="362.116847" y="290.431705" style="fill: #1f77b4; stroke: #1f77b4"/>
     <use xlink:href="#mc738367552" x="363.748277" y="290.613343" style="fill: #1f77b4; stroke: #1f77b4"/>
     <use xlink:href="#mc738367552" x="365.379707" y="290.6367" style="fill: #1f77b4; stroke: #1f77b4"/>
     <use xlink:href="#mc738367552" x="367.011137" y="290.611133" style="fill: #1f77b4; stroke: #1f77b4"/>
     <use xlink:href="#mc738367552" x="368.642567" y="290.649218" style="fill: #1f77b4; stroke: #1f77b4"/>
     <use xlink:href="#mc738367552" x="370.273997" y="290.82713" style="fill: #1f77b4; stroke: #1f77b4"/>
     <use xlink:href="#mc738367552" x="371.905427" y="290.973943" style="fill: #1f77b4; stroke: #1f77b4"/>
     <use xlink:href="#mc738367552" x="373.536857" y="290.851219" style="fill: #1f77b4; stroke: #1f77b4"/>
     <use xlink:href="#mc738367552" x="375.168286" y="291.245677" style="fill: #1f77b4; stroke: #1f77b4"/>
     <use xlink:href="#mc738367552" x="376.799716" y="290.946496" style="fill: #1f77b4; stroke: #1f77b4"/>
     <use xlink:href="#mc738367552" x="378.431146" y="291.262456" style="fill: #1f77b4; stroke: #1f77b4"/>
     <use xlink:href="#mc738367552" x="380.062576" y="291.368928" style="fill: #1f77b4; stroke: #1f77b4"/>
     <use xlink:href="#mc738367552" x="381.694006" y="291.573998" style="fill: #1f77b4; stroke: #1f77b4"/>
     <use xlink:href="#mc738367552" x="383.325436" y="291.563613" style="fill: #1f77b4; stroke: #1f77b4"/>
     <use xlink:href="#mc738367552" x="384.956866" y="291.534347" style="fill: #1f77b4; stroke: #1f77b4"/>
     <use xlink:href="#mc738367552" x="386.588296" y="291.632191" style="fill: #1f77b4; stroke: #1f77b4"/>
     <use xlink:href="#mc738367552" x="388.219725" y="291.827439" style="fill: #1f77b4; stroke: #1f77b4"/>
     <use xlink:href="#mc738367552" x="389.851155" y="291.522468" style="fill: #1f77b4; stroke: #1f77b4"/>
     <use xlink:href="#mc738367552" x="391.482585" y="291.843747" style="fill: #1f77b4; stroke: #1f77b4"/>
    </g>
   </g>
   <g id="line2d_22">
    <path d="M 66.82804 284.232708 
L 95.426238 285.895455 
L 116.874887 287.355832 
L 133.448842 288.701234 
L 146.448023 289.972601 
L 156.847368 291.201225 
L 165.621815 292.453144 
L 173.096344 293.738119 
L 179.595935 295.075151 
L 185.445566 296.501359 
L 190.970218 298.079503 
L 196.49487 299.895933 
L 203.31944 302.373818 
L 203.64442 192.410182 
L 208.194133 193.964617 
L 210.793969 194.64663 
L 212.743846 194.956487 
L 214.368744 195.008591 
L 215.668662 194.860739 
L 216.96858 194.487754 
L 217.943519 194.020447 
L 218.918457 193.355526 
L 219.893396 192.456621 
L 220.218376 302.181172 
L 221.193314 300.917559 
L 222.493232 298.772185 
L 223.79315 296.151138 
L 227.692905 287.80509 
L 228.992823 285.698923 
L 230.292741 284.068864 
L 231.592659 282.854822 
L 232.892577 281.975166 
L 234.192495 281.353713 
L 235.817393 280.84654 
L 237.76727 280.517209 
L 240.042127 280.387086 
L 242.966942 280.463992 
L 247.191676 280.82966 
L 254.991185 281.784031 
L 270.915181 283.733311 
L 283.589383 285.039336 
L 298.213462 286.313376 
L 316.087335 287.634652 
L 338.510923 289.057157 
L 367.75908 290.67669 
L 391.482585 291.870816 
L 391.482585 291.870816 
" clip-path="url(#pbce9096da6)" style="fill: none; stroke: #d62728; stroke-width: 1.5; stroke-linecap: square"/>
   </g>
   <g id="patch_9">
    <path d="M 50.595313 307.872 
L 50.595313 186.912 
" style="fill: none; stroke: #000000; stroke-width: 0.8; stroke-linejoin: miter; stroke-linecap: square"/>
   </g>
   <g id="patch_10">
    <path d="M 407.715312 307.872 
L 407.715312 186.912 
" style="fill: none; stroke: #000000; stroke-width: 0.8; stroke-linejoin: miter; stroke-linecap: square"/>
   </g>
   <g id="patch_11">
    <path d="M 50.595312 307.872 
L 407.715313 307.872 
" style="fill: none; stroke: #000000; stroke-width: 0.8; stroke-linejoin: miter; stroke-linecap: square"/>
   </g>
   <g id="patch_12">
    <path d="M 50.595312 186.912 
L 407.715313 186.912 
" style="fill: none; stroke: #000000; stroke-width: 0.8; stroke-linejoin: miter; stroke-linecap: square"/>
   </g>
  </g>
  <g id="text_19">
   <!-- S21 resonator spectroscopy -->
   <g transform="translate(139.610938 16.318125) scale(0.12 -0.12)">
    <defs>
     <path id="DejaVuSans-73" d="M 2834 3397 
L 2834 2853 
Q 2591 2978 2328 3040 
Q 2066 3103 1784 3103 
Q 1356 3103 1142 2972 
Q 928 2841 928 2578 
Q 928 2378 1081 2264 
Q 1234 2150 1697 2047 
L 1894 2003 
Q 2506 1872 2764 1633 
Q 3022 1394 3022 966 
Q 3022 478 2636 193 
Q 2250 -91 1575 -91 
Q 1294 -91 989 -36 
Q 684 19 347 128 
L 347 722 
Q 666 556 975 473 
Q 1284 391 1588 391 
Q 1994 391 2212 530 
Q 2431 669 2431 922 
Q 2431 1156 2273 1281 
Q 2116 1406 1581 1522 
L 1381 1569 
Q 847 1681 609 1914 
Q 372 2147 372 2553 
Q 372 3047 722 3315 
Q 1072 3584 1716 3584 
Q 2034 3584 2315 3537 
Q 2597 3491 2834 3397 
z
" transform="scale(0.015625)"/>
     <path id="DejaVuSans-6f" d="M 1959 3097 
Q 1497 3097 1228 2736 
Q 959 2375 959 1747 
Q 959 1119 1226 758 
Q 1494 397 1959 397 
Q 2419 397 2687 759 
Q 2956 1122 2956 1747 
Q 2956 2369 2687 2733 
Q 2419 3097 1959 3097 
z
M 1959 3584 
Q 2709 3584 3137 3096 
Q 3566 2609 3566 1747 
Q 3566 888 3137 398 
Q 2709 -91 1959 -91 
Q 1206 -91 779 398 
Q 353 888 353 1747 
Q 353 2609 779 3096 
Q 1206 3584 1959 3584 
z
" transform="scale(0.015625)"/>
     <path id="DejaVuSans-74" d="M 1172 4494 
L 1172 3500 
L 2356 3500 
L 2356 3053 
L 1172 3053 
L 1172 1153 
Q 1172 725 1289 603 
Q 1406 481 1766 481 
L 2356 481 
L 2356 0 
L 1766 0 
Q 1100 0 847 248 
Q 594 497 594 1153 
L 594 3053 
L 172 3053 
L 172 3500 
L 594 3500 
L 594 4494 
L 1172 4494 
z
" transform="scale(0.015625)"/>
     <path id="DejaVuSans-70" d="M 1159 525 
L 1159 -1331 
L 581 -1331 
L 581 3500 
L 1159 3500 
L 1159 2969 
Q 1341 3281 1617 3432 
Q 1894 3584 2278 3584 
Q 2916 3584 3314 3078 
Q 3713 2572 3713 1747 
Q 3713 922 3314 415 
Q 2916 -91 2278 -91 
Q 1894 -91 1617 61 
Q 1341 213 1159 525 
z
M 3116 1747 
Q 3116 2381 2855 2742 
Q 2594 3103 2138 3103 
Q 1681 3103 1420 2742 
Q 1159 2381 1159 1747 
Q 1159 1113 1420 752 
Q 1681 391 2138 391 
Q 2594 391 2855 752 
Q 3116 1113 3116 1747 
z
" transform="scale(0.015625)"/>
    </defs>
    <use xlink:href="#DejaVuSans-53"/>
    <use xlink:href="#DejaVuSans-32" x="63.476562"/>
    <use xlink:href="#DejaVuSans-31" x="127.099609"/>
    <use xlink:href="#DejaVuSans-20" x="190.722656"/>
    <use xlink:href="#DejaVuSans-72" x="222.509766"/>
    <use xlink:href="#DejaVuSans-65" x="261.373047"/>
    <use xlink:href="#DejaVuSans-73" x="322.896484"/>
    <use xlink:href="#DejaVuSans-6f" x="374.996094"/>
    <use xlink:href="#DejaVuSans-6e" x="436.177734"/>
    <use xlink:href="#DejaVuSans-61" x="499.556641"/>
    <use xlink:href="#DejaVuSans-74" x="560.835938"/>
    <use xlink:href="#DejaVuSans-6f" x="600.044922"/>
    <use xlink:href="#DejaVuSans-72" x="661.226562"/>
    <use xlink:href="#DejaVuSans-20" x="702.339844"/>
    <use xlink:href="#DejaVuSans-73" x="734.126953"/>
    <use xlink:href="#DejaVuSans-70" x="786.226562"/>
    <use xlink:href="#DejaVuSans-65" x="849.703125"/>
    <use xlink:href="#DejaVuSans-63" x="911.226562"/>
    <use xlink:href="#DejaVuSans-74" x="966.207031"/>
    <use xlink:href="#DejaVuSans-72" x="1005.416016"/>
    <use xlink:href="#DejaVuSans-6f" x="1044.279297"/>
    <use xlink:href="#DejaVuSans-73" x="1105.460938"/>
    <use xlink:href="#DejaVuSans-63" x="1157.560547"/>
    <use xlink:href="#DejaVuSans-6f" x="1212.541016"/>
    <use xlink:href="#DejaVuSans-70" x="1273.722656"/>
    <use xlink:href="#DejaVuSans-79" x="1337.199219"/>
   </g>
   <!-- tuid: 20231227-185634-175-c1e67d -->
   <g transform="translate(114.1925 29.7555) scale(0.12 -0.12)">
    <defs>
     <path id="DejaVuSans-69" d="M 603 3500 
L 1178 3500 
L 1178 0 
L 603 0 
L 603 3500 
z
M 603 4863 
L 1178 4863 
L 1178 4134 
L 603 4134 
L 603 4863 
z
" transform="scale(0.015625)"/>
    </defs>
    <use xlink:href="#DejaVuSans-74"/>
    <use xlink:href="#DejaVuSans-75" x="39.208984"/>
    <use xlink:href="#DejaVuSans-69" x="102.587891"/>
    <use xlink:href="#DejaVuSans-64" x="130.371094"/>
    <use xlink:href="#DejaVuSans-3a" x="193.847656"/>
    <use xlink:href="#DejaVuSans-20" x="227.539062"/>
    <use xlink:href="#DejaVuSans-32" x="259.326172"/>
    <use xlink:href="#DejaVuSans-30" x="322.949219"/>
    <use xlink:href="#DejaVuSans-32" x="386.572266"/>
    <use xlink:href="#DejaVuSans-33" x="450.195312"/>
    <use xlink:href="#DejaVuSans-31" x="513.818359"/>
    <use xlink:href="#DejaVuSans-32" x="577.441406"/>
    <use xlink:href="#DejaVuSans-32" x="641.064453"/>
    <use xlink:href="#DejaVuSans-37" x="704.6875"/>
    <use xlink:href="#DejaVuSans-2d" x="768.310547"/>
    <use xlink:href="#DejaVuSans-31" x="804.394531"/>
    <use xlink:href="#DejaVuSans-38" x="868.017578"/>
    <use xlink:href="#DejaVuSans-35" x="931.640625"/>
    <use xlink:href="#DejaVuSans-36" x="995.263672"/>
    <use xlink:href="#DejaVuSans-33" x="1058.886719"/>
    <use xlink:href="#DejaVuSans-34" x="1122.509766"/>
    <use xlink:href="#DejaVuSans-2d" x="1186.132812"/>
    <use xlink:href="#DejaVuSans-31" x="1222.216797"/>
    <use xlink:href="#DejaVuSans-37" x="1285.839844"/>
    <use xlink:href="#DejaVuSans-35" x="1349.462891"/>
    <use xlink:href="#DejaVuSans-2d" x="1413.085938"/>
    <use xlink:href="#DejaVuSans-63" x="1449.169922"/>
    <use xlink:href="#DejaVuSans-31" x="1504.150391"/>
    <use xlink:href="#DejaVuSans-65" x="1567.773438"/>
    <use xlink:href="#DejaVuSans-36" x="1629.296875"/>
    <use xlink:href="#DejaVuSans-37" x="1692.919922"/>
    <use xlink:href="#DejaVuSans-64" x="1756.542969"/>
   </g>
  </g>
 </g>
 <defs>
  <clipPath id="peedc461a11">
   <rect x="50.595313" y="41.76" width="357.12" height="120.96"/>
  </clipPath>
  <clipPath id="pbce9096da6">
   <rect x="50.595313" y="186.912" width="357.12" height="120.96"/>
  </clipPath>
 </defs>
</svg>
