<?xml version="1.0" encoding="utf-8" standalone="no"?>
<!DOCTYPE svg PUBLIC "-//W3C//DTD SVG 1.1//EN"
  "http://www.w3.org/Graphics/SVG/1.1/DTD/svg11.dtd">
<svg xmlns:xlink="http://www.w3.org/1999/xlink" width="552.865063pt" height="345.42825pt" viewBox="0 0 552.865063 345.42825" xmlns="http://www.w3.org/2000/svg" version="1.1">
 <metadata>
  <rdf:RDF xmlns:dc="http://purl.org/dc/elements/1.1/" xmlns:cc="http://creativecommons.org/ns#" xmlns:rdf="http://www.w3.org/1999/02/22-rdf-syntax-ns#">
   <cc:Work>
    <dc:type rdf:resource="http://purl.org/dc/dcmitype/StillImage"/>
    <dc:date>2023-12-27T13:02:17.664965</dc:date>
    <dc:format>image/svg+xml</dc:format>
    <dc:creator>
     <cc:Agent>
      <dc:title>Matplotlib v3.8.2, https://matplotlib.org/</dc:title>
     </cc:Agent>
    </dc:creator>
   </cc:Work>
  </rdf:RDF>
 </metadata>
 <defs>
  <style type="text/css">*{stroke-linejoin: round; stroke-linecap: butt}</style>
 </defs>
 <g id="figure_1">
  <g id="patch_1">
   <path d="M 0 345.42825 
L 552.865063 345.42825 
L 552.865063 -0 
L 0 -0 
L 0 345.42825 
z
" style="fill: none; opacity: 0"/>
  </g>
  <g id="axes_1">
   <g id="patch_2">
    <path d="M 47.389063 162.72 
L 404.509063 162.72 
L 404.509063 41.76 
L 47.389063 41.76 
z
" style="fill: #ffffff"/>
   </g>
   <g id="matplotlib.axis_1">
    <g id="xtick_1">
     <g id="line2d_1">
      <defs>
       <path id="m3cde31d90a" d="M 0 0 
L 0 3.5 
" style="stroke: #000000; stroke-width: 0.8"/>
      </defs>
      <g>
       <use xlink:href="#m3cde31d90a" x="47.389063" y="162.72" style="stroke: #000000; stroke-width: 0.8"/>
      </g>
     </g>
    </g>
    <g id="xtick_2">
     <g id="line2d_2">
      <g>
       <use xlink:href="#m3cde31d90a" x="112.319972" y="162.72" style="stroke: #000000; stroke-width: 0.8"/>
      </g>
     </g>
    </g>
    <g id="xtick_3">
     <g id="line2d_3">
      <g>
       <use xlink:href="#m3cde31d90a" x="177.250881" y="162.72" style="stroke: #000000; stroke-width: 0.8"/>
      </g>
     </g>
    </g>
    <g id="xtick_4">
     <g id="line2d_4">
      <g>
       <use xlink:href="#m3cde31d90a" x="242.18179" y="162.72" style="stroke: #000000; stroke-width: 0.8"/>
      </g>
     </g>
    </g>
    <g id="xtick_5">
     <g id="line2d_5">
      <g>
       <use xlink:href="#m3cde31d90a" x="307.112699" y="162.72" style="stroke: #000000; stroke-width: 0.8"/>
      </g>
     </g>
    </g>
    <g id="xtick_6">
     <g id="line2d_6">
      <g>
       <use xlink:href="#m3cde31d90a" x="372.043608" y="162.72" style="stroke: #000000; stroke-width: 0.8"/>
      </g>
     </g>
    </g>
   </g>
   <g id="matplotlib.axis_2">
    <g id="ytick_1">
     <g id="line2d_7">
      <defs>
       <path id="m598afd4dab" d="M 0 0 
L -3.5 0 
" style="stroke: #000000; stroke-width: 0.8"/>
      </defs>
      <g>
       <use xlink:href="#m598afd4dab" x="47.389063" y="155.131996" style="stroke: #000000; stroke-width: 0.8"/>
      </g>
     </g>
     <g id="text_1">
      <!-- -2.5 -->
      <g transform="translate(20.878125 158.931215) scale(0.1 -0.1)">
       <defs>
        <path id="DejaVuSans-2d" d="M 313 2009 
L 1997 2009 
L 1997 1497 
L 313 1497 
L 313 2009 
z
" transform="scale(0.015625)"/>
        <path id="DejaVuSans-32" d="M 1228 531 
L 3431 531 
L 3431 0 
L 469 0 
L 469 531 
Q 828 903 1448 1529 
Q 2069 2156 2228 2338 
Q 2531 2678 2651 2914 
Q 2772 3150 2772 3378 
Q 2772 3750 2511 3984 
Q 2250 4219 1831 4219 
Q 1534 4219 1204 4116 
Q 875 4013 500 3803 
L 500 4441 
Q 881 4594 1212 4672 
Q 1544 4750 1819 4750 
Q 2544 4750 2975 4387 
Q 3406 4025 3406 3419 
Q 3406 3131 3298 2873 
Q 3191 2616 2906 2266 
Q 2828 2175 2409 1742 
Q 1991 1309 1228 531 
z
" transform="scale(0.015625)"/>
        <path id="DejaVuSans-2e" d="M 684 794 
L 1344 794 
L 1344 0 
L 684 0 
L 684 794 
z
" transform="scale(0.015625)"/>
        <path id="DejaVuSans-35" d="M 691 4666 
L 3169 4666 
L 3169 4134 
L 1269 4134 
L 1269 2991 
Q 1406 3038 1543 3061 
Q 1681 3084 1819 3084 
Q 2600 3084 3056 2656 
Q 3513 2228 3513 1497 
Q 3513 744 3044 326 
Q 2575 -91 1722 -91 
Q 1428 -91 1123 -41 
Q 819 9 494 109 
L 494 744 
Q 775 591 1075 516 
Q 1375 441 1709 441 
Q 2250 441 2565 725 
Q 2881 1009 2881 1497 
Q 2881 1984 2565 2268 
Q 2250 2553 1709 2553 
Q 1456 2553 1204 2497 
Q 953 2441 691 2322 
L 691 4666 
z
" transform="scale(0.015625)"/>
       </defs>
       <use xlink:href="#DejaVuSans-2d"/>
       <use xlink:href="#DejaVuSans-32" x="36.083984"/>
       <use xlink:href="#DejaVuSans-2e" x="99.707031"/>
       <use xlink:href="#DejaVuSans-35" x="131.494141"/>
      </g>
     </g>
    </g>
    <g id="ytick_2">
     <g id="line2d_8">
      <g>
       <use xlink:href="#m598afd4dab" x="47.389063" y="130.586313" style="stroke: #000000; stroke-width: 0.8"/>
      </g>
     </g>
     <g id="text_2">
      <!-- 0 -->
      <g transform="translate(34.026563 134.385532) scale(0.1 -0.1)">
       <defs>
        <path id="DejaVuSans-30" d="M 2034 4250 
Q 1547 4250 1301 3770 
Q 1056 3291 1056 2328 
Q 1056 1369 1301 889 
Q 1547 409 2034 409 
Q 2525 409 2770 889 
Q 3016 1369 3016 2328 
Q 3016 3291 2770 3770 
Q 2525 4250 2034 4250 
z
M 2034 4750 
Q 2819 4750 3233 4129 
Q 3647 3509 3647 2328 
Q 3647 1150 3233 529 
Q 2819 -91 2034 -91 
Q 1250 -91 836 529 
Q 422 1150 422 2328 
Q 422 3509 836 4129 
Q 1250 4750 2034 4750 
z
" transform="scale(0.015625)"/>
       </defs>
       <use xlink:href="#DejaVuSans-30"/>
      </g>
     </g>
    </g>
    <g id="ytick_3">
     <g id="line2d_9">
      <g>
       <use xlink:href="#m598afd4dab" x="47.389063" y="106.04063" style="stroke: #000000; stroke-width: 0.8"/>
      </g>
     </g>
     <g id="text_3">
      <!-- 2.5 -->
      <g transform="translate(24.485938 109.839849) scale(0.1 -0.1)">
       <use xlink:href="#DejaVuSans-32"/>
       <use xlink:href="#DejaVuSans-2e" x="63.623047"/>
       <use xlink:href="#DejaVuSans-35" x="95.410156"/>
      </g>
     </g>
    </g>
    <g id="ytick_4">
     <g id="line2d_10">
      <g>
       <use xlink:href="#m598afd4dab" x="47.389063" y="81.494948" style="stroke: #000000; stroke-width: 0.8"/>
      </g>
     </g>
     <g id="text_4">
      <!-- 5 -->
      <g transform="translate(34.026563 85.294166) scale(0.1 -0.1)">
       <use xlink:href="#DejaVuSans-35"/>
      </g>
     </g>
    </g>
    <g id="ytick_5">
     <g id="line2d_11">
      <g>
       <use xlink:href="#m598afd4dab" x="47.389063" y="56.949265" style="stroke: #000000; stroke-width: 0.8"/>
      </g>
     </g>
     <g id="text_5">
      <!-- 7.5 -->
      <g transform="translate(24.485938 60.748483) scale(0.1 -0.1)">
       <defs>
        <path id="DejaVuSans-37" d="M 525 4666 
L 3525 4666 
L 3525 4397 
L 1831 0 
L 1172 0 
L 2766 4134 
L 525 4134 
L 525 4666 
z
" transform="scale(0.015625)"/>
       </defs>
       <use xlink:href="#DejaVuSans-37"/>
       <use xlink:href="#DejaVuSans-2e" x="63.623047"/>
       <use xlink:href="#DejaVuSans-35" x="95.410156"/>
      </g>
     </g>
    </g>
    <g id="text_6">
     <!-- Re$(S_{21})$ [mV] -->
     <g transform="translate(14.798438 134.24) rotate(-90) scale(0.1 -0.1)">
      <defs>
       <path id="DejaVuSans-52" d="M 2841 2188 
Q 3044 2119 3236 1894 
Q 3428 1669 3622 1275 
L 4263 0 
L 3584 0 
L 2988 1197 
Q 2756 1666 2539 1819 
Q 2322 1972 1947 1972 
L 1259 1972 
L 1259 0 
L 628 0 
L 628 4666 
L 2053 4666 
Q 2853 4666 3247 4331 
Q 3641 3997 3641 3322 
Q 3641 2881 3436 2590 
Q 3231 2300 2841 2188 
z
M 1259 4147 
L 1259 2491 
L 2053 2491 
Q 2509 2491 2742 2702 
Q 2975 2913 2975 3322 
Q 2975 3731 2742 3939 
Q 2509 4147 2053 4147 
L 1259 4147 
z
" transform="scale(0.015625)"/>
       <path id="DejaVuSans-65" d="M 3597 1894 
L 3597 1613 
L 953 1613 
Q 991 1019 1311 708 
Q 1631 397 2203 397 
Q 2534 397 2845 478 
Q 3156 559 3463 722 
L 3463 178 
Q 3153 47 2828 -22 
Q 2503 -91 2169 -91 
Q 1331 -91 842 396 
Q 353 884 353 1716 
Q 353 2575 817 3079 
Q 1281 3584 2069 3584 
Q 2775 3584 3186 3129 
Q 3597 2675 3597 1894 
z
M 3022 2063 
Q 3016 2534 2758 2815 
Q 2500 3097 2075 3097 
Q 1594 3097 1305 2825 
Q 1016 2553 972 2059 
L 3022 2063 
z
" transform="scale(0.015625)"/>
       <path id="DejaVuSans-28" d="M 1984 4856 
Q 1566 4138 1362 3434 
Q 1159 2731 1159 2009 
Q 1159 1288 1364 580 
Q 1569 -128 1984 -844 
L 1484 -844 
Q 1016 -109 783 600 
Q 550 1309 550 2009 
Q 550 2706 781 3412 
Q 1013 4119 1484 4856 
L 1984 4856 
z
" transform="scale(0.015625)"/>
       <path id="DejaVuSans-Oblique-53" d="M 3859 4513 
L 3738 3897 
Q 3422 4066 3111 4152 
Q 2800 4238 2509 4238 
Q 1944 4238 1609 3991 
Q 1275 3744 1275 3334 
Q 1275 3109 1398 2989 
Q 1522 2869 2034 2731 
L 2413 2638 
Q 3053 2472 3303 2217 
Q 3553 1963 3553 1503 
Q 3553 797 2998 353 
Q 2444 -91 1538 -91 
Q 1166 -91 791 -17 
Q 416 56 38 206 
L 166 856 
Q 513 641 861 531 
Q 1209 422 1556 422 
Q 2147 422 2503 684 
Q 2859 947 2859 1369 
Q 2859 1650 2717 1795 
Q 2575 1941 2106 2059 
L 1728 2156 
Q 1081 2325 845 2545 
Q 609 2766 609 3163 
Q 609 3859 1145 4304 
Q 1681 4750 2541 4750 
Q 2875 4750 3203 4690 
Q 3531 4631 3859 4513 
z
" transform="scale(0.015625)"/>
       <path id="DejaVuSans-31" d="M 794 531 
L 1825 531 
L 1825 4091 
L 703 3866 
L 703 4441 
L 1819 4666 
L 2450 4666 
L 2450 531 
L 3481 531 
L 3481 0 
L 794 0 
L 794 531 
z
" transform="scale(0.015625)"/>
       <path id="DejaVuSans-29" d="M 513 4856 
L 1013 4856 
Q 1481 4119 1714 3412 
Q 1947 2706 1947 2009 
Q 1947 1309 1714 600 
Q 1481 -109 1013 -844 
L 513 -844 
Q 928 -128 1133 580 
Q 1338 1288 1338 2009 
Q 1338 2731 1133 3434 
Q 928 4138 513 4856 
z
" transform="scale(0.015625)"/>
       <path id="DejaVuSans-20" transform="scale(0.015625)"/>
       <path id="DejaVuSans-5b" d="M 550 4863 
L 1875 4863 
L 1875 4416 
L 1125 4416 
L 1125 -397 
L 1875 -397 
L 1875 -844 
L 550 -844 
L 550 4863 
z
" transform="scale(0.015625)"/>
       <path id="DejaVuSans-6d" d="M 3328 2828 
Q 3544 3216 3844 3400 
Q 4144 3584 4550 3584 
Q 5097 3584 5394 3201 
Q 5691 2819 5691 2113 
L 5691 0 
L 5113 0 
L 5113 2094 
Q 5113 2597 4934 2840 
Q 4756 3084 4391 3084 
Q 3944 3084 3684 2787 
Q 3425 2491 3425 1978 
L 3425 0 
L 2847 0 
L 2847 2094 
Q 2847 2600 2669 2842 
Q 2491 3084 2119 3084 
Q 1678 3084 1418 2786 
Q 1159 2488 1159 1978 
L 1159 0 
L 581 0 
L 581 3500 
L 1159 3500 
L 1159 2956 
Q 1356 3278 1631 3431 
Q 1906 3584 2284 3584 
Q 2666 3584 2933 3390 
Q 3200 3197 3328 2828 
z
" transform="scale(0.015625)"/>
       <path id="DejaVuSans-56" d="M 1831 0 
L 50 4666 
L 709 4666 
L 2188 738 
L 3669 4666 
L 4325 4666 
L 2547 0 
L 1831 0 
z
" transform="scale(0.015625)"/>
       <path id="DejaVuSans-5d" d="M 1947 4863 
L 1947 -844 
L 622 -844 
L 622 -397 
L 1369 -397 
L 1369 4416 
L 622 4416 
L 622 4863 
L 1947 4863 
z
" transform="scale(0.015625)"/>
      </defs>
      <use xlink:href="#DejaVuSans-52" transform="translate(0 0.015625)"/>
      <use xlink:href="#DejaVuSans-65" transform="translate(69.482422 0.015625)"/>
      <use xlink:href="#DejaVuSans-28" transform="translate(131.005859 0.015625)"/>
      <use xlink:href="#DejaVuSans-Oblique-53" transform="translate(170.019531 0.015625)"/>
      <use xlink:href="#DejaVuSans-32" transform="translate(233.496094 -16.390625) scale(0.7)"/>
      <use xlink:href="#DejaVuSans-31" transform="translate(278.032227 -16.390625) scale(0.7)"/>
      <use xlink:href="#DejaVuSans-29" transform="translate(325.302734 0.015625)"/>
      <use xlink:href="#DejaVuSans-20" transform="translate(364.316406 0.015625)"/>
      <use xlink:href="#DejaVuSans-5b" transform="translate(396.103516 0.015625)"/>
      <use xlink:href="#DejaVuSans-6d" transform="translate(435.117188 0.015625)"/>
      <use xlink:href="#DejaVuSans-56" transform="translate(532.529297 0.015625)"/>
      <use xlink:href="#DejaVuSans-5d" transform="translate(600.9375 0.015625)"/>
     </g>
    </g>
   </g>
   <g id="line2d_12">
    <path d="M 63.62179 148.086385 
L 65.25322 148.184743 
L 66.88465 150.712212 
L 68.516079 152.08175 
L 70.147509 153.644104 
L 71.778939 154.042303 
L 73.410369 156.129609 
L 75.041799 157.221818 
L 76.673229 156.690258 
L 78.304659 157.145289 
L 79.936089 156.455947 
L 83.198948 156.43253 
L 84.830378 155.480622 
L 86.461808 155.096652 
L 88.093238 153.072243 
L 91.356098 152.740725 
L 92.987528 151.03192 
L 94.618957 150.175674 
L 96.250387 151.062308 
L 97.881817 148.987099 
L 99.513247 148.264822 
L 101.144677 146.586874 
L 102.776107 145.606156 
L 104.407537 144.218263 
L 106.038967 144.28472 
L 107.670396 141.513562 
L 109.301826 141.56531 
L 110.933256 141.23619 
L 112.564686 139.788247 
L 114.196116 138.56129 
L 115.827546 137.518644 
L 117.458976 137.416981 
L 119.090406 136.722151 
L 120.721835 133.528395 
L 122.353265 132.906417 
L 123.984695 132.811714 
L 125.616125 131.761234 
L 127.247555 129.725079 
L 128.878985 129.225953 
L 130.510415 128.056766 
L 132.141845 128.435428 
L 133.773274 126.101735 
L 135.404704 125.978147 
L 137.036134 125.271496 
L 138.667564 125.347588 
L 140.298994 122.984445 
L 141.930424 123.832143 
L 143.561854 120.840061 
L 145.193284 120.159193 
L 146.824713 119.07387 
L 148.456143 119.29313 
L 150.087573 117.239889 
L 151.719003 116.919947 
L 153.350433 115.906612 
L 154.981863 115.361419 
L 156.613293 114.102017 
L 158.244723 114.845996 
L 159.876152 113.104703 
L 163.139012 112.250567 
L 164.770442 109.842444 
L 166.401872 111.020424 
L 168.033302 109.548381 
L 169.664732 109.374132 
L 171.296162 107.130654 
L 172.927592 107.541846 
L 174.559021 107.015295 
L 176.190451 105.213791 
L 181.084741 102.243581 
L 182.716171 103.569642 
L 184.347601 102.214696 
L 185.979031 101.104954 
L 187.61046 100.814877 
L 189.24189 98.091714 
L 190.87332 100.382634 
L 192.50475 98.523861 
L 194.13618 98.070386 
L 195.76761 96.814992 
L 199.03047 96.817529 
L 200.661899 96.411517 
L 202.293329 95.381619 
L 203.924759 94.710984 
L 205.556189 93.383335 
L 207.187619 93.802051 
L 208.819049 93.255068 
L 210.450479 91.886286 
L 212.081909 91.769446 
L 213.713338 89.987682 
L 215.344768 91.224188 
L 216.976198 89.129602 
L 218.607628 88.961418 
L 220.239058 88.537788 
L 221.870488 88.62083 
L 223.501918 88.41047 
L 225.133348 87.418005 
L 226.764777 85.634386 
L 228.396207 86.742679 
L 230.027637 84.465701 
L 231.659067 84.368483 
L 233.290497 85.202474 
L 234.921927 85.32652 
L 236.553357 82.087753 
L 238.184787 82.064293 
L 239.816216 83.220966 
L 241.447646 81.743114 
L 243.079076 80.910093 
L 244.710506 81.075762 
L 246.341936 79.827211 
L 247.973366 79.913056 
L 249.604796 78.599913 
L 251.236226 78.042058 
L 252.867655 79.031495 
L 254.499085 79.169931 
L 256.130515 77.037282 
L 257.761945 78.207268 
L 259.393375 76.002385 
L 261.024805 77.06994 
L 262.656235 76.926048 
L 264.287665 75.276111 
L 265.919094 74.04633 
L 267.550524 74.420163 
L 269.181954 73.284946 
L 270.813384 73.138837 
L 272.444814 73.418404 
L 275.707674 72.113362 
L 277.339104 70.346456 
L 278.970533 70.463798 
L 280.601963 71.163404 
L 282.233393 70.758043 
L 283.864823 69.494111 
L 285.496253 69.915301 
L 287.127683 69.891201 
L 288.759113 68.091233 
L 290.390543 68.816281 
L 292.021973 68.511271 
L 293.653402 66.052892 
L 295.284832 66.452988 
L 296.916262 65.31564 
L 298.547692 66.471279 
L 300.179122 65.936201 
L 301.810552 64.731052 
L 303.441982 64.879283 
L 305.073412 65.273826 
L 306.704841 64.396784 
L 308.336271 62.738576 
L 309.967701 63.776351 
L 311.599131 63.856963 
L 313.230561 63.550941 
L 314.861991 62.085336 
L 316.493421 61.958135 
L 319.75628 61.009072 
L 321.38771 62.056824 
L 323.01914 59.424793 
L 324.65057 59.131902 
L 326.282 59.636688 
L 327.91343 58.989587 
L 331.17629 58.463612 
L 332.807719 57.913761 
L 334.439149 58.024611 
L 336.070579 57.407941 
L 337.702009 57.318674 
L 339.333439 57.030505 
L 340.964869 56.518343 
L 342.596299 55.638126 
L 344.227729 57.102398 
L 345.859158 55.572639 
L 349.122018 55.178319 
L 350.753448 54.490268 
L 352.384878 53.954188 
L 354.016308 54.13464 
L 355.647738 52.77494 
L 357.279168 52.305988 
L 358.910597 53.096684 
L 360.542027 51.857054 
L 362.173457 52.472701 
L 363.804887 51.303003 
L 365.436317 52.103547 
L 367.067747 52.12818 
L 368.699177 50.896427 
L 371.962036 50.147023 
L 373.593466 50.016998 
L 375.224896 50.756798 
L 376.856326 49.383529 
L 378.487756 49.642099 
L 380.119186 47.258182 
L 381.750616 48.493122 
L 383.382046 48.707607 
L 385.013475 47.503439 
L 388.276335 49.188006 
L 388.276335 49.188006 
" clip-path="url(#pf32a21267e)" style="fill: none; stroke: #1f77b4; stroke-width: 1.5; stroke-linecap: square"/>
    <defs>
     <path id="mecd47027c2" d="M 0 1.5 
C 0.397805 1.5 0.77937 1.341951 1.06066 1.06066 
C 1.341951 0.77937 1.5 0.397805 1.5 0 
C 1.5 -0.397805 1.341951 -0.77937 1.06066 -1.06066 
C 0.77937 -1.341951 0.397805 -1.5 0 -1.5 
C -0.397805 -1.5 -0.77937 -1.341951 -1.06066 -1.06066 
C -1.341951 -0.77937 -1.5 -0.397805 -1.5 0 
C -1.5 0.397805 -1.341951 0.77937 -1.06066 1.06066 
C -0.77937 1.341951 -0.397805 1.5 0 1.5 
z
" style="stroke: #1f77b4"/>
    </defs>
    <g clip-path="url(#pf32a21267e)">
     <use xlink:href="#mecd47027c2" x="63.62179" y="148.086385" style="fill: #1f77b4; stroke: #1f77b4"/>
     <use xlink:href="#mecd47027c2" x="65.25322" y="148.184743" style="fill: #1f77b4; stroke: #1f77b4"/>
     <use xlink:href="#mecd47027c2" x="66.88465" y="150.712212" style="fill: #1f77b4; stroke: #1f77b4"/>
     <use xlink:href="#mecd47027c2" x="68.516079" y="152.08175" style="fill: #1f77b4; stroke: #1f77b4"/>
     <use xlink:href="#mecd47027c2" x="70.147509" y="153.644104" style="fill: #1f77b4; stroke: #1f77b4"/>
     <use xlink:href="#mecd47027c2" x="71.778939" y="154.042303" style="fill: #1f77b4; stroke: #1f77b4"/>
     <use xlink:href="#mecd47027c2" x="73.410369" y="156.129609" style="fill: #1f77b4; stroke: #1f77b4"/>
     <use xlink:href="#mecd47027c2" x="75.041799" y="157.221818" style="fill: #1f77b4; stroke: #1f77b4"/>
     <use xlink:href="#mecd47027c2" x="76.673229" y="156.690258" style="fill: #1f77b4; stroke: #1f77b4"/>
     <use xlink:href="#mecd47027c2" x="78.304659" y="157.145289" style="fill: #1f77b4; stroke: #1f77b4"/>
     <use xlink:href="#mecd47027c2" x="79.936089" y="156.455947" style="fill: #1f77b4; stroke: #1f77b4"/>
     <use xlink:href="#mecd47027c2" x="81.567518" y="156.389756" style="fill: #1f77b4; stroke: #1f77b4"/>
     <use xlink:href="#mecd47027c2" x="83.198948" y="156.43253" style="fill: #1f77b4; stroke: #1f77b4"/>
     <use xlink:href="#mecd47027c2" x="84.830378" y="155.480622" style="fill: #1f77b4; stroke: #1f77b4"/>
     <use xlink:href="#mecd47027c2" x="86.461808" y="155.096652" style="fill: #1f77b4; stroke: #1f77b4"/>
     <use xlink:href="#mecd47027c2" x="88.093238" y="153.072243" style="fill: #1f77b4; stroke: #1f77b4"/>
     <use xlink:href="#mecd47027c2" x="89.724668" y="152.942899" style="fill: #1f77b4; stroke: #1f77b4"/>
     <use xlink:href="#mecd47027c2" x="91.356098" y="152.740725" style="fill: #1f77b4; stroke: #1f77b4"/>
     <use xlink:href="#mecd47027c2" x="92.987528" y="151.03192" style="fill: #1f77b4; stroke: #1f77b4"/>
     <use xlink:href="#mecd47027c2" x="94.618957" y="150.175674" style="fill: #1f77b4; stroke: #1f77b4"/>
     <use xlink:href="#mecd47027c2" x="96.250387" y="151.062308" style="fill: #1f77b4; stroke: #1f77b4"/>
     <use xlink:href="#mecd47027c2" x="97.881817" y="148.987099" style="fill: #1f77b4; stroke: #1f77b4"/>
     <use xlink:href="#mecd47027c2" x="99.513247" y="148.264822" style="fill: #1f77b4; stroke: #1f77b4"/>
     <use xlink:href="#mecd47027c2" x="101.144677" y="146.586874" style="fill: #1f77b4; stroke: #1f77b4"/>
     <use xlink:href="#mecd47027c2" x="102.776107" y="145.606156" style="fill: #1f77b4; stroke: #1f77b4"/>
     <use xlink:href="#mecd47027c2" x="104.407537" y="144.218263" style="fill: #1f77b4; stroke: #1f77b4"/>
     <use xlink:href="#mecd47027c2" x="106.038967" y="144.28472" style="fill: #1f77b4; stroke: #1f77b4"/>
     <use xlink:href="#mecd47027c2" x="107.670396" y="141.513562" style="fill: #1f77b4; stroke: #1f77b4"/>
     <use xlink:href="#mecd47027c2" x="109.301826" y="141.56531" style="fill: #1f77b4; stroke: #1f77b4"/>
     <use xlink:href="#mecd47027c2" x="110.933256" y="141.23619" style="fill: #1f77b4; stroke: #1f77b4"/>
     <use xlink:href="#mecd47027c2" x="112.564686" y="139.788247" style="fill: #1f77b4; stroke: #1f77b4"/>
     <use xlink:href="#mecd47027c2" x="114.196116" y="138.56129" style="fill: #1f77b4; stroke: #1f77b4"/>
     <use xlink:href="#mecd47027c2" x="115.827546" y="137.518644" style="fill: #1f77b4; stroke: #1f77b4"/>
     <use xlink:href="#mecd47027c2" x="117.458976" y="137.416981" style="fill: #1f77b4; stroke: #1f77b4"/>
     <use xlink:href="#mecd47027c2" x="119.090406" y="136.722151" style="fill: #1f77b4; stroke: #1f77b4"/>
     <use xlink:href="#mecd47027c2" x="120.721835" y="133.528395" style="fill: #1f77b4; stroke: #1f77b4"/>
     <use xlink:href="#mecd47027c2" x="122.353265" y="132.906417" style="fill: #1f77b4; stroke: #1f77b4"/>
     <use xlink:href="#mecd47027c2" x="123.984695" y="132.811714" style="fill: #1f77b4; stroke: #1f77b4"/>
     <use xlink:href="#mecd47027c2" x="125.616125" y="131.761234" style="fill: #1f77b4; stroke: #1f77b4"/>
     <use xlink:href="#mecd47027c2" x="127.247555" y="129.725079" style="fill: #1f77b4; stroke: #1f77b4"/>
     <use xlink:href="#mecd47027c2" x="128.878985" y="129.225953" style="fill: #1f77b4; stroke: #1f77b4"/>
     <use xlink:href="#mecd47027c2" x="130.510415" y="128.056766" style="fill: #1f77b4; stroke: #1f77b4"/>
     <use xlink:href="#mecd47027c2" x="132.141845" y="128.435428" style="fill: #1f77b4; stroke: #1f77b4"/>
     <use xlink:href="#mecd47027c2" x="133.773274" y="126.101735" style="fill: #1f77b4; stroke: #1f77b4"/>
     <use xlink:href="#mecd47027c2" x="135.404704" y="125.978147" style="fill: #1f77b4; stroke: #1f77b4"/>
     <use xlink:href="#mecd47027c2" x="137.036134" y="125.271496" style="fill: #1f77b4; stroke: #1f77b4"/>
     <use xlink:href="#mecd47027c2" x="138.667564" y="125.347588" style="fill: #1f77b4; stroke: #1f77b4"/>
     <use xlink:href="#mecd47027c2" x="140.298994" y="122.984445" style="fill: #1f77b4; stroke: #1f77b4"/>
     <use xlink:href="#mecd47027c2" x="141.930424" y="123.832143" style="fill: #1f77b4; stroke: #1f77b4"/>
     <use xlink:href="#mecd47027c2" x="143.561854" y="120.840061" style="fill: #1f77b4; stroke: #1f77b4"/>
     <use xlink:href="#mecd47027c2" x="145.193284" y="120.159193" style="fill: #1f77b4; stroke: #1f77b4"/>
     <use xlink:href="#mecd47027c2" x="146.824713" y="119.07387" style="fill: #1f77b4; stroke: #1f77b4"/>
     <use xlink:href="#mecd47027c2" x="148.456143" y="119.29313" style="fill: #1f77b4; stroke: #1f77b4"/>
     <use xlink:href="#mecd47027c2" x="150.087573" y="117.239889" style="fill: #1f77b4; stroke: #1f77b4"/>
     <use xlink:href="#mecd47027c2" x="151.719003" y="116.919947" style="fill: #1f77b4; stroke: #1f77b4"/>
     <use xlink:href="#mecd47027c2" x="153.350433" y="115.906612" style="fill: #1f77b4; stroke: #1f77b4"/>
     <use xlink:href="#mecd47027c2" x="154.981863" y="115.361419" style="fill: #1f77b4; stroke: #1f77b4"/>
     <use xlink:href="#mecd47027c2" x="156.613293" y="114.102017" style="fill: #1f77b4; stroke: #1f77b4"/>
     <use xlink:href="#mecd47027c2" x="158.244723" y="114.845996" style="fill: #1f77b4; stroke: #1f77b4"/>
     <use xlink:href="#mecd47027c2" x="159.876152" y="113.104703" style="fill: #1f77b4; stroke: #1f77b4"/>
     <use xlink:href="#mecd47027c2" x="161.507582" y="112.668943" style="fill: #1f77b4; stroke: #1f77b4"/>
     <use xlink:href="#mecd47027c2" x="163.139012" y="112.250567" style="fill: #1f77b4; stroke: #1f77b4"/>
     <use xlink:href="#mecd47027c2" x="164.770442" y="109.842444" style="fill: #1f77b4; stroke: #1f77b4"/>
     <use xlink:href="#mecd47027c2" x="166.401872" y="111.020424" style="fill: #1f77b4; stroke: #1f77b4"/>
     <use xlink:href="#mecd47027c2" x="168.033302" y="109.548381" style="fill: #1f77b4; stroke: #1f77b4"/>
     <use xlink:href="#mecd47027c2" x="169.664732" y="109.374132" style="fill: #1f77b4; stroke: #1f77b4"/>
     <use xlink:href="#mecd47027c2" x="171.296162" y="107.130654" style="fill: #1f77b4; stroke: #1f77b4"/>
     <use xlink:href="#mecd47027c2" x="172.927592" y="107.541846" style="fill: #1f77b4; stroke: #1f77b4"/>
     <use xlink:href="#mecd47027c2" x="174.559021" y="107.015295" style="fill: #1f77b4; stroke: #1f77b4"/>
     <use xlink:href="#mecd47027c2" x="176.190451" y="105.213791" style="fill: #1f77b4; stroke: #1f77b4"/>
     <use xlink:href="#mecd47027c2" x="177.821881" y="104.259592" style="fill: #1f77b4; stroke: #1f77b4"/>
     <use xlink:href="#mecd47027c2" x="179.453311" y="103.214377" style="fill: #1f77b4; stroke: #1f77b4"/>
     <use xlink:href="#mecd47027c2" x="181.084741" y="102.243581" style="fill: #1f77b4; stroke: #1f77b4"/>
     <use xlink:href="#mecd47027c2" x="182.716171" y="103.569642" style="fill: #1f77b4; stroke: #1f77b4"/>
     <use xlink:href="#mecd47027c2" x="184.347601" y="102.214696" style="fill: #1f77b4; stroke: #1f77b4"/>
     <use xlink:href="#mecd47027c2" x="185.979031" y="101.104954" style="fill: #1f77b4; stroke: #1f77b4"/>
     <use xlink:href="#mecd47027c2" x="187.61046" y="100.814877" style="fill: #1f77b4; stroke: #1f77b4"/>
     <use xlink:href="#mecd47027c2" x="189.24189" y="98.091714" style="fill: #1f77b4; stroke: #1f77b4"/>
     <use xlink:href="#mecd47027c2" x="190.87332" y="100.382634" style="fill: #1f77b4; stroke: #1f77b4"/>
     <use xlink:href="#mecd47027c2" x="192.50475" y="98.523861" style="fill: #1f77b4; stroke: #1f77b4"/>
     <use xlink:href="#mecd47027c2" x="194.13618" y="98.070386" style="fill: #1f77b4; stroke: #1f77b4"/>
     <use xlink:href="#mecd47027c2" x="195.76761" y="96.814992" style="fill: #1f77b4; stroke: #1f77b4"/>
     <use xlink:href="#mecd47027c2" x="197.39904" y="96.830138" style="fill: #1f77b4; stroke: #1f77b4"/>
     <use xlink:href="#mecd47027c2" x="199.03047" y="96.817529" style="fill: #1f77b4; stroke: #1f77b4"/>
     <use xlink:href="#mecd47027c2" x="200.661899" y="96.411517" style="fill: #1f77b4; stroke: #1f77b4"/>
     <use xlink:href="#mecd47027c2" x="202.293329" y="95.381619" style="fill: #1f77b4; stroke: #1f77b4"/>
     <use xlink:href="#mecd47027c2" x="203.924759" y="94.710984" style="fill: #1f77b4; stroke: #1f77b4"/>
     <use xlink:href="#mecd47027c2" x="205.556189" y="93.383335" style="fill: #1f77b4; stroke: #1f77b4"/>
     <use xlink:href="#mecd47027c2" x="207.187619" y="93.802051" style="fill: #1f77b4; stroke: #1f77b4"/>
     <use xlink:href="#mecd47027c2" x="208.819049" y="93.255068" style="fill: #1f77b4; stroke: #1f77b4"/>
     <use xlink:href="#mecd47027c2" x="210.450479" y="91.886286" style="fill: #1f77b4; stroke: #1f77b4"/>
     <use xlink:href="#mecd47027c2" x="212.081909" y="91.769446" style="fill: #1f77b4; stroke: #1f77b4"/>
     <use xlink:href="#mecd47027c2" x="213.713338" y="89.987682" style="fill: #1f77b4; stroke: #1f77b4"/>
     <use xlink:href="#mecd47027c2" x="215.344768" y="91.224188" style="fill: #1f77b4; stroke: #1f77b4"/>
     <use xlink:href="#mecd47027c2" x="216.976198" y="89.129602" style="fill: #1f77b4; stroke: #1f77b4"/>
     <use xlink:href="#mecd47027c2" x="218.607628" y="88.961418" style="fill: #1f77b4; stroke: #1f77b4"/>
     <use xlink:href="#mecd47027c2" x="220.239058" y="88.537788" style="fill: #1f77b4; stroke: #1f77b4"/>
     <use xlink:href="#mecd47027c2" x="221.870488" y="88.62083" style="fill: #1f77b4; stroke: #1f77b4"/>
     <use xlink:href="#mecd47027c2" x="223.501918" y="88.41047" style="fill: #1f77b4; stroke: #1f77b4"/>
     <use xlink:href="#mecd47027c2" x="225.133348" y="87.418005" style="fill: #1f77b4; stroke: #1f77b4"/>
     <use xlink:href="#mecd47027c2" x="226.764777" y="85.634386" style="fill: #1f77b4; stroke: #1f77b4"/>
     <use xlink:href="#mecd47027c2" x="228.396207" y="86.742679" style="fill: #1f77b4; stroke: #1f77b4"/>
     <use xlink:href="#mecd47027c2" x="230.027637" y="84.465701" style="fill: #1f77b4; stroke: #1f77b4"/>
     <use xlink:href="#mecd47027c2" x="231.659067" y="84.368483" style="fill: #1f77b4; stroke: #1f77b4"/>
     <use xlink:href="#mecd47027c2" x="233.290497" y="85.202474" style="fill: #1f77b4; stroke: #1f77b4"/>
     <use xlink:href="#mecd47027c2" x="234.921927" y="85.32652" style="fill: #1f77b4; stroke: #1f77b4"/>
     <use xlink:href="#mecd47027c2" x="236.553357" y="82.087753" style="fill: #1f77b4; stroke: #1f77b4"/>
     <use xlink:href="#mecd47027c2" x="238.184787" y="82.064293" style="fill: #1f77b4; stroke: #1f77b4"/>
     <use xlink:href="#mecd47027c2" x="239.816216" y="83.220966" style="fill: #1f77b4; stroke: #1f77b4"/>
     <use xlink:href="#mecd47027c2" x="241.447646" y="81.743114" style="fill: #1f77b4; stroke: #1f77b4"/>
     <use xlink:href="#mecd47027c2" x="243.079076" y="80.910093" style="fill: #1f77b4; stroke: #1f77b4"/>
     <use xlink:href="#mecd47027c2" x="244.710506" y="81.075762" style="fill: #1f77b4; stroke: #1f77b4"/>
     <use xlink:href="#mecd47027c2" x="246.341936" y="79.827211" style="fill: #1f77b4; stroke: #1f77b4"/>
     <use xlink:href="#mecd47027c2" x="247.973366" y="79.913056" style="fill: #1f77b4; stroke: #1f77b4"/>
     <use xlink:href="#mecd47027c2" x="249.604796" y="78.599913" style="fill: #1f77b4; stroke: #1f77b4"/>
     <use xlink:href="#mecd47027c2" x="251.236226" y="78.042058" style="fill: #1f77b4; stroke: #1f77b4"/>
     <use xlink:href="#mecd47027c2" x="252.867655" y="79.031495" style="fill: #1f77b4; stroke: #1f77b4"/>
     <use xlink:href="#mecd47027c2" x="254.499085" y="79.169931" style="fill: #1f77b4; stroke: #1f77b4"/>
     <use xlink:href="#mecd47027c2" x="256.130515" y="77.037282" style="fill: #1f77b4; stroke: #1f77b4"/>
     <use xlink:href="#mecd47027c2" x="257.761945" y="78.207268" style="fill: #1f77b4; stroke: #1f77b4"/>
     <use xlink:href="#mecd47027c2" x="259.393375" y="76.002385" style="fill: #1f77b4; stroke: #1f77b4"/>
     <use xlink:href="#mecd47027c2" x="261.024805" y="77.06994" style="fill: #1f77b4; stroke: #1f77b4"/>
     <use xlink:href="#mecd47027c2" x="262.656235" y="76.926048" style="fill: #1f77b4; stroke: #1f77b4"/>
     <use xlink:href="#mecd47027c2" x="264.287665" y="75.276111" style="fill: #1f77b4; stroke: #1f77b4"/>
     <use xlink:href="#mecd47027c2" x="265.919094" y="74.04633" style="fill: #1f77b4; stroke: #1f77b4"/>
     <use xlink:href="#mecd47027c2" x="267.550524" y="74.420163" style="fill: #1f77b4; stroke: #1f77b4"/>
     <use xlink:href="#mecd47027c2" x="269.181954" y="73.284946" style="fill: #1f77b4; stroke: #1f77b4"/>
     <use xlink:href="#mecd47027c2" x="270.813384" y="73.138837" style="fill: #1f77b4; stroke: #1f77b4"/>
     <use xlink:href="#mecd47027c2" x="272.444814" y="73.418404" style="fill: #1f77b4; stroke: #1f77b4"/>
     <use xlink:href="#mecd47027c2" x="274.076244" y="72.733539" style="fill: #1f77b4; stroke: #1f77b4"/>
     <use xlink:href="#mecd47027c2" x="275.707674" y="72.113362" style="fill: #1f77b4; stroke: #1f77b4"/>
     <use xlink:href="#mecd47027c2" x="277.339104" y="70.346456" style="fill: #1f77b4; stroke: #1f77b4"/>
     <use xlink:href="#mecd47027c2" x="278.970533" y="70.463798" style="fill: #1f77b4; stroke: #1f77b4"/>
     <use xlink:href="#mecd47027c2" x="280.601963" y="71.163404" style="fill: #1f77b4; stroke: #1f77b4"/>
     <use xlink:href="#mecd47027c2" x="282.233393" y="70.758043" style="fill: #1f77b4; stroke: #1f77b4"/>
     <use xlink:href="#mecd47027c2" x="283.864823" y="69.494111" style="fill: #1f77b4; stroke: #1f77b4"/>
     <use xlink:href="#mecd47027c2" x="285.496253" y="69.915301" style="fill: #1f77b4; stroke: #1f77b4"/>
     <use xlink:href="#mecd47027c2" x="287.127683" y="69.891201" style="fill: #1f77b4; stroke: #1f77b4"/>
     <use xlink:href="#mecd47027c2" x="288.759113" y="68.091233" style="fill: #1f77b4; stroke: #1f77b4"/>
     <use xlink:href="#mecd47027c2" x="290.390543" y="68.816281" style="fill: #1f77b4; stroke: #1f77b4"/>
     <use xlink:href="#mecd47027c2" x="292.021973" y="68.511271" style="fill: #1f77b4; stroke: #1f77b4"/>
     <use xlink:href="#mecd47027c2" x="293.653402" y="66.052892" style="fill: #1f77b4; stroke: #1f77b4"/>
     <use xlink:href="#mecd47027c2" x="295.284832" y="66.452988" style="fill: #1f77b4; stroke: #1f77b4"/>
     <use xlink:href="#mecd47027c2" x="296.916262" y="65.31564" style="fill: #1f77b4; stroke: #1f77b4"/>
     <use xlink:href="#mecd47027c2" x="298.547692" y="66.471279" style="fill: #1f77b4; stroke: #1f77b4"/>
     <use xlink:href="#mecd47027c2" x="300.179122" y="65.936201" style="fill: #1f77b4; stroke: #1f77b4"/>
     <use xlink:href="#mecd47027c2" x="301.810552" y="64.731052" style="fill: #1f77b4; stroke: #1f77b4"/>
     <use xlink:href="#mecd47027c2" x="303.441982" y="64.879283" style="fill: #1f77b4; stroke: #1f77b4"/>
     <use xlink:href="#mecd47027c2" x="305.073412" y="65.273826" style="fill: #1f77b4; stroke: #1f77b4"/>
     <use xlink:href="#mecd47027c2" x="306.704841" y="64.396784" style="fill: #1f77b4; stroke: #1f77b4"/>
     <use xlink:href="#mecd47027c2" x="308.336271" y="62.738576" style="fill: #1f77b4; stroke: #1f77b4"/>
     <use xlink:href="#mecd47027c2" x="309.967701" y="63.776351" style="fill: #1f77b4; stroke: #1f77b4"/>
     <use xlink:href="#mecd47027c2" x="311.599131" y="63.856963" style="fill: #1f77b4; stroke: #1f77b4"/>
     <use xlink:href="#mecd47027c2" x="313.230561" y="63.550941" style="fill: #1f77b4; stroke: #1f77b4"/>
     <use xlink:href="#mecd47027c2" x="314.861991" y="62.085336" style="fill: #1f77b4; stroke: #1f77b4"/>
     <use xlink:href="#mecd47027c2" x="316.493421" y="61.958135" style="fill: #1f77b4; stroke: #1f77b4"/>
     <use xlink:href="#mecd47027c2" x="318.124851" y="61.488181" style="fill: #1f77b4; stroke: #1f77b4"/>
     <use xlink:href="#mecd47027c2" x="319.75628" y="61.009072" style="fill: #1f77b4; stroke: #1f77b4"/>
     <use xlink:href="#mecd47027c2" x="321.38771" y="62.056824" style="fill: #1f77b4; stroke: #1f77b4"/>
     <use xlink:href="#mecd47027c2" x="323.01914" y="59.424793" style="fill: #1f77b4; stroke: #1f77b4"/>
     <use xlink:href="#mecd47027c2" x="324.65057" y="59.131902" style="fill: #1f77b4; stroke: #1f77b4"/>
     <use xlink:href="#mecd47027c2" x="326.282" y="59.636688" style="fill: #1f77b4; stroke: #1f77b4"/>
     <use xlink:href="#mecd47027c2" x="327.91343" y="58.989587" style="fill: #1f77b4; stroke: #1f77b4"/>
     <use xlink:href="#mecd47027c2" x="329.54486" y="58.671574" style="fill: #1f77b4; stroke: #1f77b4"/>
     <use xlink:href="#mecd47027c2" x="331.17629" y="58.463612" style="fill: #1f77b4; stroke: #1f77b4"/>
     <use xlink:href="#mecd47027c2" x="332.807719" y="57.913761" style="fill: #1f77b4; stroke: #1f77b4"/>
     <use xlink:href="#mecd47027c2" x="334.439149" y="58.024611" style="fill: #1f77b4; stroke: #1f77b4"/>
     <use xlink:href="#mecd47027c2" x="336.070579" y="57.407941" style="fill: #1f77b4; stroke: #1f77b4"/>
     <use xlink:href="#mecd47027c2" x="337.702009" y="57.318674" style="fill: #1f77b4; stroke: #1f77b4"/>
     <use xlink:href="#mecd47027c2" x="339.333439" y="57.030505" style="fill: #1f77b4; stroke: #1f77b4"/>
     <use xlink:href="#mecd47027c2" x="340.964869" y="56.518343" style="fill: #1f77b4; stroke: #1f77b4"/>
     <use xlink:href="#mecd47027c2" x="342.596299" y="55.638126" style="fill: #1f77b4; stroke: #1f77b4"/>
     <use xlink:href="#mecd47027c2" x="344.227729" y="57.102398" style="fill: #1f77b4; stroke: #1f77b4"/>
     <use xlink:href="#mecd47027c2" x="345.859158" y="55.572639" style="fill: #1f77b4; stroke: #1f77b4"/>
     <use xlink:href="#mecd47027c2" x="347.490588" y="55.3526" style="fill: #1f77b4; stroke: #1f77b4"/>
     <use xlink:href="#mecd47027c2" x="349.122018" y="55.178319" style="fill: #1f77b4; stroke: #1f77b4"/>
     <use xlink:href="#mecd47027c2" x="350.753448" y="54.490268" style="fill: #1f77b4; stroke: #1f77b4"/>
     <use xlink:href="#mecd47027c2" x="352.384878" y="53.954188" style="fill: #1f77b4; stroke: #1f77b4"/>
     <use xlink:href="#mecd47027c2" x="354.016308" y="54.13464" style="fill: #1f77b4; stroke: #1f77b4"/>
     <use xlink:href="#mecd47027c2" x="355.647738" y="52.77494" style="fill: #1f77b4; stroke: #1f77b4"/>
     <use xlink:href="#mecd47027c2" x="357.279168" y="52.305988" style="fill: #1f77b4; stroke: #1f77b4"/>
     <use xlink:href="#mecd47027c2" x="358.910597" y="53.096684" style="fill: #1f77b4; stroke: #1f77b4"/>
     <use xlink:href="#mecd47027c2" x="360.542027" y="51.857054" style="fill: #1f77b4; stroke: #1f77b4"/>
     <use xlink:href="#mecd47027c2" x="362.173457" y="52.472701" style="fill: #1f77b4; stroke: #1f77b4"/>
     <use xlink:href="#mecd47027c2" x="363.804887" y="51.303003" style="fill: #1f77b4; stroke: #1f77b4"/>
     <use xlink:href="#mecd47027c2" x="365.436317" y="52.103547" style="fill: #1f77b4; stroke: #1f77b4"/>
     <use xlink:href="#mecd47027c2" x="367.067747" y="52.12818" style="fill: #1f77b4; stroke: #1f77b4"/>
     <use xlink:href="#mecd47027c2" x="368.699177" y="50.896427" style="fill: #1f77b4; stroke: #1f77b4"/>
     <use xlink:href="#mecd47027c2" x="370.330607" y="50.522764" style="fill: #1f77b4; stroke: #1f77b4"/>
     <use xlink:href="#mecd47027c2" x="371.962036" y="50.147023" style="fill: #1f77b4; stroke: #1f77b4"/>
     <use xlink:href="#mecd47027c2" x="373.593466" y="50.016998" style="fill: #1f77b4; stroke: #1f77b4"/>
     <use xlink:href="#mecd47027c2" x="375.224896" y="50.756798" style="fill: #1f77b4; stroke: #1f77b4"/>
     <use xlink:href="#mecd47027c2" x="376.856326" y="49.383529" style="fill: #1f77b4; stroke: #1f77b4"/>
     <use xlink:href="#mecd47027c2" x="378.487756" y="49.642099" style="fill: #1f77b4; stroke: #1f77b4"/>
     <use xlink:href="#mecd47027c2" x="380.119186" y="47.258182" style="fill: #1f77b4; stroke: #1f77b4"/>
     <use xlink:href="#mecd47027c2" x="381.750616" y="48.493122" style="fill: #1f77b4; stroke: #1f77b4"/>
     <use xlink:href="#mecd47027c2" x="383.382046" y="48.707607" style="fill: #1f77b4; stroke: #1f77b4"/>
     <use xlink:href="#mecd47027c2" x="385.013475" y="47.503439" style="fill: #1f77b4; stroke: #1f77b4"/>
     <use xlink:href="#mecd47027c2" x="386.644905" y="48.372486" style="fill: #1f77b4; stroke: #1f77b4"/>
     <use xlink:href="#mecd47027c2" x="388.276335" y="49.188006" style="fill: #1f77b4; stroke: #1f77b4"/>
    </g>
   </g>
   <g id="line2d_13">
    <path d="M 63.62179 145.928114 
L 108.468964 131.63179 
L 167.290258 112.916973 
L 197.838334 103.438943 
L 223.511716 95.70064 
L 246.585262 88.974772 
L 267.708931 83.043691 
L 287.857662 77.616771 
L 306.706474 72.766383 
L 324.905328 68.309835 
L 342.454222 64.239229 
L 359.353158 60.543319 
L 375.927113 57.14362 
L 388.276335 54.761829 
L 388.276335 54.761829 
" clip-path="url(#pf32a21267e)" style="fill: none; stroke: #d62728; stroke-width: 1.5; stroke-linecap: square"/>
   </g>
   <g id="patch_3">
    <path d="M 47.389063 162.72 
L 47.389063 41.76 
" style="fill: none; stroke: #000000; stroke-width: 0.8; stroke-linejoin: miter; stroke-linecap: square"/>
   </g>
   <g id="patch_4">
    <path d="M 404.509063 162.72 
L 404.509063 41.76 
" style="fill: none; stroke: #000000; stroke-width: 0.8; stroke-linejoin: miter; stroke-linecap: square"/>
   </g>
   <g id="patch_5">
    <path d="M 47.389063 162.72 
L 404.509063 162.72 
" style="fill: none; stroke: #000000; stroke-width: 0.8; stroke-linejoin: miter; stroke-linecap: square"/>
   </g>
   <g id="patch_6">
    <path d="M 47.389063 41.76 
L 404.509063 41.76 
" style="fill: none; stroke: #000000; stroke-width: 0.8; stroke-linejoin: miter; stroke-linecap: square"/>
   </g>
   <g id="text_7">
    <g id="patch_7">
     <path d="M 422.365063 95.079562 
L 545.665062 95.079562 
Q 549.665062 95.079562 549.665062 91.079562 
L 549.665062 47.808 
Q 549.665062 43.808 545.665062 43.808 
L 422.365063 43.808 
Q 418.365063 43.808 418.365063 47.808 
L 418.365063 91.079562 
Q 418.365063 95.079562 422.365063 95.079562 
z
" style="fill: #ffffff; opacity: 0.5; stroke: #000000; stroke-linejoin: miter"/>
    </g>
    <!-- Summary -->
    <g transform="translate(422.365063 55.406437) scale(0.1 -0.1)">
     <defs>
      <path id="DejaVuSans-53" d="M 3425 4513 
L 3425 3897 
Q 3066 4069 2747 4153 
Q 2428 4238 2131 4238 
Q 1616 4238 1336 4038 
Q 1056 3838 1056 3469 
Q 1056 3159 1242 3001 
Q 1428 2844 1947 2747 
L 2328 2669 
Q 3034 2534 3370 2195 
Q 3706 1856 3706 1288 
Q 3706 609 3251 259 
Q 2797 -91 1919 -91 
Q 1588 -91 1214 -16 
Q 841 59 441 206 
L 441 856 
Q 825 641 1194 531 
Q 1563 422 1919 422 
Q 2459 422 2753 634 
Q 3047 847 3047 1241 
Q 3047 1584 2836 1778 
Q 2625 1972 2144 2069 
L 1759 2144 
Q 1053 2284 737 2584 
Q 422 2884 422 3419 
Q 422 4038 858 4394 
Q 1294 4750 2059 4750 
Q 2388 4750 2728 4690 
Q 3069 4631 3425 4513 
z
" transform="scale(0.015625)"/>
      <path id="DejaVuSans-75" d="M 544 1381 
L 544 3500 
L 1119 3500 
L 1119 1403 
Q 1119 906 1312 657 
Q 1506 409 1894 409 
Q 2359 409 2629 706 
Q 2900 1003 2900 1516 
L 2900 3500 
L 3475 3500 
L 3475 0 
L 2900 0 
L 2900 538 
Q 2691 219 2414 64 
Q 2138 -91 1772 -91 
Q 1169 -91 856 284 
Q 544 659 544 1381 
z
M 1991 3584 
L 1991 3584 
z
" transform="scale(0.015625)"/>
      <path id="DejaVuSans-61" d="M 2194 1759 
Q 1497 1759 1228 1600 
Q 959 1441 959 1056 
Q 959 750 1161 570 
Q 1363 391 1709 391 
Q 2188 391 2477 730 
Q 2766 1069 2766 1631 
L 2766 1759 
L 2194 1759 
z
M 3341 1997 
L 3341 0 
L 2766 0 
L 2766 531 
Q 2569 213 2275 61 
Q 1981 -91 1556 -91 
Q 1019 -91 701 211 
Q 384 513 384 1019 
Q 384 1609 779 1909 
Q 1175 2209 1959 2209 
L 2766 2209 
L 2766 2266 
Q 2766 2663 2505 2880 
Q 2244 3097 1772 3097 
Q 1472 3097 1187 3025 
Q 903 2953 641 2809 
L 641 3341 
Q 956 3463 1253 3523 
Q 1550 3584 1831 3584 
Q 2591 3584 2966 3190 
Q 3341 2797 3341 1997 
z
" transform="scale(0.015625)"/>
      <path id="DejaVuSans-72" d="M 2631 2963 
Q 2534 3019 2420 3045 
Q 2306 3072 2169 3072 
Q 1681 3072 1420 2755 
Q 1159 2438 1159 1844 
L 1159 0 
L 581 0 
L 581 3500 
L 1159 3500 
L 1159 2956 
Q 1341 3275 1631 3429 
Q 1922 3584 2338 3584 
Q 2397 3584 2469 3576 
Q 2541 3569 2628 3553 
L 2631 2963 
z
" transform="scale(0.015625)"/>
      <path id="DejaVuSans-79" d="M 2059 -325 
Q 1816 -950 1584 -1140 
Q 1353 -1331 966 -1331 
L 506 -1331 
L 506 -850 
L 844 -850 
Q 1081 -850 1212 -737 
Q 1344 -625 1503 -206 
L 1606 56 
L 191 3500 
L 800 3500 
L 1894 763 
L 2988 3500 
L 3597 3500 
L 2059 -325 
z
" transform="scale(0.015625)"/>
     </defs>
     <use xlink:href="#DejaVuSans-53"/>
     <use xlink:href="#DejaVuSans-75" x="63.476562"/>
     <use xlink:href="#DejaVuSans-6d" x="126.855469"/>
     <use xlink:href="#DejaVuSans-6d" x="224.267578"/>
     <use xlink:href="#DejaVuSans-61" x="321.679688"/>
     <use xlink:href="#DejaVuSans-72" x="382.958984"/>
     <use xlink:href="#DejaVuSans-79" x="424.072266"/>
    </g>
    <!-- $Q_I$: 85.$\pm$1.2e+05  -->
    <g transform="translate(422.365063 66.60425) scale(0.1 -0.1)">
     <defs>
      <path id="DejaVuSans-Oblique-51" d="M 2309 -84 
Q 2275 -88 2237 -89 
Q 2200 -91 2125 -91 
Q 1250 -91 756 411 
Q 263 913 263 1797 
Q 263 2319 452 2844 
Q 641 3369 978 3788 
Q 1369 4269 1858 4509 
Q 2347 4750 2938 4750 
Q 3794 4750 4287 4245 
Q 4781 3741 4781 2869 
Q 4781 1928 4265 1147 
Q 3750 366 2919 44 
L 3553 -825 
L 2847 -825 
L 2309 -84 
z
M 2919 4238 
Q 2400 4238 2003 3986 
Q 1606 3734 1313 3219 
Q 1125 2891 1026 2522 
Q 928 2153 928 1778 
Q 928 1128 1239 775 
Q 1550 422 2119 422 
Q 2631 422 3032 676 
Q 3434 931 3719 1434 
Q 3909 1772 4009 2142 
Q 4109 2513 4109 2881 
Q 4109 3528 3796 3883 
Q 3484 4238 2919 4238 
z
" transform="scale(0.015625)"/>
      <path id="DejaVuSans-Oblique-49" d="M 1081 4666 
L 1716 4666 
L 806 0 
L 172 0 
L 1081 4666 
z
" transform="scale(0.015625)"/>
      <path id="DejaVuSans-3a" d="M 750 794 
L 1409 794 
L 1409 0 
L 750 0 
L 750 794 
z
M 750 3309 
L 1409 3309 
L 1409 2516 
L 750 2516 
L 750 3309 
z
" transform="scale(0.015625)"/>
      <path id="DejaVuSans-38" d="M 2034 2216 
Q 1584 2216 1326 1975 
Q 1069 1734 1069 1313 
Q 1069 891 1326 650 
Q 1584 409 2034 409 
Q 2484 409 2743 651 
Q 3003 894 3003 1313 
Q 3003 1734 2745 1975 
Q 2488 2216 2034 2216 
z
M 1403 2484 
Q 997 2584 770 2862 
Q 544 3141 544 3541 
Q 544 4100 942 4425 
Q 1341 4750 2034 4750 
Q 2731 4750 3128 4425 
Q 3525 4100 3525 3541 
Q 3525 3141 3298 2862 
Q 3072 2584 2669 2484 
Q 3125 2378 3379 2068 
Q 3634 1759 3634 1313 
Q 3634 634 3220 271 
Q 2806 -91 2034 -91 
Q 1263 -91 848 271 
Q 434 634 434 1313 
Q 434 1759 690 2068 
Q 947 2378 1403 2484 
z
M 1172 3481 
Q 1172 3119 1398 2916 
Q 1625 2713 2034 2713 
Q 2441 2713 2670 2916 
Q 2900 3119 2900 3481 
Q 2900 3844 2670 4047 
Q 2441 4250 2034 4250 
Q 1625 4250 1398 4047 
Q 1172 3844 1172 3481 
z
" transform="scale(0.015625)"/>
      <path id="DejaVuSans-b1" d="M 2944 4013 
L 2944 2803 
L 4684 2803 
L 4684 2272 
L 2944 2272 
L 2944 1063 
L 2419 1063 
L 2419 2272 
L 678 2272 
L 678 2803 
L 2419 2803 
L 2419 4013 
L 2944 4013 
z
M 678 531 
L 4684 531 
L 4684 0 
L 678 0 
L 678 531 
z
" transform="scale(0.015625)"/>
      <path id="DejaVuSans-2b" d="M 2944 4013 
L 2944 2272 
L 4684 2272 
L 4684 1741 
L 2944 1741 
L 2944 0 
L 2419 0 
L 2419 1741 
L 678 1741 
L 678 2272 
L 2419 2272 
L 2419 4013 
L 2944 4013 
z
" transform="scale(0.015625)"/>
     </defs>
     <use xlink:href="#DejaVuSans-Oblique-51" transform="translate(0 0.78125)"/>
     <use xlink:href="#DejaVuSans-Oblique-49" transform="translate(78.710938 -15.625) scale(0.7)"/>
     <use xlink:href="#DejaVuSans-3a" transform="translate(102.089844 0.78125)"/>
     <use xlink:href="#DejaVuSans-20" transform="translate(135.78125 0.78125)"/>
     <use xlink:href="#DejaVuSans-38" transform="translate(167.568359 0.78125)"/>
     <use xlink:href="#DejaVuSans-35" transform="translate(231.191406 0.78125)"/>
     <use xlink:href="#DejaVuSans-2e" transform="translate(294.814453 0.78125)"/>
     <use xlink:href="#DejaVuSans-b1" transform="translate(326.601562 0.78125)"/>
     <use xlink:href="#DejaVuSans-31" transform="translate(410.390625 0.78125)"/>
     <use xlink:href="#DejaVuSans-2e" transform="translate(474.013672 0.78125)"/>
     <use xlink:href="#DejaVuSans-32" transform="translate(500.300781 0.78125)"/>
     <use xlink:href="#DejaVuSans-65" transform="translate(563.923828 0.78125)"/>
     <use xlink:href="#DejaVuSans-2b" transform="translate(625.447266 0.78125)"/>
     <use xlink:href="#DejaVuSans-30" transform="translate(709.236328 0.78125)"/>
     <use xlink:href="#DejaVuSans-35" transform="translate(772.859375 0.78125)"/>
     <use xlink:href="#DejaVuSans-20" transform="translate(836.482422 0.78125)"/>
    </g>
    <!-- $Q_C$: 1.6e+02$\pm$2.1e+07 k -->
    <g transform="translate(422.365063 77.802062) scale(0.1 -0.1)">
     <defs>
      <path id="DejaVuSans-Oblique-43" d="M 4447 4306 
L 4319 3641 
Q 4019 3944 3683 4091 
Q 3347 4238 2956 4238 
Q 2422 4238 2017 3981 
Q 1613 3725 1319 3200 
Q 1131 2863 1032 2486 
Q 934 2109 934 1728 
Q 934 1091 1264 756 
Q 1594 422 2222 422 
Q 2656 422 3056 561 
Q 3456 700 3834 978 
L 3688 231 
Q 3316 72 2936 -9 
Q 2556 -91 2175 -91 
Q 1278 -91 773 396 
Q 269 884 269 1753 
Q 269 2309 461 2846 
Q 653 3384 1013 3828 
Q 1394 4300 1883 4525 
Q 2372 4750 3022 4750 
Q 3422 4750 3780 4639 
Q 4138 4528 4447 4306 
z
" transform="scale(0.015625)"/>
      <path id="DejaVuSans-36" d="M 2113 2584 
Q 1688 2584 1439 2293 
Q 1191 2003 1191 1497 
Q 1191 994 1439 701 
Q 1688 409 2113 409 
Q 2538 409 2786 701 
Q 3034 994 3034 1497 
Q 3034 2003 2786 2293 
Q 2538 2584 2113 2584 
z
M 3366 4563 
L 3366 3988 
Q 3128 4100 2886 4159 
Q 2644 4219 2406 4219 
Q 1781 4219 1451 3797 
Q 1122 3375 1075 2522 
Q 1259 2794 1537 2939 
Q 1816 3084 2150 3084 
Q 2853 3084 3261 2657 
Q 3669 2231 3669 1497 
Q 3669 778 3244 343 
Q 2819 -91 2113 -91 
Q 1303 -91 875 529 
Q 447 1150 447 2328 
Q 447 3434 972 4092 
Q 1497 4750 2381 4750 
Q 2619 4750 2861 4703 
Q 3103 4656 3366 4563 
z
" transform="scale(0.015625)"/>
      <path id="DejaVuSans-6b" d="M 581 4863 
L 1159 4863 
L 1159 1991 
L 2875 3500 
L 3609 3500 
L 1753 1863 
L 3688 0 
L 2938 0 
L 1159 1709 
L 1159 0 
L 581 0 
L 581 4863 
z
" transform="scale(0.015625)"/>
     </defs>
     <use xlink:href="#DejaVuSans-Oblique-51" transform="translate(0 0.015625)"/>
     <use xlink:href="#DejaVuSans-Oblique-43" transform="translate(78.710938 -16.390625) scale(0.7)"/>
     <use xlink:href="#DejaVuSans-3a" transform="translate(130.322266 0.015625)"/>
     <use xlink:href="#DejaVuSans-20" transform="translate(164.013672 0.015625)"/>
     <use xlink:href="#DejaVuSans-31" transform="translate(195.800781 0.015625)"/>
     <use xlink:href="#DejaVuSans-2e" transform="translate(259.423828 0.015625)"/>
     <use xlink:href="#DejaVuSans-36" transform="translate(291.210938 0.015625)"/>
     <use xlink:href="#DejaVuSans-65" transform="translate(354.833984 0.015625)"/>
     <use xlink:href="#DejaVuSans-2b" transform="translate(416.357422 0.015625)"/>
     <use xlink:href="#DejaVuSans-30" transform="translate(500.146484 0.015625)"/>
     <use xlink:href="#DejaVuSans-32" transform="translate(563.769531 0.015625)"/>
     <use xlink:href="#DejaVuSans-b1" transform="translate(627.392578 0.015625)"/>
     <use xlink:href="#DejaVuSans-32" transform="translate(711.181641 0.015625)"/>
     <use xlink:href="#DejaVuSans-2e" transform="translate(774.804688 0.015625)"/>
     <use xlink:href="#DejaVuSans-31" transform="translate(806.591797 0.015625)"/>
     <use xlink:href="#DejaVuSans-65" transform="translate(870.214844 0.015625)"/>
     <use xlink:href="#DejaVuSans-2b" transform="translate(931.738281 0.015625)"/>
     <use xlink:href="#DejaVuSans-30" transform="translate(1015.527344 0.015625)"/>
     <use xlink:href="#DejaVuSans-37" transform="translate(1079.150391 0.015625)"/>
     <use xlink:href="#DejaVuSans-20" transform="translate(1142.773438 0.015625)"/>
     <use xlink:href="#DejaVuSans-6b" transform="translate(1174.560547 0.015625)"/>
    </g>
    <!-- $f_{res}$: 6$\pm$50 GHz -->
    <g transform="translate(422.365063 88.999875) scale(0.1 -0.1)">
     <defs>
      <path id="DejaVuSans-Oblique-66" d="M 3059 4863 
L 2969 4384 
L 2419 4384 
Q 2106 4384 1964 4261 
Q 1822 4138 1753 3809 
L 1691 3500 
L 2638 3500 
L 2553 3053 
L 1606 3053 
L 1013 0 
L 434 0 
L 1031 3053 
L 481 3053 
L 563 3500 
L 1113 3500 
L 1159 3744 
Q 1278 4363 1576 4613 
Q 1875 4863 2516 4863 
L 3059 4863 
z
" transform="scale(0.015625)"/>
      <path id="DejaVuSans-Oblique-72" d="M 2853 2969 
Q 2766 3016 2653 3041 
Q 2541 3066 2413 3066 
Q 1953 3066 1609 2717 
Q 1266 2369 1153 1784 
L 800 0 
L 225 0 
L 909 3500 
L 1484 3500 
L 1375 2956 
Q 1603 3259 1920 3421 
Q 2238 3584 2597 3584 
Q 2691 3584 2781 3573 
Q 2872 3563 2963 3538 
L 2853 2969 
z
" transform="scale(0.015625)"/>
      <path id="DejaVuSans-Oblique-65" d="M 3078 2063 
Q 3088 2113 3092 2166 
Q 3097 2219 3097 2272 
Q 3097 2653 2873 2875 
Q 2650 3097 2266 3097 
Q 1838 3097 1509 2826 
Q 1181 2556 1013 2059 
L 3078 2063 
z
M 3578 1613 
L 903 1613 
Q 884 1494 878 1425 
Q 872 1356 872 1306 
Q 872 872 1139 634 
Q 1406 397 1894 397 
Q 2269 397 2603 481 
Q 2938 566 3225 728 
L 3116 159 
Q 2806 34 2476 -28 
Q 2147 -91 1806 -91 
Q 1078 -91 686 257 
Q 294 606 294 1247 
Q 294 1794 489 2264 
Q 684 2734 1063 3103 
Q 1306 3334 1642 3459 
Q 1978 3584 2356 3584 
Q 2950 3584 3301 3228 
Q 3653 2872 3653 2272 
Q 3653 2128 3634 1964 
Q 3616 1800 3578 1613 
z
" transform="scale(0.015625)"/>
      <path id="DejaVuSans-Oblique-73" d="M 3200 3397 
L 3091 2853 
Q 2863 2978 2609 3040 
Q 2356 3103 2088 3103 
Q 1634 3103 1373 2948 
Q 1113 2794 1113 2528 
Q 1113 2219 1719 2053 
Q 1766 2041 1788 2034 
L 1972 1978 
Q 2547 1819 2739 1644 
Q 2931 1469 2931 1166 
Q 2931 609 2489 259 
Q 2047 -91 1331 -91 
Q 1053 -91 747 -37 
Q 441 16 72 128 
L 184 722 
Q 500 559 806 475 
Q 1113 391 1394 391 
Q 1816 391 2080 572 
Q 2344 753 2344 1031 
Q 2344 1331 1650 1516 
L 1591 1531 
L 1394 1581 
Q 956 1697 753 1886 
Q 550 2075 550 2369 
Q 550 2928 970 3256 
Q 1391 3584 2113 3584 
Q 2397 3584 2667 3537 
Q 2938 3491 3200 3397 
z
" transform="scale(0.015625)"/>
      <path id="DejaVuSans-47" d="M 3809 666 
L 3809 1919 
L 2778 1919 
L 2778 2438 
L 4434 2438 
L 4434 434 
Q 4069 175 3628 42 
Q 3188 -91 2688 -91 
Q 1594 -91 976 548 
Q 359 1188 359 2328 
Q 359 3472 976 4111 
Q 1594 4750 2688 4750 
Q 3144 4750 3555 4637 
Q 3966 4525 4313 4306 
L 4313 3634 
Q 3963 3931 3569 4081 
Q 3175 4231 2741 4231 
Q 1884 4231 1454 3753 
Q 1025 3275 1025 2328 
Q 1025 1384 1454 906 
Q 1884 428 2741 428 
Q 3075 428 3337 486 
Q 3600 544 3809 666 
z
" transform="scale(0.015625)"/>
      <path id="DejaVuSans-48" d="M 628 4666 
L 1259 4666 
L 1259 2753 
L 3553 2753 
L 3553 4666 
L 4184 4666 
L 4184 0 
L 3553 0 
L 3553 2222 
L 1259 2222 
L 1259 0 
L 628 0 
L 628 4666 
z
" transform="scale(0.015625)"/>
      <path id="DejaVuSans-7a" d="M 353 3500 
L 3084 3500 
L 3084 2975 
L 922 459 
L 3084 459 
L 3084 0 
L 275 0 
L 275 525 
L 2438 3041 
L 353 3041 
L 353 3500 
z
" transform="scale(0.015625)"/>
     </defs>
     <use xlink:href="#DejaVuSans-Oblique-66" transform="translate(0 0.015625)"/>
     <use xlink:href="#DejaVuSans-Oblique-72" transform="translate(35.205078 -16.390625) scale(0.7)"/>
     <use xlink:href="#DejaVuSans-Oblique-65" transform="translate(63.984375 -16.390625) scale(0.7)"/>
     <use xlink:href="#DejaVuSans-Oblique-73" transform="translate(107.050781 -16.390625) scale(0.7)"/>
     <use xlink:href="#DejaVuSans-3a" transform="translate(146.254883 0.015625)"/>
     <use xlink:href="#DejaVuSans-20" transform="translate(179.946289 0.015625)"/>
     <use xlink:href="#DejaVuSans-36" transform="translate(211.733398 0.015625)"/>
     <use xlink:href="#DejaVuSans-b1" transform="translate(275.356445 0.015625)"/>
     <use xlink:href="#DejaVuSans-35" transform="translate(359.145508 0.015625)"/>
     <use xlink:href="#DejaVuSans-30" transform="translate(422.768555 0.015625)"/>
     <use xlink:href="#DejaVuSans-20" transform="translate(486.391602 0.015625)"/>
     <use xlink:href="#DejaVuSans-47" transform="translate(518.178711 0.015625)"/>
     <use xlink:href="#DejaVuSans-48" transform="translate(595.668945 0.015625)"/>
     <use xlink:href="#DejaVuSans-7a" transform="translate(670.864258 0.015625)"/>
    </g>
   </g>
  </g>
  <g id="axes_2">
   <g id="patch_8">
    <path d="M 47.389063 307.872 
L 404.509063 307.872 
L 404.509063 186.912 
L 47.389063 186.912 
z
" style="fill: #ffffff"/>
   </g>
   <g id="matplotlib.axis_3">
    <g id="xtick_7">
     <g id="line2d_14">
      <g>
       <use xlink:href="#m3cde31d90a" x="47.389063" y="307.872" style="stroke: #000000; stroke-width: 0.8"/>
      </g>
     </g>
     <g id="text_8">
      <!-- 8 -->
      <g transform="translate(44.207813 322.470438) scale(0.1 -0.1)">
       <use xlink:href="#DejaVuSans-38"/>
      </g>
     </g>
    </g>
    <g id="xtick_8">
     <g id="line2d_15">
      <g>
       <use xlink:href="#m3cde31d90a" x="112.319972" y="307.872" style="stroke: #000000; stroke-width: 0.8"/>
      </g>
     </g>
     <g id="text_9">
      <!-- 10 -->
      <g transform="translate(105.957472 322.470438) scale(0.1 -0.1)">
       <use xlink:href="#DejaVuSans-31"/>
       <use xlink:href="#DejaVuSans-30" x="63.623047"/>
      </g>
     </g>
    </g>
    <g id="xtick_9">
     <g id="line2d_16">
      <g>
       <use xlink:href="#m3cde31d90a" x="177.250881" y="307.872" style="stroke: #000000; stroke-width: 0.8"/>
      </g>
     </g>
     <g id="text_10">
      <!-- 12 -->
      <g transform="translate(170.888381 322.470438) scale(0.1 -0.1)">
       <use xlink:href="#DejaVuSans-31"/>
       <use xlink:href="#DejaVuSans-32" x="63.623047"/>
      </g>
     </g>
    </g>
    <g id="xtick_10">
     <g id="line2d_17">
      <g>
       <use xlink:href="#m3cde31d90a" x="242.18179" y="307.872" style="stroke: #000000; stroke-width: 0.8"/>
      </g>
     </g>
     <g id="text_11">
      <!-- 14 -->
      <g transform="translate(235.81929 322.470438) scale(0.1 -0.1)">
       <defs>
        <path id="DejaVuSans-34" d="M 2419 4116 
L 825 1625 
L 2419 1625 
L 2419 4116 
z
M 2253 4666 
L 3047 4666 
L 3047 1625 
L 3713 1625 
L 3713 1100 
L 3047 1100 
L 3047 0 
L 2419 0 
L 2419 1100 
L 313 1100 
L 313 1709 
L 2253 4666 
z
" transform="scale(0.015625)"/>
       </defs>
       <use xlink:href="#DejaVuSans-31"/>
       <use xlink:href="#DejaVuSans-34" x="63.623047"/>
      </g>
     </g>
    </g>
    <g id="xtick_11">
     <g id="line2d_18">
      <g>
       <use xlink:href="#m3cde31d90a" x="307.112699" y="307.872" style="stroke: #000000; stroke-width: 0.8"/>
      </g>
     </g>
     <g id="text_12">
      <!-- 16 -->
      <g transform="translate(300.750199 322.470438) scale(0.1 -0.1)">
       <use xlink:href="#DejaVuSans-31"/>
       <use xlink:href="#DejaVuSans-36" x="63.623047"/>
      </g>
     </g>
    </g>
    <g id="xtick_12">
     <g id="line2d_19">
      <g>
       <use xlink:href="#m3cde31d90a" x="372.043608" y="307.872" style="stroke: #000000; stroke-width: 0.8"/>
      </g>
     </g>
     <g id="text_13">
      <!-- 18 -->
      <g transform="translate(365.681108 322.470438) scale(0.1 -0.1)">
       <use xlink:href="#DejaVuSans-31"/>
       <use xlink:href="#DejaVuSans-38" x="63.623047"/>
      </g>
     </g>
    </g>
    <g id="text_14">
     <!-- Frequency [MHz] -->
     <g transform="translate(183.930313 336.148562) scale(0.1 -0.1)">
      <defs>
       <path id="DejaVuSans-46" d="M 628 4666 
L 3309 4666 
L 3309 4134 
L 1259 4134 
L 1259 2759 
L 3109 2759 
L 3109 2228 
L 1259 2228 
L 1259 0 
L 628 0 
L 628 4666 
z
" transform="scale(0.015625)"/>
       <path id="DejaVuSans-71" d="M 947 1747 
Q 947 1113 1208 752 
Q 1469 391 1925 391 
Q 2381 391 2643 752 
Q 2906 1113 2906 1747 
Q 2906 2381 2643 2742 
Q 2381 3103 1925 3103 
Q 1469 3103 1208 2742 
Q 947 2381 947 1747 
z
M 2906 525 
Q 2725 213 2448 61 
Q 2172 -91 1784 -91 
Q 1150 -91 751 415 
Q 353 922 353 1747 
Q 353 2572 751 3078 
Q 1150 3584 1784 3584 
Q 2172 3584 2448 3432 
Q 2725 3281 2906 2969 
L 2906 3500 
L 3481 3500 
L 3481 -1331 
L 2906 -1331 
L 2906 525 
z
" transform="scale(0.015625)"/>
       <path id="DejaVuSans-6e" d="M 3513 2113 
L 3513 0 
L 2938 0 
L 2938 2094 
Q 2938 2591 2744 2837 
Q 2550 3084 2163 3084 
Q 1697 3084 1428 2787 
Q 1159 2491 1159 1978 
L 1159 0 
L 581 0 
L 581 3500 
L 1159 3500 
L 1159 2956 
Q 1366 3272 1645 3428 
Q 1925 3584 2291 3584 
Q 2894 3584 3203 3211 
Q 3513 2838 3513 2113 
z
" transform="scale(0.015625)"/>
       <path id="DejaVuSans-63" d="M 3122 3366 
L 3122 2828 
Q 2878 2963 2633 3030 
Q 2388 3097 2138 3097 
Q 1578 3097 1268 2742 
Q 959 2388 959 1747 
Q 959 1106 1268 751 
Q 1578 397 2138 397 
Q 2388 397 2633 464 
Q 2878 531 3122 666 
L 3122 134 
Q 2881 22 2623 -34 
Q 2366 -91 2075 -91 
Q 1284 -91 818 406 
Q 353 903 353 1747 
Q 353 2603 823 3093 
Q 1294 3584 2113 3584 
Q 2378 3584 2631 3529 
Q 2884 3475 3122 3366 
z
" transform="scale(0.015625)"/>
       <path id="DejaVuSans-4d" d="M 628 4666 
L 1569 4666 
L 2759 1491 
L 3956 4666 
L 4897 4666 
L 4897 0 
L 4281 0 
L 4281 4097 
L 3078 897 
L 2444 897 
L 1241 4097 
L 1241 0 
L 628 0 
L 628 4666 
z
" transform="scale(0.015625)"/>
      </defs>
      <use xlink:href="#DejaVuSans-46"/>
      <use xlink:href="#DejaVuSans-72" x="50.269531"/>
      <use xlink:href="#DejaVuSans-65" x="89.132812"/>
      <use xlink:href="#DejaVuSans-71" x="150.65625"/>
      <use xlink:href="#DejaVuSans-75" x="214.132812"/>
      <use xlink:href="#DejaVuSans-65" x="277.511719"/>
      <use xlink:href="#DejaVuSans-6e" x="339.035156"/>
      <use xlink:href="#DejaVuSans-63" x="402.414062"/>
      <use xlink:href="#DejaVuSans-79" x="457.394531"/>
      <use xlink:href="#DejaVuSans-20" x="516.574219"/>
      <use xlink:href="#DejaVuSans-5b" x="548.361328"/>
      <use xlink:href="#DejaVuSans-4d" x="587.375"/>
      <use xlink:href="#DejaVuSans-48" x="673.654297"/>
      <use xlink:href="#DejaVuSans-7a" x="748.849609"/>
      <use xlink:href="#DejaVuSans-5d" x="801.339844"/>
     </g>
    </g>
    <g id="text_15">
     <!-- +6 GHz -->
     <g transform="translate(366.071563 335.148562) scale(0.1 -0.1)">
      <use xlink:href="#DejaVuSans-2b"/>
      <use xlink:href="#DejaVuSans-36" x="83.789062"/>
      <use xlink:href="#DejaVuSans-20" x="147.412109"/>
      <use xlink:href="#DejaVuSans-47" x="179.199219"/>
      <use xlink:href="#DejaVuSans-48" x="256.689453"/>
      <use xlink:href="#DejaVuSans-7a" x="331.884766"/>
     </g>
    </g>
   </g>
   <g id="matplotlib.axis_4">
    <g id="ytick_6">
     <g id="line2d_20">
      <g>
       <use xlink:href="#m598afd4dab" x="47.389063" y="283.647016" style="stroke: #000000; stroke-width: 0.8"/>
      </g>
     </g>
     <g id="text_16">
      <!-- 4 -->
      <g transform="translate(34.026563 287.446235) scale(0.1 -0.1)">
       <use xlink:href="#DejaVuSans-34"/>
      </g>
     </g>
    </g>
    <g id="ytick_7">
     <g id="line2d_21">
      <g>
       <use xlink:href="#m598afd4dab" x="47.389063" y="252.133164" style="stroke: #000000; stroke-width: 0.8"/>
      </g>
     </g>
     <g id="text_17">
      <!-- 6 -->
      <g transform="translate(34.026563 255.932383) scale(0.1 -0.1)">
       <use xlink:href="#DejaVuSans-36"/>
      </g>
     </g>
    </g>
    <g id="ytick_8">
     <g id="line2d_22">
      <g>
       <use xlink:href="#m598afd4dab" x="47.389063" y="220.619313" style="stroke: #000000; stroke-width: 0.8"/>
      </g>
     </g>
     <g id="text_18">
      <!-- 8 -->
      <g transform="translate(34.026563 224.418531) scale(0.1 -0.1)">
       <use xlink:href="#DejaVuSans-38"/>
      </g>
     </g>
    </g>
    <g id="ytick_9">
     <g id="line2d_23">
      <g>
       <use xlink:href="#m598afd4dab" x="47.389063" y="189.105461" style="stroke: #000000; stroke-width: 0.8"/>
      </g>
     </g>
     <g id="text_19">
      <!-- 10 -->
      <g transform="translate(27.664063 192.90468) scale(0.1 -0.1)">
       <use xlink:href="#DejaVuSans-31"/>
       <use xlink:href="#DejaVuSans-30" x="63.623047"/>
      </g>
     </g>
    </g>
    <g id="text_20">
     <!-- Im$(S_{21})$ [mV] -->
     <g transform="translate(21.584375 279.042) rotate(-90) scale(0.1 -0.1)">
      <defs>
       <path id="DejaVuSans-49" d="M 628 4666 
L 1259 4666 
L 1259 0 
L 628 0 
L 628 4666 
z
" transform="scale(0.015625)"/>
      </defs>
      <use xlink:href="#DejaVuSans-49" transform="translate(0 0.015625)"/>
      <use xlink:href="#DejaVuSans-6d" transform="translate(25.867188 0.015625)"/>
      <use xlink:href="#DejaVuSans-28" transform="translate(123.279297 0.015625)"/>
      <use xlink:href="#DejaVuSans-Oblique-53" transform="translate(162.292969 0.015625)"/>
      <use xlink:href="#DejaVuSans-32" transform="translate(225.769531 -16.390625) scale(0.7)"/>
      <use xlink:href="#DejaVuSans-31" transform="translate(270.305664 -16.390625) scale(0.7)"/>
      <use xlink:href="#DejaVuSans-29" transform="translate(317.576172 0.015625)"/>
      <use xlink:href="#DejaVuSans-20" transform="translate(356.589844 0.015625)"/>
      <use xlink:href="#DejaVuSans-5b" transform="translate(388.376953 0.015625)"/>
      <use xlink:href="#DejaVuSans-6d" transform="translate(427.390625 0.015625)"/>
      <use xlink:href="#DejaVuSans-56" transform="translate(524.802734 0.015625)"/>
      <use xlink:href="#DejaVuSans-5d" transform="translate(593.210938 0.015625)"/>
     </g>
    </g>
   </g>
   <g id="line2d_24">
    <path d="M 63.62179 302.373818 
L 65.25322 300.120209 
L 66.88465 295.775512 
L 68.516079 289.92098 
L 71.778939 280.603277 
L 73.410369 274.069306 
L 75.041799 268.138465 
L 76.673229 269.325841 
L 78.304659 262.479793 
L 79.936089 260.993563 
L 81.567518 254.362996 
L 83.198948 251.207882 
L 84.830378 250.052751 
L 86.461808 244.049638 
L 88.093238 240.550887 
L 91.356098 235.317155 
L 92.987528 232.177248 
L 97.881817 224.806295 
L 99.513247 221.356193 
L 101.144677 219.177968 
L 102.776107 214.03878 
L 104.407537 218.8948 
L 106.038967 216.460281 
L 107.670396 214.903046 
L 109.301826 215.848735 
L 110.933256 211.021777 
L 112.564686 211.242424 
L 114.196116 209.281716 
L 115.827546 206.844477 
L 117.458976 206.402979 
L 119.090406 203.554638 
L 120.721835 203.129236 
L 122.353265 201.573335 
L 123.984695 204.408247 
L 125.616125 203.252996 
L 127.247555 200.17886 
L 128.878985 202.125918 
L 130.510415 200.215056 
L 132.141845 199.897386 
L 133.773274 198.70428 
L 135.404704 197.295847 
L 137.036134 198.223712 
L 138.667564 197.929408 
L 140.298994 196.208197 
L 141.930424 195.320633 
L 143.561854 197.105631 
L 145.193284 198.149729 
L 146.824713 194.754656 
L 148.456143 197.281341 
L 150.087573 195.3239 
L 151.719003 195.617007 
L 153.350433 195.619692 
L 154.981863 194.454776 
L 156.613293 194.641092 
L 158.244723 195.35558 
L 159.876152 195.255016 
L 161.507582 195.559737 
L 163.139012 193.840151 
L 164.770442 193.54636 
L 166.401872 193.671454 
L 168.033302 192.410182 
L 169.664732 195.381256 
L 172.927592 193.397198 
L 174.559021 195.766049 
L 176.190451 194.040031 
L 177.821881 196.72325 
L 179.453311 194.377972 
L 181.084741 193.515416 
L 182.716171 195.547027 
L 184.347601 197.100311 
L 185.979031 195.308317 
L 187.61046 198.473746 
L 189.24189 195.137585 
L 190.87332 195.981991 
L 192.50475 199.493828 
L 194.13618 196.441964 
L 195.76761 198.74612 
L 197.39904 197.175833 
L 199.03047 195.970342 
L 200.661899 198.206572 
L 202.293329 196.851218 
L 203.924759 197.196805 
L 205.556189 200.503937 
L 207.187619 197.412525 
L 208.819049 198.714064 
L 210.450479 198.487533 
L 212.081909 199.053886 
L 213.713338 199.122429 
L 215.344768 199.986199 
L 216.976198 198.603202 
L 218.607628 200.090851 
L 220.239058 200.051885 
L 221.870488 202.090081 
L 223.501918 200.563859 
L 225.133348 200.530246 
L 226.764777 202.269965 
L 228.396207 201.165894 
L 230.027637 202.421676 
L 231.659067 201.422924 
L 233.290497 203.927714 
L 234.921927 204.340834 
L 236.553357 203.837173 
L 238.184787 202.762404 
L 239.816216 203.896906 
L 241.447646 206.573574 
L 243.079076 204.720769 
L 244.710506 203.982195 
L 246.341936 205.659291 
L 247.973366 204.187327 
L 249.604796 207.046598 
L 251.236226 205.817176 
L 254.499085 208.316304 
L 256.130515 211.53411 
L 257.761945 209.251302 
L 259.393375 210.253098 
L 261.024805 208.970375 
L 262.656235 209.016868 
L 264.287665 212.544801 
L 265.919094 211.178158 
L 267.550524 211.340935 
L 269.181954 210.056519 
L 270.813384 211.578859 
L 272.444814 213.84073 
L 274.076244 213.377011 
L 275.707674 211.422872 
L 277.339104 215.984229 
L 278.970533 213.264695 
L 280.601963 213.154722 
L 282.233393 214.254962 
L 283.864823 215.51218 
L 285.496253 214.805954 
L 287.127683 217.196939 
L 288.759113 216.188506 
L 290.390543 216.197418 
L 292.021973 215.957596 
L 293.653402 217.731116 
L 295.284832 218.36283 
L 296.916262 218.211342 
L 298.547692 219.475488 
L 300.179122 220.028499 
L 301.810552 221.566165 
L 303.441982 220.693586 
L 305.073412 220.398666 
L 306.704841 222.076993 
L 308.336271 222.27884 
L 309.967701 223.429781 
L 311.599131 222.563274 
L 313.230561 222.520373 
L 314.861991 224.253318 
L 316.493421 224.432278 
L 318.124851 225.814215 
L 319.75628 226.524683 
L 321.38771 226.039736 
L 323.01914 227.438145 
L 324.65057 228.28392 
L 326.282 228.04261 
L 327.91343 226.538847 
L 329.54486 228.132466 
L 331.17629 229.107663 
L 332.807719 229.55797 
L 334.439149 229.272664 
L 336.070579 230.288846 
L 337.702009 230.968696 
L 339.333439 230.528326 
L 340.964869 230.762127 
L 342.596299 232.36199 
L 344.227729 232.788025 
L 345.859158 234.191258 
L 347.490588 234.621808 
L 349.122018 233.671295 
L 350.753448 233.957559 
L 354.016308 235.089496 
L 355.647738 237.502581 
L 357.279168 236.450033 
L 358.910597 239.495875 
L 360.542027 238.131404 
L 362.173457 237.738657 
L 363.804887 237.643755 
L 365.436317 239.453693 
L 367.067747 240.51074 
L 368.699177 241.909183 
L 370.330607 239.220456 
L 371.962036 241.426392 
L 373.593466 243.147397 
L 375.224896 241.86712 
L 376.856326 242.947825 
L 378.487756 244.209525 
L 380.119186 244.764469 
L 381.750616 243.717531 
L 383.382046 244.029317 
L 385.013475 247.887681 
L 386.644905 245.765529 
L 388.276335 249.197739 
L 388.276335 249.197739 
" clip-path="url(#p6869eb333e)" style="fill: none; stroke: #1f77b4; stroke-width: 1.5; stroke-linecap: square"/>
    <g clip-path="url(#p6869eb333e)">
     <use xlink:href="#mecd47027c2" x="63.62179" y="302.373818" style="fill: #1f77b4; stroke: #1f77b4"/>
     <use xlink:href="#mecd47027c2" x="65.25322" y="300.120209" style="fill: #1f77b4; stroke: #1f77b4"/>
     <use xlink:href="#mecd47027c2" x="66.88465" y="295.775512" style="fill: #1f77b4; stroke: #1f77b4"/>
     <use xlink:href="#mecd47027c2" x="68.516079" y="289.92098" style="fill: #1f77b4; stroke: #1f77b4"/>
     <use xlink:href="#mecd47027c2" x="70.147509" y="285.409212" style="fill: #1f77b4; stroke: #1f77b4"/>
     <use xlink:href="#mecd47027c2" x="71.778939" y="280.603277" style="fill: #1f77b4; stroke: #1f77b4"/>
     <use xlink:href="#mecd47027c2" x="73.410369" y="274.069306" style="fill: #1f77b4; stroke: #1f77b4"/>
     <use xlink:href="#mecd47027c2" x="75.041799" y="268.138465" style="fill: #1f77b4; stroke: #1f77b4"/>
     <use xlink:href="#mecd47027c2" x="76.673229" y="269.325841" style="fill: #1f77b4; stroke: #1f77b4"/>
     <use xlink:href="#mecd47027c2" x="78.304659" y="262.479793" style="fill: #1f77b4; stroke: #1f77b4"/>
     <use xlink:href="#mecd47027c2" x="79.936089" y="260.993563" style="fill: #1f77b4; stroke: #1f77b4"/>
     <use xlink:href="#mecd47027c2" x="81.567518" y="254.362996" style="fill: #1f77b4; stroke: #1f77b4"/>
     <use xlink:href="#mecd47027c2" x="83.198948" y="251.207882" style="fill: #1f77b4; stroke: #1f77b4"/>
     <use xlink:href="#mecd47027c2" x="84.830378" y="250.052751" style="fill: #1f77b4; stroke: #1f77b4"/>
     <use xlink:href="#mecd47027c2" x="86.461808" y="244.049638" style="fill: #1f77b4; stroke: #1f77b4"/>
     <use xlink:href="#mecd47027c2" x="88.093238" y="240.550887" style="fill: #1f77b4; stroke: #1f77b4"/>
     <use xlink:href="#mecd47027c2" x="89.724668" y="237.99928" style="fill: #1f77b4; stroke: #1f77b4"/>
     <use xlink:href="#mecd47027c2" x="91.356098" y="235.317155" style="fill: #1f77b4; stroke: #1f77b4"/>
     <use xlink:href="#mecd47027c2" x="92.987528" y="232.177248" style="fill: #1f77b4; stroke: #1f77b4"/>
     <use xlink:href="#mecd47027c2" x="94.618957" y="229.670355" style="fill: #1f77b4; stroke: #1f77b4"/>
     <use xlink:href="#mecd47027c2" x="96.250387" y="227.327403" style="fill: #1f77b4; stroke: #1f77b4"/>
     <use xlink:href="#mecd47027c2" x="97.881817" y="224.806295" style="fill: #1f77b4; stroke: #1f77b4"/>
     <use xlink:href="#mecd47027c2" x="99.513247" y="221.356193" style="fill: #1f77b4; stroke: #1f77b4"/>
     <use xlink:href="#mecd47027c2" x="101.144677" y="219.177968" style="fill: #1f77b4; stroke: #1f77b4"/>
     <use xlink:href="#mecd47027c2" x="102.776107" y="214.03878" style="fill: #1f77b4; stroke: #1f77b4"/>
     <use xlink:href="#mecd47027c2" x="104.407537" y="218.8948" style="fill: #1f77b4; stroke: #1f77b4"/>
     <use xlink:href="#mecd47027c2" x="106.038967" y="216.460281" style="fill: #1f77b4; stroke: #1f77b4"/>
     <use xlink:href="#mecd47027c2" x="107.670396" y="214.903046" style="fill: #1f77b4; stroke: #1f77b4"/>
     <use xlink:href="#mecd47027c2" x="109.301826" y="215.848735" style="fill: #1f77b4; stroke: #1f77b4"/>
     <use xlink:href="#mecd47027c2" x="110.933256" y="211.021777" style="fill: #1f77b4; stroke: #1f77b4"/>
     <use xlink:href="#mecd47027c2" x="112.564686" y="211.242424" style="fill: #1f77b4; stroke: #1f77b4"/>
     <use xlink:href="#mecd47027c2" x="114.196116" y="209.281716" style="fill: #1f77b4; stroke: #1f77b4"/>
     <use xlink:href="#mecd47027c2" x="115.827546" y="206.844477" style="fill: #1f77b4; stroke: #1f77b4"/>
     <use xlink:href="#mecd47027c2" x="117.458976" y="206.402979" style="fill: #1f77b4; stroke: #1f77b4"/>
     <use xlink:href="#mecd47027c2" x="119.090406" y="203.554638" style="fill: #1f77b4; stroke: #1f77b4"/>
     <use xlink:href="#mecd47027c2" x="120.721835" y="203.129236" style="fill: #1f77b4; stroke: #1f77b4"/>
     <use xlink:href="#mecd47027c2" x="122.353265" y="201.573335" style="fill: #1f77b4; stroke: #1f77b4"/>
     <use xlink:href="#mecd47027c2" x="123.984695" y="204.408247" style="fill: #1f77b4; stroke: #1f77b4"/>
     <use xlink:href="#mecd47027c2" x="125.616125" y="203.252996" style="fill: #1f77b4; stroke: #1f77b4"/>
     <use xlink:href="#mecd47027c2" x="127.247555" y="200.17886" style="fill: #1f77b4; stroke: #1f77b4"/>
     <use xlink:href="#mecd47027c2" x="128.878985" y="202.125918" style="fill: #1f77b4; stroke: #1f77b4"/>
     <use xlink:href="#mecd47027c2" x="130.510415" y="200.215056" style="fill: #1f77b4; stroke: #1f77b4"/>
     <use xlink:href="#mecd47027c2" x="132.141845" y="199.897386" style="fill: #1f77b4; stroke: #1f77b4"/>
     <use xlink:href="#mecd47027c2" x="133.773274" y="198.70428" style="fill: #1f77b4; stroke: #1f77b4"/>
     <use xlink:href="#mecd47027c2" x="135.404704" y="197.295847" style="fill: #1f77b4; stroke: #1f77b4"/>
     <use xlink:href="#mecd47027c2" x="137.036134" y="198.223712" style="fill: #1f77b4; stroke: #1f77b4"/>
     <use xlink:href="#mecd47027c2" x="138.667564" y="197.929408" style="fill: #1f77b4; stroke: #1f77b4"/>
     <use xlink:href="#mecd47027c2" x="140.298994" y="196.208197" style="fill: #1f77b4; stroke: #1f77b4"/>
     <use xlink:href="#mecd47027c2" x="141.930424" y="195.320633" style="fill: #1f77b4; stroke: #1f77b4"/>
     <use xlink:href="#mecd47027c2" x="143.561854" y="197.105631" style="fill: #1f77b4; stroke: #1f77b4"/>
     <use xlink:href="#mecd47027c2" x="145.193284" y="198.149729" style="fill: #1f77b4; stroke: #1f77b4"/>
     <use xlink:href="#mecd47027c2" x="146.824713" y="194.754656" style="fill: #1f77b4; stroke: #1f77b4"/>
     <use xlink:href="#mecd47027c2" x="148.456143" y="197.281341" style="fill: #1f77b4; stroke: #1f77b4"/>
     <use xlink:href="#mecd47027c2" x="150.087573" y="195.3239" style="fill: #1f77b4; stroke: #1f77b4"/>
     <use xlink:href="#mecd47027c2" x="151.719003" y="195.617007" style="fill: #1f77b4; stroke: #1f77b4"/>
     <use xlink:href="#mecd47027c2" x="153.350433" y="195.619692" style="fill: #1f77b4; stroke: #1f77b4"/>
     <use xlink:href="#mecd47027c2" x="154.981863" y="194.454776" style="fill: #1f77b4; stroke: #1f77b4"/>
     <use xlink:href="#mecd47027c2" x="156.613293" y="194.641092" style="fill: #1f77b4; stroke: #1f77b4"/>
     <use xlink:href="#mecd47027c2" x="158.244723" y="195.35558" style="fill: #1f77b4; stroke: #1f77b4"/>
     <use xlink:href="#mecd47027c2" x="159.876152" y="195.255016" style="fill: #1f77b4; stroke: #1f77b4"/>
     <use xlink:href="#mecd47027c2" x="161.507582" y="195.559737" style="fill: #1f77b4; stroke: #1f77b4"/>
     <use xlink:href="#mecd47027c2" x="163.139012" y="193.840151" style="fill: #1f77b4; stroke: #1f77b4"/>
     <use xlink:href="#mecd47027c2" x="164.770442" y="193.54636" style="fill: #1f77b4; stroke: #1f77b4"/>
     <use xlink:href="#mecd47027c2" x="166.401872" y="193.671454" style="fill: #1f77b4; stroke: #1f77b4"/>
     <use xlink:href="#mecd47027c2" x="168.033302" y="192.410182" style="fill: #1f77b4; stroke: #1f77b4"/>
     <use xlink:href="#mecd47027c2" x="169.664732" y="195.381256" style="fill: #1f77b4; stroke: #1f77b4"/>
     <use xlink:href="#mecd47027c2" x="171.296162" y="194.41959" style="fill: #1f77b4; stroke: #1f77b4"/>
     <use xlink:href="#mecd47027c2" x="172.927592" y="193.397198" style="fill: #1f77b4; stroke: #1f77b4"/>
     <use xlink:href="#mecd47027c2" x="174.559021" y="195.766049" style="fill: #1f77b4; stroke: #1f77b4"/>
     <use xlink:href="#mecd47027c2" x="176.190451" y="194.040031" style="fill: #1f77b4; stroke: #1f77b4"/>
     <use xlink:href="#mecd47027c2" x="177.821881" y="196.72325" style="fill: #1f77b4; stroke: #1f77b4"/>
     <use xlink:href="#mecd47027c2" x="179.453311" y="194.377972" style="fill: #1f77b4; stroke: #1f77b4"/>
     <use xlink:href="#mecd47027c2" x="181.084741" y="193.515416" style="fill: #1f77b4; stroke: #1f77b4"/>
     <use xlink:href="#mecd47027c2" x="182.716171" y="195.547027" style="fill: #1f77b4; stroke: #1f77b4"/>
     <use xlink:href="#mecd47027c2" x="184.347601" y="197.100311" style="fill: #1f77b4; stroke: #1f77b4"/>
     <use xlink:href="#mecd47027c2" x="185.979031" y="195.308317" style="fill: #1f77b4; stroke: #1f77b4"/>
     <use xlink:href="#mecd47027c2" x="187.61046" y="198.473746" style="fill: #1f77b4; stroke: #1f77b4"/>
     <use xlink:href="#mecd47027c2" x="189.24189" y="195.137585" style="fill: #1f77b4; stroke: #1f77b4"/>
     <use xlink:href="#mecd47027c2" x="190.87332" y="195.981991" style="fill: #1f77b4; stroke: #1f77b4"/>
     <use xlink:href="#mecd47027c2" x="192.50475" y="199.493828" style="fill: #1f77b4; stroke: #1f77b4"/>
     <use xlink:href="#mecd47027c2" x="194.13618" y="196.441964" style="fill: #1f77b4; stroke: #1f77b4"/>
     <use xlink:href="#mecd47027c2" x="195.76761" y="198.74612" style="fill: #1f77b4; stroke: #1f77b4"/>
     <use xlink:href="#mecd47027c2" x="197.39904" y="197.175833" style="fill: #1f77b4; stroke: #1f77b4"/>
     <use xlink:href="#mecd47027c2" x="199.03047" y="195.970342" style="fill: #1f77b4; stroke: #1f77b4"/>
     <use xlink:href="#mecd47027c2" x="200.661899" y="198.206572" style="fill: #1f77b4; stroke: #1f77b4"/>
     <use xlink:href="#mecd47027c2" x="202.293329" y="196.851218" style="fill: #1f77b4; stroke: #1f77b4"/>
     <use xlink:href="#mecd47027c2" x="203.924759" y="197.196805" style="fill: #1f77b4; stroke: #1f77b4"/>
     <use xlink:href="#mecd47027c2" x="205.556189" y="200.503937" style="fill: #1f77b4; stroke: #1f77b4"/>
     <use xlink:href="#mecd47027c2" x="207.187619" y="197.412525" style="fill: #1f77b4; stroke: #1f77b4"/>
     <use xlink:href="#mecd47027c2" x="208.819049" y="198.714064" style="fill: #1f77b4; stroke: #1f77b4"/>
     <use xlink:href="#mecd47027c2" x="210.450479" y="198.487533" style="fill: #1f77b4; stroke: #1f77b4"/>
     <use xlink:href="#mecd47027c2" x="212.081909" y="199.053886" style="fill: #1f77b4; stroke: #1f77b4"/>
     <use xlink:href="#mecd47027c2" x="213.713338" y="199.122429" style="fill: #1f77b4; stroke: #1f77b4"/>
     <use xlink:href="#mecd47027c2" x="215.344768" y="199.986199" style="fill: #1f77b4; stroke: #1f77b4"/>
     <use xlink:href="#mecd47027c2" x="216.976198" y="198.603202" style="fill: #1f77b4; stroke: #1f77b4"/>
     <use xlink:href="#mecd47027c2" x="218.607628" y="200.090851" style="fill: #1f77b4; stroke: #1f77b4"/>
     <use xlink:href="#mecd47027c2" x="220.239058" y="200.051885" style="fill: #1f77b4; stroke: #1f77b4"/>
     <use xlink:href="#mecd47027c2" x="221.870488" y="202.090081" style="fill: #1f77b4; stroke: #1f77b4"/>
     <use xlink:href="#mecd47027c2" x="223.501918" y="200.563859" style="fill: #1f77b4; stroke: #1f77b4"/>
     <use xlink:href="#mecd47027c2" x="225.133348" y="200.530246" style="fill: #1f77b4; stroke: #1f77b4"/>
     <use xlink:href="#mecd47027c2" x="226.764777" y="202.269965" style="fill: #1f77b4; stroke: #1f77b4"/>
     <use xlink:href="#mecd47027c2" x="228.396207" y="201.165894" style="fill: #1f77b4; stroke: #1f77b4"/>
     <use xlink:href="#mecd47027c2" x="230.027637" y="202.421676" style="fill: #1f77b4; stroke: #1f77b4"/>
     <use xlink:href="#mecd47027c2" x="231.659067" y="201.422924" style="fill: #1f77b4; stroke: #1f77b4"/>
     <use xlink:href="#mecd47027c2" x="233.290497" y="203.927714" style="fill: #1f77b4; stroke: #1f77b4"/>
     <use xlink:href="#mecd47027c2" x="234.921927" y="204.340834" style="fill: #1f77b4; stroke: #1f77b4"/>
     <use xlink:href="#mecd47027c2" x="236.553357" y="203.837173" style="fill: #1f77b4; stroke: #1f77b4"/>
     <use xlink:href="#mecd47027c2" x="238.184787" y="202.762404" style="fill: #1f77b4; stroke: #1f77b4"/>
     <use xlink:href="#mecd47027c2" x="239.816216" y="203.896906" style="fill: #1f77b4; stroke: #1f77b4"/>
     <use xlink:href="#mecd47027c2" x="241.447646" y="206.573574" style="fill: #1f77b4; stroke: #1f77b4"/>
     <use xlink:href="#mecd47027c2" x="243.079076" y="204.720769" style="fill: #1f77b4; stroke: #1f77b4"/>
     <use xlink:href="#mecd47027c2" x="244.710506" y="203.982195" style="fill: #1f77b4; stroke: #1f77b4"/>
     <use xlink:href="#mecd47027c2" x="246.341936" y="205.659291" style="fill: #1f77b4; stroke: #1f77b4"/>
     <use xlink:href="#mecd47027c2" x="247.973366" y="204.187327" style="fill: #1f77b4; stroke: #1f77b4"/>
     <use xlink:href="#mecd47027c2" x="249.604796" y="207.046598" style="fill: #1f77b4; stroke: #1f77b4"/>
     <use xlink:href="#mecd47027c2" x="251.236226" y="205.817176" style="fill: #1f77b4; stroke: #1f77b4"/>
     <use xlink:href="#mecd47027c2" x="252.867655" y="207.006742" style="fill: #1f77b4; stroke: #1f77b4"/>
     <use xlink:href="#mecd47027c2" x="254.499085" y="208.316304" style="fill: #1f77b4; stroke: #1f77b4"/>
     <use xlink:href="#mecd47027c2" x="256.130515" y="211.53411" style="fill: #1f77b4; stroke: #1f77b4"/>
     <use xlink:href="#mecd47027c2" x="257.761945" y="209.251302" style="fill: #1f77b4; stroke: #1f77b4"/>
     <use xlink:href="#mecd47027c2" x="259.393375" y="210.253098" style="fill: #1f77b4; stroke: #1f77b4"/>
     <use xlink:href="#mecd47027c2" x="261.024805" y="208.970375" style="fill: #1f77b4; stroke: #1f77b4"/>
     <use xlink:href="#mecd47027c2" x="262.656235" y="209.016868" style="fill: #1f77b4; stroke: #1f77b4"/>
     <use xlink:href="#mecd47027c2" x="264.287665" y="212.544801" style="fill: #1f77b4; stroke: #1f77b4"/>
     <use xlink:href="#mecd47027c2" x="265.919094" y="211.178158" style="fill: #1f77b4; stroke: #1f77b4"/>
     <use xlink:href="#mecd47027c2" x="267.550524" y="211.340935" style="fill: #1f77b4; stroke: #1f77b4"/>
     <use xlink:href="#mecd47027c2" x="269.181954" y="210.056519" style="fill: #1f77b4; stroke: #1f77b4"/>
     <use xlink:href="#mecd47027c2" x="270.813384" y="211.578859" style="fill: #1f77b4; stroke: #1f77b4"/>
     <use xlink:href="#mecd47027c2" x="272.444814" y="213.84073" style="fill: #1f77b4; stroke: #1f77b4"/>
     <use xlink:href="#mecd47027c2" x="274.076244" y="213.377011" style="fill: #1f77b4; stroke: #1f77b4"/>
     <use xlink:href="#mecd47027c2" x="275.707674" y="211.422872" style="fill: #1f77b4; stroke: #1f77b4"/>
     <use xlink:href="#mecd47027c2" x="277.339104" y="215.984229" style="fill: #1f77b4; stroke: #1f77b4"/>
     <use xlink:href="#mecd47027c2" x="278.970533" y="213.264695" style="fill: #1f77b4; stroke: #1f77b4"/>
     <use xlink:href="#mecd47027c2" x="280.601963" y="213.154722" style="fill: #1f77b4; stroke: #1f77b4"/>
     <use xlink:href="#mecd47027c2" x="282.233393" y="214.254962" style="fill: #1f77b4; stroke: #1f77b4"/>
     <use xlink:href="#mecd47027c2" x="283.864823" y="215.51218" style="fill: #1f77b4; stroke: #1f77b4"/>
     <use xlink:href="#mecd47027c2" x="285.496253" y="214.805954" style="fill: #1f77b4; stroke: #1f77b4"/>
     <use xlink:href="#mecd47027c2" x="287.127683" y="217.196939" style="fill: #1f77b4; stroke: #1f77b4"/>
     <use xlink:href="#mecd47027c2" x="288.759113" y="216.188506" style="fill: #1f77b4; stroke: #1f77b4"/>
     <use xlink:href="#mecd47027c2" x="290.390543" y="216.197418" style="fill: #1f77b4; stroke: #1f77b4"/>
     <use xlink:href="#mecd47027c2" x="292.021973" y="215.957596" style="fill: #1f77b4; stroke: #1f77b4"/>
     <use xlink:href="#mecd47027c2" x="293.653402" y="217.731116" style="fill: #1f77b4; stroke: #1f77b4"/>
     <use xlink:href="#mecd47027c2" x="295.284832" y="218.36283" style="fill: #1f77b4; stroke: #1f77b4"/>
     <use xlink:href="#mecd47027c2" x="296.916262" y="218.211342" style="fill: #1f77b4; stroke: #1f77b4"/>
     <use xlink:href="#mecd47027c2" x="298.547692" y="219.475488" style="fill: #1f77b4; stroke: #1f77b4"/>
     <use xlink:href="#mecd47027c2" x="300.179122" y="220.028499" style="fill: #1f77b4; stroke: #1f77b4"/>
     <use xlink:href="#mecd47027c2" x="301.810552" y="221.566165" style="fill: #1f77b4; stroke: #1f77b4"/>
     <use xlink:href="#mecd47027c2" x="303.441982" y="220.693586" style="fill: #1f77b4; stroke: #1f77b4"/>
     <use xlink:href="#mecd47027c2" x="305.073412" y="220.398666" style="fill: #1f77b4; stroke: #1f77b4"/>
     <use xlink:href="#mecd47027c2" x="306.704841" y="222.076993" style="fill: #1f77b4; stroke: #1f77b4"/>
     <use xlink:href="#mecd47027c2" x="308.336271" y="222.27884" style="fill: #1f77b4; stroke: #1f77b4"/>
     <use xlink:href="#mecd47027c2" x="309.967701" y="223.429781" style="fill: #1f77b4; stroke: #1f77b4"/>
     <use xlink:href="#mecd47027c2" x="311.599131" y="222.563274" style="fill: #1f77b4; stroke: #1f77b4"/>
     <use xlink:href="#mecd47027c2" x="313.230561" y="222.520373" style="fill: #1f77b4; stroke: #1f77b4"/>
     <use xlink:href="#mecd47027c2" x="314.861991" y="224.253318" style="fill: #1f77b4; stroke: #1f77b4"/>
     <use xlink:href="#mecd47027c2" x="316.493421" y="224.432278" style="fill: #1f77b4; stroke: #1f77b4"/>
     <use xlink:href="#mecd47027c2" x="318.124851" y="225.814215" style="fill: #1f77b4; stroke: #1f77b4"/>
     <use xlink:href="#mecd47027c2" x="319.75628" y="226.524683" style="fill: #1f77b4; stroke: #1f77b4"/>
     <use xlink:href="#mecd47027c2" x="321.38771" y="226.039736" style="fill: #1f77b4; stroke: #1f77b4"/>
     <use xlink:href="#mecd47027c2" x="323.01914" y="227.438145" style="fill: #1f77b4; stroke: #1f77b4"/>
     <use xlink:href="#mecd47027c2" x="324.65057" y="228.28392" style="fill: #1f77b4; stroke: #1f77b4"/>
     <use xlink:href="#mecd47027c2" x="326.282" y="228.04261" style="fill: #1f77b4; stroke: #1f77b4"/>
     <use xlink:href="#mecd47027c2" x="327.91343" y="226.538847" style="fill: #1f77b4; stroke: #1f77b4"/>
     <use xlink:href="#mecd47027c2" x="329.54486" y="228.132466" style="fill: #1f77b4; stroke: #1f77b4"/>
     <use xlink:href="#mecd47027c2" x="331.17629" y="229.107663" style="fill: #1f77b4; stroke: #1f77b4"/>
     <use xlink:href="#mecd47027c2" x="332.807719" y="229.55797" style="fill: #1f77b4; stroke: #1f77b4"/>
     <use xlink:href="#mecd47027c2" x="334.439149" y="229.272664" style="fill: #1f77b4; stroke: #1f77b4"/>
     <use xlink:href="#mecd47027c2" x="336.070579" y="230.288846" style="fill: #1f77b4; stroke: #1f77b4"/>
     <use xlink:href="#mecd47027c2" x="337.702009" y="230.968696" style="fill: #1f77b4; stroke: #1f77b4"/>
     <use xlink:href="#mecd47027c2" x="339.333439" y="230.528326" style="fill: #1f77b4; stroke: #1f77b4"/>
     <use xlink:href="#mecd47027c2" x="340.964869" y="230.762127" style="fill: #1f77b4; stroke: #1f77b4"/>
     <use xlink:href="#mecd47027c2" x="342.596299" y="232.36199" style="fill: #1f77b4; stroke: #1f77b4"/>
     <use xlink:href="#mecd47027c2" x="344.227729" y="232.788025" style="fill: #1f77b4; stroke: #1f77b4"/>
     <use xlink:href="#mecd47027c2" x="345.859158" y="234.191258" style="fill: #1f77b4; stroke: #1f77b4"/>
     <use xlink:href="#mecd47027c2" x="347.490588" y="234.621808" style="fill: #1f77b4; stroke: #1f77b4"/>
     <use xlink:href="#mecd47027c2" x="349.122018" y="233.671295" style="fill: #1f77b4; stroke: #1f77b4"/>
     <use xlink:href="#mecd47027c2" x="350.753448" y="233.957559" style="fill: #1f77b4; stroke: #1f77b4"/>
     <use xlink:href="#mecd47027c2" x="352.384878" y="234.514282" style="fill: #1f77b4; stroke: #1f77b4"/>
     <use xlink:href="#mecd47027c2" x="354.016308" y="235.089496" style="fill: #1f77b4; stroke: #1f77b4"/>
     <use xlink:href="#mecd47027c2" x="355.647738" y="237.502581" style="fill: #1f77b4; stroke: #1f77b4"/>
     <use xlink:href="#mecd47027c2" x="357.279168" y="236.450033" style="fill: #1f77b4; stroke: #1f77b4"/>
     <use xlink:href="#mecd47027c2" x="358.910597" y="239.495875" style="fill: #1f77b4; stroke: #1f77b4"/>
     <use xlink:href="#mecd47027c2" x="360.542027" y="238.131404" style="fill: #1f77b4; stroke: #1f77b4"/>
     <use xlink:href="#mecd47027c2" x="362.173457" y="237.738657" style="fill: #1f77b4; stroke: #1f77b4"/>
     <use xlink:href="#mecd47027c2" x="363.804887" y="237.643755" style="fill: #1f77b4; stroke: #1f77b4"/>
     <use xlink:href="#mecd47027c2" x="365.436317" y="239.453693" style="fill: #1f77b4; stroke: #1f77b4"/>
     <use xlink:href="#mecd47027c2" x="367.067747" y="240.51074" style="fill: #1f77b4; stroke: #1f77b4"/>
     <use xlink:href="#mecd47027c2" x="368.699177" y="241.909183" style="fill: #1f77b4; stroke: #1f77b4"/>
     <use xlink:href="#mecd47027c2" x="370.330607" y="239.220456" style="fill: #1f77b4; stroke: #1f77b4"/>
     <use xlink:href="#mecd47027c2" x="371.962036" y="241.426392" style="fill: #1f77b4; stroke: #1f77b4"/>
     <use xlink:href="#mecd47027c2" x="373.593466" y="243.147397" style="fill: #1f77b4; stroke: #1f77b4"/>
     <use xlink:href="#mecd47027c2" x="375.224896" y="241.86712" style="fill: #1f77b4; stroke: #1f77b4"/>
     <use xlink:href="#mecd47027c2" x="376.856326" y="242.947825" style="fill: #1f77b4; stroke: #1f77b4"/>
     <use xlink:href="#mecd47027c2" x="378.487756" y="244.209525" style="fill: #1f77b4; stroke: #1f77b4"/>
     <use xlink:href="#mecd47027c2" x="380.119186" y="244.764469" style="fill: #1f77b4; stroke: #1f77b4"/>
     <use xlink:href="#mecd47027c2" x="381.750616" y="243.717531" style="fill: #1f77b4; stroke: #1f77b4"/>
     <use xlink:href="#mecd47027c2" x="383.382046" y="244.029317" style="fill: #1f77b4; stroke: #1f77b4"/>
     <use xlink:href="#mecd47027c2" x="385.013475" y="247.887681" style="fill: #1f77b4; stroke: #1f77b4"/>
     <use xlink:href="#mecd47027c2" x="386.644905" y="245.765529" style="fill: #1f77b4; stroke: #1f77b4"/>
     <use xlink:href="#mecd47027c2" x="388.276335" y="249.197739" style="fill: #1f77b4; stroke: #1f77b4"/>
    </g>
   </g>
   <g id="line2d_25">
    <path d="M 63.62179 197.549877 
L 74.996073 196.721297 
L 86.370357 196.117519 
L 97.74464 195.739361 
L 109.118923 195.587298 
L 120.493207 195.661466 
L 131.86749 195.961657 
L 143.241773 196.487323 
L 154.616057 197.237577 
L 165.99034 198.211194 
L 177.364624 199.406611 
L 188.738907 200.821937 
L 200.43817 202.504778 
L 212.137433 204.415142 
L 223.836696 206.549891 
L 235.860938 208.974087 
L 247.88518 211.627445 
L 259.909423 214.505415 
L 272.258645 217.689794 
L 284.932846 221.192906 
L 297.607048 224.927432 
L 310.606229 228.990717 
L 323.930389 233.392098 
L 337.579529 238.139605 
L 351.553649 243.239791 
L 365.852748 248.697544 
L 380.476827 254.515901 
L 388.276335 257.711912 
L 388.276335 257.711912 
" clip-path="url(#p6869eb333e)" style="fill: none; stroke: #d62728; stroke-width: 1.5; stroke-linecap: square"/>
   </g>
   <g id="patch_9">
    <path d="M 47.389063 307.872 
L 47.389063 186.912 
" style="fill: none; stroke: #000000; stroke-width: 0.8; stroke-linejoin: miter; stroke-linecap: square"/>
   </g>
   <g id="patch_10">
    <path d="M 404.509063 307.872 
L 404.509063 186.912 
" style="fill: none; stroke: #000000; stroke-width: 0.8; stroke-linejoin: miter; stroke-linecap: square"/>
   </g>
   <g id="patch_11">
    <path d="M 47.389063 307.872 
L 404.509063 307.872 
" style="fill: none; stroke: #000000; stroke-width: 0.8; stroke-linejoin: miter; stroke-linecap: square"/>
   </g>
   <g id="patch_12">
    <path d="M 47.389063 186.912 
L 404.509063 186.912 
" style="fill: none; stroke: #000000; stroke-width: 0.8; stroke-linejoin: miter; stroke-linecap: square"/>
   </g>
  </g>
  <g id="text_21">
   <!-- S21 resonator spectroscopy -->
   <g transform="translate(136.404688 16.318125) scale(0.12 -0.12)">
    <defs>
     <path id="DejaVuSans-73" d="M 2834 3397 
L 2834 2853 
Q 2591 2978 2328 3040 
Q 2066 3103 1784 3103 
Q 1356 3103 1142 2972 
Q 928 2841 928 2578 
Q 928 2378 1081 2264 
Q 1234 2150 1697 2047 
L 1894 2003 
Q 2506 1872 2764 1633 
Q 3022 1394 3022 966 
Q 3022 478 2636 193 
Q 2250 -91 1575 -91 
Q 1294 -91 989 -36 
Q 684 19 347 128 
L 347 722 
Q 666 556 975 473 
Q 1284 391 1588 391 
Q 1994 391 2212 530 
Q 2431 669 2431 922 
Q 2431 1156 2273 1281 
Q 2116 1406 1581 1522 
L 1381 1569 
Q 847 1681 609 1914 
Q 372 2147 372 2553 
Q 372 3047 722 3315 
Q 1072 3584 1716 3584 
Q 2034 3584 2315 3537 
Q 2597 3491 2834 3397 
z
" transform="scale(0.015625)"/>
     <path id="DejaVuSans-6f" d="M 1959 3097 
Q 1497 3097 1228 2736 
Q 959 2375 959 1747 
Q 959 1119 1226 758 
Q 1494 397 1959 397 
Q 2419 397 2687 759 
Q 2956 1122 2956 1747 
Q 2956 2369 2687 2733 
Q 2419 3097 1959 3097 
z
M 1959 3584 
Q 2709 3584 3137 3096 
Q 3566 2609 3566 1747 
Q 3566 888 3137 398 
Q 2709 -91 1959 -91 
Q 1206 -91 779 398 
Q 353 888 353 1747 
Q 353 2609 779 3096 
Q 1206 3584 1959 3584 
z
" transform="scale(0.015625)"/>
     <path id="DejaVuSans-74" d="M 1172 4494 
L 1172 3500 
L 2356 3500 
L 2356 3053 
L 1172 3053 
L 1172 1153 
Q 1172 725 1289 603 
Q 1406 481 1766 481 
L 2356 481 
L 2356 0 
L 1766 0 
Q 1100 0 847 248 
Q 594 497 594 1153 
L 594 3053 
L 172 3053 
L 172 3500 
L 594 3500 
L 594 4494 
L 1172 4494 
z
" transform="scale(0.015625)"/>
     <path id="DejaVuSans-70" d="M 1159 525 
L 1159 -1331 
L 581 -1331 
L 581 3500 
L 1159 3500 
L 1159 2969 
Q 1341 3281 1617 3432 
Q 1894 3584 2278 3584 
Q 2916 3584 3314 3078 
Q 3713 2572 3713 1747 
Q 3713 922 3314 415 
Q 2916 -91 2278 -91 
Q 1894 -91 1617 61 
Q 1341 213 1159 525 
z
M 3116 1747 
Q 3116 2381 2855 2742 
Q 2594 3103 2138 3103 
Q 1681 3103 1420 2742 
Q 1159 2381 1159 1747 
Q 1159 1113 1420 752 
Q 1681 391 2138 391 
Q 2594 391 2855 752 
Q 3116 1113 3116 1747 
z
" transform="scale(0.015625)"/>
    </defs>
    <use xlink:href="#DejaVuSans-53"/>
    <use xlink:href="#DejaVuSans-32" x="63.476562"/>
    <use xlink:href="#DejaVuSans-31" x="127.099609"/>
    <use xlink:href="#DejaVuSans-20" x="190.722656"/>
    <use xlink:href="#DejaVuSans-72" x="222.509766"/>
    <use xlink:href="#DejaVuSans-65" x="261.373047"/>
    <use xlink:href="#DejaVuSans-73" x="322.896484"/>
    <use xlink:href="#DejaVuSans-6f" x="374.996094"/>
    <use xlink:href="#DejaVuSans-6e" x="436.177734"/>
    <use xlink:href="#DejaVuSans-61" x="499.556641"/>
    <use xlink:href="#DejaVuSans-74" x="560.835938"/>
    <use xlink:href="#DejaVuSans-6f" x="600.044922"/>
    <use xlink:href="#DejaVuSans-72" x="661.226562"/>
    <use xlink:href="#DejaVuSans-20" x="702.339844"/>
    <use xlink:href="#DejaVuSans-73" x="734.126953"/>
    <use xlink:href="#DejaVuSans-70" x="786.226562"/>
    <use xlink:href="#DejaVuSans-65" x="849.703125"/>
    <use xlink:href="#DejaVuSans-63" x="911.226562"/>
    <use xlink:href="#DejaVuSans-74" x="966.207031"/>
    <use xlink:href="#DejaVuSans-72" x="1005.416016"/>
    <use xlink:href="#DejaVuSans-6f" x="1044.279297"/>
    <use xlink:href="#DejaVuSans-73" x="1105.460938"/>
    <use xlink:href="#DejaVuSans-63" x="1157.560547"/>
    <use xlink:href="#DejaVuSans-6f" x="1212.541016"/>
    <use xlink:href="#DejaVuSans-70" x="1273.722656"/>
    <use xlink:href="#DejaVuSans-79" x="1337.199219"/>
   </g>
   <!-- tuid: 20231227-130207-123-9b71f0 -->
   <g transform="translate(112.0475 29.7555) scale(0.12 -0.12)">
    <defs>
     <path id="DejaVuSans-69" d="M 603 3500 
L 1178 3500 
L 1178 0 
L 603 0 
L 603 3500 
z
M 603 4863 
L 1178 4863 
L 1178 4134 
L 603 4134 
L 603 4863 
z
" transform="scale(0.015625)"/>
     <path id="DejaVuSans-64" d="M 2906 2969 
L 2906 4863 
L 3481 4863 
L 3481 0 
L 2906 0 
L 2906 525 
Q 2725 213 2448 61 
Q 2172 -91 1784 -91 
Q 1150 -91 751 415 
Q 353 922 353 1747 
Q 353 2572 751 3078 
Q 1150 3584 1784 3584 
Q 2172 3584 2448 3432 
Q 2725 3281 2906 2969 
z
M 947 1747 
Q 947 1113 1208 752 
Q 1469 391 1925 391 
Q 2381 391 2643 752 
Q 2906 1113 2906 1747 
Q 2906 2381 2643 2742 
Q 2381 3103 1925 3103 
Q 1469 3103 1208 2742 
Q 947 2381 947 1747 
z
" transform="scale(0.015625)"/>
     <path id="DejaVuSans-33" d="M 2597 2516 
Q 3050 2419 3304 2112 
Q 3559 1806 3559 1356 
Q 3559 666 3084 287 
Q 2609 -91 1734 -91 
Q 1441 -91 1130 -33 
Q 819 25 488 141 
L 488 750 
Q 750 597 1062 519 
Q 1375 441 1716 441 
Q 2309 441 2620 675 
Q 2931 909 2931 1356 
Q 2931 1769 2642 2001 
Q 2353 2234 1838 2234 
L 1294 2234 
L 1294 2753 
L 1863 2753 
Q 2328 2753 2575 2939 
Q 2822 3125 2822 3475 
Q 2822 3834 2567 4026 
Q 2313 4219 1838 4219 
Q 1578 4219 1281 4162 
Q 984 4106 628 3988 
L 628 4550 
Q 988 4650 1302 4700 
Q 1616 4750 1894 4750 
Q 2613 4750 3031 4423 
Q 3450 4097 3450 3541 
Q 3450 3153 3228 2886 
Q 3006 2619 2597 2516 
z
" transform="scale(0.015625)"/>
     <path id="DejaVuSans-39" d="M 703 97 
L 703 672 
Q 941 559 1184 500 
Q 1428 441 1663 441 
Q 2288 441 2617 861 
Q 2947 1281 2994 2138 
Q 2813 1869 2534 1725 
Q 2256 1581 1919 1581 
Q 1219 1581 811 2004 
Q 403 2428 403 3163 
Q 403 3881 828 4315 
Q 1253 4750 1959 4750 
Q 2769 4750 3195 4129 
Q 3622 3509 3622 2328 
Q 3622 1225 3098 567 
Q 2575 -91 1691 -91 
Q 1453 -91 1209 -44 
Q 966 3 703 97 
z
M 1959 2075 
Q 2384 2075 2632 2365 
Q 2881 2656 2881 3163 
Q 2881 3666 2632 3958 
Q 2384 4250 1959 4250 
Q 1534 4250 1286 3958 
Q 1038 3666 1038 3163 
Q 1038 2656 1286 2365 
Q 1534 2075 1959 2075 
z
" transform="scale(0.015625)"/>
     <path id="DejaVuSans-62" d="M 3116 1747 
Q 3116 2381 2855 2742 
Q 2594 3103 2138 3103 
Q 1681 3103 1420 2742 
Q 1159 2381 1159 1747 
Q 1159 1113 1420 752 
Q 1681 391 2138 391 
Q 2594 391 2855 752 
Q 3116 1113 3116 1747 
z
M 1159 2969 
Q 1341 3281 1617 3432 
Q 1894 3584 2278 3584 
Q 2916 3584 3314 3078 
Q 3713 2572 3713 1747 
Q 3713 922 3314 415 
Q 2916 -91 2278 -91 
Q 1894 -91 1617 61 
Q 1341 213 1159 525 
L 1159 0 
L 581 0 
L 581 4863 
L 1159 4863 
L 1159 2969 
z
" transform="scale(0.015625)"/>
     <path id="DejaVuSans-66" d="M 2375 4863 
L 2375 4384 
L 1825 4384 
Q 1516 4384 1395 4259 
Q 1275 4134 1275 3809 
L 1275 3500 
L 2222 3500 
L 2222 3053 
L 1275 3053 
L 1275 0 
L 697 0 
L 697 3053 
L 147 3053 
L 147 3500 
L 697 3500 
L 697 3744 
Q 697 4328 969 4595 
Q 1241 4863 1831 4863 
L 2375 4863 
z
" transform="scale(0.015625)"/>
    </defs>
    <use xlink:href="#DejaVuSans-74"/>
    <use xlink:href="#DejaVuSans-75" x="39.208984"/>
    <use xlink:href="#DejaVuSans-69" x="102.587891"/>
    <use xlink:href="#DejaVuSans-64" x="130.371094"/>
    <use xlink:href="#DejaVuSans-3a" x="193.847656"/>
    <use xlink:href="#DejaVuSans-20" x="227.539062"/>
    <use xlink:href="#DejaVuSans-32" x="259.326172"/>
    <use xlink:href="#DejaVuSans-30" x="322.949219"/>
    <use xlink:href="#DejaVuSans-32" x="386.572266"/>
    <use xlink:href="#DejaVuSans-33" x="450.195312"/>
    <use xlink:href="#DejaVuSans-31" x="513.818359"/>
    <use xlink:href="#DejaVuSans-32" x="577.441406"/>
    <use xlink:href="#DejaVuSans-32" x="641.064453"/>
    <use xlink:href="#DejaVuSans-37" x="704.6875"/>
    <use xlink:href="#DejaVuSans-2d" x="768.310547"/>
    <use xlink:href="#DejaVuSans-31" x="804.394531"/>
    <use xlink:href="#DejaVuSans-33" x="868.017578"/>
    <use xlink:href="#DejaVuSans-30" x="931.640625"/>
    <use xlink:href="#DejaVuSans-32" x="995.263672"/>
    <use xlink:href="#DejaVuSans-30" x="1058.886719"/>
    <use xlink:href="#DejaVuSans-37" x="1122.509766"/>
    <use xlink:href="#DejaVuSans-2d" x="1186.132812"/>
    <use xlink:href="#DejaVuSans-31" x="1222.216797"/>
    <use xlink:href="#DejaVuSans-32" x="1285.839844"/>
    <use xlink:href="#DejaVuSans-33" x="1349.462891"/>
    <use xlink:href="#DejaVuSans-2d" x="1413.085938"/>
    <use xlink:href="#DejaVuSans-39" x="1449.169922"/>
    <use xlink:href="#DejaVuSans-62" x="1512.792969"/>
    <use xlink:href="#DejaVuSans-37" x="1576.269531"/>
    <use xlink:href="#DejaVuSans-31" x="1639.892578"/>
    <use xlink:href="#DejaVuSans-66" x="1703.515625"/>
    <use xlink:href="#DejaVuSans-30" x="1738.720703"/>
   </g>
  </g>
 </g>
 <defs>
  <clipPath id="pf32a21267e">
   <rect x="47.389063" y="41.76" width="357.12" height="120.96"/>
  </clipPath>
  <clipPath id="p6869eb333e">
   <rect x="47.389063" y="186.912" width="357.12" height="120.96"/>
  </clipPath>
 </defs>
</svg>
