<?xml version="1.0" encoding="utf-8" standalone="no"?>
<!DOCTYPE svg PUBLIC "-//W3C//DTD SVG 1.1//EN"
  "http://www.w3.org/Graphics/SVG/1.1/DTD/svg11.dtd">
<svg xmlns:xlink="http://www.w3.org/1999/xlink" width="552.4635pt" height="345.42825pt" viewBox="0 0 552.4635 345.42825" xmlns="http://www.w3.org/2000/svg" version="1.1">
 <metadata>
  <rdf:RDF xmlns:dc="http://purl.org/dc/elements/1.1/" xmlns:cc="http://creativecommons.org/ns#" xmlns:rdf="http://www.w3.org/1999/02/22-rdf-syntax-ns#">
   <cc:Work>
    <dc:type rdf:resource="http://purl.org/dc/dcmitype/StillImage"/>
    <dc:date>2023-12-27T13:02:18.255035</dc:date>
    <dc:format>image/svg+xml</dc:format>
    <dc:creator>
     <cc:Agent>
      <dc:title>Matplotlib v3.8.2, https://matplotlib.org/</dc:title>
     </cc:Agent>
    </dc:creator>
   </cc:Work>
  </rdf:RDF>
 </metadata>
 <defs>
  <style type="text/css">*{stroke-linejoin: round; stroke-linecap: butt}</style>
 </defs>
 <g id="figure_1">
  <g id="patch_1">
   <path d="M 0 345.42825 
L 552.4635 345.42825 
L 552.4635 -0 
L 0 -0 
L 0 345.42825 
z
" style="fill: none; opacity: 0"/>
  </g>
  <g id="axes_1">
   <g id="patch_2">
    <path d="M 46.9875 162.72 
L 404.1075 162.72 
L 404.1075 41.76 
L 46.9875 41.76 
z
" style="fill: #ffffff"/>
   </g>
   <g id="matplotlib.axis_1">
    <g id="xtick_1">
     <g id="line2d_1">
      <defs>
       <path id="ma6e50770fd" d="M 0 0 
L 0 3.5 
" style="stroke: #000000; stroke-width: 0.8"/>
      </defs>
      <g>
       <use xlink:href="#ma6e50770fd" x="46.9875" y="162.72" style="stroke: #000000; stroke-width: 0.8"/>
      </g>
     </g>
    </g>
    <g id="xtick_2">
     <g id="line2d_2">
      <g>
       <use xlink:href="#ma6e50770fd" x="111.918409" y="162.72" style="stroke: #000000; stroke-width: 0.8"/>
      </g>
     </g>
    </g>
    <g id="xtick_3">
     <g id="line2d_3">
      <g>
       <use xlink:href="#ma6e50770fd" x="176.849318" y="162.72" style="stroke: #000000; stroke-width: 0.8"/>
      </g>
     </g>
    </g>
    <g id="xtick_4">
     <g id="line2d_4">
      <g>
       <use xlink:href="#ma6e50770fd" x="241.780227" y="162.72" style="stroke: #000000; stroke-width: 0.8"/>
      </g>
     </g>
    </g>
    <g id="xtick_5">
     <g id="line2d_5">
      <g>
       <use xlink:href="#ma6e50770fd" x="306.711136" y="162.72" style="stroke: #000000; stroke-width: 0.8"/>
      </g>
     </g>
    </g>
    <g id="xtick_6">
     <g id="line2d_6">
      <g>
       <use xlink:href="#ma6e50770fd" x="371.642045" y="162.72" style="stroke: #000000; stroke-width: 0.8"/>
      </g>
     </g>
    </g>
   </g>
   <g id="matplotlib.axis_2">
    <g id="ytick_1">
     <g id="line2d_7">
      <defs>
       <path id="med943f71fb" d="M 0 0 
L -3.5 0 
" style="stroke: #000000; stroke-width: 0.8"/>
      </defs>
      <g>
       <use xlink:href="#med943f71fb" x="46.9875" y="147.170049" style="stroke: #000000; stroke-width: 0.8"/>
      </g>
     </g>
     <g id="text_1">
      <!-- 4 -->
      <g transform="translate(33.625 150.969267) scale(0.1 -0.1)">
       <defs>
        <path id="DejaVuSans-34" d="M 2419 4116 
L 825 1625 
L 2419 1625 
L 2419 4116 
z
M 2253 4666 
L 3047 4666 
L 3047 1625 
L 3713 1625 
L 3713 1100 
L 3047 1100 
L 3047 0 
L 2419 0 
L 2419 1100 
L 313 1100 
L 313 1709 
L 2253 4666 
z
" transform="scale(0.015625)"/>
       </defs>
       <use xlink:href="#DejaVuSans-34"/>
      </g>
     </g>
    </g>
    <g id="ytick_2">
     <g id="line2d_8">
      <g>
       <use xlink:href="#med943f71fb" x="46.9875" y="117.213891" style="stroke: #000000; stroke-width: 0.8"/>
      </g>
     </g>
     <g id="text_2">
      <!-- 6 -->
      <g transform="translate(33.625 121.01311) scale(0.1 -0.1)">
       <defs>
        <path id="DejaVuSans-36" d="M 2113 2584 
Q 1688 2584 1439 2293 
Q 1191 2003 1191 1497 
Q 1191 994 1439 701 
Q 1688 409 2113 409 
Q 2538 409 2786 701 
Q 3034 994 3034 1497 
Q 3034 2003 2786 2293 
Q 2538 2584 2113 2584 
z
M 3366 4563 
L 3366 3988 
Q 3128 4100 2886 4159 
Q 2644 4219 2406 4219 
Q 1781 4219 1451 3797 
Q 1122 3375 1075 2522 
Q 1259 2794 1537 2939 
Q 1816 3084 2150 3084 
Q 2853 3084 3261 2657 
Q 3669 2231 3669 1497 
Q 3669 778 3244 343 
Q 2819 -91 2113 -91 
Q 1303 -91 875 529 
Q 447 1150 447 2328 
Q 447 3434 972 4092 
Q 1497 4750 2381 4750 
Q 2619 4750 2861 4703 
Q 3103 4656 3366 4563 
z
" transform="scale(0.015625)"/>
       </defs>
       <use xlink:href="#DejaVuSans-36"/>
      </g>
     </g>
    </g>
    <g id="ytick_3">
     <g id="line2d_9">
      <g>
       <use xlink:href="#med943f71fb" x="46.9875" y="87.257733" style="stroke: #000000; stroke-width: 0.8"/>
      </g>
     </g>
     <g id="text_3">
      <!-- 8 -->
      <g transform="translate(33.625 91.056952) scale(0.1 -0.1)">
       <defs>
        <path id="DejaVuSans-38" d="M 2034 2216 
Q 1584 2216 1326 1975 
Q 1069 1734 1069 1313 
Q 1069 891 1326 650 
Q 1584 409 2034 409 
Q 2484 409 2743 651 
Q 3003 894 3003 1313 
Q 3003 1734 2745 1975 
Q 2488 2216 2034 2216 
z
M 1403 2484 
Q 997 2584 770 2862 
Q 544 3141 544 3541 
Q 544 4100 942 4425 
Q 1341 4750 2034 4750 
Q 2731 4750 3128 4425 
Q 3525 4100 3525 3541 
Q 3525 3141 3298 2862 
Q 3072 2584 2669 2484 
Q 3125 2378 3379 2068 
Q 3634 1759 3634 1313 
Q 3634 634 3220 271 
Q 2806 -91 2034 -91 
Q 1263 -91 848 271 
Q 434 634 434 1313 
Q 434 1759 690 2068 
Q 947 2378 1403 2484 
z
M 1172 3481 
Q 1172 3119 1398 2916 
Q 1625 2713 2034 2713 
Q 2441 2713 2670 2916 
Q 2900 3119 2900 3481 
Q 2900 3844 2670 4047 
Q 2441 4250 2034 4250 
Q 1625 4250 1398 4047 
Q 1172 3844 1172 3481 
z
" transform="scale(0.015625)"/>
       </defs>
       <use xlink:href="#DejaVuSans-38"/>
      </g>
     </g>
    </g>
    <g id="ytick_4">
     <g id="line2d_10">
      <g>
       <use xlink:href="#med943f71fb" x="46.9875" y="57.301575" style="stroke: #000000; stroke-width: 0.8"/>
      </g>
     </g>
     <g id="text_4">
      <!-- 10 -->
      <g transform="translate(27.2625 61.100794) scale(0.1 -0.1)">
       <defs>
        <path id="DejaVuSans-31" d="M 794 531 
L 1825 531 
L 1825 4091 
L 703 3866 
L 703 4441 
L 1819 4666 
L 2450 4666 
L 2450 531 
L 3481 531 
L 3481 0 
L 794 0 
L 794 531 
z
" transform="scale(0.015625)"/>
        <path id="DejaVuSans-30" d="M 2034 4250 
Q 1547 4250 1301 3770 
Q 1056 3291 1056 2328 
Q 1056 1369 1301 889 
Q 1547 409 2034 409 
Q 2525 409 2770 889 
Q 3016 1369 3016 2328 
Q 3016 3291 2770 3770 
Q 2525 4250 2034 4250 
z
M 2034 4750 
Q 2819 4750 3233 4129 
Q 3647 3509 3647 2328 
Q 3647 1150 3233 529 
Q 2819 -91 2034 -91 
Q 1250 -91 836 529 
Q 422 1150 422 2328 
Q 422 3509 836 4129 
Q 1250 4750 2034 4750 
z
" transform="scale(0.015625)"/>
       </defs>
       <use xlink:href="#DejaVuSans-31"/>
       <use xlink:href="#DejaVuSans-30" x="63.623047"/>
      </g>
     </g>
    </g>
    <g id="text_5">
     <!-- $|S_{21}|$ [mV] -->
     <g transform="translate(20.8625 127.19) rotate(-90) scale(0.1 -0.1)">
      <defs>
       <path id="DejaVuSans-7c" d="M 1344 4891 
L 1344 -1509 
L 813 -1509 
L 813 4891 
L 1344 4891 
z
" transform="scale(0.015625)"/>
       <path id="DejaVuSans-Oblique-53" d="M 3859 4513 
L 3738 3897 
Q 3422 4066 3111 4152 
Q 2800 4238 2509 4238 
Q 1944 4238 1609 3991 
Q 1275 3744 1275 3334 
Q 1275 3109 1398 2989 
Q 1522 2869 2034 2731 
L 2413 2638 
Q 3053 2472 3303 2217 
Q 3553 1963 3553 1503 
Q 3553 797 2998 353 
Q 2444 -91 1538 -91 
Q 1166 -91 791 -17 
Q 416 56 38 206 
L 166 856 
Q 513 641 861 531 
Q 1209 422 1556 422 
Q 2147 422 2503 684 
Q 2859 947 2859 1369 
Q 2859 1650 2717 1795 
Q 2575 1941 2106 2059 
L 1728 2156 
Q 1081 2325 845 2545 
Q 609 2766 609 3163 
Q 609 3859 1145 4304 
Q 1681 4750 2541 4750 
Q 2875 4750 3203 4690 
Q 3531 4631 3859 4513 
z
" transform="scale(0.015625)"/>
       <path id="DejaVuSans-32" d="M 1228 531 
L 3431 531 
L 3431 0 
L 469 0 
L 469 531 
Q 828 903 1448 1529 
Q 2069 2156 2228 2338 
Q 2531 2678 2651 2914 
Q 2772 3150 2772 3378 
Q 2772 3750 2511 3984 
Q 2250 4219 1831 4219 
Q 1534 4219 1204 4116 
Q 875 4013 500 3803 
L 500 4441 
Q 881 4594 1212 4672 
Q 1544 4750 1819 4750 
Q 2544 4750 2975 4387 
Q 3406 4025 3406 3419 
Q 3406 3131 3298 2873 
Q 3191 2616 2906 2266 
Q 2828 2175 2409 1742 
Q 1991 1309 1228 531 
z
" transform="scale(0.015625)"/>
       <path id="DejaVuSans-20" transform="scale(0.015625)"/>
       <path id="DejaVuSans-5b" d="M 550 4863 
L 1875 4863 
L 1875 4416 
L 1125 4416 
L 1125 -397 
L 1875 -397 
L 1875 -844 
L 550 -844 
L 550 4863 
z
" transform="scale(0.015625)"/>
       <path id="DejaVuSans-6d" d="M 3328 2828 
Q 3544 3216 3844 3400 
Q 4144 3584 4550 3584 
Q 5097 3584 5394 3201 
Q 5691 2819 5691 2113 
L 5691 0 
L 5113 0 
L 5113 2094 
Q 5113 2597 4934 2840 
Q 4756 3084 4391 3084 
Q 3944 3084 3684 2787 
Q 3425 2491 3425 1978 
L 3425 0 
L 2847 0 
L 2847 2094 
Q 2847 2600 2669 2842 
Q 2491 3084 2119 3084 
Q 1678 3084 1418 2786 
Q 1159 2488 1159 1978 
L 1159 0 
L 581 0 
L 581 3500 
L 1159 3500 
L 1159 2956 
Q 1356 3278 1631 3431 
Q 1906 3584 2284 3584 
Q 2666 3584 2933 3390 
Q 3200 3197 3328 2828 
z
" transform="scale(0.015625)"/>
       <path id="DejaVuSans-56" d="M 1831 0 
L 50 4666 
L 709 4666 
L 2188 738 
L 3669 4666 
L 4325 4666 
L 2547 0 
L 1831 0 
z
" transform="scale(0.015625)"/>
       <path id="DejaVuSans-5d" d="M 1947 4863 
L 1947 -844 
L 622 -844 
L 622 -397 
L 1369 -397 
L 1369 4416 
L 622 4416 
L 622 4863 
L 1947 4863 
z
" transform="scale(0.015625)"/>
      </defs>
      <use xlink:href="#DejaVuSans-7c" transform="translate(0 0.578125)"/>
      <use xlink:href="#DejaVuSans-Oblique-53" transform="translate(33.691406 0.578125)"/>
      <use xlink:href="#DejaVuSans-32" transform="translate(97.167969 -15.828125) scale(0.7)"/>
      <use xlink:href="#DejaVuSans-31" transform="translate(141.704102 -15.828125) scale(0.7)"/>
      <use xlink:href="#DejaVuSans-7c" transform="translate(188.974609 0.578125)"/>
      <use xlink:href="#DejaVuSans-20" transform="translate(222.666016 0.578125)"/>
      <use xlink:href="#DejaVuSans-5b" transform="translate(254.453125 0.578125)"/>
      <use xlink:href="#DejaVuSans-6d" transform="translate(293.466797 0.578125)"/>
      <use xlink:href="#DejaVuSans-56" transform="translate(390.878906 0.578125)"/>
      <use xlink:href="#DejaVuSans-5d" transform="translate(459.287109 0.578125)"/>
     </g>
    </g>
   </g>
   <g id="line2d_11">
    <path d="M 63.220227 157.221818 
L 64.851657 155.322151 
L 69.745947 139.046485 
L 71.377377 134.79851 
L 73.008807 127.825022 
L 74.640236 122.086318 
L 76.271666 123.46516 
L 77.903096 117.377774 
L 79.534526 116.57857 
L 81.165956 110.908653 
L 82.797386 108.138617 
L 84.428816 107.694473 
L 86.060246 102.609467 
L 89.323105 98.29423 
L 90.954535 95.964537 
L 94.217395 91.916534 
L 95.848825 89.412445 
L 97.480255 87.88525 
L 99.111685 84.943501 
L 100.743114 83.453972 
L 102.374544 78.937304 
L 104.005974 83.851071 
L 105.637404 81.552632 
L 107.268834 80.71964 
L 108.900264 81.600159 
L 110.531694 77.115124 
L 112.163124 77.581239 
L 113.794553 75.915106 
L 115.425983 73.743724 
L 117.057413 73.337539 
L 118.688843 70.714912 
L 120.320273 70.558376 
L 121.951703 69.107772 
L 123.583133 71.805356 
L 125.214563 70.738032 
L 126.845992 67.821431 
L 128.477422 69.662775 
L 130.108852 67.808565 
L 131.740282 67.521489 
L 135.003142 64.913208 
L 136.634572 65.736386 
L 138.266002 65.463687 
L 139.897431 63.58386 
L 141.528861 62.841052 
L 143.160291 64.130991 
L 144.791721 65.005522 
L 146.423151 61.607516 
L 148.054581 64.032118 
L 149.686011 61.77909 
L 151.317441 61.985628 
L 152.94887 61.757976 
L 154.5803 60.534255 
L 156.21173 60.391996 
L 157.84316 61.252241 
L 159.47459 60.697381 
L 161.10602 60.859378 
L 162.73745 59.133945 
L 164.36888 58.122737 
L 166.00031 58.610614 
L 167.631739 56.971924 
L 169.263169 59.671473 
L 170.894599 57.995293 
L 172.526029 57.200033 
L 174.157459 59.194777 
L 175.788889 56.917975 
L 177.420319 58.992781 
L 179.051749 56.411673 
L 180.683178 55.208725 
L 182.314608 57.629464 
L 183.946038 58.459412 
L 185.577468 56.332622 
L 187.208898 59.06665 
L 188.840328 54.744506 
L 190.471758 56.609955 
L 192.103188 58.872809 
L 193.734617 55.905717 
L 195.366047 57.324989 
L 196.997477 55.930429 
L 198.628907 54.846069 
L 200.260337 56.631131 
L 201.891767 54.874693 
L 203.523197 54.817299 
L 205.154627 56.992509 
L 206.786056 54.504133 
L 208.417486 55.34274 
L 210.048916 54.348187 
L 211.680346 54.775346 
L 213.311776 53.757706 
L 214.943206 55.264383 
L 216.574636 52.774203 
L 218.206066 53.956775 
L 219.837495 53.654001 
L 221.468925 55.465367 
L 223.100355 54.014418 
L 224.731785 53.342998 
L 226.363215 53.639107 
L 227.994645 53.443079 
L 229.626075 52.962399 
L 231.257505 52.049719 
L 232.888934 54.748829 
L 234.520364 55.184633 
L 236.151794 52.455727 
L 237.783224 51.540827 
L 239.414654 53.325534 
L 241.046084 54.47868 
L 242.677514 52.32098 
L 244.308944 51.831575 
L 245.940373 52.278525 
L 247.571803 51.130334 
L 249.203233 52.467063 
L 250.834663 51.027284 
L 252.466093 52.771141 
L 254.097523 53.949122 
L 255.728953 54.847224 
L 258.991812 52.971021 
L 262.254672 52.732815 
L 263.886102 54.190878 
L 265.517532 52.069855 
L 267.148962 52.515263 
L 268.780392 50.537215 
L 270.411822 51.610045 
L 272.043251 53.623974 
L 273.674681 52.66632 
L 275.306111 50.601073 
L 276.937541 52.555854 
L 278.568971 50.574997 
L 281.831831 51.600679 
L 285.09469 51.264186 
L 286.72612 53.064564 
L 288.35755 50.639393 
L 289.98898 51.31773 
L 291.62041 50.854546 
L 293.25184 49.871117 
L 294.88327 50.721472 
L 296.5147 49.518426 
L 298.14613 51.562644 
L 301.408989 51.402827 
L 303.040419 50.913529 
L 304.671849 51.083563 
L 306.303279 51.443101 
L 307.934709 49.934585 
L 309.566139 51.79983 
L 311.197569 51.257835 
L 314.460428 50.67789 
L 316.091858 50.674595 
L 317.723288 51.164248 
L 319.354718 51.164562 
L 320.986148 51.907897 
L 322.617578 50.137539 
L 325.880437 50.776004 
L 327.511867 49.060909 
L 329.143297 49.814113 
L 330.774727 50.254559 
L 332.406157 49.968536 
L 335.669017 49.912905 
L 337.300447 50.270095 
L 338.931876 49.663146 
L 340.563306 49.260496 
L 342.194736 49.347833 
L 343.826166 51.241035 
L 345.457596 50.467659 
L 347.089026 50.500911 
L 348.720456 49.690671 
L 350.351886 49.106552 
L 351.983315 48.86171 
L 353.614745 49.433406 
L 355.246175 49.411849 
L 356.877605 48.214478 
L 358.509035 51.024576 
L 360.140465 48.74513 
L 361.771895 49.211719 
L 363.403325 47.801815 
L 365.034754 49.847827 
L 366.666184 50.52601 
L 368.297614 49.930514 
L 369.929044 47.861721 
L 373.191904 49.62871 
L 374.823334 49.740362 
L 376.454764 48.755115 
L 378.086193 49.809115 
L 379.717623 47.258182 
L 381.349053 48.141647 
L 382.980483 48.581954 
L 384.611913 49.340801 
L 386.243343 49.186775 
L 387.874773 52.146114 
L 387.874773 52.146114 
" clip-path="url(#p6b2c381f59)" style="fill: none; stroke: #1f77b4; stroke-width: 1.5; stroke-linecap: square"/>
    <defs>
     <path id="maad7f81b04" d="M 0 1.5 
C 0.397805 1.5 0.77937 1.341951 1.06066 1.06066 
C 1.341951 0.77937 1.5 0.397805 1.5 0 
C 1.5 -0.397805 1.341951 -0.77937 1.06066 -1.06066 
C 0.77937 -1.341951 0.397805 -1.5 0 -1.5 
C -0.397805 -1.5 -0.77937 -1.341951 -1.06066 -1.06066 
C -1.341951 -0.77937 -1.5 -0.397805 -1.5 0 
C -1.5 0.397805 -1.341951 0.77937 -1.06066 1.06066 
C -0.77937 1.341951 -0.397805 1.5 0 1.5 
z
" style="stroke: #1f77b4"/>
    </defs>
    <g clip-path="url(#p6b2c381f59)">
     <use xlink:href="#maad7f81b04" x="63.220227" y="157.221818" style="fill: #1f77b4; stroke: #1f77b4"/>
     <use xlink:href="#maad7f81b04" x="64.851657" y="155.322151" style="fill: #1f77b4; stroke: #1f77b4"/>
     <use xlink:href="#maad7f81b04" x="66.483087" y="149.77966" style="fill: #1f77b4; stroke: #1f77b4"/>
     <use xlink:href="#maad7f81b04" x="68.114517" y="143.949575" style="fill: #1f77b4; stroke: #1f77b4"/>
     <use xlink:href="#maad7f81b04" x="69.745947" y="139.046485" style="fill: #1f77b4; stroke: #1f77b4"/>
     <use xlink:href="#maad7f81b04" x="71.377377" y="134.79851" style="fill: #1f77b4; stroke: #1f77b4"/>
     <use xlink:href="#maad7f81b04" x="73.008807" y="127.825022" style="fill: #1f77b4; stroke: #1f77b4"/>
     <use xlink:href="#maad7f81b04" x="74.640236" y="122.086318" style="fill: #1f77b4; stroke: #1f77b4"/>
     <use xlink:href="#maad7f81b04" x="76.271666" y="123.46516" style="fill: #1f77b4; stroke: #1f77b4"/>
     <use xlink:href="#maad7f81b04" x="77.903096" y="117.377774" style="fill: #1f77b4; stroke: #1f77b4"/>
     <use xlink:href="#maad7f81b04" x="79.534526" y="116.57857" style="fill: #1f77b4; stroke: #1f77b4"/>
     <use xlink:href="#maad7f81b04" x="81.165956" y="110.908653" style="fill: #1f77b4; stroke: #1f77b4"/>
     <use xlink:href="#maad7f81b04" x="82.797386" y="108.138617" style="fill: #1f77b4; stroke: #1f77b4"/>
     <use xlink:href="#maad7f81b04" x="84.428816" y="107.694473" style="fill: #1f77b4; stroke: #1f77b4"/>
     <use xlink:href="#maad7f81b04" x="86.060246" y="102.609467" style="fill: #1f77b4; stroke: #1f77b4"/>
     <use xlink:href="#maad7f81b04" x="87.691675" y="100.531362" style="fill: #1f77b4; stroke: #1f77b4"/>
     <use xlink:href="#maad7f81b04" x="89.323105" y="98.29423" style="fill: #1f77b4; stroke: #1f77b4"/>
     <use xlink:href="#maad7f81b04" x="90.954535" y="95.964537" style="fill: #1f77b4; stroke: #1f77b4"/>
     <use xlink:href="#maad7f81b04" x="92.585965" y="93.86333" style="fill: #1f77b4; stroke: #1f77b4"/>
     <use xlink:href="#maad7f81b04" x="94.217395" y="91.916534" style="fill: #1f77b4; stroke: #1f77b4"/>
     <use xlink:href="#maad7f81b04" x="95.848825" y="89.412445" style="fill: #1f77b4; stroke: #1f77b4"/>
     <use xlink:href="#maad7f81b04" x="97.480255" y="87.88525" style="fill: #1f77b4; stroke: #1f77b4"/>
     <use xlink:href="#maad7f81b04" x="99.111685" y="84.943501" style="fill: #1f77b4; stroke: #1f77b4"/>
     <use xlink:href="#maad7f81b04" x="100.743114" y="83.453972" style="fill: #1f77b4; stroke: #1f77b4"/>
     <use xlink:href="#maad7f81b04" x="102.374544" y="78.937304" style="fill: #1f77b4; stroke: #1f77b4"/>
     <use xlink:href="#maad7f81b04" x="104.005974" y="83.851071" style="fill: #1f77b4; stroke: #1f77b4"/>
     <use xlink:href="#maad7f81b04" x="105.637404" y="81.552632" style="fill: #1f77b4; stroke: #1f77b4"/>
     <use xlink:href="#maad7f81b04" x="107.268834" y="80.71964" style="fill: #1f77b4; stroke: #1f77b4"/>
     <use xlink:href="#maad7f81b04" x="108.900264" y="81.600159" style="fill: #1f77b4; stroke: #1f77b4"/>
     <use xlink:href="#maad7f81b04" x="110.531694" y="77.115124" style="fill: #1f77b4; stroke: #1f77b4"/>
     <use xlink:href="#maad7f81b04" x="112.163124" y="77.581239" style="fill: #1f77b4; stroke: #1f77b4"/>
     <use xlink:href="#maad7f81b04" x="113.794553" y="75.915106" style="fill: #1f77b4; stroke: #1f77b4"/>
     <use xlink:href="#maad7f81b04" x="115.425983" y="73.743724" style="fill: #1f77b4; stroke: #1f77b4"/>
     <use xlink:href="#maad7f81b04" x="117.057413" y="73.337539" style="fill: #1f77b4; stroke: #1f77b4"/>
     <use xlink:href="#maad7f81b04" x="118.688843" y="70.714912" style="fill: #1f77b4; stroke: #1f77b4"/>
     <use xlink:href="#maad7f81b04" x="120.320273" y="70.558376" style="fill: #1f77b4; stroke: #1f77b4"/>
     <use xlink:href="#maad7f81b04" x="121.951703" y="69.107772" style="fill: #1f77b4; stroke: #1f77b4"/>
     <use xlink:href="#maad7f81b04" x="123.583133" y="71.805356" style="fill: #1f77b4; stroke: #1f77b4"/>
     <use xlink:href="#maad7f81b04" x="125.214563" y="70.738032" style="fill: #1f77b4; stroke: #1f77b4"/>
     <use xlink:href="#maad7f81b04" x="126.845992" y="67.821431" style="fill: #1f77b4; stroke: #1f77b4"/>
     <use xlink:href="#maad7f81b04" x="128.477422" y="69.662775" style="fill: #1f77b4; stroke: #1f77b4"/>
     <use xlink:href="#maad7f81b04" x="130.108852" y="67.808565" style="fill: #1f77b4; stroke: #1f77b4"/>
     <use xlink:href="#maad7f81b04" x="131.740282" y="67.521489" style="fill: #1f77b4; stroke: #1f77b4"/>
     <use xlink:href="#maad7f81b04" x="133.371712" y="66.259656" style="fill: #1f77b4; stroke: #1f77b4"/>
     <use xlink:href="#maad7f81b04" x="135.003142" y="64.913208" style="fill: #1f77b4; stroke: #1f77b4"/>
     <use xlink:href="#maad7f81b04" x="136.634572" y="65.736386" style="fill: #1f77b4; stroke: #1f77b4"/>
     <use xlink:href="#maad7f81b04" x="138.266002" y="65.463687" style="fill: #1f77b4; stroke: #1f77b4"/>
     <use xlink:href="#maad7f81b04" x="139.897431" y="63.58386" style="fill: #1f77b4; stroke: #1f77b4"/>
     <use xlink:href="#maad7f81b04" x="141.528861" y="62.841052" style="fill: #1f77b4; stroke: #1f77b4"/>
     <use xlink:href="#maad7f81b04" x="143.160291" y="64.130991" style="fill: #1f77b4; stroke: #1f77b4"/>
     <use xlink:href="#maad7f81b04" x="144.791721" y="65.005522" style="fill: #1f77b4; stroke: #1f77b4"/>
     <use xlink:href="#maad7f81b04" x="146.423151" y="61.607516" style="fill: #1f77b4; stroke: #1f77b4"/>
     <use xlink:href="#maad7f81b04" x="148.054581" y="64.032118" style="fill: #1f77b4; stroke: #1f77b4"/>
     <use xlink:href="#maad7f81b04" x="149.686011" y="61.77909" style="fill: #1f77b4; stroke: #1f77b4"/>
     <use xlink:href="#maad7f81b04" x="151.317441" y="61.985628" style="fill: #1f77b4; stroke: #1f77b4"/>
     <use xlink:href="#maad7f81b04" x="152.94887" y="61.757976" style="fill: #1f77b4; stroke: #1f77b4"/>
     <use xlink:href="#maad7f81b04" x="154.5803" y="60.534255" style="fill: #1f77b4; stroke: #1f77b4"/>
     <use xlink:href="#maad7f81b04" x="156.21173" y="60.391996" style="fill: #1f77b4; stroke: #1f77b4"/>
     <use xlink:href="#maad7f81b04" x="157.84316" y="61.252241" style="fill: #1f77b4; stroke: #1f77b4"/>
     <use xlink:href="#maad7f81b04" x="159.47459" y="60.697381" style="fill: #1f77b4; stroke: #1f77b4"/>
     <use xlink:href="#maad7f81b04" x="161.10602" y="60.859378" style="fill: #1f77b4; stroke: #1f77b4"/>
     <use xlink:href="#maad7f81b04" x="162.73745" y="59.133945" style="fill: #1f77b4; stroke: #1f77b4"/>
     <use xlink:href="#maad7f81b04" x="164.36888" y="58.122737" style="fill: #1f77b4; stroke: #1f77b4"/>
     <use xlink:href="#maad7f81b04" x="166.00031" y="58.610614" style="fill: #1f77b4; stroke: #1f77b4"/>
     <use xlink:href="#maad7f81b04" x="167.631739" y="56.971924" style="fill: #1f77b4; stroke: #1f77b4"/>
     <use xlink:href="#maad7f81b04" x="169.263169" y="59.671473" style="fill: #1f77b4; stroke: #1f77b4"/>
     <use xlink:href="#maad7f81b04" x="170.894599" y="57.995293" style="fill: #1f77b4; stroke: #1f77b4"/>
     <use xlink:href="#maad7f81b04" x="172.526029" y="57.200033" style="fill: #1f77b4; stroke: #1f77b4"/>
     <use xlink:href="#maad7f81b04" x="174.157459" y="59.194777" style="fill: #1f77b4; stroke: #1f77b4"/>
     <use xlink:href="#maad7f81b04" x="175.788889" y="56.917975" style="fill: #1f77b4; stroke: #1f77b4"/>
     <use xlink:href="#maad7f81b04" x="177.420319" y="58.992781" style="fill: #1f77b4; stroke: #1f77b4"/>
     <use xlink:href="#maad7f81b04" x="179.051749" y="56.411673" style="fill: #1f77b4; stroke: #1f77b4"/>
     <use xlink:href="#maad7f81b04" x="180.683178" y="55.208725" style="fill: #1f77b4; stroke: #1f77b4"/>
     <use xlink:href="#maad7f81b04" x="182.314608" y="57.629464" style="fill: #1f77b4; stroke: #1f77b4"/>
     <use xlink:href="#maad7f81b04" x="183.946038" y="58.459412" style="fill: #1f77b4; stroke: #1f77b4"/>
     <use xlink:href="#maad7f81b04" x="185.577468" y="56.332622" style="fill: #1f77b4; stroke: #1f77b4"/>
     <use xlink:href="#maad7f81b04" x="187.208898" y="59.06665" style="fill: #1f77b4; stroke: #1f77b4"/>
     <use xlink:href="#maad7f81b04" x="188.840328" y="54.744506" style="fill: #1f77b4; stroke: #1f77b4"/>
     <use xlink:href="#maad7f81b04" x="190.471758" y="56.609955" style="fill: #1f77b4; stroke: #1f77b4"/>
     <use xlink:href="#maad7f81b04" x="192.103188" y="58.872809" style="fill: #1f77b4; stroke: #1f77b4"/>
     <use xlink:href="#maad7f81b04" x="193.734617" y="55.905717" style="fill: #1f77b4; stroke: #1f77b4"/>
     <use xlink:href="#maad7f81b04" x="195.366047" y="57.324989" style="fill: #1f77b4; stroke: #1f77b4"/>
     <use xlink:href="#maad7f81b04" x="196.997477" y="55.930429" style="fill: #1f77b4; stroke: #1f77b4"/>
     <use xlink:href="#maad7f81b04" x="198.628907" y="54.846069" style="fill: #1f77b4; stroke: #1f77b4"/>
     <use xlink:href="#maad7f81b04" x="200.260337" y="56.631131" style="fill: #1f77b4; stroke: #1f77b4"/>
     <use xlink:href="#maad7f81b04" x="201.891767" y="54.874693" style="fill: #1f77b4; stroke: #1f77b4"/>
     <use xlink:href="#maad7f81b04" x="203.523197" y="54.817299" style="fill: #1f77b4; stroke: #1f77b4"/>
     <use xlink:href="#maad7f81b04" x="205.154627" y="56.992509" style="fill: #1f77b4; stroke: #1f77b4"/>
     <use xlink:href="#maad7f81b04" x="206.786056" y="54.504133" style="fill: #1f77b4; stroke: #1f77b4"/>
     <use xlink:href="#maad7f81b04" x="208.417486" y="55.34274" style="fill: #1f77b4; stroke: #1f77b4"/>
     <use xlink:href="#maad7f81b04" x="210.048916" y="54.348187" style="fill: #1f77b4; stroke: #1f77b4"/>
     <use xlink:href="#maad7f81b04" x="211.680346" y="54.775346" style="fill: #1f77b4; stroke: #1f77b4"/>
     <use xlink:href="#maad7f81b04" x="213.311776" y="53.757706" style="fill: #1f77b4; stroke: #1f77b4"/>
     <use xlink:href="#maad7f81b04" x="214.943206" y="55.264383" style="fill: #1f77b4; stroke: #1f77b4"/>
     <use xlink:href="#maad7f81b04" x="216.574636" y="52.774203" style="fill: #1f77b4; stroke: #1f77b4"/>
     <use xlink:href="#maad7f81b04" x="218.206066" y="53.956775" style="fill: #1f77b4; stroke: #1f77b4"/>
     <use xlink:href="#maad7f81b04" x="219.837495" y="53.654001" style="fill: #1f77b4; stroke: #1f77b4"/>
     <use xlink:href="#maad7f81b04" x="221.468925" y="55.465367" style="fill: #1f77b4; stroke: #1f77b4"/>
     <use xlink:href="#maad7f81b04" x="223.100355" y="54.014418" style="fill: #1f77b4; stroke: #1f77b4"/>
     <use xlink:href="#maad7f81b04" x="224.731785" y="53.342998" style="fill: #1f77b4; stroke: #1f77b4"/>
     <use xlink:href="#maad7f81b04" x="226.363215" y="53.639107" style="fill: #1f77b4; stroke: #1f77b4"/>
     <use xlink:href="#maad7f81b04" x="227.994645" y="53.443079" style="fill: #1f77b4; stroke: #1f77b4"/>
     <use xlink:href="#maad7f81b04" x="229.626075" y="52.962399" style="fill: #1f77b4; stroke: #1f77b4"/>
     <use xlink:href="#maad7f81b04" x="231.257505" y="52.049719" style="fill: #1f77b4; stroke: #1f77b4"/>
     <use xlink:href="#maad7f81b04" x="232.888934" y="54.748829" style="fill: #1f77b4; stroke: #1f77b4"/>
     <use xlink:href="#maad7f81b04" x="234.520364" y="55.184633" style="fill: #1f77b4; stroke: #1f77b4"/>
     <use xlink:href="#maad7f81b04" x="236.151794" y="52.455727" style="fill: #1f77b4; stroke: #1f77b4"/>
     <use xlink:href="#maad7f81b04" x="237.783224" y="51.540827" style="fill: #1f77b4; stroke: #1f77b4"/>
     <use xlink:href="#maad7f81b04" x="239.414654" y="53.325534" style="fill: #1f77b4; stroke: #1f77b4"/>
     <use xlink:href="#maad7f81b04" x="241.046084" y="54.47868" style="fill: #1f77b4; stroke: #1f77b4"/>
     <use xlink:href="#maad7f81b04" x="242.677514" y="52.32098" style="fill: #1f77b4; stroke: #1f77b4"/>
     <use xlink:href="#maad7f81b04" x="244.308944" y="51.831575" style="fill: #1f77b4; stroke: #1f77b4"/>
     <use xlink:href="#maad7f81b04" x="245.940373" y="52.278525" style="fill: #1f77b4; stroke: #1f77b4"/>
     <use xlink:href="#maad7f81b04" x="247.571803" y="51.130334" style="fill: #1f77b4; stroke: #1f77b4"/>
     <use xlink:href="#maad7f81b04" x="249.203233" y="52.467063" style="fill: #1f77b4; stroke: #1f77b4"/>
     <use xlink:href="#maad7f81b04" x="250.834663" y="51.027284" style="fill: #1f77b4; stroke: #1f77b4"/>
     <use xlink:href="#maad7f81b04" x="252.466093" y="52.771141" style="fill: #1f77b4; stroke: #1f77b4"/>
     <use xlink:href="#maad7f81b04" x="254.097523" y="53.949122" style="fill: #1f77b4; stroke: #1f77b4"/>
     <use xlink:href="#maad7f81b04" x="255.728953" y="54.847224" style="fill: #1f77b4; stroke: #1f77b4"/>
     <use xlink:href="#maad7f81b04" x="257.360383" y="53.950611" style="fill: #1f77b4; stroke: #1f77b4"/>
     <use xlink:href="#maad7f81b04" x="258.991812" y="52.971021" style="fill: #1f77b4; stroke: #1f77b4"/>
     <use xlink:href="#maad7f81b04" x="260.623242" y="52.811626" style="fill: #1f77b4; stroke: #1f77b4"/>
     <use xlink:href="#maad7f81b04" x="262.254672" y="52.732815" style="fill: #1f77b4; stroke: #1f77b4"/>
     <use xlink:href="#maad7f81b04" x="263.886102" y="54.190878" style="fill: #1f77b4; stroke: #1f77b4"/>
     <use xlink:href="#maad7f81b04" x="265.517532" y="52.069855" style="fill: #1f77b4; stroke: #1f77b4"/>
     <use xlink:href="#maad7f81b04" x="267.148962" y="52.515263" style="fill: #1f77b4; stroke: #1f77b4"/>
     <use xlink:href="#maad7f81b04" x="268.780392" y="50.537215" style="fill: #1f77b4; stroke: #1f77b4"/>
     <use xlink:href="#maad7f81b04" x="270.411822" y="51.610045" style="fill: #1f77b4; stroke: #1f77b4"/>
     <use xlink:href="#maad7f81b04" x="272.043251" y="53.623974" style="fill: #1f77b4; stroke: #1f77b4"/>
     <use xlink:href="#maad7f81b04" x="273.674681" y="52.66632" style="fill: #1f77b4; stroke: #1f77b4"/>
     <use xlink:href="#maad7f81b04" x="275.306111" y="50.601073" style="fill: #1f77b4; stroke: #1f77b4"/>
     <use xlink:href="#maad7f81b04" x="276.937541" y="52.555854" style="fill: #1f77b4; stroke: #1f77b4"/>
     <use xlink:href="#maad7f81b04" x="278.568971" y="50.574997" style="fill: #1f77b4; stroke: #1f77b4"/>
     <use xlink:href="#maad7f81b04" x="280.200401" y="51.113" style="fill: #1f77b4; stroke: #1f77b4"/>
     <use xlink:href="#maad7f81b04" x="281.831831" y="51.600679" style="fill: #1f77b4; stroke: #1f77b4"/>
     <use xlink:href="#maad7f81b04" x="283.463261" y="51.419881" style="fill: #1f77b4; stroke: #1f77b4"/>
     <use xlink:href="#maad7f81b04" x="285.09469" y="51.264186" style="fill: #1f77b4; stroke: #1f77b4"/>
     <use xlink:href="#maad7f81b04" x="286.72612" y="53.064564" style="fill: #1f77b4; stroke: #1f77b4"/>
     <use xlink:href="#maad7f81b04" x="288.35755" y="50.639393" style="fill: #1f77b4; stroke: #1f77b4"/>
     <use xlink:href="#maad7f81b04" x="289.98898" y="51.31773" style="fill: #1f77b4; stroke: #1f77b4"/>
     <use xlink:href="#maad7f81b04" x="291.62041" y="50.854546" style="fill: #1f77b4; stroke: #1f77b4"/>
     <use xlink:href="#maad7f81b04" x="293.25184" y="49.871117" style="fill: #1f77b4; stroke: #1f77b4"/>
     <use xlink:href="#maad7f81b04" x="294.88327" y="50.721472" style="fill: #1f77b4; stroke: #1f77b4"/>
     <use xlink:href="#maad7f81b04" x="296.5147" y="49.518426" style="fill: #1f77b4; stroke: #1f77b4"/>
     <use xlink:href="#maad7f81b04" x="298.14613" y="51.562644" style="fill: #1f77b4; stroke: #1f77b4"/>
     <use xlink:href="#maad7f81b04" x="299.777559" y="51.454975" style="fill: #1f77b4; stroke: #1f77b4"/>
     <use xlink:href="#maad7f81b04" x="301.408989" y="51.402827" style="fill: #1f77b4; stroke: #1f77b4"/>
     <use xlink:href="#maad7f81b04" x="303.040419" y="50.913529" style="fill: #1f77b4; stroke: #1f77b4"/>
     <use xlink:href="#maad7f81b04" x="304.671849" y="51.083563" style="fill: #1f77b4; stroke: #1f77b4"/>
     <use xlink:href="#maad7f81b04" x="306.303279" y="51.443101" style="fill: #1f77b4; stroke: #1f77b4"/>
     <use xlink:href="#maad7f81b04" x="307.934709" y="49.934585" style="fill: #1f77b4; stroke: #1f77b4"/>
     <use xlink:href="#maad7f81b04" x="309.566139" y="51.79983" style="fill: #1f77b4; stroke: #1f77b4"/>
     <use xlink:href="#maad7f81b04" x="311.197569" y="51.257835" style="fill: #1f77b4; stroke: #1f77b4"/>
     <use xlink:href="#maad7f81b04" x="312.828998" y="50.921634" style="fill: #1f77b4; stroke: #1f77b4"/>
     <use xlink:href="#maad7f81b04" x="314.460428" y="50.67789" style="fill: #1f77b4; stroke: #1f77b4"/>
     <use xlink:href="#maad7f81b04" x="316.091858" y="50.674595" style="fill: #1f77b4; stroke: #1f77b4"/>
     <use xlink:href="#maad7f81b04" x="317.723288" y="51.164248" style="fill: #1f77b4; stroke: #1f77b4"/>
     <use xlink:href="#maad7f81b04" x="319.354718" y="51.164562" style="fill: #1f77b4; stroke: #1f77b4"/>
     <use xlink:href="#maad7f81b04" x="320.986148" y="51.907897" style="fill: #1f77b4; stroke: #1f77b4"/>
     <use xlink:href="#maad7f81b04" x="322.617578" y="50.137539" style="fill: #1f77b4; stroke: #1f77b4"/>
     <use xlink:href="#maad7f81b04" x="324.249008" y="50.406625" style="fill: #1f77b4; stroke: #1f77b4"/>
     <use xlink:href="#maad7f81b04" x="325.880437" y="50.776004" style="fill: #1f77b4; stroke: #1f77b4"/>
     <use xlink:href="#maad7f81b04" x="327.511867" y="49.060909" style="fill: #1f77b4; stroke: #1f77b4"/>
     <use xlink:href="#maad7f81b04" x="329.143297" y="49.814113" style="fill: #1f77b4; stroke: #1f77b4"/>
     <use xlink:href="#maad7f81b04" x="330.774727" y="50.254559" style="fill: #1f77b4; stroke: #1f77b4"/>
     <use xlink:href="#maad7f81b04" x="332.406157" y="49.968536" style="fill: #1f77b4; stroke: #1f77b4"/>
     <use xlink:href="#maad7f81b04" x="334.037587" y="49.895384" style="fill: #1f77b4; stroke: #1f77b4"/>
     <use xlink:href="#maad7f81b04" x="335.669017" y="49.912905" style="fill: #1f77b4; stroke: #1f77b4"/>
     <use xlink:href="#maad7f81b04" x="337.300447" y="50.270095" style="fill: #1f77b4; stroke: #1f77b4"/>
     <use xlink:href="#maad7f81b04" x="338.931876" y="49.663146" style="fill: #1f77b4; stroke: #1f77b4"/>
     <use xlink:href="#maad7f81b04" x="340.563306" y="49.260496" style="fill: #1f77b4; stroke: #1f77b4"/>
     <use xlink:href="#maad7f81b04" x="342.194736" y="49.347833" style="fill: #1f77b4; stroke: #1f77b4"/>
     <use xlink:href="#maad7f81b04" x="343.826166" y="51.241035" style="fill: #1f77b4; stroke: #1f77b4"/>
     <use xlink:href="#maad7f81b04" x="345.457596" y="50.467659" style="fill: #1f77b4; stroke: #1f77b4"/>
     <use xlink:href="#maad7f81b04" x="347.089026" y="50.500911" style="fill: #1f77b4; stroke: #1f77b4"/>
     <use xlink:href="#maad7f81b04" x="348.720456" y="49.690671" style="fill: #1f77b4; stroke: #1f77b4"/>
     <use xlink:href="#maad7f81b04" x="350.351886" y="49.106552" style="fill: #1f77b4; stroke: #1f77b4"/>
     <use xlink:href="#maad7f81b04" x="351.983315" y="48.86171" style="fill: #1f77b4; stroke: #1f77b4"/>
     <use xlink:href="#maad7f81b04" x="353.614745" y="49.433406" style="fill: #1f77b4; stroke: #1f77b4"/>
     <use xlink:href="#maad7f81b04" x="355.246175" y="49.411849" style="fill: #1f77b4; stroke: #1f77b4"/>
     <use xlink:href="#maad7f81b04" x="356.877605" y="48.214478" style="fill: #1f77b4; stroke: #1f77b4"/>
     <use xlink:href="#maad7f81b04" x="358.509035" y="51.024576" style="fill: #1f77b4; stroke: #1f77b4"/>
     <use xlink:href="#maad7f81b04" x="360.140465" y="48.74513" style="fill: #1f77b4; stroke: #1f77b4"/>
     <use xlink:href="#maad7f81b04" x="361.771895" y="49.211719" style="fill: #1f77b4; stroke: #1f77b4"/>
     <use xlink:href="#maad7f81b04" x="363.403325" y="47.801815" style="fill: #1f77b4; stroke: #1f77b4"/>
     <use xlink:href="#maad7f81b04" x="365.034754" y="49.847827" style="fill: #1f77b4; stroke: #1f77b4"/>
     <use xlink:href="#maad7f81b04" x="366.666184" y="50.52601" style="fill: #1f77b4; stroke: #1f77b4"/>
     <use xlink:href="#maad7f81b04" x="368.297614" y="49.930514" style="fill: #1f77b4; stroke: #1f77b4"/>
     <use xlink:href="#maad7f81b04" x="369.929044" y="47.861721" style="fill: #1f77b4; stroke: #1f77b4"/>
     <use xlink:href="#maad7f81b04" x="371.560474" y="48.754875" style="fill: #1f77b4; stroke: #1f77b4"/>
     <use xlink:href="#maad7f81b04" x="373.191904" y="49.62871" style="fill: #1f77b4; stroke: #1f77b4"/>
     <use xlink:href="#maad7f81b04" x="374.823334" y="49.740362" style="fill: #1f77b4; stroke: #1f77b4"/>
     <use xlink:href="#maad7f81b04" x="376.454764" y="48.755115" style="fill: #1f77b4; stroke: #1f77b4"/>
     <use xlink:href="#maad7f81b04" x="378.086193" y="49.809115" style="fill: #1f77b4; stroke: #1f77b4"/>
     <use xlink:href="#maad7f81b04" x="379.717623" y="47.258182" style="fill: #1f77b4; stroke: #1f77b4"/>
     <use xlink:href="#maad7f81b04" x="381.349053" y="48.141647" style="fill: #1f77b4; stroke: #1f77b4"/>
     <use xlink:href="#maad7f81b04" x="382.980483" y="48.581954" style="fill: #1f77b4; stroke: #1f77b4"/>
     <use xlink:href="#maad7f81b04" x="384.611913" y="49.340801" style="fill: #1f77b4; stroke: #1f77b4"/>
     <use xlink:href="#maad7f81b04" x="386.243343" y="49.186775" style="fill: #1f77b4; stroke: #1f77b4"/>
     <use xlink:href="#maad7f81b04" x="387.874773" y="52.146114" style="fill: #1f77b4; stroke: #1f77b4"/>
    </g>
   </g>
   <g id="line2d_12">
    <path d="M 63.220227 63.409482 
L 387.874773 63.794304 
L 387.874773 63.794304 
" clip-path="url(#p6b2c381f59)" style="fill: none; stroke: #d62728; stroke-width: 1.5; stroke-linecap: square"/>
   </g>
   <g id="patch_3">
    <path d="M 46.9875 162.72 
L 46.9875 41.76 
" style="fill: none; stroke: #000000; stroke-width: 0.8; stroke-linejoin: miter; stroke-linecap: square"/>
   </g>
   <g id="patch_4">
    <path d="M 404.1075 162.72 
L 404.1075 41.76 
" style="fill: none; stroke: #000000; stroke-width: 0.8; stroke-linejoin: miter; stroke-linecap: square"/>
   </g>
   <g id="patch_5">
    <path d="M 46.9875 162.72 
L 404.1075 162.72 
" style="fill: none; stroke: #000000; stroke-width: 0.8; stroke-linejoin: miter; stroke-linecap: square"/>
   </g>
   <g id="patch_6">
    <path d="M 46.9875 41.76 
L 404.1075 41.76 
" style="fill: none; stroke: #000000; stroke-width: 0.8; stroke-linejoin: miter; stroke-linecap: square"/>
   </g>
   <g id="text_6">
    <g id="patch_7">
     <path d="M 421.9635 95.079562 
L 545.2635 95.079562 
Q 549.2635 95.079562 549.2635 91.079562 
L 549.2635 47.808 
Q 549.2635 43.808 545.2635 43.808 
L 421.9635 43.808 
Q 417.9635 43.808 417.9635 47.808 
L 417.9635 91.079562 
Q 417.9635 95.079562 421.9635 95.079562 
z
" style="fill: #ffffff; opacity: 0.5; stroke: #000000; stroke-linejoin: miter"/>
    </g>
    <!-- Summary -->
    <g transform="translate(421.9635 55.406437) scale(0.1 -0.1)">
     <defs>
      <path id="DejaVuSans-53" d="M 3425 4513 
L 3425 3897 
Q 3066 4069 2747 4153 
Q 2428 4238 2131 4238 
Q 1616 4238 1336 4038 
Q 1056 3838 1056 3469 
Q 1056 3159 1242 3001 
Q 1428 2844 1947 2747 
L 2328 2669 
Q 3034 2534 3370 2195 
Q 3706 1856 3706 1288 
Q 3706 609 3251 259 
Q 2797 -91 1919 -91 
Q 1588 -91 1214 -16 
Q 841 59 441 206 
L 441 856 
Q 825 641 1194 531 
Q 1563 422 1919 422 
Q 2459 422 2753 634 
Q 3047 847 3047 1241 
Q 3047 1584 2836 1778 
Q 2625 1972 2144 2069 
L 1759 2144 
Q 1053 2284 737 2584 
Q 422 2884 422 3419 
Q 422 4038 858 4394 
Q 1294 4750 2059 4750 
Q 2388 4750 2728 4690 
Q 3069 4631 3425 4513 
z
" transform="scale(0.015625)"/>
      <path id="DejaVuSans-75" d="M 544 1381 
L 544 3500 
L 1119 3500 
L 1119 1403 
Q 1119 906 1312 657 
Q 1506 409 1894 409 
Q 2359 409 2629 706 
Q 2900 1003 2900 1516 
L 2900 3500 
L 3475 3500 
L 3475 0 
L 2900 0 
L 2900 538 
Q 2691 219 2414 64 
Q 2138 -91 1772 -91 
Q 1169 -91 856 284 
Q 544 659 544 1381 
z
M 1991 3584 
L 1991 3584 
z
" transform="scale(0.015625)"/>
      <path id="DejaVuSans-61" d="M 2194 1759 
Q 1497 1759 1228 1600 
Q 959 1441 959 1056 
Q 959 750 1161 570 
Q 1363 391 1709 391 
Q 2188 391 2477 730 
Q 2766 1069 2766 1631 
L 2766 1759 
L 2194 1759 
z
M 3341 1997 
L 3341 0 
L 2766 0 
L 2766 531 
Q 2569 213 2275 61 
Q 1981 -91 1556 -91 
Q 1019 -91 701 211 
Q 384 513 384 1019 
Q 384 1609 779 1909 
Q 1175 2209 1959 2209 
L 2766 2209 
L 2766 2266 
Q 2766 2663 2505 2880 
Q 2244 3097 1772 3097 
Q 1472 3097 1187 3025 
Q 903 2953 641 2809 
L 641 3341 
Q 956 3463 1253 3523 
Q 1550 3584 1831 3584 
Q 2591 3584 2966 3190 
Q 3341 2797 3341 1997 
z
" transform="scale(0.015625)"/>
      <path id="DejaVuSans-72" d="M 2631 2963 
Q 2534 3019 2420 3045 
Q 2306 3072 2169 3072 
Q 1681 3072 1420 2755 
Q 1159 2438 1159 1844 
L 1159 0 
L 581 0 
L 581 3500 
L 1159 3500 
L 1159 2956 
Q 1341 3275 1631 3429 
Q 1922 3584 2338 3584 
Q 2397 3584 2469 3576 
Q 2541 3569 2628 3553 
L 2631 2963 
z
" transform="scale(0.015625)"/>
      <path id="DejaVuSans-79" d="M 2059 -325 
Q 1816 -950 1584 -1140 
Q 1353 -1331 966 -1331 
L 506 -1331 
L 506 -850 
L 844 -850 
Q 1081 -850 1212 -737 
Q 1344 -625 1503 -206 
L 1606 56 
L 191 3500 
L 800 3500 
L 1894 763 
L 2988 3500 
L 3597 3500 
L 2059 -325 
z
" transform="scale(0.015625)"/>
     </defs>
     <use xlink:href="#DejaVuSans-53"/>
     <use xlink:href="#DejaVuSans-75" x="63.476562"/>
     <use xlink:href="#DejaVuSans-6d" x="126.855469"/>
     <use xlink:href="#DejaVuSans-6d" x="224.267578"/>
     <use xlink:href="#DejaVuSans-61" x="321.679688"/>
     <use xlink:href="#DejaVuSans-72" x="382.958984"/>
     <use xlink:href="#DejaVuSans-79" x="424.072266"/>
    </g>
    <!-- $Q_I$: 85.$\pm$1.2e+05  -->
    <g transform="translate(421.9635 66.60425) scale(0.1 -0.1)">
     <defs>
      <path id="DejaVuSans-Oblique-51" d="M 2309 -84 
Q 2275 -88 2237 -89 
Q 2200 -91 2125 -91 
Q 1250 -91 756 411 
Q 263 913 263 1797 
Q 263 2319 452 2844 
Q 641 3369 978 3788 
Q 1369 4269 1858 4509 
Q 2347 4750 2938 4750 
Q 3794 4750 4287 4245 
Q 4781 3741 4781 2869 
Q 4781 1928 4265 1147 
Q 3750 366 2919 44 
L 3553 -825 
L 2847 -825 
L 2309 -84 
z
M 2919 4238 
Q 2400 4238 2003 3986 
Q 1606 3734 1313 3219 
Q 1125 2891 1026 2522 
Q 928 2153 928 1778 
Q 928 1128 1239 775 
Q 1550 422 2119 422 
Q 2631 422 3032 676 
Q 3434 931 3719 1434 
Q 3909 1772 4009 2142 
Q 4109 2513 4109 2881 
Q 4109 3528 3796 3883 
Q 3484 4238 2919 4238 
z
" transform="scale(0.015625)"/>
      <path id="DejaVuSans-Oblique-49" d="M 1081 4666 
L 1716 4666 
L 806 0 
L 172 0 
L 1081 4666 
z
" transform="scale(0.015625)"/>
      <path id="DejaVuSans-3a" d="M 750 794 
L 1409 794 
L 1409 0 
L 750 0 
L 750 794 
z
M 750 3309 
L 1409 3309 
L 1409 2516 
L 750 2516 
L 750 3309 
z
" transform="scale(0.015625)"/>
      <path id="DejaVuSans-35" d="M 691 4666 
L 3169 4666 
L 3169 4134 
L 1269 4134 
L 1269 2991 
Q 1406 3038 1543 3061 
Q 1681 3084 1819 3084 
Q 2600 3084 3056 2656 
Q 3513 2228 3513 1497 
Q 3513 744 3044 326 
Q 2575 -91 1722 -91 
Q 1428 -91 1123 -41 
Q 819 9 494 109 
L 494 744 
Q 775 591 1075 516 
Q 1375 441 1709 441 
Q 2250 441 2565 725 
Q 2881 1009 2881 1497 
Q 2881 1984 2565 2268 
Q 2250 2553 1709 2553 
Q 1456 2553 1204 2497 
Q 953 2441 691 2322 
L 691 4666 
z
" transform="scale(0.015625)"/>
      <path id="DejaVuSans-2e" d="M 684 794 
L 1344 794 
L 1344 0 
L 684 0 
L 684 794 
z
" transform="scale(0.015625)"/>
      <path id="DejaVuSans-b1" d="M 2944 4013 
L 2944 2803 
L 4684 2803 
L 4684 2272 
L 2944 2272 
L 2944 1063 
L 2419 1063 
L 2419 2272 
L 678 2272 
L 678 2803 
L 2419 2803 
L 2419 4013 
L 2944 4013 
z
M 678 531 
L 4684 531 
L 4684 0 
L 678 0 
L 678 531 
z
" transform="scale(0.015625)"/>
      <path id="DejaVuSans-65" d="M 3597 1894 
L 3597 1613 
L 953 1613 
Q 991 1019 1311 708 
Q 1631 397 2203 397 
Q 2534 397 2845 478 
Q 3156 559 3463 722 
L 3463 178 
Q 3153 47 2828 -22 
Q 2503 -91 2169 -91 
Q 1331 -91 842 396 
Q 353 884 353 1716 
Q 353 2575 817 3079 
Q 1281 3584 2069 3584 
Q 2775 3584 3186 3129 
Q 3597 2675 3597 1894 
z
M 3022 2063 
Q 3016 2534 2758 2815 
Q 2500 3097 2075 3097 
Q 1594 3097 1305 2825 
Q 1016 2553 972 2059 
L 3022 2063 
z
" transform="scale(0.015625)"/>
      <path id="DejaVuSans-2b" d="M 2944 4013 
L 2944 2272 
L 4684 2272 
L 4684 1741 
L 2944 1741 
L 2944 0 
L 2419 0 
L 2419 1741 
L 678 1741 
L 678 2272 
L 2419 2272 
L 2419 4013 
L 2944 4013 
z
" transform="scale(0.015625)"/>
     </defs>
     <use xlink:href="#DejaVuSans-Oblique-51" transform="translate(0 0.78125)"/>
     <use xlink:href="#DejaVuSans-Oblique-49" transform="translate(78.710938 -15.625) scale(0.7)"/>
     <use xlink:href="#DejaVuSans-3a" transform="translate(102.089844 0.78125)"/>
     <use xlink:href="#DejaVuSans-20" transform="translate(135.78125 0.78125)"/>
     <use xlink:href="#DejaVuSans-38" transform="translate(167.568359 0.78125)"/>
     <use xlink:href="#DejaVuSans-35" transform="translate(231.191406 0.78125)"/>
     <use xlink:href="#DejaVuSans-2e" transform="translate(294.814453 0.78125)"/>
     <use xlink:href="#DejaVuSans-b1" transform="translate(326.601562 0.78125)"/>
     <use xlink:href="#DejaVuSans-31" transform="translate(410.390625 0.78125)"/>
     <use xlink:href="#DejaVuSans-2e" transform="translate(474.013672 0.78125)"/>
     <use xlink:href="#DejaVuSans-32" transform="translate(500.300781 0.78125)"/>
     <use xlink:href="#DejaVuSans-65" transform="translate(563.923828 0.78125)"/>
     <use xlink:href="#DejaVuSans-2b" transform="translate(625.447266 0.78125)"/>
     <use xlink:href="#DejaVuSans-30" transform="translate(709.236328 0.78125)"/>
     <use xlink:href="#DejaVuSans-35" transform="translate(772.859375 0.78125)"/>
     <use xlink:href="#DejaVuSans-20" transform="translate(836.482422 0.78125)"/>
    </g>
    <!-- $Q_C$: 1.6e+02$\pm$2.1e+07 k -->
    <g transform="translate(421.9635 77.802062) scale(0.1 -0.1)">
     <defs>
      <path id="DejaVuSans-Oblique-43" d="M 4447 4306 
L 4319 3641 
Q 4019 3944 3683 4091 
Q 3347 4238 2956 4238 
Q 2422 4238 2017 3981 
Q 1613 3725 1319 3200 
Q 1131 2863 1032 2486 
Q 934 2109 934 1728 
Q 934 1091 1264 756 
Q 1594 422 2222 422 
Q 2656 422 3056 561 
Q 3456 700 3834 978 
L 3688 231 
Q 3316 72 2936 -9 
Q 2556 -91 2175 -91 
Q 1278 -91 773 396 
Q 269 884 269 1753 
Q 269 2309 461 2846 
Q 653 3384 1013 3828 
Q 1394 4300 1883 4525 
Q 2372 4750 3022 4750 
Q 3422 4750 3780 4639 
Q 4138 4528 4447 4306 
z
" transform="scale(0.015625)"/>
      <path id="DejaVuSans-37" d="M 525 4666 
L 3525 4666 
L 3525 4397 
L 1831 0 
L 1172 0 
L 2766 4134 
L 525 4134 
L 525 4666 
z
" transform="scale(0.015625)"/>
      <path id="DejaVuSans-6b" d="M 581 4863 
L 1159 4863 
L 1159 1991 
L 2875 3500 
L 3609 3500 
L 1753 1863 
L 3688 0 
L 2938 0 
L 1159 1709 
L 1159 0 
L 581 0 
L 581 4863 
z
" transform="scale(0.015625)"/>
     </defs>
     <use xlink:href="#DejaVuSans-Oblique-51" transform="translate(0 0.015625)"/>
     <use xlink:href="#DejaVuSans-Oblique-43" transform="translate(78.710938 -16.390625) scale(0.7)"/>
     <use xlink:href="#DejaVuSans-3a" transform="translate(130.322266 0.015625)"/>
     <use xlink:href="#DejaVuSans-20" transform="translate(164.013672 0.015625)"/>
     <use xlink:href="#DejaVuSans-31" transform="translate(195.800781 0.015625)"/>
     <use xlink:href="#DejaVuSans-2e" transform="translate(259.423828 0.015625)"/>
     <use xlink:href="#DejaVuSans-36" transform="translate(291.210938 0.015625)"/>
     <use xlink:href="#DejaVuSans-65" transform="translate(354.833984 0.015625)"/>
     <use xlink:href="#DejaVuSans-2b" transform="translate(416.357422 0.015625)"/>
     <use xlink:href="#DejaVuSans-30" transform="translate(500.146484 0.015625)"/>
     <use xlink:href="#DejaVuSans-32" transform="translate(563.769531 0.015625)"/>
     <use xlink:href="#DejaVuSans-b1" transform="translate(627.392578 0.015625)"/>
     <use xlink:href="#DejaVuSans-32" transform="translate(711.181641 0.015625)"/>
     <use xlink:href="#DejaVuSans-2e" transform="translate(774.804688 0.015625)"/>
     <use xlink:href="#DejaVuSans-31" transform="translate(806.591797 0.015625)"/>
     <use xlink:href="#DejaVuSans-65" transform="translate(870.214844 0.015625)"/>
     <use xlink:href="#DejaVuSans-2b" transform="translate(931.738281 0.015625)"/>
     <use xlink:href="#DejaVuSans-30" transform="translate(1015.527344 0.015625)"/>
     <use xlink:href="#DejaVuSans-37" transform="translate(1079.150391 0.015625)"/>
     <use xlink:href="#DejaVuSans-20" transform="translate(1142.773438 0.015625)"/>
     <use xlink:href="#DejaVuSans-6b" transform="translate(1174.560547 0.015625)"/>
    </g>
    <!-- $f_{res}$: 6$\pm$50 GHz -->
    <g transform="translate(421.9635 88.999875) scale(0.1 -0.1)">
     <defs>
      <path id="DejaVuSans-Oblique-66" d="M 3059 4863 
L 2969 4384 
L 2419 4384 
Q 2106 4384 1964 4261 
Q 1822 4138 1753 3809 
L 1691 3500 
L 2638 3500 
L 2553 3053 
L 1606 3053 
L 1013 0 
L 434 0 
L 1031 3053 
L 481 3053 
L 563 3500 
L 1113 3500 
L 1159 3744 
Q 1278 4363 1576 4613 
Q 1875 4863 2516 4863 
L 3059 4863 
z
" transform="scale(0.015625)"/>
      <path id="DejaVuSans-Oblique-72" d="M 2853 2969 
Q 2766 3016 2653 3041 
Q 2541 3066 2413 3066 
Q 1953 3066 1609 2717 
Q 1266 2369 1153 1784 
L 800 0 
L 225 0 
L 909 3500 
L 1484 3500 
L 1375 2956 
Q 1603 3259 1920 3421 
Q 2238 3584 2597 3584 
Q 2691 3584 2781 3573 
Q 2872 3563 2963 3538 
L 2853 2969 
z
" transform="scale(0.015625)"/>
      <path id="DejaVuSans-Oblique-65" d="M 3078 2063 
Q 3088 2113 3092 2166 
Q 3097 2219 3097 2272 
Q 3097 2653 2873 2875 
Q 2650 3097 2266 3097 
Q 1838 3097 1509 2826 
Q 1181 2556 1013 2059 
L 3078 2063 
z
M 3578 1613 
L 903 1613 
Q 884 1494 878 1425 
Q 872 1356 872 1306 
Q 872 872 1139 634 
Q 1406 397 1894 397 
Q 2269 397 2603 481 
Q 2938 566 3225 728 
L 3116 159 
Q 2806 34 2476 -28 
Q 2147 -91 1806 -91 
Q 1078 -91 686 257 
Q 294 606 294 1247 
Q 294 1794 489 2264 
Q 684 2734 1063 3103 
Q 1306 3334 1642 3459 
Q 1978 3584 2356 3584 
Q 2950 3584 3301 3228 
Q 3653 2872 3653 2272 
Q 3653 2128 3634 1964 
Q 3616 1800 3578 1613 
z
" transform="scale(0.015625)"/>
      <path id="DejaVuSans-Oblique-73" d="M 3200 3397 
L 3091 2853 
Q 2863 2978 2609 3040 
Q 2356 3103 2088 3103 
Q 1634 3103 1373 2948 
Q 1113 2794 1113 2528 
Q 1113 2219 1719 2053 
Q 1766 2041 1788 2034 
L 1972 1978 
Q 2547 1819 2739 1644 
Q 2931 1469 2931 1166 
Q 2931 609 2489 259 
Q 2047 -91 1331 -91 
Q 1053 -91 747 -37 
Q 441 16 72 128 
L 184 722 
Q 500 559 806 475 
Q 1113 391 1394 391 
Q 1816 391 2080 572 
Q 2344 753 2344 1031 
Q 2344 1331 1650 1516 
L 1591 1531 
L 1394 1581 
Q 956 1697 753 1886 
Q 550 2075 550 2369 
Q 550 2928 970 3256 
Q 1391 3584 2113 3584 
Q 2397 3584 2667 3537 
Q 2938 3491 3200 3397 
z
" transform="scale(0.015625)"/>
      <path id="DejaVuSans-47" d="M 3809 666 
L 3809 1919 
L 2778 1919 
L 2778 2438 
L 4434 2438 
L 4434 434 
Q 4069 175 3628 42 
Q 3188 -91 2688 -91 
Q 1594 -91 976 548 
Q 359 1188 359 2328 
Q 359 3472 976 4111 
Q 1594 4750 2688 4750 
Q 3144 4750 3555 4637 
Q 3966 4525 4313 4306 
L 4313 3634 
Q 3963 3931 3569 4081 
Q 3175 4231 2741 4231 
Q 1884 4231 1454 3753 
Q 1025 3275 1025 2328 
Q 1025 1384 1454 906 
Q 1884 428 2741 428 
Q 3075 428 3337 486 
Q 3600 544 3809 666 
z
" transform="scale(0.015625)"/>
      <path id="DejaVuSans-48" d="M 628 4666 
L 1259 4666 
L 1259 2753 
L 3553 2753 
L 3553 4666 
L 4184 4666 
L 4184 0 
L 3553 0 
L 3553 2222 
L 1259 2222 
L 1259 0 
L 628 0 
L 628 4666 
z
" transform="scale(0.015625)"/>
      <path id="DejaVuSans-7a" d="M 353 3500 
L 3084 3500 
L 3084 2975 
L 922 459 
L 3084 459 
L 3084 0 
L 275 0 
L 275 525 
L 2438 3041 
L 353 3041 
L 353 3500 
z
" transform="scale(0.015625)"/>
     </defs>
     <use xlink:href="#DejaVuSans-Oblique-66" transform="translate(0 0.015625)"/>
     <use xlink:href="#DejaVuSans-Oblique-72" transform="translate(35.205078 -16.390625) scale(0.7)"/>
     <use xlink:href="#DejaVuSans-Oblique-65" transform="translate(63.984375 -16.390625) scale(0.7)"/>
     <use xlink:href="#DejaVuSans-Oblique-73" transform="translate(107.050781 -16.390625) scale(0.7)"/>
     <use xlink:href="#DejaVuSans-3a" transform="translate(146.254883 0.015625)"/>
     <use xlink:href="#DejaVuSans-20" transform="translate(179.946289 0.015625)"/>
     <use xlink:href="#DejaVuSans-36" transform="translate(211.733398 0.015625)"/>
     <use xlink:href="#DejaVuSans-b1" transform="translate(275.356445 0.015625)"/>
     <use xlink:href="#DejaVuSans-35" transform="translate(359.145508 0.015625)"/>
     <use xlink:href="#DejaVuSans-30" transform="translate(422.768555 0.015625)"/>
     <use xlink:href="#DejaVuSans-20" transform="translate(486.391602 0.015625)"/>
     <use xlink:href="#DejaVuSans-47" transform="translate(518.178711 0.015625)"/>
     <use xlink:href="#DejaVuSans-48" transform="translate(595.668945 0.015625)"/>
     <use xlink:href="#DejaVuSans-7a" transform="translate(670.864258 0.015625)"/>
    </g>
   </g>
  </g>
  <g id="axes_2">
   <g id="patch_8">
    <path d="M 46.9875 307.872 
L 404.1075 307.872 
L 404.1075 186.912 
L 46.9875 186.912 
z
" style="fill: #ffffff"/>
   </g>
   <g id="matplotlib.axis_3">
    <g id="xtick_7">
     <g id="line2d_13">
      <g>
       <use xlink:href="#ma6e50770fd" x="46.9875" y="307.872" style="stroke: #000000; stroke-width: 0.8"/>
      </g>
     </g>
     <g id="text_7">
      <!-- 8 -->
      <g transform="translate(43.80625 322.470438) scale(0.1 -0.1)">
       <use xlink:href="#DejaVuSans-38"/>
      </g>
     </g>
    </g>
    <g id="xtick_8">
     <g id="line2d_14">
      <g>
       <use xlink:href="#ma6e50770fd" x="111.918409" y="307.872" style="stroke: #000000; stroke-width: 0.8"/>
      </g>
     </g>
     <g id="text_8">
      <!-- 10 -->
      <g transform="translate(105.555909 322.470438) scale(0.1 -0.1)">
       <use xlink:href="#DejaVuSans-31"/>
       <use xlink:href="#DejaVuSans-30" x="63.623047"/>
      </g>
     </g>
    </g>
    <g id="xtick_9">
     <g id="line2d_15">
      <g>
       <use xlink:href="#ma6e50770fd" x="176.849318" y="307.872" style="stroke: #000000; stroke-width: 0.8"/>
      </g>
     </g>
     <g id="text_9">
      <!-- 12 -->
      <g transform="translate(170.486818 322.470438) scale(0.1 -0.1)">
       <use xlink:href="#DejaVuSans-31"/>
       <use xlink:href="#DejaVuSans-32" x="63.623047"/>
      </g>
     </g>
    </g>
    <g id="xtick_10">
     <g id="line2d_16">
      <g>
       <use xlink:href="#ma6e50770fd" x="241.780227" y="307.872" style="stroke: #000000; stroke-width: 0.8"/>
      </g>
     </g>
     <g id="text_10">
      <!-- 14 -->
      <g transform="translate(235.417727 322.470438) scale(0.1 -0.1)">
       <use xlink:href="#DejaVuSans-31"/>
       <use xlink:href="#DejaVuSans-34" x="63.623047"/>
      </g>
     </g>
    </g>
    <g id="xtick_11">
     <g id="line2d_17">
      <g>
       <use xlink:href="#ma6e50770fd" x="306.711136" y="307.872" style="stroke: #000000; stroke-width: 0.8"/>
      </g>
     </g>
     <g id="text_11">
      <!-- 16 -->
      <g transform="translate(300.348636 322.470438) scale(0.1 -0.1)">
       <use xlink:href="#DejaVuSans-31"/>
       <use xlink:href="#DejaVuSans-36" x="63.623047"/>
      </g>
     </g>
    </g>
    <g id="xtick_12">
     <g id="line2d_18">
      <g>
       <use xlink:href="#ma6e50770fd" x="371.642045" y="307.872" style="stroke: #000000; stroke-width: 0.8"/>
      </g>
     </g>
     <g id="text_12">
      <!-- 18 -->
      <g transform="translate(365.279545 322.470438) scale(0.1 -0.1)">
       <use xlink:href="#DejaVuSans-31"/>
       <use xlink:href="#DejaVuSans-38" x="63.623047"/>
      </g>
     </g>
    </g>
    <g id="text_13">
     <!-- Frequency [MHz] -->
     <g transform="translate(183.52875 336.148562) scale(0.1 -0.1)">
      <defs>
       <path id="DejaVuSans-46" d="M 628 4666 
L 3309 4666 
L 3309 4134 
L 1259 4134 
L 1259 2759 
L 3109 2759 
L 3109 2228 
L 1259 2228 
L 1259 0 
L 628 0 
L 628 4666 
z
" transform="scale(0.015625)"/>
       <path id="DejaVuSans-71" d="M 947 1747 
Q 947 1113 1208 752 
Q 1469 391 1925 391 
Q 2381 391 2643 752 
Q 2906 1113 2906 1747 
Q 2906 2381 2643 2742 
Q 2381 3103 1925 3103 
Q 1469 3103 1208 2742 
Q 947 2381 947 1747 
z
M 2906 525 
Q 2725 213 2448 61 
Q 2172 -91 1784 -91 
Q 1150 -91 751 415 
Q 353 922 353 1747 
Q 353 2572 751 3078 
Q 1150 3584 1784 3584 
Q 2172 3584 2448 3432 
Q 2725 3281 2906 2969 
L 2906 3500 
L 3481 3500 
L 3481 -1331 
L 2906 -1331 
L 2906 525 
z
" transform="scale(0.015625)"/>
       <path id="DejaVuSans-6e" d="M 3513 2113 
L 3513 0 
L 2938 0 
L 2938 2094 
Q 2938 2591 2744 2837 
Q 2550 3084 2163 3084 
Q 1697 3084 1428 2787 
Q 1159 2491 1159 1978 
L 1159 0 
L 581 0 
L 581 3500 
L 1159 3500 
L 1159 2956 
Q 1366 3272 1645 3428 
Q 1925 3584 2291 3584 
Q 2894 3584 3203 3211 
Q 3513 2838 3513 2113 
z
" transform="scale(0.015625)"/>
       <path id="DejaVuSans-63" d="M 3122 3366 
L 3122 2828 
Q 2878 2963 2633 3030 
Q 2388 3097 2138 3097 
Q 1578 3097 1268 2742 
Q 959 2388 959 1747 
Q 959 1106 1268 751 
Q 1578 397 2138 397 
Q 2388 397 2633 464 
Q 2878 531 3122 666 
L 3122 134 
Q 2881 22 2623 -34 
Q 2366 -91 2075 -91 
Q 1284 -91 818 406 
Q 353 903 353 1747 
Q 353 2603 823 3093 
Q 1294 3584 2113 3584 
Q 2378 3584 2631 3529 
Q 2884 3475 3122 3366 
z
" transform="scale(0.015625)"/>
       <path id="DejaVuSans-4d" d="M 628 4666 
L 1569 4666 
L 2759 1491 
L 3956 4666 
L 4897 4666 
L 4897 0 
L 4281 0 
L 4281 4097 
L 3078 897 
L 2444 897 
L 1241 4097 
L 1241 0 
L 628 0 
L 628 4666 
z
" transform="scale(0.015625)"/>
      </defs>
      <use xlink:href="#DejaVuSans-46"/>
      <use xlink:href="#DejaVuSans-72" x="50.269531"/>
      <use xlink:href="#DejaVuSans-65" x="89.132812"/>
      <use xlink:href="#DejaVuSans-71" x="150.65625"/>
      <use xlink:href="#DejaVuSans-75" x="214.132812"/>
      <use xlink:href="#DejaVuSans-65" x="277.511719"/>
      <use xlink:href="#DejaVuSans-6e" x="339.035156"/>
      <use xlink:href="#DejaVuSans-63" x="402.414062"/>
      <use xlink:href="#DejaVuSans-79" x="457.394531"/>
      <use xlink:href="#DejaVuSans-20" x="516.574219"/>
      <use xlink:href="#DejaVuSans-5b" x="548.361328"/>
      <use xlink:href="#DejaVuSans-4d" x="587.375"/>
      <use xlink:href="#DejaVuSans-48" x="673.654297"/>
      <use xlink:href="#DejaVuSans-7a" x="748.849609"/>
      <use xlink:href="#DejaVuSans-5d" x="801.339844"/>
     </g>
    </g>
    <g id="text_14">
     <!-- +6 GHz -->
     <g transform="translate(365.67 335.148562) scale(0.1 -0.1)">
      <use xlink:href="#DejaVuSans-2b"/>
      <use xlink:href="#DejaVuSans-36" x="83.789062"/>
      <use xlink:href="#DejaVuSans-20" x="147.412109"/>
      <use xlink:href="#DejaVuSans-47" x="179.199219"/>
      <use xlink:href="#DejaVuSans-48" x="256.689453"/>
      <use xlink:href="#DejaVuSans-7a" x="331.884766"/>
     </g>
    </g>
   </g>
   <g id="matplotlib.axis_4">
    <g id="ytick_5">
     <g id="line2d_19">
      <g>
       <use xlink:href="#med943f71fb" x="46.9875" y="297.489124" style="stroke: #000000; stroke-width: 0.8"/>
      </g>
     </g>
     <g id="text_15">
      <!-- 40 -->
      <g transform="translate(27.2625 301.288343) scale(0.1 -0.1)">
       <use xlink:href="#DejaVuSans-34"/>
       <use xlink:href="#DejaVuSans-30" x="63.623047"/>
      </g>
     </g>
    </g>
    <g id="ytick_6">
     <g id="line2d_20">
      <g>
       <use xlink:href="#med943f71fb" x="46.9875" y="271.983923" style="stroke: #000000; stroke-width: 0.8"/>
      </g>
     </g>
     <g id="text_16">
      <!-- 60 -->
      <g transform="translate(27.2625 275.783142) scale(0.1 -0.1)">
       <use xlink:href="#DejaVuSans-36"/>
       <use xlink:href="#DejaVuSans-30" x="63.623047"/>
      </g>
     </g>
    </g>
    <g id="ytick_7">
     <g id="line2d_21">
      <g>
       <use xlink:href="#med943f71fb" x="46.9875" y="246.478723" style="stroke: #000000; stroke-width: 0.8"/>
      </g>
     </g>
     <g id="text_17">
      <!-- 80 -->
      <g transform="translate(27.2625 250.277942) scale(0.1 -0.1)">
       <use xlink:href="#DejaVuSans-38"/>
       <use xlink:href="#DejaVuSans-30" x="63.623047"/>
      </g>
     </g>
    </g>
    <g id="ytick_8">
     <g id="line2d_22">
      <g>
       <use xlink:href="#med943f71fb" x="46.9875" y="220.973523" style="stroke: #000000; stroke-width: 0.8"/>
      </g>
     </g>
     <g id="text_18">
      <!-- 100 -->
      <g transform="translate(20.9 224.772741) scale(0.1 -0.1)">
       <use xlink:href="#DejaVuSans-31"/>
       <use xlink:href="#DejaVuSans-30" x="63.623047"/>
       <use xlink:href="#DejaVuSans-30" x="127.246094"/>
      </g>
     </g>
    </g>
    <g id="ytick_9">
     <g id="line2d_23">
      <g>
       <use xlink:href="#med943f71fb" x="46.9875" y="195.468322" style="stroke: #000000; stroke-width: 0.8"/>
      </g>
     </g>
     <g id="text_19">
      <!-- 120 -->
      <g transform="translate(20.9 199.267541) scale(0.1 -0.1)">
       <use xlink:href="#DejaVuSans-31"/>
       <use xlink:href="#DejaVuSans-32" x="63.623047"/>
       <use xlink:href="#DejaVuSans-30" x="127.246094"/>
      </g>
     </g>
    </g>
    <g id="text_20">
     <!-- $\angle S_{21}$ [deg] -->
     <g transform="translate(14.8 274.592) rotate(-90) scale(0.1 -0.1)">
      <defs>
       <path id="DejaVuSans-2220" d="M 5028 631 
L 5028 0 
L 547 0 
L 3525 4666 
L 4281 4666 
L 1716 631 
L 5028 631 
z
" transform="scale(0.015625)"/>
       <path id="DejaVuSans-64" d="M 2906 2969 
L 2906 4863 
L 3481 4863 
L 3481 0 
L 2906 0 
L 2906 525 
Q 2725 213 2448 61 
Q 2172 -91 1784 -91 
Q 1150 -91 751 415 
Q 353 922 353 1747 
Q 353 2572 751 3078 
Q 1150 3584 1784 3584 
Q 2172 3584 2448 3432 
Q 2725 3281 2906 2969 
z
M 947 1747 
Q 947 1113 1208 752 
Q 1469 391 1925 391 
Q 2381 391 2643 752 
Q 2906 1113 2906 1747 
Q 2906 2381 2643 2742 
Q 2381 3103 1925 3103 
Q 1469 3103 1208 2742 
Q 947 2381 947 1747 
z
" transform="scale(0.015625)"/>
       <path id="DejaVuSans-67" d="M 2906 1791 
Q 2906 2416 2648 2759 
Q 2391 3103 1925 3103 
Q 1463 3103 1205 2759 
Q 947 2416 947 1791 
Q 947 1169 1205 825 
Q 1463 481 1925 481 
Q 2391 481 2648 825 
Q 2906 1169 2906 1791 
z
M 3481 434 
Q 3481 -459 3084 -895 
Q 2688 -1331 1869 -1331 
Q 1566 -1331 1297 -1286 
Q 1028 -1241 775 -1147 
L 775 -588 
Q 1028 -725 1275 -790 
Q 1522 -856 1778 -856 
Q 2344 -856 2625 -561 
Q 2906 -266 2906 331 
L 2906 616 
Q 2728 306 2450 153 
Q 2172 0 1784 0 
Q 1141 0 747 490 
Q 353 981 353 1791 
Q 353 2603 747 3093 
Q 1141 3584 1784 3584 
Q 2172 3584 2450 3431 
Q 2728 3278 2906 2969 
L 2906 3500 
L 3481 3500 
L 3481 434 
z
" transform="scale(0.015625)"/>
      </defs>
      <use xlink:href="#DejaVuSans-2220" transform="translate(0 0.015625)"/>
      <use xlink:href="#DejaVuSans-Oblique-53" transform="translate(89.648438 0.015625)"/>
      <use xlink:href="#DejaVuSans-32" transform="translate(153.125 -16.390625) scale(0.7)"/>
      <use xlink:href="#DejaVuSans-31" transform="translate(197.661133 -16.390625) scale(0.7)"/>
      <use xlink:href="#DejaVuSans-20" transform="translate(244.931641 0.015625)"/>
      <use xlink:href="#DejaVuSans-5b" transform="translate(276.71875 0.015625)"/>
      <use xlink:href="#DejaVuSans-64" transform="translate(315.732422 0.015625)"/>
      <use xlink:href="#DejaVuSans-65" transform="translate(379.208984 0.015625)"/>
      <use xlink:href="#DejaVuSans-67" transform="translate(440.732422 0.015625)"/>
      <use xlink:href="#DejaVuSans-5d" transform="translate(504.208984 0.015625)"/>
     </g>
    </g>
   </g>
   <g id="line2d_24">
    <path d="M 63.220227 192.441915 
L 64.851657 193.882282 
L 66.483087 192.410182 
L 68.114517 193.819611 
L 69.745947 194.024676 
L 71.377377 195.886767 
L 73.008807 196.17065 
L 74.640236 197.306186 
L 76.271666 197.457067 
L 77.903096 199.484575 
L 79.534526 200.757271 
L 81.165956 202.914691 
L 82.797386 203.777261 
L 84.428816 205.078175 
L 86.060246 206.981962 
L 87.691675 209.776408 
L 90.954535 211.144533 
L 92.585965 213.333369 
L 94.217395 214.5466 
L 95.848825 214.094335 
L 97.480255 216.355652 
L 99.111685 217.458352 
L 100.743114 219.204262 
L 102.374544 220.59059 
L 104.005974 221.336372 
L 105.637404 221.505524 
L 107.268834 224.058894 
L 108.900264 223.944274 
L 110.531694 224.568333 
L 113.794553 226.939229 
L 115.425983 227.924867 
L 117.057413 228.027513 
L 118.688843 228.706777 
L 120.320273 231.323606 
L 121.951703 231.851568 
L 123.583133 231.892237 
L 125.214563 232.765559 
L 126.845992 234.415475 
L 128.477422 234.829603 
L 130.108852 235.750872 
L 131.740282 235.444174 
L 133.371712 237.277218 
L 135.003142 237.340573 
L 136.634572 237.919711 
L 138.266002 237.851639 
L 139.897431 239.637508 
L 141.528861 238.950022 
L 143.160291 241.339509 
L 146.423151 242.568777 
L 148.054581 242.547281 
L 149.686011 243.998322 
L 151.317441 244.261344 
L 152.94887 245.03072 
L 154.5803 245.355369 
L 156.21173 246.314267 
L 157.84316 245.812355 
L 159.47459 247.112389 
L 161.10602 247.465382 
L 162.73745 247.624131 
L 164.36888 249.367889 
L 166.00031 248.516114 
L 167.631739 249.469582 
L 169.263169 249.897594 
L 170.894599 251.435797 
L 172.526029 251.025223 
L 174.157459 251.671978 
L 177.420319 253.793385 
L 179.051749 254.244456 
L 180.683178 254.819736 
L 182.314608 254.140437 
L 183.946038 255.317461 
L 187.208898 256.513667 
L 188.840328 257.943462 
L 190.471758 256.465502 
L 192.103188 258.300445 
L 193.734617 258.153339 
L 195.366047 259.386709 
L 198.628907 258.949296 
L 200.260337 259.581701 
L 203.523197 260.589873 
L 205.154627 262.06015 
L 206.786056 261.244822 
L 208.417486 261.83758 
L 210.048916 262.724856 
L 211.680346 262.903552 
L 213.311776 264.109097 
L 214.943206 263.438223 
L 216.574636 264.581717 
L 218.206066 264.969949 
L 221.468925 265.577598 
L 223.100355 265.424041 
L 224.731785 266.070579 
L 226.363215 267.578792 
L 227.994645 266.636401 
L 229.626075 268.365497 
L 231.257505 268.22342 
L 234.520364 268.204085 
L 236.151794 270.18109 
L 237.783224 269.966216 
L 239.414654 269.472612 
L 241.046084 270.998071 
L 242.677514 271.115661 
L 244.308944 270.850153 
L 245.940373 272.001724 
L 247.571803 271.620675 
L 249.203233 273.079636 
L 250.834663 273.141023 
L 252.466093 272.802817 
L 254.097523 273.01885 
L 255.728953 275.112232 
L 257.360383 273.837917 
L 258.991812 275.434059 
L 260.623242 274.472938 
L 262.254672 274.57218 
L 263.886102 276.44215 
L 265.517532 276.84166 
L 267.148962 276.658359 
L 270.411822 277.481877 
L 272.043251 277.891211 
L 273.674681 278.179454 
L 275.306111 278.046218 
L 276.937541 280.262451 
L 278.568971 279.477508 
L 280.200401 279.043675 
L 281.831831 279.565822 
L 283.463261 280.627874 
L 285.09469 280.198066 
L 288.35755 281.608281 
L 289.98898 281.199329 
L 291.62041 281.308108 
L 293.25184 283.169578 
L 294.88327 283.122926 
L 296.5147 283.708777 
L 298.14613 283.423628 
L 299.777559 283.876811 
L 301.408989 284.97909 
L 304.671849 284.347373 
L 307.934709 286.262035 
L 311.197569 285.743555 
L 312.828998 285.89647 
L 314.460428 287.189874 
L 316.091858 287.310419 
L 317.723288 287.972093 
L 319.354718 288.438442 
L 320.986148 287.739359 
L 322.617578 289.537893 
L 324.249008 289.947725 
L 325.880437 289.614554 
L 327.511867 289.486185 
L 329.143297 290.135542 
L 332.406157 290.960378 
L 334.037587 290.815722 
L 335.669017 291.442479 
L 337.300447 291.701027 
L 338.931876 291.705654 
L 340.563306 292.032696 
L 342.194736 292.971353 
L 343.826166 292.387484 
L 345.457596 293.591507 
L 347.089026 293.837995 
L 348.720456 293.614505 
L 351.983315 294.47357 
L 353.614745 294.574841 
L 355.246175 296.008084 
L 356.877605 295.878206 
L 358.509035 296.524723 
L 360.140465 296.641056 
L 361.771895 296.226732 
L 363.403325 296.732418 
L 366.666184 297.315967 
L 368.297614 298.351688 
L 369.929044 297.610131 
L 371.560474 298.522188 
L 373.191904 299.168756 
L 374.823334 298.400009 
L 376.454764 299.379154 
L 378.086193 299.700986 
L 379.717623 300.920059 
L 381.349053 300.03121 
L 382.980483 300.045984 
L 384.611913 301.908828 
L 386.243343 300.7935 
L 387.874773 301.659239 
L 387.874773 301.659239 
" clip-path="url(#p555b8856e9)" style="fill: none; stroke: #1f77b4; stroke-width: 1.5; stroke-linecap: square"/>
    <g clip-path="url(#p555b8856e9)">
     <use xlink:href="#maad7f81b04" x="63.220227" y="192.441915" style="fill: #1f77b4; stroke: #1f77b4"/>
     <use xlink:href="#maad7f81b04" x="64.851657" y="193.882282" style="fill: #1f77b4; stroke: #1f77b4"/>
     <use xlink:href="#maad7f81b04" x="66.483087" y="192.410182" style="fill: #1f77b4; stroke: #1f77b4"/>
     <use xlink:href="#maad7f81b04" x="68.114517" y="193.819611" style="fill: #1f77b4; stroke: #1f77b4"/>
     <use xlink:href="#maad7f81b04" x="69.745947" y="194.024676" style="fill: #1f77b4; stroke: #1f77b4"/>
     <use xlink:href="#maad7f81b04" x="71.377377" y="195.886767" style="fill: #1f77b4; stroke: #1f77b4"/>
     <use xlink:href="#maad7f81b04" x="73.008807" y="196.17065" style="fill: #1f77b4; stroke: #1f77b4"/>
     <use xlink:href="#maad7f81b04" x="74.640236" y="197.306186" style="fill: #1f77b4; stroke: #1f77b4"/>
     <use xlink:href="#maad7f81b04" x="76.271666" y="197.457067" style="fill: #1f77b4; stroke: #1f77b4"/>
     <use xlink:href="#maad7f81b04" x="77.903096" y="199.484575" style="fill: #1f77b4; stroke: #1f77b4"/>
     <use xlink:href="#maad7f81b04" x="79.534526" y="200.757271" style="fill: #1f77b4; stroke: #1f77b4"/>
     <use xlink:href="#maad7f81b04" x="81.165956" y="202.914691" style="fill: #1f77b4; stroke: #1f77b4"/>
     <use xlink:href="#maad7f81b04" x="82.797386" y="203.777261" style="fill: #1f77b4; stroke: #1f77b4"/>
     <use xlink:href="#maad7f81b04" x="84.428816" y="205.078175" style="fill: #1f77b4; stroke: #1f77b4"/>
     <use xlink:href="#maad7f81b04" x="86.060246" y="206.981962" style="fill: #1f77b4; stroke: #1f77b4"/>
     <use xlink:href="#maad7f81b04" x="87.691675" y="209.776408" style="fill: #1f77b4; stroke: #1f77b4"/>
     <use xlink:href="#maad7f81b04" x="89.323105" y="210.426349" style="fill: #1f77b4; stroke: #1f77b4"/>
     <use xlink:href="#maad7f81b04" x="90.954535" y="211.144533" style="fill: #1f77b4; stroke: #1f77b4"/>
     <use xlink:href="#maad7f81b04" x="92.585965" y="213.333369" style="fill: #1f77b4; stroke: #1f77b4"/>
     <use xlink:href="#maad7f81b04" x="94.217395" y="214.5466" style="fill: #1f77b4; stroke: #1f77b4"/>
     <use xlink:href="#maad7f81b04" x="95.848825" y="214.094335" style="fill: #1f77b4; stroke: #1f77b4"/>
     <use xlink:href="#maad7f81b04" x="97.480255" y="216.355652" style="fill: #1f77b4; stroke: #1f77b4"/>
     <use xlink:href="#maad7f81b04" x="99.111685" y="217.458352" style="fill: #1f77b4; stroke: #1f77b4"/>
     <use xlink:href="#maad7f81b04" x="100.743114" y="219.204262" style="fill: #1f77b4; stroke: #1f77b4"/>
     <use xlink:href="#maad7f81b04" x="102.374544" y="220.59059" style="fill: #1f77b4; stroke: #1f77b4"/>
     <use xlink:href="#maad7f81b04" x="104.005974" y="221.336372" style="fill: #1f77b4; stroke: #1f77b4"/>
     <use xlink:href="#maad7f81b04" x="105.637404" y="221.505524" style="fill: #1f77b4; stroke: #1f77b4"/>
     <use xlink:href="#maad7f81b04" x="107.268834" y="224.058894" style="fill: #1f77b4; stroke: #1f77b4"/>
     <use xlink:href="#maad7f81b04" x="108.900264" y="223.944274" style="fill: #1f77b4; stroke: #1f77b4"/>
     <use xlink:href="#maad7f81b04" x="110.531694" y="224.568333" style="fill: #1f77b4; stroke: #1f77b4"/>
     <use xlink:href="#maad7f81b04" x="112.163124" y="225.790114" style="fill: #1f77b4; stroke: #1f77b4"/>
     <use xlink:href="#maad7f81b04" x="113.794553" y="226.939229" style="fill: #1f77b4; stroke: #1f77b4"/>
     <use xlink:href="#maad7f81b04" x="115.425983" y="227.924867" style="fill: #1f77b4; stroke: #1f77b4"/>
     <use xlink:href="#maad7f81b04" x="117.057413" y="228.027513" style="fill: #1f77b4; stroke: #1f77b4"/>
     <use xlink:href="#maad7f81b04" x="118.688843" y="228.706777" style="fill: #1f77b4; stroke: #1f77b4"/>
     <use xlink:href="#maad7f81b04" x="120.320273" y="231.323606" style="fill: #1f77b4; stroke: #1f77b4"/>
     <use xlink:href="#maad7f81b04" x="121.951703" y="231.851568" style="fill: #1f77b4; stroke: #1f77b4"/>
     <use xlink:href="#maad7f81b04" x="123.583133" y="231.892237" style="fill: #1f77b4; stroke: #1f77b4"/>
     <use xlink:href="#maad7f81b04" x="125.214563" y="232.765559" style="fill: #1f77b4; stroke: #1f77b4"/>
     <use xlink:href="#maad7f81b04" x="126.845992" y="234.415475" style="fill: #1f77b4; stroke: #1f77b4"/>
     <use xlink:href="#maad7f81b04" x="128.477422" y="234.829603" style="fill: #1f77b4; stroke: #1f77b4"/>
     <use xlink:href="#maad7f81b04" x="130.108852" y="235.750872" style="fill: #1f77b4; stroke: #1f77b4"/>
     <use xlink:href="#maad7f81b04" x="131.740282" y="235.444174" style="fill: #1f77b4; stroke: #1f77b4"/>
     <use xlink:href="#maad7f81b04" x="133.371712" y="237.277218" style="fill: #1f77b4; stroke: #1f77b4"/>
     <use xlink:href="#maad7f81b04" x="135.003142" y="237.340573" style="fill: #1f77b4; stroke: #1f77b4"/>
     <use xlink:href="#maad7f81b04" x="136.634572" y="237.919711" style="fill: #1f77b4; stroke: #1f77b4"/>
     <use xlink:href="#maad7f81b04" x="138.266002" y="237.851639" style="fill: #1f77b4; stroke: #1f77b4"/>
     <use xlink:href="#maad7f81b04" x="139.897431" y="239.637508" style="fill: #1f77b4; stroke: #1f77b4"/>
     <use xlink:href="#maad7f81b04" x="141.528861" y="238.950022" style="fill: #1f77b4; stroke: #1f77b4"/>
     <use xlink:href="#maad7f81b04" x="143.160291" y="241.339509" style="fill: #1f77b4; stroke: #1f77b4"/>
     <use xlink:href="#maad7f81b04" x="144.791721" y="241.923879" style="fill: #1f77b4; stroke: #1f77b4"/>
     <use xlink:href="#maad7f81b04" x="146.423151" y="242.568777" style="fill: #1f77b4; stroke: #1f77b4"/>
     <use xlink:href="#maad7f81b04" x="148.054581" y="242.547281" style="fill: #1f77b4; stroke: #1f77b4"/>
     <use xlink:href="#maad7f81b04" x="149.686011" y="243.998322" style="fill: #1f77b4; stroke: #1f77b4"/>
     <use xlink:href="#maad7f81b04" x="151.317441" y="244.261344" style="fill: #1f77b4; stroke: #1f77b4"/>
     <use xlink:href="#maad7f81b04" x="152.94887" y="245.03072" style="fill: #1f77b4; stroke: #1f77b4"/>
     <use xlink:href="#maad7f81b04" x="154.5803" y="245.355369" style="fill: #1f77b4; stroke: #1f77b4"/>
     <use xlink:href="#maad7f81b04" x="156.21173" y="246.314267" style="fill: #1f77b4; stroke: #1f77b4"/>
     <use xlink:href="#maad7f81b04" x="157.84316" y="245.812355" style="fill: #1f77b4; stroke: #1f77b4"/>
     <use xlink:href="#maad7f81b04" x="159.47459" y="247.112389" style="fill: #1f77b4; stroke: #1f77b4"/>
     <use xlink:href="#maad7f81b04" x="161.10602" y="247.465382" style="fill: #1f77b4; stroke: #1f77b4"/>
     <use xlink:href="#maad7f81b04" x="162.73745" y="247.624131" style="fill: #1f77b4; stroke: #1f77b4"/>
     <use xlink:href="#maad7f81b04" x="164.36888" y="249.367889" style="fill: #1f77b4; stroke: #1f77b4"/>
     <use xlink:href="#maad7f81b04" x="166.00031" y="248.516114" style="fill: #1f77b4; stroke: #1f77b4"/>
     <use xlink:href="#maad7f81b04" x="167.631739" y="249.469582" style="fill: #1f77b4; stroke: #1f77b4"/>
     <use xlink:href="#maad7f81b04" x="169.263169" y="249.897594" style="fill: #1f77b4; stroke: #1f77b4"/>
     <use xlink:href="#maad7f81b04" x="170.894599" y="251.435797" style="fill: #1f77b4; stroke: #1f77b4"/>
     <use xlink:href="#maad7f81b04" x="172.526029" y="251.025223" style="fill: #1f77b4; stroke: #1f77b4"/>
     <use xlink:href="#maad7f81b04" x="174.157459" y="251.671978" style="fill: #1f77b4; stroke: #1f77b4"/>
     <use xlink:href="#maad7f81b04" x="175.788889" y="252.775021" style="fill: #1f77b4; stroke: #1f77b4"/>
     <use xlink:href="#maad7f81b04" x="177.420319" y="253.793385" style="fill: #1f77b4; stroke: #1f77b4"/>
     <use xlink:href="#maad7f81b04" x="179.051749" y="254.244456" style="fill: #1f77b4; stroke: #1f77b4"/>
     <use xlink:href="#maad7f81b04" x="180.683178" y="254.819736" style="fill: #1f77b4; stroke: #1f77b4"/>
     <use xlink:href="#maad7f81b04" x="182.314608" y="254.140437" style="fill: #1f77b4; stroke: #1f77b4"/>
     <use xlink:href="#maad7f81b04" x="183.946038" y="255.317461" style="fill: #1f77b4; stroke: #1f77b4"/>
     <use xlink:href="#maad7f81b04" x="185.577468" y="255.862017" style="fill: #1f77b4; stroke: #1f77b4"/>
     <use xlink:href="#maad7f81b04" x="187.208898" y="256.513667" style="fill: #1f77b4; stroke: #1f77b4"/>
     <use xlink:href="#maad7f81b04" x="188.840328" y="257.943462" style="fill: #1f77b4; stroke: #1f77b4"/>
     <use xlink:href="#maad7f81b04" x="190.471758" y="256.465502" style="fill: #1f77b4; stroke: #1f77b4"/>
     <use xlink:href="#maad7f81b04" x="192.103188" y="258.300445" style="fill: #1f77b4; stroke: #1f77b4"/>
     <use xlink:href="#maad7f81b04" x="193.734617" y="258.153339" style="fill: #1f77b4; stroke: #1f77b4"/>
     <use xlink:href="#maad7f81b04" x="195.366047" y="259.386709" style="fill: #1f77b4; stroke: #1f77b4"/>
     <use xlink:href="#maad7f81b04" x="196.997477" y="259.127992" style="fill: #1f77b4; stroke: #1f77b4"/>
     <use xlink:href="#maad7f81b04" x="198.628907" y="258.949296" style="fill: #1f77b4; stroke: #1f77b4"/>
     <use xlink:href="#maad7f81b04" x="200.260337" y="259.581701" style="fill: #1f77b4; stroke: #1f77b4"/>
     <use xlink:href="#maad7f81b04" x="201.891767" y="260.074882" style="fill: #1f77b4; stroke: #1f77b4"/>
     <use xlink:href="#maad7f81b04" x="203.523197" y="260.589873" style="fill: #1f77b4; stroke: #1f77b4"/>
     <use xlink:href="#maad7f81b04" x="205.154627" y="262.06015" style="fill: #1f77b4; stroke: #1f77b4"/>
     <use xlink:href="#maad7f81b04" x="206.786056" y="261.244822" style="fill: #1f77b4; stroke: #1f77b4"/>
     <use xlink:href="#maad7f81b04" x="208.417486" y="261.83758" style="fill: #1f77b4; stroke: #1f77b4"/>
     <use xlink:href="#maad7f81b04" x="210.048916" y="262.724856" style="fill: #1f77b4; stroke: #1f77b4"/>
     <use xlink:href="#maad7f81b04" x="211.680346" y="262.903552" style="fill: #1f77b4; stroke: #1f77b4"/>
     <use xlink:href="#maad7f81b04" x="213.311776" y="264.109097" style="fill: #1f77b4; stroke: #1f77b4"/>
     <use xlink:href="#maad7f81b04" x="214.943206" y="263.438223" style="fill: #1f77b4; stroke: #1f77b4"/>
     <use xlink:href="#maad7f81b04" x="216.574636" y="264.581717" style="fill: #1f77b4; stroke: #1f77b4"/>
     <use xlink:href="#maad7f81b04" x="218.206066" y="264.969949" style="fill: #1f77b4; stroke: #1f77b4"/>
     <use xlink:href="#maad7f81b04" x="219.837495" y="265.242692" style="fill: #1f77b4; stroke: #1f77b4"/>
     <use xlink:href="#maad7f81b04" x="221.468925" y="265.577598" style="fill: #1f77b4; stroke: #1f77b4"/>
     <use xlink:href="#maad7f81b04" x="223.100355" y="265.424041" style="fill: #1f77b4; stroke: #1f77b4"/>
     <use xlink:href="#maad7f81b04" x="224.731785" y="266.070579" style="fill: #1f77b4; stroke: #1f77b4"/>
     <use xlink:href="#maad7f81b04" x="226.363215" y="267.578792" style="fill: #1f77b4; stroke: #1f77b4"/>
     <use xlink:href="#maad7f81b04" x="227.994645" y="266.636401" style="fill: #1f77b4; stroke: #1f77b4"/>
     <use xlink:href="#maad7f81b04" x="229.626075" y="268.365497" style="fill: #1f77b4; stroke: #1f77b4"/>
     <use xlink:href="#maad7f81b04" x="231.257505" y="268.22342" style="fill: #1f77b4; stroke: #1f77b4"/>
     <use xlink:href="#maad7f81b04" x="232.888934" y="268.199315" style="fill: #1f77b4; stroke: #1f77b4"/>
     <use xlink:href="#maad7f81b04" x="234.520364" y="268.204085" style="fill: #1f77b4; stroke: #1f77b4"/>
     <use xlink:href="#maad7f81b04" x="236.151794" y="270.18109" style="fill: #1f77b4; stroke: #1f77b4"/>
     <use xlink:href="#maad7f81b04" x="237.783224" y="269.966216" style="fill: #1f77b4; stroke: #1f77b4"/>
     <use xlink:href="#maad7f81b04" x="239.414654" y="269.472612" style="fill: #1f77b4; stroke: #1f77b4"/>
     <use xlink:href="#maad7f81b04" x="241.046084" y="270.998071" style="fill: #1f77b4; stroke: #1f77b4"/>
     <use xlink:href="#maad7f81b04" x="242.677514" y="271.115661" style="fill: #1f77b4; stroke: #1f77b4"/>
     <use xlink:href="#maad7f81b04" x="244.308944" y="270.850153" style="fill: #1f77b4; stroke: #1f77b4"/>
     <use xlink:href="#maad7f81b04" x="245.940373" y="272.001724" style="fill: #1f77b4; stroke: #1f77b4"/>
     <use xlink:href="#maad7f81b04" x="247.571803" y="271.620675" style="fill: #1f77b4; stroke: #1f77b4"/>
     <use xlink:href="#maad7f81b04" x="249.203233" y="273.079636" style="fill: #1f77b4; stroke: #1f77b4"/>
     <use xlink:href="#maad7f81b04" x="250.834663" y="273.141023" style="fill: #1f77b4; stroke: #1f77b4"/>
     <use xlink:href="#maad7f81b04" x="252.466093" y="272.802817" style="fill: #1f77b4; stroke: #1f77b4"/>
     <use xlink:href="#maad7f81b04" x="254.097523" y="273.01885" style="fill: #1f77b4; stroke: #1f77b4"/>
     <use xlink:href="#maad7f81b04" x="255.728953" y="275.112232" style="fill: #1f77b4; stroke: #1f77b4"/>
     <use xlink:href="#maad7f81b04" x="257.360383" y="273.837917" style="fill: #1f77b4; stroke: #1f77b4"/>
     <use xlink:href="#maad7f81b04" x="258.991812" y="275.434059" style="fill: #1f77b4; stroke: #1f77b4"/>
     <use xlink:href="#maad7f81b04" x="260.623242" y="274.472938" style="fill: #1f77b4; stroke: #1f77b4"/>
     <use xlink:href="#maad7f81b04" x="262.254672" y="274.57218" style="fill: #1f77b4; stroke: #1f77b4"/>
     <use xlink:href="#maad7f81b04" x="263.886102" y="276.44215" style="fill: #1f77b4; stroke: #1f77b4"/>
     <use xlink:href="#maad7f81b04" x="265.517532" y="276.84166" style="fill: #1f77b4; stroke: #1f77b4"/>
     <use xlink:href="#maad7f81b04" x="267.148962" y="276.658359" style="fill: #1f77b4; stroke: #1f77b4"/>
     <use xlink:href="#maad7f81b04" x="268.780392" y="277.015212" style="fill: #1f77b4; stroke: #1f77b4"/>
     <use xlink:href="#maad7f81b04" x="270.411822" y="277.481877" style="fill: #1f77b4; stroke: #1f77b4"/>
     <use xlink:href="#maad7f81b04" x="272.043251" y="277.891211" style="fill: #1f77b4; stroke: #1f77b4"/>
     <use xlink:href="#maad7f81b04" x="273.674681" y="278.179454" style="fill: #1f77b4; stroke: #1f77b4"/>
     <use xlink:href="#maad7f81b04" x="275.306111" y="278.046218" style="fill: #1f77b4; stroke: #1f77b4"/>
     <use xlink:href="#maad7f81b04" x="276.937541" y="280.262451" style="fill: #1f77b4; stroke: #1f77b4"/>
     <use xlink:href="#maad7f81b04" x="278.568971" y="279.477508" style="fill: #1f77b4; stroke: #1f77b4"/>
     <use xlink:href="#maad7f81b04" x="280.200401" y="279.043675" style="fill: #1f77b4; stroke: #1f77b4"/>
     <use xlink:href="#maad7f81b04" x="281.831831" y="279.565822" style="fill: #1f77b4; stroke: #1f77b4"/>
     <use xlink:href="#maad7f81b04" x="283.463261" y="280.627874" style="fill: #1f77b4; stroke: #1f77b4"/>
     <use xlink:href="#maad7f81b04" x="285.09469" y="280.198066" style="fill: #1f77b4; stroke: #1f77b4"/>
     <use xlink:href="#maad7f81b04" x="286.72612" y="280.852571" style="fill: #1f77b4; stroke: #1f77b4"/>
     <use xlink:href="#maad7f81b04" x="288.35755" y="281.608281" style="fill: #1f77b4; stroke: #1f77b4"/>
     <use xlink:href="#maad7f81b04" x="289.98898" y="281.199329" style="fill: #1f77b4; stroke: #1f77b4"/>
     <use xlink:href="#maad7f81b04" x="291.62041" y="281.308108" style="fill: #1f77b4; stroke: #1f77b4"/>
     <use xlink:href="#maad7f81b04" x="293.25184" y="283.169578" style="fill: #1f77b4; stroke: #1f77b4"/>
     <use xlink:href="#maad7f81b04" x="294.88327" y="283.122926" style="fill: #1f77b4; stroke: #1f77b4"/>
     <use xlink:href="#maad7f81b04" x="296.5147" y="283.708777" style="fill: #1f77b4; stroke: #1f77b4"/>
     <use xlink:href="#maad7f81b04" x="298.14613" y="283.423628" style="fill: #1f77b4; stroke: #1f77b4"/>
     <use xlink:href="#maad7f81b04" x="299.777559" y="283.876811" style="fill: #1f77b4; stroke: #1f77b4"/>
     <use xlink:href="#maad7f81b04" x="301.408989" y="284.97909" style="fill: #1f77b4; stroke: #1f77b4"/>
     <use xlink:href="#maad7f81b04" x="303.040419" y="284.647832" style="fill: #1f77b4; stroke: #1f77b4"/>
     <use xlink:href="#maad7f81b04" x="304.671849" y="284.347373" style="fill: #1f77b4; stroke: #1f77b4"/>
     <use xlink:href="#maad7f81b04" x="306.303279" y="285.309078" style="fill: #1f77b4; stroke: #1f77b4"/>
     <use xlink:href="#maad7f81b04" x="307.934709" y="286.262035" style="fill: #1f77b4; stroke: #1f77b4"/>
     <use xlink:href="#maad7f81b04" x="309.566139" y="286.040563" style="fill: #1f77b4; stroke: #1f77b4"/>
     <use xlink:href="#maad7f81b04" x="311.197569" y="285.743555" style="fill: #1f77b4; stroke: #1f77b4"/>
     <use xlink:href="#maad7f81b04" x="312.828998" y="285.89647" style="fill: #1f77b4; stroke: #1f77b4"/>
     <use xlink:href="#maad7f81b04" x="314.460428" y="287.189874" style="fill: #1f77b4; stroke: #1f77b4"/>
     <use xlink:href="#maad7f81b04" x="316.091858" y="287.310419" style="fill: #1f77b4; stroke: #1f77b4"/>
     <use xlink:href="#maad7f81b04" x="317.723288" y="287.972093" style="fill: #1f77b4; stroke: #1f77b4"/>
     <use xlink:href="#maad7f81b04" x="319.354718" y="288.438442" style="fill: #1f77b4; stroke: #1f77b4"/>
     <use xlink:href="#maad7f81b04" x="320.986148" y="287.739359" style="fill: #1f77b4; stroke: #1f77b4"/>
     <use xlink:href="#maad7f81b04" x="322.617578" y="289.537893" style="fill: #1f77b4; stroke: #1f77b4"/>
     <use xlink:href="#maad7f81b04" x="324.249008" y="289.947725" style="fill: #1f77b4; stroke: #1f77b4"/>
     <use xlink:href="#maad7f81b04" x="325.880437" y="289.614554" style="fill: #1f77b4; stroke: #1f77b4"/>
     <use xlink:href="#maad7f81b04" x="327.511867" y="289.486185" style="fill: #1f77b4; stroke: #1f77b4"/>
     <use xlink:href="#maad7f81b04" x="329.143297" y="290.135542" style="fill: #1f77b4; stroke: #1f77b4"/>
     <use xlink:href="#maad7f81b04" x="330.774727" y="290.542732" style="fill: #1f77b4; stroke: #1f77b4"/>
     <use xlink:href="#maad7f81b04" x="332.406157" y="290.960378" style="fill: #1f77b4; stroke: #1f77b4"/>
     <use xlink:href="#maad7f81b04" x="334.037587" y="290.815722" style="fill: #1f77b4; stroke: #1f77b4"/>
     <use xlink:href="#maad7f81b04" x="335.669017" y="291.442479" style="fill: #1f77b4; stroke: #1f77b4"/>
     <use xlink:href="#maad7f81b04" x="337.300447" y="291.701027" style="fill: #1f77b4; stroke: #1f77b4"/>
     <use xlink:href="#maad7f81b04" x="338.931876" y="291.705654" style="fill: #1f77b4; stroke: #1f77b4"/>
     <use xlink:href="#maad7f81b04" x="340.563306" y="292.032696" style="fill: #1f77b4; stroke: #1f77b4"/>
     <use xlink:href="#maad7f81b04" x="342.194736" y="292.971353" style="fill: #1f77b4; stroke: #1f77b4"/>
     <use xlink:href="#maad7f81b04" x="343.826166" y="292.387484" style="fill: #1f77b4; stroke: #1f77b4"/>
     <use xlink:href="#maad7f81b04" x="345.457596" y="293.591507" style="fill: #1f77b4; stroke: #1f77b4"/>
     <use xlink:href="#maad7f81b04" x="347.089026" y="293.837995" style="fill: #1f77b4; stroke: #1f77b4"/>
     <use xlink:href="#maad7f81b04" x="348.720456" y="293.614505" style="fill: #1f77b4; stroke: #1f77b4"/>
     <use xlink:href="#maad7f81b04" x="350.351886" y="294.037832" style="fill: #1f77b4; stroke: #1f77b4"/>
     <use xlink:href="#maad7f81b04" x="351.983315" y="294.47357" style="fill: #1f77b4; stroke: #1f77b4"/>
     <use xlink:href="#maad7f81b04" x="353.614745" y="294.574841" style="fill: #1f77b4; stroke: #1f77b4"/>
     <use xlink:href="#maad7f81b04" x="355.246175" y="296.008084" style="fill: #1f77b4; stroke: #1f77b4"/>
     <use xlink:href="#maad7f81b04" x="356.877605" y="295.878206" style="fill: #1f77b4; stroke: #1f77b4"/>
     <use xlink:href="#maad7f81b04" x="358.509035" y="296.524723" style="fill: #1f77b4; stroke: #1f77b4"/>
     <use xlink:href="#maad7f81b04" x="360.140465" y="296.641056" style="fill: #1f77b4; stroke: #1f77b4"/>
     <use xlink:href="#maad7f81b04" x="361.771895" y="296.226732" style="fill: #1f77b4; stroke: #1f77b4"/>
     <use xlink:href="#maad7f81b04" x="363.403325" y="296.732418" style="fill: #1f77b4; stroke: #1f77b4"/>
     <use xlink:href="#maad7f81b04" x="365.034754" y="296.970244" style="fill: #1f77b4; stroke: #1f77b4"/>
     <use xlink:href="#maad7f81b04" x="366.666184" y="297.315967" style="fill: #1f77b4; stroke: #1f77b4"/>
     <use xlink:href="#maad7f81b04" x="368.297614" y="298.351688" style="fill: #1f77b4; stroke: #1f77b4"/>
     <use xlink:href="#maad7f81b04" x="369.929044" y="297.610131" style="fill: #1f77b4; stroke: #1f77b4"/>
     <use xlink:href="#maad7f81b04" x="371.560474" y="298.522188" style="fill: #1f77b4; stroke: #1f77b4"/>
     <use xlink:href="#maad7f81b04" x="373.191904" y="299.168756" style="fill: #1f77b4; stroke: #1f77b4"/>
     <use xlink:href="#maad7f81b04" x="374.823334" y="298.400009" style="fill: #1f77b4; stroke: #1f77b4"/>
     <use xlink:href="#maad7f81b04" x="376.454764" y="299.379154" style="fill: #1f77b4; stroke: #1f77b4"/>
     <use xlink:href="#maad7f81b04" x="378.086193" y="299.700986" style="fill: #1f77b4; stroke: #1f77b4"/>
     <use xlink:href="#maad7f81b04" x="379.717623" y="300.920059" style="fill: #1f77b4; stroke: #1f77b4"/>
     <use xlink:href="#maad7f81b04" x="381.349053" y="300.03121" style="fill: #1f77b4; stroke: #1f77b4"/>
     <use xlink:href="#maad7f81b04" x="382.980483" y="300.045984" style="fill: #1f77b4; stroke: #1f77b4"/>
     <use xlink:href="#maad7f81b04" x="384.611913" y="301.908828" style="fill: #1f77b4; stroke: #1f77b4"/>
     <use xlink:href="#maad7f81b04" x="386.243343" y="300.7935" style="fill: #1f77b4; stroke: #1f77b4"/>
     <use xlink:href="#maad7f81b04" x="387.874773" y="301.659239" style="fill: #1f77b4; stroke: #1f77b4"/>
    </g>
   </g>
   <g id="line2d_25">
    <path d="M 63.220227 221.770184 
L 387.874773 302.373818 
L 387.874773 302.373818 
" clip-path="url(#p555b8856e9)" style="fill: none; stroke: #d62728; stroke-width: 1.5; stroke-linecap: square"/>
   </g>
   <g id="patch_9">
    <path d="M 46.9875 307.872 
L 46.9875 186.912 
" style="fill: none; stroke: #000000; stroke-width: 0.8; stroke-linejoin: miter; stroke-linecap: square"/>
   </g>
   <g id="patch_10">
    <path d="M 404.1075 307.872 
L 404.1075 186.912 
" style="fill: none; stroke: #000000; stroke-width: 0.8; stroke-linejoin: miter; stroke-linecap: square"/>
   </g>
   <g id="patch_11">
    <path d="M 46.9875 307.872 
L 404.1075 307.872 
" style="fill: none; stroke: #000000; stroke-width: 0.8; stroke-linejoin: miter; stroke-linecap: square"/>
   </g>
   <g id="patch_12">
    <path d="M 46.9875 186.912 
L 404.1075 186.912 
" style="fill: none; stroke: #000000; stroke-width: 0.8; stroke-linejoin: miter; stroke-linecap: square"/>
   </g>
  </g>
  <g id="text_21">
   <!-- S21 resonator spectroscopy -->
   <g transform="translate(136.003125 16.318125) scale(0.12 -0.12)">
    <defs>
     <path id="DejaVuSans-73" d="M 2834 3397 
L 2834 2853 
Q 2591 2978 2328 3040 
Q 2066 3103 1784 3103 
Q 1356 3103 1142 2972 
Q 928 2841 928 2578 
Q 928 2378 1081 2264 
Q 1234 2150 1697 2047 
L 1894 2003 
Q 2506 1872 2764 1633 
Q 3022 1394 3022 966 
Q 3022 478 2636 193 
Q 2250 -91 1575 -91 
Q 1294 -91 989 -36 
Q 684 19 347 128 
L 347 722 
Q 666 556 975 473 
Q 1284 391 1588 391 
Q 1994 391 2212 530 
Q 2431 669 2431 922 
Q 2431 1156 2273 1281 
Q 2116 1406 1581 1522 
L 1381 1569 
Q 847 1681 609 1914 
Q 372 2147 372 2553 
Q 372 3047 722 3315 
Q 1072 3584 1716 3584 
Q 2034 3584 2315 3537 
Q 2597 3491 2834 3397 
z
" transform="scale(0.015625)"/>
     <path id="DejaVuSans-6f" d="M 1959 3097 
Q 1497 3097 1228 2736 
Q 959 2375 959 1747 
Q 959 1119 1226 758 
Q 1494 397 1959 397 
Q 2419 397 2687 759 
Q 2956 1122 2956 1747 
Q 2956 2369 2687 2733 
Q 2419 3097 1959 3097 
z
M 1959 3584 
Q 2709 3584 3137 3096 
Q 3566 2609 3566 1747 
Q 3566 888 3137 398 
Q 2709 -91 1959 -91 
Q 1206 -91 779 398 
Q 353 888 353 1747 
Q 353 2609 779 3096 
Q 1206 3584 1959 3584 
z
" transform="scale(0.015625)"/>
     <path id="DejaVuSans-74" d="M 1172 4494 
L 1172 3500 
L 2356 3500 
L 2356 3053 
L 1172 3053 
L 1172 1153 
Q 1172 725 1289 603 
Q 1406 481 1766 481 
L 2356 481 
L 2356 0 
L 1766 0 
Q 1100 0 847 248 
Q 594 497 594 1153 
L 594 3053 
L 172 3053 
L 172 3500 
L 594 3500 
L 594 4494 
L 1172 4494 
z
" transform="scale(0.015625)"/>
     <path id="DejaVuSans-70" d="M 1159 525 
L 1159 -1331 
L 581 -1331 
L 581 3500 
L 1159 3500 
L 1159 2969 
Q 1341 3281 1617 3432 
Q 1894 3584 2278 3584 
Q 2916 3584 3314 3078 
Q 3713 2572 3713 1747 
Q 3713 922 3314 415 
Q 2916 -91 2278 -91 
Q 1894 -91 1617 61 
Q 1341 213 1159 525 
z
M 3116 1747 
Q 3116 2381 2855 2742 
Q 2594 3103 2138 3103 
Q 1681 3103 1420 2742 
Q 1159 2381 1159 1747 
Q 1159 1113 1420 752 
Q 1681 391 2138 391 
Q 2594 391 2855 752 
Q 3116 1113 3116 1747 
z
" transform="scale(0.015625)"/>
    </defs>
    <use xlink:href="#DejaVuSans-53"/>
    <use xlink:href="#DejaVuSans-32" x="63.476562"/>
    <use xlink:href="#DejaVuSans-31" x="127.099609"/>
    <use xlink:href="#DejaVuSans-20" x="190.722656"/>
    <use xlink:href="#DejaVuSans-72" x="222.509766"/>
    <use xlink:href="#DejaVuSans-65" x="261.373047"/>
    <use xlink:href="#DejaVuSans-73" x="322.896484"/>
    <use xlink:href="#DejaVuSans-6f" x="374.996094"/>
    <use xlink:href="#DejaVuSans-6e" x="436.177734"/>
    <use xlink:href="#DejaVuSans-61" x="499.556641"/>
    <use xlink:href="#DejaVuSans-74" x="560.835938"/>
    <use xlink:href="#DejaVuSans-6f" x="600.044922"/>
    <use xlink:href="#DejaVuSans-72" x="661.226562"/>
    <use xlink:href="#DejaVuSans-20" x="702.339844"/>
    <use xlink:href="#DejaVuSans-73" x="734.126953"/>
    <use xlink:href="#DejaVuSans-70" x="786.226562"/>
    <use xlink:href="#DejaVuSans-65" x="849.703125"/>
    <use xlink:href="#DejaVuSans-63" x="911.226562"/>
    <use xlink:href="#DejaVuSans-74" x="966.207031"/>
    <use xlink:href="#DejaVuSans-72" x="1005.416016"/>
    <use xlink:href="#DejaVuSans-6f" x="1044.279297"/>
    <use xlink:href="#DejaVuSans-73" x="1105.460938"/>
    <use xlink:href="#DejaVuSans-63" x="1157.560547"/>
    <use xlink:href="#DejaVuSans-6f" x="1212.541016"/>
    <use xlink:href="#DejaVuSans-70" x="1273.722656"/>
    <use xlink:href="#DejaVuSans-79" x="1337.199219"/>
   </g>
   <!-- tuid: 20231227-130207-123-9b71f0 -->
   <g transform="translate(111.645938 29.7555) scale(0.12 -0.12)">
    <defs>
     <path id="DejaVuSans-69" d="M 603 3500 
L 1178 3500 
L 1178 0 
L 603 0 
L 603 3500 
z
M 603 4863 
L 1178 4863 
L 1178 4134 
L 603 4134 
L 603 4863 
z
" transform="scale(0.015625)"/>
     <path id="DejaVuSans-33" d="M 2597 2516 
Q 3050 2419 3304 2112 
Q 3559 1806 3559 1356 
Q 3559 666 3084 287 
Q 2609 -91 1734 -91 
Q 1441 -91 1130 -33 
Q 819 25 488 141 
L 488 750 
Q 750 597 1062 519 
Q 1375 441 1716 441 
Q 2309 441 2620 675 
Q 2931 909 2931 1356 
Q 2931 1769 2642 2001 
Q 2353 2234 1838 2234 
L 1294 2234 
L 1294 2753 
L 1863 2753 
Q 2328 2753 2575 2939 
Q 2822 3125 2822 3475 
Q 2822 3834 2567 4026 
Q 2313 4219 1838 4219 
Q 1578 4219 1281 4162 
Q 984 4106 628 3988 
L 628 4550 
Q 988 4650 1302 4700 
Q 1616 4750 1894 4750 
Q 2613 4750 3031 4423 
Q 3450 4097 3450 3541 
Q 3450 3153 3228 2886 
Q 3006 2619 2597 2516 
z
" transform="scale(0.015625)"/>
     <path id="DejaVuSans-2d" d="M 313 2009 
L 1997 2009 
L 1997 1497 
L 313 1497 
L 313 2009 
z
" transform="scale(0.015625)"/>
     <path id="DejaVuSans-39" d="M 703 97 
L 703 672 
Q 941 559 1184 500 
Q 1428 441 1663 441 
Q 2288 441 2617 861 
Q 2947 1281 2994 2138 
Q 2813 1869 2534 1725 
Q 2256 1581 1919 1581 
Q 1219 1581 811 2004 
Q 403 2428 403 3163 
Q 403 3881 828 4315 
Q 1253 4750 1959 4750 
Q 2769 4750 3195 4129 
Q 3622 3509 3622 2328 
Q 3622 1225 3098 567 
Q 2575 -91 1691 -91 
Q 1453 -91 1209 -44 
Q 966 3 703 97 
z
M 1959 2075 
Q 2384 2075 2632 2365 
Q 2881 2656 2881 3163 
Q 2881 3666 2632 3958 
Q 2384 4250 1959 4250 
Q 1534 4250 1286 3958 
Q 1038 3666 1038 3163 
Q 1038 2656 1286 2365 
Q 1534 2075 1959 2075 
z
" transform="scale(0.015625)"/>
     <path id="DejaVuSans-62" d="M 3116 1747 
Q 3116 2381 2855 2742 
Q 2594 3103 2138 3103 
Q 1681 3103 1420 2742 
Q 1159 2381 1159 1747 
Q 1159 1113 1420 752 
Q 1681 391 2138 391 
Q 2594 391 2855 752 
Q 3116 1113 3116 1747 
z
M 1159 2969 
Q 1341 3281 1617 3432 
Q 1894 3584 2278 3584 
Q 2916 3584 3314 3078 
Q 3713 2572 3713 1747 
Q 3713 922 3314 415 
Q 2916 -91 2278 -91 
Q 1894 -91 1617 61 
Q 1341 213 1159 525 
L 1159 0 
L 581 0 
L 581 4863 
L 1159 4863 
L 1159 2969 
z
" transform="scale(0.015625)"/>
     <path id="DejaVuSans-66" d="M 2375 4863 
L 2375 4384 
L 1825 4384 
Q 1516 4384 1395 4259 
Q 1275 4134 1275 3809 
L 1275 3500 
L 2222 3500 
L 2222 3053 
L 1275 3053 
L 1275 0 
L 697 0 
L 697 3053 
L 147 3053 
L 147 3500 
L 697 3500 
L 697 3744 
Q 697 4328 969 4595 
Q 1241 4863 1831 4863 
L 2375 4863 
z
" transform="scale(0.015625)"/>
    </defs>
    <use xlink:href="#DejaVuSans-74"/>
    <use xlink:href="#DejaVuSans-75" x="39.208984"/>
    <use xlink:href="#DejaVuSans-69" x="102.587891"/>
    <use xlink:href="#DejaVuSans-64" x="130.371094"/>
    <use xlink:href="#DejaVuSans-3a" x="193.847656"/>
    <use xlink:href="#DejaVuSans-20" x="227.539062"/>
    <use xlink:href="#DejaVuSans-32" x="259.326172"/>
    <use xlink:href="#DejaVuSans-30" x="322.949219"/>
    <use xlink:href="#DejaVuSans-32" x="386.572266"/>
    <use xlink:href="#DejaVuSans-33" x="450.195312"/>
    <use xlink:href="#DejaVuSans-31" x="513.818359"/>
    <use xlink:href="#DejaVuSans-32" x="577.441406"/>
    <use xlink:href="#DejaVuSans-32" x="641.064453"/>
    <use xlink:href="#DejaVuSans-37" x="704.6875"/>
    <use xlink:href="#DejaVuSans-2d" x="768.310547"/>
    <use xlink:href="#DejaVuSans-31" x="804.394531"/>
    <use xlink:href="#DejaVuSans-33" x="868.017578"/>
    <use xlink:href="#DejaVuSans-30" x="931.640625"/>
    <use xlink:href="#DejaVuSans-32" x="995.263672"/>
    <use xlink:href="#DejaVuSans-30" x="1058.886719"/>
    <use xlink:href="#DejaVuSans-37" x="1122.509766"/>
    <use xlink:href="#DejaVuSans-2d" x="1186.132812"/>
    <use xlink:href="#DejaVuSans-31" x="1222.216797"/>
    <use xlink:href="#DejaVuSans-32" x="1285.839844"/>
    <use xlink:href="#DejaVuSans-33" x="1349.462891"/>
    <use xlink:href="#DejaVuSans-2d" x="1413.085938"/>
    <use xlink:href="#DejaVuSans-39" x="1449.169922"/>
    <use xlink:href="#DejaVuSans-62" x="1512.792969"/>
    <use xlink:href="#DejaVuSans-37" x="1576.269531"/>
    <use xlink:href="#DejaVuSans-31" x="1639.892578"/>
    <use xlink:href="#DejaVuSans-66" x="1703.515625"/>
    <use xlink:href="#DejaVuSans-30" x="1738.720703"/>
   </g>
  </g>
 </g>
 <defs>
  <clipPath id="p6b2c381f59">
   <rect x="46.9875" y="41.76" width="357.12" height="120.96"/>
  </clipPath>
  <clipPath id="p555b8856e9">
   <rect x="46.9875" y="186.912" width="357.12" height="120.96"/>
  </clipPath>
 </defs>
</svg>
