<?xml version="1.0" encoding="utf-8" standalone="no"?>
<!DOCTYPE svg PUBLIC "-//W3C//DTD SVG 1.1//EN"
  "http://www.w3.org/Graphics/SVG/1.1/DTD/svg11.dtd">
<svg xmlns:xlink="http://www.w3.org/1999/xlink" width="592.9635pt" height="345.42825pt" viewBox="0 0 592.9635 345.42825" xmlns="http://www.w3.org/2000/svg" version="1.1">
 <metadata>
  <rdf:RDF xmlns:dc="http://purl.org/dc/elements/1.1/" xmlns:cc="http://creativecommons.org/ns#" xmlns:rdf="http://www.w3.org/1999/02/22-rdf-syntax-ns#">
   <cc:Work>
    <dc:type rdf:resource="http://purl.org/dc/dcmitype/StillImage"/>
    <dc:date>2023-12-27T16:47:24.220173</dc:date>
    <dc:format>image/svg+xml</dc:format>
    <dc:creator>
     <cc:Agent>
      <dc:title>Matplotlib v3.8.2, https://matplotlib.org/</dc:title>
     </cc:Agent>
    </dc:creator>
   </cc:Work>
  </rdf:RDF>
 </metadata>
 <defs>
  <style type="text/css">*{stroke-linejoin: round; stroke-linecap: butt}</style>
 </defs>
 <g id="figure_1">
  <g id="patch_1">
   <path d="M 0 345.42825 
L 592.9635 345.42825 
L 592.9635 -0 
L 0 -0 
L 0 345.42825 
z
" style="fill: none; opacity: 0"/>
  </g>
  <g id="axes_1">
   <g id="patch_2">
    <path d="M 47.3875 307.872 
L 404.5075 307.872 
L 404.5075 41.76 
L 47.3875 41.76 
z
" style="fill: #ffffff"/>
   </g>
   <g id="matplotlib.axis_1">
    <g id="xtick_1">
     <g id="line2d_1">
      <defs>
       <path id="mf76ab6c9d1" d="M 0 0 
L 0 3.5 
" style="stroke: #000000; stroke-width: 0.8"/>
      </defs>
      <g>
       <use xlink:href="#mf76ab6c9d1" x="62.765873" y="307.872" style="stroke: #000000; stroke-width: 0.8"/>
      </g>
     </g>
     <g id="text_1">
      <!-- 0 -->
      <g transform="translate(59.584623 322.470438) scale(0.1 -0.1)">
       <defs>
        <path id="DejaVuSans-30" d="M 2034 4250 
Q 1547 4250 1301 3770 
Q 1056 3291 1056 2328 
Q 1056 1369 1301 889 
Q 1547 409 2034 409 
Q 2525 409 2770 889 
Q 3016 1369 3016 2328 
Q 3016 3291 2770 3770 
Q 2525 4250 2034 4250 
z
M 2034 4750 
Q 2819 4750 3233 4129 
Q 3647 3509 3647 2328 
Q 3647 1150 3233 529 
Q 2819 -91 2034 -91 
Q 1250 -91 836 529 
Q 422 1150 422 2328 
Q 422 3509 836 4129 
Q 1250 4750 2034 4750 
z
" transform="scale(0.015625)"/>
       </defs>
       <use xlink:href="#DejaVuSans-30"/>
      </g>
     </g>
    </g>
    <g id="xtick_2">
     <g id="line2d_2">
      <g>
       <use xlink:href="#mf76ab6c9d1" x="105.483577" y="307.872" style="stroke: #000000; stroke-width: 0.8"/>
      </g>
     </g>
     <g id="text_2">
      <!-- 2 -->
      <g transform="translate(102.302327 322.470438) scale(0.1 -0.1)">
       <defs>
        <path id="DejaVuSans-32" d="M 1228 531 
L 3431 531 
L 3431 0 
L 469 0 
L 469 531 
Q 828 903 1448 1529 
Q 2069 2156 2228 2338 
Q 2531 2678 2651 2914 
Q 2772 3150 2772 3378 
Q 2772 3750 2511 3984 
Q 2250 4219 1831 4219 
Q 1534 4219 1204 4116 
Q 875 4013 500 3803 
L 500 4441 
Q 881 4594 1212 4672 
Q 1544 4750 1819 4750 
Q 2544 4750 2975 4387 
Q 3406 4025 3406 3419 
Q 3406 3131 3298 2873 
Q 3191 2616 2906 2266 
Q 2828 2175 2409 1742 
Q 1991 1309 1228 531 
z
" transform="scale(0.015625)"/>
       </defs>
       <use xlink:href="#DejaVuSans-32"/>
      </g>
     </g>
    </g>
    <g id="xtick_3">
     <g id="line2d_3">
      <g>
       <use xlink:href="#mf76ab6c9d1" x="148.20128" y="307.872" style="stroke: #000000; stroke-width: 0.8"/>
      </g>
     </g>
     <g id="text_3">
      <!-- 4 -->
      <g transform="translate(145.02003 322.470438) scale(0.1 -0.1)">
       <defs>
        <path id="DejaVuSans-34" d="M 2419 4116 
L 825 1625 
L 2419 1625 
L 2419 4116 
z
M 2253 4666 
L 3047 4666 
L 3047 1625 
L 3713 1625 
L 3713 1100 
L 3047 1100 
L 3047 0 
L 2419 0 
L 2419 1100 
L 313 1100 
L 313 1709 
L 2253 4666 
z
" transform="scale(0.015625)"/>
       </defs>
       <use xlink:href="#DejaVuSans-34"/>
      </g>
     </g>
    </g>
    <g id="xtick_4">
     <g id="line2d_4">
      <g>
       <use xlink:href="#mf76ab6c9d1" x="190.918983" y="307.872" style="stroke: #000000; stroke-width: 0.8"/>
      </g>
     </g>
     <g id="text_4">
      <!-- 6 -->
      <g transform="translate(187.737733 322.470438) scale(0.1 -0.1)">
       <defs>
        <path id="DejaVuSans-36" d="M 2113 2584 
Q 1688 2584 1439 2293 
Q 1191 2003 1191 1497 
Q 1191 994 1439 701 
Q 1688 409 2113 409 
Q 2538 409 2786 701 
Q 3034 994 3034 1497 
Q 3034 2003 2786 2293 
Q 2538 2584 2113 2584 
z
M 3366 4563 
L 3366 3988 
Q 3128 4100 2886 4159 
Q 2644 4219 2406 4219 
Q 1781 4219 1451 3797 
Q 1122 3375 1075 2522 
Q 1259 2794 1537 2939 
Q 1816 3084 2150 3084 
Q 2853 3084 3261 2657 
Q 3669 2231 3669 1497 
Q 3669 778 3244 343 
Q 2819 -91 2113 -91 
Q 1303 -91 875 529 
Q 447 1150 447 2328 
Q 447 3434 972 4092 
Q 1497 4750 2381 4750 
Q 2619 4750 2861 4703 
Q 3103 4656 3366 4563 
z
" transform="scale(0.015625)"/>
       </defs>
       <use xlink:href="#DejaVuSans-36"/>
      </g>
     </g>
    </g>
    <g id="xtick_5">
     <g id="line2d_5">
      <g>
       <use xlink:href="#mf76ab6c9d1" x="233.636687" y="307.872" style="stroke: #000000; stroke-width: 0.8"/>
      </g>
     </g>
     <g id="text_5">
      <!-- 8 -->
      <g transform="translate(230.455437 322.470438) scale(0.1 -0.1)">
       <defs>
        <path id="DejaVuSans-38" d="M 2034 2216 
Q 1584 2216 1326 1975 
Q 1069 1734 1069 1313 
Q 1069 891 1326 650 
Q 1584 409 2034 409 
Q 2484 409 2743 651 
Q 3003 894 3003 1313 
Q 3003 1734 2745 1975 
Q 2488 2216 2034 2216 
z
M 1403 2484 
Q 997 2584 770 2862 
Q 544 3141 544 3541 
Q 544 4100 942 4425 
Q 1341 4750 2034 4750 
Q 2731 4750 3128 4425 
Q 3525 4100 3525 3541 
Q 3525 3141 3298 2862 
Q 3072 2584 2669 2484 
Q 3125 2378 3379 2068 
Q 3634 1759 3634 1313 
Q 3634 634 3220 271 
Q 2806 -91 2034 -91 
Q 1263 -91 848 271 
Q 434 634 434 1313 
Q 434 1759 690 2068 
Q 947 2378 1403 2484 
z
M 1172 3481 
Q 1172 3119 1398 2916 
Q 1625 2713 2034 2713 
Q 2441 2713 2670 2916 
Q 2900 3119 2900 3481 
Q 2900 3844 2670 4047 
Q 2441 4250 2034 4250 
Q 1625 4250 1398 4047 
Q 1172 3844 1172 3481 
z
" transform="scale(0.015625)"/>
       </defs>
       <use xlink:href="#DejaVuSans-38"/>
      </g>
     </g>
    </g>
    <g id="xtick_6">
     <g id="line2d_6">
      <g>
       <use xlink:href="#mf76ab6c9d1" x="276.35439" y="307.872" style="stroke: #000000; stroke-width: 0.8"/>
      </g>
     </g>
     <g id="text_6">
      <!-- 10 -->
      <g transform="translate(269.99189 322.470438) scale(0.1 -0.1)">
       <defs>
        <path id="DejaVuSans-31" d="M 794 531 
L 1825 531 
L 1825 4091 
L 703 3866 
L 703 4441 
L 1819 4666 
L 2450 4666 
L 2450 531 
L 3481 531 
L 3481 0 
L 794 0 
L 794 531 
z
" transform="scale(0.015625)"/>
       </defs>
       <use xlink:href="#DejaVuSans-31"/>
       <use xlink:href="#DejaVuSans-30" x="63.623047"/>
      </g>
     </g>
    </g>
    <g id="xtick_7">
     <g id="line2d_7">
      <g>
       <use xlink:href="#mf76ab6c9d1" x="319.072093" y="307.872" style="stroke: #000000; stroke-width: 0.8"/>
      </g>
     </g>
     <g id="text_7">
      <!-- 12 -->
      <g transform="translate(312.709593 322.470438) scale(0.1 -0.1)">
       <use xlink:href="#DejaVuSans-31"/>
       <use xlink:href="#DejaVuSans-32" x="63.623047"/>
      </g>
     </g>
    </g>
    <g id="xtick_8">
     <g id="line2d_8">
      <g>
       <use xlink:href="#mf76ab6c9d1" x="361.789797" y="307.872" style="stroke: #000000; stroke-width: 0.8"/>
      </g>
     </g>
     <g id="text_8">
      <!-- 14 -->
      <g transform="translate(355.427297 322.470438) scale(0.1 -0.1)">
       <use xlink:href="#DejaVuSans-31"/>
       <use xlink:href="#DejaVuSans-34" x="63.623047"/>
      </g>
     </g>
    </g>
    <g id="xtick_9">
     <g id="line2d_9">
      <g>
       <use xlink:href="#mf76ab6c9d1" x="404.5075" y="307.872" style="stroke: #000000; stroke-width: 0.8"/>
      </g>
     </g>
     <g id="text_9">
      <!-- 16 -->
      <g transform="translate(398.145 322.470438) scale(0.1 -0.1)">
       <use xlink:href="#DejaVuSans-31"/>
       <use xlink:href="#DejaVuSans-36" x="63.623047"/>
      </g>
     </g>
    </g>
    <g id="text_10">
     <!-- Time [μs] -->
     <g transform="translate(202.437344 336.148562) scale(0.1 -0.1)">
      <defs>
       <path id="DejaVuSans-54" d="M -19 4666 
L 3928 4666 
L 3928 4134 
L 2272 4134 
L 2272 0 
L 1638 0 
L 1638 4134 
L -19 4134 
L -19 4666 
z
" transform="scale(0.015625)"/>
       <path id="DejaVuSans-69" d="M 603 3500 
L 1178 3500 
L 1178 0 
L 603 0 
L 603 3500 
z
M 603 4863 
L 1178 4863 
L 1178 4134 
L 603 4134 
L 603 4863 
z
" transform="scale(0.015625)"/>
       <path id="DejaVuSans-6d" d="M 3328 2828 
Q 3544 3216 3844 3400 
Q 4144 3584 4550 3584 
Q 5097 3584 5394 3201 
Q 5691 2819 5691 2113 
L 5691 0 
L 5113 0 
L 5113 2094 
Q 5113 2597 4934 2840 
Q 4756 3084 4391 3084 
Q 3944 3084 3684 2787 
Q 3425 2491 3425 1978 
L 3425 0 
L 2847 0 
L 2847 2094 
Q 2847 2600 2669 2842 
Q 2491 3084 2119 3084 
Q 1678 3084 1418 2786 
Q 1159 2488 1159 1978 
L 1159 0 
L 581 0 
L 581 3500 
L 1159 3500 
L 1159 2956 
Q 1356 3278 1631 3431 
Q 1906 3584 2284 3584 
Q 2666 3584 2933 3390 
Q 3200 3197 3328 2828 
z
" transform="scale(0.015625)"/>
       <path id="DejaVuSans-65" d="M 3597 1894 
L 3597 1613 
L 953 1613 
Q 991 1019 1311 708 
Q 1631 397 2203 397 
Q 2534 397 2845 478 
Q 3156 559 3463 722 
L 3463 178 
Q 3153 47 2828 -22 
Q 2503 -91 2169 -91 
Q 1331 -91 842 396 
Q 353 884 353 1716 
Q 353 2575 817 3079 
Q 1281 3584 2069 3584 
Q 2775 3584 3186 3129 
Q 3597 2675 3597 1894 
z
M 3022 2063 
Q 3016 2534 2758 2815 
Q 2500 3097 2075 3097 
Q 1594 3097 1305 2825 
Q 1016 2553 972 2059 
L 3022 2063 
z
" transform="scale(0.015625)"/>
       <path id="DejaVuSans-20" transform="scale(0.015625)"/>
       <path id="DejaVuSans-5b" d="M 550 4863 
L 1875 4863 
L 1875 4416 
L 1125 4416 
L 1125 -397 
L 1875 -397 
L 1875 -844 
L 550 -844 
L 550 4863 
z
" transform="scale(0.015625)"/>
       <path id="DejaVuSans-3bc" d="M 544 -1331 
L 544 3500 
L 1119 3500 
L 1119 1325 
Q 1119 872 1334 640 
Q 1550 409 1972 409 
Q 2434 409 2667 671 
Q 2900 934 2900 1459 
L 2900 3500 
L 3475 3500 
L 3475 806 
Q 3475 619 3529 530 
Q 3584 441 3700 441 
Q 3728 441 3778 458 
Q 3828 475 3916 513 
L 3916 50 
Q 3788 -22 3673 -56 
Q 3559 -91 3450 -91 
Q 3234 -91 3106 31 
Q 2978 153 2931 403 
Q 2775 156 2548 32 
Q 2322 -91 2016 -91 
Q 1697 -91 1473 31 
Q 1250 153 1119 397 
L 1119 -1331 
L 544 -1331 
z
" transform="scale(0.015625)"/>
       <path id="DejaVuSans-73" d="M 2834 3397 
L 2834 2853 
Q 2591 2978 2328 3040 
Q 2066 3103 1784 3103 
Q 1356 3103 1142 2972 
Q 928 2841 928 2578 
Q 928 2378 1081 2264 
Q 1234 2150 1697 2047 
L 1894 2003 
Q 2506 1872 2764 1633 
Q 3022 1394 3022 966 
Q 3022 478 2636 193 
Q 2250 -91 1575 -91 
Q 1294 -91 989 -36 
Q 684 19 347 128 
L 347 722 
Q 666 556 975 473 
Q 1284 391 1588 391 
Q 1994 391 2212 530 
Q 2431 669 2431 922 
Q 2431 1156 2273 1281 
Q 2116 1406 1581 1522 
L 1381 1569 
Q 847 1681 609 1914 
Q 372 2147 372 2553 
Q 372 3047 722 3315 
Q 1072 3584 1716 3584 
Q 2034 3584 2315 3537 
Q 2597 3491 2834 3397 
z
" transform="scale(0.015625)"/>
       <path id="DejaVuSans-5d" d="M 1947 4863 
L 1947 -844 
L 622 -844 
L 622 -397 
L 1369 -397 
L 1369 4416 
L 622 4416 
L 622 4863 
L 1947 4863 
z
" transform="scale(0.015625)"/>
      </defs>
      <use xlink:href="#DejaVuSans-54"/>
      <use xlink:href="#DejaVuSans-69" x="57.958984"/>
      <use xlink:href="#DejaVuSans-6d" x="85.742188"/>
      <use xlink:href="#DejaVuSans-65" x="183.154297"/>
      <use xlink:href="#DejaVuSans-20" x="244.677734"/>
      <use xlink:href="#DejaVuSans-5b" x="276.464844"/>
      <use xlink:href="#DejaVuSans-3bc" x="315.478516"/>
      <use xlink:href="#DejaVuSans-73" x="379.101562"/>
      <use xlink:href="#DejaVuSans-5d" x="431.201172"/>
     </g>
    </g>
   </g>
   <g id="matplotlib.axis_2">
    <g id="ytick_1">
     <g id="line2d_10">
      <defs>
       <path id="mf5fc553495" d="M 0 0 
L -3.5 0 
" style="stroke: #000000; stroke-width: 0.8"/>
      </defs>
      <g>
       <use xlink:href="#mf5fc553495" x="47.3875" y="302.923427" style="stroke: #000000; stroke-width: 0.8"/>
      </g>
     </g>
     <g id="text_11">
      <!-- 600 -->
      <g transform="translate(21.3 306.722646) scale(0.1 -0.1)">
       <use xlink:href="#DejaVuSans-36"/>
       <use xlink:href="#DejaVuSans-30" x="63.623047"/>
       <use xlink:href="#DejaVuSans-30" x="127.246094"/>
      </g>
     </g>
    </g>
    <g id="ytick_2">
     <g id="line2d_11">
      <g>
       <use xlink:href="#mf5fc553495" x="47.3875" y="260.145866" style="stroke: #000000; stroke-width: 0.8"/>
      </g>
     </g>
     <g id="text_12">
      <!-- 650 -->
      <g transform="translate(21.3 263.945084) scale(0.1 -0.1)">
       <defs>
        <path id="DejaVuSans-35" d="M 691 4666 
L 3169 4666 
L 3169 4134 
L 1269 4134 
L 1269 2991 
Q 1406 3038 1543 3061 
Q 1681 3084 1819 3084 
Q 2600 3084 3056 2656 
Q 3513 2228 3513 1497 
Q 3513 744 3044 326 
Q 2575 -91 1722 -91 
Q 1428 -91 1123 -41 
Q 819 9 494 109 
L 494 744 
Q 775 591 1075 516 
Q 1375 441 1709 441 
Q 2250 441 2565 725 
Q 2881 1009 2881 1497 
Q 2881 1984 2565 2268 
Q 2250 2553 1709 2553 
Q 1456 2553 1204 2497 
Q 953 2441 691 2322 
L 691 4666 
z
" transform="scale(0.015625)"/>
       </defs>
       <use xlink:href="#DejaVuSans-36"/>
       <use xlink:href="#DejaVuSans-35" x="63.623047"/>
       <use xlink:href="#DejaVuSans-30" x="127.246094"/>
      </g>
     </g>
    </g>
    <g id="ytick_3">
     <g id="line2d_12">
      <g>
       <use xlink:href="#mf5fc553495" x="47.3875" y="217.368304" style="stroke: #000000; stroke-width: 0.8"/>
      </g>
     </g>
     <g id="text_13">
      <!-- 700 -->
      <g transform="translate(21.3 221.167523) scale(0.1 -0.1)">
       <defs>
        <path id="DejaVuSans-37" d="M 525 4666 
L 3525 4666 
L 3525 4397 
L 1831 0 
L 1172 0 
L 2766 4134 
L 525 4134 
L 525 4666 
z
" transform="scale(0.015625)"/>
       </defs>
       <use xlink:href="#DejaVuSans-37"/>
       <use xlink:href="#DejaVuSans-30" x="63.623047"/>
       <use xlink:href="#DejaVuSans-30" x="127.246094"/>
      </g>
     </g>
    </g>
    <g id="ytick_4">
     <g id="line2d_13">
      <g>
       <use xlink:href="#mf5fc553495" x="47.3875" y="174.590743" style="stroke: #000000; stroke-width: 0.8"/>
      </g>
     </g>
     <g id="text_14">
      <!-- 750 -->
      <g transform="translate(21.3 178.389961) scale(0.1 -0.1)">
       <use xlink:href="#DejaVuSans-37"/>
       <use xlink:href="#DejaVuSans-35" x="63.623047"/>
       <use xlink:href="#DejaVuSans-30" x="127.246094"/>
      </g>
     </g>
    </g>
    <g id="ytick_5">
     <g id="line2d_14">
      <g>
       <use xlink:href="#mf5fc553495" x="47.3875" y="131.813181" style="stroke: #000000; stroke-width: 0.8"/>
      </g>
     </g>
     <g id="text_15">
      <!-- 800 -->
      <g transform="translate(21.3 135.6124) scale(0.1 -0.1)">
       <use xlink:href="#DejaVuSans-38"/>
       <use xlink:href="#DejaVuSans-30" x="63.623047"/>
       <use xlink:href="#DejaVuSans-30" x="127.246094"/>
      </g>
     </g>
    </g>
    <g id="ytick_6">
     <g id="line2d_15">
      <g>
       <use xlink:href="#mf5fc553495" x="47.3875" y="89.03562" style="stroke: #000000; stroke-width: 0.8"/>
      </g>
     </g>
     <g id="text_16">
      <!-- 850 -->
      <g transform="translate(21.3 92.834838) scale(0.1 -0.1)">
       <use xlink:href="#DejaVuSans-38"/>
       <use xlink:href="#DejaVuSans-35" x="63.623047"/>
       <use xlink:href="#DejaVuSans-30" x="127.246094"/>
      </g>
     </g>
    </g>
    <g id="ytick_7">
     <g id="line2d_16">
      <g>
       <use xlink:href="#mf5fc553495" x="47.3875" y="46.258058" style="stroke: #000000; stroke-width: 0.8"/>
      </g>
     </g>
     <g id="text_17">
      <!-- 900 -->
      <g transform="translate(21.3 50.057277) scale(0.1 -0.1)">
       <defs>
        <path id="DejaVuSans-39" d="M 703 97 
L 703 672 
Q 941 559 1184 500 
Q 1428 441 1663 441 
Q 2288 441 2617 861 
Q 2947 1281 2994 2138 
Q 2813 1869 2534 1725 
Q 2256 1581 1919 1581 
Q 1219 1581 811 2004 
Q 403 2428 403 3163 
Q 403 3881 828 4315 
Q 1253 4750 1959 4750 
Q 2769 4750 3195 4129 
Q 3622 3509 3622 2328 
Q 3622 1225 3098 567 
Q 2575 -91 1691 -91 
Q 1453 -91 1209 -44 
Q 966 3 703 97 
z
M 1959 2075 
Q 2384 2075 2632 2365 
Q 2881 2656 2881 3163 
Q 2881 3666 2632 3958 
Q 2384 4250 1959 4250 
Q 1534 4250 1286 3958 
Q 1038 3666 1038 3163 
Q 1038 2656 1286 2365 
Q 1534 2075 1959 2075 
z
" transform="scale(0.015625)"/>
       </defs>
       <use xlink:href="#DejaVuSans-39"/>
       <use xlink:href="#DejaVuSans-30" x="63.623047"/>
       <use xlink:href="#DejaVuSans-30" x="127.246094"/>
      </g>
     </g>
    </g>
    <g id="text_18">
     <!-- Magnitude |$S_{21}|$ [μV] -->
     <g transform="translate(14.9 226.166) rotate(-90) scale(0.1 -0.1)">
      <defs>
       <path id="DejaVuSans-4d" d="M 628 4666 
L 1569 4666 
L 2759 1491 
L 3956 4666 
L 4897 4666 
L 4897 0 
L 4281 0 
L 4281 4097 
L 3078 897 
L 2444 897 
L 1241 4097 
L 1241 0 
L 628 0 
L 628 4666 
z
" transform="scale(0.015625)"/>
       <path id="DejaVuSans-61" d="M 2194 1759 
Q 1497 1759 1228 1600 
Q 959 1441 959 1056 
Q 959 750 1161 570 
Q 1363 391 1709 391 
Q 2188 391 2477 730 
Q 2766 1069 2766 1631 
L 2766 1759 
L 2194 1759 
z
M 3341 1997 
L 3341 0 
L 2766 0 
L 2766 531 
Q 2569 213 2275 61 
Q 1981 -91 1556 -91 
Q 1019 -91 701 211 
Q 384 513 384 1019 
Q 384 1609 779 1909 
Q 1175 2209 1959 2209 
L 2766 2209 
L 2766 2266 
Q 2766 2663 2505 2880 
Q 2244 3097 1772 3097 
Q 1472 3097 1187 3025 
Q 903 2953 641 2809 
L 641 3341 
Q 956 3463 1253 3523 
Q 1550 3584 1831 3584 
Q 2591 3584 2966 3190 
Q 3341 2797 3341 1997 
z
" transform="scale(0.015625)"/>
       <path id="DejaVuSans-67" d="M 2906 1791 
Q 2906 2416 2648 2759 
Q 2391 3103 1925 3103 
Q 1463 3103 1205 2759 
Q 947 2416 947 1791 
Q 947 1169 1205 825 
Q 1463 481 1925 481 
Q 2391 481 2648 825 
Q 2906 1169 2906 1791 
z
M 3481 434 
Q 3481 -459 3084 -895 
Q 2688 -1331 1869 -1331 
Q 1566 -1331 1297 -1286 
Q 1028 -1241 775 -1147 
L 775 -588 
Q 1028 -725 1275 -790 
Q 1522 -856 1778 -856 
Q 2344 -856 2625 -561 
Q 2906 -266 2906 331 
L 2906 616 
Q 2728 306 2450 153 
Q 2172 0 1784 0 
Q 1141 0 747 490 
Q 353 981 353 1791 
Q 353 2603 747 3093 
Q 1141 3584 1784 3584 
Q 2172 3584 2450 3431 
Q 2728 3278 2906 2969 
L 2906 3500 
L 3481 3500 
L 3481 434 
z
" transform="scale(0.015625)"/>
       <path id="DejaVuSans-6e" d="M 3513 2113 
L 3513 0 
L 2938 0 
L 2938 2094 
Q 2938 2591 2744 2837 
Q 2550 3084 2163 3084 
Q 1697 3084 1428 2787 
Q 1159 2491 1159 1978 
L 1159 0 
L 581 0 
L 581 3500 
L 1159 3500 
L 1159 2956 
Q 1366 3272 1645 3428 
Q 1925 3584 2291 3584 
Q 2894 3584 3203 3211 
Q 3513 2838 3513 2113 
z
" transform="scale(0.015625)"/>
       <path id="DejaVuSans-74" d="M 1172 4494 
L 1172 3500 
L 2356 3500 
L 2356 3053 
L 1172 3053 
L 1172 1153 
Q 1172 725 1289 603 
Q 1406 481 1766 481 
L 2356 481 
L 2356 0 
L 1766 0 
Q 1100 0 847 248 
Q 594 497 594 1153 
L 594 3053 
L 172 3053 
L 172 3500 
L 594 3500 
L 594 4494 
L 1172 4494 
z
" transform="scale(0.015625)"/>
       <path id="DejaVuSans-75" d="M 544 1381 
L 544 3500 
L 1119 3500 
L 1119 1403 
Q 1119 906 1312 657 
Q 1506 409 1894 409 
Q 2359 409 2629 706 
Q 2900 1003 2900 1516 
L 2900 3500 
L 3475 3500 
L 3475 0 
L 2900 0 
L 2900 538 
Q 2691 219 2414 64 
Q 2138 -91 1772 -91 
Q 1169 -91 856 284 
Q 544 659 544 1381 
z
M 1991 3584 
L 1991 3584 
z
" transform="scale(0.015625)"/>
       <path id="DejaVuSans-64" d="M 2906 2969 
L 2906 4863 
L 3481 4863 
L 3481 0 
L 2906 0 
L 2906 525 
Q 2725 213 2448 61 
Q 2172 -91 1784 -91 
Q 1150 -91 751 415 
Q 353 922 353 1747 
Q 353 2572 751 3078 
Q 1150 3584 1784 3584 
Q 2172 3584 2448 3432 
Q 2725 3281 2906 2969 
z
M 947 1747 
Q 947 1113 1208 752 
Q 1469 391 1925 391 
Q 2381 391 2643 752 
Q 2906 1113 2906 1747 
Q 2906 2381 2643 2742 
Q 2381 3103 1925 3103 
Q 1469 3103 1208 2742 
Q 947 2381 947 1747 
z
" transform="scale(0.015625)"/>
       <path id="DejaVuSans-7c" d="M 1344 4891 
L 1344 -1509 
L 813 -1509 
L 813 4891 
L 1344 4891 
z
" transform="scale(0.015625)"/>
       <path id="DejaVuSans-Oblique-53" d="M 3859 4513 
L 3738 3897 
Q 3422 4066 3111 4152 
Q 2800 4238 2509 4238 
Q 1944 4238 1609 3991 
Q 1275 3744 1275 3334 
Q 1275 3109 1398 2989 
Q 1522 2869 2034 2731 
L 2413 2638 
Q 3053 2472 3303 2217 
Q 3553 1963 3553 1503 
Q 3553 797 2998 353 
Q 2444 -91 1538 -91 
Q 1166 -91 791 -17 
Q 416 56 38 206 
L 166 856 
Q 513 641 861 531 
Q 1209 422 1556 422 
Q 2147 422 2503 684 
Q 2859 947 2859 1369 
Q 2859 1650 2717 1795 
Q 2575 1941 2106 2059 
L 1728 2156 
Q 1081 2325 845 2545 
Q 609 2766 609 3163 
Q 609 3859 1145 4304 
Q 1681 4750 2541 4750 
Q 2875 4750 3203 4690 
Q 3531 4631 3859 4513 
z
" transform="scale(0.015625)"/>
       <path id="DejaVuSans-56" d="M 1831 0 
L 50 4666 
L 709 4666 
L 2188 738 
L 3669 4666 
L 4325 4666 
L 2547 0 
L 1831 0 
z
" transform="scale(0.015625)"/>
      </defs>
      <use xlink:href="#DejaVuSans-4d" transform="translate(0 0.578125)"/>
      <use xlink:href="#DejaVuSans-61" transform="translate(86.279297 0.578125)"/>
      <use xlink:href="#DejaVuSans-67" transform="translate(147.558594 0.578125)"/>
      <use xlink:href="#DejaVuSans-6e" transform="translate(211.035156 0.578125)"/>
      <use xlink:href="#DejaVuSans-69" transform="translate(274.414062 0.578125)"/>
      <use xlink:href="#DejaVuSans-74" transform="translate(302.197266 0.578125)"/>
      <use xlink:href="#DejaVuSans-75" transform="translate(341.40625 0.578125)"/>
      <use xlink:href="#DejaVuSans-64" transform="translate(404.785156 0.578125)"/>
      <use xlink:href="#DejaVuSans-65" transform="translate(468.261719 0.578125)"/>
      <use xlink:href="#DejaVuSans-20" transform="translate(529.785156 0.578125)"/>
      <use xlink:href="#DejaVuSans-7c" transform="translate(561.572266 0.578125)"/>
      <use xlink:href="#DejaVuSans-Oblique-53" transform="translate(595.263672 0.578125)"/>
      <use xlink:href="#DejaVuSans-32" transform="translate(658.740234 -15.828125) scale(0.7)"/>
      <use xlink:href="#DejaVuSans-31" transform="translate(703.276367 -15.828125) scale(0.7)"/>
      <use xlink:href="#DejaVuSans-7c" transform="translate(750.546875 0.578125)"/>
      <use xlink:href="#DejaVuSans-20" transform="translate(784.238281 0.578125)"/>
      <use xlink:href="#DejaVuSans-5b" transform="translate(816.025391 0.578125)"/>
      <use xlink:href="#DejaVuSans-3bc" transform="translate(855.039062 0.578125)"/>
      <use xlink:href="#DejaVuSans-56" transform="translate(918.662109 0.578125)"/>
      <use xlink:href="#DejaVuSans-5d" transform="translate(987.070312 0.578125)"/>
     </g>
    </g>
   </g>
   <g id="line2d_17">
    <defs>
     <path id="mf02bcad5f1" d="M 0 1.5 
C 0.397805 1.5 0.77937 1.341951 1.06066 1.06066 
C 1.341951 0.77937 1.5 0.397805 1.5 0 
C 1.5 -0.397805 1.341951 -0.77937 1.06066 -1.06066 
C 0.77937 -1.341951 0.397805 -1.5 0 -1.5 
C -0.397805 -1.5 -0.77937 -1.341951 -1.06066 -1.06066 
C -1.341951 -0.77937 -1.5 -0.397805 -1.5 0 
C -1.5 0.397805 -1.341951 0.77937 -1.06066 1.06066 
C -0.77937 1.341951 -0.397805 1.5 0 1.5 
z
" style="stroke: #1f77b4"/>
    </defs>
    <g clip-path="url(#p9ecadcc5b2)">
     <use xlink:href="#mf02bcad5f1" x="63.620227" y="99.253212" style="fill: #1f77b4; stroke: #1f77b4"/>
     <use xlink:href="#mf02bcad5f1" x="72.163768" y="195.11523" style="fill: #1f77b4; stroke: #1f77b4"/>
     <use xlink:href="#mf02bcad5f1" x="80.707309" y="286.498165" style="fill: #1f77b4; stroke: #1f77b4"/>
     <use xlink:href="#mf02bcad5f1" x="89.250849" y="70.9235" style="fill: #1f77b4; stroke: #1f77b4"/>
     <use xlink:href="#mf02bcad5f1" x="97.79439" y="195.948928" style="fill: #1f77b4; stroke: #1f77b4"/>
     <use xlink:href="#mf02bcad5f1" x="106.337931" y="233.944164" style="fill: #1f77b4; stroke: #1f77b4"/>
     <use xlink:href="#mf02bcad5f1" x="114.881471" y="103.245111" style="fill: #1f77b4; stroke: #1f77b4"/>
     <use xlink:href="#mf02bcad5f1" x="123.425012" y="219.013353" style="fill: #1f77b4; stroke: #1f77b4"/>
     <use xlink:href="#mf02bcad5f1" x="131.968553" y="214.801993" style="fill: #1f77b4; stroke: #1f77b4"/>
     <use xlink:href="#mf02bcad5f1" x="140.512093" y="116.049098" style="fill: #1f77b4; stroke: #1f77b4"/>
     <use xlink:href="#mf02bcad5f1" x="149.055634" y="233.073857" style="fill: #1f77b4; stroke: #1f77b4"/>
     <use xlink:href="#mf02bcad5f1" x="157.599175" y="171.46304" style="fill: #1f77b4; stroke: #1f77b4"/>
     <use xlink:href="#mf02bcad5f1" x="166.142715" y="130.25229" style="fill: #1f77b4; stroke: #1f77b4"/>
     <use xlink:href="#mf02bcad5f1" x="174.686256" y="240.856474" style="fill: #1f77b4; stroke: #1f77b4"/>
     <use xlink:href="#mf02bcad5f1" x="183.229797" y="188.488653" style="fill: #1f77b4; stroke: #1f77b4"/>
     <use xlink:href="#mf02bcad5f1" x="191.773337" y="157.506405" style="fill: #1f77b4; stroke: #1f77b4"/>
     <use xlink:href="#mf02bcad5f1" x="200.316878" y="210.270664" style="fill: #1f77b4; stroke: #1f77b4"/>
     <use xlink:href="#mf02bcad5f1" x="208.860419" y="178.99674" style="fill: #1f77b4; stroke: #1f77b4"/>
     <use xlink:href="#mf02bcad5f1" x="217.403959" y="149.882956" style="fill: #1f77b4; stroke: #1f77b4"/>
     <use xlink:href="#mf02bcad5f1" x="225.9475" y="199.014916" style="fill: #1f77b4; stroke: #1f77b4"/>
     <use xlink:href="#mf02bcad5f1" x="234.491041" y="175.861718" style="fill: #1f77b4; stroke: #1f77b4"/>
     <use xlink:href="#mf02bcad5f1" x="243.034581" y="177.779352" style="fill: #1f77b4; stroke: #1f77b4"/>
     <use xlink:href="#mf02bcad5f1" x="251.578122" y="198.607985" style="fill: #1f77b4; stroke: #1f77b4"/>
     <use xlink:href="#mf02bcad5f1" x="260.121663" y="163.34203" style="fill: #1f77b4; stroke: #1f77b4"/>
     <use xlink:href="#mf02bcad5f1" x="268.665203" y="188.953882" style="fill: #1f77b4; stroke: #1f77b4"/>
     <use xlink:href="#mf02bcad5f1" x="277.208744" y="201.961422" style="fill: #1f77b4; stroke: #1f77b4"/>
     <use xlink:href="#mf02bcad5f1" x="285.752285" y="159.145418" style="fill: #1f77b4; stroke: #1f77b4"/>
     <use xlink:href="#mf02bcad5f1" x="294.295825" y="184.084504" style="fill: #1f77b4; stroke: #1f77b4"/>
     <use xlink:href="#mf02bcad5f1" x="302.839366" y="172.127771" style="fill: #1f77b4; stroke: #1f77b4"/>
     <use xlink:href="#mf02bcad5f1" x="311.382907" y="174.802586" style="fill: #1f77b4; stroke: #1f77b4"/>
     <use xlink:href="#mf02bcad5f1" x="319.926447" y="176.561578" style="fill: #1f77b4; stroke: #1f77b4"/>
     <use xlink:href="#mf02bcad5f1" x="328.469988" y="210.49916" style="fill: #1f77b4; stroke: #1f77b4"/>
     <use xlink:href="#mf02bcad5f1" x="337.013529" y="162.427913" style="fill: #1f77b4; stroke: #1f77b4"/>
     <use xlink:href="#mf02bcad5f1" x="345.557069" y="180.679727" style="fill: #1f77b4; stroke: #1f77b4"/>
     <use xlink:href="#mf02bcad5f1" x="354.10061" y="182.706021" style="fill: #1f77b4; stroke: #1f77b4"/>
     <use xlink:href="#mf02bcad5f1" x="362.644151" y="178.383419" style="fill: #1f77b4; stroke: #1f77b4"/>
     <use xlink:href="#mf02bcad5f1" x="371.187691" y="168.603669" style="fill: #1f77b4; stroke: #1f77b4"/>
     <use xlink:href="#mf02bcad5f1" x="379.731232" y="172.873931" style="fill: #1f77b4; stroke: #1f77b4"/>
     <use xlink:href="#mf02bcad5f1" x="388.274773" y="186.545053" style="fill: #1f77b4; stroke: #1f77b4"/>
    </g>
   </g>
   <g id="line2d_18">
    <path d="M 63.620227 76.379761 
L 64.270186 65.714803 
L 64.920145 58.358881 
L 65.245125 55.976016 
L 65.570104 54.473393 
L 65.895084 53.856 
L 66.220063 54.122702 
L 66.545043 55.266287 
L 66.870023 57.273552 
L 67.519982 63.79716 
L 68.169941 73.473904 
L 69.144879 93.216948 
L 70.119818 118.028795 
L 71.744715 166.180678 
L 74.019572 233.661087 
L 74.994511 257.686163 
L 75.969449 276.624108 
L 76.619408 285.879871 
L 77.269367 292.171402 
L 77.594347 294.159582 
L 77.919326 295.362281 
L 78.244306 295.776 
L 78.569285 295.40269 
L 78.894265 294.249706 
L 79.219244 292.329726 
L 79.869204 286.265331 
L 80.519163 277.411921 
L 81.494101 259.525142 
L 82.46904 237.19859 
L 84.093937 194.130171 
L 86.368794 134.213561 
L 87.343733 113.036272 
L 88.318671 96.455371 
L 88.96863 88.429791 
L 89.618589 83.058935 
L 89.943569 81.407957 
L 90.268548 80.457752 
L 90.593528 80.210597 
L 90.918507 80.663918 
L 91.243487 81.810334 
L 91.568466 83.637741 
L 92.218425 89.264189 
L 92.868385 97.35695 
L 93.843323 113.554016 
L 95.143241 140.976232 
L 99.367975 238.193564 
L 100.342914 254.192301 
L 100.992873 262.275825 
L 101.642832 268.055993 
L 102.292791 271.402382 
L 102.61777 272.14078 
L 102.94275 272.252828 
L 103.267729 271.741564 
L 103.592709 270.614298 
L 104.242668 266.561863 
L 104.892627 260.235818 
L 105.542586 251.837044 
L 106.517525 235.923833 
L 107.817443 210.200704 
L 111.392217 136.079557 
L 112.367156 120.794984 
L 113.342095 109.524502 
L 113.992054 104.557903 
L 114.642013 101.767084 
L 114.966992 101.205649 
L 115.291972 101.202117 
L 115.616951 101.753118 
L 115.941931 102.851488 
L 116.59189 106.64316 
L 117.241849 112.447276 
L 117.891808 120.080421 
L 118.866747 134.442188 
L 120.166665 157.512709 
L 123.41646 218.212922 
L 124.391398 232.689145 
L 125.366337 243.783158 
L 126.016296 248.984453 
L 126.666255 252.281478 
L 126.991235 253.19274 
L 127.316214 253.606999 
L 127.641194 253.524425 
L 127.966173 252.948609 
L 128.291153 251.886513 
L 128.941112 248.347761 
L 129.591071 243.028167 
L 130.566009 232.087436 
L 131.540948 218.262287 
L 133.165846 191.303158 
L 135.440702 153.30461 
L 136.415641 139.699281 
L 137.390579 128.91918 
L 138.040538 123.611765 
L 138.690498 119.962257 
L 139.015477 118.786068 
L 139.340457 118.050534 
L 139.665436 117.758038 
L 139.990416 117.907898 
L 140.315395 118.496393 
L 140.640375 119.516804 
L 141.290334 122.811932 
L 141.940293 127.682563 
L 142.915231 137.598584 
L 143.89017 150.042015 
L 145.515068 174.159301 
L 147.789924 207.904318 
L 148.764863 219.899864 
L 149.739801 229.341881 
L 150.38976 233.947142 
L 151.039719 237.067328 
L 151.364699 238.047746 
L 151.689679 238.634964 
L 152.014658 238.827334 
L 152.339638 238.625932 
L 152.664617 238.034539 
L 152.989597 237.059597 
L 153.639556 233.997757 
L 154.289515 229.542428 
L 155.264453 220.559686 
L 156.239392 209.363413 
L 157.86429 187.793266 
L 160.139146 157.832073 
L 161.114085 147.259116 
L 162.089023 138.99315 
L 162.738982 135.000768 
L 163.388941 132.338331 
L 163.713921 131.5251 
L 164.0389 131.062651 
L 164.36388 130.95203 
L 164.68886 131.191861 
L 165.013839 131.778361 
L 165.663798 133.964484 
L 166.313757 137.434018 
L 166.963716 142.076348 
L 167.938655 150.922125 
L 169.238573 165.292698 
L 172.813348 207.01056 
L 173.788286 215.686323 
L 174.763225 222.126956 
L 175.413184 224.997438 
L 176.063143 226.64907 
L 176.388122 227.006942 
L 176.713102 227.051382 
L 177.038081 226.783991 
L 177.363061 226.208504 
L 178.01302 224.158626 
L 178.662979 220.972544 
L 179.312938 216.751323 
L 180.287877 208.765526 
L 181.587795 195.874262 
L 185.16257 158.803496 
L 186.137508 151.176936 
L 187.112447 145.56386 
L 187.762406 143.098198 
L 188.412365 141.722128 
L 188.737344 141.451547 
L 189.062324 141.460135 
L 189.387303 141.746134 
L 189.712283 142.305888 
L 190.362242 144.222782 
L 191.012201 147.145314 
L 191.66216 150.981221 
L 192.637099 158.187857 
L 193.937017 169.749119 
L 197.186812 200.110129 
L 198.161751 207.335998 
L 199.136689 212.864718 
L 199.786648 215.450413 
L 200.436607 217.082262 
L 200.761587 217.529069 
L 201.086566 217.727128 
L 201.411546 217.676589 
L 201.736525 217.379311 
L 202.061505 216.838842 
L 202.711464 215.050727 
L 203.361423 212.372756 
L 204.336362 206.877253 
L 205.3113 199.943407 
L 206.936198 186.440178 
L 209.211054 167.437508 
L 210.185993 160.644115 
L 211.160932 155.26897 
L 211.810891 152.627841 
L 212.46085 150.817353 
L 213.110809 149.877036 
L 213.435788 149.738902 
L 213.760768 149.822099 
L 214.085747 150.124707 
L 214.410727 150.643309 
L 215.060686 152.307545 
L 215.710645 154.758989 
L 216.685584 159.739234 
L 217.660522 165.979668 
L 219.28542 178.058893 
L 221.560276 194.933641 
L 222.535215 200.922844 
L 223.510154 205.630307 
L 224.160113 207.921586 
L 224.810072 209.468854 
L 225.460031 210.238741 
L 225.78501 210.327669 
L 226.10999 210.219584 
L 226.434969 209.916429 
L 227.084928 208.739297 
L 227.734887 206.83781 
L 228.384846 204.272846 
L 229.359785 199.356891 
L 230.659703 191.329868 
L 234.234478 167.852703 
L 235.209416 162.929327 
L 236.184355 159.250257 
L 236.834314 157.59273 
L 237.484273 156.617899 
L 237.809253 156.393012 
L 238.134232 156.344191 
L 238.459212 156.470701 
L 238.784191 156.770603 
L 239.43415 157.876964 
L 240.084109 159.624716 
L 240.734068 161.958201 
L 241.709007 166.39761 
L 243.008925 173.599803 
L 246.5837 194.465214 
L 247.558638 198.794443 
L 248.533577 202.002458 
L 249.183536 203.427868 
L 249.833495 204.242878 
L 250.158475 204.41614 
L 250.483454 204.432559 
L 250.808434 204.292976 
L 251.133413 203.999299 
L 251.783372 202.962522 
L 252.433331 201.35795 
L 253.40827 198.001453 
L 254.383208 193.711711 
L 256.008106 185.264606 
L 258.282963 173.220503 
L 259.582881 167.588638 
L 260.557819 164.436114 
L 261.207778 162.948587 
L 261.857738 161.994963 
L 262.507697 161.594894 
L 262.832676 161.604372 
L 263.157656 161.752627 
L 263.807615 162.457078 
L 264.457574 163.682316 
L 265.107533 165.38846 
L 266.082471 168.731286 
L 267.382389 174.293071 
L 271.282144 192.286466 
L 272.257082 195.630083 
L 273.232021 198.064264 
L 273.88198 199.113616 
L 274.531939 199.675322 
L 274.856919 199.769808 
L 275.181898 199.739906 
L 275.831857 199.311626 
L 276.481816 198.408194 
L 277.131775 197.060121 
L 278.106714 194.29981 
L 279.081652 190.82227 
L 280.70655 184.058874 
L 282.981407 174.555934 
L 284.281325 170.18291 
L 285.256263 167.776377 
L 285.906222 166.667011 
L 286.556181 165.985092 
L 287.20614 165.744118 
L 287.8561 165.945344 
L 288.506059 166.577896 
L 289.156018 167.619212 
L 289.805977 169.035808 
L 290.780915 171.767118 
L 292.080833 176.250073 
L 295.980588 190.459316 
L 296.955526 193.037658 
L 297.930465 194.879299 
L 298.580424 195.646502 
L 299.230383 196.024466 
L 299.880342 196.007556 
L 300.530301 195.601024 
L 301.18026 194.820732 
L 301.830219 193.692589 
L 302.805158 191.42725 
L 304.105076 187.581832 
L 308.32981 173.895271 
L 309.304748 171.632531 
L 310.279687 170.032536 
L 310.929646 169.378468 
L 311.579605 169.072043 
L 312.229564 169.117438 
L 312.879523 169.509144 
L 313.529482 170.232231 
L 314.179441 171.262869 
L 315.15438 173.313573 
L 316.454298 176.769119 
L 320.679032 188.932734 
L 321.65397 190.917655 
L 322.628909 192.306544 
L 323.278868 192.862931 
L 323.928827 193.108893 
L 324.578786 193.041459 
L 325.228745 192.666274 
L 325.878704 191.997351 
L 326.528663 191.056577 
L 327.503602 189.201035 
L 328.80352 186.096718 
L 333.028253 175.288864 
L 334.003192 173.54842 
L 334.978131 172.343847 
L 335.62809 171.871698 
L 336.278049 171.676679 
L 336.928008 171.760773 
L 337.577967 172.118291 
L 338.227926 172.736124 
L 339.202864 174.105275 
L 340.177803 175.919785 
L 341.477721 178.823043 
L 344.727516 186.418529 
L 345.702455 188.218806 
L 346.677394 189.59178 
L 347.327353 190.230691 
L 347.977312 190.63029 
L 348.627271 190.782534 
L 349.27723 190.68625 
L 349.927189 190.34709 
L 350.577148 189.777292 
L 351.552086 188.531959 
L 352.527025 186.895364 
L 354.151923 183.597115 
L 356.751759 178.141139 
L 358.051677 175.958097 
L 359.026615 174.75901 
L 359.676575 174.207717 
L 360.326534 173.870515 
L 360.976493 173.754048 
L 361.626452 173.858829 
L 362.276411 174.179304 
L 362.92637 174.704078 
L 363.901308 175.836066 
L 364.876247 177.311654 
L 366.501145 180.26575 
L 369.100981 185.113328 
L 370.400899 187.035915 
L 371.375837 188.08251 
L 372.350776 188.723822 
L 373.000735 188.909307 
L 373.650694 188.89718 
L 374.300653 188.690171 
L 374.950612 188.296315 
L 375.925551 187.385022 
L 376.900489 186.146691 
L 378.200407 184.130326 
L 381.775182 178.257028 
L 382.750121 177.030958 
L 383.725059 176.118031 
L 384.699998 175.568509 
L 385.349957 175.418429 
L 385.999916 175.444407 
L 386.649875 175.643596 
L 387.624814 176.249393 
L 388.274773 176.838921 
L 388.274773 176.838921 
" clip-path="url(#p9ecadcc5b2)" style="fill: none; stroke: #d62728; stroke-width: 1.5; stroke-linecap: square"/>
   </g>
   <g id="patch_3">
    <path d="M 47.3875 307.872 
L 47.3875 41.76 
" style="fill: none; stroke: #000000; stroke-width: 0.8; stroke-linejoin: miter; stroke-linecap: square"/>
   </g>
   <g id="patch_4">
    <path d="M 404.5075 307.872 
L 404.5075 41.76 
" style="fill: none; stroke: #000000; stroke-width: 0.8; stroke-linejoin: miter; stroke-linecap: square"/>
   </g>
   <g id="patch_5">
    <path d="M 47.3875 307.872 
L 404.5075 307.872 
" style="fill: none; stroke: #000000; stroke-width: 0.8; stroke-linejoin: miter; stroke-linecap: square"/>
   </g>
   <g id="patch_6">
    <path d="M 47.3875 41.76 
L 404.5075 41.76 
" style="fill: none; stroke: #000000; stroke-width: 0.8; stroke-linejoin: miter; stroke-linecap: square"/>
   </g>
   <g id="text_19">
    <g id="patch_7">
     <path d="M 422.3635 138.497163 
L 585.7635 138.497163 
Q 589.7635 138.497163 589.7635 134.497163 
L 589.7635 55.0656 
Q 589.7635 51.0656 585.7635 51.0656 
L 422.3635 51.0656 
Q 418.3635 51.0656 418.3635 55.0656 
L 418.3635 134.497163 
Q 418.3635 138.497163 422.3635 138.497163 
z
" style="fill: #ffffff; opacity: 0.5; stroke: #000000; stroke-linejoin: miter"/>
    </g>
    <!-- Summary -->
    <g transform="translate(422.3635 62.664038) scale(0.1 -0.1)">
     <defs>
      <path id="DejaVuSans-53" d="M 3425 4513 
L 3425 3897 
Q 3066 4069 2747 4153 
Q 2428 4238 2131 4238 
Q 1616 4238 1336 4038 
Q 1056 3838 1056 3469 
Q 1056 3159 1242 3001 
Q 1428 2844 1947 2747 
L 2328 2669 
Q 3034 2534 3370 2195 
Q 3706 1856 3706 1288 
Q 3706 609 3251 259 
Q 2797 -91 1919 -91 
Q 1588 -91 1214 -16 
Q 841 59 441 206 
L 441 856 
Q 825 641 1194 531 
Q 1563 422 1919 422 
Q 2459 422 2753 634 
Q 3047 847 3047 1241 
Q 3047 1584 2836 1778 
Q 2625 1972 2144 2069 
L 1759 2144 
Q 1053 2284 737 2584 
Q 422 2884 422 3419 
Q 422 4038 858 4394 
Q 1294 4750 2059 4750 
Q 2388 4750 2728 4690 
Q 3069 4631 3425 4513 
z
" transform="scale(0.015625)"/>
      <path id="DejaVuSans-72" d="M 2631 2963 
Q 2534 3019 2420 3045 
Q 2306 3072 2169 3072 
Q 1681 3072 1420 2755 
Q 1159 2438 1159 1844 
L 1159 0 
L 581 0 
L 581 3500 
L 1159 3500 
L 1159 2956 
Q 1341 3275 1631 3429 
Q 1922 3584 2338 3584 
Q 2397 3584 2469 3576 
Q 2541 3569 2628 3553 
L 2631 2963 
z
" transform="scale(0.015625)"/>
      <path id="DejaVuSans-79" d="M 2059 -325 
Q 1816 -950 1584 -1140 
Q 1353 -1331 966 -1331 
L 506 -1331 
L 506 -850 
L 844 -850 
Q 1081 -850 1212 -737 
Q 1344 -625 1503 -206 
L 1606 56 
L 191 3500 
L 800 3500 
L 1894 763 
L 2988 3500 
L 3597 3500 
L 2059 -325 
z
" transform="scale(0.015625)"/>
     </defs>
     <use xlink:href="#DejaVuSans-53"/>
     <use xlink:href="#DejaVuSans-75" x="63.476562"/>
     <use xlink:href="#DejaVuSans-6d" x="126.855469"/>
     <use xlink:href="#DejaVuSans-6d" x="224.267578"/>
     <use xlink:href="#DejaVuSans-61" x="321.679688"/>
     <use xlink:href="#DejaVuSans-72" x="382.958984"/>
     <use xlink:href="#DejaVuSans-79" x="424.072266"/>
    </g>
    <!-- $T_2^*$: 4.99$\pm$0.53 μs -->
    <g transform="translate(422.3635 75.663725) scale(0.1 -0.1)">
     <defs>
      <path id="DejaVuSans-Oblique-54" d="M 378 4666 
L 4325 4666 
L 4225 4134 
L 2559 4134 
L 1759 0 
L 1125 0 
L 1925 4134 
L 275 4134 
L 378 4666 
z
" transform="scale(0.015625)"/>
      <path id="DejaVuSans-2a" d="M 3009 3897 
L 1888 3291 
L 3009 2681 
L 2828 2375 
L 1778 3009 
L 1778 1831 
L 1422 1831 
L 1422 3009 
L 372 2375 
L 191 2681 
L 1313 3291 
L 191 3897 
L 372 4206 
L 1422 3572 
L 1422 4750 
L 1778 4750 
L 1778 3572 
L 2828 4206 
L 3009 3897 
z
" transform="scale(0.015625)"/>
      <path id="DejaVuSans-3a" d="M 750 794 
L 1409 794 
L 1409 0 
L 750 0 
L 750 794 
z
M 750 3309 
L 1409 3309 
L 1409 2516 
L 750 2516 
L 750 3309 
z
" transform="scale(0.015625)"/>
      <path id="DejaVuSans-2e" d="M 684 794 
L 1344 794 
L 1344 0 
L 684 0 
L 684 794 
z
" transform="scale(0.015625)"/>
      <path id="DejaVuSans-b1" d="M 2944 4013 
L 2944 2803 
L 4684 2803 
L 4684 2272 
L 2944 2272 
L 2944 1063 
L 2419 1063 
L 2419 2272 
L 678 2272 
L 678 2803 
L 2419 2803 
L 2419 4013 
L 2944 4013 
z
M 678 531 
L 4684 531 
L 4684 0 
L 678 0 
L 678 531 
z
" transform="scale(0.015625)"/>
      <path id="DejaVuSans-33" d="M 2597 2516 
Q 3050 2419 3304 2112 
Q 3559 1806 3559 1356 
Q 3559 666 3084 287 
Q 2609 -91 1734 -91 
Q 1441 -91 1130 -33 
Q 819 25 488 141 
L 488 750 
Q 750 597 1062 519 
Q 1375 441 1716 441 
Q 2309 441 2620 675 
Q 2931 909 2931 1356 
Q 2931 1769 2642 2001 
Q 2353 2234 1838 2234 
L 1294 2234 
L 1294 2753 
L 1863 2753 
Q 2328 2753 2575 2939 
Q 2822 3125 2822 3475 
Q 2822 3834 2567 4026 
Q 2313 4219 1838 4219 
Q 1578 4219 1281 4162 
Q 984 4106 628 3988 
L 628 4550 
Q 988 4650 1302 4700 
Q 1616 4750 1894 4750 
Q 2613 4750 3031 4423 
Q 3450 4097 3450 3541 
Q 3450 3153 3228 2886 
Q 3006 2619 2597 2516 
z
" transform="scale(0.015625)"/>
     </defs>
     <use xlink:href="#DejaVuSans-Oblique-54" transform="translate(0 0.765625)"/>
     <use xlink:href="#DejaVuSans-2a" transform="translate(81.738451 39.046875) scale(0.7)"/>
     <use xlink:href="#DejaVuSans-32" transform="translate(61.083984 -26.578125) scale(0.7)"/>
     <use xlink:href="#DejaVuSans-3a" transform="translate(133.110521 0.765625)"/>
     <use xlink:href="#DejaVuSans-20" transform="translate(166.801927 0.765625)"/>
     <use xlink:href="#DejaVuSans-34" transform="translate(198.589036 0.765625)"/>
     <use xlink:href="#DejaVuSans-2e" transform="translate(262.212083 0.765625)"/>
     <use xlink:href="#DejaVuSans-39" transform="translate(293.999193 0.765625)"/>
     <use xlink:href="#DejaVuSans-39" transform="translate(357.62224 0.765625)"/>
     <use xlink:href="#DejaVuSans-b1" transform="translate(421.245286 0.765625)"/>
     <use xlink:href="#DejaVuSans-30" transform="translate(505.034349 0.765625)"/>
     <use xlink:href="#DejaVuSans-2e" transform="translate(568.657396 0.765625)"/>
     <use xlink:href="#DejaVuSans-35" transform="translate(600.444505 0.765625)"/>
     <use xlink:href="#DejaVuSans-33" transform="translate(664.067552 0.765625)"/>
     <use xlink:href="#DejaVuSans-20" transform="translate(727.690599 0.765625)"/>
     <use xlink:href="#DejaVuSans-3bc" transform="translate(759.477708 0.765625)"/>
     <use xlink:href="#DejaVuSans-73" transform="translate(823.100755 0.765625)"/>
    </g>
    <!--  -->
    <g transform="translate(422.3635 87.58185) scale(0.1 -0.1)"/>
    <!-- artificial detuning: 1.7 MHz -->
    <g transform="translate(422.3635 98.779663) scale(0.1 -0.1)">
     <defs>
      <path id="DejaVuSans-66" d="M 2375 4863 
L 2375 4384 
L 1825 4384 
Q 1516 4384 1395 4259 
Q 1275 4134 1275 3809 
L 1275 3500 
L 2222 3500 
L 2222 3053 
L 1275 3053 
L 1275 0 
L 697 0 
L 697 3053 
L 147 3053 
L 147 3500 
L 697 3500 
L 697 3744 
Q 697 4328 969 4595 
Q 1241 4863 1831 4863 
L 2375 4863 
z
" transform="scale(0.015625)"/>
      <path id="DejaVuSans-63" d="M 3122 3366 
L 3122 2828 
Q 2878 2963 2633 3030 
Q 2388 3097 2138 3097 
Q 1578 3097 1268 2742 
Q 959 2388 959 1747 
Q 959 1106 1268 751 
Q 1578 397 2138 397 
Q 2388 397 2633 464 
Q 2878 531 3122 666 
L 3122 134 
Q 2881 22 2623 -34 
Q 2366 -91 2075 -91 
Q 1284 -91 818 406 
Q 353 903 353 1747 
Q 353 2603 823 3093 
Q 1294 3584 2113 3584 
Q 2378 3584 2631 3529 
Q 2884 3475 3122 3366 
z
" transform="scale(0.015625)"/>
      <path id="DejaVuSans-6c" d="M 603 4863 
L 1178 4863 
L 1178 0 
L 603 0 
L 603 4863 
z
" transform="scale(0.015625)"/>
      <path id="DejaVuSans-48" d="M 628 4666 
L 1259 4666 
L 1259 2753 
L 3553 2753 
L 3553 4666 
L 4184 4666 
L 4184 0 
L 3553 0 
L 3553 2222 
L 1259 2222 
L 1259 0 
L 628 0 
L 628 4666 
z
" transform="scale(0.015625)"/>
      <path id="DejaVuSans-7a" d="M 353 3500 
L 3084 3500 
L 3084 2975 
L 922 459 
L 3084 459 
L 3084 0 
L 275 0 
L 275 525 
L 2438 3041 
L 353 3041 
L 353 3500 
z
" transform="scale(0.015625)"/>
     </defs>
     <use xlink:href="#DejaVuSans-61"/>
     <use xlink:href="#DejaVuSans-72" x="61.279297"/>
     <use xlink:href="#DejaVuSans-74" x="102.392578"/>
     <use xlink:href="#DejaVuSans-69" x="141.601562"/>
     <use xlink:href="#DejaVuSans-66" x="169.384766"/>
     <use xlink:href="#DejaVuSans-69" x="204.589844"/>
     <use xlink:href="#DejaVuSans-63" x="232.373047"/>
     <use xlink:href="#DejaVuSans-69" x="287.353516"/>
     <use xlink:href="#DejaVuSans-61" x="315.136719"/>
     <use xlink:href="#DejaVuSans-6c" x="376.416016"/>
     <use xlink:href="#DejaVuSans-20" x="404.199219"/>
     <use xlink:href="#DejaVuSans-64" x="435.986328"/>
     <use xlink:href="#DejaVuSans-65" x="499.462891"/>
     <use xlink:href="#DejaVuSans-74" x="560.986328"/>
     <use xlink:href="#DejaVuSans-75" x="600.195312"/>
     <use xlink:href="#DejaVuSans-6e" x="663.574219"/>
     <use xlink:href="#DejaVuSans-69" x="726.953125"/>
     <use xlink:href="#DejaVuSans-6e" x="754.736328"/>
     <use xlink:href="#DejaVuSans-67" x="818.115234"/>
     <use xlink:href="#DejaVuSans-3a" x="881.591797"/>
     <use xlink:href="#DejaVuSans-20" x="915.283203"/>
     <use xlink:href="#DejaVuSans-31" x="947.070312"/>
     <use xlink:href="#DejaVuSans-2e" x="1010.693359"/>
     <use xlink:href="#DejaVuSans-37" x="1042.480469"/>
     <use xlink:href="#DejaVuSans-20" x="1106.103516"/>
     <use xlink:href="#DejaVuSans-4d" x="1137.890625"/>
     <use xlink:href="#DejaVuSans-48" x="1224.169922"/>
     <use xlink:href="#DejaVuSans-7a" x="1299.365234"/>
    </g>
    <!-- fitted detuning: 868.7$\pm$3.3 kHz -->
    <g transform="translate(422.3635 109.97935) scale(0.1 -0.1)">
     <defs>
      <path id="DejaVuSans-6b" d="M 581 4863 
L 1159 4863 
L 1159 1991 
L 2875 3500 
L 3609 3500 
L 1753 1863 
L 3688 0 
L 2938 0 
L 1159 1709 
L 1159 0 
L 581 0 
L 581 4863 
z
" transform="scale(0.015625)"/>
     </defs>
     <use xlink:href="#DejaVuSans-66" transform="translate(0 0.015625)"/>
     <use xlink:href="#DejaVuSans-69" transform="translate(35.205078 0.015625)"/>
     <use xlink:href="#DejaVuSans-74" transform="translate(62.988281 0.015625)"/>
     <use xlink:href="#DejaVuSans-74" transform="translate(102.197266 0.015625)"/>
     <use xlink:href="#DejaVuSans-65" transform="translate(141.40625 0.015625)"/>
     <use xlink:href="#DejaVuSans-64" transform="translate(202.929688 0.015625)"/>
     <use xlink:href="#DejaVuSans-20" transform="translate(266.40625 0.015625)"/>
     <use xlink:href="#DejaVuSans-64" transform="translate(298.193359 0.015625)"/>
     <use xlink:href="#DejaVuSans-65" transform="translate(361.669922 0.015625)"/>
     <use xlink:href="#DejaVuSans-74" transform="translate(423.193359 0.015625)"/>
     <use xlink:href="#DejaVuSans-75" transform="translate(462.402344 0.015625)"/>
     <use xlink:href="#DejaVuSans-6e" transform="translate(525.78125 0.015625)"/>
     <use xlink:href="#DejaVuSans-69" transform="translate(589.160156 0.015625)"/>
     <use xlink:href="#DejaVuSans-6e" transform="translate(616.943359 0.015625)"/>
     <use xlink:href="#DejaVuSans-67" transform="translate(680.322266 0.015625)"/>
     <use xlink:href="#DejaVuSans-3a" transform="translate(743.798828 0.015625)"/>
     <use xlink:href="#DejaVuSans-20" transform="translate(777.490234 0.015625)"/>
     <use xlink:href="#DejaVuSans-38" transform="translate(809.277344 0.015625)"/>
     <use xlink:href="#DejaVuSans-36" transform="translate(872.900391 0.015625)"/>
     <use xlink:href="#DejaVuSans-38" transform="translate(936.523438 0.015625)"/>
     <use xlink:href="#DejaVuSans-2e" transform="translate(1000.146484 0.015625)"/>
     <use xlink:href="#DejaVuSans-37" transform="translate(1024.183594 0.015625)"/>
     <use xlink:href="#DejaVuSans-b1" transform="translate(1087.806641 0.015625)"/>
     <use xlink:href="#DejaVuSans-33" transform="translate(1171.595703 0.015625)"/>
     <use xlink:href="#DejaVuSans-2e" transform="translate(1235.21875 0.015625)"/>
     <use xlink:href="#DejaVuSans-33" transform="translate(1267.005859 0.015625)"/>
     <use xlink:href="#DejaVuSans-20" transform="translate(1330.628906 0.015625)"/>
     <use xlink:href="#DejaVuSans-6b" transform="translate(1362.416016 0.015625)"/>
     <use xlink:href="#DejaVuSans-48" transform="translate(1420.326172 0.015625)"/>
     <use xlink:href="#DejaVuSans-7a" transform="translate(1495.521484 0.015625)"/>
    </g>
    <!-- actual detuning: -831.3$\pm$3.3 kHz -->
    <g transform="translate(422.3635 121.19935) scale(0.1 -0.1)">
     <defs>
      <path id="DejaVuSans-2d" d="M 313 2009 
L 1997 2009 
L 1997 1497 
L 313 1497 
L 313 2009 
z
" transform="scale(0.015625)"/>
     </defs>
     <use xlink:href="#DejaVuSans-61" transform="translate(0 0.015625)"/>
     <use xlink:href="#DejaVuSans-63" transform="translate(61.279297 0.015625)"/>
     <use xlink:href="#DejaVuSans-74" transform="translate(116.259766 0.015625)"/>
     <use xlink:href="#DejaVuSans-75" transform="translate(155.46875 0.015625)"/>
     <use xlink:href="#DejaVuSans-61" transform="translate(218.847656 0.015625)"/>
     <use xlink:href="#DejaVuSans-6c" transform="translate(280.126953 0.015625)"/>
     <use xlink:href="#DejaVuSans-20" transform="translate(307.910156 0.015625)"/>
     <use xlink:href="#DejaVuSans-64" transform="translate(339.697266 0.015625)"/>
     <use xlink:href="#DejaVuSans-65" transform="translate(403.173828 0.015625)"/>
     <use xlink:href="#DejaVuSans-74" transform="translate(464.697266 0.015625)"/>
     <use xlink:href="#DejaVuSans-75" transform="translate(503.90625 0.015625)"/>
     <use xlink:href="#DejaVuSans-6e" transform="translate(567.285156 0.015625)"/>
     <use xlink:href="#DejaVuSans-69" transform="translate(630.664062 0.015625)"/>
     <use xlink:href="#DejaVuSans-6e" transform="translate(658.447266 0.015625)"/>
     <use xlink:href="#DejaVuSans-67" transform="translate(721.826172 0.015625)"/>
     <use xlink:href="#DejaVuSans-3a" transform="translate(785.302734 0.015625)"/>
     <use xlink:href="#DejaVuSans-20" transform="translate(818.994141 0.015625)"/>
     <use xlink:href="#DejaVuSans-2d" transform="translate(850.78125 0.015625)"/>
     <use xlink:href="#DejaVuSans-38" transform="translate(886.865234 0.015625)"/>
     <use xlink:href="#DejaVuSans-33" transform="translate(950.488281 0.015625)"/>
     <use xlink:href="#DejaVuSans-31" transform="translate(1014.111328 0.015625)"/>
     <use xlink:href="#DejaVuSans-2e" transform="translate(1077.734375 0.015625)"/>
     <use xlink:href="#DejaVuSans-33" transform="translate(1109.521484 0.015625)"/>
     <use xlink:href="#DejaVuSans-b1" transform="translate(1173.144531 0.015625)"/>
     <use xlink:href="#DejaVuSans-33" transform="translate(1256.933594 0.015625)"/>
     <use xlink:href="#DejaVuSans-2e" transform="translate(1320.556641 0.015625)"/>
     <use xlink:href="#DejaVuSans-33" transform="translate(1352.34375 0.015625)"/>
     <use xlink:href="#DejaVuSans-20" transform="translate(1415.966797 0.015625)"/>
     <use xlink:href="#DejaVuSans-6b" transform="translate(1447.753906 0.015625)"/>
     <use xlink:href="#DejaVuSans-48" transform="translate(1505.664062 0.015625)"/>
     <use xlink:href="#DejaVuSans-7a" transform="translate(1580.859375 0.015625)"/>
    </g>
    <!--  -->
    <g transform="translate(422.3635 132.417475) scale(0.1 -0.1)"/>
   </g>
  </g>
  <g id="text_20">
   <!--  ramsey -->
   <g transform="translate(195.924062 16.318125) scale(0.12 -0.12)">
    <use xlink:href="#DejaVuSans-20"/>
    <use xlink:href="#DejaVuSans-72" x="31.787109"/>
    <use xlink:href="#DejaVuSans-61" x="72.900391"/>
    <use xlink:href="#DejaVuSans-6d" x="134.179688"/>
    <use xlink:href="#DejaVuSans-73" x="231.591797"/>
    <use xlink:href="#DejaVuSans-65" x="283.691406"/>
    <use xlink:href="#DejaVuSans-79" x="345.214844"/>
   </g>
   <!-- tuid: 20231227-164648-260-6d7d96 -->
   <g transform="translate(110.349063 29.7555) scale(0.12 -0.12)">
    <use xlink:href="#DejaVuSans-74"/>
    <use xlink:href="#DejaVuSans-75" x="39.208984"/>
    <use xlink:href="#DejaVuSans-69" x="102.587891"/>
    <use xlink:href="#DejaVuSans-64" x="130.371094"/>
    <use xlink:href="#DejaVuSans-3a" x="193.847656"/>
    <use xlink:href="#DejaVuSans-20" x="227.539062"/>
    <use xlink:href="#DejaVuSans-32" x="259.326172"/>
    <use xlink:href="#DejaVuSans-30" x="322.949219"/>
    <use xlink:href="#DejaVuSans-32" x="386.572266"/>
    <use xlink:href="#DejaVuSans-33" x="450.195312"/>
    <use xlink:href="#DejaVuSans-31" x="513.818359"/>
    <use xlink:href="#DejaVuSans-32" x="577.441406"/>
    <use xlink:href="#DejaVuSans-32" x="641.064453"/>
    <use xlink:href="#DejaVuSans-37" x="704.6875"/>
    <use xlink:href="#DejaVuSans-2d" x="768.310547"/>
    <use xlink:href="#DejaVuSans-31" x="804.394531"/>
    <use xlink:href="#DejaVuSans-36" x="868.017578"/>
    <use xlink:href="#DejaVuSans-34" x="931.640625"/>
    <use xlink:href="#DejaVuSans-36" x="995.263672"/>
    <use xlink:href="#DejaVuSans-34" x="1058.886719"/>
    <use xlink:href="#DejaVuSans-38" x="1122.509766"/>
    <use xlink:href="#DejaVuSans-2d" x="1186.132812"/>
    <use xlink:href="#DejaVuSans-32" x="1222.216797"/>
    <use xlink:href="#DejaVuSans-36" x="1285.839844"/>
    <use xlink:href="#DejaVuSans-30" x="1349.462891"/>
    <use xlink:href="#DejaVuSans-2d" x="1413.085938"/>
    <use xlink:href="#DejaVuSans-36" x="1449.169922"/>
    <use xlink:href="#DejaVuSans-64" x="1512.792969"/>
    <use xlink:href="#DejaVuSans-37" x="1576.269531"/>
    <use xlink:href="#DejaVuSans-64" x="1639.892578"/>
    <use xlink:href="#DejaVuSans-39" x="1703.369141"/>
    <use xlink:href="#DejaVuSans-36" x="1766.992188"/>
   </g>
  </g>
 </g>
 <defs>
  <clipPath id="p9ecadcc5b2">
   <rect x="47.3875" y="41.76" width="357.12" height="266.112"/>
  </clipPath>
 </defs>
</svg>
