<?xml version="1.0" encoding="utf-8" standalone="no"?>
<!DOCTYPE svg PUBLIC "-//W3C//DTD SVG 1.1//EN"
  "http://www.w3.org/Graphics/SVG/1.1/DTD/svg11.dtd">
<svg xmlns:xlink="http://www.w3.org/1999/xlink" width="565.224437pt" height="345.42825pt" viewBox="0 0 565.224437 345.42825" xmlns="http://www.w3.org/2000/svg" version="1.1">
 <metadata>
  <rdf:RDF xmlns:dc="http://purl.org/dc/elements/1.1/" xmlns:cc="http://creativecommons.org/ns#" xmlns:rdf="http://www.w3.org/1999/02/22-rdf-syntax-ns#">
   <cc:Work>
    <dc:type rdf:resource="http://purl.org/dc/dcmitype/StillImage"/>
    <dc:date>2023-12-27T18:51:33.178205</dc:date>
    <dc:format>image/svg+xml</dc:format>
    <dc:creator>
     <cc:Agent>
      <dc:title>Matplotlib v3.8.2, https://matplotlib.org/</dc:title>
     </cc:Agent>
    </dc:creator>
   </cc:Work>
  </rdf:RDF>
 </metadata>
 <defs>
  <style type="text/css">*{stroke-linejoin: round; stroke-linecap: butt}</style>
 </defs>
 <g id="figure_1">
  <g id="patch_1">
   <path d="M 0 345.42825 
L 565.224437 345.42825 
L 565.224437 -0 
L 0 -0 
L 0 345.42825 
z
" style="fill: none; opacity: 0"/>
  </g>
  <g id="axes_1">
   <g id="patch_2">
    <path d="M 37.848438 307.872 
L 394.968438 307.872 
L 394.968438 41.76 
L 37.848438 41.76 
z
" style="fill: #ffffff"/>
   </g>
   <g id="matplotlib.axis_1">
    <g id="xtick_1">
     <g id="line2d_1">
      <defs>
       <path id="ma2302e2390" d="M 0 0 
L 0 3.5 
" style="stroke: #000000; stroke-width: 0.8"/>
      </defs>
      <g>
       <use xlink:href="#ma2302e2390" x="112.222636" y="307.872" style="stroke: #000000; stroke-width: 0.8"/>
      </g>
     </g>
     <g id="text_1">
      <!-- -8 -->
      <g transform="translate(107.237479 322.470438) scale(0.1 -0.1)">
       <defs>
        <path id="DejaVuSans-2d" d="M 313 2009 
L 1997 2009 
L 1997 1497 
L 313 1497 
L 313 2009 
z
" transform="scale(0.015625)"/>
        <path id="DejaVuSans-38" d="M 2034 2216 
Q 1584 2216 1326 1975 
Q 1069 1734 1069 1313 
Q 1069 891 1326 650 
Q 1584 409 2034 409 
Q 2484 409 2743 651 
Q 3003 894 3003 1313 
Q 3003 1734 2745 1975 
Q 2488 2216 2034 2216 
z
M 1403 2484 
Q 997 2584 770 2862 
Q 544 3141 544 3541 
Q 544 4100 942 4425 
Q 1341 4750 2034 4750 
Q 2731 4750 3128 4425 
Q 3525 4100 3525 3541 
Q 3525 3141 3298 2862 
Q 3072 2584 2669 2484 
Q 3125 2378 3379 2068 
Q 3634 1759 3634 1313 
Q 3634 634 3220 271 
Q 2806 -91 2034 -91 
Q 1263 -91 848 271 
Q 434 634 434 1313 
Q 434 1759 690 2068 
Q 947 2378 1403 2484 
z
M 1172 3481 
Q 1172 3119 1398 2916 
Q 1625 2713 2034 2713 
Q 2441 2713 2670 2916 
Q 2900 3119 2900 3481 
Q 2900 3844 2670 4047 
Q 2441 4250 2034 4250 
Q 1625 4250 1398 4047 
Q 1172 3844 1172 3481 
z
" transform="scale(0.015625)"/>
       </defs>
       <use xlink:href="#DejaVuSans-2d"/>
       <use xlink:href="#DejaVuSans-38" x="36.083984"/>
      </g>
     </g>
    </g>
    <g id="xtick_2">
     <g id="line2d_2">
      <g>
       <use xlink:href="#ma2302e2390" x="189.000173" y="307.872" style="stroke: #000000; stroke-width: 0.8"/>
      </g>
     </g>
     <g id="text_2">
      <!-- -6 -->
      <g transform="translate(184.015017 322.470438) scale(0.1 -0.1)">
       <defs>
        <path id="DejaVuSans-36" d="M 2113 2584 
Q 1688 2584 1439 2293 
Q 1191 2003 1191 1497 
Q 1191 994 1439 701 
Q 1688 409 2113 409 
Q 2538 409 2786 701 
Q 3034 994 3034 1497 
Q 3034 2003 2786 2293 
Q 2538 2584 2113 2584 
z
M 3366 4563 
L 3366 3988 
Q 3128 4100 2886 4159 
Q 2644 4219 2406 4219 
Q 1781 4219 1451 3797 
Q 1122 3375 1075 2522 
Q 1259 2794 1537 2939 
Q 1816 3084 2150 3084 
Q 2853 3084 3261 2657 
Q 3669 2231 3669 1497 
Q 3669 778 3244 343 
Q 2819 -91 2113 -91 
Q 1303 -91 875 529 
Q 447 1150 447 2328 
Q 447 3434 972 4092 
Q 1497 4750 2381 4750 
Q 2619 4750 2861 4703 
Q 3103 4656 3366 4563 
z
" transform="scale(0.015625)"/>
       </defs>
       <use xlink:href="#DejaVuSans-2d"/>
       <use xlink:href="#DejaVuSans-36" x="36.083984"/>
      </g>
     </g>
    </g>
    <g id="xtick_3">
     <g id="line2d_3">
      <g>
       <use xlink:href="#ma2302e2390" x="265.777711" y="307.872" style="stroke: #000000; stroke-width: 0.8"/>
      </g>
     </g>
     <g id="text_3">
      <!-- -4 -->
      <g transform="translate(260.792555 322.470438) scale(0.1 -0.1)">
       <defs>
        <path id="DejaVuSans-34" d="M 2419 4116 
L 825 1625 
L 2419 1625 
L 2419 4116 
z
M 2253 4666 
L 3047 4666 
L 3047 1625 
L 3713 1625 
L 3713 1100 
L 3047 1100 
L 3047 0 
L 2419 0 
L 2419 1100 
L 313 1100 
L 313 1709 
L 2253 4666 
z
" transform="scale(0.015625)"/>
       </defs>
       <use xlink:href="#DejaVuSans-2d"/>
       <use xlink:href="#DejaVuSans-34" x="36.083984"/>
      </g>
     </g>
    </g>
    <g id="xtick_4">
     <g id="line2d_4">
      <g>
       <use xlink:href="#ma2302e2390" x="342.555249" y="307.872" style="stroke: #000000; stroke-width: 0.8"/>
      </g>
     </g>
     <g id="text_4">
      <!-- -2 -->
      <g transform="translate(337.570093 322.470438) scale(0.1 -0.1)">
       <defs>
        <path id="DejaVuSans-32" d="M 1228 531 
L 3431 531 
L 3431 0 
L 469 0 
L 469 531 
Q 828 903 1448 1529 
Q 2069 2156 2228 2338 
Q 2531 2678 2651 2914 
Q 2772 3150 2772 3378 
Q 2772 3750 2511 3984 
Q 2250 4219 1831 4219 
Q 1534 4219 1204 4116 
Q 875 4013 500 3803 
L 500 4441 
Q 881 4594 1212 4672 
Q 1544 4750 1819 4750 
Q 2544 4750 2975 4387 
Q 3406 4025 3406 3419 
Q 3406 3131 3298 2873 
Q 3191 2616 2906 2266 
Q 2828 2175 2409 1742 
Q 1991 1309 1228 531 
z
" transform="scale(0.015625)"/>
       </defs>
       <use xlink:href="#DejaVuSans-2d"/>
       <use xlink:href="#DejaVuSans-32" x="36.083984"/>
      </g>
     </g>
    </g>
    <g id="text_5">
     <!-- Re$(S_{21})$ [mV] -->
     <g transform="translate(184.408438 336.148562) scale(0.1 -0.1)">
      <defs>
       <path id="DejaVuSans-52" d="M 2841 2188 
Q 3044 2119 3236 1894 
Q 3428 1669 3622 1275 
L 4263 0 
L 3584 0 
L 2988 1197 
Q 2756 1666 2539 1819 
Q 2322 1972 1947 1972 
L 1259 1972 
L 1259 0 
L 628 0 
L 628 4666 
L 2053 4666 
Q 2853 4666 3247 4331 
Q 3641 3997 3641 3322 
Q 3641 2881 3436 2590 
Q 3231 2300 2841 2188 
z
M 1259 4147 
L 1259 2491 
L 2053 2491 
Q 2509 2491 2742 2702 
Q 2975 2913 2975 3322 
Q 2975 3731 2742 3939 
Q 2509 4147 2053 4147 
L 1259 4147 
z
" transform="scale(0.015625)"/>
       <path id="DejaVuSans-65" d="M 3597 1894 
L 3597 1613 
L 953 1613 
Q 991 1019 1311 708 
Q 1631 397 2203 397 
Q 2534 397 2845 478 
Q 3156 559 3463 722 
L 3463 178 
Q 3153 47 2828 -22 
Q 2503 -91 2169 -91 
Q 1331 -91 842 396 
Q 353 884 353 1716 
Q 353 2575 817 3079 
Q 1281 3584 2069 3584 
Q 2775 3584 3186 3129 
Q 3597 2675 3597 1894 
z
M 3022 2063 
Q 3016 2534 2758 2815 
Q 2500 3097 2075 3097 
Q 1594 3097 1305 2825 
Q 1016 2553 972 2059 
L 3022 2063 
z
" transform="scale(0.015625)"/>
       <path id="DejaVuSans-28" d="M 1984 4856 
Q 1566 4138 1362 3434 
Q 1159 2731 1159 2009 
Q 1159 1288 1364 580 
Q 1569 -128 1984 -844 
L 1484 -844 
Q 1016 -109 783 600 
Q 550 1309 550 2009 
Q 550 2706 781 3412 
Q 1013 4119 1484 4856 
L 1984 4856 
z
" transform="scale(0.015625)"/>
       <path id="DejaVuSans-Oblique-53" d="M 3859 4513 
L 3738 3897 
Q 3422 4066 3111 4152 
Q 2800 4238 2509 4238 
Q 1944 4238 1609 3991 
Q 1275 3744 1275 3334 
Q 1275 3109 1398 2989 
Q 1522 2869 2034 2731 
L 2413 2638 
Q 3053 2472 3303 2217 
Q 3553 1963 3553 1503 
Q 3553 797 2998 353 
Q 2444 -91 1538 -91 
Q 1166 -91 791 -17 
Q 416 56 38 206 
L 166 856 
Q 513 641 861 531 
Q 1209 422 1556 422 
Q 2147 422 2503 684 
Q 2859 947 2859 1369 
Q 2859 1650 2717 1795 
Q 2575 1941 2106 2059 
L 1728 2156 
Q 1081 2325 845 2545 
Q 609 2766 609 3163 
Q 609 3859 1145 4304 
Q 1681 4750 2541 4750 
Q 2875 4750 3203 4690 
Q 3531 4631 3859 4513 
z
" transform="scale(0.015625)"/>
       <path id="DejaVuSans-31" d="M 794 531 
L 1825 531 
L 1825 4091 
L 703 3866 
L 703 4441 
L 1819 4666 
L 2450 4666 
L 2450 531 
L 3481 531 
L 3481 0 
L 794 0 
L 794 531 
z
" transform="scale(0.015625)"/>
       <path id="DejaVuSans-29" d="M 513 4856 
L 1013 4856 
Q 1481 4119 1714 3412 
Q 1947 2706 1947 2009 
Q 1947 1309 1714 600 
Q 1481 -109 1013 -844 
L 513 -844 
Q 928 -128 1133 580 
Q 1338 1288 1338 2009 
Q 1338 2731 1133 3434 
Q 928 4138 513 4856 
z
" transform="scale(0.015625)"/>
       <path id="DejaVuSans-20" transform="scale(0.015625)"/>
       <path id="DejaVuSans-5b" d="M 550 4863 
L 1875 4863 
L 1875 4416 
L 1125 4416 
L 1125 -397 
L 1875 -397 
L 1875 -844 
L 550 -844 
L 550 4863 
z
" transform="scale(0.015625)"/>
       <path id="DejaVuSans-6d" d="M 3328 2828 
Q 3544 3216 3844 3400 
Q 4144 3584 4550 3584 
Q 5097 3584 5394 3201 
Q 5691 2819 5691 2113 
L 5691 0 
L 5113 0 
L 5113 2094 
Q 5113 2597 4934 2840 
Q 4756 3084 4391 3084 
Q 3944 3084 3684 2787 
Q 3425 2491 3425 1978 
L 3425 0 
L 2847 0 
L 2847 2094 
Q 2847 2600 2669 2842 
Q 2491 3084 2119 3084 
Q 1678 3084 1418 2786 
Q 1159 2488 1159 1978 
L 1159 0 
L 581 0 
L 581 3500 
L 1159 3500 
L 1159 2956 
Q 1356 3278 1631 3431 
Q 1906 3584 2284 3584 
Q 2666 3584 2933 3390 
Q 3200 3197 3328 2828 
z
" transform="scale(0.015625)"/>
       <path id="DejaVuSans-56" d="M 1831 0 
L 50 4666 
L 709 4666 
L 2188 738 
L 3669 4666 
L 4325 4666 
L 2547 0 
L 1831 0 
z
" transform="scale(0.015625)"/>
       <path id="DejaVuSans-5d" d="M 1947 4863 
L 1947 -844 
L 622 -844 
L 622 -397 
L 1369 -397 
L 1369 4416 
L 622 4416 
L 622 4863 
L 1947 4863 
z
" transform="scale(0.015625)"/>
      </defs>
      <use xlink:href="#DejaVuSans-52" transform="translate(0 0.015625)"/>
      <use xlink:href="#DejaVuSans-65" transform="translate(69.482422 0.015625)"/>
      <use xlink:href="#DejaVuSans-28" transform="translate(131.005859 0.015625)"/>
      <use xlink:href="#DejaVuSans-Oblique-53" transform="translate(170.019531 0.015625)"/>
      <use xlink:href="#DejaVuSans-32" transform="translate(233.496094 -16.390625) scale(0.7)"/>
      <use xlink:href="#DejaVuSans-31" transform="translate(278.032227 -16.390625) scale(0.7)"/>
      <use xlink:href="#DejaVuSans-29" transform="translate(325.302734 0.015625)"/>
      <use xlink:href="#DejaVuSans-20" transform="translate(364.316406 0.015625)"/>
      <use xlink:href="#DejaVuSans-5b" transform="translate(396.103516 0.015625)"/>
      <use xlink:href="#DejaVuSans-6d" transform="translate(435.117188 0.015625)"/>
      <use xlink:href="#DejaVuSans-56" transform="translate(532.529297 0.015625)"/>
      <use xlink:href="#DejaVuSans-5d" transform="translate(600.9375 0.015625)"/>
     </g>
    </g>
   </g>
   <g id="matplotlib.axis_2">
    <g id="ytick_1">
     <g id="line2d_5">
      <defs>
       <path id="m92ec5fe61b" d="M 0 0 
L -3.5 0 
" style="stroke: #000000; stroke-width: 0.8"/>
      </defs>
      <g>
       <use xlink:href="#m92ec5fe61b" x="37.848438" y="303.451864" style="stroke: #000000; stroke-width: 0.8"/>
      </g>
     </g>
     <g id="text_6">
      <!-- -7 -->
      <g transform="translate(20.878125 307.251083) scale(0.1 -0.1)">
       <defs>
        <path id="DejaVuSans-37" d="M 525 4666 
L 3525 4666 
L 3525 4397 
L 1831 0 
L 1172 0 
L 2766 4134 
L 525 4134 
L 525 4666 
z
" transform="scale(0.015625)"/>
       </defs>
       <use xlink:href="#DejaVuSans-2d"/>
       <use xlink:href="#DejaVuSans-37" x="36.083984"/>
      </g>
     </g>
    </g>
    <g id="ytick_2">
     <g id="line2d_6">
      <g>
       <use xlink:href="#m92ec5fe61b" x="37.848438" y="271.629163" style="stroke: #000000; stroke-width: 0.8"/>
      </g>
     </g>
     <g id="text_7">
      <!-- -6 -->
      <g transform="translate(20.878125 275.428382) scale(0.1 -0.1)">
       <use xlink:href="#DejaVuSans-2d"/>
       <use xlink:href="#DejaVuSans-36" x="36.083984"/>
      </g>
     </g>
    </g>
    <g id="ytick_3">
     <g id="line2d_7">
      <g>
       <use xlink:href="#m92ec5fe61b" x="37.848438" y="239.806462" style="stroke: #000000; stroke-width: 0.8"/>
      </g>
     </g>
     <g id="text_8">
      <!-- -5 -->
      <g transform="translate(20.878125 243.60568) scale(0.1 -0.1)">
       <defs>
        <path id="DejaVuSans-35" d="M 691 4666 
L 3169 4666 
L 3169 4134 
L 1269 4134 
L 1269 2991 
Q 1406 3038 1543 3061 
Q 1681 3084 1819 3084 
Q 2600 3084 3056 2656 
Q 3513 2228 3513 1497 
Q 3513 744 3044 326 
Q 2575 -91 1722 -91 
Q 1428 -91 1123 -41 
Q 819 9 494 109 
L 494 744 
Q 775 591 1075 516 
Q 1375 441 1709 441 
Q 2250 441 2565 725 
Q 2881 1009 2881 1497 
Q 2881 1984 2565 2268 
Q 2250 2553 1709 2553 
Q 1456 2553 1204 2497 
Q 953 2441 691 2322 
L 691 4666 
z
" transform="scale(0.015625)"/>
       </defs>
       <use xlink:href="#DejaVuSans-2d"/>
       <use xlink:href="#DejaVuSans-35" x="36.083984"/>
      </g>
     </g>
    </g>
    <g id="ytick_4">
     <g id="line2d_8">
      <g>
       <use xlink:href="#m92ec5fe61b" x="37.848438" y="207.98376" style="stroke: #000000; stroke-width: 0.8"/>
      </g>
     </g>
     <g id="text_9">
      <!-- -4 -->
      <g transform="translate(20.878125 211.782979) scale(0.1 -0.1)">
       <use xlink:href="#DejaVuSans-2d"/>
       <use xlink:href="#DejaVuSans-34" x="36.083984"/>
      </g>
     </g>
    </g>
    <g id="ytick_5">
     <g id="line2d_9">
      <g>
       <use xlink:href="#m92ec5fe61b" x="37.848438" y="176.161059" style="stroke: #000000; stroke-width: 0.8"/>
      </g>
     </g>
     <g id="text_10">
      <!-- -3 -->
      <g transform="translate(20.878125 179.960278) scale(0.1 -0.1)">
       <defs>
        <path id="DejaVuSans-33" d="M 2597 2516 
Q 3050 2419 3304 2112 
Q 3559 1806 3559 1356 
Q 3559 666 3084 287 
Q 2609 -91 1734 -91 
Q 1441 -91 1130 -33 
Q 819 25 488 141 
L 488 750 
Q 750 597 1062 519 
Q 1375 441 1716 441 
Q 2309 441 2620 675 
Q 2931 909 2931 1356 
Q 2931 1769 2642 2001 
Q 2353 2234 1838 2234 
L 1294 2234 
L 1294 2753 
L 1863 2753 
Q 2328 2753 2575 2939 
Q 2822 3125 2822 3475 
Q 2822 3834 2567 4026 
Q 2313 4219 1838 4219 
Q 1578 4219 1281 4162 
Q 984 4106 628 3988 
L 628 4550 
Q 988 4650 1302 4700 
Q 1616 4750 1894 4750 
Q 2613 4750 3031 4423 
Q 3450 4097 3450 3541 
Q 3450 3153 3228 2886 
Q 3006 2619 2597 2516 
z
" transform="scale(0.015625)"/>
       </defs>
       <use xlink:href="#DejaVuSans-2d"/>
       <use xlink:href="#DejaVuSans-33" x="36.083984"/>
      </g>
     </g>
    </g>
    <g id="ytick_6">
     <g id="line2d_10">
      <g>
       <use xlink:href="#m92ec5fe61b" x="37.848438" y="144.338358" style="stroke: #000000; stroke-width: 0.8"/>
      </g>
     </g>
     <g id="text_11">
      <!-- -2 -->
      <g transform="translate(20.878125 148.137576) scale(0.1 -0.1)">
       <use xlink:href="#DejaVuSans-2d"/>
       <use xlink:href="#DejaVuSans-32" x="36.083984"/>
      </g>
     </g>
    </g>
    <g id="ytick_7">
     <g id="line2d_11">
      <g>
       <use xlink:href="#m92ec5fe61b" x="37.848438" y="112.515656" style="stroke: #000000; stroke-width: 0.8"/>
      </g>
     </g>
     <g id="text_12">
      <!-- -1 -->
      <g transform="translate(20.878125 116.314875) scale(0.1 -0.1)">
       <use xlink:href="#DejaVuSans-2d"/>
       <use xlink:href="#DejaVuSans-31" x="36.083984"/>
      </g>
     </g>
    </g>
    <g id="ytick_8">
     <g id="line2d_12">
      <g>
       <use xlink:href="#m92ec5fe61b" x="37.848438" y="80.692955" style="stroke: #000000; stroke-width: 0.8"/>
      </g>
     </g>
     <g id="text_13">
      <!-- 0 -->
      <g transform="translate(24.485938 84.492174) scale(0.1 -0.1)">
       <defs>
        <path id="DejaVuSans-30" d="M 2034 4250 
Q 1547 4250 1301 3770 
Q 1056 3291 1056 2328 
Q 1056 1369 1301 889 
Q 1547 409 2034 409 
Q 2525 409 2770 889 
Q 3016 1369 3016 2328 
Q 3016 3291 2770 3770 
Q 2525 4250 2034 4250 
z
M 2034 4750 
Q 2819 4750 3233 4129 
Q 3647 3509 3647 2328 
Q 3647 1150 3233 529 
Q 2819 -91 2034 -91 
Q 1250 -91 836 529 
Q 422 1150 422 2328 
Q 422 3509 836 4129 
Q 1250 4750 2034 4750 
z
" transform="scale(0.015625)"/>
       </defs>
       <use xlink:href="#DejaVuSans-30"/>
      </g>
     </g>
    </g>
    <g id="ytick_9">
     <g id="line2d_13">
      <g>
       <use xlink:href="#m92ec5fe61b" x="37.848438" y="48.870253" style="stroke: #000000; stroke-width: 0.8"/>
      </g>
     </g>
     <g id="text_14">
      <!-- 1 -->
      <g transform="translate(24.485938 52.669472) scale(0.1 -0.1)">
       <use xlink:href="#DejaVuSans-31"/>
      </g>
     </g>
    </g>
    <g id="text_15">
     <!-- Im$(S_{21})$ [mV] -->
     <g transform="translate(14.798438 206.466) rotate(-90) scale(0.1 -0.1)">
      <defs>
       <path id="DejaVuSans-49" d="M 628 4666 
L 1259 4666 
L 1259 0 
L 628 0 
L 628 4666 
z
" transform="scale(0.015625)"/>
      </defs>
      <use xlink:href="#DejaVuSans-49" transform="translate(0 0.015625)"/>
      <use xlink:href="#DejaVuSans-6d" transform="translate(25.867188 0.015625)"/>
      <use xlink:href="#DejaVuSans-28" transform="translate(123.279297 0.015625)"/>
      <use xlink:href="#DejaVuSans-Oblique-53" transform="translate(162.292969 0.015625)"/>
      <use xlink:href="#DejaVuSans-32" transform="translate(225.769531 -16.390625) scale(0.7)"/>
      <use xlink:href="#DejaVuSans-31" transform="translate(270.305664 -16.390625) scale(0.7)"/>
      <use xlink:href="#DejaVuSans-29" transform="translate(317.576172 0.015625)"/>
      <use xlink:href="#DejaVuSans-20" transform="translate(356.589844 0.015625)"/>
      <use xlink:href="#DejaVuSans-5b" transform="translate(388.376953 0.015625)"/>
      <use xlink:href="#DejaVuSans-6d" transform="translate(427.390625 0.015625)"/>
      <use xlink:href="#DejaVuSans-56" transform="translate(524.802734 0.015625)"/>
      <use xlink:href="#DejaVuSans-5d" transform="translate(593.210938 0.015625)"/>
     </g>
    </g>
   </g>
   <g id="line2d_14">
    <path d="M 81.412059 261.28878 
L 81.464778 257.573247 
L 79.13353 258.300904 
L 81.845061 255.386889 
L 74.146595 257.643584 
L 71.474738 252.11884 
L 76.077056 255.433009 
L 71.343796 252.53993 
L 73.71376 249.228973 
L 72.40913 249.373136 
L 73.529682 247.867867 
L 71.867482 242.769256 
L 67.830066 242.034966 
L 64.360303 242.191532 
L 66.928848 238.045305 
L 61.504827 236.705791 
L 60.055293 232.079917 
L 62.599667 231.976623 
L 61.05003 233.171075 
L 67.112175 225.02161 
L 57.750217 225.223674 
L 62.41463 220.433151 
L 58.964079 217.31569 
L 58.487236 216.107833 
L 60.413738 215.44502 
L 61.028067 210.326062 
L 56.256341 204.830095 
L 57.770137 202.677973 
L 61.094747 201.664407 
L 58.211849 197.981106 
L 61.199976 195.276479 
L 54.502164 193.797499 
L 56.980941 185.541872 
L 54.081165 181.140691 
L 55.60588 175.67585 
L 57.112967 176.228079 
L 59.9634 169.034315 
L 55.30928 165.17524 
L 58.711572 161.317202 
L 61.656857 155.953341 
L 66.809158 152.646945 
L 63.82349 149.16854 
L 66.554233 145.700983 
L 66.278345 139.535052 
L 66.588156 137.052076 
L 70.333556 131.731054 
L 72.449221 130.011112 
L 75.494817 124.490237 
L 82.643842 118.471578 
L 82.870095 109.540804 
L 93.566023 108.203743 
L 88.350585 107.982541 
L 102.036307 102.507336 
L 98.361713 96.864788 
L 104.316045 95.310117 
L 115.252813 90.739414 
L 122.179002 88.396076 
L 119.798995 82.717081 
L 129.757028 79.053023 
L 140.416366 81.397328 
L 145.475607 81.00391 
L 153.449002 77.711021 
L 157.643824 68.397435 
L 161.449194 70.549281 
L 168.288825 65.283913 
L 171.233277 69.782137 
L 182.305362 65.757203 
L 188.467527 66.068711 
L 195.329163 64.132402 
L 212.176338 71.098919 
L 211.839397 61.209682 
L 218.628435 53.856 
L 227.874287 59.008365 
L 235.060528 69.312509 
L 242.869516 70.252006 
L 248.088413 67.14035 
L 256.744775 69.254367 
L 260.526724 61.970504 
L 271.394228 65.144241 
L 277.395653 67.611774 
L 284.639114 71.651874 
L 287.972392 73.641488 
L 299.911147 75.808637 
L 303.963107 77.881716 
L 307.991438 84.522043 
L 311.18723 85.922774 
L 317.575815 89.816913 
L 326.281978 92.240918 
L 328.143093 97.670762 
L 333.656214 104.795814 
L 335.848144 101.893959 
L 343.352447 108.193966 
L 346.885722 112.955021 
L 351.34297 117.814465 
L 353.413167 125.329722 
L 356.225426 129.279792 
L 361.287084 135.457124 
L 356.487061 137.569344 
L 370.3031 138.62903 
L 371.830691 141.565984 
L 374.795105 146.033875 
L 369.526156 151.093932 
L 371.395689 158.98478 
L 371.862947 161.65227 
L 370.124399 166.513752 
L 374.192487 172.972052 
L 372.444728 176.083225 
L 374.481502 181.697204 
L 378.73571 185.181688 
L 374.265293 191.749571 
L 373.199001 191.681099 
L 372.750038 199.532944 
L 370.312685 203.110843 
L 369.269981 205.118456 
L 364.553849 207.1706 
L 370.124274 212.072121 
L 362.101077 214.221652 
L 362.593965 219.676923 
L 367.47738 219.553799 
L 360.597783 224.537956 
L 359.655181 226.555864 
L 359.276732 226.763041 
L 360.171949 229.21565 
L 360.218917 236.899771 
L 354.9433 237.823619 
L 350.498221 244.032146 
L 345.691113 242.727317 
L 346.225926 244.73379 
L 346.614461 245.493195 
L 341.727212 246.748934 
L 342.861726 248.166316 
L 338.487952 254.035491 
L 340.860334 253.410403 
L 333.51777 258.850922 
L 332.801172 259.008559 
L 334.058251 260.413159 
L 330.438917 261.165794 
L 330.408286 263.23946 
L 326.656177 264.651937 
L 327.63391 265.614304 
L 322.418263 267.6015 
L 321.034492 271.925746 
L 318.379889 271.985167 
L 311.627816 271.465653 
L 312.523117 273.024712 
L 308.800304 273.475961 
L 306.578119 273.308306 
L 308.713121 277.853064 
L 308.842229 278.613817 
L 304.085756 279.679306 
L 303.148739 274.865948 
L 300.811823 279.886897 
L 302.866809 282.624655 
L 299.096404 283.228981 
L 298.485326 276.758347 
L 292.268608 283.747803 
L 290.49847 283.062776 
L 289.679851 282.569933 
L 287.072507 284.498261 
L 288.045656 286.078359 
L 286.067602 285.325862 
L 286.830626 284.605702 
L 281.502541 285.057158 
L 278.657692 288.526891 
L 277.900627 286.774268 
L 276.334779 285.648045 
L 274.923461 287.074789 
L 271.287165 286.773818 
L 271.810601 286.332001 
L 272.455311 291.335401 
L 268.571175 287.044043 
L 265.798132 289.127555 
L 266.599831 291.198285 
L 264.605023 289.461138 
L 265.117248 292.694779 
L 261.52467 286.083368 
L 260.144775 288.468473 
L 258.065117 293.61538 
L 256.072269 290.533468 
L 253.294516 289.467149 
L 252.013307 290.613167 
L 251.093335 293.118909 
L 251.910078 289.04143 
L 246.864882 292.107312 
L 246.57445 291.748476 
L 241.807058 289.922267 
L 249.390627 292.730777 
L 245.289615 293.040246 
L 244.750885 291.398483 
L 241.882989 292.699339 
L 242.302613 293.091893 
L 239.478268 293.010743 
L 237.036582 293.539964 
L 240.635162 291.615609 
L 232.534492 291.576018 
L 234.511212 295.776 
L 233.046342 292.723349 
L 232.402758 293.376904 
L 231.483369 290.248596 
L 231.483369 290.248596 
" clip-path="url(#p82a904bd11)" style="fill: none; stroke: #1f77b4; stroke-width: 1.5; stroke-linecap: square"/>
    <defs>
     <path id="mc171aabac7" d="M 0 1.5 
C 0.397805 1.5 0.77937 1.341951 1.06066 1.06066 
C 1.341951 0.77937 1.5 0.397805 1.5 0 
C 1.5 -0.397805 1.341951 -0.77937 1.06066 -1.06066 
C 0.77937 -1.341951 0.397805 -1.5 0 -1.5 
C -0.397805 -1.5 -0.77937 -1.341951 -1.06066 -1.06066 
C -1.341951 -0.77937 -1.5 -0.397805 -1.5 0 
C -1.5 0.397805 -1.341951 0.77937 -1.06066 1.06066 
C -0.77937 1.341951 -0.397805 1.5 0 1.5 
z
" style="stroke: #1f77b4"/>
    </defs>
    <g clip-path="url(#p82a904bd11)">
     <use xlink:href="#mc171aabac7" x="81.412059" y="261.28878" style="fill: #1f77b4; stroke: #1f77b4"/>
     <use xlink:href="#mc171aabac7" x="81.464778" y="257.573247" style="fill: #1f77b4; stroke: #1f77b4"/>
     <use xlink:href="#mc171aabac7" x="79.13353" y="258.300904" style="fill: #1f77b4; stroke: #1f77b4"/>
     <use xlink:href="#mc171aabac7" x="81.845061" y="255.386889" style="fill: #1f77b4; stroke: #1f77b4"/>
     <use xlink:href="#mc171aabac7" x="74.146595" y="257.643584" style="fill: #1f77b4; stroke: #1f77b4"/>
     <use xlink:href="#mc171aabac7" x="71.474738" y="252.11884" style="fill: #1f77b4; stroke: #1f77b4"/>
     <use xlink:href="#mc171aabac7" x="76.077056" y="255.433009" style="fill: #1f77b4; stroke: #1f77b4"/>
     <use xlink:href="#mc171aabac7" x="71.343796" y="252.53993" style="fill: #1f77b4; stroke: #1f77b4"/>
     <use xlink:href="#mc171aabac7" x="73.71376" y="249.228973" style="fill: #1f77b4; stroke: #1f77b4"/>
     <use xlink:href="#mc171aabac7" x="72.40913" y="249.373136" style="fill: #1f77b4; stroke: #1f77b4"/>
     <use xlink:href="#mc171aabac7" x="73.529682" y="247.867867" style="fill: #1f77b4; stroke: #1f77b4"/>
     <use xlink:href="#mc171aabac7" x="71.867482" y="242.769256" style="fill: #1f77b4; stroke: #1f77b4"/>
     <use xlink:href="#mc171aabac7" x="67.830066" y="242.034966" style="fill: #1f77b4; stroke: #1f77b4"/>
     <use xlink:href="#mc171aabac7" x="64.360303" y="242.191532" style="fill: #1f77b4; stroke: #1f77b4"/>
     <use xlink:href="#mc171aabac7" x="66.928848" y="238.045305" style="fill: #1f77b4; stroke: #1f77b4"/>
     <use xlink:href="#mc171aabac7" x="61.504827" y="236.705791" style="fill: #1f77b4; stroke: #1f77b4"/>
     <use xlink:href="#mc171aabac7" x="60.055293" y="232.079917" style="fill: #1f77b4; stroke: #1f77b4"/>
     <use xlink:href="#mc171aabac7" x="62.599667" y="231.976623" style="fill: #1f77b4; stroke: #1f77b4"/>
     <use xlink:href="#mc171aabac7" x="61.05003" y="233.171075" style="fill: #1f77b4; stroke: #1f77b4"/>
     <use xlink:href="#mc171aabac7" x="67.112175" y="225.02161" style="fill: #1f77b4; stroke: #1f77b4"/>
     <use xlink:href="#mc171aabac7" x="57.750217" y="225.223674" style="fill: #1f77b4; stroke: #1f77b4"/>
     <use xlink:href="#mc171aabac7" x="62.41463" y="220.433151" style="fill: #1f77b4; stroke: #1f77b4"/>
     <use xlink:href="#mc171aabac7" x="58.964079" y="217.31569" style="fill: #1f77b4; stroke: #1f77b4"/>
     <use xlink:href="#mc171aabac7" x="58.487236" y="216.107833" style="fill: #1f77b4; stroke: #1f77b4"/>
     <use xlink:href="#mc171aabac7" x="60.413738" y="215.44502" style="fill: #1f77b4; stroke: #1f77b4"/>
     <use xlink:href="#mc171aabac7" x="61.028067" y="210.326062" style="fill: #1f77b4; stroke: #1f77b4"/>
     <use xlink:href="#mc171aabac7" x="56.256341" y="204.830095" style="fill: #1f77b4; stroke: #1f77b4"/>
     <use xlink:href="#mc171aabac7" x="57.770137" y="202.677973" style="fill: #1f77b4; stroke: #1f77b4"/>
     <use xlink:href="#mc171aabac7" x="61.094747" y="201.664407" style="fill: #1f77b4; stroke: #1f77b4"/>
     <use xlink:href="#mc171aabac7" x="58.211849" y="197.981106" style="fill: #1f77b4; stroke: #1f77b4"/>
     <use xlink:href="#mc171aabac7" x="61.199976" y="195.276479" style="fill: #1f77b4; stroke: #1f77b4"/>
     <use xlink:href="#mc171aabac7" x="54.502164" y="193.797499" style="fill: #1f77b4; stroke: #1f77b4"/>
     <use xlink:href="#mc171aabac7" x="56.980941" y="185.541872" style="fill: #1f77b4; stroke: #1f77b4"/>
     <use xlink:href="#mc171aabac7" x="56.667713" y="185.076183" style="fill: #1f77b4; stroke: #1f77b4"/>
     <use xlink:href="#mc171aabac7" x="54.081165" y="181.140691" style="fill: #1f77b4; stroke: #1f77b4"/>
     <use xlink:href="#mc171aabac7" x="55.60588" y="175.67585" style="fill: #1f77b4; stroke: #1f77b4"/>
     <use xlink:href="#mc171aabac7" x="57.112967" y="176.228079" style="fill: #1f77b4; stroke: #1f77b4"/>
     <use xlink:href="#mc171aabac7" x="59.9634" y="169.034315" style="fill: #1f77b4; stroke: #1f77b4"/>
     <use xlink:href="#mc171aabac7" x="55.30928" y="165.17524" style="fill: #1f77b4; stroke: #1f77b4"/>
     <use xlink:href="#mc171aabac7" x="58.711572" y="161.317202" style="fill: #1f77b4; stroke: #1f77b4"/>
     <use xlink:href="#mc171aabac7" x="61.656857" y="155.953341" style="fill: #1f77b4; stroke: #1f77b4"/>
     <use xlink:href="#mc171aabac7" x="66.809158" y="152.646945" style="fill: #1f77b4; stroke: #1f77b4"/>
     <use xlink:href="#mc171aabac7" x="63.82349" y="149.16854" style="fill: #1f77b4; stroke: #1f77b4"/>
     <use xlink:href="#mc171aabac7" x="66.554233" y="145.700983" style="fill: #1f77b4; stroke: #1f77b4"/>
     <use xlink:href="#mc171aabac7" x="66.278345" y="139.535052" style="fill: #1f77b4; stroke: #1f77b4"/>
     <use xlink:href="#mc171aabac7" x="66.588156" y="137.052076" style="fill: #1f77b4; stroke: #1f77b4"/>
     <use xlink:href="#mc171aabac7" x="70.333556" y="131.731054" style="fill: #1f77b4; stroke: #1f77b4"/>
     <use xlink:href="#mc171aabac7" x="72.449221" y="130.011112" style="fill: #1f77b4; stroke: #1f77b4"/>
     <use xlink:href="#mc171aabac7" x="75.494817" y="124.490237" style="fill: #1f77b4; stroke: #1f77b4"/>
     <use xlink:href="#mc171aabac7" x="82.643842" y="118.471578" style="fill: #1f77b4; stroke: #1f77b4"/>
     <use xlink:href="#mc171aabac7" x="82.870095" y="109.540804" style="fill: #1f77b4; stroke: #1f77b4"/>
     <use xlink:href="#mc171aabac7" x="93.566023" y="108.203743" style="fill: #1f77b4; stroke: #1f77b4"/>
     <use xlink:href="#mc171aabac7" x="88.350585" y="107.982541" style="fill: #1f77b4; stroke: #1f77b4"/>
     <use xlink:href="#mc171aabac7" x="102.036307" y="102.507336" style="fill: #1f77b4; stroke: #1f77b4"/>
     <use xlink:href="#mc171aabac7" x="98.361713" y="96.864788" style="fill: #1f77b4; stroke: #1f77b4"/>
     <use xlink:href="#mc171aabac7" x="104.316045" y="95.310117" style="fill: #1f77b4; stroke: #1f77b4"/>
     <use xlink:href="#mc171aabac7" x="115.252813" y="90.739414" style="fill: #1f77b4; stroke: #1f77b4"/>
     <use xlink:href="#mc171aabac7" x="122.179002" y="88.396076" style="fill: #1f77b4; stroke: #1f77b4"/>
     <use xlink:href="#mc171aabac7" x="119.798995" y="82.717081" style="fill: #1f77b4; stroke: #1f77b4"/>
     <use xlink:href="#mc171aabac7" x="129.757028" y="79.053023" style="fill: #1f77b4; stroke: #1f77b4"/>
     <use xlink:href="#mc171aabac7" x="140.416366" y="81.397328" style="fill: #1f77b4; stroke: #1f77b4"/>
     <use xlink:href="#mc171aabac7" x="145.475607" y="81.00391" style="fill: #1f77b4; stroke: #1f77b4"/>
     <use xlink:href="#mc171aabac7" x="153.449002" y="77.711021" style="fill: #1f77b4; stroke: #1f77b4"/>
     <use xlink:href="#mc171aabac7" x="157.643824" y="68.397435" style="fill: #1f77b4; stroke: #1f77b4"/>
     <use xlink:href="#mc171aabac7" x="161.449194" y="70.549281" style="fill: #1f77b4; stroke: #1f77b4"/>
     <use xlink:href="#mc171aabac7" x="168.288825" y="65.283913" style="fill: #1f77b4; stroke: #1f77b4"/>
     <use xlink:href="#mc171aabac7" x="171.233277" y="69.782137" style="fill: #1f77b4; stroke: #1f77b4"/>
     <use xlink:href="#mc171aabac7" x="182.305362" y="65.757203" style="fill: #1f77b4; stroke: #1f77b4"/>
     <use xlink:href="#mc171aabac7" x="188.467527" y="66.068711" style="fill: #1f77b4; stroke: #1f77b4"/>
     <use xlink:href="#mc171aabac7" x="195.329163" y="64.132402" style="fill: #1f77b4; stroke: #1f77b4"/>
     <use xlink:href="#mc171aabac7" x="212.176338" y="71.098919" style="fill: #1f77b4; stroke: #1f77b4"/>
     <use xlink:href="#mc171aabac7" x="211.839397" y="61.209682" style="fill: #1f77b4; stroke: #1f77b4"/>
     <use xlink:href="#mc171aabac7" x="218.628435" y="53.856" style="fill: #1f77b4; stroke: #1f77b4"/>
     <use xlink:href="#mc171aabac7" x="227.874287" y="59.008365" style="fill: #1f77b4; stroke: #1f77b4"/>
     <use xlink:href="#mc171aabac7" x="235.060528" y="69.312509" style="fill: #1f77b4; stroke: #1f77b4"/>
     <use xlink:href="#mc171aabac7" x="242.869516" y="70.252006" style="fill: #1f77b4; stroke: #1f77b4"/>
     <use xlink:href="#mc171aabac7" x="248.088413" y="67.14035" style="fill: #1f77b4; stroke: #1f77b4"/>
     <use xlink:href="#mc171aabac7" x="256.744775" y="69.254367" style="fill: #1f77b4; stroke: #1f77b4"/>
     <use xlink:href="#mc171aabac7" x="260.526724" y="61.970504" style="fill: #1f77b4; stroke: #1f77b4"/>
     <use xlink:href="#mc171aabac7" x="271.394228" y="65.144241" style="fill: #1f77b4; stroke: #1f77b4"/>
     <use xlink:href="#mc171aabac7" x="277.395653" y="67.611774" style="fill: #1f77b4; stroke: #1f77b4"/>
     <use xlink:href="#mc171aabac7" x="284.639114" y="71.651874" style="fill: #1f77b4; stroke: #1f77b4"/>
     <use xlink:href="#mc171aabac7" x="287.972392" y="73.641488" style="fill: #1f77b4; stroke: #1f77b4"/>
     <use xlink:href="#mc171aabac7" x="299.911147" y="75.808637" style="fill: #1f77b4; stroke: #1f77b4"/>
     <use xlink:href="#mc171aabac7" x="303.963107" y="77.881716" style="fill: #1f77b4; stroke: #1f77b4"/>
     <use xlink:href="#mc171aabac7" x="307.991438" y="84.522043" style="fill: #1f77b4; stroke: #1f77b4"/>
     <use xlink:href="#mc171aabac7" x="311.18723" y="85.922774" style="fill: #1f77b4; stroke: #1f77b4"/>
     <use xlink:href="#mc171aabac7" x="317.575815" y="89.816913" style="fill: #1f77b4; stroke: #1f77b4"/>
     <use xlink:href="#mc171aabac7" x="326.281978" y="92.240918" style="fill: #1f77b4; stroke: #1f77b4"/>
     <use xlink:href="#mc171aabac7" x="328.143093" y="97.670762" style="fill: #1f77b4; stroke: #1f77b4"/>
     <use xlink:href="#mc171aabac7" x="333.656214" y="104.795814" style="fill: #1f77b4; stroke: #1f77b4"/>
     <use xlink:href="#mc171aabac7" x="335.848144" y="101.893959" style="fill: #1f77b4; stroke: #1f77b4"/>
     <use xlink:href="#mc171aabac7" x="343.352447" y="108.193966" style="fill: #1f77b4; stroke: #1f77b4"/>
     <use xlink:href="#mc171aabac7" x="346.885722" y="112.955021" style="fill: #1f77b4; stroke: #1f77b4"/>
     <use xlink:href="#mc171aabac7" x="351.34297" y="117.814465" style="fill: #1f77b4; stroke: #1f77b4"/>
     <use xlink:href="#mc171aabac7" x="353.413167" y="125.329722" style="fill: #1f77b4; stroke: #1f77b4"/>
     <use xlink:href="#mc171aabac7" x="356.225426" y="129.279792" style="fill: #1f77b4; stroke: #1f77b4"/>
     <use xlink:href="#mc171aabac7" x="361.287084" y="135.457124" style="fill: #1f77b4; stroke: #1f77b4"/>
     <use xlink:href="#mc171aabac7" x="356.487061" y="137.569344" style="fill: #1f77b4; stroke: #1f77b4"/>
     <use xlink:href="#mc171aabac7" x="370.3031" y="138.62903" style="fill: #1f77b4; stroke: #1f77b4"/>
     <use xlink:href="#mc171aabac7" x="371.830691" y="141.565984" style="fill: #1f77b4; stroke: #1f77b4"/>
     <use xlink:href="#mc171aabac7" x="374.795105" y="146.033875" style="fill: #1f77b4; stroke: #1f77b4"/>
     <use xlink:href="#mc171aabac7" x="369.526156" y="151.093932" style="fill: #1f77b4; stroke: #1f77b4"/>
     <use xlink:href="#mc171aabac7" x="371.395689" y="158.98478" style="fill: #1f77b4; stroke: #1f77b4"/>
     <use xlink:href="#mc171aabac7" x="371.862947" y="161.65227" style="fill: #1f77b4; stroke: #1f77b4"/>
     <use xlink:href="#mc171aabac7" x="370.124399" y="166.513752" style="fill: #1f77b4; stroke: #1f77b4"/>
     <use xlink:href="#mc171aabac7" x="374.192487" y="172.972052" style="fill: #1f77b4; stroke: #1f77b4"/>
     <use xlink:href="#mc171aabac7" x="372.444728" y="176.083225" style="fill: #1f77b4; stroke: #1f77b4"/>
     <use xlink:href="#mc171aabac7" x="374.481502" y="181.697204" style="fill: #1f77b4; stroke: #1f77b4"/>
     <use xlink:href="#mc171aabac7" x="378.73571" y="185.181688" style="fill: #1f77b4; stroke: #1f77b4"/>
     <use xlink:href="#mc171aabac7" x="374.265293" y="191.749571" style="fill: #1f77b4; stroke: #1f77b4"/>
     <use xlink:href="#mc171aabac7" x="373.199001" y="191.681099" style="fill: #1f77b4; stroke: #1f77b4"/>
     <use xlink:href="#mc171aabac7" x="372.750038" y="199.532944" style="fill: #1f77b4; stroke: #1f77b4"/>
     <use xlink:href="#mc171aabac7" x="370.312685" y="203.110843" style="fill: #1f77b4; stroke: #1f77b4"/>
     <use xlink:href="#mc171aabac7" x="369.269981" y="205.118456" style="fill: #1f77b4; stroke: #1f77b4"/>
     <use xlink:href="#mc171aabac7" x="364.553849" y="207.1706" style="fill: #1f77b4; stroke: #1f77b4"/>
     <use xlink:href="#mc171aabac7" x="370.124274" y="212.072121" style="fill: #1f77b4; stroke: #1f77b4"/>
     <use xlink:href="#mc171aabac7" x="362.101077" y="214.221652" style="fill: #1f77b4; stroke: #1f77b4"/>
     <use xlink:href="#mc171aabac7" x="362.593965" y="219.676923" style="fill: #1f77b4; stroke: #1f77b4"/>
     <use xlink:href="#mc171aabac7" x="367.47738" y="219.553799" style="fill: #1f77b4; stroke: #1f77b4"/>
     <use xlink:href="#mc171aabac7" x="360.597783" y="224.537956" style="fill: #1f77b4; stroke: #1f77b4"/>
     <use xlink:href="#mc171aabac7" x="359.655181" y="226.555864" style="fill: #1f77b4; stroke: #1f77b4"/>
     <use xlink:href="#mc171aabac7" x="359.276732" y="226.763041" style="fill: #1f77b4; stroke: #1f77b4"/>
     <use xlink:href="#mc171aabac7" x="360.171949" y="229.21565" style="fill: #1f77b4; stroke: #1f77b4"/>
     <use xlink:href="#mc171aabac7" x="360.218917" y="236.899771" style="fill: #1f77b4; stroke: #1f77b4"/>
     <use xlink:href="#mc171aabac7" x="354.9433" y="237.823619" style="fill: #1f77b4; stroke: #1f77b4"/>
     <use xlink:href="#mc171aabac7" x="350.498221" y="244.032146" style="fill: #1f77b4; stroke: #1f77b4"/>
     <use xlink:href="#mc171aabac7" x="345.691113" y="242.727317" style="fill: #1f77b4; stroke: #1f77b4"/>
     <use xlink:href="#mc171aabac7" x="346.225926" y="244.73379" style="fill: #1f77b4; stroke: #1f77b4"/>
     <use xlink:href="#mc171aabac7" x="346.614461" y="245.493195" style="fill: #1f77b4; stroke: #1f77b4"/>
     <use xlink:href="#mc171aabac7" x="341.727212" y="246.748934" style="fill: #1f77b4; stroke: #1f77b4"/>
     <use xlink:href="#mc171aabac7" x="342.861726" y="248.166316" style="fill: #1f77b4; stroke: #1f77b4"/>
     <use xlink:href="#mc171aabac7" x="338.487952" y="254.035491" style="fill: #1f77b4; stroke: #1f77b4"/>
     <use xlink:href="#mc171aabac7" x="340.860334" y="253.410403" style="fill: #1f77b4; stroke: #1f77b4"/>
     <use xlink:href="#mc171aabac7" x="333.51777" y="258.850922" style="fill: #1f77b4; stroke: #1f77b4"/>
     <use xlink:href="#mc171aabac7" x="332.801172" y="259.008559" style="fill: #1f77b4; stroke: #1f77b4"/>
     <use xlink:href="#mc171aabac7" x="334.058251" y="260.413159" style="fill: #1f77b4; stroke: #1f77b4"/>
     <use xlink:href="#mc171aabac7" x="330.438917" y="261.165794" style="fill: #1f77b4; stroke: #1f77b4"/>
     <use xlink:href="#mc171aabac7" x="330.408286" y="263.23946" style="fill: #1f77b4; stroke: #1f77b4"/>
     <use xlink:href="#mc171aabac7" x="326.656177" y="264.651937" style="fill: #1f77b4; stroke: #1f77b4"/>
     <use xlink:href="#mc171aabac7" x="327.63391" y="265.614304" style="fill: #1f77b4; stroke: #1f77b4"/>
     <use xlink:href="#mc171aabac7" x="322.418263" y="267.6015" style="fill: #1f77b4; stroke: #1f77b4"/>
     <use xlink:href="#mc171aabac7" x="321.034492" y="271.925746" style="fill: #1f77b4; stroke: #1f77b4"/>
     <use xlink:href="#mc171aabac7" x="318.379889" y="271.985167" style="fill: #1f77b4; stroke: #1f77b4"/>
     <use xlink:href="#mc171aabac7" x="311.627816" y="271.465653" style="fill: #1f77b4; stroke: #1f77b4"/>
     <use xlink:href="#mc171aabac7" x="312.523117" y="273.024712" style="fill: #1f77b4; stroke: #1f77b4"/>
     <use xlink:href="#mc171aabac7" x="308.800304" y="273.475961" style="fill: #1f77b4; stroke: #1f77b4"/>
     <use xlink:href="#mc171aabac7" x="306.578119" y="273.308306" style="fill: #1f77b4; stroke: #1f77b4"/>
     <use xlink:href="#mc171aabac7" x="308.713121" y="277.853064" style="fill: #1f77b4; stroke: #1f77b4"/>
     <use xlink:href="#mc171aabac7" x="308.842229" y="278.613817" style="fill: #1f77b4; stroke: #1f77b4"/>
     <use xlink:href="#mc171aabac7" x="304.085756" y="279.679306" style="fill: #1f77b4; stroke: #1f77b4"/>
     <use xlink:href="#mc171aabac7" x="303.148739" y="274.865948" style="fill: #1f77b4; stroke: #1f77b4"/>
     <use xlink:href="#mc171aabac7" x="300.811823" y="279.886897" style="fill: #1f77b4; stroke: #1f77b4"/>
     <use xlink:href="#mc171aabac7" x="302.866809" y="282.624655" style="fill: #1f77b4; stroke: #1f77b4"/>
     <use xlink:href="#mc171aabac7" x="299.096404" y="283.228981" style="fill: #1f77b4; stroke: #1f77b4"/>
     <use xlink:href="#mc171aabac7" x="298.485326" y="276.758347" style="fill: #1f77b4; stroke: #1f77b4"/>
     <use xlink:href="#mc171aabac7" x="292.268608" y="283.747803" style="fill: #1f77b4; stroke: #1f77b4"/>
     <use xlink:href="#mc171aabac7" x="290.49847" y="283.062776" style="fill: #1f77b4; stroke: #1f77b4"/>
     <use xlink:href="#mc171aabac7" x="289.679851" y="282.569933" style="fill: #1f77b4; stroke: #1f77b4"/>
     <use xlink:href="#mc171aabac7" x="287.072507" y="284.498261" style="fill: #1f77b4; stroke: #1f77b4"/>
     <use xlink:href="#mc171aabac7" x="288.045656" y="286.078359" style="fill: #1f77b4; stroke: #1f77b4"/>
     <use xlink:href="#mc171aabac7" x="286.067602" y="285.325862" style="fill: #1f77b4; stroke: #1f77b4"/>
     <use xlink:href="#mc171aabac7" x="286.830626" y="284.605702" style="fill: #1f77b4; stroke: #1f77b4"/>
     <use xlink:href="#mc171aabac7" x="281.502541" y="285.057158" style="fill: #1f77b4; stroke: #1f77b4"/>
     <use xlink:href="#mc171aabac7" x="278.657692" y="288.526891" style="fill: #1f77b4; stroke: #1f77b4"/>
     <use xlink:href="#mc171aabac7" x="277.900627" y="286.774268" style="fill: #1f77b4; stroke: #1f77b4"/>
     <use xlink:href="#mc171aabac7" x="276.334779" y="285.648045" style="fill: #1f77b4; stroke: #1f77b4"/>
     <use xlink:href="#mc171aabac7" x="274.923461" y="287.074789" style="fill: #1f77b4; stroke: #1f77b4"/>
     <use xlink:href="#mc171aabac7" x="271.287165" y="286.773818" style="fill: #1f77b4; stroke: #1f77b4"/>
     <use xlink:href="#mc171aabac7" x="271.810601" y="286.332001" style="fill: #1f77b4; stroke: #1f77b4"/>
     <use xlink:href="#mc171aabac7" x="272.455311" y="291.335401" style="fill: #1f77b4; stroke: #1f77b4"/>
     <use xlink:href="#mc171aabac7" x="268.571175" y="287.044043" style="fill: #1f77b4; stroke: #1f77b4"/>
     <use xlink:href="#mc171aabac7" x="265.798132" y="289.127555" style="fill: #1f77b4; stroke: #1f77b4"/>
     <use xlink:href="#mc171aabac7" x="266.599831" y="291.198285" style="fill: #1f77b4; stroke: #1f77b4"/>
     <use xlink:href="#mc171aabac7" x="264.605023" y="289.461138" style="fill: #1f77b4; stroke: #1f77b4"/>
     <use xlink:href="#mc171aabac7" x="265.117248" y="292.694779" style="fill: #1f77b4; stroke: #1f77b4"/>
     <use xlink:href="#mc171aabac7" x="261.52467" y="286.083368" style="fill: #1f77b4; stroke: #1f77b4"/>
     <use xlink:href="#mc171aabac7" x="260.144775" y="288.468473" style="fill: #1f77b4; stroke: #1f77b4"/>
     <use xlink:href="#mc171aabac7" x="258.065117" y="293.61538" style="fill: #1f77b4; stroke: #1f77b4"/>
     <use xlink:href="#mc171aabac7" x="256.072269" y="290.533468" style="fill: #1f77b4; stroke: #1f77b4"/>
     <use xlink:href="#mc171aabac7" x="253.294516" y="289.467149" style="fill: #1f77b4; stroke: #1f77b4"/>
     <use xlink:href="#mc171aabac7" x="252.013307" y="290.613167" style="fill: #1f77b4; stroke: #1f77b4"/>
     <use xlink:href="#mc171aabac7" x="251.093335" y="293.118909" style="fill: #1f77b4; stroke: #1f77b4"/>
     <use xlink:href="#mc171aabac7" x="251.910078" y="289.04143" style="fill: #1f77b4; stroke: #1f77b4"/>
     <use xlink:href="#mc171aabac7" x="246.864882" y="292.107312" style="fill: #1f77b4; stroke: #1f77b4"/>
     <use xlink:href="#mc171aabac7" x="246.57445" y="291.748476" style="fill: #1f77b4; stroke: #1f77b4"/>
     <use xlink:href="#mc171aabac7" x="241.807058" y="289.922267" style="fill: #1f77b4; stroke: #1f77b4"/>
     <use xlink:href="#mc171aabac7" x="249.390627" y="292.730777" style="fill: #1f77b4; stroke: #1f77b4"/>
     <use xlink:href="#mc171aabac7" x="245.289615" y="293.040246" style="fill: #1f77b4; stroke: #1f77b4"/>
     <use xlink:href="#mc171aabac7" x="244.750885" y="291.398483" style="fill: #1f77b4; stroke: #1f77b4"/>
     <use xlink:href="#mc171aabac7" x="241.882989" y="292.699339" style="fill: #1f77b4; stroke: #1f77b4"/>
     <use xlink:href="#mc171aabac7" x="242.302613" y="293.091893" style="fill: #1f77b4; stroke: #1f77b4"/>
     <use xlink:href="#mc171aabac7" x="239.478268" y="293.010743" style="fill: #1f77b4; stroke: #1f77b4"/>
     <use xlink:href="#mc171aabac7" x="237.036582" y="293.539964" style="fill: #1f77b4; stroke: #1f77b4"/>
     <use xlink:href="#mc171aabac7" x="240.635162" y="291.615609" style="fill: #1f77b4; stroke: #1f77b4"/>
     <use xlink:href="#mc171aabac7" x="232.534492" y="291.576018" style="fill: #1f77b4; stroke: #1f77b4"/>
     <use xlink:href="#mc171aabac7" x="234.511212" y="295.776" style="fill: #1f77b4; stroke: #1f77b4"/>
     <use xlink:href="#mc171aabac7" x="233.046342" y="292.723349" style="fill: #1f77b4; stroke: #1f77b4"/>
     <use xlink:href="#mc171aabac7" x="232.402758" y="293.376904" style="fill: #1f77b4; stroke: #1f77b4"/>
     <use xlink:href="#mc171aabac7" x="231.483369" y="290.248596" style="fill: #1f77b4; stroke: #1f77b4"/>
    </g>
   </g>
   <g id="line2d_15">
    <path d="M 79.032916 268.341731 
L 76.039551 263.092969 
L 73.351573 257.944882 
L 70.775194 252.514834 
L 68.519255 247.236657 
L 66.575947 242.161497 
L 64.774263 236.848353 
L 63.139039 231.286299 
L 61.820597 226.005054 
L 60.686872 220.502078 
L 59.846427 215.354364 
L 59.198672 210.017645 
L 58.767229 204.488777 
L 58.586158 199.411293 
L 58.616071 194.17999 
L 58.878135 188.795552 
L 59.395015 183.259983 
L 60.075269 178.295139 
L 60.98618 173.220799 
L 62.145642 168.041691 
L 63.572285 162.763915 
L 65.285379 157.395105 
L 66.996721 152.727843 
L 68.945717 148.007508 
L 71.145135 143.242175 
L 73.607729 138.4411 
L 76.346107 133.614791 
L 79.372585 128.775079 
L 82.699009 123.935184 
L 85.70825 119.912325 
L 88.93959 115.908743 
L 92.398534 111.93441 
L 96.089968 108.000008 
L 100.018059 104.116922 
L 104.186141 100.297217 
L 108.596602 96.553607 
L 113.250766 92.899414 
L 118.148781 89.348503 
L 123.289504 85.915217 
L 128.67039 82.614291 
L 134.287393 79.460745 
L 140.134877 76.469774 
L 146.205532 73.656616 
L 152.490318 71.036409 
L 158.978423 68.624036 
L 165.657243 66.433957 
L 171.128001 64.851293 
L 176.703464 63.426543 
L 182.374755 62.166092 
L 188.132328 61.075888 
L 193.966001 60.161395 
L 199.865 59.427533 
L 205.818011 58.878629 
L 211.813238 58.518369 
L 217.838469 58.349755 
L 223.88115 58.375068 
L 229.928457 58.595841 
L 235.967383 59.012828 
L 241.984824 59.625992 
L 247.96766 60.434496 
L 253.902853 61.436704 
L 259.777529 62.630184 
L 265.579069 64.011726 
L 271.295191 65.577368 
L 276.914035 67.322422 
L 282.424233 69.241517 
L 287.814987 71.32864 
L 293.076123 73.577186 
L 298.198154 75.980017 
L 303.172326 78.529516 
L 307.990652 81.217651 
L 312.64595 84.03604 
L 317.131859 86.976015 
L 321.442852 90.028688 
L 325.574242 93.185013 
L 329.522177 96.435853 
L 333.28363 99.77204 
L 336.856377 103.18443 
L 340.238975 106.663961 
L 344.198838 111.094203 
L 347.860766 115.59837 
L 351.226584 120.15998 
L 354.299605 124.763216 
L 357.08449 129.393017 
L 359.587102 134.035147 
L 361.814356 138.676255 
L 363.774079 143.303905 
L 365.474861 147.906604 
L 366.925921 152.47381 
L 368.13698 156.995927 
L 369.118134 161.464294 
L 369.879746 165.871159 
L 370.432343 170.209651 
L 370.834481 175.317159 
L 370.969174 180.308674 
L 370.854502 185.17685 
L 370.508194 189.915775 
L 369.947507 194.52085 
L 369.189132 198.988668 
L 368.249108 203.316895 
L 366.943253 208.188278 
L 365.434077 212.86708 
L 363.743233 217.353907 
L 361.890928 221.650506 
L 359.895935 225.759578 
L 357.463431 230.23054 
L 354.890926 234.467353 
L 352.199929 238.477054 
L 349.409851 242.267285 
L 346.174227 246.279016 
L 342.857317 250.03507 
L 339.478538 253.547508 
L 335.67237 257.179175 
L 331.830916 260.541328 
L 327.585029 263.947431 
L 323.336534 267.067188 
L 318.717577 270.166927 
L 314.131494 272.973128 
L 309.216011 275.707965 
L 304.368503 278.151209 
L 299.235845 280.484326 
L 294.203278 282.535607 
L 288.929662 284.449521 
L 283.445012 286.198409 
L 277.779975 287.759224 
L 272.283202 289.045718 
L 266.645117 290.141027 
L 260.893206 291.032136 
L 255.05365 291.70958 
L 249.150952 292.167095 
L 243.207662 292.401224 
L 237.244211 292.410897 
L 231.278828 292.197023 
L 230.550857 292.155685 
L 230.550857 292.155685 
" clip-path="url(#p82a904bd11)" style="fill: none; stroke: #d62728; stroke-width: 1.5; stroke-linecap: square"/>
   </g>
   <g id="patch_3">
    <path d="M 37.848438 307.872 
L 37.848438 41.76 
" style="fill: none; stroke: #000000; stroke-width: 0.8; stroke-linejoin: miter; stroke-linecap: square"/>
   </g>
   <g id="patch_4">
    <path d="M 394.968438 307.872 
L 394.968438 41.76 
" style="fill: none; stroke: #000000; stroke-width: 0.8; stroke-linejoin: miter; stroke-linecap: square"/>
   </g>
   <g id="patch_5">
    <path d="M 37.848438 307.872 
L 394.968438 307.872 
" style="fill: none; stroke: #000000; stroke-width: 0.8; stroke-linejoin: miter; stroke-linecap: square"/>
   </g>
   <g id="patch_6">
    <path d="M 37.848438 41.76 
L 394.968438 41.76 
" style="fill: none; stroke: #000000; stroke-width: 0.8; stroke-linejoin: miter; stroke-linecap: square"/>
   </g>
   <g id="text_16">
    <g id="patch_7">
     <path d="M 412.824438 102.337163 
L 558.024438 102.337163 
Q 562.024438 102.337163 562.024438 98.337163 
L 562.024438 55.0656 
Q 562.024438 51.0656 558.024438 51.0656 
L 412.824438 51.0656 
Q 408.824438 51.0656 408.824438 55.0656 
L 408.824438 98.337163 
Q 408.824438 102.337163 412.824438 102.337163 
z
" style="fill: #ffffff; opacity: 0.5; stroke: #000000; stroke-linejoin: miter"/>
    </g>
    <!-- Summary -->
    <g transform="translate(412.824438 62.664038) scale(0.1 -0.1)">
     <defs>
      <path id="DejaVuSans-53" d="M 3425 4513 
L 3425 3897 
Q 3066 4069 2747 4153 
Q 2428 4238 2131 4238 
Q 1616 4238 1336 4038 
Q 1056 3838 1056 3469 
Q 1056 3159 1242 3001 
Q 1428 2844 1947 2747 
L 2328 2669 
Q 3034 2534 3370 2195 
Q 3706 1856 3706 1288 
Q 3706 609 3251 259 
Q 2797 -91 1919 -91 
Q 1588 -91 1214 -16 
Q 841 59 441 206 
L 441 856 
Q 825 641 1194 531 
Q 1563 422 1919 422 
Q 2459 422 2753 634 
Q 3047 847 3047 1241 
Q 3047 1584 2836 1778 
Q 2625 1972 2144 2069 
L 1759 2144 
Q 1053 2284 737 2584 
Q 422 2884 422 3419 
Q 422 4038 858 4394 
Q 1294 4750 2059 4750 
Q 2388 4750 2728 4690 
Q 3069 4631 3425 4513 
z
" transform="scale(0.015625)"/>
      <path id="DejaVuSans-75" d="M 544 1381 
L 544 3500 
L 1119 3500 
L 1119 1403 
Q 1119 906 1312 657 
Q 1506 409 1894 409 
Q 2359 409 2629 706 
Q 2900 1003 2900 1516 
L 2900 3500 
L 3475 3500 
L 3475 0 
L 2900 0 
L 2900 538 
Q 2691 219 2414 64 
Q 2138 -91 1772 -91 
Q 1169 -91 856 284 
Q 544 659 544 1381 
z
M 1991 3584 
L 1991 3584 
z
" transform="scale(0.015625)"/>
      <path id="DejaVuSans-61" d="M 2194 1759 
Q 1497 1759 1228 1600 
Q 959 1441 959 1056 
Q 959 750 1161 570 
Q 1363 391 1709 391 
Q 2188 391 2477 730 
Q 2766 1069 2766 1631 
L 2766 1759 
L 2194 1759 
z
M 3341 1997 
L 3341 0 
L 2766 0 
L 2766 531 
Q 2569 213 2275 61 
Q 1981 -91 1556 -91 
Q 1019 -91 701 211 
Q 384 513 384 1019 
Q 384 1609 779 1909 
Q 1175 2209 1959 2209 
L 2766 2209 
L 2766 2266 
Q 2766 2663 2505 2880 
Q 2244 3097 1772 3097 
Q 1472 3097 1187 3025 
Q 903 2953 641 2809 
L 641 3341 
Q 956 3463 1253 3523 
Q 1550 3584 1831 3584 
Q 2591 3584 2966 3190 
Q 3341 2797 3341 1997 
z
" transform="scale(0.015625)"/>
      <path id="DejaVuSans-72" d="M 2631 2963 
Q 2534 3019 2420 3045 
Q 2306 3072 2169 3072 
Q 1681 3072 1420 2755 
Q 1159 2438 1159 1844 
L 1159 0 
L 581 0 
L 581 3500 
L 1159 3500 
L 1159 2956 
Q 1341 3275 1631 3429 
Q 1922 3584 2338 3584 
Q 2397 3584 2469 3576 
Q 2541 3569 2628 3553 
L 2631 2963 
z
" transform="scale(0.015625)"/>
      <path id="DejaVuSans-79" d="M 2059 -325 
Q 1816 -950 1584 -1140 
Q 1353 -1331 966 -1331 
L 506 -1331 
L 506 -850 
L 844 -850 
Q 1081 -850 1212 -737 
Q 1344 -625 1503 -206 
L 1606 56 
L 191 3500 
L 800 3500 
L 1894 763 
L 2988 3500 
L 3597 3500 
L 2059 -325 
z
" transform="scale(0.015625)"/>
     </defs>
     <use xlink:href="#DejaVuSans-53"/>
     <use xlink:href="#DejaVuSans-75" x="63.476562"/>
     <use xlink:href="#DejaVuSans-6d" x="126.855469"/>
     <use xlink:href="#DejaVuSans-6d" x="224.267578"/>
     <use xlink:href="#DejaVuSans-61" x="321.679688"/>
     <use xlink:href="#DejaVuSans-72" x="382.958984"/>
     <use xlink:href="#DejaVuSans-79" x="424.072266"/>
    </g>
    <!-- $Q_I$: 14.80$\pm$0.12 k -->
    <g transform="translate(412.824438 73.86185) scale(0.1 -0.1)">
     <defs>
      <path id="DejaVuSans-Oblique-51" d="M 2309 -84 
Q 2275 -88 2237 -89 
Q 2200 -91 2125 -91 
Q 1250 -91 756 411 
Q 263 913 263 1797 
Q 263 2319 452 2844 
Q 641 3369 978 3788 
Q 1369 4269 1858 4509 
Q 2347 4750 2938 4750 
Q 3794 4750 4287 4245 
Q 4781 3741 4781 2869 
Q 4781 1928 4265 1147 
Q 3750 366 2919 44 
L 3553 -825 
L 2847 -825 
L 2309 -84 
z
M 2919 4238 
Q 2400 4238 2003 3986 
Q 1606 3734 1313 3219 
Q 1125 2891 1026 2522 
Q 928 2153 928 1778 
Q 928 1128 1239 775 
Q 1550 422 2119 422 
Q 2631 422 3032 676 
Q 3434 931 3719 1434 
Q 3909 1772 4009 2142 
Q 4109 2513 4109 2881 
Q 4109 3528 3796 3883 
Q 3484 4238 2919 4238 
z
" transform="scale(0.015625)"/>
      <path id="DejaVuSans-Oblique-49" d="M 1081 4666 
L 1716 4666 
L 806 0 
L 172 0 
L 1081 4666 
z
" transform="scale(0.015625)"/>
      <path id="DejaVuSans-3a" d="M 750 794 
L 1409 794 
L 1409 0 
L 750 0 
L 750 794 
z
M 750 3309 
L 1409 3309 
L 1409 2516 
L 750 2516 
L 750 3309 
z
" transform="scale(0.015625)"/>
      <path id="DejaVuSans-2e" d="M 684 794 
L 1344 794 
L 1344 0 
L 684 0 
L 684 794 
z
" transform="scale(0.015625)"/>
      <path id="DejaVuSans-b1" d="M 2944 4013 
L 2944 2803 
L 4684 2803 
L 4684 2272 
L 2944 2272 
L 2944 1063 
L 2419 1063 
L 2419 2272 
L 678 2272 
L 678 2803 
L 2419 2803 
L 2419 4013 
L 2944 4013 
z
M 678 531 
L 4684 531 
L 4684 0 
L 678 0 
L 678 531 
z
" transform="scale(0.015625)"/>
      <path id="DejaVuSans-6b" d="M 581 4863 
L 1159 4863 
L 1159 1991 
L 2875 3500 
L 3609 3500 
L 1753 1863 
L 3688 0 
L 2938 0 
L 1159 1709 
L 1159 0 
L 581 0 
L 581 4863 
z
" transform="scale(0.015625)"/>
     </defs>
     <use xlink:href="#DejaVuSans-Oblique-51" transform="translate(0 0.015625)"/>
     <use xlink:href="#DejaVuSans-Oblique-49" transform="translate(78.710938 -16.390625) scale(0.7)"/>
     <use xlink:href="#DejaVuSans-3a" transform="translate(102.089844 0.015625)"/>
     <use xlink:href="#DejaVuSans-20" transform="translate(135.78125 0.015625)"/>
     <use xlink:href="#DejaVuSans-31" transform="translate(167.568359 0.015625)"/>
     <use xlink:href="#DejaVuSans-34" transform="translate(231.191406 0.015625)"/>
     <use xlink:href="#DejaVuSans-2e" transform="translate(294.814453 0.015625)"/>
     <use xlink:href="#DejaVuSans-38" transform="translate(323.976562 0.015625)"/>
     <use xlink:href="#DejaVuSans-30" transform="translate(387.599609 0.015625)"/>
     <use xlink:href="#DejaVuSans-b1" transform="translate(451.222656 0.015625)"/>
     <use xlink:href="#DejaVuSans-30" transform="translate(535.011719 0.015625)"/>
     <use xlink:href="#DejaVuSans-2e" transform="translate(598.634766 0.015625)"/>
     <use xlink:href="#DejaVuSans-31" transform="translate(630.421875 0.015625)"/>
     <use xlink:href="#DejaVuSans-32" transform="translate(694.044922 0.015625)"/>
     <use xlink:href="#DejaVuSans-20" transform="translate(757.667969 0.015625)"/>
     <use xlink:href="#DejaVuSans-6b" transform="translate(789.455078 0.015625)"/>
    </g>
    <!-- $Q_C$: 4.415$\pm$0.023 k -->
    <g transform="translate(412.824438 85.059663) scale(0.1 -0.1)">
     <defs>
      <path id="DejaVuSans-Oblique-43" d="M 4447 4306 
L 4319 3641 
Q 4019 3944 3683 4091 
Q 3347 4238 2956 4238 
Q 2422 4238 2017 3981 
Q 1613 3725 1319 3200 
Q 1131 2863 1032 2486 
Q 934 2109 934 1728 
Q 934 1091 1264 756 
Q 1594 422 2222 422 
Q 2656 422 3056 561 
Q 3456 700 3834 978 
L 3688 231 
Q 3316 72 2936 -9 
Q 2556 -91 2175 -91 
Q 1278 -91 773 396 
Q 269 884 269 1753 
Q 269 2309 461 2846 
Q 653 3384 1013 3828 
Q 1394 4300 1883 4525 
Q 2372 4750 3022 4750 
Q 3422 4750 3780 4639 
Q 4138 4528 4447 4306 
z
" transform="scale(0.015625)"/>
     </defs>
     <use xlink:href="#DejaVuSans-Oblique-51" transform="translate(0 0.015625)"/>
     <use xlink:href="#DejaVuSans-Oblique-43" transform="translate(78.710938 -16.390625) scale(0.7)"/>
     <use xlink:href="#DejaVuSans-3a" transform="translate(130.322266 0.015625)"/>
     <use xlink:href="#DejaVuSans-20" transform="translate(164.013672 0.015625)"/>
     <use xlink:href="#DejaVuSans-34" transform="translate(195.800781 0.015625)"/>
     <use xlink:href="#DejaVuSans-2e" transform="translate(259.423828 0.015625)"/>
     <use xlink:href="#DejaVuSans-34" transform="translate(291.210938 0.015625)"/>
     <use xlink:href="#DejaVuSans-31" transform="translate(354.833984 0.015625)"/>
     <use xlink:href="#DejaVuSans-35" transform="translate(418.457031 0.015625)"/>
     <use xlink:href="#DejaVuSans-b1" transform="translate(482.080078 0.015625)"/>
     <use xlink:href="#DejaVuSans-30" transform="translate(565.869141 0.015625)"/>
     <use xlink:href="#DejaVuSans-2e" transform="translate(629.492188 0.015625)"/>
     <use xlink:href="#DejaVuSans-30" transform="translate(661.279297 0.015625)"/>
     <use xlink:href="#DejaVuSans-32" transform="translate(724.902344 0.015625)"/>
     <use xlink:href="#DejaVuSans-33" transform="translate(788.525391 0.015625)"/>
     <use xlink:href="#DejaVuSans-20" transform="translate(852.148438 0.015625)"/>
     <use xlink:href="#DejaVuSans-6b" transform="translate(883.935547 0.015625)"/>
    </g>
    <!-- $f_{res}$: 5.9134427$\pm$4.2e-06 GHz -->
    <g transform="translate(412.824438 96.257475) scale(0.1 -0.1)">
     <defs>
      <path id="DejaVuSans-Oblique-66" d="M 3059 4863 
L 2969 4384 
L 2419 4384 
Q 2106 4384 1964 4261 
Q 1822 4138 1753 3809 
L 1691 3500 
L 2638 3500 
L 2553 3053 
L 1606 3053 
L 1013 0 
L 434 0 
L 1031 3053 
L 481 3053 
L 563 3500 
L 1113 3500 
L 1159 3744 
Q 1278 4363 1576 4613 
Q 1875 4863 2516 4863 
L 3059 4863 
z
" transform="scale(0.015625)"/>
      <path id="DejaVuSans-Oblique-72" d="M 2853 2969 
Q 2766 3016 2653 3041 
Q 2541 3066 2413 3066 
Q 1953 3066 1609 2717 
Q 1266 2369 1153 1784 
L 800 0 
L 225 0 
L 909 3500 
L 1484 3500 
L 1375 2956 
Q 1603 3259 1920 3421 
Q 2238 3584 2597 3584 
Q 2691 3584 2781 3573 
Q 2872 3563 2963 3538 
L 2853 2969 
z
" transform="scale(0.015625)"/>
      <path id="DejaVuSans-Oblique-65" d="M 3078 2063 
Q 3088 2113 3092 2166 
Q 3097 2219 3097 2272 
Q 3097 2653 2873 2875 
Q 2650 3097 2266 3097 
Q 1838 3097 1509 2826 
Q 1181 2556 1013 2059 
L 3078 2063 
z
M 3578 1613 
L 903 1613 
Q 884 1494 878 1425 
Q 872 1356 872 1306 
Q 872 872 1139 634 
Q 1406 397 1894 397 
Q 2269 397 2603 481 
Q 2938 566 3225 728 
L 3116 159 
Q 2806 34 2476 -28 
Q 2147 -91 1806 -91 
Q 1078 -91 686 257 
Q 294 606 294 1247 
Q 294 1794 489 2264 
Q 684 2734 1063 3103 
Q 1306 3334 1642 3459 
Q 1978 3584 2356 3584 
Q 2950 3584 3301 3228 
Q 3653 2872 3653 2272 
Q 3653 2128 3634 1964 
Q 3616 1800 3578 1613 
z
" transform="scale(0.015625)"/>
      <path id="DejaVuSans-Oblique-73" d="M 3200 3397 
L 3091 2853 
Q 2863 2978 2609 3040 
Q 2356 3103 2088 3103 
Q 1634 3103 1373 2948 
Q 1113 2794 1113 2528 
Q 1113 2219 1719 2053 
Q 1766 2041 1788 2034 
L 1972 1978 
Q 2547 1819 2739 1644 
Q 2931 1469 2931 1166 
Q 2931 609 2489 259 
Q 2047 -91 1331 -91 
Q 1053 -91 747 -37 
Q 441 16 72 128 
L 184 722 
Q 500 559 806 475 
Q 1113 391 1394 391 
Q 1816 391 2080 572 
Q 2344 753 2344 1031 
Q 2344 1331 1650 1516 
L 1591 1531 
L 1394 1581 
Q 956 1697 753 1886 
Q 550 2075 550 2369 
Q 550 2928 970 3256 
Q 1391 3584 2113 3584 
Q 2397 3584 2667 3537 
Q 2938 3491 3200 3397 
z
" transform="scale(0.015625)"/>
      <path id="DejaVuSans-39" d="M 703 97 
L 703 672 
Q 941 559 1184 500 
Q 1428 441 1663 441 
Q 2288 441 2617 861 
Q 2947 1281 2994 2138 
Q 2813 1869 2534 1725 
Q 2256 1581 1919 1581 
Q 1219 1581 811 2004 
Q 403 2428 403 3163 
Q 403 3881 828 4315 
Q 1253 4750 1959 4750 
Q 2769 4750 3195 4129 
Q 3622 3509 3622 2328 
Q 3622 1225 3098 567 
Q 2575 -91 1691 -91 
Q 1453 -91 1209 -44 
Q 966 3 703 97 
z
M 1959 2075 
Q 2384 2075 2632 2365 
Q 2881 2656 2881 3163 
Q 2881 3666 2632 3958 
Q 2384 4250 1959 4250 
Q 1534 4250 1286 3958 
Q 1038 3666 1038 3163 
Q 1038 2656 1286 2365 
Q 1534 2075 1959 2075 
z
" transform="scale(0.015625)"/>
      <path id="DejaVuSans-47" d="M 3809 666 
L 3809 1919 
L 2778 1919 
L 2778 2438 
L 4434 2438 
L 4434 434 
Q 4069 175 3628 42 
Q 3188 -91 2688 -91 
Q 1594 -91 976 548 
Q 359 1188 359 2328 
Q 359 3472 976 4111 
Q 1594 4750 2688 4750 
Q 3144 4750 3555 4637 
Q 3966 4525 4313 4306 
L 4313 3634 
Q 3963 3931 3569 4081 
Q 3175 4231 2741 4231 
Q 1884 4231 1454 3753 
Q 1025 3275 1025 2328 
Q 1025 1384 1454 906 
Q 1884 428 2741 428 
Q 3075 428 3337 486 
Q 3600 544 3809 666 
z
" transform="scale(0.015625)"/>
      <path id="DejaVuSans-48" d="M 628 4666 
L 1259 4666 
L 1259 2753 
L 3553 2753 
L 3553 4666 
L 4184 4666 
L 4184 0 
L 3553 0 
L 3553 2222 
L 1259 2222 
L 1259 0 
L 628 0 
L 628 4666 
z
" transform="scale(0.015625)"/>
      <path id="DejaVuSans-7a" d="M 353 3500 
L 3084 3500 
L 3084 2975 
L 922 459 
L 3084 459 
L 3084 0 
L 275 0 
L 275 525 
L 2438 3041 
L 353 3041 
L 353 3500 
z
" transform="scale(0.015625)"/>
     </defs>
     <use xlink:href="#DejaVuSans-Oblique-66" transform="translate(0 0.015625)"/>
     <use xlink:href="#DejaVuSans-Oblique-72" transform="translate(35.205078 -16.390625) scale(0.7)"/>
     <use xlink:href="#DejaVuSans-Oblique-65" transform="translate(63.984375 -16.390625) scale(0.7)"/>
     <use xlink:href="#DejaVuSans-Oblique-73" transform="translate(107.050781 -16.390625) scale(0.7)"/>
     <use xlink:href="#DejaVuSans-3a" transform="translate(146.254883 0.015625)"/>
     <use xlink:href="#DejaVuSans-20" transform="translate(179.946289 0.015625)"/>
     <use xlink:href="#DejaVuSans-35" transform="translate(211.733398 0.015625)"/>
     <use xlink:href="#DejaVuSans-2e" transform="translate(275.356445 0.015625)"/>
     <use xlink:href="#DejaVuSans-39" transform="translate(307.143555 0.015625)"/>
     <use xlink:href="#DejaVuSans-31" transform="translate(370.766602 0.015625)"/>
     <use xlink:href="#DejaVuSans-33" transform="translate(434.389648 0.015625)"/>
     <use xlink:href="#DejaVuSans-34" transform="translate(498.012695 0.015625)"/>
     <use xlink:href="#DejaVuSans-34" transform="translate(561.635742 0.015625)"/>
     <use xlink:href="#DejaVuSans-32" transform="translate(625.258789 0.015625)"/>
     <use xlink:href="#DejaVuSans-37" transform="translate(688.881836 0.015625)"/>
     <use xlink:href="#DejaVuSans-b1" transform="translate(752.504883 0.015625)"/>
     <use xlink:href="#DejaVuSans-34" transform="translate(836.293945 0.015625)"/>
     <use xlink:href="#DejaVuSans-2e" transform="translate(899.916992 0.015625)"/>
     <use xlink:href="#DejaVuSans-32" transform="translate(926.204102 0.015625)"/>
     <use xlink:href="#DejaVuSans-65" transform="translate(989.827148 0.015625)"/>
     <use xlink:href="#DejaVuSans-2d" transform="translate(1051.350586 0.015625)"/>
     <use xlink:href="#DejaVuSans-30" transform="translate(1087.43457 0.015625)"/>
     <use xlink:href="#DejaVuSans-36" transform="translate(1151.057617 0.015625)"/>
     <use xlink:href="#DejaVuSans-20" transform="translate(1214.680664 0.015625)"/>
     <use xlink:href="#DejaVuSans-47" transform="translate(1246.467773 0.015625)"/>
     <use xlink:href="#DejaVuSans-48" transform="translate(1323.958008 0.015625)"/>
     <use xlink:href="#DejaVuSans-7a" transform="translate(1399.15332 0.015625)"/>
    </g>
   </g>
  </g>
  <g id="text_17">
   <!-- S21 resonator spectroscopy -->
   <g transform="translate(126.864063 16.318125) scale(0.12 -0.12)">
    <defs>
     <path id="DejaVuSans-73" d="M 2834 3397 
L 2834 2853 
Q 2591 2978 2328 3040 
Q 2066 3103 1784 3103 
Q 1356 3103 1142 2972 
Q 928 2841 928 2578 
Q 928 2378 1081 2264 
Q 1234 2150 1697 2047 
L 1894 2003 
Q 2506 1872 2764 1633 
Q 3022 1394 3022 966 
Q 3022 478 2636 193 
Q 2250 -91 1575 -91 
Q 1294 -91 989 -36 
Q 684 19 347 128 
L 347 722 
Q 666 556 975 473 
Q 1284 391 1588 391 
Q 1994 391 2212 530 
Q 2431 669 2431 922 
Q 2431 1156 2273 1281 
Q 2116 1406 1581 1522 
L 1381 1569 
Q 847 1681 609 1914 
Q 372 2147 372 2553 
Q 372 3047 722 3315 
Q 1072 3584 1716 3584 
Q 2034 3584 2315 3537 
Q 2597 3491 2834 3397 
z
" transform="scale(0.015625)"/>
     <path id="DejaVuSans-6f" d="M 1959 3097 
Q 1497 3097 1228 2736 
Q 959 2375 959 1747 
Q 959 1119 1226 758 
Q 1494 397 1959 397 
Q 2419 397 2687 759 
Q 2956 1122 2956 1747 
Q 2956 2369 2687 2733 
Q 2419 3097 1959 3097 
z
M 1959 3584 
Q 2709 3584 3137 3096 
Q 3566 2609 3566 1747 
Q 3566 888 3137 398 
Q 2709 -91 1959 -91 
Q 1206 -91 779 398 
Q 353 888 353 1747 
Q 353 2609 779 3096 
Q 1206 3584 1959 3584 
z
" transform="scale(0.015625)"/>
     <path id="DejaVuSans-6e" d="M 3513 2113 
L 3513 0 
L 2938 0 
L 2938 2094 
Q 2938 2591 2744 2837 
Q 2550 3084 2163 3084 
Q 1697 3084 1428 2787 
Q 1159 2491 1159 1978 
L 1159 0 
L 581 0 
L 581 3500 
L 1159 3500 
L 1159 2956 
Q 1366 3272 1645 3428 
Q 1925 3584 2291 3584 
Q 2894 3584 3203 3211 
Q 3513 2838 3513 2113 
z
" transform="scale(0.015625)"/>
     <path id="DejaVuSans-74" d="M 1172 4494 
L 1172 3500 
L 2356 3500 
L 2356 3053 
L 1172 3053 
L 1172 1153 
Q 1172 725 1289 603 
Q 1406 481 1766 481 
L 2356 481 
L 2356 0 
L 1766 0 
Q 1100 0 847 248 
Q 594 497 594 1153 
L 594 3053 
L 172 3053 
L 172 3500 
L 594 3500 
L 594 4494 
L 1172 4494 
z
" transform="scale(0.015625)"/>
     <path id="DejaVuSans-70" d="M 1159 525 
L 1159 -1331 
L 581 -1331 
L 581 3500 
L 1159 3500 
L 1159 2969 
Q 1341 3281 1617 3432 
Q 1894 3584 2278 3584 
Q 2916 3584 3314 3078 
Q 3713 2572 3713 1747 
Q 3713 922 3314 415 
Q 2916 -91 2278 -91 
Q 1894 -91 1617 61 
Q 1341 213 1159 525 
z
M 3116 1747 
Q 3116 2381 2855 2742 
Q 2594 3103 2138 3103 
Q 1681 3103 1420 2742 
Q 1159 2381 1159 1747 
Q 1159 1113 1420 752 
Q 1681 391 2138 391 
Q 2594 391 2855 752 
Q 3116 1113 3116 1747 
z
" transform="scale(0.015625)"/>
     <path id="DejaVuSans-63" d="M 3122 3366 
L 3122 2828 
Q 2878 2963 2633 3030 
Q 2388 3097 2138 3097 
Q 1578 3097 1268 2742 
Q 959 2388 959 1747 
Q 959 1106 1268 751 
Q 1578 397 2138 397 
Q 2388 397 2633 464 
Q 2878 531 3122 666 
L 3122 134 
Q 2881 22 2623 -34 
Q 2366 -91 2075 -91 
Q 1284 -91 818 406 
Q 353 903 353 1747 
Q 353 2603 823 3093 
Q 1294 3584 2113 3584 
Q 2378 3584 2631 3529 
Q 2884 3475 3122 3366 
z
" transform="scale(0.015625)"/>
    </defs>
    <use xlink:href="#DejaVuSans-53"/>
    <use xlink:href="#DejaVuSans-32" x="63.476562"/>
    <use xlink:href="#DejaVuSans-31" x="127.099609"/>
    <use xlink:href="#DejaVuSans-20" x="190.722656"/>
    <use xlink:href="#DejaVuSans-72" x="222.509766"/>
    <use xlink:href="#DejaVuSans-65" x="261.373047"/>
    <use xlink:href="#DejaVuSans-73" x="322.896484"/>
    <use xlink:href="#DejaVuSans-6f" x="374.996094"/>
    <use xlink:href="#DejaVuSans-6e" x="436.177734"/>
    <use xlink:href="#DejaVuSans-61" x="499.556641"/>
    <use xlink:href="#DejaVuSans-74" x="560.835938"/>
    <use xlink:href="#DejaVuSans-6f" x="600.044922"/>
    <use xlink:href="#DejaVuSans-72" x="661.226562"/>
    <use xlink:href="#DejaVuSans-20" x="702.339844"/>
    <use xlink:href="#DejaVuSans-73" x="734.126953"/>
    <use xlink:href="#DejaVuSans-70" x="786.226562"/>
    <use xlink:href="#DejaVuSans-65" x="849.703125"/>
    <use xlink:href="#DejaVuSans-63" x="911.226562"/>
    <use xlink:href="#DejaVuSans-74" x="966.207031"/>
    <use xlink:href="#DejaVuSans-72" x="1005.416016"/>
    <use xlink:href="#DejaVuSans-6f" x="1044.279297"/>
    <use xlink:href="#DejaVuSans-73" x="1105.460938"/>
    <use xlink:href="#DejaVuSans-63" x="1157.560547"/>
    <use xlink:href="#DejaVuSans-6f" x="1212.541016"/>
    <use xlink:href="#DejaVuSans-70" x="1273.722656"/>
    <use xlink:href="#DejaVuSans-79" x="1337.199219"/>
   </g>
   <!-- tuid: 20231227-185128-249-f8aee5 -->
   <g transform="translate(102.890313 29.7555) scale(0.12 -0.12)">
    <defs>
     <path id="DejaVuSans-69" d="M 603 3500 
L 1178 3500 
L 1178 0 
L 603 0 
L 603 3500 
z
M 603 4863 
L 1178 4863 
L 1178 4134 
L 603 4134 
L 603 4863 
z
" transform="scale(0.015625)"/>
     <path id="DejaVuSans-64" d="M 2906 2969 
L 2906 4863 
L 3481 4863 
L 3481 0 
L 2906 0 
L 2906 525 
Q 2725 213 2448 61 
Q 2172 -91 1784 -91 
Q 1150 -91 751 415 
Q 353 922 353 1747 
Q 353 2572 751 3078 
Q 1150 3584 1784 3584 
Q 2172 3584 2448 3432 
Q 2725 3281 2906 2969 
z
M 947 1747 
Q 947 1113 1208 752 
Q 1469 391 1925 391 
Q 2381 391 2643 752 
Q 2906 1113 2906 1747 
Q 2906 2381 2643 2742 
Q 2381 3103 1925 3103 
Q 1469 3103 1208 2742 
Q 947 2381 947 1747 
z
" transform="scale(0.015625)"/>
     <path id="DejaVuSans-66" d="M 2375 4863 
L 2375 4384 
L 1825 4384 
Q 1516 4384 1395 4259 
Q 1275 4134 1275 3809 
L 1275 3500 
L 2222 3500 
L 2222 3053 
L 1275 3053 
L 1275 0 
L 697 0 
L 697 3053 
L 147 3053 
L 147 3500 
L 697 3500 
L 697 3744 
Q 697 4328 969 4595 
Q 1241 4863 1831 4863 
L 2375 4863 
z
" transform="scale(0.015625)"/>
    </defs>
    <use xlink:href="#DejaVuSans-74"/>
    <use xlink:href="#DejaVuSans-75" x="39.208984"/>
    <use xlink:href="#DejaVuSans-69" x="102.587891"/>
    <use xlink:href="#DejaVuSans-64" x="130.371094"/>
    <use xlink:href="#DejaVuSans-3a" x="193.847656"/>
    <use xlink:href="#DejaVuSans-20" x="227.539062"/>
    <use xlink:href="#DejaVuSans-32" x="259.326172"/>
    <use xlink:href="#DejaVuSans-30" x="322.949219"/>
    <use xlink:href="#DejaVuSans-32" x="386.572266"/>
    <use xlink:href="#DejaVuSans-33" x="450.195312"/>
    <use xlink:href="#DejaVuSans-31" x="513.818359"/>
    <use xlink:href="#DejaVuSans-32" x="577.441406"/>
    <use xlink:href="#DejaVuSans-32" x="641.064453"/>
    <use xlink:href="#DejaVuSans-37" x="704.6875"/>
    <use xlink:href="#DejaVuSans-2d" x="768.310547"/>
    <use xlink:href="#DejaVuSans-31" x="804.394531"/>
    <use xlink:href="#DejaVuSans-38" x="868.017578"/>
    <use xlink:href="#DejaVuSans-35" x="931.640625"/>
    <use xlink:href="#DejaVuSans-31" x="995.263672"/>
    <use xlink:href="#DejaVuSans-32" x="1058.886719"/>
    <use xlink:href="#DejaVuSans-38" x="1122.509766"/>
    <use xlink:href="#DejaVuSans-2d" x="1186.132812"/>
    <use xlink:href="#DejaVuSans-32" x="1222.216797"/>
    <use xlink:href="#DejaVuSans-34" x="1285.839844"/>
    <use xlink:href="#DejaVuSans-39" x="1349.462891"/>
    <use xlink:href="#DejaVuSans-2d" x="1413.085938"/>
    <use xlink:href="#DejaVuSans-66" x="1449.169922"/>
    <use xlink:href="#DejaVuSans-38" x="1484.375"/>
    <use xlink:href="#DejaVuSans-61" x="1547.998047"/>
    <use xlink:href="#DejaVuSans-65" x="1609.277344"/>
    <use xlink:href="#DejaVuSans-65" x="1670.800781"/>
    <use xlink:href="#DejaVuSans-35" x="1732.324219"/>
   </g>
  </g>
 </g>
 <defs>
  <clipPath id="p82a904bd11">
   <rect x="37.848438" y="41.76" width="357.12" height="266.112"/>
  </clipPath>
 </defs>
</svg>
