<?xml version="1.0" encoding="utf-8" standalone="no"?>
<!DOCTYPE svg PUBLIC "-//W3C//DTD SVG 1.1//EN"
  "http://www.w3.org/Graphics/SVG/1.1/DTD/svg11.dtd">
<svg xmlns:xlink="http://www.w3.org/1999/xlink" width="592.879125pt" height="345.42825pt" viewBox="0 0 592.879125 345.42825" xmlns="http://www.w3.org/2000/svg" version="1.1">
 <metadata>
  <rdf:RDF xmlns:dc="http://purl.org/dc/elements/1.1/" xmlns:cc="http://creativecommons.org/ns#" xmlns:rdf="http://www.w3.org/1999/02/22-rdf-syntax-ns#">
   <cc:Work>
    <dc:type rdf:resource="http://purl.org/dc/dcmitype/StillImage"/>
    <dc:date>2023-12-27T12:55:25.539725</dc:date>
    <dc:format>image/svg+xml</dc:format>
    <dc:creator>
     <cc:Agent>
      <dc:title>Matplotlib v3.8.2, https://matplotlib.org/</dc:title>
     </cc:Agent>
    </dc:creator>
   </cc:Work>
  </rdf:RDF>
 </metadata>
 <defs>
  <style type="text/css">*{stroke-linejoin: round; stroke-linecap: butt}</style>
 </defs>
 <g id="figure_1">
  <g id="patch_1">
   <path d="M 0 345.42825 
L 592.879125 345.42825 
L 592.879125 -0 
L 0 -0 
L 0 345.42825 
z
" style="fill: none; opacity: 0"/>
  </g>
  <g id="axes_1">
   <g id="patch_2">
    <path d="M 50.595313 162.72 
L 407.715312 162.72 
L 407.715312 41.76 
L 50.595313 41.76 
z
" style="fill: #ffffff"/>
   </g>
   <g id="matplotlib.axis_1">
    <g id="xtick_1">
     <g id="line2d_1">
      <defs>
       <path id="mb8addadda2" d="M 0 0 
L 0 3.5 
" style="stroke: #000000; stroke-width: 0.8"/>
      </defs>
      <g>
       <use xlink:href="#mb8addadda2" x="50.595313" y="162.72" style="stroke: #000000; stroke-width: 0.8"/>
      </g>
     </g>
    </g>
    <g id="xtick_2">
     <g id="line2d_2">
      <g>
       <use xlink:href="#mb8addadda2" x="91.177131" y="162.72" style="stroke: #000000; stroke-width: 0.8"/>
      </g>
     </g>
    </g>
    <g id="xtick_3">
     <g id="line2d_3">
      <g>
       <use xlink:href="#mb8addadda2" x="131.758949" y="162.72" style="stroke: #000000; stroke-width: 0.8"/>
      </g>
     </g>
    </g>
    <g id="xtick_4">
     <g id="line2d_4">
      <g>
       <use xlink:href="#mb8addadda2" x="172.340767" y="162.72" style="stroke: #000000; stroke-width: 0.8"/>
      </g>
     </g>
    </g>
    <g id="xtick_5">
     <g id="line2d_5">
      <g>
       <use xlink:href="#mb8addadda2" x="212.922585" y="162.72" style="stroke: #000000; stroke-width: 0.8"/>
      </g>
     </g>
    </g>
    <g id="xtick_6">
     <g id="line2d_6">
      <g>
       <use xlink:href="#mb8addadda2" x="253.504403" y="162.72" style="stroke: #000000; stroke-width: 0.8"/>
      </g>
     </g>
    </g>
    <g id="xtick_7">
     <g id="line2d_7">
      <g>
       <use xlink:href="#mb8addadda2" x="294.086222" y="162.72" style="stroke: #000000; stroke-width: 0.8"/>
      </g>
     </g>
    </g>
    <g id="xtick_8">
     <g id="line2d_8">
      <g>
       <use xlink:href="#mb8addadda2" x="334.66804" y="162.72" style="stroke: #000000; stroke-width: 0.8"/>
      </g>
     </g>
    </g>
    <g id="xtick_9">
     <g id="line2d_9">
      <g>
       <use xlink:href="#mb8addadda2" x="375.249858" y="162.72" style="stroke: #000000; stroke-width: 0.8"/>
      </g>
     </g>
    </g>
   </g>
   <g id="matplotlib.axis_2">
    <g id="ytick_1">
     <g id="line2d_10">
      <defs>
       <path id="md2d8e1720c" d="M 0 0 
L -3.5 0 
" style="stroke: #000000; stroke-width: 0.8"/>
      </defs>
      <g>
       <use xlink:href="#md2d8e1720c" x="50.595313" y="148.676383" style="stroke: #000000; stroke-width: 0.8"/>
      </g>
     </g>
     <g id="text_1">
      <!-- 4 -->
      <g transform="translate(37.232813 152.475602) scale(0.1 -0.1)">
       <defs>
        <path id="DejaVuSans-34" d="M 2419 4116 
L 825 1625 
L 2419 1625 
L 2419 4116 
z
M 2253 4666 
L 3047 4666 
L 3047 1625 
L 3713 1625 
L 3713 1100 
L 3047 1100 
L 3047 0 
L 2419 0 
L 2419 1100 
L 313 1100 
L 313 1709 
L 2253 4666 
z
" transform="scale(0.015625)"/>
       </defs>
       <use xlink:href="#DejaVuSans-34"/>
      </g>
     </g>
    </g>
    <g id="ytick_2">
     <g id="line2d_11">
      <g>
       <use xlink:href="#md2d8e1720c" x="50.595313" y="120.243853" style="stroke: #000000; stroke-width: 0.8"/>
      </g>
     </g>
     <g id="text_2">
      <!-- 6 -->
      <g transform="translate(37.232813 124.043072) scale(0.1 -0.1)">
       <defs>
        <path id="DejaVuSans-36" d="M 2113 2584 
Q 1688 2584 1439 2293 
Q 1191 2003 1191 1497 
Q 1191 994 1439 701 
Q 1688 409 2113 409 
Q 2538 409 2786 701 
Q 3034 994 3034 1497 
Q 3034 2003 2786 2293 
Q 2538 2584 2113 2584 
z
M 3366 4563 
L 3366 3988 
Q 3128 4100 2886 4159 
Q 2644 4219 2406 4219 
Q 1781 4219 1451 3797 
Q 1122 3375 1075 2522 
Q 1259 2794 1537 2939 
Q 1816 3084 2150 3084 
Q 2853 3084 3261 2657 
Q 3669 2231 3669 1497 
Q 3669 778 3244 343 
Q 2819 -91 2113 -91 
Q 1303 -91 875 529 
Q 447 1150 447 2328 
Q 447 3434 972 4092 
Q 1497 4750 2381 4750 
Q 2619 4750 2861 4703 
Q 3103 4656 3366 4563 
z
" transform="scale(0.015625)"/>
       </defs>
       <use xlink:href="#DejaVuSans-36"/>
      </g>
     </g>
    </g>
    <g id="ytick_3">
     <g id="line2d_12">
      <g>
       <use xlink:href="#md2d8e1720c" x="50.595313" y="91.811324" style="stroke: #000000; stroke-width: 0.8"/>
      </g>
     </g>
     <g id="text_3">
      <!-- 8 -->
      <g transform="translate(37.232813 95.610542) scale(0.1 -0.1)">
       <defs>
        <path id="DejaVuSans-38" d="M 2034 2216 
Q 1584 2216 1326 1975 
Q 1069 1734 1069 1313 
Q 1069 891 1326 650 
Q 1584 409 2034 409 
Q 2484 409 2743 651 
Q 3003 894 3003 1313 
Q 3003 1734 2745 1975 
Q 2488 2216 2034 2216 
z
M 1403 2484 
Q 997 2584 770 2862 
Q 544 3141 544 3541 
Q 544 4100 942 4425 
Q 1341 4750 2034 4750 
Q 2731 4750 3128 4425 
Q 3525 4100 3525 3541 
Q 3525 3141 3298 2862 
Q 3072 2584 2669 2484 
Q 3125 2378 3379 2068 
Q 3634 1759 3634 1313 
Q 3634 634 3220 271 
Q 2806 -91 2034 -91 
Q 1263 -91 848 271 
Q 434 634 434 1313 
Q 434 1759 690 2068 
Q 947 2378 1403 2484 
z
M 1172 3481 
Q 1172 3119 1398 2916 
Q 1625 2713 2034 2713 
Q 2441 2713 2670 2916 
Q 2900 3119 2900 3481 
Q 2900 3844 2670 4047 
Q 2441 4250 2034 4250 
Q 1625 4250 1398 4047 
Q 1172 3844 1172 3481 
z
" transform="scale(0.015625)"/>
       </defs>
       <use xlink:href="#DejaVuSans-38"/>
      </g>
     </g>
    </g>
    <g id="ytick_4">
     <g id="line2d_13">
      <g>
       <use xlink:href="#md2d8e1720c" x="50.595313" y="63.378794" style="stroke: #000000; stroke-width: 0.8"/>
      </g>
     </g>
     <g id="text_4">
      <!-- 10 -->
      <g transform="translate(30.870313 67.178013) scale(0.1 -0.1)">
       <defs>
        <path id="DejaVuSans-31" d="M 794 531 
L 1825 531 
L 1825 4091 
L 703 3866 
L 703 4441 
L 1819 4666 
L 2450 4666 
L 2450 531 
L 3481 531 
L 3481 0 
L 794 0 
L 794 531 
z
" transform="scale(0.015625)"/>
        <path id="DejaVuSans-30" d="M 2034 4250 
Q 1547 4250 1301 3770 
Q 1056 3291 1056 2328 
Q 1056 1369 1301 889 
Q 1547 409 2034 409 
Q 2525 409 2770 889 
Q 3016 1369 3016 2328 
Q 3016 3291 2770 3770 
Q 2525 4250 2034 4250 
z
M 2034 4750 
Q 2819 4750 3233 4129 
Q 3647 3509 3647 2328 
Q 3647 1150 3233 529 
Q 2819 -91 2034 -91 
Q 1250 -91 836 529 
Q 422 1150 422 2328 
Q 422 3509 836 4129 
Q 1250 4750 2034 4750 
z
" transform="scale(0.015625)"/>
       </defs>
       <use xlink:href="#DejaVuSans-31"/>
       <use xlink:href="#DejaVuSans-30" x="63.623047"/>
      </g>
     </g>
    </g>
    <g id="text_5">
     <!-- $|S_{21}|$ [mV] -->
     <g transform="translate(24.470313 127.19) rotate(-90) scale(0.1 -0.1)">
      <defs>
       <path id="DejaVuSans-7c" d="M 1344 4891 
L 1344 -1509 
L 813 -1509 
L 813 4891 
L 1344 4891 
z
" transform="scale(0.015625)"/>
       <path id="DejaVuSans-Oblique-53" d="M 3859 4513 
L 3738 3897 
Q 3422 4066 3111 4152 
Q 2800 4238 2509 4238 
Q 1944 4238 1609 3991 
Q 1275 3744 1275 3334 
Q 1275 3109 1398 2989 
Q 1522 2869 2034 2731 
L 2413 2638 
Q 3053 2472 3303 2217 
Q 3553 1963 3553 1503 
Q 3553 797 2998 353 
Q 2444 -91 1538 -91 
Q 1166 -91 791 -17 
Q 416 56 38 206 
L 166 856 
Q 513 641 861 531 
Q 1209 422 1556 422 
Q 2147 422 2503 684 
Q 2859 947 2859 1369 
Q 2859 1650 2717 1795 
Q 2575 1941 2106 2059 
L 1728 2156 
Q 1081 2325 845 2545 
Q 609 2766 609 3163 
Q 609 3859 1145 4304 
Q 1681 4750 2541 4750 
Q 2875 4750 3203 4690 
Q 3531 4631 3859 4513 
z
" transform="scale(0.015625)"/>
       <path id="DejaVuSans-32" d="M 1228 531 
L 3431 531 
L 3431 0 
L 469 0 
L 469 531 
Q 828 903 1448 1529 
Q 2069 2156 2228 2338 
Q 2531 2678 2651 2914 
Q 2772 3150 2772 3378 
Q 2772 3750 2511 3984 
Q 2250 4219 1831 4219 
Q 1534 4219 1204 4116 
Q 875 4013 500 3803 
L 500 4441 
Q 881 4594 1212 4672 
Q 1544 4750 1819 4750 
Q 2544 4750 2975 4387 
Q 3406 4025 3406 3419 
Q 3406 3131 3298 2873 
Q 3191 2616 2906 2266 
Q 2828 2175 2409 1742 
Q 1991 1309 1228 531 
z
" transform="scale(0.015625)"/>
       <path id="DejaVuSans-20" transform="scale(0.015625)"/>
       <path id="DejaVuSans-5b" d="M 550 4863 
L 1875 4863 
L 1875 4416 
L 1125 4416 
L 1125 -397 
L 1875 -397 
L 1875 -844 
L 550 -844 
L 550 4863 
z
" transform="scale(0.015625)"/>
       <path id="DejaVuSans-6d" d="M 3328 2828 
Q 3544 3216 3844 3400 
Q 4144 3584 4550 3584 
Q 5097 3584 5394 3201 
Q 5691 2819 5691 2113 
L 5691 0 
L 5113 0 
L 5113 2094 
Q 5113 2597 4934 2840 
Q 4756 3084 4391 3084 
Q 3944 3084 3684 2787 
Q 3425 2491 3425 1978 
L 3425 0 
L 2847 0 
L 2847 2094 
Q 2847 2600 2669 2842 
Q 2491 3084 2119 3084 
Q 1678 3084 1418 2786 
Q 1159 2488 1159 1978 
L 1159 0 
L 581 0 
L 581 3500 
L 1159 3500 
L 1159 2956 
Q 1356 3278 1631 3431 
Q 1906 3584 2284 3584 
Q 2666 3584 2933 3390 
Q 3200 3197 3328 2828 
z
" transform="scale(0.015625)"/>
       <path id="DejaVuSans-56" d="M 1831 0 
L 50 4666 
L 709 4666 
L 2188 738 
L 3669 4666 
L 4325 4666 
L 2547 0 
L 1831 0 
z
" transform="scale(0.015625)"/>
       <path id="DejaVuSans-5d" d="M 1947 4863 
L 1947 -844 
L 622 -844 
L 622 -397 
L 1369 -397 
L 1369 4416 
L 622 4416 
L 622 4863 
L 1947 4863 
z
" transform="scale(0.015625)"/>
      </defs>
      <use xlink:href="#DejaVuSans-7c" transform="translate(0 0.578125)"/>
      <use xlink:href="#DejaVuSans-Oblique-53" transform="translate(33.691406 0.578125)"/>
      <use xlink:href="#DejaVuSans-32" transform="translate(97.167969 -15.828125) scale(0.7)"/>
      <use xlink:href="#DejaVuSans-31" transform="translate(141.704102 -15.828125) scale(0.7)"/>
      <use xlink:href="#DejaVuSans-7c" transform="translate(188.974609 0.578125)"/>
      <use xlink:href="#DejaVuSans-20" transform="translate(222.666016 0.578125)"/>
      <use xlink:href="#DejaVuSans-5b" transform="translate(254.453125 0.578125)"/>
      <use xlink:href="#DejaVuSans-6d" transform="translate(293.466797 0.578125)"/>
      <use xlink:href="#DejaVuSans-56" transform="translate(390.878906 0.578125)"/>
      <use xlink:href="#DejaVuSans-5d" transform="translate(459.287109 0.578125)"/>
     </g>
    </g>
   </g>
   <g id="line2d_14">
    <path d="M 66.82804 157.221818 
L 68.45947 148.147912 
L 70.0909 139.98748 
L 71.722329 128.715468 
L 73.353759 122.557717 
L 74.985189 115.002387 
L 76.616619 108.021387 
L 78.248049 104.646845 
L 79.879479 98.835739 
L 81.510909 94.922697 
L 83.142339 89.498848 
L 84.773768 87.608243 
L 86.405198 82.956887 
L 88.036628 81.202529 
L 89.668058 76.732199 
L 91.299488 76.938814 
L 92.930918 75.260105 
L 94.562348 71.575876 
L 96.193778 72.081948 
L 97.825207 70.962937 
L 99.456637 67.271926 
L 101.088067 66.000959 
L 102.719497 65.878831 
L 105.982357 64.836229 
L 107.613787 63.578703 
L 109.245217 61.895256 
L 110.876646 63.17804 
L 112.508076 60.564401 
L 114.139506 60.012467 
L 115.770936 60.450462 
L 117.402366 60.630151 
L 119.033796 58.424957 
L 120.665226 58.092373 
L 122.296656 58.299777 
L 123.928085 57.540921 
L 125.559515 56.609878 
L 127.190945 56.565432 
L 128.822375 57.583674 
L 130.453805 55.696571 
L 132.085235 58.0379 
L 133.716665 55.164284 
L 135.348095 54.719559 
L 136.979524 53.727451 
L 138.610954 53.80236 
L 140.242384 55.485643 
L 141.873814 55.622837 
L 143.505244 54.117385 
L 145.136674 53.785826 
L 146.768104 54.532855 
L 148.399534 55.060822 
L 150.030963 52.843571 
L 151.662393 54.204035 
L 153.293823 54.188442 
L 154.925253 52.99863 
L 156.556683 53.156428 
L 158.188113 52.787012 
L 159.819543 54.537188 
L 161.450973 53.368469 
L 163.082402 53.437841 
L 164.713832 52.38895 
L 166.345262 52.927824 
L 167.976692 52.808639 
L 169.608122 51.13093 
L 171.239552 53.143289 
L 172.870982 52.591399 
L 174.502412 51.825814 
L 176.133842 51.950578 
L 177.765271 51.705436 
L 179.396701 51.574814 
L 181.028131 50.296454 
L 182.659561 50.91381 
L 184.290991 49.757798 
L 185.922421 50.900971 
L 187.553851 49.900109 
L 189.185281 51.445514 
L 190.81671 49.703786 
L 192.44814 51.61859 
L 194.07957 50.857779 
L 195.711 50.960194 
L 197.34243 51.359211 
L 198.97386 49.409787 
L 200.60529 51.396922 
L 202.23672 49.711865 
L 203.868149 51.133016 
L 205.499579 50.083743 
L 207.131009 50.35548 
L 208.762439 50.99299 
L 210.393869 48.106236 
L 212.025299 49.782107 
L 213.656729 50.976237 
L 215.288159 50.090775 
L 216.919588 50.710864 
L 218.551018 50.76441 
L 220.182448 49.117814 
L 221.813878 51.939686 
L 223.445308 49.538421 
L 225.076738 49.619838 
L 228.339598 50.532833 
L 229.971027 49.570634 
L 231.602457 49.989097 
L 233.233887 49.321667 
L 236.496747 48.838291 
L 238.128177 50.537744 
L 239.759607 48.84537 
L 241.391037 49.593027 
L 243.022466 48.401858 
L 244.653896 49.347576 
L 247.916756 50.032086 
L 249.548186 49.276331 
L 251.179616 51.553302 
L 252.811046 47.258182 
L 254.442476 49.29141 
L 256.073905 49.334973 
L 257.705335 50.211304 
L 259.336765 49.347896 
L 260.968195 50.400065 
L 262.599625 48.649161 
L 264.231055 48.790361 
L 265.862485 48.326646 
L 267.493915 48.475788 
L 270.756774 47.988626 
L 272.388204 49.337444 
L 274.019634 48.634118 
L 275.651064 49.436145 
L 277.282494 50.982439 
L 278.913924 49.046307 
L 280.545354 48.270873 
L 282.176783 49.928618 
L 283.808213 49.105703 
L 285.439643 48.94553 
L 287.071073 49.481074 
L 288.702503 49.679821 
L 290.333933 48.392767 
L 291.965363 49.819188 
L 293.596793 49.173832 
L 295.228223 50.145659 
L 296.859652 49.572425 
L 298.491082 49.805761 
L 300.122512 49.621914 
L 301.753942 48.781325 
L 303.385372 49.852834 
L 305.016802 49.375953 
L 306.648232 48.778429 
L 308.279662 47.926495 
L 309.911091 49.105119 
L 311.542521 47.665258 
L 313.173951 48.879852 
L 314.805381 48.226264 
L 316.436811 50.047512 
L 318.068241 49.347193 
L 319.699671 48.356721 
L 321.331101 49.100138 
L 322.96253 49.417952 
L 324.59396 48.589848 
L 326.22539 50.11996 
L 327.85682 51.082773 
L 329.48825 49.589424 
L 331.11968 49.289796 
L 332.75111 49.703709 
L 334.38254 50.240142 
L 336.013969 49.831696 
L 337.645399 51.05441 
L 339.276829 50.164602 
L 340.908259 51.149644 
L 342.539689 50.155464 
L 344.171119 49.351074 
L 345.802549 50.718635 
L 347.433979 50.465025 
L 349.065408 51.582337 
L 350.696838 49.540151 
L 352.328268 51.865603 
L 353.959698 49.609102 
L 355.591128 51.191033 
L 357.222558 50.177601 
L 358.853988 51.809669 
L 360.485418 50.313854 
L 362.116847 52.233349 
L 363.748277 50.392664 
L 365.379707 50.041111 
L 367.011137 51.853259 
L 368.642567 51.667225 
L 370.273997 51.317095 
L 371.905427 49.884832 
L 373.536857 49.989997 
L 375.168286 49.785727 
L 376.799716 51.001478 
L 380.062576 51.457676 
L 381.694006 51.270867 
L 383.325436 51.977624 
L 384.956866 51.756176 
L 386.588296 52.045271 
L 388.219725 51.918086 
L 389.851155 52.475435 
L 391.482585 52.264156 
L 391.482585 52.264156 
" clip-path="url(#pb139e09cf3)" style="fill: none; stroke: #1f77b4; stroke-width: 1.5; stroke-linecap: square"/>
    <defs>
     <path id="mc55bd743d5" d="M 0 1.5 
C 0.397805 1.5 0.77937 1.341951 1.06066 1.06066 
C 1.341951 0.77937 1.5 0.397805 1.5 0 
C 1.5 -0.397805 1.341951 -0.77937 1.06066 -1.06066 
C 0.77937 -1.341951 0.397805 -1.5 0 -1.5 
C -0.397805 -1.5 -0.77937 -1.341951 -1.06066 -1.06066 
C -1.341951 -0.77937 -1.5 -0.397805 -1.5 0 
C -1.5 0.397805 -1.341951 0.77937 -1.06066 1.06066 
C -0.77937 1.341951 -0.397805 1.5 0 1.5 
z
" style="stroke: #1f77b4"/>
    </defs>
    <g clip-path="url(#pb139e09cf3)">
     <use xlink:href="#mc55bd743d5" x="66.82804" y="157.221818" style="fill: #1f77b4; stroke: #1f77b4"/>
     <use xlink:href="#mc55bd743d5" x="68.45947" y="148.147912" style="fill: #1f77b4; stroke: #1f77b4"/>
     <use xlink:href="#mc55bd743d5" x="70.0909" y="139.98748" style="fill: #1f77b4; stroke: #1f77b4"/>
     <use xlink:href="#mc55bd743d5" x="71.722329" y="128.715468" style="fill: #1f77b4; stroke: #1f77b4"/>
     <use xlink:href="#mc55bd743d5" x="73.353759" y="122.557717" style="fill: #1f77b4; stroke: #1f77b4"/>
     <use xlink:href="#mc55bd743d5" x="74.985189" y="115.002387" style="fill: #1f77b4; stroke: #1f77b4"/>
     <use xlink:href="#mc55bd743d5" x="76.616619" y="108.021387" style="fill: #1f77b4; stroke: #1f77b4"/>
     <use xlink:href="#mc55bd743d5" x="78.248049" y="104.646845" style="fill: #1f77b4; stroke: #1f77b4"/>
     <use xlink:href="#mc55bd743d5" x="79.879479" y="98.835739" style="fill: #1f77b4; stroke: #1f77b4"/>
     <use xlink:href="#mc55bd743d5" x="81.510909" y="94.922697" style="fill: #1f77b4; stroke: #1f77b4"/>
     <use xlink:href="#mc55bd743d5" x="83.142339" y="89.498848" style="fill: #1f77b4; stroke: #1f77b4"/>
     <use xlink:href="#mc55bd743d5" x="84.773768" y="87.608243" style="fill: #1f77b4; stroke: #1f77b4"/>
     <use xlink:href="#mc55bd743d5" x="86.405198" y="82.956887" style="fill: #1f77b4; stroke: #1f77b4"/>
     <use xlink:href="#mc55bd743d5" x="88.036628" y="81.202529" style="fill: #1f77b4; stroke: #1f77b4"/>
     <use xlink:href="#mc55bd743d5" x="89.668058" y="76.732199" style="fill: #1f77b4; stroke: #1f77b4"/>
     <use xlink:href="#mc55bd743d5" x="91.299488" y="76.938814" style="fill: #1f77b4; stroke: #1f77b4"/>
     <use xlink:href="#mc55bd743d5" x="92.930918" y="75.260105" style="fill: #1f77b4; stroke: #1f77b4"/>
     <use xlink:href="#mc55bd743d5" x="94.562348" y="71.575876" style="fill: #1f77b4; stroke: #1f77b4"/>
     <use xlink:href="#mc55bd743d5" x="96.193778" y="72.081948" style="fill: #1f77b4; stroke: #1f77b4"/>
     <use xlink:href="#mc55bd743d5" x="97.825207" y="70.962937" style="fill: #1f77b4; stroke: #1f77b4"/>
     <use xlink:href="#mc55bd743d5" x="99.456637" y="67.271926" style="fill: #1f77b4; stroke: #1f77b4"/>
     <use xlink:href="#mc55bd743d5" x="101.088067" y="66.000959" style="fill: #1f77b4; stroke: #1f77b4"/>
     <use xlink:href="#mc55bd743d5" x="102.719497" y="65.878831" style="fill: #1f77b4; stroke: #1f77b4"/>
     <use xlink:href="#mc55bd743d5" x="104.350927" y="65.387551" style="fill: #1f77b4; stroke: #1f77b4"/>
     <use xlink:href="#mc55bd743d5" x="105.982357" y="64.836229" style="fill: #1f77b4; stroke: #1f77b4"/>
     <use xlink:href="#mc55bd743d5" x="107.613787" y="63.578703" style="fill: #1f77b4; stroke: #1f77b4"/>
     <use xlink:href="#mc55bd743d5" x="109.245217" y="61.895256" style="fill: #1f77b4; stroke: #1f77b4"/>
     <use xlink:href="#mc55bd743d5" x="110.876646" y="63.17804" style="fill: #1f77b4; stroke: #1f77b4"/>
     <use xlink:href="#mc55bd743d5" x="112.508076" y="60.564401" style="fill: #1f77b4; stroke: #1f77b4"/>
     <use xlink:href="#mc55bd743d5" x="114.139506" y="60.012467" style="fill: #1f77b4; stroke: #1f77b4"/>
     <use xlink:href="#mc55bd743d5" x="115.770936" y="60.450462" style="fill: #1f77b4; stroke: #1f77b4"/>
     <use xlink:href="#mc55bd743d5" x="117.402366" y="60.630151" style="fill: #1f77b4; stroke: #1f77b4"/>
     <use xlink:href="#mc55bd743d5" x="119.033796" y="58.424957" style="fill: #1f77b4; stroke: #1f77b4"/>
     <use xlink:href="#mc55bd743d5" x="120.665226" y="58.092373" style="fill: #1f77b4; stroke: #1f77b4"/>
     <use xlink:href="#mc55bd743d5" x="122.296656" y="58.299777" style="fill: #1f77b4; stroke: #1f77b4"/>
     <use xlink:href="#mc55bd743d5" x="123.928085" y="57.540921" style="fill: #1f77b4; stroke: #1f77b4"/>
     <use xlink:href="#mc55bd743d5" x="125.559515" y="56.609878" style="fill: #1f77b4; stroke: #1f77b4"/>
     <use xlink:href="#mc55bd743d5" x="127.190945" y="56.565432" style="fill: #1f77b4; stroke: #1f77b4"/>
     <use xlink:href="#mc55bd743d5" x="128.822375" y="57.583674" style="fill: #1f77b4; stroke: #1f77b4"/>
     <use xlink:href="#mc55bd743d5" x="130.453805" y="55.696571" style="fill: #1f77b4; stroke: #1f77b4"/>
     <use xlink:href="#mc55bd743d5" x="132.085235" y="58.0379" style="fill: #1f77b4; stroke: #1f77b4"/>
     <use xlink:href="#mc55bd743d5" x="133.716665" y="55.164284" style="fill: #1f77b4; stroke: #1f77b4"/>
     <use xlink:href="#mc55bd743d5" x="135.348095" y="54.719559" style="fill: #1f77b4; stroke: #1f77b4"/>
     <use xlink:href="#mc55bd743d5" x="136.979524" y="53.727451" style="fill: #1f77b4; stroke: #1f77b4"/>
     <use xlink:href="#mc55bd743d5" x="138.610954" y="53.80236" style="fill: #1f77b4; stroke: #1f77b4"/>
     <use xlink:href="#mc55bd743d5" x="140.242384" y="55.485643" style="fill: #1f77b4; stroke: #1f77b4"/>
     <use xlink:href="#mc55bd743d5" x="141.873814" y="55.622837" style="fill: #1f77b4; stroke: #1f77b4"/>
     <use xlink:href="#mc55bd743d5" x="143.505244" y="54.117385" style="fill: #1f77b4; stroke: #1f77b4"/>
     <use xlink:href="#mc55bd743d5" x="145.136674" y="53.785826" style="fill: #1f77b4; stroke: #1f77b4"/>
     <use xlink:href="#mc55bd743d5" x="146.768104" y="54.532855" style="fill: #1f77b4; stroke: #1f77b4"/>
     <use xlink:href="#mc55bd743d5" x="148.399534" y="55.060822" style="fill: #1f77b4; stroke: #1f77b4"/>
     <use xlink:href="#mc55bd743d5" x="150.030963" y="52.843571" style="fill: #1f77b4; stroke: #1f77b4"/>
     <use xlink:href="#mc55bd743d5" x="151.662393" y="54.204035" style="fill: #1f77b4; stroke: #1f77b4"/>
     <use xlink:href="#mc55bd743d5" x="153.293823" y="54.188442" style="fill: #1f77b4; stroke: #1f77b4"/>
     <use xlink:href="#mc55bd743d5" x="154.925253" y="52.99863" style="fill: #1f77b4; stroke: #1f77b4"/>
     <use xlink:href="#mc55bd743d5" x="156.556683" y="53.156428" style="fill: #1f77b4; stroke: #1f77b4"/>
     <use xlink:href="#mc55bd743d5" x="158.188113" y="52.787012" style="fill: #1f77b4; stroke: #1f77b4"/>
     <use xlink:href="#mc55bd743d5" x="159.819543" y="54.537188" style="fill: #1f77b4; stroke: #1f77b4"/>
     <use xlink:href="#mc55bd743d5" x="161.450973" y="53.368469" style="fill: #1f77b4; stroke: #1f77b4"/>
     <use xlink:href="#mc55bd743d5" x="163.082402" y="53.437841" style="fill: #1f77b4; stroke: #1f77b4"/>
     <use xlink:href="#mc55bd743d5" x="164.713832" y="52.38895" style="fill: #1f77b4; stroke: #1f77b4"/>
     <use xlink:href="#mc55bd743d5" x="166.345262" y="52.927824" style="fill: #1f77b4; stroke: #1f77b4"/>
     <use xlink:href="#mc55bd743d5" x="167.976692" y="52.808639" style="fill: #1f77b4; stroke: #1f77b4"/>
     <use xlink:href="#mc55bd743d5" x="169.608122" y="51.13093" style="fill: #1f77b4; stroke: #1f77b4"/>
     <use xlink:href="#mc55bd743d5" x="171.239552" y="53.143289" style="fill: #1f77b4; stroke: #1f77b4"/>
     <use xlink:href="#mc55bd743d5" x="172.870982" y="52.591399" style="fill: #1f77b4; stroke: #1f77b4"/>
     <use xlink:href="#mc55bd743d5" x="174.502412" y="51.825814" style="fill: #1f77b4; stroke: #1f77b4"/>
     <use xlink:href="#mc55bd743d5" x="176.133842" y="51.950578" style="fill: #1f77b4; stroke: #1f77b4"/>
     <use xlink:href="#mc55bd743d5" x="177.765271" y="51.705436" style="fill: #1f77b4; stroke: #1f77b4"/>
     <use xlink:href="#mc55bd743d5" x="179.396701" y="51.574814" style="fill: #1f77b4; stroke: #1f77b4"/>
     <use xlink:href="#mc55bd743d5" x="181.028131" y="50.296454" style="fill: #1f77b4; stroke: #1f77b4"/>
     <use xlink:href="#mc55bd743d5" x="182.659561" y="50.91381" style="fill: #1f77b4; stroke: #1f77b4"/>
     <use xlink:href="#mc55bd743d5" x="184.290991" y="49.757798" style="fill: #1f77b4; stroke: #1f77b4"/>
     <use xlink:href="#mc55bd743d5" x="185.922421" y="50.900971" style="fill: #1f77b4; stroke: #1f77b4"/>
     <use xlink:href="#mc55bd743d5" x="187.553851" y="49.900109" style="fill: #1f77b4; stroke: #1f77b4"/>
     <use xlink:href="#mc55bd743d5" x="189.185281" y="51.445514" style="fill: #1f77b4; stroke: #1f77b4"/>
     <use xlink:href="#mc55bd743d5" x="190.81671" y="49.703786" style="fill: #1f77b4; stroke: #1f77b4"/>
     <use xlink:href="#mc55bd743d5" x="192.44814" y="51.61859" style="fill: #1f77b4; stroke: #1f77b4"/>
     <use xlink:href="#mc55bd743d5" x="194.07957" y="50.857779" style="fill: #1f77b4; stroke: #1f77b4"/>
     <use xlink:href="#mc55bd743d5" x="195.711" y="50.960194" style="fill: #1f77b4; stroke: #1f77b4"/>
     <use xlink:href="#mc55bd743d5" x="197.34243" y="51.359211" style="fill: #1f77b4; stroke: #1f77b4"/>
     <use xlink:href="#mc55bd743d5" x="198.97386" y="49.409787" style="fill: #1f77b4; stroke: #1f77b4"/>
     <use xlink:href="#mc55bd743d5" x="200.60529" y="51.396922" style="fill: #1f77b4; stroke: #1f77b4"/>
     <use xlink:href="#mc55bd743d5" x="202.23672" y="49.711865" style="fill: #1f77b4; stroke: #1f77b4"/>
     <use xlink:href="#mc55bd743d5" x="203.868149" y="51.133016" style="fill: #1f77b4; stroke: #1f77b4"/>
     <use xlink:href="#mc55bd743d5" x="205.499579" y="50.083743" style="fill: #1f77b4; stroke: #1f77b4"/>
     <use xlink:href="#mc55bd743d5" x="207.131009" y="50.35548" style="fill: #1f77b4; stroke: #1f77b4"/>
     <use xlink:href="#mc55bd743d5" x="208.762439" y="50.99299" style="fill: #1f77b4; stroke: #1f77b4"/>
     <use xlink:href="#mc55bd743d5" x="210.393869" y="48.106236" style="fill: #1f77b4; stroke: #1f77b4"/>
     <use xlink:href="#mc55bd743d5" x="212.025299" y="49.782107" style="fill: #1f77b4; stroke: #1f77b4"/>
     <use xlink:href="#mc55bd743d5" x="213.656729" y="50.976237" style="fill: #1f77b4; stroke: #1f77b4"/>
     <use xlink:href="#mc55bd743d5" x="215.288159" y="50.090775" style="fill: #1f77b4; stroke: #1f77b4"/>
     <use xlink:href="#mc55bd743d5" x="216.919588" y="50.710864" style="fill: #1f77b4; stroke: #1f77b4"/>
     <use xlink:href="#mc55bd743d5" x="218.551018" y="50.76441" style="fill: #1f77b4; stroke: #1f77b4"/>
     <use xlink:href="#mc55bd743d5" x="220.182448" y="49.117814" style="fill: #1f77b4; stroke: #1f77b4"/>
     <use xlink:href="#mc55bd743d5" x="221.813878" y="51.939686" style="fill: #1f77b4; stroke: #1f77b4"/>
     <use xlink:href="#mc55bd743d5" x="223.445308" y="49.538421" style="fill: #1f77b4; stroke: #1f77b4"/>
     <use xlink:href="#mc55bd743d5" x="225.076738" y="49.619838" style="fill: #1f77b4; stroke: #1f77b4"/>
     <use xlink:href="#mc55bd743d5" x="226.708168" y="50.060931" style="fill: #1f77b4; stroke: #1f77b4"/>
     <use xlink:href="#mc55bd743d5" x="228.339598" y="50.532833" style="fill: #1f77b4; stroke: #1f77b4"/>
     <use xlink:href="#mc55bd743d5" x="229.971027" y="49.570634" style="fill: #1f77b4; stroke: #1f77b4"/>
     <use xlink:href="#mc55bd743d5" x="231.602457" y="49.989097" style="fill: #1f77b4; stroke: #1f77b4"/>
     <use xlink:href="#mc55bd743d5" x="233.233887" y="49.321667" style="fill: #1f77b4; stroke: #1f77b4"/>
     <use xlink:href="#mc55bd743d5" x="234.865317" y="49.092611" style="fill: #1f77b4; stroke: #1f77b4"/>
     <use xlink:href="#mc55bd743d5" x="236.496747" y="48.838291" style="fill: #1f77b4; stroke: #1f77b4"/>
     <use xlink:href="#mc55bd743d5" x="238.128177" y="50.537744" style="fill: #1f77b4; stroke: #1f77b4"/>
     <use xlink:href="#mc55bd743d5" x="239.759607" y="48.84537" style="fill: #1f77b4; stroke: #1f77b4"/>
     <use xlink:href="#mc55bd743d5" x="241.391037" y="49.593027" style="fill: #1f77b4; stroke: #1f77b4"/>
     <use xlink:href="#mc55bd743d5" x="243.022466" y="48.401858" style="fill: #1f77b4; stroke: #1f77b4"/>
     <use xlink:href="#mc55bd743d5" x="244.653896" y="49.347576" style="fill: #1f77b4; stroke: #1f77b4"/>
     <use xlink:href="#mc55bd743d5" x="246.285326" y="49.660243" style="fill: #1f77b4; stroke: #1f77b4"/>
     <use xlink:href="#mc55bd743d5" x="247.916756" y="50.032086" style="fill: #1f77b4; stroke: #1f77b4"/>
     <use xlink:href="#mc55bd743d5" x="249.548186" y="49.276331" style="fill: #1f77b4; stroke: #1f77b4"/>
     <use xlink:href="#mc55bd743d5" x="251.179616" y="51.553302" style="fill: #1f77b4; stroke: #1f77b4"/>
     <use xlink:href="#mc55bd743d5" x="252.811046" y="47.258182" style="fill: #1f77b4; stroke: #1f77b4"/>
     <use xlink:href="#mc55bd743d5" x="254.442476" y="49.29141" style="fill: #1f77b4; stroke: #1f77b4"/>
     <use xlink:href="#mc55bd743d5" x="256.073905" y="49.334973" style="fill: #1f77b4; stroke: #1f77b4"/>
     <use xlink:href="#mc55bd743d5" x="257.705335" y="50.211304" style="fill: #1f77b4; stroke: #1f77b4"/>
     <use xlink:href="#mc55bd743d5" x="259.336765" y="49.347896" style="fill: #1f77b4; stroke: #1f77b4"/>
     <use xlink:href="#mc55bd743d5" x="260.968195" y="50.400065" style="fill: #1f77b4; stroke: #1f77b4"/>
     <use xlink:href="#mc55bd743d5" x="262.599625" y="48.649161" style="fill: #1f77b4; stroke: #1f77b4"/>
     <use xlink:href="#mc55bd743d5" x="264.231055" y="48.790361" style="fill: #1f77b4; stroke: #1f77b4"/>
     <use xlink:href="#mc55bd743d5" x="265.862485" y="48.326646" style="fill: #1f77b4; stroke: #1f77b4"/>
     <use xlink:href="#mc55bd743d5" x="267.493915" y="48.475788" style="fill: #1f77b4; stroke: #1f77b4"/>
     <use xlink:href="#mc55bd743d5" x="269.125344" y="48.277313" style="fill: #1f77b4; stroke: #1f77b4"/>
     <use xlink:href="#mc55bd743d5" x="270.756774" y="47.988626" style="fill: #1f77b4; stroke: #1f77b4"/>
     <use xlink:href="#mc55bd743d5" x="272.388204" y="49.337444" style="fill: #1f77b4; stroke: #1f77b4"/>
     <use xlink:href="#mc55bd743d5" x="274.019634" y="48.634118" style="fill: #1f77b4; stroke: #1f77b4"/>
     <use xlink:href="#mc55bd743d5" x="275.651064" y="49.436145" style="fill: #1f77b4; stroke: #1f77b4"/>
     <use xlink:href="#mc55bd743d5" x="277.282494" y="50.982439" style="fill: #1f77b4; stroke: #1f77b4"/>
     <use xlink:href="#mc55bd743d5" x="278.913924" y="49.046307" style="fill: #1f77b4; stroke: #1f77b4"/>
     <use xlink:href="#mc55bd743d5" x="280.545354" y="48.270873" style="fill: #1f77b4; stroke: #1f77b4"/>
     <use xlink:href="#mc55bd743d5" x="282.176783" y="49.928618" style="fill: #1f77b4; stroke: #1f77b4"/>
     <use xlink:href="#mc55bd743d5" x="283.808213" y="49.105703" style="fill: #1f77b4; stroke: #1f77b4"/>
     <use xlink:href="#mc55bd743d5" x="285.439643" y="48.94553" style="fill: #1f77b4; stroke: #1f77b4"/>
     <use xlink:href="#mc55bd743d5" x="287.071073" y="49.481074" style="fill: #1f77b4; stroke: #1f77b4"/>
     <use xlink:href="#mc55bd743d5" x="288.702503" y="49.679821" style="fill: #1f77b4; stroke: #1f77b4"/>
     <use xlink:href="#mc55bd743d5" x="290.333933" y="48.392767" style="fill: #1f77b4; stroke: #1f77b4"/>
     <use xlink:href="#mc55bd743d5" x="291.965363" y="49.819188" style="fill: #1f77b4; stroke: #1f77b4"/>
     <use xlink:href="#mc55bd743d5" x="293.596793" y="49.173832" style="fill: #1f77b4; stroke: #1f77b4"/>
     <use xlink:href="#mc55bd743d5" x="295.228223" y="50.145659" style="fill: #1f77b4; stroke: #1f77b4"/>
     <use xlink:href="#mc55bd743d5" x="296.859652" y="49.572425" style="fill: #1f77b4; stroke: #1f77b4"/>
     <use xlink:href="#mc55bd743d5" x="298.491082" y="49.805761" style="fill: #1f77b4; stroke: #1f77b4"/>
     <use xlink:href="#mc55bd743d5" x="300.122512" y="49.621914" style="fill: #1f77b4; stroke: #1f77b4"/>
     <use xlink:href="#mc55bd743d5" x="301.753942" y="48.781325" style="fill: #1f77b4; stroke: #1f77b4"/>
     <use xlink:href="#mc55bd743d5" x="303.385372" y="49.852834" style="fill: #1f77b4; stroke: #1f77b4"/>
     <use xlink:href="#mc55bd743d5" x="305.016802" y="49.375953" style="fill: #1f77b4; stroke: #1f77b4"/>
     <use xlink:href="#mc55bd743d5" x="306.648232" y="48.778429" style="fill: #1f77b4; stroke: #1f77b4"/>
     <use xlink:href="#mc55bd743d5" x="308.279662" y="47.926495" style="fill: #1f77b4; stroke: #1f77b4"/>
     <use xlink:href="#mc55bd743d5" x="309.911091" y="49.105119" style="fill: #1f77b4; stroke: #1f77b4"/>
     <use xlink:href="#mc55bd743d5" x="311.542521" y="47.665258" style="fill: #1f77b4; stroke: #1f77b4"/>
     <use xlink:href="#mc55bd743d5" x="313.173951" y="48.879852" style="fill: #1f77b4; stroke: #1f77b4"/>
     <use xlink:href="#mc55bd743d5" x="314.805381" y="48.226264" style="fill: #1f77b4; stroke: #1f77b4"/>
     <use xlink:href="#mc55bd743d5" x="316.436811" y="50.047512" style="fill: #1f77b4; stroke: #1f77b4"/>
     <use xlink:href="#mc55bd743d5" x="318.068241" y="49.347193" style="fill: #1f77b4; stroke: #1f77b4"/>
     <use xlink:href="#mc55bd743d5" x="319.699671" y="48.356721" style="fill: #1f77b4; stroke: #1f77b4"/>
     <use xlink:href="#mc55bd743d5" x="321.331101" y="49.100138" style="fill: #1f77b4; stroke: #1f77b4"/>
     <use xlink:href="#mc55bd743d5" x="322.96253" y="49.417952" style="fill: #1f77b4; stroke: #1f77b4"/>
     <use xlink:href="#mc55bd743d5" x="324.59396" y="48.589848" style="fill: #1f77b4; stroke: #1f77b4"/>
     <use xlink:href="#mc55bd743d5" x="326.22539" y="50.11996" style="fill: #1f77b4; stroke: #1f77b4"/>
     <use xlink:href="#mc55bd743d5" x="327.85682" y="51.082773" style="fill: #1f77b4; stroke: #1f77b4"/>
     <use xlink:href="#mc55bd743d5" x="329.48825" y="49.589424" style="fill: #1f77b4; stroke: #1f77b4"/>
     <use xlink:href="#mc55bd743d5" x="331.11968" y="49.289796" style="fill: #1f77b4; stroke: #1f77b4"/>
     <use xlink:href="#mc55bd743d5" x="332.75111" y="49.703709" style="fill: #1f77b4; stroke: #1f77b4"/>
     <use xlink:href="#mc55bd743d5" x="334.38254" y="50.240142" style="fill: #1f77b4; stroke: #1f77b4"/>
     <use xlink:href="#mc55bd743d5" x="336.013969" y="49.831696" style="fill: #1f77b4; stroke: #1f77b4"/>
     <use xlink:href="#mc55bd743d5" x="337.645399" y="51.05441" style="fill: #1f77b4; stroke: #1f77b4"/>
     <use xlink:href="#mc55bd743d5" x="339.276829" y="50.164602" style="fill: #1f77b4; stroke: #1f77b4"/>
     <use xlink:href="#mc55bd743d5" x="340.908259" y="51.149644" style="fill: #1f77b4; stroke: #1f77b4"/>
     <use xlink:href="#mc55bd743d5" x="342.539689" y="50.155464" style="fill: #1f77b4; stroke: #1f77b4"/>
     <use xlink:href="#mc55bd743d5" x="344.171119" y="49.351074" style="fill: #1f77b4; stroke: #1f77b4"/>
     <use xlink:href="#mc55bd743d5" x="345.802549" y="50.718635" style="fill: #1f77b4; stroke: #1f77b4"/>
     <use xlink:href="#mc55bd743d5" x="347.433979" y="50.465025" style="fill: #1f77b4; stroke: #1f77b4"/>
     <use xlink:href="#mc55bd743d5" x="349.065408" y="51.582337" style="fill: #1f77b4; stroke: #1f77b4"/>
     <use xlink:href="#mc55bd743d5" x="350.696838" y="49.540151" style="fill: #1f77b4; stroke: #1f77b4"/>
     <use xlink:href="#mc55bd743d5" x="352.328268" y="51.865603" style="fill: #1f77b4; stroke: #1f77b4"/>
     <use xlink:href="#mc55bd743d5" x="353.959698" y="49.609102" style="fill: #1f77b4; stroke: #1f77b4"/>
     <use xlink:href="#mc55bd743d5" x="355.591128" y="51.191033" style="fill: #1f77b4; stroke: #1f77b4"/>
     <use xlink:href="#mc55bd743d5" x="357.222558" y="50.177601" style="fill: #1f77b4; stroke: #1f77b4"/>
     <use xlink:href="#mc55bd743d5" x="358.853988" y="51.809669" style="fill: #1f77b4; stroke: #1f77b4"/>
     <use xlink:href="#mc55bd743d5" x="360.485418" y="50.313854" style="fill: #1f77b4; stroke: #1f77b4"/>
     <use xlink:href="#mc55bd743d5" x="362.116847" y="52.233349" style="fill: #1f77b4; stroke: #1f77b4"/>
     <use xlink:href="#mc55bd743d5" x="363.748277" y="50.392664" style="fill: #1f77b4; stroke: #1f77b4"/>
     <use xlink:href="#mc55bd743d5" x="365.379707" y="50.041111" style="fill: #1f77b4; stroke: #1f77b4"/>
     <use xlink:href="#mc55bd743d5" x="367.011137" y="51.853259" style="fill: #1f77b4; stroke: #1f77b4"/>
     <use xlink:href="#mc55bd743d5" x="368.642567" y="51.667225" style="fill: #1f77b4; stroke: #1f77b4"/>
     <use xlink:href="#mc55bd743d5" x="370.273997" y="51.317095" style="fill: #1f77b4; stroke: #1f77b4"/>
     <use xlink:href="#mc55bd743d5" x="371.905427" y="49.884832" style="fill: #1f77b4; stroke: #1f77b4"/>
     <use xlink:href="#mc55bd743d5" x="373.536857" y="49.989997" style="fill: #1f77b4; stroke: #1f77b4"/>
     <use xlink:href="#mc55bd743d5" x="375.168286" y="49.785727" style="fill: #1f77b4; stroke: #1f77b4"/>
     <use xlink:href="#mc55bd743d5" x="376.799716" y="51.001478" style="fill: #1f77b4; stroke: #1f77b4"/>
     <use xlink:href="#mc55bd743d5" x="378.431146" y="51.18136" style="fill: #1f77b4; stroke: #1f77b4"/>
     <use xlink:href="#mc55bd743d5" x="380.062576" y="51.457676" style="fill: #1f77b4; stroke: #1f77b4"/>
     <use xlink:href="#mc55bd743d5" x="381.694006" y="51.270867" style="fill: #1f77b4; stroke: #1f77b4"/>
     <use xlink:href="#mc55bd743d5" x="383.325436" y="51.977624" style="fill: #1f77b4; stroke: #1f77b4"/>
     <use xlink:href="#mc55bd743d5" x="384.956866" y="51.756176" style="fill: #1f77b4; stroke: #1f77b4"/>
     <use xlink:href="#mc55bd743d5" x="386.588296" y="52.045271" style="fill: #1f77b4; stroke: #1f77b4"/>
     <use xlink:href="#mc55bd743d5" x="388.219725" y="51.918086" style="fill: #1f77b4; stroke: #1f77b4"/>
     <use xlink:href="#mc55bd743d5" x="389.851155" y="52.475435" style="fill: #1f77b4; stroke: #1f77b4"/>
     <use xlink:href="#mc55bd743d5" x="391.482585" y="52.264156" style="fill: #1f77b4; stroke: #1f77b4"/>
    </g>
   </g>
   <g id="line2d_15">
    <path d="M 66.82804 63.451867 
L 103.550726 61.341143 
L 142.22329 58.890916 
L 231.917638 53.088109 
L 249.141553 52.28375 
L 263.440652 51.834957 
L 275.464895 51.672309 
L 286.189219 51.740774 
L 295.938605 52.01674 
L 305.038032 52.490865 
L 313.487499 53.14543 
L 321.611987 53.992206 
L 329.411496 55.024196 
L 336.886025 56.228802 
L 344.360554 57.654945 
L 351.835083 59.309034 
L 359.309612 61.192606 
L 366.784141 63.301493 
L 374.58365 65.73087 
L 383.033118 68.6037 
L 391.482585 71.692845 
L 391.482585 71.692845 
" clip-path="url(#pb139e09cf3)" style="fill: none; stroke: #d62728; stroke-width: 1.5; stroke-linecap: square"/>
   </g>
   <g id="patch_3">
    <path d="M 50.595313 162.72 
L 50.595313 41.76 
" style="fill: none; stroke: #000000; stroke-width: 0.8; stroke-linejoin: miter; stroke-linecap: square"/>
   </g>
   <g id="patch_4">
    <path d="M 407.715312 162.72 
L 407.715312 41.76 
" style="fill: none; stroke: #000000; stroke-width: 0.8; stroke-linejoin: miter; stroke-linecap: square"/>
   </g>
   <g id="patch_5">
    <path d="M 50.595313 162.72 
L 407.715313 162.72 
" style="fill: none; stroke: #000000; stroke-width: 0.8; stroke-linejoin: miter; stroke-linecap: square"/>
   </g>
   <g id="patch_6">
    <path d="M 50.595313 41.76 
L 407.715313 41.76 
" style="fill: none; stroke: #000000; stroke-width: 0.8; stroke-linejoin: miter; stroke-linecap: square"/>
   </g>
   <g id="text_6">
    <g id="patch_7">
     <path d="M 425.571312 72.683938 
L 585.679125 72.683938 
Q 589.679125 72.683938 589.679125 68.683938 
L 589.679125 47.808 
Q 589.679125 43.808 585.679125 43.808 
L 425.571312 43.808 
Q 421.571312 43.808 421.571312 47.808 
L 421.571312 68.683938 
Q 421.571312 72.683938 425.571312 72.683938 
z
" style="fill: #ffffff; opacity: 0.5; stroke: #000000; stroke-linejoin: miter"/>
    </g>
    <!-- Warning: fit failed. lmfit was not -->
    <g transform="translate(425.571312 55.406437) scale(0.1 -0.1)">
     <defs>
      <path id="DejaVuSans-57" d="M 213 4666 
L 850 4666 
L 1831 722 
L 2809 4666 
L 3519 4666 
L 4500 722 
L 5478 4666 
L 6119 4666 
L 4947 0 
L 4153 0 
L 3169 4050 
L 2175 0 
L 1381 0 
L 213 4666 
z
" transform="scale(0.015625)"/>
      <path id="DejaVuSans-61" d="M 2194 1759 
Q 1497 1759 1228 1600 
Q 959 1441 959 1056 
Q 959 750 1161 570 
Q 1363 391 1709 391 
Q 2188 391 2477 730 
Q 2766 1069 2766 1631 
L 2766 1759 
L 2194 1759 
z
M 3341 1997 
L 3341 0 
L 2766 0 
L 2766 531 
Q 2569 213 2275 61 
Q 1981 -91 1556 -91 
Q 1019 -91 701 211 
Q 384 513 384 1019 
Q 384 1609 779 1909 
Q 1175 2209 1959 2209 
L 2766 2209 
L 2766 2266 
Q 2766 2663 2505 2880 
Q 2244 3097 1772 3097 
Q 1472 3097 1187 3025 
Q 903 2953 641 2809 
L 641 3341 
Q 956 3463 1253 3523 
Q 1550 3584 1831 3584 
Q 2591 3584 2966 3190 
Q 3341 2797 3341 1997 
z
" transform="scale(0.015625)"/>
      <path id="DejaVuSans-72" d="M 2631 2963 
Q 2534 3019 2420 3045 
Q 2306 3072 2169 3072 
Q 1681 3072 1420 2755 
Q 1159 2438 1159 1844 
L 1159 0 
L 581 0 
L 581 3500 
L 1159 3500 
L 1159 2956 
Q 1341 3275 1631 3429 
Q 1922 3584 2338 3584 
Q 2397 3584 2469 3576 
Q 2541 3569 2628 3553 
L 2631 2963 
z
" transform="scale(0.015625)"/>
      <path id="DejaVuSans-6e" d="M 3513 2113 
L 3513 0 
L 2938 0 
L 2938 2094 
Q 2938 2591 2744 2837 
Q 2550 3084 2163 3084 
Q 1697 3084 1428 2787 
Q 1159 2491 1159 1978 
L 1159 0 
L 581 0 
L 581 3500 
L 1159 3500 
L 1159 2956 
Q 1366 3272 1645 3428 
Q 1925 3584 2291 3584 
Q 2894 3584 3203 3211 
Q 3513 2838 3513 2113 
z
" transform="scale(0.015625)"/>
      <path id="DejaVuSans-69" d="M 603 3500 
L 1178 3500 
L 1178 0 
L 603 0 
L 603 3500 
z
M 603 4863 
L 1178 4863 
L 1178 4134 
L 603 4134 
L 603 4863 
z
" transform="scale(0.015625)"/>
      <path id="DejaVuSans-67" d="M 2906 1791 
Q 2906 2416 2648 2759 
Q 2391 3103 1925 3103 
Q 1463 3103 1205 2759 
Q 947 2416 947 1791 
Q 947 1169 1205 825 
Q 1463 481 1925 481 
Q 2391 481 2648 825 
Q 2906 1169 2906 1791 
z
M 3481 434 
Q 3481 -459 3084 -895 
Q 2688 -1331 1869 -1331 
Q 1566 -1331 1297 -1286 
Q 1028 -1241 775 -1147 
L 775 -588 
Q 1028 -725 1275 -790 
Q 1522 -856 1778 -856 
Q 2344 -856 2625 -561 
Q 2906 -266 2906 331 
L 2906 616 
Q 2728 306 2450 153 
Q 2172 0 1784 0 
Q 1141 0 747 490 
Q 353 981 353 1791 
Q 353 2603 747 3093 
Q 1141 3584 1784 3584 
Q 2172 3584 2450 3431 
Q 2728 3278 2906 2969 
L 2906 3500 
L 3481 3500 
L 3481 434 
z
" transform="scale(0.015625)"/>
      <path id="DejaVuSans-3a" d="M 750 794 
L 1409 794 
L 1409 0 
L 750 0 
L 750 794 
z
M 750 3309 
L 1409 3309 
L 1409 2516 
L 750 2516 
L 750 3309 
z
" transform="scale(0.015625)"/>
      <path id="DejaVuSans-66" d="M 2375 4863 
L 2375 4384 
L 1825 4384 
Q 1516 4384 1395 4259 
Q 1275 4134 1275 3809 
L 1275 3500 
L 2222 3500 
L 2222 3053 
L 1275 3053 
L 1275 0 
L 697 0 
L 697 3053 
L 147 3053 
L 147 3500 
L 697 3500 
L 697 3744 
Q 697 4328 969 4595 
Q 1241 4863 1831 4863 
L 2375 4863 
z
" transform="scale(0.015625)"/>
      <path id="DejaVuSans-74" d="M 1172 4494 
L 1172 3500 
L 2356 3500 
L 2356 3053 
L 1172 3053 
L 1172 1153 
Q 1172 725 1289 603 
Q 1406 481 1766 481 
L 2356 481 
L 2356 0 
L 1766 0 
Q 1100 0 847 248 
Q 594 497 594 1153 
L 594 3053 
L 172 3053 
L 172 3500 
L 594 3500 
L 594 4494 
L 1172 4494 
z
" transform="scale(0.015625)"/>
      <path id="DejaVuSans-6c" d="M 603 4863 
L 1178 4863 
L 1178 0 
L 603 0 
L 603 4863 
z
" transform="scale(0.015625)"/>
      <path id="DejaVuSans-65" d="M 3597 1894 
L 3597 1613 
L 953 1613 
Q 991 1019 1311 708 
Q 1631 397 2203 397 
Q 2534 397 2845 478 
Q 3156 559 3463 722 
L 3463 178 
Q 3153 47 2828 -22 
Q 2503 -91 2169 -91 
Q 1331 -91 842 396 
Q 353 884 353 1716 
Q 353 2575 817 3079 
Q 1281 3584 2069 3584 
Q 2775 3584 3186 3129 
Q 3597 2675 3597 1894 
z
M 3022 2063 
Q 3016 2534 2758 2815 
Q 2500 3097 2075 3097 
Q 1594 3097 1305 2825 
Q 1016 2553 972 2059 
L 3022 2063 
z
" transform="scale(0.015625)"/>
      <path id="DejaVuSans-64" d="M 2906 2969 
L 2906 4863 
L 3481 4863 
L 3481 0 
L 2906 0 
L 2906 525 
Q 2725 213 2448 61 
Q 2172 -91 1784 -91 
Q 1150 -91 751 415 
Q 353 922 353 1747 
Q 353 2572 751 3078 
Q 1150 3584 1784 3584 
Q 2172 3584 2448 3432 
Q 2725 3281 2906 2969 
z
M 947 1747 
Q 947 1113 1208 752 
Q 1469 391 1925 391 
Q 2381 391 2643 752 
Q 2906 1113 2906 1747 
Q 2906 2381 2643 2742 
Q 2381 3103 1925 3103 
Q 1469 3103 1208 2742 
Q 947 2381 947 1747 
z
" transform="scale(0.015625)"/>
      <path id="DejaVuSans-2e" d="M 684 794 
L 1344 794 
L 1344 0 
L 684 0 
L 684 794 
z
" transform="scale(0.015625)"/>
      <path id="DejaVuSans-77" d="M 269 3500 
L 844 3500 
L 1563 769 
L 2278 3500 
L 2956 3500 
L 3675 769 
L 4391 3500 
L 4966 3500 
L 4050 0 
L 3372 0 
L 2619 2869 
L 1863 0 
L 1184 0 
L 269 3500 
z
" transform="scale(0.015625)"/>
      <path id="DejaVuSans-73" d="M 2834 3397 
L 2834 2853 
Q 2591 2978 2328 3040 
Q 2066 3103 1784 3103 
Q 1356 3103 1142 2972 
Q 928 2841 928 2578 
Q 928 2378 1081 2264 
Q 1234 2150 1697 2047 
L 1894 2003 
Q 2506 1872 2764 1633 
Q 3022 1394 3022 966 
Q 3022 478 2636 193 
Q 2250 -91 1575 -91 
Q 1294 -91 989 -36 
Q 684 19 347 128 
L 347 722 
Q 666 556 975 473 
Q 1284 391 1588 391 
Q 1994 391 2212 530 
Q 2431 669 2431 922 
Q 2431 1156 2273 1281 
Q 2116 1406 1581 1522 
L 1381 1569 
Q 847 1681 609 1914 
Q 372 2147 372 2553 
Q 372 3047 722 3315 
Q 1072 3584 1716 3584 
Q 2034 3584 2315 3537 
Q 2597 3491 2834 3397 
z
" transform="scale(0.015625)"/>
      <path id="DejaVuSans-6f" d="M 1959 3097 
Q 1497 3097 1228 2736 
Q 959 2375 959 1747 
Q 959 1119 1226 758 
Q 1494 397 1959 397 
Q 2419 397 2687 759 
Q 2956 1122 2956 1747 
Q 2956 2369 2687 2733 
Q 2419 3097 1959 3097 
z
M 1959 3584 
Q 2709 3584 3137 3096 
Q 3566 2609 3566 1747 
Q 3566 888 3137 398 
Q 2709 -91 1959 -91 
Q 1206 -91 779 398 
Q 353 888 353 1747 
Q 353 2609 779 3096 
Q 1206 3584 1959 3584 
z
" transform="scale(0.015625)"/>
     </defs>
     <use xlink:href="#DejaVuSans-57"/>
     <use xlink:href="#DejaVuSans-61" x="92.501953"/>
     <use xlink:href="#DejaVuSans-72" x="153.78125"/>
     <use xlink:href="#DejaVuSans-6e" x="193.144531"/>
     <use xlink:href="#DejaVuSans-69" x="256.523438"/>
     <use xlink:href="#DejaVuSans-6e" x="284.306641"/>
     <use xlink:href="#DejaVuSans-67" x="347.685547"/>
     <use xlink:href="#DejaVuSans-3a" x="411.162109"/>
     <use xlink:href="#DejaVuSans-20" x="444.853516"/>
     <use xlink:href="#DejaVuSans-66" x="476.640625"/>
     <use xlink:href="#DejaVuSans-69" x="511.845703"/>
     <use xlink:href="#DejaVuSans-74" x="539.628906"/>
     <use xlink:href="#DejaVuSans-20" x="578.837891"/>
     <use xlink:href="#DejaVuSans-66" x="610.625"/>
     <use xlink:href="#DejaVuSans-61" x="645.830078"/>
     <use xlink:href="#DejaVuSans-69" x="707.109375"/>
     <use xlink:href="#DejaVuSans-6c" x="734.892578"/>
     <use xlink:href="#DejaVuSans-65" x="762.675781"/>
     <use xlink:href="#DejaVuSans-64" x="824.199219"/>
     <use xlink:href="#DejaVuSans-2e" x="887.675781"/>
     <use xlink:href="#DejaVuSans-20" x="919.462891"/>
     <use xlink:href="#DejaVuSans-6c" x="951.25"/>
     <use xlink:href="#DejaVuSans-6d" x="979.033203"/>
     <use xlink:href="#DejaVuSans-66" x="1076.445312"/>
     <use xlink:href="#DejaVuSans-69" x="1111.650391"/>
     <use xlink:href="#DejaVuSans-74" x="1139.433594"/>
     <use xlink:href="#DejaVuSans-20" x="1178.642578"/>
     <use xlink:href="#DejaVuSans-77" x="1210.429688"/>
     <use xlink:href="#DejaVuSans-61" x="1292.216797"/>
     <use xlink:href="#DejaVuSans-73" x="1353.496094"/>
     <use xlink:href="#DejaVuSans-20" x="1405.595703"/>
     <use xlink:href="#DejaVuSans-6e" x="1437.382812"/>
     <use xlink:href="#DejaVuSans-6f" x="1500.761719"/>
     <use xlink:href="#DejaVuSans-74" x="1561.943359"/>
    </g>
    <!-- able to fit the data. -->
    <g transform="translate(425.571312 66.60425) scale(0.1 -0.1)">
     <defs>
      <path id="DejaVuSans-62" d="M 3116 1747 
Q 3116 2381 2855 2742 
Q 2594 3103 2138 3103 
Q 1681 3103 1420 2742 
Q 1159 2381 1159 1747 
Q 1159 1113 1420 752 
Q 1681 391 2138 391 
Q 2594 391 2855 752 
Q 3116 1113 3116 1747 
z
M 1159 2969 
Q 1341 3281 1617 3432 
Q 1894 3584 2278 3584 
Q 2916 3584 3314 3078 
Q 3713 2572 3713 1747 
Q 3713 922 3314 415 
Q 2916 -91 2278 -91 
Q 1894 -91 1617 61 
Q 1341 213 1159 525 
L 1159 0 
L 581 0 
L 581 4863 
L 1159 4863 
L 1159 2969 
z
" transform="scale(0.015625)"/>
      <path id="DejaVuSans-68" d="M 3513 2113 
L 3513 0 
L 2938 0 
L 2938 2094 
Q 2938 2591 2744 2837 
Q 2550 3084 2163 3084 
Q 1697 3084 1428 2787 
Q 1159 2491 1159 1978 
L 1159 0 
L 581 0 
L 581 4863 
L 1159 4863 
L 1159 2956 
Q 1366 3272 1645 3428 
Q 1925 3584 2291 3584 
Q 2894 3584 3203 3211 
Q 3513 2838 3513 2113 
z
" transform="scale(0.015625)"/>
     </defs>
     <use xlink:href="#DejaVuSans-61"/>
     <use xlink:href="#DejaVuSans-62" x="61.279297"/>
     <use xlink:href="#DejaVuSans-6c" x="124.755859"/>
     <use xlink:href="#DejaVuSans-65" x="152.539062"/>
     <use xlink:href="#DejaVuSans-20" x="214.0625"/>
     <use xlink:href="#DejaVuSans-74" x="245.849609"/>
     <use xlink:href="#DejaVuSans-6f" x="285.058594"/>
     <use xlink:href="#DejaVuSans-20" x="346.240234"/>
     <use xlink:href="#DejaVuSans-66" x="378.027344"/>
     <use xlink:href="#DejaVuSans-69" x="413.232422"/>
     <use xlink:href="#DejaVuSans-74" x="441.015625"/>
     <use xlink:href="#DejaVuSans-20" x="480.224609"/>
     <use xlink:href="#DejaVuSans-74" x="512.011719"/>
     <use xlink:href="#DejaVuSans-68" x="551.220703"/>
     <use xlink:href="#DejaVuSans-65" x="614.599609"/>
     <use xlink:href="#DejaVuSans-20" x="676.123047"/>
     <use xlink:href="#DejaVuSans-64" x="707.910156"/>
     <use xlink:href="#DejaVuSans-61" x="771.386719"/>
     <use xlink:href="#DejaVuSans-74" x="832.666016"/>
     <use xlink:href="#DejaVuSans-61" x="871.875"/>
     <use xlink:href="#DejaVuSans-2e" x="933.154297"/>
    </g>
   </g>
  </g>
  <g id="axes_2">
   <g id="patch_8">
    <path d="M 50.595313 307.872 
L 407.715312 307.872 
L 407.715312 186.912 
L 50.595313 186.912 
z
" style="fill: #ffffff"/>
   </g>
   <g id="matplotlib.axis_3">
    <g id="xtick_10">
     <g id="line2d_16">
      <g>
       <use xlink:href="#mb8addadda2" x="50.595313" y="307.872" style="stroke: #000000; stroke-width: 0.8"/>
      </g>
     </g>
     <g id="text_7">
      <!-- 7.5 -->
      <g transform="translate(42.64375 322.470438) scale(0.1 -0.1)">
       <defs>
        <path id="DejaVuSans-37" d="M 525 4666 
L 3525 4666 
L 3525 4397 
L 1831 0 
L 1172 0 
L 2766 4134 
L 525 4134 
L 525 4666 
z
" transform="scale(0.015625)"/>
        <path id="DejaVuSans-35" d="M 691 4666 
L 3169 4666 
L 3169 4134 
L 1269 4134 
L 1269 2991 
Q 1406 3038 1543 3061 
Q 1681 3084 1819 3084 
Q 2600 3084 3056 2656 
Q 3513 2228 3513 1497 
Q 3513 744 3044 326 
Q 2575 -91 1722 -91 
Q 1428 -91 1123 -41 
Q 819 9 494 109 
L 494 744 
Q 775 591 1075 516 
Q 1375 441 1709 441 
Q 2250 441 2565 725 
Q 2881 1009 2881 1497 
Q 2881 1984 2565 2268 
Q 2250 2553 1709 2553 
Q 1456 2553 1204 2497 
Q 953 2441 691 2322 
L 691 4666 
z
" transform="scale(0.015625)"/>
       </defs>
       <use xlink:href="#DejaVuSans-37"/>
       <use xlink:href="#DejaVuSans-2e" x="63.623047"/>
       <use xlink:href="#DejaVuSans-35" x="95.410156"/>
      </g>
     </g>
    </g>
    <g id="xtick_11">
     <g id="line2d_17">
      <g>
       <use xlink:href="#mb8addadda2" x="91.177131" y="307.872" style="stroke: #000000; stroke-width: 0.8"/>
      </g>
     </g>
     <g id="text_8">
      <!-- 10 -->
      <g transform="translate(84.814631 322.470438) scale(0.1 -0.1)">
       <use xlink:href="#DejaVuSans-31"/>
       <use xlink:href="#DejaVuSans-30" x="63.623047"/>
      </g>
     </g>
    </g>
    <g id="xtick_12">
     <g id="line2d_18">
      <g>
       <use xlink:href="#mb8addadda2" x="131.758949" y="307.872" style="stroke: #000000; stroke-width: 0.8"/>
      </g>
     </g>
     <g id="text_9">
      <!-- 12.5 -->
      <g transform="translate(120.626136 322.470438) scale(0.1 -0.1)">
       <use xlink:href="#DejaVuSans-31"/>
       <use xlink:href="#DejaVuSans-32" x="63.623047"/>
       <use xlink:href="#DejaVuSans-2e" x="127.246094"/>
       <use xlink:href="#DejaVuSans-35" x="159.033203"/>
      </g>
     </g>
    </g>
    <g id="xtick_13">
     <g id="line2d_19">
      <g>
       <use xlink:href="#mb8addadda2" x="172.340767" y="307.872" style="stroke: #000000; stroke-width: 0.8"/>
      </g>
     </g>
     <g id="text_10">
      <!-- 15 -->
      <g transform="translate(165.978267 322.470438) scale(0.1 -0.1)">
       <use xlink:href="#DejaVuSans-31"/>
       <use xlink:href="#DejaVuSans-35" x="63.623047"/>
      </g>
     </g>
    </g>
    <g id="xtick_14">
     <g id="line2d_20">
      <g>
       <use xlink:href="#mb8addadda2" x="212.922585" y="307.872" style="stroke: #000000; stroke-width: 0.8"/>
      </g>
     </g>
     <g id="text_11">
      <!-- 17.5 -->
      <g transform="translate(201.789773 322.470438) scale(0.1 -0.1)">
       <use xlink:href="#DejaVuSans-31"/>
       <use xlink:href="#DejaVuSans-37" x="63.623047"/>
       <use xlink:href="#DejaVuSans-2e" x="127.246094"/>
       <use xlink:href="#DejaVuSans-35" x="159.033203"/>
      </g>
     </g>
    </g>
    <g id="xtick_15">
     <g id="line2d_21">
      <g>
       <use xlink:href="#mb8addadda2" x="253.504403" y="307.872" style="stroke: #000000; stroke-width: 0.8"/>
      </g>
     </g>
     <g id="text_12">
      <!-- 20 -->
      <g transform="translate(247.141903 322.470438) scale(0.1 -0.1)">
       <use xlink:href="#DejaVuSans-32"/>
       <use xlink:href="#DejaVuSans-30" x="63.623047"/>
      </g>
     </g>
    </g>
    <g id="xtick_16">
     <g id="line2d_22">
      <g>
       <use xlink:href="#mb8addadda2" x="294.086222" y="307.872" style="stroke: #000000; stroke-width: 0.8"/>
      </g>
     </g>
     <g id="text_13">
      <!-- 22.5 -->
      <g transform="translate(282.953409 322.470438) scale(0.1 -0.1)">
       <use xlink:href="#DejaVuSans-32"/>
       <use xlink:href="#DejaVuSans-32" x="63.623047"/>
       <use xlink:href="#DejaVuSans-2e" x="127.246094"/>
       <use xlink:href="#DejaVuSans-35" x="159.033203"/>
      </g>
     </g>
    </g>
    <g id="xtick_17">
     <g id="line2d_23">
      <g>
       <use xlink:href="#mb8addadda2" x="334.66804" y="307.872" style="stroke: #000000; stroke-width: 0.8"/>
      </g>
     </g>
     <g id="text_14">
      <!-- 25 -->
      <g transform="translate(328.30554 322.470438) scale(0.1 -0.1)">
       <use xlink:href="#DejaVuSans-32"/>
       <use xlink:href="#DejaVuSans-35" x="63.623047"/>
      </g>
     </g>
    </g>
    <g id="xtick_18">
     <g id="line2d_24">
      <g>
       <use xlink:href="#mb8addadda2" x="375.249858" y="307.872" style="stroke: #000000; stroke-width: 0.8"/>
      </g>
     </g>
     <g id="text_15">
      <!-- 27.5 -->
      <g transform="translate(364.117045 322.470438) scale(0.1 -0.1)">
       <use xlink:href="#DejaVuSans-32"/>
       <use xlink:href="#DejaVuSans-37" x="63.623047"/>
       <use xlink:href="#DejaVuSans-2e" x="127.246094"/>
       <use xlink:href="#DejaVuSans-35" x="159.033203"/>
      </g>
     </g>
    </g>
    <g id="text_16">
     <!-- Frequency [MHz] -->
     <g transform="translate(187.136562 336.148562) scale(0.1 -0.1)">
      <defs>
       <path id="DejaVuSans-46" d="M 628 4666 
L 3309 4666 
L 3309 4134 
L 1259 4134 
L 1259 2759 
L 3109 2759 
L 3109 2228 
L 1259 2228 
L 1259 0 
L 628 0 
L 628 4666 
z
" transform="scale(0.015625)"/>
       <path id="DejaVuSans-71" d="M 947 1747 
Q 947 1113 1208 752 
Q 1469 391 1925 391 
Q 2381 391 2643 752 
Q 2906 1113 2906 1747 
Q 2906 2381 2643 2742 
Q 2381 3103 1925 3103 
Q 1469 3103 1208 2742 
Q 947 2381 947 1747 
z
M 2906 525 
Q 2725 213 2448 61 
Q 2172 -91 1784 -91 
Q 1150 -91 751 415 
Q 353 922 353 1747 
Q 353 2572 751 3078 
Q 1150 3584 1784 3584 
Q 2172 3584 2448 3432 
Q 2725 3281 2906 2969 
L 2906 3500 
L 3481 3500 
L 3481 -1331 
L 2906 -1331 
L 2906 525 
z
" transform="scale(0.015625)"/>
       <path id="DejaVuSans-75" d="M 544 1381 
L 544 3500 
L 1119 3500 
L 1119 1403 
Q 1119 906 1312 657 
Q 1506 409 1894 409 
Q 2359 409 2629 706 
Q 2900 1003 2900 1516 
L 2900 3500 
L 3475 3500 
L 3475 0 
L 2900 0 
L 2900 538 
Q 2691 219 2414 64 
Q 2138 -91 1772 -91 
Q 1169 -91 856 284 
Q 544 659 544 1381 
z
M 1991 3584 
L 1991 3584 
z
" transform="scale(0.015625)"/>
       <path id="DejaVuSans-63" d="M 3122 3366 
L 3122 2828 
Q 2878 2963 2633 3030 
Q 2388 3097 2138 3097 
Q 1578 3097 1268 2742 
Q 959 2388 959 1747 
Q 959 1106 1268 751 
Q 1578 397 2138 397 
Q 2388 397 2633 464 
Q 2878 531 3122 666 
L 3122 134 
Q 2881 22 2623 -34 
Q 2366 -91 2075 -91 
Q 1284 -91 818 406 
Q 353 903 353 1747 
Q 353 2603 823 3093 
Q 1294 3584 2113 3584 
Q 2378 3584 2631 3529 
Q 2884 3475 3122 3366 
z
" transform="scale(0.015625)"/>
       <path id="DejaVuSans-79" d="M 2059 -325 
Q 1816 -950 1584 -1140 
Q 1353 -1331 966 -1331 
L 506 -1331 
L 506 -850 
L 844 -850 
Q 1081 -850 1212 -737 
Q 1344 -625 1503 -206 
L 1606 56 
L 191 3500 
L 800 3500 
L 1894 763 
L 2988 3500 
L 3597 3500 
L 2059 -325 
z
" transform="scale(0.015625)"/>
       <path id="DejaVuSans-4d" d="M 628 4666 
L 1569 4666 
L 2759 1491 
L 3956 4666 
L 4897 4666 
L 4897 0 
L 4281 0 
L 4281 4097 
L 3078 897 
L 2444 897 
L 1241 4097 
L 1241 0 
L 628 0 
L 628 4666 
z
" transform="scale(0.015625)"/>
       <path id="DejaVuSans-48" d="M 628 4666 
L 1259 4666 
L 1259 2753 
L 3553 2753 
L 3553 4666 
L 4184 4666 
L 4184 0 
L 3553 0 
L 3553 2222 
L 1259 2222 
L 1259 0 
L 628 0 
L 628 4666 
z
" transform="scale(0.015625)"/>
       <path id="DejaVuSans-7a" d="M 353 3500 
L 3084 3500 
L 3084 2975 
L 922 459 
L 3084 459 
L 3084 0 
L 275 0 
L 275 525 
L 2438 3041 
L 353 3041 
L 353 3500 
z
" transform="scale(0.015625)"/>
      </defs>
      <use xlink:href="#DejaVuSans-46"/>
      <use xlink:href="#DejaVuSans-72" x="50.269531"/>
      <use xlink:href="#DejaVuSans-65" x="89.132812"/>
      <use xlink:href="#DejaVuSans-71" x="150.65625"/>
      <use xlink:href="#DejaVuSans-75" x="214.132812"/>
      <use xlink:href="#DejaVuSans-65" x="277.511719"/>
      <use xlink:href="#DejaVuSans-6e" x="339.035156"/>
      <use xlink:href="#DejaVuSans-63" x="402.414062"/>
      <use xlink:href="#DejaVuSans-79" x="457.394531"/>
      <use xlink:href="#DejaVuSans-20" x="516.574219"/>
      <use xlink:href="#DejaVuSans-5b" x="548.361328"/>
      <use xlink:href="#DejaVuSans-4d" x="587.375"/>
      <use xlink:href="#DejaVuSans-48" x="673.654297"/>
      <use xlink:href="#DejaVuSans-7a" x="748.849609"/>
      <use xlink:href="#DejaVuSans-5d" x="801.339844"/>
     </g>
    </g>
    <g id="text_17">
     <!-- +6 GHz -->
     <g transform="translate(369.277812 335.148562) scale(0.1 -0.1)">
      <defs>
       <path id="DejaVuSans-2b" d="M 2944 4013 
L 2944 2272 
L 4684 2272 
L 4684 1741 
L 2944 1741 
L 2944 0 
L 2419 0 
L 2419 1741 
L 678 1741 
L 678 2272 
L 2419 2272 
L 2419 4013 
L 2944 4013 
z
" transform="scale(0.015625)"/>
       <path id="DejaVuSans-47" d="M 3809 666 
L 3809 1919 
L 2778 1919 
L 2778 2438 
L 4434 2438 
L 4434 434 
Q 4069 175 3628 42 
Q 3188 -91 2688 -91 
Q 1594 -91 976 548 
Q 359 1188 359 2328 
Q 359 3472 976 4111 
Q 1594 4750 2688 4750 
Q 3144 4750 3555 4637 
Q 3966 4525 4313 4306 
L 4313 3634 
Q 3963 3931 3569 4081 
Q 3175 4231 2741 4231 
Q 1884 4231 1454 3753 
Q 1025 3275 1025 2328 
Q 1025 1384 1454 906 
Q 1884 428 2741 428 
Q 3075 428 3337 486 
Q 3600 544 3809 666 
z
" transform="scale(0.015625)"/>
      </defs>
      <use xlink:href="#DejaVuSans-2b"/>
      <use xlink:href="#DejaVuSans-36" x="83.789062"/>
      <use xlink:href="#DejaVuSans-20" x="147.412109"/>
      <use xlink:href="#DejaVuSans-47" x="179.199219"/>
      <use xlink:href="#DejaVuSans-48" x="256.689453"/>
      <use xlink:href="#DejaVuSans-7a" x="331.884766"/>
     </g>
    </g>
   </g>
   <g id="matplotlib.axis_4">
    <g id="ytick_5">
     <g id="line2d_25">
      <g>
       <use xlink:href="#md2d8e1720c" x="50.595313" y="277.931541" style="stroke: #000000; stroke-width: 0.8"/>
      </g>
     </g>
     <g id="text_18">
      <!-- -100 -->
      <g transform="translate(20.9 281.730759) scale(0.1 -0.1)">
       <defs>
        <path id="DejaVuSans-2d" d="M 313 2009 
L 1997 2009 
L 1997 1497 
L 313 1497 
L 313 2009 
z
" transform="scale(0.015625)"/>
       </defs>
       <use xlink:href="#DejaVuSans-2d"/>
       <use xlink:href="#DejaVuSans-31" x="36.083984"/>
       <use xlink:href="#DejaVuSans-30" x="99.707031"/>
       <use xlink:href="#DejaVuSans-30" x="163.330078"/>
      </g>
     </g>
    </g>
    <g id="ytick_6">
     <g id="line2d_26">
      <g>
       <use xlink:href="#md2d8e1720c" x="50.595313" y="247.377133" style="stroke: #000000; stroke-width: 0.8"/>
      </g>
     </g>
     <g id="text_19">
      <!-- 0 -->
      <g transform="translate(37.232813 251.176352) scale(0.1 -0.1)">
       <use xlink:href="#DejaVuSans-30"/>
      </g>
     </g>
    </g>
    <g id="ytick_7">
     <g id="line2d_27">
      <g>
       <use xlink:href="#md2d8e1720c" x="50.595313" y="216.822726" style="stroke: #000000; stroke-width: 0.8"/>
      </g>
     </g>
     <g id="text_20">
      <!-- 100 -->
      <g transform="translate(24.507813 220.621945) scale(0.1 -0.1)">
       <use xlink:href="#DejaVuSans-31"/>
       <use xlink:href="#DejaVuSans-30" x="63.623047"/>
       <use xlink:href="#DejaVuSans-30" x="127.246094"/>
      </g>
     </g>
    </g>
    <g id="text_21">
     <!-- $\angle S_{21}$ [deg] -->
     <g transform="translate(14.8 274.592) rotate(-90) scale(0.1 -0.1)">
      <defs>
       <path id="DejaVuSans-2220" d="M 5028 631 
L 5028 0 
L 547 0 
L 3525 4666 
L 4281 4666 
L 1716 631 
L 5028 631 
z
" transform="scale(0.015625)"/>
      </defs>
      <use xlink:href="#DejaVuSans-2220" transform="translate(0 0.015625)"/>
      <use xlink:href="#DejaVuSans-Oblique-53" transform="translate(89.648438 0.015625)"/>
      <use xlink:href="#DejaVuSans-32" transform="translate(153.125 -16.390625) scale(0.7)"/>
      <use xlink:href="#DejaVuSans-31" transform="translate(197.661133 -16.390625) scale(0.7)"/>
      <use xlink:href="#DejaVuSans-20" transform="translate(244.931641 0.015625)"/>
      <use xlink:href="#DejaVuSans-5b" transform="translate(276.71875 0.015625)"/>
      <use xlink:href="#DejaVuSans-64" transform="translate(315.732422 0.015625)"/>
      <use xlink:href="#DejaVuSans-65" transform="translate(379.208984 0.015625)"/>
      <use xlink:href="#DejaVuSans-67" transform="translate(440.732422 0.015625)"/>
      <use xlink:href="#DejaVuSans-5d" transform="translate(504.208984 0.015625)"/>
     </g>
    </g>
   </g>
   <g id="line2d_28">
    <path d="M 66.82804 277.110423 
L 68.45947 277.545858 
L 70.0909 277.140204 
L 71.722329 277.566211 
L 74.985189 279.049266 
L 76.616619 279.46417 
L 78.248049 280.238575 
L 84.773768 282.576831 
L 86.405198 283.257138 
L 88.036628 283.68316 
L 89.668058 283.833513 
L 92.930918 284.677292 
L 94.562348 285.305331 
L 99.456637 286.187493 
L 101.088067 286.429737 
L 104.350927 287.207379 
L 107.613787 287.723997 
L 112.508076 288.591475 
L 119.033796 289.667268 
L 122.296656 290.274699 
L 125.559515 290.29858 
L 127.190945 290.723868 
L 128.822375 290.797808 
L 130.453805 291.011371 
L 132.085235 291.345583 
L 135.348095 291.767386 
L 136.979524 291.990555 
L 138.610954 292.398348 
L 141.873814 292.502163 
L 145.136674 292.917917 
L 146.768104 293.247529 
L 151.662393 293.675412 
L 156.556683 294.44793 
L 158.188113 294.330279 
L 159.819543 294.599308 
L 161.450973 294.556337 
L 163.082402 294.889636 
L 164.713832 294.920792 
L 174.502412 296.124792 
L 176.133842 296.075623 
L 177.765271 296.372253 
L 179.396701 296.51456 
L 181.028131 296.52054 
L 184.290991 297.11054 
L 185.922421 297.161067 
L 190.81671 297.687691 
L 197.34243 297.988507 
L 198.97386 298.40905 
L 202.23672 298.744532 
L 203.868149 298.606515 
L 205.499579 299.090933 
L 208.762439 299.140653 
L 210.393869 299.33769 
L 212.025299 299.666576 
L 218.551018 300.364259 
L 220.182448 300.340184 
L 223.445308 300.719251 
L 225.076738 300.703017 
L 226.708168 301.065326 
L 228.339598 301.140754 
L 229.971027 301.423886 
L 233.233887 301.461503 
L 234.865317 301.745885 
L 238.128177 301.930914 
L 241.391037 302.225121 
L 243.022466 192.501654 
L 244.653896 192.72028 
L 246.285326 192.805348 
L 247.916756 192.743831 
L 252.811046 193.364178 
L 254.442476 193.37313 
L 260.968195 193.977595 
L 262.599625 193.904203 
L 264.231055 194.36648 
L 269.125344 194.711281 
L 270.756774 194.613641 
L 272.388204 194.890903 
L 278.913924 195.359921 
L 283.808213 195.979565 
L 285.439643 195.922031 
L 287.071073 196.296237 
L 290.333933 196.3174 
L 291.965363 196.615819 
L 293.596793 196.577027 
L 295.228223 196.945392 
L 298.491082 197.082437 
L 306.648232 197.899207 
L 308.279662 197.728648 
L 309.911091 198.013521 
L 311.542521 197.978244 
L 314.805381 198.515402 
L 316.436811 198.407004 
L 319.699671 198.941872 
L 321.331101 198.950216 
L 322.96253 199.145258 
L 324.59396 199.141272 
L 331.11968 199.717043 
L 336.013969 199.94608 
L 344.171119 200.772441 
L 349.065408 200.906092 
L 350.696838 201.267664 
L 352.328268 201.45869 
L 353.959698 201.462065 
L 355.591128 201.67823 
L 363.748277 202.204772 
L 365.379707 202.452342 
L 367.011137 202.481 
L 371.905427 203.054718 
L 373.536857 203.000075 
L 376.799716 203.432003 
L 378.431146 203.354093 
L 381.694006 203.580872 
L 383.325436 203.851331 
L 384.956866 203.939228 
L 386.588296 203.841952 
L 388.219725 204.014228 
L 389.851155 204.307852 
L 391.482585 204.485607 
L 391.482585 204.485607 
" clip-path="url(#p5108008987)" style="fill: none; stroke: #1f77b4; stroke-width: 1.5; stroke-linecap: square"/>
    <g clip-path="url(#p5108008987)">
     <use xlink:href="#mc55bd743d5" x="66.82804" y="277.110423" style="fill: #1f77b4; stroke: #1f77b4"/>
     <use xlink:href="#mc55bd743d5" x="68.45947" y="277.545858" style="fill: #1f77b4; stroke: #1f77b4"/>
     <use xlink:href="#mc55bd743d5" x="70.0909" y="277.140204" style="fill: #1f77b4; stroke: #1f77b4"/>
     <use xlink:href="#mc55bd743d5" x="71.722329" y="277.566211" style="fill: #1f77b4; stroke: #1f77b4"/>
     <use xlink:href="#mc55bd743d5" x="73.353759" y="278.249959" style="fill: #1f77b4; stroke: #1f77b4"/>
     <use xlink:href="#mc55bd743d5" x="74.985189" y="279.049266" style="fill: #1f77b4; stroke: #1f77b4"/>
     <use xlink:href="#mc55bd743d5" x="76.616619" y="279.46417" style="fill: #1f77b4; stroke: #1f77b4"/>
     <use xlink:href="#mc55bd743d5" x="78.248049" y="280.238575" style="fill: #1f77b4; stroke: #1f77b4"/>
     <use xlink:href="#mc55bd743d5" x="79.879479" y="280.807855" style="fill: #1f77b4; stroke: #1f77b4"/>
     <use xlink:href="#mc55bd743d5" x="81.510909" y="281.401422" style="fill: #1f77b4; stroke: #1f77b4"/>
     <use xlink:href="#mc55bd743d5" x="83.142339" y="281.91129" style="fill: #1f77b4; stroke: #1f77b4"/>
     <use xlink:href="#mc55bd743d5" x="84.773768" y="282.576831" style="fill: #1f77b4; stroke: #1f77b4"/>
     <use xlink:href="#mc55bd743d5" x="86.405198" y="283.257138" style="fill: #1f77b4; stroke: #1f77b4"/>
     <use xlink:href="#mc55bd743d5" x="88.036628" y="283.68316" style="fill: #1f77b4; stroke: #1f77b4"/>
     <use xlink:href="#mc55bd743d5" x="89.668058" y="283.833513" style="fill: #1f77b4; stroke: #1f77b4"/>
     <use xlink:href="#mc55bd743d5" x="91.299488" y="284.253589" style="fill: #1f77b4; stroke: #1f77b4"/>
     <use xlink:href="#mc55bd743d5" x="92.930918" y="284.677292" style="fill: #1f77b4; stroke: #1f77b4"/>
     <use xlink:href="#mc55bd743d5" x="94.562348" y="285.305331" style="fill: #1f77b4; stroke: #1f77b4"/>
     <use xlink:href="#mc55bd743d5" x="96.193778" y="285.630484" style="fill: #1f77b4; stroke: #1f77b4"/>
     <use xlink:href="#mc55bd743d5" x="97.825207" y="285.896686" style="fill: #1f77b4; stroke: #1f77b4"/>
     <use xlink:href="#mc55bd743d5" x="99.456637" y="286.187493" style="fill: #1f77b4; stroke: #1f77b4"/>
     <use xlink:href="#mc55bd743d5" x="101.088067" y="286.429737" style="fill: #1f77b4; stroke: #1f77b4"/>
     <use xlink:href="#mc55bd743d5" x="102.719497" y="286.845179" style="fill: #1f77b4; stroke: #1f77b4"/>
     <use xlink:href="#mc55bd743d5" x="104.350927" y="287.207379" style="fill: #1f77b4; stroke: #1f77b4"/>
     <use xlink:href="#mc55bd743d5" x="105.982357" y="287.432087" style="fill: #1f77b4; stroke: #1f77b4"/>
     <use xlink:href="#mc55bd743d5" x="107.613787" y="287.723997" style="fill: #1f77b4; stroke: #1f77b4"/>
     <use xlink:href="#mc55bd743d5" x="109.245217" y="288.045773" style="fill: #1f77b4; stroke: #1f77b4"/>
     <use xlink:href="#mc55bd743d5" x="110.876646" y="288.480454" style="fill: #1f77b4; stroke: #1f77b4"/>
     <use xlink:href="#mc55bd743d5" x="112.508076" y="288.591475" style="fill: #1f77b4; stroke: #1f77b4"/>
     <use xlink:href="#mc55bd743d5" x="114.139506" y="288.886892" style="fill: #1f77b4; stroke: #1f77b4"/>
     <use xlink:href="#mc55bd743d5" x="115.770936" y="289.141988" style="fill: #1f77b4; stroke: #1f77b4"/>
     <use xlink:href="#mc55bd743d5" x="117.402366" y="289.454794" style="fill: #1f77b4; stroke: #1f77b4"/>
     <use xlink:href="#mc55bd743d5" x="119.033796" y="289.667268" style="fill: #1f77b4; stroke: #1f77b4"/>
     <use xlink:href="#mc55bd743d5" x="120.665226" y="289.924944" style="fill: #1f77b4; stroke: #1f77b4"/>
     <use xlink:href="#mc55bd743d5" x="122.296656" y="290.274699" style="fill: #1f77b4; stroke: #1f77b4"/>
     <use xlink:href="#mc55bd743d5" x="123.928085" y="290.280195" style="fill: #1f77b4; stroke: #1f77b4"/>
     <use xlink:href="#mc55bd743d5" x="125.559515" y="290.29858" style="fill: #1f77b4; stroke: #1f77b4"/>
     <use xlink:href="#mc55bd743d5" x="127.190945" y="290.723868" style="fill: #1f77b4; stroke: #1f77b4"/>
     <use xlink:href="#mc55bd743d5" x="128.822375" y="290.797808" style="fill: #1f77b4; stroke: #1f77b4"/>
     <use xlink:href="#mc55bd743d5" x="130.453805" y="291.011371" style="fill: #1f77b4; stroke: #1f77b4"/>
     <use xlink:href="#mc55bd743d5" x="132.085235" y="291.345583" style="fill: #1f77b4; stroke: #1f77b4"/>
     <use xlink:href="#mc55bd743d5" x="133.716665" y="291.512878" style="fill: #1f77b4; stroke: #1f77b4"/>
     <use xlink:href="#mc55bd743d5" x="135.348095" y="291.767386" style="fill: #1f77b4; stroke: #1f77b4"/>
     <use xlink:href="#mc55bd743d5" x="136.979524" y="291.990555" style="fill: #1f77b4; stroke: #1f77b4"/>
     <use xlink:href="#mc55bd743d5" x="138.610954" y="292.398348" style="fill: #1f77b4; stroke: #1f77b4"/>
     <use xlink:href="#mc55bd743d5" x="140.242384" y="292.433563" style="fill: #1f77b4; stroke: #1f77b4"/>
     <use xlink:href="#mc55bd743d5" x="141.873814" y="292.502163" style="fill: #1f77b4; stroke: #1f77b4"/>
     <use xlink:href="#mc55bd743d5" x="143.505244" y="292.684104" style="fill: #1f77b4; stroke: #1f77b4"/>
     <use xlink:href="#mc55bd743d5" x="145.136674" y="292.917917" style="fill: #1f77b4; stroke: #1f77b4"/>
     <use xlink:href="#mc55bd743d5" x="146.768104" y="293.247529" style="fill: #1f77b4; stroke: #1f77b4"/>
     <use xlink:href="#mc55bd743d5" x="148.399534" y="293.380697" style="fill: #1f77b4; stroke: #1f77b4"/>
     <use xlink:href="#mc55bd743d5" x="150.030963" y="293.4788" style="fill: #1f77b4; stroke: #1f77b4"/>
     <use xlink:href="#mc55bd743d5" x="151.662393" y="293.675412" style="fill: #1f77b4; stroke: #1f77b4"/>
     <use xlink:href="#mc55bd743d5" x="153.293823" y="293.899263" style="fill: #1f77b4; stroke: #1f77b4"/>
     <use xlink:href="#mc55bd743d5" x="154.925253" y="294.045237" style="fill: #1f77b4; stroke: #1f77b4"/>
     <use xlink:href="#mc55bd743d5" x="156.556683" y="294.44793" style="fill: #1f77b4; stroke: #1f77b4"/>
     <use xlink:href="#mc55bd743d5" x="158.188113" y="294.330279" style="fill: #1f77b4; stroke: #1f77b4"/>
     <use xlink:href="#mc55bd743d5" x="159.819543" y="294.599308" style="fill: #1f77b4; stroke: #1f77b4"/>
     <use xlink:href="#mc55bd743d5" x="161.450973" y="294.556337" style="fill: #1f77b4; stroke: #1f77b4"/>
     <use xlink:href="#mc55bd743d5" x="163.082402" y="294.889636" style="fill: #1f77b4; stroke: #1f77b4"/>
     <use xlink:href="#mc55bd743d5" x="164.713832" y="294.920792" style="fill: #1f77b4; stroke: #1f77b4"/>
     <use xlink:href="#mc55bd743d5" x="166.345262" y="295.126282" style="fill: #1f77b4; stroke: #1f77b4"/>
     <use xlink:href="#mc55bd743d5" x="167.976692" y="295.393817" style="fill: #1f77b4; stroke: #1f77b4"/>
     <use xlink:href="#mc55bd743d5" x="169.608122" y="295.594175" style="fill: #1f77b4; stroke: #1f77b4"/>
     <use xlink:href="#mc55bd743d5" x="171.239552" y="295.717149" style="fill: #1f77b4; stroke: #1f77b4"/>
     <use xlink:href="#mc55bd743d5" x="172.870982" y="296.000947" style="fill: #1f77b4; stroke: #1f77b4"/>
     <use xlink:href="#mc55bd743d5" x="174.502412" y="296.124792" style="fill: #1f77b4; stroke: #1f77b4"/>
     <use xlink:href="#mc55bd743d5" x="176.133842" y="296.075623" style="fill: #1f77b4; stroke: #1f77b4"/>
     <use xlink:href="#mc55bd743d5" x="177.765271" y="296.372253" style="fill: #1f77b4; stroke: #1f77b4"/>
     <use xlink:href="#mc55bd743d5" x="179.396701" y="296.51456" style="fill: #1f77b4; stroke: #1f77b4"/>
     <use xlink:href="#mc55bd743d5" x="181.028131" y="296.52054" style="fill: #1f77b4; stroke: #1f77b4"/>
     <use xlink:href="#mc55bd743d5" x="182.659561" y="296.866535" style="fill: #1f77b4; stroke: #1f77b4"/>
     <use xlink:href="#mc55bd743d5" x="184.290991" y="297.11054" style="fill: #1f77b4; stroke: #1f77b4"/>
     <use xlink:href="#mc55bd743d5" x="185.922421" y="297.161067" style="fill: #1f77b4; stroke: #1f77b4"/>
     <use xlink:href="#mc55bd743d5" x="187.553851" y="297.372873" style="fill: #1f77b4; stroke: #1f77b4"/>
     <use xlink:href="#mc55bd743d5" x="189.185281" y="297.580407" style="fill: #1f77b4; stroke: #1f77b4"/>
     <use xlink:href="#mc55bd743d5" x="190.81671" y="297.687691" style="fill: #1f77b4; stroke: #1f77b4"/>
     <use xlink:href="#mc55bd743d5" x="192.44814" y="297.768982" style="fill: #1f77b4; stroke: #1f77b4"/>
     <use xlink:href="#mc55bd743d5" x="194.07957" y="297.820032" style="fill: #1f77b4; stroke: #1f77b4"/>
     <use xlink:href="#mc55bd743d5" x="195.711" y="298.00211" style="fill: #1f77b4; stroke: #1f77b4"/>
     <use xlink:href="#mc55bd743d5" x="197.34243" y="297.988507" style="fill: #1f77b4; stroke: #1f77b4"/>
     <use xlink:href="#mc55bd743d5" x="198.97386" y="298.40905" style="fill: #1f77b4; stroke: #1f77b4"/>
     <use xlink:href="#mc55bd743d5" x="200.60529" y="298.617676" style="fill: #1f77b4; stroke: #1f77b4"/>
     <use xlink:href="#mc55bd743d5" x="202.23672" y="298.744532" style="fill: #1f77b4; stroke: #1f77b4"/>
     <use xlink:href="#mc55bd743d5" x="203.868149" y="298.606515" style="fill: #1f77b4; stroke: #1f77b4"/>
     <use xlink:href="#mc55bd743d5" x="205.499579" y="299.090933" style="fill: #1f77b4; stroke: #1f77b4"/>
     <use xlink:href="#mc55bd743d5" x="207.131009" y="299.083496" style="fill: #1f77b4; stroke: #1f77b4"/>
     <use xlink:href="#mc55bd743d5" x="208.762439" y="299.140653" style="fill: #1f77b4; stroke: #1f77b4"/>
     <use xlink:href="#mc55bd743d5" x="210.393869" y="299.33769" style="fill: #1f77b4; stroke: #1f77b4"/>
     <use xlink:href="#mc55bd743d5" x="212.025299" y="299.666576" style="fill: #1f77b4; stroke: #1f77b4"/>
     <use xlink:href="#mc55bd743d5" x="213.656729" y="299.844854" style="fill: #1f77b4; stroke: #1f77b4"/>
     <use xlink:href="#mc55bd743d5" x="215.288159" y="299.967505" style="fill: #1f77b4; stroke: #1f77b4"/>
     <use xlink:href="#mc55bd743d5" x="216.919588" y="300.113305" style="fill: #1f77b4; stroke: #1f77b4"/>
     <use xlink:href="#mc55bd743d5" x="218.551018" y="300.364259" style="fill: #1f77b4; stroke: #1f77b4"/>
     <use xlink:href="#mc55bd743d5" x="220.182448" y="300.340184" style="fill: #1f77b4; stroke: #1f77b4"/>
     <use xlink:href="#mc55bd743d5" x="221.813878" y="300.577678" style="fill: #1f77b4; stroke: #1f77b4"/>
     <use xlink:href="#mc55bd743d5" x="223.445308" y="300.719251" style="fill: #1f77b4; stroke: #1f77b4"/>
     <use xlink:href="#mc55bd743d5" x="225.076738" y="300.703017" style="fill: #1f77b4; stroke: #1f77b4"/>
     <use xlink:href="#mc55bd743d5" x="226.708168" y="301.065326" style="fill: #1f77b4; stroke: #1f77b4"/>
     <use xlink:href="#mc55bd743d5" x="228.339598" y="301.140754" style="fill: #1f77b4; stroke: #1f77b4"/>
     <use xlink:href="#mc55bd743d5" x="229.971027" y="301.423886" style="fill: #1f77b4; stroke: #1f77b4"/>
     <use xlink:href="#mc55bd743d5" x="231.602457" y="301.471838" style="fill: #1f77b4; stroke: #1f77b4"/>
     <use xlink:href="#mc55bd743d5" x="233.233887" y="301.461503" style="fill: #1f77b4; stroke: #1f77b4"/>
     <use xlink:href="#mc55bd743d5" x="234.865317" y="301.745885" style="fill: #1f77b4; stroke: #1f77b4"/>
     <use xlink:href="#mc55bd743d5" x="236.496747" y="301.8053" style="fill: #1f77b4; stroke: #1f77b4"/>
     <use xlink:href="#mc55bd743d5" x="238.128177" y="301.930914" style="fill: #1f77b4; stroke: #1f77b4"/>
     <use xlink:href="#mc55bd743d5" x="239.759607" y="302.104623" style="fill: #1f77b4; stroke: #1f77b4"/>
     <use xlink:href="#mc55bd743d5" x="241.391037" y="302.225121" style="fill: #1f77b4; stroke: #1f77b4"/>
     <use xlink:href="#mc55bd743d5" x="243.022466" y="192.501654" style="fill: #1f77b4; stroke: #1f77b4"/>
     <use xlink:href="#mc55bd743d5" x="244.653896" y="192.72028" style="fill: #1f77b4; stroke: #1f77b4"/>
     <use xlink:href="#mc55bd743d5" x="246.285326" y="192.805348" style="fill: #1f77b4; stroke: #1f77b4"/>
     <use xlink:href="#mc55bd743d5" x="247.916756" y="192.743831" style="fill: #1f77b4; stroke: #1f77b4"/>
     <use xlink:href="#mc55bd743d5" x="249.548186" y="192.930823" style="fill: #1f77b4; stroke: #1f77b4"/>
     <use xlink:href="#mc55bd743d5" x="251.179616" y="193.123175" style="fill: #1f77b4; stroke: #1f77b4"/>
     <use xlink:href="#mc55bd743d5" x="252.811046" y="193.364178" style="fill: #1f77b4; stroke: #1f77b4"/>
     <use xlink:href="#mc55bd743d5" x="254.442476" y="193.37313" style="fill: #1f77b4; stroke: #1f77b4"/>
     <use xlink:href="#mc55bd743d5" x="256.073905" y="193.545943" style="fill: #1f77b4; stroke: #1f77b4"/>
     <use xlink:href="#mc55bd743d5" x="257.705335" y="193.666378" style="fill: #1f77b4; stroke: #1f77b4"/>
     <use xlink:href="#mc55bd743d5" x="259.336765" y="193.897822" style="fill: #1f77b4; stroke: #1f77b4"/>
     <use xlink:href="#mc55bd743d5" x="260.968195" y="193.977595" style="fill: #1f77b4; stroke: #1f77b4"/>
     <use xlink:href="#mc55bd743d5" x="262.599625" y="193.904203" style="fill: #1f77b4; stroke: #1f77b4"/>
     <use xlink:href="#mc55bd743d5" x="264.231055" y="194.36648" style="fill: #1f77b4; stroke: #1f77b4"/>
     <use xlink:href="#mc55bd743d5" x="265.862485" y="194.471226" style="fill: #1f77b4; stroke: #1f77b4"/>
     <use xlink:href="#mc55bd743d5" x="267.493915" y="194.567156" style="fill: #1f77b4; stroke: #1f77b4"/>
     <use xlink:href="#mc55bd743d5" x="269.125344" y="194.711281" style="fill: #1f77b4; stroke: #1f77b4"/>
     <use xlink:href="#mc55bd743d5" x="270.756774" y="194.613641" style="fill: #1f77b4; stroke: #1f77b4"/>
     <use xlink:href="#mc55bd743d5" x="272.388204" y="194.890903" style="fill: #1f77b4; stroke: #1f77b4"/>
     <use xlink:href="#mc55bd743d5" x="274.019634" y="194.998264" style="fill: #1f77b4; stroke: #1f77b4"/>
     <use xlink:href="#mc55bd743d5" x="275.651064" y="195.104833" style="fill: #1f77b4; stroke: #1f77b4"/>
     <use xlink:href="#mc55bd743d5" x="277.282494" y="195.315913" style="fill: #1f77b4; stroke: #1f77b4"/>
     <use xlink:href="#mc55bd743d5" x="278.913924" y="195.359921" style="fill: #1f77b4; stroke: #1f77b4"/>
     <use xlink:href="#mc55bd743d5" x="280.545354" y="195.558263" style="fill: #1f77b4; stroke: #1f77b4"/>
     <use xlink:href="#mc55bd743d5" x="282.176783" y="195.694192" style="fill: #1f77b4; stroke: #1f77b4"/>
     <use xlink:href="#mc55bd743d5" x="283.808213" y="195.979565" style="fill: #1f77b4; stroke: #1f77b4"/>
     <use xlink:href="#mc55bd743d5" x="285.439643" y="195.922031" style="fill: #1f77b4; stroke: #1f77b4"/>
     <use xlink:href="#mc55bd743d5" x="287.071073" y="196.296237" style="fill: #1f77b4; stroke: #1f77b4"/>
     <use xlink:href="#mc55bd743d5" x="288.702503" y="196.293667" style="fill: #1f77b4; stroke: #1f77b4"/>
     <use xlink:href="#mc55bd743d5" x="290.333933" y="196.3174" style="fill: #1f77b4; stroke: #1f77b4"/>
     <use xlink:href="#mc55bd743d5" x="291.965363" y="196.615819" style="fill: #1f77b4; stroke: #1f77b4"/>
     <use xlink:href="#mc55bd743d5" x="293.596793" y="196.577027" style="fill: #1f77b4; stroke: #1f77b4"/>
     <use xlink:href="#mc55bd743d5" x="295.228223" y="196.945392" style="fill: #1f77b4; stroke: #1f77b4"/>
     <use xlink:href="#mc55bd743d5" x="296.859652" y="196.964609" style="fill: #1f77b4; stroke: #1f77b4"/>
     <use xlink:href="#mc55bd743d5" x="298.491082" y="197.082437" style="fill: #1f77b4; stroke: #1f77b4"/>
     <use xlink:href="#mc55bd743d5" x="300.122512" y="197.254606" style="fill: #1f77b4; stroke: #1f77b4"/>
     <use xlink:href="#mc55bd743d5" x="301.753942" y="197.45502" style="fill: #1f77b4; stroke: #1f77b4"/>
     <use xlink:href="#mc55bd743d5" x="303.385372" y="197.532391" style="fill: #1f77b4; stroke: #1f77b4"/>
     <use xlink:href="#mc55bd743d5" x="305.016802" y="197.711388" style="fill: #1f77b4; stroke: #1f77b4"/>
     <use xlink:href="#mc55bd743d5" x="306.648232" y="197.899207" style="fill: #1f77b4; stroke: #1f77b4"/>
     <use xlink:href="#mc55bd743d5" x="308.279662" y="197.728648" style="fill: #1f77b4; stroke: #1f77b4"/>
     <use xlink:href="#mc55bd743d5" x="309.911091" y="198.013521" style="fill: #1f77b4; stroke: #1f77b4"/>
     <use xlink:href="#mc55bd743d5" x="311.542521" y="197.978244" style="fill: #1f77b4; stroke: #1f77b4"/>
     <use xlink:href="#mc55bd743d5" x="313.173951" y="198.260493" style="fill: #1f77b4; stroke: #1f77b4"/>
     <use xlink:href="#mc55bd743d5" x="314.805381" y="198.515402" style="fill: #1f77b4; stroke: #1f77b4"/>
     <use xlink:href="#mc55bd743d5" x="316.436811" y="198.407004" style="fill: #1f77b4; stroke: #1f77b4"/>
     <use xlink:href="#mc55bd743d5" x="318.068241" y="198.661403" style="fill: #1f77b4; stroke: #1f77b4"/>
     <use xlink:href="#mc55bd743d5" x="319.699671" y="198.941872" style="fill: #1f77b4; stroke: #1f77b4"/>
     <use xlink:href="#mc55bd743d5" x="321.331101" y="198.950216" style="fill: #1f77b4; stroke: #1f77b4"/>
     <use xlink:href="#mc55bd743d5" x="322.96253" y="199.145258" style="fill: #1f77b4; stroke: #1f77b4"/>
     <use xlink:href="#mc55bd743d5" x="324.59396" y="199.141272" style="fill: #1f77b4; stroke: #1f77b4"/>
     <use xlink:href="#mc55bd743d5" x="326.22539" y="199.312365" style="fill: #1f77b4; stroke: #1f77b4"/>
     <use xlink:href="#mc55bd743d5" x="327.85682" y="199.423198" style="fill: #1f77b4; stroke: #1f77b4"/>
     <use xlink:href="#mc55bd743d5" x="329.48825" y="199.599292" style="fill: #1f77b4; stroke: #1f77b4"/>
     <use xlink:href="#mc55bd743d5" x="331.11968" y="199.717043" style="fill: #1f77b4; stroke: #1f77b4"/>
     <use xlink:href="#mc55bd743d5" x="332.75111" y="199.779892" style="fill: #1f77b4; stroke: #1f77b4"/>
     <use xlink:href="#mc55bd743d5" x="334.38254" y="199.845307" style="fill: #1f77b4; stroke: #1f77b4"/>
     <use xlink:href="#mc55bd743d5" x="336.013969" y="199.94608" style="fill: #1f77b4; stroke: #1f77b4"/>
     <use xlink:href="#mc55bd743d5" x="337.645399" y="200.123378" style="fill: #1f77b4; stroke: #1f77b4"/>
     <use xlink:href="#mc55bd743d5" x="339.276829" y="200.369717" style="fill: #1f77b4; stroke: #1f77b4"/>
     <use xlink:href="#mc55bd743d5" x="340.908259" y="200.550099" style="fill: #1f77b4; stroke: #1f77b4"/>
     <use xlink:href="#mc55bd743d5" x="342.539689" y="200.555655" style="fill: #1f77b4; stroke: #1f77b4"/>
     <use xlink:href="#mc55bd743d5" x="344.171119" y="200.772441" style="fill: #1f77b4; stroke: #1f77b4"/>
     <use xlink:href="#mc55bd743d5" x="345.802549" y="200.815097" style="fill: #1f77b4; stroke: #1f77b4"/>
     <use xlink:href="#mc55bd743d5" x="347.433979" y="200.803242" style="fill: #1f77b4; stroke: #1f77b4"/>
     <use xlink:href="#mc55bd743d5" x="349.065408" y="200.906092" style="fill: #1f77b4; stroke: #1f77b4"/>
     <use xlink:href="#mc55bd743d5" x="350.696838" y="201.267664" style="fill: #1f77b4; stroke: #1f77b4"/>
     <use xlink:href="#mc55bd743d5" x="352.328268" y="201.45869" style="fill: #1f77b4; stroke: #1f77b4"/>
     <use xlink:href="#mc55bd743d5" x="353.959698" y="201.462065" style="fill: #1f77b4; stroke: #1f77b4"/>
     <use xlink:href="#mc55bd743d5" x="355.591128" y="201.67823" style="fill: #1f77b4; stroke: #1f77b4"/>
     <use xlink:href="#mc55bd743d5" x="357.222558" y="201.781737" style="fill: #1f77b4; stroke: #1f77b4"/>
     <use xlink:href="#mc55bd743d5" x="358.853988" y="201.863379" style="fill: #1f77b4; stroke: #1f77b4"/>
     <use xlink:href="#mc55bd743d5" x="360.485418" y="201.974914" style="fill: #1f77b4; stroke: #1f77b4"/>
     <use xlink:href="#mc55bd743d5" x="362.116847" y="202.007086" style="fill: #1f77b4; stroke: #1f77b4"/>
     <use xlink:href="#mc55bd743d5" x="363.748277" y="202.204772" style="fill: #1f77b4; stroke: #1f77b4"/>
     <use xlink:href="#mc55bd743d5" x="365.379707" y="202.452342" style="fill: #1f77b4; stroke: #1f77b4"/>
     <use xlink:href="#mc55bd743d5" x="367.011137" y="202.481" style="fill: #1f77b4; stroke: #1f77b4"/>
     <use xlink:href="#mc55bd743d5" x="368.642567" y="202.705595" style="fill: #1f77b4; stroke: #1f77b4"/>
     <use xlink:href="#mc55bd743d5" x="370.273997" y="202.876272" style="fill: #1f77b4; stroke: #1f77b4"/>
     <use xlink:href="#mc55bd743d5" x="371.905427" y="203.054718" style="fill: #1f77b4; stroke: #1f77b4"/>
     <use xlink:href="#mc55bd743d5" x="373.536857" y="203.000075" style="fill: #1f77b4; stroke: #1f77b4"/>
     <use xlink:href="#mc55bd743d5" x="375.168286" y="203.178978" style="fill: #1f77b4; stroke: #1f77b4"/>
     <use xlink:href="#mc55bd743d5" x="376.799716" y="203.432003" style="fill: #1f77b4; stroke: #1f77b4"/>
     <use xlink:href="#mc55bd743d5" x="378.431146" y="203.354093" style="fill: #1f77b4; stroke: #1f77b4"/>
     <use xlink:href="#mc55bd743d5" x="380.062576" y="203.421603" style="fill: #1f77b4; stroke: #1f77b4"/>
     <use xlink:href="#mc55bd743d5" x="381.694006" y="203.580872" style="fill: #1f77b4; stroke: #1f77b4"/>
     <use xlink:href="#mc55bd743d5" x="383.325436" y="203.851331" style="fill: #1f77b4; stroke: #1f77b4"/>
     <use xlink:href="#mc55bd743d5" x="384.956866" y="203.939228" style="fill: #1f77b4; stroke: #1f77b4"/>
     <use xlink:href="#mc55bd743d5" x="386.588296" y="203.841952" style="fill: #1f77b4; stroke: #1f77b4"/>
     <use xlink:href="#mc55bd743d5" x="388.219725" y="204.014228" style="fill: #1f77b4; stroke: #1f77b4"/>
     <use xlink:href="#mc55bd743d5" x="389.851155" y="204.307852" style="fill: #1f77b4; stroke: #1f77b4"/>
     <use xlink:href="#mc55bd743d5" x="391.482585" y="204.485607" style="fill: #1f77b4; stroke: #1f77b4"/>
    </g>
   </g>
   <g id="line2d_29">
    <path d="M 66.82804 285.868632 
L 131.823945 291.091197 
L 181.870792 295.327057 
L 223.143191 299.037755 
L 257.916 302.373818 
L 258.24098 192.410182 
L 292.038851 195.875686 
L 329.411496 199.943352 
L 383.683077 205.860833 
L 391.482585 206.645777 
L 391.482585 206.645777 
" clip-path="url(#p5108008987)" style="fill: none; stroke: #d62728; stroke-width: 1.5; stroke-linecap: square"/>
   </g>
   <g id="patch_9">
    <path d="M 50.595313 307.872 
L 50.595313 186.912 
" style="fill: none; stroke: #000000; stroke-width: 0.8; stroke-linejoin: miter; stroke-linecap: square"/>
   </g>
   <g id="patch_10">
    <path d="M 407.715312 307.872 
L 407.715312 186.912 
" style="fill: none; stroke: #000000; stroke-width: 0.8; stroke-linejoin: miter; stroke-linecap: square"/>
   </g>
   <g id="patch_11">
    <path d="M 50.595313 307.872 
L 407.715313 307.872 
" style="fill: none; stroke: #000000; stroke-width: 0.8; stroke-linejoin: miter; stroke-linecap: square"/>
   </g>
   <g id="patch_12">
    <path d="M 50.595313 186.912 
L 407.715313 186.912 
" style="fill: none; stroke: #000000; stroke-width: 0.8; stroke-linejoin: miter; stroke-linecap: square"/>
   </g>
  </g>
  <g id="text_22">
   <!-- S21 resonator spectroscopy -->
   <g transform="translate(139.610938 16.318125) scale(0.12 -0.12)">
    <defs>
     <path id="DejaVuSans-53" d="M 3425 4513 
L 3425 3897 
Q 3066 4069 2747 4153 
Q 2428 4238 2131 4238 
Q 1616 4238 1336 4038 
Q 1056 3838 1056 3469 
Q 1056 3159 1242 3001 
Q 1428 2844 1947 2747 
L 2328 2669 
Q 3034 2534 3370 2195 
Q 3706 1856 3706 1288 
Q 3706 609 3251 259 
Q 2797 -91 1919 -91 
Q 1588 -91 1214 -16 
Q 841 59 441 206 
L 441 856 
Q 825 641 1194 531 
Q 1563 422 1919 422 
Q 2459 422 2753 634 
Q 3047 847 3047 1241 
Q 3047 1584 2836 1778 
Q 2625 1972 2144 2069 
L 1759 2144 
Q 1053 2284 737 2584 
Q 422 2884 422 3419 
Q 422 4038 858 4394 
Q 1294 4750 2059 4750 
Q 2388 4750 2728 4690 
Q 3069 4631 3425 4513 
z
" transform="scale(0.015625)"/>
     <path id="DejaVuSans-70" d="M 1159 525 
L 1159 -1331 
L 581 -1331 
L 581 3500 
L 1159 3500 
L 1159 2969 
Q 1341 3281 1617 3432 
Q 1894 3584 2278 3584 
Q 2916 3584 3314 3078 
Q 3713 2572 3713 1747 
Q 3713 922 3314 415 
Q 2916 -91 2278 -91 
Q 1894 -91 1617 61 
Q 1341 213 1159 525 
z
M 3116 1747 
Q 3116 2381 2855 2742 
Q 2594 3103 2138 3103 
Q 1681 3103 1420 2742 
Q 1159 2381 1159 1747 
Q 1159 1113 1420 752 
Q 1681 391 2138 391 
Q 2594 391 2855 752 
Q 3116 1113 3116 1747 
z
" transform="scale(0.015625)"/>
    </defs>
    <use xlink:href="#DejaVuSans-53"/>
    <use xlink:href="#DejaVuSans-32" x="63.476562"/>
    <use xlink:href="#DejaVuSans-31" x="127.099609"/>
    <use xlink:href="#DejaVuSans-20" x="190.722656"/>
    <use xlink:href="#DejaVuSans-72" x="222.509766"/>
    <use xlink:href="#DejaVuSans-65" x="261.373047"/>
    <use xlink:href="#DejaVuSans-73" x="322.896484"/>
    <use xlink:href="#DejaVuSans-6f" x="374.996094"/>
    <use xlink:href="#DejaVuSans-6e" x="436.177734"/>
    <use xlink:href="#DejaVuSans-61" x="499.556641"/>
    <use xlink:href="#DejaVuSans-74" x="560.835938"/>
    <use xlink:href="#DejaVuSans-6f" x="600.044922"/>
    <use xlink:href="#DejaVuSans-72" x="661.226562"/>
    <use xlink:href="#DejaVuSans-20" x="702.339844"/>
    <use xlink:href="#DejaVuSans-73" x="734.126953"/>
    <use xlink:href="#DejaVuSans-70" x="786.226562"/>
    <use xlink:href="#DejaVuSans-65" x="849.703125"/>
    <use xlink:href="#DejaVuSans-63" x="911.226562"/>
    <use xlink:href="#DejaVuSans-74" x="966.207031"/>
    <use xlink:href="#DejaVuSans-72" x="1005.416016"/>
    <use xlink:href="#DejaVuSans-6f" x="1044.279297"/>
    <use xlink:href="#DejaVuSans-73" x="1105.460938"/>
    <use xlink:href="#DejaVuSans-63" x="1157.560547"/>
    <use xlink:href="#DejaVuSans-6f" x="1212.541016"/>
    <use xlink:href="#DejaVuSans-70" x="1273.722656"/>
    <use xlink:href="#DejaVuSans-79" x="1337.199219"/>
   </g>
   <!-- tuid: 20231227-125515-307-183cbd -->
   <g transform="translate(114.075313 29.7555) scale(0.12 -0.12)">
    <defs>
     <path id="DejaVuSans-33" d="M 2597 2516 
Q 3050 2419 3304 2112 
Q 3559 1806 3559 1356 
Q 3559 666 3084 287 
Q 2609 -91 1734 -91 
Q 1441 -91 1130 -33 
Q 819 25 488 141 
L 488 750 
Q 750 597 1062 519 
Q 1375 441 1716 441 
Q 2309 441 2620 675 
Q 2931 909 2931 1356 
Q 2931 1769 2642 2001 
Q 2353 2234 1838 2234 
L 1294 2234 
L 1294 2753 
L 1863 2753 
Q 2328 2753 2575 2939 
Q 2822 3125 2822 3475 
Q 2822 3834 2567 4026 
Q 2313 4219 1838 4219 
Q 1578 4219 1281 4162 
Q 984 4106 628 3988 
L 628 4550 
Q 988 4650 1302 4700 
Q 1616 4750 1894 4750 
Q 2613 4750 3031 4423 
Q 3450 4097 3450 3541 
Q 3450 3153 3228 2886 
Q 3006 2619 2597 2516 
z
" transform="scale(0.015625)"/>
    </defs>
    <use xlink:href="#DejaVuSans-74"/>
    <use xlink:href="#DejaVuSans-75" x="39.208984"/>
    <use xlink:href="#DejaVuSans-69" x="102.587891"/>
    <use xlink:href="#DejaVuSans-64" x="130.371094"/>
    <use xlink:href="#DejaVuSans-3a" x="193.847656"/>
    <use xlink:href="#DejaVuSans-20" x="227.539062"/>
    <use xlink:href="#DejaVuSans-32" x="259.326172"/>
    <use xlink:href="#DejaVuSans-30" x="322.949219"/>
    <use xlink:href="#DejaVuSans-32" x="386.572266"/>
    <use xlink:href="#DejaVuSans-33" x="450.195312"/>
    <use xlink:href="#DejaVuSans-31" x="513.818359"/>
    <use xlink:href="#DejaVuSans-32" x="577.441406"/>
    <use xlink:href="#DejaVuSans-32" x="641.064453"/>
    <use xlink:href="#DejaVuSans-37" x="704.6875"/>
    <use xlink:href="#DejaVuSans-2d" x="768.310547"/>
    <use xlink:href="#DejaVuSans-31" x="804.394531"/>
    <use xlink:href="#DejaVuSans-32" x="868.017578"/>
    <use xlink:href="#DejaVuSans-35" x="931.640625"/>
    <use xlink:href="#DejaVuSans-35" x="995.263672"/>
    <use xlink:href="#DejaVuSans-31" x="1058.886719"/>
    <use xlink:href="#DejaVuSans-35" x="1122.509766"/>
    <use xlink:href="#DejaVuSans-2d" x="1186.132812"/>
    <use xlink:href="#DejaVuSans-33" x="1222.216797"/>
    <use xlink:href="#DejaVuSans-30" x="1285.839844"/>
    <use xlink:href="#DejaVuSans-37" x="1349.462891"/>
    <use xlink:href="#DejaVuSans-2d" x="1413.085938"/>
    <use xlink:href="#DejaVuSans-31" x="1449.169922"/>
    <use xlink:href="#DejaVuSans-38" x="1512.792969"/>
    <use xlink:href="#DejaVuSans-33" x="1576.416016"/>
    <use xlink:href="#DejaVuSans-63" x="1640.039062"/>
    <use xlink:href="#DejaVuSans-62" x="1695.019531"/>
    <use xlink:href="#DejaVuSans-64" x="1758.496094"/>
   </g>
  </g>
 </g>
 <defs>
  <clipPath id="pb139e09cf3">
   <rect x="50.595313" y="41.76" width="357.12" height="120.96"/>
  </clipPath>
  <clipPath id="p5108008987">
   <rect x="50.595313" y="186.912" width="357.12" height="120.96"/>
  </clipPath>
 </defs>
</svg>
