<?xml version="1.0" encoding="utf-8" standalone="no"?>
<!DOCTYPE svg PUBLIC "-//W3C//DTD SVG 1.1//EN"
  "http://www.w3.org/Graphics/SVG/1.1/DTD/svg11.dtd">
<svg xmlns:xlink="http://www.w3.org/1999/xlink" width="559.024437pt" height="345.42825pt" viewBox="0 0 559.024437 345.42825" xmlns="http://www.w3.org/2000/svg" version="1.1">
 <metadata>
  <rdf:RDF xmlns:dc="http://purl.org/dc/elements/1.1/" xmlns:cc="http://creativecommons.org/ns#" xmlns:rdf="http://www.w3.org/1999/02/22-rdf-syntax-ns#">
   <cc:Work>
    <dc:type rdf:resource="http://purl.org/dc/dcmitype/StillImage"/>
    <dc:date>2023-12-25T15:59:22.678153</dc:date>
    <dc:format>image/svg+xml</dc:format>
    <dc:creator>
     <cc:Agent>
      <dc:title>Matplotlib v3.8.2, https://matplotlib.org/</dc:title>
     </cc:Agent>
    </dc:creator>
   </cc:Work>
  </rdf:RDF>
 </metadata>
 <defs>
  <style type="text/css">*{stroke-linejoin: round; stroke-linecap: butt}</style>
 </defs>
 <g id="figure_1">
  <g id="patch_1">
   <path d="M 0 345.42825 
L 559.024437 345.42825 
L 559.024437 -0 
L 0 -0 
L 0 345.42825 
z
" style="fill: none; opacity: 0"/>
  </g>
  <g id="axes_1">
   <g id="patch_2">
    <path d="M 37.848438 307.872 
L 394.968438 307.872 
L 394.968438 41.76 
L 37.848438 41.76 
z
" style="fill: #ffffff"/>
   </g>
   <g id="matplotlib.axis_1">
    <g id="xtick_1">
     <g id="line2d_1">
      <defs>
       <path id="m95bf447228" d="M 0 0 
L 0 3.5 
" style="stroke: #000000; stroke-width: 0.8"/>
      </defs>
      <g>
       <use xlink:href="#m95bf447228" x="102.361435" y="307.872" style="stroke: #000000; stroke-width: 0.8"/>
      </g>
     </g>
     <g id="text_1">
      <!-- -8 -->
      <g transform="translate(97.376279 322.470438) scale(0.1 -0.1)">
       <defs>
        <path id="DejaVuSans-2d" d="M 313 2009 
L 1997 2009 
L 1997 1497 
L 313 1497 
L 313 2009 
z
" transform="scale(0.015625)"/>
        <path id="DejaVuSans-38" d="M 2034 2216 
Q 1584 2216 1326 1975 
Q 1069 1734 1069 1313 
Q 1069 891 1326 650 
Q 1584 409 2034 409 
Q 2484 409 2743 651 
Q 3003 894 3003 1313 
Q 3003 1734 2745 1975 
Q 2488 2216 2034 2216 
z
M 1403 2484 
Q 997 2584 770 2862 
Q 544 3141 544 3541 
Q 544 4100 942 4425 
Q 1341 4750 2034 4750 
Q 2731 4750 3128 4425 
Q 3525 4100 3525 3541 
Q 3525 3141 3298 2862 
Q 3072 2584 2669 2484 
Q 3125 2378 3379 2068 
Q 3634 1759 3634 1313 
Q 3634 634 3220 271 
Q 2806 -91 2034 -91 
Q 1263 -91 848 271 
Q 434 634 434 1313 
Q 434 1759 690 2068 
Q 947 2378 1403 2484 
z
M 1172 3481 
Q 1172 3119 1398 2916 
Q 1625 2713 2034 2713 
Q 2441 2713 2670 2916 
Q 2900 3119 2900 3481 
Q 2900 3844 2670 4047 
Q 2441 4250 2034 4250 
Q 1625 4250 1398 4047 
Q 1172 3844 1172 3481 
z
" transform="scale(0.015625)"/>
       </defs>
       <use xlink:href="#DejaVuSans-2d"/>
       <use xlink:href="#DejaVuSans-38" x="36.083984"/>
      </g>
     </g>
    </g>
    <g id="xtick_2">
     <g id="line2d_2">
      <g>
       <use xlink:href="#m95bf447228" x="173.140135" y="307.872" style="stroke: #000000; stroke-width: 0.8"/>
      </g>
     </g>
     <g id="text_2">
      <!-- -6 -->
      <g transform="translate(168.154979 322.470438) scale(0.1 -0.1)">
       <defs>
        <path id="DejaVuSans-36" d="M 2113 2584 
Q 1688 2584 1439 2293 
Q 1191 2003 1191 1497 
Q 1191 994 1439 701 
Q 1688 409 2113 409 
Q 2538 409 2786 701 
Q 3034 994 3034 1497 
Q 3034 2003 2786 2293 
Q 2538 2584 2113 2584 
z
M 3366 4563 
L 3366 3988 
Q 3128 4100 2886 4159 
Q 2644 4219 2406 4219 
Q 1781 4219 1451 3797 
Q 1122 3375 1075 2522 
Q 1259 2794 1537 2939 
Q 1816 3084 2150 3084 
Q 2853 3084 3261 2657 
Q 3669 2231 3669 1497 
Q 3669 778 3244 343 
Q 2819 -91 2113 -91 
Q 1303 -91 875 529 
Q 447 1150 447 2328 
Q 447 3434 972 4092 
Q 1497 4750 2381 4750 
Q 2619 4750 2861 4703 
Q 3103 4656 3366 4563 
z
" transform="scale(0.015625)"/>
       </defs>
       <use xlink:href="#DejaVuSans-2d"/>
       <use xlink:href="#DejaVuSans-36" x="36.083984"/>
      </g>
     </g>
    </g>
    <g id="xtick_3">
     <g id="line2d_3">
      <g>
       <use xlink:href="#m95bf447228" x="243.918835" y="307.872" style="stroke: #000000; stroke-width: 0.8"/>
      </g>
     </g>
     <g id="text_3">
      <!-- -4 -->
      <g transform="translate(238.933678 322.470438) scale(0.1 -0.1)">
       <defs>
        <path id="DejaVuSans-34" d="M 2419 4116 
L 825 1625 
L 2419 1625 
L 2419 4116 
z
M 2253 4666 
L 3047 4666 
L 3047 1625 
L 3713 1625 
L 3713 1100 
L 3047 1100 
L 3047 0 
L 2419 0 
L 2419 1100 
L 313 1100 
L 313 1709 
L 2253 4666 
z
" transform="scale(0.015625)"/>
       </defs>
       <use xlink:href="#DejaVuSans-2d"/>
       <use xlink:href="#DejaVuSans-34" x="36.083984"/>
      </g>
     </g>
    </g>
    <g id="xtick_4">
     <g id="line2d_4">
      <g>
       <use xlink:href="#m95bf447228" x="314.697534" y="307.872" style="stroke: #000000; stroke-width: 0.8"/>
      </g>
     </g>
     <g id="text_4">
      <!-- -2 -->
      <g transform="translate(309.712378 322.470438) scale(0.1 -0.1)">
       <defs>
        <path id="DejaVuSans-32" d="M 1228 531 
L 3431 531 
L 3431 0 
L 469 0 
L 469 531 
Q 828 903 1448 1529 
Q 2069 2156 2228 2338 
Q 2531 2678 2651 2914 
Q 2772 3150 2772 3378 
Q 2772 3750 2511 3984 
Q 2250 4219 1831 4219 
Q 1534 4219 1204 4116 
Q 875 4013 500 3803 
L 500 4441 
Q 881 4594 1212 4672 
Q 1544 4750 1819 4750 
Q 2544 4750 2975 4387 
Q 3406 4025 3406 3419 
Q 3406 3131 3298 2873 
Q 3191 2616 2906 2266 
Q 2828 2175 2409 1742 
Q 1991 1309 1228 531 
z
" transform="scale(0.015625)"/>
       </defs>
       <use xlink:href="#DejaVuSans-2d"/>
       <use xlink:href="#DejaVuSans-32" x="36.083984"/>
      </g>
     </g>
    </g>
    <g id="xtick_5">
     <g id="line2d_5">
      <g>
       <use xlink:href="#m95bf447228" x="385.476234" y="307.872" style="stroke: #000000; stroke-width: 0.8"/>
      </g>
     </g>
     <g id="text_5">
      <!-- 0 -->
      <g transform="translate(382.294984 322.470438) scale(0.1 -0.1)">
       <defs>
        <path id="DejaVuSans-30" d="M 2034 4250 
Q 1547 4250 1301 3770 
Q 1056 3291 1056 2328 
Q 1056 1369 1301 889 
Q 1547 409 2034 409 
Q 2525 409 2770 889 
Q 3016 1369 3016 2328 
Q 3016 3291 2770 3770 
Q 2525 4250 2034 4250 
z
M 2034 4750 
Q 2819 4750 3233 4129 
Q 3647 3509 3647 2328 
Q 3647 1150 3233 529 
Q 2819 -91 2034 -91 
Q 1250 -91 836 529 
Q 422 1150 422 2328 
Q 422 3509 836 4129 
Q 1250 4750 2034 4750 
z
" transform="scale(0.015625)"/>
       </defs>
       <use xlink:href="#DejaVuSans-30"/>
      </g>
     </g>
    </g>
    <g id="text_6">
     <!-- Re$(S_{21})$ [mV] -->
     <g transform="translate(184.408438 336.148562) scale(0.1 -0.1)">
      <defs>
       <path id="DejaVuSans-52" d="M 2841 2188 
Q 3044 2119 3236 1894 
Q 3428 1669 3622 1275 
L 4263 0 
L 3584 0 
L 2988 1197 
Q 2756 1666 2539 1819 
Q 2322 1972 1947 1972 
L 1259 1972 
L 1259 0 
L 628 0 
L 628 4666 
L 2053 4666 
Q 2853 4666 3247 4331 
Q 3641 3997 3641 3322 
Q 3641 2881 3436 2590 
Q 3231 2300 2841 2188 
z
M 1259 4147 
L 1259 2491 
L 2053 2491 
Q 2509 2491 2742 2702 
Q 2975 2913 2975 3322 
Q 2975 3731 2742 3939 
Q 2509 4147 2053 4147 
L 1259 4147 
z
" transform="scale(0.015625)"/>
       <path id="DejaVuSans-65" d="M 3597 1894 
L 3597 1613 
L 953 1613 
Q 991 1019 1311 708 
Q 1631 397 2203 397 
Q 2534 397 2845 478 
Q 3156 559 3463 722 
L 3463 178 
Q 3153 47 2828 -22 
Q 2503 -91 2169 -91 
Q 1331 -91 842 396 
Q 353 884 353 1716 
Q 353 2575 817 3079 
Q 1281 3584 2069 3584 
Q 2775 3584 3186 3129 
Q 3597 2675 3597 1894 
z
M 3022 2063 
Q 3016 2534 2758 2815 
Q 2500 3097 2075 3097 
Q 1594 3097 1305 2825 
Q 1016 2553 972 2059 
L 3022 2063 
z
" transform="scale(0.015625)"/>
       <path id="DejaVuSans-28" d="M 1984 4856 
Q 1566 4138 1362 3434 
Q 1159 2731 1159 2009 
Q 1159 1288 1364 580 
Q 1569 -128 1984 -844 
L 1484 -844 
Q 1016 -109 783 600 
Q 550 1309 550 2009 
Q 550 2706 781 3412 
Q 1013 4119 1484 4856 
L 1984 4856 
z
" transform="scale(0.015625)"/>
       <path id="DejaVuSans-Oblique-53" d="M 3859 4513 
L 3738 3897 
Q 3422 4066 3111 4152 
Q 2800 4238 2509 4238 
Q 1944 4238 1609 3991 
Q 1275 3744 1275 3334 
Q 1275 3109 1398 2989 
Q 1522 2869 2034 2731 
L 2413 2638 
Q 3053 2472 3303 2217 
Q 3553 1963 3553 1503 
Q 3553 797 2998 353 
Q 2444 -91 1538 -91 
Q 1166 -91 791 -17 
Q 416 56 38 206 
L 166 856 
Q 513 641 861 531 
Q 1209 422 1556 422 
Q 2147 422 2503 684 
Q 2859 947 2859 1369 
Q 2859 1650 2717 1795 
Q 2575 1941 2106 2059 
L 1728 2156 
Q 1081 2325 845 2545 
Q 609 2766 609 3163 
Q 609 3859 1145 4304 
Q 1681 4750 2541 4750 
Q 2875 4750 3203 4690 
Q 3531 4631 3859 4513 
z
" transform="scale(0.015625)"/>
       <path id="DejaVuSans-31" d="M 794 531 
L 1825 531 
L 1825 4091 
L 703 3866 
L 703 4441 
L 1819 4666 
L 2450 4666 
L 2450 531 
L 3481 531 
L 3481 0 
L 794 0 
L 794 531 
z
" transform="scale(0.015625)"/>
       <path id="DejaVuSans-29" d="M 513 4856 
L 1013 4856 
Q 1481 4119 1714 3412 
Q 1947 2706 1947 2009 
Q 1947 1309 1714 600 
Q 1481 -109 1013 -844 
L 513 -844 
Q 928 -128 1133 580 
Q 1338 1288 1338 2009 
Q 1338 2731 1133 3434 
Q 928 4138 513 4856 
z
" transform="scale(0.015625)"/>
       <path id="DejaVuSans-20" transform="scale(0.015625)"/>
       <path id="DejaVuSans-5b" d="M 550 4863 
L 1875 4863 
L 1875 4416 
L 1125 4416 
L 1125 -397 
L 1875 -397 
L 1875 -844 
L 550 -844 
L 550 4863 
z
" transform="scale(0.015625)"/>
       <path id="DejaVuSans-6d" d="M 3328 2828 
Q 3544 3216 3844 3400 
Q 4144 3584 4550 3584 
Q 5097 3584 5394 3201 
Q 5691 2819 5691 2113 
L 5691 0 
L 5113 0 
L 5113 2094 
Q 5113 2597 4934 2840 
Q 4756 3084 4391 3084 
Q 3944 3084 3684 2787 
Q 3425 2491 3425 1978 
L 3425 0 
L 2847 0 
L 2847 2094 
Q 2847 2600 2669 2842 
Q 2491 3084 2119 3084 
Q 1678 3084 1418 2786 
Q 1159 2488 1159 1978 
L 1159 0 
L 581 0 
L 581 3500 
L 1159 3500 
L 1159 2956 
Q 1356 3278 1631 3431 
Q 1906 3584 2284 3584 
Q 2666 3584 2933 3390 
Q 3200 3197 3328 2828 
z
" transform="scale(0.015625)"/>
       <path id="DejaVuSans-56" d="M 1831 0 
L 50 4666 
L 709 4666 
L 2188 738 
L 3669 4666 
L 4325 4666 
L 2547 0 
L 1831 0 
z
" transform="scale(0.015625)"/>
       <path id="DejaVuSans-5d" d="M 1947 4863 
L 1947 -844 
L 622 -844 
L 622 -397 
L 1369 -397 
L 1369 4416 
L 622 4416 
L 622 4863 
L 1947 4863 
z
" transform="scale(0.015625)"/>
      </defs>
      <use xlink:href="#DejaVuSans-52" transform="translate(0 0.015625)"/>
      <use xlink:href="#DejaVuSans-65" transform="translate(69.482422 0.015625)"/>
      <use xlink:href="#DejaVuSans-28" transform="translate(131.005859 0.015625)"/>
      <use xlink:href="#DejaVuSans-Oblique-53" transform="translate(170.019531 0.015625)"/>
      <use xlink:href="#DejaVuSans-32" transform="translate(233.496094 -16.390625) scale(0.7)"/>
      <use xlink:href="#DejaVuSans-31" transform="translate(278.032227 -16.390625) scale(0.7)"/>
      <use xlink:href="#DejaVuSans-29" transform="translate(325.302734 0.015625)"/>
      <use xlink:href="#DejaVuSans-20" transform="translate(364.316406 0.015625)"/>
      <use xlink:href="#DejaVuSans-5b" transform="translate(396.103516 0.015625)"/>
      <use xlink:href="#DejaVuSans-6d" transform="translate(435.117188 0.015625)"/>
      <use xlink:href="#DejaVuSans-56" transform="translate(532.529297 0.015625)"/>
      <use xlink:href="#DejaVuSans-5d" transform="translate(600.9375 0.015625)"/>
     </g>
    </g>
   </g>
   <g id="matplotlib.axis_2">
    <g id="ytick_1">
     <g id="line2d_6">
      <defs>
       <path id="m211bb4b74d" d="M 0 0 
L -3.5 0 
" style="stroke: #000000; stroke-width: 0.8"/>
      </defs>
      <g>
       <use xlink:href="#m211bb4b74d" x="37.848438" y="293.963462" style="stroke: #000000; stroke-width: 0.8"/>
      </g>
     </g>
     <g id="text_7">
      <!-- -4 -->
      <g transform="translate(20.878125 297.762681) scale(0.1 -0.1)">
       <use xlink:href="#DejaVuSans-2d"/>
       <use xlink:href="#DejaVuSans-34" x="36.083984"/>
      </g>
     </g>
    </g>
    <g id="ytick_2">
     <g id="line2d_7">
      <g>
       <use xlink:href="#m211bb4b74d" x="37.848438" y="251.326843" style="stroke: #000000; stroke-width: 0.8"/>
      </g>
     </g>
     <g id="text_8">
      <!-- -2 -->
      <g transform="translate(20.878125 255.126062) scale(0.1 -0.1)">
       <use xlink:href="#DejaVuSans-2d"/>
       <use xlink:href="#DejaVuSans-32" x="36.083984"/>
      </g>
     </g>
    </g>
    <g id="ytick_3">
     <g id="line2d_8">
      <g>
       <use xlink:href="#m211bb4b74d" x="37.848438" y="208.690224" style="stroke: #000000; stroke-width: 0.8"/>
      </g>
     </g>
     <g id="text_9">
      <!-- 0 -->
      <g transform="translate(24.485938 212.489443) scale(0.1 -0.1)">
       <use xlink:href="#DejaVuSans-30"/>
      </g>
     </g>
    </g>
    <g id="ytick_4">
     <g id="line2d_9">
      <g>
       <use xlink:href="#m211bb4b74d" x="37.848438" y="166.053605" style="stroke: #000000; stroke-width: 0.8"/>
      </g>
     </g>
     <g id="text_10">
      <!-- 2 -->
      <g transform="translate(24.485938 169.852824) scale(0.1 -0.1)">
       <use xlink:href="#DejaVuSans-32"/>
      </g>
     </g>
    </g>
    <g id="ytick_5">
     <g id="line2d_10">
      <g>
       <use xlink:href="#m211bb4b74d" x="37.848438" y="123.416986" style="stroke: #000000; stroke-width: 0.8"/>
      </g>
     </g>
     <g id="text_11">
      <!-- 4 -->
      <g transform="translate(24.485938 127.216204) scale(0.1 -0.1)">
       <use xlink:href="#DejaVuSans-34"/>
      </g>
     </g>
    </g>
    <g id="ytick_6">
     <g id="line2d_11">
      <g>
       <use xlink:href="#m211bb4b74d" x="37.848438" y="80.780367" style="stroke: #000000; stroke-width: 0.8"/>
      </g>
     </g>
     <g id="text_12">
      <!-- 6 -->
      <g transform="translate(24.485938 84.579585) scale(0.1 -0.1)">
       <use xlink:href="#DejaVuSans-36"/>
      </g>
     </g>
    </g>
    <g id="text_13">
     <!-- Im$(S_{21})$ [mV] -->
     <g transform="translate(14.798438 206.466) rotate(-90) scale(0.1 -0.1)">
      <defs>
       <path id="DejaVuSans-49" d="M 628 4666 
L 1259 4666 
L 1259 0 
L 628 0 
L 628 4666 
z
" transform="scale(0.015625)"/>
      </defs>
      <use xlink:href="#DejaVuSans-49" transform="translate(0 0.015625)"/>
      <use xlink:href="#DejaVuSans-6d" transform="translate(25.867188 0.015625)"/>
      <use xlink:href="#DejaVuSans-28" transform="translate(123.279297 0.015625)"/>
      <use xlink:href="#DejaVuSans-Oblique-53" transform="translate(162.292969 0.015625)"/>
      <use xlink:href="#DejaVuSans-32" transform="translate(225.769531 -16.390625) scale(0.7)"/>
      <use xlink:href="#DejaVuSans-31" transform="translate(270.305664 -16.390625) scale(0.7)"/>
      <use xlink:href="#DejaVuSans-29" transform="translate(317.576172 0.015625)"/>
      <use xlink:href="#DejaVuSans-20" transform="translate(356.589844 0.015625)"/>
      <use xlink:href="#DejaVuSans-5b" transform="translate(388.376953 0.015625)"/>
      <use xlink:href="#DejaVuSans-6d" transform="translate(427.390625 0.015625)"/>
      <use xlink:href="#DejaVuSans-56" transform="translate(524.802734 0.015625)"/>
      <use xlink:href="#DejaVuSans-5d" transform="translate(593.210938 0.015625)"/>
     </g>
    </g>
   </g>
   <g id="line2d_12">
    <path d="M 145.460296 289.295235 
L 143.212305 290.12575 
L 141.252224 288.573771 
L 139.496721 286.504565 
L 134.142274 285.175061 
L 136.026978 284.905003 
L 134.480281 284.265072 
L 130.916989 281.103834 
L 129.773419 280.546524 
L 128.186459 281.645013 
L 127.976501 278.493125 
L 127.80039 278.283841 
L 126.425617 275.510228 
L 129.113118 275.619464 
L 125.654862 273.141457 
L 122.499806 274.344091 
L 120.065792 273.290777 
L 118.113086 271.863933 
L 118.196301 268.385865 
L 118.94097 266.984177 
L 115.588481 266.738929 
L 114.307526 265.125088 
L 111.554406 266.840018 
L 113.533236 262.113771 
L 110.0026 261.969474 
L 110.551679 260.539898 
L 105.851924 260.192149 
L 105.547879 255.049881 
L 102.394514 255.808675 
L 102.883737 253.763215 
L 101.871943 253.570548 
L 98.340538 250.735883 
L 98.592834 251.614073 
L 97.369622 247.077831 
L 97.044946 249.679375 
L 94.667868 243.397793 
L 93.440699 243.59775 
L 90.377041 243.447458 
L 89.230744 241.990875 
L 89.85182 238.919524 
L 87.05959 237.120561 
L 82.690581 236.408331 
L 85.384536 234.184668 
L 84.926432 232.702535 
L 81.799076 230.582715 
L 81.680785 229.352402 
L 78.688279 226.013633 
L 78.106812 224.795864 
L 77.892744 223.553007 
L 77.689855 221.205853 
L 72.878993 218.413238 
L 71.770307 213.549313 
L 67.649637 211.6846 
L 68.753444 208.872453 
L 68.149579 204.619275 
L 67.689477 203.43872 
L 62.614026 201.517677 
L 61.09307 198.569818 
L 60.985075 193.750628 
L 62.244016 193.020254 
L 63.280897 188.964811 
L 58.777616 186.650334 
L 54.081165 179.699151 
L 58.550292 177.562067 
L 55.878006 175.28985 
L 56.154351 169.266822 
L 59.988879 165.788523 
L 55.672696 159.222419 
L 55.34414 156.323786 
L 56.82564 150.33802 
L 59.724943 145.157264 
L 57.938859 138.30481 
L 58.164876 132.983553 
L 65.437798 127.137339 
L 71.212584 118.844594 
L 71.013383 112.07534 
L 79.798386 104.062418 
L 89.817935 95.289037 
L 102.752768 88.803332 
L 113.272566 77.939013 
L 128.598999 72.689638 
L 147.54447 66.342422 
L 171.602121 61.17988 
L 195.92048 53.856 
L 223.581878 56.030715 
L 250.743026 60.29521 
L 281.627519 64.694653 
L 304.829663 71.879813 
L 327.109259 82.237945 
L 344.801783 96.919008 
L 360.363569 109.293996 
L 367.89232 126.381114 
L 374.584236 140.504566 
L 370.899349 154.876668 
L 364.242355 167.760759 
L 363.734845 180.669358 
L 349.98761 192.567435 
L 342.84585 198.334314 
L 329.037492 203.55469 
L 318.962659 210.273053 
L 307.442938 216.822078 
L 297.611065 218.0853 
L 286.531584 222.532302 
L 274.507312 221.142857 
L 267.486686 222.100914 
L 257.073538 224.500488 
L 249.598803 226.064849 
L 241.727357 226.801102 
L 235.500077 224.611691 
L 230.253202 225.636029 
L 222.844854 223.268671 
L 215.759685 220.555623 
L 213.673321 220.347612 
L 207.248222 220.110511 
L 204.375851 220.831906 
L 201.032544 219.308392 
L 195.244389 217.200931 
L 193.355574 212.207334 
L 187.893093 212.78663 
L 184.920372 213.594558 
L 181.150848 210.712889 
L 182.499843 208.9183 
L 178.114967 205.595916 
L 175.981464 205.918902 
L 165.705356 205.477585 
L 169.405841 202.467425 
L 167.05946 201.756468 
L 164.80075 197.725209 
L 165.362546 197.987352 
L 161.049513 194.400303 
L 161.247485 199.342406 
L 157.471852 192.957814 
L 160.991002 191.237908 
L 155.221172 191.755643 
L 152.21495 189.952954 
L 153.383338 188.442354 
L 156.972064 186.308186 
L 150.16009 185.716624 
L 152.500055 180.624761 
L 148.056168 181.386217 
L 148.664336 178.407717 
L 148.092436 178.115975 
L 149.854239 176.92975 
L 146.323564 175.934849 
L 146.152293 175.369531 
L 146.49007 171.626475 
L 143.587233 169.050295 
L 143.634219 167.414214 
L 142.628687 169.342153 
L 146.116141 165.692757 
L 142.271163 167.185698 
L 146.753968 163.832788 
L 141.769646 159.367897 
L 141.87741 161.114603 
L 142.941454 158.20949 
L 144.13274 157.643756 
L 147.377695 155.437843 
L 142.978912 154.449863 
L 147.286796 152.579572 
L 146.531178 152.925956 
L 146.985517 150.517356 
L 145.164165 149.532036 
L 144.943642 149.231592 
L 145.652313 146.807232 
L 141.47655 144.733999 
L 148.689577 141.935761 
L 144.891892 141.463294 
L 145.376198 141.821203 
L 145.119331 139.039165 
L 146.997196 137.868168 
L 149.622267 135.908985 
L 144.973455 133.451715 
L 147.518422 134.767982 
L 145.271123 132.17058 
L 148.470629 126.578386 
L 150.526911 128.267072 
L 149.251027 127.393071 
L 154.421526 123.674476 
L 154.47293 123.316244 
L 147.987053 124.639708 
L 153.467859 121.9732 
L 152.945443 119.646458 
L 153.591913 119.156772 
L 153.831531 117.006079 
L 157.121397 115.270714 
L 154.7482 114.580331 
L 154.175109 112.718788 
L 157.774092 113.052675 
L 156.356751 109.772272 
L 159.319752 109.598375 
L 159.055815 108.913731 
L 160.91355 108.386924 
L 163.761026 102.703059 
L 163.338113 102.763463 
L 161.434238 102.156372 
L 163.726218 101.325417 
L 166.713154 99.95164 
L 162.656989 99.347997 
L 166.28759 98.593855 
L 166.28759 98.593855 
" clip-path="url(#p3dabe39754)" style="fill: none; stroke: #1f77b4; stroke-width: 1.5; stroke-linecap: square"/>
    <defs>
     <path id="m7529770496" d="M 0 1.5 
C 0.397805 1.5 0.77937 1.341951 1.06066 1.06066 
C 1.341951 0.77937 1.5 0.397805 1.5 0 
C 1.5 -0.397805 1.341951 -0.77937 1.06066 -1.06066 
C 0.77937 -1.341951 0.397805 -1.5 0 -1.5 
C -0.397805 -1.5 -0.77937 -1.341951 -1.06066 -1.06066 
C -1.341951 -0.77937 -1.5 -0.397805 -1.5 0 
C -1.5 0.397805 -1.341951 0.77937 -1.06066 1.06066 
C -0.77937 1.341951 -0.397805 1.5 0 1.5 
z
" style="stroke: #1f77b4"/>
    </defs>
    <g clip-path="url(#p3dabe39754)">
     <use xlink:href="#m7529770496" x="145.460296" y="289.295235" style="fill: #1f77b4; stroke: #1f77b4"/>
     <use xlink:href="#m7529770496" x="143.212305" y="290.12575" style="fill: #1f77b4; stroke: #1f77b4"/>
     <use xlink:href="#m7529770496" x="141.252224" y="288.573771" style="fill: #1f77b4; stroke: #1f77b4"/>
     <use xlink:href="#m7529770496" x="139.496721" y="286.504565" style="fill: #1f77b4; stroke: #1f77b4"/>
     <use xlink:href="#m7529770496" x="134.142274" y="285.175061" style="fill: #1f77b4; stroke: #1f77b4"/>
     <use xlink:href="#m7529770496" x="136.026978" y="284.905003" style="fill: #1f77b4; stroke: #1f77b4"/>
     <use xlink:href="#m7529770496" x="134.480281" y="284.265072" style="fill: #1f77b4; stroke: #1f77b4"/>
     <use xlink:href="#m7529770496" x="130.916989" y="281.103834" style="fill: #1f77b4; stroke: #1f77b4"/>
     <use xlink:href="#m7529770496" x="129.773419" y="280.546524" style="fill: #1f77b4; stroke: #1f77b4"/>
     <use xlink:href="#m7529770496" x="128.186459" y="281.645013" style="fill: #1f77b4; stroke: #1f77b4"/>
     <use xlink:href="#m7529770496" x="127.976501" y="278.493125" style="fill: #1f77b4; stroke: #1f77b4"/>
     <use xlink:href="#m7529770496" x="127.80039" y="278.283841" style="fill: #1f77b4; stroke: #1f77b4"/>
     <use xlink:href="#m7529770496" x="126.425617" y="275.510228" style="fill: #1f77b4; stroke: #1f77b4"/>
     <use xlink:href="#m7529770496" x="129.113118" y="275.619464" style="fill: #1f77b4; stroke: #1f77b4"/>
     <use xlink:href="#m7529770496" x="125.654862" y="273.141457" style="fill: #1f77b4; stroke: #1f77b4"/>
     <use xlink:href="#m7529770496" x="122.499806" y="274.344091" style="fill: #1f77b4; stroke: #1f77b4"/>
     <use xlink:href="#m7529770496" x="120.065792" y="273.290777" style="fill: #1f77b4; stroke: #1f77b4"/>
     <use xlink:href="#m7529770496" x="118.113086" y="271.863933" style="fill: #1f77b4; stroke: #1f77b4"/>
     <use xlink:href="#m7529770496" x="118.196301" y="268.385865" style="fill: #1f77b4; stroke: #1f77b4"/>
     <use xlink:href="#m7529770496" x="118.94097" y="266.984177" style="fill: #1f77b4; stroke: #1f77b4"/>
     <use xlink:href="#m7529770496" x="115.588481" y="266.738929" style="fill: #1f77b4; stroke: #1f77b4"/>
     <use xlink:href="#m7529770496" x="114.307526" y="265.125088" style="fill: #1f77b4; stroke: #1f77b4"/>
     <use xlink:href="#m7529770496" x="111.554406" y="266.840018" style="fill: #1f77b4; stroke: #1f77b4"/>
     <use xlink:href="#m7529770496" x="113.533236" y="262.113771" style="fill: #1f77b4; stroke: #1f77b4"/>
     <use xlink:href="#m7529770496" x="110.0026" y="261.969474" style="fill: #1f77b4; stroke: #1f77b4"/>
     <use xlink:href="#m7529770496" x="110.551679" y="260.539898" style="fill: #1f77b4; stroke: #1f77b4"/>
     <use xlink:href="#m7529770496" x="105.851924" y="260.192149" style="fill: #1f77b4; stroke: #1f77b4"/>
     <use xlink:href="#m7529770496" x="105.547879" y="255.049881" style="fill: #1f77b4; stroke: #1f77b4"/>
     <use xlink:href="#m7529770496" x="102.394514" y="255.808675" style="fill: #1f77b4; stroke: #1f77b4"/>
     <use xlink:href="#m7529770496" x="102.883737" y="253.763215" style="fill: #1f77b4; stroke: #1f77b4"/>
     <use xlink:href="#m7529770496" x="101.871943" y="253.570548" style="fill: #1f77b4; stroke: #1f77b4"/>
     <use xlink:href="#m7529770496" x="98.340538" y="250.735883" style="fill: #1f77b4; stroke: #1f77b4"/>
     <use xlink:href="#m7529770496" x="98.592834" y="251.614073" style="fill: #1f77b4; stroke: #1f77b4"/>
     <use xlink:href="#m7529770496" x="97.369622" y="247.077831" style="fill: #1f77b4; stroke: #1f77b4"/>
     <use xlink:href="#m7529770496" x="97.044946" y="249.679375" style="fill: #1f77b4; stroke: #1f77b4"/>
     <use xlink:href="#m7529770496" x="94.667868" y="243.397793" style="fill: #1f77b4; stroke: #1f77b4"/>
     <use xlink:href="#m7529770496" x="93.440699" y="243.59775" style="fill: #1f77b4; stroke: #1f77b4"/>
     <use xlink:href="#m7529770496" x="90.377041" y="243.447458" style="fill: #1f77b4; stroke: #1f77b4"/>
     <use xlink:href="#m7529770496" x="89.230744" y="241.990875" style="fill: #1f77b4; stroke: #1f77b4"/>
     <use xlink:href="#m7529770496" x="89.85182" y="238.919524" style="fill: #1f77b4; stroke: #1f77b4"/>
     <use xlink:href="#m7529770496" x="87.05959" y="237.120561" style="fill: #1f77b4; stroke: #1f77b4"/>
     <use xlink:href="#m7529770496" x="82.690581" y="236.408331" style="fill: #1f77b4; stroke: #1f77b4"/>
     <use xlink:href="#m7529770496" x="85.384536" y="234.184668" style="fill: #1f77b4; stroke: #1f77b4"/>
     <use xlink:href="#m7529770496" x="84.926432" y="232.702535" style="fill: #1f77b4; stroke: #1f77b4"/>
     <use xlink:href="#m7529770496" x="81.799076" y="230.582715" style="fill: #1f77b4; stroke: #1f77b4"/>
     <use xlink:href="#m7529770496" x="81.680785" y="229.352402" style="fill: #1f77b4; stroke: #1f77b4"/>
     <use xlink:href="#m7529770496" x="78.688279" y="226.013633" style="fill: #1f77b4; stroke: #1f77b4"/>
     <use xlink:href="#m7529770496" x="78.106812" y="224.795864" style="fill: #1f77b4; stroke: #1f77b4"/>
     <use xlink:href="#m7529770496" x="77.892744" y="223.553007" style="fill: #1f77b4; stroke: #1f77b4"/>
     <use xlink:href="#m7529770496" x="77.689855" y="221.205853" style="fill: #1f77b4; stroke: #1f77b4"/>
     <use xlink:href="#m7529770496" x="72.878993" y="218.413238" style="fill: #1f77b4; stroke: #1f77b4"/>
     <use xlink:href="#m7529770496" x="72.305403" y="215.927618" style="fill: #1f77b4; stroke: #1f77b4"/>
     <use xlink:href="#m7529770496" x="71.770307" y="213.549313" style="fill: #1f77b4; stroke: #1f77b4"/>
     <use xlink:href="#m7529770496" x="67.649637" y="211.6846" style="fill: #1f77b4; stroke: #1f77b4"/>
     <use xlink:href="#m7529770496" x="68.753444" y="208.872453" style="fill: #1f77b4; stroke: #1f77b4"/>
     <use xlink:href="#m7529770496" x="68.149579" y="204.619275" style="fill: #1f77b4; stroke: #1f77b4"/>
     <use xlink:href="#m7529770496" x="67.689477" y="203.43872" style="fill: #1f77b4; stroke: #1f77b4"/>
     <use xlink:href="#m7529770496" x="62.614026" y="201.517677" style="fill: #1f77b4; stroke: #1f77b4"/>
     <use xlink:href="#m7529770496" x="61.09307" y="198.569818" style="fill: #1f77b4; stroke: #1f77b4"/>
     <use xlink:href="#m7529770496" x="60.985075" y="193.750628" style="fill: #1f77b4; stroke: #1f77b4"/>
     <use xlink:href="#m7529770496" x="62.244016" y="193.020254" style="fill: #1f77b4; stroke: #1f77b4"/>
     <use xlink:href="#m7529770496" x="63.280897" y="188.964811" style="fill: #1f77b4; stroke: #1f77b4"/>
     <use xlink:href="#m7529770496" x="58.777616" y="186.650334" style="fill: #1f77b4; stroke: #1f77b4"/>
     <use xlink:href="#m7529770496" x="54.081165" y="179.699151" style="fill: #1f77b4; stroke: #1f77b4"/>
     <use xlink:href="#m7529770496" x="58.550292" y="177.562067" style="fill: #1f77b4; stroke: #1f77b4"/>
     <use xlink:href="#m7529770496" x="55.878006" y="175.28985" style="fill: #1f77b4; stroke: #1f77b4"/>
     <use xlink:href="#m7529770496" x="56.154351" y="169.266822" style="fill: #1f77b4; stroke: #1f77b4"/>
     <use xlink:href="#m7529770496" x="59.988879" y="165.788523" style="fill: #1f77b4; stroke: #1f77b4"/>
     <use xlink:href="#m7529770496" x="55.672696" y="159.222419" style="fill: #1f77b4; stroke: #1f77b4"/>
     <use xlink:href="#m7529770496" x="55.34414" y="156.323786" style="fill: #1f77b4; stroke: #1f77b4"/>
     <use xlink:href="#m7529770496" x="56.82564" y="150.33802" style="fill: #1f77b4; stroke: #1f77b4"/>
     <use xlink:href="#m7529770496" x="59.724943" y="145.157264" style="fill: #1f77b4; stroke: #1f77b4"/>
     <use xlink:href="#m7529770496" x="57.938859" y="138.30481" style="fill: #1f77b4; stroke: #1f77b4"/>
     <use xlink:href="#m7529770496" x="58.164876" y="132.983553" style="fill: #1f77b4; stroke: #1f77b4"/>
     <use xlink:href="#m7529770496" x="65.437798" y="127.137339" style="fill: #1f77b4; stroke: #1f77b4"/>
     <use xlink:href="#m7529770496" x="71.212584" y="118.844594" style="fill: #1f77b4; stroke: #1f77b4"/>
     <use xlink:href="#m7529770496" x="71.013383" y="112.07534" style="fill: #1f77b4; stroke: #1f77b4"/>
     <use xlink:href="#m7529770496" x="79.798386" y="104.062418" style="fill: #1f77b4; stroke: #1f77b4"/>
     <use xlink:href="#m7529770496" x="89.817935" y="95.289037" style="fill: #1f77b4; stroke: #1f77b4"/>
     <use xlink:href="#m7529770496" x="102.752768" y="88.803332" style="fill: #1f77b4; stroke: #1f77b4"/>
     <use xlink:href="#m7529770496" x="113.272566" y="77.939013" style="fill: #1f77b4; stroke: #1f77b4"/>
     <use xlink:href="#m7529770496" x="128.598999" y="72.689638" style="fill: #1f77b4; stroke: #1f77b4"/>
     <use xlink:href="#m7529770496" x="147.54447" y="66.342422" style="fill: #1f77b4; stroke: #1f77b4"/>
     <use xlink:href="#m7529770496" x="171.602121" y="61.17988" style="fill: #1f77b4; stroke: #1f77b4"/>
     <use xlink:href="#m7529770496" x="195.92048" y="53.856" style="fill: #1f77b4; stroke: #1f77b4"/>
     <use xlink:href="#m7529770496" x="223.581878" y="56.030715" style="fill: #1f77b4; stroke: #1f77b4"/>
     <use xlink:href="#m7529770496" x="250.743026" y="60.29521" style="fill: #1f77b4; stroke: #1f77b4"/>
     <use xlink:href="#m7529770496" x="281.627519" y="64.694653" style="fill: #1f77b4; stroke: #1f77b4"/>
     <use xlink:href="#m7529770496" x="304.829663" y="71.879813" style="fill: #1f77b4; stroke: #1f77b4"/>
     <use xlink:href="#m7529770496" x="327.109259" y="82.237945" style="fill: #1f77b4; stroke: #1f77b4"/>
     <use xlink:href="#m7529770496" x="344.801783" y="96.919008" style="fill: #1f77b4; stroke: #1f77b4"/>
     <use xlink:href="#m7529770496" x="360.363569" y="109.293996" style="fill: #1f77b4; stroke: #1f77b4"/>
     <use xlink:href="#m7529770496" x="367.89232" y="126.381114" style="fill: #1f77b4; stroke: #1f77b4"/>
     <use xlink:href="#m7529770496" x="374.584236" y="140.504566" style="fill: #1f77b4; stroke: #1f77b4"/>
     <use xlink:href="#m7529770496" x="370.899349" y="154.876668" style="fill: #1f77b4; stroke: #1f77b4"/>
     <use xlink:href="#m7529770496" x="364.242355" y="167.760759" style="fill: #1f77b4; stroke: #1f77b4"/>
     <use xlink:href="#m7529770496" x="363.734845" y="180.669358" style="fill: #1f77b4; stroke: #1f77b4"/>
     <use xlink:href="#m7529770496" x="349.98761" y="192.567435" style="fill: #1f77b4; stroke: #1f77b4"/>
     <use xlink:href="#m7529770496" x="342.84585" y="198.334314" style="fill: #1f77b4; stroke: #1f77b4"/>
     <use xlink:href="#m7529770496" x="329.037492" y="203.55469" style="fill: #1f77b4; stroke: #1f77b4"/>
     <use xlink:href="#m7529770496" x="318.962659" y="210.273053" style="fill: #1f77b4; stroke: #1f77b4"/>
     <use xlink:href="#m7529770496" x="307.442938" y="216.822078" style="fill: #1f77b4; stroke: #1f77b4"/>
     <use xlink:href="#m7529770496" x="297.611065" y="218.0853" style="fill: #1f77b4; stroke: #1f77b4"/>
     <use xlink:href="#m7529770496" x="286.531584" y="222.532302" style="fill: #1f77b4; stroke: #1f77b4"/>
     <use xlink:href="#m7529770496" x="274.507312" y="221.142857" style="fill: #1f77b4; stroke: #1f77b4"/>
     <use xlink:href="#m7529770496" x="267.486686" y="222.100914" style="fill: #1f77b4; stroke: #1f77b4"/>
     <use xlink:href="#m7529770496" x="257.073538" y="224.500488" style="fill: #1f77b4; stroke: #1f77b4"/>
     <use xlink:href="#m7529770496" x="249.598803" y="226.064849" style="fill: #1f77b4; stroke: #1f77b4"/>
     <use xlink:href="#m7529770496" x="241.727357" y="226.801102" style="fill: #1f77b4; stroke: #1f77b4"/>
     <use xlink:href="#m7529770496" x="235.500077" y="224.611691" style="fill: #1f77b4; stroke: #1f77b4"/>
     <use xlink:href="#m7529770496" x="230.253202" y="225.636029" style="fill: #1f77b4; stroke: #1f77b4"/>
     <use xlink:href="#m7529770496" x="222.844854" y="223.268671" style="fill: #1f77b4; stroke: #1f77b4"/>
     <use xlink:href="#m7529770496" x="215.759685" y="220.555623" style="fill: #1f77b4; stroke: #1f77b4"/>
     <use xlink:href="#m7529770496" x="213.673321" y="220.347612" style="fill: #1f77b4; stroke: #1f77b4"/>
     <use xlink:href="#m7529770496" x="207.248222" y="220.110511" style="fill: #1f77b4; stroke: #1f77b4"/>
     <use xlink:href="#m7529770496" x="204.375851" y="220.831906" style="fill: #1f77b4; stroke: #1f77b4"/>
     <use xlink:href="#m7529770496" x="201.032544" y="219.308392" style="fill: #1f77b4; stroke: #1f77b4"/>
     <use xlink:href="#m7529770496" x="195.244389" y="217.200931" style="fill: #1f77b4; stroke: #1f77b4"/>
     <use xlink:href="#m7529770496" x="193.355574" y="212.207334" style="fill: #1f77b4; stroke: #1f77b4"/>
     <use xlink:href="#m7529770496" x="187.893093" y="212.78663" style="fill: #1f77b4; stroke: #1f77b4"/>
     <use xlink:href="#m7529770496" x="184.920372" y="213.594558" style="fill: #1f77b4; stroke: #1f77b4"/>
     <use xlink:href="#m7529770496" x="181.150848" y="210.712889" style="fill: #1f77b4; stroke: #1f77b4"/>
     <use xlink:href="#m7529770496" x="182.499843" y="208.9183" style="fill: #1f77b4; stroke: #1f77b4"/>
     <use xlink:href="#m7529770496" x="178.114967" y="205.595916" style="fill: #1f77b4; stroke: #1f77b4"/>
     <use xlink:href="#m7529770496" x="175.981464" y="205.918902" style="fill: #1f77b4; stroke: #1f77b4"/>
     <use xlink:href="#m7529770496" x="165.705356" y="205.477585" style="fill: #1f77b4; stroke: #1f77b4"/>
     <use xlink:href="#m7529770496" x="169.405841" y="202.467425" style="fill: #1f77b4; stroke: #1f77b4"/>
     <use xlink:href="#m7529770496" x="167.05946" y="201.756468" style="fill: #1f77b4; stroke: #1f77b4"/>
     <use xlink:href="#m7529770496" x="164.80075" y="197.725209" style="fill: #1f77b4; stroke: #1f77b4"/>
     <use xlink:href="#m7529770496" x="165.362546" y="197.987352" style="fill: #1f77b4; stroke: #1f77b4"/>
     <use xlink:href="#m7529770496" x="161.049513" y="194.400303" style="fill: #1f77b4; stroke: #1f77b4"/>
     <use xlink:href="#m7529770496" x="161.247485" y="199.342406" style="fill: #1f77b4; stroke: #1f77b4"/>
     <use xlink:href="#m7529770496" x="157.471852" y="192.957814" style="fill: #1f77b4; stroke: #1f77b4"/>
     <use xlink:href="#m7529770496" x="160.991002" y="191.237908" style="fill: #1f77b4; stroke: #1f77b4"/>
     <use xlink:href="#m7529770496" x="155.221172" y="191.755643" style="fill: #1f77b4; stroke: #1f77b4"/>
     <use xlink:href="#m7529770496" x="152.21495" y="189.952954" style="fill: #1f77b4; stroke: #1f77b4"/>
     <use xlink:href="#m7529770496" x="153.383338" y="188.442354" style="fill: #1f77b4; stroke: #1f77b4"/>
     <use xlink:href="#m7529770496" x="156.972064" y="186.308186" style="fill: #1f77b4; stroke: #1f77b4"/>
     <use xlink:href="#m7529770496" x="150.16009" y="185.716624" style="fill: #1f77b4; stroke: #1f77b4"/>
     <use xlink:href="#m7529770496" x="152.500055" y="180.624761" style="fill: #1f77b4; stroke: #1f77b4"/>
     <use xlink:href="#m7529770496" x="148.056168" y="181.386217" style="fill: #1f77b4; stroke: #1f77b4"/>
     <use xlink:href="#m7529770496" x="148.664336" y="178.407717" style="fill: #1f77b4; stroke: #1f77b4"/>
     <use xlink:href="#m7529770496" x="148.092436" y="178.115975" style="fill: #1f77b4; stroke: #1f77b4"/>
     <use xlink:href="#m7529770496" x="149.854239" y="176.92975" style="fill: #1f77b4; stroke: #1f77b4"/>
     <use xlink:href="#m7529770496" x="146.323564" y="175.934849" style="fill: #1f77b4; stroke: #1f77b4"/>
     <use xlink:href="#m7529770496" x="146.152293" y="175.369531" style="fill: #1f77b4; stroke: #1f77b4"/>
     <use xlink:href="#m7529770496" x="146.49007" y="171.626475" style="fill: #1f77b4; stroke: #1f77b4"/>
     <use xlink:href="#m7529770496" x="143.587233" y="169.050295" style="fill: #1f77b4; stroke: #1f77b4"/>
     <use xlink:href="#m7529770496" x="143.634219" y="167.414214" style="fill: #1f77b4; stroke: #1f77b4"/>
     <use xlink:href="#m7529770496" x="142.628687" y="169.342153" style="fill: #1f77b4; stroke: #1f77b4"/>
     <use xlink:href="#m7529770496" x="146.116141" y="165.692757" style="fill: #1f77b4; stroke: #1f77b4"/>
     <use xlink:href="#m7529770496" x="142.271163" y="167.185698" style="fill: #1f77b4; stroke: #1f77b4"/>
     <use xlink:href="#m7529770496" x="146.753968" y="163.832788" style="fill: #1f77b4; stroke: #1f77b4"/>
     <use xlink:href="#m7529770496" x="141.769646" y="159.367897" style="fill: #1f77b4; stroke: #1f77b4"/>
     <use xlink:href="#m7529770496" x="141.87741" y="161.114603" style="fill: #1f77b4; stroke: #1f77b4"/>
     <use xlink:href="#m7529770496" x="142.941454" y="158.20949" style="fill: #1f77b4; stroke: #1f77b4"/>
     <use xlink:href="#m7529770496" x="144.13274" y="157.643756" style="fill: #1f77b4; stroke: #1f77b4"/>
     <use xlink:href="#m7529770496" x="147.377695" y="155.437843" style="fill: #1f77b4; stroke: #1f77b4"/>
     <use xlink:href="#m7529770496" x="142.978912" y="154.449863" style="fill: #1f77b4; stroke: #1f77b4"/>
     <use xlink:href="#m7529770496" x="147.286796" y="152.579572" style="fill: #1f77b4; stroke: #1f77b4"/>
     <use xlink:href="#m7529770496" x="146.531178" y="152.925956" style="fill: #1f77b4; stroke: #1f77b4"/>
     <use xlink:href="#m7529770496" x="146.985517" y="150.517356" style="fill: #1f77b4; stroke: #1f77b4"/>
     <use xlink:href="#m7529770496" x="145.164165" y="149.532036" style="fill: #1f77b4; stroke: #1f77b4"/>
     <use xlink:href="#m7529770496" x="144.943642" y="149.231592" style="fill: #1f77b4; stroke: #1f77b4"/>
     <use xlink:href="#m7529770496" x="145.652313" y="146.807232" style="fill: #1f77b4; stroke: #1f77b4"/>
     <use xlink:href="#m7529770496" x="141.47655" y="144.733999" style="fill: #1f77b4; stroke: #1f77b4"/>
     <use xlink:href="#m7529770496" x="148.689577" y="141.935761" style="fill: #1f77b4; stroke: #1f77b4"/>
     <use xlink:href="#m7529770496" x="144.891892" y="141.463294" style="fill: #1f77b4; stroke: #1f77b4"/>
     <use xlink:href="#m7529770496" x="145.376198" y="141.821203" style="fill: #1f77b4; stroke: #1f77b4"/>
     <use xlink:href="#m7529770496" x="145.119331" y="139.039165" style="fill: #1f77b4; stroke: #1f77b4"/>
     <use xlink:href="#m7529770496" x="146.997196" y="137.868168" style="fill: #1f77b4; stroke: #1f77b4"/>
     <use xlink:href="#m7529770496" x="149.622267" y="135.908985" style="fill: #1f77b4; stroke: #1f77b4"/>
     <use xlink:href="#m7529770496" x="144.973455" y="133.451715" style="fill: #1f77b4; stroke: #1f77b4"/>
     <use xlink:href="#m7529770496" x="147.518422" y="134.767982" style="fill: #1f77b4; stroke: #1f77b4"/>
     <use xlink:href="#m7529770496" x="145.271123" y="132.17058" style="fill: #1f77b4; stroke: #1f77b4"/>
     <use xlink:href="#m7529770496" x="148.470629" y="126.578386" style="fill: #1f77b4; stroke: #1f77b4"/>
     <use xlink:href="#m7529770496" x="150.526911" y="128.267072" style="fill: #1f77b4; stroke: #1f77b4"/>
     <use xlink:href="#m7529770496" x="149.251027" y="127.393071" style="fill: #1f77b4; stroke: #1f77b4"/>
     <use xlink:href="#m7529770496" x="154.421526" y="123.674476" style="fill: #1f77b4; stroke: #1f77b4"/>
     <use xlink:href="#m7529770496" x="154.47293" y="123.316244" style="fill: #1f77b4; stroke: #1f77b4"/>
     <use xlink:href="#m7529770496" x="147.987053" y="124.639708" style="fill: #1f77b4; stroke: #1f77b4"/>
     <use xlink:href="#m7529770496" x="153.467859" y="121.9732" style="fill: #1f77b4; stroke: #1f77b4"/>
     <use xlink:href="#m7529770496" x="152.945443" y="119.646458" style="fill: #1f77b4; stroke: #1f77b4"/>
     <use xlink:href="#m7529770496" x="153.591913" y="119.156772" style="fill: #1f77b4; stroke: #1f77b4"/>
     <use xlink:href="#m7529770496" x="153.831531" y="117.006079" style="fill: #1f77b4; stroke: #1f77b4"/>
     <use xlink:href="#m7529770496" x="157.121397" y="115.270714" style="fill: #1f77b4; stroke: #1f77b4"/>
     <use xlink:href="#m7529770496" x="154.7482" y="114.580331" style="fill: #1f77b4; stroke: #1f77b4"/>
     <use xlink:href="#m7529770496" x="154.175109" y="112.718788" style="fill: #1f77b4; stroke: #1f77b4"/>
     <use xlink:href="#m7529770496" x="157.774092" y="113.052675" style="fill: #1f77b4; stroke: #1f77b4"/>
     <use xlink:href="#m7529770496" x="156.356751" y="109.772272" style="fill: #1f77b4; stroke: #1f77b4"/>
     <use xlink:href="#m7529770496" x="159.319752" y="109.598375" style="fill: #1f77b4; stroke: #1f77b4"/>
     <use xlink:href="#m7529770496" x="159.055815" y="108.913731" style="fill: #1f77b4; stroke: #1f77b4"/>
     <use xlink:href="#m7529770496" x="160.91355" y="108.386924" style="fill: #1f77b4; stroke: #1f77b4"/>
     <use xlink:href="#m7529770496" x="163.761026" y="102.703059" style="fill: #1f77b4; stroke: #1f77b4"/>
     <use xlink:href="#m7529770496" x="163.338113" y="102.763463" style="fill: #1f77b4; stroke: #1f77b4"/>
     <use xlink:href="#m7529770496" x="161.434238" y="102.156372" style="fill: #1f77b4; stroke: #1f77b4"/>
     <use xlink:href="#m7529770496" x="163.726218" y="101.325417" style="fill: #1f77b4; stroke: #1f77b4"/>
     <use xlink:href="#m7529770496" x="166.713154" y="99.95164" style="fill: #1f77b4; stroke: #1f77b4"/>
     <use xlink:href="#m7529770496" x="162.656989" y="99.347997" style="fill: #1f77b4; stroke: #1f77b4"/>
     <use xlink:href="#m7529770496" x="166.28759" y="98.593855" style="fill: #1f77b4; stroke: #1f77b4"/>
    </g>
   </g>
   <g id="line2d_13">
    <path d="M 124.306397 295.776 
L 118.849649 290.718689 
L 113.533664 285.481113 
L 108.600172 280.313082 
L 103.790987 274.954548 
L 99.103974 269.386647 
L 94.762508 263.881319 
L 90.748118 258.447542 
L 86.829222 252.772462 
L 83.216866 247.158441 
L 79.89905 241.613631 
L 76.667316 235.773683 
L 73.72628 229.984165 
L 71.073827 224.256648 
L 68.710541 218.607882 
L 66.638593 213.061279 
L 64.860107 207.648321 
L 63.37501 202.409695 
L 62.178547 197.395901 
L 61.258768 192.667065 
L 60.512166 187.646995 
L 60.038643 182.984869 
L 59.776702 178.039838 
L 59.761279 173.550511 
L 59.984051 168.804841 
L 60.390138 164.635713 
L 61.037035 160.254636 
L 61.97089 155.644816 
L 62.9617 151.780681 
L 64.205497 147.750298 
L 65.741718 143.54515 
L 67.616283 139.157396 
L 69.882614 134.580398 
L 71.876423 131.020524 
L 74.155036 127.350513 
L 76.751582 123.570592 
L 79.702863 119.682559 
L 83.049601 115.690233 
L 86.836644 111.599998 
L 91.113068 107.42146 
L 95.932148 103.16823 
L 99.47446 100.300168 
L 103.301156 97.413948 
L 107.430647 94.517823 
L 111.881764 91.621549 
L 116.67355 88.736551 
L 121.825003 85.876107 
L 127.354732 83.055529 
L 133.280551 80.292333 
L 139.618974 77.606404 
L 146.384614 75.020128 
L 153.589482 72.55849 
L 161.242178 70.249116 
L 169.346985 68.122239 
L 177.902872 66.210572 
L 186.902426 64.549058 
L 196.330751 63.174487 
L 206.164381 62.124944 
L 216.370265 61.439081 
L 226.904896 61.155205 
L 232.278878 61.175622 
L 237.713689 61.31018 
L 243.200726 61.563056 
L 248.730681 61.938168 
L 254.29355 62.439139 
L 259.878668 63.06924 
L 265.474734 63.831352 
L 271.069858 64.727917 
L 276.651612 65.760895 
L 282.207094 66.931721 
L 287.723 68.24127 
L 293.1857 69.68982 
L 298.581335 71.277023 
L 303.895907 73.001883 
L 309.115384 74.862734 
L 314.225808 76.857236 
L 319.213406 78.982366 
L 324.064702 81.234428 
L 328.766631 83.609062 
L 333.306649 86.101268 
L 337.672843 88.705432 
L 341.854027 91.415367 
L 345.839842 94.224355 
L 349.620837 97.125198 
L 353.188544 100.110275 
L 356.535545 103.171601 
L 359.655517 106.300898 
L 362.543268 109.489657 
L 365.194766 112.729211 
L 367.607143 116.010804 
L 369.77869 119.32566 
L 371.708842 122.66505 
L 373.398146 126.02036 
L 374.848221 129.383145 
L 376.061705 132.745194 
L 377.042193 136.098574 
L 377.794173 139.435679 
L 378.322949 142.749269 
L 378.634562 146.032502 
L 378.73571 149.278965 
L 378.633667 152.482691 
L 378.336195 155.638175 
L 377.851463 158.740383 
L 377.187971 161.784759 
L 376.354466 164.767217 
L 375.359873 167.684143 
L 374.213223 170.532379 
L 372.92359 173.309213 
L 371.500032 176.012362 
L 369.951536 178.639954 
L 368.286969 181.190506 
L 366.515039 183.662901 
L 364.644253 186.056371 
L 362.682888 188.370463 
L 358.520223 192.760168 
L 354.087742 196.8339 
L 349.44121 200.597138 
L 344.631189 204.058245 
L 339.702988 207.227815 
L 334.69675 210.118094 
L 329.647671 212.742479 
L 324.586279 215.115085 
L 319.538789 217.250394 
L 314.52746 219.162967 
L 309.570986 220.867208 
L 304.684863 222.377194 
L 297.514602 224.307565 
L 290.563113 225.874859 
L 283.85268 227.119322 
L 277.397345 228.077749 
L 271.204649 228.783471 
L 265.277084 229.266457 
L 257.783292 229.609856 
L 250.747214 229.660091 
L 244.151954 229.464418 
L 237.976916 229.062902 
L 232.199489 228.489408 
L 225.501122 227.57378 
L 219.341742 226.479856 
L 213.67724 225.24482 
L 208.465972 223.898655 
L 202.756432 222.17027 
L 197.582982 220.349506 
L 192.891002 218.461954 
L 188.631888 216.527421 
L 184.152825 214.231356 
L 180.144582 211.910615 
L 176.555287 209.578936 
L 173.340027 207.246482 
L 170.073749 204.589372 
L 167.195332 201.948969 
L 164.662108 199.330793 
L 162.437541 196.738563 
L 160.264925 193.856285 
L 158.405106 191.011908 
L 156.825561 188.206416 
L 155.365558 185.13511 
L 154.184864 182.111792 
L 153.255898 179.135662 
L 152.496785 175.915122 
L 151.987139 172.748715 
L 151.704249 169.6347 
L 151.631504 166.295299 
L 151.783981 163.013992 
L 152.182016 159.522414 
L 152.802765 156.094186 
L 153.629101 152.727122 
L 154.732049 149.167213 
L 156.040466 145.67381 
L 157.654791 142.002551 
L 159.474622 138.403498 
L 161.627995 134.642208 
L 163.987282 130.959472 
L 166.706481 127.131094 
L 169.632386 123.388522 
L 172.943469 119.518203 
L 176.462277 115.742068 
L 180.390386 111.857666 
L 184.304421 108.273514 
L 184.304421 108.273514 
" clip-path="url(#p3dabe39754)" style="fill: none; stroke: #d62728; stroke-width: 1.5; stroke-linecap: square"/>
   </g>
   <g id="patch_3">
    <path d="M 37.848438 307.872 
L 37.848438 41.76 
" style="fill: none; stroke: #000000; stroke-width: 0.8; stroke-linejoin: miter; stroke-linecap: square"/>
   </g>
   <g id="patch_4">
    <path d="M 394.968438 307.872 
L 394.968438 41.76 
" style="fill: none; stroke: #000000; stroke-width: 0.8; stroke-linejoin: miter; stroke-linecap: square"/>
   </g>
   <g id="patch_5">
    <path d="M 37.848437 307.872 
L 394.968438 307.872 
" style="fill: none; stroke: #000000; stroke-width: 0.8; stroke-linejoin: miter; stroke-linecap: square"/>
   </g>
   <g id="patch_6">
    <path d="M 37.848437 41.76 
L 394.968438 41.76 
" style="fill: none; stroke: #000000; stroke-width: 0.8; stroke-linejoin: miter; stroke-linecap: square"/>
   </g>
   <g id="text_14">
    <g id="patch_7">
     <path d="M 412.824438 102.337163 
L 551.824438 102.337163 
Q 555.824438 102.337163 555.824438 98.337163 
L 555.824438 55.0656 
Q 555.824438 51.0656 551.824438 51.0656 
L 412.824438 51.0656 
Q 408.824438 51.0656 408.824438 55.0656 
L 408.824438 98.337163 
Q 408.824438 102.337163 412.824438 102.337163 
z
" style="fill: #ffffff; opacity: 0.5; stroke: #000000; stroke-linejoin: miter"/>
    </g>
    <!-- Summary -->
    <g transform="translate(412.824438 62.664038) scale(0.1 -0.1)">
     <defs>
      <path id="DejaVuSans-53" d="M 3425 4513 
L 3425 3897 
Q 3066 4069 2747 4153 
Q 2428 4238 2131 4238 
Q 1616 4238 1336 4038 
Q 1056 3838 1056 3469 
Q 1056 3159 1242 3001 
Q 1428 2844 1947 2747 
L 2328 2669 
Q 3034 2534 3370 2195 
Q 3706 1856 3706 1288 
Q 3706 609 3251 259 
Q 2797 -91 1919 -91 
Q 1588 -91 1214 -16 
Q 841 59 441 206 
L 441 856 
Q 825 641 1194 531 
Q 1563 422 1919 422 
Q 2459 422 2753 634 
Q 3047 847 3047 1241 
Q 3047 1584 2836 1778 
Q 2625 1972 2144 2069 
L 1759 2144 
Q 1053 2284 737 2584 
Q 422 2884 422 3419 
Q 422 4038 858 4394 
Q 1294 4750 2059 4750 
Q 2388 4750 2728 4690 
Q 3069 4631 3425 4513 
z
" transform="scale(0.015625)"/>
      <path id="DejaVuSans-75" d="M 544 1381 
L 544 3500 
L 1119 3500 
L 1119 1403 
Q 1119 906 1312 657 
Q 1506 409 1894 409 
Q 2359 409 2629 706 
Q 2900 1003 2900 1516 
L 2900 3500 
L 3475 3500 
L 3475 0 
L 2900 0 
L 2900 538 
Q 2691 219 2414 64 
Q 2138 -91 1772 -91 
Q 1169 -91 856 284 
Q 544 659 544 1381 
z
M 1991 3584 
L 1991 3584 
z
" transform="scale(0.015625)"/>
      <path id="DejaVuSans-61" d="M 2194 1759 
Q 1497 1759 1228 1600 
Q 959 1441 959 1056 
Q 959 750 1161 570 
Q 1363 391 1709 391 
Q 2188 391 2477 730 
Q 2766 1069 2766 1631 
L 2766 1759 
L 2194 1759 
z
M 3341 1997 
L 3341 0 
L 2766 0 
L 2766 531 
Q 2569 213 2275 61 
Q 1981 -91 1556 -91 
Q 1019 -91 701 211 
Q 384 513 384 1019 
Q 384 1609 779 1909 
Q 1175 2209 1959 2209 
L 2766 2209 
L 2766 2266 
Q 2766 2663 2505 2880 
Q 2244 3097 1772 3097 
Q 1472 3097 1187 3025 
Q 903 2953 641 2809 
L 641 3341 
Q 956 3463 1253 3523 
Q 1550 3584 1831 3584 
Q 2591 3584 2966 3190 
Q 3341 2797 3341 1997 
z
" transform="scale(0.015625)"/>
      <path id="DejaVuSans-72" d="M 2631 2963 
Q 2534 3019 2420 3045 
Q 2306 3072 2169 3072 
Q 1681 3072 1420 2755 
Q 1159 2438 1159 1844 
L 1159 0 
L 581 0 
L 581 3500 
L 1159 3500 
L 1159 2956 
Q 1341 3275 1631 3429 
Q 1922 3584 2338 3584 
Q 2397 3584 2469 3576 
Q 2541 3569 2628 3553 
L 2631 2963 
z
" transform="scale(0.015625)"/>
      <path id="DejaVuSans-79" d="M 2059 -325 
Q 1816 -950 1584 -1140 
Q 1353 -1331 966 -1331 
L 506 -1331 
L 506 -850 
L 844 -850 
Q 1081 -850 1212 -737 
Q 1344 -625 1503 -206 
L 1606 56 
L 191 3500 
L 800 3500 
L 1894 763 
L 2988 3500 
L 3597 3500 
L 2059 -325 
z
" transform="scale(0.015625)"/>
     </defs>
     <use xlink:href="#DejaVuSans-53"/>
     <use xlink:href="#DejaVuSans-75" x="63.476562"/>
     <use xlink:href="#DejaVuSans-6d" x="126.855469"/>
     <use xlink:href="#DejaVuSans-6d" x="224.267578"/>
     <use xlink:href="#DejaVuSans-61" x="321.679688"/>
     <use xlink:href="#DejaVuSans-72" x="382.958984"/>
     <use xlink:href="#DejaVuSans-79" x="424.072266"/>
    </g>
    <!-- $Q_I$: 18.0$\pm$1.1 k -->
    <g transform="translate(412.824438 73.86185) scale(0.1 -0.1)">
     <defs>
      <path id="DejaVuSans-Oblique-51" d="M 2309 -84 
Q 2275 -88 2237 -89 
Q 2200 -91 2125 -91 
Q 1250 -91 756 411 
Q 263 913 263 1797 
Q 263 2319 452 2844 
Q 641 3369 978 3788 
Q 1369 4269 1858 4509 
Q 2347 4750 2938 4750 
Q 3794 4750 4287 4245 
Q 4781 3741 4781 2869 
Q 4781 1928 4265 1147 
Q 3750 366 2919 44 
L 3553 -825 
L 2847 -825 
L 2309 -84 
z
M 2919 4238 
Q 2400 4238 2003 3986 
Q 1606 3734 1313 3219 
Q 1125 2891 1026 2522 
Q 928 2153 928 1778 
Q 928 1128 1239 775 
Q 1550 422 2119 422 
Q 2631 422 3032 676 
Q 3434 931 3719 1434 
Q 3909 1772 4009 2142 
Q 4109 2513 4109 2881 
Q 4109 3528 3796 3883 
Q 3484 4238 2919 4238 
z
" transform="scale(0.015625)"/>
      <path id="DejaVuSans-Oblique-49" d="M 1081 4666 
L 1716 4666 
L 806 0 
L 172 0 
L 1081 4666 
z
" transform="scale(0.015625)"/>
      <path id="DejaVuSans-3a" d="M 750 794 
L 1409 794 
L 1409 0 
L 750 0 
L 750 794 
z
M 750 3309 
L 1409 3309 
L 1409 2516 
L 750 2516 
L 750 3309 
z
" transform="scale(0.015625)"/>
      <path id="DejaVuSans-2e" d="M 684 794 
L 1344 794 
L 1344 0 
L 684 0 
L 684 794 
z
" transform="scale(0.015625)"/>
      <path id="DejaVuSans-b1" d="M 2944 4013 
L 2944 2803 
L 4684 2803 
L 4684 2272 
L 2944 2272 
L 2944 1063 
L 2419 1063 
L 2419 2272 
L 678 2272 
L 678 2803 
L 2419 2803 
L 2419 4013 
L 2944 4013 
z
M 678 531 
L 4684 531 
L 4684 0 
L 678 0 
L 678 531 
z
" transform="scale(0.015625)"/>
      <path id="DejaVuSans-6b" d="M 581 4863 
L 1159 4863 
L 1159 1991 
L 2875 3500 
L 3609 3500 
L 1753 1863 
L 3688 0 
L 2938 0 
L 1159 1709 
L 1159 0 
L 581 0 
L 581 4863 
z
" transform="scale(0.015625)"/>
     </defs>
     <use xlink:href="#DejaVuSans-Oblique-51" transform="translate(0 0.015625)"/>
     <use xlink:href="#DejaVuSans-Oblique-49" transform="translate(78.710938 -16.390625) scale(0.7)"/>
     <use xlink:href="#DejaVuSans-3a" transform="translate(102.089844 0.015625)"/>
     <use xlink:href="#DejaVuSans-20" transform="translate(135.78125 0.015625)"/>
     <use xlink:href="#DejaVuSans-31" transform="translate(167.568359 0.015625)"/>
     <use xlink:href="#DejaVuSans-38" transform="translate(231.191406 0.015625)"/>
     <use xlink:href="#DejaVuSans-2e" transform="translate(294.814453 0.015625)"/>
     <use xlink:href="#DejaVuSans-30" transform="translate(326.601562 0.015625)"/>
     <use xlink:href="#DejaVuSans-b1" transform="translate(390.224609 0.015625)"/>
     <use xlink:href="#DejaVuSans-31" transform="translate(474.013672 0.015625)"/>
     <use xlink:href="#DejaVuSans-2e" transform="translate(537.636719 0.015625)"/>
     <use xlink:href="#DejaVuSans-31" transform="translate(569.423828 0.015625)"/>
     <use xlink:href="#DejaVuSans-20" transform="translate(633.046875 0.015625)"/>
     <use xlink:href="#DejaVuSans-6b" transform="translate(664.833984 0.015625)"/>
    </g>
    <!-- $Q_C$: 3.452$\pm$0.046 k -->
    <g transform="translate(412.824438 85.059663) scale(0.1 -0.1)">
     <defs>
      <path id="DejaVuSans-Oblique-43" d="M 4447 4306 
L 4319 3641 
Q 4019 3944 3683 4091 
Q 3347 4238 2956 4238 
Q 2422 4238 2017 3981 
Q 1613 3725 1319 3200 
Q 1131 2863 1032 2486 
Q 934 2109 934 1728 
Q 934 1091 1264 756 
Q 1594 422 2222 422 
Q 2656 422 3056 561 
Q 3456 700 3834 978 
L 3688 231 
Q 3316 72 2936 -9 
Q 2556 -91 2175 -91 
Q 1278 -91 773 396 
Q 269 884 269 1753 
Q 269 2309 461 2846 
Q 653 3384 1013 3828 
Q 1394 4300 1883 4525 
Q 2372 4750 3022 4750 
Q 3422 4750 3780 4639 
Q 4138 4528 4447 4306 
z
" transform="scale(0.015625)"/>
      <path id="DejaVuSans-33" d="M 2597 2516 
Q 3050 2419 3304 2112 
Q 3559 1806 3559 1356 
Q 3559 666 3084 287 
Q 2609 -91 1734 -91 
Q 1441 -91 1130 -33 
Q 819 25 488 141 
L 488 750 
Q 750 597 1062 519 
Q 1375 441 1716 441 
Q 2309 441 2620 675 
Q 2931 909 2931 1356 
Q 2931 1769 2642 2001 
Q 2353 2234 1838 2234 
L 1294 2234 
L 1294 2753 
L 1863 2753 
Q 2328 2753 2575 2939 
Q 2822 3125 2822 3475 
Q 2822 3834 2567 4026 
Q 2313 4219 1838 4219 
Q 1578 4219 1281 4162 
Q 984 4106 628 3988 
L 628 4550 
Q 988 4650 1302 4700 
Q 1616 4750 1894 4750 
Q 2613 4750 3031 4423 
Q 3450 4097 3450 3541 
Q 3450 3153 3228 2886 
Q 3006 2619 2597 2516 
z
" transform="scale(0.015625)"/>
      <path id="DejaVuSans-35" d="M 691 4666 
L 3169 4666 
L 3169 4134 
L 1269 4134 
L 1269 2991 
Q 1406 3038 1543 3061 
Q 1681 3084 1819 3084 
Q 2600 3084 3056 2656 
Q 3513 2228 3513 1497 
Q 3513 744 3044 326 
Q 2575 -91 1722 -91 
Q 1428 -91 1123 -41 
Q 819 9 494 109 
L 494 744 
Q 775 591 1075 516 
Q 1375 441 1709 441 
Q 2250 441 2565 725 
Q 2881 1009 2881 1497 
Q 2881 1984 2565 2268 
Q 2250 2553 1709 2553 
Q 1456 2553 1204 2497 
Q 953 2441 691 2322 
L 691 4666 
z
" transform="scale(0.015625)"/>
     </defs>
     <use xlink:href="#DejaVuSans-Oblique-51" transform="translate(0 0.015625)"/>
     <use xlink:href="#DejaVuSans-Oblique-43" transform="translate(78.710938 -16.390625) scale(0.7)"/>
     <use xlink:href="#DejaVuSans-3a" transform="translate(130.322266 0.015625)"/>
     <use xlink:href="#DejaVuSans-20" transform="translate(164.013672 0.015625)"/>
     <use xlink:href="#DejaVuSans-33" transform="translate(195.800781 0.015625)"/>
     <use xlink:href="#DejaVuSans-2e" transform="translate(259.423828 0.015625)"/>
     <use xlink:href="#DejaVuSans-34" transform="translate(291.210938 0.015625)"/>
     <use xlink:href="#DejaVuSans-35" transform="translate(354.833984 0.015625)"/>
     <use xlink:href="#DejaVuSans-32" transform="translate(418.457031 0.015625)"/>
     <use xlink:href="#DejaVuSans-b1" transform="translate(482.080078 0.015625)"/>
     <use xlink:href="#DejaVuSans-30" transform="translate(565.869141 0.015625)"/>
     <use xlink:href="#DejaVuSans-2e" transform="translate(629.492188 0.015625)"/>
     <use xlink:href="#DejaVuSans-30" transform="translate(661.279297 0.015625)"/>
     <use xlink:href="#DejaVuSans-34" transform="translate(724.902344 0.015625)"/>
     <use xlink:href="#DejaVuSans-36" transform="translate(788.525391 0.015625)"/>
     <use xlink:href="#DejaVuSans-20" transform="translate(852.148438 0.015625)"/>
     <use xlink:href="#DejaVuSans-6b" transform="translate(883.935547 0.015625)"/>
    </g>
    <!-- $f_{res}$: 5.837790$\pm$1.3e-05 GHz -->
    <g transform="translate(412.824438 96.257475) scale(0.1 -0.1)">
     <defs>
      <path id="DejaVuSans-Oblique-66" d="M 3059 4863 
L 2969 4384 
L 2419 4384 
Q 2106 4384 1964 4261 
Q 1822 4138 1753 3809 
L 1691 3500 
L 2638 3500 
L 2553 3053 
L 1606 3053 
L 1013 0 
L 434 0 
L 1031 3053 
L 481 3053 
L 563 3500 
L 1113 3500 
L 1159 3744 
Q 1278 4363 1576 4613 
Q 1875 4863 2516 4863 
L 3059 4863 
z
" transform="scale(0.015625)"/>
      <path id="DejaVuSans-Oblique-72" d="M 2853 2969 
Q 2766 3016 2653 3041 
Q 2541 3066 2413 3066 
Q 1953 3066 1609 2717 
Q 1266 2369 1153 1784 
L 800 0 
L 225 0 
L 909 3500 
L 1484 3500 
L 1375 2956 
Q 1603 3259 1920 3421 
Q 2238 3584 2597 3584 
Q 2691 3584 2781 3573 
Q 2872 3563 2963 3538 
L 2853 2969 
z
" transform="scale(0.015625)"/>
      <path id="DejaVuSans-Oblique-65" d="M 3078 2063 
Q 3088 2113 3092 2166 
Q 3097 2219 3097 2272 
Q 3097 2653 2873 2875 
Q 2650 3097 2266 3097 
Q 1838 3097 1509 2826 
Q 1181 2556 1013 2059 
L 3078 2063 
z
M 3578 1613 
L 903 1613 
Q 884 1494 878 1425 
Q 872 1356 872 1306 
Q 872 872 1139 634 
Q 1406 397 1894 397 
Q 2269 397 2603 481 
Q 2938 566 3225 728 
L 3116 159 
Q 2806 34 2476 -28 
Q 2147 -91 1806 -91 
Q 1078 -91 686 257 
Q 294 606 294 1247 
Q 294 1794 489 2264 
Q 684 2734 1063 3103 
Q 1306 3334 1642 3459 
Q 1978 3584 2356 3584 
Q 2950 3584 3301 3228 
Q 3653 2872 3653 2272 
Q 3653 2128 3634 1964 
Q 3616 1800 3578 1613 
z
" transform="scale(0.015625)"/>
      <path id="DejaVuSans-Oblique-73" d="M 3200 3397 
L 3091 2853 
Q 2863 2978 2609 3040 
Q 2356 3103 2088 3103 
Q 1634 3103 1373 2948 
Q 1113 2794 1113 2528 
Q 1113 2219 1719 2053 
Q 1766 2041 1788 2034 
L 1972 1978 
Q 2547 1819 2739 1644 
Q 2931 1469 2931 1166 
Q 2931 609 2489 259 
Q 2047 -91 1331 -91 
Q 1053 -91 747 -37 
Q 441 16 72 128 
L 184 722 
Q 500 559 806 475 
Q 1113 391 1394 391 
Q 1816 391 2080 572 
Q 2344 753 2344 1031 
Q 2344 1331 1650 1516 
L 1591 1531 
L 1394 1581 
Q 956 1697 753 1886 
Q 550 2075 550 2369 
Q 550 2928 970 3256 
Q 1391 3584 2113 3584 
Q 2397 3584 2667 3537 
Q 2938 3491 3200 3397 
z
" transform="scale(0.015625)"/>
      <path id="DejaVuSans-37" d="M 525 4666 
L 3525 4666 
L 3525 4397 
L 1831 0 
L 1172 0 
L 2766 4134 
L 525 4134 
L 525 4666 
z
" transform="scale(0.015625)"/>
      <path id="DejaVuSans-39" d="M 703 97 
L 703 672 
Q 941 559 1184 500 
Q 1428 441 1663 441 
Q 2288 441 2617 861 
Q 2947 1281 2994 2138 
Q 2813 1869 2534 1725 
Q 2256 1581 1919 1581 
Q 1219 1581 811 2004 
Q 403 2428 403 3163 
Q 403 3881 828 4315 
Q 1253 4750 1959 4750 
Q 2769 4750 3195 4129 
Q 3622 3509 3622 2328 
Q 3622 1225 3098 567 
Q 2575 -91 1691 -91 
Q 1453 -91 1209 -44 
Q 966 3 703 97 
z
M 1959 2075 
Q 2384 2075 2632 2365 
Q 2881 2656 2881 3163 
Q 2881 3666 2632 3958 
Q 2384 4250 1959 4250 
Q 1534 4250 1286 3958 
Q 1038 3666 1038 3163 
Q 1038 2656 1286 2365 
Q 1534 2075 1959 2075 
z
" transform="scale(0.015625)"/>
      <path id="DejaVuSans-47" d="M 3809 666 
L 3809 1919 
L 2778 1919 
L 2778 2438 
L 4434 2438 
L 4434 434 
Q 4069 175 3628 42 
Q 3188 -91 2688 -91 
Q 1594 -91 976 548 
Q 359 1188 359 2328 
Q 359 3472 976 4111 
Q 1594 4750 2688 4750 
Q 3144 4750 3555 4637 
Q 3966 4525 4313 4306 
L 4313 3634 
Q 3963 3931 3569 4081 
Q 3175 4231 2741 4231 
Q 1884 4231 1454 3753 
Q 1025 3275 1025 2328 
Q 1025 1384 1454 906 
Q 1884 428 2741 428 
Q 3075 428 3337 486 
Q 3600 544 3809 666 
z
" transform="scale(0.015625)"/>
      <path id="DejaVuSans-48" d="M 628 4666 
L 1259 4666 
L 1259 2753 
L 3553 2753 
L 3553 4666 
L 4184 4666 
L 4184 0 
L 3553 0 
L 3553 2222 
L 1259 2222 
L 1259 0 
L 628 0 
L 628 4666 
z
" transform="scale(0.015625)"/>
      <path id="DejaVuSans-7a" d="M 353 3500 
L 3084 3500 
L 3084 2975 
L 922 459 
L 3084 459 
L 3084 0 
L 275 0 
L 275 525 
L 2438 3041 
L 353 3041 
L 353 3500 
z
" transform="scale(0.015625)"/>
     </defs>
     <use xlink:href="#DejaVuSans-Oblique-66" transform="translate(0 0.015625)"/>
     <use xlink:href="#DejaVuSans-Oblique-72" transform="translate(35.205078 -16.390625) scale(0.7)"/>
     <use xlink:href="#DejaVuSans-Oblique-65" transform="translate(63.984375 -16.390625) scale(0.7)"/>
     <use xlink:href="#DejaVuSans-Oblique-73" transform="translate(107.050781 -16.390625) scale(0.7)"/>
     <use xlink:href="#DejaVuSans-3a" transform="translate(146.254883 0.015625)"/>
     <use xlink:href="#DejaVuSans-20" transform="translate(179.946289 0.015625)"/>
     <use xlink:href="#DejaVuSans-35" transform="translate(211.733398 0.015625)"/>
     <use xlink:href="#DejaVuSans-2e" transform="translate(275.356445 0.015625)"/>
     <use xlink:href="#DejaVuSans-38" transform="translate(304.518555 0.015625)"/>
     <use xlink:href="#DejaVuSans-33" transform="translate(368.141602 0.015625)"/>
     <use xlink:href="#DejaVuSans-37" transform="translate(431.764648 0.015625)"/>
     <use xlink:href="#DejaVuSans-37" transform="translate(493.637695 0.015625)"/>
     <use xlink:href="#DejaVuSans-39" transform="translate(557.260742 0.015625)"/>
     <use xlink:href="#DejaVuSans-30" transform="translate(620.883789 0.015625)"/>
     <use xlink:href="#DejaVuSans-b1" transform="translate(684.506836 0.015625)"/>
     <use xlink:href="#DejaVuSans-31" transform="translate(768.295898 0.015625)"/>
     <use xlink:href="#DejaVuSans-2e" transform="translate(831.918945 0.015625)"/>
     <use xlink:href="#DejaVuSans-33" transform="translate(863.706055 0.015625)"/>
     <use xlink:href="#DejaVuSans-65" transform="translate(927.329102 0.015625)"/>
     <use xlink:href="#DejaVuSans-2d" transform="translate(988.852539 0.015625)"/>
     <use xlink:href="#DejaVuSans-30" transform="translate(1024.936523 0.015625)"/>
     <use xlink:href="#DejaVuSans-35" transform="translate(1088.55957 0.015625)"/>
     <use xlink:href="#DejaVuSans-20" transform="translate(1152.182617 0.015625)"/>
     <use xlink:href="#DejaVuSans-47" transform="translate(1183.969727 0.015625)"/>
     <use xlink:href="#DejaVuSans-48" transform="translate(1261.459961 0.015625)"/>
     <use xlink:href="#DejaVuSans-7a" transform="translate(1336.655273 0.015625)"/>
    </g>
   </g>
  </g>
  <g id="text_15">
   <!-- S21 resonator spectroscopy -->
   <g transform="translate(126.864063 16.318125) scale(0.12 -0.12)">
    <defs>
     <path id="DejaVuSans-73" d="M 2834 3397 
L 2834 2853 
Q 2591 2978 2328 3040 
Q 2066 3103 1784 3103 
Q 1356 3103 1142 2972 
Q 928 2841 928 2578 
Q 928 2378 1081 2264 
Q 1234 2150 1697 2047 
L 1894 2003 
Q 2506 1872 2764 1633 
Q 3022 1394 3022 966 
Q 3022 478 2636 193 
Q 2250 -91 1575 -91 
Q 1294 -91 989 -36 
Q 684 19 347 128 
L 347 722 
Q 666 556 975 473 
Q 1284 391 1588 391 
Q 1994 391 2212 530 
Q 2431 669 2431 922 
Q 2431 1156 2273 1281 
Q 2116 1406 1581 1522 
L 1381 1569 
Q 847 1681 609 1914 
Q 372 2147 372 2553 
Q 372 3047 722 3315 
Q 1072 3584 1716 3584 
Q 2034 3584 2315 3537 
Q 2597 3491 2834 3397 
z
" transform="scale(0.015625)"/>
     <path id="DejaVuSans-6f" d="M 1959 3097 
Q 1497 3097 1228 2736 
Q 959 2375 959 1747 
Q 959 1119 1226 758 
Q 1494 397 1959 397 
Q 2419 397 2687 759 
Q 2956 1122 2956 1747 
Q 2956 2369 2687 2733 
Q 2419 3097 1959 3097 
z
M 1959 3584 
Q 2709 3584 3137 3096 
Q 3566 2609 3566 1747 
Q 3566 888 3137 398 
Q 2709 -91 1959 -91 
Q 1206 -91 779 398 
Q 353 888 353 1747 
Q 353 2609 779 3096 
Q 1206 3584 1959 3584 
z
" transform="scale(0.015625)"/>
     <path id="DejaVuSans-6e" d="M 3513 2113 
L 3513 0 
L 2938 0 
L 2938 2094 
Q 2938 2591 2744 2837 
Q 2550 3084 2163 3084 
Q 1697 3084 1428 2787 
Q 1159 2491 1159 1978 
L 1159 0 
L 581 0 
L 581 3500 
L 1159 3500 
L 1159 2956 
Q 1366 3272 1645 3428 
Q 1925 3584 2291 3584 
Q 2894 3584 3203 3211 
Q 3513 2838 3513 2113 
z
" transform="scale(0.015625)"/>
     <path id="DejaVuSans-74" d="M 1172 4494 
L 1172 3500 
L 2356 3500 
L 2356 3053 
L 1172 3053 
L 1172 1153 
Q 1172 725 1289 603 
Q 1406 481 1766 481 
L 2356 481 
L 2356 0 
L 1766 0 
Q 1100 0 847 248 
Q 594 497 594 1153 
L 594 3053 
L 172 3053 
L 172 3500 
L 594 3500 
L 594 4494 
L 1172 4494 
z
" transform="scale(0.015625)"/>
     <path id="DejaVuSans-70" d="M 1159 525 
L 1159 -1331 
L 581 -1331 
L 581 3500 
L 1159 3500 
L 1159 2969 
Q 1341 3281 1617 3432 
Q 1894 3584 2278 3584 
Q 2916 3584 3314 3078 
Q 3713 2572 3713 1747 
Q 3713 922 3314 415 
Q 2916 -91 2278 -91 
Q 1894 -91 1617 61 
Q 1341 213 1159 525 
z
M 3116 1747 
Q 3116 2381 2855 2742 
Q 2594 3103 2138 3103 
Q 1681 3103 1420 2742 
Q 1159 2381 1159 1747 
Q 1159 1113 1420 752 
Q 1681 391 2138 391 
Q 2594 391 2855 752 
Q 3116 1113 3116 1747 
z
" transform="scale(0.015625)"/>
     <path id="DejaVuSans-63" d="M 3122 3366 
L 3122 2828 
Q 2878 2963 2633 3030 
Q 2388 3097 2138 3097 
Q 1578 3097 1268 2742 
Q 959 2388 959 1747 
Q 959 1106 1268 751 
Q 1578 397 2138 397 
Q 2388 397 2633 464 
Q 2878 531 3122 666 
L 3122 134 
Q 2881 22 2623 -34 
Q 2366 -91 2075 -91 
Q 1284 -91 818 406 
Q 353 903 353 1747 
Q 353 2603 823 3093 
Q 1294 3584 2113 3584 
Q 2378 3584 2631 3529 
Q 2884 3475 3122 3366 
z
" transform="scale(0.015625)"/>
    </defs>
    <use xlink:href="#DejaVuSans-53"/>
    <use xlink:href="#DejaVuSans-32" x="63.476562"/>
    <use xlink:href="#DejaVuSans-31" x="127.099609"/>
    <use xlink:href="#DejaVuSans-20" x="190.722656"/>
    <use xlink:href="#DejaVuSans-72" x="222.509766"/>
    <use xlink:href="#DejaVuSans-65" x="261.373047"/>
    <use xlink:href="#DejaVuSans-73" x="322.896484"/>
    <use xlink:href="#DejaVuSans-6f" x="374.996094"/>
    <use xlink:href="#DejaVuSans-6e" x="436.177734"/>
    <use xlink:href="#DejaVuSans-61" x="499.556641"/>
    <use xlink:href="#DejaVuSans-74" x="560.835938"/>
    <use xlink:href="#DejaVuSans-6f" x="600.044922"/>
    <use xlink:href="#DejaVuSans-72" x="661.226562"/>
    <use xlink:href="#DejaVuSans-20" x="702.339844"/>
    <use xlink:href="#DejaVuSans-73" x="734.126953"/>
    <use xlink:href="#DejaVuSans-70" x="786.226562"/>
    <use xlink:href="#DejaVuSans-65" x="849.703125"/>
    <use xlink:href="#DejaVuSans-63" x="911.226562"/>
    <use xlink:href="#DejaVuSans-74" x="966.207031"/>
    <use xlink:href="#DejaVuSans-72" x="1005.416016"/>
    <use xlink:href="#DejaVuSans-6f" x="1044.279297"/>
    <use xlink:href="#DejaVuSans-73" x="1105.460938"/>
    <use xlink:href="#DejaVuSans-63" x="1157.560547"/>
    <use xlink:href="#DejaVuSans-6f" x="1212.541016"/>
    <use xlink:href="#DejaVuSans-70" x="1273.722656"/>
    <use xlink:href="#DejaVuSans-79" x="1337.199219"/>
   </g>
   <!-- tuid: 20231225-155859-876-e30216 -->
   <g transform="translate(100.91875 29.7555) scale(0.12 -0.12)">
    <defs>
     <path id="DejaVuSans-69" d="M 603 3500 
L 1178 3500 
L 1178 0 
L 603 0 
L 603 3500 
z
M 603 4863 
L 1178 4863 
L 1178 4134 
L 603 4134 
L 603 4863 
z
" transform="scale(0.015625)"/>
     <path id="DejaVuSans-64" d="M 2906 2969 
L 2906 4863 
L 3481 4863 
L 3481 0 
L 2906 0 
L 2906 525 
Q 2725 213 2448 61 
Q 2172 -91 1784 -91 
Q 1150 -91 751 415 
Q 353 922 353 1747 
Q 353 2572 751 3078 
Q 1150 3584 1784 3584 
Q 2172 3584 2448 3432 
Q 2725 3281 2906 2969 
z
M 947 1747 
Q 947 1113 1208 752 
Q 1469 391 1925 391 
Q 2381 391 2643 752 
Q 2906 1113 2906 1747 
Q 2906 2381 2643 2742 
Q 2381 3103 1925 3103 
Q 1469 3103 1208 2742 
Q 947 2381 947 1747 
z
" transform="scale(0.015625)"/>
    </defs>
    <use xlink:href="#DejaVuSans-74"/>
    <use xlink:href="#DejaVuSans-75" x="39.208984"/>
    <use xlink:href="#DejaVuSans-69" x="102.587891"/>
    <use xlink:href="#DejaVuSans-64" x="130.371094"/>
    <use xlink:href="#DejaVuSans-3a" x="193.847656"/>
    <use xlink:href="#DejaVuSans-20" x="227.539062"/>
    <use xlink:href="#DejaVuSans-32" x="259.326172"/>
    <use xlink:href="#DejaVuSans-30" x="322.949219"/>
    <use xlink:href="#DejaVuSans-32" x="386.572266"/>
    <use xlink:href="#DejaVuSans-33" x="450.195312"/>
    <use xlink:href="#DejaVuSans-31" x="513.818359"/>
    <use xlink:href="#DejaVuSans-32" x="577.441406"/>
    <use xlink:href="#DejaVuSans-32" x="641.064453"/>
    <use xlink:href="#DejaVuSans-35" x="704.6875"/>
    <use xlink:href="#DejaVuSans-2d" x="768.310547"/>
    <use xlink:href="#DejaVuSans-31" x="804.394531"/>
    <use xlink:href="#DejaVuSans-35" x="868.017578"/>
    <use xlink:href="#DejaVuSans-35" x="931.640625"/>
    <use xlink:href="#DejaVuSans-38" x="995.263672"/>
    <use xlink:href="#DejaVuSans-35" x="1058.886719"/>
    <use xlink:href="#DejaVuSans-39" x="1122.509766"/>
    <use xlink:href="#DejaVuSans-2d" x="1186.132812"/>
    <use xlink:href="#DejaVuSans-38" x="1222.216797"/>
    <use xlink:href="#DejaVuSans-37" x="1285.839844"/>
    <use xlink:href="#DejaVuSans-36" x="1349.462891"/>
    <use xlink:href="#DejaVuSans-2d" x="1413.085938"/>
    <use xlink:href="#DejaVuSans-65" x="1449.169922"/>
    <use xlink:href="#DejaVuSans-33" x="1510.693359"/>
    <use xlink:href="#DejaVuSans-30" x="1574.316406"/>
    <use xlink:href="#DejaVuSans-32" x="1637.939453"/>
    <use xlink:href="#DejaVuSans-31" x="1701.5625"/>
    <use xlink:href="#DejaVuSans-36" x="1765.185547"/>
   </g>
  </g>
 </g>
 <defs>
  <clipPath id="p3dabe39754">
   <rect x="37.848438" y="41.76" width="357.12" height="266.112"/>
  </clipPath>
 </defs>
</svg>
