<?xml version="1.0" encoding="utf-8" standalone="no"?>
<!DOCTYPE svg PUBLIC "-//W3C//DTD SVG 1.1//EN"
  "http://www.w3.org/Graphics/SVG/1.1/DTD/svg11.dtd">
<svg xmlns:xlink="http://www.w3.org/1999/xlink" width="571.371312pt" height="345.42825pt" viewBox="0 0 571.371312 345.42825" xmlns="http://www.w3.org/2000/svg" version="1.1">
 <metadata>
  <rdf:RDF xmlns:dc="http://purl.org/dc/elements/1.1/" xmlns:cc="http://creativecommons.org/ns#" xmlns:rdf="http://www.w3.org/1999/02/22-rdf-syntax-ns#">
   <cc:Work>
    <dc:type rdf:resource="http://purl.org/dc/dcmitype/StillImage"/>
    <dc:date>2023-12-27T16:07:58.567068</dc:date>
    <dc:format>image/svg+xml</dc:format>
    <dc:creator>
     <cc:Agent>
      <dc:title>Matplotlib v3.8.2, https://matplotlib.org/</dc:title>
     </cc:Agent>
    </dc:creator>
   </cc:Work>
  </rdf:RDF>
 </metadata>
 <defs>
  <style type="text/css">*{stroke-linejoin: round; stroke-linecap: butt}</style>
 </defs>
 <g id="figure_1">
  <g id="patch_1">
   <path d="M 0 345.42825 
L 571.371312 345.42825 
L 571.371312 -0 
L 0 -0 
L 0 345.42825 
z
" style="fill: none; opacity: 0"/>
  </g>
  <g id="axes_1">
   <g id="patch_2">
    <path d="M 50.595313 162.72 
L 407.715312 162.72 
L 407.715312 41.76 
L 50.595313 41.76 
z
" style="fill: #ffffff"/>
   </g>
   <g id="matplotlib.axis_1">
    <g id="xtick_1">
     <g id="line2d_1">
      <defs>
       <path id="m281fe82278" d="M 0 0 
L 0 3.5 
" style="stroke: #000000; stroke-width: 0.8"/>
      </defs>
      <g>
       <use xlink:href="#m281fe82278" x="62.769858" y="162.72" style="stroke: #000000; stroke-width: 0.8"/>
      </g>
     </g>
    </g>
    <g id="xtick_2">
     <g id="line2d_2">
      <g>
       <use xlink:href="#m281fe82278" x="130.406222" y="162.72" style="stroke: #000000; stroke-width: 0.8"/>
      </g>
     </g>
    </g>
    <g id="xtick_3">
     <g id="line2d_3">
      <g>
       <use xlink:href="#m281fe82278" x="198.042585" y="162.72" style="stroke: #000000; stroke-width: 0.8"/>
      </g>
     </g>
    </g>
    <g id="xtick_4">
     <g id="line2d_4">
      <g>
       <use xlink:href="#m281fe82278" x="265.678949" y="162.72" style="stroke: #000000; stroke-width: 0.8"/>
      </g>
     </g>
    </g>
    <g id="xtick_5">
     <g id="line2d_5">
      <g>
       <use xlink:href="#m281fe82278" x="333.315312" y="162.72" style="stroke: #000000; stroke-width: 0.8"/>
      </g>
     </g>
    </g>
    <g id="xtick_6">
     <g id="line2d_6">
      <g>
       <use xlink:href="#m281fe82278" x="400.951676" y="162.72" style="stroke: #000000; stroke-width: 0.8"/>
      </g>
     </g>
    </g>
   </g>
   <g id="matplotlib.axis_2">
    <g id="ytick_1">
     <g id="line2d_7">
      <defs>
       <path id="macb1e4d54b" d="M 0 0 
L -3.5 0 
" style="stroke: #000000; stroke-width: 0.8"/>
      </defs>
      <g>
       <use xlink:href="#macb1e4d54b" x="50.595313" y="141.746204" style="stroke: #000000; stroke-width: 0.8"/>
      </g>
     </g>
     <g id="text_1">
      <!-- 2 -->
      <g transform="translate(37.232813 145.545422) scale(0.1 -0.1)">
       <defs>
        <path id="DejaVuSans-32" d="M 1228 531 
L 3431 531 
L 3431 0 
L 469 0 
L 469 531 
Q 828 903 1448 1529 
Q 2069 2156 2228 2338 
Q 2531 2678 2651 2914 
Q 2772 3150 2772 3378 
Q 2772 3750 2511 3984 
Q 2250 4219 1831 4219 
Q 1534 4219 1204 4116 
Q 875 4013 500 3803 
L 500 4441 
Q 881 4594 1212 4672 
Q 1544 4750 1819 4750 
Q 2544 4750 2975 4387 
Q 3406 4025 3406 3419 
Q 3406 3131 3298 2873 
Q 3191 2616 2906 2266 
Q 2828 2175 2409 1742 
Q 1991 1309 1228 531 
z
" transform="scale(0.015625)"/>
       </defs>
       <use xlink:href="#DejaVuSans-32"/>
      </g>
     </g>
    </g>
    <g id="ytick_2">
     <g id="line2d_8">
      <g>
       <use xlink:href="#macb1e4d54b" x="50.595313" y="112.088934" style="stroke: #000000; stroke-width: 0.8"/>
      </g>
     </g>
     <g id="text_2">
      <!-- 4 -->
      <g transform="translate(37.232813 115.888153) scale(0.1 -0.1)">
       <defs>
        <path id="DejaVuSans-34" d="M 2419 4116 
L 825 1625 
L 2419 1625 
L 2419 4116 
z
M 2253 4666 
L 3047 4666 
L 3047 1625 
L 3713 1625 
L 3713 1100 
L 3047 1100 
L 3047 0 
L 2419 0 
L 2419 1100 
L 313 1100 
L 313 1709 
L 2253 4666 
z
" transform="scale(0.015625)"/>
       </defs>
       <use xlink:href="#DejaVuSans-34"/>
      </g>
     </g>
    </g>
    <g id="ytick_3">
     <g id="line2d_9">
      <g>
       <use xlink:href="#macb1e4d54b" x="50.595313" y="82.431665" style="stroke: #000000; stroke-width: 0.8"/>
      </g>
     </g>
     <g id="text_3">
      <!-- 6 -->
      <g transform="translate(37.232813 86.230883) scale(0.1 -0.1)">
       <defs>
        <path id="DejaVuSans-36" d="M 2113 2584 
Q 1688 2584 1439 2293 
Q 1191 2003 1191 1497 
Q 1191 994 1439 701 
Q 1688 409 2113 409 
Q 2538 409 2786 701 
Q 3034 994 3034 1497 
Q 3034 2003 2786 2293 
Q 2538 2584 2113 2584 
z
M 3366 4563 
L 3366 3988 
Q 3128 4100 2886 4159 
Q 2644 4219 2406 4219 
Q 1781 4219 1451 3797 
Q 1122 3375 1075 2522 
Q 1259 2794 1537 2939 
Q 1816 3084 2150 3084 
Q 2853 3084 3261 2657 
Q 3669 2231 3669 1497 
Q 3669 778 3244 343 
Q 2819 -91 2113 -91 
Q 1303 -91 875 529 
Q 447 1150 447 2328 
Q 447 3434 972 4092 
Q 1497 4750 2381 4750 
Q 2619 4750 2861 4703 
Q 3103 4656 3366 4563 
z
" transform="scale(0.015625)"/>
       </defs>
       <use xlink:href="#DejaVuSans-36"/>
      </g>
     </g>
    </g>
    <g id="ytick_4">
     <g id="line2d_10">
      <g>
       <use xlink:href="#macb1e4d54b" x="50.595313" y="52.774395" style="stroke: #000000; stroke-width: 0.8"/>
      </g>
     </g>
     <g id="text_4">
      <!-- 8 -->
      <g transform="translate(37.232813 56.573614) scale(0.1 -0.1)">
       <defs>
        <path id="DejaVuSans-38" d="M 2034 2216 
Q 1584 2216 1326 1975 
Q 1069 1734 1069 1313 
Q 1069 891 1326 650 
Q 1584 409 2034 409 
Q 2484 409 2743 651 
Q 3003 894 3003 1313 
Q 3003 1734 2745 1975 
Q 2488 2216 2034 2216 
z
M 1403 2484 
Q 997 2584 770 2862 
Q 544 3141 544 3541 
Q 544 4100 942 4425 
Q 1341 4750 2034 4750 
Q 2731 4750 3128 4425 
Q 3525 4100 3525 3541 
Q 3525 3141 3298 2862 
Q 3072 2584 2669 2484 
Q 3125 2378 3379 2068 
Q 3634 1759 3634 1313 
Q 3634 634 3220 271 
Q 2806 -91 2034 -91 
Q 1263 -91 848 271 
Q 434 634 434 1313 
Q 434 1759 690 2068 
Q 947 2378 1403 2484 
z
M 1172 3481 
Q 1172 3119 1398 2916 
Q 1625 2713 2034 2713 
Q 2441 2713 2670 2916 
Q 2900 3119 2900 3481 
Q 2900 3844 2670 4047 
Q 2441 4250 2034 4250 
Q 1625 4250 1398 4047 
Q 1172 3844 1172 3481 
z
" transform="scale(0.015625)"/>
       </defs>
       <use xlink:href="#DejaVuSans-38"/>
      </g>
     </g>
    </g>
    <g id="text_5">
     <!-- $|S_{21}|$ [mV] -->
     <g transform="translate(30.832813 127.19) rotate(-90) scale(0.1 -0.1)">
      <defs>
       <path id="DejaVuSans-7c" d="M 1344 4891 
L 1344 -1509 
L 813 -1509 
L 813 4891 
L 1344 4891 
z
" transform="scale(0.015625)"/>
       <path id="DejaVuSans-Oblique-53" d="M 3859 4513 
L 3738 3897 
Q 3422 4066 3111 4152 
Q 2800 4238 2509 4238 
Q 1944 4238 1609 3991 
Q 1275 3744 1275 3334 
Q 1275 3109 1398 2989 
Q 1522 2869 2034 2731 
L 2413 2638 
Q 3053 2472 3303 2217 
Q 3553 1963 3553 1503 
Q 3553 797 2998 353 
Q 2444 -91 1538 -91 
Q 1166 -91 791 -17 
Q 416 56 38 206 
L 166 856 
Q 513 641 861 531 
Q 1209 422 1556 422 
Q 2147 422 2503 684 
Q 2859 947 2859 1369 
Q 2859 1650 2717 1795 
Q 2575 1941 2106 2059 
L 1728 2156 
Q 1081 2325 845 2545 
Q 609 2766 609 3163 
Q 609 3859 1145 4304 
Q 1681 4750 2541 4750 
Q 2875 4750 3203 4690 
Q 3531 4631 3859 4513 
z
" transform="scale(0.015625)"/>
       <path id="DejaVuSans-31" d="M 794 531 
L 1825 531 
L 1825 4091 
L 703 3866 
L 703 4441 
L 1819 4666 
L 2450 4666 
L 2450 531 
L 3481 531 
L 3481 0 
L 794 0 
L 794 531 
z
" transform="scale(0.015625)"/>
       <path id="DejaVuSans-20" transform="scale(0.015625)"/>
       <path id="DejaVuSans-5b" d="M 550 4863 
L 1875 4863 
L 1875 4416 
L 1125 4416 
L 1125 -397 
L 1875 -397 
L 1875 -844 
L 550 -844 
L 550 4863 
z
" transform="scale(0.015625)"/>
       <path id="DejaVuSans-6d" d="M 3328 2828 
Q 3544 3216 3844 3400 
Q 4144 3584 4550 3584 
Q 5097 3584 5394 3201 
Q 5691 2819 5691 2113 
L 5691 0 
L 5113 0 
L 5113 2094 
Q 5113 2597 4934 2840 
Q 4756 3084 4391 3084 
Q 3944 3084 3684 2787 
Q 3425 2491 3425 1978 
L 3425 0 
L 2847 0 
L 2847 2094 
Q 2847 2600 2669 2842 
Q 2491 3084 2119 3084 
Q 1678 3084 1418 2786 
Q 1159 2488 1159 1978 
L 1159 0 
L 581 0 
L 581 3500 
L 1159 3500 
L 1159 2956 
Q 1356 3278 1631 3431 
Q 1906 3584 2284 3584 
Q 2666 3584 2933 3390 
Q 3200 3197 3328 2828 
z
" transform="scale(0.015625)"/>
       <path id="DejaVuSans-56" d="M 1831 0 
L 50 4666 
L 709 4666 
L 2188 738 
L 3669 4666 
L 4325 4666 
L 2547 0 
L 1831 0 
z
" transform="scale(0.015625)"/>
       <path id="DejaVuSans-5d" d="M 1947 4863 
L 1947 -844 
L 622 -844 
L 622 -397 
L 1369 -397 
L 1369 4416 
L 622 4416 
L 622 4863 
L 1947 4863 
z
" transform="scale(0.015625)"/>
      </defs>
      <use xlink:href="#DejaVuSans-7c" transform="translate(0 0.578125)"/>
      <use xlink:href="#DejaVuSans-Oblique-53" transform="translate(33.691406 0.578125)"/>
      <use xlink:href="#DejaVuSans-32" transform="translate(97.167969 -15.828125) scale(0.7)"/>
      <use xlink:href="#DejaVuSans-31" transform="translate(141.704102 -15.828125) scale(0.7)"/>
      <use xlink:href="#DejaVuSans-7c" transform="translate(188.974609 0.578125)"/>
      <use xlink:href="#DejaVuSans-20" transform="translate(222.666016 0.578125)"/>
      <use xlink:href="#DejaVuSans-5b" transform="translate(254.453125 0.578125)"/>
      <use xlink:href="#DejaVuSans-6d" transform="translate(293.466797 0.578125)"/>
      <use xlink:href="#DejaVuSans-56" transform="translate(390.878906 0.578125)"/>
      <use xlink:href="#DejaVuSans-5d" transform="translate(459.287109 0.578125)"/>
     </g>
    </g>
   </g>
   <g id="line2d_11">
    <path d="M 66.82804 49.855006 
L 68.45947 47.507077 
L 70.0909 49.245035 
L 71.722329 49.042898 
L 73.353759 49.452089 
L 74.985189 47.258182 
L 76.616619 47.395841 
L 78.248049 48.200756 
L 79.879479 49.739554 
L 81.510909 50.84481 
L 83.142339 50.873447 
L 84.773768 49.649092 
L 86.405198 48.892678 
L 88.036628 49.278806 
L 89.668058 50.871101 
L 91.299488 49.766619 
L 92.930918 49.081881 
L 94.562348 50.362377 
L 97.825207 49.717567 
L 99.456637 50.808304 
L 101.088067 50.739634 
L 102.719497 49.510811 
L 104.350927 50.284068 
L 105.982357 49.533152 
L 107.613787 50.751685 
L 109.245217 51.180083 
L 112.508076 51.422307 
L 114.139506 52.489749 
L 115.770936 51.921929 
L 117.402366 50.333321 
L 119.033796 51.816102 
L 120.665226 52.850523 
L 122.296656 51.709295 
L 123.928085 52.24898 
L 125.559515 51.181941 
L 127.190945 53.236451 
L 128.822375 51.728968 
L 130.453805 51.60044 
L 132.085235 51.648798 
L 133.716665 52.992412 
L 135.348095 52.505571 
L 136.979524 52.472328 
L 138.610954 54.232958 
L 140.242384 54.179554 
L 141.873814 53.251065 
L 143.505244 53.640746 
L 145.136674 54.726753 
L 146.768104 53.978862 
L 148.399534 54.748773 
L 150.030963 55.958785 
L 151.662393 53.445237 
L 153.293823 54.178936 
L 154.925253 55.861058 
L 156.556683 56.266256 
L 158.188113 56.180593 
L 159.819543 57.130175 
L 161.450973 56.048784 
L 163.082402 57.106306 
L 164.713832 58.49597 
L 166.345262 55.854818 
L 167.976692 60.311589 
L 169.608122 58.154493 
L 171.239552 59.572038 
L 172.870982 59.017986 
L 174.502412 60.456452 
L 176.133842 58.633597 
L 177.765271 61.433205 
L 179.396701 61.822764 
L 181.028131 61.602787 
L 184.290991 63.818103 
L 185.922421 64.017017 
L 187.553851 65.38355 
L 189.185281 67.735582 
L 190.81671 67.718332 
L 192.44814 69.836825 
L 194.07957 71.309589 
L 197.34243 77.023099 
L 198.97386 77.476325 
L 200.60529 81.135773 
L 203.868149 87.492003 
L 205.499579 91.519846 
L 207.131009 92.972522 
L 210.393869 106.000703 
L 212.025299 110.427254 
L 213.656729 118.255691 
L 216.919588 132.042251 
L 218.551018 141.597415 
L 220.182448 148.850473 
L 221.813878 153.199427 
L 223.445308 156.336062 
L 225.076738 154.691698 
L 226.708168 147.411677 
L 228.339598 141.119244 
L 229.971027 133.90433 
L 231.602457 127.949842 
L 233.233887 118.9789 
L 236.496747 106.529435 
L 238.128177 103.499177 
L 239.759607 97.19694 
L 241.391037 95.93242 
L 243.022466 90.739983 
L 244.653896 88.83114 
L 246.285326 86.74923 
L 247.916756 83.362254 
L 249.548186 81.560051 
L 251.179616 79.949192 
L 252.811046 80.135588 
L 254.442476 77.450448 
L 256.073905 76.141374 
L 257.705335 72.435541 
L 259.336765 72.034986 
L 260.968195 72.589774 
L 262.599625 70.936772 
L 264.231055 69.860425 
L 265.862485 70.474206 
L 267.493915 69.411573 
L 269.125344 67.871526 
L 272.388204 66.538591 
L 274.019634 66.762275 
L 275.651064 66.274926 
L 277.282494 66.040796 
L 278.913924 64.98116 
L 280.545354 67.196424 
L 282.176783 66.569501 
L 283.808213 65.066348 
L 285.439643 65.03702 
L 287.071073 65.709751 
L 288.702503 63.794953 
L 290.333933 65.408417 
L 291.965363 66.482247 
L 293.596793 64.114638 
L 295.228223 63.830616 
L 296.859652 65.043214 
L 298.491082 63.719336 
L 300.122512 66.069837 
L 301.753942 66.098401 
L 303.385372 64.640882 
L 305.016802 64.717176 
L 306.648232 64.497831 
L 308.279662 65.167293 
L 311.542521 63.704872 
L 313.173951 64.02293 
L 314.805381 65.260529 
L 316.436811 65.179546 
L 318.068241 64.597031 
L 319.699671 65.867082 
L 321.331101 64.638354 
L 322.96253 64.166764 
L 324.59396 62.857959 
L 326.22539 64.756144 
L 327.85682 65.537424 
L 329.48825 65.204268 
L 331.11968 64.651915 
L 332.75111 65.180855 
L 334.38254 64.518921 
L 336.013969 64.439117 
L 337.645399 64.931931 
L 339.276829 63.35074 
L 340.908259 63.618661 
L 342.539689 64.231329 
L 344.171119 65.13584 
L 345.802549 65.422567 
L 347.433979 65.325875 
L 349.065408 65.378543 
L 350.696838 66.405173 
L 352.328268 65.753972 
L 353.959698 67.232568 
L 355.591128 65.707376 
L 357.222558 65.7225 
L 358.853988 65.611445 
L 360.485418 67.216017 
L 362.116847 64.980186 
L 363.748277 66.184809 
L 365.379707 66.803291 
L 367.011137 66.818875 
L 368.642567 65.410649 
L 370.273997 65.983864 
L 371.905427 65.184938 
L 373.536857 66.274936 
L 375.168286 64.331736 
L 376.799716 66.070668 
L 378.431146 66.375322 
L 380.062576 66.204162 
L 381.694006 65.738381 
L 383.325436 67.166543 
L 384.956866 66.940407 
L 386.588296 65.869114 
L 388.219725 67.483271 
L 389.851155 66.522782 
L 391.482585 67.401652 
L 391.482585 67.401652 
" clip-path="url(#p12f1b4b210)" style="fill: none; stroke: #1f77b4; stroke-width: 1.5; stroke-linecap: square"/>
    <defs>
     <path id="m598db509b3" d="M 0 1.5 
C 0.397805 1.5 0.77937 1.341951 1.06066 1.06066 
C 1.341951 0.77937 1.5 0.397805 1.5 0 
C 1.5 -0.397805 1.341951 -0.77937 1.06066 -1.06066 
C 0.77937 -1.341951 0.397805 -1.5 0 -1.5 
C -0.397805 -1.5 -0.77937 -1.341951 -1.06066 -1.06066 
C -1.341951 -0.77937 -1.5 -0.397805 -1.5 0 
C -1.5 0.397805 -1.341951 0.77937 -1.06066 1.06066 
C -0.77937 1.341951 -0.397805 1.5 0 1.5 
z
" style="stroke: #1f77b4"/>
    </defs>
    <g clip-path="url(#p12f1b4b210)">
     <use xlink:href="#m598db509b3" x="66.82804" y="49.855006" style="fill: #1f77b4; stroke: #1f77b4"/>
     <use xlink:href="#m598db509b3" x="68.45947" y="47.507077" style="fill: #1f77b4; stroke: #1f77b4"/>
     <use xlink:href="#m598db509b3" x="70.0909" y="49.245035" style="fill: #1f77b4; stroke: #1f77b4"/>
     <use xlink:href="#m598db509b3" x="71.722329" y="49.042898" style="fill: #1f77b4; stroke: #1f77b4"/>
     <use xlink:href="#m598db509b3" x="73.353759" y="49.452089" style="fill: #1f77b4; stroke: #1f77b4"/>
     <use xlink:href="#m598db509b3" x="74.985189" y="47.258182" style="fill: #1f77b4; stroke: #1f77b4"/>
     <use xlink:href="#m598db509b3" x="76.616619" y="47.395841" style="fill: #1f77b4; stroke: #1f77b4"/>
     <use xlink:href="#m598db509b3" x="78.248049" y="48.200756" style="fill: #1f77b4; stroke: #1f77b4"/>
     <use xlink:href="#m598db509b3" x="79.879479" y="49.739554" style="fill: #1f77b4; stroke: #1f77b4"/>
     <use xlink:href="#m598db509b3" x="81.510909" y="50.84481" style="fill: #1f77b4; stroke: #1f77b4"/>
     <use xlink:href="#m598db509b3" x="83.142339" y="50.873447" style="fill: #1f77b4; stroke: #1f77b4"/>
     <use xlink:href="#m598db509b3" x="84.773768" y="49.649092" style="fill: #1f77b4; stroke: #1f77b4"/>
     <use xlink:href="#m598db509b3" x="86.405198" y="48.892678" style="fill: #1f77b4; stroke: #1f77b4"/>
     <use xlink:href="#m598db509b3" x="88.036628" y="49.278806" style="fill: #1f77b4; stroke: #1f77b4"/>
     <use xlink:href="#m598db509b3" x="89.668058" y="50.871101" style="fill: #1f77b4; stroke: #1f77b4"/>
     <use xlink:href="#m598db509b3" x="91.299488" y="49.766619" style="fill: #1f77b4; stroke: #1f77b4"/>
     <use xlink:href="#m598db509b3" x="92.930918" y="49.081881" style="fill: #1f77b4; stroke: #1f77b4"/>
     <use xlink:href="#m598db509b3" x="94.562348" y="50.362377" style="fill: #1f77b4; stroke: #1f77b4"/>
     <use xlink:href="#m598db509b3" x="96.193778" y="50.038663" style="fill: #1f77b4; stroke: #1f77b4"/>
     <use xlink:href="#m598db509b3" x="97.825207" y="49.717567" style="fill: #1f77b4; stroke: #1f77b4"/>
     <use xlink:href="#m598db509b3" x="99.456637" y="50.808304" style="fill: #1f77b4; stroke: #1f77b4"/>
     <use xlink:href="#m598db509b3" x="101.088067" y="50.739634" style="fill: #1f77b4; stroke: #1f77b4"/>
     <use xlink:href="#m598db509b3" x="102.719497" y="49.510811" style="fill: #1f77b4; stroke: #1f77b4"/>
     <use xlink:href="#m598db509b3" x="104.350927" y="50.284068" style="fill: #1f77b4; stroke: #1f77b4"/>
     <use xlink:href="#m598db509b3" x="105.982357" y="49.533152" style="fill: #1f77b4; stroke: #1f77b4"/>
     <use xlink:href="#m598db509b3" x="107.613787" y="50.751685" style="fill: #1f77b4; stroke: #1f77b4"/>
     <use xlink:href="#m598db509b3" x="109.245217" y="51.180083" style="fill: #1f77b4; stroke: #1f77b4"/>
     <use xlink:href="#m598db509b3" x="110.876646" y="51.293837" style="fill: #1f77b4; stroke: #1f77b4"/>
     <use xlink:href="#m598db509b3" x="112.508076" y="51.422307" style="fill: #1f77b4; stroke: #1f77b4"/>
     <use xlink:href="#m598db509b3" x="114.139506" y="52.489749" style="fill: #1f77b4; stroke: #1f77b4"/>
     <use xlink:href="#m598db509b3" x="115.770936" y="51.921929" style="fill: #1f77b4; stroke: #1f77b4"/>
     <use xlink:href="#m598db509b3" x="117.402366" y="50.333321" style="fill: #1f77b4; stroke: #1f77b4"/>
     <use xlink:href="#m598db509b3" x="119.033796" y="51.816102" style="fill: #1f77b4; stroke: #1f77b4"/>
     <use xlink:href="#m598db509b3" x="120.665226" y="52.850523" style="fill: #1f77b4; stroke: #1f77b4"/>
     <use xlink:href="#m598db509b3" x="122.296656" y="51.709295" style="fill: #1f77b4; stroke: #1f77b4"/>
     <use xlink:href="#m598db509b3" x="123.928085" y="52.24898" style="fill: #1f77b4; stroke: #1f77b4"/>
     <use xlink:href="#m598db509b3" x="125.559515" y="51.181941" style="fill: #1f77b4; stroke: #1f77b4"/>
     <use xlink:href="#m598db509b3" x="127.190945" y="53.236451" style="fill: #1f77b4; stroke: #1f77b4"/>
     <use xlink:href="#m598db509b3" x="128.822375" y="51.728968" style="fill: #1f77b4; stroke: #1f77b4"/>
     <use xlink:href="#m598db509b3" x="130.453805" y="51.60044" style="fill: #1f77b4; stroke: #1f77b4"/>
     <use xlink:href="#m598db509b3" x="132.085235" y="51.648798" style="fill: #1f77b4; stroke: #1f77b4"/>
     <use xlink:href="#m598db509b3" x="133.716665" y="52.992412" style="fill: #1f77b4; stroke: #1f77b4"/>
     <use xlink:href="#m598db509b3" x="135.348095" y="52.505571" style="fill: #1f77b4; stroke: #1f77b4"/>
     <use xlink:href="#m598db509b3" x="136.979524" y="52.472328" style="fill: #1f77b4; stroke: #1f77b4"/>
     <use xlink:href="#m598db509b3" x="138.610954" y="54.232958" style="fill: #1f77b4; stroke: #1f77b4"/>
     <use xlink:href="#m598db509b3" x="140.242384" y="54.179554" style="fill: #1f77b4; stroke: #1f77b4"/>
     <use xlink:href="#m598db509b3" x="141.873814" y="53.251065" style="fill: #1f77b4; stroke: #1f77b4"/>
     <use xlink:href="#m598db509b3" x="143.505244" y="53.640746" style="fill: #1f77b4; stroke: #1f77b4"/>
     <use xlink:href="#m598db509b3" x="145.136674" y="54.726753" style="fill: #1f77b4; stroke: #1f77b4"/>
     <use xlink:href="#m598db509b3" x="146.768104" y="53.978862" style="fill: #1f77b4; stroke: #1f77b4"/>
     <use xlink:href="#m598db509b3" x="148.399534" y="54.748773" style="fill: #1f77b4; stroke: #1f77b4"/>
     <use xlink:href="#m598db509b3" x="150.030963" y="55.958785" style="fill: #1f77b4; stroke: #1f77b4"/>
     <use xlink:href="#m598db509b3" x="151.662393" y="53.445237" style="fill: #1f77b4; stroke: #1f77b4"/>
     <use xlink:href="#m598db509b3" x="153.293823" y="54.178936" style="fill: #1f77b4; stroke: #1f77b4"/>
     <use xlink:href="#m598db509b3" x="154.925253" y="55.861058" style="fill: #1f77b4; stroke: #1f77b4"/>
     <use xlink:href="#m598db509b3" x="156.556683" y="56.266256" style="fill: #1f77b4; stroke: #1f77b4"/>
     <use xlink:href="#m598db509b3" x="158.188113" y="56.180593" style="fill: #1f77b4; stroke: #1f77b4"/>
     <use xlink:href="#m598db509b3" x="159.819543" y="57.130175" style="fill: #1f77b4; stroke: #1f77b4"/>
     <use xlink:href="#m598db509b3" x="161.450973" y="56.048784" style="fill: #1f77b4; stroke: #1f77b4"/>
     <use xlink:href="#m598db509b3" x="163.082402" y="57.106306" style="fill: #1f77b4; stroke: #1f77b4"/>
     <use xlink:href="#m598db509b3" x="164.713832" y="58.49597" style="fill: #1f77b4; stroke: #1f77b4"/>
     <use xlink:href="#m598db509b3" x="166.345262" y="55.854818" style="fill: #1f77b4; stroke: #1f77b4"/>
     <use xlink:href="#m598db509b3" x="167.976692" y="60.311589" style="fill: #1f77b4; stroke: #1f77b4"/>
     <use xlink:href="#m598db509b3" x="169.608122" y="58.154493" style="fill: #1f77b4; stroke: #1f77b4"/>
     <use xlink:href="#m598db509b3" x="171.239552" y="59.572038" style="fill: #1f77b4; stroke: #1f77b4"/>
     <use xlink:href="#m598db509b3" x="172.870982" y="59.017986" style="fill: #1f77b4; stroke: #1f77b4"/>
     <use xlink:href="#m598db509b3" x="174.502412" y="60.456452" style="fill: #1f77b4; stroke: #1f77b4"/>
     <use xlink:href="#m598db509b3" x="176.133842" y="58.633597" style="fill: #1f77b4; stroke: #1f77b4"/>
     <use xlink:href="#m598db509b3" x="177.765271" y="61.433205" style="fill: #1f77b4; stroke: #1f77b4"/>
     <use xlink:href="#m598db509b3" x="179.396701" y="61.822764" style="fill: #1f77b4; stroke: #1f77b4"/>
     <use xlink:href="#m598db509b3" x="181.028131" y="61.602787" style="fill: #1f77b4; stroke: #1f77b4"/>
     <use xlink:href="#m598db509b3" x="182.659561" y="62.75822" style="fill: #1f77b4; stroke: #1f77b4"/>
     <use xlink:href="#m598db509b3" x="184.290991" y="63.818103" style="fill: #1f77b4; stroke: #1f77b4"/>
     <use xlink:href="#m598db509b3" x="185.922421" y="64.017017" style="fill: #1f77b4; stroke: #1f77b4"/>
     <use xlink:href="#m598db509b3" x="187.553851" y="65.38355" style="fill: #1f77b4; stroke: #1f77b4"/>
     <use xlink:href="#m598db509b3" x="189.185281" y="67.735582" style="fill: #1f77b4; stroke: #1f77b4"/>
     <use xlink:href="#m598db509b3" x="190.81671" y="67.718332" style="fill: #1f77b4; stroke: #1f77b4"/>
     <use xlink:href="#m598db509b3" x="192.44814" y="69.836825" style="fill: #1f77b4; stroke: #1f77b4"/>
     <use xlink:href="#m598db509b3" x="194.07957" y="71.309589" style="fill: #1f77b4; stroke: #1f77b4"/>
     <use xlink:href="#m598db509b3" x="195.711" y="74.139571" style="fill: #1f77b4; stroke: #1f77b4"/>
     <use xlink:href="#m598db509b3" x="197.34243" y="77.023099" style="fill: #1f77b4; stroke: #1f77b4"/>
     <use xlink:href="#m598db509b3" x="198.97386" y="77.476325" style="fill: #1f77b4; stroke: #1f77b4"/>
     <use xlink:href="#m598db509b3" x="200.60529" y="81.135773" style="fill: #1f77b4; stroke: #1f77b4"/>
     <use xlink:href="#m598db509b3" x="202.23672" y="84.244657" style="fill: #1f77b4; stroke: #1f77b4"/>
     <use xlink:href="#m598db509b3" x="203.868149" y="87.492003" style="fill: #1f77b4; stroke: #1f77b4"/>
     <use xlink:href="#m598db509b3" x="205.499579" y="91.519846" style="fill: #1f77b4; stroke: #1f77b4"/>
     <use xlink:href="#m598db509b3" x="207.131009" y="92.972522" style="fill: #1f77b4; stroke: #1f77b4"/>
     <use xlink:href="#m598db509b3" x="208.762439" y="99.528628" style="fill: #1f77b4; stroke: #1f77b4"/>
     <use xlink:href="#m598db509b3" x="210.393869" y="106.000703" style="fill: #1f77b4; stroke: #1f77b4"/>
     <use xlink:href="#m598db509b3" x="212.025299" y="110.427254" style="fill: #1f77b4; stroke: #1f77b4"/>
     <use xlink:href="#m598db509b3" x="213.656729" y="118.255691" style="fill: #1f77b4; stroke: #1f77b4"/>
     <use xlink:href="#m598db509b3" x="215.288159" y="125.071193" style="fill: #1f77b4; stroke: #1f77b4"/>
     <use xlink:href="#m598db509b3" x="216.919588" y="132.042251" style="fill: #1f77b4; stroke: #1f77b4"/>
     <use xlink:href="#m598db509b3" x="218.551018" y="141.597415" style="fill: #1f77b4; stroke: #1f77b4"/>
     <use xlink:href="#m598db509b3" x="220.182448" y="148.850473" style="fill: #1f77b4; stroke: #1f77b4"/>
     <use xlink:href="#m598db509b3" x="221.813878" y="153.199427" style="fill: #1f77b4; stroke: #1f77b4"/>
     <use xlink:href="#m598db509b3" x="223.445308" y="156.336062" style="fill: #1f77b4; stroke: #1f77b4"/>
     <use xlink:href="#m598db509b3" x="225.076738" y="154.691698" style="fill: #1f77b4; stroke: #1f77b4"/>
     <use xlink:href="#m598db509b3" x="226.708168" y="147.411677" style="fill: #1f77b4; stroke: #1f77b4"/>
     <use xlink:href="#m598db509b3" x="228.339598" y="141.119244" style="fill: #1f77b4; stroke: #1f77b4"/>
     <use xlink:href="#m598db509b3" x="229.971027" y="133.90433" style="fill: #1f77b4; stroke: #1f77b4"/>
     <use xlink:href="#m598db509b3" x="231.602457" y="127.949842" style="fill: #1f77b4; stroke: #1f77b4"/>
     <use xlink:href="#m598db509b3" x="233.233887" y="118.9789" style="fill: #1f77b4; stroke: #1f77b4"/>
     <use xlink:href="#m598db509b3" x="234.865317" y="112.699426" style="fill: #1f77b4; stroke: #1f77b4"/>
     <use xlink:href="#m598db509b3" x="236.496747" y="106.529435" style="fill: #1f77b4; stroke: #1f77b4"/>
     <use xlink:href="#m598db509b3" x="238.128177" y="103.499177" style="fill: #1f77b4; stroke: #1f77b4"/>
     <use xlink:href="#m598db509b3" x="239.759607" y="97.19694" style="fill: #1f77b4; stroke: #1f77b4"/>
     <use xlink:href="#m598db509b3" x="241.391037" y="95.93242" style="fill: #1f77b4; stroke: #1f77b4"/>
     <use xlink:href="#m598db509b3" x="243.022466" y="90.739983" style="fill: #1f77b4; stroke: #1f77b4"/>
     <use xlink:href="#m598db509b3" x="244.653896" y="88.83114" style="fill: #1f77b4; stroke: #1f77b4"/>
     <use xlink:href="#m598db509b3" x="246.285326" y="86.74923" style="fill: #1f77b4; stroke: #1f77b4"/>
     <use xlink:href="#m598db509b3" x="247.916756" y="83.362254" style="fill: #1f77b4; stroke: #1f77b4"/>
     <use xlink:href="#m598db509b3" x="249.548186" y="81.560051" style="fill: #1f77b4; stroke: #1f77b4"/>
     <use xlink:href="#m598db509b3" x="251.179616" y="79.949192" style="fill: #1f77b4; stroke: #1f77b4"/>
     <use xlink:href="#m598db509b3" x="252.811046" y="80.135588" style="fill: #1f77b4; stroke: #1f77b4"/>
     <use xlink:href="#m598db509b3" x="254.442476" y="77.450448" style="fill: #1f77b4; stroke: #1f77b4"/>
     <use xlink:href="#m598db509b3" x="256.073905" y="76.141374" style="fill: #1f77b4; stroke: #1f77b4"/>
     <use xlink:href="#m598db509b3" x="257.705335" y="72.435541" style="fill: #1f77b4; stroke: #1f77b4"/>
     <use xlink:href="#m598db509b3" x="259.336765" y="72.034986" style="fill: #1f77b4; stroke: #1f77b4"/>
     <use xlink:href="#m598db509b3" x="260.968195" y="72.589774" style="fill: #1f77b4; stroke: #1f77b4"/>
     <use xlink:href="#m598db509b3" x="262.599625" y="70.936772" style="fill: #1f77b4; stroke: #1f77b4"/>
     <use xlink:href="#m598db509b3" x="264.231055" y="69.860425" style="fill: #1f77b4; stroke: #1f77b4"/>
     <use xlink:href="#m598db509b3" x="265.862485" y="70.474206" style="fill: #1f77b4; stroke: #1f77b4"/>
     <use xlink:href="#m598db509b3" x="267.493915" y="69.411573" style="fill: #1f77b4; stroke: #1f77b4"/>
     <use xlink:href="#m598db509b3" x="269.125344" y="67.871526" style="fill: #1f77b4; stroke: #1f77b4"/>
     <use xlink:href="#m598db509b3" x="270.756774" y="67.231595" style="fill: #1f77b4; stroke: #1f77b4"/>
     <use xlink:href="#m598db509b3" x="272.388204" y="66.538591" style="fill: #1f77b4; stroke: #1f77b4"/>
     <use xlink:href="#m598db509b3" x="274.019634" y="66.762275" style="fill: #1f77b4; stroke: #1f77b4"/>
     <use xlink:href="#m598db509b3" x="275.651064" y="66.274926" style="fill: #1f77b4; stroke: #1f77b4"/>
     <use xlink:href="#m598db509b3" x="277.282494" y="66.040796" style="fill: #1f77b4; stroke: #1f77b4"/>
     <use xlink:href="#m598db509b3" x="278.913924" y="64.98116" style="fill: #1f77b4; stroke: #1f77b4"/>
     <use xlink:href="#m598db509b3" x="280.545354" y="67.196424" style="fill: #1f77b4; stroke: #1f77b4"/>
     <use xlink:href="#m598db509b3" x="282.176783" y="66.569501" style="fill: #1f77b4; stroke: #1f77b4"/>
     <use xlink:href="#m598db509b3" x="283.808213" y="65.066348" style="fill: #1f77b4; stroke: #1f77b4"/>
     <use xlink:href="#m598db509b3" x="285.439643" y="65.03702" style="fill: #1f77b4; stroke: #1f77b4"/>
     <use xlink:href="#m598db509b3" x="287.071073" y="65.709751" style="fill: #1f77b4; stroke: #1f77b4"/>
     <use xlink:href="#m598db509b3" x="288.702503" y="63.794953" style="fill: #1f77b4; stroke: #1f77b4"/>
     <use xlink:href="#m598db509b3" x="290.333933" y="65.408417" style="fill: #1f77b4; stroke: #1f77b4"/>
     <use xlink:href="#m598db509b3" x="291.965363" y="66.482247" style="fill: #1f77b4; stroke: #1f77b4"/>
     <use xlink:href="#m598db509b3" x="293.596793" y="64.114638" style="fill: #1f77b4; stroke: #1f77b4"/>
     <use xlink:href="#m598db509b3" x="295.228223" y="63.830616" style="fill: #1f77b4; stroke: #1f77b4"/>
     <use xlink:href="#m598db509b3" x="296.859652" y="65.043214" style="fill: #1f77b4; stroke: #1f77b4"/>
     <use xlink:href="#m598db509b3" x="298.491082" y="63.719336" style="fill: #1f77b4; stroke: #1f77b4"/>
     <use xlink:href="#m598db509b3" x="300.122512" y="66.069837" style="fill: #1f77b4; stroke: #1f77b4"/>
     <use xlink:href="#m598db509b3" x="301.753942" y="66.098401" style="fill: #1f77b4; stroke: #1f77b4"/>
     <use xlink:href="#m598db509b3" x="303.385372" y="64.640882" style="fill: #1f77b4; stroke: #1f77b4"/>
     <use xlink:href="#m598db509b3" x="305.016802" y="64.717176" style="fill: #1f77b4; stroke: #1f77b4"/>
     <use xlink:href="#m598db509b3" x="306.648232" y="64.497831" style="fill: #1f77b4; stroke: #1f77b4"/>
     <use xlink:href="#m598db509b3" x="308.279662" y="65.167293" style="fill: #1f77b4; stroke: #1f77b4"/>
     <use xlink:href="#m598db509b3" x="309.911091" y="64.463746" style="fill: #1f77b4; stroke: #1f77b4"/>
     <use xlink:href="#m598db509b3" x="311.542521" y="63.704872" style="fill: #1f77b4; stroke: #1f77b4"/>
     <use xlink:href="#m598db509b3" x="313.173951" y="64.02293" style="fill: #1f77b4; stroke: #1f77b4"/>
     <use xlink:href="#m598db509b3" x="314.805381" y="65.260529" style="fill: #1f77b4; stroke: #1f77b4"/>
     <use xlink:href="#m598db509b3" x="316.436811" y="65.179546" style="fill: #1f77b4; stroke: #1f77b4"/>
     <use xlink:href="#m598db509b3" x="318.068241" y="64.597031" style="fill: #1f77b4; stroke: #1f77b4"/>
     <use xlink:href="#m598db509b3" x="319.699671" y="65.867082" style="fill: #1f77b4; stroke: #1f77b4"/>
     <use xlink:href="#m598db509b3" x="321.331101" y="64.638354" style="fill: #1f77b4; stroke: #1f77b4"/>
     <use xlink:href="#m598db509b3" x="322.96253" y="64.166764" style="fill: #1f77b4; stroke: #1f77b4"/>
     <use xlink:href="#m598db509b3" x="324.59396" y="62.857959" style="fill: #1f77b4; stroke: #1f77b4"/>
     <use xlink:href="#m598db509b3" x="326.22539" y="64.756144" style="fill: #1f77b4; stroke: #1f77b4"/>
     <use xlink:href="#m598db509b3" x="327.85682" y="65.537424" style="fill: #1f77b4; stroke: #1f77b4"/>
     <use xlink:href="#m598db509b3" x="329.48825" y="65.204268" style="fill: #1f77b4; stroke: #1f77b4"/>
     <use xlink:href="#m598db509b3" x="331.11968" y="64.651915" style="fill: #1f77b4; stroke: #1f77b4"/>
     <use xlink:href="#m598db509b3" x="332.75111" y="65.180855" style="fill: #1f77b4; stroke: #1f77b4"/>
     <use xlink:href="#m598db509b3" x="334.38254" y="64.518921" style="fill: #1f77b4; stroke: #1f77b4"/>
     <use xlink:href="#m598db509b3" x="336.013969" y="64.439117" style="fill: #1f77b4; stroke: #1f77b4"/>
     <use xlink:href="#m598db509b3" x="337.645399" y="64.931931" style="fill: #1f77b4; stroke: #1f77b4"/>
     <use xlink:href="#m598db509b3" x="339.276829" y="63.35074" style="fill: #1f77b4; stroke: #1f77b4"/>
     <use xlink:href="#m598db509b3" x="340.908259" y="63.618661" style="fill: #1f77b4; stroke: #1f77b4"/>
     <use xlink:href="#m598db509b3" x="342.539689" y="64.231329" style="fill: #1f77b4; stroke: #1f77b4"/>
     <use xlink:href="#m598db509b3" x="344.171119" y="65.13584" style="fill: #1f77b4; stroke: #1f77b4"/>
     <use xlink:href="#m598db509b3" x="345.802549" y="65.422567" style="fill: #1f77b4; stroke: #1f77b4"/>
     <use xlink:href="#m598db509b3" x="347.433979" y="65.325875" style="fill: #1f77b4; stroke: #1f77b4"/>
     <use xlink:href="#m598db509b3" x="349.065408" y="65.378543" style="fill: #1f77b4; stroke: #1f77b4"/>
     <use xlink:href="#m598db509b3" x="350.696838" y="66.405173" style="fill: #1f77b4; stroke: #1f77b4"/>
     <use xlink:href="#m598db509b3" x="352.328268" y="65.753972" style="fill: #1f77b4; stroke: #1f77b4"/>
     <use xlink:href="#m598db509b3" x="353.959698" y="67.232568" style="fill: #1f77b4; stroke: #1f77b4"/>
     <use xlink:href="#m598db509b3" x="355.591128" y="65.707376" style="fill: #1f77b4; stroke: #1f77b4"/>
     <use xlink:href="#m598db509b3" x="357.222558" y="65.7225" style="fill: #1f77b4; stroke: #1f77b4"/>
     <use xlink:href="#m598db509b3" x="358.853988" y="65.611445" style="fill: #1f77b4; stroke: #1f77b4"/>
     <use xlink:href="#m598db509b3" x="360.485418" y="67.216017" style="fill: #1f77b4; stroke: #1f77b4"/>
     <use xlink:href="#m598db509b3" x="362.116847" y="64.980186" style="fill: #1f77b4; stroke: #1f77b4"/>
     <use xlink:href="#m598db509b3" x="363.748277" y="66.184809" style="fill: #1f77b4; stroke: #1f77b4"/>
     <use xlink:href="#m598db509b3" x="365.379707" y="66.803291" style="fill: #1f77b4; stroke: #1f77b4"/>
     <use xlink:href="#m598db509b3" x="367.011137" y="66.818875" style="fill: #1f77b4; stroke: #1f77b4"/>
     <use xlink:href="#m598db509b3" x="368.642567" y="65.410649" style="fill: #1f77b4; stroke: #1f77b4"/>
     <use xlink:href="#m598db509b3" x="370.273997" y="65.983864" style="fill: #1f77b4; stroke: #1f77b4"/>
     <use xlink:href="#m598db509b3" x="371.905427" y="65.184938" style="fill: #1f77b4; stroke: #1f77b4"/>
     <use xlink:href="#m598db509b3" x="373.536857" y="66.274936" style="fill: #1f77b4; stroke: #1f77b4"/>
     <use xlink:href="#m598db509b3" x="375.168286" y="64.331736" style="fill: #1f77b4; stroke: #1f77b4"/>
     <use xlink:href="#m598db509b3" x="376.799716" y="66.070668" style="fill: #1f77b4; stroke: #1f77b4"/>
     <use xlink:href="#m598db509b3" x="378.431146" y="66.375322" style="fill: #1f77b4; stroke: #1f77b4"/>
     <use xlink:href="#m598db509b3" x="380.062576" y="66.204162" style="fill: #1f77b4; stroke: #1f77b4"/>
     <use xlink:href="#m598db509b3" x="381.694006" y="65.738381" style="fill: #1f77b4; stroke: #1f77b4"/>
     <use xlink:href="#m598db509b3" x="383.325436" y="67.166543" style="fill: #1f77b4; stroke: #1f77b4"/>
     <use xlink:href="#m598db509b3" x="384.956866" y="66.940407" style="fill: #1f77b4; stroke: #1f77b4"/>
     <use xlink:href="#m598db509b3" x="386.588296" y="65.869114" style="fill: #1f77b4; stroke: #1f77b4"/>
     <use xlink:href="#m598db509b3" x="388.219725" y="67.483271" style="fill: #1f77b4; stroke: #1f77b4"/>
     <use xlink:href="#m598db509b3" x="389.851155" y="66.522782" style="fill: #1f77b4; stroke: #1f77b4"/>
     <use xlink:href="#m598db509b3" x="391.482585" y="67.401652" style="fill: #1f77b4; stroke: #1f77b4"/>
    </g>
   </g>
   <g id="line2d_12">
    <path d="M 66.82804 54.999228 
L 110.375296 55.090338 
L 130.524027 55.339889 
L 143.523208 55.709578 
L 152.947614 56.188814 
L 160.097163 56.760105 
L 165.946795 57.439859 
L 170.821488 58.224009 
L 175.046222 59.132062 
L 178.620996 60.128118 
L 181.870792 61.275746 
L 184.795607 62.565981 
L 187.395444 63.975027 
L 189.6703 65.461561 
L 191.945157 67.240447 
L 193.895034 69.047757 
L 195.844911 71.168971 
L 197.794788 73.664199 
L 199.419686 76.079766 
L 201.044584 78.850177 
L 202.669481 82.026529 
L 204.294379 85.663525 
L 205.919276 89.817304 
L 207.544174 94.541773 
L 209.169072 99.883001 
L 211.118949 107.147522 
L 213.068826 115.342135 
L 215.343683 125.950441 
L 220.868335 152.527162 
L 221.843273 155.679644 
L 222.493232 156.908105 
L 222.818212 157.185988 
L 223.143191 157.221818 
L 223.468171 157.017137 
L 223.79315 156.585824 
L 224.443109 155.141705 
L 225.418048 151.948861 
L 227.042946 145.334644 
L 231.267679 127.615646 
L 233.542536 119.235334 
L 235.492413 112.879392 
L 237.44229 107.263784 
L 239.392168 102.330497 
L 241.342045 98.008457 
L 243.291922 94.224493 
L 245.241799 90.909093 
L 247.191676 87.999102 
L 249.141553 85.438681 
L 251.41641 82.828962 
L 253.691267 80.563746 
L 255.966123 78.588526 
L 258.56596 76.62866 
L 261.165796 74.933707 
L 264.090611 73.288532 
L 267.340407 71.726901 
L 270.915181 70.270943 
L 274.814936 68.932792 
L 279.03967 67.716662 
L 283.914362 66.54987 
L 289.439014 65.464005 
L 295.613625 64.476352 
L 302.763175 63.555592 
L 311.212643 62.693567 
L 321.287008 61.894805 
L 333.31125 61.168423 
L 348.260308 60.497425 
L 366.784141 59.897964 
L 390.507647 59.363632 
L 391.482585 59.34567 
L 391.482585 59.34567 
" clip-path="url(#p12f1b4b210)" style="fill: none; stroke: #d62728; stroke-width: 1.5; stroke-linecap: square"/>
   </g>
   <g id="patch_3">
    <path d="M 50.595313 162.72 
L 50.595313 41.76 
" style="fill: none; stroke: #000000; stroke-width: 0.8; stroke-linejoin: miter; stroke-linecap: square"/>
   </g>
   <g id="patch_4">
    <path d="M 407.715312 162.72 
L 407.715312 41.76 
" style="fill: none; stroke: #000000; stroke-width: 0.8; stroke-linejoin: miter; stroke-linecap: square"/>
   </g>
   <g id="patch_5">
    <path d="M 50.595312 162.72 
L 407.715312 162.72 
" style="fill: none; stroke: #000000; stroke-width: 0.8; stroke-linejoin: miter; stroke-linecap: square"/>
   </g>
   <g id="patch_6">
    <path d="M 50.595312 41.76 
L 407.715312 41.76 
" style="fill: none; stroke: #000000; stroke-width: 0.8; stroke-linejoin: miter; stroke-linecap: square"/>
   </g>
   <g id="text_6">
    <g id="patch_7">
     <path d="M 425.571312 95.079562 
L 564.171312 95.079562 
Q 568.171312 95.079562 568.171312 91.079562 
L 568.171312 47.808 
Q 568.171312 43.808 564.171312 43.808 
L 425.571312 43.808 
Q 421.571312 43.808 421.571312 47.808 
L 421.571312 91.079562 
Q 421.571312 95.079562 425.571312 95.079562 
z
" style="fill: #ffffff; opacity: 0.5; stroke: #000000; stroke-linejoin: miter"/>
    </g>
    <!-- Summary -->
    <g transform="translate(425.571312 55.406437) scale(0.1 -0.1)">
     <defs>
      <path id="DejaVuSans-53" d="M 3425 4513 
L 3425 3897 
Q 3066 4069 2747 4153 
Q 2428 4238 2131 4238 
Q 1616 4238 1336 4038 
Q 1056 3838 1056 3469 
Q 1056 3159 1242 3001 
Q 1428 2844 1947 2747 
L 2328 2669 
Q 3034 2534 3370 2195 
Q 3706 1856 3706 1288 
Q 3706 609 3251 259 
Q 2797 -91 1919 -91 
Q 1588 -91 1214 -16 
Q 841 59 441 206 
L 441 856 
Q 825 641 1194 531 
Q 1563 422 1919 422 
Q 2459 422 2753 634 
Q 3047 847 3047 1241 
Q 3047 1584 2836 1778 
Q 2625 1972 2144 2069 
L 1759 2144 
Q 1053 2284 737 2584 
Q 422 2884 422 3419 
Q 422 4038 858 4394 
Q 1294 4750 2059 4750 
Q 2388 4750 2728 4690 
Q 3069 4631 3425 4513 
z
" transform="scale(0.015625)"/>
      <path id="DejaVuSans-75" d="M 544 1381 
L 544 3500 
L 1119 3500 
L 1119 1403 
Q 1119 906 1312 657 
Q 1506 409 1894 409 
Q 2359 409 2629 706 
Q 2900 1003 2900 1516 
L 2900 3500 
L 3475 3500 
L 3475 0 
L 2900 0 
L 2900 538 
Q 2691 219 2414 64 
Q 2138 -91 1772 -91 
Q 1169 -91 856 284 
Q 544 659 544 1381 
z
M 1991 3584 
L 1991 3584 
z
" transform="scale(0.015625)"/>
      <path id="DejaVuSans-61" d="M 2194 1759 
Q 1497 1759 1228 1600 
Q 959 1441 959 1056 
Q 959 750 1161 570 
Q 1363 391 1709 391 
Q 2188 391 2477 730 
Q 2766 1069 2766 1631 
L 2766 1759 
L 2194 1759 
z
M 3341 1997 
L 3341 0 
L 2766 0 
L 2766 531 
Q 2569 213 2275 61 
Q 1981 -91 1556 -91 
Q 1019 -91 701 211 
Q 384 513 384 1019 
Q 384 1609 779 1909 
Q 1175 2209 1959 2209 
L 2766 2209 
L 2766 2266 
Q 2766 2663 2505 2880 
Q 2244 3097 1772 3097 
Q 1472 3097 1187 3025 
Q 903 2953 641 2809 
L 641 3341 
Q 956 3463 1253 3523 
Q 1550 3584 1831 3584 
Q 2591 3584 2966 3190 
Q 3341 2797 3341 1997 
z
" transform="scale(0.015625)"/>
      <path id="DejaVuSans-72" d="M 2631 2963 
Q 2534 3019 2420 3045 
Q 2306 3072 2169 3072 
Q 1681 3072 1420 2755 
Q 1159 2438 1159 1844 
L 1159 0 
L 581 0 
L 581 3500 
L 1159 3500 
L 1159 2956 
Q 1341 3275 1631 3429 
Q 1922 3584 2338 3584 
Q 2397 3584 2469 3576 
Q 2541 3569 2628 3553 
L 2631 2963 
z
" transform="scale(0.015625)"/>
      <path id="DejaVuSans-79" d="M 2059 -325 
Q 1816 -950 1584 -1140 
Q 1353 -1331 966 -1331 
L 506 -1331 
L 506 -850 
L 844 -850 
Q 1081 -850 1212 -737 
Q 1344 -625 1503 -206 
L 1606 56 
L 191 3500 
L 800 3500 
L 1894 763 
L 2988 3500 
L 3597 3500 
L 2059 -325 
z
" transform="scale(0.015625)"/>
     </defs>
     <use xlink:href="#DejaVuSans-53"/>
     <use xlink:href="#DejaVuSans-75" x="63.476562"/>
     <use xlink:href="#DejaVuSans-6d" x="126.855469"/>
     <use xlink:href="#DejaVuSans-6d" x="224.267578"/>
     <use xlink:href="#DejaVuSans-61" x="321.679688"/>
     <use xlink:href="#DejaVuSans-72" x="382.958984"/>
     <use xlink:href="#DejaVuSans-79" x="424.072266"/>
    </g>
    <!-- $Q_I$: 16.80$\pm$0.94 k -->
    <g transform="translate(425.571312 66.60425) scale(0.1 -0.1)">
     <defs>
      <path id="DejaVuSans-Oblique-51" d="M 2309 -84 
Q 2275 -88 2237 -89 
Q 2200 -91 2125 -91 
Q 1250 -91 756 411 
Q 263 913 263 1797 
Q 263 2319 452 2844 
Q 641 3369 978 3788 
Q 1369 4269 1858 4509 
Q 2347 4750 2938 4750 
Q 3794 4750 4287 4245 
Q 4781 3741 4781 2869 
Q 4781 1928 4265 1147 
Q 3750 366 2919 44 
L 3553 -825 
L 2847 -825 
L 2309 -84 
z
M 2919 4238 
Q 2400 4238 2003 3986 
Q 1606 3734 1313 3219 
Q 1125 2891 1026 2522 
Q 928 2153 928 1778 
Q 928 1128 1239 775 
Q 1550 422 2119 422 
Q 2631 422 3032 676 
Q 3434 931 3719 1434 
Q 3909 1772 4009 2142 
Q 4109 2513 4109 2881 
Q 4109 3528 3796 3883 
Q 3484 4238 2919 4238 
z
" transform="scale(0.015625)"/>
      <path id="DejaVuSans-Oblique-49" d="M 1081 4666 
L 1716 4666 
L 806 0 
L 172 0 
L 1081 4666 
z
" transform="scale(0.015625)"/>
      <path id="DejaVuSans-3a" d="M 750 794 
L 1409 794 
L 1409 0 
L 750 0 
L 750 794 
z
M 750 3309 
L 1409 3309 
L 1409 2516 
L 750 2516 
L 750 3309 
z
" transform="scale(0.015625)"/>
      <path id="DejaVuSans-2e" d="M 684 794 
L 1344 794 
L 1344 0 
L 684 0 
L 684 794 
z
" transform="scale(0.015625)"/>
      <path id="DejaVuSans-30" d="M 2034 4250 
Q 1547 4250 1301 3770 
Q 1056 3291 1056 2328 
Q 1056 1369 1301 889 
Q 1547 409 2034 409 
Q 2525 409 2770 889 
Q 3016 1369 3016 2328 
Q 3016 3291 2770 3770 
Q 2525 4250 2034 4250 
z
M 2034 4750 
Q 2819 4750 3233 4129 
Q 3647 3509 3647 2328 
Q 3647 1150 3233 529 
Q 2819 -91 2034 -91 
Q 1250 -91 836 529 
Q 422 1150 422 2328 
Q 422 3509 836 4129 
Q 1250 4750 2034 4750 
z
" transform="scale(0.015625)"/>
      <path id="DejaVuSans-b1" d="M 2944 4013 
L 2944 2803 
L 4684 2803 
L 4684 2272 
L 2944 2272 
L 2944 1063 
L 2419 1063 
L 2419 2272 
L 678 2272 
L 678 2803 
L 2419 2803 
L 2419 4013 
L 2944 4013 
z
M 678 531 
L 4684 531 
L 4684 0 
L 678 0 
L 678 531 
z
" transform="scale(0.015625)"/>
      <path id="DejaVuSans-39" d="M 703 97 
L 703 672 
Q 941 559 1184 500 
Q 1428 441 1663 441 
Q 2288 441 2617 861 
Q 2947 1281 2994 2138 
Q 2813 1869 2534 1725 
Q 2256 1581 1919 1581 
Q 1219 1581 811 2004 
Q 403 2428 403 3163 
Q 403 3881 828 4315 
Q 1253 4750 1959 4750 
Q 2769 4750 3195 4129 
Q 3622 3509 3622 2328 
Q 3622 1225 3098 567 
Q 2575 -91 1691 -91 
Q 1453 -91 1209 -44 
Q 966 3 703 97 
z
M 1959 2075 
Q 2384 2075 2632 2365 
Q 2881 2656 2881 3163 
Q 2881 3666 2632 3958 
Q 2384 4250 1959 4250 
Q 1534 4250 1286 3958 
Q 1038 3666 1038 3163 
Q 1038 2656 1286 2365 
Q 1534 2075 1959 2075 
z
" transform="scale(0.015625)"/>
      <path id="DejaVuSans-6b" d="M 581 4863 
L 1159 4863 
L 1159 1991 
L 2875 3500 
L 3609 3500 
L 1753 1863 
L 3688 0 
L 2938 0 
L 1159 1709 
L 1159 0 
L 581 0 
L 581 4863 
z
" transform="scale(0.015625)"/>
     </defs>
     <use xlink:href="#DejaVuSans-Oblique-51" transform="translate(0 0.015625)"/>
     <use xlink:href="#DejaVuSans-Oblique-49" transform="translate(78.710938 -16.390625) scale(0.7)"/>
     <use xlink:href="#DejaVuSans-3a" transform="translate(102.089844 0.015625)"/>
     <use xlink:href="#DejaVuSans-20" transform="translate(135.78125 0.015625)"/>
     <use xlink:href="#DejaVuSans-31" transform="translate(167.568359 0.015625)"/>
     <use xlink:href="#DejaVuSans-36" transform="translate(231.191406 0.015625)"/>
     <use xlink:href="#DejaVuSans-2e" transform="translate(294.814453 0.015625)"/>
     <use xlink:href="#DejaVuSans-38" transform="translate(323.976562 0.015625)"/>
     <use xlink:href="#DejaVuSans-30" transform="translate(387.599609 0.015625)"/>
     <use xlink:href="#DejaVuSans-b1" transform="translate(451.222656 0.015625)"/>
     <use xlink:href="#DejaVuSans-30" transform="translate(535.011719 0.015625)"/>
     <use xlink:href="#DejaVuSans-2e" transform="translate(598.634766 0.015625)"/>
     <use xlink:href="#DejaVuSans-39" transform="translate(630.421875 0.015625)"/>
     <use xlink:href="#DejaVuSans-34" transform="translate(694.044922 0.015625)"/>
     <use xlink:href="#DejaVuSans-20" transform="translate(757.667969 0.015625)"/>
     <use xlink:href="#DejaVuSans-6b" transform="translate(789.455078 0.015625)"/>
    </g>
    <!-- $Q_C$: 2.390$\pm$0.023 k -->
    <g transform="translate(425.571312 77.802062) scale(0.1 -0.1)">
     <defs>
      <path id="DejaVuSans-Oblique-43" d="M 4447 4306 
L 4319 3641 
Q 4019 3944 3683 4091 
Q 3347 4238 2956 4238 
Q 2422 4238 2017 3981 
Q 1613 3725 1319 3200 
Q 1131 2863 1032 2486 
Q 934 2109 934 1728 
Q 934 1091 1264 756 
Q 1594 422 2222 422 
Q 2656 422 3056 561 
Q 3456 700 3834 978 
L 3688 231 
Q 3316 72 2936 -9 
Q 2556 -91 2175 -91 
Q 1278 -91 773 396 
Q 269 884 269 1753 
Q 269 2309 461 2846 
Q 653 3384 1013 3828 
Q 1394 4300 1883 4525 
Q 2372 4750 3022 4750 
Q 3422 4750 3780 4639 
Q 4138 4528 4447 4306 
z
" transform="scale(0.015625)"/>
      <path id="DejaVuSans-33" d="M 2597 2516 
Q 3050 2419 3304 2112 
Q 3559 1806 3559 1356 
Q 3559 666 3084 287 
Q 2609 -91 1734 -91 
Q 1441 -91 1130 -33 
Q 819 25 488 141 
L 488 750 
Q 750 597 1062 519 
Q 1375 441 1716 441 
Q 2309 441 2620 675 
Q 2931 909 2931 1356 
Q 2931 1769 2642 2001 
Q 2353 2234 1838 2234 
L 1294 2234 
L 1294 2753 
L 1863 2753 
Q 2328 2753 2575 2939 
Q 2822 3125 2822 3475 
Q 2822 3834 2567 4026 
Q 2313 4219 1838 4219 
Q 1578 4219 1281 4162 
Q 984 4106 628 3988 
L 628 4550 
Q 988 4650 1302 4700 
Q 1616 4750 1894 4750 
Q 2613 4750 3031 4423 
Q 3450 4097 3450 3541 
Q 3450 3153 3228 2886 
Q 3006 2619 2597 2516 
z
" transform="scale(0.015625)"/>
     </defs>
     <use xlink:href="#DejaVuSans-Oblique-51" transform="translate(0 0.015625)"/>
     <use xlink:href="#DejaVuSans-Oblique-43" transform="translate(78.710938 -16.390625) scale(0.7)"/>
     <use xlink:href="#DejaVuSans-3a" transform="translate(130.322266 0.015625)"/>
     <use xlink:href="#DejaVuSans-20" transform="translate(164.013672 0.015625)"/>
     <use xlink:href="#DejaVuSans-32" transform="translate(195.800781 0.015625)"/>
     <use xlink:href="#DejaVuSans-2e" transform="translate(259.423828 0.015625)"/>
     <use xlink:href="#DejaVuSans-33" transform="translate(291.210938 0.015625)"/>
     <use xlink:href="#DejaVuSans-39" transform="translate(354.833984 0.015625)"/>
     <use xlink:href="#DejaVuSans-30" transform="translate(418.457031 0.015625)"/>
     <use xlink:href="#DejaVuSans-b1" transform="translate(482.080078 0.015625)"/>
     <use xlink:href="#DejaVuSans-30" transform="translate(565.869141 0.015625)"/>
     <use xlink:href="#DejaVuSans-2e" transform="translate(629.492188 0.015625)"/>
     <use xlink:href="#DejaVuSans-30" transform="translate(661.279297 0.015625)"/>
     <use xlink:href="#DejaVuSans-32" transform="translate(724.902344 0.015625)"/>
     <use xlink:href="#DejaVuSans-33" transform="translate(788.525391 0.015625)"/>
     <use xlink:href="#DejaVuSans-20" transform="translate(852.148438 0.015625)"/>
     <use xlink:href="#DejaVuSans-6b" transform="translate(883.935547 0.015625)"/>
    </g>
    <!-- $f_{res}$: 6.106630$\pm$1.7e-05 GHz -->
    <g transform="translate(425.571312 88.999875) scale(0.1 -0.1)">
     <defs>
      <path id="DejaVuSans-Oblique-66" d="M 3059 4863 
L 2969 4384 
L 2419 4384 
Q 2106 4384 1964 4261 
Q 1822 4138 1753 3809 
L 1691 3500 
L 2638 3500 
L 2553 3053 
L 1606 3053 
L 1013 0 
L 434 0 
L 1031 3053 
L 481 3053 
L 563 3500 
L 1113 3500 
L 1159 3744 
Q 1278 4363 1576 4613 
Q 1875 4863 2516 4863 
L 3059 4863 
z
" transform="scale(0.015625)"/>
      <path id="DejaVuSans-Oblique-72" d="M 2853 2969 
Q 2766 3016 2653 3041 
Q 2541 3066 2413 3066 
Q 1953 3066 1609 2717 
Q 1266 2369 1153 1784 
L 800 0 
L 225 0 
L 909 3500 
L 1484 3500 
L 1375 2956 
Q 1603 3259 1920 3421 
Q 2238 3584 2597 3584 
Q 2691 3584 2781 3573 
Q 2872 3563 2963 3538 
L 2853 2969 
z
" transform="scale(0.015625)"/>
      <path id="DejaVuSans-Oblique-65" d="M 3078 2063 
Q 3088 2113 3092 2166 
Q 3097 2219 3097 2272 
Q 3097 2653 2873 2875 
Q 2650 3097 2266 3097 
Q 1838 3097 1509 2826 
Q 1181 2556 1013 2059 
L 3078 2063 
z
M 3578 1613 
L 903 1613 
Q 884 1494 878 1425 
Q 872 1356 872 1306 
Q 872 872 1139 634 
Q 1406 397 1894 397 
Q 2269 397 2603 481 
Q 2938 566 3225 728 
L 3116 159 
Q 2806 34 2476 -28 
Q 2147 -91 1806 -91 
Q 1078 -91 686 257 
Q 294 606 294 1247 
Q 294 1794 489 2264 
Q 684 2734 1063 3103 
Q 1306 3334 1642 3459 
Q 1978 3584 2356 3584 
Q 2950 3584 3301 3228 
Q 3653 2872 3653 2272 
Q 3653 2128 3634 1964 
Q 3616 1800 3578 1613 
z
" transform="scale(0.015625)"/>
      <path id="DejaVuSans-Oblique-73" d="M 3200 3397 
L 3091 2853 
Q 2863 2978 2609 3040 
Q 2356 3103 2088 3103 
Q 1634 3103 1373 2948 
Q 1113 2794 1113 2528 
Q 1113 2219 1719 2053 
Q 1766 2041 1788 2034 
L 1972 1978 
Q 2547 1819 2739 1644 
Q 2931 1469 2931 1166 
Q 2931 609 2489 259 
Q 2047 -91 1331 -91 
Q 1053 -91 747 -37 
Q 441 16 72 128 
L 184 722 
Q 500 559 806 475 
Q 1113 391 1394 391 
Q 1816 391 2080 572 
Q 2344 753 2344 1031 
Q 2344 1331 1650 1516 
L 1591 1531 
L 1394 1581 
Q 956 1697 753 1886 
Q 550 2075 550 2369 
Q 550 2928 970 3256 
Q 1391 3584 2113 3584 
Q 2397 3584 2667 3537 
Q 2938 3491 3200 3397 
z
" transform="scale(0.015625)"/>
      <path id="DejaVuSans-37" d="M 525 4666 
L 3525 4666 
L 3525 4397 
L 1831 0 
L 1172 0 
L 2766 4134 
L 525 4134 
L 525 4666 
z
" transform="scale(0.015625)"/>
      <path id="DejaVuSans-65" d="M 3597 1894 
L 3597 1613 
L 953 1613 
Q 991 1019 1311 708 
Q 1631 397 2203 397 
Q 2534 397 2845 478 
Q 3156 559 3463 722 
L 3463 178 
Q 3153 47 2828 -22 
Q 2503 -91 2169 -91 
Q 1331 -91 842 396 
Q 353 884 353 1716 
Q 353 2575 817 3079 
Q 1281 3584 2069 3584 
Q 2775 3584 3186 3129 
Q 3597 2675 3597 1894 
z
M 3022 2063 
Q 3016 2534 2758 2815 
Q 2500 3097 2075 3097 
Q 1594 3097 1305 2825 
Q 1016 2553 972 2059 
L 3022 2063 
z
" transform="scale(0.015625)"/>
      <path id="DejaVuSans-2d" d="M 313 2009 
L 1997 2009 
L 1997 1497 
L 313 1497 
L 313 2009 
z
" transform="scale(0.015625)"/>
      <path id="DejaVuSans-35" d="M 691 4666 
L 3169 4666 
L 3169 4134 
L 1269 4134 
L 1269 2991 
Q 1406 3038 1543 3061 
Q 1681 3084 1819 3084 
Q 2600 3084 3056 2656 
Q 3513 2228 3513 1497 
Q 3513 744 3044 326 
Q 2575 -91 1722 -91 
Q 1428 -91 1123 -41 
Q 819 9 494 109 
L 494 744 
Q 775 591 1075 516 
Q 1375 441 1709 441 
Q 2250 441 2565 725 
Q 2881 1009 2881 1497 
Q 2881 1984 2565 2268 
Q 2250 2553 1709 2553 
Q 1456 2553 1204 2497 
Q 953 2441 691 2322 
L 691 4666 
z
" transform="scale(0.015625)"/>
      <path id="DejaVuSans-47" d="M 3809 666 
L 3809 1919 
L 2778 1919 
L 2778 2438 
L 4434 2438 
L 4434 434 
Q 4069 175 3628 42 
Q 3188 -91 2688 -91 
Q 1594 -91 976 548 
Q 359 1188 359 2328 
Q 359 3472 976 4111 
Q 1594 4750 2688 4750 
Q 3144 4750 3555 4637 
Q 3966 4525 4313 4306 
L 4313 3634 
Q 3963 3931 3569 4081 
Q 3175 4231 2741 4231 
Q 1884 4231 1454 3753 
Q 1025 3275 1025 2328 
Q 1025 1384 1454 906 
Q 1884 428 2741 428 
Q 3075 428 3337 486 
Q 3600 544 3809 666 
z
" transform="scale(0.015625)"/>
      <path id="DejaVuSans-48" d="M 628 4666 
L 1259 4666 
L 1259 2753 
L 3553 2753 
L 3553 4666 
L 4184 4666 
L 4184 0 
L 3553 0 
L 3553 2222 
L 1259 2222 
L 1259 0 
L 628 0 
L 628 4666 
z
" transform="scale(0.015625)"/>
      <path id="DejaVuSans-7a" d="M 353 3500 
L 3084 3500 
L 3084 2975 
L 922 459 
L 3084 459 
L 3084 0 
L 275 0 
L 275 525 
L 2438 3041 
L 353 3041 
L 353 3500 
z
" transform="scale(0.015625)"/>
     </defs>
     <use xlink:href="#DejaVuSans-Oblique-66" transform="translate(0 0.015625)"/>
     <use xlink:href="#DejaVuSans-Oblique-72" transform="translate(35.205078 -16.390625) scale(0.7)"/>
     <use xlink:href="#DejaVuSans-Oblique-65" transform="translate(63.984375 -16.390625) scale(0.7)"/>
     <use xlink:href="#DejaVuSans-Oblique-73" transform="translate(107.050781 -16.390625) scale(0.7)"/>
     <use xlink:href="#DejaVuSans-3a" transform="translate(146.254883 0.015625)"/>
     <use xlink:href="#DejaVuSans-20" transform="translate(179.946289 0.015625)"/>
     <use xlink:href="#DejaVuSans-36" transform="translate(211.733398 0.015625)"/>
     <use xlink:href="#DejaVuSans-2e" transform="translate(275.356445 0.015625)"/>
     <use xlink:href="#DejaVuSans-31" transform="translate(307.143555 0.015625)"/>
     <use xlink:href="#DejaVuSans-30" transform="translate(370.766602 0.015625)"/>
     <use xlink:href="#DejaVuSans-36" transform="translate(434.389648 0.015625)"/>
     <use xlink:href="#DejaVuSans-36" transform="translate(498.012695 0.015625)"/>
     <use xlink:href="#DejaVuSans-33" transform="translate(561.635742 0.015625)"/>
     <use xlink:href="#DejaVuSans-30" transform="translate(625.258789 0.015625)"/>
     <use xlink:href="#DejaVuSans-b1" transform="translate(688.881836 0.015625)"/>
     <use xlink:href="#DejaVuSans-31" transform="translate(772.670898 0.015625)"/>
     <use xlink:href="#DejaVuSans-2e" transform="translate(836.293945 0.015625)"/>
     <use xlink:href="#DejaVuSans-37" transform="translate(860.331055 0.015625)"/>
     <use xlink:href="#DejaVuSans-65" transform="translate(923.954102 0.015625)"/>
     <use xlink:href="#DejaVuSans-2d" transform="translate(985.477539 0.015625)"/>
     <use xlink:href="#DejaVuSans-30" transform="translate(1021.561523 0.015625)"/>
     <use xlink:href="#DejaVuSans-35" transform="translate(1085.18457 0.015625)"/>
     <use xlink:href="#DejaVuSans-20" transform="translate(1148.807617 0.015625)"/>
     <use xlink:href="#DejaVuSans-47" transform="translate(1180.594727 0.015625)"/>
     <use xlink:href="#DejaVuSans-48" transform="translate(1258.084961 0.015625)"/>
     <use xlink:href="#DejaVuSans-7a" transform="translate(1333.280273 0.015625)"/>
    </g>
   </g>
  </g>
  <g id="axes_2">
   <g id="patch_8">
    <path d="M 50.595313 307.872 
L 407.715312 307.872 
L 407.715312 186.912 
L 50.595313 186.912 
z
" style="fill: #ffffff"/>
   </g>
   <g id="matplotlib.axis_3">
    <g id="xtick_7">
     <g id="line2d_13">
      <g>
       <use xlink:href="#m281fe82278" x="62.769858" y="307.872" style="stroke: #000000; stroke-width: 0.8"/>
      </g>
     </g>
     <g id="text_7">
      <!-- 95 -->
      <g transform="translate(56.407358 322.470438) scale(0.1 -0.1)">
       <use xlink:href="#DejaVuSans-39"/>
       <use xlink:href="#DejaVuSans-35" x="63.623047"/>
      </g>
     </g>
    </g>
    <g id="xtick_8">
     <g id="line2d_14">
      <g>
       <use xlink:href="#m281fe82278" x="130.406222" y="307.872" style="stroke: #000000; stroke-width: 0.8"/>
      </g>
     </g>
     <g id="text_8">
      <!-- 100 -->
      <g transform="translate(120.862472 322.470438) scale(0.1 -0.1)">
       <use xlink:href="#DejaVuSans-31"/>
       <use xlink:href="#DejaVuSans-30" x="63.623047"/>
       <use xlink:href="#DejaVuSans-30" x="127.246094"/>
      </g>
     </g>
    </g>
    <g id="xtick_9">
     <g id="line2d_15">
      <g>
       <use xlink:href="#m281fe82278" x="198.042585" y="307.872" style="stroke: #000000; stroke-width: 0.8"/>
      </g>
     </g>
     <g id="text_9">
      <!-- 105 -->
      <g transform="translate(188.498835 322.470438) scale(0.1 -0.1)">
       <use xlink:href="#DejaVuSans-31"/>
       <use xlink:href="#DejaVuSans-30" x="63.623047"/>
       <use xlink:href="#DejaVuSans-35" x="127.246094"/>
      </g>
     </g>
    </g>
    <g id="xtick_10">
     <g id="line2d_16">
      <g>
       <use xlink:href="#m281fe82278" x="265.678949" y="307.872" style="stroke: #000000; stroke-width: 0.8"/>
      </g>
     </g>
     <g id="text_10">
      <!-- 110 -->
      <g transform="translate(256.135199 322.470438) scale(0.1 -0.1)">
       <use xlink:href="#DejaVuSans-31"/>
       <use xlink:href="#DejaVuSans-31" x="63.623047"/>
       <use xlink:href="#DejaVuSans-30" x="127.246094"/>
      </g>
     </g>
    </g>
    <g id="xtick_11">
     <g id="line2d_17">
      <g>
       <use xlink:href="#m281fe82278" x="333.315312" y="307.872" style="stroke: #000000; stroke-width: 0.8"/>
      </g>
     </g>
     <g id="text_11">
      <!-- 115 -->
      <g transform="translate(323.771562 322.470438) scale(0.1 -0.1)">
       <use xlink:href="#DejaVuSans-31"/>
       <use xlink:href="#DejaVuSans-31" x="63.623047"/>
       <use xlink:href="#DejaVuSans-35" x="127.246094"/>
      </g>
     </g>
    </g>
    <g id="xtick_12">
     <g id="line2d_18">
      <g>
       <use xlink:href="#m281fe82278" x="400.951676" y="307.872" style="stroke: #000000; stroke-width: 0.8"/>
      </g>
     </g>
     <g id="text_12">
      <!-- 120 -->
      <g transform="translate(391.407926 322.470438) scale(0.1 -0.1)">
       <use xlink:href="#DejaVuSans-31"/>
       <use xlink:href="#DejaVuSans-32" x="63.623047"/>
       <use xlink:href="#DejaVuSans-30" x="127.246094"/>
      </g>
     </g>
    </g>
    <g id="text_13">
     <!-- Frequency [MHz] -->
     <g transform="translate(187.136562 336.148562) scale(0.1 -0.1)">
      <defs>
       <path id="DejaVuSans-46" d="M 628 4666 
L 3309 4666 
L 3309 4134 
L 1259 4134 
L 1259 2759 
L 3109 2759 
L 3109 2228 
L 1259 2228 
L 1259 0 
L 628 0 
L 628 4666 
z
" transform="scale(0.015625)"/>
       <path id="DejaVuSans-71" d="M 947 1747 
Q 947 1113 1208 752 
Q 1469 391 1925 391 
Q 2381 391 2643 752 
Q 2906 1113 2906 1747 
Q 2906 2381 2643 2742 
Q 2381 3103 1925 3103 
Q 1469 3103 1208 2742 
Q 947 2381 947 1747 
z
M 2906 525 
Q 2725 213 2448 61 
Q 2172 -91 1784 -91 
Q 1150 -91 751 415 
Q 353 922 353 1747 
Q 353 2572 751 3078 
Q 1150 3584 1784 3584 
Q 2172 3584 2448 3432 
Q 2725 3281 2906 2969 
L 2906 3500 
L 3481 3500 
L 3481 -1331 
L 2906 -1331 
L 2906 525 
z
" transform="scale(0.015625)"/>
       <path id="DejaVuSans-6e" d="M 3513 2113 
L 3513 0 
L 2938 0 
L 2938 2094 
Q 2938 2591 2744 2837 
Q 2550 3084 2163 3084 
Q 1697 3084 1428 2787 
Q 1159 2491 1159 1978 
L 1159 0 
L 581 0 
L 581 3500 
L 1159 3500 
L 1159 2956 
Q 1366 3272 1645 3428 
Q 1925 3584 2291 3584 
Q 2894 3584 3203 3211 
Q 3513 2838 3513 2113 
z
" transform="scale(0.015625)"/>
       <path id="DejaVuSans-63" d="M 3122 3366 
L 3122 2828 
Q 2878 2963 2633 3030 
Q 2388 3097 2138 3097 
Q 1578 3097 1268 2742 
Q 959 2388 959 1747 
Q 959 1106 1268 751 
Q 1578 397 2138 397 
Q 2388 397 2633 464 
Q 2878 531 3122 666 
L 3122 134 
Q 2881 22 2623 -34 
Q 2366 -91 2075 -91 
Q 1284 -91 818 406 
Q 353 903 353 1747 
Q 353 2603 823 3093 
Q 1294 3584 2113 3584 
Q 2378 3584 2631 3529 
Q 2884 3475 3122 3366 
z
" transform="scale(0.015625)"/>
       <path id="DejaVuSans-4d" d="M 628 4666 
L 1569 4666 
L 2759 1491 
L 3956 4666 
L 4897 4666 
L 4897 0 
L 4281 0 
L 4281 4097 
L 3078 897 
L 2444 897 
L 1241 4097 
L 1241 0 
L 628 0 
L 628 4666 
z
" transform="scale(0.015625)"/>
      </defs>
      <use xlink:href="#DejaVuSans-46"/>
      <use xlink:href="#DejaVuSans-72" x="50.269531"/>
      <use xlink:href="#DejaVuSans-65" x="89.132812"/>
      <use xlink:href="#DejaVuSans-71" x="150.65625"/>
      <use xlink:href="#DejaVuSans-75" x="214.132812"/>
      <use xlink:href="#DejaVuSans-65" x="277.511719"/>
      <use xlink:href="#DejaVuSans-6e" x="339.035156"/>
      <use xlink:href="#DejaVuSans-63" x="402.414062"/>
      <use xlink:href="#DejaVuSans-79" x="457.394531"/>
      <use xlink:href="#DejaVuSans-20" x="516.574219"/>
      <use xlink:href="#DejaVuSans-5b" x="548.361328"/>
      <use xlink:href="#DejaVuSans-4d" x="587.375"/>
      <use xlink:href="#DejaVuSans-48" x="673.654297"/>
      <use xlink:href="#DejaVuSans-7a" x="748.849609"/>
      <use xlink:href="#DejaVuSans-5d" x="801.339844"/>
     </g>
    </g>
    <g id="text_14">
     <!-- +6 GHz -->
     <g transform="translate(369.277812 335.148562) scale(0.1 -0.1)">
      <defs>
       <path id="DejaVuSans-2b" d="M 2944 4013 
L 2944 2272 
L 4684 2272 
L 4684 1741 
L 2944 1741 
L 2944 0 
L 2419 0 
L 2419 1741 
L 678 1741 
L 678 2272 
L 2419 2272 
L 2419 4013 
L 2944 4013 
z
" transform="scale(0.015625)"/>
      </defs>
      <use xlink:href="#DejaVuSans-2b"/>
      <use xlink:href="#DejaVuSans-36" x="83.789062"/>
      <use xlink:href="#DejaVuSans-20" x="147.412109"/>
      <use xlink:href="#DejaVuSans-47" x="179.199219"/>
      <use xlink:href="#DejaVuSans-48" x="256.689453"/>
      <use xlink:href="#DejaVuSans-7a" x="331.884766"/>
     </g>
    </g>
   </g>
   <g id="matplotlib.axis_4">
    <g id="ytick_5">
     <g id="line2d_19">
      <g>
       <use xlink:href="#macb1e4d54b" x="50.595313" y="277.940265" style="stroke: #000000; stroke-width: 0.8"/>
      </g>
     </g>
     <g id="text_15">
      <!-- -100 -->
      <g transform="translate(20.9 281.739483) scale(0.1 -0.1)">
       <use xlink:href="#DejaVuSans-2d"/>
       <use xlink:href="#DejaVuSans-31" x="36.083984"/>
       <use xlink:href="#DejaVuSans-30" x="99.707031"/>
       <use xlink:href="#DejaVuSans-30" x="163.330078"/>
      </g>
     </g>
    </g>
    <g id="ytick_6">
     <g id="line2d_20">
      <g>
       <use xlink:href="#macb1e4d54b" x="50.595313" y="247.389731" style="stroke: #000000; stroke-width: 0.8"/>
      </g>
     </g>
     <g id="text_16">
      <!-- 0 -->
      <g transform="translate(37.232813 251.18895) scale(0.1 -0.1)">
       <use xlink:href="#DejaVuSans-30"/>
      </g>
     </g>
    </g>
    <g id="ytick_7">
     <g id="line2d_21">
      <g>
       <use xlink:href="#macb1e4d54b" x="50.595313" y="216.839198" style="stroke: #000000; stroke-width: 0.8"/>
      </g>
     </g>
     <g id="text_17">
      <!-- 100 -->
      <g transform="translate(24.507813 220.638417) scale(0.1 -0.1)">
       <use xlink:href="#DejaVuSans-31"/>
       <use xlink:href="#DejaVuSans-30" x="63.623047"/>
       <use xlink:href="#DejaVuSans-30" x="127.246094"/>
      </g>
     </g>
    </g>
    <g id="text_18">
     <!-- $\angle S_{21}$ [deg] -->
     <g transform="translate(14.8 274.592) rotate(-90) scale(0.1 -0.1)">
      <defs>
       <path id="DejaVuSans-2220" d="M 5028 631 
L 5028 0 
L 547 0 
L 3525 4666 
L 4281 4666 
L 1716 631 
L 5028 631 
z
" transform="scale(0.015625)"/>
       <path id="DejaVuSans-64" d="M 2906 2969 
L 2906 4863 
L 3481 4863 
L 3481 0 
L 2906 0 
L 2906 525 
Q 2725 213 2448 61 
Q 2172 -91 1784 -91 
Q 1150 -91 751 415 
Q 353 922 353 1747 
Q 353 2572 751 3078 
Q 1150 3584 1784 3584 
Q 2172 3584 2448 3432 
Q 2725 3281 2906 2969 
z
M 947 1747 
Q 947 1113 1208 752 
Q 1469 391 1925 391 
Q 2381 391 2643 752 
Q 2906 1113 2906 1747 
Q 2906 2381 2643 2742 
Q 2381 3103 1925 3103 
Q 1469 3103 1208 2742 
Q 947 2381 947 1747 
z
" transform="scale(0.015625)"/>
       <path id="DejaVuSans-67" d="M 2906 1791 
Q 2906 2416 2648 2759 
Q 2391 3103 1925 3103 
Q 1463 3103 1205 2759 
Q 947 2416 947 1791 
Q 947 1169 1205 825 
Q 1463 481 1925 481 
Q 2391 481 2648 825 
Q 2906 1169 2906 1791 
z
M 3481 434 
Q 3481 -459 3084 -895 
Q 2688 -1331 1869 -1331 
Q 1566 -1331 1297 -1286 
Q 1028 -1241 775 -1147 
L 775 -588 
Q 1028 -725 1275 -790 
Q 1522 -856 1778 -856 
Q 2344 -856 2625 -561 
Q 2906 -266 2906 331 
L 2906 616 
Q 2728 306 2450 153 
Q 2172 0 1784 0 
Q 1141 0 747 490 
Q 353 981 353 1791 
Q 353 2603 747 3093 
Q 1141 3584 1784 3584 
Q 2172 3584 2450 3431 
Q 2728 3278 2906 2969 
L 2906 3500 
L 3481 3500 
L 3481 434 
z
" transform="scale(0.015625)"/>
      </defs>
      <use xlink:href="#DejaVuSans-2220" transform="translate(0 0.015625)"/>
      <use xlink:href="#DejaVuSans-Oblique-53" transform="translate(89.648438 0.015625)"/>
      <use xlink:href="#DejaVuSans-32" transform="translate(153.125 -16.390625) scale(0.7)"/>
      <use xlink:href="#DejaVuSans-31" transform="translate(197.661133 -16.390625) scale(0.7)"/>
      <use xlink:href="#DejaVuSans-20" transform="translate(244.931641 0.015625)"/>
      <use xlink:href="#DejaVuSans-5b" transform="translate(276.71875 0.015625)"/>
      <use xlink:href="#DejaVuSans-64" transform="translate(315.732422 0.015625)"/>
      <use xlink:href="#DejaVuSans-65" transform="translate(379.208984 0.015625)"/>
      <use xlink:href="#DejaVuSans-67" transform="translate(440.732422 0.015625)"/>
      <use xlink:href="#DejaVuSans-5d" transform="translate(504.208984 0.015625)"/>
     </g>
    </g>
   </g>
   <g id="line2d_22">
    <path d="M 66.82804 289.846058 
L 68.45947 289.705049 
L 73.353759 290.447671 
L 74.985189 290.464158 
L 76.616619 290.694786 
L 78.248049 290.773384 
L 79.879479 291.0565 
L 89.668058 291.925704 
L 92.930918 292.320698 
L 96.193778 292.959202 
L 97.825207 292.975304 
L 99.456637 293.351892 
L 101.088067 293.552371 
L 102.719497 293.494872 
L 104.350927 293.971723 
L 107.613787 293.956218 
L 109.245217 294.255863 
L 115.770936 295.040039 
L 117.402366 295.441661 
L 119.033796 295.318976 
L 120.665226 295.504691 
L 122.296656 295.859766 
L 123.928085 296.021342 
L 125.559515 296.361043 
L 127.190945 296.336977 
L 128.822375 296.691663 
L 130.453805 296.777569 
L 140.242384 298.075398 
L 141.873814 298.59403 
L 143.505244 298.615052 
L 145.136674 298.968249 
L 146.768104 299.061131 
L 148.399534 299.374744 
L 150.030963 299.518289 
L 151.662393 300.024333 
L 154.925253 300.264426 
L 156.556683 300.60963 
L 158.188113 300.645359 
L 159.819543 300.941076 
L 161.450973 301.477787 
L 163.082402 301.861076 
L 164.713832 302.0359 
L 166.345262 192.497047 
L 167.976692 302.330854 
L 169.608122 192.870828 
L 174.502412 193.760875 
L 176.133842 194.174321 
L 177.765271 194.288817 
L 179.396701 194.904256 
L 181.028131 195.142293 
L 182.659561 195.772892 
L 184.290991 195.718035 
L 185.922421 196.407457 
L 189.185281 197.428703 
L 190.81671 197.819041 
L 192.44814 198.627501 
L 194.07957 199.142874 
L 195.711 199.803799 
L 197.34243 199.958131 
L 198.97386 200.551928 
L 200.60529 201.38275 
L 202.23672 201.810364 
L 203.868149 202.874407 
L 205.499579 203.298411 
L 207.131009 204.017754 
L 208.762439 205.089575 
L 210.393869 205.692054 
L 212.025299 206.80254 
L 213.656729 207.187461 
L 215.288159 208.24627 
L 216.919588 208.517435 
L 218.551018 208.124001 
L 220.182448 206.761358 
L 221.813878 200.547584 
L 223.445308 193.5449 
L 225.076738 292.344457 
L 226.708168 289.742515 
L 228.339598 288.167041 
L 229.971027 288.096821 
L 231.602457 287.654472 
L 233.233887 287.76188 
L 234.865317 289.183136 
L 236.496747 289.696713 
L 238.128177 290.441978 
L 239.759607 291.602499 
L 241.391037 291.92999 
L 243.022466 292.854566 
L 246.285326 293.994931 
L 247.916756 294.887634 
L 249.548186 295.005334 
L 252.811046 296.134405 
L 254.442476 297.071964 
L 256.073905 296.988377 
L 257.705335 297.858611 
L 259.336765 298.101032 
L 265.862485 299.642354 
L 269.125344 299.997989 
L 270.756774 300.657891 
L 272.388204 301.047167 
L 274.019634 301.070433 
L 275.651064 301.484816 
L 277.282494 301.654323 
L 278.913924 301.988808 
L 280.545354 192.616813 
L 282.176783 302.373818 
L 283.808213 192.682685 
L 287.071073 193.840365 
L 288.702503 193.628097 
L 290.333933 193.949972 
L 291.965363 194.092576 
L 295.228223 194.636629 
L 296.859652 194.626666 
L 298.491082 195.007976 
L 300.122512 195.208941 
L 303.385372 195.872293 
L 305.016802 195.822866 
L 306.648232 196.285257 
L 308.279662 196.36921 
L 309.911091 196.659948 
L 311.542521 196.759773 
L 313.173951 196.719955 
L 314.805381 197.15169 
L 316.436811 197.170281 
L 318.068241 197.361943 
L 321.331101 198.094557 
L 322.96253 197.892246 
L 324.59396 198.253251 
L 327.85682 198.484774 
L 329.48825 198.836407 
L 331.11968 199.005069 
L 332.75111 198.959873 
L 334.38254 199.480203 
L 336.013969 199.515419 
L 337.645399 199.96217 
L 340.908259 200.139561 
L 342.539689 200.511473 
L 344.171119 200.612081 
L 345.802549 200.292276 
L 347.433979 200.846501 
L 350.696838 201.057192 
L 352.328268 201.602655 
L 355.591128 201.65562 
L 358.853988 202.272995 
L 360.485418 201.92817 
L 362.116847 202.296479 
L 363.748277 202.421635 
L 365.379707 203.00927 
L 367.011137 202.869304 
L 368.642567 203.395014 
L 370.273997 203.185458 
L 371.905427 203.490404 
L 373.536857 203.410092 
L 375.168286 203.939773 
L 378.431146 204.05396 
L 380.062576 204.250936 
L 381.694006 204.644083 
L 383.325436 204.86299 
L 384.956866 204.868868 
L 386.588296 205.173468 
L 388.219725 205.047156 
L 389.851155 205.378078 
L 391.482585 205.578038 
L 391.482585 205.578038 
" clip-path="url(#p5c625fc191)" style="fill: none; stroke: #1f77b4; stroke-width: 1.5; stroke-linecap: square"/>
    <g clip-path="url(#p5c625fc191)">
     <use xlink:href="#m598db509b3" x="66.82804" y="289.846058" style="fill: #1f77b4; stroke: #1f77b4"/>
     <use xlink:href="#m598db509b3" x="68.45947" y="289.705049" style="fill: #1f77b4; stroke: #1f77b4"/>
     <use xlink:href="#m598db509b3" x="70.0909" y="289.96656" style="fill: #1f77b4; stroke: #1f77b4"/>
     <use xlink:href="#m598db509b3" x="71.722329" y="290.140309" style="fill: #1f77b4; stroke: #1f77b4"/>
     <use xlink:href="#m598db509b3" x="73.353759" y="290.447671" style="fill: #1f77b4; stroke: #1f77b4"/>
     <use xlink:href="#m598db509b3" x="74.985189" y="290.464158" style="fill: #1f77b4; stroke: #1f77b4"/>
     <use xlink:href="#m598db509b3" x="76.616619" y="290.694786" style="fill: #1f77b4; stroke: #1f77b4"/>
     <use xlink:href="#m598db509b3" x="78.248049" y="290.773384" style="fill: #1f77b4; stroke: #1f77b4"/>
     <use xlink:href="#m598db509b3" x="79.879479" y="291.0565" style="fill: #1f77b4; stroke: #1f77b4"/>
     <use xlink:href="#m598db509b3" x="81.510909" y="291.219642" style="fill: #1f77b4; stroke: #1f77b4"/>
     <use xlink:href="#m598db509b3" x="83.142339" y="291.351141" style="fill: #1f77b4; stroke: #1f77b4"/>
     <use xlink:href="#m598db509b3" x="84.773768" y="291.479172" style="fill: #1f77b4; stroke: #1f77b4"/>
     <use xlink:href="#m598db509b3" x="86.405198" y="291.689407" style="fill: #1f77b4; stroke: #1f77b4"/>
     <use xlink:href="#m598db509b3" x="88.036628" y="291.957934" style="fill: #1f77b4; stroke: #1f77b4"/>
     <use xlink:href="#m598db509b3" x="89.668058" y="291.925704" style="fill: #1f77b4; stroke: #1f77b4"/>
     <use xlink:href="#m598db509b3" x="91.299488" y="292.078444" style="fill: #1f77b4; stroke: #1f77b4"/>
     <use xlink:href="#m598db509b3" x="92.930918" y="292.320698" style="fill: #1f77b4; stroke: #1f77b4"/>
     <use xlink:href="#m598db509b3" x="94.562348" y="292.683162" style="fill: #1f77b4; stroke: #1f77b4"/>
     <use xlink:href="#m598db509b3" x="96.193778" y="292.959202" style="fill: #1f77b4; stroke: #1f77b4"/>
     <use xlink:href="#m598db509b3" x="97.825207" y="292.975304" style="fill: #1f77b4; stroke: #1f77b4"/>
     <use xlink:href="#m598db509b3" x="99.456637" y="293.351892" style="fill: #1f77b4; stroke: #1f77b4"/>
     <use xlink:href="#m598db509b3" x="101.088067" y="293.552371" style="fill: #1f77b4; stroke: #1f77b4"/>
     <use xlink:href="#m598db509b3" x="102.719497" y="293.494872" style="fill: #1f77b4; stroke: #1f77b4"/>
     <use xlink:href="#m598db509b3" x="104.350927" y="293.971723" style="fill: #1f77b4; stroke: #1f77b4"/>
     <use xlink:href="#m598db509b3" x="105.982357" y="293.993359" style="fill: #1f77b4; stroke: #1f77b4"/>
     <use xlink:href="#m598db509b3" x="107.613787" y="293.956218" style="fill: #1f77b4; stroke: #1f77b4"/>
     <use xlink:href="#m598db509b3" x="109.245217" y="294.255863" style="fill: #1f77b4; stroke: #1f77b4"/>
     <use xlink:href="#m598db509b3" x="110.876646" y="294.429492" style="fill: #1f77b4; stroke: #1f77b4"/>
     <use xlink:href="#m598db509b3" x="112.508076" y="294.683793" style="fill: #1f77b4; stroke: #1f77b4"/>
     <use xlink:href="#m598db509b3" x="114.139506" y="294.836775" style="fill: #1f77b4; stroke: #1f77b4"/>
     <use xlink:href="#m598db509b3" x="115.770936" y="295.040039" style="fill: #1f77b4; stroke: #1f77b4"/>
     <use xlink:href="#m598db509b3" x="117.402366" y="295.441661" style="fill: #1f77b4; stroke: #1f77b4"/>
     <use xlink:href="#m598db509b3" x="119.033796" y="295.318976" style="fill: #1f77b4; stroke: #1f77b4"/>
     <use xlink:href="#m598db509b3" x="120.665226" y="295.504691" style="fill: #1f77b4; stroke: #1f77b4"/>
     <use xlink:href="#m598db509b3" x="122.296656" y="295.859766" style="fill: #1f77b4; stroke: #1f77b4"/>
     <use xlink:href="#m598db509b3" x="123.928085" y="296.021342" style="fill: #1f77b4; stroke: #1f77b4"/>
     <use xlink:href="#m598db509b3" x="125.559515" y="296.361043" style="fill: #1f77b4; stroke: #1f77b4"/>
     <use xlink:href="#m598db509b3" x="127.190945" y="296.336977" style="fill: #1f77b4; stroke: #1f77b4"/>
     <use xlink:href="#m598db509b3" x="128.822375" y="296.691663" style="fill: #1f77b4; stroke: #1f77b4"/>
     <use xlink:href="#m598db509b3" x="130.453805" y="296.777569" style="fill: #1f77b4; stroke: #1f77b4"/>
     <use xlink:href="#m598db509b3" x="132.085235" y="296.98819" style="fill: #1f77b4; stroke: #1f77b4"/>
     <use xlink:href="#m598db509b3" x="133.716665" y="297.288827" style="fill: #1f77b4; stroke: #1f77b4"/>
     <use xlink:href="#m598db509b3" x="135.348095" y="297.41498" style="fill: #1f77b4; stroke: #1f77b4"/>
     <use xlink:href="#m598db509b3" x="136.979524" y="297.603757" style="fill: #1f77b4; stroke: #1f77b4"/>
     <use xlink:href="#m598db509b3" x="138.610954" y="297.876336" style="fill: #1f77b4; stroke: #1f77b4"/>
     <use xlink:href="#m598db509b3" x="140.242384" y="298.075398" style="fill: #1f77b4; stroke: #1f77b4"/>
     <use xlink:href="#m598db509b3" x="141.873814" y="298.59403" style="fill: #1f77b4; stroke: #1f77b4"/>
     <use xlink:href="#m598db509b3" x="143.505244" y="298.615052" style="fill: #1f77b4; stroke: #1f77b4"/>
     <use xlink:href="#m598db509b3" x="145.136674" y="298.968249" style="fill: #1f77b4; stroke: #1f77b4"/>
     <use xlink:href="#m598db509b3" x="146.768104" y="299.061131" style="fill: #1f77b4; stroke: #1f77b4"/>
     <use xlink:href="#m598db509b3" x="148.399534" y="299.374744" style="fill: #1f77b4; stroke: #1f77b4"/>
     <use xlink:href="#m598db509b3" x="150.030963" y="299.518289" style="fill: #1f77b4; stroke: #1f77b4"/>
     <use xlink:href="#m598db509b3" x="151.662393" y="300.024333" style="fill: #1f77b4; stroke: #1f77b4"/>
     <use xlink:href="#m598db509b3" x="153.293823" y="300.179154" style="fill: #1f77b4; stroke: #1f77b4"/>
     <use xlink:href="#m598db509b3" x="154.925253" y="300.264426" style="fill: #1f77b4; stroke: #1f77b4"/>
     <use xlink:href="#m598db509b3" x="156.556683" y="300.60963" style="fill: #1f77b4; stroke: #1f77b4"/>
     <use xlink:href="#m598db509b3" x="158.188113" y="300.645359" style="fill: #1f77b4; stroke: #1f77b4"/>
     <use xlink:href="#m598db509b3" x="159.819543" y="300.941076" style="fill: #1f77b4; stroke: #1f77b4"/>
     <use xlink:href="#m598db509b3" x="161.450973" y="301.477787" style="fill: #1f77b4; stroke: #1f77b4"/>
     <use xlink:href="#m598db509b3" x="163.082402" y="301.861076" style="fill: #1f77b4; stroke: #1f77b4"/>
     <use xlink:href="#m598db509b3" x="164.713832" y="302.0359" style="fill: #1f77b4; stroke: #1f77b4"/>
     <use xlink:href="#m598db509b3" x="166.345262" y="192.497047" style="fill: #1f77b4; stroke: #1f77b4"/>
     <use xlink:href="#m598db509b3" x="167.976692" y="302.330854" style="fill: #1f77b4; stroke: #1f77b4"/>
     <use xlink:href="#m598db509b3" x="169.608122" y="192.870828" style="fill: #1f77b4; stroke: #1f77b4"/>
     <use xlink:href="#m598db509b3" x="171.239552" y="193.138692" style="fill: #1f77b4; stroke: #1f77b4"/>
     <use xlink:href="#m598db509b3" x="172.870982" y="193.427668" style="fill: #1f77b4; stroke: #1f77b4"/>
     <use xlink:href="#m598db509b3" x="174.502412" y="193.760875" style="fill: #1f77b4; stroke: #1f77b4"/>
     <use xlink:href="#m598db509b3" x="176.133842" y="194.174321" style="fill: #1f77b4; stroke: #1f77b4"/>
     <use xlink:href="#m598db509b3" x="177.765271" y="194.288817" style="fill: #1f77b4; stroke: #1f77b4"/>
     <use xlink:href="#m598db509b3" x="179.396701" y="194.904256" style="fill: #1f77b4; stroke: #1f77b4"/>
     <use xlink:href="#m598db509b3" x="181.028131" y="195.142293" style="fill: #1f77b4; stroke: #1f77b4"/>
     <use xlink:href="#m598db509b3" x="182.659561" y="195.772892" style="fill: #1f77b4; stroke: #1f77b4"/>
     <use xlink:href="#m598db509b3" x="184.290991" y="195.718035" style="fill: #1f77b4; stroke: #1f77b4"/>
     <use xlink:href="#m598db509b3" x="185.922421" y="196.407457" style="fill: #1f77b4; stroke: #1f77b4"/>
     <use xlink:href="#m598db509b3" x="187.553851" y="196.950592" style="fill: #1f77b4; stroke: #1f77b4"/>
     <use xlink:href="#m598db509b3" x="189.185281" y="197.428703" style="fill: #1f77b4; stroke: #1f77b4"/>
     <use xlink:href="#m598db509b3" x="190.81671" y="197.819041" style="fill: #1f77b4; stroke: #1f77b4"/>
     <use xlink:href="#m598db509b3" x="192.44814" y="198.627501" style="fill: #1f77b4; stroke: #1f77b4"/>
     <use xlink:href="#m598db509b3" x="194.07957" y="199.142874" style="fill: #1f77b4; stroke: #1f77b4"/>
     <use xlink:href="#m598db509b3" x="195.711" y="199.803799" style="fill: #1f77b4; stroke: #1f77b4"/>
     <use xlink:href="#m598db509b3" x="197.34243" y="199.958131" style="fill: #1f77b4; stroke: #1f77b4"/>
     <use xlink:href="#m598db509b3" x="198.97386" y="200.551928" style="fill: #1f77b4; stroke: #1f77b4"/>
     <use xlink:href="#m598db509b3" x="200.60529" y="201.38275" style="fill: #1f77b4; stroke: #1f77b4"/>
     <use xlink:href="#m598db509b3" x="202.23672" y="201.810364" style="fill: #1f77b4; stroke: #1f77b4"/>
     <use xlink:href="#m598db509b3" x="203.868149" y="202.874407" style="fill: #1f77b4; stroke: #1f77b4"/>
     <use xlink:href="#m598db509b3" x="205.499579" y="203.298411" style="fill: #1f77b4; stroke: #1f77b4"/>
     <use xlink:href="#m598db509b3" x="207.131009" y="204.017754" style="fill: #1f77b4; stroke: #1f77b4"/>
     <use xlink:href="#m598db509b3" x="208.762439" y="205.089575" style="fill: #1f77b4; stroke: #1f77b4"/>
     <use xlink:href="#m598db509b3" x="210.393869" y="205.692054" style="fill: #1f77b4; stroke: #1f77b4"/>
     <use xlink:href="#m598db509b3" x="212.025299" y="206.80254" style="fill: #1f77b4; stroke: #1f77b4"/>
     <use xlink:href="#m598db509b3" x="213.656729" y="207.187461" style="fill: #1f77b4; stroke: #1f77b4"/>
     <use xlink:href="#m598db509b3" x="215.288159" y="208.24627" style="fill: #1f77b4; stroke: #1f77b4"/>
     <use xlink:href="#m598db509b3" x="216.919588" y="208.517435" style="fill: #1f77b4; stroke: #1f77b4"/>
     <use xlink:href="#m598db509b3" x="218.551018" y="208.124001" style="fill: #1f77b4; stroke: #1f77b4"/>
     <use xlink:href="#m598db509b3" x="220.182448" y="206.761358" style="fill: #1f77b4; stroke: #1f77b4"/>
     <use xlink:href="#m598db509b3" x="221.813878" y="200.547584" style="fill: #1f77b4; stroke: #1f77b4"/>
     <use xlink:href="#m598db509b3" x="223.445308" y="193.5449" style="fill: #1f77b4; stroke: #1f77b4"/>
     <use xlink:href="#m598db509b3" x="225.076738" y="292.344457" style="fill: #1f77b4; stroke: #1f77b4"/>
     <use xlink:href="#m598db509b3" x="226.708168" y="289.742515" style="fill: #1f77b4; stroke: #1f77b4"/>
     <use xlink:href="#m598db509b3" x="228.339598" y="288.167041" style="fill: #1f77b4; stroke: #1f77b4"/>
     <use xlink:href="#m598db509b3" x="229.971027" y="288.096821" style="fill: #1f77b4; stroke: #1f77b4"/>
     <use xlink:href="#m598db509b3" x="231.602457" y="287.654472" style="fill: #1f77b4; stroke: #1f77b4"/>
     <use xlink:href="#m598db509b3" x="233.233887" y="287.76188" style="fill: #1f77b4; stroke: #1f77b4"/>
     <use xlink:href="#m598db509b3" x="234.865317" y="289.183136" style="fill: #1f77b4; stroke: #1f77b4"/>
     <use xlink:href="#m598db509b3" x="236.496747" y="289.696713" style="fill: #1f77b4; stroke: #1f77b4"/>
     <use xlink:href="#m598db509b3" x="238.128177" y="290.441978" style="fill: #1f77b4; stroke: #1f77b4"/>
     <use xlink:href="#m598db509b3" x="239.759607" y="291.602499" style="fill: #1f77b4; stroke: #1f77b4"/>
     <use xlink:href="#m598db509b3" x="241.391037" y="291.92999" style="fill: #1f77b4; stroke: #1f77b4"/>
     <use xlink:href="#m598db509b3" x="243.022466" y="292.854566" style="fill: #1f77b4; stroke: #1f77b4"/>
     <use xlink:href="#m598db509b3" x="244.653896" y="293.372197" style="fill: #1f77b4; stroke: #1f77b4"/>
     <use xlink:href="#m598db509b3" x="246.285326" y="293.994931" style="fill: #1f77b4; stroke: #1f77b4"/>
     <use xlink:href="#m598db509b3" x="247.916756" y="294.887634" style="fill: #1f77b4; stroke: #1f77b4"/>
     <use xlink:href="#m598db509b3" x="249.548186" y="295.005334" style="fill: #1f77b4; stroke: #1f77b4"/>
     <use xlink:href="#m598db509b3" x="251.179616" y="295.588336" style="fill: #1f77b4; stroke: #1f77b4"/>
     <use xlink:href="#m598db509b3" x="252.811046" y="296.134405" style="fill: #1f77b4; stroke: #1f77b4"/>
     <use xlink:href="#m598db509b3" x="254.442476" y="297.071964" style="fill: #1f77b4; stroke: #1f77b4"/>
     <use xlink:href="#m598db509b3" x="256.073905" y="296.988377" style="fill: #1f77b4; stroke: #1f77b4"/>
     <use xlink:href="#m598db509b3" x="257.705335" y="297.858611" style="fill: #1f77b4; stroke: #1f77b4"/>
     <use xlink:href="#m598db509b3" x="259.336765" y="298.101032" style="fill: #1f77b4; stroke: #1f77b4"/>
     <use xlink:href="#m598db509b3" x="260.968195" y="298.487754" style="fill: #1f77b4; stroke: #1f77b4"/>
     <use xlink:href="#m598db509b3" x="262.599625" y="298.8197" style="fill: #1f77b4; stroke: #1f77b4"/>
     <use xlink:href="#m598db509b3" x="264.231055" y="299.293486" style="fill: #1f77b4; stroke: #1f77b4"/>
     <use xlink:href="#m598db509b3" x="265.862485" y="299.642354" style="fill: #1f77b4; stroke: #1f77b4"/>
     <use xlink:href="#m598db509b3" x="267.493915" y="299.843707" style="fill: #1f77b4; stroke: #1f77b4"/>
     <use xlink:href="#m598db509b3" x="269.125344" y="299.997989" style="fill: #1f77b4; stroke: #1f77b4"/>
     <use xlink:href="#m598db509b3" x="270.756774" y="300.657891" style="fill: #1f77b4; stroke: #1f77b4"/>
     <use xlink:href="#m598db509b3" x="272.388204" y="301.047167" style="fill: #1f77b4; stroke: #1f77b4"/>
     <use xlink:href="#m598db509b3" x="274.019634" y="301.070433" style="fill: #1f77b4; stroke: #1f77b4"/>
     <use xlink:href="#m598db509b3" x="275.651064" y="301.484816" style="fill: #1f77b4; stroke: #1f77b4"/>
     <use xlink:href="#m598db509b3" x="277.282494" y="301.654323" style="fill: #1f77b4; stroke: #1f77b4"/>
     <use xlink:href="#m598db509b3" x="278.913924" y="301.988808" style="fill: #1f77b4; stroke: #1f77b4"/>
     <use xlink:href="#m598db509b3" x="280.545354" y="192.616813" style="fill: #1f77b4; stroke: #1f77b4"/>
     <use xlink:href="#m598db509b3" x="282.176783" y="302.373818" style="fill: #1f77b4; stroke: #1f77b4"/>
     <use xlink:href="#m598db509b3" x="283.808213" y="192.682685" style="fill: #1f77b4; stroke: #1f77b4"/>
     <use xlink:href="#m598db509b3" x="285.439643" y="193.244714" style="fill: #1f77b4; stroke: #1f77b4"/>
     <use xlink:href="#m598db509b3" x="287.071073" y="193.840365" style="fill: #1f77b4; stroke: #1f77b4"/>
     <use xlink:href="#m598db509b3" x="288.702503" y="193.628097" style="fill: #1f77b4; stroke: #1f77b4"/>
     <use xlink:href="#m598db509b3" x="290.333933" y="193.949972" style="fill: #1f77b4; stroke: #1f77b4"/>
     <use xlink:href="#m598db509b3" x="291.965363" y="194.092576" style="fill: #1f77b4; stroke: #1f77b4"/>
     <use xlink:href="#m598db509b3" x="293.596793" y="194.385202" style="fill: #1f77b4; stroke: #1f77b4"/>
     <use xlink:href="#m598db509b3" x="295.228223" y="194.636629" style="fill: #1f77b4; stroke: #1f77b4"/>
     <use xlink:href="#m598db509b3" x="296.859652" y="194.626666" style="fill: #1f77b4; stroke: #1f77b4"/>
     <use xlink:href="#m598db509b3" x="298.491082" y="195.007976" style="fill: #1f77b4; stroke: #1f77b4"/>
     <use xlink:href="#m598db509b3" x="300.122512" y="195.208941" style="fill: #1f77b4; stroke: #1f77b4"/>
     <use xlink:href="#m598db509b3" x="301.753942" y="195.550498" style="fill: #1f77b4; stroke: #1f77b4"/>
     <use xlink:href="#m598db509b3" x="303.385372" y="195.872293" style="fill: #1f77b4; stroke: #1f77b4"/>
     <use xlink:href="#m598db509b3" x="305.016802" y="195.822866" style="fill: #1f77b4; stroke: #1f77b4"/>
     <use xlink:href="#m598db509b3" x="306.648232" y="196.285257" style="fill: #1f77b4; stroke: #1f77b4"/>
     <use xlink:href="#m598db509b3" x="308.279662" y="196.36921" style="fill: #1f77b4; stroke: #1f77b4"/>
     <use xlink:href="#m598db509b3" x="309.911091" y="196.659948" style="fill: #1f77b4; stroke: #1f77b4"/>
     <use xlink:href="#m598db509b3" x="311.542521" y="196.759773" style="fill: #1f77b4; stroke: #1f77b4"/>
     <use xlink:href="#m598db509b3" x="313.173951" y="196.719955" style="fill: #1f77b4; stroke: #1f77b4"/>
     <use xlink:href="#m598db509b3" x="314.805381" y="197.15169" style="fill: #1f77b4; stroke: #1f77b4"/>
     <use xlink:href="#m598db509b3" x="316.436811" y="197.170281" style="fill: #1f77b4; stroke: #1f77b4"/>
     <use xlink:href="#m598db509b3" x="318.068241" y="197.361943" style="fill: #1f77b4; stroke: #1f77b4"/>
     <use xlink:href="#m598db509b3" x="319.699671" y="197.752534" style="fill: #1f77b4; stroke: #1f77b4"/>
     <use xlink:href="#m598db509b3" x="321.331101" y="198.094557" style="fill: #1f77b4; stroke: #1f77b4"/>
     <use xlink:href="#m598db509b3" x="322.96253" y="197.892246" style="fill: #1f77b4; stroke: #1f77b4"/>
     <use xlink:href="#m598db509b3" x="324.59396" y="198.253251" style="fill: #1f77b4; stroke: #1f77b4"/>
     <use xlink:href="#m598db509b3" x="326.22539" y="198.391732" style="fill: #1f77b4; stroke: #1f77b4"/>
     <use xlink:href="#m598db509b3" x="327.85682" y="198.484774" style="fill: #1f77b4; stroke: #1f77b4"/>
     <use xlink:href="#m598db509b3" x="329.48825" y="198.836407" style="fill: #1f77b4; stroke: #1f77b4"/>
     <use xlink:href="#m598db509b3" x="331.11968" y="199.005069" style="fill: #1f77b4; stroke: #1f77b4"/>
     <use xlink:href="#m598db509b3" x="332.75111" y="198.959873" style="fill: #1f77b4; stroke: #1f77b4"/>
     <use xlink:href="#m598db509b3" x="334.38254" y="199.480203" style="fill: #1f77b4; stroke: #1f77b4"/>
     <use xlink:href="#m598db509b3" x="336.013969" y="199.515419" style="fill: #1f77b4; stroke: #1f77b4"/>
     <use xlink:href="#m598db509b3" x="337.645399" y="199.96217" style="fill: #1f77b4; stroke: #1f77b4"/>
     <use xlink:href="#m598db509b3" x="339.276829" y="200.055597" style="fill: #1f77b4; stroke: #1f77b4"/>
     <use xlink:href="#m598db509b3" x="340.908259" y="200.139561" style="fill: #1f77b4; stroke: #1f77b4"/>
     <use xlink:href="#m598db509b3" x="342.539689" y="200.511473" style="fill: #1f77b4; stroke: #1f77b4"/>
     <use xlink:href="#m598db509b3" x="344.171119" y="200.612081" style="fill: #1f77b4; stroke: #1f77b4"/>
     <use xlink:href="#m598db509b3" x="345.802549" y="200.292276" style="fill: #1f77b4; stroke: #1f77b4"/>
     <use xlink:href="#m598db509b3" x="347.433979" y="200.846501" style="fill: #1f77b4; stroke: #1f77b4"/>
     <use xlink:href="#m598db509b3" x="349.065408" y="200.987417" style="fill: #1f77b4; stroke: #1f77b4"/>
     <use xlink:href="#m598db509b3" x="350.696838" y="201.057192" style="fill: #1f77b4; stroke: #1f77b4"/>
     <use xlink:href="#m598db509b3" x="352.328268" y="201.602655" style="fill: #1f77b4; stroke: #1f77b4"/>
     <use xlink:href="#m598db509b3" x="353.959698" y="201.630536" style="fill: #1f77b4; stroke: #1f77b4"/>
     <use xlink:href="#m598db509b3" x="355.591128" y="201.65562" style="fill: #1f77b4; stroke: #1f77b4"/>
     <use xlink:href="#m598db509b3" x="357.222558" y="202.015426" style="fill: #1f77b4; stroke: #1f77b4"/>
     <use xlink:href="#m598db509b3" x="358.853988" y="202.272995" style="fill: #1f77b4; stroke: #1f77b4"/>
     <use xlink:href="#m598db509b3" x="360.485418" y="201.92817" style="fill: #1f77b4; stroke: #1f77b4"/>
     <use xlink:href="#m598db509b3" x="362.116847" y="202.296479" style="fill: #1f77b4; stroke: #1f77b4"/>
     <use xlink:href="#m598db509b3" x="363.748277" y="202.421635" style="fill: #1f77b4; stroke: #1f77b4"/>
     <use xlink:href="#m598db509b3" x="365.379707" y="203.00927" style="fill: #1f77b4; stroke: #1f77b4"/>
     <use xlink:href="#m598db509b3" x="367.011137" y="202.869304" style="fill: #1f77b4; stroke: #1f77b4"/>
     <use xlink:href="#m598db509b3" x="368.642567" y="203.395014" style="fill: #1f77b4; stroke: #1f77b4"/>
     <use xlink:href="#m598db509b3" x="370.273997" y="203.185458" style="fill: #1f77b4; stroke: #1f77b4"/>
     <use xlink:href="#m598db509b3" x="371.905427" y="203.490404" style="fill: #1f77b4; stroke: #1f77b4"/>
     <use xlink:href="#m598db509b3" x="373.536857" y="203.410092" style="fill: #1f77b4; stroke: #1f77b4"/>
     <use xlink:href="#m598db509b3" x="375.168286" y="203.939773" style="fill: #1f77b4; stroke: #1f77b4"/>
     <use xlink:href="#m598db509b3" x="376.799716" y="203.958896" style="fill: #1f77b4; stroke: #1f77b4"/>
     <use xlink:href="#m598db509b3" x="378.431146" y="204.05396" style="fill: #1f77b4; stroke: #1f77b4"/>
     <use xlink:href="#m598db509b3" x="380.062576" y="204.250936" style="fill: #1f77b4; stroke: #1f77b4"/>
     <use xlink:href="#m598db509b3" x="381.694006" y="204.644083" style="fill: #1f77b4; stroke: #1f77b4"/>
     <use xlink:href="#m598db509b3" x="383.325436" y="204.86299" style="fill: #1f77b4; stroke: #1f77b4"/>
     <use xlink:href="#m598db509b3" x="384.956866" y="204.868868" style="fill: #1f77b4; stroke: #1f77b4"/>
     <use xlink:href="#m598db509b3" x="386.588296" y="205.173468" style="fill: #1f77b4; stroke: #1f77b4"/>
     <use xlink:href="#m598db509b3" x="388.219725" y="205.047156" style="fill: #1f77b4; stroke: #1f77b4"/>
     <use xlink:href="#m598db509b3" x="389.851155" y="205.378078" style="fill: #1f77b4; stroke: #1f77b4"/>
     <use xlink:href="#m598db509b3" x="391.482585" y="205.578038" style="fill: #1f77b4; stroke: #1f77b4"/>
    </g>
   </g>
   <g id="line2d_23">
    <path d="M 66.82804 289.635242 
L 99.650972 293.143097 
L 123.049498 295.854679 
L 140.598392 298.103918 
L 153.922552 300.027144 
L 164.321897 301.740908 
L 167.571693 302.331306 
L 167.896672 192.410182 
L 175.696181 193.984237 
L 182.195771 195.51223 
L 187.720423 197.028429 
L 192.595116 198.590083 
L 196.81985 200.161591 
L 201.044584 201.978679 
L 204.944338 203.893813 
L 210.793969 207.064173 
L 213.718785 208.512258 
L 215.343683 209.084963 
L 216.643601 209.282166 
L 217.618539 209.169944 
L 218.268498 208.906833 
L 218.918457 208.430909 
L 219.568417 207.664549 
L 220.218376 206.500258 
L 220.868335 204.797603 
L 221.518294 202.40295 
L 222.168253 199.231261 
L 223.143191 193.430592 
L 223.468171 301.45126 
L 224.443109 296.401361 
L 225.093068 293.970981 
L 225.743027 292.223883 
L 226.392987 291.00701 
L 227.042946 290.180213 
L 227.692905 289.63633 
L 228.667843 289.18851 
L 229.642782 289.03601 
L 230.9427 289.117062 
L 232.567598 289.483687 
L 235.167434 290.360089 
L 247.841635 295.006063 
L 253.041308 296.555752 
L 258.890939 298.064426 
L 265.715509 299.583523 
L 273.839997 301.147258 
L 280.989547 302.366233 
L 281.314526 192.436954 
L 292.68881 194.161602 
L 306.987909 196.091822 
L 325.186762 198.312785 
L 349.235247 201.010637 
L 381.733199 204.418956 
L 391.482585 205.40824 
L 391.482585 205.40824 
" clip-path="url(#p5c625fc191)" style="fill: none; stroke: #d62728; stroke-width: 1.5; stroke-linecap: square"/>
   </g>
   <g id="patch_9">
    <path d="M 50.595313 307.872 
L 50.595313 186.912 
" style="fill: none; stroke: #000000; stroke-width: 0.8; stroke-linejoin: miter; stroke-linecap: square"/>
   </g>
   <g id="patch_10">
    <path d="M 407.715312 307.872 
L 407.715312 186.912 
" style="fill: none; stroke: #000000; stroke-width: 0.8; stroke-linejoin: miter; stroke-linecap: square"/>
   </g>
   <g id="patch_11">
    <path d="M 50.595312 307.872 
L 407.715312 307.872 
" style="fill: none; stroke: #000000; stroke-width: 0.8; stroke-linejoin: miter; stroke-linecap: square"/>
   </g>
   <g id="patch_12">
    <path d="M 50.595312 186.912 
L 407.715312 186.912 
" style="fill: none; stroke: #000000; stroke-width: 0.8; stroke-linejoin: miter; stroke-linecap: square"/>
   </g>
  </g>
  <g id="text_19">
   <!-- S21 resonator spectroscopy -->
   <g transform="translate(139.610938 16.318125) scale(0.12 -0.12)">
    <defs>
     <path id="DejaVuSans-73" d="M 2834 3397 
L 2834 2853 
Q 2591 2978 2328 3040 
Q 2066 3103 1784 3103 
Q 1356 3103 1142 2972 
Q 928 2841 928 2578 
Q 928 2378 1081 2264 
Q 1234 2150 1697 2047 
L 1894 2003 
Q 2506 1872 2764 1633 
Q 3022 1394 3022 966 
Q 3022 478 2636 193 
Q 2250 -91 1575 -91 
Q 1294 -91 989 -36 
Q 684 19 347 128 
L 347 722 
Q 666 556 975 473 
Q 1284 391 1588 391 
Q 1994 391 2212 530 
Q 2431 669 2431 922 
Q 2431 1156 2273 1281 
Q 2116 1406 1581 1522 
L 1381 1569 
Q 847 1681 609 1914 
Q 372 2147 372 2553 
Q 372 3047 722 3315 
Q 1072 3584 1716 3584 
Q 2034 3584 2315 3537 
Q 2597 3491 2834 3397 
z
" transform="scale(0.015625)"/>
     <path id="DejaVuSans-6f" d="M 1959 3097 
Q 1497 3097 1228 2736 
Q 959 2375 959 1747 
Q 959 1119 1226 758 
Q 1494 397 1959 397 
Q 2419 397 2687 759 
Q 2956 1122 2956 1747 
Q 2956 2369 2687 2733 
Q 2419 3097 1959 3097 
z
M 1959 3584 
Q 2709 3584 3137 3096 
Q 3566 2609 3566 1747 
Q 3566 888 3137 398 
Q 2709 -91 1959 -91 
Q 1206 -91 779 398 
Q 353 888 353 1747 
Q 353 2609 779 3096 
Q 1206 3584 1959 3584 
z
" transform="scale(0.015625)"/>
     <path id="DejaVuSans-74" d="M 1172 4494 
L 1172 3500 
L 2356 3500 
L 2356 3053 
L 1172 3053 
L 1172 1153 
Q 1172 725 1289 603 
Q 1406 481 1766 481 
L 2356 481 
L 2356 0 
L 1766 0 
Q 1100 0 847 248 
Q 594 497 594 1153 
L 594 3053 
L 172 3053 
L 172 3500 
L 594 3500 
L 594 4494 
L 1172 4494 
z
" transform="scale(0.015625)"/>
     <path id="DejaVuSans-70" d="M 1159 525 
L 1159 -1331 
L 581 -1331 
L 581 3500 
L 1159 3500 
L 1159 2969 
Q 1341 3281 1617 3432 
Q 1894 3584 2278 3584 
Q 2916 3584 3314 3078 
Q 3713 2572 3713 1747 
Q 3713 922 3314 415 
Q 2916 -91 2278 -91 
Q 1894 -91 1617 61 
Q 1341 213 1159 525 
z
M 3116 1747 
Q 3116 2381 2855 2742 
Q 2594 3103 2138 3103 
Q 1681 3103 1420 2742 
Q 1159 2381 1159 1747 
Q 1159 1113 1420 752 
Q 1681 391 2138 391 
Q 2594 391 2855 752 
Q 3116 1113 3116 1747 
z
" transform="scale(0.015625)"/>
    </defs>
    <use xlink:href="#DejaVuSans-53"/>
    <use xlink:href="#DejaVuSans-32" x="63.476562"/>
    <use xlink:href="#DejaVuSans-31" x="127.099609"/>
    <use xlink:href="#DejaVuSans-20" x="190.722656"/>
    <use xlink:href="#DejaVuSans-72" x="222.509766"/>
    <use xlink:href="#DejaVuSans-65" x="261.373047"/>
    <use xlink:href="#DejaVuSans-73" x="322.896484"/>
    <use xlink:href="#DejaVuSans-6f" x="374.996094"/>
    <use xlink:href="#DejaVuSans-6e" x="436.177734"/>
    <use xlink:href="#DejaVuSans-61" x="499.556641"/>
    <use xlink:href="#DejaVuSans-74" x="560.835938"/>
    <use xlink:href="#DejaVuSans-6f" x="600.044922"/>
    <use xlink:href="#DejaVuSans-72" x="661.226562"/>
    <use xlink:href="#DejaVuSans-20" x="702.339844"/>
    <use xlink:href="#DejaVuSans-73" x="734.126953"/>
    <use xlink:href="#DejaVuSans-70" x="786.226562"/>
    <use xlink:href="#DejaVuSans-65" x="849.703125"/>
    <use xlink:href="#DejaVuSans-63" x="911.226562"/>
    <use xlink:href="#DejaVuSans-74" x="966.207031"/>
    <use xlink:href="#DejaVuSans-72" x="1005.416016"/>
    <use xlink:href="#DejaVuSans-6f" x="1044.279297"/>
    <use xlink:href="#DejaVuSans-73" x="1105.460938"/>
    <use xlink:href="#DejaVuSans-63" x="1157.560547"/>
    <use xlink:href="#DejaVuSans-6f" x="1212.541016"/>
    <use xlink:href="#DejaVuSans-70" x="1273.722656"/>
    <use xlink:href="#DejaVuSans-79" x="1337.199219"/>
   </g>
   <!-- tuid: 20231227-160753-950-4852cf -->
   <g transform="translate(115.76375 29.7555) scale(0.12 -0.12)">
    <defs>
     <path id="DejaVuSans-69" d="M 603 3500 
L 1178 3500 
L 1178 0 
L 603 0 
L 603 3500 
z
M 603 4863 
L 1178 4863 
L 1178 4134 
L 603 4134 
L 603 4863 
z
" transform="scale(0.015625)"/>
     <path id="DejaVuSans-66" d="M 2375 4863 
L 2375 4384 
L 1825 4384 
Q 1516 4384 1395 4259 
Q 1275 4134 1275 3809 
L 1275 3500 
L 2222 3500 
L 2222 3053 
L 1275 3053 
L 1275 0 
L 697 0 
L 697 3053 
L 147 3053 
L 147 3500 
L 697 3500 
L 697 3744 
Q 697 4328 969 4595 
Q 1241 4863 1831 4863 
L 2375 4863 
z
" transform="scale(0.015625)"/>
    </defs>
    <use xlink:href="#DejaVuSans-74"/>
    <use xlink:href="#DejaVuSans-75" x="39.208984"/>
    <use xlink:href="#DejaVuSans-69" x="102.587891"/>
    <use xlink:href="#DejaVuSans-64" x="130.371094"/>
    <use xlink:href="#DejaVuSans-3a" x="193.847656"/>
    <use xlink:href="#DejaVuSans-20" x="227.539062"/>
    <use xlink:href="#DejaVuSans-32" x="259.326172"/>
    <use xlink:href="#DejaVuSans-30" x="322.949219"/>
    <use xlink:href="#DejaVuSans-32" x="386.572266"/>
    <use xlink:href="#DejaVuSans-33" x="450.195312"/>
    <use xlink:href="#DejaVuSans-31" x="513.818359"/>
    <use xlink:href="#DejaVuSans-32" x="577.441406"/>
    <use xlink:href="#DejaVuSans-32" x="641.064453"/>
    <use xlink:href="#DejaVuSans-37" x="704.6875"/>
    <use xlink:href="#DejaVuSans-2d" x="768.310547"/>
    <use xlink:href="#DejaVuSans-31" x="804.394531"/>
    <use xlink:href="#DejaVuSans-36" x="868.017578"/>
    <use xlink:href="#DejaVuSans-30" x="931.640625"/>
    <use xlink:href="#DejaVuSans-37" x="995.263672"/>
    <use xlink:href="#DejaVuSans-35" x="1058.886719"/>
    <use xlink:href="#DejaVuSans-33" x="1122.509766"/>
    <use xlink:href="#DejaVuSans-2d" x="1186.132812"/>
    <use xlink:href="#DejaVuSans-39" x="1222.216797"/>
    <use xlink:href="#DejaVuSans-35" x="1285.839844"/>
    <use xlink:href="#DejaVuSans-30" x="1349.462891"/>
    <use xlink:href="#DejaVuSans-2d" x="1413.085938"/>
    <use xlink:href="#DejaVuSans-34" x="1449.169922"/>
    <use xlink:href="#DejaVuSans-38" x="1512.792969"/>
    <use xlink:href="#DejaVuSans-35" x="1576.416016"/>
    <use xlink:href="#DejaVuSans-32" x="1640.039062"/>
    <use xlink:href="#DejaVuSans-63" x="1703.662109"/>
    <use xlink:href="#DejaVuSans-66" x="1758.642578"/>
   </g>
  </g>
 </g>
 <defs>
  <clipPath id="p12f1b4b210">
   <rect x="50.595313" y="41.76" width="357.12" height="120.96"/>
  </clipPath>
  <clipPath id="p5c625fc191">
   <rect x="50.595313" y="186.912" width="357.12" height="120.96"/>
  </clipPath>
 </defs>
</svg>
