<?xml version="1.0" encoding="utf-8" standalone="no"?>
<!DOCTYPE svg PUBLIC "-//W3C//DTD SVG 1.1//EN"
  "http://www.w3.org/Graphics/SVG/1.1/DTD/svg11.dtd">
<svg xmlns:xlink="http://www.w3.org/1999/xlink" width="558.624437pt" height="345.42825pt" viewBox="0 0 558.624437 345.42825" xmlns="http://www.w3.org/2000/svg" version="1.1">
 <metadata>
  <rdf:RDF xmlns:dc="http://purl.org/dc/elements/1.1/" xmlns:cc="http://creativecommons.org/ns#" xmlns:rdf="http://www.w3.org/1999/02/22-rdf-syntax-ns#">
   <cc:Work>
    <dc:type rdf:resource="http://purl.org/dc/dcmitype/StillImage"/>
    <dc:date>2023-12-27T16:07:59.142990</dc:date>
    <dc:format>image/svg+xml</dc:format>
    <dc:creator>
     <cc:Agent>
      <dc:title>Matplotlib v3.8.2, https://matplotlib.org/</dc:title>
     </cc:Agent>
    </dc:creator>
   </cc:Work>
  </rdf:RDF>
 </metadata>
 <defs>
  <style type="text/css">*{stroke-linejoin: round; stroke-linecap: butt}</style>
 </defs>
 <g id="figure_1">
  <g id="patch_1">
   <path d="M 0 345.42825 
L 558.624437 345.42825 
L 558.624437 -0 
L 0 -0 
L 0 345.42825 
z
" style="fill: none; opacity: 0"/>
  </g>
  <g id="axes_1">
   <g id="patch_2">
    <path d="M 37.848438 307.872 
L 394.968438 307.872 
L 394.968438 41.76 
L 37.848438 41.76 
z
" style="fill: #ffffff"/>
   </g>
   <g id="matplotlib.axis_1">
    <g id="xtick_1">
     <g id="line2d_1">
      <defs>
       <path id="me16e1b1139" d="M 0 0 
L 0 3.5 
" style="stroke: #000000; stroke-width: 0.8"/>
      </defs>
      <g>
       <use xlink:href="#me16e1b1139" x="48.603724" y="307.872" style="stroke: #000000; stroke-width: 0.8"/>
      </g>
     </g>
     <g id="text_1">
      <!-- -8 -->
      <g transform="translate(43.618567 322.470438) scale(0.1 -0.1)">
       <defs>
        <path id="DejaVuSans-2d" d="M 313 2009 
L 1997 2009 
L 1997 1497 
L 313 1497 
L 313 2009 
z
" transform="scale(0.015625)"/>
        <path id="DejaVuSans-38" d="M 2034 2216 
Q 1584 2216 1326 1975 
Q 1069 1734 1069 1313 
Q 1069 891 1326 650 
Q 1584 409 2034 409 
Q 2484 409 2743 651 
Q 3003 894 3003 1313 
Q 3003 1734 2745 1975 
Q 2488 2216 2034 2216 
z
M 1403 2484 
Q 997 2584 770 2862 
Q 544 3141 544 3541 
Q 544 4100 942 4425 
Q 1341 4750 2034 4750 
Q 2731 4750 3128 4425 
Q 3525 4100 3525 3541 
Q 3525 3141 3298 2862 
Q 3072 2584 2669 2484 
Q 3125 2378 3379 2068 
Q 3634 1759 3634 1313 
Q 3634 634 3220 271 
Q 2806 -91 2034 -91 
Q 1263 -91 848 271 
Q 434 634 434 1313 
Q 434 1759 690 2068 
Q 947 2378 1403 2484 
z
M 1172 3481 
Q 1172 3119 1398 2916 
Q 1625 2713 2034 2713 
Q 2441 2713 2670 2916 
Q 2900 3119 2900 3481 
Q 2900 3844 2670 4047 
Q 2441 4250 2034 4250 
Q 1625 4250 1398 4047 
Q 1172 3844 1172 3481 
z
" transform="scale(0.015625)"/>
       </defs>
       <use xlink:href="#DejaVuSans-2d"/>
       <use xlink:href="#DejaVuSans-38" x="36.083984"/>
      </g>
     </g>
    </g>
    <g id="xtick_2">
     <g id="line2d_2">
      <g>
       <use xlink:href="#me16e1b1139" x="95.336445" y="307.872" style="stroke: #000000; stroke-width: 0.8"/>
      </g>
     </g>
     <g id="text_2">
      <!-- -7 -->
      <g transform="translate(90.351288 322.470438) scale(0.1 -0.1)">
       <defs>
        <path id="DejaVuSans-37" d="M 525 4666 
L 3525 4666 
L 3525 4397 
L 1831 0 
L 1172 0 
L 2766 4134 
L 525 4134 
L 525 4666 
z
" transform="scale(0.015625)"/>
       </defs>
       <use xlink:href="#DejaVuSans-2d"/>
       <use xlink:href="#DejaVuSans-37" x="36.083984"/>
      </g>
     </g>
    </g>
    <g id="xtick_3">
     <g id="line2d_3">
      <g>
       <use xlink:href="#me16e1b1139" x="142.069166" y="307.872" style="stroke: #000000; stroke-width: 0.8"/>
      </g>
     </g>
     <g id="text_3">
      <!-- -6 -->
      <g transform="translate(137.084009 322.470438) scale(0.1 -0.1)">
       <defs>
        <path id="DejaVuSans-36" d="M 2113 2584 
Q 1688 2584 1439 2293 
Q 1191 2003 1191 1497 
Q 1191 994 1439 701 
Q 1688 409 2113 409 
Q 2538 409 2786 701 
Q 3034 994 3034 1497 
Q 3034 2003 2786 2293 
Q 2538 2584 2113 2584 
z
M 3366 4563 
L 3366 3988 
Q 3128 4100 2886 4159 
Q 2644 4219 2406 4219 
Q 1781 4219 1451 3797 
Q 1122 3375 1075 2522 
Q 1259 2794 1537 2939 
Q 1816 3084 2150 3084 
Q 2853 3084 3261 2657 
Q 3669 2231 3669 1497 
Q 3669 778 3244 343 
Q 2819 -91 2113 -91 
Q 1303 -91 875 529 
Q 447 1150 447 2328 
Q 447 3434 972 4092 
Q 1497 4750 2381 4750 
Q 2619 4750 2861 4703 
Q 3103 4656 3366 4563 
z
" transform="scale(0.015625)"/>
       </defs>
       <use xlink:href="#DejaVuSans-2d"/>
       <use xlink:href="#DejaVuSans-36" x="36.083984"/>
      </g>
     </g>
    </g>
    <g id="xtick_4">
     <g id="line2d_4">
      <g>
       <use xlink:href="#me16e1b1139" x="188.801886" y="307.872" style="stroke: #000000; stroke-width: 0.8"/>
      </g>
     </g>
     <g id="text_4">
      <!-- -5 -->
      <g transform="translate(183.81673 322.470438) scale(0.1 -0.1)">
       <defs>
        <path id="DejaVuSans-35" d="M 691 4666 
L 3169 4666 
L 3169 4134 
L 1269 4134 
L 1269 2991 
Q 1406 3038 1543 3061 
Q 1681 3084 1819 3084 
Q 2600 3084 3056 2656 
Q 3513 2228 3513 1497 
Q 3513 744 3044 326 
Q 2575 -91 1722 -91 
Q 1428 -91 1123 -41 
Q 819 9 494 109 
L 494 744 
Q 775 591 1075 516 
Q 1375 441 1709 441 
Q 2250 441 2565 725 
Q 2881 1009 2881 1497 
Q 2881 1984 2565 2268 
Q 2250 2553 1709 2553 
Q 1456 2553 1204 2497 
Q 953 2441 691 2322 
L 691 4666 
z
" transform="scale(0.015625)"/>
       </defs>
       <use xlink:href="#DejaVuSans-2d"/>
       <use xlink:href="#DejaVuSans-35" x="36.083984"/>
      </g>
     </g>
    </g>
    <g id="xtick_5">
     <g id="line2d_5">
      <g>
       <use xlink:href="#me16e1b1139" x="235.534607" y="307.872" style="stroke: #000000; stroke-width: 0.8"/>
      </g>
     </g>
     <g id="text_5">
      <!-- -4 -->
      <g transform="translate(230.549451 322.470438) scale(0.1 -0.1)">
       <defs>
        <path id="DejaVuSans-34" d="M 2419 4116 
L 825 1625 
L 2419 1625 
L 2419 4116 
z
M 2253 4666 
L 3047 4666 
L 3047 1625 
L 3713 1625 
L 3713 1100 
L 3047 1100 
L 3047 0 
L 2419 0 
L 2419 1100 
L 313 1100 
L 313 1709 
L 2253 4666 
z
" transform="scale(0.015625)"/>
       </defs>
       <use xlink:href="#DejaVuSans-2d"/>
       <use xlink:href="#DejaVuSans-34" x="36.083984"/>
      </g>
     </g>
    </g>
    <g id="xtick_6">
     <g id="line2d_6">
      <g>
       <use xlink:href="#me16e1b1139" x="282.267328" y="307.872" style="stroke: #000000; stroke-width: 0.8"/>
      </g>
     </g>
     <g id="text_6">
      <!-- -3 -->
      <g transform="translate(277.282172 322.470438) scale(0.1 -0.1)">
       <defs>
        <path id="DejaVuSans-33" d="M 2597 2516 
Q 3050 2419 3304 2112 
Q 3559 1806 3559 1356 
Q 3559 666 3084 287 
Q 2609 -91 1734 -91 
Q 1441 -91 1130 -33 
Q 819 25 488 141 
L 488 750 
Q 750 597 1062 519 
Q 1375 441 1716 441 
Q 2309 441 2620 675 
Q 2931 909 2931 1356 
Q 2931 1769 2642 2001 
Q 2353 2234 1838 2234 
L 1294 2234 
L 1294 2753 
L 1863 2753 
Q 2328 2753 2575 2939 
Q 2822 3125 2822 3475 
Q 2822 3834 2567 4026 
Q 2313 4219 1838 4219 
Q 1578 4219 1281 4162 
Q 984 4106 628 3988 
L 628 4550 
Q 988 4650 1302 4700 
Q 1616 4750 1894 4750 
Q 2613 4750 3031 4423 
Q 3450 4097 3450 3541 
Q 3450 3153 3228 2886 
Q 3006 2619 2597 2516 
z
" transform="scale(0.015625)"/>
       </defs>
       <use xlink:href="#DejaVuSans-2d"/>
       <use xlink:href="#DejaVuSans-33" x="36.083984"/>
      </g>
     </g>
    </g>
    <g id="xtick_7">
     <g id="line2d_7">
      <g>
       <use xlink:href="#me16e1b1139" x="329.000049" y="307.872" style="stroke: #000000; stroke-width: 0.8"/>
      </g>
     </g>
     <g id="text_7">
      <!-- -2 -->
      <g transform="translate(324.014893 322.470438) scale(0.1 -0.1)">
       <defs>
        <path id="DejaVuSans-32" d="M 1228 531 
L 3431 531 
L 3431 0 
L 469 0 
L 469 531 
Q 828 903 1448 1529 
Q 2069 2156 2228 2338 
Q 2531 2678 2651 2914 
Q 2772 3150 2772 3378 
Q 2772 3750 2511 3984 
Q 2250 4219 1831 4219 
Q 1534 4219 1204 4116 
Q 875 4013 500 3803 
L 500 4441 
Q 881 4594 1212 4672 
Q 1544 4750 1819 4750 
Q 2544 4750 2975 4387 
Q 3406 4025 3406 3419 
Q 3406 3131 3298 2873 
Q 3191 2616 2906 2266 
Q 2828 2175 2409 1742 
Q 1991 1309 1228 531 
z
" transform="scale(0.015625)"/>
       </defs>
       <use xlink:href="#DejaVuSans-2d"/>
       <use xlink:href="#DejaVuSans-32" x="36.083984"/>
      </g>
     </g>
    </g>
    <g id="xtick_8">
     <g id="line2d_8">
      <g>
       <use xlink:href="#me16e1b1139" x="375.73277" y="307.872" style="stroke: #000000; stroke-width: 0.8"/>
      </g>
     </g>
     <g id="text_8">
      <!-- -1 -->
      <g transform="translate(370.747614 322.470438) scale(0.1 -0.1)">
       <defs>
        <path id="DejaVuSans-31" d="M 794 531 
L 1825 531 
L 1825 4091 
L 703 3866 
L 703 4441 
L 1819 4666 
L 2450 4666 
L 2450 531 
L 3481 531 
L 3481 0 
L 794 0 
L 794 531 
z
" transform="scale(0.015625)"/>
       </defs>
       <use xlink:href="#DejaVuSans-2d"/>
       <use xlink:href="#DejaVuSans-31" x="36.083984"/>
      </g>
     </g>
    </g>
    <g id="text_9">
     <!-- Re$(S_{21})$ [mV] -->
     <g transform="translate(184.408438 336.148562) scale(0.1 -0.1)">
      <defs>
       <path id="DejaVuSans-52" d="M 2841 2188 
Q 3044 2119 3236 1894 
Q 3428 1669 3622 1275 
L 4263 0 
L 3584 0 
L 2988 1197 
Q 2756 1666 2539 1819 
Q 2322 1972 1947 1972 
L 1259 1972 
L 1259 0 
L 628 0 
L 628 4666 
L 2053 4666 
Q 2853 4666 3247 4331 
Q 3641 3997 3641 3322 
Q 3641 2881 3436 2590 
Q 3231 2300 2841 2188 
z
M 1259 4147 
L 1259 2491 
L 2053 2491 
Q 2509 2491 2742 2702 
Q 2975 2913 2975 3322 
Q 2975 3731 2742 3939 
Q 2509 4147 2053 4147 
L 1259 4147 
z
" transform="scale(0.015625)"/>
       <path id="DejaVuSans-65" d="M 3597 1894 
L 3597 1613 
L 953 1613 
Q 991 1019 1311 708 
Q 1631 397 2203 397 
Q 2534 397 2845 478 
Q 3156 559 3463 722 
L 3463 178 
Q 3153 47 2828 -22 
Q 2503 -91 2169 -91 
Q 1331 -91 842 396 
Q 353 884 353 1716 
Q 353 2575 817 3079 
Q 1281 3584 2069 3584 
Q 2775 3584 3186 3129 
Q 3597 2675 3597 1894 
z
M 3022 2063 
Q 3016 2534 2758 2815 
Q 2500 3097 2075 3097 
Q 1594 3097 1305 2825 
Q 1016 2553 972 2059 
L 3022 2063 
z
" transform="scale(0.015625)"/>
       <path id="DejaVuSans-28" d="M 1984 4856 
Q 1566 4138 1362 3434 
Q 1159 2731 1159 2009 
Q 1159 1288 1364 580 
Q 1569 -128 1984 -844 
L 1484 -844 
Q 1016 -109 783 600 
Q 550 1309 550 2009 
Q 550 2706 781 3412 
Q 1013 4119 1484 4856 
L 1984 4856 
z
" transform="scale(0.015625)"/>
       <path id="DejaVuSans-Oblique-53" d="M 3859 4513 
L 3738 3897 
Q 3422 4066 3111 4152 
Q 2800 4238 2509 4238 
Q 1944 4238 1609 3991 
Q 1275 3744 1275 3334 
Q 1275 3109 1398 2989 
Q 1522 2869 2034 2731 
L 2413 2638 
Q 3053 2472 3303 2217 
Q 3553 1963 3553 1503 
Q 3553 797 2998 353 
Q 2444 -91 1538 -91 
Q 1166 -91 791 -17 
Q 416 56 38 206 
L 166 856 
Q 513 641 861 531 
Q 1209 422 1556 422 
Q 2147 422 2503 684 
Q 2859 947 2859 1369 
Q 2859 1650 2717 1795 
Q 2575 1941 2106 2059 
L 1728 2156 
Q 1081 2325 845 2545 
Q 609 2766 609 3163 
Q 609 3859 1145 4304 
Q 1681 4750 2541 4750 
Q 2875 4750 3203 4690 
Q 3531 4631 3859 4513 
z
" transform="scale(0.015625)"/>
       <path id="DejaVuSans-29" d="M 513 4856 
L 1013 4856 
Q 1481 4119 1714 3412 
Q 1947 2706 1947 2009 
Q 1947 1309 1714 600 
Q 1481 -109 1013 -844 
L 513 -844 
Q 928 -128 1133 580 
Q 1338 1288 1338 2009 
Q 1338 2731 1133 3434 
Q 928 4138 513 4856 
z
" transform="scale(0.015625)"/>
       <path id="DejaVuSans-20" transform="scale(0.015625)"/>
       <path id="DejaVuSans-5b" d="M 550 4863 
L 1875 4863 
L 1875 4416 
L 1125 4416 
L 1125 -397 
L 1875 -397 
L 1875 -844 
L 550 -844 
L 550 4863 
z
" transform="scale(0.015625)"/>
       <path id="DejaVuSans-6d" d="M 3328 2828 
Q 3544 3216 3844 3400 
Q 4144 3584 4550 3584 
Q 5097 3584 5394 3201 
Q 5691 2819 5691 2113 
L 5691 0 
L 5113 0 
L 5113 2094 
Q 5113 2597 4934 2840 
Q 4756 3084 4391 3084 
Q 3944 3084 3684 2787 
Q 3425 2491 3425 1978 
L 3425 0 
L 2847 0 
L 2847 2094 
Q 2847 2600 2669 2842 
Q 2491 3084 2119 3084 
Q 1678 3084 1418 2786 
Q 1159 2488 1159 1978 
L 1159 0 
L 581 0 
L 581 3500 
L 1159 3500 
L 1159 2956 
Q 1356 3278 1631 3431 
Q 1906 3584 2284 3584 
Q 2666 3584 2933 3390 
Q 3200 3197 3328 2828 
z
" transform="scale(0.015625)"/>
       <path id="DejaVuSans-56" d="M 1831 0 
L 50 4666 
L 709 4666 
L 2188 738 
L 3669 4666 
L 4325 4666 
L 2547 0 
L 1831 0 
z
" transform="scale(0.015625)"/>
       <path id="DejaVuSans-5d" d="M 1947 4863 
L 1947 -844 
L 622 -844 
L 622 -397 
L 1369 -397 
L 1369 4416 
L 622 4416 
L 622 4863 
L 1947 4863 
z
" transform="scale(0.015625)"/>
      </defs>
      <use xlink:href="#DejaVuSans-52" transform="translate(0 0.015625)"/>
      <use xlink:href="#DejaVuSans-65" transform="translate(69.482422 0.015625)"/>
      <use xlink:href="#DejaVuSans-28" transform="translate(131.005859 0.015625)"/>
      <use xlink:href="#DejaVuSans-Oblique-53" transform="translate(170.019531 0.015625)"/>
      <use xlink:href="#DejaVuSans-32" transform="translate(233.496094 -16.390625) scale(0.7)"/>
      <use xlink:href="#DejaVuSans-31" transform="translate(278.032227 -16.390625) scale(0.7)"/>
      <use xlink:href="#DejaVuSans-29" transform="translate(325.302734 0.015625)"/>
      <use xlink:href="#DejaVuSans-20" transform="translate(364.316406 0.015625)"/>
      <use xlink:href="#DejaVuSans-5b" transform="translate(396.103516 0.015625)"/>
      <use xlink:href="#DejaVuSans-6d" transform="translate(435.117188 0.015625)"/>
      <use xlink:href="#DejaVuSans-56" transform="translate(532.529297 0.015625)"/>
      <use xlink:href="#DejaVuSans-5d" transform="translate(600.9375 0.015625)"/>
     </g>
    </g>
   </g>
   <g id="matplotlib.axis_2">
    <g id="ytick_1">
     <g id="line2d_9">
      <defs>
       <path id="m2ecc8d684d" d="M 0 0 
L -3.5 0 
" style="stroke: #000000; stroke-width: 0.8"/>
      </defs>
      <g>
       <use xlink:href="#m2ecc8d684d" x="37.848438" y="306.332661" style="stroke: #000000; stroke-width: 0.8"/>
      </g>
     </g>
     <g id="text_10">
      <!-- -6 -->
      <g transform="translate(20.878125 310.13188) scale(0.1 -0.1)">
       <use xlink:href="#DejaVuSans-2d"/>
       <use xlink:href="#DejaVuSans-36" x="36.083984"/>
      </g>
     </g>
    </g>
    <g id="ytick_2">
     <g id="line2d_10">
      <g>
       <use xlink:href="#m2ecc8d684d" x="37.848438" y="260.896402" style="stroke: #000000; stroke-width: 0.8"/>
      </g>
     </g>
     <g id="text_11">
      <!-- -4 -->
      <g transform="translate(20.878125 264.695621) scale(0.1 -0.1)">
       <use xlink:href="#DejaVuSans-2d"/>
       <use xlink:href="#DejaVuSans-34" x="36.083984"/>
      </g>
     </g>
    </g>
    <g id="ytick_3">
     <g id="line2d_11">
      <g>
       <use xlink:href="#m2ecc8d684d" x="37.848438" y="215.460143" style="stroke: #000000; stroke-width: 0.8"/>
      </g>
     </g>
     <g id="text_12">
      <!-- -2 -->
      <g transform="translate(20.878125 219.259361) scale(0.1 -0.1)">
       <use xlink:href="#DejaVuSans-2d"/>
       <use xlink:href="#DejaVuSans-32" x="36.083984"/>
      </g>
     </g>
    </g>
    <g id="ytick_4">
     <g id="line2d_12">
      <g>
       <use xlink:href="#m2ecc8d684d" x="37.848438" y="170.023884" style="stroke: #000000; stroke-width: 0.8"/>
      </g>
     </g>
     <g id="text_13">
      <!-- 0 -->
      <g transform="translate(24.485938 173.823102) scale(0.1 -0.1)">
       <defs>
        <path id="DejaVuSans-30" d="M 2034 4250 
Q 1547 4250 1301 3770 
Q 1056 3291 1056 2328 
Q 1056 1369 1301 889 
Q 1547 409 2034 409 
Q 2525 409 2770 889 
Q 3016 1369 3016 2328 
Q 3016 3291 2770 3770 
Q 2525 4250 2034 4250 
z
M 2034 4750 
Q 2819 4750 3233 4129 
Q 3647 3509 3647 2328 
Q 3647 1150 3233 529 
Q 2819 -91 2034 -91 
Q 1250 -91 836 529 
Q 422 1150 422 2328 
Q 422 3509 836 4129 
Q 1250 4750 2034 4750 
z
" transform="scale(0.015625)"/>
       </defs>
       <use xlink:href="#DejaVuSans-30"/>
      </g>
     </g>
    </g>
    <g id="ytick_5">
     <g id="line2d_13">
      <g>
       <use xlink:href="#m2ecc8d684d" x="37.848438" y="124.587625" style="stroke: #000000; stroke-width: 0.8"/>
      </g>
     </g>
     <g id="text_14">
      <!-- 2 -->
      <g transform="translate(24.485938 128.386843) scale(0.1 -0.1)">
       <use xlink:href="#DejaVuSans-32"/>
      </g>
     </g>
    </g>
    <g id="ytick_6">
     <g id="line2d_14">
      <g>
       <use xlink:href="#m2ecc8d684d" x="37.848438" y="79.151365" style="stroke: #000000; stroke-width: 0.8"/>
      </g>
     </g>
     <g id="text_15">
      <!-- 4 -->
      <g transform="translate(24.485938 82.950584) scale(0.1 -0.1)">
       <use xlink:href="#DejaVuSans-34"/>
      </g>
     </g>
    </g>
    <g id="text_16">
     <!-- Im$(S_{21})$ [mV] -->
     <g transform="translate(14.798438 206.466) rotate(-90) scale(0.1 -0.1)">
      <defs>
       <path id="DejaVuSans-49" d="M 628 4666 
L 1259 4666 
L 1259 0 
L 628 0 
L 628 4666 
z
" transform="scale(0.015625)"/>
      </defs>
      <use xlink:href="#DejaVuSans-49" transform="translate(0 0.015625)"/>
      <use xlink:href="#DejaVuSans-6d" transform="translate(25.867188 0.015625)"/>
      <use xlink:href="#DejaVuSans-28" transform="translate(123.279297 0.015625)"/>
      <use xlink:href="#DejaVuSans-Oblique-53" transform="translate(162.292969 0.015625)"/>
      <use xlink:href="#DejaVuSans-32" transform="translate(225.769531 -16.390625) scale(0.7)"/>
      <use xlink:href="#DejaVuSans-31" transform="translate(270.305664 -16.390625) scale(0.7)"/>
      <use xlink:href="#DejaVuSans-29" transform="translate(317.576172 0.015625)"/>
      <use xlink:href="#DejaVuSans-20" transform="translate(356.589844 0.015625)"/>
      <use xlink:href="#DejaVuSans-5b" transform="translate(388.376953 0.015625)"/>
      <use xlink:href="#DejaVuSans-6d" transform="translate(427.390625 0.015625)"/>
      <use xlink:href="#DejaVuSans-56" transform="translate(524.802734 0.015625)"/>
      <use xlink:href="#DejaVuSans-5d" transform="translate(593.210938 0.015625)"/>
     </g>
    </g>
   </g>
   <g id="line2d_15">
    <path d="M 133.492749 292.265227 
L 129.985068 295.776 
L 130.309708 291.903843 
L 127.347965 290.687425 
L 124.03657 287.754773 
L 118.435746 289.733592 
L 115.558423 287.645369 
L 116.474205 286.215149 
L 116.51814 282.37313 
L 117.176299 279.974081 
L 115.558728 278.830221 
L 110.795709 278.830197 
L 106.177178 277.667272 
L 103.825093 274.964156 
L 108.372446 273.877242 
L 103.625155 273.480344 
L 98.899171 271.895636 
L 98.061366 267.584778 
L 94.061016 265.34002 
L 93.011452 265.444911 
L 91.855297 261.153215 
L 89.540552 259.35737 
L 86.761702 260.803694 
L 83.960783 255.777294 
L 81.642994 256.104224 
L 85.423466 255.591386 
L 83.667089 252.480372 
L 80.312774 248.271692 
L 81.975549 246.13185 
L 78.546098 244.558881 
L 70.500754 241.643296 
L 75.839847 241.948942 
L 77.301313 239.550485 
L 71.121422 236.769065 
L 71.458847 234.895827 
L 65.769444 232.123508 
L 72.038117 231.29654 
L 65.054108 228.569822 
L 64.082875 227.778368 
L 62.824544 225.655444 
L 64.968724 222.054233 
L 62.733681 221.009147 
L 61.522633 219.133961 
L 65.359267 215.709262 
L 64.150401 213.752047 
L 58.784927 208.87794 
L 59.888979 208.538136 
L 61.722014 204.651699 
L 59.034382 203.936651 
L 60.233609 200.564434 
L 63.493104 198.817568 
L 54.081165 194.278086 
L 55.948292 192.552208 
L 60.989429 191.373154 
L 61.464138 187.841023 
L 61.121437 187.495769 
L 63.548352 184.406286 
L 59.406559 179.135897 
L 62.41452 175.221246 
L 66.704402 173.430949 
L 58.317473 169.029998 
L 72.35875 170.508458 
L 65.688981 165.345402 
L 70.341453 162.783702 
L 68.892213 159.908983 
L 73.871964 156.810399 
L 68.895917 152.529013 
L 77.910515 151.867334 
L 80.651518 146.075747 
L 80.66826 143.765756 
L 86.409462 138.137263 
L 89.485913 138.955476 
L 92.871175 132.674924 
L 99.575239 128.260383 
L 109.150488 125.010369 
L 111.241297 121.617287 
L 122.428841 115.814281 
L 130.142847 112.391949 
L 142.958972 108.848571 
L 152.332506 109.502037 
L 157.98665 105.394794 
L 174.639206 102.120168 
L 186.540411 101.6369 
L 203.977756 97.598566 
L 217.961704 98.646216 
L 227.772709 95.993289 
L 252.921625 97.001085 
L 272.983541 101.035005 
L 291.769319 101.538446 
L 311.276317 109.127705 
L 332.313727 114.185377 
L 347.398582 122.015665 
L 363.955151 134.300177 
L 374.003028 144.748839 
L 371.200384 157.504287 
L 375.082018 168.513485 
L 378.220515 183.912586 
L 365.721319 194.316042 
L 356.798294 203.692884 
L 341.498433 211.872422 
L 331.192274 219.654568 
L 311.595326 229.571156 
L 287.599267 231.589114 
L 269.382816 235.905054 
L 256.339813 235.604414 
L 231.553435 235.686615 
L 225.764138 235.027995 
L 204.978769 234.007622 
L 195.945704 232.293065 
L 170.038178 226.01631 
L 164.086484 226.319169 
L 155.67429 223.039043 
L 152.95292 218.868121 
L 139.884247 213.012435 
L 136.378392 214.276033 
L 120.916693 208.760446 
L 118.617269 206.875149 
L 118.722134 203.415576 
L 112.372187 201.121221 
L 107.415013 197.319427 
L 108.269306 194.115237 
L 104.40624 192.591817 
L 99.200829 191.548334 
L 95.754688 185.706336 
L 92.940425 182.251473 
L 93.610254 182.01291 
L 90.698888 176.720399 
L 87.157622 173.673804 
L 94.080498 168.035249 
L 92.079283 170.086946 
L 87.386124 167.381586 
L 87.641006 162.151496 
L 90.498747 156.703066 
L 84.171223 158.455136 
L 89.730902 155.651963 
L 93.35116 154.493626 
L 86.517625 151.410506 
L 86.214445 149.011211 
L 89.980509 149.340064 
L 86.860225 145.523078 
L 94.773359 144.227295 
L 95.9597 141.131819 
L 92.604167 137.778691 
L 92.654038 138.254337 
L 93.820948 133.956599 
L 96.236347 133.421417 
L 95.380024 130.532664 
L 93.530856 129.339848 
L 94.313312 129.82277 
L 100.210011 126.409317 
L 100.059689 126.209548 
L 99.303361 124.246415 
L 105.301729 121.338475 
L 103.649862 117.733514 
L 101.014332 119.305225 
L 99.338113 115.435189 
L 105.871562 115.170508 
L 108.790689 114.761056 
L 110.157741 111.525668 
L 109.713472 109.753671 
L 110.945625 110.44312 
L 112.844663 105.218184 
L 117.757903 101.714341 
L 113.998281 99.898519 
L 115.456906 99.355691 
L 120.341786 96.620464 
L 123.757133 96.404147 
L 121.853579 99.260764 
L 126.342488 94.601223 
L 127.747488 93.482814 
L 131.225084 93.658981 
L 134.485797 88.784109 
L 138.778977 89.701318 
L 134.86599 88.324863 
L 138.421715 85.480553 
L 140.715659 83.366976 
L 141.584716 87.354974 
L 139.275298 82.665123 
L 143.758271 82.682978 
L 151.547666 78.724403 
L 150.09518 79.793856 
L 152.200905 74.590574 
L 151.344328 76.677836 
L 152.701487 73.671269 
L 154.572521 75.256544 
L 155.752825 69.536009 
L 160.306773 71.028725 
L 162.171617 70.626376 
L 164.068525 69.04448 
L 167.675642 65.789386 
L 173.784202 65.678231 
L 173.316951 65.411182 
L 174.582943 62.225194 
L 176.804999 64.733005 
L 178.711089 61.500379 
L 183.298216 61.074526 
L 183.298216 61.074526 
" clip-path="url(#p86cd59f5a9)" style="fill: none; stroke: #1f77b4; stroke-width: 1.5; stroke-linecap: square"/>
    <defs>
     <path id="me2fddc9c45" d="M 0 1.5 
C 0.397805 1.5 0.77937 1.341951 1.06066 1.06066 
C 1.341951 0.77937 1.5 0.397805 1.5 0 
C 1.5 -0.397805 1.341951 -0.77937 1.06066 -1.06066 
C 0.77937 -1.341951 0.397805 -1.5 0 -1.5 
C -0.397805 -1.5 -0.77937 -1.341951 -1.06066 -1.06066 
C -1.341951 -0.77937 -1.5 -0.397805 -1.5 0 
C -1.5 0.397805 -1.341951 0.77937 -1.06066 1.06066 
C -0.77937 1.341951 -0.397805 1.5 0 1.5 
z
" style="stroke: #1f77b4"/>
    </defs>
    <g clip-path="url(#p86cd59f5a9)">
     <use xlink:href="#me2fddc9c45" x="133.492749" y="292.265227" style="fill: #1f77b4; stroke: #1f77b4"/>
     <use xlink:href="#me2fddc9c45" x="129.985068" y="295.776" style="fill: #1f77b4; stroke: #1f77b4"/>
     <use xlink:href="#me2fddc9c45" x="130.309708" y="291.903843" style="fill: #1f77b4; stroke: #1f77b4"/>
     <use xlink:href="#me2fddc9c45" x="127.347965" y="290.687425" style="fill: #1f77b4; stroke: #1f77b4"/>
     <use xlink:href="#me2fddc9c45" x="124.03657" y="287.754773" style="fill: #1f77b4; stroke: #1f77b4"/>
     <use xlink:href="#me2fddc9c45" x="118.435746" y="289.733592" style="fill: #1f77b4; stroke: #1f77b4"/>
     <use xlink:href="#me2fddc9c45" x="115.558423" y="287.645369" style="fill: #1f77b4; stroke: #1f77b4"/>
     <use xlink:href="#me2fddc9c45" x="116.474205" y="286.215149" style="fill: #1f77b4; stroke: #1f77b4"/>
     <use xlink:href="#me2fddc9c45" x="116.51814" y="282.37313" style="fill: #1f77b4; stroke: #1f77b4"/>
     <use xlink:href="#me2fddc9c45" x="117.176299" y="279.974081" style="fill: #1f77b4; stroke: #1f77b4"/>
     <use xlink:href="#me2fddc9c45" x="115.558728" y="278.830221" style="fill: #1f77b4; stroke: #1f77b4"/>
     <use xlink:href="#me2fddc9c45" x="110.795709" y="278.830197" style="fill: #1f77b4; stroke: #1f77b4"/>
     <use xlink:href="#me2fddc9c45" x="106.177178" y="277.667272" style="fill: #1f77b4; stroke: #1f77b4"/>
     <use xlink:href="#me2fddc9c45" x="103.825093" y="274.964156" style="fill: #1f77b4; stroke: #1f77b4"/>
     <use xlink:href="#me2fddc9c45" x="108.372446" y="273.877242" style="fill: #1f77b4; stroke: #1f77b4"/>
     <use xlink:href="#me2fddc9c45" x="103.625155" y="273.480344" style="fill: #1f77b4; stroke: #1f77b4"/>
     <use xlink:href="#me2fddc9c45" x="98.899171" y="271.895636" style="fill: #1f77b4; stroke: #1f77b4"/>
     <use xlink:href="#me2fddc9c45" x="98.061366" y="267.584778" style="fill: #1f77b4; stroke: #1f77b4"/>
     <use xlink:href="#me2fddc9c45" x="94.061016" y="265.34002" style="fill: #1f77b4; stroke: #1f77b4"/>
     <use xlink:href="#me2fddc9c45" x="93.011452" y="265.444911" style="fill: #1f77b4; stroke: #1f77b4"/>
     <use xlink:href="#me2fddc9c45" x="91.855297" y="261.153215" style="fill: #1f77b4; stroke: #1f77b4"/>
     <use xlink:href="#me2fddc9c45" x="89.540552" y="259.35737" style="fill: #1f77b4; stroke: #1f77b4"/>
     <use xlink:href="#me2fddc9c45" x="86.761702" y="260.803694" style="fill: #1f77b4; stroke: #1f77b4"/>
     <use xlink:href="#me2fddc9c45" x="83.960783" y="255.777294" style="fill: #1f77b4; stroke: #1f77b4"/>
     <use xlink:href="#me2fddc9c45" x="81.642994" y="256.104224" style="fill: #1f77b4; stroke: #1f77b4"/>
     <use xlink:href="#me2fddc9c45" x="85.423466" y="255.591386" style="fill: #1f77b4; stroke: #1f77b4"/>
     <use xlink:href="#me2fddc9c45" x="83.667089" y="252.480372" style="fill: #1f77b4; stroke: #1f77b4"/>
     <use xlink:href="#me2fddc9c45" x="82.323425" y="250.766161" style="fill: #1f77b4; stroke: #1f77b4"/>
     <use xlink:href="#me2fddc9c45" x="80.312774" y="248.271692" style="fill: #1f77b4; stroke: #1f77b4"/>
     <use xlink:href="#me2fddc9c45" x="81.975549" y="246.13185" style="fill: #1f77b4; stroke: #1f77b4"/>
     <use xlink:href="#me2fddc9c45" x="78.546098" y="244.558881" style="fill: #1f77b4; stroke: #1f77b4"/>
     <use xlink:href="#me2fddc9c45" x="70.500754" y="241.643296" style="fill: #1f77b4; stroke: #1f77b4"/>
     <use xlink:href="#me2fddc9c45" x="75.839847" y="241.948942" style="fill: #1f77b4; stroke: #1f77b4"/>
     <use xlink:href="#me2fddc9c45" x="77.301313" y="239.550485" style="fill: #1f77b4; stroke: #1f77b4"/>
     <use xlink:href="#me2fddc9c45" x="71.121422" y="236.769065" style="fill: #1f77b4; stroke: #1f77b4"/>
     <use xlink:href="#me2fddc9c45" x="71.458847" y="234.895827" style="fill: #1f77b4; stroke: #1f77b4"/>
     <use xlink:href="#me2fddc9c45" x="65.769444" y="232.123508" style="fill: #1f77b4; stroke: #1f77b4"/>
     <use xlink:href="#me2fddc9c45" x="72.038117" y="231.29654" style="fill: #1f77b4; stroke: #1f77b4"/>
     <use xlink:href="#me2fddc9c45" x="65.054108" y="228.569822" style="fill: #1f77b4; stroke: #1f77b4"/>
     <use xlink:href="#me2fddc9c45" x="64.082875" y="227.778368" style="fill: #1f77b4; stroke: #1f77b4"/>
     <use xlink:href="#me2fddc9c45" x="62.824544" y="225.655444" style="fill: #1f77b4; stroke: #1f77b4"/>
     <use xlink:href="#me2fddc9c45" x="64.968724" y="222.054233" style="fill: #1f77b4; stroke: #1f77b4"/>
     <use xlink:href="#me2fddc9c45" x="62.733681" y="221.009147" style="fill: #1f77b4; stroke: #1f77b4"/>
     <use xlink:href="#me2fddc9c45" x="61.522633" y="219.133961" style="fill: #1f77b4; stroke: #1f77b4"/>
     <use xlink:href="#me2fddc9c45" x="65.359267" y="215.709262" style="fill: #1f77b4; stroke: #1f77b4"/>
     <use xlink:href="#me2fddc9c45" x="64.150401" y="213.752047" style="fill: #1f77b4; stroke: #1f77b4"/>
     <use xlink:href="#me2fddc9c45" x="58.784927" y="208.87794" style="fill: #1f77b4; stroke: #1f77b4"/>
     <use xlink:href="#me2fddc9c45" x="59.888979" y="208.538136" style="fill: #1f77b4; stroke: #1f77b4"/>
     <use xlink:href="#me2fddc9c45" x="61.722014" y="204.651699" style="fill: #1f77b4; stroke: #1f77b4"/>
     <use xlink:href="#me2fddc9c45" x="59.034382" y="203.936651" style="fill: #1f77b4; stroke: #1f77b4"/>
     <use xlink:href="#me2fddc9c45" x="60.233609" y="200.564434" style="fill: #1f77b4; stroke: #1f77b4"/>
     <use xlink:href="#me2fddc9c45" x="63.493104" y="198.817568" style="fill: #1f77b4; stroke: #1f77b4"/>
     <use xlink:href="#me2fddc9c45" x="54.081165" y="194.278086" style="fill: #1f77b4; stroke: #1f77b4"/>
     <use xlink:href="#me2fddc9c45" x="55.948292" y="192.552208" style="fill: #1f77b4; stroke: #1f77b4"/>
     <use xlink:href="#me2fddc9c45" x="60.989429" y="191.373154" style="fill: #1f77b4; stroke: #1f77b4"/>
     <use xlink:href="#me2fddc9c45" x="61.464138" y="187.841023" style="fill: #1f77b4; stroke: #1f77b4"/>
     <use xlink:href="#me2fddc9c45" x="61.121437" y="187.495769" style="fill: #1f77b4; stroke: #1f77b4"/>
     <use xlink:href="#me2fddc9c45" x="63.548352" y="184.406286" style="fill: #1f77b4; stroke: #1f77b4"/>
     <use xlink:href="#me2fddc9c45" x="59.406559" y="179.135897" style="fill: #1f77b4; stroke: #1f77b4"/>
     <use xlink:href="#me2fddc9c45" x="62.41452" y="175.221246" style="fill: #1f77b4; stroke: #1f77b4"/>
     <use xlink:href="#me2fddc9c45" x="66.704402" y="173.430949" style="fill: #1f77b4; stroke: #1f77b4"/>
     <use xlink:href="#me2fddc9c45" x="58.317473" y="169.029998" style="fill: #1f77b4; stroke: #1f77b4"/>
     <use xlink:href="#me2fddc9c45" x="72.35875" y="170.508458" style="fill: #1f77b4; stroke: #1f77b4"/>
     <use xlink:href="#me2fddc9c45" x="65.688981" y="165.345402" style="fill: #1f77b4; stroke: #1f77b4"/>
     <use xlink:href="#me2fddc9c45" x="70.341453" y="162.783702" style="fill: #1f77b4; stroke: #1f77b4"/>
     <use xlink:href="#me2fddc9c45" x="68.892213" y="159.908983" style="fill: #1f77b4; stroke: #1f77b4"/>
     <use xlink:href="#me2fddc9c45" x="73.871964" y="156.810399" style="fill: #1f77b4; stroke: #1f77b4"/>
     <use xlink:href="#me2fddc9c45" x="68.895917" y="152.529013" style="fill: #1f77b4; stroke: #1f77b4"/>
     <use xlink:href="#me2fddc9c45" x="77.910515" y="151.867334" style="fill: #1f77b4; stroke: #1f77b4"/>
     <use xlink:href="#me2fddc9c45" x="80.651518" y="146.075747" style="fill: #1f77b4; stroke: #1f77b4"/>
     <use xlink:href="#me2fddc9c45" x="80.66826" y="143.765756" style="fill: #1f77b4; stroke: #1f77b4"/>
     <use xlink:href="#me2fddc9c45" x="86.409462" y="138.137263" style="fill: #1f77b4; stroke: #1f77b4"/>
     <use xlink:href="#me2fddc9c45" x="89.485913" y="138.955476" style="fill: #1f77b4; stroke: #1f77b4"/>
     <use xlink:href="#me2fddc9c45" x="92.871175" y="132.674924" style="fill: #1f77b4; stroke: #1f77b4"/>
     <use xlink:href="#me2fddc9c45" x="99.575239" y="128.260383" style="fill: #1f77b4; stroke: #1f77b4"/>
     <use xlink:href="#me2fddc9c45" x="109.150488" y="125.010369" style="fill: #1f77b4; stroke: #1f77b4"/>
     <use xlink:href="#me2fddc9c45" x="111.241297" y="121.617287" style="fill: #1f77b4; stroke: #1f77b4"/>
     <use xlink:href="#me2fddc9c45" x="122.428841" y="115.814281" style="fill: #1f77b4; stroke: #1f77b4"/>
     <use xlink:href="#me2fddc9c45" x="130.142847" y="112.391949" style="fill: #1f77b4; stroke: #1f77b4"/>
     <use xlink:href="#me2fddc9c45" x="142.958972" y="108.848571" style="fill: #1f77b4; stroke: #1f77b4"/>
     <use xlink:href="#me2fddc9c45" x="152.332506" y="109.502037" style="fill: #1f77b4; stroke: #1f77b4"/>
     <use xlink:href="#me2fddc9c45" x="157.98665" y="105.394794" style="fill: #1f77b4; stroke: #1f77b4"/>
     <use xlink:href="#me2fddc9c45" x="174.639206" y="102.120168" style="fill: #1f77b4; stroke: #1f77b4"/>
     <use xlink:href="#me2fddc9c45" x="186.540411" y="101.6369" style="fill: #1f77b4; stroke: #1f77b4"/>
     <use xlink:href="#me2fddc9c45" x="203.977756" y="97.598566" style="fill: #1f77b4; stroke: #1f77b4"/>
     <use xlink:href="#me2fddc9c45" x="217.961704" y="98.646216" style="fill: #1f77b4; stroke: #1f77b4"/>
     <use xlink:href="#me2fddc9c45" x="227.772709" y="95.993289" style="fill: #1f77b4; stroke: #1f77b4"/>
     <use xlink:href="#me2fddc9c45" x="252.921625" y="97.001085" style="fill: #1f77b4; stroke: #1f77b4"/>
     <use xlink:href="#me2fddc9c45" x="272.983541" y="101.035005" style="fill: #1f77b4; stroke: #1f77b4"/>
     <use xlink:href="#me2fddc9c45" x="291.769319" y="101.538446" style="fill: #1f77b4; stroke: #1f77b4"/>
     <use xlink:href="#me2fddc9c45" x="311.276317" y="109.127705" style="fill: #1f77b4; stroke: #1f77b4"/>
     <use xlink:href="#me2fddc9c45" x="332.313727" y="114.185377" style="fill: #1f77b4; stroke: #1f77b4"/>
     <use xlink:href="#me2fddc9c45" x="347.398582" y="122.015665" style="fill: #1f77b4; stroke: #1f77b4"/>
     <use xlink:href="#me2fddc9c45" x="363.955151" y="134.300177" style="fill: #1f77b4; stroke: #1f77b4"/>
     <use xlink:href="#me2fddc9c45" x="374.003028" y="144.748839" style="fill: #1f77b4; stroke: #1f77b4"/>
     <use xlink:href="#me2fddc9c45" x="371.200384" y="157.504287" style="fill: #1f77b4; stroke: #1f77b4"/>
     <use xlink:href="#me2fddc9c45" x="375.082018" y="168.513485" style="fill: #1f77b4; stroke: #1f77b4"/>
     <use xlink:href="#me2fddc9c45" x="378.220515" y="183.912586" style="fill: #1f77b4; stroke: #1f77b4"/>
     <use xlink:href="#me2fddc9c45" x="365.721319" y="194.316042" style="fill: #1f77b4; stroke: #1f77b4"/>
     <use xlink:href="#me2fddc9c45" x="356.798294" y="203.692884" style="fill: #1f77b4; stroke: #1f77b4"/>
     <use xlink:href="#me2fddc9c45" x="341.498433" y="211.872422" style="fill: #1f77b4; stroke: #1f77b4"/>
     <use xlink:href="#me2fddc9c45" x="331.192274" y="219.654568" style="fill: #1f77b4; stroke: #1f77b4"/>
     <use xlink:href="#me2fddc9c45" x="311.595326" y="229.571156" style="fill: #1f77b4; stroke: #1f77b4"/>
     <use xlink:href="#me2fddc9c45" x="287.599267" y="231.589114" style="fill: #1f77b4; stroke: #1f77b4"/>
     <use xlink:href="#me2fddc9c45" x="269.382816" y="235.905054" style="fill: #1f77b4; stroke: #1f77b4"/>
     <use xlink:href="#me2fddc9c45" x="256.339813" y="235.604414" style="fill: #1f77b4; stroke: #1f77b4"/>
     <use xlink:href="#me2fddc9c45" x="231.553435" y="235.686615" style="fill: #1f77b4; stroke: #1f77b4"/>
     <use xlink:href="#me2fddc9c45" x="225.764138" y="235.027995" style="fill: #1f77b4; stroke: #1f77b4"/>
     <use xlink:href="#me2fddc9c45" x="204.978769" y="234.007622" style="fill: #1f77b4; stroke: #1f77b4"/>
     <use xlink:href="#me2fddc9c45" x="195.945704" y="232.293065" style="fill: #1f77b4; stroke: #1f77b4"/>
     <use xlink:href="#me2fddc9c45" x="185.710419" y="229.807154" style="fill: #1f77b4; stroke: #1f77b4"/>
     <use xlink:href="#me2fddc9c45" x="170.038178" y="226.01631" style="fill: #1f77b4; stroke: #1f77b4"/>
     <use xlink:href="#me2fddc9c45" x="164.086484" y="226.319169" style="fill: #1f77b4; stroke: #1f77b4"/>
     <use xlink:href="#me2fddc9c45" x="155.67429" y="223.039043" style="fill: #1f77b4; stroke: #1f77b4"/>
     <use xlink:href="#me2fddc9c45" x="152.95292" y="218.868121" style="fill: #1f77b4; stroke: #1f77b4"/>
     <use xlink:href="#me2fddc9c45" x="139.884247" y="213.012435" style="fill: #1f77b4; stroke: #1f77b4"/>
     <use xlink:href="#me2fddc9c45" x="136.378392" y="214.276033" style="fill: #1f77b4; stroke: #1f77b4"/>
     <use xlink:href="#me2fddc9c45" x="120.916693" y="208.760446" style="fill: #1f77b4; stroke: #1f77b4"/>
     <use xlink:href="#me2fddc9c45" x="118.617269" y="206.875149" style="fill: #1f77b4; stroke: #1f77b4"/>
     <use xlink:href="#me2fddc9c45" x="118.722134" y="203.415576" style="fill: #1f77b4; stroke: #1f77b4"/>
     <use xlink:href="#me2fddc9c45" x="112.372187" y="201.121221" style="fill: #1f77b4; stroke: #1f77b4"/>
     <use xlink:href="#me2fddc9c45" x="107.415013" y="197.319427" style="fill: #1f77b4; stroke: #1f77b4"/>
     <use xlink:href="#me2fddc9c45" x="108.269306" y="194.115237" style="fill: #1f77b4; stroke: #1f77b4"/>
     <use xlink:href="#me2fddc9c45" x="104.40624" y="192.591817" style="fill: #1f77b4; stroke: #1f77b4"/>
     <use xlink:href="#me2fddc9c45" x="99.200829" y="191.548334" style="fill: #1f77b4; stroke: #1f77b4"/>
     <use xlink:href="#me2fddc9c45" x="95.754688" y="185.706336" style="fill: #1f77b4; stroke: #1f77b4"/>
     <use xlink:href="#me2fddc9c45" x="92.940425" y="182.251473" style="fill: #1f77b4; stroke: #1f77b4"/>
     <use xlink:href="#me2fddc9c45" x="93.610254" y="182.01291" style="fill: #1f77b4; stroke: #1f77b4"/>
     <use xlink:href="#me2fddc9c45" x="91.584738" y="178.263525" style="fill: #1f77b4; stroke: #1f77b4"/>
     <use xlink:href="#me2fddc9c45" x="90.698888" y="176.720399" style="fill: #1f77b4; stroke: #1f77b4"/>
     <use xlink:href="#me2fddc9c45" x="87.157622" y="173.673804" style="fill: #1f77b4; stroke: #1f77b4"/>
     <use xlink:href="#me2fddc9c45" x="94.080498" y="168.035249" style="fill: #1f77b4; stroke: #1f77b4"/>
     <use xlink:href="#me2fddc9c45" x="92.079283" y="170.086946" style="fill: #1f77b4; stroke: #1f77b4"/>
     <use xlink:href="#me2fddc9c45" x="87.386124" y="167.381586" style="fill: #1f77b4; stroke: #1f77b4"/>
     <use xlink:href="#me2fddc9c45" x="87.641006" y="162.151496" style="fill: #1f77b4; stroke: #1f77b4"/>
     <use xlink:href="#me2fddc9c45" x="90.498747" y="156.703066" style="fill: #1f77b4; stroke: #1f77b4"/>
     <use xlink:href="#me2fddc9c45" x="84.171223" y="158.455136" style="fill: #1f77b4; stroke: #1f77b4"/>
     <use xlink:href="#me2fddc9c45" x="89.730902" y="155.651963" style="fill: #1f77b4; stroke: #1f77b4"/>
     <use xlink:href="#me2fddc9c45" x="93.35116" y="154.493626" style="fill: #1f77b4; stroke: #1f77b4"/>
     <use xlink:href="#me2fddc9c45" x="86.517625" y="151.410506" style="fill: #1f77b4; stroke: #1f77b4"/>
     <use xlink:href="#me2fddc9c45" x="86.214445" y="149.011211" style="fill: #1f77b4; stroke: #1f77b4"/>
     <use xlink:href="#me2fddc9c45" x="89.980509" y="149.340064" style="fill: #1f77b4; stroke: #1f77b4"/>
     <use xlink:href="#me2fddc9c45" x="86.860225" y="145.523078" style="fill: #1f77b4; stroke: #1f77b4"/>
     <use xlink:href="#me2fddc9c45" x="94.773359" y="144.227295" style="fill: #1f77b4; stroke: #1f77b4"/>
     <use xlink:href="#me2fddc9c45" x="95.9597" y="141.131819" style="fill: #1f77b4; stroke: #1f77b4"/>
     <use xlink:href="#me2fddc9c45" x="92.604167" y="137.778691" style="fill: #1f77b4; stroke: #1f77b4"/>
     <use xlink:href="#me2fddc9c45" x="92.654038" y="138.254337" style="fill: #1f77b4; stroke: #1f77b4"/>
     <use xlink:href="#me2fddc9c45" x="93.820948" y="133.956599" style="fill: #1f77b4; stroke: #1f77b4"/>
     <use xlink:href="#me2fddc9c45" x="96.236347" y="133.421417" style="fill: #1f77b4; stroke: #1f77b4"/>
     <use xlink:href="#me2fddc9c45" x="95.380024" y="130.532664" style="fill: #1f77b4; stroke: #1f77b4"/>
     <use xlink:href="#me2fddc9c45" x="93.530856" y="129.339848" style="fill: #1f77b4; stroke: #1f77b4"/>
     <use xlink:href="#me2fddc9c45" x="94.313312" y="129.82277" style="fill: #1f77b4; stroke: #1f77b4"/>
     <use xlink:href="#me2fddc9c45" x="100.210011" y="126.409317" style="fill: #1f77b4; stroke: #1f77b4"/>
     <use xlink:href="#me2fddc9c45" x="100.059689" y="126.209548" style="fill: #1f77b4; stroke: #1f77b4"/>
     <use xlink:href="#me2fddc9c45" x="99.303361" y="124.246415" style="fill: #1f77b4; stroke: #1f77b4"/>
     <use xlink:href="#me2fddc9c45" x="105.301729" y="121.338475" style="fill: #1f77b4; stroke: #1f77b4"/>
     <use xlink:href="#me2fddc9c45" x="103.649862" y="117.733514" style="fill: #1f77b4; stroke: #1f77b4"/>
     <use xlink:href="#me2fddc9c45" x="101.014332" y="119.305225" style="fill: #1f77b4; stroke: #1f77b4"/>
     <use xlink:href="#me2fddc9c45" x="99.338113" y="115.435189" style="fill: #1f77b4; stroke: #1f77b4"/>
     <use xlink:href="#me2fddc9c45" x="105.871562" y="115.170508" style="fill: #1f77b4; stroke: #1f77b4"/>
     <use xlink:href="#me2fddc9c45" x="108.790689" y="114.761056" style="fill: #1f77b4; stroke: #1f77b4"/>
     <use xlink:href="#me2fddc9c45" x="110.157741" y="111.525668" style="fill: #1f77b4; stroke: #1f77b4"/>
     <use xlink:href="#me2fddc9c45" x="109.713472" y="109.753671" style="fill: #1f77b4; stroke: #1f77b4"/>
     <use xlink:href="#me2fddc9c45" x="110.945625" y="110.44312" style="fill: #1f77b4; stroke: #1f77b4"/>
     <use xlink:href="#me2fddc9c45" x="112.808288" y="105.569259" style="fill: #1f77b4; stroke: #1f77b4"/>
     <use xlink:href="#me2fddc9c45" x="112.844663" y="105.218184" style="fill: #1f77b4; stroke: #1f77b4"/>
     <use xlink:href="#me2fddc9c45" x="117.757903" y="101.714341" style="fill: #1f77b4; stroke: #1f77b4"/>
     <use xlink:href="#me2fddc9c45" x="113.998281" y="99.898519" style="fill: #1f77b4; stroke: #1f77b4"/>
     <use xlink:href="#me2fddc9c45" x="115.456906" y="99.355691" style="fill: #1f77b4; stroke: #1f77b4"/>
     <use xlink:href="#me2fddc9c45" x="120.341786" y="96.620464" style="fill: #1f77b4; stroke: #1f77b4"/>
     <use xlink:href="#me2fddc9c45" x="123.757133" y="96.404147" style="fill: #1f77b4; stroke: #1f77b4"/>
     <use xlink:href="#me2fddc9c45" x="121.853579" y="99.260764" style="fill: #1f77b4; stroke: #1f77b4"/>
     <use xlink:href="#me2fddc9c45" x="126.342488" y="94.601223" style="fill: #1f77b4; stroke: #1f77b4"/>
     <use xlink:href="#me2fddc9c45" x="127.747488" y="93.482814" style="fill: #1f77b4; stroke: #1f77b4"/>
     <use xlink:href="#me2fddc9c45" x="131.225084" y="93.658981" style="fill: #1f77b4; stroke: #1f77b4"/>
     <use xlink:href="#me2fddc9c45" x="134.485797" y="88.784109" style="fill: #1f77b4; stroke: #1f77b4"/>
     <use xlink:href="#me2fddc9c45" x="138.778977" y="89.701318" style="fill: #1f77b4; stroke: #1f77b4"/>
     <use xlink:href="#me2fddc9c45" x="134.86599" y="88.324863" style="fill: #1f77b4; stroke: #1f77b4"/>
     <use xlink:href="#me2fddc9c45" x="138.421715" y="85.480553" style="fill: #1f77b4; stroke: #1f77b4"/>
     <use xlink:href="#me2fddc9c45" x="140.715659" y="83.366976" style="fill: #1f77b4; stroke: #1f77b4"/>
     <use xlink:href="#me2fddc9c45" x="141.584716" y="87.354974" style="fill: #1f77b4; stroke: #1f77b4"/>
     <use xlink:href="#me2fddc9c45" x="139.275298" y="82.665123" style="fill: #1f77b4; stroke: #1f77b4"/>
     <use xlink:href="#me2fddc9c45" x="143.758271" y="82.682978" style="fill: #1f77b4; stroke: #1f77b4"/>
     <use xlink:href="#me2fddc9c45" x="151.547666" y="78.724403" style="fill: #1f77b4; stroke: #1f77b4"/>
     <use xlink:href="#me2fddc9c45" x="150.09518" y="79.793856" style="fill: #1f77b4; stroke: #1f77b4"/>
     <use xlink:href="#me2fddc9c45" x="152.200905" y="74.590574" style="fill: #1f77b4; stroke: #1f77b4"/>
     <use xlink:href="#me2fddc9c45" x="151.344328" y="76.677836" style="fill: #1f77b4; stroke: #1f77b4"/>
     <use xlink:href="#me2fddc9c45" x="152.701487" y="73.671269" style="fill: #1f77b4; stroke: #1f77b4"/>
     <use xlink:href="#me2fddc9c45" x="154.572521" y="75.256544" style="fill: #1f77b4; stroke: #1f77b4"/>
     <use xlink:href="#me2fddc9c45" x="155.752825" y="69.536009" style="fill: #1f77b4; stroke: #1f77b4"/>
     <use xlink:href="#me2fddc9c45" x="160.306773" y="71.028725" style="fill: #1f77b4; stroke: #1f77b4"/>
     <use xlink:href="#me2fddc9c45" x="162.171617" y="70.626376" style="fill: #1f77b4; stroke: #1f77b4"/>
     <use xlink:href="#me2fddc9c45" x="164.068525" y="69.04448" style="fill: #1f77b4; stroke: #1f77b4"/>
     <use xlink:href="#me2fddc9c45" x="167.675642" y="65.789386" style="fill: #1f77b4; stroke: #1f77b4"/>
     <use xlink:href="#me2fddc9c45" x="173.784202" y="65.678231" style="fill: #1f77b4; stroke: #1f77b4"/>
     <use xlink:href="#me2fddc9c45" x="173.316951" y="65.411182" style="fill: #1f77b4; stroke: #1f77b4"/>
     <use xlink:href="#me2fddc9c45" x="174.582943" y="62.225194" style="fill: #1f77b4; stroke: #1f77b4"/>
     <use xlink:href="#me2fddc9c45" x="176.804999" y="64.733005" style="fill: #1f77b4; stroke: #1f77b4"/>
     <use xlink:href="#me2fddc9c45" x="178.711089" y="61.500379" style="fill: #1f77b4; stroke: #1f77b4"/>
     <use xlink:href="#me2fddc9c45" x="183.298216" y="61.074526" style="fill: #1f77b4; stroke: #1f77b4"/>
    </g>
   </g>
   <g id="line2d_16">
    <path d="M 148.643105 288.703433 
L 141.234151 284.539735 
L 134.478051 280.499951 
L 127.91345 276.325403 
L 121.548603 272.012697 
L 115.796233 267.859237 
L 110.23378 263.577837 
L 104.870238 259.163721 
L 100.076773 254.941117 
L 95.472838 250.59383 
L 91.06909 246.115564 
L 87.192461 241.859159 
L 83.508357 237.478091 
L 80.311804 233.345902 
L 77.300448 229.095376 
L 74.488673 224.71849 
L 72.120065 220.622123 
L 69.945853 216.405829 
L 68.170279 212.501242 
L 66.582676 208.484905 
L 65.201718 204.348577 
L 64.16556 200.563682 
L 63.328674 196.669536 
L 62.712857 192.658248 
L 62.375548 189.045502 
L 62.247529 185.330182 
L 62.352564 181.505556 
L 62.649081 178.134886 
L 63.157602 174.673918 
L 63.901625 171.117758 
L 64.908294 167.461424 
L 66.209042 163.699956 
L 67.543786 160.481625 
L 69.132183 157.184389 
L 71.001709 153.805996 
L 73.18357 150.344685 
L 75.713232 146.799393 
L 78.630999 143.170053 
L 81.275217 140.206885 
L 84.223259 137.192223 
L 87.504132 134.128528 
L 91.149826 131.019472 
L 95.195536 127.87024 
L 99.679841 124.687906 
L 104.644832 121.481874 
L 110.136149 118.264422 
L 114.629442 115.853183 
L 119.468217 113.452511 
L 124.675219 111.072154 
L 130.273851 108.723642 
L 136.287893 106.420526 
L 142.741105 104.178653 
L 149.656711 102.016443 
L 157.056713 99.955176 
L 164.961027 98.019271 
L 173.386401 96.236549 
L 182.345081 94.638438 
L 191.843219 93.260112 
L 198.474499 92.482402 
L 205.34199 91.832037 
L 212.440439 91.322124 
L 219.761957 90.966377 
L 227.295678 90.779018 
L 235.027411 90.774655 
L 242.939304 90.968117 
L 251.009515 91.37426 
L 259.21193 92.007723 
L 267.515924 92.882651 
L 275.886193 94.012374 
L 284.282688 95.409047 
L 292.66066 97.083262 
L 300.970843 99.043635 
L 309.159805 101.29638 
L 317.17046 103.844893 
L 324.942781 106.689352 
L 332.414683 109.826366 
L 339.523095 113.248683 
L 342.921311 115.063456 
L 346.205181 116.944988 
L 349.367106 118.891214 
L 352.399675 120.899811 
L 355.295709 122.968199 
L 358.048305 125.093551 
L 360.650882 127.272799 
L 363.097224 129.502644 
L 365.381519 131.779571 
L 367.498401 134.099862 
L 369.442985 136.459613 
L 371.2109 138.854754 
L 372.798319 141.281068 
L 374.201983 143.73421 
L 375.419223 146.209737 
L 376.447978 148.703124 
L 377.286803 151.209793 
L 377.934875 153.725136 
L 378.391998 156.244542 
L 378.658598 158.76342 
L 378.73571 161.277223 
L 378.624972 163.781473 
L 378.328599 166.271785 
L 377.849367 168.743886 
L 377.190582 171.193634 
L 376.356054 173.617043 
L 375.350063 176.010291 
L 374.177321 178.369743 
L 372.84294 180.691959 
L 371.352386 182.973708 
L 369.711446 185.211973 
L 367.926182 187.403964 
L 366.002893 189.547118 
L 363.94807 191.639104 
L 361.768363 193.677825 
L 359.470534 195.661416 
L 354.54792 199.456896 
L 349.235257 203.01516 
L 343.587196 206.329265 
L 337.657092 209.39546 
L 331.496235 212.212893 
L 325.153243 214.783284 
L 318.673601 217.110574 
L 312.099345 219.200588 
L 305.468875 221.060694 
L 298.816876 222.699488 
L 292.174328 224.1265 
L 285.568602 225.351934 
L 279.023602 226.38643 
L 272.559957 227.240862 
L 266.195239 227.926171 
L 256.865217 228.660734 
L 247.829576 229.074887 
L 239.11635 229.202725 
L 230.744176 229.076266 
L 222.723933 228.725201 
L 215.060206 228.176763 
L 207.752565 227.455725 
L 200.79666 226.584453 
L 192.056249 225.223439 
L 183.904607 223.672483 
L 176.31401 221.967181 
L 169.254201 220.137725 
L 162.693818 218.209593 
L 156.601431 216.204191 
L 150.946253 214.139439 
L 144.447053 211.497563 
L 138.530025 208.809888 
L 133.14441 206.095196 
L 128.243601 203.368244 
L 123.785104 200.640563 
L 119.730363 197.921099 
L 116.044524 195.216729 
L 112.064428 191.998677 
L 108.522005 188.816415 
L 105.374579 185.674464 
L 102.584558 182.575777 
L 100.11882 179.522128 
L 97.94815 176.514409 
L 95.754394 173.063742 
L 93.891387 169.675462 
L 92.327969 166.348524 
L 91.037007 163.081478 
L 89.994819 159.872618 
L 89.18067 156.720089 
L 88.506199 153.183709 
L 88.082148 149.715509 
L 87.887928 146.312652 
L 87.905602 142.972406 
L 88.159311 139.286229 
L 88.641945 135.672515 
L 89.336622 132.128029 
L 90.228633 128.649789 
L 91.435583 124.859454 
L 92.854845 121.14412 
L 94.472958 117.500712 
L 96.468508 113.572756 
L 98.676642 109.725227 
L 101.085295 105.955241 
L 103.92914 101.927986 
L 106.98678 97.987113 
L 110.247422 94.130134 
L 113.997734 90.043935 
L 117.964078 86.051364 
L 122.46588 81.85415 
L 127.195783 77.761242 
L 132.143749 73.770994 
L 137.6767 69.608153 
L 143.439028 65.560376 
L 149.421079 61.626704 
L 156.033955 57.555784 
L 162.442065 53.856 
L 162.442065 53.856 
" clip-path="url(#p86cd59f5a9)" style="fill: none; stroke: #d62728; stroke-width: 1.5; stroke-linecap: square"/>
   </g>
   <g id="patch_3">
    <path d="M 37.848438 307.872 
L 37.848438 41.76 
" style="fill: none; stroke: #000000; stroke-width: 0.8; stroke-linejoin: miter; stroke-linecap: square"/>
   </g>
   <g id="patch_4">
    <path d="M 394.968438 307.872 
L 394.968438 41.76 
" style="fill: none; stroke: #000000; stroke-width: 0.8; stroke-linejoin: miter; stroke-linecap: square"/>
   </g>
   <g id="patch_5">
    <path d="M 37.848437 307.872 
L 394.968438 307.872 
" style="fill: none; stroke: #000000; stroke-width: 0.8; stroke-linejoin: miter; stroke-linecap: square"/>
   </g>
   <g id="patch_6">
    <path d="M 37.848437 41.76 
L 394.968438 41.76 
" style="fill: none; stroke: #000000; stroke-width: 0.8; stroke-linejoin: miter; stroke-linecap: square"/>
   </g>
   <g id="text_17">
    <g id="patch_7">
     <path d="M 412.824438 102.337163 
L 551.424438 102.337163 
Q 555.424438 102.337163 555.424438 98.337163 
L 555.424438 55.0656 
Q 555.424438 51.0656 551.424438 51.0656 
L 412.824438 51.0656 
Q 408.824438 51.0656 408.824438 55.0656 
L 408.824438 98.337163 
Q 408.824438 102.337163 412.824438 102.337163 
z
" style="fill: #ffffff; opacity: 0.5; stroke: #000000; stroke-linejoin: miter"/>
    </g>
    <!-- Summary -->
    <g transform="translate(412.824438 62.664038) scale(0.1 -0.1)">
     <defs>
      <path id="DejaVuSans-53" d="M 3425 4513 
L 3425 3897 
Q 3066 4069 2747 4153 
Q 2428 4238 2131 4238 
Q 1616 4238 1336 4038 
Q 1056 3838 1056 3469 
Q 1056 3159 1242 3001 
Q 1428 2844 1947 2747 
L 2328 2669 
Q 3034 2534 3370 2195 
Q 3706 1856 3706 1288 
Q 3706 609 3251 259 
Q 2797 -91 1919 -91 
Q 1588 -91 1214 -16 
Q 841 59 441 206 
L 441 856 
Q 825 641 1194 531 
Q 1563 422 1919 422 
Q 2459 422 2753 634 
Q 3047 847 3047 1241 
Q 3047 1584 2836 1778 
Q 2625 1972 2144 2069 
L 1759 2144 
Q 1053 2284 737 2584 
Q 422 2884 422 3419 
Q 422 4038 858 4394 
Q 1294 4750 2059 4750 
Q 2388 4750 2728 4690 
Q 3069 4631 3425 4513 
z
" transform="scale(0.015625)"/>
      <path id="DejaVuSans-75" d="M 544 1381 
L 544 3500 
L 1119 3500 
L 1119 1403 
Q 1119 906 1312 657 
Q 1506 409 1894 409 
Q 2359 409 2629 706 
Q 2900 1003 2900 1516 
L 2900 3500 
L 3475 3500 
L 3475 0 
L 2900 0 
L 2900 538 
Q 2691 219 2414 64 
Q 2138 -91 1772 -91 
Q 1169 -91 856 284 
Q 544 659 544 1381 
z
M 1991 3584 
L 1991 3584 
z
" transform="scale(0.015625)"/>
      <path id="DejaVuSans-61" d="M 2194 1759 
Q 1497 1759 1228 1600 
Q 959 1441 959 1056 
Q 959 750 1161 570 
Q 1363 391 1709 391 
Q 2188 391 2477 730 
Q 2766 1069 2766 1631 
L 2766 1759 
L 2194 1759 
z
M 3341 1997 
L 3341 0 
L 2766 0 
L 2766 531 
Q 2569 213 2275 61 
Q 1981 -91 1556 -91 
Q 1019 -91 701 211 
Q 384 513 384 1019 
Q 384 1609 779 1909 
Q 1175 2209 1959 2209 
L 2766 2209 
L 2766 2266 
Q 2766 2663 2505 2880 
Q 2244 3097 1772 3097 
Q 1472 3097 1187 3025 
Q 903 2953 641 2809 
L 641 3341 
Q 956 3463 1253 3523 
Q 1550 3584 1831 3584 
Q 2591 3584 2966 3190 
Q 3341 2797 3341 1997 
z
" transform="scale(0.015625)"/>
      <path id="DejaVuSans-72" d="M 2631 2963 
Q 2534 3019 2420 3045 
Q 2306 3072 2169 3072 
Q 1681 3072 1420 2755 
Q 1159 2438 1159 1844 
L 1159 0 
L 581 0 
L 581 3500 
L 1159 3500 
L 1159 2956 
Q 1341 3275 1631 3429 
Q 1922 3584 2338 3584 
Q 2397 3584 2469 3576 
Q 2541 3569 2628 3553 
L 2631 2963 
z
" transform="scale(0.015625)"/>
      <path id="DejaVuSans-79" d="M 2059 -325 
Q 1816 -950 1584 -1140 
Q 1353 -1331 966 -1331 
L 506 -1331 
L 506 -850 
L 844 -850 
Q 1081 -850 1212 -737 
Q 1344 -625 1503 -206 
L 1606 56 
L 191 3500 
L 800 3500 
L 1894 763 
L 2988 3500 
L 3597 3500 
L 2059 -325 
z
" transform="scale(0.015625)"/>
     </defs>
     <use xlink:href="#DejaVuSans-53"/>
     <use xlink:href="#DejaVuSans-75" x="63.476562"/>
     <use xlink:href="#DejaVuSans-6d" x="126.855469"/>
     <use xlink:href="#DejaVuSans-6d" x="224.267578"/>
     <use xlink:href="#DejaVuSans-61" x="321.679688"/>
     <use xlink:href="#DejaVuSans-72" x="382.958984"/>
     <use xlink:href="#DejaVuSans-79" x="424.072266"/>
    </g>
    <!-- $Q_I$: 16.80$\pm$0.94 k -->
    <g transform="translate(412.824438 73.86185) scale(0.1 -0.1)">
     <defs>
      <path id="DejaVuSans-Oblique-51" d="M 2309 -84 
Q 2275 -88 2237 -89 
Q 2200 -91 2125 -91 
Q 1250 -91 756 411 
Q 263 913 263 1797 
Q 263 2319 452 2844 
Q 641 3369 978 3788 
Q 1369 4269 1858 4509 
Q 2347 4750 2938 4750 
Q 3794 4750 4287 4245 
Q 4781 3741 4781 2869 
Q 4781 1928 4265 1147 
Q 3750 366 2919 44 
L 3553 -825 
L 2847 -825 
L 2309 -84 
z
M 2919 4238 
Q 2400 4238 2003 3986 
Q 1606 3734 1313 3219 
Q 1125 2891 1026 2522 
Q 928 2153 928 1778 
Q 928 1128 1239 775 
Q 1550 422 2119 422 
Q 2631 422 3032 676 
Q 3434 931 3719 1434 
Q 3909 1772 4009 2142 
Q 4109 2513 4109 2881 
Q 4109 3528 3796 3883 
Q 3484 4238 2919 4238 
z
" transform="scale(0.015625)"/>
      <path id="DejaVuSans-Oblique-49" d="M 1081 4666 
L 1716 4666 
L 806 0 
L 172 0 
L 1081 4666 
z
" transform="scale(0.015625)"/>
      <path id="DejaVuSans-3a" d="M 750 794 
L 1409 794 
L 1409 0 
L 750 0 
L 750 794 
z
M 750 3309 
L 1409 3309 
L 1409 2516 
L 750 2516 
L 750 3309 
z
" transform="scale(0.015625)"/>
      <path id="DejaVuSans-2e" d="M 684 794 
L 1344 794 
L 1344 0 
L 684 0 
L 684 794 
z
" transform="scale(0.015625)"/>
      <path id="DejaVuSans-b1" d="M 2944 4013 
L 2944 2803 
L 4684 2803 
L 4684 2272 
L 2944 2272 
L 2944 1063 
L 2419 1063 
L 2419 2272 
L 678 2272 
L 678 2803 
L 2419 2803 
L 2419 4013 
L 2944 4013 
z
M 678 531 
L 4684 531 
L 4684 0 
L 678 0 
L 678 531 
z
" transform="scale(0.015625)"/>
      <path id="DejaVuSans-39" d="M 703 97 
L 703 672 
Q 941 559 1184 500 
Q 1428 441 1663 441 
Q 2288 441 2617 861 
Q 2947 1281 2994 2138 
Q 2813 1869 2534 1725 
Q 2256 1581 1919 1581 
Q 1219 1581 811 2004 
Q 403 2428 403 3163 
Q 403 3881 828 4315 
Q 1253 4750 1959 4750 
Q 2769 4750 3195 4129 
Q 3622 3509 3622 2328 
Q 3622 1225 3098 567 
Q 2575 -91 1691 -91 
Q 1453 -91 1209 -44 
Q 966 3 703 97 
z
M 1959 2075 
Q 2384 2075 2632 2365 
Q 2881 2656 2881 3163 
Q 2881 3666 2632 3958 
Q 2384 4250 1959 4250 
Q 1534 4250 1286 3958 
Q 1038 3666 1038 3163 
Q 1038 2656 1286 2365 
Q 1534 2075 1959 2075 
z
" transform="scale(0.015625)"/>
      <path id="DejaVuSans-6b" d="M 581 4863 
L 1159 4863 
L 1159 1991 
L 2875 3500 
L 3609 3500 
L 1753 1863 
L 3688 0 
L 2938 0 
L 1159 1709 
L 1159 0 
L 581 0 
L 581 4863 
z
" transform="scale(0.015625)"/>
     </defs>
     <use xlink:href="#DejaVuSans-Oblique-51" transform="translate(0 0.015625)"/>
     <use xlink:href="#DejaVuSans-Oblique-49" transform="translate(78.710938 -16.390625) scale(0.7)"/>
     <use xlink:href="#DejaVuSans-3a" transform="translate(102.089844 0.015625)"/>
     <use xlink:href="#DejaVuSans-20" transform="translate(135.78125 0.015625)"/>
     <use xlink:href="#DejaVuSans-31" transform="translate(167.568359 0.015625)"/>
     <use xlink:href="#DejaVuSans-36" transform="translate(231.191406 0.015625)"/>
     <use xlink:href="#DejaVuSans-2e" transform="translate(294.814453 0.015625)"/>
     <use xlink:href="#DejaVuSans-38" transform="translate(323.976562 0.015625)"/>
     <use xlink:href="#DejaVuSans-30" transform="translate(387.599609 0.015625)"/>
     <use xlink:href="#DejaVuSans-b1" transform="translate(451.222656 0.015625)"/>
     <use xlink:href="#DejaVuSans-30" transform="translate(535.011719 0.015625)"/>
     <use xlink:href="#DejaVuSans-2e" transform="translate(598.634766 0.015625)"/>
     <use xlink:href="#DejaVuSans-39" transform="translate(630.421875 0.015625)"/>
     <use xlink:href="#DejaVuSans-34" transform="translate(694.044922 0.015625)"/>
     <use xlink:href="#DejaVuSans-20" transform="translate(757.667969 0.015625)"/>
     <use xlink:href="#DejaVuSans-6b" transform="translate(789.455078 0.015625)"/>
    </g>
    <!-- $Q_C$: 2.390$\pm$0.023 k -->
    <g transform="translate(412.824438 85.059663) scale(0.1 -0.1)">
     <defs>
      <path id="DejaVuSans-Oblique-43" d="M 4447 4306 
L 4319 3641 
Q 4019 3944 3683 4091 
Q 3347 4238 2956 4238 
Q 2422 4238 2017 3981 
Q 1613 3725 1319 3200 
Q 1131 2863 1032 2486 
Q 934 2109 934 1728 
Q 934 1091 1264 756 
Q 1594 422 2222 422 
Q 2656 422 3056 561 
Q 3456 700 3834 978 
L 3688 231 
Q 3316 72 2936 -9 
Q 2556 -91 2175 -91 
Q 1278 -91 773 396 
Q 269 884 269 1753 
Q 269 2309 461 2846 
Q 653 3384 1013 3828 
Q 1394 4300 1883 4525 
Q 2372 4750 3022 4750 
Q 3422 4750 3780 4639 
Q 4138 4528 4447 4306 
z
" transform="scale(0.015625)"/>
     </defs>
     <use xlink:href="#DejaVuSans-Oblique-51" transform="translate(0 0.015625)"/>
     <use xlink:href="#DejaVuSans-Oblique-43" transform="translate(78.710938 -16.390625) scale(0.7)"/>
     <use xlink:href="#DejaVuSans-3a" transform="translate(130.322266 0.015625)"/>
     <use xlink:href="#DejaVuSans-20" transform="translate(164.013672 0.015625)"/>
     <use xlink:href="#DejaVuSans-32" transform="translate(195.800781 0.015625)"/>
     <use xlink:href="#DejaVuSans-2e" transform="translate(259.423828 0.015625)"/>
     <use xlink:href="#DejaVuSans-33" transform="translate(291.210938 0.015625)"/>
     <use xlink:href="#DejaVuSans-39" transform="translate(354.833984 0.015625)"/>
     <use xlink:href="#DejaVuSans-30" transform="translate(418.457031 0.015625)"/>
     <use xlink:href="#DejaVuSans-b1" transform="translate(482.080078 0.015625)"/>
     <use xlink:href="#DejaVuSans-30" transform="translate(565.869141 0.015625)"/>
     <use xlink:href="#DejaVuSans-2e" transform="translate(629.492188 0.015625)"/>
     <use xlink:href="#DejaVuSans-30" transform="translate(661.279297 0.015625)"/>
     <use xlink:href="#DejaVuSans-32" transform="translate(724.902344 0.015625)"/>
     <use xlink:href="#DejaVuSans-33" transform="translate(788.525391 0.015625)"/>
     <use xlink:href="#DejaVuSans-20" transform="translate(852.148438 0.015625)"/>
     <use xlink:href="#DejaVuSans-6b" transform="translate(883.935547 0.015625)"/>
    </g>
    <!-- $f_{res}$: 6.106630$\pm$1.7e-05 GHz -->
    <g transform="translate(412.824438 96.257475) scale(0.1 -0.1)">
     <defs>
      <path id="DejaVuSans-Oblique-66" d="M 3059 4863 
L 2969 4384 
L 2419 4384 
Q 2106 4384 1964 4261 
Q 1822 4138 1753 3809 
L 1691 3500 
L 2638 3500 
L 2553 3053 
L 1606 3053 
L 1013 0 
L 434 0 
L 1031 3053 
L 481 3053 
L 563 3500 
L 1113 3500 
L 1159 3744 
Q 1278 4363 1576 4613 
Q 1875 4863 2516 4863 
L 3059 4863 
z
" transform="scale(0.015625)"/>
      <path id="DejaVuSans-Oblique-72" d="M 2853 2969 
Q 2766 3016 2653 3041 
Q 2541 3066 2413 3066 
Q 1953 3066 1609 2717 
Q 1266 2369 1153 1784 
L 800 0 
L 225 0 
L 909 3500 
L 1484 3500 
L 1375 2956 
Q 1603 3259 1920 3421 
Q 2238 3584 2597 3584 
Q 2691 3584 2781 3573 
Q 2872 3563 2963 3538 
L 2853 2969 
z
" transform="scale(0.015625)"/>
      <path id="DejaVuSans-Oblique-65" d="M 3078 2063 
Q 3088 2113 3092 2166 
Q 3097 2219 3097 2272 
Q 3097 2653 2873 2875 
Q 2650 3097 2266 3097 
Q 1838 3097 1509 2826 
Q 1181 2556 1013 2059 
L 3078 2063 
z
M 3578 1613 
L 903 1613 
Q 884 1494 878 1425 
Q 872 1356 872 1306 
Q 872 872 1139 634 
Q 1406 397 1894 397 
Q 2269 397 2603 481 
Q 2938 566 3225 728 
L 3116 159 
Q 2806 34 2476 -28 
Q 2147 -91 1806 -91 
Q 1078 -91 686 257 
Q 294 606 294 1247 
Q 294 1794 489 2264 
Q 684 2734 1063 3103 
Q 1306 3334 1642 3459 
Q 1978 3584 2356 3584 
Q 2950 3584 3301 3228 
Q 3653 2872 3653 2272 
Q 3653 2128 3634 1964 
Q 3616 1800 3578 1613 
z
" transform="scale(0.015625)"/>
      <path id="DejaVuSans-Oblique-73" d="M 3200 3397 
L 3091 2853 
Q 2863 2978 2609 3040 
Q 2356 3103 2088 3103 
Q 1634 3103 1373 2948 
Q 1113 2794 1113 2528 
Q 1113 2219 1719 2053 
Q 1766 2041 1788 2034 
L 1972 1978 
Q 2547 1819 2739 1644 
Q 2931 1469 2931 1166 
Q 2931 609 2489 259 
Q 2047 -91 1331 -91 
Q 1053 -91 747 -37 
Q 441 16 72 128 
L 184 722 
Q 500 559 806 475 
Q 1113 391 1394 391 
Q 1816 391 2080 572 
Q 2344 753 2344 1031 
Q 2344 1331 1650 1516 
L 1591 1531 
L 1394 1581 
Q 956 1697 753 1886 
Q 550 2075 550 2369 
Q 550 2928 970 3256 
Q 1391 3584 2113 3584 
Q 2397 3584 2667 3537 
Q 2938 3491 3200 3397 
z
" transform="scale(0.015625)"/>
      <path id="DejaVuSans-47" d="M 3809 666 
L 3809 1919 
L 2778 1919 
L 2778 2438 
L 4434 2438 
L 4434 434 
Q 4069 175 3628 42 
Q 3188 -91 2688 -91 
Q 1594 -91 976 548 
Q 359 1188 359 2328 
Q 359 3472 976 4111 
Q 1594 4750 2688 4750 
Q 3144 4750 3555 4637 
Q 3966 4525 4313 4306 
L 4313 3634 
Q 3963 3931 3569 4081 
Q 3175 4231 2741 4231 
Q 1884 4231 1454 3753 
Q 1025 3275 1025 2328 
Q 1025 1384 1454 906 
Q 1884 428 2741 428 
Q 3075 428 3337 486 
Q 3600 544 3809 666 
z
" transform="scale(0.015625)"/>
      <path id="DejaVuSans-48" d="M 628 4666 
L 1259 4666 
L 1259 2753 
L 3553 2753 
L 3553 4666 
L 4184 4666 
L 4184 0 
L 3553 0 
L 3553 2222 
L 1259 2222 
L 1259 0 
L 628 0 
L 628 4666 
z
" transform="scale(0.015625)"/>
      <path id="DejaVuSans-7a" d="M 353 3500 
L 3084 3500 
L 3084 2975 
L 922 459 
L 3084 459 
L 3084 0 
L 275 0 
L 275 525 
L 2438 3041 
L 353 3041 
L 353 3500 
z
" transform="scale(0.015625)"/>
     </defs>
     <use xlink:href="#DejaVuSans-Oblique-66" transform="translate(0 0.015625)"/>
     <use xlink:href="#DejaVuSans-Oblique-72" transform="translate(35.205078 -16.390625) scale(0.7)"/>
     <use xlink:href="#DejaVuSans-Oblique-65" transform="translate(63.984375 -16.390625) scale(0.7)"/>
     <use xlink:href="#DejaVuSans-Oblique-73" transform="translate(107.050781 -16.390625) scale(0.7)"/>
     <use xlink:href="#DejaVuSans-3a" transform="translate(146.254883 0.015625)"/>
     <use xlink:href="#DejaVuSans-20" transform="translate(179.946289 0.015625)"/>
     <use xlink:href="#DejaVuSans-36" transform="translate(211.733398 0.015625)"/>
     <use xlink:href="#DejaVuSans-2e" transform="translate(275.356445 0.015625)"/>
     <use xlink:href="#DejaVuSans-31" transform="translate(307.143555 0.015625)"/>
     <use xlink:href="#DejaVuSans-30" transform="translate(370.766602 0.015625)"/>
     <use xlink:href="#DejaVuSans-36" transform="translate(434.389648 0.015625)"/>
     <use xlink:href="#DejaVuSans-36" transform="translate(498.012695 0.015625)"/>
     <use xlink:href="#DejaVuSans-33" transform="translate(561.635742 0.015625)"/>
     <use xlink:href="#DejaVuSans-30" transform="translate(625.258789 0.015625)"/>
     <use xlink:href="#DejaVuSans-b1" transform="translate(688.881836 0.015625)"/>
     <use xlink:href="#DejaVuSans-31" transform="translate(772.670898 0.015625)"/>
     <use xlink:href="#DejaVuSans-2e" transform="translate(836.293945 0.015625)"/>
     <use xlink:href="#DejaVuSans-37" transform="translate(860.331055 0.015625)"/>
     <use xlink:href="#DejaVuSans-65" transform="translate(923.954102 0.015625)"/>
     <use xlink:href="#DejaVuSans-2d" transform="translate(985.477539 0.015625)"/>
     <use xlink:href="#DejaVuSans-30" transform="translate(1021.561523 0.015625)"/>
     <use xlink:href="#DejaVuSans-35" transform="translate(1085.18457 0.015625)"/>
     <use xlink:href="#DejaVuSans-20" transform="translate(1148.807617 0.015625)"/>
     <use xlink:href="#DejaVuSans-47" transform="translate(1180.594727 0.015625)"/>
     <use xlink:href="#DejaVuSans-48" transform="translate(1258.084961 0.015625)"/>
     <use xlink:href="#DejaVuSans-7a" transform="translate(1333.280273 0.015625)"/>
    </g>
   </g>
  </g>
  <g id="text_18">
   <!-- S21 resonator spectroscopy -->
   <g transform="translate(126.864063 16.318125) scale(0.12 -0.12)">
    <defs>
     <path id="DejaVuSans-73" d="M 2834 3397 
L 2834 2853 
Q 2591 2978 2328 3040 
Q 2066 3103 1784 3103 
Q 1356 3103 1142 2972 
Q 928 2841 928 2578 
Q 928 2378 1081 2264 
Q 1234 2150 1697 2047 
L 1894 2003 
Q 2506 1872 2764 1633 
Q 3022 1394 3022 966 
Q 3022 478 2636 193 
Q 2250 -91 1575 -91 
Q 1294 -91 989 -36 
Q 684 19 347 128 
L 347 722 
Q 666 556 975 473 
Q 1284 391 1588 391 
Q 1994 391 2212 530 
Q 2431 669 2431 922 
Q 2431 1156 2273 1281 
Q 2116 1406 1581 1522 
L 1381 1569 
Q 847 1681 609 1914 
Q 372 2147 372 2553 
Q 372 3047 722 3315 
Q 1072 3584 1716 3584 
Q 2034 3584 2315 3537 
Q 2597 3491 2834 3397 
z
" transform="scale(0.015625)"/>
     <path id="DejaVuSans-6f" d="M 1959 3097 
Q 1497 3097 1228 2736 
Q 959 2375 959 1747 
Q 959 1119 1226 758 
Q 1494 397 1959 397 
Q 2419 397 2687 759 
Q 2956 1122 2956 1747 
Q 2956 2369 2687 2733 
Q 2419 3097 1959 3097 
z
M 1959 3584 
Q 2709 3584 3137 3096 
Q 3566 2609 3566 1747 
Q 3566 888 3137 398 
Q 2709 -91 1959 -91 
Q 1206 -91 779 398 
Q 353 888 353 1747 
Q 353 2609 779 3096 
Q 1206 3584 1959 3584 
z
" transform="scale(0.015625)"/>
     <path id="DejaVuSans-6e" d="M 3513 2113 
L 3513 0 
L 2938 0 
L 2938 2094 
Q 2938 2591 2744 2837 
Q 2550 3084 2163 3084 
Q 1697 3084 1428 2787 
Q 1159 2491 1159 1978 
L 1159 0 
L 581 0 
L 581 3500 
L 1159 3500 
L 1159 2956 
Q 1366 3272 1645 3428 
Q 1925 3584 2291 3584 
Q 2894 3584 3203 3211 
Q 3513 2838 3513 2113 
z
" transform="scale(0.015625)"/>
     <path id="DejaVuSans-74" d="M 1172 4494 
L 1172 3500 
L 2356 3500 
L 2356 3053 
L 1172 3053 
L 1172 1153 
Q 1172 725 1289 603 
Q 1406 481 1766 481 
L 2356 481 
L 2356 0 
L 1766 0 
Q 1100 0 847 248 
Q 594 497 594 1153 
L 594 3053 
L 172 3053 
L 172 3500 
L 594 3500 
L 594 4494 
L 1172 4494 
z
" transform="scale(0.015625)"/>
     <path id="DejaVuSans-70" d="M 1159 525 
L 1159 -1331 
L 581 -1331 
L 581 3500 
L 1159 3500 
L 1159 2969 
Q 1341 3281 1617 3432 
Q 1894 3584 2278 3584 
Q 2916 3584 3314 3078 
Q 3713 2572 3713 1747 
Q 3713 922 3314 415 
Q 2916 -91 2278 -91 
Q 1894 -91 1617 61 
Q 1341 213 1159 525 
z
M 3116 1747 
Q 3116 2381 2855 2742 
Q 2594 3103 2138 3103 
Q 1681 3103 1420 2742 
Q 1159 2381 1159 1747 
Q 1159 1113 1420 752 
Q 1681 391 2138 391 
Q 2594 391 2855 752 
Q 3116 1113 3116 1747 
z
" transform="scale(0.015625)"/>
     <path id="DejaVuSans-63" d="M 3122 3366 
L 3122 2828 
Q 2878 2963 2633 3030 
Q 2388 3097 2138 3097 
Q 1578 3097 1268 2742 
Q 959 2388 959 1747 
Q 959 1106 1268 751 
Q 1578 397 2138 397 
Q 2388 397 2633 464 
Q 2878 531 3122 666 
L 3122 134 
Q 2881 22 2623 -34 
Q 2366 -91 2075 -91 
Q 1284 -91 818 406 
Q 353 903 353 1747 
Q 353 2603 823 3093 
Q 1294 3584 2113 3584 
Q 2378 3584 2631 3529 
Q 2884 3475 3122 3366 
z
" transform="scale(0.015625)"/>
    </defs>
    <use xlink:href="#DejaVuSans-53"/>
    <use xlink:href="#DejaVuSans-32" x="63.476562"/>
    <use xlink:href="#DejaVuSans-31" x="127.099609"/>
    <use xlink:href="#DejaVuSans-20" x="190.722656"/>
    <use xlink:href="#DejaVuSans-72" x="222.509766"/>
    <use xlink:href="#DejaVuSans-65" x="261.373047"/>
    <use xlink:href="#DejaVuSans-73" x="322.896484"/>
    <use xlink:href="#DejaVuSans-6f" x="374.996094"/>
    <use xlink:href="#DejaVuSans-6e" x="436.177734"/>
    <use xlink:href="#DejaVuSans-61" x="499.556641"/>
    <use xlink:href="#DejaVuSans-74" x="560.835938"/>
    <use xlink:href="#DejaVuSans-6f" x="600.044922"/>
    <use xlink:href="#DejaVuSans-72" x="661.226562"/>
    <use xlink:href="#DejaVuSans-20" x="702.339844"/>
    <use xlink:href="#DejaVuSans-73" x="734.126953"/>
    <use xlink:href="#DejaVuSans-70" x="786.226562"/>
    <use xlink:href="#DejaVuSans-65" x="849.703125"/>
    <use xlink:href="#DejaVuSans-63" x="911.226562"/>
    <use xlink:href="#DejaVuSans-74" x="966.207031"/>
    <use xlink:href="#DejaVuSans-72" x="1005.416016"/>
    <use xlink:href="#DejaVuSans-6f" x="1044.279297"/>
    <use xlink:href="#DejaVuSans-73" x="1105.460938"/>
    <use xlink:href="#DejaVuSans-63" x="1157.560547"/>
    <use xlink:href="#DejaVuSans-6f" x="1212.541016"/>
    <use xlink:href="#DejaVuSans-70" x="1273.722656"/>
    <use xlink:href="#DejaVuSans-79" x="1337.199219"/>
   </g>
   <!-- tuid: 20231227-160753-950-4852cf -->
   <g transform="translate(103.016875 29.7555) scale(0.12 -0.12)">
    <defs>
     <path id="DejaVuSans-69" d="M 603 3500 
L 1178 3500 
L 1178 0 
L 603 0 
L 603 3500 
z
M 603 4863 
L 1178 4863 
L 1178 4134 
L 603 4134 
L 603 4863 
z
" transform="scale(0.015625)"/>
     <path id="DejaVuSans-64" d="M 2906 2969 
L 2906 4863 
L 3481 4863 
L 3481 0 
L 2906 0 
L 2906 525 
Q 2725 213 2448 61 
Q 2172 -91 1784 -91 
Q 1150 -91 751 415 
Q 353 922 353 1747 
Q 353 2572 751 3078 
Q 1150 3584 1784 3584 
Q 2172 3584 2448 3432 
Q 2725 3281 2906 2969 
z
M 947 1747 
Q 947 1113 1208 752 
Q 1469 391 1925 391 
Q 2381 391 2643 752 
Q 2906 1113 2906 1747 
Q 2906 2381 2643 2742 
Q 2381 3103 1925 3103 
Q 1469 3103 1208 2742 
Q 947 2381 947 1747 
z
" transform="scale(0.015625)"/>
     <path id="DejaVuSans-66" d="M 2375 4863 
L 2375 4384 
L 1825 4384 
Q 1516 4384 1395 4259 
Q 1275 4134 1275 3809 
L 1275 3500 
L 2222 3500 
L 2222 3053 
L 1275 3053 
L 1275 0 
L 697 0 
L 697 3053 
L 147 3053 
L 147 3500 
L 697 3500 
L 697 3744 
Q 697 4328 969 4595 
Q 1241 4863 1831 4863 
L 2375 4863 
z
" transform="scale(0.015625)"/>
    </defs>
    <use xlink:href="#DejaVuSans-74"/>
    <use xlink:href="#DejaVuSans-75" x="39.208984"/>
    <use xlink:href="#DejaVuSans-69" x="102.587891"/>
    <use xlink:href="#DejaVuSans-64" x="130.371094"/>
    <use xlink:href="#DejaVuSans-3a" x="193.847656"/>
    <use xlink:href="#DejaVuSans-20" x="227.539062"/>
    <use xlink:href="#DejaVuSans-32" x="259.326172"/>
    <use xlink:href="#DejaVuSans-30" x="322.949219"/>
    <use xlink:href="#DejaVuSans-32" x="386.572266"/>
    <use xlink:href="#DejaVuSans-33" x="450.195312"/>
    <use xlink:href="#DejaVuSans-31" x="513.818359"/>
    <use xlink:href="#DejaVuSans-32" x="577.441406"/>
    <use xlink:href="#DejaVuSans-32" x="641.064453"/>
    <use xlink:href="#DejaVuSans-37" x="704.6875"/>
    <use xlink:href="#DejaVuSans-2d" x="768.310547"/>
    <use xlink:href="#DejaVuSans-31" x="804.394531"/>
    <use xlink:href="#DejaVuSans-36" x="868.017578"/>
    <use xlink:href="#DejaVuSans-30" x="931.640625"/>
    <use xlink:href="#DejaVuSans-37" x="995.263672"/>
    <use xlink:href="#DejaVuSans-35" x="1058.886719"/>
    <use xlink:href="#DejaVuSans-33" x="1122.509766"/>
    <use xlink:href="#DejaVuSans-2d" x="1186.132812"/>
    <use xlink:href="#DejaVuSans-39" x="1222.216797"/>
    <use xlink:href="#DejaVuSans-35" x="1285.839844"/>
    <use xlink:href="#DejaVuSans-30" x="1349.462891"/>
    <use xlink:href="#DejaVuSans-2d" x="1413.085938"/>
    <use xlink:href="#DejaVuSans-34" x="1449.169922"/>
    <use xlink:href="#DejaVuSans-38" x="1512.792969"/>
    <use xlink:href="#DejaVuSans-35" x="1576.416016"/>
    <use xlink:href="#DejaVuSans-32" x="1640.039062"/>
    <use xlink:href="#DejaVuSans-63" x="1703.662109"/>
    <use xlink:href="#DejaVuSans-66" x="1758.642578"/>
   </g>
  </g>
 </g>
 <defs>
  <clipPath id="p86cd59f5a9">
   <rect x="37.848438" y="41.76" width="357.12" height="266.112"/>
  </clipPath>
 </defs>
</svg>
