<?xml version="1.0" encoding="utf-8" standalone="no"?>
<!DOCTYPE svg PUBLIC "-//W3C//DTD SVG 1.1//EN"
  "http://www.w3.org/Graphics/SVG/1.1/DTD/svg11.dtd">
<svg xmlns:xlink="http://www.w3.org/1999/xlink" width="656.996313pt" height="345.42825pt" viewBox="0 0 656.996313 345.42825" xmlns="http://www.w3.org/2000/svg" version="1.1">
 <metadata>
  <rdf:RDF xmlns:dc="http://purl.org/dc/elements/1.1/" xmlns:cc="http://creativecommons.org/ns#" xmlns:rdf="http://www.w3.org/1999/02/22-rdf-syntax-ns#">
   <cc:Work>
    <dc:type rdf:resource="http://purl.org/dc/dcmitype/StillImage"/>
    <dc:date>2023-12-27T19:45:49.122608</dc:date>
    <dc:format>image/svg+xml</dc:format>
    <dc:creator>
     <cc:Agent>
      <dc:title>Matplotlib v3.8.2, https://matplotlib.org/</dc:title>
     </cc:Agent>
    </dc:creator>
   </cc:Work>
  </rdf:RDF>
 </metadata>
 <defs>
  <style type="text/css">*{stroke-linejoin: round; stroke-linecap: butt}</style>
 </defs>
 <g id="figure_1">
  <g id="patch_1">
   <path d="M 0 345.42825 
L 656.996313 345.42825 
L 656.996313 -0 
L 0 -0 
L 0 345.42825 
z
" style="fill: none; opacity: 0"/>
  </g>
  <g id="axes_1">
   <g id="patch_2">
    <path d="M 50.573438 307.872 
L 407.693438 307.872 
L 407.693438 41.76 
L 50.573438 41.76 
z
" style="fill: #ffffff"/>
   </g>
   <g id="matplotlib.axis_1">
    <g id="xtick_1">
     <g id="line2d_1">
      <defs>
       <path id="m6bcbf3afc7" d="M 0 0 
L 0 3.5 
" style="stroke: #000000; stroke-width: 0.8"/>
      </defs>
      <g>
       <use xlink:href="#m6bcbf3afc7" x="86.642935" y="307.872" style="stroke: #000000; stroke-width: 0.8"/>
      </g>
     </g>
     <g id="text_1">
      <!-- 718 -->
      <g transform="translate(77.099185 322.470438) scale(0.1 -0.1)">
       <defs>
        <path id="DejaVuSans-37" d="M 525 4666 
L 3525 4666 
L 3525 4397 
L 1831 0 
L 1172 0 
L 2766 4134 
L 525 4134 
L 525 4666 
z
" transform="scale(0.015625)"/>
        <path id="DejaVuSans-31" d="M 794 531 
L 1825 531 
L 1825 4091 
L 703 3866 
L 703 4441 
L 1819 4666 
L 2450 4666 
L 2450 531 
L 3481 531 
L 3481 0 
L 794 0 
L 794 531 
z
" transform="scale(0.015625)"/>
        <path id="DejaVuSans-38" d="M 2034 2216 
Q 1584 2216 1326 1975 
Q 1069 1734 1069 1313 
Q 1069 891 1326 650 
Q 1584 409 2034 409 
Q 2484 409 2743 651 
Q 3003 894 3003 1313 
Q 3003 1734 2745 1975 
Q 2488 2216 2034 2216 
z
M 1403 2484 
Q 997 2584 770 2862 
Q 544 3141 544 3541 
Q 544 4100 942 4425 
Q 1341 4750 2034 4750 
Q 2731 4750 3128 4425 
Q 3525 4100 3525 3541 
Q 3525 3141 3298 2862 
Q 3072 2584 2669 2484 
Q 3125 2378 3379 2068 
Q 3634 1759 3634 1313 
Q 3634 634 3220 271 
Q 2806 -91 2034 -91 
Q 1263 -91 848 271 
Q 434 634 434 1313 
Q 434 1759 690 2068 
Q 947 2378 1403 2484 
z
M 1172 3481 
Q 1172 3119 1398 2916 
Q 1625 2713 2034 2713 
Q 2441 2713 2670 2916 
Q 2900 3119 2900 3481 
Q 2900 3844 2670 4047 
Q 2441 4250 2034 4250 
Q 1625 4250 1398 4047 
Q 1172 3844 1172 3481 
z
" transform="scale(0.015625)"/>
       </defs>
       <use xlink:href="#DejaVuSans-37"/>
       <use xlink:href="#DejaVuSans-31" x="63.623047"/>
       <use xlink:href="#DejaVuSans-38" x="127.246094"/>
      </g>
     </g>
    </g>
    <g id="xtick_2">
     <g id="line2d_2">
      <g>
       <use xlink:href="#m6bcbf3afc7" x="127.224753" y="307.872" style="stroke: #000000; stroke-width: 0.8"/>
      </g>
     </g>
     <g id="text_2">
      <!-- 718.5 -->
      <g transform="translate(112.91069 322.470438) scale(0.1 -0.1)">
       <defs>
        <path id="DejaVuSans-2e" d="M 684 794 
L 1344 794 
L 1344 0 
L 684 0 
L 684 794 
z
" transform="scale(0.015625)"/>
        <path id="DejaVuSans-35" d="M 691 4666 
L 3169 4666 
L 3169 4134 
L 1269 4134 
L 1269 2991 
Q 1406 3038 1543 3061 
Q 1681 3084 1819 3084 
Q 2600 3084 3056 2656 
Q 3513 2228 3513 1497 
Q 3513 744 3044 326 
Q 2575 -91 1722 -91 
Q 1428 -91 1123 -41 
Q 819 9 494 109 
L 494 744 
Q 775 591 1075 516 
Q 1375 441 1709 441 
Q 2250 441 2565 725 
Q 2881 1009 2881 1497 
Q 2881 1984 2565 2268 
Q 2250 2553 1709 2553 
Q 1456 2553 1204 2497 
Q 953 2441 691 2322 
L 691 4666 
z
" transform="scale(0.015625)"/>
       </defs>
       <use xlink:href="#DejaVuSans-37"/>
       <use xlink:href="#DejaVuSans-31" x="63.623047"/>
       <use xlink:href="#DejaVuSans-38" x="127.246094"/>
       <use xlink:href="#DejaVuSans-2e" x="190.869141"/>
       <use xlink:href="#DejaVuSans-35" x="222.65625"/>
      </g>
     </g>
    </g>
    <g id="xtick_3">
     <g id="line2d_3">
      <g>
       <use xlink:href="#m6bcbf3afc7" x="167.806571" y="307.872" style="stroke: #000000; stroke-width: 0.8"/>
      </g>
     </g>
     <g id="text_3">
      <!-- 719 -->
      <g transform="translate(158.262821 322.470438) scale(0.1 -0.1)">
       <defs>
        <path id="DejaVuSans-39" d="M 703 97 
L 703 672 
Q 941 559 1184 500 
Q 1428 441 1663 441 
Q 2288 441 2617 861 
Q 2947 1281 2994 2138 
Q 2813 1869 2534 1725 
Q 2256 1581 1919 1581 
Q 1219 1581 811 2004 
Q 403 2428 403 3163 
Q 403 3881 828 4315 
Q 1253 4750 1959 4750 
Q 2769 4750 3195 4129 
Q 3622 3509 3622 2328 
Q 3622 1225 3098 567 
Q 2575 -91 1691 -91 
Q 1453 -91 1209 -44 
Q 966 3 703 97 
z
M 1959 2075 
Q 2384 2075 2632 2365 
Q 2881 2656 2881 3163 
Q 2881 3666 2632 3958 
Q 2384 4250 1959 4250 
Q 1534 4250 1286 3958 
Q 1038 3666 1038 3163 
Q 1038 2656 1286 2365 
Q 1534 2075 1959 2075 
z
" transform="scale(0.015625)"/>
       </defs>
       <use xlink:href="#DejaVuSans-37"/>
       <use xlink:href="#DejaVuSans-31" x="63.623047"/>
       <use xlink:href="#DejaVuSans-39" x="127.246094"/>
      </g>
     </g>
    </g>
    <g id="xtick_4">
     <g id="line2d_4">
      <g>
       <use xlink:href="#m6bcbf3afc7" x="208.388389" y="307.872" style="stroke: #000000; stroke-width: 0.8"/>
      </g>
     </g>
     <g id="text_4">
      <!-- 719.5 -->
      <g transform="translate(194.074327 322.470438) scale(0.1 -0.1)">
       <use xlink:href="#DejaVuSans-37"/>
       <use xlink:href="#DejaVuSans-31" x="63.623047"/>
       <use xlink:href="#DejaVuSans-39" x="127.246094"/>
       <use xlink:href="#DejaVuSans-2e" x="190.869141"/>
       <use xlink:href="#DejaVuSans-35" x="222.65625"/>
      </g>
     </g>
    </g>
    <g id="xtick_5">
     <g id="line2d_5">
      <g>
       <use xlink:href="#m6bcbf3afc7" x="248.970207" y="307.872" style="stroke: #000000; stroke-width: 0.8"/>
      </g>
     </g>
     <g id="text_5">
      <!-- 720 -->
      <g transform="translate(239.426457 322.470438) scale(0.1 -0.1)">
       <defs>
        <path id="DejaVuSans-32" d="M 1228 531 
L 3431 531 
L 3431 0 
L 469 0 
L 469 531 
Q 828 903 1448 1529 
Q 2069 2156 2228 2338 
Q 2531 2678 2651 2914 
Q 2772 3150 2772 3378 
Q 2772 3750 2511 3984 
Q 2250 4219 1831 4219 
Q 1534 4219 1204 4116 
Q 875 4013 500 3803 
L 500 4441 
Q 881 4594 1212 4672 
Q 1544 4750 1819 4750 
Q 2544 4750 2975 4387 
Q 3406 4025 3406 3419 
Q 3406 3131 3298 2873 
Q 3191 2616 2906 2266 
Q 2828 2175 2409 1742 
Q 1991 1309 1228 531 
z
" transform="scale(0.015625)"/>
        <path id="DejaVuSans-30" d="M 2034 4250 
Q 1547 4250 1301 3770 
Q 1056 3291 1056 2328 
Q 1056 1369 1301 889 
Q 1547 409 2034 409 
Q 2525 409 2770 889 
Q 3016 1369 3016 2328 
Q 3016 3291 2770 3770 
Q 2525 4250 2034 4250 
z
M 2034 4750 
Q 2819 4750 3233 4129 
Q 3647 3509 3647 2328 
Q 3647 1150 3233 529 
Q 2819 -91 2034 -91 
Q 1250 -91 836 529 
Q 422 1150 422 2328 
Q 422 3509 836 4129 
Q 1250 4750 2034 4750 
z
" transform="scale(0.015625)"/>
       </defs>
       <use xlink:href="#DejaVuSans-37"/>
       <use xlink:href="#DejaVuSans-32" x="63.623047"/>
       <use xlink:href="#DejaVuSans-30" x="127.246094"/>
      </g>
     </g>
    </g>
    <g id="xtick_6">
     <g id="line2d_6">
      <g>
       <use xlink:href="#m6bcbf3afc7" x="289.552025" y="307.872" style="stroke: #000000; stroke-width: 0.8"/>
      </g>
     </g>
     <g id="text_6">
      <!-- 720.5 -->
      <g transform="translate(275.237963 322.470438) scale(0.1 -0.1)">
       <use xlink:href="#DejaVuSans-37"/>
       <use xlink:href="#DejaVuSans-32" x="63.623047"/>
       <use xlink:href="#DejaVuSans-30" x="127.246094"/>
       <use xlink:href="#DejaVuSans-2e" x="190.869141"/>
       <use xlink:href="#DejaVuSans-35" x="222.65625"/>
      </g>
     </g>
    </g>
    <g id="xtick_7">
     <g id="line2d_7">
      <g>
       <use xlink:href="#m6bcbf3afc7" x="330.133844" y="307.872" style="stroke: #000000; stroke-width: 0.8"/>
      </g>
     </g>
     <g id="text_7">
      <!-- 721 -->
      <g transform="translate(320.590094 322.470438) scale(0.1 -0.1)">
       <use xlink:href="#DejaVuSans-37"/>
       <use xlink:href="#DejaVuSans-32" x="63.623047"/>
       <use xlink:href="#DejaVuSans-31" x="127.246094"/>
      </g>
     </g>
    </g>
    <g id="xtick_8">
     <g id="line2d_8">
      <g>
       <use xlink:href="#m6bcbf3afc7" x="370.715662" y="307.872" style="stroke: #000000; stroke-width: 0.8"/>
      </g>
     </g>
     <g id="text_8">
      <!-- 721.5 -->
      <g transform="translate(356.401599 322.470438) scale(0.1 -0.1)">
       <use xlink:href="#DejaVuSans-37"/>
       <use xlink:href="#DejaVuSans-32" x="63.623047"/>
       <use xlink:href="#DejaVuSans-31" x="127.246094"/>
       <use xlink:href="#DejaVuSans-2e" x="190.869141"/>
       <use xlink:href="#DejaVuSans-35" x="222.65625"/>
      </g>
     </g>
    </g>
    <g id="text_9">
     <!-- Frequency [MHz] -->
     <g transform="translate(187.114688 336.148562) scale(0.1 -0.1)">
      <defs>
       <path id="DejaVuSans-46" d="M 628 4666 
L 3309 4666 
L 3309 4134 
L 1259 4134 
L 1259 2759 
L 3109 2759 
L 3109 2228 
L 1259 2228 
L 1259 0 
L 628 0 
L 628 4666 
z
" transform="scale(0.015625)"/>
       <path id="DejaVuSans-72" d="M 2631 2963 
Q 2534 3019 2420 3045 
Q 2306 3072 2169 3072 
Q 1681 3072 1420 2755 
Q 1159 2438 1159 1844 
L 1159 0 
L 581 0 
L 581 3500 
L 1159 3500 
L 1159 2956 
Q 1341 3275 1631 3429 
Q 1922 3584 2338 3584 
Q 2397 3584 2469 3576 
Q 2541 3569 2628 3553 
L 2631 2963 
z
" transform="scale(0.015625)"/>
       <path id="DejaVuSans-65" d="M 3597 1894 
L 3597 1613 
L 953 1613 
Q 991 1019 1311 708 
Q 1631 397 2203 397 
Q 2534 397 2845 478 
Q 3156 559 3463 722 
L 3463 178 
Q 3153 47 2828 -22 
Q 2503 -91 2169 -91 
Q 1331 -91 842 396 
Q 353 884 353 1716 
Q 353 2575 817 3079 
Q 1281 3584 2069 3584 
Q 2775 3584 3186 3129 
Q 3597 2675 3597 1894 
z
M 3022 2063 
Q 3016 2534 2758 2815 
Q 2500 3097 2075 3097 
Q 1594 3097 1305 2825 
Q 1016 2553 972 2059 
L 3022 2063 
z
" transform="scale(0.015625)"/>
       <path id="DejaVuSans-71" d="M 947 1747 
Q 947 1113 1208 752 
Q 1469 391 1925 391 
Q 2381 391 2643 752 
Q 2906 1113 2906 1747 
Q 2906 2381 2643 2742 
Q 2381 3103 1925 3103 
Q 1469 3103 1208 2742 
Q 947 2381 947 1747 
z
M 2906 525 
Q 2725 213 2448 61 
Q 2172 -91 1784 -91 
Q 1150 -91 751 415 
Q 353 922 353 1747 
Q 353 2572 751 3078 
Q 1150 3584 1784 3584 
Q 2172 3584 2448 3432 
Q 2725 3281 2906 2969 
L 2906 3500 
L 3481 3500 
L 3481 -1331 
L 2906 -1331 
L 2906 525 
z
" transform="scale(0.015625)"/>
       <path id="DejaVuSans-75" d="M 544 1381 
L 544 3500 
L 1119 3500 
L 1119 1403 
Q 1119 906 1312 657 
Q 1506 409 1894 409 
Q 2359 409 2629 706 
Q 2900 1003 2900 1516 
L 2900 3500 
L 3475 3500 
L 3475 0 
L 2900 0 
L 2900 538 
Q 2691 219 2414 64 
Q 2138 -91 1772 -91 
Q 1169 -91 856 284 
Q 544 659 544 1381 
z
M 1991 3584 
L 1991 3584 
z
" transform="scale(0.015625)"/>
       <path id="DejaVuSans-6e" d="M 3513 2113 
L 3513 0 
L 2938 0 
L 2938 2094 
Q 2938 2591 2744 2837 
Q 2550 3084 2163 3084 
Q 1697 3084 1428 2787 
Q 1159 2491 1159 1978 
L 1159 0 
L 581 0 
L 581 3500 
L 1159 3500 
L 1159 2956 
Q 1366 3272 1645 3428 
Q 1925 3584 2291 3584 
Q 2894 3584 3203 3211 
Q 3513 2838 3513 2113 
z
" transform="scale(0.015625)"/>
       <path id="DejaVuSans-63" d="M 3122 3366 
L 3122 2828 
Q 2878 2963 2633 3030 
Q 2388 3097 2138 3097 
Q 1578 3097 1268 2742 
Q 959 2388 959 1747 
Q 959 1106 1268 751 
Q 1578 397 2138 397 
Q 2388 397 2633 464 
Q 2878 531 3122 666 
L 3122 134 
Q 2881 22 2623 -34 
Q 2366 -91 2075 -91 
Q 1284 -91 818 406 
Q 353 903 353 1747 
Q 353 2603 823 3093 
Q 1294 3584 2113 3584 
Q 2378 3584 2631 3529 
Q 2884 3475 3122 3366 
z
" transform="scale(0.015625)"/>
       <path id="DejaVuSans-79" d="M 2059 -325 
Q 1816 -950 1584 -1140 
Q 1353 -1331 966 -1331 
L 506 -1331 
L 506 -850 
L 844 -850 
Q 1081 -850 1212 -737 
Q 1344 -625 1503 -206 
L 1606 56 
L 191 3500 
L 800 3500 
L 1894 763 
L 2988 3500 
L 3597 3500 
L 2059 -325 
z
" transform="scale(0.015625)"/>
       <path id="DejaVuSans-20" transform="scale(0.015625)"/>
       <path id="DejaVuSans-5b" d="M 550 4863 
L 1875 4863 
L 1875 4416 
L 1125 4416 
L 1125 -397 
L 1875 -397 
L 1875 -844 
L 550 -844 
L 550 4863 
z
" transform="scale(0.015625)"/>
       <path id="DejaVuSans-4d" d="M 628 4666 
L 1569 4666 
L 2759 1491 
L 3956 4666 
L 4897 4666 
L 4897 0 
L 4281 0 
L 4281 4097 
L 3078 897 
L 2444 897 
L 1241 4097 
L 1241 0 
L 628 0 
L 628 4666 
z
" transform="scale(0.015625)"/>
       <path id="DejaVuSans-48" d="M 628 4666 
L 1259 4666 
L 1259 2753 
L 3553 2753 
L 3553 4666 
L 4184 4666 
L 4184 0 
L 3553 0 
L 3553 2222 
L 1259 2222 
L 1259 0 
L 628 0 
L 628 4666 
z
" transform="scale(0.015625)"/>
       <path id="DejaVuSans-7a" d="M 353 3500 
L 3084 3500 
L 3084 2975 
L 922 459 
L 3084 459 
L 3084 0 
L 275 0 
L 275 525 
L 2438 3041 
L 353 3041 
L 353 3500 
z
" transform="scale(0.015625)"/>
       <path id="DejaVuSans-5d" d="M 1947 4863 
L 1947 -844 
L 622 -844 
L 622 -397 
L 1369 -397 
L 1369 4416 
L 622 4416 
L 622 4863 
L 1947 4863 
z
" transform="scale(0.015625)"/>
      </defs>
      <use xlink:href="#DejaVuSans-46"/>
      <use xlink:href="#DejaVuSans-72" x="50.269531"/>
      <use xlink:href="#DejaVuSans-65" x="89.132812"/>
      <use xlink:href="#DejaVuSans-71" x="150.65625"/>
      <use xlink:href="#DejaVuSans-75" x="214.132812"/>
      <use xlink:href="#DejaVuSans-65" x="277.511719"/>
      <use xlink:href="#DejaVuSans-6e" x="339.035156"/>
      <use xlink:href="#DejaVuSans-63" x="402.414062"/>
      <use xlink:href="#DejaVuSans-79" x="457.394531"/>
      <use xlink:href="#DejaVuSans-20" x="516.574219"/>
      <use xlink:href="#DejaVuSans-5b" x="548.361328"/>
      <use xlink:href="#DejaVuSans-4d" x="587.375"/>
      <use xlink:href="#DejaVuSans-48" x="673.654297"/>
      <use xlink:href="#DejaVuSans-7a" x="748.849609"/>
      <use xlink:href="#DejaVuSans-5d" x="801.339844"/>
     </g>
    </g>
    <g id="text_10">
     <!-- +5 GHz -->
     <g transform="translate(369.255938 335.148562) scale(0.1 -0.1)">
      <defs>
       <path id="DejaVuSans-2b" d="M 2944 4013 
L 2944 2272 
L 4684 2272 
L 4684 1741 
L 2944 1741 
L 2944 0 
L 2419 0 
L 2419 1741 
L 678 1741 
L 678 2272 
L 2419 2272 
L 2419 4013 
L 2944 4013 
z
" transform="scale(0.015625)"/>
       <path id="DejaVuSans-47" d="M 3809 666 
L 3809 1919 
L 2778 1919 
L 2778 2438 
L 4434 2438 
L 4434 434 
Q 4069 175 3628 42 
Q 3188 -91 2688 -91 
Q 1594 -91 976 548 
Q 359 1188 359 2328 
Q 359 3472 976 4111 
Q 1594 4750 2688 4750 
Q 3144 4750 3555 4637 
Q 3966 4525 4313 4306 
L 4313 3634 
Q 3963 3931 3569 4081 
Q 3175 4231 2741 4231 
Q 1884 4231 1454 3753 
Q 1025 3275 1025 2328 
Q 1025 1384 1454 906 
Q 1884 428 2741 428 
Q 3075 428 3337 486 
Q 3600 544 3809 666 
z
" transform="scale(0.015625)"/>
      </defs>
      <use xlink:href="#DejaVuSans-2b"/>
      <use xlink:href="#DejaVuSans-35" x="83.789062"/>
      <use xlink:href="#DejaVuSans-20" x="147.412109"/>
      <use xlink:href="#DejaVuSans-47" x="179.199219"/>
      <use xlink:href="#DejaVuSans-48" x="256.689453"/>
      <use xlink:href="#DejaVuSans-7a" x="331.884766"/>
     </g>
    </g>
   </g>
   <g id="matplotlib.axis_2">
    <g id="ytick_1">
     <g id="line2d_9">
      <defs>
       <path id="m01cf7e6fb8" d="M 0 0 
L -3.5 0 
" style="stroke: #000000; stroke-width: 0.8"/>
      </defs>
      <g>
       <use xlink:href="#m01cf7e6fb8" x="50.573438" y="292.027354" style="stroke: #000000; stroke-width: 0.8"/>
      </g>
     </g>
     <g id="text_11">
      <!-- -120 -->
      <g transform="translate(20.878125 295.826573) scale(0.1 -0.1)">
       <defs>
        <path id="DejaVuSans-2d" d="M 313 2009 
L 1997 2009 
L 1997 1497 
L 313 1497 
L 313 2009 
z
" transform="scale(0.015625)"/>
       </defs>
       <use xlink:href="#DejaVuSans-2d"/>
       <use xlink:href="#DejaVuSans-31" x="36.083984"/>
       <use xlink:href="#DejaVuSans-32" x="99.707031"/>
       <use xlink:href="#DejaVuSans-30" x="163.330078"/>
      </g>
     </g>
    </g>
    <g id="ytick_2">
     <g id="line2d_10">
      <g>
       <use xlink:href="#m01cf7e6fb8" x="50.573438" y="261.407436" style="stroke: #000000; stroke-width: 0.8"/>
      </g>
     </g>
     <g id="text_12">
      <!-- -110 -->
      <g transform="translate(20.878125 265.206655) scale(0.1 -0.1)">
       <use xlink:href="#DejaVuSans-2d"/>
       <use xlink:href="#DejaVuSans-31" x="36.083984"/>
       <use xlink:href="#DejaVuSans-31" x="99.707031"/>
       <use xlink:href="#DejaVuSans-30" x="163.330078"/>
      </g>
     </g>
    </g>
    <g id="ytick_3">
     <g id="line2d_11">
      <g>
       <use xlink:href="#m01cf7e6fb8" x="50.573438" y="230.787519" style="stroke: #000000; stroke-width: 0.8"/>
      </g>
     </g>
     <g id="text_13">
      <!-- -100 -->
      <g transform="translate(20.878125 234.586738) scale(0.1 -0.1)">
       <use xlink:href="#DejaVuSans-2d"/>
       <use xlink:href="#DejaVuSans-31" x="36.083984"/>
       <use xlink:href="#DejaVuSans-30" x="99.707031"/>
       <use xlink:href="#DejaVuSans-30" x="163.330078"/>
      </g>
     </g>
    </g>
    <g id="ytick_4">
     <g id="line2d_12">
      <g>
       <use xlink:href="#m01cf7e6fb8" x="50.573438" y="200.167602" style="stroke: #000000; stroke-width: 0.8"/>
      </g>
     </g>
     <g id="text_14">
      <!-- -90 -->
      <g transform="translate(27.240625 203.96682) scale(0.1 -0.1)">
       <use xlink:href="#DejaVuSans-2d"/>
       <use xlink:href="#DejaVuSans-39" x="36.083984"/>
       <use xlink:href="#DejaVuSans-30" x="99.707031"/>
      </g>
     </g>
    </g>
    <g id="ytick_5">
     <g id="line2d_13">
      <g>
       <use xlink:href="#m01cf7e6fb8" x="50.573438" y="169.547684" style="stroke: #000000; stroke-width: 0.8"/>
      </g>
     </g>
     <g id="text_15">
      <!-- -80 -->
      <g transform="translate(27.240625 173.346903) scale(0.1 -0.1)">
       <use xlink:href="#DejaVuSans-2d"/>
       <use xlink:href="#DejaVuSans-38" x="36.083984"/>
       <use xlink:href="#DejaVuSans-30" x="99.707031"/>
      </g>
     </g>
    </g>
    <g id="ytick_6">
     <g id="line2d_14">
      <g>
       <use xlink:href="#m01cf7e6fb8" x="50.573438" y="138.927767" style="stroke: #000000; stroke-width: 0.8"/>
      </g>
     </g>
     <g id="text_16">
      <!-- -70 -->
      <g transform="translate(27.240625 142.726986) scale(0.1 -0.1)">
       <use xlink:href="#DejaVuSans-2d"/>
       <use xlink:href="#DejaVuSans-37" x="36.083984"/>
       <use xlink:href="#DejaVuSans-30" x="99.707031"/>
      </g>
     </g>
    </g>
    <g id="ytick_7">
     <g id="line2d_15">
      <g>
       <use xlink:href="#m01cf7e6fb8" x="50.573438" y="108.30785" style="stroke: #000000; stroke-width: 0.8"/>
      </g>
     </g>
     <g id="text_17">
      <!-- -60 -->
      <g transform="translate(27.240625 112.107068) scale(0.1 -0.1)">
       <defs>
        <path id="DejaVuSans-36" d="M 2113 2584 
Q 1688 2584 1439 2293 
Q 1191 2003 1191 1497 
Q 1191 994 1439 701 
Q 1688 409 2113 409 
Q 2538 409 2786 701 
Q 3034 994 3034 1497 
Q 3034 2003 2786 2293 
Q 2538 2584 2113 2584 
z
M 3366 4563 
L 3366 3988 
Q 3128 4100 2886 4159 
Q 2644 4219 2406 4219 
Q 1781 4219 1451 3797 
Q 1122 3375 1075 2522 
Q 1259 2794 1537 2939 
Q 1816 3084 2150 3084 
Q 2853 3084 3261 2657 
Q 3669 2231 3669 1497 
Q 3669 778 3244 343 
Q 2819 -91 2113 -91 
Q 1303 -91 875 529 
Q 447 1150 447 2328 
Q 447 3434 972 4092 
Q 1497 4750 2381 4750 
Q 2619 4750 2861 4703 
Q 3103 4656 3366 4563 
z
" transform="scale(0.015625)"/>
       </defs>
       <use xlink:href="#DejaVuSans-2d"/>
       <use xlink:href="#DejaVuSans-36" x="36.083984"/>
       <use xlink:href="#DejaVuSans-30" x="99.707031"/>
      </g>
     </g>
    </g>
    <g id="ytick_8">
     <g id="line2d_16">
      <g>
       <use xlink:href="#m01cf7e6fb8" x="50.573438" y="77.687932" style="stroke: #000000; stroke-width: 0.8"/>
      </g>
     </g>
     <g id="text_18">
      <!-- -50 -->
      <g transform="translate(27.240625 81.487151) scale(0.1 -0.1)">
       <use xlink:href="#DejaVuSans-2d"/>
       <use xlink:href="#DejaVuSans-35" x="36.083984"/>
       <use xlink:href="#DejaVuSans-30" x="99.707031"/>
      </g>
     </g>
    </g>
    <g id="ytick_9">
     <g id="line2d_17">
      <g>
       <use xlink:href="#m01cf7e6fb8" x="50.573438" y="47.068015" style="stroke: #000000; stroke-width: 0.8"/>
      </g>
     </g>
     <g id="text_19">
      <!-- -40 -->
      <g transform="translate(27.240625 50.867234) scale(0.1 -0.1)">
       <defs>
        <path id="DejaVuSans-34" d="M 2419 4116 
L 825 1625 
L 2419 1625 
L 2419 4116 
z
M 2253 4666 
L 3047 4666 
L 3047 1625 
L 3713 1625 
L 3713 1100 
L 3047 1100 
L 3047 0 
L 2419 0 
L 2419 1100 
L 313 1100 
L 313 1709 
L 2253 4666 
z
" transform="scale(0.015625)"/>
       </defs>
       <use xlink:href="#DejaVuSans-2d"/>
       <use xlink:href="#DejaVuSans-34" x="36.083984"/>
       <use xlink:href="#DejaVuSans-30" x="99.707031"/>
      </g>
     </g>
    </g>
    <g id="text_20">
     <!-- Phase0 [deg] -->
     <g transform="translate(14.798438 207.841781) rotate(-90) scale(0.1 -0.1)">
      <defs>
       <path id="DejaVuSans-50" d="M 1259 4147 
L 1259 2394 
L 2053 2394 
Q 2494 2394 2734 2622 
Q 2975 2850 2975 3272 
Q 2975 3691 2734 3919 
Q 2494 4147 2053 4147 
L 1259 4147 
z
M 628 4666 
L 2053 4666 
Q 2838 4666 3239 4311 
Q 3641 3956 3641 3272 
Q 3641 2581 3239 2228 
Q 2838 1875 2053 1875 
L 1259 1875 
L 1259 0 
L 628 0 
L 628 4666 
z
" transform="scale(0.015625)"/>
       <path id="DejaVuSans-68" d="M 3513 2113 
L 3513 0 
L 2938 0 
L 2938 2094 
Q 2938 2591 2744 2837 
Q 2550 3084 2163 3084 
Q 1697 3084 1428 2787 
Q 1159 2491 1159 1978 
L 1159 0 
L 581 0 
L 581 4863 
L 1159 4863 
L 1159 2956 
Q 1366 3272 1645 3428 
Q 1925 3584 2291 3584 
Q 2894 3584 3203 3211 
Q 3513 2838 3513 2113 
z
" transform="scale(0.015625)"/>
       <path id="DejaVuSans-61" d="M 2194 1759 
Q 1497 1759 1228 1600 
Q 959 1441 959 1056 
Q 959 750 1161 570 
Q 1363 391 1709 391 
Q 2188 391 2477 730 
Q 2766 1069 2766 1631 
L 2766 1759 
L 2194 1759 
z
M 3341 1997 
L 3341 0 
L 2766 0 
L 2766 531 
Q 2569 213 2275 61 
Q 1981 -91 1556 -91 
Q 1019 -91 701 211 
Q 384 513 384 1019 
Q 384 1609 779 1909 
Q 1175 2209 1959 2209 
L 2766 2209 
L 2766 2266 
Q 2766 2663 2505 2880 
Q 2244 3097 1772 3097 
Q 1472 3097 1187 3025 
Q 903 2953 641 2809 
L 641 3341 
Q 956 3463 1253 3523 
Q 1550 3584 1831 3584 
Q 2591 3584 2966 3190 
Q 3341 2797 3341 1997 
z
" transform="scale(0.015625)"/>
       <path id="DejaVuSans-73" d="M 2834 3397 
L 2834 2853 
Q 2591 2978 2328 3040 
Q 2066 3103 1784 3103 
Q 1356 3103 1142 2972 
Q 928 2841 928 2578 
Q 928 2378 1081 2264 
Q 1234 2150 1697 2047 
L 1894 2003 
Q 2506 1872 2764 1633 
Q 3022 1394 3022 966 
Q 3022 478 2636 193 
Q 2250 -91 1575 -91 
Q 1294 -91 989 -36 
Q 684 19 347 128 
L 347 722 
Q 666 556 975 473 
Q 1284 391 1588 391 
Q 1994 391 2212 530 
Q 2431 669 2431 922 
Q 2431 1156 2273 1281 
Q 2116 1406 1581 1522 
L 1381 1569 
Q 847 1681 609 1914 
Q 372 2147 372 2553 
Q 372 3047 722 3315 
Q 1072 3584 1716 3584 
Q 2034 3584 2315 3537 
Q 2597 3491 2834 3397 
z
" transform="scale(0.015625)"/>
       <path id="DejaVuSans-64" d="M 2906 2969 
L 2906 4863 
L 3481 4863 
L 3481 0 
L 2906 0 
L 2906 525 
Q 2725 213 2448 61 
Q 2172 -91 1784 -91 
Q 1150 -91 751 415 
Q 353 922 353 1747 
Q 353 2572 751 3078 
Q 1150 3584 1784 3584 
Q 2172 3584 2448 3432 
Q 2725 3281 2906 2969 
z
M 947 1747 
Q 947 1113 1208 752 
Q 1469 391 1925 391 
Q 2381 391 2643 752 
Q 2906 1113 2906 1747 
Q 2906 2381 2643 2742 
Q 2381 3103 1925 3103 
Q 1469 3103 1208 2742 
Q 947 2381 947 1747 
z
" transform="scale(0.015625)"/>
       <path id="DejaVuSans-67" d="M 2906 1791 
Q 2906 2416 2648 2759 
Q 2391 3103 1925 3103 
Q 1463 3103 1205 2759 
Q 947 2416 947 1791 
Q 947 1169 1205 825 
Q 1463 481 1925 481 
Q 2391 481 2648 825 
Q 2906 1169 2906 1791 
z
M 3481 434 
Q 3481 -459 3084 -895 
Q 2688 -1331 1869 -1331 
Q 1566 -1331 1297 -1286 
Q 1028 -1241 775 -1147 
L 775 -588 
Q 1028 -725 1275 -790 
Q 1522 -856 1778 -856 
Q 2344 -856 2625 -561 
Q 2906 -266 2906 331 
L 2906 616 
Q 2728 306 2450 153 
Q 2172 0 1784 0 
Q 1141 0 747 490 
Q 353 981 353 1791 
Q 353 2603 747 3093 
Q 1141 3584 1784 3584 
Q 2172 3584 2450 3431 
Q 2728 3278 2906 2969 
L 2906 3500 
L 3481 3500 
L 3481 434 
z
" transform="scale(0.015625)"/>
      </defs>
      <use xlink:href="#DejaVuSans-50"/>
      <use xlink:href="#DejaVuSans-68" x="60.302734"/>
      <use xlink:href="#DejaVuSans-61" x="123.681641"/>
      <use xlink:href="#DejaVuSans-73" x="184.960938"/>
      <use xlink:href="#DejaVuSans-65" x="237.060547"/>
      <use xlink:href="#DejaVuSans-30" x="298.583984"/>
      <use xlink:href="#DejaVuSans-20" x="362.207031"/>
      <use xlink:href="#DejaVuSans-5b" x="393.994141"/>
      <use xlink:href="#DejaVuSans-64" x="433.007812"/>
      <use xlink:href="#DejaVuSans-65" x="496.484375"/>
      <use xlink:href="#DejaVuSans-67" x="558.007812"/>
      <use xlink:href="#DejaVuSans-5d" x="621.484375"/>
     </g>
    </g>
   </g>
   <g id="line2d_18">
    <path d="M 66.806165 211.044448 
L 78.001149 239.555731 
L 89.196133 209.536201 
L 100.391118 278.692751 
L 111.586102 273.321048 
L 122.781086 295.776 
L 133.976071 274.795001 
L 145.171055 294.217579 
L 156.366039 250.826179 
L 167.561024 187.323261 
L 178.756008 53.856 
L 189.950992 96.212819 
L 201.145977 230.309588 
L 212.340961 166.239391 
L 223.535945 207.057262 
L 234.73093 174.434905 
L 245.925914 153.788584 
L 257.120898 193.399517 
L 268.315883 205.871958 
L 279.510867 192.426242 
L 290.705851 172.837967 
L 301.900836 188.048812 
L 313.09582 186.447916 
L 324.290804 149.926463 
L 335.485789 227.045277 
L 346.680773 242.16547 
L 357.875757 204.245379 
L 369.070742 248.769283 
L 380.265726 217.431024 
L 391.46071 231.847249 
" clip-path="url(#p53058d34b7)" style="fill: none; stroke: #440154; stroke-width: 1.5; stroke-linecap: square"/>
   </g>
   <g id="line2d_19">
    <path d="M 66.806165 208.772883 
L 78.001149 218.585751 
L 89.196133 217.422219 
L 100.391118 251.233328 
L 111.586102 260.967015 
L 122.781086 277.086625 
L 133.976071 295.555398 
L 145.171055 290.327325 
L 156.366039 269.453584 
L 167.561024 200.620688 
L 178.756008 169.291273 
L 189.950992 149.683989 
L 201.145977 145.349937 
L 212.340961 160.81082 
L 223.535945 154.832856 
L 234.73093 167.202081 
L 245.925914 159.455067 
L 257.120898 178.857908 
L 268.315883 184.340973 
L 279.510867 173.040295 
L 290.705851 189.420853 
L 301.900836 191.935701 
L 313.09582 187.992731 
L 324.290804 195.20938 
L 335.485789 199.919173 
L 346.680773 210.170659 
L 357.875757 194.495018 
L 369.070742 210.497313 
L 380.265726 209.808258 
L 391.46071 214.3154 
" clip-path="url(#p53058d34b7)" style="fill: none; stroke: #470d60; stroke-width: 1.5; stroke-linecap: square"/>
   </g>
   <g id="line2d_20">
    <path d="M 66.806165 214.353391 
L 78.001149 228.779805 
L 89.196133 235.158946 
L 100.391118 245.568168 
L 111.586102 265.088559 
L 122.781086 274.282748 
L 133.976071 281.921787 
L 145.171055 279.480145 
L 156.366039 252.659766 
L 167.561024 189.29599 
L 178.756008 175.273252 
L 189.950992 156.819186 
L 201.145977 153.109022 
L 212.340961 148.068615 
L 223.535945 169.601695 
L 234.73093 174.8659 
L 245.925914 173.215246 
L 257.120898 178.606083 
L 268.315883 173.574201 
L 279.510867 181.080189 
L 290.705851 185.631122 
L 301.900836 188.423044 
L 313.09582 189.740443 
L 324.290804 191.645502 
L 335.485789 187.375761 
L 346.680773 201.18159 
L 357.875757 206.268694 
L 369.070742 208.647809 
L 380.265726 202.38708 
L 391.46071 204.821478 
" clip-path="url(#p53058d34b7)" style="fill: none; stroke: #481a6c; stroke-width: 1.5; stroke-linecap: square"/>
   </g>
   <g id="line2d_21">
    <path d="M 66.806165 213.917996 
L 78.001149 222.819645 
L 89.196133 232.743034 
L 100.391118 250.25407 
L 111.586102 264.002752 
L 122.781086 273.780447 
L 133.976071 294.998076 
L 145.171055 279.131193 
L 156.366039 254.3058 
L 167.561024 206.117224 
L 178.756008 161.01964 
L 189.950992 157.850541 
L 201.145977 145.831925 
L 212.340961 150.259601 
L 223.535945 158.818514 
L 234.73093 170.379758 
L 245.925914 173.405334 
L 257.120898 175.500241 
L 268.315883 180.573125 
L 279.510867 182.175557 
L 290.705851 185.884229 
L 301.900836 186.300609 
L 313.09582 193.140554 
L 324.290804 196.597685 
L 335.485789 200.056434 
L 346.680773 192.887832 
L 357.875757 207.187648 
L 369.070742 207.964574 
L 380.265726 210.865206 
L 391.46071 210.003361 
" clip-path="url(#p53058d34b7)" style="fill: none; stroke: #482576; stroke-width: 1.5; stroke-linecap: square"/>
   </g>
   <g id="line2d_22">
    <path d="M 66.806165 208.487915 
L 78.001149 224.505875 
L 89.196133 230.986413 
L 100.391118 243.055691 
L 111.586102 261.673607 
L 122.781086 276.147624 
L 133.976071 287.267262 
L 145.171055 283.477974 
L 156.366039 254.846463 
L 167.561024 210.541977 
L 178.756008 164.31153 
L 189.950992 151.931137 
L 201.145977 153.19307 
L 212.340961 151.739553 
L 223.535945 168.720032 
L 234.73093 166.058239 
L 245.925914 171.930967 
L 257.120898 172.100018 
L 268.315883 174.065619 
L 279.510867 182.92316 
L 290.705851 182.718267 
L 301.900836 188.497176 
L 313.09582 192.183793 
L 324.290804 196.092832 
L 335.485789 198.365463 
L 346.680773 197.345395 
L 357.875757 202.871126 
L 369.070742 200.809342 
L 380.265726 207.37211 
L 391.46071 211.243493 
" clip-path="url(#p53058d34b7)" style="fill: none; stroke: #46307e; stroke-width: 1.5; stroke-linecap: square"/>
   </g>
   <g id="line2d_23">
    <path d="M 66.806165 213.691271 
L 78.001149 222.756624 
L 89.196133 231.152309 
L 100.391118 243.375801 
L 111.586102 262.851625 
L 122.781086 277.93855 
L 133.976071 283.756792 
L 145.171055 275.565095 
L 156.366039 242.780553 
L 167.561024 198.086825 
L 178.756008 160.390846 
L 189.950992 155.009859 
L 201.145977 151.714623 
L 212.340961 156.057496 
L 223.535945 161.198484 
L 234.73093 169.184611 
L 245.925914 171.104745 
L 257.120898 175.892399 
L 268.315883 180.45009 
L 279.510867 180.575257 
L 290.705851 186.885283 
L 301.900836 191.319845 
L 313.09582 189.465007 
L 324.290804 196.052239 
L 335.485789 205.233805 
L 346.680773 202.827817 
L 357.875757 199.363881 
L 369.070742 207.050438 
L 380.265726 206.373957 
L 391.46071 208.268614 
" clip-path="url(#p53058d34b7)" style="fill: none; stroke: #443b84; stroke-width: 1.5; stroke-linecap: square"/>
   </g>
   <g id="line2d_24">
    <path d="M 66.806165 211.970228 
L 78.001149 221.303506 
L 89.196133 233.935941 
L 100.391118 247.060261 
L 111.586102 263.636146 
L 122.781086 278.606496 
L 133.976071 282.256652 
L 145.171055 264.669706 
L 156.366039 230.604446 
L 167.561024 188.405274 
L 178.756008 161.63569 
L 189.950992 154.907194 
L 201.145977 154.712629 
L 212.340961 161.621259 
L 223.535945 161.665199 
L 234.73093 168.050607 
L 245.925914 172.255653 
L 257.120898 179.510765 
L 268.315883 177.791077 
L 279.510867 182.906767 
L 290.705851 184.048181 
L 301.900836 191.277757 
L 313.09582 190.78529 
L 324.290804 196.893193 
L 335.485789 198.757348 
L 346.680773 203.521378 
L 357.875757 203.519663 
L 369.070742 205.762018 
L 380.265726 209.492517 
L 391.46071 213.8248 
" clip-path="url(#p53058d34b7)" style="fill: none; stroke: #404588; stroke-width: 1.5; stroke-linecap: square"/>
   </g>
   <g id="line2d_25">
    <path d="M 66.806165 212.45015 
L 78.001149 217.743534 
L 89.196133 231.719276 
L 100.391118 245.107703 
L 111.586102 259.404184 
L 122.781086 273.620647 
L 133.976071 274.561134 
L 145.171055 257.111285 
L 156.366039 219.817854 
L 167.561024 184.34242 
L 178.756008 162.479954 
L 189.950992 152.610103 
L 201.145977 153.891209 
L 212.340961 159.443658 
L 223.535945 165.10162 
L 234.73093 168.516288 
L 245.925914 170.773373 
L 257.120898 174.163284 
L 268.315883 180.48635 
L 279.510867 180.592464 
L 290.705851 184.186245 
L 301.900836 189.095734 
L 313.09582 195.209146 
L 324.290804 195.906222 
L 335.485789 199.542535 
L 346.680773 201.674297 
L 357.875757 205.445661 
L 369.070742 205.270714 
L 380.265726 209.26542 
L 391.46071 210.873332 
" clip-path="url(#p53058d34b7)" style="fill: none; stroke: #3c4f8a; stroke-width: 1.5; stroke-linecap: square"/>
   </g>
   <g id="line2d_26">
    <path d="M 66.806165 211.565981 
L 78.001149 223.634791 
L 89.196133 231.804125 
L 100.391118 248.070065 
L 111.586102 261.149418 
L 122.781086 270.642323 
L 133.976071 267.163627 
L 145.171055 235.625171 
L 156.366039 201.943121 
L 167.561024 181.217886 
L 178.756008 158.70091 
L 189.950992 153.905247 
L 201.145977 156.452378 
L 212.340961 160.165064 
L 223.535945 162.880698 
L 234.73093 167.833731 
L 245.925914 172.902163 
L 257.120898 176.556965 
L 268.315883 181.633395 
L 279.510867 184.21887 
L 290.705851 188.047305 
L 301.900836 190.737637 
L 313.09582 193.617696 
L 324.290804 195.103635 
L 335.485789 198.783691 
L 346.680773 202.558662 
L 357.875757 200.018011 
L 369.070742 205.216077 
L 380.265726 208.338189 
L 391.46071 209.638736 
" clip-path="url(#p53058d34b7)" style="fill: none; stroke: #38598c; stroke-width: 1.5; stroke-linecap: square"/>
   </g>
   <g id="line2d_27">
    <path d="M 66.806165 213.960973 
L 78.001149 221.738184 
L 89.196133 234.250861 
L 100.391118 247.768143 
L 111.586102 260.910513 
L 122.781086 269.573075 
L 133.976071 258.05687 
L 145.171055 224.786016 
L 156.366039 196.640944 
L 167.561024 170.576758 
L 178.756008 156.517413 
L 189.950992 153.635697 
L 201.145977 156.372101 
L 212.340961 157.912316 
L 223.535945 165.003891 
L 234.73093 168.821207 
L 245.925914 172.146226 
L 257.120898 174.781589 
L 268.315883 179.805363 
L 279.510867 181.766163 
L 290.705851 188.757987 
L 301.900836 190.839353 
L 313.09582 191.981024 
L 324.290804 193.973368 
L 335.485789 199.629749 
L 346.680773 201.845993 
L 357.875757 201.941344 
L 369.070742 205.599648 
L 380.265726 208.913576 
L 391.46071 210.498252 
" clip-path="url(#p53058d34b7)" style="fill: none; stroke: #33628d; stroke-width: 1.5; stroke-linecap: square"/>
   </g>
   <g id="line2d_28">
    <path d="M 66.806165 214.10728 
L 78.001149 222.570073 
L 89.196133 236.750118 
L 100.391118 245.326866 
L 111.586102 258.580018 
L 122.781086 266.181745 
L 133.976071 245.083528 
L 145.171055 213.643991 
L 156.366039 189.993979 
L 167.561024 168.493398 
L 178.756008 160.004174 
L 189.950992 155.937161 
L 201.145977 156.812463 
L 212.340961 161.200765 
L 223.535945 166.553918 
L 234.73093 169.307562 
L 245.925914 173.697616 
L 257.120898 174.79589 
L 268.315883 178.481329 
L 279.510867 181.612818 
L 290.705851 185.235837 
L 301.900836 188.893111 
L 313.09582 192.040448 
L 324.290804 194.655996 
L 335.485789 196.591509 
L 346.680773 201.258384 
L 357.875757 204.670112 
L 369.070742 205.608515 
L 380.265726 207.898404 
L 391.46071 212.272163 
" clip-path="url(#p53058d34b7)" style="fill: none; stroke: #2f6b8e; stroke-width: 1.5; stroke-linecap: square"/>
   </g>
   <g id="line2d_29">
    <path d="M 66.806165 213.562338 
L 78.001149 223.033618 
L 89.196133 234.22967 
L 100.391118 243.377401 
L 111.586102 252.990513 
L 122.781086 253.270726 
L 133.976071 234.319496 
L 145.171055 197.731877 
L 156.366039 174.954048 
L 167.561024 165.195628 
L 178.756008 158.995724 
L 189.950992 152.669826 
L 201.145977 159.671907 
L 212.340961 159.849812 
L 223.535945 165.132074 
L 234.73093 170.941292 
L 245.925914 172.025993 
L 257.120898 178.86986 
L 268.315883 179.711322 
L 279.510867 183.416087 
L 290.705851 187.992884 
L 301.900836 188.263081 
L 313.09582 192.443086 
L 324.290804 196.260502 
L 335.485789 196.183791 
L 346.680773 201.480872 
L 357.875757 202.454828 
L 369.070742 205.791731 
L 380.265726 208.616462 
L 391.46071 211.823291 
" clip-path="url(#p53058d34b7)" style="fill: none; stroke: #2c738e; stroke-width: 1.5; stroke-linecap: square"/>
   </g>
   <g id="line2d_30">
    <path d="M 66.806165 213.152684 
L 78.001149 222.208044 
L 89.196133 233.868229 
L 100.391118 248.666709 
L 111.586102 255.32628 
L 122.781086 247.864806 
L 133.976071 221.985593 
L 145.171055 187.244958 
L 156.366039 167.681535 
L 167.561024 161.397173 
L 178.756008 158.327796 
L 189.950992 155.413496 
L 201.145977 159.13937 
L 212.340961 161.540623 
L 223.535945 166.205416 
L 234.73093 168.858621 
L 245.925914 173.287563 
L 257.120898 175.632547 
L 268.315883 179.377615 
L 279.510867 183.654732 
L 290.705851 187.456908 
L 301.900836 189.363543 
L 313.09582 192.657081 
L 324.290804 195.593032 
L 335.485789 197.439542 
L 346.680773 200.987627 
L 357.875757 203.175485 
L 369.070742 206.129658 
L 380.265726 208.933247 
L 391.46071 211.22501 
" clip-path="url(#p53058d34b7)" style="fill: none; stroke: #297b8e; stroke-width: 1.5; stroke-linecap: square"/>
   </g>
   <g id="line2d_31">
    <path d="M 66.806165 214.85759 
L 78.001149 223.825172 
L 89.196133 236.749488 
L 100.391118 245.382206 
L 111.586102 251.599224 
L 122.781086 241.300835 
L 133.976071 201.734739 
L 145.171055 174.192924 
L 156.366039 163.324683 
L 167.561024 159.345236 
L 178.756008 157.590661 
L 189.950992 154.000435 
L 201.145977 160.172475 
L 212.340961 163.914249 
L 223.535945 166.351016 
L 234.73093 169.645114 
L 245.925914 173.668316 
L 257.120898 175.661047 
L 268.315883 178.282295 
L 279.510867 183.418788 
L 290.705851 188.120859 
L 301.900836 190.997538 
L 313.09582 191.7133 
L 324.290804 195.826181 
L 335.485789 198.569093 
L 346.680773 200.29392 
L 357.875757 205.060777 
L 369.070742 204.865562 
L 380.265726 209.306767 
L 391.46071 210.256959 
" clip-path="url(#p53058d34b7)" style="fill: none; stroke: #25838e; stroke-width: 1.5; stroke-linecap: square"/>
   </g>
   <g id="line2d_32">
    <path d="M 66.806165 215.528222 
L 78.001149 226.387597 
L 89.196133 238.331803 
L 100.391118 251.611342 
L 111.586102 253.3364 
L 122.781086 230.714687 
L 133.976071 187.424867 
L 145.171055 166.608897 
L 156.366039 157.705135 
L 167.561024 156.402934 
L 178.756008 157.828526 
L 189.950992 157.244896 
L 201.145977 160.297026 
L 212.340961 162.260132 
L 223.535945 166.890642 
L 234.73093 169.135249 
L 245.925914 173.837942 
L 257.120898 176.567117 
L 268.315883 180.990285 
L 279.510867 185.368578 
L 290.705851 187.646099 
L 301.900836 188.78132 
L 313.09582 191.525185 
L 324.290804 195.508267 
L 335.485789 198.783366 
L 346.680773 201.090793 
L 357.875757 203.062134 
L 369.070742 206.579177 
L 380.265726 208.107536 
L 391.46071 208.475562 
" clip-path="url(#p53058d34b7)" style="fill: none; stroke: #228c8d; stroke-width: 1.5; stroke-linecap: square"/>
   </g>
   <g id="line2d_33">
    <path d="M 66.806165 216.58536 
L 78.001149 229.315806 
L 89.196133 239.94885 
L 100.391118 250.318513 
L 111.586102 249.145805 
L 122.781086 214.357176 
L 133.976071 173.588614 
L 145.171055 161.193823 
L 156.366039 158.083656 
L 167.561024 158.178885 
L 178.756008 157.665971 
L 189.950992 158.78323 
L 201.145977 159.996783 
L 212.340961 164.485884 
L 223.535945 168.579164 
L 234.73093 171.236856 
L 245.925914 174.313514 
L 257.120898 176.393804 
L 268.315883 182.015545 
L 279.510867 183.653002 
L 290.705851 187.166434 
L 301.900836 189.58535 
L 313.09582 192.007362 
L 324.290804 194.474432 
L 335.485789 197.759749 
L 346.680773 201.382783 
L 357.875757 203.365184 
L 369.070742 206.276943 
L 380.265726 208.863237 
L 391.46071 210.45621 
" clip-path="url(#p53058d34b7)" style="fill: none; stroke: #1f948c; stroke-width: 1.5; stroke-linecap: square"/>
   </g>
   <g id="line2d_34">
    <path d="M 66.806165 217.966648 
L 78.001149 229.075407 
L 89.196133 241.474502 
L 100.391118 250.347026 
L 111.586102 242.546653 
L 122.781086 192.685109 
L 133.976071 166.458275 
L 145.171055 159.47477 
L 156.366039 155.217826 
L 167.561024 157.89207 
L 178.756008 156.286264 
L 189.950992 156.484654 
L 201.145977 160.30873 
L 212.340961 163.712631 
L 223.535945 167.295172 
L 234.73093 169.423587 
L 245.925914 173.917183 
L 257.120898 177.406298 
L 268.315883 180.433013 
L 279.510867 183.645443 
L 290.705851 187.445278 
L 301.900836 190.185521 
L 313.09582 192.686389 
L 324.290804 197.155245 
L 335.485789 198.37872 
L 346.680773 200.882621 
L 357.875757 204.090362 
L 369.070742 206.143438 
L 380.265726 209.027898 
L 391.46071 211.386959 
" clip-path="url(#p53058d34b7)" style="fill: none; stroke: #1e9d89; stroke-width: 1.5; stroke-linecap: square"/>
   </g>
   <g id="line2d_35">
    <path d="M 66.806165 218.288038 
L 78.001149 232.151756 
L 89.196133 245.284808 
L 100.391118 253.29302 
L 111.586102 235.62049 
L 122.781086 186.902735 
L 133.976071 165.343514 
L 145.171055 154.763324 
L 156.366039 153.860057 
L 167.561024 155.344855 
L 178.756008 155.626429 
L 189.950992 157.320353 
L 201.145977 162.183871 
L 212.340961 164.919515 
L 223.535945 169.277788 
L 234.73093 171.60942 
L 245.925914 174.711092 
L 257.120898 178.413003 
L 268.315883 181.025213 
L 279.510867 184.880309 
L 290.705851 187.209469 
L 301.900836 189.963233 
L 313.09582 193.524007 
L 324.290804 195.511257 
L 335.485789 198.746762 
L 346.680773 201.11585 
L 357.875757 202.60004 
L 369.070742 206.861352 
L 380.265726 209.460501 
L 391.46071 210.087254 
" clip-path="url(#p53058d34b7)" style="fill: none; stroke: #21a585; stroke-width: 1.5; stroke-linecap: square"/>
   </g>
   <g id="line2d_36">
    <path d="M 66.806165 218.584947 
L 78.001149 232.196175 
L 89.196133 248.387655 
L 100.391118 255.978626 
L 111.586102 222.595198 
L 122.781086 179.614261 
L 133.976071 159.278549 
L 145.171055 152.565343 
L 156.366039 152.600555 
L 167.561024 154.658118 
L 178.756008 157.810024 
L 189.950992 158.938397 
L 201.145977 162.623441 
L 212.340961 165.222794 
L 223.535945 168.235543 
L 234.73093 172.42554 
L 245.925914 175.110102 
L 257.120898 178.352958 
L 268.315883 181.870298 
L 279.510867 185.084112 
L 290.705851 188.038824 
L 301.900836 190.25604 
L 313.09582 192.590714 
L 324.290804 196.131739 
L 335.485789 197.61785 
L 346.680773 201.173934 
L 357.875757 204.070105 
L 369.070742 205.421406 
L 380.265726 208.484526 
L 391.46071 210.893693 
" clip-path="url(#p53058d34b7)" style="fill: none; stroke: #26ad81; stroke-width: 1.5; stroke-linecap: square"/>
   </g>
   <g id="line2d_37">
    <path d="M 66.806165 221.809947 
L 78.001149 239.204235 
L 89.196133 253.622379 
L 100.391118 255.610603 
L 111.586102 222.349835 
L 122.781086 179.794755 
L 133.976071 159.204113 
L 145.171055 151.906536 
L 156.366039 151.551828 
L 167.561024 155.559435 
L 178.756008 157.7459 
L 189.950992 160.200389 
L 201.145977 162.659517 
L 212.340961 165.757394 
L 223.535945 169.061639 
L 234.73093 172.199807 
L 245.925914 175.000685 
L 257.120898 179.238042 
L 268.315883 182.340527 
L 279.510867 185.141322 
L 290.705851 187.420918 
L 301.900836 191.623526 
L 313.09582 193.597399 
L 324.290804 196.019468 
L 335.485789 199.41023 
L 346.680773 201.732361 
L 357.875757 202.882256 
L 369.070742 206.347559 
L 380.265726 208.360943 
L 391.46071 212.009911 
" clip-path="url(#p53058d34b7)" style="fill: none; stroke: #31b57b; stroke-width: 1.5; stroke-linecap: square"/>
   </g>
   <g id="line2d_38">
    <path d="M 66.806165 224.827469 
L 78.001149 240.728729 
L 89.196133 257.017991 
L 100.391118 251.261149 
L 111.586102 217.03077 
L 122.781086 170.659162 
L 133.976071 156.560839 
L 145.171055 150.676414 
L 156.366039 151.959479 
L 167.561024 154.491935 
L 178.756008 156.744854 
L 189.950992 160.798986 
L 201.145977 162.523635 
L 212.340961 166.556049 
L 223.535945 169.85166 
L 234.73093 174.07606 
L 245.925914 176.477438 
L 257.120898 179.560275 
L 268.315883 182.466257 
L 279.510867 184.696639 
L 290.705851 187.983527 
L 301.900836 190.269131 
L 313.09582 193.356389 
L 324.290804 195.617538 
L 335.485789 199.070511 
L 346.680773 200.995329 
L 357.875757 203.604666 
L 369.070742 205.954069 
L 380.265726 208.286478 
L 391.46071 210.461876 
" clip-path="url(#p53058d34b7)" style="fill: none; stroke: #3fbc73; stroke-width: 1.5; stroke-linecap: square"/>
   </g>
   <g id="line2d_39">
    <path d="M 66.806165 222.595939 
L 78.001149 242.179442 
L 89.196133 262.241781 
L 100.391118 256.386292 
L 111.586102 216.516055 
L 122.781086 172.262207 
L 133.976071 155.1972 
L 145.171055 150.648343 
L 156.366039 151.212822 
L 167.561024 154.302605 
L 178.756008 158.152989 
L 189.950992 161.115194 
L 201.145977 162.242813 
L 212.340961 166.200585 
L 223.535945 170.009903 
L 234.73093 173.206226 
L 245.925914 176.171994 
L 257.120898 178.882378 
L 268.315883 181.838303 
L 279.510867 185.285301 
L 290.705851 188.078713 
L 301.900836 191.135904 
L 313.09582 192.856802 
L 324.290804 196.135837 
L 335.485789 199.210798 
L 346.680773 201.326198 
L 357.875757 203.332505 
L 369.070742 205.55411 
L 380.265726 209.105434 
L 391.46071 210.984579 
" clip-path="url(#p53058d34b7)" style="fill: none; stroke: #50c46a; stroke-width: 1.5; stroke-linecap: square"/>
   </g>
   <g id="line2d_40">
    <path d="M 66.806165 225.606463 
L 78.001149 249.335002 
L 89.196133 267.895756 
L 100.391118 259.55865 
L 111.586102 212.441041 
L 122.781086 170.587111 
L 133.976071 151.547301 
L 145.171055 148.319437 
L 156.366039 151.80888 
L 167.561024 154.194873 
L 178.756008 158.378346 
L 189.950992 160.085644 
L 201.145977 163.708289 
L 212.340961 167.119883 
L 223.535945 168.766565 
L 234.73093 173.597839 
L 245.925914 176.113299 
L 257.120898 178.211602 
L 268.315883 182.88318 
L 279.510867 185.384283 
L 290.705851 187.964278 
L 301.900836 190.570618 
L 313.09582 192.724408 
L 324.290804 195.5796 
L 335.485789 197.421004 
L 346.680773 201.900406 
L 357.875757 203.704833 
L 369.070742 205.891265 
L 380.265726 208.61601 
L 391.46071 210.856371 
" clip-path="url(#p53058d34b7)" style="fill: none; stroke: #63cb5f; stroke-width: 1.5; stroke-linecap: square"/>
   </g>
   <g id="line2d_41">
    <path d="M 66.806165 225.054456 
L 78.001149 249.088578 
L 89.196133 273.458147 
L 100.391118 259.876379 
L 111.586102 205.576381 
L 122.781086 170.441055 
L 133.976071 151.642372 
L 145.171055 146.397538 
L 156.366039 149.766966 
L 167.561024 154.492396 
L 178.756008 156.227242 
L 189.950992 160.821627 
L 201.145977 163.397342 
L 212.340961 165.738011 
L 223.535945 169.97832 
L 234.73093 171.762757 
L 245.925914 176.273881 
L 257.120898 178.961516 
L 268.315883 183.018039 
L 279.510867 185.374827 
L 290.705851 188.165907 
L 301.900836 190.306058 
L 313.09582 193.070951 
L 324.290804 196.726158 
L 335.485789 199.026234 
L 346.680773 201.485639 
L 357.875757 203.330889 
L 369.070742 206.036349 
L 380.265726 208.298467 
L 391.46071 211.022624 
" clip-path="url(#p53058d34b7)" style="fill: none; stroke: #77d153; stroke-width: 1.5; stroke-linecap: square"/>
   </g>
   <g id="line2d_42">
    <path d="M 66.806165 228.346197 
L 78.001149 260.095641 
L 89.196133 280.031102 
L 100.391118 260.221376 
L 111.586102 210.545716 
L 122.781086 169.805811 
L 133.976071 148.922131 
L 145.171055 147.373145 
L 156.366039 149.585721 
L 167.561024 154.629481 
L 178.756008 158.338866 
L 189.950992 159.951319 
L 201.145977 163.397201 
L 212.340961 167.17007 
L 223.535945 171.006155 
L 234.73093 173.863807 
L 245.925914 176.057755 
L 257.120898 178.907184 
L 268.315883 182.192636 
L 279.510867 185.043145 
L 290.705851 187.362419 
L 301.900836 190.679562 
L 313.09582 193.405372 
L 324.290804 196.30202 
L 335.485789 199.111997 
L 346.680773 201.327791 
L 357.875757 203.152671 
L 369.070742 206.007541 
L 380.265726 208.350362 
L 391.46071 210.911848 
" clip-path="url(#p53058d34b7)" style="fill: none; stroke: #8bd646; stroke-width: 1.5; stroke-linecap: square"/>
   </g>
   <g id="line2d_43">
    <path d="M 66.806165 231.703041 
L 78.001149 262.798183 
L 89.196133 281.648766 
L 100.391118 263.840743 
L 111.586102 211.426409 
L 122.781086 168.562012 
L 133.976071 148.840681 
L 145.171055 145.993616 
L 156.366039 150.649038 
L 167.561024 154.073906 
L 178.756008 158.126215 
L 189.950992 161.609527 
L 201.145977 164.74231 
L 212.340961 167.681314 
L 223.535945 171.091112 
L 234.73093 173.584837 
L 245.925914 176.62355 
L 257.120898 180.121902 
L 268.315883 183.125557 
L 279.510867 185.941459 
L 290.705851 188.381632 
L 301.900836 190.873398 
L 313.09582 193.862206 
L 324.290804 196.515271 
L 335.485789 198.445626 
L 346.680773 201.252721 
L 357.875757 203.826665 
L 369.070742 206.854924 
L 380.265726 208.807326 
L 391.46071 211.438111 
" clip-path="url(#p53058d34b7)" style="fill: none; stroke: #a2da37; stroke-width: 1.5; stroke-linecap: square"/>
   </g>
   <g id="line2d_44">
    <path d="M 66.806165 234.733135 
L 78.001149 267.642222 
L 89.196133 282.853146 
L 100.391118 261.952447 
L 111.586102 210.849472 
L 122.781086 167.457256 
L 133.976071 146.497251 
L 145.171055 145.835915 
L 156.366039 149.823091 
L 167.561024 153.496166 
L 178.756008 156.957908 
L 189.950992 160.698117 
L 201.145977 164.309228 
L 212.340961 168.149044 
L 223.535945 171.458513 
L 234.73093 174.407274 
L 245.925914 175.626628 
L 257.120898 179.681636 
L 268.315883 182.406617 
L 279.510867 185.540828 
L 290.705851 188.836378 
L 301.900836 190.835715 
L 313.09582 194.206494 
L 324.290804 196.726552 
L 335.485789 199.78854 
L 346.680773 201.864608 
L 357.875757 204.747126 
L 369.070742 206.675509 
L 380.265726 208.889966 
L 391.46071 210.891081 
" clip-path="url(#p53058d34b7)" style="fill: none; stroke: #bade28; stroke-width: 1.5; stroke-linecap: square"/>
   </g>
   <g id="line2d_45">
    <path d="M 66.806165 242.039098 
L 78.001149 274.16522 
L 89.196133 282.929107 
L 100.391118 268.365247 
L 111.586102 214.713304 
L 122.781086 167.188834 
L 133.976071 146.387579 
L 145.171055 145.187559 
L 156.366039 149.403597 
L 167.561024 153.935528 
L 178.756008 158.217071 
L 189.950992 161.166852 
L 201.145977 164.942158 
L 212.340961 168.408727 
L 223.535945 170.79445 
L 234.73093 173.587669 
L 245.925914 177.763551 
L 257.120898 179.506896 
L 268.315883 183.21764 
L 279.510867 186.983808 
L 290.705851 189.01141 
L 301.900836 190.945884 
L 313.09582 194.209201 
L 324.290804 196.341399 
L 335.485789 199.208521 
L 346.680773 201.703581 
L 357.875757 204.467662 
L 369.070742 205.870649 
L 380.265726 208.789572 
L 391.46071 211.116223 
" clip-path="url(#p53058d34b7)" style="fill: none; stroke: #d2e21b; stroke-width: 1.5; stroke-linecap: square"/>
   </g>
   <g id="line2d_46">
    <path d="M 66.806165 245.539194 
L 78.001149 275.015511 
L 89.196133 285.619647 
L 100.391118 267.815819 
L 111.586102 216.352205 
L 122.781086 165.67456 
L 133.976071 147.87105 
L 145.171055 147.053315 
L 156.366039 150.114966 
L 167.561024 154.59641 
L 178.756008 157.217686 
L 189.950992 162.836972 
L 201.145977 165.805155 
L 212.340961 168.617121 
L 223.535945 171.103861 
L 234.73093 174.69139 
L 245.925914 177.023663 
L 257.120898 180.345731 
L 268.315883 183.625973 
L 279.510867 186.274998 
L 290.705851 188.80243 
L 301.900836 191.959969 
L 313.09582 194.323409 
L 324.290804 196.675863 
L 335.485789 199.654985 
L 346.680773 201.939108 
L 357.875757 204.170283 
L 369.070742 206.340624 
L 380.265726 208.51202 
L 391.46071 211.269699 
" clip-path="url(#p53058d34b7)" style="fill: none; stroke: #eae51a; stroke-width: 1.5; stroke-linecap: square"/>
   </g>
   <g id="line2d_47">
    <path d="M 66.806165 248.669212 
L 78.001149 277.867642 
L 89.196133 285.260929 
L 100.391118 268.376437 
L 111.586102 218.578516 
L 122.781086 164.703519 
L 133.976071 145.934114 
L 145.171055 144.881696 
L 156.366039 148.578527 
L 167.561024 154.649175 
L 178.756008 158.651224 
L 189.950992 161.828299 
L 201.145977 165.802509 
L 212.340961 168.495432 
L 223.535945 171.920582 
L 234.73093 175.489319 
L 245.925914 176.972041 
L 257.120898 180.445983 
L 268.315883 184.132642 
L 279.510867 186.513597 
L 290.705851 189.160289 
L 301.900836 192.517665 
L 313.09582 194.296233 
L 324.290804 196.636282 
L 335.485789 199.456517 
L 346.680773 202.261346 
L 357.875757 204.14662 
L 369.070742 207.342944 
L 380.265726 209.540812 
L 391.46071 211.666655 
" clip-path="url(#p53058d34b7)" style="fill: none; stroke: #fde725; stroke-width: 1.5; stroke-linecap: square"/>
   </g>
   <g id="patch_3">
    <path d="M 50.573438 307.872 
L 50.573438 41.76 
" style="fill: none; stroke: #000000; stroke-width: 0.8; stroke-linejoin: miter; stroke-linecap: square"/>
   </g>
   <g id="patch_4">
    <path d="M 407.693438 307.872 
L 407.693438 41.76 
" style="fill: none; stroke: #000000; stroke-width: 0.8; stroke-linejoin: miter; stroke-linecap: square"/>
   </g>
   <g id="patch_5">
    <path d="M 50.573437 307.872 
L 407.693437 307.872 
" style="fill: none; stroke: #000000; stroke-width: 0.8; stroke-linejoin: miter; stroke-linecap: square"/>
   </g>
   <g id="patch_6">
    <path d="M 50.573437 41.76 
L 407.693437 41.76 
" style="fill: none; stroke: #000000; stroke-width: 0.8; stroke-linejoin: miter; stroke-linecap: square"/>
   </g>
   <g id="legend_1">
    <g id="patch_7">
     <path d="M 427.549438 307.872 
L 647.796312 307.872 
Q 649.796312 307.872 649.796312 305.872 
L 649.796312 145.412625 
Q 649.796312 143.412625 647.796312 143.412625 
L 427.549438 143.412625 
Q 425.549438 143.412625 425.549438 145.412625 
L 425.549438 305.872 
Q 425.549438 307.872 427.549438 307.872 
z
" style="fill: #ffffff; opacity: 0.8; stroke: #cccccc; stroke-linejoin: miter"/>
    </g>
    <g id="text_21">
     <!-- Readout pulse amplitude () -->
     <g transform="translate(469.572094 155.011063) scale(0.1 -0.1)">
      <defs>
       <path id="DejaVuSans-52" d="M 2841 2188 
Q 3044 2119 3236 1894 
Q 3428 1669 3622 1275 
L 4263 0 
L 3584 0 
L 2988 1197 
Q 2756 1666 2539 1819 
Q 2322 1972 1947 1972 
L 1259 1972 
L 1259 0 
L 628 0 
L 628 4666 
L 2053 4666 
Q 2853 4666 3247 4331 
Q 3641 3997 3641 3322 
Q 3641 2881 3436 2590 
Q 3231 2300 2841 2188 
z
M 1259 4147 
L 1259 2491 
L 2053 2491 
Q 2509 2491 2742 2702 
Q 2975 2913 2975 3322 
Q 2975 3731 2742 3939 
Q 2509 4147 2053 4147 
L 1259 4147 
z
" transform="scale(0.015625)"/>
       <path id="DejaVuSans-6f" d="M 1959 3097 
Q 1497 3097 1228 2736 
Q 959 2375 959 1747 
Q 959 1119 1226 758 
Q 1494 397 1959 397 
Q 2419 397 2687 759 
Q 2956 1122 2956 1747 
Q 2956 2369 2687 2733 
Q 2419 3097 1959 3097 
z
M 1959 3584 
Q 2709 3584 3137 3096 
Q 3566 2609 3566 1747 
Q 3566 888 3137 398 
Q 2709 -91 1959 -91 
Q 1206 -91 779 398 
Q 353 888 353 1747 
Q 353 2609 779 3096 
Q 1206 3584 1959 3584 
z
" transform="scale(0.015625)"/>
       <path id="DejaVuSans-74" d="M 1172 4494 
L 1172 3500 
L 2356 3500 
L 2356 3053 
L 1172 3053 
L 1172 1153 
Q 1172 725 1289 603 
Q 1406 481 1766 481 
L 2356 481 
L 2356 0 
L 1766 0 
Q 1100 0 847 248 
Q 594 497 594 1153 
L 594 3053 
L 172 3053 
L 172 3500 
L 594 3500 
L 594 4494 
L 1172 4494 
z
" transform="scale(0.015625)"/>
       <path id="DejaVuSans-70" d="M 1159 525 
L 1159 -1331 
L 581 -1331 
L 581 3500 
L 1159 3500 
L 1159 2969 
Q 1341 3281 1617 3432 
Q 1894 3584 2278 3584 
Q 2916 3584 3314 3078 
Q 3713 2572 3713 1747 
Q 3713 922 3314 415 
Q 2916 -91 2278 -91 
Q 1894 -91 1617 61 
Q 1341 213 1159 525 
z
M 3116 1747 
Q 3116 2381 2855 2742 
Q 2594 3103 2138 3103 
Q 1681 3103 1420 2742 
Q 1159 2381 1159 1747 
Q 1159 1113 1420 752 
Q 1681 391 2138 391 
Q 2594 391 2855 752 
Q 3116 1113 3116 1747 
z
" transform="scale(0.015625)"/>
       <path id="DejaVuSans-6c" d="M 603 4863 
L 1178 4863 
L 1178 0 
L 603 0 
L 603 4863 
z
" transform="scale(0.015625)"/>
       <path id="DejaVuSans-6d" d="M 3328 2828 
Q 3544 3216 3844 3400 
Q 4144 3584 4550 3584 
Q 5097 3584 5394 3201 
Q 5691 2819 5691 2113 
L 5691 0 
L 5113 0 
L 5113 2094 
Q 5113 2597 4934 2840 
Q 4756 3084 4391 3084 
Q 3944 3084 3684 2787 
Q 3425 2491 3425 1978 
L 3425 0 
L 2847 0 
L 2847 2094 
Q 2847 2600 2669 2842 
Q 2491 3084 2119 3084 
Q 1678 3084 1418 2786 
Q 1159 2488 1159 1978 
L 1159 0 
L 581 0 
L 581 3500 
L 1159 3500 
L 1159 2956 
Q 1356 3278 1631 3431 
Q 1906 3584 2284 3584 
Q 2666 3584 2933 3390 
Q 3200 3197 3328 2828 
z
" transform="scale(0.015625)"/>
       <path id="DejaVuSans-69" d="M 603 3500 
L 1178 3500 
L 1178 0 
L 603 0 
L 603 3500 
z
M 603 4863 
L 1178 4863 
L 1178 4134 
L 603 4134 
L 603 4863 
z
" transform="scale(0.015625)"/>
       <path id="DejaVuSans-28" d="M 1984 4856 
Q 1566 4138 1362 3434 
Q 1159 2731 1159 2009 
Q 1159 1288 1364 580 
Q 1569 -128 1984 -844 
L 1484 -844 
Q 1016 -109 783 600 
Q 550 1309 550 2009 
Q 550 2706 781 3412 
Q 1013 4119 1484 4856 
L 1984 4856 
z
" transform="scale(0.015625)"/>
       <path id="DejaVuSans-29" d="M 513 4856 
L 1013 4856 
Q 1481 4119 1714 3412 
Q 1947 2706 1947 2009 
Q 1947 1309 1714 600 
Q 1481 -109 1013 -844 
L 513 -844 
Q 928 -128 1133 580 
Q 1338 1288 1338 2009 
Q 1338 2731 1133 3434 
Q 928 4138 513 4856 
z
" transform="scale(0.015625)"/>
      </defs>
      <use xlink:href="#DejaVuSans-52"/>
      <use xlink:href="#DejaVuSans-65" x="64.982422"/>
      <use xlink:href="#DejaVuSans-61" x="126.505859"/>
      <use xlink:href="#DejaVuSans-64" x="187.785156"/>
      <use xlink:href="#DejaVuSans-6f" x="251.261719"/>
      <use xlink:href="#DejaVuSans-75" x="312.443359"/>
      <use xlink:href="#DejaVuSans-74" x="375.822266"/>
      <use xlink:href="#DejaVuSans-20" x="415.03125"/>
      <use xlink:href="#DejaVuSans-70" x="446.818359"/>
      <use xlink:href="#DejaVuSans-75" x="510.294922"/>
      <use xlink:href="#DejaVuSans-6c" x="573.673828"/>
      <use xlink:href="#DejaVuSans-73" x="601.457031"/>
      <use xlink:href="#DejaVuSans-65" x="653.556641"/>
      <use xlink:href="#DejaVuSans-20" x="715.080078"/>
      <use xlink:href="#DejaVuSans-61" x="746.867188"/>
      <use xlink:href="#DejaVuSans-6d" x="808.146484"/>
      <use xlink:href="#DejaVuSans-70" x="905.558594"/>
      <use xlink:href="#DejaVuSans-6c" x="969.035156"/>
      <use xlink:href="#DejaVuSans-69" x="996.818359"/>
      <use xlink:href="#DejaVuSans-74" x="1024.601562"/>
      <use xlink:href="#DejaVuSans-75" x="1063.810547"/>
      <use xlink:href="#DejaVuSans-64" x="1127.189453"/>
      <use xlink:href="#DejaVuSans-65" x="1190.666016"/>
      <use xlink:href="#DejaVuSans-20" x="1252.189453"/>
      <use xlink:href="#DejaVuSans-28" x="1283.976562"/>
      <use xlink:href="#DejaVuSans-29" x="1322.990234"/>
     </g>
    </g>
    <g id="line2d_48">
     <path d="M 429.549438 166.189188 
L 439.549438 166.189188 
L 449.549438 166.189188 
" style="fill: none; stroke: #440154; stroke-width: 1.5; stroke-linecap: square"/>
    </g>
    <g id="text_22">
     <!-- 0.01 -->
     <g transform="translate(457.549438 169.689188) scale(0.1 -0.1)">
      <use xlink:href="#DejaVuSans-30"/>
      <use xlink:href="#DejaVuSans-2e" x="63.623047"/>
      <use xlink:href="#DejaVuSans-30" x="95.410156"/>
      <use xlink:href="#DejaVuSans-31" x="159.033203"/>
     </g>
    </g>
    <g id="line2d_49">
     <path d="M 429.549438 180.867313 
L 439.549438 180.867313 
L 449.549438 180.867313 
" style="fill: none; stroke: #470d60; stroke-width: 1.5; stroke-linecap: square"/>
    </g>
    <g id="text_23">
     <!-- 0.0338 -->
     <g transform="translate(457.549438 184.367313) scale(0.1 -0.1)">
      <defs>
       <path id="DejaVuSans-33" d="M 2597 2516 
Q 3050 2419 3304 2112 
Q 3559 1806 3559 1356 
Q 3559 666 3084 287 
Q 2609 -91 1734 -91 
Q 1441 -91 1130 -33 
Q 819 25 488 141 
L 488 750 
Q 750 597 1062 519 
Q 1375 441 1716 441 
Q 2309 441 2620 675 
Q 2931 909 2931 1356 
Q 2931 1769 2642 2001 
Q 2353 2234 1838 2234 
L 1294 2234 
L 1294 2753 
L 1863 2753 
Q 2328 2753 2575 2939 
Q 2822 3125 2822 3475 
Q 2822 3834 2567 4026 
Q 2313 4219 1838 4219 
Q 1578 4219 1281 4162 
Q 984 4106 628 3988 
L 628 4550 
Q 988 4650 1302 4700 
Q 1616 4750 1894 4750 
Q 2613 4750 3031 4423 
Q 3450 4097 3450 3541 
Q 3450 3153 3228 2886 
Q 3006 2619 2597 2516 
z
" transform="scale(0.015625)"/>
      </defs>
      <use xlink:href="#DejaVuSans-30"/>
      <use xlink:href="#DejaVuSans-2e" x="63.623047"/>
      <use xlink:href="#DejaVuSans-30" x="95.410156"/>
      <use xlink:href="#DejaVuSans-33" x="159.033203"/>
      <use xlink:href="#DejaVuSans-33" x="222.65625"/>
      <use xlink:href="#DejaVuSans-38" x="286.279297"/>
     </g>
    </g>
    <g id="line2d_50">
     <path d="M 429.549438 195.545438 
L 439.549438 195.545438 
L 449.549438 195.545438 
" style="fill: none; stroke: #481a6c; stroke-width: 1.5; stroke-linecap: square"/>
    </g>
    <g id="text_24">
     <!-- 0.0576 -->
     <g transform="translate(457.549438 199.045438) scale(0.1 -0.1)">
      <use xlink:href="#DejaVuSans-30"/>
      <use xlink:href="#DejaVuSans-2e" x="63.623047"/>
      <use xlink:href="#DejaVuSans-30" x="95.410156"/>
      <use xlink:href="#DejaVuSans-35" x="159.033203"/>
      <use xlink:href="#DejaVuSans-37" x="222.65625"/>
      <use xlink:href="#DejaVuSans-36" x="286.279297"/>
     </g>
    </g>
    <g id="line2d_51">
     <path d="M 429.549438 210.223563 
L 439.549438 210.223563 
L 449.549438 210.223563 
" style="fill: none; stroke: #482576; stroke-width: 1.5; stroke-linecap: square"/>
    </g>
    <g id="text_25">
     <!-- 0.0814 -->
     <g transform="translate(457.549438 213.723563) scale(0.1 -0.1)">
      <use xlink:href="#DejaVuSans-30"/>
      <use xlink:href="#DejaVuSans-2e" x="63.623047"/>
      <use xlink:href="#DejaVuSans-30" x="95.410156"/>
      <use xlink:href="#DejaVuSans-38" x="159.033203"/>
      <use xlink:href="#DejaVuSans-31" x="222.65625"/>
      <use xlink:href="#DejaVuSans-34" x="286.279297"/>
     </g>
    </g>
    <g id="line2d_52">
     <path d="M 429.549438 224.901688 
L 439.549438 224.901688 
L 449.549438 224.901688 
" style="fill: none; stroke: #46307e; stroke-width: 1.5; stroke-linecap: square"/>
    </g>
    <g id="text_26">
     <!-- 0.105 -->
     <g transform="translate(457.549438 228.401688) scale(0.1 -0.1)">
      <use xlink:href="#DejaVuSans-30"/>
      <use xlink:href="#DejaVuSans-2e" x="63.623047"/>
      <use xlink:href="#DejaVuSans-31" x="95.410156"/>
      <use xlink:href="#DejaVuSans-30" x="159.033203"/>
      <use xlink:href="#DejaVuSans-35" x="222.65625"/>
     </g>
    </g>
    <g id="line2d_53">
     <path d="M 429.549438 239.579813 
L 439.549438 239.579813 
L 449.549438 239.579813 
" style="fill: none; stroke: #443b84; stroke-width: 1.5; stroke-linecap: square"/>
    </g>
    <g id="text_27">
     <!-- 0.129 -->
     <g transform="translate(457.549438 243.079813) scale(0.1 -0.1)">
      <use xlink:href="#DejaVuSans-30"/>
      <use xlink:href="#DejaVuSans-2e" x="63.623047"/>
      <use xlink:href="#DejaVuSans-31" x="95.410156"/>
      <use xlink:href="#DejaVuSans-32" x="159.033203"/>
      <use xlink:href="#DejaVuSans-39" x="222.65625"/>
     </g>
    </g>
    <g id="line2d_54">
     <path d="M 429.549438 254.257938 
L 439.549438 254.257938 
L 449.549438 254.257938 
" style="fill: none; stroke: #404588; stroke-width: 1.5; stroke-linecap: square"/>
    </g>
    <g id="text_28">
     <!-- 0.153 -->
     <g transform="translate(457.549438 257.757938) scale(0.1 -0.1)">
      <use xlink:href="#DejaVuSans-30"/>
      <use xlink:href="#DejaVuSans-2e" x="63.623047"/>
      <use xlink:href="#DejaVuSans-31" x="95.410156"/>
      <use xlink:href="#DejaVuSans-35" x="159.033203"/>
      <use xlink:href="#DejaVuSans-33" x="222.65625"/>
     </g>
    </g>
    <g id="line2d_55">
     <path d="M 429.549438 268.936062 
L 439.549438 268.936062 
L 449.549438 268.936062 
" style="fill: none; stroke: #3c4f8a; stroke-width: 1.5; stroke-linecap: square"/>
    </g>
    <g id="text_29">
     <!-- 0.177 -->
     <g transform="translate(457.549438 272.436062) scale(0.1 -0.1)">
      <use xlink:href="#DejaVuSans-30"/>
      <use xlink:href="#DejaVuSans-2e" x="63.623047"/>
      <use xlink:href="#DejaVuSans-31" x="95.410156"/>
      <use xlink:href="#DejaVuSans-37" x="159.033203"/>
      <use xlink:href="#DejaVuSans-37" x="222.65625"/>
     </g>
    </g>
    <g id="line2d_56">
     <path d="M 429.549438 283.614188 
L 439.549438 283.614188 
L 449.549438 283.614188 
" style="fill: none; stroke: #38598c; stroke-width: 1.5; stroke-linecap: square"/>
    </g>
    <g id="text_30">
     <!-- 0.2 -->
     <g transform="translate(457.549438 287.114188) scale(0.1 -0.1)">
      <use xlink:href="#DejaVuSans-30"/>
      <use xlink:href="#DejaVuSans-2e" x="63.623047"/>
      <use xlink:href="#DejaVuSans-32" x="95.410156"/>
     </g>
    </g>
    <g id="line2d_57">
     <path d="M 429.549438 298.292312 
L 439.549438 298.292312 
L 449.549438 298.292312 
" style="fill: none; stroke: #33628d; stroke-width: 1.5; stroke-linecap: square"/>
    </g>
    <g id="text_31">
     <!-- 0.224 -->
     <g transform="translate(457.549438 301.792312) scale(0.1 -0.1)">
      <use xlink:href="#DejaVuSans-30"/>
      <use xlink:href="#DejaVuSans-2e" x="63.623047"/>
      <use xlink:href="#DejaVuSans-32" x="95.410156"/>
      <use xlink:href="#DejaVuSans-32" x="159.033203"/>
      <use xlink:href="#DejaVuSans-34" x="222.65625"/>
     </g>
    </g>
    <g id="line2d_58">
     <path d="M 512.540062 166.189188 
L 522.540062 166.189188 
L 532.540062 166.189188 
" style="fill: none; stroke: #2f6b8e; stroke-width: 1.5; stroke-linecap: square"/>
    </g>
    <g id="text_32">
     <!-- 0.248 -->
     <g transform="translate(540.540062 169.689188) scale(0.1 -0.1)">
      <use xlink:href="#DejaVuSans-30"/>
      <use xlink:href="#DejaVuSans-2e" x="63.623047"/>
      <use xlink:href="#DejaVuSans-32" x="95.410156"/>
      <use xlink:href="#DejaVuSans-34" x="159.033203"/>
      <use xlink:href="#DejaVuSans-38" x="222.65625"/>
     </g>
    </g>
    <g id="line2d_59">
     <path d="M 512.540062 180.867313 
L 522.540062 180.867313 
L 532.540062 180.867313 
" style="fill: none; stroke: #2c738e; stroke-width: 1.5; stroke-linecap: square"/>
    </g>
    <g id="text_33">
     <!-- 0.272 -->
     <g transform="translate(540.540062 184.367313) scale(0.1 -0.1)">
      <use xlink:href="#DejaVuSans-30"/>
      <use xlink:href="#DejaVuSans-2e" x="63.623047"/>
      <use xlink:href="#DejaVuSans-32" x="95.410156"/>
      <use xlink:href="#DejaVuSans-37" x="159.033203"/>
      <use xlink:href="#DejaVuSans-32" x="222.65625"/>
     </g>
    </g>
    <g id="line2d_60">
     <path d="M 512.540062 195.545438 
L 522.540062 195.545438 
L 532.540062 195.545438 
" style="fill: none; stroke: #297b8e; stroke-width: 1.5; stroke-linecap: square"/>
    </g>
    <g id="text_34">
     <!-- 0.296 -->
     <g transform="translate(540.540062 199.045438) scale(0.1 -0.1)">
      <use xlink:href="#DejaVuSans-30"/>
      <use xlink:href="#DejaVuSans-2e" x="63.623047"/>
      <use xlink:href="#DejaVuSans-32" x="95.410156"/>
      <use xlink:href="#DejaVuSans-39" x="159.033203"/>
      <use xlink:href="#DejaVuSans-36" x="222.65625"/>
     </g>
    </g>
    <g id="line2d_61">
     <path d="M 512.540062 210.223563 
L 522.540062 210.223563 
L 532.540062 210.223563 
" style="fill: none; stroke: #25838e; stroke-width: 1.5; stroke-linecap: square"/>
    </g>
    <g id="text_35">
     <!-- 0.319 -->
     <g transform="translate(540.540062 213.723563) scale(0.1 -0.1)">
      <use xlink:href="#DejaVuSans-30"/>
      <use xlink:href="#DejaVuSans-2e" x="63.623047"/>
      <use xlink:href="#DejaVuSans-33" x="95.410156"/>
      <use xlink:href="#DejaVuSans-31" x="159.033203"/>
      <use xlink:href="#DejaVuSans-39" x="222.65625"/>
     </g>
    </g>
    <g id="line2d_62">
     <path d="M 512.540062 224.901688 
L 522.540062 224.901688 
L 532.540062 224.901688 
" style="fill: none; stroke: #228c8d; stroke-width: 1.5; stroke-linecap: square"/>
    </g>
    <g id="text_36">
     <!-- 0.343 -->
     <g transform="translate(540.540062 228.401688) scale(0.1 -0.1)">
      <use xlink:href="#DejaVuSans-30"/>
      <use xlink:href="#DejaVuSans-2e" x="63.623047"/>
      <use xlink:href="#DejaVuSans-33" x="95.410156"/>
      <use xlink:href="#DejaVuSans-34" x="159.033203"/>
      <use xlink:href="#DejaVuSans-33" x="222.65625"/>
     </g>
    </g>
    <g id="line2d_63">
     <path d="M 512.540062 239.579813 
L 522.540062 239.579813 
L 532.540062 239.579813 
" style="fill: none; stroke: #1f948c; stroke-width: 1.5; stroke-linecap: square"/>
    </g>
    <g id="text_37">
     <!-- 0.367 -->
     <g transform="translate(540.540062 243.079813) scale(0.1 -0.1)">
      <use xlink:href="#DejaVuSans-30"/>
      <use xlink:href="#DejaVuSans-2e" x="63.623047"/>
      <use xlink:href="#DejaVuSans-33" x="95.410156"/>
      <use xlink:href="#DejaVuSans-36" x="159.033203"/>
      <use xlink:href="#DejaVuSans-37" x="222.65625"/>
     </g>
    </g>
    <g id="line2d_64">
     <path d="M 512.540062 254.257938 
L 522.540062 254.257938 
L 532.540062 254.257938 
" style="fill: none; stroke: #1e9d89; stroke-width: 1.5; stroke-linecap: square"/>
    </g>
    <g id="text_38">
     <!-- 0.391 -->
     <g transform="translate(540.540062 257.757938) scale(0.1 -0.1)">
      <use xlink:href="#DejaVuSans-30"/>
      <use xlink:href="#DejaVuSans-2e" x="63.623047"/>
      <use xlink:href="#DejaVuSans-33" x="95.410156"/>
      <use xlink:href="#DejaVuSans-39" x="159.033203"/>
      <use xlink:href="#DejaVuSans-31" x="222.65625"/>
     </g>
    </g>
    <g id="line2d_65">
     <path d="M 512.540062 268.936062 
L 522.540062 268.936062 
L 532.540062 268.936062 
" style="fill: none; stroke: #21a585; stroke-width: 1.5; stroke-linecap: square"/>
    </g>
    <g id="text_39">
     <!-- 0.414 -->
     <g transform="translate(540.540062 272.436062) scale(0.1 -0.1)">
      <use xlink:href="#DejaVuSans-30"/>
      <use xlink:href="#DejaVuSans-2e" x="63.623047"/>
      <use xlink:href="#DejaVuSans-34" x="95.410156"/>
      <use xlink:href="#DejaVuSans-31" x="159.033203"/>
      <use xlink:href="#DejaVuSans-34" x="222.65625"/>
     </g>
    </g>
    <g id="line2d_66">
     <path d="M 512.540062 283.614188 
L 522.540062 283.614188 
L 532.540062 283.614188 
" style="fill: none; stroke: #26ad81; stroke-width: 1.5; stroke-linecap: square"/>
    </g>
    <g id="text_40">
     <!-- 0.438 -->
     <g transform="translate(540.540062 287.114188) scale(0.1 -0.1)">
      <use xlink:href="#DejaVuSans-30"/>
      <use xlink:href="#DejaVuSans-2e" x="63.623047"/>
      <use xlink:href="#DejaVuSans-34" x="95.410156"/>
      <use xlink:href="#DejaVuSans-33" x="159.033203"/>
      <use xlink:href="#DejaVuSans-38" x="222.65625"/>
     </g>
    </g>
    <g id="line2d_67">
     <path d="M 512.540062 298.292312 
L 522.540062 298.292312 
L 532.540062 298.292312 
" style="fill: none; stroke: #31b57b; stroke-width: 1.5; stroke-linecap: square"/>
    </g>
    <g id="text_41">
     <!-- 0.462 -->
     <g transform="translate(540.540062 301.792312) scale(0.1 -0.1)">
      <use xlink:href="#DejaVuSans-30"/>
      <use xlink:href="#DejaVuSans-2e" x="63.623047"/>
      <use xlink:href="#DejaVuSans-34" x="95.410156"/>
      <use xlink:href="#DejaVuSans-36" x="159.033203"/>
      <use xlink:href="#DejaVuSans-32" x="222.65625"/>
     </g>
    </g>
    <g id="line2d_68">
     <path d="M 589.168187 166.189188 
L 599.168187 166.189188 
L 609.168187 166.189188 
" style="fill: none; stroke: #3fbc73; stroke-width: 1.5; stroke-linecap: square"/>
    </g>
    <g id="text_42">
     <!-- 0.486 -->
     <g transform="translate(617.168187 169.689188) scale(0.1 -0.1)">
      <use xlink:href="#DejaVuSans-30"/>
      <use xlink:href="#DejaVuSans-2e" x="63.623047"/>
      <use xlink:href="#DejaVuSans-34" x="95.410156"/>
      <use xlink:href="#DejaVuSans-38" x="159.033203"/>
      <use xlink:href="#DejaVuSans-36" x="222.65625"/>
     </g>
    </g>
    <g id="line2d_69">
     <path d="M 589.168187 180.867313 
L 599.168187 180.867313 
L 609.168187 180.867313 
" style="fill: none; stroke: #50c46a; stroke-width: 1.5; stroke-linecap: square"/>
    </g>
    <g id="text_43">
     <!-- 0.51 -->
     <g transform="translate(617.168187 184.367313) scale(0.1 -0.1)">
      <use xlink:href="#DejaVuSans-30"/>
      <use xlink:href="#DejaVuSans-2e" x="63.623047"/>
      <use xlink:href="#DejaVuSans-35" x="95.410156"/>
      <use xlink:href="#DejaVuSans-31" x="159.033203"/>
     </g>
    </g>
    <g id="line2d_70">
     <path d="M 589.168187 195.545438 
L 599.168187 195.545438 
L 609.168187 195.545438 
" style="fill: none; stroke: #63cb5f; stroke-width: 1.5; stroke-linecap: square"/>
    </g>
    <g id="text_44">
     <!-- 0.533 -->
     <g transform="translate(617.168187 199.045438) scale(0.1 -0.1)">
      <use xlink:href="#DejaVuSans-30"/>
      <use xlink:href="#DejaVuSans-2e" x="63.623047"/>
      <use xlink:href="#DejaVuSans-35" x="95.410156"/>
      <use xlink:href="#DejaVuSans-33" x="159.033203"/>
      <use xlink:href="#DejaVuSans-33" x="222.65625"/>
     </g>
    </g>
    <g id="line2d_71">
     <path d="M 589.168187 210.223563 
L 599.168187 210.223563 
L 609.168187 210.223563 
" style="fill: none; stroke: #77d153; stroke-width: 1.5; stroke-linecap: square"/>
    </g>
    <g id="text_45">
     <!-- 0.557 -->
     <g transform="translate(617.168187 213.723563) scale(0.1 -0.1)">
      <use xlink:href="#DejaVuSans-30"/>
      <use xlink:href="#DejaVuSans-2e" x="63.623047"/>
      <use xlink:href="#DejaVuSans-35" x="95.410156"/>
      <use xlink:href="#DejaVuSans-35" x="159.033203"/>
      <use xlink:href="#DejaVuSans-37" x="222.65625"/>
     </g>
    </g>
    <g id="line2d_72">
     <path d="M 589.168187 224.901688 
L 599.168187 224.901688 
L 609.168187 224.901688 
" style="fill: none; stroke: #8bd646; stroke-width: 1.5; stroke-linecap: square"/>
    </g>
    <g id="text_46">
     <!-- 0.581 -->
     <g transform="translate(617.168187 228.401688) scale(0.1 -0.1)">
      <use xlink:href="#DejaVuSans-30"/>
      <use xlink:href="#DejaVuSans-2e" x="63.623047"/>
      <use xlink:href="#DejaVuSans-35" x="95.410156"/>
      <use xlink:href="#DejaVuSans-38" x="159.033203"/>
      <use xlink:href="#DejaVuSans-31" x="222.65625"/>
     </g>
    </g>
    <g id="line2d_73">
     <path d="M 589.168187 239.579813 
L 599.168187 239.579813 
L 609.168187 239.579813 
" style="fill: none; stroke: #a2da37; stroke-width: 1.5; stroke-linecap: square"/>
    </g>
    <g id="text_47">
     <!-- 0.605 -->
     <g transform="translate(617.168187 243.079813) scale(0.1 -0.1)">
      <use xlink:href="#DejaVuSans-30"/>
      <use xlink:href="#DejaVuSans-2e" x="63.623047"/>
      <use xlink:href="#DejaVuSans-36" x="95.410156"/>
      <use xlink:href="#DejaVuSans-30" x="159.033203"/>
      <use xlink:href="#DejaVuSans-35" x="222.65625"/>
     </g>
    </g>
    <g id="line2d_74">
     <path d="M 589.168187 254.257938 
L 599.168187 254.257938 
L 609.168187 254.257938 
" style="fill: none; stroke: #bade28; stroke-width: 1.5; stroke-linecap: square"/>
    </g>
    <g id="text_48">
     <!-- 0.629 -->
     <g transform="translate(617.168187 257.757938) scale(0.1 -0.1)">
      <use xlink:href="#DejaVuSans-30"/>
      <use xlink:href="#DejaVuSans-2e" x="63.623047"/>
      <use xlink:href="#DejaVuSans-36" x="95.410156"/>
      <use xlink:href="#DejaVuSans-32" x="159.033203"/>
      <use xlink:href="#DejaVuSans-39" x="222.65625"/>
     </g>
    </g>
    <g id="line2d_75">
     <path d="M 589.168187 268.936062 
L 599.168187 268.936062 
L 609.168187 268.936062 
" style="fill: none; stroke: #d2e21b; stroke-width: 1.5; stroke-linecap: square"/>
    </g>
    <g id="text_49">
     <!-- 0.652 -->
     <g transform="translate(617.168187 272.436062) scale(0.1 -0.1)">
      <use xlink:href="#DejaVuSans-30"/>
      <use xlink:href="#DejaVuSans-2e" x="63.623047"/>
      <use xlink:href="#DejaVuSans-36" x="95.410156"/>
      <use xlink:href="#DejaVuSans-35" x="159.033203"/>
      <use xlink:href="#DejaVuSans-32" x="222.65625"/>
     </g>
    </g>
    <g id="line2d_76">
     <path d="M 589.168187 283.614188 
L 599.168187 283.614188 
L 609.168187 283.614188 
" style="fill: none; stroke: #eae51a; stroke-width: 1.5; stroke-linecap: square"/>
    </g>
    <g id="text_50">
     <!-- 0.676 -->
     <g transform="translate(617.168187 287.114188) scale(0.1 -0.1)">
      <use xlink:href="#DejaVuSans-30"/>
      <use xlink:href="#DejaVuSans-2e" x="63.623047"/>
      <use xlink:href="#DejaVuSans-36" x="95.410156"/>
      <use xlink:href="#DejaVuSans-37" x="159.033203"/>
      <use xlink:href="#DejaVuSans-36" x="222.65625"/>
     </g>
    </g>
    <g id="line2d_77">
     <path d="M 589.168187 298.292312 
L 599.168187 298.292312 
L 609.168187 298.292312 
" style="fill: none; stroke: #fde725; stroke-width: 1.5; stroke-linecap: square"/>
    </g>
    <g id="text_51">
     <!-- 0.7 -->
     <g transform="translate(617.168187 301.792312) scale(0.1 -0.1)">
      <use xlink:href="#DejaVuSans-30"/>
      <use xlink:href="#DejaVuSans-2e" x="63.623047"/>
      <use xlink:href="#DejaVuSans-37" x="95.410156"/>
     </g>
    </g>
   </g>
  </g>
  <g id="text_52">
   <!-- x0x1-y1 resonator punchout -->
   <g transform="translate(138.2625 16.318125) scale(0.12 -0.12)">
    <defs>
     <path id="DejaVuSans-78" d="M 3513 3500 
L 2247 1797 
L 3578 0 
L 2900 0 
L 1881 1375 
L 863 0 
L 184 0 
L 1544 1831 
L 300 3500 
L 978 3500 
L 1906 2253 
L 2834 3500 
L 3513 3500 
z
" transform="scale(0.015625)"/>
    </defs>
    <use xlink:href="#DejaVuSans-78"/>
    <use xlink:href="#DejaVuSans-30" x="59.179688"/>
    <use xlink:href="#DejaVuSans-78" x="122.802734"/>
    <use xlink:href="#DejaVuSans-31" x="181.982422"/>
    <use xlink:href="#DejaVuSans-2d" x="245.605469"/>
    <use xlink:href="#DejaVuSans-79" x="279.939453"/>
    <use xlink:href="#DejaVuSans-31" x="339.119141"/>
    <use xlink:href="#DejaVuSans-20" x="402.742188"/>
    <use xlink:href="#DejaVuSans-72" x="434.529297"/>
    <use xlink:href="#DejaVuSans-65" x="473.392578"/>
    <use xlink:href="#DejaVuSans-73" x="534.916016"/>
    <use xlink:href="#DejaVuSans-6f" x="587.015625"/>
    <use xlink:href="#DejaVuSans-6e" x="648.197266"/>
    <use xlink:href="#DejaVuSans-61" x="711.576172"/>
    <use xlink:href="#DejaVuSans-74" x="772.855469"/>
    <use xlink:href="#DejaVuSans-6f" x="812.064453"/>
    <use xlink:href="#DejaVuSans-72" x="873.246094"/>
    <use xlink:href="#DejaVuSans-20" x="914.359375"/>
    <use xlink:href="#DejaVuSans-70" x="946.146484"/>
    <use xlink:href="#DejaVuSans-75" x="1009.623047"/>
    <use xlink:href="#DejaVuSans-6e" x="1073.001953"/>
    <use xlink:href="#DejaVuSans-63" x="1136.380859"/>
    <use xlink:href="#DejaVuSans-68" x="1191.361328"/>
    <use xlink:href="#DejaVuSans-6f" x="1254.740234"/>
    <use xlink:href="#DejaVuSans-75" x="1315.921875"/>
    <use xlink:href="#DejaVuSans-74" x="1379.300781"/>
   </g>
   <!-- tuid: 20231227-194510-733-e32fbf -->
   <g transform="translate(117.062813 29.7555) scale(0.12 -0.12)">
    <defs>
     <path id="DejaVuSans-3a" d="M 750 794 
L 1409 794 
L 1409 0 
L 750 0 
L 750 794 
z
M 750 3309 
L 1409 3309 
L 1409 2516 
L 750 2516 
L 750 3309 
z
" transform="scale(0.015625)"/>
     <path id="DejaVuSans-66" d="M 2375 4863 
L 2375 4384 
L 1825 4384 
Q 1516 4384 1395 4259 
Q 1275 4134 1275 3809 
L 1275 3500 
L 2222 3500 
L 2222 3053 
L 1275 3053 
L 1275 0 
L 697 0 
L 697 3053 
L 147 3053 
L 147 3500 
L 697 3500 
L 697 3744 
Q 697 4328 969 4595 
Q 1241 4863 1831 4863 
L 2375 4863 
z
" transform="scale(0.015625)"/>
     <path id="DejaVuSans-62" d="M 3116 1747 
Q 3116 2381 2855 2742 
Q 2594 3103 2138 3103 
Q 1681 3103 1420 2742 
Q 1159 2381 1159 1747 
Q 1159 1113 1420 752 
Q 1681 391 2138 391 
Q 2594 391 2855 752 
Q 3116 1113 3116 1747 
z
M 1159 2969 
Q 1341 3281 1617 3432 
Q 1894 3584 2278 3584 
Q 2916 3584 3314 3078 
Q 3713 2572 3713 1747 
Q 3713 922 3314 415 
Q 2916 -91 2278 -91 
Q 1894 -91 1617 61 
Q 1341 213 1159 525 
L 1159 0 
L 581 0 
L 581 4863 
L 1159 4863 
L 1159 2969 
z
" transform="scale(0.015625)"/>
    </defs>
    <use xlink:href="#DejaVuSans-74"/>
    <use xlink:href="#DejaVuSans-75" x="39.208984"/>
    <use xlink:href="#DejaVuSans-69" x="102.587891"/>
    <use xlink:href="#DejaVuSans-64" x="130.371094"/>
    <use xlink:href="#DejaVuSans-3a" x="193.847656"/>
    <use xlink:href="#DejaVuSans-20" x="227.539062"/>
    <use xlink:href="#DejaVuSans-32" x="259.326172"/>
    <use xlink:href="#DejaVuSans-30" x="322.949219"/>
    <use xlink:href="#DejaVuSans-32" x="386.572266"/>
    <use xlink:href="#DejaVuSans-33" x="450.195312"/>
    <use xlink:href="#DejaVuSans-31" x="513.818359"/>
    <use xlink:href="#DejaVuSans-32" x="577.441406"/>
    <use xlink:href="#DejaVuSans-32" x="641.064453"/>
    <use xlink:href="#DejaVuSans-37" x="704.6875"/>
    <use xlink:href="#DejaVuSans-2d" x="768.310547"/>
    <use xlink:href="#DejaVuSans-31" x="804.394531"/>
    <use xlink:href="#DejaVuSans-39" x="868.017578"/>
    <use xlink:href="#DejaVuSans-34" x="931.640625"/>
    <use xlink:href="#DejaVuSans-35" x="995.263672"/>
    <use xlink:href="#DejaVuSans-31" x="1058.886719"/>
    <use xlink:href="#DejaVuSans-30" x="1122.509766"/>
    <use xlink:href="#DejaVuSans-2d" x="1186.132812"/>
    <use xlink:href="#DejaVuSans-37" x="1222.216797"/>
    <use xlink:href="#DejaVuSans-33" x="1285.839844"/>
    <use xlink:href="#DejaVuSans-33" x="1349.462891"/>
    <use xlink:href="#DejaVuSans-2d" x="1413.085938"/>
    <use xlink:href="#DejaVuSans-65" x="1449.169922"/>
    <use xlink:href="#DejaVuSans-33" x="1510.693359"/>
    <use xlink:href="#DejaVuSans-32" x="1574.316406"/>
    <use xlink:href="#DejaVuSans-66" x="1637.939453"/>
    <use xlink:href="#DejaVuSans-62" x="1673.144531"/>
    <use xlink:href="#DejaVuSans-66" x="1736.621094"/>
   </g>
  </g>
 </g>
 <defs>
  <clipPath id="p53058d34b7">
   <rect x="50.573438" y="41.76" width="357.12" height="266.112"/>
  </clipPath>
 </defs>
</svg>
