<?xml version="1.0" encoding="utf-8" standalone="no"?>
<!DOCTYPE svg PUBLIC "-//W3C//DTD SVG 1.1//EN"
  "http://www.w3.org/Graphics/SVG/1.1/DTD/svg11.dtd">
<svg xmlns:xlink="http://www.w3.org/1999/xlink" width="647.026pt" height="345.42825pt" viewBox="0 0 647.026 345.42825" xmlns="http://www.w3.org/2000/svg" version="1.1">
 <metadata>
  <rdf:RDF xmlns:dc="http://purl.org/dc/elements/1.1/" xmlns:cc="http://creativecommons.org/ns#" xmlns:rdf="http://www.w3.org/1999/02/22-rdf-syntax-ns#">
   <cc:Work>
    <dc:type rdf:resource="http://purl.org/dc/dcmitype/StillImage"/>
    <dc:date>2023-12-27T19:45:48.363628</dc:date>
    <dc:format>image/svg+xml</dc:format>
    <dc:creator>
     <cc:Agent>
      <dc:title>Matplotlib v3.8.2, https://matplotlib.org/</dc:title>
     </cc:Agent>
    </dc:creator>
   </cc:Work>
  </rdf:RDF>
 </metadata>
 <defs>
  <style type="text/css">*{stroke-linejoin: round; stroke-linecap: butt}</style>
 </defs>
 <g id="figure_1">
  <g id="patch_1">
   <path d="M 0 345.42825 
L 647.026 345.42825 
L 647.026 -0 
L 0 -0 
L 0 345.42825 
z
" style="fill: none; opacity: 0"/>
  </g>
  <g id="axes_1">
   <g id="patch_2">
    <path d="M 40.603125 307.872 
L 397.723125 307.872 
L 397.723125 41.76 
L 40.603125 41.76 
z
" style="fill: #ffffff"/>
   </g>
   <g id="matplotlib.axis_1">
    <g id="xtick_1">
     <g id="line2d_1">
      <defs>
       <path id="m7fc7119d0f" d="M 0 0 
L 0 3.5 
" style="stroke: #000000; stroke-width: 0.8"/>
      </defs>
      <g>
       <use xlink:href="#m7fc7119d0f" x="76.672622" y="307.872" style="stroke: #000000; stroke-width: 0.8"/>
      </g>
     </g>
     <g id="text_1">
      <!-- 718 -->
      <g transform="translate(67.128872 322.470438) scale(0.1 -0.1)">
       <defs>
        <path id="DejaVuSans-37" d="M 525 4666 
L 3525 4666 
L 3525 4397 
L 1831 0 
L 1172 0 
L 2766 4134 
L 525 4134 
L 525 4666 
z
" transform="scale(0.015625)"/>
        <path id="DejaVuSans-31" d="M 794 531 
L 1825 531 
L 1825 4091 
L 703 3866 
L 703 4441 
L 1819 4666 
L 2450 4666 
L 2450 531 
L 3481 531 
L 3481 0 
L 794 0 
L 794 531 
z
" transform="scale(0.015625)"/>
        <path id="DejaVuSans-38" d="M 2034 2216 
Q 1584 2216 1326 1975 
Q 1069 1734 1069 1313 
Q 1069 891 1326 650 
Q 1584 409 2034 409 
Q 2484 409 2743 651 
Q 3003 894 3003 1313 
Q 3003 1734 2745 1975 
Q 2488 2216 2034 2216 
z
M 1403 2484 
Q 997 2584 770 2862 
Q 544 3141 544 3541 
Q 544 4100 942 4425 
Q 1341 4750 2034 4750 
Q 2731 4750 3128 4425 
Q 3525 4100 3525 3541 
Q 3525 3141 3298 2862 
Q 3072 2584 2669 2484 
Q 3125 2378 3379 2068 
Q 3634 1759 3634 1313 
Q 3634 634 3220 271 
Q 2806 -91 2034 -91 
Q 1263 -91 848 271 
Q 434 634 434 1313 
Q 434 1759 690 2068 
Q 947 2378 1403 2484 
z
M 1172 3481 
Q 1172 3119 1398 2916 
Q 1625 2713 2034 2713 
Q 2441 2713 2670 2916 
Q 2900 3119 2900 3481 
Q 2900 3844 2670 4047 
Q 2441 4250 2034 4250 
Q 1625 4250 1398 4047 
Q 1172 3844 1172 3481 
z
" transform="scale(0.015625)"/>
       </defs>
       <use xlink:href="#DejaVuSans-37"/>
       <use xlink:href="#DejaVuSans-31" x="63.623047"/>
       <use xlink:href="#DejaVuSans-38" x="127.246094"/>
      </g>
     </g>
    </g>
    <g id="xtick_2">
     <g id="line2d_2">
      <g>
       <use xlink:href="#m7fc7119d0f" x="117.25444" y="307.872" style="stroke: #000000; stroke-width: 0.8"/>
      </g>
     </g>
     <g id="text_2">
      <!-- 718.5 -->
      <g transform="translate(102.940378 322.470438) scale(0.1 -0.1)">
       <defs>
        <path id="DejaVuSans-2e" d="M 684 794 
L 1344 794 
L 1344 0 
L 684 0 
L 684 794 
z
" transform="scale(0.015625)"/>
        <path id="DejaVuSans-35" d="M 691 4666 
L 3169 4666 
L 3169 4134 
L 1269 4134 
L 1269 2991 
Q 1406 3038 1543 3061 
Q 1681 3084 1819 3084 
Q 2600 3084 3056 2656 
Q 3513 2228 3513 1497 
Q 3513 744 3044 326 
Q 2575 -91 1722 -91 
Q 1428 -91 1123 -41 
Q 819 9 494 109 
L 494 744 
Q 775 591 1075 516 
Q 1375 441 1709 441 
Q 2250 441 2565 725 
Q 2881 1009 2881 1497 
Q 2881 1984 2565 2268 
Q 2250 2553 1709 2553 
Q 1456 2553 1204 2497 
Q 953 2441 691 2322 
L 691 4666 
z
" transform="scale(0.015625)"/>
       </defs>
       <use xlink:href="#DejaVuSans-37"/>
       <use xlink:href="#DejaVuSans-31" x="63.623047"/>
       <use xlink:href="#DejaVuSans-38" x="127.246094"/>
       <use xlink:href="#DejaVuSans-2e" x="190.869141"/>
       <use xlink:href="#DejaVuSans-35" x="222.65625"/>
      </g>
     </g>
    </g>
    <g id="xtick_3">
     <g id="line2d_3">
      <g>
       <use xlink:href="#m7fc7119d0f" x="157.836258" y="307.872" style="stroke: #000000; stroke-width: 0.8"/>
      </g>
     </g>
     <g id="text_3">
      <!-- 719 -->
      <g transform="translate(148.292508 322.470438) scale(0.1 -0.1)">
       <defs>
        <path id="DejaVuSans-39" d="M 703 97 
L 703 672 
Q 941 559 1184 500 
Q 1428 441 1663 441 
Q 2288 441 2617 861 
Q 2947 1281 2994 2138 
Q 2813 1869 2534 1725 
Q 2256 1581 1919 1581 
Q 1219 1581 811 2004 
Q 403 2428 403 3163 
Q 403 3881 828 4315 
Q 1253 4750 1959 4750 
Q 2769 4750 3195 4129 
Q 3622 3509 3622 2328 
Q 3622 1225 3098 567 
Q 2575 -91 1691 -91 
Q 1453 -91 1209 -44 
Q 966 3 703 97 
z
M 1959 2075 
Q 2384 2075 2632 2365 
Q 2881 2656 2881 3163 
Q 2881 3666 2632 3958 
Q 2384 4250 1959 4250 
Q 1534 4250 1286 3958 
Q 1038 3666 1038 3163 
Q 1038 2656 1286 2365 
Q 1534 2075 1959 2075 
z
" transform="scale(0.015625)"/>
       </defs>
       <use xlink:href="#DejaVuSans-37"/>
       <use xlink:href="#DejaVuSans-31" x="63.623047"/>
       <use xlink:href="#DejaVuSans-39" x="127.246094"/>
      </g>
     </g>
    </g>
    <g id="xtick_4">
     <g id="line2d_4">
      <g>
       <use xlink:href="#m7fc7119d0f" x="198.418077" y="307.872" style="stroke: #000000; stroke-width: 0.8"/>
      </g>
     </g>
     <g id="text_4">
      <!-- 719.5 -->
      <g transform="translate(184.104014 322.470438) scale(0.1 -0.1)">
       <use xlink:href="#DejaVuSans-37"/>
       <use xlink:href="#DejaVuSans-31" x="63.623047"/>
       <use xlink:href="#DejaVuSans-39" x="127.246094"/>
       <use xlink:href="#DejaVuSans-2e" x="190.869141"/>
       <use xlink:href="#DejaVuSans-35" x="222.65625"/>
      </g>
     </g>
    </g>
    <g id="xtick_5">
     <g id="line2d_5">
      <g>
       <use xlink:href="#m7fc7119d0f" x="238.999895" y="307.872" style="stroke: #000000; stroke-width: 0.8"/>
      </g>
     </g>
     <g id="text_5">
      <!-- 720 -->
      <g transform="translate(229.456145 322.470438) scale(0.1 -0.1)">
       <defs>
        <path id="DejaVuSans-32" d="M 1228 531 
L 3431 531 
L 3431 0 
L 469 0 
L 469 531 
Q 828 903 1448 1529 
Q 2069 2156 2228 2338 
Q 2531 2678 2651 2914 
Q 2772 3150 2772 3378 
Q 2772 3750 2511 3984 
Q 2250 4219 1831 4219 
Q 1534 4219 1204 4116 
Q 875 4013 500 3803 
L 500 4441 
Q 881 4594 1212 4672 
Q 1544 4750 1819 4750 
Q 2544 4750 2975 4387 
Q 3406 4025 3406 3419 
Q 3406 3131 3298 2873 
Q 3191 2616 2906 2266 
Q 2828 2175 2409 1742 
Q 1991 1309 1228 531 
z
" transform="scale(0.015625)"/>
        <path id="DejaVuSans-30" d="M 2034 4250 
Q 1547 4250 1301 3770 
Q 1056 3291 1056 2328 
Q 1056 1369 1301 889 
Q 1547 409 2034 409 
Q 2525 409 2770 889 
Q 3016 1369 3016 2328 
Q 3016 3291 2770 3770 
Q 2525 4250 2034 4250 
z
M 2034 4750 
Q 2819 4750 3233 4129 
Q 3647 3509 3647 2328 
Q 3647 1150 3233 529 
Q 2819 -91 2034 -91 
Q 1250 -91 836 529 
Q 422 1150 422 2328 
Q 422 3509 836 4129 
Q 1250 4750 2034 4750 
z
" transform="scale(0.015625)"/>
       </defs>
       <use xlink:href="#DejaVuSans-37"/>
       <use xlink:href="#DejaVuSans-32" x="63.623047"/>
       <use xlink:href="#DejaVuSans-30" x="127.246094"/>
      </g>
     </g>
    </g>
    <g id="xtick_6">
     <g id="line2d_6">
      <g>
       <use xlink:href="#m7fc7119d0f" x="279.581713" y="307.872" style="stroke: #000000; stroke-width: 0.8"/>
      </g>
     </g>
     <g id="text_6">
      <!-- 720.5 -->
      <g transform="translate(265.26765 322.470438) scale(0.1 -0.1)">
       <use xlink:href="#DejaVuSans-37"/>
       <use xlink:href="#DejaVuSans-32" x="63.623047"/>
       <use xlink:href="#DejaVuSans-30" x="127.246094"/>
       <use xlink:href="#DejaVuSans-2e" x="190.869141"/>
       <use xlink:href="#DejaVuSans-35" x="222.65625"/>
      </g>
     </g>
    </g>
    <g id="xtick_7">
     <g id="line2d_7">
      <g>
       <use xlink:href="#m7fc7119d0f" x="320.163531" y="307.872" style="stroke: #000000; stroke-width: 0.8"/>
      </g>
     </g>
     <g id="text_7">
      <!-- 721 -->
      <g transform="translate(310.619781 322.470438) scale(0.1 -0.1)">
       <use xlink:href="#DejaVuSans-37"/>
       <use xlink:href="#DejaVuSans-32" x="63.623047"/>
       <use xlink:href="#DejaVuSans-31" x="127.246094"/>
      </g>
     </g>
    </g>
    <g id="xtick_8">
     <g id="line2d_8">
      <g>
       <use xlink:href="#m7fc7119d0f" x="360.745349" y="307.872" style="stroke: #000000; stroke-width: 0.8"/>
      </g>
     </g>
     <g id="text_8">
      <!-- 721.5 -->
      <g transform="translate(346.431287 322.470438) scale(0.1 -0.1)">
       <use xlink:href="#DejaVuSans-37"/>
       <use xlink:href="#DejaVuSans-32" x="63.623047"/>
       <use xlink:href="#DejaVuSans-31" x="127.246094"/>
       <use xlink:href="#DejaVuSans-2e" x="190.869141"/>
       <use xlink:href="#DejaVuSans-35" x="222.65625"/>
      </g>
     </g>
    </g>
    <g id="text_9">
     <!-- Frequency [MHz] -->
     <g transform="translate(177.144375 336.148562) scale(0.1 -0.1)">
      <defs>
       <path id="DejaVuSans-46" d="M 628 4666 
L 3309 4666 
L 3309 4134 
L 1259 4134 
L 1259 2759 
L 3109 2759 
L 3109 2228 
L 1259 2228 
L 1259 0 
L 628 0 
L 628 4666 
z
" transform="scale(0.015625)"/>
       <path id="DejaVuSans-72" d="M 2631 2963 
Q 2534 3019 2420 3045 
Q 2306 3072 2169 3072 
Q 1681 3072 1420 2755 
Q 1159 2438 1159 1844 
L 1159 0 
L 581 0 
L 581 3500 
L 1159 3500 
L 1159 2956 
Q 1341 3275 1631 3429 
Q 1922 3584 2338 3584 
Q 2397 3584 2469 3576 
Q 2541 3569 2628 3553 
L 2631 2963 
z
" transform="scale(0.015625)"/>
       <path id="DejaVuSans-65" d="M 3597 1894 
L 3597 1613 
L 953 1613 
Q 991 1019 1311 708 
Q 1631 397 2203 397 
Q 2534 397 2845 478 
Q 3156 559 3463 722 
L 3463 178 
Q 3153 47 2828 -22 
Q 2503 -91 2169 -91 
Q 1331 -91 842 396 
Q 353 884 353 1716 
Q 353 2575 817 3079 
Q 1281 3584 2069 3584 
Q 2775 3584 3186 3129 
Q 3597 2675 3597 1894 
z
M 3022 2063 
Q 3016 2534 2758 2815 
Q 2500 3097 2075 3097 
Q 1594 3097 1305 2825 
Q 1016 2553 972 2059 
L 3022 2063 
z
" transform="scale(0.015625)"/>
       <path id="DejaVuSans-71" d="M 947 1747 
Q 947 1113 1208 752 
Q 1469 391 1925 391 
Q 2381 391 2643 752 
Q 2906 1113 2906 1747 
Q 2906 2381 2643 2742 
Q 2381 3103 1925 3103 
Q 1469 3103 1208 2742 
Q 947 2381 947 1747 
z
M 2906 525 
Q 2725 213 2448 61 
Q 2172 -91 1784 -91 
Q 1150 -91 751 415 
Q 353 922 353 1747 
Q 353 2572 751 3078 
Q 1150 3584 1784 3584 
Q 2172 3584 2448 3432 
Q 2725 3281 2906 2969 
L 2906 3500 
L 3481 3500 
L 3481 -1331 
L 2906 -1331 
L 2906 525 
z
" transform="scale(0.015625)"/>
       <path id="DejaVuSans-75" d="M 544 1381 
L 544 3500 
L 1119 3500 
L 1119 1403 
Q 1119 906 1312 657 
Q 1506 409 1894 409 
Q 2359 409 2629 706 
Q 2900 1003 2900 1516 
L 2900 3500 
L 3475 3500 
L 3475 0 
L 2900 0 
L 2900 538 
Q 2691 219 2414 64 
Q 2138 -91 1772 -91 
Q 1169 -91 856 284 
Q 544 659 544 1381 
z
M 1991 3584 
L 1991 3584 
z
" transform="scale(0.015625)"/>
       <path id="DejaVuSans-6e" d="M 3513 2113 
L 3513 0 
L 2938 0 
L 2938 2094 
Q 2938 2591 2744 2837 
Q 2550 3084 2163 3084 
Q 1697 3084 1428 2787 
Q 1159 2491 1159 1978 
L 1159 0 
L 581 0 
L 581 3500 
L 1159 3500 
L 1159 2956 
Q 1366 3272 1645 3428 
Q 1925 3584 2291 3584 
Q 2894 3584 3203 3211 
Q 3513 2838 3513 2113 
z
" transform="scale(0.015625)"/>
       <path id="DejaVuSans-63" d="M 3122 3366 
L 3122 2828 
Q 2878 2963 2633 3030 
Q 2388 3097 2138 3097 
Q 1578 3097 1268 2742 
Q 959 2388 959 1747 
Q 959 1106 1268 751 
Q 1578 397 2138 397 
Q 2388 397 2633 464 
Q 2878 531 3122 666 
L 3122 134 
Q 2881 22 2623 -34 
Q 2366 -91 2075 -91 
Q 1284 -91 818 406 
Q 353 903 353 1747 
Q 353 2603 823 3093 
Q 1294 3584 2113 3584 
Q 2378 3584 2631 3529 
Q 2884 3475 3122 3366 
z
" transform="scale(0.015625)"/>
       <path id="DejaVuSans-79" d="M 2059 -325 
Q 1816 -950 1584 -1140 
Q 1353 -1331 966 -1331 
L 506 -1331 
L 506 -850 
L 844 -850 
Q 1081 -850 1212 -737 
Q 1344 -625 1503 -206 
L 1606 56 
L 191 3500 
L 800 3500 
L 1894 763 
L 2988 3500 
L 3597 3500 
L 2059 -325 
z
" transform="scale(0.015625)"/>
       <path id="DejaVuSans-20" transform="scale(0.015625)"/>
       <path id="DejaVuSans-5b" d="M 550 4863 
L 1875 4863 
L 1875 4416 
L 1125 4416 
L 1125 -397 
L 1875 -397 
L 1875 -844 
L 550 -844 
L 550 4863 
z
" transform="scale(0.015625)"/>
       <path id="DejaVuSans-4d" d="M 628 4666 
L 1569 4666 
L 2759 1491 
L 3956 4666 
L 4897 4666 
L 4897 0 
L 4281 0 
L 4281 4097 
L 3078 897 
L 2444 897 
L 1241 4097 
L 1241 0 
L 628 0 
L 628 4666 
z
" transform="scale(0.015625)"/>
       <path id="DejaVuSans-48" d="M 628 4666 
L 1259 4666 
L 1259 2753 
L 3553 2753 
L 3553 4666 
L 4184 4666 
L 4184 0 
L 3553 0 
L 3553 2222 
L 1259 2222 
L 1259 0 
L 628 0 
L 628 4666 
z
" transform="scale(0.015625)"/>
       <path id="DejaVuSans-7a" d="M 353 3500 
L 3084 3500 
L 3084 2975 
L 922 459 
L 3084 459 
L 3084 0 
L 275 0 
L 275 525 
L 2438 3041 
L 353 3041 
L 353 3500 
z
" transform="scale(0.015625)"/>
       <path id="DejaVuSans-5d" d="M 1947 4863 
L 1947 -844 
L 622 -844 
L 622 -397 
L 1369 -397 
L 1369 4416 
L 622 4416 
L 622 4863 
L 1947 4863 
z
" transform="scale(0.015625)"/>
      </defs>
      <use xlink:href="#DejaVuSans-46"/>
      <use xlink:href="#DejaVuSans-72" x="50.269531"/>
      <use xlink:href="#DejaVuSans-65" x="89.132812"/>
      <use xlink:href="#DejaVuSans-71" x="150.65625"/>
      <use xlink:href="#DejaVuSans-75" x="214.132812"/>
      <use xlink:href="#DejaVuSans-65" x="277.511719"/>
      <use xlink:href="#DejaVuSans-6e" x="339.035156"/>
      <use xlink:href="#DejaVuSans-63" x="402.414062"/>
      <use xlink:href="#DejaVuSans-79" x="457.394531"/>
      <use xlink:href="#DejaVuSans-20" x="516.574219"/>
      <use xlink:href="#DejaVuSans-5b" x="548.361328"/>
      <use xlink:href="#DejaVuSans-4d" x="587.375"/>
      <use xlink:href="#DejaVuSans-48" x="673.654297"/>
      <use xlink:href="#DejaVuSans-7a" x="748.849609"/>
      <use xlink:href="#DejaVuSans-5d" x="801.339844"/>
     </g>
    </g>
    <g id="text_10">
     <!-- +5 GHz -->
     <g transform="translate(359.285625 335.148562) scale(0.1 -0.1)">
      <defs>
       <path id="DejaVuSans-2b" d="M 2944 4013 
L 2944 2272 
L 4684 2272 
L 4684 1741 
L 2944 1741 
L 2944 0 
L 2419 0 
L 2419 1741 
L 678 1741 
L 678 2272 
L 2419 2272 
L 2419 4013 
L 2944 4013 
z
" transform="scale(0.015625)"/>
       <path id="DejaVuSans-47" d="M 3809 666 
L 3809 1919 
L 2778 1919 
L 2778 2438 
L 4434 2438 
L 4434 434 
Q 4069 175 3628 42 
Q 3188 -91 2688 -91 
Q 1594 -91 976 548 
Q 359 1188 359 2328 
Q 359 3472 976 4111 
Q 1594 4750 2688 4750 
Q 3144 4750 3555 4637 
Q 3966 4525 4313 4306 
L 4313 3634 
Q 3963 3931 3569 4081 
Q 3175 4231 2741 4231 
Q 1884 4231 1454 3753 
Q 1025 3275 1025 2328 
Q 1025 1384 1454 906 
Q 1884 428 2741 428 
Q 3075 428 3337 486 
Q 3600 544 3809 666 
z
" transform="scale(0.015625)"/>
      </defs>
      <use xlink:href="#DejaVuSans-2b"/>
      <use xlink:href="#DejaVuSans-35" x="83.789062"/>
      <use xlink:href="#DejaVuSans-20" x="147.412109"/>
      <use xlink:href="#DejaVuSans-47" x="179.199219"/>
      <use xlink:href="#DejaVuSans-48" x="256.689453"/>
      <use xlink:href="#DejaVuSans-7a" x="331.884766"/>
     </g>
    </g>
   </g>
   <g id="matplotlib.axis_2">
    <g id="ytick_1">
     <g id="line2d_9">
      <defs>
       <path id="m0dbbe98e47" d="M 0 0 
L -3.5 0 
" style="stroke: #000000; stroke-width: 0.8"/>
      </defs>
      <g>
       <use xlink:href="#m0dbbe98e47" x="40.603125" y="297.45725" style="stroke: #000000; stroke-width: 0.8"/>
      </g>
     </g>
     <g id="text_11">
      <!-- 0 -->
      <g transform="translate(27.240625 301.256468) scale(0.1 -0.1)">
       <use xlink:href="#DejaVuSans-30"/>
      </g>
     </g>
    </g>
    <g id="ytick_2">
     <g id="line2d_10">
      <g>
       <use xlink:href="#m0dbbe98e47" x="40.603125" y="253.793747" style="stroke: #000000; stroke-width: 0.8"/>
      </g>
     </g>
     <g id="text_12">
      <!-- 5 -->
      <g transform="translate(27.240625 257.592965) scale(0.1 -0.1)">
       <use xlink:href="#DejaVuSans-35"/>
      </g>
     </g>
    </g>
    <g id="ytick_3">
     <g id="line2d_11">
      <g>
       <use xlink:href="#m0dbbe98e47" x="40.603125" y="210.130243" style="stroke: #000000; stroke-width: 0.8"/>
      </g>
     </g>
     <g id="text_13">
      <!-- 10 -->
      <g transform="translate(20.878125 213.929462) scale(0.1 -0.1)">
       <use xlink:href="#DejaVuSans-31"/>
       <use xlink:href="#DejaVuSans-30" x="63.623047"/>
      </g>
     </g>
    </g>
    <g id="ytick_4">
     <g id="line2d_12">
      <g>
       <use xlink:href="#m0dbbe98e47" x="40.603125" y="166.46674" style="stroke: #000000; stroke-width: 0.8"/>
      </g>
     </g>
     <g id="text_14">
      <!-- 15 -->
      <g transform="translate(20.878125 170.265959) scale(0.1 -0.1)">
       <use xlink:href="#DejaVuSans-31"/>
       <use xlink:href="#DejaVuSans-35" x="63.623047"/>
      </g>
     </g>
    </g>
    <g id="ytick_5">
     <g id="line2d_13">
      <g>
       <use xlink:href="#m0dbbe98e47" x="40.603125" y="122.803237" style="stroke: #000000; stroke-width: 0.8"/>
      </g>
     </g>
     <g id="text_15">
      <!-- 20 -->
      <g transform="translate(20.878125 126.602456) scale(0.1 -0.1)">
       <use xlink:href="#DejaVuSans-32"/>
       <use xlink:href="#DejaVuSans-30" x="63.623047"/>
      </g>
     </g>
    </g>
    <g id="ytick_6">
     <g id="line2d_14">
      <g>
       <use xlink:href="#m0dbbe98e47" x="40.603125" y="79.139734" style="stroke: #000000; stroke-width: 0.8"/>
      </g>
     </g>
     <g id="text_16">
      <!-- 25 -->
      <g transform="translate(20.878125 82.938953) scale(0.1 -0.1)">
       <use xlink:href="#DejaVuSans-32"/>
       <use xlink:href="#DejaVuSans-35" x="63.623047"/>
      </g>
     </g>
    </g>
    <g id="text_17">
     <!-- Magnitude0 [mV] -->
     <g transform="translate(14.798438 218.268344) rotate(-90) scale(0.1 -0.1)">
      <defs>
       <path id="DejaVuSans-61" d="M 2194 1759 
Q 1497 1759 1228 1600 
Q 959 1441 959 1056 
Q 959 750 1161 570 
Q 1363 391 1709 391 
Q 2188 391 2477 730 
Q 2766 1069 2766 1631 
L 2766 1759 
L 2194 1759 
z
M 3341 1997 
L 3341 0 
L 2766 0 
L 2766 531 
Q 2569 213 2275 61 
Q 1981 -91 1556 -91 
Q 1019 -91 701 211 
Q 384 513 384 1019 
Q 384 1609 779 1909 
Q 1175 2209 1959 2209 
L 2766 2209 
L 2766 2266 
Q 2766 2663 2505 2880 
Q 2244 3097 1772 3097 
Q 1472 3097 1187 3025 
Q 903 2953 641 2809 
L 641 3341 
Q 956 3463 1253 3523 
Q 1550 3584 1831 3584 
Q 2591 3584 2966 3190 
Q 3341 2797 3341 1997 
z
" transform="scale(0.015625)"/>
       <path id="DejaVuSans-67" d="M 2906 1791 
Q 2906 2416 2648 2759 
Q 2391 3103 1925 3103 
Q 1463 3103 1205 2759 
Q 947 2416 947 1791 
Q 947 1169 1205 825 
Q 1463 481 1925 481 
Q 2391 481 2648 825 
Q 2906 1169 2906 1791 
z
M 3481 434 
Q 3481 -459 3084 -895 
Q 2688 -1331 1869 -1331 
Q 1566 -1331 1297 -1286 
Q 1028 -1241 775 -1147 
L 775 -588 
Q 1028 -725 1275 -790 
Q 1522 -856 1778 -856 
Q 2344 -856 2625 -561 
Q 2906 -266 2906 331 
L 2906 616 
Q 2728 306 2450 153 
Q 2172 0 1784 0 
Q 1141 0 747 490 
Q 353 981 353 1791 
Q 353 2603 747 3093 
Q 1141 3584 1784 3584 
Q 2172 3584 2450 3431 
Q 2728 3278 2906 2969 
L 2906 3500 
L 3481 3500 
L 3481 434 
z
" transform="scale(0.015625)"/>
       <path id="DejaVuSans-69" d="M 603 3500 
L 1178 3500 
L 1178 0 
L 603 0 
L 603 3500 
z
M 603 4863 
L 1178 4863 
L 1178 4134 
L 603 4134 
L 603 4863 
z
" transform="scale(0.015625)"/>
       <path id="DejaVuSans-74" d="M 1172 4494 
L 1172 3500 
L 2356 3500 
L 2356 3053 
L 1172 3053 
L 1172 1153 
Q 1172 725 1289 603 
Q 1406 481 1766 481 
L 2356 481 
L 2356 0 
L 1766 0 
Q 1100 0 847 248 
Q 594 497 594 1153 
L 594 3053 
L 172 3053 
L 172 3500 
L 594 3500 
L 594 4494 
L 1172 4494 
z
" transform="scale(0.015625)"/>
       <path id="DejaVuSans-64" d="M 2906 2969 
L 2906 4863 
L 3481 4863 
L 3481 0 
L 2906 0 
L 2906 525 
Q 2725 213 2448 61 
Q 2172 -91 1784 -91 
Q 1150 -91 751 415 
Q 353 922 353 1747 
Q 353 2572 751 3078 
Q 1150 3584 1784 3584 
Q 2172 3584 2448 3432 
Q 2725 3281 2906 2969 
z
M 947 1747 
Q 947 1113 1208 752 
Q 1469 391 1925 391 
Q 2381 391 2643 752 
Q 2906 1113 2906 1747 
Q 2906 2381 2643 2742 
Q 2381 3103 1925 3103 
Q 1469 3103 1208 2742 
Q 947 2381 947 1747 
z
" transform="scale(0.015625)"/>
       <path id="DejaVuSans-6d" d="M 3328 2828 
Q 3544 3216 3844 3400 
Q 4144 3584 4550 3584 
Q 5097 3584 5394 3201 
Q 5691 2819 5691 2113 
L 5691 0 
L 5113 0 
L 5113 2094 
Q 5113 2597 4934 2840 
Q 4756 3084 4391 3084 
Q 3944 3084 3684 2787 
Q 3425 2491 3425 1978 
L 3425 0 
L 2847 0 
L 2847 2094 
Q 2847 2600 2669 2842 
Q 2491 3084 2119 3084 
Q 1678 3084 1418 2786 
Q 1159 2488 1159 1978 
L 1159 0 
L 581 0 
L 581 3500 
L 1159 3500 
L 1159 2956 
Q 1356 3278 1631 3431 
Q 1906 3584 2284 3584 
Q 2666 3584 2933 3390 
Q 3200 3197 3328 2828 
z
" transform="scale(0.015625)"/>
       <path id="DejaVuSans-56" d="M 1831 0 
L 50 4666 
L 709 4666 
L 2188 738 
L 3669 4666 
L 4325 4666 
L 2547 0 
L 1831 0 
z
" transform="scale(0.015625)"/>
      </defs>
      <use xlink:href="#DejaVuSans-4d"/>
      <use xlink:href="#DejaVuSans-61" x="86.279297"/>
      <use xlink:href="#DejaVuSans-67" x="147.558594"/>
      <use xlink:href="#DejaVuSans-6e" x="211.035156"/>
      <use xlink:href="#DejaVuSans-69" x="274.414062"/>
      <use xlink:href="#DejaVuSans-74" x="302.197266"/>
      <use xlink:href="#DejaVuSans-75" x="341.40625"/>
      <use xlink:href="#DejaVuSans-64" x="404.785156"/>
      <use xlink:href="#DejaVuSans-65" x="468.261719"/>
      <use xlink:href="#DejaVuSans-30" x="529.785156"/>
      <use xlink:href="#DejaVuSans-20" x="593.408203"/>
      <use xlink:href="#DejaVuSans-5b" x="625.195312"/>
      <use xlink:href="#DejaVuSans-6d" x="664.208984"/>
      <use xlink:href="#DejaVuSans-56" x="761.621094"/>
      <use xlink:href="#DejaVuSans-5d" x="830.029297"/>
     </g>
    </g>
   </g>
   <g id="line2d_15">
    <path d="M 56.835852 293.705442 
L 68.030837 294.15802 
L 79.225821 293.985433 
L 90.420805 294.235062 
L 101.61579 293.496576 
L 112.810774 294.470169 
L 124.005758 294.44299 
L 135.200743 294.845911 
L 146.395727 295.215612 
L 157.590711 295.434507 
L 168.785696 295.117863 
L 179.98068 295.56764 
L 191.175664 295.442149 
L 202.370649 295.776 
L 213.565633 293.689391 
L 224.760617 294.101271 
L 235.955601 294.385417 
L 247.150586 294.011832 
L 258.34557 294.705831 
L 269.540554 294.686339 
L 280.735539 294.665901 
L 291.930523 293.556213 
L 303.125507 293.98661 
L 314.320492 294.938883 
L 325.515476 294.554049 
L 336.71046 293.303273 
L 347.905445 293.982295 
L 359.100429 293.918531 
L 370.295413 293.781441 
L 381.490398 295.059029 
" clip-path="url(#p1594590130)" style="fill: none; stroke: #440154; stroke-width: 1.5; stroke-linecap: square"/>
   </g>
   <g id="line2d_16">
    <path d="M 56.835852 285.507371 
L 68.030837 284.882141 
L 79.225821 285.009992 
L 90.420805 285.375643 
L 101.61579 286.06701 
L 112.810774 286.476941 
L 124.005758 288.782425 
L 135.200743 290.134752 
L 146.395727 292.12622 
L 157.590711 291.642654 
L 168.785696 291.20489 
L 179.98068 290.051746 
L 191.175664 289.781793 
L 202.370649 288.649602 
L 213.565633 288.220769 
L 224.760617 287.904361 
L 235.955601 286.881801 
L 247.150586 287.377813 
L 258.34557 287.042806 
L 269.540554 286.951001 
L 280.735539 286.259319 
L 291.930523 287.20241 
L 303.125507 286.791657 
L 314.320492 286.967553 
L 325.515476 286.189774 
L 336.71046 287.096217 
L 347.905445 285.599057 
L 359.100429 286.447852 
L 370.295413 285.717945 
L 381.490398 286.368353 
" clip-path="url(#p1594590130)" style="fill: none; stroke: #470d60; stroke-width: 1.5; stroke-linecap: square"/>
   </g>
   <g id="line2d_17">
    <path d="M 56.835852 275.430506 
L 68.030837 275.789443 
L 79.225821 275.888576 
L 90.420805 276.086686 
L 101.61579 276.744678 
L 112.810774 279.065364 
L 124.005758 282.000736 
L 135.200743 285.477568 
L 146.395727 287.288401 
L 157.590711 288.992946 
L 168.785696 286.596352 
L 179.98068 285.087821 
L 191.175664 284.112949 
L 202.370649 282.194603 
L 213.565633 281.323518 
L 224.760617 280.593825 
L 235.955601 280.540044 
L 247.150586 280.347308 
L 258.34557 280.469623 
L 269.540554 279.397204 
L 280.735539 279.342487 
L 291.930523 279.177574 
L 303.125507 279.051467 
L 314.320492 278.839542 
L 325.515476 278.603308 
L 336.71046 278.659801 
L 347.905445 278.7968 
L 359.100429 278.495129 
L 370.295413 278.796786 
L 381.490398 278.298729 
" clip-path="url(#p1594590130)" style="fill: none; stroke: #481a6c; stroke-width: 1.5; stroke-linecap: square"/>
   </g>
   <g id="line2d_18">
    <path d="M 56.835852 266.168214 
L 68.030837 266.813073 
L 79.225821 267.898766 
L 90.420805 268.019547 
L 101.61579 268.855705 
L 112.810774 271.593047 
L 124.005758 275.616807 
L 135.200743 280.155169 
L 146.395727 282.988008 
L 157.590711 284.611262 
L 168.785696 283.060517 
L 179.98068 280.083847 
L 191.175664 278.362547 
L 202.370649 275.394932 
L 213.565633 274.289215 
L 224.760617 274.468824 
L 235.955601 274.047548 
L 247.150586 273.33754 
L 258.34557 271.915819 
L 269.540554 272.076757 
L 280.735539 271.881019 
L 291.930523 272.075479 
L 303.125507 271.795557 
L 314.320492 270.726618 
L 325.515476 271.095704 
L 336.71046 271.23931 
L 347.905445 270.857585 
L 359.100429 270.84549 
L 370.295413 270.275646 
L 381.490398 270.060617 
" clip-path="url(#p1594590130)" style="fill: none; stroke: #482576; stroke-width: 1.5; stroke-linecap: square"/>
   </g>
   <g id="line2d_19">
    <path d="M 56.835852 258.544603 
L 68.030837 259.185002 
L 79.225821 258.300082 
L 90.420805 258.403877 
L 101.61579 260.629799 
L 112.810774 264.475717 
L 124.005758 270.103274 
L 135.200743 275.240519 
L 146.395727 278.79711 
L 157.590711 280.291434 
L 168.785696 278.98452 
L 179.98068 274.767341 
L 191.175664 272.501375 
L 202.370649 270.142834 
L 213.565633 268.067873 
L 224.760617 267.339922 
L 235.955601 265.864277 
L 247.150586 265.377308 
L 258.34557 265.559289 
L 269.540554 265.42905 
L 280.735539 264.675798 
L 291.930523 264.386814 
L 303.125507 262.911196 
L 314.320492 264.254884 
L 325.515476 264.085376 
L 336.71046 263.175824 
L 347.905445 263.172776 
L 359.100429 263.194858 
L 370.295413 262.623347 
L 381.490398 262.867548 
" clip-path="url(#p1594590130)" style="fill: none; stroke: #46307e; stroke-width: 1.5; stroke-linecap: square"/>
   </g>
   <g id="line2d_20">
    <path d="M 56.835852 249.789234 
L 68.030837 249.680626 
L 79.225821 250.507345 
L 90.420805 250.112439 
L 101.61579 253.835079 
L 112.810774 257.928227 
L 124.005758 264.685793 
L 135.200743 270.720158 
L 146.395727 275.316287 
L 157.590711 275.82161 
L 168.785696 273.910943 
L 179.98068 269.494965 
L 191.175664 266.367932 
L 202.370649 263.469767 
L 213.565633 262.617275 
L 224.760617 260.467946 
L 235.955601 258.612534 
L 247.150586 258.738342 
L 258.34557 257.885351 
L 269.540554 256.871573 
L 280.735539 257.361832 
L 291.930523 256.996198 
L 303.125507 256.996636 
L 314.320492 256.121191 
L 325.515476 255.744723 
L 336.71046 255.14809 
L 347.905445 255.262481 
L 359.100429 255.246788 
L 370.295413 254.446824 
L 381.490398 254.771514 
" clip-path="url(#p1594590130)" style="fill: none; stroke: #443b84; stroke-width: 1.5; stroke-linecap: square"/>
   </g>
   <g id="line2d_21">
    <path d="M 56.835852 240.698789 
L 68.030837 241.565693 
L 79.225821 240.382846 
L 90.420805 242.233398 
L 101.61579 245.901661 
L 112.810774 251.717469 
L 124.005758 258.509713 
L 135.200743 265.907134 
L 146.395727 270.630205 
L 157.590711 270.289945 
L 168.785696 266.789329 
L 179.98068 262.728683 
L 191.175664 259.292302 
L 202.370649 256.877474 
L 213.565633 254.449201 
L 224.760617 254.249815 
L 235.955601 252.998191 
L 247.150586 250.433816 
L 258.34557 250.177139 
L 269.540554 250.024209 
L 280.735539 249.821293 
L 291.930523 248.955293 
L 303.125507 247.856714 
L 314.320492 248.438244 
L 325.515476 248.677092 
L 336.71046 248.339924 
L 347.905445 248.215559 
L 359.100429 248.36554 
L 370.295413 247.443744 
L 381.490398 247.401053 
" clip-path="url(#p1594590130)" style="fill: none; stroke: #404588; stroke-width: 1.5; stroke-linecap: square"/>
   </g>
   <g id="line2d_22">
    <path d="M 56.835852 231.943129 
L 68.030837 230.846522 
L 79.225821 232.581037 
L 90.420805 234.545358 
L 101.61579 238.329768 
L 112.810774 245.388679 
L 124.005758 253.88357 
L 135.200743 262.091811 
L 146.395727 265.321616 
L 157.590711 264.374402 
L 168.785696 261.14668 
L 179.98068 257.529001 
L 191.175664 252.763592 
L 202.370649 250.243617 
L 213.565633 247.875767 
L 224.760617 246.810427 
L 235.955601 245.431325 
L 247.150586 245.037313 
L 258.34557 243.709579 
L 269.540554 243.03145 
L 280.735539 241.452816 
L 291.930523 241.939684 
L 303.125507 240.903389 
L 314.320492 240.370384 
L 325.515476 241.281515 
L 336.71046 240.618104 
L 347.905445 239.897339 
L 359.100429 240.694024 
L 370.295413 238.619684 
L 381.490398 239.535284 
" clip-path="url(#p1594590130)" style="fill: none; stroke: #3c4f8a; stroke-width: 1.5; stroke-linecap: square"/>
   </g>
   <g id="line2d_23">
    <path d="M 56.835852 222.118803 
L 68.030837 224.545153 
L 79.225821 224.0695 
L 90.420805 225.932632 
L 101.61579 232.929382 
L 112.810774 240.544616 
L 124.005758 250.075252 
L 135.200743 257.837575 
L 146.395727 259.686269 
L 157.590711 258.695627 
L 168.785696 254.564473 
L 179.98068 250.026879 
L 191.175664 246.99789 
L 202.370649 243.299252 
L 213.565633 241.090462 
L 224.760617 239.605999 
L 235.955601 238.821156 
L 247.150586 237.390692 
L 258.34557 235.505395 
L 269.540554 235.58041 
L 280.735539 234.009903 
L 291.930523 234.603419 
L 303.125507 233.273072 
L 314.320492 233.055645 
L 325.515476 232.564719 
L 336.71046 232.418106 
L 347.905445 232.203726 
L 359.100429 231.575704 
L 370.295413 231.92075 
L 381.490398 230.8762 
" clip-path="url(#p1594590130)" style="fill: none; stroke: #38598c; stroke-width: 1.5; stroke-linecap: square"/>
   </g>
   <g id="line2d_24">
    <path d="M 56.835852 213.974445 
L 68.030837 214.49404 
L 79.225821 215.164512 
L 90.420805 217.670582 
L 101.61579 224.812194 
L 112.810774 234.648504 
L 124.005758 246.924318 
L 135.200743 253.716985 
L 146.395727 254.488469 
L 157.590711 252.862376 
L 168.785696 248.757822 
L 179.98068 243.237607 
L 191.175664 239.247029 
L 202.370649 237.193075 
L 213.565633 233.904716 
L 224.760617 233.485453 
L 235.955601 230.319071 
L 247.150586 229.694795 
L 258.34557 228.100132 
L 269.540554 227.291575 
L 280.735539 226.827332 
L 291.930523 226.016062 
L 303.125507 226.264172 
L 314.320492 225.651608 
L 325.515476 224.203611 
L 336.71046 224.774922 
L 347.905445 224.008531 
L 359.100429 224.33483 
L 370.295413 223.616708 
L 381.490398 224.353383 
" clip-path="url(#p1594590130)" style="fill: none; stroke: #33628d; stroke-width: 1.5; stroke-linecap: square"/>
   </g>
   <g id="line2d_25">
    <path d="M 56.835852 205.558216 
L 68.030837 206.223647 
L 79.225821 208.728137 
L 90.420805 213.686442 
L 101.61579 220.697723 
L 112.810774 232.292859 
L 124.005758 243.128144 
L 135.200743 249.840494 
L 146.395727 248.472906 
L 157.590711 244.80865 
L 168.785696 240.974061 
L 179.98068 235.947483 
L 191.175664 232.195491 
L 202.370649 229.900574 
L 213.565633 227.839408 
L 224.760617 225.043071 
L 235.955601 223.832263 
L 247.150586 223.053295 
L 258.34557 221.652063 
L 269.540554 220.05443 
L 280.735539 218.943963 
L 291.930523 218.618558 
L 303.125507 218.473555 
L 314.320492 218.368622 
L 325.515476 217.219186 
L 336.71046 216.74413 
L 347.905445 216.688822 
L 359.100429 217.028924 
L 370.295413 216.275817 
L 381.490398 214.901264 
" clip-path="url(#p1594590130)" style="fill: none; stroke: #2f6b8e; stroke-width: 1.5; stroke-linecap: square"/>
   </g>
   <g id="line2d_26">
    <path d="M 56.835852 196.397733 
L 68.030837 198.060654 
L 79.225821 201.75635 
L 90.420805 208.789838 
L 101.61579 219.365942 
L 112.810774 231.138112 
L 124.005758 239.500891 
L 135.200743 244.590368 
L 146.395727 241.912788 
L 157.590711 237.528937 
L 168.785696 234.170669 
L 179.98068 231.222378 
L 191.175664 226.264134 
L 202.370649 222.577347 
L 213.565633 220.604727 
L 224.760617 218.685952 
L 235.955601 217.284359 
L 247.150586 214.94909 
L 258.34557 214.041373 
L 269.540554 213.174385 
L 280.735539 211.512779 
L 291.930523 211.172694 
L 303.125507 210.794813 
L 314.320492 210.255307 
L 325.515476 209.75258 
L 336.71046 209.495847 
L 347.905445 208.447715 
L 359.100429 208.500337 
L 370.295413 207.982915 
L 381.490398 207.781355 
" clip-path="url(#p1594590130)" style="fill: none; stroke: #2c738e; stroke-width: 1.5; stroke-linecap: square"/>
   </g>
   <g id="line2d_27">
    <path d="M 56.835852 187.54777 
L 68.030837 188.665503 
L 79.225821 190.012665 
L 90.420805 199.580235 
L 101.61579 211.730727 
L 112.810774 228.456875 
L 124.005758 236.899089 
L 135.200743 237.548711 
L 146.395727 233.273969 
L 157.590711 231.577596 
L 168.785696 227.332726 
L 179.98068 223.769528 
L 191.175664 218.483108 
L 202.370649 215.510412 
L 213.565633 213.132859 
L 224.760617 210.845 
L 235.955601 209.419549 
L 247.150586 207.073933 
L 258.34557 206.267752 
L 269.540554 205.274819 
L 280.735539 204.402872 
L 291.930523 204.026358 
L 303.125507 203.150946 
L 314.320492 202.399483 
L 325.515476 201.801278 
L 336.71046 201.829782 
L 347.905445 201.830263 
L 359.100429 200.762414 
L 370.295413 200.020805 
L 381.490398 199.914207 
" clip-path="url(#p1594590130)" style="fill: none; stroke: #297b8e; stroke-width: 1.5; stroke-linecap: square"/>
   </g>
   <g id="line2d_28">
    <path d="M 56.835852 180.166684 
L 68.030837 180.903861 
L 79.225821 184.145051 
L 90.420805 197.019787 
L 101.61579 210.246569 
L 112.810774 225.995523 
L 124.005758 234.184932 
L 135.200743 229.922296 
L 146.395727 225.121486 
L 157.590711 222.542404 
L 168.785696 218.957162 
L 179.98068 215.979088 
L 191.175664 211.790676 
L 202.370649 207.949932 
L 213.565633 206.414117 
L 224.760617 204.06591 
L 235.955601 202.265995 
L 247.150586 200.889722 
L 258.34557 199.017856 
L 269.540554 197.477198 
L 280.735539 196.435674 
L 291.930523 196.14444 
L 303.125507 195.364869 
L 314.320492 194.630557 
L 325.515476 194.583463 
L 336.71046 194.242769 
L 347.905445 193.226298 
L 359.100429 192.498206 
L 370.295413 192.029034 
L 381.490398 191.684806 
" clip-path="url(#p1594590130)" style="fill: none; stroke: #25838e; stroke-width: 1.5; stroke-linecap: square"/>
   </g>
   <g id="line2d_29">
    <path d="M 56.835852 169.734973 
L 68.030837 174.479576 
L 79.225821 180.600126 
L 90.420805 192.64238 
L 101.61579 206.527855 
L 112.810774 223.853466 
L 124.005758 228.882945 
L 135.200743 224.5442 
L 146.395727 216.713512 
L 157.590711 214.430907 
L 168.785696 211.754953 
L 179.98068 207.946236 
L 191.175664 204.246032 
L 202.370649 201.839862 
L 213.565633 198.079522 
L 224.760617 196.664732 
L 235.955601 194.390987 
L 247.150586 192.95952 
L 258.34557 190.96669 
L 269.540554 190.423733 
L 280.735539 189.19133 
L 291.930523 189.386846 
L 303.125507 188.191879 
L 314.320492 187.528858 
L 325.515476 187.632653 
L 336.71046 185.36069 
L 347.905445 185.537106 
L 359.100429 185.491351 
L 370.295413 184.99515 
L 381.490398 185.191099 
" clip-path="url(#p1594590130)" style="fill: none; stroke: #228c8d; stroke-width: 1.5; stroke-linecap: square"/>
   </g>
   <g id="line2d_30">
    <path d="M 56.835852 161.610208 
L 68.030837 165.805504 
L 79.225821 175.080152 
L 90.420805 189.619159 
L 101.61579 208.310449 
L 112.810774 226.868418 
L 124.005758 224.949767 
L 135.200743 216.818108 
L 146.395727 212.10822 
L 157.590711 208.030254 
L 168.785696 205.480692 
L 179.98068 201.689635 
L 191.175664 197.201097 
L 202.370649 193.342472 
L 213.565633 190.373303 
L 224.760617 188.095748 
L 235.955601 187.316599 
L 247.150586 185.685427 
L 258.34557 183.192603 
L 269.540554 182.483057 
L 280.735539 182.547266 
L 291.930523 181.855878 
L 303.125507 180.382907 
L 314.320492 179.144988 
L 325.515476 179.625644 
L 336.71046 178.691312 
L 347.905445 177.813476 
L 359.100429 177.099438 
L 370.295413 176.96574 
L 381.490398 176.519879 
" clip-path="url(#p1594590130)" style="fill: none; stroke: #1f948c; stroke-width: 1.5; stroke-linecap: square"/>
   </g>
   <g id="line2d_31">
    <path d="M 56.835852 152.720807 
L 68.030837 158.099352 
L 79.225821 168.717055 
L 90.420805 188.576766 
L 101.61579 212.381035 
L 112.810774 222.88869 
L 124.005758 214.749167 
L 135.200743 210.879941 
L 146.395727 203.892982 
L 157.590711 201.095962 
L 168.785696 196.964466 
L 179.98068 194.535748 
L 191.175664 189.789797 
L 202.370649 186.676582 
L 213.565633 183.50925 
L 224.760617 182.470429 
L 235.955601 178.978768 
L 247.150586 178.057317 
L 258.34557 176.579572 
L 269.540554 175.711716 
L 280.735539 173.820849 
L 291.930523 173.14644 
L 303.125507 172.690872 
L 314.320492 171.636393 
L 325.515476 171.467375 
L 336.71046 170.761591 
L 347.905445 170.070181 
L 359.100429 170.128817 
L 370.295413 168.740754 
L 381.490398 169.037788 
" clip-path="url(#p1594590130)" style="fill: none; stroke: #1e9d89; stroke-width: 1.5; stroke-linecap: square"/>
   </g>
   <g id="line2d_32">
    <path d="M 56.835852 143.662487 
L 68.030837 151.946129 
L 79.225821 166.927588 
L 90.420805 185.541012 
L 101.61579 214.993931 
L 112.810774 218.098248 
L 124.005758 212.359446 
L 135.200743 204.0329 
L 146.395727 199.364569 
L 157.590711 193.486715 
L 168.785696 189.889017 
L 179.98068 186.490734 
L 191.175664 181.339391 
L 202.370649 178.733018 
L 213.565633 176.62603 
L 224.760617 173.869596 
L 235.955601 172.407124 
L 247.150586 170.603987 
L 258.34557 168.549926 
L 269.540554 167.966148 
L 280.735539 166.656696 
L 291.930523 165.733389 
L 303.125507 166.001109 
L 314.320492 164.29927 
L 325.515476 163.495011 
L 336.71046 162.44801 
L 347.905445 161.798555 
L 359.100429 162.553332 
L 370.295413 161.601065 
L 381.490398 160.691095 
" clip-path="url(#p1594590130)" style="fill: none; stroke: #21a585; stroke-width: 1.5; stroke-linecap: square"/>
   </g>
   <g id="line2d_33">
    <path d="M 56.835852 136.032254 
L 68.030837 144.893774 
L 79.225821 160.769536 
L 90.420805 186.814638 
L 101.61579 213.465744 
L 112.810774 215.567783 
L 124.005758 207.994341 
L 135.200743 197.483316 
L 146.395727 191.541836 
L 157.590711 184.829304 
L 168.785696 180.577254 
L 179.98068 178.595499 
L 191.175664 174.199085 
L 202.370649 172.091546 
L 213.565633 169.218536 
L 224.760617 167.225932 
L 235.955601 165.306273 
L 247.150586 163.694749 
L 258.34557 161.3118 
L 269.540554 160.859112 
L 280.735539 159.299931 
L 291.930523 158.818035 
L 303.125507 156.759722 
L 314.320492 156.395898 
L 325.515476 155.978294 
L 336.71046 155.959111 
L 347.905445 154.189049 
L 359.100429 153.712273 
L 370.295413 153.237934 
L 381.490398 153.583954 
" clip-path="url(#p1594590130)" style="fill: none; stroke: #26ad81; stroke-width: 1.5; stroke-linecap: square"/>
   </g>
   <g id="line2d_34">
    <path d="M 56.835852 130.606611 
L 68.030837 142.196169 
L 79.225821 163.162413 
L 90.420805 191.252459 
L 101.61579 214.548564 
L 112.810774 212.25175 
L 124.005758 202.04876 
L 135.200743 189.138098 
L 146.395727 183.233692 
L 157.590711 177.411714 
L 168.785696 172.607032 
L 179.98068 170.139886 
L 191.175664 167.49375 
L 202.370649 164.425086 
L 213.565633 162.048295 
L 224.760617 159.439375 
L 235.955601 156.11249 
L 247.150586 155.678306 
L 258.34557 154.042243 
L 269.540554 153.067759 
L 280.735539 151.584144 
L 291.930523 150.196116 
L 303.125507 149.120475 
L 314.320492 148.299332 
L 325.515476 147.710407 
L 336.71046 148.075779 
L 347.905445 146.433509 
L 359.100429 145.90748 
L 370.295413 146.203596 
L 381.490398 144.796238 
" clip-path="url(#p1594590130)" style="fill: none; stroke: #31b57b; stroke-width: 1.5; stroke-linecap: square"/>
   </g>
   <g id="line2d_35">
    <path d="M 56.835852 122.493668 
L 68.030837 135.105269 
L 79.225821 158.033074 
L 90.420805 194.827946 
L 101.61579 212.182239 
L 112.810774 206.047349 
L 124.005758 197.735768 
L 135.200743 186.058965 
L 146.395727 177.945402 
L 157.590711 171.151285 
L 168.785696 166.246805 
L 179.98068 162.47368 
L 191.175664 159.937761 
L 202.370649 156.149224 
L 213.565633 154.105294 
L 224.760617 151.654579 
L 235.955601 149.393861 
L 247.150586 146.95074 
L 258.34557 146.417509 
L 269.540554 144.682175 
L 280.735539 143.890102 
L 291.930523 142.792031 
L 303.125507 142.056937 
L 314.320492 140.659714 
L 325.515476 139.980556 
L 336.71046 138.912265 
L 347.905445 139.255304 
L 359.100429 138.351977 
L 370.295413 138.062046 
L 381.490398 137.655788 
" clip-path="url(#p1594590130)" style="fill: none; stroke: #3fbc73; stroke-width: 1.5; stroke-linecap: square"/>
   </g>
   <g id="line2d_36">
    <path d="M 56.835852 113.475702 
L 68.030837 126.774627 
L 79.225821 155.997416 
L 90.420805 193.521498 
L 101.61579 209.704254 
L 112.810774 203.890554 
L 124.005758 190.344499 
L 135.200743 179.056228 
L 146.395727 169.115515 
L 157.590711 163.529001 
L 168.785696 158.52023 
L 179.98068 154.36507 
L 191.175664 152.348401 
L 202.370649 149.754024 
L 213.565633 145.95284 
L 224.760617 143.865667 
L 235.955601 141.943018 
L 247.150586 141.913249 
L 258.34557 138.799986 
L 269.540554 136.630826 
L 280.735539 136.195337 
L 291.930523 135.440219 
L 303.125507 134.087119 
L 314.320492 133.145873 
L 325.515476 132.583145 
L 336.71046 131.861736 
L 347.905445 131.038375 
L 359.100429 131.030617 
L 370.295413 130.412112 
L 381.490398 130.832541 
" clip-path="url(#p1594590130)" style="fill: none; stroke: #50c46a; stroke-width: 1.5; stroke-linecap: square"/>
   </g>
   <g id="line2d_37">
    <path d="M 56.835852 105.875682 
L 68.030837 123.327948 
L 79.225821 157.761724 
L 90.420805 192.084862 
L 101.61579 208.855514 
L 112.810774 201.293239 
L 124.005758 184.846813 
L 135.200743 174.871653 
L 146.395727 163.070715 
L 157.590711 156.919529 
L 168.785696 150.59235 
L 179.98068 147.567977 
L 191.175664 143.983276 
L 202.370649 141.766174 
L 213.565633 139.653883 
L 224.760617 137.429838 
L 235.955601 134.364789 
L 247.150586 133.22421 
L 258.34557 131.037869 
L 269.540554 129.728669 
L 280.735539 128.734343 
L 291.930523 127.406222 
L 303.125507 126.529927 
L 314.320492 125.594727 
L 325.515476 124.569346 
L 336.71046 124.22102 
L 347.905445 123.279161 
L 359.100429 122.52961 
L 370.295413 121.861802 
L 381.490398 121.931991 
" clip-path="url(#p1594590130)" style="fill: none; stroke: #63cb5f; stroke-width: 1.5; stroke-linecap: square"/>
   </g>
   <g id="line2d_38">
    <path d="M 56.835852 95.944686 
L 68.030837 114.359236 
L 79.225821 153.446472 
L 90.420805 191.152599 
L 101.61579 204.585433 
L 112.810774 199.019386 
L 124.005758 182.527968 
L 135.200743 169.166635 
L 146.395727 157.682227 
L 157.590711 150.316052 
L 168.785696 145.206302 
L 179.98068 140.798777 
L 191.175664 138.004055 
L 202.370649 135.04837 
L 213.565633 131.816233 
L 224.760617 130.061564 
L 235.955601 126.998375 
L 247.150586 125.47512 
L 258.34557 123.200484 
L 269.540554 122.300075 
L 280.735539 121.297779 
L 291.930523 119.548114 
L 303.125507 118.26244 
L 314.320492 117.780312 
L 325.515476 117.315395 
L 336.71046 115.698431 
L 347.905445 115.24685 
L 359.100429 115.23124 
L 370.295413 114.636884 
L 381.490398 113.975031 
" clip-path="url(#p1594590130)" style="fill: none; stroke: #77d153; stroke-width: 1.5; stroke-linecap: square"/>
   </g>
   <g id="line2d_39">
    <path d="M 56.835852 88.857884 
L 68.030837 113.212039 
L 79.225821 152.319711 
L 90.420805 189.194606 
L 101.61579 201.734267 
L 112.810774 191.586315 
L 124.005758 174.677985 
L 135.200743 162.29352 
L 146.395727 150.662709 
L 157.590711 141.186743 
L 168.785696 136.482832 
L 179.98068 133.876438 
L 191.175664 131.09004 
L 202.370649 126.735498 
L 213.565633 123.88784 
L 224.760617 121.694058 
L 235.955601 119.92528 
L 247.150586 118.027169 
L 258.34557 115.536985 
L 269.540554 114.653208 
L 280.735539 113.239759 
L 291.930523 112.579003 
L 303.125507 111.227196 
L 314.320492 109.833232 
L 325.515476 109.941884 
L 336.71046 109.263726 
L 347.905445 107.918294 
L 359.100429 107.71304 
L 370.295413 106.024838 
L 381.490398 106.281109 
" clip-path="url(#p1594590130)" style="fill: none; stroke: #8bd646; stroke-width: 1.5; stroke-linecap: square"/>
   </g>
   <g id="line2d_40">
    <path d="M 56.835852 82.274051 
L 68.030837 109.216257 
L 79.225821 149.333994 
L 90.420805 185.520906 
L 101.61579 201.151612 
L 112.810774 191.163422 
L 124.005758 173.527916 
L 135.200743 157.149318 
L 146.395727 144.279328 
L 157.590711 136.147981 
L 168.785696 131.370683 
L 179.98068 125.570078 
L 191.175664 122.047953 
L 202.370649 119.203783 
L 213.565633 116.007617 
L 224.760617 114.68679 
L 235.955601 111.110717 
L 247.150586 109.585122 
L 258.34557 108.160205 
L 269.540554 106.647075 
L 280.735539 105.379618 
L 291.930523 104.347281 
L 303.125507 103.166989 
L 314.320492 102.455024 
L 325.515476 101.663012 
L 336.71046 100.623627 
L 347.905445 99.950352 
L 359.100429 100.294201 
L 370.295413 98.25764 
L 381.490398 98.306503 
" clip-path="url(#p1594590130)" style="fill: none; stroke: #a2da37; stroke-width: 1.5; stroke-linecap: square"/>
   </g>
   <g id="line2d_41">
    <path d="M 56.835852 73.56945 
L 68.030837 104.01337 
L 79.225821 146.8618 
L 90.420805 183.935813 
L 101.61579 195.975099 
L 112.810774 188.437146 
L 124.005758 165.493051 
L 135.200743 149.648855 
L 146.395727 139.13338 
L 157.590711 128.984418 
L 168.785696 123.607969 
L 179.98068 119.532225 
L 191.175664 115.072657 
L 202.370649 110.928742 
L 213.565633 108.888728 
L 224.760617 106.9489 
L 235.955601 104.805889 
L 247.150586 102.665737 
L 258.34557 100.668836 
L 269.540554 98.70333 
L 280.735539 98.012563 
L 291.930523 96.672039 
L 303.125507 94.610068 
L 314.320492 94.946517 
L 325.515476 93.675567 
L 336.71046 93.784657 
L 347.905445 92.190984 
L 359.100429 91.881165 
L 370.295413 90.450293 
L 381.490398 90.265433 
" clip-path="url(#p1594590130)" style="fill: none; stroke: #bade28; stroke-width: 1.5; stroke-linecap: square"/>
   </g>
   <g id="line2d_42">
    <path d="M 56.835852 68.559412 
L 68.030837 101.951636 
L 79.225821 142.919903 
L 90.420805 178.129603 
L 101.61579 194.034216 
L 112.810774 184.976862 
L 124.005758 161.616726 
L 135.200743 142.271157 
L 146.395727 131.963573 
L 157.590711 123.243174 
L 168.785696 114.918947 
L 179.98068 111.957614 
L 191.175664 108.225816 
L 202.370649 103.139395 
L 213.565633 101.932743 
L 224.760617 98.964063 
L 235.955601 97.018719 
L 247.150586 95.04894 
L 258.34557 92.69914 
L 269.540554 91.517923 
L 280.735539 89.760442 
L 291.930523 89.43688 
L 303.125507 88.500606 
L 314.320492 86.508993 
L 325.515476 85.645543 
L 336.71046 85.129322 
L 347.905445 84.829962 
L 359.100429 84.176149 
L 370.295413 82.709835 
L 381.490398 82.78197 
" clip-path="url(#p1594590130)" style="fill: none; stroke: #d2e21b; stroke-width: 1.5; stroke-linecap: square"/>
   </g>
   <g id="line2d_43">
    <path d="M 56.835852 61.189391 
L 68.030837 97.670272 
L 79.225821 139.024254 
L 90.420805 174.008506 
L 101.61579 191.23969 
L 112.810774 180.884028 
L 124.005758 157.717265 
L 135.200743 137.482886 
L 146.395727 123.625819 
L 157.590711 115.490245 
L 168.785696 107.801432 
L 179.98068 103.22863 
L 191.175664 99.485411 
L 202.370649 95.881508 
L 213.565633 95.00952 
L 224.760617 91.359249 
L 235.955601 89.553787 
L 247.150586 87.227006 
L 258.34557 84.788761 
L 269.540554 83.866906 
L 280.735539 82.699082 
L 291.930523 81.841122 
L 303.125507 80.397546 
L 314.320492 80.016364 
L 325.515476 78.003134 
L 336.71046 77.23565 
L 347.905445 77.293424 
L 359.100429 76.092623 
L 370.295413 76.023207 
L 381.490398 74.880623 
" clip-path="url(#p1594590130)" style="fill: none; stroke: #eae51a; stroke-width: 1.5; stroke-linecap: square"/>
   </g>
   <g id="line2d_44">
    <path d="M 56.835852 53.856 
L 68.030837 90.934596 
L 79.225821 135.07767 
L 90.420805 170.238351 
L 101.61579 188.16257 
L 112.810774 175.554151 
L 124.005758 150.865504 
L 135.200743 133.486982 
L 146.395727 116.896339 
L 157.590711 106.523947 
L 168.785696 102.132225 
L 179.98068 96.472779 
L 191.175664 91.218781 
L 202.370649 89.898271 
L 213.565633 86.105299 
L 224.760617 84.285783 
L 235.955601 82.942463 
L 247.150586 79.816543 
L 258.34557 77.161817 
L 269.540554 75.508496 
L 280.735539 74.978716 
L 291.930523 73.567775 
L 303.125507 72.820456 
L 314.320492 71.89067 
L 325.515476 71.093978 
L 336.71046 70.505213 
L 347.905445 69.875298 
L 359.100429 68.153452 
L 370.295413 67.726633 
L 381.490398 67.053452 
" clip-path="url(#p1594590130)" style="fill: none; stroke: #fde725; stroke-width: 1.5; stroke-linecap: square"/>
   </g>
   <g id="patch_3">
    <path d="M 40.603125 307.872 
L 40.603125 41.76 
" style="fill: none; stroke: #000000; stroke-width: 0.8; stroke-linejoin: miter; stroke-linecap: square"/>
   </g>
   <g id="patch_4">
    <path d="M 397.723125 307.872 
L 397.723125 41.76 
" style="fill: none; stroke: #000000; stroke-width: 0.8; stroke-linejoin: miter; stroke-linecap: square"/>
   </g>
   <g id="patch_5">
    <path d="M 40.603125 307.872 
L 397.723125 307.872 
" style="fill: none; stroke: #000000; stroke-width: 0.8; stroke-linejoin: miter; stroke-linecap: square"/>
   </g>
   <g id="patch_6">
    <path d="M 40.603125 41.76 
L 397.723125 41.76 
" style="fill: none; stroke: #000000; stroke-width: 0.8; stroke-linejoin: miter; stroke-linecap: square"/>
   </g>
   <g id="legend_1">
    <g id="patch_7">
     <path d="M 417.579125 307.872 
L 637.826 307.872 
Q 639.826 307.872 639.826 305.872 
L 639.826 145.412625 
Q 639.826 143.412625 637.826 143.412625 
L 417.579125 143.412625 
Q 415.579125 143.412625 415.579125 145.412625 
L 415.579125 305.872 
Q 415.579125 307.872 417.579125 307.872 
z
" style="fill: #ffffff; opacity: 0.8; stroke: #cccccc; stroke-linejoin: miter"/>
    </g>
    <g id="text_18">
     <!-- Readout pulse amplitude () -->
     <g transform="translate(459.601781 155.011063) scale(0.1 -0.1)">
      <defs>
       <path id="DejaVuSans-52" d="M 2841 2188 
Q 3044 2119 3236 1894 
Q 3428 1669 3622 1275 
L 4263 0 
L 3584 0 
L 2988 1197 
Q 2756 1666 2539 1819 
Q 2322 1972 1947 1972 
L 1259 1972 
L 1259 0 
L 628 0 
L 628 4666 
L 2053 4666 
Q 2853 4666 3247 4331 
Q 3641 3997 3641 3322 
Q 3641 2881 3436 2590 
Q 3231 2300 2841 2188 
z
M 1259 4147 
L 1259 2491 
L 2053 2491 
Q 2509 2491 2742 2702 
Q 2975 2913 2975 3322 
Q 2975 3731 2742 3939 
Q 2509 4147 2053 4147 
L 1259 4147 
z
" transform="scale(0.015625)"/>
       <path id="DejaVuSans-6f" d="M 1959 3097 
Q 1497 3097 1228 2736 
Q 959 2375 959 1747 
Q 959 1119 1226 758 
Q 1494 397 1959 397 
Q 2419 397 2687 759 
Q 2956 1122 2956 1747 
Q 2956 2369 2687 2733 
Q 2419 3097 1959 3097 
z
M 1959 3584 
Q 2709 3584 3137 3096 
Q 3566 2609 3566 1747 
Q 3566 888 3137 398 
Q 2709 -91 1959 -91 
Q 1206 -91 779 398 
Q 353 888 353 1747 
Q 353 2609 779 3096 
Q 1206 3584 1959 3584 
z
" transform="scale(0.015625)"/>
       <path id="DejaVuSans-70" d="M 1159 525 
L 1159 -1331 
L 581 -1331 
L 581 3500 
L 1159 3500 
L 1159 2969 
Q 1341 3281 1617 3432 
Q 1894 3584 2278 3584 
Q 2916 3584 3314 3078 
Q 3713 2572 3713 1747 
Q 3713 922 3314 415 
Q 2916 -91 2278 -91 
Q 1894 -91 1617 61 
Q 1341 213 1159 525 
z
M 3116 1747 
Q 3116 2381 2855 2742 
Q 2594 3103 2138 3103 
Q 1681 3103 1420 2742 
Q 1159 2381 1159 1747 
Q 1159 1113 1420 752 
Q 1681 391 2138 391 
Q 2594 391 2855 752 
Q 3116 1113 3116 1747 
z
" transform="scale(0.015625)"/>
       <path id="DejaVuSans-6c" d="M 603 4863 
L 1178 4863 
L 1178 0 
L 603 0 
L 603 4863 
z
" transform="scale(0.015625)"/>
       <path id="DejaVuSans-73" d="M 2834 3397 
L 2834 2853 
Q 2591 2978 2328 3040 
Q 2066 3103 1784 3103 
Q 1356 3103 1142 2972 
Q 928 2841 928 2578 
Q 928 2378 1081 2264 
Q 1234 2150 1697 2047 
L 1894 2003 
Q 2506 1872 2764 1633 
Q 3022 1394 3022 966 
Q 3022 478 2636 193 
Q 2250 -91 1575 -91 
Q 1294 -91 989 -36 
Q 684 19 347 128 
L 347 722 
Q 666 556 975 473 
Q 1284 391 1588 391 
Q 1994 391 2212 530 
Q 2431 669 2431 922 
Q 2431 1156 2273 1281 
Q 2116 1406 1581 1522 
L 1381 1569 
Q 847 1681 609 1914 
Q 372 2147 372 2553 
Q 372 3047 722 3315 
Q 1072 3584 1716 3584 
Q 2034 3584 2315 3537 
Q 2597 3491 2834 3397 
z
" transform="scale(0.015625)"/>
       <path id="DejaVuSans-28" d="M 1984 4856 
Q 1566 4138 1362 3434 
Q 1159 2731 1159 2009 
Q 1159 1288 1364 580 
Q 1569 -128 1984 -844 
L 1484 -844 
Q 1016 -109 783 600 
Q 550 1309 550 2009 
Q 550 2706 781 3412 
Q 1013 4119 1484 4856 
L 1984 4856 
z
" transform="scale(0.015625)"/>
       <path id="DejaVuSans-29" d="M 513 4856 
L 1013 4856 
Q 1481 4119 1714 3412 
Q 1947 2706 1947 2009 
Q 1947 1309 1714 600 
Q 1481 -109 1013 -844 
L 513 -844 
Q 928 -128 1133 580 
Q 1338 1288 1338 2009 
Q 1338 2731 1133 3434 
Q 928 4138 513 4856 
z
" transform="scale(0.015625)"/>
      </defs>
      <use xlink:href="#DejaVuSans-52"/>
      <use xlink:href="#DejaVuSans-65" x="64.982422"/>
      <use xlink:href="#DejaVuSans-61" x="126.505859"/>
      <use xlink:href="#DejaVuSans-64" x="187.785156"/>
      <use xlink:href="#DejaVuSans-6f" x="251.261719"/>
      <use xlink:href="#DejaVuSans-75" x="312.443359"/>
      <use xlink:href="#DejaVuSans-74" x="375.822266"/>
      <use xlink:href="#DejaVuSans-20" x="415.03125"/>
      <use xlink:href="#DejaVuSans-70" x="446.818359"/>
      <use xlink:href="#DejaVuSans-75" x="510.294922"/>
      <use xlink:href="#DejaVuSans-6c" x="573.673828"/>
      <use xlink:href="#DejaVuSans-73" x="601.457031"/>
      <use xlink:href="#DejaVuSans-65" x="653.556641"/>
      <use xlink:href="#DejaVuSans-20" x="715.080078"/>
      <use xlink:href="#DejaVuSans-61" x="746.867188"/>
      <use xlink:href="#DejaVuSans-6d" x="808.146484"/>
      <use xlink:href="#DejaVuSans-70" x="905.558594"/>
      <use xlink:href="#DejaVuSans-6c" x="969.035156"/>
      <use xlink:href="#DejaVuSans-69" x="996.818359"/>
      <use xlink:href="#DejaVuSans-74" x="1024.601562"/>
      <use xlink:href="#DejaVuSans-75" x="1063.810547"/>
      <use xlink:href="#DejaVuSans-64" x="1127.189453"/>
      <use xlink:href="#DejaVuSans-65" x="1190.666016"/>
      <use xlink:href="#DejaVuSans-20" x="1252.189453"/>
      <use xlink:href="#DejaVuSans-28" x="1283.976562"/>
      <use xlink:href="#DejaVuSans-29" x="1322.990234"/>
     </g>
    </g>
    <g id="line2d_45">
     <path d="M 419.579125 166.189188 
L 429.579125 166.189188 
L 439.579125 166.189188 
" style="fill: none; stroke: #440154; stroke-width: 1.5; stroke-linecap: square"/>
    </g>
    <g id="text_19">
     <!-- 0.01 -->
     <g transform="translate(447.579125 169.689188) scale(0.1 -0.1)">
      <use xlink:href="#DejaVuSans-30"/>
      <use xlink:href="#DejaVuSans-2e" x="63.623047"/>
      <use xlink:href="#DejaVuSans-30" x="95.410156"/>
      <use xlink:href="#DejaVuSans-31" x="159.033203"/>
     </g>
    </g>
    <g id="line2d_46">
     <path d="M 419.579125 180.867313 
L 429.579125 180.867313 
L 439.579125 180.867313 
" style="fill: none; stroke: #470d60; stroke-width: 1.5; stroke-linecap: square"/>
    </g>
    <g id="text_20">
     <!-- 0.0338 -->
     <g transform="translate(447.579125 184.367313) scale(0.1 -0.1)">
      <defs>
       <path id="DejaVuSans-33" d="M 2597 2516 
Q 3050 2419 3304 2112 
Q 3559 1806 3559 1356 
Q 3559 666 3084 287 
Q 2609 -91 1734 -91 
Q 1441 -91 1130 -33 
Q 819 25 488 141 
L 488 750 
Q 750 597 1062 519 
Q 1375 441 1716 441 
Q 2309 441 2620 675 
Q 2931 909 2931 1356 
Q 2931 1769 2642 2001 
Q 2353 2234 1838 2234 
L 1294 2234 
L 1294 2753 
L 1863 2753 
Q 2328 2753 2575 2939 
Q 2822 3125 2822 3475 
Q 2822 3834 2567 4026 
Q 2313 4219 1838 4219 
Q 1578 4219 1281 4162 
Q 984 4106 628 3988 
L 628 4550 
Q 988 4650 1302 4700 
Q 1616 4750 1894 4750 
Q 2613 4750 3031 4423 
Q 3450 4097 3450 3541 
Q 3450 3153 3228 2886 
Q 3006 2619 2597 2516 
z
" transform="scale(0.015625)"/>
      </defs>
      <use xlink:href="#DejaVuSans-30"/>
      <use xlink:href="#DejaVuSans-2e" x="63.623047"/>
      <use xlink:href="#DejaVuSans-30" x="95.410156"/>
      <use xlink:href="#DejaVuSans-33" x="159.033203"/>
      <use xlink:href="#DejaVuSans-33" x="222.65625"/>
      <use xlink:href="#DejaVuSans-38" x="286.279297"/>
     </g>
    </g>
    <g id="line2d_47">
     <path d="M 419.579125 195.545438 
L 429.579125 195.545438 
L 439.579125 195.545438 
" style="fill: none; stroke: #481a6c; stroke-width: 1.5; stroke-linecap: square"/>
    </g>
    <g id="text_21">
     <!-- 0.0576 -->
     <g transform="translate(447.579125 199.045438) scale(0.1 -0.1)">
      <defs>
       <path id="DejaVuSans-36" d="M 2113 2584 
Q 1688 2584 1439 2293 
Q 1191 2003 1191 1497 
Q 1191 994 1439 701 
Q 1688 409 2113 409 
Q 2538 409 2786 701 
Q 3034 994 3034 1497 
Q 3034 2003 2786 2293 
Q 2538 2584 2113 2584 
z
M 3366 4563 
L 3366 3988 
Q 3128 4100 2886 4159 
Q 2644 4219 2406 4219 
Q 1781 4219 1451 3797 
Q 1122 3375 1075 2522 
Q 1259 2794 1537 2939 
Q 1816 3084 2150 3084 
Q 2853 3084 3261 2657 
Q 3669 2231 3669 1497 
Q 3669 778 3244 343 
Q 2819 -91 2113 -91 
Q 1303 -91 875 529 
Q 447 1150 447 2328 
Q 447 3434 972 4092 
Q 1497 4750 2381 4750 
Q 2619 4750 2861 4703 
Q 3103 4656 3366 4563 
z
" transform="scale(0.015625)"/>
      </defs>
      <use xlink:href="#DejaVuSans-30"/>
      <use xlink:href="#DejaVuSans-2e" x="63.623047"/>
      <use xlink:href="#DejaVuSans-30" x="95.410156"/>
      <use xlink:href="#DejaVuSans-35" x="159.033203"/>
      <use xlink:href="#DejaVuSans-37" x="222.65625"/>
      <use xlink:href="#DejaVuSans-36" x="286.279297"/>
     </g>
    </g>
    <g id="line2d_48">
     <path d="M 419.579125 210.223563 
L 429.579125 210.223563 
L 439.579125 210.223563 
" style="fill: none; stroke: #482576; stroke-width: 1.5; stroke-linecap: square"/>
    </g>
    <g id="text_22">
     <!-- 0.0814 -->
     <g transform="translate(447.579125 213.723563) scale(0.1 -0.1)">
      <defs>
       <path id="DejaVuSans-34" d="M 2419 4116 
L 825 1625 
L 2419 1625 
L 2419 4116 
z
M 2253 4666 
L 3047 4666 
L 3047 1625 
L 3713 1625 
L 3713 1100 
L 3047 1100 
L 3047 0 
L 2419 0 
L 2419 1100 
L 313 1100 
L 313 1709 
L 2253 4666 
z
" transform="scale(0.015625)"/>
      </defs>
      <use xlink:href="#DejaVuSans-30"/>
      <use xlink:href="#DejaVuSans-2e" x="63.623047"/>
      <use xlink:href="#DejaVuSans-30" x="95.410156"/>
      <use xlink:href="#DejaVuSans-38" x="159.033203"/>
      <use xlink:href="#DejaVuSans-31" x="222.65625"/>
      <use xlink:href="#DejaVuSans-34" x="286.279297"/>
     </g>
    </g>
    <g id="line2d_49">
     <path d="M 419.579125 224.901688 
L 429.579125 224.901688 
L 439.579125 224.901688 
" style="fill: none; stroke: #46307e; stroke-width: 1.5; stroke-linecap: square"/>
    </g>
    <g id="text_23">
     <!-- 0.105 -->
     <g transform="translate(447.579125 228.401688) scale(0.1 -0.1)">
      <use xlink:href="#DejaVuSans-30"/>
      <use xlink:href="#DejaVuSans-2e" x="63.623047"/>
      <use xlink:href="#DejaVuSans-31" x="95.410156"/>
      <use xlink:href="#DejaVuSans-30" x="159.033203"/>
      <use xlink:href="#DejaVuSans-35" x="222.65625"/>
     </g>
    </g>
    <g id="line2d_50">
     <path d="M 419.579125 239.579813 
L 429.579125 239.579813 
L 439.579125 239.579813 
" style="fill: none; stroke: #443b84; stroke-width: 1.5; stroke-linecap: square"/>
    </g>
    <g id="text_24">
     <!-- 0.129 -->
     <g transform="translate(447.579125 243.079813) scale(0.1 -0.1)">
      <use xlink:href="#DejaVuSans-30"/>
      <use xlink:href="#DejaVuSans-2e" x="63.623047"/>
      <use xlink:href="#DejaVuSans-31" x="95.410156"/>
      <use xlink:href="#DejaVuSans-32" x="159.033203"/>
      <use xlink:href="#DejaVuSans-39" x="222.65625"/>
     </g>
    </g>
    <g id="line2d_51">
     <path d="M 419.579125 254.257938 
L 429.579125 254.257938 
L 439.579125 254.257938 
" style="fill: none; stroke: #404588; stroke-width: 1.5; stroke-linecap: square"/>
    </g>
    <g id="text_25">
     <!-- 0.153 -->
     <g transform="translate(447.579125 257.757938) scale(0.1 -0.1)">
      <use xlink:href="#DejaVuSans-30"/>
      <use xlink:href="#DejaVuSans-2e" x="63.623047"/>
      <use xlink:href="#DejaVuSans-31" x="95.410156"/>
      <use xlink:href="#DejaVuSans-35" x="159.033203"/>
      <use xlink:href="#DejaVuSans-33" x="222.65625"/>
     </g>
    </g>
    <g id="line2d_52">
     <path d="M 419.579125 268.936062 
L 429.579125 268.936062 
L 439.579125 268.936062 
" style="fill: none; stroke: #3c4f8a; stroke-width: 1.5; stroke-linecap: square"/>
    </g>
    <g id="text_26">
     <!-- 0.177 -->
     <g transform="translate(447.579125 272.436062) scale(0.1 -0.1)">
      <use xlink:href="#DejaVuSans-30"/>
      <use xlink:href="#DejaVuSans-2e" x="63.623047"/>
      <use xlink:href="#DejaVuSans-31" x="95.410156"/>
      <use xlink:href="#DejaVuSans-37" x="159.033203"/>
      <use xlink:href="#DejaVuSans-37" x="222.65625"/>
     </g>
    </g>
    <g id="line2d_53">
     <path d="M 419.579125 283.614188 
L 429.579125 283.614188 
L 439.579125 283.614188 
" style="fill: none; stroke: #38598c; stroke-width: 1.5; stroke-linecap: square"/>
    </g>
    <g id="text_27">
     <!-- 0.2 -->
     <g transform="translate(447.579125 287.114188) scale(0.1 -0.1)">
      <use xlink:href="#DejaVuSans-30"/>
      <use xlink:href="#DejaVuSans-2e" x="63.623047"/>
      <use xlink:href="#DejaVuSans-32" x="95.410156"/>
     </g>
    </g>
    <g id="line2d_54">
     <path d="M 419.579125 298.292312 
L 429.579125 298.292312 
L 439.579125 298.292312 
" style="fill: none; stroke: #33628d; stroke-width: 1.5; stroke-linecap: square"/>
    </g>
    <g id="text_28">
     <!-- 0.224 -->
     <g transform="translate(447.579125 301.792312) scale(0.1 -0.1)">
      <use xlink:href="#DejaVuSans-30"/>
      <use xlink:href="#DejaVuSans-2e" x="63.623047"/>
      <use xlink:href="#DejaVuSans-32" x="95.410156"/>
      <use xlink:href="#DejaVuSans-32" x="159.033203"/>
      <use xlink:href="#DejaVuSans-34" x="222.65625"/>
     </g>
    </g>
    <g id="line2d_55">
     <path d="M 502.56975 166.189188 
L 512.56975 166.189188 
L 522.56975 166.189188 
" style="fill: none; stroke: #2f6b8e; stroke-width: 1.5; stroke-linecap: square"/>
    </g>
    <g id="text_29">
     <!-- 0.248 -->
     <g transform="translate(530.56975 169.689188) scale(0.1 -0.1)">
      <use xlink:href="#DejaVuSans-30"/>
      <use xlink:href="#DejaVuSans-2e" x="63.623047"/>
      <use xlink:href="#DejaVuSans-32" x="95.410156"/>
      <use xlink:href="#DejaVuSans-34" x="159.033203"/>
      <use xlink:href="#DejaVuSans-38" x="222.65625"/>
     </g>
    </g>
    <g id="line2d_56">
     <path d="M 502.56975 180.867313 
L 512.56975 180.867313 
L 522.56975 180.867313 
" style="fill: none; stroke: #2c738e; stroke-width: 1.5; stroke-linecap: square"/>
    </g>
    <g id="text_30">
     <!-- 0.272 -->
     <g transform="translate(530.56975 184.367313) scale(0.1 -0.1)">
      <use xlink:href="#DejaVuSans-30"/>
      <use xlink:href="#DejaVuSans-2e" x="63.623047"/>
      <use xlink:href="#DejaVuSans-32" x="95.410156"/>
      <use xlink:href="#DejaVuSans-37" x="159.033203"/>
      <use xlink:href="#DejaVuSans-32" x="222.65625"/>
     </g>
    </g>
    <g id="line2d_57">
     <path d="M 502.56975 195.545438 
L 512.56975 195.545438 
L 522.56975 195.545438 
" style="fill: none; stroke: #297b8e; stroke-width: 1.5; stroke-linecap: square"/>
    </g>
    <g id="text_31">
     <!-- 0.296 -->
     <g transform="translate(530.56975 199.045438) scale(0.1 -0.1)">
      <use xlink:href="#DejaVuSans-30"/>
      <use xlink:href="#DejaVuSans-2e" x="63.623047"/>
      <use xlink:href="#DejaVuSans-32" x="95.410156"/>
      <use xlink:href="#DejaVuSans-39" x="159.033203"/>
      <use xlink:href="#DejaVuSans-36" x="222.65625"/>
     </g>
    </g>
    <g id="line2d_58">
     <path d="M 502.56975 210.223563 
L 512.56975 210.223563 
L 522.56975 210.223563 
" style="fill: none; stroke: #25838e; stroke-width: 1.5; stroke-linecap: square"/>
    </g>
    <g id="text_32">
     <!-- 0.319 -->
     <g transform="translate(530.56975 213.723563) scale(0.1 -0.1)">
      <use xlink:href="#DejaVuSans-30"/>
      <use xlink:href="#DejaVuSans-2e" x="63.623047"/>
      <use xlink:href="#DejaVuSans-33" x="95.410156"/>
      <use xlink:href="#DejaVuSans-31" x="159.033203"/>
      <use xlink:href="#DejaVuSans-39" x="222.65625"/>
     </g>
    </g>
    <g id="line2d_59">
     <path d="M 502.56975 224.901688 
L 512.56975 224.901688 
L 522.56975 224.901688 
" style="fill: none; stroke: #228c8d; stroke-width: 1.5; stroke-linecap: square"/>
    </g>
    <g id="text_33">
     <!-- 0.343 -->
     <g transform="translate(530.56975 228.401688) scale(0.1 -0.1)">
      <use xlink:href="#DejaVuSans-30"/>
      <use xlink:href="#DejaVuSans-2e" x="63.623047"/>
      <use xlink:href="#DejaVuSans-33" x="95.410156"/>
      <use xlink:href="#DejaVuSans-34" x="159.033203"/>
      <use xlink:href="#DejaVuSans-33" x="222.65625"/>
     </g>
    </g>
    <g id="line2d_60">
     <path d="M 502.56975 239.579813 
L 512.56975 239.579813 
L 522.56975 239.579813 
" style="fill: none; stroke: #1f948c; stroke-width: 1.5; stroke-linecap: square"/>
    </g>
    <g id="text_34">
     <!-- 0.367 -->
     <g transform="translate(530.56975 243.079813) scale(0.1 -0.1)">
      <use xlink:href="#DejaVuSans-30"/>
      <use xlink:href="#DejaVuSans-2e" x="63.623047"/>
      <use xlink:href="#DejaVuSans-33" x="95.410156"/>
      <use xlink:href="#DejaVuSans-36" x="159.033203"/>
      <use xlink:href="#DejaVuSans-37" x="222.65625"/>
     </g>
    </g>
    <g id="line2d_61">
     <path d="M 502.56975 254.257938 
L 512.56975 254.257938 
L 522.56975 254.257938 
" style="fill: none; stroke: #1e9d89; stroke-width: 1.5; stroke-linecap: square"/>
    </g>
    <g id="text_35">
     <!-- 0.391 -->
     <g transform="translate(530.56975 257.757938) scale(0.1 -0.1)">
      <use xlink:href="#DejaVuSans-30"/>
      <use xlink:href="#DejaVuSans-2e" x="63.623047"/>
      <use xlink:href="#DejaVuSans-33" x="95.410156"/>
      <use xlink:href="#DejaVuSans-39" x="159.033203"/>
      <use xlink:href="#DejaVuSans-31" x="222.65625"/>
     </g>
    </g>
    <g id="line2d_62">
     <path d="M 502.56975 268.936062 
L 512.56975 268.936062 
L 522.56975 268.936062 
" style="fill: none; stroke: #21a585; stroke-width: 1.5; stroke-linecap: square"/>
    </g>
    <g id="text_36">
     <!-- 0.414 -->
     <g transform="translate(530.56975 272.436062) scale(0.1 -0.1)">
      <use xlink:href="#DejaVuSans-30"/>
      <use xlink:href="#DejaVuSans-2e" x="63.623047"/>
      <use xlink:href="#DejaVuSans-34" x="95.410156"/>
      <use xlink:href="#DejaVuSans-31" x="159.033203"/>
      <use xlink:href="#DejaVuSans-34" x="222.65625"/>
     </g>
    </g>
    <g id="line2d_63">
     <path d="M 502.56975 283.614188 
L 512.56975 283.614188 
L 522.56975 283.614188 
" style="fill: none; stroke: #26ad81; stroke-width: 1.5; stroke-linecap: square"/>
    </g>
    <g id="text_37">
     <!-- 0.438 -->
     <g transform="translate(530.56975 287.114188) scale(0.1 -0.1)">
      <use xlink:href="#DejaVuSans-30"/>
      <use xlink:href="#DejaVuSans-2e" x="63.623047"/>
      <use xlink:href="#DejaVuSans-34" x="95.410156"/>
      <use xlink:href="#DejaVuSans-33" x="159.033203"/>
      <use xlink:href="#DejaVuSans-38" x="222.65625"/>
     </g>
    </g>
    <g id="line2d_64">
     <path d="M 502.56975 298.292312 
L 512.56975 298.292312 
L 522.56975 298.292312 
" style="fill: none; stroke: #31b57b; stroke-width: 1.5; stroke-linecap: square"/>
    </g>
    <g id="text_38">
     <!-- 0.462 -->
     <g transform="translate(530.56975 301.792312) scale(0.1 -0.1)">
      <use xlink:href="#DejaVuSans-30"/>
      <use xlink:href="#DejaVuSans-2e" x="63.623047"/>
      <use xlink:href="#DejaVuSans-34" x="95.410156"/>
      <use xlink:href="#DejaVuSans-36" x="159.033203"/>
      <use xlink:href="#DejaVuSans-32" x="222.65625"/>
     </g>
    </g>
    <g id="line2d_65">
     <path d="M 579.197875 166.189188 
L 589.197875 166.189188 
L 599.197875 166.189188 
" style="fill: none; stroke: #3fbc73; stroke-width: 1.5; stroke-linecap: square"/>
    </g>
    <g id="text_39">
     <!-- 0.486 -->
     <g transform="translate(607.197875 169.689188) scale(0.1 -0.1)">
      <use xlink:href="#DejaVuSans-30"/>
      <use xlink:href="#DejaVuSans-2e" x="63.623047"/>
      <use xlink:href="#DejaVuSans-34" x="95.410156"/>
      <use xlink:href="#DejaVuSans-38" x="159.033203"/>
      <use xlink:href="#DejaVuSans-36" x="222.65625"/>
     </g>
    </g>
    <g id="line2d_66">
     <path d="M 579.197875 180.867313 
L 589.197875 180.867313 
L 599.197875 180.867313 
" style="fill: none; stroke: #50c46a; stroke-width: 1.5; stroke-linecap: square"/>
    </g>
    <g id="text_40">
     <!-- 0.51 -->
     <g transform="translate(607.197875 184.367313) scale(0.1 -0.1)">
      <use xlink:href="#DejaVuSans-30"/>
      <use xlink:href="#DejaVuSans-2e" x="63.623047"/>
      <use xlink:href="#DejaVuSans-35" x="95.410156"/>
      <use xlink:href="#DejaVuSans-31" x="159.033203"/>
     </g>
    </g>
    <g id="line2d_67">
     <path d="M 579.197875 195.545438 
L 589.197875 195.545438 
L 599.197875 195.545438 
" style="fill: none; stroke: #63cb5f; stroke-width: 1.5; stroke-linecap: square"/>
    </g>
    <g id="text_41">
     <!-- 0.533 -->
     <g transform="translate(607.197875 199.045438) scale(0.1 -0.1)">
      <use xlink:href="#DejaVuSans-30"/>
      <use xlink:href="#DejaVuSans-2e" x="63.623047"/>
      <use xlink:href="#DejaVuSans-35" x="95.410156"/>
      <use xlink:href="#DejaVuSans-33" x="159.033203"/>
      <use xlink:href="#DejaVuSans-33" x="222.65625"/>
     </g>
    </g>
    <g id="line2d_68">
     <path d="M 579.197875 210.223563 
L 589.197875 210.223563 
L 599.197875 210.223563 
" style="fill: none; stroke: #77d153; stroke-width: 1.5; stroke-linecap: square"/>
    </g>
    <g id="text_42">
     <!-- 0.557 -->
     <g transform="translate(607.197875 213.723563) scale(0.1 -0.1)">
      <use xlink:href="#DejaVuSans-30"/>
      <use xlink:href="#DejaVuSans-2e" x="63.623047"/>
      <use xlink:href="#DejaVuSans-35" x="95.410156"/>
      <use xlink:href="#DejaVuSans-35" x="159.033203"/>
      <use xlink:href="#DejaVuSans-37" x="222.65625"/>
     </g>
    </g>
    <g id="line2d_69">
     <path d="M 579.197875 224.901688 
L 589.197875 224.901688 
L 599.197875 224.901688 
" style="fill: none; stroke: #8bd646; stroke-width: 1.5; stroke-linecap: square"/>
    </g>
    <g id="text_43">
     <!-- 0.581 -->
     <g transform="translate(607.197875 228.401688) scale(0.1 -0.1)">
      <use xlink:href="#DejaVuSans-30"/>
      <use xlink:href="#DejaVuSans-2e" x="63.623047"/>
      <use xlink:href="#DejaVuSans-35" x="95.410156"/>
      <use xlink:href="#DejaVuSans-38" x="159.033203"/>
      <use xlink:href="#DejaVuSans-31" x="222.65625"/>
     </g>
    </g>
    <g id="line2d_70">
     <path d="M 579.197875 239.579813 
L 589.197875 239.579813 
L 599.197875 239.579813 
" style="fill: none; stroke: #a2da37; stroke-width: 1.5; stroke-linecap: square"/>
    </g>
    <g id="text_44">
     <!-- 0.605 -->
     <g transform="translate(607.197875 243.079813) scale(0.1 -0.1)">
      <use xlink:href="#DejaVuSans-30"/>
      <use xlink:href="#DejaVuSans-2e" x="63.623047"/>
      <use xlink:href="#DejaVuSans-36" x="95.410156"/>
      <use xlink:href="#DejaVuSans-30" x="159.033203"/>
      <use xlink:href="#DejaVuSans-35" x="222.65625"/>
     </g>
    </g>
    <g id="line2d_71">
     <path d="M 579.197875 254.257938 
L 589.197875 254.257938 
L 599.197875 254.257938 
" style="fill: none; stroke: #bade28; stroke-width: 1.5; stroke-linecap: square"/>
    </g>
    <g id="text_45">
     <!-- 0.629 -->
     <g transform="translate(607.197875 257.757938) scale(0.1 -0.1)">
      <use xlink:href="#DejaVuSans-30"/>
      <use xlink:href="#DejaVuSans-2e" x="63.623047"/>
      <use xlink:href="#DejaVuSans-36" x="95.410156"/>
      <use xlink:href="#DejaVuSans-32" x="159.033203"/>
      <use xlink:href="#DejaVuSans-39" x="222.65625"/>
     </g>
    </g>
    <g id="line2d_72">
     <path d="M 579.197875 268.936062 
L 589.197875 268.936062 
L 599.197875 268.936062 
" style="fill: none; stroke: #d2e21b; stroke-width: 1.5; stroke-linecap: square"/>
    </g>
    <g id="text_46">
     <!-- 0.652 -->
     <g transform="translate(607.197875 272.436062) scale(0.1 -0.1)">
      <use xlink:href="#DejaVuSans-30"/>
      <use xlink:href="#DejaVuSans-2e" x="63.623047"/>
      <use xlink:href="#DejaVuSans-36" x="95.410156"/>
      <use xlink:href="#DejaVuSans-35" x="159.033203"/>
      <use xlink:href="#DejaVuSans-32" x="222.65625"/>
     </g>
    </g>
    <g id="line2d_73">
     <path d="M 579.197875 283.614188 
L 589.197875 283.614188 
L 599.197875 283.614188 
" style="fill: none; stroke: #eae51a; stroke-width: 1.5; stroke-linecap: square"/>
    </g>
    <g id="text_47">
     <!-- 0.676 -->
     <g transform="translate(607.197875 287.114188) scale(0.1 -0.1)">
      <use xlink:href="#DejaVuSans-30"/>
      <use xlink:href="#DejaVuSans-2e" x="63.623047"/>
      <use xlink:href="#DejaVuSans-36" x="95.410156"/>
      <use xlink:href="#DejaVuSans-37" x="159.033203"/>
      <use xlink:href="#DejaVuSans-36" x="222.65625"/>
     </g>
    </g>
    <g id="line2d_74">
     <path d="M 579.197875 298.292312 
L 589.197875 298.292312 
L 599.197875 298.292312 
" style="fill: none; stroke: #fde725; stroke-width: 1.5; stroke-linecap: square"/>
    </g>
    <g id="text_48">
     <!-- 0.7 -->
     <g transform="translate(607.197875 301.792312) scale(0.1 -0.1)">
      <use xlink:href="#DejaVuSans-30"/>
      <use xlink:href="#DejaVuSans-2e" x="63.623047"/>
      <use xlink:href="#DejaVuSans-37" x="95.410156"/>
     </g>
    </g>
   </g>
  </g>
  <g id="text_49">
   <!-- x0x1-y0 resonator punchout -->
   <g transform="translate(128.292188 16.318125) scale(0.12 -0.12)">
    <defs>
     <path id="DejaVuSans-78" d="M 3513 3500 
L 2247 1797 
L 3578 0 
L 2900 0 
L 1881 1375 
L 863 0 
L 184 0 
L 1544 1831 
L 300 3500 
L 978 3500 
L 1906 2253 
L 2834 3500 
L 3513 3500 
z
" transform="scale(0.015625)"/>
     <path id="DejaVuSans-2d" d="M 313 2009 
L 1997 2009 
L 1997 1497 
L 313 1497 
L 313 2009 
z
" transform="scale(0.015625)"/>
     <path id="DejaVuSans-68" d="M 3513 2113 
L 3513 0 
L 2938 0 
L 2938 2094 
Q 2938 2591 2744 2837 
Q 2550 3084 2163 3084 
Q 1697 3084 1428 2787 
Q 1159 2491 1159 1978 
L 1159 0 
L 581 0 
L 581 4863 
L 1159 4863 
L 1159 2956 
Q 1366 3272 1645 3428 
Q 1925 3584 2291 3584 
Q 2894 3584 3203 3211 
Q 3513 2838 3513 2113 
z
" transform="scale(0.015625)"/>
    </defs>
    <use xlink:href="#DejaVuSans-78"/>
    <use xlink:href="#DejaVuSans-30" x="59.179688"/>
    <use xlink:href="#DejaVuSans-78" x="122.802734"/>
    <use xlink:href="#DejaVuSans-31" x="181.982422"/>
    <use xlink:href="#DejaVuSans-2d" x="245.605469"/>
    <use xlink:href="#DejaVuSans-79" x="279.939453"/>
    <use xlink:href="#DejaVuSans-30" x="339.119141"/>
    <use xlink:href="#DejaVuSans-20" x="402.742188"/>
    <use xlink:href="#DejaVuSans-72" x="434.529297"/>
    <use xlink:href="#DejaVuSans-65" x="473.392578"/>
    <use xlink:href="#DejaVuSans-73" x="534.916016"/>
    <use xlink:href="#DejaVuSans-6f" x="587.015625"/>
    <use xlink:href="#DejaVuSans-6e" x="648.197266"/>
    <use xlink:href="#DejaVuSans-61" x="711.576172"/>
    <use xlink:href="#DejaVuSans-74" x="772.855469"/>
    <use xlink:href="#DejaVuSans-6f" x="812.064453"/>
    <use xlink:href="#DejaVuSans-72" x="873.246094"/>
    <use xlink:href="#DejaVuSans-20" x="914.359375"/>
    <use xlink:href="#DejaVuSans-70" x="946.146484"/>
    <use xlink:href="#DejaVuSans-75" x="1009.623047"/>
    <use xlink:href="#DejaVuSans-6e" x="1073.001953"/>
    <use xlink:href="#DejaVuSans-63" x="1136.380859"/>
    <use xlink:href="#DejaVuSans-68" x="1191.361328"/>
    <use xlink:href="#DejaVuSans-6f" x="1254.740234"/>
    <use xlink:href="#DejaVuSans-75" x="1315.921875"/>
    <use xlink:href="#DejaVuSans-74" x="1379.300781"/>
   </g>
   <!-- tuid: 20231227-194510-733-e32fbf -->
   <g transform="translate(107.0925 29.7555) scale(0.12 -0.12)">
    <defs>
     <path id="DejaVuSans-3a" d="M 750 794 
L 1409 794 
L 1409 0 
L 750 0 
L 750 794 
z
M 750 3309 
L 1409 3309 
L 1409 2516 
L 750 2516 
L 750 3309 
z
" transform="scale(0.015625)"/>
     <path id="DejaVuSans-66" d="M 2375 4863 
L 2375 4384 
L 1825 4384 
Q 1516 4384 1395 4259 
Q 1275 4134 1275 3809 
L 1275 3500 
L 2222 3500 
L 2222 3053 
L 1275 3053 
L 1275 0 
L 697 0 
L 697 3053 
L 147 3053 
L 147 3500 
L 697 3500 
L 697 3744 
Q 697 4328 969 4595 
Q 1241 4863 1831 4863 
L 2375 4863 
z
" transform="scale(0.015625)"/>
     <path id="DejaVuSans-62" d="M 3116 1747 
Q 3116 2381 2855 2742 
Q 2594 3103 2138 3103 
Q 1681 3103 1420 2742 
Q 1159 2381 1159 1747 
Q 1159 1113 1420 752 
Q 1681 391 2138 391 
Q 2594 391 2855 752 
Q 3116 1113 3116 1747 
z
M 1159 2969 
Q 1341 3281 1617 3432 
Q 1894 3584 2278 3584 
Q 2916 3584 3314 3078 
Q 3713 2572 3713 1747 
Q 3713 922 3314 415 
Q 2916 -91 2278 -91 
Q 1894 -91 1617 61 
Q 1341 213 1159 525 
L 1159 0 
L 581 0 
L 581 4863 
L 1159 4863 
L 1159 2969 
z
" transform="scale(0.015625)"/>
    </defs>
    <use xlink:href="#DejaVuSans-74"/>
    <use xlink:href="#DejaVuSans-75" x="39.208984"/>
    <use xlink:href="#DejaVuSans-69" x="102.587891"/>
    <use xlink:href="#DejaVuSans-64" x="130.371094"/>
    <use xlink:href="#DejaVuSans-3a" x="193.847656"/>
    <use xlink:href="#DejaVuSans-20" x="227.539062"/>
    <use xlink:href="#DejaVuSans-32" x="259.326172"/>
    <use xlink:href="#DejaVuSans-30" x="322.949219"/>
    <use xlink:href="#DejaVuSans-32" x="386.572266"/>
    <use xlink:href="#DejaVuSans-33" x="450.195312"/>
    <use xlink:href="#DejaVuSans-31" x="513.818359"/>
    <use xlink:href="#DejaVuSans-32" x="577.441406"/>
    <use xlink:href="#DejaVuSans-32" x="641.064453"/>
    <use xlink:href="#DejaVuSans-37" x="704.6875"/>
    <use xlink:href="#DejaVuSans-2d" x="768.310547"/>
    <use xlink:href="#DejaVuSans-31" x="804.394531"/>
    <use xlink:href="#DejaVuSans-39" x="868.017578"/>
    <use xlink:href="#DejaVuSans-34" x="931.640625"/>
    <use xlink:href="#DejaVuSans-35" x="995.263672"/>
    <use xlink:href="#DejaVuSans-31" x="1058.886719"/>
    <use xlink:href="#DejaVuSans-30" x="1122.509766"/>
    <use xlink:href="#DejaVuSans-2d" x="1186.132812"/>
    <use xlink:href="#DejaVuSans-37" x="1222.216797"/>
    <use xlink:href="#DejaVuSans-33" x="1285.839844"/>
    <use xlink:href="#DejaVuSans-33" x="1349.462891"/>
    <use xlink:href="#DejaVuSans-2d" x="1413.085938"/>
    <use xlink:href="#DejaVuSans-65" x="1449.169922"/>
    <use xlink:href="#DejaVuSans-33" x="1510.693359"/>
    <use xlink:href="#DejaVuSans-32" x="1574.316406"/>
    <use xlink:href="#DejaVuSans-66" x="1637.939453"/>
    <use xlink:href="#DejaVuSans-62" x="1673.144531"/>
    <use xlink:href="#DejaVuSans-66" x="1736.621094"/>
   </g>
  </g>
 </g>
 <defs>
  <clipPath id="p1594590130">
   <rect x="40.603125" y="41.76" width="357.12" height="266.112"/>
  </clipPath>
 </defs>
</svg>
