<?xml version="1.0" encoding="utf-8" standalone="no"?>
<!DOCTYPE svg PUBLIC "-//W3C//DTD SVG 1.1//EN"
  "http://www.w3.org/Graphics/SVG/1.1/DTD/svg11.dtd">
<svg xmlns:xlink="http://www.w3.org/1999/xlink" width="559.024437pt" height="345.42825pt" viewBox="0 0 559.024437 345.42825" xmlns="http://www.w3.org/2000/svg" version="1.1">
 <metadata>
  <rdf:RDF xmlns:dc="http://purl.org/dc/elements/1.1/" xmlns:cc="http://creativecommons.org/ns#" xmlns:rdf="http://www.w3.org/1999/02/22-rdf-syntax-ns#">
   <cc:Work>
    <dc:type rdf:resource="http://purl.org/dc/dcmitype/StillImage"/>
    <dc:date>2023-12-27T16:07:53.893577</dc:date>
    <dc:format>image/svg+xml</dc:format>
    <dc:creator>
     <cc:Agent>
      <dc:title>Matplotlib v3.8.2, https://matplotlib.org/</dc:title>
     </cc:Agent>
    </dc:creator>
   </cc:Work>
  </rdf:RDF>
 </metadata>
 <defs>
  <style type="text/css">*{stroke-linejoin: round; stroke-linecap: butt}</style>
 </defs>
 <g id="figure_1">
  <g id="patch_1">
   <path d="M 0 345.42825 
L 559.024437 345.42825 
L 559.024437 -0 
L 0 -0 
L 0 345.42825 
z
" style="fill: none; opacity: 0"/>
  </g>
  <g id="axes_1">
   <g id="patch_2">
    <path d="M 37.848438 307.872 
L 394.968438 307.872 
L 394.968438 41.76 
L 37.848438 41.76 
z
" style="fill: #ffffff"/>
   </g>
   <g id="matplotlib.axis_1">
    <g id="xtick_1">
     <g id="line2d_1">
      <defs>
       <path id="mebc3a3912a" d="M 0 0 
L 0 3.5 
" style="stroke: #000000; stroke-width: 0.8"/>
      </defs>
      <g>
       <use xlink:href="#mebc3a3912a" x="102.125169" y="307.872" style="stroke: #000000; stroke-width: 0.8"/>
      </g>
     </g>
     <g id="text_1">
      <!-- -8 -->
      <g transform="translate(97.140013 322.470438) scale(0.1 -0.1)">
       <defs>
        <path id="DejaVuSans-2d" d="M 313 2009 
L 1997 2009 
L 1997 1497 
L 313 1497 
L 313 2009 
z
" transform="scale(0.015625)"/>
        <path id="DejaVuSans-38" d="M 2034 2216 
Q 1584 2216 1326 1975 
Q 1069 1734 1069 1313 
Q 1069 891 1326 650 
Q 1584 409 2034 409 
Q 2484 409 2743 651 
Q 3003 894 3003 1313 
Q 3003 1734 2745 1975 
Q 2488 2216 2034 2216 
z
M 1403 2484 
Q 997 2584 770 2862 
Q 544 3141 544 3541 
Q 544 4100 942 4425 
Q 1341 4750 2034 4750 
Q 2731 4750 3128 4425 
Q 3525 4100 3525 3541 
Q 3525 3141 3298 2862 
Q 3072 2584 2669 2484 
Q 3125 2378 3379 2068 
Q 3634 1759 3634 1313 
Q 3634 634 3220 271 
Q 2806 -91 2034 -91 
Q 1263 -91 848 271 
Q 434 634 434 1313 
Q 434 1759 690 2068 
Q 947 2378 1403 2484 
z
M 1172 3481 
Q 1172 3119 1398 2916 
Q 1625 2713 2034 2713 
Q 2441 2713 2670 2916 
Q 2900 3119 2900 3481 
Q 2900 3844 2670 4047 
Q 2441 4250 2034 4250 
Q 1625 4250 1398 4047 
Q 1172 3844 1172 3481 
z
" transform="scale(0.015625)"/>
       </defs>
       <use xlink:href="#DejaVuSans-2d"/>
       <use xlink:href="#DejaVuSans-38" x="36.083984"/>
      </g>
     </g>
    </g>
    <g id="xtick_2">
     <g id="line2d_2">
      <g>
       <use xlink:href="#mebc3a3912a" x="174.461924" y="307.872" style="stroke: #000000; stroke-width: 0.8"/>
      </g>
     </g>
     <g id="text_2">
      <!-- -6 -->
      <g transform="translate(169.476767 322.470438) scale(0.1 -0.1)">
       <defs>
        <path id="DejaVuSans-36" d="M 2113 2584 
Q 1688 2584 1439 2293 
Q 1191 2003 1191 1497 
Q 1191 994 1439 701 
Q 1688 409 2113 409 
Q 2538 409 2786 701 
Q 3034 994 3034 1497 
Q 3034 2003 2786 2293 
Q 2538 2584 2113 2584 
z
M 3366 4563 
L 3366 3988 
Q 3128 4100 2886 4159 
Q 2644 4219 2406 4219 
Q 1781 4219 1451 3797 
Q 1122 3375 1075 2522 
Q 1259 2794 1537 2939 
Q 1816 3084 2150 3084 
Q 2853 3084 3261 2657 
Q 3669 2231 3669 1497 
Q 3669 778 3244 343 
Q 2819 -91 2113 -91 
Q 1303 -91 875 529 
Q 447 1150 447 2328 
Q 447 3434 972 4092 
Q 1497 4750 2381 4750 
Q 2619 4750 2861 4703 
Q 3103 4656 3366 4563 
z
" transform="scale(0.015625)"/>
       </defs>
       <use xlink:href="#DejaVuSans-2d"/>
       <use xlink:href="#DejaVuSans-36" x="36.083984"/>
      </g>
     </g>
    </g>
    <g id="xtick_3">
     <g id="line2d_3">
      <g>
       <use xlink:href="#mebc3a3912a" x="246.798678" y="307.872" style="stroke: #000000; stroke-width: 0.8"/>
      </g>
     </g>
     <g id="text_3">
      <!-- -4 -->
      <g transform="translate(241.813522 322.470438) scale(0.1 -0.1)">
       <defs>
        <path id="DejaVuSans-34" d="M 2419 4116 
L 825 1625 
L 2419 1625 
L 2419 4116 
z
M 2253 4666 
L 3047 4666 
L 3047 1625 
L 3713 1625 
L 3713 1100 
L 3047 1100 
L 3047 0 
L 2419 0 
L 2419 1100 
L 313 1100 
L 313 1709 
L 2253 4666 
z
" transform="scale(0.015625)"/>
       </defs>
       <use xlink:href="#DejaVuSans-2d"/>
       <use xlink:href="#DejaVuSans-34" x="36.083984"/>
      </g>
     </g>
    </g>
    <g id="xtick_4">
     <g id="line2d_4">
      <g>
       <use xlink:href="#mebc3a3912a" x="319.135432" y="307.872" style="stroke: #000000; stroke-width: 0.8"/>
      </g>
     </g>
     <g id="text_4">
      <!-- -2 -->
      <g transform="translate(314.150276 322.470438) scale(0.1 -0.1)">
       <defs>
        <path id="DejaVuSans-32" d="M 1228 531 
L 3431 531 
L 3431 0 
L 469 0 
L 469 531 
Q 828 903 1448 1529 
Q 2069 2156 2228 2338 
Q 2531 2678 2651 2914 
Q 2772 3150 2772 3378 
Q 2772 3750 2511 3984 
Q 2250 4219 1831 4219 
Q 1534 4219 1204 4116 
Q 875 4013 500 3803 
L 500 4441 
Q 881 4594 1212 4672 
Q 1544 4750 1819 4750 
Q 2544 4750 2975 4387 
Q 3406 4025 3406 3419 
Q 3406 3131 3298 2873 
Q 3191 2616 2906 2266 
Q 2828 2175 2409 1742 
Q 1991 1309 1228 531 
z
" transform="scale(0.015625)"/>
       </defs>
       <use xlink:href="#DejaVuSans-2d"/>
       <use xlink:href="#DejaVuSans-32" x="36.083984"/>
      </g>
     </g>
    </g>
    <g id="xtick_5">
     <g id="line2d_5">
      <g>
       <use xlink:href="#mebc3a3912a" x="391.472186" y="307.872" style="stroke: #000000; stroke-width: 0.8"/>
      </g>
     </g>
     <g id="text_5">
      <!-- 0 -->
      <g transform="translate(388.290936 322.470438) scale(0.1 -0.1)">
       <defs>
        <path id="DejaVuSans-30" d="M 2034 4250 
Q 1547 4250 1301 3770 
Q 1056 3291 1056 2328 
Q 1056 1369 1301 889 
Q 1547 409 2034 409 
Q 2525 409 2770 889 
Q 3016 1369 3016 2328 
Q 3016 3291 2770 3770 
Q 2525 4250 2034 4250 
z
M 2034 4750 
Q 2819 4750 3233 4129 
Q 3647 3509 3647 2328 
Q 3647 1150 3233 529 
Q 2819 -91 2034 -91 
Q 1250 -91 836 529 
Q 422 1150 422 2328 
Q 422 3509 836 4129 
Q 1250 4750 2034 4750 
z
" transform="scale(0.015625)"/>
       </defs>
       <use xlink:href="#DejaVuSans-30"/>
      </g>
     </g>
    </g>
    <g id="text_6">
     <!-- Re$(S_{21})$ [mV] -->
     <g transform="translate(184.408438 336.148562) scale(0.1 -0.1)">
      <defs>
       <path id="DejaVuSans-52" d="M 2841 2188 
Q 3044 2119 3236 1894 
Q 3428 1669 3622 1275 
L 4263 0 
L 3584 0 
L 2988 1197 
Q 2756 1666 2539 1819 
Q 2322 1972 1947 1972 
L 1259 1972 
L 1259 0 
L 628 0 
L 628 4666 
L 2053 4666 
Q 2853 4666 3247 4331 
Q 3641 3997 3641 3322 
Q 3641 2881 3436 2590 
Q 3231 2300 2841 2188 
z
M 1259 4147 
L 1259 2491 
L 2053 2491 
Q 2509 2491 2742 2702 
Q 2975 2913 2975 3322 
Q 2975 3731 2742 3939 
Q 2509 4147 2053 4147 
L 1259 4147 
z
" transform="scale(0.015625)"/>
       <path id="DejaVuSans-65" d="M 3597 1894 
L 3597 1613 
L 953 1613 
Q 991 1019 1311 708 
Q 1631 397 2203 397 
Q 2534 397 2845 478 
Q 3156 559 3463 722 
L 3463 178 
Q 3153 47 2828 -22 
Q 2503 -91 2169 -91 
Q 1331 -91 842 396 
Q 353 884 353 1716 
Q 353 2575 817 3079 
Q 1281 3584 2069 3584 
Q 2775 3584 3186 3129 
Q 3597 2675 3597 1894 
z
M 3022 2063 
Q 3016 2534 2758 2815 
Q 2500 3097 2075 3097 
Q 1594 3097 1305 2825 
Q 1016 2553 972 2059 
L 3022 2063 
z
" transform="scale(0.015625)"/>
       <path id="DejaVuSans-28" d="M 1984 4856 
Q 1566 4138 1362 3434 
Q 1159 2731 1159 2009 
Q 1159 1288 1364 580 
Q 1569 -128 1984 -844 
L 1484 -844 
Q 1016 -109 783 600 
Q 550 1309 550 2009 
Q 550 2706 781 3412 
Q 1013 4119 1484 4856 
L 1984 4856 
z
" transform="scale(0.015625)"/>
       <path id="DejaVuSans-Oblique-53" d="M 3859 4513 
L 3738 3897 
Q 3422 4066 3111 4152 
Q 2800 4238 2509 4238 
Q 1944 4238 1609 3991 
Q 1275 3744 1275 3334 
Q 1275 3109 1398 2989 
Q 1522 2869 2034 2731 
L 2413 2638 
Q 3053 2472 3303 2217 
Q 3553 1963 3553 1503 
Q 3553 797 2998 353 
Q 2444 -91 1538 -91 
Q 1166 -91 791 -17 
Q 416 56 38 206 
L 166 856 
Q 513 641 861 531 
Q 1209 422 1556 422 
Q 2147 422 2503 684 
Q 2859 947 2859 1369 
Q 2859 1650 2717 1795 
Q 2575 1941 2106 2059 
L 1728 2156 
Q 1081 2325 845 2545 
Q 609 2766 609 3163 
Q 609 3859 1145 4304 
Q 1681 4750 2541 4750 
Q 2875 4750 3203 4690 
Q 3531 4631 3859 4513 
z
" transform="scale(0.015625)"/>
       <path id="DejaVuSans-31" d="M 794 531 
L 1825 531 
L 1825 4091 
L 703 3866 
L 703 4441 
L 1819 4666 
L 2450 4666 
L 2450 531 
L 3481 531 
L 3481 0 
L 794 0 
L 794 531 
z
" transform="scale(0.015625)"/>
       <path id="DejaVuSans-29" d="M 513 4856 
L 1013 4856 
Q 1481 4119 1714 3412 
Q 1947 2706 1947 2009 
Q 1947 1309 1714 600 
Q 1481 -109 1013 -844 
L 513 -844 
Q 928 -128 1133 580 
Q 1338 1288 1338 2009 
Q 1338 2731 1133 3434 
Q 928 4138 513 4856 
z
" transform="scale(0.015625)"/>
       <path id="DejaVuSans-20" transform="scale(0.015625)"/>
       <path id="DejaVuSans-5b" d="M 550 4863 
L 1875 4863 
L 1875 4416 
L 1125 4416 
L 1125 -397 
L 1875 -397 
L 1875 -844 
L 550 -844 
L 550 4863 
z
" transform="scale(0.015625)"/>
       <path id="DejaVuSans-6d" d="M 3328 2828 
Q 3544 3216 3844 3400 
Q 4144 3584 4550 3584 
Q 5097 3584 5394 3201 
Q 5691 2819 5691 2113 
L 5691 0 
L 5113 0 
L 5113 2094 
Q 5113 2597 4934 2840 
Q 4756 3084 4391 3084 
Q 3944 3084 3684 2787 
Q 3425 2491 3425 1978 
L 3425 0 
L 2847 0 
L 2847 2094 
Q 2847 2600 2669 2842 
Q 2491 3084 2119 3084 
Q 1678 3084 1418 2786 
Q 1159 2488 1159 1978 
L 1159 0 
L 581 0 
L 581 3500 
L 1159 3500 
L 1159 2956 
Q 1356 3278 1631 3431 
Q 1906 3584 2284 3584 
Q 2666 3584 2933 3390 
Q 3200 3197 3328 2828 
z
" transform="scale(0.015625)"/>
       <path id="DejaVuSans-56" d="M 1831 0 
L 50 4666 
L 709 4666 
L 2188 738 
L 3669 4666 
L 4325 4666 
L 2547 0 
L 1831 0 
z
" transform="scale(0.015625)"/>
       <path id="DejaVuSans-5d" d="M 1947 4863 
L 1947 -844 
L 622 -844 
L 622 -397 
L 1369 -397 
L 1369 4416 
L 622 4416 
L 622 4863 
L 1947 4863 
z
" transform="scale(0.015625)"/>
      </defs>
      <use xlink:href="#DejaVuSans-52" transform="translate(0 0.015625)"/>
      <use xlink:href="#DejaVuSans-65" transform="translate(69.482422 0.015625)"/>
      <use xlink:href="#DejaVuSans-28" transform="translate(131.005859 0.015625)"/>
      <use xlink:href="#DejaVuSans-Oblique-53" transform="translate(170.019531 0.015625)"/>
      <use xlink:href="#DejaVuSans-32" transform="translate(233.496094 -16.390625) scale(0.7)"/>
      <use xlink:href="#DejaVuSans-31" transform="translate(278.032227 -16.390625) scale(0.7)"/>
      <use xlink:href="#DejaVuSans-29" transform="translate(325.302734 0.015625)"/>
      <use xlink:href="#DejaVuSans-20" transform="translate(364.316406 0.015625)"/>
      <use xlink:href="#DejaVuSans-5b" transform="translate(396.103516 0.015625)"/>
      <use xlink:href="#DejaVuSans-6d" transform="translate(435.117188 0.015625)"/>
      <use xlink:href="#DejaVuSans-56" transform="translate(532.529297 0.015625)"/>
      <use xlink:href="#DejaVuSans-5d" transform="translate(600.9375 0.015625)"/>
     </g>
    </g>
   </g>
   <g id="matplotlib.axis_2">
    <g id="ytick_1">
     <g id="line2d_6">
      <defs>
       <path id="m68bae0055d" d="M 0 0 
L -3.5 0 
" style="stroke: #000000; stroke-width: 0.8"/>
      </defs>
      <g>
       <use xlink:href="#m68bae0055d" x="37.848438" y="275.10598" style="stroke: #000000; stroke-width: 0.8"/>
      </g>
     </g>
     <g id="text_7">
      <!-- -4 -->
      <g transform="translate(20.878125 278.905198) scale(0.1 -0.1)">
       <use xlink:href="#DejaVuSans-2d"/>
       <use xlink:href="#DejaVuSans-34" x="36.083984"/>
      </g>
     </g>
    </g>
    <g id="ytick_2">
     <g id="line2d_7">
      <g>
       <use xlink:href="#m68bae0055d" x="37.848438" y="233.596265" style="stroke: #000000; stroke-width: 0.8"/>
      </g>
     </g>
     <g id="text_8">
      <!-- -2 -->
      <g transform="translate(20.878125 237.395484) scale(0.1 -0.1)">
       <use xlink:href="#DejaVuSans-2d"/>
       <use xlink:href="#DejaVuSans-32" x="36.083984"/>
      </g>
     </g>
    </g>
    <g id="ytick_3">
     <g id="line2d_8">
      <g>
       <use xlink:href="#m68bae0055d" x="37.848438" y="192.08655" style="stroke: #000000; stroke-width: 0.8"/>
      </g>
     </g>
     <g id="text_9">
      <!-- 0 -->
      <g transform="translate(24.485938 195.885769) scale(0.1 -0.1)">
       <use xlink:href="#DejaVuSans-30"/>
      </g>
     </g>
    </g>
    <g id="ytick_4">
     <g id="line2d_9">
      <g>
       <use xlink:href="#m68bae0055d" x="37.848438" y="150.576835" style="stroke: #000000; stroke-width: 0.8"/>
      </g>
     </g>
     <g id="text_10">
      <!-- 2 -->
      <g transform="translate(24.485938 154.376054) scale(0.1 -0.1)">
       <use xlink:href="#DejaVuSans-32"/>
      </g>
     </g>
    </g>
    <g id="ytick_5">
     <g id="line2d_10">
      <g>
       <use xlink:href="#m68bae0055d" x="37.848438" y="109.06712" style="stroke: #000000; stroke-width: 0.8"/>
      </g>
     </g>
     <g id="text_11">
      <!-- 4 -->
      <g transform="translate(24.485938 112.866339) scale(0.1 -0.1)">
       <use xlink:href="#DejaVuSans-34"/>
      </g>
     </g>
    </g>
    <g id="ytick_6">
     <g id="line2d_11">
      <g>
       <use xlink:href="#m68bae0055d" x="37.848438" y="67.557405" style="stroke: #000000; stroke-width: 0.8"/>
      </g>
     </g>
     <g id="text_12">
      <!-- 6 -->
      <g transform="translate(24.485938 71.356624) scale(0.1 -0.1)">
       <use xlink:href="#DejaVuSans-36"/>
      </g>
     </g>
    </g>
    <g id="text_13">
     <!-- Im$(S_{21})$ [mV] -->
     <g transform="translate(14.798438 206.466) rotate(-90) scale(0.1 -0.1)">
      <defs>
       <path id="DejaVuSans-49" d="M 628 4666 
L 1259 4666 
L 1259 0 
L 628 0 
L 628 4666 
z
" transform="scale(0.015625)"/>
      </defs>
      <use xlink:href="#DejaVuSans-49" transform="translate(0 0.015625)"/>
      <use xlink:href="#DejaVuSans-6d" transform="translate(25.867188 0.015625)"/>
      <use xlink:href="#DejaVuSans-28" transform="translate(123.279297 0.015625)"/>
      <use xlink:href="#DejaVuSans-Oblique-53" transform="translate(162.292969 0.015625)"/>
      <use xlink:href="#DejaVuSans-32" transform="translate(225.769531 -16.390625) scale(0.7)"/>
      <use xlink:href="#DejaVuSans-31" transform="translate(270.305664 -16.390625) scale(0.7)"/>
      <use xlink:href="#DejaVuSans-29" transform="translate(317.576172 0.015625)"/>
      <use xlink:href="#DejaVuSans-20" transform="translate(356.589844 0.015625)"/>
      <use xlink:href="#DejaVuSans-5b" transform="translate(388.376953 0.015625)"/>
      <use xlink:href="#DejaVuSans-6d" transform="translate(427.390625 0.015625)"/>
      <use xlink:href="#DejaVuSans-56" transform="translate(524.802734 0.015625)"/>
      <use xlink:href="#DejaVuSans-5d" transform="translate(593.210938 0.015625)"/>
     </g>
    </g>
   </g>
   <g id="line2d_12">
    <path d="M 171.355758 287.981179 
L 170.983846 286.802378 
L 167.408315 285.563057 
L 165.414862 284.246116 
L 161.136067 283.814097 
L 162.606949 281.198082 
L 162.739781 280.577655 
L 161.552976 280.63128 
L 156.396739 278.686004 
L 160.875273 277.800089 
L 151.93238 278.055528 
L 154.467013 273.666061 
L 150.507515 274.122932 
L 149.68312 272.602283 
L 147.550162 269.622903 
L 145.832149 269.497448 
L 142.645767 268.515707 
L 140.678975 269.874106 
L 137.099517 266.318484 
L 137.107213 266.606413 
L 136.085397 264.423678 
L 133.31718 261.415592 
L 131.911162 258.765103 
L 132.271452 260.169985 
L 131.277003 260.499193 
L 130.510327 256.288806 
L 128.200718 254.042802 
L 128.125213 255.166333 
L 121.836748 252.194546 
L 121.443319 251.804797 
L 120.856513 251.471106 
L 118.597791 247.792664 
L 116.085382 247.548288 
L 114.028007 243.995143 
L 111.847617 243.115763 
L 110.927378 241.8677 
L 110.520795 239.603468 
L 111.068416 239.750283 
L 103.708741 237.896372 
L 106.897715 238.63982 
L 99.228087 235.069913 
L 100.812169 232.931699 
L 102.934683 232.19963 
L 96.10441 230.653498 
L 94.296992 230.047785 
L 93.906076 224.529874 
L 91.137938 221.917329 
L 96.493637 223.078397 
L 90.257591 220.74932 
L 88.108809 219.340135 
L 86.344504 215.561293 
L 84.440614 212.252165 
L 85.055533 210.403976 
L 80.39442 208.863748 
L 80.277491 208.98882 
L 73.66164 204.869595 
L 74.551685 204.140342 
L 79.113891 199.685939 
L 70.668517 197.828896 
L 69.605944 194.22438 
L 68.153752 191.452267 
L 68.17307 187.853158 
L 69.089029 184.526658 
L 65.761177 183.783548 
L 62.21529 179.54209 
L 65.144294 175.331726 
L 57.32609 172.990707 
L 59.501926 167.905153 
L 55.816375 165.320681 
L 56.170226 159.547467 
L 60.177469 154.619408 
L 54.081165 150.690664 
L 57.652691 143.789074 
L 57.268568 138.765684 
L 57.834211 134.163115 
L 57.706169 126.330074 
L 66.626642 118.175982 
L 67.181644 109.87289 
L 72.256722 103.039638 
L 84.351915 93.722518 
L 98.184911 87.067602 
L 102.581382 78.776272 
L 121.817941 69.257179 
L 142.547684 60.028044 
L 194.526646 53.856 
L 222.045278 53.937722 
L 257.96947 56.515118 
L 287.451164 61.68503 
L 309.218508 65.953751 
L 336.289055 80.425282 
L 356.419703 92.558633 
L 366.515987 108.040632 
L 372.649631 127.30269 
L 372.312782 144.310565 
L 373.545487 155.30344 
L 361.679951 168.817114 
L 347.664219 179.787435 
L 335.391354 186.859003 
L 306.408789 196.78276 
L 296.742803 202.503026 
L 282.096446 204.464345 
L 271.106112 204.78348 
L 251.054504 208.313079 
L 241.16212 206.663348 
L 231.119589 206.82082 
L 226.265767 206.168309 
L 220.071262 205.118005 
L 213.02955 200.890381 
L 208.980451 199.84375 
L 202.991613 202.473802 
L 199.974185 197.956988 
L 192.258108 196.110557 
L 188.632946 193.315844 
L 186.309084 195.563493 
L 182.745685 191.445552 
L 179.84503 190.166869 
L 176.954308 188.395513 
L 171.985716 186.60113 
L 171.17738 184.332527 
L 169.502009 184.057576 
L 165.70589 179.264255 
L 165.697016 178.462833 
L 159.426574 177.657649 
L 160.435512 176.735436 
L 156.931088 174.039118 
L 158.952967 168.829168 
L 157.441093 170.887102 
L 155.272129 164.860701 
L 151.085565 165.588107 
L 149.29295 161.642082 
L 150.106037 160.674378 
L 149.580287 160.497754 
L 147.610432 158.148961 
L 148.923747 156.65143 
L 149.27265 153.640686 
L 148.356534 151.306494 
L 150.125394 151.435734 
L 149.315449 148.902477 
L 144.187993 146.532911 
L 146.213916 145.876411 
L 147.33943 143.183744 
L 146.824242 142.346249 
L 147.235379 140.170949 
L 148.912086 139.377616 
L 146.253416 135.488889 
L 147.183668 134.1669 
L 147.328671 133.06768 
L 142.998125 132.396918 
L 146.291974 128.667646 
L 149.037928 129.17742 
L 149.148379 127.020438 
L 148.445743 124.632261 
L 147.042434 121.395684 
L 148.935212 123.121864 
L 145.727863 121.529633 
L 152.307708 117.567272 
L 149.584645 116.198621 
L 150.424942 114.809782 
L 157.894753 113.901313 
L 151.630751 113.277485 
L 154.267039 110.578959 
L 155.842679 108.32766 
L 154.562779 107.169002 
L 157.925105 104.22254 
L 155.923564 102.283212 
L 156.318328 101.466289 
L 159.821181 99.662465 
L 162.865152 98.553444 
L 156.323158 97.856478 
L 159.840853 95.758055 
L 162.159218 93.415684 
L 166.476846 92.607841 
L 166.058955 88.789975 
L 163.685502 88.932712 
L 166.908361 88.612945 
L 169.578417 86.928425 
L 173.456834 86.616996 
L 169.560473 84.688956 
L 172.103195 83.507518 
L 172.226014 81.532793 
L 175.716185 80.35397 
L 180.111674 77.689309 
L 177.024631 77.301677 
L 178.833894 75.611097 
L 182.064331 73.934125 
L 179.510262 72.10831 
L 178.984198 69.870576 
L 184.494992 68.185943 
L 187.325914 68.088337 
L 187.845853 68.90891 
L 190.850716 63.553249 
L 189.517101 62.76663 
L 194.112918 61.318714 
L 193.970113 62.988655 
L 197.840088 60.119071 
L 198.732646 57.689233 
L 198.732646 57.689233 
" clip-path="url(#p5f53f1c409)" style="fill: none; stroke: #1f77b4; stroke-width: 1.5; stroke-linecap: square"/>
    <defs>
     <path id="m197671c167" d="M 0 1.5 
C 0.397805 1.5 0.77937 1.341951 1.06066 1.06066 
C 1.341951 0.77937 1.5 0.397805 1.5 0 
C 1.5 -0.397805 1.341951 -0.77937 1.06066 -1.06066 
C 0.77937 -1.341951 0.397805 -1.5 0 -1.5 
C -0.397805 -1.5 -0.77937 -1.341951 -1.06066 -1.06066 
C -1.341951 -0.77937 -1.5 -0.397805 -1.5 0 
C -1.5 0.397805 -1.341951 0.77937 -1.06066 1.06066 
C -0.77937 1.341951 -0.397805 1.5 0 1.5 
z
" style="stroke: #1f77b4"/>
    </defs>
    <g clip-path="url(#p5f53f1c409)">
     <use xlink:href="#m197671c167" x="171.355758" y="287.981179" style="fill: #1f77b4; stroke: #1f77b4"/>
     <use xlink:href="#m197671c167" x="170.983846" y="286.802378" style="fill: #1f77b4; stroke: #1f77b4"/>
     <use xlink:href="#m197671c167" x="167.408315" y="285.563057" style="fill: #1f77b4; stroke: #1f77b4"/>
     <use xlink:href="#m197671c167" x="165.414862" y="284.246116" style="fill: #1f77b4; stroke: #1f77b4"/>
     <use xlink:href="#m197671c167" x="161.136067" y="283.814097" style="fill: #1f77b4; stroke: #1f77b4"/>
     <use xlink:href="#m197671c167" x="162.606949" y="281.198082" style="fill: #1f77b4; stroke: #1f77b4"/>
     <use xlink:href="#m197671c167" x="162.739781" y="280.577655" style="fill: #1f77b4; stroke: #1f77b4"/>
     <use xlink:href="#m197671c167" x="161.552976" y="280.63128" style="fill: #1f77b4; stroke: #1f77b4"/>
     <use xlink:href="#m197671c167" x="156.396739" y="278.686004" style="fill: #1f77b4; stroke: #1f77b4"/>
     <use xlink:href="#m197671c167" x="160.875273" y="277.800089" style="fill: #1f77b4; stroke: #1f77b4"/>
     <use xlink:href="#m197671c167" x="151.93238" y="278.055528" style="fill: #1f77b4; stroke: #1f77b4"/>
     <use xlink:href="#m197671c167" x="154.467013" y="273.666061" style="fill: #1f77b4; stroke: #1f77b4"/>
     <use xlink:href="#m197671c167" x="150.507515" y="274.122932" style="fill: #1f77b4; stroke: #1f77b4"/>
     <use xlink:href="#m197671c167" x="149.68312" y="272.602283" style="fill: #1f77b4; stroke: #1f77b4"/>
     <use xlink:href="#m197671c167" x="147.550162" y="269.622903" style="fill: #1f77b4; stroke: #1f77b4"/>
     <use xlink:href="#m197671c167" x="145.832149" y="269.497448" style="fill: #1f77b4; stroke: #1f77b4"/>
     <use xlink:href="#m197671c167" x="142.645767" y="268.515707" style="fill: #1f77b4; stroke: #1f77b4"/>
     <use xlink:href="#m197671c167" x="140.678975" y="269.874106" style="fill: #1f77b4; stroke: #1f77b4"/>
     <use xlink:href="#m197671c167" x="137.099517" y="266.318484" style="fill: #1f77b4; stroke: #1f77b4"/>
     <use xlink:href="#m197671c167" x="137.107213" y="266.606413" style="fill: #1f77b4; stroke: #1f77b4"/>
     <use xlink:href="#m197671c167" x="136.085397" y="264.423678" style="fill: #1f77b4; stroke: #1f77b4"/>
     <use xlink:href="#m197671c167" x="133.31718" y="261.415592" style="fill: #1f77b4; stroke: #1f77b4"/>
     <use xlink:href="#m197671c167" x="131.911162" y="258.765103" style="fill: #1f77b4; stroke: #1f77b4"/>
     <use xlink:href="#m197671c167" x="132.271452" y="260.169985" style="fill: #1f77b4; stroke: #1f77b4"/>
     <use xlink:href="#m197671c167" x="131.277003" y="260.499193" style="fill: #1f77b4; stroke: #1f77b4"/>
     <use xlink:href="#m197671c167" x="130.510327" y="256.288806" style="fill: #1f77b4; stroke: #1f77b4"/>
     <use xlink:href="#m197671c167" x="128.200718" y="254.042802" style="fill: #1f77b4; stroke: #1f77b4"/>
     <use xlink:href="#m197671c167" x="128.125213" y="255.166333" style="fill: #1f77b4; stroke: #1f77b4"/>
     <use xlink:href="#m197671c167" x="121.836748" y="252.194546" style="fill: #1f77b4; stroke: #1f77b4"/>
     <use xlink:href="#m197671c167" x="121.443319" y="251.804797" style="fill: #1f77b4; stroke: #1f77b4"/>
     <use xlink:href="#m197671c167" x="120.856513" y="251.471106" style="fill: #1f77b4; stroke: #1f77b4"/>
     <use xlink:href="#m197671c167" x="118.597791" y="247.792664" style="fill: #1f77b4; stroke: #1f77b4"/>
     <use xlink:href="#m197671c167" x="116.085382" y="247.548288" style="fill: #1f77b4; stroke: #1f77b4"/>
     <use xlink:href="#m197671c167" x="114.028007" y="243.995143" style="fill: #1f77b4; stroke: #1f77b4"/>
     <use xlink:href="#m197671c167" x="111.847617" y="243.115763" style="fill: #1f77b4; stroke: #1f77b4"/>
     <use xlink:href="#m197671c167" x="110.927378" y="241.8677" style="fill: #1f77b4; stroke: #1f77b4"/>
     <use xlink:href="#m197671c167" x="110.520795" y="239.603468" style="fill: #1f77b4; stroke: #1f77b4"/>
     <use xlink:href="#m197671c167" x="111.068416" y="239.750283" style="fill: #1f77b4; stroke: #1f77b4"/>
     <use xlink:href="#m197671c167" x="103.708741" y="237.896372" style="fill: #1f77b4; stroke: #1f77b4"/>
     <use xlink:href="#m197671c167" x="106.897715" y="238.63982" style="fill: #1f77b4; stroke: #1f77b4"/>
     <use xlink:href="#m197671c167" x="99.228087" y="235.069913" style="fill: #1f77b4; stroke: #1f77b4"/>
     <use xlink:href="#m197671c167" x="100.812169" y="232.931699" style="fill: #1f77b4; stroke: #1f77b4"/>
     <use xlink:href="#m197671c167" x="102.934683" y="232.19963" style="fill: #1f77b4; stroke: #1f77b4"/>
     <use xlink:href="#m197671c167" x="96.10441" y="230.653498" style="fill: #1f77b4; stroke: #1f77b4"/>
     <use xlink:href="#m197671c167" x="94.296992" y="230.047785" style="fill: #1f77b4; stroke: #1f77b4"/>
     <use xlink:href="#m197671c167" x="93.906076" y="224.529874" style="fill: #1f77b4; stroke: #1f77b4"/>
     <use xlink:href="#m197671c167" x="91.137938" y="221.917329" style="fill: #1f77b4; stroke: #1f77b4"/>
     <use xlink:href="#m197671c167" x="96.493637" y="223.078397" style="fill: #1f77b4; stroke: #1f77b4"/>
     <use xlink:href="#m197671c167" x="90.257591" y="220.74932" style="fill: #1f77b4; stroke: #1f77b4"/>
     <use xlink:href="#m197671c167" x="88.108809" y="219.340135" style="fill: #1f77b4; stroke: #1f77b4"/>
     <use xlink:href="#m197671c167" x="86.344504" y="215.561293" style="fill: #1f77b4; stroke: #1f77b4"/>
     <use xlink:href="#m197671c167" x="84.440614" y="212.252165" style="fill: #1f77b4; stroke: #1f77b4"/>
     <use xlink:href="#m197671c167" x="85.055533" y="210.403976" style="fill: #1f77b4; stroke: #1f77b4"/>
     <use xlink:href="#m197671c167" x="80.39442" y="208.863748" style="fill: #1f77b4; stroke: #1f77b4"/>
     <use xlink:href="#m197671c167" x="80.277491" y="208.98882" style="fill: #1f77b4; stroke: #1f77b4"/>
     <use xlink:href="#m197671c167" x="73.66164" y="204.869595" style="fill: #1f77b4; stroke: #1f77b4"/>
     <use xlink:href="#m197671c167" x="74.551685" y="204.140342" style="fill: #1f77b4; stroke: #1f77b4"/>
     <use xlink:href="#m197671c167" x="79.113891" y="199.685939" style="fill: #1f77b4; stroke: #1f77b4"/>
     <use xlink:href="#m197671c167" x="70.668517" y="197.828896" style="fill: #1f77b4; stroke: #1f77b4"/>
     <use xlink:href="#m197671c167" x="69.605944" y="194.22438" style="fill: #1f77b4; stroke: #1f77b4"/>
     <use xlink:href="#m197671c167" x="68.153752" y="191.452267" style="fill: #1f77b4; stroke: #1f77b4"/>
     <use xlink:href="#m197671c167" x="68.17307" y="187.853158" style="fill: #1f77b4; stroke: #1f77b4"/>
     <use xlink:href="#m197671c167" x="69.089029" y="184.526658" style="fill: #1f77b4; stroke: #1f77b4"/>
     <use xlink:href="#m197671c167" x="65.761177" y="183.783548" style="fill: #1f77b4; stroke: #1f77b4"/>
     <use xlink:href="#m197671c167" x="62.21529" y="179.54209" style="fill: #1f77b4; stroke: #1f77b4"/>
     <use xlink:href="#m197671c167" x="65.144294" y="175.331726" style="fill: #1f77b4; stroke: #1f77b4"/>
     <use xlink:href="#m197671c167" x="57.32609" y="172.990707" style="fill: #1f77b4; stroke: #1f77b4"/>
     <use xlink:href="#m197671c167" x="59.501926" y="167.905153" style="fill: #1f77b4; stroke: #1f77b4"/>
     <use xlink:href="#m197671c167" x="55.816375" y="165.320681" style="fill: #1f77b4; stroke: #1f77b4"/>
     <use xlink:href="#m197671c167" x="56.170226" y="159.547467" style="fill: #1f77b4; stroke: #1f77b4"/>
     <use xlink:href="#m197671c167" x="60.177469" y="154.619408" style="fill: #1f77b4; stroke: #1f77b4"/>
     <use xlink:href="#m197671c167" x="54.081165" y="150.690664" style="fill: #1f77b4; stroke: #1f77b4"/>
     <use xlink:href="#m197671c167" x="57.652691" y="143.789074" style="fill: #1f77b4; stroke: #1f77b4"/>
     <use xlink:href="#m197671c167" x="57.268568" y="138.765684" style="fill: #1f77b4; stroke: #1f77b4"/>
     <use xlink:href="#m197671c167" x="57.834211" y="134.163115" style="fill: #1f77b4; stroke: #1f77b4"/>
     <use xlink:href="#m197671c167" x="57.706169" y="126.330074" style="fill: #1f77b4; stroke: #1f77b4"/>
     <use xlink:href="#m197671c167" x="66.626642" y="118.175982" style="fill: #1f77b4; stroke: #1f77b4"/>
     <use xlink:href="#m197671c167" x="67.181644" y="109.87289" style="fill: #1f77b4; stroke: #1f77b4"/>
     <use xlink:href="#m197671c167" x="72.256722" y="103.039638" style="fill: #1f77b4; stroke: #1f77b4"/>
     <use xlink:href="#m197671c167" x="84.351915" y="93.722518" style="fill: #1f77b4; stroke: #1f77b4"/>
     <use xlink:href="#m197671c167" x="98.184911" y="87.067602" style="fill: #1f77b4; stroke: #1f77b4"/>
     <use xlink:href="#m197671c167" x="102.581382" y="78.776272" style="fill: #1f77b4; stroke: #1f77b4"/>
     <use xlink:href="#m197671c167" x="121.817941" y="69.257179" style="fill: #1f77b4; stroke: #1f77b4"/>
     <use xlink:href="#m197671c167" x="142.547684" y="60.028044" style="fill: #1f77b4; stroke: #1f77b4"/>
     <use xlink:href="#m197671c167" x="168.725124" y="56.907571" style="fill: #1f77b4; stroke: #1f77b4"/>
     <use xlink:href="#m197671c167" x="194.526646" y="53.856" style="fill: #1f77b4; stroke: #1f77b4"/>
     <use xlink:href="#m197671c167" x="222.045278" y="53.937722" style="fill: #1f77b4; stroke: #1f77b4"/>
     <use xlink:href="#m197671c167" x="257.96947" y="56.515118" style="fill: #1f77b4; stroke: #1f77b4"/>
     <use xlink:href="#m197671c167" x="287.451164" y="61.68503" style="fill: #1f77b4; stroke: #1f77b4"/>
     <use xlink:href="#m197671c167" x="309.218508" y="65.953751" style="fill: #1f77b4; stroke: #1f77b4"/>
     <use xlink:href="#m197671c167" x="336.289055" y="80.425282" style="fill: #1f77b4; stroke: #1f77b4"/>
     <use xlink:href="#m197671c167" x="356.419703" y="92.558633" style="fill: #1f77b4; stroke: #1f77b4"/>
     <use xlink:href="#m197671c167" x="366.515987" y="108.040632" style="fill: #1f77b4; stroke: #1f77b4"/>
     <use xlink:href="#m197671c167" x="372.649631" y="127.30269" style="fill: #1f77b4; stroke: #1f77b4"/>
     <use xlink:href="#m197671c167" x="372.312782" y="144.310565" style="fill: #1f77b4; stroke: #1f77b4"/>
     <use xlink:href="#m197671c167" x="373.545487" y="155.30344" style="fill: #1f77b4; stroke: #1f77b4"/>
     <use xlink:href="#m197671c167" x="361.679951" y="168.817114" style="fill: #1f77b4; stroke: #1f77b4"/>
     <use xlink:href="#m197671c167" x="347.664219" y="179.787435" style="fill: #1f77b4; stroke: #1f77b4"/>
     <use xlink:href="#m197671c167" x="335.391354" y="186.859003" style="fill: #1f77b4; stroke: #1f77b4"/>
     <use xlink:href="#m197671c167" x="321.408368" y="191.703245" style="fill: #1f77b4; stroke: #1f77b4"/>
     <use xlink:href="#m197671c167" x="306.408789" y="196.78276" style="fill: #1f77b4; stroke: #1f77b4"/>
     <use xlink:href="#m197671c167" x="296.742803" y="202.503026" style="fill: #1f77b4; stroke: #1f77b4"/>
     <use xlink:href="#m197671c167" x="282.096446" y="204.464345" style="fill: #1f77b4; stroke: #1f77b4"/>
     <use xlink:href="#m197671c167" x="271.106112" y="204.78348" style="fill: #1f77b4; stroke: #1f77b4"/>
     <use xlink:href="#m197671c167" x="260.976729" y="206.59012" style="fill: #1f77b4; stroke: #1f77b4"/>
     <use xlink:href="#m197671c167" x="251.054504" y="208.313079" style="fill: #1f77b4; stroke: #1f77b4"/>
     <use xlink:href="#m197671c167" x="241.16212" y="206.663348" style="fill: #1f77b4; stroke: #1f77b4"/>
     <use xlink:href="#m197671c167" x="231.119589" y="206.82082" style="fill: #1f77b4; stroke: #1f77b4"/>
     <use xlink:href="#m197671c167" x="226.265767" y="206.168309" style="fill: #1f77b4; stroke: #1f77b4"/>
     <use xlink:href="#m197671c167" x="220.071262" y="205.118005" style="fill: #1f77b4; stroke: #1f77b4"/>
     <use xlink:href="#m197671c167" x="213.02955" y="200.890381" style="fill: #1f77b4; stroke: #1f77b4"/>
     <use xlink:href="#m197671c167" x="208.980451" y="199.84375" style="fill: #1f77b4; stroke: #1f77b4"/>
     <use xlink:href="#m197671c167" x="202.991613" y="202.473802" style="fill: #1f77b4; stroke: #1f77b4"/>
     <use xlink:href="#m197671c167" x="199.974185" y="197.956988" style="fill: #1f77b4; stroke: #1f77b4"/>
     <use xlink:href="#m197671c167" x="192.258108" y="196.110557" style="fill: #1f77b4; stroke: #1f77b4"/>
     <use xlink:href="#m197671c167" x="188.632946" y="193.315844" style="fill: #1f77b4; stroke: #1f77b4"/>
     <use xlink:href="#m197671c167" x="186.309084" y="195.563493" style="fill: #1f77b4; stroke: #1f77b4"/>
     <use xlink:href="#m197671c167" x="182.745685" y="191.445552" style="fill: #1f77b4; stroke: #1f77b4"/>
     <use xlink:href="#m197671c167" x="179.84503" y="190.166869" style="fill: #1f77b4; stroke: #1f77b4"/>
     <use xlink:href="#m197671c167" x="176.954308" y="188.395513" style="fill: #1f77b4; stroke: #1f77b4"/>
     <use xlink:href="#m197671c167" x="171.985716" y="186.60113" style="fill: #1f77b4; stroke: #1f77b4"/>
     <use xlink:href="#m197671c167" x="171.17738" y="184.332527" style="fill: #1f77b4; stroke: #1f77b4"/>
     <use xlink:href="#m197671c167" x="169.502009" y="184.057576" style="fill: #1f77b4; stroke: #1f77b4"/>
     <use xlink:href="#m197671c167" x="165.70589" y="179.264255" style="fill: #1f77b4; stroke: #1f77b4"/>
     <use xlink:href="#m197671c167" x="165.697016" y="178.462833" style="fill: #1f77b4; stroke: #1f77b4"/>
     <use xlink:href="#m197671c167" x="159.426574" y="177.657649" style="fill: #1f77b4; stroke: #1f77b4"/>
     <use xlink:href="#m197671c167" x="160.435512" y="176.735436" style="fill: #1f77b4; stroke: #1f77b4"/>
     <use xlink:href="#m197671c167" x="156.931088" y="174.039118" style="fill: #1f77b4; stroke: #1f77b4"/>
     <use xlink:href="#m197671c167" x="158.952967" y="168.829168" style="fill: #1f77b4; stroke: #1f77b4"/>
     <use xlink:href="#m197671c167" x="157.441093" y="170.887102" style="fill: #1f77b4; stroke: #1f77b4"/>
     <use xlink:href="#m197671c167" x="156.07697" y="167.07106" style="fill: #1f77b4; stroke: #1f77b4"/>
     <use xlink:href="#m197671c167" x="155.272129" y="164.860701" style="fill: #1f77b4; stroke: #1f77b4"/>
     <use xlink:href="#m197671c167" x="151.085565" y="165.588107" style="fill: #1f77b4; stroke: #1f77b4"/>
     <use xlink:href="#m197671c167" x="149.29295" y="161.642082" style="fill: #1f77b4; stroke: #1f77b4"/>
     <use xlink:href="#m197671c167" x="150.106037" y="160.674378" style="fill: #1f77b4; stroke: #1f77b4"/>
     <use xlink:href="#m197671c167" x="149.580287" y="160.497754" style="fill: #1f77b4; stroke: #1f77b4"/>
     <use xlink:href="#m197671c167" x="147.610432" y="158.148961" style="fill: #1f77b4; stroke: #1f77b4"/>
     <use xlink:href="#m197671c167" x="148.923747" y="156.65143" style="fill: #1f77b4; stroke: #1f77b4"/>
     <use xlink:href="#m197671c167" x="149.27265" y="153.640686" style="fill: #1f77b4; stroke: #1f77b4"/>
     <use xlink:href="#m197671c167" x="148.356534" y="151.306494" style="fill: #1f77b4; stroke: #1f77b4"/>
     <use xlink:href="#m197671c167" x="150.125394" y="151.435734" style="fill: #1f77b4; stroke: #1f77b4"/>
     <use xlink:href="#m197671c167" x="149.315449" y="148.902477" style="fill: #1f77b4; stroke: #1f77b4"/>
     <use xlink:href="#m197671c167" x="144.187993" y="146.532911" style="fill: #1f77b4; stroke: #1f77b4"/>
     <use xlink:href="#m197671c167" x="146.213916" y="145.876411" style="fill: #1f77b4; stroke: #1f77b4"/>
     <use xlink:href="#m197671c167" x="147.33943" y="143.183744" style="fill: #1f77b4; stroke: #1f77b4"/>
     <use xlink:href="#m197671c167" x="146.824242" y="142.346249" style="fill: #1f77b4; stroke: #1f77b4"/>
     <use xlink:href="#m197671c167" x="147.235379" y="140.170949" style="fill: #1f77b4; stroke: #1f77b4"/>
     <use xlink:href="#m197671c167" x="148.912086" y="139.377616" style="fill: #1f77b4; stroke: #1f77b4"/>
     <use xlink:href="#m197671c167" x="146.253416" y="135.488889" style="fill: #1f77b4; stroke: #1f77b4"/>
     <use xlink:href="#m197671c167" x="147.183668" y="134.1669" style="fill: #1f77b4; stroke: #1f77b4"/>
     <use xlink:href="#m197671c167" x="147.328671" y="133.06768" style="fill: #1f77b4; stroke: #1f77b4"/>
     <use xlink:href="#m197671c167" x="142.998125" y="132.396918" style="fill: #1f77b4; stroke: #1f77b4"/>
     <use xlink:href="#m197671c167" x="146.291974" y="128.667646" style="fill: #1f77b4; stroke: #1f77b4"/>
     <use xlink:href="#m197671c167" x="149.037928" y="129.17742" style="fill: #1f77b4; stroke: #1f77b4"/>
     <use xlink:href="#m197671c167" x="149.148379" y="127.020438" style="fill: #1f77b4; stroke: #1f77b4"/>
     <use xlink:href="#m197671c167" x="148.445743" y="124.632261" style="fill: #1f77b4; stroke: #1f77b4"/>
     <use xlink:href="#m197671c167" x="147.042434" y="121.395684" style="fill: #1f77b4; stroke: #1f77b4"/>
     <use xlink:href="#m197671c167" x="148.935212" y="123.121864" style="fill: #1f77b4; stroke: #1f77b4"/>
     <use xlink:href="#m197671c167" x="145.727863" y="121.529633" style="fill: #1f77b4; stroke: #1f77b4"/>
     <use xlink:href="#m197671c167" x="152.307708" y="117.567272" style="fill: #1f77b4; stroke: #1f77b4"/>
     <use xlink:href="#m197671c167" x="149.584645" y="116.198621" style="fill: #1f77b4; stroke: #1f77b4"/>
     <use xlink:href="#m197671c167" x="150.424942" y="114.809782" style="fill: #1f77b4; stroke: #1f77b4"/>
     <use xlink:href="#m197671c167" x="157.894753" y="113.901313" style="fill: #1f77b4; stroke: #1f77b4"/>
     <use xlink:href="#m197671c167" x="151.630751" y="113.277485" style="fill: #1f77b4; stroke: #1f77b4"/>
     <use xlink:href="#m197671c167" x="154.267039" y="110.578959" style="fill: #1f77b4; stroke: #1f77b4"/>
     <use xlink:href="#m197671c167" x="155.842679" y="108.32766" style="fill: #1f77b4; stroke: #1f77b4"/>
     <use xlink:href="#m197671c167" x="154.562779" y="107.169002" style="fill: #1f77b4; stroke: #1f77b4"/>
     <use xlink:href="#m197671c167" x="157.925105" y="104.22254" style="fill: #1f77b4; stroke: #1f77b4"/>
     <use xlink:href="#m197671c167" x="155.923564" y="102.283212" style="fill: #1f77b4; stroke: #1f77b4"/>
     <use xlink:href="#m197671c167" x="156.318328" y="101.466289" style="fill: #1f77b4; stroke: #1f77b4"/>
     <use xlink:href="#m197671c167" x="159.821181" y="99.662465" style="fill: #1f77b4; stroke: #1f77b4"/>
     <use xlink:href="#m197671c167" x="162.865152" y="98.553444" style="fill: #1f77b4; stroke: #1f77b4"/>
     <use xlink:href="#m197671c167" x="156.323158" y="97.856478" style="fill: #1f77b4; stroke: #1f77b4"/>
     <use xlink:href="#m197671c167" x="159.840853" y="95.758055" style="fill: #1f77b4; stroke: #1f77b4"/>
     <use xlink:href="#m197671c167" x="162.159218" y="93.415684" style="fill: #1f77b4; stroke: #1f77b4"/>
     <use xlink:href="#m197671c167" x="166.476846" y="92.607841" style="fill: #1f77b4; stroke: #1f77b4"/>
     <use xlink:href="#m197671c167" x="166.058955" y="88.789975" style="fill: #1f77b4; stroke: #1f77b4"/>
     <use xlink:href="#m197671c167" x="163.685502" y="88.932712" style="fill: #1f77b4; stroke: #1f77b4"/>
     <use xlink:href="#m197671c167" x="166.908361" y="88.612945" style="fill: #1f77b4; stroke: #1f77b4"/>
     <use xlink:href="#m197671c167" x="169.578417" y="86.928425" style="fill: #1f77b4; stroke: #1f77b4"/>
     <use xlink:href="#m197671c167" x="173.456834" y="86.616996" style="fill: #1f77b4; stroke: #1f77b4"/>
     <use xlink:href="#m197671c167" x="169.560473" y="84.688956" style="fill: #1f77b4; stroke: #1f77b4"/>
     <use xlink:href="#m197671c167" x="172.103195" y="83.507518" style="fill: #1f77b4; stroke: #1f77b4"/>
     <use xlink:href="#m197671c167" x="172.226014" y="81.532793" style="fill: #1f77b4; stroke: #1f77b4"/>
     <use xlink:href="#m197671c167" x="175.716185" y="80.35397" style="fill: #1f77b4; stroke: #1f77b4"/>
     <use xlink:href="#m197671c167" x="180.111674" y="77.689309" style="fill: #1f77b4; stroke: #1f77b4"/>
     <use xlink:href="#m197671c167" x="177.024631" y="77.301677" style="fill: #1f77b4; stroke: #1f77b4"/>
     <use xlink:href="#m197671c167" x="178.833894" y="75.611097" style="fill: #1f77b4; stroke: #1f77b4"/>
     <use xlink:href="#m197671c167" x="182.064331" y="73.934125" style="fill: #1f77b4; stroke: #1f77b4"/>
     <use xlink:href="#m197671c167" x="179.510262" y="72.10831" style="fill: #1f77b4; stroke: #1f77b4"/>
     <use xlink:href="#m197671c167" x="178.984198" y="69.870576" style="fill: #1f77b4; stroke: #1f77b4"/>
     <use xlink:href="#m197671c167" x="184.494992" y="68.185943" style="fill: #1f77b4; stroke: #1f77b4"/>
     <use xlink:href="#m197671c167" x="187.325914" y="68.088337" style="fill: #1f77b4; stroke: #1f77b4"/>
     <use xlink:href="#m197671c167" x="187.845853" y="68.90891" style="fill: #1f77b4; stroke: #1f77b4"/>
     <use xlink:href="#m197671c167" x="190.850716" y="63.553249" style="fill: #1f77b4; stroke: #1f77b4"/>
     <use xlink:href="#m197671c167" x="189.517101" y="62.76663" style="fill: #1f77b4; stroke: #1f77b4"/>
     <use xlink:href="#m197671c167" x="194.112918" y="61.318714" style="fill: #1f77b4; stroke: #1f77b4"/>
     <use xlink:href="#m197671c167" x="193.970113" y="62.988655" style="fill: #1f77b4; stroke: #1f77b4"/>
     <use xlink:href="#m197671c167" x="197.840088" y="60.119071" style="fill: #1f77b4; stroke: #1f77b4"/>
     <use xlink:href="#m197671c167" x="198.732646" y="57.689233" style="fill: #1f77b4; stroke: #1f77b4"/>
    </g>
   </g>
   <g id="line2d_13">
    <path d="M 150.64183 295.776 
L 144.271016 291.326491 
L 138.065365 286.720694 
L 132.027022 281.953966 
L 126.479336 277.298826 
L 121.083586 272.488122 
L 115.840646 267.513439 
L 110.751196 262.364079 
L 106.101889 257.345918 
L 101.589733 252.146676 
L 97.485079 247.091933 
L 93.503449 241.843535 
L 89.64761 236.378066 
L 86.166525 231.05516 
L 83.041599 225.893831 
L 80.028674 220.49106 
L 77.358012 215.257076 
L 74.809201 209.748275 
L 72.599428 204.41797 
L 70.718064 199.301521 
L 69.152388 194.441995 
L 67.736953 189.304408 
L 66.636419 184.4699 
L 65.825369 180.004034 
L 65.190476 175.289194 
L 64.818825 171.025533 
L 64.642821 166.532429 
L 64.706462 161.784026 
L 64.982457 157.611274 
L 65.503769 153.222936 
L 66.319958 148.599335 
L 67.225779 144.717111 
L 68.396788 140.660033 
L 69.877612 136.417102 
L 71.721138 131.977706 
L 73.37909 128.513367 
L 75.306687 124.929604 
L 77.538639 121.223804 
L 80.114248 117.394544 
L 83.077911 113.442041 
L 86.479623 109.368725 
L 90.375434 105.179963 
L 93.277719 102.327677 
L 96.447376 99.431976 
L 99.905854 96.497907 
L 103.675877 93.531867 
L 107.78136 90.541815 
L 112.247272 87.537519 
L 117.09943 84.530827 
L 122.364198 81.535953 
L 128.068082 78.569782 
L 134.237186 75.652184 
L 140.896525 72.806322 
L 148.069146 70.058941 
L 155.77506 67.440615 
L 164.029956 64.985916 
L 172.843695 62.733476 
L 182.218592 60.725899 
L 192.147519 59.009464 
L 202.611885 57.633578 
L 208.035406 57.08943 
L 213.579582 56.649913 
L 219.237968 56.321643 
L 225.003046 56.111205 
L 230.866179 56.025097 
L 236.817583 56.069664 
L 242.846299 56.251029 
L 248.940192 56.575017 
L 255.085948 57.04708 
L 261.269105 57.672213 
L 267.474092 58.45487 
L 273.684287 59.398884 
L 279.882104 60.507382 
L 286.04909 61.782707 
L 292.166053 63.226344 
L 298.213203 64.838853 
L 304.170317 66.619811 
L 310.016916 68.567768 
L 315.732463 70.680208 
L 321.296568 72.953531 
L 326.689201 75.383054 
L 331.890911 77.963014 
L 336.883038 80.686608 
L 341.647931 83.546032 
L 346.169141 86.532546 
L 350.431609 89.636557 
L 354.421832 92.847706 
L 358.128002 96.154978 
L 361.540127 99.546814 
L 364.650114 103.011239 
L 367.451829 106.535983 
L 369.941119 110.108617 
L 372.115815 113.716678 
L 373.975689 117.347797 
L 375.522399 120.989818 
L 376.7594 124.630906 
L 377.691834 128.259654 
L 378.326406 131.865172 
L 378.671236 135.437158 
L 378.73571 138.965971 
L 378.530319 142.442677 
L 378.066493 145.859086 
L 377.356437 149.20778 
L 376.412972 152.48212 
L 375.249375 155.676255 
L 373.879235 158.785104 
L 372.316312 161.804346 
L 370.574409 164.730389 
L 368.667261 167.560341 
L 366.608425 170.291971 
L 364.411196 172.92367 
L 362.088525 175.454405 
L 359.652958 177.883675 
L 357.116575 180.211466 
L 354.490957 182.4382 
L 351.787144 184.564695 
L 349.015619 186.592116 
L 343.308481 190.355893 
L 337.44182 193.744267 
L 331.478707 196.775059 
L 325.473365 199.468157 
L 319.471731 201.844662 
L 313.512158 203.926203 
L 307.626171 205.734391 
L 301.839249 207.29041 
L 296.171577 208.614713 
L 290.638774 209.726808 
L 285.252544 210.645127 
L 277.465622 211.696729 
L 270.043862 212.404175 
L 262.993739 212.814775 
L 256.313863 212.970169 
L 249.997195 212.906759 
L 244.032773 212.656204 
L 236.604447 212.077864 
L 229.74178 211.270021 
L 223.406365 210.277652 
L 217.559636 209.137533 
L 212.164112 207.879689 
L 207.184161 206.528613 
L 201.493003 204.738727 
L 196.339371 202.865204 
L 191.669421 200.932139 
L 187.435044 198.958199 
L 183.593446 196.957844 
L 179.448855 194.538116 
L 175.757967 192.110929 
L 172.471107 189.686954 
L 169.545303 187.273936 
L 166.538815 184.47993 
L 163.922524 181.714453 
L 161.653244 178.981455 
L 159.69411 176.283356 
L 158.013529 173.621495 
L 156.399261 170.62445 
L 155.07873 167.67549 
L 154.022426 164.774047 
L 153.205136 161.919174 
L 152.544541 158.761654 
L 152.132747 155.659768 
L 151.947276 152.611624 
L 151.9833 149.285549 
L 152.252408 146.02104 
L 152.735313 142.81578 
L 153.493743 139.35588 
L 154.471943 135.962504 
L 155.653676 132.633343 
L 157.15854 129.072369 
L 158.87322 125.583057 
L 160.951792 121.881521 
L 163.245587 118.25957 
L 165.741507 114.715389 
L 168.642311 110.983833 
L 171.751557 107.339209 
L 175.301486 103.529362 
L 179.065555 99.816802 
L 183.304207 95.963056 
L 187.761931 92.218415 
L 192.427765 88.582506 
L 197.601998 84.838343 
L 202.988646 81.216866 
L 208.577297 77.718365 
L 214.703994 74.148624 
L 216.093628 73.37421 
L 216.093628 73.37421 
" clip-path="url(#p5f53f1c409)" style="fill: none; stroke: #d62728; stroke-width: 1.5; stroke-linecap: square"/>
   </g>
   <g id="patch_3">
    <path d="M 37.848438 307.872 
L 37.848438 41.76 
" style="fill: none; stroke: #000000; stroke-width: 0.8; stroke-linejoin: miter; stroke-linecap: square"/>
   </g>
   <g id="patch_4">
    <path d="M 394.968438 307.872 
L 394.968438 41.76 
" style="fill: none; stroke: #000000; stroke-width: 0.8; stroke-linejoin: miter; stroke-linecap: square"/>
   </g>
   <g id="patch_5">
    <path d="M 37.848437 307.872 
L 394.968437 307.872 
" style="fill: none; stroke: #000000; stroke-width: 0.8; stroke-linejoin: miter; stroke-linecap: square"/>
   </g>
   <g id="patch_6">
    <path d="M 37.848437 41.76 
L 394.968437 41.76 
" style="fill: none; stroke: #000000; stroke-width: 0.8; stroke-linejoin: miter; stroke-linecap: square"/>
   </g>
   <g id="text_14">
    <g id="patch_7">
     <path d="M 412.824438 102.337163 
L 551.824438 102.337163 
Q 555.824438 102.337163 555.824438 98.337163 
L 555.824438 55.0656 
Q 555.824438 51.0656 551.824438 51.0656 
L 412.824438 51.0656 
Q 408.824438 51.0656 408.824438 55.0656 
L 408.824438 98.337163 
Q 408.824438 102.337163 412.824438 102.337163 
z
" style="fill: #ffffff; opacity: 0.5; stroke: #000000; stroke-linejoin: miter"/>
    </g>
    <!-- Summary -->
    <g transform="translate(412.824438 62.664038) scale(0.1 -0.1)">
     <defs>
      <path id="DejaVuSans-53" d="M 3425 4513 
L 3425 3897 
Q 3066 4069 2747 4153 
Q 2428 4238 2131 4238 
Q 1616 4238 1336 4038 
Q 1056 3838 1056 3469 
Q 1056 3159 1242 3001 
Q 1428 2844 1947 2747 
L 2328 2669 
Q 3034 2534 3370 2195 
Q 3706 1856 3706 1288 
Q 3706 609 3251 259 
Q 2797 -91 1919 -91 
Q 1588 -91 1214 -16 
Q 841 59 441 206 
L 441 856 
Q 825 641 1194 531 
Q 1563 422 1919 422 
Q 2459 422 2753 634 
Q 3047 847 3047 1241 
Q 3047 1584 2836 1778 
Q 2625 1972 2144 2069 
L 1759 2144 
Q 1053 2284 737 2584 
Q 422 2884 422 3419 
Q 422 4038 858 4394 
Q 1294 4750 2059 4750 
Q 2388 4750 2728 4690 
Q 3069 4631 3425 4513 
z
" transform="scale(0.015625)"/>
      <path id="DejaVuSans-75" d="M 544 1381 
L 544 3500 
L 1119 3500 
L 1119 1403 
Q 1119 906 1312 657 
Q 1506 409 1894 409 
Q 2359 409 2629 706 
Q 2900 1003 2900 1516 
L 2900 3500 
L 3475 3500 
L 3475 0 
L 2900 0 
L 2900 538 
Q 2691 219 2414 64 
Q 2138 -91 1772 -91 
Q 1169 -91 856 284 
Q 544 659 544 1381 
z
M 1991 3584 
L 1991 3584 
z
" transform="scale(0.015625)"/>
      <path id="DejaVuSans-61" d="M 2194 1759 
Q 1497 1759 1228 1600 
Q 959 1441 959 1056 
Q 959 750 1161 570 
Q 1363 391 1709 391 
Q 2188 391 2477 730 
Q 2766 1069 2766 1631 
L 2766 1759 
L 2194 1759 
z
M 3341 1997 
L 3341 0 
L 2766 0 
L 2766 531 
Q 2569 213 2275 61 
Q 1981 -91 1556 -91 
Q 1019 -91 701 211 
Q 384 513 384 1019 
Q 384 1609 779 1909 
Q 1175 2209 1959 2209 
L 2766 2209 
L 2766 2266 
Q 2766 2663 2505 2880 
Q 2244 3097 1772 3097 
Q 1472 3097 1187 3025 
Q 903 2953 641 2809 
L 641 3341 
Q 956 3463 1253 3523 
Q 1550 3584 1831 3584 
Q 2591 3584 2966 3190 
Q 3341 2797 3341 1997 
z
" transform="scale(0.015625)"/>
      <path id="DejaVuSans-72" d="M 2631 2963 
Q 2534 3019 2420 3045 
Q 2306 3072 2169 3072 
Q 1681 3072 1420 2755 
Q 1159 2438 1159 1844 
L 1159 0 
L 581 0 
L 581 3500 
L 1159 3500 
L 1159 2956 
Q 1341 3275 1631 3429 
Q 1922 3584 2338 3584 
Q 2397 3584 2469 3576 
Q 2541 3569 2628 3553 
L 2631 2963 
z
" transform="scale(0.015625)"/>
      <path id="DejaVuSans-79" d="M 2059 -325 
Q 1816 -950 1584 -1140 
Q 1353 -1331 966 -1331 
L 506 -1331 
L 506 -850 
L 844 -850 
Q 1081 -850 1212 -737 
Q 1344 -625 1503 -206 
L 1606 56 
L 191 3500 
L 800 3500 
L 1894 763 
L 2988 3500 
L 3597 3500 
L 2059 -325 
z
" transform="scale(0.015625)"/>
     </defs>
     <use xlink:href="#DejaVuSans-53"/>
     <use xlink:href="#DejaVuSans-75" x="63.476562"/>
     <use xlink:href="#DejaVuSans-6d" x="126.855469"/>
     <use xlink:href="#DejaVuSans-6d" x="224.267578"/>
     <use xlink:href="#DejaVuSans-61" x="321.679688"/>
     <use xlink:href="#DejaVuSans-72" x="382.958984"/>
     <use xlink:href="#DejaVuSans-79" x="424.072266"/>
    </g>
    <!-- $Q_I$: 16.7$\pm$1.3 k -->
    <g transform="translate(412.824438 73.86185) scale(0.1 -0.1)">
     <defs>
      <path id="DejaVuSans-Oblique-51" d="M 2309 -84 
Q 2275 -88 2237 -89 
Q 2200 -91 2125 -91 
Q 1250 -91 756 411 
Q 263 913 263 1797 
Q 263 2319 452 2844 
Q 641 3369 978 3788 
Q 1369 4269 1858 4509 
Q 2347 4750 2938 4750 
Q 3794 4750 4287 4245 
Q 4781 3741 4781 2869 
Q 4781 1928 4265 1147 
Q 3750 366 2919 44 
L 3553 -825 
L 2847 -825 
L 2309 -84 
z
M 2919 4238 
Q 2400 4238 2003 3986 
Q 1606 3734 1313 3219 
Q 1125 2891 1026 2522 
Q 928 2153 928 1778 
Q 928 1128 1239 775 
Q 1550 422 2119 422 
Q 2631 422 3032 676 
Q 3434 931 3719 1434 
Q 3909 1772 4009 2142 
Q 4109 2513 4109 2881 
Q 4109 3528 3796 3883 
Q 3484 4238 2919 4238 
z
" transform="scale(0.015625)"/>
      <path id="DejaVuSans-Oblique-49" d="M 1081 4666 
L 1716 4666 
L 806 0 
L 172 0 
L 1081 4666 
z
" transform="scale(0.015625)"/>
      <path id="DejaVuSans-3a" d="M 750 794 
L 1409 794 
L 1409 0 
L 750 0 
L 750 794 
z
M 750 3309 
L 1409 3309 
L 1409 2516 
L 750 2516 
L 750 3309 
z
" transform="scale(0.015625)"/>
      <path id="DejaVuSans-2e" d="M 684 794 
L 1344 794 
L 1344 0 
L 684 0 
L 684 794 
z
" transform="scale(0.015625)"/>
      <path id="DejaVuSans-37" d="M 525 4666 
L 3525 4666 
L 3525 4397 
L 1831 0 
L 1172 0 
L 2766 4134 
L 525 4134 
L 525 4666 
z
" transform="scale(0.015625)"/>
      <path id="DejaVuSans-b1" d="M 2944 4013 
L 2944 2803 
L 4684 2803 
L 4684 2272 
L 2944 2272 
L 2944 1063 
L 2419 1063 
L 2419 2272 
L 678 2272 
L 678 2803 
L 2419 2803 
L 2419 4013 
L 2944 4013 
z
M 678 531 
L 4684 531 
L 4684 0 
L 678 0 
L 678 531 
z
" transform="scale(0.015625)"/>
      <path id="DejaVuSans-33" d="M 2597 2516 
Q 3050 2419 3304 2112 
Q 3559 1806 3559 1356 
Q 3559 666 3084 287 
Q 2609 -91 1734 -91 
Q 1441 -91 1130 -33 
Q 819 25 488 141 
L 488 750 
Q 750 597 1062 519 
Q 1375 441 1716 441 
Q 2309 441 2620 675 
Q 2931 909 2931 1356 
Q 2931 1769 2642 2001 
Q 2353 2234 1838 2234 
L 1294 2234 
L 1294 2753 
L 1863 2753 
Q 2328 2753 2575 2939 
Q 2822 3125 2822 3475 
Q 2822 3834 2567 4026 
Q 2313 4219 1838 4219 
Q 1578 4219 1281 4162 
Q 984 4106 628 3988 
L 628 4550 
Q 988 4650 1302 4700 
Q 1616 4750 1894 4750 
Q 2613 4750 3031 4423 
Q 3450 4097 3450 3541 
Q 3450 3153 3228 2886 
Q 3006 2619 2597 2516 
z
" transform="scale(0.015625)"/>
      <path id="DejaVuSans-6b" d="M 581 4863 
L 1159 4863 
L 1159 1991 
L 2875 3500 
L 3609 3500 
L 1753 1863 
L 3688 0 
L 2938 0 
L 1159 1709 
L 1159 0 
L 581 0 
L 581 4863 
z
" transform="scale(0.015625)"/>
     </defs>
     <use xlink:href="#DejaVuSans-Oblique-51" transform="translate(0 0.015625)"/>
     <use xlink:href="#DejaVuSans-Oblique-49" transform="translate(78.710938 -16.390625) scale(0.7)"/>
     <use xlink:href="#DejaVuSans-3a" transform="translate(102.089844 0.015625)"/>
     <use xlink:href="#DejaVuSans-20" transform="translate(135.78125 0.015625)"/>
     <use xlink:href="#DejaVuSans-31" transform="translate(167.568359 0.015625)"/>
     <use xlink:href="#DejaVuSans-36" transform="translate(231.191406 0.015625)"/>
     <use xlink:href="#DejaVuSans-2e" transform="translate(294.814453 0.015625)"/>
     <use xlink:href="#DejaVuSans-37" transform="translate(318.851562 0.015625)"/>
     <use xlink:href="#DejaVuSans-b1" transform="translate(382.474609 0.015625)"/>
     <use xlink:href="#DejaVuSans-31" transform="translate(466.263672 0.015625)"/>
     <use xlink:href="#DejaVuSans-2e" transform="translate(529.886719 0.015625)"/>
     <use xlink:href="#DejaVuSans-33" transform="translate(561.673828 0.015625)"/>
     <use xlink:href="#DejaVuSans-20" transform="translate(625.296875 0.015625)"/>
     <use xlink:href="#DejaVuSans-6b" transform="translate(657.083984 0.015625)"/>
    </g>
    <!-- $Q_C$: 3.311$\pm$0.056 k -->
    <g transform="translate(412.824438 85.059663) scale(0.1 -0.1)">
     <defs>
      <path id="DejaVuSans-Oblique-43" d="M 4447 4306 
L 4319 3641 
Q 4019 3944 3683 4091 
Q 3347 4238 2956 4238 
Q 2422 4238 2017 3981 
Q 1613 3725 1319 3200 
Q 1131 2863 1032 2486 
Q 934 2109 934 1728 
Q 934 1091 1264 756 
Q 1594 422 2222 422 
Q 2656 422 3056 561 
Q 3456 700 3834 978 
L 3688 231 
Q 3316 72 2936 -9 
Q 2556 -91 2175 -91 
Q 1278 -91 773 396 
Q 269 884 269 1753 
Q 269 2309 461 2846 
Q 653 3384 1013 3828 
Q 1394 4300 1883 4525 
Q 2372 4750 3022 4750 
Q 3422 4750 3780 4639 
Q 4138 4528 4447 4306 
z
" transform="scale(0.015625)"/>
      <path id="DejaVuSans-35" d="M 691 4666 
L 3169 4666 
L 3169 4134 
L 1269 4134 
L 1269 2991 
Q 1406 3038 1543 3061 
Q 1681 3084 1819 3084 
Q 2600 3084 3056 2656 
Q 3513 2228 3513 1497 
Q 3513 744 3044 326 
Q 2575 -91 1722 -91 
Q 1428 -91 1123 -41 
Q 819 9 494 109 
L 494 744 
Q 775 591 1075 516 
Q 1375 441 1709 441 
Q 2250 441 2565 725 
Q 2881 1009 2881 1497 
Q 2881 1984 2565 2268 
Q 2250 2553 1709 2553 
Q 1456 2553 1204 2497 
Q 953 2441 691 2322 
L 691 4666 
z
" transform="scale(0.015625)"/>
     </defs>
     <use xlink:href="#DejaVuSans-Oblique-51" transform="translate(0 0.015625)"/>
     <use xlink:href="#DejaVuSans-Oblique-43" transform="translate(78.710938 -16.390625) scale(0.7)"/>
     <use xlink:href="#DejaVuSans-3a" transform="translate(130.322266 0.015625)"/>
     <use xlink:href="#DejaVuSans-20" transform="translate(164.013672 0.015625)"/>
     <use xlink:href="#DejaVuSans-33" transform="translate(195.800781 0.015625)"/>
     <use xlink:href="#DejaVuSans-2e" transform="translate(259.423828 0.015625)"/>
     <use xlink:href="#DejaVuSans-33" transform="translate(291.210938 0.015625)"/>
     <use xlink:href="#DejaVuSans-31" transform="translate(354.833984 0.015625)"/>
     <use xlink:href="#DejaVuSans-31" transform="translate(418.457031 0.015625)"/>
     <use xlink:href="#DejaVuSans-b1" transform="translate(482.080078 0.015625)"/>
     <use xlink:href="#DejaVuSans-30" transform="translate(565.869141 0.015625)"/>
     <use xlink:href="#DejaVuSans-2e" transform="translate(629.492188 0.015625)"/>
     <use xlink:href="#DejaVuSans-30" transform="translate(661.279297 0.015625)"/>
     <use xlink:href="#DejaVuSans-35" transform="translate(724.902344 0.015625)"/>
     <use xlink:href="#DejaVuSans-36" transform="translate(788.525391 0.015625)"/>
     <use xlink:href="#DejaVuSans-20" transform="translate(852.148438 0.015625)"/>
     <use xlink:href="#DejaVuSans-6b" transform="translate(883.935547 0.015625)"/>
    </g>
    <!-- $f_{res}$: 5.837702$\pm$1.9e-05 GHz -->
    <g transform="translate(412.824438 96.257475) scale(0.1 -0.1)">
     <defs>
      <path id="DejaVuSans-Oblique-66" d="M 3059 4863 
L 2969 4384 
L 2419 4384 
Q 2106 4384 1964 4261 
Q 1822 4138 1753 3809 
L 1691 3500 
L 2638 3500 
L 2553 3053 
L 1606 3053 
L 1013 0 
L 434 0 
L 1031 3053 
L 481 3053 
L 563 3500 
L 1113 3500 
L 1159 3744 
Q 1278 4363 1576 4613 
Q 1875 4863 2516 4863 
L 3059 4863 
z
" transform="scale(0.015625)"/>
      <path id="DejaVuSans-Oblique-72" d="M 2853 2969 
Q 2766 3016 2653 3041 
Q 2541 3066 2413 3066 
Q 1953 3066 1609 2717 
Q 1266 2369 1153 1784 
L 800 0 
L 225 0 
L 909 3500 
L 1484 3500 
L 1375 2956 
Q 1603 3259 1920 3421 
Q 2238 3584 2597 3584 
Q 2691 3584 2781 3573 
Q 2872 3563 2963 3538 
L 2853 2969 
z
" transform="scale(0.015625)"/>
      <path id="DejaVuSans-Oblique-65" d="M 3078 2063 
Q 3088 2113 3092 2166 
Q 3097 2219 3097 2272 
Q 3097 2653 2873 2875 
Q 2650 3097 2266 3097 
Q 1838 3097 1509 2826 
Q 1181 2556 1013 2059 
L 3078 2063 
z
M 3578 1613 
L 903 1613 
Q 884 1494 878 1425 
Q 872 1356 872 1306 
Q 872 872 1139 634 
Q 1406 397 1894 397 
Q 2269 397 2603 481 
Q 2938 566 3225 728 
L 3116 159 
Q 2806 34 2476 -28 
Q 2147 -91 1806 -91 
Q 1078 -91 686 257 
Q 294 606 294 1247 
Q 294 1794 489 2264 
Q 684 2734 1063 3103 
Q 1306 3334 1642 3459 
Q 1978 3584 2356 3584 
Q 2950 3584 3301 3228 
Q 3653 2872 3653 2272 
Q 3653 2128 3634 1964 
Q 3616 1800 3578 1613 
z
" transform="scale(0.015625)"/>
      <path id="DejaVuSans-Oblique-73" d="M 3200 3397 
L 3091 2853 
Q 2863 2978 2609 3040 
Q 2356 3103 2088 3103 
Q 1634 3103 1373 2948 
Q 1113 2794 1113 2528 
Q 1113 2219 1719 2053 
Q 1766 2041 1788 2034 
L 1972 1978 
Q 2547 1819 2739 1644 
Q 2931 1469 2931 1166 
Q 2931 609 2489 259 
Q 2047 -91 1331 -91 
Q 1053 -91 747 -37 
Q 441 16 72 128 
L 184 722 
Q 500 559 806 475 
Q 1113 391 1394 391 
Q 1816 391 2080 572 
Q 2344 753 2344 1031 
Q 2344 1331 1650 1516 
L 1591 1531 
L 1394 1581 
Q 956 1697 753 1886 
Q 550 2075 550 2369 
Q 550 2928 970 3256 
Q 1391 3584 2113 3584 
Q 2397 3584 2667 3537 
Q 2938 3491 3200 3397 
z
" transform="scale(0.015625)"/>
      <path id="DejaVuSans-39" d="M 703 97 
L 703 672 
Q 941 559 1184 500 
Q 1428 441 1663 441 
Q 2288 441 2617 861 
Q 2947 1281 2994 2138 
Q 2813 1869 2534 1725 
Q 2256 1581 1919 1581 
Q 1219 1581 811 2004 
Q 403 2428 403 3163 
Q 403 3881 828 4315 
Q 1253 4750 1959 4750 
Q 2769 4750 3195 4129 
Q 3622 3509 3622 2328 
Q 3622 1225 3098 567 
Q 2575 -91 1691 -91 
Q 1453 -91 1209 -44 
Q 966 3 703 97 
z
M 1959 2075 
Q 2384 2075 2632 2365 
Q 2881 2656 2881 3163 
Q 2881 3666 2632 3958 
Q 2384 4250 1959 4250 
Q 1534 4250 1286 3958 
Q 1038 3666 1038 3163 
Q 1038 2656 1286 2365 
Q 1534 2075 1959 2075 
z
" transform="scale(0.015625)"/>
      <path id="DejaVuSans-47" d="M 3809 666 
L 3809 1919 
L 2778 1919 
L 2778 2438 
L 4434 2438 
L 4434 434 
Q 4069 175 3628 42 
Q 3188 -91 2688 -91 
Q 1594 -91 976 548 
Q 359 1188 359 2328 
Q 359 3472 976 4111 
Q 1594 4750 2688 4750 
Q 3144 4750 3555 4637 
Q 3966 4525 4313 4306 
L 4313 3634 
Q 3963 3931 3569 4081 
Q 3175 4231 2741 4231 
Q 1884 4231 1454 3753 
Q 1025 3275 1025 2328 
Q 1025 1384 1454 906 
Q 1884 428 2741 428 
Q 3075 428 3337 486 
Q 3600 544 3809 666 
z
" transform="scale(0.015625)"/>
      <path id="DejaVuSans-48" d="M 628 4666 
L 1259 4666 
L 1259 2753 
L 3553 2753 
L 3553 4666 
L 4184 4666 
L 4184 0 
L 3553 0 
L 3553 2222 
L 1259 2222 
L 1259 0 
L 628 0 
L 628 4666 
z
" transform="scale(0.015625)"/>
      <path id="DejaVuSans-7a" d="M 353 3500 
L 3084 3500 
L 3084 2975 
L 922 459 
L 3084 459 
L 3084 0 
L 275 0 
L 275 525 
L 2438 3041 
L 353 3041 
L 353 3500 
z
" transform="scale(0.015625)"/>
     </defs>
     <use xlink:href="#DejaVuSans-Oblique-66" transform="translate(0 0.015625)"/>
     <use xlink:href="#DejaVuSans-Oblique-72" transform="translate(35.205078 -16.390625) scale(0.7)"/>
     <use xlink:href="#DejaVuSans-Oblique-65" transform="translate(63.984375 -16.390625) scale(0.7)"/>
     <use xlink:href="#DejaVuSans-Oblique-73" transform="translate(107.050781 -16.390625) scale(0.7)"/>
     <use xlink:href="#DejaVuSans-3a" transform="translate(146.254883 0.015625)"/>
     <use xlink:href="#DejaVuSans-20" transform="translate(179.946289 0.015625)"/>
     <use xlink:href="#DejaVuSans-35" transform="translate(211.733398 0.015625)"/>
     <use xlink:href="#DejaVuSans-2e" transform="translate(275.356445 0.015625)"/>
     <use xlink:href="#DejaVuSans-38" transform="translate(304.518555 0.015625)"/>
     <use xlink:href="#DejaVuSans-33" transform="translate(368.141602 0.015625)"/>
     <use xlink:href="#DejaVuSans-37" transform="translate(431.764648 0.015625)"/>
     <use xlink:href="#DejaVuSans-37" transform="translate(493.637695 0.015625)"/>
     <use xlink:href="#DejaVuSans-30" transform="translate(557.260742 0.015625)"/>
     <use xlink:href="#DejaVuSans-32" transform="translate(620.883789 0.015625)"/>
     <use xlink:href="#DejaVuSans-b1" transform="translate(684.506836 0.015625)"/>
     <use xlink:href="#DejaVuSans-31" transform="translate(768.295898 0.015625)"/>
     <use xlink:href="#DejaVuSans-2e" transform="translate(831.918945 0.015625)"/>
     <use xlink:href="#DejaVuSans-39" transform="translate(863.706055 0.015625)"/>
     <use xlink:href="#DejaVuSans-65" transform="translate(927.329102 0.015625)"/>
     <use xlink:href="#DejaVuSans-2d" transform="translate(988.852539 0.015625)"/>
     <use xlink:href="#DejaVuSans-30" transform="translate(1024.936523 0.015625)"/>
     <use xlink:href="#DejaVuSans-35" transform="translate(1088.55957 0.015625)"/>
     <use xlink:href="#DejaVuSans-20" transform="translate(1152.182617 0.015625)"/>
     <use xlink:href="#DejaVuSans-47" transform="translate(1183.969727 0.015625)"/>
     <use xlink:href="#DejaVuSans-48" transform="translate(1261.459961 0.015625)"/>
     <use xlink:href="#DejaVuSans-7a" transform="translate(1336.655273 0.015625)"/>
    </g>
   </g>
  </g>
  <g id="text_15">
   <!-- S21 resonator spectroscopy -->
   <g transform="translate(126.864063 16.318125) scale(0.12 -0.12)">
    <defs>
     <path id="DejaVuSans-73" d="M 2834 3397 
L 2834 2853 
Q 2591 2978 2328 3040 
Q 2066 3103 1784 3103 
Q 1356 3103 1142 2972 
Q 928 2841 928 2578 
Q 928 2378 1081 2264 
Q 1234 2150 1697 2047 
L 1894 2003 
Q 2506 1872 2764 1633 
Q 3022 1394 3022 966 
Q 3022 478 2636 193 
Q 2250 -91 1575 -91 
Q 1294 -91 989 -36 
Q 684 19 347 128 
L 347 722 
Q 666 556 975 473 
Q 1284 391 1588 391 
Q 1994 391 2212 530 
Q 2431 669 2431 922 
Q 2431 1156 2273 1281 
Q 2116 1406 1581 1522 
L 1381 1569 
Q 847 1681 609 1914 
Q 372 2147 372 2553 
Q 372 3047 722 3315 
Q 1072 3584 1716 3584 
Q 2034 3584 2315 3537 
Q 2597 3491 2834 3397 
z
" transform="scale(0.015625)"/>
     <path id="DejaVuSans-6f" d="M 1959 3097 
Q 1497 3097 1228 2736 
Q 959 2375 959 1747 
Q 959 1119 1226 758 
Q 1494 397 1959 397 
Q 2419 397 2687 759 
Q 2956 1122 2956 1747 
Q 2956 2369 2687 2733 
Q 2419 3097 1959 3097 
z
M 1959 3584 
Q 2709 3584 3137 3096 
Q 3566 2609 3566 1747 
Q 3566 888 3137 398 
Q 2709 -91 1959 -91 
Q 1206 -91 779 398 
Q 353 888 353 1747 
Q 353 2609 779 3096 
Q 1206 3584 1959 3584 
z
" transform="scale(0.015625)"/>
     <path id="DejaVuSans-6e" d="M 3513 2113 
L 3513 0 
L 2938 0 
L 2938 2094 
Q 2938 2591 2744 2837 
Q 2550 3084 2163 3084 
Q 1697 3084 1428 2787 
Q 1159 2491 1159 1978 
L 1159 0 
L 581 0 
L 581 3500 
L 1159 3500 
L 1159 2956 
Q 1366 3272 1645 3428 
Q 1925 3584 2291 3584 
Q 2894 3584 3203 3211 
Q 3513 2838 3513 2113 
z
" transform="scale(0.015625)"/>
     <path id="DejaVuSans-74" d="M 1172 4494 
L 1172 3500 
L 2356 3500 
L 2356 3053 
L 1172 3053 
L 1172 1153 
Q 1172 725 1289 603 
Q 1406 481 1766 481 
L 2356 481 
L 2356 0 
L 1766 0 
Q 1100 0 847 248 
Q 594 497 594 1153 
L 594 3053 
L 172 3053 
L 172 3500 
L 594 3500 
L 594 4494 
L 1172 4494 
z
" transform="scale(0.015625)"/>
     <path id="DejaVuSans-70" d="M 1159 525 
L 1159 -1331 
L 581 -1331 
L 581 3500 
L 1159 3500 
L 1159 2969 
Q 1341 3281 1617 3432 
Q 1894 3584 2278 3584 
Q 2916 3584 3314 3078 
Q 3713 2572 3713 1747 
Q 3713 922 3314 415 
Q 2916 -91 2278 -91 
Q 1894 -91 1617 61 
Q 1341 213 1159 525 
z
M 3116 1747 
Q 3116 2381 2855 2742 
Q 2594 3103 2138 3103 
Q 1681 3103 1420 2742 
Q 1159 2381 1159 1747 
Q 1159 1113 1420 752 
Q 1681 391 2138 391 
Q 2594 391 2855 752 
Q 3116 1113 3116 1747 
z
" transform="scale(0.015625)"/>
     <path id="DejaVuSans-63" d="M 3122 3366 
L 3122 2828 
Q 2878 2963 2633 3030 
Q 2388 3097 2138 3097 
Q 1578 3097 1268 2742 
Q 959 2388 959 1747 
Q 959 1106 1268 751 
Q 1578 397 2138 397 
Q 2388 397 2633 464 
Q 2878 531 3122 666 
L 3122 134 
Q 2881 22 2623 -34 
Q 2366 -91 2075 -91 
Q 1284 -91 818 406 
Q 353 903 353 1747 
Q 353 2603 823 3093 
Q 1294 3584 2113 3584 
Q 2378 3584 2631 3529 
Q 2884 3475 3122 3366 
z
" transform="scale(0.015625)"/>
    </defs>
    <use xlink:href="#DejaVuSans-53"/>
    <use xlink:href="#DejaVuSans-32" x="63.476562"/>
    <use xlink:href="#DejaVuSans-31" x="127.099609"/>
    <use xlink:href="#DejaVuSans-20" x="190.722656"/>
    <use xlink:href="#DejaVuSans-72" x="222.509766"/>
    <use xlink:href="#DejaVuSans-65" x="261.373047"/>
    <use xlink:href="#DejaVuSans-73" x="322.896484"/>
    <use xlink:href="#DejaVuSans-6f" x="374.996094"/>
    <use xlink:href="#DejaVuSans-6e" x="436.177734"/>
    <use xlink:href="#DejaVuSans-61" x="499.556641"/>
    <use xlink:href="#DejaVuSans-74" x="560.835938"/>
    <use xlink:href="#DejaVuSans-6f" x="600.044922"/>
    <use xlink:href="#DejaVuSans-72" x="661.226562"/>
    <use xlink:href="#DejaVuSans-20" x="702.339844"/>
    <use xlink:href="#DejaVuSans-73" x="734.126953"/>
    <use xlink:href="#DejaVuSans-70" x="786.226562"/>
    <use xlink:href="#DejaVuSans-65" x="849.703125"/>
    <use xlink:href="#DejaVuSans-63" x="911.226562"/>
    <use xlink:href="#DejaVuSans-74" x="966.207031"/>
    <use xlink:href="#DejaVuSans-72" x="1005.416016"/>
    <use xlink:href="#DejaVuSans-6f" x="1044.279297"/>
    <use xlink:href="#DejaVuSans-73" x="1105.460938"/>
    <use xlink:href="#DejaVuSans-63" x="1157.560547"/>
    <use xlink:href="#DejaVuSans-6f" x="1212.541016"/>
    <use xlink:href="#DejaVuSans-70" x="1273.722656"/>
    <use xlink:href="#DejaVuSans-79" x="1337.199219"/>
   </g>
   <!-- tuid: 20231227-160748-746-00f65d -->
   <g transform="translate(102.506875 29.7555) scale(0.12 -0.12)">
    <defs>
     <path id="DejaVuSans-69" d="M 603 3500 
L 1178 3500 
L 1178 0 
L 603 0 
L 603 3500 
z
M 603 4863 
L 1178 4863 
L 1178 4134 
L 603 4134 
L 603 4863 
z
" transform="scale(0.015625)"/>
     <path id="DejaVuSans-64" d="M 2906 2969 
L 2906 4863 
L 3481 4863 
L 3481 0 
L 2906 0 
L 2906 525 
Q 2725 213 2448 61 
Q 2172 -91 1784 -91 
Q 1150 -91 751 415 
Q 353 922 353 1747 
Q 353 2572 751 3078 
Q 1150 3584 1784 3584 
Q 2172 3584 2448 3432 
Q 2725 3281 2906 2969 
z
M 947 1747 
Q 947 1113 1208 752 
Q 1469 391 1925 391 
Q 2381 391 2643 752 
Q 2906 1113 2906 1747 
Q 2906 2381 2643 2742 
Q 2381 3103 1925 3103 
Q 1469 3103 1208 2742 
Q 947 2381 947 1747 
z
" transform="scale(0.015625)"/>
     <path id="DejaVuSans-66" d="M 2375 4863 
L 2375 4384 
L 1825 4384 
Q 1516 4384 1395 4259 
Q 1275 4134 1275 3809 
L 1275 3500 
L 2222 3500 
L 2222 3053 
L 1275 3053 
L 1275 0 
L 697 0 
L 697 3053 
L 147 3053 
L 147 3500 
L 697 3500 
L 697 3744 
Q 697 4328 969 4595 
Q 1241 4863 1831 4863 
L 2375 4863 
z
" transform="scale(0.015625)"/>
    </defs>
    <use xlink:href="#DejaVuSans-74"/>
    <use xlink:href="#DejaVuSans-75" x="39.208984"/>
    <use xlink:href="#DejaVuSans-69" x="102.587891"/>
    <use xlink:href="#DejaVuSans-64" x="130.371094"/>
    <use xlink:href="#DejaVuSans-3a" x="193.847656"/>
    <use xlink:href="#DejaVuSans-20" x="227.539062"/>
    <use xlink:href="#DejaVuSans-32" x="259.326172"/>
    <use xlink:href="#DejaVuSans-30" x="322.949219"/>
    <use xlink:href="#DejaVuSans-32" x="386.572266"/>
    <use xlink:href="#DejaVuSans-33" x="450.195312"/>
    <use xlink:href="#DejaVuSans-31" x="513.818359"/>
    <use xlink:href="#DejaVuSans-32" x="577.441406"/>
    <use xlink:href="#DejaVuSans-32" x="641.064453"/>
    <use xlink:href="#DejaVuSans-37" x="704.6875"/>
    <use xlink:href="#DejaVuSans-2d" x="768.310547"/>
    <use xlink:href="#DejaVuSans-31" x="804.394531"/>
    <use xlink:href="#DejaVuSans-36" x="868.017578"/>
    <use xlink:href="#DejaVuSans-30" x="931.640625"/>
    <use xlink:href="#DejaVuSans-37" x="995.263672"/>
    <use xlink:href="#DejaVuSans-34" x="1058.886719"/>
    <use xlink:href="#DejaVuSans-38" x="1122.509766"/>
    <use xlink:href="#DejaVuSans-2d" x="1186.132812"/>
    <use xlink:href="#DejaVuSans-37" x="1222.216797"/>
    <use xlink:href="#DejaVuSans-34" x="1285.839844"/>
    <use xlink:href="#DejaVuSans-36" x="1349.462891"/>
    <use xlink:href="#DejaVuSans-2d" x="1413.085938"/>
    <use xlink:href="#DejaVuSans-30" x="1449.169922"/>
    <use xlink:href="#DejaVuSans-30" x="1512.792969"/>
    <use xlink:href="#DejaVuSans-66" x="1576.416016"/>
    <use xlink:href="#DejaVuSans-36" x="1611.621094"/>
    <use xlink:href="#DejaVuSans-35" x="1675.244141"/>
    <use xlink:href="#DejaVuSans-64" x="1738.867188"/>
   </g>
  </g>
 </g>
 <defs>
  <clipPath id="p5f53f1c409">
   <rect x="37.848438" y="41.76" width="357.12" height="266.112"/>
  </clipPath>
 </defs>
</svg>
