<?xml version="1.0" encoding="utf-8" standalone="no"?>
<!DOCTYPE svg PUBLIC "-//W3C//DTD SVG 1.1//EN"
  "http://www.w3.org/Graphics/SVG/1.1/DTD/svg11.dtd">
<svg xmlns:xlink="http://www.w3.org/1999/xlink" width="571.771313pt" height="345.42825pt" viewBox="0 0 571.771313 345.42825" xmlns="http://www.w3.org/2000/svg" version="1.1">
 <metadata>
  <rdf:RDF xmlns:dc="http://purl.org/dc/elements/1.1/" xmlns:cc="http://creativecommons.org/ns#" xmlns:rdf="http://www.w3.org/1999/02/22-rdf-syntax-ns#">
   <cc:Work>
    <dc:type rdf:resource="http://purl.org/dc/dcmitype/StillImage"/>
    <dc:date>2023-12-27T16:07:53.328036</dc:date>
    <dc:format>image/svg+xml</dc:format>
    <dc:creator>
     <cc:Agent>
      <dc:title>Matplotlib v3.8.2, https://matplotlib.org/</dc:title>
     </cc:Agent>
    </dc:creator>
   </cc:Work>
  </rdf:RDF>
 </metadata>
 <defs>
  <style type="text/css">*{stroke-linejoin: round; stroke-linecap: butt}</style>
 </defs>
 <g id="figure_1">
  <g id="patch_1">
   <path d="M 0 345.42825 
L 571.771313 345.42825 
L 571.771313 -0 
L 0 -0 
L 0 345.42825 
z
" style="fill: none; opacity: 0"/>
  </g>
  <g id="axes_1">
   <g id="patch_2">
    <path d="M 50.595313 162.72 
L 407.715312 162.72 
L 407.715312 41.76 
L 50.595313 41.76 
z
" style="fill: #ffffff"/>
   </g>
   <g id="matplotlib.axis_1">
    <g id="xtick_1">
     <g id="line2d_1">
      <defs>
       <path id="m3f9f35ce38" d="M 0 0 
L 0 3.5 
" style="stroke: #000000; stroke-width: 0.8"/>
      </defs>
      <g>
       <use xlink:href="#m3f9f35ce38" x="110.791676" y="162.72" style="stroke: #000000; stroke-width: 0.8"/>
      </g>
     </g>
    </g>
    <g id="xtick_2">
     <g id="line2d_2">
      <g>
       <use xlink:href="#m3f9f35ce38" x="178.42804" y="162.72" style="stroke: #000000; stroke-width: 0.8"/>
      </g>
     </g>
    </g>
    <g id="xtick_3">
     <g id="line2d_3">
      <g>
       <use xlink:href="#m3f9f35ce38" x="246.064403" y="162.72" style="stroke: #000000; stroke-width: 0.8"/>
      </g>
     </g>
    </g>
    <g id="xtick_4">
     <g id="line2d_4">
      <g>
       <use xlink:href="#m3f9f35ce38" x="313.700767" y="162.72" style="stroke: #000000; stroke-width: 0.8"/>
      </g>
     </g>
    </g>
    <g id="xtick_5">
     <g id="line2d_5">
      <g>
       <use xlink:href="#m3f9f35ce38" x="381.337131" y="162.72" style="stroke: #000000; stroke-width: 0.8"/>
      </g>
     </g>
    </g>
   </g>
   <g id="matplotlib.axis_2">
    <g id="ytick_1">
     <g id="line2d_6">
      <defs>
       <path id="m2822a8d93c" d="M 0 0 
L -3.5 0 
" style="stroke: #000000; stroke-width: 0.8"/>
      </defs>
      <g>
       <use xlink:href="#m2822a8d93c" x="50.595313" y="145.964466" style="stroke: #000000; stroke-width: 0.8"/>
      </g>
     </g>
     <g id="text_1">
      <!-- 2 -->
      <g transform="translate(37.232813 149.763685) scale(0.1 -0.1)">
       <defs>
        <path id="DejaVuSans-32" d="M 1228 531 
L 3431 531 
L 3431 0 
L 469 0 
L 469 531 
Q 828 903 1448 1529 
Q 2069 2156 2228 2338 
Q 2531 2678 2651 2914 
Q 2772 3150 2772 3378 
Q 2772 3750 2511 3984 
Q 2250 4219 1831 4219 
Q 1534 4219 1204 4116 
Q 875 4013 500 3803 
L 500 4441 
Q 881 4594 1212 4672 
Q 1544 4750 1819 4750 
Q 2544 4750 2975 4387 
Q 3406 4025 3406 3419 
Q 3406 3131 3298 2873 
Q 3191 2616 2906 2266 
Q 2828 2175 2409 1742 
Q 1991 1309 1228 531 
z
" transform="scale(0.015625)"/>
       </defs>
       <use xlink:href="#DejaVuSans-32"/>
      </g>
     </g>
    </g>
    <g id="ytick_2">
     <g id="line2d_7">
      <g>
       <use xlink:href="#m2822a8d93c" x="50.595313" y="120.698545" style="stroke: #000000; stroke-width: 0.8"/>
      </g>
     </g>
     <g id="text_2">
      <!-- 4 -->
      <g transform="translate(37.232813 124.497764) scale(0.1 -0.1)">
       <defs>
        <path id="DejaVuSans-34" d="M 2419 4116 
L 825 1625 
L 2419 1625 
L 2419 4116 
z
M 2253 4666 
L 3047 4666 
L 3047 1625 
L 3713 1625 
L 3713 1100 
L 3047 1100 
L 3047 0 
L 2419 0 
L 2419 1100 
L 313 1100 
L 313 1709 
L 2253 4666 
z
" transform="scale(0.015625)"/>
       </defs>
       <use xlink:href="#DejaVuSans-34"/>
      </g>
     </g>
    </g>
    <g id="ytick_3">
     <g id="line2d_8">
      <g>
       <use xlink:href="#m2822a8d93c" x="50.595313" y="95.432625" style="stroke: #000000; stroke-width: 0.8"/>
      </g>
     </g>
     <g id="text_3">
      <!-- 6 -->
      <g transform="translate(37.232813 99.231844) scale(0.1 -0.1)">
       <defs>
        <path id="DejaVuSans-36" d="M 2113 2584 
Q 1688 2584 1439 2293 
Q 1191 2003 1191 1497 
Q 1191 994 1439 701 
Q 1688 409 2113 409 
Q 2538 409 2786 701 
Q 3034 994 3034 1497 
Q 3034 2003 2786 2293 
Q 2538 2584 2113 2584 
z
M 3366 4563 
L 3366 3988 
Q 3128 4100 2886 4159 
Q 2644 4219 2406 4219 
Q 1781 4219 1451 3797 
Q 1122 3375 1075 2522 
Q 1259 2794 1537 2939 
Q 1816 3084 2150 3084 
Q 2853 3084 3261 2657 
Q 3669 2231 3669 1497 
Q 3669 778 3244 343 
Q 2819 -91 2113 -91 
Q 1303 -91 875 529 
Q 447 1150 447 2328 
Q 447 3434 972 4092 
Q 1497 4750 2381 4750 
Q 2619 4750 2861 4703 
Q 3103 4656 3366 4563 
z
" transform="scale(0.015625)"/>
       </defs>
       <use xlink:href="#DejaVuSans-36"/>
      </g>
     </g>
    </g>
    <g id="ytick_4">
     <g id="line2d_9">
      <g>
       <use xlink:href="#m2822a8d93c" x="50.595313" y="70.166704" style="stroke: #000000; stroke-width: 0.8"/>
      </g>
     </g>
     <g id="text_4">
      <!-- 8 -->
      <g transform="translate(37.232813 73.965923) scale(0.1 -0.1)">
       <defs>
        <path id="DejaVuSans-38" d="M 2034 2216 
Q 1584 2216 1326 1975 
Q 1069 1734 1069 1313 
Q 1069 891 1326 650 
Q 1584 409 2034 409 
Q 2484 409 2743 651 
Q 3003 894 3003 1313 
Q 3003 1734 2745 1975 
Q 2488 2216 2034 2216 
z
M 1403 2484 
Q 997 2584 770 2862 
Q 544 3141 544 3541 
Q 544 4100 942 4425 
Q 1341 4750 2034 4750 
Q 2731 4750 3128 4425 
Q 3525 4100 3525 3541 
Q 3525 3141 3298 2862 
Q 3072 2584 2669 2484 
Q 3125 2378 3379 2068 
Q 3634 1759 3634 1313 
Q 3634 634 3220 271 
Q 2806 -91 2034 -91 
Q 1263 -91 848 271 
Q 434 634 434 1313 
Q 434 1759 690 2068 
Q 947 2378 1403 2484 
z
M 1172 3481 
Q 1172 3119 1398 2916 
Q 1625 2713 2034 2713 
Q 2441 2713 2670 2916 
Q 2900 3119 2900 3481 
Q 2900 3844 2670 4047 
Q 2441 4250 2034 4250 
Q 1625 4250 1398 4047 
Q 1172 3844 1172 3481 
z
" transform="scale(0.015625)"/>
       </defs>
       <use xlink:href="#DejaVuSans-38"/>
      </g>
     </g>
    </g>
    <g id="ytick_5">
     <g id="line2d_10">
      <g>
       <use xlink:href="#m2822a8d93c" x="50.595313" y="44.900784" style="stroke: #000000; stroke-width: 0.8"/>
      </g>
     </g>
     <g id="text_5">
      <!-- 10 -->
      <g transform="translate(30.870313 48.700003) scale(0.1 -0.1)">
       <defs>
        <path id="DejaVuSans-31" d="M 794 531 
L 1825 531 
L 1825 4091 
L 703 3866 
L 703 4441 
L 1819 4666 
L 2450 4666 
L 2450 531 
L 3481 531 
L 3481 0 
L 794 0 
L 794 531 
z
" transform="scale(0.015625)"/>
        <path id="DejaVuSans-30" d="M 2034 4250 
Q 1547 4250 1301 3770 
Q 1056 3291 1056 2328 
Q 1056 1369 1301 889 
Q 1547 409 2034 409 
Q 2525 409 2770 889 
Q 3016 1369 3016 2328 
Q 3016 3291 2770 3770 
Q 2525 4250 2034 4250 
z
M 2034 4750 
Q 2819 4750 3233 4129 
Q 3647 3509 3647 2328 
Q 3647 1150 3233 529 
Q 2819 -91 2034 -91 
Q 1250 -91 836 529 
Q 422 1150 422 2328 
Q 422 3509 836 4129 
Q 1250 4750 2034 4750 
z
" transform="scale(0.015625)"/>
       </defs>
       <use xlink:href="#DejaVuSans-31"/>
       <use xlink:href="#DejaVuSans-30" x="63.623047"/>
      </g>
     </g>
    </g>
    <g id="text_6">
     <!-- $|S_{21}|$ [mV] -->
     <g transform="translate(24.470313 127.19) rotate(-90) scale(0.1 -0.1)">
      <defs>
       <path id="DejaVuSans-7c" d="M 1344 4891 
L 1344 -1509 
L 813 -1509 
L 813 4891 
L 1344 4891 
z
" transform="scale(0.015625)"/>
       <path id="DejaVuSans-Oblique-53" d="M 3859 4513 
L 3738 3897 
Q 3422 4066 3111 4152 
Q 2800 4238 2509 4238 
Q 1944 4238 1609 3991 
Q 1275 3744 1275 3334 
Q 1275 3109 1398 2989 
Q 1522 2869 2034 2731 
L 2413 2638 
Q 3053 2472 3303 2217 
Q 3553 1963 3553 1503 
Q 3553 797 2998 353 
Q 2444 -91 1538 -91 
Q 1166 -91 791 -17 
Q 416 56 38 206 
L 166 856 
Q 513 641 861 531 
Q 1209 422 1556 422 
Q 2147 422 2503 684 
Q 2859 947 2859 1369 
Q 2859 1650 2717 1795 
Q 2575 1941 2106 2059 
L 1728 2156 
Q 1081 2325 845 2545 
Q 609 2766 609 3163 
Q 609 3859 1145 4304 
Q 1681 4750 2541 4750 
Q 2875 4750 3203 4690 
Q 3531 4631 3859 4513 
z
" transform="scale(0.015625)"/>
       <path id="DejaVuSans-20" transform="scale(0.015625)"/>
       <path id="DejaVuSans-5b" d="M 550 4863 
L 1875 4863 
L 1875 4416 
L 1125 4416 
L 1125 -397 
L 1875 -397 
L 1875 -844 
L 550 -844 
L 550 4863 
z
" transform="scale(0.015625)"/>
       <path id="DejaVuSans-6d" d="M 3328 2828 
Q 3544 3216 3844 3400 
Q 4144 3584 4550 3584 
Q 5097 3584 5394 3201 
Q 5691 2819 5691 2113 
L 5691 0 
L 5113 0 
L 5113 2094 
Q 5113 2597 4934 2840 
Q 4756 3084 4391 3084 
Q 3944 3084 3684 2787 
Q 3425 2491 3425 1978 
L 3425 0 
L 2847 0 
L 2847 2094 
Q 2847 2600 2669 2842 
Q 2491 3084 2119 3084 
Q 1678 3084 1418 2786 
Q 1159 2488 1159 1978 
L 1159 0 
L 581 0 
L 581 3500 
L 1159 3500 
L 1159 2956 
Q 1356 3278 1631 3431 
Q 1906 3584 2284 3584 
Q 2666 3584 2933 3390 
Q 3200 3197 3328 2828 
z
" transform="scale(0.015625)"/>
       <path id="DejaVuSans-56" d="M 1831 0 
L 50 4666 
L 709 4666 
L 2188 738 
L 3669 4666 
L 4325 4666 
L 2547 0 
L 1831 0 
z
" transform="scale(0.015625)"/>
       <path id="DejaVuSans-5d" d="M 1947 4863 
L 1947 -844 
L 622 -844 
L 622 -397 
L 1369 -397 
L 1369 4416 
L 622 4416 
L 622 4863 
L 1947 4863 
z
" transform="scale(0.015625)"/>
      </defs>
      <use xlink:href="#DejaVuSans-7c" transform="translate(0 0.578125)"/>
      <use xlink:href="#DejaVuSans-Oblique-53" transform="translate(33.691406 0.578125)"/>
      <use xlink:href="#DejaVuSans-32" transform="translate(97.167969 -15.828125) scale(0.7)"/>
      <use xlink:href="#DejaVuSans-31" transform="translate(141.704102 -15.828125) scale(0.7)"/>
      <use xlink:href="#DejaVuSans-7c" transform="translate(188.974609 0.578125)"/>
      <use xlink:href="#DejaVuSans-20" transform="translate(222.666016 0.578125)"/>
      <use xlink:href="#DejaVuSans-5b" transform="translate(254.453125 0.578125)"/>
      <use xlink:href="#DejaVuSans-6d" transform="translate(293.466797 0.578125)"/>
      <use xlink:href="#DejaVuSans-56" transform="translate(390.878906 0.578125)"/>
      <use xlink:href="#DejaVuSans-5d" transform="translate(459.287109 0.578125)"/>
     </g>
    </g>
   </g>
   <g id="line2d_11">
    <path d="M 66.82804 74.701389 
L 68.45947 75.029588 
L 70.0909 74.47243 
L 71.722329 74.37484 
L 73.353759 73.302843 
L 74.985189 74.627414 
L 76.616619 74.877413 
L 78.248049 74.515239 
L 79.879479 73.659393 
L 81.510909 75.266266 
L 83.142339 72.547635 
L 84.773768 74.698238 
L 86.405198 73.368068 
L 89.668058 73.83461 
L 91.299488 73.346043 
L 92.930918 72.652474 
L 94.562348 71.655802 
L 97.825207 71.476534 
L 99.456637 71.753669 
L 101.088067 71.675533 
L 102.719497 71.90054 
L 104.350927 71.662528 
L 105.982357 71.263293 
L 107.613787 72.0573 
L 110.876646 71.556255 
L 112.508076 70.194772 
L 117.402366 70.068672 
L 119.033796 69.290824 
L 120.665226 69.303494 
L 122.296656 68.742648 
L 123.928085 68.663279 
L 127.190945 69.08384 
L 128.822375 66.923856 
L 130.453805 67.873599 
L 132.085235 65.855242 
L 135.348095 67.534056 
L 136.979524 65.426722 
L 138.610954 64.891784 
L 140.242384 65.43656 
L 141.873814 64.769252 
L 143.505244 66.487039 
L 145.136674 64.584862 
L 146.768104 63.980383 
L 148.399534 63.701247 
L 150.030963 63.289662 
L 151.662393 63.625417 
L 153.293823 62.09772 
L 154.925253 62.04991 
L 156.556683 59.952555 
L 158.188113 60.292908 
L 159.819543 62.03127 
L 161.450973 59.124964 
L 163.082402 58.800797 
L 164.713832 58.300443 
L 166.345262 58.278454 
L 167.976692 58.533796 
L 169.608122 57.353221 
L 171.239552 55.97371 
L 172.870982 56.794626 
L 174.502412 53.941854 
L 176.133842 54.348734 
L 177.765271 52.865327 
L 179.396701 52.452571 
L 181.028131 53.289289 
L 182.659561 50.722227 
L 184.290991 50.984398 
L 185.922421 50.071302 
L 187.553851 49.48011 
L 189.185281 47.972618 
L 190.81671 49.174439 
L 192.44814 47.39999 
L 194.07957 47.258182 
L 195.711 48.381661 
L 197.34243 50.482656 
L 198.97386 49.00754 
L 202.23672 52.822366 
L 203.868149 57.991334 
L 205.499579 62.551455 
L 207.131009 68.4065 
L 210.393869 83.937791 
L 212.025299 89.257077 
L 213.656729 100.584778 
L 215.288159 109.425454 
L 216.919588 119.336423 
L 218.551018 131.253776 
L 220.182448 141.390277 
L 221.813878 147.982347 
L 223.445308 153.65518 
L 225.076738 154.195911 
L 226.708168 151.385616 
L 228.339598 146.757249 
L 229.971027 141.382092 
L 231.602457 137.541136 
L 233.233887 132.291604 
L 236.496747 124.803645 
L 238.128177 121.200436 
L 239.759607 117.985353 
L 241.391037 114.508632 
L 243.022466 112.893666 
L 246.285326 108.673662 
L 247.916756 107.314685 
L 249.548186 105.094628 
L 251.179616 104.248222 
L 252.811046 101.605415 
L 254.442476 100.378356 
L 256.073905 99.53938 
L 257.705335 98.324949 
L 260.968195 96.269495 
L 262.599625 94.495058 
L 264.231055 94.140781 
L 265.862485 93.546344 
L 267.493915 91.98902 
L 269.125344 91.936407 
L 270.756774 89.706601 
L 272.388204 89.994296 
L 274.019634 88.576196 
L 275.651064 88.791108 
L 277.282494 88.475372 
L 278.913924 87.613089 
L 280.545354 87.082074 
L 282.176783 85.732563 
L 283.808213 84.635584 
L 285.439643 84.784614 
L 287.071073 84.581725 
L 288.702503 83.584814 
L 290.333933 83.810127 
L 291.965363 83.45751 
L 293.596793 82.761002 
L 295.228223 83.376034 
L 296.859652 82.659257 
L 298.491082 80.517041 
L 300.122512 81.066679 
L 301.753942 80.91328 
L 305.016802 80.258346 
L 306.648232 80.637414 
L 308.279662 78.911491 
L 309.911091 78.908597 
L 311.542521 78.697716 
L 313.173951 77.145035 
L 314.805381 77.295442 
L 316.436811 78.297271 
L 318.068241 77.783606 
L 319.699671 76.937455 
L 321.331101 75.625679 
L 322.96253 76.68675 
L 324.59396 75.251941 
L 326.22539 76.174698 
L 327.85682 74.94093 
L 329.48825 74.788893 
L 331.11968 76.780611 
L 332.75111 74.696305 
L 334.38254 74.660831 
L 336.013969 74.418027 
L 337.645399 73.665923 
L 339.276829 73.68831 
L 340.908259 72.454606 
L 342.539689 72.293072 
L 345.802549 73.164495 
L 347.433979 71.052892 
L 349.065408 71.313632 
L 350.696838 71.1194 
L 352.328268 72.022466 
L 353.959698 70.473292 
L 355.591128 69.878023 
L 357.222558 70.637522 
L 358.853988 70.713226 
L 360.485418 71.631917 
L 362.116847 69.834989 
L 363.748277 70.044061 
L 365.379707 69.287171 
L 367.011137 69.720393 
L 368.642567 69.748955 
L 370.273997 68.801099 
L 371.905427 68.554507 
L 373.536857 68.654669 
L 375.168286 67.239265 
L 376.799716 66.148588 
L 381.694006 67.887503 
L 383.325436 66.201807 
L 384.956866 65.534373 
L 386.588296 65.934237 
L 388.219725 66.667571 
L 389.851155 66.224361 
L 391.482585 65.2871 
L 391.482585 65.2871 
" clip-path="url(#pe9b3368102)" style="fill: none; stroke: #1f77b4; stroke-width: 1.5; stroke-linecap: square"/>
    <defs>
     <path id="mb77d76df9b" d="M 0 1.5 
C 0.397805 1.5 0.77937 1.341951 1.06066 1.06066 
C 1.341951 0.77937 1.5 0.397805 1.5 0 
C 1.5 -0.397805 1.341951 -0.77937 1.06066 -1.06066 
C 0.77937 -1.341951 0.397805 -1.5 0 -1.5 
C -0.397805 -1.5 -0.77937 -1.341951 -1.06066 -1.06066 
C -1.341951 -0.77937 -1.5 -0.397805 -1.5 0 
C -1.5 0.397805 -1.341951 0.77937 -1.06066 1.06066 
C -0.77937 1.341951 -0.397805 1.5 0 1.5 
z
" style="stroke: #1f77b4"/>
    </defs>
    <g clip-path="url(#pe9b3368102)">
     <use xlink:href="#mb77d76df9b" x="66.82804" y="74.701389" style="fill: #1f77b4; stroke: #1f77b4"/>
     <use xlink:href="#mb77d76df9b" x="68.45947" y="75.029588" style="fill: #1f77b4; stroke: #1f77b4"/>
     <use xlink:href="#mb77d76df9b" x="70.0909" y="74.47243" style="fill: #1f77b4; stroke: #1f77b4"/>
     <use xlink:href="#mb77d76df9b" x="71.722329" y="74.37484" style="fill: #1f77b4; stroke: #1f77b4"/>
     <use xlink:href="#mb77d76df9b" x="73.353759" y="73.302843" style="fill: #1f77b4; stroke: #1f77b4"/>
     <use xlink:href="#mb77d76df9b" x="74.985189" y="74.627414" style="fill: #1f77b4; stroke: #1f77b4"/>
     <use xlink:href="#mb77d76df9b" x="76.616619" y="74.877413" style="fill: #1f77b4; stroke: #1f77b4"/>
     <use xlink:href="#mb77d76df9b" x="78.248049" y="74.515239" style="fill: #1f77b4; stroke: #1f77b4"/>
     <use xlink:href="#mb77d76df9b" x="79.879479" y="73.659393" style="fill: #1f77b4; stroke: #1f77b4"/>
     <use xlink:href="#mb77d76df9b" x="81.510909" y="75.266266" style="fill: #1f77b4; stroke: #1f77b4"/>
     <use xlink:href="#mb77d76df9b" x="83.142339" y="72.547635" style="fill: #1f77b4; stroke: #1f77b4"/>
     <use xlink:href="#mb77d76df9b" x="84.773768" y="74.698238" style="fill: #1f77b4; stroke: #1f77b4"/>
     <use xlink:href="#mb77d76df9b" x="86.405198" y="73.368068" style="fill: #1f77b4; stroke: #1f77b4"/>
     <use xlink:href="#mb77d76df9b" x="88.036628" y="73.588143" style="fill: #1f77b4; stroke: #1f77b4"/>
     <use xlink:href="#mb77d76df9b" x="89.668058" y="73.83461" style="fill: #1f77b4; stroke: #1f77b4"/>
     <use xlink:href="#mb77d76df9b" x="91.299488" y="73.346043" style="fill: #1f77b4; stroke: #1f77b4"/>
     <use xlink:href="#mb77d76df9b" x="92.930918" y="72.652474" style="fill: #1f77b4; stroke: #1f77b4"/>
     <use xlink:href="#mb77d76df9b" x="94.562348" y="71.655802" style="fill: #1f77b4; stroke: #1f77b4"/>
     <use xlink:href="#mb77d76df9b" x="96.193778" y="71.553705" style="fill: #1f77b4; stroke: #1f77b4"/>
     <use xlink:href="#mb77d76df9b" x="97.825207" y="71.476534" style="fill: #1f77b4; stroke: #1f77b4"/>
     <use xlink:href="#mb77d76df9b" x="99.456637" y="71.753669" style="fill: #1f77b4; stroke: #1f77b4"/>
     <use xlink:href="#mb77d76df9b" x="101.088067" y="71.675533" style="fill: #1f77b4; stroke: #1f77b4"/>
     <use xlink:href="#mb77d76df9b" x="102.719497" y="71.90054" style="fill: #1f77b4; stroke: #1f77b4"/>
     <use xlink:href="#mb77d76df9b" x="104.350927" y="71.662528" style="fill: #1f77b4; stroke: #1f77b4"/>
     <use xlink:href="#mb77d76df9b" x="105.982357" y="71.263293" style="fill: #1f77b4; stroke: #1f77b4"/>
     <use xlink:href="#mb77d76df9b" x="107.613787" y="72.0573" style="fill: #1f77b4; stroke: #1f77b4"/>
     <use xlink:href="#mb77d76df9b" x="109.245217" y="71.842082" style="fill: #1f77b4; stroke: #1f77b4"/>
     <use xlink:href="#mb77d76df9b" x="110.876646" y="71.556255" style="fill: #1f77b4; stroke: #1f77b4"/>
     <use xlink:href="#mb77d76df9b" x="112.508076" y="70.194772" style="fill: #1f77b4; stroke: #1f77b4"/>
     <use xlink:href="#mb77d76df9b" x="114.139506" y="70.152222" style="fill: #1f77b4; stroke: #1f77b4"/>
     <use xlink:href="#mb77d76df9b" x="115.770936" y="70.033671" style="fill: #1f77b4; stroke: #1f77b4"/>
     <use xlink:href="#mb77d76df9b" x="117.402366" y="70.068672" style="fill: #1f77b4; stroke: #1f77b4"/>
     <use xlink:href="#mb77d76df9b" x="119.033796" y="69.290824" style="fill: #1f77b4; stroke: #1f77b4"/>
     <use xlink:href="#mb77d76df9b" x="120.665226" y="69.303494" style="fill: #1f77b4; stroke: #1f77b4"/>
     <use xlink:href="#mb77d76df9b" x="122.296656" y="68.742648" style="fill: #1f77b4; stroke: #1f77b4"/>
     <use xlink:href="#mb77d76df9b" x="123.928085" y="68.663279" style="fill: #1f77b4; stroke: #1f77b4"/>
     <use xlink:href="#mb77d76df9b" x="125.559515" y="68.925728" style="fill: #1f77b4; stroke: #1f77b4"/>
     <use xlink:href="#mb77d76df9b" x="127.190945" y="69.08384" style="fill: #1f77b4; stroke: #1f77b4"/>
     <use xlink:href="#mb77d76df9b" x="128.822375" y="66.923856" style="fill: #1f77b4; stroke: #1f77b4"/>
     <use xlink:href="#mb77d76df9b" x="130.453805" y="67.873599" style="fill: #1f77b4; stroke: #1f77b4"/>
     <use xlink:href="#mb77d76df9b" x="132.085235" y="65.855242" style="fill: #1f77b4; stroke: #1f77b4"/>
     <use xlink:href="#mb77d76df9b" x="133.716665" y="66.708306" style="fill: #1f77b4; stroke: #1f77b4"/>
     <use xlink:href="#mb77d76df9b" x="135.348095" y="67.534056" style="fill: #1f77b4; stroke: #1f77b4"/>
     <use xlink:href="#mb77d76df9b" x="136.979524" y="65.426722" style="fill: #1f77b4; stroke: #1f77b4"/>
     <use xlink:href="#mb77d76df9b" x="138.610954" y="64.891784" style="fill: #1f77b4; stroke: #1f77b4"/>
     <use xlink:href="#mb77d76df9b" x="140.242384" y="65.43656" style="fill: #1f77b4; stroke: #1f77b4"/>
     <use xlink:href="#mb77d76df9b" x="141.873814" y="64.769252" style="fill: #1f77b4; stroke: #1f77b4"/>
     <use xlink:href="#mb77d76df9b" x="143.505244" y="66.487039" style="fill: #1f77b4; stroke: #1f77b4"/>
     <use xlink:href="#mb77d76df9b" x="145.136674" y="64.584862" style="fill: #1f77b4; stroke: #1f77b4"/>
     <use xlink:href="#mb77d76df9b" x="146.768104" y="63.980383" style="fill: #1f77b4; stroke: #1f77b4"/>
     <use xlink:href="#mb77d76df9b" x="148.399534" y="63.701247" style="fill: #1f77b4; stroke: #1f77b4"/>
     <use xlink:href="#mb77d76df9b" x="150.030963" y="63.289662" style="fill: #1f77b4; stroke: #1f77b4"/>
     <use xlink:href="#mb77d76df9b" x="151.662393" y="63.625417" style="fill: #1f77b4; stroke: #1f77b4"/>
     <use xlink:href="#mb77d76df9b" x="153.293823" y="62.09772" style="fill: #1f77b4; stroke: #1f77b4"/>
     <use xlink:href="#mb77d76df9b" x="154.925253" y="62.04991" style="fill: #1f77b4; stroke: #1f77b4"/>
     <use xlink:href="#mb77d76df9b" x="156.556683" y="59.952555" style="fill: #1f77b4; stroke: #1f77b4"/>
     <use xlink:href="#mb77d76df9b" x="158.188113" y="60.292908" style="fill: #1f77b4; stroke: #1f77b4"/>
     <use xlink:href="#mb77d76df9b" x="159.819543" y="62.03127" style="fill: #1f77b4; stroke: #1f77b4"/>
     <use xlink:href="#mb77d76df9b" x="161.450973" y="59.124964" style="fill: #1f77b4; stroke: #1f77b4"/>
     <use xlink:href="#mb77d76df9b" x="163.082402" y="58.800797" style="fill: #1f77b4; stroke: #1f77b4"/>
     <use xlink:href="#mb77d76df9b" x="164.713832" y="58.300443" style="fill: #1f77b4; stroke: #1f77b4"/>
     <use xlink:href="#mb77d76df9b" x="166.345262" y="58.278454" style="fill: #1f77b4; stroke: #1f77b4"/>
     <use xlink:href="#mb77d76df9b" x="167.976692" y="58.533796" style="fill: #1f77b4; stroke: #1f77b4"/>
     <use xlink:href="#mb77d76df9b" x="169.608122" y="57.353221" style="fill: #1f77b4; stroke: #1f77b4"/>
     <use xlink:href="#mb77d76df9b" x="171.239552" y="55.97371" style="fill: #1f77b4; stroke: #1f77b4"/>
     <use xlink:href="#mb77d76df9b" x="172.870982" y="56.794626" style="fill: #1f77b4; stroke: #1f77b4"/>
     <use xlink:href="#mb77d76df9b" x="174.502412" y="53.941854" style="fill: #1f77b4; stroke: #1f77b4"/>
     <use xlink:href="#mb77d76df9b" x="176.133842" y="54.348734" style="fill: #1f77b4; stroke: #1f77b4"/>
     <use xlink:href="#mb77d76df9b" x="177.765271" y="52.865327" style="fill: #1f77b4; stroke: #1f77b4"/>
     <use xlink:href="#mb77d76df9b" x="179.396701" y="52.452571" style="fill: #1f77b4; stroke: #1f77b4"/>
     <use xlink:href="#mb77d76df9b" x="181.028131" y="53.289289" style="fill: #1f77b4; stroke: #1f77b4"/>
     <use xlink:href="#mb77d76df9b" x="182.659561" y="50.722227" style="fill: #1f77b4; stroke: #1f77b4"/>
     <use xlink:href="#mb77d76df9b" x="184.290991" y="50.984398" style="fill: #1f77b4; stroke: #1f77b4"/>
     <use xlink:href="#mb77d76df9b" x="185.922421" y="50.071302" style="fill: #1f77b4; stroke: #1f77b4"/>
     <use xlink:href="#mb77d76df9b" x="187.553851" y="49.48011" style="fill: #1f77b4; stroke: #1f77b4"/>
     <use xlink:href="#mb77d76df9b" x="189.185281" y="47.972618" style="fill: #1f77b4; stroke: #1f77b4"/>
     <use xlink:href="#mb77d76df9b" x="190.81671" y="49.174439" style="fill: #1f77b4; stroke: #1f77b4"/>
     <use xlink:href="#mb77d76df9b" x="192.44814" y="47.39999" style="fill: #1f77b4; stroke: #1f77b4"/>
     <use xlink:href="#mb77d76df9b" x="194.07957" y="47.258182" style="fill: #1f77b4; stroke: #1f77b4"/>
     <use xlink:href="#mb77d76df9b" x="195.711" y="48.381661" style="fill: #1f77b4; stroke: #1f77b4"/>
     <use xlink:href="#mb77d76df9b" x="197.34243" y="50.482656" style="fill: #1f77b4; stroke: #1f77b4"/>
     <use xlink:href="#mb77d76df9b" x="198.97386" y="49.00754" style="fill: #1f77b4; stroke: #1f77b4"/>
     <use xlink:href="#mb77d76df9b" x="200.60529" y="50.978943" style="fill: #1f77b4; stroke: #1f77b4"/>
     <use xlink:href="#mb77d76df9b" x="202.23672" y="52.822366" style="fill: #1f77b4; stroke: #1f77b4"/>
     <use xlink:href="#mb77d76df9b" x="203.868149" y="57.991334" style="fill: #1f77b4; stroke: #1f77b4"/>
     <use xlink:href="#mb77d76df9b" x="205.499579" y="62.551455" style="fill: #1f77b4; stroke: #1f77b4"/>
     <use xlink:href="#mb77d76df9b" x="207.131009" y="68.4065" style="fill: #1f77b4; stroke: #1f77b4"/>
     <use xlink:href="#mb77d76df9b" x="208.762439" y="76.447805" style="fill: #1f77b4; stroke: #1f77b4"/>
     <use xlink:href="#mb77d76df9b" x="210.393869" y="83.937791" style="fill: #1f77b4; stroke: #1f77b4"/>
     <use xlink:href="#mb77d76df9b" x="212.025299" y="89.257077" style="fill: #1f77b4; stroke: #1f77b4"/>
     <use xlink:href="#mb77d76df9b" x="213.656729" y="100.584778" style="fill: #1f77b4; stroke: #1f77b4"/>
     <use xlink:href="#mb77d76df9b" x="215.288159" y="109.425454" style="fill: #1f77b4; stroke: #1f77b4"/>
     <use xlink:href="#mb77d76df9b" x="216.919588" y="119.336423" style="fill: #1f77b4; stroke: #1f77b4"/>
     <use xlink:href="#mb77d76df9b" x="218.551018" y="131.253776" style="fill: #1f77b4; stroke: #1f77b4"/>
     <use xlink:href="#mb77d76df9b" x="220.182448" y="141.390277" style="fill: #1f77b4; stroke: #1f77b4"/>
     <use xlink:href="#mb77d76df9b" x="221.813878" y="147.982347" style="fill: #1f77b4; stroke: #1f77b4"/>
     <use xlink:href="#mb77d76df9b" x="223.445308" y="153.65518" style="fill: #1f77b4; stroke: #1f77b4"/>
     <use xlink:href="#mb77d76df9b" x="225.076738" y="154.195911" style="fill: #1f77b4; stroke: #1f77b4"/>
     <use xlink:href="#mb77d76df9b" x="226.708168" y="151.385616" style="fill: #1f77b4; stroke: #1f77b4"/>
     <use xlink:href="#mb77d76df9b" x="228.339598" y="146.757249" style="fill: #1f77b4; stroke: #1f77b4"/>
     <use xlink:href="#mb77d76df9b" x="229.971027" y="141.382092" style="fill: #1f77b4; stroke: #1f77b4"/>
     <use xlink:href="#mb77d76df9b" x="231.602457" y="137.541136" style="fill: #1f77b4; stroke: #1f77b4"/>
     <use xlink:href="#mb77d76df9b" x="233.233887" y="132.291604" style="fill: #1f77b4; stroke: #1f77b4"/>
     <use xlink:href="#mb77d76df9b" x="234.865317" y="128.484268" style="fill: #1f77b4; stroke: #1f77b4"/>
     <use xlink:href="#mb77d76df9b" x="236.496747" y="124.803645" style="fill: #1f77b4; stroke: #1f77b4"/>
     <use xlink:href="#mb77d76df9b" x="238.128177" y="121.200436" style="fill: #1f77b4; stroke: #1f77b4"/>
     <use xlink:href="#mb77d76df9b" x="239.759607" y="117.985353" style="fill: #1f77b4; stroke: #1f77b4"/>
     <use xlink:href="#mb77d76df9b" x="241.391037" y="114.508632" style="fill: #1f77b4; stroke: #1f77b4"/>
     <use xlink:href="#mb77d76df9b" x="243.022466" y="112.893666" style="fill: #1f77b4; stroke: #1f77b4"/>
     <use xlink:href="#mb77d76df9b" x="244.653896" y="110.839971" style="fill: #1f77b4; stroke: #1f77b4"/>
     <use xlink:href="#mb77d76df9b" x="246.285326" y="108.673662" style="fill: #1f77b4; stroke: #1f77b4"/>
     <use xlink:href="#mb77d76df9b" x="247.916756" y="107.314685" style="fill: #1f77b4; stroke: #1f77b4"/>
     <use xlink:href="#mb77d76df9b" x="249.548186" y="105.094628" style="fill: #1f77b4; stroke: #1f77b4"/>
     <use xlink:href="#mb77d76df9b" x="251.179616" y="104.248222" style="fill: #1f77b4; stroke: #1f77b4"/>
     <use xlink:href="#mb77d76df9b" x="252.811046" y="101.605415" style="fill: #1f77b4; stroke: #1f77b4"/>
     <use xlink:href="#mb77d76df9b" x="254.442476" y="100.378356" style="fill: #1f77b4; stroke: #1f77b4"/>
     <use xlink:href="#mb77d76df9b" x="256.073905" y="99.53938" style="fill: #1f77b4; stroke: #1f77b4"/>
     <use xlink:href="#mb77d76df9b" x="257.705335" y="98.324949" style="fill: #1f77b4; stroke: #1f77b4"/>
     <use xlink:href="#mb77d76df9b" x="259.336765" y="97.303612" style="fill: #1f77b4; stroke: #1f77b4"/>
     <use xlink:href="#mb77d76df9b" x="260.968195" y="96.269495" style="fill: #1f77b4; stroke: #1f77b4"/>
     <use xlink:href="#mb77d76df9b" x="262.599625" y="94.495058" style="fill: #1f77b4; stroke: #1f77b4"/>
     <use xlink:href="#mb77d76df9b" x="264.231055" y="94.140781" style="fill: #1f77b4; stroke: #1f77b4"/>
     <use xlink:href="#mb77d76df9b" x="265.862485" y="93.546344" style="fill: #1f77b4; stroke: #1f77b4"/>
     <use xlink:href="#mb77d76df9b" x="267.493915" y="91.98902" style="fill: #1f77b4; stroke: #1f77b4"/>
     <use xlink:href="#mb77d76df9b" x="269.125344" y="91.936407" style="fill: #1f77b4; stroke: #1f77b4"/>
     <use xlink:href="#mb77d76df9b" x="270.756774" y="89.706601" style="fill: #1f77b4; stroke: #1f77b4"/>
     <use xlink:href="#mb77d76df9b" x="272.388204" y="89.994296" style="fill: #1f77b4; stroke: #1f77b4"/>
     <use xlink:href="#mb77d76df9b" x="274.019634" y="88.576196" style="fill: #1f77b4; stroke: #1f77b4"/>
     <use xlink:href="#mb77d76df9b" x="275.651064" y="88.791108" style="fill: #1f77b4; stroke: #1f77b4"/>
     <use xlink:href="#mb77d76df9b" x="277.282494" y="88.475372" style="fill: #1f77b4; stroke: #1f77b4"/>
     <use xlink:href="#mb77d76df9b" x="278.913924" y="87.613089" style="fill: #1f77b4; stroke: #1f77b4"/>
     <use xlink:href="#mb77d76df9b" x="280.545354" y="87.082074" style="fill: #1f77b4; stroke: #1f77b4"/>
     <use xlink:href="#mb77d76df9b" x="282.176783" y="85.732563" style="fill: #1f77b4; stroke: #1f77b4"/>
     <use xlink:href="#mb77d76df9b" x="283.808213" y="84.635584" style="fill: #1f77b4; stroke: #1f77b4"/>
     <use xlink:href="#mb77d76df9b" x="285.439643" y="84.784614" style="fill: #1f77b4; stroke: #1f77b4"/>
     <use xlink:href="#mb77d76df9b" x="287.071073" y="84.581725" style="fill: #1f77b4; stroke: #1f77b4"/>
     <use xlink:href="#mb77d76df9b" x="288.702503" y="83.584814" style="fill: #1f77b4; stroke: #1f77b4"/>
     <use xlink:href="#mb77d76df9b" x="290.333933" y="83.810127" style="fill: #1f77b4; stroke: #1f77b4"/>
     <use xlink:href="#mb77d76df9b" x="291.965363" y="83.45751" style="fill: #1f77b4; stroke: #1f77b4"/>
     <use xlink:href="#mb77d76df9b" x="293.596793" y="82.761002" style="fill: #1f77b4; stroke: #1f77b4"/>
     <use xlink:href="#mb77d76df9b" x="295.228223" y="83.376034" style="fill: #1f77b4; stroke: #1f77b4"/>
     <use xlink:href="#mb77d76df9b" x="296.859652" y="82.659257" style="fill: #1f77b4; stroke: #1f77b4"/>
     <use xlink:href="#mb77d76df9b" x="298.491082" y="80.517041" style="fill: #1f77b4; stroke: #1f77b4"/>
     <use xlink:href="#mb77d76df9b" x="300.122512" y="81.066679" style="fill: #1f77b4; stroke: #1f77b4"/>
     <use xlink:href="#mb77d76df9b" x="301.753942" y="80.91328" style="fill: #1f77b4; stroke: #1f77b4"/>
     <use xlink:href="#mb77d76df9b" x="303.385372" y="80.574402" style="fill: #1f77b4; stroke: #1f77b4"/>
     <use xlink:href="#mb77d76df9b" x="305.016802" y="80.258346" style="fill: #1f77b4; stroke: #1f77b4"/>
     <use xlink:href="#mb77d76df9b" x="306.648232" y="80.637414" style="fill: #1f77b4; stroke: #1f77b4"/>
     <use xlink:href="#mb77d76df9b" x="308.279662" y="78.911491" style="fill: #1f77b4; stroke: #1f77b4"/>
     <use xlink:href="#mb77d76df9b" x="309.911091" y="78.908597" style="fill: #1f77b4; stroke: #1f77b4"/>
     <use xlink:href="#mb77d76df9b" x="311.542521" y="78.697716" style="fill: #1f77b4; stroke: #1f77b4"/>
     <use xlink:href="#mb77d76df9b" x="313.173951" y="77.145035" style="fill: #1f77b4; stroke: #1f77b4"/>
     <use xlink:href="#mb77d76df9b" x="314.805381" y="77.295442" style="fill: #1f77b4; stroke: #1f77b4"/>
     <use xlink:href="#mb77d76df9b" x="316.436811" y="78.297271" style="fill: #1f77b4; stroke: #1f77b4"/>
     <use xlink:href="#mb77d76df9b" x="318.068241" y="77.783606" style="fill: #1f77b4; stroke: #1f77b4"/>
     <use xlink:href="#mb77d76df9b" x="319.699671" y="76.937455" style="fill: #1f77b4; stroke: #1f77b4"/>
     <use xlink:href="#mb77d76df9b" x="321.331101" y="75.625679" style="fill: #1f77b4; stroke: #1f77b4"/>
     <use xlink:href="#mb77d76df9b" x="322.96253" y="76.68675" style="fill: #1f77b4; stroke: #1f77b4"/>
     <use xlink:href="#mb77d76df9b" x="324.59396" y="75.251941" style="fill: #1f77b4; stroke: #1f77b4"/>
     <use xlink:href="#mb77d76df9b" x="326.22539" y="76.174698" style="fill: #1f77b4; stroke: #1f77b4"/>
     <use xlink:href="#mb77d76df9b" x="327.85682" y="74.94093" style="fill: #1f77b4; stroke: #1f77b4"/>
     <use xlink:href="#mb77d76df9b" x="329.48825" y="74.788893" style="fill: #1f77b4; stroke: #1f77b4"/>
     <use xlink:href="#mb77d76df9b" x="331.11968" y="76.780611" style="fill: #1f77b4; stroke: #1f77b4"/>
     <use xlink:href="#mb77d76df9b" x="332.75111" y="74.696305" style="fill: #1f77b4; stroke: #1f77b4"/>
     <use xlink:href="#mb77d76df9b" x="334.38254" y="74.660831" style="fill: #1f77b4; stroke: #1f77b4"/>
     <use xlink:href="#mb77d76df9b" x="336.013969" y="74.418027" style="fill: #1f77b4; stroke: #1f77b4"/>
     <use xlink:href="#mb77d76df9b" x="337.645399" y="73.665923" style="fill: #1f77b4; stroke: #1f77b4"/>
     <use xlink:href="#mb77d76df9b" x="339.276829" y="73.68831" style="fill: #1f77b4; stroke: #1f77b4"/>
     <use xlink:href="#mb77d76df9b" x="340.908259" y="72.454606" style="fill: #1f77b4; stroke: #1f77b4"/>
     <use xlink:href="#mb77d76df9b" x="342.539689" y="72.293072" style="fill: #1f77b4; stroke: #1f77b4"/>
     <use xlink:href="#mb77d76df9b" x="344.171119" y="72.683777" style="fill: #1f77b4; stroke: #1f77b4"/>
     <use xlink:href="#mb77d76df9b" x="345.802549" y="73.164495" style="fill: #1f77b4; stroke: #1f77b4"/>
     <use xlink:href="#mb77d76df9b" x="347.433979" y="71.052892" style="fill: #1f77b4; stroke: #1f77b4"/>
     <use xlink:href="#mb77d76df9b" x="349.065408" y="71.313632" style="fill: #1f77b4; stroke: #1f77b4"/>
     <use xlink:href="#mb77d76df9b" x="350.696838" y="71.1194" style="fill: #1f77b4; stroke: #1f77b4"/>
     <use xlink:href="#mb77d76df9b" x="352.328268" y="72.022466" style="fill: #1f77b4; stroke: #1f77b4"/>
     <use xlink:href="#mb77d76df9b" x="353.959698" y="70.473292" style="fill: #1f77b4; stroke: #1f77b4"/>
     <use xlink:href="#mb77d76df9b" x="355.591128" y="69.878023" style="fill: #1f77b4; stroke: #1f77b4"/>
     <use xlink:href="#mb77d76df9b" x="357.222558" y="70.637522" style="fill: #1f77b4; stroke: #1f77b4"/>
     <use xlink:href="#mb77d76df9b" x="358.853988" y="70.713226" style="fill: #1f77b4; stroke: #1f77b4"/>
     <use xlink:href="#mb77d76df9b" x="360.485418" y="71.631917" style="fill: #1f77b4; stroke: #1f77b4"/>
     <use xlink:href="#mb77d76df9b" x="362.116847" y="69.834989" style="fill: #1f77b4; stroke: #1f77b4"/>
     <use xlink:href="#mb77d76df9b" x="363.748277" y="70.044061" style="fill: #1f77b4; stroke: #1f77b4"/>
     <use xlink:href="#mb77d76df9b" x="365.379707" y="69.287171" style="fill: #1f77b4; stroke: #1f77b4"/>
     <use xlink:href="#mb77d76df9b" x="367.011137" y="69.720393" style="fill: #1f77b4; stroke: #1f77b4"/>
     <use xlink:href="#mb77d76df9b" x="368.642567" y="69.748955" style="fill: #1f77b4; stroke: #1f77b4"/>
     <use xlink:href="#mb77d76df9b" x="370.273997" y="68.801099" style="fill: #1f77b4; stroke: #1f77b4"/>
     <use xlink:href="#mb77d76df9b" x="371.905427" y="68.554507" style="fill: #1f77b4; stroke: #1f77b4"/>
     <use xlink:href="#mb77d76df9b" x="373.536857" y="68.654669" style="fill: #1f77b4; stroke: #1f77b4"/>
     <use xlink:href="#mb77d76df9b" x="375.168286" y="67.239265" style="fill: #1f77b4; stroke: #1f77b4"/>
     <use xlink:href="#mb77d76df9b" x="376.799716" y="66.148588" style="fill: #1f77b4; stroke: #1f77b4"/>
     <use xlink:href="#mb77d76df9b" x="378.431146" y="66.761325" style="fill: #1f77b4; stroke: #1f77b4"/>
     <use xlink:href="#mb77d76df9b" x="380.062576" y="67.399943" style="fill: #1f77b4; stroke: #1f77b4"/>
     <use xlink:href="#mb77d76df9b" x="381.694006" y="67.887503" style="fill: #1f77b4; stroke: #1f77b4"/>
     <use xlink:href="#mb77d76df9b" x="383.325436" y="66.201807" style="fill: #1f77b4; stroke: #1f77b4"/>
     <use xlink:href="#mb77d76df9b" x="384.956866" y="65.534373" style="fill: #1f77b4; stroke: #1f77b4"/>
     <use xlink:href="#mb77d76df9b" x="386.588296" y="65.934237" style="fill: #1f77b4; stroke: #1f77b4"/>
     <use xlink:href="#mb77d76df9b" x="388.219725" y="66.667571" style="fill: #1f77b4; stroke: #1f77b4"/>
     <use xlink:href="#mb77d76df9b" x="389.851155" y="66.224361" style="fill: #1f77b4; stroke: #1f77b4"/>
     <use xlink:href="#mb77d76df9b" x="391.482585" y="65.2871" style="fill: #1f77b4; stroke: #1f77b4"/>
    </g>
   </g>
   <g id="line2d_12">
    <path d="M 66.82804 66.068335 
L 88.601668 65.191973 
L 106.475542 64.254907 
L 121.09962 63.274914 
L 133.448842 62.236402 
L 144.173167 61.121009 
L 153.597573 59.925766 
L 162.37202 58.586848 
L 170.496508 57.125614 
L 181.545812 54.877844 
L 187.395444 53.801791 
L 190.645239 53.422737 
L 192.920095 53.356347 
L 194.869973 53.508603 
L 196.49487 53.846435 
L 197.794788 54.301194 
L 199.094706 54.965682 
L 200.394625 55.892033 
L 201.694543 57.143034 
L 202.994461 58.792922 
L 204.294379 60.927231 
L 205.594297 63.64092 
L 206.894215 67.033864 
L 208.194133 71.202717 
L 209.494051 76.22856 
L 210.793969 82.160768 
L 212.418867 90.844434 
L 214.043765 100.794237 
L 216.318621 116.209034 
L 219.893396 140.677164 
L 221.193314 148.355444 
L 222.168253 153.049776 
L 222.818212 155.374735 
L 223.468171 156.814439 
L 223.79315 157.150144 
L 224.11813 157.221818 
L 224.443109 157.041152 
L 224.768089 156.632573 
L 225.418048 155.264727 
L 226.392987 152.331601 
L 228.667843 144.221119 
L 230.9427 136.456562 
L 232.892577 130.568611 
L 234.842454 125.408884 
L 236.792331 120.908551 
L 238.742208 116.981992 
L 240.692086 113.546723 
L 242.641963 110.529572 
L 244.916819 107.454976 
L 247.191676 104.781889 
L 249.466533 102.443172 
L 252.066369 100.110514 
L 254.666205 98.078886 
L 257.591021 96.089478 
L 260.515837 94.358529 
L 263.765632 92.683852 
L 267.340407 91.08885 
L 271.240161 89.588323 
L 275.789874 88.090941 
L 280.664567 86.727133 
L 286.189219 85.417934 
L 292.36383 84.186723 
L 299.51338 82.996795 
L 307.637868 81.878152 
L 317.062274 80.813758 
L 328.111578 79.801183 
L 341.110759 78.845526 
L 356.384797 77.954162 
L 374.58365 77.120109 
L 391.482585 76.501976 
L 391.482585 76.501976 
" clip-path="url(#pe9b3368102)" style="fill: none; stroke: #d62728; stroke-width: 1.5; stroke-linecap: square"/>
   </g>
   <g id="patch_3">
    <path d="M 50.595313 162.72 
L 50.595313 41.76 
" style="fill: none; stroke: #000000; stroke-width: 0.8; stroke-linejoin: miter; stroke-linecap: square"/>
   </g>
   <g id="patch_4">
    <path d="M 407.715312 162.72 
L 407.715312 41.76 
" style="fill: none; stroke: #000000; stroke-width: 0.8; stroke-linejoin: miter; stroke-linecap: square"/>
   </g>
   <g id="patch_5">
    <path d="M 50.595312 162.72 
L 407.715312 162.72 
" style="fill: none; stroke: #000000; stroke-width: 0.8; stroke-linejoin: miter; stroke-linecap: square"/>
   </g>
   <g id="patch_6">
    <path d="M 50.595312 41.76 
L 407.715312 41.76 
" style="fill: none; stroke: #000000; stroke-width: 0.8; stroke-linejoin: miter; stroke-linecap: square"/>
   </g>
   <g id="text_7">
    <g id="patch_7">
     <path d="M 425.571312 95.079562 
L 564.571312 95.079562 
Q 568.571312 95.079562 568.571312 91.079562 
L 568.571312 47.808 
Q 568.571312 43.808 564.571312 43.808 
L 425.571312 43.808 
Q 421.571312 43.808 421.571312 47.808 
L 421.571312 91.079562 
Q 421.571312 95.079562 425.571312 95.079562 
z
" style="fill: #ffffff; opacity: 0.5; stroke: #000000; stroke-linejoin: miter"/>
    </g>
    <!-- Summary -->
    <g transform="translate(425.571312 55.406437) scale(0.1 -0.1)">
     <defs>
      <path id="DejaVuSans-53" d="M 3425 4513 
L 3425 3897 
Q 3066 4069 2747 4153 
Q 2428 4238 2131 4238 
Q 1616 4238 1336 4038 
Q 1056 3838 1056 3469 
Q 1056 3159 1242 3001 
Q 1428 2844 1947 2747 
L 2328 2669 
Q 3034 2534 3370 2195 
Q 3706 1856 3706 1288 
Q 3706 609 3251 259 
Q 2797 -91 1919 -91 
Q 1588 -91 1214 -16 
Q 841 59 441 206 
L 441 856 
Q 825 641 1194 531 
Q 1563 422 1919 422 
Q 2459 422 2753 634 
Q 3047 847 3047 1241 
Q 3047 1584 2836 1778 
Q 2625 1972 2144 2069 
L 1759 2144 
Q 1053 2284 737 2584 
Q 422 2884 422 3419 
Q 422 4038 858 4394 
Q 1294 4750 2059 4750 
Q 2388 4750 2728 4690 
Q 3069 4631 3425 4513 
z
" transform="scale(0.015625)"/>
      <path id="DejaVuSans-75" d="M 544 1381 
L 544 3500 
L 1119 3500 
L 1119 1403 
Q 1119 906 1312 657 
Q 1506 409 1894 409 
Q 2359 409 2629 706 
Q 2900 1003 2900 1516 
L 2900 3500 
L 3475 3500 
L 3475 0 
L 2900 0 
L 2900 538 
Q 2691 219 2414 64 
Q 2138 -91 1772 -91 
Q 1169 -91 856 284 
Q 544 659 544 1381 
z
M 1991 3584 
L 1991 3584 
z
" transform="scale(0.015625)"/>
      <path id="DejaVuSans-61" d="M 2194 1759 
Q 1497 1759 1228 1600 
Q 959 1441 959 1056 
Q 959 750 1161 570 
Q 1363 391 1709 391 
Q 2188 391 2477 730 
Q 2766 1069 2766 1631 
L 2766 1759 
L 2194 1759 
z
M 3341 1997 
L 3341 0 
L 2766 0 
L 2766 531 
Q 2569 213 2275 61 
Q 1981 -91 1556 -91 
Q 1019 -91 701 211 
Q 384 513 384 1019 
Q 384 1609 779 1909 
Q 1175 2209 1959 2209 
L 2766 2209 
L 2766 2266 
Q 2766 2663 2505 2880 
Q 2244 3097 1772 3097 
Q 1472 3097 1187 3025 
Q 903 2953 641 2809 
L 641 3341 
Q 956 3463 1253 3523 
Q 1550 3584 1831 3584 
Q 2591 3584 2966 3190 
Q 3341 2797 3341 1997 
z
" transform="scale(0.015625)"/>
      <path id="DejaVuSans-72" d="M 2631 2963 
Q 2534 3019 2420 3045 
Q 2306 3072 2169 3072 
Q 1681 3072 1420 2755 
Q 1159 2438 1159 1844 
L 1159 0 
L 581 0 
L 581 3500 
L 1159 3500 
L 1159 2956 
Q 1341 3275 1631 3429 
Q 1922 3584 2338 3584 
Q 2397 3584 2469 3576 
Q 2541 3569 2628 3553 
L 2631 2963 
z
" transform="scale(0.015625)"/>
      <path id="DejaVuSans-79" d="M 2059 -325 
Q 1816 -950 1584 -1140 
Q 1353 -1331 966 -1331 
L 506 -1331 
L 506 -850 
L 844 -850 
Q 1081 -850 1212 -737 
Q 1344 -625 1503 -206 
L 1606 56 
L 191 3500 
L 800 3500 
L 1894 763 
L 2988 3500 
L 3597 3500 
L 2059 -325 
z
" transform="scale(0.015625)"/>
     </defs>
     <use xlink:href="#DejaVuSans-53"/>
     <use xlink:href="#DejaVuSans-75" x="63.476562"/>
     <use xlink:href="#DejaVuSans-6d" x="126.855469"/>
     <use xlink:href="#DejaVuSans-6d" x="224.267578"/>
     <use xlink:href="#DejaVuSans-61" x="321.679688"/>
     <use xlink:href="#DejaVuSans-72" x="382.958984"/>
     <use xlink:href="#DejaVuSans-79" x="424.072266"/>
    </g>
    <!-- $Q_I$: 16.7$\pm$1.3 k -->
    <g transform="translate(425.571312 66.60425) scale(0.1 -0.1)">
     <defs>
      <path id="DejaVuSans-Oblique-51" d="M 2309 -84 
Q 2275 -88 2237 -89 
Q 2200 -91 2125 -91 
Q 1250 -91 756 411 
Q 263 913 263 1797 
Q 263 2319 452 2844 
Q 641 3369 978 3788 
Q 1369 4269 1858 4509 
Q 2347 4750 2938 4750 
Q 3794 4750 4287 4245 
Q 4781 3741 4781 2869 
Q 4781 1928 4265 1147 
Q 3750 366 2919 44 
L 3553 -825 
L 2847 -825 
L 2309 -84 
z
M 2919 4238 
Q 2400 4238 2003 3986 
Q 1606 3734 1313 3219 
Q 1125 2891 1026 2522 
Q 928 2153 928 1778 
Q 928 1128 1239 775 
Q 1550 422 2119 422 
Q 2631 422 3032 676 
Q 3434 931 3719 1434 
Q 3909 1772 4009 2142 
Q 4109 2513 4109 2881 
Q 4109 3528 3796 3883 
Q 3484 4238 2919 4238 
z
" transform="scale(0.015625)"/>
      <path id="DejaVuSans-Oblique-49" d="M 1081 4666 
L 1716 4666 
L 806 0 
L 172 0 
L 1081 4666 
z
" transform="scale(0.015625)"/>
      <path id="DejaVuSans-3a" d="M 750 794 
L 1409 794 
L 1409 0 
L 750 0 
L 750 794 
z
M 750 3309 
L 1409 3309 
L 1409 2516 
L 750 2516 
L 750 3309 
z
" transform="scale(0.015625)"/>
      <path id="DejaVuSans-2e" d="M 684 794 
L 1344 794 
L 1344 0 
L 684 0 
L 684 794 
z
" transform="scale(0.015625)"/>
      <path id="DejaVuSans-37" d="M 525 4666 
L 3525 4666 
L 3525 4397 
L 1831 0 
L 1172 0 
L 2766 4134 
L 525 4134 
L 525 4666 
z
" transform="scale(0.015625)"/>
      <path id="DejaVuSans-b1" d="M 2944 4013 
L 2944 2803 
L 4684 2803 
L 4684 2272 
L 2944 2272 
L 2944 1063 
L 2419 1063 
L 2419 2272 
L 678 2272 
L 678 2803 
L 2419 2803 
L 2419 4013 
L 2944 4013 
z
M 678 531 
L 4684 531 
L 4684 0 
L 678 0 
L 678 531 
z
" transform="scale(0.015625)"/>
      <path id="DejaVuSans-33" d="M 2597 2516 
Q 3050 2419 3304 2112 
Q 3559 1806 3559 1356 
Q 3559 666 3084 287 
Q 2609 -91 1734 -91 
Q 1441 -91 1130 -33 
Q 819 25 488 141 
L 488 750 
Q 750 597 1062 519 
Q 1375 441 1716 441 
Q 2309 441 2620 675 
Q 2931 909 2931 1356 
Q 2931 1769 2642 2001 
Q 2353 2234 1838 2234 
L 1294 2234 
L 1294 2753 
L 1863 2753 
Q 2328 2753 2575 2939 
Q 2822 3125 2822 3475 
Q 2822 3834 2567 4026 
Q 2313 4219 1838 4219 
Q 1578 4219 1281 4162 
Q 984 4106 628 3988 
L 628 4550 
Q 988 4650 1302 4700 
Q 1616 4750 1894 4750 
Q 2613 4750 3031 4423 
Q 3450 4097 3450 3541 
Q 3450 3153 3228 2886 
Q 3006 2619 2597 2516 
z
" transform="scale(0.015625)"/>
      <path id="DejaVuSans-6b" d="M 581 4863 
L 1159 4863 
L 1159 1991 
L 2875 3500 
L 3609 3500 
L 1753 1863 
L 3688 0 
L 2938 0 
L 1159 1709 
L 1159 0 
L 581 0 
L 581 4863 
z
" transform="scale(0.015625)"/>
     </defs>
     <use xlink:href="#DejaVuSans-Oblique-51" transform="translate(0 0.015625)"/>
     <use xlink:href="#DejaVuSans-Oblique-49" transform="translate(78.710938 -16.390625) scale(0.7)"/>
     <use xlink:href="#DejaVuSans-3a" transform="translate(102.089844 0.015625)"/>
     <use xlink:href="#DejaVuSans-20" transform="translate(135.78125 0.015625)"/>
     <use xlink:href="#DejaVuSans-31" transform="translate(167.568359 0.015625)"/>
     <use xlink:href="#DejaVuSans-36" transform="translate(231.191406 0.015625)"/>
     <use xlink:href="#DejaVuSans-2e" transform="translate(294.814453 0.015625)"/>
     <use xlink:href="#DejaVuSans-37" transform="translate(318.851562 0.015625)"/>
     <use xlink:href="#DejaVuSans-b1" transform="translate(382.474609 0.015625)"/>
     <use xlink:href="#DejaVuSans-31" transform="translate(466.263672 0.015625)"/>
     <use xlink:href="#DejaVuSans-2e" transform="translate(529.886719 0.015625)"/>
     <use xlink:href="#DejaVuSans-33" transform="translate(561.673828 0.015625)"/>
     <use xlink:href="#DejaVuSans-20" transform="translate(625.296875 0.015625)"/>
     <use xlink:href="#DejaVuSans-6b" transform="translate(657.083984 0.015625)"/>
    </g>
    <!-- $Q_C$: 3.311$\pm$0.056 k -->
    <g transform="translate(425.571312 77.802062) scale(0.1 -0.1)">
     <defs>
      <path id="DejaVuSans-Oblique-43" d="M 4447 4306 
L 4319 3641 
Q 4019 3944 3683 4091 
Q 3347 4238 2956 4238 
Q 2422 4238 2017 3981 
Q 1613 3725 1319 3200 
Q 1131 2863 1032 2486 
Q 934 2109 934 1728 
Q 934 1091 1264 756 
Q 1594 422 2222 422 
Q 2656 422 3056 561 
Q 3456 700 3834 978 
L 3688 231 
Q 3316 72 2936 -9 
Q 2556 -91 2175 -91 
Q 1278 -91 773 396 
Q 269 884 269 1753 
Q 269 2309 461 2846 
Q 653 3384 1013 3828 
Q 1394 4300 1883 4525 
Q 2372 4750 3022 4750 
Q 3422 4750 3780 4639 
Q 4138 4528 4447 4306 
z
" transform="scale(0.015625)"/>
      <path id="DejaVuSans-35" d="M 691 4666 
L 3169 4666 
L 3169 4134 
L 1269 4134 
L 1269 2991 
Q 1406 3038 1543 3061 
Q 1681 3084 1819 3084 
Q 2600 3084 3056 2656 
Q 3513 2228 3513 1497 
Q 3513 744 3044 326 
Q 2575 -91 1722 -91 
Q 1428 -91 1123 -41 
Q 819 9 494 109 
L 494 744 
Q 775 591 1075 516 
Q 1375 441 1709 441 
Q 2250 441 2565 725 
Q 2881 1009 2881 1497 
Q 2881 1984 2565 2268 
Q 2250 2553 1709 2553 
Q 1456 2553 1204 2497 
Q 953 2441 691 2322 
L 691 4666 
z
" transform="scale(0.015625)"/>
     </defs>
     <use xlink:href="#DejaVuSans-Oblique-51" transform="translate(0 0.015625)"/>
     <use xlink:href="#DejaVuSans-Oblique-43" transform="translate(78.710938 -16.390625) scale(0.7)"/>
     <use xlink:href="#DejaVuSans-3a" transform="translate(130.322266 0.015625)"/>
     <use xlink:href="#DejaVuSans-20" transform="translate(164.013672 0.015625)"/>
     <use xlink:href="#DejaVuSans-33" transform="translate(195.800781 0.015625)"/>
     <use xlink:href="#DejaVuSans-2e" transform="translate(259.423828 0.015625)"/>
     <use xlink:href="#DejaVuSans-33" transform="translate(291.210938 0.015625)"/>
     <use xlink:href="#DejaVuSans-31" transform="translate(354.833984 0.015625)"/>
     <use xlink:href="#DejaVuSans-31" transform="translate(418.457031 0.015625)"/>
     <use xlink:href="#DejaVuSans-b1" transform="translate(482.080078 0.015625)"/>
     <use xlink:href="#DejaVuSans-30" transform="translate(565.869141 0.015625)"/>
     <use xlink:href="#DejaVuSans-2e" transform="translate(629.492188 0.015625)"/>
     <use xlink:href="#DejaVuSans-30" transform="translate(661.279297 0.015625)"/>
     <use xlink:href="#DejaVuSans-35" transform="translate(724.902344 0.015625)"/>
     <use xlink:href="#DejaVuSans-36" transform="translate(788.525391 0.015625)"/>
     <use xlink:href="#DejaVuSans-20" transform="translate(852.148438 0.015625)"/>
     <use xlink:href="#DejaVuSans-6b" transform="translate(883.935547 0.015625)"/>
    </g>
    <!-- $f_{res}$: 5.837702$\pm$1.9e-05 GHz -->
    <g transform="translate(425.571312 88.999875) scale(0.1 -0.1)">
     <defs>
      <path id="DejaVuSans-Oblique-66" d="M 3059 4863 
L 2969 4384 
L 2419 4384 
Q 2106 4384 1964 4261 
Q 1822 4138 1753 3809 
L 1691 3500 
L 2638 3500 
L 2553 3053 
L 1606 3053 
L 1013 0 
L 434 0 
L 1031 3053 
L 481 3053 
L 563 3500 
L 1113 3500 
L 1159 3744 
Q 1278 4363 1576 4613 
Q 1875 4863 2516 4863 
L 3059 4863 
z
" transform="scale(0.015625)"/>
      <path id="DejaVuSans-Oblique-72" d="M 2853 2969 
Q 2766 3016 2653 3041 
Q 2541 3066 2413 3066 
Q 1953 3066 1609 2717 
Q 1266 2369 1153 1784 
L 800 0 
L 225 0 
L 909 3500 
L 1484 3500 
L 1375 2956 
Q 1603 3259 1920 3421 
Q 2238 3584 2597 3584 
Q 2691 3584 2781 3573 
Q 2872 3563 2963 3538 
L 2853 2969 
z
" transform="scale(0.015625)"/>
      <path id="DejaVuSans-Oblique-65" d="M 3078 2063 
Q 3088 2113 3092 2166 
Q 3097 2219 3097 2272 
Q 3097 2653 2873 2875 
Q 2650 3097 2266 3097 
Q 1838 3097 1509 2826 
Q 1181 2556 1013 2059 
L 3078 2063 
z
M 3578 1613 
L 903 1613 
Q 884 1494 878 1425 
Q 872 1356 872 1306 
Q 872 872 1139 634 
Q 1406 397 1894 397 
Q 2269 397 2603 481 
Q 2938 566 3225 728 
L 3116 159 
Q 2806 34 2476 -28 
Q 2147 -91 1806 -91 
Q 1078 -91 686 257 
Q 294 606 294 1247 
Q 294 1794 489 2264 
Q 684 2734 1063 3103 
Q 1306 3334 1642 3459 
Q 1978 3584 2356 3584 
Q 2950 3584 3301 3228 
Q 3653 2872 3653 2272 
Q 3653 2128 3634 1964 
Q 3616 1800 3578 1613 
z
" transform="scale(0.015625)"/>
      <path id="DejaVuSans-Oblique-73" d="M 3200 3397 
L 3091 2853 
Q 2863 2978 2609 3040 
Q 2356 3103 2088 3103 
Q 1634 3103 1373 2948 
Q 1113 2794 1113 2528 
Q 1113 2219 1719 2053 
Q 1766 2041 1788 2034 
L 1972 1978 
Q 2547 1819 2739 1644 
Q 2931 1469 2931 1166 
Q 2931 609 2489 259 
Q 2047 -91 1331 -91 
Q 1053 -91 747 -37 
Q 441 16 72 128 
L 184 722 
Q 500 559 806 475 
Q 1113 391 1394 391 
Q 1816 391 2080 572 
Q 2344 753 2344 1031 
Q 2344 1331 1650 1516 
L 1591 1531 
L 1394 1581 
Q 956 1697 753 1886 
Q 550 2075 550 2369 
Q 550 2928 970 3256 
Q 1391 3584 2113 3584 
Q 2397 3584 2667 3537 
Q 2938 3491 3200 3397 
z
" transform="scale(0.015625)"/>
      <path id="DejaVuSans-39" d="M 703 97 
L 703 672 
Q 941 559 1184 500 
Q 1428 441 1663 441 
Q 2288 441 2617 861 
Q 2947 1281 2994 2138 
Q 2813 1869 2534 1725 
Q 2256 1581 1919 1581 
Q 1219 1581 811 2004 
Q 403 2428 403 3163 
Q 403 3881 828 4315 
Q 1253 4750 1959 4750 
Q 2769 4750 3195 4129 
Q 3622 3509 3622 2328 
Q 3622 1225 3098 567 
Q 2575 -91 1691 -91 
Q 1453 -91 1209 -44 
Q 966 3 703 97 
z
M 1959 2075 
Q 2384 2075 2632 2365 
Q 2881 2656 2881 3163 
Q 2881 3666 2632 3958 
Q 2384 4250 1959 4250 
Q 1534 4250 1286 3958 
Q 1038 3666 1038 3163 
Q 1038 2656 1286 2365 
Q 1534 2075 1959 2075 
z
" transform="scale(0.015625)"/>
      <path id="DejaVuSans-65" d="M 3597 1894 
L 3597 1613 
L 953 1613 
Q 991 1019 1311 708 
Q 1631 397 2203 397 
Q 2534 397 2845 478 
Q 3156 559 3463 722 
L 3463 178 
Q 3153 47 2828 -22 
Q 2503 -91 2169 -91 
Q 1331 -91 842 396 
Q 353 884 353 1716 
Q 353 2575 817 3079 
Q 1281 3584 2069 3584 
Q 2775 3584 3186 3129 
Q 3597 2675 3597 1894 
z
M 3022 2063 
Q 3016 2534 2758 2815 
Q 2500 3097 2075 3097 
Q 1594 3097 1305 2825 
Q 1016 2553 972 2059 
L 3022 2063 
z
" transform="scale(0.015625)"/>
      <path id="DejaVuSans-2d" d="M 313 2009 
L 1997 2009 
L 1997 1497 
L 313 1497 
L 313 2009 
z
" transform="scale(0.015625)"/>
      <path id="DejaVuSans-47" d="M 3809 666 
L 3809 1919 
L 2778 1919 
L 2778 2438 
L 4434 2438 
L 4434 434 
Q 4069 175 3628 42 
Q 3188 -91 2688 -91 
Q 1594 -91 976 548 
Q 359 1188 359 2328 
Q 359 3472 976 4111 
Q 1594 4750 2688 4750 
Q 3144 4750 3555 4637 
Q 3966 4525 4313 4306 
L 4313 3634 
Q 3963 3931 3569 4081 
Q 3175 4231 2741 4231 
Q 1884 4231 1454 3753 
Q 1025 3275 1025 2328 
Q 1025 1384 1454 906 
Q 1884 428 2741 428 
Q 3075 428 3337 486 
Q 3600 544 3809 666 
z
" transform="scale(0.015625)"/>
      <path id="DejaVuSans-48" d="M 628 4666 
L 1259 4666 
L 1259 2753 
L 3553 2753 
L 3553 4666 
L 4184 4666 
L 4184 0 
L 3553 0 
L 3553 2222 
L 1259 2222 
L 1259 0 
L 628 0 
L 628 4666 
z
" transform="scale(0.015625)"/>
      <path id="DejaVuSans-7a" d="M 353 3500 
L 3084 3500 
L 3084 2975 
L 922 459 
L 3084 459 
L 3084 0 
L 275 0 
L 275 525 
L 2438 3041 
L 353 3041 
L 353 3500 
z
" transform="scale(0.015625)"/>
     </defs>
     <use xlink:href="#DejaVuSans-Oblique-66" transform="translate(0 0.015625)"/>
     <use xlink:href="#DejaVuSans-Oblique-72" transform="translate(35.205078 -16.390625) scale(0.7)"/>
     <use xlink:href="#DejaVuSans-Oblique-65" transform="translate(63.984375 -16.390625) scale(0.7)"/>
     <use xlink:href="#DejaVuSans-Oblique-73" transform="translate(107.050781 -16.390625) scale(0.7)"/>
     <use xlink:href="#DejaVuSans-3a" transform="translate(146.254883 0.015625)"/>
     <use xlink:href="#DejaVuSans-20" transform="translate(179.946289 0.015625)"/>
     <use xlink:href="#DejaVuSans-35" transform="translate(211.733398 0.015625)"/>
     <use xlink:href="#DejaVuSans-2e" transform="translate(275.356445 0.015625)"/>
     <use xlink:href="#DejaVuSans-38" transform="translate(304.518555 0.015625)"/>
     <use xlink:href="#DejaVuSans-33" transform="translate(368.141602 0.015625)"/>
     <use xlink:href="#DejaVuSans-37" transform="translate(431.764648 0.015625)"/>
     <use xlink:href="#DejaVuSans-37" transform="translate(493.637695 0.015625)"/>
     <use xlink:href="#DejaVuSans-30" transform="translate(557.260742 0.015625)"/>
     <use xlink:href="#DejaVuSans-32" transform="translate(620.883789 0.015625)"/>
     <use xlink:href="#DejaVuSans-b1" transform="translate(684.506836 0.015625)"/>
     <use xlink:href="#DejaVuSans-31" transform="translate(768.295898 0.015625)"/>
     <use xlink:href="#DejaVuSans-2e" transform="translate(831.918945 0.015625)"/>
     <use xlink:href="#DejaVuSans-39" transform="translate(863.706055 0.015625)"/>
     <use xlink:href="#DejaVuSans-65" transform="translate(927.329102 0.015625)"/>
     <use xlink:href="#DejaVuSans-2d" transform="translate(988.852539 0.015625)"/>
     <use xlink:href="#DejaVuSans-30" transform="translate(1024.936523 0.015625)"/>
     <use xlink:href="#DejaVuSans-35" transform="translate(1088.55957 0.015625)"/>
     <use xlink:href="#DejaVuSans-20" transform="translate(1152.182617 0.015625)"/>
     <use xlink:href="#DejaVuSans-47" transform="translate(1183.969727 0.015625)"/>
     <use xlink:href="#DejaVuSans-48" transform="translate(1261.459961 0.015625)"/>
     <use xlink:href="#DejaVuSans-7a" transform="translate(1336.655273 0.015625)"/>
    </g>
   </g>
  </g>
  <g id="axes_2">
   <g id="patch_8">
    <path d="M 50.595313 307.872 
L 407.715312 307.872 
L 407.715312 186.912 
L 50.595313 186.912 
z
" style="fill: #ffffff"/>
   </g>
   <g id="matplotlib.axis_3">
    <g id="xtick_6">
     <g id="line2d_13">
      <g>
       <use xlink:href="#m3f9f35ce38" x="110.791676" y="307.872" style="stroke: #000000; stroke-width: 0.8"/>
      </g>
     </g>
     <g id="text_8">
      <!-- 830 -->
      <g transform="translate(101.247926 322.470438) scale(0.1 -0.1)">
       <use xlink:href="#DejaVuSans-38"/>
       <use xlink:href="#DejaVuSans-33" x="63.623047"/>
       <use xlink:href="#DejaVuSans-30" x="127.246094"/>
      </g>
     </g>
    </g>
    <g id="xtick_7">
     <g id="line2d_14">
      <g>
       <use xlink:href="#m3f9f35ce38" x="178.42804" y="307.872" style="stroke: #000000; stroke-width: 0.8"/>
      </g>
     </g>
     <g id="text_9">
      <!-- 835 -->
      <g transform="translate(168.88429 322.470438) scale(0.1 -0.1)">
       <use xlink:href="#DejaVuSans-38"/>
       <use xlink:href="#DejaVuSans-33" x="63.623047"/>
       <use xlink:href="#DejaVuSans-35" x="127.246094"/>
      </g>
     </g>
    </g>
    <g id="xtick_8">
     <g id="line2d_15">
      <g>
       <use xlink:href="#m3f9f35ce38" x="246.064403" y="307.872" style="stroke: #000000; stroke-width: 0.8"/>
      </g>
     </g>
     <g id="text_10">
      <!-- 840 -->
      <g transform="translate(236.520653 322.470438) scale(0.1 -0.1)">
       <use xlink:href="#DejaVuSans-38"/>
       <use xlink:href="#DejaVuSans-34" x="63.623047"/>
       <use xlink:href="#DejaVuSans-30" x="127.246094"/>
      </g>
     </g>
    </g>
    <g id="xtick_9">
     <g id="line2d_16">
      <g>
       <use xlink:href="#m3f9f35ce38" x="313.700767" y="307.872" style="stroke: #000000; stroke-width: 0.8"/>
      </g>
     </g>
     <g id="text_11">
      <!-- 845 -->
      <g transform="translate(304.157017 322.470438) scale(0.1 -0.1)">
       <use xlink:href="#DejaVuSans-38"/>
       <use xlink:href="#DejaVuSans-34" x="63.623047"/>
       <use xlink:href="#DejaVuSans-35" x="127.246094"/>
      </g>
     </g>
    </g>
    <g id="xtick_10">
     <g id="line2d_17">
      <g>
       <use xlink:href="#m3f9f35ce38" x="381.337131" y="307.872" style="stroke: #000000; stroke-width: 0.8"/>
      </g>
     </g>
     <g id="text_12">
      <!-- 850 -->
      <g transform="translate(371.793381 322.470438) scale(0.1 -0.1)">
       <use xlink:href="#DejaVuSans-38"/>
       <use xlink:href="#DejaVuSans-35" x="63.623047"/>
       <use xlink:href="#DejaVuSans-30" x="127.246094"/>
      </g>
     </g>
    </g>
    <g id="text_13">
     <!-- Frequency [MHz] -->
     <g transform="translate(187.136562 336.148562) scale(0.1 -0.1)">
      <defs>
       <path id="DejaVuSans-46" d="M 628 4666 
L 3309 4666 
L 3309 4134 
L 1259 4134 
L 1259 2759 
L 3109 2759 
L 3109 2228 
L 1259 2228 
L 1259 0 
L 628 0 
L 628 4666 
z
" transform="scale(0.015625)"/>
       <path id="DejaVuSans-71" d="M 947 1747 
Q 947 1113 1208 752 
Q 1469 391 1925 391 
Q 2381 391 2643 752 
Q 2906 1113 2906 1747 
Q 2906 2381 2643 2742 
Q 2381 3103 1925 3103 
Q 1469 3103 1208 2742 
Q 947 2381 947 1747 
z
M 2906 525 
Q 2725 213 2448 61 
Q 2172 -91 1784 -91 
Q 1150 -91 751 415 
Q 353 922 353 1747 
Q 353 2572 751 3078 
Q 1150 3584 1784 3584 
Q 2172 3584 2448 3432 
Q 2725 3281 2906 2969 
L 2906 3500 
L 3481 3500 
L 3481 -1331 
L 2906 -1331 
L 2906 525 
z
" transform="scale(0.015625)"/>
       <path id="DejaVuSans-6e" d="M 3513 2113 
L 3513 0 
L 2938 0 
L 2938 2094 
Q 2938 2591 2744 2837 
Q 2550 3084 2163 3084 
Q 1697 3084 1428 2787 
Q 1159 2491 1159 1978 
L 1159 0 
L 581 0 
L 581 3500 
L 1159 3500 
L 1159 2956 
Q 1366 3272 1645 3428 
Q 1925 3584 2291 3584 
Q 2894 3584 3203 3211 
Q 3513 2838 3513 2113 
z
" transform="scale(0.015625)"/>
       <path id="DejaVuSans-63" d="M 3122 3366 
L 3122 2828 
Q 2878 2963 2633 3030 
Q 2388 3097 2138 3097 
Q 1578 3097 1268 2742 
Q 959 2388 959 1747 
Q 959 1106 1268 751 
Q 1578 397 2138 397 
Q 2388 397 2633 464 
Q 2878 531 3122 666 
L 3122 134 
Q 2881 22 2623 -34 
Q 2366 -91 2075 -91 
Q 1284 -91 818 406 
Q 353 903 353 1747 
Q 353 2603 823 3093 
Q 1294 3584 2113 3584 
Q 2378 3584 2631 3529 
Q 2884 3475 3122 3366 
z
" transform="scale(0.015625)"/>
       <path id="DejaVuSans-4d" d="M 628 4666 
L 1569 4666 
L 2759 1491 
L 3956 4666 
L 4897 4666 
L 4897 0 
L 4281 0 
L 4281 4097 
L 3078 897 
L 2444 897 
L 1241 4097 
L 1241 0 
L 628 0 
L 628 4666 
z
" transform="scale(0.015625)"/>
      </defs>
      <use xlink:href="#DejaVuSans-46"/>
      <use xlink:href="#DejaVuSans-72" x="50.269531"/>
      <use xlink:href="#DejaVuSans-65" x="89.132812"/>
      <use xlink:href="#DejaVuSans-71" x="150.65625"/>
      <use xlink:href="#DejaVuSans-75" x="214.132812"/>
      <use xlink:href="#DejaVuSans-65" x="277.511719"/>
      <use xlink:href="#DejaVuSans-6e" x="339.035156"/>
      <use xlink:href="#DejaVuSans-63" x="402.414062"/>
      <use xlink:href="#DejaVuSans-79" x="457.394531"/>
      <use xlink:href="#DejaVuSans-20" x="516.574219"/>
      <use xlink:href="#DejaVuSans-5b" x="548.361328"/>
      <use xlink:href="#DejaVuSans-4d" x="587.375"/>
      <use xlink:href="#DejaVuSans-48" x="673.654297"/>
      <use xlink:href="#DejaVuSans-7a" x="748.849609"/>
      <use xlink:href="#DejaVuSans-5d" x="801.339844"/>
     </g>
    </g>
    <g id="text_14">
     <!-- +5 GHz -->
     <g transform="translate(369.277812 335.148562) scale(0.1 -0.1)">
      <defs>
       <path id="DejaVuSans-2b" d="M 2944 4013 
L 2944 2272 
L 4684 2272 
L 4684 1741 
L 2944 1741 
L 2944 0 
L 2419 0 
L 2419 1741 
L 678 1741 
L 678 2272 
L 2419 2272 
L 2419 4013 
L 2944 4013 
z
" transform="scale(0.015625)"/>
      </defs>
      <use xlink:href="#DejaVuSans-2b"/>
      <use xlink:href="#DejaVuSans-35" x="83.789062"/>
      <use xlink:href="#DejaVuSans-20" x="147.412109"/>
      <use xlink:href="#DejaVuSans-47" x="179.199219"/>
      <use xlink:href="#DejaVuSans-48" x="256.689453"/>
      <use xlink:href="#DejaVuSans-7a" x="331.884766"/>
     </g>
    </g>
   </g>
   <g id="matplotlib.axis_4">
    <g id="ytick_6">
     <g id="line2d_18">
      <g>
       <use xlink:href="#m2822a8d93c" x="50.595313" y="277.930444" style="stroke: #000000; stroke-width: 0.8"/>
      </g>
     </g>
     <g id="text_15">
      <!-- -100 -->
      <g transform="translate(20.9 281.729663) scale(0.1 -0.1)">
       <use xlink:href="#DejaVuSans-2d"/>
       <use xlink:href="#DejaVuSans-31" x="36.083984"/>
       <use xlink:href="#DejaVuSans-30" x="99.707031"/>
       <use xlink:href="#DejaVuSans-30" x="163.330078"/>
      </g>
     </g>
    </g>
    <g id="ytick_7">
     <g id="line2d_19">
      <g>
       <use xlink:href="#m2822a8d93c" x="50.595313" y="247.371917" style="stroke: #000000; stroke-width: 0.8"/>
      </g>
     </g>
     <g id="text_16">
      <!-- 0 -->
      <g transform="translate(37.232813 251.171136) scale(0.1 -0.1)">
       <use xlink:href="#DejaVuSans-30"/>
      </g>
     </g>
    </g>
    <g id="ytick_8">
     <g id="line2d_20">
      <g>
       <use xlink:href="#m2822a8d93c" x="50.595313" y="216.81339" style="stroke: #000000; stroke-width: 0.8"/>
      </g>
     </g>
     <g id="text_17">
      <!-- 100 -->
      <g transform="translate(24.507813 220.612608) scale(0.1 -0.1)">
       <use xlink:href="#DejaVuSans-31"/>
       <use xlink:href="#DejaVuSans-30" x="63.623047"/>
       <use xlink:href="#DejaVuSans-30" x="127.246094"/>
      </g>
     </g>
    </g>
    <g id="text_18">
     <!-- $\angle S_{21}$ [deg] -->
     <g transform="translate(14.8 274.592) rotate(-90) scale(0.1 -0.1)">
      <defs>
       <path id="DejaVuSans-2220" d="M 5028 631 
L 5028 0 
L 547 0 
L 3525 4666 
L 4281 4666 
L 1716 631 
L 5028 631 
z
" transform="scale(0.015625)"/>
       <path id="DejaVuSans-64" d="M 2906 2969 
L 2906 4863 
L 3481 4863 
L 3481 0 
L 2906 0 
L 2906 525 
Q 2725 213 2448 61 
Q 2172 -91 1784 -91 
Q 1150 -91 751 415 
Q 353 922 353 1747 
Q 353 2572 751 3078 
Q 1150 3584 1784 3584 
Q 2172 3584 2448 3432 
Q 2725 3281 2906 2969 
z
M 947 1747 
Q 947 1113 1208 752 
Q 1469 391 1925 391 
Q 2381 391 2643 752 
Q 2906 1113 2906 1747 
Q 2906 2381 2643 2742 
Q 2381 3103 1925 3103 
Q 1469 3103 1208 2742 
Q 947 2381 947 1747 
z
" transform="scale(0.015625)"/>
       <path id="DejaVuSans-67" d="M 2906 1791 
Q 2906 2416 2648 2759 
Q 2391 3103 1925 3103 
Q 1463 3103 1205 2759 
Q 947 2416 947 1791 
Q 947 1169 1205 825 
Q 1463 481 1925 481 
Q 2391 481 2648 825 
Q 2906 1169 2906 1791 
z
M 3481 434 
Q 3481 -459 3084 -895 
Q 2688 -1331 1869 -1331 
Q 1566 -1331 1297 -1286 
Q 1028 -1241 775 -1147 
L 775 -588 
Q 1028 -725 1275 -790 
Q 1522 -856 1778 -856 
Q 2344 -856 2625 -561 
Q 2906 -266 2906 331 
L 2906 616 
Q 2728 306 2450 153 
Q 2172 0 1784 0 
Q 1141 0 747 490 
Q 353 981 353 1791 
Q 353 2603 747 3093 
Q 1141 3584 1784 3584 
Q 2172 3584 2450 3431 
Q 2728 3278 2906 2969 
L 2906 3500 
L 3481 3500 
L 3481 434 
z
" transform="scale(0.015625)"/>
      </defs>
      <use xlink:href="#DejaVuSans-2220" transform="translate(0 0.015625)"/>
      <use xlink:href="#DejaVuSans-Oblique-53" transform="translate(89.648438 0.015625)"/>
      <use xlink:href="#DejaVuSans-32" transform="translate(153.125 -16.390625) scale(0.7)"/>
      <use xlink:href="#DejaVuSans-31" transform="translate(197.661133 -16.390625) scale(0.7)"/>
      <use xlink:href="#DejaVuSans-20" transform="translate(244.931641 0.015625)"/>
      <use xlink:href="#DejaVuSans-5b" transform="translate(276.71875 0.015625)"/>
      <use xlink:href="#DejaVuSans-64" transform="translate(315.732422 0.015625)"/>
      <use xlink:href="#DejaVuSans-65" transform="translate(379.208984 0.015625)"/>
      <use xlink:href="#DejaVuSans-67" transform="translate(440.732422 0.015625)"/>
      <use xlink:href="#DejaVuSans-5d" transform="translate(504.208984 0.015625)"/>
     </g>
    </g>
   </g>
   <g id="line2d_21">
    <path d="M 66.82804 291.007831 
L 68.45947 291.126137 
L 73.353759 291.75516 
L 74.985189 291.93917 
L 78.248049 292.028272 
L 79.879479 292.384814 
L 81.510909 292.313422 
L 84.773768 292.91731 
L 88.036628 293.171009 
L 89.668058 293.520222 
L 91.299488 293.584181 
L 92.930918 293.772367 
L 94.562348 293.701194 
L 96.193778 294.140094 
L 97.825207 294.112462 
L 99.456637 294.349301 
L 102.719497 295.00761 
L 104.350927 294.861321 
L 105.982357 294.85473 
L 107.613787 295.285793 
L 109.245217 295.563151 
L 110.876646 295.453764 
L 112.508076 295.8897 
L 115.770936 295.982167 
L 117.402366 296.392929 
L 119.033796 296.467518 
L 120.665226 296.858971 
L 123.928085 297.12645 
L 125.559515 297.358976 
L 127.190945 297.335015 
L 128.822375 297.6392 
L 130.453805 297.514892 
L 132.085235 297.984187 
L 133.716665 298.172366 
L 135.348095 298.215669 
L 136.979524 298.45999 
L 138.610954 298.542243 
L 140.242384 299.089808 
L 141.873814 299.376431 
L 143.505244 299.206695 
L 145.136674 299.500051 
L 146.768104 299.658238 
L 150.030963 300.381972 
L 153.293823 300.736522 
L 154.925253 300.72498 
L 156.556683 301.152028 
L 158.188113 301.218481 
L 159.819543 301.635393 
L 161.450973 301.83129 
L 163.082402 302.174618 
L 164.713832 192.426425 
L 167.976692 193.081666 
L 169.608122 193.143855 
L 172.870982 193.928978 
L 174.502412 194.104517 
L 176.133842 194.577269 
L 177.765271 194.784138 
L 181.028131 195.773551 
L 182.659561 196.054624 
L 184.290991 196.690895 
L 187.553851 197.510442 
L 189.185281 198.156992 
L 190.81671 198.975806 
L 194.07957 200.288973 
L 195.711 201.279663 
L 198.97386 202.864337 
L 207.131009 209.132066 
L 208.762439 210.863621 
L 210.393869 212.353073 
L 212.025299 213.599712 
L 215.288159 216.377767 
L 216.919588 216.914249 
L 218.551018 216.976691 
L 220.182448 215.908996 
L 221.813878 215.094595 
L 223.445308 208.775093 
L 225.076738 200.333221 
L 226.708168 195.18606 
L 228.339598 192.533485 
L 229.971027 300.697942 
L 231.602457 299.062389 
L 233.233887 298.968093 
L 234.865317 299.194261 
L 238.128177 298.897916 
L 239.759607 299.446008 
L 243.022466 299.79542 
L 244.653896 300.070934 
L 246.285326 300.87561 
L 247.916756 301.082672 
L 249.548186 300.700902 
L 251.179616 301.442812 
L 254.442476 302.19236 
L 256.073905 301.860331 
L 257.705335 192.460267 
L 260.968195 192.891398 
L 264.231055 193.439181 
L 265.862485 193.468755 
L 267.493915 194.093832 
L 272.388204 194.384904 
L 274.019634 194.700444 
L 275.651064 195.388083 
L 277.282494 195.107803 
L 278.913924 195.572712 
L 280.545354 195.837327 
L 282.176783 195.689457 
L 283.808213 196.142539 
L 285.439643 196.271386 
L 287.071073 196.284364 
L 293.596793 197.345831 
L 295.228223 197.36533 
L 296.859652 197.642061 
L 300.122512 197.921204 
L 301.753942 198.246867 
L 303.385372 198.328366 
L 305.016802 198.577804 
L 306.648232 198.704636 
L 308.279662 199.062106 
L 311.542521 199.347348 
L 313.173951 199.308089 
L 314.805381 199.78123 
L 316.436811 199.802192 
L 321.331101 200.540199 
L 322.96253 200.421542 
L 324.59396 200.48922 
L 326.22539 201.076032 
L 329.48825 201.286853 
L 331.11968 201.61225 
L 332.75111 201.471791 
L 336.013969 202.076966 
L 337.645399 202.142311 
L 339.276829 202.527054 
L 342.539689 202.720893 
L 345.802549 203.211358 
L 347.433979 203.039878 
L 353.959698 204.165213 
L 355.591128 204.064118 
L 358.853988 204.453069 
L 360.485418 204.630408 
L 362.116847 204.633871 
L 367.011137 205.220974 
L 368.642567 205.606211 
L 370.273997 205.509086 
L 373.536857 205.969933 
L 375.168286 205.998049 
L 376.799716 206.13812 
L 378.431146 206.487894 
L 380.062576 206.615194 
L 381.694006 206.579447 
L 383.325436 207.080455 
L 384.956866 207.075894 
L 386.588296 207.37249 
L 388.219725 207.25475 
L 389.851155 207.616291 
L 391.482585 207.813136 
L 391.482585 207.813136 
" clip-path="url(#p44a2a07d0a)" style="fill: none; stroke: #1f77b4; stroke-width: 1.5; stroke-linecap: square"/>
    <g clip-path="url(#p44a2a07d0a)">
     <use xlink:href="#mb77d76df9b" x="66.82804" y="291.007831" style="fill: #1f77b4; stroke: #1f77b4"/>
     <use xlink:href="#mb77d76df9b" x="68.45947" y="291.126137" style="fill: #1f77b4; stroke: #1f77b4"/>
     <use xlink:href="#mb77d76df9b" x="70.0909" y="291.37085" style="fill: #1f77b4; stroke: #1f77b4"/>
     <use xlink:href="#mb77d76df9b" x="71.722329" y="291.562072" style="fill: #1f77b4; stroke: #1f77b4"/>
     <use xlink:href="#mb77d76df9b" x="73.353759" y="291.75516" style="fill: #1f77b4; stroke: #1f77b4"/>
     <use xlink:href="#mb77d76df9b" x="74.985189" y="291.93917" style="fill: #1f77b4; stroke: #1f77b4"/>
     <use xlink:href="#mb77d76df9b" x="76.616619" y="291.991221" style="fill: #1f77b4; stroke: #1f77b4"/>
     <use xlink:href="#mb77d76df9b" x="78.248049" y="292.028272" style="fill: #1f77b4; stroke: #1f77b4"/>
     <use xlink:href="#mb77d76df9b" x="79.879479" y="292.384814" style="fill: #1f77b4; stroke: #1f77b4"/>
     <use xlink:href="#mb77d76df9b" x="81.510909" y="292.313422" style="fill: #1f77b4; stroke: #1f77b4"/>
     <use xlink:href="#mb77d76df9b" x="83.142339" y="292.591577" style="fill: #1f77b4; stroke: #1f77b4"/>
     <use xlink:href="#mb77d76df9b" x="84.773768" y="292.91731" style="fill: #1f77b4; stroke: #1f77b4"/>
     <use xlink:href="#mb77d76df9b" x="86.405198" y="293.001921" style="fill: #1f77b4; stroke: #1f77b4"/>
     <use xlink:href="#mb77d76df9b" x="88.036628" y="293.171009" style="fill: #1f77b4; stroke: #1f77b4"/>
     <use xlink:href="#mb77d76df9b" x="89.668058" y="293.520222" style="fill: #1f77b4; stroke: #1f77b4"/>
     <use xlink:href="#mb77d76df9b" x="91.299488" y="293.584181" style="fill: #1f77b4; stroke: #1f77b4"/>
     <use xlink:href="#mb77d76df9b" x="92.930918" y="293.772367" style="fill: #1f77b4; stroke: #1f77b4"/>
     <use xlink:href="#mb77d76df9b" x="94.562348" y="293.701194" style="fill: #1f77b4; stroke: #1f77b4"/>
     <use xlink:href="#mb77d76df9b" x="96.193778" y="294.140094" style="fill: #1f77b4; stroke: #1f77b4"/>
     <use xlink:href="#mb77d76df9b" x="97.825207" y="294.112462" style="fill: #1f77b4; stroke: #1f77b4"/>
     <use xlink:href="#mb77d76df9b" x="99.456637" y="294.349301" style="fill: #1f77b4; stroke: #1f77b4"/>
     <use xlink:href="#mb77d76df9b" x="101.088067" y="294.713342" style="fill: #1f77b4; stroke: #1f77b4"/>
     <use xlink:href="#mb77d76df9b" x="102.719497" y="295.00761" style="fill: #1f77b4; stroke: #1f77b4"/>
     <use xlink:href="#mb77d76df9b" x="104.350927" y="294.861321" style="fill: #1f77b4; stroke: #1f77b4"/>
     <use xlink:href="#mb77d76df9b" x="105.982357" y="294.85473" style="fill: #1f77b4; stroke: #1f77b4"/>
     <use xlink:href="#mb77d76df9b" x="107.613787" y="295.285793" style="fill: #1f77b4; stroke: #1f77b4"/>
     <use xlink:href="#mb77d76df9b" x="109.245217" y="295.563151" style="fill: #1f77b4; stroke: #1f77b4"/>
     <use xlink:href="#mb77d76df9b" x="110.876646" y="295.453764" style="fill: #1f77b4; stroke: #1f77b4"/>
     <use xlink:href="#mb77d76df9b" x="112.508076" y="295.8897" style="fill: #1f77b4; stroke: #1f77b4"/>
     <use xlink:href="#mb77d76df9b" x="114.139506" y="295.936624" style="fill: #1f77b4; stroke: #1f77b4"/>
     <use xlink:href="#mb77d76df9b" x="115.770936" y="295.982167" style="fill: #1f77b4; stroke: #1f77b4"/>
     <use xlink:href="#mb77d76df9b" x="117.402366" y="296.392929" style="fill: #1f77b4; stroke: #1f77b4"/>
     <use xlink:href="#mb77d76df9b" x="119.033796" y="296.467518" style="fill: #1f77b4; stroke: #1f77b4"/>
     <use xlink:href="#mb77d76df9b" x="120.665226" y="296.858971" style="fill: #1f77b4; stroke: #1f77b4"/>
     <use xlink:href="#mb77d76df9b" x="122.296656" y="296.98624" style="fill: #1f77b4; stroke: #1f77b4"/>
     <use xlink:href="#mb77d76df9b" x="123.928085" y="297.12645" style="fill: #1f77b4; stroke: #1f77b4"/>
     <use xlink:href="#mb77d76df9b" x="125.559515" y="297.358976" style="fill: #1f77b4; stroke: #1f77b4"/>
     <use xlink:href="#mb77d76df9b" x="127.190945" y="297.335015" style="fill: #1f77b4; stroke: #1f77b4"/>
     <use xlink:href="#mb77d76df9b" x="128.822375" y="297.6392" style="fill: #1f77b4; stroke: #1f77b4"/>
     <use xlink:href="#mb77d76df9b" x="130.453805" y="297.514892" style="fill: #1f77b4; stroke: #1f77b4"/>
     <use xlink:href="#mb77d76df9b" x="132.085235" y="297.984187" style="fill: #1f77b4; stroke: #1f77b4"/>
     <use xlink:href="#mb77d76df9b" x="133.716665" y="298.172366" style="fill: #1f77b4; stroke: #1f77b4"/>
     <use xlink:href="#mb77d76df9b" x="135.348095" y="298.215669" style="fill: #1f77b4; stroke: #1f77b4"/>
     <use xlink:href="#mb77d76df9b" x="136.979524" y="298.45999" style="fill: #1f77b4; stroke: #1f77b4"/>
     <use xlink:href="#mb77d76df9b" x="138.610954" y="298.542243" style="fill: #1f77b4; stroke: #1f77b4"/>
     <use xlink:href="#mb77d76df9b" x="140.242384" y="299.089808" style="fill: #1f77b4; stroke: #1f77b4"/>
     <use xlink:href="#mb77d76df9b" x="141.873814" y="299.376431" style="fill: #1f77b4; stroke: #1f77b4"/>
     <use xlink:href="#mb77d76df9b" x="143.505244" y="299.206695" style="fill: #1f77b4; stroke: #1f77b4"/>
     <use xlink:href="#mb77d76df9b" x="145.136674" y="299.500051" style="fill: #1f77b4; stroke: #1f77b4"/>
     <use xlink:href="#mb77d76df9b" x="146.768104" y="299.658238" style="fill: #1f77b4; stroke: #1f77b4"/>
     <use xlink:href="#mb77d76df9b" x="148.399534" y="300.0438" style="fill: #1f77b4; stroke: #1f77b4"/>
     <use xlink:href="#mb77d76df9b" x="150.030963" y="300.381972" style="fill: #1f77b4; stroke: #1f77b4"/>
     <use xlink:href="#mb77d76df9b" x="151.662393" y="300.559857" style="fill: #1f77b4; stroke: #1f77b4"/>
     <use xlink:href="#mb77d76df9b" x="153.293823" y="300.736522" style="fill: #1f77b4; stroke: #1f77b4"/>
     <use xlink:href="#mb77d76df9b" x="154.925253" y="300.72498" style="fill: #1f77b4; stroke: #1f77b4"/>
     <use xlink:href="#mb77d76df9b" x="156.556683" y="301.152028" style="fill: #1f77b4; stroke: #1f77b4"/>
     <use xlink:href="#mb77d76df9b" x="158.188113" y="301.218481" style="fill: #1f77b4; stroke: #1f77b4"/>
     <use xlink:href="#mb77d76df9b" x="159.819543" y="301.635393" style="fill: #1f77b4; stroke: #1f77b4"/>
     <use xlink:href="#mb77d76df9b" x="161.450973" y="301.83129" style="fill: #1f77b4; stroke: #1f77b4"/>
     <use xlink:href="#mb77d76df9b" x="163.082402" y="302.174618" style="fill: #1f77b4; stroke: #1f77b4"/>
     <use xlink:href="#mb77d76df9b" x="164.713832" y="192.426425" style="fill: #1f77b4; stroke: #1f77b4"/>
     <use xlink:href="#mb77d76df9b" x="166.345262" y="192.766027" style="fill: #1f77b4; stroke: #1f77b4"/>
     <use xlink:href="#mb77d76df9b" x="167.976692" y="193.081666" style="fill: #1f77b4; stroke: #1f77b4"/>
     <use xlink:href="#mb77d76df9b" x="169.608122" y="193.143855" style="fill: #1f77b4; stroke: #1f77b4"/>
     <use xlink:href="#mb77d76df9b" x="171.239552" y="193.527333" style="fill: #1f77b4; stroke: #1f77b4"/>
     <use xlink:href="#mb77d76df9b" x="172.870982" y="193.928978" style="fill: #1f77b4; stroke: #1f77b4"/>
     <use xlink:href="#mb77d76df9b" x="174.502412" y="194.104517" style="fill: #1f77b4; stroke: #1f77b4"/>
     <use xlink:href="#mb77d76df9b" x="176.133842" y="194.577269" style="fill: #1f77b4; stroke: #1f77b4"/>
     <use xlink:href="#mb77d76df9b" x="177.765271" y="194.784138" style="fill: #1f77b4; stroke: #1f77b4"/>
     <use xlink:href="#mb77d76df9b" x="179.396701" y="195.299782" style="fill: #1f77b4; stroke: #1f77b4"/>
     <use xlink:href="#mb77d76df9b" x="181.028131" y="195.773551" style="fill: #1f77b4; stroke: #1f77b4"/>
     <use xlink:href="#mb77d76df9b" x="182.659561" y="196.054624" style="fill: #1f77b4; stroke: #1f77b4"/>
     <use xlink:href="#mb77d76df9b" x="184.290991" y="196.690895" style="fill: #1f77b4; stroke: #1f77b4"/>
     <use xlink:href="#mb77d76df9b" x="185.922421" y="197.114645" style="fill: #1f77b4; stroke: #1f77b4"/>
     <use xlink:href="#mb77d76df9b" x="187.553851" y="197.510442" style="fill: #1f77b4; stroke: #1f77b4"/>
     <use xlink:href="#mb77d76df9b" x="189.185281" y="198.156992" style="fill: #1f77b4; stroke: #1f77b4"/>
     <use xlink:href="#mb77d76df9b" x="190.81671" y="198.975806" style="fill: #1f77b4; stroke: #1f77b4"/>
     <use xlink:href="#mb77d76df9b" x="192.44814" y="199.650349" style="fill: #1f77b4; stroke: #1f77b4"/>
     <use xlink:href="#mb77d76df9b" x="194.07957" y="200.288973" style="fill: #1f77b4; stroke: #1f77b4"/>
     <use xlink:href="#mb77d76df9b" x="195.711" y="201.279663" style="fill: #1f77b4; stroke: #1f77b4"/>
     <use xlink:href="#mb77d76df9b" x="197.34243" y="202.134329" style="fill: #1f77b4; stroke: #1f77b4"/>
     <use xlink:href="#mb77d76df9b" x="198.97386" y="202.864337" style="fill: #1f77b4; stroke: #1f77b4"/>
     <use xlink:href="#mb77d76df9b" x="200.60529" y="204.113909" style="fill: #1f77b4; stroke: #1f77b4"/>
     <use xlink:href="#mb77d76df9b" x="202.23672" y="205.431394" style="fill: #1f77b4; stroke: #1f77b4"/>
     <use xlink:href="#mb77d76df9b" x="203.868149" y="206.607611" style="fill: #1f77b4; stroke: #1f77b4"/>
     <use xlink:href="#mb77d76df9b" x="205.499579" y="207.869241" style="fill: #1f77b4; stroke: #1f77b4"/>
     <use xlink:href="#mb77d76df9b" x="207.131009" y="209.132066" style="fill: #1f77b4; stroke: #1f77b4"/>
     <use xlink:href="#mb77d76df9b" x="208.762439" y="210.863621" style="fill: #1f77b4; stroke: #1f77b4"/>
     <use xlink:href="#mb77d76df9b" x="210.393869" y="212.353073" style="fill: #1f77b4; stroke: #1f77b4"/>
     <use xlink:href="#mb77d76df9b" x="212.025299" y="213.599712" style="fill: #1f77b4; stroke: #1f77b4"/>
     <use xlink:href="#mb77d76df9b" x="213.656729" y="215.030932" style="fill: #1f77b4; stroke: #1f77b4"/>
     <use xlink:href="#mb77d76df9b" x="215.288159" y="216.377767" style="fill: #1f77b4; stroke: #1f77b4"/>
     <use xlink:href="#mb77d76df9b" x="216.919588" y="216.914249" style="fill: #1f77b4; stroke: #1f77b4"/>
     <use xlink:href="#mb77d76df9b" x="218.551018" y="216.976691" style="fill: #1f77b4; stroke: #1f77b4"/>
     <use xlink:href="#mb77d76df9b" x="220.182448" y="215.908996" style="fill: #1f77b4; stroke: #1f77b4"/>
     <use xlink:href="#mb77d76df9b" x="221.813878" y="215.094595" style="fill: #1f77b4; stroke: #1f77b4"/>
     <use xlink:href="#mb77d76df9b" x="223.445308" y="208.775093" style="fill: #1f77b4; stroke: #1f77b4"/>
     <use xlink:href="#mb77d76df9b" x="225.076738" y="200.333221" style="fill: #1f77b4; stroke: #1f77b4"/>
     <use xlink:href="#mb77d76df9b" x="226.708168" y="195.18606" style="fill: #1f77b4; stroke: #1f77b4"/>
     <use xlink:href="#mb77d76df9b" x="228.339598" y="192.533485" style="fill: #1f77b4; stroke: #1f77b4"/>
     <use xlink:href="#mb77d76df9b" x="229.971027" y="300.697942" style="fill: #1f77b4; stroke: #1f77b4"/>
     <use xlink:href="#mb77d76df9b" x="231.602457" y="299.062389" style="fill: #1f77b4; stroke: #1f77b4"/>
     <use xlink:href="#mb77d76df9b" x="233.233887" y="298.968093" style="fill: #1f77b4; stroke: #1f77b4"/>
     <use xlink:href="#mb77d76df9b" x="234.865317" y="299.194261" style="fill: #1f77b4; stroke: #1f77b4"/>
     <use xlink:href="#mb77d76df9b" x="236.496747" y="299.027615" style="fill: #1f77b4; stroke: #1f77b4"/>
     <use xlink:href="#mb77d76df9b" x="238.128177" y="298.897916" style="fill: #1f77b4; stroke: #1f77b4"/>
     <use xlink:href="#mb77d76df9b" x="239.759607" y="299.446008" style="fill: #1f77b4; stroke: #1f77b4"/>
     <use xlink:href="#mb77d76df9b" x="241.391037" y="299.59726" style="fill: #1f77b4; stroke: #1f77b4"/>
     <use xlink:href="#mb77d76df9b" x="243.022466" y="299.79542" style="fill: #1f77b4; stroke: #1f77b4"/>
     <use xlink:href="#mb77d76df9b" x="244.653896" y="300.070934" style="fill: #1f77b4; stroke: #1f77b4"/>
     <use xlink:href="#mb77d76df9b" x="246.285326" y="300.87561" style="fill: #1f77b4; stroke: #1f77b4"/>
     <use xlink:href="#mb77d76df9b" x="247.916756" y="301.082672" style="fill: #1f77b4; stroke: #1f77b4"/>
     <use xlink:href="#mb77d76df9b" x="249.548186" y="300.700902" style="fill: #1f77b4; stroke: #1f77b4"/>
     <use xlink:href="#mb77d76df9b" x="251.179616" y="301.442812" style="fill: #1f77b4; stroke: #1f77b4"/>
     <use xlink:href="#mb77d76df9b" x="252.811046" y="301.761205" style="fill: #1f77b4; stroke: #1f77b4"/>
     <use xlink:href="#mb77d76df9b" x="254.442476" y="302.19236" style="fill: #1f77b4; stroke: #1f77b4"/>
     <use xlink:href="#mb77d76df9b" x="256.073905" y="301.860331" style="fill: #1f77b4; stroke: #1f77b4"/>
     <use xlink:href="#mb77d76df9b" x="257.705335" y="192.460267" style="fill: #1f77b4; stroke: #1f77b4"/>
     <use xlink:href="#mb77d76df9b" x="259.336765" y="192.643316" style="fill: #1f77b4; stroke: #1f77b4"/>
     <use xlink:href="#mb77d76df9b" x="260.968195" y="192.891398" style="fill: #1f77b4; stroke: #1f77b4"/>
     <use xlink:href="#mb77d76df9b" x="262.599625" y="193.128633" style="fill: #1f77b4; stroke: #1f77b4"/>
     <use xlink:href="#mb77d76df9b" x="264.231055" y="193.439181" style="fill: #1f77b4; stroke: #1f77b4"/>
     <use xlink:href="#mb77d76df9b" x="265.862485" y="193.468755" style="fill: #1f77b4; stroke: #1f77b4"/>
     <use xlink:href="#mb77d76df9b" x="267.493915" y="194.093832" style="fill: #1f77b4; stroke: #1f77b4"/>
     <use xlink:href="#mb77d76df9b" x="269.125344" y="194.200953" style="fill: #1f77b4; stroke: #1f77b4"/>
     <use xlink:href="#mb77d76df9b" x="270.756774" y="194.256442" style="fill: #1f77b4; stroke: #1f77b4"/>
     <use xlink:href="#mb77d76df9b" x="272.388204" y="194.384904" style="fill: #1f77b4; stroke: #1f77b4"/>
     <use xlink:href="#mb77d76df9b" x="274.019634" y="194.700444" style="fill: #1f77b4; stroke: #1f77b4"/>
     <use xlink:href="#mb77d76df9b" x="275.651064" y="195.388083" style="fill: #1f77b4; stroke: #1f77b4"/>
     <use xlink:href="#mb77d76df9b" x="277.282494" y="195.107803" style="fill: #1f77b4; stroke: #1f77b4"/>
     <use xlink:href="#mb77d76df9b" x="278.913924" y="195.572712" style="fill: #1f77b4; stroke: #1f77b4"/>
     <use xlink:href="#mb77d76df9b" x="280.545354" y="195.837327" style="fill: #1f77b4; stroke: #1f77b4"/>
     <use xlink:href="#mb77d76df9b" x="282.176783" y="195.689457" style="fill: #1f77b4; stroke: #1f77b4"/>
     <use xlink:href="#mb77d76df9b" x="283.808213" y="196.142539" style="fill: #1f77b4; stroke: #1f77b4"/>
     <use xlink:href="#mb77d76df9b" x="285.439643" y="196.271386" style="fill: #1f77b4; stroke: #1f77b4"/>
     <use xlink:href="#mb77d76df9b" x="287.071073" y="196.284364" style="fill: #1f77b4; stroke: #1f77b4"/>
     <use xlink:href="#mb77d76df9b" x="288.702503" y="196.532351" style="fill: #1f77b4; stroke: #1f77b4"/>
     <use xlink:href="#mb77d76df9b" x="290.333933" y="196.731425" style="fill: #1f77b4; stroke: #1f77b4"/>
     <use xlink:href="#mb77d76df9b" x="291.965363" y="197.091703" style="fill: #1f77b4; stroke: #1f77b4"/>
     <use xlink:href="#mb77d76df9b" x="293.596793" y="197.345831" style="fill: #1f77b4; stroke: #1f77b4"/>
     <use xlink:href="#mb77d76df9b" x="295.228223" y="197.36533" style="fill: #1f77b4; stroke: #1f77b4"/>
     <use xlink:href="#mb77d76df9b" x="296.859652" y="197.642061" style="fill: #1f77b4; stroke: #1f77b4"/>
     <use xlink:href="#mb77d76df9b" x="298.491082" y="197.805319" style="fill: #1f77b4; stroke: #1f77b4"/>
     <use xlink:href="#mb77d76df9b" x="300.122512" y="197.921204" style="fill: #1f77b4; stroke: #1f77b4"/>
     <use xlink:href="#mb77d76df9b" x="301.753942" y="198.246867" style="fill: #1f77b4; stroke: #1f77b4"/>
     <use xlink:href="#mb77d76df9b" x="303.385372" y="198.328366" style="fill: #1f77b4; stroke: #1f77b4"/>
     <use xlink:href="#mb77d76df9b" x="305.016802" y="198.577804" style="fill: #1f77b4; stroke: #1f77b4"/>
     <use xlink:href="#mb77d76df9b" x="306.648232" y="198.704636" style="fill: #1f77b4; stroke: #1f77b4"/>
     <use xlink:href="#mb77d76df9b" x="308.279662" y="199.062106" style="fill: #1f77b4; stroke: #1f77b4"/>
     <use xlink:href="#mb77d76df9b" x="309.911091" y="199.226683" style="fill: #1f77b4; stroke: #1f77b4"/>
     <use xlink:href="#mb77d76df9b" x="311.542521" y="199.347348" style="fill: #1f77b4; stroke: #1f77b4"/>
     <use xlink:href="#mb77d76df9b" x="313.173951" y="199.308089" style="fill: #1f77b4; stroke: #1f77b4"/>
     <use xlink:href="#mb77d76df9b" x="314.805381" y="199.78123" style="fill: #1f77b4; stroke: #1f77b4"/>
     <use xlink:href="#mb77d76df9b" x="316.436811" y="199.802192" style="fill: #1f77b4; stroke: #1f77b4"/>
     <use xlink:href="#mb77d76df9b" x="318.068241" y="200.029318" style="fill: #1f77b4; stroke: #1f77b4"/>
     <use xlink:href="#mb77d76df9b" x="319.699671" y="200.254486" style="fill: #1f77b4; stroke: #1f77b4"/>
     <use xlink:href="#mb77d76df9b" x="321.331101" y="200.540199" style="fill: #1f77b4; stroke: #1f77b4"/>
     <use xlink:href="#mb77d76df9b" x="322.96253" y="200.421542" style="fill: #1f77b4; stroke: #1f77b4"/>
     <use xlink:href="#mb77d76df9b" x="324.59396" y="200.48922" style="fill: #1f77b4; stroke: #1f77b4"/>
     <use xlink:href="#mb77d76df9b" x="326.22539" y="201.076032" style="fill: #1f77b4; stroke: #1f77b4"/>
     <use xlink:href="#mb77d76df9b" x="327.85682" y="201.126629" style="fill: #1f77b4; stroke: #1f77b4"/>
     <use xlink:href="#mb77d76df9b" x="329.48825" y="201.286853" style="fill: #1f77b4; stroke: #1f77b4"/>
     <use xlink:href="#mb77d76df9b" x="331.11968" y="201.61225" style="fill: #1f77b4; stroke: #1f77b4"/>
     <use xlink:href="#mb77d76df9b" x="332.75111" y="201.471791" style="fill: #1f77b4; stroke: #1f77b4"/>
     <use xlink:href="#mb77d76df9b" x="334.38254" y="201.813204" style="fill: #1f77b4; stroke: #1f77b4"/>
     <use xlink:href="#mb77d76df9b" x="336.013969" y="202.076966" style="fill: #1f77b4; stroke: #1f77b4"/>
     <use xlink:href="#mb77d76df9b" x="337.645399" y="202.142311" style="fill: #1f77b4; stroke: #1f77b4"/>
     <use xlink:href="#mb77d76df9b" x="339.276829" y="202.527054" style="fill: #1f77b4; stroke: #1f77b4"/>
     <use xlink:href="#mb77d76df9b" x="340.908259" y="202.634095" style="fill: #1f77b4; stroke: #1f77b4"/>
     <use xlink:href="#mb77d76df9b" x="342.539689" y="202.720893" style="fill: #1f77b4; stroke: #1f77b4"/>
     <use xlink:href="#mb77d76df9b" x="344.171119" y="203.004036" style="fill: #1f77b4; stroke: #1f77b4"/>
     <use xlink:href="#mb77d76df9b" x="345.802549" y="203.211358" style="fill: #1f77b4; stroke: #1f77b4"/>
     <use xlink:href="#mb77d76df9b" x="347.433979" y="203.039878" style="fill: #1f77b4; stroke: #1f77b4"/>
     <use xlink:href="#mb77d76df9b" x="349.065408" y="203.346667" style="fill: #1f77b4; stroke: #1f77b4"/>
     <use xlink:href="#mb77d76df9b" x="350.696838" y="203.631691" style="fill: #1f77b4; stroke: #1f77b4"/>
     <use xlink:href="#mb77d76df9b" x="352.328268" y="203.860797" style="fill: #1f77b4; stroke: #1f77b4"/>
     <use xlink:href="#mb77d76df9b" x="353.959698" y="204.165213" style="fill: #1f77b4; stroke: #1f77b4"/>
     <use xlink:href="#mb77d76df9b" x="355.591128" y="204.064118" style="fill: #1f77b4; stroke: #1f77b4"/>
     <use xlink:href="#mb77d76df9b" x="357.222558" y="204.212092" style="fill: #1f77b4; stroke: #1f77b4"/>
     <use xlink:href="#mb77d76df9b" x="358.853988" y="204.453069" style="fill: #1f77b4; stroke: #1f77b4"/>
     <use xlink:href="#mb77d76df9b" x="360.485418" y="204.630408" style="fill: #1f77b4; stroke: #1f77b4"/>
     <use xlink:href="#mb77d76df9b" x="362.116847" y="204.633871" style="fill: #1f77b4; stroke: #1f77b4"/>
     <use xlink:href="#mb77d76df9b" x="363.748277" y="204.82807" style="fill: #1f77b4; stroke: #1f77b4"/>
     <use xlink:href="#mb77d76df9b" x="365.379707" y="204.989206" style="fill: #1f77b4; stroke: #1f77b4"/>
     <use xlink:href="#mb77d76df9b" x="367.011137" y="205.220974" style="fill: #1f77b4; stroke: #1f77b4"/>
     <use xlink:href="#mb77d76df9b" x="368.642567" y="205.606211" style="fill: #1f77b4; stroke: #1f77b4"/>
     <use xlink:href="#mb77d76df9b" x="370.273997" y="205.509086" style="fill: #1f77b4; stroke: #1f77b4"/>
     <use xlink:href="#mb77d76df9b" x="371.905427" y="205.710911" style="fill: #1f77b4; stroke: #1f77b4"/>
     <use xlink:href="#mb77d76df9b" x="373.536857" y="205.969933" style="fill: #1f77b4; stroke: #1f77b4"/>
     <use xlink:href="#mb77d76df9b" x="375.168286" y="205.998049" style="fill: #1f77b4; stroke: #1f77b4"/>
     <use xlink:href="#mb77d76df9b" x="376.799716" y="206.13812" style="fill: #1f77b4; stroke: #1f77b4"/>
     <use xlink:href="#mb77d76df9b" x="378.431146" y="206.487894" style="fill: #1f77b4; stroke: #1f77b4"/>
     <use xlink:href="#mb77d76df9b" x="380.062576" y="206.615194" style="fill: #1f77b4; stroke: #1f77b4"/>
     <use xlink:href="#mb77d76df9b" x="381.694006" y="206.579447" style="fill: #1f77b4; stroke: #1f77b4"/>
     <use xlink:href="#mb77d76df9b" x="383.325436" y="207.080455" style="fill: #1f77b4; stroke: #1f77b4"/>
     <use xlink:href="#mb77d76df9b" x="384.956866" y="207.075894" style="fill: #1f77b4; stroke: #1f77b4"/>
     <use xlink:href="#mb77d76df9b" x="386.588296" y="207.37249" style="fill: #1f77b4; stroke: #1f77b4"/>
     <use xlink:href="#mb77d76df9b" x="388.219725" y="207.25475" style="fill: #1f77b4; stroke: #1f77b4"/>
     <use xlink:href="#mb77d76df9b" x="389.851155" y="207.616291" style="fill: #1f77b4; stroke: #1f77b4"/>
     <use xlink:href="#mb77d76df9b" x="391.482585" y="207.813136" style="fill: #1f77b4; stroke: #1f77b4"/>
    </g>
   </g>
   <g id="line2d_22">
    <path d="M 66.82804 291.107053 
L 102.900767 294.792857 
L 127.274231 297.49489 
L 144.498146 299.61761 
L 157.172348 301.393392 
L 163.346959 302.366992 
L 163.671938 192.410182 
L 171.796426 193.869477 
L 178.296017 195.246524 
L 183.820669 196.640853 
L 188.370382 198.016265 
L 192.270136 199.427043 
L 195.519932 200.824944 
L 198.444747 202.308447 
L 201.044584 203.85048 
L 203.64442 205.64261 
L 206.244256 207.712471 
L 209.169072 210.361301 
L 215.343683 216.174021 
L 216.643601 217.072284 
L 217.618539 217.531165 
L 218.593478 217.711026 
L 219.243437 217.61149 
L 219.893396 217.269272 
L 220.543355 216.600208 
L 221.193314 215.486539 
L 221.843273 213.77256 
L 222.493232 211.287519 
L 223.143191 207.945414 
L 225.418048 194.753345 
L 225.743027 193.461504 
L 226.068007 302.371651 
L 226.717966 300.66107 
L 227.367925 299.461581 
L 228.017884 298.629266 
L 228.667843 298.058647 
L 229.642782 297.537937 
L 230.61772 297.282504 
L 231.917638 297.194049 
L 233.542536 297.316929 
L 236.142372 297.772077 
L 241.992004 299.113108 
L 250.116492 300.897574 
L 257.916 302.373818 
L 258.24098 192.420185 
L 267.665386 193.953591 
L 279.364649 195.614775 
L 294.313707 197.497891 
L 314.137458 199.756905 
L 341.435738 202.628738 
L 380.433281 206.492051 
L 391.482585 207.557259 
L 391.482585 207.557259 
" clip-path="url(#p44a2a07d0a)" style="fill: none; stroke: #d62728; stroke-width: 1.5; stroke-linecap: square"/>
   </g>
   <g id="patch_9">
    <path d="M 50.595313 307.872 
L 50.595313 186.912 
" style="fill: none; stroke: #000000; stroke-width: 0.8; stroke-linejoin: miter; stroke-linecap: square"/>
   </g>
   <g id="patch_10">
    <path d="M 407.715312 307.872 
L 407.715312 186.912 
" style="fill: none; stroke: #000000; stroke-width: 0.8; stroke-linejoin: miter; stroke-linecap: square"/>
   </g>
   <g id="patch_11">
    <path d="M 50.595312 307.872 
L 407.715312 307.872 
" style="fill: none; stroke: #000000; stroke-width: 0.8; stroke-linejoin: miter; stroke-linecap: square"/>
   </g>
   <g id="patch_12">
    <path d="M 50.595312 186.912 
L 407.715312 186.912 
" style="fill: none; stroke: #000000; stroke-width: 0.8; stroke-linejoin: miter; stroke-linecap: square"/>
   </g>
  </g>
  <g id="text_19">
   <!-- S21 resonator spectroscopy -->
   <g transform="translate(139.610938 16.318125) scale(0.12 -0.12)">
    <defs>
     <path id="DejaVuSans-73" d="M 2834 3397 
L 2834 2853 
Q 2591 2978 2328 3040 
Q 2066 3103 1784 3103 
Q 1356 3103 1142 2972 
Q 928 2841 928 2578 
Q 928 2378 1081 2264 
Q 1234 2150 1697 2047 
L 1894 2003 
Q 2506 1872 2764 1633 
Q 3022 1394 3022 966 
Q 3022 478 2636 193 
Q 2250 -91 1575 -91 
Q 1294 -91 989 -36 
Q 684 19 347 128 
L 347 722 
Q 666 556 975 473 
Q 1284 391 1588 391 
Q 1994 391 2212 530 
Q 2431 669 2431 922 
Q 2431 1156 2273 1281 
Q 2116 1406 1581 1522 
L 1381 1569 
Q 847 1681 609 1914 
Q 372 2147 372 2553 
Q 372 3047 722 3315 
Q 1072 3584 1716 3584 
Q 2034 3584 2315 3537 
Q 2597 3491 2834 3397 
z
" transform="scale(0.015625)"/>
     <path id="DejaVuSans-6f" d="M 1959 3097 
Q 1497 3097 1228 2736 
Q 959 2375 959 1747 
Q 959 1119 1226 758 
Q 1494 397 1959 397 
Q 2419 397 2687 759 
Q 2956 1122 2956 1747 
Q 2956 2369 2687 2733 
Q 2419 3097 1959 3097 
z
M 1959 3584 
Q 2709 3584 3137 3096 
Q 3566 2609 3566 1747 
Q 3566 888 3137 398 
Q 2709 -91 1959 -91 
Q 1206 -91 779 398 
Q 353 888 353 1747 
Q 353 2609 779 3096 
Q 1206 3584 1959 3584 
z
" transform="scale(0.015625)"/>
     <path id="DejaVuSans-74" d="M 1172 4494 
L 1172 3500 
L 2356 3500 
L 2356 3053 
L 1172 3053 
L 1172 1153 
Q 1172 725 1289 603 
Q 1406 481 1766 481 
L 2356 481 
L 2356 0 
L 1766 0 
Q 1100 0 847 248 
Q 594 497 594 1153 
L 594 3053 
L 172 3053 
L 172 3500 
L 594 3500 
L 594 4494 
L 1172 4494 
z
" transform="scale(0.015625)"/>
     <path id="DejaVuSans-70" d="M 1159 525 
L 1159 -1331 
L 581 -1331 
L 581 3500 
L 1159 3500 
L 1159 2969 
Q 1341 3281 1617 3432 
Q 1894 3584 2278 3584 
Q 2916 3584 3314 3078 
Q 3713 2572 3713 1747 
Q 3713 922 3314 415 
Q 2916 -91 2278 -91 
Q 1894 -91 1617 61 
Q 1341 213 1159 525 
z
M 3116 1747 
Q 3116 2381 2855 2742 
Q 2594 3103 2138 3103 
Q 1681 3103 1420 2742 
Q 1159 2381 1159 1747 
Q 1159 1113 1420 752 
Q 1681 391 2138 391 
Q 2594 391 2855 752 
Q 3116 1113 3116 1747 
z
" transform="scale(0.015625)"/>
    </defs>
    <use xlink:href="#DejaVuSans-53"/>
    <use xlink:href="#DejaVuSans-32" x="63.476562"/>
    <use xlink:href="#DejaVuSans-31" x="127.099609"/>
    <use xlink:href="#DejaVuSans-20" x="190.722656"/>
    <use xlink:href="#DejaVuSans-72" x="222.509766"/>
    <use xlink:href="#DejaVuSans-65" x="261.373047"/>
    <use xlink:href="#DejaVuSans-73" x="322.896484"/>
    <use xlink:href="#DejaVuSans-6f" x="374.996094"/>
    <use xlink:href="#DejaVuSans-6e" x="436.177734"/>
    <use xlink:href="#DejaVuSans-61" x="499.556641"/>
    <use xlink:href="#DejaVuSans-74" x="560.835938"/>
    <use xlink:href="#DejaVuSans-6f" x="600.044922"/>
    <use xlink:href="#DejaVuSans-72" x="661.226562"/>
    <use xlink:href="#DejaVuSans-20" x="702.339844"/>
    <use xlink:href="#DejaVuSans-73" x="734.126953"/>
    <use xlink:href="#DejaVuSans-70" x="786.226562"/>
    <use xlink:href="#DejaVuSans-65" x="849.703125"/>
    <use xlink:href="#DejaVuSans-63" x="911.226562"/>
    <use xlink:href="#DejaVuSans-74" x="966.207031"/>
    <use xlink:href="#DejaVuSans-72" x="1005.416016"/>
    <use xlink:href="#DejaVuSans-6f" x="1044.279297"/>
    <use xlink:href="#DejaVuSans-73" x="1105.460938"/>
    <use xlink:href="#DejaVuSans-63" x="1157.560547"/>
    <use xlink:href="#DejaVuSans-6f" x="1212.541016"/>
    <use xlink:href="#DejaVuSans-70" x="1273.722656"/>
    <use xlink:href="#DejaVuSans-79" x="1337.199219"/>
   </g>
   <!-- tuid: 20231227-160748-746-00f65d -->
   <g transform="translate(115.25375 29.7555) scale(0.12 -0.12)">
    <defs>
     <path id="DejaVuSans-69" d="M 603 3500 
L 1178 3500 
L 1178 0 
L 603 0 
L 603 3500 
z
M 603 4863 
L 1178 4863 
L 1178 4134 
L 603 4134 
L 603 4863 
z
" transform="scale(0.015625)"/>
     <path id="DejaVuSans-66" d="M 2375 4863 
L 2375 4384 
L 1825 4384 
Q 1516 4384 1395 4259 
Q 1275 4134 1275 3809 
L 1275 3500 
L 2222 3500 
L 2222 3053 
L 1275 3053 
L 1275 0 
L 697 0 
L 697 3053 
L 147 3053 
L 147 3500 
L 697 3500 
L 697 3744 
Q 697 4328 969 4595 
Q 1241 4863 1831 4863 
L 2375 4863 
z
" transform="scale(0.015625)"/>
    </defs>
    <use xlink:href="#DejaVuSans-74"/>
    <use xlink:href="#DejaVuSans-75" x="39.208984"/>
    <use xlink:href="#DejaVuSans-69" x="102.587891"/>
    <use xlink:href="#DejaVuSans-64" x="130.371094"/>
    <use xlink:href="#DejaVuSans-3a" x="193.847656"/>
    <use xlink:href="#DejaVuSans-20" x="227.539062"/>
    <use xlink:href="#DejaVuSans-32" x="259.326172"/>
    <use xlink:href="#DejaVuSans-30" x="322.949219"/>
    <use xlink:href="#DejaVuSans-32" x="386.572266"/>
    <use xlink:href="#DejaVuSans-33" x="450.195312"/>
    <use xlink:href="#DejaVuSans-31" x="513.818359"/>
    <use xlink:href="#DejaVuSans-32" x="577.441406"/>
    <use xlink:href="#DejaVuSans-32" x="641.064453"/>
    <use xlink:href="#DejaVuSans-37" x="704.6875"/>
    <use xlink:href="#DejaVuSans-2d" x="768.310547"/>
    <use xlink:href="#DejaVuSans-31" x="804.394531"/>
    <use xlink:href="#DejaVuSans-36" x="868.017578"/>
    <use xlink:href="#DejaVuSans-30" x="931.640625"/>
    <use xlink:href="#DejaVuSans-37" x="995.263672"/>
    <use xlink:href="#DejaVuSans-34" x="1058.886719"/>
    <use xlink:href="#DejaVuSans-38" x="1122.509766"/>
    <use xlink:href="#DejaVuSans-2d" x="1186.132812"/>
    <use xlink:href="#DejaVuSans-37" x="1222.216797"/>
    <use xlink:href="#DejaVuSans-34" x="1285.839844"/>
    <use xlink:href="#DejaVuSans-36" x="1349.462891"/>
    <use xlink:href="#DejaVuSans-2d" x="1413.085938"/>
    <use xlink:href="#DejaVuSans-30" x="1449.169922"/>
    <use xlink:href="#DejaVuSans-30" x="1512.792969"/>
    <use xlink:href="#DejaVuSans-66" x="1576.416016"/>
    <use xlink:href="#DejaVuSans-36" x="1611.621094"/>
    <use xlink:href="#DejaVuSans-35" x="1675.244141"/>
    <use xlink:href="#DejaVuSans-64" x="1738.867188"/>
   </g>
  </g>
 </g>
 <defs>
  <clipPath id="pe9b3368102">
   <rect x="50.595313" y="41.76" width="357.12" height="120.96"/>
  </clipPath>
  <clipPath id="p44a2a07d0a">
   <rect x="50.595313" y="186.912" width="357.12" height="120.96"/>
  </clipPath>
 </defs>
</svg>
