<?xml version="1.0" encoding="utf-8" standalone="no"?>
<!DOCTYPE svg PUBLIC "-//W3C//DTD SVG 1.1//EN"
  "http://www.w3.org/Graphics/SVG/1.1/DTD/svg11.dtd">
<svg xmlns:xlink="http://www.w3.org/1999/xlink" width="578.271312pt" height="345.42825pt" viewBox="0 0 578.271312 345.42825" xmlns="http://www.w3.org/2000/svg" version="1.1">
 <metadata>
  <rdf:RDF xmlns:dc="http://purl.org/dc/elements/1.1/" xmlns:cc="http://creativecommons.org/ns#" xmlns:rdf="http://www.w3.org/1999/02/22-rdf-syntax-ns#">
   <cc:Work>
    <dc:type rdf:resource="http://purl.org/dc/dcmitype/StillImage"/>
    <dc:date>2023-12-27T19:34:12.860453</dc:date>
    <dc:format>image/svg+xml</dc:format>
    <dc:creator>
     <cc:Agent>
      <dc:title>Matplotlib v3.8.2, https://matplotlib.org/</dc:title>
     </cc:Agent>
    </dc:creator>
   </cc:Work>
  </rdf:RDF>
 </metadata>
 <defs>
  <style type="text/css">*{stroke-linejoin: round; stroke-linecap: butt}</style>
 </defs>
 <g id="figure_1">
  <g id="patch_1">
   <path d="M 0 345.42825 
L 578.271312 345.42825 
L 578.271312 -0 
L 0 -0 
L 0 345.42825 
z
" style="fill: none; opacity: 0"/>
  </g>
  <g id="axes_1">
   <g id="patch_2">
    <path d="M 50.595313 162.72 
L 407.715312 162.72 
L 407.715312 41.76 
L 50.595313 41.76 
z
" style="fill: #ffffff"/>
   </g>
   <g id="matplotlib.axis_1">
    <g id="xtick_1">
     <g id="line2d_1">
      <defs>
       <path id="md6dd69389b" d="M 0 0 
L 0 3.5 
" style="stroke: #000000; stroke-width: 0.8"/>
      </defs>
      <g>
       <use xlink:href="#md6dd69389b" x="74.944403" y="162.72" style="stroke: #000000; stroke-width: 0.8"/>
      </g>
     </g>
    </g>
    <g id="xtick_2">
     <g id="line2d_2">
      <g>
       <use xlink:href="#md6dd69389b" x="139.875312" y="162.72" style="stroke: #000000; stroke-width: 0.8"/>
      </g>
     </g>
    </g>
    <g id="xtick_3">
     <g id="line2d_3">
      <g>
       <use xlink:href="#md6dd69389b" x="204.806222" y="162.72" style="stroke: #000000; stroke-width: 0.8"/>
      </g>
     </g>
    </g>
    <g id="xtick_4">
     <g id="line2d_4">
      <g>
       <use xlink:href="#md6dd69389b" x="269.737131" y="162.72" style="stroke: #000000; stroke-width: 0.8"/>
      </g>
     </g>
    </g>
    <g id="xtick_5">
     <g id="line2d_5">
      <g>
       <use xlink:href="#md6dd69389b" x="334.66804" y="162.72" style="stroke: #000000; stroke-width: 0.8"/>
      </g>
     </g>
    </g>
    <g id="xtick_6">
     <g id="line2d_6">
      <g>
       <use xlink:href="#md6dd69389b" x="399.598949" y="162.72" style="stroke: #000000; stroke-width: 0.8"/>
      </g>
     </g>
    </g>
   </g>
   <g id="matplotlib.axis_2">
    <g id="ytick_1">
     <g id="line2d_7">
      <defs>
       <path id="m77cabd4360" d="M 0 0 
L -3.5 0 
" style="stroke: #000000; stroke-width: 0.8"/>
      </defs>
      <g>
       <use xlink:href="#m77cabd4360" x="50.595313" y="144.109819" style="stroke: #000000; stroke-width: 0.8"/>
      </g>
     </g>
     <g id="text_1">
      <!-- 2 -->
      <g transform="translate(37.232813 147.909038) scale(0.1 -0.1)">
       <defs>
        <path id="DejaVuSans-32" d="M 1228 531 
L 3431 531 
L 3431 0 
L 469 0 
L 469 531 
Q 828 903 1448 1529 
Q 2069 2156 2228 2338 
Q 2531 2678 2651 2914 
Q 2772 3150 2772 3378 
Q 2772 3750 2511 3984 
Q 2250 4219 1831 4219 
Q 1534 4219 1204 4116 
Q 875 4013 500 3803 
L 500 4441 
Q 881 4594 1212 4672 
Q 1544 4750 1819 4750 
Q 2544 4750 2975 4387 
Q 3406 4025 3406 3419 
Q 3406 3131 3298 2873 
Q 3191 2616 2906 2266 
Q 2828 2175 2409 1742 
Q 1991 1309 1228 531 
z
" transform="scale(0.015625)"/>
       </defs>
       <use xlink:href="#DejaVuSans-32"/>
      </g>
     </g>
    </g>
    <g id="ytick_2">
     <g id="line2d_8">
      <g>
       <use xlink:href="#m77cabd4360" x="50.595313" y="120.929958" style="stroke: #000000; stroke-width: 0.8"/>
      </g>
     </g>
     <g id="text_2">
      <!-- 4 -->
      <g transform="translate(37.232813 124.729177) scale(0.1 -0.1)">
       <defs>
        <path id="DejaVuSans-34" d="M 2419 4116 
L 825 1625 
L 2419 1625 
L 2419 4116 
z
M 2253 4666 
L 3047 4666 
L 3047 1625 
L 3713 1625 
L 3713 1100 
L 3047 1100 
L 3047 0 
L 2419 0 
L 2419 1100 
L 313 1100 
L 313 1709 
L 2253 4666 
z
" transform="scale(0.015625)"/>
       </defs>
       <use xlink:href="#DejaVuSans-34"/>
      </g>
     </g>
    </g>
    <g id="ytick_3">
     <g id="line2d_9">
      <g>
       <use xlink:href="#m77cabd4360" x="50.595313" y="97.750098" style="stroke: #000000; stroke-width: 0.8"/>
      </g>
     </g>
     <g id="text_3">
      <!-- 6 -->
      <g transform="translate(37.232813 101.549316) scale(0.1 -0.1)">
       <defs>
        <path id="DejaVuSans-36" d="M 2113 2584 
Q 1688 2584 1439 2293 
Q 1191 2003 1191 1497 
Q 1191 994 1439 701 
Q 1688 409 2113 409 
Q 2538 409 2786 701 
Q 3034 994 3034 1497 
Q 3034 2003 2786 2293 
Q 2538 2584 2113 2584 
z
M 3366 4563 
L 3366 3988 
Q 3128 4100 2886 4159 
Q 2644 4219 2406 4219 
Q 1781 4219 1451 3797 
Q 1122 3375 1075 2522 
Q 1259 2794 1537 2939 
Q 1816 3084 2150 3084 
Q 2853 3084 3261 2657 
Q 3669 2231 3669 1497 
Q 3669 778 3244 343 
Q 2819 -91 2113 -91 
Q 1303 -91 875 529 
Q 447 1150 447 2328 
Q 447 3434 972 4092 
Q 1497 4750 2381 4750 
Q 2619 4750 2861 4703 
Q 3103 4656 3366 4563 
z
" transform="scale(0.015625)"/>
       </defs>
       <use xlink:href="#DejaVuSans-36"/>
      </g>
     </g>
    </g>
    <g id="ytick_4">
     <g id="line2d_10">
      <g>
       <use xlink:href="#m77cabd4360" x="50.595313" y="74.570237" style="stroke: #000000; stroke-width: 0.8"/>
      </g>
     </g>
     <g id="text_4">
      <!-- 8 -->
      <g transform="translate(37.232813 78.369456) scale(0.1 -0.1)">
       <defs>
        <path id="DejaVuSans-38" d="M 2034 2216 
Q 1584 2216 1326 1975 
Q 1069 1734 1069 1313 
Q 1069 891 1326 650 
Q 1584 409 2034 409 
Q 2484 409 2743 651 
Q 3003 894 3003 1313 
Q 3003 1734 2745 1975 
Q 2488 2216 2034 2216 
z
M 1403 2484 
Q 997 2584 770 2862 
Q 544 3141 544 3541 
Q 544 4100 942 4425 
Q 1341 4750 2034 4750 
Q 2731 4750 3128 4425 
Q 3525 4100 3525 3541 
Q 3525 3141 3298 2862 
Q 3072 2584 2669 2484 
Q 3125 2378 3379 2068 
Q 3634 1759 3634 1313 
Q 3634 634 3220 271 
Q 2806 -91 2034 -91 
Q 1263 -91 848 271 
Q 434 634 434 1313 
Q 434 1759 690 2068 
Q 947 2378 1403 2484 
z
M 1172 3481 
Q 1172 3119 1398 2916 
Q 1625 2713 2034 2713 
Q 2441 2713 2670 2916 
Q 2900 3119 2900 3481 
Q 2900 3844 2670 4047 
Q 2441 4250 2034 4250 
Q 1625 4250 1398 4047 
Q 1172 3844 1172 3481 
z
" transform="scale(0.015625)"/>
       </defs>
       <use xlink:href="#DejaVuSans-38"/>
      </g>
     </g>
    </g>
    <g id="ytick_5">
     <g id="line2d_11">
      <g>
       <use xlink:href="#m77cabd4360" x="50.595313" y="51.390376" style="stroke: #000000; stroke-width: 0.8"/>
      </g>
     </g>
     <g id="text_5">
      <!-- 10 -->
      <g transform="translate(30.870313 55.189595) scale(0.1 -0.1)">
       <defs>
        <path id="DejaVuSans-31" d="M 794 531 
L 1825 531 
L 1825 4091 
L 703 3866 
L 703 4441 
L 1819 4666 
L 2450 4666 
L 2450 531 
L 3481 531 
L 3481 0 
L 794 0 
L 794 531 
z
" transform="scale(0.015625)"/>
        <path id="DejaVuSans-30" d="M 2034 4250 
Q 1547 4250 1301 3770 
Q 1056 3291 1056 2328 
Q 1056 1369 1301 889 
Q 1547 409 2034 409 
Q 2525 409 2770 889 
Q 3016 1369 3016 2328 
Q 3016 3291 2770 3770 
Q 2525 4250 2034 4250 
z
M 2034 4750 
Q 2819 4750 3233 4129 
Q 3647 3509 3647 2328 
Q 3647 1150 3233 529 
Q 2819 -91 2034 -91 
Q 1250 -91 836 529 
Q 422 1150 422 2328 
Q 422 3509 836 4129 
Q 1250 4750 2034 4750 
z
" transform="scale(0.015625)"/>
       </defs>
       <use xlink:href="#DejaVuSans-31"/>
       <use xlink:href="#DejaVuSans-30" x="63.623047"/>
      </g>
     </g>
    </g>
    <g id="text_6">
     <!-- $|S_{21}|$ [mV] -->
     <g transform="translate(24.470313 127.19) rotate(-90) scale(0.1 -0.1)">
      <defs>
       <path id="DejaVuSans-7c" d="M 1344 4891 
L 1344 -1509 
L 813 -1509 
L 813 4891 
L 1344 4891 
z
" transform="scale(0.015625)"/>
       <path id="DejaVuSans-Oblique-53" d="M 3859 4513 
L 3738 3897 
Q 3422 4066 3111 4152 
Q 2800 4238 2509 4238 
Q 1944 4238 1609 3991 
Q 1275 3744 1275 3334 
Q 1275 3109 1398 2989 
Q 1522 2869 2034 2731 
L 2413 2638 
Q 3053 2472 3303 2217 
Q 3553 1963 3553 1503 
Q 3553 797 2998 353 
Q 2444 -91 1538 -91 
Q 1166 -91 791 -17 
Q 416 56 38 206 
L 166 856 
Q 513 641 861 531 
Q 1209 422 1556 422 
Q 2147 422 2503 684 
Q 2859 947 2859 1369 
Q 2859 1650 2717 1795 
Q 2575 1941 2106 2059 
L 1728 2156 
Q 1081 2325 845 2545 
Q 609 2766 609 3163 
Q 609 3859 1145 4304 
Q 1681 4750 2541 4750 
Q 2875 4750 3203 4690 
Q 3531 4631 3859 4513 
z
" transform="scale(0.015625)"/>
       <path id="DejaVuSans-20" transform="scale(0.015625)"/>
       <path id="DejaVuSans-5b" d="M 550 4863 
L 1875 4863 
L 1875 4416 
L 1125 4416 
L 1125 -397 
L 1875 -397 
L 1875 -844 
L 550 -844 
L 550 4863 
z
" transform="scale(0.015625)"/>
       <path id="DejaVuSans-6d" d="M 3328 2828 
Q 3544 3216 3844 3400 
Q 4144 3584 4550 3584 
Q 5097 3584 5394 3201 
Q 5691 2819 5691 2113 
L 5691 0 
L 5113 0 
L 5113 2094 
Q 5113 2597 4934 2840 
Q 4756 3084 4391 3084 
Q 3944 3084 3684 2787 
Q 3425 2491 3425 1978 
L 3425 0 
L 2847 0 
L 2847 2094 
Q 2847 2600 2669 2842 
Q 2491 3084 2119 3084 
Q 1678 3084 1418 2786 
Q 1159 2488 1159 1978 
L 1159 0 
L 581 0 
L 581 3500 
L 1159 3500 
L 1159 2956 
Q 1356 3278 1631 3431 
Q 1906 3584 2284 3584 
Q 2666 3584 2933 3390 
Q 3200 3197 3328 2828 
z
" transform="scale(0.015625)"/>
       <path id="DejaVuSans-56" d="M 1831 0 
L 50 4666 
L 709 4666 
L 2188 738 
L 3669 4666 
L 4325 4666 
L 2547 0 
L 1831 0 
z
" transform="scale(0.015625)"/>
       <path id="DejaVuSans-5d" d="M 1947 4863 
L 1947 -844 
L 622 -844 
L 622 -397 
L 1369 -397 
L 1369 4416 
L 622 4416 
L 622 4863 
L 1947 4863 
z
" transform="scale(0.015625)"/>
      </defs>
      <use xlink:href="#DejaVuSans-7c" transform="translate(0 0.578125)"/>
      <use xlink:href="#DejaVuSans-Oblique-53" transform="translate(33.691406 0.578125)"/>
      <use xlink:href="#DejaVuSans-32" transform="translate(97.167969 -15.828125) scale(0.7)"/>
      <use xlink:href="#DejaVuSans-31" transform="translate(141.704102 -15.828125) scale(0.7)"/>
      <use xlink:href="#DejaVuSans-7c" transform="translate(188.974609 0.578125)"/>
      <use xlink:href="#DejaVuSans-20" transform="translate(222.666016 0.578125)"/>
      <use xlink:href="#DejaVuSans-5b" transform="translate(254.453125 0.578125)"/>
      <use xlink:href="#DejaVuSans-6d" transform="translate(293.466797 0.578125)"/>
      <use xlink:href="#DejaVuSans-56" transform="translate(390.878906 0.578125)"/>
      <use xlink:href="#DejaVuSans-5d" transform="translate(459.287109 0.578125)"/>
     </g>
    </g>
   </g>
   <g id="line2d_12">
    <path d="M 66.82804 60.086538 
L 70.0909 59.907428 
L 71.722329 60.345552 
L 73.353759 59.776687 
L 74.985189 59.994211 
L 78.248049 59.214741 
L 79.879479 58.41743 
L 81.510909 59.059378 
L 83.142339 58.594097 
L 84.773768 58.402871 
L 86.405198 57.901402 
L 88.036628 56.594887 
L 89.668058 57.875536 
L 91.299488 56.950309 
L 92.930918 56.377228 
L 94.562348 57.841138 
L 96.193778 55.280939 
L 97.825207 56.224137 
L 101.088067 55.256014 
L 102.719497 54.64633 
L 104.350927 55.534952 
L 105.982357 54.283977 
L 107.613787 54.513753 
L 109.245217 53.000056 
L 110.876646 53.550434 
L 112.508076 53.978537 
L 114.139506 52.292516 
L 115.770936 51.186362 
L 117.402366 51.645436 
L 119.033796 51.910943 
L 120.665226 51.013025 
L 123.928085 52.12145 
L 125.559515 49.69149 
L 127.190945 50.258227 
L 128.822375 49.783446 
L 130.453805 50.043755 
L 132.085235 49.378138 
L 133.716665 49.583862 
L 135.348095 48.286103 
L 136.979524 47.883572 
L 138.610954 48.632698 
L 141.873814 47.913478 
L 143.505244 47.258182 
L 145.136674 47.289383 
L 146.768104 47.58004 
L 148.399534 47.375704 
L 150.030963 49.684041 
L 151.662393 50.552525 
L 153.293823 50.614086 
L 154.925253 48.828149 
L 156.556683 47.652911 
L 158.188113 50.374217 
L 159.819543 51.100823 
L 161.450973 55.068295 
L 163.082402 52.278859 
L 164.713832 53.882665 
L 166.345262 55.160068 
L 169.608122 57.195967 
L 171.239552 59.850994 
L 174.502412 64.485924 
L 176.133842 64.602433 
L 177.765271 68.460741 
L 179.396701 70.061152 
L 181.028131 70.614857 
L 182.659561 76.172161 
L 184.290991 80.246869 
L 185.922421 83.915944 
L 187.553851 86.05397 
L 189.185281 90.167381 
L 190.81671 94.720454 
L 192.44814 99.72027 
L 195.711 107.135267 
L 197.34243 110.099835 
L 198.97386 113.779481 
L 200.60529 119.943985 
L 205.499579 131.97287 
L 207.131009 135.559029 
L 208.762439 139.669216 
L 210.393869 143.44093 
L 212.025299 146.653126 
L 213.656729 151.308191 
L 215.288159 153.966515 
L 216.919588 155.952212 
L 218.551018 156.666029 
L 220.182448 157.141482 
L 221.813878 155.567153 
L 223.445308 155.809789 
L 225.076738 151.414881 
L 228.339598 148.047445 
L 229.971027 147.05896 
L 231.602457 143.970877 
L 233.233887 142.788833 
L 234.865317 141.810206 
L 236.496747 138.981496 
L 238.128177 135.727591 
L 239.759607 135.531302 
L 241.391037 133.318581 
L 243.022466 130.787706 
L 246.285326 126.90877 
L 247.916756 125.96089 
L 249.548186 124.311423 
L 251.179616 122.262729 
L 252.811046 121.672174 
L 254.442476 121.248624 
L 256.073905 120.304319 
L 257.705335 118.517784 
L 259.336765 117.943876 
L 260.968195 115.682626 
L 262.599625 115.790978 
L 264.231055 114.903357 
L 265.862485 113.386803 
L 267.493915 112.348093 
L 269.125344 113.065178 
L 270.756774 109.372791 
L 272.388204 108.991789 
L 274.019634 110.011845 
L 275.651064 109.510594 
L 277.282494 108.469595 
L 278.913924 106.350415 
L 280.545354 106.844085 
L 282.176783 105.926873 
L 283.808213 104.448147 
L 285.439643 103.193691 
L 287.071073 103.417272 
L 288.702503 102.865907 
L 290.333933 101.625609 
L 291.965363 102.086344 
L 293.596793 102.06513 
L 295.228223 101.69898 
L 296.859652 100.76691 
L 298.491082 99.550174 
L 300.122512 99.899329 
L 301.753942 98.351352 
L 303.385372 99.59849 
L 305.016802 98.285727 
L 306.648232 97.977253 
L 308.279662 96.575998 
L 309.911091 97.753127 
L 311.542521 96.060124 
L 313.173951 94.999276 
L 314.805381 96.550923 
L 316.436811 95.19592 
L 318.068241 95.383163 
L 319.699671 94.727403 
L 321.331101 94.75511 
L 322.96253 93.324559 
L 326.22539 93.852594 
L 327.85682 93.379971 
L 329.48825 93.830533 
L 331.11968 93.508912 
L 332.75111 90.580528 
L 334.38254 92.655953 
L 336.013969 90.768936 
L 337.645399 91.365247 
L 339.276829 89.973269 
L 340.908259 90.442175 
L 342.539689 89.706712 
L 344.171119 91.846503 
L 345.802549 89.941915 
L 347.433979 89.871146 
L 349.065408 90.112302 
L 350.696838 89.662101 
L 352.328268 88.669477 
L 353.959698 89.472786 
L 355.591128 89.086211 
L 357.222558 87.97023 
L 358.853988 87.561418 
L 360.485418 87.860436 
L 362.116847 88.420387 
L 363.748277 87.10663 
L 367.011137 86.435818 
L 368.642567 86.323888 
L 370.273997 87.642213 
L 371.905427 87.249304 
L 373.536857 85.620448 
L 375.168286 85.084813 
L 376.799716 87.247219 
L 378.431146 85.542436 
L 380.062576 85.569421 
L 381.694006 85.296871 
L 383.325436 84.893638 
L 384.956866 85.40232 
L 386.588296 84.479921 
L 388.219725 84.496783 
L 389.851155 84.9512 
L 391.482585 85.066952 
L 391.482585 85.066952 
" clip-path="url(#pfd8991ee9f)" style="fill: none; stroke: #1f77b4; stroke-width: 1.5; stroke-linecap: square"/>
    <defs>
     <path id="mce69704fba" d="M 0 1.5 
C 0.397805 1.5 0.77937 1.341951 1.06066 1.06066 
C 1.341951 0.77937 1.5 0.397805 1.5 0 
C 1.5 -0.397805 1.341951 -0.77937 1.06066 -1.06066 
C 0.77937 -1.341951 0.397805 -1.5 0 -1.5 
C -0.397805 -1.5 -0.77937 -1.341951 -1.06066 -1.06066 
C -1.341951 -0.77937 -1.5 -0.397805 -1.5 0 
C -1.5 0.397805 -1.341951 0.77937 -1.06066 1.06066 
C -0.77937 1.341951 -0.397805 1.5 0 1.5 
z
" style="stroke: #1f77b4"/>
    </defs>
    <g clip-path="url(#pfd8991ee9f)">
     <use xlink:href="#mce69704fba" x="66.82804" y="60.086538" style="fill: #1f77b4; stroke: #1f77b4"/>
     <use xlink:href="#mce69704fba" x="68.45947" y="59.977832" style="fill: #1f77b4; stroke: #1f77b4"/>
     <use xlink:href="#mce69704fba" x="70.0909" y="59.907428" style="fill: #1f77b4; stroke: #1f77b4"/>
     <use xlink:href="#mce69704fba" x="71.722329" y="60.345552" style="fill: #1f77b4; stroke: #1f77b4"/>
     <use xlink:href="#mce69704fba" x="73.353759" y="59.776687" style="fill: #1f77b4; stroke: #1f77b4"/>
     <use xlink:href="#mce69704fba" x="74.985189" y="59.994211" style="fill: #1f77b4; stroke: #1f77b4"/>
     <use xlink:href="#mce69704fba" x="76.616619" y="59.63832" style="fill: #1f77b4; stroke: #1f77b4"/>
     <use xlink:href="#mce69704fba" x="78.248049" y="59.214741" style="fill: #1f77b4; stroke: #1f77b4"/>
     <use xlink:href="#mce69704fba" x="79.879479" y="58.41743" style="fill: #1f77b4; stroke: #1f77b4"/>
     <use xlink:href="#mce69704fba" x="81.510909" y="59.059378" style="fill: #1f77b4; stroke: #1f77b4"/>
     <use xlink:href="#mce69704fba" x="83.142339" y="58.594097" style="fill: #1f77b4; stroke: #1f77b4"/>
     <use xlink:href="#mce69704fba" x="84.773768" y="58.402871" style="fill: #1f77b4; stroke: #1f77b4"/>
     <use xlink:href="#mce69704fba" x="86.405198" y="57.901402" style="fill: #1f77b4; stroke: #1f77b4"/>
     <use xlink:href="#mce69704fba" x="88.036628" y="56.594887" style="fill: #1f77b4; stroke: #1f77b4"/>
     <use xlink:href="#mce69704fba" x="89.668058" y="57.875536" style="fill: #1f77b4; stroke: #1f77b4"/>
     <use xlink:href="#mce69704fba" x="91.299488" y="56.950309" style="fill: #1f77b4; stroke: #1f77b4"/>
     <use xlink:href="#mce69704fba" x="92.930918" y="56.377228" style="fill: #1f77b4; stroke: #1f77b4"/>
     <use xlink:href="#mce69704fba" x="94.562348" y="57.841138" style="fill: #1f77b4; stroke: #1f77b4"/>
     <use xlink:href="#mce69704fba" x="96.193778" y="55.280939" style="fill: #1f77b4; stroke: #1f77b4"/>
     <use xlink:href="#mce69704fba" x="97.825207" y="56.224137" style="fill: #1f77b4; stroke: #1f77b4"/>
     <use xlink:href="#mce69704fba" x="99.456637" y="55.76565" style="fill: #1f77b4; stroke: #1f77b4"/>
     <use xlink:href="#mce69704fba" x="101.088067" y="55.256014" style="fill: #1f77b4; stroke: #1f77b4"/>
     <use xlink:href="#mce69704fba" x="102.719497" y="54.64633" style="fill: #1f77b4; stroke: #1f77b4"/>
     <use xlink:href="#mce69704fba" x="104.350927" y="55.534952" style="fill: #1f77b4; stroke: #1f77b4"/>
     <use xlink:href="#mce69704fba" x="105.982357" y="54.283977" style="fill: #1f77b4; stroke: #1f77b4"/>
     <use xlink:href="#mce69704fba" x="107.613787" y="54.513753" style="fill: #1f77b4; stroke: #1f77b4"/>
     <use xlink:href="#mce69704fba" x="109.245217" y="53.000056" style="fill: #1f77b4; stroke: #1f77b4"/>
     <use xlink:href="#mce69704fba" x="110.876646" y="53.550434" style="fill: #1f77b4; stroke: #1f77b4"/>
     <use xlink:href="#mce69704fba" x="112.508076" y="53.978537" style="fill: #1f77b4; stroke: #1f77b4"/>
     <use xlink:href="#mce69704fba" x="114.139506" y="52.292516" style="fill: #1f77b4; stroke: #1f77b4"/>
     <use xlink:href="#mce69704fba" x="115.770936" y="51.186362" style="fill: #1f77b4; stroke: #1f77b4"/>
     <use xlink:href="#mce69704fba" x="117.402366" y="51.645436" style="fill: #1f77b4; stroke: #1f77b4"/>
     <use xlink:href="#mce69704fba" x="119.033796" y="51.910943" style="fill: #1f77b4; stroke: #1f77b4"/>
     <use xlink:href="#mce69704fba" x="120.665226" y="51.013025" style="fill: #1f77b4; stroke: #1f77b4"/>
     <use xlink:href="#mce69704fba" x="122.296656" y="51.582499" style="fill: #1f77b4; stroke: #1f77b4"/>
     <use xlink:href="#mce69704fba" x="123.928085" y="52.12145" style="fill: #1f77b4; stroke: #1f77b4"/>
     <use xlink:href="#mce69704fba" x="125.559515" y="49.69149" style="fill: #1f77b4; stroke: #1f77b4"/>
     <use xlink:href="#mce69704fba" x="127.190945" y="50.258227" style="fill: #1f77b4; stroke: #1f77b4"/>
     <use xlink:href="#mce69704fba" x="128.822375" y="49.783446" style="fill: #1f77b4; stroke: #1f77b4"/>
     <use xlink:href="#mce69704fba" x="130.453805" y="50.043755" style="fill: #1f77b4; stroke: #1f77b4"/>
     <use xlink:href="#mce69704fba" x="132.085235" y="49.378138" style="fill: #1f77b4; stroke: #1f77b4"/>
     <use xlink:href="#mce69704fba" x="133.716665" y="49.583862" style="fill: #1f77b4; stroke: #1f77b4"/>
     <use xlink:href="#mce69704fba" x="135.348095" y="48.286103" style="fill: #1f77b4; stroke: #1f77b4"/>
     <use xlink:href="#mce69704fba" x="136.979524" y="47.883572" style="fill: #1f77b4; stroke: #1f77b4"/>
     <use xlink:href="#mce69704fba" x="138.610954" y="48.632698" style="fill: #1f77b4; stroke: #1f77b4"/>
     <use xlink:href="#mce69704fba" x="140.242384" y="48.321601" style="fill: #1f77b4; stroke: #1f77b4"/>
     <use xlink:href="#mce69704fba" x="141.873814" y="47.913478" style="fill: #1f77b4; stroke: #1f77b4"/>
     <use xlink:href="#mce69704fba" x="143.505244" y="47.258182" style="fill: #1f77b4; stroke: #1f77b4"/>
     <use xlink:href="#mce69704fba" x="145.136674" y="47.289383" style="fill: #1f77b4; stroke: #1f77b4"/>
     <use xlink:href="#mce69704fba" x="146.768104" y="47.58004" style="fill: #1f77b4; stroke: #1f77b4"/>
     <use xlink:href="#mce69704fba" x="148.399534" y="47.375704" style="fill: #1f77b4; stroke: #1f77b4"/>
     <use xlink:href="#mce69704fba" x="150.030963" y="49.684041" style="fill: #1f77b4; stroke: #1f77b4"/>
     <use xlink:href="#mce69704fba" x="151.662393" y="50.552525" style="fill: #1f77b4; stroke: #1f77b4"/>
     <use xlink:href="#mce69704fba" x="153.293823" y="50.614086" style="fill: #1f77b4; stroke: #1f77b4"/>
     <use xlink:href="#mce69704fba" x="154.925253" y="48.828149" style="fill: #1f77b4; stroke: #1f77b4"/>
     <use xlink:href="#mce69704fba" x="156.556683" y="47.652911" style="fill: #1f77b4; stroke: #1f77b4"/>
     <use xlink:href="#mce69704fba" x="158.188113" y="50.374217" style="fill: #1f77b4; stroke: #1f77b4"/>
     <use xlink:href="#mce69704fba" x="159.819543" y="51.100823" style="fill: #1f77b4; stroke: #1f77b4"/>
     <use xlink:href="#mce69704fba" x="161.450973" y="55.068295" style="fill: #1f77b4; stroke: #1f77b4"/>
     <use xlink:href="#mce69704fba" x="163.082402" y="52.278859" style="fill: #1f77b4; stroke: #1f77b4"/>
     <use xlink:href="#mce69704fba" x="164.713832" y="53.882665" style="fill: #1f77b4; stroke: #1f77b4"/>
     <use xlink:href="#mce69704fba" x="166.345262" y="55.160068" style="fill: #1f77b4; stroke: #1f77b4"/>
     <use xlink:href="#mce69704fba" x="167.976692" y="56.184256" style="fill: #1f77b4; stroke: #1f77b4"/>
     <use xlink:href="#mce69704fba" x="169.608122" y="57.195967" style="fill: #1f77b4; stroke: #1f77b4"/>
     <use xlink:href="#mce69704fba" x="171.239552" y="59.850994" style="fill: #1f77b4; stroke: #1f77b4"/>
     <use xlink:href="#mce69704fba" x="172.870982" y="62.205935" style="fill: #1f77b4; stroke: #1f77b4"/>
     <use xlink:href="#mce69704fba" x="174.502412" y="64.485924" style="fill: #1f77b4; stroke: #1f77b4"/>
     <use xlink:href="#mce69704fba" x="176.133842" y="64.602433" style="fill: #1f77b4; stroke: #1f77b4"/>
     <use xlink:href="#mce69704fba" x="177.765271" y="68.460741" style="fill: #1f77b4; stroke: #1f77b4"/>
     <use xlink:href="#mce69704fba" x="179.396701" y="70.061152" style="fill: #1f77b4; stroke: #1f77b4"/>
     <use xlink:href="#mce69704fba" x="181.028131" y="70.614857" style="fill: #1f77b4; stroke: #1f77b4"/>
     <use xlink:href="#mce69704fba" x="182.659561" y="76.172161" style="fill: #1f77b4; stroke: #1f77b4"/>
     <use xlink:href="#mce69704fba" x="184.290991" y="80.246869" style="fill: #1f77b4; stroke: #1f77b4"/>
     <use xlink:href="#mce69704fba" x="185.922421" y="83.915944" style="fill: #1f77b4; stroke: #1f77b4"/>
     <use xlink:href="#mce69704fba" x="187.553851" y="86.05397" style="fill: #1f77b4; stroke: #1f77b4"/>
     <use xlink:href="#mce69704fba" x="189.185281" y="90.167381" style="fill: #1f77b4; stroke: #1f77b4"/>
     <use xlink:href="#mce69704fba" x="190.81671" y="94.720454" style="fill: #1f77b4; stroke: #1f77b4"/>
     <use xlink:href="#mce69704fba" x="192.44814" y="99.72027" style="fill: #1f77b4; stroke: #1f77b4"/>
     <use xlink:href="#mce69704fba" x="194.07957" y="103.376657" style="fill: #1f77b4; stroke: #1f77b4"/>
     <use xlink:href="#mce69704fba" x="195.711" y="107.135267" style="fill: #1f77b4; stroke: #1f77b4"/>
     <use xlink:href="#mce69704fba" x="197.34243" y="110.099835" style="fill: #1f77b4; stroke: #1f77b4"/>
     <use xlink:href="#mce69704fba" x="198.97386" y="113.779481" style="fill: #1f77b4; stroke: #1f77b4"/>
     <use xlink:href="#mce69704fba" x="200.60529" y="119.943985" style="fill: #1f77b4; stroke: #1f77b4"/>
     <use xlink:href="#mce69704fba" x="202.23672" y="123.981947" style="fill: #1f77b4; stroke: #1f77b4"/>
     <use xlink:href="#mce69704fba" x="203.868149" y="127.860331" style="fill: #1f77b4; stroke: #1f77b4"/>
     <use xlink:href="#mce69704fba" x="205.499579" y="131.97287" style="fill: #1f77b4; stroke: #1f77b4"/>
     <use xlink:href="#mce69704fba" x="207.131009" y="135.559029" style="fill: #1f77b4; stroke: #1f77b4"/>
     <use xlink:href="#mce69704fba" x="208.762439" y="139.669216" style="fill: #1f77b4; stroke: #1f77b4"/>
     <use xlink:href="#mce69704fba" x="210.393869" y="143.44093" style="fill: #1f77b4; stroke: #1f77b4"/>
     <use xlink:href="#mce69704fba" x="212.025299" y="146.653126" style="fill: #1f77b4; stroke: #1f77b4"/>
     <use xlink:href="#mce69704fba" x="213.656729" y="151.308191" style="fill: #1f77b4; stroke: #1f77b4"/>
     <use xlink:href="#mce69704fba" x="215.288159" y="153.966515" style="fill: #1f77b4; stroke: #1f77b4"/>
     <use xlink:href="#mce69704fba" x="216.919588" y="155.952212" style="fill: #1f77b4; stroke: #1f77b4"/>
     <use xlink:href="#mce69704fba" x="218.551018" y="156.666029" style="fill: #1f77b4; stroke: #1f77b4"/>
     <use xlink:href="#mce69704fba" x="220.182448" y="157.141482" style="fill: #1f77b4; stroke: #1f77b4"/>
     <use xlink:href="#mce69704fba" x="221.813878" y="155.567153" style="fill: #1f77b4; stroke: #1f77b4"/>
     <use xlink:href="#mce69704fba" x="223.445308" y="155.809789" style="fill: #1f77b4; stroke: #1f77b4"/>
     <use xlink:href="#mce69704fba" x="225.076738" y="151.414881" style="fill: #1f77b4; stroke: #1f77b4"/>
     <use xlink:href="#mce69704fba" x="226.708168" y="149.808948" style="fill: #1f77b4; stroke: #1f77b4"/>
     <use xlink:href="#mce69704fba" x="228.339598" y="148.047445" style="fill: #1f77b4; stroke: #1f77b4"/>
     <use xlink:href="#mce69704fba" x="229.971027" y="147.05896" style="fill: #1f77b4; stroke: #1f77b4"/>
     <use xlink:href="#mce69704fba" x="231.602457" y="143.970877" style="fill: #1f77b4; stroke: #1f77b4"/>
     <use xlink:href="#mce69704fba" x="233.233887" y="142.788833" style="fill: #1f77b4; stroke: #1f77b4"/>
     <use xlink:href="#mce69704fba" x="234.865317" y="141.810206" style="fill: #1f77b4; stroke: #1f77b4"/>
     <use xlink:href="#mce69704fba" x="236.496747" y="138.981496" style="fill: #1f77b4; stroke: #1f77b4"/>
     <use xlink:href="#mce69704fba" x="238.128177" y="135.727591" style="fill: #1f77b4; stroke: #1f77b4"/>
     <use xlink:href="#mce69704fba" x="239.759607" y="135.531302" style="fill: #1f77b4; stroke: #1f77b4"/>
     <use xlink:href="#mce69704fba" x="241.391037" y="133.318581" style="fill: #1f77b4; stroke: #1f77b4"/>
     <use xlink:href="#mce69704fba" x="243.022466" y="130.787706" style="fill: #1f77b4; stroke: #1f77b4"/>
     <use xlink:href="#mce69704fba" x="244.653896" y="128.783092" style="fill: #1f77b4; stroke: #1f77b4"/>
     <use xlink:href="#mce69704fba" x="246.285326" y="126.90877" style="fill: #1f77b4; stroke: #1f77b4"/>
     <use xlink:href="#mce69704fba" x="247.916756" y="125.96089" style="fill: #1f77b4; stroke: #1f77b4"/>
     <use xlink:href="#mce69704fba" x="249.548186" y="124.311423" style="fill: #1f77b4; stroke: #1f77b4"/>
     <use xlink:href="#mce69704fba" x="251.179616" y="122.262729" style="fill: #1f77b4; stroke: #1f77b4"/>
     <use xlink:href="#mce69704fba" x="252.811046" y="121.672174" style="fill: #1f77b4; stroke: #1f77b4"/>
     <use xlink:href="#mce69704fba" x="254.442476" y="121.248624" style="fill: #1f77b4; stroke: #1f77b4"/>
     <use xlink:href="#mce69704fba" x="256.073905" y="120.304319" style="fill: #1f77b4; stroke: #1f77b4"/>
     <use xlink:href="#mce69704fba" x="257.705335" y="118.517784" style="fill: #1f77b4; stroke: #1f77b4"/>
     <use xlink:href="#mce69704fba" x="259.336765" y="117.943876" style="fill: #1f77b4; stroke: #1f77b4"/>
     <use xlink:href="#mce69704fba" x="260.968195" y="115.682626" style="fill: #1f77b4; stroke: #1f77b4"/>
     <use xlink:href="#mce69704fba" x="262.599625" y="115.790978" style="fill: #1f77b4; stroke: #1f77b4"/>
     <use xlink:href="#mce69704fba" x="264.231055" y="114.903357" style="fill: #1f77b4; stroke: #1f77b4"/>
     <use xlink:href="#mce69704fba" x="265.862485" y="113.386803" style="fill: #1f77b4; stroke: #1f77b4"/>
     <use xlink:href="#mce69704fba" x="267.493915" y="112.348093" style="fill: #1f77b4; stroke: #1f77b4"/>
     <use xlink:href="#mce69704fba" x="269.125344" y="113.065178" style="fill: #1f77b4; stroke: #1f77b4"/>
     <use xlink:href="#mce69704fba" x="270.756774" y="109.372791" style="fill: #1f77b4; stroke: #1f77b4"/>
     <use xlink:href="#mce69704fba" x="272.388204" y="108.991789" style="fill: #1f77b4; stroke: #1f77b4"/>
     <use xlink:href="#mce69704fba" x="274.019634" y="110.011845" style="fill: #1f77b4; stroke: #1f77b4"/>
     <use xlink:href="#mce69704fba" x="275.651064" y="109.510594" style="fill: #1f77b4; stroke: #1f77b4"/>
     <use xlink:href="#mce69704fba" x="277.282494" y="108.469595" style="fill: #1f77b4; stroke: #1f77b4"/>
     <use xlink:href="#mce69704fba" x="278.913924" y="106.350415" style="fill: #1f77b4; stroke: #1f77b4"/>
     <use xlink:href="#mce69704fba" x="280.545354" y="106.844085" style="fill: #1f77b4; stroke: #1f77b4"/>
     <use xlink:href="#mce69704fba" x="282.176783" y="105.926873" style="fill: #1f77b4; stroke: #1f77b4"/>
     <use xlink:href="#mce69704fba" x="283.808213" y="104.448147" style="fill: #1f77b4; stroke: #1f77b4"/>
     <use xlink:href="#mce69704fba" x="285.439643" y="103.193691" style="fill: #1f77b4; stroke: #1f77b4"/>
     <use xlink:href="#mce69704fba" x="287.071073" y="103.417272" style="fill: #1f77b4; stroke: #1f77b4"/>
     <use xlink:href="#mce69704fba" x="288.702503" y="102.865907" style="fill: #1f77b4; stroke: #1f77b4"/>
     <use xlink:href="#mce69704fba" x="290.333933" y="101.625609" style="fill: #1f77b4; stroke: #1f77b4"/>
     <use xlink:href="#mce69704fba" x="291.965363" y="102.086344" style="fill: #1f77b4; stroke: #1f77b4"/>
     <use xlink:href="#mce69704fba" x="293.596793" y="102.06513" style="fill: #1f77b4; stroke: #1f77b4"/>
     <use xlink:href="#mce69704fba" x="295.228223" y="101.69898" style="fill: #1f77b4; stroke: #1f77b4"/>
     <use xlink:href="#mce69704fba" x="296.859652" y="100.76691" style="fill: #1f77b4; stroke: #1f77b4"/>
     <use xlink:href="#mce69704fba" x="298.491082" y="99.550174" style="fill: #1f77b4; stroke: #1f77b4"/>
     <use xlink:href="#mce69704fba" x="300.122512" y="99.899329" style="fill: #1f77b4; stroke: #1f77b4"/>
     <use xlink:href="#mce69704fba" x="301.753942" y="98.351352" style="fill: #1f77b4; stroke: #1f77b4"/>
     <use xlink:href="#mce69704fba" x="303.385372" y="99.59849" style="fill: #1f77b4; stroke: #1f77b4"/>
     <use xlink:href="#mce69704fba" x="305.016802" y="98.285727" style="fill: #1f77b4; stroke: #1f77b4"/>
     <use xlink:href="#mce69704fba" x="306.648232" y="97.977253" style="fill: #1f77b4; stroke: #1f77b4"/>
     <use xlink:href="#mce69704fba" x="308.279662" y="96.575998" style="fill: #1f77b4; stroke: #1f77b4"/>
     <use xlink:href="#mce69704fba" x="309.911091" y="97.753127" style="fill: #1f77b4; stroke: #1f77b4"/>
     <use xlink:href="#mce69704fba" x="311.542521" y="96.060124" style="fill: #1f77b4; stroke: #1f77b4"/>
     <use xlink:href="#mce69704fba" x="313.173951" y="94.999276" style="fill: #1f77b4; stroke: #1f77b4"/>
     <use xlink:href="#mce69704fba" x="314.805381" y="96.550923" style="fill: #1f77b4; stroke: #1f77b4"/>
     <use xlink:href="#mce69704fba" x="316.436811" y="95.19592" style="fill: #1f77b4; stroke: #1f77b4"/>
     <use xlink:href="#mce69704fba" x="318.068241" y="95.383163" style="fill: #1f77b4; stroke: #1f77b4"/>
     <use xlink:href="#mce69704fba" x="319.699671" y="94.727403" style="fill: #1f77b4; stroke: #1f77b4"/>
     <use xlink:href="#mce69704fba" x="321.331101" y="94.75511" style="fill: #1f77b4; stroke: #1f77b4"/>
     <use xlink:href="#mce69704fba" x="322.96253" y="93.324559" style="fill: #1f77b4; stroke: #1f77b4"/>
     <use xlink:href="#mce69704fba" x="324.59396" y="93.53736" style="fill: #1f77b4; stroke: #1f77b4"/>
     <use xlink:href="#mce69704fba" x="326.22539" y="93.852594" style="fill: #1f77b4; stroke: #1f77b4"/>
     <use xlink:href="#mce69704fba" x="327.85682" y="93.379971" style="fill: #1f77b4; stroke: #1f77b4"/>
     <use xlink:href="#mce69704fba" x="329.48825" y="93.830533" style="fill: #1f77b4; stroke: #1f77b4"/>
     <use xlink:href="#mce69704fba" x="331.11968" y="93.508912" style="fill: #1f77b4; stroke: #1f77b4"/>
     <use xlink:href="#mce69704fba" x="332.75111" y="90.580528" style="fill: #1f77b4; stroke: #1f77b4"/>
     <use xlink:href="#mce69704fba" x="334.38254" y="92.655953" style="fill: #1f77b4; stroke: #1f77b4"/>
     <use xlink:href="#mce69704fba" x="336.013969" y="90.768936" style="fill: #1f77b4; stroke: #1f77b4"/>
     <use xlink:href="#mce69704fba" x="337.645399" y="91.365247" style="fill: #1f77b4; stroke: #1f77b4"/>
     <use xlink:href="#mce69704fba" x="339.276829" y="89.973269" style="fill: #1f77b4; stroke: #1f77b4"/>
     <use xlink:href="#mce69704fba" x="340.908259" y="90.442175" style="fill: #1f77b4; stroke: #1f77b4"/>
     <use xlink:href="#mce69704fba" x="342.539689" y="89.706712" style="fill: #1f77b4; stroke: #1f77b4"/>
     <use xlink:href="#mce69704fba" x="344.171119" y="91.846503" style="fill: #1f77b4; stroke: #1f77b4"/>
     <use xlink:href="#mce69704fba" x="345.802549" y="89.941915" style="fill: #1f77b4; stroke: #1f77b4"/>
     <use xlink:href="#mce69704fba" x="347.433979" y="89.871146" style="fill: #1f77b4; stroke: #1f77b4"/>
     <use xlink:href="#mce69704fba" x="349.065408" y="90.112302" style="fill: #1f77b4; stroke: #1f77b4"/>
     <use xlink:href="#mce69704fba" x="350.696838" y="89.662101" style="fill: #1f77b4; stroke: #1f77b4"/>
     <use xlink:href="#mce69704fba" x="352.328268" y="88.669477" style="fill: #1f77b4; stroke: #1f77b4"/>
     <use xlink:href="#mce69704fba" x="353.959698" y="89.472786" style="fill: #1f77b4; stroke: #1f77b4"/>
     <use xlink:href="#mce69704fba" x="355.591128" y="89.086211" style="fill: #1f77b4; stroke: #1f77b4"/>
     <use xlink:href="#mce69704fba" x="357.222558" y="87.97023" style="fill: #1f77b4; stroke: #1f77b4"/>
     <use xlink:href="#mce69704fba" x="358.853988" y="87.561418" style="fill: #1f77b4; stroke: #1f77b4"/>
     <use xlink:href="#mce69704fba" x="360.485418" y="87.860436" style="fill: #1f77b4; stroke: #1f77b4"/>
     <use xlink:href="#mce69704fba" x="362.116847" y="88.420387" style="fill: #1f77b4; stroke: #1f77b4"/>
     <use xlink:href="#mce69704fba" x="363.748277" y="87.10663" style="fill: #1f77b4; stroke: #1f77b4"/>
     <use xlink:href="#mce69704fba" x="365.379707" y="86.804419" style="fill: #1f77b4; stroke: #1f77b4"/>
     <use xlink:href="#mce69704fba" x="367.011137" y="86.435818" style="fill: #1f77b4; stroke: #1f77b4"/>
     <use xlink:href="#mce69704fba" x="368.642567" y="86.323888" style="fill: #1f77b4; stroke: #1f77b4"/>
     <use xlink:href="#mce69704fba" x="370.273997" y="87.642213" style="fill: #1f77b4; stroke: #1f77b4"/>
     <use xlink:href="#mce69704fba" x="371.905427" y="87.249304" style="fill: #1f77b4; stroke: #1f77b4"/>
     <use xlink:href="#mce69704fba" x="373.536857" y="85.620448" style="fill: #1f77b4; stroke: #1f77b4"/>
     <use xlink:href="#mce69704fba" x="375.168286" y="85.084813" style="fill: #1f77b4; stroke: #1f77b4"/>
     <use xlink:href="#mce69704fba" x="376.799716" y="87.247219" style="fill: #1f77b4; stroke: #1f77b4"/>
     <use xlink:href="#mce69704fba" x="378.431146" y="85.542436" style="fill: #1f77b4; stroke: #1f77b4"/>
     <use xlink:href="#mce69704fba" x="380.062576" y="85.569421" style="fill: #1f77b4; stroke: #1f77b4"/>
     <use xlink:href="#mce69704fba" x="381.694006" y="85.296871" style="fill: #1f77b4; stroke: #1f77b4"/>
     <use xlink:href="#mce69704fba" x="383.325436" y="84.893638" style="fill: #1f77b4; stroke: #1f77b4"/>
     <use xlink:href="#mce69704fba" x="384.956866" y="85.40232" style="fill: #1f77b4; stroke: #1f77b4"/>
     <use xlink:href="#mce69704fba" x="386.588296" y="84.479921" style="fill: #1f77b4; stroke: #1f77b4"/>
     <use xlink:href="#mce69704fba" x="388.219725" y="84.496783" style="fill: #1f77b4; stroke: #1f77b4"/>
     <use xlink:href="#mce69704fba" x="389.851155" y="84.9512" style="fill: #1f77b4; stroke: #1f77b4"/>
     <use xlink:href="#mce69704fba" x="391.482585" y="85.066952" style="fill: #1f77b4; stroke: #1f77b4"/>
    </g>
   </g>
   <g id="line2d_13">
    <path d="M 66.82804 57.465027 
L 83.077016 55.919449 
L 99.650972 54.114485 
L 134.098801 50.245246 
L 140.273412 49.862951 
L 145.148105 49.784887 
L 149.04786 49.934889 
L 152.622634 50.30025 
L 155.54745 50.80877 
L 158.472266 51.553291 
L 161.072102 52.45534 
L 163.346959 53.464392 
L 165.621815 54.711128 
L 167.896672 56.229116 
L 170.171529 58.053553 
L 172.121406 59.888305 
L 174.071283 61.996236 
L 176.02116 64.397538 
L 177.971037 67.109585 
L 180.245894 70.683742 
L 182.520751 74.709929 
L 184.795607 79.186338 
L 187.395444 84.830729 
L 190.320259 91.78992 
L 193.570055 100.140094 
L 198.119768 112.521637 
L 205.594297 132.927496 
L 208.844092 141.145566 
L 211.443928 147.128716 
L 213.393806 151.091122 
L 215.018703 153.877325 
L 216.318621 155.619404 
L 217.29356 156.549014 
L 217.943519 156.956336 
L 218.593478 157.180014 
L 219.243437 157.217545 
L 219.893396 157.076289 
L 220.868335 156.566149 
L 221.843273 155.766283 
L 223.143191 154.383673 
L 225.093068 151.923708 
L 235.817393 137.747719 
L 239.392168 133.643711 
L 242.641963 130.234103 
L 246.216738 126.814151 
L 249.791512 123.710526 
L 253.366287 120.891464 
L 257.266041 118.105269 
L 261.165796 115.586155 
L 265.39053 113.121822 
L 269.940243 110.73667 
L 274.814936 108.448865 
L 280.014608 106.270937 
L 285.53926 104.210546 
L 291.388892 102.271319 
L 297.563503 100.45367 
L 304.388073 98.675814 
L 311.862602 96.961943 
L 319.98709 95.328988 
L 329.086516 93.734437 
L 339.160882 92.204985 
L 350.210186 90.758319 
L 362.559408 89.370823 
L 376.533527 88.032896 
L 391.482585 86.817024 
L 391.482585 86.817024 
" clip-path="url(#pfd8991ee9f)" style="fill: none; stroke: #d62728; stroke-width: 1.5; stroke-linecap: square"/>
   </g>
   <g id="patch_3">
    <path d="M 50.595313 162.72 
L 50.595313 41.76 
" style="fill: none; stroke: #000000; stroke-width: 0.8; stroke-linejoin: miter; stroke-linecap: square"/>
   </g>
   <g id="patch_4">
    <path d="M 407.715312 162.72 
L 407.715312 41.76 
" style="fill: none; stroke: #000000; stroke-width: 0.8; stroke-linejoin: miter; stroke-linecap: square"/>
   </g>
   <g id="patch_5">
    <path d="M 50.595312 162.72 
L 407.715312 162.72 
" style="fill: none; stroke: #000000; stroke-width: 0.8; stroke-linejoin: miter; stroke-linecap: square"/>
   </g>
   <g id="patch_6">
    <path d="M 50.595312 41.76 
L 407.715312 41.76 
" style="fill: none; stroke: #000000; stroke-width: 0.8; stroke-linejoin: miter; stroke-linecap: square"/>
   </g>
   <g id="text_7">
    <g id="patch_7">
     <path d="M 425.571312 95.079562 
L 571.071312 95.079562 
Q 575.071312 95.079562 575.071312 91.079562 
L 575.071312 47.808 
Q 575.071312 43.808 571.071312 43.808 
L 425.571312 43.808 
Q 421.571312 43.808 421.571312 47.808 
L 421.571312 91.079562 
Q 421.571312 95.079562 425.571312 95.079562 
z
" style="fill: #ffffff; opacity: 0.5; stroke: #000000; stroke-linejoin: miter"/>
    </g>
    <!-- Summary -->
    <g transform="translate(425.571312 55.406437) scale(0.1 -0.1)">
     <defs>
      <path id="DejaVuSans-53" d="M 3425 4513 
L 3425 3897 
Q 3066 4069 2747 4153 
Q 2428 4238 2131 4238 
Q 1616 4238 1336 4038 
Q 1056 3838 1056 3469 
Q 1056 3159 1242 3001 
Q 1428 2844 1947 2747 
L 2328 2669 
Q 3034 2534 3370 2195 
Q 3706 1856 3706 1288 
Q 3706 609 3251 259 
Q 2797 -91 1919 -91 
Q 1588 -91 1214 -16 
Q 841 59 441 206 
L 441 856 
Q 825 641 1194 531 
Q 1563 422 1919 422 
Q 2459 422 2753 634 
Q 3047 847 3047 1241 
Q 3047 1584 2836 1778 
Q 2625 1972 2144 2069 
L 1759 2144 
Q 1053 2284 737 2584 
Q 422 2884 422 3419 
Q 422 4038 858 4394 
Q 1294 4750 2059 4750 
Q 2388 4750 2728 4690 
Q 3069 4631 3425 4513 
z
" transform="scale(0.015625)"/>
      <path id="DejaVuSans-75" d="M 544 1381 
L 544 3500 
L 1119 3500 
L 1119 1403 
Q 1119 906 1312 657 
Q 1506 409 1894 409 
Q 2359 409 2629 706 
Q 2900 1003 2900 1516 
L 2900 3500 
L 3475 3500 
L 3475 0 
L 2900 0 
L 2900 538 
Q 2691 219 2414 64 
Q 2138 -91 1772 -91 
Q 1169 -91 856 284 
Q 544 659 544 1381 
z
M 1991 3584 
L 1991 3584 
z
" transform="scale(0.015625)"/>
      <path id="DejaVuSans-61" d="M 2194 1759 
Q 1497 1759 1228 1600 
Q 959 1441 959 1056 
Q 959 750 1161 570 
Q 1363 391 1709 391 
Q 2188 391 2477 730 
Q 2766 1069 2766 1631 
L 2766 1759 
L 2194 1759 
z
M 3341 1997 
L 3341 0 
L 2766 0 
L 2766 531 
Q 2569 213 2275 61 
Q 1981 -91 1556 -91 
Q 1019 -91 701 211 
Q 384 513 384 1019 
Q 384 1609 779 1909 
Q 1175 2209 1959 2209 
L 2766 2209 
L 2766 2266 
Q 2766 2663 2505 2880 
Q 2244 3097 1772 3097 
Q 1472 3097 1187 3025 
Q 903 2953 641 2809 
L 641 3341 
Q 956 3463 1253 3523 
Q 1550 3584 1831 3584 
Q 2591 3584 2966 3190 
Q 3341 2797 3341 1997 
z
" transform="scale(0.015625)"/>
      <path id="DejaVuSans-72" d="M 2631 2963 
Q 2534 3019 2420 3045 
Q 2306 3072 2169 3072 
Q 1681 3072 1420 2755 
Q 1159 2438 1159 1844 
L 1159 0 
L 581 0 
L 581 3500 
L 1159 3500 
L 1159 2956 
Q 1341 3275 1631 3429 
Q 1922 3584 2338 3584 
Q 2397 3584 2469 3576 
Q 2541 3569 2628 3553 
L 2631 2963 
z
" transform="scale(0.015625)"/>
      <path id="DejaVuSans-79" d="M 2059 -325 
Q 1816 -950 1584 -1140 
Q 1353 -1331 966 -1331 
L 506 -1331 
L 506 -850 
L 844 -850 
Q 1081 -850 1212 -737 
Q 1344 -625 1503 -206 
L 1606 56 
L 191 3500 
L 800 3500 
L 1894 763 
L 2988 3500 
L 3597 3500 
L 2059 -325 
z
" transform="scale(0.015625)"/>
     </defs>
     <use xlink:href="#DejaVuSans-53"/>
     <use xlink:href="#DejaVuSans-75" x="63.476562"/>
     <use xlink:href="#DejaVuSans-6d" x="126.855469"/>
     <use xlink:href="#DejaVuSans-6d" x="224.267578"/>
     <use xlink:href="#DejaVuSans-61" x="321.679688"/>
     <use xlink:href="#DejaVuSans-72" x="382.958984"/>
     <use xlink:href="#DejaVuSans-79" x="424.072266"/>
    </g>
    <!-- $Q_I$: 19.80$\pm$0.47 k -->
    <g transform="translate(425.571312 66.60425) scale(0.1 -0.1)">
     <defs>
      <path id="DejaVuSans-Oblique-51" d="M 2309 -84 
Q 2275 -88 2237 -89 
Q 2200 -91 2125 -91 
Q 1250 -91 756 411 
Q 263 913 263 1797 
Q 263 2319 452 2844 
Q 641 3369 978 3788 
Q 1369 4269 1858 4509 
Q 2347 4750 2938 4750 
Q 3794 4750 4287 4245 
Q 4781 3741 4781 2869 
Q 4781 1928 4265 1147 
Q 3750 366 2919 44 
L 3553 -825 
L 2847 -825 
L 2309 -84 
z
M 2919 4238 
Q 2400 4238 2003 3986 
Q 1606 3734 1313 3219 
Q 1125 2891 1026 2522 
Q 928 2153 928 1778 
Q 928 1128 1239 775 
Q 1550 422 2119 422 
Q 2631 422 3032 676 
Q 3434 931 3719 1434 
Q 3909 1772 4009 2142 
Q 4109 2513 4109 2881 
Q 4109 3528 3796 3883 
Q 3484 4238 2919 4238 
z
" transform="scale(0.015625)"/>
      <path id="DejaVuSans-Oblique-49" d="M 1081 4666 
L 1716 4666 
L 806 0 
L 172 0 
L 1081 4666 
z
" transform="scale(0.015625)"/>
      <path id="DejaVuSans-3a" d="M 750 794 
L 1409 794 
L 1409 0 
L 750 0 
L 750 794 
z
M 750 3309 
L 1409 3309 
L 1409 2516 
L 750 2516 
L 750 3309 
z
" transform="scale(0.015625)"/>
      <path id="DejaVuSans-39" d="M 703 97 
L 703 672 
Q 941 559 1184 500 
Q 1428 441 1663 441 
Q 2288 441 2617 861 
Q 2947 1281 2994 2138 
Q 2813 1869 2534 1725 
Q 2256 1581 1919 1581 
Q 1219 1581 811 2004 
Q 403 2428 403 3163 
Q 403 3881 828 4315 
Q 1253 4750 1959 4750 
Q 2769 4750 3195 4129 
Q 3622 3509 3622 2328 
Q 3622 1225 3098 567 
Q 2575 -91 1691 -91 
Q 1453 -91 1209 -44 
Q 966 3 703 97 
z
M 1959 2075 
Q 2384 2075 2632 2365 
Q 2881 2656 2881 3163 
Q 2881 3666 2632 3958 
Q 2384 4250 1959 4250 
Q 1534 4250 1286 3958 
Q 1038 3666 1038 3163 
Q 1038 2656 1286 2365 
Q 1534 2075 1959 2075 
z
" transform="scale(0.015625)"/>
      <path id="DejaVuSans-2e" d="M 684 794 
L 1344 794 
L 1344 0 
L 684 0 
L 684 794 
z
" transform="scale(0.015625)"/>
      <path id="DejaVuSans-b1" d="M 2944 4013 
L 2944 2803 
L 4684 2803 
L 4684 2272 
L 2944 2272 
L 2944 1063 
L 2419 1063 
L 2419 2272 
L 678 2272 
L 678 2803 
L 2419 2803 
L 2419 4013 
L 2944 4013 
z
M 678 531 
L 4684 531 
L 4684 0 
L 678 0 
L 678 531 
z
" transform="scale(0.015625)"/>
      <path id="DejaVuSans-37" d="M 525 4666 
L 3525 4666 
L 3525 4397 
L 1831 0 
L 1172 0 
L 2766 4134 
L 525 4134 
L 525 4666 
z
" transform="scale(0.015625)"/>
      <path id="DejaVuSans-6b" d="M 581 4863 
L 1159 4863 
L 1159 1991 
L 2875 3500 
L 3609 3500 
L 1753 1863 
L 3688 0 
L 2938 0 
L 1159 1709 
L 1159 0 
L 581 0 
L 581 4863 
z
" transform="scale(0.015625)"/>
     </defs>
     <use xlink:href="#DejaVuSans-Oblique-51" transform="translate(0 0.015625)"/>
     <use xlink:href="#DejaVuSans-Oblique-49" transform="translate(78.710938 -16.390625) scale(0.7)"/>
     <use xlink:href="#DejaVuSans-3a" transform="translate(102.089844 0.015625)"/>
     <use xlink:href="#DejaVuSans-20" transform="translate(135.78125 0.015625)"/>
     <use xlink:href="#DejaVuSans-31" transform="translate(167.568359 0.015625)"/>
     <use xlink:href="#DejaVuSans-39" transform="translate(231.191406 0.015625)"/>
     <use xlink:href="#DejaVuSans-2e" transform="translate(294.814453 0.015625)"/>
     <use xlink:href="#DejaVuSans-38" transform="translate(323.976562 0.015625)"/>
     <use xlink:href="#DejaVuSans-30" transform="translate(387.599609 0.015625)"/>
     <use xlink:href="#DejaVuSans-b1" transform="translate(451.222656 0.015625)"/>
     <use xlink:href="#DejaVuSans-30" transform="translate(535.011719 0.015625)"/>
     <use xlink:href="#DejaVuSans-2e" transform="translate(598.634766 0.015625)"/>
     <use xlink:href="#DejaVuSans-34" transform="translate(630.421875 0.015625)"/>
     <use xlink:href="#DejaVuSans-37" transform="translate(694.044922 0.015625)"/>
     <use xlink:href="#DejaVuSans-20" transform="translate(757.667969 0.015625)"/>
     <use xlink:href="#DejaVuSans-6b" transform="translate(789.455078 0.015625)"/>
    </g>
    <!-- $Q_C$: 3.042$\pm$0.017 k -->
    <g transform="translate(425.571312 77.802062) scale(0.1 -0.1)">
     <defs>
      <path id="DejaVuSans-Oblique-43" d="M 4447 4306 
L 4319 3641 
Q 4019 3944 3683 4091 
Q 3347 4238 2956 4238 
Q 2422 4238 2017 3981 
Q 1613 3725 1319 3200 
Q 1131 2863 1032 2486 
Q 934 2109 934 1728 
Q 934 1091 1264 756 
Q 1594 422 2222 422 
Q 2656 422 3056 561 
Q 3456 700 3834 978 
L 3688 231 
Q 3316 72 2936 -9 
Q 2556 -91 2175 -91 
Q 1278 -91 773 396 
Q 269 884 269 1753 
Q 269 2309 461 2846 
Q 653 3384 1013 3828 
Q 1394 4300 1883 4525 
Q 2372 4750 3022 4750 
Q 3422 4750 3780 4639 
Q 4138 4528 4447 4306 
z
" transform="scale(0.015625)"/>
      <path id="DejaVuSans-33" d="M 2597 2516 
Q 3050 2419 3304 2112 
Q 3559 1806 3559 1356 
Q 3559 666 3084 287 
Q 2609 -91 1734 -91 
Q 1441 -91 1130 -33 
Q 819 25 488 141 
L 488 750 
Q 750 597 1062 519 
Q 1375 441 1716 441 
Q 2309 441 2620 675 
Q 2931 909 2931 1356 
Q 2931 1769 2642 2001 
Q 2353 2234 1838 2234 
L 1294 2234 
L 1294 2753 
L 1863 2753 
Q 2328 2753 2575 2939 
Q 2822 3125 2822 3475 
Q 2822 3834 2567 4026 
Q 2313 4219 1838 4219 
Q 1578 4219 1281 4162 
Q 984 4106 628 3988 
L 628 4550 
Q 988 4650 1302 4700 
Q 1616 4750 1894 4750 
Q 2613 4750 3031 4423 
Q 3450 4097 3450 3541 
Q 3450 3153 3228 2886 
Q 3006 2619 2597 2516 
z
" transform="scale(0.015625)"/>
     </defs>
     <use xlink:href="#DejaVuSans-Oblique-51" transform="translate(0 0.015625)"/>
     <use xlink:href="#DejaVuSans-Oblique-43" transform="translate(78.710938 -16.390625) scale(0.7)"/>
     <use xlink:href="#DejaVuSans-3a" transform="translate(130.322266 0.015625)"/>
     <use xlink:href="#DejaVuSans-20" transform="translate(164.013672 0.015625)"/>
     <use xlink:href="#DejaVuSans-33" transform="translate(195.800781 0.015625)"/>
     <use xlink:href="#DejaVuSans-2e" transform="translate(259.423828 0.015625)"/>
     <use xlink:href="#DejaVuSans-30" transform="translate(291.210938 0.015625)"/>
     <use xlink:href="#DejaVuSans-34" transform="translate(354.833984 0.015625)"/>
     <use xlink:href="#DejaVuSans-32" transform="translate(418.457031 0.015625)"/>
     <use xlink:href="#DejaVuSans-b1" transform="translate(482.080078 0.015625)"/>
     <use xlink:href="#DejaVuSans-30" transform="translate(565.869141 0.015625)"/>
     <use xlink:href="#DejaVuSans-2e" transform="translate(629.492188 0.015625)"/>
     <use xlink:href="#DejaVuSans-30" transform="translate(661.279297 0.015625)"/>
     <use xlink:href="#DejaVuSans-31" transform="translate(724.902344 0.015625)"/>
     <use xlink:href="#DejaVuSans-37" transform="translate(788.525391 0.015625)"/>
     <use xlink:href="#DejaVuSans-20" transform="translate(852.148438 0.015625)"/>
     <use xlink:href="#DejaVuSans-6b" transform="translate(883.935547 0.015625)"/>
    </g>
    <!-- $f_{res}$: 5.8376090$\pm$5.4e-06 GHz -->
    <g transform="translate(425.571312 88.999875) scale(0.1 -0.1)">
     <defs>
      <path id="DejaVuSans-Oblique-66" d="M 3059 4863 
L 2969 4384 
L 2419 4384 
Q 2106 4384 1964 4261 
Q 1822 4138 1753 3809 
L 1691 3500 
L 2638 3500 
L 2553 3053 
L 1606 3053 
L 1013 0 
L 434 0 
L 1031 3053 
L 481 3053 
L 563 3500 
L 1113 3500 
L 1159 3744 
Q 1278 4363 1576 4613 
Q 1875 4863 2516 4863 
L 3059 4863 
z
" transform="scale(0.015625)"/>
      <path id="DejaVuSans-Oblique-72" d="M 2853 2969 
Q 2766 3016 2653 3041 
Q 2541 3066 2413 3066 
Q 1953 3066 1609 2717 
Q 1266 2369 1153 1784 
L 800 0 
L 225 0 
L 909 3500 
L 1484 3500 
L 1375 2956 
Q 1603 3259 1920 3421 
Q 2238 3584 2597 3584 
Q 2691 3584 2781 3573 
Q 2872 3563 2963 3538 
L 2853 2969 
z
" transform="scale(0.015625)"/>
      <path id="DejaVuSans-Oblique-65" d="M 3078 2063 
Q 3088 2113 3092 2166 
Q 3097 2219 3097 2272 
Q 3097 2653 2873 2875 
Q 2650 3097 2266 3097 
Q 1838 3097 1509 2826 
Q 1181 2556 1013 2059 
L 3078 2063 
z
M 3578 1613 
L 903 1613 
Q 884 1494 878 1425 
Q 872 1356 872 1306 
Q 872 872 1139 634 
Q 1406 397 1894 397 
Q 2269 397 2603 481 
Q 2938 566 3225 728 
L 3116 159 
Q 2806 34 2476 -28 
Q 2147 -91 1806 -91 
Q 1078 -91 686 257 
Q 294 606 294 1247 
Q 294 1794 489 2264 
Q 684 2734 1063 3103 
Q 1306 3334 1642 3459 
Q 1978 3584 2356 3584 
Q 2950 3584 3301 3228 
Q 3653 2872 3653 2272 
Q 3653 2128 3634 1964 
Q 3616 1800 3578 1613 
z
" transform="scale(0.015625)"/>
      <path id="DejaVuSans-Oblique-73" d="M 3200 3397 
L 3091 2853 
Q 2863 2978 2609 3040 
Q 2356 3103 2088 3103 
Q 1634 3103 1373 2948 
Q 1113 2794 1113 2528 
Q 1113 2219 1719 2053 
Q 1766 2041 1788 2034 
L 1972 1978 
Q 2547 1819 2739 1644 
Q 2931 1469 2931 1166 
Q 2931 609 2489 259 
Q 2047 -91 1331 -91 
Q 1053 -91 747 -37 
Q 441 16 72 128 
L 184 722 
Q 500 559 806 475 
Q 1113 391 1394 391 
Q 1816 391 2080 572 
Q 2344 753 2344 1031 
Q 2344 1331 1650 1516 
L 1591 1531 
L 1394 1581 
Q 956 1697 753 1886 
Q 550 2075 550 2369 
Q 550 2928 970 3256 
Q 1391 3584 2113 3584 
Q 2397 3584 2667 3537 
Q 2938 3491 3200 3397 
z
" transform="scale(0.015625)"/>
      <path id="DejaVuSans-35" d="M 691 4666 
L 3169 4666 
L 3169 4134 
L 1269 4134 
L 1269 2991 
Q 1406 3038 1543 3061 
Q 1681 3084 1819 3084 
Q 2600 3084 3056 2656 
Q 3513 2228 3513 1497 
Q 3513 744 3044 326 
Q 2575 -91 1722 -91 
Q 1428 -91 1123 -41 
Q 819 9 494 109 
L 494 744 
Q 775 591 1075 516 
Q 1375 441 1709 441 
Q 2250 441 2565 725 
Q 2881 1009 2881 1497 
Q 2881 1984 2565 2268 
Q 2250 2553 1709 2553 
Q 1456 2553 1204 2497 
Q 953 2441 691 2322 
L 691 4666 
z
" transform="scale(0.015625)"/>
      <path id="DejaVuSans-65" d="M 3597 1894 
L 3597 1613 
L 953 1613 
Q 991 1019 1311 708 
Q 1631 397 2203 397 
Q 2534 397 2845 478 
Q 3156 559 3463 722 
L 3463 178 
Q 3153 47 2828 -22 
Q 2503 -91 2169 -91 
Q 1331 -91 842 396 
Q 353 884 353 1716 
Q 353 2575 817 3079 
Q 1281 3584 2069 3584 
Q 2775 3584 3186 3129 
Q 3597 2675 3597 1894 
z
M 3022 2063 
Q 3016 2534 2758 2815 
Q 2500 3097 2075 3097 
Q 1594 3097 1305 2825 
Q 1016 2553 972 2059 
L 3022 2063 
z
" transform="scale(0.015625)"/>
      <path id="DejaVuSans-2d" d="M 313 2009 
L 1997 2009 
L 1997 1497 
L 313 1497 
L 313 2009 
z
" transform="scale(0.015625)"/>
      <path id="DejaVuSans-47" d="M 3809 666 
L 3809 1919 
L 2778 1919 
L 2778 2438 
L 4434 2438 
L 4434 434 
Q 4069 175 3628 42 
Q 3188 -91 2688 -91 
Q 1594 -91 976 548 
Q 359 1188 359 2328 
Q 359 3472 976 4111 
Q 1594 4750 2688 4750 
Q 3144 4750 3555 4637 
Q 3966 4525 4313 4306 
L 4313 3634 
Q 3963 3931 3569 4081 
Q 3175 4231 2741 4231 
Q 1884 4231 1454 3753 
Q 1025 3275 1025 2328 
Q 1025 1384 1454 906 
Q 1884 428 2741 428 
Q 3075 428 3337 486 
Q 3600 544 3809 666 
z
" transform="scale(0.015625)"/>
      <path id="DejaVuSans-48" d="M 628 4666 
L 1259 4666 
L 1259 2753 
L 3553 2753 
L 3553 4666 
L 4184 4666 
L 4184 0 
L 3553 0 
L 3553 2222 
L 1259 2222 
L 1259 0 
L 628 0 
L 628 4666 
z
" transform="scale(0.015625)"/>
      <path id="DejaVuSans-7a" d="M 353 3500 
L 3084 3500 
L 3084 2975 
L 922 459 
L 3084 459 
L 3084 0 
L 275 0 
L 275 525 
L 2438 3041 
L 353 3041 
L 353 3500 
z
" transform="scale(0.015625)"/>
     </defs>
     <use xlink:href="#DejaVuSans-Oblique-66" transform="translate(0 0.015625)"/>
     <use xlink:href="#DejaVuSans-Oblique-72" transform="translate(35.205078 -16.390625) scale(0.7)"/>
     <use xlink:href="#DejaVuSans-Oblique-65" transform="translate(63.984375 -16.390625) scale(0.7)"/>
     <use xlink:href="#DejaVuSans-Oblique-73" transform="translate(107.050781 -16.390625) scale(0.7)"/>
     <use xlink:href="#DejaVuSans-3a" transform="translate(146.254883 0.015625)"/>
     <use xlink:href="#DejaVuSans-20" transform="translate(179.946289 0.015625)"/>
     <use xlink:href="#DejaVuSans-35" transform="translate(211.733398 0.015625)"/>
     <use xlink:href="#DejaVuSans-2e" transform="translate(275.356445 0.015625)"/>
     <use xlink:href="#DejaVuSans-38" transform="translate(304.518555 0.015625)"/>
     <use xlink:href="#DejaVuSans-33" transform="translate(368.141602 0.015625)"/>
     <use xlink:href="#DejaVuSans-37" transform="translate(431.764648 0.015625)"/>
     <use xlink:href="#DejaVuSans-36" transform="translate(495.387695 0.015625)"/>
     <use xlink:href="#DejaVuSans-30" transform="translate(559.010742 0.015625)"/>
     <use xlink:href="#DejaVuSans-39" transform="translate(622.633789 0.015625)"/>
     <use xlink:href="#DejaVuSans-30" transform="translate(686.256836 0.015625)"/>
     <use xlink:href="#DejaVuSans-b1" transform="translate(749.879883 0.015625)"/>
     <use xlink:href="#DejaVuSans-35" transform="translate(833.668945 0.015625)"/>
     <use xlink:href="#DejaVuSans-2e" transform="translate(897.291992 0.015625)"/>
     <use xlink:href="#DejaVuSans-34" transform="translate(929.079102 0.015625)"/>
     <use xlink:href="#DejaVuSans-65" transform="translate(992.702148 0.015625)"/>
     <use xlink:href="#DejaVuSans-2d" transform="translate(1054.225586 0.015625)"/>
     <use xlink:href="#DejaVuSans-30" transform="translate(1090.30957 0.015625)"/>
     <use xlink:href="#DejaVuSans-36" transform="translate(1153.932617 0.015625)"/>
     <use xlink:href="#DejaVuSans-20" transform="translate(1217.555664 0.015625)"/>
     <use xlink:href="#DejaVuSans-47" transform="translate(1249.342773 0.015625)"/>
     <use xlink:href="#DejaVuSans-48" transform="translate(1326.833008 0.015625)"/>
     <use xlink:href="#DejaVuSans-7a" transform="translate(1402.02832 0.015625)"/>
    </g>
   </g>
  </g>
  <g id="axes_2">
   <g id="patch_8">
    <path d="M 50.595313 307.872 
L 407.715312 307.872 
L 407.715312 186.912 
L 50.595313 186.912 
z
" style="fill: #ffffff"/>
   </g>
   <g id="matplotlib.axis_3">
    <g id="xtick_7">
     <g id="line2d_14">
      <g>
       <use xlink:href="#md6dd69389b" x="74.944403" y="307.872" style="stroke: #000000; stroke-width: 0.8"/>
      </g>
     </g>
     <g id="text_8">
      <!-- 834 -->
      <g transform="translate(65.400653 322.470438) scale(0.1 -0.1)">
       <use xlink:href="#DejaVuSans-38"/>
       <use xlink:href="#DejaVuSans-33" x="63.623047"/>
       <use xlink:href="#DejaVuSans-34" x="127.246094"/>
      </g>
     </g>
    </g>
    <g id="xtick_8">
     <g id="line2d_15">
      <g>
       <use xlink:href="#md6dd69389b" x="139.875312" y="307.872" style="stroke: #000000; stroke-width: 0.8"/>
      </g>
     </g>
     <g id="text_9">
      <!-- 836 -->
      <g transform="translate(130.331562 322.470438) scale(0.1 -0.1)">
       <use xlink:href="#DejaVuSans-38"/>
       <use xlink:href="#DejaVuSans-33" x="63.623047"/>
       <use xlink:href="#DejaVuSans-36" x="127.246094"/>
      </g>
     </g>
    </g>
    <g id="xtick_9">
     <g id="line2d_16">
      <g>
       <use xlink:href="#md6dd69389b" x="204.806222" y="307.872" style="stroke: #000000; stroke-width: 0.8"/>
      </g>
     </g>
     <g id="text_10">
      <!-- 838 -->
      <g transform="translate(195.262472 322.470438) scale(0.1 -0.1)">
       <use xlink:href="#DejaVuSans-38"/>
       <use xlink:href="#DejaVuSans-33" x="63.623047"/>
       <use xlink:href="#DejaVuSans-38" x="127.246094"/>
      </g>
     </g>
    </g>
    <g id="xtick_10">
     <g id="line2d_17">
      <g>
       <use xlink:href="#md6dd69389b" x="269.737131" y="307.872" style="stroke: #000000; stroke-width: 0.8"/>
      </g>
     </g>
     <g id="text_11">
      <!-- 840 -->
      <g transform="translate(260.193381 322.470438) scale(0.1 -0.1)">
       <use xlink:href="#DejaVuSans-38"/>
       <use xlink:href="#DejaVuSans-34" x="63.623047"/>
       <use xlink:href="#DejaVuSans-30" x="127.246094"/>
      </g>
     </g>
    </g>
    <g id="xtick_11">
     <g id="line2d_18">
      <g>
       <use xlink:href="#md6dd69389b" x="334.66804" y="307.872" style="stroke: #000000; stroke-width: 0.8"/>
      </g>
     </g>
     <g id="text_12">
      <!-- 842 -->
      <g transform="translate(325.12429 322.470438) scale(0.1 -0.1)">
       <use xlink:href="#DejaVuSans-38"/>
       <use xlink:href="#DejaVuSans-34" x="63.623047"/>
       <use xlink:href="#DejaVuSans-32" x="127.246094"/>
      </g>
     </g>
    </g>
    <g id="xtick_12">
     <g id="line2d_19">
      <g>
       <use xlink:href="#md6dd69389b" x="399.598949" y="307.872" style="stroke: #000000; stroke-width: 0.8"/>
      </g>
     </g>
     <g id="text_13">
      <!-- 844 -->
      <g transform="translate(390.055199 322.470438) scale(0.1 -0.1)">
       <use xlink:href="#DejaVuSans-38"/>
       <use xlink:href="#DejaVuSans-34" x="63.623047"/>
       <use xlink:href="#DejaVuSans-34" x="127.246094"/>
      </g>
     </g>
    </g>
    <g id="text_14">
     <!-- Frequency [MHz] -->
     <g transform="translate(187.136562 336.148562) scale(0.1 -0.1)">
      <defs>
       <path id="DejaVuSans-46" d="M 628 4666 
L 3309 4666 
L 3309 4134 
L 1259 4134 
L 1259 2759 
L 3109 2759 
L 3109 2228 
L 1259 2228 
L 1259 0 
L 628 0 
L 628 4666 
z
" transform="scale(0.015625)"/>
       <path id="DejaVuSans-71" d="M 947 1747 
Q 947 1113 1208 752 
Q 1469 391 1925 391 
Q 2381 391 2643 752 
Q 2906 1113 2906 1747 
Q 2906 2381 2643 2742 
Q 2381 3103 1925 3103 
Q 1469 3103 1208 2742 
Q 947 2381 947 1747 
z
M 2906 525 
Q 2725 213 2448 61 
Q 2172 -91 1784 -91 
Q 1150 -91 751 415 
Q 353 922 353 1747 
Q 353 2572 751 3078 
Q 1150 3584 1784 3584 
Q 2172 3584 2448 3432 
Q 2725 3281 2906 2969 
L 2906 3500 
L 3481 3500 
L 3481 -1331 
L 2906 -1331 
L 2906 525 
z
" transform="scale(0.015625)"/>
       <path id="DejaVuSans-6e" d="M 3513 2113 
L 3513 0 
L 2938 0 
L 2938 2094 
Q 2938 2591 2744 2837 
Q 2550 3084 2163 3084 
Q 1697 3084 1428 2787 
Q 1159 2491 1159 1978 
L 1159 0 
L 581 0 
L 581 3500 
L 1159 3500 
L 1159 2956 
Q 1366 3272 1645 3428 
Q 1925 3584 2291 3584 
Q 2894 3584 3203 3211 
Q 3513 2838 3513 2113 
z
" transform="scale(0.015625)"/>
       <path id="DejaVuSans-63" d="M 3122 3366 
L 3122 2828 
Q 2878 2963 2633 3030 
Q 2388 3097 2138 3097 
Q 1578 3097 1268 2742 
Q 959 2388 959 1747 
Q 959 1106 1268 751 
Q 1578 397 2138 397 
Q 2388 397 2633 464 
Q 2878 531 3122 666 
L 3122 134 
Q 2881 22 2623 -34 
Q 2366 -91 2075 -91 
Q 1284 -91 818 406 
Q 353 903 353 1747 
Q 353 2603 823 3093 
Q 1294 3584 2113 3584 
Q 2378 3584 2631 3529 
Q 2884 3475 3122 3366 
z
" transform="scale(0.015625)"/>
       <path id="DejaVuSans-4d" d="M 628 4666 
L 1569 4666 
L 2759 1491 
L 3956 4666 
L 4897 4666 
L 4897 0 
L 4281 0 
L 4281 4097 
L 3078 897 
L 2444 897 
L 1241 4097 
L 1241 0 
L 628 0 
L 628 4666 
z
" transform="scale(0.015625)"/>
      </defs>
      <use xlink:href="#DejaVuSans-46"/>
      <use xlink:href="#DejaVuSans-72" x="50.269531"/>
      <use xlink:href="#DejaVuSans-65" x="89.132812"/>
      <use xlink:href="#DejaVuSans-71" x="150.65625"/>
      <use xlink:href="#DejaVuSans-75" x="214.132812"/>
      <use xlink:href="#DejaVuSans-65" x="277.511719"/>
      <use xlink:href="#DejaVuSans-6e" x="339.035156"/>
      <use xlink:href="#DejaVuSans-63" x="402.414062"/>
      <use xlink:href="#DejaVuSans-79" x="457.394531"/>
      <use xlink:href="#DejaVuSans-20" x="516.574219"/>
      <use xlink:href="#DejaVuSans-5b" x="548.361328"/>
      <use xlink:href="#DejaVuSans-4d" x="587.375"/>
      <use xlink:href="#DejaVuSans-48" x="673.654297"/>
      <use xlink:href="#DejaVuSans-7a" x="748.849609"/>
      <use xlink:href="#DejaVuSans-5d" x="801.339844"/>
     </g>
    </g>
    <g id="text_15">
     <!-- +5 GHz -->
     <g transform="translate(369.277812 335.148562) scale(0.1 -0.1)">
      <defs>
       <path id="DejaVuSans-2b" d="M 2944 4013 
L 2944 2272 
L 4684 2272 
L 4684 1741 
L 2944 1741 
L 2944 0 
L 2419 0 
L 2419 1741 
L 678 1741 
L 678 2272 
L 2419 2272 
L 2419 4013 
L 2944 4013 
z
" transform="scale(0.015625)"/>
      </defs>
      <use xlink:href="#DejaVuSans-2b"/>
      <use xlink:href="#DejaVuSans-35" x="83.789062"/>
      <use xlink:href="#DejaVuSans-20" x="147.412109"/>
      <use xlink:href="#DejaVuSans-47" x="179.199219"/>
      <use xlink:href="#DejaVuSans-48" x="256.689453"/>
      <use xlink:href="#DejaVuSans-7a" x="331.884766"/>
     </g>
    </g>
   </g>
   <g id="matplotlib.axis_4">
    <g id="ytick_6">
     <g id="line2d_20">
      <g>
       <use xlink:href="#m77cabd4360" x="50.595313" y="277.930303" style="stroke: #000000; stroke-width: 0.8"/>
      </g>
     </g>
     <g id="text_16">
      <!-- -100 -->
      <g transform="translate(20.9 281.729522) scale(0.1 -0.1)">
       <use xlink:href="#DejaVuSans-2d"/>
       <use xlink:href="#DejaVuSans-31" x="36.083984"/>
       <use xlink:href="#DejaVuSans-30" x="99.707031"/>
       <use xlink:href="#DejaVuSans-30" x="163.330078"/>
      </g>
     </g>
    </g>
    <g id="ytick_7">
     <g id="line2d_21">
      <g>
       <use xlink:href="#m77cabd4360" x="50.595313" y="247.370748" style="stroke: #000000; stroke-width: 0.8"/>
      </g>
     </g>
     <g id="text_17">
      <!-- 0 -->
      <g transform="translate(37.232813 251.169967) scale(0.1 -0.1)">
       <use xlink:href="#DejaVuSans-30"/>
      </g>
     </g>
    </g>
    <g id="ytick_8">
     <g id="line2d_22">
      <g>
       <use xlink:href="#m77cabd4360" x="50.595313" y="216.811193" style="stroke: #000000; stroke-width: 0.8"/>
      </g>
     </g>
     <g id="text_18">
      <!-- 100 -->
      <g transform="translate(24.507813 220.610412) scale(0.1 -0.1)">
       <use xlink:href="#DejaVuSans-31"/>
       <use xlink:href="#DejaVuSans-30" x="63.623047"/>
       <use xlink:href="#DejaVuSans-30" x="127.246094"/>
      </g>
     </g>
    </g>
    <g id="text_19">
     <!-- $\angle S_{21}$ [deg] -->
     <g transform="translate(14.8 274.592) rotate(-90) scale(0.1 -0.1)">
      <defs>
       <path id="DejaVuSans-2220" d="M 5028 631 
L 5028 0 
L 547 0 
L 3525 4666 
L 4281 4666 
L 1716 631 
L 5028 631 
z
" transform="scale(0.015625)"/>
       <path id="DejaVuSans-64" d="M 2906 2969 
L 2906 4863 
L 3481 4863 
L 3481 0 
L 2906 0 
L 2906 525 
Q 2725 213 2448 61 
Q 2172 -91 1784 -91 
Q 1150 -91 751 415 
Q 353 922 353 1747 
Q 353 2572 751 3078 
Q 1150 3584 1784 3584 
Q 2172 3584 2448 3432 
Q 2725 3281 2906 2969 
z
M 947 1747 
Q 947 1113 1208 752 
Q 1469 391 1925 391 
Q 2381 391 2643 752 
Q 2906 1113 2906 1747 
Q 2906 2381 2643 2742 
Q 2381 3103 1925 3103 
Q 1469 3103 1208 2742 
Q 947 2381 947 1747 
z
" transform="scale(0.015625)"/>
       <path id="DejaVuSans-67" d="M 2906 1791 
Q 2906 2416 2648 2759 
Q 2391 3103 1925 3103 
Q 1463 3103 1205 2759 
Q 947 2416 947 1791 
Q 947 1169 1205 825 
Q 1463 481 1925 481 
Q 2391 481 2648 825 
Q 2906 1169 2906 1791 
z
M 3481 434 
Q 3481 -459 3084 -895 
Q 2688 -1331 1869 -1331 
Q 1566 -1331 1297 -1286 
Q 1028 -1241 775 -1147 
L 775 -588 
Q 1028 -725 1275 -790 
Q 1522 -856 1778 -856 
Q 2344 -856 2625 -561 
Q 2906 -266 2906 331 
L 2906 616 
Q 2728 306 2450 153 
Q 2172 0 1784 0 
Q 1141 0 747 490 
Q 353 981 353 1791 
Q 353 2603 747 3093 
Q 1141 3584 1784 3584 
Q 2172 3584 2450 3431 
Q 2728 3278 2906 2969 
L 2906 3500 
L 3481 3500 
L 3481 434 
z
" transform="scale(0.015625)"/>
      </defs>
      <use xlink:href="#DejaVuSans-2220" transform="translate(0 0.015625)"/>
      <use xlink:href="#DejaVuSans-Oblique-53" transform="translate(89.648438 0.015625)"/>
      <use xlink:href="#DejaVuSans-32" transform="translate(153.125 -16.390625) scale(0.7)"/>
      <use xlink:href="#DejaVuSans-31" transform="translate(197.661133 -16.390625) scale(0.7)"/>
      <use xlink:href="#DejaVuSans-20" transform="translate(244.931641 0.015625)"/>
      <use xlink:href="#DejaVuSans-5b" transform="translate(276.71875 0.015625)"/>
      <use xlink:href="#DejaVuSans-64" transform="translate(315.732422 0.015625)"/>
      <use xlink:href="#DejaVuSans-65" transform="translate(379.208984 0.015625)"/>
      <use xlink:href="#DejaVuSans-67" transform="translate(440.732422 0.015625)"/>
      <use xlink:href="#DejaVuSans-5d" transform="translate(504.208984 0.015625)"/>
     </g>
    </g>
   </g>
   <g id="line2d_23">
    <path d="M 66.82804 295.911397 
L 68.45947 296.088335 
L 71.722329 296.174225 
L 73.353759 296.135289 
L 74.985189 296.495716 
L 76.616619 296.502266 
L 78.248049 296.624816 
L 79.879479 296.897783 
L 83.142339 296.832407 
L 86.405198 297.296302 
L 88.036628 297.247071 
L 89.668058 297.719586 
L 91.299488 297.389344 
L 92.930918 297.833337 
L 96.193778 298.082577 
L 97.825207 298.150661 
L 101.088067 298.597264 
L 102.719497 298.580699 
L 104.350927 299.000262 
L 107.613787 299.066693 
L 109.245217 299.572049 
L 110.876646 299.342711 
L 114.139506 299.98258 
L 115.770936 299.981829 
L 117.402366 300.374673 
L 120.665226 300.734324 
L 122.296656 301.091961 
L 123.928085 301.100607 
L 128.822375 301.642403 
L 130.453805 302.107887 
L 132.085235 192.436188 
L 133.716665 192.61867 
L 135.348095 192.980769 
L 138.610954 193.100286 
L 140.242384 193.677532 
L 141.873814 194.072346 
L 143.505244 194.251929 
L 145.136674 194.726555 
L 148.399534 195.308944 
L 150.030963 195.824503 
L 151.662393 196.585649 
L 153.293823 196.77352 
L 154.925253 197.118994 
L 156.556683 197.741137 
L 158.188113 197.944913 
L 159.819543 198.577568 
L 161.450973 199.06081 
L 163.082402 199.404623 
L 164.713832 199.869155 
L 167.976692 200.984775 
L 172.870982 202.61562 
L 174.502412 203.481926 
L 176.133842 203.821875 
L 177.765271 204.802578 
L 179.396701 205.618609 
L 181.028131 205.92734 
L 184.290991 207.68834 
L 185.922421 208.089622 
L 189.185281 209.583307 
L 190.81671 210.524645 
L 192.44814 211.124555 
L 194.07957 212.049517 
L 195.711 212.169823 
L 198.97386 213.88577 
L 200.60529 213.757997 
L 202.23672 214.16691 
L 203.868149 215.037593 
L 205.499579 214.673243 
L 207.131009 215.403047 
L 208.762439 215.473276 
L 213.656729 212.380404 
L 215.288159 206.568976 
L 216.919588 206.531066 
L 218.551018 200.02595 
L 220.182448 195.1845 
L 221.813878 192.57601 
L 223.445308 298.00684 
L 225.076738 295.979873 
L 226.708168 294.211022 
L 228.339598 293.903227 
L 229.971027 292.637523 
L 231.602457 291.562746 
L 233.233887 292.628768 
L 234.865317 291.42705 
L 236.496747 291.496175 
L 238.128177 291.185507 
L 239.759607 291.9783 
L 241.391037 291.484554 
L 243.022466 291.700485 
L 244.653896 291.371496 
L 247.916756 291.55332 
L 251.179616 292.066306 
L 252.811046 292.479179 
L 254.442476 292.167899 
L 256.073905 292.640909 
L 257.705335 292.765323 
L 259.336765 292.545341 
L 260.968195 293.105394 
L 262.599625 293.23511 
L 264.231055 293.49968 
L 265.862485 293.25245 
L 267.493915 293.242353 
L 269.125344 293.523584 
L 270.756774 294.057401 
L 272.388204 294.10178 
L 274.019634 294.034139 
L 275.651064 294.419145 
L 277.282494 294.027508 
L 278.913924 294.647419 
L 280.545354 294.699765 
L 282.176783 294.56173 
L 283.808213 295.099987 
L 285.439643 295.434883 
L 287.071073 295.56502 
L 288.702503 295.309108 
L 290.333933 295.447122 
L 291.965363 296.027477 
L 293.596793 295.630599 
L 295.228223 295.701987 
L 296.859652 295.431981 
L 298.491082 296.207193 
L 300.122512 296.22844 
L 301.753942 296.128486 
L 305.016802 296.29966 
L 309.911091 297.083952 
L 311.542521 297.090274 
L 313.173951 297.35322 
L 314.805381 297.035562 
L 316.436811 297.660325 
L 318.068241 297.245973 
L 319.699671 297.63907 
L 321.331101 297.670308 
L 322.96253 297.5698 
L 324.59396 297.858164 
L 326.22539 297.92557 
L 327.85682 298.139325 
L 331.11968 298.194788 
L 332.75111 298.162486 
L 334.38254 298.749528 
L 337.645399 298.40816 
L 339.276829 298.886165 
L 340.908259 298.861267 
L 345.802549 299.168283 
L 347.433979 298.842328 
L 349.065408 299.34193 
L 350.696838 299.301667 
L 352.328268 299.616734 
L 358.853988 299.493483 
L 360.485418 300.004396 
L 362.116847 299.926219 
L 365.379707 300.325335 
L 367.011137 299.925385 
L 368.642567 300.464976 
L 370.273997 300.634 
L 371.905427 300.426097 
L 376.799716 300.794607 
L 378.431146 300.66918 
L 380.062576 300.863198 
L 381.694006 301.237533 
L 383.325436 301.372932 
L 384.956866 301.374936 
L 386.588296 301.585153 
L 388.219725 301.412752 
L 389.851155 301.746366 
L 391.482585 301.727972 
L 391.482585 301.727972 
" clip-path="url(#pbb3511d1f8)" style="fill: none; stroke: #1f77b4; stroke-width: 1.5; stroke-linecap: square"/>
    <g clip-path="url(#pbb3511d1f8)">
     <use xlink:href="#mce69704fba" x="66.82804" y="295.911397" style="fill: #1f77b4; stroke: #1f77b4"/>
     <use xlink:href="#mce69704fba" x="68.45947" y="296.088335" style="fill: #1f77b4; stroke: #1f77b4"/>
     <use xlink:href="#mce69704fba" x="70.0909" y="296.14215" style="fill: #1f77b4; stroke: #1f77b4"/>
     <use xlink:href="#mce69704fba" x="71.722329" y="296.174225" style="fill: #1f77b4; stroke: #1f77b4"/>
     <use xlink:href="#mce69704fba" x="73.353759" y="296.135289" style="fill: #1f77b4; stroke: #1f77b4"/>
     <use xlink:href="#mce69704fba" x="74.985189" y="296.495716" style="fill: #1f77b4; stroke: #1f77b4"/>
     <use xlink:href="#mce69704fba" x="76.616619" y="296.502266" style="fill: #1f77b4; stroke: #1f77b4"/>
     <use xlink:href="#mce69704fba" x="78.248049" y="296.624816" style="fill: #1f77b4; stroke: #1f77b4"/>
     <use xlink:href="#mce69704fba" x="79.879479" y="296.897783" style="fill: #1f77b4; stroke: #1f77b4"/>
     <use xlink:href="#mce69704fba" x="81.510909" y="296.856308" style="fill: #1f77b4; stroke: #1f77b4"/>
     <use xlink:href="#mce69704fba" x="83.142339" y="296.832407" style="fill: #1f77b4; stroke: #1f77b4"/>
     <use xlink:href="#mce69704fba" x="84.773768" y="297.028526" style="fill: #1f77b4; stroke: #1f77b4"/>
     <use xlink:href="#mce69704fba" x="86.405198" y="297.296302" style="fill: #1f77b4; stroke: #1f77b4"/>
     <use xlink:href="#mce69704fba" x="88.036628" y="297.247071" style="fill: #1f77b4; stroke: #1f77b4"/>
     <use xlink:href="#mce69704fba" x="89.668058" y="297.719586" style="fill: #1f77b4; stroke: #1f77b4"/>
     <use xlink:href="#mce69704fba" x="91.299488" y="297.389344" style="fill: #1f77b4; stroke: #1f77b4"/>
     <use xlink:href="#mce69704fba" x="92.930918" y="297.833337" style="fill: #1f77b4; stroke: #1f77b4"/>
     <use xlink:href="#mce69704fba" x="94.562348" y="298.004956" style="fill: #1f77b4; stroke: #1f77b4"/>
     <use xlink:href="#mce69704fba" x="96.193778" y="298.082577" style="fill: #1f77b4; stroke: #1f77b4"/>
     <use xlink:href="#mce69704fba" x="97.825207" y="298.150661" style="fill: #1f77b4; stroke: #1f77b4"/>
     <use xlink:href="#mce69704fba" x="99.456637" y="298.4235" style="fill: #1f77b4; stroke: #1f77b4"/>
     <use xlink:href="#mce69704fba" x="101.088067" y="298.597264" style="fill: #1f77b4; stroke: #1f77b4"/>
     <use xlink:href="#mce69704fba" x="102.719497" y="298.580699" style="fill: #1f77b4; stroke: #1f77b4"/>
     <use xlink:href="#mce69704fba" x="104.350927" y="299.000262" style="fill: #1f77b4; stroke: #1f77b4"/>
     <use xlink:href="#mce69704fba" x="105.982357" y="298.995239" style="fill: #1f77b4; stroke: #1f77b4"/>
     <use xlink:href="#mce69704fba" x="107.613787" y="299.066693" style="fill: #1f77b4; stroke: #1f77b4"/>
     <use xlink:href="#mce69704fba" x="109.245217" y="299.572049" style="fill: #1f77b4; stroke: #1f77b4"/>
     <use xlink:href="#mce69704fba" x="110.876646" y="299.342711" style="fill: #1f77b4; stroke: #1f77b4"/>
     <use xlink:href="#mce69704fba" x="112.508076" y="299.707221" style="fill: #1f77b4; stroke: #1f77b4"/>
     <use xlink:href="#mce69704fba" x="114.139506" y="299.98258" style="fill: #1f77b4; stroke: #1f77b4"/>
     <use xlink:href="#mce69704fba" x="115.770936" y="299.981829" style="fill: #1f77b4; stroke: #1f77b4"/>
     <use xlink:href="#mce69704fba" x="117.402366" y="300.374673" style="fill: #1f77b4; stroke: #1f77b4"/>
     <use xlink:href="#mce69704fba" x="119.033796" y="300.516307" style="fill: #1f77b4; stroke: #1f77b4"/>
     <use xlink:href="#mce69704fba" x="120.665226" y="300.734324" style="fill: #1f77b4; stroke: #1f77b4"/>
     <use xlink:href="#mce69704fba" x="122.296656" y="301.091961" style="fill: #1f77b4; stroke: #1f77b4"/>
     <use xlink:href="#mce69704fba" x="123.928085" y="301.100607" style="fill: #1f77b4; stroke: #1f77b4"/>
     <use xlink:href="#mce69704fba" x="125.559515" y="301.25271" style="fill: #1f77b4; stroke: #1f77b4"/>
     <use xlink:href="#mce69704fba" x="127.190945" y="301.461262" style="fill: #1f77b4; stroke: #1f77b4"/>
     <use xlink:href="#mce69704fba" x="128.822375" y="301.642403" style="fill: #1f77b4; stroke: #1f77b4"/>
     <use xlink:href="#mce69704fba" x="130.453805" y="302.107887" style="fill: #1f77b4; stroke: #1f77b4"/>
     <use xlink:href="#mce69704fba" x="132.085235" y="192.436188" style="fill: #1f77b4; stroke: #1f77b4"/>
     <use xlink:href="#mce69704fba" x="133.716665" y="192.61867" style="fill: #1f77b4; stroke: #1f77b4"/>
     <use xlink:href="#mce69704fba" x="135.348095" y="192.980769" style="fill: #1f77b4; stroke: #1f77b4"/>
     <use xlink:href="#mce69704fba" x="136.979524" y="193.058332" style="fill: #1f77b4; stroke: #1f77b4"/>
     <use xlink:href="#mce69704fba" x="138.610954" y="193.100286" style="fill: #1f77b4; stroke: #1f77b4"/>
     <use xlink:href="#mce69704fba" x="140.242384" y="193.677532" style="fill: #1f77b4; stroke: #1f77b4"/>
     <use xlink:href="#mce69704fba" x="141.873814" y="194.072346" style="fill: #1f77b4; stroke: #1f77b4"/>
     <use xlink:href="#mce69704fba" x="143.505244" y="194.251929" style="fill: #1f77b4; stroke: #1f77b4"/>
     <use xlink:href="#mce69704fba" x="145.136674" y="194.726555" style="fill: #1f77b4; stroke: #1f77b4"/>
     <use xlink:href="#mce69704fba" x="146.768104" y="195.022664" style="fill: #1f77b4; stroke: #1f77b4"/>
     <use xlink:href="#mce69704fba" x="148.399534" y="195.308944" style="fill: #1f77b4; stroke: #1f77b4"/>
     <use xlink:href="#mce69704fba" x="150.030963" y="195.824503" style="fill: #1f77b4; stroke: #1f77b4"/>
     <use xlink:href="#mce69704fba" x="151.662393" y="196.585649" style="fill: #1f77b4; stroke: #1f77b4"/>
     <use xlink:href="#mce69704fba" x="153.293823" y="196.77352" style="fill: #1f77b4; stroke: #1f77b4"/>
     <use xlink:href="#mce69704fba" x="154.925253" y="197.118994" style="fill: #1f77b4; stroke: #1f77b4"/>
     <use xlink:href="#mce69704fba" x="156.556683" y="197.741137" style="fill: #1f77b4; stroke: #1f77b4"/>
     <use xlink:href="#mce69704fba" x="158.188113" y="197.944913" style="fill: #1f77b4; stroke: #1f77b4"/>
     <use xlink:href="#mce69704fba" x="159.819543" y="198.577568" style="fill: #1f77b4; stroke: #1f77b4"/>
     <use xlink:href="#mce69704fba" x="161.450973" y="199.06081" style="fill: #1f77b4; stroke: #1f77b4"/>
     <use xlink:href="#mce69704fba" x="163.082402" y="199.404623" style="fill: #1f77b4; stroke: #1f77b4"/>
     <use xlink:href="#mce69704fba" x="164.713832" y="199.869155" style="fill: #1f77b4; stroke: #1f77b4"/>
     <use xlink:href="#mce69704fba" x="166.345262" y="200.471672" style="fill: #1f77b4; stroke: #1f77b4"/>
     <use xlink:href="#mce69704fba" x="167.976692" y="200.984775" style="fill: #1f77b4; stroke: #1f77b4"/>
     <use xlink:href="#mce69704fba" x="169.608122" y="201.505023" style="fill: #1f77b4; stroke: #1f77b4"/>
     <use xlink:href="#mce69704fba" x="171.239552" y="202.139546" style="fill: #1f77b4; stroke: #1f77b4"/>
     <use xlink:href="#mce69704fba" x="172.870982" y="202.61562" style="fill: #1f77b4; stroke: #1f77b4"/>
     <use xlink:href="#mce69704fba" x="174.502412" y="203.481926" style="fill: #1f77b4; stroke: #1f77b4"/>
     <use xlink:href="#mce69704fba" x="176.133842" y="203.821875" style="fill: #1f77b4; stroke: #1f77b4"/>
     <use xlink:href="#mce69704fba" x="177.765271" y="204.802578" style="fill: #1f77b4; stroke: #1f77b4"/>
     <use xlink:href="#mce69704fba" x="179.396701" y="205.618609" style="fill: #1f77b4; stroke: #1f77b4"/>
     <use xlink:href="#mce69704fba" x="181.028131" y="205.92734" style="fill: #1f77b4; stroke: #1f77b4"/>
     <use xlink:href="#mce69704fba" x="182.659561" y="206.788777" style="fill: #1f77b4; stroke: #1f77b4"/>
     <use xlink:href="#mce69704fba" x="184.290991" y="207.68834" style="fill: #1f77b4; stroke: #1f77b4"/>
     <use xlink:href="#mce69704fba" x="185.922421" y="208.089622" style="fill: #1f77b4; stroke: #1f77b4"/>
     <use xlink:href="#mce69704fba" x="187.553851" y="208.858631" style="fill: #1f77b4; stroke: #1f77b4"/>
     <use xlink:href="#mce69704fba" x="189.185281" y="209.583307" style="fill: #1f77b4; stroke: #1f77b4"/>
     <use xlink:href="#mce69704fba" x="190.81671" y="210.524645" style="fill: #1f77b4; stroke: #1f77b4"/>
     <use xlink:href="#mce69704fba" x="192.44814" y="211.124555" style="fill: #1f77b4; stroke: #1f77b4"/>
     <use xlink:href="#mce69704fba" x="194.07957" y="212.049517" style="fill: #1f77b4; stroke: #1f77b4"/>
     <use xlink:href="#mce69704fba" x="195.711" y="212.169823" style="fill: #1f77b4; stroke: #1f77b4"/>
     <use xlink:href="#mce69704fba" x="197.34243" y="213.075309" style="fill: #1f77b4; stroke: #1f77b4"/>
     <use xlink:href="#mce69704fba" x="198.97386" y="213.88577" style="fill: #1f77b4; stroke: #1f77b4"/>
     <use xlink:href="#mce69704fba" x="200.60529" y="213.757997" style="fill: #1f77b4; stroke: #1f77b4"/>
     <use xlink:href="#mce69704fba" x="202.23672" y="214.16691" style="fill: #1f77b4; stroke: #1f77b4"/>
     <use xlink:href="#mce69704fba" x="203.868149" y="215.037593" style="fill: #1f77b4; stroke: #1f77b4"/>
     <use xlink:href="#mce69704fba" x="205.499579" y="214.673243" style="fill: #1f77b4; stroke: #1f77b4"/>
     <use xlink:href="#mce69704fba" x="207.131009" y="215.403047" style="fill: #1f77b4; stroke: #1f77b4"/>
     <use xlink:href="#mce69704fba" x="208.762439" y="215.473276" style="fill: #1f77b4; stroke: #1f77b4"/>
     <use xlink:href="#mce69704fba" x="210.393869" y="214.431496" style="fill: #1f77b4; stroke: #1f77b4"/>
     <use xlink:href="#mce69704fba" x="212.025299" y="213.366508" style="fill: #1f77b4; stroke: #1f77b4"/>
     <use xlink:href="#mce69704fba" x="213.656729" y="212.380404" style="fill: #1f77b4; stroke: #1f77b4"/>
     <use xlink:href="#mce69704fba" x="215.288159" y="206.568976" style="fill: #1f77b4; stroke: #1f77b4"/>
     <use xlink:href="#mce69704fba" x="216.919588" y="206.531066" style="fill: #1f77b4; stroke: #1f77b4"/>
     <use xlink:href="#mce69704fba" x="218.551018" y="200.02595" style="fill: #1f77b4; stroke: #1f77b4"/>
     <use xlink:href="#mce69704fba" x="220.182448" y="195.1845" style="fill: #1f77b4; stroke: #1f77b4"/>
     <use xlink:href="#mce69704fba" x="221.813878" y="192.57601" style="fill: #1f77b4; stroke: #1f77b4"/>
     <use xlink:href="#mce69704fba" x="223.445308" y="298.00684" style="fill: #1f77b4; stroke: #1f77b4"/>
     <use xlink:href="#mce69704fba" x="225.076738" y="295.979873" style="fill: #1f77b4; stroke: #1f77b4"/>
     <use xlink:href="#mce69704fba" x="226.708168" y="294.211022" style="fill: #1f77b4; stroke: #1f77b4"/>
     <use xlink:href="#mce69704fba" x="228.339598" y="293.903227" style="fill: #1f77b4; stroke: #1f77b4"/>
     <use xlink:href="#mce69704fba" x="229.971027" y="292.637523" style="fill: #1f77b4; stroke: #1f77b4"/>
     <use xlink:href="#mce69704fba" x="231.602457" y="291.562746" style="fill: #1f77b4; stroke: #1f77b4"/>
     <use xlink:href="#mce69704fba" x="233.233887" y="292.628768" style="fill: #1f77b4; stroke: #1f77b4"/>
     <use xlink:href="#mce69704fba" x="234.865317" y="291.42705" style="fill: #1f77b4; stroke: #1f77b4"/>
     <use xlink:href="#mce69704fba" x="236.496747" y="291.496175" style="fill: #1f77b4; stroke: #1f77b4"/>
     <use xlink:href="#mce69704fba" x="238.128177" y="291.185507" style="fill: #1f77b4; stroke: #1f77b4"/>
     <use xlink:href="#mce69704fba" x="239.759607" y="291.9783" style="fill: #1f77b4; stroke: #1f77b4"/>
     <use xlink:href="#mce69704fba" x="241.391037" y="291.484554" style="fill: #1f77b4; stroke: #1f77b4"/>
     <use xlink:href="#mce69704fba" x="243.022466" y="291.700485" style="fill: #1f77b4; stroke: #1f77b4"/>
     <use xlink:href="#mce69704fba" x="244.653896" y="291.371496" style="fill: #1f77b4; stroke: #1f77b4"/>
     <use xlink:href="#mce69704fba" x="246.285326" y="291.434121" style="fill: #1f77b4; stroke: #1f77b4"/>
     <use xlink:href="#mce69704fba" x="247.916756" y="291.55332" style="fill: #1f77b4; stroke: #1f77b4"/>
     <use xlink:href="#mce69704fba" x="249.548186" y="291.789858" style="fill: #1f77b4; stroke: #1f77b4"/>
     <use xlink:href="#mce69704fba" x="251.179616" y="292.066306" style="fill: #1f77b4; stroke: #1f77b4"/>
     <use xlink:href="#mce69704fba" x="252.811046" y="292.479179" style="fill: #1f77b4; stroke: #1f77b4"/>
     <use xlink:href="#mce69704fba" x="254.442476" y="292.167899" style="fill: #1f77b4; stroke: #1f77b4"/>
     <use xlink:href="#mce69704fba" x="256.073905" y="292.640909" style="fill: #1f77b4; stroke: #1f77b4"/>
     <use xlink:href="#mce69704fba" x="257.705335" y="292.765323" style="fill: #1f77b4; stroke: #1f77b4"/>
     <use xlink:href="#mce69704fba" x="259.336765" y="292.545341" style="fill: #1f77b4; stroke: #1f77b4"/>
     <use xlink:href="#mce69704fba" x="260.968195" y="293.105394" style="fill: #1f77b4; stroke: #1f77b4"/>
     <use xlink:href="#mce69704fba" x="262.599625" y="293.23511" style="fill: #1f77b4; stroke: #1f77b4"/>
     <use xlink:href="#mce69704fba" x="264.231055" y="293.49968" style="fill: #1f77b4; stroke: #1f77b4"/>
     <use xlink:href="#mce69704fba" x="265.862485" y="293.25245" style="fill: #1f77b4; stroke: #1f77b4"/>
     <use xlink:href="#mce69704fba" x="267.493915" y="293.242353" style="fill: #1f77b4; stroke: #1f77b4"/>
     <use xlink:href="#mce69704fba" x="269.125344" y="293.523584" style="fill: #1f77b4; stroke: #1f77b4"/>
     <use xlink:href="#mce69704fba" x="270.756774" y="294.057401" style="fill: #1f77b4; stroke: #1f77b4"/>
     <use xlink:href="#mce69704fba" x="272.388204" y="294.10178" style="fill: #1f77b4; stroke: #1f77b4"/>
     <use xlink:href="#mce69704fba" x="274.019634" y="294.034139" style="fill: #1f77b4; stroke: #1f77b4"/>
     <use xlink:href="#mce69704fba" x="275.651064" y="294.419145" style="fill: #1f77b4; stroke: #1f77b4"/>
     <use xlink:href="#mce69704fba" x="277.282494" y="294.027508" style="fill: #1f77b4; stroke: #1f77b4"/>
     <use xlink:href="#mce69704fba" x="278.913924" y="294.647419" style="fill: #1f77b4; stroke: #1f77b4"/>
     <use xlink:href="#mce69704fba" x="280.545354" y="294.699765" style="fill: #1f77b4; stroke: #1f77b4"/>
     <use xlink:href="#mce69704fba" x="282.176783" y="294.56173" style="fill: #1f77b4; stroke: #1f77b4"/>
     <use xlink:href="#mce69704fba" x="283.808213" y="295.099987" style="fill: #1f77b4; stroke: #1f77b4"/>
     <use xlink:href="#mce69704fba" x="285.439643" y="295.434883" style="fill: #1f77b4; stroke: #1f77b4"/>
     <use xlink:href="#mce69704fba" x="287.071073" y="295.56502" style="fill: #1f77b4; stroke: #1f77b4"/>
     <use xlink:href="#mce69704fba" x="288.702503" y="295.309108" style="fill: #1f77b4; stroke: #1f77b4"/>
     <use xlink:href="#mce69704fba" x="290.333933" y="295.447122" style="fill: #1f77b4; stroke: #1f77b4"/>
     <use xlink:href="#mce69704fba" x="291.965363" y="296.027477" style="fill: #1f77b4; stroke: #1f77b4"/>
     <use xlink:href="#mce69704fba" x="293.596793" y="295.630599" style="fill: #1f77b4; stroke: #1f77b4"/>
     <use xlink:href="#mce69704fba" x="295.228223" y="295.701987" style="fill: #1f77b4; stroke: #1f77b4"/>
     <use xlink:href="#mce69704fba" x="296.859652" y="295.431981" style="fill: #1f77b4; stroke: #1f77b4"/>
     <use xlink:href="#mce69704fba" x="298.491082" y="296.207193" style="fill: #1f77b4; stroke: #1f77b4"/>
     <use xlink:href="#mce69704fba" x="300.122512" y="296.22844" style="fill: #1f77b4; stroke: #1f77b4"/>
     <use xlink:href="#mce69704fba" x="301.753942" y="296.128486" style="fill: #1f77b4; stroke: #1f77b4"/>
     <use xlink:href="#mce69704fba" x="303.385372" y="296.22054" style="fill: #1f77b4; stroke: #1f77b4"/>
     <use xlink:href="#mce69704fba" x="305.016802" y="296.29966" style="fill: #1f77b4; stroke: #1f77b4"/>
     <use xlink:href="#mce69704fba" x="306.648232" y="296.572293" style="fill: #1f77b4; stroke: #1f77b4"/>
     <use xlink:href="#mce69704fba" x="308.279662" y="296.842674" style="fill: #1f77b4; stroke: #1f77b4"/>
     <use xlink:href="#mce69704fba" x="309.911091" y="297.083952" style="fill: #1f77b4; stroke: #1f77b4"/>
     <use xlink:href="#mce69704fba" x="311.542521" y="297.090274" style="fill: #1f77b4; stroke: #1f77b4"/>
     <use xlink:href="#mce69704fba" x="313.173951" y="297.35322" style="fill: #1f77b4; stroke: #1f77b4"/>
     <use xlink:href="#mce69704fba" x="314.805381" y="297.035562" style="fill: #1f77b4; stroke: #1f77b4"/>
     <use xlink:href="#mce69704fba" x="316.436811" y="297.660325" style="fill: #1f77b4; stroke: #1f77b4"/>
     <use xlink:href="#mce69704fba" x="318.068241" y="297.245973" style="fill: #1f77b4; stroke: #1f77b4"/>
     <use xlink:href="#mce69704fba" x="319.699671" y="297.63907" style="fill: #1f77b4; stroke: #1f77b4"/>
     <use xlink:href="#mce69704fba" x="321.331101" y="297.670308" style="fill: #1f77b4; stroke: #1f77b4"/>
     <use xlink:href="#mce69704fba" x="322.96253" y="297.5698" style="fill: #1f77b4; stroke: #1f77b4"/>
     <use xlink:href="#mce69704fba" x="324.59396" y="297.858164" style="fill: #1f77b4; stroke: #1f77b4"/>
     <use xlink:href="#mce69704fba" x="326.22539" y="297.92557" style="fill: #1f77b4; stroke: #1f77b4"/>
     <use xlink:href="#mce69704fba" x="327.85682" y="298.139325" style="fill: #1f77b4; stroke: #1f77b4"/>
     <use xlink:href="#mce69704fba" x="329.48825" y="298.201001" style="fill: #1f77b4; stroke: #1f77b4"/>
     <use xlink:href="#mce69704fba" x="331.11968" y="298.194788" style="fill: #1f77b4; stroke: #1f77b4"/>
     <use xlink:href="#mce69704fba" x="332.75111" y="298.162486" style="fill: #1f77b4; stroke: #1f77b4"/>
     <use xlink:href="#mce69704fba" x="334.38254" y="298.749528" style="fill: #1f77b4; stroke: #1f77b4"/>
     <use xlink:href="#mce69704fba" x="336.013969" y="298.533019" style="fill: #1f77b4; stroke: #1f77b4"/>
     <use xlink:href="#mce69704fba" x="337.645399" y="298.40816" style="fill: #1f77b4; stroke: #1f77b4"/>
     <use xlink:href="#mce69704fba" x="339.276829" y="298.886165" style="fill: #1f77b4; stroke: #1f77b4"/>
     <use xlink:href="#mce69704fba" x="340.908259" y="298.861267" style="fill: #1f77b4; stroke: #1f77b4"/>
     <use xlink:href="#mce69704fba" x="342.539689" y="298.972774" style="fill: #1f77b4; stroke: #1f77b4"/>
     <use xlink:href="#mce69704fba" x="344.171119" y="299.10738" style="fill: #1f77b4; stroke: #1f77b4"/>
     <use xlink:href="#mce69704fba" x="345.802549" y="299.168283" style="fill: #1f77b4; stroke: #1f77b4"/>
     <use xlink:href="#mce69704fba" x="347.433979" y="298.842328" style="fill: #1f77b4; stroke: #1f77b4"/>
     <use xlink:href="#mce69704fba" x="349.065408" y="299.34193" style="fill: #1f77b4; stroke: #1f77b4"/>
     <use xlink:href="#mce69704fba" x="350.696838" y="299.301667" style="fill: #1f77b4; stroke: #1f77b4"/>
     <use xlink:href="#mce69704fba" x="352.328268" y="299.616734" style="fill: #1f77b4; stroke: #1f77b4"/>
     <use xlink:href="#mce69704fba" x="353.959698" y="299.601965" style="fill: #1f77b4; stroke: #1f77b4"/>
     <use xlink:href="#mce69704fba" x="355.591128" y="299.621858" style="fill: #1f77b4; stroke: #1f77b4"/>
     <use xlink:href="#mce69704fba" x="357.222558" y="299.522142" style="fill: #1f77b4; stroke: #1f77b4"/>
     <use xlink:href="#mce69704fba" x="358.853988" y="299.493483" style="fill: #1f77b4; stroke: #1f77b4"/>
     <use xlink:href="#mce69704fba" x="360.485418" y="300.004396" style="fill: #1f77b4; stroke: #1f77b4"/>
     <use xlink:href="#mce69704fba" x="362.116847" y="299.926219" style="fill: #1f77b4; stroke: #1f77b4"/>
     <use xlink:href="#mce69704fba" x="363.748277" y="300.180204" style="fill: #1f77b4; stroke: #1f77b4"/>
     <use xlink:href="#mce69704fba" x="365.379707" y="300.325335" style="fill: #1f77b4; stroke: #1f77b4"/>
     <use xlink:href="#mce69704fba" x="367.011137" y="299.925385" style="fill: #1f77b4; stroke: #1f77b4"/>
     <use xlink:href="#mce69704fba" x="368.642567" y="300.464976" style="fill: #1f77b4; stroke: #1f77b4"/>
     <use xlink:href="#mce69704fba" x="370.273997" y="300.634" style="fill: #1f77b4; stroke: #1f77b4"/>
     <use xlink:href="#mce69704fba" x="371.905427" y="300.426097" style="fill: #1f77b4; stroke: #1f77b4"/>
     <use xlink:href="#mce69704fba" x="373.536857" y="300.567017" style="fill: #1f77b4; stroke: #1f77b4"/>
     <use xlink:href="#mce69704fba" x="375.168286" y="300.625105" style="fill: #1f77b4; stroke: #1f77b4"/>
     <use xlink:href="#mce69704fba" x="376.799716" y="300.794607" style="fill: #1f77b4; stroke: #1f77b4"/>
     <use xlink:href="#mce69704fba" x="378.431146" y="300.66918" style="fill: #1f77b4; stroke: #1f77b4"/>
     <use xlink:href="#mce69704fba" x="380.062576" y="300.863198" style="fill: #1f77b4; stroke: #1f77b4"/>
     <use xlink:href="#mce69704fba" x="381.694006" y="301.237533" style="fill: #1f77b4; stroke: #1f77b4"/>
     <use xlink:href="#mce69704fba" x="383.325436" y="301.372932" style="fill: #1f77b4; stroke: #1f77b4"/>
     <use xlink:href="#mce69704fba" x="384.956866" y="301.374936" style="fill: #1f77b4; stroke: #1f77b4"/>
     <use xlink:href="#mce69704fba" x="386.588296" y="301.585153" style="fill: #1f77b4; stroke: #1f77b4"/>
     <use xlink:href="#mce69704fba" x="388.219725" y="301.412752" style="fill: #1f77b4; stroke: #1f77b4"/>
     <use xlink:href="#mce69704fba" x="389.851155" y="301.746366" style="fill: #1f77b4; stroke: #1f77b4"/>
     <use xlink:href="#mce69704fba" x="391.482585" y="301.727972" style="fill: #1f77b4; stroke: #1f77b4"/>
    </g>
   </g>
   <g id="line2d_24">
    <path d="M 66.82804 295.716109 
L 86.326811 297.257726 
L 101.925828 298.702558 
L 114.925009 300.122849 
L 125.649334 301.508556 
L 131.498965 302.373818 
L 131.823945 192.410182 
L 140.273412 193.846484 
L 147.747941 195.340629 
L 154.247532 196.855811 
L 160.422143 198.521431 
L 166.271774 200.334885 
L 171.796426 202.276001 
L 177.646058 204.567376 
L 185.120587 207.757249 
L 194.220014 211.61315 
L 198.119768 213.025972 
L 201.044584 213.877066 
L 203.64442 214.402214 
L 205.594297 214.590204 
L 207.219195 214.558745 
L 208.844092 214.292713 
L 210.14401 213.850853 
L 211.443928 213.132309 
L 212.418867 212.354536 
L 213.393806 211.312719 
L 214.368744 209.940842 
L 215.343683 208.167152 
L 216.318621 205.933285 
L 217.618539 202.244095 
L 220.543355 192.931197 
L 220.868335 302.037836 
L 222.168253 298.909939 
L 223.143191 297.084089 
L 224.11813 295.642568 
L 225.093068 294.513745 
L 226.392987 293.383398 
L 227.692905 292.570791 
L 229.317802 291.870061 
L 230.9427 291.4132 
L 232.892577 291.08289 
L 235.492413 290.883697 
L 238.742208 290.870017 
L 243.291922 291.088419 
L 250.441471 291.677635 
L 295.938605 295.791576 
L 317.712233 297.379347 
L 344.035575 299.067072 
L 377.508466 300.979667 
L 391.482585 301.725784 
L 391.482585 301.725784 
" clip-path="url(#pbb3511d1f8)" style="fill: none; stroke: #d62728; stroke-width: 1.5; stroke-linecap: square"/>
   </g>
   <g id="patch_9">
    <path d="M 50.595313 307.872 
L 50.595313 186.912 
" style="fill: none; stroke: #000000; stroke-width: 0.8; stroke-linejoin: miter; stroke-linecap: square"/>
   </g>
   <g id="patch_10">
    <path d="M 407.715312 307.872 
L 407.715312 186.912 
" style="fill: none; stroke: #000000; stroke-width: 0.8; stroke-linejoin: miter; stroke-linecap: square"/>
   </g>
   <g id="patch_11">
    <path d="M 50.595312 307.872 
L 407.715312 307.872 
" style="fill: none; stroke: #000000; stroke-width: 0.8; stroke-linejoin: miter; stroke-linecap: square"/>
   </g>
   <g id="patch_12">
    <path d="M 50.595312 186.912 
L 407.715312 186.912 
" style="fill: none; stroke: #000000; stroke-width: 0.8; stroke-linejoin: miter; stroke-linecap: square"/>
   </g>
  </g>
  <g id="text_20">
   <!-- S21 resonator spectroscopy -->
   <g transform="translate(139.610938 16.318125) scale(0.12 -0.12)">
    <defs>
     <path id="DejaVuSans-73" d="M 2834 3397 
L 2834 2853 
Q 2591 2978 2328 3040 
Q 2066 3103 1784 3103 
Q 1356 3103 1142 2972 
Q 928 2841 928 2578 
Q 928 2378 1081 2264 
Q 1234 2150 1697 2047 
L 1894 2003 
Q 2506 1872 2764 1633 
Q 3022 1394 3022 966 
Q 3022 478 2636 193 
Q 2250 -91 1575 -91 
Q 1294 -91 989 -36 
Q 684 19 347 128 
L 347 722 
Q 666 556 975 473 
Q 1284 391 1588 391 
Q 1994 391 2212 530 
Q 2431 669 2431 922 
Q 2431 1156 2273 1281 
Q 2116 1406 1581 1522 
L 1381 1569 
Q 847 1681 609 1914 
Q 372 2147 372 2553 
Q 372 3047 722 3315 
Q 1072 3584 1716 3584 
Q 2034 3584 2315 3537 
Q 2597 3491 2834 3397 
z
" transform="scale(0.015625)"/>
     <path id="DejaVuSans-6f" d="M 1959 3097 
Q 1497 3097 1228 2736 
Q 959 2375 959 1747 
Q 959 1119 1226 758 
Q 1494 397 1959 397 
Q 2419 397 2687 759 
Q 2956 1122 2956 1747 
Q 2956 2369 2687 2733 
Q 2419 3097 1959 3097 
z
M 1959 3584 
Q 2709 3584 3137 3096 
Q 3566 2609 3566 1747 
Q 3566 888 3137 398 
Q 2709 -91 1959 -91 
Q 1206 -91 779 398 
Q 353 888 353 1747 
Q 353 2609 779 3096 
Q 1206 3584 1959 3584 
z
" transform="scale(0.015625)"/>
     <path id="DejaVuSans-74" d="M 1172 4494 
L 1172 3500 
L 2356 3500 
L 2356 3053 
L 1172 3053 
L 1172 1153 
Q 1172 725 1289 603 
Q 1406 481 1766 481 
L 2356 481 
L 2356 0 
L 1766 0 
Q 1100 0 847 248 
Q 594 497 594 1153 
L 594 3053 
L 172 3053 
L 172 3500 
L 594 3500 
L 594 4494 
L 1172 4494 
z
" transform="scale(0.015625)"/>
     <path id="DejaVuSans-70" d="M 1159 525 
L 1159 -1331 
L 581 -1331 
L 581 3500 
L 1159 3500 
L 1159 2969 
Q 1341 3281 1617 3432 
Q 1894 3584 2278 3584 
Q 2916 3584 3314 3078 
Q 3713 2572 3713 1747 
Q 3713 922 3314 415 
Q 2916 -91 2278 -91 
Q 1894 -91 1617 61 
Q 1341 213 1159 525 
z
M 3116 1747 
Q 3116 2381 2855 2742 
Q 2594 3103 2138 3103 
Q 1681 3103 1420 2742 
Q 1159 2381 1159 1747 
Q 1159 1113 1420 752 
Q 1681 391 2138 391 
Q 2594 391 2855 752 
Q 3116 1113 3116 1747 
z
" transform="scale(0.015625)"/>
    </defs>
    <use xlink:href="#DejaVuSans-53"/>
    <use xlink:href="#DejaVuSans-32" x="63.476562"/>
    <use xlink:href="#DejaVuSans-31" x="127.099609"/>
    <use xlink:href="#DejaVuSans-20" x="190.722656"/>
    <use xlink:href="#DejaVuSans-72" x="222.509766"/>
    <use xlink:href="#DejaVuSans-65" x="261.373047"/>
    <use xlink:href="#DejaVuSans-73" x="322.896484"/>
    <use xlink:href="#DejaVuSans-6f" x="374.996094"/>
    <use xlink:href="#DejaVuSans-6e" x="436.177734"/>
    <use xlink:href="#DejaVuSans-61" x="499.556641"/>
    <use xlink:href="#DejaVuSans-74" x="560.835938"/>
    <use xlink:href="#DejaVuSans-6f" x="600.044922"/>
    <use xlink:href="#DejaVuSans-72" x="661.226562"/>
    <use xlink:href="#DejaVuSans-20" x="702.339844"/>
    <use xlink:href="#DejaVuSans-73" x="734.126953"/>
    <use xlink:href="#DejaVuSans-70" x="786.226562"/>
    <use xlink:href="#DejaVuSans-65" x="849.703125"/>
    <use xlink:href="#DejaVuSans-63" x="911.226562"/>
    <use xlink:href="#DejaVuSans-74" x="966.207031"/>
    <use xlink:href="#DejaVuSans-72" x="1005.416016"/>
    <use xlink:href="#DejaVuSans-6f" x="1044.279297"/>
    <use xlink:href="#DejaVuSans-73" x="1105.460938"/>
    <use xlink:href="#DejaVuSans-63" x="1157.560547"/>
    <use xlink:href="#DejaVuSans-6f" x="1212.541016"/>
    <use xlink:href="#DejaVuSans-70" x="1273.722656"/>
    <use xlink:href="#DejaVuSans-79" x="1337.199219"/>
   </g>
   <!-- tuid: 20231227-193352-232-394292 -->
   <g transform="translate(113.54 29.7555) scale(0.12 -0.12)">
    <defs>
     <path id="DejaVuSans-69" d="M 603 3500 
L 1178 3500 
L 1178 0 
L 603 0 
L 603 3500 
z
M 603 4863 
L 1178 4863 
L 1178 4134 
L 603 4134 
L 603 4863 
z
" transform="scale(0.015625)"/>
    </defs>
    <use xlink:href="#DejaVuSans-74"/>
    <use xlink:href="#DejaVuSans-75" x="39.208984"/>
    <use xlink:href="#DejaVuSans-69" x="102.587891"/>
    <use xlink:href="#DejaVuSans-64" x="130.371094"/>
    <use xlink:href="#DejaVuSans-3a" x="193.847656"/>
    <use xlink:href="#DejaVuSans-20" x="227.539062"/>
    <use xlink:href="#DejaVuSans-32" x="259.326172"/>
    <use xlink:href="#DejaVuSans-30" x="322.949219"/>
    <use xlink:href="#DejaVuSans-32" x="386.572266"/>
    <use xlink:href="#DejaVuSans-33" x="450.195312"/>
    <use xlink:href="#DejaVuSans-31" x="513.818359"/>
    <use xlink:href="#DejaVuSans-32" x="577.441406"/>
    <use xlink:href="#DejaVuSans-32" x="641.064453"/>
    <use xlink:href="#DejaVuSans-37" x="704.6875"/>
    <use xlink:href="#DejaVuSans-2d" x="768.310547"/>
    <use xlink:href="#DejaVuSans-31" x="804.394531"/>
    <use xlink:href="#DejaVuSans-39" x="868.017578"/>
    <use xlink:href="#DejaVuSans-33" x="931.640625"/>
    <use xlink:href="#DejaVuSans-33" x="995.263672"/>
    <use xlink:href="#DejaVuSans-35" x="1058.886719"/>
    <use xlink:href="#DejaVuSans-32" x="1122.509766"/>
    <use xlink:href="#DejaVuSans-2d" x="1186.132812"/>
    <use xlink:href="#DejaVuSans-32" x="1222.216797"/>
    <use xlink:href="#DejaVuSans-33" x="1285.839844"/>
    <use xlink:href="#DejaVuSans-32" x="1349.462891"/>
    <use xlink:href="#DejaVuSans-2d" x="1413.085938"/>
    <use xlink:href="#DejaVuSans-33" x="1449.169922"/>
    <use xlink:href="#DejaVuSans-39" x="1512.792969"/>
    <use xlink:href="#DejaVuSans-34" x="1576.416016"/>
    <use xlink:href="#DejaVuSans-32" x="1640.039062"/>
    <use xlink:href="#DejaVuSans-39" x="1703.662109"/>
    <use xlink:href="#DejaVuSans-32" x="1767.285156"/>
   </g>
  </g>
 </g>
 <defs>
  <clipPath id="pfd8991ee9f">
   <rect x="50.595313" y="41.76" width="357.12" height="120.96"/>
  </clipPath>
  <clipPath id="pbb3511d1f8">
   <rect x="50.595313" y="186.912" width="357.12" height="120.96"/>
  </clipPath>
 </defs>
</svg>
