<?xml version="1.0" encoding="utf-8" standalone="no"?>
<!DOCTYPE svg PUBLIC "-//W3C//DTD SVG 1.1//EN"
  "http://www.w3.org/Graphics/SVG/1.1/DTD/svg11.dtd">
<svg xmlns:xlink="http://www.w3.org/1999/xlink" width="574.565062pt" height="345.42825pt" viewBox="0 0 574.565062 345.42825" xmlns="http://www.w3.org/2000/svg" version="1.1">
 <metadata>
  <rdf:RDF xmlns:dc="http://purl.org/dc/elements/1.1/" xmlns:cc="http://creativecommons.org/ns#" xmlns:rdf="http://www.w3.org/1999/02/22-rdf-syntax-ns#">
   <cc:Work>
    <dc:type rdf:resource="http://purl.org/dc/dcmitype/StillImage"/>
    <dc:date>2023-12-27T18:53:59.153958</dc:date>
    <dc:format>image/svg+xml</dc:format>
    <dc:creator>
     <cc:Agent>
      <dc:title>Matplotlib v3.8.2, https://matplotlib.org/</dc:title>
     </cc:Agent>
    </dc:creator>
   </cc:Work>
  </rdf:RDF>
 </metadata>
 <defs>
  <style type="text/css">*{stroke-linejoin: round; stroke-linecap: butt}</style>
 </defs>
 <g id="figure_1">
  <g id="patch_1">
   <path d="M 0 345.42825 
L 574.565062 345.42825 
L 574.565062 -0 
L 0 -0 
L 0 345.42825 
z
" style="fill: none; opacity: 0"/>
  </g>
  <g id="axes_1">
   <g id="patch_2">
    <path d="M 47.389063 307.872 
L 404.509063 307.872 
L 404.509063 41.76 
L 47.389063 41.76 
z
" style="fill: #ffffff"/>
   </g>
   <g id="matplotlib.axis_1">
    <g id="xtick_1">
     <g id="line2d_1">
      <defs>
       <path id="mad42934ca0" d="M 0 0 
L 0 3.5 
" style="stroke: #000000; stroke-width: 0.8"/>
      </defs>
      <g>
       <use xlink:href="#mad42934ca0" x="69.754013" y="307.872" style="stroke: #000000; stroke-width: 0.8"/>
      </g>
     </g>
     <g id="text_1">
      <!-- -1.5 -->
      <g transform="translate(59.998544 322.470438) scale(0.1 -0.1)">
       <defs>
        <path id="DejaVuSans-2d" d="M 313 2009 
L 1997 2009 
L 1997 1497 
L 313 1497 
L 313 2009 
z
" transform="scale(0.015625)"/>
        <path id="DejaVuSans-31" d="M 794 531 
L 1825 531 
L 1825 4091 
L 703 3866 
L 703 4441 
L 1819 4666 
L 2450 4666 
L 2450 531 
L 3481 531 
L 3481 0 
L 794 0 
L 794 531 
z
" transform="scale(0.015625)"/>
        <path id="DejaVuSans-2e" d="M 684 794 
L 1344 794 
L 1344 0 
L 684 0 
L 684 794 
z
" transform="scale(0.015625)"/>
        <path id="DejaVuSans-35" d="M 691 4666 
L 3169 4666 
L 3169 4134 
L 1269 4134 
L 1269 2991 
Q 1406 3038 1543 3061 
Q 1681 3084 1819 3084 
Q 2600 3084 3056 2656 
Q 3513 2228 3513 1497 
Q 3513 744 3044 326 
Q 2575 -91 1722 -91 
Q 1428 -91 1123 -41 
Q 819 9 494 109 
L 494 744 
Q 775 591 1075 516 
Q 1375 441 1709 441 
Q 2250 441 2565 725 
Q 2881 1009 2881 1497 
Q 2881 1984 2565 2268 
Q 2250 2553 1709 2553 
Q 1456 2553 1204 2497 
Q 953 2441 691 2322 
L 691 4666 
z
" transform="scale(0.015625)"/>
       </defs>
       <use xlink:href="#DejaVuSans-2d"/>
       <use xlink:href="#DejaVuSans-31" x="36.083984"/>
       <use xlink:href="#DejaVuSans-2e" x="99.707031"/>
       <use xlink:href="#DejaVuSans-35" x="131.494141"/>
      </g>
     </g>
    </g>
    <g id="xtick_2">
     <g id="line2d_2">
      <g>
       <use xlink:href="#mad42934ca0" x="145.890213" y="307.872" style="stroke: #000000; stroke-width: 0.8"/>
      </g>
     </g>
     <g id="text_2">
      <!-- -1 -->
      <g transform="translate(140.905057 322.470438) scale(0.1 -0.1)">
       <use xlink:href="#DejaVuSans-2d"/>
       <use xlink:href="#DejaVuSans-31" x="36.083984"/>
      </g>
     </g>
    </g>
    <g id="xtick_3">
     <g id="line2d_3">
      <g>
       <use xlink:href="#mad42934ca0" x="222.026414" y="307.872" style="stroke: #000000; stroke-width: 0.8"/>
      </g>
     </g>
     <g id="text_3">
      <!-- -0.5 -->
      <g transform="translate(212.270945 322.470438) scale(0.1 -0.1)">
       <defs>
        <path id="DejaVuSans-30" d="M 2034 4250 
Q 1547 4250 1301 3770 
Q 1056 3291 1056 2328 
Q 1056 1369 1301 889 
Q 1547 409 2034 409 
Q 2525 409 2770 889 
Q 3016 1369 3016 2328 
Q 3016 3291 2770 3770 
Q 2525 4250 2034 4250 
z
M 2034 4750 
Q 2819 4750 3233 4129 
Q 3647 3509 3647 2328 
Q 3647 1150 3233 529 
Q 2819 -91 2034 -91 
Q 1250 -91 836 529 
Q 422 1150 422 2328 
Q 422 3509 836 4129 
Q 1250 4750 2034 4750 
z
" transform="scale(0.015625)"/>
       </defs>
       <use xlink:href="#DejaVuSans-2d"/>
       <use xlink:href="#DejaVuSans-30" x="36.083984"/>
       <use xlink:href="#DejaVuSans-2e" x="99.707031"/>
       <use xlink:href="#DejaVuSans-35" x="131.494141"/>
      </g>
     </g>
    </g>
    <g id="xtick_4">
     <g id="line2d_4">
      <g>
       <use xlink:href="#mad42934ca0" x="298.162614" y="307.872" style="stroke: #000000; stroke-width: 0.8"/>
      </g>
     </g>
     <g id="text_4">
      <!-- 0 -->
      <g transform="translate(294.981364 322.470438) scale(0.1 -0.1)">
       <use xlink:href="#DejaVuSans-30"/>
      </g>
     </g>
    </g>
    <g id="xtick_5">
     <g id="line2d_5">
      <g>
       <use xlink:href="#mad42934ca0" x="374.298815" y="307.872" style="stroke: #000000; stroke-width: 0.8"/>
      </g>
     </g>
     <g id="text_5">
      <!-- 0.5 -->
      <g transform="translate(366.347252 322.470438) scale(0.1 -0.1)">
       <use xlink:href="#DejaVuSans-30"/>
       <use xlink:href="#DejaVuSans-2e" x="63.623047"/>
       <use xlink:href="#DejaVuSans-35" x="95.410156"/>
      </g>
     </g>
    </g>
    <g id="text_6">
     <!-- Re$(S_{21})$ [mV] -->
     <g transform="translate(193.949063 336.148562) scale(0.1 -0.1)">
      <defs>
       <path id="DejaVuSans-52" d="M 2841 2188 
Q 3044 2119 3236 1894 
Q 3428 1669 3622 1275 
L 4263 0 
L 3584 0 
L 2988 1197 
Q 2756 1666 2539 1819 
Q 2322 1972 1947 1972 
L 1259 1972 
L 1259 0 
L 628 0 
L 628 4666 
L 2053 4666 
Q 2853 4666 3247 4331 
Q 3641 3997 3641 3322 
Q 3641 2881 3436 2590 
Q 3231 2300 2841 2188 
z
M 1259 4147 
L 1259 2491 
L 2053 2491 
Q 2509 2491 2742 2702 
Q 2975 2913 2975 3322 
Q 2975 3731 2742 3939 
Q 2509 4147 2053 4147 
L 1259 4147 
z
" transform="scale(0.015625)"/>
       <path id="DejaVuSans-65" d="M 3597 1894 
L 3597 1613 
L 953 1613 
Q 991 1019 1311 708 
Q 1631 397 2203 397 
Q 2534 397 2845 478 
Q 3156 559 3463 722 
L 3463 178 
Q 3153 47 2828 -22 
Q 2503 -91 2169 -91 
Q 1331 -91 842 396 
Q 353 884 353 1716 
Q 353 2575 817 3079 
Q 1281 3584 2069 3584 
Q 2775 3584 3186 3129 
Q 3597 2675 3597 1894 
z
M 3022 2063 
Q 3016 2534 2758 2815 
Q 2500 3097 2075 3097 
Q 1594 3097 1305 2825 
Q 1016 2553 972 2059 
L 3022 2063 
z
" transform="scale(0.015625)"/>
       <path id="DejaVuSans-28" d="M 1984 4856 
Q 1566 4138 1362 3434 
Q 1159 2731 1159 2009 
Q 1159 1288 1364 580 
Q 1569 -128 1984 -844 
L 1484 -844 
Q 1016 -109 783 600 
Q 550 1309 550 2009 
Q 550 2706 781 3412 
Q 1013 4119 1484 4856 
L 1984 4856 
z
" transform="scale(0.015625)"/>
       <path id="DejaVuSans-Oblique-53" d="M 3859 4513 
L 3738 3897 
Q 3422 4066 3111 4152 
Q 2800 4238 2509 4238 
Q 1944 4238 1609 3991 
Q 1275 3744 1275 3334 
Q 1275 3109 1398 2989 
Q 1522 2869 2034 2731 
L 2413 2638 
Q 3053 2472 3303 2217 
Q 3553 1963 3553 1503 
Q 3553 797 2998 353 
Q 2444 -91 1538 -91 
Q 1166 -91 791 -17 
Q 416 56 38 206 
L 166 856 
Q 513 641 861 531 
Q 1209 422 1556 422 
Q 2147 422 2503 684 
Q 2859 947 2859 1369 
Q 2859 1650 2717 1795 
Q 2575 1941 2106 2059 
L 1728 2156 
Q 1081 2325 845 2545 
Q 609 2766 609 3163 
Q 609 3859 1145 4304 
Q 1681 4750 2541 4750 
Q 2875 4750 3203 4690 
Q 3531 4631 3859 4513 
z
" transform="scale(0.015625)"/>
       <path id="DejaVuSans-32" d="M 1228 531 
L 3431 531 
L 3431 0 
L 469 0 
L 469 531 
Q 828 903 1448 1529 
Q 2069 2156 2228 2338 
Q 2531 2678 2651 2914 
Q 2772 3150 2772 3378 
Q 2772 3750 2511 3984 
Q 2250 4219 1831 4219 
Q 1534 4219 1204 4116 
Q 875 4013 500 3803 
L 500 4441 
Q 881 4594 1212 4672 
Q 1544 4750 1819 4750 
Q 2544 4750 2975 4387 
Q 3406 4025 3406 3419 
Q 3406 3131 3298 2873 
Q 3191 2616 2906 2266 
Q 2828 2175 2409 1742 
Q 1991 1309 1228 531 
z
" transform="scale(0.015625)"/>
       <path id="DejaVuSans-29" d="M 513 4856 
L 1013 4856 
Q 1481 4119 1714 3412 
Q 1947 2706 1947 2009 
Q 1947 1309 1714 600 
Q 1481 -109 1013 -844 
L 513 -844 
Q 928 -128 1133 580 
Q 1338 1288 1338 2009 
Q 1338 2731 1133 3434 
Q 928 4138 513 4856 
z
" transform="scale(0.015625)"/>
       <path id="DejaVuSans-20" transform="scale(0.015625)"/>
       <path id="DejaVuSans-5b" d="M 550 4863 
L 1875 4863 
L 1875 4416 
L 1125 4416 
L 1125 -397 
L 1875 -397 
L 1875 -844 
L 550 -844 
L 550 4863 
z
" transform="scale(0.015625)"/>
       <path id="DejaVuSans-6d" d="M 3328 2828 
Q 3544 3216 3844 3400 
Q 4144 3584 4550 3584 
Q 5097 3584 5394 3201 
Q 5691 2819 5691 2113 
L 5691 0 
L 5113 0 
L 5113 2094 
Q 5113 2597 4934 2840 
Q 4756 3084 4391 3084 
Q 3944 3084 3684 2787 
Q 3425 2491 3425 1978 
L 3425 0 
L 2847 0 
L 2847 2094 
Q 2847 2600 2669 2842 
Q 2491 3084 2119 3084 
Q 1678 3084 1418 2786 
Q 1159 2488 1159 1978 
L 1159 0 
L 581 0 
L 581 3500 
L 1159 3500 
L 1159 2956 
Q 1356 3278 1631 3431 
Q 1906 3584 2284 3584 
Q 2666 3584 2933 3390 
Q 3200 3197 3328 2828 
z
" transform="scale(0.015625)"/>
       <path id="DejaVuSans-56" d="M 1831 0 
L 50 4666 
L 709 4666 
L 2188 738 
L 3669 4666 
L 4325 4666 
L 2547 0 
L 1831 0 
z
" transform="scale(0.015625)"/>
       <path id="DejaVuSans-5d" d="M 1947 4863 
L 1947 -844 
L 622 -844 
L 622 -397 
L 1369 -397 
L 1369 4416 
L 622 4416 
L 622 4863 
L 1947 4863 
z
" transform="scale(0.015625)"/>
      </defs>
      <use xlink:href="#DejaVuSans-52" transform="translate(0 0.015625)"/>
      <use xlink:href="#DejaVuSans-65" transform="translate(69.482422 0.015625)"/>
      <use xlink:href="#DejaVuSans-28" transform="translate(131.005859 0.015625)"/>
      <use xlink:href="#DejaVuSans-Oblique-53" transform="translate(170.019531 0.015625)"/>
      <use xlink:href="#DejaVuSans-32" transform="translate(233.496094 -16.390625) scale(0.7)"/>
      <use xlink:href="#DejaVuSans-31" transform="translate(278.032227 -16.390625) scale(0.7)"/>
      <use xlink:href="#DejaVuSans-29" transform="translate(325.302734 0.015625)"/>
      <use xlink:href="#DejaVuSans-20" transform="translate(364.316406 0.015625)"/>
      <use xlink:href="#DejaVuSans-5b" transform="translate(396.103516 0.015625)"/>
      <use xlink:href="#DejaVuSans-6d" transform="translate(435.117188 0.015625)"/>
      <use xlink:href="#DejaVuSans-56" transform="translate(532.529297 0.015625)"/>
      <use xlink:href="#DejaVuSans-5d" transform="translate(600.9375 0.015625)"/>
     </g>
    </g>
   </g>
   <g id="matplotlib.axis_2">
    <g id="ytick_1">
     <g id="line2d_6">
      <defs>
       <path id="m9b8f5688ac" d="M 0 0 
L -3.5 0 
" style="stroke: #000000; stroke-width: 0.8"/>
      </defs>
      <g>
       <use xlink:href="#m9b8f5688ac" x="47.389063" y="261.903662" style="stroke: #000000; stroke-width: 0.8"/>
      </g>
     </g>
     <g id="text_7">
      <!-- -4 -->
      <g transform="translate(30.41875 265.702881) scale(0.1 -0.1)">
       <defs>
        <path id="DejaVuSans-34" d="M 2419 4116 
L 825 1625 
L 2419 1625 
L 2419 4116 
z
M 2253 4666 
L 3047 4666 
L 3047 1625 
L 3713 1625 
L 3713 1100 
L 3047 1100 
L 3047 0 
L 2419 0 
L 2419 1100 
L 313 1100 
L 313 1709 
L 2253 4666 
z
" transform="scale(0.015625)"/>
       </defs>
       <use xlink:href="#DejaVuSans-2d"/>
       <use xlink:href="#DejaVuSans-34" x="36.083984"/>
      </g>
     </g>
    </g>
    <g id="ytick_2">
     <g id="line2d_7">
      <g>
       <use xlink:href="#m9b8f5688ac" x="47.389063" y="211.581578" style="stroke: #000000; stroke-width: 0.8"/>
      </g>
     </g>
     <g id="text_8">
      <!-- -3.5 -->
      <g transform="translate(20.878125 215.380796) scale(0.1 -0.1)">
       <defs>
        <path id="DejaVuSans-33" d="M 2597 2516 
Q 3050 2419 3304 2112 
Q 3559 1806 3559 1356 
Q 3559 666 3084 287 
Q 2609 -91 1734 -91 
Q 1441 -91 1130 -33 
Q 819 25 488 141 
L 488 750 
Q 750 597 1062 519 
Q 1375 441 1716 441 
Q 2309 441 2620 675 
Q 2931 909 2931 1356 
Q 2931 1769 2642 2001 
Q 2353 2234 1838 2234 
L 1294 2234 
L 1294 2753 
L 1863 2753 
Q 2328 2753 2575 2939 
Q 2822 3125 2822 3475 
Q 2822 3834 2567 4026 
Q 2313 4219 1838 4219 
Q 1578 4219 1281 4162 
Q 984 4106 628 3988 
L 628 4550 
Q 988 4650 1302 4700 
Q 1616 4750 1894 4750 
Q 2613 4750 3031 4423 
Q 3450 4097 3450 3541 
Q 3450 3153 3228 2886 
Q 3006 2619 2597 2516 
z
" transform="scale(0.015625)"/>
       </defs>
       <use xlink:href="#DejaVuSans-2d"/>
       <use xlink:href="#DejaVuSans-33" x="36.083984"/>
       <use xlink:href="#DejaVuSans-2e" x="99.707031"/>
       <use xlink:href="#DejaVuSans-35" x="131.494141"/>
      </g>
     </g>
    </g>
    <g id="ytick_3">
     <g id="line2d_8">
      <g>
       <use xlink:href="#m9b8f5688ac" x="47.389063" y="161.259493" style="stroke: #000000; stroke-width: 0.8"/>
      </g>
     </g>
     <g id="text_9">
      <!-- -3 -->
      <g transform="translate(30.41875 165.058712) scale(0.1 -0.1)">
       <use xlink:href="#DejaVuSans-2d"/>
       <use xlink:href="#DejaVuSans-33" x="36.083984"/>
      </g>
     </g>
    </g>
    <g id="ytick_4">
     <g id="line2d_9">
      <g>
       <use xlink:href="#m9b8f5688ac" x="47.389063" y="110.937409" style="stroke: #000000; stroke-width: 0.8"/>
      </g>
     </g>
     <g id="text_10">
      <!-- -2.5 -->
      <g transform="translate(20.878125 114.736627) scale(0.1 -0.1)">
       <use xlink:href="#DejaVuSans-2d"/>
       <use xlink:href="#DejaVuSans-32" x="36.083984"/>
       <use xlink:href="#DejaVuSans-2e" x="99.707031"/>
       <use xlink:href="#DejaVuSans-35" x="131.494141"/>
      </g>
     </g>
    </g>
    <g id="ytick_5">
     <g id="line2d_10">
      <g>
       <use xlink:href="#m9b8f5688ac" x="47.389063" y="60.615324" style="stroke: #000000; stroke-width: 0.8"/>
      </g>
     </g>
     <g id="text_11">
      <!-- -2 -->
      <g transform="translate(30.41875 64.414543) scale(0.1 -0.1)">
       <use xlink:href="#DejaVuSans-2d"/>
       <use xlink:href="#DejaVuSans-32" x="36.083984"/>
      </g>
     </g>
    </g>
    <g id="text_12">
     <!-- Im$(S_{21})$ [mV] -->
     <g transform="translate(14.798438 206.466) rotate(-90) scale(0.1 -0.1)">
      <defs>
       <path id="DejaVuSans-49" d="M 628 4666 
L 1259 4666 
L 1259 0 
L 628 0 
L 628 4666 
z
" transform="scale(0.015625)"/>
      </defs>
      <use xlink:href="#DejaVuSans-49" transform="translate(0 0.015625)"/>
      <use xlink:href="#DejaVuSans-6d" transform="translate(25.867188 0.015625)"/>
      <use xlink:href="#DejaVuSans-28" transform="translate(123.279297 0.015625)"/>
      <use xlink:href="#DejaVuSans-Oblique-53" transform="translate(162.292969 0.015625)"/>
      <use xlink:href="#DejaVuSans-32" transform="translate(225.769531 -16.390625) scale(0.7)"/>
      <use xlink:href="#DejaVuSans-31" transform="translate(270.305664 -16.390625) scale(0.7)"/>
      <use xlink:href="#DejaVuSans-29" transform="translate(317.576172 0.015625)"/>
      <use xlink:href="#DejaVuSans-20" transform="translate(356.589844 0.015625)"/>
      <use xlink:href="#DejaVuSans-5b" transform="translate(388.376953 0.015625)"/>
      <use xlink:href="#DejaVuSans-6d" transform="translate(427.390625 0.015625)"/>
      <use xlink:href="#DejaVuSans-56" transform="translate(524.802734 0.015625)"/>
      <use xlink:href="#DejaVuSans-5d" transform="translate(593.210938 0.015625)"/>
     </g>
    </g>
   </g>
   <g id="line2d_11">
    <path d="M 265.564931 283.637733 
L 268.290841 289.694848 
L 280.336585 281.403818 
L 262.803976 288.537137 
L 262.888778 291.95575 
L 256.880701 295.776 
L 261.408455 282.163716 
L 241.346817 289.030224 
L 245.648266 278.07589 
L 240.06668 287.013844 
L 245.945653 280.885383 
L 249.260717 285.518085 
L 244.921742 287.061809 
L 236.42993 289.886707 
L 221.70638 283.696078 
L 228.027052 278.610824 
L 217.549574 284.211235 
L 214.656704 286.316879 
L 210.413773 289.80957 
L 206.920013 279.811146 
L 216.525828 280.271127 
L 207.364358 291.971483 
L 204.37313 284.542509 
L 197.016645 290.766135 
L 183.571413 275.97265 
L 195.002877 283.620142 
L 178.784788 281.90499 
L 173.319743 274.9608 
L 185.047107 276.161122 
L 171.471778 283.283952 
L 170.710044 288.4954 
L 159.366688 271.518696 
L 146.12842 270.872427 
L 160.260007 269.562081 
L 141.692742 270.425011 
L 133.31185 277.732598 
L 143.312253 268.912207 
L 113.725964 274.840396 
L 128.9942 265.645573 
L 118.63409 258.570599 
L 107.487614 258.734597 
L 105.118602 257.140395 
L 92.351624 261.279573 
L 104.6407 251.174184 
L 85.737862 242.089277 
L 74.795871 241.002584 
L 74.56907 235.806978 
L 63.62179 237.489571 
L 80.599133 228.687426 
L 88.26871 222.359348 
L 97.446381 188.460679 
L 115.020978 179.440016 
L 115.465488 186.046049 
L 118.345795 166.397519 
L 138.331392 183.51637 
L 124.56034 151.551589 
L 114.379753 152.008512 
L 114.749875 149.693854 
L 114.834181 133.184889 
L 84.474422 141.998834 
L 84.184639 135.112987 
L 86.820622 124.152972 
L 97.365215 137.299811 
L 110.017636 112.92265 
L 92.162182 109.481311 
L 123.881094 100.668677 
L 133.021075 95.131199 
L 128.206679 96.407894 
L 114.539439 76.250543 
L 150.194473 86.161123 
L 168.198703 85.517258 
L 157.132236 76.225632 
L 178.880996 74.925556 
L 171.962574 68.863197 
L 202.660221 77.772088 
L 209.133472 61.142937 
L 203.865638 56.3576 
L 225.069052 60.312567 
L 232.601754 60.456461 
L 236.428277 56.19688 
L 258.915132 54.217757 
L 257.293142 53.856 
L 269.662722 60.795056 
L 276.871588 59.019046 
L 296.578809 68.161971 
L 297.010591 56.901274 
L 315.844 86.693216 
L 314.455918 79.534767 
L 312.956089 84.942336 
L 323.141801 107.971129 
L 335.002733 109.854431 
L 355.481441 118.104379 
L 353.034899 104.261559 
L 357.69523 113.043709 
L 348.488961 113.089707 
L 373.17291 101.417431 
L 348.05718 108.190849 
L 366.177455 100.217764 
L 371.037807 107.89574 
L 388.276335 111.092229 
L 381.998147 109.213516 
L 380.325737 111.236342 
L 382.425465 124.071137 
L 380.475009 122.912661 
L 375.094933 126.841405 
L 378.926911 130.276735 
L 384.248138 137.229339 
L 368.98701 148.672389 
L 382.451253 150.617423 
L 380.889103 154.594678 
L 372.748898 157.496495 
L 379.93925 159.709978 
L 370.281528 163.966391 
L 367.841103 158.847814 
L 372.584748 161.436275 
L 366.889431 164.486247 
L 359.955305 162.697891 
L 367.183678 168.945992 
L 354.573741 184.860696 
L 353.871187 183.147838 
L 338.394664 169.690156 
L 359.80719 164.797527 
L 357.301304 175.486906 
L 366.455997 185.667357 
L 349.913575 174.218188 
L 343.671589 178.15906 
L 339.223678 182.524514 
L 345.667504 193.375051 
L 346.212851 194.904135 
L 345.013881 182.908123 
L 342.201681 197.153455 
L 341.040731 192.775983 
L 333.40405 194.540083 
L 346.602314 186.534766 
L 323.893947 191.569542 
L 341.716009 201.820465 
L 323.255698 194.173955 
L 339.968881 197.27069 
L 324.935711 206.211813 
L 337.497709 208.466596 
L 315.318655 204.769263 
L 329.256997 201.593642 
L 316.136593 203.530809 
L 326.638372 209.024692 
L 332.075644 218.166196 
L 337.433074 206.033392 
L 318.570736 212.35262 
L 313.052628 212.4633 
L 299.740138 212.962724 
L 317.636587 214.400685 
L 304.068036 212.474117 
L 311.174908 221.113574 
L 295.993127 217.035909 
L 307.191013 216.000569 
L 301.618354 221.652222 
L 309.01038 217.108457 
L 302.312312 217.038641 
L 291.836983 215.909446 
L 316.793026 206.475783 
L 293.31995 224.319897 
L 291.115418 219.218691 
L 297.685373 227.736871 
L 295.624493 220.218632 
L 299.662939 222.487619 
L 276.62743 222.101169 
L 277.747053 223.868765 
L 287.061929 218.656552 
L 283.389803 223.907661 
L 271.696823 220.779241 
L 289.361512 227.81805 
L 264.911473 221.888113 
L 276.873076 219.125383 
L 281.7774 233.379784 
L 268.230338 220.543241 
L 267.882863 225.722895 
L 285.021381 223.934102 
L 260.55167 231.069278 
L 280.003988 228.226898 
L 270.452062 225.120985 
L 258.214562 225.870067 
L 275.52037 224.903122 
L 261.990336 233.256649 
L 279.757846 233.623432 
L 250.021128 225.75316 
L 263.303037 217.033069 
L 269.796455 227.959978 
L 248.361778 225.582606 
L 263.026809 234.059923 
L 262.449889 236.49105 
L 263.879297 233.209558 
L 256.441481 229.190128 
L 250.127751 230.69288 
L 264.005095 232.249934 
L 244.24134 225.392604 
L 245.416506 226.137643 
L 242.706961 230.697687 
L 250.365132 238.166213 
L 238.443863 231.722102 
L 244.885375 233.202893 
L 244.885375 233.202893 
" clip-path="url(#pdf8e978331)" style="fill: none; stroke: #1f77b4; stroke-width: 1.5; stroke-linecap: square"/>
    <defs>
     <path id="me50f8c60ba" d="M 0 1.5 
C 0.397805 1.5 0.77937 1.341951 1.06066 1.06066 
C 1.341951 0.77937 1.5 0.397805 1.5 0 
C 1.5 -0.397805 1.341951 -0.77937 1.06066 -1.06066 
C 0.77937 -1.341951 0.397805 -1.5 0 -1.5 
C -0.397805 -1.5 -0.77937 -1.341951 -1.06066 -1.06066 
C -1.341951 -0.77937 -1.5 -0.397805 -1.5 0 
C -1.5 0.397805 -1.341951 0.77937 -1.06066 1.06066 
C -0.77937 1.341951 -0.397805 1.5 0 1.5 
z
" style="stroke: #1f77b4"/>
    </defs>
    <g clip-path="url(#pdf8e978331)">
     <use xlink:href="#me50f8c60ba" x="265.564931" y="283.637733" style="fill: #1f77b4; stroke: #1f77b4"/>
     <use xlink:href="#me50f8c60ba" x="268.290841" y="289.694848" style="fill: #1f77b4; stroke: #1f77b4"/>
     <use xlink:href="#me50f8c60ba" x="280.336585" y="281.403818" style="fill: #1f77b4; stroke: #1f77b4"/>
     <use xlink:href="#me50f8c60ba" x="262.803976" y="288.537137" style="fill: #1f77b4; stroke: #1f77b4"/>
     <use xlink:href="#me50f8c60ba" x="262.888778" y="291.95575" style="fill: #1f77b4; stroke: #1f77b4"/>
     <use xlink:href="#me50f8c60ba" x="256.880701" y="295.776" style="fill: #1f77b4; stroke: #1f77b4"/>
     <use xlink:href="#me50f8c60ba" x="261.408455" y="282.163716" style="fill: #1f77b4; stroke: #1f77b4"/>
     <use xlink:href="#me50f8c60ba" x="241.346817" y="289.030224" style="fill: #1f77b4; stroke: #1f77b4"/>
     <use xlink:href="#me50f8c60ba" x="245.648266" y="278.07589" style="fill: #1f77b4; stroke: #1f77b4"/>
     <use xlink:href="#me50f8c60ba" x="240.06668" y="287.013844" style="fill: #1f77b4; stroke: #1f77b4"/>
     <use xlink:href="#me50f8c60ba" x="245.945653" y="280.885383" style="fill: #1f77b4; stroke: #1f77b4"/>
     <use xlink:href="#me50f8c60ba" x="249.260717" y="285.518085" style="fill: #1f77b4; stroke: #1f77b4"/>
     <use xlink:href="#me50f8c60ba" x="244.921742" y="287.061809" style="fill: #1f77b4; stroke: #1f77b4"/>
     <use xlink:href="#me50f8c60ba" x="236.42993" y="289.886707" style="fill: #1f77b4; stroke: #1f77b4"/>
     <use xlink:href="#me50f8c60ba" x="221.70638" y="283.696078" style="fill: #1f77b4; stroke: #1f77b4"/>
     <use xlink:href="#me50f8c60ba" x="228.027052" y="278.610824" style="fill: #1f77b4; stroke: #1f77b4"/>
     <use xlink:href="#me50f8c60ba" x="217.549574" y="284.211235" style="fill: #1f77b4; stroke: #1f77b4"/>
     <use xlink:href="#me50f8c60ba" x="214.656704" y="286.316879" style="fill: #1f77b4; stroke: #1f77b4"/>
     <use xlink:href="#me50f8c60ba" x="210.413773" y="289.80957" style="fill: #1f77b4; stroke: #1f77b4"/>
     <use xlink:href="#me50f8c60ba" x="206.920013" y="279.811146" style="fill: #1f77b4; stroke: #1f77b4"/>
     <use xlink:href="#me50f8c60ba" x="216.525828" y="280.271127" style="fill: #1f77b4; stroke: #1f77b4"/>
     <use xlink:href="#me50f8c60ba" x="207.364358" y="291.971483" style="fill: #1f77b4; stroke: #1f77b4"/>
     <use xlink:href="#me50f8c60ba" x="204.37313" y="284.542509" style="fill: #1f77b4; stroke: #1f77b4"/>
     <use xlink:href="#me50f8c60ba" x="197.016645" y="290.766135" style="fill: #1f77b4; stroke: #1f77b4"/>
     <use xlink:href="#me50f8c60ba" x="183.571413" y="275.97265" style="fill: #1f77b4; stroke: #1f77b4"/>
     <use xlink:href="#me50f8c60ba" x="195.002877" y="283.620142" style="fill: #1f77b4; stroke: #1f77b4"/>
     <use xlink:href="#me50f8c60ba" x="184.235946" y="282.516296" style="fill: #1f77b4; stroke: #1f77b4"/>
     <use xlink:href="#me50f8c60ba" x="178.784788" y="281.90499" style="fill: #1f77b4; stroke: #1f77b4"/>
     <use xlink:href="#me50f8c60ba" x="173.319743" y="274.9608" style="fill: #1f77b4; stroke: #1f77b4"/>
     <use xlink:href="#me50f8c60ba" x="185.047107" y="276.161122" style="fill: #1f77b4; stroke: #1f77b4"/>
     <use xlink:href="#me50f8c60ba" x="171.471778" y="283.283952" style="fill: #1f77b4; stroke: #1f77b4"/>
     <use xlink:href="#me50f8c60ba" x="170.710044" y="288.4954" style="fill: #1f77b4; stroke: #1f77b4"/>
     <use xlink:href="#me50f8c60ba" x="159.366688" y="271.518696" style="fill: #1f77b4; stroke: #1f77b4"/>
     <use xlink:href="#me50f8c60ba" x="146.12842" y="270.872427" style="fill: #1f77b4; stroke: #1f77b4"/>
     <use xlink:href="#me50f8c60ba" x="160.260007" y="269.562081" style="fill: #1f77b4; stroke: #1f77b4"/>
     <use xlink:href="#me50f8c60ba" x="141.692742" y="270.425011" style="fill: #1f77b4; stroke: #1f77b4"/>
     <use xlink:href="#me50f8c60ba" x="133.31185" y="277.732598" style="fill: #1f77b4; stroke: #1f77b4"/>
     <use xlink:href="#me50f8c60ba" x="143.312253" y="268.912207" style="fill: #1f77b4; stroke: #1f77b4"/>
     <use xlink:href="#me50f8c60ba" x="113.725964" y="274.840396" style="fill: #1f77b4; stroke: #1f77b4"/>
     <use xlink:href="#me50f8c60ba" x="128.9942" y="265.645573" style="fill: #1f77b4; stroke: #1f77b4"/>
     <use xlink:href="#me50f8c60ba" x="118.63409" y="258.570599" style="fill: #1f77b4; stroke: #1f77b4"/>
     <use xlink:href="#me50f8c60ba" x="107.487614" y="258.734597" style="fill: #1f77b4; stroke: #1f77b4"/>
     <use xlink:href="#me50f8c60ba" x="105.118602" y="257.140395" style="fill: #1f77b4; stroke: #1f77b4"/>
     <use xlink:href="#me50f8c60ba" x="92.351624" y="261.279573" style="fill: #1f77b4; stroke: #1f77b4"/>
     <use xlink:href="#me50f8c60ba" x="104.6407" y="251.174184" style="fill: #1f77b4; stroke: #1f77b4"/>
     <use xlink:href="#me50f8c60ba" x="85.737862" y="242.089277" style="fill: #1f77b4; stroke: #1f77b4"/>
     <use xlink:href="#me50f8c60ba" x="74.795871" y="241.002584" style="fill: #1f77b4; stroke: #1f77b4"/>
     <use xlink:href="#me50f8c60ba" x="74.56907" y="235.806978" style="fill: #1f77b4; stroke: #1f77b4"/>
     <use xlink:href="#me50f8c60ba" x="63.62179" y="237.489571" style="fill: #1f77b4; stroke: #1f77b4"/>
     <use xlink:href="#me50f8c60ba" x="80.599133" y="228.687426" style="fill: #1f77b4; stroke: #1f77b4"/>
     <use xlink:href="#me50f8c60ba" x="88.26871" y="222.359348" style="fill: #1f77b4; stroke: #1f77b4"/>
     <use xlink:href="#me50f8c60ba" x="97.446381" y="188.460679" style="fill: #1f77b4; stroke: #1f77b4"/>
     <use xlink:href="#me50f8c60ba" x="115.020978" y="179.440016" style="fill: #1f77b4; stroke: #1f77b4"/>
     <use xlink:href="#me50f8c60ba" x="115.465488" y="186.046049" style="fill: #1f77b4; stroke: #1f77b4"/>
     <use xlink:href="#me50f8c60ba" x="118.345795" y="166.397519" style="fill: #1f77b4; stroke: #1f77b4"/>
     <use xlink:href="#me50f8c60ba" x="138.331392" y="183.51637" style="fill: #1f77b4; stroke: #1f77b4"/>
     <use xlink:href="#me50f8c60ba" x="124.56034" y="151.551589" style="fill: #1f77b4; stroke: #1f77b4"/>
     <use xlink:href="#me50f8c60ba" x="114.379753" y="152.008512" style="fill: #1f77b4; stroke: #1f77b4"/>
     <use xlink:href="#me50f8c60ba" x="114.749875" y="149.693854" style="fill: #1f77b4; stroke: #1f77b4"/>
     <use xlink:href="#me50f8c60ba" x="114.834181" y="133.184889" style="fill: #1f77b4; stroke: #1f77b4"/>
     <use xlink:href="#me50f8c60ba" x="84.474422" y="141.998834" style="fill: #1f77b4; stroke: #1f77b4"/>
     <use xlink:href="#me50f8c60ba" x="84.184639" y="135.112987" style="fill: #1f77b4; stroke: #1f77b4"/>
     <use xlink:href="#me50f8c60ba" x="86.820622" y="124.152972" style="fill: #1f77b4; stroke: #1f77b4"/>
     <use xlink:href="#me50f8c60ba" x="97.365215" y="137.299811" style="fill: #1f77b4; stroke: #1f77b4"/>
     <use xlink:href="#me50f8c60ba" x="110.017636" y="112.92265" style="fill: #1f77b4; stroke: #1f77b4"/>
     <use xlink:href="#me50f8c60ba" x="92.162182" y="109.481311" style="fill: #1f77b4; stroke: #1f77b4"/>
     <use xlink:href="#me50f8c60ba" x="123.881094" y="100.668677" style="fill: #1f77b4; stroke: #1f77b4"/>
     <use xlink:href="#me50f8c60ba" x="133.021075" y="95.131199" style="fill: #1f77b4; stroke: #1f77b4"/>
     <use xlink:href="#me50f8c60ba" x="128.206679" y="96.407894" style="fill: #1f77b4; stroke: #1f77b4"/>
     <use xlink:href="#me50f8c60ba" x="114.539439" y="76.250543" style="fill: #1f77b4; stroke: #1f77b4"/>
     <use xlink:href="#me50f8c60ba" x="150.194473" y="86.161123" style="fill: #1f77b4; stroke: #1f77b4"/>
     <use xlink:href="#me50f8c60ba" x="168.198703" y="85.517258" style="fill: #1f77b4; stroke: #1f77b4"/>
     <use xlink:href="#me50f8c60ba" x="157.132236" y="76.225632" style="fill: #1f77b4; stroke: #1f77b4"/>
     <use xlink:href="#me50f8c60ba" x="178.880996" y="74.925556" style="fill: #1f77b4; stroke: #1f77b4"/>
     <use xlink:href="#me50f8c60ba" x="171.962574" y="68.863197" style="fill: #1f77b4; stroke: #1f77b4"/>
     <use xlink:href="#me50f8c60ba" x="202.660221" y="77.772088" style="fill: #1f77b4; stroke: #1f77b4"/>
     <use xlink:href="#me50f8c60ba" x="209.133472" y="61.142937" style="fill: #1f77b4; stroke: #1f77b4"/>
     <use xlink:href="#me50f8c60ba" x="203.865638" y="56.3576" style="fill: #1f77b4; stroke: #1f77b4"/>
     <use xlink:href="#me50f8c60ba" x="225.069052" y="60.312567" style="fill: #1f77b4; stroke: #1f77b4"/>
     <use xlink:href="#me50f8c60ba" x="232.601754" y="60.456461" style="fill: #1f77b4; stroke: #1f77b4"/>
     <use xlink:href="#me50f8c60ba" x="236.428277" y="56.19688" style="fill: #1f77b4; stroke: #1f77b4"/>
     <use xlink:href="#me50f8c60ba" x="258.915132" y="54.217757" style="fill: #1f77b4; stroke: #1f77b4"/>
     <use xlink:href="#me50f8c60ba" x="257.293142" y="53.856" style="fill: #1f77b4; stroke: #1f77b4"/>
     <use xlink:href="#me50f8c60ba" x="269.662722" y="60.795056" style="fill: #1f77b4; stroke: #1f77b4"/>
     <use xlink:href="#me50f8c60ba" x="276.871588" y="59.019046" style="fill: #1f77b4; stroke: #1f77b4"/>
     <use xlink:href="#me50f8c60ba" x="296.578809" y="68.161971" style="fill: #1f77b4; stroke: #1f77b4"/>
     <use xlink:href="#me50f8c60ba" x="297.010591" y="56.901274" style="fill: #1f77b4; stroke: #1f77b4"/>
     <use xlink:href="#me50f8c60ba" x="315.844" y="86.693216" style="fill: #1f77b4; stroke: #1f77b4"/>
     <use xlink:href="#me50f8c60ba" x="314.455918" y="79.534767" style="fill: #1f77b4; stroke: #1f77b4"/>
     <use xlink:href="#me50f8c60ba" x="312.956089" y="84.942336" style="fill: #1f77b4; stroke: #1f77b4"/>
     <use xlink:href="#me50f8c60ba" x="323.141801" y="107.971129" style="fill: #1f77b4; stroke: #1f77b4"/>
     <use xlink:href="#me50f8c60ba" x="335.002733" y="109.854431" style="fill: #1f77b4; stroke: #1f77b4"/>
     <use xlink:href="#me50f8c60ba" x="355.481441" y="118.104379" style="fill: #1f77b4; stroke: #1f77b4"/>
     <use xlink:href="#me50f8c60ba" x="353.034899" y="104.261559" style="fill: #1f77b4; stroke: #1f77b4"/>
     <use xlink:href="#me50f8c60ba" x="357.69523" y="113.043709" style="fill: #1f77b4; stroke: #1f77b4"/>
     <use xlink:href="#me50f8c60ba" x="348.488961" y="113.089707" style="fill: #1f77b4; stroke: #1f77b4"/>
     <use xlink:href="#me50f8c60ba" x="373.17291" y="101.417431" style="fill: #1f77b4; stroke: #1f77b4"/>
     <use xlink:href="#me50f8c60ba" x="348.05718" y="108.190849" style="fill: #1f77b4; stroke: #1f77b4"/>
     <use xlink:href="#me50f8c60ba" x="366.177455" y="100.217764" style="fill: #1f77b4; stroke: #1f77b4"/>
     <use xlink:href="#me50f8c60ba" x="371.037807" y="107.89574" style="fill: #1f77b4; stroke: #1f77b4"/>
     <use xlink:href="#me50f8c60ba" x="388.276335" y="111.092229" style="fill: #1f77b4; stroke: #1f77b4"/>
     <use xlink:href="#me50f8c60ba" x="381.998147" y="109.213516" style="fill: #1f77b4; stroke: #1f77b4"/>
     <use xlink:href="#me50f8c60ba" x="380.325737" y="111.236342" style="fill: #1f77b4; stroke: #1f77b4"/>
     <use xlink:href="#me50f8c60ba" x="382.425465" y="124.071137" style="fill: #1f77b4; stroke: #1f77b4"/>
     <use xlink:href="#me50f8c60ba" x="380.475009" y="122.912661" style="fill: #1f77b4; stroke: #1f77b4"/>
     <use xlink:href="#me50f8c60ba" x="375.094933" y="126.841405" style="fill: #1f77b4; stroke: #1f77b4"/>
     <use xlink:href="#me50f8c60ba" x="378.926911" y="130.276735" style="fill: #1f77b4; stroke: #1f77b4"/>
     <use xlink:href="#me50f8c60ba" x="384.248138" y="137.229339" style="fill: #1f77b4; stroke: #1f77b4"/>
     <use xlink:href="#me50f8c60ba" x="368.98701" y="148.672389" style="fill: #1f77b4; stroke: #1f77b4"/>
     <use xlink:href="#me50f8c60ba" x="382.451253" y="150.617423" style="fill: #1f77b4; stroke: #1f77b4"/>
     <use xlink:href="#me50f8c60ba" x="380.889103" y="154.594678" style="fill: #1f77b4; stroke: #1f77b4"/>
     <use xlink:href="#me50f8c60ba" x="372.748898" y="157.496495" style="fill: #1f77b4; stroke: #1f77b4"/>
     <use xlink:href="#me50f8c60ba" x="379.93925" y="159.709978" style="fill: #1f77b4; stroke: #1f77b4"/>
     <use xlink:href="#me50f8c60ba" x="370.281528" y="163.966391" style="fill: #1f77b4; stroke: #1f77b4"/>
     <use xlink:href="#me50f8c60ba" x="367.841103" y="158.847814" style="fill: #1f77b4; stroke: #1f77b4"/>
     <use xlink:href="#me50f8c60ba" x="372.584748" y="161.436275" style="fill: #1f77b4; stroke: #1f77b4"/>
     <use xlink:href="#me50f8c60ba" x="366.889431" y="164.486247" style="fill: #1f77b4; stroke: #1f77b4"/>
     <use xlink:href="#me50f8c60ba" x="359.955305" y="162.697891" style="fill: #1f77b4; stroke: #1f77b4"/>
     <use xlink:href="#me50f8c60ba" x="367.183678" y="168.945992" style="fill: #1f77b4; stroke: #1f77b4"/>
     <use xlink:href="#me50f8c60ba" x="354.573741" y="184.860696" style="fill: #1f77b4; stroke: #1f77b4"/>
     <use xlink:href="#me50f8c60ba" x="353.871187" y="183.147838" style="fill: #1f77b4; stroke: #1f77b4"/>
     <use xlink:href="#me50f8c60ba" x="338.394664" y="169.690156" style="fill: #1f77b4; stroke: #1f77b4"/>
     <use xlink:href="#me50f8c60ba" x="359.80719" y="164.797527" style="fill: #1f77b4; stroke: #1f77b4"/>
     <use xlink:href="#me50f8c60ba" x="357.301304" y="175.486906" style="fill: #1f77b4; stroke: #1f77b4"/>
     <use xlink:href="#me50f8c60ba" x="366.455997" y="185.667357" style="fill: #1f77b4; stroke: #1f77b4"/>
     <use xlink:href="#me50f8c60ba" x="349.913575" y="174.218188" style="fill: #1f77b4; stroke: #1f77b4"/>
     <use xlink:href="#me50f8c60ba" x="343.671589" y="178.15906" style="fill: #1f77b4; stroke: #1f77b4"/>
     <use xlink:href="#me50f8c60ba" x="339.223678" y="182.524514" style="fill: #1f77b4; stroke: #1f77b4"/>
     <use xlink:href="#me50f8c60ba" x="345.667504" y="193.375051" style="fill: #1f77b4; stroke: #1f77b4"/>
     <use xlink:href="#me50f8c60ba" x="346.212851" y="194.904135" style="fill: #1f77b4; stroke: #1f77b4"/>
     <use xlink:href="#me50f8c60ba" x="345.013881" y="182.908123" style="fill: #1f77b4; stroke: #1f77b4"/>
     <use xlink:href="#me50f8c60ba" x="342.201681" y="197.153455" style="fill: #1f77b4; stroke: #1f77b4"/>
     <use xlink:href="#me50f8c60ba" x="341.040731" y="192.775983" style="fill: #1f77b4; stroke: #1f77b4"/>
     <use xlink:href="#me50f8c60ba" x="333.40405" y="194.540083" style="fill: #1f77b4; stroke: #1f77b4"/>
     <use xlink:href="#me50f8c60ba" x="346.602314" y="186.534766" style="fill: #1f77b4; stroke: #1f77b4"/>
     <use xlink:href="#me50f8c60ba" x="323.893947" y="191.569542" style="fill: #1f77b4; stroke: #1f77b4"/>
     <use xlink:href="#me50f8c60ba" x="341.716009" y="201.820465" style="fill: #1f77b4; stroke: #1f77b4"/>
     <use xlink:href="#me50f8c60ba" x="323.255698" y="194.173955" style="fill: #1f77b4; stroke: #1f77b4"/>
     <use xlink:href="#me50f8c60ba" x="339.968881" y="197.27069" style="fill: #1f77b4; stroke: #1f77b4"/>
     <use xlink:href="#me50f8c60ba" x="324.935711" y="206.211813" style="fill: #1f77b4; stroke: #1f77b4"/>
     <use xlink:href="#me50f8c60ba" x="337.497709" y="208.466596" style="fill: #1f77b4; stroke: #1f77b4"/>
     <use xlink:href="#me50f8c60ba" x="315.318655" y="204.769263" style="fill: #1f77b4; stroke: #1f77b4"/>
     <use xlink:href="#me50f8c60ba" x="329.256997" y="201.593642" style="fill: #1f77b4; stroke: #1f77b4"/>
     <use xlink:href="#me50f8c60ba" x="316.136593" y="203.530809" style="fill: #1f77b4; stroke: #1f77b4"/>
     <use xlink:href="#me50f8c60ba" x="326.638372" y="209.024692" style="fill: #1f77b4; stroke: #1f77b4"/>
     <use xlink:href="#me50f8c60ba" x="332.075644" y="218.166196" style="fill: #1f77b4; stroke: #1f77b4"/>
     <use xlink:href="#me50f8c60ba" x="337.433074" y="206.033392" style="fill: #1f77b4; stroke: #1f77b4"/>
     <use xlink:href="#me50f8c60ba" x="318.570736" y="212.35262" style="fill: #1f77b4; stroke: #1f77b4"/>
     <use xlink:href="#me50f8c60ba" x="313.052628" y="212.4633" style="fill: #1f77b4; stroke: #1f77b4"/>
     <use xlink:href="#me50f8c60ba" x="299.740138" y="212.962724" style="fill: #1f77b4; stroke: #1f77b4"/>
     <use xlink:href="#me50f8c60ba" x="317.636587" y="214.400685" style="fill: #1f77b4; stroke: #1f77b4"/>
     <use xlink:href="#me50f8c60ba" x="304.068036" y="212.474117" style="fill: #1f77b4; stroke: #1f77b4"/>
     <use xlink:href="#me50f8c60ba" x="311.174908" y="221.113574" style="fill: #1f77b4; stroke: #1f77b4"/>
     <use xlink:href="#me50f8c60ba" x="295.993127" y="217.035909" style="fill: #1f77b4; stroke: #1f77b4"/>
     <use xlink:href="#me50f8c60ba" x="307.191013" y="216.000569" style="fill: #1f77b4; stroke: #1f77b4"/>
     <use xlink:href="#me50f8c60ba" x="301.618354" y="221.652222" style="fill: #1f77b4; stroke: #1f77b4"/>
     <use xlink:href="#me50f8c60ba" x="309.01038" y="217.108457" style="fill: #1f77b4; stroke: #1f77b4"/>
     <use xlink:href="#me50f8c60ba" x="302.312312" y="217.038641" style="fill: #1f77b4; stroke: #1f77b4"/>
     <use xlink:href="#me50f8c60ba" x="291.836983" y="215.909446" style="fill: #1f77b4; stroke: #1f77b4"/>
     <use xlink:href="#me50f8c60ba" x="316.793026" y="206.475783" style="fill: #1f77b4; stroke: #1f77b4"/>
     <use xlink:href="#me50f8c60ba" x="293.31995" y="224.319897" style="fill: #1f77b4; stroke: #1f77b4"/>
     <use xlink:href="#me50f8c60ba" x="291.115418" y="219.218691" style="fill: #1f77b4; stroke: #1f77b4"/>
     <use xlink:href="#me50f8c60ba" x="297.685373" y="227.736871" style="fill: #1f77b4; stroke: #1f77b4"/>
     <use xlink:href="#me50f8c60ba" x="295.624493" y="220.218632" style="fill: #1f77b4; stroke: #1f77b4"/>
     <use xlink:href="#me50f8c60ba" x="299.662939" y="222.487619" style="fill: #1f77b4; stroke: #1f77b4"/>
     <use xlink:href="#me50f8c60ba" x="276.62743" y="222.101169" style="fill: #1f77b4; stroke: #1f77b4"/>
     <use xlink:href="#me50f8c60ba" x="277.747053" y="223.868765" style="fill: #1f77b4; stroke: #1f77b4"/>
     <use xlink:href="#me50f8c60ba" x="287.061929" y="218.656552" style="fill: #1f77b4; stroke: #1f77b4"/>
     <use xlink:href="#me50f8c60ba" x="283.389803" y="223.907661" style="fill: #1f77b4; stroke: #1f77b4"/>
     <use xlink:href="#me50f8c60ba" x="271.696823" y="220.779241" style="fill: #1f77b4; stroke: #1f77b4"/>
     <use xlink:href="#me50f8c60ba" x="289.361512" y="227.81805" style="fill: #1f77b4; stroke: #1f77b4"/>
     <use xlink:href="#me50f8c60ba" x="264.911473" y="221.888113" style="fill: #1f77b4; stroke: #1f77b4"/>
     <use xlink:href="#me50f8c60ba" x="276.873076" y="219.125383" style="fill: #1f77b4; stroke: #1f77b4"/>
     <use xlink:href="#me50f8c60ba" x="281.7774" y="233.379784" style="fill: #1f77b4; stroke: #1f77b4"/>
     <use xlink:href="#me50f8c60ba" x="268.230338" y="220.543241" style="fill: #1f77b4; stroke: #1f77b4"/>
     <use xlink:href="#me50f8c60ba" x="267.882863" y="225.722895" style="fill: #1f77b4; stroke: #1f77b4"/>
     <use xlink:href="#me50f8c60ba" x="285.021381" y="223.934102" style="fill: #1f77b4; stroke: #1f77b4"/>
     <use xlink:href="#me50f8c60ba" x="260.55167" y="231.069278" style="fill: #1f77b4; stroke: #1f77b4"/>
     <use xlink:href="#me50f8c60ba" x="280.003988" y="228.226898" style="fill: #1f77b4; stroke: #1f77b4"/>
     <use xlink:href="#me50f8c60ba" x="270.452062" y="225.120985" style="fill: #1f77b4; stroke: #1f77b4"/>
     <use xlink:href="#me50f8c60ba" x="258.214562" y="225.870067" style="fill: #1f77b4; stroke: #1f77b4"/>
     <use xlink:href="#me50f8c60ba" x="275.52037" y="224.903122" style="fill: #1f77b4; stroke: #1f77b4"/>
     <use xlink:href="#me50f8c60ba" x="261.990336" y="233.256649" style="fill: #1f77b4; stroke: #1f77b4"/>
     <use xlink:href="#me50f8c60ba" x="279.757846" y="233.623432" style="fill: #1f77b4; stroke: #1f77b4"/>
     <use xlink:href="#me50f8c60ba" x="250.021128" y="225.75316" style="fill: #1f77b4; stroke: #1f77b4"/>
     <use xlink:href="#me50f8c60ba" x="263.303037" y="217.033069" style="fill: #1f77b4; stroke: #1f77b4"/>
     <use xlink:href="#me50f8c60ba" x="269.796455" y="227.959978" style="fill: #1f77b4; stroke: #1f77b4"/>
     <use xlink:href="#me50f8c60ba" x="248.361778" y="225.582606" style="fill: #1f77b4; stroke: #1f77b4"/>
     <use xlink:href="#me50f8c60ba" x="263.026809" y="234.059923" style="fill: #1f77b4; stroke: #1f77b4"/>
     <use xlink:href="#me50f8c60ba" x="262.449889" y="236.49105" style="fill: #1f77b4; stroke: #1f77b4"/>
     <use xlink:href="#me50f8c60ba" x="263.879297" y="233.209558" style="fill: #1f77b4; stroke: #1f77b4"/>
     <use xlink:href="#me50f8c60ba" x="256.441481" y="229.190128" style="fill: #1f77b4; stroke: #1f77b4"/>
     <use xlink:href="#me50f8c60ba" x="250.127751" y="230.69288" style="fill: #1f77b4; stroke: #1f77b4"/>
     <use xlink:href="#me50f8c60ba" x="264.005095" y="232.249934" style="fill: #1f77b4; stroke: #1f77b4"/>
     <use xlink:href="#me50f8c60ba" x="244.24134" y="225.392604" style="fill: #1f77b4; stroke: #1f77b4"/>
     <use xlink:href="#me50f8c60ba" x="245.416506" y="226.137643" style="fill: #1f77b4; stroke: #1f77b4"/>
     <use xlink:href="#me50f8c60ba" x="242.706961" y="230.697687" style="fill: #1f77b4; stroke: #1f77b4"/>
     <use xlink:href="#me50f8c60ba" x="250.365132" y="238.166213" style="fill: #1f77b4; stroke: #1f77b4"/>
     <use xlink:href="#me50f8c60ba" x="238.443863" y="231.722102" style="fill: #1f77b4; stroke: #1f77b4"/>
     <use xlink:href="#me50f8c60ba" x="244.885375" y="233.202893" style="fill: #1f77b4; stroke: #1f77b4"/>
    </g>
   </g>
   <g id="line2d_12">
    <path d="M 283.249372 290.938043 
L 273.108534 290.502186 
L 263.09891 289.850907 
L 253.271227 288.985459 
L 243.683392 287.912722 
L 234.399537 286.646283 
L 225.488553 285.207314 
L 217.022184 283.625086 
L 208.264489 281.753895 
L 200.04823 279.767184 
L 192.447943 277.716386 
L 184.658027 275.386709 
L 177.581925 273.055891 
L 170.373459 270.45469 
L 163.046921 267.556282 
L 156.554414 264.753697 
L 150.002996 261.680834 
L 143.413624 258.316005 
L 137.754817 255.182386 
L 132.106539 251.803075 
L 126.491715 248.16329 
L 121.857397 244.920519 
L 117.282439 241.47824 
L 112.786658 237.828361 
L 108.392182 233.96324 
L 104.123578 229.875877 
L 100.817456 226.441811 
L 97.624285 222.858916 
L 94.560244 219.125096 
L 91.642599 215.238904 
L 88.889688 211.199649 
L 86.320878 207.007511 
L 83.956511 202.663662 
L 81.817812 198.170396 
L 79.926778 193.531251 
L 78.684617 189.95906 
L 77.604191 186.310166 
L 76.695297 182.587695 
L 75.967765 178.795299 
L 75.431386 174.937184 
L 75.095844 171.018131 
L 74.970639 167.043509 
L 75.064998 163.019292 
L 75.387786 158.952061 
L 75.947412 154.84901 
L 76.751727 150.717934 
L 77.807924 146.567219 
L 79.122429 142.405818 
L 80.700804 138.243223 
L 82.547638 134.089422 
L 84.666451 129.954856 
L 87.059599 125.850353 
L 89.728192 121.78707 
L 92.672015 117.776411 
L 95.889463 113.82995 
L 99.377496 109.959337 
L 103.1316 106.176203 
L 107.145773 102.492062 
L 111.412522 98.918208 
L 115.922888 95.46561 
L 120.666486 92.14481 
L 125.631559 88.965823 
L 130.805064 85.938042 
L 136.172766 83.070147 
L 141.71935 80.370024 
L 147.428553 77.844697 
L 153.283304 75.500264 
L 159.265873 73.34185 
L 165.358032 71.373573 
L 171.541216 69.598521 
L 177.796689 68.018743 
L 184.105704 66.635258 
L 190.449661 65.448069 
L 196.81026 64.456195 
L 203.169637 63.65771 
L 209.510502 63.049797 
L 215.816247 62.628808 
L 222.071057 62.390327 
L 228.259989 62.329242 
L 234.369053 62.439826 
L 242.367934 62.843408 
L 250.17398 63.52488 
L 257.762715 64.467018 
L 265.113088 65.651786 
L 272.207439 67.060643 
L 279.03139 68.674823 
L 285.573698 70.475576 
L 291.826072 72.4444 
L 297.782955 74.563219 
L 303.441288 76.814549 
L 308.800269 79.18162 
L 313.861102 81.648476 
L 318.626749 84.200048 
L 323.101697 86.822204 
L 327.291722 89.501773 
L 331.203684 92.226558 
L 334.845322 94.98533 
L 339.030137 98.466018 
L 342.823423 101.96576 
L 346.243678 105.468632 
L 349.309905 108.960723 
L 352.041291 112.42998 
L 354.45695 115.866065 
L 356.575713 119.260196 
L 358.415965 122.605002 
L 359.995514 125.894378 
L 361.3315 129.123343 
L 362.636221 132.912817 
L 363.640649 136.604387 
L 364.369973 140.194379 
L 364.847701 143.680438 
L 365.095678 147.061306 
L 365.134133 150.336645 
L 364.939022 154.025085 
L 364.511223 157.572171 
L 363.875313 160.980484 
L 363.053501 164.253272 
L 361.912254 167.832468 
L 360.581023 171.245682 
L 359.083483 174.499423 
L 357.225935 177.977617 
L 355.210487 181.272107 
L 352.813457 184.728822 
L 350.276373 187.983355 
L 347.351145 191.344537 
L 344.310135 194.491642 
L 340.886157 197.697979 
L 337.373919 200.6849 
L 333.491991 203.692229 
L 329.244544 206.686586 
L 324.947741 209.448882 
L 320.307922 212.173341 
L 315.335221 214.835249 
L 310.041632 217.413067 
L 304.440407 219.888387 
L 298.545504 222.245783 
L 292.371103 224.472576 
L 285.931196 226.558565 
L 279.239276 228.495707 
L 272.008315 230.350062 
L 264.556509 232.025279 
L 256.895258 233.519958 
L 248.74546 234.877812 
L 242.700637 235.74163 
L 242.700637 235.74163 
" clip-path="url(#pdf8e978331)" style="fill: none; stroke: #d62728; stroke-width: 1.5; stroke-linecap: square"/>
   </g>
   <g id="patch_3">
    <path d="M 47.389063 307.872 
L 47.389063 41.76 
" style="fill: none; stroke: #000000; stroke-width: 0.8; stroke-linejoin: miter; stroke-linecap: square"/>
   </g>
   <g id="patch_4">
    <path d="M 404.509063 307.872 
L 404.509063 41.76 
" style="fill: none; stroke: #000000; stroke-width: 0.8; stroke-linejoin: miter; stroke-linecap: square"/>
   </g>
   <g id="patch_5">
    <path d="M 47.389063 307.872 
L 404.509063 307.872 
" style="fill: none; stroke: #000000; stroke-width: 0.8; stroke-linejoin: miter; stroke-linecap: square"/>
   </g>
   <g id="patch_6">
    <path d="M 47.389063 41.76 
L 404.509063 41.76 
" style="fill: none; stroke: #000000; stroke-width: 0.8; stroke-linejoin: miter; stroke-linecap: square"/>
   </g>
   <g id="text_13">
    <g id="patch_7">
     <path d="M 422.365063 102.337163 
L 567.365063 102.337163 
Q 571.365063 102.337163 571.365063 98.337163 
L 571.365063 55.0656 
Q 571.365063 51.0656 567.365063 51.0656 
L 422.365063 51.0656 
Q 418.365063 51.0656 418.365063 55.0656 
L 418.365063 98.337163 
Q 418.365063 102.337163 422.365063 102.337163 
z
" style="fill: #ffffff; opacity: 0.5; stroke: #000000; stroke-linejoin: miter"/>
    </g>
    <!-- Summary -->
    <g transform="translate(422.365063 62.664038) scale(0.1 -0.1)">
     <defs>
      <path id="DejaVuSans-53" d="M 3425 4513 
L 3425 3897 
Q 3066 4069 2747 4153 
Q 2428 4238 2131 4238 
Q 1616 4238 1336 4038 
Q 1056 3838 1056 3469 
Q 1056 3159 1242 3001 
Q 1428 2844 1947 2747 
L 2328 2669 
Q 3034 2534 3370 2195 
Q 3706 1856 3706 1288 
Q 3706 609 3251 259 
Q 2797 -91 1919 -91 
Q 1588 -91 1214 -16 
Q 841 59 441 206 
L 441 856 
Q 825 641 1194 531 
Q 1563 422 1919 422 
Q 2459 422 2753 634 
Q 3047 847 3047 1241 
Q 3047 1584 2836 1778 
Q 2625 1972 2144 2069 
L 1759 2144 
Q 1053 2284 737 2584 
Q 422 2884 422 3419 
Q 422 4038 858 4394 
Q 1294 4750 2059 4750 
Q 2388 4750 2728 4690 
Q 3069 4631 3425 4513 
z
" transform="scale(0.015625)"/>
      <path id="DejaVuSans-75" d="M 544 1381 
L 544 3500 
L 1119 3500 
L 1119 1403 
Q 1119 906 1312 657 
Q 1506 409 1894 409 
Q 2359 409 2629 706 
Q 2900 1003 2900 1516 
L 2900 3500 
L 3475 3500 
L 3475 0 
L 2900 0 
L 2900 538 
Q 2691 219 2414 64 
Q 2138 -91 1772 -91 
Q 1169 -91 856 284 
Q 544 659 544 1381 
z
M 1991 3584 
L 1991 3584 
z
" transform="scale(0.015625)"/>
      <path id="DejaVuSans-61" d="M 2194 1759 
Q 1497 1759 1228 1600 
Q 959 1441 959 1056 
Q 959 750 1161 570 
Q 1363 391 1709 391 
Q 2188 391 2477 730 
Q 2766 1069 2766 1631 
L 2766 1759 
L 2194 1759 
z
M 3341 1997 
L 3341 0 
L 2766 0 
L 2766 531 
Q 2569 213 2275 61 
Q 1981 -91 1556 -91 
Q 1019 -91 701 211 
Q 384 513 384 1019 
Q 384 1609 779 1909 
Q 1175 2209 1959 2209 
L 2766 2209 
L 2766 2266 
Q 2766 2663 2505 2880 
Q 2244 3097 1772 3097 
Q 1472 3097 1187 3025 
Q 903 2953 641 2809 
L 641 3341 
Q 956 3463 1253 3523 
Q 1550 3584 1831 3584 
Q 2591 3584 2966 3190 
Q 3341 2797 3341 1997 
z
" transform="scale(0.015625)"/>
      <path id="DejaVuSans-72" d="M 2631 2963 
Q 2534 3019 2420 3045 
Q 2306 3072 2169 3072 
Q 1681 3072 1420 2755 
Q 1159 2438 1159 1844 
L 1159 0 
L 581 0 
L 581 3500 
L 1159 3500 
L 1159 2956 
Q 1341 3275 1631 3429 
Q 1922 3584 2338 3584 
Q 2397 3584 2469 3576 
Q 2541 3569 2628 3553 
L 2631 2963 
z
" transform="scale(0.015625)"/>
      <path id="DejaVuSans-79" d="M 2059 -325 
Q 1816 -950 1584 -1140 
Q 1353 -1331 966 -1331 
L 506 -1331 
L 506 -850 
L 844 -850 
Q 1081 -850 1212 -737 
Q 1344 -625 1503 -206 
L 1606 56 
L 191 3500 
L 800 3500 
L 1894 763 
L 2988 3500 
L 3597 3500 
L 2059 -325 
z
" transform="scale(0.015625)"/>
     </defs>
     <use xlink:href="#DejaVuSans-53"/>
     <use xlink:href="#DejaVuSans-75" x="63.476562"/>
     <use xlink:href="#DejaVuSans-6d" x="126.855469"/>
     <use xlink:href="#DejaVuSans-6d" x="224.267578"/>
     <use xlink:href="#DejaVuSans-61" x="321.679688"/>
     <use xlink:href="#DejaVuSans-72" x="382.958984"/>
     <use xlink:href="#DejaVuSans-79" x="424.072266"/>
    </g>
    <!-- $Q_I$: 9.35$\pm$0.17 k -->
    <g transform="translate(422.365063 73.86185) scale(0.1 -0.1)">
     <defs>
      <path id="DejaVuSans-Oblique-51" d="M 2309 -84 
Q 2275 -88 2237 -89 
Q 2200 -91 2125 -91 
Q 1250 -91 756 411 
Q 263 913 263 1797 
Q 263 2319 452 2844 
Q 641 3369 978 3788 
Q 1369 4269 1858 4509 
Q 2347 4750 2938 4750 
Q 3794 4750 4287 4245 
Q 4781 3741 4781 2869 
Q 4781 1928 4265 1147 
Q 3750 366 2919 44 
L 3553 -825 
L 2847 -825 
L 2309 -84 
z
M 2919 4238 
Q 2400 4238 2003 3986 
Q 1606 3734 1313 3219 
Q 1125 2891 1026 2522 
Q 928 2153 928 1778 
Q 928 1128 1239 775 
Q 1550 422 2119 422 
Q 2631 422 3032 676 
Q 3434 931 3719 1434 
Q 3909 1772 4009 2142 
Q 4109 2513 4109 2881 
Q 4109 3528 3796 3883 
Q 3484 4238 2919 4238 
z
" transform="scale(0.015625)"/>
      <path id="DejaVuSans-Oblique-49" d="M 1081 4666 
L 1716 4666 
L 806 0 
L 172 0 
L 1081 4666 
z
" transform="scale(0.015625)"/>
      <path id="DejaVuSans-3a" d="M 750 794 
L 1409 794 
L 1409 0 
L 750 0 
L 750 794 
z
M 750 3309 
L 1409 3309 
L 1409 2516 
L 750 2516 
L 750 3309 
z
" transform="scale(0.015625)"/>
      <path id="DejaVuSans-39" d="M 703 97 
L 703 672 
Q 941 559 1184 500 
Q 1428 441 1663 441 
Q 2288 441 2617 861 
Q 2947 1281 2994 2138 
Q 2813 1869 2534 1725 
Q 2256 1581 1919 1581 
Q 1219 1581 811 2004 
Q 403 2428 403 3163 
Q 403 3881 828 4315 
Q 1253 4750 1959 4750 
Q 2769 4750 3195 4129 
Q 3622 3509 3622 2328 
Q 3622 1225 3098 567 
Q 2575 -91 1691 -91 
Q 1453 -91 1209 -44 
Q 966 3 703 97 
z
M 1959 2075 
Q 2384 2075 2632 2365 
Q 2881 2656 2881 3163 
Q 2881 3666 2632 3958 
Q 2384 4250 1959 4250 
Q 1534 4250 1286 3958 
Q 1038 3666 1038 3163 
Q 1038 2656 1286 2365 
Q 1534 2075 1959 2075 
z
" transform="scale(0.015625)"/>
      <path id="DejaVuSans-b1" d="M 2944 4013 
L 2944 2803 
L 4684 2803 
L 4684 2272 
L 2944 2272 
L 2944 1063 
L 2419 1063 
L 2419 2272 
L 678 2272 
L 678 2803 
L 2419 2803 
L 2419 4013 
L 2944 4013 
z
M 678 531 
L 4684 531 
L 4684 0 
L 678 0 
L 678 531 
z
" transform="scale(0.015625)"/>
      <path id="DejaVuSans-37" d="M 525 4666 
L 3525 4666 
L 3525 4397 
L 1831 0 
L 1172 0 
L 2766 4134 
L 525 4134 
L 525 4666 
z
" transform="scale(0.015625)"/>
      <path id="DejaVuSans-6b" d="M 581 4863 
L 1159 4863 
L 1159 1991 
L 2875 3500 
L 3609 3500 
L 1753 1863 
L 3688 0 
L 2938 0 
L 1159 1709 
L 1159 0 
L 581 0 
L 581 4863 
z
" transform="scale(0.015625)"/>
     </defs>
     <use xlink:href="#DejaVuSans-Oblique-51" transform="translate(0 0.015625)"/>
     <use xlink:href="#DejaVuSans-Oblique-49" transform="translate(78.710938 -16.390625) scale(0.7)"/>
     <use xlink:href="#DejaVuSans-3a" transform="translate(102.089844 0.015625)"/>
     <use xlink:href="#DejaVuSans-20" transform="translate(135.78125 0.015625)"/>
     <use xlink:href="#DejaVuSans-39" transform="translate(167.568359 0.015625)"/>
     <use xlink:href="#DejaVuSans-2e" transform="translate(231.191406 0.015625)"/>
     <use xlink:href="#DejaVuSans-33" transform="translate(262.978516 0.015625)"/>
     <use xlink:href="#DejaVuSans-35" transform="translate(326.601562 0.015625)"/>
     <use xlink:href="#DejaVuSans-b1" transform="translate(390.224609 0.015625)"/>
     <use xlink:href="#DejaVuSans-30" transform="translate(474.013672 0.015625)"/>
     <use xlink:href="#DejaVuSans-2e" transform="translate(537.636719 0.015625)"/>
     <use xlink:href="#DejaVuSans-31" transform="translate(569.423828 0.015625)"/>
     <use xlink:href="#DejaVuSans-37" transform="translate(633.046875 0.015625)"/>
     <use xlink:href="#DejaVuSans-20" transform="translate(696.669922 0.015625)"/>
     <use xlink:href="#DejaVuSans-6b" transform="translate(728.457031 0.015625)"/>
    </g>
    <!-- $Q_C$: 10.55$\pm$0.20 k -->
    <g transform="translate(422.365063 85.059663) scale(0.1 -0.1)">
     <defs>
      <path id="DejaVuSans-Oblique-43" d="M 4447 4306 
L 4319 3641 
Q 4019 3944 3683 4091 
Q 3347 4238 2956 4238 
Q 2422 4238 2017 3981 
Q 1613 3725 1319 3200 
Q 1131 2863 1032 2486 
Q 934 2109 934 1728 
Q 934 1091 1264 756 
Q 1594 422 2222 422 
Q 2656 422 3056 561 
Q 3456 700 3834 978 
L 3688 231 
Q 3316 72 2936 -9 
Q 2556 -91 2175 -91 
Q 1278 -91 773 396 
Q 269 884 269 1753 
Q 269 2309 461 2846 
Q 653 3384 1013 3828 
Q 1394 4300 1883 4525 
Q 2372 4750 3022 4750 
Q 3422 4750 3780 4639 
Q 4138 4528 4447 4306 
z
" transform="scale(0.015625)"/>
     </defs>
     <use xlink:href="#DejaVuSans-Oblique-51" transform="translate(0 0.015625)"/>
     <use xlink:href="#DejaVuSans-Oblique-43" transform="translate(78.710938 -16.390625) scale(0.7)"/>
     <use xlink:href="#DejaVuSans-3a" transform="translate(130.322266 0.015625)"/>
     <use xlink:href="#DejaVuSans-20" transform="translate(164.013672 0.015625)"/>
     <use xlink:href="#DejaVuSans-31" transform="translate(195.800781 0.015625)"/>
     <use xlink:href="#DejaVuSans-30" transform="translate(259.423828 0.015625)"/>
     <use xlink:href="#DejaVuSans-2e" transform="translate(323.046875 0.015625)"/>
     <use xlink:href="#DejaVuSans-35" transform="translate(354.833984 0.015625)"/>
     <use xlink:href="#DejaVuSans-35" transform="translate(418.457031 0.015625)"/>
     <use xlink:href="#DejaVuSans-b1" transform="translate(482.080078 0.015625)"/>
     <use xlink:href="#DejaVuSans-30" transform="translate(565.869141 0.015625)"/>
     <use xlink:href="#DejaVuSans-2e" transform="translate(629.492188 0.015625)"/>
     <use xlink:href="#DejaVuSans-32" transform="translate(655.779297 0.015625)"/>
     <use xlink:href="#DejaVuSans-30" transform="translate(719.402344 0.015625)"/>
     <use xlink:href="#DejaVuSans-20" transform="translate(783.025391 0.015625)"/>
     <use xlink:href="#DejaVuSans-6b" transform="translate(814.8125 0.015625)"/>
    </g>
    <!-- $f_{res}$: 5.7197479$\pm$9.5e-06 GHz -->
    <g transform="translate(422.365063 96.257475) scale(0.1 -0.1)">
     <defs>
      <path id="DejaVuSans-Oblique-66" d="M 3059 4863 
L 2969 4384 
L 2419 4384 
Q 2106 4384 1964 4261 
Q 1822 4138 1753 3809 
L 1691 3500 
L 2638 3500 
L 2553 3053 
L 1606 3053 
L 1013 0 
L 434 0 
L 1031 3053 
L 481 3053 
L 563 3500 
L 1113 3500 
L 1159 3744 
Q 1278 4363 1576 4613 
Q 1875 4863 2516 4863 
L 3059 4863 
z
" transform="scale(0.015625)"/>
      <path id="DejaVuSans-Oblique-72" d="M 2853 2969 
Q 2766 3016 2653 3041 
Q 2541 3066 2413 3066 
Q 1953 3066 1609 2717 
Q 1266 2369 1153 1784 
L 800 0 
L 225 0 
L 909 3500 
L 1484 3500 
L 1375 2956 
Q 1603 3259 1920 3421 
Q 2238 3584 2597 3584 
Q 2691 3584 2781 3573 
Q 2872 3563 2963 3538 
L 2853 2969 
z
" transform="scale(0.015625)"/>
      <path id="DejaVuSans-Oblique-65" d="M 3078 2063 
Q 3088 2113 3092 2166 
Q 3097 2219 3097 2272 
Q 3097 2653 2873 2875 
Q 2650 3097 2266 3097 
Q 1838 3097 1509 2826 
Q 1181 2556 1013 2059 
L 3078 2063 
z
M 3578 1613 
L 903 1613 
Q 884 1494 878 1425 
Q 872 1356 872 1306 
Q 872 872 1139 634 
Q 1406 397 1894 397 
Q 2269 397 2603 481 
Q 2938 566 3225 728 
L 3116 159 
Q 2806 34 2476 -28 
Q 2147 -91 1806 -91 
Q 1078 -91 686 257 
Q 294 606 294 1247 
Q 294 1794 489 2264 
Q 684 2734 1063 3103 
Q 1306 3334 1642 3459 
Q 1978 3584 2356 3584 
Q 2950 3584 3301 3228 
Q 3653 2872 3653 2272 
Q 3653 2128 3634 1964 
Q 3616 1800 3578 1613 
z
" transform="scale(0.015625)"/>
      <path id="DejaVuSans-Oblique-73" d="M 3200 3397 
L 3091 2853 
Q 2863 2978 2609 3040 
Q 2356 3103 2088 3103 
Q 1634 3103 1373 2948 
Q 1113 2794 1113 2528 
Q 1113 2219 1719 2053 
Q 1766 2041 1788 2034 
L 1972 1978 
Q 2547 1819 2739 1644 
Q 2931 1469 2931 1166 
Q 2931 609 2489 259 
Q 2047 -91 1331 -91 
Q 1053 -91 747 -37 
Q 441 16 72 128 
L 184 722 
Q 500 559 806 475 
Q 1113 391 1394 391 
Q 1816 391 2080 572 
Q 2344 753 2344 1031 
Q 2344 1331 1650 1516 
L 1591 1531 
L 1394 1581 
Q 956 1697 753 1886 
Q 550 2075 550 2369 
Q 550 2928 970 3256 
Q 1391 3584 2113 3584 
Q 2397 3584 2667 3537 
Q 2938 3491 3200 3397 
z
" transform="scale(0.015625)"/>
      <path id="DejaVuSans-36" d="M 2113 2584 
Q 1688 2584 1439 2293 
Q 1191 2003 1191 1497 
Q 1191 994 1439 701 
Q 1688 409 2113 409 
Q 2538 409 2786 701 
Q 3034 994 3034 1497 
Q 3034 2003 2786 2293 
Q 2538 2584 2113 2584 
z
M 3366 4563 
L 3366 3988 
Q 3128 4100 2886 4159 
Q 2644 4219 2406 4219 
Q 1781 4219 1451 3797 
Q 1122 3375 1075 2522 
Q 1259 2794 1537 2939 
Q 1816 3084 2150 3084 
Q 2853 3084 3261 2657 
Q 3669 2231 3669 1497 
Q 3669 778 3244 343 
Q 2819 -91 2113 -91 
Q 1303 -91 875 529 
Q 447 1150 447 2328 
Q 447 3434 972 4092 
Q 1497 4750 2381 4750 
Q 2619 4750 2861 4703 
Q 3103 4656 3366 4563 
z
" transform="scale(0.015625)"/>
      <path id="DejaVuSans-47" d="M 3809 666 
L 3809 1919 
L 2778 1919 
L 2778 2438 
L 4434 2438 
L 4434 434 
Q 4069 175 3628 42 
Q 3188 -91 2688 -91 
Q 1594 -91 976 548 
Q 359 1188 359 2328 
Q 359 3472 976 4111 
Q 1594 4750 2688 4750 
Q 3144 4750 3555 4637 
Q 3966 4525 4313 4306 
L 4313 3634 
Q 3963 3931 3569 4081 
Q 3175 4231 2741 4231 
Q 1884 4231 1454 3753 
Q 1025 3275 1025 2328 
Q 1025 1384 1454 906 
Q 1884 428 2741 428 
Q 3075 428 3337 486 
Q 3600 544 3809 666 
z
" transform="scale(0.015625)"/>
      <path id="DejaVuSans-48" d="M 628 4666 
L 1259 4666 
L 1259 2753 
L 3553 2753 
L 3553 4666 
L 4184 4666 
L 4184 0 
L 3553 0 
L 3553 2222 
L 1259 2222 
L 1259 0 
L 628 0 
L 628 4666 
z
" transform="scale(0.015625)"/>
      <path id="DejaVuSans-7a" d="M 353 3500 
L 3084 3500 
L 3084 2975 
L 922 459 
L 3084 459 
L 3084 0 
L 275 0 
L 275 525 
L 2438 3041 
L 353 3041 
L 353 3500 
z
" transform="scale(0.015625)"/>
     </defs>
     <use xlink:href="#DejaVuSans-Oblique-66" transform="translate(0 0.015625)"/>
     <use xlink:href="#DejaVuSans-Oblique-72" transform="translate(35.205078 -16.390625) scale(0.7)"/>
     <use xlink:href="#DejaVuSans-Oblique-65" transform="translate(63.984375 -16.390625) scale(0.7)"/>
     <use xlink:href="#DejaVuSans-Oblique-73" transform="translate(107.050781 -16.390625) scale(0.7)"/>
     <use xlink:href="#DejaVuSans-3a" transform="translate(146.254883 0.015625)"/>
     <use xlink:href="#DejaVuSans-20" transform="translate(179.946289 0.015625)"/>
     <use xlink:href="#DejaVuSans-35" transform="translate(211.733398 0.015625)"/>
     <use xlink:href="#DejaVuSans-2e" transform="translate(275.356445 0.015625)"/>
     <use xlink:href="#DejaVuSans-37" transform="translate(299.393555 0.015625)"/>
     <use xlink:href="#DejaVuSans-31" transform="translate(363.016602 0.015625)"/>
     <use xlink:href="#DejaVuSans-39" transform="translate(426.639648 0.015625)"/>
     <use xlink:href="#DejaVuSans-37" transform="translate(490.262695 0.015625)"/>
     <use xlink:href="#DejaVuSans-34" transform="translate(553.885742 0.015625)"/>
     <use xlink:href="#DejaVuSans-37" transform="translate(617.508789 0.015625)"/>
     <use xlink:href="#DejaVuSans-39" transform="translate(681.131836 0.015625)"/>
     <use xlink:href="#DejaVuSans-b1" transform="translate(744.754883 0.015625)"/>
     <use xlink:href="#DejaVuSans-39" transform="translate(828.543945 0.015625)"/>
     <use xlink:href="#DejaVuSans-2e" transform="translate(892.166992 0.015625)"/>
     <use xlink:href="#DejaVuSans-35" transform="translate(923.954102 0.015625)"/>
     <use xlink:href="#DejaVuSans-65" transform="translate(987.577148 0.015625)"/>
     <use xlink:href="#DejaVuSans-2d" transform="translate(1049.100586 0.015625)"/>
     <use xlink:href="#DejaVuSans-30" transform="translate(1085.18457 0.015625)"/>
     <use xlink:href="#DejaVuSans-36" transform="translate(1148.807617 0.015625)"/>
     <use xlink:href="#DejaVuSans-20" transform="translate(1212.430664 0.015625)"/>
     <use xlink:href="#DejaVuSans-47" transform="translate(1244.217773 0.015625)"/>
     <use xlink:href="#DejaVuSans-48" transform="translate(1321.708008 0.015625)"/>
     <use xlink:href="#DejaVuSans-7a" transform="translate(1396.90332 0.015625)"/>
    </g>
   </g>
  </g>
  <g id="text_14">
   <!-- S21 resonator spectroscopy -->
   <g transform="translate(136.404688 16.318125) scale(0.12 -0.12)">
    <defs>
     <path id="DejaVuSans-73" d="M 2834 3397 
L 2834 2853 
Q 2591 2978 2328 3040 
Q 2066 3103 1784 3103 
Q 1356 3103 1142 2972 
Q 928 2841 928 2578 
Q 928 2378 1081 2264 
Q 1234 2150 1697 2047 
L 1894 2003 
Q 2506 1872 2764 1633 
Q 3022 1394 3022 966 
Q 3022 478 2636 193 
Q 2250 -91 1575 -91 
Q 1294 -91 989 -36 
Q 684 19 347 128 
L 347 722 
Q 666 556 975 473 
Q 1284 391 1588 391 
Q 1994 391 2212 530 
Q 2431 669 2431 922 
Q 2431 1156 2273 1281 
Q 2116 1406 1581 1522 
L 1381 1569 
Q 847 1681 609 1914 
Q 372 2147 372 2553 
Q 372 3047 722 3315 
Q 1072 3584 1716 3584 
Q 2034 3584 2315 3537 
Q 2597 3491 2834 3397 
z
" transform="scale(0.015625)"/>
     <path id="DejaVuSans-6f" d="M 1959 3097 
Q 1497 3097 1228 2736 
Q 959 2375 959 1747 
Q 959 1119 1226 758 
Q 1494 397 1959 397 
Q 2419 397 2687 759 
Q 2956 1122 2956 1747 
Q 2956 2369 2687 2733 
Q 2419 3097 1959 3097 
z
M 1959 3584 
Q 2709 3584 3137 3096 
Q 3566 2609 3566 1747 
Q 3566 888 3137 398 
Q 2709 -91 1959 -91 
Q 1206 -91 779 398 
Q 353 888 353 1747 
Q 353 2609 779 3096 
Q 1206 3584 1959 3584 
z
" transform="scale(0.015625)"/>
     <path id="DejaVuSans-6e" d="M 3513 2113 
L 3513 0 
L 2938 0 
L 2938 2094 
Q 2938 2591 2744 2837 
Q 2550 3084 2163 3084 
Q 1697 3084 1428 2787 
Q 1159 2491 1159 1978 
L 1159 0 
L 581 0 
L 581 3500 
L 1159 3500 
L 1159 2956 
Q 1366 3272 1645 3428 
Q 1925 3584 2291 3584 
Q 2894 3584 3203 3211 
Q 3513 2838 3513 2113 
z
" transform="scale(0.015625)"/>
     <path id="DejaVuSans-74" d="M 1172 4494 
L 1172 3500 
L 2356 3500 
L 2356 3053 
L 1172 3053 
L 1172 1153 
Q 1172 725 1289 603 
Q 1406 481 1766 481 
L 2356 481 
L 2356 0 
L 1766 0 
Q 1100 0 847 248 
Q 594 497 594 1153 
L 594 3053 
L 172 3053 
L 172 3500 
L 594 3500 
L 594 4494 
L 1172 4494 
z
" transform="scale(0.015625)"/>
     <path id="DejaVuSans-70" d="M 1159 525 
L 1159 -1331 
L 581 -1331 
L 581 3500 
L 1159 3500 
L 1159 2969 
Q 1341 3281 1617 3432 
Q 1894 3584 2278 3584 
Q 2916 3584 3314 3078 
Q 3713 2572 3713 1747 
Q 3713 922 3314 415 
Q 2916 -91 2278 -91 
Q 1894 -91 1617 61 
Q 1341 213 1159 525 
z
M 3116 1747 
Q 3116 2381 2855 2742 
Q 2594 3103 2138 3103 
Q 1681 3103 1420 2742 
Q 1159 2381 1159 1747 
Q 1159 1113 1420 752 
Q 1681 391 2138 391 
Q 2594 391 2855 752 
Q 3116 1113 3116 1747 
z
" transform="scale(0.015625)"/>
     <path id="DejaVuSans-63" d="M 3122 3366 
L 3122 2828 
Q 2878 2963 2633 3030 
Q 2388 3097 2138 3097 
Q 1578 3097 1268 2742 
Q 959 2388 959 1747 
Q 959 1106 1268 751 
Q 1578 397 2138 397 
Q 2388 397 2633 464 
Q 2878 531 3122 666 
L 3122 134 
Q 2881 22 2623 -34 
Q 2366 -91 2075 -91 
Q 1284 -91 818 406 
Q 353 903 353 1747 
Q 353 2603 823 3093 
Q 1294 3584 2113 3584 
Q 2378 3584 2631 3529 
Q 2884 3475 3122 3366 
z
" transform="scale(0.015625)"/>
    </defs>
    <use xlink:href="#DejaVuSans-53"/>
    <use xlink:href="#DejaVuSans-32" x="63.476562"/>
    <use xlink:href="#DejaVuSans-31" x="127.099609"/>
    <use xlink:href="#DejaVuSans-20" x="190.722656"/>
    <use xlink:href="#DejaVuSans-72" x="222.509766"/>
    <use xlink:href="#DejaVuSans-65" x="261.373047"/>
    <use xlink:href="#DejaVuSans-73" x="322.896484"/>
    <use xlink:href="#DejaVuSans-6f" x="374.996094"/>
    <use xlink:href="#DejaVuSans-6e" x="436.177734"/>
    <use xlink:href="#DejaVuSans-61" x="499.556641"/>
    <use xlink:href="#DejaVuSans-74" x="560.835938"/>
    <use xlink:href="#DejaVuSans-6f" x="600.044922"/>
    <use xlink:href="#DejaVuSans-72" x="661.226562"/>
    <use xlink:href="#DejaVuSans-20" x="702.339844"/>
    <use xlink:href="#DejaVuSans-73" x="734.126953"/>
    <use xlink:href="#DejaVuSans-70" x="786.226562"/>
    <use xlink:href="#DejaVuSans-65" x="849.703125"/>
    <use xlink:href="#DejaVuSans-63" x="911.226562"/>
    <use xlink:href="#DejaVuSans-74" x="966.207031"/>
    <use xlink:href="#DejaVuSans-72" x="1005.416016"/>
    <use xlink:href="#DejaVuSans-6f" x="1044.279297"/>
    <use xlink:href="#DejaVuSans-73" x="1105.460938"/>
    <use xlink:href="#DejaVuSans-63" x="1157.560547"/>
    <use xlink:href="#DejaVuSans-6f" x="1212.541016"/>
    <use xlink:href="#DejaVuSans-70" x="1273.722656"/>
    <use xlink:href="#DejaVuSans-79" x="1337.199219"/>
   </g>
   <!-- tuid: 20231227-185331-620-bbdb34 -->
   <g transform="translate(110.3675 29.7555) scale(0.12 -0.12)">
    <defs>
     <path id="DejaVuSans-69" d="M 603 3500 
L 1178 3500 
L 1178 0 
L 603 0 
L 603 3500 
z
M 603 4863 
L 1178 4863 
L 1178 4134 
L 603 4134 
L 603 4863 
z
" transform="scale(0.015625)"/>
     <path id="DejaVuSans-64" d="M 2906 2969 
L 2906 4863 
L 3481 4863 
L 3481 0 
L 2906 0 
L 2906 525 
Q 2725 213 2448 61 
Q 2172 -91 1784 -91 
Q 1150 -91 751 415 
Q 353 922 353 1747 
Q 353 2572 751 3078 
Q 1150 3584 1784 3584 
Q 2172 3584 2448 3432 
Q 2725 3281 2906 2969 
z
M 947 1747 
Q 947 1113 1208 752 
Q 1469 391 1925 391 
Q 2381 391 2643 752 
Q 2906 1113 2906 1747 
Q 2906 2381 2643 2742 
Q 2381 3103 1925 3103 
Q 1469 3103 1208 2742 
Q 947 2381 947 1747 
z
" transform="scale(0.015625)"/>
     <path id="DejaVuSans-38" d="M 2034 2216 
Q 1584 2216 1326 1975 
Q 1069 1734 1069 1313 
Q 1069 891 1326 650 
Q 1584 409 2034 409 
Q 2484 409 2743 651 
Q 3003 894 3003 1313 
Q 3003 1734 2745 1975 
Q 2488 2216 2034 2216 
z
M 1403 2484 
Q 997 2584 770 2862 
Q 544 3141 544 3541 
Q 544 4100 942 4425 
Q 1341 4750 2034 4750 
Q 2731 4750 3128 4425 
Q 3525 4100 3525 3541 
Q 3525 3141 3298 2862 
Q 3072 2584 2669 2484 
Q 3125 2378 3379 2068 
Q 3634 1759 3634 1313 
Q 3634 634 3220 271 
Q 2806 -91 2034 -91 
Q 1263 -91 848 271 
Q 434 634 434 1313 
Q 434 1759 690 2068 
Q 947 2378 1403 2484 
z
M 1172 3481 
Q 1172 3119 1398 2916 
Q 1625 2713 2034 2713 
Q 2441 2713 2670 2916 
Q 2900 3119 2900 3481 
Q 2900 3844 2670 4047 
Q 2441 4250 2034 4250 
Q 1625 4250 1398 4047 
Q 1172 3844 1172 3481 
z
" transform="scale(0.015625)"/>
     <path id="DejaVuSans-62" d="M 3116 1747 
Q 3116 2381 2855 2742 
Q 2594 3103 2138 3103 
Q 1681 3103 1420 2742 
Q 1159 2381 1159 1747 
Q 1159 1113 1420 752 
Q 1681 391 2138 391 
Q 2594 391 2855 752 
Q 3116 1113 3116 1747 
z
M 1159 2969 
Q 1341 3281 1617 3432 
Q 1894 3584 2278 3584 
Q 2916 3584 3314 3078 
Q 3713 2572 3713 1747 
Q 3713 922 3314 415 
Q 2916 -91 2278 -91 
Q 1894 -91 1617 61 
Q 1341 213 1159 525 
L 1159 0 
L 581 0 
L 581 4863 
L 1159 4863 
L 1159 2969 
z
" transform="scale(0.015625)"/>
    </defs>
    <use xlink:href="#DejaVuSans-74"/>
    <use xlink:href="#DejaVuSans-75" x="39.208984"/>
    <use xlink:href="#DejaVuSans-69" x="102.587891"/>
    <use xlink:href="#DejaVuSans-64" x="130.371094"/>
    <use xlink:href="#DejaVuSans-3a" x="193.847656"/>
    <use xlink:href="#DejaVuSans-20" x="227.539062"/>
    <use xlink:href="#DejaVuSans-32" x="259.326172"/>
    <use xlink:href="#DejaVuSans-30" x="322.949219"/>
    <use xlink:href="#DejaVuSans-32" x="386.572266"/>
    <use xlink:href="#DejaVuSans-33" x="450.195312"/>
    <use xlink:href="#DejaVuSans-31" x="513.818359"/>
    <use xlink:href="#DejaVuSans-32" x="577.441406"/>
    <use xlink:href="#DejaVuSans-32" x="641.064453"/>
    <use xlink:href="#DejaVuSans-37" x="704.6875"/>
    <use xlink:href="#DejaVuSans-2d" x="768.310547"/>
    <use xlink:href="#DejaVuSans-31" x="804.394531"/>
    <use xlink:href="#DejaVuSans-38" x="868.017578"/>
    <use xlink:href="#DejaVuSans-35" x="931.640625"/>
    <use xlink:href="#DejaVuSans-33" x="995.263672"/>
    <use xlink:href="#DejaVuSans-33" x="1058.886719"/>
    <use xlink:href="#DejaVuSans-31" x="1122.509766"/>
    <use xlink:href="#DejaVuSans-2d" x="1186.132812"/>
    <use xlink:href="#DejaVuSans-36" x="1222.216797"/>
    <use xlink:href="#DejaVuSans-32" x="1285.839844"/>
    <use xlink:href="#DejaVuSans-30" x="1349.462891"/>
    <use xlink:href="#DejaVuSans-2d" x="1413.085938"/>
    <use xlink:href="#DejaVuSans-62" x="1449.169922"/>
    <use xlink:href="#DejaVuSans-62" x="1512.646484"/>
    <use xlink:href="#DejaVuSans-64" x="1576.123047"/>
    <use xlink:href="#DejaVuSans-62" x="1639.599609"/>
    <use xlink:href="#DejaVuSans-33" x="1703.076172"/>
    <use xlink:href="#DejaVuSans-34" x="1766.699219"/>
   </g>
  </g>
 </g>
 <defs>
  <clipPath id="pdf8e978331">
   <rect x="47.389063" y="41.76" width="357.12" height="266.112"/>
  </clipPath>
 </defs>
</svg>
