<?xml version="1.0" encoding="utf-8" standalone="no"?>
<!DOCTYPE svg PUBLIC "-//W3C//DTD SVG 1.1//EN"
  "http://www.w3.org/Graphics/SVG/1.1/DTD/svg11.dtd">
<svg xmlns:xlink="http://www.w3.org/1999/xlink" width="555.4635pt" height="345.42825pt" viewBox="0 0 555.4635 345.42825" xmlns="http://www.w3.org/2000/svg" version="1.1">
 <metadata>
  <rdf:RDF xmlns:dc="http://purl.org/dc/elements/1.1/" xmlns:cc="http://creativecommons.org/ns#" xmlns:rdf="http://www.w3.org/1999/02/22-rdf-syntax-ns#">
   <cc:Work>
    <dc:type rdf:resource="http://purl.org/dc/dcmitype/StillImage"/>
    <dc:date>2023-12-25T16:57:44.998409</dc:date>
    <dc:format>image/svg+xml</dc:format>
    <dc:creator>
     <cc:Agent>
      <dc:title>Matplotlib v3.8.2, https://matplotlib.org/</dc:title>
     </cc:Agent>
    </dc:creator>
   </cc:Work>
  </rdf:RDF>
 </metadata>
 <defs>
  <style type="text/css">*{stroke-linejoin: round; stroke-linecap: butt}</style>
 </defs>
 <g id="figure_1">
  <g id="patch_1">
   <path d="M 0 345.42825 
L 555.4635 345.42825 
L 555.4635 -0 
L 0 -0 
L 0 345.42825 
z
" style="fill: none; opacity: 0"/>
  </g>
  <g id="axes_1">
   <g id="patch_2">
    <path d="M 47.3875 307.872 
L 404.5075 307.872 
L 404.5075 41.76 
L 47.3875 41.76 
z
" style="fill: #ffffff"/>
   </g>
   <g id="matplotlib.axis_1">
    <g id="xtick_1">
     <g id="line2d_1">
      <defs>
       <path id="m9124cd8383" d="M 0 0 
L 0 3.5 
" style="stroke: #000000; stroke-width: 0.8"/>
      </defs>
      <g>
       <use xlink:href="#m9124cd8383" x="63.362565" y="307.872" style="stroke: #000000; stroke-width: 0.8"/>
      </g>
     </g>
     <g id="text_1">
      <!-- 0 -->
      <g transform="translate(60.181315 322.470438) scale(0.1 -0.1)">
       <defs>
        <path id="DejaVuSans-30" d="M 2034 4250 
Q 1547 4250 1301 3770 
Q 1056 3291 1056 2328 
Q 1056 1369 1301 889 
Q 1547 409 2034 409 
Q 2525 409 2770 889 
Q 3016 1369 3016 2328 
Q 3016 3291 2770 3770 
Q 2525 4250 2034 4250 
z
M 2034 4750 
Q 2819 4750 3233 4129 
Q 3647 3509 3647 2328 
Q 3647 1150 3233 529 
Q 2819 -91 2034 -91 
Q 1250 -91 836 529 
Q 422 1150 422 2328 
Q 422 3509 836 4129 
Q 1250 4750 2034 4750 
z
" transform="scale(0.015625)"/>
       </defs>
       <use xlink:href="#DejaVuSans-30"/>
      </g>
     </g>
    </g>
    <g id="xtick_2">
     <g id="line2d_2">
      <g>
       <use xlink:href="#m9124cd8383" x="127.778149" y="307.872" style="stroke: #000000; stroke-width: 0.8"/>
      </g>
     </g>
     <g id="text_2">
      <!-- 10 -->
      <g transform="translate(121.415649 322.470438) scale(0.1 -0.1)">
       <defs>
        <path id="DejaVuSans-31" d="M 794 531 
L 1825 531 
L 1825 4091 
L 703 3866 
L 703 4441 
L 1819 4666 
L 2450 4666 
L 2450 531 
L 3481 531 
L 3481 0 
L 794 0 
L 794 531 
z
" transform="scale(0.015625)"/>
       </defs>
       <use xlink:href="#DejaVuSans-31"/>
       <use xlink:href="#DejaVuSans-30" x="63.623047"/>
      </g>
     </g>
    </g>
    <g id="xtick_3">
     <g id="line2d_3">
      <g>
       <use xlink:href="#m9124cd8383" x="192.193734" y="307.872" style="stroke: #000000; stroke-width: 0.8"/>
      </g>
     </g>
     <g id="text_3">
      <!-- 20 -->
      <g transform="translate(185.831234 322.470438) scale(0.1 -0.1)">
       <defs>
        <path id="DejaVuSans-32" d="M 1228 531 
L 3431 531 
L 3431 0 
L 469 0 
L 469 531 
Q 828 903 1448 1529 
Q 2069 2156 2228 2338 
Q 2531 2678 2651 2914 
Q 2772 3150 2772 3378 
Q 2772 3750 2511 3984 
Q 2250 4219 1831 4219 
Q 1534 4219 1204 4116 
Q 875 4013 500 3803 
L 500 4441 
Q 881 4594 1212 4672 
Q 1544 4750 1819 4750 
Q 2544 4750 2975 4387 
Q 3406 4025 3406 3419 
Q 3406 3131 3298 2873 
Q 3191 2616 2906 2266 
Q 2828 2175 2409 1742 
Q 1991 1309 1228 531 
z
" transform="scale(0.015625)"/>
       </defs>
       <use xlink:href="#DejaVuSans-32"/>
       <use xlink:href="#DejaVuSans-30" x="63.623047"/>
      </g>
     </g>
    </g>
    <g id="xtick_4">
     <g id="line2d_4">
      <g>
       <use xlink:href="#m9124cd8383" x="256.609318" y="307.872" style="stroke: #000000; stroke-width: 0.8"/>
      </g>
     </g>
     <g id="text_4">
      <!-- 30 -->
      <g transform="translate(250.246818 322.470438) scale(0.1 -0.1)">
       <defs>
        <path id="DejaVuSans-33" d="M 2597 2516 
Q 3050 2419 3304 2112 
Q 3559 1806 3559 1356 
Q 3559 666 3084 287 
Q 2609 -91 1734 -91 
Q 1441 -91 1130 -33 
Q 819 25 488 141 
L 488 750 
Q 750 597 1062 519 
Q 1375 441 1716 441 
Q 2309 441 2620 675 
Q 2931 909 2931 1356 
Q 2931 1769 2642 2001 
Q 2353 2234 1838 2234 
L 1294 2234 
L 1294 2753 
L 1863 2753 
Q 2328 2753 2575 2939 
Q 2822 3125 2822 3475 
Q 2822 3834 2567 4026 
Q 2313 4219 1838 4219 
Q 1578 4219 1281 4162 
Q 984 4106 628 3988 
L 628 4550 
Q 988 4650 1302 4700 
Q 1616 4750 1894 4750 
Q 2613 4750 3031 4423 
Q 3450 4097 3450 3541 
Q 3450 3153 3228 2886 
Q 3006 2619 2597 2516 
z
" transform="scale(0.015625)"/>
       </defs>
       <use xlink:href="#DejaVuSans-33"/>
       <use xlink:href="#DejaVuSans-30" x="63.623047"/>
      </g>
     </g>
    </g>
    <g id="xtick_5">
     <g id="line2d_5">
      <g>
       <use xlink:href="#m9124cd8383" x="321.024903" y="307.872" style="stroke: #000000; stroke-width: 0.8"/>
      </g>
     </g>
     <g id="text_5">
      <!-- 40 -->
      <g transform="translate(314.662403 322.470438) scale(0.1 -0.1)">
       <defs>
        <path id="DejaVuSans-34" d="M 2419 4116 
L 825 1625 
L 2419 1625 
L 2419 4116 
z
M 2253 4666 
L 3047 4666 
L 3047 1625 
L 3713 1625 
L 3713 1100 
L 3047 1100 
L 3047 0 
L 2419 0 
L 2419 1100 
L 313 1100 
L 313 1709 
L 2253 4666 
z
" transform="scale(0.015625)"/>
       </defs>
       <use xlink:href="#DejaVuSans-34"/>
       <use xlink:href="#DejaVuSans-30" x="63.623047"/>
      </g>
     </g>
    </g>
    <g id="xtick_6">
     <g id="line2d_6">
      <g>
       <use xlink:href="#m9124cd8383" x="385.440487" y="307.872" style="stroke: #000000; stroke-width: 0.8"/>
      </g>
     </g>
     <g id="text_6">
      <!-- 50 -->
      <g transform="translate(379.077987 322.470438) scale(0.1 -0.1)">
       <defs>
        <path id="DejaVuSans-35" d="M 691 4666 
L 3169 4666 
L 3169 4134 
L 1269 4134 
L 1269 2991 
Q 1406 3038 1543 3061 
Q 1681 3084 1819 3084 
Q 2600 3084 3056 2656 
Q 3513 2228 3513 1497 
Q 3513 744 3044 326 
Q 2575 -91 1722 -91 
Q 1428 -91 1123 -41 
Q 819 9 494 109 
L 494 744 
Q 775 591 1075 516 
Q 1375 441 1709 441 
Q 2250 441 2565 725 
Q 2881 1009 2881 1497 
Q 2881 1984 2565 2268 
Q 2250 2553 1709 2553 
Q 1456 2553 1204 2497 
Q 953 2441 691 2322 
L 691 4666 
z
" transform="scale(0.015625)"/>
       </defs>
       <use xlink:href="#DejaVuSans-35"/>
       <use xlink:href="#DejaVuSans-30" x="63.623047"/>
      </g>
     </g>
    </g>
    <g id="text_7">
     <!-- Delay [μs] -->
     <g transform="translate(200.331875 336.148562) scale(0.1 -0.1)">
      <defs>
       <path id="DejaVuSans-44" d="M 1259 4147 
L 1259 519 
L 2022 519 
Q 2988 519 3436 956 
Q 3884 1394 3884 2338 
Q 3884 3275 3436 3711 
Q 2988 4147 2022 4147 
L 1259 4147 
z
M 628 4666 
L 1925 4666 
Q 3281 4666 3915 4102 
Q 4550 3538 4550 2338 
Q 4550 1131 3912 565 
Q 3275 0 1925 0 
L 628 0 
L 628 4666 
z
" transform="scale(0.015625)"/>
       <path id="DejaVuSans-65" d="M 3597 1894 
L 3597 1613 
L 953 1613 
Q 991 1019 1311 708 
Q 1631 397 2203 397 
Q 2534 397 2845 478 
Q 3156 559 3463 722 
L 3463 178 
Q 3153 47 2828 -22 
Q 2503 -91 2169 -91 
Q 1331 -91 842 396 
Q 353 884 353 1716 
Q 353 2575 817 3079 
Q 1281 3584 2069 3584 
Q 2775 3584 3186 3129 
Q 3597 2675 3597 1894 
z
M 3022 2063 
Q 3016 2534 2758 2815 
Q 2500 3097 2075 3097 
Q 1594 3097 1305 2825 
Q 1016 2553 972 2059 
L 3022 2063 
z
" transform="scale(0.015625)"/>
       <path id="DejaVuSans-6c" d="M 603 4863 
L 1178 4863 
L 1178 0 
L 603 0 
L 603 4863 
z
" transform="scale(0.015625)"/>
       <path id="DejaVuSans-61" d="M 2194 1759 
Q 1497 1759 1228 1600 
Q 959 1441 959 1056 
Q 959 750 1161 570 
Q 1363 391 1709 391 
Q 2188 391 2477 730 
Q 2766 1069 2766 1631 
L 2766 1759 
L 2194 1759 
z
M 3341 1997 
L 3341 0 
L 2766 0 
L 2766 531 
Q 2569 213 2275 61 
Q 1981 -91 1556 -91 
Q 1019 -91 701 211 
Q 384 513 384 1019 
Q 384 1609 779 1909 
Q 1175 2209 1959 2209 
L 2766 2209 
L 2766 2266 
Q 2766 2663 2505 2880 
Q 2244 3097 1772 3097 
Q 1472 3097 1187 3025 
Q 903 2953 641 2809 
L 641 3341 
Q 956 3463 1253 3523 
Q 1550 3584 1831 3584 
Q 2591 3584 2966 3190 
Q 3341 2797 3341 1997 
z
" transform="scale(0.015625)"/>
       <path id="DejaVuSans-79" d="M 2059 -325 
Q 1816 -950 1584 -1140 
Q 1353 -1331 966 -1331 
L 506 -1331 
L 506 -850 
L 844 -850 
Q 1081 -850 1212 -737 
Q 1344 -625 1503 -206 
L 1606 56 
L 191 3500 
L 800 3500 
L 1894 763 
L 2988 3500 
L 3597 3500 
L 2059 -325 
z
" transform="scale(0.015625)"/>
       <path id="DejaVuSans-20" transform="scale(0.015625)"/>
       <path id="DejaVuSans-5b" d="M 550 4863 
L 1875 4863 
L 1875 4416 
L 1125 4416 
L 1125 -397 
L 1875 -397 
L 1875 -844 
L 550 -844 
L 550 4863 
z
" transform="scale(0.015625)"/>
       <path id="DejaVuSans-3bc" d="M 544 -1331 
L 544 3500 
L 1119 3500 
L 1119 1325 
Q 1119 872 1334 640 
Q 1550 409 1972 409 
Q 2434 409 2667 671 
Q 2900 934 2900 1459 
L 2900 3500 
L 3475 3500 
L 3475 806 
Q 3475 619 3529 530 
Q 3584 441 3700 441 
Q 3728 441 3778 458 
Q 3828 475 3916 513 
L 3916 50 
Q 3788 -22 3673 -56 
Q 3559 -91 3450 -91 
Q 3234 -91 3106 31 
Q 2978 153 2931 403 
Q 2775 156 2548 32 
Q 2322 -91 2016 -91 
Q 1697 -91 1473 31 
Q 1250 153 1119 397 
L 1119 -1331 
L 544 -1331 
z
" transform="scale(0.015625)"/>
       <path id="DejaVuSans-73" d="M 2834 3397 
L 2834 2853 
Q 2591 2978 2328 3040 
Q 2066 3103 1784 3103 
Q 1356 3103 1142 2972 
Q 928 2841 928 2578 
Q 928 2378 1081 2264 
Q 1234 2150 1697 2047 
L 1894 2003 
Q 2506 1872 2764 1633 
Q 3022 1394 3022 966 
Q 3022 478 2636 193 
Q 2250 -91 1575 -91 
Q 1294 -91 989 -36 
Q 684 19 347 128 
L 347 722 
Q 666 556 975 473 
Q 1284 391 1588 391 
Q 1994 391 2212 530 
Q 2431 669 2431 922 
Q 2431 1156 2273 1281 
Q 2116 1406 1581 1522 
L 1381 1569 
Q 847 1681 609 1914 
Q 372 2147 372 2553 
Q 372 3047 722 3315 
Q 1072 3584 1716 3584 
Q 2034 3584 2315 3537 
Q 2597 3491 2834 3397 
z
" transform="scale(0.015625)"/>
       <path id="DejaVuSans-5d" d="M 1947 4863 
L 1947 -844 
L 622 -844 
L 622 -397 
L 1369 -397 
L 1369 4416 
L 622 4416 
L 622 4863 
L 1947 4863 
z
" transform="scale(0.015625)"/>
      </defs>
      <use xlink:href="#DejaVuSans-44"/>
      <use xlink:href="#DejaVuSans-65" x="77.001953"/>
      <use xlink:href="#DejaVuSans-6c" x="138.525391"/>
      <use xlink:href="#DejaVuSans-61" x="166.308594"/>
      <use xlink:href="#DejaVuSans-79" x="227.587891"/>
      <use xlink:href="#DejaVuSans-20" x="286.767578"/>
      <use xlink:href="#DejaVuSans-5b" x="318.554688"/>
      <use xlink:href="#DejaVuSans-3bc" x="357.568359"/>
      <use xlink:href="#DejaVuSans-73" x="421.191406"/>
      <use xlink:href="#DejaVuSans-5d" x="473.291016"/>
     </g>
    </g>
   </g>
   <g id="matplotlib.axis_2">
    <g id="ytick_1">
     <g id="line2d_7">
      <defs>
       <path id="m5dae95856a" d="M 0 0 
L -3.5 0 
" style="stroke: #000000; stroke-width: 0.8"/>
      </defs>
      <g>
       <use xlink:href="#m5dae95856a" x="47.3875" y="299.789031" style="stroke: #000000; stroke-width: 0.8"/>
      </g>
     </g>
     <g id="text_8">
      <!-- 550 -->
      <g transform="translate(21.3 303.58825) scale(0.1 -0.1)">
       <use xlink:href="#DejaVuSans-35"/>
       <use xlink:href="#DejaVuSans-35" x="63.623047"/>
       <use xlink:href="#DejaVuSans-30" x="127.246094"/>
      </g>
     </g>
    </g>
    <g id="ytick_2">
     <g id="line2d_8">
      <g>
       <use xlink:href="#m5dae95856a" x="47.3875" y="269.932625" style="stroke: #000000; stroke-width: 0.8"/>
      </g>
     </g>
     <g id="text_9">
      <!-- 600 -->
      <g transform="translate(21.3 273.731843) scale(0.1 -0.1)">
       <defs>
        <path id="DejaVuSans-36" d="M 2113 2584 
Q 1688 2584 1439 2293 
Q 1191 2003 1191 1497 
Q 1191 994 1439 701 
Q 1688 409 2113 409 
Q 2538 409 2786 701 
Q 3034 994 3034 1497 
Q 3034 2003 2786 2293 
Q 2538 2584 2113 2584 
z
M 3366 4563 
L 3366 3988 
Q 3128 4100 2886 4159 
Q 2644 4219 2406 4219 
Q 1781 4219 1451 3797 
Q 1122 3375 1075 2522 
Q 1259 2794 1537 2939 
Q 1816 3084 2150 3084 
Q 2853 3084 3261 2657 
Q 3669 2231 3669 1497 
Q 3669 778 3244 343 
Q 2819 -91 2113 -91 
Q 1303 -91 875 529 
Q 447 1150 447 2328 
Q 447 3434 972 4092 
Q 1497 4750 2381 4750 
Q 2619 4750 2861 4703 
Q 3103 4656 3366 4563 
z
" transform="scale(0.015625)"/>
       </defs>
       <use xlink:href="#DejaVuSans-36"/>
       <use xlink:href="#DejaVuSans-30" x="63.623047"/>
       <use xlink:href="#DejaVuSans-30" x="127.246094"/>
      </g>
     </g>
    </g>
    <g id="ytick_3">
     <g id="line2d_9">
      <g>
       <use xlink:href="#m5dae95856a" x="47.3875" y="240.076218" style="stroke: #000000; stroke-width: 0.8"/>
      </g>
     </g>
     <g id="text_10">
      <!-- 650 -->
      <g transform="translate(21.3 243.875437) scale(0.1 -0.1)">
       <use xlink:href="#DejaVuSans-36"/>
       <use xlink:href="#DejaVuSans-35" x="63.623047"/>
       <use xlink:href="#DejaVuSans-30" x="127.246094"/>
      </g>
     </g>
    </g>
    <g id="ytick_4">
     <g id="line2d_10">
      <g>
       <use xlink:href="#m5dae95856a" x="47.3875" y="210.219811" style="stroke: #000000; stroke-width: 0.8"/>
      </g>
     </g>
     <g id="text_11">
      <!-- 700 -->
      <g transform="translate(21.3 214.01903) scale(0.1 -0.1)">
       <defs>
        <path id="DejaVuSans-37" d="M 525 4666 
L 3525 4666 
L 3525 4397 
L 1831 0 
L 1172 0 
L 2766 4134 
L 525 4134 
L 525 4666 
z
" transform="scale(0.015625)"/>
       </defs>
       <use xlink:href="#DejaVuSans-37"/>
       <use xlink:href="#DejaVuSans-30" x="63.623047"/>
       <use xlink:href="#DejaVuSans-30" x="127.246094"/>
      </g>
     </g>
    </g>
    <g id="ytick_5">
     <g id="line2d_11">
      <g>
       <use xlink:href="#m5dae95856a" x="47.3875" y="180.363404" style="stroke: #000000; stroke-width: 0.8"/>
      </g>
     </g>
     <g id="text_12">
      <!-- 750 -->
      <g transform="translate(21.3 184.162623) scale(0.1 -0.1)">
       <use xlink:href="#DejaVuSans-37"/>
       <use xlink:href="#DejaVuSans-35" x="63.623047"/>
       <use xlink:href="#DejaVuSans-30" x="127.246094"/>
      </g>
     </g>
    </g>
    <g id="ytick_6">
     <g id="line2d_12">
      <g>
       <use xlink:href="#m5dae95856a" x="47.3875" y="150.506997" style="stroke: #000000; stroke-width: 0.8"/>
      </g>
     </g>
     <g id="text_13">
      <!-- 800 -->
      <g transform="translate(21.3 154.306216) scale(0.1 -0.1)">
       <defs>
        <path id="DejaVuSans-38" d="M 2034 2216 
Q 1584 2216 1326 1975 
Q 1069 1734 1069 1313 
Q 1069 891 1326 650 
Q 1584 409 2034 409 
Q 2484 409 2743 651 
Q 3003 894 3003 1313 
Q 3003 1734 2745 1975 
Q 2488 2216 2034 2216 
z
M 1403 2484 
Q 997 2584 770 2862 
Q 544 3141 544 3541 
Q 544 4100 942 4425 
Q 1341 4750 2034 4750 
Q 2731 4750 3128 4425 
Q 3525 4100 3525 3541 
Q 3525 3141 3298 2862 
Q 3072 2584 2669 2484 
Q 3125 2378 3379 2068 
Q 3634 1759 3634 1313 
Q 3634 634 3220 271 
Q 2806 -91 2034 -91 
Q 1263 -91 848 271 
Q 434 634 434 1313 
Q 434 1759 690 2068 
Q 947 2378 1403 2484 
z
M 1172 3481 
Q 1172 3119 1398 2916 
Q 1625 2713 2034 2713 
Q 2441 2713 2670 2916 
Q 2900 3119 2900 3481 
Q 2900 3844 2670 4047 
Q 2441 4250 2034 4250 
Q 1625 4250 1398 4047 
Q 1172 3844 1172 3481 
z
" transform="scale(0.015625)"/>
       </defs>
       <use xlink:href="#DejaVuSans-38"/>
       <use xlink:href="#DejaVuSans-30" x="63.623047"/>
       <use xlink:href="#DejaVuSans-30" x="127.246094"/>
      </g>
     </g>
    </g>
    <g id="ytick_7">
     <g id="line2d_13">
      <g>
       <use xlink:href="#m5dae95856a" x="47.3875" y="120.65059" style="stroke: #000000; stroke-width: 0.8"/>
      </g>
     </g>
     <g id="text_14">
      <!-- 850 -->
      <g transform="translate(21.3 124.449809) scale(0.1 -0.1)">
       <use xlink:href="#DejaVuSans-38"/>
       <use xlink:href="#DejaVuSans-35" x="63.623047"/>
       <use xlink:href="#DejaVuSans-30" x="127.246094"/>
      </g>
     </g>
    </g>
    <g id="ytick_8">
     <g id="line2d_14">
      <g>
       <use xlink:href="#m5dae95856a" x="47.3875" y="90.794184" style="stroke: #000000; stroke-width: 0.8"/>
      </g>
     </g>
     <g id="text_15">
      <!-- 900 -->
      <g transform="translate(21.3 94.593402) scale(0.1 -0.1)">
       <defs>
        <path id="DejaVuSans-39" d="M 703 97 
L 703 672 
Q 941 559 1184 500 
Q 1428 441 1663 441 
Q 2288 441 2617 861 
Q 2947 1281 2994 2138 
Q 2813 1869 2534 1725 
Q 2256 1581 1919 1581 
Q 1219 1581 811 2004 
Q 403 2428 403 3163 
Q 403 3881 828 4315 
Q 1253 4750 1959 4750 
Q 2769 4750 3195 4129 
Q 3622 3509 3622 2328 
Q 3622 1225 3098 567 
Q 2575 -91 1691 -91 
Q 1453 -91 1209 -44 
Q 966 3 703 97 
z
M 1959 2075 
Q 2384 2075 2632 2365 
Q 2881 2656 2881 3163 
Q 2881 3666 2632 3958 
Q 2384 4250 1959 4250 
Q 1534 4250 1286 3958 
Q 1038 3666 1038 3163 
Q 1038 2656 1286 2365 
Q 1534 2075 1959 2075 
z
" transform="scale(0.015625)"/>
       </defs>
       <use xlink:href="#DejaVuSans-39"/>
       <use xlink:href="#DejaVuSans-30" x="63.623047"/>
       <use xlink:href="#DejaVuSans-30" x="127.246094"/>
      </g>
     </g>
    </g>
    <g id="ytick_9">
     <g id="line2d_15">
      <g>
       <use xlink:href="#m5dae95856a" x="47.3875" y="60.937777" style="stroke: #000000; stroke-width: 0.8"/>
      </g>
     </g>
     <g id="text_16">
      <!-- 950 -->
      <g transform="translate(21.3 64.736995) scale(0.1 -0.1)">
       <use xlink:href="#DejaVuSans-39"/>
       <use xlink:href="#DejaVuSans-35" x="63.623047"/>
       <use xlink:href="#DejaVuSans-30" x="127.246094"/>
      </g>
     </g>
    </g>
    <g id="text_17">
     <!-- Magnitude |$S_{21}|$ [μV] -->
     <g transform="translate(14.9 226.166) rotate(-90) scale(0.1 -0.1)">
      <defs>
       <path id="DejaVuSans-4d" d="M 628 4666 
L 1569 4666 
L 2759 1491 
L 3956 4666 
L 4897 4666 
L 4897 0 
L 4281 0 
L 4281 4097 
L 3078 897 
L 2444 897 
L 1241 4097 
L 1241 0 
L 628 0 
L 628 4666 
z
" transform="scale(0.015625)"/>
       <path id="DejaVuSans-67" d="M 2906 1791 
Q 2906 2416 2648 2759 
Q 2391 3103 1925 3103 
Q 1463 3103 1205 2759 
Q 947 2416 947 1791 
Q 947 1169 1205 825 
Q 1463 481 1925 481 
Q 2391 481 2648 825 
Q 2906 1169 2906 1791 
z
M 3481 434 
Q 3481 -459 3084 -895 
Q 2688 -1331 1869 -1331 
Q 1566 -1331 1297 -1286 
Q 1028 -1241 775 -1147 
L 775 -588 
Q 1028 -725 1275 -790 
Q 1522 -856 1778 -856 
Q 2344 -856 2625 -561 
Q 2906 -266 2906 331 
L 2906 616 
Q 2728 306 2450 153 
Q 2172 0 1784 0 
Q 1141 0 747 490 
Q 353 981 353 1791 
Q 353 2603 747 3093 
Q 1141 3584 1784 3584 
Q 2172 3584 2450 3431 
Q 2728 3278 2906 2969 
L 2906 3500 
L 3481 3500 
L 3481 434 
z
" transform="scale(0.015625)"/>
       <path id="DejaVuSans-6e" d="M 3513 2113 
L 3513 0 
L 2938 0 
L 2938 2094 
Q 2938 2591 2744 2837 
Q 2550 3084 2163 3084 
Q 1697 3084 1428 2787 
Q 1159 2491 1159 1978 
L 1159 0 
L 581 0 
L 581 3500 
L 1159 3500 
L 1159 2956 
Q 1366 3272 1645 3428 
Q 1925 3584 2291 3584 
Q 2894 3584 3203 3211 
Q 3513 2838 3513 2113 
z
" transform="scale(0.015625)"/>
       <path id="DejaVuSans-69" d="M 603 3500 
L 1178 3500 
L 1178 0 
L 603 0 
L 603 3500 
z
M 603 4863 
L 1178 4863 
L 1178 4134 
L 603 4134 
L 603 4863 
z
" transform="scale(0.015625)"/>
       <path id="DejaVuSans-74" d="M 1172 4494 
L 1172 3500 
L 2356 3500 
L 2356 3053 
L 1172 3053 
L 1172 1153 
Q 1172 725 1289 603 
Q 1406 481 1766 481 
L 2356 481 
L 2356 0 
L 1766 0 
Q 1100 0 847 248 
Q 594 497 594 1153 
L 594 3053 
L 172 3053 
L 172 3500 
L 594 3500 
L 594 4494 
L 1172 4494 
z
" transform="scale(0.015625)"/>
       <path id="DejaVuSans-75" d="M 544 1381 
L 544 3500 
L 1119 3500 
L 1119 1403 
Q 1119 906 1312 657 
Q 1506 409 1894 409 
Q 2359 409 2629 706 
Q 2900 1003 2900 1516 
L 2900 3500 
L 3475 3500 
L 3475 0 
L 2900 0 
L 2900 538 
Q 2691 219 2414 64 
Q 2138 -91 1772 -91 
Q 1169 -91 856 284 
Q 544 659 544 1381 
z
M 1991 3584 
L 1991 3584 
z
" transform="scale(0.015625)"/>
       <path id="DejaVuSans-64" d="M 2906 2969 
L 2906 4863 
L 3481 4863 
L 3481 0 
L 2906 0 
L 2906 525 
Q 2725 213 2448 61 
Q 2172 -91 1784 -91 
Q 1150 -91 751 415 
Q 353 922 353 1747 
Q 353 2572 751 3078 
Q 1150 3584 1784 3584 
Q 2172 3584 2448 3432 
Q 2725 3281 2906 2969 
z
M 947 1747 
Q 947 1113 1208 752 
Q 1469 391 1925 391 
Q 2381 391 2643 752 
Q 2906 1113 2906 1747 
Q 2906 2381 2643 2742 
Q 2381 3103 1925 3103 
Q 1469 3103 1208 2742 
Q 947 2381 947 1747 
z
" transform="scale(0.015625)"/>
       <path id="DejaVuSans-7c" d="M 1344 4891 
L 1344 -1509 
L 813 -1509 
L 813 4891 
L 1344 4891 
z
" transform="scale(0.015625)"/>
       <path id="DejaVuSans-Oblique-53" d="M 3859 4513 
L 3738 3897 
Q 3422 4066 3111 4152 
Q 2800 4238 2509 4238 
Q 1944 4238 1609 3991 
Q 1275 3744 1275 3334 
Q 1275 3109 1398 2989 
Q 1522 2869 2034 2731 
L 2413 2638 
Q 3053 2472 3303 2217 
Q 3553 1963 3553 1503 
Q 3553 797 2998 353 
Q 2444 -91 1538 -91 
Q 1166 -91 791 -17 
Q 416 56 38 206 
L 166 856 
Q 513 641 861 531 
Q 1209 422 1556 422 
Q 2147 422 2503 684 
Q 2859 947 2859 1369 
Q 2859 1650 2717 1795 
Q 2575 1941 2106 2059 
L 1728 2156 
Q 1081 2325 845 2545 
Q 609 2766 609 3163 
Q 609 3859 1145 4304 
Q 1681 4750 2541 4750 
Q 2875 4750 3203 4690 
Q 3531 4631 3859 4513 
z
" transform="scale(0.015625)"/>
       <path id="DejaVuSans-56" d="M 1831 0 
L 50 4666 
L 709 4666 
L 2188 738 
L 3669 4666 
L 4325 4666 
L 2547 0 
L 1831 0 
z
" transform="scale(0.015625)"/>
      </defs>
      <use xlink:href="#DejaVuSans-4d" transform="translate(0 0.578125)"/>
      <use xlink:href="#DejaVuSans-61" transform="translate(86.279297 0.578125)"/>
      <use xlink:href="#DejaVuSans-67" transform="translate(147.558594 0.578125)"/>
      <use xlink:href="#DejaVuSans-6e" transform="translate(211.035156 0.578125)"/>
      <use xlink:href="#DejaVuSans-69" transform="translate(274.414062 0.578125)"/>
      <use xlink:href="#DejaVuSans-74" transform="translate(302.197266 0.578125)"/>
      <use xlink:href="#DejaVuSans-75" transform="translate(341.40625 0.578125)"/>
      <use xlink:href="#DejaVuSans-64" transform="translate(404.785156 0.578125)"/>
      <use xlink:href="#DejaVuSans-65" transform="translate(468.261719 0.578125)"/>
      <use xlink:href="#DejaVuSans-20" transform="translate(529.785156 0.578125)"/>
      <use xlink:href="#DejaVuSans-7c" transform="translate(561.572266 0.578125)"/>
      <use xlink:href="#DejaVuSans-Oblique-53" transform="translate(595.263672 0.578125)"/>
      <use xlink:href="#DejaVuSans-32" transform="translate(658.740234 -15.828125) scale(0.7)"/>
      <use xlink:href="#DejaVuSans-31" transform="translate(703.276367 -15.828125) scale(0.7)"/>
      <use xlink:href="#DejaVuSans-7c" transform="translate(750.546875 0.578125)"/>
      <use xlink:href="#DejaVuSans-20" transform="translate(784.238281 0.578125)"/>
      <use xlink:href="#DejaVuSans-5b" transform="translate(816.025391 0.578125)"/>
      <use xlink:href="#DejaVuSans-3bc" transform="translate(855.039062 0.578125)"/>
      <use xlink:href="#DejaVuSans-56" transform="translate(918.662109 0.578125)"/>
      <use xlink:href="#DejaVuSans-5d" transform="translate(987.070312 0.578125)"/>
     </g>
    </g>
   </g>
   <g id="line2d_16">
    <defs>
     <path id="m659046d2fa" d="M 0 1.5 
C 0.397805 1.5 0.77937 1.341951 1.06066 1.06066 
C 1.341951 0.77937 1.5 0.397805 1.5 0 
C 1.5 -0.397805 1.341951 -0.77937 1.06066 -1.06066 
C 0.77937 -1.341951 0.397805 -1.5 0 -1.5 
C -0.397805 -1.5 -0.77937 -1.341951 -1.06066 -1.06066 
C -1.341951 -0.77937 -1.5 -0.397805 -1.5 0 
C -1.5 0.397805 -1.341951 0.77937 -1.06066 1.06066 
C -0.77937 1.341951 -0.397805 1.5 0 1.5 
z
" style="stroke: #1f77b4"/>
    </defs>
    <g clip-path="url(#pbe419bfe18)">
     <use xlink:href="#m659046d2fa" x="63.620227" y="53.856" style="fill: #1f77b4; stroke: #1f77b4"/>
     <use xlink:href="#m659046d2fa" x="68.773474" y="82.304876" style="fill: #1f77b4; stroke: #1f77b4"/>
     <use xlink:href="#m659046d2fa" x="73.926721" y="103.316161" style="fill: #1f77b4; stroke: #1f77b4"/>
     <use xlink:href="#m659046d2fa" x="79.079968" y="136.273742" style="fill: #1f77b4; stroke: #1f77b4"/>
     <use xlink:href="#m659046d2fa" x="84.233214" y="123.108822" style="fill: #1f77b4; stroke: #1f77b4"/>
     <use xlink:href="#m659046d2fa" x="89.386461" y="144.460996" style="fill: #1f77b4; stroke: #1f77b4"/>
     <use xlink:href="#m659046d2fa" x="94.539708" y="165.950694" style="fill: #1f77b4; stroke: #1f77b4"/>
     <use xlink:href="#m659046d2fa" x="99.692955" y="180.950654" style="fill: #1f77b4; stroke: #1f77b4"/>
     <use xlink:href="#m659046d2fa" x="104.846201" y="192.30554" style="fill: #1f77b4; stroke: #1f77b4"/>
     <use xlink:href="#m659046d2fa" x="109.999448" y="192.708224" style="fill: #1f77b4; stroke: #1f77b4"/>
     <use xlink:href="#m659046d2fa" x="115.152695" y="172.68119" style="fill: #1f77b4; stroke: #1f77b4"/>
     <use xlink:href="#m659046d2fa" x="120.305942" y="211.538303" style="fill: #1f77b4; stroke: #1f77b4"/>
     <use xlink:href="#m659046d2fa" x="125.459188" y="211.24133" style="fill: #1f77b4; stroke: #1f77b4"/>
     <use xlink:href="#m659046d2fa" x="130.612435" y="232.181827" style="fill: #1f77b4; stroke: #1f77b4"/>
     <use xlink:href="#m659046d2fa" x="135.765682" y="224.575146" style="fill: #1f77b4; stroke: #1f77b4"/>
     <use xlink:href="#m659046d2fa" x="140.918929" y="223.873315" style="fill: #1f77b4; stroke: #1f77b4"/>
     <use xlink:href="#m659046d2fa" x="146.072175" y="222.854143" style="fill: #1f77b4; stroke: #1f77b4"/>
     <use xlink:href="#m659046d2fa" x="151.225422" y="238.526258" style="fill: #1f77b4; stroke: #1f77b4"/>
     <use xlink:href="#m659046d2fa" x="156.378669" y="238.075157" style="fill: #1f77b4; stroke: #1f77b4"/>
     <use xlink:href="#m659046d2fa" x="161.531916" y="237.260661" style="fill: #1f77b4; stroke: #1f77b4"/>
     <use xlink:href="#m659046d2fa" x="166.685162" y="253.409062" style="fill: #1f77b4; stroke: #1f77b4"/>
     <use xlink:href="#m659046d2fa" x="171.838409" y="240.687443" style="fill: #1f77b4; stroke: #1f77b4"/>
     <use xlink:href="#m659046d2fa" x="176.991656" y="234.690578" style="fill: #1f77b4; stroke: #1f77b4"/>
     <use xlink:href="#m659046d2fa" x="182.144903" y="255.266111" style="fill: #1f77b4; stroke: #1f77b4"/>
     <use xlink:href="#m659046d2fa" x="187.298149" y="254.439394" style="fill: #1f77b4; stroke: #1f77b4"/>
     <use xlink:href="#m659046d2fa" x="192.451396" y="259.024271" style="fill: #1f77b4; stroke: #1f77b4"/>
     <use xlink:href="#m659046d2fa" x="197.604643" y="264.029814" style="fill: #1f77b4; stroke: #1f77b4"/>
     <use xlink:href="#m659046d2fa" x="202.75789" y="251.514677" style="fill: #1f77b4; stroke: #1f77b4"/>
     <use xlink:href="#m659046d2fa" x="207.911136" y="236.700981" style="fill: #1f77b4; stroke: #1f77b4"/>
     <use xlink:href="#m659046d2fa" x="213.064383" y="265.380263" style="fill: #1f77b4; stroke: #1f77b4"/>
     <use xlink:href="#m659046d2fa" x="218.21763" y="263.304654" style="fill: #1f77b4; stroke: #1f77b4"/>
     <use xlink:href="#m659046d2fa" x="223.370877" y="255.631834" style="fill: #1f77b4; stroke: #1f77b4"/>
     <use xlink:href="#m659046d2fa" x="228.524123" y="251.773055" style="fill: #1f77b4; stroke: #1f77b4"/>
     <use xlink:href="#m659046d2fa" x="233.67737" y="268.166319" style="fill: #1f77b4; stroke: #1f77b4"/>
     <use xlink:href="#m659046d2fa" x="238.830617" y="287.515112" style="fill: #1f77b4; stroke: #1f77b4"/>
     <use xlink:href="#m659046d2fa" x="243.983864" y="273.292204" style="fill: #1f77b4; stroke: #1f77b4"/>
     <use xlink:href="#m659046d2fa" x="249.13711" y="256.439942" style="fill: #1f77b4; stroke: #1f77b4"/>
     <use xlink:href="#m659046d2fa" x="254.290357" y="277.388619" style="fill: #1f77b4; stroke: #1f77b4"/>
     <use xlink:href="#m659046d2fa" x="259.443604" y="270.585785" style="fill: #1f77b4; stroke: #1f77b4"/>
     <use xlink:href="#m659046d2fa" x="264.596851" y="287.713204" style="fill: #1f77b4; stroke: #1f77b4"/>
     <use xlink:href="#m659046d2fa" x="269.750097" y="273.589907" style="fill: #1f77b4; stroke: #1f77b4"/>
     <use xlink:href="#m659046d2fa" x="274.903344" y="291.813395" style="fill: #1f77b4; stroke: #1f77b4"/>
     <use xlink:href="#m659046d2fa" x="280.056591" y="269.431878" style="fill: #1f77b4; stroke: #1f77b4"/>
     <use xlink:href="#m659046d2fa" x="285.209838" y="280.393548" style="fill: #1f77b4; stroke: #1f77b4"/>
     <use xlink:href="#m659046d2fa" x="290.363084" y="288.862306" style="fill: #1f77b4; stroke: #1f77b4"/>
     <use xlink:href="#m659046d2fa" x="295.516331" y="268.87098" style="fill: #1f77b4; stroke: #1f77b4"/>
     <use xlink:href="#m659046d2fa" x="300.669578" y="282.594569" style="fill: #1f77b4; stroke: #1f77b4"/>
     <use xlink:href="#m659046d2fa" x="305.822825" y="280.763089" style="fill: #1f77b4; stroke: #1f77b4"/>
     <use xlink:href="#m659046d2fa" x="310.976071" y="283.805896" style="fill: #1f77b4; stroke: #1f77b4"/>
     <use xlink:href="#m659046d2fa" x="316.129318" y="290.844103" style="fill: #1f77b4; stroke: #1f77b4"/>
     <use xlink:href="#m659046d2fa" x="321.282565" y="283.80132" style="fill: #1f77b4; stroke: #1f77b4"/>
     <use xlink:href="#m659046d2fa" x="326.435812" y="294.65091" style="fill: #1f77b4; stroke: #1f77b4"/>
     <use xlink:href="#m659046d2fa" x="331.589058" y="284.957381" style="fill: #1f77b4; stroke: #1f77b4"/>
     <use xlink:href="#m659046d2fa" x="336.742305" y="274.591638" style="fill: #1f77b4; stroke: #1f77b4"/>
     <use xlink:href="#m659046d2fa" x="341.895552" y="280.973383" style="fill: #1f77b4; stroke: #1f77b4"/>
     <use xlink:href="#m659046d2fa" x="347.048799" y="269.997101" style="fill: #1f77b4; stroke: #1f77b4"/>
     <use xlink:href="#m659046d2fa" x="352.202045" y="273.844017" style="fill: #1f77b4; stroke: #1f77b4"/>
     <use xlink:href="#m659046d2fa" x="357.355292" y="295.776" style="fill: #1f77b4; stroke: #1f77b4"/>
     <use xlink:href="#m659046d2fa" x="362.508539" y="279.691717" style="fill: #1f77b4; stroke: #1f77b4"/>
     <use xlink:href="#m659046d2fa" x="367.661786" y="292.85379" style="fill: #1f77b4; stroke: #1f77b4"/>
     <use xlink:href="#m659046d2fa" x="372.815032" y="286.429897" style="fill: #1f77b4; stroke: #1f77b4"/>
     <use xlink:href="#m659046d2fa" x="377.968279" y="276.249343" style="fill: #1f77b4; stroke: #1f77b4"/>
     <use xlink:href="#m659046d2fa" x="383.121526" y="288.861368" style="fill: #1f77b4; stroke: #1f77b4"/>
     <use xlink:href="#m659046d2fa" x="388.274773" y="271.287799" style="fill: #1f77b4; stroke: #1f77b4"/>
    </g>
   </g>
   <g id="line2d_17">
    <path d="M 63.620227 69.211353 
L 67.195002 81.929658 
L 70.769777 93.888361 
L 74.344552 105.132829 
L 77.919326 115.70572 
L 81.819081 126.520917 
L 85.718835 136.633403 
L 89.618589 146.088835 
L 93.518344 154.929905 
L 97.418098 163.196531 
L 101.317852 170.926036 
L 105.217606 178.153321 
L 109.117361 184.911016 
L 113.017115 191.229634 
L 116.916869 197.137702 
L 120.816624 202.661896 
L 124.716378 207.827159 
L 128.941112 213.044827 
L 133.165846 217.896243 
L 137.390579 222.407116 
L 141.615313 226.60135 
L 145.840047 230.501171 
L 150.38976 234.395397 
L 154.939474 237.996054 
L 159.489187 241.325274 
L 164.36388 244.614299 
L 169.238573 247.638401 
L 174.438245 250.596116 
L 179.637918 253.300413 
L 185.16257 255.92031 
L 191.012201 258.435544 
L 196.861833 260.709666 
L 203.036443 262.874054 
L 209.536034 264.916835 
L 216.360604 266.82929 
L 223.510154 268.605704 
L 231.309662 270.309679 
L 239.43415 271.857252 
L 248.208597 273.302418 
L 257.633004 274.62962 
L 268.032348 275.86453 
L 279.406632 276.984526 
L 291.755854 277.976067 
L 305.729973 278.870926 
L 321.65397 279.659697 
L 339.852824 280.332227 
L 361.301472 280.896442 
L 387.624814 281.35662 
L 388.274773 281.36555 
L 388.274773 281.36555 
" clip-path="url(#pbe419bfe18)" style="fill: none; stroke: #d62728; stroke-width: 1.5; stroke-linecap: square"/>
   </g>
   <g id="patch_3">
    <path d="M 47.3875 307.872 
L 47.3875 41.76 
" style="fill: none; stroke: #000000; stroke-width: 0.8; stroke-linejoin: miter; stroke-linecap: square"/>
   </g>
   <g id="patch_4">
    <path d="M 404.5075 307.872 
L 404.5075 41.76 
" style="fill: none; stroke: #000000; stroke-width: 0.8; stroke-linejoin: miter; stroke-linecap: square"/>
   </g>
   <g id="patch_5">
    <path d="M 47.3875 307.872 
L 404.5075 307.872 
" style="fill: none; stroke: #000000; stroke-width: 0.8; stroke-linejoin: miter; stroke-linecap: square"/>
   </g>
   <g id="patch_6">
    <path d="M 47.3875 41.76 
L 404.5075 41.76 
" style="fill: none; stroke: #000000; stroke-width: 0.8; stroke-linejoin: miter; stroke-linecap: square"/>
   </g>
   <g id="text_18">
    <g id="patch_7">
     <path d="M 422.3635 102.40185 
L 548.2635 102.40185 
Q 552.2635 102.40185 552.2635 98.40185 
L 552.2635 55.085913 
Q 552.2635 51.085913 548.2635 51.085913 
L 422.3635 51.085913 
Q 418.3635 51.085913 418.3635 55.085913 
L 418.3635 98.40185 
Q 418.3635 102.40185 422.3635 102.40185 
z
" style="fill: #ffffff; opacity: 0.5; stroke: #000000; stroke-linejoin: miter"/>
    </g>
    <!-- Summary -->
    <g transform="translate(422.3635 62.664038) scale(0.1 -0.1)">
     <defs>
      <path id="DejaVuSans-53" d="M 3425 4513 
L 3425 3897 
Q 3066 4069 2747 4153 
Q 2428 4238 2131 4238 
Q 1616 4238 1336 4038 
Q 1056 3838 1056 3469 
Q 1056 3159 1242 3001 
Q 1428 2844 1947 2747 
L 2328 2669 
Q 3034 2534 3370 2195 
Q 3706 1856 3706 1288 
Q 3706 609 3251 259 
Q 2797 -91 1919 -91 
Q 1588 -91 1214 -16 
Q 841 59 441 206 
L 441 856 
Q 825 641 1194 531 
Q 1563 422 1919 422 
Q 2459 422 2753 634 
Q 3047 847 3047 1241 
Q 3047 1584 2836 1778 
Q 2625 1972 2144 2069 
L 1759 2144 
Q 1053 2284 737 2584 
Q 422 2884 422 3419 
Q 422 4038 858 4394 
Q 1294 4750 2059 4750 
Q 2388 4750 2728 4690 
Q 3069 4631 3425 4513 
z
" transform="scale(0.015625)"/>
      <path id="DejaVuSans-6d" d="M 3328 2828 
Q 3544 3216 3844 3400 
Q 4144 3584 4550 3584 
Q 5097 3584 5394 3201 
Q 5691 2819 5691 2113 
L 5691 0 
L 5113 0 
L 5113 2094 
Q 5113 2597 4934 2840 
Q 4756 3084 4391 3084 
Q 3944 3084 3684 2787 
Q 3425 2491 3425 1978 
L 3425 0 
L 2847 0 
L 2847 2094 
Q 2847 2600 2669 2842 
Q 2491 3084 2119 3084 
Q 1678 3084 1418 2786 
Q 1159 2488 1159 1978 
L 1159 0 
L 581 0 
L 581 3500 
L 1159 3500 
L 1159 2956 
Q 1356 3278 1631 3431 
Q 1906 3584 2284 3584 
Q 2666 3584 2933 3390 
Q 3200 3197 3328 2828 
z
" transform="scale(0.015625)"/>
      <path id="DejaVuSans-72" d="M 2631 2963 
Q 2534 3019 2420 3045 
Q 2306 3072 2169 3072 
Q 1681 3072 1420 2755 
Q 1159 2438 1159 1844 
L 1159 0 
L 581 0 
L 581 3500 
L 1159 3500 
L 1159 2956 
Q 1341 3275 1631 3429 
Q 1922 3584 2338 3584 
Q 2397 3584 2469 3576 
Q 2541 3569 2628 3553 
L 2631 2963 
z
" transform="scale(0.015625)"/>
     </defs>
     <use xlink:href="#DejaVuSans-53"/>
     <use xlink:href="#DejaVuSans-75" x="63.476562"/>
     <use xlink:href="#DejaVuSans-6d" x="126.855469"/>
     <use xlink:href="#DejaVuSans-6d" x="224.267578"/>
     <use xlink:href="#DejaVuSans-61" x="321.679688"/>
     <use xlink:href="#DejaVuSans-72" x="382.958984"/>
     <use xlink:href="#DejaVuSans-79" x="424.072266"/>
    </g>
    <!-- $T1$: 9.01$\pm$0.50 μs -->
    <g transform="translate(422.3635 73.86185) scale(0.1 -0.1)">
     <defs>
      <path id="DejaVuSans-Oblique-54" d="M 378 4666 
L 4325 4666 
L 4225 4134 
L 2559 4134 
L 1759 0 
L 1125 0 
L 1925 4134 
L 275 4134 
L 378 4666 
z
" transform="scale(0.015625)"/>
      <path id="DejaVuSans-3a" d="M 750 794 
L 1409 794 
L 1409 0 
L 750 0 
L 750 794 
z
M 750 3309 
L 1409 3309 
L 1409 2516 
L 750 2516 
L 750 3309 
z
" transform="scale(0.015625)"/>
      <path id="DejaVuSans-2e" d="M 684 794 
L 1344 794 
L 1344 0 
L 684 0 
L 684 794 
z
" transform="scale(0.015625)"/>
      <path id="DejaVuSans-b1" d="M 2944 4013 
L 2944 2803 
L 4684 2803 
L 4684 2272 
L 2944 2272 
L 2944 1063 
L 2419 1063 
L 2419 2272 
L 678 2272 
L 678 2803 
L 2419 2803 
L 2419 4013 
L 2944 4013 
z
M 678 531 
L 4684 531 
L 4684 0 
L 678 0 
L 678 531 
z
" transform="scale(0.015625)"/>
     </defs>
     <use xlink:href="#DejaVuSans-Oblique-54" transform="translate(0 0.78125)"/>
     <use xlink:href="#DejaVuSans-31" transform="translate(61.083984 0.78125)"/>
     <use xlink:href="#DejaVuSans-3a" transform="translate(124.707031 0.78125)"/>
     <use xlink:href="#DejaVuSans-20" transform="translate(158.398438 0.78125)"/>
     <use xlink:href="#DejaVuSans-39" transform="translate(190.185547 0.78125)"/>
     <use xlink:href="#DejaVuSans-2e" transform="translate(253.808594 0.78125)"/>
     <use xlink:href="#DejaVuSans-30" transform="translate(285.595703 0.78125)"/>
     <use xlink:href="#DejaVuSans-31" transform="translate(349.21875 0.78125)"/>
     <use xlink:href="#DejaVuSans-b1" transform="translate(412.841797 0.78125)"/>
     <use xlink:href="#DejaVuSans-30" transform="translate(496.630859 0.78125)"/>
     <use xlink:href="#DejaVuSans-2e" transform="translate(560.253906 0.78125)"/>
     <use xlink:href="#DejaVuSans-35" transform="translate(592.041016 0.78125)"/>
     <use xlink:href="#DejaVuSans-30" transform="translate(655.664062 0.78125)"/>
     <use xlink:href="#DejaVuSans-20" transform="translate(719.287109 0.78125)"/>
     <use xlink:href="#DejaVuSans-3bc" transform="translate(751.074219 0.78125)"/>
     <use xlink:href="#DejaVuSans-73" transform="translate(814.697266 0.78125)"/>
    </g>
    <!-- amplitude: 358.2$\pm$9.5 μV -->
    <g transform="translate(422.3635 85.08185) scale(0.1 -0.1)">
     <defs>
      <path id="DejaVuSans-70" d="M 1159 525 
L 1159 -1331 
L 581 -1331 
L 581 3500 
L 1159 3500 
L 1159 2969 
Q 1341 3281 1617 3432 
Q 1894 3584 2278 3584 
Q 2916 3584 3314 3078 
Q 3713 2572 3713 1747 
Q 3713 922 3314 415 
Q 2916 -91 2278 -91 
Q 1894 -91 1617 61 
Q 1341 213 1159 525 
z
M 3116 1747 
Q 3116 2381 2855 2742 
Q 2594 3103 2138 3103 
Q 1681 3103 1420 2742 
Q 1159 2381 1159 1747 
Q 1159 1113 1420 752 
Q 1681 391 2138 391 
Q 2594 391 2855 752 
Q 3116 1113 3116 1747 
z
" transform="scale(0.015625)"/>
     </defs>
     <use xlink:href="#DejaVuSans-61" transform="translate(0 0.015625)"/>
     <use xlink:href="#DejaVuSans-6d" transform="translate(61.279297 0.015625)"/>
     <use xlink:href="#DejaVuSans-70" transform="translate(158.691406 0.015625)"/>
     <use xlink:href="#DejaVuSans-6c" transform="translate(222.167969 0.015625)"/>
     <use xlink:href="#DejaVuSans-69" transform="translate(249.951172 0.015625)"/>
     <use xlink:href="#DejaVuSans-74" transform="translate(277.734375 0.015625)"/>
     <use xlink:href="#DejaVuSans-75" transform="translate(316.943359 0.015625)"/>
     <use xlink:href="#DejaVuSans-64" transform="translate(380.322266 0.015625)"/>
     <use xlink:href="#DejaVuSans-65" transform="translate(443.798828 0.015625)"/>
     <use xlink:href="#DejaVuSans-3a" transform="translate(505.322266 0.015625)"/>
     <use xlink:href="#DejaVuSans-20" transform="translate(539.013672 0.015625)"/>
     <use xlink:href="#DejaVuSans-33" transform="translate(570.800781 0.015625)"/>
     <use xlink:href="#DejaVuSans-35" transform="translate(634.423828 0.015625)"/>
     <use xlink:href="#DejaVuSans-38" transform="translate(698.046875 0.015625)"/>
     <use xlink:href="#DejaVuSans-2e" transform="translate(761.669922 0.015625)"/>
     <use xlink:href="#DejaVuSans-32" transform="translate(787.957031 0.015625)"/>
     <use xlink:href="#DejaVuSans-b1" transform="translate(851.580078 0.015625)"/>
     <use xlink:href="#DejaVuSans-39" transform="translate(935.369141 0.015625)"/>
     <use xlink:href="#DejaVuSans-2e" transform="translate(998.992188 0.015625)"/>
     <use xlink:href="#DejaVuSans-35" transform="translate(1030.779297 0.015625)"/>
     <use xlink:href="#DejaVuSans-20" transform="translate(1094.402344 0.015625)"/>
     <use xlink:href="#DejaVuSans-3bc" transform="translate(1126.189453 0.015625)"/>
     <use xlink:href="#DejaVuSans-56" transform="translate(1189.8125 0.015625)"/>
    </g>
    <!-- offset: 579.5$\pm$3.8 μV -->
    <g transform="translate(422.3635 96.30185) scale(0.1 -0.1)">
     <defs>
      <path id="DejaVuSans-6f" d="M 1959 3097 
Q 1497 3097 1228 2736 
Q 959 2375 959 1747 
Q 959 1119 1226 758 
Q 1494 397 1959 397 
Q 2419 397 2687 759 
Q 2956 1122 2956 1747 
Q 2956 2369 2687 2733 
Q 2419 3097 1959 3097 
z
M 1959 3584 
Q 2709 3584 3137 3096 
Q 3566 2609 3566 1747 
Q 3566 888 3137 398 
Q 2709 -91 1959 -91 
Q 1206 -91 779 398 
Q 353 888 353 1747 
Q 353 2609 779 3096 
Q 1206 3584 1959 3584 
z
" transform="scale(0.015625)"/>
      <path id="DejaVuSans-66" d="M 2375 4863 
L 2375 4384 
L 1825 4384 
Q 1516 4384 1395 4259 
Q 1275 4134 1275 3809 
L 1275 3500 
L 2222 3500 
L 2222 3053 
L 1275 3053 
L 1275 0 
L 697 0 
L 697 3053 
L 147 3053 
L 147 3500 
L 697 3500 
L 697 3744 
Q 697 4328 969 4595 
Q 1241 4863 1831 4863 
L 2375 4863 
z
" transform="scale(0.015625)"/>
     </defs>
     <use xlink:href="#DejaVuSans-6f" transform="translate(0 0.015625)"/>
     <use xlink:href="#DejaVuSans-66" transform="translate(61.181641 0.015625)"/>
     <use xlink:href="#DejaVuSans-66" transform="translate(96.386719 0.015625)"/>
     <use xlink:href="#DejaVuSans-73" transform="translate(131.591797 0.015625)"/>
     <use xlink:href="#DejaVuSans-65" transform="translate(183.691406 0.015625)"/>
     <use xlink:href="#DejaVuSans-74" transform="translate(245.214844 0.015625)"/>
     <use xlink:href="#DejaVuSans-3a" transform="translate(284.423828 0.015625)"/>
     <use xlink:href="#DejaVuSans-20" transform="translate(318.115234 0.015625)"/>
     <use xlink:href="#DejaVuSans-35" transform="translate(349.902344 0.015625)"/>
     <use xlink:href="#DejaVuSans-37" transform="translate(406.275391 0.015625)"/>
     <use xlink:href="#DejaVuSans-39" transform="translate(469.898438 0.015625)"/>
     <use xlink:href="#DejaVuSans-2e" transform="translate(533.521484 0.015625)"/>
     <use xlink:href="#DejaVuSans-35" transform="translate(565.308594 0.015625)"/>
     <use xlink:href="#DejaVuSans-b1" transform="translate(628.931641 0.015625)"/>
     <use xlink:href="#DejaVuSans-33" transform="translate(712.720703 0.015625)"/>
     <use xlink:href="#DejaVuSans-2e" transform="translate(776.34375 0.015625)"/>
     <use xlink:href="#DejaVuSans-38" transform="translate(805.505859 0.015625)"/>
     <use xlink:href="#DejaVuSans-20" transform="translate(869.128906 0.015625)"/>
     <use xlink:href="#DejaVuSans-3bc" transform="translate(900.916016 0.015625)"/>
     <use xlink:href="#DejaVuSans-56" transform="translate(964.539062 0.015625)"/>
    </g>
   </g>
  </g>
  <g id="text_19">
   <!--  T1 experiment -->
   <g transform="translate(174.428125 16.318125) scale(0.12 -0.12)">
    <defs>
     <path id="DejaVuSans-54" d="M -19 4666 
L 3928 4666 
L 3928 4134 
L 2272 4134 
L 2272 0 
L 1638 0 
L 1638 4134 
L -19 4134 
L -19 4666 
z
" transform="scale(0.015625)"/>
     <path id="DejaVuSans-78" d="M 3513 3500 
L 2247 1797 
L 3578 0 
L 2900 0 
L 1881 1375 
L 863 0 
L 184 0 
L 1544 1831 
L 300 3500 
L 978 3500 
L 1906 2253 
L 2834 3500 
L 3513 3500 
z
" transform="scale(0.015625)"/>
    </defs>
    <use xlink:href="#DejaVuSans-20"/>
    <use xlink:href="#DejaVuSans-54" x="31.787109"/>
    <use xlink:href="#DejaVuSans-31" x="92.871094"/>
    <use xlink:href="#DejaVuSans-20" x="156.494141"/>
    <use xlink:href="#DejaVuSans-65" x="188.28125"/>
    <use xlink:href="#DejaVuSans-78" x="248.054688"/>
    <use xlink:href="#DejaVuSans-70" x="307.234375"/>
    <use xlink:href="#DejaVuSans-65" x="370.710938"/>
    <use xlink:href="#DejaVuSans-72" x="432.234375"/>
    <use xlink:href="#DejaVuSans-69" x="473.347656"/>
    <use xlink:href="#DejaVuSans-6d" x="501.130859"/>
    <use xlink:href="#DejaVuSans-65" x="598.542969"/>
    <use xlink:href="#DejaVuSans-6e" x="660.066406"/>
    <use xlink:href="#DejaVuSans-74" x="723.445312"/>
   </g>
   <!-- tuid: 20231225-165710-748-5ad049 -->
   <g transform="translate(110.48125 29.7555) scale(0.12 -0.12)">
    <defs>
     <path id="DejaVuSans-2d" d="M 313 2009 
L 1997 2009 
L 1997 1497 
L 313 1497 
L 313 2009 
z
" transform="scale(0.015625)"/>
    </defs>
    <use xlink:href="#DejaVuSans-74"/>
    <use xlink:href="#DejaVuSans-75" x="39.208984"/>
    <use xlink:href="#DejaVuSans-69" x="102.587891"/>
    <use xlink:href="#DejaVuSans-64" x="130.371094"/>
    <use xlink:href="#DejaVuSans-3a" x="193.847656"/>
    <use xlink:href="#DejaVuSans-20" x="227.539062"/>
    <use xlink:href="#DejaVuSans-32" x="259.326172"/>
    <use xlink:href="#DejaVuSans-30" x="322.949219"/>
    <use xlink:href="#DejaVuSans-32" x="386.572266"/>
    <use xlink:href="#DejaVuSans-33" x="450.195312"/>
    <use xlink:href="#DejaVuSans-31" x="513.818359"/>
    <use xlink:href="#DejaVuSans-32" x="577.441406"/>
    <use xlink:href="#DejaVuSans-32" x="641.064453"/>
    <use xlink:href="#DejaVuSans-35" x="704.6875"/>
    <use xlink:href="#DejaVuSans-2d" x="768.310547"/>
    <use xlink:href="#DejaVuSans-31" x="804.394531"/>
    <use xlink:href="#DejaVuSans-36" x="868.017578"/>
    <use xlink:href="#DejaVuSans-35" x="931.640625"/>
    <use xlink:href="#DejaVuSans-37" x="995.263672"/>
    <use xlink:href="#DejaVuSans-31" x="1058.886719"/>
    <use xlink:href="#DejaVuSans-30" x="1122.509766"/>
    <use xlink:href="#DejaVuSans-2d" x="1186.132812"/>
    <use xlink:href="#DejaVuSans-37" x="1222.216797"/>
    <use xlink:href="#DejaVuSans-34" x="1285.839844"/>
    <use xlink:href="#DejaVuSans-38" x="1349.462891"/>
    <use xlink:href="#DejaVuSans-2d" x="1413.085938"/>
    <use xlink:href="#DejaVuSans-35" x="1449.169922"/>
    <use xlink:href="#DejaVuSans-61" x="1512.792969"/>
    <use xlink:href="#DejaVuSans-64" x="1574.072266"/>
    <use xlink:href="#DejaVuSans-30" x="1637.548828"/>
    <use xlink:href="#DejaVuSans-34" x="1701.171875"/>
    <use xlink:href="#DejaVuSans-39" x="1764.794922"/>
   </g>
  </g>
 </g>
 <defs>
  <clipPath id="pbe419bfe18">
   <rect x="47.3875" y="41.76" width="357.12" height="266.112"/>
  </clipPath>
 </defs>
</svg>
