<?xml version="1.0" encoding="utf-8" standalone="no"?>
<!DOCTYPE svg PUBLIC "-//W3C//DTD SVG 1.1//EN"
  "http://www.w3.org/Graphics/SVG/1.1/DTD/svg11.dtd">
<svg xmlns:xlink="http://www.w3.org/1999/xlink" width="656.996313pt" height="345.42825pt" viewBox="0 0 656.996313 345.42825" xmlns="http://www.w3.org/2000/svg" version="1.1">
 <metadata>
  <rdf:RDF xmlns:dc="http://purl.org/dc/elements/1.1/" xmlns:cc="http://creativecommons.org/ns#" xmlns:rdf="http://www.w3.org/1999/02/22-rdf-syntax-ns#">
   <cc:Work>
    <dc:type rdf:resource="http://purl.org/dc/dcmitype/StillImage"/>
    <dc:date>2023-12-25T16:01:43.523115</dc:date>
    <dc:format>image/svg+xml</dc:format>
    <dc:creator>
     <cc:Agent>
      <dc:title>Matplotlib v3.8.2, https://matplotlib.org/</dc:title>
     </cc:Agent>
    </dc:creator>
   </cc:Work>
  </rdf:RDF>
 </metadata>
 <defs>
  <style type="text/css">*{stroke-linejoin: round; stroke-linecap: butt}</style>
 </defs>
 <g id="figure_1">
  <g id="patch_1">
   <path d="M 0 345.42825 
L 656.996313 345.42825 
L 656.996313 -0 
L 0 -0 
L 0 345.42825 
z
" style="fill: none; opacity: 0"/>
  </g>
  <g id="axes_1">
   <g id="patch_2">
    <path d="M 50.573438 307.872 
L 407.693438 307.872 
L 407.693438 41.76 
L 50.573438 41.76 
z
" style="fill: #ffffff"/>
   </g>
   <g id="matplotlib.axis_1">
    <g id="xtick_1">
     <g id="line2d_1">
      <defs>
       <path id="m0949fe2d72" d="M 0 0 
L 0 3.5 
" style="stroke: #000000; stroke-width: 0.8"/>
      </defs>
      <g>
       <use xlink:href="#m0949fe2d72" x="83.87638" y="307.872" style="stroke: #000000; stroke-width: 0.8"/>
      </g>
     </g>
     <g id="text_1">
      <!-- 836 -->
      <g transform="translate(74.33263 322.470438) scale(0.1 -0.1)">
       <defs>
        <path id="DejaVuSans-38" d="M 2034 2216 
Q 1584 2216 1326 1975 
Q 1069 1734 1069 1313 
Q 1069 891 1326 650 
Q 1584 409 2034 409 
Q 2484 409 2743 651 
Q 3003 894 3003 1313 
Q 3003 1734 2745 1975 
Q 2488 2216 2034 2216 
z
M 1403 2484 
Q 997 2584 770 2862 
Q 544 3141 544 3541 
Q 544 4100 942 4425 
Q 1341 4750 2034 4750 
Q 2731 4750 3128 4425 
Q 3525 4100 3525 3541 
Q 3525 3141 3298 2862 
Q 3072 2584 2669 2484 
Q 3125 2378 3379 2068 
Q 3634 1759 3634 1313 
Q 3634 634 3220 271 
Q 2806 -91 2034 -91 
Q 1263 -91 848 271 
Q 434 634 434 1313 
Q 434 1759 690 2068 
Q 947 2378 1403 2484 
z
M 1172 3481 
Q 1172 3119 1398 2916 
Q 1625 2713 2034 2713 
Q 2441 2713 2670 2916 
Q 2900 3119 2900 3481 
Q 2900 3844 2670 4047 
Q 2441 4250 2034 4250 
Q 1625 4250 1398 4047 
Q 1172 3844 1172 3481 
z
" transform="scale(0.015625)"/>
        <path id="DejaVuSans-33" d="M 2597 2516 
Q 3050 2419 3304 2112 
Q 3559 1806 3559 1356 
Q 3559 666 3084 287 
Q 2609 -91 1734 -91 
Q 1441 -91 1130 -33 
Q 819 25 488 141 
L 488 750 
Q 750 597 1062 519 
Q 1375 441 1716 441 
Q 2309 441 2620 675 
Q 2931 909 2931 1356 
Q 2931 1769 2642 2001 
Q 2353 2234 1838 2234 
L 1294 2234 
L 1294 2753 
L 1863 2753 
Q 2328 2753 2575 2939 
Q 2822 3125 2822 3475 
Q 2822 3834 2567 4026 
Q 2313 4219 1838 4219 
Q 1578 4219 1281 4162 
Q 984 4106 628 3988 
L 628 4550 
Q 988 4650 1302 4700 
Q 1616 4750 1894 4750 
Q 2613 4750 3031 4423 
Q 3450 4097 3450 3541 
Q 3450 3153 3228 2886 
Q 3006 2619 2597 2516 
z
" transform="scale(0.015625)"/>
        <path id="DejaVuSans-36" d="M 2113 2584 
Q 1688 2584 1439 2293 
Q 1191 2003 1191 1497 
Q 1191 994 1439 701 
Q 1688 409 2113 409 
Q 2538 409 2786 701 
Q 3034 994 3034 1497 
Q 3034 2003 2786 2293 
Q 2538 2584 2113 2584 
z
M 3366 4563 
L 3366 3988 
Q 3128 4100 2886 4159 
Q 2644 4219 2406 4219 
Q 1781 4219 1451 3797 
Q 1122 3375 1075 2522 
Q 1259 2794 1537 2939 
Q 1816 3084 2150 3084 
Q 2853 3084 3261 2657 
Q 3669 2231 3669 1497 
Q 3669 778 3244 343 
Q 2819 -91 2113 -91 
Q 1303 -91 875 529 
Q 447 1150 447 2328 
Q 447 3434 972 4092 
Q 1497 4750 2381 4750 
Q 2619 4750 2861 4703 
Q 3103 4656 3366 4563 
z
" transform="scale(0.015625)"/>
       </defs>
       <use xlink:href="#DejaVuSans-38"/>
       <use xlink:href="#DejaVuSans-33" x="63.623047"/>
       <use xlink:href="#DejaVuSans-36" x="127.246094"/>
      </g>
     </g>
    </g>
    <g id="xtick_2">
     <g id="line2d_2">
      <g>
       <use xlink:href="#m0949fe2d72" x="124.458199" y="307.872" style="stroke: #000000; stroke-width: 0.8"/>
      </g>
     </g>
     <g id="text_2">
      <!-- 836.5 -->
      <g transform="translate(110.144136 322.470438) scale(0.1 -0.1)">
       <defs>
        <path id="DejaVuSans-2e" d="M 684 794 
L 1344 794 
L 1344 0 
L 684 0 
L 684 794 
z
" transform="scale(0.015625)"/>
        <path id="DejaVuSans-35" d="M 691 4666 
L 3169 4666 
L 3169 4134 
L 1269 4134 
L 1269 2991 
Q 1406 3038 1543 3061 
Q 1681 3084 1819 3084 
Q 2600 3084 3056 2656 
Q 3513 2228 3513 1497 
Q 3513 744 3044 326 
Q 2575 -91 1722 -91 
Q 1428 -91 1123 -41 
Q 819 9 494 109 
L 494 744 
Q 775 591 1075 516 
Q 1375 441 1709 441 
Q 2250 441 2565 725 
Q 2881 1009 2881 1497 
Q 2881 1984 2565 2268 
Q 2250 2553 1709 2553 
Q 1456 2553 1204 2497 
Q 953 2441 691 2322 
L 691 4666 
z
" transform="scale(0.015625)"/>
       </defs>
       <use xlink:href="#DejaVuSans-38"/>
       <use xlink:href="#DejaVuSans-33" x="63.623047"/>
       <use xlink:href="#DejaVuSans-36" x="127.246094"/>
       <use xlink:href="#DejaVuSans-2e" x="190.869141"/>
       <use xlink:href="#DejaVuSans-35" x="222.65625"/>
      </g>
     </g>
    </g>
    <g id="xtick_3">
     <g id="line2d_3">
      <g>
       <use xlink:href="#m0949fe2d72" x="165.040017" y="307.872" style="stroke: #000000; stroke-width: 0.8"/>
      </g>
     </g>
     <g id="text_3">
      <!-- 837 -->
      <g transform="translate(155.496267 322.470438) scale(0.1 -0.1)">
       <defs>
        <path id="DejaVuSans-37" d="M 525 4666 
L 3525 4666 
L 3525 4397 
L 1831 0 
L 1172 0 
L 2766 4134 
L 525 4134 
L 525 4666 
z
" transform="scale(0.015625)"/>
       </defs>
       <use xlink:href="#DejaVuSans-38"/>
       <use xlink:href="#DejaVuSans-33" x="63.623047"/>
       <use xlink:href="#DejaVuSans-37" x="127.246094"/>
      </g>
     </g>
    </g>
    <g id="xtick_4">
     <g id="line2d_4">
      <g>
       <use xlink:href="#m0949fe2d72" x="205.621835" y="307.872" style="stroke: #000000; stroke-width: 0.8"/>
      </g>
     </g>
     <g id="text_4">
      <!-- 837.5 -->
      <g transform="translate(191.307773 322.470438) scale(0.1 -0.1)">
       <use xlink:href="#DejaVuSans-38"/>
       <use xlink:href="#DejaVuSans-33" x="63.623047"/>
       <use xlink:href="#DejaVuSans-37" x="127.246094"/>
       <use xlink:href="#DejaVuSans-2e" x="190.869141"/>
       <use xlink:href="#DejaVuSans-35" x="222.65625"/>
      </g>
     </g>
    </g>
    <g id="xtick_5">
     <g id="line2d_5">
      <g>
       <use xlink:href="#m0949fe2d72" x="246.203653" y="307.872" style="stroke: #000000; stroke-width: 0.8"/>
      </g>
     </g>
     <g id="text_5">
      <!-- 838 -->
      <g transform="translate(236.659903 322.470438) scale(0.1 -0.1)">
       <use xlink:href="#DejaVuSans-38"/>
       <use xlink:href="#DejaVuSans-33" x="63.623047"/>
       <use xlink:href="#DejaVuSans-38" x="127.246094"/>
      </g>
     </g>
    </g>
    <g id="xtick_6">
     <g id="line2d_6">
      <g>
       <use xlink:href="#m0949fe2d72" x="286.785471" y="307.872" style="stroke: #000000; stroke-width: 0.8"/>
      </g>
     </g>
     <g id="text_6">
      <!-- 838.5 -->
      <g transform="translate(272.471409 322.470438) scale(0.1 -0.1)">
       <use xlink:href="#DejaVuSans-38"/>
       <use xlink:href="#DejaVuSans-33" x="63.623047"/>
       <use xlink:href="#DejaVuSans-38" x="127.246094"/>
       <use xlink:href="#DejaVuSans-2e" x="190.869141"/>
       <use xlink:href="#DejaVuSans-35" x="222.65625"/>
      </g>
     </g>
    </g>
    <g id="xtick_7">
     <g id="line2d_7">
      <g>
       <use xlink:href="#m0949fe2d72" x="327.36729" y="307.872" style="stroke: #000000; stroke-width: 0.8"/>
      </g>
     </g>
     <g id="text_7">
      <!-- 839 -->
      <g transform="translate(317.82354 322.470438) scale(0.1 -0.1)">
       <defs>
        <path id="DejaVuSans-39" d="M 703 97 
L 703 672 
Q 941 559 1184 500 
Q 1428 441 1663 441 
Q 2288 441 2617 861 
Q 2947 1281 2994 2138 
Q 2813 1869 2534 1725 
Q 2256 1581 1919 1581 
Q 1219 1581 811 2004 
Q 403 2428 403 3163 
Q 403 3881 828 4315 
Q 1253 4750 1959 4750 
Q 2769 4750 3195 4129 
Q 3622 3509 3622 2328 
Q 3622 1225 3098 567 
Q 2575 -91 1691 -91 
Q 1453 -91 1209 -44 
Q 966 3 703 97 
z
M 1959 2075 
Q 2384 2075 2632 2365 
Q 2881 2656 2881 3163 
Q 2881 3666 2632 3958 
Q 2384 4250 1959 4250 
Q 1534 4250 1286 3958 
Q 1038 3666 1038 3163 
Q 1038 2656 1286 2365 
Q 1534 2075 1959 2075 
z
" transform="scale(0.015625)"/>
       </defs>
       <use xlink:href="#DejaVuSans-38"/>
       <use xlink:href="#DejaVuSans-33" x="63.623047"/>
       <use xlink:href="#DejaVuSans-39" x="127.246094"/>
      </g>
     </g>
    </g>
    <g id="xtick_8">
     <g id="line2d_8">
      <g>
       <use xlink:href="#m0949fe2d72" x="367.949108" y="307.872" style="stroke: #000000; stroke-width: 0.8"/>
      </g>
     </g>
     <g id="text_8">
      <!-- 839.5 -->
      <g transform="translate(353.635045 322.470438) scale(0.1 -0.1)">
       <use xlink:href="#DejaVuSans-38"/>
       <use xlink:href="#DejaVuSans-33" x="63.623047"/>
       <use xlink:href="#DejaVuSans-39" x="127.246094"/>
       <use xlink:href="#DejaVuSans-2e" x="190.869141"/>
       <use xlink:href="#DejaVuSans-35" x="222.65625"/>
      </g>
     </g>
    </g>
    <g id="text_9">
     <!-- Frequency [MHz] -->
     <g transform="translate(187.114688 336.148562) scale(0.1 -0.1)">
      <defs>
       <path id="DejaVuSans-46" d="M 628 4666 
L 3309 4666 
L 3309 4134 
L 1259 4134 
L 1259 2759 
L 3109 2759 
L 3109 2228 
L 1259 2228 
L 1259 0 
L 628 0 
L 628 4666 
z
" transform="scale(0.015625)"/>
       <path id="DejaVuSans-72" d="M 2631 2963 
Q 2534 3019 2420 3045 
Q 2306 3072 2169 3072 
Q 1681 3072 1420 2755 
Q 1159 2438 1159 1844 
L 1159 0 
L 581 0 
L 581 3500 
L 1159 3500 
L 1159 2956 
Q 1341 3275 1631 3429 
Q 1922 3584 2338 3584 
Q 2397 3584 2469 3576 
Q 2541 3569 2628 3553 
L 2631 2963 
z
" transform="scale(0.015625)"/>
       <path id="DejaVuSans-65" d="M 3597 1894 
L 3597 1613 
L 953 1613 
Q 991 1019 1311 708 
Q 1631 397 2203 397 
Q 2534 397 2845 478 
Q 3156 559 3463 722 
L 3463 178 
Q 3153 47 2828 -22 
Q 2503 -91 2169 -91 
Q 1331 -91 842 396 
Q 353 884 353 1716 
Q 353 2575 817 3079 
Q 1281 3584 2069 3584 
Q 2775 3584 3186 3129 
Q 3597 2675 3597 1894 
z
M 3022 2063 
Q 3016 2534 2758 2815 
Q 2500 3097 2075 3097 
Q 1594 3097 1305 2825 
Q 1016 2553 972 2059 
L 3022 2063 
z
" transform="scale(0.015625)"/>
       <path id="DejaVuSans-71" d="M 947 1747 
Q 947 1113 1208 752 
Q 1469 391 1925 391 
Q 2381 391 2643 752 
Q 2906 1113 2906 1747 
Q 2906 2381 2643 2742 
Q 2381 3103 1925 3103 
Q 1469 3103 1208 2742 
Q 947 2381 947 1747 
z
M 2906 525 
Q 2725 213 2448 61 
Q 2172 -91 1784 -91 
Q 1150 -91 751 415 
Q 353 922 353 1747 
Q 353 2572 751 3078 
Q 1150 3584 1784 3584 
Q 2172 3584 2448 3432 
Q 2725 3281 2906 2969 
L 2906 3500 
L 3481 3500 
L 3481 -1331 
L 2906 -1331 
L 2906 525 
z
" transform="scale(0.015625)"/>
       <path id="DejaVuSans-75" d="M 544 1381 
L 544 3500 
L 1119 3500 
L 1119 1403 
Q 1119 906 1312 657 
Q 1506 409 1894 409 
Q 2359 409 2629 706 
Q 2900 1003 2900 1516 
L 2900 3500 
L 3475 3500 
L 3475 0 
L 2900 0 
L 2900 538 
Q 2691 219 2414 64 
Q 2138 -91 1772 -91 
Q 1169 -91 856 284 
Q 544 659 544 1381 
z
M 1991 3584 
L 1991 3584 
z
" transform="scale(0.015625)"/>
       <path id="DejaVuSans-6e" d="M 3513 2113 
L 3513 0 
L 2938 0 
L 2938 2094 
Q 2938 2591 2744 2837 
Q 2550 3084 2163 3084 
Q 1697 3084 1428 2787 
Q 1159 2491 1159 1978 
L 1159 0 
L 581 0 
L 581 3500 
L 1159 3500 
L 1159 2956 
Q 1366 3272 1645 3428 
Q 1925 3584 2291 3584 
Q 2894 3584 3203 3211 
Q 3513 2838 3513 2113 
z
" transform="scale(0.015625)"/>
       <path id="DejaVuSans-63" d="M 3122 3366 
L 3122 2828 
Q 2878 2963 2633 3030 
Q 2388 3097 2138 3097 
Q 1578 3097 1268 2742 
Q 959 2388 959 1747 
Q 959 1106 1268 751 
Q 1578 397 2138 397 
Q 2388 397 2633 464 
Q 2878 531 3122 666 
L 3122 134 
Q 2881 22 2623 -34 
Q 2366 -91 2075 -91 
Q 1284 -91 818 406 
Q 353 903 353 1747 
Q 353 2603 823 3093 
Q 1294 3584 2113 3584 
Q 2378 3584 2631 3529 
Q 2884 3475 3122 3366 
z
" transform="scale(0.015625)"/>
       <path id="DejaVuSans-79" d="M 2059 -325 
Q 1816 -950 1584 -1140 
Q 1353 -1331 966 -1331 
L 506 -1331 
L 506 -850 
L 844 -850 
Q 1081 -850 1212 -737 
Q 1344 -625 1503 -206 
L 1606 56 
L 191 3500 
L 800 3500 
L 1894 763 
L 2988 3500 
L 3597 3500 
L 2059 -325 
z
" transform="scale(0.015625)"/>
       <path id="DejaVuSans-20" transform="scale(0.015625)"/>
       <path id="DejaVuSans-5b" d="M 550 4863 
L 1875 4863 
L 1875 4416 
L 1125 4416 
L 1125 -397 
L 1875 -397 
L 1875 -844 
L 550 -844 
L 550 4863 
z
" transform="scale(0.015625)"/>
       <path id="DejaVuSans-4d" d="M 628 4666 
L 1569 4666 
L 2759 1491 
L 3956 4666 
L 4897 4666 
L 4897 0 
L 4281 0 
L 4281 4097 
L 3078 897 
L 2444 897 
L 1241 4097 
L 1241 0 
L 628 0 
L 628 4666 
z
" transform="scale(0.015625)"/>
       <path id="DejaVuSans-48" d="M 628 4666 
L 1259 4666 
L 1259 2753 
L 3553 2753 
L 3553 4666 
L 4184 4666 
L 4184 0 
L 3553 0 
L 3553 2222 
L 1259 2222 
L 1259 0 
L 628 0 
L 628 4666 
z
" transform="scale(0.015625)"/>
       <path id="DejaVuSans-7a" d="M 353 3500 
L 3084 3500 
L 3084 2975 
L 922 459 
L 3084 459 
L 3084 0 
L 275 0 
L 275 525 
L 2438 3041 
L 353 3041 
L 353 3500 
z
" transform="scale(0.015625)"/>
       <path id="DejaVuSans-5d" d="M 1947 4863 
L 1947 -844 
L 622 -844 
L 622 -397 
L 1369 -397 
L 1369 4416 
L 622 4416 
L 622 4863 
L 1947 4863 
z
" transform="scale(0.015625)"/>
      </defs>
      <use xlink:href="#DejaVuSans-46"/>
      <use xlink:href="#DejaVuSans-72" x="50.269531"/>
      <use xlink:href="#DejaVuSans-65" x="89.132812"/>
      <use xlink:href="#DejaVuSans-71" x="150.65625"/>
      <use xlink:href="#DejaVuSans-75" x="214.132812"/>
      <use xlink:href="#DejaVuSans-65" x="277.511719"/>
      <use xlink:href="#DejaVuSans-6e" x="339.035156"/>
      <use xlink:href="#DejaVuSans-63" x="402.414062"/>
      <use xlink:href="#DejaVuSans-79" x="457.394531"/>
      <use xlink:href="#DejaVuSans-20" x="516.574219"/>
      <use xlink:href="#DejaVuSans-5b" x="548.361328"/>
      <use xlink:href="#DejaVuSans-4d" x="587.375"/>
      <use xlink:href="#DejaVuSans-48" x="673.654297"/>
      <use xlink:href="#DejaVuSans-7a" x="748.849609"/>
      <use xlink:href="#DejaVuSans-5d" x="801.339844"/>
     </g>
    </g>
    <g id="text_10">
     <!-- +5 GHz -->
     <g transform="translate(369.255938 335.148562) scale(0.1 -0.1)">
      <defs>
       <path id="DejaVuSans-2b" d="M 2944 4013 
L 2944 2272 
L 4684 2272 
L 4684 1741 
L 2944 1741 
L 2944 0 
L 2419 0 
L 2419 1741 
L 678 1741 
L 678 2272 
L 2419 2272 
L 2419 4013 
L 2944 4013 
z
" transform="scale(0.015625)"/>
       <path id="DejaVuSans-47" d="M 3809 666 
L 3809 1919 
L 2778 1919 
L 2778 2438 
L 4434 2438 
L 4434 434 
Q 4069 175 3628 42 
Q 3188 -91 2688 -91 
Q 1594 -91 976 548 
Q 359 1188 359 2328 
Q 359 3472 976 4111 
Q 1594 4750 2688 4750 
Q 3144 4750 3555 4637 
Q 3966 4525 4313 4306 
L 4313 3634 
Q 3963 3931 3569 4081 
Q 3175 4231 2741 4231 
Q 1884 4231 1454 3753 
Q 1025 3275 1025 2328 
Q 1025 1384 1454 906 
Q 1884 428 2741 428 
Q 3075 428 3337 486 
Q 3600 544 3809 666 
z
" transform="scale(0.015625)"/>
      </defs>
      <use xlink:href="#DejaVuSans-2b"/>
      <use xlink:href="#DejaVuSans-35" x="83.789062"/>
      <use xlink:href="#DejaVuSans-20" x="147.412109"/>
      <use xlink:href="#DejaVuSans-47" x="179.199219"/>
      <use xlink:href="#DejaVuSans-48" x="256.689453"/>
      <use xlink:href="#DejaVuSans-7a" x="331.884766"/>
     </g>
    </g>
   </g>
   <g id="matplotlib.axis_2">
    <g id="ytick_1">
     <g id="line2d_9">
      <defs>
       <path id="m2500ee4d1b" d="M 0 0 
L -3.5 0 
" style="stroke: #000000; stroke-width: 0.8"/>
      </defs>
      <g>
       <use xlink:href="#m2500ee4d1b" x="50.573438" y="275.964444" style="stroke: #000000; stroke-width: 0.8"/>
      </g>
     </g>
     <g id="text_11">
      <!-- -150 -->
      <g transform="translate(20.878125 279.763662) scale(0.1 -0.1)">
       <defs>
        <path id="DejaVuSans-2d" d="M 313 2009 
L 1997 2009 
L 1997 1497 
L 313 1497 
L 313 2009 
z
" transform="scale(0.015625)"/>
        <path id="DejaVuSans-31" d="M 794 531 
L 1825 531 
L 1825 4091 
L 703 3866 
L 703 4441 
L 1819 4666 
L 2450 4666 
L 2450 531 
L 3481 531 
L 3481 0 
L 794 0 
L 794 531 
z
" transform="scale(0.015625)"/>
        <path id="DejaVuSans-30" d="M 2034 4250 
Q 1547 4250 1301 3770 
Q 1056 3291 1056 2328 
Q 1056 1369 1301 889 
Q 1547 409 2034 409 
Q 2525 409 2770 889 
Q 3016 1369 3016 2328 
Q 3016 3291 2770 3770 
Q 2525 4250 2034 4250 
z
M 2034 4750 
Q 2819 4750 3233 4129 
Q 3647 3509 3647 2328 
Q 3647 1150 3233 529 
Q 2819 -91 2034 -91 
Q 1250 -91 836 529 
Q 422 1150 422 2328 
Q 422 3509 836 4129 
Q 1250 4750 2034 4750 
z
" transform="scale(0.015625)"/>
       </defs>
       <use xlink:href="#DejaVuSans-2d"/>
       <use xlink:href="#DejaVuSans-31" x="36.083984"/>
       <use xlink:href="#DejaVuSans-35" x="99.707031"/>
       <use xlink:href="#DejaVuSans-30" x="163.330078"/>
      </g>
     </g>
    </g>
    <g id="ytick_2">
     <g id="line2d_10">
      <g>
       <use xlink:href="#m2500ee4d1b" x="50.573438" y="242.299035" style="stroke: #000000; stroke-width: 0.8"/>
      </g>
     </g>
     <g id="text_12">
      <!-- -100 -->
      <g transform="translate(20.878125 246.098254) scale(0.1 -0.1)">
       <use xlink:href="#DejaVuSans-2d"/>
       <use xlink:href="#DejaVuSans-31" x="36.083984"/>
       <use xlink:href="#DejaVuSans-30" x="99.707031"/>
       <use xlink:href="#DejaVuSans-30" x="163.330078"/>
      </g>
     </g>
    </g>
    <g id="ytick_3">
     <g id="line2d_11">
      <g>
       <use xlink:href="#m2500ee4d1b" x="50.573438" y="208.633627" style="stroke: #000000; stroke-width: 0.8"/>
      </g>
     </g>
     <g id="text_13">
      <!-- -50 -->
      <g transform="translate(27.240625 212.432846) scale(0.1 -0.1)">
       <use xlink:href="#DejaVuSans-2d"/>
       <use xlink:href="#DejaVuSans-35" x="36.083984"/>
       <use xlink:href="#DejaVuSans-30" x="99.707031"/>
      </g>
     </g>
    </g>
    <g id="ytick_4">
     <g id="line2d_12">
      <g>
       <use xlink:href="#m2500ee4d1b" x="50.573438" y="174.968219" style="stroke: #000000; stroke-width: 0.8"/>
      </g>
     </g>
     <g id="text_14">
      <!-- 0 -->
      <g transform="translate(37.210938 178.767438) scale(0.1 -0.1)">
       <use xlink:href="#DejaVuSans-30"/>
      </g>
     </g>
    </g>
    <g id="ytick_5">
     <g id="line2d_13">
      <g>
       <use xlink:href="#m2500ee4d1b" x="50.573438" y="141.30281" style="stroke: #000000; stroke-width: 0.8"/>
      </g>
     </g>
     <g id="text_15">
      <!-- 50 -->
      <g transform="translate(30.848438 145.102029) scale(0.1 -0.1)">
       <use xlink:href="#DejaVuSans-35"/>
       <use xlink:href="#DejaVuSans-30" x="63.623047"/>
      </g>
     </g>
    </g>
    <g id="ytick_6">
     <g id="line2d_14">
      <g>
       <use xlink:href="#m2500ee4d1b" x="50.573438" y="107.637402" style="stroke: #000000; stroke-width: 0.8"/>
      </g>
     </g>
     <g id="text_16">
      <!-- 100 -->
      <g transform="translate(24.485938 111.436621) scale(0.1 -0.1)">
       <use xlink:href="#DejaVuSans-31"/>
       <use xlink:href="#DejaVuSans-30" x="63.623047"/>
       <use xlink:href="#DejaVuSans-30" x="127.246094"/>
      </g>
     </g>
    </g>
    <g id="ytick_7">
     <g id="line2d_15">
      <g>
       <use xlink:href="#m2500ee4d1b" x="50.573438" y="73.971994" style="stroke: #000000; stroke-width: 0.8"/>
      </g>
     </g>
     <g id="text_17">
      <!-- 150 -->
      <g transform="translate(24.485938 77.771213) scale(0.1 -0.1)">
       <use xlink:href="#DejaVuSans-31"/>
       <use xlink:href="#DejaVuSans-35" x="63.623047"/>
       <use xlink:href="#DejaVuSans-30" x="127.246094"/>
      </g>
     </g>
    </g>
    <g id="text_18">
     <!-- Phase0 [deg] -->
     <g transform="translate(14.798438 207.841781) rotate(-90) scale(0.1 -0.1)">
      <defs>
       <path id="DejaVuSans-50" d="M 1259 4147 
L 1259 2394 
L 2053 2394 
Q 2494 2394 2734 2622 
Q 2975 2850 2975 3272 
Q 2975 3691 2734 3919 
Q 2494 4147 2053 4147 
L 1259 4147 
z
M 628 4666 
L 2053 4666 
Q 2838 4666 3239 4311 
Q 3641 3956 3641 3272 
Q 3641 2581 3239 2228 
Q 2838 1875 2053 1875 
L 1259 1875 
L 1259 0 
L 628 0 
L 628 4666 
z
" transform="scale(0.015625)"/>
       <path id="DejaVuSans-68" d="M 3513 2113 
L 3513 0 
L 2938 0 
L 2938 2094 
Q 2938 2591 2744 2837 
Q 2550 3084 2163 3084 
Q 1697 3084 1428 2787 
Q 1159 2491 1159 1978 
L 1159 0 
L 581 0 
L 581 4863 
L 1159 4863 
L 1159 2956 
Q 1366 3272 1645 3428 
Q 1925 3584 2291 3584 
Q 2894 3584 3203 3211 
Q 3513 2838 3513 2113 
z
" transform="scale(0.015625)"/>
       <path id="DejaVuSans-61" d="M 2194 1759 
Q 1497 1759 1228 1600 
Q 959 1441 959 1056 
Q 959 750 1161 570 
Q 1363 391 1709 391 
Q 2188 391 2477 730 
Q 2766 1069 2766 1631 
L 2766 1759 
L 2194 1759 
z
M 3341 1997 
L 3341 0 
L 2766 0 
L 2766 531 
Q 2569 213 2275 61 
Q 1981 -91 1556 -91 
Q 1019 -91 701 211 
Q 384 513 384 1019 
Q 384 1609 779 1909 
Q 1175 2209 1959 2209 
L 2766 2209 
L 2766 2266 
Q 2766 2663 2505 2880 
Q 2244 3097 1772 3097 
Q 1472 3097 1187 3025 
Q 903 2953 641 2809 
L 641 3341 
Q 956 3463 1253 3523 
Q 1550 3584 1831 3584 
Q 2591 3584 2966 3190 
Q 3341 2797 3341 1997 
z
" transform="scale(0.015625)"/>
       <path id="DejaVuSans-73" d="M 2834 3397 
L 2834 2853 
Q 2591 2978 2328 3040 
Q 2066 3103 1784 3103 
Q 1356 3103 1142 2972 
Q 928 2841 928 2578 
Q 928 2378 1081 2264 
Q 1234 2150 1697 2047 
L 1894 2003 
Q 2506 1872 2764 1633 
Q 3022 1394 3022 966 
Q 3022 478 2636 193 
Q 2250 -91 1575 -91 
Q 1294 -91 989 -36 
Q 684 19 347 128 
L 347 722 
Q 666 556 975 473 
Q 1284 391 1588 391 
Q 1994 391 2212 530 
Q 2431 669 2431 922 
Q 2431 1156 2273 1281 
Q 2116 1406 1581 1522 
L 1381 1569 
Q 847 1681 609 1914 
Q 372 2147 372 2553 
Q 372 3047 722 3315 
Q 1072 3584 1716 3584 
Q 2034 3584 2315 3537 
Q 2597 3491 2834 3397 
z
" transform="scale(0.015625)"/>
       <path id="DejaVuSans-64" d="M 2906 2969 
L 2906 4863 
L 3481 4863 
L 3481 0 
L 2906 0 
L 2906 525 
Q 2725 213 2448 61 
Q 2172 -91 1784 -91 
Q 1150 -91 751 415 
Q 353 922 353 1747 
Q 353 2572 751 3078 
Q 1150 3584 1784 3584 
Q 2172 3584 2448 3432 
Q 2725 3281 2906 2969 
z
M 947 1747 
Q 947 1113 1208 752 
Q 1469 391 1925 391 
Q 2381 391 2643 752 
Q 2906 1113 2906 1747 
Q 2906 2381 2643 2742 
Q 2381 3103 1925 3103 
Q 1469 3103 1208 2742 
Q 947 2381 947 1747 
z
" transform="scale(0.015625)"/>
       <path id="DejaVuSans-67" d="M 2906 1791 
Q 2906 2416 2648 2759 
Q 2391 3103 1925 3103 
Q 1463 3103 1205 2759 
Q 947 2416 947 1791 
Q 947 1169 1205 825 
Q 1463 481 1925 481 
Q 2391 481 2648 825 
Q 2906 1169 2906 1791 
z
M 3481 434 
Q 3481 -459 3084 -895 
Q 2688 -1331 1869 -1331 
Q 1566 -1331 1297 -1286 
Q 1028 -1241 775 -1147 
L 775 -588 
Q 1028 -725 1275 -790 
Q 1522 -856 1778 -856 
Q 2344 -856 2625 -561 
Q 2906 -266 2906 331 
L 2906 616 
Q 2728 306 2450 153 
Q 2172 0 1784 0 
Q 1141 0 747 490 
Q 353 981 353 1791 
Q 353 2603 747 3093 
Q 1141 3584 1784 3584 
Q 2172 3584 2450 3431 
Q 2728 3278 2906 2969 
L 2906 3500 
L 3481 3500 
L 3481 434 
z
" transform="scale(0.015625)"/>
      </defs>
      <use xlink:href="#DejaVuSans-50"/>
      <use xlink:href="#DejaVuSans-68" x="60.302734"/>
      <use xlink:href="#DejaVuSans-61" x="123.681641"/>
      <use xlink:href="#DejaVuSans-73" x="184.960938"/>
      <use xlink:href="#DejaVuSans-65" x="237.060547"/>
      <use xlink:href="#DejaVuSans-30" x="298.583984"/>
      <use xlink:href="#DejaVuSans-20" x="362.207031"/>
      <use xlink:href="#DejaVuSans-5b" x="393.994141"/>
      <use xlink:href="#DejaVuSans-64" x="433.007812"/>
      <use xlink:href="#DejaVuSans-65" x="496.484375"/>
      <use xlink:href="#DejaVuSans-67" x="558.007812"/>
      <use xlink:href="#DejaVuSans-5d" x="621.484375"/>
     </g>
    </g>
   </g>
   <g id="line2d_16">
    <path d="M 66.806165 64.205738 
L 78.001149 66.454121 
L 89.196133 67.437888 
L 100.391118 67.196754 
L 111.586102 69.940439 
L 122.781086 72.266693 
L 133.976071 73.07782 
L 145.171055 79.077113 
L 156.366039 78.739893 
L 167.561024 82.852164 
L 178.756008 89.632019 
L 189.950992 93.033427 
L 201.145977 94.133042 
L 212.340961 100.055169 
L 223.535945 105.83225 
L 234.73093 104.579857 
L 245.925914 110.94005 
L 257.120898 113.795541 
L 268.315883 95.31556 
L 279.510867 95.479659 
L 290.705851 79.674572 
L 301.900836 75.649784 
L 313.09582 286.484388 
L 324.290804 284.451378 
L 335.485789 283.757544 
L 346.680773 54.051964 
L 357.875757 286.363187 
L 369.070742 54.43494 
L 380.265726 286.912478 
L 391.46071 291.50601 
" clip-path="url(#p4251efab6f)" style="fill: none; stroke: #440154; stroke-width: 1.5; stroke-linecap: square"/>
   </g>
   <g id="line2d_17">
    <path d="M 66.806165 64.383666 
L 78.001149 65.673296 
L 89.196133 67.340327 
L 100.391118 70.293094 
L 111.586102 71.540828 
L 122.781086 73.37803 
L 133.976071 75.221345 
L 145.171055 78.442965 
L 156.366039 82.071199 
L 167.561024 85.528746 
L 178.756008 88.822065 
L 189.950992 91.550614 
L 201.145977 96.593126 
L 212.340961 100.764527 
L 223.535945 102.790867 
L 234.73093 106.624552 
L 245.925914 108.132955 
L 257.120898 107.368361 
L 268.315883 107.219004 
L 279.510867 96.031373 
L 290.705851 79.121662 
L 301.900836 59.25329 
L 313.09582 53.856 
L 324.290804 293.006892 
L 335.485789 289.072892 
L 346.680773 287.793595 
L 357.875757 286.525568 
L 369.070742 287.817338 
L 380.265726 288.658035 
L 391.46071 290.858081 
" clip-path="url(#p4251efab6f)" style="fill: none; stroke: #470d60; stroke-width: 1.5; stroke-linecap: square"/>
   </g>
   <g id="line2d_18">
    <path d="M 66.806165 65.532415 
L 78.001149 65.551543 
L 89.196133 67.512101 
L 100.391118 69.618587 
L 111.586102 71.851036 
L 122.781086 73.547563 
L 133.976071 76.226101 
L 145.171055 78.375516 
L 156.366039 81.249438 
L 167.561024 84.955556 
L 178.756008 88.56466 
L 189.950992 92.455349 
L 201.145977 96.639043 
L 212.340961 100.32261 
L 223.535945 103.541154 
L 234.73093 107.784298 
L 245.925914 109.64329 
L 257.120898 108.714923 
L 268.315883 105.485106 
L 279.510867 95.396419 
L 290.705851 76.231688 
L 301.900836 60.143544 
L 313.09582 292.66371 
L 324.290804 291.537942 
L 335.485789 289.199502 
L 346.680773 287.399882 
L 357.875757 288.878162 
L 369.070742 288.815407 
L 380.265726 289.400892 
L 391.46071 290.203129 
" clip-path="url(#p4251efab6f)" style="fill: none; stroke: #481a6c; stroke-width: 1.5; stroke-linecap: square"/>
   </g>
   <g id="line2d_19">
    <path d="M 66.806165 64.936816 
L 78.001149 66.290473 
L 89.196133 67.425828 
L 100.391118 69.553748 
L 111.586102 71.395685 
L 122.781086 73.699416 
L 133.976071 75.381357 
L 145.171055 78.394008 
L 156.366039 81.557366 
L 167.561024 84.808716 
L 178.756008 88.414702 
L 189.950992 92.488531 
L 201.145977 96.156844 
L 212.340961 101.372622 
L 223.535945 104.330957 
L 234.73093 107.058841 
L 245.925914 109.669124 
L 257.120898 109.982161 
L 268.315883 107.001179 
L 279.510867 98.156165 
L 290.705851 77.498907 
L 301.900836 57.188792 
L 313.09582 293.984487 
L 324.290804 290.379016 
L 335.485789 287.755307 
L 346.680773 288.54503 
L 357.875757 288.527074 
L 369.070742 288.440834 
L 380.265726 289.786489 
L 391.46071 290.054514 
" clip-path="url(#p4251efab6f)" style="fill: none; stroke: #482576; stroke-width: 1.5; stroke-linecap: square"/>
   </g>
   <g id="line2d_20">
    <path d="M 66.806165 64.791092 
L 78.001149 66.385924 
L 89.196133 67.945102 
L 100.391118 69.40263 
L 111.586102 71.016705 
L 122.781086 73.518463 
L 133.976071 75.890045 
L 145.171055 78.884573 
L 156.366039 81.973341 
L 167.561024 85.317867 
L 178.756008 88.90189 
L 189.950992 92.503941 
L 201.145977 96.810078 
L 212.340961 101.0227 
L 223.535945 104.526488 
L 234.73093 107.978615 
L 245.925914 109.515968 
L 257.120898 109.765823 
L 268.315883 105.172707 
L 279.510867 93.956463 
L 290.705851 72.594682 
L 301.900836 57.429245 
L 313.09582 292.627552 
L 324.290804 289.082804 
L 335.485789 288.061405 
L 346.680773 287.209909 
L 357.875757 287.960082 
L 369.070742 288.116732 
L 380.265726 289.013183 
L 391.46071 289.257634 
" clip-path="url(#p4251efab6f)" style="fill: none; stroke: #46307e; stroke-width: 1.5; stroke-linecap: square"/>
   </g>
   <g id="line2d_21">
    <path d="M 66.806165 64.795529 
L 78.001149 66.275691 
L 89.196133 67.793901 
L 100.391118 69.581246 
L 111.586102 71.632657 
L 122.781086 73.625231 
L 133.976071 76.096815 
L 145.171055 78.701198 
L 156.366039 82.007192 
L 167.561024 85.366202 
L 178.756008 89.22211 
L 189.950992 92.946835 
L 201.145977 97.269599 
L 212.340961 100.995524 
L 223.535945 104.459937 
L 234.73093 106.907769 
L 245.925914 108.955677 
L 257.120898 107.960659 
L 268.315883 105.242757 
L 279.510867 91.241541 
L 290.705851 72.115322 
L 301.900836 56.673158 
L 313.09582 292.18591 
L 324.290804 289.372808 
L 335.485789 287.746005 
L 346.680773 287.635701 
L 357.875757 287.723665 
L 369.070742 288.904956 
L 380.265726 288.801282 
L 391.46071 289.891996 
" clip-path="url(#p4251efab6f)" style="fill: none; stroke: #443b84; stroke-width: 1.5; stroke-linecap: square"/>
   </g>
   <g id="line2d_22">
    <path d="M 66.806165 64.965411 
L 78.001149 66.541114 
L 89.196133 68.003407 
L 100.391118 69.771878 
L 111.586102 71.56724 
L 122.781086 73.945721 
L 133.976071 76.408326 
L 145.171055 79.340876 
L 156.366039 82.396854 
L 167.561024 85.678872 
L 178.756008 89.728974 
L 189.950992 93.508963 
L 201.145977 97.159423 
L 212.340961 100.789776 
L 223.535945 103.205106 
L 234.73093 105.030796 
L 245.925914 106.617135 
L 257.120898 105.166917 
L 268.315883 98.969409 
L 279.510867 84.614451 
L 290.705851 68.291979 
L 301.900836 54.626694 
L 313.09582 291.078101 
L 324.290804 288.787466 
L 335.485789 287.824737 
L 346.680773 287.506532 
L 357.875757 287.961248 
L 369.070742 288.458757 
L 380.265726 289.443364 
L 391.46071 289.716746 
" clip-path="url(#p4251efab6f)" style="fill: none; stroke: #404588; stroke-width: 1.5; stroke-linecap: square"/>
   </g>
   <g id="line2d_23">
    <path d="M 66.806165 65.136185 
L 78.001149 66.364249 
L 89.196133 67.931382 
L 100.391118 69.864122 
L 111.586102 71.870185 
L 122.781086 74.222001 
L 133.976071 76.80398 
L 145.171055 79.811062 
L 156.366039 82.890393 
L 167.561024 86.362039 
L 178.756008 89.988428 
L 189.950992 93.512891 
L 201.145977 97.347068 
L 212.340961 100.591356 
L 223.535945 102.555049 
L 234.73093 104.945341 
L 245.925914 102.634928 
L 257.120898 97.986283 
L 268.315883 88.403717 
L 279.510867 77.738616 
L 290.705851 62.118581 
L 301.900836 295.288193 
L 313.09582 291.012154 
L 324.290804 288.558984 
L 335.485789 287.383444 
L 346.680773 287.74223 
L 357.875757 287.560694 
L 369.070742 288.116772 
L 380.265726 289.28864 
L 391.46071 289.855874 
" clip-path="url(#p4251efab6f)" style="fill: none; stroke: #3c4f8a; stroke-width: 1.5; stroke-linecap: square"/>
   </g>
   <g id="line2d_24">
    <path d="M 66.806165 65.065978 
L 78.001149 66.353258 
L 89.196133 68.169737 
L 100.391118 69.921858 
L 111.586102 71.982952 
L 122.781086 74.196724 
L 133.976071 77.019875 
L 145.171055 79.841913 
L 156.366039 83.332043 
L 167.561024 86.316359 
L 178.756008 90.089353 
L 189.950992 93.355854 
L 201.145977 96.397758 
L 212.340961 99.483349 
L 223.535945 102.015016 
L 234.73093 104.070898 
L 245.925914 103.791537 
L 257.120898 97.654662 
L 268.315883 85.729437 
L 279.510867 70.592513 
L 290.705851 58.781069 
L 301.900836 294.318316 
L 313.09582 290.118473 
L 324.290804 288.972586 
L 335.485789 287.444003 
L 346.680773 287.769235 
L 357.875757 287.760037 
L 369.070742 288.754703 
L 380.265726 289.010607 
L 391.46071 289.811378 
" clip-path="url(#p4251efab6f)" style="fill: none; stroke: #38598c; stroke-width: 1.5; stroke-linecap: square"/>
   </g>
   <g id="line2d_25">
    <path d="M 66.806165 65.299702 
L 78.001149 66.83925 
L 89.196133 68.442624 
L 100.391118 70.463337 
L 111.586102 72.607773 
L 122.781086 75.21597 
L 133.976071 77.9475 
L 145.171055 81.086673 
L 156.366039 84.688652 
L 167.561024 86.755287 
L 178.756008 90.633935 
L 189.950992 93.461627 
L 201.145977 95.814153 
L 212.340961 97.308807 
L 223.535945 96.943905 
L 234.73093 96.375048 
L 245.925914 94.578506 
L 257.120898 90.266787 
L 268.315883 80.185979 
L 279.510867 68.622678 
L 290.705851 58.374368 
L 301.900836 292.994302 
L 313.09582 290.193783 
L 324.290804 288.757324 
L 335.485789 287.863581 
L 346.680773 287.499778 
L 357.875757 288.017895 
L 369.070742 288.858191 
L 380.265726 289.157231 
L 391.46071 290.012554 
" clip-path="url(#p4251efab6f)" style="fill: none; stroke: #33628d; stroke-width: 1.5; stroke-linecap: square"/>
   </g>
   <g id="line2d_26">
    <path d="M 66.806165 65.502691 
L 78.001149 67.25629 
L 89.196133 68.861482 
L 100.391118 70.921933 
L 111.586102 73.486633 
L 122.781086 76.008051 
L 133.976071 79.311867 
L 145.171055 82.59987 
L 156.366039 85.250806 
L 167.561024 87.608274 
L 178.756008 91.188755 
L 189.950992 93.324867 
L 201.145977 94.06647 
L 212.340961 91.515533 
L 223.535945 87.33878 
L 234.73093 79.787854 
L 245.925914 79.094581 
L 257.120898 75.176428 
L 268.315883 68.178548 
L 279.510867 62.327992 
L 290.705851 55.826894 
L 301.900836 292.292687 
L 313.09582 289.70447 
L 324.290804 288.630291 
L 335.485789 288.105441 
L 346.680773 287.624965 
L 357.875757 288.463497 
L 369.070742 288.595858 
L 380.265726 289.157083 
L 391.46071 289.964224 
" clip-path="url(#p4251efab6f)" style="fill: none; stroke: #2f6b8e; stroke-width: 1.5; stroke-linecap: square"/>
   </g>
   <g id="line2d_27">
    <path d="M 66.806165 66.112262 
L 78.001149 67.670119 
L 89.196133 69.386699 
L 100.391118 72.629585 
L 111.586102 74.970325 
L 122.781086 77.21682 
L 133.976071 80.73381 
L 145.171055 83.010803 
L 156.366039 86.217687 
L 167.561024 88.962301 
L 178.756008 90.714218 
L 189.950992 91.88004 
L 201.145977 90.709609 
L 212.340961 86.10693 
L 223.535945 79.797605 
L 234.73093 70.777087 
L 245.925914 65.77391 
L 257.120898 61.475219 
L 268.315883 59.343308 
L 279.510867 55.121808 
L 290.705851 294.134992 
L 301.900836 291.189292 
L 313.09582 288.921198 
L 324.290804 288.497203 
L 335.485789 288.298229 
L 346.680773 288.36696 
L 357.875757 288.283641 
L 369.070742 289.268005 
L 380.265726 289.549577 
L 391.46071 289.910714 
" clip-path="url(#p4251efab6f)" style="fill: none; stroke: #2c738e; stroke-width: 1.5; stroke-linecap: square"/>
   </g>
   <g id="line2d_28">
    <path d="M 66.806165 66.190361 
L 78.001149 68.212057 
L 89.196133 70.676139 
L 100.391118 73.740213 
L 111.586102 76.3964 
L 122.781086 79.596801 
L 133.976071 81.544363 
L 145.171055 83.95261 
L 156.366039 86.435452 
L 167.561024 89.500625 
L 178.756008 89.070825 
L 189.950992 87.659675 
L 201.145977 81.432984 
L 212.340961 70.981716 
L 223.535945 65.288797 
L 234.73093 59.860467 
L 245.925914 56.176215 
L 257.120898 56.542767 
L 268.315883 54.315464 
L 279.510867 294.361902 
L 290.705851 292.635946 
L 301.900836 290.424245 
L 313.09582 289.194045 
L 324.290804 288.721405 
L 335.485789 288.214267 
L 346.680773 288.308125 
L 357.875757 288.635899 
L 369.070742 289.114733 
L 380.265726 289.759666 
L 391.46071 290.154386 
" clip-path="url(#p4251efab6f)" style="fill: none; stroke: #297b8e; stroke-width: 1.5; stroke-linecap: square"/>
   </g>
   <g id="line2d_29">
    <path d="M 66.806165 67.644791 
L 78.001149 69.278069 
L 89.196133 71.868521 
L 100.391118 74.5756 
L 111.586102 77.894048 
L 122.781086 80.568312 
L 133.976071 82.28443 
L 145.171055 85.249333 
L 156.366039 88.913247 
L 167.561024 90.235264 
L 178.756008 88.633899 
L 189.950992 79.981229 
L 201.145977 69.849506 
L 212.340961 60.129809 
L 223.535945 57.27147 
L 234.73093 53.903247 
L 245.925914 295.43082 
L 257.120898 293.556697 
L 268.315883 292.353528 
L 279.510867 291.529179 
L 290.705851 290.600844 
L 301.900836 289.962731 
L 313.09582 288.413146 
L 324.290804 287.979595 
L 335.485789 288.163973 
L 346.680773 288.444651 
L 357.875757 288.843062 
L 369.070742 289.447343 
L 380.265726 289.474011 
L 391.46071 290.428584 
" clip-path="url(#p4251efab6f)" style="fill: none; stroke: #25838e; stroke-width: 1.5; stroke-linecap: square"/>
   </g>
   <g id="line2d_30">
    <path d="M 66.806165 68.242307 
L 78.001149 70.380117 
L 89.196133 72.638802 
L 100.391118 76.10921 
L 111.586102 79.149533 
L 122.781086 81.550216 
L 133.976071 85.003647 
L 145.171055 88.53115 
L 156.366039 91.030621 
L 167.561024 91.640277 
L 178.756008 83.823381 
L 189.950992 76.110949 
L 201.145977 65.775799 
L 212.340961 58.589102 
L 223.535945 294.566673 
L 234.73093 291.826633 
L 245.925914 292.063923 
L 257.120898 291.354854 
L 268.315883 290.612277 
L 279.510867 290.480882 
L 290.705851 290.027657 
L 301.900836 289.154459 
L 313.09582 289.002537 
L 324.290804 288.806806 
L 335.485789 288.204772 
L 346.680773 288.475428 
L 357.875757 288.564077 
L 369.070742 289.512855 
L 380.265726 289.880051 
L 391.46071 290.671625 
" clip-path="url(#p4251efab6f)" style="fill: none; stroke: #228c8d; stroke-width: 1.5; stroke-linecap: square"/>
   </g>
   <g id="line2d_31">
    <path d="M 66.806165 69.837081 
L 78.001149 72.197513 
L 89.196133 75.39784 
L 100.391118 78.846978 
L 111.586102 81.921432 
L 122.781086 85.594541 
L 133.976071 89.707305 
L 145.171055 92.088605 
L 156.366039 95.221555 
L 167.561024 90.021964 
L 178.756008 81.636917 
L 189.950992 73.44549 
L 201.145977 61.592887 
L 212.340961 55.976773 
L 223.535945 295.006992 
L 234.73093 291.093048 
L 245.925914 290.279417 
L 257.120898 289.474765 
L 268.315883 289.328894 
L 279.510867 289.353261 
L 290.705851 288.989033 
L 301.900836 288.63644 
L 313.09582 288.935392 
L 324.290804 288.717001 
L 335.485789 288.865895 
L 346.680773 289.029959 
L 357.875757 289.25974 
L 369.070742 289.608783 
L 380.265726 290.271216 
L 391.46071 290.935683 
" clip-path="url(#p4251efab6f)" style="fill: none; stroke: #1f948c; stroke-width: 1.5; stroke-linecap: square"/>
   </g>
   <g id="line2d_32">
    <path d="M 66.806165 69.775035 
L 78.001149 73.836852 
L 89.196133 76.993278 
L 100.391118 80.076662 
L 111.586102 84.37635 
L 122.781086 88.887773 
L 133.976071 92.848993 
L 145.171055 97.418399 
L 156.366039 96.385123 
L 167.561024 90.625835 
L 178.756008 76.665746 
L 189.950992 67.477351 
L 201.145977 60.349768 
L 212.340961 294.820605 
L 223.535945 292.389276 
L 234.73093 289.84413 
L 245.925914 288.931764 
L 257.120898 288.014094 
L 268.315883 288.211125 
L 279.510867 288.298659 
L 290.705851 288.479267 
L 301.900836 288.537445 
L 313.09582 288.335026 
L 324.290804 288.622449 
L 335.485789 289.104449 
L 346.680773 289.006879 
L 357.875757 289.445657 
L 369.070742 289.840252 
L 380.265726 290.343169 
L 391.46071 290.89271 
" clip-path="url(#p4251efab6f)" style="fill: none; stroke: #1e9d89; stroke-width: 1.5; stroke-linecap: square"/>
   </g>
   <g id="line2d_33">
    <path d="M 66.806165 70.76067 
L 78.001149 73.861951 
L 89.196133 77.811033 
L 100.391118 84.23437 
L 111.586102 88.064253 
L 122.781086 93.28572 
L 133.976071 98.856177 
L 145.171055 98.999097 
L 156.366039 98.281116 
L 167.561024 92.329302 
L 178.756008 81.126456 
L 189.950992 67.62314 
L 201.145977 56.643344 
L 212.340961 293.337212 
L 223.535945 290.43067 
L 234.73093 288.569831 
L 245.925914 288.258706 
L 257.120898 287.478501 
L 268.315883 287.544605 
L 279.510867 287.910765 
L 290.705851 288.1407 
L 301.900836 288.280862 
L 313.09582 288.644004 
L 324.290804 288.985108 
L 335.485789 289.356094 
L 346.680773 289.369466 
L 357.875757 289.710334 
L 369.070742 289.930526 
L 380.265726 290.439867 
L 391.46071 291.073593 
" clip-path="url(#p4251efab6f)" style="fill: none; stroke: #21a585; stroke-width: 1.5; stroke-linecap: square"/>
   </g>
   <g id="line2d_34">
    <path d="M 66.806165 73.20169 
L 78.001149 76.836502 
L 89.196133 82.406111 
L 100.391118 86.922976 
L 111.586102 91.187695 
L 122.781086 97.66499 
L 133.976071 100.104534 
L 145.171055 101.157173 
L 156.366039 99.281526 
L 167.561024 94.300491 
L 178.756008 81.441362 
L 189.950992 67.617653 
L 201.145977 54.836811 
L 212.340961 293.355818 
L 223.535945 289.439086 
L 234.73093 287.959311 
L 245.925914 287.482762 
L 257.120898 287.289533 
L 268.315883 287.249577 
L 279.510867 287.719223 
L 290.705851 287.990603 
L 301.900836 288.259995 
L 313.09582 288.339933 
L 324.290804 289.069935 
L 335.485789 289.232525 
L 346.680773 289.384448 
L 357.875757 289.759856 
L 369.070742 290.19289 
L 380.265726 290.836679 
L 391.46071 291.19989 
" clip-path="url(#p4251efab6f)" style="fill: none; stroke: #26ad81; stroke-width: 1.5; stroke-linecap: square"/>
   </g>
   <g id="line2d_35">
    <path d="M 66.806165 74.357953 
L 78.001149 79.468165 
L 89.196133 84.866738 
L 100.391118 89.110398 
L 111.586102 95.9966 
L 122.781086 100.132587 
L 133.976071 102.357366 
L 145.171055 102.477248 
L 156.366039 97.835077 
L 167.561024 92.95633 
L 178.756008 81.894389 
L 189.950992 65.091361 
L 201.145977 55.635461 
L 212.340961 292.009219 
L 223.535945 288.913838 
L 234.73093 287.375126 
L 245.925914 287.307858 
L 257.120898 287.008437 
L 268.315883 287.064308 
L 279.510867 287.341425 
L 290.705851 287.845588 
L 301.900836 288.150863 
L 313.09582 288.575917 
L 324.290804 288.797309 
L 335.485789 289.688932 
L 346.680773 289.641561 
L 357.875757 290.30195 
L 369.070742 290.651692 
L 380.265726 291.031415 
L 391.46071 291.336665 
" clip-path="url(#p4251efab6f)" style="fill: none; stroke: #31b57b; stroke-width: 1.5; stroke-linecap: square"/>
   </g>
   <g id="line2d_36">
    <path d="M 66.806165 76.161491 
L 78.001149 81.46756 
L 89.196133 86.020338 
L 100.391118 91.630044 
L 111.586102 97.421443 
L 122.781086 101.401563 
L 133.976071 102.841684 
L 145.171055 102.889447 
L 156.366039 99.901342 
L 167.561024 93.230825 
L 178.756008 81.942294 
L 189.950992 65.197269 
L 201.145977 54.201881 
L 212.340961 292.669045 
L 223.535945 288.399215 
L 234.73093 287.217076 
L 245.925914 286.796689 
L 257.120898 286.679743 
L 268.315883 287.105315 
L 279.510867 287.568136 
L 290.705851 287.61558 
L 301.900836 288.098833 
L 313.09582 288.654876 
L 324.290804 289.197603 
L 335.485789 289.523154 
L 346.680773 290.066667 
L 357.875757 290.183159 
L 369.070742 290.894959 
L 380.265726 291.345357 
L 391.46071 291.620542 
" clip-path="url(#p4251efab6f)" style="fill: none; stroke: #3fbc73; stroke-width: 1.5; stroke-linecap: square"/>
   </g>
   <g id="line2d_37">
    <path d="M 66.806165 77.447564 
L 78.001149 81.829323 
L 89.196133 87.80948 
L 100.391118 94.309409 
L 111.586102 97.960443 
L 122.781086 101.84422 
L 133.976071 103.394504 
L 145.171055 103.962731 
L 156.366039 100.299104 
L 167.561024 92.600595 
L 178.756008 79.671807 
L 189.950992 65.979944 
L 201.145977 54.11116 
L 212.340961 291.198265 
L 223.535945 288.100318 
L 234.73093 286.838937 
L 245.925914 286.611521 
L 257.120898 286.625494 
L 268.315883 286.753449 
L 279.510867 287.145003 
L 290.705851 287.708959 
L 301.900836 287.983605 
L 313.09582 288.679639 
L 324.290804 289.048828 
L 335.485789 289.837325 
L 346.680773 289.84142 
L 357.875757 290.573772 
L 369.070742 290.9511 
L 380.265726 291.401612 
L 391.46071 291.93237 
" clip-path="url(#p4251efab6f)" style="fill: none; stroke: #50c46a; stroke-width: 1.5; stroke-linecap: square"/>
   </g>
   <g id="line2d_38">
    <path d="M 66.806165 79.297395 
L 78.001149 84.899667 
L 89.196133 90.32051 
L 100.391118 94.527703 
L 111.586102 97.973261 
L 122.781086 101.884878 
L 133.976071 104.267512 
L 145.171055 105.331759 
L 156.366039 102.179542 
L 167.561024 93.004331 
L 178.756008 80.45347 
L 189.950992 63.453315 
L 201.145977 54.861758 
L 212.340961 291.390449 
L 223.535945 287.948606 
L 234.73093 286.496594 
L 245.925914 286.236931 
L 257.120898 286.442587 
L 268.315883 286.790468 
L 279.510867 287.236289 
L 290.705851 287.715333 
L 301.900836 288.159485 
L 313.09582 288.713068 
L 324.290804 289.030893 
L 335.485789 289.645126 
L 346.680773 290.218778 
L 357.875757 290.722504 
L 369.070742 291.146515 
L 380.265726 291.598748 
L 391.46071 292.130064 
" clip-path="url(#p4251efab6f)" style="fill: none; stroke: #63cb5f; stroke-width: 1.5; stroke-linecap: square"/>
   </g>
   <g id="line2d_39">
    <path d="M 66.806165 81.075121 
L 78.001149 86.362134 
L 89.196133 90.445058 
L 100.391118 94.093014 
L 111.586102 98.251759 
L 122.781086 102.587841 
L 133.976071 104.781836 
L 145.171055 105.864964 
L 156.366039 103.268297 
L 167.561024 94.297331 
L 178.756008 78.54335 
L 189.950992 62.257034 
L 201.145977 295.776 
L 212.340961 291.104953 
L 223.535945 288.196347 
L 234.73093 286.812531 
L 245.925914 286.756806 
L 257.120898 286.317554 
L 268.315883 286.717735 
L 279.510867 287.220291 
L 290.705851 287.581705 
L 301.900836 288.200819 
L 313.09582 288.657007 
L 324.290804 289.11015 
L 335.485789 289.824815 
L 346.680773 290.293955 
L 357.875757 290.716796 
L 369.070742 291.214246 
L 380.265726 291.946708 
L 391.46071 292.203438 
" clip-path="url(#p4251efab6f)" style="fill: none; stroke: #77d153; stroke-width: 1.5; stroke-linecap: square"/>
   </g>
   <g id="line2d_40">
    <path d="M 66.806165 82.761027 
L 78.001149 86.394193 
L 89.196133 90.375622 
L 100.391118 94.535974 
L 111.586102 98.452835 
L 122.781086 102.437198 
L 133.976071 105.337601 
L 145.171055 106.567287 
L 156.366039 103.767435 
L 167.561024 93.575559 
L 178.756008 75.994588 
L 189.950992 61.654268 
L 201.145977 295.160265 
L 212.340961 290.313483 
L 223.535945 287.971672 
L 234.73093 286.607583 
L 245.925914 286.111857 
L 257.120898 286.216853 
L 268.315883 286.591654 
L 279.510867 287.230675 
L 290.705851 287.792555 
L 301.900836 288.062053 
L 313.09582 288.879987 
L 324.290804 289.324133 
L 335.485789 289.769794 
L 346.680773 290.375232 
L 357.875757 290.915498 
L 369.070742 291.378972 
L 380.265726 292.075296 
L 391.46071 292.3386 
" clip-path="url(#p4251efab6f)" style="fill: none; stroke: #8bd646; stroke-width: 1.5; stroke-linecap: square"/>
   </g>
   <g id="line2d_41">
    <path d="M 66.806165 82.689958 
L 78.001149 86.407718 
L 89.196133 90.526776 
L 100.391118 94.541811 
L 111.586102 98.837973 
L 122.781086 102.999349 
L 133.976071 105.894072 
L 145.171055 106.977127 
L 156.366039 105.124299 
L 167.561024 94.439444 
L 178.756008 76.177742 
L 189.950992 59.431329 
L 201.145977 294.643212 
L 212.340961 290.167842 
L 223.535945 287.601945 
L 234.73093 286.296808 
L 245.925914 285.958127 
L 257.120898 286.200407 
L 268.315883 286.530704 
L 279.510867 287.133888 
L 290.705851 287.525875 
L 301.900836 288.044489 
L 313.09582 288.723218 
L 324.290804 289.187306 
L 335.485789 289.969612 
L 346.680773 290.562516 
L 357.875757 291.151885 
L 369.070742 291.561044 
L 380.265726 292.11864 
L 391.46071 292.551464 
" clip-path="url(#p4251efab6f)" style="fill: none; stroke: #a2da37; stroke-width: 1.5; stroke-linecap: square"/>
   </g>
   <g id="line2d_42">
    <path d="M 66.806165 82.64364 
L 78.001149 86.638617 
L 89.196133 90.625221 
L 100.391118 94.754285 
L 111.586102 98.850505 
L 122.781086 102.816937 
L 133.976071 106.068672 
L 145.171055 107.520037 
L 156.366039 105.346463 
L 167.561024 97.064578 
L 178.756008 76.879969 
L 189.950992 60.066796 
L 201.145977 293.004013 
L 212.340961 289.417614 
L 223.535945 286.934186 
L 234.73093 286.339794 
L 245.925914 286.184362 
L 257.120898 286.122824 
L 268.315883 286.625383 
L 279.510867 287.048643 
L 290.705851 287.697519 
L 301.900836 288.235506 
L 313.09582 288.704047 
L 324.290804 289.261643 
L 335.485789 289.969249 
L 346.680773 290.563341 
L 357.875757 291.123813 
L 369.070742 291.692152 
L 380.265726 292.343481 
L 391.46071 292.743602 
" clip-path="url(#p4251efab6f)" style="fill: none; stroke: #bade28; stroke-width: 1.5; stroke-linecap: square"/>
   </g>
   <g id="line2d_43">
    <path d="M 66.806165 82.898929 
L 78.001149 86.661101 
L 89.196133 90.795792 
L 100.391118 94.986589 
L 111.586102 99.01855 
L 122.781086 103.01707 
L 133.976071 106.122137 
L 145.171055 107.698784 
L 156.366039 106.18199 
L 167.561024 97.262627 
L 178.756008 78.067732 
L 189.950992 60.036439 
L 201.145977 292.597458 
L 212.340961 289.089455 
L 223.535945 286.648249 
L 234.73093 286.136731 
L 245.925914 285.87404 
L 257.120898 286.157344 
L 268.315883 286.530422 
L 279.510867 287.089889 
L 290.705851 287.68617 
L 301.900836 288.417398 
L 313.09582 288.911773 
L 324.290804 289.422841 
L 335.485789 290.132154 
L 346.680773 290.635224 
L 357.875757 291.223933 
L 369.070742 291.729601 
L 380.265726 292.31682 
L 391.46071 292.964774 
" clip-path="url(#p4251efab6f)" style="fill: none; stroke: #d2e21b; stroke-width: 1.5; stroke-linecap: square"/>
   </g>
   <g id="line2d_44">
    <path d="M 66.806165 82.961269 
L 78.001149 86.995081 
L 89.196133 90.946938 
L 100.391118 94.980086 
L 111.586102 98.768368 
L 122.781086 103.200496 
L 133.976071 106.457557 
L 145.171055 108.145996 
L 156.366039 106.446216 
L 167.561024 98.966799 
L 178.756008 78.416847 
L 189.950992 59.315266 
L 201.145977 292.115894 
L 212.340961 288.589326 
L 223.535945 286.769032 
L 234.73093 285.940434 
L 245.925914 285.766932 
L 257.120898 286.001093 
L 268.315883 286.409091 
L 279.510867 287.02377 
L 290.705851 287.555565 
L 301.900836 288.362493 
L 313.09582 289.060351 
L 324.290804 289.648853 
L 335.485789 290.065305 
L 346.680773 290.813387 
L 357.875757 291.449307 
L 369.070742 292.039846 
L 380.265726 292.489597 
L 391.46071 293.110236 
" clip-path="url(#p4251efab6f)" style="fill: none; stroke: #eae51a; stroke-width: 1.5; stroke-linecap: square"/>
   </g>
   <g id="line2d_45">
    <path d="M 66.806165 83.024557 
L 78.001149 86.966062 
L 89.196133 90.756253 
L 100.391118 95.003881 
L 111.586102 99.385481 
L 122.781086 103.484535 
L 133.976071 106.765147 
L 145.171055 108.545431 
L 156.366039 107.318283 
L 167.561024 99.846556 
L 178.756008 79.835584 
L 189.950992 58.418067 
L 201.145977 291.4611 
L 212.340961 288.083927 
L 223.535945 286.477425 
L 234.73093 285.634812 
L 245.925914 285.666851 
L 257.120898 286.008636 
L 268.315883 286.424298 
L 279.510867 287.022227 
L 290.705851 287.716751 
L 301.900836 288.252873 
L 313.09582 288.734317 
L 324.290804 289.610455 
L 335.485789 290.221654 
L 346.680773 290.72095 
L 357.875757 291.480124 
L 369.070742 291.918852 
L 380.265726 292.43608 
L 391.46071 293.029739 
" clip-path="url(#p4251efab6f)" style="fill: none; stroke: #fde725; stroke-width: 1.5; stroke-linecap: square"/>
   </g>
   <g id="patch_3">
    <path d="M 50.573438 307.872 
L 50.573438 41.76 
" style="fill: none; stroke: #000000; stroke-width: 0.8; stroke-linejoin: miter; stroke-linecap: square"/>
   </g>
   <g id="patch_4">
    <path d="M 407.693438 307.872 
L 407.693438 41.76 
" style="fill: none; stroke: #000000; stroke-width: 0.8; stroke-linejoin: miter; stroke-linecap: square"/>
   </g>
   <g id="patch_5">
    <path d="M 50.573438 307.872 
L 407.693438 307.872 
" style="fill: none; stroke: #000000; stroke-width: 0.8; stroke-linejoin: miter; stroke-linecap: square"/>
   </g>
   <g id="patch_6">
    <path d="M 50.573438 41.76 
L 407.693438 41.76 
" style="fill: none; stroke: #000000; stroke-width: 0.8; stroke-linejoin: miter; stroke-linecap: square"/>
   </g>
   <g id="legend_1">
    <g id="patch_7">
     <path d="M 427.549438 307.872 
L 647.796312 307.872 
Q 649.796312 307.872 649.796312 305.872 
L 649.796312 145.412625 
Q 649.796312 143.412625 647.796312 143.412625 
L 427.549438 143.412625 
Q 425.549438 143.412625 425.549438 145.412625 
L 425.549438 305.872 
Q 425.549438 307.872 427.549438 307.872 
z
" style="fill: #ffffff; opacity: 0.8; stroke: #cccccc; stroke-linejoin: miter"/>
    </g>
    <g id="text_19">
     <!-- Readout pulse amplitude () -->
     <g transform="translate(469.572094 155.011063) scale(0.1 -0.1)">
      <defs>
       <path id="DejaVuSans-52" d="M 2841 2188 
Q 3044 2119 3236 1894 
Q 3428 1669 3622 1275 
L 4263 0 
L 3584 0 
L 2988 1197 
Q 2756 1666 2539 1819 
Q 2322 1972 1947 1972 
L 1259 1972 
L 1259 0 
L 628 0 
L 628 4666 
L 2053 4666 
Q 2853 4666 3247 4331 
Q 3641 3997 3641 3322 
Q 3641 2881 3436 2590 
Q 3231 2300 2841 2188 
z
M 1259 4147 
L 1259 2491 
L 2053 2491 
Q 2509 2491 2742 2702 
Q 2975 2913 2975 3322 
Q 2975 3731 2742 3939 
Q 2509 4147 2053 4147 
L 1259 4147 
z
" transform="scale(0.015625)"/>
       <path id="DejaVuSans-6f" d="M 1959 3097 
Q 1497 3097 1228 2736 
Q 959 2375 959 1747 
Q 959 1119 1226 758 
Q 1494 397 1959 397 
Q 2419 397 2687 759 
Q 2956 1122 2956 1747 
Q 2956 2369 2687 2733 
Q 2419 3097 1959 3097 
z
M 1959 3584 
Q 2709 3584 3137 3096 
Q 3566 2609 3566 1747 
Q 3566 888 3137 398 
Q 2709 -91 1959 -91 
Q 1206 -91 779 398 
Q 353 888 353 1747 
Q 353 2609 779 3096 
Q 1206 3584 1959 3584 
z
" transform="scale(0.015625)"/>
       <path id="DejaVuSans-74" d="M 1172 4494 
L 1172 3500 
L 2356 3500 
L 2356 3053 
L 1172 3053 
L 1172 1153 
Q 1172 725 1289 603 
Q 1406 481 1766 481 
L 2356 481 
L 2356 0 
L 1766 0 
Q 1100 0 847 248 
Q 594 497 594 1153 
L 594 3053 
L 172 3053 
L 172 3500 
L 594 3500 
L 594 4494 
L 1172 4494 
z
" transform="scale(0.015625)"/>
       <path id="DejaVuSans-70" d="M 1159 525 
L 1159 -1331 
L 581 -1331 
L 581 3500 
L 1159 3500 
L 1159 2969 
Q 1341 3281 1617 3432 
Q 1894 3584 2278 3584 
Q 2916 3584 3314 3078 
Q 3713 2572 3713 1747 
Q 3713 922 3314 415 
Q 2916 -91 2278 -91 
Q 1894 -91 1617 61 
Q 1341 213 1159 525 
z
M 3116 1747 
Q 3116 2381 2855 2742 
Q 2594 3103 2138 3103 
Q 1681 3103 1420 2742 
Q 1159 2381 1159 1747 
Q 1159 1113 1420 752 
Q 1681 391 2138 391 
Q 2594 391 2855 752 
Q 3116 1113 3116 1747 
z
" transform="scale(0.015625)"/>
       <path id="DejaVuSans-6c" d="M 603 4863 
L 1178 4863 
L 1178 0 
L 603 0 
L 603 4863 
z
" transform="scale(0.015625)"/>
       <path id="DejaVuSans-6d" d="M 3328 2828 
Q 3544 3216 3844 3400 
Q 4144 3584 4550 3584 
Q 5097 3584 5394 3201 
Q 5691 2819 5691 2113 
L 5691 0 
L 5113 0 
L 5113 2094 
Q 5113 2597 4934 2840 
Q 4756 3084 4391 3084 
Q 3944 3084 3684 2787 
Q 3425 2491 3425 1978 
L 3425 0 
L 2847 0 
L 2847 2094 
Q 2847 2600 2669 2842 
Q 2491 3084 2119 3084 
Q 1678 3084 1418 2786 
Q 1159 2488 1159 1978 
L 1159 0 
L 581 0 
L 581 3500 
L 1159 3500 
L 1159 2956 
Q 1356 3278 1631 3431 
Q 1906 3584 2284 3584 
Q 2666 3584 2933 3390 
Q 3200 3197 3328 2828 
z
" transform="scale(0.015625)"/>
       <path id="DejaVuSans-69" d="M 603 3500 
L 1178 3500 
L 1178 0 
L 603 0 
L 603 3500 
z
M 603 4863 
L 1178 4863 
L 1178 4134 
L 603 4134 
L 603 4863 
z
" transform="scale(0.015625)"/>
       <path id="DejaVuSans-28" d="M 1984 4856 
Q 1566 4138 1362 3434 
Q 1159 2731 1159 2009 
Q 1159 1288 1364 580 
Q 1569 -128 1984 -844 
L 1484 -844 
Q 1016 -109 783 600 
Q 550 1309 550 2009 
Q 550 2706 781 3412 
Q 1013 4119 1484 4856 
L 1984 4856 
z
" transform="scale(0.015625)"/>
       <path id="DejaVuSans-29" d="M 513 4856 
L 1013 4856 
Q 1481 4119 1714 3412 
Q 1947 2706 1947 2009 
Q 1947 1309 1714 600 
Q 1481 -109 1013 -844 
L 513 -844 
Q 928 -128 1133 580 
Q 1338 1288 1338 2009 
Q 1338 2731 1133 3434 
Q 928 4138 513 4856 
z
" transform="scale(0.015625)"/>
      </defs>
      <use xlink:href="#DejaVuSans-52"/>
      <use xlink:href="#DejaVuSans-65" x="64.982422"/>
      <use xlink:href="#DejaVuSans-61" x="126.505859"/>
      <use xlink:href="#DejaVuSans-64" x="187.785156"/>
      <use xlink:href="#DejaVuSans-6f" x="251.261719"/>
      <use xlink:href="#DejaVuSans-75" x="312.443359"/>
      <use xlink:href="#DejaVuSans-74" x="375.822266"/>
      <use xlink:href="#DejaVuSans-20" x="415.03125"/>
      <use xlink:href="#DejaVuSans-70" x="446.818359"/>
      <use xlink:href="#DejaVuSans-75" x="510.294922"/>
      <use xlink:href="#DejaVuSans-6c" x="573.673828"/>
      <use xlink:href="#DejaVuSans-73" x="601.457031"/>
      <use xlink:href="#DejaVuSans-65" x="653.556641"/>
      <use xlink:href="#DejaVuSans-20" x="715.080078"/>
      <use xlink:href="#DejaVuSans-61" x="746.867188"/>
      <use xlink:href="#DejaVuSans-6d" x="808.146484"/>
      <use xlink:href="#DejaVuSans-70" x="905.558594"/>
      <use xlink:href="#DejaVuSans-6c" x="969.035156"/>
      <use xlink:href="#DejaVuSans-69" x="996.818359"/>
      <use xlink:href="#DejaVuSans-74" x="1024.601562"/>
      <use xlink:href="#DejaVuSans-75" x="1063.810547"/>
      <use xlink:href="#DejaVuSans-64" x="1127.189453"/>
      <use xlink:href="#DejaVuSans-65" x="1190.666016"/>
      <use xlink:href="#DejaVuSans-20" x="1252.189453"/>
      <use xlink:href="#DejaVuSans-28" x="1283.976562"/>
      <use xlink:href="#DejaVuSans-29" x="1322.990234"/>
     </g>
    </g>
    <g id="line2d_46">
     <path d="M 429.549438 166.189188 
L 439.549438 166.189188 
L 449.549438 166.189188 
" style="fill: none; stroke: #440154; stroke-width: 1.5; stroke-linecap: square"/>
    </g>
    <g id="text_20">
     <!-- 0.01 -->
     <g transform="translate(457.549438 169.689188) scale(0.1 -0.1)">
      <use xlink:href="#DejaVuSans-30"/>
      <use xlink:href="#DejaVuSans-2e" x="63.623047"/>
      <use xlink:href="#DejaVuSans-30" x="95.410156"/>
      <use xlink:href="#DejaVuSans-31" x="159.033203"/>
     </g>
    </g>
    <g id="line2d_47">
     <path d="M 429.549438 180.867313 
L 439.549438 180.867313 
L 449.549438 180.867313 
" style="fill: none; stroke: #470d60; stroke-width: 1.5; stroke-linecap: square"/>
    </g>
    <g id="text_21">
     <!-- 0.0338 -->
     <g transform="translate(457.549438 184.367313) scale(0.1 -0.1)">
      <use xlink:href="#DejaVuSans-30"/>
      <use xlink:href="#DejaVuSans-2e" x="63.623047"/>
      <use xlink:href="#DejaVuSans-30" x="95.410156"/>
      <use xlink:href="#DejaVuSans-33" x="159.033203"/>
      <use xlink:href="#DejaVuSans-33" x="222.65625"/>
      <use xlink:href="#DejaVuSans-38" x="286.279297"/>
     </g>
    </g>
    <g id="line2d_48">
     <path d="M 429.549438 195.545438 
L 439.549438 195.545438 
L 449.549438 195.545438 
" style="fill: none; stroke: #481a6c; stroke-width: 1.5; stroke-linecap: square"/>
    </g>
    <g id="text_22">
     <!-- 0.0576 -->
     <g transform="translate(457.549438 199.045438) scale(0.1 -0.1)">
      <use xlink:href="#DejaVuSans-30"/>
      <use xlink:href="#DejaVuSans-2e" x="63.623047"/>
      <use xlink:href="#DejaVuSans-30" x="95.410156"/>
      <use xlink:href="#DejaVuSans-35" x="159.033203"/>
      <use xlink:href="#DejaVuSans-37" x="222.65625"/>
      <use xlink:href="#DejaVuSans-36" x="286.279297"/>
     </g>
    </g>
    <g id="line2d_49">
     <path d="M 429.549438 210.223563 
L 439.549438 210.223563 
L 449.549438 210.223563 
" style="fill: none; stroke: #482576; stroke-width: 1.5; stroke-linecap: square"/>
    </g>
    <g id="text_23">
     <!-- 0.0814 -->
     <g transform="translate(457.549438 213.723563) scale(0.1 -0.1)">
      <defs>
       <path id="DejaVuSans-34" d="M 2419 4116 
L 825 1625 
L 2419 1625 
L 2419 4116 
z
M 2253 4666 
L 3047 4666 
L 3047 1625 
L 3713 1625 
L 3713 1100 
L 3047 1100 
L 3047 0 
L 2419 0 
L 2419 1100 
L 313 1100 
L 313 1709 
L 2253 4666 
z
" transform="scale(0.015625)"/>
      </defs>
      <use xlink:href="#DejaVuSans-30"/>
      <use xlink:href="#DejaVuSans-2e" x="63.623047"/>
      <use xlink:href="#DejaVuSans-30" x="95.410156"/>
      <use xlink:href="#DejaVuSans-38" x="159.033203"/>
      <use xlink:href="#DejaVuSans-31" x="222.65625"/>
      <use xlink:href="#DejaVuSans-34" x="286.279297"/>
     </g>
    </g>
    <g id="line2d_50">
     <path d="M 429.549438 224.901688 
L 439.549438 224.901688 
L 449.549438 224.901688 
" style="fill: none; stroke: #46307e; stroke-width: 1.5; stroke-linecap: square"/>
    </g>
    <g id="text_24">
     <!-- 0.105 -->
     <g transform="translate(457.549438 228.401688) scale(0.1 -0.1)">
      <use xlink:href="#DejaVuSans-30"/>
      <use xlink:href="#DejaVuSans-2e" x="63.623047"/>
      <use xlink:href="#DejaVuSans-31" x="95.410156"/>
      <use xlink:href="#DejaVuSans-30" x="159.033203"/>
      <use xlink:href="#DejaVuSans-35" x="222.65625"/>
     </g>
    </g>
    <g id="line2d_51">
     <path d="M 429.549438 239.579813 
L 439.549438 239.579813 
L 449.549438 239.579813 
" style="fill: none; stroke: #443b84; stroke-width: 1.5; stroke-linecap: square"/>
    </g>
    <g id="text_25">
     <!-- 0.129 -->
     <g transform="translate(457.549438 243.079813) scale(0.1 -0.1)">
      <defs>
       <path id="DejaVuSans-32" d="M 1228 531 
L 3431 531 
L 3431 0 
L 469 0 
L 469 531 
Q 828 903 1448 1529 
Q 2069 2156 2228 2338 
Q 2531 2678 2651 2914 
Q 2772 3150 2772 3378 
Q 2772 3750 2511 3984 
Q 2250 4219 1831 4219 
Q 1534 4219 1204 4116 
Q 875 4013 500 3803 
L 500 4441 
Q 881 4594 1212 4672 
Q 1544 4750 1819 4750 
Q 2544 4750 2975 4387 
Q 3406 4025 3406 3419 
Q 3406 3131 3298 2873 
Q 3191 2616 2906 2266 
Q 2828 2175 2409 1742 
Q 1991 1309 1228 531 
z
" transform="scale(0.015625)"/>
      </defs>
      <use xlink:href="#DejaVuSans-30"/>
      <use xlink:href="#DejaVuSans-2e" x="63.623047"/>
      <use xlink:href="#DejaVuSans-31" x="95.410156"/>
      <use xlink:href="#DejaVuSans-32" x="159.033203"/>
      <use xlink:href="#DejaVuSans-39" x="222.65625"/>
     </g>
    </g>
    <g id="line2d_52">
     <path d="M 429.549438 254.257938 
L 439.549438 254.257938 
L 449.549438 254.257938 
" style="fill: none; stroke: #404588; stroke-width: 1.5; stroke-linecap: square"/>
    </g>
    <g id="text_26">
     <!-- 0.153 -->
     <g transform="translate(457.549438 257.757938) scale(0.1 -0.1)">
      <use xlink:href="#DejaVuSans-30"/>
      <use xlink:href="#DejaVuSans-2e" x="63.623047"/>
      <use xlink:href="#DejaVuSans-31" x="95.410156"/>
      <use xlink:href="#DejaVuSans-35" x="159.033203"/>
      <use xlink:href="#DejaVuSans-33" x="222.65625"/>
     </g>
    </g>
    <g id="line2d_53">
     <path d="M 429.549438 268.936062 
L 439.549438 268.936062 
L 449.549438 268.936062 
" style="fill: none; stroke: #3c4f8a; stroke-width: 1.5; stroke-linecap: square"/>
    </g>
    <g id="text_27">
     <!-- 0.177 -->
     <g transform="translate(457.549438 272.436062) scale(0.1 -0.1)">
      <use xlink:href="#DejaVuSans-30"/>
      <use xlink:href="#DejaVuSans-2e" x="63.623047"/>
      <use xlink:href="#DejaVuSans-31" x="95.410156"/>
      <use xlink:href="#DejaVuSans-37" x="159.033203"/>
      <use xlink:href="#DejaVuSans-37" x="222.65625"/>
     </g>
    </g>
    <g id="line2d_54">
     <path d="M 429.549438 283.614188 
L 439.549438 283.614188 
L 449.549438 283.614188 
" style="fill: none; stroke: #38598c; stroke-width: 1.5; stroke-linecap: square"/>
    </g>
    <g id="text_28">
     <!-- 0.2 -->
     <g transform="translate(457.549438 287.114188) scale(0.1 -0.1)">
      <use xlink:href="#DejaVuSans-30"/>
      <use xlink:href="#DejaVuSans-2e" x="63.623047"/>
      <use xlink:href="#DejaVuSans-32" x="95.410156"/>
     </g>
    </g>
    <g id="line2d_55">
     <path d="M 429.549438 298.292312 
L 439.549438 298.292312 
L 449.549438 298.292312 
" style="fill: none; stroke: #33628d; stroke-width: 1.5; stroke-linecap: square"/>
    </g>
    <g id="text_29">
     <!-- 0.224 -->
     <g transform="translate(457.549438 301.792312) scale(0.1 -0.1)">
      <use xlink:href="#DejaVuSans-30"/>
      <use xlink:href="#DejaVuSans-2e" x="63.623047"/>
      <use xlink:href="#DejaVuSans-32" x="95.410156"/>
      <use xlink:href="#DejaVuSans-32" x="159.033203"/>
      <use xlink:href="#DejaVuSans-34" x="222.65625"/>
     </g>
    </g>
    <g id="line2d_56">
     <path d="M 512.540062 166.189188 
L 522.540062 166.189188 
L 532.540062 166.189188 
" style="fill: none; stroke: #2f6b8e; stroke-width: 1.5; stroke-linecap: square"/>
    </g>
    <g id="text_30">
     <!-- 0.248 -->
     <g transform="translate(540.540062 169.689188) scale(0.1 -0.1)">
      <use xlink:href="#DejaVuSans-30"/>
      <use xlink:href="#DejaVuSans-2e" x="63.623047"/>
      <use xlink:href="#DejaVuSans-32" x="95.410156"/>
      <use xlink:href="#DejaVuSans-34" x="159.033203"/>
      <use xlink:href="#DejaVuSans-38" x="222.65625"/>
     </g>
    </g>
    <g id="line2d_57">
     <path d="M 512.540062 180.867313 
L 522.540062 180.867313 
L 532.540062 180.867313 
" style="fill: none; stroke: #2c738e; stroke-width: 1.5; stroke-linecap: square"/>
    </g>
    <g id="text_31">
     <!-- 0.272 -->
     <g transform="translate(540.540062 184.367313) scale(0.1 -0.1)">
      <use xlink:href="#DejaVuSans-30"/>
      <use xlink:href="#DejaVuSans-2e" x="63.623047"/>
      <use xlink:href="#DejaVuSans-32" x="95.410156"/>
      <use xlink:href="#DejaVuSans-37" x="159.033203"/>
      <use xlink:href="#DejaVuSans-32" x="222.65625"/>
     </g>
    </g>
    <g id="line2d_58">
     <path d="M 512.540062 195.545438 
L 522.540062 195.545438 
L 532.540062 195.545438 
" style="fill: none; stroke: #297b8e; stroke-width: 1.5; stroke-linecap: square"/>
    </g>
    <g id="text_32">
     <!-- 0.296 -->
     <g transform="translate(540.540062 199.045438) scale(0.1 -0.1)">
      <use xlink:href="#DejaVuSans-30"/>
      <use xlink:href="#DejaVuSans-2e" x="63.623047"/>
      <use xlink:href="#DejaVuSans-32" x="95.410156"/>
      <use xlink:href="#DejaVuSans-39" x="159.033203"/>
      <use xlink:href="#DejaVuSans-36" x="222.65625"/>
     </g>
    </g>
    <g id="line2d_59">
     <path d="M 512.540062 210.223563 
L 522.540062 210.223563 
L 532.540062 210.223563 
" style="fill: none; stroke: #25838e; stroke-width: 1.5; stroke-linecap: square"/>
    </g>
    <g id="text_33">
     <!-- 0.319 -->
     <g transform="translate(540.540062 213.723563) scale(0.1 -0.1)">
      <use xlink:href="#DejaVuSans-30"/>
      <use xlink:href="#DejaVuSans-2e" x="63.623047"/>
      <use xlink:href="#DejaVuSans-33" x="95.410156"/>
      <use xlink:href="#DejaVuSans-31" x="159.033203"/>
      <use xlink:href="#DejaVuSans-39" x="222.65625"/>
     </g>
    </g>
    <g id="line2d_60">
     <path d="M 512.540062 224.901688 
L 522.540062 224.901688 
L 532.540062 224.901688 
" style="fill: none; stroke: #228c8d; stroke-width: 1.5; stroke-linecap: square"/>
    </g>
    <g id="text_34">
     <!-- 0.343 -->
     <g transform="translate(540.540062 228.401688) scale(0.1 -0.1)">
      <use xlink:href="#DejaVuSans-30"/>
      <use xlink:href="#DejaVuSans-2e" x="63.623047"/>
      <use xlink:href="#DejaVuSans-33" x="95.410156"/>
      <use xlink:href="#DejaVuSans-34" x="159.033203"/>
      <use xlink:href="#DejaVuSans-33" x="222.65625"/>
     </g>
    </g>
    <g id="line2d_61">
     <path d="M 512.540062 239.579813 
L 522.540062 239.579813 
L 532.540062 239.579813 
" style="fill: none; stroke: #1f948c; stroke-width: 1.5; stroke-linecap: square"/>
    </g>
    <g id="text_35">
     <!-- 0.367 -->
     <g transform="translate(540.540062 243.079813) scale(0.1 -0.1)">
      <use xlink:href="#DejaVuSans-30"/>
      <use xlink:href="#DejaVuSans-2e" x="63.623047"/>
      <use xlink:href="#DejaVuSans-33" x="95.410156"/>
      <use xlink:href="#DejaVuSans-36" x="159.033203"/>
      <use xlink:href="#DejaVuSans-37" x="222.65625"/>
     </g>
    </g>
    <g id="line2d_62">
     <path d="M 512.540062 254.257938 
L 522.540062 254.257938 
L 532.540062 254.257938 
" style="fill: none; stroke: #1e9d89; stroke-width: 1.5; stroke-linecap: square"/>
    </g>
    <g id="text_36">
     <!-- 0.391 -->
     <g transform="translate(540.540062 257.757938) scale(0.1 -0.1)">
      <use xlink:href="#DejaVuSans-30"/>
      <use xlink:href="#DejaVuSans-2e" x="63.623047"/>
      <use xlink:href="#DejaVuSans-33" x="95.410156"/>
      <use xlink:href="#DejaVuSans-39" x="159.033203"/>
      <use xlink:href="#DejaVuSans-31" x="222.65625"/>
     </g>
    </g>
    <g id="line2d_63">
     <path d="M 512.540062 268.936062 
L 522.540062 268.936062 
L 532.540062 268.936062 
" style="fill: none; stroke: #21a585; stroke-width: 1.5; stroke-linecap: square"/>
    </g>
    <g id="text_37">
     <!-- 0.414 -->
     <g transform="translate(540.540062 272.436062) scale(0.1 -0.1)">
      <use xlink:href="#DejaVuSans-30"/>
      <use xlink:href="#DejaVuSans-2e" x="63.623047"/>
      <use xlink:href="#DejaVuSans-34" x="95.410156"/>
      <use xlink:href="#DejaVuSans-31" x="159.033203"/>
      <use xlink:href="#DejaVuSans-34" x="222.65625"/>
     </g>
    </g>
    <g id="line2d_64">
     <path d="M 512.540062 283.614188 
L 522.540062 283.614188 
L 532.540062 283.614188 
" style="fill: none; stroke: #26ad81; stroke-width: 1.5; stroke-linecap: square"/>
    </g>
    <g id="text_38">
     <!-- 0.438 -->
     <g transform="translate(540.540062 287.114188) scale(0.1 -0.1)">
      <use xlink:href="#DejaVuSans-30"/>
      <use xlink:href="#DejaVuSans-2e" x="63.623047"/>
      <use xlink:href="#DejaVuSans-34" x="95.410156"/>
      <use xlink:href="#DejaVuSans-33" x="159.033203"/>
      <use xlink:href="#DejaVuSans-38" x="222.65625"/>
     </g>
    </g>
    <g id="line2d_65">
     <path d="M 512.540062 298.292312 
L 522.540062 298.292312 
L 532.540062 298.292312 
" style="fill: none; stroke: #31b57b; stroke-width: 1.5; stroke-linecap: square"/>
    </g>
    <g id="text_39">
     <!-- 0.462 -->
     <g transform="translate(540.540062 301.792312) scale(0.1 -0.1)">
      <use xlink:href="#DejaVuSans-30"/>
      <use xlink:href="#DejaVuSans-2e" x="63.623047"/>
      <use xlink:href="#DejaVuSans-34" x="95.410156"/>
      <use xlink:href="#DejaVuSans-36" x="159.033203"/>
      <use xlink:href="#DejaVuSans-32" x="222.65625"/>
     </g>
    </g>
    <g id="line2d_66">
     <path d="M 589.168187 166.189188 
L 599.168187 166.189188 
L 609.168187 166.189188 
" style="fill: none; stroke: #3fbc73; stroke-width: 1.5; stroke-linecap: square"/>
    </g>
    <g id="text_40">
     <!-- 0.486 -->
     <g transform="translate(617.168187 169.689188) scale(0.1 -0.1)">
      <use xlink:href="#DejaVuSans-30"/>
      <use xlink:href="#DejaVuSans-2e" x="63.623047"/>
      <use xlink:href="#DejaVuSans-34" x="95.410156"/>
      <use xlink:href="#DejaVuSans-38" x="159.033203"/>
      <use xlink:href="#DejaVuSans-36" x="222.65625"/>
     </g>
    </g>
    <g id="line2d_67">
     <path d="M 589.168187 180.867313 
L 599.168187 180.867313 
L 609.168187 180.867313 
" style="fill: none; stroke: #50c46a; stroke-width: 1.5; stroke-linecap: square"/>
    </g>
    <g id="text_41">
     <!-- 0.51 -->
     <g transform="translate(617.168187 184.367313) scale(0.1 -0.1)">
      <use xlink:href="#DejaVuSans-30"/>
      <use xlink:href="#DejaVuSans-2e" x="63.623047"/>
      <use xlink:href="#DejaVuSans-35" x="95.410156"/>
      <use xlink:href="#DejaVuSans-31" x="159.033203"/>
     </g>
    </g>
    <g id="line2d_68">
     <path d="M 589.168187 195.545438 
L 599.168187 195.545438 
L 609.168187 195.545438 
" style="fill: none; stroke: #63cb5f; stroke-width: 1.5; stroke-linecap: square"/>
    </g>
    <g id="text_42">
     <!-- 0.533 -->
     <g transform="translate(617.168187 199.045438) scale(0.1 -0.1)">
      <use xlink:href="#DejaVuSans-30"/>
      <use xlink:href="#DejaVuSans-2e" x="63.623047"/>
      <use xlink:href="#DejaVuSans-35" x="95.410156"/>
      <use xlink:href="#DejaVuSans-33" x="159.033203"/>
      <use xlink:href="#DejaVuSans-33" x="222.65625"/>
     </g>
    </g>
    <g id="line2d_69">
     <path d="M 589.168187 210.223563 
L 599.168187 210.223563 
L 609.168187 210.223563 
" style="fill: none; stroke: #77d153; stroke-width: 1.5; stroke-linecap: square"/>
    </g>
    <g id="text_43">
     <!-- 0.557 -->
     <g transform="translate(617.168187 213.723563) scale(0.1 -0.1)">
      <use xlink:href="#DejaVuSans-30"/>
      <use xlink:href="#DejaVuSans-2e" x="63.623047"/>
      <use xlink:href="#DejaVuSans-35" x="95.410156"/>
      <use xlink:href="#DejaVuSans-35" x="159.033203"/>
      <use xlink:href="#DejaVuSans-37" x="222.65625"/>
     </g>
    </g>
    <g id="line2d_70">
     <path d="M 589.168187 224.901688 
L 599.168187 224.901688 
L 609.168187 224.901688 
" style="fill: none; stroke: #8bd646; stroke-width: 1.5; stroke-linecap: square"/>
    </g>
    <g id="text_44">
     <!-- 0.581 -->
     <g transform="translate(617.168187 228.401688) scale(0.1 -0.1)">
      <use xlink:href="#DejaVuSans-30"/>
      <use xlink:href="#DejaVuSans-2e" x="63.623047"/>
      <use xlink:href="#DejaVuSans-35" x="95.410156"/>
      <use xlink:href="#DejaVuSans-38" x="159.033203"/>
      <use xlink:href="#DejaVuSans-31" x="222.65625"/>
     </g>
    </g>
    <g id="line2d_71">
     <path d="M 589.168187 239.579813 
L 599.168187 239.579813 
L 609.168187 239.579813 
" style="fill: none; stroke: #a2da37; stroke-width: 1.5; stroke-linecap: square"/>
    </g>
    <g id="text_45">
     <!-- 0.605 -->
     <g transform="translate(617.168187 243.079813) scale(0.1 -0.1)">
      <use xlink:href="#DejaVuSans-30"/>
      <use xlink:href="#DejaVuSans-2e" x="63.623047"/>
      <use xlink:href="#DejaVuSans-36" x="95.410156"/>
      <use xlink:href="#DejaVuSans-30" x="159.033203"/>
      <use xlink:href="#DejaVuSans-35" x="222.65625"/>
     </g>
    </g>
    <g id="line2d_72">
     <path d="M 589.168187 254.257938 
L 599.168187 254.257938 
L 609.168187 254.257938 
" style="fill: none; stroke: #bade28; stroke-width: 1.5; stroke-linecap: square"/>
    </g>
    <g id="text_46">
     <!-- 0.629 -->
     <g transform="translate(617.168187 257.757938) scale(0.1 -0.1)">
      <use xlink:href="#DejaVuSans-30"/>
      <use xlink:href="#DejaVuSans-2e" x="63.623047"/>
      <use xlink:href="#DejaVuSans-36" x="95.410156"/>
      <use xlink:href="#DejaVuSans-32" x="159.033203"/>
      <use xlink:href="#DejaVuSans-39" x="222.65625"/>
     </g>
    </g>
    <g id="line2d_73">
     <path d="M 589.168187 268.936062 
L 599.168187 268.936062 
L 609.168187 268.936062 
" style="fill: none; stroke: #d2e21b; stroke-width: 1.5; stroke-linecap: square"/>
    </g>
    <g id="text_47">
     <!-- 0.652 -->
     <g transform="translate(617.168187 272.436062) scale(0.1 -0.1)">
      <use xlink:href="#DejaVuSans-30"/>
      <use xlink:href="#DejaVuSans-2e" x="63.623047"/>
      <use xlink:href="#DejaVuSans-36" x="95.410156"/>
      <use xlink:href="#DejaVuSans-35" x="159.033203"/>
      <use xlink:href="#DejaVuSans-32" x="222.65625"/>
     </g>
    </g>
    <g id="line2d_74">
     <path d="M 589.168187 283.614188 
L 599.168187 283.614188 
L 609.168187 283.614188 
" style="fill: none; stroke: #eae51a; stroke-width: 1.5; stroke-linecap: square"/>
    </g>
    <g id="text_48">
     <!-- 0.676 -->
     <g transform="translate(617.168187 287.114188) scale(0.1 -0.1)">
      <use xlink:href="#DejaVuSans-30"/>
      <use xlink:href="#DejaVuSans-2e" x="63.623047"/>
      <use xlink:href="#DejaVuSans-36" x="95.410156"/>
      <use xlink:href="#DejaVuSans-37" x="159.033203"/>
      <use xlink:href="#DejaVuSans-36" x="222.65625"/>
     </g>
    </g>
    <g id="line2d_75">
     <path d="M 589.168187 298.292312 
L 599.168187 298.292312 
L 609.168187 298.292312 
" style="fill: none; stroke: #fde725; stroke-width: 1.5; stroke-linecap: square"/>
    </g>
    <g id="text_49">
     <!-- 0.7 -->
     <g transform="translate(617.168187 301.792312) scale(0.1 -0.1)">
      <use xlink:href="#DejaVuSans-30"/>
      <use xlink:href="#DejaVuSans-2e" x="63.623047"/>
      <use xlink:href="#DejaVuSans-37" x="95.410156"/>
     </g>
    </g>
   </g>
  </g>
  <g id="text_50">
   <!-- x0x1-y1 resonator punchout -->
   <g transform="translate(138.2625 16.318125) scale(0.12 -0.12)">
    <defs>
     <path id="DejaVuSans-78" d="M 3513 3500 
L 2247 1797 
L 3578 0 
L 2900 0 
L 1881 1375 
L 863 0 
L 184 0 
L 1544 1831 
L 300 3500 
L 978 3500 
L 1906 2253 
L 2834 3500 
L 3513 3500 
z
" transform="scale(0.015625)"/>
    </defs>
    <use xlink:href="#DejaVuSans-78"/>
    <use xlink:href="#DejaVuSans-30" x="59.179688"/>
    <use xlink:href="#DejaVuSans-78" x="122.802734"/>
    <use xlink:href="#DejaVuSans-31" x="181.982422"/>
    <use xlink:href="#DejaVuSans-2d" x="245.605469"/>
    <use xlink:href="#DejaVuSans-79" x="279.939453"/>
    <use xlink:href="#DejaVuSans-31" x="339.119141"/>
    <use xlink:href="#DejaVuSans-20" x="402.742188"/>
    <use xlink:href="#DejaVuSans-72" x="434.529297"/>
    <use xlink:href="#DejaVuSans-65" x="473.392578"/>
    <use xlink:href="#DejaVuSans-73" x="534.916016"/>
    <use xlink:href="#DejaVuSans-6f" x="587.015625"/>
    <use xlink:href="#DejaVuSans-6e" x="648.197266"/>
    <use xlink:href="#DejaVuSans-61" x="711.576172"/>
    <use xlink:href="#DejaVuSans-74" x="772.855469"/>
    <use xlink:href="#DejaVuSans-6f" x="812.064453"/>
    <use xlink:href="#DejaVuSans-72" x="873.246094"/>
    <use xlink:href="#DejaVuSans-20" x="914.359375"/>
    <use xlink:href="#DejaVuSans-70" x="946.146484"/>
    <use xlink:href="#DejaVuSans-75" x="1009.623047"/>
    <use xlink:href="#DejaVuSans-6e" x="1073.001953"/>
    <use xlink:href="#DejaVuSans-63" x="1136.380859"/>
    <use xlink:href="#DejaVuSans-68" x="1191.361328"/>
    <use xlink:href="#DejaVuSans-6f" x="1254.740234"/>
    <use xlink:href="#DejaVuSans-75" x="1315.921875"/>
    <use xlink:href="#DejaVuSans-74" x="1379.300781"/>
   </g>
   <!-- tuid: 20231225-160104-407-7f6860 -->
   <g transform="translate(115.223438 29.7555) scale(0.12 -0.12)">
    <defs>
     <path id="DejaVuSans-3a" d="M 750 794 
L 1409 794 
L 1409 0 
L 750 0 
L 750 794 
z
M 750 3309 
L 1409 3309 
L 1409 2516 
L 750 2516 
L 750 3309 
z
" transform="scale(0.015625)"/>
     <path id="DejaVuSans-66" d="M 2375 4863 
L 2375 4384 
L 1825 4384 
Q 1516 4384 1395 4259 
Q 1275 4134 1275 3809 
L 1275 3500 
L 2222 3500 
L 2222 3053 
L 1275 3053 
L 1275 0 
L 697 0 
L 697 3053 
L 147 3053 
L 147 3500 
L 697 3500 
L 697 3744 
Q 697 4328 969 4595 
Q 1241 4863 1831 4863 
L 2375 4863 
z
" transform="scale(0.015625)"/>
    </defs>
    <use xlink:href="#DejaVuSans-74"/>
    <use xlink:href="#DejaVuSans-75" x="39.208984"/>
    <use xlink:href="#DejaVuSans-69" x="102.587891"/>
    <use xlink:href="#DejaVuSans-64" x="130.371094"/>
    <use xlink:href="#DejaVuSans-3a" x="193.847656"/>
    <use xlink:href="#DejaVuSans-20" x="227.539062"/>
    <use xlink:href="#DejaVuSans-32" x="259.326172"/>
    <use xlink:href="#DejaVuSans-30" x="322.949219"/>
    <use xlink:href="#DejaVuSans-32" x="386.572266"/>
    <use xlink:href="#DejaVuSans-33" x="450.195312"/>
    <use xlink:href="#DejaVuSans-31" x="513.818359"/>
    <use xlink:href="#DejaVuSans-32" x="577.441406"/>
    <use xlink:href="#DejaVuSans-32" x="641.064453"/>
    <use xlink:href="#DejaVuSans-35" x="704.6875"/>
    <use xlink:href="#DejaVuSans-2d" x="768.310547"/>
    <use xlink:href="#DejaVuSans-31" x="804.394531"/>
    <use xlink:href="#DejaVuSans-36" x="868.017578"/>
    <use xlink:href="#DejaVuSans-30" x="931.640625"/>
    <use xlink:href="#DejaVuSans-31" x="995.263672"/>
    <use xlink:href="#DejaVuSans-30" x="1058.886719"/>
    <use xlink:href="#DejaVuSans-34" x="1122.509766"/>
    <use xlink:href="#DejaVuSans-2d" x="1186.132812"/>
    <use xlink:href="#DejaVuSans-34" x="1222.216797"/>
    <use xlink:href="#DejaVuSans-30" x="1285.839844"/>
    <use xlink:href="#DejaVuSans-37" x="1349.462891"/>
    <use xlink:href="#DejaVuSans-2d" x="1413.085938"/>
    <use xlink:href="#DejaVuSans-37" x="1449.169922"/>
    <use xlink:href="#DejaVuSans-66" x="1512.792969"/>
    <use xlink:href="#DejaVuSans-36" x="1547.998047"/>
    <use xlink:href="#DejaVuSans-38" x="1611.621094"/>
    <use xlink:href="#DejaVuSans-36" x="1675.244141"/>
    <use xlink:href="#DejaVuSans-30" x="1738.867188"/>
   </g>
  </g>
 </g>
 <defs>
  <clipPath id="p4251efab6f">
   <rect x="50.573438" y="41.76" width="357.12" height="266.112"/>
  </clipPath>
 </defs>
</svg>
