<?xml version="1.0" encoding="utf-8" standalone="no"?>
<!DOCTYPE svg PUBLIC "-//W3C//DTD SVG 1.1//EN"
  "http://www.w3.org/Graphics/SVG/1.1/DTD/svg11.dtd">
<svg xmlns:xlink="http://www.w3.org/1999/xlink" width="565.824437pt" height="345.42825pt" viewBox="0 0 565.824437 345.42825" xmlns="http://www.w3.org/2000/svg" version="1.1">
 <metadata>
  <rdf:RDF xmlns:dc="http://purl.org/dc/elements/1.1/" xmlns:cc="http://creativecommons.org/ns#" xmlns:rdf="http://www.w3.org/1999/02/22-rdf-syntax-ns#">
   <cc:Work>
    <dc:type rdf:resource="http://purl.org/dc/dcmitype/StillImage"/>
    <dc:date>2023-12-27T13:12:36.709475</dc:date>
    <dc:format>image/svg+xml</dc:format>
    <dc:creator>
     <cc:Agent>
      <dc:title>Matplotlib v3.8.2, https://matplotlib.org/</dc:title>
     </cc:Agent>
    </dc:creator>
   </cc:Work>
  </rdf:RDF>
 </metadata>
 <defs>
  <style type="text/css">*{stroke-linejoin: round; stroke-linecap: butt}</style>
 </defs>
 <g id="figure_1">
  <g id="patch_1">
   <path d="M 0 345.42825 
L 565.824437 345.42825 
L 565.824437 -0 
L 0 -0 
L 0 345.42825 
z
" style="fill: none; opacity: 0"/>
  </g>
  <g id="axes_1">
   <g id="patch_2">
    <path d="M 37.848438 307.872 
L 394.968438 307.872 
L 394.968438 41.76 
L 37.848438 41.76 
z
" style="fill: #ffffff"/>
   </g>
   <g id="matplotlib.axis_1">
    <g id="xtick_1">
     <g id="line2d_1">
      <defs>
       <path id="m3f3dd76cf2" d="M 0 0 
L 0 3.5 
" style="stroke: #000000; stroke-width: 0.8"/>
      </defs>
      <g>
       <use xlink:href="#m3f3dd76cf2" x="95.404427" y="307.872" style="stroke: #000000; stroke-width: 0.8"/>
      </g>
     </g>
     <g id="text_1">
      <!-- -10 -->
      <g transform="translate(87.238021 322.470438) scale(0.1 -0.1)">
       <defs>
        <path id="DejaVuSans-2d" d="M 313 2009 
L 1997 2009 
L 1997 1497 
L 313 1497 
L 313 2009 
z
" transform="scale(0.015625)"/>
        <path id="DejaVuSans-31" d="M 794 531 
L 1825 531 
L 1825 4091 
L 703 3866 
L 703 4441 
L 1819 4666 
L 2450 4666 
L 2450 531 
L 3481 531 
L 3481 0 
L 794 0 
L 794 531 
z
" transform="scale(0.015625)"/>
        <path id="DejaVuSans-30" d="M 2034 4250 
Q 1547 4250 1301 3770 
Q 1056 3291 1056 2328 
Q 1056 1369 1301 889 
Q 1547 409 2034 409 
Q 2525 409 2770 889 
Q 3016 1369 3016 2328 
Q 3016 3291 2770 3770 
Q 2525 4250 2034 4250 
z
M 2034 4750 
Q 2819 4750 3233 4129 
Q 3647 3509 3647 2328 
Q 3647 1150 3233 529 
Q 2819 -91 2034 -91 
Q 1250 -91 836 529 
Q 422 1150 422 2328 
Q 422 3509 836 4129 
Q 1250 4750 2034 4750 
z
" transform="scale(0.015625)"/>
       </defs>
       <use xlink:href="#DejaVuSans-2d"/>
       <use xlink:href="#DejaVuSans-31" x="36.083984"/>
       <use xlink:href="#DejaVuSans-30" x="99.707031"/>
      </g>
     </g>
    </g>
    <g id="xtick_2">
     <g id="line2d_2">
      <g>
       <use xlink:href="#m3f3dd76cf2" x="158.911324" y="307.872" style="stroke: #000000; stroke-width: 0.8"/>
      </g>
     </g>
     <g id="text_2">
      <!-- -8 -->
      <g transform="translate(153.926168 322.470438) scale(0.1 -0.1)">
       <defs>
        <path id="DejaVuSans-38" d="M 2034 2216 
Q 1584 2216 1326 1975 
Q 1069 1734 1069 1313 
Q 1069 891 1326 650 
Q 1584 409 2034 409 
Q 2484 409 2743 651 
Q 3003 894 3003 1313 
Q 3003 1734 2745 1975 
Q 2488 2216 2034 2216 
z
M 1403 2484 
Q 997 2584 770 2862 
Q 544 3141 544 3541 
Q 544 4100 942 4425 
Q 1341 4750 2034 4750 
Q 2731 4750 3128 4425 
Q 3525 4100 3525 3541 
Q 3525 3141 3298 2862 
Q 3072 2584 2669 2484 
Q 3125 2378 3379 2068 
Q 3634 1759 3634 1313 
Q 3634 634 3220 271 
Q 2806 -91 2034 -91 
Q 1263 -91 848 271 
Q 434 634 434 1313 
Q 434 1759 690 2068 
Q 947 2378 1403 2484 
z
M 1172 3481 
Q 1172 3119 1398 2916 
Q 1625 2713 2034 2713 
Q 2441 2713 2670 2916 
Q 2900 3119 2900 3481 
Q 2900 3844 2670 4047 
Q 2441 4250 2034 4250 
Q 1625 4250 1398 4047 
Q 1172 3844 1172 3481 
z
" transform="scale(0.015625)"/>
       </defs>
       <use xlink:href="#DejaVuSans-2d"/>
       <use xlink:href="#DejaVuSans-38" x="36.083984"/>
      </g>
     </g>
    </g>
    <g id="xtick_3">
     <g id="line2d_3">
      <g>
       <use xlink:href="#m3f3dd76cf2" x="222.418221" y="307.872" style="stroke: #000000; stroke-width: 0.8"/>
      </g>
     </g>
     <g id="text_3">
      <!-- -6 -->
      <g transform="translate(217.433065 322.470438) scale(0.1 -0.1)">
       <defs>
        <path id="DejaVuSans-36" d="M 2113 2584 
Q 1688 2584 1439 2293 
Q 1191 2003 1191 1497 
Q 1191 994 1439 701 
Q 1688 409 2113 409 
Q 2538 409 2786 701 
Q 3034 994 3034 1497 
Q 3034 2003 2786 2293 
Q 2538 2584 2113 2584 
z
M 3366 4563 
L 3366 3988 
Q 3128 4100 2886 4159 
Q 2644 4219 2406 4219 
Q 1781 4219 1451 3797 
Q 1122 3375 1075 2522 
Q 1259 2794 1537 2939 
Q 1816 3084 2150 3084 
Q 2853 3084 3261 2657 
Q 3669 2231 3669 1497 
Q 3669 778 3244 343 
Q 2819 -91 2113 -91 
Q 1303 -91 875 529 
Q 447 1150 447 2328 
Q 447 3434 972 4092 
Q 1497 4750 2381 4750 
Q 2619 4750 2861 4703 
Q 3103 4656 3366 4563 
z
" transform="scale(0.015625)"/>
       </defs>
       <use xlink:href="#DejaVuSans-2d"/>
       <use xlink:href="#DejaVuSans-36" x="36.083984"/>
      </g>
     </g>
    </g>
    <g id="xtick_4">
     <g id="line2d_4">
      <g>
       <use xlink:href="#m3f3dd76cf2" x="285.925118" y="307.872" style="stroke: #000000; stroke-width: 0.8"/>
      </g>
     </g>
     <g id="text_4">
      <!-- -4 -->
      <g transform="translate(280.939962 322.470438) scale(0.1 -0.1)">
       <defs>
        <path id="DejaVuSans-34" d="M 2419 4116 
L 825 1625 
L 2419 1625 
L 2419 4116 
z
M 2253 4666 
L 3047 4666 
L 3047 1625 
L 3713 1625 
L 3713 1100 
L 3047 1100 
L 3047 0 
L 2419 0 
L 2419 1100 
L 313 1100 
L 313 1709 
L 2253 4666 
z
" transform="scale(0.015625)"/>
       </defs>
       <use xlink:href="#DejaVuSans-2d"/>
       <use xlink:href="#DejaVuSans-34" x="36.083984"/>
      </g>
     </g>
    </g>
    <g id="xtick_5">
     <g id="line2d_5">
      <g>
       <use xlink:href="#m3f3dd76cf2" x="349.432015" y="307.872" style="stroke: #000000; stroke-width: 0.8"/>
      </g>
     </g>
     <g id="text_5">
      <!-- -2 -->
      <g transform="translate(344.446859 322.470438) scale(0.1 -0.1)">
       <defs>
        <path id="DejaVuSans-32" d="M 1228 531 
L 3431 531 
L 3431 0 
L 469 0 
L 469 531 
Q 828 903 1448 1529 
Q 2069 2156 2228 2338 
Q 2531 2678 2651 2914 
Q 2772 3150 2772 3378 
Q 2772 3750 2511 3984 
Q 2250 4219 1831 4219 
Q 1534 4219 1204 4116 
Q 875 4013 500 3803 
L 500 4441 
Q 881 4594 1212 4672 
Q 1544 4750 1819 4750 
Q 2544 4750 2975 4387 
Q 3406 4025 3406 3419 
Q 3406 3131 3298 2873 
Q 3191 2616 2906 2266 
Q 2828 2175 2409 1742 
Q 1991 1309 1228 531 
z
" transform="scale(0.015625)"/>
       </defs>
       <use xlink:href="#DejaVuSans-2d"/>
       <use xlink:href="#DejaVuSans-32" x="36.083984"/>
      </g>
     </g>
    </g>
    <g id="text_6">
     <!-- Re$(S_{21})$ [mV] -->
     <g transform="translate(184.408438 336.148562) scale(0.1 -0.1)">
      <defs>
       <path id="DejaVuSans-52" d="M 2841 2188 
Q 3044 2119 3236 1894 
Q 3428 1669 3622 1275 
L 4263 0 
L 3584 0 
L 2988 1197 
Q 2756 1666 2539 1819 
Q 2322 1972 1947 1972 
L 1259 1972 
L 1259 0 
L 628 0 
L 628 4666 
L 2053 4666 
Q 2853 4666 3247 4331 
Q 3641 3997 3641 3322 
Q 3641 2881 3436 2590 
Q 3231 2300 2841 2188 
z
M 1259 4147 
L 1259 2491 
L 2053 2491 
Q 2509 2491 2742 2702 
Q 2975 2913 2975 3322 
Q 2975 3731 2742 3939 
Q 2509 4147 2053 4147 
L 1259 4147 
z
" transform="scale(0.015625)"/>
       <path id="DejaVuSans-65" d="M 3597 1894 
L 3597 1613 
L 953 1613 
Q 991 1019 1311 708 
Q 1631 397 2203 397 
Q 2534 397 2845 478 
Q 3156 559 3463 722 
L 3463 178 
Q 3153 47 2828 -22 
Q 2503 -91 2169 -91 
Q 1331 -91 842 396 
Q 353 884 353 1716 
Q 353 2575 817 3079 
Q 1281 3584 2069 3584 
Q 2775 3584 3186 3129 
Q 3597 2675 3597 1894 
z
M 3022 2063 
Q 3016 2534 2758 2815 
Q 2500 3097 2075 3097 
Q 1594 3097 1305 2825 
Q 1016 2553 972 2059 
L 3022 2063 
z
" transform="scale(0.015625)"/>
       <path id="DejaVuSans-28" d="M 1984 4856 
Q 1566 4138 1362 3434 
Q 1159 2731 1159 2009 
Q 1159 1288 1364 580 
Q 1569 -128 1984 -844 
L 1484 -844 
Q 1016 -109 783 600 
Q 550 1309 550 2009 
Q 550 2706 781 3412 
Q 1013 4119 1484 4856 
L 1984 4856 
z
" transform="scale(0.015625)"/>
       <path id="DejaVuSans-Oblique-53" d="M 3859 4513 
L 3738 3897 
Q 3422 4066 3111 4152 
Q 2800 4238 2509 4238 
Q 1944 4238 1609 3991 
Q 1275 3744 1275 3334 
Q 1275 3109 1398 2989 
Q 1522 2869 2034 2731 
L 2413 2638 
Q 3053 2472 3303 2217 
Q 3553 1963 3553 1503 
Q 3553 797 2998 353 
Q 2444 -91 1538 -91 
Q 1166 -91 791 -17 
Q 416 56 38 206 
L 166 856 
Q 513 641 861 531 
Q 1209 422 1556 422 
Q 2147 422 2503 684 
Q 2859 947 2859 1369 
Q 2859 1650 2717 1795 
Q 2575 1941 2106 2059 
L 1728 2156 
Q 1081 2325 845 2545 
Q 609 2766 609 3163 
Q 609 3859 1145 4304 
Q 1681 4750 2541 4750 
Q 2875 4750 3203 4690 
Q 3531 4631 3859 4513 
z
" transform="scale(0.015625)"/>
       <path id="DejaVuSans-29" d="M 513 4856 
L 1013 4856 
Q 1481 4119 1714 3412 
Q 1947 2706 1947 2009 
Q 1947 1309 1714 600 
Q 1481 -109 1013 -844 
L 513 -844 
Q 928 -128 1133 580 
Q 1338 1288 1338 2009 
Q 1338 2731 1133 3434 
Q 928 4138 513 4856 
z
" transform="scale(0.015625)"/>
       <path id="DejaVuSans-20" transform="scale(0.015625)"/>
       <path id="DejaVuSans-5b" d="M 550 4863 
L 1875 4863 
L 1875 4416 
L 1125 4416 
L 1125 -397 
L 1875 -397 
L 1875 -844 
L 550 -844 
L 550 4863 
z
" transform="scale(0.015625)"/>
       <path id="DejaVuSans-6d" d="M 3328 2828 
Q 3544 3216 3844 3400 
Q 4144 3584 4550 3584 
Q 5097 3584 5394 3201 
Q 5691 2819 5691 2113 
L 5691 0 
L 5113 0 
L 5113 2094 
Q 5113 2597 4934 2840 
Q 4756 3084 4391 3084 
Q 3944 3084 3684 2787 
Q 3425 2491 3425 1978 
L 3425 0 
L 2847 0 
L 2847 2094 
Q 2847 2600 2669 2842 
Q 2491 3084 2119 3084 
Q 1678 3084 1418 2786 
Q 1159 2488 1159 1978 
L 1159 0 
L 581 0 
L 581 3500 
L 1159 3500 
L 1159 2956 
Q 1356 3278 1631 3431 
Q 1906 3584 2284 3584 
Q 2666 3584 2933 3390 
Q 3200 3197 3328 2828 
z
" transform="scale(0.015625)"/>
       <path id="DejaVuSans-56" d="M 1831 0 
L 50 4666 
L 709 4666 
L 2188 738 
L 3669 4666 
L 4325 4666 
L 2547 0 
L 1831 0 
z
" transform="scale(0.015625)"/>
       <path id="DejaVuSans-5d" d="M 1947 4863 
L 1947 -844 
L 622 -844 
L 622 -397 
L 1369 -397 
L 1369 4416 
L 622 4416 
L 622 4863 
L 1947 4863 
z
" transform="scale(0.015625)"/>
      </defs>
      <use xlink:href="#DejaVuSans-52" transform="translate(0 0.015625)"/>
      <use xlink:href="#DejaVuSans-65" transform="translate(69.482422 0.015625)"/>
      <use xlink:href="#DejaVuSans-28" transform="translate(131.005859 0.015625)"/>
      <use xlink:href="#DejaVuSans-Oblique-53" transform="translate(170.019531 0.015625)"/>
      <use xlink:href="#DejaVuSans-32" transform="translate(233.496094 -16.390625) scale(0.7)"/>
      <use xlink:href="#DejaVuSans-31" transform="translate(278.032227 -16.390625) scale(0.7)"/>
      <use xlink:href="#DejaVuSans-29" transform="translate(325.302734 0.015625)"/>
      <use xlink:href="#DejaVuSans-20" transform="translate(364.316406 0.015625)"/>
      <use xlink:href="#DejaVuSans-5b" transform="translate(396.103516 0.015625)"/>
      <use xlink:href="#DejaVuSans-6d" transform="translate(435.117188 0.015625)"/>
      <use xlink:href="#DejaVuSans-56" transform="translate(532.529297 0.015625)"/>
      <use xlink:href="#DejaVuSans-5d" transform="translate(600.9375 0.015625)"/>
     </g>
    </g>
   </g>
   <g id="matplotlib.axis_2">
    <g id="ytick_1">
     <g id="line2d_6">
      <defs>
       <path id="m161c928594" d="M 0 0 
L -3.5 0 
" style="stroke: #000000; stroke-width: 0.8"/>
      </defs>
      <g>
       <use xlink:href="#m161c928594" x="37.848438" y="298.135711" style="stroke: #000000; stroke-width: 0.8"/>
      </g>
     </g>
     <g id="text_7">
      <!-- -2 -->
      <g transform="translate(20.878125 301.93493) scale(0.1 -0.1)">
       <use xlink:href="#DejaVuSans-2d"/>
       <use xlink:href="#DejaVuSans-32" x="36.083984"/>
      </g>
     </g>
    </g>
    <g id="ytick_2">
     <g id="line2d_7">
      <g>
       <use xlink:href="#m161c928594" x="37.848438" y="250.936362" style="stroke: #000000; stroke-width: 0.8"/>
      </g>
     </g>
     <g id="text_8">
      <!-- 0 -->
      <g transform="translate(24.485938 254.73558) scale(0.1 -0.1)">
       <use xlink:href="#DejaVuSans-30"/>
      </g>
     </g>
    </g>
    <g id="ytick_3">
     <g id="line2d_8">
      <g>
       <use xlink:href="#m161c928594" x="37.848438" y="203.737012" style="stroke: #000000; stroke-width: 0.8"/>
      </g>
     </g>
     <g id="text_9">
      <!-- 2 -->
      <g transform="translate(24.485938 207.536231) scale(0.1 -0.1)">
       <use xlink:href="#DejaVuSans-32"/>
      </g>
     </g>
    </g>
    <g id="ytick_4">
     <g id="line2d_9">
      <g>
       <use xlink:href="#m161c928594" x="37.848438" y="156.537663" style="stroke: #000000; stroke-width: 0.8"/>
      </g>
     </g>
     <g id="text_10">
      <!-- 4 -->
      <g transform="translate(24.485938 160.336881) scale(0.1 -0.1)">
       <use xlink:href="#DejaVuSans-34"/>
      </g>
     </g>
    </g>
    <g id="ytick_5">
     <g id="line2d_10">
      <g>
       <use xlink:href="#m161c928594" x="37.848438" y="109.338313" style="stroke: #000000; stroke-width: 0.8"/>
      </g>
     </g>
     <g id="text_11">
      <!-- 6 -->
      <g transform="translate(24.485938 113.137532) scale(0.1 -0.1)">
       <use xlink:href="#DejaVuSans-36"/>
      </g>
     </g>
    </g>
    <g id="ytick_6">
     <g id="line2d_11">
      <g>
       <use xlink:href="#m161c928594" x="37.848438" y="62.138963" style="stroke: #000000; stroke-width: 0.8"/>
      </g>
     </g>
     <g id="text_12">
      <!-- 8 -->
      <g transform="translate(24.485938 65.938182) scale(0.1 -0.1)">
       <use xlink:href="#DejaVuSans-38"/>
      </g>
     </g>
    </g>
    <g id="text_13">
     <!-- Im$(S_{21})$ [mV] -->
     <g transform="translate(14.798438 206.466) rotate(-90) scale(0.1 -0.1)">
      <defs>
       <path id="DejaVuSans-49" d="M 628 4666 
L 1259 4666 
L 1259 0 
L 628 0 
L 628 4666 
z
" transform="scale(0.015625)"/>
      </defs>
      <use xlink:href="#DejaVuSans-49" transform="translate(0 0.015625)"/>
      <use xlink:href="#DejaVuSans-6d" transform="translate(25.867188 0.015625)"/>
      <use xlink:href="#DejaVuSans-28" transform="translate(123.279297 0.015625)"/>
      <use xlink:href="#DejaVuSans-Oblique-53" transform="translate(162.292969 0.015625)"/>
      <use xlink:href="#DejaVuSans-32" transform="translate(225.769531 -16.390625) scale(0.7)"/>
      <use xlink:href="#DejaVuSans-31" transform="translate(270.305664 -16.390625) scale(0.7)"/>
      <use xlink:href="#DejaVuSans-29" transform="translate(317.576172 0.015625)"/>
      <use xlink:href="#DejaVuSans-20" transform="translate(356.589844 0.015625)"/>
      <use xlink:href="#DejaVuSans-5b" transform="translate(388.376953 0.015625)"/>
      <use xlink:href="#DejaVuSans-6d" transform="translate(427.390625 0.015625)"/>
      <use xlink:href="#DejaVuSans-56" transform="translate(524.802734 0.015625)"/>
      <use xlink:href="#DejaVuSans-5d" transform="translate(593.210938 0.015625)"/>
     </g>
    </g>
   </g>
   <g id="line2d_12">
    <path d="M 63.877249 284.19119 
L 56.266453 278.538489 
L 61.903547 275.31721 
L 63.528191 276.081064 
L 62.544477 271.428791 
L 63.328083 269.558469 
L 62.539788 263.186493 
L 59.434559 266.04333 
L 55.131271 257.602479 
L 54.081165 252.655245 
L 59.45831 251.138348 
L 57.070432 248.798108 
L 56.03053 249.677892 
L 58.220437 247.018634 
L 57.887856 243.022868 
L 56.400202 238.691175 
L 60.33792 235.557951 
L 64.773888 234.774216 
L 61.106669 228.97433 
L 61.088778 228.31398 
L 59.250619 228.805905 
L 63.561387 219.114398 
L 59.40319 217.83825 
L 64.31066 214.708177 
L 64.337203 212.542075 
L 67.51303 209.882151 
L 63.590791 204.141164 
L 60.470738 202.801505 
L 66.773892 202.158038 
L 64.849484 196.805576 
L 66.033719 194.865876 
L 66.58254 190.243962 
L 71.427721 190.864064 
L 72.106741 187.953732 
L 73.782678 179.556306 
L 67.534816 181.309417 
L 80.761404 177.655701 
L 76.340155 174.300507 
L 80.204172 173.626143 
L 76.76836 168.255158 
L 82.745068 163.443786 
L 81.281476 159.452119 
L 85.733508 158.253753 
L 84.441102 159.400649 
L 97.662622 151.033916 
L 90.513744 145.380779 
L 94.574387 140.94566 
L 104.760517 142.353365 
L 103.855053 140.325379 
L 104.070983 134.431827 
L 112.931717 132.552179 
L 118.764679 127.483841 
L 120.608595 120.98456 
L 131.339375 122.105221 
L 126.410567 116.956308 
L 135.568342 115.051886 
L 143.304408 107.767512 
L 147.61952 103.951956 
L 160.170534 102.280879 
L 168.127666 98.068165 
L 175.815024 99.15821 
L 183.566878 95.013081 
L 197.499546 92.233692 
L 208.023531 92.77614 
L 216.277566 90.211598 
L 229.188188 90.199121 
L 242.553765 88.274306 
L 254.087042 91.948697 
L 271.011253 92.926912 
L 282.230873 97.085338 
L 311.239216 105.813336 
L 327.628877 111.014334 
L 341.516663 122.972758 
L 350.385601 130.846388 
L 360.537363 146.535412 
L 366.947137 161.248272 
L 370.647173 173.870812 
L 378.73571 191.500203 
L 372.642488 206.978352 
L 371.216125 219.363806 
L 362.441949 235.399903 
L 350.691777 246.682758 
L 345.612363 260.486294 
L 329.025077 266.91056 
L 318.585065 274.990865 
L 302.196093 282.862675 
L 282.28396 289.732162 
L 267.951767 291.537384 
L 253.172409 295.776 
L 241.38194 293.785239 
L 231.037034 290.090096 
L 221.331678 292.022111 
L 208.12929 289.643518 
L 195.475033 285.317564 
L 186.420914 281.378213 
L 180.242788 278.855175 
L 170.950747 280.488053 
L 164.106045 276.537557 
L 160.706601 270.789833 
L 152.22071 264.927537 
L 148.182647 260.692559 
L 139.626537 256.204535 
L 136.368426 253.749518 
L 134.723721 247.410412 
L 129.371878 244.63589 
L 124.337484 239.272463 
L 123.761154 237.535902 
L 119.838536 235.271548 
L 119.922956 230.38183 
L 121.416056 225.056833 
L 118.792428 222.928852 
L 116.917763 218.454662 
L 112.78735 217.403866 
L 107.448227 213.66002 
L 115.59285 210.489647 
L 111.48443 208.401147 
L 110.30571 202.953969 
L 109.893569 199.738505 
L 113.51463 195.08408 
L 111.068014 190.680421 
L 106.696748 189.516924 
L 109.20893 187.797067 
L 111.581812 185.994023 
L 107.28466 185.043144 
L 106.934774 177.7373 
L 110.968184 176.284043 
L 110.654424 174.976896 
L 106.736666 172.261044 
L 110.50013 174.186525 
L 110.146314 170.171647 
L 109.652406 161.747832 
L 114.926446 164.662853 
L 111.233925 162.964439 
L 112.239011 156.9722 
L 110.318154 156.288997 
L 115.802678 154.029485 
L 116.821587 152.072747 
L 118.25643 149.930727 
L 114.55636 148.542467 
L 119.325358 143.296097 
L 119.131111 146.469211 
L 123.224191 142.525325 
L 121.133079 140.722844 
L 122.877477 138.088079 
L 122.831767 135.688657 
L 126.85749 131.674752 
L 126.873313 130.524757 
L 123.459459 131.324709 
L 125.29007 126.162653 
L 130.190543 123.432377 
L 129.810701 122.762522 
L 127.996878 121.245856 
L 131.861515 119.921799 
L 131.942006 115.26886 
L 134.774601 117.11948 
L 133.792679 112.009587 
L 136.941619 114.821257 
L 140.432482 112.877995 
L 139.880524 111.776984 
L 140.074633 105.282648 
L 145.669086 107.240487 
L 141.335636 103.762472 
L 142.381261 105.108741 
L 146.899927 102.448586 
L 145.932862 99.991981 
L 146.064371 100.632937 
L 150.348665 98.479567 
L 150.877527 96.332757 
L 150.284031 94.958434 
L 153.442933 93.102408 
L 154.779877 93.104329 
L 158.325342 90.707188 
L 159.906896 85.093609 
L 163.077105 86.268481 
L 159.393994 84.454933 
L 160.660065 80.146349 
L 160.533209 82.377244 
L 168.884489 82.455077 
L 166.796996 79.756903 
L 171.159472 78.712025 
L 169.615216 75.86751 
L 172.54209 77.117679 
L 169.934422 74.901413 
L 176.377186 73.223368 
L 174.454433 72.598911 
L 180.108591 70.824971 
L 178.368709 70.656213 
L 178.490497 68.628381 
L 184.203739 65.626304 
L 182.993651 66.720833 
L 187.814701 64.710986 
L 189.933838 62.462336 
L 187.429344 63.026356 
L 190.798556 61.597258 
L 190.267798 58.129542 
L 194.131402 58.108944 
L 196.336614 55.559492 
L 198.713288 56.307257 
L 198.713288 56.307257 
" clip-path="url(#p6a2f2d7951)" style="fill: none; stroke: #1f77b4; stroke-width: 1.5; stroke-linecap: square"/>
    <defs>
     <path id="me3ed29f747" d="M 0 1.5 
C 0.397805 1.5 0.77937 1.341951 1.06066 1.06066 
C 1.341951 0.77937 1.5 0.397805 1.5 0 
C 1.5 -0.397805 1.341951 -0.77937 1.06066 -1.06066 
C 0.77937 -1.341951 0.397805 -1.5 0 -1.5 
C -0.397805 -1.5 -0.77937 -1.341951 -1.06066 -1.06066 
C -1.341951 -0.77937 -1.5 -0.397805 -1.5 0 
C -1.5 0.397805 -1.341951 0.77937 -1.06066 1.06066 
C -0.77937 1.341951 -0.397805 1.5 0 1.5 
z
" style="stroke: #1f77b4"/>
    </defs>
    <g clip-path="url(#p6a2f2d7951)">
     <use xlink:href="#me3ed29f747" x="63.877249" y="284.19119" style="fill: #1f77b4; stroke: #1f77b4"/>
     <use xlink:href="#me3ed29f747" x="56.266453" y="278.538489" style="fill: #1f77b4; stroke: #1f77b4"/>
     <use xlink:href="#me3ed29f747" x="61.903547" y="275.31721" style="fill: #1f77b4; stroke: #1f77b4"/>
     <use xlink:href="#me3ed29f747" x="63.528191" y="276.081064" style="fill: #1f77b4; stroke: #1f77b4"/>
     <use xlink:href="#me3ed29f747" x="62.544477" y="271.428791" style="fill: #1f77b4; stroke: #1f77b4"/>
     <use xlink:href="#me3ed29f747" x="63.328083" y="269.558469" style="fill: #1f77b4; stroke: #1f77b4"/>
     <use xlink:href="#me3ed29f747" x="62.539788" y="263.186493" style="fill: #1f77b4; stroke: #1f77b4"/>
     <use xlink:href="#me3ed29f747" x="59.434559" y="266.04333" style="fill: #1f77b4; stroke: #1f77b4"/>
     <use xlink:href="#me3ed29f747" x="55.131271" y="257.602479" style="fill: #1f77b4; stroke: #1f77b4"/>
     <use xlink:href="#me3ed29f747" x="54.081165" y="252.655245" style="fill: #1f77b4; stroke: #1f77b4"/>
     <use xlink:href="#me3ed29f747" x="59.45831" y="251.138348" style="fill: #1f77b4; stroke: #1f77b4"/>
     <use xlink:href="#me3ed29f747" x="57.070432" y="248.798108" style="fill: #1f77b4; stroke: #1f77b4"/>
     <use xlink:href="#me3ed29f747" x="56.03053" y="249.677892" style="fill: #1f77b4; stroke: #1f77b4"/>
     <use xlink:href="#me3ed29f747" x="58.220437" y="247.018634" style="fill: #1f77b4; stroke: #1f77b4"/>
     <use xlink:href="#me3ed29f747" x="57.887856" y="243.022868" style="fill: #1f77b4; stroke: #1f77b4"/>
     <use xlink:href="#me3ed29f747" x="56.400202" y="238.691175" style="fill: #1f77b4; stroke: #1f77b4"/>
     <use xlink:href="#me3ed29f747" x="60.33792" y="235.557951" style="fill: #1f77b4; stroke: #1f77b4"/>
     <use xlink:href="#me3ed29f747" x="64.773888" y="234.774216" style="fill: #1f77b4; stroke: #1f77b4"/>
     <use xlink:href="#me3ed29f747" x="61.106669" y="228.97433" style="fill: #1f77b4; stroke: #1f77b4"/>
     <use xlink:href="#me3ed29f747" x="61.088778" y="228.31398" style="fill: #1f77b4; stroke: #1f77b4"/>
     <use xlink:href="#me3ed29f747" x="59.250619" y="228.805905" style="fill: #1f77b4; stroke: #1f77b4"/>
     <use xlink:href="#me3ed29f747" x="61.041449" y="224.835811" style="fill: #1f77b4; stroke: #1f77b4"/>
     <use xlink:href="#me3ed29f747" x="63.561387" y="219.114398" style="fill: #1f77b4; stroke: #1f77b4"/>
     <use xlink:href="#me3ed29f747" x="59.40319" y="217.83825" style="fill: #1f77b4; stroke: #1f77b4"/>
     <use xlink:href="#me3ed29f747" x="64.31066" y="214.708177" style="fill: #1f77b4; stroke: #1f77b4"/>
     <use xlink:href="#me3ed29f747" x="64.337203" y="212.542075" style="fill: #1f77b4; stroke: #1f77b4"/>
     <use xlink:href="#me3ed29f747" x="67.51303" y="209.882151" style="fill: #1f77b4; stroke: #1f77b4"/>
     <use xlink:href="#me3ed29f747" x="63.590791" y="204.141164" style="fill: #1f77b4; stroke: #1f77b4"/>
     <use xlink:href="#me3ed29f747" x="60.470738" y="202.801505" style="fill: #1f77b4; stroke: #1f77b4"/>
     <use xlink:href="#me3ed29f747" x="66.773892" y="202.158038" style="fill: #1f77b4; stroke: #1f77b4"/>
     <use xlink:href="#me3ed29f747" x="64.849484" y="196.805576" style="fill: #1f77b4; stroke: #1f77b4"/>
     <use xlink:href="#me3ed29f747" x="66.033719" y="194.865876" style="fill: #1f77b4; stroke: #1f77b4"/>
     <use xlink:href="#me3ed29f747" x="66.58254" y="190.243962" style="fill: #1f77b4; stroke: #1f77b4"/>
     <use xlink:href="#me3ed29f747" x="71.427721" y="190.864064" style="fill: #1f77b4; stroke: #1f77b4"/>
     <use xlink:href="#me3ed29f747" x="72.106741" y="187.953732" style="fill: #1f77b4; stroke: #1f77b4"/>
     <use xlink:href="#me3ed29f747" x="73.782678" y="179.556306" style="fill: #1f77b4; stroke: #1f77b4"/>
     <use xlink:href="#me3ed29f747" x="67.534816" y="181.309417" style="fill: #1f77b4; stroke: #1f77b4"/>
     <use xlink:href="#me3ed29f747" x="80.761404" y="177.655701" style="fill: #1f77b4; stroke: #1f77b4"/>
     <use xlink:href="#me3ed29f747" x="76.340155" y="174.300507" style="fill: #1f77b4; stroke: #1f77b4"/>
     <use xlink:href="#me3ed29f747" x="80.204172" y="173.626143" style="fill: #1f77b4; stroke: #1f77b4"/>
     <use xlink:href="#me3ed29f747" x="76.76836" y="168.255158" style="fill: #1f77b4; stroke: #1f77b4"/>
     <use xlink:href="#me3ed29f747" x="82.745068" y="163.443786" style="fill: #1f77b4; stroke: #1f77b4"/>
     <use xlink:href="#me3ed29f747" x="81.281476" y="159.452119" style="fill: #1f77b4; stroke: #1f77b4"/>
     <use xlink:href="#me3ed29f747" x="85.733508" y="158.253753" style="fill: #1f77b4; stroke: #1f77b4"/>
     <use xlink:href="#me3ed29f747" x="84.441102" y="159.400649" style="fill: #1f77b4; stroke: #1f77b4"/>
     <use xlink:href="#me3ed29f747" x="97.662622" y="151.033916" style="fill: #1f77b4; stroke: #1f77b4"/>
     <use xlink:href="#me3ed29f747" x="90.513744" y="145.380779" style="fill: #1f77b4; stroke: #1f77b4"/>
     <use xlink:href="#me3ed29f747" x="94.574387" y="140.94566" style="fill: #1f77b4; stroke: #1f77b4"/>
     <use xlink:href="#me3ed29f747" x="104.760517" y="142.353365" style="fill: #1f77b4; stroke: #1f77b4"/>
     <use xlink:href="#me3ed29f747" x="103.855053" y="140.325379" style="fill: #1f77b4; stroke: #1f77b4"/>
     <use xlink:href="#me3ed29f747" x="104.070983" y="134.431827" style="fill: #1f77b4; stroke: #1f77b4"/>
     <use xlink:href="#me3ed29f747" x="112.931717" y="132.552179" style="fill: #1f77b4; stroke: #1f77b4"/>
     <use xlink:href="#me3ed29f747" x="118.764679" y="127.483841" style="fill: #1f77b4; stroke: #1f77b4"/>
     <use xlink:href="#me3ed29f747" x="120.608595" y="120.98456" style="fill: #1f77b4; stroke: #1f77b4"/>
     <use xlink:href="#me3ed29f747" x="131.339375" y="122.105221" style="fill: #1f77b4; stroke: #1f77b4"/>
     <use xlink:href="#me3ed29f747" x="126.410567" y="116.956308" style="fill: #1f77b4; stroke: #1f77b4"/>
     <use xlink:href="#me3ed29f747" x="135.568342" y="115.051886" style="fill: #1f77b4; stroke: #1f77b4"/>
     <use xlink:href="#me3ed29f747" x="143.304408" y="107.767512" style="fill: #1f77b4; stroke: #1f77b4"/>
     <use xlink:href="#me3ed29f747" x="147.61952" y="103.951956" style="fill: #1f77b4; stroke: #1f77b4"/>
     <use xlink:href="#me3ed29f747" x="160.170534" y="102.280879" style="fill: #1f77b4; stroke: #1f77b4"/>
     <use xlink:href="#me3ed29f747" x="168.127666" y="98.068165" style="fill: #1f77b4; stroke: #1f77b4"/>
     <use xlink:href="#me3ed29f747" x="175.815024" y="99.15821" style="fill: #1f77b4; stroke: #1f77b4"/>
     <use xlink:href="#me3ed29f747" x="183.566878" y="95.013081" style="fill: #1f77b4; stroke: #1f77b4"/>
     <use xlink:href="#me3ed29f747" x="197.499546" y="92.233692" style="fill: #1f77b4; stroke: #1f77b4"/>
     <use xlink:href="#me3ed29f747" x="208.023531" y="92.77614" style="fill: #1f77b4; stroke: #1f77b4"/>
     <use xlink:href="#me3ed29f747" x="216.277566" y="90.211598" style="fill: #1f77b4; stroke: #1f77b4"/>
     <use xlink:href="#me3ed29f747" x="229.188188" y="90.199121" style="fill: #1f77b4; stroke: #1f77b4"/>
     <use xlink:href="#me3ed29f747" x="242.553765" y="88.274306" style="fill: #1f77b4; stroke: #1f77b4"/>
     <use xlink:href="#me3ed29f747" x="254.087042" y="91.948697" style="fill: #1f77b4; stroke: #1f77b4"/>
     <use xlink:href="#me3ed29f747" x="271.011253" y="92.926912" style="fill: #1f77b4; stroke: #1f77b4"/>
     <use xlink:href="#me3ed29f747" x="282.230873" y="97.085338" style="fill: #1f77b4; stroke: #1f77b4"/>
     <use xlink:href="#me3ed29f747" x="291.957291" y="99.988881" style="fill: #1f77b4; stroke: #1f77b4"/>
     <use xlink:href="#me3ed29f747" x="311.239216" y="105.813336" style="fill: #1f77b4; stroke: #1f77b4"/>
     <use xlink:href="#me3ed29f747" x="327.628877" y="111.014334" style="fill: #1f77b4; stroke: #1f77b4"/>
     <use xlink:href="#me3ed29f747" x="341.516663" y="122.972758" style="fill: #1f77b4; stroke: #1f77b4"/>
     <use xlink:href="#me3ed29f747" x="350.385601" y="130.846388" style="fill: #1f77b4; stroke: #1f77b4"/>
     <use xlink:href="#me3ed29f747" x="360.537363" y="146.535412" style="fill: #1f77b4; stroke: #1f77b4"/>
     <use xlink:href="#me3ed29f747" x="366.947137" y="161.248272" style="fill: #1f77b4; stroke: #1f77b4"/>
     <use xlink:href="#me3ed29f747" x="370.647173" y="173.870812" style="fill: #1f77b4; stroke: #1f77b4"/>
     <use xlink:href="#me3ed29f747" x="378.73571" y="191.500203" style="fill: #1f77b4; stroke: #1f77b4"/>
     <use xlink:href="#me3ed29f747" x="372.642488" y="206.978352" style="fill: #1f77b4; stroke: #1f77b4"/>
     <use xlink:href="#me3ed29f747" x="371.216125" y="219.363806" style="fill: #1f77b4; stroke: #1f77b4"/>
     <use xlink:href="#me3ed29f747" x="362.441949" y="235.399903" style="fill: #1f77b4; stroke: #1f77b4"/>
     <use xlink:href="#me3ed29f747" x="350.691777" y="246.682758" style="fill: #1f77b4; stroke: #1f77b4"/>
     <use xlink:href="#me3ed29f747" x="345.612363" y="260.486294" style="fill: #1f77b4; stroke: #1f77b4"/>
     <use xlink:href="#me3ed29f747" x="329.025077" y="266.91056" style="fill: #1f77b4; stroke: #1f77b4"/>
     <use xlink:href="#me3ed29f747" x="318.585065" y="274.990865" style="fill: #1f77b4; stroke: #1f77b4"/>
     <use xlink:href="#me3ed29f747" x="302.196093" y="282.862675" style="fill: #1f77b4; stroke: #1f77b4"/>
     <use xlink:href="#me3ed29f747" x="282.28396" y="289.732162" style="fill: #1f77b4; stroke: #1f77b4"/>
     <use xlink:href="#me3ed29f747" x="267.951767" y="291.537384" style="fill: #1f77b4; stroke: #1f77b4"/>
     <use xlink:href="#me3ed29f747" x="253.172409" y="295.776" style="fill: #1f77b4; stroke: #1f77b4"/>
     <use xlink:href="#me3ed29f747" x="241.38194" y="293.785239" style="fill: #1f77b4; stroke: #1f77b4"/>
     <use xlink:href="#me3ed29f747" x="231.037034" y="290.090096" style="fill: #1f77b4; stroke: #1f77b4"/>
     <use xlink:href="#me3ed29f747" x="221.331678" y="292.022111" style="fill: #1f77b4; stroke: #1f77b4"/>
     <use xlink:href="#me3ed29f747" x="208.12929" y="289.643518" style="fill: #1f77b4; stroke: #1f77b4"/>
     <use xlink:href="#me3ed29f747" x="195.475033" y="285.317564" style="fill: #1f77b4; stroke: #1f77b4"/>
     <use xlink:href="#me3ed29f747" x="186.420914" y="281.378213" style="fill: #1f77b4; stroke: #1f77b4"/>
     <use xlink:href="#me3ed29f747" x="180.242788" y="278.855175" style="fill: #1f77b4; stroke: #1f77b4"/>
     <use xlink:href="#me3ed29f747" x="170.950747" y="280.488053" style="fill: #1f77b4; stroke: #1f77b4"/>
     <use xlink:href="#me3ed29f747" x="164.106045" y="276.537557" style="fill: #1f77b4; stroke: #1f77b4"/>
     <use xlink:href="#me3ed29f747" x="160.706601" y="270.789833" style="fill: #1f77b4; stroke: #1f77b4"/>
     <use xlink:href="#me3ed29f747" x="152.22071" y="264.927537" style="fill: #1f77b4; stroke: #1f77b4"/>
     <use xlink:href="#me3ed29f747" x="148.182647" y="260.692559" style="fill: #1f77b4; stroke: #1f77b4"/>
     <use xlink:href="#me3ed29f747" x="139.626537" y="256.204535" style="fill: #1f77b4; stroke: #1f77b4"/>
     <use xlink:href="#me3ed29f747" x="136.368426" y="253.749518" style="fill: #1f77b4; stroke: #1f77b4"/>
     <use xlink:href="#me3ed29f747" x="134.723721" y="247.410412" style="fill: #1f77b4; stroke: #1f77b4"/>
     <use xlink:href="#me3ed29f747" x="129.371878" y="244.63589" style="fill: #1f77b4; stroke: #1f77b4"/>
     <use xlink:href="#me3ed29f747" x="124.337484" y="239.272463" style="fill: #1f77b4; stroke: #1f77b4"/>
     <use xlink:href="#me3ed29f747" x="123.761154" y="237.535902" style="fill: #1f77b4; stroke: #1f77b4"/>
     <use xlink:href="#me3ed29f747" x="119.838536" y="235.271548" style="fill: #1f77b4; stroke: #1f77b4"/>
     <use xlink:href="#me3ed29f747" x="119.922956" y="230.38183" style="fill: #1f77b4; stroke: #1f77b4"/>
     <use xlink:href="#me3ed29f747" x="121.416056" y="225.056833" style="fill: #1f77b4; stroke: #1f77b4"/>
     <use xlink:href="#me3ed29f747" x="118.792428" y="222.928852" style="fill: #1f77b4; stroke: #1f77b4"/>
     <use xlink:href="#me3ed29f747" x="116.917763" y="218.454662" style="fill: #1f77b4; stroke: #1f77b4"/>
     <use xlink:href="#me3ed29f747" x="112.78735" y="217.403866" style="fill: #1f77b4; stroke: #1f77b4"/>
     <use xlink:href="#me3ed29f747" x="107.448227" y="213.66002" style="fill: #1f77b4; stroke: #1f77b4"/>
     <use xlink:href="#me3ed29f747" x="115.59285" y="210.489647" style="fill: #1f77b4; stroke: #1f77b4"/>
     <use xlink:href="#me3ed29f747" x="111.48443" y="208.401147" style="fill: #1f77b4; stroke: #1f77b4"/>
     <use xlink:href="#me3ed29f747" x="110.30571" y="202.953969" style="fill: #1f77b4; stroke: #1f77b4"/>
     <use xlink:href="#me3ed29f747" x="109.893569" y="199.738505" style="fill: #1f77b4; stroke: #1f77b4"/>
     <use xlink:href="#me3ed29f747" x="113.51463" y="195.08408" style="fill: #1f77b4; stroke: #1f77b4"/>
     <use xlink:href="#me3ed29f747" x="111.068014" y="190.680421" style="fill: #1f77b4; stroke: #1f77b4"/>
     <use xlink:href="#me3ed29f747" x="106.696748" y="189.516924" style="fill: #1f77b4; stroke: #1f77b4"/>
     <use xlink:href="#me3ed29f747" x="109.20893" y="187.797067" style="fill: #1f77b4; stroke: #1f77b4"/>
     <use xlink:href="#me3ed29f747" x="111.581812" y="185.994023" style="fill: #1f77b4; stroke: #1f77b4"/>
     <use xlink:href="#me3ed29f747" x="107.28466" y="185.043144" style="fill: #1f77b4; stroke: #1f77b4"/>
     <use xlink:href="#me3ed29f747" x="106.934774" y="177.7373" style="fill: #1f77b4; stroke: #1f77b4"/>
     <use xlink:href="#me3ed29f747" x="110.968184" y="176.284043" style="fill: #1f77b4; stroke: #1f77b4"/>
     <use xlink:href="#me3ed29f747" x="110.654424" y="174.976896" style="fill: #1f77b4; stroke: #1f77b4"/>
     <use xlink:href="#me3ed29f747" x="106.736666" y="172.261044" style="fill: #1f77b4; stroke: #1f77b4"/>
     <use xlink:href="#me3ed29f747" x="110.50013" y="174.186525" style="fill: #1f77b4; stroke: #1f77b4"/>
     <use xlink:href="#me3ed29f747" x="110.146314" y="170.171647" style="fill: #1f77b4; stroke: #1f77b4"/>
     <use xlink:href="#me3ed29f747" x="109.652406" y="161.747832" style="fill: #1f77b4; stroke: #1f77b4"/>
     <use xlink:href="#me3ed29f747" x="114.926446" y="164.662853" style="fill: #1f77b4; stroke: #1f77b4"/>
     <use xlink:href="#me3ed29f747" x="111.233925" y="162.964439" style="fill: #1f77b4; stroke: #1f77b4"/>
     <use xlink:href="#me3ed29f747" x="112.239011" y="156.9722" style="fill: #1f77b4; stroke: #1f77b4"/>
     <use xlink:href="#me3ed29f747" x="110.318154" y="156.288997" style="fill: #1f77b4; stroke: #1f77b4"/>
     <use xlink:href="#me3ed29f747" x="115.802678" y="154.029485" style="fill: #1f77b4; stroke: #1f77b4"/>
     <use xlink:href="#me3ed29f747" x="116.821587" y="152.072747" style="fill: #1f77b4; stroke: #1f77b4"/>
     <use xlink:href="#me3ed29f747" x="118.25643" y="149.930727" style="fill: #1f77b4; stroke: #1f77b4"/>
     <use xlink:href="#me3ed29f747" x="114.55636" y="148.542467" style="fill: #1f77b4; stroke: #1f77b4"/>
     <use xlink:href="#me3ed29f747" x="119.325358" y="143.296097" style="fill: #1f77b4; stroke: #1f77b4"/>
     <use xlink:href="#me3ed29f747" x="119.131111" y="146.469211" style="fill: #1f77b4; stroke: #1f77b4"/>
     <use xlink:href="#me3ed29f747" x="123.224191" y="142.525325" style="fill: #1f77b4; stroke: #1f77b4"/>
     <use xlink:href="#me3ed29f747" x="121.133079" y="140.722844" style="fill: #1f77b4; stroke: #1f77b4"/>
     <use xlink:href="#me3ed29f747" x="122.877477" y="138.088079" style="fill: #1f77b4; stroke: #1f77b4"/>
     <use xlink:href="#me3ed29f747" x="122.831767" y="135.688657" style="fill: #1f77b4; stroke: #1f77b4"/>
     <use xlink:href="#me3ed29f747" x="126.85749" y="131.674752" style="fill: #1f77b4; stroke: #1f77b4"/>
     <use xlink:href="#me3ed29f747" x="126.873313" y="130.524757" style="fill: #1f77b4; stroke: #1f77b4"/>
     <use xlink:href="#me3ed29f747" x="123.459459" y="131.324709" style="fill: #1f77b4; stroke: #1f77b4"/>
     <use xlink:href="#me3ed29f747" x="125.29007" y="126.162653" style="fill: #1f77b4; stroke: #1f77b4"/>
     <use xlink:href="#me3ed29f747" x="130.190543" y="123.432377" style="fill: #1f77b4; stroke: #1f77b4"/>
     <use xlink:href="#me3ed29f747" x="129.810701" y="122.762522" style="fill: #1f77b4; stroke: #1f77b4"/>
     <use xlink:href="#me3ed29f747" x="127.996878" y="121.245856" style="fill: #1f77b4; stroke: #1f77b4"/>
     <use xlink:href="#me3ed29f747" x="131.861515" y="119.921799" style="fill: #1f77b4; stroke: #1f77b4"/>
     <use xlink:href="#me3ed29f747" x="131.942006" y="115.26886" style="fill: #1f77b4; stroke: #1f77b4"/>
     <use xlink:href="#me3ed29f747" x="134.774601" y="117.11948" style="fill: #1f77b4; stroke: #1f77b4"/>
     <use xlink:href="#me3ed29f747" x="133.792679" y="112.009587" style="fill: #1f77b4; stroke: #1f77b4"/>
     <use xlink:href="#me3ed29f747" x="136.941619" y="114.821257" style="fill: #1f77b4; stroke: #1f77b4"/>
     <use xlink:href="#me3ed29f747" x="140.432482" y="112.877995" style="fill: #1f77b4; stroke: #1f77b4"/>
     <use xlink:href="#me3ed29f747" x="139.880524" y="111.776984" style="fill: #1f77b4; stroke: #1f77b4"/>
     <use xlink:href="#me3ed29f747" x="140.074633" y="105.282648" style="fill: #1f77b4; stroke: #1f77b4"/>
     <use xlink:href="#me3ed29f747" x="145.669086" y="107.240487" style="fill: #1f77b4; stroke: #1f77b4"/>
     <use xlink:href="#me3ed29f747" x="141.335636" y="103.762472" style="fill: #1f77b4; stroke: #1f77b4"/>
     <use xlink:href="#me3ed29f747" x="142.381261" y="105.108741" style="fill: #1f77b4; stroke: #1f77b4"/>
     <use xlink:href="#me3ed29f747" x="146.899927" y="102.448586" style="fill: #1f77b4; stroke: #1f77b4"/>
     <use xlink:href="#me3ed29f747" x="145.932862" y="99.991981" style="fill: #1f77b4; stroke: #1f77b4"/>
     <use xlink:href="#me3ed29f747" x="146.064371" y="100.632937" style="fill: #1f77b4; stroke: #1f77b4"/>
     <use xlink:href="#me3ed29f747" x="150.348665" y="98.479567" style="fill: #1f77b4; stroke: #1f77b4"/>
     <use xlink:href="#me3ed29f747" x="150.877527" y="96.332757" style="fill: #1f77b4; stroke: #1f77b4"/>
     <use xlink:href="#me3ed29f747" x="150.284031" y="94.958434" style="fill: #1f77b4; stroke: #1f77b4"/>
     <use xlink:href="#me3ed29f747" x="153.442933" y="93.102408" style="fill: #1f77b4; stroke: #1f77b4"/>
     <use xlink:href="#me3ed29f747" x="154.779877" y="93.104329" style="fill: #1f77b4; stroke: #1f77b4"/>
     <use xlink:href="#me3ed29f747" x="158.325342" y="90.707188" style="fill: #1f77b4; stroke: #1f77b4"/>
     <use xlink:href="#me3ed29f747" x="159.906896" y="85.093609" style="fill: #1f77b4; stroke: #1f77b4"/>
     <use xlink:href="#me3ed29f747" x="163.077105" y="86.268481" style="fill: #1f77b4; stroke: #1f77b4"/>
     <use xlink:href="#me3ed29f747" x="159.393994" y="84.454933" style="fill: #1f77b4; stroke: #1f77b4"/>
     <use xlink:href="#me3ed29f747" x="160.660065" y="80.146349" style="fill: #1f77b4; stroke: #1f77b4"/>
     <use xlink:href="#me3ed29f747" x="160.533209" y="82.377244" style="fill: #1f77b4; stroke: #1f77b4"/>
     <use xlink:href="#me3ed29f747" x="168.884489" y="82.455077" style="fill: #1f77b4; stroke: #1f77b4"/>
     <use xlink:href="#me3ed29f747" x="166.796996" y="79.756903" style="fill: #1f77b4; stroke: #1f77b4"/>
     <use xlink:href="#me3ed29f747" x="171.159472" y="78.712025" style="fill: #1f77b4; stroke: #1f77b4"/>
     <use xlink:href="#me3ed29f747" x="169.615216" y="75.86751" style="fill: #1f77b4; stroke: #1f77b4"/>
     <use xlink:href="#me3ed29f747" x="172.54209" y="77.117679" style="fill: #1f77b4; stroke: #1f77b4"/>
     <use xlink:href="#me3ed29f747" x="169.934422" y="74.901413" style="fill: #1f77b4; stroke: #1f77b4"/>
     <use xlink:href="#me3ed29f747" x="176.377186" y="73.223368" style="fill: #1f77b4; stroke: #1f77b4"/>
     <use xlink:href="#me3ed29f747" x="174.454433" y="72.598911" style="fill: #1f77b4; stroke: #1f77b4"/>
     <use xlink:href="#me3ed29f747" x="180.108591" y="70.824971" style="fill: #1f77b4; stroke: #1f77b4"/>
     <use xlink:href="#me3ed29f747" x="178.368709" y="70.656213" style="fill: #1f77b4; stroke: #1f77b4"/>
     <use xlink:href="#me3ed29f747" x="178.490497" y="68.628381" style="fill: #1f77b4; stroke: #1f77b4"/>
     <use xlink:href="#me3ed29f747" x="184.203739" y="65.626304" style="fill: #1f77b4; stroke: #1f77b4"/>
     <use xlink:href="#me3ed29f747" x="182.993651" y="66.720833" style="fill: #1f77b4; stroke: #1f77b4"/>
     <use xlink:href="#me3ed29f747" x="187.814701" y="64.710986" style="fill: #1f77b4; stroke: #1f77b4"/>
     <use xlink:href="#me3ed29f747" x="189.933838" y="62.462336" style="fill: #1f77b4; stroke: #1f77b4"/>
     <use xlink:href="#me3ed29f747" x="187.429344" y="63.026356" style="fill: #1f77b4; stroke: #1f77b4"/>
     <use xlink:href="#me3ed29f747" x="190.798556" y="61.597258" style="fill: #1f77b4; stroke: #1f77b4"/>
     <use xlink:href="#me3ed29f747" x="190.267798" y="58.129542" style="fill: #1f77b4; stroke: #1f77b4"/>
     <use xlink:href="#me3ed29f747" x="194.131402" y="58.108944" style="fill: #1f77b4; stroke: #1f77b4"/>
     <use xlink:href="#me3ed29f747" x="196.336614" y="55.559492" style="fill: #1f77b4; stroke: #1f77b4"/>
     <use xlink:href="#me3ed29f747" x="198.713288" y="56.307257" style="fill: #1f77b4; stroke: #1f77b4"/>
    </g>
   </g>
   <g id="line2d_13">
    <path d="M 58.637581 271.57455 
L 58.058917 265.195345 
L 57.701587 258.685716 
L 57.582576 252.483514 
L 57.687275 246.149514 
L 58.001686 240.140569 
L 58.544128 233.998995 
L 59.266196 228.20266 
L 60.221848 222.274314 
L 61.435561 216.203238 
L 62.799728 210.502607 
L 64.432152 204.662138 
L 66.175784 199.22224 
L 68.196024 193.649306 
L 70.278493 188.512517 
L 72.641182 183.254039 
L 75.317978 177.86726 
L 77.993094 172.966213 
L 80.980426 167.954891 
L 84.31788 162.830155 
L 87.559847 158.251455 
L 91.137576 153.584356 
L 95.090035 148.83032 
L 98.809753 144.688904 
L 102.869272 140.490188 
L 107.304296 136.240193 
L 112.154824 131.947604 
L 116.546436 128.346524 
L 121.28611 124.733488 
L 126.404982 121.12037 
L 131.936842 117.522211 
L 136.684082 114.666999 
L 141.73874 111.845144 
L 147.121604 109.070653 
L 152.854268 106.360107 
L 158.95891 103.733064 
L 165.457965 101.212496 
L 172.373675 98.825274 
L 177.846831 97.141003 
L 183.574932 95.564236 
L 189.565715 94.111667 
L 195.825874 92.801808 
L 202.360716 91.655103 
L 209.173745 90.694024 
L 216.266187 89.943137 
L 223.636441 89.42914 
L 231.279452 89.180833 
L 239.186014 89.22903 
L 244.596727 89.44194 
L 250.112852 89.811175 
L 255.727581 90.347059 
L 261.432748 91.060102 
L 267.218718 91.960921 
L 273.074274 93.060147 
L 278.986519 94.368308 
L 284.940781 95.8957 
L 290.920538 97.652239 
L 296.907353 99.647293 
L 302.880851 101.889499 
L 308.818705 104.386564 
L 314.696678 107.14505 
L 320.488688 110.170151 
L 326.166935 113.465466 
L 331.702072 117.032763 
L 337.063429 120.871759 
L 342.219296 124.979907 
L 347.137269 129.352205 
L 351.784637 133.98104 
L 356.128834 138.856059 
L 360.137924 143.964104 
L 363.78112 149.289189 
L 365.456336 152.027362 
L 367.02933 154.812543 
L 368.496819 157.64197 
L 369.855695 160.512722 
L 371.103036 163.421732 
L 372.236127 166.365788 
L 373.252471 169.341551 
L 374.149808 172.345556 
L 374.926118 175.374232 
L 375.579644 178.423906 
L 376.108894 181.490822 
L 376.512652 184.571153 
L 376.78999 187.661013 
L 376.940265 190.756473 
L 376.963131 193.853576 
L 376.858537 196.948352 
L 376.626732 200.036836 
L 376.268258 203.115076 
L 375.783952 206.179158 
L 375.174942 209.225214 
L 374.442635 212.249437 
L 373.588719 215.248101 
L 372.615145 218.217566 
L 371.524122 221.154298 
L 370.318101 224.054878 
L 368.999766 226.916012 
L 367.572019 229.734546 
L 366.037962 232.507469 
L 364.400886 235.231926 
L 360.831665 240.524835 
L 356.893769 245.593764 
L 352.618502 250.42202 
L 348.038511 254.9958 
L 343.187235 259.304193 
L 338.098393 263.339131 
L 332.805506 267.095279 
L 327.341467 270.569885 
L 321.738169 273.762592 
L 316.026191 276.675228 
L 310.234539 279.311573 
L 304.39045 281.677122 
L 298.519248 283.778844 
L 292.644255 285.624941 
L 286.786744 287.224626 
L 280.965931 288.587902 
L 275.199005 289.72537 
L 269.501187 290.648042 
L 263.885803 291.367183 
L 258.364384 291.894166 
L 252.946774 292.240352 
L 247.641243 292.416977 
L 242.454612 292.435074 
L 234.90928 292.188402 
L 227.65711 291.643954 
L 220.706436 290.834516 
L 214.061199 289.790658 
L 207.721699 288.540636 
L 201.685276 287.110371 
L 195.94691 285.523489 
L 190.499736 283.801401 
L 185.335489 281.963415 
L 180.444879 280.026863 
L 175.817901 278.007242 
L 170.040572 275.20883 
L 164.687904 272.315616 
L 159.734401 269.3518 
L 155.154971 266.337818 
L 150.925285 263.290845 
L 147.022015 260.225238 
L 143.422991 257.15294 
L 139.3203 253.318034 
L 135.622333 249.503482 
L 132.294143 245.721278 
L 129.303795 241.980574 
L 126.622213 238.288221 
L 124.222988 234.64922 
L 121.683088 230.357708 
L 119.478333 226.151894 
L 117.575827 222.03378 
L 115.946408 218.00396 
L 114.564225 214.061982 
L 113.233711 209.572373 
L 112.176573 205.197789 
L 111.364893 200.934698 
L 110.706692 196.194046 
L 110.305793 191.587623 
L 110.135039 187.10907 
L 110.188973 182.215689 
L 110.475945 177.467431 
L 110.971496 172.855966 
L 111.741352 167.88301 
L 112.718376 163.059193 
L 113.881714 158.375245 
L 115.355411 153.374317 
L 117.012876 148.522039 
L 119.010532 143.387254 
L 121.187648 138.407432 
L 123.730212 133.176269 
L 126.447425 128.104647 
L 129.324686 123.182883 
L 132.588016 118.040318 
L 136.009245 113.052229 
L 139.837164 107.869909 
L 143.821262 102.846586 
L 148.231457 97.654938 
L 152.79667 92.62728 
L 157.507416 87.756575 
L 162.662729 82.746627 
L 167.96407 77.900695 
L 173.727663 72.942468 
L 179.637715 68.156542 
L 185.686605 63.538215 
L 192.214474 58.840716 
L 198.881707 54.321482 
L 199.591337 53.856 
L 199.591337 53.856 
" clip-path="url(#p6a2f2d7951)" style="fill: none; stroke: #d62728; stroke-width: 1.5; stroke-linecap: square"/>
   </g>
   <g id="patch_3">
    <path d="M 37.848438 307.872 
L 37.848438 41.76 
" style="fill: none; stroke: #000000; stroke-width: 0.8; stroke-linejoin: miter; stroke-linecap: square"/>
   </g>
   <g id="patch_4">
    <path d="M 394.968438 307.872 
L 394.968438 41.76 
" style="fill: none; stroke: #000000; stroke-width: 0.8; stroke-linejoin: miter; stroke-linecap: square"/>
   </g>
   <g id="patch_5">
    <path d="M 37.848437 307.872 
L 394.968438 307.872 
" style="fill: none; stroke: #000000; stroke-width: 0.8; stroke-linejoin: miter; stroke-linecap: square"/>
   </g>
   <g id="patch_6">
    <path d="M 37.848437 41.76 
L 394.968438 41.76 
" style="fill: none; stroke: #000000; stroke-width: 0.8; stroke-linejoin: miter; stroke-linecap: square"/>
   </g>
   <g id="text_14">
    <g id="patch_7">
     <path d="M 412.824438 102.337163 
L 558.624438 102.337163 
Q 562.624438 102.337163 562.624438 98.337163 
L 562.624438 55.0656 
Q 562.624438 51.0656 558.624438 51.0656 
L 412.824438 51.0656 
Q 408.824438 51.0656 408.824438 55.0656 
L 408.824438 98.337163 
Q 408.824438 102.337163 412.824438 102.337163 
z
" style="fill: #ffffff; opacity: 0.5; stroke: #000000; stroke-linejoin: miter"/>
    </g>
    <!-- Summary -->
    <g transform="translate(412.824438 62.664038) scale(0.1 -0.1)">
     <defs>
      <path id="DejaVuSans-53" d="M 3425 4513 
L 3425 3897 
Q 3066 4069 2747 4153 
Q 2428 4238 2131 4238 
Q 1616 4238 1336 4038 
Q 1056 3838 1056 3469 
Q 1056 3159 1242 3001 
Q 1428 2844 1947 2747 
L 2328 2669 
Q 3034 2534 3370 2195 
Q 3706 1856 3706 1288 
Q 3706 609 3251 259 
Q 2797 -91 1919 -91 
Q 1588 -91 1214 -16 
Q 841 59 441 206 
L 441 856 
Q 825 641 1194 531 
Q 1563 422 1919 422 
Q 2459 422 2753 634 
Q 3047 847 3047 1241 
Q 3047 1584 2836 1778 
Q 2625 1972 2144 2069 
L 1759 2144 
Q 1053 2284 737 2584 
Q 422 2884 422 3419 
Q 422 4038 858 4394 
Q 1294 4750 2059 4750 
Q 2388 4750 2728 4690 
Q 3069 4631 3425 4513 
z
" transform="scale(0.015625)"/>
      <path id="DejaVuSans-75" d="M 544 1381 
L 544 3500 
L 1119 3500 
L 1119 1403 
Q 1119 906 1312 657 
Q 1506 409 1894 409 
Q 2359 409 2629 706 
Q 2900 1003 2900 1516 
L 2900 3500 
L 3475 3500 
L 3475 0 
L 2900 0 
L 2900 538 
Q 2691 219 2414 64 
Q 2138 -91 1772 -91 
Q 1169 -91 856 284 
Q 544 659 544 1381 
z
M 1991 3584 
L 1991 3584 
z
" transform="scale(0.015625)"/>
      <path id="DejaVuSans-61" d="M 2194 1759 
Q 1497 1759 1228 1600 
Q 959 1441 959 1056 
Q 959 750 1161 570 
Q 1363 391 1709 391 
Q 2188 391 2477 730 
Q 2766 1069 2766 1631 
L 2766 1759 
L 2194 1759 
z
M 3341 1997 
L 3341 0 
L 2766 0 
L 2766 531 
Q 2569 213 2275 61 
Q 1981 -91 1556 -91 
Q 1019 -91 701 211 
Q 384 513 384 1019 
Q 384 1609 779 1909 
Q 1175 2209 1959 2209 
L 2766 2209 
L 2766 2266 
Q 2766 2663 2505 2880 
Q 2244 3097 1772 3097 
Q 1472 3097 1187 3025 
Q 903 2953 641 2809 
L 641 3341 
Q 956 3463 1253 3523 
Q 1550 3584 1831 3584 
Q 2591 3584 2966 3190 
Q 3341 2797 3341 1997 
z
" transform="scale(0.015625)"/>
      <path id="DejaVuSans-72" d="M 2631 2963 
Q 2534 3019 2420 3045 
Q 2306 3072 2169 3072 
Q 1681 3072 1420 2755 
Q 1159 2438 1159 1844 
L 1159 0 
L 581 0 
L 581 3500 
L 1159 3500 
L 1159 2956 
Q 1341 3275 1631 3429 
Q 1922 3584 2338 3584 
Q 2397 3584 2469 3576 
Q 2541 3569 2628 3553 
L 2631 2963 
z
" transform="scale(0.015625)"/>
      <path id="DejaVuSans-79" d="M 2059 -325 
Q 1816 -950 1584 -1140 
Q 1353 -1331 966 -1331 
L 506 -1331 
L 506 -850 
L 844 -850 
Q 1081 -850 1212 -737 
Q 1344 -625 1503 -206 
L 1606 56 
L 191 3500 
L 800 3500 
L 1894 763 
L 2988 3500 
L 3597 3500 
L 2059 -325 
z
" transform="scale(0.015625)"/>
     </defs>
     <use xlink:href="#DejaVuSans-53"/>
     <use xlink:href="#DejaVuSans-75" x="63.476562"/>
     <use xlink:href="#DejaVuSans-6d" x="126.855469"/>
     <use xlink:href="#DejaVuSans-6d" x="224.267578"/>
     <use xlink:href="#DejaVuSans-61" x="321.679688"/>
     <use xlink:href="#DejaVuSans-72" x="382.958984"/>
     <use xlink:href="#DejaVuSans-79" x="424.072266"/>
    </g>
    <!-- $Q_I$: 18.11$\pm$0.31 k -->
    <g transform="translate(412.824438 73.86185) scale(0.1 -0.1)">
     <defs>
      <path id="DejaVuSans-Oblique-51" d="M 2309 -84 
Q 2275 -88 2237 -89 
Q 2200 -91 2125 -91 
Q 1250 -91 756 411 
Q 263 913 263 1797 
Q 263 2319 452 2844 
Q 641 3369 978 3788 
Q 1369 4269 1858 4509 
Q 2347 4750 2938 4750 
Q 3794 4750 4287 4245 
Q 4781 3741 4781 2869 
Q 4781 1928 4265 1147 
Q 3750 366 2919 44 
L 3553 -825 
L 2847 -825 
L 2309 -84 
z
M 2919 4238 
Q 2400 4238 2003 3986 
Q 1606 3734 1313 3219 
Q 1125 2891 1026 2522 
Q 928 2153 928 1778 
Q 928 1128 1239 775 
Q 1550 422 2119 422 
Q 2631 422 3032 676 
Q 3434 931 3719 1434 
Q 3909 1772 4009 2142 
Q 4109 2513 4109 2881 
Q 4109 3528 3796 3883 
Q 3484 4238 2919 4238 
z
" transform="scale(0.015625)"/>
      <path id="DejaVuSans-Oblique-49" d="M 1081 4666 
L 1716 4666 
L 806 0 
L 172 0 
L 1081 4666 
z
" transform="scale(0.015625)"/>
      <path id="DejaVuSans-3a" d="M 750 794 
L 1409 794 
L 1409 0 
L 750 0 
L 750 794 
z
M 750 3309 
L 1409 3309 
L 1409 2516 
L 750 2516 
L 750 3309 
z
" transform="scale(0.015625)"/>
      <path id="DejaVuSans-2e" d="M 684 794 
L 1344 794 
L 1344 0 
L 684 0 
L 684 794 
z
" transform="scale(0.015625)"/>
      <path id="DejaVuSans-b1" d="M 2944 4013 
L 2944 2803 
L 4684 2803 
L 4684 2272 
L 2944 2272 
L 2944 1063 
L 2419 1063 
L 2419 2272 
L 678 2272 
L 678 2803 
L 2419 2803 
L 2419 4013 
L 2944 4013 
z
M 678 531 
L 4684 531 
L 4684 0 
L 678 0 
L 678 531 
z
" transform="scale(0.015625)"/>
      <path id="DejaVuSans-33" d="M 2597 2516 
Q 3050 2419 3304 2112 
Q 3559 1806 3559 1356 
Q 3559 666 3084 287 
Q 2609 -91 1734 -91 
Q 1441 -91 1130 -33 
Q 819 25 488 141 
L 488 750 
Q 750 597 1062 519 
Q 1375 441 1716 441 
Q 2309 441 2620 675 
Q 2931 909 2931 1356 
Q 2931 1769 2642 2001 
Q 2353 2234 1838 2234 
L 1294 2234 
L 1294 2753 
L 1863 2753 
Q 2328 2753 2575 2939 
Q 2822 3125 2822 3475 
Q 2822 3834 2567 4026 
Q 2313 4219 1838 4219 
Q 1578 4219 1281 4162 
Q 984 4106 628 3988 
L 628 4550 
Q 988 4650 1302 4700 
Q 1616 4750 1894 4750 
Q 2613 4750 3031 4423 
Q 3450 4097 3450 3541 
Q 3450 3153 3228 2886 
Q 3006 2619 2597 2516 
z
" transform="scale(0.015625)"/>
      <path id="DejaVuSans-6b" d="M 581 4863 
L 1159 4863 
L 1159 1991 
L 2875 3500 
L 3609 3500 
L 1753 1863 
L 3688 0 
L 2938 0 
L 1159 1709 
L 1159 0 
L 581 0 
L 581 4863 
z
" transform="scale(0.015625)"/>
     </defs>
     <use xlink:href="#DejaVuSans-Oblique-51" transform="translate(0 0.015625)"/>
     <use xlink:href="#DejaVuSans-Oblique-49" transform="translate(78.710938 -16.390625) scale(0.7)"/>
     <use xlink:href="#DejaVuSans-3a" transform="translate(102.089844 0.015625)"/>
     <use xlink:href="#DejaVuSans-20" transform="translate(135.78125 0.015625)"/>
     <use xlink:href="#DejaVuSans-31" transform="translate(167.568359 0.015625)"/>
     <use xlink:href="#DejaVuSans-38" transform="translate(231.191406 0.015625)"/>
     <use xlink:href="#DejaVuSans-2e" transform="translate(294.814453 0.015625)"/>
     <use xlink:href="#DejaVuSans-31" transform="translate(326.601562 0.015625)"/>
     <use xlink:href="#DejaVuSans-31" transform="translate(390.224609 0.015625)"/>
     <use xlink:href="#DejaVuSans-b1" transform="translate(453.847656 0.015625)"/>
     <use xlink:href="#DejaVuSans-30" transform="translate(537.636719 0.015625)"/>
     <use xlink:href="#DejaVuSans-2e" transform="translate(601.259766 0.015625)"/>
     <use xlink:href="#DejaVuSans-33" transform="translate(633.046875 0.015625)"/>
     <use xlink:href="#DejaVuSans-31" transform="translate(696.669922 0.015625)"/>
     <use xlink:href="#DejaVuSans-20" transform="translate(760.292969 0.015625)"/>
     <use xlink:href="#DejaVuSans-6b" transform="translate(792.080078 0.015625)"/>
    </g>
    <!-- $Q_C$: 3.290$\pm$0.012 k -->
    <g transform="translate(412.824438 85.059663) scale(0.1 -0.1)">
     <defs>
      <path id="DejaVuSans-Oblique-43" d="M 4447 4306 
L 4319 3641 
Q 4019 3944 3683 4091 
Q 3347 4238 2956 4238 
Q 2422 4238 2017 3981 
Q 1613 3725 1319 3200 
Q 1131 2863 1032 2486 
Q 934 2109 934 1728 
Q 934 1091 1264 756 
Q 1594 422 2222 422 
Q 2656 422 3056 561 
Q 3456 700 3834 978 
L 3688 231 
Q 3316 72 2936 -9 
Q 2556 -91 2175 -91 
Q 1278 -91 773 396 
Q 269 884 269 1753 
Q 269 2309 461 2846 
Q 653 3384 1013 3828 
Q 1394 4300 1883 4525 
Q 2372 4750 3022 4750 
Q 3422 4750 3780 4639 
Q 4138 4528 4447 4306 
z
" transform="scale(0.015625)"/>
      <path id="DejaVuSans-39" d="M 703 97 
L 703 672 
Q 941 559 1184 500 
Q 1428 441 1663 441 
Q 2288 441 2617 861 
Q 2947 1281 2994 2138 
Q 2813 1869 2534 1725 
Q 2256 1581 1919 1581 
Q 1219 1581 811 2004 
Q 403 2428 403 3163 
Q 403 3881 828 4315 
Q 1253 4750 1959 4750 
Q 2769 4750 3195 4129 
Q 3622 3509 3622 2328 
Q 3622 1225 3098 567 
Q 2575 -91 1691 -91 
Q 1453 -91 1209 -44 
Q 966 3 703 97 
z
M 1959 2075 
Q 2384 2075 2632 2365 
Q 2881 2656 2881 3163 
Q 2881 3666 2632 3958 
Q 2384 4250 1959 4250 
Q 1534 4250 1286 3958 
Q 1038 3666 1038 3163 
Q 1038 2656 1286 2365 
Q 1534 2075 1959 2075 
z
" transform="scale(0.015625)"/>
     </defs>
     <use xlink:href="#DejaVuSans-Oblique-51" transform="translate(0 0.015625)"/>
     <use xlink:href="#DejaVuSans-Oblique-43" transform="translate(78.710938 -16.390625) scale(0.7)"/>
     <use xlink:href="#DejaVuSans-3a" transform="translate(130.322266 0.015625)"/>
     <use xlink:href="#DejaVuSans-20" transform="translate(164.013672 0.015625)"/>
     <use xlink:href="#DejaVuSans-33" transform="translate(195.800781 0.015625)"/>
     <use xlink:href="#DejaVuSans-2e" transform="translate(259.423828 0.015625)"/>
     <use xlink:href="#DejaVuSans-32" transform="translate(285.710938 0.015625)"/>
     <use xlink:href="#DejaVuSans-39" transform="translate(347.583984 0.015625)"/>
     <use xlink:href="#DejaVuSans-30" transform="translate(411.207031 0.015625)"/>
     <use xlink:href="#DejaVuSans-b1" transform="translate(474.830078 0.015625)"/>
     <use xlink:href="#DejaVuSans-30" transform="translate(558.619141 0.015625)"/>
     <use xlink:href="#DejaVuSans-2e" transform="translate(622.242188 0.015625)"/>
     <use xlink:href="#DejaVuSans-30" transform="translate(654.029297 0.015625)"/>
     <use xlink:href="#DejaVuSans-31" transform="translate(717.652344 0.015625)"/>
     <use xlink:href="#DejaVuSans-32" transform="translate(781.275391 0.015625)"/>
     <use xlink:href="#DejaVuSans-20" transform="translate(844.898438 0.015625)"/>
     <use xlink:href="#DejaVuSans-6b" transform="translate(876.685547 0.015625)"/>
    </g>
    <!-- $f_{res}$: 6.0079685$\pm$5.0e-06 GHz -->
    <g transform="translate(412.824438 96.257475) scale(0.1 -0.1)">
     <defs>
      <path id="DejaVuSans-Oblique-66" d="M 3059 4863 
L 2969 4384 
L 2419 4384 
Q 2106 4384 1964 4261 
Q 1822 4138 1753 3809 
L 1691 3500 
L 2638 3500 
L 2553 3053 
L 1606 3053 
L 1013 0 
L 434 0 
L 1031 3053 
L 481 3053 
L 563 3500 
L 1113 3500 
L 1159 3744 
Q 1278 4363 1576 4613 
Q 1875 4863 2516 4863 
L 3059 4863 
z
" transform="scale(0.015625)"/>
      <path id="DejaVuSans-Oblique-72" d="M 2853 2969 
Q 2766 3016 2653 3041 
Q 2541 3066 2413 3066 
Q 1953 3066 1609 2717 
Q 1266 2369 1153 1784 
L 800 0 
L 225 0 
L 909 3500 
L 1484 3500 
L 1375 2956 
Q 1603 3259 1920 3421 
Q 2238 3584 2597 3584 
Q 2691 3584 2781 3573 
Q 2872 3563 2963 3538 
L 2853 2969 
z
" transform="scale(0.015625)"/>
      <path id="DejaVuSans-Oblique-65" d="M 3078 2063 
Q 3088 2113 3092 2166 
Q 3097 2219 3097 2272 
Q 3097 2653 2873 2875 
Q 2650 3097 2266 3097 
Q 1838 3097 1509 2826 
Q 1181 2556 1013 2059 
L 3078 2063 
z
M 3578 1613 
L 903 1613 
Q 884 1494 878 1425 
Q 872 1356 872 1306 
Q 872 872 1139 634 
Q 1406 397 1894 397 
Q 2269 397 2603 481 
Q 2938 566 3225 728 
L 3116 159 
Q 2806 34 2476 -28 
Q 2147 -91 1806 -91 
Q 1078 -91 686 257 
Q 294 606 294 1247 
Q 294 1794 489 2264 
Q 684 2734 1063 3103 
Q 1306 3334 1642 3459 
Q 1978 3584 2356 3584 
Q 2950 3584 3301 3228 
Q 3653 2872 3653 2272 
Q 3653 2128 3634 1964 
Q 3616 1800 3578 1613 
z
" transform="scale(0.015625)"/>
      <path id="DejaVuSans-Oblique-73" d="M 3200 3397 
L 3091 2853 
Q 2863 2978 2609 3040 
Q 2356 3103 2088 3103 
Q 1634 3103 1373 2948 
Q 1113 2794 1113 2528 
Q 1113 2219 1719 2053 
Q 1766 2041 1788 2034 
L 1972 1978 
Q 2547 1819 2739 1644 
Q 2931 1469 2931 1166 
Q 2931 609 2489 259 
Q 2047 -91 1331 -91 
Q 1053 -91 747 -37 
Q 441 16 72 128 
L 184 722 
Q 500 559 806 475 
Q 1113 391 1394 391 
Q 1816 391 2080 572 
Q 2344 753 2344 1031 
Q 2344 1331 1650 1516 
L 1591 1531 
L 1394 1581 
Q 956 1697 753 1886 
Q 550 2075 550 2369 
Q 550 2928 970 3256 
Q 1391 3584 2113 3584 
Q 2397 3584 2667 3537 
Q 2938 3491 3200 3397 
z
" transform="scale(0.015625)"/>
      <path id="DejaVuSans-37" d="M 525 4666 
L 3525 4666 
L 3525 4397 
L 1831 0 
L 1172 0 
L 2766 4134 
L 525 4134 
L 525 4666 
z
" transform="scale(0.015625)"/>
      <path id="DejaVuSans-35" d="M 691 4666 
L 3169 4666 
L 3169 4134 
L 1269 4134 
L 1269 2991 
Q 1406 3038 1543 3061 
Q 1681 3084 1819 3084 
Q 2600 3084 3056 2656 
Q 3513 2228 3513 1497 
Q 3513 744 3044 326 
Q 2575 -91 1722 -91 
Q 1428 -91 1123 -41 
Q 819 9 494 109 
L 494 744 
Q 775 591 1075 516 
Q 1375 441 1709 441 
Q 2250 441 2565 725 
Q 2881 1009 2881 1497 
Q 2881 1984 2565 2268 
Q 2250 2553 1709 2553 
Q 1456 2553 1204 2497 
Q 953 2441 691 2322 
L 691 4666 
z
" transform="scale(0.015625)"/>
      <path id="DejaVuSans-47" d="M 3809 666 
L 3809 1919 
L 2778 1919 
L 2778 2438 
L 4434 2438 
L 4434 434 
Q 4069 175 3628 42 
Q 3188 -91 2688 -91 
Q 1594 -91 976 548 
Q 359 1188 359 2328 
Q 359 3472 976 4111 
Q 1594 4750 2688 4750 
Q 3144 4750 3555 4637 
Q 3966 4525 4313 4306 
L 4313 3634 
Q 3963 3931 3569 4081 
Q 3175 4231 2741 4231 
Q 1884 4231 1454 3753 
Q 1025 3275 1025 2328 
Q 1025 1384 1454 906 
Q 1884 428 2741 428 
Q 3075 428 3337 486 
Q 3600 544 3809 666 
z
" transform="scale(0.015625)"/>
      <path id="DejaVuSans-48" d="M 628 4666 
L 1259 4666 
L 1259 2753 
L 3553 2753 
L 3553 4666 
L 4184 4666 
L 4184 0 
L 3553 0 
L 3553 2222 
L 1259 2222 
L 1259 0 
L 628 0 
L 628 4666 
z
" transform="scale(0.015625)"/>
      <path id="DejaVuSans-7a" d="M 353 3500 
L 3084 3500 
L 3084 2975 
L 922 459 
L 3084 459 
L 3084 0 
L 275 0 
L 275 525 
L 2438 3041 
L 353 3041 
L 353 3500 
z
" transform="scale(0.015625)"/>
     </defs>
     <use xlink:href="#DejaVuSans-Oblique-66" transform="translate(0 0.015625)"/>
     <use xlink:href="#DejaVuSans-Oblique-72" transform="translate(35.205078 -16.390625) scale(0.7)"/>
     <use xlink:href="#DejaVuSans-Oblique-65" transform="translate(63.984375 -16.390625) scale(0.7)"/>
     <use xlink:href="#DejaVuSans-Oblique-73" transform="translate(107.050781 -16.390625) scale(0.7)"/>
     <use xlink:href="#DejaVuSans-3a" transform="translate(146.254883 0.015625)"/>
     <use xlink:href="#DejaVuSans-20" transform="translate(179.946289 0.015625)"/>
     <use xlink:href="#DejaVuSans-36" transform="translate(211.733398 0.015625)"/>
     <use xlink:href="#DejaVuSans-2e" transform="translate(275.356445 0.015625)"/>
     <use xlink:href="#DejaVuSans-30" transform="translate(307.143555 0.015625)"/>
     <use xlink:href="#DejaVuSans-30" transform="translate(370.766602 0.015625)"/>
     <use xlink:href="#DejaVuSans-37" transform="translate(434.389648 0.015625)"/>
     <use xlink:href="#DejaVuSans-39" transform="translate(498.012695 0.015625)"/>
     <use xlink:href="#DejaVuSans-36" transform="translate(561.635742 0.015625)"/>
     <use xlink:href="#DejaVuSans-38" transform="translate(625.258789 0.015625)"/>
     <use xlink:href="#DejaVuSans-35" transform="translate(688.881836 0.015625)"/>
     <use xlink:href="#DejaVuSans-b1" transform="translate(752.504883 0.015625)"/>
     <use xlink:href="#DejaVuSans-35" transform="translate(836.293945 0.015625)"/>
     <use xlink:href="#DejaVuSans-2e" transform="translate(899.916992 0.015625)"/>
     <use xlink:href="#DejaVuSans-30" transform="translate(931.704102 0.015625)"/>
     <use xlink:href="#DejaVuSans-65" transform="translate(995.327148 0.015625)"/>
     <use xlink:href="#DejaVuSans-2d" transform="translate(1056.850586 0.015625)"/>
     <use xlink:href="#DejaVuSans-30" transform="translate(1092.93457 0.015625)"/>
     <use xlink:href="#DejaVuSans-36" transform="translate(1156.557617 0.015625)"/>
     <use xlink:href="#DejaVuSans-20" transform="translate(1220.180664 0.015625)"/>
     <use xlink:href="#DejaVuSans-47" transform="translate(1251.967773 0.015625)"/>
     <use xlink:href="#DejaVuSans-48" transform="translate(1329.458008 0.015625)"/>
     <use xlink:href="#DejaVuSans-7a" transform="translate(1404.65332 0.015625)"/>
    </g>
   </g>
  </g>
  <g id="text_15">
   <!-- S21 resonator spectroscopy -->
   <g transform="translate(126.864063 16.318125) scale(0.12 -0.12)">
    <defs>
     <path id="DejaVuSans-73" d="M 2834 3397 
L 2834 2853 
Q 2591 2978 2328 3040 
Q 2066 3103 1784 3103 
Q 1356 3103 1142 2972 
Q 928 2841 928 2578 
Q 928 2378 1081 2264 
Q 1234 2150 1697 2047 
L 1894 2003 
Q 2506 1872 2764 1633 
Q 3022 1394 3022 966 
Q 3022 478 2636 193 
Q 2250 -91 1575 -91 
Q 1294 -91 989 -36 
Q 684 19 347 128 
L 347 722 
Q 666 556 975 473 
Q 1284 391 1588 391 
Q 1994 391 2212 530 
Q 2431 669 2431 922 
Q 2431 1156 2273 1281 
Q 2116 1406 1581 1522 
L 1381 1569 
Q 847 1681 609 1914 
Q 372 2147 372 2553 
Q 372 3047 722 3315 
Q 1072 3584 1716 3584 
Q 2034 3584 2315 3537 
Q 2597 3491 2834 3397 
z
" transform="scale(0.015625)"/>
     <path id="DejaVuSans-6f" d="M 1959 3097 
Q 1497 3097 1228 2736 
Q 959 2375 959 1747 
Q 959 1119 1226 758 
Q 1494 397 1959 397 
Q 2419 397 2687 759 
Q 2956 1122 2956 1747 
Q 2956 2369 2687 2733 
Q 2419 3097 1959 3097 
z
M 1959 3584 
Q 2709 3584 3137 3096 
Q 3566 2609 3566 1747 
Q 3566 888 3137 398 
Q 2709 -91 1959 -91 
Q 1206 -91 779 398 
Q 353 888 353 1747 
Q 353 2609 779 3096 
Q 1206 3584 1959 3584 
z
" transform="scale(0.015625)"/>
     <path id="DejaVuSans-6e" d="M 3513 2113 
L 3513 0 
L 2938 0 
L 2938 2094 
Q 2938 2591 2744 2837 
Q 2550 3084 2163 3084 
Q 1697 3084 1428 2787 
Q 1159 2491 1159 1978 
L 1159 0 
L 581 0 
L 581 3500 
L 1159 3500 
L 1159 2956 
Q 1366 3272 1645 3428 
Q 1925 3584 2291 3584 
Q 2894 3584 3203 3211 
Q 3513 2838 3513 2113 
z
" transform="scale(0.015625)"/>
     <path id="DejaVuSans-74" d="M 1172 4494 
L 1172 3500 
L 2356 3500 
L 2356 3053 
L 1172 3053 
L 1172 1153 
Q 1172 725 1289 603 
Q 1406 481 1766 481 
L 2356 481 
L 2356 0 
L 1766 0 
Q 1100 0 847 248 
Q 594 497 594 1153 
L 594 3053 
L 172 3053 
L 172 3500 
L 594 3500 
L 594 4494 
L 1172 4494 
z
" transform="scale(0.015625)"/>
     <path id="DejaVuSans-70" d="M 1159 525 
L 1159 -1331 
L 581 -1331 
L 581 3500 
L 1159 3500 
L 1159 2969 
Q 1341 3281 1617 3432 
Q 1894 3584 2278 3584 
Q 2916 3584 3314 3078 
Q 3713 2572 3713 1747 
Q 3713 922 3314 415 
Q 2916 -91 2278 -91 
Q 1894 -91 1617 61 
Q 1341 213 1159 525 
z
M 3116 1747 
Q 3116 2381 2855 2742 
Q 2594 3103 2138 3103 
Q 1681 3103 1420 2742 
Q 1159 2381 1159 1747 
Q 1159 1113 1420 752 
Q 1681 391 2138 391 
Q 2594 391 2855 752 
Q 3116 1113 3116 1747 
z
" transform="scale(0.015625)"/>
     <path id="DejaVuSans-63" d="M 3122 3366 
L 3122 2828 
Q 2878 2963 2633 3030 
Q 2388 3097 2138 3097 
Q 1578 3097 1268 2742 
Q 959 2388 959 1747 
Q 959 1106 1268 751 
Q 1578 397 2138 397 
Q 2388 397 2633 464 
Q 2878 531 3122 666 
L 3122 134 
Q 2881 22 2623 -34 
Q 2366 -91 2075 -91 
Q 1284 -91 818 406 
Q 353 903 353 1747 
Q 353 2603 823 3093 
Q 1294 3584 2113 3584 
Q 2378 3584 2631 3529 
Q 2884 3475 3122 3366 
z
" transform="scale(0.015625)"/>
    </defs>
    <use xlink:href="#DejaVuSans-53"/>
    <use xlink:href="#DejaVuSans-32" x="63.476562"/>
    <use xlink:href="#DejaVuSans-31" x="127.099609"/>
    <use xlink:href="#DejaVuSans-20" x="190.722656"/>
    <use xlink:href="#DejaVuSans-72" x="222.509766"/>
    <use xlink:href="#DejaVuSans-65" x="261.373047"/>
    <use xlink:href="#DejaVuSans-73" x="322.896484"/>
    <use xlink:href="#DejaVuSans-6f" x="374.996094"/>
    <use xlink:href="#DejaVuSans-6e" x="436.177734"/>
    <use xlink:href="#DejaVuSans-61" x="499.556641"/>
    <use xlink:href="#DejaVuSans-74" x="560.835938"/>
    <use xlink:href="#DejaVuSans-6f" x="600.044922"/>
    <use xlink:href="#DejaVuSans-72" x="661.226562"/>
    <use xlink:href="#DejaVuSans-20" x="702.339844"/>
    <use xlink:href="#DejaVuSans-73" x="734.126953"/>
    <use xlink:href="#DejaVuSans-70" x="786.226562"/>
    <use xlink:href="#DejaVuSans-65" x="849.703125"/>
    <use xlink:href="#DejaVuSans-63" x="911.226562"/>
    <use xlink:href="#DejaVuSans-74" x="966.207031"/>
    <use xlink:href="#DejaVuSans-72" x="1005.416016"/>
    <use xlink:href="#DejaVuSans-6f" x="1044.279297"/>
    <use xlink:href="#DejaVuSans-73" x="1105.460938"/>
    <use xlink:href="#DejaVuSans-63" x="1157.560547"/>
    <use xlink:href="#DejaVuSans-6f" x="1212.541016"/>
    <use xlink:href="#DejaVuSans-70" x="1273.722656"/>
    <use xlink:href="#DejaVuSans-79" x="1337.199219"/>
   </g>
   <!-- tuid: 20231227-131227-522-e118e8 -->
   <g transform="translate(101.044375 29.7555) scale(0.12 -0.12)">
    <defs>
     <path id="DejaVuSans-69" d="M 603 3500 
L 1178 3500 
L 1178 0 
L 603 0 
L 603 3500 
z
M 603 4863 
L 1178 4863 
L 1178 4134 
L 603 4134 
L 603 4863 
z
" transform="scale(0.015625)"/>
     <path id="DejaVuSans-64" d="M 2906 2969 
L 2906 4863 
L 3481 4863 
L 3481 0 
L 2906 0 
L 2906 525 
Q 2725 213 2448 61 
Q 2172 -91 1784 -91 
Q 1150 -91 751 415 
Q 353 922 353 1747 
Q 353 2572 751 3078 
Q 1150 3584 1784 3584 
Q 2172 3584 2448 3432 
Q 2725 3281 2906 2969 
z
M 947 1747 
Q 947 1113 1208 752 
Q 1469 391 1925 391 
Q 2381 391 2643 752 
Q 2906 1113 2906 1747 
Q 2906 2381 2643 2742 
Q 2381 3103 1925 3103 
Q 1469 3103 1208 2742 
Q 947 2381 947 1747 
z
" transform="scale(0.015625)"/>
    </defs>
    <use xlink:href="#DejaVuSans-74"/>
    <use xlink:href="#DejaVuSans-75" x="39.208984"/>
    <use xlink:href="#DejaVuSans-69" x="102.587891"/>
    <use xlink:href="#DejaVuSans-64" x="130.371094"/>
    <use xlink:href="#DejaVuSans-3a" x="193.847656"/>
    <use xlink:href="#DejaVuSans-20" x="227.539062"/>
    <use xlink:href="#DejaVuSans-32" x="259.326172"/>
    <use xlink:href="#DejaVuSans-30" x="322.949219"/>
    <use xlink:href="#DejaVuSans-32" x="386.572266"/>
    <use xlink:href="#DejaVuSans-33" x="450.195312"/>
    <use xlink:href="#DejaVuSans-31" x="513.818359"/>
    <use xlink:href="#DejaVuSans-32" x="577.441406"/>
    <use xlink:href="#DejaVuSans-32" x="641.064453"/>
    <use xlink:href="#DejaVuSans-37" x="704.6875"/>
    <use xlink:href="#DejaVuSans-2d" x="768.310547"/>
    <use xlink:href="#DejaVuSans-31" x="804.394531"/>
    <use xlink:href="#DejaVuSans-33" x="868.017578"/>
    <use xlink:href="#DejaVuSans-31" x="931.640625"/>
    <use xlink:href="#DejaVuSans-32" x="995.263672"/>
    <use xlink:href="#DejaVuSans-32" x="1058.886719"/>
    <use xlink:href="#DejaVuSans-37" x="1122.509766"/>
    <use xlink:href="#DejaVuSans-2d" x="1186.132812"/>
    <use xlink:href="#DejaVuSans-35" x="1222.216797"/>
    <use xlink:href="#DejaVuSans-32" x="1285.839844"/>
    <use xlink:href="#DejaVuSans-32" x="1349.462891"/>
    <use xlink:href="#DejaVuSans-2d" x="1413.085938"/>
    <use xlink:href="#DejaVuSans-65" x="1449.169922"/>
    <use xlink:href="#DejaVuSans-31" x="1510.693359"/>
    <use xlink:href="#DejaVuSans-31" x="1574.316406"/>
    <use xlink:href="#DejaVuSans-38" x="1637.939453"/>
    <use xlink:href="#DejaVuSans-65" x="1701.5625"/>
    <use xlink:href="#DejaVuSans-38" x="1763.085938"/>
   </g>
  </g>
 </g>
 <defs>
  <clipPath id="p6a2f2d7951">
   <rect x="37.848438" y="41.76" width="357.12" height="266.112"/>
  </clipPath>
 </defs>
</svg>
