<?xml version="1.0" encoding="utf-8" standalone="no"?>
<!DOCTYPE svg PUBLIC "-//W3C//DTD SVG 1.1//EN"
  "http://www.w3.org/Graphics/SVG/1.1/DTD/svg11.dtd">
<svg xmlns:xlink="http://www.w3.org/1999/xlink" width="647.026pt" height="345.42825pt" viewBox="0 0 647.026 345.42825" xmlns="http://www.w3.org/2000/svg" version="1.1">
 <metadata>
  <rdf:RDF xmlns:dc="http://purl.org/dc/elements/1.1/" xmlns:cc="http://creativecommons.org/ns#" xmlns:rdf="http://www.w3.org/1999/02/22-rdf-syntax-ns#">
   <cc:Work>
    <dc:type rdf:resource="http://purl.org/dc/dcmitype/StillImage"/>
    <dc:date>2023-12-27T16:09:29.991970</dc:date>
    <dc:format>image/svg+xml</dc:format>
    <dc:creator>
     <cc:Agent>
      <dc:title>Matplotlib v3.8.2, https://matplotlib.org/</dc:title>
     </cc:Agent>
    </dc:creator>
   </cc:Work>
  </rdf:RDF>
 </metadata>
 <defs>
  <style type="text/css">*{stroke-linejoin: round; stroke-linecap: butt}</style>
 </defs>
 <g id="figure_1">
  <g id="patch_1">
   <path d="M 0 345.42825 
L 647.026 345.42825 
L 647.026 -0 
L 0 -0 
L 0 345.42825 
z
" style="fill: none; opacity: 0"/>
  </g>
  <g id="axes_1">
   <g id="patch_2">
    <path d="M 40.603125 307.872 
L 397.723125 307.872 
L 397.723125 41.76 
L 40.603125 41.76 
z
" style="fill: #ffffff"/>
   </g>
   <g id="matplotlib.axis_1">
    <g id="xtick_1">
     <g id="line2d_1">
      <defs>
       <path id="me9a4f66752" d="M 0 0 
L 0 3.5 
" style="stroke: #000000; stroke-width: 0.8"/>
      </defs>
      <g>
       <use xlink:href="#me9a4f66752" x="74.413144" y="307.872" style="stroke: #000000; stroke-width: 0.8"/>
      </g>
     </g>
     <g id="text_1">
      <!-- 718 -->
      <g transform="translate(64.869394 322.470438) scale(0.1 -0.1)">
       <defs>
        <path id="DejaVuSans-37" d="M 525 4666 
L 3525 4666 
L 3525 4397 
L 1831 0 
L 1172 0 
L 2766 4134 
L 525 4134 
L 525 4666 
z
" transform="scale(0.015625)"/>
        <path id="DejaVuSans-31" d="M 794 531 
L 1825 531 
L 1825 4091 
L 703 3866 
L 703 4441 
L 1819 4666 
L 2450 4666 
L 2450 531 
L 3481 531 
L 3481 0 
L 794 0 
L 794 531 
z
" transform="scale(0.015625)"/>
        <path id="DejaVuSans-38" d="M 2034 2216 
Q 1584 2216 1326 1975 
Q 1069 1734 1069 1313 
Q 1069 891 1326 650 
Q 1584 409 2034 409 
Q 2484 409 2743 651 
Q 3003 894 3003 1313 
Q 3003 1734 2745 1975 
Q 2488 2216 2034 2216 
z
M 1403 2484 
Q 997 2584 770 2862 
Q 544 3141 544 3541 
Q 544 4100 942 4425 
Q 1341 4750 2034 4750 
Q 2731 4750 3128 4425 
Q 3525 4100 3525 3541 
Q 3525 3141 3298 2862 
Q 3072 2584 2669 2484 
Q 3125 2378 3379 2068 
Q 3634 1759 3634 1313 
Q 3634 634 3220 271 
Q 2806 -91 2034 -91 
Q 1263 -91 848 271 
Q 434 634 434 1313 
Q 434 1759 690 2068 
Q 947 2378 1403 2484 
z
M 1172 3481 
Q 1172 3119 1398 2916 
Q 1625 2713 2034 2713 
Q 2441 2713 2670 2916 
Q 2900 3119 2900 3481 
Q 2900 3844 2670 4047 
Q 2441 4250 2034 4250 
Q 1625 4250 1398 4047 
Q 1172 3844 1172 3481 
z
" transform="scale(0.015625)"/>
       </defs>
       <use xlink:href="#DejaVuSans-37"/>
       <use xlink:href="#DejaVuSans-31" x="63.623047"/>
       <use xlink:href="#DejaVuSans-38" x="127.246094"/>
      </g>
     </g>
    </g>
    <g id="xtick_2">
     <g id="line2d_2">
      <g>
       <use xlink:href="#me9a4f66752" x="114.994962" y="307.872" style="stroke: #000000; stroke-width: 0.8"/>
      </g>
     </g>
     <g id="text_2">
      <!-- 718.5 -->
      <g transform="translate(100.680899 322.470438) scale(0.1 -0.1)">
       <defs>
        <path id="DejaVuSans-2e" d="M 684 794 
L 1344 794 
L 1344 0 
L 684 0 
L 684 794 
z
" transform="scale(0.015625)"/>
        <path id="DejaVuSans-35" d="M 691 4666 
L 3169 4666 
L 3169 4134 
L 1269 4134 
L 1269 2991 
Q 1406 3038 1543 3061 
Q 1681 3084 1819 3084 
Q 2600 3084 3056 2656 
Q 3513 2228 3513 1497 
Q 3513 744 3044 326 
Q 2575 -91 1722 -91 
Q 1428 -91 1123 -41 
Q 819 9 494 109 
L 494 744 
Q 775 591 1075 516 
Q 1375 441 1709 441 
Q 2250 441 2565 725 
Q 2881 1009 2881 1497 
Q 2881 1984 2565 2268 
Q 2250 2553 1709 2553 
Q 1456 2553 1204 2497 
Q 953 2441 691 2322 
L 691 4666 
z
" transform="scale(0.015625)"/>
       </defs>
       <use xlink:href="#DejaVuSans-37"/>
       <use xlink:href="#DejaVuSans-31" x="63.623047"/>
       <use xlink:href="#DejaVuSans-38" x="127.246094"/>
       <use xlink:href="#DejaVuSans-2e" x="190.869141"/>
       <use xlink:href="#DejaVuSans-35" x="222.65625"/>
      </g>
     </g>
    </g>
    <g id="xtick_3">
     <g id="line2d_3">
      <g>
       <use xlink:href="#me9a4f66752" x="155.57678" y="307.872" style="stroke: #000000; stroke-width: 0.8"/>
      </g>
     </g>
     <g id="text_3">
      <!-- 719 -->
      <g transform="translate(146.03303 322.470438) scale(0.1 -0.1)">
       <defs>
        <path id="DejaVuSans-39" d="M 703 97 
L 703 672 
Q 941 559 1184 500 
Q 1428 441 1663 441 
Q 2288 441 2617 861 
Q 2947 1281 2994 2138 
Q 2813 1869 2534 1725 
Q 2256 1581 1919 1581 
Q 1219 1581 811 2004 
Q 403 2428 403 3163 
Q 403 3881 828 4315 
Q 1253 4750 1959 4750 
Q 2769 4750 3195 4129 
Q 3622 3509 3622 2328 
Q 3622 1225 3098 567 
Q 2575 -91 1691 -91 
Q 1453 -91 1209 -44 
Q 966 3 703 97 
z
M 1959 2075 
Q 2384 2075 2632 2365 
Q 2881 2656 2881 3163 
Q 2881 3666 2632 3958 
Q 2384 4250 1959 4250 
Q 1534 4250 1286 3958 
Q 1038 3666 1038 3163 
Q 1038 2656 1286 2365 
Q 1534 2075 1959 2075 
z
" transform="scale(0.015625)"/>
       </defs>
       <use xlink:href="#DejaVuSans-37"/>
       <use xlink:href="#DejaVuSans-31" x="63.623047"/>
       <use xlink:href="#DejaVuSans-39" x="127.246094"/>
      </g>
     </g>
    </g>
    <g id="xtick_4">
     <g id="line2d_4">
      <g>
       <use xlink:href="#me9a4f66752" x="196.158598" y="307.872" style="stroke: #000000; stroke-width: 0.8"/>
      </g>
     </g>
     <g id="text_4">
      <!-- 719.5 -->
      <g transform="translate(181.844536 322.470438) scale(0.1 -0.1)">
       <use xlink:href="#DejaVuSans-37"/>
       <use xlink:href="#DejaVuSans-31" x="63.623047"/>
       <use xlink:href="#DejaVuSans-39" x="127.246094"/>
       <use xlink:href="#DejaVuSans-2e" x="190.869141"/>
       <use xlink:href="#DejaVuSans-35" x="222.65625"/>
      </g>
     </g>
    </g>
    <g id="xtick_5">
     <g id="line2d_5">
      <g>
       <use xlink:href="#me9a4f66752" x="236.740416" y="307.872" style="stroke: #000000; stroke-width: 0.8"/>
      </g>
     </g>
     <g id="text_5">
      <!-- 720 -->
      <g transform="translate(227.196666 322.470438) scale(0.1 -0.1)">
       <defs>
        <path id="DejaVuSans-32" d="M 1228 531 
L 3431 531 
L 3431 0 
L 469 0 
L 469 531 
Q 828 903 1448 1529 
Q 2069 2156 2228 2338 
Q 2531 2678 2651 2914 
Q 2772 3150 2772 3378 
Q 2772 3750 2511 3984 
Q 2250 4219 1831 4219 
Q 1534 4219 1204 4116 
Q 875 4013 500 3803 
L 500 4441 
Q 881 4594 1212 4672 
Q 1544 4750 1819 4750 
Q 2544 4750 2975 4387 
Q 3406 4025 3406 3419 
Q 3406 3131 3298 2873 
Q 3191 2616 2906 2266 
Q 2828 2175 2409 1742 
Q 1991 1309 1228 531 
z
" transform="scale(0.015625)"/>
        <path id="DejaVuSans-30" d="M 2034 4250 
Q 1547 4250 1301 3770 
Q 1056 3291 1056 2328 
Q 1056 1369 1301 889 
Q 1547 409 2034 409 
Q 2525 409 2770 889 
Q 3016 1369 3016 2328 
Q 3016 3291 2770 3770 
Q 2525 4250 2034 4250 
z
M 2034 4750 
Q 2819 4750 3233 4129 
Q 3647 3509 3647 2328 
Q 3647 1150 3233 529 
Q 2819 -91 2034 -91 
Q 1250 -91 836 529 
Q 422 1150 422 2328 
Q 422 3509 836 4129 
Q 1250 4750 2034 4750 
z
" transform="scale(0.015625)"/>
       </defs>
       <use xlink:href="#DejaVuSans-37"/>
       <use xlink:href="#DejaVuSans-32" x="63.623047"/>
       <use xlink:href="#DejaVuSans-30" x="127.246094"/>
      </g>
     </g>
    </g>
    <g id="xtick_6">
     <g id="line2d_6">
      <g>
       <use xlink:href="#me9a4f66752" x="277.322235" y="307.872" style="stroke: #000000; stroke-width: 0.8"/>
      </g>
     </g>
     <g id="text_6">
      <!-- 720.5 -->
      <g transform="translate(263.008172 322.470438) scale(0.1 -0.1)">
       <use xlink:href="#DejaVuSans-37"/>
       <use xlink:href="#DejaVuSans-32" x="63.623047"/>
       <use xlink:href="#DejaVuSans-30" x="127.246094"/>
       <use xlink:href="#DejaVuSans-2e" x="190.869141"/>
       <use xlink:href="#DejaVuSans-35" x="222.65625"/>
      </g>
     </g>
    </g>
    <g id="xtick_7">
     <g id="line2d_7">
      <g>
       <use xlink:href="#me9a4f66752" x="317.904053" y="307.872" style="stroke: #000000; stroke-width: 0.8"/>
      </g>
     </g>
     <g id="text_7">
      <!-- 721 -->
      <g transform="translate(308.360303 322.470438) scale(0.1 -0.1)">
       <use xlink:href="#DejaVuSans-37"/>
       <use xlink:href="#DejaVuSans-32" x="63.623047"/>
       <use xlink:href="#DejaVuSans-31" x="127.246094"/>
      </g>
     </g>
    </g>
    <g id="xtick_8">
     <g id="line2d_8">
      <g>
       <use xlink:href="#me9a4f66752" x="358.485871" y="307.872" style="stroke: #000000; stroke-width: 0.8"/>
      </g>
     </g>
     <g id="text_8">
      <!-- 721.5 -->
      <g transform="translate(344.171808 322.470438) scale(0.1 -0.1)">
       <use xlink:href="#DejaVuSans-37"/>
       <use xlink:href="#DejaVuSans-32" x="63.623047"/>
       <use xlink:href="#DejaVuSans-31" x="127.246094"/>
       <use xlink:href="#DejaVuSans-2e" x="190.869141"/>
       <use xlink:href="#DejaVuSans-35" x="222.65625"/>
      </g>
     </g>
    </g>
    <g id="text_9">
     <!-- Frequency [MHz] -->
     <g transform="translate(177.144375 336.148562) scale(0.1 -0.1)">
      <defs>
       <path id="DejaVuSans-46" d="M 628 4666 
L 3309 4666 
L 3309 4134 
L 1259 4134 
L 1259 2759 
L 3109 2759 
L 3109 2228 
L 1259 2228 
L 1259 0 
L 628 0 
L 628 4666 
z
" transform="scale(0.015625)"/>
       <path id="DejaVuSans-72" d="M 2631 2963 
Q 2534 3019 2420 3045 
Q 2306 3072 2169 3072 
Q 1681 3072 1420 2755 
Q 1159 2438 1159 1844 
L 1159 0 
L 581 0 
L 581 3500 
L 1159 3500 
L 1159 2956 
Q 1341 3275 1631 3429 
Q 1922 3584 2338 3584 
Q 2397 3584 2469 3576 
Q 2541 3569 2628 3553 
L 2631 2963 
z
" transform="scale(0.015625)"/>
       <path id="DejaVuSans-65" d="M 3597 1894 
L 3597 1613 
L 953 1613 
Q 991 1019 1311 708 
Q 1631 397 2203 397 
Q 2534 397 2845 478 
Q 3156 559 3463 722 
L 3463 178 
Q 3153 47 2828 -22 
Q 2503 -91 2169 -91 
Q 1331 -91 842 396 
Q 353 884 353 1716 
Q 353 2575 817 3079 
Q 1281 3584 2069 3584 
Q 2775 3584 3186 3129 
Q 3597 2675 3597 1894 
z
M 3022 2063 
Q 3016 2534 2758 2815 
Q 2500 3097 2075 3097 
Q 1594 3097 1305 2825 
Q 1016 2553 972 2059 
L 3022 2063 
z
" transform="scale(0.015625)"/>
       <path id="DejaVuSans-71" d="M 947 1747 
Q 947 1113 1208 752 
Q 1469 391 1925 391 
Q 2381 391 2643 752 
Q 2906 1113 2906 1747 
Q 2906 2381 2643 2742 
Q 2381 3103 1925 3103 
Q 1469 3103 1208 2742 
Q 947 2381 947 1747 
z
M 2906 525 
Q 2725 213 2448 61 
Q 2172 -91 1784 -91 
Q 1150 -91 751 415 
Q 353 922 353 1747 
Q 353 2572 751 3078 
Q 1150 3584 1784 3584 
Q 2172 3584 2448 3432 
Q 2725 3281 2906 2969 
L 2906 3500 
L 3481 3500 
L 3481 -1331 
L 2906 -1331 
L 2906 525 
z
" transform="scale(0.015625)"/>
       <path id="DejaVuSans-75" d="M 544 1381 
L 544 3500 
L 1119 3500 
L 1119 1403 
Q 1119 906 1312 657 
Q 1506 409 1894 409 
Q 2359 409 2629 706 
Q 2900 1003 2900 1516 
L 2900 3500 
L 3475 3500 
L 3475 0 
L 2900 0 
L 2900 538 
Q 2691 219 2414 64 
Q 2138 -91 1772 -91 
Q 1169 -91 856 284 
Q 544 659 544 1381 
z
M 1991 3584 
L 1991 3584 
z
" transform="scale(0.015625)"/>
       <path id="DejaVuSans-6e" d="M 3513 2113 
L 3513 0 
L 2938 0 
L 2938 2094 
Q 2938 2591 2744 2837 
Q 2550 3084 2163 3084 
Q 1697 3084 1428 2787 
Q 1159 2491 1159 1978 
L 1159 0 
L 581 0 
L 581 3500 
L 1159 3500 
L 1159 2956 
Q 1366 3272 1645 3428 
Q 1925 3584 2291 3584 
Q 2894 3584 3203 3211 
Q 3513 2838 3513 2113 
z
" transform="scale(0.015625)"/>
       <path id="DejaVuSans-63" d="M 3122 3366 
L 3122 2828 
Q 2878 2963 2633 3030 
Q 2388 3097 2138 3097 
Q 1578 3097 1268 2742 
Q 959 2388 959 1747 
Q 959 1106 1268 751 
Q 1578 397 2138 397 
Q 2388 397 2633 464 
Q 2878 531 3122 666 
L 3122 134 
Q 2881 22 2623 -34 
Q 2366 -91 2075 -91 
Q 1284 -91 818 406 
Q 353 903 353 1747 
Q 353 2603 823 3093 
Q 1294 3584 2113 3584 
Q 2378 3584 2631 3529 
Q 2884 3475 3122 3366 
z
" transform="scale(0.015625)"/>
       <path id="DejaVuSans-79" d="M 2059 -325 
Q 1816 -950 1584 -1140 
Q 1353 -1331 966 -1331 
L 506 -1331 
L 506 -850 
L 844 -850 
Q 1081 -850 1212 -737 
Q 1344 -625 1503 -206 
L 1606 56 
L 191 3500 
L 800 3500 
L 1894 763 
L 2988 3500 
L 3597 3500 
L 2059 -325 
z
" transform="scale(0.015625)"/>
       <path id="DejaVuSans-20" transform="scale(0.015625)"/>
       <path id="DejaVuSans-5b" d="M 550 4863 
L 1875 4863 
L 1875 4416 
L 1125 4416 
L 1125 -397 
L 1875 -397 
L 1875 -844 
L 550 -844 
L 550 4863 
z
" transform="scale(0.015625)"/>
       <path id="DejaVuSans-4d" d="M 628 4666 
L 1569 4666 
L 2759 1491 
L 3956 4666 
L 4897 4666 
L 4897 0 
L 4281 0 
L 4281 4097 
L 3078 897 
L 2444 897 
L 1241 4097 
L 1241 0 
L 628 0 
L 628 4666 
z
" transform="scale(0.015625)"/>
       <path id="DejaVuSans-48" d="M 628 4666 
L 1259 4666 
L 1259 2753 
L 3553 2753 
L 3553 4666 
L 4184 4666 
L 4184 0 
L 3553 0 
L 3553 2222 
L 1259 2222 
L 1259 0 
L 628 0 
L 628 4666 
z
" transform="scale(0.015625)"/>
       <path id="DejaVuSans-7a" d="M 353 3500 
L 3084 3500 
L 3084 2975 
L 922 459 
L 3084 459 
L 3084 0 
L 275 0 
L 275 525 
L 2438 3041 
L 353 3041 
L 353 3500 
z
" transform="scale(0.015625)"/>
       <path id="DejaVuSans-5d" d="M 1947 4863 
L 1947 -844 
L 622 -844 
L 622 -397 
L 1369 -397 
L 1369 4416 
L 622 4416 
L 622 4863 
L 1947 4863 
z
" transform="scale(0.015625)"/>
      </defs>
      <use xlink:href="#DejaVuSans-46"/>
      <use xlink:href="#DejaVuSans-72" x="50.269531"/>
      <use xlink:href="#DejaVuSans-65" x="89.132812"/>
      <use xlink:href="#DejaVuSans-71" x="150.65625"/>
      <use xlink:href="#DejaVuSans-75" x="214.132812"/>
      <use xlink:href="#DejaVuSans-65" x="277.511719"/>
      <use xlink:href="#DejaVuSans-6e" x="339.035156"/>
      <use xlink:href="#DejaVuSans-63" x="402.414062"/>
      <use xlink:href="#DejaVuSans-79" x="457.394531"/>
      <use xlink:href="#DejaVuSans-20" x="516.574219"/>
      <use xlink:href="#DejaVuSans-5b" x="548.361328"/>
      <use xlink:href="#DejaVuSans-4d" x="587.375"/>
      <use xlink:href="#DejaVuSans-48" x="673.654297"/>
      <use xlink:href="#DejaVuSans-7a" x="748.849609"/>
      <use xlink:href="#DejaVuSans-5d" x="801.339844"/>
     </g>
    </g>
    <g id="text_10">
     <!-- +5 GHz -->
     <g transform="translate(359.285625 335.148562) scale(0.1 -0.1)">
      <defs>
       <path id="DejaVuSans-2b" d="M 2944 4013 
L 2944 2272 
L 4684 2272 
L 4684 1741 
L 2944 1741 
L 2944 0 
L 2419 0 
L 2419 1741 
L 678 1741 
L 678 2272 
L 2419 2272 
L 2419 4013 
L 2944 4013 
z
" transform="scale(0.015625)"/>
       <path id="DejaVuSans-47" d="M 3809 666 
L 3809 1919 
L 2778 1919 
L 2778 2438 
L 4434 2438 
L 4434 434 
Q 4069 175 3628 42 
Q 3188 -91 2688 -91 
Q 1594 -91 976 548 
Q 359 1188 359 2328 
Q 359 3472 976 4111 
Q 1594 4750 2688 4750 
Q 3144 4750 3555 4637 
Q 3966 4525 4313 4306 
L 4313 3634 
Q 3963 3931 3569 4081 
Q 3175 4231 2741 4231 
Q 1884 4231 1454 3753 
Q 1025 3275 1025 2328 
Q 1025 1384 1454 906 
Q 1884 428 2741 428 
Q 3075 428 3337 486 
Q 3600 544 3809 666 
z
" transform="scale(0.015625)"/>
      </defs>
      <use xlink:href="#DejaVuSans-2b"/>
      <use xlink:href="#DejaVuSans-35" x="83.789062"/>
      <use xlink:href="#DejaVuSans-20" x="147.412109"/>
      <use xlink:href="#DejaVuSans-47" x="179.199219"/>
      <use xlink:href="#DejaVuSans-48" x="256.689453"/>
      <use xlink:href="#DejaVuSans-7a" x="331.884766"/>
     </g>
    </g>
   </g>
   <g id="matplotlib.axis_2">
    <g id="ytick_1">
     <g id="line2d_9">
      <defs>
       <path id="m3ac8be68d6" d="M 0 0 
L -3.5 0 
" style="stroke: #000000; stroke-width: 0.8"/>
      </defs>
      <g>
       <use xlink:href="#m3ac8be68d6" x="40.603125" y="296.692919" style="stroke: #000000; stroke-width: 0.8"/>
      </g>
     </g>
     <g id="text_11">
      <!-- 0 -->
      <g transform="translate(27.240625 300.492138) scale(0.1 -0.1)">
       <use xlink:href="#DejaVuSans-30"/>
      </g>
     </g>
    </g>
    <g id="ytick_2">
     <g id="line2d_10">
      <g>
       <use xlink:href="#m3ac8be68d6" x="40.603125" y="253.600029" style="stroke: #000000; stroke-width: 0.8"/>
      </g>
     </g>
     <g id="text_12">
      <!-- 5 -->
      <g transform="translate(27.240625 257.399248) scale(0.1 -0.1)">
       <use xlink:href="#DejaVuSans-35"/>
      </g>
     </g>
    </g>
    <g id="ytick_3">
     <g id="line2d_11">
      <g>
       <use xlink:href="#m3ac8be68d6" x="40.603125" y="210.507139" style="stroke: #000000; stroke-width: 0.8"/>
      </g>
     </g>
     <g id="text_13">
      <!-- 10 -->
      <g transform="translate(20.878125 214.306358) scale(0.1 -0.1)">
       <use xlink:href="#DejaVuSans-31"/>
       <use xlink:href="#DejaVuSans-30" x="63.623047"/>
      </g>
     </g>
    </g>
    <g id="ytick_4">
     <g id="line2d_12">
      <g>
       <use xlink:href="#m3ac8be68d6" x="40.603125" y="167.414249" style="stroke: #000000; stroke-width: 0.8"/>
      </g>
     </g>
     <g id="text_14">
      <!-- 15 -->
      <g transform="translate(20.878125 171.213467) scale(0.1 -0.1)">
       <use xlink:href="#DejaVuSans-31"/>
       <use xlink:href="#DejaVuSans-35" x="63.623047"/>
      </g>
     </g>
    </g>
    <g id="ytick_5">
     <g id="line2d_13">
      <g>
       <use xlink:href="#m3ac8be68d6" x="40.603125" y="124.321358" style="stroke: #000000; stroke-width: 0.8"/>
      </g>
     </g>
     <g id="text_15">
      <!-- 20 -->
      <g transform="translate(20.878125 128.120577) scale(0.1 -0.1)">
       <use xlink:href="#DejaVuSans-32"/>
       <use xlink:href="#DejaVuSans-30" x="63.623047"/>
      </g>
     </g>
    </g>
    <g id="ytick_6">
     <g id="line2d_14">
      <g>
       <use xlink:href="#m3ac8be68d6" x="40.603125" y="81.228468" style="stroke: #000000; stroke-width: 0.8"/>
      </g>
     </g>
     <g id="text_16">
      <!-- 25 -->
      <g transform="translate(20.878125 85.027687) scale(0.1 -0.1)">
       <use xlink:href="#DejaVuSans-32"/>
       <use xlink:href="#DejaVuSans-35" x="63.623047"/>
      </g>
     </g>
    </g>
    <g id="text_17">
     <!-- Magnitude0 [mV] -->
     <g transform="translate(14.798438 218.268344) rotate(-90) scale(0.1 -0.1)">
      <defs>
       <path id="DejaVuSans-61" d="M 2194 1759 
Q 1497 1759 1228 1600 
Q 959 1441 959 1056 
Q 959 750 1161 570 
Q 1363 391 1709 391 
Q 2188 391 2477 730 
Q 2766 1069 2766 1631 
L 2766 1759 
L 2194 1759 
z
M 3341 1997 
L 3341 0 
L 2766 0 
L 2766 531 
Q 2569 213 2275 61 
Q 1981 -91 1556 -91 
Q 1019 -91 701 211 
Q 384 513 384 1019 
Q 384 1609 779 1909 
Q 1175 2209 1959 2209 
L 2766 2209 
L 2766 2266 
Q 2766 2663 2505 2880 
Q 2244 3097 1772 3097 
Q 1472 3097 1187 3025 
Q 903 2953 641 2809 
L 641 3341 
Q 956 3463 1253 3523 
Q 1550 3584 1831 3584 
Q 2591 3584 2966 3190 
Q 3341 2797 3341 1997 
z
" transform="scale(0.015625)"/>
       <path id="DejaVuSans-67" d="M 2906 1791 
Q 2906 2416 2648 2759 
Q 2391 3103 1925 3103 
Q 1463 3103 1205 2759 
Q 947 2416 947 1791 
Q 947 1169 1205 825 
Q 1463 481 1925 481 
Q 2391 481 2648 825 
Q 2906 1169 2906 1791 
z
M 3481 434 
Q 3481 -459 3084 -895 
Q 2688 -1331 1869 -1331 
Q 1566 -1331 1297 -1286 
Q 1028 -1241 775 -1147 
L 775 -588 
Q 1028 -725 1275 -790 
Q 1522 -856 1778 -856 
Q 2344 -856 2625 -561 
Q 2906 -266 2906 331 
L 2906 616 
Q 2728 306 2450 153 
Q 2172 0 1784 0 
Q 1141 0 747 490 
Q 353 981 353 1791 
Q 353 2603 747 3093 
Q 1141 3584 1784 3584 
Q 2172 3584 2450 3431 
Q 2728 3278 2906 2969 
L 2906 3500 
L 3481 3500 
L 3481 434 
z
" transform="scale(0.015625)"/>
       <path id="DejaVuSans-69" d="M 603 3500 
L 1178 3500 
L 1178 0 
L 603 0 
L 603 3500 
z
M 603 4863 
L 1178 4863 
L 1178 4134 
L 603 4134 
L 603 4863 
z
" transform="scale(0.015625)"/>
       <path id="DejaVuSans-74" d="M 1172 4494 
L 1172 3500 
L 2356 3500 
L 2356 3053 
L 1172 3053 
L 1172 1153 
Q 1172 725 1289 603 
Q 1406 481 1766 481 
L 2356 481 
L 2356 0 
L 1766 0 
Q 1100 0 847 248 
Q 594 497 594 1153 
L 594 3053 
L 172 3053 
L 172 3500 
L 594 3500 
L 594 4494 
L 1172 4494 
z
" transform="scale(0.015625)"/>
       <path id="DejaVuSans-64" d="M 2906 2969 
L 2906 4863 
L 3481 4863 
L 3481 0 
L 2906 0 
L 2906 525 
Q 2725 213 2448 61 
Q 2172 -91 1784 -91 
Q 1150 -91 751 415 
Q 353 922 353 1747 
Q 353 2572 751 3078 
Q 1150 3584 1784 3584 
Q 2172 3584 2448 3432 
Q 2725 3281 2906 2969 
z
M 947 1747 
Q 947 1113 1208 752 
Q 1469 391 1925 391 
Q 2381 391 2643 752 
Q 2906 1113 2906 1747 
Q 2906 2381 2643 2742 
Q 2381 3103 1925 3103 
Q 1469 3103 1208 2742 
Q 947 2381 947 1747 
z
" transform="scale(0.015625)"/>
       <path id="DejaVuSans-6d" d="M 3328 2828 
Q 3544 3216 3844 3400 
Q 4144 3584 4550 3584 
Q 5097 3584 5394 3201 
Q 5691 2819 5691 2113 
L 5691 0 
L 5113 0 
L 5113 2094 
Q 5113 2597 4934 2840 
Q 4756 3084 4391 3084 
Q 3944 3084 3684 2787 
Q 3425 2491 3425 1978 
L 3425 0 
L 2847 0 
L 2847 2094 
Q 2847 2600 2669 2842 
Q 2491 3084 2119 3084 
Q 1678 3084 1418 2786 
Q 1159 2488 1159 1978 
L 1159 0 
L 581 0 
L 581 3500 
L 1159 3500 
L 1159 2956 
Q 1356 3278 1631 3431 
Q 1906 3584 2284 3584 
Q 2666 3584 2933 3390 
Q 3200 3197 3328 2828 
z
" transform="scale(0.015625)"/>
       <path id="DejaVuSans-56" d="M 1831 0 
L 50 4666 
L 709 4666 
L 2188 738 
L 3669 4666 
L 4325 4666 
L 2547 0 
L 1831 0 
z
" transform="scale(0.015625)"/>
      </defs>
      <use xlink:href="#DejaVuSans-4d"/>
      <use xlink:href="#DejaVuSans-61" x="86.279297"/>
      <use xlink:href="#DejaVuSans-67" x="147.558594"/>
      <use xlink:href="#DejaVuSans-6e" x="211.035156"/>
      <use xlink:href="#DejaVuSans-69" x="274.414062"/>
      <use xlink:href="#DejaVuSans-74" x="302.197266"/>
      <use xlink:href="#DejaVuSans-75" x="341.40625"/>
      <use xlink:href="#DejaVuSans-64" x="404.785156"/>
      <use xlink:href="#DejaVuSans-65" x="468.261719"/>
      <use xlink:href="#DejaVuSans-30" x="529.785156"/>
      <use xlink:href="#DejaVuSans-20" x="593.408203"/>
      <use xlink:href="#DejaVuSans-5b" x="625.195312"/>
      <use xlink:href="#DejaVuSans-6d" x="664.208984"/>
      <use xlink:href="#DejaVuSans-56" x="761.621094"/>
      <use xlink:href="#DejaVuSans-5d" x="830.029297"/>
     </g>
    </g>
   </g>
   <g id="line2d_15">
    <path d="M 56.835852 292.8995 
L 68.030837 292.363465 
L 79.225821 293.561845 
L 90.420805 293.073622 
L 101.61579 292.502921 
L 112.810774 293.002472 
L 124.005758 292.753212 
L 135.200743 293.088514 
L 146.395727 292.225124 
L 157.590711 292.485126 
L 168.785696 293.19335 
L 179.98068 293.503938 
L 191.175664 293.794206 
L 202.370649 293.557089 
L 213.565633 294.957271 
L 224.760617 295.776 
L 235.955601 294.981819 
L 247.150586 294.871339 
L 258.34557 294.904017 
L 269.540554 294.264324 
L 280.735539 294.125798 
L 291.930523 294.86729 
L 303.125507 293.704936 
L 314.320492 294.056109 
L 325.515476 294.080428 
L 336.71046 293.130075 
L 347.905445 293.940906 
L 359.100429 293.211914 
L 370.295413 293.544844 
L 381.490398 292.545258 
" clip-path="url(#p7d8cd9f4ec)" style="fill: none; stroke: #440154; stroke-width: 1.5; stroke-linecap: square"/>
   </g>
   <g id="line2d_16">
    <path d="M 56.835852 284.040609 
L 68.030837 284.434503 
L 79.225821 284.027624 
L 90.420805 283.697505 
L 101.61579 283.662869 
L 112.810774 284.349634 
L 124.005758 284.130173 
L 135.200743 284.694878 
L 146.395727 284.854382 
L 157.590711 283.927767 
L 168.785696 284.389796 
L 179.98068 284.903479 
L 191.175664 285.999066 
L 202.370649 287.022896 
L 213.565633 288.49286 
L 224.760617 290.293968 
L 235.955601 290.940722 
L 247.150586 291.676078 
L 258.34557 290.71822 
L 269.540554 288.934075 
L 280.735539 288.366617 
L 291.930523 288.318742 
L 303.125507 287.216274 
L 314.320492 287.575058 
L 325.515476 286.602141 
L 336.71046 286.773539 
L 347.905445 286.854897 
L 359.100429 286.322815 
L 370.295413 286.618492 
L 381.490398 284.975271 
" clip-path="url(#p7d8cd9f4ec)" style="fill: none; stroke: #470d60; stroke-width: 1.5; stroke-linecap: square"/>
   </g>
   <g id="line2d_17">
    <path d="M 56.835852 275.832949 
L 68.030837 275.862166 
L 79.225821 275.716983 
L 90.420805 276.029035 
L 101.61579 275.54534 
L 112.810774 275.75003 
L 124.005758 274.780501 
L 135.200743 275.390759 
L 146.395727 274.801376 
L 157.590711 275.828842 
L 168.785696 275.762851 
L 179.98068 276.037269 
L 191.175664 277.86249 
L 202.370649 279.975641 
L 213.565633 282.531286 
L 224.760617 285.346601 
L 235.955601 287.329592 
L 247.150586 287.411075 
L 258.34557 284.760593 
L 269.540554 283.293619 
L 280.735539 281.854629 
L 291.930523 281.311535 
L 303.125507 280.480874 
L 314.320492 280.069 
L 325.515476 280.241147 
L 336.71046 279.601965 
L 347.905445 279.501828 
L 359.100429 280.126459 
L 370.295413 278.440077 
L 381.490398 278.866319 
" clip-path="url(#p7d8cd9f4ec)" style="fill: none; stroke: #481a6c; stroke-width: 1.5; stroke-linecap: square"/>
   </g>
   <g id="line2d_18">
    <path d="M 56.835852 266.718251 
L 68.030837 267.192381 
L 79.225821 266.833629 
L 90.420805 267.718118 
L 101.61579 266.750322 
L 112.810774 267.131573 
L 124.005758 266.753165 
L 135.200743 266.681836 
L 146.395727 266.632764 
L 157.590711 267.152585 
L 168.785696 266.868396 
L 179.98068 268.608678 
L 191.175664 270.353537 
L 202.370649 274.172973 
L 213.565633 277.715865 
L 224.760617 281.257008 
L 235.955601 282.472272 
L 247.150586 280.999899 
L 258.34557 279.346881 
L 269.540554 277.483017 
L 280.735539 276.276711 
L 291.930523 274.841098 
L 303.125507 273.82661 
L 314.320492 273.357057 
L 325.515476 272.520588 
L 336.71046 271.821114 
L 347.905445 272.090703 
L 359.100429 271.661547 
L 370.295413 271.862658 
L 381.490398 271.117242 
" clip-path="url(#p7d8cd9f4ec)" style="fill: none; stroke: #482576; stroke-width: 1.5; stroke-linecap: square"/>
   </g>
   <g id="line2d_19">
    <path d="M 56.835852 257.993168 
L 68.030837 257.929677 
L 79.225821 258.112305 
L 90.420805 257.959887 
L 101.61579 258.306323 
L 112.810774 258.296292 
L 124.005758 258.246688 
L 135.200743 257.81079 
L 146.395727 257.53303 
L 157.590711 257.354334 
L 168.785696 259.357595 
L 179.98068 259.894521 
L 191.175664 263.856384 
L 202.370649 268.725132 
L 213.565633 273.738012 
L 224.760617 276.831453 
L 235.955601 278.869794 
L 247.150586 278.224693 
L 258.34557 274.807926 
L 269.540554 271.704615 
L 280.735539 270.139466 
L 291.930523 267.814279 
L 303.125507 267.344914 
L 314.320492 266.782577 
L 325.515476 266.015161 
L 336.71046 265.5677 
L 347.905445 264.792224 
L 359.100429 264.907073 
L 370.295413 264.1074 
L 381.490398 263.483238 
" clip-path="url(#p7d8cd9f4ec)" style="fill: none; stroke: #46307e; stroke-width: 1.5; stroke-linecap: square"/>
   </g>
   <g id="line2d_20">
    <path d="M 56.835852 249.453727 
L 68.030837 249.442953 
L 79.225821 249.802502 
L 90.420805 250.056161 
L 101.61579 249.012222 
L 112.810774 249.533858 
L 124.005758 249.019309 
L 135.200743 249.088773 
L 146.395727 249.092394 
L 157.590711 249.044416 
L 168.785696 251.335065 
L 179.98068 253.843356 
L 191.175664 257.585109 
L 202.370649 263.523139 
L 213.565633 268.868263 
L 224.760617 271.999349 
L 235.955601 272.550605 
L 247.150586 271.962616 
L 258.34557 269.417963 
L 269.540554 266.271859 
L 280.735539 262.797476 
L 291.930523 261.917949 
L 303.125507 260.568585 
L 314.320492 259.166671 
L 325.515476 259.47789 
L 336.71046 258.606255 
L 347.905445 257.380878 
L 359.100429 257.735827 
L 370.295413 256.77096 
L 381.490398 256.111654 
" clip-path="url(#p7d8cd9f4ec)" style="fill: none; stroke: #443b84; stroke-width: 1.5; stroke-linecap: square"/>
   </g>
   <g id="line2d_21">
    <path d="M 56.835852 240.514181 
L 68.030837 241.487517 
L 79.225821 240.570138 
L 90.420805 240.243197 
L 101.61579 240.116165 
L 112.810774 240.183851 
L 124.005758 240.093108 
L 135.200743 240.649017 
L 146.395727 240.962127 
L 157.590711 242.533942 
L 168.785696 243.027106 
L 179.98068 247.129263 
L 191.175664 252.539409 
L 202.370649 258.762452 
L 213.565633 264.6387 
L 224.760617 268.320837 
L 235.955601 267.454908 
L 247.150586 265.443713 
L 258.34557 262.939174 
L 269.540554 259.564463 
L 280.735539 256.403806 
L 291.930523 254.010285 
L 303.125507 253.347793 
L 314.320492 252.600007 
L 325.515476 252.596954 
L 336.71046 250.542149 
L 347.905445 250.045333 
L 359.100429 250.471664 
L 370.295413 249.204783 
L 381.490398 248.678676 
" clip-path="url(#p7d8cd9f4ec)" style="fill: none; stroke: #404588; stroke-width: 1.5; stroke-linecap: square"/>
   </g>
   <g id="line2d_22">
    <path d="M 56.835852 231.677091 
L 68.030837 232.500322 
L 79.225821 231.910729 
L 90.420805 232.715319 
L 101.61579 232.187408 
L 112.810774 232.458069 
L 124.005758 231.490653 
L 135.200743 232.764123 
L 146.395727 233.645393 
L 157.590711 233.185667 
L 168.785696 235.824014 
L 179.98068 240.007154 
L 191.175664 246.497248 
L 202.370649 255.298605 
L 213.565633 260.682921 
L 224.760617 263.435861 
L 235.955601 263.026699 
L 247.150586 259.537407 
L 258.34557 256.249798 
L 269.540554 253.84 
L 280.735539 249.734749 
L 291.930523 247.901363 
L 303.125507 245.394995 
L 314.320492 245.082083 
L 325.515476 244.426613 
L 336.71046 243.380153 
L 347.905445 243.26889 
L 359.100429 241.798046 
L 370.295413 241.634447 
L 381.490398 241.247341 
" clip-path="url(#p7d8cd9f4ec)" style="fill: none; stroke: #3c4f8a; stroke-width: 1.5; stroke-linecap: square"/>
   </g>
   <g id="line2d_23">
    <path d="M 56.835852 223.191322 
L 68.030837 223.651383 
L 79.225821 224.120398 
L 90.420805 223.815225 
L 101.61579 223.139966 
L 112.810774 224.135635 
L 124.005758 223.999937 
L 135.200743 225.775742 
L 146.395727 224.625689 
L 157.590711 226.446617 
L 168.785696 229.291283 
L 179.98068 235.157579 
L 191.175664 243.489397 
L 202.370649 250.260268 
L 213.565633 254.96739 
L 224.760617 255.721509 
L 235.955601 253.851255 
L 247.150586 251.717201 
L 258.34557 247.781371 
L 269.540554 246.565485 
L 280.735539 243.942638 
L 291.930523 239.977854 
L 303.125507 238.425753 
L 314.320492 237.564625 
L 325.515476 236.804756 
L 336.71046 234.824568 
L 347.905445 234.797168 
L 359.100429 235.969249 
L 370.295413 233.641774 
L 381.490398 234.30653 
" clip-path="url(#p7d8cd9f4ec)" style="fill: none; stroke: #38598c; stroke-width: 1.5; stroke-linecap: square"/>
   </g>
   <g id="line2d_24">
    <path d="M 56.835852 215.381047 
L 68.030837 215.062993 
L 79.225821 214.255111 
L 90.420805 215.869403 
L 101.61579 215.693788 
L 112.810774 216.582216 
L 124.005758 217.227205 
L 135.200743 216.392191 
L 146.395727 216.874187 
L 157.590711 220.781643 
L 168.785696 223.426954 
L 179.98068 230.866743 
L 191.175664 238.786508 
L 202.370649 244.762339 
L 213.565633 246.275519 
L 224.760617 247.889044 
L 235.955601 247.575456 
L 247.150586 244.30305 
L 258.34557 239.546656 
L 269.540554 238.276479 
L 280.735539 236.548694 
L 291.930523 234.122637 
L 303.125507 232.057775 
L 314.320492 230.170261 
L 325.515476 229.717023 
L 336.71046 228.930109 
L 347.905445 227.835891 
L 359.100429 227.060985 
L 370.295413 226.763958 
L 381.490398 226.761941 
" clip-path="url(#p7d8cd9f4ec)" style="fill: none; stroke: #33628d; stroke-width: 1.5; stroke-linecap: square"/>
   </g>
   <g id="line2d_25">
    <path d="M 56.835852 207.113515 
L 68.030837 206.440281 
L 79.225821 207.159863 
L 90.420805 208.64427 
L 101.61579 209.036563 
L 112.810774 208.286203 
L 124.005758 208.90984 
L 135.200743 209.140611 
L 146.395727 211.074828 
L 157.590711 213.579125 
L 168.785696 217.90962 
L 179.98068 225.950611 
L 191.175664 234.82285 
L 202.370649 239.039743 
L 213.565633 242.247899 
L 224.760617 240.006755 
L 235.955601 239.516492 
L 247.150586 238.672042 
L 258.34557 233.481346 
L 269.540554 231.912783 
L 280.735539 229.056102 
L 291.930523 227.437654 
L 303.125507 225.678874 
L 314.320492 223.748027 
L 325.515476 222.532667 
L 336.71046 221.522571 
L 347.905445 220.459352 
L 359.100429 220.217904 
L 370.295413 219.636251 
L 381.490398 219.070775 
" clip-path="url(#p7d8cd9f4ec)" style="fill: none; stroke: #2f6b8e; stroke-width: 1.5; stroke-linecap: square"/>
   </g>
   <g id="line2d_26">
    <path d="M 56.835852 198.951763 
L 68.030837 199.347594 
L 79.225821 199.920958 
L 90.420805 199.50241 
L 101.61579 198.859581 
L 112.810774 199.409631 
L 124.005758 201.706082 
L 135.200743 204.947625 
L 146.395727 206.334728 
L 157.590711 208.426957 
L 168.785696 212.941731 
L 179.98068 221.586091 
L 191.175664 230.219788 
L 202.370649 231.764623 
L 213.565633 231.700345 
L 224.760617 232.842348 
L 235.955601 230.777047 
L 247.150586 228.963602 
L 258.34557 226.335239 
L 269.540554 223.580117 
L 280.735539 222.199826 
L 291.930523 219.906344 
L 303.125507 218.981471 
L 314.320492 217.145293 
L 325.515476 214.928329 
L 336.71046 213.813259 
L 347.905445 212.693686 
L 359.100429 212.376133 
L 370.295413 212.138876 
L 381.490398 210.970732 
" clip-path="url(#p7d8cd9f4ec)" style="fill: none; stroke: #2c738e; stroke-width: 1.5; stroke-linecap: square"/>
   </g>
   <g id="line2d_27">
    <path d="M 56.835852 190.328021 
L 68.030837 191.117736 
L 79.225821 190.618868 
L 90.420805 191.720908 
L 101.61579 191.06671 
L 112.810774 193.187171 
L 124.005758 197.273285 
L 135.200743 198.724486 
L 146.395727 202.179753 
L 157.590711 202.183794 
L 168.785696 209.51837 
L 179.98068 218.674314 
L 191.175664 222.780963 
L 202.370649 223.765914 
L 213.565633 225.653614 
L 224.760617 223.346342 
L 235.955601 223.270523 
L 247.150586 221.850028 
L 258.34557 218.843671 
L 269.540554 214.685097 
L 280.735539 213.143464 
L 291.930523 213.087518 
L 303.125507 211.17729 
L 314.320492 210.009938 
L 325.515476 207.516275 
L 336.71046 205.729227 
L 347.905445 205.488539 
L 359.100429 205.549745 
L 370.295413 203.93886 
L 381.490398 203.606505 
" clip-path="url(#p7d8cd9f4ec)" style="fill: none; stroke: #297b8e; stroke-width: 1.5; stroke-linecap: square"/>
   </g>
   <g id="line2d_28">
    <path d="M 56.835852 181.194919 
L 68.030837 182.25609 
L 79.225821 183.79341 
L 90.420805 185.329962 
L 101.61579 183.966031 
L 112.810774 187.96037 
L 124.005758 190.446344 
L 135.200743 193.294612 
L 146.395727 195.806517 
L 157.590711 194.800195 
L 168.785696 206.638954 
L 179.98068 214.376391 
L 191.175664 214.582765 
L 202.370649 215.28389 
L 213.565633 217.042881 
L 224.760617 216.802257 
L 235.955601 214.660195 
L 247.150586 212.838882 
L 258.34557 210.863366 
L 269.540554 210.056736 
L 280.735539 207.350215 
L 291.930523 205.556556 
L 303.125507 204.103473 
L 314.320492 202.339947 
L 325.515476 200.729817 
L 336.71046 198.540856 
L 347.905445 197.360402 
L 359.100429 197.093017 
L 370.295413 196.637784 
L 381.490398 195.720784 
" clip-path="url(#p7d8cd9f4ec)" style="fill: none; stroke: #25838e; stroke-width: 1.5; stroke-linecap: square"/>
   </g>
   <g id="line2d_29">
    <path d="M 56.835852 172.97293 
L 68.030837 174.422724 
L 79.225821 177.076357 
L 90.420805 179.110673 
L 101.61579 178.887049 
L 112.810774 183.847797 
L 124.005758 184.894151 
L 135.200743 184.598692 
L 146.395727 185.886027 
L 157.590711 189.456309 
L 168.785696 200.808026 
L 179.98068 207.361645 
L 191.175664 207.880649 
L 202.370649 206.068045 
L 213.565633 207.337439 
L 224.760617 208.092923 
L 235.955601 207.501834 
L 247.150586 204.950907 
L 258.34557 203.438025 
L 269.540554 202.747116 
L 280.735539 198.407537 
L 291.930523 197.09843 
L 303.125507 195.2563 
L 314.320492 194.153101 
L 325.515476 192.634999 
L 336.71046 191.580893 
L 347.905445 190.154682 
L 359.100429 189.073688 
L 370.295413 188.31082 
L 381.490398 188.458258 
" clip-path="url(#p7d8cd9f4ec)" style="fill: none; stroke: #228c8d; stroke-width: 1.5; stroke-linecap: square"/>
   </g>
   <g id="line2d_30">
    <path d="M 56.835852 165.993371 
L 68.030837 166.659392 
L 79.225821 169.180219 
L 90.420805 173.005694 
L 101.61579 179.430871 
L 112.810774 180.701135 
L 124.005758 180.111652 
L 135.200743 181.687761 
L 146.395727 179.860393 
L 157.590711 187.271494 
L 168.785696 200.776998 
L 179.98068 198.735498 
L 191.175664 197.529722 
L 202.370649 198.476818 
L 213.565633 198.822522 
L 224.760617 200.952992 
L 235.955601 197.491199 
L 247.150586 196.851511 
L 258.34557 194.315814 
L 269.540554 193.332193 
L 280.735539 191.813159 
L 291.930523 189.334279 
L 303.125507 188.022208 
L 314.320492 187.419928 
L 325.515476 185.90606 
L 336.71046 183.897727 
L 347.905445 183.146745 
L 359.100429 182.048578 
L 370.295413 181.970365 
L 381.490398 181.07555 
" clip-path="url(#p7d8cd9f4ec)" style="fill: none; stroke: #1f948c; stroke-width: 1.5; stroke-linecap: square"/>
   </g>
   <g id="line2d_31">
    <path d="M 56.835852 157.392665 
L 68.030837 158.704225 
L 79.225821 163.018154 
L 90.420805 167.521909 
L 101.61579 173.319274 
L 112.810774 175.666432 
L 124.005758 171.56039 
L 135.200743 171.446747 
L 146.395727 174.638195 
L 157.590711 185.002412 
L 168.785696 194.305061 
L 179.98068 191.649672 
L 191.175664 191.893674 
L 202.370649 190.423625 
L 213.565633 189.109411 
L 224.760617 189.219908 
L 235.955601 187.526325 
L 247.150586 187.974882 
L 258.34557 186.67115 
L 269.540554 185.03862 
L 280.735539 184.187194 
L 291.930523 182.922359 
L 303.125507 181.650686 
L 314.320492 179.895698 
L 325.515476 178.104911 
L 336.71046 176.977616 
L 347.905445 175.020332 
L 359.100429 174.649628 
L 370.295413 172.980632 
L 381.490398 173.177564 
" clip-path="url(#p7d8cd9f4ec)" style="fill: none; stroke: #1e9d89; stroke-width: 1.5; stroke-linecap: square"/>
   </g>
   <g id="line2d_32">
    <path d="M 56.835852 150.234112 
L 68.030837 150.42586 
L 79.225821 155.468708 
L 90.420805 160.751314 
L 101.61579 166.008575 
L 112.810774 165.773698 
L 124.005758 165.73101 
L 135.200743 165.903694 
L 146.395727 173.982698 
L 157.590711 183.290099 
L 168.785696 186.99375 
L 179.98068 182.685242 
L 191.175664 182.185948 
L 202.370649 180.827175 
L 213.565633 181.809085 
L 224.760617 179.362097 
L 235.955601 182.953694 
L 247.150586 179.288412 
L 258.34557 177.567365 
L 269.540554 177.491114 
L 280.735539 175.458256 
L 291.930523 173.783791 
L 303.125507 172.090481 
L 314.320492 171.774243 
L 325.515476 170.672414 
L 336.71046 168.065298 
L 347.905445 168.154501 
L 359.100429 166.996873 
L 370.295413 165.619978 
L 381.490398 165.028953 
" clip-path="url(#p7d8cd9f4ec)" style="fill: none; stroke: #21a585; stroke-width: 1.5; stroke-linecap: square"/>
   </g>
   <g id="line2d_33">
    <path d="M 56.835852 141.097273 
L 68.030837 145.217893 
L 79.225821 153.898999 
L 90.420805 159.429731 
L 101.61579 162.043368 
L 112.810774 164.666583 
L 124.005758 163.356065 
L 135.200743 166.440413 
L 146.395727 167.767243 
L 157.590711 181.514878 
L 168.785696 177.94794 
L 179.98068 175.406701 
L 191.175664 174.017324 
L 202.370649 172.256403 
L 213.565633 172.797513 
L 224.760617 171.521096 
L 235.955601 170.793488 
L 247.150586 171.754649 
L 258.34557 169.181473 
L 269.540554 168.522038 
L 280.735539 169.218769 
L 291.930523 166.40648 
L 303.125507 163.947702 
L 314.320492 163.444469 
L 325.515476 162.159025 
L 336.71046 161.047751 
L 347.905445 159.672369 
L 359.100429 159.358189 
L 370.295413 158.496334 
L 381.490398 157.422262 
" clip-path="url(#p7d8cd9f4ec)" style="fill: none; stroke: #26ad81; stroke-width: 1.5; stroke-linecap: square"/>
   </g>
   <g id="line2d_34">
    <path d="M 56.835852 132.628125 
L 68.030837 137.608216 
L 79.225821 147.923223 
L 90.420805 154.922723 
L 101.61579 156.925359 
L 112.810774 159.342828 
L 124.005758 159.933889 
L 135.200743 158.631834 
L 146.395727 165.069635 
L 157.590711 175.346097 
L 168.785696 170.179519 
L 179.98068 168.83922 
L 191.175664 167.00466 
L 202.370649 165.130043 
L 213.565633 166.921107 
L 224.760617 163.617713 
L 235.955601 164.556115 
L 247.150586 163.267247 
L 258.34557 162.065396 
L 269.540554 160.30407 
L 280.735539 160.751813 
L 291.930523 158.675819 
L 303.125507 156.106356 
L 314.320492 155.302033 
L 325.515476 154.085561 
L 336.71046 153.785503 
L 347.905445 152.129038 
L 359.100429 151.580761 
L 370.295413 150.5301 
L 381.490398 150.045055 
" clip-path="url(#p7d8cd9f4ec)" style="fill: none; stroke: #31b57b; stroke-width: 1.5; stroke-linecap: square"/>
   </g>
   <g id="line2d_35">
    <path d="M 56.835852 126.820304 
L 68.030837 133.350545 
L 79.225821 141.956971 
L 90.420805 150.244443 
L 101.61579 158.444271 
L 112.810774 155.963896 
L 124.005758 154.068167 
L 135.200743 158.58201 
L 146.395727 169.588561 
L 157.590711 166.434011 
L 168.785696 163.071382 
L 179.98068 161.087015 
L 191.175664 158.028563 
L 202.370649 157.113681 
L 213.565633 156.697305 
L 224.760617 154.116885 
L 235.955601 155.318953 
L 247.150586 155.074188 
L 258.34557 153.679828 
L 269.540554 154.388123 
L 280.735539 151.931772 
L 291.930523 151.580337 
L 303.125507 149.258215 
L 314.320492 147.913848 
L 325.515476 146.715375 
L 336.71046 146.062891 
L 347.905445 145.083011 
L 359.100429 144.716498 
L 370.295413 143.688173 
L 381.490398 141.656805 
" clip-path="url(#p7d8cd9f4ec)" style="fill: none; stroke: #3fbc73; stroke-width: 1.5; stroke-linecap: square"/>
   </g>
   <g id="line2d_36">
    <path d="M 56.835852 116.254987 
L 68.030837 124.353559 
L 79.225821 135.409415 
L 90.420805 143.946077 
L 101.61579 148.689179 
L 112.810774 155.426243 
L 124.005758 153.774207 
L 135.200743 155.961348 
L 146.395727 166.826703 
L 157.590711 160.831613 
L 168.785696 156.314893 
L 179.98068 153.263338 
L 191.175664 150.399462 
L 202.370649 148.971689 
L 213.565633 147.502469 
L 224.760617 145.681425 
L 235.955601 148.016508 
L 247.150586 147.385157 
L 258.34557 143.650934 
L 269.540554 144.022072 
L 280.735539 141.919441 
L 291.930523 141.882676 
L 303.125507 142.670826 
L 314.320492 140.7628 
L 325.515476 139.012765 
L 336.71046 138.680326 
L 347.905445 137.321206 
L 359.100429 136.284509 
L 370.295413 135.720453 
L 381.490398 134.616858 
" clip-path="url(#p7d8cd9f4ec)" style="fill: none; stroke: #50c46a; stroke-width: 1.5; stroke-linecap: square"/>
   </g>
   <g id="line2d_37">
    <path d="M 56.835852 109.163508 
L 68.030837 116.579024 
L 79.225821 125.873753 
L 90.420805 135.993801 
L 101.61579 141.305611 
L 112.810774 148.790282 
L 124.005758 153.693605 
L 135.200743 154.056897 
L 146.395727 159.291703 
L 157.590711 151.451214 
L 168.785696 148.644163 
L 179.98068 146.06815 
L 191.175664 142.497438 
L 202.370649 141.510401 
L 213.565633 140.378525 
L 224.760617 137.804877 
L 235.955601 138.937805 
L 247.150586 138.487762 
L 258.34557 138.157783 
L 269.540554 138.232766 
L 280.735539 135.63104 
L 291.930523 135.255586 
L 303.125507 134.637815 
L 314.320492 132.389169 
L 325.515476 131.27303 
L 336.71046 130.650955 
L 347.905445 130.459487 
L 359.100429 129.839938 
L 370.295413 128.117205 
L 381.490398 126.835274 
" clip-path="url(#p7d8cd9f4ec)" style="fill: none; stroke: #63cb5f; stroke-width: 1.5; stroke-linecap: square"/>
   </g>
   <g id="line2d_38">
    <path d="M 56.835852 102.087644 
L 68.030837 111.121246 
L 79.225821 125.763074 
L 90.420805 139.185022 
L 101.61579 143.761814 
L 112.810774 150.799203 
L 124.005758 148.61466 
L 135.200743 160.047642 
L 146.395727 151.509843 
L 157.590711 146.4161 
L 168.785696 140.795885 
L 179.98068 138.321086 
L 191.175664 136.040158 
L 202.370649 134.511482 
L 213.565633 132.595549 
L 224.760617 131.023792 
L 235.955601 129.929455 
L 247.150586 129.665811 
L 258.34557 128.981432 
L 269.540554 129.193345 
L 280.735539 128.23119 
L 291.930523 126.994323 
L 303.125507 126.244516 
L 314.320492 125.074711 
L 325.515476 123.887066 
L 336.71046 122.555453 
L 347.905445 122.245369 
L 359.100429 121.589756 
L 370.295413 120.501687 
L 381.490398 118.810441 
" clip-path="url(#p7d8cd9f4ec)" style="fill: none; stroke: #77d153; stroke-width: 1.5; stroke-linecap: square"/>
   </g>
   <g id="line2d_39">
    <path d="M 56.835852 91.841245 
L 68.030837 100.074846 
L 79.225821 112.733146 
L 90.420805 128.30366 
L 101.61579 140.948185 
L 112.810774 144.663283 
L 124.005758 144.665555 
L 135.200743 155.695918 
L 146.395727 147.466882 
L 157.590711 139.262951 
L 168.785696 132.053521 
L 179.98068 131.892767 
L 191.175664 128.359532 
L 202.370649 126.22312 
L 213.565633 122.876378 
L 224.760617 122.712397 
L 235.955601 122.244469 
L 247.150586 120.542846 
L 258.34557 120.698918 
L 269.540554 120.311253 
L 280.735539 120.151336 
L 291.930523 119.98105 
L 303.125507 118.905741 
L 314.320492 118.690763 
L 325.515476 116.283341 
L 336.71046 115.530252 
L 347.905445 113.978521 
L 359.100429 114.451752 
L 370.295413 112.960396 
L 381.490398 112.322882 
" clip-path="url(#p7d8cd9f4ec)" style="fill: none; stroke: #8bd646; stroke-width: 1.5; stroke-linecap: square"/>
   </g>
   <g id="line2d_40">
    <path d="M 56.835852 84.815728 
L 68.030837 93.436148 
L 79.225821 110.181171 
L 90.420805 121.844709 
L 101.61579 135.075562 
L 112.810774 146.273977 
L 124.005758 148.934289 
L 135.200743 152.329327 
L 146.395727 139.650815 
L 157.590711 133.229307 
L 168.785696 126.796057 
L 179.98068 122.605919 
L 191.175664 120.857431 
L 202.370649 118.253959 
L 213.565633 116.320794 
L 224.760617 115.10403 
L 235.955601 113.608013 
L 247.150586 112.260451 
L 258.34557 113.327749 
L 269.540554 111.260232 
L 280.735539 111.563454 
L 291.930523 111.34173 
L 303.125507 109.836595 
L 314.320492 110.009388 
L 325.515476 109.042696 
L 336.71046 106.808572 
L 347.905445 105.832242 
L 359.100429 105.960986 
L 370.295413 105.207629 
L 381.490398 104.147477 
" clip-path="url(#p7d8cd9f4ec)" style="fill: none; stroke: #a2da37; stroke-width: 1.5; stroke-linecap: square"/>
   </g>
   <g id="line2d_41">
    <path d="M 56.835852 76.143546 
L 68.030837 89.148205 
L 79.225821 101.051426 
L 90.420805 119.795501 
L 101.61579 135.928581 
L 112.810774 145.156498 
L 124.005758 153.268764 
L 135.200743 147.596119 
L 146.395727 133.870484 
L 157.590711 126.851165 
L 168.785696 119.74922 
L 179.98068 114.764001 
L 191.175664 113.443327 
L 202.370649 111.173178 
L 213.565633 107.729763 
L 224.760617 106.714405 
L 235.955601 104.519037 
L 247.150586 104.888356 
L 258.34557 104.04158 
L 269.540554 104.700109 
L 280.735539 104.162855 
L 291.930523 102.855623 
L 303.125507 101.55399 
L 314.320492 100.315616 
L 325.515476 100.63797 
L 336.71046 98.430292 
L 347.905445 98.030597 
L 359.100429 96.996796 
L 370.295413 97.799543 
L 381.490398 96.421492 
" clip-path="url(#p7d8cd9f4ec)" style="fill: none; stroke: #bade28; stroke-width: 1.5; stroke-linecap: square"/>
   </g>
   <g id="line2d_42">
    <path d="M 56.835852 68.573446 
L 68.030837 83.856159 
L 79.225821 102.933511 
L 90.420805 123.573524 
L 101.61579 146.617841 
L 112.810774 146.690731 
L 124.005758 154.634401 
L 135.200743 140.089214 
L 146.395727 128.307781 
L 157.590711 121.508083 
L 168.785696 113.276713 
L 179.98068 109.469265 
L 191.175664 106.380979 
L 202.370649 103.647979 
L 213.565633 100.165946 
L 224.760617 98.586871 
L 235.955601 97.959364 
L 247.150586 98.555996 
L 258.34557 95.165118 
L 269.540554 95.433568 
L 280.735539 96.595447 
L 291.930523 95.755633 
L 303.125507 94.320565 
L 314.320492 94.286446 
L 325.515476 92.061372 
L 336.71046 92.207286 
L 347.905445 90.526812 
L 359.100429 90.300465 
L 370.295413 89.129058 
L 381.490398 89.115987 
" clip-path="url(#p7d8cd9f4ec)" style="fill: none; stroke: #d2e21b; stroke-width: 1.5; stroke-linecap: square"/>
   </g>
   <g id="line2d_43">
    <path d="M 56.835852 61.424058 
L 68.030837 79.706469 
L 79.225821 102.758463 
L 90.420805 126.245972 
L 101.61579 141.516128 
L 112.810774 142.35838 
L 124.005758 152.174221 
L 135.200743 135.555095 
L 146.395727 122.044505 
L 157.590711 113.193839 
L 168.785696 107.450986 
L 179.98068 102.047771 
L 191.175664 98.893663 
L 202.370649 95.212427 
L 213.565633 92.829451 
L 224.760617 91.199396 
L 235.955601 90.045639 
L 247.150586 89.041042 
L 258.34557 88.980297 
L 269.540554 86.96374 
L 280.735539 86.904176 
L 291.930523 88.128376 
L 303.125507 86.612767 
L 314.320492 84.888491 
L 325.515476 84.740015 
L 336.71046 83.605712 
L 347.905445 83.332413 
L 359.100429 82.41768 
L 370.295413 82.025069 
L 381.490398 80.634642 
" clip-path="url(#p7d8cd9f4ec)" style="fill: none; stroke: #eae51a; stroke-width: 1.5; stroke-linecap: square"/>
   </g>
   <g id="line2d_44">
    <path d="M 56.835852 53.856 
L 68.030837 72.44745 
L 79.225821 99.804678 
L 90.420805 133.10557 
L 101.61579 149.978258 
L 112.810774 160.322116 
L 124.005758 148.754925 
L 135.200743 130.54289 
L 146.395727 117.865058 
L 157.590711 108.212761 
L 168.785696 99.837591 
L 179.98068 95.846945 
L 191.175664 90.740563 
L 202.370649 88.257362 
L 213.565633 86.498828 
L 224.760617 83.936891 
L 235.955601 81.926714 
L 247.150586 81.899068 
L 258.34557 81.487665 
L 269.540554 79.274599 
L 280.735539 79.708578 
L 291.930523 78.682666 
L 303.125507 77.84884 
L 314.320492 77.197725 
L 325.515476 77.170305 
L 336.71046 76.295117 
L 347.905445 75.477963 
L 359.100429 74.525688 
L 370.295413 74.644626 
L 381.490398 74.238782 
" clip-path="url(#p7d8cd9f4ec)" style="fill: none; stroke: #fde725; stroke-width: 1.5; stroke-linecap: square"/>
   </g>
   <g id="patch_3">
    <path d="M 40.603125 307.872 
L 40.603125 41.76 
" style="fill: none; stroke: #000000; stroke-width: 0.8; stroke-linejoin: miter; stroke-linecap: square"/>
   </g>
   <g id="patch_4">
    <path d="M 397.723125 307.872 
L 397.723125 41.76 
" style="fill: none; stroke: #000000; stroke-width: 0.8; stroke-linejoin: miter; stroke-linecap: square"/>
   </g>
   <g id="patch_5">
    <path d="M 40.603125 307.872 
L 397.723125 307.872 
" style="fill: none; stroke: #000000; stroke-width: 0.8; stroke-linejoin: miter; stroke-linecap: square"/>
   </g>
   <g id="patch_6">
    <path d="M 40.603125 41.76 
L 397.723125 41.76 
" style="fill: none; stroke: #000000; stroke-width: 0.8; stroke-linejoin: miter; stroke-linecap: square"/>
   </g>
   <g id="legend_1">
    <g id="patch_7">
     <path d="M 417.579125 307.872 
L 637.826 307.872 
Q 639.826 307.872 639.826 305.872 
L 639.826 145.412625 
Q 639.826 143.412625 637.826 143.412625 
L 417.579125 143.412625 
Q 415.579125 143.412625 415.579125 145.412625 
L 415.579125 305.872 
Q 415.579125 307.872 417.579125 307.872 
z
" style="fill: #ffffff; opacity: 0.8; stroke: #cccccc; stroke-linejoin: miter"/>
    </g>
    <g id="text_18">
     <!-- Readout pulse amplitude () -->
     <g transform="translate(459.601781 155.011063) scale(0.1 -0.1)">
      <defs>
       <path id="DejaVuSans-52" d="M 2841 2188 
Q 3044 2119 3236 1894 
Q 3428 1669 3622 1275 
L 4263 0 
L 3584 0 
L 2988 1197 
Q 2756 1666 2539 1819 
Q 2322 1972 1947 1972 
L 1259 1972 
L 1259 0 
L 628 0 
L 628 4666 
L 2053 4666 
Q 2853 4666 3247 4331 
Q 3641 3997 3641 3322 
Q 3641 2881 3436 2590 
Q 3231 2300 2841 2188 
z
M 1259 4147 
L 1259 2491 
L 2053 2491 
Q 2509 2491 2742 2702 
Q 2975 2913 2975 3322 
Q 2975 3731 2742 3939 
Q 2509 4147 2053 4147 
L 1259 4147 
z
" transform="scale(0.015625)"/>
       <path id="DejaVuSans-6f" d="M 1959 3097 
Q 1497 3097 1228 2736 
Q 959 2375 959 1747 
Q 959 1119 1226 758 
Q 1494 397 1959 397 
Q 2419 397 2687 759 
Q 2956 1122 2956 1747 
Q 2956 2369 2687 2733 
Q 2419 3097 1959 3097 
z
M 1959 3584 
Q 2709 3584 3137 3096 
Q 3566 2609 3566 1747 
Q 3566 888 3137 398 
Q 2709 -91 1959 -91 
Q 1206 -91 779 398 
Q 353 888 353 1747 
Q 353 2609 779 3096 
Q 1206 3584 1959 3584 
z
" transform="scale(0.015625)"/>
       <path id="DejaVuSans-70" d="M 1159 525 
L 1159 -1331 
L 581 -1331 
L 581 3500 
L 1159 3500 
L 1159 2969 
Q 1341 3281 1617 3432 
Q 1894 3584 2278 3584 
Q 2916 3584 3314 3078 
Q 3713 2572 3713 1747 
Q 3713 922 3314 415 
Q 2916 -91 2278 -91 
Q 1894 -91 1617 61 
Q 1341 213 1159 525 
z
M 3116 1747 
Q 3116 2381 2855 2742 
Q 2594 3103 2138 3103 
Q 1681 3103 1420 2742 
Q 1159 2381 1159 1747 
Q 1159 1113 1420 752 
Q 1681 391 2138 391 
Q 2594 391 2855 752 
Q 3116 1113 3116 1747 
z
" transform="scale(0.015625)"/>
       <path id="DejaVuSans-6c" d="M 603 4863 
L 1178 4863 
L 1178 0 
L 603 0 
L 603 4863 
z
" transform="scale(0.015625)"/>
       <path id="DejaVuSans-73" d="M 2834 3397 
L 2834 2853 
Q 2591 2978 2328 3040 
Q 2066 3103 1784 3103 
Q 1356 3103 1142 2972 
Q 928 2841 928 2578 
Q 928 2378 1081 2264 
Q 1234 2150 1697 2047 
L 1894 2003 
Q 2506 1872 2764 1633 
Q 3022 1394 3022 966 
Q 3022 478 2636 193 
Q 2250 -91 1575 -91 
Q 1294 -91 989 -36 
Q 684 19 347 128 
L 347 722 
Q 666 556 975 473 
Q 1284 391 1588 391 
Q 1994 391 2212 530 
Q 2431 669 2431 922 
Q 2431 1156 2273 1281 
Q 2116 1406 1581 1522 
L 1381 1569 
Q 847 1681 609 1914 
Q 372 2147 372 2553 
Q 372 3047 722 3315 
Q 1072 3584 1716 3584 
Q 2034 3584 2315 3537 
Q 2597 3491 2834 3397 
z
" transform="scale(0.015625)"/>
       <path id="DejaVuSans-28" d="M 1984 4856 
Q 1566 4138 1362 3434 
Q 1159 2731 1159 2009 
Q 1159 1288 1364 580 
Q 1569 -128 1984 -844 
L 1484 -844 
Q 1016 -109 783 600 
Q 550 1309 550 2009 
Q 550 2706 781 3412 
Q 1013 4119 1484 4856 
L 1984 4856 
z
" transform="scale(0.015625)"/>
       <path id="DejaVuSans-29" d="M 513 4856 
L 1013 4856 
Q 1481 4119 1714 3412 
Q 1947 2706 1947 2009 
Q 1947 1309 1714 600 
Q 1481 -109 1013 -844 
L 513 -844 
Q 928 -128 1133 580 
Q 1338 1288 1338 2009 
Q 1338 2731 1133 3434 
Q 928 4138 513 4856 
z
" transform="scale(0.015625)"/>
      </defs>
      <use xlink:href="#DejaVuSans-52"/>
      <use xlink:href="#DejaVuSans-65" x="64.982422"/>
      <use xlink:href="#DejaVuSans-61" x="126.505859"/>
      <use xlink:href="#DejaVuSans-64" x="187.785156"/>
      <use xlink:href="#DejaVuSans-6f" x="251.261719"/>
      <use xlink:href="#DejaVuSans-75" x="312.443359"/>
      <use xlink:href="#DejaVuSans-74" x="375.822266"/>
      <use xlink:href="#DejaVuSans-20" x="415.03125"/>
      <use xlink:href="#DejaVuSans-70" x="446.818359"/>
      <use xlink:href="#DejaVuSans-75" x="510.294922"/>
      <use xlink:href="#DejaVuSans-6c" x="573.673828"/>
      <use xlink:href="#DejaVuSans-73" x="601.457031"/>
      <use xlink:href="#DejaVuSans-65" x="653.556641"/>
      <use xlink:href="#DejaVuSans-20" x="715.080078"/>
      <use xlink:href="#DejaVuSans-61" x="746.867188"/>
      <use xlink:href="#DejaVuSans-6d" x="808.146484"/>
      <use xlink:href="#DejaVuSans-70" x="905.558594"/>
      <use xlink:href="#DejaVuSans-6c" x="969.035156"/>
      <use xlink:href="#DejaVuSans-69" x="996.818359"/>
      <use xlink:href="#DejaVuSans-74" x="1024.601562"/>
      <use xlink:href="#DejaVuSans-75" x="1063.810547"/>
      <use xlink:href="#DejaVuSans-64" x="1127.189453"/>
      <use xlink:href="#DejaVuSans-65" x="1190.666016"/>
      <use xlink:href="#DejaVuSans-20" x="1252.189453"/>
      <use xlink:href="#DejaVuSans-28" x="1283.976562"/>
      <use xlink:href="#DejaVuSans-29" x="1322.990234"/>
     </g>
    </g>
    <g id="line2d_45">
     <path d="M 419.579125 166.189188 
L 429.579125 166.189188 
L 439.579125 166.189188 
" style="fill: none; stroke: #440154; stroke-width: 1.5; stroke-linecap: square"/>
    </g>
    <g id="text_19">
     <!-- 0.01 -->
     <g transform="translate(447.579125 169.689188) scale(0.1 -0.1)">
      <use xlink:href="#DejaVuSans-30"/>
      <use xlink:href="#DejaVuSans-2e" x="63.623047"/>
      <use xlink:href="#DejaVuSans-30" x="95.410156"/>
      <use xlink:href="#DejaVuSans-31" x="159.033203"/>
     </g>
    </g>
    <g id="line2d_46">
     <path d="M 419.579125 180.867313 
L 429.579125 180.867313 
L 439.579125 180.867313 
" style="fill: none; stroke: #470d60; stroke-width: 1.5; stroke-linecap: square"/>
    </g>
    <g id="text_20">
     <!-- 0.0338 -->
     <g transform="translate(447.579125 184.367313) scale(0.1 -0.1)">
      <defs>
       <path id="DejaVuSans-33" d="M 2597 2516 
Q 3050 2419 3304 2112 
Q 3559 1806 3559 1356 
Q 3559 666 3084 287 
Q 2609 -91 1734 -91 
Q 1441 -91 1130 -33 
Q 819 25 488 141 
L 488 750 
Q 750 597 1062 519 
Q 1375 441 1716 441 
Q 2309 441 2620 675 
Q 2931 909 2931 1356 
Q 2931 1769 2642 2001 
Q 2353 2234 1838 2234 
L 1294 2234 
L 1294 2753 
L 1863 2753 
Q 2328 2753 2575 2939 
Q 2822 3125 2822 3475 
Q 2822 3834 2567 4026 
Q 2313 4219 1838 4219 
Q 1578 4219 1281 4162 
Q 984 4106 628 3988 
L 628 4550 
Q 988 4650 1302 4700 
Q 1616 4750 1894 4750 
Q 2613 4750 3031 4423 
Q 3450 4097 3450 3541 
Q 3450 3153 3228 2886 
Q 3006 2619 2597 2516 
z
" transform="scale(0.015625)"/>
      </defs>
      <use xlink:href="#DejaVuSans-30"/>
      <use xlink:href="#DejaVuSans-2e" x="63.623047"/>
      <use xlink:href="#DejaVuSans-30" x="95.410156"/>
      <use xlink:href="#DejaVuSans-33" x="159.033203"/>
      <use xlink:href="#DejaVuSans-33" x="222.65625"/>
      <use xlink:href="#DejaVuSans-38" x="286.279297"/>
     </g>
    </g>
    <g id="line2d_47">
     <path d="M 419.579125 195.545438 
L 429.579125 195.545438 
L 439.579125 195.545438 
" style="fill: none; stroke: #481a6c; stroke-width: 1.5; stroke-linecap: square"/>
    </g>
    <g id="text_21">
     <!-- 0.0576 -->
     <g transform="translate(447.579125 199.045438) scale(0.1 -0.1)">
      <defs>
       <path id="DejaVuSans-36" d="M 2113 2584 
Q 1688 2584 1439 2293 
Q 1191 2003 1191 1497 
Q 1191 994 1439 701 
Q 1688 409 2113 409 
Q 2538 409 2786 701 
Q 3034 994 3034 1497 
Q 3034 2003 2786 2293 
Q 2538 2584 2113 2584 
z
M 3366 4563 
L 3366 3988 
Q 3128 4100 2886 4159 
Q 2644 4219 2406 4219 
Q 1781 4219 1451 3797 
Q 1122 3375 1075 2522 
Q 1259 2794 1537 2939 
Q 1816 3084 2150 3084 
Q 2853 3084 3261 2657 
Q 3669 2231 3669 1497 
Q 3669 778 3244 343 
Q 2819 -91 2113 -91 
Q 1303 -91 875 529 
Q 447 1150 447 2328 
Q 447 3434 972 4092 
Q 1497 4750 2381 4750 
Q 2619 4750 2861 4703 
Q 3103 4656 3366 4563 
z
" transform="scale(0.015625)"/>
      </defs>
      <use xlink:href="#DejaVuSans-30"/>
      <use xlink:href="#DejaVuSans-2e" x="63.623047"/>
      <use xlink:href="#DejaVuSans-30" x="95.410156"/>
      <use xlink:href="#DejaVuSans-35" x="159.033203"/>
      <use xlink:href="#DejaVuSans-37" x="222.65625"/>
      <use xlink:href="#DejaVuSans-36" x="286.279297"/>
     </g>
    </g>
    <g id="line2d_48">
     <path d="M 419.579125 210.223563 
L 429.579125 210.223563 
L 439.579125 210.223563 
" style="fill: none; stroke: #482576; stroke-width: 1.5; stroke-linecap: square"/>
    </g>
    <g id="text_22">
     <!-- 0.0814 -->
     <g transform="translate(447.579125 213.723563) scale(0.1 -0.1)">
      <defs>
       <path id="DejaVuSans-34" d="M 2419 4116 
L 825 1625 
L 2419 1625 
L 2419 4116 
z
M 2253 4666 
L 3047 4666 
L 3047 1625 
L 3713 1625 
L 3713 1100 
L 3047 1100 
L 3047 0 
L 2419 0 
L 2419 1100 
L 313 1100 
L 313 1709 
L 2253 4666 
z
" transform="scale(0.015625)"/>
      </defs>
      <use xlink:href="#DejaVuSans-30"/>
      <use xlink:href="#DejaVuSans-2e" x="63.623047"/>
      <use xlink:href="#DejaVuSans-30" x="95.410156"/>
      <use xlink:href="#DejaVuSans-38" x="159.033203"/>
      <use xlink:href="#DejaVuSans-31" x="222.65625"/>
      <use xlink:href="#DejaVuSans-34" x="286.279297"/>
     </g>
    </g>
    <g id="line2d_49">
     <path d="M 419.579125 224.901688 
L 429.579125 224.901688 
L 439.579125 224.901688 
" style="fill: none; stroke: #46307e; stroke-width: 1.5; stroke-linecap: square"/>
    </g>
    <g id="text_23">
     <!-- 0.105 -->
     <g transform="translate(447.579125 228.401688) scale(0.1 -0.1)">
      <use xlink:href="#DejaVuSans-30"/>
      <use xlink:href="#DejaVuSans-2e" x="63.623047"/>
      <use xlink:href="#DejaVuSans-31" x="95.410156"/>
      <use xlink:href="#DejaVuSans-30" x="159.033203"/>
      <use xlink:href="#DejaVuSans-35" x="222.65625"/>
     </g>
    </g>
    <g id="line2d_50">
     <path d="M 419.579125 239.579813 
L 429.579125 239.579813 
L 439.579125 239.579813 
" style="fill: none; stroke: #443b84; stroke-width: 1.5; stroke-linecap: square"/>
    </g>
    <g id="text_24">
     <!-- 0.129 -->
     <g transform="translate(447.579125 243.079813) scale(0.1 -0.1)">
      <use xlink:href="#DejaVuSans-30"/>
      <use xlink:href="#DejaVuSans-2e" x="63.623047"/>
      <use xlink:href="#DejaVuSans-31" x="95.410156"/>
      <use xlink:href="#DejaVuSans-32" x="159.033203"/>
      <use xlink:href="#DejaVuSans-39" x="222.65625"/>
     </g>
    </g>
    <g id="line2d_51">
     <path d="M 419.579125 254.257938 
L 429.579125 254.257938 
L 439.579125 254.257938 
" style="fill: none; stroke: #404588; stroke-width: 1.5; stroke-linecap: square"/>
    </g>
    <g id="text_25">
     <!-- 0.153 -->
     <g transform="translate(447.579125 257.757938) scale(0.1 -0.1)">
      <use xlink:href="#DejaVuSans-30"/>
      <use xlink:href="#DejaVuSans-2e" x="63.623047"/>
      <use xlink:href="#DejaVuSans-31" x="95.410156"/>
      <use xlink:href="#DejaVuSans-35" x="159.033203"/>
      <use xlink:href="#DejaVuSans-33" x="222.65625"/>
     </g>
    </g>
    <g id="line2d_52">
     <path d="M 419.579125 268.936062 
L 429.579125 268.936062 
L 439.579125 268.936062 
" style="fill: none; stroke: #3c4f8a; stroke-width: 1.5; stroke-linecap: square"/>
    </g>
    <g id="text_26">
     <!-- 0.177 -->
     <g transform="translate(447.579125 272.436062) scale(0.1 -0.1)">
      <use xlink:href="#DejaVuSans-30"/>
      <use xlink:href="#DejaVuSans-2e" x="63.623047"/>
      <use xlink:href="#DejaVuSans-31" x="95.410156"/>
      <use xlink:href="#DejaVuSans-37" x="159.033203"/>
      <use xlink:href="#DejaVuSans-37" x="222.65625"/>
     </g>
    </g>
    <g id="line2d_53">
     <path d="M 419.579125 283.614188 
L 429.579125 283.614188 
L 439.579125 283.614188 
" style="fill: none; stroke: #38598c; stroke-width: 1.5; stroke-linecap: square"/>
    </g>
    <g id="text_27">
     <!-- 0.2 -->
     <g transform="translate(447.579125 287.114188) scale(0.1 -0.1)">
      <use xlink:href="#DejaVuSans-30"/>
      <use xlink:href="#DejaVuSans-2e" x="63.623047"/>
      <use xlink:href="#DejaVuSans-32" x="95.410156"/>
     </g>
    </g>
    <g id="line2d_54">
     <path d="M 419.579125 298.292312 
L 429.579125 298.292312 
L 439.579125 298.292312 
" style="fill: none; stroke: #33628d; stroke-width: 1.5; stroke-linecap: square"/>
    </g>
    <g id="text_28">
     <!-- 0.224 -->
     <g transform="translate(447.579125 301.792312) scale(0.1 -0.1)">
      <use xlink:href="#DejaVuSans-30"/>
      <use xlink:href="#DejaVuSans-2e" x="63.623047"/>
      <use xlink:href="#DejaVuSans-32" x="95.410156"/>
      <use xlink:href="#DejaVuSans-32" x="159.033203"/>
      <use xlink:href="#DejaVuSans-34" x="222.65625"/>
     </g>
    </g>
    <g id="line2d_55">
     <path d="M 502.56975 166.189188 
L 512.56975 166.189188 
L 522.56975 166.189188 
" style="fill: none; stroke: #2f6b8e; stroke-width: 1.5; stroke-linecap: square"/>
    </g>
    <g id="text_29">
     <!-- 0.248 -->
     <g transform="translate(530.56975 169.689188) scale(0.1 -0.1)">
      <use xlink:href="#DejaVuSans-30"/>
      <use xlink:href="#DejaVuSans-2e" x="63.623047"/>
      <use xlink:href="#DejaVuSans-32" x="95.410156"/>
      <use xlink:href="#DejaVuSans-34" x="159.033203"/>
      <use xlink:href="#DejaVuSans-38" x="222.65625"/>
     </g>
    </g>
    <g id="line2d_56">
     <path d="M 502.56975 180.867313 
L 512.56975 180.867313 
L 522.56975 180.867313 
" style="fill: none; stroke: #2c738e; stroke-width: 1.5; stroke-linecap: square"/>
    </g>
    <g id="text_30">
     <!-- 0.272 -->
     <g transform="translate(530.56975 184.367313) scale(0.1 -0.1)">
      <use xlink:href="#DejaVuSans-30"/>
      <use xlink:href="#DejaVuSans-2e" x="63.623047"/>
      <use xlink:href="#DejaVuSans-32" x="95.410156"/>
      <use xlink:href="#DejaVuSans-37" x="159.033203"/>
      <use xlink:href="#DejaVuSans-32" x="222.65625"/>
     </g>
    </g>
    <g id="line2d_57">
     <path d="M 502.56975 195.545438 
L 512.56975 195.545438 
L 522.56975 195.545438 
" style="fill: none; stroke: #297b8e; stroke-width: 1.5; stroke-linecap: square"/>
    </g>
    <g id="text_31">
     <!-- 0.296 -->
     <g transform="translate(530.56975 199.045438) scale(0.1 -0.1)">
      <use xlink:href="#DejaVuSans-30"/>
      <use xlink:href="#DejaVuSans-2e" x="63.623047"/>
      <use xlink:href="#DejaVuSans-32" x="95.410156"/>
      <use xlink:href="#DejaVuSans-39" x="159.033203"/>
      <use xlink:href="#DejaVuSans-36" x="222.65625"/>
     </g>
    </g>
    <g id="line2d_58">
     <path d="M 502.56975 210.223563 
L 512.56975 210.223563 
L 522.56975 210.223563 
" style="fill: none; stroke: #25838e; stroke-width: 1.5; stroke-linecap: square"/>
    </g>
    <g id="text_32">
     <!-- 0.319 -->
     <g transform="translate(530.56975 213.723563) scale(0.1 -0.1)">
      <use xlink:href="#DejaVuSans-30"/>
      <use xlink:href="#DejaVuSans-2e" x="63.623047"/>
      <use xlink:href="#DejaVuSans-33" x="95.410156"/>
      <use xlink:href="#DejaVuSans-31" x="159.033203"/>
      <use xlink:href="#DejaVuSans-39" x="222.65625"/>
     </g>
    </g>
    <g id="line2d_59">
     <path d="M 502.56975 224.901688 
L 512.56975 224.901688 
L 522.56975 224.901688 
" style="fill: none; stroke: #228c8d; stroke-width: 1.5; stroke-linecap: square"/>
    </g>
    <g id="text_33">
     <!-- 0.343 -->
     <g transform="translate(530.56975 228.401688) scale(0.1 -0.1)">
      <use xlink:href="#DejaVuSans-30"/>
      <use xlink:href="#DejaVuSans-2e" x="63.623047"/>
      <use xlink:href="#DejaVuSans-33" x="95.410156"/>
      <use xlink:href="#DejaVuSans-34" x="159.033203"/>
      <use xlink:href="#DejaVuSans-33" x="222.65625"/>
     </g>
    </g>
    <g id="line2d_60">
     <path d="M 502.56975 239.579813 
L 512.56975 239.579813 
L 522.56975 239.579813 
" style="fill: none; stroke: #1f948c; stroke-width: 1.5; stroke-linecap: square"/>
    </g>
    <g id="text_34">
     <!-- 0.367 -->
     <g transform="translate(530.56975 243.079813) scale(0.1 -0.1)">
      <use xlink:href="#DejaVuSans-30"/>
      <use xlink:href="#DejaVuSans-2e" x="63.623047"/>
      <use xlink:href="#DejaVuSans-33" x="95.410156"/>
      <use xlink:href="#DejaVuSans-36" x="159.033203"/>
      <use xlink:href="#DejaVuSans-37" x="222.65625"/>
     </g>
    </g>
    <g id="line2d_61">
     <path d="M 502.56975 254.257938 
L 512.56975 254.257938 
L 522.56975 254.257938 
" style="fill: none; stroke: #1e9d89; stroke-width: 1.5; stroke-linecap: square"/>
    </g>
    <g id="text_35">
     <!-- 0.391 -->
     <g transform="translate(530.56975 257.757938) scale(0.1 -0.1)">
      <use xlink:href="#DejaVuSans-30"/>
      <use xlink:href="#DejaVuSans-2e" x="63.623047"/>
      <use xlink:href="#DejaVuSans-33" x="95.410156"/>
      <use xlink:href="#DejaVuSans-39" x="159.033203"/>
      <use xlink:href="#DejaVuSans-31" x="222.65625"/>
     </g>
    </g>
    <g id="line2d_62">
     <path d="M 502.56975 268.936062 
L 512.56975 268.936062 
L 522.56975 268.936062 
" style="fill: none; stroke: #21a585; stroke-width: 1.5; stroke-linecap: square"/>
    </g>
    <g id="text_36">
     <!-- 0.414 -->
     <g transform="translate(530.56975 272.436062) scale(0.1 -0.1)">
      <use xlink:href="#DejaVuSans-30"/>
      <use xlink:href="#DejaVuSans-2e" x="63.623047"/>
      <use xlink:href="#DejaVuSans-34" x="95.410156"/>
      <use xlink:href="#DejaVuSans-31" x="159.033203"/>
      <use xlink:href="#DejaVuSans-34" x="222.65625"/>
     </g>
    </g>
    <g id="line2d_63">
     <path d="M 502.56975 283.614188 
L 512.56975 283.614188 
L 522.56975 283.614188 
" style="fill: none; stroke: #26ad81; stroke-width: 1.5; stroke-linecap: square"/>
    </g>
    <g id="text_37">
     <!-- 0.438 -->
     <g transform="translate(530.56975 287.114188) scale(0.1 -0.1)">
      <use xlink:href="#DejaVuSans-30"/>
      <use xlink:href="#DejaVuSans-2e" x="63.623047"/>
      <use xlink:href="#DejaVuSans-34" x="95.410156"/>
      <use xlink:href="#DejaVuSans-33" x="159.033203"/>
      <use xlink:href="#DejaVuSans-38" x="222.65625"/>
     </g>
    </g>
    <g id="line2d_64">
     <path d="M 502.56975 298.292312 
L 512.56975 298.292312 
L 522.56975 298.292312 
" style="fill: none; stroke: #31b57b; stroke-width: 1.5; stroke-linecap: square"/>
    </g>
    <g id="text_38">
     <!-- 0.462 -->
     <g transform="translate(530.56975 301.792312) scale(0.1 -0.1)">
      <use xlink:href="#DejaVuSans-30"/>
      <use xlink:href="#DejaVuSans-2e" x="63.623047"/>
      <use xlink:href="#DejaVuSans-34" x="95.410156"/>
      <use xlink:href="#DejaVuSans-36" x="159.033203"/>
      <use xlink:href="#DejaVuSans-32" x="222.65625"/>
     </g>
    </g>
    <g id="line2d_65">
     <path d="M 579.197875 166.189188 
L 589.197875 166.189188 
L 599.197875 166.189188 
" style="fill: none; stroke: #3fbc73; stroke-width: 1.5; stroke-linecap: square"/>
    </g>
    <g id="text_39">
     <!-- 0.486 -->
     <g transform="translate(607.197875 169.689188) scale(0.1 -0.1)">
      <use xlink:href="#DejaVuSans-30"/>
      <use xlink:href="#DejaVuSans-2e" x="63.623047"/>
      <use xlink:href="#DejaVuSans-34" x="95.410156"/>
      <use xlink:href="#DejaVuSans-38" x="159.033203"/>
      <use xlink:href="#DejaVuSans-36" x="222.65625"/>
     </g>
    </g>
    <g id="line2d_66">
     <path d="M 579.197875 180.867313 
L 589.197875 180.867313 
L 599.197875 180.867313 
" style="fill: none; stroke: #50c46a; stroke-width: 1.5; stroke-linecap: square"/>
    </g>
    <g id="text_40">
     <!-- 0.51 -->
     <g transform="translate(607.197875 184.367313) scale(0.1 -0.1)">
      <use xlink:href="#DejaVuSans-30"/>
      <use xlink:href="#DejaVuSans-2e" x="63.623047"/>
      <use xlink:href="#DejaVuSans-35" x="95.410156"/>
      <use xlink:href="#DejaVuSans-31" x="159.033203"/>
     </g>
    </g>
    <g id="line2d_67">
     <path d="M 579.197875 195.545438 
L 589.197875 195.545438 
L 599.197875 195.545438 
" style="fill: none; stroke: #63cb5f; stroke-width: 1.5; stroke-linecap: square"/>
    </g>
    <g id="text_41">
     <!-- 0.533 -->
     <g transform="translate(607.197875 199.045438) scale(0.1 -0.1)">
      <use xlink:href="#DejaVuSans-30"/>
      <use xlink:href="#DejaVuSans-2e" x="63.623047"/>
      <use xlink:href="#DejaVuSans-35" x="95.410156"/>
      <use xlink:href="#DejaVuSans-33" x="159.033203"/>
      <use xlink:href="#DejaVuSans-33" x="222.65625"/>
     </g>
    </g>
    <g id="line2d_68">
     <path d="M 579.197875 210.223563 
L 589.197875 210.223563 
L 599.197875 210.223563 
" style="fill: none; stroke: #77d153; stroke-width: 1.5; stroke-linecap: square"/>
    </g>
    <g id="text_42">
     <!-- 0.557 -->
     <g transform="translate(607.197875 213.723563) scale(0.1 -0.1)">
      <use xlink:href="#DejaVuSans-30"/>
      <use xlink:href="#DejaVuSans-2e" x="63.623047"/>
      <use xlink:href="#DejaVuSans-35" x="95.410156"/>
      <use xlink:href="#DejaVuSans-35" x="159.033203"/>
      <use xlink:href="#DejaVuSans-37" x="222.65625"/>
     </g>
    </g>
    <g id="line2d_69">
     <path d="M 579.197875 224.901688 
L 589.197875 224.901688 
L 599.197875 224.901688 
" style="fill: none; stroke: #8bd646; stroke-width: 1.5; stroke-linecap: square"/>
    </g>
    <g id="text_43">
     <!-- 0.581 -->
     <g transform="translate(607.197875 228.401688) scale(0.1 -0.1)">
      <use xlink:href="#DejaVuSans-30"/>
      <use xlink:href="#DejaVuSans-2e" x="63.623047"/>
      <use xlink:href="#DejaVuSans-35" x="95.410156"/>
      <use xlink:href="#DejaVuSans-38" x="159.033203"/>
      <use xlink:href="#DejaVuSans-31" x="222.65625"/>
     </g>
    </g>
    <g id="line2d_70">
     <path d="M 579.197875 239.579813 
L 589.197875 239.579813 
L 599.197875 239.579813 
" style="fill: none; stroke: #a2da37; stroke-width: 1.5; stroke-linecap: square"/>
    </g>
    <g id="text_44">
     <!-- 0.605 -->
     <g transform="translate(607.197875 243.079813) scale(0.1 -0.1)">
      <use xlink:href="#DejaVuSans-30"/>
      <use xlink:href="#DejaVuSans-2e" x="63.623047"/>
      <use xlink:href="#DejaVuSans-36" x="95.410156"/>
      <use xlink:href="#DejaVuSans-30" x="159.033203"/>
      <use xlink:href="#DejaVuSans-35" x="222.65625"/>
     </g>
    </g>
    <g id="line2d_71">
     <path d="M 579.197875 254.257938 
L 589.197875 254.257938 
L 599.197875 254.257938 
" style="fill: none; stroke: #bade28; stroke-width: 1.5; stroke-linecap: square"/>
    </g>
    <g id="text_45">
     <!-- 0.629 -->
     <g transform="translate(607.197875 257.757938) scale(0.1 -0.1)">
      <use xlink:href="#DejaVuSans-30"/>
      <use xlink:href="#DejaVuSans-2e" x="63.623047"/>
      <use xlink:href="#DejaVuSans-36" x="95.410156"/>
      <use xlink:href="#DejaVuSans-32" x="159.033203"/>
      <use xlink:href="#DejaVuSans-39" x="222.65625"/>
     </g>
    </g>
    <g id="line2d_72">
     <path d="M 579.197875 268.936062 
L 589.197875 268.936062 
L 599.197875 268.936062 
" style="fill: none; stroke: #d2e21b; stroke-width: 1.5; stroke-linecap: square"/>
    </g>
    <g id="text_46">
     <!-- 0.652 -->
     <g transform="translate(607.197875 272.436062) scale(0.1 -0.1)">
      <use xlink:href="#DejaVuSans-30"/>
      <use xlink:href="#DejaVuSans-2e" x="63.623047"/>
      <use xlink:href="#DejaVuSans-36" x="95.410156"/>
      <use xlink:href="#DejaVuSans-35" x="159.033203"/>
      <use xlink:href="#DejaVuSans-32" x="222.65625"/>
     </g>
    </g>
    <g id="line2d_73">
     <path d="M 579.197875 283.614188 
L 589.197875 283.614188 
L 599.197875 283.614188 
" style="fill: none; stroke: #eae51a; stroke-width: 1.5; stroke-linecap: square"/>
    </g>
    <g id="text_47">
     <!-- 0.676 -->
     <g transform="translate(607.197875 287.114188) scale(0.1 -0.1)">
      <use xlink:href="#DejaVuSans-30"/>
      <use xlink:href="#DejaVuSans-2e" x="63.623047"/>
      <use xlink:href="#DejaVuSans-36" x="95.410156"/>
      <use xlink:href="#DejaVuSans-37" x="159.033203"/>
      <use xlink:href="#DejaVuSans-36" x="222.65625"/>
     </g>
    </g>
    <g id="line2d_74">
     <path d="M 579.197875 298.292312 
L 589.197875 298.292312 
L 599.197875 298.292312 
" style="fill: none; stroke: #fde725; stroke-width: 1.5; stroke-linecap: square"/>
    </g>
    <g id="text_48">
     <!-- 0.7 -->
     <g transform="translate(607.197875 301.792312) scale(0.1 -0.1)">
      <use xlink:href="#DejaVuSans-30"/>
      <use xlink:href="#DejaVuSans-2e" x="63.623047"/>
      <use xlink:href="#DejaVuSans-37" x="95.410156"/>
     </g>
    </g>
   </g>
  </g>
  <g id="text_49">
   <!-- x0x1-y0 resonator punchout -->
   <g transform="translate(128.292188 16.318125) scale(0.12 -0.12)">
    <defs>
     <path id="DejaVuSans-78" d="M 3513 3500 
L 2247 1797 
L 3578 0 
L 2900 0 
L 1881 1375 
L 863 0 
L 184 0 
L 1544 1831 
L 300 3500 
L 978 3500 
L 1906 2253 
L 2834 3500 
L 3513 3500 
z
" transform="scale(0.015625)"/>
     <path id="DejaVuSans-2d" d="M 313 2009 
L 1997 2009 
L 1997 1497 
L 313 1497 
L 313 2009 
z
" transform="scale(0.015625)"/>
     <path id="DejaVuSans-68" d="M 3513 2113 
L 3513 0 
L 2938 0 
L 2938 2094 
Q 2938 2591 2744 2837 
Q 2550 3084 2163 3084 
Q 1697 3084 1428 2787 
Q 1159 2491 1159 1978 
L 1159 0 
L 581 0 
L 581 4863 
L 1159 4863 
L 1159 2956 
Q 1366 3272 1645 3428 
Q 1925 3584 2291 3584 
Q 2894 3584 3203 3211 
Q 3513 2838 3513 2113 
z
" transform="scale(0.015625)"/>
    </defs>
    <use xlink:href="#DejaVuSans-78"/>
    <use xlink:href="#DejaVuSans-30" x="59.179688"/>
    <use xlink:href="#DejaVuSans-78" x="122.802734"/>
    <use xlink:href="#DejaVuSans-31" x="181.982422"/>
    <use xlink:href="#DejaVuSans-2d" x="245.605469"/>
    <use xlink:href="#DejaVuSans-79" x="279.939453"/>
    <use xlink:href="#DejaVuSans-30" x="339.119141"/>
    <use xlink:href="#DejaVuSans-20" x="402.742188"/>
    <use xlink:href="#DejaVuSans-72" x="434.529297"/>
    <use xlink:href="#DejaVuSans-65" x="473.392578"/>
    <use xlink:href="#DejaVuSans-73" x="534.916016"/>
    <use xlink:href="#DejaVuSans-6f" x="587.015625"/>
    <use xlink:href="#DejaVuSans-6e" x="648.197266"/>
    <use xlink:href="#DejaVuSans-61" x="711.576172"/>
    <use xlink:href="#DejaVuSans-74" x="772.855469"/>
    <use xlink:href="#DejaVuSans-6f" x="812.064453"/>
    <use xlink:href="#DejaVuSans-72" x="873.246094"/>
    <use xlink:href="#DejaVuSans-20" x="914.359375"/>
    <use xlink:href="#DejaVuSans-70" x="946.146484"/>
    <use xlink:href="#DejaVuSans-75" x="1009.623047"/>
    <use xlink:href="#DejaVuSans-6e" x="1073.001953"/>
    <use xlink:href="#DejaVuSans-63" x="1136.380859"/>
    <use xlink:href="#DejaVuSans-68" x="1191.361328"/>
    <use xlink:href="#DejaVuSans-6f" x="1254.740234"/>
    <use xlink:href="#DejaVuSans-75" x="1315.921875"/>
    <use xlink:href="#DejaVuSans-74" x="1379.300781"/>
   </g>
   <!-- tuid: 20231227-160852-494-456077 -->
   <g transform="translate(103.547813 29.7555) scale(0.12 -0.12)">
    <defs>
     <path id="DejaVuSans-3a" d="M 750 794 
L 1409 794 
L 1409 0 
L 750 0 
L 750 794 
z
M 750 3309 
L 1409 3309 
L 1409 2516 
L 750 2516 
L 750 3309 
z
" transform="scale(0.015625)"/>
    </defs>
    <use xlink:href="#DejaVuSans-74"/>
    <use xlink:href="#DejaVuSans-75" x="39.208984"/>
    <use xlink:href="#DejaVuSans-69" x="102.587891"/>
    <use xlink:href="#DejaVuSans-64" x="130.371094"/>
    <use xlink:href="#DejaVuSans-3a" x="193.847656"/>
    <use xlink:href="#DejaVuSans-20" x="227.539062"/>
    <use xlink:href="#DejaVuSans-32" x="259.326172"/>
    <use xlink:href="#DejaVuSans-30" x="322.949219"/>
    <use xlink:href="#DejaVuSans-32" x="386.572266"/>
    <use xlink:href="#DejaVuSans-33" x="450.195312"/>
    <use xlink:href="#DejaVuSans-31" x="513.818359"/>
    <use xlink:href="#DejaVuSans-32" x="577.441406"/>
    <use xlink:href="#DejaVuSans-32" x="641.064453"/>
    <use xlink:href="#DejaVuSans-37" x="704.6875"/>
    <use xlink:href="#DejaVuSans-2d" x="768.310547"/>
    <use xlink:href="#DejaVuSans-31" x="804.394531"/>
    <use xlink:href="#DejaVuSans-36" x="868.017578"/>
    <use xlink:href="#DejaVuSans-30" x="931.640625"/>
    <use xlink:href="#DejaVuSans-38" x="995.263672"/>
    <use xlink:href="#DejaVuSans-35" x="1058.886719"/>
    <use xlink:href="#DejaVuSans-32" x="1122.509766"/>
    <use xlink:href="#DejaVuSans-2d" x="1186.132812"/>
    <use xlink:href="#DejaVuSans-34" x="1222.216797"/>
    <use xlink:href="#DejaVuSans-39" x="1285.839844"/>
    <use xlink:href="#DejaVuSans-34" x="1349.462891"/>
    <use xlink:href="#DejaVuSans-2d" x="1413.085938"/>
    <use xlink:href="#DejaVuSans-34" x="1449.169922"/>
    <use xlink:href="#DejaVuSans-35" x="1512.792969"/>
    <use xlink:href="#DejaVuSans-36" x="1576.416016"/>
    <use xlink:href="#DejaVuSans-30" x="1640.039062"/>
    <use xlink:href="#DejaVuSans-37" x="1703.662109"/>
    <use xlink:href="#DejaVuSans-37" x="1767.285156"/>
   </g>
  </g>
 </g>
 <defs>
  <clipPath id="p7d8cd9f4ec">
   <rect x="40.603125" y="41.76" width="357.12" height="266.112"/>
  </clipPath>
 </defs>
</svg>
