<?xml version="1.0" encoding="utf-8" standalone="no"?>
<!DOCTYPE svg PUBLIC "-//W3C//DTD SVG 1.1//EN"
  "http://www.w3.org/Graphics/SVG/1.1/DTD/svg11.dtd">
<svg xmlns:xlink="http://www.w3.org/1999/xlink" width="578.271312pt" height="345.42825pt" viewBox="0 0 578.271312 345.42825" xmlns="http://www.w3.org/2000/svg" version="1.1">
 <metadata>
  <rdf:RDF xmlns:dc="http://purl.org/dc/elements/1.1/" xmlns:cc="http://creativecommons.org/ns#" xmlns:rdf="http://www.w3.org/1999/02/22-rdf-syntax-ns#">
   <cc:Work>
    <dc:type rdf:resource="http://purl.org/dc/dcmitype/StillImage"/>
    <dc:date>2023-12-27T16:07:48.119864</dc:date>
    <dc:format>image/svg+xml</dc:format>
    <dc:creator>
     <cc:Agent>
      <dc:title>Matplotlib v3.8.2, https://matplotlib.org/</dc:title>
     </cc:Agent>
    </dc:creator>
   </cc:Work>
  </rdf:RDF>
 </metadata>
 <defs>
  <style type="text/css">*{stroke-linejoin: round; stroke-linecap: butt}</style>
 </defs>
 <g id="figure_1">
  <g id="patch_1">
   <path d="M 0 345.42825 
L 578.271312 345.42825 
L 578.271312 -0 
L 0 -0 
L 0 345.42825 
z
" style="fill: none; opacity: 0"/>
  </g>
  <g id="axes_1">
   <g id="patch_2">
    <path d="M 50.595313 162.72 
L 407.715312 162.72 
L 407.715312 41.76 
L 50.595313 41.76 
z
" style="fill: #ffffff"/>
   </g>
   <g id="matplotlib.axis_1">
    <g id="xtick_1">
     <g id="line2d_1">
      <defs>
       <path id="m09c3b1bf9d" d="M 0 0 
L 0 3.5 
" style="stroke: #000000; stroke-width: 0.8"/>
      </defs>
      <g>
       <use xlink:href="#m09c3b1bf9d" x="114.173494" y="162.72" style="stroke: #000000; stroke-width: 0.8"/>
      </g>
     </g>
    </g>
    <g id="xtick_2">
     <g id="line2d_2">
      <g>
       <use xlink:href="#m09c3b1bf9d" x="181.809858" y="162.72" style="stroke: #000000; stroke-width: 0.8"/>
      </g>
     </g>
    </g>
    <g id="xtick_3">
     <g id="line2d_3">
      <g>
       <use xlink:href="#m09c3b1bf9d" x="249.446222" y="162.72" style="stroke: #000000; stroke-width: 0.8"/>
      </g>
     </g>
    </g>
    <g id="xtick_4">
     <g id="line2d_4">
      <g>
       <use xlink:href="#m09c3b1bf9d" x="317.082585" y="162.72" style="stroke: #000000; stroke-width: 0.8"/>
      </g>
     </g>
    </g>
    <g id="xtick_5">
     <g id="line2d_5">
      <g>
       <use xlink:href="#m09c3b1bf9d" x="384.718949" y="162.72" style="stroke: #000000; stroke-width: 0.8"/>
      </g>
     </g>
    </g>
   </g>
   <g id="matplotlib.axis_2">
    <g id="ytick_1">
     <g id="line2d_6">
      <defs>
       <path id="m79758dbf92" d="M 0 0 
L -3.5 0 
" style="stroke: #000000; stroke-width: 0.8"/>
      </defs>
      <g>
       <use xlink:href="#m79758dbf92" x="50.595313" y="150.654993" style="stroke: #000000; stroke-width: 0.8"/>
      </g>
     </g>
     <g id="text_1">
      <!-- 2 -->
      <g transform="translate(37.232813 154.454212) scale(0.1 -0.1)">
       <defs>
        <path id="DejaVuSans-32" d="M 1228 531 
L 3431 531 
L 3431 0 
L 469 0 
L 469 531 
Q 828 903 1448 1529 
Q 2069 2156 2228 2338 
Q 2531 2678 2651 2914 
Q 2772 3150 2772 3378 
Q 2772 3750 2511 3984 
Q 2250 4219 1831 4219 
Q 1534 4219 1204 4116 
Q 875 4013 500 3803 
L 500 4441 
Q 881 4594 1212 4672 
Q 1544 4750 1819 4750 
Q 2544 4750 2975 4387 
Q 3406 4025 3406 3419 
Q 3406 3131 3298 2873 
Q 3191 2616 2906 2266 
Q 2828 2175 2409 1742 
Q 1991 1309 1228 531 
z
" transform="scale(0.015625)"/>
       </defs>
       <use xlink:href="#DejaVuSans-32"/>
      </g>
     </g>
    </g>
    <g id="ytick_2">
     <g id="line2d_7">
      <g>
       <use xlink:href="#m79758dbf92" x="50.595313" y="128.474417" style="stroke: #000000; stroke-width: 0.8"/>
      </g>
     </g>
     <g id="text_2">
      <!-- 4 -->
      <g transform="translate(37.232813 132.273636) scale(0.1 -0.1)">
       <defs>
        <path id="DejaVuSans-34" d="M 2419 4116 
L 825 1625 
L 2419 1625 
L 2419 4116 
z
M 2253 4666 
L 3047 4666 
L 3047 1625 
L 3713 1625 
L 3713 1100 
L 3047 1100 
L 3047 0 
L 2419 0 
L 2419 1100 
L 313 1100 
L 313 1709 
L 2253 4666 
z
" transform="scale(0.015625)"/>
       </defs>
       <use xlink:href="#DejaVuSans-34"/>
      </g>
     </g>
    </g>
    <g id="ytick_3">
     <g id="line2d_8">
      <g>
       <use xlink:href="#m79758dbf92" x="50.595313" y="106.293841" style="stroke: #000000; stroke-width: 0.8"/>
      </g>
     </g>
     <g id="text_3">
      <!-- 6 -->
      <g transform="translate(37.232813 110.09306) scale(0.1 -0.1)">
       <defs>
        <path id="DejaVuSans-36" d="M 2113 2584 
Q 1688 2584 1439 2293 
Q 1191 2003 1191 1497 
Q 1191 994 1439 701 
Q 1688 409 2113 409 
Q 2538 409 2786 701 
Q 3034 994 3034 1497 
Q 3034 2003 2786 2293 
Q 2538 2584 2113 2584 
z
M 3366 4563 
L 3366 3988 
Q 3128 4100 2886 4159 
Q 2644 4219 2406 4219 
Q 1781 4219 1451 3797 
Q 1122 3375 1075 2522 
Q 1259 2794 1537 2939 
Q 1816 3084 2150 3084 
Q 2853 3084 3261 2657 
Q 3669 2231 3669 1497 
Q 3669 778 3244 343 
Q 2819 -91 2113 -91 
Q 1303 -91 875 529 
Q 447 1150 447 2328 
Q 447 3434 972 4092 
Q 1497 4750 2381 4750 
Q 2619 4750 2861 4703 
Q 3103 4656 3366 4563 
z
" transform="scale(0.015625)"/>
       </defs>
       <use xlink:href="#DejaVuSans-36"/>
      </g>
     </g>
    </g>
    <g id="ytick_4">
     <g id="line2d_9">
      <g>
       <use xlink:href="#m79758dbf92" x="50.595313" y="84.113265" style="stroke: #000000; stroke-width: 0.8"/>
      </g>
     </g>
     <g id="text_4">
      <!-- 8 -->
      <g transform="translate(37.232813 87.912484) scale(0.1 -0.1)">
       <defs>
        <path id="DejaVuSans-38" d="M 2034 2216 
Q 1584 2216 1326 1975 
Q 1069 1734 1069 1313 
Q 1069 891 1326 650 
Q 1584 409 2034 409 
Q 2484 409 2743 651 
Q 3003 894 3003 1313 
Q 3003 1734 2745 1975 
Q 2488 2216 2034 2216 
z
M 1403 2484 
Q 997 2584 770 2862 
Q 544 3141 544 3541 
Q 544 4100 942 4425 
Q 1341 4750 2034 4750 
Q 2731 4750 3128 4425 
Q 3525 4100 3525 3541 
Q 3525 3141 3298 2862 
Q 3072 2584 2669 2484 
Q 3125 2378 3379 2068 
Q 3634 1759 3634 1313 
Q 3634 634 3220 271 
Q 2806 -91 2034 -91 
Q 1263 -91 848 271 
Q 434 634 434 1313 
Q 434 1759 690 2068 
Q 947 2378 1403 2484 
z
M 1172 3481 
Q 1172 3119 1398 2916 
Q 1625 2713 2034 2713 
Q 2441 2713 2670 2916 
Q 2900 3119 2900 3481 
Q 2900 3844 2670 4047 
Q 2441 4250 2034 4250 
Q 1625 4250 1398 4047 
Q 1172 3844 1172 3481 
z
" transform="scale(0.015625)"/>
       </defs>
       <use xlink:href="#DejaVuSans-38"/>
      </g>
     </g>
    </g>
    <g id="ytick_5">
     <g id="line2d_10">
      <g>
       <use xlink:href="#m79758dbf92" x="50.595313" y="61.932689" style="stroke: #000000; stroke-width: 0.8"/>
      </g>
     </g>
     <g id="text_5">
      <!-- 10 -->
      <g transform="translate(30.870313 65.731908) scale(0.1 -0.1)">
       <defs>
        <path id="DejaVuSans-31" d="M 794 531 
L 1825 531 
L 1825 4091 
L 703 3866 
L 703 4441 
L 1819 4666 
L 2450 4666 
L 2450 531 
L 3481 531 
L 3481 0 
L 794 0 
L 794 531 
z
" transform="scale(0.015625)"/>
        <path id="DejaVuSans-30" d="M 2034 4250 
Q 1547 4250 1301 3770 
Q 1056 3291 1056 2328 
Q 1056 1369 1301 889 
Q 1547 409 2034 409 
Q 2525 409 2770 889 
Q 3016 1369 3016 2328 
Q 3016 3291 2770 3770 
Q 2525 4250 2034 4250 
z
M 2034 4750 
Q 2819 4750 3233 4129 
Q 3647 3509 3647 2328 
Q 3647 1150 3233 529 
Q 2819 -91 2034 -91 
Q 1250 -91 836 529 
Q 422 1150 422 2328 
Q 422 3509 836 4129 
Q 1250 4750 2034 4750 
z
" transform="scale(0.015625)"/>
       </defs>
       <use xlink:href="#DejaVuSans-31"/>
       <use xlink:href="#DejaVuSans-30" x="63.623047"/>
      </g>
     </g>
    </g>
    <g id="text_6">
     <!-- $|S_{21}|$ [mV] -->
     <g transform="translate(24.470313 127.19) rotate(-90) scale(0.1 -0.1)">
      <defs>
       <path id="DejaVuSans-7c" d="M 1344 4891 
L 1344 -1509 
L 813 -1509 
L 813 4891 
L 1344 4891 
z
" transform="scale(0.015625)"/>
       <path id="DejaVuSans-Oblique-53" d="M 3859 4513 
L 3738 3897 
Q 3422 4066 3111 4152 
Q 2800 4238 2509 4238 
Q 1944 4238 1609 3991 
Q 1275 3744 1275 3334 
Q 1275 3109 1398 2989 
Q 1522 2869 2034 2731 
L 2413 2638 
Q 3053 2472 3303 2217 
Q 3553 1963 3553 1503 
Q 3553 797 2998 353 
Q 2444 -91 1538 -91 
Q 1166 -91 791 -17 
Q 416 56 38 206 
L 166 856 
Q 513 641 861 531 
Q 1209 422 1556 422 
Q 2147 422 2503 684 
Q 2859 947 2859 1369 
Q 2859 1650 2717 1795 
Q 2575 1941 2106 2059 
L 1728 2156 
Q 1081 2325 845 2545 
Q 609 2766 609 3163 
Q 609 3859 1145 4304 
Q 1681 4750 2541 4750 
Q 2875 4750 3203 4690 
Q 3531 4631 3859 4513 
z
" transform="scale(0.015625)"/>
       <path id="DejaVuSans-20" transform="scale(0.015625)"/>
       <path id="DejaVuSans-5b" d="M 550 4863 
L 1875 4863 
L 1875 4416 
L 1125 4416 
L 1125 -397 
L 1875 -397 
L 1875 -844 
L 550 -844 
L 550 4863 
z
" transform="scale(0.015625)"/>
       <path id="DejaVuSans-6d" d="M 3328 2828 
Q 3544 3216 3844 3400 
Q 4144 3584 4550 3584 
Q 5097 3584 5394 3201 
Q 5691 2819 5691 2113 
L 5691 0 
L 5113 0 
L 5113 2094 
Q 5113 2597 4934 2840 
Q 4756 3084 4391 3084 
Q 3944 3084 3684 2787 
Q 3425 2491 3425 1978 
L 3425 0 
L 2847 0 
L 2847 2094 
Q 2847 2600 2669 2842 
Q 2491 3084 2119 3084 
Q 1678 3084 1418 2786 
Q 1159 2488 1159 1978 
L 1159 0 
L 581 0 
L 581 3500 
L 1159 3500 
L 1159 2956 
Q 1356 3278 1631 3431 
Q 1906 3584 2284 3584 
Q 2666 3584 2933 3390 
Q 3200 3197 3328 2828 
z
" transform="scale(0.015625)"/>
       <path id="DejaVuSans-56" d="M 1831 0 
L 50 4666 
L 709 4666 
L 2188 738 
L 3669 4666 
L 4325 4666 
L 2547 0 
L 1831 0 
z
" transform="scale(0.015625)"/>
       <path id="DejaVuSans-5d" d="M 1947 4863 
L 1947 -844 
L 622 -844 
L 622 -397 
L 1369 -397 
L 1369 4416 
L 622 4416 
L 622 4863 
L 1947 4863 
z
" transform="scale(0.015625)"/>
      </defs>
      <use xlink:href="#DejaVuSans-7c" transform="translate(0 0.578125)"/>
      <use xlink:href="#DejaVuSans-Oblique-53" transform="translate(33.691406 0.578125)"/>
      <use xlink:href="#DejaVuSans-32" transform="translate(97.167969 -15.828125) scale(0.7)"/>
      <use xlink:href="#DejaVuSans-31" transform="translate(141.704102 -15.828125) scale(0.7)"/>
      <use xlink:href="#DejaVuSans-7c" transform="translate(188.974609 0.578125)"/>
      <use xlink:href="#DejaVuSans-20" transform="translate(222.666016 0.578125)"/>
      <use xlink:href="#DejaVuSans-5b" transform="translate(254.453125 0.578125)"/>
      <use xlink:href="#DejaVuSans-6d" transform="translate(293.466797 0.578125)"/>
      <use xlink:href="#DejaVuSans-56" transform="translate(390.878906 0.578125)"/>
      <use xlink:href="#DejaVuSans-5d" transform="translate(459.287109 0.578125)"/>
     </g>
    </g>
   </g>
   <g id="line2d_11">
    <path d="M 66.82804 51.290283 
L 68.45947 50.736358 
L 71.722329 49.968637 
L 73.353759 50.731643 
L 74.985189 48.572656 
L 76.616619 49.867925 
L 78.248049 50.39729 
L 79.879479 50.34211 
L 81.510909 50.922752 
L 83.142339 48.932275 
L 84.773768 49.966781 
L 86.405198 50.513835 
L 88.036628 50.011994 
L 89.668058 50.172965 
L 91.299488 50.168494 
L 92.930918 50.600894 
L 94.562348 50.748712 
L 96.193778 50.136668 
L 97.825207 49.338475 
L 99.456637 49.981893 
L 101.088067 50.871471 
L 102.719497 49.648087 
L 104.350927 49.946838 
L 105.982357 49.941682 
L 107.613787 50.343562 
L 109.245217 49.045711 
L 110.876646 49.751422 
L 112.508076 49.940246 
L 114.139506 49.711377 
L 115.770936 49.167571 
L 117.402366 49.11933 
L 119.033796 50.296229 
L 120.665226 49.642897 
L 122.296656 49.674688 
L 123.928085 48.192291 
L 125.559515 50.062175 
L 127.190945 49.908669 
L 128.822375 49.213292 
L 130.453805 49.857086 
L 132.085235 48.684755 
L 133.716665 48.559621 
L 135.348095 50.541096 
L 136.979524 49.327424 
L 138.610954 48.565556 
L 140.242384 49.767695 
L 141.873814 48.824208 
L 143.505244 50.134468 
L 145.136674 49.602528 
L 148.399534 47.259931 
L 150.030963 49.383429 
L 151.662393 48.158266 
L 153.293823 48.276001 
L 154.925253 48.590485 
L 156.556683 48.422575 
L 158.188113 47.312011 
L 159.819543 48.900552 
L 161.450973 48.522055 
L 163.082402 49.186379 
L 164.713832 48.167562 
L 166.345262 48.564508 
L 167.976692 47.258182 
L 169.608122 48.092754 
L 171.239552 48.351183 
L 172.870982 49.185449 
L 174.502412 47.990586 
L 176.133842 50.01469 
L 177.765271 48.977731 
L 179.396701 48.850373 
L 181.028131 50.141937 
L 182.659561 50.457864 
L 184.290991 50.389001 
L 185.922421 50.738856 
L 187.553851 51.989334 
L 189.185281 50.616837 
L 190.81671 52.587098 
L 192.44814 52.704382 
L 194.07957 53.026685 
L 195.711 53.188916 
L 197.34243 55.953746 
L 198.97386 55.711202 
L 200.60529 57.409767 
L 202.23672 60.051094 
L 203.868149 63.672541 
L 205.499579 66.883688 
L 207.131009 68.414602 
L 208.762439 74.653226 
L 210.393869 77.808033 
L 212.025299 83.471403 
L 213.656729 90.914138 
L 215.288159 99.588752 
L 218.551018 119.640621 
L 221.813878 143.32122 
L 223.445308 152.365506 
L 225.076738 155.875962 
L 226.708168 151.2979 
L 229.971027 131.618083 
L 231.602457 121.442887 
L 233.233887 114.310569 
L 234.865317 106.227993 
L 236.496747 100.004329 
L 243.022466 82.258893 
L 244.653896 79.79433 
L 246.285326 78.039419 
L 247.916756 74.4486 
L 249.548186 73.580116 
L 251.179616 70.495683 
L 252.811046 67.841632 
L 254.442476 68.237288 
L 256.073905 67.340976 
L 257.705335 65.295005 
L 259.336765 63.816598 
L 260.968195 63.215258 
L 262.599625 60.969056 
L 264.231055 61.391302 
L 265.862485 62.053164 
L 267.493915 60.909403 
L 269.125344 59.599504 
L 272.388204 58.274196 
L 274.019634 59.30662 
L 277.282494 57.06469 
L 278.913924 57.36133 
L 280.545354 56.490276 
L 282.176783 56.746402 
L 283.808213 57.140573 
L 285.439643 56.636314 
L 287.071073 55.879265 
L 288.702503 56.806751 
L 290.333933 55.338021 
L 291.965363 56.058344 
L 293.596793 54.501914 
L 295.228223 55.947061 
L 296.859652 55.839283 
L 298.491082 54.178298 
L 300.122512 53.722958 
L 301.753942 54.678009 
L 303.385372 54.863932 
L 305.016802 53.983587 
L 306.648232 53.7463 
L 308.279662 54.551577 
L 309.911091 53.737247 
L 313.173951 53.70984 
L 314.805381 52.647825 
L 316.436811 53.093151 
L 318.068241 52.699105 
L 319.699671 53.706247 
L 321.331101 52.920526 
L 322.96253 53.683239 
L 326.22539 52.837851 
L 327.85682 53.282767 
L 329.48825 53.066478 
L 331.11968 52.414532 
L 332.75111 53.024826 
L 334.38254 52.574284 
L 336.013969 50.512251 
L 337.645399 52.000722 
L 339.276829 51.109879 
L 340.908259 52.614551 
L 342.539689 53.365553 
L 344.171119 51.446415 
L 345.802549 52.35966 
L 347.433979 52.13269 
L 349.065408 52.240232 
L 350.696838 50.715145 
L 352.328268 51.679206 
L 353.959698 51.54448 
L 355.591128 52.419255 
L 357.222558 51.479179 
L 358.853988 51.898362 
L 360.485418 50.47972 
L 362.116847 51.96541 
L 363.748277 50.691544 
L 365.379707 50.959116 
L 367.011137 51.387884 
L 368.642567 51.448822 
L 370.273997 50.198675 
L 371.905427 49.623727 
L 373.536857 51.434913 
L 375.168286 51.445181 
L 376.799716 53.448858 
L 378.431146 50.933599 
L 380.062576 51.597495 
L 381.694006 50.935049 
L 383.325436 51.478063 
L 384.956866 51.537038 
L 386.588296 50.775035 
L 388.219725 51.833978 
L 389.851155 51.250222 
L 391.482585 50.477721 
L 391.482585 50.477721 
" clip-path="url(#pcc99ee02c3)" style="fill: none; stroke: #1f77b4; stroke-width: 1.5; stroke-linecap: square"/>
    <defs>
     <path id="m9c697b63d1" d="M 0 1.5 
C 0.397805 1.5 0.77937 1.341951 1.06066 1.06066 
C 1.341951 0.77937 1.5 0.397805 1.5 0 
C 1.5 -0.397805 1.341951 -0.77937 1.06066 -1.06066 
C 0.77937 -1.341951 0.397805 -1.5 0 -1.5 
C -0.397805 -1.5 -0.77937 -1.341951 -1.06066 -1.06066 
C -1.341951 -0.77937 -1.5 -0.397805 -1.5 0 
C -1.5 0.397805 -1.341951 0.77937 -1.06066 1.06066 
C -0.77937 1.341951 -0.397805 1.5 0 1.5 
z
" style="stroke: #1f77b4"/>
    </defs>
    <g clip-path="url(#pcc99ee02c3)">
     <use xlink:href="#m9c697b63d1" x="66.82804" y="51.290283" style="fill: #1f77b4; stroke: #1f77b4"/>
     <use xlink:href="#m9c697b63d1" x="68.45947" y="50.736358" style="fill: #1f77b4; stroke: #1f77b4"/>
     <use xlink:href="#m9c697b63d1" x="70.0909" y="50.330408" style="fill: #1f77b4; stroke: #1f77b4"/>
     <use xlink:href="#m9c697b63d1" x="71.722329" y="49.968637" style="fill: #1f77b4; stroke: #1f77b4"/>
     <use xlink:href="#m9c697b63d1" x="73.353759" y="50.731643" style="fill: #1f77b4; stroke: #1f77b4"/>
     <use xlink:href="#m9c697b63d1" x="74.985189" y="48.572656" style="fill: #1f77b4; stroke: #1f77b4"/>
     <use xlink:href="#m9c697b63d1" x="76.616619" y="49.867925" style="fill: #1f77b4; stroke: #1f77b4"/>
     <use xlink:href="#m9c697b63d1" x="78.248049" y="50.39729" style="fill: #1f77b4; stroke: #1f77b4"/>
     <use xlink:href="#m9c697b63d1" x="79.879479" y="50.34211" style="fill: #1f77b4; stroke: #1f77b4"/>
     <use xlink:href="#m9c697b63d1" x="81.510909" y="50.922752" style="fill: #1f77b4; stroke: #1f77b4"/>
     <use xlink:href="#m9c697b63d1" x="83.142339" y="48.932275" style="fill: #1f77b4; stroke: #1f77b4"/>
     <use xlink:href="#m9c697b63d1" x="84.773768" y="49.966781" style="fill: #1f77b4; stroke: #1f77b4"/>
     <use xlink:href="#m9c697b63d1" x="86.405198" y="50.513835" style="fill: #1f77b4; stroke: #1f77b4"/>
     <use xlink:href="#m9c697b63d1" x="88.036628" y="50.011994" style="fill: #1f77b4; stroke: #1f77b4"/>
     <use xlink:href="#m9c697b63d1" x="89.668058" y="50.172965" style="fill: #1f77b4; stroke: #1f77b4"/>
     <use xlink:href="#m9c697b63d1" x="91.299488" y="50.168494" style="fill: #1f77b4; stroke: #1f77b4"/>
     <use xlink:href="#m9c697b63d1" x="92.930918" y="50.600894" style="fill: #1f77b4; stroke: #1f77b4"/>
     <use xlink:href="#m9c697b63d1" x="94.562348" y="50.748712" style="fill: #1f77b4; stroke: #1f77b4"/>
     <use xlink:href="#m9c697b63d1" x="96.193778" y="50.136668" style="fill: #1f77b4; stroke: #1f77b4"/>
     <use xlink:href="#m9c697b63d1" x="97.825207" y="49.338475" style="fill: #1f77b4; stroke: #1f77b4"/>
     <use xlink:href="#m9c697b63d1" x="99.456637" y="49.981893" style="fill: #1f77b4; stroke: #1f77b4"/>
     <use xlink:href="#m9c697b63d1" x="101.088067" y="50.871471" style="fill: #1f77b4; stroke: #1f77b4"/>
     <use xlink:href="#m9c697b63d1" x="102.719497" y="49.648087" style="fill: #1f77b4; stroke: #1f77b4"/>
     <use xlink:href="#m9c697b63d1" x="104.350927" y="49.946838" style="fill: #1f77b4; stroke: #1f77b4"/>
     <use xlink:href="#m9c697b63d1" x="105.982357" y="49.941682" style="fill: #1f77b4; stroke: #1f77b4"/>
     <use xlink:href="#m9c697b63d1" x="107.613787" y="50.343562" style="fill: #1f77b4; stroke: #1f77b4"/>
     <use xlink:href="#m9c697b63d1" x="109.245217" y="49.045711" style="fill: #1f77b4; stroke: #1f77b4"/>
     <use xlink:href="#m9c697b63d1" x="110.876646" y="49.751422" style="fill: #1f77b4; stroke: #1f77b4"/>
     <use xlink:href="#m9c697b63d1" x="112.508076" y="49.940246" style="fill: #1f77b4; stroke: #1f77b4"/>
     <use xlink:href="#m9c697b63d1" x="114.139506" y="49.711377" style="fill: #1f77b4; stroke: #1f77b4"/>
     <use xlink:href="#m9c697b63d1" x="115.770936" y="49.167571" style="fill: #1f77b4; stroke: #1f77b4"/>
     <use xlink:href="#m9c697b63d1" x="117.402366" y="49.11933" style="fill: #1f77b4; stroke: #1f77b4"/>
     <use xlink:href="#m9c697b63d1" x="119.033796" y="50.296229" style="fill: #1f77b4; stroke: #1f77b4"/>
     <use xlink:href="#m9c697b63d1" x="120.665226" y="49.642897" style="fill: #1f77b4; stroke: #1f77b4"/>
     <use xlink:href="#m9c697b63d1" x="122.296656" y="49.674688" style="fill: #1f77b4; stroke: #1f77b4"/>
     <use xlink:href="#m9c697b63d1" x="123.928085" y="48.192291" style="fill: #1f77b4; stroke: #1f77b4"/>
     <use xlink:href="#m9c697b63d1" x="125.559515" y="50.062175" style="fill: #1f77b4; stroke: #1f77b4"/>
     <use xlink:href="#m9c697b63d1" x="127.190945" y="49.908669" style="fill: #1f77b4; stroke: #1f77b4"/>
     <use xlink:href="#m9c697b63d1" x="128.822375" y="49.213292" style="fill: #1f77b4; stroke: #1f77b4"/>
     <use xlink:href="#m9c697b63d1" x="130.453805" y="49.857086" style="fill: #1f77b4; stroke: #1f77b4"/>
     <use xlink:href="#m9c697b63d1" x="132.085235" y="48.684755" style="fill: #1f77b4; stroke: #1f77b4"/>
     <use xlink:href="#m9c697b63d1" x="133.716665" y="48.559621" style="fill: #1f77b4; stroke: #1f77b4"/>
     <use xlink:href="#m9c697b63d1" x="135.348095" y="50.541096" style="fill: #1f77b4; stroke: #1f77b4"/>
     <use xlink:href="#m9c697b63d1" x="136.979524" y="49.327424" style="fill: #1f77b4; stroke: #1f77b4"/>
     <use xlink:href="#m9c697b63d1" x="138.610954" y="48.565556" style="fill: #1f77b4; stroke: #1f77b4"/>
     <use xlink:href="#m9c697b63d1" x="140.242384" y="49.767695" style="fill: #1f77b4; stroke: #1f77b4"/>
     <use xlink:href="#m9c697b63d1" x="141.873814" y="48.824208" style="fill: #1f77b4; stroke: #1f77b4"/>
     <use xlink:href="#m9c697b63d1" x="143.505244" y="50.134468" style="fill: #1f77b4; stroke: #1f77b4"/>
     <use xlink:href="#m9c697b63d1" x="145.136674" y="49.602528" style="fill: #1f77b4; stroke: #1f77b4"/>
     <use xlink:href="#m9c697b63d1" x="146.768104" y="48.386141" style="fill: #1f77b4; stroke: #1f77b4"/>
     <use xlink:href="#m9c697b63d1" x="148.399534" y="47.259931" style="fill: #1f77b4; stroke: #1f77b4"/>
     <use xlink:href="#m9c697b63d1" x="150.030963" y="49.383429" style="fill: #1f77b4; stroke: #1f77b4"/>
     <use xlink:href="#m9c697b63d1" x="151.662393" y="48.158266" style="fill: #1f77b4; stroke: #1f77b4"/>
     <use xlink:href="#m9c697b63d1" x="153.293823" y="48.276001" style="fill: #1f77b4; stroke: #1f77b4"/>
     <use xlink:href="#m9c697b63d1" x="154.925253" y="48.590485" style="fill: #1f77b4; stroke: #1f77b4"/>
     <use xlink:href="#m9c697b63d1" x="156.556683" y="48.422575" style="fill: #1f77b4; stroke: #1f77b4"/>
     <use xlink:href="#m9c697b63d1" x="158.188113" y="47.312011" style="fill: #1f77b4; stroke: #1f77b4"/>
     <use xlink:href="#m9c697b63d1" x="159.819543" y="48.900552" style="fill: #1f77b4; stroke: #1f77b4"/>
     <use xlink:href="#m9c697b63d1" x="161.450973" y="48.522055" style="fill: #1f77b4; stroke: #1f77b4"/>
     <use xlink:href="#m9c697b63d1" x="163.082402" y="49.186379" style="fill: #1f77b4; stroke: #1f77b4"/>
     <use xlink:href="#m9c697b63d1" x="164.713832" y="48.167562" style="fill: #1f77b4; stroke: #1f77b4"/>
     <use xlink:href="#m9c697b63d1" x="166.345262" y="48.564508" style="fill: #1f77b4; stroke: #1f77b4"/>
     <use xlink:href="#m9c697b63d1" x="167.976692" y="47.258182" style="fill: #1f77b4; stroke: #1f77b4"/>
     <use xlink:href="#m9c697b63d1" x="169.608122" y="48.092754" style="fill: #1f77b4; stroke: #1f77b4"/>
     <use xlink:href="#m9c697b63d1" x="171.239552" y="48.351183" style="fill: #1f77b4; stroke: #1f77b4"/>
     <use xlink:href="#m9c697b63d1" x="172.870982" y="49.185449" style="fill: #1f77b4; stroke: #1f77b4"/>
     <use xlink:href="#m9c697b63d1" x="174.502412" y="47.990586" style="fill: #1f77b4; stroke: #1f77b4"/>
     <use xlink:href="#m9c697b63d1" x="176.133842" y="50.01469" style="fill: #1f77b4; stroke: #1f77b4"/>
     <use xlink:href="#m9c697b63d1" x="177.765271" y="48.977731" style="fill: #1f77b4; stroke: #1f77b4"/>
     <use xlink:href="#m9c697b63d1" x="179.396701" y="48.850373" style="fill: #1f77b4; stroke: #1f77b4"/>
     <use xlink:href="#m9c697b63d1" x="181.028131" y="50.141937" style="fill: #1f77b4; stroke: #1f77b4"/>
     <use xlink:href="#m9c697b63d1" x="182.659561" y="50.457864" style="fill: #1f77b4; stroke: #1f77b4"/>
     <use xlink:href="#m9c697b63d1" x="184.290991" y="50.389001" style="fill: #1f77b4; stroke: #1f77b4"/>
     <use xlink:href="#m9c697b63d1" x="185.922421" y="50.738856" style="fill: #1f77b4; stroke: #1f77b4"/>
     <use xlink:href="#m9c697b63d1" x="187.553851" y="51.989334" style="fill: #1f77b4; stroke: #1f77b4"/>
     <use xlink:href="#m9c697b63d1" x="189.185281" y="50.616837" style="fill: #1f77b4; stroke: #1f77b4"/>
     <use xlink:href="#m9c697b63d1" x="190.81671" y="52.587098" style="fill: #1f77b4; stroke: #1f77b4"/>
     <use xlink:href="#m9c697b63d1" x="192.44814" y="52.704382" style="fill: #1f77b4; stroke: #1f77b4"/>
     <use xlink:href="#m9c697b63d1" x="194.07957" y="53.026685" style="fill: #1f77b4; stroke: #1f77b4"/>
     <use xlink:href="#m9c697b63d1" x="195.711" y="53.188916" style="fill: #1f77b4; stroke: #1f77b4"/>
     <use xlink:href="#m9c697b63d1" x="197.34243" y="55.953746" style="fill: #1f77b4; stroke: #1f77b4"/>
     <use xlink:href="#m9c697b63d1" x="198.97386" y="55.711202" style="fill: #1f77b4; stroke: #1f77b4"/>
     <use xlink:href="#m9c697b63d1" x="200.60529" y="57.409767" style="fill: #1f77b4; stroke: #1f77b4"/>
     <use xlink:href="#m9c697b63d1" x="202.23672" y="60.051094" style="fill: #1f77b4; stroke: #1f77b4"/>
     <use xlink:href="#m9c697b63d1" x="203.868149" y="63.672541" style="fill: #1f77b4; stroke: #1f77b4"/>
     <use xlink:href="#m9c697b63d1" x="205.499579" y="66.883688" style="fill: #1f77b4; stroke: #1f77b4"/>
     <use xlink:href="#m9c697b63d1" x="207.131009" y="68.414602" style="fill: #1f77b4; stroke: #1f77b4"/>
     <use xlink:href="#m9c697b63d1" x="208.762439" y="74.653226" style="fill: #1f77b4; stroke: #1f77b4"/>
     <use xlink:href="#m9c697b63d1" x="210.393869" y="77.808033" style="fill: #1f77b4; stroke: #1f77b4"/>
     <use xlink:href="#m9c697b63d1" x="212.025299" y="83.471403" style="fill: #1f77b4; stroke: #1f77b4"/>
     <use xlink:href="#m9c697b63d1" x="213.656729" y="90.914138" style="fill: #1f77b4; stroke: #1f77b4"/>
     <use xlink:href="#m9c697b63d1" x="215.288159" y="99.588752" style="fill: #1f77b4; stroke: #1f77b4"/>
     <use xlink:href="#m9c697b63d1" x="216.919588" y="109.391395" style="fill: #1f77b4; stroke: #1f77b4"/>
     <use xlink:href="#m9c697b63d1" x="218.551018" y="119.640621" style="fill: #1f77b4; stroke: #1f77b4"/>
     <use xlink:href="#m9c697b63d1" x="220.182448" y="131.340164" style="fill: #1f77b4; stroke: #1f77b4"/>
     <use xlink:href="#m9c697b63d1" x="221.813878" y="143.32122" style="fill: #1f77b4; stroke: #1f77b4"/>
     <use xlink:href="#m9c697b63d1" x="223.445308" y="152.365506" style="fill: #1f77b4; stroke: #1f77b4"/>
     <use xlink:href="#m9c697b63d1" x="225.076738" y="155.875962" style="fill: #1f77b4; stroke: #1f77b4"/>
     <use xlink:href="#m9c697b63d1" x="226.708168" y="151.2979" style="fill: #1f77b4; stroke: #1f77b4"/>
     <use xlink:href="#m9c697b63d1" x="228.339598" y="141.641796" style="fill: #1f77b4; stroke: #1f77b4"/>
     <use xlink:href="#m9c697b63d1" x="229.971027" y="131.618083" style="fill: #1f77b4; stroke: #1f77b4"/>
     <use xlink:href="#m9c697b63d1" x="231.602457" y="121.442887" style="fill: #1f77b4; stroke: #1f77b4"/>
     <use xlink:href="#m9c697b63d1" x="233.233887" y="114.310569" style="fill: #1f77b4; stroke: #1f77b4"/>
     <use xlink:href="#m9c697b63d1" x="234.865317" y="106.227993" style="fill: #1f77b4; stroke: #1f77b4"/>
     <use xlink:href="#m9c697b63d1" x="236.496747" y="100.004329" style="fill: #1f77b4; stroke: #1f77b4"/>
     <use xlink:href="#m9c697b63d1" x="238.128177" y="95.537309" style="fill: #1f77b4; stroke: #1f77b4"/>
     <use xlink:href="#m9c697b63d1" x="239.759607" y="91.228" style="fill: #1f77b4; stroke: #1f77b4"/>
     <use xlink:href="#m9c697b63d1" x="241.391037" y="86.853037" style="fill: #1f77b4; stroke: #1f77b4"/>
     <use xlink:href="#m9c697b63d1" x="243.022466" y="82.258893" style="fill: #1f77b4; stroke: #1f77b4"/>
     <use xlink:href="#m9c697b63d1" x="244.653896" y="79.79433" style="fill: #1f77b4; stroke: #1f77b4"/>
     <use xlink:href="#m9c697b63d1" x="246.285326" y="78.039419" style="fill: #1f77b4; stroke: #1f77b4"/>
     <use xlink:href="#m9c697b63d1" x="247.916756" y="74.4486" style="fill: #1f77b4; stroke: #1f77b4"/>
     <use xlink:href="#m9c697b63d1" x="249.548186" y="73.580116" style="fill: #1f77b4; stroke: #1f77b4"/>
     <use xlink:href="#m9c697b63d1" x="251.179616" y="70.495683" style="fill: #1f77b4; stroke: #1f77b4"/>
     <use xlink:href="#m9c697b63d1" x="252.811046" y="67.841632" style="fill: #1f77b4; stroke: #1f77b4"/>
     <use xlink:href="#m9c697b63d1" x="254.442476" y="68.237288" style="fill: #1f77b4; stroke: #1f77b4"/>
     <use xlink:href="#m9c697b63d1" x="256.073905" y="67.340976" style="fill: #1f77b4; stroke: #1f77b4"/>
     <use xlink:href="#m9c697b63d1" x="257.705335" y="65.295005" style="fill: #1f77b4; stroke: #1f77b4"/>
     <use xlink:href="#m9c697b63d1" x="259.336765" y="63.816598" style="fill: #1f77b4; stroke: #1f77b4"/>
     <use xlink:href="#m9c697b63d1" x="260.968195" y="63.215258" style="fill: #1f77b4; stroke: #1f77b4"/>
     <use xlink:href="#m9c697b63d1" x="262.599625" y="60.969056" style="fill: #1f77b4; stroke: #1f77b4"/>
     <use xlink:href="#m9c697b63d1" x="264.231055" y="61.391302" style="fill: #1f77b4; stroke: #1f77b4"/>
     <use xlink:href="#m9c697b63d1" x="265.862485" y="62.053164" style="fill: #1f77b4; stroke: #1f77b4"/>
     <use xlink:href="#m9c697b63d1" x="267.493915" y="60.909403" style="fill: #1f77b4; stroke: #1f77b4"/>
     <use xlink:href="#m9c697b63d1" x="269.125344" y="59.599504" style="fill: #1f77b4; stroke: #1f77b4"/>
     <use xlink:href="#m9c697b63d1" x="270.756774" y="58.977589" style="fill: #1f77b4; stroke: #1f77b4"/>
     <use xlink:href="#m9c697b63d1" x="272.388204" y="58.274196" style="fill: #1f77b4; stroke: #1f77b4"/>
     <use xlink:href="#m9c697b63d1" x="274.019634" y="59.30662" style="fill: #1f77b4; stroke: #1f77b4"/>
     <use xlink:href="#m9c697b63d1" x="275.651064" y="58.197037" style="fill: #1f77b4; stroke: #1f77b4"/>
     <use xlink:href="#m9c697b63d1" x="277.282494" y="57.06469" style="fill: #1f77b4; stroke: #1f77b4"/>
     <use xlink:href="#m9c697b63d1" x="278.913924" y="57.36133" style="fill: #1f77b4; stroke: #1f77b4"/>
     <use xlink:href="#m9c697b63d1" x="280.545354" y="56.490276" style="fill: #1f77b4; stroke: #1f77b4"/>
     <use xlink:href="#m9c697b63d1" x="282.176783" y="56.746402" style="fill: #1f77b4; stroke: #1f77b4"/>
     <use xlink:href="#m9c697b63d1" x="283.808213" y="57.140573" style="fill: #1f77b4; stroke: #1f77b4"/>
     <use xlink:href="#m9c697b63d1" x="285.439643" y="56.636314" style="fill: #1f77b4; stroke: #1f77b4"/>
     <use xlink:href="#m9c697b63d1" x="287.071073" y="55.879265" style="fill: #1f77b4; stroke: #1f77b4"/>
     <use xlink:href="#m9c697b63d1" x="288.702503" y="56.806751" style="fill: #1f77b4; stroke: #1f77b4"/>
     <use xlink:href="#m9c697b63d1" x="290.333933" y="55.338021" style="fill: #1f77b4; stroke: #1f77b4"/>
     <use xlink:href="#m9c697b63d1" x="291.965363" y="56.058344" style="fill: #1f77b4; stroke: #1f77b4"/>
     <use xlink:href="#m9c697b63d1" x="293.596793" y="54.501914" style="fill: #1f77b4; stroke: #1f77b4"/>
     <use xlink:href="#m9c697b63d1" x="295.228223" y="55.947061" style="fill: #1f77b4; stroke: #1f77b4"/>
     <use xlink:href="#m9c697b63d1" x="296.859652" y="55.839283" style="fill: #1f77b4; stroke: #1f77b4"/>
     <use xlink:href="#m9c697b63d1" x="298.491082" y="54.178298" style="fill: #1f77b4; stroke: #1f77b4"/>
     <use xlink:href="#m9c697b63d1" x="300.122512" y="53.722958" style="fill: #1f77b4; stroke: #1f77b4"/>
     <use xlink:href="#m9c697b63d1" x="301.753942" y="54.678009" style="fill: #1f77b4; stroke: #1f77b4"/>
     <use xlink:href="#m9c697b63d1" x="303.385372" y="54.863932" style="fill: #1f77b4; stroke: #1f77b4"/>
     <use xlink:href="#m9c697b63d1" x="305.016802" y="53.983587" style="fill: #1f77b4; stroke: #1f77b4"/>
     <use xlink:href="#m9c697b63d1" x="306.648232" y="53.7463" style="fill: #1f77b4; stroke: #1f77b4"/>
     <use xlink:href="#m9c697b63d1" x="308.279662" y="54.551577" style="fill: #1f77b4; stroke: #1f77b4"/>
     <use xlink:href="#m9c697b63d1" x="309.911091" y="53.737247" style="fill: #1f77b4; stroke: #1f77b4"/>
     <use xlink:href="#m9c697b63d1" x="311.542521" y="53.733445" style="fill: #1f77b4; stroke: #1f77b4"/>
     <use xlink:href="#m9c697b63d1" x="313.173951" y="53.70984" style="fill: #1f77b4; stroke: #1f77b4"/>
     <use xlink:href="#m9c697b63d1" x="314.805381" y="52.647825" style="fill: #1f77b4; stroke: #1f77b4"/>
     <use xlink:href="#m9c697b63d1" x="316.436811" y="53.093151" style="fill: #1f77b4; stroke: #1f77b4"/>
     <use xlink:href="#m9c697b63d1" x="318.068241" y="52.699105" style="fill: #1f77b4; stroke: #1f77b4"/>
     <use xlink:href="#m9c697b63d1" x="319.699671" y="53.706247" style="fill: #1f77b4; stroke: #1f77b4"/>
     <use xlink:href="#m9c697b63d1" x="321.331101" y="52.920526" style="fill: #1f77b4; stroke: #1f77b4"/>
     <use xlink:href="#m9c697b63d1" x="322.96253" y="53.683239" style="fill: #1f77b4; stroke: #1f77b4"/>
     <use xlink:href="#m9c697b63d1" x="324.59396" y="53.278759" style="fill: #1f77b4; stroke: #1f77b4"/>
     <use xlink:href="#m9c697b63d1" x="326.22539" y="52.837851" style="fill: #1f77b4; stroke: #1f77b4"/>
     <use xlink:href="#m9c697b63d1" x="327.85682" y="53.282767" style="fill: #1f77b4; stroke: #1f77b4"/>
     <use xlink:href="#m9c697b63d1" x="329.48825" y="53.066478" style="fill: #1f77b4; stroke: #1f77b4"/>
     <use xlink:href="#m9c697b63d1" x="331.11968" y="52.414532" style="fill: #1f77b4; stroke: #1f77b4"/>
     <use xlink:href="#m9c697b63d1" x="332.75111" y="53.024826" style="fill: #1f77b4; stroke: #1f77b4"/>
     <use xlink:href="#m9c697b63d1" x="334.38254" y="52.574284" style="fill: #1f77b4; stroke: #1f77b4"/>
     <use xlink:href="#m9c697b63d1" x="336.013969" y="50.512251" style="fill: #1f77b4; stroke: #1f77b4"/>
     <use xlink:href="#m9c697b63d1" x="337.645399" y="52.000722" style="fill: #1f77b4; stroke: #1f77b4"/>
     <use xlink:href="#m9c697b63d1" x="339.276829" y="51.109879" style="fill: #1f77b4; stroke: #1f77b4"/>
     <use xlink:href="#m9c697b63d1" x="340.908259" y="52.614551" style="fill: #1f77b4; stroke: #1f77b4"/>
     <use xlink:href="#m9c697b63d1" x="342.539689" y="53.365553" style="fill: #1f77b4; stroke: #1f77b4"/>
     <use xlink:href="#m9c697b63d1" x="344.171119" y="51.446415" style="fill: #1f77b4; stroke: #1f77b4"/>
     <use xlink:href="#m9c697b63d1" x="345.802549" y="52.35966" style="fill: #1f77b4; stroke: #1f77b4"/>
     <use xlink:href="#m9c697b63d1" x="347.433979" y="52.13269" style="fill: #1f77b4; stroke: #1f77b4"/>
     <use xlink:href="#m9c697b63d1" x="349.065408" y="52.240232" style="fill: #1f77b4; stroke: #1f77b4"/>
     <use xlink:href="#m9c697b63d1" x="350.696838" y="50.715145" style="fill: #1f77b4; stroke: #1f77b4"/>
     <use xlink:href="#m9c697b63d1" x="352.328268" y="51.679206" style="fill: #1f77b4; stroke: #1f77b4"/>
     <use xlink:href="#m9c697b63d1" x="353.959698" y="51.54448" style="fill: #1f77b4; stroke: #1f77b4"/>
     <use xlink:href="#m9c697b63d1" x="355.591128" y="52.419255" style="fill: #1f77b4; stroke: #1f77b4"/>
     <use xlink:href="#m9c697b63d1" x="357.222558" y="51.479179" style="fill: #1f77b4; stroke: #1f77b4"/>
     <use xlink:href="#m9c697b63d1" x="358.853988" y="51.898362" style="fill: #1f77b4; stroke: #1f77b4"/>
     <use xlink:href="#m9c697b63d1" x="360.485418" y="50.47972" style="fill: #1f77b4; stroke: #1f77b4"/>
     <use xlink:href="#m9c697b63d1" x="362.116847" y="51.96541" style="fill: #1f77b4; stroke: #1f77b4"/>
     <use xlink:href="#m9c697b63d1" x="363.748277" y="50.691544" style="fill: #1f77b4; stroke: #1f77b4"/>
     <use xlink:href="#m9c697b63d1" x="365.379707" y="50.959116" style="fill: #1f77b4; stroke: #1f77b4"/>
     <use xlink:href="#m9c697b63d1" x="367.011137" y="51.387884" style="fill: #1f77b4; stroke: #1f77b4"/>
     <use xlink:href="#m9c697b63d1" x="368.642567" y="51.448822" style="fill: #1f77b4; stroke: #1f77b4"/>
     <use xlink:href="#m9c697b63d1" x="370.273997" y="50.198675" style="fill: #1f77b4; stroke: #1f77b4"/>
     <use xlink:href="#m9c697b63d1" x="371.905427" y="49.623727" style="fill: #1f77b4; stroke: #1f77b4"/>
     <use xlink:href="#m9c697b63d1" x="373.536857" y="51.434913" style="fill: #1f77b4; stroke: #1f77b4"/>
     <use xlink:href="#m9c697b63d1" x="375.168286" y="51.445181" style="fill: #1f77b4; stroke: #1f77b4"/>
     <use xlink:href="#m9c697b63d1" x="376.799716" y="53.448858" style="fill: #1f77b4; stroke: #1f77b4"/>
     <use xlink:href="#m9c697b63d1" x="378.431146" y="50.933599" style="fill: #1f77b4; stroke: #1f77b4"/>
     <use xlink:href="#m9c697b63d1" x="380.062576" y="51.597495" style="fill: #1f77b4; stroke: #1f77b4"/>
     <use xlink:href="#m9c697b63d1" x="381.694006" y="50.935049" style="fill: #1f77b4; stroke: #1f77b4"/>
     <use xlink:href="#m9c697b63d1" x="383.325436" y="51.478063" style="fill: #1f77b4; stroke: #1f77b4"/>
     <use xlink:href="#m9c697b63d1" x="384.956866" y="51.537038" style="fill: #1f77b4; stroke: #1f77b4"/>
     <use xlink:href="#m9c697b63d1" x="386.588296" y="50.775035" style="fill: #1f77b4; stroke: #1f77b4"/>
     <use xlink:href="#m9c697b63d1" x="388.219725" y="51.833978" style="fill: #1f77b4; stroke: #1f77b4"/>
     <use xlink:href="#m9c697b63d1" x="389.851155" y="51.250222" style="fill: #1f77b4; stroke: #1f77b4"/>
     <use xlink:href="#m9c697b63d1" x="391.482585" y="50.477721" style="fill: #1f77b4; stroke: #1f77b4"/>
    </g>
   </g>
   <g id="line2d_12">
    <path d="M 66.82804 48.708421 
L 130.199047 48.517848 
L 148.72288 48.671814 
L 160.097163 48.969575 
L 168.221652 49.391309 
L 174.396263 49.925277 
L 179.270955 50.561007 
L 183.17071 51.276666 
L 186.420505 52.074852 
L 189.345321 53.009522 
L 191.945157 54.071247 
L 194.220014 55.234444 
L 196.169891 56.454269 
L 198.119768 57.933317 
L 199.744665 59.41069 
L 201.369563 61.160887 
L 202.994461 63.242334 
L 204.619358 65.726477 
L 206.244256 68.699945 
L 207.544174 71.500007 
L 208.844092 74.740168 
L 210.14401 78.487941 
L 211.443928 82.81551 
L 212.743846 87.79606 
L 214.368744 95.042261 
L 215.993642 103.510131 
L 217.618539 113.214803 
L 219.568417 126.294645 
L 223.143191 151.009862 
L 223.79315 154.391618 
L 224.443109 156.625537 
L 224.768089 157.149738 
L 225.093068 157.221818 
L 225.418048 156.843328 
L 225.743027 156.05422 
L 226.392987 153.511467 
L 227.367925 148.263482 
L 232.567598 117.806973 
L 234.192495 110.039339 
L 235.817393 103.270671 
L 237.44229 97.416937 
L 239.067188 92.371382 
L 240.692086 88.024807 
L 242.316983 84.275367 
L 243.941881 81.032632 
L 245.566779 78.21856 
L 247.516656 75.315042 
L 249.466533 72.839433 
L 251.41641 70.715513 
L 253.691267 68.601038 
L 255.966123 66.805254 
L 258.56596 65.066752 
L 261.165796 63.597279 
L 264.090611 62.200386 
L 267.340407 60.900455 
L 270.915181 59.710502 
L 275.139915 58.553838 
L 279.689629 57.538277 
L 285.214281 56.544034 
L 291.713871 55.619278 
L 299.1884 54.788824 
L 308.287827 54.011364 
L 319.337131 53.300065 
L 332.986271 52.651207 
L 350.535165 52.050561 
L 373.283732 51.505305 
L 391.482585 51.184792 
L 391.482585 51.184792 
" clip-path="url(#pcc99ee02c3)" style="fill: none; stroke: #d62728; stroke-width: 1.5; stroke-linecap: square"/>
   </g>
   <g id="patch_3">
    <path d="M 50.595313 162.72 
L 50.595313 41.76 
" style="fill: none; stroke: #000000; stroke-width: 0.8; stroke-linejoin: miter; stroke-linecap: square"/>
   </g>
   <g id="patch_4">
    <path d="M 407.715312 162.72 
L 407.715312 41.76 
" style="fill: none; stroke: #000000; stroke-width: 0.8; stroke-linejoin: miter; stroke-linecap: square"/>
   </g>
   <g id="patch_5">
    <path d="M 50.595312 162.72 
L 407.715312 162.72 
" style="fill: none; stroke: #000000; stroke-width: 0.8; stroke-linejoin: miter; stroke-linecap: square"/>
   </g>
   <g id="patch_6">
    <path d="M 50.595312 41.76 
L 407.715312 41.76 
" style="fill: none; stroke: #000000; stroke-width: 0.8; stroke-linejoin: miter; stroke-linecap: square"/>
   </g>
   <g id="text_7">
    <g id="patch_7">
     <path d="M 425.571312 95.079562 
L 571.071312 95.079562 
Q 575.071312 95.079562 575.071312 91.079562 
L 575.071312 47.808 
Q 575.071312 43.808 571.071312 43.808 
L 425.571312 43.808 
Q 421.571312 43.808 421.571312 47.808 
L 421.571312 91.079562 
Q 421.571312 95.079562 425.571312 95.079562 
z
" style="fill: #ffffff; opacity: 0.5; stroke: #000000; stroke-linejoin: miter"/>
    </g>
    <!-- Summary -->
    <g transform="translate(425.571312 55.406437) scale(0.1 -0.1)">
     <defs>
      <path id="DejaVuSans-53" d="M 3425 4513 
L 3425 3897 
Q 3066 4069 2747 4153 
Q 2428 4238 2131 4238 
Q 1616 4238 1336 4038 
Q 1056 3838 1056 3469 
Q 1056 3159 1242 3001 
Q 1428 2844 1947 2747 
L 2328 2669 
Q 3034 2534 3370 2195 
Q 3706 1856 3706 1288 
Q 3706 609 3251 259 
Q 2797 -91 1919 -91 
Q 1588 -91 1214 -16 
Q 841 59 441 206 
L 441 856 
Q 825 641 1194 531 
Q 1563 422 1919 422 
Q 2459 422 2753 634 
Q 3047 847 3047 1241 
Q 3047 1584 2836 1778 
Q 2625 1972 2144 2069 
L 1759 2144 
Q 1053 2284 737 2584 
Q 422 2884 422 3419 
Q 422 4038 858 4394 
Q 1294 4750 2059 4750 
Q 2388 4750 2728 4690 
Q 3069 4631 3425 4513 
z
" transform="scale(0.015625)"/>
      <path id="DejaVuSans-75" d="M 544 1381 
L 544 3500 
L 1119 3500 
L 1119 1403 
Q 1119 906 1312 657 
Q 1506 409 1894 409 
Q 2359 409 2629 706 
Q 2900 1003 2900 1516 
L 2900 3500 
L 3475 3500 
L 3475 0 
L 2900 0 
L 2900 538 
Q 2691 219 2414 64 
Q 2138 -91 1772 -91 
Q 1169 -91 856 284 
Q 544 659 544 1381 
z
M 1991 3584 
L 1991 3584 
z
" transform="scale(0.015625)"/>
      <path id="DejaVuSans-61" d="M 2194 1759 
Q 1497 1759 1228 1600 
Q 959 1441 959 1056 
Q 959 750 1161 570 
Q 1363 391 1709 391 
Q 2188 391 2477 730 
Q 2766 1069 2766 1631 
L 2766 1759 
L 2194 1759 
z
M 3341 1997 
L 3341 0 
L 2766 0 
L 2766 531 
Q 2569 213 2275 61 
Q 1981 -91 1556 -91 
Q 1019 -91 701 211 
Q 384 513 384 1019 
Q 384 1609 779 1909 
Q 1175 2209 1959 2209 
L 2766 2209 
L 2766 2266 
Q 2766 2663 2505 2880 
Q 2244 3097 1772 3097 
Q 1472 3097 1187 3025 
Q 903 2953 641 2809 
L 641 3341 
Q 956 3463 1253 3523 
Q 1550 3584 1831 3584 
Q 2591 3584 2966 3190 
Q 3341 2797 3341 1997 
z
" transform="scale(0.015625)"/>
      <path id="DejaVuSans-72" d="M 2631 2963 
Q 2534 3019 2420 3045 
Q 2306 3072 2169 3072 
Q 1681 3072 1420 2755 
Q 1159 2438 1159 1844 
L 1159 0 
L 581 0 
L 581 3500 
L 1159 3500 
L 1159 2956 
Q 1341 3275 1631 3429 
Q 1922 3584 2338 3584 
Q 2397 3584 2469 3576 
Q 2541 3569 2628 3553 
L 2631 2963 
z
" transform="scale(0.015625)"/>
      <path id="DejaVuSans-79" d="M 2059 -325 
Q 1816 -950 1584 -1140 
Q 1353 -1331 966 -1331 
L 506 -1331 
L 506 -850 
L 844 -850 
Q 1081 -850 1212 -737 
Q 1344 -625 1503 -206 
L 1606 56 
L 191 3500 
L 800 3500 
L 1894 763 
L 2988 3500 
L 3597 3500 
L 2059 -325 
z
" transform="scale(0.015625)"/>
     </defs>
     <use xlink:href="#DejaVuSans-53"/>
     <use xlink:href="#DejaVuSans-75" x="63.476562"/>
     <use xlink:href="#DejaVuSans-6d" x="126.855469"/>
     <use xlink:href="#DejaVuSans-6d" x="224.267578"/>
     <use xlink:href="#DejaVuSans-61" x="321.679688"/>
     <use xlink:href="#DejaVuSans-72" x="382.958984"/>
     <use xlink:href="#DejaVuSans-79" x="424.072266"/>
    </g>
    <!-- $Q_I$: 21.64$\pm$0.47 k -->
    <g transform="translate(425.571312 66.60425) scale(0.1 -0.1)">
     <defs>
      <path id="DejaVuSans-Oblique-51" d="M 2309 -84 
Q 2275 -88 2237 -89 
Q 2200 -91 2125 -91 
Q 1250 -91 756 411 
Q 263 913 263 1797 
Q 263 2319 452 2844 
Q 641 3369 978 3788 
Q 1369 4269 1858 4509 
Q 2347 4750 2938 4750 
Q 3794 4750 4287 4245 
Q 4781 3741 4781 2869 
Q 4781 1928 4265 1147 
Q 3750 366 2919 44 
L 3553 -825 
L 2847 -825 
L 2309 -84 
z
M 2919 4238 
Q 2400 4238 2003 3986 
Q 1606 3734 1313 3219 
Q 1125 2891 1026 2522 
Q 928 2153 928 1778 
Q 928 1128 1239 775 
Q 1550 422 2119 422 
Q 2631 422 3032 676 
Q 3434 931 3719 1434 
Q 3909 1772 4009 2142 
Q 4109 2513 4109 2881 
Q 4109 3528 3796 3883 
Q 3484 4238 2919 4238 
z
" transform="scale(0.015625)"/>
      <path id="DejaVuSans-Oblique-49" d="M 1081 4666 
L 1716 4666 
L 806 0 
L 172 0 
L 1081 4666 
z
" transform="scale(0.015625)"/>
      <path id="DejaVuSans-3a" d="M 750 794 
L 1409 794 
L 1409 0 
L 750 0 
L 750 794 
z
M 750 3309 
L 1409 3309 
L 1409 2516 
L 750 2516 
L 750 3309 
z
" transform="scale(0.015625)"/>
      <path id="DejaVuSans-2e" d="M 684 794 
L 1344 794 
L 1344 0 
L 684 0 
L 684 794 
z
" transform="scale(0.015625)"/>
      <path id="DejaVuSans-b1" d="M 2944 4013 
L 2944 2803 
L 4684 2803 
L 4684 2272 
L 2944 2272 
L 2944 1063 
L 2419 1063 
L 2419 2272 
L 678 2272 
L 678 2803 
L 2419 2803 
L 2419 4013 
L 2944 4013 
z
M 678 531 
L 4684 531 
L 4684 0 
L 678 0 
L 678 531 
z
" transform="scale(0.015625)"/>
      <path id="DejaVuSans-37" d="M 525 4666 
L 3525 4666 
L 3525 4397 
L 1831 0 
L 1172 0 
L 2766 4134 
L 525 4134 
L 525 4666 
z
" transform="scale(0.015625)"/>
      <path id="DejaVuSans-6b" d="M 581 4863 
L 1159 4863 
L 1159 1991 
L 2875 3500 
L 3609 3500 
L 1753 1863 
L 3688 0 
L 2938 0 
L 1159 1709 
L 1159 0 
L 581 0 
L 581 4863 
z
" transform="scale(0.015625)"/>
     </defs>
     <use xlink:href="#DejaVuSans-Oblique-51" transform="translate(0 0.015625)"/>
     <use xlink:href="#DejaVuSans-Oblique-49" transform="translate(78.710938 -16.390625) scale(0.7)"/>
     <use xlink:href="#DejaVuSans-3a" transform="translate(102.089844 0.015625)"/>
     <use xlink:href="#DejaVuSans-20" transform="translate(135.78125 0.015625)"/>
     <use xlink:href="#DejaVuSans-32" transform="translate(167.568359 0.015625)"/>
     <use xlink:href="#DejaVuSans-31" transform="translate(231.191406 0.015625)"/>
     <use xlink:href="#DejaVuSans-2e" transform="translate(294.814453 0.015625)"/>
     <use xlink:href="#DejaVuSans-36" transform="translate(326.601562 0.015625)"/>
     <use xlink:href="#DejaVuSans-34" transform="translate(390.224609 0.015625)"/>
     <use xlink:href="#DejaVuSans-b1" transform="translate(453.847656 0.015625)"/>
     <use xlink:href="#DejaVuSans-30" transform="translate(537.636719 0.015625)"/>
     <use xlink:href="#DejaVuSans-2e" transform="translate(601.259766 0.015625)"/>
     <use xlink:href="#DejaVuSans-34" transform="translate(633.046875 0.015625)"/>
     <use xlink:href="#DejaVuSans-37" transform="translate(696.669922 0.015625)"/>
     <use xlink:href="#DejaVuSans-20" transform="translate(760.292969 0.015625)"/>
     <use xlink:href="#DejaVuSans-6b" transform="translate(792.080078 0.015625)"/>
    </g>
    <!-- $Q_C$: 3.165$\pm$0.011 k -->
    <g transform="translate(425.571312 77.802062) scale(0.1 -0.1)">
     <defs>
      <path id="DejaVuSans-Oblique-43" d="M 4447 4306 
L 4319 3641 
Q 4019 3944 3683 4091 
Q 3347 4238 2956 4238 
Q 2422 4238 2017 3981 
Q 1613 3725 1319 3200 
Q 1131 2863 1032 2486 
Q 934 2109 934 1728 
Q 934 1091 1264 756 
Q 1594 422 2222 422 
Q 2656 422 3056 561 
Q 3456 700 3834 978 
L 3688 231 
Q 3316 72 2936 -9 
Q 2556 -91 2175 -91 
Q 1278 -91 773 396 
Q 269 884 269 1753 
Q 269 2309 461 2846 
Q 653 3384 1013 3828 
Q 1394 4300 1883 4525 
Q 2372 4750 3022 4750 
Q 3422 4750 3780 4639 
Q 4138 4528 4447 4306 
z
" transform="scale(0.015625)"/>
      <path id="DejaVuSans-33" d="M 2597 2516 
Q 3050 2419 3304 2112 
Q 3559 1806 3559 1356 
Q 3559 666 3084 287 
Q 2609 -91 1734 -91 
Q 1441 -91 1130 -33 
Q 819 25 488 141 
L 488 750 
Q 750 597 1062 519 
Q 1375 441 1716 441 
Q 2309 441 2620 675 
Q 2931 909 2931 1356 
Q 2931 1769 2642 2001 
Q 2353 2234 1838 2234 
L 1294 2234 
L 1294 2753 
L 1863 2753 
Q 2328 2753 2575 2939 
Q 2822 3125 2822 3475 
Q 2822 3834 2567 4026 
Q 2313 4219 1838 4219 
Q 1578 4219 1281 4162 
Q 984 4106 628 3988 
L 628 4550 
Q 988 4650 1302 4700 
Q 1616 4750 1894 4750 
Q 2613 4750 3031 4423 
Q 3450 4097 3450 3541 
Q 3450 3153 3228 2886 
Q 3006 2619 2597 2516 
z
" transform="scale(0.015625)"/>
      <path id="DejaVuSans-35" d="M 691 4666 
L 3169 4666 
L 3169 4134 
L 1269 4134 
L 1269 2991 
Q 1406 3038 1543 3061 
Q 1681 3084 1819 3084 
Q 2600 3084 3056 2656 
Q 3513 2228 3513 1497 
Q 3513 744 3044 326 
Q 2575 -91 1722 -91 
Q 1428 -91 1123 -41 
Q 819 9 494 109 
L 494 744 
Q 775 591 1075 516 
Q 1375 441 1709 441 
Q 2250 441 2565 725 
Q 2881 1009 2881 1497 
Q 2881 1984 2565 2268 
Q 2250 2553 1709 2553 
Q 1456 2553 1204 2497 
Q 953 2441 691 2322 
L 691 4666 
z
" transform="scale(0.015625)"/>
     </defs>
     <use xlink:href="#DejaVuSans-Oblique-51" transform="translate(0 0.015625)"/>
     <use xlink:href="#DejaVuSans-Oblique-43" transform="translate(78.710938 -16.390625) scale(0.7)"/>
     <use xlink:href="#DejaVuSans-3a" transform="translate(130.322266 0.015625)"/>
     <use xlink:href="#DejaVuSans-20" transform="translate(164.013672 0.015625)"/>
     <use xlink:href="#DejaVuSans-33" transform="translate(195.800781 0.015625)"/>
     <use xlink:href="#DejaVuSans-2e" transform="translate(259.423828 0.015625)"/>
     <use xlink:href="#DejaVuSans-31" transform="translate(291.210938 0.015625)"/>
     <use xlink:href="#DejaVuSans-36" transform="translate(354.833984 0.015625)"/>
     <use xlink:href="#DejaVuSans-35" transform="translate(418.457031 0.015625)"/>
     <use xlink:href="#DejaVuSans-b1" transform="translate(482.080078 0.015625)"/>
     <use xlink:href="#DejaVuSans-30" transform="translate(565.869141 0.015625)"/>
     <use xlink:href="#DejaVuSans-2e" transform="translate(629.492188 0.015625)"/>
     <use xlink:href="#DejaVuSans-30" transform="translate(661.279297 0.015625)"/>
     <use xlink:href="#DejaVuSans-31" transform="translate(724.902344 0.015625)"/>
     <use xlink:href="#DejaVuSans-31" transform="translate(788.525391 0.015625)"/>
     <use xlink:href="#DejaVuSans-20" transform="translate(852.148438 0.015625)"/>
     <use xlink:href="#DejaVuSans-6b" transform="translate(883.935547 0.015625)"/>
    </g>
    <!-- $f_{res}$: 6.0080406$\pm$4.8e-06 GHz -->
    <g transform="translate(425.571312 88.999875) scale(0.1 -0.1)">
     <defs>
      <path id="DejaVuSans-Oblique-66" d="M 3059 4863 
L 2969 4384 
L 2419 4384 
Q 2106 4384 1964 4261 
Q 1822 4138 1753 3809 
L 1691 3500 
L 2638 3500 
L 2553 3053 
L 1606 3053 
L 1013 0 
L 434 0 
L 1031 3053 
L 481 3053 
L 563 3500 
L 1113 3500 
L 1159 3744 
Q 1278 4363 1576 4613 
Q 1875 4863 2516 4863 
L 3059 4863 
z
" transform="scale(0.015625)"/>
      <path id="DejaVuSans-Oblique-72" d="M 2853 2969 
Q 2766 3016 2653 3041 
Q 2541 3066 2413 3066 
Q 1953 3066 1609 2717 
Q 1266 2369 1153 1784 
L 800 0 
L 225 0 
L 909 3500 
L 1484 3500 
L 1375 2956 
Q 1603 3259 1920 3421 
Q 2238 3584 2597 3584 
Q 2691 3584 2781 3573 
Q 2872 3563 2963 3538 
L 2853 2969 
z
" transform="scale(0.015625)"/>
      <path id="DejaVuSans-Oblique-65" d="M 3078 2063 
Q 3088 2113 3092 2166 
Q 3097 2219 3097 2272 
Q 3097 2653 2873 2875 
Q 2650 3097 2266 3097 
Q 1838 3097 1509 2826 
Q 1181 2556 1013 2059 
L 3078 2063 
z
M 3578 1613 
L 903 1613 
Q 884 1494 878 1425 
Q 872 1356 872 1306 
Q 872 872 1139 634 
Q 1406 397 1894 397 
Q 2269 397 2603 481 
Q 2938 566 3225 728 
L 3116 159 
Q 2806 34 2476 -28 
Q 2147 -91 1806 -91 
Q 1078 -91 686 257 
Q 294 606 294 1247 
Q 294 1794 489 2264 
Q 684 2734 1063 3103 
Q 1306 3334 1642 3459 
Q 1978 3584 2356 3584 
Q 2950 3584 3301 3228 
Q 3653 2872 3653 2272 
Q 3653 2128 3634 1964 
Q 3616 1800 3578 1613 
z
" transform="scale(0.015625)"/>
      <path id="DejaVuSans-Oblique-73" d="M 3200 3397 
L 3091 2853 
Q 2863 2978 2609 3040 
Q 2356 3103 2088 3103 
Q 1634 3103 1373 2948 
Q 1113 2794 1113 2528 
Q 1113 2219 1719 2053 
Q 1766 2041 1788 2034 
L 1972 1978 
Q 2547 1819 2739 1644 
Q 2931 1469 2931 1166 
Q 2931 609 2489 259 
Q 2047 -91 1331 -91 
Q 1053 -91 747 -37 
Q 441 16 72 128 
L 184 722 
Q 500 559 806 475 
Q 1113 391 1394 391 
Q 1816 391 2080 572 
Q 2344 753 2344 1031 
Q 2344 1331 1650 1516 
L 1591 1531 
L 1394 1581 
Q 956 1697 753 1886 
Q 550 2075 550 2369 
Q 550 2928 970 3256 
Q 1391 3584 2113 3584 
Q 2397 3584 2667 3537 
Q 2938 3491 3200 3397 
z
" transform="scale(0.015625)"/>
      <path id="DejaVuSans-65" d="M 3597 1894 
L 3597 1613 
L 953 1613 
Q 991 1019 1311 708 
Q 1631 397 2203 397 
Q 2534 397 2845 478 
Q 3156 559 3463 722 
L 3463 178 
Q 3153 47 2828 -22 
Q 2503 -91 2169 -91 
Q 1331 -91 842 396 
Q 353 884 353 1716 
Q 353 2575 817 3079 
Q 1281 3584 2069 3584 
Q 2775 3584 3186 3129 
Q 3597 2675 3597 1894 
z
M 3022 2063 
Q 3016 2534 2758 2815 
Q 2500 3097 2075 3097 
Q 1594 3097 1305 2825 
Q 1016 2553 972 2059 
L 3022 2063 
z
" transform="scale(0.015625)"/>
      <path id="DejaVuSans-2d" d="M 313 2009 
L 1997 2009 
L 1997 1497 
L 313 1497 
L 313 2009 
z
" transform="scale(0.015625)"/>
      <path id="DejaVuSans-47" d="M 3809 666 
L 3809 1919 
L 2778 1919 
L 2778 2438 
L 4434 2438 
L 4434 434 
Q 4069 175 3628 42 
Q 3188 -91 2688 -91 
Q 1594 -91 976 548 
Q 359 1188 359 2328 
Q 359 3472 976 4111 
Q 1594 4750 2688 4750 
Q 3144 4750 3555 4637 
Q 3966 4525 4313 4306 
L 4313 3634 
Q 3963 3931 3569 4081 
Q 3175 4231 2741 4231 
Q 1884 4231 1454 3753 
Q 1025 3275 1025 2328 
Q 1025 1384 1454 906 
Q 1884 428 2741 428 
Q 3075 428 3337 486 
Q 3600 544 3809 666 
z
" transform="scale(0.015625)"/>
      <path id="DejaVuSans-48" d="M 628 4666 
L 1259 4666 
L 1259 2753 
L 3553 2753 
L 3553 4666 
L 4184 4666 
L 4184 0 
L 3553 0 
L 3553 2222 
L 1259 2222 
L 1259 0 
L 628 0 
L 628 4666 
z
" transform="scale(0.015625)"/>
      <path id="DejaVuSans-7a" d="M 353 3500 
L 3084 3500 
L 3084 2975 
L 922 459 
L 3084 459 
L 3084 0 
L 275 0 
L 275 525 
L 2438 3041 
L 353 3041 
L 353 3500 
z
" transform="scale(0.015625)"/>
     </defs>
     <use xlink:href="#DejaVuSans-Oblique-66" transform="translate(0 0.015625)"/>
     <use xlink:href="#DejaVuSans-Oblique-72" transform="translate(35.205078 -16.390625) scale(0.7)"/>
     <use xlink:href="#DejaVuSans-Oblique-65" transform="translate(63.984375 -16.390625) scale(0.7)"/>
     <use xlink:href="#DejaVuSans-Oblique-73" transform="translate(107.050781 -16.390625) scale(0.7)"/>
     <use xlink:href="#DejaVuSans-3a" transform="translate(146.254883 0.015625)"/>
     <use xlink:href="#DejaVuSans-20" transform="translate(179.946289 0.015625)"/>
     <use xlink:href="#DejaVuSans-36" transform="translate(211.733398 0.015625)"/>
     <use xlink:href="#DejaVuSans-2e" transform="translate(275.356445 0.015625)"/>
     <use xlink:href="#DejaVuSans-30" transform="translate(307.143555 0.015625)"/>
     <use xlink:href="#DejaVuSans-30" transform="translate(370.766602 0.015625)"/>
     <use xlink:href="#DejaVuSans-38" transform="translate(434.389648 0.015625)"/>
     <use xlink:href="#DejaVuSans-30" transform="translate(498.012695 0.015625)"/>
     <use xlink:href="#DejaVuSans-34" transform="translate(561.635742 0.015625)"/>
     <use xlink:href="#DejaVuSans-30" transform="translate(625.258789 0.015625)"/>
     <use xlink:href="#DejaVuSans-36" transform="translate(688.881836 0.015625)"/>
     <use xlink:href="#DejaVuSans-b1" transform="translate(752.504883 0.015625)"/>
     <use xlink:href="#DejaVuSans-34" transform="translate(836.293945 0.015625)"/>
     <use xlink:href="#DejaVuSans-2e" transform="translate(899.916992 0.015625)"/>
     <use xlink:href="#DejaVuSans-38" transform="translate(929.079102 0.015625)"/>
     <use xlink:href="#DejaVuSans-65" transform="translate(992.702148 0.015625)"/>
     <use xlink:href="#DejaVuSans-2d" transform="translate(1054.225586 0.015625)"/>
     <use xlink:href="#DejaVuSans-30" transform="translate(1090.30957 0.015625)"/>
     <use xlink:href="#DejaVuSans-36" transform="translate(1153.932617 0.015625)"/>
     <use xlink:href="#DejaVuSans-20" transform="translate(1217.555664 0.015625)"/>
     <use xlink:href="#DejaVuSans-47" transform="translate(1249.342773 0.015625)"/>
     <use xlink:href="#DejaVuSans-48" transform="translate(1326.833008 0.015625)"/>
     <use xlink:href="#DejaVuSans-7a" transform="translate(1402.02832 0.015625)"/>
    </g>
   </g>
  </g>
  <g id="axes_2">
   <g id="patch_8">
    <path d="M 50.595313 307.872 
L 407.715312 307.872 
L 407.715312 186.912 
L 50.595313 186.912 
z
" style="fill: #ffffff"/>
   </g>
   <g id="matplotlib.axis_3">
    <g id="xtick_6">
     <g id="line2d_13">
      <g>
       <use xlink:href="#m09c3b1bf9d" x="114.173494" y="307.872" style="stroke: #000000; stroke-width: 0.8"/>
      </g>
     </g>
     <g id="text_8">
      <!-- 0 -->
      <g transform="translate(110.992244 322.470438) scale(0.1 -0.1)">
       <use xlink:href="#DejaVuSans-30"/>
      </g>
     </g>
    </g>
    <g id="xtick_7">
     <g id="line2d_14">
      <g>
       <use xlink:href="#m09c3b1bf9d" x="181.809858" y="307.872" style="stroke: #000000; stroke-width: 0.8"/>
      </g>
     </g>
     <g id="text_9">
      <!-- 5 -->
      <g transform="translate(178.628608 322.470438) scale(0.1 -0.1)">
       <use xlink:href="#DejaVuSans-35"/>
      </g>
     </g>
    </g>
    <g id="xtick_8">
     <g id="line2d_15">
      <g>
       <use xlink:href="#m09c3b1bf9d" x="249.446222" y="307.872" style="stroke: #000000; stroke-width: 0.8"/>
      </g>
     </g>
     <g id="text_10">
      <!-- 10 -->
      <g transform="translate(243.083722 322.470438) scale(0.1 -0.1)">
       <use xlink:href="#DejaVuSans-31"/>
       <use xlink:href="#DejaVuSans-30" x="63.623047"/>
      </g>
     </g>
    </g>
    <g id="xtick_9">
     <g id="line2d_16">
      <g>
       <use xlink:href="#m09c3b1bf9d" x="317.082585" y="307.872" style="stroke: #000000; stroke-width: 0.8"/>
      </g>
     </g>
     <g id="text_11">
      <!-- 15 -->
      <g transform="translate(310.720085 322.470438) scale(0.1 -0.1)">
       <use xlink:href="#DejaVuSans-31"/>
       <use xlink:href="#DejaVuSans-35" x="63.623047"/>
      </g>
     </g>
    </g>
    <g id="xtick_10">
     <g id="line2d_17">
      <g>
       <use xlink:href="#m09c3b1bf9d" x="384.718949" y="307.872" style="stroke: #000000; stroke-width: 0.8"/>
      </g>
     </g>
     <g id="text_12">
      <!-- 20 -->
      <g transform="translate(378.356449 322.470438) scale(0.1 -0.1)">
       <use xlink:href="#DejaVuSans-32"/>
       <use xlink:href="#DejaVuSans-30" x="63.623047"/>
      </g>
     </g>
    </g>
    <g id="text_13">
     <!-- Frequency [MHz] -->
     <g transform="translate(187.136562 336.148562) scale(0.1 -0.1)">
      <defs>
       <path id="DejaVuSans-46" d="M 628 4666 
L 3309 4666 
L 3309 4134 
L 1259 4134 
L 1259 2759 
L 3109 2759 
L 3109 2228 
L 1259 2228 
L 1259 0 
L 628 0 
L 628 4666 
z
" transform="scale(0.015625)"/>
       <path id="DejaVuSans-71" d="M 947 1747 
Q 947 1113 1208 752 
Q 1469 391 1925 391 
Q 2381 391 2643 752 
Q 2906 1113 2906 1747 
Q 2906 2381 2643 2742 
Q 2381 3103 1925 3103 
Q 1469 3103 1208 2742 
Q 947 2381 947 1747 
z
M 2906 525 
Q 2725 213 2448 61 
Q 2172 -91 1784 -91 
Q 1150 -91 751 415 
Q 353 922 353 1747 
Q 353 2572 751 3078 
Q 1150 3584 1784 3584 
Q 2172 3584 2448 3432 
Q 2725 3281 2906 2969 
L 2906 3500 
L 3481 3500 
L 3481 -1331 
L 2906 -1331 
L 2906 525 
z
" transform="scale(0.015625)"/>
       <path id="DejaVuSans-6e" d="M 3513 2113 
L 3513 0 
L 2938 0 
L 2938 2094 
Q 2938 2591 2744 2837 
Q 2550 3084 2163 3084 
Q 1697 3084 1428 2787 
Q 1159 2491 1159 1978 
L 1159 0 
L 581 0 
L 581 3500 
L 1159 3500 
L 1159 2956 
Q 1366 3272 1645 3428 
Q 1925 3584 2291 3584 
Q 2894 3584 3203 3211 
Q 3513 2838 3513 2113 
z
" transform="scale(0.015625)"/>
       <path id="DejaVuSans-63" d="M 3122 3366 
L 3122 2828 
Q 2878 2963 2633 3030 
Q 2388 3097 2138 3097 
Q 1578 3097 1268 2742 
Q 959 2388 959 1747 
Q 959 1106 1268 751 
Q 1578 397 2138 397 
Q 2388 397 2633 464 
Q 2878 531 3122 666 
L 3122 134 
Q 2881 22 2623 -34 
Q 2366 -91 2075 -91 
Q 1284 -91 818 406 
Q 353 903 353 1747 
Q 353 2603 823 3093 
Q 1294 3584 2113 3584 
Q 2378 3584 2631 3529 
Q 2884 3475 3122 3366 
z
" transform="scale(0.015625)"/>
       <path id="DejaVuSans-4d" d="M 628 4666 
L 1569 4666 
L 2759 1491 
L 3956 4666 
L 4897 4666 
L 4897 0 
L 4281 0 
L 4281 4097 
L 3078 897 
L 2444 897 
L 1241 4097 
L 1241 0 
L 628 0 
L 628 4666 
z
" transform="scale(0.015625)"/>
      </defs>
      <use xlink:href="#DejaVuSans-46"/>
      <use xlink:href="#DejaVuSans-72" x="50.269531"/>
      <use xlink:href="#DejaVuSans-65" x="89.132812"/>
      <use xlink:href="#DejaVuSans-71" x="150.65625"/>
      <use xlink:href="#DejaVuSans-75" x="214.132812"/>
      <use xlink:href="#DejaVuSans-65" x="277.511719"/>
      <use xlink:href="#DejaVuSans-6e" x="339.035156"/>
      <use xlink:href="#DejaVuSans-63" x="402.414062"/>
      <use xlink:href="#DejaVuSans-79" x="457.394531"/>
      <use xlink:href="#DejaVuSans-20" x="516.574219"/>
      <use xlink:href="#DejaVuSans-5b" x="548.361328"/>
      <use xlink:href="#DejaVuSans-4d" x="587.375"/>
      <use xlink:href="#DejaVuSans-48" x="673.654297"/>
      <use xlink:href="#DejaVuSans-7a" x="748.849609"/>
      <use xlink:href="#DejaVuSans-5d" x="801.339844"/>
     </g>
    </g>
    <g id="text_14">
     <!-- +6 GHz -->
     <g transform="translate(369.277812 335.148562) scale(0.1 -0.1)">
      <defs>
       <path id="DejaVuSans-2b" d="M 2944 4013 
L 2944 2272 
L 4684 2272 
L 4684 1741 
L 2944 1741 
L 2944 0 
L 2419 0 
L 2419 1741 
L 678 1741 
L 678 2272 
L 2419 2272 
L 2419 4013 
L 2944 4013 
z
" transform="scale(0.015625)"/>
      </defs>
      <use xlink:href="#DejaVuSans-2b"/>
      <use xlink:href="#DejaVuSans-36" x="83.789062"/>
      <use xlink:href="#DejaVuSans-20" x="147.412109"/>
      <use xlink:href="#DejaVuSans-47" x="179.199219"/>
      <use xlink:href="#DejaVuSans-48" x="256.689453"/>
      <use xlink:href="#DejaVuSans-7a" x="331.884766"/>
     </g>
    </g>
   </g>
   <g id="matplotlib.axis_4">
    <g id="ytick_6">
     <g id="line2d_18">
      <g>
       <use xlink:href="#m79758dbf92" x="50.595313" y="277.937214" style="stroke: #000000; stroke-width: 0.8"/>
      </g>
     </g>
     <g id="text_15">
      <!-- -100 -->
      <g transform="translate(20.9 281.736433) scale(0.1 -0.1)">
       <use xlink:href="#DejaVuSans-2d"/>
       <use xlink:href="#DejaVuSans-31" x="36.083984"/>
       <use xlink:href="#DejaVuSans-30" x="99.707031"/>
       <use xlink:href="#DejaVuSans-30" x="163.330078"/>
      </g>
     </g>
    </g>
    <g id="ytick_7">
     <g id="line2d_19">
      <g>
       <use xlink:href="#m79758dbf92" x="50.595313" y="247.382557" style="stroke: #000000; stroke-width: 0.8"/>
      </g>
     </g>
     <g id="text_16">
      <!-- 0 -->
      <g transform="translate(37.232813 251.181775) scale(0.1 -0.1)">
       <use xlink:href="#DejaVuSans-30"/>
      </g>
     </g>
    </g>
    <g id="ytick_8">
     <g id="line2d_20">
      <g>
       <use xlink:href="#m79758dbf92" x="50.595313" y="216.827899" style="stroke: #000000; stroke-width: 0.8"/>
      </g>
     </g>
     <g id="text_17">
      <!-- 100 -->
      <g transform="translate(24.507813 220.627118) scale(0.1 -0.1)">
       <use xlink:href="#DejaVuSans-31"/>
       <use xlink:href="#DejaVuSans-30" x="63.623047"/>
       <use xlink:href="#DejaVuSans-30" x="127.246094"/>
      </g>
     </g>
    </g>
    <g id="text_18">
     <!-- $\angle S_{21}$ [deg] -->
     <g transform="translate(14.8 274.592) rotate(-90) scale(0.1 -0.1)">
      <defs>
       <path id="DejaVuSans-2220" d="M 5028 631 
L 5028 0 
L 547 0 
L 3525 4666 
L 4281 4666 
L 1716 631 
L 5028 631 
z
" transform="scale(0.015625)"/>
       <path id="DejaVuSans-64" d="M 2906 2969 
L 2906 4863 
L 3481 4863 
L 3481 0 
L 2906 0 
L 2906 525 
Q 2725 213 2448 61 
Q 2172 -91 1784 -91 
Q 1150 -91 751 415 
Q 353 922 353 1747 
Q 353 2572 751 3078 
Q 1150 3584 1784 3584 
Q 2172 3584 2448 3432 
Q 2725 3281 2906 2969 
z
M 947 1747 
Q 947 1113 1208 752 
Q 1469 391 1925 391 
Q 2381 391 2643 752 
Q 2906 1113 2906 1747 
Q 2906 2381 2643 2742 
Q 2381 3103 1925 3103 
Q 1469 3103 1208 2742 
Q 947 2381 947 1747 
z
" transform="scale(0.015625)"/>
       <path id="DejaVuSans-67" d="M 2906 1791 
Q 2906 2416 2648 2759 
Q 2391 3103 1925 3103 
Q 1463 3103 1205 2759 
Q 947 2416 947 1791 
Q 947 1169 1205 825 
Q 1463 481 1925 481 
Q 2391 481 2648 825 
Q 2906 1169 2906 1791 
z
M 3481 434 
Q 3481 -459 3084 -895 
Q 2688 -1331 1869 -1331 
Q 1566 -1331 1297 -1286 
Q 1028 -1241 775 -1147 
L 775 -588 
Q 1028 -725 1275 -790 
Q 1522 -856 1778 -856 
Q 2344 -856 2625 -561 
Q 2906 -266 2906 331 
L 2906 616 
Q 2728 306 2450 153 
Q 2172 0 1784 0 
Q 1141 0 747 490 
Q 353 981 353 1791 
Q 353 2603 747 3093 
Q 1141 3584 1784 3584 
Q 2172 3584 2450 3431 
Q 2728 3278 2906 2969 
L 2906 3500 
L 3481 3500 
L 3481 434 
z
" transform="scale(0.015625)"/>
      </defs>
      <use xlink:href="#DejaVuSans-2220" transform="translate(0 0.015625)"/>
      <use xlink:href="#DejaVuSans-Oblique-53" transform="translate(89.648438 0.015625)"/>
      <use xlink:href="#DejaVuSans-32" transform="translate(153.125 -16.390625) scale(0.7)"/>
      <use xlink:href="#DejaVuSans-31" transform="translate(197.661133 -16.390625) scale(0.7)"/>
      <use xlink:href="#DejaVuSans-20" transform="translate(244.931641 0.015625)"/>
      <use xlink:href="#DejaVuSans-5b" transform="translate(276.71875 0.015625)"/>
      <use xlink:href="#DejaVuSans-64" transform="translate(315.732422 0.015625)"/>
      <use xlink:href="#DejaVuSans-65" transform="translate(379.208984 0.015625)"/>
      <use xlink:href="#DejaVuSans-67" transform="translate(440.732422 0.015625)"/>
      <use xlink:href="#DejaVuSans-5d" transform="translate(504.208984 0.015625)"/>
     </g>
    </g>
   </g>
   <g id="line2d_21">
    <path d="M 66.82804 276.652919 
L 68.45947 276.709468 
L 71.722329 277.182058 
L 73.353759 277.21615 
L 74.985189 277.45473 
L 76.616619 277.551542 
L 81.510909 278.307007 
L 83.142339 278.294436 
L 84.773768 278.393127 
L 88.036628 278.864132 
L 91.299488 279.114362 
L 92.930918 279.43341 
L 96.193778 279.73111 
L 97.825207 279.990089 
L 101.088067 280.016694 
L 102.719497 280.254872 
L 104.350927 280.630593 
L 105.982357 280.753497 
L 107.613787 280.678558 
L 109.245217 281.075863 
L 110.876646 281.204935 
L 112.508076 281.477831 
L 114.139506 281.454879 
L 115.770936 281.953007 
L 117.402366 281.982768 
L 143.505244 284.965468 
L 145.136674 285.28151 
L 146.768104 285.348098 
L 150.030963 285.973708 
L 151.662393 286.106656 
L 154.925253 286.600808 
L 156.556683 286.61934 
L 158.188113 286.864732 
L 159.819543 287.29823 
L 163.082402 287.555407 
L 164.713832 288.005928 
L 167.976692 288.375707 
L 169.608122 288.822766 
L 171.239552 288.9317 
L 177.765271 290.075844 
L 179.396701 290.567042 
L 181.028131 290.69168 
L 182.659561 291.17186 
L 185.922421 291.847327 
L 187.553851 292.446681 
L 190.81671 293.071674 
L 192.44814 293.684474 
L 195.711 294.521947 
L 197.34243 295.247377 
L 198.97386 295.480384 
L 205.499579 298.643468 
L 207.131009 299.37585 
L 208.762439 300.366459 
L 210.393869 301.506402 
L 212.025299 192.508619 
L 213.656729 193.380129 
L 215.288159 194.671715 
L 218.551018 196.214211 
L 220.182448 196.31894 
L 221.813878 194.675039 
L 223.445308 300.515221 
L 225.076738 290.113557 
L 226.708168 281.789707 
L 228.339598 277.842151 
L 229.971027 277.03031 
L 233.233887 277.765792 
L 241.391037 281.367195 
L 243.022466 281.921756 
L 244.653896 282.775892 
L 257.705335 286.731347 
L 260.968195 287.355653 
L 264.231055 288.179011 
L 265.862485 288.406434 
L 267.493915 288.749588 
L 269.125344 289.213009 
L 270.756774 289.35201 
L 274.019634 289.857694 
L 275.651064 289.963108 
L 277.282494 290.427438 
L 278.913924 290.635459 
L 280.545354 291.028646 
L 282.176783 291.109809 
L 288.702503 292.052643 
L 290.333933 292.418409 
L 291.965363 292.537246 
L 293.596793 292.833928 
L 295.228223 292.951262 
L 296.859652 293.277857 
L 300.122512 293.589733 
L 301.753942 293.880974 
L 305.016802 294.196878 
L 306.648232 294.579718 
L 308.279662 294.738143 
L 309.911091 295.10912 
L 313.173951 295.303407 
L 318.068241 296.036826 
L 319.699671 296.014954 
L 321.331101 296.325669 
L 322.96253 296.462133 
L 324.59396 296.840721 
L 326.22539 296.881578 
L 327.85682 297.15444 
L 329.48825 297.569867 
L 331.11968 297.461246 
L 336.013969 298.162136 
L 344.171119 298.9203 
L 345.802549 299.29187 
L 350.696838 299.590235 
L 355.591128 300.411304 
L 357.222558 300.291904 
L 358.853988 300.869133 
L 360.485418 300.842796 
L 362.116847 301.170727 
L 363.748277 301.203789 
L 365.379707 301.434303 
L 367.011137 301.483121 
L 370.273997 301.921187 
L 371.905427 301.962008 
L 375.168286 302.360823 
L 376.799716 192.681272 
L 378.431146 192.647244 
L 380.062576 193.012421 
L 381.694006 193.129789 
L 383.325436 193.374063 
L 384.956866 193.446225 
L 386.588296 193.636248 
L 388.219725 193.573312 
L 391.482585 194.200073 
L 391.482585 194.200073 
" clip-path="url(#p02a5e6dc1f)" style="fill: none; stroke: #1f77b4; stroke-width: 1.5; stroke-linecap: square"/>
    <g clip-path="url(#p02a5e6dc1f)">
     <use xlink:href="#m9c697b63d1" x="66.82804" y="276.652919" style="fill: #1f77b4; stroke: #1f77b4"/>
     <use xlink:href="#m9c697b63d1" x="68.45947" y="276.709468" style="fill: #1f77b4; stroke: #1f77b4"/>
     <use xlink:href="#m9c697b63d1" x="70.0909" y="276.949584" style="fill: #1f77b4; stroke: #1f77b4"/>
     <use xlink:href="#m9c697b63d1" x="71.722329" y="277.182058" style="fill: #1f77b4; stroke: #1f77b4"/>
     <use xlink:href="#m9c697b63d1" x="73.353759" y="277.21615" style="fill: #1f77b4; stroke: #1f77b4"/>
     <use xlink:href="#m9c697b63d1" x="74.985189" y="277.45473" style="fill: #1f77b4; stroke: #1f77b4"/>
     <use xlink:href="#m9c697b63d1" x="76.616619" y="277.551542" style="fill: #1f77b4; stroke: #1f77b4"/>
     <use xlink:href="#m9c697b63d1" x="78.248049" y="277.790134" style="fill: #1f77b4; stroke: #1f77b4"/>
     <use xlink:href="#m9c697b63d1" x="79.879479" y="277.99729" style="fill: #1f77b4; stroke: #1f77b4"/>
     <use xlink:href="#m9c697b63d1" x="81.510909" y="278.307007" style="fill: #1f77b4; stroke: #1f77b4"/>
     <use xlink:href="#m9c697b63d1" x="83.142339" y="278.294436" style="fill: #1f77b4; stroke: #1f77b4"/>
     <use xlink:href="#m9c697b63d1" x="84.773768" y="278.393127" style="fill: #1f77b4; stroke: #1f77b4"/>
     <use xlink:href="#m9c697b63d1" x="86.405198" y="278.663395" style="fill: #1f77b4; stroke: #1f77b4"/>
     <use xlink:href="#m9c697b63d1" x="88.036628" y="278.864132" style="fill: #1f77b4; stroke: #1f77b4"/>
     <use xlink:href="#m9c697b63d1" x="89.668058" y="278.972524" style="fill: #1f77b4; stroke: #1f77b4"/>
     <use xlink:href="#m9c697b63d1" x="91.299488" y="279.114362" style="fill: #1f77b4; stroke: #1f77b4"/>
     <use xlink:href="#m9c697b63d1" x="92.930918" y="279.43341" style="fill: #1f77b4; stroke: #1f77b4"/>
     <use xlink:href="#m9c697b63d1" x="94.562348" y="279.529564" style="fill: #1f77b4; stroke: #1f77b4"/>
     <use xlink:href="#m9c697b63d1" x="96.193778" y="279.73111" style="fill: #1f77b4; stroke: #1f77b4"/>
     <use xlink:href="#m9c697b63d1" x="97.825207" y="279.990089" style="fill: #1f77b4; stroke: #1f77b4"/>
     <use xlink:href="#m9c697b63d1" x="99.456637" y="280.016818" style="fill: #1f77b4; stroke: #1f77b4"/>
     <use xlink:href="#m9c697b63d1" x="101.088067" y="280.016694" style="fill: #1f77b4; stroke: #1f77b4"/>
     <use xlink:href="#m9c697b63d1" x="102.719497" y="280.254872" style="fill: #1f77b4; stroke: #1f77b4"/>
     <use xlink:href="#m9c697b63d1" x="104.350927" y="280.630593" style="fill: #1f77b4; stroke: #1f77b4"/>
     <use xlink:href="#m9c697b63d1" x="105.982357" y="280.753497" style="fill: #1f77b4; stroke: #1f77b4"/>
     <use xlink:href="#m9c697b63d1" x="107.613787" y="280.678558" style="fill: #1f77b4; stroke: #1f77b4"/>
     <use xlink:href="#m9c697b63d1" x="109.245217" y="281.075863" style="fill: #1f77b4; stroke: #1f77b4"/>
     <use xlink:href="#m9c697b63d1" x="110.876646" y="281.204935" style="fill: #1f77b4; stroke: #1f77b4"/>
     <use xlink:href="#m9c697b63d1" x="112.508076" y="281.477831" style="fill: #1f77b4; stroke: #1f77b4"/>
     <use xlink:href="#m9c697b63d1" x="114.139506" y="281.454879" style="fill: #1f77b4; stroke: #1f77b4"/>
     <use xlink:href="#m9c697b63d1" x="115.770936" y="281.953007" style="fill: #1f77b4; stroke: #1f77b4"/>
     <use xlink:href="#m9c697b63d1" x="117.402366" y="281.982768" style="fill: #1f77b4; stroke: #1f77b4"/>
     <use xlink:href="#m9c697b63d1" x="119.033796" y="282.16986" style="fill: #1f77b4; stroke: #1f77b4"/>
     <use xlink:href="#m9c697b63d1" x="120.665226" y="282.272006" style="fill: #1f77b4; stroke: #1f77b4"/>
     <use xlink:href="#m9c697b63d1" x="122.296656" y="282.619195" style="fill: #1f77b4; stroke: #1f77b4"/>
     <use xlink:href="#m9c697b63d1" x="123.928085" y="282.767257" style="fill: #1f77b4; stroke: #1f77b4"/>
     <use xlink:href="#m9c697b63d1" x="125.559515" y="282.971985" style="fill: #1f77b4; stroke: #1f77b4"/>
     <use xlink:href="#m9c697b63d1" x="127.190945" y="283.01697" style="fill: #1f77b4; stroke: #1f77b4"/>
     <use xlink:href="#m9c697b63d1" x="128.822375" y="283.269076" style="fill: #1f77b4; stroke: #1f77b4"/>
     <use xlink:href="#m9c697b63d1" x="130.453805" y="283.514718" style="fill: #1f77b4; stroke: #1f77b4"/>
     <use xlink:href="#m9c697b63d1" x="132.085235" y="283.565548" style="fill: #1f77b4; stroke: #1f77b4"/>
     <use xlink:href="#m9c697b63d1" x="133.716665" y="283.744269" style="fill: #1f77b4; stroke: #1f77b4"/>
     <use xlink:href="#m9c697b63d1" x="135.348095" y="284.016026" style="fill: #1f77b4; stroke: #1f77b4"/>
     <use xlink:href="#m9c697b63d1" x="136.979524" y="284.211673" style="fill: #1f77b4; stroke: #1f77b4"/>
     <use xlink:href="#m9c697b63d1" x="138.610954" y="284.511936" style="fill: #1f77b4; stroke: #1f77b4"/>
     <use xlink:href="#m9c697b63d1" x="140.242384" y="284.696062" style="fill: #1f77b4; stroke: #1f77b4"/>
     <use xlink:href="#m9c697b63d1" x="141.873814" y="284.773762" style="fill: #1f77b4; stroke: #1f77b4"/>
     <use xlink:href="#m9c697b63d1" x="143.505244" y="284.965468" style="fill: #1f77b4; stroke: #1f77b4"/>
     <use xlink:href="#m9c697b63d1" x="145.136674" y="285.28151" style="fill: #1f77b4; stroke: #1f77b4"/>
     <use xlink:href="#m9c697b63d1" x="146.768104" y="285.348098" style="fill: #1f77b4; stroke: #1f77b4"/>
     <use xlink:href="#m9c697b63d1" x="148.399534" y="285.714517" style="fill: #1f77b4; stroke: #1f77b4"/>
     <use xlink:href="#m9c697b63d1" x="150.030963" y="285.973708" style="fill: #1f77b4; stroke: #1f77b4"/>
     <use xlink:href="#m9c697b63d1" x="151.662393" y="286.106656" style="fill: #1f77b4; stroke: #1f77b4"/>
     <use xlink:href="#m9c697b63d1" x="153.293823" y="286.408143" style="fill: #1f77b4; stroke: #1f77b4"/>
     <use xlink:href="#m9c697b63d1" x="154.925253" y="286.600808" style="fill: #1f77b4; stroke: #1f77b4"/>
     <use xlink:href="#m9c697b63d1" x="156.556683" y="286.61934" style="fill: #1f77b4; stroke: #1f77b4"/>
     <use xlink:href="#m9c697b63d1" x="158.188113" y="286.864732" style="fill: #1f77b4; stroke: #1f77b4"/>
     <use xlink:href="#m9c697b63d1" x="159.819543" y="287.29823" style="fill: #1f77b4; stroke: #1f77b4"/>
     <use xlink:href="#m9c697b63d1" x="161.450973" y="287.422302" style="fill: #1f77b4; stroke: #1f77b4"/>
     <use xlink:href="#m9c697b63d1" x="163.082402" y="287.555407" style="fill: #1f77b4; stroke: #1f77b4"/>
     <use xlink:href="#m9c697b63d1" x="164.713832" y="288.005928" style="fill: #1f77b4; stroke: #1f77b4"/>
     <use xlink:href="#m9c697b63d1" x="166.345262" y="288.138966" style="fill: #1f77b4; stroke: #1f77b4"/>
     <use xlink:href="#m9c697b63d1" x="167.976692" y="288.375707" style="fill: #1f77b4; stroke: #1f77b4"/>
     <use xlink:href="#m9c697b63d1" x="169.608122" y="288.822766" style="fill: #1f77b4; stroke: #1f77b4"/>
     <use xlink:href="#m9c697b63d1" x="171.239552" y="288.9317" style="fill: #1f77b4; stroke: #1f77b4"/>
     <use xlink:href="#m9c697b63d1" x="172.870982" y="289.211922" style="fill: #1f77b4; stroke: #1f77b4"/>
     <use xlink:href="#m9c697b63d1" x="174.502412" y="289.504874" style="fill: #1f77b4; stroke: #1f77b4"/>
     <use xlink:href="#m9c697b63d1" x="176.133842" y="289.875486" style="fill: #1f77b4; stroke: #1f77b4"/>
     <use xlink:href="#m9c697b63d1" x="177.765271" y="290.075844" style="fill: #1f77b4; stroke: #1f77b4"/>
     <use xlink:href="#m9c697b63d1" x="179.396701" y="290.567042" style="fill: #1f77b4; stroke: #1f77b4"/>
     <use xlink:href="#m9c697b63d1" x="181.028131" y="290.69168" style="fill: #1f77b4; stroke: #1f77b4"/>
     <use xlink:href="#m9c697b63d1" x="182.659561" y="291.17186" style="fill: #1f77b4; stroke: #1f77b4"/>
     <use xlink:href="#m9c697b63d1" x="184.290991" y="291.49506" style="fill: #1f77b4; stroke: #1f77b4"/>
     <use xlink:href="#m9c697b63d1" x="185.922421" y="291.847327" style="fill: #1f77b4; stroke: #1f77b4"/>
     <use xlink:href="#m9c697b63d1" x="187.553851" y="292.446681" style="fill: #1f77b4; stroke: #1f77b4"/>
     <use xlink:href="#m9c697b63d1" x="189.185281" y="292.742981" style="fill: #1f77b4; stroke: #1f77b4"/>
     <use xlink:href="#m9c697b63d1" x="190.81671" y="293.071674" style="fill: #1f77b4; stroke: #1f77b4"/>
     <use xlink:href="#m9c697b63d1" x="192.44814" y="293.684474" style="fill: #1f77b4; stroke: #1f77b4"/>
     <use xlink:href="#m9c697b63d1" x="194.07957" y="294.130475" style="fill: #1f77b4; stroke: #1f77b4"/>
     <use xlink:href="#m9c697b63d1" x="195.711" y="294.521947" style="fill: #1f77b4; stroke: #1f77b4"/>
     <use xlink:href="#m9c697b63d1" x="197.34243" y="295.247377" style="fill: #1f77b4; stroke: #1f77b4"/>
     <use xlink:href="#m9c697b63d1" x="198.97386" y="295.480384" style="fill: #1f77b4; stroke: #1f77b4"/>
     <use xlink:href="#m9c697b63d1" x="200.60529" y="296.285494" style="fill: #1f77b4; stroke: #1f77b4"/>
     <use xlink:href="#m9c697b63d1" x="202.23672" y="296.999187" style="fill: #1f77b4; stroke: #1f77b4"/>
     <use xlink:href="#m9c697b63d1" x="203.868149" y="297.845112" style="fill: #1f77b4; stroke: #1f77b4"/>
     <use xlink:href="#m9c697b63d1" x="205.499579" y="298.643468" style="fill: #1f77b4; stroke: #1f77b4"/>
     <use xlink:href="#m9c697b63d1" x="207.131009" y="299.37585" style="fill: #1f77b4; stroke: #1f77b4"/>
     <use xlink:href="#m9c697b63d1" x="208.762439" y="300.366459" style="fill: #1f77b4; stroke: #1f77b4"/>
     <use xlink:href="#m9c697b63d1" x="210.393869" y="301.506402" style="fill: #1f77b4; stroke: #1f77b4"/>
     <use xlink:href="#m9c697b63d1" x="212.025299" y="192.508619" style="fill: #1f77b4; stroke: #1f77b4"/>
     <use xlink:href="#m9c697b63d1" x="213.656729" y="193.380129" style="fill: #1f77b4; stroke: #1f77b4"/>
     <use xlink:href="#m9c697b63d1" x="215.288159" y="194.671715" style="fill: #1f77b4; stroke: #1f77b4"/>
     <use xlink:href="#m9c697b63d1" x="216.919588" y="195.461683" style="fill: #1f77b4; stroke: #1f77b4"/>
     <use xlink:href="#m9c697b63d1" x="218.551018" y="196.214211" style="fill: #1f77b4; stroke: #1f77b4"/>
     <use xlink:href="#m9c697b63d1" x="220.182448" y="196.31894" style="fill: #1f77b4; stroke: #1f77b4"/>
     <use xlink:href="#m9c697b63d1" x="221.813878" y="194.675039" style="fill: #1f77b4; stroke: #1f77b4"/>
     <use xlink:href="#m9c697b63d1" x="223.445308" y="300.515221" style="fill: #1f77b4; stroke: #1f77b4"/>
     <use xlink:href="#m9c697b63d1" x="225.076738" y="290.113557" style="fill: #1f77b4; stroke: #1f77b4"/>
     <use xlink:href="#m9c697b63d1" x="226.708168" y="281.789707" style="fill: #1f77b4; stroke: #1f77b4"/>
     <use xlink:href="#m9c697b63d1" x="228.339598" y="277.842151" style="fill: #1f77b4; stroke: #1f77b4"/>
     <use xlink:href="#m9c697b63d1" x="229.971027" y="277.03031" style="fill: #1f77b4; stroke: #1f77b4"/>
     <use xlink:href="#m9c697b63d1" x="231.602457" y="277.349407" style="fill: #1f77b4; stroke: #1f77b4"/>
     <use xlink:href="#m9c697b63d1" x="233.233887" y="277.765792" style="fill: #1f77b4; stroke: #1f77b4"/>
     <use xlink:href="#m9c697b63d1" x="234.865317" y="278.479312" style="fill: #1f77b4; stroke: #1f77b4"/>
     <use xlink:href="#m9c697b63d1" x="236.496747" y="279.254244" style="fill: #1f77b4; stroke: #1f77b4"/>
     <use xlink:href="#m9c697b63d1" x="238.128177" y="280.010294" style="fill: #1f77b4; stroke: #1f77b4"/>
     <use xlink:href="#m9c697b63d1" x="239.759607" y="280.60905" style="fill: #1f77b4; stroke: #1f77b4"/>
     <use xlink:href="#m9c697b63d1" x="241.391037" y="281.367195" style="fill: #1f77b4; stroke: #1f77b4"/>
     <use xlink:href="#m9c697b63d1" x="243.022466" y="281.921756" style="fill: #1f77b4; stroke: #1f77b4"/>
     <use xlink:href="#m9c697b63d1" x="244.653896" y="282.775892" style="fill: #1f77b4; stroke: #1f77b4"/>
     <use xlink:href="#m9c697b63d1" x="246.285326" y="283.280778" style="fill: #1f77b4; stroke: #1f77b4"/>
     <use xlink:href="#m9c697b63d1" x="247.916756" y="283.827961" style="fill: #1f77b4; stroke: #1f77b4"/>
     <use xlink:href="#m9c697b63d1" x="249.548186" y="284.404063" style="fill: #1f77b4; stroke: #1f77b4"/>
     <use xlink:href="#m9c697b63d1" x="251.179616" y="284.89807" style="fill: #1f77b4; stroke: #1f77b4"/>
     <use xlink:href="#m9c697b63d1" x="252.811046" y="285.390881" style="fill: #1f77b4; stroke: #1f77b4"/>
     <use xlink:href="#m9c697b63d1" x="254.442476" y="285.707233" style="fill: #1f77b4; stroke: #1f77b4"/>
     <use xlink:href="#m9c697b63d1" x="256.073905" y="286.241708" style="fill: #1f77b4; stroke: #1f77b4"/>
     <use xlink:href="#m9c697b63d1" x="257.705335" y="286.731347" style="fill: #1f77b4; stroke: #1f77b4"/>
     <use xlink:href="#m9c697b63d1" x="259.336765" y="286.989247" style="fill: #1f77b4; stroke: #1f77b4"/>
     <use xlink:href="#m9c697b63d1" x="260.968195" y="287.355653" style="fill: #1f77b4; stroke: #1f77b4"/>
     <use xlink:href="#m9c697b63d1" x="262.599625" y="287.790081" style="fill: #1f77b4; stroke: #1f77b4"/>
     <use xlink:href="#m9c697b63d1" x="264.231055" y="288.179011" style="fill: #1f77b4; stroke: #1f77b4"/>
     <use xlink:href="#m9c697b63d1" x="265.862485" y="288.406434" style="fill: #1f77b4; stroke: #1f77b4"/>
     <use xlink:href="#m9c697b63d1" x="267.493915" y="288.749588" style="fill: #1f77b4; stroke: #1f77b4"/>
     <use xlink:href="#m9c697b63d1" x="269.125344" y="289.213009" style="fill: #1f77b4; stroke: #1f77b4"/>
     <use xlink:href="#m9c697b63d1" x="270.756774" y="289.35201" style="fill: #1f77b4; stroke: #1f77b4"/>
     <use xlink:href="#m9c697b63d1" x="272.388204" y="289.619686" style="fill: #1f77b4; stroke: #1f77b4"/>
     <use xlink:href="#m9c697b63d1" x="274.019634" y="289.857694" style="fill: #1f77b4; stroke: #1f77b4"/>
     <use xlink:href="#m9c697b63d1" x="275.651064" y="289.963108" style="fill: #1f77b4; stroke: #1f77b4"/>
     <use xlink:href="#m9c697b63d1" x="277.282494" y="290.427438" style="fill: #1f77b4; stroke: #1f77b4"/>
     <use xlink:href="#m9c697b63d1" x="278.913924" y="290.635459" style="fill: #1f77b4; stroke: #1f77b4"/>
     <use xlink:href="#m9c697b63d1" x="280.545354" y="291.028646" style="fill: #1f77b4; stroke: #1f77b4"/>
     <use xlink:href="#m9c697b63d1" x="282.176783" y="291.109809" style="fill: #1f77b4; stroke: #1f77b4"/>
     <use xlink:href="#m9c697b63d1" x="283.808213" y="291.334105" style="fill: #1f77b4; stroke: #1f77b4"/>
     <use xlink:href="#m9c697b63d1" x="285.439643" y="291.545179" style="fill: #1f77b4; stroke: #1f77b4"/>
     <use xlink:href="#m9c697b63d1" x="287.071073" y="291.866079" style="fill: #1f77b4; stroke: #1f77b4"/>
     <use xlink:href="#m9c697b63d1" x="288.702503" y="292.052643" style="fill: #1f77b4; stroke: #1f77b4"/>
     <use xlink:href="#m9c697b63d1" x="290.333933" y="292.418409" style="fill: #1f77b4; stroke: #1f77b4"/>
     <use xlink:href="#m9c697b63d1" x="291.965363" y="292.537246" style="fill: #1f77b4; stroke: #1f77b4"/>
     <use xlink:href="#m9c697b63d1" x="293.596793" y="292.833928" style="fill: #1f77b4; stroke: #1f77b4"/>
     <use xlink:href="#m9c697b63d1" x="295.228223" y="292.951262" style="fill: #1f77b4; stroke: #1f77b4"/>
     <use xlink:href="#m9c697b63d1" x="296.859652" y="293.277857" style="fill: #1f77b4; stroke: #1f77b4"/>
     <use xlink:href="#m9c697b63d1" x="298.491082" y="293.416018" style="fill: #1f77b4; stroke: #1f77b4"/>
     <use xlink:href="#m9c697b63d1" x="300.122512" y="293.589733" style="fill: #1f77b4; stroke: #1f77b4"/>
     <use xlink:href="#m9c697b63d1" x="301.753942" y="293.880974" style="fill: #1f77b4; stroke: #1f77b4"/>
     <use xlink:href="#m9c697b63d1" x="303.385372" y="294.054462" style="fill: #1f77b4; stroke: #1f77b4"/>
     <use xlink:href="#m9c697b63d1" x="305.016802" y="294.196878" style="fill: #1f77b4; stroke: #1f77b4"/>
     <use xlink:href="#m9c697b63d1" x="306.648232" y="294.579718" style="fill: #1f77b4; stroke: #1f77b4"/>
     <use xlink:href="#m9c697b63d1" x="308.279662" y="294.738143" style="fill: #1f77b4; stroke: #1f77b4"/>
     <use xlink:href="#m9c697b63d1" x="309.911091" y="295.10912" style="fill: #1f77b4; stroke: #1f77b4"/>
     <use xlink:href="#m9c697b63d1" x="311.542521" y="295.177118" style="fill: #1f77b4; stroke: #1f77b4"/>
     <use xlink:href="#m9c697b63d1" x="313.173951" y="295.303407" style="fill: #1f77b4; stroke: #1f77b4"/>
     <use xlink:href="#m9c697b63d1" x="314.805381" y="295.580164" style="fill: #1f77b4; stroke: #1f77b4"/>
     <use xlink:href="#m9c697b63d1" x="316.436811" y="295.809651" style="fill: #1f77b4; stroke: #1f77b4"/>
     <use xlink:href="#m9c697b63d1" x="318.068241" y="296.036826" style="fill: #1f77b4; stroke: #1f77b4"/>
     <use xlink:href="#m9c697b63d1" x="319.699671" y="296.014954" style="fill: #1f77b4; stroke: #1f77b4"/>
     <use xlink:href="#m9c697b63d1" x="321.331101" y="296.325669" style="fill: #1f77b4; stroke: #1f77b4"/>
     <use xlink:href="#m9c697b63d1" x="322.96253" y="296.462133" style="fill: #1f77b4; stroke: #1f77b4"/>
     <use xlink:href="#m9c697b63d1" x="324.59396" y="296.840721" style="fill: #1f77b4; stroke: #1f77b4"/>
     <use xlink:href="#m9c697b63d1" x="326.22539" y="296.881578" style="fill: #1f77b4; stroke: #1f77b4"/>
     <use xlink:href="#m9c697b63d1" x="327.85682" y="297.15444" style="fill: #1f77b4; stroke: #1f77b4"/>
     <use xlink:href="#m9c697b63d1" x="329.48825" y="297.569867" style="fill: #1f77b4; stroke: #1f77b4"/>
     <use xlink:href="#m9c697b63d1" x="331.11968" y="297.461246" style="fill: #1f77b4; stroke: #1f77b4"/>
     <use xlink:href="#m9c697b63d1" x="332.75111" y="297.708365" style="fill: #1f77b4; stroke: #1f77b4"/>
     <use xlink:href="#m9c697b63d1" x="334.38254" y="297.869232" style="fill: #1f77b4; stroke: #1f77b4"/>
     <use xlink:href="#m9c697b63d1" x="336.013969" y="298.162136" style="fill: #1f77b4; stroke: #1f77b4"/>
     <use xlink:href="#m9c697b63d1" x="337.645399" y="298.308724" style="fill: #1f77b4; stroke: #1f77b4"/>
     <use xlink:href="#m9c697b63d1" x="339.276829" y="298.345658" style="fill: #1f77b4; stroke: #1f77b4"/>
     <use xlink:href="#m9c697b63d1" x="340.908259" y="298.645348" style="fill: #1f77b4; stroke: #1f77b4"/>
     <use xlink:href="#m9c697b63d1" x="342.539689" y="298.829897" style="fill: #1f77b4; stroke: #1f77b4"/>
     <use xlink:href="#m9c697b63d1" x="344.171119" y="298.9203" style="fill: #1f77b4; stroke: #1f77b4"/>
     <use xlink:href="#m9c697b63d1" x="345.802549" y="299.29187" style="fill: #1f77b4; stroke: #1f77b4"/>
     <use xlink:href="#m9c697b63d1" x="347.433979" y="299.393682" style="fill: #1f77b4; stroke: #1f77b4"/>
     <use xlink:href="#m9c697b63d1" x="349.065408" y="299.492723" style="fill: #1f77b4; stroke: #1f77b4"/>
     <use xlink:href="#m9c697b63d1" x="350.696838" y="299.590235" style="fill: #1f77b4; stroke: #1f77b4"/>
     <use xlink:href="#m9c697b63d1" x="352.328268" y="299.844251" style="fill: #1f77b4; stroke: #1f77b4"/>
     <use xlink:href="#m9c697b63d1" x="353.959698" y="300.169627" style="fill: #1f77b4; stroke: #1f77b4"/>
     <use xlink:href="#m9c697b63d1" x="355.591128" y="300.411304" style="fill: #1f77b4; stroke: #1f77b4"/>
     <use xlink:href="#m9c697b63d1" x="357.222558" y="300.291904" style="fill: #1f77b4; stroke: #1f77b4"/>
     <use xlink:href="#m9c697b63d1" x="358.853988" y="300.869133" style="fill: #1f77b4; stroke: #1f77b4"/>
     <use xlink:href="#m9c697b63d1" x="360.485418" y="300.842796" style="fill: #1f77b4; stroke: #1f77b4"/>
     <use xlink:href="#m9c697b63d1" x="362.116847" y="301.170727" style="fill: #1f77b4; stroke: #1f77b4"/>
     <use xlink:href="#m9c697b63d1" x="363.748277" y="301.203789" style="fill: #1f77b4; stroke: #1f77b4"/>
     <use xlink:href="#m9c697b63d1" x="365.379707" y="301.434303" style="fill: #1f77b4; stroke: #1f77b4"/>
     <use xlink:href="#m9c697b63d1" x="367.011137" y="301.483121" style="fill: #1f77b4; stroke: #1f77b4"/>
     <use xlink:href="#m9c697b63d1" x="368.642567" y="301.698918" style="fill: #1f77b4; stroke: #1f77b4"/>
     <use xlink:href="#m9c697b63d1" x="370.273997" y="301.921187" style="fill: #1f77b4; stroke: #1f77b4"/>
     <use xlink:href="#m9c697b63d1" x="371.905427" y="301.962008" style="fill: #1f77b4; stroke: #1f77b4"/>
     <use xlink:href="#m9c697b63d1" x="373.536857" y="302.178754" style="fill: #1f77b4; stroke: #1f77b4"/>
     <use xlink:href="#m9c697b63d1" x="375.168286" y="302.360823" style="fill: #1f77b4; stroke: #1f77b4"/>
     <use xlink:href="#m9c697b63d1" x="376.799716" y="192.681272" style="fill: #1f77b4; stroke: #1f77b4"/>
     <use xlink:href="#m9c697b63d1" x="378.431146" y="192.647244" style="fill: #1f77b4; stroke: #1f77b4"/>
     <use xlink:href="#m9c697b63d1" x="380.062576" y="193.012421" style="fill: #1f77b4; stroke: #1f77b4"/>
     <use xlink:href="#m9c697b63d1" x="381.694006" y="193.129789" style="fill: #1f77b4; stroke: #1f77b4"/>
     <use xlink:href="#m9c697b63d1" x="383.325436" y="193.374063" style="fill: #1f77b4; stroke: #1f77b4"/>
     <use xlink:href="#m9c697b63d1" x="384.956866" y="193.446225" style="fill: #1f77b4; stroke: #1f77b4"/>
     <use xlink:href="#m9c697b63d1" x="386.588296" y="193.636248" style="fill: #1f77b4; stroke: #1f77b4"/>
     <use xlink:href="#m9c697b63d1" x="388.219725" y="193.573312" style="fill: #1f77b4; stroke: #1f77b4"/>
     <use xlink:href="#m9c697b63d1" x="389.851155" y="193.848182" style="fill: #1f77b4; stroke: #1f77b4"/>
     <use xlink:href="#m9c697b63d1" x="391.482585" y="194.200073" style="fill: #1f77b4; stroke: #1f77b4"/>
    </g>
   </g>
   <g id="line2d_22">
    <path d="M 66.82804 276.550711 
L 104.850644 280.531468 
L 130.524027 283.428927 
L 148.72288 285.693751 
L 162.047041 287.560975 
L 172.446385 289.234222 
L 180.570874 290.759968 
L 187.070464 292.198563 
L 192.270136 293.558743 
L 196.81985 294.968203 
L 200.719604 296.400742 
L 204.294379 297.955083 
L 207.544174 299.619177 
L 210.793969 301.557574 
L 211.768908 302.191865 
L 212.093887 192.411291 
L 218.268498 196.462661 
L 219.243437 196.856452 
L 220.218376 197.004448 
L 220.868335 196.882648 
L 221.518294 196.487876 
L 222.168253 195.686204 
L 222.818212 194.27034 
L 223.143191 193.241416 
L 223.468171 301.936982 
L 224.11813 298.370114 
L 225.093068 290.971238 
L 226.068007 284.116863 
L 226.717966 281.090719 
L 227.367925 279.152799 
L 228.017884 277.969792 
L 228.667843 277.284228 
L 229.317802 276.926511 
L 229.967761 276.788218 
L 230.9427 276.845669 
L 232.242618 277.211493 
L 234.192495 278.04905 
L 243.291922 282.28043 
L 247.191676 283.742016 
L 251.741389 285.192765 
L 256.941062 286.594583 
L 262.790693 287.936123 
L 269.940243 289.34141 
L 278.71469 290.831102 
L 289.763994 292.47184 
L 304.063093 294.357801 
L 322.911905 296.606642 
L 348.585288 299.432295 
L 376.858507 302.373818 
L 377.183486 192.410182 
L 391.482585 193.856508 
L 391.482585 193.856508 
" clip-path="url(#p02a5e6dc1f)" style="fill: none; stroke: #d62728; stroke-width: 1.5; stroke-linecap: square"/>
   </g>
   <g id="patch_9">
    <path d="M 50.595313 307.872 
L 50.595313 186.912 
" style="fill: none; stroke: #000000; stroke-width: 0.8; stroke-linejoin: miter; stroke-linecap: square"/>
   </g>
   <g id="patch_10">
    <path d="M 407.715312 307.872 
L 407.715312 186.912 
" style="fill: none; stroke: #000000; stroke-width: 0.8; stroke-linejoin: miter; stroke-linecap: square"/>
   </g>
   <g id="patch_11">
    <path d="M 50.595312 307.872 
L 407.715312 307.872 
" style="fill: none; stroke: #000000; stroke-width: 0.8; stroke-linejoin: miter; stroke-linecap: square"/>
   </g>
   <g id="patch_12">
    <path d="M 50.595312 186.912 
L 407.715312 186.912 
" style="fill: none; stroke: #000000; stroke-width: 0.8; stroke-linejoin: miter; stroke-linecap: square"/>
   </g>
  </g>
  <g id="text_19">
   <!-- S21 resonator spectroscopy -->
   <g transform="translate(139.610938 16.318125) scale(0.12 -0.12)">
    <defs>
     <path id="DejaVuSans-73" d="M 2834 3397 
L 2834 2853 
Q 2591 2978 2328 3040 
Q 2066 3103 1784 3103 
Q 1356 3103 1142 2972 
Q 928 2841 928 2578 
Q 928 2378 1081 2264 
Q 1234 2150 1697 2047 
L 1894 2003 
Q 2506 1872 2764 1633 
Q 3022 1394 3022 966 
Q 3022 478 2636 193 
Q 2250 -91 1575 -91 
Q 1294 -91 989 -36 
Q 684 19 347 128 
L 347 722 
Q 666 556 975 473 
Q 1284 391 1588 391 
Q 1994 391 2212 530 
Q 2431 669 2431 922 
Q 2431 1156 2273 1281 
Q 2116 1406 1581 1522 
L 1381 1569 
Q 847 1681 609 1914 
Q 372 2147 372 2553 
Q 372 3047 722 3315 
Q 1072 3584 1716 3584 
Q 2034 3584 2315 3537 
Q 2597 3491 2834 3397 
z
" transform="scale(0.015625)"/>
     <path id="DejaVuSans-6f" d="M 1959 3097 
Q 1497 3097 1228 2736 
Q 959 2375 959 1747 
Q 959 1119 1226 758 
Q 1494 397 1959 397 
Q 2419 397 2687 759 
Q 2956 1122 2956 1747 
Q 2956 2369 2687 2733 
Q 2419 3097 1959 3097 
z
M 1959 3584 
Q 2709 3584 3137 3096 
Q 3566 2609 3566 1747 
Q 3566 888 3137 398 
Q 2709 -91 1959 -91 
Q 1206 -91 779 398 
Q 353 888 353 1747 
Q 353 2609 779 3096 
Q 1206 3584 1959 3584 
z
" transform="scale(0.015625)"/>
     <path id="DejaVuSans-74" d="M 1172 4494 
L 1172 3500 
L 2356 3500 
L 2356 3053 
L 1172 3053 
L 1172 1153 
Q 1172 725 1289 603 
Q 1406 481 1766 481 
L 2356 481 
L 2356 0 
L 1766 0 
Q 1100 0 847 248 
Q 594 497 594 1153 
L 594 3053 
L 172 3053 
L 172 3500 
L 594 3500 
L 594 4494 
L 1172 4494 
z
" transform="scale(0.015625)"/>
     <path id="DejaVuSans-70" d="M 1159 525 
L 1159 -1331 
L 581 -1331 
L 581 3500 
L 1159 3500 
L 1159 2969 
Q 1341 3281 1617 3432 
Q 1894 3584 2278 3584 
Q 2916 3584 3314 3078 
Q 3713 2572 3713 1747 
Q 3713 922 3314 415 
Q 2916 -91 2278 -91 
Q 1894 -91 1617 61 
Q 1341 213 1159 525 
z
M 3116 1747 
Q 3116 2381 2855 2742 
Q 2594 3103 2138 3103 
Q 1681 3103 1420 2742 
Q 1159 2381 1159 1747 
Q 1159 1113 1420 752 
Q 1681 391 2138 391 
Q 2594 391 2855 752 
Q 3116 1113 3116 1747 
z
" transform="scale(0.015625)"/>
    </defs>
    <use xlink:href="#DejaVuSans-53"/>
    <use xlink:href="#DejaVuSans-32" x="63.476562"/>
    <use xlink:href="#DejaVuSans-31" x="127.099609"/>
    <use xlink:href="#DejaVuSans-20" x="190.722656"/>
    <use xlink:href="#DejaVuSans-72" x="222.509766"/>
    <use xlink:href="#DejaVuSans-65" x="261.373047"/>
    <use xlink:href="#DejaVuSans-73" x="322.896484"/>
    <use xlink:href="#DejaVuSans-6f" x="374.996094"/>
    <use xlink:href="#DejaVuSans-6e" x="436.177734"/>
    <use xlink:href="#DejaVuSans-61" x="499.556641"/>
    <use xlink:href="#DejaVuSans-74" x="560.835938"/>
    <use xlink:href="#DejaVuSans-6f" x="600.044922"/>
    <use xlink:href="#DejaVuSans-72" x="661.226562"/>
    <use xlink:href="#DejaVuSans-20" x="702.339844"/>
    <use xlink:href="#DejaVuSans-73" x="734.126953"/>
    <use xlink:href="#DejaVuSans-70" x="786.226562"/>
    <use xlink:href="#DejaVuSans-65" x="849.703125"/>
    <use xlink:href="#DejaVuSans-63" x="911.226562"/>
    <use xlink:href="#DejaVuSans-74" x="966.207031"/>
    <use xlink:href="#DejaVuSans-72" x="1005.416016"/>
    <use xlink:href="#DejaVuSans-6f" x="1044.279297"/>
    <use xlink:href="#DejaVuSans-73" x="1105.460938"/>
    <use xlink:href="#DejaVuSans-63" x="1157.560547"/>
    <use xlink:href="#DejaVuSans-6f" x="1212.541016"/>
    <use xlink:href="#DejaVuSans-70" x="1273.722656"/>
    <use xlink:href="#DejaVuSans-79" x="1337.199219"/>
   </g>
   <!-- tuid: 20231227-160743-872-0b726e -->
   <g transform="translate(113.674063 29.7555) scale(0.12 -0.12)">
    <defs>
     <path id="DejaVuSans-69" d="M 603 3500 
L 1178 3500 
L 1178 0 
L 603 0 
L 603 3500 
z
M 603 4863 
L 1178 4863 
L 1178 4134 
L 603 4134 
L 603 4863 
z
" transform="scale(0.015625)"/>
     <path id="DejaVuSans-62" d="M 3116 1747 
Q 3116 2381 2855 2742 
Q 2594 3103 2138 3103 
Q 1681 3103 1420 2742 
Q 1159 2381 1159 1747 
Q 1159 1113 1420 752 
Q 1681 391 2138 391 
Q 2594 391 2855 752 
Q 3116 1113 3116 1747 
z
M 1159 2969 
Q 1341 3281 1617 3432 
Q 1894 3584 2278 3584 
Q 2916 3584 3314 3078 
Q 3713 2572 3713 1747 
Q 3713 922 3314 415 
Q 2916 -91 2278 -91 
Q 1894 -91 1617 61 
Q 1341 213 1159 525 
L 1159 0 
L 581 0 
L 581 4863 
L 1159 4863 
L 1159 2969 
z
" transform="scale(0.015625)"/>
    </defs>
    <use xlink:href="#DejaVuSans-74"/>
    <use xlink:href="#DejaVuSans-75" x="39.208984"/>
    <use xlink:href="#DejaVuSans-69" x="102.587891"/>
    <use xlink:href="#DejaVuSans-64" x="130.371094"/>
    <use xlink:href="#DejaVuSans-3a" x="193.847656"/>
    <use xlink:href="#DejaVuSans-20" x="227.539062"/>
    <use xlink:href="#DejaVuSans-32" x="259.326172"/>
    <use xlink:href="#DejaVuSans-30" x="322.949219"/>
    <use xlink:href="#DejaVuSans-32" x="386.572266"/>
    <use xlink:href="#DejaVuSans-33" x="450.195312"/>
    <use xlink:href="#DejaVuSans-31" x="513.818359"/>
    <use xlink:href="#DejaVuSans-32" x="577.441406"/>
    <use xlink:href="#DejaVuSans-32" x="641.064453"/>
    <use xlink:href="#DejaVuSans-37" x="704.6875"/>
    <use xlink:href="#DejaVuSans-2d" x="768.310547"/>
    <use xlink:href="#DejaVuSans-31" x="804.394531"/>
    <use xlink:href="#DejaVuSans-36" x="868.017578"/>
    <use xlink:href="#DejaVuSans-30" x="931.640625"/>
    <use xlink:href="#DejaVuSans-37" x="995.263672"/>
    <use xlink:href="#DejaVuSans-34" x="1058.886719"/>
    <use xlink:href="#DejaVuSans-33" x="1122.509766"/>
    <use xlink:href="#DejaVuSans-2d" x="1186.132812"/>
    <use xlink:href="#DejaVuSans-38" x="1222.216797"/>
    <use xlink:href="#DejaVuSans-37" x="1285.839844"/>
    <use xlink:href="#DejaVuSans-32" x="1349.462891"/>
    <use xlink:href="#DejaVuSans-2d" x="1413.085938"/>
    <use xlink:href="#DejaVuSans-30" x="1449.169922"/>
    <use xlink:href="#DejaVuSans-62" x="1512.792969"/>
    <use xlink:href="#DejaVuSans-37" x="1576.269531"/>
    <use xlink:href="#DejaVuSans-32" x="1639.892578"/>
    <use xlink:href="#DejaVuSans-36" x="1703.515625"/>
    <use xlink:href="#DejaVuSans-65" x="1767.138672"/>
   </g>
  </g>
 </g>
 <defs>
  <clipPath id="pcc99ee02c3">
   <rect x="50.595313" y="41.76" width="357.12" height="120.96"/>
  </clipPath>
  <clipPath id="p02a5e6dc1f">
   <rect x="50.595313" y="186.912" width="357.12" height="120.96"/>
  </clipPath>
 </defs>
</svg>
