<?xml version="1.0" encoding="utf-8" standalone="no"?>
<!DOCTYPE svg PUBLIC "-//W3C//DTD SVG 1.1//EN"
  "http://www.w3.org/Graphics/SVG/1.1/DTD/svg11.dtd">
<svg xmlns:xlink="http://www.w3.org/1999/xlink" width="521.586937pt" height="345.42825pt" viewBox="0 0 521.586937 345.42825" xmlns="http://www.w3.org/2000/svg" version="1.1">
 <metadata>
  <rdf:RDF xmlns:dc="http://purl.org/dc/elements/1.1/" xmlns:cc="http://creativecommons.org/ns#" xmlns:rdf="http://www.w3.org/1999/02/22-rdf-syntax-ns#">
   <cc:Work>
    <dc:type rdf:resource="http://purl.org/dc/dcmitype/StillImage"/>
    <dc:date>2023-12-27T13:00:33.562826</dc:date>
    <dc:format>image/svg+xml</dc:format>
    <dc:creator>
     <cc:Agent>
      <dc:title>Matplotlib v3.8.2, https://matplotlib.org/</dc:title>
     </cc:Agent>
    </dc:creator>
   </cc:Work>
  </rdf:RDF>
 </metadata>
 <defs>
  <style type="text/css">*{stroke-linejoin: round; stroke-linecap: butt}</style>
 </defs>
 <g id="figure_1">
  <g id="patch_1">
   <path d="M 0 345.42825 
L 521.586937 345.42825 
L 521.586937 -0 
L 0 -0 
L 0 345.42825 
z
" style="fill: none; opacity: 0"/>
  </g>
  <g id="axes_1">
   <g id="patch_2">
    <path d="M 44.210938 162.72 
L 401.330938 162.72 
L 401.330938 41.76 
L 44.210938 41.76 
z
" style="fill: #ffffff"/>
   </g>
   <g id="matplotlib.axis_1">
    <g id="xtick_1">
     <g id="line2d_1">
      <defs>
       <path id="m75a57da72a" d="M 0 0 
L 0 3.5 
" style="stroke: #000000; stroke-width: 0.8"/>
      </defs>
      <g>
       <use xlink:href="#m75a57da72a" x="44.210938" y="162.72" style="stroke: #000000; stroke-width: 0.8"/>
      </g>
     </g>
    </g>
    <g id="xtick_2">
     <g id="line2d_2">
      <g>
       <use xlink:href="#m75a57da72a" x="109.141847" y="162.72" style="stroke: #000000; stroke-width: 0.8"/>
      </g>
     </g>
    </g>
    <g id="xtick_3">
     <g id="line2d_3">
      <g>
       <use xlink:href="#m75a57da72a" x="174.072756" y="162.72" style="stroke: #000000; stroke-width: 0.8"/>
      </g>
     </g>
    </g>
    <g id="xtick_4">
     <g id="line2d_4">
      <g>
       <use xlink:href="#m75a57da72a" x="239.003665" y="162.72" style="stroke: #000000; stroke-width: 0.8"/>
      </g>
     </g>
    </g>
    <g id="xtick_5">
     <g id="line2d_5">
      <g>
       <use xlink:href="#m75a57da72a" x="303.934574" y="162.72" style="stroke: #000000; stroke-width: 0.8"/>
      </g>
     </g>
    </g>
    <g id="xtick_6">
     <g id="line2d_6">
      <g>
       <use xlink:href="#m75a57da72a" x="368.865483" y="162.72" style="stroke: #000000; stroke-width: 0.8"/>
      </g>
     </g>
    </g>
   </g>
   <g id="matplotlib.axis_2">
    <g id="ytick_1">
     <g id="line2d_7">
      <defs>
       <path id="m3a45559aeb" d="M 0 0 
L -3.5 0 
" style="stroke: #000000; stroke-width: 0.8"/>
      </defs>
      <g>
       <use xlink:href="#m3a45559aeb" x="44.210938" y="161.224414" style="stroke: #000000; stroke-width: 0.8"/>
      </g>
     </g>
     <g id="text_1">
      <!-- -10 -->
      <g transform="translate(20.878125 165.023632) scale(0.1 -0.1)">
       <defs>
        <path id="DejaVuSans-2d" d="M 313 2009 
L 1997 2009 
L 1997 1497 
L 313 1497 
L 313 2009 
z
" transform="scale(0.015625)"/>
        <path id="DejaVuSans-31" d="M 794 531 
L 1825 531 
L 1825 4091 
L 703 3866 
L 703 4441 
L 1819 4666 
L 2450 4666 
L 2450 531 
L 3481 531 
L 3481 0 
L 794 0 
L 794 531 
z
" transform="scale(0.015625)"/>
        <path id="DejaVuSans-30" d="M 2034 4250 
Q 1547 4250 1301 3770 
Q 1056 3291 1056 2328 
Q 1056 1369 1301 889 
Q 1547 409 2034 409 
Q 2525 409 2770 889 
Q 3016 1369 3016 2328 
Q 3016 3291 2770 3770 
Q 2525 4250 2034 4250 
z
M 2034 4750 
Q 2819 4750 3233 4129 
Q 3647 3509 3647 2328 
Q 3647 1150 3233 529 
Q 2819 -91 2034 -91 
Q 1250 -91 836 529 
Q 422 1150 422 2328 
Q 422 3509 836 4129 
Q 1250 4750 2034 4750 
z
" transform="scale(0.015625)"/>
       </defs>
       <use xlink:href="#DejaVuSans-2d"/>
       <use xlink:href="#DejaVuSans-31" x="36.083984"/>
       <use xlink:href="#DejaVuSans-30" x="99.707031"/>
      </g>
     </g>
    </g>
    <g id="ytick_2">
     <g id="line2d_8">
      <g>
       <use xlink:href="#m3a45559aeb" x="44.210938" y="127.907347" style="stroke: #000000; stroke-width: 0.8"/>
      </g>
     </g>
     <g id="text_2">
      <!-- -8 -->
      <g transform="translate(27.240625 131.706566) scale(0.1 -0.1)">
       <defs>
        <path id="DejaVuSans-38" d="M 2034 2216 
Q 1584 2216 1326 1975 
Q 1069 1734 1069 1313 
Q 1069 891 1326 650 
Q 1584 409 2034 409 
Q 2484 409 2743 651 
Q 3003 894 3003 1313 
Q 3003 1734 2745 1975 
Q 2488 2216 2034 2216 
z
M 1403 2484 
Q 997 2584 770 2862 
Q 544 3141 544 3541 
Q 544 4100 942 4425 
Q 1341 4750 2034 4750 
Q 2731 4750 3128 4425 
Q 3525 4100 3525 3541 
Q 3525 3141 3298 2862 
Q 3072 2584 2669 2484 
Q 3125 2378 3379 2068 
Q 3634 1759 3634 1313 
Q 3634 634 3220 271 
Q 2806 -91 2034 -91 
Q 1263 -91 848 271 
Q 434 634 434 1313 
Q 434 1759 690 2068 
Q 947 2378 1403 2484 
z
M 1172 3481 
Q 1172 3119 1398 2916 
Q 1625 2713 2034 2713 
Q 2441 2713 2670 2916 
Q 2900 3119 2900 3481 
Q 2900 3844 2670 4047 
Q 2441 4250 2034 4250 
Q 1625 4250 1398 4047 
Q 1172 3844 1172 3481 
z
" transform="scale(0.015625)"/>
       </defs>
       <use xlink:href="#DejaVuSans-2d"/>
       <use xlink:href="#DejaVuSans-38" x="36.083984"/>
      </g>
     </g>
    </g>
    <g id="ytick_3">
     <g id="line2d_9">
      <g>
       <use xlink:href="#m3a45559aeb" x="44.210938" y="94.590281" style="stroke: #000000; stroke-width: 0.8"/>
      </g>
     </g>
     <g id="text_3">
      <!-- -6 -->
      <g transform="translate(27.240625 98.389499) scale(0.1 -0.1)">
       <defs>
        <path id="DejaVuSans-36" d="M 2113 2584 
Q 1688 2584 1439 2293 
Q 1191 2003 1191 1497 
Q 1191 994 1439 701 
Q 1688 409 2113 409 
Q 2538 409 2786 701 
Q 3034 994 3034 1497 
Q 3034 2003 2786 2293 
Q 2538 2584 2113 2584 
z
M 3366 4563 
L 3366 3988 
Q 3128 4100 2886 4159 
Q 2644 4219 2406 4219 
Q 1781 4219 1451 3797 
Q 1122 3375 1075 2522 
Q 1259 2794 1537 2939 
Q 1816 3084 2150 3084 
Q 2853 3084 3261 2657 
Q 3669 2231 3669 1497 
Q 3669 778 3244 343 
Q 2819 -91 2113 -91 
Q 1303 -91 875 529 
Q 447 1150 447 2328 
Q 447 3434 972 4092 
Q 1497 4750 2381 4750 
Q 2619 4750 2861 4703 
Q 3103 4656 3366 4563 
z
" transform="scale(0.015625)"/>
       </defs>
       <use xlink:href="#DejaVuSans-2d"/>
       <use xlink:href="#DejaVuSans-36" x="36.083984"/>
      </g>
     </g>
    </g>
    <g id="ytick_4">
     <g id="line2d_10">
      <g>
       <use xlink:href="#m3a45559aeb" x="44.210938" y="61.273214" style="stroke: #000000; stroke-width: 0.8"/>
      </g>
     </g>
     <g id="text_4">
      <!-- -4 -->
      <g transform="translate(27.240625 65.072433) scale(0.1 -0.1)">
       <defs>
        <path id="DejaVuSans-34" d="M 2419 4116 
L 825 1625 
L 2419 1625 
L 2419 4116 
z
M 2253 4666 
L 3047 4666 
L 3047 1625 
L 3713 1625 
L 3713 1100 
L 3047 1100 
L 3047 0 
L 2419 0 
L 2419 1100 
L 313 1100 
L 313 1709 
L 2253 4666 
z
" transform="scale(0.015625)"/>
       </defs>
       <use xlink:href="#DejaVuSans-2d"/>
       <use xlink:href="#DejaVuSans-34" x="36.083984"/>
      </g>
     </g>
    </g>
    <g id="text_5">
     <!-- Re$(S_{21})$ [mV] -->
     <g transform="translate(14.798437 134.24) rotate(-90) scale(0.1 -0.1)">
      <defs>
       <path id="DejaVuSans-52" d="M 2841 2188 
Q 3044 2119 3236 1894 
Q 3428 1669 3622 1275 
L 4263 0 
L 3584 0 
L 2988 1197 
Q 2756 1666 2539 1819 
Q 2322 1972 1947 1972 
L 1259 1972 
L 1259 0 
L 628 0 
L 628 4666 
L 2053 4666 
Q 2853 4666 3247 4331 
Q 3641 3997 3641 3322 
Q 3641 2881 3436 2590 
Q 3231 2300 2841 2188 
z
M 1259 4147 
L 1259 2491 
L 2053 2491 
Q 2509 2491 2742 2702 
Q 2975 2913 2975 3322 
Q 2975 3731 2742 3939 
Q 2509 4147 2053 4147 
L 1259 4147 
z
" transform="scale(0.015625)"/>
       <path id="DejaVuSans-65" d="M 3597 1894 
L 3597 1613 
L 953 1613 
Q 991 1019 1311 708 
Q 1631 397 2203 397 
Q 2534 397 2845 478 
Q 3156 559 3463 722 
L 3463 178 
Q 3153 47 2828 -22 
Q 2503 -91 2169 -91 
Q 1331 -91 842 396 
Q 353 884 353 1716 
Q 353 2575 817 3079 
Q 1281 3584 2069 3584 
Q 2775 3584 3186 3129 
Q 3597 2675 3597 1894 
z
M 3022 2063 
Q 3016 2534 2758 2815 
Q 2500 3097 2075 3097 
Q 1594 3097 1305 2825 
Q 1016 2553 972 2059 
L 3022 2063 
z
" transform="scale(0.015625)"/>
       <path id="DejaVuSans-28" d="M 1984 4856 
Q 1566 4138 1362 3434 
Q 1159 2731 1159 2009 
Q 1159 1288 1364 580 
Q 1569 -128 1984 -844 
L 1484 -844 
Q 1016 -109 783 600 
Q 550 1309 550 2009 
Q 550 2706 781 3412 
Q 1013 4119 1484 4856 
L 1984 4856 
z
" transform="scale(0.015625)"/>
       <path id="DejaVuSans-Oblique-53" d="M 3859 4513 
L 3738 3897 
Q 3422 4066 3111 4152 
Q 2800 4238 2509 4238 
Q 1944 4238 1609 3991 
Q 1275 3744 1275 3334 
Q 1275 3109 1398 2989 
Q 1522 2869 2034 2731 
L 2413 2638 
Q 3053 2472 3303 2217 
Q 3553 1963 3553 1503 
Q 3553 797 2998 353 
Q 2444 -91 1538 -91 
Q 1166 -91 791 -17 
Q 416 56 38 206 
L 166 856 
Q 513 641 861 531 
Q 1209 422 1556 422 
Q 2147 422 2503 684 
Q 2859 947 2859 1369 
Q 2859 1650 2717 1795 
Q 2575 1941 2106 2059 
L 1728 2156 
Q 1081 2325 845 2545 
Q 609 2766 609 3163 
Q 609 3859 1145 4304 
Q 1681 4750 2541 4750 
Q 2875 4750 3203 4690 
Q 3531 4631 3859 4513 
z
" transform="scale(0.015625)"/>
       <path id="DejaVuSans-32" d="M 1228 531 
L 3431 531 
L 3431 0 
L 469 0 
L 469 531 
Q 828 903 1448 1529 
Q 2069 2156 2228 2338 
Q 2531 2678 2651 2914 
Q 2772 3150 2772 3378 
Q 2772 3750 2511 3984 
Q 2250 4219 1831 4219 
Q 1534 4219 1204 4116 
Q 875 4013 500 3803 
L 500 4441 
Q 881 4594 1212 4672 
Q 1544 4750 1819 4750 
Q 2544 4750 2975 4387 
Q 3406 4025 3406 3419 
Q 3406 3131 3298 2873 
Q 3191 2616 2906 2266 
Q 2828 2175 2409 1742 
Q 1991 1309 1228 531 
z
" transform="scale(0.015625)"/>
       <path id="DejaVuSans-29" d="M 513 4856 
L 1013 4856 
Q 1481 4119 1714 3412 
Q 1947 2706 1947 2009 
Q 1947 1309 1714 600 
Q 1481 -109 1013 -844 
L 513 -844 
Q 928 -128 1133 580 
Q 1338 1288 1338 2009 
Q 1338 2731 1133 3434 
Q 928 4138 513 4856 
z
" transform="scale(0.015625)"/>
       <path id="DejaVuSans-20" transform="scale(0.015625)"/>
       <path id="DejaVuSans-5b" d="M 550 4863 
L 1875 4863 
L 1875 4416 
L 1125 4416 
L 1125 -397 
L 1875 -397 
L 1875 -844 
L 550 -844 
L 550 4863 
z
" transform="scale(0.015625)"/>
       <path id="DejaVuSans-6d" d="M 3328 2828 
Q 3544 3216 3844 3400 
Q 4144 3584 4550 3584 
Q 5097 3584 5394 3201 
Q 5691 2819 5691 2113 
L 5691 0 
L 5113 0 
L 5113 2094 
Q 5113 2597 4934 2840 
Q 4756 3084 4391 3084 
Q 3944 3084 3684 2787 
Q 3425 2491 3425 1978 
L 3425 0 
L 2847 0 
L 2847 2094 
Q 2847 2600 2669 2842 
Q 2491 3084 2119 3084 
Q 1678 3084 1418 2786 
Q 1159 2488 1159 1978 
L 1159 0 
L 581 0 
L 581 3500 
L 1159 3500 
L 1159 2956 
Q 1356 3278 1631 3431 
Q 1906 3584 2284 3584 
Q 2666 3584 2933 3390 
Q 3200 3197 3328 2828 
z
" transform="scale(0.015625)"/>
       <path id="DejaVuSans-56" d="M 1831 0 
L 50 4666 
L 709 4666 
L 2188 738 
L 3669 4666 
L 4325 4666 
L 2547 0 
L 1831 0 
z
" transform="scale(0.015625)"/>
       <path id="DejaVuSans-5d" d="M 1947 4863 
L 1947 -844 
L 622 -844 
L 622 -397 
L 1369 -397 
L 1369 4416 
L 622 4416 
L 622 4863 
L 1947 4863 
z
" transform="scale(0.015625)"/>
      </defs>
      <use xlink:href="#DejaVuSans-52" transform="translate(0 0.015625)"/>
      <use xlink:href="#DejaVuSans-65" transform="translate(69.482422 0.015625)"/>
      <use xlink:href="#DejaVuSans-28" transform="translate(131.005859 0.015625)"/>
      <use xlink:href="#DejaVuSans-Oblique-53" transform="translate(170.019531 0.015625)"/>
      <use xlink:href="#DejaVuSans-32" transform="translate(233.496094 -16.390625) scale(0.7)"/>
      <use xlink:href="#DejaVuSans-31" transform="translate(278.032227 -16.390625) scale(0.7)"/>
      <use xlink:href="#DejaVuSans-29" transform="translate(325.302734 0.015625)"/>
      <use xlink:href="#DejaVuSans-20" transform="translate(364.316406 0.015625)"/>
      <use xlink:href="#DejaVuSans-5b" transform="translate(396.103516 0.015625)"/>
      <use xlink:href="#DejaVuSans-6d" transform="translate(435.117188 0.015625)"/>
      <use xlink:href="#DejaVuSans-56" transform="translate(532.529297 0.015625)"/>
      <use xlink:href="#DejaVuSans-5d" transform="translate(600.9375 0.015625)"/>
     </g>
    </g>
   </g>
   <g id="line2d_11">
    <path d="M 60.443665 47.258182 
L 62.075095 48.733967 
L 63.706525 54.697727 
L 65.337954 62.80989 
L 66.969384 64.716339 
L 68.600814 74.026997 
L 70.232244 76.303112 
L 71.863674 80.513779 
L 73.495104 85.244918 
L 75.126534 90.343408 
L 76.757964 95.924392 
L 78.389393 100.519626 
L 80.020823 102.302323 
L 83.283683 112.663727 
L 84.915113 110.986281 
L 86.546543 118.100324 
L 88.177973 119.85329 
L 89.809403 122.154759 
L 91.440832 125.590868 
L 93.072262 125.366023 
L 96.335122 129.14807 
L 97.966552 131.666861 
L 99.597982 136.770938 
L 101.229412 134.241785 
L 102.860842 137.173499 
L 104.492271 139.625558 
L 106.123701 138.660443 
L 107.755131 144.216072 
L 109.386561 139.890586 
L 111.017991 142.302425 
L 112.649421 146.803873 
L 114.280851 146.59988 
L 115.912281 145.351815 
L 117.54371 149.300962 
L 119.17514 148.086389 
L 120.80657 149.153374 
L 122.438 149.45157 
L 124.06943 149.570059 
L 125.70086 148.310131 
L 127.33229 150.269152 
L 128.96372 150.845233 
L 130.595149 151.603589 
L 132.226579 152.887624 
L 133.858009 153.407354 
L 135.489439 154.252497 
L 137.120869 153.50313 
L 138.752299 154.060928 
L 140.383729 152.202077 
L 142.015159 154.131476 
L 143.646588 153.233906 
L 145.278018 154.287255 
L 146.909448 153.937935 
L 148.540878 153.360009 
L 150.172308 154.259243 
L 151.803738 155.483852 
L 155.066598 154.675457 
L 156.698027 153.277417 
L 158.329457 155.43336 
L 159.960887 152.22546 
L 161.592317 153.362378 
L 163.223747 151.375941 
L 164.855177 153.152218 
L 166.486607 152.981736 
L 168.118037 153.418983 
L 169.749467 152.64314 
L 171.380896 153.055141 
L 173.012326 154.343679 
L 174.643756 151.797708 
L 176.275186 152.489114 
L 177.906616 153.316679 
L 179.538046 151.386141 
L 181.169476 150.47564 
L 182.800906 150.7906 
L 184.432335 150.421785 
L 186.063765 150.573767 
L 187.695195 149.094799 
L 189.326625 150.404333 
L 190.958055 149.794398 
L 192.589485 150.028899 
L 194.220915 147.884205 
L 195.852345 146.551793 
L 197.483774 146.165545 
L 199.115204 149.117549 
L 200.746634 146.546892 
L 202.378064 144.768915 
L 204.009494 146.606318 
L 205.640924 146.731246 
L 207.272354 147.716037 
L 208.903784 145.51264 
L 210.535213 145.517722 
L 212.166643 144.76774 
L 213.798073 147.119086 
L 215.429503 146.210683 
L 217.060933 144.256509 
L 220.323793 142.256165 
L 221.955223 142.646229 
L 225.218082 141.175074 
L 226.849512 141.588268 
L 228.480942 141.420806 
L 230.112372 140.706468 
L 231.743802 141.069641 
L 233.375232 138.697751 
L 235.006662 139.009166 
L 236.638091 138.390803 
L 238.269521 138.370892 
L 239.900951 137.136806 
L 241.532381 137.726216 
L 243.163811 136.807541 
L 244.795241 137.723449 
L 246.426671 135.470753 
L 248.058101 136.718132 
L 249.68953 134.874869 
L 251.32096 135.41943 
L 252.95239 133.388487 
L 254.58382 137.151725 
L 256.21525 133.708781 
L 257.84668 132.237155 
L 259.47811 131.688182 
L 261.10954 130.843618 
L 262.740969 129.197766 
L 264.372399 131.308408 
L 266.003829 129.663424 
L 267.635259 127.735707 
L 269.266689 128.064592 
L 270.898119 130.786724 
L 272.529549 128.418379 
L 274.160979 129.214856 
L 275.792408 126.545024 
L 277.423838 127.15156 
L 279.055268 127.233881 
L 280.686698 125.848988 
L 282.318128 124.6608 
L 283.949558 126.170675 
L 285.580988 123.00417 
L 287.212418 123.212449 
L 288.843848 124.815079 
L 290.475277 125.616005 
L 292.106707 121.56459 
L 293.738137 120.456842 
L 295.369567 121.845442 
L 298.632427 121.289814 
L 300.263857 118.84139 
L 301.895287 118.613598 
L 303.526716 118.983498 
L 305.158146 116.875823 
L 306.789576 116.573703 
L 308.421006 116.465214 
L 311.683866 117.666875 
L 313.315296 114.510769 
L 314.946726 115.428141 
L 316.578155 115.764024 
L 318.209585 114.488579 
L 319.841015 113.738741 
L 321.472445 111.254275 
L 323.103875 111.458956 
L 324.735305 112.859401 
L 326.366735 112.568638 
L 327.998165 109.640343 
L 329.629594 110.575166 
L 331.261024 108.032649 
L 332.892454 108.29558 
L 334.523884 107.220167 
L 336.155314 107.877593 
L 337.786744 105.173526 
L 341.049604 106.355782 
L 342.681033 103.925588 
L 344.312463 104.0416 
L 345.943893 103.112509 
L 347.575323 104.173544 
L 349.206753 103.423363 
L 350.838183 100.534745 
L 352.469613 101.441574 
L 354.101043 100.602833 
L 355.732472 98.739316 
L 358.995332 100.360808 
L 360.626762 99.136867 
L 362.258192 98.534853 
L 363.889622 96.762355 
L 365.521052 96.888784 
L 367.152482 93.95886 
L 368.783911 94.916109 
L 370.415341 94.347569 
L 372.046771 94.053044 
L 373.678201 93.124713 
L 375.309631 93.365219 
L 376.941061 90.596157 
L 378.572491 90.940251 
L 380.203921 90.704501 
L 381.83535 89.851401 
L 383.46678 88.644894 
L 385.09821 87.747686 
L 385.09821 87.747686 
" clip-path="url(#p6ddd3173b6)" style="fill: none; stroke: #1f77b4; stroke-width: 1.5; stroke-linecap: square"/>
    <defs>
     <path id="mdee502bcfb" d="M 0 1.5 
C 0.397805 1.5 0.77937 1.341951 1.06066 1.06066 
C 1.341951 0.77937 1.5 0.397805 1.5 0 
C 1.5 -0.397805 1.341951 -0.77937 1.06066 -1.06066 
C 0.77937 -1.341951 0.397805 -1.5 0 -1.5 
C -0.397805 -1.5 -0.77937 -1.341951 -1.06066 -1.06066 
C -1.341951 -0.77937 -1.5 -0.397805 -1.5 0 
C -1.5 0.397805 -1.341951 0.77937 -1.06066 1.06066 
C -0.77937 1.341951 -0.397805 1.5 0 1.5 
z
" style="stroke: #1f77b4"/>
    </defs>
    <g clip-path="url(#p6ddd3173b6)">
     <use xlink:href="#mdee502bcfb" x="60.443665" y="47.258182" style="fill: #1f77b4; stroke: #1f77b4"/>
     <use xlink:href="#mdee502bcfb" x="62.075095" y="48.733967" style="fill: #1f77b4; stroke: #1f77b4"/>
     <use xlink:href="#mdee502bcfb" x="63.706525" y="54.697727" style="fill: #1f77b4; stroke: #1f77b4"/>
     <use xlink:href="#mdee502bcfb" x="65.337954" y="62.80989" style="fill: #1f77b4; stroke: #1f77b4"/>
     <use xlink:href="#mdee502bcfb" x="66.969384" y="64.716339" style="fill: #1f77b4; stroke: #1f77b4"/>
     <use xlink:href="#mdee502bcfb" x="68.600814" y="74.026997" style="fill: #1f77b4; stroke: #1f77b4"/>
     <use xlink:href="#mdee502bcfb" x="70.232244" y="76.303112" style="fill: #1f77b4; stroke: #1f77b4"/>
     <use xlink:href="#mdee502bcfb" x="71.863674" y="80.513779" style="fill: #1f77b4; stroke: #1f77b4"/>
     <use xlink:href="#mdee502bcfb" x="73.495104" y="85.244918" style="fill: #1f77b4; stroke: #1f77b4"/>
     <use xlink:href="#mdee502bcfb" x="75.126534" y="90.343408" style="fill: #1f77b4; stroke: #1f77b4"/>
     <use xlink:href="#mdee502bcfb" x="76.757964" y="95.924392" style="fill: #1f77b4; stroke: #1f77b4"/>
     <use xlink:href="#mdee502bcfb" x="78.389393" y="100.519626" style="fill: #1f77b4; stroke: #1f77b4"/>
     <use xlink:href="#mdee502bcfb" x="80.020823" y="102.302323" style="fill: #1f77b4; stroke: #1f77b4"/>
     <use xlink:href="#mdee502bcfb" x="81.652253" y="107.435336" style="fill: #1f77b4; stroke: #1f77b4"/>
     <use xlink:href="#mdee502bcfb" x="83.283683" y="112.663727" style="fill: #1f77b4; stroke: #1f77b4"/>
     <use xlink:href="#mdee502bcfb" x="84.915113" y="110.986281" style="fill: #1f77b4; stroke: #1f77b4"/>
     <use xlink:href="#mdee502bcfb" x="86.546543" y="118.100324" style="fill: #1f77b4; stroke: #1f77b4"/>
     <use xlink:href="#mdee502bcfb" x="88.177973" y="119.85329" style="fill: #1f77b4; stroke: #1f77b4"/>
     <use xlink:href="#mdee502bcfb" x="89.809403" y="122.154759" style="fill: #1f77b4; stroke: #1f77b4"/>
     <use xlink:href="#mdee502bcfb" x="91.440832" y="125.590868" style="fill: #1f77b4; stroke: #1f77b4"/>
     <use xlink:href="#mdee502bcfb" x="93.072262" y="125.366023" style="fill: #1f77b4; stroke: #1f77b4"/>
     <use xlink:href="#mdee502bcfb" x="94.703692" y="127.331157" style="fill: #1f77b4; stroke: #1f77b4"/>
     <use xlink:href="#mdee502bcfb" x="96.335122" y="129.14807" style="fill: #1f77b4; stroke: #1f77b4"/>
     <use xlink:href="#mdee502bcfb" x="97.966552" y="131.666861" style="fill: #1f77b4; stroke: #1f77b4"/>
     <use xlink:href="#mdee502bcfb" x="99.597982" y="136.770938" style="fill: #1f77b4; stroke: #1f77b4"/>
     <use xlink:href="#mdee502bcfb" x="101.229412" y="134.241785" style="fill: #1f77b4; stroke: #1f77b4"/>
     <use xlink:href="#mdee502bcfb" x="102.860842" y="137.173499" style="fill: #1f77b4; stroke: #1f77b4"/>
     <use xlink:href="#mdee502bcfb" x="104.492271" y="139.625558" style="fill: #1f77b4; stroke: #1f77b4"/>
     <use xlink:href="#mdee502bcfb" x="106.123701" y="138.660443" style="fill: #1f77b4; stroke: #1f77b4"/>
     <use xlink:href="#mdee502bcfb" x="107.755131" y="144.216072" style="fill: #1f77b4; stroke: #1f77b4"/>
     <use xlink:href="#mdee502bcfb" x="109.386561" y="139.890586" style="fill: #1f77b4; stroke: #1f77b4"/>
     <use xlink:href="#mdee502bcfb" x="111.017991" y="142.302425" style="fill: #1f77b4; stroke: #1f77b4"/>
     <use xlink:href="#mdee502bcfb" x="112.649421" y="146.803873" style="fill: #1f77b4; stroke: #1f77b4"/>
     <use xlink:href="#mdee502bcfb" x="114.280851" y="146.59988" style="fill: #1f77b4; stroke: #1f77b4"/>
     <use xlink:href="#mdee502bcfb" x="115.912281" y="145.351815" style="fill: #1f77b4; stroke: #1f77b4"/>
     <use xlink:href="#mdee502bcfb" x="117.54371" y="149.300962" style="fill: #1f77b4; stroke: #1f77b4"/>
     <use xlink:href="#mdee502bcfb" x="119.17514" y="148.086389" style="fill: #1f77b4; stroke: #1f77b4"/>
     <use xlink:href="#mdee502bcfb" x="120.80657" y="149.153374" style="fill: #1f77b4; stroke: #1f77b4"/>
     <use xlink:href="#mdee502bcfb" x="122.438" y="149.45157" style="fill: #1f77b4; stroke: #1f77b4"/>
     <use xlink:href="#mdee502bcfb" x="124.06943" y="149.570059" style="fill: #1f77b4; stroke: #1f77b4"/>
     <use xlink:href="#mdee502bcfb" x="125.70086" y="148.310131" style="fill: #1f77b4; stroke: #1f77b4"/>
     <use xlink:href="#mdee502bcfb" x="127.33229" y="150.269152" style="fill: #1f77b4; stroke: #1f77b4"/>
     <use xlink:href="#mdee502bcfb" x="128.96372" y="150.845233" style="fill: #1f77b4; stroke: #1f77b4"/>
     <use xlink:href="#mdee502bcfb" x="130.595149" y="151.603589" style="fill: #1f77b4; stroke: #1f77b4"/>
     <use xlink:href="#mdee502bcfb" x="132.226579" y="152.887624" style="fill: #1f77b4; stroke: #1f77b4"/>
     <use xlink:href="#mdee502bcfb" x="133.858009" y="153.407354" style="fill: #1f77b4; stroke: #1f77b4"/>
     <use xlink:href="#mdee502bcfb" x="135.489439" y="154.252497" style="fill: #1f77b4; stroke: #1f77b4"/>
     <use xlink:href="#mdee502bcfb" x="137.120869" y="153.50313" style="fill: #1f77b4; stroke: #1f77b4"/>
     <use xlink:href="#mdee502bcfb" x="138.752299" y="154.060928" style="fill: #1f77b4; stroke: #1f77b4"/>
     <use xlink:href="#mdee502bcfb" x="140.383729" y="152.202077" style="fill: #1f77b4; stroke: #1f77b4"/>
     <use xlink:href="#mdee502bcfb" x="142.015159" y="154.131476" style="fill: #1f77b4; stroke: #1f77b4"/>
     <use xlink:href="#mdee502bcfb" x="143.646588" y="153.233906" style="fill: #1f77b4; stroke: #1f77b4"/>
     <use xlink:href="#mdee502bcfb" x="145.278018" y="154.287255" style="fill: #1f77b4; stroke: #1f77b4"/>
     <use xlink:href="#mdee502bcfb" x="146.909448" y="153.937935" style="fill: #1f77b4; stroke: #1f77b4"/>
     <use xlink:href="#mdee502bcfb" x="148.540878" y="153.360009" style="fill: #1f77b4; stroke: #1f77b4"/>
     <use xlink:href="#mdee502bcfb" x="150.172308" y="154.259243" style="fill: #1f77b4; stroke: #1f77b4"/>
     <use xlink:href="#mdee502bcfb" x="151.803738" y="155.483852" style="fill: #1f77b4; stroke: #1f77b4"/>
     <use xlink:href="#mdee502bcfb" x="153.435168" y="155.125146" style="fill: #1f77b4; stroke: #1f77b4"/>
     <use xlink:href="#mdee502bcfb" x="155.066598" y="154.675457" style="fill: #1f77b4; stroke: #1f77b4"/>
     <use xlink:href="#mdee502bcfb" x="156.698027" y="153.277417" style="fill: #1f77b4; stroke: #1f77b4"/>
     <use xlink:href="#mdee502bcfb" x="158.329457" y="155.43336" style="fill: #1f77b4; stroke: #1f77b4"/>
     <use xlink:href="#mdee502bcfb" x="159.960887" y="152.22546" style="fill: #1f77b4; stroke: #1f77b4"/>
     <use xlink:href="#mdee502bcfb" x="161.592317" y="153.362378" style="fill: #1f77b4; stroke: #1f77b4"/>
     <use xlink:href="#mdee502bcfb" x="163.223747" y="151.375941" style="fill: #1f77b4; stroke: #1f77b4"/>
     <use xlink:href="#mdee502bcfb" x="164.855177" y="153.152218" style="fill: #1f77b4; stroke: #1f77b4"/>
     <use xlink:href="#mdee502bcfb" x="166.486607" y="152.981736" style="fill: #1f77b4; stroke: #1f77b4"/>
     <use xlink:href="#mdee502bcfb" x="168.118037" y="153.418983" style="fill: #1f77b4; stroke: #1f77b4"/>
     <use xlink:href="#mdee502bcfb" x="169.749467" y="152.64314" style="fill: #1f77b4; stroke: #1f77b4"/>
     <use xlink:href="#mdee502bcfb" x="171.380896" y="153.055141" style="fill: #1f77b4; stroke: #1f77b4"/>
     <use xlink:href="#mdee502bcfb" x="173.012326" y="154.343679" style="fill: #1f77b4; stroke: #1f77b4"/>
     <use xlink:href="#mdee502bcfb" x="174.643756" y="151.797708" style="fill: #1f77b4; stroke: #1f77b4"/>
     <use xlink:href="#mdee502bcfb" x="176.275186" y="152.489114" style="fill: #1f77b4; stroke: #1f77b4"/>
     <use xlink:href="#mdee502bcfb" x="177.906616" y="153.316679" style="fill: #1f77b4; stroke: #1f77b4"/>
     <use xlink:href="#mdee502bcfb" x="179.538046" y="151.386141" style="fill: #1f77b4; stroke: #1f77b4"/>
     <use xlink:href="#mdee502bcfb" x="181.169476" y="150.47564" style="fill: #1f77b4; stroke: #1f77b4"/>
     <use xlink:href="#mdee502bcfb" x="182.800906" y="150.7906" style="fill: #1f77b4; stroke: #1f77b4"/>
     <use xlink:href="#mdee502bcfb" x="184.432335" y="150.421785" style="fill: #1f77b4; stroke: #1f77b4"/>
     <use xlink:href="#mdee502bcfb" x="186.063765" y="150.573767" style="fill: #1f77b4; stroke: #1f77b4"/>
     <use xlink:href="#mdee502bcfb" x="187.695195" y="149.094799" style="fill: #1f77b4; stroke: #1f77b4"/>
     <use xlink:href="#mdee502bcfb" x="189.326625" y="150.404333" style="fill: #1f77b4; stroke: #1f77b4"/>
     <use xlink:href="#mdee502bcfb" x="190.958055" y="149.794398" style="fill: #1f77b4; stroke: #1f77b4"/>
     <use xlink:href="#mdee502bcfb" x="192.589485" y="150.028899" style="fill: #1f77b4; stroke: #1f77b4"/>
     <use xlink:href="#mdee502bcfb" x="194.220915" y="147.884205" style="fill: #1f77b4; stroke: #1f77b4"/>
     <use xlink:href="#mdee502bcfb" x="195.852345" y="146.551793" style="fill: #1f77b4; stroke: #1f77b4"/>
     <use xlink:href="#mdee502bcfb" x="197.483774" y="146.165545" style="fill: #1f77b4; stroke: #1f77b4"/>
     <use xlink:href="#mdee502bcfb" x="199.115204" y="149.117549" style="fill: #1f77b4; stroke: #1f77b4"/>
     <use xlink:href="#mdee502bcfb" x="200.746634" y="146.546892" style="fill: #1f77b4; stroke: #1f77b4"/>
     <use xlink:href="#mdee502bcfb" x="202.378064" y="144.768915" style="fill: #1f77b4; stroke: #1f77b4"/>
     <use xlink:href="#mdee502bcfb" x="204.009494" y="146.606318" style="fill: #1f77b4; stroke: #1f77b4"/>
     <use xlink:href="#mdee502bcfb" x="205.640924" y="146.731246" style="fill: #1f77b4; stroke: #1f77b4"/>
     <use xlink:href="#mdee502bcfb" x="207.272354" y="147.716037" style="fill: #1f77b4; stroke: #1f77b4"/>
     <use xlink:href="#mdee502bcfb" x="208.903784" y="145.51264" style="fill: #1f77b4; stroke: #1f77b4"/>
     <use xlink:href="#mdee502bcfb" x="210.535213" y="145.517722" style="fill: #1f77b4; stroke: #1f77b4"/>
     <use xlink:href="#mdee502bcfb" x="212.166643" y="144.76774" style="fill: #1f77b4; stroke: #1f77b4"/>
     <use xlink:href="#mdee502bcfb" x="213.798073" y="147.119086" style="fill: #1f77b4; stroke: #1f77b4"/>
     <use xlink:href="#mdee502bcfb" x="215.429503" y="146.210683" style="fill: #1f77b4; stroke: #1f77b4"/>
     <use xlink:href="#mdee502bcfb" x="217.060933" y="144.256509" style="fill: #1f77b4; stroke: #1f77b4"/>
     <use xlink:href="#mdee502bcfb" x="218.692363" y="143.282876" style="fill: #1f77b4; stroke: #1f77b4"/>
     <use xlink:href="#mdee502bcfb" x="220.323793" y="142.256165" style="fill: #1f77b4; stroke: #1f77b4"/>
     <use xlink:href="#mdee502bcfb" x="221.955223" y="142.646229" style="fill: #1f77b4; stroke: #1f77b4"/>
     <use xlink:href="#mdee502bcfb" x="223.586652" y="141.966397" style="fill: #1f77b4; stroke: #1f77b4"/>
     <use xlink:href="#mdee502bcfb" x="225.218082" y="141.175074" style="fill: #1f77b4; stroke: #1f77b4"/>
     <use xlink:href="#mdee502bcfb" x="226.849512" y="141.588268" style="fill: #1f77b4; stroke: #1f77b4"/>
     <use xlink:href="#mdee502bcfb" x="228.480942" y="141.420806" style="fill: #1f77b4; stroke: #1f77b4"/>
     <use xlink:href="#mdee502bcfb" x="230.112372" y="140.706468" style="fill: #1f77b4; stroke: #1f77b4"/>
     <use xlink:href="#mdee502bcfb" x="231.743802" y="141.069641" style="fill: #1f77b4; stroke: #1f77b4"/>
     <use xlink:href="#mdee502bcfb" x="233.375232" y="138.697751" style="fill: #1f77b4; stroke: #1f77b4"/>
     <use xlink:href="#mdee502bcfb" x="235.006662" y="139.009166" style="fill: #1f77b4; stroke: #1f77b4"/>
     <use xlink:href="#mdee502bcfb" x="236.638091" y="138.390803" style="fill: #1f77b4; stroke: #1f77b4"/>
     <use xlink:href="#mdee502bcfb" x="238.269521" y="138.370892" style="fill: #1f77b4; stroke: #1f77b4"/>
     <use xlink:href="#mdee502bcfb" x="239.900951" y="137.136806" style="fill: #1f77b4; stroke: #1f77b4"/>
     <use xlink:href="#mdee502bcfb" x="241.532381" y="137.726216" style="fill: #1f77b4; stroke: #1f77b4"/>
     <use xlink:href="#mdee502bcfb" x="243.163811" y="136.807541" style="fill: #1f77b4; stroke: #1f77b4"/>
     <use xlink:href="#mdee502bcfb" x="244.795241" y="137.723449" style="fill: #1f77b4; stroke: #1f77b4"/>
     <use xlink:href="#mdee502bcfb" x="246.426671" y="135.470753" style="fill: #1f77b4; stroke: #1f77b4"/>
     <use xlink:href="#mdee502bcfb" x="248.058101" y="136.718132" style="fill: #1f77b4; stroke: #1f77b4"/>
     <use xlink:href="#mdee502bcfb" x="249.68953" y="134.874869" style="fill: #1f77b4; stroke: #1f77b4"/>
     <use xlink:href="#mdee502bcfb" x="251.32096" y="135.41943" style="fill: #1f77b4; stroke: #1f77b4"/>
     <use xlink:href="#mdee502bcfb" x="252.95239" y="133.388487" style="fill: #1f77b4; stroke: #1f77b4"/>
     <use xlink:href="#mdee502bcfb" x="254.58382" y="137.151725" style="fill: #1f77b4; stroke: #1f77b4"/>
     <use xlink:href="#mdee502bcfb" x="256.21525" y="133.708781" style="fill: #1f77b4; stroke: #1f77b4"/>
     <use xlink:href="#mdee502bcfb" x="257.84668" y="132.237155" style="fill: #1f77b4; stroke: #1f77b4"/>
     <use xlink:href="#mdee502bcfb" x="259.47811" y="131.688182" style="fill: #1f77b4; stroke: #1f77b4"/>
     <use xlink:href="#mdee502bcfb" x="261.10954" y="130.843618" style="fill: #1f77b4; stroke: #1f77b4"/>
     <use xlink:href="#mdee502bcfb" x="262.740969" y="129.197766" style="fill: #1f77b4; stroke: #1f77b4"/>
     <use xlink:href="#mdee502bcfb" x="264.372399" y="131.308408" style="fill: #1f77b4; stroke: #1f77b4"/>
     <use xlink:href="#mdee502bcfb" x="266.003829" y="129.663424" style="fill: #1f77b4; stroke: #1f77b4"/>
     <use xlink:href="#mdee502bcfb" x="267.635259" y="127.735707" style="fill: #1f77b4; stroke: #1f77b4"/>
     <use xlink:href="#mdee502bcfb" x="269.266689" y="128.064592" style="fill: #1f77b4; stroke: #1f77b4"/>
     <use xlink:href="#mdee502bcfb" x="270.898119" y="130.786724" style="fill: #1f77b4; stroke: #1f77b4"/>
     <use xlink:href="#mdee502bcfb" x="272.529549" y="128.418379" style="fill: #1f77b4; stroke: #1f77b4"/>
     <use xlink:href="#mdee502bcfb" x="274.160979" y="129.214856" style="fill: #1f77b4; stroke: #1f77b4"/>
     <use xlink:href="#mdee502bcfb" x="275.792408" y="126.545024" style="fill: #1f77b4; stroke: #1f77b4"/>
     <use xlink:href="#mdee502bcfb" x="277.423838" y="127.15156" style="fill: #1f77b4; stroke: #1f77b4"/>
     <use xlink:href="#mdee502bcfb" x="279.055268" y="127.233881" style="fill: #1f77b4; stroke: #1f77b4"/>
     <use xlink:href="#mdee502bcfb" x="280.686698" y="125.848988" style="fill: #1f77b4; stroke: #1f77b4"/>
     <use xlink:href="#mdee502bcfb" x="282.318128" y="124.6608" style="fill: #1f77b4; stroke: #1f77b4"/>
     <use xlink:href="#mdee502bcfb" x="283.949558" y="126.170675" style="fill: #1f77b4; stroke: #1f77b4"/>
     <use xlink:href="#mdee502bcfb" x="285.580988" y="123.00417" style="fill: #1f77b4; stroke: #1f77b4"/>
     <use xlink:href="#mdee502bcfb" x="287.212418" y="123.212449" style="fill: #1f77b4; stroke: #1f77b4"/>
     <use xlink:href="#mdee502bcfb" x="288.843848" y="124.815079" style="fill: #1f77b4; stroke: #1f77b4"/>
     <use xlink:href="#mdee502bcfb" x="290.475277" y="125.616005" style="fill: #1f77b4; stroke: #1f77b4"/>
     <use xlink:href="#mdee502bcfb" x="292.106707" y="121.56459" style="fill: #1f77b4; stroke: #1f77b4"/>
     <use xlink:href="#mdee502bcfb" x="293.738137" y="120.456842" style="fill: #1f77b4; stroke: #1f77b4"/>
     <use xlink:href="#mdee502bcfb" x="295.369567" y="121.845442" style="fill: #1f77b4; stroke: #1f77b4"/>
     <use xlink:href="#mdee502bcfb" x="297.000997" y="121.578425" style="fill: #1f77b4; stroke: #1f77b4"/>
     <use xlink:href="#mdee502bcfb" x="298.632427" y="121.289814" style="fill: #1f77b4; stroke: #1f77b4"/>
     <use xlink:href="#mdee502bcfb" x="300.263857" y="118.84139" style="fill: #1f77b4; stroke: #1f77b4"/>
     <use xlink:href="#mdee502bcfb" x="301.895287" y="118.613598" style="fill: #1f77b4; stroke: #1f77b4"/>
     <use xlink:href="#mdee502bcfb" x="303.526716" y="118.983498" style="fill: #1f77b4; stroke: #1f77b4"/>
     <use xlink:href="#mdee502bcfb" x="305.158146" y="116.875823" style="fill: #1f77b4; stroke: #1f77b4"/>
     <use xlink:href="#mdee502bcfb" x="306.789576" y="116.573703" style="fill: #1f77b4; stroke: #1f77b4"/>
     <use xlink:href="#mdee502bcfb" x="308.421006" y="116.465214" style="fill: #1f77b4; stroke: #1f77b4"/>
     <use xlink:href="#mdee502bcfb" x="310.052436" y="117.054914" style="fill: #1f77b4; stroke: #1f77b4"/>
     <use xlink:href="#mdee502bcfb" x="311.683866" y="117.666875" style="fill: #1f77b4; stroke: #1f77b4"/>
     <use xlink:href="#mdee502bcfb" x="313.315296" y="114.510769" style="fill: #1f77b4; stroke: #1f77b4"/>
     <use xlink:href="#mdee502bcfb" x="314.946726" y="115.428141" style="fill: #1f77b4; stroke: #1f77b4"/>
     <use xlink:href="#mdee502bcfb" x="316.578155" y="115.764024" style="fill: #1f77b4; stroke: #1f77b4"/>
     <use xlink:href="#mdee502bcfb" x="318.209585" y="114.488579" style="fill: #1f77b4; stroke: #1f77b4"/>
     <use xlink:href="#mdee502bcfb" x="319.841015" y="113.738741" style="fill: #1f77b4; stroke: #1f77b4"/>
     <use xlink:href="#mdee502bcfb" x="321.472445" y="111.254275" style="fill: #1f77b4; stroke: #1f77b4"/>
     <use xlink:href="#mdee502bcfb" x="323.103875" y="111.458956" style="fill: #1f77b4; stroke: #1f77b4"/>
     <use xlink:href="#mdee502bcfb" x="324.735305" y="112.859401" style="fill: #1f77b4; stroke: #1f77b4"/>
     <use xlink:href="#mdee502bcfb" x="326.366735" y="112.568638" style="fill: #1f77b4; stroke: #1f77b4"/>
     <use xlink:href="#mdee502bcfb" x="327.998165" y="109.640343" style="fill: #1f77b4; stroke: #1f77b4"/>
     <use xlink:href="#mdee502bcfb" x="329.629594" y="110.575166" style="fill: #1f77b4; stroke: #1f77b4"/>
     <use xlink:href="#mdee502bcfb" x="331.261024" y="108.032649" style="fill: #1f77b4; stroke: #1f77b4"/>
     <use xlink:href="#mdee502bcfb" x="332.892454" y="108.29558" style="fill: #1f77b4; stroke: #1f77b4"/>
     <use xlink:href="#mdee502bcfb" x="334.523884" y="107.220167" style="fill: #1f77b4; stroke: #1f77b4"/>
     <use xlink:href="#mdee502bcfb" x="336.155314" y="107.877593" style="fill: #1f77b4; stroke: #1f77b4"/>
     <use xlink:href="#mdee502bcfb" x="337.786744" y="105.173526" style="fill: #1f77b4; stroke: #1f77b4"/>
     <use xlink:href="#mdee502bcfb" x="339.418174" y="105.797315" style="fill: #1f77b4; stroke: #1f77b4"/>
     <use xlink:href="#mdee502bcfb" x="341.049604" y="106.355782" style="fill: #1f77b4; stroke: #1f77b4"/>
     <use xlink:href="#mdee502bcfb" x="342.681033" y="103.925588" style="fill: #1f77b4; stroke: #1f77b4"/>
     <use xlink:href="#mdee502bcfb" x="344.312463" y="104.0416" style="fill: #1f77b4; stroke: #1f77b4"/>
     <use xlink:href="#mdee502bcfb" x="345.943893" y="103.112509" style="fill: #1f77b4; stroke: #1f77b4"/>
     <use xlink:href="#mdee502bcfb" x="347.575323" y="104.173544" style="fill: #1f77b4; stroke: #1f77b4"/>
     <use xlink:href="#mdee502bcfb" x="349.206753" y="103.423363" style="fill: #1f77b4; stroke: #1f77b4"/>
     <use xlink:href="#mdee502bcfb" x="350.838183" y="100.534745" style="fill: #1f77b4; stroke: #1f77b4"/>
     <use xlink:href="#mdee502bcfb" x="352.469613" y="101.441574" style="fill: #1f77b4; stroke: #1f77b4"/>
     <use xlink:href="#mdee502bcfb" x="354.101043" y="100.602833" style="fill: #1f77b4; stroke: #1f77b4"/>
     <use xlink:href="#mdee502bcfb" x="355.732472" y="98.739316" style="fill: #1f77b4; stroke: #1f77b4"/>
     <use xlink:href="#mdee502bcfb" x="357.363902" y="99.506569" style="fill: #1f77b4; stroke: #1f77b4"/>
     <use xlink:href="#mdee502bcfb" x="358.995332" y="100.360808" style="fill: #1f77b4; stroke: #1f77b4"/>
     <use xlink:href="#mdee502bcfb" x="360.626762" y="99.136867" style="fill: #1f77b4; stroke: #1f77b4"/>
     <use xlink:href="#mdee502bcfb" x="362.258192" y="98.534853" style="fill: #1f77b4; stroke: #1f77b4"/>
     <use xlink:href="#mdee502bcfb" x="363.889622" y="96.762355" style="fill: #1f77b4; stroke: #1f77b4"/>
     <use xlink:href="#mdee502bcfb" x="365.521052" y="96.888784" style="fill: #1f77b4; stroke: #1f77b4"/>
     <use xlink:href="#mdee502bcfb" x="367.152482" y="93.95886" style="fill: #1f77b4; stroke: #1f77b4"/>
     <use xlink:href="#mdee502bcfb" x="368.783911" y="94.916109" style="fill: #1f77b4; stroke: #1f77b4"/>
     <use xlink:href="#mdee502bcfb" x="370.415341" y="94.347569" style="fill: #1f77b4; stroke: #1f77b4"/>
     <use xlink:href="#mdee502bcfb" x="372.046771" y="94.053044" style="fill: #1f77b4; stroke: #1f77b4"/>
     <use xlink:href="#mdee502bcfb" x="373.678201" y="93.124713" style="fill: #1f77b4; stroke: #1f77b4"/>
     <use xlink:href="#mdee502bcfb" x="375.309631" y="93.365219" style="fill: #1f77b4; stroke: #1f77b4"/>
     <use xlink:href="#mdee502bcfb" x="376.941061" y="90.596157" style="fill: #1f77b4; stroke: #1f77b4"/>
     <use xlink:href="#mdee502bcfb" x="378.572491" y="90.940251" style="fill: #1f77b4; stroke: #1f77b4"/>
     <use xlink:href="#mdee502bcfb" x="380.203921" y="90.704501" style="fill: #1f77b4; stroke: #1f77b4"/>
     <use xlink:href="#mdee502bcfb" x="381.83535" y="89.851401" style="fill: #1f77b4; stroke: #1f77b4"/>
     <use xlink:href="#mdee502bcfb" x="383.46678" y="88.644894" style="fill: #1f77b4; stroke: #1f77b4"/>
     <use xlink:href="#mdee502bcfb" x="385.09821" y="87.747686" style="fill: #1f77b4; stroke: #1f77b4"/>
    </g>
   </g>
   <g id="line2d_12">
    <path d="M 60.443665 156.994274 
L 71.492969 157.201546 
L 82.542272 157.184931 
L 93.591576 156.944552 
L 104.64088 156.480816 
L 115.690184 155.79441 
L 126.739488 154.886301 
L 137.788792 153.757732 
L 148.838096 152.410224 
L 160.212379 150.79628 
L 171.586662 148.954479 
L 182.960946 146.887376 
L 194.335229 144.597817 
L 206.034492 142.014075 
L 217.733755 139.202048 
L 229.757997 136.078293 
L 241.78224 132.72243 
L 254.131462 129.039618 
L 266.480684 125.123247 
L 279.154885 120.867522 
L 291.829087 116.379541 
L 304.828268 111.543138 
L 318.152428 106.349491 
L 331.801568 100.791137 
L 345.775688 94.862157 
L 360.399766 88.412418 
L 375.348824 81.575334 
L 385.09821 76.991082 
L 385.09821 76.991082 
" clip-path="url(#p6ddd3173b6)" style="fill: none; stroke: #d62728; stroke-width: 1.5; stroke-linecap: square"/>
   </g>
   <g id="patch_3">
    <path d="M 44.210938 162.72 
L 44.210938 41.76 
" style="fill: none; stroke: #000000; stroke-width: 0.8; stroke-linejoin: miter; stroke-linecap: square"/>
   </g>
   <g id="patch_4">
    <path d="M 401.330938 162.72 
L 401.330938 41.76 
" style="fill: none; stroke: #000000; stroke-width: 0.8; stroke-linejoin: miter; stroke-linecap: square"/>
   </g>
   <g id="patch_5">
    <path d="M 44.210938 162.72 
L 401.330937 162.72 
" style="fill: none; stroke: #000000; stroke-width: 0.8; stroke-linejoin: miter; stroke-linecap: square"/>
   </g>
   <g id="patch_6">
    <path d="M 44.210938 41.76 
L 401.330937 41.76 
" style="fill: none; stroke: #000000; stroke-width: 0.8; stroke-linejoin: miter; stroke-linecap: square"/>
   </g>
   <g id="text_6">
    <g id="patch_7">
     <path d="M 419.186937 95.079562 
L 514.386938 95.079562 
Q 518.386938 95.079562 518.386938 91.079562 
L 518.386938 47.808 
Q 518.386938 43.808 514.386938 43.808 
L 419.186937 43.808 
Q 415.186937 43.808 415.186937 47.808 
L 415.186937 91.079562 
Q 415.186937 95.079562 419.186937 95.079562 
z
" style="fill: #ffffff; opacity: 0.5; stroke: #000000; stroke-linejoin: miter"/>
    </g>
    <!-- Summary -->
    <g transform="translate(419.186937 55.406437) scale(0.1 -0.1)">
     <defs>
      <path id="DejaVuSans-53" d="M 3425 4513 
L 3425 3897 
Q 3066 4069 2747 4153 
Q 2428 4238 2131 4238 
Q 1616 4238 1336 4038 
Q 1056 3838 1056 3469 
Q 1056 3159 1242 3001 
Q 1428 2844 1947 2747 
L 2328 2669 
Q 3034 2534 3370 2195 
Q 3706 1856 3706 1288 
Q 3706 609 3251 259 
Q 2797 -91 1919 -91 
Q 1588 -91 1214 -16 
Q 841 59 441 206 
L 441 856 
Q 825 641 1194 531 
Q 1563 422 1919 422 
Q 2459 422 2753 634 
Q 3047 847 3047 1241 
Q 3047 1584 2836 1778 
Q 2625 1972 2144 2069 
L 1759 2144 
Q 1053 2284 737 2584 
Q 422 2884 422 3419 
Q 422 4038 858 4394 
Q 1294 4750 2059 4750 
Q 2388 4750 2728 4690 
Q 3069 4631 3425 4513 
z
" transform="scale(0.015625)"/>
      <path id="DejaVuSans-75" d="M 544 1381 
L 544 3500 
L 1119 3500 
L 1119 1403 
Q 1119 906 1312 657 
Q 1506 409 1894 409 
Q 2359 409 2629 706 
Q 2900 1003 2900 1516 
L 2900 3500 
L 3475 3500 
L 3475 0 
L 2900 0 
L 2900 538 
Q 2691 219 2414 64 
Q 2138 -91 1772 -91 
Q 1169 -91 856 284 
Q 544 659 544 1381 
z
M 1991 3584 
L 1991 3584 
z
" transform="scale(0.015625)"/>
      <path id="DejaVuSans-61" d="M 2194 1759 
Q 1497 1759 1228 1600 
Q 959 1441 959 1056 
Q 959 750 1161 570 
Q 1363 391 1709 391 
Q 2188 391 2477 730 
Q 2766 1069 2766 1631 
L 2766 1759 
L 2194 1759 
z
M 3341 1997 
L 3341 0 
L 2766 0 
L 2766 531 
Q 2569 213 2275 61 
Q 1981 -91 1556 -91 
Q 1019 -91 701 211 
Q 384 513 384 1019 
Q 384 1609 779 1909 
Q 1175 2209 1959 2209 
L 2766 2209 
L 2766 2266 
Q 2766 2663 2505 2880 
Q 2244 3097 1772 3097 
Q 1472 3097 1187 3025 
Q 903 2953 641 2809 
L 641 3341 
Q 956 3463 1253 3523 
Q 1550 3584 1831 3584 
Q 2591 3584 2966 3190 
Q 3341 2797 3341 1997 
z
" transform="scale(0.015625)"/>
      <path id="DejaVuSans-72" d="M 2631 2963 
Q 2534 3019 2420 3045 
Q 2306 3072 2169 3072 
Q 1681 3072 1420 2755 
Q 1159 2438 1159 1844 
L 1159 0 
L 581 0 
L 581 3500 
L 1159 3500 
L 1159 2956 
Q 1341 3275 1631 3429 
Q 1922 3584 2338 3584 
Q 2397 3584 2469 3576 
Q 2541 3569 2628 3553 
L 2631 2963 
z
" transform="scale(0.015625)"/>
      <path id="DejaVuSans-79" d="M 2059 -325 
Q 1816 -950 1584 -1140 
Q 1353 -1331 966 -1331 
L 506 -1331 
L 506 -850 
L 844 -850 
Q 1081 -850 1212 -737 
Q 1344 -625 1503 -206 
L 1606 56 
L 191 3500 
L 800 3500 
L 1894 763 
L 2988 3500 
L 3597 3500 
L 2059 -325 
z
" transform="scale(0.015625)"/>
     </defs>
     <use xlink:href="#DejaVuSans-53"/>
     <use xlink:href="#DejaVuSans-75" x="63.476562"/>
     <use xlink:href="#DejaVuSans-6d" x="126.855469"/>
     <use xlink:href="#DejaVuSans-6d" x="224.267578"/>
     <use xlink:href="#DejaVuSans-61" x="321.679688"/>
     <use xlink:href="#DejaVuSans-72" x="382.958984"/>
     <use xlink:href="#DejaVuSans-79" x="424.072266"/>
    </g>
    <!-- $Q_I$: 93.$\pm$1.9e+04  -->
    <g transform="translate(419.186937 66.60425) scale(0.1 -0.1)">
     <defs>
      <path id="DejaVuSans-Oblique-51" d="M 2309 -84 
Q 2275 -88 2237 -89 
Q 2200 -91 2125 -91 
Q 1250 -91 756 411 
Q 263 913 263 1797 
Q 263 2319 452 2844 
Q 641 3369 978 3788 
Q 1369 4269 1858 4509 
Q 2347 4750 2938 4750 
Q 3794 4750 4287 4245 
Q 4781 3741 4781 2869 
Q 4781 1928 4265 1147 
Q 3750 366 2919 44 
L 3553 -825 
L 2847 -825 
L 2309 -84 
z
M 2919 4238 
Q 2400 4238 2003 3986 
Q 1606 3734 1313 3219 
Q 1125 2891 1026 2522 
Q 928 2153 928 1778 
Q 928 1128 1239 775 
Q 1550 422 2119 422 
Q 2631 422 3032 676 
Q 3434 931 3719 1434 
Q 3909 1772 4009 2142 
Q 4109 2513 4109 2881 
Q 4109 3528 3796 3883 
Q 3484 4238 2919 4238 
z
" transform="scale(0.015625)"/>
      <path id="DejaVuSans-Oblique-49" d="M 1081 4666 
L 1716 4666 
L 806 0 
L 172 0 
L 1081 4666 
z
" transform="scale(0.015625)"/>
      <path id="DejaVuSans-3a" d="M 750 794 
L 1409 794 
L 1409 0 
L 750 0 
L 750 794 
z
M 750 3309 
L 1409 3309 
L 1409 2516 
L 750 2516 
L 750 3309 
z
" transform="scale(0.015625)"/>
      <path id="DejaVuSans-39" d="M 703 97 
L 703 672 
Q 941 559 1184 500 
Q 1428 441 1663 441 
Q 2288 441 2617 861 
Q 2947 1281 2994 2138 
Q 2813 1869 2534 1725 
Q 2256 1581 1919 1581 
Q 1219 1581 811 2004 
Q 403 2428 403 3163 
Q 403 3881 828 4315 
Q 1253 4750 1959 4750 
Q 2769 4750 3195 4129 
Q 3622 3509 3622 2328 
Q 3622 1225 3098 567 
Q 2575 -91 1691 -91 
Q 1453 -91 1209 -44 
Q 966 3 703 97 
z
M 1959 2075 
Q 2384 2075 2632 2365 
Q 2881 2656 2881 3163 
Q 2881 3666 2632 3958 
Q 2384 4250 1959 4250 
Q 1534 4250 1286 3958 
Q 1038 3666 1038 3163 
Q 1038 2656 1286 2365 
Q 1534 2075 1959 2075 
z
" transform="scale(0.015625)"/>
      <path id="DejaVuSans-33" d="M 2597 2516 
Q 3050 2419 3304 2112 
Q 3559 1806 3559 1356 
Q 3559 666 3084 287 
Q 2609 -91 1734 -91 
Q 1441 -91 1130 -33 
Q 819 25 488 141 
L 488 750 
Q 750 597 1062 519 
Q 1375 441 1716 441 
Q 2309 441 2620 675 
Q 2931 909 2931 1356 
Q 2931 1769 2642 2001 
Q 2353 2234 1838 2234 
L 1294 2234 
L 1294 2753 
L 1863 2753 
Q 2328 2753 2575 2939 
Q 2822 3125 2822 3475 
Q 2822 3834 2567 4026 
Q 2313 4219 1838 4219 
Q 1578 4219 1281 4162 
Q 984 4106 628 3988 
L 628 4550 
Q 988 4650 1302 4700 
Q 1616 4750 1894 4750 
Q 2613 4750 3031 4423 
Q 3450 4097 3450 3541 
Q 3450 3153 3228 2886 
Q 3006 2619 2597 2516 
z
" transform="scale(0.015625)"/>
      <path id="DejaVuSans-2e" d="M 684 794 
L 1344 794 
L 1344 0 
L 684 0 
L 684 794 
z
" transform="scale(0.015625)"/>
      <path id="DejaVuSans-b1" d="M 2944 4013 
L 2944 2803 
L 4684 2803 
L 4684 2272 
L 2944 2272 
L 2944 1063 
L 2419 1063 
L 2419 2272 
L 678 2272 
L 678 2803 
L 2419 2803 
L 2419 4013 
L 2944 4013 
z
M 678 531 
L 4684 531 
L 4684 0 
L 678 0 
L 678 531 
z
" transform="scale(0.015625)"/>
      <path id="DejaVuSans-2b" d="M 2944 4013 
L 2944 2272 
L 4684 2272 
L 4684 1741 
L 2944 1741 
L 2944 0 
L 2419 0 
L 2419 1741 
L 678 1741 
L 678 2272 
L 2419 2272 
L 2419 4013 
L 2944 4013 
z
" transform="scale(0.015625)"/>
     </defs>
     <use xlink:href="#DejaVuSans-Oblique-51" transform="translate(0 0.78125)"/>
     <use xlink:href="#DejaVuSans-Oblique-49" transform="translate(78.710938 -15.625) scale(0.7)"/>
     <use xlink:href="#DejaVuSans-3a" transform="translate(102.089844 0.78125)"/>
     <use xlink:href="#DejaVuSans-20" transform="translate(135.78125 0.78125)"/>
     <use xlink:href="#DejaVuSans-39" transform="translate(167.568359 0.78125)"/>
     <use xlink:href="#DejaVuSans-33" transform="translate(231.191406 0.78125)"/>
     <use xlink:href="#DejaVuSans-2e" transform="translate(294.814453 0.78125)"/>
     <use xlink:href="#DejaVuSans-b1" transform="translate(326.601562 0.78125)"/>
     <use xlink:href="#DejaVuSans-31" transform="translate(410.390625 0.78125)"/>
     <use xlink:href="#DejaVuSans-2e" transform="translate(474.013672 0.78125)"/>
     <use xlink:href="#DejaVuSans-39" transform="translate(505.800781 0.78125)"/>
     <use xlink:href="#DejaVuSans-65" transform="translate(569.423828 0.78125)"/>
     <use xlink:href="#DejaVuSans-2b" transform="translate(630.947266 0.78125)"/>
     <use xlink:href="#DejaVuSans-30" transform="translate(714.736328 0.78125)"/>
     <use xlink:href="#DejaVuSans-34" transform="translate(778.359375 0.78125)"/>
     <use xlink:href="#DejaVuSans-20" transform="translate(841.982422 0.78125)"/>
    </g>
    <!-- $Q_C$: 1.2$\pm$8.8e+02 k -->
    <g transform="translate(419.186937 77.802062) scale(0.1 -0.1)">
     <defs>
      <path id="DejaVuSans-Oblique-43" d="M 4447 4306 
L 4319 3641 
Q 4019 3944 3683 4091 
Q 3347 4238 2956 4238 
Q 2422 4238 2017 3981 
Q 1613 3725 1319 3200 
Q 1131 2863 1032 2486 
Q 934 2109 934 1728 
Q 934 1091 1264 756 
Q 1594 422 2222 422 
Q 2656 422 3056 561 
Q 3456 700 3834 978 
L 3688 231 
Q 3316 72 2936 -9 
Q 2556 -91 2175 -91 
Q 1278 -91 773 396 
Q 269 884 269 1753 
Q 269 2309 461 2846 
Q 653 3384 1013 3828 
Q 1394 4300 1883 4525 
Q 2372 4750 3022 4750 
Q 3422 4750 3780 4639 
Q 4138 4528 4447 4306 
z
" transform="scale(0.015625)"/>
      <path id="DejaVuSans-6b" d="M 581 4863 
L 1159 4863 
L 1159 1991 
L 2875 3500 
L 3609 3500 
L 1753 1863 
L 3688 0 
L 2938 0 
L 1159 1709 
L 1159 0 
L 581 0 
L 581 4863 
z
" transform="scale(0.015625)"/>
     </defs>
     <use xlink:href="#DejaVuSans-Oblique-51" transform="translate(0 0.015625)"/>
     <use xlink:href="#DejaVuSans-Oblique-43" transform="translate(78.710938 -16.390625) scale(0.7)"/>
     <use xlink:href="#DejaVuSans-3a" transform="translate(130.322266 0.015625)"/>
     <use xlink:href="#DejaVuSans-20" transform="translate(164.013672 0.015625)"/>
     <use xlink:href="#DejaVuSans-31" transform="translate(195.800781 0.015625)"/>
     <use xlink:href="#DejaVuSans-2e" transform="translate(259.423828 0.015625)"/>
     <use xlink:href="#DejaVuSans-32" transform="translate(285.710938 0.015625)"/>
     <use xlink:href="#DejaVuSans-b1" transform="translate(349.333984 0.015625)"/>
     <use xlink:href="#DejaVuSans-38" transform="translate(433.123047 0.015625)"/>
     <use xlink:href="#DejaVuSans-2e" transform="translate(496.746094 0.015625)"/>
     <use xlink:href="#DejaVuSans-38" transform="translate(525.908203 0.015625)"/>
     <use xlink:href="#DejaVuSans-65" transform="translate(589.53125 0.015625)"/>
     <use xlink:href="#DejaVuSans-2b" transform="translate(651.054688 0.015625)"/>
     <use xlink:href="#DejaVuSans-30" transform="translate(734.84375 0.015625)"/>
     <use xlink:href="#DejaVuSans-32" transform="translate(798.466797 0.015625)"/>
     <use xlink:href="#DejaVuSans-20" transform="translate(862.089844 0.015625)"/>
     <use xlink:href="#DejaVuSans-6b" transform="translate(893.876953 0.015625)"/>
    </g>
    <!-- $f_{res}$: 6.0$\pm$2.1 GHz -->
    <g transform="translate(419.186937 88.999875) scale(0.1 -0.1)">
     <defs>
      <path id="DejaVuSans-Oblique-66" d="M 3059 4863 
L 2969 4384 
L 2419 4384 
Q 2106 4384 1964 4261 
Q 1822 4138 1753 3809 
L 1691 3500 
L 2638 3500 
L 2553 3053 
L 1606 3053 
L 1013 0 
L 434 0 
L 1031 3053 
L 481 3053 
L 563 3500 
L 1113 3500 
L 1159 3744 
Q 1278 4363 1576 4613 
Q 1875 4863 2516 4863 
L 3059 4863 
z
" transform="scale(0.015625)"/>
      <path id="DejaVuSans-Oblique-72" d="M 2853 2969 
Q 2766 3016 2653 3041 
Q 2541 3066 2413 3066 
Q 1953 3066 1609 2717 
Q 1266 2369 1153 1784 
L 800 0 
L 225 0 
L 909 3500 
L 1484 3500 
L 1375 2956 
Q 1603 3259 1920 3421 
Q 2238 3584 2597 3584 
Q 2691 3584 2781 3573 
Q 2872 3563 2963 3538 
L 2853 2969 
z
" transform="scale(0.015625)"/>
      <path id="DejaVuSans-Oblique-65" d="M 3078 2063 
Q 3088 2113 3092 2166 
Q 3097 2219 3097 2272 
Q 3097 2653 2873 2875 
Q 2650 3097 2266 3097 
Q 1838 3097 1509 2826 
Q 1181 2556 1013 2059 
L 3078 2063 
z
M 3578 1613 
L 903 1613 
Q 884 1494 878 1425 
Q 872 1356 872 1306 
Q 872 872 1139 634 
Q 1406 397 1894 397 
Q 2269 397 2603 481 
Q 2938 566 3225 728 
L 3116 159 
Q 2806 34 2476 -28 
Q 2147 -91 1806 -91 
Q 1078 -91 686 257 
Q 294 606 294 1247 
Q 294 1794 489 2264 
Q 684 2734 1063 3103 
Q 1306 3334 1642 3459 
Q 1978 3584 2356 3584 
Q 2950 3584 3301 3228 
Q 3653 2872 3653 2272 
Q 3653 2128 3634 1964 
Q 3616 1800 3578 1613 
z
" transform="scale(0.015625)"/>
      <path id="DejaVuSans-Oblique-73" d="M 3200 3397 
L 3091 2853 
Q 2863 2978 2609 3040 
Q 2356 3103 2088 3103 
Q 1634 3103 1373 2948 
Q 1113 2794 1113 2528 
Q 1113 2219 1719 2053 
Q 1766 2041 1788 2034 
L 1972 1978 
Q 2547 1819 2739 1644 
Q 2931 1469 2931 1166 
Q 2931 609 2489 259 
Q 2047 -91 1331 -91 
Q 1053 -91 747 -37 
Q 441 16 72 128 
L 184 722 
Q 500 559 806 475 
Q 1113 391 1394 391 
Q 1816 391 2080 572 
Q 2344 753 2344 1031 
Q 2344 1331 1650 1516 
L 1591 1531 
L 1394 1581 
Q 956 1697 753 1886 
Q 550 2075 550 2369 
Q 550 2928 970 3256 
Q 1391 3584 2113 3584 
Q 2397 3584 2667 3537 
Q 2938 3491 3200 3397 
z
" transform="scale(0.015625)"/>
      <path id="DejaVuSans-47" d="M 3809 666 
L 3809 1919 
L 2778 1919 
L 2778 2438 
L 4434 2438 
L 4434 434 
Q 4069 175 3628 42 
Q 3188 -91 2688 -91 
Q 1594 -91 976 548 
Q 359 1188 359 2328 
Q 359 3472 976 4111 
Q 1594 4750 2688 4750 
Q 3144 4750 3555 4637 
Q 3966 4525 4313 4306 
L 4313 3634 
Q 3963 3931 3569 4081 
Q 3175 4231 2741 4231 
Q 1884 4231 1454 3753 
Q 1025 3275 1025 2328 
Q 1025 1384 1454 906 
Q 1884 428 2741 428 
Q 3075 428 3337 486 
Q 3600 544 3809 666 
z
" transform="scale(0.015625)"/>
      <path id="DejaVuSans-48" d="M 628 4666 
L 1259 4666 
L 1259 2753 
L 3553 2753 
L 3553 4666 
L 4184 4666 
L 4184 0 
L 3553 0 
L 3553 2222 
L 1259 2222 
L 1259 0 
L 628 0 
L 628 4666 
z
" transform="scale(0.015625)"/>
      <path id="DejaVuSans-7a" d="M 353 3500 
L 3084 3500 
L 3084 2975 
L 922 459 
L 3084 459 
L 3084 0 
L 275 0 
L 275 525 
L 2438 3041 
L 353 3041 
L 353 3500 
z
" transform="scale(0.015625)"/>
     </defs>
     <use xlink:href="#DejaVuSans-Oblique-66" transform="translate(0 0.015625)"/>
     <use xlink:href="#DejaVuSans-Oblique-72" transform="translate(35.205078 -16.390625) scale(0.7)"/>
     <use xlink:href="#DejaVuSans-Oblique-65" transform="translate(63.984375 -16.390625) scale(0.7)"/>
     <use xlink:href="#DejaVuSans-Oblique-73" transform="translate(107.050781 -16.390625) scale(0.7)"/>
     <use xlink:href="#DejaVuSans-3a" transform="translate(146.254883 0.015625)"/>
     <use xlink:href="#DejaVuSans-20" transform="translate(179.946289 0.015625)"/>
     <use xlink:href="#DejaVuSans-36" transform="translate(211.733398 0.015625)"/>
     <use xlink:href="#DejaVuSans-2e" transform="translate(275.356445 0.015625)"/>
     <use xlink:href="#DejaVuSans-30" transform="translate(307.143555 0.015625)"/>
     <use xlink:href="#DejaVuSans-b1" transform="translate(370.766602 0.015625)"/>
     <use xlink:href="#DejaVuSans-32" transform="translate(454.555664 0.015625)"/>
     <use xlink:href="#DejaVuSans-2e" transform="translate(518.178711 0.015625)"/>
     <use xlink:href="#DejaVuSans-31" transform="translate(549.96582 0.015625)"/>
     <use xlink:href="#DejaVuSans-20" transform="translate(613.588867 0.015625)"/>
     <use xlink:href="#DejaVuSans-47" transform="translate(645.375977 0.015625)"/>
     <use xlink:href="#DejaVuSans-48" transform="translate(722.866211 0.015625)"/>
     <use xlink:href="#DejaVuSans-7a" transform="translate(798.061523 0.015625)"/>
    </g>
   </g>
  </g>
  <g id="axes_2">
   <g id="patch_8">
    <path d="M 44.210938 307.872 
L 401.330938 307.872 
L 401.330938 186.912 
L 44.210938 186.912 
z
" style="fill: #ffffff"/>
   </g>
   <g id="matplotlib.axis_3">
    <g id="xtick_7">
     <g id="line2d_13">
      <g>
       <use xlink:href="#m75a57da72a" x="44.210938" y="307.872" style="stroke: #000000; stroke-width: 0.8"/>
      </g>
     </g>
     <g id="text_7">
      <!-- 8 -->
      <g transform="translate(41.029688 322.470438) scale(0.1 -0.1)">
       <use xlink:href="#DejaVuSans-38"/>
      </g>
     </g>
    </g>
    <g id="xtick_8">
     <g id="line2d_14">
      <g>
       <use xlink:href="#m75a57da72a" x="109.141847" y="307.872" style="stroke: #000000; stroke-width: 0.8"/>
      </g>
     </g>
     <g id="text_8">
      <!-- 10 -->
      <g transform="translate(102.779347 322.470438) scale(0.1 -0.1)">
       <use xlink:href="#DejaVuSans-31"/>
       <use xlink:href="#DejaVuSans-30" x="63.623047"/>
      </g>
     </g>
    </g>
    <g id="xtick_9">
     <g id="line2d_15">
      <g>
       <use xlink:href="#m75a57da72a" x="174.072756" y="307.872" style="stroke: #000000; stroke-width: 0.8"/>
      </g>
     </g>
     <g id="text_9">
      <!-- 12 -->
      <g transform="translate(167.710256 322.470438) scale(0.1 -0.1)">
       <use xlink:href="#DejaVuSans-31"/>
       <use xlink:href="#DejaVuSans-32" x="63.623047"/>
      </g>
     </g>
    </g>
    <g id="xtick_10">
     <g id="line2d_16">
      <g>
       <use xlink:href="#m75a57da72a" x="239.003665" y="307.872" style="stroke: #000000; stroke-width: 0.8"/>
      </g>
     </g>
     <g id="text_10">
      <!-- 14 -->
      <g transform="translate(232.641165 322.470438) scale(0.1 -0.1)">
       <use xlink:href="#DejaVuSans-31"/>
       <use xlink:href="#DejaVuSans-34" x="63.623047"/>
      </g>
     </g>
    </g>
    <g id="xtick_11">
     <g id="line2d_17">
      <g>
       <use xlink:href="#m75a57da72a" x="303.934574" y="307.872" style="stroke: #000000; stroke-width: 0.8"/>
      </g>
     </g>
     <g id="text_11">
      <!-- 16 -->
      <g transform="translate(297.572074 322.470438) scale(0.1 -0.1)">
       <use xlink:href="#DejaVuSans-31"/>
       <use xlink:href="#DejaVuSans-36" x="63.623047"/>
      </g>
     </g>
    </g>
    <g id="xtick_12">
     <g id="line2d_18">
      <g>
       <use xlink:href="#m75a57da72a" x="368.865483" y="307.872" style="stroke: #000000; stroke-width: 0.8"/>
      </g>
     </g>
     <g id="text_12">
      <!-- 18 -->
      <g transform="translate(362.502983 322.470438) scale(0.1 -0.1)">
       <use xlink:href="#DejaVuSans-31"/>
       <use xlink:href="#DejaVuSans-38" x="63.623047"/>
      </g>
     </g>
    </g>
    <g id="text_13">
     <!-- Frequency [MHz] -->
     <g transform="translate(180.752187 336.148562) scale(0.1 -0.1)">
      <defs>
       <path id="DejaVuSans-46" d="M 628 4666 
L 3309 4666 
L 3309 4134 
L 1259 4134 
L 1259 2759 
L 3109 2759 
L 3109 2228 
L 1259 2228 
L 1259 0 
L 628 0 
L 628 4666 
z
" transform="scale(0.015625)"/>
       <path id="DejaVuSans-71" d="M 947 1747 
Q 947 1113 1208 752 
Q 1469 391 1925 391 
Q 2381 391 2643 752 
Q 2906 1113 2906 1747 
Q 2906 2381 2643 2742 
Q 2381 3103 1925 3103 
Q 1469 3103 1208 2742 
Q 947 2381 947 1747 
z
M 2906 525 
Q 2725 213 2448 61 
Q 2172 -91 1784 -91 
Q 1150 -91 751 415 
Q 353 922 353 1747 
Q 353 2572 751 3078 
Q 1150 3584 1784 3584 
Q 2172 3584 2448 3432 
Q 2725 3281 2906 2969 
L 2906 3500 
L 3481 3500 
L 3481 -1331 
L 2906 -1331 
L 2906 525 
z
" transform="scale(0.015625)"/>
       <path id="DejaVuSans-6e" d="M 3513 2113 
L 3513 0 
L 2938 0 
L 2938 2094 
Q 2938 2591 2744 2837 
Q 2550 3084 2163 3084 
Q 1697 3084 1428 2787 
Q 1159 2491 1159 1978 
L 1159 0 
L 581 0 
L 581 3500 
L 1159 3500 
L 1159 2956 
Q 1366 3272 1645 3428 
Q 1925 3584 2291 3584 
Q 2894 3584 3203 3211 
Q 3513 2838 3513 2113 
z
" transform="scale(0.015625)"/>
       <path id="DejaVuSans-63" d="M 3122 3366 
L 3122 2828 
Q 2878 2963 2633 3030 
Q 2388 3097 2138 3097 
Q 1578 3097 1268 2742 
Q 959 2388 959 1747 
Q 959 1106 1268 751 
Q 1578 397 2138 397 
Q 2388 397 2633 464 
Q 2878 531 3122 666 
L 3122 134 
Q 2881 22 2623 -34 
Q 2366 -91 2075 -91 
Q 1284 -91 818 406 
Q 353 903 353 1747 
Q 353 2603 823 3093 
Q 1294 3584 2113 3584 
Q 2378 3584 2631 3529 
Q 2884 3475 3122 3366 
z
" transform="scale(0.015625)"/>
       <path id="DejaVuSans-4d" d="M 628 4666 
L 1569 4666 
L 2759 1491 
L 3956 4666 
L 4897 4666 
L 4897 0 
L 4281 0 
L 4281 4097 
L 3078 897 
L 2444 897 
L 1241 4097 
L 1241 0 
L 628 0 
L 628 4666 
z
" transform="scale(0.015625)"/>
      </defs>
      <use xlink:href="#DejaVuSans-46"/>
      <use xlink:href="#DejaVuSans-72" x="50.269531"/>
      <use xlink:href="#DejaVuSans-65" x="89.132812"/>
      <use xlink:href="#DejaVuSans-71" x="150.65625"/>
      <use xlink:href="#DejaVuSans-75" x="214.132812"/>
      <use xlink:href="#DejaVuSans-65" x="277.511719"/>
      <use xlink:href="#DejaVuSans-6e" x="339.035156"/>
      <use xlink:href="#DejaVuSans-63" x="402.414062"/>
      <use xlink:href="#DejaVuSans-79" x="457.394531"/>
      <use xlink:href="#DejaVuSans-20" x="516.574219"/>
      <use xlink:href="#DejaVuSans-5b" x="548.361328"/>
      <use xlink:href="#DejaVuSans-4d" x="587.375"/>
      <use xlink:href="#DejaVuSans-48" x="673.654297"/>
      <use xlink:href="#DejaVuSans-7a" x="748.849609"/>
      <use xlink:href="#DejaVuSans-5d" x="801.339844"/>
     </g>
    </g>
    <g id="text_14">
     <!-- +6 GHz -->
     <g transform="translate(362.893438 335.148562) scale(0.1 -0.1)">
      <use xlink:href="#DejaVuSans-2b"/>
      <use xlink:href="#DejaVuSans-36" x="83.789062"/>
      <use xlink:href="#DejaVuSans-20" x="147.412109"/>
      <use xlink:href="#DejaVuSans-47" x="179.199219"/>
      <use xlink:href="#DejaVuSans-48" x="256.689453"/>
      <use xlink:href="#DejaVuSans-7a" x="331.884766"/>
     </g>
    </g>
   </g>
   <g id="matplotlib.axis_4">
    <g id="ytick_5">
     <g id="line2d_19">
      <g>
       <use xlink:href="#m3a45559aeb" x="44.210938" y="304.681621" style="stroke: #000000; stroke-width: 0.8"/>
      </g>
     </g>
     <g id="text_15">
      <!-- -2 -->
      <g transform="translate(27.240625 308.48084) scale(0.1 -0.1)">
       <use xlink:href="#DejaVuSans-2d"/>
       <use xlink:href="#DejaVuSans-32" x="36.083984"/>
      </g>
     </g>
    </g>
    <g id="ytick_6">
     <g id="line2d_20">
      <g>
       <use xlink:href="#m3a45559aeb" x="44.210938" y="284.511664" style="stroke: #000000; stroke-width: 0.8"/>
      </g>
     </g>
     <g id="text_16">
      <!-- 0 -->
      <g transform="translate(30.848437 288.310882) scale(0.1 -0.1)">
       <use xlink:href="#DejaVuSans-30"/>
      </g>
     </g>
    </g>
    <g id="ytick_7">
     <g id="line2d_21">
      <g>
       <use xlink:href="#m3a45559aeb" x="44.210938" y="264.341706" style="stroke: #000000; stroke-width: 0.8"/>
      </g>
     </g>
     <g id="text_17">
      <!-- 2 -->
      <g transform="translate(30.848437 268.140924) scale(0.1 -0.1)">
       <use xlink:href="#DejaVuSans-32"/>
      </g>
     </g>
    </g>
    <g id="ytick_8">
     <g id="line2d_22">
      <g>
       <use xlink:href="#m3a45559aeb" x="44.210938" y="244.171748" style="stroke: #000000; stroke-width: 0.8"/>
      </g>
     </g>
     <g id="text_18">
      <!-- 4 -->
      <g transform="translate(30.848437 247.970967) scale(0.1 -0.1)">
       <use xlink:href="#DejaVuSans-34"/>
      </g>
     </g>
    </g>
    <g id="ytick_9">
     <g id="line2d_23">
      <g>
       <use xlink:href="#m3a45559aeb" x="44.210938" y="224.00179" style="stroke: #000000; stroke-width: 0.8"/>
      </g>
     </g>
     <g id="text_19">
      <!-- 6 -->
      <g transform="translate(30.848437 227.801009) scale(0.1 -0.1)">
       <use xlink:href="#DejaVuSans-36"/>
      </g>
     </g>
    </g>
    <g id="ytick_10">
     <g id="line2d_24">
      <g>
       <use xlink:href="#m3a45559aeb" x="44.210938" y="203.831832" style="stroke: #000000; stroke-width: 0.8"/>
      </g>
     </g>
     <g id="text_20">
      <!-- 8 -->
      <g transform="translate(30.848437 207.631051) scale(0.1 -0.1)">
       <use xlink:href="#DejaVuSans-38"/>
      </g>
     </g>
    </g>
    <g id="text_21">
     <!-- Im$(S_{21})$ [mV] -->
     <g transform="translate(21.160937 279.042) rotate(-90) scale(0.1 -0.1)">
      <defs>
       <path id="DejaVuSans-49" d="M 628 4666 
L 1259 4666 
L 1259 0 
L 628 0 
L 628 4666 
z
" transform="scale(0.015625)"/>
      </defs>
      <use xlink:href="#DejaVuSans-49" transform="translate(0 0.015625)"/>
      <use xlink:href="#DejaVuSans-6d" transform="translate(25.867188 0.015625)"/>
      <use xlink:href="#DejaVuSans-28" transform="translate(123.279297 0.015625)"/>
      <use xlink:href="#DejaVuSans-Oblique-53" transform="translate(162.292969 0.015625)"/>
      <use xlink:href="#DejaVuSans-32" transform="translate(225.769531 -16.390625) scale(0.7)"/>
      <use xlink:href="#DejaVuSans-31" transform="translate(270.305664 -16.390625) scale(0.7)"/>
      <use xlink:href="#DejaVuSans-29" transform="translate(317.576172 0.015625)"/>
      <use xlink:href="#DejaVuSans-20" transform="translate(356.589844 0.015625)"/>
      <use xlink:href="#DejaVuSans-5b" transform="translate(388.376953 0.015625)"/>
      <use xlink:href="#DejaVuSans-6d" transform="translate(427.390625 0.015625)"/>
      <use xlink:href="#DejaVuSans-56" transform="translate(524.802734 0.015625)"/>
      <use xlink:href="#DejaVuSans-5d" transform="translate(593.210938 0.015625)"/>
     </g>
    </g>
   </g>
   <g id="line2d_25">
    <path d="M 60.443665 294.935458 
L 62.075095 296.986678 
L 63.706525 299.458541 
L 65.337954 299.858896 
L 66.969384 300.517805 
L 68.600814 300.979624 
L 70.232244 302.271047 
L 71.863674 302.373818 
L 73.495104 300.653772 
L 76.757964 301.2935 
L 78.389393 301.240466 
L 80.020823 300.849121 
L 81.652253 298.666774 
L 83.283683 299.511005 
L 84.915113 298.063591 
L 86.546543 297.493505 
L 88.177973 297.137216 
L 89.809403 294.103435 
L 91.440832 294.820906 
L 93.072262 292.933253 
L 94.703692 292.170379 
L 96.335122 290.761373 
L 97.966552 289.559288 
L 99.597982 289.548339 
L 101.229412 287.063952 
L 102.860842 286.486169 
L 104.492271 284.182625 
L 106.123701 283.07256 
L 107.755131 281.655244 
L 109.386561 281.554651 
L 111.017991 280.326323 
L 112.649421 279.716232 
L 114.280851 278.244339 
L 115.912281 277.579813 
L 117.54371 275.897571 
L 119.17514 275.088419 
L 120.80657 275.216305 
L 122.438 272.997358 
L 124.06943 272.452212 
L 125.70086 272.093142 
L 127.33229 269.211432 
L 128.96372 269.518432 
L 130.595149 268.57108 
L 132.226579 267.790404 
L 133.858009 265.874679 
L 135.489439 265.513475 
L 137.120869 264.409826 
L 138.752299 263.576073 
L 140.383729 262.181091 
L 142.015159 260.522168 
L 143.646588 259.536213 
L 145.278018 260.978481 
L 146.909448 258.456814 
L 148.540878 259.527914 
L 151.803738 256.909903 
L 153.435168 255.282621 
L 155.066598 255.279994 
L 156.698027 253.694863 
L 158.329457 254.303071 
L 159.960887 252.713133 
L 161.592317 252.052593 
L 163.223747 251.754362 
L 164.855177 250.212597 
L 166.486607 250.180902 
L 168.118037 249.651697 
L 169.749467 247.956076 
L 171.380896 247.26165 
L 173.012326 247.116958 
L 174.643756 247.237378 
L 176.275186 245.991949 
L 177.906616 245.842418 
L 179.538046 244.462599 
L 181.169476 244.239353 
L 182.800906 244.520001 
L 186.063765 241.970438 
L 187.695195 241.667117 
L 189.326625 240.784108 
L 190.958055 240.33246 
L 192.589485 242.010443 
L 194.220915 239.055303 
L 195.852345 238.761693 
L 197.483774 237.520764 
L 199.115204 238.255818 
L 200.746634 237.1762 
L 202.378064 237.020834 
L 204.009494 236.033641 
L 205.640924 235.535222 
L 207.272354 234.01577 
L 208.903784 234.133518 
L 210.535213 232.922795 
L 212.166643 232.022893 
L 213.798073 231.80337 
L 215.429503 232.189558 
L 217.060933 230.48577 
L 218.692363 230.745583 
L 220.323793 229.708214 
L 221.955223 229.705718 
L 223.586652 228.598971 
L 225.218082 229.663502 
L 226.849512 228.322122 
L 228.480942 228.116109 
L 230.112372 225.970438 
L 231.743802 226.674728 
L 233.375232 226.74402 
L 235.006662 226.43979 
L 236.638091 224.838674 
L 238.269521 225.603311 
L 239.900951 224.698701 
L 241.532381 223.334812 
L 243.163811 222.611187 
L 244.795241 222.764715 
L 246.426671 221.275895 
L 248.058101 222.221901 
L 249.68953 220.486943 
L 251.32096 220.478272 
L 252.95239 221.022564 
L 254.58382 220.754211 
L 256.21525 220.355148 
L 257.84668 219.233894 
L 259.47811 219.198531 
L 261.10954 219.697388 
L 262.740969 219.21422 
L 264.372399 217.475255 
L 266.003829 217.728739 
L 267.635259 216.653862 
L 269.266689 217.005235 
L 270.898119 216.251372 
L 272.529549 214.769417 
L 274.160979 214.107278 
L 275.792408 214.767293 
L 277.423838 214.110727 
L 279.055268 212.970368 
L 280.686698 214.284508 
L 282.318128 214.199046 
L 283.949558 211.628408 
L 285.580988 212.445717 
L 287.212418 211.768141 
L 288.843848 212.333826 
L 290.475277 210.805713 
L 292.106707 211.210558 
L 293.738137 210.355083 
L 295.369567 209.257521 
L 297.000997 209.003467 
L 298.632427 209.644378 
L 300.263857 209.122332 
L 303.526716 206.742906 
L 305.158146 207.488503 
L 306.789576 206.852793 
L 308.421006 207.369934 
L 310.052436 207.052073 
L 311.683866 205.775453 
L 313.315296 204.842421 
L 314.946726 204.507055 
L 316.578155 204.517926 
L 318.209585 204.307151 
L 319.841015 204.607877 
L 321.472445 203.544364 
L 323.103875 203.092793 
L 324.735305 203.138447 
L 326.366735 201.977144 
L 327.998165 203.109609 
L 329.629594 202.050268 
L 331.261024 201.554728 
L 332.892454 200.409859 
L 334.523884 201.327486 
L 337.786744 201.220347 
L 339.418174 200.673131 
L 341.049604 200.005463 
L 342.681033 198.831745 
L 344.312463 199.100952 
L 345.943893 198.435386 
L 347.575323 198.929546 
L 349.206753 199.17863 
L 350.838183 198.00443 
L 352.469613 197.802227 
L 354.101043 198.162227 
L 355.732472 196.879629 
L 357.363902 196.974758 
L 358.995332 197.533962 
L 360.626762 196.291839 
L 362.258192 195.692478 
L 363.889622 194.875585 
L 365.521052 196.669729 
L 367.152482 193.953852 
L 368.783911 194.544258 
L 370.415341 195.478801 
L 372.046771 193.344297 
L 373.678201 195.097495 
L 375.309631 193.402805 
L 376.941061 194.523763 
L 378.572491 193.77117 
L 380.203921 193.852165 
L 383.46678 192.643905 
L 385.09821 192.410182 
L 385.09821 192.410182 
" clip-path="url(#p51b000a05e)" style="fill: none; stroke: #1f77b4; stroke-width: 1.5; stroke-linecap: square"/>
    <g clip-path="url(#p51b000a05e)">
     <use xlink:href="#mdee502bcfb" x="60.443665" y="294.935458" style="fill: #1f77b4; stroke: #1f77b4"/>
     <use xlink:href="#mdee502bcfb" x="62.075095" y="296.986678" style="fill: #1f77b4; stroke: #1f77b4"/>
     <use xlink:href="#mdee502bcfb" x="63.706525" y="299.458541" style="fill: #1f77b4; stroke: #1f77b4"/>
     <use xlink:href="#mdee502bcfb" x="65.337954" y="299.858896" style="fill: #1f77b4; stroke: #1f77b4"/>
     <use xlink:href="#mdee502bcfb" x="66.969384" y="300.517805" style="fill: #1f77b4; stroke: #1f77b4"/>
     <use xlink:href="#mdee502bcfb" x="68.600814" y="300.979624" style="fill: #1f77b4; stroke: #1f77b4"/>
     <use xlink:href="#mdee502bcfb" x="70.232244" y="302.271047" style="fill: #1f77b4; stroke: #1f77b4"/>
     <use xlink:href="#mdee502bcfb" x="71.863674" y="302.373818" style="fill: #1f77b4; stroke: #1f77b4"/>
     <use xlink:href="#mdee502bcfb" x="73.495104" y="300.653772" style="fill: #1f77b4; stroke: #1f77b4"/>
     <use xlink:href="#mdee502bcfb" x="75.126534" y="300.970986" style="fill: #1f77b4; stroke: #1f77b4"/>
     <use xlink:href="#mdee502bcfb" x="76.757964" y="301.2935" style="fill: #1f77b4; stroke: #1f77b4"/>
     <use xlink:href="#mdee502bcfb" x="78.389393" y="301.240466" style="fill: #1f77b4; stroke: #1f77b4"/>
     <use xlink:href="#mdee502bcfb" x="80.020823" y="300.849121" style="fill: #1f77b4; stroke: #1f77b4"/>
     <use xlink:href="#mdee502bcfb" x="81.652253" y="298.666774" style="fill: #1f77b4; stroke: #1f77b4"/>
     <use xlink:href="#mdee502bcfb" x="83.283683" y="299.511005" style="fill: #1f77b4; stroke: #1f77b4"/>
     <use xlink:href="#mdee502bcfb" x="84.915113" y="298.063591" style="fill: #1f77b4; stroke: #1f77b4"/>
     <use xlink:href="#mdee502bcfb" x="86.546543" y="297.493505" style="fill: #1f77b4; stroke: #1f77b4"/>
     <use xlink:href="#mdee502bcfb" x="88.177973" y="297.137216" style="fill: #1f77b4; stroke: #1f77b4"/>
     <use xlink:href="#mdee502bcfb" x="89.809403" y="294.103435" style="fill: #1f77b4; stroke: #1f77b4"/>
     <use xlink:href="#mdee502bcfb" x="91.440832" y="294.820906" style="fill: #1f77b4; stroke: #1f77b4"/>
     <use xlink:href="#mdee502bcfb" x="93.072262" y="292.933253" style="fill: #1f77b4; stroke: #1f77b4"/>
     <use xlink:href="#mdee502bcfb" x="94.703692" y="292.170379" style="fill: #1f77b4; stroke: #1f77b4"/>
     <use xlink:href="#mdee502bcfb" x="96.335122" y="290.761373" style="fill: #1f77b4; stroke: #1f77b4"/>
     <use xlink:href="#mdee502bcfb" x="97.966552" y="289.559288" style="fill: #1f77b4; stroke: #1f77b4"/>
     <use xlink:href="#mdee502bcfb" x="99.597982" y="289.548339" style="fill: #1f77b4; stroke: #1f77b4"/>
     <use xlink:href="#mdee502bcfb" x="101.229412" y="287.063952" style="fill: #1f77b4; stroke: #1f77b4"/>
     <use xlink:href="#mdee502bcfb" x="102.860842" y="286.486169" style="fill: #1f77b4; stroke: #1f77b4"/>
     <use xlink:href="#mdee502bcfb" x="104.492271" y="284.182625" style="fill: #1f77b4; stroke: #1f77b4"/>
     <use xlink:href="#mdee502bcfb" x="106.123701" y="283.07256" style="fill: #1f77b4; stroke: #1f77b4"/>
     <use xlink:href="#mdee502bcfb" x="107.755131" y="281.655244" style="fill: #1f77b4; stroke: #1f77b4"/>
     <use xlink:href="#mdee502bcfb" x="109.386561" y="281.554651" style="fill: #1f77b4; stroke: #1f77b4"/>
     <use xlink:href="#mdee502bcfb" x="111.017991" y="280.326323" style="fill: #1f77b4; stroke: #1f77b4"/>
     <use xlink:href="#mdee502bcfb" x="112.649421" y="279.716232" style="fill: #1f77b4; stroke: #1f77b4"/>
     <use xlink:href="#mdee502bcfb" x="114.280851" y="278.244339" style="fill: #1f77b4; stroke: #1f77b4"/>
     <use xlink:href="#mdee502bcfb" x="115.912281" y="277.579813" style="fill: #1f77b4; stroke: #1f77b4"/>
     <use xlink:href="#mdee502bcfb" x="117.54371" y="275.897571" style="fill: #1f77b4; stroke: #1f77b4"/>
     <use xlink:href="#mdee502bcfb" x="119.17514" y="275.088419" style="fill: #1f77b4; stroke: #1f77b4"/>
     <use xlink:href="#mdee502bcfb" x="120.80657" y="275.216305" style="fill: #1f77b4; stroke: #1f77b4"/>
     <use xlink:href="#mdee502bcfb" x="122.438" y="272.997358" style="fill: #1f77b4; stroke: #1f77b4"/>
     <use xlink:href="#mdee502bcfb" x="124.06943" y="272.452212" style="fill: #1f77b4; stroke: #1f77b4"/>
     <use xlink:href="#mdee502bcfb" x="125.70086" y="272.093142" style="fill: #1f77b4; stroke: #1f77b4"/>
     <use xlink:href="#mdee502bcfb" x="127.33229" y="269.211432" style="fill: #1f77b4; stroke: #1f77b4"/>
     <use xlink:href="#mdee502bcfb" x="128.96372" y="269.518432" style="fill: #1f77b4; stroke: #1f77b4"/>
     <use xlink:href="#mdee502bcfb" x="130.595149" y="268.57108" style="fill: #1f77b4; stroke: #1f77b4"/>
     <use xlink:href="#mdee502bcfb" x="132.226579" y="267.790404" style="fill: #1f77b4; stroke: #1f77b4"/>
     <use xlink:href="#mdee502bcfb" x="133.858009" y="265.874679" style="fill: #1f77b4; stroke: #1f77b4"/>
     <use xlink:href="#mdee502bcfb" x="135.489439" y="265.513475" style="fill: #1f77b4; stroke: #1f77b4"/>
     <use xlink:href="#mdee502bcfb" x="137.120869" y="264.409826" style="fill: #1f77b4; stroke: #1f77b4"/>
     <use xlink:href="#mdee502bcfb" x="138.752299" y="263.576073" style="fill: #1f77b4; stroke: #1f77b4"/>
     <use xlink:href="#mdee502bcfb" x="140.383729" y="262.181091" style="fill: #1f77b4; stroke: #1f77b4"/>
     <use xlink:href="#mdee502bcfb" x="142.015159" y="260.522168" style="fill: #1f77b4; stroke: #1f77b4"/>
     <use xlink:href="#mdee502bcfb" x="143.646588" y="259.536213" style="fill: #1f77b4; stroke: #1f77b4"/>
     <use xlink:href="#mdee502bcfb" x="145.278018" y="260.978481" style="fill: #1f77b4; stroke: #1f77b4"/>
     <use xlink:href="#mdee502bcfb" x="146.909448" y="258.456814" style="fill: #1f77b4; stroke: #1f77b4"/>
     <use xlink:href="#mdee502bcfb" x="148.540878" y="259.527914" style="fill: #1f77b4; stroke: #1f77b4"/>
     <use xlink:href="#mdee502bcfb" x="150.172308" y="258.235594" style="fill: #1f77b4; stroke: #1f77b4"/>
     <use xlink:href="#mdee502bcfb" x="151.803738" y="256.909903" style="fill: #1f77b4; stroke: #1f77b4"/>
     <use xlink:href="#mdee502bcfb" x="153.435168" y="255.282621" style="fill: #1f77b4; stroke: #1f77b4"/>
     <use xlink:href="#mdee502bcfb" x="155.066598" y="255.279994" style="fill: #1f77b4; stroke: #1f77b4"/>
     <use xlink:href="#mdee502bcfb" x="156.698027" y="253.694863" style="fill: #1f77b4; stroke: #1f77b4"/>
     <use xlink:href="#mdee502bcfb" x="158.329457" y="254.303071" style="fill: #1f77b4; stroke: #1f77b4"/>
     <use xlink:href="#mdee502bcfb" x="159.960887" y="252.713133" style="fill: #1f77b4; stroke: #1f77b4"/>
     <use xlink:href="#mdee502bcfb" x="161.592317" y="252.052593" style="fill: #1f77b4; stroke: #1f77b4"/>
     <use xlink:href="#mdee502bcfb" x="163.223747" y="251.754362" style="fill: #1f77b4; stroke: #1f77b4"/>
     <use xlink:href="#mdee502bcfb" x="164.855177" y="250.212597" style="fill: #1f77b4; stroke: #1f77b4"/>
     <use xlink:href="#mdee502bcfb" x="166.486607" y="250.180902" style="fill: #1f77b4; stroke: #1f77b4"/>
     <use xlink:href="#mdee502bcfb" x="168.118037" y="249.651697" style="fill: #1f77b4; stroke: #1f77b4"/>
     <use xlink:href="#mdee502bcfb" x="169.749467" y="247.956076" style="fill: #1f77b4; stroke: #1f77b4"/>
     <use xlink:href="#mdee502bcfb" x="171.380896" y="247.26165" style="fill: #1f77b4; stroke: #1f77b4"/>
     <use xlink:href="#mdee502bcfb" x="173.012326" y="247.116958" style="fill: #1f77b4; stroke: #1f77b4"/>
     <use xlink:href="#mdee502bcfb" x="174.643756" y="247.237378" style="fill: #1f77b4; stroke: #1f77b4"/>
     <use xlink:href="#mdee502bcfb" x="176.275186" y="245.991949" style="fill: #1f77b4; stroke: #1f77b4"/>
     <use xlink:href="#mdee502bcfb" x="177.906616" y="245.842418" style="fill: #1f77b4; stroke: #1f77b4"/>
     <use xlink:href="#mdee502bcfb" x="179.538046" y="244.462599" style="fill: #1f77b4; stroke: #1f77b4"/>
     <use xlink:href="#mdee502bcfb" x="181.169476" y="244.239353" style="fill: #1f77b4; stroke: #1f77b4"/>
     <use xlink:href="#mdee502bcfb" x="182.800906" y="244.520001" style="fill: #1f77b4; stroke: #1f77b4"/>
     <use xlink:href="#mdee502bcfb" x="184.432335" y="243.21267" style="fill: #1f77b4; stroke: #1f77b4"/>
     <use xlink:href="#mdee502bcfb" x="186.063765" y="241.970438" style="fill: #1f77b4; stroke: #1f77b4"/>
     <use xlink:href="#mdee502bcfb" x="187.695195" y="241.667117" style="fill: #1f77b4; stroke: #1f77b4"/>
     <use xlink:href="#mdee502bcfb" x="189.326625" y="240.784108" style="fill: #1f77b4; stroke: #1f77b4"/>
     <use xlink:href="#mdee502bcfb" x="190.958055" y="240.33246" style="fill: #1f77b4; stroke: #1f77b4"/>
     <use xlink:href="#mdee502bcfb" x="192.589485" y="242.010443" style="fill: #1f77b4; stroke: #1f77b4"/>
     <use xlink:href="#mdee502bcfb" x="194.220915" y="239.055303" style="fill: #1f77b4; stroke: #1f77b4"/>
     <use xlink:href="#mdee502bcfb" x="195.852345" y="238.761693" style="fill: #1f77b4; stroke: #1f77b4"/>
     <use xlink:href="#mdee502bcfb" x="197.483774" y="237.520764" style="fill: #1f77b4; stroke: #1f77b4"/>
     <use xlink:href="#mdee502bcfb" x="199.115204" y="238.255818" style="fill: #1f77b4; stroke: #1f77b4"/>
     <use xlink:href="#mdee502bcfb" x="200.746634" y="237.1762" style="fill: #1f77b4; stroke: #1f77b4"/>
     <use xlink:href="#mdee502bcfb" x="202.378064" y="237.020834" style="fill: #1f77b4; stroke: #1f77b4"/>
     <use xlink:href="#mdee502bcfb" x="204.009494" y="236.033641" style="fill: #1f77b4; stroke: #1f77b4"/>
     <use xlink:href="#mdee502bcfb" x="205.640924" y="235.535222" style="fill: #1f77b4; stroke: #1f77b4"/>
     <use xlink:href="#mdee502bcfb" x="207.272354" y="234.01577" style="fill: #1f77b4; stroke: #1f77b4"/>
     <use xlink:href="#mdee502bcfb" x="208.903784" y="234.133518" style="fill: #1f77b4; stroke: #1f77b4"/>
     <use xlink:href="#mdee502bcfb" x="210.535213" y="232.922795" style="fill: #1f77b4; stroke: #1f77b4"/>
     <use xlink:href="#mdee502bcfb" x="212.166643" y="232.022893" style="fill: #1f77b4; stroke: #1f77b4"/>
     <use xlink:href="#mdee502bcfb" x="213.798073" y="231.80337" style="fill: #1f77b4; stroke: #1f77b4"/>
     <use xlink:href="#mdee502bcfb" x="215.429503" y="232.189558" style="fill: #1f77b4; stroke: #1f77b4"/>
     <use xlink:href="#mdee502bcfb" x="217.060933" y="230.48577" style="fill: #1f77b4; stroke: #1f77b4"/>
     <use xlink:href="#mdee502bcfb" x="218.692363" y="230.745583" style="fill: #1f77b4; stroke: #1f77b4"/>
     <use xlink:href="#mdee502bcfb" x="220.323793" y="229.708214" style="fill: #1f77b4; stroke: #1f77b4"/>
     <use xlink:href="#mdee502bcfb" x="221.955223" y="229.705718" style="fill: #1f77b4; stroke: #1f77b4"/>
     <use xlink:href="#mdee502bcfb" x="223.586652" y="228.598971" style="fill: #1f77b4; stroke: #1f77b4"/>
     <use xlink:href="#mdee502bcfb" x="225.218082" y="229.663502" style="fill: #1f77b4; stroke: #1f77b4"/>
     <use xlink:href="#mdee502bcfb" x="226.849512" y="228.322122" style="fill: #1f77b4; stroke: #1f77b4"/>
     <use xlink:href="#mdee502bcfb" x="228.480942" y="228.116109" style="fill: #1f77b4; stroke: #1f77b4"/>
     <use xlink:href="#mdee502bcfb" x="230.112372" y="225.970438" style="fill: #1f77b4; stroke: #1f77b4"/>
     <use xlink:href="#mdee502bcfb" x="231.743802" y="226.674728" style="fill: #1f77b4; stroke: #1f77b4"/>
     <use xlink:href="#mdee502bcfb" x="233.375232" y="226.74402" style="fill: #1f77b4; stroke: #1f77b4"/>
     <use xlink:href="#mdee502bcfb" x="235.006662" y="226.43979" style="fill: #1f77b4; stroke: #1f77b4"/>
     <use xlink:href="#mdee502bcfb" x="236.638091" y="224.838674" style="fill: #1f77b4; stroke: #1f77b4"/>
     <use xlink:href="#mdee502bcfb" x="238.269521" y="225.603311" style="fill: #1f77b4; stroke: #1f77b4"/>
     <use xlink:href="#mdee502bcfb" x="239.900951" y="224.698701" style="fill: #1f77b4; stroke: #1f77b4"/>
     <use xlink:href="#mdee502bcfb" x="241.532381" y="223.334812" style="fill: #1f77b4; stroke: #1f77b4"/>
     <use xlink:href="#mdee502bcfb" x="243.163811" y="222.611187" style="fill: #1f77b4; stroke: #1f77b4"/>
     <use xlink:href="#mdee502bcfb" x="244.795241" y="222.764715" style="fill: #1f77b4; stroke: #1f77b4"/>
     <use xlink:href="#mdee502bcfb" x="246.426671" y="221.275895" style="fill: #1f77b4; stroke: #1f77b4"/>
     <use xlink:href="#mdee502bcfb" x="248.058101" y="222.221901" style="fill: #1f77b4; stroke: #1f77b4"/>
     <use xlink:href="#mdee502bcfb" x="249.68953" y="220.486943" style="fill: #1f77b4; stroke: #1f77b4"/>
     <use xlink:href="#mdee502bcfb" x="251.32096" y="220.478272" style="fill: #1f77b4; stroke: #1f77b4"/>
     <use xlink:href="#mdee502bcfb" x="252.95239" y="221.022564" style="fill: #1f77b4; stroke: #1f77b4"/>
     <use xlink:href="#mdee502bcfb" x="254.58382" y="220.754211" style="fill: #1f77b4; stroke: #1f77b4"/>
     <use xlink:href="#mdee502bcfb" x="256.21525" y="220.355148" style="fill: #1f77b4; stroke: #1f77b4"/>
     <use xlink:href="#mdee502bcfb" x="257.84668" y="219.233894" style="fill: #1f77b4; stroke: #1f77b4"/>
     <use xlink:href="#mdee502bcfb" x="259.47811" y="219.198531" style="fill: #1f77b4; stroke: #1f77b4"/>
     <use xlink:href="#mdee502bcfb" x="261.10954" y="219.697388" style="fill: #1f77b4; stroke: #1f77b4"/>
     <use xlink:href="#mdee502bcfb" x="262.740969" y="219.21422" style="fill: #1f77b4; stroke: #1f77b4"/>
     <use xlink:href="#mdee502bcfb" x="264.372399" y="217.475255" style="fill: #1f77b4; stroke: #1f77b4"/>
     <use xlink:href="#mdee502bcfb" x="266.003829" y="217.728739" style="fill: #1f77b4; stroke: #1f77b4"/>
     <use xlink:href="#mdee502bcfb" x="267.635259" y="216.653862" style="fill: #1f77b4; stroke: #1f77b4"/>
     <use xlink:href="#mdee502bcfb" x="269.266689" y="217.005235" style="fill: #1f77b4; stroke: #1f77b4"/>
     <use xlink:href="#mdee502bcfb" x="270.898119" y="216.251372" style="fill: #1f77b4; stroke: #1f77b4"/>
     <use xlink:href="#mdee502bcfb" x="272.529549" y="214.769417" style="fill: #1f77b4; stroke: #1f77b4"/>
     <use xlink:href="#mdee502bcfb" x="274.160979" y="214.107278" style="fill: #1f77b4; stroke: #1f77b4"/>
     <use xlink:href="#mdee502bcfb" x="275.792408" y="214.767293" style="fill: #1f77b4; stroke: #1f77b4"/>
     <use xlink:href="#mdee502bcfb" x="277.423838" y="214.110727" style="fill: #1f77b4; stroke: #1f77b4"/>
     <use xlink:href="#mdee502bcfb" x="279.055268" y="212.970368" style="fill: #1f77b4; stroke: #1f77b4"/>
     <use xlink:href="#mdee502bcfb" x="280.686698" y="214.284508" style="fill: #1f77b4; stroke: #1f77b4"/>
     <use xlink:href="#mdee502bcfb" x="282.318128" y="214.199046" style="fill: #1f77b4; stroke: #1f77b4"/>
     <use xlink:href="#mdee502bcfb" x="283.949558" y="211.628408" style="fill: #1f77b4; stroke: #1f77b4"/>
     <use xlink:href="#mdee502bcfb" x="285.580988" y="212.445717" style="fill: #1f77b4; stroke: #1f77b4"/>
     <use xlink:href="#mdee502bcfb" x="287.212418" y="211.768141" style="fill: #1f77b4; stroke: #1f77b4"/>
     <use xlink:href="#mdee502bcfb" x="288.843848" y="212.333826" style="fill: #1f77b4; stroke: #1f77b4"/>
     <use xlink:href="#mdee502bcfb" x="290.475277" y="210.805713" style="fill: #1f77b4; stroke: #1f77b4"/>
     <use xlink:href="#mdee502bcfb" x="292.106707" y="211.210558" style="fill: #1f77b4; stroke: #1f77b4"/>
     <use xlink:href="#mdee502bcfb" x="293.738137" y="210.355083" style="fill: #1f77b4; stroke: #1f77b4"/>
     <use xlink:href="#mdee502bcfb" x="295.369567" y="209.257521" style="fill: #1f77b4; stroke: #1f77b4"/>
     <use xlink:href="#mdee502bcfb" x="297.000997" y="209.003467" style="fill: #1f77b4; stroke: #1f77b4"/>
     <use xlink:href="#mdee502bcfb" x="298.632427" y="209.644378" style="fill: #1f77b4; stroke: #1f77b4"/>
     <use xlink:href="#mdee502bcfb" x="300.263857" y="209.122332" style="fill: #1f77b4; stroke: #1f77b4"/>
     <use xlink:href="#mdee502bcfb" x="301.895287" y="207.975788" style="fill: #1f77b4; stroke: #1f77b4"/>
     <use xlink:href="#mdee502bcfb" x="303.526716" y="206.742906" style="fill: #1f77b4; stroke: #1f77b4"/>
     <use xlink:href="#mdee502bcfb" x="305.158146" y="207.488503" style="fill: #1f77b4; stroke: #1f77b4"/>
     <use xlink:href="#mdee502bcfb" x="306.789576" y="206.852793" style="fill: #1f77b4; stroke: #1f77b4"/>
     <use xlink:href="#mdee502bcfb" x="308.421006" y="207.369934" style="fill: #1f77b4; stroke: #1f77b4"/>
     <use xlink:href="#mdee502bcfb" x="310.052436" y="207.052073" style="fill: #1f77b4; stroke: #1f77b4"/>
     <use xlink:href="#mdee502bcfb" x="311.683866" y="205.775453" style="fill: #1f77b4; stroke: #1f77b4"/>
     <use xlink:href="#mdee502bcfb" x="313.315296" y="204.842421" style="fill: #1f77b4; stroke: #1f77b4"/>
     <use xlink:href="#mdee502bcfb" x="314.946726" y="204.507055" style="fill: #1f77b4; stroke: #1f77b4"/>
     <use xlink:href="#mdee502bcfb" x="316.578155" y="204.517926" style="fill: #1f77b4; stroke: #1f77b4"/>
     <use xlink:href="#mdee502bcfb" x="318.209585" y="204.307151" style="fill: #1f77b4; stroke: #1f77b4"/>
     <use xlink:href="#mdee502bcfb" x="319.841015" y="204.607877" style="fill: #1f77b4; stroke: #1f77b4"/>
     <use xlink:href="#mdee502bcfb" x="321.472445" y="203.544364" style="fill: #1f77b4; stroke: #1f77b4"/>
     <use xlink:href="#mdee502bcfb" x="323.103875" y="203.092793" style="fill: #1f77b4; stroke: #1f77b4"/>
     <use xlink:href="#mdee502bcfb" x="324.735305" y="203.138447" style="fill: #1f77b4; stroke: #1f77b4"/>
     <use xlink:href="#mdee502bcfb" x="326.366735" y="201.977144" style="fill: #1f77b4; stroke: #1f77b4"/>
     <use xlink:href="#mdee502bcfb" x="327.998165" y="203.109609" style="fill: #1f77b4; stroke: #1f77b4"/>
     <use xlink:href="#mdee502bcfb" x="329.629594" y="202.050268" style="fill: #1f77b4; stroke: #1f77b4"/>
     <use xlink:href="#mdee502bcfb" x="331.261024" y="201.554728" style="fill: #1f77b4; stroke: #1f77b4"/>
     <use xlink:href="#mdee502bcfb" x="332.892454" y="200.409859" style="fill: #1f77b4; stroke: #1f77b4"/>
     <use xlink:href="#mdee502bcfb" x="334.523884" y="201.327486" style="fill: #1f77b4; stroke: #1f77b4"/>
     <use xlink:href="#mdee502bcfb" x="336.155314" y="201.252841" style="fill: #1f77b4; stroke: #1f77b4"/>
     <use xlink:href="#mdee502bcfb" x="337.786744" y="201.220347" style="fill: #1f77b4; stroke: #1f77b4"/>
     <use xlink:href="#mdee502bcfb" x="339.418174" y="200.673131" style="fill: #1f77b4; stroke: #1f77b4"/>
     <use xlink:href="#mdee502bcfb" x="341.049604" y="200.005463" style="fill: #1f77b4; stroke: #1f77b4"/>
     <use xlink:href="#mdee502bcfb" x="342.681033" y="198.831745" style="fill: #1f77b4; stroke: #1f77b4"/>
     <use xlink:href="#mdee502bcfb" x="344.312463" y="199.100952" style="fill: #1f77b4; stroke: #1f77b4"/>
     <use xlink:href="#mdee502bcfb" x="345.943893" y="198.435386" style="fill: #1f77b4; stroke: #1f77b4"/>
     <use xlink:href="#mdee502bcfb" x="347.575323" y="198.929546" style="fill: #1f77b4; stroke: #1f77b4"/>
     <use xlink:href="#mdee502bcfb" x="349.206753" y="199.17863" style="fill: #1f77b4; stroke: #1f77b4"/>
     <use xlink:href="#mdee502bcfb" x="350.838183" y="198.00443" style="fill: #1f77b4; stroke: #1f77b4"/>
     <use xlink:href="#mdee502bcfb" x="352.469613" y="197.802227" style="fill: #1f77b4; stroke: #1f77b4"/>
     <use xlink:href="#mdee502bcfb" x="354.101043" y="198.162227" style="fill: #1f77b4; stroke: #1f77b4"/>
     <use xlink:href="#mdee502bcfb" x="355.732472" y="196.879629" style="fill: #1f77b4; stroke: #1f77b4"/>
     <use xlink:href="#mdee502bcfb" x="357.363902" y="196.974758" style="fill: #1f77b4; stroke: #1f77b4"/>
     <use xlink:href="#mdee502bcfb" x="358.995332" y="197.533962" style="fill: #1f77b4; stroke: #1f77b4"/>
     <use xlink:href="#mdee502bcfb" x="360.626762" y="196.291839" style="fill: #1f77b4; stroke: #1f77b4"/>
     <use xlink:href="#mdee502bcfb" x="362.258192" y="195.692478" style="fill: #1f77b4; stroke: #1f77b4"/>
     <use xlink:href="#mdee502bcfb" x="363.889622" y="194.875585" style="fill: #1f77b4; stroke: #1f77b4"/>
     <use xlink:href="#mdee502bcfb" x="365.521052" y="196.669729" style="fill: #1f77b4; stroke: #1f77b4"/>
     <use xlink:href="#mdee502bcfb" x="367.152482" y="193.953852" style="fill: #1f77b4; stroke: #1f77b4"/>
     <use xlink:href="#mdee502bcfb" x="368.783911" y="194.544258" style="fill: #1f77b4; stroke: #1f77b4"/>
     <use xlink:href="#mdee502bcfb" x="370.415341" y="195.478801" style="fill: #1f77b4; stroke: #1f77b4"/>
     <use xlink:href="#mdee502bcfb" x="372.046771" y="193.344297" style="fill: #1f77b4; stroke: #1f77b4"/>
     <use xlink:href="#mdee502bcfb" x="373.678201" y="195.097495" style="fill: #1f77b4; stroke: #1f77b4"/>
     <use xlink:href="#mdee502bcfb" x="375.309631" y="193.402805" style="fill: #1f77b4; stroke: #1f77b4"/>
     <use xlink:href="#mdee502bcfb" x="376.941061" y="194.523763" style="fill: #1f77b4; stroke: #1f77b4"/>
     <use xlink:href="#mdee502bcfb" x="378.572491" y="193.77117" style="fill: #1f77b4; stroke: #1f77b4"/>
     <use xlink:href="#mdee502bcfb" x="380.203921" y="193.852165" style="fill: #1f77b4; stroke: #1f77b4"/>
     <use xlink:href="#mdee502bcfb" x="381.83535" y="193.271699" style="fill: #1f77b4; stroke: #1f77b4"/>
     <use xlink:href="#mdee502bcfb" x="383.46678" y="192.643905" style="fill: #1f77b4; stroke: #1f77b4"/>
     <use xlink:href="#mdee502bcfb" x="385.09821" y="192.410182" style="fill: #1f77b4; stroke: #1f77b4"/>
    </g>
   </g>
   <g id="line2d_26">
    <path d="M 60.443665 289.65921 
L 137.788792 264.102304 
L 167.686908 254.491815 
L 193.035311 246.57045 
L 216.108857 239.590604 
L 237.232526 233.429167 
L 257.056277 227.873389 
L 275.90509 222.816716 
L 294.103943 218.162367 
L 311.652838 213.902664 
L 328.551773 210.026659 
L 345.125729 206.452806 
L 361.374705 203.178787 
L 376.973722 200.259129 
L 385.09821 198.827993 
L 385.09821 198.827993 
" clip-path="url(#p51b000a05e)" style="fill: none; stroke: #d62728; stroke-width: 1.5; stroke-linecap: square"/>
   </g>
   <g id="patch_9">
    <path d="M 44.210938 307.872 
L 44.210938 186.912 
" style="fill: none; stroke: #000000; stroke-width: 0.8; stroke-linejoin: miter; stroke-linecap: square"/>
   </g>
   <g id="patch_10">
    <path d="M 401.330938 307.872 
L 401.330938 186.912 
" style="fill: none; stroke: #000000; stroke-width: 0.8; stroke-linejoin: miter; stroke-linecap: square"/>
   </g>
   <g id="patch_11">
    <path d="M 44.210938 307.872 
L 401.330937 307.872 
" style="fill: none; stroke: #000000; stroke-width: 0.8; stroke-linejoin: miter; stroke-linecap: square"/>
   </g>
   <g id="patch_12">
    <path d="M 44.210938 186.912 
L 401.330937 186.912 
" style="fill: none; stroke: #000000; stroke-width: 0.8; stroke-linejoin: miter; stroke-linecap: square"/>
   </g>
  </g>
  <g id="text_22">
   <!-- S21 resonator spectroscopy -->
   <g transform="translate(133.226562 16.318125) scale(0.12 -0.12)">
    <defs>
     <path id="DejaVuSans-73" d="M 2834 3397 
L 2834 2853 
Q 2591 2978 2328 3040 
Q 2066 3103 1784 3103 
Q 1356 3103 1142 2972 
Q 928 2841 928 2578 
Q 928 2378 1081 2264 
Q 1234 2150 1697 2047 
L 1894 2003 
Q 2506 1872 2764 1633 
Q 3022 1394 3022 966 
Q 3022 478 2636 193 
Q 2250 -91 1575 -91 
Q 1294 -91 989 -36 
Q 684 19 347 128 
L 347 722 
Q 666 556 975 473 
Q 1284 391 1588 391 
Q 1994 391 2212 530 
Q 2431 669 2431 922 
Q 2431 1156 2273 1281 
Q 2116 1406 1581 1522 
L 1381 1569 
Q 847 1681 609 1914 
Q 372 2147 372 2553 
Q 372 3047 722 3315 
Q 1072 3584 1716 3584 
Q 2034 3584 2315 3537 
Q 2597 3491 2834 3397 
z
" transform="scale(0.015625)"/>
     <path id="DejaVuSans-6f" d="M 1959 3097 
Q 1497 3097 1228 2736 
Q 959 2375 959 1747 
Q 959 1119 1226 758 
Q 1494 397 1959 397 
Q 2419 397 2687 759 
Q 2956 1122 2956 1747 
Q 2956 2369 2687 2733 
Q 2419 3097 1959 3097 
z
M 1959 3584 
Q 2709 3584 3137 3096 
Q 3566 2609 3566 1747 
Q 3566 888 3137 398 
Q 2709 -91 1959 -91 
Q 1206 -91 779 398 
Q 353 888 353 1747 
Q 353 2609 779 3096 
Q 1206 3584 1959 3584 
z
" transform="scale(0.015625)"/>
     <path id="DejaVuSans-74" d="M 1172 4494 
L 1172 3500 
L 2356 3500 
L 2356 3053 
L 1172 3053 
L 1172 1153 
Q 1172 725 1289 603 
Q 1406 481 1766 481 
L 2356 481 
L 2356 0 
L 1766 0 
Q 1100 0 847 248 
Q 594 497 594 1153 
L 594 3053 
L 172 3053 
L 172 3500 
L 594 3500 
L 594 4494 
L 1172 4494 
z
" transform="scale(0.015625)"/>
     <path id="DejaVuSans-70" d="M 1159 525 
L 1159 -1331 
L 581 -1331 
L 581 3500 
L 1159 3500 
L 1159 2969 
Q 1341 3281 1617 3432 
Q 1894 3584 2278 3584 
Q 2916 3584 3314 3078 
Q 3713 2572 3713 1747 
Q 3713 922 3314 415 
Q 2916 -91 2278 -91 
Q 1894 -91 1617 61 
Q 1341 213 1159 525 
z
M 3116 1747 
Q 3116 2381 2855 2742 
Q 2594 3103 2138 3103 
Q 1681 3103 1420 2742 
Q 1159 2381 1159 1747 
Q 1159 1113 1420 752 
Q 1681 391 2138 391 
Q 2594 391 2855 752 
Q 3116 1113 3116 1747 
z
" transform="scale(0.015625)"/>
    </defs>
    <use xlink:href="#DejaVuSans-53"/>
    <use xlink:href="#DejaVuSans-32" x="63.476562"/>
    <use xlink:href="#DejaVuSans-31" x="127.099609"/>
    <use xlink:href="#DejaVuSans-20" x="190.722656"/>
    <use xlink:href="#DejaVuSans-72" x="222.509766"/>
    <use xlink:href="#DejaVuSans-65" x="261.373047"/>
    <use xlink:href="#DejaVuSans-73" x="322.896484"/>
    <use xlink:href="#DejaVuSans-6f" x="374.996094"/>
    <use xlink:href="#DejaVuSans-6e" x="436.177734"/>
    <use xlink:href="#DejaVuSans-61" x="499.556641"/>
    <use xlink:href="#DejaVuSans-74" x="560.835938"/>
    <use xlink:href="#DejaVuSans-6f" x="600.044922"/>
    <use xlink:href="#DejaVuSans-72" x="661.226562"/>
    <use xlink:href="#DejaVuSans-20" x="702.339844"/>
    <use xlink:href="#DejaVuSans-73" x="734.126953"/>
    <use xlink:href="#DejaVuSans-70" x="786.226562"/>
    <use xlink:href="#DejaVuSans-65" x="849.703125"/>
    <use xlink:href="#DejaVuSans-63" x="911.226562"/>
    <use xlink:href="#DejaVuSans-74" x="966.207031"/>
    <use xlink:href="#DejaVuSans-72" x="1005.416016"/>
    <use xlink:href="#DejaVuSans-6f" x="1044.279297"/>
    <use xlink:href="#DejaVuSans-73" x="1105.460938"/>
    <use xlink:href="#DejaVuSans-63" x="1157.560547"/>
    <use xlink:href="#DejaVuSans-6f" x="1212.541016"/>
    <use xlink:href="#DejaVuSans-70" x="1273.722656"/>
    <use xlink:href="#DejaVuSans-79" x="1337.199219"/>
   </g>
   <!-- tuid: 20231227-130022-482-c07ae8 -->
   <g transform="translate(107.940313 29.7555) scale(0.12 -0.12)">
    <defs>
     <path id="DejaVuSans-69" d="M 603 3500 
L 1178 3500 
L 1178 0 
L 603 0 
L 603 3500 
z
M 603 4863 
L 1178 4863 
L 1178 4134 
L 603 4134 
L 603 4863 
z
" transform="scale(0.015625)"/>
     <path id="DejaVuSans-64" d="M 2906 2969 
L 2906 4863 
L 3481 4863 
L 3481 0 
L 2906 0 
L 2906 525 
Q 2725 213 2448 61 
Q 2172 -91 1784 -91 
Q 1150 -91 751 415 
Q 353 922 353 1747 
Q 353 2572 751 3078 
Q 1150 3584 1784 3584 
Q 2172 3584 2448 3432 
Q 2725 3281 2906 2969 
z
M 947 1747 
Q 947 1113 1208 752 
Q 1469 391 1925 391 
Q 2381 391 2643 752 
Q 2906 1113 2906 1747 
Q 2906 2381 2643 2742 
Q 2381 3103 1925 3103 
Q 1469 3103 1208 2742 
Q 947 2381 947 1747 
z
" transform="scale(0.015625)"/>
     <path id="DejaVuSans-37" d="M 525 4666 
L 3525 4666 
L 3525 4397 
L 1831 0 
L 1172 0 
L 2766 4134 
L 525 4134 
L 525 4666 
z
" transform="scale(0.015625)"/>
    </defs>
    <use xlink:href="#DejaVuSans-74"/>
    <use xlink:href="#DejaVuSans-75" x="39.208984"/>
    <use xlink:href="#DejaVuSans-69" x="102.587891"/>
    <use xlink:href="#DejaVuSans-64" x="130.371094"/>
    <use xlink:href="#DejaVuSans-3a" x="193.847656"/>
    <use xlink:href="#DejaVuSans-20" x="227.539062"/>
    <use xlink:href="#DejaVuSans-32" x="259.326172"/>
    <use xlink:href="#DejaVuSans-30" x="322.949219"/>
    <use xlink:href="#DejaVuSans-32" x="386.572266"/>
    <use xlink:href="#DejaVuSans-33" x="450.195312"/>
    <use xlink:href="#DejaVuSans-31" x="513.818359"/>
    <use xlink:href="#DejaVuSans-32" x="577.441406"/>
    <use xlink:href="#DejaVuSans-32" x="641.064453"/>
    <use xlink:href="#DejaVuSans-37" x="704.6875"/>
    <use xlink:href="#DejaVuSans-2d" x="768.310547"/>
    <use xlink:href="#DejaVuSans-31" x="804.394531"/>
    <use xlink:href="#DejaVuSans-33" x="868.017578"/>
    <use xlink:href="#DejaVuSans-30" x="931.640625"/>
    <use xlink:href="#DejaVuSans-30" x="995.263672"/>
    <use xlink:href="#DejaVuSans-32" x="1058.886719"/>
    <use xlink:href="#DejaVuSans-32" x="1122.509766"/>
    <use xlink:href="#DejaVuSans-2d" x="1186.132812"/>
    <use xlink:href="#DejaVuSans-34" x="1222.216797"/>
    <use xlink:href="#DejaVuSans-38" x="1285.839844"/>
    <use xlink:href="#DejaVuSans-32" x="1349.462891"/>
    <use xlink:href="#DejaVuSans-2d" x="1413.085938"/>
    <use xlink:href="#DejaVuSans-63" x="1449.169922"/>
    <use xlink:href="#DejaVuSans-30" x="1504.150391"/>
    <use xlink:href="#DejaVuSans-37" x="1567.773438"/>
    <use xlink:href="#DejaVuSans-61" x="1631.396484"/>
    <use xlink:href="#DejaVuSans-65" x="1692.675781"/>
    <use xlink:href="#DejaVuSans-38" x="1754.199219"/>
   </g>
  </g>
 </g>
 <defs>
  <clipPath id="p6ddd3173b6">
   <rect x="44.210938" y="41.76" width="357.12" height="120.96"/>
  </clipPath>
  <clipPath id="p51b000a05e">
   <rect x="44.210938" y="186.912" width="357.12" height="120.96"/>
  </clipPath>
 </defs>
</svg>
