<?xml version="1.0" encoding="utf-8" standalone="no"?>
<!DOCTYPE svg PUBLIC "-//W3C//DTD SVG 1.1//EN"
  "http://www.w3.org/Graphics/SVG/1.1/DTD/svg11.dtd">
<svg xmlns:xlink="http://www.w3.org/1999/xlink" width="527.971313pt" height="345.42825pt" viewBox="0 0 527.971313 345.42825" xmlns="http://www.w3.org/2000/svg" version="1.1">
 <metadata>
  <rdf:RDF xmlns:dc="http://purl.org/dc/elements/1.1/" xmlns:cc="http://creativecommons.org/ns#" xmlns:rdf="http://www.w3.org/1999/02/22-rdf-syntax-ns#">
   <cc:Work>
    <dc:type rdf:resource="http://purl.org/dc/dcmitype/StillImage"/>
    <dc:date>2023-12-27T13:00:34.122887</dc:date>
    <dc:format>image/svg+xml</dc:format>
    <dc:creator>
     <cc:Agent>
      <dc:title>Matplotlib v3.8.2, https://matplotlib.org/</dc:title>
     </cc:Agent>
    </dc:creator>
   </cc:Work>
  </rdf:RDF>
 </metadata>
 <defs>
  <style type="text/css">*{stroke-linejoin: round; stroke-linecap: butt}</style>
 </defs>
 <g id="figure_1">
  <g id="patch_1">
   <path d="M 0 345.42825 
L 527.971313 345.42825 
L 527.971313 -0 
L 0 -0 
L 0 345.42825 
z
" style="fill: none; opacity: 0"/>
  </g>
  <g id="axes_1">
   <g id="patch_2">
    <path d="M 50.595313 162.72 
L 407.715312 162.72 
L 407.715312 41.76 
L 50.595313 41.76 
z
" style="fill: #ffffff"/>
   </g>
   <g id="matplotlib.axis_1">
    <g id="xtick_1">
     <g id="line2d_1">
      <defs>
       <path id="m3bdfab05e3" d="M 0 0 
L 0 3.5 
" style="stroke: #000000; stroke-width: 0.8"/>
      </defs>
      <g>
       <use xlink:href="#m3bdfab05e3" x="50.595312" y="162.72" style="stroke: #000000; stroke-width: 0.8"/>
      </g>
     </g>
    </g>
    <g id="xtick_2">
     <g id="line2d_2">
      <g>
       <use xlink:href="#m3bdfab05e3" x="115.526222" y="162.72" style="stroke: #000000; stroke-width: 0.8"/>
      </g>
     </g>
    </g>
    <g id="xtick_3">
     <g id="line2d_3">
      <g>
       <use xlink:href="#m3bdfab05e3" x="180.457131" y="162.72" style="stroke: #000000; stroke-width: 0.8"/>
      </g>
     </g>
    </g>
    <g id="xtick_4">
     <g id="line2d_4">
      <g>
       <use xlink:href="#m3bdfab05e3" x="245.38804" y="162.72" style="stroke: #000000; stroke-width: 0.8"/>
      </g>
     </g>
    </g>
    <g id="xtick_5">
     <g id="line2d_5">
      <g>
       <use xlink:href="#m3bdfab05e3" x="310.318949" y="162.72" style="stroke: #000000; stroke-width: 0.8"/>
      </g>
     </g>
    </g>
    <g id="xtick_6">
     <g id="line2d_6">
      <g>
       <use xlink:href="#m3bdfab05e3" x="375.249858" y="162.72" style="stroke: #000000; stroke-width: 0.8"/>
      </g>
     </g>
    </g>
   </g>
   <g id="matplotlib.axis_2">
    <g id="ytick_1">
     <g id="line2d_7">
      <defs>
       <path id="m229099f691" d="M 0 0 
L -3.5 0 
" style="stroke: #000000; stroke-width: 0.8"/>
      </defs>
      <g>
       <use xlink:href="#m229099f691" x="50.595313" y="147.314393" style="stroke: #000000; stroke-width: 0.8"/>
      </g>
     </g>
     <g id="text_1">
      <!-- 4 -->
      <g transform="translate(37.232813 151.113612) scale(0.1 -0.1)">
       <defs>
        <path id="DejaVuSans-34" d="M 2419 4116 
L 825 1625 
L 2419 1625 
L 2419 4116 
z
M 2253 4666 
L 3047 4666 
L 3047 1625 
L 3713 1625 
L 3713 1100 
L 3047 1100 
L 3047 0 
L 2419 0 
L 2419 1100 
L 313 1100 
L 313 1709 
L 2253 4666 
z
" transform="scale(0.015625)"/>
       </defs>
       <use xlink:href="#DejaVuSans-34"/>
      </g>
     </g>
    </g>
    <g id="ytick_2">
     <g id="line2d_8">
      <g>
       <use xlink:href="#m229099f691" x="50.595313" y="118.02431" style="stroke: #000000; stroke-width: 0.8"/>
      </g>
     </g>
     <g id="text_2">
      <!-- 6 -->
      <g transform="translate(37.232813 121.823529) scale(0.1 -0.1)">
       <defs>
        <path id="DejaVuSans-36" d="M 2113 2584 
Q 1688 2584 1439 2293 
Q 1191 2003 1191 1497 
Q 1191 994 1439 701 
Q 1688 409 2113 409 
Q 2538 409 2786 701 
Q 3034 994 3034 1497 
Q 3034 2003 2786 2293 
Q 2538 2584 2113 2584 
z
M 3366 4563 
L 3366 3988 
Q 3128 4100 2886 4159 
Q 2644 4219 2406 4219 
Q 1781 4219 1451 3797 
Q 1122 3375 1075 2522 
Q 1259 2794 1537 2939 
Q 1816 3084 2150 3084 
Q 2853 3084 3261 2657 
Q 3669 2231 3669 1497 
Q 3669 778 3244 343 
Q 2819 -91 2113 -91 
Q 1303 -91 875 529 
Q 447 1150 447 2328 
Q 447 3434 972 4092 
Q 1497 4750 2381 4750 
Q 2619 4750 2861 4703 
Q 3103 4656 3366 4563 
z
" transform="scale(0.015625)"/>
       </defs>
       <use xlink:href="#DejaVuSans-36"/>
      </g>
     </g>
    </g>
    <g id="ytick_3">
     <g id="line2d_9">
      <g>
       <use xlink:href="#m229099f691" x="50.595313" y="88.734228" style="stroke: #000000; stroke-width: 0.8"/>
      </g>
     </g>
     <g id="text_3">
      <!-- 8 -->
      <g transform="translate(37.232813 92.533446) scale(0.1 -0.1)">
       <defs>
        <path id="DejaVuSans-38" d="M 2034 2216 
Q 1584 2216 1326 1975 
Q 1069 1734 1069 1313 
Q 1069 891 1326 650 
Q 1584 409 2034 409 
Q 2484 409 2743 651 
Q 3003 894 3003 1313 
Q 3003 1734 2745 1975 
Q 2488 2216 2034 2216 
z
M 1403 2484 
Q 997 2584 770 2862 
Q 544 3141 544 3541 
Q 544 4100 942 4425 
Q 1341 4750 2034 4750 
Q 2731 4750 3128 4425 
Q 3525 4100 3525 3541 
Q 3525 3141 3298 2862 
Q 3072 2584 2669 2484 
Q 3125 2378 3379 2068 
Q 3634 1759 3634 1313 
Q 3634 634 3220 271 
Q 2806 -91 2034 -91 
Q 1263 -91 848 271 
Q 434 634 434 1313 
Q 434 1759 690 2068 
Q 947 2378 1403 2484 
z
M 1172 3481 
Q 1172 3119 1398 2916 
Q 1625 2713 2034 2713 
Q 2441 2713 2670 2916 
Q 2900 3119 2900 3481 
Q 2900 3844 2670 4047 
Q 2441 4250 2034 4250 
Q 1625 4250 1398 4047 
Q 1172 3844 1172 3481 
z
" transform="scale(0.015625)"/>
       </defs>
       <use xlink:href="#DejaVuSans-38"/>
      </g>
     </g>
    </g>
    <g id="ytick_4">
     <g id="line2d_10">
      <g>
       <use xlink:href="#m229099f691" x="50.595313" y="59.444145" style="stroke: #000000; stroke-width: 0.8"/>
      </g>
     </g>
     <g id="text_4">
      <!-- 10 -->
      <g transform="translate(30.870313 63.243363) scale(0.1 -0.1)">
       <defs>
        <path id="DejaVuSans-31" d="M 794 531 
L 1825 531 
L 1825 4091 
L 703 3866 
L 703 4441 
L 1819 4666 
L 2450 4666 
L 2450 531 
L 3481 531 
L 3481 0 
L 794 0 
L 794 531 
z
" transform="scale(0.015625)"/>
        <path id="DejaVuSans-30" d="M 2034 4250 
Q 1547 4250 1301 3770 
Q 1056 3291 1056 2328 
Q 1056 1369 1301 889 
Q 1547 409 2034 409 
Q 2525 409 2770 889 
Q 3016 1369 3016 2328 
Q 3016 3291 2770 3770 
Q 2525 4250 2034 4250 
z
M 2034 4750 
Q 2819 4750 3233 4129 
Q 3647 3509 3647 2328 
Q 3647 1150 3233 529 
Q 2819 -91 2034 -91 
Q 1250 -91 836 529 
Q 422 1150 422 2328 
Q 422 3509 836 4129 
Q 1250 4750 2034 4750 
z
" transform="scale(0.015625)"/>
       </defs>
       <use xlink:href="#DejaVuSans-31"/>
       <use xlink:href="#DejaVuSans-30" x="63.623047"/>
      </g>
     </g>
    </g>
    <g id="text_5">
     <!-- $|S_{21}|$ [mV] -->
     <g transform="translate(24.470313 127.19) rotate(-90) scale(0.1 -0.1)">
      <defs>
       <path id="DejaVuSans-7c" d="M 1344 4891 
L 1344 -1509 
L 813 -1509 
L 813 4891 
L 1344 4891 
z
" transform="scale(0.015625)"/>
       <path id="DejaVuSans-Oblique-53" d="M 3859 4513 
L 3738 3897 
Q 3422 4066 3111 4152 
Q 2800 4238 2509 4238 
Q 1944 4238 1609 3991 
Q 1275 3744 1275 3334 
Q 1275 3109 1398 2989 
Q 1522 2869 2034 2731 
L 2413 2638 
Q 3053 2472 3303 2217 
Q 3553 1963 3553 1503 
Q 3553 797 2998 353 
Q 2444 -91 1538 -91 
Q 1166 -91 791 -17 
Q 416 56 38 206 
L 166 856 
Q 513 641 861 531 
Q 1209 422 1556 422 
Q 2147 422 2503 684 
Q 2859 947 2859 1369 
Q 2859 1650 2717 1795 
Q 2575 1941 2106 2059 
L 1728 2156 
Q 1081 2325 845 2545 
Q 609 2766 609 3163 
Q 609 3859 1145 4304 
Q 1681 4750 2541 4750 
Q 2875 4750 3203 4690 
Q 3531 4631 3859 4513 
z
" transform="scale(0.015625)"/>
       <path id="DejaVuSans-32" d="M 1228 531 
L 3431 531 
L 3431 0 
L 469 0 
L 469 531 
Q 828 903 1448 1529 
Q 2069 2156 2228 2338 
Q 2531 2678 2651 2914 
Q 2772 3150 2772 3378 
Q 2772 3750 2511 3984 
Q 2250 4219 1831 4219 
Q 1534 4219 1204 4116 
Q 875 4013 500 3803 
L 500 4441 
Q 881 4594 1212 4672 
Q 1544 4750 1819 4750 
Q 2544 4750 2975 4387 
Q 3406 4025 3406 3419 
Q 3406 3131 3298 2873 
Q 3191 2616 2906 2266 
Q 2828 2175 2409 1742 
Q 1991 1309 1228 531 
z
" transform="scale(0.015625)"/>
       <path id="DejaVuSans-20" transform="scale(0.015625)"/>
       <path id="DejaVuSans-5b" d="M 550 4863 
L 1875 4863 
L 1875 4416 
L 1125 4416 
L 1125 -397 
L 1875 -397 
L 1875 -844 
L 550 -844 
L 550 4863 
z
" transform="scale(0.015625)"/>
       <path id="DejaVuSans-6d" d="M 3328 2828 
Q 3544 3216 3844 3400 
Q 4144 3584 4550 3584 
Q 5097 3584 5394 3201 
Q 5691 2819 5691 2113 
L 5691 0 
L 5113 0 
L 5113 2094 
Q 5113 2597 4934 2840 
Q 4756 3084 4391 3084 
Q 3944 3084 3684 2787 
Q 3425 2491 3425 1978 
L 3425 0 
L 2847 0 
L 2847 2094 
Q 2847 2600 2669 2842 
Q 2491 3084 2119 3084 
Q 1678 3084 1418 2786 
Q 1159 2488 1159 1978 
L 1159 0 
L 581 0 
L 581 3500 
L 1159 3500 
L 1159 2956 
Q 1356 3278 1631 3431 
Q 1906 3584 2284 3584 
Q 2666 3584 2933 3390 
Q 3200 3197 3328 2828 
z
" transform="scale(0.015625)"/>
       <path id="DejaVuSans-56" d="M 1831 0 
L 50 4666 
L 709 4666 
L 2188 738 
L 3669 4666 
L 4325 4666 
L 2547 0 
L 1831 0 
z
" transform="scale(0.015625)"/>
       <path id="DejaVuSans-5d" d="M 1947 4863 
L 1947 -844 
L 622 -844 
L 622 -397 
L 1369 -397 
L 1369 4416 
L 622 4416 
L 622 4863 
L 1947 4863 
z
" transform="scale(0.015625)"/>
      </defs>
      <use xlink:href="#DejaVuSans-7c" transform="translate(0 0.578125)"/>
      <use xlink:href="#DejaVuSans-Oblique-53" transform="translate(33.691406 0.578125)"/>
      <use xlink:href="#DejaVuSans-32" transform="translate(97.167969 -15.828125) scale(0.7)"/>
      <use xlink:href="#DejaVuSans-31" transform="translate(141.704102 -15.828125) scale(0.7)"/>
      <use xlink:href="#DejaVuSans-7c" transform="translate(188.974609 0.578125)"/>
      <use xlink:href="#DejaVuSans-20" transform="translate(222.666016 0.578125)"/>
      <use xlink:href="#DejaVuSans-5b" transform="translate(254.453125 0.578125)"/>
      <use xlink:href="#DejaVuSans-6d" transform="translate(293.466797 0.578125)"/>
      <use xlink:href="#DejaVuSans-56" transform="translate(390.878906 0.578125)"/>
      <use xlink:href="#DejaVuSans-5d" transform="translate(459.287109 0.578125)"/>
     </g>
    </g>
   </g>
   <g id="line2d_11">
    <path d="M 66.82804 157.221818 
L 68.45947 155.004448 
L 70.0909 148.807762 
L 71.722329 141.953694 
L 73.353759 140.048526 
L 74.985189 132.118753 
L 76.616619 129.609596 
L 78.248049 126.067633 
L 79.879479 122.862574 
L 81.510909 118.428734 
L 83.142339 113.576788 
L 84.773768 109.693839 
L 86.405198 108.316332 
L 88.036628 104.623736 
L 89.668058 99.873796 
L 91.299488 101.734086 
L 92.930918 95.730902 
L 96.193778 92.929494 
L 97.825207 89.801402 
L 99.456637 90.319533 
L 101.088067 88.711805 
L 102.719497 87.295711 
L 104.350927 85.206323 
L 105.982357 80.728084 
L 107.613787 83.109472 
L 109.245217 80.55526 
L 110.876646 78.431484 
L 112.508076 79.263597 
L 114.139506 74.331308 
L 115.770936 78.127206 
L 117.402366 75.936862 
L 119.033796 71.940565 
L 120.665226 71.991379 
L 122.296656 73.016416 
L 123.928085 69.352222 
L 125.559515 70.301925 
L 127.190945 69.38715 
L 128.822375 68.77076 
L 130.453805 68.568662 
L 132.085235 69.599177 
L 133.716665 67.282945 
L 135.348095 66.853526 
L 136.979524 65.97401 
L 138.610954 64.670105 
L 141.873814 62.887011 
L 143.505244 63.214122 
L 145.136674 62.482306 
L 146.768104 63.630884 
L 148.399534 61.416945 
L 150.030963 61.828852 
L 151.662393 61.442229 
L 153.293823 60.828858 
L 154.925253 61.718526 
L 156.556683 60.472184 
L 158.188113 58.919741 
L 159.819543 58.559795 
L 163.082402 59.426638 
L 164.713832 57.884956 
L 166.345262 59.862434 
L 167.976692 58.609709 
L 169.608122 60.122381 
L 171.239552 57.906956 
L 172.870982 58.032568 
L 174.502412 57.410382 
L 176.133842 57.190294 
L 177.765271 56.489758 
L 179.396701 55.35759 
L 181.028131 57.506815 
L 182.659561 56.273993 
L 184.290991 55.518014 
L 185.922421 56.323431 
L 187.553851 56.933589 
L 189.185281 56.838148 
L 190.81671 56.385343 
L 192.44814 55.53084 
L 194.07957 56.532344 
L 195.711 54.950032 
L 197.34243 55.158345 
L 198.97386 55.991354 
L 200.60529 55.869514 
L 202.23672 56.731095 
L 203.868149 56.222101 
L 205.499579 54.383956 
L 208.762439 56.979017 
L 210.393869 54.882556 
L 212.025299 54.446835 
L 213.656729 52.638528 
L 215.288159 54.419305 
L 216.919588 53.558501 
L 218.551018 53.482924 
L 220.182448 51.531569 
L 221.813878 52.503135 
L 223.445308 52.740603 
L 225.076738 53.668948 
L 226.708168 53.66101 
L 229.971027 53.028666 
L 231.602457 54.436267 
L 233.233887 53.09591 
L 234.865317 53.060265 
L 236.496747 51.892281 
L 238.128177 52.187182 
L 239.759607 53.984881 
L 241.391037 53.512514 
L 243.022466 52.66224 
L 244.653896 53.301922 
L 246.285326 53.454455 
L 247.916756 51.894351 
L 249.548186 51.942166 
L 251.179616 51.417272 
L 252.811046 51.747498 
L 254.442476 51.675081 
L 256.073905 51.48083 
L 257.705335 51.090767 
L 259.336765 52.992374 
L 260.968195 50.109008 
L 262.599625 52.182152 
L 264.231055 52.210231 
L 265.862485 52.558059 
L 267.493915 53.589513 
L 269.125344 54.286586 
L 270.756774 51.257239 
L 272.388204 52.611333 
L 274.019634 52.919179 
L 275.651064 53.02562 
L 277.282494 50.485777 
L 278.913924 50.687982 
L 280.545354 49.529724 
L 282.176783 51.930179 
L 285.439643 49.74967 
L 287.071073 51.927059 
L 288.702503 52.625431 
L 290.333933 49.137121 
L 291.965363 51.988662 
L 293.596793 51.184193 
L 295.228223 50.707851 
L 296.859652 48.685542 
L 298.491082 51.681653 
L 300.122512 51.520826 
L 301.753942 49.534043 
L 303.385372 49.443503 
L 305.016802 50.276022 
L 306.648232 51.272926 
L 308.279662 50.229909 
L 309.911091 48.72062 
L 311.542521 50.786224 
L 313.173951 50.302322 
L 314.805381 50.91169 
L 316.436811 50.219786 
L 318.068241 48.50581 
L 319.699671 49.40049 
L 321.331101 48.497136 
L 322.96253 48.309407 
L 324.59396 48.838063 
L 326.22539 49.604029 
L 327.85682 49.898072 
L 329.48825 49.28528 
L 331.11968 48.524953 
L 332.75111 47.42209 
L 334.38254 50.347606 
L 336.013969 48.643917 
L 337.645399 49.52966 
L 339.276829 48.098973 
L 340.908259 49.72895 
L 342.539689 49.278348 
L 344.171119 50.741772 
L 347.433979 48.715204 
L 349.065408 48.695689 
L 350.696838 48.942448 
L 352.328268 48.674323 
L 353.959698 48.674655 
L 355.591128 49.364233 
L 357.222558 49.53612 
L 358.853988 48.82485 
L 360.485418 49.684475 
L 362.116847 49.147584 
L 363.748277 48.864659 
L 365.379707 49.077372 
L 367.011137 48.250406 
L 368.642567 47.848739 
L 370.273997 47.769077 
L 371.905427 49.842779 
L 373.536857 48.041965 
L 375.168286 48.286346 
L 376.799716 49.690495 
L 378.431146 47.258182 
L 380.062576 49.830849 
L 381.694006 47.661568 
L 383.325436 50.353742 
L 384.956866 49.271123 
L 386.588296 49.482068 
L 389.851155 48.963426 
L 391.482585 49.08798 
L 391.482585 49.08798 
" clip-path="url(#paf5e225735)" style="fill: none; stroke: #1f77b4; stroke-width: 1.5; stroke-linecap: square"/>
    <defs>
     <path id="m093c4ab4dc" d="M 0 1.5 
C 0.397805 1.5 0.77937 1.341951 1.06066 1.06066 
C 1.341951 0.77937 1.5 0.397805 1.5 0 
C 1.5 -0.397805 1.341951 -0.77937 1.06066 -1.06066 
C 0.77937 -1.341951 0.397805 -1.5 0 -1.5 
C -0.397805 -1.5 -0.77937 -1.341951 -1.06066 -1.06066 
C -1.341951 -0.77937 -1.5 -0.397805 -1.5 0 
C -1.5 0.397805 -1.341951 0.77937 -1.06066 1.06066 
C -0.77937 1.341951 -0.397805 1.5 0 1.5 
z
" style="stroke: #1f77b4"/>
    </defs>
    <g clip-path="url(#paf5e225735)">
     <use xlink:href="#m093c4ab4dc" x="66.82804" y="157.221818" style="fill: #1f77b4; stroke: #1f77b4"/>
     <use xlink:href="#m093c4ab4dc" x="68.45947" y="155.004448" style="fill: #1f77b4; stroke: #1f77b4"/>
     <use xlink:href="#m093c4ab4dc" x="70.0909" y="148.807762" style="fill: #1f77b4; stroke: #1f77b4"/>
     <use xlink:href="#m093c4ab4dc" x="71.722329" y="141.953694" style="fill: #1f77b4; stroke: #1f77b4"/>
     <use xlink:href="#m093c4ab4dc" x="73.353759" y="140.048526" style="fill: #1f77b4; stroke: #1f77b4"/>
     <use xlink:href="#m093c4ab4dc" x="74.985189" y="132.118753" style="fill: #1f77b4; stroke: #1f77b4"/>
     <use xlink:href="#m093c4ab4dc" x="76.616619" y="129.609596" style="fill: #1f77b4; stroke: #1f77b4"/>
     <use xlink:href="#m093c4ab4dc" x="78.248049" y="126.067633" style="fill: #1f77b4; stroke: #1f77b4"/>
     <use xlink:href="#m093c4ab4dc" x="79.879479" y="122.862574" style="fill: #1f77b4; stroke: #1f77b4"/>
     <use xlink:href="#m093c4ab4dc" x="81.510909" y="118.428734" style="fill: #1f77b4; stroke: #1f77b4"/>
     <use xlink:href="#m093c4ab4dc" x="83.142339" y="113.576788" style="fill: #1f77b4; stroke: #1f77b4"/>
     <use xlink:href="#m093c4ab4dc" x="84.773768" y="109.693839" style="fill: #1f77b4; stroke: #1f77b4"/>
     <use xlink:href="#m093c4ab4dc" x="86.405198" y="108.316332" style="fill: #1f77b4; stroke: #1f77b4"/>
     <use xlink:href="#m093c4ab4dc" x="88.036628" y="104.623736" style="fill: #1f77b4; stroke: #1f77b4"/>
     <use xlink:href="#m093c4ab4dc" x="89.668058" y="99.873796" style="fill: #1f77b4; stroke: #1f77b4"/>
     <use xlink:href="#m093c4ab4dc" x="91.299488" y="101.734086" style="fill: #1f77b4; stroke: #1f77b4"/>
     <use xlink:href="#m093c4ab4dc" x="92.930918" y="95.730902" style="fill: #1f77b4; stroke: #1f77b4"/>
     <use xlink:href="#m093c4ab4dc" x="94.562348" y="94.298404" style="fill: #1f77b4; stroke: #1f77b4"/>
     <use xlink:href="#m093c4ab4dc" x="96.193778" y="92.929494" style="fill: #1f77b4; stroke: #1f77b4"/>
     <use xlink:href="#m093c4ab4dc" x="97.825207" y="89.801402" style="fill: #1f77b4; stroke: #1f77b4"/>
     <use xlink:href="#m093c4ab4dc" x="99.456637" y="90.319533" style="fill: #1f77b4; stroke: #1f77b4"/>
     <use xlink:href="#m093c4ab4dc" x="101.088067" y="88.711805" style="fill: #1f77b4; stroke: #1f77b4"/>
     <use xlink:href="#m093c4ab4dc" x="102.719497" y="87.295711" style="fill: #1f77b4; stroke: #1f77b4"/>
     <use xlink:href="#m093c4ab4dc" x="104.350927" y="85.206323" style="fill: #1f77b4; stroke: #1f77b4"/>
     <use xlink:href="#m093c4ab4dc" x="105.982357" y="80.728084" style="fill: #1f77b4; stroke: #1f77b4"/>
     <use xlink:href="#m093c4ab4dc" x="107.613787" y="83.109472" style="fill: #1f77b4; stroke: #1f77b4"/>
     <use xlink:href="#m093c4ab4dc" x="109.245217" y="80.55526" style="fill: #1f77b4; stroke: #1f77b4"/>
     <use xlink:href="#m093c4ab4dc" x="110.876646" y="78.431484" style="fill: #1f77b4; stroke: #1f77b4"/>
     <use xlink:href="#m093c4ab4dc" x="112.508076" y="79.263597" style="fill: #1f77b4; stroke: #1f77b4"/>
     <use xlink:href="#m093c4ab4dc" x="114.139506" y="74.331308" style="fill: #1f77b4; stroke: #1f77b4"/>
     <use xlink:href="#m093c4ab4dc" x="115.770936" y="78.127206" style="fill: #1f77b4; stroke: #1f77b4"/>
     <use xlink:href="#m093c4ab4dc" x="117.402366" y="75.936862" style="fill: #1f77b4; stroke: #1f77b4"/>
     <use xlink:href="#m093c4ab4dc" x="119.033796" y="71.940565" style="fill: #1f77b4; stroke: #1f77b4"/>
     <use xlink:href="#m093c4ab4dc" x="120.665226" y="71.991379" style="fill: #1f77b4; stroke: #1f77b4"/>
     <use xlink:href="#m093c4ab4dc" x="122.296656" y="73.016416" style="fill: #1f77b4; stroke: #1f77b4"/>
     <use xlink:href="#m093c4ab4dc" x="123.928085" y="69.352222" style="fill: #1f77b4; stroke: #1f77b4"/>
     <use xlink:href="#m093c4ab4dc" x="125.559515" y="70.301925" style="fill: #1f77b4; stroke: #1f77b4"/>
     <use xlink:href="#m093c4ab4dc" x="127.190945" y="69.38715" style="fill: #1f77b4; stroke: #1f77b4"/>
     <use xlink:href="#m093c4ab4dc" x="128.822375" y="68.77076" style="fill: #1f77b4; stroke: #1f77b4"/>
     <use xlink:href="#m093c4ab4dc" x="130.453805" y="68.568662" style="fill: #1f77b4; stroke: #1f77b4"/>
     <use xlink:href="#m093c4ab4dc" x="132.085235" y="69.599177" style="fill: #1f77b4; stroke: #1f77b4"/>
     <use xlink:href="#m093c4ab4dc" x="133.716665" y="67.282945" style="fill: #1f77b4; stroke: #1f77b4"/>
     <use xlink:href="#m093c4ab4dc" x="135.348095" y="66.853526" style="fill: #1f77b4; stroke: #1f77b4"/>
     <use xlink:href="#m093c4ab4dc" x="136.979524" y="65.97401" style="fill: #1f77b4; stroke: #1f77b4"/>
     <use xlink:href="#m093c4ab4dc" x="138.610954" y="64.670105" style="fill: #1f77b4; stroke: #1f77b4"/>
     <use xlink:href="#m093c4ab4dc" x="140.242384" y="63.716751" style="fill: #1f77b4; stroke: #1f77b4"/>
     <use xlink:href="#m093c4ab4dc" x="141.873814" y="62.887011" style="fill: #1f77b4; stroke: #1f77b4"/>
     <use xlink:href="#m093c4ab4dc" x="143.505244" y="63.214122" style="fill: #1f77b4; stroke: #1f77b4"/>
     <use xlink:href="#m093c4ab4dc" x="145.136674" y="62.482306" style="fill: #1f77b4; stroke: #1f77b4"/>
     <use xlink:href="#m093c4ab4dc" x="146.768104" y="63.630884" style="fill: #1f77b4; stroke: #1f77b4"/>
     <use xlink:href="#m093c4ab4dc" x="148.399534" y="61.416945" style="fill: #1f77b4; stroke: #1f77b4"/>
     <use xlink:href="#m093c4ab4dc" x="150.030963" y="61.828852" style="fill: #1f77b4; stroke: #1f77b4"/>
     <use xlink:href="#m093c4ab4dc" x="151.662393" y="61.442229" style="fill: #1f77b4; stroke: #1f77b4"/>
     <use xlink:href="#m093c4ab4dc" x="153.293823" y="60.828858" style="fill: #1f77b4; stroke: #1f77b4"/>
     <use xlink:href="#m093c4ab4dc" x="154.925253" y="61.718526" style="fill: #1f77b4; stroke: #1f77b4"/>
     <use xlink:href="#m093c4ab4dc" x="156.556683" y="60.472184" style="fill: #1f77b4; stroke: #1f77b4"/>
     <use xlink:href="#m093c4ab4dc" x="158.188113" y="58.919741" style="fill: #1f77b4; stroke: #1f77b4"/>
     <use xlink:href="#m093c4ab4dc" x="159.819543" y="58.559795" style="fill: #1f77b4; stroke: #1f77b4"/>
     <use xlink:href="#m093c4ab4dc" x="161.450973" y="58.937224" style="fill: #1f77b4; stroke: #1f77b4"/>
     <use xlink:href="#m093c4ab4dc" x="163.082402" y="59.426638" style="fill: #1f77b4; stroke: #1f77b4"/>
     <use xlink:href="#m093c4ab4dc" x="164.713832" y="57.884956" style="fill: #1f77b4; stroke: #1f77b4"/>
     <use xlink:href="#m093c4ab4dc" x="166.345262" y="59.862434" style="fill: #1f77b4; stroke: #1f77b4"/>
     <use xlink:href="#m093c4ab4dc" x="167.976692" y="58.609709" style="fill: #1f77b4; stroke: #1f77b4"/>
     <use xlink:href="#m093c4ab4dc" x="169.608122" y="60.122381" style="fill: #1f77b4; stroke: #1f77b4"/>
     <use xlink:href="#m093c4ab4dc" x="171.239552" y="57.906956" style="fill: #1f77b4; stroke: #1f77b4"/>
     <use xlink:href="#m093c4ab4dc" x="172.870982" y="58.032568" style="fill: #1f77b4; stroke: #1f77b4"/>
     <use xlink:href="#m093c4ab4dc" x="174.502412" y="57.410382" style="fill: #1f77b4; stroke: #1f77b4"/>
     <use xlink:href="#m093c4ab4dc" x="176.133842" y="57.190294" style="fill: #1f77b4; stroke: #1f77b4"/>
     <use xlink:href="#m093c4ab4dc" x="177.765271" y="56.489758" style="fill: #1f77b4; stroke: #1f77b4"/>
     <use xlink:href="#m093c4ab4dc" x="179.396701" y="55.35759" style="fill: #1f77b4; stroke: #1f77b4"/>
     <use xlink:href="#m093c4ab4dc" x="181.028131" y="57.506815" style="fill: #1f77b4; stroke: #1f77b4"/>
     <use xlink:href="#m093c4ab4dc" x="182.659561" y="56.273993" style="fill: #1f77b4; stroke: #1f77b4"/>
     <use xlink:href="#m093c4ab4dc" x="184.290991" y="55.518014" style="fill: #1f77b4; stroke: #1f77b4"/>
     <use xlink:href="#m093c4ab4dc" x="185.922421" y="56.323431" style="fill: #1f77b4; stroke: #1f77b4"/>
     <use xlink:href="#m093c4ab4dc" x="187.553851" y="56.933589" style="fill: #1f77b4; stroke: #1f77b4"/>
     <use xlink:href="#m093c4ab4dc" x="189.185281" y="56.838148" style="fill: #1f77b4; stroke: #1f77b4"/>
     <use xlink:href="#m093c4ab4dc" x="190.81671" y="56.385343" style="fill: #1f77b4; stroke: #1f77b4"/>
     <use xlink:href="#m093c4ab4dc" x="192.44814" y="55.53084" style="fill: #1f77b4; stroke: #1f77b4"/>
     <use xlink:href="#m093c4ab4dc" x="194.07957" y="56.532344" style="fill: #1f77b4; stroke: #1f77b4"/>
     <use xlink:href="#m093c4ab4dc" x="195.711" y="54.950032" style="fill: #1f77b4; stroke: #1f77b4"/>
     <use xlink:href="#m093c4ab4dc" x="197.34243" y="55.158345" style="fill: #1f77b4; stroke: #1f77b4"/>
     <use xlink:href="#m093c4ab4dc" x="198.97386" y="55.991354" style="fill: #1f77b4; stroke: #1f77b4"/>
     <use xlink:href="#m093c4ab4dc" x="200.60529" y="55.869514" style="fill: #1f77b4; stroke: #1f77b4"/>
     <use xlink:href="#m093c4ab4dc" x="202.23672" y="56.731095" style="fill: #1f77b4; stroke: #1f77b4"/>
     <use xlink:href="#m093c4ab4dc" x="203.868149" y="56.222101" style="fill: #1f77b4; stroke: #1f77b4"/>
     <use xlink:href="#m093c4ab4dc" x="205.499579" y="54.383956" style="fill: #1f77b4; stroke: #1f77b4"/>
     <use xlink:href="#m093c4ab4dc" x="207.131009" y="55.695308" style="fill: #1f77b4; stroke: #1f77b4"/>
     <use xlink:href="#m093c4ab4dc" x="208.762439" y="56.979017" style="fill: #1f77b4; stroke: #1f77b4"/>
     <use xlink:href="#m093c4ab4dc" x="210.393869" y="54.882556" style="fill: #1f77b4; stroke: #1f77b4"/>
     <use xlink:href="#m093c4ab4dc" x="212.025299" y="54.446835" style="fill: #1f77b4; stroke: #1f77b4"/>
     <use xlink:href="#m093c4ab4dc" x="213.656729" y="52.638528" style="fill: #1f77b4; stroke: #1f77b4"/>
     <use xlink:href="#m093c4ab4dc" x="215.288159" y="54.419305" style="fill: #1f77b4; stroke: #1f77b4"/>
     <use xlink:href="#m093c4ab4dc" x="216.919588" y="53.558501" style="fill: #1f77b4; stroke: #1f77b4"/>
     <use xlink:href="#m093c4ab4dc" x="218.551018" y="53.482924" style="fill: #1f77b4; stroke: #1f77b4"/>
     <use xlink:href="#m093c4ab4dc" x="220.182448" y="51.531569" style="fill: #1f77b4; stroke: #1f77b4"/>
     <use xlink:href="#m093c4ab4dc" x="221.813878" y="52.503135" style="fill: #1f77b4; stroke: #1f77b4"/>
     <use xlink:href="#m093c4ab4dc" x="223.445308" y="52.740603" style="fill: #1f77b4; stroke: #1f77b4"/>
     <use xlink:href="#m093c4ab4dc" x="225.076738" y="53.668948" style="fill: #1f77b4; stroke: #1f77b4"/>
     <use xlink:href="#m093c4ab4dc" x="226.708168" y="53.66101" style="fill: #1f77b4; stroke: #1f77b4"/>
     <use xlink:href="#m093c4ab4dc" x="228.339598" y="53.366685" style="fill: #1f77b4; stroke: #1f77b4"/>
     <use xlink:href="#m093c4ab4dc" x="229.971027" y="53.028666" style="fill: #1f77b4; stroke: #1f77b4"/>
     <use xlink:href="#m093c4ab4dc" x="231.602457" y="54.436267" style="fill: #1f77b4; stroke: #1f77b4"/>
     <use xlink:href="#m093c4ab4dc" x="233.233887" y="53.09591" style="fill: #1f77b4; stroke: #1f77b4"/>
     <use xlink:href="#m093c4ab4dc" x="234.865317" y="53.060265" style="fill: #1f77b4; stroke: #1f77b4"/>
     <use xlink:href="#m093c4ab4dc" x="236.496747" y="51.892281" style="fill: #1f77b4; stroke: #1f77b4"/>
     <use xlink:href="#m093c4ab4dc" x="238.128177" y="52.187182" style="fill: #1f77b4; stroke: #1f77b4"/>
     <use xlink:href="#m093c4ab4dc" x="239.759607" y="53.984881" style="fill: #1f77b4; stroke: #1f77b4"/>
     <use xlink:href="#m093c4ab4dc" x="241.391037" y="53.512514" style="fill: #1f77b4; stroke: #1f77b4"/>
     <use xlink:href="#m093c4ab4dc" x="243.022466" y="52.66224" style="fill: #1f77b4; stroke: #1f77b4"/>
     <use xlink:href="#m093c4ab4dc" x="244.653896" y="53.301922" style="fill: #1f77b4; stroke: #1f77b4"/>
     <use xlink:href="#m093c4ab4dc" x="246.285326" y="53.454455" style="fill: #1f77b4; stroke: #1f77b4"/>
     <use xlink:href="#m093c4ab4dc" x="247.916756" y="51.894351" style="fill: #1f77b4; stroke: #1f77b4"/>
     <use xlink:href="#m093c4ab4dc" x="249.548186" y="51.942166" style="fill: #1f77b4; stroke: #1f77b4"/>
     <use xlink:href="#m093c4ab4dc" x="251.179616" y="51.417272" style="fill: #1f77b4; stroke: #1f77b4"/>
     <use xlink:href="#m093c4ab4dc" x="252.811046" y="51.747498" style="fill: #1f77b4; stroke: #1f77b4"/>
     <use xlink:href="#m093c4ab4dc" x="254.442476" y="51.675081" style="fill: #1f77b4; stroke: #1f77b4"/>
     <use xlink:href="#m093c4ab4dc" x="256.073905" y="51.48083" style="fill: #1f77b4; stroke: #1f77b4"/>
     <use xlink:href="#m093c4ab4dc" x="257.705335" y="51.090767" style="fill: #1f77b4; stroke: #1f77b4"/>
     <use xlink:href="#m093c4ab4dc" x="259.336765" y="52.992374" style="fill: #1f77b4; stroke: #1f77b4"/>
     <use xlink:href="#m093c4ab4dc" x="260.968195" y="50.109008" style="fill: #1f77b4; stroke: #1f77b4"/>
     <use xlink:href="#m093c4ab4dc" x="262.599625" y="52.182152" style="fill: #1f77b4; stroke: #1f77b4"/>
     <use xlink:href="#m093c4ab4dc" x="264.231055" y="52.210231" style="fill: #1f77b4; stroke: #1f77b4"/>
     <use xlink:href="#m093c4ab4dc" x="265.862485" y="52.558059" style="fill: #1f77b4; stroke: #1f77b4"/>
     <use xlink:href="#m093c4ab4dc" x="267.493915" y="53.589513" style="fill: #1f77b4; stroke: #1f77b4"/>
     <use xlink:href="#m093c4ab4dc" x="269.125344" y="54.286586" style="fill: #1f77b4; stroke: #1f77b4"/>
     <use xlink:href="#m093c4ab4dc" x="270.756774" y="51.257239" style="fill: #1f77b4; stroke: #1f77b4"/>
     <use xlink:href="#m093c4ab4dc" x="272.388204" y="52.611333" style="fill: #1f77b4; stroke: #1f77b4"/>
     <use xlink:href="#m093c4ab4dc" x="274.019634" y="52.919179" style="fill: #1f77b4; stroke: #1f77b4"/>
     <use xlink:href="#m093c4ab4dc" x="275.651064" y="53.02562" style="fill: #1f77b4; stroke: #1f77b4"/>
     <use xlink:href="#m093c4ab4dc" x="277.282494" y="50.485777" style="fill: #1f77b4; stroke: #1f77b4"/>
     <use xlink:href="#m093c4ab4dc" x="278.913924" y="50.687982" style="fill: #1f77b4; stroke: #1f77b4"/>
     <use xlink:href="#m093c4ab4dc" x="280.545354" y="49.529724" style="fill: #1f77b4; stroke: #1f77b4"/>
     <use xlink:href="#m093c4ab4dc" x="282.176783" y="51.930179" style="fill: #1f77b4; stroke: #1f77b4"/>
     <use xlink:href="#m093c4ab4dc" x="283.808213" y="50.900941" style="fill: #1f77b4; stroke: #1f77b4"/>
     <use xlink:href="#m093c4ab4dc" x="285.439643" y="49.74967" style="fill: #1f77b4; stroke: #1f77b4"/>
     <use xlink:href="#m093c4ab4dc" x="287.071073" y="51.927059" style="fill: #1f77b4; stroke: #1f77b4"/>
     <use xlink:href="#m093c4ab4dc" x="288.702503" y="52.625431" style="fill: #1f77b4; stroke: #1f77b4"/>
     <use xlink:href="#m093c4ab4dc" x="290.333933" y="49.137121" style="fill: #1f77b4; stroke: #1f77b4"/>
     <use xlink:href="#m093c4ab4dc" x="291.965363" y="51.988662" style="fill: #1f77b4; stroke: #1f77b4"/>
     <use xlink:href="#m093c4ab4dc" x="293.596793" y="51.184193" style="fill: #1f77b4; stroke: #1f77b4"/>
     <use xlink:href="#m093c4ab4dc" x="295.228223" y="50.707851" style="fill: #1f77b4; stroke: #1f77b4"/>
     <use xlink:href="#m093c4ab4dc" x="296.859652" y="48.685542" style="fill: #1f77b4; stroke: #1f77b4"/>
     <use xlink:href="#m093c4ab4dc" x="298.491082" y="51.681653" style="fill: #1f77b4; stroke: #1f77b4"/>
     <use xlink:href="#m093c4ab4dc" x="300.122512" y="51.520826" style="fill: #1f77b4; stroke: #1f77b4"/>
     <use xlink:href="#m093c4ab4dc" x="301.753942" y="49.534043" style="fill: #1f77b4; stroke: #1f77b4"/>
     <use xlink:href="#m093c4ab4dc" x="303.385372" y="49.443503" style="fill: #1f77b4; stroke: #1f77b4"/>
     <use xlink:href="#m093c4ab4dc" x="305.016802" y="50.276022" style="fill: #1f77b4; stroke: #1f77b4"/>
     <use xlink:href="#m093c4ab4dc" x="306.648232" y="51.272926" style="fill: #1f77b4; stroke: #1f77b4"/>
     <use xlink:href="#m093c4ab4dc" x="308.279662" y="50.229909" style="fill: #1f77b4; stroke: #1f77b4"/>
     <use xlink:href="#m093c4ab4dc" x="309.911091" y="48.72062" style="fill: #1f77b4; stroke: #1f77b4"/>
     <use xlink:href="#m093c4ab4dc" x="311.542521" y="50.786224" style="fill: #1f77b4; stroke: #1f77b4"/>
     <use xlink:href="#m093c4ab4dc" x="313.173951" y="50.302322" style="fill: #1f77b4; stroke: #1f77b4"/>
     <use xlink:href="#m093c4ab4dc" x="314.805381" y="50.91169" style="fill: #1f77b4; stroke: #1f77b4"/>
     <use xlink:href="#m093c4ab4dc" x="316.436811" y="50.219786" style="fill: #1f77b4; stroke: #1f77b4"/>
     <use xlink:href="#m093c4ab4dc" x="318.068241" y="48.50581" style="fill: #1f77b4; stroke: #1f77b4"/>
     <use xlink:href="#m093c4ab4dc" x="319.699671" y="49.40049" style="fill: #1f77b4; stroke: #1f77b4"/>
     <use xlink:href="#m093c4ab4dc" x="321.331101" y="48.497136" style="fill: #1f77b4; stroke: #1f77b4"/>
     <use xlink:href="#m093c4ab4dc" x="322.96253" y="48.309407" style="fill: #1f77b4; stroke: #1f77b4"/>
     <use xlink:href="#m093c4ab4dc" x="324.59396" y="48.838063" style="fill: #1f77b4; stroke: #1f77b4"/>
     <use xlink:href="#m093c4ab4dc" x="326.22539" y="49.604029" style="fill: #1f77b4; stroke: #1f77b4"/>
     <use xlink:href="#m093c4ab4dc" x="327.85682" y="49.898072" style="fill: #1f77b4; stroke: #1f77b4"/>
     <use xlink:href="#m093c4ab4dc" x="329.48825" y="49.28528" style="fill: #1f77b4; stroke: #1f77b4"/>
     <use xlink:href="#m093c4ab4dc" x="331.11968" y="48.524953" style="fill: #1f77b4; stroke: #1f77b4"/>
     <use xlink:href="#m093c4ab4dc" x="332.75111" y="47.42209" style="fill: #1f77b4; stroke: #1f77b4"/>
     <use xlink:href="#m093c4ab4dc" x="334.38254" y="50.347606" style="fill: #1f77b4; stroke: #1f77b4"/>
     <use xlink:href="#m093c4ab4dc" x="336.013969" y="48.643917" style="fill: #1f77b4; stroke: #1f77b4"/>
     <use xlink:href="#m093c4ab4dc" x="337.645399" y="49.52966" style="fill: #1f77b4; stroke: #1f77b4"/>
     <use xlink:href="#m093c4ab4dc" x="339.276829" y="48.098973" style="fill: #1f77b4; stroke: #1f77b4"/>
     <use xlink:href="#m093c4ab4dc" x="340.908259" y="49.72895" style="fill: #1f77b4; stroke: #1f77b4"/>
     <use xlink:href="#m093c4ab4dc" x="342.539689" y="49.278348" style="fill: #1f77b4; stroke: #1f77b4"/>
     <use xlink:href="#m093c4ab4dc" x="344.171119" y="50.741772" style="fill: #1f77b4; stroke: #1f77b4"/>
     <use xlink:href="#m093c4ab4dc" x="345.802549" y="49.778807" style="fill: #1f77b4; stroke: #1f77b4"/>
     <use xlink:href="#m093c4ab4dc" x="347.433979" y="48.715204" style="fill: #1f77b4; stroke: #1f77b4"/>
     <use xlink:href="#m093c4ab4dc" x="349.065408" y="48.695689" style="fill: #1f77b4; stroke: #1f77b4"/>
     <use xlink:href="#m093c4ab4dc" x="350.696838" y="48.942448" style="fill: #1f77b4; stroke: #1f77b4"/>
     <use xlink:href="#m093c4ab4dc" x="352.328268" y="48.674323" style="fill: #1f77b4; stroke: #1f77b4"/>
     <use xlink:href="#m093c4ab4dc" x="353.959698" y="48.674655" style="fill: #1f77b4; stroke: #1f77b4"/>
     <use xlink:href="#m093c4ab4dc" x="355.591128" y="49.364233" style="fill: #1f77b4; stroke: #1f77b4"/>
     <use xlink:href="#m093c4ab4dc" x="357.222558" y="49.53612" style="fill: #1f77b4; stroke: #1f77b4"/>
     <use xlink:href="#m093c4ab4dc" x="358.853988" y="48.82485" style="fill: #1f77b4; stroke: #1f77b4"/>
     <use xlink:href="#m093c4ab4dc" x="360.485418" y="49.684475" style="fill: #1f77b4; stroke: #1f77b4"/>
     <use xlink:href="#m093c4ab4dc" x="362.116847" y="49.147584" style="fill: #1f77b4; stroke: #1f77b4"/>
     <use xlink:href="#m093c4ab4dc" x="363.748277" y="48.864659" style="fill: #1f77b4; stroke: #1f77b4"/>
     <use xlink:href="#m093c4ab4dc" x="365.379707" y="49.077372" style="fill: #1f77b4; stroke: #1f77b4"/>
     <use xlink:href="#m093c4ab4dc" x="367.011137" y="48.250406" style="fill: #1f77b4; stroke: #1f77b4"/>
     <use xlink:href="#m093c4ab4dc" x="368.642567" y="47.848739" style="fill: #1f77b4; stroke: #1f77b4"/>
     <use xlink:href="#m093c4ab4dc" x="370.273997" y="47.769077" style="fill: #1f77b4; stroke: #1f77b4"/>
     <use xlink:href="#m093c4ab4dc" x="371.905427" y="49.842779" style="fill: #1f77b4; stroke: #1f77b4"/>
     <use xlink:href="#m093c4ab4dc" x="373.536857" y="48.041965" style="fill: #1f77b4; stroke: #1f77b4"/>
     <use xlink:href="#m093c4ab4dc" x="375.168286" y="48.286346" style="fill: #1f77b4; stroke: #1f77b4"/>
     <use xlink:href="#m093c4ab4dc" x="376.799716" y="49.690495" style="fill: #1f77b4; stroke: #1f77b4"/>
     <use xlink:href="#m093c4ab4dc" x="378.431146" y="47.258182" style="fill: #1f77b4; stroke: #1f77b4"/>
     <use xlink:href="#m093c4ab4dc" x="380.062576" y="49.830849" style="fill: #1f77b4; stroke: #1f77b4"/>
     <use xlink:href="#m093c4ab4dc" x="381.694006" y="47.661568" style="fill: #1f77b4; stroke: #1f77b4"/>
     <use xlink:href="#m093c4ab4dc" x="383.325436" y="50.353742" style="fill: #1f77b4; stroke: #1f77b4"/>
     <use xlink:href="#m093c4ab4dc" x="384.956866" y="49.271123" style="fill: #1f77b4; stroke: #1f77b4"/>
     <use xlink:href="#m093c4ab4dc" x="386.588296" y="49.482068" style="fill: #1f77b4; stroke: #1f77b4"/>
     <use xlink:href="#m093c4ab4dc" x="388.219725" y="49.173759" style="fill: #1f77b4; stroke: #1f77b4"/>
     <use xlink:href="#m093c4ab4dc" x="389.851155" y="48.963426" style="fill: #1f77b4; stroke: #1f77b4"/>
     <use xlink:href="#m093c4ab4dc" x="391.482585" y="49.08798" style="fill: #1f77b4; stroke: #1f77b4"/>
    </g>
   </g>
   <g id="line2d_12">
    <path d="M 66.82804 62.967386 
L 178.620996 62.839189 
L 285.86424 62.493669 
L 391.482585 61.937917 
L 391.482585 61.937917 
" clip-path="url(#paf5e225735)" style="fill: none; stroke: #d62728; stroke-width: 1.5; stroke-linecap: square"/>
   </g>
   <g id="patch_3">
    <path d="M 50.595313 162.72 
L 50.595313 41.76 
" style="fill: none; stroke: #000000; stroke-width: 0.8; stroke-linejoin: miter; stroke-linecap: square"/>
   </g>
   <g id="patch_4">
    <path d="M 407.715312 162.72 
L 407.715312 41.76 
" style="fill: none; stroke: #000000; stroke-width: 0.8; stroke-linejoin: miter; stroke-linecap: square"/>
   </g>
   <g id="patch_5">
    <path d="M 50.595312 162.72 
L 407.715312 162.72 
" style="fill: none; stroke: #000000; stroke-width: 0.8; stroke-linejoin: miter; stroke-linecap: square"/>
   </g>
   <g id="patch_6">
    <path d="M 50.595312 41.76 
L 407.715312 41.76 
" style="fill: none; stroke: #000000; stroke-width: 0.8; stroke-linejoin: miter; stroke-linecap: square"/>
   </g>
   <g id="text_6">
    <g id="patch_7">
     <path d="M 425.571312 95.079562 
L 520.771313 95.079562 
Q 524.771313 95.079562 524.771313 91.079562 
L 524.771313 47.808 
Q 524.771313 43.808 520.771313 43.808 
L 425.571312 43.808 
Q 421.571312 43.808 421.571312 47.808 
L 421.571312 91.079562 
Q 421.571312 95.079562 425.571312 95.079562 
z
" style="fill: #ffffff; opacity: 0.5; stroke: #000000; stroke-linejoin: miter"/>
    </g>
    <!-- Summary -->
    <g transform="translate(425.571312 55.406437) scale(0.1 -0.1)">
     <defs>
      <path id="DejaVuSans-53" d="M 3425 4513 
L 3425 3897 
Q 3066 4069 2747 4153 
Q 2428 4238 2131 4238 
Q 1616 4238 1336 4038 
Q 1056 3838 1056 3469 
Q 1056 3159 1242 3001 
Q 1428 2844 1947 2747 
L 2328 2669 
Q 3034 2534 3370 2195 
Q 3706 1856 3706 1288 
Q 3706 609 3251 259 
Q 2797 -91 1919 -91 
Q 1588 -91 1214 -16 
Q 841 59 441 206 
L 441 856 
Q 825 641 1194 531 
Q 1563 422 1919 422 
Q 2459 422 2753 634 
Q 3047 847 3047 1241 
Q 3047 1584 2836 1778 
Q 2625 1972 2144 2069 
L 1759 2144 
Q 1053 2284 737 2584 
Q 422 2884 422 3419 
Q 422 4038 858 4394 
Q 1294 4750 2059 4750 
Q 2388 4750 2728 4690 
Q 3069 4631 3425 4513 
z
" transform="scale(0.015625)"/>
      <path id="DejaVuSans-75" d="M 544 1381 
L 544 3500 
L 1119 3500 
L 1119 1403 
Q 1119 906 1312 657 
Q 1506 409 1894 409 
Q 2359 409 2629 706 
Q 2900 1003 2900 1516 
L 2900 3500 
L 3475 3500 
L 3475 0 
L 2900 0 
L 2900 538 
Q 2691 219 2414 64 
Q 2138 -91 1772 -91 
Q 1169 -91 856 284 
Q 544 659 544 1381 
z
M 1991 3584 
L 1991 3584 
z
" transform="scale(0.015625)"/>
      <path id="DejaVuSans-61" d="M 2194 1759 
Q 1497 1759 1228 1600 
Q 959 1441 959 1056 
Q 959 750 1161 570 
Q 1363 391 1709 391 
Q 2188 391 2477 730 
Q 2766 1069 2766 1631 
L 2766 1759 
L 2194 1759 
z
M 3341 1997 
L 3341 0 
L 2766 0 
L 2766 531 
Q 2569 213 2275 61 
Q 1981 -91 1556 -91 
Q 1019 -91 701 211 
Q 384 513 384 1019 
Q 384 1609 779 1909 
Q 1175 2209 1959 2209 
L 2766 2209 
L 2766 2266 
Q 2766 2663 2505 2880 
Q 2244 3097 1772 3097 
Q 1472 3097 1187 3025 
Q 903 2953 641 2809 
L 641 3341 
Q 956 3463 1253 3523 
Q 1550 3584 1831 3584 
Q 2591 3584 2966 3190 
Q 3341 2797 3341 1997 
z
" transform="scale(0.015625)"/>
      <path id="DejaVuSans-72" d="M 2631 2963 
Q 2534 3019 2420 3045 
Q 2306 3072 2169 3072 
Q 1681 3072 1420 2755 
Q 1159 2438 1159 1844 
L 1159 0 
L 581 0 
L 581 3500 
L 1159 3500 
L 1159 2956 
Q 1341 3275 1631 3429 
Q 1922 3584 2338 3584 
Q 2397 3584 2469 3576 
Q 2541 3569 2628 3553 
L 2631 2963 
z
" transform="scale(0.015625)"/>
      <path id="DejaVuSans-79" d="M 2059 -325 
Q 1816 -950 1584 -1140 
Q 1353 -1331 966 -1331 
L 506 -1331 
L 506 -850 
L 844 -850 
Q 1081 -850 1212 -737 
Q 1344 -625 1503 -206 
L 1606 56 
L 191 3500 
L 800 3500 
L 1894 763 
L 2988 3500 
L 3597 3500 
L 2059 -325 
z
" transform="scale(0.015625)"/>
     </defs>
     <use xlink:href="#DejaVuSans-53"/>
     <use xlink:href="#DejaVuSans-75" x="63.476562"/>
     <use xlink:href="#DejaVuSans-6d" x="126.855469"/>
     <use xlink:href="#DejaVuSans-6d" x="224.267578"/>
     <use xlink:href="#DejaVuSans-61" x="321.679688"/>
     <use xlink:href="#DejaVuSans-72" x="382.958984"/>
     <use xlink:href="#DejaVuSans-79" x="424.072266"/>
    </g>
    <!-- $Q_I$: 93.$\pm$1.9e+04  -->
    <g transform="translate(425.571312 66.60425) scale(0.1 -0.1)">
     <defs>
      <path id="DejaVuSans-Oblique-51" d="M 2309 -84 
Q 2275 -88 2237 -89 
Q 2200 -91 2125 -91 
Q 1250 -91 756 411 
Q 263 913 263 1797 
Q 263 2319 452 2844 
Q 641 3369 978 3788 
Q 1369 4269 1858 4509 
Q 2347 4750 2938 4750 
Q 3794 4750 4287 4245 
Q 4781 3741 4781 2869 
Q 4781 1928 4265 1147 
Q 3750 366 2919 44 
L 3553 -825 
L 2847 -825 
L 2309 -84 
z
M 2919 4238 
Q 2400 4238 2003 3986 
Q 1606 3734 1313 3219 
Q 1125 2891 1026 2522 
Q 928 2153 928 1778 
Q 928 1128 1239 775 
Q 1550 422 2119 422 
Q 2631 422 3032 676 
Q 3434 931 3719 1434 
Q 3909 1772 4009 2142 
Q 4109 2513 4109 2881 
Q 4109 3528 3796 3883 
Q 3484 4238 2919 4238 
z
" transform="scale(0.015625)"/>
      <path id="DejaVuSans-Oblique-49" d="M 1081 4666 
L 1716 4666 
L 806 0 
L 172 0 
L 1081 4666 
z
" transform="scale(0.015625)"/>
      <path id="DejaVuSans-3a" d="M 750 794 
L 1409 794 
L 1409 0 
L 750 0 
L 750 794 
z
M 750 3309 
L 1409 3309 
L 1409 2516 
L 750 2516 
L 750 3309 
z
" transform="scale(0.015625)"/>
      <path id="DejaVuSans-39" d="M 703 97 
L 703 672 
Q 941 559 1184 500 
Q 1428 441 1663 441 
Q 2288 441 2617 861 
Q 2947 1281 2994 2138 
Q 2813 1869 2534 1725 
Q 2256 1581 1919 1581 
Q 1219 1581 811 2004 
Q 403 2428 403 3163 
Q 403 3881 828 4315 
Q 1253 4750 1959 4750 
Q 2769 4750 3195 4129 
Q 3622 3509 3622 2328 
Q 3622 1225 3098 567 
Q 2575 -91 1691 -91 
Q 1453 -91 1209 -44 
Q 966 3 703 97 
z
M 1959 2075 
Q 2384 2075 2632 2365 
Q 2881 2656 2881 3163 
Q 2881 3666 2632 3958 
Q 2384 4250 1959 4250 
Q 1534 4250 1286 3958 
Q 1038 3666 1038 3163 
Q 1038 2656 1286 2365 
Q 1534 2075 1959 2075 
z
" transform="scale(0.015625)"/>
      <path id="DejaVuSans-33" d="M 2597 2516 
Q 3050 2419 3304 2112 
Q 3559 1806 3559 1356 
Q 3559 666 3084 287 
Q 2609 -91 1734 -91 
Q 1441 -91 1130 -33 
Q 819 25 488 141 
L 488 750 
Q 750 597 1062 519 
Q 1375 441 1716 441 
Q 2309 441 2620 675 
Q 2931 909 2931 1356 
Q 2931 1769 2642 2001 
Q 2353 2234 1838 2234 
L 1294 2234 
L 1294 2753 
L 1863 2753 
Q 2328 2753 2575 2939 
Q 2822 3125 2822 3475 
Q 2822 3834 2567 4026 
Q 2313 4219 1838 4219 
Q 1578 4219 1281 4162 
Q 984 4106 628 3988 
L 628 4550 
Q 988 4650 1302 4700 
Q 1616 4750 1894 4750 
Q 2613 4750 3031 4423 
Q 3450 4097 3450 3541 
Q 3450 3153 3228 2886 
Q 3006 2619 2597 2516 
z
" transform="scale(0.015625)"/>
      <path id="DejaVuSans-2e" d="M 684 794 
L 1344 794 
L 1344 0 
L 684 0 
L 684 794 
z
" transform="scale(0.015625)"/>
      <path id="DejaVuSans-b1" d="M 2944 4013 
L 2944 2803 
L 4684 2803 
L 4684 2272 
L 2944 2272 
L 2944 1063 
L 2419 1063 
L 2419 2272 
L 678 2272 
L 678 2803 
L 2419 2803 
L 2419 4013 
L 2944 4013 
z
M 678 531 
L 4684 531 
L 4684 0 
L 678 0 
L 678 531 
z
" transform="scale(0.015625)"/>
      <path id="DejaVuSans-65" d="M 3597 1894 
L 3597 1613 
L 953 1613 
Q 991 1019 1311 708 
Q 1631 397 2203 397 
Q 2534 397 2845 478 
Q 3156 559 3463 722 
L 3463 178 
Q 3153 47 2828 -22 
Q 2503 -91 2169 -91 
Q 1331 -91 842 396 
Q 353 884 353 1716 
Q 353 2575 817 3079 
Q 1281 3584 2069 3584 
Q 2775 3584 3186 3129 
Q 3597 2675 3597 1894 
z
M 3022 2063 
Q 3016 2534 2758 2815 
Q 2500 3097 2075 3097 
Q 1594 3097 1305 2825 
Q 1016 2553 972 2059 
L 3022 2063 
z
" transform="scale(0.015625)"/>
      <path id="DejaVuSans-2b" d="M 2944 4013 
L 2944 2272 
L 4684 2272 
L 4684 1741 
L 2944 1741 
L 2944 0 
L 2419 0 
L 2419 1741 
L 678 1741 
L 678 2272 
L 2419 2272 
L 2419 4013 
L 2944 4013 
z
" transform="scale(0.015625)"/>
     </defs>
     <use xlink:href="#DejaVuSans-Oblique-51" transform="translate(0 0.78125)"/>
     <use xlink:href="#DejaVuSans-Oblique-49" transform="translate(78.710938 -15.625) scale(0.7)"/>
     <use xlink:href="#DejaVuSans-3a" transform="translate(102.089844 0.78125)"/>
     <use xlink:href="#DejaVuSans-20" transform="translate(135.78125 0.78125)"/>
     <use xlink:href="#DejaVuSans-39" transform="translate(167.568359 0.78125)"/>
     <use xlink:href="#DejaVuSans-33" transform="translate(231.191406 0.78125)"/>
     <use xlink:href="#DejaVuSans-2e" transform="translate(294.814453 0.78125)"/>
     <use xlink:href="#DejaVuSans-b1" transform="translate(326.601562 0.78125)"/>
     <use xlink:href="#DejaVuSans-31" transform="translate(410.390625 0.78125)"/>
     <use xlink:href="#DejaVuSans-2e" transform="translate(474.013672 0.78125)"/>
     <use xlink:href="#DejaVuSans-39" transform="translate(505.800781 0.78125)"/>
     <use xlink:href="#DejaVuSans-65" transform="translate(569.423828 0.78125)"/>
     <use xlink:href="#DejaVuSans-2b" transform="translate(630.947266 0.78125)"/>
     <use xlink:href="#DejaVuSans-30" transform="translate(714.736328 0.78125)"/>
     <use xlink:href="#DejaVuSans-34" transform="translate(778.359375 0.78125)"/>
     <use xlink:href="#DejaVuSans-20" transform="translate(841.982422 0.78125)"/>
    </g>
    <!-- $Q_C$: 1.2$\pm$8.8e+02 k -->
    <g transform="translate(425.571312 77.802062) scale(0.1 -0.1)">
     <defs>
      <path id="DejaVuSans-Oblique-43" d="M 4447 4306 
L 4319 3641 
Q 4019 3944 3683 4091 
Q 3347 4238 2956 4238 
Q 2422 4238 2017 3981 
Q 1613 3725 1319 3200 
Q 1131 2863 1032 2486 
Q 934 2109 934 1728 
Q 934 1091 1264 756 
Q 1594 422 2222 422 
Q 2656 422 3056 561 
Q 3456 700 3834 978 
L 3688 231 
Q 3316 72 2936 -9 
Q 2556 -91 2175 -91 
Q 1278 -91 773 396 
Q 269 884 269 1753 
Q 269 2309 461 2846 
Q 653 3384 1013 3828 
Q 1394 4300 1883 4525 
Q 2372 4750 3022 4750 
Q 3422 4750 3780 4639 
Q 4138 4528 4447 4306 
z
" transform="scale(0.015625)"/>
      <path id="DejaVuSans-6b" d="M 581 4863 
L 1159 4863 
L 1159 1991 
L 2875 3500 
L 3609 3500 
L 1753 1863 
L 3688 0 
L 2938 0 
L 1159 1709 
L 1159 0 
L 581 0 
L 581 4863 
z
" transform="scale(0.015625)"/>
     </defs>
     <use xlink:href="#DejaVuSans-Oblique-51" transform="translate(0 0.015625)"/>
     <use xlink:href="#DejaVuSans-Oblique-43" transform="translate(78.710938 -16.390625) scale(0.7)"/>
     <use xlink:href="#DejaVuSans-3a" transform="translate(130.322266 0.015625)"/>
     <use xlink:href="#DejaVuSans-20" transform="translate(164.013672 0.015625)"/>
     <use xlink:href="#DejaVuSans-31" transform="translate(195.800781 0.015625)"/>
     <use xlink:href="#DejaVuSans-2e" transform="translate(259.423828 0.015625)"/>
     <use xlink:href="#DejaVuSans-32" transform="translate(285.710938 0.015625)"/>
     <use xlink:href="#DejaVuSans-b1" transform="translate(349.333984 0.015625)"/>
     <use xlink:href="#DejaVuSans-38" transform="translate(433.123047 0.015625)"/>
     <use xlink:href="#DejaVuSans-2e" transform="translate(496.746094 0.015625)"/>
     <use xlink:href="#DejaVuSans-38" transform="translate(525.908203 0.015625)"/>
     <use xlink:href="#DejaVuSans-65" transform="translate(589.53125 0.015625)"/>
     <use xlink:href="#DejaVuSans-2b" transform="translate(651.054688 0.015625)"/>
     <use xlink:href="#DejaVuSans-30" transform="translate(734.84375 0.015625)"/>
     <use xlink:href="#DejaVuSans-32" transform="translate(798.466797 0.015625)"/>
     <use xlink:href="#DejaVuSans-20" transform="translate(862.089844 0.015625)"/>
     <use xlink:href="#DejaVuSans-6b" transform="translate(893.876953 0.015625)"/>
    </g>
    <!-- $f_{res}$: 6.0$\pm$2.1 GHz -->
    <g transform="translate(425.571312 88.999875) scale(0.1 -0.1)">
     <defs>
      <path id="DejaVuSans-Oblique-66" d="M 3059 4863 
L 2969 4384 
L 2419 4384 
Q 2106 4384 1964 4261 
Q 1822 4138 1753 3809 
L 1691 3500 
L 2638 3500 
L 2553 3053 
L 1606 3053 
L 1013 0 
L 434 0 
L 1031 3053 
L 481 3053 
L 563 3500 
L 1113 3500 
L 1159 3744 
Q 1278 4363 1576 4613 
Q 1875 4863 2516 4863 
L 3059 4863 
z
" transform="scale(0.015625)"/>
      <path id="DejaVuSans-Oblique-72" d="M 2853 2969 
Q 2766 3016 2653 3041 
Q 2541 3066 2413 3066 
Q 1953 3066 1609 2717 
Q 1266 2369 1153 1784 
L 800 0 
L 225 0 
L 909 3500 
L 1484 3500 
L 1375 2956 
Q 1603 3259 1920 3421 
Q 2238 3584 2597 3584 
Q 2691 3584 2781 3573 
Q 2872 3563 2963 3538 
L 2853 2969 
z
" transform="scale(0.015625)"/>
      <path id="DejaVuSans-Oblique-65" d="M 3078 2063 
Q 3088 2113 3092 2166 
Q 3097 2219 3097 2272 
Q 3097 2653 2873 2875 
Q 2650 3097 2266 3097 
Q 1838 3097 1509 2826 
Q 1181 2556 1013 2059 
L 3078 2063 
z
M 3578 1613 
L 903 1613 
Q 884 1494 878 1425 
Q 872 1356 872 1306 
Q 872 872 1139 634 
Q 1406 397 1894 397 
Q 2269 397 2603 481 
Q 2938 566 3225 728 
L 3116 159 
Q 2806 34 2476 -28 
Q 2147 -91 1806 -91 
Q 1078 -91 686 257 
Q 294 606 294 1247 
Q 294 1794 489 2264 
Q 684 2734 1063 3103 
Q 1306 3334 1642 3459 
Q 1978 3584 2356 3584 
Q 2950 3584 3301 3228 
Q 3653 2872 3653 2272 
Q 3653 2128 3634 1964 
Q 3616 1800 3578 1613 
z
" transform="scale(0.015625)"/>
      <path id="DejaVuSans-Oblique-73" d="M 3200 3397 
L 3091 2853 
Q 2863 2978 2609 3040 
Q 2356 3103 2088 3103 
Q 1634 3103 1373 2948 
Q 1113 2794 1113 2528 
Q 1113 2219 1719 2053 
Q 1766 2041 1788 2034 
L 1972 1978 
Q 2547 1819 2739 1644 
Q 2931 1469 2931 1166 
Q 2931 609 2489 259 
Q 2047 -91 1331 -91 
Q 1053 -91 747 -37 
Q 441 16 72 128 
L 184 722 
Q 500 559 806 475 
Q 1113 391 1394 391 
Q 1816 391 2080 572 
Q 2344 753 2344 1031 
Q 2344 1331 1650 1516 
L 1591 1531 
L 1394 1581 
Q 956 1697 753 1886 
Q 550 2075 550 2369 
Q 550 2928 970 3256 
Q 1391 3584 2113 3584 
Q 2397 3584 2667 3537 
Q 2938 3491 3200 3397 
z
" transform="scale(0.015625)"/>
      <path id="DejaVuSans-47" d="M 3809 666 
L 3809 1919 
L 2778 1919 
L 2778 2438 
L 4434 2438 
L 4434 434 
Q 4069 175 3628 42 
Q 3188 -91 2688 -91 
Q 1594 -91 976 548 
Q 359 1188 359 2328 
Q 359 3472 976 4111 
Q 1594 4750 2688 4750 
Q 3144 4750 3555 4637 
Q 3966 4525 4313 4306 
L 4313 3634 
Q 3963 3931 3569 4081 
Q 3175 4231 2741 4231 
Q 1884 4231 1454 3753 
Q 1025 3275 1025 2328 
Q 1025 1384 1454 906 
Q 1884 428 2741 428 
Q 3075 428 3337 486 
Q 3600 544 3809 666 
z
" transform="scale(0.015625)"/>
      <path id="DejaVuSans-48" d="M 628 4666 
L 1259 4666 
L 1259 2753 
L 3553 2753 
L 3553 4666 
L 4184 4666 
L 4184 0 
L 3553 0 
L 3553 2222 
L 1259 2222 
L 1259 0 
L 628 0 
L 628 4666 
z
" transform="scale(0.015625)"/>
      <path id="DejaVuSans-7a" d="M 353 3500 
L 3084 3500 
L 3084 2975 
L 922 459 
L 3084 459 
L 3084 0 
L 275 0 
L 275 525 
L 2438 3041 
L 353 3041 
L 353 3500 
z
" transform="scale(0.015625)"/>
     </defs>
     <use xlink:href="#DejaVuSans-Oblique-66" transform="translate(0 0.015625)"/>
     <use xlink:href="#DejaVuSans-Oblique-72" transform="translate(35.205078 -16.390625) scale(0.7)"/>
     <use xlink:href="#DejaVuSans-Oblique-65" transform="translate(63.984375 -16.390625) scale(0.7)"/>
     <use xlink:href="#DejaVuSans-Oblique-73" transform="translate(107.050781 -16.390625) scale(0.7)"/>
     <use xlink:href="#DejaVuSans-3a" transform="translate(146.254883 0.015625)"/>
     <use xlink:href="#DejaVuSans-20" transform="translate(179.946289 0.015625)"/>
     <use xlink:href="#DejaVuSans-36" transform="translate(211.733398 0.015625)"/>
     <use xlink:href="#DejaVuSans-2e" transform="translate(275.356445 0.015625)"/>
     <use xlink:href="#DejaVuSans-30" transform="translate(307.143555 0.015625)"/>
     <use xlink:href="#DejaVuSans-b1" transform="translate(370.766602 0.015625)"/>
     <use xlink:href="#DejaVuSans-32" transform="translate(454.555664 0.015625)"/>
     <use xlink:href="#DejaVuSans-2e" transform="translate(518.178711 0.015625)"/>
     <use xlink:href="#DejaVuSans-31" transform="translate(549.96582 0.015625)"/>
     <use xlink:href="#DejaVuSans-20" transform="translate(613.588867 0.015625)"/>
     <use xlink:href="#DejaVuSans-47" transform="translate(645.375977 0.015625)"/>
     <use xlink:href="#DejaVuSans-48" transform="translate(722.866211 0.015625)"/>
     <use xlink:href="#DejaVuSans-7a" transform="translate(798.061523 0.015625)"/>
    </g>
   </g>
  </g>
  <g id="axes_2">
   <g id="patch_8">
    <path d="M 50.595313 307.872 
L 407.715312 307.872 
L 407.715312 186.912 
L 50.595313 186.912 
z
" style="fill: #ffffff"/>
   </g>
   <g id="matplotlib.axis_3">
    <g id="xtick_7">
     <g id="line2d_13">
      <g>
       <use xlink:href="#m3bdfab05e3" x="50.595312" y="307.872" style="stroke: #000000; stroke-width: 0.8"/>
      </g>
     </g>
     <g id="text_7">
      <!-- 8 -->
      <g transform="translate(47.414062 322.470438) scale(0.1 -0.1)">
       <use xlink:href="#DejaVuSans-38"/>
      </g>
     </g>
    </g>
    <g id="xtick_8">
     <g id="line2d_14">
      <g>
       <use xlink:href="#m3bdfab05e3" x="115.526222" y="307.872" style="stroke: #000000; stroke-width: 0.8"/>
      </g>
     </g>
     <g id="text_8">
      <!-- 10 -->
      <g transform="translate(109.163722 322.470438) scale(0.1 -0.1)">
       <use xlink:href="#DejaVuSans-31"/>
       <use xlink:href="#DejaVuSans-30" x="63.623047"/>
      </g>
     </g>
    </g>
    <g id="xtick_9">
     <g id="line2d_15">
      <g>
       <use xlink:href="#m3bdfab05e3" x="180.457131" y="307.872" style="stroke: #000000; stroke-width: 0.8"/>
      </g>
     </g>
     <g id="text_9">
      <!-- 12 -->
      <g transform="translate(174.094631 322.470438) scale(0.1 -0.1)">
       <use xlink:href="#DejaVuSans-31"/>
       <use xlink:href="#DejaVuSans-32" x="63.623047"/>
      </g>
     </g>
    </g>
    <g id="xtick_10">
     <g id="line2d_16">
      <g>
       <use xlink:href="#m3bdfab05e3" x="245.38804" y="307.872" style="stroke: #000000; stroke-width: 0.8"/>
      </g>
     </g>
     <g id="text_10">
      <!-- 14 -->
      <g transform="translate(239.02554 322.470438) scale(0.1 -0.1)">
       <use xlink:href="#DejaVuSans-31"/>
       <use xlink:href="#DejaVuSans-34" x="63.623047"/>
      </g>
     </g>
    </g>
    <g id="xtick_11">
     <g id="line2d_17">
      <g>
       <use xlink:href="#m3bdfab05e3" x="310.318949" y="307.872" style="stroke: #000000; stroke-width: 0.8"/>
      </g>
     </g>
     <g id="text_11">
      <!-- 16 -->
      <g transform="translate(303.956449 322.470438) scale(0.1 -0.1)">
       <use xlink:href="#DejaVuSans-31"/>
       <use xlink:href="#DejaVuSans-36" x="63.623047"/>
      </g>
     </g>
    </g>
    <g id="xtick_12">
     <g id="line2d_18">
      <g>
       <use xlink:href="#m3bdfab05e3" x="375.249858" y="307.872" style="stroke: #000000; stroke-width: 0.8"/>
      </g>
     </g>
     <g id="text_12">
      <!-- 18 -->
      <g transform="translate(368.887358 322.470438) scale(0.1 -0.1)">
       <use xlink:href="#DejaVuSans-31"/>
       <use xlink:href="#DejaVuSans-38" x="63.623047"/>
      </g>
     </g>
    </g>
    <g id="text_13">
     <!-- Frequency [MHz] -->
     <g transform="translate(187.136562 336.148562) scale(0.1 -0.1)">
      <defs>
       <path id="DejaVuSans-46" d="M 628 4666 
L 3309 4666 
L 3309 4134 
L 1259 4134 
L 1259 2759 
L 3109 2759 
L 3109 2228 
L 1259 2228 
L 1259 0 
L 628 0 
L 628 4666 
z
" transform="scale(0.015625)"/>
       <path id="DejaVuSans-71" d="M 947 1747 
Q 947 1113 1208 752 
Q 1469 391 1925 391 
Q 2381 391 2643 752 
Q 2906 1113 2906 1747 
Q 2906 2381 2643 2742 
Q 2381 3103 1925 3103 
Q 1469 3103 1208 2742 
Q 947 2381 947 1747 
z
M 2906 525 
Q 2725 213 2448 61 
Q 2172 -91 1784 -91 
Q 1150 -91 751 415 
Q 353 922 353 1747 
Q 353 2572 751 3078 
Q 1150 3584 1784 3584 
Q 2172 3584 2448 3432 
Q 2725 3281 2906 2969 
L 2906 3500 
L 3481 3500 
L 3481 -1331 
L 2906 -1331 
L 2906 525 
z
" transform="scale(0.015625)"/>
       <path id="DejaVuSans-6e" d="M 3513 2113 
L 3513 0 
L 2938 0 
L 2938 2094 
Q 2938 2591 2744 2837 
Q 2550 3084 2163 3084 
Q 1697 3084 1428 2787 
Q 1159 2491 1159 1978 
L 1159 0 
L 581 0 
L 581 3500 
L 1159 3500 
L 1159 2956 
Q 1366 3272 1645 3428 
Q 1925 3584 2291 3584 
Q 2894 3584 3203 3211 
Q 3513 2838 3513 2113 
z
" transform="scale(0.015625)"/>
       <path id="DejaVuSans-63" d="M 3122 3366 
L 3122 2828 
Q 2878 2963 2633 3030 
Q 2388 3097 2138 3097 
Q 1578 3097 1268 2742 
Q 959 2388 959 1747 
Q 959 1106 1268 751 
Q 1578 397 2138 397 
Q 2388 397 2633 464 
Q 2878 531 3122 666 
L 3122 134 
Q 2881 22 2623 -34 
Q 2366 -91 2075 -91 
Q 1284 -91 818 406 
Q 353 903 353 1747 
Q 353 2603 823 3093 
Q 1294 3584 2113 3584 
Q 2378 3584 2631 3529 
Q 2884 3475 3122 3366 
z
" transform="scale(0.015625)"/>
       <path id="DejaVuSans-4d" d="M 628 4666 
L 1569 4666 
L 2759 1491 
L 3956 4666 
L 4897 4666 
L 4897 0 
L 4281 0 
L 4281 4097 
L 3078 897 
L 2444 897 
L 1241 4097 
L 1241 0 
L 628 0 
L 628 4666 
z
" transform="scale(0.015625)"/>
      </defs>
      <use xlink:href="#DejaVuSans-46"/>
      <use xlink:href="#DejaVuSans-72" x="50.269531"/>
      <use xlink:href="#DejaVuSans-65" x="89.132812"/>
      <use xlink:href="#DejaVuSans-71" x="150.65625"/>
      <use xlink:href="#DejaVuSans-75" x="214.132812"/>
      <use xlink:href="#DejaVuSans-65" x="277.511719"/>
      <use xlink:href="#DejaVuSans-6e" x="339.035156"/>
      <use xlink:href="#DejaVuSans-63" x="402.414062"/>
      <use xlink:href="#DejaVuSans-79" x="457.394531"/>
      <use xlink:href="#DejaVuSans-20" x="516.574219"/>
      <use xlink:href="#DejaVuSans-5b" x="548.361328"/>
      <use xlink:href="#DejaVuSans-4d" x="587.375"/>
      <use xlink:href="#DejaVuSans-48" x="673.654297"/>
      <use xlink:href="#DejaVuSans-7a" x="748.849609"/>
      <use xlink:href="#DejaVuSans-5d" x="801.339844"/>
     </g>
    </g>
    <g id="text_14">
     <!-- +6 GHz -->
     <g transform="translate(369.277812 335.148562) scale(0.1 -0.1)">
      <use xlink:href="#DejaVuSans-2b"/>
      <use xlink:href="#DejaVuSans-36" x="83.789062"/>
      <use xlink:href="#DejaVuSans-20" x="147.412109"/>
      <use xlink:href="#DejaVuSans-47" x="179.199219"/>
      <use xlink:href="#DejaVuSans-48" x="256.689453"/>
      <use xlink:href="#DejaVuSans-7a" x="331.884766"/>
     </g>
    </g>
   </g>
   <g id="matplotlib.axis_4">
    <g id="ytick_5">
     <g id="line2d_19">
      <g>
       <use xlink:href="#m229099f691" x="50.595313" y="277.946243" style="stroke: #000000; stroke-width: 0.8"/>
      </g>
     </g>
     <g id="text_15">
      <!-- -100 -->
      <g transform="translate(20.9 281.745462) scale(0.1 -0.1)">
       <defs>
        <path id="DejaVuSans-2d" d="M 313 2009 
L 1997 2009 
L 1997 1497 
L 313 1497 
L 313 2009 
z
" transform="scale(0.015625)"/>
       </defs>
       <use xlink:href="#DejaVuSans-2d"/>
       <use xlink:href="#DejaVuSans-31" x="36.083984"/>
       <use xlink:href="#DejaVuSans-30" x="99.707031"/>
       <use xlink:href="#DejaVuSans-30" x="163.330078"/>
      </g>
     </g>
    </g>
    <g id="ytick_6">
     <g id="line2d_20">
      <g>
       <use xlink:href="#m229099f691" x="50.595313" y="247.395453" style="stroke: #000000; stroke-width: 0.8"/>
      </g>
     </g>
     <g id="text_16">
      <!-- 0 -->
      <g transform="translate(37.232813 251.194672) scale(0.1 -0.1)">
       <use xlink:href="#DejaVuSans-30"/>
      </g>
     </g>
    </g>
    <g id="ytick_7">
     <g id="line2d_21">
      <g>
       <use xlink:href="#m229099f691" x="50.595313" y="216.844663" style="stroke: #000000; stroke-width: 0.8"/>
      </g>
     </g>
     <g id="text_17">
      <!-- 100 -->
      <g transform="translate(24.507813 220.643882) scale(0.1 -0.1)">
       <use xlink:href="#DejaVuSans-31"/>
       <use xlink:href="#DejaVuSans-30" x="63.623047"/>
       <use xlink:href="#DejaVuSans-30" x="127.246094"/>
      </g>
     </g>
    </g>
    <g id="text_18">
     <!-- $\angle S_{21}$ [deg] -->
     <g transform="translate(14.8 274.592) rotate(-90) scale(0.1 -0.1)">
      <defs>
       <path id="DejaVuSans-2220" d="M 5028 631 
L 5028 0 
L 547 0 
L 3525 4666 
L 4281 4666 
L 1716 631 
L 5028 631 
z
" transform="scale(0.015625)"/>
       <path id="DejaVuSans-64" d="M 2906 2969 
L 2906 4863 
L 3481 4863 
L 3481 0 
L 2906 0 
L 2906 525 
Q 2725 213 2448 61 
Q 2172 -91 1784 -91 
Q 1150 -91 751 415 
Q 353 922 353 1747 
Q 353 2572 751 3078 
Q 1150 3584 1784 3584 
Q 2172 3584 2448 3432 
Q 2725 3281 2906 2969 
z
M 947 1747 
Q 947 1113 1208 752 
Q 1469 391 1925 391 
Q 2381 391 2643 752 
Q 2906 1113 2906 1747 
Q 2906 2381 2643 2742 
Q 2381 3103 1925 3103 
Q 1469 3103 1208 2742 
Q 947 2381 947 1747 
z
" transform="scale(0.015625)"/>
       <path id="DejaVuSans-67" d="M 2906 1791 
Q 2906 2416 2648 2759 
Q 2391 3103 1925 3103 
Q 1463 3103 1205 2759 
Q 947 2416 947 1791 
Q 947 1169 1205 825 
Q 1463 481 1925 481 
Q 2391 481 2648 825 
Q 2906 1169 2906 1791 
z
M 3481 434 
Q 3481 -459 3084 -895 
Q 2688 -1331 1869 -1331 
Q 1566 -1331 1297 -1286 
Q 1028 -1241 775 -1147 
L 775 -588 
Q 1028 -725 1275 -790 
Q 1522 -856 1778 -856 
Q 2344 -856 2625 -561 
Q 2906 -266 2906 331 
L 2906 616 
Q 2728 306 2450 153 
Q 2172 0 1784 0 
Q 1141 0 747 490 
Q 353 981 353 1791 
Q 353 2603 747 3093 
Q 1141 3584 1784 3584 
Q 2172 3584 2450 3431 
Q 2728 3278 2906 2969 
L 2906 3500 
L 3481 3500 
L 3481 434 
z
" transform="scale(0.015625)"/>
      </defs>
      <use xlink:href="#DejaVuSans-2220" transform="translate(0 0.015625)"/>
      <use xlink:href="#DejaVuSans-Oblique-53" transform="translate(89.648438 0.015625)"/>
      <use xlink:href="#DejaVuSans-32" transform="translate(153.125 -16.390625) scale(0.7)"/>
      <use xlink:href="#DejaVuSans-31" transform="translate(197.661133 -16.390625) scale(0.7)"/>
      <use xlink:href="#DejaVuSans-20" transform="translate(244.931641 0.015625)"/>
      <use xlink:href="#DejaVuSans-5b" transform="translate(276.71875 0.015625)"/>
      <use xlink:href="#DejaVuSans-64" transform="translate(315.732422 0.015625)"/>
      <use xlink:href="#DejaVuSans-65" transform="translate(379.208984 0.015625)"/>
      <use xlink:href="#DejaVuSans-67" transform="translate(440.732422 0.015625)"/>
      <use xlink:href="#DejaVuSans-5d" transform="translate(504.208984 0.015625)"/>
     </g>
    </g>
   </g>
   <g id="line2d_22">
    <path d="M 66.82804 296.851286 
L 68.45947 296.015997 
L 70.0909 295.559671 
L 71.722329 296.154895 
L 73.353759 296.071778 
L 74.985189 296.608535 
L 76.616619 296.350274 
L 78.248049 296.593896 
L 79.879479 297.37707 
L 86.405198 298.08788 
L 88.036628 298.809061 
L 89.668058 298.7649 
L 92.930918 299.376633 
L 94.562348 299.497957 
L 96.193778 300.223051 
L 97.825207 300.123316 
L 99.456637 300.531189 
L 101.088067 300.723052 
L 104.350927 301.323099 
L 105.982357 301.363431 
L 107.613787 301.858417 
L 109.245217 301.986406 
L 110.876646 192.46965 
L 114.139506 192.956007 
L 115.770936 192.992436 
L 117.402366 193.222963 
L 119.033796 193.314424 
L 120.665226 193.594689 
L 122.296656 193.731342 
L 123.928085 194.009908 
L 125.559515 194.17359 
L 127.190945 194.137759 
L 128.822375 194.543805 
L 132.085235 194.726901 
L 133.716665 195.222003 
L 135.348095 195.156384 
L 138.610954 195.428738 
L 140.242384 195.756485 
L 141.873814 195.802203 
L 150.030963 196.858658 
L 151.662393 196.584777 
L 153.293823 197.022905 
L 154.925253 196.856686 
L 163.082402 197.839121 
L 164.713832 197.671173 
L 166.345262 198.035708 
L 169.608122 198.222677 
L 171.239552 198.412731 
L 174.502412 198.493846 
L 176.133842 198.793713 
L 177.765271 198.888927 
L 181.028131 198.940016 
L 182.659561 199.111086 
L 184.290991 199.102868 
L 185.922421 199.394585 
L 187.553851 199.466256 
L 189.185281 199.409473 
L 192.44814 199.815102 
L 197.34243 200.099633 
L 198.97386 199.831898 
L 200.60529 200.378851 
L 203.868149 200.690648 
L 205.499579 200.444184 
L 207.131009 200.724734 
L 220.182448 201.485528 
L 221.813878 201.475141 
L 223.445308 201.818074 
L 225.076738 201.831233 
L 226.708168 202.033164 
L 228.339598 202.012946 
L 229.971027 202.205654 
L 231.602457 202.096984 
L 233.233887 202.264904 
L 234.865317 202.302877 
L 236.496747 202.640167 
L 238.128177 202.522978 
L 243.022466 202.925101 
L 244.653896 202.821185 
L 249.548186 203.317954 
L 251.179616 203.244171 
L 252.811046 203.574644 
L 254.442476 203.375254 
L 256.073905 203.714337 
L 260.968195 203.544095 
L 264.231055 204.038856 
L 269.125344 204.231746 
L 272.388204 204.39472 
L 274.019634 204.655734 
L 277.282494 204.511478 
L 278.913924 204.848203 
L 283.808213 205.012136 
L 285.439643 205.146318 
L 287.071073 205.076444 
L 288.702503 205.166081 
L 291.965363 205.492413 
L 293.596793 205.559955 
L 295.228223 205.383746 
L 298.491082 205.739383 
L 300.122512 205.91753 
L 305.016802 205.94325 
L 308.279662 206.32306 
L 313.173951 206.595573 
L 316.436811 206.538678 
L 318.068241 206.63798 
L 319.699671 206.967605 
L 322.96253 206.912377 
L 329.48825 207.380567 
L 331.11968 207.272343 
L 334.38254 207.514598 
L 336.013969 207.556376 
L 337.645399 207.799142 
L 340.908259 207.884405 
L 342.539689 207.842117 
L 344.171119 208.052551 
L 347.433979 208.08537 
L 349.065408 208.389714 
L 350.696838 208.354064 
L 352.328268 208.49187 
L 353.959698 208.36084 
L 355.591128 208.394364 
L 357.222558 208.736076 
L 360.485418 208.715399 
L 362.116847 208.986306 
L 365.379707 208.795195 
L 370.273997 209.330618 
L 371.905427 209.154422 
L 373.536857 209.639888 
L 376.799716 209.470718 
L 378.431146 209.686303 
L 380.062576 209.605374 
L 384.956866 209.903378 
L 388.219725 210.037119 
L 391.482585 210.286258 
L 391.482585 210.286258 
" clip-path="url(#p8e61f7633d)" style="fill: none; stroke: #1f77b4; stroke-width: 1.5; stroke-linecap: square"/>
    <g clip-path="url(#p8e61f7633d)">
     <use xlink:href="#m093c4ab4dc" x="66.82804" y="296.851286" style="fill: #1f77b4; stroke: #1f77b4"/>
     <use xlink:href="#m093c4ab4dc" x="68.45947" y="296.015997" style="fill: #1f77b4; stroke: #1f77b4"/>
     <use xlink:href="#m093c4ab4dc" x="70.0909" y="295.559671" style="fill: #1f77b4; stroke: #1f77b4"/>
     <use xlink:href="#m093c4ab4dc" x="71.722329" y="296.154895" style="fill: #1f77b4; stroke: #1f77b4"/>
     <use xlink:href="#m093c4ab4dc" x="73.353759" y="296.071778" style="fill: #1f77b4; stroke: #1f77b4"/>
     <use xlink:href="#m093c4ab4dc" x="74.985189" y="296.608535" style="fill: #1f77b4; stroke: #1f77b4"/>
     <use xlink:href="#m093c4ab4dc" x="76.616619" y="296.350274" style="fill: #1f77b4; stroke: #1f77b4"/>
     <use xlink:href="#m093c4ab4dc" x="78.248049" y="296.593896" style="fill: #1f77b4; stroke: #1f77b4"/>
     <use xlink:href="#m093c4ab4dc" x="79.879479" y="297.37707" style="fill: #1f77b4; stroke: #1f77b4"/>
     <use xlink:href="#m093c4ab4dc" x="81.510909" y="297.541875" style="fill: #1f77b4; stroke: #1f77b4"/>
     <use xlink:href="#m093c4ab4dc" x="83.142339" y="297.710677" style="fill: #1f77b4; stroke: #1f77b4"/>
     <use xlink:href="#m093c4ab4dc" x="84.773768" y="297.918241" style="fill: #1f77b4; stroke: #1f77b4"/>
     <use xlink:href="#m093c4ab4dc" x="86.405198" y="298.08788" style="fill: #1f77b4; stroke: #1f77b4"/>
     <use xlink:href="#m093c4ab4dc" x="88.036628" y="298.809061" style="fill: #1f77b4; stroke: #1f77b4"/>
     <use xlink:href="#m093c4ab4dc" x="89.668058" y="298.7649" style="fill: #1f77b4; stroke: #1f77b4"/>
     <use xlink:href="#m093c4ab4dc" x="91.299488" y="299.059689" style="fill: #1f77b4; stroke: #1f77b4"/>
     <use xlink:href="#m093c4ab4dc" x="92.930918" y="299.376633" style="fill: #1f77b4; stroke: #1f77b4"/>
     <use xlink:href="#m093c4ab4dc" x="94.562348" y="299.497957" style="fill: #1f77b4; stroke: #1f77b4"/>
     <use xlink:href="#m093c4ab4dc" x="96.193778" y="300.223051" style="fill: #1f77b4; stroke: #1f77b4"/>
     <use xlink:href="#m093c4ab4dc" x="97.825207" y="300.123316" style="fill: #1f77b4; stroke: #1f77b4"/>
     <use xlink:href="#m093c4ab4dc" x="99.456637" y="300.531189" style="fill: #1f77b4; stroke: #1f77b4"/>
     <use xlink:href="#m093c4ab4dc" x="101.088067" y="300.723052" style="fill: #1f77b4; stroke: #1f77b4"/>
     <use xlink:href="#m093c4ab4dc" x="102.719497" y="301.046073" style="fill: #1f77b4; stroke: #1f77b4"/>
     <use xlink:href="#m093c4ab4dc" x="104.350927" y="301.323099" style="fill: #1f77b4; stroke: #1f77b4"/>
     <use xlink:href="#m093c4ab4dc" x="105.982357" y="301.363431" style="fill: #1f77b4; stroke: #1f77b4"/>
     <use xlink:href="#m093c4ab4dc" x="107.613787" y="301.858417" style="fill: #1f77b4; stroke: #1f77b4"/>
     <use xlink:href="#m093c4ab4dc" x="109.245217" y="301.986406" style="fill: #1f77b4; stroke: #1f77b4"/>
     <use xlink:href="#m093c4ab4dc" x="110.876646" y="192.46965" style="fill: #1f77b4; stroke: #1f77b4"/>
     <use xlink:href="#m093c4ab4dc" x="112.508076" y="192.692921" style="fill: #1f77b4; stroke: #1f77b4"/>
     <use xlink:href="#m093c4ab4dc" x="114.139506" y="192.956007" style="fill: #1f77b4; stroke: #1f77b4"/>
     <use xlink:href="#m093c4ab4dc" x="115.770936" y="192.992436" style="fill: #1f77b4; stroke: #1f77b4"/>
     <use xlink:href="#m093c4ab4dc" x="117.402366" y="193.222963" style="fill: #1f77b4; stroke: #1f77b4"/>
     <use xlink:href="#m093c4ab4dc" x="119.033796" y="193.314424" style="fill: #1f77b4; stroke: #1f77b4"/>
     <use xlink:href="#m093c4ab4dc" x="120.665226" y="193.594689" style="fill: #1f77b4; stroke: #1f77b4"/>
     <use xlink:href="#m093c4ab4dc" x="122.296656" y="193.731342" style="fill: #1f77b4; stroke: #1f77b4"/>
     <use xlink:href="#m093c4ab4dc" x="123.928085" y="194.009908" style="fill: #1f77b4; stroke: #1f77b4"/>
     <use xlink:href="#m093c4ab4dc" x="125.559515" y="194.17359" style="fill: #1f77b4; stroke: #1f77b4"/>
     <use xlink:href="#m093c4ab4dc" x="127.190945" y="194.137759" style="fill: #1f77b4; stroke: #1f77b4"/>
     <use xlink:href="#m093c4ab4dc" x="128.822375" y="194.543805" style="fill: #1f77b4; stroke: #1f77b4"/>
     <use xlink:href="#m093c4ab4dc" x="130.453805" y="194.64234" style="fill: #1f77b4; stroke: #1f77b4"/>
     <use xlink:href="#m093c4ab4dc" x="132.085235" y="194.726901" style="fill: #1f77b4; stroke: #1f77b4"/>
     <use xlink:href="#m093c4ab4dc" x="133.716665" y="195.222003" style="fill: #1f77b4; stroke: #1f77b4"/>
     <use xlink:href="#m093c4ab4dc" x="135.348095" y="195.156384" style="fill: #1f77b4; stroke: #1f77b4"/>
     <use xlink:href="#m093c4ab4dc" x="136.979524" y="195.313306" style="fill: #1f77b4; stroke: #1f77b4"/>
     <use xlink:href="#m093c4ab4dc" x="138.610954" y="195.428738" style="fill: #1f77b4; stroke: #1f77b4"/>
     <use xlink:href="#m093c4ab4dc" x="140.242384" y="195.756485" style="fill: #1f77b4; stroke: #1f77b4"/>
     <use xlink:href="#m093c4ab4dc" x="141.873814" y="195.802203" style="fill: #1f77b4; stroke: #1f77b4"/>
     <use xlink:href="#m093c4ab4dc" x="143.505244" y="196.010726" style="fill: #1f77b4; stroke: #1f77b4"/>
     <use xlink:href="#m093c4ab4dc" x="145.136674" y="196.143135" style="fill: #1f77b4; stroke: #1f77b4"/>
     <use xlink:href="#m093c4ab4dc" x="146.768104" y="196.429357" style="fill: #1f77b4; stroke: #1f77b4"/>
     <use xlink:href="#m093c4ab4dc" x="148.399534" y="196.666706" style="fill: #1f77b4; stroke: #1f77b4"/>
     <use xlink:href="#m093c4ab4dc" x="150.030963" y="196.858658" style="fill: #1f77b4; stroke: #1f77b4"/>
     <use xlink:href="#m093c4ab4dc" x="151.662393" y="196.584777" style="fill: #1f77b4; stroke: #1f77b4"/>
     <use xlink:href="#m093c4ab4dc" x="153.293823" y="197.022905" style="fill: #1f77b4; stroke: #1f77b4"/>
     <use xlink:href="#m093c4ab4dc" x="154.925253" y="196.856686" style="fill: #1f77b4; stroke: #1f77b4"/>
     <use xlink:href="#m093c4ab4dc" x="156.556683" y="197.051367" style="fill: #1f77b4; stroke: #1f77b4"/>
     <use xlink:href="#m093c4ab4dc" x="158.188113" y="197.23897" style="fill: #1f77b4; stroke: #1f77b4"/>
     <use xlink:href="#m093c4ab4dc" x="159.819543" y="197.519307" style="fill: #1f77b4; stroke: #1f77b4"/>
     <use xlink:href="#m093c4ab4dc" x="161.450973" y="197.533308" style="fill: #1f77b4; stroke: #1f77b4"/>
     <use xlink:href="#m093c4ab4dc" x="163.082402" y="197.839121" style="fill: #1f77b4; stroke: #1f77b4"/>
     <use xlink:href="#m093c4ab4dc" x="164.713832" y="197.671173" style="fill: #1f77b4; stroke: #1f77b4"/>
     <use xlink:href="#m093c4ab4dc" x="166.345262" y="198.035708" style="fill: #1f77b4; stroke: #1f77b4"/>
     <use xlink:href="#m093c4ab4dc" x="167.976692" y="198.106296" style="fill: #1f77b4; stroke: #1f77b4"/>
     <use xlink:href="#m093c4ab4dc" x="169.608122" y="198.222677" style="fill: #1f77b4; stroke: #1f77b4"/>
     <use xlink:href="#m093c4ab4dc" x="171.239552" y="198.412731" style="fill: #1f77b4; stroke: #1f77b4"/>
     <use xlink:href="#m093c4ab4dc" x="172.870982" y="198.423834" style="fill: #1f77b4; stroke: #1f77b4"/>
     <use xlink:href="#m093c4ab4dc" x="174.502412" y="198.493846" style="fill: #1f77b4; stroke: #1f77b4"/>
     <use xlink:href="#m093c4ab4dc" x="176.133842" y="198.793713" style="fill: #1f77b4; stroke: #1f77b4"/>
     <use xlink:href="#m093c4ab4dc" x="177.765271" y="198.888927" style="fill: #1f77b4; stroke: #1f77b4"/>
     <use xlink:href="#m093c4ab4dc" x="179.396701" y="198.864011" style="fill: #1f77b4; stroke: #1f77b4"/>
     <use xlink:href="#m093c4ab4dc" x="181.028131" y="198.940016" style="fill: #1f77b4; stroke: #1f77b4"/>
     <use xlink:href="#m093c4ab4dc" x="182.659561" y="199.111086" style="fill: #1f77b4; stroke: #1f77b4"/>
     <use xlink:href="#m093c4ab4dc" x="184.290991" y="199.102868" style="fill: #1f77b4; stroke: #1f77b4"/>
     <use xlink:href="#m093c4ab4dc" x="185.922421" y="199.394585" style="fill: #1f77b4; stroke: #1f77b4"/>
     <use xlink:href="#m093c4ab4dc" x="187.553851" y="199.466256" style="fill: #1f77b4; stroke: #1f77b4"/>
     <use xlink:href="#m093c4ab4dc" x="189.185281" y="199.409473" style="fill: #1f77b4; stroke: #1f77b4"/>
     <use xlink:href="#m093c4ab4dc" x="190.81671" y="199.628973" style="fill: #1f77b4; stroke: #1f77b4"/>
     <use xlink:href="#m093c4ab4dc" x="192.44814" y="199.815102" style="fill: #1f77b4; stroke: #1f77b4"/>
     <use xlink:href="#m093c4ab4dc" x="194.07957" y="199.924769" style="fill: #1f77b4; stroke: #1f77b4"/>
     <use xlink:href="#m093c4ab4dc" x="195.711" y="200.004342" style="fill: #1f77b4; stroke: #1f77b4"/>
     <use xlink:href="#m093c4ab4dc" x="197.34243" y="200.099633" style="fill: #1f77b4; stroke: #1f77b4"/>
     <use xlink:href="#m093c4ab4dc" x="198.97386" y="199.831898" style="fill: #1f77b4; stroke: #1f77b4"/>
     <use xlink:href="#m093c4ab4dc" x="200.60529" y="200.378851" style="fill: #1f77b4; stroke: #1f77b4"/>
     <use xlink:href="#m093c4ab4dc" x="202.23672" y="200.484264" style="fill: #1f77b4; stroke: #1f77b4"/>
     <use xlink:href="#m093c4ab4dc" x="203.868149" y="200.690648" style="fill: #1f77b4; stroke: #1f77b4"/>
     <use xlink:href="#m093c4ab4dc" x="205.499579" y="200.444184" style="fill: #1f77b4; stroke: #1f77b4"/>
     <use xlink:href="#m093c4ab4dc" x="207.131009" y="200.724734" style="fill: #1f77b4; stroke: #1f77b4"/>
     <use xlink:href="#m093c4ab4dc" x="208.762439" y="200.8324" style="fill: #1f77b4; stroke: #1f77b4"/>
     <use xlink:href="#m093c4ab4dc" x="210.393869" y="200.892964" style="fill: #1f77b4; stroke: #1f77b4"/>
     <use xlink:href="#m093c4ab4dc" x="212.025299" y="200.961056" style="fill: #1f77b4; stroke: #1f77b4"/>
     <use xlink:href="#m093c4ab4dc" x="213.656729" y="201.137121" style="fill: #1f77b4; stroke: #1f77b4"/>
     <use xlink:href="#m093c4ab4dc" x="215.288159" y="201.226874" style="fill: #1f77b4; stroke: #1f77b4"/>
     <use xlink:href="#m093c4ab4dc" x="216.919588" y="201.403529" style="fill: #1f77b4; stroke: #1f77b4"/>
     <use xlink:href="#m093c4ab4dc" x="218.551018" y="201.571453" style="fill: #1f77b4; stroke: #1f77b4"/>
     <use xlink:href="#m093c4ab4dc" x="220.182448" y="201.485528" style="fill: #1f77b4; stroke: #1f77b4"/>
     <use xlink:href="#m093c4ab4dc" x="221.813878" y="201.475141" style="fill: #1f77b4; stroke: #1f77b4"/>
     <use xlink:href="#m093c4ab4dc" x="223.445308" y="201.818074" style="fill: #1f77b4; stroke: #1f77b4"/>
     <use xlink:href="#m093c4ab4dc" x="225.076738" y="201.831233" style="fill: #1f77b4; stroke: #1f77b4"/>
     <use xlink:href="#m093c4ab4dc" x="226.708168" y="202.033164" style="fill: #1f77b4; stroke: #1f77b4"/>
     <use xlink:href="#m093c4ab4dc" x="228.339598" y="202.012946" style="fill: #1f77b4; stroke: #1f77b4"/>
     <use xlink:href="#m093c4ab4dc" x="229.971027" y="202.205654" style="fill: #1f77b4; stroke: #1f77b4"/>
     <use xlink:href="#m093c4ab4dc" x="231.602457" y="202.096984" style="fill: #1f77b4; stroke: #1f77b4"/>
     <use xlink:href="#m093c4ab4dc" x="233.233887" y="202.264904" style="fill: #1f77b4; stroke: #1f77b4"/>
     <use xlink:href="#m093c4ab4dc" x="234.865317" y="202.302877" style="fill: #1f77b4; stroke: #1f77b4"/>
     <use xlink:href="#m093c4ab4dc" x="236.496747" y="202.640167" style="fill: #1f77b4; stroke: #1f77b4"/>
     <use xlink:href="#m093c4ab4dc" x="238.128177" y="202.522978" style="fill: #1f77b4; stroke: #1f77b4"/>
     <use xlink:href="#m093c4ab4dc" x="239.759607" y="202.644559" style="fill: #1f77b4; stroke: #1f77b4"/>
     <use xlink:href="#m093c4ab4dc" x="241.391037" y="202.669502" style="fill: #1f77b4; stroke: #1f77b4"/>
     <use xlink:href="#m093c4ab4dc" x="243.022466" y="202.925101" style="fill: #1f77b4; stroke: #1f77b4"/>
     <use xlink:href="#m093c4ab4dc" x="244.653896" y="202.821185" style="fill: #1f77b4; stroke: #1f77b4"/>
     <use xlink:href="#m093c4ab4dc" x="246.285326" y="203.015939" style="fill: #1f77b4; stroke: #1f77b4"/>
     <use xlink:href="#m093c4ab4dc" x="247.916756" y="203.167386" style="fill: #1f77b4; stroke: #1f77b4"/>
     <use xlink:href="#m093c4ab4dc" x="249.548186" y="203.317954" style="fill: #1f77b4; stroke: #1f77b4"/>
     <use xlink:href="#m093c4ab4dc" x="251.179616" y="203.244171" style="fill: #1f77b4; stroke: #1f77b4"/>
     <use xlink:href="#m093c4ab4dc" x="252.811046" y="203.574644" style="fill: #1f77b4; stroke: #1f77b4"/>
     <use xlink:href="#m093c4ab4dc" x="254.442476" y="203.375254" style="fill: #1f77b4; stroke: #1f77b4"/>
     <use xlink:href="#m093c4ab4dc" x="256.073905" y="203.714337" style="fill: #1f77b4; stroke: #1f77b4"/>
     <use xlink:href="#m093c4ab4dc" x="257.705335" y="203.68288" style="fill: #1f77b4; stroke: #1f77b4"/>
     <use xlink:href="#m093c4ab4dc" x="259.336765" y="203.733316" style="fill: #1f77b4; stroke: #1f77b4"/>
     <use xlink:href="#m093c4ab4dc" x="260.968195" y="203.544095" style="fill: #1f77b4; stroke: #1f77b4"/>
     <use xlink:href="#m093c4ab4dc" x="262.599625" y="203.802029" style="fill: #1f77b4; stroke: #1f77b4"/>
     <use xlink:href="#m093c4ab4dc" x="264.231055" y="204.038856" style="fill: #1f77b4; stroke: #1f77b4"/>
     <use xlink:href="#m093c4ab4dc" x="265.862485" y="204.077453" style="fill: #1f77b4; stroke: #1f77b4"/>
     <use xlink:href="#m093c4ab4dc" x="267.493915" y="204.064816" style="fill: #1f77b4; stroke: #1f77b4"/>
     <use xlink:href="#m093c4ab4dc" x="269.125344" y="204.231746" style="fill: #1f77b4; stroke: #1f77b4"/>
     <use xlink:href="#m093c4ab4dc" x="270.756774" y="204.323418" style="fill: #1f77b4; stroke: #1f77b4"/>
     <use xlink:href="#m093c4ab4dc" x="272.388204" y="204.39472" style="fill: #1f77b4; stroke: #1f77b4"/>
     <use xlink:href="#m093c4ab4dc" x="274.019634" y="204.655734" style="fill: #1f77b4; stroke: #1f77b4"/>
     <use xlink:href="#m093c4ab4dc" x="275.651064" y="204.589717" style="fill: #1f77b4; stroke: #1f77b4"/>
     <use xlink:href="#m093c4ab4dc" x="277.282494" y="204.511478" style="fill: #1f77b4; stroke: #1f77b4"/>
     <use xlink:href="#m093c4ab4dc" x="278.913924" y="204.848203" style="fill: #1f77b4; stroke: #1f77b4"/>
     <use xlink:href="#m093c4ab4dc" x="280.545354" y="204.878619" style="fill: #1f77b4; stroke: #1f77b4"/>
     <use xlink:href="#m093c4ab4dc" x="282.176783" y="204.97065" style="fill: #1f77b4; stroke: #1f77b4"/>
     <use xlink:href="#m093c4ab4dc" x="283.808213" y="205.012136" style="fill: #1f77b4; stroke: #1f77b4"/>
     <use xlink:href="#m093c4ab4dc" x="285.439643" y="205.146318" style="fill: #1f77b4; stroke: #1f77b4"/>
     <use xlink:href="#m093c4ab4dc" x="287.071073" y="205.076444" style="fill: #1f77b4; stroke: #1f77b4"/>
     <use xlink:href="#m093c4ab4dc" x="288.702503" y="205.166081" style="fill: #1f77b4; stroke: #1f77b4"/>
     <use xlink:href="#m093c4ab4dc" x="290.333933" y="205.37822" style="fill: #1f77b4; stroke: #1f77b4"/>
     <use xlink:href="#m093c4ab4dc" x="291.965363" y="205.492413" style="fill: #1f77b4; stroke: #1f77b4"/>
     <use xlink:href="#m093c4ab4dc" x="293.596793" y="205.559955" style="fill: #1f77b4; stroke: #1f77b4"/>
     <use xlink:href="#m093c4ab4dc" x="295.228223" y="205.383746" style="fill: #1f77b4; stroke: #1f77b4"/>
     <use xlink:href="#m093c4ab4dc" x="296.859652" y="205.513004" style="fill: #1f77b4; stroke: #1f77b4"/>
     <use xlink:href="#m093c4ab4dc" x="298.491082" y="205.739383" style="fill: #1f77b4; stroke: #1f77b4"/>
     <use xlink:href="#m093c4ab4dc" x="300.122512" y="205.91753" style="fill: #1f77b4; stroke: #1f77b4"/>
     <use xlink:href="#m093c4ab4dc" x="301.753942" y="205.950043" style="fill: #1f77b4; stroke: #1f77b4"/>
     <use xlink:href="#m093c4ab4dc" x="303.385372" y="205.997921" style="fill: #1f77b4; stroke: #1f77b4"/>
     <use xlink:href="#m093c4ab4dc" x="305.016802" y="205.94325" style="fill: #1f77b4; stroke: #1f77b4"/>
     <use xlink:href="#m093c4ab4dc" x="306.648232" y="206.174901" style="fill: #1f77b4; stroke: #1f77b4"/>
     <use xlink:href="#m093c4ab4dc" x="308.279662" y="206.32306" style="fill: #1f77b4; stroke: #1f77b4"/>
     <use xlink:href="#m093c4ab4dc" x="309.911091" y="206.436807" style="fill: #1f77b4; stroke: #1f77b4"/>
     <use xlink:href="#m093c4ab4dc" x="311.542521" y="206.502072" style="fill: #1f77b4; stroke: #1f77b4"/>
     <use xlink:href="#m093c4ab4dc" x="313.173951" y="206.595573" style="fill: #1f77b4; stroke: #1f77b4"/>
     <use xlink:href="#m093c4ab4dc" x="314.805381" y="206.544945" style="fill: #1f77b4; stroke: #1f77b4"/>
     <use xlink:href="#m093c4ab4dc" x="316.436811" y="206.538678" style="fill: #1f77b4; stroke: #1f77b4"/>
     <use xlink:href="#m093c4ab4dc" x="318.068241" y="206.63798" style="fill: #1f77b4; stroke: #1f77b4"/>
     <use xlink:href="#m093c4ab4dc" x="319.699671" y="206.967605" style="fill: #1f77b4; stroke: #1f77b4"/>
     <use xlink:href="#m093c4ab4dc" x="321.331101" y="206.93777" style="fill: #1f77b4; stroke: #1f77b4"/>
     <use xlink:href="#m093c4ab4dc" x="322.96253" y="206.912377" style="fill: #1f77b4; stroke: #1f77b4"/>
     <use xlink:href="#m093c4ab4dc" x="324.59396" y="207.027551" style="fill: #1f77b4; stroke: #1f77b4"/>
     <use xlink:href="#m093c4ab4dc" x="326.22539" y="207.049489" style="fill: #1f77b4; stroke: #1f77b4"/>
     <use xlink:href="#m093c4ab4dc" x="327.85682" y="207.347557" style="fill: #1f77b4; stroke: #1f77b4"/>
     <use xlink:href="#m093c4ab4dc" x="329.48825" y="207.380567" style="fill: #1f77b4; stroke: #1f77b4"/>
     <use xlink:href="#m093c4ab4dc" x="331.11968" y="207.272343" style="fill: #1f77b4; stroke: #1f77b4"/>
     <use xlink:href="#m093c4ab4dc" x="332.75111" y="207.416566" style="fill: #1f77b4; stroke: #1f77b4"/>
     <use xlink:href="#m093c4ab4dc" x="334.38254" y="207.514598" style="fill: #1f77b4; stroke: #1f77b4"/>
     <use xlink:href="#m093c4ab4dc" x="336.013969" y="207.556376" style="fill: #1f77b4; stroke: #1f77b4"/>
     <use xlink:href="#m093c4ab4dc" x="337.645399" y="207.799142" style="fill: #1f77b4; stroke: #1f77b4"/>
     <use xlink:href="#m093c4ab4dc" x="339.276829" y="207.896965" style="fill: #1f77b4; stroke: #1f77b4"/>
     <use xlink:href="#m093c4ab4dc" x="340.908259" y="207.884405" style="fill: #1f77b4; stroke: #1f77b4"/>
     <use xlink:href="#m093c4ab4dc" x="342.539689" y="207.842117" style="fill: #1f77b4; stroke: #1f77b4"/>
     <use xlink:href="#m093c4ab4dc" x="344.171119" y="208.052551" style="fill: #1f77b4; stroke: #1f77b4"/>
     <use xlink:href="#m093c4ab4dc" x="345.802549" y="208.060421" style="fill: #1f77b4; stroke: #1f77b4"/>
     <use xlink:href="#m093c4ab4dc" x="347.433979" y="208.08537" style="fill: #1f77b4; stroke: #1f77b4"/>
     <use xlink:href="#m093c4ab4dc" x="349.065408" y="208.389714" style="fill: #1f77b4; stroke: #1f77b4"/>
     <use xlink:href="#m093c4ab4dc" x="350.696838" y="208.354064" style="fill: #1f77b4; stroke: #1f77b4"/>
     <use xlink:href="#m093c4ab4dc" x="352.328268" y="208.49187" style="fill: #1f77b4; stroke: #1f77b4"/>
     <use xlink:href="#m093c4ab4dc" x="353.959698" y="208.36084" style="fill: #1f77b4; stroke: #1f77b4"/>
     <use xlink:href="#m093c4ab4dc" x="355.591128" y="208.394364" style="fill: #1f77b4; stroke: #1f77b4"/>
     <use xlink:href="#m093c4ab4dc" x="357.222558" y="208.736076" style="fill: #1f77b4; stroke: #1f77b4"/>
     <use xlink:href="#m093c4ab4dc" x="358.853988" y="208.684179" style="fill: #1f77b4; stroke: #1f77b4"/>
     <use xlink:href="#m093c4ab4dc" x="360.485418" y="208.715399" style="fill: #1f77b4; stroke: #1f77b4"/>
     <use xlink:href="#m093c4ab4dc" x="362.116847" y="208.986306" style="fill: #1f77b4; stroke: #1f77b4"/>
     <use xlink:href="#m093c4ab4dc" x="363.748277" y="208.916272" style="fill: #1f77b4; stroke: #1f77b4"/>
     <use xlink:href="#m093c4ab4dc" x="365.379707" y="208.795195" style="fill: #1f77b4; stroke: #1f77b4"/>
     <use xlink:href="#m093c4ab4dc" x="367.011137" y="209.010136" style="fill: #1f77b4; stroke: #1f77b4"/>
     <use xlink:href="#m093c4ab4dc" x="368.642567" y="209.113948" style="fill: #1f77b4; stroke: #1f77b4"/>
     <use xlink:href="#m093c4ab4dc" x="370.273997" y="209.330618" style="fill: #1f77b4; stroke: #1f77b4"/>
     <use xlink:href="#m093c4ab4dc" x="371.905427" y="209.154422" style="fill: #1f77b4; stroke: #1f77b4"/>
     <use xlink:href="#m093c4ab4dc" x="373.536857" y="209.639888" style="fill: #1f77b4; stroke: #1f77b4"/>
     <use xlink:href="#m093c4ab4dc" x="375.168286" y="209.509352" style="fill: #1f77b4; stroke: #1f77b4"/>
     <use xlink:href="#m093c4ab4dc" x="376.799716" y="209.470718" style="fill: #1f77b4; stroke: #1f77b4"/>
     <use xlink:href="#m093c4ab4dc" x="378.431146" y="209.686303" style="fill: #1f77b4; stroke: #1f77b4"/>
     <use xlink:href="#m093c4ab4dc" x="380.062576" y="209.605374" style="fill: #1f77b4; stroke: #1f77b4"/>
     <use xlink:href="#m093c4ab4dc" x="381.694006" y="209.736951" style="fill: #1f77b4; stroke: #1f77b4"/>
     <use xlink:href="#m093c4ab4dc" x="383.325436" y="209.865537" style="fill: #1f77b4; stroke: #1f77b4"/>
     <use xlink:href="#m093c4ab4dc" x="384.956866" y="209.903378" style="fill: #1f77b4; stroke: #1f77b4"/>
     <use xlink:href="#m093c4ab4dc" x="386.588296" y="209.915777" style="fill: #1f77b4; stroke: #1f77b4"/>
     <use xlink:href="#m093c4ab4dc" x="388.219725" y="210.037119" style="fill: #1f77b4; stroke: #1f77b4"/>
     <use xlink:href="#m093c4ab4dc" x="389.851155" y="210.191454" style="fill: #1f77b4; stroke: #1f77b4"/>
     <use xlink:href="#m093c4ab4dc" x="391.482585" y="210.286258" style="fill: #1f77b4; stroke: #1f77b4"/>
    </g>
   </g>
   <g id="line2d_23">
    <path d="M 66.82804 301.470983 
L 82.102077 302.373818 
L 82.427057 192.410182 
L 391.482585 210.675489 
L 391.482585 210.675489 
" clip-path="url(#p8e61f7633d)" style="fill: none; stroke: #d62728; stroke-width: 1.5; stroke-linecap: square"/>
   </g>
   <g id="patch_9">
    <path d="M 50.595313 307.872 
L 50.595313 186.912 
" style="fill: none; stroke: #000000; stroke-width: 0.8; stroke-linejoin: miter; stroke-linecap: square"/>
   </g>
   <g id="patch_10">
    <path d="M 407.715312 307.872 
L 407.715312 186.912 
" style="fill: none; stroke: #000000; stroke-width: 0.8; stroke-linejoin: miter; stroke-linecap: square"/>
   </g>
   <g id="patch_11">
    <path d="M 50.595312 307.872 
L 407.715312 307.872 
" style="fill: none; stroke: #000000; stroke-width: 0.8; stroke-linejoin: miter; stroke-linecap: square"/>
   </g>
   <g id="patch_12">
    <path d="M 50.595312 186.912 
L 407.715312 186.912 
" style="fill: none; stroke: #000000; stroke-width: 0.8; stroke-linejoin: miter; stroke-linecap: square"/>
   </g>
  </g>
  <g id="text_19">
   <!-- S21 resonator spectroscopy -->
   <g transform="translate(139.610938 16.318125) scale(0.12 -0.12)">
    <defs>
     <path id="DejaVuSans-73" d="M 2834 3397 
L 2834 2853 
Q 2591 2978 2328 3040 
Q 2066 3103 1784 3103 
Q 1356 3103 1142 2972 
Q 928 2841 928 2578 
Q 928 2378 1081 2264 
Q 1234 2150 1697 2047 
L 1894 2003 
Q 2506 1872 2764 1633 
Q 3022 1394 3022 966 
Q 3022 478 2636 193 
Q 2250 -91 1575 -91 
Q 1294 -91 989 -36 
Q 684 19 347 128 
L 347 722 
Q 666 556 975 473 
Q 1284 391 1588 391 
Q 1994 391 2212 530 
Q 2431 669 2431 922 
Q 2431 1156 2273 1281 
Q 2116 1406 1581 1522 
L 1381 1569 
Q 847 1681 609 1914 
Q 372 2147 372 2553 
Q 372 3047 722 3315 
Q 1072 3584 1716 3584 
Q 2034 3584 2315 3537 
Q 2597 3491 2834 3397 
z
" transform="scale(0.015625)"/>
     <path id="DejaVuSans-6f" d="M 1959 3097 
Q 1497 3097 1228 2736 
Q 959 2375 959 1747 
Q 959 1119 1226 758 
Q 1494 397 1959 397 
Q 2419 397 2687 759 
Q 2956 1122 2956 1747 
Q 2956 2369 2687 2733 
Q 2419 3097 1959 3097 
z
M 1959 3584 
Q 2709 3584 3137 3096 
Q 3566 2609 3566 1747 
Q 3566 888 3137 398 
Q 2709 -91 1959 -91 
Q 1206 -91 779 398 
Q 353 888 353 1747 
Q 353 2609 779 3096 
Q 1206 3584 1959 3584 
z
" transform="scale(0.015625)"/>
     <path id="DejaVuSans-74" d="M 1172 4494 
L 1172 3500 
L 2356 3500 
L 2356 3053 
L 1172 3053 
L 1172 1153 
Q 1172 725 1289 603 
Q 1406 481 1766 481 
L 2356 481 
L 2356 0 
L 1766 0 
Q 1100 0 847 248 
Q 594 497 594 1153 
L 594 3053 
L 172 3053 
L 172 3500 
L 594 3500 
L 594 4494 
L 1172 4494 
z
" transform="scale(0.015625)"/>
     <path id="DejaVuSans-70" d="M 1159 525 
L 1159 -1331 
L 581 -1331 
L 581 3500 
L 1159 3500 
L 1159 2969 
Q 1341 3281 1617 3432 
Q 1894 3584 2278 3584 
Q 2916 3584 3314 3078 
Q 3713 2572 3713 1747 
Q 3713 922 3314 415 
Q 2916 -91 2278 -91 
Q 1894 -91 1617 61 
Q 1341 213 1159 525 
z
M 3116 1747 
Q 3116 2381 2855 2742 
Q 2594 3103 2138 3103 
Q 1681 3103 1420 2742 
Q 1159 2381 1159 1747 
Q 1159 1113 1420 752 
Q 1681 391 2138 391 
Q 2594 391 2855 752 
Q 3116 1113 3116 1747 
z
" transform="scale(0.015625)"/>
    </defs>
    <use xlink:href="#DejaVuSans-53"/>
    <use xlink:href="#DejaVuSans-32" x="63.476562"/>
    <use xlink:href="#DejaVuSans-31" x="127.099609"/>
    <use xlink:href="#DejaVuSans-20" x="190.722656"/>
    <use xlink:href="#DejaVuSans-72" x="222.509766"/>
    <use xlink:href="#DejaVuSans-65" x="261.373047"/>
    <use xlink:href="#DejaVuSans-73" x="322.896484"/>
    <use xlink:href="#DejaVuSans-6f" x="374.996094"/>
    <use xlink:href="#DejaVuSans-6e" x="436.177734"/>
    <use xlink:href="#DejaVuSans-61" x="499.556641"/>
    <use xlink:href="#DejaVuSans-74" x="560.835938"/>
    <use xlink:href="#DejaVuSans-6f" x="600.044922"/>
    <use xlink:href="#DejaVuSans-72" x="661.226562"/>
    <use xlink:href="#DejaVuSans-20" x="702.339844"/>
    <use xlink:href="#DejaVuSans-73" x="734.126953"/>
    <use xlink:href="#DejaVuSans-70" x="786.226562"/>
    <use xlink:href="#DejaVuSans-65" x="849.703125"/>
    <use xlink:href="#DejaVuSans-63" x="911.226562"/>
    <use xlink:href="#DejaVuSans-74" x="966.207031"/>
    <use xlink:href="#DejaVuSans-72" x="1005.416016"/>
    <use xlink:href="#DejaVuSans-6f" x="1044.279297"/>
    <use xlink:href="#DejaVuSans-73" x="1105.460938"/>
    <use xlink:href="#DejaVuSans-63" x="1157.560547"/>
    <use xlink:href="#DejaVuSans-6f" x="1212.541016"/>
    <use xlink:href="#DejaVuSans-70" x="1273.722656"/>
    <use xlink:href="#DejaVuSans-79" x="1337.199219"/>
   </g>
   <!-- tuid: 20231227-130022-482-c07ae8 -->
   <g transform="translate(114.324688 29.7555) scale(0.12 -0.12)">
    <defs>
     <path id="DejaVuSans-69" d="M 603 3500 
L 1178 3500 
L 1178 0 
L 603 0 
L 603 3500 
z
M 603 4863 
L 1178 4863 
L 1178 4134 
L 603 4134 
L 603 4863 
z
" transform="scale(0.015625)"/>
     <path id="DejaVuSans-37" d="M 525 4666 
L 3525 4666 
L 3525 4397 
L 1831 0 
L 1172 0 
L 2766 4134 
L 525 4134 
L 525 4666 
z
" transform="scale(0.015625)"/>
    </defs>
    <use xlink:href="#DejaVuSans-74"/>
    <use xlink:href="#DejaVuSans-75" x="39.208984"/>
    <use xlink:href="#DejaVuSans-69" x="102.587891"/>
    <use xlink:href="#DejaVuSans-64" x="130.371094"/>
    <use xlink:href="#DejaVuSans-3a" x="193.847656"/>
    <use xlink:href="#DejaVuSans-20" x="227.539062"/>
    <use xlink:href="#DejaVuSans-32" x="259.326172"/>
    <use xlink:href="#DejaVuSans-30" x="322.949219"/>
    <use xlink:href="#DejaVuSans-32" x="386.572266"/>
    <use xlink:href="#DejaVuSans-33" x="450.195312"/>
    <use xlink:href="#DejaVuSans-31" x="513.818359"/>
    <use xlink:href="#DejaVuSans-32" x="577.441406"/>
    <use xlink:href="#DejaVuSans-32" x="641.064453"/>
    <use xlink:href="#DejaVuSans-37" x="704.6875"/>
    <use xlink:href="#DejaVuSans-2d" x="768.310547"/>
    <use xlink:href="#DejaVuSans-31" x="804.394531"/>
    <use xlink:href="#DejaVuSans-33" x="868.017578"/>
    <use xlink:href="#DejaVuSans-30" x="931.640625"/>
    <use xlink:href="#DejaVuSans-30" x="995.263672"/>
    <use xlink:href="#DejaVuSans-32" x="1058.886719"/>
    <use xlink:href="#DejaVuSans-32" x="1122.509766"/>
    <use xlink:href="#DejaVuSans-2d" x="1186.132812"/>
    <use xlink:href="#DejaVuSans-34" x="1222.216797"/>
    <use xlink:href="#DejaVuSans-38" x="1285.839844"/>
    <use xlink:href="#DejaVuSans-32" x="1349.462891"/>
    <use xlink:href="#DejaVuSans-2d" x="1413.085938"/>
    <use xlink:href="#DejaVuSans-63" x="1449.169922"/>
    <use xlink:href="#DejaVuSans-30" x="1504.150391"/>
    <use xlink:href="#DejaVuSans-37" x="1567.773438"/>
    <use xlink:href="#DejaVuSans-61" x="1631.396484"/>
    <use xlink:href="#DejaVuSans-65" x="1692.675781"/>
    <use xlink:href="#DejaVuSans-38" x="1754.199219"/>
   </g>
  </g>
 </g>
 <defs>
  <clipPath id="paf5e225735">
   <rect x="50.595313" y="41.76" width="357.12" height="120.96"/>
  </clipPath>
  <clipPath id="p8e61f7633d">
   <rect x="50.595313" y="186.912" width="357.12" height="120.96"/>
  </clipPath>
 </defs>
</svg>
