<?xml version="1.0" encoding="utf-8" standalone="no"?>
<!DOCTYPE svg PUBLIC "-//W3C//DTD SVG 1.1//EN"
  "http://www.w3.org/Graphics/SVG/1.1/DTD/svg11.dtd">
<svg xmlns:xlink="http://www.w3.org/1999/xlink" width="656.996313pt" height="345.42825pt" viewBox="0 0 656.996313 345.42825" xmlns="http://www.w3.org/2000/svg" version="1.1">
 <metadata>
  <rdf:RDF xmlns:dc="http://purl.org/dc/elements/1.1/" xmlns:cc="http://creativecommons.org/ns#" xmlns:rdf="http://www.w3.org/1999/02/22-rdf-syntax-ns#">
   <cc:Work>
    <dc:type rdf:resource="http://purl.org/dc/dcmitype/StillImage"/>
    <dc:date>2023-12-25T16:29:24.845597</dc:date>
    <dc:format>image/svg+xml</dc:format>
    <dc:creator>
     <cc:Agent>
      <dc:title>Matplotlib v3.8.2, https://matplotlib.org/</dc:title>
     </cc:Agent>
    </dc:creator>
   </cc:Work>
  </rdf:RDF>
 </metadata>
 <defs>
  <style type="text/css">*{stroke-linejoin: round; stroke-linecap: butt}</style>
 </defs>
 <g id="figure_1">
  <g id="patch_1">
   <path d="M 0 345.42825 
L 656.996313 345.42825 
L 656.996313 -0 
L 0 -0 
L 0 345.42825 
z
" style="fill: none; opacity: 0"/>
  </g>
  <g id="axes_1">
   <g id="patch_2">
    <path d="M 50.573438 307.872 
L 407.693438 307.872 
L 407.693438 41.76 
L 50.573438 41.76 
z
" style="fill: #ffffff"/>
   </g>
   <g id="matplotlib.axis_1">
    <g id="xtick_1">
     <g id="line2d_1">
      <defs>
       <path id="mb5b1a8b73a" d="M 0 0 
L 0 3.5 
" style="stroke: #000000; stroke-width: 0.8"/>
      </defs>
      <g>
       <use xlink:href="#mb5b1a8b73a" x="64.88275" y="307.872" style="stroke: #000000; stroke-width: 0.8"/>
      </g>
     </g>
     <g id="text_1">
      <!-- 6 -->
      <g transform="translate(61.7015 322.470438) scale(0.1 -0.1)">
       <defs>
        <path id="DejaVuSans-36" d="M 2113 2584 
Q 1688 2584 1439 2293 
Q 1191 2003 1191 1497 
Q 1191 994 1439 701 
Q 1688 409 2113 409 
Q 2538 409 2786 701 
Q 3034 994 3034 1497 
Q 3034 2003 2786 2293 
Q 2538 2584 2113 2584 
z
M 3366 4563 
L 3366 3988 
Q 3128 4100 2886 4159 
Q 2644 4219 2406 4219 
Q 1781 4219 1451 3797 
Q 1122 3375 1075 2522 
Q 1259 2794 1537 2939 
Q 1816 3084 2150 3084 
Q 2853 3084 3261 2657 
Q 3669 2231 3669 1497 
Q 3669 778 3244 343 
Q 2819 -91 2113 -91 
Q 1303 -91 875 529 
Q 447 1150 447 2328 
Q 447 3434 972 4092 
Q 1497 4750 2381 4750 
Q 2619 4750 2861 4703 
Q 3103 4656 3366 4563 
z
" transform="scale(0.015625)"/>
       </defs>
       <use xlink:href="#DejaVuSans-36"/>
      </g>
     </g>
    </g>
    <g id="xtick_2">
     <g id="line2d_2">
      <g>
       <use xlink:href="#mb5b1a8b73a" x="105.464568" y="307.872" style="stroke: #000000; stroke-width: 0.8"/>
      </g>
     </g>
     <g id="text_2">
      <!-- 6.5 -->
      <g transform="translate(97.513006 322.470438) scale(0.1 -0.1)">
       <defs>
        <path id="DejaVuSans-2e" d="M 684 794 
L 1344 794 
L 1344 0 
L 684 0 
L 684 794 
z
" transform="scale(0.015625)"/>
        <path id="DejaVuSans-35" d="M 691 4666 
L 3169 4666 
L 3169 4134 
L 1269 4134 
L 1269 2991 
Q 1406 3038 1543 3061 
Q 1681 3084 1819 3084 
Q 2600 3084 3056 2656 
Q 3513 2228 3513 1497 
Q 3513 744 3044 326 
Q 2575 -91 1722 -91 
Q 1428 -91 1123 -41 
Q 819 9 494 109 
L 494 744 
Q 775 591 1075 516 
Q 1375 441 1709 441 
Q 2250 441 2565 725 
Q 2881 1009 2881 1497 
Q 2881 1984 2565 2268 
Q 2250 2553 1709 2553 
Q 1456 2553 1204 2497 
Q 953 2441 691 2322 
L 691 4666 
z
" transform="scale(0.015625)"/>
       </defs>
       <use xlink:href="#DejaVuSans-36"/>
       <use xlink:href="#DejaVuSans-2e" x="63.623047"/>
       <use xlink:href="#DejaVuSans-35" x="95.410156"/>
      </g>
     </g>
    </g>
    <g id="xtick_3">
     <g id="line2d_3">
      <g>
       <use xlink:href="#mb5b1a8b73a" x="146.046386" y="307.872" style="stroke: #000000; stroke-width: 0.8"/>
      </g>
     </g>
     <g id="text_3">
      <!-- 7 -->
      <g transform="translate(142.865136 322.470438) scale(0.1 -0.1)">
       <defs>
        <path id="DejaVuSans-37" d="M 525 4666 
L 3525 4666 
L 3525 4397 
L 1831 0 
L 1172 0 
L 2766 4134 
L 525 4134 
L 525 4666 
z
" transform="scale(0.015625)"/>
       </defs>
       <use xlink:href="#DejaVuSans-37"/>
      </g>
     </g>
    </g>
    <g id="xtick_4">
     <g id="line2d_4">
      <g>
       <use xlink:href="#mb5b1a8b73a" x="186.628204" y="307.872" style="stroke: #000000; stroke-width: 0.8"/>
      </g>
     </g>
     <g id="text_4">
      <!-- 7.5 -->
      <g transform="translate(178.676642 322.470438) scale(0.1 -0.1)">
       <use xlink:href="#DejaVuSans-37"/>
       <use xlink:href="#DejaVuSans-2e" x="63.623047"/>
       <use xlink:href="#DejaVuSans-35" x="95.410156"/>
      </g>
     </g>
    </g>
    <g id="xtick_5">
     <g id="line2d_5">
      <g>
       <use xlink:href="#mb5b1a8b73a" x="227.210023" y="307.872" style="stroke: #000000; stroke-width: 0.8"/>
      </g>
     </g>
     <g id="text_5">
      <!-- 8 -->
      <g transform="translate(224.028773 322.470438) scale(0.1 -0.1)">
       <defs>
        <path id="DejaVuSans-38" d="M 2034 2216 
Q 1584 2216 1326 1975 
Q 1069 1734 1069 1313 
Q 1069 891 1326 650 
Q 1584 409 2034 409 
Q 2484 409 2743 651 
Q 3003 894 3003 1313 
Q 3003 1734 2745 1975 
Q 2488 2216 2034 2216 
z
M 1403 2484 
Q 997 2584 770 2862 
Q 544 3141 544 3541 
Q 544 4100 942 4425 
Q 1341 4750 2034 4750 
Q 2731 4750 3128 4425 
Q 3525 4100 3525 3541 
Q 3525 3141 3298 2862 
Q 3072 2584 2669 2484 
Q 3125 2378 3379 2068 
Q 3634 1759 3634 1313 
Q 3634 634 3220 271 
Q 2806 -91 2034 -91 
Q 1263 -91 848 271 
Q 434 634 434 1313 
Q 434 1759 690 2068 
Q 947 2378 1403 2484 
z
M 1172 3481 
Q 1172 3119 1398 2916 
Q 1625 2713 2034 2713 
Q 2441 2713 2670 2916 
Q 2900 3119 2900 3481 
Q 2900 3844 2670 4047 
Q 2441 4250 2034 4250 
Q 1625 4250 1398 4047 
Q 1172 3844 1172 3481 
z
" transform="scale(0.015625)"/>
       </defs>
       <use xlink:href="#DejaVuSans-38"/>
      </g>
     </g>
    </g>
    <g id="xtick_6">
     <g id="line2d_6">
      <g>
       <use xlink:href="#mb5b1a8b73a" x="267.791841" y="307.872" style="stroke: #000000; stroke-width: 0.8"/>
      </g>
     </g>
     <g id="text_6">
      <!-- 8.5 -->
      <g transform="translate(259.840278 322.470438) scale(0.1 -0.1)">
       <use xlink:href="#DejaVuSans-38"/>
       <use xlink:href="#DejaVuSans-2e" x="63.623047"/>
       <use xlink:href="#DejaVuSans-35" x="95.410156"/>
      </g>
     </g>
    </g>
    <g id="xtick_7">
     <g id="line2d_7">
      <g>
       <use xlink:href="#mb5b1a8b73a" x="308.373659" y="307.872" style="stroke: #000000; stroke-width: 0.8"/>
      </g>
     </g>
     <g id="text_7">
      <!-- 9 -->
      <g transform="translate(305.192409 322.470438) scale(0.1 -0.1)">
       <defs>
        <path id="DejaVuSans-39" d="M 703 97 
L 703 672 
Q 941 559 1184 500 
Q 1428 441 1663 441 
Q 2288 441 2617 861 
Q 2947 1281 2994 2138 
Q 2813 1869 2534 1725 
Q 2256 1581 1919 1581 
Q 1219 1581 811 2004 
Q 403 2428 403 3163 
Q 403 3881 828 4315 
Q 1253 4750 1959 4750 
Q 2769 4750 3195 4129 
Q 3622 3509 3622 2328 
Q 3622 1225 3098 567 
Q 2575 -91 1691 -91 
Q 1453 -91 1209 -44 
Q 966 3 703 97 
z
M 1959 2075 
Q 2384 2075 2632 2365 
Q 2881 2656 2881 3163 
Q 2881 3666 2632 3958 
Q 2384 4250 1959 4250 
Q 1534 4250 1286 3958 
Q 1038 3666 1038 3163 
Q 1038 2656 1286 2365 
Q 1534 2075 1959 2075 
z
" transform="scale(0.015625)"/>
       </defs>
       <use xlink:href="#DejaVuSans-39"/>
      </g>
     </g>
    </g>
    <g id="xtick_8">
     <g id="line2d_8">
      <g>
       <use xlink:href="#mb5b1a8b73a" x="348.955477" y="307.872" style="stroke: #000000; stroke-width: 0.8"/>
      </g>
     </g>
     <g id="text_8">
      <!-- 9.5 -->
      <g transform="translate(341.003915 322.470438) scale(0.1 -0.1)">
       <use xlink:href="#DejaVuSans-39"/>
       <use xlink:href="#DejaVuSans-2e" x="63.623047"/>
       <use xlink:href="#DejaVuSans-35" x="95.410156"/>
      </g>
     </g>
    </g>
    <g id="xtick_9">
     <g id="line2d_9">
      <g>
       <use xlink:href="#mb5b1a8b73a" x="389.537295" y="307.872" style="stroke: #000000; stroke-width: 0.8"/>
      </g>
     </g>
     <g id="text_9">
      <!-- 10 -->
      <g transform="translate(383.174795 322.470438) scale(0.1 -0.1)">
       <defs>
        <path id="DejaVuSans-31" d="M 794 531 
L 1825 531 
L 1825 4091 
L 703 3866 
L 703 4441 
L 1819 4666 
L 2450 4666 
L 2450 531 
L 3481 531 
L 3481 0 
L 794 0 
L 794 531 
z
" transform="scale(0.015625)"/>
        <path id="DejaVuSans-30" d="M 2034 4250 
Q 1547 4250 1301 3770 
Q 1056 3291 1056 2328 
Q 1056 1369 1301 889 
Q 1547 409 2034 409 
Q 2525 409 2770 889 
Q 3016 1369 3016 2328 
Q 3016 3291 2770 3770 
Q 2525 4250 2034 4250 
z
M 2034 4750 
Q 2819 4750 3233 4129 
Q 3647 3509 3647 2328 
Q 3647 1150 3233 529 
Q 2819 -91 2034 -91 
Q 1250 -91 836 529 
Q 422 1150 422 2328 
Q 422 3509 836 4129 
Q 1250 4750 2034 4750 
z
" transform="scale(0.015625)"/>
       </defs>
       <use xlink:href="#DejaVuSans-31"/>
       <use xlink:href="#DejaVuSans-30" x="63.623047"/>
      </g>
     </g>
    </g>
    <g id="text_10">
     <!-- Frequency [MHz] -->
     <g transform="translate(187.114688 336.148562) scale(0.1 -0.1)">
      <defs>
       <path id="DejaVuSans-46" d="M 628 4666 
L 3309 4666 
L 3309 4134 
L 1259 4134 
L 1259 2759 
L 3109 2759 
L 3109 2228 
L 1259 2228 
L 1259 0 
L 628 0 
L 628 4666 
z
" transform="scale(0.015625)"/>
       <path id="DejaVuSans-72" d="M 2631 2963 
Q 2534 3019 2420 3045 
Q 2306 3072 2169 3072 
Q 1681 3072 1420 2755 
Q 1159 2438 1159 1844 
L 1159 0 
L 581 0 
L 581 3500 
L 1159 3500 
L 1159 2956 
Q 1341 3275 1631 3429 
Q 1922 3584 2338 3584 
Q 2397 3584 2469 3576 
Q 2541 3569 2628 3553 
L 2631 2963 
z
" transform="scale(0.015625)"/>
       <path id="DejaVuSans-65" d="M 3597 1894 
L 3597 1613 
L 953 1613 
Q 991 1019 1311 708 
Q 1631 397 2203 397 
Q 2534 397 2845 478 
Q 3156 559 3463 722 
L 3463 178 
Q 3153 47 2828 -22 
Q 2503 -91 2169 -91 
Q 1331 -91 842 396 
Q 353 884 353 1716 
Q 353 2575 817 3079 
Q 1281 3584 2069 3584 
Q 2775 3584 3186 3129 
Q 3597 2675 3597 1894 
z
M 3022 2063 
Q 3016 2534 2758 2815 
Q 2500 3097 2075 3097 
Q 1594 3097 1305 2825 
Q 1016 2553 972 2059 
L 3022 2063 
z
" transform="scale(0.015625)"/>
       <path id="DejaVuSans-71" d="M 947 1747 
Q 947 1113 1208 752 
Q 1469 391 1925 391 
Q 2381 391 2643 752 
Q 2906 1113 2906 1747 
Q 2906 2381 2643 2742 
Q 2381 3103 1925 3103 
Q 1469 3103 1208 2742 
Q 947 2381 947 1747 
z
M 2906 525 
Q 2725 213 2448 61 
Q 2172 -91 1784 -91 
Q 1150 -91 751 415 
Q 353 922 353 1747 
Q 353 2572 751 3078 
Q 1150 3584 1784 3584 
Q 2172 3584 2448 3432 
Q 2725 3281 2906 2969 
L 2906 3500 
L 3481 3500 
L 3481 -1331 
L 2906 -1331 
L 2906 525 
z
" transform="scale(0.015625)"/>
       <path id="DejaVuSans-75" d="M 544 1381 
L 544 3500 
L 1119 3500 
L 1119 1403 
Q 1119 906 1312 657 
Q 1506 409 1894 409 
Q 2359 409 2629 706 
Q 2900 1003 2900 1516 
L 2900 3500 
L 3475 3500 
L 3475 0 
L 2900 0 
L 2900 538 
Q 2691 219 2414 64 
Q 2138 -91 1772 -91 
Q 1169 -91 856 284 
Q 544 659 544 1381 
z
M 1991 3584 
L 1991 3584 
z
" transform="scale(0.015625)"/>
       <path id="DejaVuSans-6e" d="M 3513 2113 
L 3513 0 
L 2938 0 
L 2938 2094 
Q 2938 2591 2744 2837 
Q 2550 3084 2163 3084 
Q 1697 3084 1428 2787 
Q 1159 2491 1159 1978 
L 1159 0 
L 581 0 
L 581 3500 
L 1159 3500 
L 1159 2956 
Q 1366 3272 1645 3428 
Q 1925 3584 2291 3584 
Q 2894 3584 3203 3211 
Q 3513 2838 3513 2113 
z
" transform="scale(0.015625)"/>
       <path id="DejaVuSans-63" d="M 3122 3366 
L 3122 2828 
Q 2878 2963 2633 3030 
Q 2388 3097 2138 3097 
Q 1578 3097 1268 2742 
Q 959 2388 959 1747 
Q 959 1106 1268 751 
Q 1578 397 2138 397 
Q 2388 397 2633 464 
Q 2878 531 3122 666 
L 3122 134 
Q 2881 22 2623 -34 
Q 2366 -91 2075 -91 
Q 1284 -91 818 406 
Q 353 903 353 1747 
Q 353 2603 823 3093 
Q 1294 3584 2113 3584 
Q 2378 3584 2631 3529 
Q 2884 3475 3122 3366 
z
" transform="scale(0.015625)"/>
       <path id="DejaVuSans-79" d="M 2059 -325 
Q 1816 -950 1584 -1140 
Q 1353 -1331 966 -1331 
L 506 -1331 
L 506 -850 
L 844 -850 
Q 1081 -850 1212 -737 
Q 1344 -625 1503 -206 
L 1606 56 
L 191 3500 
L 800 3500 
L 1894 763 
L 2988 3500 
L 3597 3500 
L 2059 -325 
z
" transform="scale(0.015625)"/>
       <path id="DejaVuSans-20" transform="scale(0.015625)"/>
       <path id="DejaVuSans-5b" d="M 550 4863 
L 1875 4863 
L 1875 4416 
L 1125 4416 
L 1125 -397 
L 1875 -397 
L 1875 -844 
L 550 -844 
L 550 4863 
z
" transform="scale(0.015625)"/>
       <path id="DejaVuSans-4d" d="M 628 4666 
L 1569 4666 
L 2759 1491 
L 3956 4666 
L 4897 4666 
L 4897 0 
L 4281 0 
L 4281 4097 
L 3078 897 
L 2444 897 
L 1241 4097 
L 1241 0 
L 628 0 
L 628 4666 
z
" transform="scale(0.015625)"/>
       <path id="DejaVuSans-48" d="M 628 4666 
L 1259 4666 
L 1259 2753 
L 3553 2753 
L 3553 4666 
L 4184 4666 
L 4184 0 
L 3553 0 
L 3553 2222 
L 1259 2222 
L 1259 0 
L 628 0 
L 628 4666 
z
" transform="scale(0.015625)"/>
       <path id="DejaVuSans-7a" d="M 353 3500 
L 3084 3500 
L 3084 2975 
L 922 459 
L 3084 459 
L 3084 0 
L 275 0 
L 275 525 
L 2438 3041 
L 353 3041 
L 353 3500 
z
" transform="scale(0.015625)"/>
       <path id="DejaVuSans-5d" d="M 1947 4863 
L 1947 -844 
L 622 -844 
L 622 -397 
L 1369 -397 
L 1369 4416 
L 622 4416 
L 622 4863 
L 1947 4863 
z
" transform="scale(0.015625)"/>
      </defs>
      <use xlink:href="#DejaVuSans-46"/>
      <use xlink:href="#DejaVuSans-72" x="50.269531"/>
      <use xlink:href="#DejaVuSans-65" x="89.132812"/>
      <use xlink:href="#DejaVuSans-71" x="150.65625"/>
      <use xlink:href="#DejaVuSans-75" x="214.132812"/>
      <use xlink:href="#DejaVuSans-65" x="277.511719"/>
      <use xlink:href="#DejaVuSans-6e" x="339.035156"/>
      <use xlink:href="#DejaVuSans-63" x="402.414062"/>
      <use xlink:href="#DejaVuSans-79" x="457.394531"/>
      <use xlink:href="#DejaVuSans-20" x="516.574219"/>
      <use xlink:href="#DejaVuSans-5b" x="548.361328"/>
      <use xlink:href="#DejaVuSans-4d" x="587.375"/>
      <use xlink:href="#DejaVuSans-48" x="673.654297"/>
      <use xlink:href="#DejaVuSans-7a" x="748.849609"/>
      <use xlink:href="#DejaVuSans-5d" x="801.339844"/>
     </g>
    </g>
    <g id="text_11">
     <!-- +6 GHz -->
     <g transform="translate(369.255938 335.148562) scale(0.1 -0.1)">
      <defs>
       <path id="DejaVuSans-2b" d="M 2944 4013 
L 2944 2272 
L 4684 2272 
L 4684 1741 
L 2944 1741 
L 2944 0 
L 2419 0 
L 2419 1741 
L 678 1741 
L 678 2272 
L 2419 2272 
L 2419 4013 
L 2944 4013 
z
" transform="scale(0.015625)"/>
       <path id="DejaVuSans-47" d="M 3809 666 
L 3809 1919 
L 2778 1919 
L 2778 2438 
L 4434 2438 
L 4434 434 
Q 4069 175 3628 42 
Q 3188 -91 2688 -91 
Q 1594 -91 976 548 
Q 359 1188 359 2328 
Q 359 3472 976 4111 
Q 1594 4750 2688 4750 
Q 3144 4750 3555 4637 
Q 3966 4525 4313 4306 
L 4313 3634 
Q 3963 3931 3569 4081 
Q 3175 4231 2741 4231 
Q 1884 4231 1454 3753 
Q 1025 3275 1025 2328 
Q 1025 1384 1454 906 
Q 1884 428 2741 428 
Q 3075 428 3337 486 
Q 3600 544 3809 666 
z
" transform="scale(0.015625)"/>
      </defs>
      <use xlink:href="#DejaVuSans-2b"/>
      <use xlink:href="#DejaVuSans-36" x="83.789062"/>
      <use xlink:href="#DejaVuSans-20" x="147.412109"/>
      <use xlink:href="#DejaVuSans-47" x="179.199219"/>
      <use xlink:href="#DejaVuSans-48" x="256.689453"/>
      <use xlink:href="#DejaVuSans-7a" x="331.884766"/>
     </g>
    </g>
   </g>
   <g id="matplotlib.axis_2">
    <g id="ytick_1">
     <g id="line2d_10">
      <defs>
       <path id="mcd53cd34dd" d="M 0 0 
L -3.5 0 
" style="stroke: #000000; stroke-width: 0.8"/>
      </defs>
      <g>
       <use xlink:href="#mcd53cd34dd" x="50.573438" y="275.790787" style="stroke: #000000; stroke-width: 0.8"/>
      </g>
     </g>
     <g id="text_12">
      <!-- -150 -->
      <g transform="translate(20.878125 279.590005) scale(0.1 -0.1)">
       <defs>
        <path id="DejaVuSans-2d" d="M 313 2009 
L 1997 2009 
L 1997 1497 
L 313 1497 
L 313 2009 
z
" transform="scale(0.015625)"/>
       </defs>
       <use xlink:href="#DejaVuSans-2d"/>
       <use xlink:href="#DejaVuSans-31" x="36.083984"/>
       <use xlink:href="#DejaVuSans-35" x="99.707031"/>
       <use xlink:href="#DejaVuSans-30" x="163.330078"/>
      </g>
     </g>
    </g>
    <g id="ytick_2">
     <g id="line2d_11">
      <g>
       <use xlink:href="#mcd53cd34dd" x="50.573438" y="242.149459" style="stroke: #000000; stroke-width: 0.8"/>
      </g>
     </g>
     <g id="text_13">
      <!-- -100 -->
      <g transform="translate(20.878125 245.948678) scale(0.1 -0.1)">
       <use xlink:href="#DejaVuSans-2d"/>
       <use xlink:href="#DejaVuSans-31" x="36.083984"/>
       <use xlink:href="#DejaVuSans-30" x="99.707031"/>
       <use xlink:href="#DejaVuSans-30" x="163.330078"/>
      </g>
     </g>
    </g>
    <g id="ytick_3">
     <g id="line2d_12">
      <g>
       <use xlink:href="#mcd53cd34dd" x="50.573438" y="208.508132" style="stroke: #000000; stroke-width: 0.8"/>
      </g>
     </g>
     <g id="text_14">
      <!-- -50 -->
      <g transform="translate(27.240625 212.307351) scale(0.1 -0.1)">
       <use xlink:href="#DejaVuSans-2d"/>
       <use xlink:href="#DejaVuSans-35" x="36.083984"/>
       <use xlink:href="#DejaVuSans-30" x="99.707031"/>
      </g>
     </g>
    </g>
    <g id="ytick_4">
     <g id="line2d_13">
      <g>
       <use xlink:href="#mcd53cd34dd" x="50.573438" y="174.866804" style="stroke: #000000; stroke-width: 0.8"/>
      </g>
     </g>
     <g id="text_15">
      <!-- 0 -->
      <g transform="translate(37.210938 178.666023) scale(0.1 -0.1)">
       <use xlink:href="#DejaVuSans-30"/>
      </g>
     </g>
    </g>
    <g id="ytick_5">
     <g id="line2d_14">
      <g>
       <use xlink:href="#mcd53cd34dd" x="50.573438" y="141.225477" style="stroke: #000000; stroke-width: 0.8"/>
      </g>
     </g>
     <g id="text_16">
      <!-- 50 -->
      <g transform="translate(30.848438 145.024696) scale(0.1 -0.1)">
       <use xlink:href="#DejaVuSans-35"/>
       <use xlink:href="#DejaVuSans-30" x="63.623047"/>
      </g>
     </g>
    </g>
    <g id="ytick_6">
     <g id="line2d_15">
      <g>
       <use xlink:href="#mcd53cd34dd" x="50.573438" y="107.584149" style="stroke: #000000; stroke-width: 0.8"/>
      </g>
     </g>
     <g id="text_17">
      <!-- 100 -->
      <g transform="translate(24.485938 111.383368) scale(0.1 -0.1)">
       <use xlink:href="#DejaVuSans-31"/>
       <use xlink:href="#DejaVuSans-30" x="63.623047"/>
       <use xlink:href="#DejaVuSans-30" x="127.246094"/>
      </g>
     </g>
    </g>
    <g id="ytick_7">
     <g id="line2d_16">
      <g>
       <use xlink:href="#mcd53cd34dd" x="50.573438" y="73.942822" style="stroke: #000000; stroke-width: 0.8"/>
      </g>
     </g>
     <g id="text_18">
      <!-- 150 -->
      <g transform="translate(24.485938 77.742041) scale(0.1 -0.1)">
       <use xlink:href="#DejaVuSans-31"/>
       <use xlink:href="#DejaVuSans-35" x="63.623047"/>
       <use xlink:href="#DejaVuSans-30" x="127.246094"/>
      </g>
     </g>
    </g>
    <g id="text_19">
     <!-- Phase0 [deg] -->
     <g transform="translate(14.798438 207.841781) rotate(-90) scale(0.1 -0.1)">
      <defs>
       <path id="DejaVuSans-50" d="M 1259 4147 
L 1259 2394 
L 2053 2394 
Q 2494 2394 2734 2622 
Q 2975 2850 2975 3272 
Q 2975 3691 2734 3919 
Q 2494 4147 2053 4147 
L 1259 4147 
z
M 628 4666 
L 2053 4666 
Q 2838 4666 3239 4311 
Q 3641 3956 3641 3272 
Q 3641 2581 3239 2228 
Q 2838 1875 2053 1875 
L 1259 1875 
L 1259 0 
L 628 0 
L 628 4666 
z
" transform="scale(0.015625)"/>
       <path id="DejaVuSans-68" d="M 3513 2113 
L 3513 0 
L 2938 0 
L 2938 2094 
Q 2938 2591 2744 2837 
Q 2550 3084 2163 3084 
Q 1697 3084 1428 2787 
Q 1159 2491 1159 1978 
L 1159 0 
L 581 0 
L 581 4863 
L 1159 4863 
L 1159 2956 
Q 1366 3272 1645 3428 
Q 1925 3584 2291 3584 
Q 2894 3584 3203 3211 
Q 3513 2838 3513 2113 
z
" transform="scale(0.015625)"/>
       <path id="DejaVuSans-61" d="M 2194 1759 
Q 1497 1759 1228 1600 
Q 959 1441 959 1056 
Q 959 750 1161 570 
Q 1363 391 1709 391 
Q 2188 391 2477 730 
Q 2766 1069 2766 1631 
L 2766 1759 
L 2194 1759 
z
M 3341 1997 
L 3341 0 
L 2766 0 
L 2766 531 
Q 2569 213 2275 61 
Q 1981 -91 1556 -91 
Q 1019 -91 701 211 
Q 384 513 384 1019 
Q 384 1609 779 1909 
Q 1175 2209 1959 2209 
L 2766 2209 
L 2766 2266 
Q 2766 2663 2505 2880 
Q 2244 3097 1772 3097 
Q 1472 3097 1187 3025 
Q 903 2953 641 2809 
L 641 3341 
Q 956 3463 1253 3523 
Q 1550 3584 1831 3584 
Q 2591 3584 2966 3190 
Q 3341 2797 3341 1997 
z
" transform="scale(0.015625)"/>
       <path id="DejaVuSans-73" d="M 2834 3397 
L 2834 2853 
Q 2591 2978 2328 3040 
Q 2066 3103 1784 3103 
Q 1356 3103 1142 2972 
Q 928 2841 928 2578 
Q 928 2378 1081 2264 
Q 1234 2150 1697 2047 
L 1894 2003 
Q 2506 1872 2764 1633 
Q 3022 1394 3022 966 
Q 3022 478 2636 193 
Q 2250 -91 1575 -91 
Q 1294 -91 989 -36 
Q 684 19 347 128 
L 347 722 
Q 666 556 975 473 
Q 1284 391 1588 391 
Q 1994 391 2212 530 
Q 2431 669 2431 922 
Q 2431 1156 2273 1281 
Q 2116 1406 1581 1522 
L 1381 1569 
Q 847 1681 609 1914 
Q 372 2147 372 2553 
Q 372 3047 722 3315 
Q 1072 3584 1716 3584 
Q 2034 3584 2315 3537 
Q 2597 3491 2834 3397 
z
" transform="scale(0.015625)"/>
       <path id="DejaVuSans-64" d="M 2906 2969 
L 2906 4863 
L 3481 4863 
L 3481 0 
L 2906 0 
L 2906 525 
Q 2725 213 2448 61 
Q 2172 -91 1784 -91 
Q 1150 -91 751 415 
Q 353 922 353 1747 
Q 353 2572 751 3078 
Q 1150 3584 1784 3584 
Q 2172 3584 2448 3432 
Q 2725 3281 2906 2969 
z
M 947 1747 
Q 947 1113 1208 752 
Q 1469 391 1925 391 
Q 2381 391 2643 752 
Q 2906 1113 2906 1747 
Q 2906 2381 2643 2742 
Q 2381 3103 1925 3103 
Q 1469 3103 1208 2742 
Q 947 2381 947 1747 
z
" transform="scale(0.015625)"/>
       <path id="DejaVuSans-67" d="M 2906 1791 
Q 2906 2416 2648 2759 
Q 2391 3103 1925 3103 
Q 1463 3103 1205 2759 
Q 947 2416 947 1791 
Q 947 1169 1205 825 
Q 1463 481 1925 481 
Q 2391 481 2648 825 
Q 2906 1169 2906 1791 
z
M 3481 434 
Q 3481 -459 3084 -895 
Q 2688 -1331 1869 -1331 
Q 1566 -1331 1297 -1286 
Q 1028 -1241 775 -1147 
L 775 -588 
Q 1028 -725 1275 -790 
Q 1522 -856 1778 -856 
Q 2344 -856 2625 -561 
Q 2906 -266 2906 331 
L 2906 616 
Q 2728 306 2450 153 
Q 2172 0 1784 0 
Q 1141 0 747 490 
Q 353 981 353 1791 
Q 353 2603 747 3093 
Q 1141 3584 1784 3584 
Q 2172 3584 2450 3431 
Q 2728 3278 2906 2969 
L 2906 3500 
L 3481 3500 
L 3481 434 
z
" transform="scale(0.015625)"/>
      </defs>
      <use xlink:href="#DejaVuSans-50"/>
      <use xlink:href="#DejaVuSans-68" x="60.302734"/>
      <use xlink:href="#DejaVuSans-61" x="123.681641"/>
      <use xlink:href="#DejaVuSans-73" x="184.960938"/>
      <use xlink:href="#DejaVuSans-65" x="237.060547"/>
      <use xlink:href="#DejaVuSans-30" x="298.583984"/>
      <use xlink:href="#DejaVuSans-20" x="362.207031"/>
      <use xlink:href="#DejaVuSans-5b" x="393.994141"/>
      <use xlink:href="#DejaVuSans-64" x="433.007812"/>
      <use xlink:href="#DejaVuSans-65" x="496.484375"/>
      <use xlink:href="#DejaVuSans-67" x="558.007812"/>
      <use xlink:href="#DejaVuSans-5d" x="621.484375"/>
     </g>
    </g>
   </g>
   <g id="line2d_17">
    <path d="M 66.806165 277.676625 
L 78.001149 276.460223 
L 89.196133 282.693843 
L 100.391118 284.707343 
L 111.586102 283.16392 
L 122.781086 285.680805 
L 133.976071 285.574999 
L 145.171055 295.410868 
L 156.366039 290.054603 
L 167.561024 290.353447 
L 178.756008 294.028667 
L 189.950992 56.295161 
L 201.145977 64.119807 
L 212.340961 293.578338 
L 223.535945 58.90296 
L 234.73093 268.581209 
L 245.925914 254.327488 
L 257.120898 239.128962 
L 268.315883 250.890075 
L 279.510867 247.128525 
L 290.705851 247.337781 
L 301.900836 245.717081 
L 313.09582 240.731475 
L 324.290804 250.642076 
L 335.485789 247.987425 
L 346.680773 251.9214 
L 357.875757 251.717635 
L 369.070742 249.677661 
L 380.265726 257.688271 
L 391.46071 256.512571 
" clip-path="url(#p3bda174229)" style="fill: none; stroke: #440154; stroke-width: 1.5; stroke-linecap: square"/>
   </g>
   <g id="line2d_18">
    <path d="M 66.806165 278.706958 
L 78.001149 279.501263 
L 89.196133 280.557152 
L 100.391118 283.375628 
L 111.586102 284.160455 
L 122.781086 286.80718 
L 133.976071 288.653588 
L 145.171055 291.295789 
L 156.366039 291.907265 
L 167.561024 54.785584 
L 178.756008 55.933137 
L 189.950992 61.137635 
L 201.145977 63.105357 
L 212.340961 63.349673 
L 223.535945 56.091732 
L 234.73093 278.618539 
L 245.925914 269.991202 
L 257.120898 248.235002 
L 268.315883 240.04039 
L 279.510867 240.097301 
L 290.705851 241.069697 
L 301.900836 244.150195 
L 313.09582 244.408471 
L 324.290804 245.59823 
L 335.485789 250.600167 
L 346.680773 249.557504 
L 357.875757 252.045881 
L 369.070742 252.902275 
L 380.265726 254.534005 
L 391.46071 255.02965 
" clip-path="url(#p3bda174229)" style="fill: none; stroke: #470d60; stroke-width: 1.5; stroke-linecap: square"/>
   </g>
   <g id="line2d_19">
    <path d="M 66.806165 277.871752 
L 78.001149 278.78894 
L 89.196133 281.415336 
L 100.391118 282.545332 
L 111.586102 284.265963 
L 122.781086 286.310755 
L 133.976071 288.194769 
L 145.171055 291.394712 
L 156.366039 293.607219 
L 167.561024 295.687341 
L 178.756008 56.69273 
L 189.950992 59.577394 
L 201.145977 61.146962 
L 212.340961 61.499776 
L 223.535945 58.86322 
L 234.73093 288.274496 
L 245.925914 260.230736 
L 257.120898 247.67615 
L 268.315883 242.087609 
L 279.510867 240.043251 
L 290.705851 241.969077 
L 301.900836 243.658383 
L 313.09582 243.32592 
L 324.290804 247.322945 
L 335.485789 249.11193 
L 346.680773 249.001482 
L 357.875757 251.512743 
L 369.070742 252.947833 
L 380.265726 255.078439 
L 391.46071 255.340927 
" clip-path="url(#p3bda174229)" style="fill: none; stroke: #481a6c; stroke-width: 1.5; stroke-linecap: square"/>
   </g>
   <g id="line2d_20">
    <path d="M 66.806165 277.995512 
L 78.001149 279.261408 
L 89.196133 280.730658 
L 100.391118 282.542481 
L 111.586102 283.846786 
L 122.781086 286.317586 
L 133.976071 288.177558 
L 145.171055 290.985487 
L 156.366039 294.089711 
L 167.561024 53.856 
L 178.756008 57.327275 
L 189.950992 59.432689 
L 201.145977 60.482237 
L 212.340961 62.636407 
L 223.535945 58.684148 
L 234.73093 286.720196 
L 245.925914 261.931809 
L 257.120898 244.89376 
L 268.315883 241.408136 
L 279.510867 239.558828 
L 290.705851 240.440021 
L 301.900836 243.68932 
L 313.09582 244.381169 
L 324.290804 246.889359 
L 335.485789 248.459228 
L 346.680773 250.16521 
L 357.875757 251.607977 
L 369.070742 253.185191 
L 380.265726 254.365486 
L 391.46071 255.56174 
" clip-path="url(#p3bda174229)" style="fill: none; stroke: #482576; stroke-width: 1.5; stroke-linecap: square"/>
   </g>
   <g id="line2d_21">
    <path d="M 66.806165 277.958243 
L 78.001149 279.257158 
L 89.196133 281.061839 
L 100.391118 282.802754 
L 111.586102 284.420909 
L 122.781086 286.379398 
L 133.976071 288.783057 
L 145.171055 291.196863 
L 156.366039 293.106181 
L 167.561024 54.186687 
L 178.756008 56.677452 
L 189.950992 59.703597 
L 201.145977 61.465509 
L 212.340961 61.251242 
L 223.535945 57.775702 
L 234.73093 285.363733 
L 245.925914 260.736798 
L 257.120898 247.205479 
L 268.315883 240.555473 
L 279.510867 240.271931 
L 290.705851 241.777962 
L 301.900836 242.155525 
L 313.09582 244.641004 
L 324.290804 246.255741 
L 335.485789 248.31283 
L 346.680773 250.002514 
L 357.875757 251.024748 
L 369.070742 253.058497 
L 380.265726 254.687164 
L 391.46071 255.782435 
" clip-path="url(#p3bda174229)" style="fill: none; stroke: #46307e; stroke-width: 1.5; stroke-linecap: square"/>
   </g>
   <g id="line2d_22">
    <path d="M 66.806165 278.177025 
L 78.001149 279.623629 
L 89.196133 281.386124 
L 100.391118 282.180959 
L 111.586102 284.481634 
L 122.781086 286.398502 
L 133.976071 288.685904 
L 145.171055 290.930648 
L 156.366039 293.303366 
L 167.561024 54.165731 
L 178.756008 56.717455 
L 189.950992 59.367364 
L 201.145977 62.296038 
L 212.340961 61.449621 
L 223.535945 59.250004 
L 234.73093 286.594907 
L 245.925914 257.752097 
L 257.120898 243.97145 
L 268.315883 240.427184 
L 279.510867 239.602836 
L 290.705851 241.004538 
L 301.900836 242.811146 
L 313.09582 244.101089 
L 324.290804 246.88693 
L 335.485789 248.641204 
L 346.680773 250.555017 
L 357.875757 251.752137 
L 369.070742 253.000773 
L 380.265726 254.470636 
L 391.46071 255.809108 
" clip-path="url(#p3bda174229)" style="fill: none; stroke: #443b84; stroke-width: 1.5; stroke-linecap: square"/>
   </g>
   <g id="line2d_23">
    <path d="M 66.806165 278.14635 
L 78.001149 279.483362 
L 89.196133 280.844841 
L 100.391118 282.49788 
L 111.586102 284.419225 
L 122.781086 286.645822 
L 133.976071 288.857714 
L 145.171055 291.044669 
L 156.366039 294.205454 
L 167.561024 54.068723 
L 178.756008 57.071762 
L 189.950992 58.867031 
L 201.145977 60.522739 
L 212.340961 62.474375 
L 223.535945 56.678911 
L 234.73093 283.415271 
L 245.925914 257.76703 
L 257.120898 243.61413 
L 268.315883 239.626903 
L 279.510867 239.390932 
L 290.705851 241.678467 
L 301.900836 243.277447 
L 313.09582 245.362121 
L 324.290804 246.634516 
L 335.485789 248.269581 
L 346.680773 250.014111 
L 357.875757 252.059751 
L 369.070742 253.126615 
L 380.265726 254.736286 
L 391.46071 255.84835 
" clip-path="url(#p3bda174229)" style="fill: none; stroke: #404588; stroke-width: 1.5; stroke-linecap: square"/>
   </g>
   <g id="line2d_24">
    <path d="M 66.806165 278.145772 
L 78.001149 279.785587 
L 89.196133 281.199243 
L 100.391118 282.671436 
L 111.586102 284.517828 
L 122.781086 286.569622 
L 133.976071 288.847459 
L 145.171055 291.022674 
L 156.366039 293.910461 
L 167.561024 54.757028 
L 178.756008 56.822291 
L 189.950992 59.260536 
L 201.145977 60.49647 
L 212.340961 59.960818 
L 223.535945 294.488119 
L 234.73093 277.134081 
L 245.925914 254.369632 
L 257.120898 244.008248 
L 268.315883 239.031371 
L 279.510867 240.094564 
L 290.705851 241.002138 
L 301.900836 242.916662 
L 313.09582 244.937795 
L 324.290804 246.485277 
L 335.485789 248.73158 
L 346.680773 250.498266 
L 357.875757 251.857808 
L 369.070742 253.016497 
L 380.265726 254.862775 
L 391.46071 255.997532 
" clip-path="url(#p3bda174229)" style="fill: none; stroke: #3c4f8a; stroke-width: 1.5; stroke-linecap: square"/>
   </g>
   <g id="line2d_25">
    <path d="M 66.806165 278.021133 
L 78.001149 279.615919 
L 89.196133 281.176484 
L 100.391118 282.834523 
L 111.586102 284.685641 
L 122.781086 286.673356 
L 133.976071 288.969022 
L 145.171055 290.986713 
L 156.366039 294.000159 
L 167.561024 53.958846 
L 178.756008 56.979299 
L 189.950992 59.013363 
L 201.145977 60.67857 
L 212.340961 60.637669 
L 223.535945 294.646466 
L 234.73093 273.512589 
L 245.925914 251.768055 
L 257.120898 243.03148 
L 268.315883 240.813967 
L 279.510867 240.463793 
L 290.705851 241.561397 
L 301.900836 243.317608 
L 313.09582 244.830895 
L 324.290804 246.878564 
L 335.485789 248.572884 
L 346.680773 250.372807 
L 357.875757 251.902391 
L 369.070742 253.21445 
L 380.265726 254.884208 
L 391.46071 256.038864 
" clip-path="url(#p3bda174229)" style="fill: none; stroke: #38598c; stroke-width: 1.5; stroke-linecap: square"/>
   </g>
   <g id="line2d_26">
    <path d="M 66.806165 278.300264 
L 78.001149 279.81511 
L 89.196133 281.162965 
L 100.391118 282.707999 
L 111.586102 284.686307 
L 122.781086 286.549933 
L 133.976071 289.09165 
L 145.171055 291.280682 
L 156.366039 294.177954 
L 167.561024 54.340268 
L 178.756008 56.565584 
L 189.950992 59.195082 
L 201.145977 59.66836 
L 212.340961 56.759322 
L 223.535945 288.937951 
L 234.73093 266.487362 
L 245.925914 250.807567 
L 257.120898 242.076087 
L 268.315883 240.411354 
L 279.510867 241.036348 
L 290.705851 242.158936 
L 301.900836 243.840762 
L 313.09582 245.073395 
L 324.290804 246.676038 
L 335.485789 248.701335 
L 346.680773 250.331873 
L 357.875757 251.870497 
L 369.070742 253.276602 
L 380.265726 254.915921 
L 391.46071 256.045749 
" clip-path="url(#p3bda174229)" style="fill: none; stroke: #33628d; stroke-width: 1.5; stroke-linecap: square"/>
   </g>
   <g id="line2d_27">
    <path d="M 66.806165 278.367711 
L 78.001149 279.963429 
L 89.196133 281.445076 
L 100.391118 282.87969 
L 111.586102 284.806622 
L 122.781086 286.73563 
L 133.976071 289.152282 
L 145.171055 291.739125 
L 156.366039 293.931545 
L 167.561024 54.627716 
L 178.756008 56.390842 
L 189.950992 58.365519 
L 201.145977 60.565321 
L 212.340961 58.757743 
L 223.535945 292.770611 
L 234.73093 271.262267 
L 245.925914 251.155196 
L 257.120898 242.027976 
L 268.315883 240.845317 
L 279.510867 241.379034 
L 290.705851 242.221663 
L 301.900836 243.90809 
L 313.09582 245.486493 
L 324.290804 247.055982 
L 335.485789 248.865376 
L 346.680773 250.453966 
L 357.875757 251.800161 
L 369.070742 253.669027 
L 380.265726 255.041014 
L 391.46071 256.038164 
" clip-path="url(#p3bda174229)" style="fill: none; stroke: #2f6b8e; stroke-width: 1.5; stroke-linecap: square"/>
   </g>
   <g id="line2d_28">
    <path d="M 66.806165 278.378836 
L 78.001149 279.814316 
L 89.196133 281.638305 
L 100.391118 283.299954 
L 111.586102 284.855463 
L 122.781086 287.067619 
L 133.976071 289.361044 
L 145.171055 291.822876 
L 156.366039 294.346443 
L 167.561024 54.520479 
L 178.756008 56.392076 
L 189.950992 57.977645 
L 201.145977 57.239542 
L 212.340961 291.022533 
L 223.535945 272.191459 
L 234.73093 254.267569 
L 245.925914 246.444795 
L 257.120898 242.981419 
L 268.315883 241.842371 
L 279.510867 241.543218 
L 290.705851 242.746286 
L 301.900836 244.435019 
L 313.09582 245.745093 
L 324.290804 247.436551 
L 335.485789 249.1876 
L 346.680773 250.617988 
L 357.875757 251.935359 
L 369.070742 253.359082 
L 380.265726 254.75689 
L 391.46071 256.212967 
" clip-path="url(#p3bda174229)" style="fill: none; stroke: #2c738e; stroke-width: 1.5; stroke-linecap: square"/>
   </g>
   <g id="line2d_29">
    <path d="M 66.806165 278.350254 
L 78.001149 280.086681 
L 89.196133 281.502295 
L 100.391118 283.249636 
L 111.586102 284.933166 
L 122.781086 287.05187 
L 133.976071 289.635691 
L 145.171055 291.855611 
L 156.366039 293.966316 
L 167.561024 54.444025 
L 178.756008 55.769988 
L 189.950992 56.124117 
L 201.145977 291.091544 
L 212.340961 277.465445 
L 223.535945 256.630508 
L 234.73093 247.476615 
L 245.925914 244.091377 
L 257.120898 242.417654 
L 268.315883 242.740172 
L 279.510867 242.107788 
L 290.705851 243.23709 
L 301.900836 244.577639 
L 313.09582 246.169762 
L 324.290804 247.970091 
L 335.485789 249.267466 
L 346.680773 250.868522 
L 357.875757 252.335198 
L 369.070742 253.53522 
L 380.265726 254.714375 
L 391.46071 256.25857 
" clip-path="url(#p3bda174229)" style="fill: none; stroke: #297b8e; stroke-width: 1.5; stroke-linecap: square"/>
   </g>
   <g id="line2d_30">
    <path d="M 66.806165 278.622201 
L 78.001149 279.989886 
L 89.196133 281.345159 
L 100.391118 283.465032 
L 111.586102 285.350448 
L 122.781086 287.464057 
L 133.976071 289.926513 
L 145.171055 291.921638 
L 156.366039 294.252021 
L 167.561024 54.5067 
L 178.756008 54.352217 
L 189.950992 293.322014 
L 201.145977 275.819778 
L 212.340961 259.278284 
L 223.535945 250.028614 
L 234.73093 246.120127 
L 245.925914 243.466754 
L 257.120898 243.36492 
L 268.315883 243.919311 
L 279.510867 243.404326 
L 290.705851 243.883851 
L 301.900836 244.986558 
L 313.09582 246.518331 
L 324.290804 248.283508 
L 335.485789 249.429801 
L 346.680773 251.015422 
L 357.875757 252.324625 
L 369.070742 253.645476 
L 380.265726 254.989838 
L 391.46071 256.129322 
" clip-path="url(#p3bda174229)" style="fill: none; stroke: #25838e; stroke-width: 1.5; stroke-linecap: square"/>
   </g>
   <g id="line2d_31">
    <path d="M 66.806165 278.491131 
L 78.001149 279.93933 
L 89.196133 281.736044 
L 100.391118 283.352286 
L 111.586102 285.642242 
L 122.781086 287.962793 
L 133.976071 290.205381 
L 145.171055 292.443351 
L 156.366039 294.241552 
L 167.561024 295.203155 
L 178.756008 292.665661 
L 189.950992 281.283395 
L 201.145977 265.657316 
L 212.340961 255.9077 
L 223.535945 248.184927 
L 234.73093 243.424129 
L 245.925914 242.985131 
L 257.120898 243.480817 
L 268.315883 244.119241 
L 279.510867 244.850756 
L 290.705851 245.802353 
L 301.900836 246.589554 
L 313.09582 247.182796 
L 324.290804 248.286607 
L 335.485789 250.086944 
L 346.680773 251.383678 
L 357.875757 252.53659 
L 369.070742 254.032096 
L 380.265726 255.260516 
L 391.46071 256.238454 
" clip-path="url(#p3bda174229)" style="fill: none; stroke: #228c8d; stroke-width: 1.5; stroke-linecap: square"/>
   </g>
   <g id="line2d_32">
    <path d="M 66.806165 278.970607 
L 78.001149 280.284473 
L 89.196133 281.809896 
L 100.391118 283.90582 
L 111.586102 286.064316 
L 122.781086 288.215561 
L 133.976071 290.614328 
L 145.171055 293.483018 
L 156.366039 295.162693 
L 167.561024 294.782743 
L 178.756008 289.282292 
L 189.950992 274.130139 
L 201.145977 255.154158 
L 212.340961 247.554037 
L 223.535945 243.094832 
L 234.73093 242.871228 
L 245.925914 243.247529 
L 257.120898 243.717527 
L 268.315883 245.016913 
L 279.510867 245.90549 
L 290.705851 246.751054 
L 301.900836 246.95673 
L 313.09582 247.970687 
L 324.290804 248.918151 
L 335.485789 250.013795 
L 346.680773 251.407879 
L 357.875757 252.755473 
L 369.070742 254.234943 
L 380.265726 255.360435 
L 391.46071 256.391746 
" clip-path="url(#p3bda174229)" style="fill: none; stroke: #1f948c; stroke-width: 1.5; stroke-linecap: square"/>
   </g>
   <g id="line2d_33">
    <path d="M 66.806165 278.97589 
L 78.001149 280.733083 
L 89.196133 282.493129 
L 100.391118 284.187375 
L 111.586102 286.116048 
L 122.781086 288.668109 
L 133.976071 291.285634 
L 145.171055 293.961437 
L 156.366039 295.542219 
L 167.561024 292.318191 
L 178.756008 286.779187 
L 189.950992 263.934546 
L 201.145977 249.558334 
L 212.340961 242.879499 
L 223.535945 241.369187 
L 234.73093 242.403918 
L 245.925914 243.101391 
L 257.120898 244.1301 
L 268.315883 245.189888 
L 279.510867 245.837669 
L 290.705851 247.117875 
L 301.900836 247.921806 
L 313.09582 248.860174 
L 324.290804 249.802246 
L 335.485789 250.144124 
L 346.680773 251.636035 
L 357.875757 252.677298 
L 369.070742 254.092071 
L 380.265726 255.17651 
L 391.46071 256.562565 
" clip-path="url(#p3bda174229)" style="fill: none; stroke: #1e9d89; stroke-width: 1.5; stroke-linecap: square"/>
   </g>
   <g id="line2d_34">
    <path d="M 66.806165 279.073785 
L 78.001149 280.846074 
L 89.196133 282.411687 
L 100.391118 284.446501 
L 111.586102 286.594082 
L 122.781086 289.75052 
L 133.976071 292.764438 
L 145.171055 295.159108 
L 156.366039 53.96124 
L 167.561024 292.33327 
L 178.756008 284.161553 
L 189.950992 256.023787 
L 201.145977 244.016838 
L 212.340961 241.861188 
L 223.535945 241.208547 
L 234.73093 241.589824 
L 245.925914 242.859752 
L 257.120898 244.016088 
L 268.315883 245.392887 
L 279.510867 245.885509 
L 290.705851 247.096552 
L 301.900836 248.676474 
L 313.09582 249.766071 
L 324.290804 250.042975 
L 335.485789 250.996615 
L 346.680773 251.896459 
L 357.875757 253.137379 
L 369.070742 254.64126 
L 380.265726 255.643609 
L 391.46071 256.494439 
" clip-path="url(#p3bda174229)" style="fill: none; stroke: #21a585; stroke-width: 1.5; stroke-linecap: square"/>
   </g>
   <g id="line2d_35">
    <path d="M 66.806165 279.372359 
L 78.001149 280.870352 
L 89.196133 282.621212 
L 100.391118 285.022305 
L 111.586102 287.49894 
L 122.781086 290.673973 
L 133.976071 294.233631 
L 145.171055 54.710058 
L 156.366039 55.407148 
L 167.561024 293.242508 
L 178.756008 271.220014 
L 189.950992 252.345431 
L 201.145977 242.963227 
L 212.340961 240.395792 
L 223.535945 240.244551 
L 234.73093 241.208463 
L 245.925914 243.029302 
L 257.120898 243.890545 
L 268.315883 245.577522 
L 279.510867 246.746452 
L 290.705851 247.338445 
L 301.900836 249.015782 
L 313.09582 250.151176 
L 324.290804 251.355546 
L 335.485789 251.565025 
L 346.680773 252.576997 
L 357.875757 253.632854 
L 369.070742 254.612853 
L 380.265726 255.626888 
L 391.46071 256.678714 
" clip-path="url(#p3bda174229)" style="fill: none; stroke: #26ad81; stroke-width: 1.5; stroke-linecap: square"/>
   </g>
   <g id="line2d_36">
    <path d="M 66.806165 279.84607 
L 78.001149 281.449868 
L 89.196133 283.485065 
L 100.391118 285.980903 
L 111.586102 288.635263 
L 122.781086 291.927184 
L 133.976071 295.776 
L 145.171055 56.22499 
L 156.366039 55.566756 
L 167.561024 291.167031 
L 178.756008 264.840702 
L 189.950992 248.679526 
L 201.145977 241.11793 
L 212.340961 240.109825 
L 223.535945 240.306682 
L 234.73093 241.107586 
L 245.925914 242.863881 
L 257.120898 244.245078 
L 268.315883 245.462992 
L 279.510867 247.134635 
L 290.705851 247.86563 
L 301.900836 249.498539 
L 313.09582 250.977434 
L 324.290804 251.249312 
L 335.485789 251.998087 
L 346.680773 253.076818 
L 357.875757 253.667517 
L 369.070742 254.704896 
L 380.265726 255.730396 
L 391.46071 256.803983 
" clip-path="url(#p3bda174229)" style="fill: none; stroke: #31b57b; stroke-width: 1.5; stroke-linecap: square"/>
   </g>
   <g id="line2d_37">
    <path d="M 66.806165 280.429875 
L 78.001149 282.531885 
L 89.196133 284.765564 
L 100.391118 287.884171 
L 111.586102 290.725638 
L 122.781086 294.045573 
L 133.976071 55.322274 
L 145.171055 57.213733 
L 156.366039 57.099039 
L 167.561024 289.144823 
L 178.756008 266.981607 
L 189.950992 246.852464 
L 201.145977 241.142367 
L 212.340961 238.869091 
L 223.535945 240.049139 
L 234.73093 241.426846 
L 245.925914 242.667633 
L 257.120898 244.438608 
L 268.315883 245.626582 
L 279.510867 247.25719 
L 290.705851 248.192191 
L 301.900836 249.33698 
L 313.09582 250.89026 
L 324.290804 251.975927 
L 335.485789 253.347811 
L 346.680773 253.703794 
L 357.875757 254.761438 
L 369.070742 255.394412 
L 380.265726 256.141272 
L 391.46071 257.377427 
" clip-path="url(#p3bda174229)" style="fill: none; stroke: #3fbc73; stroke-width: 1.5; stroke-linecap: square"/>
   </g>
   <g id="line2d_38">
    <path d="M 66.806165 280.449066 
L 78.001149 282.237536 
L 89.196133 284.92726 
L 100.391118 288.287213 
L 111.586102 291.948535 
L 122.781086 294.39921 
L 133.976071 56.121904 
L 145.171055 58.965321 
L 156.366039 56.510707 
L 167.561024 288.758876 
L 178.756008 261.378258 
L 189.950992 246.52447 
L 201.145977 239.493835 
L 212.340961 238.92973 
L 223.535945 239.5144 
L 234.73093 241.081353 
L 245.925914 243.019058 
L 257.120898 244.480261 
L 268.315883 246.082407 
L 279.510867 247.345854 
L 290.705851 248.54163 
L 301.900836 249.602344 
L 313.09582 251.008862 
L 324.290804 252.06613 
L 335.485789 253.349613 
L 346.680773 254.024833 
L 357.875757 254.724981 
L 369.070742 255.564823 
L 380.265726 256.447145 
L 391.46071 257.254483 
" clip-path="url(#p3bda174229)" style="fill: none; stroke: #50c46a; stroke-width: 1.5; stroke-linecap: square"/>
   </g>
   <g id="line2d_39">
    <path d="M 66.806165 280.913567 
L 78.001149 283.395683 
L 89.196133 286.796017 
L 100.391118 289.642742 
L 111.586102 293.075472 
L 122.781086 54.340405 
L 133.976071 58.040216 
L 145.171055 59.135333 
L 156.366039 57.343248 
L 167.561024 288.238087 
L 178.756008 261.45805 
L 189.950992 244.533729 
L 201.145977 239.257062 
L 212.340961 238.495358 
L 223.535945 239.20524 
L 234.73093 240.907546 
L 245.925914 242.686833 
L 257.120898 244.345656 
L 268.315883 245.980663 
L 279.510867 247.17645 
L 290.705851 249.184965 
L 301.900836 250.010291 
L 313.09582 251.008036 
L 324.290804 252.601512 
L 335.485789 253.551491 
L 346.680773 254.653531 
L 357.875757 255.459063 
L 369.070742 256.244395 
L 380.265726 256.680938 
L 391.46071 257.532201 
" clip-path="url(#p3bda174229)" style="fill: none; stroke: #63cb5f; stroke-width: 1.5; stroke-linecap: square"/>
   </g>
   <g id="line2d_40">
    <path d="M 66.806165 282.178597 
L 78.001149 284.508872 
L 89.196133 287.540892 
L 100.391118 290.509737 
L 111.586102 294.015945 
L 122.781086 55.747451 
L 133.976071 58.563187 
L 145.171055 59.795757 
L 156.366039 57.479274 
L 167.561024 287.137978 
L 178.756008 259.825829 
L 189.950992 244.392589 
L 201.145977 239.307513 
L 212.340961 238.23466 
L 223.535945 239.157583 
L 234.73093 240.987856 
L 245.925914 242.76086 
L 257.120898 244.488201 
L 268.315883 246.225826 
L 279.510867 247.881977 
L 290.705851 249.135633 
L 301.900836 250.429403 
L 313.09582 251.408417 
L 324.290804 252.49695 
L 335.485789 253.936308 
L 346.680773 254.904829 
L 357.875757 255.928973 
L 369.070742 256.366207 
L 380.265726 257.393109 
L 391.46071 258.095408 
" clip-path="url(#p3bda174229)" style="fill: none; stroke: #77d153; stroke-width: 1.5; stroke-linecap: square"/>
   </g>
   <g id="line2d_41">
    <path d="M 66.806165 283.129235 
L 78.001149 285.23207 
L 89.196133 287.580036 
L 100.391118 290.986083 
L 111.586102 295.115064 
L 122.781086 56.598676 
L 133.976071 59.036926 
L 145.171055 59.892113 
L 156.366039 57.497419 
L 167.561024 288.937526 
L 178.756008 261.7188 
L 189.950992 242.742007 
L 201.145977 238.846533 
L 212.340961 238.144204 
L 223.535945 239.209167 
L 234.73093 240.674551 
L 245.925914 242.685157 
L 257.120898 244.613758 
L 268.315883 245.979587 
L 279.510867 247.707148 
L 290.705851 249.113089 
L 301.900836 250.458252 
L 313.09582 251.596209 
L 324.290804 252.5425 
L 335.485789 254.025676 
L 346.680773 255.054027 
L 357.875757 255.734573 
L 369.070742 256.69181 
L 380.265726 257.467627 
L 391.46071 258.1363 
" clip-path="url(#p3bda174229)" style="fill: none; stroke: #8bd646; stroke-width: 1.5; stroke-linecap: square"/>
   </g>
   <g id="line2d_42">
    <path d="M 66.806165 283.384967 
L 78.001149 285.839637 
L 89.196133 289.614222 
L 100.391118 292.53819 
L 111.586102 54.192763 
L 122.781086 57.144437 
L 133.976071 58.995718 
L 145.171055 60.24355 
L 156.366039 58.74861 
L 167.561024 288.145965 
L 178.756008 261.357962 
L 189.950992 243.624113 
L 201.145977 238.684488 
L 212.340961 238.11176 
L 223.535945 239.323397 
L 234.73093 240.7769 
L 245.925914 242.603738 
L 257.120898 244.442883 
L 268.315883 246.068878 
L 279.510867 247.661409 
L 290.705851 249.155998 
L 301.900836 250.512155 
L 313.09582 251.76564 
L 324.290804 252.89591 
L 335.485789 254.180275 
L 346.680773 254.997409 
L 357.875757 256.424307 
L 369.070742 257.106089 
L 380.265726 257.803933 
L 391.46071 258.673749 
" clip-path="url(#p3bda174229)" style="fill: none; stroke: #a2da37; stroke-width: 1.5; stroke-linecap: square"/>
   </g>
   <g id="line2d_43">
    <path d="M 66.806165 284.059603 
L 78.001149 286.840534 
L 89.196133 289.889117 
L 100.391118 293.713348 
L 111.586102 53.978706 
L 122.781086 57.252038 
L 133.976071 59.216504 
L 145.171055 60.470513 
L 156.366039 58.95669 
L 167.561024 290.508931 
L 178.756008 261.088931 
L 189.950992 242.83232 
L 201.145977 238.269734 
L 212.340961 238.037877 
L 223.535945 239.062693 
L 234.73093 240.838295 
L 245.925914 242.560777 
L 257.120898 244.454877 
L 268.315883 246.296809 
L 279.510867 247.750702 
L 290.705851 249.292743 
L 301.900836 250.864758 
L 313.09582 252.088307 
L 324.290804 253.063672 
L 335.485789 254.221227 
L 346.680773 255.344507 
L 357.875757 256.140177 
L 369.070742 257.296575 
L 380.265726 257.81106 
L 391.46071 258.807529 
" clip-path="url(#p3bda174229)" style="fill: none; stroke: #bade28; stroke-width: 1.5; stroke-linecap: square"/>
   </g>
   <g id="line2d_44">
    <path d="M 66.806165 284.494935 
L 78.001149 287.433009 
L 89.196133 291.090029 
L 100.391118 293.989213 
L 111.586102 54.404412 
L 122.781086 57.040944 
L 133.976071 59.321308 
L 145.171055 60.709984 
L 156.366039 59.338704 
L 167.561024 290.631449 
L 178.756008 263.851768 
L 189.950992 243.124097 
L 201.145977 237.941379 
L 212.340961 237.959003 
L 223.535945 239.200752 
L 234.73093 240.820818 
L 245.925914 242.558919 
L 257.120898 244.322831 
L 268.315883 246.240552 
L 279.510867 247.880927 
L 290.705851 249.386578 
L 301.900836 250.725547 
L 313.09582 252.252559 
L 324.290804 253.164715 
L 335.485789 254.356243 
L 346.680773 255.477199 
L 357.875757 256.405548 
L 369.070742 257.398738 
L 380.265726 258.125757 
L 391.46071 258.922071 
" clip-path="url(#p3bda174229)" style="fill: none; stroke: #d2e21b; stroke-width: 1.5; stroke-linecap: square"/>
   </g>
   <g id="line2d_45">
    <path d="M 66.806165 285.317077 
L 78.001149 288.665983 
L 89.196133 291.580517 
L 100.391118 294.172087 
L 111.586102 54.509965 
L 122.781086 57.046797 
L 133.976071 59.581312 
L 145.171055 60.958095 
L 156.366039 59.409831 
L 167.561024 290.836878 
L 178.756008 261.83384 
L 189.950992 242.783695 
L 201.145977 237.883882 
L 212.340961 237.851418 
L 223.535945 239.125884 
L 234.73093 240.771005 
L 245.925914 242.763533 
L 257.120898 244.37389 
L 268.315883 246.161796 
L 279.510867 247.716432 
L 290.705851 249.378566 
L 301.900836 251.099335 
L 313.09582 252.39806 
L 324.290804 253.486844 
L 335.485789 254.431241 
L 346.680773 255.559089 
L 357.875757 256.674187 
L 369.070742 257.531267 
L 380.265726 258.371179 
L 391.46071 259.310266 
" clip-path="url(#p3bda174229)" style="fill: none; stroke: #eae51a; stroke-width: 1.5; stroke-linecap: square"/>
   </g>
   <g id="line2d_46">
    <path d="M 66.806165 286.077832 
L 78.001149 289.109956 
L 89.196133 291.448023 
L 100.391118 294.166916 
L 111.586102 54.638495 
L 122.781086 57.120633 
L 133.976071 59.521742 
L 145.171055 61.17673 
L 156.366039 59.81007 
L 167.561024 291.627437 
L 178.756008 263.932106 
L 189.950992 243.232919 
L 201.145977 237.918141 
L 212.340961 237.561431 
L 223.535945 238.986561 
L 234.73093 240.734629 
L 245.925914 242.803095 
L 257.120898 244.273645 
L 268.315883 246.25674 
L 279.510867 247.81061 
L 290.705851 249.52904 
L 301.900836 251.028351 
L 313.09582 252.326729 
L 324.290804 253.595691 
L 335.485789 254.725791 
L 346.680773 255.751866 
L 357.875757 256.8263 
L 369.070742 257.778824 
L 380.265726 258.672206 
L 391.46071 259.347484 
" clip-path="url(#p3bda174229)" style="fill: none; stroke: #fde725; stroke-width: 1.5; stroke-linecap: square"/>
   </g>
   <g id="patch_3">
    <path d="M 50.573438 307.872 
L 50.573438 41.76 
" style="fill: none; stroke: #000000; stroke-width: 0.8; stroke-linejoin: miter; stroke-linecap: square"/>
   </g>
   <g id="patch_4">
    <path d="M 407.693438 307.872 
L 407.693438 41.76 
" style="fill: none; stroke: #000000; stroke-width: 0.8; stroke-linejoin: miter; stroke-linecap: square"/>
   </g>
   <g id="patch_5">
    <path d="M 50.573437 307.872 
L 407.693437 307.872 
" style="fill: none; stroke: #000000; stroke-width: 0.8; stroke-linejoin: miter; stroke-linecap: square"/>
   </g>
   <g id="patch_6">
    <path d="M 50.573437 41.76 
L 407.693437 41.76 
" style="fill: none; stroke: #000000; stroke-width: 0.8; stroke-linejoin: miter; stroke-linecap: square"/>
   </g>
   <g id="legend_1">
    <g id="patch_7">
     <path d="M 427.549438 307.872 
L 647.796312 307.872 
Q 649.796312 307.872 649.796312 305.872 
L 649.796312 145.412625 
Q 649.796312 143.412625 647.796312 143.412625 
L 427.549438 143.412625 
Q 425.549438 143.412625 425.549438 145.412625 
L 425.549438 305.872 
Q 425.549438 307.872 427.549438 307.872 
z
" style="fill: #ffffff; opacity: 0.8; stroke: #cccccc; stroke-linejoin: miter"/>
    </g>
    <g id="text_20">
     <!-- Readout pulse amplitude () -->
     <g transform="translate(469.572094 155.011063) scale(0.1 -0.1)">
      <defs>
       <path id="DejaVuSans-52" d="M 2841 2188 
Q 3044 2119 3236 1894 
Q 3428 1669 3622 1275 
L 4263 0 
L 3584 0 
L 2988 1197 
Q 2756 1666 2539 1819 
Q 2322 1972 1947 1972 
L 1259 1972 
L 1259 0 
L 628 0 
L 628 4666 
L 2053 4666 
Q 2853 4666 3247 4331 
Q 3641 3997 3641 3322 
Q 3641 2881 3436 2590 
Q 3231 2300 2841 2188 
z
M 1259 4147 
L 1259 2491 
L 2053 2491 
Q 2509 2491 2742 2702 
Q 2975 2913 2975 3322 
Q 2975 3731 2742 3939 
Q 2509 4147 2053 4147 
L 1259 4147 
z
" transform="scale(0.015625)"/>
       <path id="DejaVuSans-6f" d="M 1959 3097 
Q 1497 3097 1228 2736 
Q 959 2375 959 1747 
Q 959 1119 1226 758 
Q 1494 397 1959 397 
Q 2419 397 2687 759 
Q 2956 1122 2956 1747 
Q 2956 2369 2687 2733 
Q 2419 3097 1959 3097 
z
M 1959 3584 
Q 2709 3584 3137 3096 
Q 3566 2609 3566 1747 
Q 3566 888 3137 398 
Q 2709 -91 1959 -91 
Q 1206 -91 779 398 
Q 353 888 353 1747 
Q 353 2609 779 3096 
Q 1206 3584 1959 3584 
z
" transform="scale(0.015625)"/>
       <path id="DejaVuSans-74" d="M 1172 4494 
L 1172 3500 
L 2356 3500 
L 2356 3053 
L 1172 3053 
L 1172 1153 
Q 1172 725 1289 603 
Q 1406 481 1766 481 
L 2356 481 
L 2356 0 
L 1766 0 
Q 1100 0 847 248 
Q 594 497 594 1153 
L 594 3053 
L 172 3053 
L 172 3500 
L 594 3500 
L 594 4494 
L 1172 4494 
z
" transform="scale(0.015625)"/>
       <path id="DejaVuSans-70" d="M 1159 525 
L 1159 -1331 
L 581 -1331 
L 581 3500 
L 1159 3500 
L 1159 2969 
Q 1341 3281 1617 3432 
Q 1894 3584 2278 3584 
Q 2916 3584 3314 3078 
Q 3713 2572 3713 1747 
Q 3713 922 3314 415 
Q 2916 -91 2278 -91 
Q 1894 -91 1617 61 
Q 1341 213 1159 525 
z
M 3116 1747 
Q 3116 2381 2855 2742 
Q 2594 3103 2138 3103 
Q 1681 3103 1420 2742 
Q 1159 2381 1159 1747 
Q 1159 1113 1420 752 
Q 1681 391 2138 391 
Q 2594 391 2855 752 
Q 3116 1113 3116 1747 
z
" transform="scale(0.015625)"/>
       <path id="DejaVuSans-6c" d="M 603 4863 
L 1178 4863 
L 1178 0 
L 603 0 
L 603 4863 
z
" transform="scale(0.015625)"/>
       <path id="DejaVuSans-6d" d="M 3328 2828 
Q 3544 3216 3844 3400 
Q 4144 3584 4550 3584 
Q 5097 3584 5394 3201 
Q 5691 2819 5691 2113 
L 5691 0 
L 5113 0 
L 5113 2094 
Q 5113 2597 4934 2840 
Q 4756 3084 4391 3084 
Q 3944 3084 3684 2787 
Q 3425 2491 3425 1978 
L 3425 0 
L 2847 0 
L 2847 2094 
Q 2847 2600 2669 2842 
Q 2491 3084 2119 3084 
Q 1678 3084 1418 2786 
Q 1159 2488 1159 1978 
L 1159 0 
L 581 0 
L 581 3500 
L 1159 3500 
L 1159 2956 
Q 1356 3278 1631 3431 
Q 1906 3584 2284 3584 
Q 2666 3584 2933 3390 
Q 3200 3197 3328 2828 
z
" transform="scale(0.015625)"/>
       <path id="DejaVuSans-69" d="M 603 3500 
L 1178 3500 
L 1178 0 
L 603 0 
L 603 3500 
z
M 603 4863 
L 1178 4863 
L 1178 4134 
L 603 4134 
L 603 4863 
z
" transform="scale(0.015625)"/>
       <path id="DejaVuSans-28" d="M 1984 4856 
Q 1566 4138 1362 3434 
Q 1159 2731 1159 2009 
Q 1159 1288 1364 580 
Q 1569 -128 1984 -844 
L 1484 -844 
Q 1016 -109 783 600 
Q 550 1309 550 2009 
Q 550 2706 781 3412 
Q 1013 4119 1484 4856 
L 1984 4856 
z
" transform="scale(0.015625)"/>
       <path id="DejaVuSans-29" d="M 513 4856 
L 1013 4856 
Q 1481 4119 1714 3412 
Q 1947 2706 1947 2009 
Q 1947 1309 1714 600 
Q 1481 -109 1013 -844 
L 513 -844 
Q 928 -128 1133 580 
Q 1338 1288 1338 2009 
Q 1338 2731 1133 3434 
Q 928 4138 513 4856 
z
" transform="scale(0.015625)"/>
      </defs>
      <use xlink:href="#DejaVuSans-52"/>
      <use xlink:href="#DejaVuSans-65" x="64.982422"/>
      <use xlink:href="#DejaVuSans-61" x="126.505859"/>
      <use xlink:href="#DejaVuSans-64" x="187.785156"/>
      <use xlink:href="#DejaVuSans-6f" x="251.261719"/>
      <use xlink:href="#DejaVuSans-75" x="312.443359"/>
      <use xlink:href="#DejaVuSans-74" x="375.822266"/>
      <use xlink:href="#DejaVuSans-20" x="415.03125"/>
      <use xlink:href="#DejaVuSans-70" x="446.818359"/>
      <use xlink:href="#DejaVuSans-75" x="510.294922"/>
      <use xlink:href="#DejaVuSans-6c" x="573.673828"/>
      <use xlink:href="#DejaVuSans-73" x="601.457031"/>
      <use xlink:href="#DejaVuSans-65" x="653.556641"/>
      <use xlink:href="#DejaVuSans-20" x="715.080078"/>
      <use xlink:href="#DejaVuSans-61" x="746.867188"/>
      <use xlink:href="#DejaVuSans-6d" x="808.146484"/>
      <use xlink:href="#DejaVuSans-70" x="905.558594"/>
      <use xlink:href="#DejaVuSans-6c" x="969.035156"/>
      <use xlink:href="#DejaVuSans-69" x="996.818359"/>
      <use xlink:href="#DejaVuSans-74" x="1024.601562"/>
      <use xlink:href="#DejaVuSans-75" x="1063.810547"/>
      <use xlink:href="#DejaVuSans-64" x="1127.189453"/>
      <use xlink:href="#DejaVuSans-65" x="1190.666016"/>
      <use xlink:href="#DejaVuSans-20" x="1252.189453"/>
      <use xlink:href="#DejaVuSans-28" x="1283.976562"/>
      <use xlink:href="#DejaVuSans-29" x="1322.990234"/>
     </g>
    </g>
    <g id="line2d_47">
     <path d="M 429.549438 166.189188 
L 439.549438 166.189188 
L 449.549438 166.189188 
" style="fill: none; stroke: #440154; stroke-width: 1.5; stroke-linecap: square"/>
    </g>
    <g id="text_21">
     <!-- 0.01 -->
     <g transform="translate(457.549438 169.689188) scale(0.1 -0.1)">
      <use xlink:href="#DejaVuSans-30"/>
      <use xlink:href="#DejaVuSans-2e" x="63.623047"/>
      <use xlink:href="#DejaVuSans-30" x="95.410156"/>
      <use xlink:href="#DejaVuSans-31" x="159.033203"/>
     </g>
    </g>
    <g id="line2d_48">
     <path d="M 429.549438 180.867313 
L 439.549438 180.867313 
L 449.549438 180.867313 
" style="fill: none; stroke: #470d60; stroke-width: 1.5; stroke-linecap: square"/>
    </g>
    <g id="text_22">
     <!-- 0.0338 -->
     <g transform="translate(457.549438 184.367313) scale(0.1 -0.1)">
      <defs>
       <path id="DejaVuSans-33" d="M 2597 2516 
Q 3050 2419 3304 2112 
Q 3559 1806 3559 1356 
Q 3559 666 3084 287 
Q 2609 -91 1734 -91 
Q 1441 -91 1130 -33 
Q 819 25 488 141 
L 488 750 
Q 750 597 1062 519 
Q 1375 441 1716 441 
Q 2309 441 2620 675 
Q 2931 909 2931 1356 
Q 2931 1769 2642 2001 
Q 2353 2234 1838 2234 
L 1294 2234 
L 1294 2753 
L 1863 2753 
Q 2328 2753 2575 2939 
Q 2822 3125 2822 3475 
Q 2822 3834 2567 4026 
Q 2313 4219 1838 4219 
Q 1578 4219 1281 4162 
Q 984 4106 628 3988 
L 628 4550 
Q 988 4650 1302 4700 
Q 1616 4750 1894 4750 
Q 2613 4750 3031 4423 
Q 3450 4097 3450 3541 
Q 3450 3153 3228 2886 
Q 3006 2619 2597 2516 
z
" transform="scale(0.015625)"/>
      </defs>
      <use xlink:href="#DejaVuSans-30"/>
      <use xlink:href="#DejaVuSans-2e" x="63.623047"/>
      <use xlink:href="#DejaVuSans-30" x="95.410156"/>
      <use xlink:href="#DejaVuSans-33" x="159.033203"/>
      <use xlink:href="#DejaVuSans-33" x="222.65625"/>
      <use xlink:href="#DejaVuSans-38" x="286.279297"/>
     </g>
    </g>
    <g id="line2d_49">
     <path d="M 429.549438 195.545438 
L 439.549438 195.545438 
L 449.549438 195.545438 
" style="fill: none; stroke: #481a6c; stroke-width: 1.5; stroke-linecap: square"/>
    </g>
    <g id="text_23">
     <!-- 0.0576 -->
     <g transform="translate(457.549438 199.045438) scale(0.1 -0.1)">
      <use xlink:href="#DejaVuSans-30"/>
      <use xlink:href="#DejaVuSans-2e" x="63.623047"/>
      <use xlink:href="#DejaVuSans-30" x="95.410156"/>
      <use xlink:href="#DejaVuSans-35" x="159.033203"/>
      <use xlink:href="#DejaVuSans-37" x="222.65625"/>
      <use xlink:href="#DejaVuSans-36" x="286.279297"/>
     </g>
    </g>
    <g id="line2d_50">
     <path d="M 429.549438 210.223563 
L 439.549438 210.223563 
L 449.549438 210.223563 
" style="fill: none; stroke: #482576; stroke-width: 1.5; stroke-linecap: square"/>
    </g>
    <g id="text_24">
     <!-- 0.0814 -->
     <g transform="translate(457.549438 213.723563) scale(0.1 -0.1)">
      <defs>
       <path id="DejaVuSans-34" d="M 2419 4116 
L 825 1625 
L 2419 1625 
L 2419 4116 
z
M 2253 4666 
L 3047 4666 
L 3047 1625 
L 3713 1625 
L 3713 1100 
L 3047 1100 
L 3047 0 
L 2419 0 
L 2419 1100 
L 313 1100 
L 313 1709 
L 2253 4666 
z
" transform="scale(0.015625)"/>
      </defs>
      <use xlink:href="#DejaVuSans-30"/>
      <use xlink:href="#DejaVuSans-2e" x="63.623047"/>
      <use xlink:href="#DejaVuSans-30" x="95.410156"/>
      <use xlink:href="#DejaVuSans-38" x="159.033203"/>
      <use xlink:href="#DejaVuSans-31" x="222.65625"/>
      <use xlink:href="#DejaVuSans-34" x="286.279297"/>
     </g>
    </g>
    <g id="line2d_51">
     <path d="M 429.549438 224.901688 
L 439.549438 224.901688 
L 449.549438 224.901688 
" style="fill: none; stroke: #46307e; stroke-width: 1.5; stroke-linecap: square"/>
    </g>
    <g id="text_25">
     <!-- 0.105 -->
     <g transform="translate(457.549438 228.401688) scale(0.1 -0.1)">
      <use xlink:href="#DejaVuSans-30"/>
      <use xlink:href="#DejaVuSans-2e" x="63.623047"/>
      <use xlink:href="#DejaVuSans-31" x="95.410156"/>
      <use xlink:href="#DejaVuSans-30" x="159.033203"/>
      <use xlink:href="#DejaVuSans-35" x="222.65625"/>
     </g>
    </g>
    <g id="line2d_52">
     <path d="M 429.549438 239.579813 
L 439.549438 239.579813 
L 449.549438 239.579813 
" style="fill: none; stroke: #443b84; stroke-width: 1.5; stroke-linecap: square"/>
    </g>
    <g id="text_26">
     <!-- 0.129 -->
     <g transform="translate(457.549438 243.079813) scale(0.1 -0.1)">
      <defs>
       <path id="DejaVuSans-32" d="M 1228 531 
L 3431 531 
L 3431 0 
L 469 0 
L 469 531 
Q 828 903 1448 1529 
Q 2069 2156 2228 2338 
Q 2531 2678 2651 2914 
Q 2772 3150 2772 3378 
Q 2772 3750 2511 3984 
Q 2250 4219 1831 4219 
Q 1534 4219 1204 4116 
Q 875 4013 500 3803 
L 500 4441 
Q 881 4594 1212 4672 
Q 1544 4750 1819 4750 
Q 2544 4750 2975 4387 
Q 3406 4025 3406 3419 
Q 3406 3131 3298 2873 
Q 3191 2616 2906 2266 
Q 2828 2175 2409 1742 
Q 1991 1309 1228 531 
z
" transform="scale(0.015625)"/>
      </defs>
      <use xlink:href="#DejaVuSans-30"/>
      <use xlink:href="#DejaVuSans-2e" x="63.623047"/>
      <use xlink:href="#DejaVuSans-31" x="95.410156"/>
      <use xlink:href="#DejaVuSans-32" x="159.033203"/>
      <use xlink:href="#DejaVuSans-39" x="222.65625"/>
     </g>
    </g>
    <g id="line2d_53">
     <path d="M 429.549438 254.257938 
L 439.549438 254.257938 
L 449.549438 254.257938 
" style="fill: none; stroke: #404588; stroke-width: 1.5; stroke-linecap: square"/>
    </g>
    <g id="text_27">
     <!-- 0.153 -->
     <g transform="translate(457.549438 257.757938) scale(0.1 -0.1)">
      <use xlink:href="#DejaVuSans-30"/>
      <use xlink:href="#DejaVuSans-2e" x="63.623047"/>
      <use xlink:href="#DejaVuSans-31" x="95.410156"/>
      <use xlink:href="#DejaVuSans-35" x="159.033203"/>
      <use xlink:href="#DejaVuSans-33" x="222.65625"/>
     </g>
    </g>
    <g id="line2d_54">
     <path d="M 429.549438 268.936062 
L 439.549438 268.936062 
L 449.549438 268.936062 
" style="fill: none; stroke: #3c4f8a; stroke-width: 1.5; stroke-linecap: square"/>
    </g>
    <g id="text_28">
     <!-- 0.177 -->
     <g transform="translate(457.549438 272.436062) scale(0.1 -0.1)">
      <use xlink:href="#DejaVuSans-30"/>
      <use xlink:href="#DejaVuSans-2e" x="63.623047"/>
      <use xlink:href="#DejaVuSans-31" x="95.410156"/>
      <use xlink:href="#DejaVuSans-37" x="159.033203"/>
      <use xlink:href="#DejaVuSans-37" x="222.65625"/>
     </g>
    </g>
    <g id="line2d_55">
     <path d="M 429.549438 283.614188 
L 439.549438 283.614188 
L 449.549438 283.614188 
" style="fill: none; stroke: #38598c; stroke-width: 1.5; stroke-linecap: square"/>
    </g>
    <g id="text_29">
     <!-- 0.2 -->
     <g transform="translate(457.549438 287.114188) scale(0.1 -0.1)">
      <use xlink:href="#DejaVuSans-30"/>
      <use xlink:href="#DejaVuSans-2e" x="63.623047"/>
      <use xlink:href="#DejaVuSans-32" x="95.410156"/>
     </g>
    </g>
    <g id="line2d_56">
     <path d="M 429.549438 298.292312 
L 439.549438 298.292312 
L 449.549438 298.292312 
" style="fill: none; stroke: #33628d; stroke-width: 1.5; stroke-linecap: square"/>
    </g>
    <g id="text_30">
     <!-- 0.224 -->
     <g transform="translate(457.549438 301.792312) scale(0.1 -0.1)">
      <use xlink:href="#DejaVuSans-30"/>
      <use xlink:href="#DejaVuSans-2e" x="63.623047"/>
      <use xlink:href="#DejaVuSans-32" x="95.410156"/>
      <use xlink:href="#DejaVuSans-32" x="159.033203"/>
      <use xlink:href="#DejaVuSans-34" x="222.65625"/>
     </g>
    </g>
    <g id="line2d_57">
     <path d="M 512.540062 166.189188 
L 522.540062 166.189188 
L 532.540062 166.189188 
" style="fill: none; stroke: #2f6b8e; stroke-width: 1.5; stroke-linecap: square"/>
    </g>
    <g id="text_31">
     <!-- 0.248 -->
     <g transform="translate(540.540062 169.689188) scale(0.1 -0.1)">
      <use xlink:href="#DejaVuSans-30"/>
      <use xlink:href="#DejaVuSans-2e" x="63.623047"/>
      <use xlink:href="#DejaVuSans-32" x="95.410156"/>
      <use xlink:href="#DejaVuSans-34" x="159.033203"/>
      <use xlink:href="#DejaVuSans-38" x="222.65625"/>
     </g>
    </g>
    <g id="line2d_58">
     <path d="M 512.540062 180.867313 
L 522.540062 180.867313 
L 532.540062 180.867313 
" style="fill: none; stroke: #2c738e; stroke-width: 1.5; stroke-linecap: square"/>
    </g>
    <g id="text_32">
     <!-- 0.272 -->
     <g transform="translate(540.540062 184.367313) scale(0.1 -0.1)">
      <use xlink:href="#DejaVuSans-30"/>
      <use xlink:href="#DejaVuSans-2e" x="63.623047"/>
      <use xlink:href="#DejaVuSans-32" x="95.410156"/>
      <use xlink:href="#DejaVuSans-37" x="159.033203"/>
      <use xlink:href="#DejaVuSans-32" x="222.65625"/>
     </g>
    </g>
    <g id="line2d_59">
     <path d="M 512.540062 195.545438 
L 522.540062 195.545438 
L 532.540062 195.545438 
" style="fill: none; stroke: #297b8e; stroke-width: 1.5; stroke-linecap: square"/>
    </g>
    <g id="text_33">
     <!-- 0.296 -->
     <g transform="translate(540.540062 199.045438) scale(0.1 -0.1)">
      <use xlink:href="#DejaVuSans-30"/>
      <use xlink:href="#DejaVuSans-2e" x="63.623047"/>
      <use xlink:href="#DejaVuSans-32" x="95.410156"/>
      <use xlink:href="#DejaVuSans-39" x="159.033203"/>
      <use xlink:href="#DejaVuSans-36" x="222.65625"/>
     </g>
    </g>
    <g id="line2d_60">
     <path d="M 512.540062 210.223563 
L 522.540062 210.223563 
L 532.540062 210.223563 
" style="fill: none; stroke: #25838e; stroke-width: 1.5; stroke-linecap: square"/>
    </g>
    <g id="text_34">
     <!-- 0.319 -->
     <g transform="translate(540.540062 213.723563) scale(0.1 -0.1)">
      <use xlink:href="#DejaVuSans-30"/>
      <use xlink:href="#DejaVuSans-2e" x="63.623047"/>
      <use xlink:href="#DejaVuSans-33" x="95.410156"/>
      <use xlink:href="#DejaVuSans-31" x="159.033203"/>
      <use xlink:href="#DejaVuSans-39" x="222.65625"/>
     </g>
    </g>
    <g id="line2d_61">
     <path d="M 512.540062 224.901688 
L 522.540062 224.901688 
L 532.540062 224.901688 
" style="fill: none; stroke: #228c8d; stroke-width: 1.5; stroke-linecap: square"/>
    </g>
    <g id="text_35">
     <!-- 0.343 -->
     <g transform="translate(540.540062 228.401688) scale(0.1 -0.1)">
      <use xlink:href="#DejaVuSans-30"/>
      <use xlink:href="#DejaVuSans-2e" x="63.623047"/>
      <use xlink:href="#DejaVuSans-33" x="95.410156"/>
      <use xlink:href="#DejaVuSans-34" x="159.033203"/>
      <use xlink:href="#DejaVuSans-33" x="222.65625"/>
     </g>
    </g>
    <g id="line2d_62">
     <path d="M 512.540062 239.579813 
L 522.540062 239.579813 
L 532.540062 239.579813 
" style="fill: none; stroke: #1f948c; stroke-width: 1.5; stroke-linecap: square"/>
    </g>
    <g id="text_36">
     <!-- 0.367 -->
     <g transform="translate(540.540062 243.079813) scale(0.1 -0.1)">
      <use xlink:href="#DejaVuSans-30"/>
      <use xlink:href="#DejaVuSans-2e" x="63.623047"/>
      <use xlink:href="#DejaVuSans-33" x="95.410156"/>
      <use xlink:href="#DejaVuSans-36" x="159.033203"/>
      <use xlink:href="#DejaVuSans-37" x="222.65625"/>
     </g>
    </g>
    <g id="line2d_63">
     <path d="M 512.540062 254.257938 
L 522.540062 254.257938 
L 532.540062 254.257938 
" style="fill: none; stroke: #1e9d89; stroke-width: 1.5; stroke-linecap: square"/>
    </g>
    <g id="text_37">
     <!-- 0.391 -->
     <g transform="translate(540.540062 257.757938) scale(0.1 -0.1)">
      <use xlink:href="#DejaVuSans-30"/>
      <use xlink:href="#DejaVuSans-2e" x="63.623047"/>
      <use xlink:href="#DejaVuSans-33" x="95.410156"/>
      <use xlink:href="#DejaVuSans-39" x="159.033203"/>
      <use xlink:href="#DejaVuSans-31" x="222.65625"/>
     </g>
    </g>
    <g id="line2d_64">
     <path d="M 512.540062 268.936062 
L 522.540062 268.936062 
L 532.540062 268.936062 
" style="fill: none; stroke: #21a585; stroke-width: 1.5; stroke-linecap: square"/>
    </g>
    <g id="text_38">
     <!-- 0.414 -->
     <g transform="translate(540.540062 272.436062) scale(0.1 -0.1)">
      <use xlink:href="#DejaVuSans-30"/>
      <use xlink:href="#DejaVuSans-2e" x="63.623047"/>
      <use xlink:href="#DejaVuSans-34" x="95.410156"/>
      <use xlink:href="#DejaVuSans-31" x="159.033203"/>
      <use xlink:href="#DejaVuSans-34" x="222.65625"/>
     </g>
    </g>
    <g id="line2d_65">
     <path d="M 512.540062 283.614188 
L 522.540062 283.614188 
L 532.540062 283.614188 
" style="fill: none; stroke: #26ad81; stroke-width: 1.5; stroke-linecap: square"/>
    </g>
    <g id="text_39">
     <!-- 0.438 -->
     <g transform="translate(540.540062 287.114188) scale(0.1 -0.1)">
      <use xlink:href="#DejaVuSans-30"/>
      <use xlink:href="#DejaVuSans-2e" x="63.623047"/>
      <use xlink:href="#DejaVuSans-34" x="95.410156"/>
      <use xlink:href="#DejaVuSans-33" x="159.033203"/>
      <use xlink:href="#DejaVuSans-38" x="222.65625"/>
     </g>
    </g>
    <g id="line2d_66">
     <path d="M 512.540062 298.292312 
L 522.540062 298.292312 
L 532.540062 298.292312 
" style="fill: none; stroke: #31b57b; stroke-width: 1.5; stroke-linecap: square"/>
    </g>
    <g id="text_40">
     <!-- 0.462 -->
     <g transform="translate(540.540062 301.792312) scale(0.1 -0.1)">
      <use xlink:href="#DejaVuSans-30"/>
      <use xlink:href="#DejaVuSans-2e" x="63.623047"/>
      <use xlink:href="#DejaVuSans-34" x="95.410156"/>
      <use xlink:href="#DejaVuSans-36" x="159.033203"/>
      <use xlink:href="#DejaVuSans-32" x="222.65625"/>
     </g>
    </g>
    <g id="line2d_67">
     <path d="M 589.168187 166.189188 
L 599.168187 166.189188 
L 609.168187 166.189188 
" style="fill: none; stroke: #3fbc73; stroke-width: 1.5; stroke-linecap: square"/>
    </g>
    <g id="text_41">
     <!-- 0.486 -->
     <g transform="translate(617.168187 169.689188) scale(0.1 -0.1)">
      <use xlink:href="#DejaVuSans-30"/>
      <use xlink:href="#DejaVuSans-2e" x="63.623047"/>
      <use xlink:href="#DejaVuSans-34" x="95.410156"/>
      <use xlink:href="#DejaVuSans-38" x="159.033203"/>
      <use xlink:href="#DejaVuSans-36" x="222.65625"/>
     </g>
    </g>
    <g id="line2d_68">
     <path d="M 589.168187 180.867313 
L 599.168187 180.867313 
L 609.168187 180.867313 
" style="fill: none; stroke: #50c46a; stroke-width: 1.5; stroke-linecap: square"/>
    </g>
    <g id="text_42">
     <!-- 0.51 -->
     <g transform="translate(617.168187 184.367313) scale(0.1 -0.1)">
      <use xlink:href="#DejaVuSans-30"/>
      <use xlink:href="#DejaVuSans-2e" x="63.623047"/>
      <use xlink:href="#DejaVuSans-35" x="95.410156"/>
      <use xlink:href="#DejaVuSans-31" x="159.033203"/>
     </g>
    </g>
    <g id="line2d_69">
     <path d="M 589.168187 195.545438 
L 599.168187 195.545438 
L 609.168187 195.545438 
" style="fill: none; stroke: #63cb5f; stroke-width: 1.5; stroke-linecap: square"/>
    </g>
    <g id="text_43">
     <!-- 0.533 -->
     <g transform="translate(617.168187 199.045438) scale(0.1 -0.1)">
      <use xlink:href="#DejaVuSans-30"/>
      <use xlink:href="#DejaVuSans-2e" x="63.623047"/>
      <use xlink:href="#DejaVuSans-35" x="95.410156"/>
      <use xlink:href="#DejaVuSans-33" x="159.033203"/>
      <use xlink:href="#DejaVuSans-33" x="222.65625"/>
     </g>
    </g>
    <g id="line2d_70">
     <path d="M 589.168187 210.223563 
L 599.168187 210.223563 
L 609.168187 210.223563 
" style="fill: none; stroke: #77d153; stroke-width: 1.5; stroke-linecap: square"/>
    </g>
    <g id="text_44">
     <!-- 0.557 -->
     <g transform="translate(617.168187 213.723563) scale(0.1 -0.1)">
      <use xlink:href="#DejaVuSans-30"/>
      <use xlink:href="#DejaVuSans-2e" x="63.623047"/>
      <use xlink:href="#DejaVuSans-35" x="95.410156"/>
      <use xlink:href="#DejaVuSans-35" x="159.033203"/>
      <use xlink:href="#DejaVuSans-37" x="222.65625"/>
     </g>
    </g>
    <g id="line2d_71">
     <path d="M 589.168187 224.901688 
L 599.168187 224.901688 
L 609.168187 224.901688 
" style="fill: none; stroke: #8bd646; stroke-width: 1.5; stroke-linecap: square"/>
    </g>
    <g id="text_45">
     <!-- 0.581 -->
     <g transform="translate(617.168187 228.401688) scale(0.1 -0.1)">
      <use xlink:href="#DejaVuSans-30"/>
      <use xlink:href="#DejaVuSans-2e" x="63.623047"/>
      <use xlink:href="#DejaVuSans-35" x="95.410156"/>
      <use xlink:href="#DejaVuSans-38" x="159.033203"/>
      <use xlink:href="#DejaVuSans-31" x="222.65625"/>
     </g>
    </g>
    <g id="line2d_72">
     <path d="M 589.168187 239.579813 
L 599.168187 239.579813 
L 609.168187 239.579813 
" style="fill: none; stroke: #a2da37; stroke-width: 1.5; stroke-linecap: square"/>
    </g>
    <g id="text_46">
     <!-- 0.605 -->
     <g transform="translate(617.168187 243.079813) scale(0.1 -0.1)">
      <use xlink:href="#DejaVuSans-30"/>
      <use xlink:href="#DejaVuSans-2e" x="63.623047"/>
      <use xlink:href="#DejaVuSans-36" x="95.410156"/>
      <use xlink:href="#DejaVuSans-30" x="159.033203"/>
      <use xlink:href="#DejaVuSans-35" x="222.65625"/>
     </g>
    </g>
    <g id="line2d_73">
     <path d="M 589.168187 254.257938 
L 599.168187 254.257938 
L 609.168187 254.257938 
" style="fill: none; stroke: #bade28; stroke-width: 1.5; stroke-linecap: square"/>
    </g>
    <g id="text_47">
     <!-- 0.629 -->
     <g transform="translate(617.168187 257.757938) scale(0.1 -0.1)">
      <use xlink:href="#DejaVuSans-30"/>
      <use xlink:href="#DejaVuSans-2e" x="63.623047"/>
      <use xlink:href="#DejaVuSans-36" x="95.410156"/>
      <use xlink:href="#DejaVuSans-32" x="159.033203"/>
      <use xlink:href="#DejaVuSans-39" x="222.65625"/>
     </g>
    </g>
    <g id="line2d_74">
     <path d="M 589.168187 268.936062 
L 599.168187 268.936062 
L 609.168187 268.936062 
" style="fill: none; stroke: #d2e21b; stroke-width: 1.5; stroke-linecap: square"/>
    </g>
    <g id="text_48">
     <!-- 0.652 -->
     <g transform="translate(617.168187 272.436062) scale(0.1 -0.1)">
      <use xlink:href="#DejaVuSans-30"/>
      <use xlink:href="#DejaVuSans-2e" x="63.623047"/>
      <use xlink:href="#DejaVuSans-36" x="95.410156"/>
      <use xlink:href="#DejaVuSans-35" x="159.033203"/>
      <use xlink:href="#DejaVuSans-32" x="222.65625"/>
     </g>
    </g>
    <g id="line2d_75">
     <path d="M 589.168187 283.614188 
L 599.168187 283.614188 
L 609.168187 283.614188 
" style="fill: none; stroke: #eae51a; stroke-width: 1.5; stroke-linecap: square"/>
    </g>
    <g id="text_49">
     <!-- 0.676 -->
     <g transform="translate(617.168187 287.114188) scale(0.1 -0.1)">
      <use xlink:href="#DejaVuSans-30"/>
      <use xlink:href="#DejaVuSans-2e" x="63.623047"/>
      <use xlink:href="#DejaVuSans-36" x="95.410156"/>
      <use xlink:href="#DejaVuSans-37" x="159.033203"/>
      <use xlink:href="#DejaVuSans-36" x="222.65625"/>
     </g>
    </g>
    <g id="line2d_76">
     <path d="M 589.168187 298.292312 
L 599.168187 298.292312 
L 609.168187 298.292312 
" style="fill: none; stroke: #fde725; stroke-width: 1.5; stroke-linecap: square"/>
    </g>
    <g id="text_50">
     <!-- 0.7 -->
     <g transform="translate(617.168187 301.792312) scale(0.1 -0.1)">
      <use xlink:href="#DejaVuSans-30"/>
      <use xlink:href="#DejaVuSans-2e" x="63.623047"/>
      <use xlink:href="#DejaVuSans-37" x="95.410156"/>
     </g>
    </g>
   </g>
  </g>
  <g id="text_51">
   <!-- x0x1-y1 resonator punchout -->
   <g transform="translate(138.2625 16.318125) scale(0.12 -0.12)">
    <defs>
     <path id="DejaVuSans-78" d="M 3513 3500 
L 2247 1797 
L 3578 0 
L 2900 0 
L 1881 1375 
L 863 0 
L 184 0 
L 1544 1831 
L 300 3500 
L 978 3500 
L 1906 2253 
L 2834 3500 
L 3513 3500 
z
" transform="scale(0.015625)"/>
    </defs>
    <use xlink:href="#DejaVuSans-78"/>
    <use xlink:href="#DejaVuSans-30" x="59.179688"/>
    <use xlink:href="#DejaVuSans-78" x="122.802734"/>
    <use xlink:href="#DejaVuSans-31" x="181.982422"/>
    <use xlink:href="#DejaVuSans-2d" x="245.605469"/>
    <use xlink:href="#DejaVuSans-79" x="279.939453"/>
    <use xlink:href="#DejaVuSans-31" x="339.119141"/>
    <use xlink:href="#DejaVuSans-20" x="402.742188"/>
    <use xlink:href="#DejaVuSans-72" x="434.529297"/>
    <use xlink:href="#DejaVuSans-65" x="473.392578"/>
    <use xlink:href="#DejaVuSans-73" x="534.916016"/>
    <use xlink:href="#DejaVuSans-6f" x="587.015625"/>
    <use xlink:href="#DejaVuSans-6e" x="648.197266"/>
    <use xlink:href="#DejaVuSans-61" x="711.576172"/>
    <use xlink:href="#DejaVuSans-74" x="772.855469"/>
    <use xlink:href="#DejaVuSans-6f" x="812.064453"/>
    <use xlink:href="#DejaVuSans-72" x="873.246094"/>
    <use xlink:href="#DejaVuSans-20" x="914.359375"/>
    <use xlink:href="#DejaVuSans-70" x="946.146484"/>
    <use xlink:href="#DejaVuSans-75" x="1009.623047"/>
    <use xlink:href="#DejaVuSans-6e" x="1073.001953"/>
    <use xlink:href="#DejaVuSans-63" x="1136.380859"/>
    <use xlink:href="#DejaVuSans-68" x="1191.361328"/>
    <use xlink:href="#DejaVuSans-6f" x="1254.740234"/>
    <use xlink:href="#DejaVuSans-75" x="1315.921875"/>
    <use xlink:href="#DejaVuSans-74" x="1379.300781"/>
   </g>
   <!-- tuid: 20231225-162847-563-c1f459 -->
   <g transform="translate(115.741875 29.7555) scale(0.12 -0.12)">
    <defs>
     <path id="DejaVuSans-3a" d="M 750 794 
L 1409 794 
L 1409 0 
L 750 0 
L 750 794 
z
M 750 3309 
L 1409 3309 
L 1409 2516 
L 750 2516 
L 750 3309 
z
" transform="scale(0.015625)"/>
     <path id="DejaVuSans-66" d="M 2375 4863 
L 2375 4384 
L 1825 4384 
Q 1516 4384 1395 4259 
Q 1275 4134 1275 3809 
L 1275 3500 
L 2222 3500 
L 2222 3053 
L 1275 3053 
L 1275 0 
L 697 0 
L 697 3053 
L 147 3053 
L 147 3500 
L 697 3500 
L 697 3744 
Q 697 4328 969 4595 
Q 1241 4863 1831 4863 
L 2375 4863 
z
" transform="scale(0.015625)"/>
    </defs>
    <use xlink:href="#DejaVuSans-74"/>
    <use xlink:href="#DejaVuSans-75" x="39.208984"/>
    <use xlink:href="#DejaVuSans-69" x="102.587891"/>
    <use xlink:href="#DejaVuSans-64" x="130.371094"/>
    <use xlink:href="#DejaVuSans-3a" x="193.847656"/>
    <use xlink:href="#DejaVuSans-20" x="227.539062"/>
    <use xlink:href="#DejaVuSans-32" x="259.326172"/>
    <use xlink:href="#DejaVuSans-30" x="322.949219"/>
    <use xlink:href="#DejaVuSans-32" x="386.572266"/>
    <use xlink:href="#DejaVuSans-33" x="450.195312"/>
    <use xlink:href="#DejaVuSans-31" x="513.818359"/>
    <use xlink:href="#DejaVuSans-32" x="577.441406"/>
    <use xlink:href="#DejaVuSans-32" x="641.064453"/>
    <use xlink:href="#DejaVuSans-35" x="704.6875"/>
    <use xlink:href="#DejaVuSans-2d" x="768.310547"/>
    <use xlink:href="#DejaVuSans-31" x="804.394531"/>
    <use xlink:href="#DejaVuSans-36" x="868.017578"/>
    <use xlink:href="#DejaVuSans-32" x="931.640625"/>
    <use xlink:href="#DejaVuSans-38" x="995.263672"/>
    <use xlink:href="#DejaVuSans-34" x="1058.886719"/>
    <use xlink:href="#DejaVuSans-37" x="1122.509766"/>
    <use xlink:href="#DejaVuSans-2d" x="1186.132812"/>
    <use xlink:href="#DejaVuSans-35" x="1222.216797"/>
    <use xlink:href="#DejaVuSans-36" x="1285.839844"/>
    <use xlink:href="#DejaVuSans-33" x="1349.462891"/>
    <use xlink:href="#DejaVuSans-2d" x="1413.085938"/>
    <use xlink:href="#DejaVuSans-63" x="1449.169922"/>
    <use xlink:href="#DejaVuSans-31" x="1504.150391"/>
    <use xlink:href="#DejaVuSans-66" x="1567.773438"/>
    <use xlink:href="#DejaVuSans-34" x="1602.978516"/>
    <use xlink:href="#DejaVuSans-35" x="1666.601562"/>
    <use xlink:href="#DejaVuSans-39" x="1730.224609"/>
   </g>
  </g>
 </g>
 <defs>
  <clipPath id="p3bda174229">
   <rect x="50.573438" y="41.76" width="357.12" height="266.112"/>
  </clipPath>
 </defs>
</svg>
