<?xml version="1.0" encoding="utf-8" standalone="no"?>
<!DOCTYPE svg PUBLIC "-//W3C//DTD SVG 1.1//EN"
  "http://www.w3.org/Graphics/SVG/1.1/DTD/svg11.dtd">
<svg xmlns:xlink="http://www.w3.org/1999/xlink" width="518.779125pt" height="345.42825pt" viewBox="0 0 518.779125 345.42825" xmlns="http://www.w3.org/2000/svg" version="1.1">
 <metadata>
  <rdf:RDF xmlns:dc="http://purl.org/dc/elements/1.1/" xmlns:cc="http://creativecommons.org/ns#" xmlns:rdf="http://www.w3.org/1999/02/22-rdf-syntax-ns#">
   <cc:Work>
    <dc:type rdf:resource="http://purl.org/dc/dcmitype/StillImage"/>
    <dc:date>2023-12-27T13:11:45.361885</dc:date>
    <dc:format>image/svg+xml</dc:format>
    <dc:creator>
     <cc:Agent>
      <dc:title>Matplotlib v3.8.2, https://matplotlib.org/</dc:title>
     </cc:Agent>
    </dc:creator>
   </cc:Work>
  </rdf:RDF>
 </metadata>
 <defs>
  <style type="text/css">*{stroke-linejoin: round; stroke-linecap: butt}</style>
 </defs>
 <g id="figure_1">
  <g id="patch_1">
   <path d="M 0 345.42825 
L 518.779125 345.42825 
L 518.779125 -0 
L 0 -0 
L 0 345.42825 
z
" style="fill: none; opacity: 0"/>
  </g>
  <g id="axes_1">
   <g id="patch_2">
    <path d="M 40.603125 307.872 
L 397.723125 307.872 
L 397.723125 41.76 
L 40.603125 41.76 
z
" style="fill: #ffffff"/>
   </g>
   <g id="matplotlib.axis_1">
    <g id="xtick_1">
     <g id="line2d_1">
      <defs>
       <path id="mc563182258" d="M 0 0 
L 0 3.5 
" style="stroke: #000000; stroke-width: 0.8"/>
      </defs>
      <g>
       <use xlink:href="#mc563182258" x="85.766702" y="307.872" style="stroke: #000000; stroke-width: 0.8"/>
      </g>
     </g>
     <g id="text_1">
      <!-- 0 -->
      <g transform="translate(82.585452 322.470438) scale(0.1 -0.1)">
       <defs>
        <path id="DejaVuSans-30" d="M 2034 4250 
Q 1547 4250 1301 3770 
Q 1056 3291 1056 2328 
Q 1056 1369 1301 889 
Q 1547 409 2034 409 
Q 2525 409 2770 889 
Q 3016 1369 3016 2328 
Q 3016 3291 2770 3770 
Q 2525 4250 2034 4250 
z
M 2034 4750 
Q 2819 4750 3233 4129 
Q 3647 3509 3647 2328 
Q 3647 1150 3233 529 
Q 2819 -91 2034 -91 
Q 1250 -91 836 529 
Q 422 1150 422 2328 
Q 422 3509 836 4129 
Q 1250 4750 2034 4750 
z
" transform="scale(0.015625)"/>
       </defs>
       <use xlink:href="#DejaVuSans-30"/>
      </g>
     </g>
    </g>
    <g id="xtick_2">
     <g id="line2d_2">
      <g>
       <use xlink:href="#mc563182258" x="142.992683" y="307.872" style="stroke: #000000; stroke-width: 0.8"/>
      </g>
     </g>
     <g id="text_2">
      <!-- 2 -->
      <g transform="translate(139.811433 322.470438) scale(0.1 -0.1)">
       <defs>
        <path id="DejaVuSans-32" d="M 1228 531 
L 3431 531 
L 3431 0 
L 469 0 
L 469 531 
Q 828 903 1448 1529 
Q 2069 2156 2228 2338 
Q 2531 2678 2651 2914 
Q 2772 3150 2772 3378 
Q 2772 3750 2511 3984 
Q 2250 4219 1831 4219 
Q 1534 4219 1204 4116 
Q 875 4013 500 3803 
L 500 4441 
Q 881 4594 1212 4672 
Q 1544 4750 1819 4750 
Q 2544 4750 2975 4387 
Q 3406 4025 3406 3419 
Q 3406 3131 3298 2873 
Q 3191 2616 2906 2266 
Q 2828 2175 2409 1742 
Q 1991 1309 1228 531 
z
" transform="scale(0.015625)"/>
       </defs>
       <use xlink:href="#DejaVuSans-32"/>
      </g>
     </g>
    </g>
    <g id="xtick_3">
     <g id="line2d_3">
      <g>
       <use xlink:href="#mc563182258" x="200.218663" y="307.872" style="stroke: #000000; stroke-width: 0.8"/>
      </g>
     </g>
     <g id="text_3">
      <!-- 4 -->
      <g transform="translate(197.037413 322.470438) scale(0.1 -0.1)">
       <defs>
        <path id="DejaVuSans-34" d="M 2419 4116 
L 825 1625 
L 2419 1625 
L 2419 4116 
z
M 2253 4666 
L 3047 4666 
L 3047 1625 
L 3713 1625 
L 3713 1100 
L 3047 1100 
L 3047 0 
L 2419 0 
L 2419 1100 
L 313 1100 
L 313 1709 
L 2253 4666 
z
" transform="scale(0.015625)"/>
       </defs>
       <use xlink:href="#DejaVuSans-34"/>
      </g>
     </g>
    </g>
    <g id="xtick_4">
     <g id="line2d_4">
      <g>
       <use xlink:href="#mc563182258" x="257.444644" y="307.872" style="stroke: #000000; stroke-width: 0.8"/>
      </g>
     </g>
     <g id="text_4">
      <!-- 6 -->
      <g transform="translate(254.263394 322.470438) scale(0.1 -0.1)">
       <defs>
        <path id="DejaVuSans-36" d="M 2113 2584 
Q 1688 2584 1439 2293 
Q 1191 2003 1191 1497 
Q 1191 994 1439 701 
Q 1688 409 2113 409 
Q 2538 409 2786 701 
Q 3034 994 3034 1497 
Q 3034 2003 2786 2293 
Q 2538 2584 2113 2584 
z
M 3366 4563 
L 3366 3988 
Q 3128 4100 2886 4159 
Q 2644 4219 2406 4219 
Q 1781 4219 1451 3797 
Q 1122 3375 1075 2522 
Q 1259 2794 1537 2939 
Q 1816 3084 2150 3084 
Q 2853 3084 3261 2657 
Q 3669 2231 3669 1497 
Q 3669 778 3244 343 
Q 2819 -91 2113 -91 
Q 1303 -91 875 529 
Q 447 1150 447 2328 
Q 447 3434 972 4092 
Q 1497 4750 2381 4750 
Q 2619 4750 2861 4703 
Q 3103 4656 3366 4563 
z
" transform="scale(0.015625)"/>
       </defs>
       <use xlink:href="#DejaVuSans-36"/>
      </g>
     </g>
    </g>
    <g id="xtick_5">
     <g id="line2d_5">
      <g>
       <use xlink:href="#mc563182258" x="314.670624" y="307.872" style="stroke: #000000; stroke-width: 0.8"/>
      </g>
     </g>
     <g id="text_5">
      <!-- 8 -->
      <g transform="translate(311.489374 322.470438) scale(0.1 -0.1)">
       <defs>
        <path id="DejaVuSans-38" d="M 2034 2216 
Q 1584 2216 1326 1975 
Q 1069 1734 1069 1313 
Q 1069 891 1326 650 
Q 1584 409 2034 409 
Q 2484 409 2743 651 
Q 3003 894 3003 1313 
Q 3003 1734 2745 1975 
Q 2488 2216 2034 2216 
z
M 1403 2484 
Q 997 2584 770 2862 
Q 544 3141 544 3541 
Q 544 4100 942 4425 
Q 1341 4750 2034 4750 
Q 2731 4750 3128 4425 
Q 3525 4100 3525 3541 
Q 3525 3141 3298 2862 
Q 3072 2584 2669 2484 
Q 3125 2378 3379 2068 
Q 3634 1759 3634 1313 
Q 3634 634 3220 271 
Q 2806 -91 2034 -91 
Q 1263 -91 848 271 
Q 434 634 434 1313 
Q 434 1759 690 2068 
Q 947 2378 1403 2484 
z
M 1172 3481 
Q 1172 3119 1398 2916 
Q 1625 2713 2034 2713 
Q 2441 2713 2670 2916 
Q 2900 3119 2900 3481 
Q 2900 3844 2670 4047 
Q 2441 4250 2034 4250 
Q 1625 4250 1398 4047 
Q 1172 3844 1172 3481 
z
" transform="scale(0.015625)"/>
       </defs>
       <use xlink:href="#DejaVuSans-38"/>
      </g>
     </g>
    </g>
    <g id="xtick_6">
     <g id="line2d_6">
      <g>
       <use xlink:href="#mc563182258" x="371.896605" y="307.872" style="stroke: #000000; stroke-width: 0.8"/>
      </g>
     </g>
     <g id="text_6">
      <!-- 10 -->
      <g transform="translate(365.534105 322.470438) scale(0.1 -0.1)">
       <defs>
        <path id="DejaVuSans-31" d="M 794 531 
L 1825 531 
L 1825 4091 
L 703 3866 
L 703 4441 
L 1819 4666 
L 2450 4666 
L 2450 531 
L 3481 531 
L 3481 0 
L 794 0 
L 794 531 
z
" transform="scale(0.015625)"/>
       </defs>
       <use xlink:href="#DejaVuSans-31"/>
       <use xlink:href="#DejaVuSans-30" x="63.623047"/>
      </g>
     </g>
    </g>
    <g id="text_7">
     <!-- Re$(S_{21})$ [mV] -->
     <g transform="translate(187.163125 336.148562) scale(0.1 -0.1)">
      <defs>
       <path id="DejaVuSans-52" d="M 2841 2188 
Q 3044 2119 3236 1894 
Q 3428 1669 3622 1275 
L 4263 0 
L 3584 0 
L 2988 1197 
Q 2756 1666 2539 1819 
Q 2322 1972 1947 1972 
L 1259 1972 
L 1259 0 
L 628 0 
L 628 4666 
L 2053 4666 
Q 2853 4666 3247 4331 
Q 3641 3997 3641 3322 
Q 3641 2881 3436 2590 
Q 3231 2300 2841 2188 
z
M 1259 4147 
L 1259 2491 
L 2053 2491 
Q 2509 2491 2742 2702 
Q 2975 2913 2975 3322 
Q 2975 3731 2742 3939 
Q 2509 4147 2053 4147 
L 1259 4147 
z
" transform="scale(0.015625)"/>
       <path id="DejaVuSans-65" d="M 3597 1894 
L 3597 1613 
L 953 1613 
Q 991 1019 1311 708 
Q 1631 397 2203 397 
Q 2534 397 2845 478 
Q 3156 559 3463 722 
L 3463 178 
Q 3153 47 2828 -22 
Q 2503 -91 2169 -91 
Q 1331 -91 842 396 
Q 353 884 353 1716 
Q 353 2575 817 3079 
Q 1281 3584 2069 3584 
Q 2775 3584 3186 3129 
Q 3597 2675 3597 1894 
z
M 3022 2063 
Q 3016 2534 2758 2815 
Q 2500 3097 2075 3097 
Q 1594 3097 1305 2825 
Q 1016 2553 972 2059 
L 3022 2063 
z
" transform="scale(0.015625)"/>
       <path id="DejaVuSans-28" d="M 1984 4856 
Q 1566 4138 1362 3434 
Q 1159 2731 1159 2009 
Q 1159 1288 1364 580 
Q 1569 -128 1984 -844 
L 1484 -844 
Q 1016 -109 783 600 
Q 550 1309 550 2009 
Q 550 2706 781 3412 
Q 1013 4119 1484 4856 
L 1984 4856 
z
" transform="scale(0.015625)"/>
       <path id="DejaVuSans-Oblique-53" d="M 3859 4513 
L 3738 3897 
Q 3422 4066 3111 4152 
Q 2800 4238 2509 4238 
Q 1944 4238 1609 3991 
Q 1275 3744 1275 3334 
Q 1275 3109 1398 2989 
Q 1522 2869 2034 2731 
L 2413 2638 
Q 3053 2472 3303 2217 
Q 3553 1963 3553 1503 
Q 3553 797 2998 353 
Q 2444 -91 1538 -91 
Q 1166 -91 791 -17 
Q 416 56 38 206 
L 166 856 
Q 513 641 861 531 
Q 1209 422 1556 422 
Q 2147 422 2503 684 
Q 2859 947 2859 1369 
Q 2859 1650 2717 1795 
Q 2575 1941 2106 2059 
L 1728 2156 
Q 1081 2325 845 2545 
Q 609 2766 609 3163 
Q 609 3859 1145 4304 
Q 1681 4750 2541 4750 
Q 2875 4750 3203 4690 
Q 3531 4631 3859 4513 
z
" transform="scale(0.015625)"/>
       <path id="DejaVuSans-29" d="M 513 4856 
L 1013 4856 
Q 1481 4119 1714 3412 
Q 1947 2706 1947 2009 
Q 1947 1309 1714 600 
Q 1481 -109 1013 -844 
L 513 -844 
Q 928 -128 1133 580 
Q 1338 1288 1338 2009 
Q 1338 2731 1133 3434 
Q 928 4138 513 4856 
z
" transform="scale(0.015625)"/>
       <path id="DejaVuSans-20" transform="scale(0.015625)"/>
       <path id="DejaVuSans-5b" d="M 550 4863 
L 1875 4863 
L 1875 4416 
L 1125 4416 
L 1125 -397 
L 1875 -397 
L 1875 -844 
L 550 -844 
L 550 4863 
z
" transform="scale(0.015625)"/>
       <path id="DejaVuSans-6d" d="M 3328 2828 
Q 3544 3216 3844 3400 
Q 4144 3584 4550 3584 
Q 5097 3584 5394 3201 
Q 5691 2819 5691 2113 
L 5691 0 
L 5113 0 
L 5113 2094 
Q 5113 2597 4934 2840 
Q 4756 3084 4391 3084 
Q 3944 3084 3684 2787 
Q 3425 2491 3425 1978 
L 3425 0 
L 2847 0 
L 2847 2094 
Q 2847 2600 2669 2842 
Q 2491 3084 2119 3084 
Q 1678 3084 1418 2786 
Q 1159 2488 1159 1978 
L 1159 0 
L 581 0 
L 581 3500 
L 1159 3500 
L 1159 2956 
Q 1356 3278 1631 3431 
Q 1906 3584 2284 3584 
Q 2666 3584 2933 3390 
Q 3200 3197 3328 2828 
z
" transform="scale(0.015625)"/>
       <path id="DejaVuSans-56" d="M 1831 0 
L 50 4666 
L 709 4666 
L 2188 738 
L 3669 4666 
L 4325 4666 
L 2547 0 
L 1831 0 
z
" transform="scale(0.015625)"/>
       <path id="DejaVuSans-5d" d="M 1947 4863 
L 1947 -844 
L 622 -844 
L 622 -397 
L 1369 -397 
L 1369 4416 
L 622 4416 
L 622 4863 
L 1947 4863 
z
" transform="scale(0.015625)"/>
      </defs>
      <use xlink:href="#DejaVuSans-52" transform="translate(0 0.015625)"/>
      <use xlink:href="#DejaVuSans-65" transform="translate(69.482422 0.015625)"/>
      <use xlink:href="#DejaVuSans-28" transform="translate(131.005859 0.015625)"/>
      <use xlink:href="#DejaVuSans-Oblique-53" transform="translate(170.019531 0.015625)"/>
      <use xlink:href="#DejaVuSans-32" transform="translate(233.496094 -16.390625) scale(0.7)"/>
      <use xlink:href="#DejaVuSans-31" transform="translate(278.032227 -16.390625) scale(0.7)"/>
      <use xlink:href="#DejaVuSans-29" transform="translate(325.302734 0.015625)"/>
      <use xlink:href="#DejaVuSans-20" transform="translate(364.316406 0.015625)"/>
      <use xlink:href="#DejaVuSans-5b" transform="translate(396.103516 0.015625)"/>
      <use xlink:href="#DejaVuSans-6d" transform="translate(435.117188 0.015625)"/>
      <use xlink:href="#DejaVuSans-56" transform="translate(532.529297 0.015625)"/>
      <use xlink:href="#DejaVuSans-5d" transform="translate(600.9375 0.015625)"/>
     </g>
    </g>
   </g>
   <g id="matplotlib.axis_2">
    <g id="ytick_1">
     <g id="line2d_7">
      <defs>
       <path id="m035b9b02a6" d="M 0 0 
L -3.5 0 
" style="stroke: #000000; stroke-width: 0.8"/>
      </defs>
      <g>
       <use xlink:href="#m035b9b02a6" x="40.603125" y="263.281632" style="stroke: #000000; stroke-width: 0.8"/>
      </g>
     </g>
     <g id="text_8">
      <!-- 2 -->
      <g transform="translate(27.240625 267.080851) scale(0.1 -0.1)">
       <use xlink:href="#DejaVuSans-32"/>
      </g>
     </g>
    </g>
    <g id="ytick_2">
     <g id="line2d_8">
      <g>
       <use xlink:href="#m035b9b02a6" x="40.603125" y="212.627779" style="stroke: #000000; stroke-width: 0.8"/>
      </g>
     </g>
     <g id="text_9">
      <!-- 4 -->
      <g transform="translate(27.240625 216.426998) scale(0.1 -0.1)">
       <use xlink:href="#DejaVuSans-34"/>
      </g>
     </g>
    </g>
    <g id="ytick_3">
     <g id="line2d_9">
      <g>
       <use xlink:href="#m035b9b02a6" x="40.603125" y="161.973926" style="stroke: #000000; stroke-width: 0.8"/>
      </g>
     </g>
     <g id="text_10">
      <!-- 6 -->
      <g transform="translate(27.240625 165.773145) scale(0.1 -0.1)">
       <use xlink:href="#DejaVuSans-36"/>
      </g>
     </g>
    </g>
    <g id="ytick_4">
     <g id="line2d_10">
      <g>
       <use xlink:href="#m035b9b02a6" x="40.603125" y="111.320073" style="stroke: #000000; stroke-width: 0.8"/>
      </g>
     </g>
     <g id="text_11">
      <!-- 8 -->
      <g transform="translate(27.240625 115.119292) scale(0.1 -0.1)">
       <use xlink:href="#DejaVuSans-38"/>
      </g>
     </g>
    </g>
    <g id="ytick_5">
     <g id="line2d_11">
      <g>
       <use xlink:href="#m035b9b02a6" x="40.603125" y="60.666221" style="stroke: #000000; stroke-width: 0.8"/>
      </g>
     </g>
     <g id="text_12">
      <!-- 10 -->
      <g transform="translate(20.878125 64.465439) scale(0.1 -0.1)">
       <use xlink:href="#DejaVuSans-31"/>
       <use xlink:href="#DejaVuSans-30" x="63.623047"/>
      </g>
     </g>
    </g>
    <g id="text_13">
     <!-- Im$(S_{21})$ [mV] -->
     <g transform="translate(14.798438 206.466) rotate(-90) scale(0.1 -0.1)">
      <defs>
       <path id="DejaVuSans-49" d="M 628 4666 
L 1259 4666 
L 1259 0 
L 628 0 
L 628 4666 
z
" transform="scale(0.015625)"/>
      </defs>
      <use xlink:href="#DejaVuSans-49" transform="translate(0 0.015625)"/>
      <use xlink:href="#DejaVuSans-6d" transform="translate(25.867188 0.015625)"/>
      <use xlink:href="#DejaVuSans-28" transform="translate(123.279297 0.015625)"/>
      <use xlink:href="#DejaVuSans-Oblique-53" transform="translate(162.292969 0.015625)"/>
      <use xlink:href="#DejaVuSans-32" transform="translate(225.769531 -16.390625) scale(0.7)"/>
      <use xlink:href="#DejaVuSans-31" transform="translate(270.305664 -16.390625) scale(0.7)"/>
      <use xlink:href="#DejaVuSans-29" transform="translate(317.576172 0.015625)"/>
      <use xlink:href="#DejaVuSans-20" transform="translate(356.589844 0.015625)"/>
      <use xlink:href="#DejaVuSans-5b" transform="translate(388.376953 0.015625)"/>
      <use xlink:href="#DejaVuSans-6d" transform="translate(427.390625 0.015625)"/>
      <use xlink:href="#DejaVuSans-56" transform="translate(524.802734 0.015625)"/>
      <use xlink:href="#DejaVuSans-5d" transform="translate(593.210938 0.015625)"/>
     </g>
    </g>
   </g>
   <g id="line2d_12">
    <path d="M 56.835852 95.801897 
L 63.018917 89.945099 
L 65.387879 88.265435 
L 70.22831 88.376185 
L 73.6318 84.733083 
L 83.438867 83.134777 
L 85.804723 82.426976 
L 86.294605 79.879079 
L 91.003611 76.463415 
L 95.810805 77.296098 
L 102.544945 73.679199 
L 104.127908 75.313248 
L 108.780008 72.369809 
L 108.714373 74.102345 
L 116.472201 68.805343 
L 121.510902 69.889632 
L 123.389981 69.760791 
L 125.941776 67.622897 
L 130.394984 69.409049 
L 131.974748 68.591735 
L 138.504996 72.358756 
L 141.967846 68.776996 
L 153.534061 67.410499 
L 153.860214 67.78432 
L 157.342603 68.850022 
L 157.382239 69.510065 
L 160.410559 72.496643 
L 164.007102 70.972161 
L 169.916446 69.341246 
L 174.511795 71.941191 
L 173.638356 70.770101 
L 182.499483 72.855672 
L 184.201757 72.161893 
L 183.480243 74.639293 
L 184.183275 74.411718 
L 190.364227 73.020394 
L 196.68875 75.039894 
L 198.722084 79.184723 
L 201.588167 77.782703 
L 204.174068 74.916139 
L 199.838959 76.008484 
L 204.699175 79.449004 
L 208.867605 77.152492 
L 208.460379 76.965967 
L 209.68069 78.679476 
L 216.287071 82.643003 
L 218.700235 80.31611 
L 221.852215 80.615942 
L 218.412692 83.788633 
L 224.661019 85.067779 
L 225.209858 85.856525 
L 228.072151 88.956107 
L 229.643186 87.985895 
L 233.040775 84.313429 
L 233.549419 86.58437 
L 235.658763 84.996897 
L 236.590662 92.070592 
L 243.149207 90.145234 
L 241.798527 93.1471 
L 244.439408 92.100396 
L 248.981765 91.366063 
L 250.712367 94.365481 
L 246.913951 96.631006 
L 251.982658 96.239341 
L 260.221081 99.269142 
L 254.20218 96.001318 
L 258.452365 100.681225 
L 257.708704 101.863698 
L 262.182941 102.138619 
L 261.288846 102.81043 
L 266.838955 102.085554 
L 268.585585 104.122514 
L 269.992767 102.284562 
L 272.860434 109.41003 
L 271.491769 106.156806 
L 279.024613 109.000961 
L 275.824332 111.114247 
L 280.425862 110.871439 
L 279.502102 111.380425 
L 279.512974 113.548205 
L 286.156847 112.971665 
L 284.664772 116.544517 
L 287.766182 116.891227 
L 290.009715 118.449941 
L 287.018607 119.429007 
L 289.159386 118.180381 
L 291.698601 121.83756 
L 292.087624 122.086031 
L 295.269703 125.409312 
L 299.689053 124.884682 
L 300.142904 126.898298 
L 299.144066 126.324975 
L 304.470652 127.501839 
L 305.910263 132.216554 
L 304.340967 132.479433 
L 307.31642 130.816267 
L 310.172096 135.629139 
L 310.825211 137.275203 
L 310.424322 136.408729 
L 307.703393 137.004736 
L 312.894299 138.875599 
L 315.741092 140.127194 
L 315.586557 142.550045 
L 316.400108 142.23971 
L 321.327357 144.766409 
L 320.374492 147.890627 
L 318.619351 149.67851 
L 320.991606 146.494381 
L 323.90481 146.925281 
L 328.060193 149.283326 
L 330.66411 152.03727 
L 327.195948 155.893539 
L 327.032902 155.358929 
L 330.542408 156.427985 
L 329.104692 156.242862 
L 331.412058 156.762406 
L 335.459842 163.212627 
L 335.242468 164.265049 
L 333.054102 164.375001 
L 336.988415 163.61034 
L 339.478831 168.656892 
L 341.10525 165.48299 
L 338.405288 168.714163 
L 340.584274 170.146923 
L 344.064333 170.649419 
L 346.422983 172.140963 
L 345.285732 174.177675 
L 341.892274 175.225506 
L 350.70041 176.108614 
L 343.731532 177.996881 
L 346.303238 177.757786 
L 345.80152 180.882774 
L 350.390378 179.665409 
L 351.672503 185.588993 
L 348.800581 186.514856 
L 350.577155 189.984602 
L 354.853867 187.615532 
L 350.660681 191.782934 
L 355.977606 193.619978 
L 354.975787 195.37308 
L 355.602095 195.474646 
L 358.802159 197.670197 
L 359.120454 199.542737 
L 353.410746 200.061676 
L 359.997372 201.675709 
L 360.745413 202.595605 
L 356.745154 201.510492 
L 360.661638 207.239356 
L 363.504797 208.559717 
L 363.681572 207.116234 
L 362.287032 210.490573 
L 368.013358 213.377043 
L 363.100801 212.611585 
L 366.889805 214.124932 
L 365.395804 218.394422 
L 367.636511 216.587237 
L 367.110534 219.014432 
L 365.04623 219.525947 
L 370.573011 219.986212 
L 368.494077 220.999756 
L 369.312971 225.569161 
L 370.715121 225.200977 
L 370.411923 227.257073 
L 372.376392 225.827943 
L 369.336547 231.618424 
L 371.579615 228.896759 
L 371.427969 234.059861 
L 375.116549 234.115236 
L 372.043964 234.787788 
L 373.352151 237.504917 
L 375.087536 240.821379 
L 375.747765 239.387053 
L 374.714727 240.804992 
L 371.908067 240.93628 
L 373.86766 244.532036 
L 376.374601 243.291851 
L 379.241087 244.577072 
L 377.012247 250.28878 
L 378.240821 248.717309 
L 375.336966 252.436737 
L 377.725809 255.293457 
L 377.550617 256.47527 
L 379.164736 256.04415 
L 377.486163 257.934809 
L 379.577181 258.421249 
L 379.185361 261.946865 
L 377.076017 265.2071 
L 378.481522 265.641547 
L 378.073457 266.886159 
L 380.150341 265.285378 
L 379.64589 268.552569 
L 378.84905 269.07654 
L 378.812024 271.162303 
L 379.618618 272.851974 
L 375.710272 273.539347 
L 381.490398 274.146242 
L 381.293867 276.544209 
L 381.293867 276.544209 
" clip-path="url(#p32f81643a7)" style="fill: none; stroke: #1f77b4; stroke-width: 1.5; stroke-linecap: square"/>
    <defs>
     <path id="m151e2505f7" d="M 0 1.5 
C 0.397805 1.5 0.77937 1.341951 1.06066 1.06066 
C 1.341951 0.77937 1.5 0.397805 1.5 0 
C 1.5 -0.397805 1.341951 -0.77937 1.06066 -1.06066 
C 0.77937 -1.341951 0.397805 -1.5 0 -1.5 
C -0.397805 -1.5 -0.77937 -1.341951 -1.06066 -1.06066 
C -1.341951 -0.77937 -1.5 -0.397805 -1.5 0 
C -1.5 0.397805 -1.341951 0.77937 -1.06066 1.06066 
C -0.77937 1.341951 -0.397805 1.5 0 1.5 
z
" style="stroke: #1f77b4"/>
    </defs>
    <g clip-path="url(#p32f81643a7)">
     <use xlink:href="#m151e2505f7" x="56.835852" y="95.801897" style="fill: #1f77b4; stroke: #1f77b4"/>
     <use xlink:href="#m151e2505f7" x="63.018917" y="89.945099" style="fill: #1f77b4; stroke: #1f77b4"/>
     <use xlink:href="#m151e2505f7" x="65.387879" y="88.265435" style="fill: #1f77b4; stroke: #1f77b4"/>
     <use xlink:href="#m151e2505f7" x="70.22831" y="88.376185" style="fill: #1f77b4; stroke: #1f77b4"/>
     <use xlink:href="#m151e2505f7" x="73.6318" y="84.733083" style="fill: #1f77b4; stroke: #1f77b4"/>
     <use xlink:href="#m151e2505f7" x="83.438867" y="83.134777" style="fill: #1f77b4; stroke: #1f77b4"/>
     <use xlink:href="#m151e2505f7" x="85.804723" y="82.426976" style="fill: #1f77b4; stroke: #1f77b4"/>
     <use xlink:href="#m151e2505f7" x="86.294605" y="79.879079" style="fill: #1f77b4; stroke: #1f77b4"/>
     <use xlink:href="#m151e2505f7" x="91.003611" y="76.463415" style="fill: #1f77b4; stroke: #1f77b4"/>
     <use xlink:href="#m151e2505f7" x="95.810805" y="77.296098" style="fill: #1f77b4; stroke: #1f77b4"/>
     <use xlink:href="#m151e2505f7" x="102.544945" y="73.679199" style="fill: #1f77b4; stroke: #1f77b4"/>
     <use xlink:href="#m151e2505f7" x="104.127908" y="75.313248" style="fill: #1f77b4; stroke: #1f77b4"/>
     <use xlink:href="#m151e2505f7" x="108.780008" y="72.369809" style="fill: #1f77b4; stroke: #1f77b4"/>
     <use xlink:href="#m151e2505f7" x="108.714373" y="74.102345" style="fill: #1f77b4; stroke: #1f77b4"/>
     <use xlink:href="#m151e2505f7" x="116.472201" y="68.805343" style="fill: #1f77b4; stroke: #1f77b4"/>
     <use xlink:href="#m151e2505f7" x="121.510902" y="69.889632" style="fill: #1f77b4; stroke: #1f77b4"/>
     <use xlink:href="#m151e2505f7" x="123.389981" y="69.760791" style="fill: #1f77b4; stroke: #1f77b4"/>
     <use xlink:href="#m151e2505f7" x="125.941776" y="67.622897" style="fill: #1f77b4; stroke: #1f77b4"/>
     <use xlink:href="#m151e2505f7" x="130.394984" y="69.409049" style="fill: #1f77b4; stroke: #1f77b4"/>
     <use xlink:href="#m151e2505f7" x="131.974748" y="68.591735" style="fill: #1f77b4; stroke: #1f77b4"/>
     <use xlink:href="#m151e2505f7" x="138.504996" y="72.358756" style="fill: #1f77b4; stroke: #1f77b4"/>
     <use xlink:href="#m151e2505f7" x="141.967846" y="68.776996" style="fill: #1f77b4; stroke: #1f77b4"/>
     <use xlink:href="#m151e2505f7" x="146.151496" y="68.291573" style="fill: #1f77b4; stroke: #1f77b4"/>
     <use xlink:href="#m151e2505f7" x="153.534061" y="67.410499" style="fill: #1f77b4; stroke: #1f77b4"/>
     <use xlink:href="#m151e2505f7" x="153.860214" y="67.78432" style="fill: #1f77b4; stroke: #1f77b4"/>
     <use xlink:href="#m151e2505f7" x="157.342603" y="68.850022" style="fill: #1f77b4; stroke: #1f77b4"/>
     <use xlink:href="#m151e2505f7" x="157.382239" y="69.510065" style="fill: #1f77b4; stroke: #1f77b4"/>
     <use xlink:href="#m151e2505f7" x="160.410559" y="72.496643" style="fill: #1f77b4; stroke: #1f77b4"/>
     <use xlink:href="#m151e2505f7" x="164.007102" y="70.972161" style="fill: #1f77b4; stroke: #1f77b4"/>
     <use xlink:href="#m151e2505f7" x="169.916446" y="69.341246" style="fill: #1f77b4; stroke: #1f77b4"/>
     <use xlink:href="#m151e2505f7" x="174.511795" y="71.941191" style="fill: #1f77b4; stroke: #1f77b4"/>
     <use xlink:href="#m151e2505f7" x="173.638356" y="70.770101" style="fill: #1f77b4; stroke: #1f77b4"/>
     <use xlink:href="#m151e2505f7" x="175.91292" y="71.334434" style="fill: #1f77b4; stroke: #1f77b4"/>
     <use xlink:href="#m151e2505f7" x="182.499483" y="72.855672" style="fill: #1f77b4; stroke: #1f77b4"/>
     <use xlink:href="#m151e2505f7" x="184.201757" y="72.161893" style="fill: #1f77b4; stroke: #1f77b4"/>
     <use xlink:href="#m151e2505f7" x="183.480243" y="74.639293" style="fill: #1f77b4; stroke: #1f77b4"/>
     <use xlink:href="#m151e2505f7" x="184.183275" y="74.411718" style="fill: #1f77b4; stroke: #1f77b4"/>
     <use xlink:href="#m151e2505f7" x="190.364227" y="73.020394" style="fill: #1f77b4; stroke: #1f77b4"/>
     <use xlink:href="#m151e2505f7" x="196.68875" y="75.039894" style="fill: #1f77b4; stroke: #1f77b4"/>
     <use xlink:href="#m151e2505f7" x="198.722084" y="79.184723" style="fill: #1f77b4; stroke: #1f77b4"/>
     <use xlink:href="#m151e2505f7" x="201.588167" y="77.782703" style="fill: #1f77b4; stroke: #1f77b4"/>
     <use xlink:href="#m151e2505f7" x="204.174068" y="74.916139" style="fill: #1f77b4; stroke: #1f77b4"/>
     <use xlink:href="#m151e2505f7" x="199.838959" y="76.008484" style="fill: #1f77b4; stroke: #1f77b4"/>
     <use xlink:href="#m151e2505f7" x="204.699175" y="79.449004" style="fill: #1f77b4; stroke: #1f77b4"/>
     <use xlink:href="#m151e2505f7" x="208.867605" y="77.152492" style="fill: #1f77b4; stroke: #1f77b4"/>
     <use xlink:href="#m151e2505f7" x="208.460379" y="76.965967" style="fill: #1f77b4; stroke: #1f77b4"/>
     <use xlink:href="#m151e2505f7" x="209.68069" y="78.679476" style="fill: #1f77b4; stroke: #1f77b4"/>
     <use xlink:href="#m151e2505f7" x="216.287071" y="82.643003" style="fill: #1f77b4; stroke: #1f77b4"/>
     <use xlink:href="#m151e2505f7" x="218.700235" y="80.31611" style="fill: #1f77b4; stroke: #1f77b4"/>
     <use xlink:href="#m151e2505f7" x="221.852215" y="80.615942" style="fill: #1f77b4; stroke: #1f77b4"/>
     <use xlink:href="#m151e2505f7" x="218.412692" y="83.788633" style="fill: #1f77b4; stroke: #1f77b4"/>
     <use xlink:href="#m151e2505f7" x="224.661019" y="85.067779" style="fill: #1f77b4; stroke: #1f77b4"/>
     <use xlink:href="#m151e2505f7" x="225.209858" y="85.856525" style="fill: #1f77b4; stroke: #1f77b4"/>
     <use xlink:href="#m151e2505f7" x="228.072151" y="88.956107" style="fill: #1f77b4; stroke: #1f77b4"/>
     <use xlink:href="#m151e2505f7" x="229.643186" y="87.985895" style="fill: #1f77b4; stroke: #1f77b4"/>
     <use xlink:href="#m151e2505f7" x="233.040775" y="84.313429" style="fill: #1f77b4; stroke: #1f77b4"/>
     <use xlink:href="#m151e2505f7" x="233.549419" y="86.58437" style="fill: #1f77b4; stroke: #1f77b4"/>
     <use xlink:href="#m151e2505f7" x="235.658763" y="84.996897" style="fill: #1f77b4; stroke: #1f77b4"/>
     <use xlink:href="#m151e2505f7" x="236.590662" y="92.070592" style="fill: #1f77b4; stroke: #1f77b4"/>
     <use xlink:href="#m151e2505f7" x="243.149207" y="90.145234" style="fill: #1f77b4; stroke: #1f77b4"/>
     <use xlink:href="#m151e2505f7" x="241.798527" y="93.1471" style="fill: #1f77b4; stroke: #1f77b4"/>
     <use xlink:href="#m151e2505f7" x="244.439408" y="92.100396" style="fill: #1f77b4; stroke: #1f77b4"/>
     <use xlink:href="#m151e2505f7" x="248.981765" y="91.366063" style="fill: #1f77b4; stroke: #1f77b4"/>
     <use xlink:href="#m151e2505f7" x="250.712367" y="94.365481" style="fill: #1f77b4; stroke: #1f77b4"/>
     <use xlink:href="#m151e2505f7" x="246.913951" y="96.631006" style="fill: #1f77b4; stroke: #1f77b4"/>
     <use xlink:href="#m151e2505f7" x="251.982658" y="96.239341" style="fill: #1f77b4; stroke: #1f77b4"/>
     <use xlink:href="#m151e2505f7" x="260.221081" y="99.269142" style="fill: #1f77b4; stroke: #1f77b4"/>
     <use xlink:href="#m151e2505f7" x="254.20218" y="96.001318" style="fill: #1f77b4; stroke: #1f77b4"/>
     <use xlink:href="#m151e2505f7" x="258.452365" y="100.681225" style="fill: #1f77b4; stroke: #1f77b4"/>
     <use xlink:href="#m151e2505f7" x="257.708704" y="101.863698" style="fill: #1f77b4; stroke: #1f77b4"/>
     <use xlink:href="#m151e2505f7" x="262.182941" y="102.138619" style="fill: #1f77b4; stroke: #1f77b4"/>
     <use xlink:href="#m151e2505f7" x="261.288846" y="102.81043" style="fill: #1f77b4; stroke: #1f77b4"/>
     <use xlink:href="#m151e2505f7" x="266.838955" y="102.085554" style="fill: #1f77b4; stroke: #1f77b4"/>
     <use xlink:href="#m151e2505f7" x="268.585585" y="104.122514" style="fill: #1f77b4; stroke: #1f77b4"/>
     <use xlink:href="#m151e2505f7" x="269.992767" y="102.284562" style="fill: #1f77b4; stroke: #1f77b4"/>
     <use xlink:href="#m151e2505f7" x="272.860434" y="109.41003" style="fill: #1f77b4; stroke: #1f77b4"/>
     <use xlink:href="#m151e2505f7" x="271.491769" y="106.156806" style="fill: #1f77b4; stroke: #1f77b4"/>
     <use xlink:href="#m151e2505f7" x="279.024613" y="109.000961" style="fill: #1f77b4; stroke: #1f77b4"/>
     <use xlink:href="#m151e2505f7" x="275.824332" y="111.114247" style="fill: #1f77b4; stroke: #1f77b4"/>
     <use xlink:href="#m151e2505f7" x="280.425862" y="110.871439" style="fill: #1f77b4; stroke: #1f77b4"/>
     <use xlink:href="#m151e2505f7" x="279.502102" y="111.380425" style="fill: #1f77b4; stroke: #1f77b4"/>
     <use xlink:href="#m151e2505f7" x="279.512974" y="113.548205" style="fill: #1f77b4; stroke: #1f77b4"/>
     <use xlink:href="#m151e2505f7" x="286.156847" y="112.971665" style="fill: #1f77b4; stroke: #1f77b4"/>
     <use xlink:href="#m151e2505f7" x="284.664772" y="116.544517" style="fill: #1f77b4; stroke: #1f77b4"/>
     <use xlink:href="#m151e2505f7" x="287.766182" y="116.891227" style="fill: #1f77b4; stroke: #1f77b4"/>
     <use xlink:href="#m151e2505f7" x="290.009715" y="118.449941" style="fill: #1f77b4; stroke: #1f77b4"/>
     <use xlink:href="#m151e2505f7" x="287.018607" y="119.429007" style="fill: #1f77b4; stroke: #1f77b4"/>
     <use xlink:href="#m151e2505f7" x="289.159386" y="118.180381" style="fill: #1f77b4; stroke: #1f77b4"/>
     <use xlink:href="#m151e2505f7" x="291.698601" y="121.83756" style="fill: #1f77b4; stroke: #1f77b4"/>
     <use xlink:href="#m151e2505f7" x="292.087624" y="122.086031" style="fill: #1f77b4; stroke: #1f77b4"/>
     <use xlink:href="#m151e2505f7" x="295.269703" y="125.409312" style="fill: #1f77b4; stroke: #1f77b4"/>
     <use xlink:href="#m151e2505f7" x="299.689053" y="124.884682" style="fill: #1f77b4; stroke: #1f77b4"/>
     <use xlink:href="#m151e2505f7" x="300.142904" y="126.898298" style="fill: #1f77b4; stroke: #1f77b4"/>
     <use xlink:href="#m151e2505f7" x="299.144066" y="126.324975" style="fill: #1f77b4; stroke: #1f77b4"/>
     <use xlink:href="#m151e2505f7" x="304.470652" y="127.501839" style="fill: #1f77b4; stroke: #1f77b4"/>
     <use xlink:href="#m151e2505f7" x="305.910263" y="132.216554" style="fill: #1f77b4; stroke: #1f77b4"/>
     <use xlink:href="#m151e2505f7" x="304.340967" y="132.479433" style="fill: #1f77b4; stroke: #1f77b4"/>
     <use xlink:href="#m151e2505f7" x="307.31642" y="130.816267" style="fill: #1f77b4; stroke: #1f77b4"/>
     <use xlink:href="#m151e2505f7" x="310.172096" y="135.629139" style="fill: #1f77b4; stroke: #1f77b4"/>
     <use xlink:href="#m151e2505f7" x="310.825211" y="137.275203" style="fill: #1f77b4; stroke: #1f77b4"/>
     <use xlink:href="#m151e2505f7" x="310.424322" y="136.408729" style="fill: #1f77b4; stroke: #1f77b4"/>
     <use xlink:href="#m151e2505f7" x="307.703393" y="137.004736" style="fill: #1f77b4; stroke: #1f77b4"/>
     <use xlink:href="#m151e2505f7" x="312.894299" y="138.875599" style="fill: #1f77b4; stroke: #1f77b4"/>
     <use xlink:href="#m151e2505f7" x="315.741092" y="140.127194" style="fill: #1f77b4; stroke: #1f77b4"/>
     <use xlink:href="#m151e2505f7" x="315.586557" y="142.550045" style="fill: #1f77b4; stroke: #1f77b4"/>
     <use xlink:href="#m151e2505f7" x="316.400108" y="142.23971" style="fill: #1f77b4; stroke: #1f77b4"/>
     <use xlink:href="#m151e2505f7" x="321.327357" y="144.766409" style="fill: #1f77b4; stroke: #1f77b4"/>
     <use xlink:href="#m151e2505f7" x="320.374492" y="147.890627" style="fill: #1f77b4; stroke: #1f77b4"/>
     <use xlink:href="#m151e2505f7" x="318.619351" y="149.67851" style="fill: #1f77b4; stroke: #1f77b4"/>
     <use xlink:href="#m151e2505f7" x="320.991606" y="146.494381" style="fill: #1f77b4; stroke: #1f77b4"/>
     <use xlink:href="#m151e2505f7" x="323.90481" y="146.925281" style="fill: #1f77b4; stroke: #1f77b4"/>
     <use xlink:href="#m151e2505f7" x="328.060193" y="149.283326" style="fill: #1f77b4; stroke: #1f77b4"/>
     <use xlink:href="#m151e2505f7" x="330.66411" y="152.03727" style="fill: #1f77b4; stroke: #1f77b4"/>
     <use xlink:href="#m151e2505f7" x="327.195948" y="155.893539" style="fill: #1f77b4; stroke: #1f77b4"/>
     <use xlink:href="#m151e2505f7" x="327.032902" y="155.358929" style="fill: #1f77b4; stroke: #1f77b4"/>
     <use xlink:href="#m151e2505f7" x="330.542408" y="156.427985" style="fill: #1f77b4; stroke: #1f77b4"/>
     <use xlink:href="#m151e2505f7" x="329.104692" y="156.242862" style="fill: #1f77b4; stroke: #1f77b4"/>
     <use xlink:href="#m151e2505f7" x="331.412058" y="156.762406" style="fill: #1f77b4; stroke: #1f77b4"/>
     <use xlink:href="#m151e2505f7" x="335.459842" y="163.212627" style="fill: #1f77b4; stroke: #1f77b4"/>
     <use xlink:href="#m151e2505f7" x="335.242468" y="164.265049" style="fill: #1f77b4; stroke: #1f77b4"/>
     <use xlink:href="#m151e2505f7" x="333.054102" y="164.375001" style="fill: #1f77b4; stroke: #1f77b4"/>
     <use xlink:href="#m151e2505f7" x="336.988415" y="163.61034" style="fill: #1f77b4; stroke: #1f77b4"/>
     <use xlink:href="#m151e2505f7" x="339.478831" y="168.656892" style="fill: #1f77b4; stroke: #1f77b4"/>
     <use xlink:href="#m151e2505f7" x="341.10525" y="165.48299" style="fill: #1f77b4; stroke: #1f77b4"/>
     <use xlink:href="#m151e2505f7" x="338.405288" y="168.714163" style="fill: #1f77b4; stroke: #1f77b4"/>
     <use xlink:href="#m151e2505f7" x="340.584274" y="170.146923" style="fill: #1f77b4; stroke: #1f77b4"/>
     <use xlink:href="#m151e2505f7" x="344.064333" y="170.649419" style="fill: #1f77b4; stroke: #1f77b4"/>
     <use xlink:href="#m151e2505f7" x="346.422983" y="172.140963" style="fill: #1f77b4; stroke: #1f77b4"/>
     <use xlink:href="#m151e2505f7" x="345.285732" y="174.177675" style="fill: #1f77b4; stroke: #1f77b4"/>
     <use xlink:href="#m151e2505f7" x="341.892274" y="175.225506" style="fill: #1f77b4; stroke: #1f77b4"/>
     <use xlink:href="#m151e2505f7" x="350.70041" y="176.108614" style="fill: #1f77b4; stroke: #1f77b4"/>
     <use xlink:href="#m151e2505f7" x="343.731532" y="177.996881" style="fill: #1f77b4; stroke: #1f77b4"/>
     <use xlink:href="#m151e2505f7" x="346.303238" y="177.757786" style="fill: #1f77b4; stroke: #1f77b4"/>
     <use xlink:href="#m151e2505f7" x="345.80152" y="180.882774" style="fill: #1f77b4; stroke: #1f77b4"/>
     <use xlink:href="#m151e2505f7" x="350.390378" y="179.665409" style="fill: #1f77b4; stroke: #1f77b4"/>
     <use xlink:href="#m151e2505f7" x="351.672503" y="185.588993" style="fill: #1f77b4; stroke: #1f77b4"/>
     <use xlink:href="#m151e2505f7" x="348.800581" y="186.514856" style="fill: #1f77b4; stroke: #1f77b4"/>
     <use xlink:href="#m151e2505f7" x="350.577155" y="189.984602" style="fill: #1f77b4; stroke: #1f77b4"/>
     <use xlink:href="#m151e2505f7" x="354.853867" y="187.615532" style="fill: #1f77b4; stroke: #1f77b4"/>
     <use xlink:href="#m151e2505f7" x="353.51701" y="188.942436" style="fill: #1f77b4; stroke: #1f77b4"/>
     <use xlink:href="#m151e2505f7" x="350.660681" y="191.782934" style="fill: #1f77b4; stroke: #1f77b4"/>
     <use xlink:href="#m151e2505f7" x="355.977606" y="193.619978" style="fill: #1f77b4; stroke: #1f77b4"/>
     <use xlink:href="#m151e2505f7" x="354.975787" y="195.37308" style="fill: #1f77b4; stroke: #1f77b4"/>
     <use xlink:href="#m151e2505f7" x="355.602095" y="195.474646" style="fill: #1f77b4; stroke: #1f77b4"/>
     <use xlink:href="#m151e2505f7" x="358.802159" y="197.670197" style="fill: #1f77b4; stroke: #1f77b4"/>
     <use xlink:href="#m151e2505f7" x="359.120454" y="199.542737" style="fill: #1f77b4; stroke: #1f77b4"/>
     <use xlink:href="#m151e2505f7" x="353.410746" y="200.061676" style="fill: #1f77b4; stroke: #1f77b4"/>
     <use xlink:href="#m151e2505f7" x="359.997372" y="201.675709" style="fill: #1f77b4; stroke: #1f77b4"/>
     <use xlink:href="#m151e2505f7" x="360.745413" y="202.595605" style="fill: #1f77b4; stroke: #1f77b4"/>
     <use xlink:href="#m151e2505f7" x="356.745154" y="201.510492" style="fill: #1f77b4; stroke: #1f77b4"/>
     <use xlink:href="#m151e2505f7" x="360.661638" y="207.239356" style="fill: #1f77b4; stroke: #1f77b4"/>
     <use xlink:href="#m151e2505f7" x="363.504797" y="208.559717" style="fill: #1f77b4; stroke: #1f77b4"/>
     <use xlink:href="#m151e2505f7" x="363.681572" y="207.116234" style="fill: #1f77b4; stroke: #1f77b4"/>
     <use xlink:href="#m151e2505f7" x="362.287032" y="210.490573" style="fill: #1f77b4; stroke: #1f77b4"/>
     <use xlink:href="#m151e2505f7" x="368.013358" y="213.377043" style="fill: #1f77b4; stroke: #1f77b4"/>
     <use xlink:href="#m151e2505f7" x="363.100801" y="212.611585" style="fill: #1f77b4; stroke: #1f77b4"/>
     <use xlink:href="#m151e2505f7" x="366.889805" y="214.124932" style="fill: #1f77b4; stroke: #1f77b4"/>
     <use xlink:href="#m151e2505f7" x="365.395804" y="218.394422" style="fill: #1f77b4; stroke: #1f77b4"/>
     <use xlink:href="#m151e2505f7" x="367.636511" y="216.587237" style="fill: #1f77b4; stroke: #1f77b4"/>
     <use xlink:href="#m151e2505f7" x="367.110534" y="219.014432" style="fill: #1f77b4; stroke: #1f77b4"/>
     <use xlink:href="#m151e2505f7" x="365.04623" y="219.525947" style="fill: #1f77b4; stroke: #1f77b4"/>
     <use xlink:href="#m151e2505f7" x="370.573011" y="219.986212" style="fill: #1f77b4; stroke: #1f77b4"/>
     <use xlink:href="#m151e2505f7" x="368.494077" y="220.999756" style="fill: #1f77b4; stroke: #1f77b4"/>
     <use xlink:href="#m151e2505f7" x="369.312971" y="225.569161" style="fill: #1f77b4; stroke: #1f77b4"/>
     <use xlink:href="#m151e2505f7" x="370.715121" y="225.200977" style="fill: #1f77b4; stroke: #1f77b4"/>
     <use xlink:href="#m151e2505f7" x="370.411923" y="227.257073" style="fill: #1f77b4; stroke: #1f77b4"/>
     <use xlink:href="#m151e2505f7" x="372.376392" y="225.827943" style="fill: #1f77b4; stroke: #1f77b4"/>
     <use xlink:href="#m151e2505f7" x="369.336547" y="231.618424" style="fill: #1f77b4; stroke: #1f77b4"/>
     <use xlink:href="#m151e2505f7" x="371.579615" y="228.896759" style="fill: #1f77b4; stroke: #1f77b4"/>
     <use xlink:href="#m151e2505f7" x="371.427969" y="234.059861" style="fill: #1f77b4; stroke: #1f77b4"/>
     <use xlink:href="#m151e2505f7" x="375.116549" y="234.115236" style="fill: #1f77b4; stroke: #1f77b4"/>
     <use xlink:href="#m151e2505f7" x="372.043964" y="234.787788" style="fill: #1f77b4; stroke: #1f77b4"/>
     <use xlink:href="#m151e2505f7" x="373.352151" y="237.504917" style="fill: #1f77b4; stroke: #1f77b4"/>
     <use xlink:href="#m151e2505f7" x="375.087536" y="240.821379" style="fill: #1f77b4; stroke: #1f77b4"/>
     <use xlink:href="#m151e2505f7" x="375.747765" y="239.387053" style="fill: #1f77b4; stroke: #1f77b4"/>
     <use xlink:href="#m151e2505f7" x="374.714727" y="240.804992" style="fill: #1f77b4; stroke: #1f77b4"/>
     <use xlink:href="#m151e2505f7" x="371.908067" y="240.93628" style="fill: #1f77b4; stroke: #1f77b4"/>
     <use xlink:href="#m151e2505f7" x="373.86766" y="244.532036" style="fill: #1f77b4; stroke: #1f77b4"/>
     <use xlink:href="#m151e2505f7" x="376.374601" y="243.291851" style="fill: #1f77b4; stroke: #1f77b4"/>
     <use xlink:href="#m151e2505f7" x="379.241087" y="244.577072" style="fill: #1f77b4; stroke: #1f77b4"/>
     <use xlink:href="#m151e2505f7" x="377.012247" y="250.28878" style="fill: #1f77b4; stroke: #1f77b4"/>
     <use xlink:href="#m151e2505f7" x="378.240821" y="248.717309" style="fill: #1f77b4; stroke: #1f77b4"/>
     <use xlink:href="#m151e2505f7" x="375.336966" y="252.436737" style="fill: #1f77b4; stroke: #1f77b4"/>
     <use xlink:href="#m151e2505f7" x="377.725809" y="255.293457" style="fill: #1f77b4; stroke: #1f77b4"/>
     <use xlink:href="#m151e2505f7" x="377.550617" y="256.47527" style="fill: #1f77b4; stroke: #1f77b4"/>
     <use xlink:href="#m151e2505f7" x="379.164736" y="256.04415" style="fill: #1f77b4; stroke: #1f77b4"/>
     <use xlink:href="#m151e2505f7" x="377.486163" y="257.934809" style="fill: #1f77b4; stroke: #1f77b4"/>
     <use xlink:href="#m151e2505f7" x="379.577181" y="258.421249" style="fill: #1f77b4; stroke: #1f77b4"/>
     <use xlink:href="#m151e2505f7" x="379.185361" y="261.946865" style="fill: #1f77b4; stroke: #1f77b4"/>
     <use xlink:href="#m151e2505f7" x="377.076017" y="265.2071" style="fill: #1f77b4; stroke: #1f77b4"/>
     <use xlink:href="#m151e2505f7" x="378.481522" y="265.641547" style="fill: #1f77b4; stroke: #1f77b4"/>
     <use xlink:href="#m151e2505f7" x="378.073457" y="266.886159" style="fill: #1f77b4; stroke: #1f77b4"/>
     <use xlink:href="#m151e2505f7" x="380.150341" y="265.285378" style="fill: #1f77b4; stroke: #1f77b4"/>
     <use xlink:href="#m151e2505f7" x="379.64589" y="268.552569" style="fill: #1f77b4; stroke: #1f77b4"/>
     <use xlink:href="#m151e2505f7" x="378.84905" y="269.07654" style="fill: #1f77b4; stroke: #1f77b4"/>
     <use xlink:href="#m151e2505f7" x="378.812024" y="271.162303" style="fill: #1f77b4; stroke: #1f77b4"/>
     <use xlink:href="#m151e2505f7" x="379.618618" y="272.851974" style="fill: #1f77b4; stroke: #1f77b4"/>
     <use xlink:href="#m151e2505f7" x="375.710272" y="273.539347" style="fill: #1f77b4; stroke: #1f77b4"/>
     <use xlink:href="#m151e2505f7" x="381.490398" y="274.146242" style="fill: #1f77b4; stroke: #1f77b4"/>
     <use xlink:href="#m151e2505f7" x="381.293867" y="276.544209" style="fill: #1f77b4; stroke: #1f77b4"/>
    </g>
   </g>
   <g id="line2d_13">
    <path d="M 112.093646 53.856 
L 120.804015 54.667919 
L 129.482947 55.708352 
L 138.12279 56.976356 
L 146.715931 58.470786 
L 155.254798 60.1903 
L 163.73187 62.133355 
L 172.13968 64.298213 
L 180.470825 66.682939 
L 188.71797 69.285406 
L 196.873856 72.103295 
L 204.549954 74.984985 
L 212.13064 78.05747 
L 219.609867 81.318273 
L 226.981668 84.764766 
L 234.240164 88.394176 
L 241.379566 92.203581 
L 248.394185 96.189917 
L 255.278428 100.349979 
L 262.02681 104.680424 
L 268.633956 109.177774 
L 275.094603 113.838418 
L 281.403608 118.658614 
L 287.555947 123.634495 
L 293.546726 128.762069 
L 299.371177 134.037225 
L 305.024668 139.455734 
L 310.502705 145.013254 
L 315.800932 150.705331 
L 320.915139 156.527407 
L 325.841264 162.47482 
L 330.575396 168.542808 
L 335.113776 174.726514 
L 339.452804 181.020991 
L 343.589038 187.421203 
L 347.5192 193.922031 
L 351.240174 200.518277 
L 354.749016 207.204668 
L 358.042948 213.975858 
L 361.119364 220.826437 
L 363.975833 227.750931 
L 366.610101 234.743809 
L 369.020087 241.799486 
L 371.203895 248.912328 
L 373.159805 256.076656 
L 374.88628 263.286752 
L 376.312684 270.173494 
L 377.529793 277.091389 
L 378.536753 284.035456 
L 379.332858 291.000695 
L 379.75578 295.776 
L 379.75578 295.776 
" clip-path="url(#p32f81643a7)" style="fill: none; stroke: #d62728; stroke-width: 1.5; stroke-linecap: square"/>
   </g>
   <g id="patch_3">
    <path d="M 40.603125 307.872 
L 40.603125 41.76 
" style="fill: none; stroke: #000000; stroke-width: 0.8; stroke-linejoin: miter; stroke-linecap: square"/>
   </g>
   <g id="patch_4">
    <path d="M 397.723125 307.872 
L 397.723125 41.76 
" style="fill: none; stroke: #000000; stroke-width: 0.8; stroke-linejoin: miter; stroke-linecap: square"/>
   </g>
   <g id="patch_5">
    <path d="M 40.603125 307.872 
L 397.723125 307.872 
" style="fill: none; stroke: #000000; stroke-width: 0.8; stroke-linejoin: miter; stroke-linecap: square"/>
   </g>
   <g id="patch_6">
    <path d="M 40.603125 41.76 
L 397.723125 41.76 
" style="fill: none; stroke: #000000; stroke-width: 0.8; stroke-linejoin: miter; stroke-linecap: square"/>
   </g>
   <g id="text_14">
    <g id="patch_7">
     <path d="M 415.579125 102.337163 
L 511.579125 102.337163 
Q 515.579125 102.337163 515.579125 98.337163 
L 515.579125 55.0656 
Q 515.579125 51.0656 511.579125 51.0656 
L 415.579125 51.0656 
Q 411.579125 51.0656 411.579125 55.0656 
L 411.579125 98.337163 
Q 411.579125 102.337163 415.579125 102.337163 
z
" style="fill: #ffffff; opacity: 0.5; stroke: #000000; stroke-linejoin: miter"/>
    </g>
    <!-- Summary -->
    <g transform="translate(415.579125 62.664038) scale(0.1 -0.1)">
     <defs>
      <path id="DejaVuSans-53" d="M 3425 4513 
L 3425 3897 
Q 3066 4069 2747 4153 
Q 2428 4238 2131 4238 
Q 1616 4238 1336 4038 
Q 1056 3838 1056 3469 
Q 1056 3159 1242 3001 
Q 1428 2844 1947 2747 
L 2328 2669 
Q 3034 2534 3370 2195 
Q 3706 1856 3706 1288 
Q 3706 609 3251 259 
Q 2797 -91 1919 -91 
Q 1588 -91 1214 -16 
Q 841 59 441 206 
L 441 856 
Q 825 641 1194 531 
Q 1563 422 1919 422 
Q 2459 422 2753 634 
Q 3047 847 3047 1241 
Q 3047 1584 2836 1778 
Q 2625 1972 2144 2069 
L 1759 2144 
Q 1053 2284 737 2584 
Q 422 2884 422 3419 
Q 422 4038 858 4394 
Q 1294 4750 2059 4750 
Q 2388 4750 2728 4690 
Q 3069 4631 3425 4513 
z
" transform="scale(0.015625)"/>
      <path id="DejaVuSans-75" d="M 544 1381 
L 544 3500 
L 1119 3500 
L 1119 1403 
Q 1119 906 1312 657 
Q 1506 409 1894 409 
Q 2359 409 2629 706 
Q 2900 1003 2900 1516 
L 2900 3500 
L 3475 3500 
L 3475 0 
L 2900 0 
L 2900 538 
Q 2691 219 2414 64 
Q 2138 -91 1772 -91 
Q 1169 -91 856 284 
Q 544 659 544 1381 
z
M 1991 3584 
L 1991 3584 
z
" transform="scale(0.015625)"/>
      <path id="DejaVuSans-61" d="M 2194 1759 
Q 1497 1759 1228 1600 
Q 959 1441 959 1056 
Q 959 750 1161 570 
Q 1363 391 1709 391 
Q 2188 391 2477 730 
Q 2766 1069 2766 1631 
L 2766 1759 
L 2194 1759 
z
M 3341 1997 
L 3341 0 
L 2766 0 
L 2766 531 
Q 2569 213 2275 61 
Q 1981 -91 1556 -91 
Q 1019 -91 701 211 
Q 384 513 384 1019 
Q 384 1609 779 1909 
Q 1175 2209 1959 2209 
L 2766 2209 
L 2766 2266 
Q 2766 2663 2505 2880 
Q 2244 3097 1772 3097 
Q 1472 3097 1187 3025 
Q 903 2953 641 2809 
L 641 3341 
Q 956 3463 1253 3523 
Q 1550 3584 1831 3584 
Q 2591 3584 2966 3190 
Q 3341 2797 3341 1997 
z
" transform="scale(0.015625)"/>
      <path id="DejaVuSans-72" d="M 2631 2963 
Q 2534 3019 2420 3045 
Q 2306 3072 2169 3072 
Q 1681 3072 1420 2755 
Q 1159 2438 1159 1844 
L 1159 0 
L 581 0 
L 581 3500 
L 1159 3500 
L 1159 2956 
Q 1341 3275 1631 3429 
Q 1922 3584 2338 3584 
Q 2397 3584 2469 3576 
Q 2541 3569 2628 3553 
L 2631 2963 
z
" transform="scale(0.015625)"/>
      <path id="DejaVuSans-79" d="M 2059 -325 
Q 1816 -950 1584 -1140 
Q 1353 -1331 966 -1331 
L 506 -1331 
L 506 -850 
L 844 -850 
Q 1081 -850 1212 -737 
Q 1344 -625 1503 -206 
L 1606 56 
L 191 3500 
L 800 3500 
L 1894 763 
L 2988 3500 
L 3597 3500 
L 2059 -325 
z
" transform="scale(0.015625)"/>
     </defs>
     <use xlink:href="#DejaVuSans-53"/>
     <use xlink:href="#DejaVuSans-75" x="63.476562"/>
     <use xlink:href="#DejaVuSans-6d" x="126.855469"/>
     <use xlink:href="#DejaVuSans-6d" x="224.267578"/>
     <use xlink:href="#DejaVuSans-61" x="321.679688"/>
     <use xlink:href="#DejaVuSans-72" x="382.958984"/>
     <use xlink:href="#DejaVuSans-79" x="424.072266"/>
    </g>
    <!-- $Q_I$: 41.$\pm$4.7e+04  -->
    <g transform="translate(415.579125 73.86185) scale(0.1 -0.1)">
     <defs>
      <path id="DejaVuSans-Oblique-51" d="M 2309 -84 
Q 2275 -88 2237 -89 
Q 2200 -91 2125 -91 
Q 1250 -91 756 411 
Q 263 913 263 1797 
Q 263 2319 452 2844 
Q 641 3369 978 3788 
Q 1369 4269 1858 4509 
Q 2347 4750 2938 4750 
Q 3794 4750 4287 4245 
Q 4781 3741 4781 2869 
Q 4781 1928 4265 1147 
Q 3750 366 2919 44 
L 3553 -825 
L 2847 -825 
L 2309 -84 
z
M 2919 4238 
Q 2400 4238 2003 3986 
Q 1606 3734 1313 3219 
Q 1125 2891 1026 2522 
Q 928 2153 928 1778 
Q 928 1128 1239 775 
Q 1550 422 2119 422 
Q 2631 422 3032 676 
Q 3434 931 3719 1434 
Q 3909 1772 4009 2142 
Q 4109 2513 4109 2881 
Q 4109 3528 3796 3883 
Q 3484 4238 2919 4238 
z
" transform="scale(0.015625)"/>
      <path id="DejaVuSans-Oblique-49" d="M 1081 4666 
L 1716 4666 
L 806 0 
L 172 0 
L 1081 4666 
z
" transform="scale(0.015625)"/>
      <path id="DejaVuSans-3a" d="M 750 794 
L 1409 794 
L 1409 0 
L 750 0 
L 750 794 
z
M 750 3309 
L 1409 3309 
L 1409 2516 
L 750 2516 
L 750 3309 
z
" transform="scale(0.015625)"/>
      <path id="DejaVuSans-2e" d="M 684 794 
L 1344 794 
L 1344 0 
L 684 0 
L 684 794 
z
" transform="scale(0.015625)"/>
      <path id="DejaVuSans-b1" d="M 2944 4013 
L 2944 2803 
L 4684 2803 
L 4684 2272 
L 2944 2272 
L 2944 1063 
L 2419 1063 
L 2419 2272 
L 678 2272 
L 678 2803 
L 2419 2803 
L 2419 4013 
L 2944 4013 
z
M 678 531 
L 4684 531 
L 4684 0 
L 678 0 
L 678 531 
z
" transform="scale(0.015625)"/>
      <path id="DejaVuSans-37" d="M 525 4666 
L 3525 4666 
L 3525 4397 
L 1831 0 
L 1172 0 
L 2766 4134 
L 525 4134 
L 525 4666 
z
" transform="scale(0.015625)"/>
      <path id="DejaVuSans-2b" d="M 2944 4013 
L 2944 2272 
L 4684 2272 
L 4684 1741 
L 2944 1741 
L 2944 0 
L 2419 0 
L 2419 1741 
L 678 1741 
L 678 2272 
L 2419 2272 
L 2419 4013 
L 2944 4013 
z
" transform="scale(0.015625)"/>
     </defs>
     <use xlink:href="#DejaVuSans-Oblique-51" transform="translate(0 0.78125)"/>
     <use xlink:href="#DejaVuSans-Oblique-49" transform="translate(78.710938 -15.625) scale(0.7)"/>
     <use xlink:href="#DejaVuSans-3a" transform="translate(102.089844 0.78125)"/>
     <use xlink:href="#DejaVuSans-20" transform="translate(135.78125 0.78125)"/>
     <use xlink:href="#DejaVuSans-34" transform="translate(167.568359 0.78125)"/>
     <use xlink:href="#DejaVuSans-31" transform="translate(231.191406 0.78125)"/>
     <use xlink:href="#DejaVuSans-2e" transform="translate(294.814453 0.78125)"/>
     <use xlink:href="#DejaVuSans-b1" transform="translate(326.601562 0.78125)"/>
     <use xlink:href="#DejaVuSans-34" transform="translate(410.390625 0.78125)"/>
     <use xlink:href="#DejaVuSans-2e" transform="translate(474.013672 0.78125)"/>
     <use xlink:href="#DejaVuSans-37" transform="translate(498.050781 0.78125)"/>
     <use xlink:href="#DejaVuSans-65" transform="translate(561.673828 0.78125)"/>
     <use xlink:href="#DejaVuSans-2b" transform="translate(623.197266 0.78125)"/>
     <use xlink:href="#DejaVuSans-30" transform="translate(706.986328 0.78125)"/>
     <use xlink:href="#DejaVuSans-34" transform="translate(770.609375 0.78125)"/>
     <use xlink:href="#DejaVuSans-20" transform="translate(834.232422 0.78125)"/>
    </g>
    <!-- $Q_C$: 39.$\pm$2.3e+06 k -->
    <g transform="translate(415.579125 85.059663) scale(0.1 -0.1)">
     <defs>
      <path id="DejaVuSans-Oblique-43" d="M 4447 4306 
L 4319 3641 
Q 4019 3944 3683 4091 
Q 3347 4238 2956 4238 
Q 2422 4238 2017 3981 
Q 1613 3725 1319 3200 
Q 1131 2863 1032 2486 
Q 934 2109 934 1728 
Q 934 1091 1264 756 
Q 1594 422 2222 422 
Q 2656 422 3056 561 
Q 3456 700 3834 978 
L 3688 231 
Q 3316 72 2936 -9 
Q 2556 -91 2175 -91 
Q 1278 -91 773 396 
Q 269 884 269 1753 
Q 269 2309 461 2846 
Q 653 3384 1013 3828 
Q 1394 4300 1883 4525 
Q 2372 4750 3022 4750 
Q 3422 4750 3780 4639 
Q 4138 4528 4447 4306 
z
" transform="scale(0.015625)"/>
      <path id="DejaVuSans-33" d="M 2597 2516 
Q 3050 2419 3304 2112 
Q 3559 1806 3559 1356 
Q 3559 666 3084 287 
Q 2609 -91 1734 -91 
Q 1441 -91 1130 -33 
Q 819 25 488 141 
L 488 750 
Q 750 597 1062 519 
Q 1375 441 1716 441 
Q 2309 441 2620 675 
Q 2931 909 2931 1356 
Q 2931 1769 2642 2001 
Q 2353 2234 1838 2234 
L 1294 2234 
L 1294 2753 
L 1863 2753 
Q 2328 2753 2575 2939 
Q 2822 3125 2822 3475 
Q 2822 3834 2567 4026 
Q 2313 4219 1838 4219 
Q 1578 4219 1281 4162 
Q 984 4106 628 3988 
L 628 4550 
Q 988 4650 1302 4700 
Q 1616 4750 1894 4750 
Q 2613 4750 3031 4423 
Q 3450 4097 3450 3541 
Q 3450 3153 3228 2886 
Q 3006 2619 2597 2516 
z
" transform="scale(0.015625)"/>
      <path id="DejaVuSans-39" d="M 703 97 
L 703 672 
Q 941 559 1184 500 
Q 1428 441 1663 441 
Q 2288 441 2617 861 
Q 2947 1281 2994 2138 
Q 2813 1869 2534 1725 
Q 2256 1581 1919 1581 
Q 1219 1581 811 2004 
Q 403 2428 403 3163 
Q 403 3881 828 4315 
Q 1253 4750 1959 4750 
Q 2769 4750 3195 4129 
Q 3622 3509 3622 2328 
Q 3622 1225 3098 567 
Q 2575 -91 1691 -91 
Q 1453 -91 1209 -44 
Q 966 3 703 97 
z
M 1959 2075 
Q 2384 2075 2632 2365 
Q 2881 2656 2881 3163 
Q 2881 3666 2632 3958 
Q 2384 4250 1959 4250 
Q 1534 4250 1286 3958 
Q 1038 3666 1038 3163 
Q 1038 2656 1286 2365 
Q 1534 2075 1959 2075 
z
" transform="scale(0.015625)"/>
      <path id="DejaVuSans-6b" d="M 581 4863 
L 1159 4863 
L 1159 1991 
L 2875 3500 
L 3609 3500 
L 1753 1863 
L 3688 0 
L 2938 0 
L 1159 1709 
L 1159 0 
L 581 0 
L 581 4863 
z
" transform="scale(0.015625)"/>
     </defs>
     <use xlink:href="#DejaVuSans-Oblique-51" transform="translate(0 0.015625)"/>
     <use xlink:href="#DejaVuSans-Oblique-43" transform="translate(78.710938 -16.390625) scale(0.7)"/>
     <use xlink:href="#DejaVuSans-3a" transform="translate(130.322266 0.015625)"/>
     <use xlink:href="#DejaVuSans-20" transform="translate(164.013672 0.015625)"/>
     <use xlink:href="#DejaVuSans-33" transform="translate(195.800781 0.015625)"/>
     <use xlink:href="#DejaVuSans-39" transform="translate(259.423828 0.015625)"/>
     <use xlink:href="#DejaVuSans-2e" transform="translate(323.046875 0.015625)"/>
     <use xlink:href="#DejaVuSans-b1" transform="translate(354.833984 0.015625)"/>
     <use xlink:href="#DejaVuSans-32" transform="translate(438.623047 0.015625)"/>
     <use xlink:href="#DejaVuSans-2e" transform="translate(502.246094 0.015625)"/>
     <use xlink:href="#DejaVuSans-33" transform="translate(534.033203 0.015625)"/>
     <use xlink:href="#DejaVuSans-65" transform="translate(597.65625 0.015625)"/>
     <use xlink:href="#DejaVuSans-2b" transform="translate(659.179688 0.015625)"/>
     <use xlink:href="#DejaVuSans-30" transform="translate(742.96875 0.015625)"/>
     <use xlink:href="#DejaVuSans-36" transform="translate(806.591797 0.015625)"/>
     <use xlink:href="#DejaVuSans-20" transform="translate(870.214844 0.015625)"/>
     <use xlink:href="#DejaVuSans-6b" transform="translate(902.001953 0.015625)"/>
    </g>
    <!-- $f_{res}$: 6$\pm$87 GHz -->
    <g transform="translate(415.579125 96.257475) scale(0.1 -0.1)">
     <defs>
      <path id="DejaVuSans-Oblique-66" d="M 3059 4863 
L 2969 4384 
L 2419 4384 
Q 2106 4384 1964 4261 
Q 1822 4138 1753 3809 
L 1691 3500 
L 2638 3500 
L 2553 3053 
L 1606 3053 
L 1013 0 
L 434 0 
L 1031 3053 
L 481 3053 
L 563 3500 
L 1113 3500 
L 1159 3744 
Q 1278 4363 1576 4613 
Q 1875 4863 2516 4863 
L 3059 4863 
z
" transform="scale(0.015625)"/>
      <path id="DejaVuSans-Oblique-72" d="M 2853 2969 
Q 2766 3016 2653 3041 
Q 2541 3066 2413 3066 
Q 1953 3066 1609 2717 
Q 1266 2369 1153 1784 
L 800 0 
L 225 0 
L 909 3500 
L 1484 3500 
L 1375 2956 
Q 1603 3259 1920 3421 
Q 2238 3584 2597 3584 
Q 2691 3584 2781 3573 
Q 2872 3563 2963 3538 
L 2853 2969 
z
" transform="scale(0.015625)"/>
      <path id="DejaVuSans-Oblique-65" d="M 3078 2063 
Q 3088 2113 3092 2166 
Q 3097 2219 3097 2272 
Q 3097 2653 2873 2875 
Q 2650 3097 2266 3097 
Q 1838 3097 1509 2826 
Q 1181 2556 1013 2059 
L 3078 2063 
z
M 3578 1613 
L 903 1613 
Q 884 1494 878 1425 
Q 872 1356 872 1306 
Q 872 872 1139 634 
Q 1406 397 1894 397 
Q 2269 397 2603 481 
Q 2938 566 3225 728 
L 3116 159 
Q 2806 34 2476 -28 
Q 2147 -91 1806 -91 
Q 1078 -91 686 257 
Q 294 606 294 1247 
Q 294 1794 489 2264 
Q 684 2734 1063 3103 
Q 1306 3334 1642 3459 
Q 1978 3584 2356 3584 
Q 2950 3584 3301 3228 
Q 3653 2872 3653 2272 
Q 3653 2128 3634 1964 
Q 3616 1800 3578 1613 
z
" transform="scale(0.015625)"/>
      <path id="DejaVuSans-Oblique-73" d="M 3200 3397 
L 3091 2853 
Q 2863 2978 2609 3040 
Q 2356 3103 2088 3103 
Q 1634 3103 1373 2948 
Q 1113 2794 1113 2528 
Q 1113 2219 1719 2053 
Q 1766 2041 1788 2034 
L 1972 1978 
Q 2547 1819 2739 1644 
Q 2931 1469 2931 1166 
Q 2931 609 2489 259 
Q 2047 -91 1331 -91 
Q 1053 -91 747 -37 
Q 441 16 72 128 
L 184 722 
Q 500 559 806 475 
Q 1113 391 1394 391 
Q 1816 391 2080 572 
Q 2344 753 2344 1031 
Q 2344 1331 1650 1516 
L 1591 1531 
L 1394 1581 
Q 956 1697 753 1886 
Q 550 2075 550 2369 
Q 550 2928 970 3256 
Q 1391 3584 2113 3584 
Q 2397 3584 2667 3537 
Q 2938 3491 3200 3397 
z
" transform="scale(0.015625)"/>
      <path id="DejaVuSans-47" d="M 3809 666 
L 3809 1919 
L 2778 1919 
L 2778 2438 
L 4434 2438 
L 4434 434 
Q 4069 175 3628 42 
Q 3188 -91 2688 -91 
Q 1594 -91 976 548 
Q 359 1188 359 2328 
Q 359 3472 976 4111 
Q 1594 4750 2688 4750 
Q 3144 4750 3555 4637 
Q 3966 4525 4313 4306 
L 4313 3634 
Q 3963 3931 3569 4081 
Q 3175 4231 2741 4231 
Q 1884 4231 1454 3753 
Q 1025 3275 1025 2328 
Q 1025 1384 1454 906 
Q 1884 428 2741 428 
Q 3075 428 3337 486 
Q 3600 544 3809 666 
z
" transform="scale(0.015625)"/>
      <path id="DejaVuSans-48" d="M 628 4666 
L 1259 4666 
L 1259 2753 
L 3553 2753 
L 3553 4666 
L 4184 4666 
L 4184 0 
L 3553 0 
L 3553 2222 
L 1259 2222 
L 1259 0 
L 628 0 
L 628 4666 
z
" transform="scale(0.015625)"/>
      <path id="DejaVuSans-7a" d="M 353 3500 
L 3084 3500 
L 3084 2975 
L 922 459 
L 3084 459 
L 3084 0 
L 275 0 
L 275 525 
L 2438 3041 
L 353 3041 
L 353 3500 
z
" transform="scale(0.015625)"/>
     </defs>
     <use xlink:href="#DejaVuSans-Oblique-66" transform="translate(0 0.015625)"/>
     <use xlink:href="#DejaVuSans-Oblique-72" transform="translate(35.205078 -16.390625) scale(0.7)"/>
     <use xlink:href="#DejaVuSans-Oblique-65" transform="translate(63.984375 -16.390625) scale(0.7)"/>
     <use xlink:href="#DejaVuSans-Oblique-73" transform="translate(107.050781 -16.390625) scale(0.7)"/>
     <use xlink:href="#DejaVuSans-3a" transform="translate(146.254883 0.015625)"/>
     <use xlink:href="#DejaVuSans-20" transform="translate(179.946289 0.015625)"/>
     <use xlink:href="#DejaVuSans-36" transform="translate(211.733398 0.015625)"/>
     <use xlink:href="#DejaVuSans-b1" transform="translate(275.356445 0.015625)"/>
     <use xlink:href="#DejaVuSans-38" transform="translate(359.145508 0.015625)"/>
     <use xlink:href="#DejaVuSans-37" transform="translate(422.768555 0.015625)"/>
     <use xlink:href="#DejaVuSans-20" transform="translate(486.391602 0.015625)"/>
     <use xlink:href="#DejaVuSans-47" transform="translate(518.178711 0.015625)"/>
     <use xlink:href="#DejaVuSans-48" transform="translate(595.668945 0.015625)"/>
     <use xlink:href="#DejaVuSans-7a" transform="translate(670.864258 0.015625)"/>
    </g>
   </g>
  </g>
  <g id="text_15">
   <!-- S21 resonator spectroscopy -->
   <g transform="translate(129.61875 16.318125) scale(0.12 -0.12)">
    <defs>
     <path id="DejaVuSans-73" d="M 2834 3397 
L 2834 2853 
Q 2591 2978 2328 3040 
Q 2066 3103 1784 3103 
Q 1356 3103 1142 2972 
Q 928 2841 928 2578 
Q 928 2378 1081 2264 
Q 1234 2150 1697 2047 
L 1894 2003 
Q 2506 1872 2764 1633 
Q 3022 1394 3022 966 
Q 3022 478 2636 193 
Q 2250 -91 1575 -91 
Q 1294 -91 989 -36 
Q 684 19 347 128 
L 347 722 
Q 666 556 975 473 
Q 1284 391 1588 391 
Q 1994 391 2212 530 
Q 2431 669 2431 922 
Q 2431 1156 2273 1281 
Q 2116 1406 1581 1522 
L 1381 1569 
Q 847 1681 609 1914 
Q 372 2147 372 2553 
Q 372 3047 722 3315 
Q 1072 3584 1716 3584 
Q 2034 3584 2315 3537 
Q 2597 3491 2834 3397 
z
" transform="scale(0.015625)"/>
     <path id="DejaVuSans-6f" d="M 1959 3097 
Q 1497 3097 1228 2736 
Q 959 2375 959 1747 
Q 959 1119 1226 758 
Q 1494 397 1959 397 
Q 2419 397 2687 759 
Q 2956 1122 2956 1747 
Q 2956 2369 2687 2733 
Q 2419 3097 1959 3097 
z
M 1959 3584 
Q 2709 3584 3137 3096 
Q 3566 2609 3566 1747 
Q 3566 888 3137 398 
Q 2709 -91 1959 -91 
Q 1206 -91 779 398 
Q 353 888 353 1747 
Q 353 2609 779 3096 
Q 1206 3584 1959 3584 
z
" transform="scale(0.015625)"/>
     <path id="DejaVuSans-6e" d="M 3513 2113 
L 3513 0 
L 2938 0 
L 2938 2094 
Q 2938 2591 2744 2837 
Q 2550 3084 2163 3084 
Q 1697 3084 1428 2787 
Q 1159 2491 1159 1978 
L 1159 0 
L 581 0 
L 581 3500 
L 1159 3500 
L 1159 2956 
Q 1366 3272 1645 3428 
Q 1925 3584 2291 3584 
Q 2894 3584 3203 3211 
Q 3513 2838 3513 2113 
z
" transform="scale(0.015625)"/>
     <path id="DejaVuSans-74" d="M 1172 4494 
L 1172 3500 
L 2356 3500 
L 2356 3053 
L 1172 3053 
L 1172 1153 
Q 1172 725 1289 603 
Q 1406 481 1766 481 
L 2356 481 
L 2356 0 
L 1766 0 
Q 1100 0 847 248 
Q 594 497 594 1153 
L 594 3053 
L 172 3053 
L 172 3500 
L 594 3500 
L 594 4494 
L 1172 4494 
z
" transform="scale(0.015625)"/>
     <path id="DejaVuSans-70" d="M 1159 525 
L 1159 -1331 
L 581 -1331 
L 581 3500 
L 1159 3500 
L 1159 2969 
Q 1341 3281 1617 3432 
Q 1894 3584 2278 3584 
Q 2916 3584 3314 3078 
Q 3713 2572 3713 1747 
Q 3713 922 3314 415 
Q 2916 -91 2278 -91 
Q 1894 -91 1617 61 
Q 1341 213 1159 525 
z
M 3116 1747 
Q 3116 2381 2855 2742 
Q 2594 3103 2138 3103 
Q 1681 3103 1420 2742 
Q 1159 2381 1159 1747 
Q 1159 1113 1420 752 
Q 1681 391 2138 391 
Q 2594 391 2855 752 
Q 3116 1113 3116 1747 
z
" transform="scale(0.015625)"/>
     <path id="DejaVuSans-63" d="M 3122 3366 
L 3122 2828 
Q 2878 2963 2633 3030 
Q 2388 3097 2138 3097 
Q 1578 3097 1268 2742 
Q 959 2388 959 1747 
Q 959 1106 1268 751 
Q 1578 397 2138 397 
Q 2388 397 2633 464 
Q 2878 531 3122 666 
L 3122 134 
Q 2881 22 2623 -34 
Q 2366 -91 2075 -91 
Q 1284 -91 818 406 
Q 353 903 353 1747 
Q 353 2603 823 3093 
Q 1294 3584 2113 3584 
Q 2378 3584 2631 3529 
Q 2884 3475 3122 3366 
z
" transform="scale(0.015625)"/>
    </defs>
    <use xlink:href="#DejaVuSans-53"/>
    <use xlink:href="#DejaVuSans-32" x="63.476562"/>
    <use xlink:href="#DejaVuSans-31" x="127.099609"/>
    <use xlink:href="#DejaVuSans-20" x="190.722656"/>
    <use xlink:href="#DejaVuSans-72" x="222.509766"/>
    <use xlink:href="#DejaVuSans-65" x="261.373047"/>
    <use xlink:href="#DejaVuSans-73" x="322.896484"/>
    <use xlink:href="#DejaVuSans-6f" x="374.996094"/>
    <use xlink:href="#DejaVuSans-6e" x="436.177734"/>
    <use xlink:href="#DejaVuSans-61" x="499.556641"/>
    <use xlink:href="#DejaVuSans-74" x="560.835938"/>
    <use xlink:href="#DejaVuSans-6f" x="600.044922"/>
    <use xlink:href="#DejaVuSans-72" x="661.226562"/>
    <use xlink:href="#DejaVuSans-20" x="702.339844"/>
    <use xlink:href="#DejaVuSans-73" x="734.126953"/>
    <use xlink:href="#DejaVuSans-70" x="786.226562"/>
    <use xlink:href="#DejaVuSans-65" x="849.703125"/>
    <use xlink:href="#DejaVuSans-63" x="911.226562"/>
    <use xlink:href="#DejaVuSans-74" x="966.207031"/>
    <use xlink:href="#DejaVuSans-72" x="1005.416016"/>
    <use xlink:href="#DejaVuSans-6f" x="1044.279297"/>
    <use xlink:href="#DejaVuSans-73" x="1105.460938"/>
    <use xlink:href="#DejaVuSans-63" x="1157.560547"/>
    <use xlink:href="#DejaVuSans-6f" x="1212.541016"/>
    <use xlink:href="#DejaVuSans-70" x="1273.722656"/>
    <use xlink:href="#DejaVuSans-79" x="1337.199219"/>
   </g>
   <!-- tuid: 20231227-131139-117-23efe8 -->
   <g transform="translate(105.504375 29.7555) scale(0.12 -0.12)">
    <defs>
     <path id="DejaVuSans-69" d="M 603 3500 
L 1178 3500 
L 1178 0 
L 603 0 
L 603 3500 
z
M 603 4863 
L 1178 4863 
L 1178 4134 
L 603 4134 
L 603 4863 
z
" transform="scale(0.015625)"/>
     <path id="DejaVuSans-64" d="M 2906 2969 
L 2906 4863 
L 3481 4863 
L 3481 0 
L 2906 0 
L 2906 525 
Q 2725 213 2448 61 
Q 2172 -91 1784 -91 
Q 1150 -91 751 415 
Q 353 922 353 1747 
Q 353 2572 751 3078 
Q 1150 3584 1784 3584 
Q 2172 3584 2448 3432 
Q 2725 3281 2906 2969 
z
M 947 1747 
Q 947 1113 1208 752 
Q 1469 391 1925 391 
Q 2381 391 2643 752 
Q 2906 1113 2906 1747 
Q 2906 2381 2643 2742 
Q 2381 3103 1925 3103 
Q 1469 3103 1208 2742 
Q 947 2381 947 1747 
z
" transform="scale(0.015625)"/>
     <path id="DejaVuSans-2d" d="M 313 2009 
L 1997 2009 
L 1997 1497 
L 313 1497 
L 313 2009 
z
" transform="scale(0.015625)"/>
     <path id="DejaVuSans-66" d="M 2375 4863 
L 2375 4384 
L 1825 4384 
Q 1516 4384 1395 4259 
Q 1275 4134 1275 3809 
L 1275 3500 
L 2222 3500 
L 2222 3053 
L 1275 3053 
L 1275 0 
L 697 0 
L 697 3053 
L 147 3053 
L 147 3500 
L 697 3500 
L 697 3744 
Q 697 4328 969 4595 
Q 1241 4863 1831 4863 
L 2375 4863 
z
" transform="scale(0.015625)"/>
    </defs>
    <use xlink:href="#DejaVuSans-74"/>
    <use xlink:href="#DejaVuSans-75" x="39.208984"/>
    <use xlink:href="#DejaVuSans-69" x="102.587891"/>
    <use xlink:href="#DejaVuSans-64" x="130.371094"/>
    <use xlink:href="#DejaVuSans-3a" x="193.847656"/>
    <use xlink:href="#DejaVuSans-20" x="227.539062"/>
    <use xlink:href="#DejaVuSans-32" x="259.326172"/>
    <use xlink:href="#DejaVuSans-30" x="322.949219"/>
    <use xlink:href="#DejaVuSans-32" x="386.572266"/>
    <use xlink:href="#DejaVuSans-33" x="450.195312"/>
    <use xlink:href="#DejaVuSans-31" x="513.818359"/>
    <use xlink:href="#DejaVuSans-32" x="577.441406"/>
    <use xlink:href="#DejaVuSans-32" x="641.064453"/>
    <use xlink:href="#DejaVuSans-37" x="704.6875"/>
    <use xlink:href="#DejaVuSans-2d" x="768.310547"/>
    <use xlink:href="#DejaVuSans-31" x="804.394531"/>
    <use xlink:href="#DejaVuSans-33" x="868.017578"/>
    <use xlink:href="#DejaVuSans-31" x="931.640625"/>
    <use xlink:href="#DejaVuSans-31" x="995.263672"/>
    <use xlink:href="#DejaVuSans-33" x="1058.886719"/>
    <use xlink:href="#DejaVuSans-39" x="1122.509766"/>
    <use xlink:href="#DejaVuSans-2d" x="1186.132812"/>
    <use xlink:href="#DejaVuSans-31" x="1222.216797"/>
    <use xlink:href="#DejaVuSans-31" x="1285.839844"/>
    <use xlink:href="#DejaVuSans-37" x="1349.462891"/>
    <use xlink:href="#DejaVuSans-2d" x="1413.085938"/>
    <use xlink:href="#DejaVuSans-32" x="1449.169922"/>
    <use xlink:href="#DejaVuSans-33" x="1512.792969"/>
    <use xlink:href="#DejaVuSans-65" x="1576.416016"/>
    <use xlink:href="#DejaVuSans-66" x="1637.939453"/>
    <use xlink:href="#DejaVuSans-65" x="1673.144531"/>
    <use xlink:href="#DejaVuSans-38" x="1734.667969"/>
   </g>
  </g>
 </g>
 <defs>
  <clipPath id="p32f81643a7">
   <rect x="40.603125" y="41.76" width="357.12" height="266.112"/>
  </clipPath>
 </defs>
</svg>
