<?xml version="1.0" encoding="utf-8" standalone="no"?>
<!DOCTYPE svg PUBLIC "-//W3C//DTD SVG 1.1//EN"
  "http://www.w3.org/Graphics/SVG/1.1/DTD/svg11.dtd">
<svg xmlns:xlink="http://www.w3.org/1999/xlink" width="528.741625pt" height="345.42825pt" viewBox="0 0 528.741625 345.42825" xmlns="http://www.w3.org/2000/svg" version="1.1">
 <metadata>
  <rdf:RDF xmlns:dc="http://purl.org/dc/elements/1.1/" xmlns:cc="http://creativecommons.org/ns#" xmlns:rdf="http://www.w3.org/1999/02/22-rdf-syntax-ns#">
   <cc:Work>
    <dc:type rdf:resource="http://purl.org/dc/dcmitype/StillImage"/>
    <dc:date>2023-12-27T13:11:44.818691</dc:date>
    <dc:format>image/svg+xml</dc:format>
    <dc:creator>
     <cc:Agent>
      <dc:title>Matplotlib v3.8.2, https://matplotlib.org/</dc:title>
     </cc:Agent>
    </dc:creator>
   </cc:Work>
  </rdf:RDF>
 </metadata>
 <defs>
  <style type="text/css">*{stroke-linejoin: round; stroke-linecap: butt}</style>
 </defs>
 <g id="figure_1">
  <g id="patch_1">
   <path d="M 0 345.42825 
L 528.741625 345.42825 
L 528.741625 -0 
L 0 -0 
L 0 345.42825 
z
" style="fill: none; opacity: 0"/>
  </g>
  <g id="axes_1">
   <g id="patch_2">
    <path d="M 50.565625 162.72 
L 407.685625 162.72 
L 407.685625 41.76 
L 50.565625 41.76 
z
" style="fill: #ffffff"/>
   </g>
   <g id="matplotlib.axis_1">
    <g id="xtick_1">
     <g id="line2d_1">
      <defs>
       <path id="me069b46be4" d="M 0 0 
L 0 3.5 
" style="stroke: #000000; stroke-width: 0.8"/>
      </defs>
      <g>
       <use xlink:href="#me069b46be4" x="66.798352" y="162.72" style="stroke: #000000; stroke-width: 0.8"/>
      </g>
     </g>
    </g>
    <g id="xtick_2">
     <g id="line2d_2">
      <g>
       <use xlink:href="#me069b46be4" x="110.085625" y="162.72" style="stroke: #000000; stroke-width: 0.8"/>
      </g>
     </g>
    </g>
    <g id="xtick_3">
     <g id="line2d_3">
      <g>
       <use xlink:href="#me069b46be4" x="153.372898" y="162.72" style="stroke: #000000; stroke-width: 0.8"/>
      </g>
     </g>
    </g>
    <g id="xtick_4">
     <g id="line2d_4">
      <g>
       <use xlink:href="#me069b46be4" x="196.66017" y="162.72" style="stroke: #000000; stroke-width: 0.8"/>
      </g>
     </g>
    </g>
    <g id="xtick_5">
     <g id="line2d_5">
      <g>
       <use xlink:href="#me069b46be4" x="239.947443" y="162.72" style="stroke: #000000; stroke-width: 0.8"/>
      </g>
     </g>
    </g>
    <g id="xtick_6">
     <g id="line2d_6">
      <g>
       <use xlink:href="#me069b46be4" x="283.234716" y="162.72" style="stroke: #000000; stroke-width: 0.8"/>
      </g>
     </g>
    </g>
    <g id="xtick_7">
     <g id="line2d_7">
      <g>
       <use xlink:href="#me069b46be4" x="326.521989" y="162.72" style="stroke: #000000; stroke-width: 0.8"/>
      </g>
     </g>
    </g>
    <g id="xtick_8">
     <g id="line2d_8">
      <g>
       <use xlink:href="#me069b46be4" x="369.809261" y="162.72" style="stroke: #000000; stroke-width: 0.8"/>
      </g>
     </g>
    </g>
   </g>
   <g id="matplotlib.axis_2">
    <g id="ytick_1">
     <g id="line2d_9">
      <defs>
       <path id="m6cec0f921f" d="M 0 0 
L -3.5 0 
" style="stroke: #000000; stroke-width: 0.8"/>
      </defs>
      <g>
       <use xlink:href="#m6cec0f921f" x="50.565625" y="139.774522" style="stroke: #000000; stroke-width: 0.8"/>
      </g>
     </g>
     <g id="text_1">
      <!-- 9 -->
      <g transform="translate(37.203125 143.573741) scale(0.1 -0.1)">
       <defs>
        <path id="DejaVuSans-39" d="M 703 97 
L 703 672 
Q 941 559 1184 500 
Q 1428 441 1663 441 
Q 2288 441 2617 861 
Q 2947 1281 2994 2138 
Q 2813 1869 2534 1725 
Q 2256 1581 1919 1581 
Q 1219 1581 811 2004 
Q 403 2428 403 3163 
Q 403 3881 828 4315 
Q 1253 4750 1959 4750 
Q 2769 4750 3195 4129 
Q 3622 3509 3622 2328 
Q 3622 1225 3098 567 
Q 2575 -91 1691 -91 
Q 1453 -91 1209 -44 
Q 966 3 703 97 
z
M 1959 2075 
Q 2384 2075 2632 2365 
Q 2881 2656 2881 3163 
Q 2881 3666 2632 3958 
Q 2384 4250 1959 4250 
Q 1534 4250 1286 3958 
Q 1038 3666 1038 3163 
Q 1038 2656 1286 2365 
Q 1534 2075 1959 2075 
z
" transform="scale(0.015625)"/>
       </defs>
       <use xlink:href="#DejaVuSans-39"/>
      </g>
     </g>
    </g>
    <g id="ytick_2">
     <g id="line2d_10">
      <g>
       <use xlink:href="#m6cec0f921f" x="50.565625" y="113.189207" style="stroke: #000000; stroke-width: 0.8"/>
      </g>
     </g>
     <g id="text_2">
      <!-- 9.5 -->
      <g transform="translate(27.6625 116.988426) scale(0.1 -0.1)">
       <defs>
        <path id="DejaVuSans-2e" d="M 684 794 
L 1344 794 
L 1344 0 
L 684 0 
L 684 794 
z
" transform="scale(0.015625)"/>
        <path id="DejaVuSans-35" d="M 691 4666 
L 3169 4666 
L 3169 4134 
L 1269 4134 
L 1269 2991 
Q 1406 3038 1543 3061 
Q 1681 3084 1819 3084 
Q 2600 3084 3056 2656 
Q 3513 2228 3513 1497 
Q 3513 744 3044 326 
Q 2575 -91 1722 -91 
Q 1428 -91 1123 -41 
Q 819 9 494 109 
L 494 744 
Q 775 591 1075 516 
Q 1375 441 1709 441 
Q 2250 441 2565 725 
Q 2881 1009 2881 1497 
Q 2881 1984 2565 2268 
Q 2250 2553 1709 2553 
Q 1456 2553 1204 2497 
Q 953 2441 691 2322 
L 691 4666 
z
" transform="scale(0.015625)"/>
       </defs>
       <use xlink:href="#DejaVuSans-39"/>
       <use xlink:href="#DejaVuSans-2e" x="63.623047"/>
       <use xlink:href="#DejaVuSans-35" x="95.410156"/>
      </g>
     </g>
    </g>
    <g id="ytick_3">
     <g id="line2d_11">
      <g>
       <use xlink:href="#m6cec0f921f" x="50.565625" y="86.603892" style="stroke: #000000; stroke-width: 0.8"/>
      </g>
     </g>
     <g id="text_3">
      <!-- 10 -->
      <g transform="translate(30.840625 90.403111) scale(0.1 -0.1)">
       <defs>
        <path id="DejaVuSans-31" d="M 794 531 
L 1825 531 
L 1825 4091 
L 703 3866 
L 703 4441 
L 1819 4666 
L 2450 4666 
L 2450 531 
L 3481 531 
L 3481 0 
L 794 0 
L 794 531 
z
" transform="scale(0.015625)"/>
        <path id="DejaVuSans-30" d="M 2034 4250 
Q 1547 4250 1301 3770 
Q 1056 3291 1056 2328 
Q 1056 1369 1301 889 
Q 1547 409 2034 409 
Q 2525 409 2770 889 
Q 3016 1369 3016 2328 
Q 3016 3291 2770 3770 
Q 2525 4250 2034 4250 
z
M 2034 4750 
Q 2819 4750 3233 4129 
Q 3647 3509 3647 2328 
Q 3647 1150 3233 529 
Q 2819 -91 2034 -91 
Q 1250 -91 836 529 
Q 422 1150 422 2328 
Q 422 3509 836 4129 
Q 1250 4750 2034 4750 
z
" transform="scale(0.015625)"/>
       </defs>
       <use xlink:href="#DejaVuSans-31"/>
       <use xlink:href="#DejaVuSans-30" x="63.623047"/>
      </g>
     </g>
    </g>
    <g id="ytick_4">
     <g id="line2d_12">
      <g>
       <use xlink:href="#m6cec0f921f" x="50.565625" y="60.018578" style="stroke: #000000; stroke-width: 0.8"/>
      </g>
     </g>
     <g id="text_4">
      <!-- 10.5 -->
      <g transform="translate(21.3 63.817796) scale(0.1 -0.1)">
       <use xlink:href="#DejaVuSans-31"/>
       <use xlink:href="#DejaVuSans-30" x="63.623047"/>
       <use xlink:href="#DejaVuSans-2e" x="127.246094"/>
       <use xlink:href="#DejaVuSans-35" x="159.033203"/>
      </g>
     </g>
    </g>
    <g id="text_5">
     <!-- $|S_{21}|$ [mV] -->
     <g transform="translate(14.9 127.19) rotate(-90) scale(0.1 -0.1)">
      <defs>
       <path id="DejaVuSans-7c" d="M 1344 4891 
L 1344 -1509 
L 813 -1509 
L 813 4891 
L 1344 4891 
z
" transform="scale(0.015625)"/>
       <path id="DejaVuSans-Oblique-53" d="M 3859 4513 
L 3738 3897 
Q 3422 4066 3111 4152 
Q 2800 4238 2509 4238 
Q 1944 4238 1609 3991 
Q 1275 3744 1275 3334 
Q 1275 3109 1398 2989 
Q 1522 2869 2034 2731 
L 2413 2638 
Q 3053 2472 3303 2217 
Q 3553 1963 3553 1503 
Q 3553 797 2998 353 
Q 2444 -91 1538 -91 
Q 1166 -91 791 -17 
Q 416 56 38 206 
L 166 856 
Q 513 641 861 531 
Q 1209 422 1556 422 
Q 2147 422 2503 684 
Q 2859 947 2859 1369 
Q 2859 1650 2717 1795 
Q 2575 1941 2106 2059 
L 1728 2156 
Q 1081 2325 845 2545 
Q 609 2766 609 3163 
Q 609 3859 1145 4304 
Q 1681 4750 2541 4750 
Q 2875 4750 3203 4690 
Q 3531 4631 3859 4513 
z
" transform="scale(0.015625)"/>
       <path id="DejaVuSans-32" d="M 1228 531 
L 3431 531 
L 3431 0 
L 469 0 
L 469 531 
Q 828 903 1448 1529 
Q 2069 2156 2228 2338 
Q 2531 2678 2651 2914 
Q 2772 3150 2772 3378 
Q 2772 3750 2511 3984 
Q 2250 4219 1831 4219 
Q 1534 4219 1204 4116 
Q 875 4013 500 3803 
L 500 4441 
Q 881 4594 1212 4672 
Q 1544 4750 1819 4750 
Q 2544 4750 2975 4387 
Q 3406 4025 3406 3419 
Q 3406 3131 3298 2873 
Q 3191 2616 2906 2266 
Q 2828 2175 2409 1742 
Q 1991 1309 1228 531 
z
" transform="scale(0.015625)"/>
       <path id="DejaVuSans-20" transform="scale(0.015625)"/>
       <path id="DejaVuSans-5b" d="M 550 4863 
L 1875 4863 
L 1875 4416 
L 1125 4416 
L 1125 -397 
L 1875 -397 
L 1875 -844 
L 550 -844 
L 550 4863 
z
" transform="scale(0.015625)"/>
       <path id="DejaVuSans-6d" d="M 3328 2828 
Q 3544 3216 3844 3400 
Q 4144 3584 4550 3584 
Q 5097 3584 5394 3201 
Q 5691 2819 5691 2113 
L 5691 0 
L 5113 0 
L 5113 2094 
Q 5113 2597 4934 2840 
Q 4756 3084 4391 3084 
Q 3944 3084 3684 2787 
Q 3425 2491 3425 1978 
L 3425 0 
L 2847 0 
L 2847 2094 
Q 2847 2600 2669 2842 
Q 2491 3084 2119 3084 
Q 1678 3084 1418 2786 
Q 1159 2488 1159 1978 
L 1159 0 
L 581 0 
L 581 3500 
L 1159 3500 
L 1159 2956 
Q 1356 3278 1631 3431 
Q 1906 3584 2284 3584 
Q 2666 3584 2933 3390 
Q 3200 3197 3328 2828 
z
" transform="scale(0.015625)"/>
       <path id="DejaVuSans-56" d="M 1831 0 
L 50 4666 
L 709 4666 
L 2188 738 
L 3669 4666 
L 4325 4666 
L 2547 0 
L 1831 0 
z
" transform="scale(0.015625)"/>
       <path id="DejaVuSans-5d" d="M 1947 4863 
L 1947 -844 
L 622 -844 
L 622 -397 
L 1369 -397 
L 1369 4416 
L 622 4416 
L 622 4863 
L 1947 4863 
z
" transform="scale(0.015625)"/>
      </defs>
      <use xlink:href="#DejaVuSans-7c" transform="translate(0 0.578125)"/>
      <use xlink:href="#DejaVuSans-Oblique-53" transform="translate(33.691406 0.578125)"/>
      <use xlink:href="#DejaVuSans-32" transform="translate(97.167969 -15.828125) scale(0.7)"/>
      <use xlink:href="#DejaVuSans-31" transform="translate(141.704102 -15.828125) scale(0.7)"/>
      <use xlink:href="#DejaVuSans-7c" transform="translate(188.974609 0.578125)"/>
      <use xlink:href="#DejaVuSans-20" transform="translate(222.666016 0.578125)"/>
      <use xlink:href="#DejaVuSans-5b" transform="translate(254.453125 0.578125)"/>
      <use xlink:href="#DejaVuSans-6d" transform="translate(293.466797 0.578125)"/>
      <use xlink:href="#DejaVuSans-56" transform="translate(390.878906 0.578125)"/>
      <use xlink:href="#DejaVuSans-5d" transform="translate(459.287109 0.578125)"/>
     </g>
    </g>
   </g>
   <g id="line2d_13">
    <path d="M 66.798352 157.221818 
L 68.429782 146.17499 
L 70.061212 143.033811 
L 71.692642 143.897883 
L 73.324072 136.601084 
L 74.955502 133.754433 
L 76.586932 132.287799 
L 78.218361 126.937842 
L 79.849791 119.673102 
L 81.481221 121.165691 
L 83.112651 112.960245 
L 84.744081 116.192836 
L 86.375511 109.374165 
L 88.006941 113.008753 
L 89.638371 100.537348 
L 91.2698 101.679564 
L 92.90123 100.951026 
L 94.53266 95.847133 
L 96.16409 98.302754 
L 97.79552 96.134099 
L 99.42695 101.768852 
L 101.05838 93.142326 
L 102.68981 90.54545 
L 104.321239 85.662253 
L 107.584099 86.871219 
L 109.215529 88.194195 
L 110.846959 92.803722 
L 112.478389 87.923108 
L 114.109819 81.533926 
L 115.741249 84.178587 
L 117.372678 82.336327 
L 119.004108 82.159086 
L 120.635538 81.220288 
L 122.266968 78.783322 
L 123.898398 84.130602 
L 125.529828 83.236145 
L 127.161258 76.476804 
L 128.792688 76.074406 
L 130.424117 82.643194 
L 132.055547 77.835253 
L 133.686977 70.397763 
L 135.318407 75.694622 
L 136.949837 78.700417 
L 138.581267 71.105858 
L 140.212697 71.065816 
L 143.475556 75.536098 
L 145.106986 69.159051 
L 146.738416 67.058874 
L 148.369846 75.903069 
L 150.001276 72.896029 
L 151.632706 73.869522 
L 153.264136 77.005087 
L 154.895566 73.799428 
L 156.526995 63.980231 
L 158.158425 67.65043 
L 159.789855 62.804233 
L 161.421285 74.710913 
L 163.052715 64.900697 
L 164.684145 71.575927 
L 166.315575 67.102262 
L 167.947005 61.248745 
L 169.578435 64.745661 
L 171.209864 72.604877 
L 172.841294 66.698867 
L 174.472724 63.15874 
L 176.104154 63.966483 
L 177.735584 67.483785 
L 179.367014 70.306443 
L 180.998444 65.882145 
L 182.629874 68.00308 
L 184.261303 60.615366 
L 185.892733 62.043382 
L 187.524163 57.390951 
L 189.155593 65.827087 
L 190.787023 62.084313 
L 192.418453 57.888979 
L 194.049883 65.103144 
L 195.681313 59.216748 
L 197.312742 61.141795 
L 198.944172 64.594216 
L 200.575602 55.581438 
L 202.207032 63.032303 
L 203.838462 59.718849 
L 205.469892 59.315596 
L 207.101322 64.592 
L 208.732752 59.97085 
L 210.364181 62.360286 
L 211.995611 62.240375 
L 213.627041 63.142209 
L 215.258471 56.575094 
L 216.889901 58.953529 
L 218.521331 59.426334 
L 220.152761 54.077467 
L 221.784191 58.944334 
L 223.41562 61.451179 
L 225.04705 55.028279 
L 226.67848 57.937506 
L 228.30991 59.332539 
L 229.94134 58.679912 
L 231.57277 63.279707 
L 233.2042 58.662112 
L 234.83563 56.371539 
L 236.467059 59.880627 
L 238.098489 58.304483 
L 239.729919 54.623575 
L 241.361349 60.116845 
L 242.992779 65.007467 
L 244.624209 57.388436 
L 246.255639 53.721872 
L 247.887069 50.677474 
L 249.518498 50.310143 
L 251.149928 60.311939 
L 252.781358 59.88714 
L 254.412788 55.960392 
L 256.044218 57.889682 
L 257.675648 55.064027 
L 260.938508 58.266556 
L 262.569937 61.758367 
L 264.201367 54.809307 
L 265.832797 56.793698 
L 267.464227 50.623117 
L 269.095657 58.533143 
L 270.727087 56.755531 
L 272.358517 51.852717 
L 273.989947 49.779811 
L 275.621376 53.813385 
L 277.252806 60.342248 
L 278.884236 47.258182 
L 280.515666 60.422511 
L 282.147096 56.055821 
L 283.778526 60.170439 
L 285.409956 51.505071 
L 287.041386 55.495235 
L 288.672815 61.110605 
L 290.304245 61.654535 
L 291.935675 52.303668 
L 293.567105 55.80204 
L 295.198535 63.271713 
L 296.829965 56.234393 
L 298.461395 59.546014 
L 300.092825 58.598551 
L 301.724255 55.278503 
L 303.355684 56.436878 
L 304.987114 66.483289 
L 306.618544 56.857545 
L 308.249974 56.40166 
L 309.881404 62.189929 
L 311.512834 60.529186 
L 313.144264 56.784386 
L 314.775694 55.282311 
L 316.407123 60.454084 
L 318.038553 52.927854 
L 319.669983 60.774885 
L 321.301413 55.450564 
L 322.932843 61.316425 
L 324.564273 56.062013 
L 326.195703 58.807508 
L 327.827133 62.774338 
L 329.458562 53.506244 
L 331.089992 57.868932 
L 332.721422 59.700797 
L 334.352852 56.986392 
L 335.984282 58.936915 
L 337.615712 54.506529 
L 339.247142 63.747312 
L 340.878572 57.990876 
L 342.510001 61.618406 
L 344.141431 55.11321 
L 345.772861 60.984301 
L 347.404291 60.330444 
L 349.035721 59.192423 
L 350.667151 57.180191 
L 352.298581 59.849097 
L 353.930011 64.938206 
L 355.56144 63.468262 
L 357.19287 58.287989 
L 358.8243 53.851742 
L 360.45573 60.847365 
L 362.08716 57.833843 
L 363.71859 64.938667 
L 365.35002 61.97893 
L 366.98145 62.84049 
L 368.612879 59.716005 
L 370.244309 63.614908 
L 371.875739 60.030987 
L 373.507169 62.243029 
L 375.138599 67.397877 
L 376.770029 64.999133 
L 378.401459 66.218022 
L 380.032889 61.813487 
L 381.664318 63.954881 
L 383.295748 65.602024 
L 384.927178 66.399147 
L 386.558608 65.484717 
L 388.190038 72.883599 
L 389.821468 62.463593 
L 391.452898 63.559357 
L 391.452898 63.559357 
" clip-path="url(#pf58ca824a4)" style="fill: none; stroke: #1f77b4; stroke-width: 1.5; stroke-linecap: square"/>
    <defs>
     <path id="md406ed5e9a" d="M 0 1.5 
C 0.397805 1.5 0.77937 1.341951 1.06066 1.06066 
C 1.341951 0.77937 1.5 0.397805 1.5 0 
C 1.5 -0.397805 1.341951 -0.77937 1.06066 -1.06066 
C 0.77937 -1.341951 0.397805 -1.5 0 -1.5 
C -0.397805 -1.5 -0.77937 -1.341951 -1.06066 -1.06066 
C -1.341951 -0.77937 -1.5 -0.397805 -1.5 0 
C -1.5 0.397805 -1.341951 0.77937 -1.06066 1.06066 
C -0.77937 1.341951 -0.397805 1.5 0 1.5 
z
" style="stroke: #1f77b4"/>
    </defs>
    <g clip-path="url(#pf58ca824a4)">
     <use xlink:href="#md406ed5e9a" x="66.798352" y="157.221818" style="fill: #1f77b4; stroke: #1f77b4"/>
     <use xlink:href="#md406ed5e9a" x="68.429782" y="146.17499" style="fill: #1f77b4; stroke: #1f77b4"/>
     <use xlink:href="#md406ed5e9a" x="70.061212" y="143.033811" style="fill: #1f77b4; stroke: #1f77b4"/>
     <use xlink:href="#md406ed5e9a" x="71.692642" y="143.897883" style="fill: #1f77b4; stroke: #1f77b4"/>
     <use xlink:href="#md406ed5e9a" x="73.324072" y="136.601084" style="fill: #1f77b4; stroke: #1f77b4"/>
     <use xlink:href="#md406ed5e9a" x="74.955502" y="133.754433" style="fill: #1f77b4; stroke: #1f77b4"/>
     <use xlink:href="#md406ed5e9a" x="76.586932" y="132.287799" style="fill: #1f77b4; stroke: #1f77b4"/>
     <use xlink:href="#md406ed5e9a" x="78.218361" y="126.937842" style="fill: #1f77b4; stroke: #1f77b4"/>
     <use xlink:href="#md406ed5e9a" x="79.849791" y="119.673102" style="fill: #1f77b4; stroke: #1f77b4"/>
     <use xlink:href="#md406ed5e9a" x="81.481221" y="121.165691" style="fill: #1f77b4; stroke: #1f77b4"/>
     <use xlink:href="#md406ed5e9a" x="83.112651" y="112.960245" style="fill: #1f77b4; stroke: #1f77b4"/>
     <use xlink:href="#md406ed5e9a" x="84.744081" y="116.192836" style="fill: #1f77b4; stroke: #1f77b4"/>
     <use xlink:href="#md406ed5e9a" x="86.375511" y="109.374165" style="fill: #1f77b4; stroke: #1f77b4"/>
     <use xlink:href="#md406ed5e9a" x="88.006941" y="113.008753" style="fill: #1f77b4; stroke: #1f77b4"/>
     <use xlink:href="#md406ed5e9a" x="89.638371" y="100.537348" style="fill: #1f77b4; stroke: #1f77b4"/>
     <use xlink:href="#md406ed5e9a" x="91.2698" y="101.679564" style="fill: #1f77b4; stroke: #1f77b4"/>
     <use xlink:href="#md406ed5e9a" x="92.90123" y="100.951026" style="fill: #1f77b4; stroke: #1f77b4"/>
     <use xlink:href="#md406ed5e9a" x="94.53266" y="95.847133" style="fill: #1f77b4; stroke: #1f77b4"/>
     <use xlink:href="#md406ed5e9a" x="96.16409" y="98.302754" style="fill: #1f77b4; stroke: #1f77b4"/>
     <use xlink:href="#md406ed5e9a" x="97.79552" y="96.134099" style="fill: #1f77b4; stroke: #1f77b4"/>
     <use xlink:href="#md406ed5e9a" x="99.42695" y="101.768852" style="fill: #1f77b4; stroke: #1f77b4"/>
     <use xlink:href="#md406ed5e9a" x="101.05838" y="93.142326" style="fill: #1f77b4; stroke: #1f77b4"/>
     <use xlink:href="#md406ed5e9a" x="102.68981" y="90.54545" style="fill: #1f77b4; stroke: #1f77b4"/>
     <use xlink:href="#md406ed5e9a" x="104.321239" y="85.662253" style="fill: #1f77b4; stroke: #1f77b4"/>
     <use xlink:href="#md406ed5e9a" x="105.952669" y="86.280938" style="fill: #1f77b4; stroke: #1f77b4"/>
     <use xlink:href="#md406ed5e9a" x="107.584099" y="86.871219" style="fill: #1f77b4; stroke: #1f77b4"/>
     <use xlink:href="#md406ed5e9a" x="109.215529" y="88.194195" style="fill: #1f77b4; stroke: #1f77b4"/>
     <use xlink:href="#md406ed5e9a" x="110.846959" y="92.803722" style="fill: #1f77b4; stroke: #1f77b4"/>
     <use xlink:href="#md406ed5e9a" x="112.478389" y="87.923108" style="fill: #1f77b4; stroke: #1f77b4"/>
     <use xlink:href="#md406ed5e9a" x="114.109819" y="81.533926" style="fill: #1f77b4; stroke: #1f77b4"/>
     <use xlink:href="#md406ed5e9a" x="115.741249" y="84.178587" style="fill: #1f77b4; stroke: #1f77b4"/>
     <use xlink:href="#md406ed5e9a" x="117.372678" y="82.336327" style="fill: #1f77b4; stroke: #1f77b4"/>
     <use xlink:href="#md406ed5e9a" x="119.004108" y="82.159086" style="fill: #1f77b4; stroke: #1f77b4"/>
     <use xlink:href="#md406ed5e9a" x="120.635538" y="81.220288" style="fill: #1f77b4; stroke: #1f77b4"/>
     <use xlink:href="#md406ed5e9a" x="122.266968" y="78.783322" style="fill: #1f77b4; stroke: #1f77b4"/>
     <use xlink:href="#md406ed5e9a" x="123.898398" y="84.130602" style="fill: #1f77b4; stroke: #1f77b4"/>
     <use xlink:href="#md406ed5e9a" x="125.529828" y="83.236145" style="fill: #1f77b4; stroke: #1f77b4"/>
     <use xlink:href="#md406ed5e9a" x="127.161258" y="76.476804" style="fill: #1f77b4; stroke: #1f77b4"/>
     <use xlink:href="#md406ed5e9a" x="128.792688" y="76.074406" style="fill: #1f77b4; stroke: #1f77b4"/>
     <use xlink:href="#md406ed5e9a" x="130.424117" y="82.643194" style="fill: #1f77b4; stroke: #1f77b4"/>
     <use xlink:href="#md406ed5e9a" x="132.055547" y="77.835253" style="fill: #1f77b4; stroke: #1f77b4"/>
     <use xlink:href="#md406ed5e9a" x="133.686977" y="70.397763" style="fill: #1f77b4; stroke: #1f77b4"/>
     <use xlink:href="#md406ed5e9a" x="135.318407" y="75.694622" style="fill: #1f77b4; stroke: #1f77b4"/>
     <use xlink:href="#md406ed5e9a" x="136.949837" y="78.700417" style="fill: #1f77b4; stroke: #1f77b4"/>
     <use xlink:href="#md406ed5e9a" x="138.581267" y="71.105858" style="fill: #1f77b4; stroke: #1f77b4"/>
     <use xlink:href="#md406ed5e9a" x="140.212697" y="71.065816" style="fill: #1f77b4; stroke: #1f77b4"/>
     <use xlink:href="#md406ed5e9a" x="141.844127" y="73.379626" style="fill: #1f77b4; stroke: #1f77b4"/>
     <use xlink:href="#md406ed5e9a" x="143.475556" y="75.536098" style="fill: #1f77b4; stroke: #1f77b4"/>
     <use xlink:href="#md406ed5e9a" x="145.106986" y="69.159051" style="fill: #1f77b4; stroke: #1f77b4"/>
     <use xlink:href="#md406ed5e9a" x="146.738416" y="67.058874" style="fill: #1f77b4; stroke: #1f77b4"/>
     <use xlink:href="#md406ed5e9a" x="148.369846" y="75.903069" style="fill: #1f77b4; stroke: #1f77b4"/>
     <use xlink:href="#md406ed5e9a" x="150.001276" y="72.896029" style="fill: #1f77b4; stroke: #1f77b4"/>
     <use xlink:href="#md406ed5e9a" x="151.632706" y="73.869522" style="fill: #1f77b4; stroke: #1f77b4"/>
     <use xlink:href="#md406ed5e9a" x="153.264136" y="77.005087" style="fill: #1f77b4; stroke: #1f77b4"/>
     <use xlink:href="#md406ed5e9a" x="154.895566" y="73.799428" style="fill: #1f77b4; stroke: #1f77b4"/>
     <use xlink:href="#md406ed5e9a" x="156.526995" y="63.980231" style="fill: #1f77b4; stroke: #1f77b4"/>
     <use xlink:href="#md406ed5e9a" x="158.158425" y="67.65043" style="fill: #1f77b4; stroke: #1f77b4"/>
     <use xlink:href="#md406ed5e9a" x="159.789855" y="62.804233" style="fill: #1f77b4; stroke: #1f77b4"/>
     <use xlink:href="#md406ed5e9a" x="161.421285" y="74.710913" style="fill: #1f77b4; stroke: #1f77b4"/>
     <use xlink:href="#md406ed5e9a" x="163.052715" y="64.900697" style="fill: #1f77b4; stroke: #1f77b4"/>
     <use xlink:href="#md406ed5e9a" x="164.684145" y="71.575927" style="fill: #1f77b4; stroke: #1f77b4"/>
     <use xlink:href="#md406ed5e9a" x="166.315575" y="67.102262" style="fill: #1f77b4; stroke: #1f77b4"/>
     <use xlink:href="#md406ed5e9a" x="167.947005" y="61.248745" style="fill: #1f77b4; stroke: #1f77b4"/>
     <use xlink:href="#md406ed5e9a" x="169.578435" y="64.745661" style="fill: #1f77b4; stroke: #1f77b4"/>
     <use xlink:href="#md406ed5e9a" x="171.209864" y="72.604877" style="fill: #1f77b4; stroke: #1f77b4"/>
     <use xlink:href="#md406ed5e9a" x="172.841294" y="66.698867" style="fill: #1f77b4; stroke: #1f77b4"/>
     <use xlink:href="#md406ed5e9a" x="174.472724" y="63.15874" style="fill: #1f77b4; stroke: #1f77b4"/>
     <use xlink:href="#md406ed5e9a" x="176.104154" y="63.966483" style="fill: #1f77b4; stroke: #1f77b4"/>
     <use xlink:href="#md406ed5e9a" x="177.735584" y="67.483785" style="fill: #1f77b4; stroke: #1f77b4"/>
     <use xlink:href="#md406ed5e9a" x="179.367014" y="70.306443" style="fill: #1f77b4; stroke: #1f77b4"/>
     <use xlink:href="#md406ed5e9a" x="180.998444" y="65.882145" style="fill: #1f77b4; stroke: #1f77b4"/>
     <use xlink:href="#md406ed5e9a" x="182.629874" y="68.00308" style="fill: #1f77b4; stroke: #1f77b4"/>
     <use xlink:href="#md406ed5e9a" x="184.261303" y="60.615366" style="fill: #1f77b4; stroke: #1f77b4"/>
     <use xlink:href="#md406ed5e9a" x="185.892733" y="62.043382" style="fill: #1f77b4; stroke: #1f77b4"/>
     <use xlink:href="#md406ed5e9a" x="187.524163" y="57.390951" style="fill: #1f77b4; stroke: #1f77b4"/>
     <use xlink:href="#md406ed5e9a" x="189.155593" y="65.827087" style="fill: #1f77b4; stroke: #1f77b4"/>
     <use xlink:href="#md406ed5e9a" x="190.787023" y="62.084313" style="fill: #1f77b4; stroke: #1f77b4"/>
     <use xlink:href="#md406ed5e9a" x="192.418453" y="57.888979" style="fill: #1f77b4; stroke: #1f77b4"/>
     <use xlink:href="#md406ed5e9a" x="194.049883" y="65.103144" style="fill: #1f77b4; stroke: #1f77b4"/>
     <use xlink:href="#md406ed5e9a" x="195.681313" y="59.216748" style="fill: #1f77b4; stroke: #1f77b4"/>
     <use xlink:href="#md406ed5e9a" x="197.312742" y="61.141795" style="fill: #1f77b4; stroke: #1f77b4"/>
     <use xlink:href="#md406ed5e9a" x="198.944172" y="64.594216" style="fill: #1f77b4; stroke: #1f77b4"/>
     <use xlink:href="#md406ed5e9a" x="200.575602" y="55.581438" style="fill: #1f77b4; stroke: #1f77b4"/>
     <use xlink:href="#md406ed5e9a" x="202.207032" y="63.032303" style="fill: #1f77b4; stroke: #1f77b4"/>
     <use xlink:href="#md406ed5e9a" x="203.838462" y="59.718849" style="fill: #1f77b4; stroke: #1f77b4"/>
     <use xlink:href="#md406ed5e9a" x="205.469892" y="59.315596" style="fill: #1f77b4; stroke: #1f77b4"/>
     <use xlink:href="#md406ed5e9a" x="207.101322" y="64.592" style="fill: #1f77b4; stroke: #1f77b4"/>
     <use xlink:href="#md406ed5e9a" x="208.732752" y="59.97085" style="fill: #1f77b4; stroke: #1f77b4"/>
     <use xlink:href="#md406ed5e9a" x="210.364181" y="62.360286" style="fill: #1f77b4; stroke: #1f77b4"/>
     <use xlink:href="#md406ed5e9a" x="211.995611" y="62.240375" style="fill: #1f77b4; stroke: #1f77b4"/>
     <use xlink:href="#md406ed5e9a" x="213.627041" y="63.142209" style="fill: #1f77b4; stroke: #1f77b4"/>
     <use xlink:href="#md406ed5e9a" x="215.258471" y="56.575094" style="fill: #1f77b4; stroke: #1f77b4"/>
     <use xlink:href="#md406ed5e9a" x="216.889901" y="58.953529" style="fill: #1f77b4; stroke: #1f77b4"/>
     <use xlink:href="#md406ed5e9a" x="218.521331" y="59.426334" style="fill: #1f77b4; stroke: #1f77b4"/>
     <use xlink:href="#md406ed5e9a" x="220.152761" y="54.077467" style="fill: #1f77b4; stroke: #1f77b4"/>
     <use xlink:href="#md406ed5e9a" x="221.784191" y="58.944334" style="fill: #1f77b4; stroke: #1f77b4"/>
     <use xlink:href="#md406ed5e9a" x="223.41562" y="61.451179" style="fill: #1f77b4; stroke: #1f77b4"/>
     <use xlink:href="#md406ed5e9a" x="225.04705" y="55.028279" style="fill: #1f77b4; stroke: #1f77b4"/>
     <use xlink:href="#md406ed5e9a" x="226.67848" y="57.937506" style="fill: #1f77b4; stroke: #1f77b4"/>
     <use xlink:href="#md406ed5e9a" x="228.30991" y="59.332539" style="fill: #1f77b4; stroke: #1f77b4"/>
     <use xlink:href="#md406ed5e9a" x="229.94134" y="58.679912" style="fill: #1f77b4; stroke: #1f77b4"/>
     <use xlink:href="#md406ed5e9a" x="231.57277" y="63.279707" style="fill: #1f77b4; stroke: #1f77b4"/>
     <use xlink:href="#md406ed5e9a" x="233.2042" y="58.662112" style="fill: #1f77b4; stroke: #1f77b4"/>
     <use xlink:href="#md406ed5e9a" x="234.83563" y="56.371539" style="fill: #1f77b4; stroke: #1f77b4"/>
     <use xlink:href="#md406ed5e9a" x="236.467059" y="59.880627" style="fill: #1f77b4; stroke: #1f77b4"/>
     <use xlink:href="#md406ed5e9a" x="238.098489" y="58.304483" style="fill: #1f77b4; stroke: #1f77b4"/>
     <use xlink:href="#md406ed5e9a" x="239.729919" y="54.623575" style="fill: #1f77b4; stroke: #1f77b4"/>
     <use xlink:href="#md406ed5e9a" x="241.361349" y="60.116845" style="fill: #1f77b4; stroke: #1f77b4"/>
     <use xlink:href="#md406ed5e9a" x="242.992779" y="65.007467" style="fill: #1f77b4; stroke: #1f77b4"/>
     <use xlink:href="#md406ed5e9a" x="244.624209" y="57.388436" style="fill: #1f77b4; stroke: #1f77b4"/>
     <use xlink:href="#md406ed5e9a" x="246.255639" y="53.721872" style="fill: #1f77b4; stroke: #1f77b4"/>
     <use xlink:href="#md406ed5e9a" x="247.887069" y="50.677474" style="fill: #1f77b4; stroke: #1f77b4"/>
     <use xlink:href="#md406ed5e9a" x="249.518498" y="50.310143" style="fill: #1f77b4; stroke: #1f77b4"/>
     <use xlink:href="#md406ed5e9a" x="251.149928" y="60.311939" style="fill: #1f77b4; stroke: #1f77b4"/>
     <use xlink:href="#md406ed5e9a" x="252.781358" y="59.88714" style="fill: #1f77b4; stroke: #1f77b4"/>
     <use xlink:href="#md406ed5e9a" x="254.412788" y="55.960392" style="fill: #1f77b4; stroke: #1f77b4"/>
     <use xlink:href="#md406ed5e9a" x="256.044218" y="57.889682" style="fill: #1f77b4; stroke: #1f77b4"/>
     <use xlink:href="#md406ed5e9a" x="257.675648" y="55.064027" style="fill: #1f77b4; stroke: #1f77b4"/>
     <use xlink:href="#md406ed5e9a" x="259.307078" y="56.690295" style="fill: #1f77b4; stroke: #1f77b4"/>
     <use xlink:href="#md406ed5e9a" x="260.938508" y="58.266556" style="fill: #1f77b4; stroke: #1f77b4"/>
     <use xlink:href="#md406ed5e9a" x="262.569937" y="61.758367" style="fill: #1f77b4; stroke: #1f77b4"/>
     <use xlink:href="#md406ed5e9a" x="264.201367" y="54.809307" style="fill: #1f77b4; stroke: #1f77b4"/>
     <use xlink:href="#md406ed5e9a" x="265.832797" y="56.793698" style="fill: #1f77b4; stroke: #1f77b4"/>
     <use xlink:href="#md406ed5e9a" x="267.464227" y="50.623117" style="fill: #1f77b4; stroke: #1f77b4"/>
     <use xlink:href="#md406ed5e9a" x="269.095657" y="58.533143" style="fill: #1f77b4; stroke: #1f77b4"/>
     <use xlink:href="#md406ed5e9a" x="270.727087" y="56.755531" style="fill: #1f77b4; stroke: #1f77b4"/>
     <use xlink:href="#md406ed5e9a" x="272.358517" y="51.852717" style="fill: #1f77b4; stroke: #1f77b4"/>
     <use xlink:href="#md406ed5e9a" x="273.989947" y="49.779811" style="fill: #1f77b4; stroke: #1f77b4"/>
     <use xlink:href="#md406ed5e9a" x="275.621376" y="53.813385" style="fill: #1f77b4; stroke: #1f77b4"/>
     <use xlink:href="#md406ed5e9a" x="277.252806" y="60.342248" style="fill: #1f77b4; stroke: #1f77b4"/>
     <use xlink:href="#md406ed5e9a" x="278.884236" y="47.258182" style="fill: #1f77b4; stroke: #1f77b4"/>
     <use xlink:href="#md406ed5e9a" x="280.515666" y="60.422511" style="fill: #1f77b4; stroke: #1f77b4"/>
     <use xlink:href="#md406ed5e9a" x="282.147096" y="56.055821" style="fill: #1f77b4; stroke: #1f77b4"/>
     <use xlink:href="#md406ed5e9a" x="283.778526" y="60.170439" style="fill: #1f77b4; stroke: #1f77b4"/>
     <use xlink:href="#md406ed5e9a" x="285.409956" y="51.505071" style="fill: #1f77b4; stroke: #1f77b4"/>
     <use xlink:href="#md406ed5e9a" x="287.041386" y="55.495235" style="fill: #1f77b4; stroke: #1f77b4"/>
     <use xlink:href="#md406ed5e9a" x="288.672815" y="61.110605" style="fill: #1f77b4; stroke: #1f77b4"/>
     <use xlink:href="#md406ed5e9a" x="290.304245" y="61.654535" style="fill: #1f77b4; stroke: #1f77b4"/>
     <use xlink:href="#md406ed5e9a" x="291.935675" y="52.303668" style="fill: #1f77b4; stroke: #1f77b4"/>
     <use xlink:href="#md406ed5e9a" x="293.567105" y="55.80204" style="fill: #1f77b4; stroke: #1f77b4"/>
     <use xlink:href="#md406ed5e9a" x="295.198535" y="63.271713" style="fill: #1f77b4; stroke: #1f77b4"/>
     <use xlink:href="#md406ed5e9a" x="296.829965" y="56.234393" style="fill: #1f77b4; stroke: #1f77b4"/>
     <use xlink:href="#md406ed5e9a" x="298.461395" y="59.546014" style="fill: #1f77b4; stroke: #1f77b4"/>
     <use xlink:href="#md406ed5e9a" x="300.092825" y="58.598551" style="fill: #1f77b4; stroke: #1f77b4"/>
     <use xlink:href="#md406ed5e9a" x="301.724255" y="55.278503" style="fill: #1f77b4; stroke: #1f77b4"/>
     <use xlink:href="#md406ed5e9a" x="303.355684" y="56.436878" style="fill: #1f77b4; stroke: #1f77b4"/>
     <use xlink:href="#md406ed5e9a" x="304.987114" y="66.483289" style="fill: #1f77b4; stroke: #1f77b4"/>
     <use xlink:href="#md406ed5e9a" x="306.618544" y="56.857545" style="fill: #1f77b4; stroke: #1f77b4"/>
     <use xlink:href="#md406ed5e9a" x="308.249974" y="56.40166" style="fill: #1f77b4; stroke: #1f77b4"/>
     <use xlink:href="#md406ed5e9a" x="309.881404" y="62.189929" style="fill: #1f77b4; stroke: #1f77b4"/>
     <use xlink:href="#md406ed5e9a" x="311.512834" y="60.529186" style="fill: #1f77b4; stroke: #1f77b4"/>
     <use xlink:href="#md406ed5e9a" x="313.144264" y="56.784386" style="fill: #1f77b4; stroke: #1f77b4"/>
     <use xlink:href="#md406ed5e9a" x="314.775694" y="55.282311" style="fill: #1f77b4; stroke: #1f77b4"/>
     <use xlink:href="#md406ed5e9a" x="316.407123" y="60.454084" style="fill: #1f77b4; stroke: #1f77b4"/>
     <use xlink:href="#md406ed5e9a" x="318.038553" y="52.927854" style="fill: #1f77b4; stroke: #1f77b4"/>
     <use xlink:href="#md406ed5e9a" x="319.669983" y="60.774885" style="fill: #1f77b4; stroke: #1f77b4"/>
     <use xlink:href="#md406ed5e9a" x="321.301413" y="55.450564" style="fill: #1f77b4; stroke: #1f77b4"/>
     <use xlink:href="#md406ed5e9a" x="322.932843" y="61.316425" style="fill: #1f77b4; stroke: #1f77b4"/>
     <use xlink:href="#md406ed5e9a" x="324.564273" y="56.062013" style="fill: #1f77b4; stroke: #1f77b4"/>
     <use xlink:href="#md406ed5e9a" x="326.195703" y="58.807508" style="fill: #1f77b4; stroke: #1f77b4"/>
     <use xlink:href="#md406ed5e9a" x="327.827133" y="62.774338" style="fill: #1f77b4; stroke: #1f77b4"/>
     <use xlink:href="#md406ed5e9a" x="329.458562" y="53.506244" style="fill: #1f77b4; stroke: #1f77b4"/>
     <use xlink:href="#md406ed5e9a" x="331.089992" y="57.868932" style="fill: #1f77b4; stroke: #1f77b4"/>
     <use xlink:href="#md406ed5e9a" x="332.721422" y="59.700797" style="fill: #1f77b4; stroke: #1f77b4"/>
     <use xlink:href="#md406ed5e9a" x="334.352852" y="56.986392" style="fill: #1f77b4; stroke: #1f77b4"/>
     <use xlink:href="#md406ed5e9a" x="335.984282" y="58.936915" style="fill: #1f77b4; stroke: #1f77b4"/>
     <use xlink:href="#md406ed5e9a" x="337.615712" y="54.506529" style="fill: #1f77b4; stroke: #1f77b4"/>
     <use xlink:href="#md406ed5e9a" x="339.247142" y="63.747312" style="fill: #1f77b4; stroke: #1f77b4"/>
     <use xlink:href="#md406ed5e9a" x="340.878572" y="57.990876" style="fill: #1f77b4; stroke: #1f77b4"/>
     <use xlink:href="#md406ed5e9a" x="342.510001" y="61.618406" style="fill: #1f77b4; stroke: #1f77b4"/>
     <use xlink:href="#md406ed5e9a" x="344.141431" y="55.11321" style="fill: #1f77b4; stroke: #1f77b4"/>
     <use xlink:href="#md406ed5e9a" x="345.772861" y="60.984301" style="fill: #1f77b4; stroke: #1f77b4"/>
     <use xlink:href="#md406ed5e9a" x="347.404291" y="60.330444" style="fill: #1f77b4; stroke: #1f77b4"/>
     <use xlink:href="#md406ed5e9a" x="349.035721" y="59.192423" style="fill: #1f77b4; stroke: #1f77b4"/>
     <use xlink:href="#md406ed5e9a" x="350.667151" y="57.180191" style="fill: #1f77b4; stroke: #1f77b4"/>
     <use xlink:href="#md406ed5e9a" x="352.298581" y="59.849097" style="fill: #1f77b4; stroke: #1f77b4"/>
     <use xlink:href="#md406ed5e9a" x="353.930011" y="64.938206" style="fill: #1f77b4; stroke: #1f77b4"/>
     <use xlink:href="#md406ed5e9a" x="355.56144" y="63.468262" style="fill: #1f77b4; stroke: #1f77b4"/>
     <use xlink:href="#md406ed5e9a" x="357.19287" y="58.287989" style="fill: #1f77b4; stroke: #1f77b4"/>
     <use xlink:href="#md406ed5e9a" x="358.8243" y="53.851742" style="fill: #1f77b4; stroke: #1f77b4"/>
     <use xlink:href="#md406ed5e9a" x="360.45573" y="60.847365" style="fill: #1f77b4; stroke: #1f77b4"/>
     <use xlink:href="#md406ed5e9a" x="362.08716" y="57.833843" style="fill: #1f77b4; stroke: #1f77b4"/>
     <use xlink:href="#md406ed5e9a" x="363.71859" y="64.938667" style="fill: #1f77b4; stroke: #1f77b4"/>
     <use xlink:href="#md406ed5e9a" x="365.35002" y="61.97893" style="fill: #1f77b4; stroke: #1f77b4"/>
     <use xlink:href="#md406ed5e9a" x="366.98145" y="62.84049" style="fill: #1f77b4; stroke: #1f77b4"/>
     <use xlink:href="#md406ed5e9a" x="368.612879" y="59.716005" style="fill: #1f77b4; stroke: #1f77b4"/>
     <use xlink:href="#md406ed5e9a" x="370.244309" y="63.614908" style="fill: #1f77b4; stroke: #1f77b4"/>
     <use xlink:href="#md406ed5e9a" x="371.875739" y="60.030987" style="fill: #1f77b4; stroke: #1f77b4"/>
     <use xlink:href="#md406ed5e9a" x="373.507169" y="62.243029" style="fill: #1f77b4; stroke: #1f77b4"/>
     <use xlink:href="#md406ed5e9a" x="375.138599" y="67.397877" style="fill: #1f77b4; stroke: #1f77b4"/>
     <use xlink:href="#md406ed5e9a" x="376.770029" y="64.999133" style="fill: #1f77b4; stroke: #1f77b4"/>
     <use xlink:href="#md406ed5e9a" x="378.401459" y="66.218022" style="fill: #1f77b4; stroke: #1f77b4"/>
     <use xlink:href="#md406ed5e9a" x="380.032889" y="61.813487" style="fill: #1f77b4; stroke: #1f77b4"/>
     <use xlink:href="#md406ed5e9a" x="381.664318" y="63.954881" style="fill: #1f77b4; stroke: #1f77b4"/>
     <use xlink:href="#md406ed5e9a" x="383.295748" y="65.602024" style="fill: #1f77b4; stroke: #1f77b4"/>
     <use xlink:href="#md406ed5e9a" x="384.927178" y="66.399147" style="fill: #1f77b4; stroke: #1f77b4"/>
     <use xlink:href="#md406ed5e9a" x="386.558608" y="65.484717" style="fill: #1f77b4; stroke: #1f77b4"/>
     <use xlink:href="#md406ed5e9a" x="388.190038" y="72.883599" style="fill: #1f77b4; stroke: #1f77b4"/>
     <use xlink:href="#md406ed5e9a" x="389.821468" y="62.463593" style="fill: #1f77b4; stroke: #1f77b4"/>
     <use xlink:href="#md406ed5e9a" x="391.452898" y="63.559357" style="fill: #1f77b4; stroke: #1f77b4"/>
    </g>
   </g>
   <g id="line2d_14">
    <path d="M 66.798352 70.119333 
L 391.452898 70.67085 
L 391.452898 70.67085 
" clip-path="url(#pf58ca824a4)" style="fill: none; stroke: #d62728; stroke-width: 1.5; stroke-linecap: square"/>
   </g>
   <g id="patch_3">
    <path d="M 50.565625 162.72 
L 50.565625 41.76 
" style="fill: none; stroke: #000000; stroke-width: 0.8; stroke-linejoin: miter; stroke-linecap: square"/>
   </g>
   <g id="patch_4">
    <path d="M 407.685625 162.72 
L 407.685625 41.76 
" style="fill: none; stroke: #000000; stroke-width: 0.8; stroke-linejoin: miter; stroke-linecap: square"/>
   </g>
   <g id="patch_5">
    <path d="M 50.565625 162.72 
L 407.685625 162.72 
" style="fill: none; stroke: #000000; stroke-width: 0.8; stroke-linejoin: miter; stroke-linecap: square"/>
   </g>
   <g id="patch_6">
    <path d="M 50.565625 41.76 
L 407.685625 41.76 
" style="fill: none; stroke: #000000; stroke-width: 0.8; stroke-linejoin: miter; stroke-linecap: square"/>
   </g>
   <g id="text_6">
    <g id="patch_7">
     <path d="M 425.541625 95.079562 
L 521.541625 95.079562 
Q 525.541625 95.079562 525.541625 91.079562 
L 525.541625 47.808 
Q 525.541625 43.808 521.541625 43.808 
L 425.541625 43.808 
Q 421.541625 43.808 421.541625 47.808 
L 421.541625 91.079562 
Q 421.541625 95.079562 425.541625 95.079562 
z
" style="fill: #ffffff; opacity: 0.5; stroke: #000000; stroke-linejoin: miter"/>
    </g>
    <!-- Summary -->
    <g transform="translate(425.541625 55.406437) scale(0.1 -0.1)">
     <defs>
      <path id="DejaVuSans-53" d="M 3425 4513 
L 3425 3897 
Q 3066 4069 2747 4153 
Q 2428 4238 2131 4238 
Q 1616 4238 1336 4038 
Q 1056 3838 1056 3469 
Q 1056 3159 1242 3001 
Q 1428 2844 1947 2747 
L 2328 2669 
Q 3034 2534 3370 2195 
Q 3706 1856 3706 1288 
Q 3706 609 3251 259 
Q 2797 -91 1919 -91 
Q 1588 -91 1214 -16 
Q 841 59 441 206 
L 441 856 
Q 825 641 1194 531 
Q 1563 422 1919 422 
Q 2459 422 2753 634 
Q 3047 847 3047 1241 
Q 3047 1584 2836 1778 
Q 2625 1972 2144 2069 
L 1759 2144 
Q 1053 2284 737 2584 
Q 422 2884 422 3419 
Q 422 4038 858 4394 
Q 1294 4750 2059 4750 
Q 2388 4750 2728 4690 
Q 3069 4631 3425 4513 
z
" transform="scale(0.015625)"/>
      <path id="DejaVuSans-75" d="M 544 1381 
L 544 3500 
L 1119 3500 
L 1119 1403 
Q 1119 906 1312 657 
Q 1506 409 1894 409 
Q 2359 409 2629 706 
Q 2900 1003 2900 1516 
L 2900 3500 
L 3475 3500 
L 3475 0 
L 2900 0 
L 2900 538 
Q 2691 219 2414 64 
Q 2138 -91 1772 -91 
Q 1169 -91 856 284 
Q 544 659 544 1381 
z
M 1991 3584 
L 1991 3584 
z
" transform="scale(0.015625)"/>
      <path id="DejaVuSans-61" d="M 2194 1759 
Q 1497 1759 1228 1600 
Q 959 1441 959 1056 
Q 959 750 1161 570 
Q 1363 391 1709 391 
Q 2188 391 2477 730 
Q 2766 1069 2766 1631 
L 2766 1759 
L 2194 1759 
z
M 3341 1997 
L 3341 0 
L 2766 0 
L 2766 531 
Q 2569 213 2275 61 
Q 1981 -91 1556 -91 
Q 1019 -91 701 211 
Q 384 513 384 1019 
Q 384 1609 779 1909 
Q 1175 2209 1959 2209 
L 2766 2209 
L 2766 2266 
Q 2766 2663 2505 2880 
Q 2244 3097 1772 3097 
Q 1472 3097 1187 3025 
Q 903 2953 641 2809 
L 641 3341 
Q 956 3463 1253 3523 
Q 1550 3584 1831 3584 
Q 2591 3584 2966 3190 
Q 3341 2797 3341 1997 
z
" transform="scale(0.015625)"/>
      <path id="DejaVuSans-72" d="M 2631 2963 
Q 2534 3019 2420 3045 
Q 2306 3072 2169 3072 
Q 1681 3072 1420 2755 
Q 1159 2438 1159 1844 
L 1159 0 
L 581 0 
L 581 3500 
L 1159 3500 
L 1159 2956 
Q 1341 3275 1631 3429 
Q 1922 3584 2338 3584 
Q 2397 3584 2469 3576 
Q 2541 3569 2628 3553 
L 2631 2963 
z
" transform="scale(0.015625)"/>
      <path id="DejaVuSans-79" d="M 2059 -325 
Q 1816 -950 1584 -1140 
Q 1353 -1331 966 -1331 
L 506 -1331 
L 506 -850 
L 844 -850 
Q 1081 -850 1212 -737 
Q 1344 -625 1503 -206 
L 1606 56 
L 191 3500 
L 800 3500 
L 1894 763 
L 2988 3500 
L 3597 3500 
L 2059 -325 
z
" transform="scale(0.015625)"/>
     </defs>
     <use xlink:href="#DejaVuSans-53"/>
     <use xlink:href="#DejaVuSans-75" x="63.476562"/>
     <use xlink:href="#DejaVuSans-6d" x="126.855469"/>
     <use xlink:href="#DejaVuSans-6d" x="224.267578"/>
     <use xlink:href="#DejaVuSans-61" x="321.679688"/>
     <use xlink:href="#DejaVuSans-72" x="382.958984"/>
     <use xlink:href="#DejaVuSans-79" x="424.072266"/>
    </g>
    <!-- $Q_I$: 41.$\pm$4.7e+04  -->
    <g transform="translate(425.541625 66.60425) scale(0.1 -0.1)">
     <defs>
      <path id="DejaVuSans-Oblique-51" d="M 2309 -84 
Q 2275 -88 2237 -89 
Q 2200 -91 2125 -91 
Q 1250 -91 756 411 
Q 263 913 263 1797 
Q 263 2319 452 2844 
Q 641 3369 978 3788 
Q 1369 4269 1858 4509 
Q 2347 4750 2938 4750 
Q 3794 4750 4287 4245 
Q 4781 3741 4781 2869 
Q 4781 1928 4265 1147 
Q 3750 366 2919 44 
L 3553 -825 
L 2847 -825 
L 2309 -84 
z
M 2919 4238 
Q 2400 4238 2003 3986 
Q 1606 3734 1313 3219 
Q 1125 2891 1026 2522 
Q 928 2153 928 1778 
Q 928 1128 1239 775 
Q 1550 422 2119 422 
Q 2631 422 3032 676 
Q 3434 931 3719 1434 
Q 3909 1772 4009 2142 
Q 4109 2513 4109 2881 
Q 4109 3528 3796 3883 
Q 3484 4238 2919 4238 
z
" transform="scale(0.015625)"/>
      <path id="DejaVuSans-Oblique-49" d="M 1081 4666 
L 1716 4666 
L 806 0 
L 172 0 
L 1081 4666 
z
" transform="scale(0.015625)"/>
      <path id="DejaVuSans-3a" d="M 750 794 
L 1409 794 
L 1409 0 
L 750 0 
L 750 794 
z
M 750 3309 
L 1409 3309 
L 1409 2516 
L 750 2516 
L 750 3309 
z
" transform="scale(0.015625)"/>
      <path id="DejaVuSans-34" d="M 2419 4116 
L 825 1625 
L 2419 1625 
L 2419 4116 
z
M 2253 4666 
L 3047 4666 
L 3047 1625 
L 3713 1625 
L 3713 1100 
L 3047 1100 
L 3047 0 
L 2419 0 
L 2419 1100 
L 313 1100 
L 313 1709 
L 2253 4666 
z
" transform="scale(0.015625)"/>
      <path id="DejaVuSans-b1" d="M 2944 4013 
L 2944 2803 
L 4684 2803 
L 4684 2272 
L 2944 2272 
L 2944 1063 
L 2419 1063 
L 2419 2272 
L 678 2272 
L 678 2803 
L 2419 2803 
L 2419 4013 
L 2944 4013 
z
M 678 531 
L 4684 531 
L 4684 0 
L 678 0 
L 678 531 
z
" transform="scale(0.015625)"/>
      <path id="DejaVuSans-37" d="M 525 4666 
L 3525 4666 
L 3525 4397 
L 1831 0 
L 1172 0 
L 2766 4134 
L 525 4134 
L 525 4666 
z
" transform="scale(0.015625)"/>
      <path id="DejaVuSans-65" d="M 3597 1894 
L 3597 1613 
L 953 1613 
Q 991 1019 1311 708 
Q 1631 397 2203 397 
Q 2534 397 2845 478 
Q 3156 559 3463 722 
L 3463 178 
Q 3153 47 2828 -22 
Q 2503 -91 2169 -91 
Q 1331 -91 842 396 
Q 353 884 353 1716 
Q 353 2575 817 3079 
Q 1281 3584 2069 3584 
Q 2775 3584 3186 3129 
Q 3597 2675 3597 1894 
z
M 3022 2063 
Q 3016 2534 2758 2815 
Q 2500 3097 2075 3097 
Q 1594 3097 1305 2825 
Q 1016 2553 972 2059 
L 3022 2063 
z
" transform="scale(0.015625)"/>
      <path id="DejaVuSans-2b" d="M 2944 4013 
L 2944 2272 
L 4684 2272 
L 4684 1741 
L 2944 1741 
L 2944 0 
L 2419 0 
L 2419 1741 
L 678 1741 
L 678 2272 
L 2419 2272 
L 2419 4013 
L 2944 4013 
z
" transform="scale(0.015625)"/>
     </defs>
     <use xlink:href="#DejaVuSans-Oblique-51" transform="translate(0 0.78125)"/>
     <use xlink:href="#DejaVuSans-Oblique-49" transform="translate(78.710938 -15.625) scale(0.7)"/>
     <use xlink:href="#DejaVuSans-3a" transform="translate(102.089844 0.78125)"/>
     <use xlink:href="#DejaVuSans-20" transform="translate(135.78125 0.78125)"/>
     <use xlink:href="#DejaVuSans-34" transform="translate(167.568359 0.78125)"/>
     <use xlink:href="#DejaVuSans-31" transform="translate(231.191406 0.78125)"/>
     <use xlink:href="#DejaVuSans-2e" transform="translate(294.814453 0.78125)"/>
     <use xlink:href="#DejaVuSans-b1" transform="translate(326.601562 0.78125)"/>
     <use xlink:href="#DejaVuSans-34" transform="translate(410.390625 0.78125)"/>
     <use xlink:href="#DejaVuSans-2e" transform="translate(474.013672 0.78125)"/>
     <use xlink:href="#DejaVuSans-37" transform="translate(498.050781 0.78125)"/>
     <use xlink:href="#DejaVuSans-65" transform="translate(561.673828 0.78125)"/>
     <use xlink:href="#DejaVuSans-2b" transform="translate(623.197266 0.78125)"/>
     <use xlink:href="#DejaVuSans-30" transform="translate(706.986328 0.78125)"/>
     <use xlink:href="#DejaVuSans-34" transform="translate(770.609375 0.78125)"/>
     <use xlink:href="#DejaVuSans-20" transform="translate(834.232422 0.78125)"/>
    </g>
    <!-- $Q_C$: 39.$\pm$2.3e+06 k -->
    <g transform="translate(425.541625 77.802062) scale(0.1 -0.1)">
     <defs>
      <path id="DejaVuSans-Oblique-43" d="M 4447 4306 
L 4319 3641 
Q 4019 3944 3683 4091 
Q 3347 4238 2956 4238 
Q 2422 4238 2017 3981 
Q 1613 3725 1319 3200 
Q 1131 2863 1032 2486 
Q 934 2109 934 1728 
Q 934 1091 1264 756 
Q 1594 422 2222 422 
Q 2656 422 3056 561 
Q 3456 700 3834 978 
L 3688 231 
Q 3316 72 2936 -9 
Q 2556 -91 2175 -91 
Q 1278 -91 773 396 
Q 269 884 269 1753 
Q 269 2309 461 2846 
Q 653 3384 1013 3828 
Q 1394 4300 1883 4525 
Q 2372 4750 3022 4750 
Q 3422 4750 3780 4639 
Q 4138 4528 4447 4306 
z
" transform="scale(0.015625)"/>
      <path id="DejaVuSans-33" d="M 2597 2516 
Q 3050 2419 3304 2112 
Q 3559 1806 3559 1356 
Q 3559 666 3084 287 
Q 2609 -91 1734 -91 
Q 1441 -91 1130 -33 
Q 819 25 488 141 
L 488 750 
Q 750 597 1062 519 
Q 1375 441 1716 441 
Q 2309 441 2620 675 
Q 2931 909 2931 1356 
Q 2931 1769 2642 2001 
Q 2353 2234 1838 2234 
L 1294 2234 
L 1294 2753 
L 1863 2753 
Q 2328 2753 2575 2939 
Q 2822 3125 2822 3475 
Q 2822 3834 2567 4026 
Q 2313 4219 1838 4219 
Q 1578 4219 1281 4162 
Q 984 4106 628 3988 
L 628 4550 
Q 988 4650 1302 4700 
Q 1616 4750 1894 4750 
Q 2613 4750 3031 4423 
Q 3450 4097 3450 3541 
Q 3450 3153 3228 2886 
Q 3006 2619 2597 2516 
z
" transform="scale(0.015625)"/>
      <path id="DejaVuSans-36" d="M 2113 2584 
Q 1688 2584 1439 2293 
Q 1191 2003 1191 1497 
Q 1191 994 1439 701 
Q 1688 409 2113 409 
Q 2538 409 2786 701 
Q 3034 994 3034 1497 
Q 3034 2003 2786 2293 
Q 2538 2584 2113 2584 
z
M 3366 4563 
L 3366 3988 
Q 3128 4100 2886 4159 
Q 2644 4219 2406 4219 
Q 1781 4219 1451 3797 
Q 1122 3375 1075 2522 
Q 1259 2794 1537 2939 
Q 1816 3084 2150 3084 
Q 2853 3084 3261 2657 
Q 3669 2231 3669 1497 
Q 3669 778 3244 343 
Q 2819 -91 2113 -91 
Q 1303 -91 875 529 
Q 447 1150 447 2328 
Q 447 3434 972 4092 
Q 1497 4750 2381 4750 
Q 2619 4750 2861 4703 
Q 3103 4656 3366 4563 
z
" transform="scale(0.015625)"/>
      <path id="DejaVuSans-6b" d="M 581 4863 
L 1159 4863 
L 1159 1991 
L 2875 3500 
L 3609 3500 
L 1753 1863 
L 3688 0 
L 2938 0 
L 1159 1709 
L 1159 0 
L 581 0 
L 581 4863 
z
" transform="scale(0.015625)"/>
     </defs>
     <use xlink:href="#DejaVuSans-Oblique-51" transform="translate(0 0.015625)"/>
     <use xlink:href="#DejaVuSans-Oblique-43" transform="translate(78.710938 -16.390625) scale(0.7)"/>
     <use xlink:href="#DejaVuSans-3a" transform="translate(130.322266 0.015625)"/>
     <use xlink:href="#DejaVuSans-20" transform="translate(164.013672 0.015625)"/>
     <use xlink:href="#DejaVuSans-33" transform="translate(195.800781 0.015625)"/>
     <use xlink:href="#DejaVuSans-39" transform="translate(259.423828 0.015625)"/>
     <use xlink:href="#DejaVuSans-2e" transform="translate(323.046875 0.015625)"/>
     <use xlink:href="#DejaVuSans-b1" transform="translate(354.833984 0.015625)"/>
     <use xlink:href="#DejaVuSans-32" transform="translate(438.623047 0.015625)"/>
     <use xlink:href="#DejaVuSans-2e" transform="translate(502.246094 0.015625)"/>
     <use xlink:href="#DejaVuSans-33" transform="translate(534.033203 0.015625)"/>
     <use xlink:href="#DejaVuSans-65" transform="translate(597.65625 0.015625)"/>
     <use xlink:href="#DejaVuSans-2b" transform="translate(659.179688 0.015625)"/>
     <use xlink:href="#DejaVuSans-30" transform="translate(742.96875 0.015625)"/>
     <use xlink:href="#DejaVuSans-36" transform="translate(806.591797 0.015625)"/>
     <use xlink:href="#DejaVuSans-20" transform="translate(870.214844 0.015625)"/>
     <use xlink:href="#DejaVuSans-6b" transform="translate(902.001953 0.015625)"/>
    </g>
    <!-- $f_{res}$: 6$\pm$87 GHz -->
    <g transform="translate(425.541625 88.999875) scale(0.1 -0.1)">
     <defs>
      <path id="DejaVuSans-Oblique-66" d="M 3059 4863 
L 2969 4384 
L 2419 4384 
Q 2106 4384 1964 4261 
Q 1822 4138 1753 3809 
L 1691 3500 
L 2638 3500 
L 2553 3053 
L 1606 3053 
L 1013 0 
L 434 0 
L 1031 3053 
L 481 3053 
L 563 3500 
L 1113 3500 
L 1159 3744 
Q 1278 4363 1576 4613 
Q 1875 4863 2516 4863 
L 3059 4863 
z
" transform="scale(0.015625)"/>
      <path id="DejaVuSans-Oblique-72" d="M 2853 2969 
Q 2766 3016 2653 3041 
Q 2541 3066 2413 3066 
Q 1953 3066 1609 2717 
Q 1266 2369 1153 1784 
L 800 0 
L 225 0 
L 909 3500 
L 1484 3500 
L 1375 2956 
Q 1603 3259 1920 3421 
Q 2238 3584 2597 3584 
Q 2691 3584 2781 3573 
Q 2872 3563 2963 3538 
L 2853 2969 
z
" transform="scale(0.015625)"/>
      <path id="DejaVuSans-Oblique-65" d="M 3078 2063 
Q 3088 2113 3092 2166 
Q 3097 2219 3097 2272 
Q 3097 2653 2873 2875 
Q 2650 3097 2266 3097 
Q 1838 3097 1509 2826 
Q 1181 2556 1013 2059 
L 3078 2063 
z
M 3578 1613 
L 903 1613 
Q 884 1494 878 1425 
Q 872 1356 872 1306 
Q 872 872 1139 634 
Q 1406 397 1894 397 
Q 2269 397 2603 481 
Q 2938 566 3225 728 
L 3116 159 
Q 2806 34 2476 -28 
Q 2147 -91 1806 -91 
Q 1078 -91 686 257 
Q 294 606 294 1247 
Q 294 1794 489 2264 
Q 684 2734 1063 3103 
Q 1306 3334 1642 3459 
Q 1978 3584 2356 3584 
Q 2950 3584 3301 3228 
Q 3653 2872 3653 2272 
Q 3653 2128 3634 1964 
Q 3616 1800 3578 1613 
z
" transform="scale(0.015625)"/>
      <path id="DejaVuSans-Oblique-73" d="M 3200 3397 
L 3091 2853 
Q 2863 2978 2609 3040 
Q 2356 3103 2088 3103 
Q 1634 3103 1373 2948 
Q 1113 2794 1113 2528 
Q 1113 2219 1719 2053 
Q 1766 2041 1788 2034 
L 1972 1978 
Q 2547 1819 2739 1644 
Q 2931 1469 2931 1166 
Q 2931 609 2489 259 
Q 2047 -91 1331 -91 
Q 1053 -91 747 -37 
Q 441 16 72 128 
L 184 722 
Q 500 559 806 475 
Q 1113 391 1394 391 
Q 1816 391 2080 572 
Q 2344 753 2344 1031 
Q 2344 1331 1650 1516 
L 1591 1531 
L 1394 1581 
Q 956 1697 753 1886 
Q 550 2075 550 2369 
Q 550 2928 970 3256 
Q 1391 3584 2113 3584 
Q 2397 3584 2667 3537 
Q 2938 3491 3200 3397 
z
" transform="scale(0.015625)"/>
      <path id="DejaVuSans-38" d="M 2034 2216 
Q 1584 2216 1326 1975 
Q 1069 1734 1069 1313 
Q 1069 891 1326 650 
Q 1584 409 2034 409 
Q 2484 409 2743 651 
Q 3003 894 3003 1313 
Q 3003 1734 2745 1975 
Q 2488 2216 2034 2216 
z
M 1403 2484 
Q 997 2584 770 2862 
Q 544 3141 544 3541 
Q 544 4100 942 4425 
Q 1341 4750 2034 4750 
Q 2731 4750 3128 4425 
Q 3525 4100 3525 3541 
Q 3525 3141 3298 2862 
Q 3072 2584 2669 2484 
Q 3125 2378 3379 2068 
Q 3634 1759 3634 1313 
Q 3634 634 3220 271 
Q 2806 -91 2034 -91 
Q 1263 -91 848 271 
Q 434 634 434 1313 
Q 434 1759 690 2068 
Q 947 2378 1403 2484 
z
M 1172 3481 
Q 1172 3119 1398 2916 
Q 1625 2713 2034 2713 
Q 2441 2713 2670 2916 
Q 2900 3119 2900 3481 
Q 2900 3844 2670 4047 
Q 2441 4250 2034 4250 
Q 1625 4250 1398 4047 
Q 1172 3844 1172 3481 
z
" transform="scale(0.015625)"/>
      <path id="DejaVuSans-47" d="M 3809 666 
L 3809 1919 
L 2778 1919 
L 2778 2438 
L 4434 2438 
L 4434 434 
Q 4069 175 3628 42 
Q 3188 -91 2688 -91 
Q 1594 -91 976 548 
Q 359 1188 359 2328 
Q 359 3472 976 4111 
Q 1594 4750 2688 4750 
Q 3144 4750 3555 4637 
Q 3966 4525 4313 4306 
L 4313 3634 
Q 3963 3931 3569 4081 
Q 3175 4231 2741 4231 
Q 1884 4231 1454 3753 
Q 1025 3275 1025 2328 
Q 1025 1384 1454 906 
Q 1884 428 2741 428 
Q 3075 428 3337 486 
Q 3600 544 3809 666 
z
" transform="scale(0.015625)"/>
      <path id="DejaVuSans-48" d="M 628 4666 
L 1259 4666 
L 1259 2753 
L 3553 2753 
L 3553 4666 
L 4184 4666 
L 4184 0 
L 3553 0 
L 3553 2222 
L 1259 2222 
L 1259 0 
L 628 0 
L 628 4666 
z
" transform="scale(0.015625)"/>
      <path id="DejaVuSans-7a" d="M 353 3500 
L 3084 3500 
L 3084 2975 
L 922 459 
L 3084 459 
L 3084 0 
L 275 0 
L 275 525 
L 2438 3041 
L 353 3041 
L 353 3500 
z
" transform="scale(0.015625)"/>
     </defs>
     <use xlink:href="#DejaVuSans-Oblique-66" transform="translate(0 0.015625)"/>
     <use xlink:href="#DejaVuSans-Oblique-72" transform="translate(35.205078 -16.390625) scale(0.7)"/>
     <use xlink:href="#DejaVuSans-Oblique-65" transform="translate(63.984375 -16.390625) scale(0.7)"/>
     <use xlink:href="#DejaVuSans-Oblique-73" transform="translate(107.050781 -16.390625) scale(0.7)"/>
     <use xlink:href="#DejaVuSans-3a" transform="translate(146.254883 0.015625)"/>
     <use xlink:href="#DejaVuSans-20" transform="translate(179.946289 0.015625)"/>
     <use xlink:href="#DejaVuSans-36" transform="translate(211.733398 0.015625)"/>
     <use xlink:href="#DejaVuSans-b1" transform="translate(275.356445 0.015625)"/>
     <use xlink:href="#DejaVuSans-38" transform="translate(359.145508 0.015625)"/>
     <use xlink:href="#DejaVuSans-37" transform="translate(422.768555 0.015625)"/>
     <use xlink:href="#DejaVuSans-20" transform="translate(486.391602 0.015625)"/>
     <use xlink:href="#DejaVuSans-47" transform="translate(518.178711 0.015625)"/>
     <use xlink:href="#DejaVuSans-48" transform="translate(595.668945 0.015625)"/>
     <use xlink:href="#DejaVuSans-7a" transform="translate(670.864258 0.015625)"/>
    </g>
   </g>
  </g>
  <g id="axes_2">
   <g id="patch_8">
    <path d="M 50.565625 307.872 
L 407.685625 307.872 
L 407.685625 186.912 
L 50.565625 186.912 
z
" style="fill: #ffffff"/>
   </g>
   <g id="matplotlib.axis_3">
    <g id="xtick_9">
     <g id="line2d_15">
      <g>
       <use xlink:href="#me069b46be4" x="66.798352" y="307.872" style="stroke: #000000; stroke-width: 0.8"/>
      </g>
     </g>
     <g id="text_7">
      <!-- 10 -->
      <g transform="translate(60.435852 322.470438) scale(0.1 -0.1)">
       <use xlink:href="#DejaVuSans-31"/>
       <use xlink:href="#DejaVuSans-30" x="63.623047"/>
      </g>
     </g>
    </g>
    <g id="xtick_10">
     <g id="line2d_16">
      <g>
       <use xlink:href="#me069b46be4" x="110.085625" y="307.872" style="stroke: #000000; stroke-width: 0.8"/>
      </g>
     </g>
     <g id="text_8">
      <!-- 12 -->
      <g transform="translate(103.723125 322.470438) scale(0.1 -0.1)">
       <use xlink:href="#DejaVuSans-31"/>
       <use xlink:href="#DejaVuSans-32" x="63.623047"/>
      </g>
     </g>
    </g>
    <g id="xtick_11">
     <g id="line2d_17">
      <g>
       <use xlink:href="#me069b46be4" x="153.372898" y="307.872" style="stroke: #000000; stroke-width: 0.8"/>
      </g>
     </g>
     <g id="text_9">
      <!-- 14 -->
      <g transform="translate(147.010398 322.470438) scale(0.1 -0.1)">
       <use xlink:href="#DejaVuSans-31"/>
       <use xlink:href="#DejaVuSans-34" x="63.623047"/>
      </g>
     </g>
    </g>
    <g id="xtick_12">
     <g id="line2d_18">
      <g>
       <use xlink:href="#me069b46be4" x="196.66017" y="307.872" style="stroke: #000000; stroke-width: 0.8"/>
      </g>
     </g>
     <g id="text_10">
      <!-- 16 -->
      <g transform="translate(190.29767 322.470438) scale(0.1 -0.1)">
       <use xlink:href="#DejaVuSans-31"/>
       <use xlink:href="#DejaVuSans-36" x="63.623047"/>
      </g>
     </g>
    </g>
    <g id="xtick_13">
     <g id="line2d_19">
      <g>
       <use xlink:href="#me069b46be4" x="239.947443" y="307.872" style="stroke: #000000; stroke-width: 0.8"/>
      </g>
     </g>
     <g id="text_11">
      <!-- 18 -->
      <g transform="translate(233.584943 322.470438) scale(0.1 -0.1)">
       <use xlink:href="#DejaVuSans-31"/>
       <use xlink:href="#DejaVuSans-38" x="63.623047"/>
      </g>
     </g>
    </g>
    <g id="xtick_14">
     <g id="line2d_20">
      <g>
       <use xlink:href="#me069b46be4" x="283.234716" y="307.872" style="stroke: #000000; stroke-width: 0.8"/>
      </g>
     </g>
     <g id="text_12">
      <!-- 20 -->
      <g transform="translate(276.872216 322.470438) scale(0.1 -0.1)">
       <use xlink:href="#DejaVuSans-32"/>
       <use xlink:href="#DejaVuSans-30" x="63.623047"/>
      </g>
     </g>
    </g>
    <g id="xtick_15">
     <g id="line2d_21">
      <g>
       <use xlink:href="#me069b46be4" x="326.521989" y="307.872" style="stroke: #000000; stroke-width: 0.8"/>
      </g>
     </g>
     <g id="text_13">
      <!-- 22 -->
      <g transform="translate(320.159489 322.470438) scale(0.1 -0.1)">
       <use xlink:href="#DejaVuSans-32"/>
       <use xlink:href="#DejaVuSans-32" x="63.623047"/>
      </g>
     </g>
    </g>
    <g id="xtick_16">
     <g id="line2d_22">
      <g>
       <use xlink:href="#me069b46be4" x="369.809261" y="307.872" style="stroke: #000000; stroke-width: 0.8"/>
      </g>
     </g>
     <g id="text_14">
      <!-- 24 -->
      <g transform="translate(363.446761 322.470438) scale(0.1 -0.1)">
       <use xlink:href="#DejaVuSans-32"/>
       <use xlink:href="#DejaVuSans-34" x="63.623047"/>
      </g>
     </g>
    </g>
    <g id="text_15">
     <!-- Frequency [MHz] -->
     <g transform="translate(187.106875 336.148562) scale(0.1 -0.1)">
      <defs>
       <path id="DejaVuSans-46" d="M 628 4666 
L 3309 4666 
L 3309 4134 
L 1259 4134 
L 1259 2759 
L 3109 2759 
L 3109 2228 
L 1259 2228 
L 1259 0 
L 628 0 
L 628 4666 
z
" transform="scale(0.015625)"/>
       <path id="DejaVuSans-71" d="M 947 1747 
Q 947 1113 1208 752 
Q 1469 391 1925 391 
Q 2381 391 2643 752 
Q 2906 1113 2906 1747 
Q 2906 2381 2643 2742 
Q 2381 3103 1925 3103 
Q 1469 3103 1208 2742 
Q 947 2381 947 1747 
z
M 2906 525 
Q 2725 213 2448 61 
Q 2172 -91 1784 -91 
Q 1150 -91 751 415 
Q 353 922 353 1747 
Q 353 2572 751 3078 
Q 1150 3584 1784 3584 
Q 2172 3584 2448 3432 
Q 2725 3281 2906 2969 
L 2906 3500 
L 3481 3500 
L 3481 -1331 
L 2906 -1331 
L 2906 525 
z
" transform="scale(0.015625)"/>
       <path id="DejaVuSans-6e" d="M 3513 2113 
L 3513 0 
L 2938 0 
L 2938 2094 
Q 2938 2591 2744 2837 
Q 2550 3084 2163 3084 
Q 1697 3084 1428 2787 
Q 1159 2491 1159 1978 
L 1159 0 
L 581 0 
L 581 3500 
L 1159 3500 
L 1159 2956 
Q 1366 3272 1645 3428 
Q 1925 3584 2291 3584 
Q 2894 3584 3203 3211 
Q 3513 2838 3513 2113 
z
" transform="scale(0.015625)"/>
       <path id="DejaVuSans-63" d="M 3122 3366 
L 3122 2828 
Q 2878 2963 2633 3030 
Q 2388 3097 2138 3097 
Q 1578 3097 1268 2742 
Q 959 2388 959 1747 
Q 959 1106 1268 751 
Q 1578 397 2138 397 
Q 2388 397 2633 464 
Q 2878 531 3122 666 
L 3122 134 
Q 2881 22 2623 -34 
Q 2366 -91 2075 -91 
Q 1284 -91 818 406 
Q 353 903 353 1747 
Q 353 2603 823 3093 
Q 1294 3584 2113 3584 
Q 2378 3584 2631 3529 
Q 2884 3475 3122 3366 
z
" transform="scale(0.015625)"/>
       <path id="DejaVuSans-4d" d="M 628 4666 
L 1569 4666 
L 2759 1491 
L 3956 4666 
L 4897 4666 
L 4897 0 
L 4281 0 
L 4281 4097 
L 3078 897 
L 2444 897 
L 1241 4097 
L 1241 0 
L 628 0 
L 628 4666 
z
" transform="scale(0.015625)"/>
      </defs>
      <use xlink:href="#DejaVuSans-46"/>
      <use xlink:href="#DejaVuSans-72" x="50.269531"/>
      <use xlink:href="#DejaVuSans-65" x="89.132812"/>
      <use xlink:href="#DejaVuSans-71" x="150.65625"/>
      <use xlink:href="#DejaVuSans-75" x="214.132812"/>
      <use xlink:href="#DejaVuSans-65" x="277.511719"/>
      <use xlink:href="#DejaVuSans-6e" x="339.035156"/>
      <use xlink:href="#DejaVuSans-63" x="402.414062"/>
      <use xlink:href="#DejaVuSans-79" x="457.394531"/>
      <use xlink:href="#DejaVuSans-20" x="516.574219"/>
      <use xlink:href="#DejaVuSans-5b" x="548.361328"/>
      <use xlink:href="#DejaVuSans-4d" x="587.375"/>
      <use xlink:href="#DejaVuSans-48" x="673.654297"/>
      <use xlink:href="#DejaVuSans-7a" x="748.849609"/>
      <use xlink:href="#DejaVuSans-5d" x="801.339844"/>
     </g>
    </g>
    <g id="text_16">
     <!-- +6 GHz -->
     <g transform="translate(369.248125 335.148562) scale(0.1 -0.1)">
      <use xlink:href="#DejaVuSans-2b"/>
      <use xlink:href="#DejaVuSans-36" x="83.789062"/>
      <use xlink:href="#DejaVuSans-20" x="147.412109"/>
      <use xlink:href="#DejaVuSans-47" x="179.199219"/>
      <use xlink:href="#DejaVuSans-48" x="256.689453"/>
      <use xlink:href="#DejaVuSans-7a" x="331.884766"/>
     </g>
    </g>
   </g>
   <g id="matplotlib.axis_4">
    <g id="ytick_5">
     <g id="line2d_23">
      <g>
       <use xlink:href="#m6cec0f921f" x="50.565625" y="307.108855" style="stroke: #000000; stroke-width: 0.8"/>
      </g>
     </g>
     <g id="text_17">
      <!-- 0 -->
      <g transform="translate(37.203125 310.908074) scale(0.1 -0.1)">
       <use xlink:href="#DejaVuSans-30"/>
      </g>
     </g>
    </g>
    <g id="ytick_6">
     <g id="line2d_24">
      <g>
       <use xlink:href="#m6cec0f921f" x="50.565625" y="283.385225" style="stroke: #000000; stroke-width: 0.8"/>
      </g>
     </g>
     <g id="text_18">
      <!-- 20 -->
      <g transform="translate(30.840625 287.184444) scale(0.1 -0.1)">
       <use xlink:href="#DejaVuSans-32"/>
       <use xlink:href="#DejaVuSans-30" x="63.623047"/>
      </g>
     </g>
    </g>
    <g id="ytick_7">
     <g id="line2d_25">
      <g>
       <use xlink:href="#m6cec0f921f" x="50.565625" y="259.661595" style="stroke: #000000; stroke-width: 0.8"/>
      </g>
     </g>
     <g id="text_19">
      <!-- 40 -->
      <g transform="translate(30.840625 263.460814) scale(0.1 -0.1)">
       <use xlink:href="#DejaVuSans-34"/>
       <use xlink:href="#DejaVuSans-30" x="63.623047"/>
      </g>
     </g>
    </g>
    <g id="ytick_8">
     <g id="line2d_26">
      <g>
       <use xlink:href="#m6cec0f921f" x="50.565625" y="235.937965" style="stroke: #000000; stroke-width: 0.8"/>
      </g>
     </g>
     <g id="text_20">
      <!-- 60 -->
      <g transform="translate(30.840625 239.737183) scale(0.1 -0.1)">
       <use xlink:href="#DejaVuSans-36"/>
       <use xlink:href="#DejaVuSans-30" x="63.623047"/>
      </g>
     </g>
    </g>
    <g id="ytick_9">
     <g id="line2d_27">
      <g>
       <use xlink:href="#m6cec0f921f" x="50.565625" y="212.214334" style="stroke: #000000; stroke-width: 0.8"/>
      </g>
     </g>
     <g id="text_21">
      <!-- 80 -->
      <g transform="translate(30.840625 216.013553) scale(0.1 -0.1)">
       <use xlink:href="#DejaVuSans-38"/>
       <use xlink:href="#DejaVuSans-30" x="63.623047"/>
      </g>
     </g>
    </g>
    <g id="ytick_10">
     <g id="line2d_28">
      <g>
       <use xlink:href="#m6cec0f921f" x="50.565625" y="188.490704" style="stroke: #000000; stroke-width: 0.8"/>
      </g>
     </g>
     <g id="text_22">
      <!-- 100 -->
      <g transform="translate(24.478125 192.289923) scale(0.1 -0.1)">
       <use xlink:href="#DejaVuSans-31"/>
       <use xlink:href="#DejaVuSans-30" x="63.623047"/>
       <use xlink:href="#DejaVuSans-30" x="127.246094"/>
      </g>
     </g>
    </g>
    <g id="text_23">
     <!-- $\angle S_{21}$ [deg] -->
     <g transform="translate(18.378125 274.592) rotate(-90) scale(0.1 -0.1)">
      <defs>
       <path id="DejaVuSans-2220" d="M 5028 631 
L 5028 0 
L 547 0 
L 3525 4666 
L 4281 4666 
L 1716 631 
L 5028 631 
z
" transform="scale(0.015625)"/>
       <path id="DejaVuSans-64" d="M 2906 2969 
L 2906 4863 
L 3481 4863 
L 3481 0 
L 2906 0 
L 2906 525 
Q 2725 213 2448 61 
Q 2172 -91 1784 -91 
Q 1150 -91 751 415 
Q 353 922 353 1747 
Q 353 2572 751 3078 
Q 1150 3584 1784 3584 
Q 2172 3584 2448 3432 
Q 2725 3281 2906 2969 
z
M 947 1747 
Q 947 1113 1208 752 
Q 1469 391 1925 391 
Q 2381 391 2643 752 
Q 2906 1113 2906 1747 
Q 2906 2381 2643 2742 
Q 2381 3103 1925 3103 
Q 1469 3103 1208 2742 
Q 947 2381 947 1747 
z
" transform="scale(0.015625)"/>
       <path id="DejaVuSans-67" d="M 2906 1791 
Q 2906 2416 2648 2759 
Q 2391 3103 1925 3103 
Q 1463 3103 1205 2759 
Q 947 2416 947 1791 
Q 947 1169 1205 825 
Q 1463 481 1925 481 
Q 2391 481 2648 825 
Q 2906 1169 2906 1791 
z
M 3481 434 
Q 3481 -459 3084 -895 
Q 2688 -1331 1869 -1331 
Q 1566 -1331 1297 -1286 
Q 1028 -1241 775 -1147 
L 775 -588 
Q 1028 -725 1275 -790 
Q 1522 -856 1778 -856 
Q 2344 -856 2625 -561 
Q 2906 -266 2906 331 
L 2906 616 
Q 2728 306 2450 153 
Q 2172 0 1784 0 
Q 1141 0 747 490 
Q 353 981 353 1791 
Q 353 2603 747 3093 
Q 1141 3584 1784 3584 
Q 2172 3584 2450 3431 
Q 2728 3278 2906 2969 
L 2906 3500 
L 3481 3500 
L 3481 434 
z
" transform="scale(0.015625)"/>
      </defs>
      <use xlink:href="#DejaVuSans-2220" transform="translate(0 0.015625)"/>
      <use xlink:href="#DejaVuSans-Oblique-53" transform="translate(89.648438 0.015625)"/>
      <use xlink:href="#DejaVuSans-32" transform="translate(153.125 -16.390625) scale(0.7)"/>
      <use xlink:href="#DejaVuSans-31" transform="translate(197.661133 -16.390625) scale(0.7)"/>
      <use xlink:href="#DejaVuSans-20" transform="translate(244.931641 0.015625)"/>
      <use xlink:href="#DejaVuSans-5b" transform="translate(276.71875 0.015625)"/>
      <use xlink:href="#DejaVuSans-64" transform="translate(315.732422 0.015625)"/>
      <use xlink:href="#DejaVuSans-65" transform="translate(379.208984 0.015625)"/>
      <use xlink:href="#DejaVuSans-67" transform="translate(440.732422 0.015625)"/>
      <use xlink:href="#DejaVuSans-5d" transform="translate(504.208984 0.015625)"/>
     </g>
    </g>
   </g>
   <g id="line2d_29">
    <path d="M 66.798352 192.410182 
L 68.429782 194.259437 
L 70.061212 194.931564 
L 71.692642 196.213466 
L 73.324072 197.169843 
L 74.955502 199.745787 
L 76.586932 200.362399 
L 78.218361 200.488202 
L 81.481221 202.904709 
L 83.112651 204.548297 
L 84.744081 204.97434 
L 86.375511 206.070077 
L 88.006941 206.094838 
L 89.638371 207.857372 
L 91.2698 209.114687 
L 94.53266 210.097311 
L 96.16409 211.237843 
L 97.79552 211.579421 
L 99.42695 213.325624 
L 101.05838 213.958639 
L 102.68981 214.913723 
L 104.321239 216.574134 
L 105.952669 216.673063 
L 107.584099 217.544963 
L 109.215529 217.598566 
L 110.846959 218.506642 
L 112.478389 219.224433 
L 115.741249 221.684589 
L 117.372678 221.392578 
L 119.004108 221.948656 
L 120.635538 223.546326 
L 122.266968 223.860415 
L 125.529828 224.059707 
L 127.161258 225.28848 
L 128.792688 226.854266 
L 130.424117 227.717374 
L 132.055547 228.188511 
L 133.686977 228.438004 
L 135.318407 227.629269 
L 136.949837 229.031884 
L 138.581267 229.664314 
L 140.212697 229.55861 
L 141.844127 230.00264 
L 143.475556 231.836334 
L 145.106986 232.062666 
L 146.738416 232.742532 
L 148.369846 232.413771 
L 150.001276 233.854754 
L 151.632706 234.064729 
L 153.264136 235.040934 
L 156.526995 235.444888 
L 158.158425 235.836843 
L 159.789855 236.049166 
L 163.052715 238.194056 
L 164.684145 238.343177 
L 166.315575 238.712477 
L 169.578435 240.234085 
L 171.209864 239.830052 
L 172.841294 240.744653 
L 174.472724 242.733787 
L 176.104154 241.129308 
L 177.735584 242.618175 
L 179.367014 242.658234 
L 180.998444 243.530684 
L 182.629874 243.468894 
L 184.261303 244.371308 
L 185.892733 245.002789 
L 187.524163 244.968147 
L 189.155593 246.610682 
L 190.787023 245.844011 
L 192.418453 247.624777 
L 194.049883 247.413166 
L 195.681313 248.173669 
L 197.312742 248.09834 
L 198.944172 248.461164 
L 200.575602 249.499017 
L 202.207032 249.852097 
L 205.469892 251.077094 
L 207.101322 250.747517 
L 208.732752 250.889113 
L 210.364181 251.949086 
L 211.995611 252.057062 
L 213.627041 253.170306 
L 215.258471 253.785215 
L 216.889901 254.221102 
L 218.521331 253.958413 
L 221.784191 256.101561 
L 223.41562 255.908084 
L 225.04705 256.057182 
L 226.67848 257.39218 
L 228.30991 257.803421 
L 231.57277 257.280086 
L 233.2042 258.418499 
L 234.83563 259.078329 
L 236.467059 259.526421 
L 238.098489 259.584166 
L 239.729919 260.784257 
L 241.361349 261.268574 
L 242.992779 261.378474 
L 244.624209 261.077956 
L 246.255639 261.571205 
L 247.887069 262.609969 
L 249.518498 263.511292 
L 251.149928 263.831608 
L 252.781358 263.699857 
L 254.412788 264.387519 
L 256.044218 264.158882 
L 257.675648 264.570701 
L 259.307078 266.432227 
L 260.938508 266.626124 
L 262.569937 266.370845 
L 264.201367 266.708444 
L 265.832797 268.084588 
L 267.464227 267.611332 
L 269.095657 267.965287 
L 273.989947 269.656746 
L 275.621376 269.962111 
L 277.252806 269.791793 
L 278.884236 270.996737 
L 280.515666 270.61371 
L 282.147096 270.857075 
L 283.778526 271.48724 
L 285.409956 271.733644 
L 287.041386 273.179657 
L 288.672815 273.076165 
L 290.304245 274.049865 
L 291.935675 273.968026 
L 293.567105 274.124736 
L 295.198535 274.467417 
L 296.829965 275.432988 
L 298.461395 275.731139 
L 300.092825 275.817272 
L 301.724255 276.634675 
L 303.355684 277.094194 
L 304.987114 276.656969 
L 306.618544 277.668549 
L 308.249974 277.95113 
L 309.881404 277.320052 
L 311.512834 279.023499 
L 313.144264 279.587555 
L 314.775694 279.266959 
L 316.407123 279.932848 
L 318.038553 281.101831 
L 319.669983 280.50459 
L 321.301413 281.183569 
L 322.932843 282.07255 
L 324.564273 281.825958 
L 326.195703 282.359435 
L 327.827133 282.315049 
L 329.458562 282.864584 
L 331.089992 282.942775 
L 332.721422 284.101394 
L 334.352852 284.117887 
L 335.984282 284.589901 
L 337.615712 284.391059 
L 339.247142 285.571336 
L 340.878572 285.070344 
L 342.510001 286.313788 
L 344.141431 286.576321 
L 345.772861 286.533535 
L 347.404291 287.285023 
L 349.035721 288.208347 
L 350.667151 287.898443 
L 352.298581 288.181176 
L 353.930011 288.037627 
L 355.56144 289.04969 
L 357.19287 288.893275 
L 358.8243 289.376396 
L 360.45573 290.658623 
L 362.08716 290.33659 
L 365.35002 291.943639 
L 366.98145 292.230864 
L 368.612879 292.202626 
L 370.244309 292.594145 
L 371.875739 292.815899 
L 373.507169 293.682043 
L 375.138599 294.415086 
L 376.770029 294.584737 
L 378.401459 294.883839 
L 380.032889 294.564363 
L 381.664318 295.369915 
L 383.295748 295.471871 
L 386.558608 296.462023 
L 388.190038 296.498442 
L 389.821468 296.856534 
L 391.452898 297.459563 
L 391.452898 297.459563 
" clip-path="url(#p48e82e11d7)" style="fill: none; stroke: #1f77b4; stroke-width: 1.5; stroke-linecap: square"/>
    <g clip-path="url(#p48e82e11d7)">
     <use xlink:href="#md406ed5e9a" x="66.798352" y="192.410182" style="fill: #1f77b4; stroke: #1f77b4"/>
     <use xlink:href="#md406ed5e9a" x="68.429782" y="194.259437" style="fill: #1f77b4; stroke: #1f77b4"/>
     <use xlink:href="#md406ed5e9a" x="70.061212" y="194.931564" style="fill: #1f77b4; stroke: #1f77b4"/>
     <use xlink:href="#md406ed5e9a" x="71.692642" y="196.213466" style="fill: #1f77b4; stroke: #1f77b4"/>
     <use xlink:href="#md406ed5e9a" x="73.324072" y="197.169843" style="fill: #1f77b4; stroke: #1f77b4"/>
     <use xlink:href="#md406ed5e9a" x="74.955502" y="199.745787" style="fill: #1f77b4; stroke: #1f77b4"/>
     <use xlink:href="#md406ed5e9a" x="76.586932" y="200.362399" style="fill: #1f77b4; stroke: #1f77b4"/>
     <use xlink:href="#md406ed5e9a" x="78.218361" y="200.488202" style="fill: #1f77b4; stroke: #1f77b4"/>
     <use xlink:href="#md406ed5e9a" x="79.849791" y="201.678998" style="fill: #1f77b4; stroke: #1f77b4"/>
     <use xlink:href="#md406ed5e9a" x="81.481221" y="202.904709" style="fill: #1f77b4; stroke: #1f77b4"/>
     <use xlink:href="#md406ed5e9a" x="83.112651" y="204.548297" style="fill: #1f77b4; stroke: #1f77b4"/>
     <use xlink:href="#md406ed5e9a" x="84.744081" y="204.97434" style="fill: #1f77b4; stroke: #1f77b4"/>
     <use xlink:href="#md406ed5e9a" x="86.375511" y="206.070077" style="fill: #1f77b4; stroke: #1f77b4"/>
     <use xlink:href="#md406ed5e9a" x="88.006941" y="206.094838" style="fill: #1f77b4; stroke: #1f77b4"/>
     <use xlink:href="#md406ed5e9a" x="89.638371" y="207.857372" style="fill: #1f77b4; stroke: #1f77b4"/>
     <use xlink:href="#md406ed5e9a" x="91.2698" y="209.114687" style="fill: #1f77b4; stroke: #1f77b4"/>
     <use xlink:href="#md406ed5e9a" x="92.90123" y="209.565022" style="fill: #1f77b4; stroke: #1f77b4"/>
     <use xlink:href="#md406ed5e9a" x="94.53266" y="210.097311" style="fill: #1f77b4; stroke: #1f77b4"/>
     <use xlink:href="#md406ed5e9a" x="96.16409" y="211.237843" style="fill: #1f77b4; stroke: #1f77b4"/>
     <use xlink:href="#md406ed5e9a" x="97.79552" y="211.579421" style="fill: #1f77b4; stroke: #1f77b4"/>
     <use xlink:href="#md406ed5e9a" x="99.42695" y="213.325624" style="fill: #1f77b4; stroke: #1f77b4"/>
     <use xlink:href="#md406ed5e9a" x="101.05838" y="213.958639" style="fill: #1f77b4; stroke: #1f77b4"/>
     <use xlink:href="#md406ed5e9a" x="102.68981" y="214.913723" style="fill: #1f77b4; stroke: #1f77b4"/>
     <use xlink:href="#md406ed5e9a" x="104.321239" y="216.574134" style="fill: #1f77b4; stroke: #1f77b4"/>
     <use xlink:href="#md406ed5e9a" x="105.952669" y="216.673063" style="fill: #1f77b4; stroke: #1f77b4"/>
     <use xlink:href="#md406ed5e9a" x="107.584099" y="217.544963" style="fill: #1f77b4; stroke: #1f77b4"/>
     <use xlink:href="#md406ed5e9a" x="109.215529" y="217.598566" style="fill: #1f77b4; stroke: #1f77b4"/>
     <use xlink:href="#md406ed5e9a" x="110.846959" y="218.506642" style="fill: #1f77b4; stroke: #1f77b4"/>
     <use xlink:href="#md406ed5e9a" x="112.478389" y="219.224433" style="fill: #1f77b4; stroke: #1f77b4"/>
     <use xlink:href="#md406ed5e9a" x="114.109819" y="220.442767" style="fill: #1f77b4; stroke: #1f77b4"/>
     <use xlink:href="#md406ed5e9a" x="115.741249" y="221.684589" style="fill: #1f77b4; stroke: #1f77b4"/>
     <use xlink:href="#md406ed5e9a" x="117.372678" y="221.392578" style="fill: #1f77b4; stroke: #1f77b4"/>
     <use xlink:href="#md406ed5e9a" x="119.004108" y="221.948656" style="fill: #1f77b4; stroke: #1f77b4"/>
     <use xlink:href="#md406ed5e9a" x="120.635538" y="223.546326" style="fill: #1f77b4; stroke: #1f77b4"/>
     <use xlink:href="#md406ed5e9a" x="122.266968" y="223.860415" style="fill: #1f77b4; stroke: #1f77b4"/>
     <use xlink:href="#md406ed5e9a" x="123.898398" y="223.924279" style="fill: #1f77b4; stroke: #1f77b4"/>
     <use xlink:href="#md406ed5e9a" x="125.529828" y="224.059707" style="fill: #1f77b4; stroke: #1f77b4"/>
     <use xlink:href="#md406ed5e9a" x="127.161258" y="225.28848" style="fill: #1f77b4; stroke: #1f77b4"/>
     <use xlink:href="#md406ed5e9a" x="128.792688" y="226.854266" style="fill: #1f77b4; stroke: #1f77b4"/>
     <use xlink:href="#md406ed5e9a" x="130.424117" y="227.717374" style="fill: #1f77b4; stroke: #1f77b4"/>
     <use xlink:href="#md406ed5e9a" x="132.055547" y="228.188511" style="fill: #1f77b4; stroke: #1f77b4"/>
     <use xlink:href="#md406ed5e9a" x="133.686977" y="228.438004" style="fill: #1f77b4; stroke: #1f77b4"/>
     <use xlink:href="#md406ed5e9a" x="135.318407" y="227.629269" style="fill: #1f77b4; stroke: #1f77b4"/>
     <use xlink:href="#md406ed5e9a" x="136.949837" y="229.031884" style="fill: #1f77b4; stroke: #1f77b4"/>
     <use xlink:href="#md406ed5e9a" x="138.581267" y="229.664314" style="fill: #1f77b4; stroke: #1f77b4"/>
     <use xlink:href="#md406ed5e9a" x="140.212697" y="229.55861" style="fill: #1f77b4; stroke: #1f77b4"/>
     <use xlink:href="#md406ed5e9a" x="141.844127" y="230.00264" style="fill: #1f77b4; stroke: #1f77b4"/>
     <use xlink:href="#md406ed5e9a" x="143.475556" y="231.836334" style="fill: #1f77b4; stroke: #1f77b4"/>
     <use xlink:href="#md406ed5e9a" x="145.106986" y="232.062666" style="fill: #1f77b4; stroke: #1f77b4"/>
     <use xlink:href="#md406ed5e9a" x="146.738416" y="232.742532" style="fill: #1f77b4; stroke: #1f77b4"/>
     <use xlink:href="#md406ed5e9a" x="148.369846" y="232.413771" style="fill: #1f77b4; stroke: #1f77b4"/>
     <use xlink:href="#md406ed5e9a" x="150.001276" y="233.854754" style="fill: #1f77b4; stroke: #1f77b4"/>
     <use xlink:href="#md406ed5e9a" x="151.632706" y="234.064729" style="fill: #1f77b4; stroke: #1f77b4"/>
     <use xlink:href="#md406ed5e9a" x="153.264136" y="235.040934" style="fill: #1f77b4; stroke: #1f77b4"/>
     <use xlink:href="#md406ed5e9a" x="154.895566" y="235.234682" style="fill: #1f77b4; stroke: #1f77b4"/>
     <use xlink:href="#md406ed5e9a" x="156.526995" y="235.444888" style="fill: #1f77b4; stroke: #1f77b4"/>
     <use xlink:href="#md406ed5e9a" x="158.158425" y="235.836843" style="fill: #1f77b4; stroke: #1f77b4"/>
     <use xlink:href="#md406ed5e9a" x="159.789855" y="236.049166" style="fill: #1f77b4; stroke: #1f77b4"/>
     <use xlink:href="#md406ed5e9a" x="161.421285" y="237.167496" style="fill: #1f77b4; stroke: #1f77b4"/>
     <use xlink:href="#md406ed5e9a" x="163.052715" y="238.194056" style="fill: #1f77b4; stroke: #1f77b4"/>
     <use xlink:href="#md406ed5e9a" x="164.684145" y="238.343177" style="fill: #1f77b4; stroke: #1f77b4"/>
     <use xlink:href="#md406ed5e9a" x="166.315575" y="238.712477" style="fill: #1f77b4; stroke: #1f77b4"/>
     <use xlink:href="#md406ed5e9a" x="167.947005" y="239.481973" style="fill: #1f77b4; stroke: #1f77b4"/>
     <use xlink:href="#md406ed5e9a" x="169.578435" y="240.234085" style="fill: #1f77b4; stroke: #1f77b4"/>
     <use xlink:href="#md406ed5e9a" x="171.209864" y="239.830052" style="fill: #1f77b4; stroke: #1f77b4"/>
     <use xlink:href="#md406ed5e9a" x="172.841294" y="240.744653" style="fill: #1f77b4; stroke: #1f77b4"/>
     <use xlink:href="#md406ed5e9a" x="174.472724" y="242.733787" style="fill: #1f77b4; stroke: #1f77b4"/>
     <use xlink:href="#md406ed5e9a" x="176.104154" y="241.129308" style="fill: #1f77b4; stroke: #1f77b4"/>
     <use xlink:href="#md406ed5e9a" x="177.735584" y="242.618175" style="fill: #1f77b4; stroke: #1f77b4"/>
     <use xlink:href="#md406ed5e9a" x="179.367014" y="242.658234" style="fill: #1f77b4; stroke: #1f77b4"/>
     <use xlink:href="#md406ed5e9a" x="180.998444" y="243.530684" style="fill: #1f77b4; stroke: #1f77b4"/>
     <use xlink:href="#md406ed5e9a" x="182.629874" y="243.468894" style="fill: #1f77b4; stroke: #1f77b4"/>
     <use xlink:href="#md406ed5e9a" x="184.261303" y="244.371308" style="fill: #1f77b4; stroke: #1f77b4"/>
     <use xlink:href="#md406ed5e9a" x="185.892733" y="245.002789" style="fill: #1f77b4; stroke: #1f77b4"/>
     <use xlink:href="#md406ed5e9a" x="187.524163" y="244.968147" style="fill: #1f77b4; stroke: #1f77b4"/>
     <use xlink:href="#md406ed5e9a" x="189.155593" y="246.610682" style="fill: #1f77b4; stroke: #1f77b4"/>
     <use xlink:href="#md406ed5e9a" x="190.787023" y="245.844011" style="fill: #1f77b4; stroke: #1f77b4"/>
     <use xlink:href="#md406ed5e9a" x="192.418453" y="247.624777" style="fill: #1f77b4; stroke: #1f77b4"/>
     <use xlink:href="#md406ed5e9a" x="194.049883" y="247.413166" style="fill: #1f77b4; stroke: #1f77b4"/>
     <use xlink:href="#md406ed5e9a" x="195.681313" y="248.173669" style="fill: #1f77b4; stroke: #1f77b4"/>
     <use xlink:href="#md406ed5e9a" x="197.312742" y="248.09834" style="fill: #1f77b4; stroke: #1f77b4"/>
     <use xlink:href="#md406ed5e9a" x="198.944172" y="248.461164" style="fill: #1f77b4; stroke: #1f77b4"/>
     <use xlink:href="#md406ed5e9a" x="200.575602" y="249.499017" style="fill: #1f77b4; stroke: #1f77b4"/>
     <use xlink:href="#md406ed5e9a" x="202.207032" y="249.852097" style="fill: #1f77b4; stroke: #1f77b4"/>
     <use xlink:href="#md406ed5e9a" x="203.838462" y="250.434355" style="fill: #1f77b4; stroke: #1f77b4"/>
     <use xlink:href="#md406ed5e9a" x="205.469892" y="251.077094" style="fill: #1f77b4; stroke: #1f77b4"/>
     <use xlink:href="#md406ed5e9a" x="207.101322" y="250.747517" style="fill: #1f77b4; stroke: #1f77b4"/>
     <use xlink:href="#md406ed5e9a" x="208.732752" y="250.889113" style="fill: #1f77b4; stroke: #1f77b4"/>
     <use xlink:href="#md406ed5e9a" x="210.364181" y="251.949086" style="fill: #1f77b4; stroke: #1f77b4"/>
     <use xlink:href="#md406ed5e9a" x="211.995611" y="252.057062" style="fill: #1f77b4; stroke: #1f77b4"/>
     <use xlink:href="#md406ed5e9a" x="213.627041" y="253.170306" style="fill: #1f77b4; stroke: #1f77b4"/>
     <use xlink:href="#md406ed5e9a" x="215.258471" y="253.785215" style="fill: #1f77b4; stroke: #1f77b4"/>
     <use xlink:href="#md406ed5e9a" x="216.889901" y="254.221102" style="fill: #1f77b4; stroke: #1f77b4"/>
     <use xlink:href="#md406ed5e9a" x="218.521331" y="253.958413" style="fill: #1f77b4; stroke: #1f77b4"/>
     <use xlink:href="#md406ed5e9a" x="220.152761" y="255.009823" style="fill: #1f77b4; stroke: #1f77b4"/>
     <use xlink:href="#md406ed5e9a" x="221.784191" y="256.101561" style="fill: #1f77b4; stroke: #1f77b4"/>
     <use xlink:href="#md406ed5e9a" x="223.41562" y="255.908084" style="fill: #1f77b4; stroke: #1f77b4"/>
     <use xlink:href="#md406ed5e9a" x="225.04705" y="256.057182" style="fill: #1f77b4; stroke: #1f77b4"/>
     <use xlink:href="#md406ed5e9a" x="226.67848" y="257.39218" style="fill: #1f77b4; stroke: #1f77b4"/>
     <use xlink:href="#md406ed5e9a" x="228.30991" y="257.803421" style="fill: #1f77b4; stroke: #1f77b4"/>
     <use xlink:href="#md406ed5e9a" x="229.94134" y="257.578112" style="fill: #1f77b4; stroke: #1f77b4"/>
     <use xlink:href="#md406ed5e9a" x="231.57277" y="257.280086" style="fill: #1f77b4; stroke: #1f77b4"/>
     <use xlink:href="#md406ed5e9a" x="233.2042" y="258.418499" style="fill: #1f77b4; stroke: #1f77b4"/>
     <use xlink:href="#md406ed5e9a" x="234.83563" y="259.078329" style="fill: #1f77b4; stroke: #1f77b4"/>
     <use xlink:href="#md406ed5e9a" x="236.467059" y="259.526421" style="fill: #1f77b4; stroke: #1f77b4"/>
     <use xlink:href="#md406ed5e9a" x="238.098489" y="259.584166" style="fill: #1f77b4; stroke: #1f77b4"/>
     <use xlink:href="#md406ed5e9a" x="239.729919" y="260.784257" style="fill: #1f77b4; stroke: #1f77b4"/>
     <use xlink:href="#md406ed5e9a" x="241.361349" y="261.268574" style="fill: #1f77b4; stroke: #1f77b4"/>
     <use xlink:href="#md406ed5e9a" x="242.992779" y="261.378474" style="fill: #1f77b4; stroke: #1f77b4"/>
     <use xlink:href="#md406ed5e9a" x="244.624209" y="261.077956" style="fill: #1f77b4; stroke: #1f77b4"/>
     <use xlink:href="#md406ed5e9a" x="246.255639" y="261.571205" style="fill: #1f77b4; stroke: #1f77b4"/>
     <use xlink:href="#md406ed5e9a" x="247.887069" y="262.609969" style="fill: #1f77b4; stroke: #1f77b4"/>
     <use xlink:href="#md406ed5e9a" x="249.518498" y="263.511292" style="fill: #1f77b4; stroke: #1f77b4"/>
     <use xlink:href="#md406ed5e9a" x="251.149928" y="263.831608" style="fill: #1f77b4; stroke: #1f77b4"/>
     <use xlink:href="#md406ed5e9a" x="252.781358" y="263.699857" style="fill: #1f77b4; stroke: #1f77b4"/>
     <use xlink:href="#md406ed5e9a" x="254.412788" y="264.387519" style="fill: #1f77b4; stroke: #1f77b4"/>
     <use xlink:href="#md406ed5e9a" x="256.044218" y="264.158882" style="fill: #1f77b4; stroke: #1f77b4"/>
     <use xlink:href="#md406ed5e9a" x="257.675648" y="264.570701" style="fill: #1f77b4; stroke: #1f77b4"/>
     <use xlink:href="#md406ed5e9a" x="259.307078" y="266.432227" style="fill: #1f77b4; stroke: #1f77b4"/>
     <use xlink:href="#md406ed5e9a" x="260.938508" y="266.626124" style="fill: #1f77b4; stroke: #1f77b4"/>
     <use xlink:href="#md406ed5e9a" x="262.569937" y="266.370845" style="fill: #1f77b4; stroke: #1f77b4"/>
     <use xlink:href="#md406ed5e9a" x="264.201367" y="266.708444" style="fill: #1f77b4; stroke: #1f77b4"/>
     <use xlink:href="#md406ed5e9a" x="265.832797" y="268.084588" style="fill: #1f77b4; stroke: #1f77b4"/>
     <use xlink:href="#md406ed5e9a" x="267.464227" y="267.611332" style="fill: #1f77b4; stroke: #1f77b4"/>
     <use xlink:href="#md406ed5e9a" x="269.095657" y="267.965287" style="fill: #1f77b4; stroke: #1f77b4"/>
     <use xlink:href="#md406ed5e9a" x="270.727087" y="268.537502" style="fill: #1f77b4; stroke: #1f77b4"/>
     <use xlink:href="#md406ed5e9a" x="272.358517" y="269.061318" style="fill: #1f77b4; stroke: #1f77b4"/>
     <use xlink:href="#md406ed5e9a" x="273.989947" y="269.656746" style="fill: #1f77b4; stroke: #1f77b4"/>
     <use xlink:href="#md406ed5e9a" x="275.621376" y="269.962111" style="fill: #1f77b4; stroke: #1f77b4"/>
     <use xlink:href="#md406ed5e9a" x="277.252806" y="269.791793" style="fill: #1f77b4; stroke: #1f77b4"/>
     <use xlink:href="#md406ed5e9a" x="278.884236" y="270.996737" style="fill: #1f77b4; stroke: #1f77b4"/>
     <use xlink:href="#md406ed5e9a" x="280.515666" y="270.61371" style="fill: #1f77b4; stroke: #1f77b4"/>
     <use xlink:href="#md406ed5e9a" x="282.147096" y="270.857075" style="fill: #1f77b4; stroke: #1f77b4"/>
     <use xlink:href="#md406ed5e9a" x="283.778526" y="271.48724" style="fill: #1f77b4; stroke: #1f77b4"/>
     <use xlink:href="#md406ed5e9a" x="285.409956" y="271.733644" style="fill: #1f77b4; stroke: #1f77b4"/>
     <use xlink:href="#md406ed5e9a" x="287.041386" y="273.179657" style="fill: #1f77b4; stroke: #1f77b4"/>
     <use xlink:href="#md406ed5e9a" x="288.672815" y="273.076165" style="fill: #1f77b4; stroke: #1f77b4"/>
     <use xlink:href="#md406ed5e9a" x="290.304245" y="274.049865" style="fill: #1f77b4; stroke: #1f77b4"/>
     <use xlink:href="#md406ed5e9a" x="291.935675" y="273.968026" style="fill: #1f77b4; stroke: #1f77b4"/>
     <use xlink:href="#md406ed5e9a" x="293.567105" y="274.124736" style="fill: #1f77b4; stroke: #1f77b4"/>
     <use xlink:href="#md406ed5e9a" x="295.198535" y="274.467417" style="fill: #1f77b4; stroke: #1f77b4"/>
     <use xlink:href="#md406ed5e9a" x="296.829965" y="275.432988" style="fill: #1f77b4; stroke: #1f77b4"/>
     <use xlink:href="#md406ed5e9a" x="298.461395" y="275.731139" style="fill: #1f77b4; stroke: #1f77b4"/>
     <use xlink:href="#md406ed5e9a" x="300.092825" y="275.817272" style="fill: #1f77b4; stroke: #1f77b4"/>
     <use xlink:href="#md406ed5e9a" x="301.724255" y="276.634675" style="fill: #1f77b4; stroke: #1f77b4"/>
     <use xlink:href="#md406ed5e9a" x="303.355684" y="277.094194" style="fill: #1f77b4; stroke: #1f77b4"/>
     <use xlink:href="#md406ed5e9a" x="304.987114" y="276.656969" style="fill: #1f77b4; stroke: #1f77b4"/>
     <use xlink:href="#md406ed5e9a" x="306.618544" y="277.668549" style="fill: #1f77b4; stroke: #1f77b4"/>
     <use xlink:href="#md406ed5e9a" x="308.249974" y="277.95113" style="fill: #1f77b4; stroke: #1f77b4"/>
     <use xlink:href="#md406ed5e9a" x="309.881404" y="277.320052" style="fill: #1f77b4; stroke: #1f77b4"/>
     <use xlink:href="#md406ed5e9a" x="311.512834" y="279.023499" style="fill: #1f77b4; stroke: #1f77b4"/>
     <use xlink:href="#md406ed5e9a" x="313.144264" y="279.587555" style="fill: #1f77b4; stroke: #1f77b4"/>
     <use xlink:href="#md406ed5e9a" x="314.775694" y="279.266959" style="fill: #1f77b4; stroke: #1f77b4"/>
     <use xlink:href="#md406ed5e9a" x="316.407123" y="279.932848" style="fill: #1f77b4; stroke: #1f77b4"/>
     <use xlink:href="#md406ed5e9a" x="318.038553" y="281.101831" style="fill: #1f77b4; stroke: #1f77b4"/>
     <use xlink:href="#md406ed5e9a" x="319.669983" y="280.50459" style="fill: #1f77b4; stroke: #1f77b4"/>
     <use xlink:href="#md406ed5e9a" x="321.301413" y="281.183569" style="fill: #1f77b4; stroke: #1f77b4"/>
     <use xlink:href="#md406ed5e9a" x="322.932843" y="282.07255" style="fill: #1f77b4; stroke: #1f77b4"/>
     <use xlink:href="#md406ed5e9a" x="324.564273" y="281.825958" style="fill: #1f77b4; stroke: #1f77b4"/>
     <use xlink:href="#md406ed5e9a" x="326.195703" y="282.359435" style="fill: #1f77b4; stroke: #1f77b4"/>
     <use xlink:href="#md406ed5e9a" x="327.827133" y="282.315049" style="fill: #1f77b4; stroke: #1f77b4"/>
     <use xlink:href="#md406ed5e9a" x="329.458562" y="282.864584" style="fill: #1f77b4; stroke: #1f77b4"/>
     <use xlink:href="#md406ed5e9a" x="331.089992" y="282.942775" style="fill: #1f77b4; stroke: #1f77b4"/>
     <use xlink:href="#md406ed5e9a" x="332.721422" y="284.101394" style="fill: #1f77b4; stroke: #1f77b4"/>
     <use xlink:href="#md406ed5e9a" x="334.352852" y="284.117887" style="fill: #1f77b4; stroke: #1f77b4"/>
     <use xlink:href="#md406ed5e9a" x="335.984282" y="284.589901" style="fill: #1f77b4; stroke: #1f77b4"/>
     <use xlink:href="#md406ed5e9a" x="337.615712" y="284.391059" style="fill: #1f77b4; stroke: #1f77b4"/>
     <use xlink:href="#md406ed5e9a" x="339.247142" y="285.571336" style="fill: #1f77b4; stroke: #1f77b4"/>
     <use xlink:href="#md406ed5e9a" x="340.878572" y="285.070344" style="fill: #1f77b4; stroke: #1f77b4"/>
     <use xlink:href="#md406ed5e9a" x="342.510001" y="286.313788" style="fill: #1f77b4; stroke: #1f77b4"/>
     <use xlink:href="#md406ed5e9a" x="344.141431" y="286.576321" style="fill: #1f77b4; stroke: #1f77b4"/>
     <use xlink:href="#md406ed5e9a" x="345.772861" y="286.533535" style="fill: #1f77b4; stroke: #1f77b4"/>
     <use xlink:href="#md406ed5e9a" x="347.404291" y="287.285023" style="fill: #1f77b4; stroke: #1f77b4"/>
     <use xlink:href="#md406ed5e9a" x="349.035721" y="288.208347" style="fill: #1f77b4; stroke: #1f77b4"/>
     <use xlink:href="#md406ed5e9a" x="350.667151" y="287.898443" style="fill: #1f77b4; stroke: #1f77b4"/>
     <use xlink:href="#md406ed5e9a" x="352.298581" y="288.181176" style="fill: #1f77b4; stroke: #1f77b4"/>
     <use xlink:href="#md406ed5e9a" x="353.930011" y="288.037627" style="fill: #1f77b4; stroke: #1f77b4"/>
     <use xlink:href="#md406ed5e9a" x="355.56144" y="289.04969" style="fill: #1f77b4; stroke: #1f77b4"/>
     <use xlink:href="#md406ed5e9a" x="357.19287" y="288.893275" style="fill: #1f77b4; stroke: #1f77b4"/>
     <use xlink:href="#md406ed5e9a" x="358.8243" y="289.376396" style="fill: #1f77b4; stroke: #1f77b4"/>
     <use xlink:href="#md406ed5e9a" x="360.45573" y="290.658623" style="fill: #1f77b4; stroke: #1f77b4"/>
     <use xlink:href="#md406ed5e9a" x="362.08716" y="290.33659" style="fill: #1f77b4; stroke: #1f77b4"/>
     <use xlink:href="#md406ed5e9a" x="363.71859" y="291.104662" style="fill: #1f77b4; stroke: #1f77b4"/>
     <use xlink:href="#md406ed5e9a" x="365.35002" y="291.943639" style="fill: #1f77b4; stroke: #1f77b4"/>
     <use xlink:href="#md406ed5e9a" x="366.98145" y="292.230864" style="fill: #1f77b4; stroke: #1f77b4"/>
     <use xlink:href="#md406ed5e9a" x="368.612879" y="292.202626" style="fill: #1f77b4; stroke: #1f77b4"/>
     <use xlink:href="#md406ed5e9a" x="370.244309" y="292.594145" style="fill: #1f77b4; stroke: #1f77b4"/>
     <use xlink:href="#md406ed5e9a" x="371.875739" y="292.815899" style="fill: #1f77b4; stroke: #1f77b4"/>
     <use xlink:href="#md406ed5e9a" x="373.507169" y="293.682043" style="fill: #1f77b4; stroke: #1f77b4"/>
     <use xlink:href="#md406ed5e9a" x="375.138599" y="294.415086" style="fill: #1f77b4; stroke: #1f77b4"/>
     <use xlink:href="#md406ed5e9a" x="376.770029" y="294.584737" style="fill: #1f77b4; stroke: #1f77b4"/>
     <use xlink:href="#md406ed5e9a" x="378.401459" y="294.883839" style="fill: #1f77b4; stroke: #1f77b4"/>
     <use xlink:href="#md406ed5e9a" x="380.032889" y="294.564363" style="fill: #1f77b4; stroke: #1f77b4"/>
     <use xlink:href="#md406ed5e9a" x="381.664318" y="295.369915" style="fill: #1f77b4; stroke: #1f77b4"/>
     <use xlink:href="#md406ed5e9a" x="383.295748" y="295.471871" style="fill: #1f77b4; stroke: #1f77b4"/>
     <use xlink:href="#md406ed5e9a" x="384.927178" y="296.001759" style="fill: #1f77b4; stroke: #1f77b4"/>
     <use xlink:href="#md406ed5e9a" x="386.558608" y="296.462023" style="fill: #1f77b4; stroke: #1f77b4"/>
     <use xlink:href="#md406ed5e9a" x="388.190038" y="296.498442" style="fill: #1f77b4; stroke: #1f77b4"/>
     <use xlink:href="#md406ed5e9a" x="389.821468" y="296.856534" style="fill: #1f77b4; stroke: #1f77b4"/>
     <use xlink:href="#md406ed5e9a" x="391.452898" y="297.459563" style="fill: #1f77b4; stroke: #1f77b4"/>
    </g>
   </g>
   <g id="line2d_30">
    <path d="M 66.798352 206.425881 
L 391.452898 302.373818 
L 391.452898 302.373818 
" clip-path="url(#p48e82e11d7)" style="fill: none; stroke: #d62728; stroke-width: 1.5; stroke-linecap: square"/>
   </g>
   <g id="patch_9">
    <path d="M 50.565625 307.872 
L 50.565625 186.912 
" style="fill: none; stroke: #000000; stroke-width: 0.8; stroke-linejoin: miter; stroke-linecap: square"/>
   </g>
   <g id="patch_10">
    <path d="M 407.685625 307.872 
L 407.685625 186.912 
" style="fill: none; stroke: #000000; stroke-width: 0.8; stroke-linejoin: miter; stroke-linecap: square"/>
   </g>
   <g id="patch_11">
    <path d="M 50.565625 307.872 
L 407.685625 307.872 
" style="fill: none; stroke: #000000; stroke-width: 0.8; stroke-linejoin: miter; stroke-linecap: square"/>
   </g>
   <g id="patch_12">
    <path d="M 50.565625 186.912 
L 407.685625 186.912 
" style="fill: none; stroke: #000000; stroke-width: 0.8; stroke-linejoin: miter; stroke-linecap: square"/>
   </g>
  </g>
  <g id="text_24">
   <!-- S21 resonator spectroscopy -->
   <g transform="translate(139.58125 16.318125) scale(0.12 -0.12)">
    <defs>
     <path id="DejaVuSans-73" d="M 2834 3397 
L 2834 2853 
Q 2591 2978 2328 3040 
Q 2066 3103 1784 3103 
Q 1356 3103 1142 2972 
Q 928 2841 928 2578 
Q 928 2378 1081 2264 
Q 1234 2150 1697 2047 
L 1894 2003 
Q 2506 1872 2764 1633 
Q 3022 1394 3022 966 
Q 3022 478 2636 193 
Q 2250 -91 1575 -91 
Q 1294 -91 989 -36 
Q 684 19 347 128 
L 347 722 
Q 666 556 975 473 
Q 1284 391 1588 391 
Q 1994 391 2212 530 
Q 2431 669 2431 922 
Q 2431 1156 2273 1281 
Q 2116 1406 1581 1522 
L 1381 1569 
Q 847 1681 609 1914 
Q 372 2147 372 2553 
Q 372 3047 722 3315 
Q 1072 3584 1716 3584 
Q 2034 3584 2315 3537 
Q 2597 3491 2834 3397 
z
" transform="scale(0.015625)"/>
     <path id="DejaVuSans-6f" d="M 1959 3097 
Q 1497 3097 1228 2736 
Q 959 2375 959 1747 
Q 959 1119 1226 758 
Q 1494 397 1959 397 
Q 2419 397 2687 759 
Q 2956 1122 2956 1747 
Q 2956 2369 2687 2733 
Q 2419 3097 1959 3097 
z
M 1959 3584 
Q 2709 3584 3137 3096 
Q 3566 2609 3566 1747 
Q 3566 888 3137 398 
Q 2709 -91 1959 -91 
Q 1206 -91 779 398 
Q 353 888 353 1747 
Q 353 2609 779 3096 
Q 1206 3584 1959 3584 
z
" transform="scale(0.015625)"/>
     <path id="DejaVuSans-74" d="M 1172 4494 
L 1172 3500 
L 2356 3500 
L 2356 3053 
L 1172 3053 
L 1172 1153 
Q 1172 725 1289 603 
Q 1406 481 1766 481 
L 2356 481 
L 2356 0 
L 1766 0 
Q 1100 0 847 248 
Q 594 497 594 1153 
L 594 3053 
L 172 3053 
L 172 3500 
L 594 3500 
L 594 4494 
L 1172 4494 
z
" transform="scale(0.015625)"/>
     <path id="DejaVuSans-70" d="M 1159 525 
L 1159 -1331 
L 581 -1331 
L 581 3500 
L 1159 3500 
L 1159 2969 
Q 1341 3281 1617 3432 
Q 1894 3584 2278 3584 
Q 2916 3584 3314 3078 
Q 3713 2572 3713 1747 
Q 3713 922 3314 415 
Q 2916 -91 2278 -91 
Q 1894 -91 1617 61 
Q 1341 213 1159 525 
z
M 3116 1747 
Q 3116 2381 2855 2742 
Q 2594 3103 2138 3103 
Q 1681 3103 1420 2742 
Q 1159 2381 1159 1747 
Q 1159 1113 1420 752 
Q 1681 391 2138 391 
Q 2594 391 2855 752 
Q 3116 1113 3116 1747 
z
" transform="scale(0.015625)"/>
    </defs>
    <use xlink:href="#DejaVuSans-53"/>
    <use xlink:href="#DejaVuSans-32" x="63.476562"/>
    <use xlink:href="#DejaVuSans-31" x="127.099609"/>
    <use xlink:href="#DejaVuSans-20" x="190.722656"/>
    <use xlink:href="#DejaVuSans-72" x="222.509766"/>
    <use xlink:href="#DejaVuSans-65" x="261.373047"/>
    <use xlink:href="#DejaVuSans-73" x="322.896484"/>
    <use xlink:href="#DejaVuSans-6f" x="374.996094"/>
    <use xlink:href="#DejaVuSans-6e" x="436.177734"/>
    <use xlink:href="#DejaVuSans-61" x="499.556641"/>
    <use xlink:href="#DejaVuSans-74" x="560.835938"/>
    <use xlink:href="#DejaVuSans-6f" x="600.044922"/>
    <use xlink:href="#DejaVuSans-72" x="661.226562"/>
    <use xlink:href="#DejaVuSans-20" x="702.339844"/>
    <use xlink:href="#DejaVuSans-73" x="734.126953"/>
    <use xlink:href="#DejaVuSans-70" x="786.226562"/>
    <use xlink:href="#DejaVuSans-65" x="849.703125"/>
    <use xlink:href="#DejaVuSans-63" x="911.226562"/>
    <use xlink:href="#DejaVuSans-74" x="966.207031"/>
    <use xlink:href="#DejaVuSans-72" x="1005.416016"/>
    <use xlink:href="#DejaVuSans-6f" x="1044.279297"/>
    <use xlink:href="#DejaVuSans-73" x="1105.460938"/>
    <use xlink:href="#DejaVuSans-63" x="1157.560547"/>
    <use xlink:href="#DejaVuSans-6f" x="1212.541016"/>
    <use xlink:href="#DejaVuSans-70" x="1273.722656"/>
    <use xlink:href="#DejaVuSans-79" x="1337.199219"/>
   </g>
   <!-- tuid: 20231227-131139-117-23efe8 -->
   <g transform="translate(115.466875 29.7555) scale(0.12 -0.12)">
    <defs>
     <path id="DejaVuSans-69" d="M 603 3500 
L 1178 3500 
L 1178 0 
L 603 0 
L 603 3500 
z
M 603 4863 
L 1178 4863 
L 1178 4134 
L 603 4134 
L 603 4863 
z
" transform="scale(0.015625)"/>
     <path id="DejaVuSans-2d" d="M 313 2009 
L 1997 2009 
L 1997 1497 
L 313 1497 
L 313 2009 
z
" transform="scale(0.015625)"/>
     <path id="DejaVuSans-66" d="M 2375 4863 
L 2375 4384 
L 1825 4384 
Q 1516 4384 1395 4259 
Q 1275 4134 1275 3809 
L 1275 3500 
L 2222 3500 
L 2222 3053 
L 1275 3053 
L 1275 0 
L 697 0 
L 697 3053 
L 147 3053 
L 147 3500 
L 697 3500 
L 697 3744 
Q 697 4328 969 4595 
Q 1241 4863 1831 4863 
L 2375 4863 
z
" transform="scale(0.015625)"/>
    </defs>
    <use xlink:href="#DejaVuSans-74"/>
    <use xlink:href="#DejaVuSans-75" x="39.208984"/>
    <use xlink:href="#DejaVuSans-69" x="102.587891"/>
    <use xlink:href="#DejaVuSans-64" x="130.371094"/>
    <use xlink:href="#DejaVuSans-3a" x="193.847656"/>
    <use xlink:href="#DejaVuSans-20" x="227.539062"/>
    <use xlink:href="#DejaVuSans-32" x="259.326172"/>
    <use xlink:href="#DejaVuSans-30" x="322.949219"/>
    <use xlink:href="#DejaVuSans-32" x="386.572266"/>
    <use xlink:href="#DejaVuSans-33" x="450.195312"/>
    <use xlink:href="#DejaVuSans-31" x="513.818359"/>
    <use xlink:href="#DejaVuSans-32" x="577.441406"/>
    <use xlink:href="#DejaVuSans-32" x="641.064453"/>
    <use xlink:href="#DejaVuSans-37" x="704.6875"/>
    <use xlink:href="#DejaVuSans-2d" x="768.310547"/>
    <use xlink:href="#DejaVuSans-31" x="804.394531"/>
    <use xlink:href="#DejaVuSans-33" x="868.017578"/>
    <use xlink:href="#DejaVuSans-31" x="931.640625"/>
    <use xlink:href="#DejaVuSans-31" x="995.263672"/>
    <use xlink:href="#DejaVuSans-33" x="1058.886719"/>
    <use xlink:href="#DejaVuSans-39" x="1122.509766"/>
    <use xlink:href="#DejaVuSans-2d" x="1186.132812"/>
    <use xlink:href="#DejaVuSans-31" x="1222.216797"/>
    <use xlink:href="#DejaVuSans-31" x="1285.839844"/>
    <use xlink:href="#DejaVuSans-37" x="1349.462891"/>
    <use xlink:href="#DejaVuSans-2d" x="1413.085938"/>
    <use xlink:href="#DejaVuSans-32" x="1449.169922"/>
    <use xlink:href="#DejaVuSans-33" x="1512.792969"/>
    <use xlink:href="#DejaVuSans-65" x="1576.416016"/>
    <use xlink:href="#DejaVuSans-66" x="1637.939453"/>
    <use xlink:href="#DejaVuSans-65" x="1673.144531"/>
    <use xlink:href="#DejaVuSans-38" x="1734.667969"/>
   </g>
  </g>
 </g>
 <defs>
  <clipPath id="pf58ca824a4">
   <rect x="50.565625" y="41.76" width="357.12" height="120.96"/>
  </clipPath>
  <clipPath id="p48e82e11d7">
   <rect x="50.565625" y="186.912" width="357.12" height="120.96"/>
  </clipPath>
 </defs>
</svg>
