<?xml version="1.0" encoding="utf-8" standalone="no"?>
<!DOCTYPE svg PUBLIC "-//W3C//DTD SVG 1.1//EN"
  "http://www.w3.org/Graphics/SVG/1.1/DTD/svg11.dtd">
<svg xmlns:xlink="http://www.w3.org/1999/xlink" width="559.424437pt" height="345.42825pt" viewBox="0 0 559.424437 345.42825" xmlns="http://www.w3.org/2000/svg" version="1.1">
 <metadata>
  <rdf:RDF xmlns:dc="http://purl.org/dc/elements/1.1/" xmlns:cc="http://creativecommons.org/ns#" xmlns:rdf="http://www.w3.org/1999/02/22-rdf-syntax-ns#">
   <cc:Work>
    <dc:type rdf:resource="http://purl.org/dc/dcmitype/StillImage"/>
    <dc:date>2023-12-25T15:59:24.839351</dc:date>
    <dc:format>image/svg+xml</dc:format>
    <dc:creator>
     <cc:Agent>
      <dc:title>Matplotlib v3.8.2, https://matplotlib.org/</dc:title>
     </cc:Agent>
    </dc:creator>
   </cc:Work>
  </rdf:RDF>
 </metadata>
 <defs>
  <style type="text/css">*{stroke-linejoin: round; stroke-linecap: butt}</style>
 </defs>
 <g id="figure_1">
  <g id="patch_1">
   <path d="M 0 345.42825 
L 559.424437 345.42825 
L 559.424437 -0 
L 0 -0 
L 0 345.42825 
z
" style="fill: none; opacity: 0"/>
  </g>
  <g id="axes_1">
   <g id="patch_2">
    <path d="M 37.848438 307.872 
L 394.968438 307.872 
L 394.968438 41.76 
L 37.848438 41.76 
z
" style="fill: #ffffff"/>
   </g>
   <g id="matplotlib.axis_1">
    <g id="xtick_1">
     <g id="line2d_1">
      <defs>
       <path id="mfa38a8608e" d="M 0 0 
L 0 3.5 
" style="stroke: #000000; stroke-width: 0.8"/>
      </defs>
      <g>
       <use xlink:href="#mfa38a8608e" x="47.613756" y="307.872" style="stroke: #000000; stroke-width: 0.8"/>
      </g>
     </g>
     <g id="text_1">
      <!-- -8 -->
      <g transform="translate(42.6286 322.470438) scale(0.1 -0.1)">
       <defs>
        <path id="DejaVuSans-2d" d="M 313 2009 
L 1997 2009 
L 1997 1497 
L 313 1497 
L 313 2009 
z
" transform="scale(0.015625)"/>
        <path id="DejaVuSans-38" d="M 2034 2216 
Q 1584 2216 1326 1975 
Q 1069 1734 1069 1313 
Q 1069 891 1326 650 
Q 1584 409 2034 409 
Q 2484 409 2743 651 
Q 3003 894 3003 1313 
Q 3003 1734 2745 1975 
Q 2488 2216 2034 2216 
z
M 1403 2484 
Q 997 2584 770 2862 
Q 544 3141 544 3541 
Q 544 4100 942 4425 
Q 1341 4750 2034 4750 
Q 2731 4750 3128 4425 
Q 3525 4100 3525 3541 
Q 3525 3141 3298 2862 
Q 3072 2584 2669 2484 
Q 3125 2378 3379 2068 
Q 3634 1759 3634 1313 
Q 3634 634 3220 271 
Q 2806 -91 2034 -91 
Q 1263 -91 848 271 
Q 434 634 434 1313 
Q 434 1759 690 2068 
Q 947 2378 1403 2484 
z
M 1172 3481 
Q 1172 3119 1398 2916 
Q 1625 2713 2034 2713 
Q 2441 2713 2670 2916 
Q 2900 3119 2900 3481 
Q 2900 3844 2670 4047 
Q 2441 4250 2034 4250 
Q 1625 4250 1398 4047 
Q 1172 3844 1172 3481 
z
" transform="scale(0.015625)"/>
       </defs>
       <use xlink:href="#DejaVuSans-2d"/>
       <use xlink:href="#DejaVuSans-38" x="36.083984"/>
      </g>
     </g>
    </g>
    <g id="xtick_2">
     <g id="line2d_2">
      <g>
       <use xlink:href="#mfa38a8608e" x="94.35868" y="307.872" style="stroke: #000000; stroke-width: 0.8"/>
      </g>
     </g>
     <g id="text_2">
      <!-- -7 -->
      <g transform="translate(89.373524 322.470438) scale(0.1 -0.1)">
       <defs>
        <path id="DejaVuSans-37" d="M 525 4666 
L 3525 4666 
L 3525 4397 
L 1831 0 
L 1172 0 
L 2766 4134 
L 525 4134 
L 525 4666 
z
" transform="scale(0.015625)"/>
       </defs>
       <use xlink:href="#DejaVuSans-2d"/>
       <use xlink:href="#DejaVuSans-37" x="36.083984"/>
      </g>
     </g>
    </g>
    <g id="xtick_3">
     <g id="line2d_3">
      <g>
       <use xlink:href="#mfa38a8608e" x="141.103604" y="307.872" style="stroke: #000000; stroke-width: 0.8"/>
      </g>
     </g>
     <g id="text_3">
      <!-- -6 -->
      <g transform="translate(136.118447 322.470438) scale(0.1 -0.1)">
       <defs>
        <path id="DejaVuSans-36" d="M 2113 2584 
Q 1688 2584 1439 2293 
Q 1191 2003 1191 1497 
Q 1191 994 1439 701 
Q 1688 409 2113 409 
Q 2538 409 2786 701 
Q 3034 994 3034 1497 
Q 3034 2003 2786 2293 
Q 2538 2584 2113 2584 
z
M 3366 4563 
L 3366 3988 
Q 3128 4100 2886 4159 
Q 2644 4219 2406 4219 
Q 1781 4219 1451 3797 
Q 1122 3375 1075 2522 
Q 1259 2794 1537 2939 
Q 1816 3084 2150 3084 
Q 2853 3084 3261 2657 
Q 3669 2231 3669 1497 
Q 3669 778 3244 343 
Q 2819 -91 2113 -91 
Q 1303 -91 875 529 
Q 447 1150 447 2328 
Q 447 3434 972 4092 
Q 1497 4750 2381 4750 
Q 2619 4750 2861 4703 
Q 3103 4656 3366 4563 
z
" transform="scale(0.015625)"/>
       </defs>
       <use xlink:href="#DejaVuSans-2d"/>
       <use xlink:href="#DejaVuSans-36" x="36.083984"/>
      </g>
     </g>
    </g>
    <g id="xtick_4">
     <g id="line2d_4">
      <g>
       <use xlink:href="#mfa38a8608e" x="187.848527" y="307.872" style="stroke: #000000; stroke-width: 0.8"/>
      </g>
     </g>
     <g id="text_4">
      <!-- -5 -->
      <g transform="translate(182.863371 322.470438) scale(0.1 -0.1)">
       <defs>
        <path id="DejaVuSans-35" d="M 691 4666 
L 3169 4666 
L 3169 4134 
L 1269 4134 
L 1269 2991 
Q 1406 3038 1543 3061 
Q 1681 3084 1819 3084 
Q 2600 3084 3056 2656 
Q 3513 2228 3513 1497 
Q 3513 744 3044 326 
Q 2575 -91 1722 -91 
Q 1428 -91 1123 -41 
Q 819 9 494 109 
L 494 744 
Q 775 591 1075 516 
Q 1375 441 1709 441 
Q 2250 441 2565 725 
Q 2881 1009 2881 1497 
Q 2881 1984 2565 2268 
Q 2250 2553 1709 2553 
Q 1456 2553 1204 2497 
Q 953 2441 691 2322 
L 691 4666 
z
" transform="scale(0.015625)"/>
       </defs>
       <use xlink:href="#DejaVuSans-2d"/>
       <use xlink:href="#DejaVuSans-35" x="36.083984"/>
      </g>
     </g>
    </g>
    <g id="xtick_5">
     <g id="line2d_5">
      <g>
       <use xlink:href="#mfa38a8608e" x="234.593451" y="307.872" style="stroke: #000000; stroke-width: 0.8"/>
      </g>
     </g>
     <g id="text_5">
      <!-- -4 -->
      <g transform="translate(229.608295 322.470438) scale(0.1 -0.1)">
       <defs>
        <path id="DejaVuSans-34" d="M 2419 4116 
L 825 1625 
L 2419 1625 
L 2419 4116 
z
M 2253 4666 
L 3047 4666 
L 3047 1625 
L 3713 1625 
L 3713 1100 
L 3047 1100 
L 3047 0 
L 2419 0 
L 2419 1100 
L 313 1100 
L 313 1709 
L 2253 4666 
z
" transform="scale(0.015625)"/>
       </defs>
       <use xlink:href="#DejaVuSans-2d"/>
       <use xlink:href="#DejaVuSans-34" x="36.083984"/>
      </g>
     </g>
    </g>
    <g id="xtick_6">
     <g id="line2d_6">
      <g>
       <use xlink:href="#mfa38a8608e" x="281.338375" y="307.872" style="stroke: #000000; stroke-width: 0.8"/>
      </g>
     </g>
     <g id="text_6">
      <!-- -3 -->
      <g transform="translate(276.353218 322.470438) scale(0.1 -0.1)">
       <defs>
        <path id="DejaVuSans-33" d="M 2597 2516 
Q 3050 2419 3304 2112 
Q 3559 1806 3559 1356 
Q 3559 666 3084 287 
Q 2609 -91 1734 -91 
Q 1441 -91 1130 -33 
Q 819 25 488 141 
L 488 750 
Q 750 597 1062 519 
Q 1375 441 1716 441 
Q 2309 441 2620 675 
Q 2931 909 2931 1356 
Q 2931 1769 2642 2001 
Q 2353 2234 1838 2234 
L 1294 2234 
L 1294 2753 
L 1863 2753 
Q 2328 2753 2575 2939 
Q 2822 3125 2822 3475 
Q 2822 3834 2567 4026 
Q 2313 4219 1838 4219 
Q 1578 4219 1281 4162 
Q 984 4106 628 3988 
L 628 4550 
Q 988 4650 1302 4700 
Q 1616 4750 1894 4750 
Q 2613 4750 3031 4423 
Q 3450 4097 3450 3541 
Q 3450 3153 3228 2886 
Q 3006 2619 2597 2516 
z
" transform="scale(0.015625)"/>
       </defs>
       <use xlink:href="#DejaVuSans-2d"/>
       <use xlink:href="#DejaVuSans-33" x="36.083984"/>
      </g>
     </g>
    </g>
    <g id="xtick_7">
     <g id="line2d_7">
      <g>
       <use xlink:href="#mfa38a8608e" x="328.083298" y="307.872" style="stroke: #000000; stroke-width: 0.8"/>
      </g>
     </g>
     <g id="text_7">
      <!-- -2 -->
      <g transform="translate(323.098142 322.470438) scale(0.1 -0.1)">
       <defs>
        <path id="DejaVuSans-32" d="M 1228 531 
L 3431 531 
L 3431 0 
L 469 0 
L 469 531 
Q 828 903 1448 1529 
Q 2069 2156 2228 2338 
Q 2531 2678 2651 2914 
Q 2772 3150 2772 3378 
Q 2772 3750 2511 3984 
Q 2250 4219 1831 4219 
Q 1534 4219 1204 4116 
Q 875 4013 500 3803 
L 500 4441 
Q 881 4594 1212 4672 
Q 1544 4750 1819 4750 
Q 2544 4750 2975 4387 
Q 3406 4025 3406 3419 
Q 3406 3131 3298 2873 
Q 3191 2616 2906 2266 
Q 2828 2175 2409 1742 
Q 1991 1309 1228 531 
z
" transform="scale(0.015625)"/>
       </defs>
       <use xlink:href="#DejaVuSans-2d"/>
       <use xlink:href="#DejaVuSans-32" x="36.083984"/>
      </g>
     </g>
    </g>
    <g id="xtick_8">
     <g id="line2d_8">
      <g>
       <use xlink:href="#mfa38a8608e" x="374.828222" y="307.872" style="stroke: #000000; stroke-width: 0.8"/>
      </g>
     </g>
     <g id="text_8">
      <!-- -1 -->
      <g transform="translate(369.843066 322.470438) scale(0.1 -0.1)">
       <defs>
        <path id="DejaVuSans-31" d="M 794 531 
L 1825 531 
L 1825 4091 
L 703 3866 
L 703 4441 
L 1819 4666 
L 2450 4666 
L 2450 531 
L 3481 531 
L 3481 0 
L 794 0 
L 794 531 
z
" transform="scale(0.015625)"/>
       </defs>
       <use xlink:href="#DejaVuSans-2d"/>
       <use xlink:href="#DejaVuSans-31" x="36.083984"/>
      </g>
     </g>
    </g>
    <g id="text_9">
     <!-- Re$(S_{21})$ [mV] -->
     <g transform="translate(184.408438 336.148562) scale(0.1 -0.1)">
      <defs>
       <path id="DejaVuSans-52" d="M 2841 2188 
Q 3044 2119 3236 1894 
Q 3428 1669 3622 1275 
L 4263 0 
L 3584 0 
L 2988 1197 
Q 2756 1666 2539 1819 
Q 2322 1972 1947 1972 
L 1259 1972 
L 1259 0 
L 628 0 
L 628 4666 
L 2053 4666 
Q 2853 4666 3247 4331 
Q 3641 3997 3641 3322 
Q 3641 2881 3436 2590 
Q 3231 2300 2841 2188 
z
M 1259 4147 
L 1259 2491 
L 2053 2491 
Q 2509 2491 2742 2702 
Q 2975 2913 2975 3322 
Q 2975 3731 2742 3939 
Q 2509 4147 2053 4147 
L 1259 4147 
z
" transform="scale(0.015625)"/>
       <path id="DejaVuSans-65" d="M 3597 1894 
L 3597 1613 
L 953 1613 
Q 991 1019 1311 708 
Q 1631 397 2203 397 
Q 2534 397 2845 478 
Q 3156 559 3463 722 
L 3463 178 
Q 3153 47 2828 -22 
Q 2503 -91 2169 -91 
Q 1331 -91 842 396 
Q 353 884 353 1716 
Q 353 2575 817 3079 
Q 1281 3584 2069 3584 
Q 2775 3584 3186 3129 
Q 3597 2675 3597 1894 
z
M 3022 2063 
Q 3016 2534 2758 2815 
Q 2500 3097 2075 3097 
Q 1594 3097 1305 2825 
Q 1016 2553 972 2059 
L 3022 2063 
z
" transform="scale(0.015625)"/>
       <path id="DejaVuSans-28" d="M 1984 4856 
Q 1566 4138 1362 3434 
Q 1159 2731 1159 2009 
Q 1159 1288 1364 580 
Q 1569 -128 1984 -844 
L 1484 -844 
Q 1016 -109 783 600 
Q 550 1309 550 2009 
Q 550 2706 781 3412 
Q 1013 4119 1484 4856 
L 1984 4856 
z
" transform="scale(0.015625)"/>
       <path id="DejaVuSans-Oblique-53" d="M 3859 4513 
L 3738 3897 
Q 3422 4066 3111 4152 
Q 2800 4238 2509 4238 
Q 1944 4238 1609 3991 
Q 1275 3744 1275 3334 
Q 1275 3109 1398 2989 
Q 1522 2869 2034 2731 
L 2413 2638 
Q 3053 2472 3303 2217 
Q 3553 1963 3553 1503 
Q 3553 797 2998 353 
Q 2444 -91 1538 -91 
Q 1166 -91 791 -17 
Q 416 56 38 206 
L 166 856 
Q 513 641 861 531 
Q 1209 422 1556 422 
Q 2147 422 2503 684 
Q 2859 947 2859 1369 
Q 2859 1650 2717 1795 
Q 2575 1941 2106 2059 
L 1728 2156 
Q 1081 2325 845 2545 
Q 609 2766 609 3163 
Q 609 3859 1145 4304 
Q 1681 4750 2541 4750 
Q 2875 4750 3203 4690 
Q 3531 4631 3859 4513 
z
" transform="scale(0.015625)"/>
       <path id="DejaVuSans-29" d="M 513 4856 
L 1013 4856 
Q 1481 4119 1714 3412 
Q 1947 2706 1947 2009 
Q 1947 1309 1714 600 
Q 1481 -109 1013 -844 
L 513 -844 
Q 928 -128 1133 580 
Q 1338 1288 1338 2009 
Q 1338 2731 1133 3434 
Q 928 4138 513 4856 
z
" transform="scale(0.015625)"/>
       <path id="DejaVuSans-20" transform="scale(0.015625)"/>
       <path id="DejaVuSans-5b" d="M 550 4863 
L 1875 4863 
L 1875 4416 
L 1125 4416 
L 1125 -397 
L 1875 -397 
L 1875 -844 
L 550 -844 
L 550 4863 
z
" transform="scale(0.015625)"/>
       <path id="DejaVuSans-6d" d="M 3328 2828 
Q 3544 3216 3844 3400 
Q 4144 3584 4550 3584 
Q 5097 3584 5394 3201 
Q 5691 2819 5691 2113 
L 5691 0 
L 5113 0 
L 5113 2094 
Q 5113 2597 4934 2840 
Q 4756 3084 4391 3084 
Q 3944 3084 3684 2787 
Q 3425 2491 3425 1978 
L 3425 0 
L 2847 0 
L 2847 2094 
Q 2847 2600 2669 2842 
Q 2491 3084 2119 3084 
Q 1678 3084 1418 2786 
Q 1159 2488 1159 1978 
L 1159 0 
L 581 0 
L 581 3500 
L 1159 3500 
L 1159 2956 
Q 1356 3278 1631 3431 
Q 1906 3584 2284 3584 
Q 2666 3584 2933 3390 
Q 3200 3197 3328 2828 
z
" transform="scale(0.015625)"/>
       <path id="DejaVuSans-56" d="M 1831 0 
L 50 4666 
L 709 4666 
L 2188 738 
L 3669 4666 
L 4325 4666 
L 2547 0 
L 1831 0 
z
" transform="scale(0.015625)"/>
       <path id="DejaVuSans-5d" d="M 1947 4863 
L 1947 -844 
L 622 -844 
L 622 -397 
L 1369 -397 
L 1369 4416 
L 622 4416 
L 622 4863 
L 1947 4863 
z
" transform="scale(0.015625)"/>
      </defs>
      <use xlink:href="#DejaVuSans-52" transform="translate(0 0.015625)"/>
      <use xlink:href="#DejaVuSans-65" transform="translate(69.482422 0.015625)"/>
      <use xlink:href="#DejaVuSans-28" transform="translate(131.005859 0.015625)"/>
      <use xlink:href="#DejaVuSans-Oblique-53" transform="translate(170.019531 0.015625)"/>
      <use xlink:href="#DejaVuSans-32" transform="translate(233.496094 -16.390625) scale(0.7)"/>
      <use xlink:href="#DejaVuSans-31" transform="translate(278.032227 -16.390625) scale(0.7)"/>
      <use xlink:href="#DejaVuSans-29" transform="translate(325.302734 0.015625)"/>
      <use xlink:href="#DejaVuSans-20" transform="translate(364.316406 0.015625)"/>
      <use xlink:href="#DejaVuSans-5b" transform="translate(396.103516 0.015625)"/>
      <use xlink:href="#DejaVuSans-6d" transform="translate(435.117188 0.015625)"/>
      <use xlink:href="#DejaVuSans-56" transform="translate(532.529297 0.015625)"/>
      <use xlink:href="#DejaVuSans-5d" transform="translate(600.9375 0.015625)"/>
     </g>
    </g>
   </g>
   <g id="matplotlib.axis_2">
    <g id="ytick_1">
     <g id="line2d_9">
      <defs>
       <path id="mc0778f2b9b" d="M 0 0 
L -3.5 0 
" style="stroke: #000000; stroke-width: 0.8"/>
      </defs>
      <g>
       <use xlink:href="#mc0778f2b9b" x="37.848438" y="277.620147" style="stroke: #000000; stroke-width: 0.8"/>
      </g>
     </g>
     <g id="text_10">
      <!-- -4 -->
      <g transform="translate(20.878125 281.419366) scale(0.1 -0.1)">
       <use xlink:href="#DejaVuSans-2d"/>
       <use xlink:href="#DejaVuSans-34" x="36.083984"/>
      </g>
     </g>
    </g>
    <g id="ytick_2">
     <g id="line2d_10">
      <g>
       <use xlink:href="#mc0778f2b9b" x="37.848438" y="221.914751" style="stroke: #000000; stroke-width: 0.8"/>
      </g>
     </g>
     <g id="text_11">
      <!-- -2 -->
      <g transform="translate(20.878125 225.71397) scale(0.1 -0.1)">
       <use xlink:href="#DejaVuSans-2d"/>
       <use xlink:href="#DejaVuSans-32" x="36.083984"/>
      </g>
     </g>
    </g>
    <g id="ytick_3">
     <g id="line2d_11">
      <g>
       <use xlink:href="#mc0778f2b9b" x="37.848438" y="166.209355" style="stroke: #000000; stroke-width: 0.8"/>
      </g>
     </g>
     <g id="text_12">
      <!-- 0 -->
      <g transform="translate(24.485938 170.008574) scale(0.1 -0.1)">
       <defs>
        <path id="DejaVuSans-30" d="M 2034 4250 
Q 1547 4250 1301 3770 
Q 1056 3291 1056 2328 
Q 1056 1369 1301 889 
Q 1547 409 2034 409 
Q 2525 409 2770 889 
Q 3016 1369 3016 2328 
Q 3016 3291 2770 3770 
Q 2525 4250 2034 4250 
z
M 2034 4750 
Q 2819 4750 3233 4129 
Q 3647 3509 3647 2328 
Q 3647 1150 3233 529 
Q 2819 -91 2034 -91 
Q 1250 -91 836 529 
Q 422 1150 422 2328 
Q 422 3509 836 4129 
Q 1250 4750 2034 4750 
z
" transform="scale(0.015625)"/>
       </defs>
       <use xlink:href="#DejaVuSans-30"/>
      </g>
     </g>
    </g>
    <g id="ytick_4">
     <g id="line2d_12">
      <g>
       <use xlink:href="#mc0778f2b9b" x="37.848438" y="110.503959" style="stroke: #000000; stroke-width: 0.8"/>
      </g>
     </g>
     <g id="text_13">
      <!-- 2 -->
      <g transform="translate(24.485938 114.303178) scale(0.1 -0.1)">
       <use xlink:href="#DejaVuSans-32"/>
      </g>
     </g>
    </g>
    <g id="ytick_5">
     <g id="line2d_13">
      <g>
       <use xlink:href="#mc0778f2b9b" x="37.848438" y="54.798563" style="stroke: #000000; stroke-width: 0.8"/>
      </g>
     </g>
     <g id="text_14">
      <!-- 4 -->
      <g transform="translate(24.485938 58.597782) scale(0.1 -0.1)">
       <use xlink:href="#DejaVuSans-34"/>
      </g>
     </g>
    </g>
    <g id="text_15">
     <!-- Im$(S_{21})$ [mV] -->
     <g transform="translate(14.798438 206.466) rotate(-90) scale(0.1 -0.1)">
      <defs>
       <path id="DejaVuSans-49" d="M 628 4666 
L 1259 4666 
L 1259 0 
L 628 0 
L 628 4666 
z
" transform="scale(0.015625)"/>
      </defs>
      <use xlink:href="#DejaVuSans-49" transform="translate(0 0.015625)"/>
      <use xlink:href="#DejaVuSans-6d" transform="translate(25.867188 0.015625)"/>
      <use xlink:href="#DejaVuSans-28" transform="translate(123.279297 0.015625)"/>
      <use xlink:href="#DejaVuSans-Oblique-53" transform="translate(162.292969 0.015625)"/>
      <use xlink:href="#DejaVuSans-32" transform="translate(225.769531 -16.390625) scale(0.7)"/>
      <use xlink:href="#DejaVuSans-31" transform="translate(270.305664 -16.390625) scale(0.7)"/>
      <use xlink:href="#DejaVuSans-29" transform="translate(317.576172 0.015625)"/>
      <use xlink:href="#DejaVuSans-20" transform="translate(356.589844 0.015625)"/>
      <use xlink:href="#DejaVuSans-5b" transform="translate(388.376953 0.015625)"/>
      <use xlink:href="#DejaVuSans-6d" transform="translate(427.390625 0.015625)"/>
      <use xlink:href="#DejaVuSans-56" transform="translate(524.802734 0.015625)"/>
      <use xlink:href="#DejaVuSans-5d" transform="translate(593.210938 0.015625)"/>
     </g>
    </g>
   </g>
   <g id="line2d_14">
    <path d="M 106.588987 289.931363 
L 102.638441 295.776 
L 97.553918 289.62594 
L 96.694378 287.901471 
L 96.802671 286.762387 
L 98.994656 285.129022 
L 95.16179 283.078236 
L 92.166289 278.372078 
L 84.509083 278.632931 
L 89.182053 277.00912 
L 86.932877 277.378857 
L 82.853943 273.681975 
L 83.410731 274.53018 
L 81.723621 268.578596 
L 80.888641 267.484232 
L 78.140477 264.311779 
L 82.043779 266.035039 
L 74.119343 263.308369 
L 72.437815 259.896984 
L 69.485397 259.267301 
L 79.790695 256.885814 
L 69.504072 252.356633 
L 74.809797 252.455628 
L 65.747326 248.103121 
L 71.44537 245.914062 
L 66.681615 242.25794 
L 69.936531 244.702652 
L 62.278057 240.285437 
L 68.313108 236.761783 
L 65.242552 234.177528 
L 62.036099 235.54623 
L 64.517541 228.552441 
L 65.949955 229.370106 
L 61.314182 226.925939 
L 57.655833 226.999293 
L 64.641311 220.737478 
L 59.245815 219.540461 
L 61.669965 220.192398 
L 56.252141 213.945369 
L 58.53618 211.3147 
L 57.514099 213.049753 
L 58.202726 207.823944 
L 54.081165 204.685114 
L 58.949965 202.475131 
L 56.402096 201.255799 
L 58.007353 196.23808 
L 58.398657 194.450385 
L 55.693171 189.049323 
L 59.554048 189.781328 
L 57.537493 185.894952 
L 63.095833 184.022806 
L 59.849036 180.860784 
L 63.411475 179.688047 
L 63.175961 171.691875 
L 62.662003 169.025739 
L 64.58417 169.51095 
L 63.217117 164.062446 
L 70.432931 161.001053 
L 70.911621 156.50988 
L 65.01597 155.287765 
L 68.627481 152.758723 
L 70.472107 152.151687 
L 67.333603 147.199492 
L 73.566818 139.909321 
L 81.825062 134.526703 
L 78.726698 135.35084 
L 83.512985 131.749144 
L 86.489101 126.31213 
L 96.214369 125.137912 
L 95.446629 120.628565 
L 100.684963 115.634159 
L 109.160503 110.71976 
L 107.905396 108.88925 
L 117.10813 105.929332 
L 122.897873 102.072013 
L 130.159258 97.404196 
L 139.923804 97.718599 
L 147.590397 90.475688 
L 157.524131 87.502949 
L 161.975289 86.702398 
L 172.644032 81.986352 
L 185.306038 79.62836 
L 205.875327 76.939636 
L 211.433159 78.636802 
L 233.246391 77.075158 
L 244.538958 76.141383 
L 288.389213 83.995079 
L 306.577741 93.208376 
L 326.780642 98.083255 
L 337.816686 107.02941 
L 356.374951 111.975951 
L 363.220014 122.495813 
L 370.224825 144.318462 
L 377.641646 151.440274 
L 375.670001 164.068947 
L 377.826768 178.280369 
L 377.044058 187.872534 
L 361.063348 202.629249 
L 352.547921 210.14284 
L 344.409032 220.621278 
L 328.492618 228.83183 
L 315.792096 234.752512 
L 303.19672 243.293946 
L 285.675404 246.84179 
L 266.212283 245.398704 
L 240.138293 246.557291 
L 225.756293 250.270107 
L 217.26629 247.177147 
L 207.131144 247.953327 
L 193.221288 244.226179 
L 183.353575 239.9118 
L 171.796874 240.832483 
L 170.951238 238.500101 
L 160.274071 234.515092 
L 144.64686 228.182311 
L 144.797221 231.239955 
L 137.675592 224.22757 
L 128.899076 223.873073 
L 126.675729 216.738531 
L 121.020312 213.713755 
L 120.700559 214.513853 
L 111.1085 212.650233 
L 117.429912 206.022159 
L 109.947933 204.444701 
L 108.076461 202.096475 
L 101.575205 201.476558 
L 96.901575 191.39383 
L 101.383435 193.817044 
L 94.596832 187.411271 
L 93.752465 184.714474 
L 95.962414 182.259149 
L 90.245137 179.833033 
L 85.664322 179.82245 
L 95.293477 174.711118 
L 87.272826 173.254366 
L 93.210545 171.793774 
L 90.372561 168.096892 
L 86.115304 165.501873 
L 87.632567 162.272 
L 90.969489 160.075835 
L 90.318871 157.472531 
L 89.73874 155.666482 
L 86.435411 153.575935 
L 86.538579 150.599054 
L 81.676021 152.584589 
L 89.758277 148.561452 
L 88.245429 141.111116 
L 89.642322 141.075829 
L 84.802498 137.692081 
L 90.918286 138.124287 
L 87.206602 135.893229 
L 87.453331 133.001313 
L 88.944459 128.94679 
L 87.838749 127.955081 
L 89.929241 123.471799 
L 92.234746 123.025654 
L 91.408393 121.189973 
L 93.449763 121.30566 
L 99.884238 118.262167 
L 94.285402 115.915453 
L 96.976172 114.322635 
L 97.567874 113.018065 
L 98.959742 106.798218 
L 99.231742 109.697209 
L 100.700187 108.378851 
L 103.596733 104.331373 
L 102.493256 103.835368 
L 101.874912 102.476764 
L 101.386378 102.97915 
L 104.016456 98.252249 
L 106.669724 95.813373 
L 109.233172 94.259591 
L 108.115384 95.006442 
L 110.015172 91.902657 
L 110.775199 89.897559 
L 111.675336 89.17526 
L 106.259187 89.910984 
L 111.434849 85.310806 
L 111.696751 85.260431 
L 118.930022 83.019728 
L 118.838222 80.913185 
L 119.894709 76.813639 
L 125.529676 76.348505 
L 125.488673 76.525694 
L 125.635583 77.392161 
L 127.763425 75.749785 
L 130.534729 72.541411 
L 129.800177 71.712981 
L 126.857198 71.057264 
L 127.811735 66.88515 
L 136.654222 69.328561 
L 135.239162 65.016511 
L 133.940717 64.180552 
L 135.032523 63.797299 
L 134.811828 61.777809 
L 137.003559 59.604291 
L 137.003559 59.604291 
" clip-path="url(#pe08bbe9ae4)" style="fill: none; stroke: #1f77b4; stroke-width: 1.5; stroke-linecap: square"/>
    <defs>
     <path id="m40c24f3404" d="M 0 1.5 
C 0.397805 1.5 0.77937 1.341951 1.06066 1.06066 
C 1.341951 0.77937 1.5 0.397805 1.5 0 
C 1.5 -0.397805 1.341951 -0.77937 1.06066 -1.06066 
C 0.77937 -1.341951 0.397805 -1.5 0 -1.5 
C -0.397805 -1.5 -0.77937 -1.341951 -1.06066 -1.06066 
C -1.341951 -0.77937 -1.5 -0.397805 -1.5 0 
C -1.5 0.397805 -1.341951 0.77937 -1.06066 1.06066 
C -0.77937 1.341951 -0.397805 1.5 0 1.5 
z
" style="stroke: #1f77b4"/>
    </defs>
    <g clip-path="url(#pe08bbe9ae4)">
     <use xlink:href="#m40c24f3404" x="106.588987" y="289.931363" style="fill: #1f77b4; stroke: #1f77b4"/>
     <use xlink:href="#m40c24f3404" x="102.638441" y="295.776" style="fill: #1f77b4; stroke: #1f77b4"/>
     <use xlink:href="#m40c24f3404" x="97.553918" y="289.62594" style="fill: #1f77b4; stroke: #1f77b4"/>
     <use xlink:href="#m40c24f3404" x="96.694378" y="287.901471" style="fill: #1f77b4; stroke: #1f77b4"/>
     <use xlink:href="#m40c24f3404" x="96.802671" y="286.762387" style="fill: #1f77b4; stroke: #1f77b4"/>
     <use xlink:href="#m40c24f3404" x="98.994656" y="285.129022" style="fill: #1f77b4; stroke: #1f77b4"/>
     <use xlink:href="#m40c24f3404" x="95.16179" y="283.078236" style="fill: #1f77b4; stroke: #1f77b4"/>
     <use xlink:href="#m40c24f3404" x="92.166289" y="278.372078" style="fill: #1f77b4; stroke: #1f77b4"/>
     <use xlink:href="#m40c24f3404" x="84.509083" y="278.632931" style="fill: #1f77b4; stroke: #1f77b4"/>
     <use xlink:href="#m40c24f3404" x="89.182053" y="277.00912" style="fill: #1f77b4; stroke: #1f77b4"/>
     <use xlink:href="#m40c24f3404" x="86.932877" y="277.378857" style="fill: #1f77b4; stroke: #1f77b4"/>
     <use xlink:href="#m40c24f3404" x="82.853943" y="273.681975" style="fill: #1f77b4; stroke: #1f77b4"/>
     <use xlink:href="#m40c24f3404" x="83.410731" y="274.53018" style="fill: #1f77b4; stroke: #1f77b4"/>
     <use xlink:href="#m40c24f3404" x="81.723621" y="268.578596" style="fill: #1f77b4; stroke: #1f77b4"/>
     <use xlink:href="#m40c24f3404" x="80.888641" y="267.484232" style="fill: #1f77b4; stroke: #1f77b4"/>
     <use xlink:href="#m40c24f3404" x="78.140477" y="264.311779" style="fill: #1f77b4; stroke: #1f77b4"/>
     <use xlink:href="#m40c24f3404" x="82.043779" y="266.035039" style="fill: #1f77b4; stroke: #1f77b4"/>
     <use xlink:href="#m40c24f3404" x="74.119343" y="263.308369" style="fill: #1f77b4; stroke: #1f77b4"/>
     <use xlink:href="#m40c24f3404" x="72.437815" y="259.896984" style="fill: #1f77b4; stroke: #1f77b4"/>
     <use xlink:href="#m40c24f3404" x="69.485397" y="259.267301" style="fill: #1f77b4; stroke: #1f77b4"/>
     <use xlink:href="#m40c24f3404" x="79.790695" y="256.885814" style="fill: #1f77b4; stroke: #1f77b4"/>
     <use xlink:href="#m40c24f3404" x="69.504072" y="252.356633" style="fill: #1f77b4; stroke: #1f77b4"/>
     <use xlink:href="#m40c24f3404" x="74.809797" y="252.455628" style="fill: #1f77b4; stroke: #1f77b4"/>
     <use xlink:href="#m40c24f3404" x="65.747326" y="248.103121" style="fill: #1f77b4; stroke: #1f77b4"/>
     <use xlink:href="#m40c24f3404" x="71.44537" y="245.914062" style="fill: #1f77b4; stroke: #1f77b4"/>
     <use xlink:href="#m40c24f3404" x="66.681615" y="242.25794" style="fill: #1f77b4; stroke: #1f77b4"/>
     <use xlink:href="#m40c24f3404" x="69.936531" y="244.702652" style="fill: #1f77b4; stroke: #1f77b4"/>
     <use xlink:href="#m40c24f3404" x="62.278057" y="240.285437" style="fill: #1f77b4; stroke: #1f77b4"/>
     <use xlink:href="#m40c24f3404" x="68.313108" y="236.761783" style="fill: #1f77b4; stroke: #1f77b4"/>
     <use xlink:href="#m40c24f3404" x="65.242552" y="234.177528" style="fill: #1f77b4; stroke: #1f77b4"/>
     <use xlink:href="#m40c24f3404" x="62.036099" y="235.54623" style="fill: #1f77b4; stroke: #1f77b4"/>
     <use xlink:href="#m40c24f3404" x="64.517541" y="228.552441" style="fill: #1f77b4; stroke: #1f77b4"/>
     <use xlink:href="#m40c24f3404" x="65.949955" y="229.370106" style="fill: #1f77b4; stroke: #1f77b4"/>
     <use xlink:href="#m40c24f3404" x="61.314182" y="226.925939" style="fill: #1f77b4; stroke: #1f77b4"/>
     <use xlink:href="#m40c24f3404" x="57.655833" y="226.999293" style="fill: #1f77b4; stroke: #1f77b4"/>
     <use xlink:href="#m40c24f3404" x="64.641311" y="220.737478" style="fill: #1f77b4; stroke: #1f77b4"/>
     <use xlink:href="#m40c24f3404" x="59.245815" y="219.540461" style="fill: #1f77b4; stroke: #1f77b4"/>
     <use xlink:href="#m40c24f3404" x="61.669965" y="220.192398" style="fill: #1f77b4; stroke: #1f77b4"/>
     <use xlink:href="#m40c24f3404" x="56.252141" y="213.945369" style="fill: #1f77b4; stroke: #1f77b4"/>
     <use xlink:href="#m40c24f3404" x="58.53618" y="211.3147" style="fill: #1f77b4; stroke: #1f77b4"/>
     <use xlink:href="#m40c24f3404" x="57.514099" y="213.049753" style="fill: #1f77b4; stroke: #1f77b4"/>
     <use xlink:href="#m40c24f3404" x="58.202726" y="207.823944" style="fill: #1f77b4; stroke: #1f77b4"/>
     <use xlink:href="#m40c24f3404" x="54.081165" y="204.685114" style="fill: #1f77b4; stroke: #1f77b4"/>
     <use xlink:href="#m40c24f3404" x="58.949965" y="202.475131" style="fill: #1f77b4; stroke: #1f77b4"/>
     <use xlink:href="#m40c24f3404" x="56.402096" y="201.255799" style="fill: #1f77b4; stroke: #1f77b4"/>
     <use xlink:href="#m40c24f3404" x="58.007353" y="196.23808" style="fill: #1f77b4; stroke: #1f77b4"/>
     <use xlink:href="#m40c24f3404" x="58.398657" y="194.450385" style="fill: #1f77b4; stroke: #1f77b4"/>
     <use xlink:href="#m40c24f3404" x="55.693171" y="189.049323" style="fill: #1f77b4; stroke: #1f77b4"/>
     <use xlink:href="#m40c24f3404" x="59.554048" y="189.781328" style="fill: #1f77b4; stroke: #1f77b4"/>
     <use xlink:href="#m40c24f3404" x="57.537493" y="185.894952" style="fill: #1f77b4; stroke: #1f77b4"/>
     <use xlink:href="#m40c24f3404" x="63.095833" y="184.022806" style="fill: #1f77b4; stroke: #1f77b4"/>
     <use xlink:href="#m40c24f3404" x="59.849036" y="180.860784" style="fill: #1f77b4; stroke: #1f77b4"/>
     <use xlink:href="#m40c24f3404" x="63.411475" y="179.688047" style="fill: #1f77b4; stroke: #1f77b4"/>
     <use xlink:href="#m40c24f3404" x="63.175961" y="171.691875" style="fill: #1f77b4; stroke: #1f77b4"/>
     <use xlink:href="#m40c24f3404" x="62.662003" y="169.025739" style="fill: #1f77b4; stroke: #1f77b4"/>
     <use xlink:href="#m40c24f3404" x="64.58417" y="169.51095" style="fill: #1f77b4; stroke: #1f77b4"/>
     <use xlink:href="#m40c24f3404" x="63.217117" y="164.062446" style="fill: #1f77b4; stroke: #1f77b4"/>
     <use xlink:href="#m40c24f3404" x="70.432931" y="161.001053" style="fill: #1f77b4; stroke: #1f77b4"/>
     <use xlink:href="#m40c24f3404" x="70.911621" y="156.50988" style="fill: #1f77b4; stroke: #1f77b4"/>
     <use xlink:href="#m40c24f3404" x="65.01597" y="155.287765" style="fill: #1f77b4; stroke: #1f77b4"/>
     <use xlink:href="#m40c24f3404" x="68.627481" y="152.758723" style="fill: #1f77b4; stroke: #1f77b4"/>
     <use xlink:href="#m40c24f3404" x="70.472107" y="152.151687" style="fill: #1f77b4; stroke: #1f77b4"/>
     <use xlink:href="#m40c24f3404" x="67.333603" y="147.199492" style="fill: #1f77b4; stroke: #1f77b4"/>
     <use xlink:href="#m40c24f3404" x="73.566818" y="139.909321" style="fill: #1f77b4; stroke: #1f77b4"/>
     <use xlink:href="#m40c24f3404" x="81.825062" y="134.526703" style="fill: #1f77b4; stroke: #1f77b4"/>
     <use xlink:href="#m40c24f3404" x="78.726698" y="135.35084" style="fill: #1f77b4; stroke: #1f77b4"/>
     <use xlink:href="#m40c24f3404" x="83.512985" y="131.749144" style="fill: #1f77b4; stroke: #1f77b4"/>
     <use xlink:href="#m40c24f3404" x="86.489101" y="126.31213" style="fill: #1f77b4; stroke: #1f77b4"/>
     <use xlink:href="#m40c24f3404" x="96.214369" y="125.137912" style="fill: #1f77b4; stroke: #1f77b4"/>
     <use xlink:href="#m40c24f3404" x="95.446629" y="120.628565" style="fill: #1f77b4; stroke: #1f77b4"/>
     <use xlink:href="#m40c24f3404" x="100.684963" y="115.634159" style="fill: #1f77b4; stroke: #1f77b4"/>
     <use xlink:href="#m40c24f3404" x="109.160503" y="110.71976" style="fill: #1f77b4; stroke: #1f77b4"/>
     <use xlink:href="#m40c24f3404" x="107.905396" y="108.88925" style="fill: #1f77b4; stroke: #1f77b4"/>
     <use xlink:href="#m40c24f3404" x="117.10813" y="105.929332" style="fill: #1f77b4; stroke: #1f77b4"/>
     <use xlink:href="#m40c24f3404" x="122.897873" y="102.072013" style="fill: #1f77b4; stroke: #1f77b4"/>
     <use xlink:href="#m40c24f3404" x="130.159258" y="97.404196" style="fill: #1f77b4; stroke: #1f77b4"/>
     <use xlink:href="#m40c24f3404" x="139.923804" y="97.718599" style="fill: #1f77b4; stroke: #1f77b4"/>
     <use xlink:href="#m40c24f3404" x="147.590397" y="90.475688" style="fill: #1f77b4; stroke: #1f77b4"/>
     <use xlink:href="#m40c24f3404" x="157.524131" y="87.502949" style="fill: #1f77b4; stroke: #1f77b4"/>
     <use xlink:href="#m40c24f3404" x="161.975289" y="86.702398" style="fill: #1f77b4; stroke: #1f77b4"/>
     <use xlink:href="#m40c24f3404" x="172.644032" y="81.986352" style="fill: #1f77b4; stroke: #1f77b4"/>
     <use xlink:href="#m40c24f3404" x="185.306038" y="79.62836" style="fill: #1f77b4; stroke: #1f77b4"/>
     <use xlink:href="#m40c24f3404" x="205.875327" y="76.939636" style="fill: #1f77b4; stroke: #1f77b4"/>
     <use xlink:href="#m40c24f3404" x="211.433159" y="78.636802" style="fill: #1f77b4; stroke: #1f77b4"/>
     <use xlink:href="#m40c24f3404" x="233.246391" y="77.075158" style="fill: #1f77b4; stroke: #1f77b4"/>
     <use xlink:href="#m40c24f3404" x="244.538958" y="76.141383" style="fill: #1f77b4; stroke: #1f77b4"/>
     <use xlink:href="#m40c24f3404" x="259.728838" y="78.891396" style="fill: #1f77b4; stroke: #1f77b4"/>
     <use xlink:href="#m40c24f3404" x="276.058733" y="81.742129" style="fill: #1f77b4; stroke: #1f77b4"/>
     <use xlink:href="#m40c24f3404" x="288.389213" y="83.995079" style="fill: #1f77b4; stroke: #1f77b4"/>
     <use xlink:href="#m40c24f3404" x="306.577741" y="93.208376" style="fill: #1f77b4; stroke: #1f77b4"/>
     <use xlink:href="#m40c24f3404" x="326.780642" y="98.083255" style="fill: #1f77b4; stroke: #1f77b4"/>
     <use xlink:href="#m40c24f3404" x="337.816686" y="107.02941" style="fill: #1f77b4; stroke: #1f77b4"/>
     <use xlink:href="#m40c24f3404" x="356.374951" y="111.975951" style="fill: #1f77b4; stroke: #1f77b4"/>
     <use xlink:href="#m40c24f3404" x="363.220014" y="122.495813" style="fill: #1f77b4; stroke: #1f77b4"/>
     <use xlink:href="#m40c24f3404" x="370.224825" y="144.318462" style="fill: #1f77b4; stroke: #1f77b4"/>
     <use xlink:href="#m40c24f3404" x="377.641646" y="151.440274" style="fill: #1f77b4; stroke: #1f77b4"/>
     <use xlink:href="#m40c24f3404" x="375.670001" y="164.068947" style="fill: #1f77b4; stroke: #1f77b4"/>
     <use xlink:href="#m40c24f3404" x="377.826768" y="178.280369" style="fill: #1f77b4; stroke: #1f77b4"/>
     <use xlink:href="#m40c24f3404" x="377.044058" y="187.872534" style="fill: #1f77b4; stroke: #1f77b4"/>
     <use xlink:href="#m40c24f3404" x="361.063348" y="202.629249" style="fill: #1f77b4; stroke: #1f77b4"/>
     <use xlink:href="#m40c24f3404" x="352.547921" y="210.14284" style="fill: #1f77b4; stroke: #1f77b4"/>
     <use xlink:href="#m40c24f3404" x="344.409032" y="220.621278" style="fill: #1f77b4; stroke: #1f77b4"/>
     <use xlink:href="#m40c24f3404" x="328.492618" y="228.83183" style="fill: #1f77b4; stroke: #1f77b4"/>
     <use xlink:href="#m40c24f3404" x="315.792096" y="234.752512" style="fill: #1f77b4; stroke: #1f77b4"/>
     <use xlink:href="#m40c24f3404" x="303.19672" y="243.293946" style="fill: #1f77b4; stroke: #1f77b4"/>
     <use xlink:href="#m40c24f3404" x="285.675404" y="246.84179" style="fill: #1f77b4; stroke: #1f77b4"/>
     <use xlink:href="#m40c24f3404" x="266.212283" y="245.398704" style="fill: #1f77b4; stroke: #1f77b4"/>
     <use xlink:href="#m40c24f3404" x="254.380588" y="245.882071" style="fill: #1f77b4; stroke: #1f77b4"/>
     <use xlink:href="#m40c24f3404" x="240.138293" y="246.557291" style="fill: #1f77b4; stroke: #1f77b4"/>
     <use xlink:href="#m40c24f3404" x="225.756293" y="250.270107" style="fill: #1f77b4; stroke: #1f77b4"/>
     <use xlink:href="#m40c24f3404" x="217.26629" y="247.177147" style="fill: #1f77b4; stroke: #1f77b4"/>
     <use xlink:href="#m40c24f3404" x="207.131144" y="247.953327" style="fill: #1f77b4; stroke: #1f77b4"/>
     <use xlink:href="#m40c24f3404" x="193.221288" y="244.226179" style="fill: #1f77b4; stroke: #1f77b4"/>
     <use xlink:href="#m40c24f3404" x="183.353575" y="239.9118" style="fill: #1f77b4; stroke: #1f77b4"/>
     <use xlink:href="#m40c24f3404" x="171.796874" y="240.832483" style="fill: #1f77b4; stroke: #1f77b4"/>
     <use xlink:href="#m40c24f3404" x="170.951238" y="238.500101" style="fill: #1f77b4; stroke: #1f77b4"/>
     <use xlink:href="#m40c24f3404" x="160.274071" y="234.515092" style="fill: #1f77b4; stroke: #1f77b4"/>
     <use xlink:href="#m40c24f3404" x="144.64686" y="228.182311" style="fill: #1f77b4; stroke: #1f77b4"/>
     <use xlink:href="#m40c24f3404" x="144.797221" y="231.239955" style="fill: #1f77b4; stroke: #1f77b4"/>
     <use xlink:href="#m40c24f3404" x="137.675592" y="224.22757" style="fill: #1f77b4; stroke: #1f77b4"/>
     <use xlink:href="#m40c24f3404" x="128.899076" y="223.873073" style="fill: #1f77b4; stroke: #1f77b4"/>
     <use xlink:href="#m40c24f3404" x="126.675729" y="216.738531" style="fill: #1f77b4; stroke: #1f77b4"/>
     <use xlink:href="#m40c24f3404" x="121.020312" y="213.713755" style="fill: #1f77b4; stroke: #1f77b4"/>
     <use xlink:href="#m40c24f3404" x="120.700559" y="214.513853" style="fill: #1f77b4; stroke: #1f77b4"/>
     <use xlink:href="#m40c24f3404" x="111.1085" y="212.650233" style="fill: #1f77b4; stroke: #1f77b4"/>
     <use xlink:href="#m40c24f3404" x="117.429912" y="206.022159" style="fill: #1f77b4; stroke: #1f77b4"/>
     <use xlink:href="#m40c24f3404" x="109.947933" y="204.444701" style="fill: #1f77b4; stroke: #1f77b4"/>
     <use xlink:href="#m40c24f3404" x="108.076461" y="202.096475" style="fill: #1f77b4; stroke: #1f77b4"/>
     <use xlink:href="#m40c24f3404" x="101.575205" y="201.476558" style="fill: #1f77b4; stroke: #1f77b4"/>
     <use xlink:href="#m40c24f3404" x="96.901575" y="191.39383" style="fill: #1f77b4; stroke: #1f77b4"/>
     <use xlink:href="#m40c24f3404" x="101.383435" y="193.817044" style="fill: #1f77b4; stroke: #1f77b4"/>
     <use xlink:href="#m40c24f3404" x="94.596832" y="187.411271" style="fill: #1f77b4; stroke: #1f77b4"/>
     <use xlink:href="#m40c24f3404" x="93.752465" y="184.714474" style="fill: #1f77b4; stroke: #1f77b4"/>
     <use xlink:href="#m40c24f3404" x="95.962414" y="182.259149" style="fill: #1f77b4; stroke: #1f77b4"/>
     <use xlink:href="#m40c24f3404" x="90.245137" y="179.833033" style="fill: #1f77b4; stroke: #1f77b4"/>
     <use xlink:href="#m40c24f3404" x="85.664322" y="179.82245" style="fill: #1f77b4; stroke: #1f77b4"/>
     <use xlink:href="#m40c24f3404" x="95.293477" y="174.711118" style="fill: #1f77b4; stroke: #1f77b4"/>
     <use xlink:href="#m40c24f3404" x="87.272826" y="173.254366" style="fill: #1f77b4; stroke: #1f77b4"/>
     <use xlink:href="#m40c24f3404" x="93.210545" y="171.793774" style="fill: #1f77b4; stroke: #1f77b4"/>
     <use xlink:href="#m40c24f3404" x="90.372561" y="168.096892" style="fill: #1f77b4; stroke: #1f77b4"/>
     <use xlink:href="#m40c24f3404" x="86.115304" y="165.501873" style="fill: #1f77b4; stroke: #1f77b4"/>
     <use xlink:href="#m40c24f3404" x="87.632567" y="162.272" style="fill: #1f77b4; stroke: #1f77b4"/>
     <use xlink:href="#m40c24f3404" x="90.969489" y="160.075835" style="fill: #1f77b4; stroke: #1f77b4"/>
     <use xlink:href="#m40c24f3404" x="90.318871" y="157.472531" style="fill: #1f77b4; stroke: #1f77b4"/>
     <use xlink:href="#m40c24f3404" x="89.73874" y="155.666482" style="fill: #1f77b4; stroke: #1f77b4"/>
     <use xlink:href="#m40c24f3404" x="86.435411" y="153.575935" style="fill: #1f77b4; stroke: #1f77b4"/>
     <use xlink:href="#m40c24f3404" x="86.538579" y="150.599054" style="fill: #1f77b4; stroke: #1f77b4"/>
     <use xlink:href="#m40c24f3404" x="81.676021" y="152.584589" style="fill: #1f77b4; stroke: #1f77b4"/>
     <use xlink:href="#m40c24f3404" x="89.758277" y="148.561452" style="fill: #1f77b4; stroke: #1f77b4"/>
     <use xlink:href="#m40c24f3404" x="88.245429" y="141.111116" style="fill: #1f77b4; stroke: #1f77b4"/>
     <use xlink:href="#m40c24f3404" x="89.642322" y="141.075829" style="fill: #1f77b4; stroke: #1f77b4"/>
     <use xlink:href="#m40c24f3404" x="84.802498" y="137.692081" style="fill: #1f77b4; stroke: #1f77b4"/>
     <use xlink:href="#m40c24f3404" x="90.918286" y="138.124287" style="fill: #1f77b4; stroke: #1f77b4"/>
     <use xlink:href="#m40c24f3404" x="87.206602" y="135.893229" style="fill: #1f77b4; stroke: #1f77b4"/>
     <use xlink:href="#m40c24f3404" x="87.453331" y="133.001313" style="fill: #1f77b4; stroke: #1f77b4"/>
     <use xlink:href="#m40c24f3404" x="88.338853" y="130.688767" style="fill: #1f77b4; stroke: #1f77b4"/>
     <use xlink:href="#m40c24f3404" x="88.944459" y="128.94679" style="fill: #1f77b4; stroke: #1f77b4"/>
     <use xlink:href="#m40c24f3404" x="87.838749" y="127.955081" style="fill: #1f77b4; stroke: #1f77b4"/>
     <use xlink:href="#m40c24f3404" x="89.929241" y="123.471799" style="fill: #1f77b4; stroke: #1f77b4"/>
     <use xlink:href="#m40c24f3404" x="92.234746" y="123.025654" style="fill: #1f77b4; stroke: #1f77b4"/>
     <use xlink:href="#m40c24f3404" x="91.408393" y="121.189973" style="fill: #1f77b4; stroke: #1f77b4"/>
     <use xlink:href="#m40c24f3404" x="93.449763" y="121.30566" style="fill: #1f77b4; stroke: #1f77b4"/>
     <use xlink:href="#m40c24f3404" x="99.884238" y="118.262167" style="fill: #1f77b4; stroke: #1f77b4"/>
     <use xlink:href="#m40c24f3404" x="94.285402" y="115.915453" style="fill: #1f77b4; stroke: #1f77b4"/>
     <use xlink:href="#m40c24f3404" x="96.976172" y="114.322635" style="fill: #1f77b4; stroke: #1f77b4"/>
     <use xlink:href="#m40c24f3404" x="97.567874" y="113.018065" style="fill: #1f77b4; stroke: #1f77b4"/>
     <use xlink:href="#m40c24f3404" x="98.959742" y="106.798218" style="fill: #1f77b4; stroke: #1f77b4"/>
     <use xlink:href="#m40c24f3404" x="99.231742" y="109.697209" style="fill: #1f77b4; stroke: #1f77b4"/>
     <use xlink:href="#m40c24f3404" x="100.700187" y="108.378851" style="fill: #1f77b4; stroke: #1f77b4"/>
     <use xlink:href="#m40c24f3404" x="103.596733" y="104.331373" style="fill: #1f77b4; stroke: #1f77b4"/>
     <use xlink:href="#m40c24f3404" x="102.493256" y="103.835368" style="fill: #1f77b4; stroke: #1f77b4"/>
     <use xlink:href="#m40c24f3404" x="101.874912" y="102.476764" style="fill: #1f77b4; stroke: #1f77b4"/>
     <use xlink:href="#m40c24f3404" x="101.386378" y="102.97915" style="fill: #1f77b4; stroke: #1f77b4"/>
     <use xlink:href="#m40c24f3404" x="104.016456" y="98.252249" style="fill: #1f77b4; stroke: #1f77b4"/>
     <use xlink:href="#m40c24f3404" x="106.669724" y="95.813373" style="fill: #1f77b4; stroke: #1f77b4"/>
     <use xlink:href="#m40c24f3404" x="109.233172" y="94.259591" style="fill: #1f77b4; stroke: #1f77b4"/>
     <use xlink:href="#m40c24f3404" x="108.115384" y="95.006442" style="fill: #1f77b4; stroke: #1f77b4"/>
     <use xlink:href="#m40c24f3404" x="110.015172" y="91.902657" style="fill: #1f77b4; stroke: #1f77b4"/>
     <use xlink:href="#m40c24f3404" x="110.775199" y="89.897559" style="fill: #1f77b4; stroke: #1f77b4"/>
     <use xlink:href="#m40c24f3404" x="111.675336" y="89.17526" style="fill: #1f77b4; stroke: #1f77b4"/>
     <use xlink:href="#m40c24f3404" x="106.259187" y="89.910984" style="fill: #1f77b4; stroke: #1f77b4"/>
     <use xlink:href="#m40c24f3404" x="111.434849" y="85.310806" style="fill: #1f77b4; stroke: #1f77b4"/>
     <use xlink:href="#m40c24f3404" x="111.696751" y="85.260431" style="fill: #1f77b4; stroke: #1f77b4"/>
     <use xlink:href="#m40c24f3404" x="118.930022" y="83.019728" style="fill: #1f77b4; stroke: #1f77b4"/>
     <use xlink:href="#m40c24f3404" x="118.838222" y="80.913185" style="fill: #1f77b4; stroke: #1f77b4"/>
     <use xlink:href="#m40c24f3404" x="119.894709" y="76.813639" style="fill: #1f77b4; stroke: #1f77b4"/>
     <use xlink:href="#m40c24f3404" x="125.529676" y="76.348505" style="fill: #1f77b4; stroke: #1f77b4"/>
     <use xlink:href="#m40c24f3404" x="125.488673" y="76.525694" style="fill: #1f77b4; stroke: #1f77b4"/>
     <use xlink:href="#m40c24f3404" x="125.635583" y="77.392161" style="fill: #1f77b4; stroke: #1f77b4"/>
     <use xlink:href="#m40c24f3404" x="127.763425" y="75.749785" style="fill: #1f77b4; stroke: #1f77b4"/>
     <use xlink:href="#m40c24f3404" x="130.534729" y="72.541411" style="fill: #1f77b4; stroke: #1f77b4"/>
     <use xlink:href="#m40c24f3404" x="129.800177" y="71.712981" style="fill: #1f77b4; stroke: #1f77b4"/>
     <use xlink:href="#m40c24f3404" x="126.857198" y="71.057264" style="fill: #1f77b4; stroke: #1f77b4"/>
     <use xlink:href="#m40c24f3404" x="127.811735" y="66.88515" style="fill: #1f77b4; stroke: #1f77b4"/>
     <use xlink:href="#m40c24f3404" x="136.654222" y="69.328561" style="fill: #1f77b4; stroke: #1f77b4"/>
     <use xlink:href="#m40c24f3404" x="135.239162" y="65.016511" style="fill: #1f77b4; stroke: #1f77b4"/>
     <use xlink:href="#m40c24f3404" x="133.940717" y="64.180552" style="fill: #1f77b4; stroke: #1f77b4"/>
     <use xlink:href="#m40c24f3404" x="135.032523" y="63.797299" style="fill: #1f77b4; stroke: #1f77b4"/>
     <use xlink:href="#m40c24f3404" x="134.811828" y="61.777809" style="fill: #1f77b4; stroke: #1f77b4"/>
     <use xlink:href="#m40c24f3404" x="137.003559" y="59.604291" style="fill: #1f77b4; stroke: #1f77b4"/>
    </g>
   </g>
   <g id="line2d_15">
    <path d="M 115.175337 287.168803 
L 109.828084 282.147559 
L 104.980506 277.303444 
L 100.300718 272.321813 
L 95.797205 267.196692 
L 91.761502 262.277659 
L 87.896864 257.221012 
L 84.213791 252.01917 
L 80.967064 247.051248 
L 77.898969 241.942538 
L 75.237108 237.093888 
L 72.751518 232.109163 
L 70.456989 226.978985 
L 68.536452 222.139491 
L 66.807209 217.159619 
L 65.41709 212.501952 
L 64.217586 207.711046 
L 63.228575 202.777296 
L 62.537812 198.206041 
L 62.056809 193.502028 
L 61.82448 189.20181 
L 61.796125 184.78249 
L 61.994406 180.236679 
L 62.445736 175.556584 
L 63.07238 171.344968 
L 63.940329 167.018757 
L 65.077233 162.572365 
L 66.289854 158.661377 
L 67.746435 154.654842 
L 69.473051 150.54984 
L 71.499302 146.343955 
L 73.858812 142.035512 
L 76.107055 138.366313 
L 78.638005 134.625835 
L 81.479272 130.815394 
L 84.661513 126.937482 
L 88.218721 122.996094 
L 92.1885 118.99713 
L 95.689103 115.761985 
L 99.503307 112.500845 
L 103.655916 109.220772 
L 108.173445 105.930564 
L 113.084077 102.641076 
L 118.417553 99.365575 
L 124.204966 96.120164 
L 130.478437 92.924236 
L 135.522167 90.573565 
L 140.871453 88.275065 
L 146.539816 86.04163 
L 152.540262 83.887813 
L 158.884953 81.82997 
L 165.584818 79.886391 
L 172.649075 78.077426 
L 180.084677 76.425576 
L 187.895664 74.955565 
L 196.082417 73.694349 
L 204.640822 72.671077 
L 213.561351 71.91695 
L 219.70197 71.579967 
L 225.990076 71.387414 
L 232.417536 71.349682 
L 238.974463 71.477308 
L 245.649089 71.780886 
L 252.427639 72.270953 
L 259.294225 72.957864 
L 266.230754 73.851648 
L 273.216865 74.961846 
L 280.229897 76.297336 
L 287.244899 77.866143 
L 294.234674 79.675237 
L 301.169885 81.730331 
L 308.01921 84.035662 
L 314.749559 86.59379 
L 321.326355 89.405398 
L 327.713873 92.469108 
L 333.875643 95.781327 
L 339.774914 99.336115 
L 345.375156 103.125102 
L 350.640611 107.137445 
L 355.536863 111.359832 
L 360.031421 115.776553 
L 364.094291 120.369619 
L 365.95529 122.726079 
L 367.698528 125.11894 
L 369.321195 127.545401 
L 370.820732 130.002561 
L 372.19484 132.487432 
L 373.441493 134.996947 
L 374.558949 137.527969 
L 375.545752 140.077308 
L 376.400743 142.641729 
L 377.123064 145.217964 
L 377.712157 147.802727 
L 378.167768 150.392723 
L 378.489949 152.984665 
L 378.679047 155.575281 
L 378.73571 158.161329 
L 378.660874 160.739608 
L 378.45576 163.306972 
L 378.121862 165.860334 
L 377.660939 168.396684 
L 377.075005 170.913094 
L 376.366314 173.406728 
L 375.537347 175.874853 
L 374.590801 178.314841 
L 373.529569 180.72418 
L 372.356728 183.100479 
L 369.689342 187.745027 
L 366.6163 192.231939 
L 363.167134 196.546841 
L 359.37273 200.677569 
L 355.264818 204.61417 
L 350.875496 208.348853 
L 346.236791 211.875909 
L 341.380268 215.191597 
L 336.336685 218.294005 
L 331.13571 221.1829 
L 325.805681 223.85956 
L 320.373422 226.326603 
L 314.864107 228.587816 
L 309.301168 230.647985 
L 303.706244 232.51273 
L 298.09916 234.188358 
L 292.497942 235.681711 
L 286.918855 237.000044 
L 281.376456 238.150899 
L 273.159494 239.580094 
L 265.090979 240.676265 
L 257.200966 241.465692 
L 249.513134 241.97409 
L 242.045542 242.226259 
L 234.811364 242.245841 
L 227.819586 242.055147 
L 221.075636 241.675067 
L 214.581971 241.125016 
L 208.338592 240.422936 
L 200.399717 239.278642 
L 192.893006 237.928489 
L 185.805717 236.403603 
L 179.122533 234.731308 
L 172.826457 232.93548 
L 166.899515 231.036897 
L 161.323296 229.053581 
L 154.818146 226.478814 
L 148.796825 223.821643 
L 143.225237 221.103431 
L 138.070968 218.341803 
L 133.303512 215.551246 
L 128.894381 212.743632 
L 124.039304 209.365484 
L 119.620292 205.989963 
L 115.599345 202.627388 
L 111.942141 199.28566 
L 108.617744 195.97076 
L 105.122916 192.143148 
L 102.00383 188.36307 
L 99.225619 184.633822 
L 96.757461 180.957396 
L 94.572084 177.334804 
L 92.38991 173.26095 
L 90.513883 169.257319 
L 88.916274 165.322827 
L 87.572795 161.455951 
L 86.338702 157.184278 
L 85.372803 152.993062 
L 84.652046 148.879348 
L 84.156334 144.840153 
L 83.848173 140.435989 
L 83.775158 136.116304 
L 83.919019 131.87739 
L 84.308804 127.303715 
L 84.923314 122.819227 
L 85.746518 118.419939 
L 86.866191 113.713604 
L 88.201791 109.100019 
L 89.739533 104.575304 
L 91.619566 99.769786 
L 93.709241 95.060538 
L 95.996767 90.444069 
L 98.669614 85.572723 
L 101.548383 80.802048 
L 104.622893 76.129122 
L 108.12392 71.228024 
L 111.829224 66.43358 
L 115.729803 61.743535 
L 120.096481 56.853755 
L 122.929733 53.856 
L 122.929733 53.856 
" clip-path="url(#pe08bbe9ae4)" style="fill: none; stroke: #d62728; stroke-width: 1.5; stroke-linecap: square"/>
   </g>
   <g id="patch_3">
    <path d="M 37.848438 307.872 
L 37.848438 41.76 
" style="fill: none; stroke: #000000; stroke-width: 0.8; stroke-linejoin: miter; stroke-linecap: square"/>
   </g>
   <g id="patch_4">
    <path d="M 394.968438 307.872 
L 394.968438 41.76 
" style="fill: none; stroke: #000000; stroke-width: 0.8; stroke-linejoin: miter; stroke-linecap: square"/>
   </g>
   <g id="patch_5">
    <path d="M 37.848437 307.872 
L 394.968437 307.872 
" style="fill: none; stroke: #000000; stroke-width: 0.8; stroke-linejoin: miter; stroke-linecap: square"/>
   </g>
   <g id="patch_6">
    <path d="M 37.848437 41.76 
L 394.968437 41.76 
" style="fill: none; stroke: #000000; stroke-width: 0.8; stroke-linejoin: miter; stroke-linecap: square"/>
   </g>
   <g id="text_16">
    <g id="patch_7">
     <path d="M 412.824438 102.337163 
L 552.224438 102.337163 
Q 556.224438 102.337163 556.224438 98.337163 
L 556.224438 55.0656 
Q 556.224438 51.0656 552.224438 51.0656 
L 412.824438 51.0656 
Q 408.824438 51.0656 408.824438 55.0656 
L 408.824438 98.337163 
Q 408.824438 102.337163 412.824438 102.337163 
z
" style="fill: #ffffff; opacity: 0.5; stroke: #000000; stroke-linejoin: miter"/>
    </g>
    <!-- Summary -->
    <g transform="translate(412.824438 62.664038) scale(0.1 -0.1)">
     <defs>
      <path id="DejaVuSans-53" d="M 3425 4513 
L 3425 3897 
Q 3066 4069 2747 4153 
Q 2428 4238 2131 4238 
Q 1616 4238 1336 4038 
Q 1056 3838 1056 3469 
Q 1056 3159 1242 3001 
Q 1428 2844 1947 2747 
L 2328 2669 
Q 3034 2534 3370 2195 
Q 3706 1856 3706 1288 
Q 3706 609 3251 259 
Q 2797 -91 1919 -91 
Q 1588 -91 1214 -16 
Q 841 59 441 206 
L 441 856 
Q 825 641 1194 531 
Q 1563 422 1919 422 
Q 2459 422 2753 634 
Q 3047 847 3047 1241 
Q 3047 1584 2836 1778 
Q 2625 1972 2144 2069 
L 1759 2144 
Q 1053 2284 737 2584 
Q 422 2884 422 3419 
Q 422 4038 858 4394 
Q 1294 4750 2059 4750 
Q 2388 4750 2728 4690 
Q 3069 4631 3425 4513 
z
" transform="scale(0.015625)"/>
      <path id="DejaVuSans-75" d="M 544 1381 
L 544 3500 
L 1119 3500 
L 1119 1403 
Q 1119 906 1312 657 
Q 1506 409 1894 409 
Q 2359 409 2629 706 
Q 2900 1003 2900 1516 
L 2900 3500 
L 3475 3500 
L 3475 0 
L 2900 0 
L 2900 538 
Q 2691 219 2414 64 
Q 2138 -91 1772 -91 
Q 1169 -91 856 284 
Q 544 659 544 1381 
z
M 1991 3584 
L 1991 3584 
z
" transform="scale(0.015625)"/>
      <path id="DejaVuSans-61" d="M 2194 1759 
Q 1497 1759 1228 1600 
Q 959 1441 959 1056 
Q 959 750 1161 570 
Q 1363 391 1709 391 
Q 2188 391 2477 730 
Q 2766 1069 2766 1631 
L 2766 1759 
L 2194 1759 
z
M 3341 1997 
L 3341 0 
L 2766 0 
L 2766 531 
Q 2569 213 2275 61 
Q 1981 -91 1556 -91 
Q 1019 -91 701 211 
Q 384 513 384 1019 
Q 384 1609 779 1909 
Q 1175 2209 1959 2209 
L 2766 2209 
L 2766 2266 
Q 2766 2663 2505 2880 
Q 2244 3097 1772 3097 
Q 1472 3097 1187 3025 
Q 903 2953 641 2809 
L 641 3341 
Q 956 3463 1253 3523 
Q 1550 3584 1831 3584 
Q 2591 3584 2966 3190 
Q 3341 2797 3341 1997 
z
" transform="scale(0.015625)"/>
      <path id="DejaVuSans-72" d="M 2631 2963 
Q 2534 3019 2420 3045 
Q 2306 3072 2169 3072 
Q 1681 3072 1420 2755 
Q 1159 2438 1159 1844 
L 1159 0 
L 581 0 
L 581 3500 
L 1159 3500 
L 1159 2956 
Q 1341 3275 1631 3429 
Q 1922 3584 2338 3584 
Q 2397 3584 2469 3576 
Q 2541 3569 2628 3553 
L 2631 2963 
z
" transform="scale(0.015625)"/>
      <path id="DejaVuSans-79" d="M 2059 -325 
Q 1816 -950 1584 -1140 
Q 1353 -1331 966 -1331 
L 506 -1331 
L 506 -850 
L 844 -850 
Q 1081 -850 1212 -737 
Q 1344 -625 1503 -206 
L 1606 56 
L 191 3500 
L 800 3500 
L 1894 763 
L 2988 3500 
L 3597 3500 
L 2059 -325 
z
" transform="scale(0.015625)"/>
     </defs>
     <use xlink:href="#DejaVuSans-53"/>
     <use xlink:href="#DejaVuSans-75" x="63.476562"/>
     <use xlink:href="#DejaVuSans-6d" x="126.855469"/>
     <use xlink:href="#DejaVuSans-6d" x="224.267578"/>
     <use xlink:href="#DejaVuSans-61" x="321.679688"/>
     <use xlink:href="#DejaVuSans-72" x="382.958984"/>
     <use xlink:href="#DejaVuSans-79" x="424.072266"/>
    </g>
    <!-- $Q_I$: 17.40$\pm$0.79 k -->
    <g transform="translate(412.824438 73.86185) scale(0.1 -0.1)">
     <defs>
      <path id="DejaVuSans-Oblique-51" d="M 2309 -84 
Q 2275 -88 2237 -89 
Q 2200 -91 2125 -91 
Q 1250 -91 756 411 
Q 263 913 263 1797 
Q 263 2319 452 2844 
Q 641 3369 978 3788 
Q 1369 4269 1858 4509 
Q 2347 4750 2938 4750 
Q 3794 4750 4287 4245 
Q 4781 3741 4781 2869 
Q 4781 1928 4265 1147 
Q 3750 366 2919 44 
L 3553 -825 
L 2847 -825 
L 2309 -84 
z
M 2919 4238 
Q 2400 4238 2003 3986 
Q 1606 3734 1313 3219 
Q 1125 2891 1026 2522 
Q 928 2153 928 1778 
Q 928 1128 1239 775 
Q 1550 422 2119 422 
Q 2631 422 3032 676 
Q 3434 931 3719 1434 
Q 3909 1772 4009 2142 
Q 4109 2513 4109 2881 
Q 4109 3528 3796 3883 
Q 3484 4238 2919 4238 
z
" transform="scale(0.015625)"/>
      <path id="DejaVuSans-Oblique-49" d="M 1081 4666 
L 1716 4666 
L 806 0 
L 172 0 
L 1081 4666 
z
" transform="scale(0.015625)"/>
      <path id="DejaVuSans-3a" d="M 750 794 
L 1409 794 
L 1409 0 
L 750 0 
L 750 794 
z
M 750 3309 
L 1409 3309 
L 1409 2516 
L 750 2516 
L 750 3309 
z
" transform="scale(0.015625)"/>
      <path id="DejaVuSans-2e" d="M 684 794 
L 1344 794 
L 1344 0 
L 684 0 
L 684 794 
z
" transform="scale(0.015625)"/>
      <path id="DejaVuSans-b1" d="M 2944 4013 
L 2944 2803 
L 4684 2803 
L 4684 2272 
L 2944 2272 
L 2944 1063 
L 2419 1063 
L 2419 2272 
L 678 2272 
L 678 2803 
L 2419 2803 
L 2419 4013 
L 2944 4013 
z
M 678 531 
L 4684 531 
L 4684 0 
L 678 0 
L 678 531 
z
" transform="scale(0.015625)"/>
      <path id="DejaVuSans-39" d="M 703 97 
L 703 672 
Q 941 559 1184 500 
Q 1428 441 1663 441 
Q 2288 441 2617 861 
Q 2947 1281 2994 2138 
Q 2813 1869 2534 1725 
Q 2256 1581 1919 1581 
Q 1219 1581 811 2004 
Q 403 2428 403 3163 
Q 403 3881 828 4315 
Q 1253 4750 1959 4750 
Q 2769 4750 3195 4129 
Q 3622 3509 3622 2328 
Q 3622 1225 3098 567 
Q 2575 -91 1691 -91 
Q 1453 -91 1209 -44 
Q 966 3 703 97 
z
M 1959 2075 
Q 2384 2075 2632 2365 
Q 2881 2656 2881 3163 
Q 2881 3666 2632 3958 
Q 2384 4250 1959 4250 
Q 1534 4250 1286 3958 
Q 1038 3666 1038 3163 
Q 1038 2656 1286 2365 
Q 1534 2075 1959 2075 
z
" transform="scale(0.015625)"/>
      <path id="DejaVuSans-6b" d="M 581 4863 
L 1159 4863 
L 1159 1991 
L 2875 3500 
L 3609 3500 
L 1753 1863 
L 3688 0 
L 2938 0 
L 1159 1709 
L 1159 0 
L 581 0 
L 581 4863 
z
" transform="scale(0.015625)"/>
     </defs>
     <use xlink:href="#DejaVuSans-Oblique-51" transform="translate(0 0.015625)"/>
     <use xlink:href="#DejaVuSans-Oblique-49" transform="translate(78.710938 -16.390625) scale(0.7)"/>
     <use xlink:href="#DejaVuSans-3a" transform="translate(102.089844 0.015625)"/>
     <use xlink:href="#DejaVuSans-20" transform="translate(135.78125 0.015625)"/>
     <use xlink:href="#DejaVuSans-31" transform="translate(167.568359 0.015625)"/>
     <use xlink:href="#DejaVuSans-37" transform="translate(231.191406 0.015625)"/>
     <use xlink:href="#DejaVuSans-2e" transform="translate(294.814453 0.015625)"/>
     <use xlink:href="#DejaVuSans-34" transform="translate(326.601562 0.015625)"/>
     <use xlink:href="#DejaVuSans-30" transform="translate(390.224609 0.015625)"/>
     <use xlink:href="#DejaVuSans-b1" transform="translate(453.847656 0.015625)"/>
     <use xlink:href="#DejaVuSans-30" transform="translate(537.636719 0.015625)"/>
     <use xlink:href="#DejaVuSans-2e" transform="translate(601.259766 0.015625)"/>
     <use xlink:href="#DejaVuSans-37" transform="translate(625.296875 0.015625)"/>
     <use xlink:href="#DejaVuSans-39" transform="translate(688.919922 0.015625)"/>
     <use xlink:href="#DejaVuSans-20" transform="translate(752.542969 0.015625)"/>
     <use xlink:href="#DejaVuSans-6b" transform="translate(784.330078 0.015625)"/>
    </g>
    <!-- $Q_C$: 2.378$\pm$0.019 k -->
    <g transform="translate(412.824438 85.059663) scale(0.1 -0.1)">
     <defs>
      <path id="DejaVuSans-Oblique-43" d="M 4447 4306 
L 4319 3641 
Q 4019 3944 3683 4091 
Q 3347 4238 2956 4238 
Q 2422 4238 2017 3981 
Q 1613 3725 1319 3200 
Q 1131 2863 1032 2486 
Q 934 2109 934 1728 
Q 934 1091 1264 756 
Q 1594 422 2222 422 
Q 2656 422 3056 561 
Q 3456 700 3834 978 
L 3688 231 
Q 3316 72 2936 -9 
Q 2556 -91 2175 -91 
Q 1278 -91 773 396 
Q 269 884 269 1753 
Q 269 2309 461 2846 
Q 653 3384 1013 3828 
Q 1394 4300 1883 4525 
Q 2372 4750 3022 4750 
Q 3422 4750 3780 4639 
Q 4138 4528 4447 4306 
z
" transform="scale(0.015625)"/>
     </defs>
     <use xlink:href="#DejaVuSans-Oblique-51" transform="translate(0 0.015625)"/>
     <use xlink:href="#DejaVuSans-Oblique-43" transform="translate(78.710938 -16.390625) scale(0.7)"/>
     <use xlink:href="#DejaVuSans-3a" transform="translate(130.322266 0.015625)"/>
     <use xlink:href="#DejaVuSans-20" transform="translate(164.013672 0.015625)"/>
     <use xlink:href="#DejaVuSans-32" transform="translate(195.800781 0.015625)"/>
     <use xlink:href="#DejaVuSans-2e" transform="translate(259.423828 0.015625)"/>
     <use xlink:href="#DejaVuSans-33" transform="translate(291.210938 0.015625)"/>
     <use xlink:href="#DejaVuSans-37" transform="translate(354.833984 0.015625)"/>
     <use xlink:href="#DejaVuSans-38" transform="translate(418.457031 0.015625)"/>
     <use xlink:href="#DejaVuSans-b1" transform="translate(482.080078 0.015625)"/>
     <use xlink:href="#DejaVuSans-30" transform="translate(565.869141 0.015625)"/>
     <use xlink:href="#DejaVuSans-2e" transform="translate(629.492188 0.015625)"/>
     <use xlink:href="#DejaVuSans-30" transform="translate(661.279297 0.015625)"/>
     <use xlink:href="#DejaVuSans-31" transform="translate(724.902344 0.015625)"/>
     <use xlink:href="#DejaVuSans-39" transform="translate(788.525391 0.015625)"/>
     <use xlink:href="#DejaVuSans-20" transform="translate(852.148438 0.015625)"/>
     <use xlink:href="#DejaVuSans-6b" transform="translate(883.935547 0.015625)"/>
    </g>
    <!-- $f_{res}$: 6.106740$\pm$1.4e-05 GHz -->
    <g transform="translate(412.824438 96.257475) scale(0.1 -0.1)">
     <defs>
      <path id="DejaVuSans-Oblique-66" d="M 3059 4863 
L 2969 4384 
L 2419 4384 
Q 2106 4384 1964 4261 
Q 1822 4138 1753 3809 
L 1691 3500 
L 2638 3500 
L 2553 3053 
L 1606 3053 
L 1013 0 
L 434 0 
L 1031 3053 
L 481 3053 
L 563 3500 
L 1113 3500 
L 1159 3744 
Q 1278 4363 1576 4613 
Q 1875 4863 2516 4863 
L 3059 4863 
z
" transform="scale(0.015625)"/>
      <path id="DejaVuSans-Oblique-72" d="M 2853 2969 
Q 2766 3016 2653 3041 
Q 2541 3066 2413 3066 
Q 1953 3066 1609 2717 
Q 1266 2369 1153 1784 
L 800 0 
L 225 0 
L 909 3500 
L 1484 3500 
L 1375 2956 
Q 1603 3259 1920 3421 
Q 2238 3584 2597 3584 
Q 2691 3584 2781 3573 
Q 2872 3563 2963 3538 
L 2853 2969 
z
" transform="scale(0.015625)"/>
      <path id="DejaVuSans-Oblique-65" d="M 3078 2063 
Q 3088 2113 3092 2166 
Q 3097 2219 3097 2272 
Q 3097 2653 2873 2875 
Q 2650 3097 2266 3097 
Q 1838 3097 1509 2826 
Q 1181 2556 1013 2059 
L 3078 2063 
z
M 3578 1613 
L 903 1613 
Q 884 1494 878 1425 
Q 872 1356 872 1306 
Q 872 872 1139 634 
Q 1406 397 1894 397 
Q 2269 397 2603 481 
Q 2938 566 3225 728 
L 3116 159 
Q 2806 34 2476 -28 
Q 2147 -91 1806 -91 
Q 1078 -91 686 257 
Q 294 606 294 1247 
Q 294 1794 489 2264 
Q 684 2734 1063 3103 
Q 1306 3334 1642 3459 
Q 1978 3584 2356 3584 
Q 2950 3584 3301 3228 
Q 3653 2872 3653 2272 
Q 3653 2128 3634 1964 
Q 3616 1800 3578 1613 
z
" transform="scale(0.015625)"/>
      <path id="DejaVuSans-Oblique-73" d="M 3200 3397 
L 3091 2853 
Q 2863 2978 2609 3040 
Q 2356 3103 2088 3103 
Q 1634 3103 1373 2948 
Q 1113 2794 1113 2528 
Q 1113 2219 1719 2053 
Q 1766 2041 1788 2034 
L 1972 1978 
Q 2547 1819 2739 1644 
Q 2931 1469 2931 1166 
Q 2931 609 2489 259 
Q 2047 -91 1331 -91 
Q 1053 -91 747 -37 
Q 441 16 72 128 
L 184 722 
Q 500 559 806 475 
Q 1113 391 1394 391 
Q 1816 391 2080 572 
Q 2344 753 2344 1031 
Q 2344 1331 1650 1516 
L 1591 1531 
L 1394 1581 
Q 956 1697 753 1886 
Q 550 2075 550 2369 
Q 550 2928 970 3256 
Q 1391 3584 2113 3584 
Q 2397 3584 2667 3537 
Q 2938 3491 3200 3397 
z
" transform="scale(0.015625)"/>
      <path id="DejaVuSans-47" d="M 3809 666 
L 3809 1919 
L 2778 1919 
L 2778 2438 
L 4434 2438 
L 4434 434 
Q 4069 175 3628 42 
Q 3188 -91 2688 -91 
Q 1594 -91 976 548 
Q 359 1188 359 2328 
Q 359 3472 976 4111 
Q 1594 4750 2688 4750 
Q 3144 4750 3555 4637 
Q 3966 4525 4313 4306 
L 4313 3634 
Q 3963 3931 3569 4081 
Q 3175 4231 2741 4231 
Q 1884 4231 1454 3753 
Q 1025 3275 1025 2328 
Q 1025 1384 1454 906 
Q 1884 428 2741 428 
Q 3075 428 3337 486 
Q 3600 544 3809 666 
z
" transform="scale(0.015625)"/>
      <path id="DejaVuSans-48" d="M 628 4666 
L 1259 4666 
L 1259 2753 
L 3553 2753 
L 3553 4666 
L 4184 4666 
L 4184 0 
L 3553 0 
L 3553 2222 
L 1259 2222 
L 1259 0 
L 628 0 
L 628 4666 
z
" transform="scale(0.015625)"/>
      <path id="DejaVuSans-7a" d="M 353 3500 
L 3084 3500 
L 3084 2975 
L 922 459 
L 3084 459 
L 3084 0 
L 275 0 
L 275 525 
L 2438 3041 
L 353 3041 
L 353 3500 
z
" transform="scale(0.015625)"/>
     </defs>
     <use xlink:href="#DejaVuSans-Oblique-66" transform="translate(0 0.015625)"/>
     <use xlink:href="#DejaVuSans-Oblique-72" transform="translate(35.205078 -16.390625) scale(0.7)"/>
     <use xlink:href="#DejaVuSans-Oblique-65" transform="translate(63.984375 -16.390625) scale(0.7)"/>
     <use xlink:href="#DejaVuSans-Oblique-73" transform="translate(107.050781 -16.390625) scale(0.7)"/>
     <use xlink:href="#DejaVuSans-3a" transform="translate(146.254883 0.015625)"/>
     <use xlink:href="#DejaVuSans-20" transform="translate(179.946289 0.015625)"/>
     <use xlink:href="#DejaVuSans-36" transform="translate(211.733398 0.015625)"/>
     <use xlink:href="#DejaVuSans-2e" transform="translate(275.356445 0.015625)"/>
     <use xlink:href="#DejaVuSans-31" transform="translate(307.143555 0.015625)"/>
     <use xlink:href="#DejaVuSans-30" transform="translate(370.766602 0.015625)"/>
     <use xlink:href="#DejaVuSans-36" transform="translate(434.389648 0.015625)"/>
     <use xlink:href="#DejaVuSans-37" transform="translate(498.012695 0.015625)"/>
     <use xlink:href="#DejaVuSans-34" transform="translate(561.635742 0.015625)"/>
     <use xlink:href="#DejaVuSans-30" transform="translate(625.258789 0.015625)"/>
     <use xlink:href="#DejaVuSans-b1" transform="translate(688.881836 0.015625)"/>
     <use xlink:href="#DejaVuSans-31" transform="translate(772.670898 0.015625)"/>
     <use xlink:href="#DejaVuSans-2e" transform="translate(836.293945 0.015625)"/>
     <use xlink:href="#DejaVuSans-34" transform="translate(868.081055 0.015625)"/>
     <use xlink:href="#DejaVuSans-65" transform="translate(931.704102 0.015625)"/>
     <use xlink:href="#DejaVuSans-2d" transform="translate(993.227539 0.015625)"/>
     <use xlink:href="#DejaVuSans-30" transform="translate(1029.311523 0.015625)"/>
     <use xlink:href="#DejaVuSans-35" transform="translate(1092.93457 0.015625)"/>
     <use xlink:href="#DejaVuSans-20" transform="translate(1156.557617 0.015625)"/>
     <use xlink:href="#DejaVuSans-47" transform="translate(1188.344727 0.015625)"/>
     <use xlink:href="#DejaVuSans-48" transform="translate(1265.834961 0.015625)"/>
     <use xlink:href="#DejaVuSans-7a" transform="translate(1341.030273 0.015625)"/>
    </g>
   </g>
  </g>
  <g id="text_17">
   <!-- S21 resonator spectroscopy -->
   <g transform="translate(126.864063 16.318125) scale(0.12 -0.12)">
    <defs>
     <path id="DejaVuSans-73" d="M 2834 3397 
L 2834 2853 
Q 2591 2978 2328 3040 
Q 2066 3103 1784 3103 
Q 1356 3103 1142 2972 
Q 928 2841 928 2578 
Q 928 2378 1081 2264 
Q 1234 2150 1697 2047 
L 1894 2003 
Q 2506 1872 2764 1633 
Q 3022 1394 3022 966 
Q 3022 478 2636 193 
Q 2250 -91 1575 -91 
Q 1294 -91 989 -36 
Q 684 19 347 128 
L 347 722 
Q 666 556 975 473 
Q 1284 391 1588 391 
Q 1994 391 2212 530 
Q 2431 669 2431 922 
Q 2431 1156 2273 1281 
Q 2116 1406 1581 1522 
L 1381 1569 
Q 847 1681 609 1914 
Q 372 2147 372 2553 
Q 372 3047 722 3315 
Q 1072 3584 1716 3584 
Q 2034 3584 2315 3537 
Q 2597 3491 2834 3397 
z
" transform="scale(0.015625)"/>
     <path id="DejaVuSans-6f" d="M 1959 3097 
Q 1497 3097 1228 2736 
Q 959 2375 959 1747 
Q 959 1119 1226 758 
Q 1494 397 1959 397 
Q 2419 397 2687 759 
Q 2956 1122 2956 1747 
Q 2956 2369 2687 2733 
Q 2419 3097 1959 3097 
z
M 1959 3584 
Q 2709 3584 3137 3096 
Q 3566 2609 3566 1747 
Q 3566 888 3137 398 
Q 2709 -91 1959 -91 
Q 1206 -91 779 398 
Q 353 888 353 1747 
Q 353 2609 779 3096 
Q 1206 3584 1959 3584 
z
" transform="scale(0.015625)"/>
     <path id="DejaVuSans-6e" d="M 3513 2113 
L 3513 0 
L 2938 0 
L 2938 2094 
Q 2938 2591 2744 2837 
Q 2550 3084 2163 3084 
Q 1697 3084 1428 2787 
Q 1159 2491 1159 1978 
L 1159 0 
L 581 0 
L 581 3500 
L 1159 3500 
L 1159 2956 
Q 1366 3272 1645 3428 
Q 1925 3584 2291 3584 
Q 2894 3584 3203 3211 
Q 3513 2838 3513 2113 
z
" transform="scale(0.015625)"/>
     <path id="DejaVuSans-74" d="M 1172 4494 
L 1172 3500 
L 2356 3500 
L 2356 3053 
L 1172 3053 
L 1172 1153 
Q 1172 725 1289 603 
Q 1406 481 1766 481 
L 2356 481 
L 2356 0 
L 1766 0 
Q 1100 0 847 248 
Q 594 497 594 1153 
L 594 3053 
L 172 3053 
L 172 3500 
L 594 3500 
L 594 4494 
L 1172 4494 
z
" transform="scale(0.015625)"/>
     <path id="DejaVuSans-70" d="M 1159 525 
L 1159 -1331 
L 581 -1331 
L 581 3500 
L 1159 3500 
L 1159 2969 
Q 1341 3281 1617 3432 
Q 1894 3584 2278 3584 
Q 2916 3584 3314 3078 
Q 3713 2572 3713 1747 
Q 3713 922 3314 415 
Q 2916 -91 2278 -91 
Q 1894 -91 1617 61 
Q 1341 213 1159 525 
z
M 3116 1747 
Q 3116 2381 2855 2742 
Q 2594 3103 2138 3103 
Q 1681 3103 1420 2742 
Q 1159 2381 1159 1747 
Q 1159 1113 1420 752 
Q 1681 391 2138 391 
Q 2594 391 2855 752 
Q 3116 1113 3116 1747 
z
" transform="scale(0.015625)"/>
     <path id="DejaVuSans-63" d="M 3122 3366 
L 3122 2828 
Q 2878 2963 2633 3030 
Q 2388 3097 2138 3097 
Q 1578 3097 1268 2742 
Q 959 2388 959 1747 
Q 959 1106 1268 751 
Q 1578 397 2138 397 
Q 2388 397 2633 464 
Q 2878 531 3122 666 
L 3122 134 
Q 2881 22 2623 -34 
Q 2366 -91 2075 -91 
Q 1284 -91 818 406 
Q 353 903 353 1747 
Q 353 2603 823 3093 
Q 1294 3584 2113 3584 
Q 2378 3584 2631 3529 
Q 2884 3475 3122 3366 
z
" transform="scale(0.015625)"/>
    </defs>
    <use xlink:href="#DejaVuSans-53"/>
    <use xlink:href="#DejaVuSans-32" x="63.476562"/>
    <use xlink:href="#DejaVuSans-31" x="127.099609"/>
    <use xlink:href="#DejaVuSans-20" x="190.722656"/>
    <use xlink:href="#DejaVuSans-72" x="222.509766"/>
    <use xlink:href="#DejaVuSans-65" x="261.373047"/>
    <use xlink:href="#DejaVuSans-73" x="322.896484"/>
    <use xlink:href="#DejaVuSans-6f" x="374.996094"/>
    <use xlink:href="#DejaVuSans-6e" x="436.177734"/>
    <use xlink:href="#DejaVuSans-61" x="499.556641"/>
    <use xlink:href="#DejaVuSans-74" x="560.835938"/>
    <use xlink:href="#DejaVuSans-6f" x="600.044922"/>
    <use xlink:href="#DejaVuSans-72" x="661.226562"/>
    <use xlink:href="#DejaVuSans-20" x="702.339844"/>
    <use xlink:href="#DejaVuSans-73" x="734.126953"/>
    <use xlink:href="#DejaVuSans-70" x="786.226562"/>
    <use xlink:href="#DejaVuSans-65" x="849.703125"/>
    <use xlink:href="#DejaVuSans-63" x="911.226562"/>
    <use xlink:href="#DejaVuSans-74" x="966.207031"/>
    <use xlink:href="#DejaVuSans-72" x="1005.416016"/>
    <use xlink:href="#DejaVuSans-6f" x="1044.279297"/>
    <use xlink:href="#DejaVuSans-73" x="1105.460938"/>
    <use xlink:href="#DejaVuSans-63" x="1157.560547"/>
    <use xlink:href="#DejaVuSans-6f" x="1212.541016"/>
    <use xlink:href="#DejaVuSans-70" x="1273.722656"/>
    <use xlink:href="#DejaVuSans-79" x="1337.199219"/>
   </g>
   <!-- tuid: 20231225-155905-340-7f87b1 -->
   <g transform="translate(102.506875 29.7555) scale(0.12 -0.12)">
    <defs>
     <path id="DejaVuSans-69" d="M 603 3500 
L 1178 3500 
L 1178 0 
L 603 0 
L 603 3500 
z
M 603 4863 
L 1178 4863 
L 1178 4134 
L 603 4134 
L 603 4863 
z
" transform="scale(0.015625)"/>
     <path id="DejaVuSans-64" d="M 2906 2969 
L 2906 4863 
L 3481 4863 
L 3481 0 
L 2906 0 
L 2906 525 
Q 2725 213 2448 61 
Q 2172 -91 1784 -91 
Q 1150 -91 751 415 
Q 353 922 353 1747 
Q 353 2572 751 3078 
Q 1150 3584 1784 3584 
Q 2172 3584 2448 3432 
Q 2725 3281 2906 2969 
z
M 947 1747 
Q 947 1113 1208 752 
Q 1469 391 1925 391 
Q 2381 391 2643 752 
Q 2906 1113 2906 1747 
Q 2906 2381 2643 2742 
Q 2381 3103 1925 3103 
Q 1469 3103 1208 2742 
Q 947 2381 947 1747 
z
" transform="scale(0.015625)"/>
     <path id="DejaVuSans-66" d="M 2375 4863 
L 2375 4384 
L 1825 4384 
Q 1516 4384 1395 4259 
Q 1275 4134 1275 3809 
L 1275 3500 
L 2222 3500 
L 2222 3053 
L 1275 3053 
L 1275 0 
L 697 0 
L 697 3053 
L 147 3053 
L 147 3500 
L 697 3500 
L 697 3744 
Q 697 4328 969 4595 
Q 1241 4863 1831 4863 
L 2375 4863 
z
" transform="scale(0.015625)"/>
     <path id="DejaVuSans-62" d="M 3116 1747 
Q 3116 2381 2855 2742 
Q 2594 3103 2138 3103 
Q 1681 3103 1420 2742 
Q 1159 2381 1159 1747 
Q 1159 1113 1420 752 
Q 1681 391 2138 391 
Q 2594 391 2855 752 
Q 3116 1113 3116 1747 
z
M 1159 2969 
Q 1341 3281 1617 3432 
Q 1894 3584 2278 3584 
Q 2916 3584 3314 3078 
Q 3713 2572 3713 1747 
Q 3713 922 3314 415 
Q 2916 -91 2278 -91 
Q 1894 -91 1617 61 
Q 1341 213 1159 525 
L 1159 0 
L 581 0 
L 581 4863 
L 1159 4863 
L 1159 2969 
z
" transform="scale(0.015625)"/>
    </defs>
    <use xlink:href="#DejaVuSans-74"/>
    <use xlink:href="#DejaVuSans-75" x="39.208984"/>
    <use xlink:href="#DejaVuSans-69" x="102.587891"/>
    <use xlink:href="#DejaVuSans-64" x="130.371094"/>
    <use xlink:href="#DejaVuSans-3a" x="193.847656"/>
    <use xlink:href="#DejaVuSans-20" x="227.539062"/>
    <use xlink:href="#DejaVuSans-32" x="259.326172"/>
    <use xlink:href="#DejaVuSans-30" x="322.949219"/>
    <use xlink:href="#DejaVuSans-32" x="386.572266"/>
    <use xlink:href="#DejaVuSans-33" x="450.195312"/>
    <use xlink:href="#DejaVuSans-31" x="513.818359"/>
    <use xlink:href="#DejaVuSans-32" x="577.441406"/>
    <use xlink:href="#DejaVuSans-32" x="641.064453"/>
    <use xlink:href="#DejaVuSans-35" x="704.6875"/>
    <use xlink:href="#DejaVuSans-2d" x="768.310547"/>
    <use xlink:href="#DejaVuSans-31" x="804.394531"/>
    <use xlink:href="#DejaVuSans-35" x="868.017578"/>
    <use xlink:href="#DejaVuSans-35" x="931.640625"/>
    <use xlink:href="#DejaVuSans-39" x="995.263672"/>
    <use xlink:href="#DejaVuSans-30" x="1058.886719"/>
    <use xlink:href="#DejaVuSans-35" x="1122.509766"/>
    <use xlink:href="#DejaVuSans-2d" x="1186.132812"/>
    <use xlink:href="#DejaVuSans-33" x="1222.216797"/>
    <use xlink:href="#DejaVuSans-34" x="1285.839844"/>
    <use xlink:href="#DejaVuSans-30" x="1349.462891"/>
    <use xlink:href="#DejaVuSans-2d" x="1413.085938"/>
    <use xlink:href="#DejaVuSans-37" x="1449.169922"/>
    <use xlink:href="#DejaVuSans-66" x="1512.792969"/>
    <use xlink:href="#DejaVuSans-38" x="1547.998047"/>
    <use xlink:href="#DejaVuSans-37" x="1611.621094"/>
    <use xlink:href="#DejaVuSans-62" x="1675.244141"/>
    <use xlink:href="#DejaVuSans-31" x="1738.720703"/>
   </g>
  </g>
 </g>
 <defs>
  <clipPath id="pe08bbe9ae4">
   <rect x="37.848438" y="41.76" width="357.12" height="266.112"/>
  </clipPath>
 </defs>
</svg>
