<?xml version="1.0" encoding="utf-8" standalone="no"?>
<!DOCTYPE svg PUBLIC "-//W3C//DTD SVG 1.1//EN"
  "http://www.w3.org/Graphics/SVG/1.1/DTD/svg11.dtd">
<svg xmlns:xlink="http://www.w3.org/1999/xlink" width="647.026pt" height="345.42825pt" viewBox="0 0 647.026 345.42825" xmlns="http://www.w3.org/2000/svg" version="1.1">
 <metadata>
  <rdf:RDF xmlns:dc="http://purl.org/dc/elements/1.1/" xmlns:cc="http://creativecommons.org/ns#" xmlns:rdf="http://www.w3.org/1999/02/22-rdf-syntax-ns#">
   <cc:Work>
    <dc:type rdf:resource="http://purl.org/dc/dcmitype/StillImage"/>
    <dc:date>2023-12-25T16:02:22.454912</dc:date>
    <dc:format>image/svg+xml</dc:format>
    <dc:creator>
     <cc:Agent>
      <dc:title>Matplotlib v3.8.2, https://matplotlib.org/</dc:title>
     </cc:Agent>
    </dc:creator>
   </cc:Work>
  </rdf:RDF>
 </metadata>
 <defs>
  <style type="text/css">*{stroke-linejoin: round; stroke-linecap: butt}</style>
 </defs>
 <g id="figure_1">
  <g id="patch_1">
   <path d="M 0 345.42825 
L 647.026 345.42825 
L 647.026 -0 
L 0 -0 
L 0 345.42825 
z
" style="fill: none; opacity: 0"/>
  </g>
  <g id="axes_1">
   <g id="patch_2">
    <path d="M 40.603125 307.872 
L 397.723125 307.872 
L 397.723125 41.76 
L 40.603125 41.76 
z
" style="fill: #ffffff"/>
   </g>
   <g id="matplotlib.axis_1">
    <g id="xtick_1">
     <g id="line2d_1">
      <defs>
       <path id="m578b84010a" d="M 0 0 
L 0 3.5 
" style="stroke: #000000; stroke-width: 0.8"/>
      </defs>
      <g>
       <use xlink:href="#m578b84010a" x="77.898571" y="307.872" style="stroke: #000000; stroke-width: 0.8"/>
      </g>
     </g>
     <g id="text_1">
      <!-- 105 -->
      <g transform="translate(68.354821 322.470438) scale(0.1 -0.1)">
       <defs>
        <path id="DejaVuSans-31" d="M 794 531 
L 1825 531 
L 1825 4091 
L 703 3866 
L 703 4441 
L 1819 4666 
L 2450 4666 
L 2450 531 
L 3481 531 
L 3481 0 
L 794 0 
L 794 531 
z
" transform="scale(0.015625)"/>
        <path id="DejaVuSans-30" d="M 2034 4250 
Q 1547 4250 1301 3770 
Q 1056 3291 1056 2328 
Q 1056 1369 1301 889 
Q 1547 409 2034 409 
Q 2525 409 2770 889 
Q 3016 1369 3016 2328 
Q 3016 3291 2770 3770 
Q 2525 4250 2034 4250 
z
M 2034 4750 
Q 2819 4750 3233 4129 
Q 3647 3509 3647 2328 
Q 3647 1150 3233 529 
Q 2819 -91 2034 -91 
Q 1250 -91 836 529 
Q 422 1150 422 2328 
Q 422 3509 836 4129 
Q 1250 4750 2034 4750 
z
" transform="scale(0.015625)"/>
        <path id="DejaVuSans-35" d="M 691 4666 
L 3169 4666 
L 3169 4134 
L 1269 4134 
L 1269 2991 
Q 1406 3038 1543 3061 
Q 1681 3084 1819 3084 
Q 2600 3084 3056 2656 
Q 3513 2228 3513 1497 
Q 3513 744 3044 326 
Q 2575 -91 1722 -91 
Q 1428 -91 1123 -41 
Q 819 9 494 109 
L 494 744 
Q 775 591 1075 516 
Q 1375 441 1709 441 
Q 2250 441 2565 725 
Q 2881 1009 2881 1497 
Q 2881 1984 2565 2268 
Q 2250 2553 1709 2553 
Q 1456 2553 1204 2497 
Q 953 2441 691 2322 
L 691 4666 
z
" transform="scale(0.015625)"/>
       </defs>
       <use xlink:href="#DejaVuSans-31"/>
       <use xlink:href="#DejaVuSans-30" x="63.623047"/>
       <use xlink:href="#DejaVuSans-35" x="127.246094"/>
      </g>
     </g>
    </g>
    <g id="xtick_2">
     <g id="line2d_2">
      <g>
       <use xlink:href="#m578b84010a" x="118.48039" y="307.872" style="stroke: #000000; stroke-width: 0.8"/>
      </g>
     </g>
     <g id="text_2">
      <!-- 105.5 -->
      <g transform="translate(104.166327 322.470438) scale(0.1 -0.1)">
       <defs>
        <path id="DejaVuSans-2e" d="M 684 794 
L 1344 794 
L 1344 0 
L 684 0 
L 684 794 
z
" transform="scale(0.015625)"/>
       </defs>
       <use xlink:href="#DejaVuSans-31"/>
       <use xlink:href="#DejaVuSans-30" x="63.623047"/>
       <use xlink:href="#DejaVuSans-35" x="127.246094"/>
       <use xlink:href="#DejaVuSans-2e" x="190.869141"/>
       <use xlink:href="#DejaVuSans-35" x="222.65625"/>
      </g>
     </g>
    </g>
    <g id="xtick_3">
     <g id="line2d_3">
      <g>
       <use xlink:href="#m578b84010a" x="159.062208" y="307.872" style="stroke: #000000; stroke-width: 0.8"/>
      </g>
     </g>
     <g id="text_3">
      <!-- 106 -->
      <g transform="translate(149.518458 322.470438) scale(0.1 -0.1)">
       <defs>
        <path id="DejaVuSans-36" d="M 2113 2584 
Q 1688 2584 1439 2293 
Q 1191 2003 1191 1497 
Q 1191 994 1439 701 
Q 1688 409 2113 409 
Q 2538 409 2786 701 
Q 3034 994 3034 1497 
Q 3034 2003 2786 2293 
Q 2538 2584 2113 2584 
z
M 3366 4563 
L 3366 3988 
Q 3128 4100 2886 4159 
Q 2644 4219 2406 4219 
Q 1781 4219 1451 3797 
Q 1122 3375 1075 2522 
Q 1259 2794 1537 2939 
Q 1816 3084 2150 3084 
Q 2853 3084 3261 2657 
Q 3669 2231 3669 1497 
Q 3669 778 3244 343 
Q 2819 -91 2113 -91 
Q 1303 -91 875 529 
Q 447 1150 447 2328 
Q 447 3434 972 4092 
Q 1497 4750 2381 4750 
Q 2619 4750 2861 4703 
Q 3103 4656 3366 4563 
z
" transform="scale(0.015625)"/>
       </defs>
       <use xlink:href="#DejaVuSans-31"/>
       <use xlink:href="#DejaVuSans-30" x="63.623047"/>
       <use xlink:href="#DejaVuSans-36" x="127.246094"/>
      </g>
     </g>
    </g>
    <g id="xtick_4">
     <g id="line2d_4">
      <g>
       <use xlink:href="#m578b84010a" x="199.644026" y="307.872" style="stroke: #000000; stroke-width: 0.8"/>
      </g>
     </g>
     <g id="text_4">
      <!-- 106.5 -->
      <g transform="translate(185.329963 322.470438) scale(0.1 -0.1)">
       <use xlink:href="#DejaVuSans-31"/>
       <use xlink:href="#DejaVuSans-30" x="63.623047"/>
       <use xlink:href="#DejaVuSans-36" x="127.246094"/>
       <use xlink:href="#DejaVuSans-2e" x="190.869141"/>
       <use xlink:href="#DejaVuSans-35" x="222.65625"/>
      </g>
     </g>
    </g>
    <g id="xtick_5">
     <g id="line2d_5">
      <g>
       <use xlink:href="#m578b84010a" x="240.225844" y="307.872" style="stroke: #000000; stroke-width: 0.8"/>
      </g>
     </g>
     <g id="text_5">
      <!-- 107 -->
      <g transform="translate(230.682094 322.470438) scale(0.1 -0.1)">
       <defs>
        <path id="DejaVuSans-37" d="M 525 4666 
L 3525 4666 
L 3525 4397 
L 1831 0 
L 1172 0 
L 2766 4134 
L 525 4134 
L 525 4666 
z
" transform="scale(0.015625)"/>
       </defs>
       <use xlink:href="#DejaVuSans-31"/>
       <use xlink:href="#DejaVuSans-30" x="63.623047"/>
       <use xlink:href="#DejaVuSans-37" x="127.246094"/>
      </g>
     </g>
    </g>
    <g id="xtick_6">
     <g id="line2d_6">
      <g>
       <use xlink:href="#m578b84010a" x="280.807662" y="307.872" style="stroke: #000000; stroke-width: 0.8"/>
      </g>
     </g>
     <g id="text_6">
      <!-- 107.5 -->
      <g transform="translate(266.4936 322.470438) scale(0.1 -0.1)">
       <use xlink:href="#DejaVuSans-31"/>
       <use xlink:href="#DejaVuSans-30" x="63.623047"/>
       <use xlink:href="#DejaVuSans-37" x="127.246094"/>
       <use xlink:href="#DejaVuSans-2e" x="190.869141"/>
       <use xlink:href="#DejaVuSans-35" x="222.65625"/>
      </g>
     </g>
    </g>
    <g id="xtick_7">
     <g id="line2d_7">
      <g>
       <use xlink:href="#m578b84010a" x="321.389481" y="307.872" style="stroke: #000000; stroke-width: 0.8"/>
      </g>
     </g>
     <g id="text_7">
      <!-- 108 -->
      <g transform="translate(311.845731 322.470438) scale(0.1 -0.1)">
       <defs>
        <path id="DejaVuSans-38" d="M 2034 2216 
Q 1584 2216 1326 1975 
Q 1069 1734 1069 1313 
Q 1069 891 1326 650 
Q 1584 409 2034 409 
Q 2484 409 2743 651 
Q 3003 894 3003 1313 
Q 3003 1734 2745 1975 
Q 2488 2216 2034 2216 
z
M 1403 2484 
Q 997 2584 770 2862 
Q 544 3141 544 3541 
Q 544 4100 942 4425 
Q 1341 4750 2034 4750 
Q 2731 4750 3128 4425 
Q 3525 4100 3525 3541 
Q 3525 3141 3298 2862 
Q 3072 2584 2669 2484 
Q 3125 2378 3379 2068 
Q 3634 1759 3634 1313 
Q 3634 634 3220 271 
Q 2806 -91 2034 -91 
Q 1263 -91 848 271 
Q 434 634 434 1313 
Q 434 1759 690 2068 
Q 947 2378 1403 2484 
z
M 1172 3481 
Q 1172 3119 1398 2916 
Q 1625 2713 2034 2713 
Q 2441 2713 2670 2916 
Q 2900 3119 2900 3481 
Q 2900 3844 2670 4047 
Q 2441 4250 2034 4250 
Q 1625 4250 1398 4047 
Q 1172 3844 1172 3481 
z
" transform="scale(0.015625)"/>
       </defs>
       <use xlink:href="#DejaVuSans-31"/>
       <use xlink:href="#DejaVuSans-30" x="63.623047"/>
       <use xlink:href="#DejaVuSans-38" x="127.246094"/>
      </g>
     </g>
    </g>
    <g id="xtick_8">
     <g id="line2d_8">
      <g>
       <use xlink:href="#m578b84010a" x="361.971299" y="307.872" style="stroke: #000000; stroke-width: 0.8"/>
      </g>
     </g>
     <g id="text_8">
      <!-- 108.5 -->
      <g transform="translate(347.657236 322.470438) scale(0.1 -0.1)">
       <use xlink:href="#DejaVuSans-31"/>
       <use xlink:href="#DejaVuSans-30" x="63.623047"/>
       <use xlink:href="#DejaVuSans-38" x="127.246094"/>
       <use xlink:href="#DejaVuSans-2e" x="190.869141"/>
       <use xlink:href="#DejaVuSans-35" x="222.65625"/>
      </g>
     </g>
    </g>
    <g id="text_9">
     <!-- Frequency [MHz] -->
     <g transform="translate(177.144375 336.148562) scale(0.1 -0.1)">
      <defs>
       <path id="DejaVuSans-46" d="M 628 4666 
L 3309 4666 
L 3309 4134 
L 1259 4134 
L 1259 2759 
L 3109 2759 
L 3109 2228 
L 1259 2228 
L 1259 0 
L 628 0 
L 628 4666 
z
" transform="scale(0.015625)"/>
       <path id="DejaVuSans-72" d="M 2631 2963 
Q 2534 3019 2420 3045 
Q 2306 3072 2169 3072 
Q 1681 3072 1420 2755 
Q 1159 2438 1159 1844 
L 1159 0 
L 581 0 
L 581 3500 
L 1159 3500 
L 1159 2956 
Q 1341 3275 1631 3429 
Q 1922 3584 2338 3584 
Q 2397 3584 2469 3576 
Q 2541 3569 2628 3553 
L 2631 2963 
z
" transform="scale(0.015625)"/>
       <path id="DejaVuSans-65" d="M 3597 1894 
L 3597 1613 
L 953 1613 
Q 991 1019 1311 708 
Q 1631 397 2203 397 
Q 2534 397 2845 478 
Q 3156 559 3463 722 
L 3463 178 
Q 3153 47 2828 -22 
Q 2503 -91 2169 -91 
Q 1331 -91 842 396 
Q 353 884 353 1716 
Q 353 2575 817 3079 
Q 1281 3584 2069 3584 
Q 2775 3584 3186 3129 
Q 3597 2675 3597 1894 
z
M 3022 2063 
Q 3016 2534 2758 2815 
Q 2500 3097 2075 3097 
Q 1594 3097 1305 2825 
Q 1016 2553 972 2059 
L 3022 2063 
z
" transform="scale(0.015625)"/>
       <path id="DejaVuSans-71" d="M 947 1747 
Q 947 1113 1208 752 
Q 1469 391 1925 391 
Q 2381 391 2643 752 
Q 2906 1113 2906 1747 
Q 2906 2381 2643 2742 
Q 2381 3103 1925 3103 
Q 1469 3103 1208 2742 
Q 947 2381 947 1747 
z
M 2906 525 
Q 2725 213 2448 61 
Q 2172 -91 1784 -91 
Q 1150 -91 751 415 
Q 353 922 353 1747 
Q 353 2572 751 3078 
Q 1150 3584 1784 3584 
Q 2172 3584 2448 3432 
Q 2725 3281 2906 2969 
L 2906 3500 
L 3481 3500 
L 3481 -1331 
L 2906 -1331 
L 2906 525 
z
" transform="scale(0.015625)"/>
       <path id="DejaVuSans-75" d="M 544 1381 
L 544 3500 
L 1119 3500 
L 1119 1403 
Q 1119 906 1312 657 
Q 1506 409 1894 409 
Q 2359 409 2629 706 
Q 2900 1003 2900 1516 
L 2900 3500 
L 3475 3500 
L 3475 0 
L 2900 0 
L 2900 538 
Q 2691 219 2414 64 
Q 2138 -91 1772 -91 
Q 1169 -91 856 284 
Q 544 659 544 1381 
z
M 1991 3584 
L 1991 3584 
z
" transform="scale(0.015625)"/>
       <path id="DejaVuSans-6e" d="M 3513 2113 
L 3513 0 
L 2938 0 
L 2938 2094 
Q 2938 2591 2744 2837 
Q 2550 3084 2163 3084 
Q 1697 3084 1428 2787 
Q 1159 2491 1159 1978 
L 1159 0 
L 581 0 
L 581 3500 
L 1159 3500 
L 1159 2956 
Q 1366 3272 1645 3428 
Q 1925 3584 2291 3584 
Q 2894 3584 3203 3211 
Q 3513 2838 3513 2113 
z
" transform="scale(0.015625)"/>
       <path id="DejaVuSans-63" d="M 3122 3366 
L 3122 2828 
Q 2878 2963 2633 3030 
Q 2388 3097 2138 3097 
Q 1578 3097 1268 2742 
Q 959 2388 959 1747 
Q 959 1106 1268 751 
Q 1578 397 2138 397 
Q 2388 397 2633 464 
Q 2878 531 3122 666 
L 3122 134 
Q 2881 22 2623 -34 
Q 2366 -91 2075 -91 
Q 1284 -91 818 406 
Q 353 903 353 1747 
Q 353 2603 823 3093 
Q 1294 3584 2113 3584 
Q 2378 3584 2631 3529 
Q 2884 3475 3122 3366 
z
" transform="scale(0.015625)"/>
       <path id="DejaVuSans-79" d="M 2059 -325 
Q 1816 -950 1584 -1140 
Q 1353 -1331 966 -1331 
L 506 -1331 
L 506 -850 
L 844 -850 
Q 1081 -850 1212 -737 
Q 1344 -625 1503 -206 
L 1606 56 
L 191 3500 
L 800 3500 
L 1894 763 
L 2988 3500 
L 3597 3500 
L 2059 -325 
z
" transform="scale(0.015625)"/>
       <path id="DejaVuSans-20" transform="scale(0.015625)"/>
       <path id="DejaVuSans-5b" d="M 550 4863 
L 1875 4863 
L 1875 4416 
L 1125 4416 
L 1125 -397 
L 1875 -397 
L 1875 -844 
L 550 -844 
L 550 4863 
z
" transform="scale(0.015625)"/>
       <path id="DejaVuSans-4d" d="M 628 4666 
L 1569 4666 
L 2759 1491 
L 3956 4666 
L 4897 4666 
L 4897 0 
L 4281 0 
L 4281 4097 
L 3078 897 
L 2444 897 
L 1241 4097 
L 1241 0 
L 628 0 
L 628 4666 
z
" transform="scale(0.015625)"/>
       <path id="DejaVuSans-48" d="M 628 4666 
L 1259 4666 
L 1259 2753 
L 3553 2753 
L 3553 4666 
L 4184 4666 
L 4184 0 
L 3553 0 
L 3553 2222 
L 1259 2222 
L 1259 0 
L 628 0 
L 628 4666 
z
" transform="scale(0.015625)"/>
       <path id="DejaVuSans-7a" d="M 353 3500 
L 3084 3500 
L 3084 2975 
L 922 459 
L 3084 459 
L 3084 0 
L 275 0 
L 275 525 
L 2438 3041 
L 353 3041 
L 353 3500 
z
" transform="scale(0.015625)"/>
       <path id="DejaVuSans-5d" d="M 1947 4863 
L 1947 -844 
L 622 -844 
L 622 -397 
L 1369 -397 
L 1369 4416 
L 622 4416 
L 622 4863 
L 1947 4863 
z
" transform="scale(0.015625)"/>
      </defs>
      <use xlink:href="#DejaVuSans-46"/>
      <use xlink:href="#DejaVuSans-72" x="50.269531"/>
      <use xlink:href="#DejaVuSans-65" x="89.132812"/>
      <use xlink:href="#DejaVuSans-71" x="150.65625"/>
      <use xlink:href="#DejaVuSans-75" x="214.132812"/>
      <use xlink:href="#DejaVuSans-65" x="277.511719"/>
      <use xlink:href="#DejaVuSans-6e" x="339.035156"/>
      <use xlink:href="#DejaVuSans-63" x="402.414062"/>
      <use xlink:href="#DejaVuSans-79" x="457.394531"/>
      <use xlink:href="#DejaVuSans-20" x="516.574219"/>
      <use xlink:href="#DejaVuSans-5b" x="548.361328"/>
      <use xlink:href="#DejaVuSans-4d" x="587.375"/>
      <use xlink:href="#DejaVuSans-48" x="673.654297"/>
      <use xlink:href="#DejaVuSans-7a" x="748.849609"/>
      <use xlink:href="#DejaVuSans-5d" x="801.339844"/>
     </g>
    </g>
    <g id="text_10">
     <!-- +6 GHz -->
     <g transform="translate(359.285625 335.148562) scale(0.1 -0.1)">
      <defs>
       <path id="DejaVuSans-2b" d="M 2944 4013 
L 2944 2272 
L 4684 2272 
L 4684 1741 
L 2944 1741 
L 2944 0 
L 2419 0 
L 2419 1741 
L 678 1741 
L 678 2272 
L 2419 2272 
L 2419 4013 
L 2944 4013 
z
" transform="scale(0.015625)"/>
       <path id="DejaVuSans-47" d="M 3809 666 
L 3809 1919 
L 2778 1919 
L 2778 2438 
L 4434 2438 
L 4434 434 
Q 4069 175 3628 42 
Q 3188 -91 2688 -91 
Q 1594 -91 976 548 
Q 359 1188 359 2328 
Q 359 3472 976 4111 
Q 1594 4750 2688 4750 
Q 3144 4750 3555 4637 
Q 3966 4525 4313 4306 
L 4313 3634 
Q 3963 3931 3569 4081 
Q 3175 4231 2741 4231 
Q 1884 4231 1454 3753 
Q 1025 3275 1025 2328 
Q 1025 1384 1454 906 
Q 1884 428 2741 428 
Q 3075 428 3337 486 
Q 3600 544 3809 666 
z
" transform="scale(0.015625)"/>
      </defs>
      <use xlink:href="#DejaVuSans-2b"/>
      <use xlink:href="#DejaVuSans-36" x="83.789062"/>
      <use xlink:href="#DejaVuSans-20" x="147.412109"/>
      <use xlink:href="#DejaVuSans-47" x="179.199219"/>
      <use xlink:href="#DejaVuSans-48" x="256.689453"/>
      <use xlink:href="#DejaVuSans-7a" x="331.884766"/>
     </g>
    </g>
   </g>
   <g id="matplotlib.axis_2">
    <g id="ytick_1">
     <g id="line2d_9">
      <defs>
       <path id="mc3dadbcd79" d="M 0 0 
L -3.5 0 
" style="stroke: #000000; stroke-width: 0.8"/>
      </defs>
      <g>
       <use xlink:href="#mc3dadbcd79" x="40.603125" y="296.281318" style="stroke: #000000; stroke-width: 0.8"/>
      </g>
     </g>
     <g id="text_11">
      <!-- 0 -->
      <g transform="translate(27.240625 300.080537) scale(0.1 -0.1)">
       <use xlink:href="#DejaVuSans-30"/>
      </g>
     </g>
    </g>
    <g id="ytick_2">
     <g id="line2d_10">
      <g>
       <use xlink:href="#mc3dadbcd79" x="40.603125" y="241.346455" style="stroke: #000000; stroke-width: 0.8"/>
      </g>
     </g>
     <g id="text_12">
      <!-- 10 -->
      <g transform="translate(20.878125 245.145674) scale(0.1 -0.1)">
       <use xlink:href="#DejaVuSans-31"/>
       <use xlink:href="#DejaVuSans-30" x="63.623047"/>
      </g>
     </g>
    </g>
    <g id="ytick_3">
     <g id="line2d_11">
      <g>
       <use xlink:href="#mc3dadbcd79" x="40.603125" y="186.411592" style="stroke: #000000; stroke-width: 0.8"/>
      </g>
     </g>
     <g id="text_13">
      <!-- 20 -->
      <g transform="translate(20.878125 190.21081) scale(0.1 -0.1)">
       <defs>
        <path id="DejaVuSans-32" d="M 1228 531 
L 3431 531 
L 3431 0 
L 469 0 
L 469 531 
Q 828 903 1448 1529 
Q 2069 2156 2228 2338 
Q 2531 2678 2651 2914 
Q 2772 3150 2772 3378 
Q 2772 3750 2511 3984 
Q 2250 4219 1831 4219 
Q 1534 4219 1204 4116 
Q 875 4013 500 3803 
L 500 4441 
Q 881 4594 1212 4672 
Q 1544 4750 1819 4750 
Q 2544 4750 2975 4387 
Q 3406 4025 3406 3419 
Q 3406 3131 3298 2873 
Q 3191 2616 2906 2266 
Q 2828 2175 2409 1742 
Q 1991 1309 1228 531 
z
" transform="scale(0.015625)"/>
       </defs>
       <use xlink:href="#DejaVuSans-32"/>
       <use xlink:href="#DejaVuSans-30" x="63.623047"/>
      </g>
     </g>
    </g>
    <g id="ytick_4">
     <g id="line2d_12">
      <g>
       <use xlink:href="#mc3dadbcd79" x="40.603125" y="131.476728" style="stroke: #000000; stroke-width: 0.8"/>
      </g>
     </g>
     <g id="text_14">
      <!-- 30 -->
      <g transform="translate(20.878125 135.275947) scale(0.1 -0.1)">
       <defs>
        <path id="DejaVuSans-33" d="M 2597 2516 
Q 3050 2419 3304 2112 
Q 3559 1806 3559 1356 
Q 3559 666 3084 287 
Q 2609 -91 1734 -91 
Q 1441 -91 1130 -33 
Q 819 25 488 141 
L 488 750 
Q 750 597 1062 519 
Q 1375 441 1716 441 
Q 2309 441 2620 675 
Q 2931 909 2931 1356 
Q 2931 1769 2642 2001 
Q 2353 2234 1838 2234 
L 1294 2234 
L 1294 2753 
L 1863 2753 
Q 2328 2753 2575 2939 
Q 2822 3125 2822 3475 
Q 2822 3834 2567 4026 
Q 2313 4219 1838 4219 
Q 1578 4219 1281 4162 
Q 984 4106 628 3988 
L 628 4550 
Q 988 4650 1302 4700 
Q 1616 4750 1894 4750 
Q 2613 4750 3031 4423 
Q 3450 4097 3450 3541 
Q 3450 3153 3228 2886 
Q 3006 2619 2597 2516 
z
" transform="scale(0.015625)"/>
       </defs>
       <use xlink:href="#DejaVuSans-33"/>
       <use xlink:href="#DejaVuSans-30" x="63.623047"/>
      </g>
     </g>
    </g>
    <g id="ytick_5">
     <g id="line2d_13">
      <g>
       <use xlink:href="#mc3dadbcd79" x="40.603125" y="76.541865" style="stroke: #000000; stroke-width: 0.8"/>
      </g>
     </g>
     <g id="text_15">
      <!-- 40 -->
      <g transform="translate(20.878125 80.341084) scale(0.1 -0.1)">
       <defs>
        <path id="DejaVuSans-34" d="M 2419 4116 
L 825 1625 
L 2419 1625 
L 2419 4116 
z
M 2253 4666 
L 3047 4666 
L 3047 1625 
L 3713 1625 
L 3713 1100 
L 3047 1100 
L 3047 0 
L 2419 0 
L 2419 1100 
L 313 1100 
L 313 1709 
L 2253 4666 
z
" transform="scale(0.015625)"/>
       </defs>
       <use xlink:href="#DejaVuSans-34"/>
       <use xlink:href="#DejaVuSans-30" x="63.623047"/>
      </g>
     </g>
    </g>
    <g id="text_16">
     <!-- Magnitude0 [mV] -->
     <g transform="translate(14.798438 218.268344) rotate(-90) scale(0.1 -0.1)">
      <defs>
       <path id="DejaVuSans-61" d="M 2194 1759 
Q 1497 1759 1228 1600 
Q 959 1441 959 1056 
Q 959 750 1161 570 
Q 1363 391 1709 391 
Q 2188 391 2477 730 
Q 2766 1069 2766 1631 
L 2766 1759 
L 2194 1759 
z
M 3341 1997 
L 3341 0 
L 2766 0 
L 2766 531 
Q 2569 213 2275 61 
Q 1981 -91 1556 -91 
Q 1019 -91 701 211 
Q 384 513 384 1019 
Q 384 1609 779 1909 
Q 1175 2209 1959 2209 
L 2766 2209 
L 2766 2266 
Q 2766 2663 2505 2880 
Q 2244 3097 1772 3097 
Q 1472 3097 1187 3025 
Q 903 2953 641 2809 
L 641 3341 
Q 956 3463 1253 3523 
Q 1550 3584 1831 3584 
Q 2591 3584 2966 3190 
Q 3341 2797 3341 1997 
z
" transform="scale(0.015625)"/>
       <path id="DejaVuSans-67" d="M 2906 1791 
Q 2906 2416 2648 2759 
Q 2391 3103 1925 3103 
Q 1463 3103 1205 2759 
Q 947 2416 947 1791 
Q 947 1169 1205 825 
Q 1463 481 1925 481 
Q 2391 481 2648 825 
Q 2906 1169 2906 1791 
z
M 3481 434 
Q 3481 -459 3084 -895 
Q 2688 -1331 1869 -1331 
Q 1566 -1331 1297 -1286 
Q 1028 -1241 775 -1147 
L 775 -588 
Q 1028 -725 1275 -790 
Q 1522 -856 1778 -856 
Q 2344 -856 2625 -561 
Q 2906 -266 2906 331 
L 2906 616 
Q 2728 306 2450 153 
Q 2172 0 1784 0 
Q 1141 0 747 490 
Q 353 981 353 1791 
Q 353 2603 747 3093 
Q 1141 3584 1784 3584 
Q 2172 3584 2450 3431 
Q 2728 3278 2906 2969 
L 2906 3500 
L 3481 3500 
L 3481 434 
z
" transform="scale(0.015625)"/>
       <path id="DejaVuSans-69" d="M 603 3500 
L 1178 3500 
L 1178 0 
L 603 0 
L 603 3500 
z
M 603 4863 
L 1178 4863 
L 1178 4134 
L 603 4134 
L 603 4863 
z
" transform="scale(0.015625)"/>
       <path id="DejaVuSans-74" d="M 1172 4494 
L 1172 3500 
L 2356 3500 
L 2356 3053 
L 1172 3053 
L 1172 1153 
Q 1172 725 1289 603 
Q 1406 481 1766 481 
L 2356 481 
L 2356 0 
L 1766 0 
Q 1100 0 847 248 
Q 594 497 594 1153 
L 594 3053 
L 172 3053 
L 172 3500 
L 594 3500 
L 594 4494 
L 1172 4494 
z
" transform="scale(0.015625)"/>
       <path id="DejaVuSans-64" d="M 2906 2969 
L 2906 4863 
L 3481 4863 
L 3481 0 
L 2906 0 
L 2906 525 
Q 2725 213 2448 61 
Q 2172 -91 1784 -91 
Q 1150 -91 751 415 
Q 353 922 353 1747 
Q 353 2572 751 3078 
Q 1150 3584 1784 3584 
Q 2172 3584 2448 3432 
Q 2725 3281 2906 2969 
z
M 947 1747 
Q 947 1113 1208 752 
Q 1469 391 1925 391 
Q 2381 391 2643 752 
Q 2906 1113 2906 1747 
Q 2906 2381 2643 2742 
Q 2381 3103 1925 3103 
Q 1469 3103 1208 2742 
Q 947 2381 947 1747 
z
" transform="scale(0.015625)"/>
       <path id="DejaVuSans-6d" d="M 3328 2828 
Q 3544 3216 3844 3400 
Q 4144 3584 4550 3584 
Q 5097 3584 5394 3201 
Q 5691 2819 5691 2113 
L 5691 0 
L 5113 0 
L 5113 2094 
Q 5113 2597 4934 2840 
Q 4756 3084 4391 3084 
Q 3944 3084 3684 2787 
Q 3425 2491 3425 1978 
L 3425 0 
L 2847 0 
L 2847 2094 
Q 2847 2600 2669 2842 
Q 2491 3084 2119 3084 
Q 1678 3084 1418 2786 
Q 1159 2488 1159 1978 
L 1159 0 
L 581 0 
L 581 3500 
L 1159 3500 
L 1159 2956 
Q 1356 3278 1631 3431 
Q 1906 3584 2284 3584 
Q 2666 3584 2933 3390 
Q 3200 3197 3328 2828 
z
" transform="scale(0.015625)"/>
       <path id="DejaVuSans-56" d="M 1831 0 
L 50 4666 
L 709 4666 
L 2188 738 
L 3669 4666 
L 4325 4666 
L 2547 0 
L 1831 0 
z
" transform="scale(0.015625)"/>
      </defs>
      <use xlink:href="#DejaVuSans-4d"/>
      <use xlink:href="#DejaVuSans-61" x="86.279297"/>
      <use xlink:href="#DejaVuSans-67" x="147.558594"/>
      <use xlink:href="#DejaVuSans-6e" x="211.035156"/>
      <use xlink:href="#DejaVuSans-69" x="274.414062"/>
      <use xlink:href="#DejaVuSans-74" x="302.197266"/>
      <use xlink:href="#DejaVuSans-75" x="341.40625"/>
      <use xlink:href="#DejaVuSans-64" x="404.785156"/>
      <use xlink:href="#DejaVuSans-65" x="468.261719"/>
      <use xlink:href="#DejaVuSans-30" x="529.785156"/>
      <use xlink:href="#DejaVuSans-20" x="593.408203"/>
      <use xlink:href="#DejaVuSans-5b" x="625.195312"/>
      <use xlink:href="#DejaVuSans-6d" x="664.208984"/>
      <use xlink:href="#DejaVuSans-56" x="761.621094"/>
      <use xlink:href="#DejaVuSans-5d" x="830.029297"/>
     </g>
    </g>
   </g>
   <g id="line2d_14">
    <path d="M 56.835852 292.458756 
L 68.030837 292.106635 
L 79.225821 292.62866 
L 90.420805 293.515079 
L 101.61579 292.575278 
L 112.810774 292.895446 
L 124.005758 293.561422 
L 135.200743 292.937211 
L 146.395727 293.491371 
L 157.590711 293.866409 
L 168.785696 294.160402 
L 179.98068 294.312174 
L 191.175664 294.421499 
L 202.370649 295.181491 
L 213.565633 295.55365 
L 224.760617 295.644411 
L 235.955601 295.14053 
L 247.150586 295.776 
L 258.34557 295.199903 
L 269.540554 294.902159 
L 280.735539 294.419555 
L 291.930523 294.337966 
L 303.125507 293.921953 
L 314.320492 293.670335 
L 325.515476 293.567623 
L 336.71046 293.691845 
L 347.905445 293.578722 
L 359.100429 293.069055 
L 370.295413 292.916877 
L 381.490398 293.051049 
" clip-path="url(#p1d1170d9fd)" style="fill: none; stroke: #440154; stroke-width: 1.5; stroke-linecap: square"/>
   </g>
   <g id="line2d_15">
    <path d="M 56.835852 283.873619 
L 68.030837 283.940912 
L 79.225821 284.246397 
L 90.420805 284.433708 
L 101.61579 284.883513 
L 112.810774 285.072376 
L 124.005758 285.853603 
L 135.200743 286.401701 
L 146.395727 287.147227 
L 157.590711 288.146436 
L 168.785696 288.864772 
L 179.98068 289.914058 
L 191.175664 290.692781 
L 202.370649 291.469023 
L 213.565633 293.179953 
L 224.760617 293.888357 
L 235.955601 294.286691 
L 247.150586 293.857027 
L 258.34557 292.69309 
L 269.540554 291.949164 
L 280.735539 291.313599 
L 291.930523 289.809571 
L 303.125507 288.921656 
L 314.320492 288.382192 
L 325.515476 287.773787 
L 336.71046 287.125741 
L 347.905445 286.850272 
L 359.100429 286.179142 
L 370.295413 285.967158 
L 381.490398 285.20833 
" clip-path="url(#p1d1170d9fd)" style="fill: none; stroke: #470d60; stroke-width: 1.5; stroke-linecap: square"/>
   </g>
   <g id="line2d_16">
    <path d="M 56.835852 274.970625 
L 68.030837 275.542092 
L 79.225821 275.346552 
L 90.420805 276.323942 
L 101.61579 276.78936 
L 112.810774 277.413127 
L 124.005758 278.620403 
L 135.200743 279.828574 
L 146.395727 280.202242 
L 157.590711 281.63661 
L 168.785696 283.064242 
L 179.98068 285.115387 
L 191.175664 286.95057 
L 202.370649 288.601153 
L 213.565633 290.303956 
L 224.760617 292.127167 
L 235.955601 293.039959 
L 247.150586 292.697109 
L 258.34557 290.942721 
L 269.540554 289.715559 
L 280.735539 287.882638 
L 291.930523 285.354837 
L 303.125507 284.510553 
L 314.320492 282.835974 
L 325.515476 281.131896 
L 336.71046 280.700393 
L 347.905445 279.580931 
L 359.100429 278.933504 
L 370.295413 277.852801 
L 381.490398 277.680151 
" clip-path="url(#p1d1170d9fd)" style="fill: none; stroke: #481a6c; stroke-width: 1.5; stroke-linecap: square"/>
   </g>
   <g id="line2d_17">
    <path d="M 56.835852 265.667348 
L 68.030837 266.839887 
L 79.225821 267.219138 
L 90.420805 267.680308 
L 101.61579 269.090146 
L 112.810774 270.715772 
L 124.005758 271.203134 
L 135.200743 272.625802 
L 146.395727 274.149516 
L 157.590711 275.728511 
L 168.785696 278.19237 
L 179.98068 280.293751 
L 191.175664 282.977785 
L 202.370649 285.751094 
L 213.565633 288.34204 
L 224.760617 290.491751 
L 235.955601 292.092734 
L 247.150586 291.510942 
L 258.34557 289.102182 
L 269.540554 286.415572 
L 280.735539 283.827116 
L 291.930523 281.533179 
L 303.125507 279.272065 
L 314.320492 277.4841 
L 325.515476 275.438188 
L 336.71046 274.006224 
L 347.905445 272.950647 
L 359.100429 271.671211 
L 370.295413 270.78932 
L 381.490398 269.473677 
" clip-path="url(#p1d1170d9fd)" style="fill: none; stroke: #482576; stroke-width: 1.5; stroke-linecap: square"/>
   </g>
   <g id="line2d_18">
    <path d="M 56.835852 256.985883 
L 68.030837 257.581285 
L 79.225821 258.497072 
L 90.420805 259.710711 
L 101.61579 261.285152 
L 112.810774 262.203983 
L 124.005758 263.765857 
L 135.200743 265.496707 
L 146.395727 267.327179 
L 157.590711 270.06463 
L 168.785696 272.88545 
L 179.98068 275.273915 
L 191.175664 278.747003 
L 202.370649 282.243822 
L 213.565633 285.808353 
L 224.760617 289.310315 
L 235.955601 290.583533 
L 247.150586 289.646485 
L 258.34557 287.277624 
L 269.540554 283.264111 
L 280.735539 280.290478 
L 291.930523 276.866811 
L 303.125507 275.113606 
L 314.320492 271.663505 
L 325.515476 269.519007 
L 336.71046 267.926116 
L 347.905445 265.735227 
L 359.100429 264.956145 
L 370.295413 263.674283 
L 381.490398 262.532858 
" clip-path="url(#p1d1170d9fd)" style="fill: none; stroke: #46307e; stroke-width: 1.5; stroke-linecap: square"/>
   </g>
   <g id="line2d_19">
    <path d="M 56.835852 248.126149 
L 68.030837 249.329263 
L 79.225821 250.007672 
L 90.420805 251.276644 
L 101.61579 252.700688 
L 112.810774 254.925366 
L 124.005758 256.391628 
L 135.200743 258.838426 
L 146.395727 261.18347 
L 157.590711 264.204589 
L 168.785696 267.375805 
L 179.98068 271.234509 
L 191.175664 275.058533 
L 202.370649 279.456352 
L 213.565633 284.161107 
L 224.760617 287.840174 
L 235.955601 289.641111 
L 247.150586 288.36064 
L 258.34557 284.921783 
L 269.540554 280.136835 
L 280.735539 276.628697 
L 291.930523 272.807859 
L 303.125507 269.177341 
L 314.320492 266.214538 
L 325.515476 263.673734 
L 336.71046 261.116654 
L 347.905445 259.274173 
L 359.100429 257.495978 
L 370.295413 255.7628 
L 381.490398 254.308283 
" clip-path="url(#p1d1170d9fd)" style="fill: none; stroke: #443b84; stroke-width: 1.5; stroke-linecap: square"/>
   </g>
   <g id="line2d_20">
    <path d="M 56.835852 239.716109 
L 68.030837 240.534177 
L 79.225821 241.888121 
L 90.420805 243.274704 
L 101.61579 244.877627 
L 112.810774 246.761699 
L 124.005758 249.28986 
L 135.200743 251.729483 
L 146.395727 255.098337 
L 157.590711 258.66206 
L 168.785696 261.757428 
L 179.98068 266.220753 
L 191.175664 271.506927 
L 202.370649 276.201816 
L 213.565633 281.735605 
L 224.760617 286.474836 
L 235.955601 288.525905 
L 247.150586 286.576687 
L 258.34557 282.54311 
L 269.540554 277.37783 
L 280.735539 272.231638 
L 291.930523 268.109673 
L 303.125507 264.412494 
L 314.320492 259.974543 
L 325.515476 257.344415 
L 336.71046 254.590572 
L 347.905445 252.213623 
L 359.100429 250.564856 
L 370.295413 248.326638 
L 381.490398 246.664144 
" clip-path="url(#p1d1170d9fd)" style="fill: none; stroke: #404588; stroke-width: 1.5; stroke-linecap: square"/>
   </g>
   <g id="line2d_21">
    <path d="M 56.835852 230.588449 
L 68.030837 232.210987 
L 79.225821 233.445337 
L 90.420805 235.406386 
L 101.61579 237.094147 
L 112.810774 238.647787 
L 124.005758 241.923083 
L 135.200743 244.685159 
L 146.395727 248.571847 
L 157.590711 252.30249 
L 168.785696 256.707128 
L 179.98068 262.132521 
L 191.175664 267.533399 
L 202.370649 273.215797 
L 213.565633 279.567387 
L 224.760617 284.924087 
L 235.955601 287.483962 
L 247.150586 285.04941 
L 258.34557 280.265031 
L 269.540554 274.491576 
L 280.735539 269.19136 
L 291.930523 263.92613 
L 303.125507 259.184934 
L 314.320492 254.961766 
L 325.515476 251.476668 
L 336.71046 248.047343 
L 347.905445 245.004286 
L 359.100429 243.079836 
L 370.295413 240.648686 
L 381.490398 239.207448 
" clip-path="url(#p1d1170d9fd)" style="fill: none; stroke: #3c4f8a; stroke-width: 1.5; stroke-linecap: square"/>
   </g>
   <g id="line2d_22">
    <path d="M 56.835852 221.749534 
L 68.030837 223.360845 
L 79.225821 225.169057 
L 90.420805 226.409847 
L 101.61579 228.496045 
L 112.810774 231.28803 
L 124.005758 234.855724 
L 135.200743 238.133915 
L 146.395727 241.921853 
L 157.590711 246.854213 
L 168.785696 251.894734 
L 179.98068 257.229142 
L 191.175664 263.767697 
L 202.370649 270.606218 
L 213.565633 277.562894 
L 224.760617 283.125239 
L 235.955601 286.605488 
L 247.150586 283.758652 
L 258.34557 278.094745 
L 269.540554 270.932253 
L 280.735539 264.471979 
L 291.930523 259.135117 
L 303.125507 253.897161 
L 314.320492 249.482536 
L 325.515476 245.372753 
L 336.71046 242.097055 
L 347.905445 238.073593 
L 359.100429 235.2267 
L 370.295413 233.221096 
L 381.490398 231.490103 
" clip-path="url(#p1d1170d9fd)" style="fill: none; stroke: #38598c; stroke-width: 1.5; stroke-linecap: square"/>
   </g>
   <g id="line2d_23">
    <path d="M 56.835852 212.575362 
L 68.030837 214.108282 
L 79.225821 216.509914 
L 90.420805 218.676542 
L 101.61579 220.697782 
L 112.810774 224.411035 
L 124.005758 227.225378 
L 135.200743 231.137641 
L 146.395727 235.471521 
L 157.590711 240.204154 
L 168.785696 246.722811 
L 179.98068 253.452938 
L 191.175664 260.34974 
L 202.370649 267.903911 
L 213.565633 275.09512 
L 224.760617 282.39382 
L 235.955601 285.33756 
L 247.150586 282.095 
L 258.34557 275.487442 
L 269.540554 267.881381 
L 280.735539 261.280137 
L 291.930523 254.614867 
L 303.125507 248.418932 
L 314.320492 243.543338 
L 325.515476 238.877707 
L 336.71046 235.319296 
L 347.905445 231.650114 
L 359.100429 228.270099 
L 370.295413 225.496952 
L 381.490398 223.299121 
" clip-path="url(#p1d1170d9fd)" style="fill: none; stroke: #33628d; stroke-width: 1.5; stroke-linecap: square"/>
   </g>
   <g id="line2d_24">
    <path d="M 56.835852 203.235357 
L 68.030837 206.290311 
L 79.225821 208.220633 
L 90.420805 210.661025 
L 101.61579 212.818999 
L 112.810774 216.138778 
L 124.005758 219.860523 
L 135.200743 224.396882 
L 146.395727 228.839657 
L 157.590711 234.774616 
L 168.785696 240.889203 
L 179.98068 248.631457 
L 191.175664 257.180461 
L 202.370649 265.552286 
L 213.565633 273.857374 
L 224.760617 281.1634 
L 235.955601 283.365428 
L 247.150586 279.798294 
L 258.34557 272.6873 
L 269.540554 264.523691 
L 280.735539 256.84784 
L 291.930523 249.87788 
L 303.125507 243.053806 
L 314.320492 237.24241 
L 325.515476 232.225594 
L 336.71046 228.554817 
L 347.905445 224.432082 
L 359.100429 220.841866 
L 370.295413 217.925302 
L 381.490398 215.540226 
" clip-path="url(#p1d1170d9fd)" style="fill: none; stroke: #2f6b8e; stroke-width: 1.5; stroke-linecap: square"/>
   </g>
   <g id="line2d_25">
    <path d="M 56.835852 195.410737 
L 68.030837 196.541805 
L 79.225821 199.717682 
L 90.420805 202.303217 
L 101.61579 205.28416 
L 112.810774 208.535099 
L 124.005758 213.001412 
L 135.200743 218.065356 
L 146.395727 223.114097 
L 157.590711 229.662243 
L 168.785696 236.842054 
L 179.98068 244.527754 
L 191.175664 253.072168 
L 202.370649 261.788571 
L 213.565633 271.837597 
L 224.760617 279.742196 
L 235.955601 281.319516 
L 247.150586 277.536085 
L 258.34557 269.4396 
L 269.540554 261.525598 
L 280.735539 252.723883 
L 291.930523 244.969113 
L 303.125507 237.823018 
L 314.320492 231.606407 
L 325.515476 226.301869 
L 336.71046 221.358618 
L 347.905445 217.521254 
L 359.100429 213.390882 
L 370.295413 210.21427 
L 381.490398 207.020099 
" clip-path="url(#p1d1170d9fd)" style="fill: none; stroke: #2c738e; stroke-width: 1.5; stroke-linecap: square"/>
   </g>
   <g id="line2d_26">
    <path d="M 56.835852 186.218298 
L 68.030837 188.06246 
L 79.225821 190.831549 
L 90.420805 193.491557 
L 101.61579 196.736119 
L 112.810774 201.165682 
L 124.005758 205.505796 
L 135.200743 211.171724 
L 146.395727 217.209956 
L 157.590711 224.731962 
L 168.785696 232.495453 
L 179.98068 241.192113 
L 191.175664 250.010294 
L 202.370649 259.895043 
L 213.565633 270.363238 
L 224.760617 278.72188 
L 235.955601 281.635225 
L 247.150586 275.434594 
L 258.34557 266.324847 
L 269.540554 257.896091 
L 280.735539 248.591747 
L 291.930523 240.766214 
L 303.125507 232.714229 
L 314.320492 225.699338 
L 325.515476 219.833788 
L 336.71046 214.62878 
L 347.905445 209.840104 
L 359.100429 206.563279 
L 370.295413 202.156502 
L 381.490398 199.614247 
" clip-path="url(#p1d1170d9fd)" style="fill: none; stroke: #297b8e; stroke-width: 1.5; stroke-linecap: square"/>
   </g>
   <g id="line2d_27">
    <path d="M 56.835852 177.352947 
L 68.030837 180.920266 
L 79.225821 183.105976 
L 90.420805 185.863864 
L 101.61579 189.605117 
L 112.810774 193.263435 
L 124.005758 199.05691 
L 135.200743 204.25633 
L 146.395727 211.236308 
L 157.590711 219.508778 
L 168.785696 227.205127 
L 179.98068 237.470874 
L 191.175664 247.287571 
L 202.370649 258.915018 
L 213.565633 270.012842 
L 224.760617 277.553029 
L 235.955601 276.797536 
L 247.150586 269.320778 
L 258.34557 260.21459 
L 269.540554 251.193942 
L 280.735539 242.661955 
L 291.930523 234.883793 
L 303.125507 227.18169 
L 314.320492 219.393733 
L 325.515476 213.042018 
L 336.71046 207.963162 
L 347.905445 203.539874 
L 359.100429 198.983008 
L 370.295413 195.281322 
L 381.490398 191.985759 
" clip-path="url(#p1d1170d9fd)" style="fill: none; stroke: #25838e; stroke-width: 1.5; stroke-linecap: square"/>
   </g>
   <g id="line2d_28">
    <path d="M 56.835852 168.852149 
L 68.030837 171.348277 
L 79.225821 174.548701 
L 90.420805 177.182821 
L 101.61579 181.949178 
L 112.810774 186.521797 
L 124.005758 192.1008 
L 135.200743 199.27069 
L 146.395727 206.280264 
L 157.590711 212.946527 
L 168.785696 222.842737 
L 179.98068 234.203829 
L 191.175664 246.362584 
L 202.370649 258.893767 
L 213.565633 270.160438 
L 224.760617 274.227289 
L 235.955601 271.365763 
L 247.150586 262.173712 
L 258.34557 252.901612 
L 269.540554 244.33227 
L 280.735539 235.713379 
L 291.930523 227.443882 
L 303.125507 219.528648 
L 314.320492 212.522362 
L 325.515476 206.006852 
L 336.71046 200.609847 
L 347.905445 195.06818 
L 359.100429 191.217339 
L 370.295413 187.400415 
L 381.490398 183.922404 
" clip-path="url(#p1d1170d9fd)" style="fill: none; stroke: #228c8d; stroke-width: 1.5; stroke-linecap: square"/>
   </g>
   <g id="line2d_29">
    <path d="M 56.835852 159.631283 
L 68.030837 162.982387 
L 79.225821 165.647652 
L 90.420805 170.138481 
L 101.61579 174.302431 
L 112.810774 180.169158 
L 124.005758 185.403631 
L 135.200743 192.633659 
L 146.395727 200.325581 
L 157.590711 210.420713 
L 168.785696 221.705203 
L 179.98068 233.900102 
L 191.175664 246.764632 
L 202.370649 260.427935 
L 213.565633 269.743458 
L 224.760617 273.186687 
L 235.955601 266.96183 
L 247.150586 258.603153 
L 258.34557 247.508184 
L 269.540554 236.9513 
L 280.735539 227.709529 
L 291.930523 219.960864 
L 303.125507 212.076999 
L 314.320492 205.659454 
L 325.515476 199.889612 
L 336.71046 193.776501 
L 347.905445 188.556242 
L 359.100429 184.181962 
L 370.295413 179.842477 
L 381.490398 175.84356 
" clip-path="url(#p1d1170d9fd)" style="fill: none; stroke: #1f948c; stroke-width: 1.5; stroke-linecap: square"/>
   </g>
   <g id="line2d_30">
    <path d="M 56.835852 151.381283 
L 68.030837 154.332645 
L 79.225821 157.81666 
L 90.420805 161.904469 
L 101.61579 167.132902 
L 112.810774 171.989189 
L 124.005758 178.38979 
L 135.200743 185.596947 
L 146.395727 194.646061 
L 157.590711 207.482691 
L 168.785696 219.435255 
L 179.98068 234.800466 
L 191.175664 247.651761 
L 202.370649 260.742147 
L 213.565633 268.573339 
L 224.760617 268.922855 
L 235.955601 264.440322 
L 247.150586 253.28211 
L 258.34557 241.770466 
L 269.540554 231.102555 
L 280.735539 222.582821 
L 291.930523 213.078326 
L 303.125507 205.091868 
L 314.320492 198.375814 
L 325.515476 191.900805 
L 336.71046 186.797619 
L 347.905445 181.592015 
L 359.100429 176.359813 
L 370.295413 172.048434 
L 381.490398 167.721937 
" clip-path="url(#p1d1170d9fd)" style="fill: none; stroke: #1e9d89; stroke-width: 1.5; stroke-linecap: square"/>
   </g>
   <g id="line2d_31">
    <path d="M 56.835852 142.749559 
L 68.030837 145.441325 
L 79.225821 150.310011 
L 90.420805 154.433759 
L 101.61579 159.343049 
L 112.810774 165.966498 
L 124.005758 172.377089 
L 135.200743 180.681038 
L 146.395727 193.920039 
L 157.590711 207.728792 
L 168.785696 222.56877 
L 179.98068 237.000259 
L 191.175664 251.240067 
L 202.370649 262.444528 
L 213.565633 267.990305 
L 224.760617 264.636052 
L 235.955601 254.998214 
L 247.150586 247.211579 
L 258.34557 234.649166 
L 269.540554 224.958295 
L 280.735539 214.564386 
L 291.930523 205.987343 
L 303.125507 197.085527 
L 314.320492 190.140033 
L 325.515476 183.654888 
L 336.71046 177.808238 
L 347.905445 173.220558 
L 359.100429 168.123309 
L 370.295413 163.566248 
L 381.490398 160.060683 
" clip-path="url(#p1d1170d9fd)" style="fill: none; stroke: #21a585; stroke-width: 1.5; stroke-linecap: square"/>
   </g>
   <g id="line2d_32">
    <path d="M 56.835852 134.856451 
L 68.030837 138.010553 
L 79.225821 141.984691 
L 90.420805 146.32339 
L 101.61579 151.875566 
L 112.810774 158.194723 
L 124.005758 165.487842 
L 135.200743 178.145482 
L 146.395727 193.620034 
L 157.590711 207.338936 
L 168.785696 221.9292 
L 179.98068 238.064851 
L 191.175664 251.65884 
L 202.370649 261.045499 
L 213.565633 265.381642 
L 224.760617 258.609779 
L 235.955601 248.400317 
L 247.150586 238.497594 
L 258.34557 227.46162 
L 269.540554 216.994872 
L 280.735539 204.625447 
L 291.930523 197.506829 
L 303.125507 190.138527 
L 314.320492 182.373536 
L 325.515476 175.53498 
L 336.71046 170.547812 
L 347.905445 164.831273 
L 359.100429 160.498348 
L 370.295413 155.3045 
L 381.490398 151.410719 
" clip-path="url(#p1d1170d9fd)" style="fill: none; stroke: #26ad81; stroke-width: 1.5; stroke-linecap: square"/>
   </g>
   <g id="line2d_33">
    <path d="M 56.835852 126.427597 
L 68.030837 130.083883 
L 79.225821 134.364907 
L 90.420805 139.26592 
L 101.61579 145.706309 
L 112.810774 155.005385 
L 124.005758 163.670033 
L 135.200743 176.19176 
L 146.395727 192.98272 
L 157.590711 211.74607 
L 168.785696 224.924114 
L 179.98068 239.461628 
L 191.175664 252.400028 
L 202.370649 261.680482 
L 213.565633 263.48456 
L 224.760617 257.077456 
L 235.955601 244.548386 
L 247.150586 231.796728 
L 258.34557 218.667367 
L 269.540554 207.167135 
L 280.735539 197.576143 
L 291.930523 189.77 
L 303.125507 180.629742 
L 314.320492 174.001411 
L 325.515476 167.408053 
L 336.71046 161.529495 
L 347.905445 156.653017 
L 359.100429 151.771506 
L 370.295413 147.336972 
L 381.490398 143.40405 
" clip-path="url(#p1d1170d9fd)" style="fill: none; stroke: #31b57b; stroke-width: 1.5; stroke-linecap: square"/>
   </g>
   <g id="line2d_34">
    <path d="M 56.835852 117.747413 
L 68.030837 121.30058 
L 79.225821 125.449714 
L 90.420805 131.960315 
L 101.61579 140.128574 
L 112.810774 150.146077 
L 124.005758 162.739759 
L 135.200743 179.490123 
L 146.395727 191.619068 
L 157.590711 207.613066 
L 168.785696 224.261257 
L 179.98068 237.927251 
L 191.175664 253.18002 
L 202.370649 260.862089 
L 213.565633 256.92954 
L 224.760617 249.09726 
L 235.955601 237.418722 
L 247.150586 224.902373 
L 258.34557 209.886216 
L 269.540554 201.128047 
L 280.735539 187.994586 
L 291.930523 182.075864 
L 303.125507 173.089608 
L 314.320492 165.444091 
L 325.515476 159.356477 
L 336.71046 152.817192 
L 347.905445 148.17593 
L 359.100429 143.37734 
L 370.295413 139.336685 
L 381.490398 135.627673 
" clip-path="url(#p1d1170d9fd)" style="fill: none; stroke: #3fbc73; stroke-width: 1.5; stroke-linecap: square"/>
   </g>
   <g id="line2d_35">
    <path d="M 56.835852 110.847283 
L 68.030837 113.573668 
L 79.225821 119.763162 
L 90.420805 127.388512 
L 101.61579 136.220628 
L 112.810774 150.164299 
L 124.005758 165.824053 
L 135.200743 178.137642 
L 146.395727 190.943158 
L 157.590711 208.92422 
L 168.785696 225.12152 
L 179.98068 239.895587 
L 191.175664 253.802635 
L 202.370649 259.324756 
L 213.565633 253.005203 
L 224.760617 243.325888 
L 235.955601 229.553731 
L 247.150586 216.466747 
L 258.34557 204.18076 
L 269.540554 193.265162 
L 280.735539 178.454659 
L 291.930523 168.880205 
L 303.125507 161.511013 
L 314.320492 156.069204 
L 325.515476 149.144184 
L 336.71046 143.546313 
L 347.905445 138.522748 
L 359.100429 133.816802 
L 370.295413 130.401717 
L 381.490398 126.42151 
" clip-path="url(#p1d1170d9fd)" style="fill: none; stroke: #50c46a; stroke-width: 1.5; stroke-linecap: square"/>
   </g>
   <g id="line2d_36">
    <path d="M 56.835852 103.823541 
L 68.030837 105.956785 
L 79.225821 113.119456 
L 90.420805 122.298579 
L 101.61579 133.601431 
L 112.810774 147.050963 
L 124.005758 160.867059 
L 135.200743 176.175541 
L 146.395727 192.444239 
L 157.590711 206.802553 
L 168.785696 223.910868 
L 179.98068 245.723341 
L 191.175664 256.46184 
L 202.370649 255.735597 
L 213.565633 239.312694 
L 224.760617 227.47958 
L 235.955601 215.004103 
L 247.150586 203.588579 
L 258.34557 191.865818 
L 269.540554 184.148207 
L 280.735539 174.741144 
L 291.930523 163.196194 
L 303.125507 153.672351 
L 314.320492 146.573511 
L 325.515476 140.523142 
L 336.71046 134.319813 
L 347.905445 128.499192 
L 359.100429 124.382824 
L 370.295413 119.940231 
L 381.490398 117.086491 
" clip-path="url(#p1d1170d9fd)" style="fill: none; stroke: #63cb5f; stroke-width: 1.5; stroke-linecap: square"/>
   </g>
   <g id="line2d_37">
    <path d="M 56.835852 94.618522 
L 68.030837 99.96738 
L 79.225821 107.649923 
L 90.420805 117.608687 
L 101.61579 130.125567 
L 112.810774 142.503698 
L 124.005758 153.873338 
L 135.200743 169.933221 
L 146.395727 187.094785 
L 157.590711 207.443399 
L 168.785696 229.93868 
L 179.98068 250.342278 
L 191.175664 256.408013 
L 202.370649 251.301955 
L 213.565633 234.109343 
L 224.760617 219.719118 
L 235.955601 204.491496 
L 247.150586 192.118662 
L 258.34557 182.671044 
L 269.540554 174.046748 
L 280.735539 165.916222 
L 291.930523 156.745874 
L 303.125507 146.00251 
L 314.320492 137.825506 
L 325.515476 131.661034 
L 336.71046 126.75218 
L 347.905445 120.495047 
L 359.100429 115.55082 
L 370.295413 112.008943 
L 381.490398 108.734033 
" clip-path="url(#p1d1170d9fd)" style="fill: none; stroke: #77d153; stroke-width: 1.5; stroke-linecap: square"/>
   </g>
   <g id="line2d_38">
    <path d="M 56.835852 89.088732 
L 68.030837 95.888554 
L 79.225821 104.656637 
L 90.420805 116.318367 
L 101.61579 127.398322 
L 112.810774 140.689662 
L 124.005758 152.46099 
L 135.200743 171.182204 
L 146.395727 189.763773 
L 157.590711 209.498815 
L 168.785696 233.888818 
L 179.98068 253.321961 
L 191.175664 254.395283 
L 202.370649 240.889624 
L 213.565633 223.918254 
L 224.760617 210.06366 
L 235.955601 192.534818 
L 247.150586 180.924463 
L 258.34557 172.059626 
L 269.540554 161.721008 
L 280.735539 153.469167 
L 291.930523 149.311985 
L 303.125507 139.238371 
L 314.320492 129.491847 
L 325.515476 122.604817 
L 336.71046 116.122689 
L 347.905445 111.489334 
L 359.100429 107.194149 
L 370.295413 102.414565 
L 381.490398 98.795135 
" clip-path="url(#p1d1170d9fd)" style="fill: none; stroke: #8bd646; stroke-width: 1.5; stroke-linecap: square"/>
   </g>
   <g id="line2d_39">
    <path d="M 56.835852 84.748143 
L 68.030837 91.670426 
L 79.225821 99.992389 
L 90.420805 109.842428 
L 101.61579 119.522826 
L 112.810774 134.433368 
L 124.005758 149.788147 
L 135.200743 165.081504 
L 146.395727 187.314235 
L 157.590711 214.595119 
L 168.785696 239.828217 
L 179.98068 257.073297 
L 191.175664 250.828129 
L 202.370649 235.913709 
L 213.565633 213.936934 
L 224.760617 198.482901 
L 235.955601 185.381864 
L 247.150586 171.206643 
L 258.34557 161.951656 
L 269.540554 151.25998 
L 280.735539 141.036956 
L 291.930523 134.269944 
L 303.125507 130.105759 
L 314.320492 124.240473 
L 325.515476 114.050553 
L 336.71046 107.430708 
L 347.905445 102.0061 
L 359.100429 98.132112 
L 370.295413 93.802065 
L 381.490398 89.221667 
" clip-path="url(#p1d1170d9fd)" style="fill: none; stroke: #a2da37; stroke-width: 1.5; stroke-linecap: square"/>
   </g>
   <g id="line2d_40">
    <path d="M 56.835852 77.738015 
L 68.030837 85.29793 
L 79.225821 94.287477 
L 90.420805 104.546013 
L 101.61579 114.40061 
L 112.810774 129.491295 
L 124.005758 140.725724 
L 135.200743 166.168345 
L 146.395727 195.369662 
L 157.590711 221.860039 
L 168.785696 246.896231 
L 179.98068 257.529455 
L 191.175664 249.754285 
L 202.370649 231.313098 
L 213.565633 207.782363 
L 224.760617 191.863445 
L 235.955601 173.44285 
L 247.150586 162.89637 
L 258.34557 152.229172 
L 269.540554 144.117343 
L 280.735539 132.678284 
L 291.930523 126.134373 
L 303.125507 121.461598 
L 314.320492 116.293754 
L 325.515476 107.21324 
L 336.71046 99.480512 
L 347.905445 95.399196 
L 359.100429 88.621552 
L 370.295413 83.611276 
L 381.490398 81.179418 
" clip-path="url(#p1d1170d9fd)" style="fill: none; stroke: #bade28; stroke-width: 1.5; stroke-linecap: square"/>
   </g>
   <g id="line2d_41">
    <path d="M 56.835852 71.568843 
L 68.030837 79.154333 
L 79.225821 88.964966 
L 90.420805 100.04664 
L 101.61579 110.891874 
L 112.810774 126.298299 
L 124.005758 145.200035 
L 135.200743 171.120137 
L 146.395727 198.578071 
L 157.590711 226.043509 
L 168.785696 249.37266 
L 179.98068 257.664993 
L 191.175664 246.046841 
L 202.370649 230.946644 
L 213.565633 207.582964 
L 224.760617 187.194458 
L 235.955601 169.939723 
L 247.150586 152.919125 
L 258.34557 143.336014 
L 269.540554 135.207487 
L 280.735539 124.232498 
L 291.930523 118.012891 
L 303.125507 110.009071 
L 314.320492 107.297898 
L 325.515476 102.868742 
L 336.71046 93.977447 
L 347.905445 86.155002 
L 359.100429 80.886223 
L 370.295413 77.418126 
L 381.490398 73.61472 
" clip-path="url(#p1d1170d9fd)" style="fill: none; stroke: #d2e21b; stroke-width: 1.5; stroke-linecap: square"/>
   </g>
   <g id="line2d_42">
    <path d="M 56.835852 66.127358 
L 68.030837 74.243077 
L 79.225821 81.685918 
L 90.420805 90.435134 
L 101.61579 105.106684 
L 112.810774 123.550155 
L 124.005758 146.624105 
L 135.200743 175.327169 
L 146.395727 200.397632 
L 157.590711 230.102287 
L 168.785696 251.279842 
L 179.98068 256.004018 
L 191.175664 244.784551 
L 202.370649 224.467655 
L 213.565633 201.969138 
L 224.760617 183.714287 
L 235.955601 166.009227 
L 247.150586 145.611918 
L 258.34557 133.65607 
L 269.540554 123.285161 
L 280.735539 113.856113 
L 291.930523 107.792751 
L 303.125507 101.827638 
L 314.320492 95.528632 
L 325.515476 89.343674 
L 336.71046 83.463789 
L 347.905445 78.815409 
L 359.100429 72.330494 
L 370.295413 66.84407 
L 381.490398 62.161378 
" clip-path="url(#p1d1170d9fd)" style="fill: none; stroke: #eae51a; stroke-width: 1.5; stroke-linecap: square"/>
   </g>
   <g id="line2d_43">
    <path d="M 56.835852 57.458106 
L 68.030837 65.272559 
L 79.225821 75.424009 
L 90.420805 85.355643 
L 101.61579 99.170056 
L 112.810774 125.38143 
L 124.005758 151.124863 
L 135.200743 176.925227 
L 146.395727 205.898371 
L 157.590711 237.400551 
L 168.785696 253.587452 
L 179.98068 256.683442 
L 191.175664 241.447098 
L 202.370649 220.622181 
L 213.565633 199.381397 
L 224.760617 177.763381 
L 235.955601 158.804545 
L 247.150586 141.969095 
L 258.34557 127.597107 
L 269.540554 115.595256 
L 280.735539 106.108502 
L 291.930523 96.942036 
L 303.125507 90.529411 
L 314.320492 85.359179 
L 325.515476 80.033932 
L 336.71046 75.371187 
L 347.905445 69.664204 
L 359.100429 63.915598 
L 370.295413 59.215559 
L 381.490398 53.856 
" clip-path="url(#p1d1170d9fd)" style="fill: none; stroke: #fde725; stroke-width: 1.5; stroke-linecap: square"/>
   </g>
   <g id="patch_3">
    <path d="M 40.603125 307.872 
L 40.603125 41.76 
" style="fill: none; stroke: #000000; stroke-width: 0.8; stroke-linejoin: miter; stroke-linecap: square"/>
   </g>
   <g id="patch_4">
    <path d="M 397.723125 307.872 
L 397.723125 41.76 
" style="fill: none; stroke: #000000; stroke-width: 0.8; stroke-linejoin: miter; stroke-linecap: square"/>
   </g>
   <g id="patch_5">
    <path d="M 40.603125 307.872 
L 397.723125 307.872 
" style="fill: none; stroke: #000000; stroke-width: 0.8; stroke-linejoin: miter; stroke-linecap: square"/>
   </g>
   <g id="patch_6">
    <path d="M 40.603125 41.76 
L 397.723125 41.76 
" style="fill: none; stroke: #000000; stroke-width: 0.8; stroke-linejoin: miter; stroke-linecap: square"/>
   </g>
   <g id="legend_1">
    <g id="patch_7">
     <path d="M 417.579125 307.872 
L 637.826 307.872 
Q 639.826 307.872 639.826 305.872 
L 639.826 145.412625 
Q 639.826 143.412625 637.826 143.412625 
L 417.579125 143.412625 
Q 415.579125 143.412625 415.579125 145.412625 
L 415.579125 305.872 
Q 415.579125 307.872 417.579125 307.872 
z
" style="fill: #ffffff; opacity: 0.8; stroke: #cccccc; stroke-linejoin: miter"/>
    </g>
    <g id="text_17">
     <!-- Readout pulse amplitude () -->
     <g transform="translate(459.601781 155.011063) scale(0.1 -0.1)">
      <defs>
       <path id="DejaVuSans-52" d="M 2841 2188 
Q 3044 2119 3236 1894 
Q 3428 1669 3622 1275 
L 4263 0 
L 3584 0 
L 2988 1197 
Q 2756 1666 2539 1819 
Q 2322 1972 1947 1972 
L 1259 1972 
L 1259 0 
L 628 0 
L 628 4666 
L 2053 4666 
Q 2853 4666 3247 4331 
Q 3641 3997 3641 3322 
Q 3641 2881 3436 2590 
Q 3231 2300 2841 2188 
z
M 1259 4147 
L 1259 2491 
L 2053 2491 
Q 2509 2491 2742 2702 
Q 2975 2913 2975 3322 
Q 2975 3731 2742 3939 
Q 2509 4147 2053 4147 
L 1259 4147 
z
" transform="scale(0.015625)"/>
       <path id="DejaVuSans-6f" d="M 1959 3097 
Q 1497 3097 1228 2736 
Q 959 2375 959 1747 
Q 959 1119 1226 758 
Q 1494 397 1959 397 
Q 2419 397 2687 759 
Q 2956 1122 2956 1747 
Q 2956 2369 2687 2733 
Q 2419 3097 1959 3097 
z
M 1959 3584 
Q 2709 3584 3137 3096 
Q 3566 2609 3566 1747 
Q 3566 888 3137 398 
Q 2709 -91 1959 -91 
Q 1206 -91 779 398 
Q 353 888 353 1747 
Q 353 2609 779 3096 
Q 1206 3584 1959 3584 
z
" transform="scale(0.015625)"/>
       <path id="DejaVuSans-70" d="M 1159 525 
L 1159 -1331 
L 581 -1331 
L 581 3500 
L 1159 3500 
L 1159 2969 
Q 1341 3281 1617 3432 
Q 1894 3584 2278 3584 
Q 2916 3584 3314 3078 
Q 3713 2572 3713 1747 
Q 3713 922 3314 415 
Q 2916 -91 2278 -91 
Q 1894 -91 1617 61 
Q 1341 213 1159 525 
z
M 3116 1747 
Q 3116 2381 2855 2742 
Q 2594 3103 2138 3103 
Q 1681 3103 1420 2742 
Q 1159 2381 1159 1747 
Q 1159 1113 1420 752 
Q 1681 391 2138 391 
Q 2594 391 2855 752 
Q 3116 1113 3116 1747 
z
" transform="scale(0.015625)"/>
       <path id="DejaVuSans-6c" d="M 603 4863 
L 1178 4863 
L 1178 0 
L 603 0 
L 603 4863 
z
" transform="scale(0.015625)"/>
       <path id="DejaVuSans-73" d="M 2834 3397 
L 2834 2853 
Q 2591 2978 2328 3040 
Q 2066 3103 1784 3103 
Q 1356 3103 1142 2972 
Q 928 2841 928 2578 
Q 928 2378 1081 2264 
Q 1234 2150 1697 2047 
L 1894 2003 
Q 2506 1872 2764 1633 
Q 3022 1394 3022 966 
Q 3022 478 2636 193 
Q 2250 -91 1575 -91 
Q 1294 -91 989 -36 
Q 684 19 347 128 
L 347 722 
Q 666 556 975 473 
Q 1284 391 1588 391 
Q 1994 391 2212 530 
Q 2431 669 2431 922 
Q 2431 1156 2273 1281 
Q 2116 1406 1581 1522 
L 1381 1569 
Q 847 1681 609 1914 
Q 372 2147 372 2553 
Q 372 3047 722 3315 
Q 1072 3584 1716 3584 
Q 2034 3584 2315 3537 
Q 2597 3491 2834 3397 
z
" transform="scale(0.015625)"/>
       <path id="DejaVuSans-28" d="M 1984 4856 
Q 1566 4138 1362 3434 
Q 1159 2731 1159 2009 
Q 1159 1288 1364 580 
Q 1569 -128 1984 -844 
L 1484 -844 
Q 1016 -109 783 600 
Q 550 1309 550 2009 
Q 550 2706 781 3412 
Q 1013 4119 1484 4856 
L 1984 4856 
z
" transform="scale(0.015625)"/>
       <path id="DejaVuSans-29" d="M 513 4856 
L 1013 4856 
Q 1481 4119 1714 3412 
Q 1947 2706 1947 2009 
Q 1947 1309 1714 600 
Q 1481 -109 1013 -844 
L 513 -844 
Q 928 -128 1133 580 
Q 1338 1288 1338 2009 
Q 1338 2731 1133 3434 
Q 928 4138 513 4856 
z
" transform="scale(0.015625)"/>
      </defs>
      <use xlink:href="#DejaVuSans-52"/>
      <use xlink:href="#DejaVuSans-65" x="64.982422"/>
      <use xlink:href="#DejaVuSans-61" x="126.505859"/>
      <use xlink:href="#DejaVuSans-64" x="187.785156"/>
      <use xlink:href="#DejaVuSans-6f" x="251.261719"/>
      <use xlink:href="#DejaVuSans-75" x="312.443359"/>
      <use xlink:href="#DejaVuSans-74" x="375.822266"/>
      <use xlink:href="#DejaVuSans-20" x="415.03125"/>
      <use xlink:href="#DejaVuSans-70" x="446.818359"/>
      <use xlink:href="#DejaVuSans-75" x="510.294922"/>
      <use xlink:href="#DejaVuSans-6c" x="573.673828"/>
      <use xlink:href="#DejaVuSans-73" x="601.457031"/>
      <use xlink:href="#DejaVuSans-65" x="653.556641"/>
      <use xlink:href="#DejaVuSans-20" x="715.080078"/>
      <use xlink:href="#DejaVuSans-61" x="746.867188"/>
      <use xlink:href="#DejaVuSans-6d" x="808.146484"/>
      <use xlink:href="#DejaVuSans-70" x="905.558594"/>
      <use xlink:href="#DejaVuSans-6c" x="969.035156"/>
      <use xlink:href="#DejaVuSans-69" x="996.818359"/>
      <use xlink:href="#DejaVuSans-74" x="1024.601562"/>
      <use xlink:href="#DejaVuSans-75" x="1063.810547"/>
      <use xlink:href="#DejaVuSans-64" x="1127.189453"/>
      <use xlink:href="#DejaVuSans-65" x="1190.666016"/>
      <use xlink:href="#DejaVuSans-20" x="1252.189453"/>
      <use xlink:href="#DejaVuSans-28" x="1283.976562"/>
      <use xlink:href="#DejaVuSans-29" x="1322.990234"/>
     </g>
    </g>
    <g id="line2d_44">
     <path d="M 419.579125 166.189188 
L 429.579125 166.189188 
L 439.579125 166.189188 
" style="fill: none; stroke: #440154; stroke-width: 1.5; stroke-linecap: square"/>
    </g>
    <g id="text_18">
     <!-- 0.01 -->
     <g transform="translate(447.579125 169.689188) scale(0.1 -0.1)">
      <use xlink:href="#DejaVuSans-30"/>
      <use xlink:href="#DejaVuSans-2e" x="63.623047"/>
      <use xlink:href="#DejaVuSans-30" x="95.410156"/>
      <use xlink:href="#DejaVuSans-31" x="159.033203"/>
     </g>
    </g>
    <g id="line2d_45">
     <path d="M 419.579125 180.867313 
L 429.579125 180.867313 
L 439.579125 180.867313 
" style="fill: none; stroke: #470d60; stroke-width: 1.5; stroke-linecap: square"/>
    </g>
    <g id="text_19">
     <!-- 0.0338 -->
     <g transform="translate(447.579125 184.367313) scale(0.1 -0.1)">
      <use xlink:href="#DejaVuSans-30"/>
      <use xlink:href="#DejaVuSans-2e" x="63.623047"/>
      <use xlink:href="#DejaVuSans-30" x="95.410156"/>
      <use xlink:href="#DejaVuSans-33" x="159.033203"/>
      <use xlink:href="#DejaVuSans-33" x="222.65625"/>
      <use xlink:href="#DejaVuSans-38" x="286.279297"/>
     </g>
    </g>
    <g id="line2d_46">
     <path d="M 419.579125 195.545438 
L 429.579125 195.545438 
L 439.579125 195.545438 
" style="fill: none; stroke: #481a6c; stroke-width: 1.5; stroke-linecap: square"/>
    </g>
    <g id="text_20">
     <!-- 0.0576 -->
     <g transform="translate(447.579125 199.045438) scale(0.1 -0.1)">
      <use xlink:href="#DejaVuSans-30"/>
      <use xlink:href="#DejaVuSans-2e" x="63.623047"/>
      <use xlink:href="#DejaVuSans-30" x="95.410156"/>
      <use xlink:href="#DejaVuSans-35" x="159.033203"/>
      <use xlink:href="#DejaVuSans-37" x="222.65625"/>
      <use xlink:href="#DejaVuSans-36" x="286.279297"/>
     </g>
    </g>
    <g id="line2d_47">
     <path d="M 419.579125 210.223563 
L 429.579125 210.223563 
L 439.579125 210.223563 
" style="fill: none; stroke: #482576; stroke-width: 1.5; stroke-linecap: square"/>
    </g>
    <g id="text_21">
     <!-- 0.0814 -->
     <g transform="translate(447.579125 213.723563) scale(0.1 -0.1)">
      <use xlink:href="#DejaVuSans-30"/>
      <use xlink:href="#DejaVuSans-2e" x="63.623047"/>
      <use xlink:href="#DejaVuSans-30" x="95.410156"/>
      <use xlink:href="#DejaVuSans-38" x="159.033203"/>
      <use xlink:href="#DejaVuSans-31" x="222.65625"/>
      <use xlink:href="#DejaVuSans-34" x="286.279297"/>
     </g>
    </g>
    <g id="line2d_48">
     <path d="M 419.579125 224.901688 
L 429.579125 224.901688 
L 439.579125 224.901688 
" style="fill: none; stroke: #46307e; stroke-width: 1.5; stroke-linecap: square"/>
    </g>
    <g id="text_22">
     <!-- 0.105 -->
     <g transform="translate(447.579125 228.401688) scale(0.1 -0.1)">
      <use xlink:href="#DejaVuSans-30"/>
      <use xlink:href="#DejaVuSans-2e" x="63.623047"/>
      <use xlink:href="#DejaVuSans-31" x="95.410156"/>
      <use xlink:href="#DejaVuSans-30" x="159.033203"/>
      <use xlink:href="#DejaVuSans-35" x="222.65625"/>
     </g>
    </g>
    <g id="line2d_49">
     <path d="M 419.579125 239.579813 
L 429.579125 239.579813 
L 439.579125 239.579813 
" style="fill: none; stroke: #443b84; stroke-width: 1.5; stroke-linecap: square"/>
    </g>
    <g id="text_23">
     <!-- 0.129 -->
     <g transform="translate(447.579125 243.079813) scale(0.1 -0.1)">
      <defs>
       <path id="DejaVuSans-39" d="M 703 97 
L 703 672 
Q 941 559 1184 500 
Q 1428 441 1663 441 
Q 2288 441 2617 861 
Q 2947 1281 2994 2138 
Q 2813 1869 2534 1725 
Q 2256 1581 1919 1581 
Q 1219 1581 811 2004 
Q 403 2428 403 3163 
Q 403 3881 828 4315 
Q 1253 4750 1959 4750 
Q 2769 4750 3195 4129 
Q 3622 3509 3622 2328 
Q 3622 1225 3098 567 
Q 2575 -91 1691 -91 
Q 1453 -91 1209 -44 
Q 966 3 703 97 
z
M 1959 2075 
Q 2384 2075 2632 2365 
Q 2881 2656 2881 3163 
Q 2881 3666 2632 3958 
Q 2384 4250 1959 4250 
Q 1534 4250 1286 3958 
Q 1038 3666 1038 3163 
Q 1038 2656 1286 2365 
Q 1534 2075 1959 2075 
z
" transform="scale(0.015625)"/>
      </defs>
      <use xlink:href="#DejaVuSans-30"/>
      <use xlink:href="#DejaVuSans-2e" x="63.623047"/>
      <use xlink:href="#DejaVuSans-31" x="95.410156"/>
      <use xlink:href="#DejaVuSans-32" x="159.033203"/>
      <use xlink:href="#DejaVuSans-39" x="222.65625"/>
     </g>
    </g>
    <g id="line2d_50">
     <path d="M 419.579125 254.257938 
L 429.579125 254.257938 
L 439.579125 254.257938 
" style="fill: none; stroke: #404588; stroke-width: 1.5; stroke-linecap: square"/>
    </g>
    <g id="text_24">
     <!-- 0.153 -->
     <g transform="translate(447.579125 257.757938) scale(0.1 -0.1)">
      <use xlink:href="#DejaVuSans-30"/>
      <use xlink:href="#DejaVuSans-2e" x="63.623047"/>
      <use xlink:href="#DejaVuSans-31" x="95.410156"/>
      <use xlink:href="#DejaVuSans-35" x="159.033203"/>
      <use xlink:href="#DejaVuSans-33" x="222.65625"/>
     </g>
    </g>
    <g id="line2d_51">
     <path d="M 419.579125 268.936062 
L 429.579125 268.936062 
L 439.579125 268.936062 
" style="fill: none; stroke: #3c4f8a; stroke-width: 1.5; stroke-linecap: square"/>
    </g>
    <g id="text_25">
     <!-- 0.177 -->
     <g transform="translate(447.579125 272.436062) scale(0.1 -0.1)">
      <use xlink:href="#DejaVuSans-30"/>
      <use xlink:href="#DejaVuSans-2e" x="63.623047"/>
      <use xlink:href="#DejaVuSans-31" x="95.410156"/>
      <use xlink:href="#DejaVuSans-37" x="159.033203"/>
      <use xlink:href="#DejaVuSans-37" x="222.65625"/>
     </g>
    </g>
    <g id="line2d_52">
     <path d="M 419.579125 283.614188 
L 429.579125 283.614188 
L 439.579125 283.614188 
" style="fill: none; stroke: #38598c; stroke-width: 1.5; stroke-linecap: square"/>
    </g>
    <g id="text_26">
     <!-- 0.2 -->
     <g transform="translate(447.579125 287.114188) scale(0.1 -0.1)">
      <use xlink:href="#DejaVuSans-30"/>
      <use xlink:href="#DejaVuSans-2e" x="63.623047"/>
      <use xlink:href="#DejaVuSans-32" x="95.410156"/>
     </g>
    </g>
    <g id="line2d_53">
     <path d="M 419.579125 298.292312 
L 429.579125 298.292312 
L 439.579125 298.292312 
" style="fill: none; stroke: #33628d; stroke-width: 1.5; stroke-linecap: square"/>
    </g>
    <g id="text_27">
     <!-- 0.224 -->
     <g transform="translate(447.579125 301.792312) scale(0.1 -0.1)">
      <use xlink:href="#DejaVuSans-30"/>
      <use xlink:href="#DejaVuSans-2e" x="63.623047"/>
      <use xlink:href="#DejaVuSans-32" x="95.410156"/>
      <use xlink:href="#DejaVuSans-32" x="159.033203"/>
      <use xlink:href="#DejaVuSans-34" x="222.65625"/>
     </g>
    </g>
    <g id="line2d_54">
     <path d="M 502.56975 166.189188 
L 512.56975 166.189188 
L 522.56975 166.189188 
" style="fill: none; stroke: #2f6b8e; stroke-width: 1.5; stroke-linecap: square"/>
    </g>
    <g id="text_28">
     <!-- 0.248 -->
     <g transform="translate(530.56975 169.689188) scale(0.1 -0.1)">
      <use xlink:href="#DejaVuSans-30"/>
      <use xlink:href="#DejaVuSans-2e" x="63.623047"/>
      <use xlink:href="#DejaVuSans-32" x="95.410156"/>
      <use xlink:href="#DejaVuSans-34" x="159.033203"/>
      <use xlink:href="#DejaVuSans-38" x="222.65625"/>
     </g>
    </g>
    <g id="line2d_55">
     <path d="M 502.56975 180.867313 
L 512.56975 180.867313 
L 522.56975 180.867313 
" style="fill: none; stroke: #2c738e; stroke-width: 1.5; stroke-linecap: square"/>
    </g>
    <g id="text_29">
     <!-- 0.272 -->
     <g transform="translate(530.56975 184.367313) scale(0.1 -0.1)">
      <use xlink:href="#DejaVuSans-30"/>
      <use xlink:href="#DejaVuSans-2e" x="63.623047"/>
      <use xlink:href="#DejaVuSans-32" x="95.410156"/>
      <use xlink:href="#DejaVuSans-37" x="159.033203"/>
      <use xlink:href="#DejaVuSans-32" x="222.65625"/>
     </g>
    </g>
    <g id="line2d_56">
     <path d="M 502.56975 195.545438 
L 512.56975 195.545438 
L 522.56975 195.545438 
" style="fill: none; stroke: #297b8e; stroke-width: 1.5; stroke-linecap: square"/>
    </g>
    <g id="text_30">
     <!-- 0.296 -->
     <g transform="translate(530.56975 199.045438) scale(0.1 -0.1)">
      <use xlink:href="#DejaVuSans-30"/>
      <use xlink:href="#DejaVuSans-2e" x="63.623047"/>
      <use xlink:href="#DejaVuSans-32" x="95.410156"/>
      <use xlink:href="#DejaVuSans-39" x="159.033203"/>
      <use xlink:href="#DejaVuSans-36" x="222.65625"/>
     </g>
    </g>
    <g id="line2d_57">
     <path d="M 502.56975 210.223563 
L 512.56975 210.223563 
L 522.56975 210.223563 
" style="fill: none; stroke: #25838e; stroke-width: 1.5; stroke-linecap: square"/>
    </g>
    <g id="text_31">
     <!-- 0.319 -->
     <g transform="translate(530.56975 213.723563) scale(0.1 -0.1)">
      <use xlink:href="#DejaVuSans-30"/>
      <use xlink:href="#DejaVuSans-2e" x="63.623047"/>
      <use xlink:href="#DejaVuSans-33" x="95.410156"/>
      <use xlink:href="#DejaVuSans-31" x="159.033203"/>
      <use xlink:href="#DejaVuSans-39" x="222.65625"/>
     </g>
    </g>
    <g id="line2d_58">
     <path d="M 502.56975 224.901688 
L 512.56975 224.901688 
L 522.56975 224.901688 
" style="fill: none; stroke: #228c8d; stroke-width: 1.5; stroke-linecap: square"/>
    </g>
    <g id="text_32">
     <!-- 0.343 -->
     <g transform="translate(530.56975 228.401688) scale(0.1 -0.1)">
      <use xlink:href="#DejaVuSans-30"/>
      <use xlink:href="#DejaVuSans-2e" x="63.623047"/>
      <use xlink:href="#DejaVuSans-33" x="95.410156"/>
      <use xlink:href="#DejaVuSans-34" x="159.033203"/>
      <use xlink:href="#DejaVuSans-33" x="222.65625"/>
     </g>
    </g>
    <g id="line2d_59">
     <path d="M 502.56975 239.579813 
L 512.56975 239.579813 
L 522.56975 239.579813 
" style="fill: none; stroke: #1f948c; stroke-width: 1.5; stroke-linecap: square"/>
    </g>
    <g id="text_33">
     <!-- 0.367 -->
     <g transform="translate(530.56975 243.079813) scale(0.1 -0.1)">
      <use xlink:href="#DejaVuSans-30"/>
      <use xlink:href="#DejaVuSans-2e" x="63.623047"/>
      <use xlink:href="#DejaVuSans-33" x="95.410156"/>
      <use xlink:href="#DejaVuSans-36" x="159.033203"/>
      <use xlink:href="#DejaVuSans-37" x="222.65625"/>
     </g>
    </g>
    <g id="line2d_60">
     <path d="M 502.56975 254.257938 
L 512.56975 254.257938 
L 522.56975 254.257938 
" style="fill: none; stroke: #1e9d89; stroke-width: 1.5; stroke-linecap: square"/>
    </g>
    <g id="text_34">
     <!-- 0.391 -->
     <g transform="translate(530.56975 257.757938) scale(0.1 -0.1)">
      <use xlink:href="#DejaVuSans-30"/>
      <use xlink:href="#DejaVuSans-2e" x="63.623047"/>
      <use xlink:href="#DejaVuSans-33" x="95.410156"/>
      <use xlink:href="#DejaVuSans-39" x="159.033203"/>
      <use xlink:href="#DejaVuSans-31" x="222.65625"/>
     </g>
    </g>
    <g id="line2d_61">
     <path d="M 502.56975 268.936062 
L 512.56975 268.936062 
L 522.56975 268.936062 
" style="fill: none; stroke: #21a585; stroke-width: 1.5; stroke-linecap: square"/>
    </g>
    <g id="text_35">
     <!-- 0.414 -->
     <g transform="translate(530.56975 272.436062) scale(0.1 -0.1)">
      <use xlink:href="#DejaVuSans-30"/>
      <use xlink:href="#DejaVuSans-2e" x="63.623047"/>
      <use xlink:href="#DejaVuSans-34" x="95.410156"/>
      <use xlink:href="#DejaVuSans-31" x="159.033203"/>
      <use xlink:href="#DejaVuSans-34" x="222.65625"/>
     </g>
    </g>
    <g id="line2d_62">
     <path d="M 502.56975 283.614188 
L 512.56975 283.614188 
L 522.56975 283.614188 
" style="fill: none; stroke: #26ad81; stroke-width: 1.5; stroke-linecap: square"/>
    </g>
    <g id="text_36">
     <!-- 0.438 -->
     <g transform="translate(530.56975 287.114188) scale(0.1 -0.1)">
      <use xlink:href="#DejaVuSans-30"/>
      <use xlink:href="#DejaVuSans-2e" x="63.623047"/>
      <use xlink:href="#DejaVuSans-34" x="95.410156"/>
      <use xlink:href="#DejaVuSans-33" x="159.033203"/>
      <use xlink:href="#DejaVuSans-38" x="222.65625"/>
     </g>
    </g>
    <g id="line2d_63">
     <path d="M 502.56975 298.292312 
L 512.56975 298.292312 
L 522.56975 298.292312 
" style="fill: none; stroke: #31b57b; stroke-width: 1.5; stroke-linecap: square"/>
    </g>
    <g id="text_37">
     <!-- 0.462 -->
     <g transform="translate(530.56975 301.792312) scale(0.1 -0.1)">
      <use xlink:href="#DejaVuSans-30"/>
      <use xlink:href="#DejaVuSans-2e" x="63.623047"/>
      <use xlink:href="#DejaVuSans-34" x="95.410156"/>
      <use xlink:href="#DejaVuSans-36" x="159.033203"/>
      <use xlink:href="#DejaVuSans-32" x="222.65625"/>
     </g>
    </g>
    <g id="line2d_64">
     <path d="M 579.197875 166.189188 
L 589.197875 166.189188 
L 599.197875 166.189188 
" style="fill: none; stroke: #3fbc73; stroke-width: 1.5; stroke-linecap: square"/>
    </g>
    <g id="text_38">
     <!-- 0.486 -->
     <g transform="translate(607.197875 169.689188) scale(0.1 -0.1)">
      <use xlink:href="#DejaVuSans-30"/>
      <use xlink:href="#DejaVuSans-2e" x="63.623047"/>
      <use xlink:href="#DejaVuSans-34" x="95.410156"/>
      <use xlink:href="#DejaVuSans-38" x="159.033203"/>
      <use xlink:href="#DejaVuSans-36" x="222.65625"/>
     </g>
    </g>
    <g id="line2d_65">
     <path d="M 579.197875 180.867313 
L 589.197875 180.867313 
L 599.197875 180.867313 
" style="fill: none; stroke: #50c46a; stroke-width: 1.5; stroke-linecap: square"/>
    </g>
    <g id="text_39">
     <!-- 0.51 -->
     <g transform="translate(607.197875 184.367313) scale(0.1 -0.1)">
      <use xlink:href="#DejaVuSans-30"/>
      <use xlink:href="#DejaVuSans-2e" x="63.623047"/>
      <use xlink:href="#DejaVuSans-35" x="95.410156"/>
      <use xlink:href="#DejaVuSans-31" x="159.033203"/>
     </g>
    </g>
    <g id="line2d_66">
     <path d="M 579.197875 195.545438 
L 589.197875 195.545438 
L 599.197875 195.545438 
" style="fill: none; stroke: #63cb5f; stroke-width: 1.5; stroke-linecap: square"/>
    </g>
    <g id="text_40">
     <!-- 0.533 -->
     <g transform="translate(607.197875 199.045438) scale(0.1 -0.1)">
      <use xlink:href="#DejaVuSans-30"/>
      <use xlink:href="#DejaVuSans-2e" x="63.623047"/>
      <use xlink:href="#DejaVuSans-35" x="95.410156"/>
      <use xlink:href="#DejaVuSans-33" x="159.033203"/>
      <use xlink:href="#DejaVuSans-33" x="222.65625"/>
     </g>
    </g>
    <g id="line2d_67">
     <path d="M 579.197875 210.223563 
L 589.197875 210.223563 
L 599.197875 210.223563 
" style="fill: none; stroke: #77d153; stroke-width: 1.5; stroke-linecap: square"/>
    </g>
    <g id="text_41">
     <!-- 0.557 -->
     <g transform="translate(607.197875 213.723563) scale(0.1 -0.1)">
      <use xlink:href="#DejaVuSans-30"/>
      <use xlink:href="#DejaVuSans-2e" x="63.623047"/>
      <use xlink:href="#DejaVuSans-35" x="95.410156"/>
      <use xlink:href="#DejaVuSans-35" x="159.033203"/>
      <use xlink:href="#DejaVuSans-37" x="222.65625"/>
     </g>
    </g>
    <g id="line2d_68">
     <path d="M 579.197875 224.901688 
L 589.197875 224.901688 
L 599.197875 224.901688 
" style="fill: none; stroke: #8bd646; stroke-width: 1.5; stroke-linecap: square"/>
    </g>
    <g id="text_42">
     <!-- 0.581 -->
     <g transform="translate(607.197875 228.401688) scale(0.1 -0.1)">
      <use xlink:href="#DejaVuSans-30"/>
      <use xlink:href="#DejaVuSans-2e" x="63.623047"/>
      <use xlink:href="#DejaVuSans-35" x="95.410156"/>
      <use xlink:href="#DejaVuSans-38" x="159.033203"/>
      <use xlink:href="#DejaVuSans-31" x="222.65625"/>
     </g>
    </g>
    <g id="line2d_69">
     <path d="M 579.197875 239.579813 
L 589.197875 239.579813 
L 599.197875 239.579813 
" style="fill: none; stroke: #a2da37; stroke-width: 1.5; stroke-linecap: square"/>
    </g>
    <g id="text_43">
     <!-- 0.605 -->
     <g transform="translate(607.197875 243.079813) scale(0.1 -0.1)">
      <use xlink:href="#DejaVuSans-30"/>
      <use xlink:href="#DejaVuSans-2e" x="63.623047"/>
      <use xlink:href="#DejaVuSans-36" x="95.410156"/>
      <use xlink:href="#DejaVuSans-30" x="159.033203"/>
      <use xlink:href="#DejaVuSans-35" x="222.65625"/>
     </g>
    </g>
    <g id="line2d_70">
     <path d="M 579.197875 254.257938 
L 589.197875 254.257938 
L 599.197875 254.257938 
" style="fill: none; stroke: #bade28; stroke-width: 1.5; stroke-linecap: square"/>
    </g>
    <g id="text_44">
     <!-- 0.629 -->
     <g transform="translate(607.197875 257.757938) scale(0.1 -0.1)">
      <use xlink:href="#DejaVuSans-30"/>
      <use xlink:href="#DejaVuSans-2e" x="63.623047"/>
      <use xlink:href="#DejaVuSans-36" x="95.410156"/>
      <use xlink:href="#DejaVuSans-32" x="159.033203"/>
      <use xlink:href="#DejaVuSans-39" x="222.65625"/>
     </g>
    </g>
    <g id="line2d_71">
     <path d="M 579.197875 268.936062 
L 589.197875 268.936062 
L 599.197875 268.936062 
" style="fill: none; stroke: #d2e21b; stroke-width: 1.5; stroke-linecap: square"/>
    </g>
    <g id="text_45">
     <!-- 0.652 -->
     <g transform="translate(607.197875 272.436062) scale(0.1 -0.1)">
      <use xlink:href="#DejaVuSans-30"/>
      <use xlink:href="#DejaVuSans-2e" x="63.623047"/>
      <use xlink:href="#DejaVuSans-36" x="95.410156"/>
      <use xlink:href="#DejaVuSans-35" x="159.033203"/>
      <use xlink:href="#DejaVuSans-32" x="222.65625"/>
     </g>
    </g>
    <g id="line2d_72">
     <path d="M 579.197875 283.614188 
L 589.197875 283.614188 
L 599.197875 283.614188 
" style="fill: none; stroke: #eae51a; stroke-width: 1.5; stroke-linecap: square"/>
    </g>
    <g id="text_46">
     <!-- 0.676 -->
     <g transform="translate(607.197875 287.114188) scale(0.1 -0.1)">
      <use xlink:href="#DejaVuSans-30"/>
      <use xlink:href="#DejaVuSans-2e" x="63.623047"/>
      <use xlink:href="#DejaVuSans-36" x="95.410156"/>
      <use xlink:href="#DejaVuSans-37" x="159.033203"/>
      <use xlink:href="#DejaVuSans-36" x="222.65625"/>
     </g>
    </g>
    <g id="line2d_73">
     <path d="M 579.197875 298.292312 
L 589.197875 298.292312 
L 599.197875 298.292312 
" style="fill: none; stroke: #fde725; stroke-width: 1.5; stroke-linecap: square"/>
    </g>
    <g id="text_47">
     <!-- 0.7 -->
     <g transform="translate(607.197875 301.792312) scale(0.1 -0.1)">
      <use xlink:href="#DejaVuSans-30"/>
      <use xlink:href="#DejaVuSans-2e" x="63.623047"/>
      <use xlink:href="#DejaVuSans-37" x="95.410156"/>
     </g>
    </g>
   </g>
  </g>
  <g id="text_48">
   <!-- x0x1-y0 resonator punchout -->
   <g transform="translate(128.292188 16.318125) scale(0.12 -0.12)">
    <defs>
     <path id="DejaVuSans-78" d="M 3513 3500 
L 2247 1797 
L 3578 0 
L 2900 0 
L 1881 1375 
L 863 0 
L 184 0 
L 1544 1831 
L 300 3500 
L 978 3500 
L 1906 2253 
L 2834 3500 
L 3513 3500 
z
" transform="scale(0.015625)"/>
     <path id="DejaVuSans-2d" d="M 313 2009 
L 1997 2009 
L 1997 1497 
L 313 1497 
L 313 2009 
z
" transform="scale(0.015625)"/>
     <path id="DejaVuSans-68" d="M 3513 2113 
L 3513 0 
L 2938 0 
L 2938 2094 
Q 2938 2591 2744 2837 
Q 2550 3084 2163 3084 
Q 1697 3084 1428 2787 
Q 1159 2491 1159 1978 
L 1159 0 
L 581 0 
L 581 4863 
L 1159 4863 
L 1159 2956 
Q 1366 3272 1645 3428 
Q 1925 3584 2291 3584 
Q 2894 3584 3203 3211 
Q 3513 2838 3513 2113 
z
" transform="scale(0.015625)"/>
    </defs>
    <use xlink:href="#DejaVuSans-78"/>
    <use xlink:href="#DejaVuSans-30" x="59.179688"/>
    <use xlink:href="#DejaVuSans-78" x="122.802734"/>
    <use xlink:href="#DejaVuSans-31" x="181.982422"/>
    <use xlink:href="#DejaVuSans-2d" x="245.605469"/>
    <use xlink:href="#DejaVuSans-79" x="279.939453"/>
    <use xlink:href="#DejaVuSans-30" x="339.119141"/>
    <use xlink:href="#DejaVuSans-20" x="402.742188"/>
    <use xlink:href="#DejaVuSans-72" x="434.529297"/>
    <use xlink:href="#DejaVuSans-65" x="473.392578"/>
    <use xlink:href="#DejaVuSans-73" x="534.916016"/>
    <use xlink:href="#DejaVuSans-6f" x="587.015625"/>
    <use xlink:href="#DejaVuSans-6e" x="648.197266"/>
    <use xlink:href="#DejaVuSans-61" x="711.576172"/>
    <use xlink:href="#DejaVuSans-74" x="772.855469"/>
    <use xlink:href="#DejaVuSans-6f" x="812.064453"/>
    <use xlink:href="#DejaVuSans-72" x="873.246094"/>
    <use xlink:href="#DejaVuSans-20" x="914.359375"/>
    <use xlink:href="#DejaVuSans-70" x="946.146484"/>
    <use xlink:href="#DejaVuSans-75" x="1009.623047"/>
    <use xlink:href="#DejaVuSans-6e" x="1073.001953"/>
    <use xlink:href="#DejaVuSans-63" x="1136.380859"/>
    <use xlink:href="#DejaVuSans-68" x="1191.361328"/>
    <use xlink:href="#DejaVuSans-6f" x="1254.740234"/>
    <use xlink:href="#DejaVuSans-75" x="1315.921875"/>
    <use xlink:href="#DejaVuSans-74" x="1379.300781"/>
   </g>
   <!-- tuid: 20231225-160143-561-7e0d2f -->
   <g transform="translate(105.387188 29.7555) scale(0.12 -0.12)">
    <defs>
     <path id="DejaVuSans-3a" d="M 750 794 
L 1409 794 
L 1409 0 
L 750 0 
L 750 794 
z
M 750 3309 
L 1409 3309 
L 1409 2516 
L 750 2516 
L 750 3309 
z
" transform="scale(0.015625)"/>
     <path id="DejaVuSans-66" d="M 2375 4863 
L 2375 4384 
L 1825 4384 
Q 1516 4384 1395 4259 
Q 1275 4134 1275 3809 
L 1275 3500 
L 2222 3500 
L 2222 3053 
L 1275 3053 
L 1275 0 
L 697 0 
L 697 3053 
L 147 3053 
L 147 3500 
L 697 3500 
L 697 3744 
Q 697 4328 969 4595 
Q 1241 4863 1831 4863 
L 2375 4863 
z
" transform="scale(0.015625)"/>
    </defs>
    <use xlink:href="#DejaVuSans-74"/>
    <use xlink:href="#DejaVuSans-75" x="39.208984"/>
    <use xlink:href="#DejaVuSans-69" x="102.587891"/>
    <use xlink:href="#DejaVuSans-64" x="130.371094"/>
    <use xlink:href="#DejaVuSans-3a" x="193.847656"/>
    <use xlink:href="#DejaVuSans-20" x="227.539062"/>
    <use xlink:href="#DejaVuSans-32" x="259.326172"/>
    <use xlink:href="#DejaVuSans-30" x="322.949219"/>
    <use xlink:href="#DejaVuSans-32" x="386.572266"/>
    <use xlink:href="#DejaVuSans-33" x="450.195312"/>
    <use xlink:href="#DejaVuSans-31" x="513.818359"/>
    <use xlink:href="#DejaVuSans-32" x="577.441406"/>
    <use xlink:href="#DejaVuSans-32" x="641.064453"/>
    <use xlink:href="#DejaVuSans-35" x="704.6875"/>
    <use xlink:href="#DejaVuSans-2d" x="768.310547"/>
    <use xlink:href="#DejaVuSans-31" x="804.394531"/>
    <use xlink:href="#DejaVuSans-36" x="868.017578"/>
    <use xlink:href="#DejaVuSans-30" x="931.640625"/>
    <use xlink:href="#DejaVuSans-31" x="995.263672"/>
    <use xlink:href="#DejaVuSans-34" x="1058.886719"/>
    <use xlink:href="#DejaVuSans-33" x="1122.509766"/>
    <use xlink:href="#DejaVuSans-2d" x="1186.132812"/>
    <use xlink:href="#DejaVuSans-35" x="1222.216797"/>
    <use xlink:href="#DejaVuSans-36" x="1285.839844"/>
    <use xlink:href="#DejaVuSans-31" x="1349.462891"/>
    <use xlink:href="#DejaVuSans-2d" x="1413.085938"/>
    <use xlink:href="#DejaVuSans-37" x="1449.169922"/>
    <use xlink:href="#DejaVuSans-65" x="1512.792969"/>
    <use xlink:href="#DejaVuSans-30" x="1574.316406"/>
    <use xlink:href="#DejaVuSans-64" x="1637.939453"/>
    <use xlink:href="#DejaVuSans-32" x="1701.416016"/>
    <use xlink:href="#DejaVuSans-66" x="1765.039062"/>
   </g>
  </g>
 </g>
 <defs>
  <clipPath id="p1d1170d9fd">
   <rect x="40.603125" y="41.76" width="357.12" height="266.112"/>
  </clipPath>
 </defs>
</svg>
