<?xml version="1.0" encoding="utf-8" standalone="no"?>
<!DOCTYPE svg PUBLIC "-//W3C//DTD SVG 1.1//EN"
  "http://www.w3.org/Graphics/SVG/1.1/DTD/svg11.dtd">
<svg xmlns:xlink="http://www.w3.org/1999/xlink" width="618.2635pt" height="345.42825pt" viewBox="0 0 618.2635 345.42825" xmlns="http://www.w3.org/2000/svg" version="1.1">
 <metadata>
  <rdf:RDF xmlns:dc="http://purl.org/dc/elements/1.1/" xmlns:cc="http://creativecommons.org/ns#" xmlns:rdf="http://www.w3.org/1999/02/22-rdf-syntax-ns#">
   <cc:Work>
    <dc:type rdf:resource="http://purl.org/dc/dcmitype/StillImage"/>
    <dc:date>2023-12-27T16:32:45.380523</dc:date>
    <dc:format>image/svg+xml</dc:format>
    <dc:creator>
     <cc:Agent>
      <dc:title>Matplotlib v3.8.2, https://matplotlib.org/</dc:title>
     </cc:Agent>
    </dc:creator>
   </cc:Work>
  </rdf:RDF>
 </metadata>
 <defs>
  <style type="text/css">*{stroke-linejoin: round; stroke-linecap: butt}</style>
 </defs>
 <g id="figure_1">
  <g id="patch_1">
   <path d="M 0 345.42825 
L 618.2635 345.42825 
L 618.2635 -0 
L 0 -0 
L 0 345.42825 
z
" style="fill: none; opacity: 0"/>
  </g>
  <g id="axes_1">
   <g id="patch_2">
    <path d="M 49.0875 307.872 
L 406.2075 307.872 
L 406.2075 41.76 
L 49.0875 41.76 
z
" style="fill: #ffffff"/>
   </g>
   <g id="matplotlib.axis_1">
    <g id="xtick_1">
     <g id="line2d_1">
      <defs>
       <path id="m97418418e9" d="M 0 0 
L 0 3.5 
" style="stroke: #000000; stroke-width: 0.8"/>
      </defs>
      <g>
       <use xlink:href="#m97418418e9" x="58.694624" y="307.872" style="stroke: #000000; stroke-width: 0.8"/>
      </g>
     </g>
     <g id="text_1">
      <!-- 0 -->
      <g transform="translate(55.513374 322.470438) scale(0.1 -0.1)">
       <defs>
        <path id="DejaVuSans-30" d="M 2034 4250 
Q 1547 4250 1301 3770 
Q 1056 3291 1056 2328 
Q 1056 1369 1301 889 
Q 1547 409 2034 409 
Q 2525 409 2770 889 
Q 3016 1369 3016 2328 
Q 3016 3291 2770 3770 
Q 2525 4250 2034 4250 
z
M 2034 4750 
Q 2819 4750 3233 4129 
Q 3647 3509 3647 2328 
Q 3647 1150 3233 529 
Q 2819 -91 2034 -91 
Q 1250 -91 836 529 
Q 422 1150 422 2328 
Q 422 3509 836 4129 
Q 1250 4750 2034 4750 
z
" transform="scale(0.015625)"/>
       </defs>
       <use xlink:href="#DejaVuSans-30"/>
      </g>
     </g>
    </g>
    <g id="xtick_2">
     <g id="line2d_2">
      <g>
       <use xlink:href="#m97418418e9" x="100.104643" y="307.872" style="stroke: #000000; stroke-width: 0.8"/>
      </g>
     </g>
     <g id="text_2">
      <!-- 25 -->
      <g transform="translate(93.742143 322.470438) scale(0.1 -0.1)">
       <defs>
        <path id="DejaVuSans-32" d="M 1228 531 
L 3431 531 
L 3431 0 
L 469 0 
L 469 531 
Q 828 903 1448 1529 
Q 2069 2156 2228 2338 
Q 2531 2678 2651 2914 
Q 2772 3150 2772 3378 
Q 2772 3750 2511 3984 
Q 2250 4219 1831 4219 
Q 1534 4219 1204 4116 
Q 875 4013 500 3803 
L 500 4441 
Q 881 4594 1212 4672 
Q 1544 4750 1819 4750 
Q 2544 4750 2975 4387 
Q 3406 4025 3406 3419 
Q 3406 3131 3298 2873 
Q 3191 2616 2906 2266 
Q 2828 2175 2409 1742 
Q 1991 1309 1228 531 
z
" transform="scale(0.015625)"/>
        <path id="DejaVuSans-35" d="M 691 4666 
L 3169 4666 
L 3169 4134 
L 1269 4134 
L 1269 2991 
Q 1406 3038 1543 3061 
Q 1681 3084 1819 3084 
Q 2600 3084 3056 2656 
Q 3513 2228 3513 1497 
Q 3513 744 3044 326 
Q 2575 -91 1722 -91 
Q 1428 -91 1123 -41 
Q 819 9 494 109 
L 494 744 
Q 775 591 1075 516 
Q 1375 441 1709 441 
Q 2250 441 2565 725 
Q 2881 1009 2881 1497 
Q 2881 1984 2565 2268 
Q 2250 2553 1709 2553 
Q 1456 2553 1204 2497 
Q 953 2441 691 2322 
L 691 4666 
z
" transform="scale(0.015625)"/>
       </defs>
       <use xlink:href="#DejaVuSans-32"/>
       <use xlink:href="#DejaVuSans-35" x="63.623047"/>
      </g>
     </g>
    </g>
    <g id="xtick_3">
     <g id="line2d_3">
      <g>
       <use xlink:href="#m97418418e9" x="141.514661" y="307.872" style="stroke: #000000; stroke-width: 0.8"/>
      </g>
     </g>
     <g id="text_3">
      <!-- 50 -->
      <g transform="translate(135.152161 322.470438) scale(0.1 -0.1)">
       <use xlink:href="#DejaVuSans-35"/>
       <use xlink:href="#DejaVuSans-30" x="63.623047"/>
      </g>
     </g>
    </g>
    <g id="xtick_4">
     <g id="line2d_4">
      <g>
       <use xlink:href="#m97418418e9" x="182.92468" y="307.872" style="stroke: #000000; stroke-width: 0.8"/>
      </g>
     </g>
     <g id="text_4">
      <!-- 75 -->
      <g transform="translate(176.56218 322.470438) scale(0.1 -0.1)">
       <defs>
        <path id="DejaVuSans-37" d="M 525 4666 
L 3525 4666 
L 3525 4397 
L 1831 0 
L 1172 0 
L 2766 4134 
L 525 4134 
L 525 4666 
z
" transform="scale(0.015625)"/>
       </defs>
       <use xlink:href="#DejaVuSans-37"/>
       <use xlink:href="#DejaVuSans-35" x="63.623047"/>
      </g>
     </g>
    </g>
    <g id="xtick_5">
     <g id="line2d_5">
      <g>
       <use xlink:href="#m97418418e9" x="224.334699" y="307.872" style="stroke: #000000; stroke-width: 0.8"/>
      </g>
     </g>
     <g id="text_5">
      <!-- 100 -->
      <g transform="translate(214.790949 322.470438) scale(0.1 -0.1)">
       <defs>
        <path id="DejaVuSans-31" d="M 794 531 
L 1825 531 
L 1825 4091 
L 703 3866 
L 703 4441 
L 1819 4666 
L 2450 4666 
L 2450 531 
L 3481 531 
L 3481 0 
L 794 0 
L 794 531 
z
" transform="scale(0.015625)"/>
       </defs>
       <use xlink:href="#DejaVuSans-31"/>
       <use xlink:href="#DejaVuSans-30" x="63.623047"/>
       <use xlink:href="#DejaVuSans-30" x="127.246094"/>
      </g>
     </g>
    </g>
    <g id="xtick_6">
     <g id="line2d_6">
      <g>
       <use xlink:href="#m97418418e9" x="265.744717" y="307.872" style="stroke: #000000; stroke-width: 0.8"/>
      </g>
     </g>
     <g id="text_6">
      <!-- 125 -->
      <g transform="translate(256.200967 322.470438) scale(0.1 -0.1)">
       <use xlink:href="#DejaVuSans-31"/>
       <use xlink:href="#DejaVuSans-32" x="63.623047"/>
       <use xlink:href="#DejaVuSans-35" x="127.246094"/>
      </g>
     </g>
    </g>
    <g id="xtick_7">
     <g id="line2d_7">
      <g>
       <use xlink:href="#m97418418e9" x="307.154736" y="307.872" style="stroke: #000000; stroke-width: 0.8"/>
      </g>
     </g>
     <g id="text_7">
      <!-- 150 -->
      <g transform="translate(297.610986 322.470438) scale(0.1 -0.1)">
       <use xlink:href="#DejaVuSans-31"/>
       <use xlink:href="#DejaVuSans-35" x="63.623047"/>
       <use xlink:href="#DejaVuSans-30" x="127.246094"/>
      </g>
     </g>
    </g>
    <g id="xtick_8">
     <g id="line2d_8">
      <g>
       <use xlink:href="#m97418418e9" x="348.564754" y="307.872" style="stroke: #000000; stroke-width: 0.8"/>
      </g>
     </g>
     <g id="text_8">
      <!-- 175 -->
      <g transform="translate(339.021004 322.470438) scale(0.1 -0.1)">
       <use xlink:href="#DejaVuSans-31"/>
       <use xlink:href="#DejaVuSans-37" x="63.623047"/>
       <use xlink:href="#DejaVuSans-35" x="127.246094"/>
      </g>
     </g>
    </g>
    <g id="xtick_9">
     <g id="line2d_9">
      <g>
       <use xlink:href="#m97418418e9" x="389.974773" y="307.872" style="stroke: #000000; stroke-width: 0.8"/>
      </g>
     </g>
     <g id="text_9">
      <!-- 200 -->
      <g transform="translate(380.431023 322.470438) scale(0.1 -0.1)">
       <use xlink:href="#DejaVuSans-32"/>
       <use xlink:href="#DejaVuSans-30" x="63.623047"/>
       <use xlink:href="#DejaVuSans-30" x="127.246094"/>
      </g>
     </g>
    </g>
    <g id="text_10">
     <!-- Time [ns] -->
     <g transform="translate(204.149844 336.148562) scale(0.1 -0.1)">
      <defs>
       <path id="DejaVuSans-54" d="M -19 4666 
L 3928 4666 
L 3928 4134 
L 2272 4134 
L 2272 0 
L 1638 0 
L 1638 4134 
L -19 4134 
L -19 4666 
z
" transform="scale(0.015625)"/>
       <path id="DejaVuSans-69" d="M 603 3500 
L 1178 3500 
L 1178 0 
L 603 0 
L 603 3500 
z
M 603 4863 
L 1178 4863 
L 1178 4134 
L 603 4134 
L 603 4863 
z
" transform="scale(0.015625)"/>
       <path id="DejaVuSans-6d" d="M 3328 2828 
Q 3544 3216 3844 3400 
Q 4144 3584 4550 3584 
Q 5097 3584 5394 3201 
Q 5691 2819 5691 2113 
L 5691 0 
L 5113 0 
L 5113 2094 
Q 5113 2597 4934 2840 
Q 4756 3084 4391 3084 
Q 3944 3084 3684 2787 
Q 3425 2491 3425 1978 
L 3425 0 
L 2847 0 
L 2847 2094 
Q 2847 2600 2669 2842 
Q 2491 3084 2119 3084 
Q 1678 3084 1418 2786 
Q 1159 2488 1159 1978 
L 1159 0 
L 581 0 
L 581 3500 
L 1159 3500 
L 1159 2956 
Q 1356 3278 1631 3431 
Q 1906 3584 2284 3584 
Q 2666 3584 2933 3390 
Q 3200 3197 3328 2828 
z
" transform="scale(0.015625)"/>
       <path id="DejaVuSans-65" d="M 3597 1894 
L 3597 1613 
L 953 1613 
Q 991 1019 1311 708 
Q 1631 397 2203 397 
Q 2534 397 2845 478 
Q 3156 559 3463 722 
L 3463 178 
Q 3153 47 2828 -22 
Q 2503 -91 2169 -91 
Q 1331 -91 842 396 
Q 353 884 353 1716 
Q 353 2575 817 3079 
Q 1281 3584 2069 3584 
Q 2775 3584 3186 3129 
Q 3597 2675 3597 1894 
z
M 3022 2063 
Q 3016 2534 2758 2815 
Q 2500 3097 2075 3097 
Q 1594 3097 1305 2825 
Q 1016 2553 972 2059 
L 3022 2063 
z
" transform="scale(0.015625)"/>
       <path id="DejaVuSans-20" transform="scale(0.015625)"/>
       <path id="DejaVuSans-5b" d="M 550 4863 
L 1875 4863 
L 1875 4416 
L 1125 4416 
L 1125 -397 
L 1875 -397 
L 1875 -844 
L 550 -844 
L 550 4863 
z
" transform="scale(0.015625)"/>
       <path id="DejaVuSans-6e" d="M 3513 2113 
L 3513 0 
L 2938 0 
L 2938 2094 
Q 2938 2591 2744 2837 
Q 2550 3084 2163 3084 
Q 1697 3084 1428 2787 
Q 1159 2491 1159 1978 
L 1159 0 
L 581 0 
L 581 3500 
L 1159 3500 
L 1159 2956 
Q 1366 3272 1645 3428 
Q 1925 3584 2291 3584 
Q 2894 3584 3203 3211 
Q 3513 2838 3513 2113 
z
" transform="scale(0.015625)"/>
       <path id="DejaVuSans-73" d="M 2834 3397 
L 2834 2853 
Q 2591 2978 2328 3040 
Q 2066 3103 1784 3103 
Q 1356 3103 1142 2972 
Q 928 2841 928 2578 
Q 928 2378 1081 2264 
Q 1234 2150 1697 2047 
L 1894 2003 
Q 2506 1872 2764 1633 
Q 3022 1394 3022 966 
Q 3022 478 2636 193 
Q 2250 -91 1575 -91 
Q 1294 -91 989 -36 
Q 684 19 347 128 
L 347 722 
Q 666 556 975 473 
Q 1284 391 1588 391 
Q 1994 391 2212 530 
Q 2431 669 2431 922 
Q 2431 1156 2273 1281 
Q 2116 1406 1581 1522 
L 1381 1569 
Q 847 1681 609 1914 
Q 372 2147 372 2553 
Q 372 3047 722 3315 
Q 1072 3584 1716 3584 
Q 2034 3584 2315 3537 
Q 2597 3491 2834 3397 
z
" transform="scale(0.015625)"/>
       <path id="DejaVuSans-5d" d="M 1947 4863 
L 1947 -844 
L 622 -844 
L 622 -397 
L 1369 -397 
L 1369 4416 
L 622 4416 
L 622 4863 
L 1947 4863 
z
" transform="scale(0.015625)"/>
      </defs>
      <use xlink:href="#DejaVuSans-54"/>
      <use xlink:href="#DejaVuSans-69" x="57.958984"/>
      <use xlink:href="#DejaVuSans-6d" x="85.742188"/>
      <use xlink:href="#DejaVuSans-65" x="183.154297"/>
      <use xlink:href="#DejaVuSans-20" x="244.677734"/>
      <use xlink:href="#DejaVuSans-5b" x="276.464844"/>
      <use xlink:href="#DejaVuSans-6e" x="315.478516"/>
      <use xlink:href="#DejaVuSans-73" x="378.857422"/>
      <use xlink:href="#DejaVuSans-5d" x="430.957031"/>
     </g>
    </g>
   </g>
   <g id="matplotlib.axis_2">
    <g id="ytick_1">
     <g id="line2d_10">
      <defs>
       <path id="m05dae280a5" d="M 0 0 
L -3.5 0 
" style="stroke: #000000; stroke-width: 0.8"/>
      </defs>
      <g>
       <use xlink:href="#m05dae280a5" x="49.0875" y="276.046731" style="stroke: #000000; stroke-width: 0.8"/>
      </g>
     </g>
     <g id="text_11">
      <!-- 400 -->
      <g transform="translate(23 279.84595) scale(0.1 -0.1)">
       <defs>
        <path id="DejaVuSans-34" d="M 2419 4116 
L 825 1625 
L 2419 1625 
L 2419 4116 
z
M 2253 4666 
L 3047 4666 
L 3047 1625 
L 3713 1625 
L 3713 1100 
L 3047 1100 
L 3047 0 
L 2419 0 
L 2419 1100 
L 313 1100 
L 313 1709 
L 2253 4666 
z
" transform="scale(0.015625)"/>
       </defs>
       <use xlink:href="#DejaVuSans-34"/>
       <use xlink:href="#DejaVuSans-30" x="63.623047"/>
       <use xlink:href="#DejaVuSans-30" x="127.246094"/>
      </g>
     </g>
    </g>
    <g id="ytick_2">
     <g id="line2d_11">
      <g>
       <use xlink:href="#m05dae280a5" x="49.0875" y="218.277021" style="stroke: #000000; stroke-width: 0.8"/>
      </g>
     </g>
     <g id="text_12">
      <!-- 500 -->
      <g transform="translate(23 222.07624) scale(0.1 -0.1)">
       <use xlink:href="#DejaVuSans-35"/>
       <use xlink:href="#DejaVuSans-30" x="63.623047"/>
       <use xlink:href="#DejaVuSans-30" x="127.246094"/>
      </g>
     </g>
    </g>
    <g id="ytick_3">
     <g id="line2d_12">
      <g>
       <use xlink:href="#m05dae280a5" x="49.0875" y="160.507312" style="stroke: #000000; stroke-width: 0.8"/>
      </g>
     </g>
     <g id="text_13">
      <!-- 600 -->
      <g transform="translate(23 164.30653) scale(0.1 -0.1)">
       <defs>
        <path id="DejaVuSans-36" d="M 2113 2584 
Q 1688 2584 1439 2293 
Q 1191 2003 1191 1497 
Q 1191 994 1439 701 
Q 1688 409 2113 409 
Q 2538 409 2786 701 
Q 3034 994 3034 1497 
Q 3034 2003 2786 2293 
Q 2538 2584 2113 2584 
z
M 3366 4563 
L 3366 3988 
Q 3128 4100 2886 4159 
Q 2644 4219 2406 4219 
Q 1781 4219 1451 3797 
Q 1122 3375 1075 2522 
Q 1259 2794 1537 2939 
Q 1816 3084 2150 3084 
Q 2853 3084 3261 2657 
Q 3669 2231 3669 1497 
Q 3669 778 3244 343 
Q 2819 -91 2113 -91 
Q 1303 -91 875 529 
Q 447 1150 447 2328 
Q 447 3434 972 4092 
Q 1497 4750 2381 4750 
Q 2619 4750 2861 4703 
Q 3103 4656 3366 4563 
z
" transform="scale(0.015625)"/>
       </defs>
       <use xlink:href="#DejaVuSans-36"/>
       <use xlink:href="#DejaVuSans-30" x="63.623047"/>
       <use xlink:href="#DejaVuSans-30" x="127.246094"/>
      </g>
     </g>
    </g>
    <g id="ytick_4">
     <g id="line2d_13">
      <g>
       <use xlink:href="#m05dae280a5" x="49.0875" y="102.737602" style="stroke: #000000; stroke-width: 0.8"/>
      </g>
     </g>
     <g id="text_14">
      <!-- 700 -->
      <g transform="translate(23 106.536821) scale(0.1 -0.1)">
       <use xlink:href="#DejaVuSans-37"/>
       <use xlink:href="#DejaVuSans-30" x="63.623047"/>
       <use xlink:href="#DejaVuSans-30" x="127.246094"/>
      </g>
     </g>
    </g>
    <g id="ytick_5">
     <g id="line2d_14">
      <g>
       <use xlink:href="#m05dae280a5" x="49.0875" y="44.967892" style="stroke: #000000; stroke-width: 0.8"/>
      </g>
     </g>
     <g id="text_15">
      <!-- 800 -->
      <g transform="translate(23 48.767111) scale(0.1 -0.1)">
       <defs>
        <path id="DejaVuSans-38" d="M 2034 2216 
Q 1584 2216 1326 1975 
Q 1069 1734 1069 1313 
Q 1069 891 1326 650 
Q 1584 409 2034 409 
Q 2484 409 2743 651 
Q 3003 894 3003 1313 
Q 3003 1734 2745 1975 
Q 2488 2216 2034 2216 
z
M 1403 2484 
Q 997 2584 770 2862 
Q 544 3141 544 3541 
Q 544 4100 942 4425 
Q 1341 4750 2034 4750 
Q 2731 4750 3128 4425 
Q 3525 4100 3525 3541 
Q 3525 3141 3298 2862 
Q 3072 2584 2669 2484 
Q 3125 2378 3379 2068 
Q 3634 1759 3634 1313 
Q 3634 634 3220 271 
Q 2806 -91 2034 -91 
Q 1263 -91 848 271 
Q 434 634 434 1313 
Q 434 1759 690 2068 
Q 947 2378 1403 2484 
z
M 1172 3481 
Q 1172 3119 1398 2916 
Q 1625 2713 2034 2713 
Q 2441 2713 2670 2916 
Q 2900 3119 2900 3481 
Q 2900 3844 2670 4047 
Q 2441 4250 2034 4250 
Q 1625 4250 1398 4047 
Q 1172 3844 1172 3481 
z
" transform="scale(0.015625)"/>
       </defs>
       <use xlink:href="#DejaVuSans-38"/>
       <use xlink:href="#DejaVuSans-30" x="63.623047"/>
       <use xlink:href="#DejaVuSans-30" x="127.246094"/>
      </g>
     </g>
    </g>
    <g id="text_16">
     <!-- Rotated transmission $S_{21}^R$ [μV] -->
     <g transform="translate(16.2 249.566) rotate(-90) scale(0.1 -0.1)">
      <defs>
       <path id="DejaVuSans-52" d="M 2841 2188 
Q 3044 2119 3236 1894 
Q 3428 1669 3622 1275 
L 4263 0 
L 3584 0 
L 2988 1197 
Q 2756 1666 2539 1819 
Q 2322 1972 1947 1972 
L 1259 1972 
L 1259 0 
L 628 0 
L 628 4666 
L 2053 4666 
Q 2853 4666 3247 4331 
Q 3641 3997 3641 3322 
Q 3641 2881 3436 2590 
Q 3231 2300 2841 2188 
z
M 1259 4147 
L 1259 2491 
L 2053 2491 
Q 2509 2491 2742 2702 
Q 2975 2913 2975 3322 
Q 2975 3731 2742 3939 
Q 2509 4147 2053 4147 
L 1259 4147 
z
" transform="scale(0.015625)"/>
       <path id="DejaVuSans-6f" d="M 1959 3097 
Q 1497 3097 1228 2736 
Q 959 2375 959 1747 
Q 959 1119 1226 758 
Q 1494 397 1959 397 
Q 2419 397 2687 759 
Q 2956 1122 2956 1747 
Q 2956 2369 2687 2733 
Q 2419 3097 1959 3097 
z
M 1959 3584 
Q 2709 3584 3137 3096 
Q 3566 2609 3566 1747 
Q 3566 888 3137 398 
Q 2709 -91 1959 -91 
Q 1206 -91 779 398 
Q 353 888 353 1747 
Q 353 2609 779 3096 
Q 1206 3584 1959 3584 
z
" transform="scale(0.015625)"/>
       <path id="DejaVuSans-74" d="M 1172 4494 
L 1172 3500 
L 2356 3500 
L 2356 3053 
L 1172 3053 
L 1172 1153 
Q 1172 725 1289 603 
Q 1406 481 1766 481 
L 2356 481 
L 2356 0 
L 1766 0 
Q 1100 0 847 248 
Q 594 497 594 1153 
L 594 3053 
L 172 3053 
L 172 3500 
L 594 3500 
L 594 4494 
L 1172 4494 
z
" transform="scale(0.015625)"/>
       <path id="DejaVuSans-61" d="M 2194 1759 
Q 1497 1759 1228 1600 
Q 959 1441 959 1056 
Q 959 750 1161 570 
Q 1363 391 1709 391 
Q 2188 391 2477 730 
Q 2766 1069 2766 1631 
L 2766 1759 
L 2194 1759 
z
M 3341 1997 
L 3341 0 
L 2766 0 
L 2766 531 
Q 2569 213 2275 61 
Q 1981 -91 1556 -91 
Q 1019 -91 701 211 
Q 384 513 384 1019 
Q 384 1609 779 1909 
Q 1175 2209 1959 2209 
L 2766 2209 
L 2766 2266 
Q 2766 2663 2505 2880 
Q 2244 3097 1772 3097 
Q 1472 3097 1187 3025 
Q 903 2953 641 2809 
L 641 3341 
Q 956 3463 1253 3523 
Q 1550 3584 1831 3584 
Q 2591 3584 2966 3190 
Q 3341 2797 3341 1997 
z
" transform="scale(0.015625)"/>
       <path id="DejaVuSans-64" d="M 2906 2969 
L 2906 4863 
L 3481 4863 
L 3481 0 
L 2906 0 
L 2906 525 
Q 2725 213 2448 61 
Q 2172 -91 1784 -91 
Q 1150 -91 751 415 
Q 353 922 353 1747 
Q 353 2572 751 3078 
Q 1150 3584 1784 3584 
Q 2172 3584 2448 3432 
Q 2725 3281 2906 2969 
z
M 947 1747 
Q 947 1113 1208 752 
Q 1469 391 1925 391 
Q 2381 391 2643 752 
Q 2906 1113 2906 1747 
Q 2906 2381 2643 2742 
Q 2381 3103 1925 3103 
Q 1469 3103 1208 2742 
Q 947 2381 947 1747 
z
" transform="scale(0.015625)"/>
       <path id="DejaVuSans-72" d="M 2631 2963 
Q 2534 3019 2420 3045 
Q 2306 3072 2169 3072 
Q 1681 3072 1420 2755 
Q 1159 2438 1159 1844 
L 1159 0 
L 581 0 
L 581 3500 
L 1159 3500 
L 1159 2956 
Q 1341 3275 1631 3429 
Q 1922 3584 2338 3584 
Q 2397 3584 2469 3576 
Q 2541 3569 2628 3553 
L 2631 2963 
z
" transform="scale(0.015625)"/>
       <path id="DejaVuSans-Oblique-53" d="M 3859 4513 
L 3738 3897 
Q 3422 4066 3111 4152 
Q 2800 4238 2509 4238 
Q 1944 4238 1609 3991 
Q 1275 3744 1275 3334 
Q 1275 3109 1398 2989 
Q 1522 2869 2034 2731 
L 2413 2638 
Q 3053 2472 3303 2217 
Q 3553 1963 3553 1503 
Q 3553 797 2998 353 
Q 2444 -91 1538 -91 
Q 1166 -91 791 -17 
Q 416 56 38 206 
L 166 856 
Q 513 641 861 531 
Q 1209 422 1556 422 
Q 2147 422 2503 684 
Q 2859 947 2859 1369 
Q 2859 1650 2717 1795 
Q 2575 1941 2106 2059 
L 1728 2156 
Q 1081 2325 845 2545 
Q 609 2766 609 3163 
Q 609 3859 1145 4304 
Q 1681 4750 2541 4750 
Q 2875 4750 3203 4690 
Q 3531 4631 3859 4513 
z
" transform="scale(0.015625)"/>
       <path id="DejaVuSans-Oblique-52" d="M 1613 4147 
L 1294 2491 
L 2106 2491 
Q 2584 2491 2879 2755 
Q 3175 3019 3175 3444 
Q 3175 3784 2976 3965 
Q 2778 4147 2406 4147 
L 1613 4147 
z
M 2772 2241 
Q 2972 2194 3105 2009 
Q 3238 1825 3413 1275 
L 3809 0 
L 3144 0 
L 2778 1197 
Q 2638 1659 2453 1815 
Q 2269 1972 1888 1972 
L 1191 1972 
L 806 0 
L 172 0 
L 1081 4666 
L 2503 4666 
Q 3150 4666 3495 4373 
Q 3841 4081 3841 3531 
Q 3841 3044 3547 2687 
Q 3253 2331 2772 2241 
z
" transform="scale(0.015625)"/>
       <path id="DejaVuSans-3bc" d="M 544 -1331 
L 544 3500 
L 1119 3500 
L 1119 1325 
Q 1119 872 1334 640 
Q 1550 409 1972 409 
Q 2434 409 2667 671 
Q 2900 934 2900 1459 
L 2900 3500 
L 3475 3500 
L 3475 806 
Q 3475 619 3529 530 
Q 3584 441 3700 441 
Q 3728 441 3778 458 
Q 3828 475 3916 513 
L 3916 50 
Q 3788 -22 3673 -56 
Q 3559 -91 3450 -91 
Q 3234 -91 3106 31 
Q 2978 153 2931 403 
Q 2775 156 2548 32 
Q 2322 -91 2016 -91 
Q 1697 -91 1473 31 
Q 1250 153 1119 397 
L 1119 -1331 
L 544 -1331 
z
" transform="scale(0.015625)"/>
       <path id="DejaVuSans-56" d="M 1831 0 
L 50 4666 
L 709 4666 
L 2188 738 
L 3669 4666 
L 4325 4666 
L 2547 0 
L 1831 0 
z
" transform="scale(0.015625)"/>
      </defs>
      <use xlink:href="#DejaVuSans-52" transform="translate(0 0.684375)"/>
      <use xlink:href="#DejaVuSans-6f" transform="translate(69.482422 0.684375)"/>
      <use xlink:href="#DejaVuSans-74" transform="translate(130.664062 0.684375)"/>
      <use xlink:href="#DejaVuSans-61" transform="translate(169.873047 0.684375)"/>
      <use xlink:href="#DejaVuSans-74" transform="translate(231.152344 0.684375)"/>
      <use xlink:href="#DejaVuSans-65" transform="translate(270.361328 0.684375)"/>
      <use xlink:href="#DejaVuSans-64" transform="translate(331.884766 0.684375)"/>
      <use xlink:href="#DejaVuSans-20" transform="translate(395.361328 0.684375)"/>
      <use xlink:href="#DejaVuSans-74" transform="translate(427.148438 0.684375)"/>
      <use xlink:href="#DejaVuSans-72" transform="translate(466.357422 0.684375)"/>
      <use xlink:href="#DejaVuSans-61" transform="translate(507.470703 0.684375)"/>
      <use xlink:href="#DejaVuSans-6e" transform="translate(568.75 0.684375)"/>
      <use xlink:href="#DejaVuSans-73" transform="translate(632.128906 0.684375)"/>
      <use xlink:href="#DejaVuSans-6d" transform="translate(684.228516 0.684375)"/>
      <use xlink:href="#DejaVuSans-69" transform="translate(781.640625 0.684375)"/>
      <use xlink:href="#DejaVuSans-73" transform="translate(809.423828 0.684375)"/>
      <use xlink:href="#DejaVuSans-73" transform="translate(861.523438 0.684375)"/>
      <use xlink:href="#DejaVuSans-69" transform="translate(913.623047 0.684375)"/>
      <use xlink:href="#DejaVuSans-6f" transform="translate(941.40625 0.684375)"/>
      <use xlink:href="#DejaVuSans-6e" transform="translate(1002.587891 0.684375)"/>
      <use xlink:href="#DejaVuSans-20" transform="translate(1065.966797 0.684375)"/>
      <use xlink:href="#DejaVuSans-Oblique-53" transform="translate(1097.753906 0.684375)"/>
      <use xlink:href="#DejaVuSans-Oblique-52" transform="translate(1168.43099 38.965625) scale(0.7)"/>
      <use xlink:href="#DejaVuSans-32" transform="translate(1161.230469 -26.659375) scale(0.7)"/>
      <use xlink:href="#DejaVuSans-31" transform="translate(1205.766602 -26.659375) scale(0.7)"/>
      <use xlink:href="#DejaVuSans-20" transform="translate(1253.037109 0.684375)"/>
      <use xlink:href="#DejaVuSans-5b" transform="translate(1284.824219 0.684375)"/>
      <use xlink:href="#DejaVuSans-3bc" transform="translate(1323.837891 0.684375)"/>
      <use xlink:href="#DejaVuSans-56" transform="translate(1387.460938 0.684375)"/>
      <use xlink:href="#DejaVuSans-5d" transform="translate(1455.869141 0.684375)"/>
     </g>
    </g>
   </g>
   <g id="line2d_15">
    <defs>
     <path id="m37c9b3d1ac" d="M 0 1.5 
C 0.397805 1.5 0.77937 1.341951 1.06066 1.06066 
C 1.341951 0.77937 1.5 0.397805 1.5 0 
C 1.5 -0.397805 1.341951 -0.77937 1.06066 -1.06066 
C 0.77937 -1.341951 0.397805 -1.5 0 -1.5 
C -0.397805 -1.5 -0.77937 -1.341951 -1.06066 -1.06066 
C -1.341951 -0.77937 -1.5 -0.397805 -1.5 0 
C -1.5 0.397805 -1.341951 0.77937 -1.06066 1.06066 
C -0.77937 1.341951 -0.397805 1.5 0 1.5 
z
" style="stroke: #1f77b4"/>
    </defs>
    <g clip-path="url(#p677a141d3a)">
     <use xlink:href="#m37c9b3d1ac" x="65.320227" y="271.739967" style="fill: #1f77b4; stroke: #1f77b4"/>
     <use xlink:href="#m37c9b3d1ac" x="71.94583" y="202.457293" style="fill: #1f77b4; stroke: #1f77b4"/>
     <use xlink:href="#m37c9b3d1ac" x="78.571433" y="125.491586" style="fill: #1f77b4; stroke: #1f77b4"/>
     <use xlink:href="#m37c9b3d1ac" x="85.197036" y="64.748964" style="fill: #1f77b4; stroke: #1f77b4"/>
     <use xlink:href="#m37c9b3d1ac" x="91.822639" y="62.05378" style="fill: #1f77b4; stroke: #1f77b4"/>
     <use xlink:href="#m37c9b3d1ac" x="98.448242" y="113.067259" style="fill: #1f77b4; stroke: #1f77b4"/>
     <use xlink:href="#m37c9b3d1ac" x="105.073845" y="156.079665" style="fill: #1f77b4; stroke: #1f77b4"/>
     <use xlink:href="#m37c9b3d1ac" x="111.699448" y="205.370481" style="fill: #1f77b4; stroke: #1f77b4"/>
     <use xlink:href="#m37c9b3d1ac" x="118.325051" y="240.362638" style="fill: #1f77b4; stroke: #1f77b4"/>
     <use xlink:href="#m37c9b3d1ac" x="124.950654" y="235.788043" style="fill: #1f77b4; stroke: #1f77b4"/>
     <use xlink:href="#m37c9b3d1ac" x="131.576257" y="209.662553" style="fill: #1f77b4; stroke: #1f77b4"/>
     <use xlink:href="#m37c9b3d1ac" x="138.20186" y="145.954858" style="fill: #1f77b4; stroke: #1f77b4"/>
     <use xlink:href="#m37c9b3d1ac" x="144.827463" y="107.291066" style="fill: #1f77b4; stroke: #1f77b4"/>
     <use xlink:href="#m37c9b3d1ac" x="151.453066" y="62.428732" style="fill: #1f77b4; stroke: #1f77b4"/>
     <use xlink:href="#m37c9b3d1ac" x="158.078669" y="69.557078" style="fill: #1f77b4; stroke: #1f77b4"/>
     <use xlink:href="#m37c9b3d1ac" x="164.704272" y="106.799143" style="fill: #1f77b4; stroke: #1f77b4"/>
     <use xlink:href="#m37c9b3d1ac" x="171.329875" y="171.197541" style="fill: #1f77b4; stroke: #1f77b4"/>
     <use xlink:href="#m37c9b3d1ac" x="177.955478" y="186.080175" style="fill: #1f77b4; stroke: #1f77b4"/>
     <use xlink:href="#m37c9b3d1ac" x="184.581081" y="200.365832" style="fill: #1f77b4; stroke: #1f77b4"/>
     <use xlink:href="#m37c9b3d1ac" x="191.206684" y="211.774535" style="fill: #1f77b4; stroke: #1f77b4"/>
     <use xlink:href="#m37c9b3d1ac" x="197.832287" y="163.229424" style="fill: #1f77b4; stroke: #1f77b4"/>
     <use xlink:href="#m37c9b3d1ac" x="204.45789" y="168.68513" style="fill: #1f77b4; stroke: #1f77b4"/>
     <use xlink:href="#m37c9b3d1ac" x="211.083493" y="67.283276" style="fill: #1f77b4; stroke: #1f77b4"/>
     <use xlink:href="#m37c9b3d1ac" x="217.709096" y="82.266745" style="fill: #1f77b4; stroke: #1f77b4"/>
     <use xlink:href="#m37c9b3d1ac" x="224.334699" y="64.412147" style="fill: #1f77b4; stroke: #1f77b4"/>
     <use xlink:href="#m37c9b3d1ac" x="230.960301" y="77.529644" style="fill: #1f77b4; stroke: #1f77b4"/>
     <use xlink:href="#m37c9b3d1ac" x="237.585904" y="149.299405" style="fill: #1f77b4; stroke: #1f77b4"/>
     <use xlink:href="#m37c9b3d1ac" x="244.211507" y="170.308097" style="fill: #1f77b4; stroke: #1f77b4"/>
     <use xlink:href="#m37c9b3d1ac" x="250.83711" y="229.417855" style="fill: #1f77b4; stroke: #1f77b4"/>
     <use xlink:href="#m37c9b3d1ac" x="257.462713" y="222.696088" style="fill: #1f77b4; stroke: #1f77b4"/>
     <use xlink:href="#m37c9b3d1ac" x="264.088316" y="243.393747" style="fill: #1f77b4; stroke: #1f77b4"/>
     <use xlink:href="#m37c9b3d1ac" x="270.713919" y="185.465317" style="fill: #1f77b4; stroke: #1f77b4"/>
     <use xlink:href="#m37c9b3d1ac" x="277.339522" y="91.246113" style="fill: #1f77b4; stroke: #1f77b4"/>
     <use xlink:href="#m37c9b3d1ac" x="283.965125" y="53.856" style="fill: #1f77b4; stroke: #1f77b4"/>
     <use xlink:href="#m37c9b3d1ac" x="290.590728" y="59.549203" style="fill: #1f77b4; stroke: #1f77b4"/>
     <use xlink:href="#m37c9b3d1ac" x="297.216331" y="159.908203" style="fill: #1f77b4; stroke: #1f77b4"/>
     <use xlink:href="#m37c9b3d1ac" x="303.841934" y="129.931539" style="fill: #1f77b4; stroke: #1f77b4"/>
     <use xlink:href="#m37c9b3d1ac" x="310.467537" y="168.412446" style="fill: #1f77b4; stroke: #1f77b4"/>
     <use xlink:href="#m37c9b3d1ac" x="317.09314" y="295.776" style="fill: #1f77b4; stroke: #1f77b4"/>
     <use xlink:href="#m37c9b3d1ac" x="323.718743" y="192.648923" style="fill: #1f77b4; stroke: #1f77b4"/>
     <use xlink:href="#m37c9b3d1ac" x="330.344346" y="176.518928" style="fill: #1f77b4; stroke: #1f77b4"/>
     <use xlink:href="#m37c9b3d1ac" x="336.969949" y="156.079497" style="fill: #1f77b4; stroke: #1f77b4"/>
     <use xlink:href="#m37c9b3d1ac" x="343.595552" y="131.573472" style="fill: #1f77b4; stroke: #1f77b4"/>
     <use xlink:href="#m37c9b3d1ac" x="350.221155" y="130.944005" style="fill: #1f77b4; stroke: #1f77b4"/>
     <use xlink:href="#m37c9b3d1ac" x="356.846758" y="119.291985" style="fill: #1f77b4; stroke: #1f77b4"/>
     <use xlink:href="#m37c9b3d1ac" x="363.472361" y="102.08638" style="fill: #1f77b4; stroke: #1f77b4"/>
     <use xlink:href="#m37c9b3d1ac" x="370.097964" y="130.811987" style="fill: #1f77b4; stroke: #1f77b4"/>
     <use xlink:href="#m37c9b3d1ac" x="376.723567" y="205.325101" style="fill: #1f77b4; stroke: #1f77b4"/>
     <use xlink:href="#m37c9b3d1ac" x="383.34917" y="211.23387" style="fill: #1f77b4; stroke: #1f77b4"/>
     <use xlink:href="#m37c9b3d1ac" x="389.974773" y="221.49401" style="fill: #1f77b4; stroke: #1f77b4"/>
    </g>
   </g>
   <g id="line2d_16">
    <path d="M 65.320227 216.220776 
L 66.620145 209.941635 
L 68.245043 200.865572 
L 70.19492 188.469761 
L 72.469777 172.486752 
L 80.919244 111.499841 
L 82.869122 99.920919 
L 84.494019 91.682826 
L 85.793937 86.162541 
L 87.093855 81.687672 
L 88.068794 79.060129 
L 89.043733 77.083202 
L 89.693692 76.135499 
L 90.343651 75.488471 
L 90.99361 75.144638 
L 91.643569 75.105341 
L 92.293528 75.370733 
L 92.943487 75.939778 
L 93.593446 76.810262 
L 94.243405 77.978791 
L 95.218344 80.280149 
L 96.193282 83.221433 
L 97.168221 86.776869 
L 98.468139 92.41821 
L 99.768057 99.007569 
L 101.392955 108.419853 
L 103.342832 121.132924 
L 105.942668 139.751345 
L 112.442258 187.340462 
L 114.392136 199.859712 
L 116.017033 209.065734 
L 117.641931 216.916362 
L 118.941849 222.091504 
L 119.916787 225.27388 
L 120.891726 227.825653 
L 121.866665 229.724462 
L 122.516624 230.619121 
L 123.166583 231.212573 
L 123.816542 231.502505 
L 124.466501 231.487788 
L 125.11646 231.168479 
L 125.766419 230.545822 
L 126.416378 229.622244 
L 127.391317 227.680837 
L 128.366255 225.087735 
L 129.341194 221.865662 
L 130.641112 216.640726 
L 131.94103 210.429766 
L 133.565928 201.428129 
L 135.515805 189.103442 
L 137.790661 173.175267 
L 146.240129 112.102498 
L 148.190006 100.44279 
L 149.814904 92.123293 
L 151.114822 86.530071 
L 152.41474 81.976543 
L 153.389679 79.286985 
L 154.364617 77.246055 
L 155.014576 76.254854 
L 155.664535 75.563864 
L 156.314494 75.175776 
L 156.964453 75.092102 
L 157.614412 75.313168 
L 158.264371 75.838113 
L 158.91433 76.664891 
L 159.56429 77.790282 
L 160.539228 80.028361 
L 161.514167 82.908572 
L 162.489105 86.405677 
L 163.789023 91.974386 
L 165.088941 98.498025 
L 166.713839 107.839421 
L 168.663716 120.486181 
L 171.263552 139.051659 
L 178.088122 188.890359 
L 180.038 201.239113 
L 181.662897 210.265899 
L 182.962815 216.499878 
L 184.262733 221.750026 
L 185.237672 224.992213 
L 186.212611 227.606265 
L 187.187549 229.569276 
L 187.837508 230.507527 
L 188.487467 231.145005 
L 189.137426 231.479227 
L 189.787385 231.50889 
L 190.437344 231.23388 
L 191.087303 230.655267 
L 191.737262 229.775305 
L 192.387222 228.597424 
L 193.36216 226.282355 
L 194.337099 223.327845 
L 195.637017 218.439341 
L 196.936935 212.536811 
L 198.561833 203.874063 
L 200.18673 193.982124 
L 202.461587 178.530933 
L 205.711382 154.572348 
L 209.936116 123.595214 
L 212.210973 108.616167 
L 213.83587 99.180185 
L 215.460768 91.060025 
L 216.760686 85.645137 
L 218.060604 81.283721 
L 219.035543 78.745495 
L 220.010481 76.860643 
L 220.66044 75.975457 
L 221.310399 75.391569 
L 221.960358 75.111254 
L 222.610317 75.135605 
L 223.260276 75.464527 
L 223.910235 76.096738 
L 224.560195 77.029774 
L 225.535133 78.985109 
L 226.510072 81.591717 
L 227.48501 84.826758 
L 228.784928 90.067951 
L 230.084846 96.293755 
L 231.709744 105.311612 
L 233.659621 117.651825 
L 235.934478 133.592015 
L 244.383946 194.646574 
L 246.333823 206.288828 
L 247.95872 214.590712 
L 249.258638 220.16814 
L 250.558557 224.704625 
L 251.533495 227.38074 
L 252.508434 229.40779 
L 253.158393 230.389555 
L 253.808352 231.071007 
L 254.458311 231.449491 
L 255.10827 231.523532 
L 255.758229 231.292843 
L 256.408188 230.758321 
L 257.058147 229.922049 
L 257.708106 228.787286 
L 258.683045 226.535455 
L 259.657983 223.641966 
L 260.632922 220.132174 
L 261.93284 214.547659 
L 263.232758 208.009708 
L 264.857656 198.652858 
L 266.807533 185.991614 
L 269.407369 167.414513 
L 276.231939 117.590216 
L 278.181816 105.256961 
L 279.806714 96.246376 
L 281.106632 90.027227 
L 282.40655 84.793325 
L 283.381489 81.564099 
L 284.356427 78.963548 
L 285.331366 77.01446 
L 285.981325 76.085665 
L 286.631284 75.45774 
L 287.281243 75.13313 
L 287.931202 75.113101 
L 288.581161 75.397729 
L 289.23112 75.985907 
L 289.881079 76.875343 
L 290.531038 78.062572 
L 291.505977 80.391343 
L 292.480915 83.359067 
L 293.780833 88.26423 
L 295.080751 94.182087 
L 296.705649 102.861758 
L 298.330547 112.767755 
L 300.605403 128.233176 
L 303.855199 152.199938 
L 308.079932 183.165463 
L 310.354789 198.128377 
L 311.979687 207.549094 
L 313.604584 215.651284 
L 314.904502 221.050137 
L 316.204421 225.394316 
L 317.179359 227.918985 
L 318.154298 229.789872 
L 318.804257 230.665582 
L 319.454216 231.239904 
L 320.104175 231.5106 
L 320.754134 231.476615 
L 321.404093 231.138082 
L 322.054052 230.49632 
L 322.704011 229.553829 
L 323.67895 227.584575 
L 324.653888 224.96447 
L 325.628827 221.716473 
L 326.928745 216.459044 
L 328.228663 210.21842 
L 329.853561 201.184379 
L 331.803438 188.828688 
L 334.078294 172.876545 
L 342.527762 111.840432 
L 344.477639 100.215679 
L 346.102537 91.93144 
L 347.402455 86.369828 
L 348.702373 81.850404 
L 349.677312 79.187742 
L 350.65225 77.174579 
L 351.302209 76.202254 
L 351.952168 75.530343 
L 352.602127 75.161464 
L 353.252086 75.097056 
L 353.902045 75.337369 
L 354.552005 75.881466 
L 355.201964 76.727227 
L 355.851923 77.871358 
L 356.826861 80.136933 
L 357.8018 83.043689 
L 358.776738 86.566154 
L 360.076656 92.166453 
L 361.376575 98.718691 
L 363.001472 108.090958 
L 364.951349 120.766636 
L 367.551186 139.355288 
L 374.375756 189.164988 
L 376.325633 201.482695 
L 377.95053 210.477046 
L 379.250448 216.681339 
L 380.550367 221.898976 
L 381.525305 225.115228 
L 382.500244 227.702268 
L 383.475182 229.637425 
L 384.125141 230.55676 
L 384.7751 231.17513 
L 385.425059 231.490127 
L 386.075018 231.500522 
L 386.724977 231.206276 
L 387.374937 230.608536 
L 388.024896 229.709629 
L 388.999834 227.80456 
L 389.974773 225.246714 
L 389.974773 225.246714 
" clip-path="url(#p677a141d3a)" style="fill: none; stroke: #d62728; stroke-width: 1.5; stroke-linecap: square"/>
   </g>
   <g id="patch_3">
    <path d="M 49.0875 307.872 
L 49.0875 41.76 
" style="fill: none; stroke: #000000; stroke-width: 0.8; stroke-linejoin: miter; stroke-linecap: square"/>
   </g>
   <g id="patch_4">
    <path d="M 406.2075 307.872 
L 406.2075 41.76 
" style="fill: none; stroke: #000000; stroke-width: 0.8; stroke-linejoin: miter; stroke-linecap: square"/>
   </g>
   <g id="patch_5">
    <path d="M 49.0875 307.872 
L 406.2075 307.872 
" style="fill: none; stroke: #000000; stroke-width: 0.8; stroke-linejoin: miter; stroke-linecap: square"/>
   </g>
   <g id="patch_6">
    <path d="M 49.0875 41.76 
L 406.2075 41.76 
" style="fill: none; stroke: #000000; stroke-width: 0.8; stroke-linejoin: miter; stroke-linecap: square"/>
   </g>
   <g id="text_17">
    <g id="patch_7">
     <path d="M 424.0635 113.601538 
L 611.0635 113.601538 
Q 615.0635 113.601538 615.0635 109.601538 
L 615.0635 55.0656 
Q 615.0635 51.0656 611.0635 51.0656 
L 424.0635 51.0656 
Q 420.0635 51.0656 420.0635 55.0656 
L 420.0635 109.601538 
Q 420.0635 113.601538 424.0635 113.601538 
z
" style="fill: #ffffff; opacity: 0.5; stroke: #000000; stroke-linejoin: miter"/>
    </g>
    <!-- Summary -->
    <g transform="translate(424.0635 62.664038) scale(0.1 -0.1)">
     <defs>
      <path id="DejaVuSans-53" d="M 3425 4513 
L 3425 3897 
Q 3066 4069 2747 4153 
Q 2428 4238 2131 4238 
Q 1616 4238 1336 4038 
Q 1056 3838 1056 3469 
Q 1056 3159 1242 3001 
Q 1428 2844 1947 2747 
L 2328 2669 
Q 3034 2534 3370 2195 
Q 3706 1856 3706 1288 
Q 3706 609 3251 259 
Q 2797 -91 1919 -91 
Q 1588 -91 1214 -16 
Q 841 59 441 206 
L 441 856 
Q 825 641 1194 531 
Q 1563 422 1919 422 
Q 2459 422 2753 634 
Q 3047 847 3047 1241 
Q 3047 1584 2836 1778 
Q 2625 1972 2144 2069 
L 1759 2144 
Q 1053 2284 737 2584 
Q 422 2884 422 3419 
Q 422 4038 858 4394 
Q 1294 4750 2059 4750 
Q 2388 4750 2728 4690 
Q 3069 4631 3425 4513 
z
" transform="scale(0.015625)"/>
      <path id="DejaVuSans-75" d="M 544 1381 
L 544 3500 
L 1119 3500 
L 1119 1403 
Q 1119 906 1312 657 
Q 1506 409 1894 409 
Q 2359 409 2629 706 
Q 2900 1003 2900 1516 
L 2900 3500 
L 3475 3500 
L 3475 0 
L 2900 0 
L 2900 538 
Q 2691 219 2414 64 
Q 2138 -91 1772 -91 
Q 1169 -91 856 284 
Q 544 659 544 1381 
z
M 1991 3584 
L 1991 3584 
z
" transform="scale(0.015625)"/>
      <path id="DejaVuSans-79" d="M 2059 -325 
Q 1816 -950 1584 -1140 
Q 1353 -1331 966 -1331 
L 506 -1331 
L 506 -850 
L 844 -850 
Q 1081 -850 1212 -737 
Q 1344 -625 1503 -206 
L 1606 56 
L 191 3500 
L 800 3500 
L 1894 763 
L 2988 3500 
L 3597 3500 
L 2059 -325 
z
" transform="scale(0.015625)"/>
     </defs>
     <use xlink:href="#DejaVuSans-53"/>
     <use xlink:href="#DejaVuSans-75" x="63.476562"/>
     <use xlink:href="#DejaVuSans-6d" x="126.855469"/>
     <use xlink:href="#DejaVuSans-6d" x="224.267578"/>
     <use xlink:href="#DejaVuSans-61" x="321.679688"/>
     <use xlink:href="#DejaVuSans-72" x="382.958984"/>
     <use xlink:href="#DejaVuSans-79" x="424.072266"/>
    </g>
    <!-- Pi-pulse amplitude: 19.746$\pm$0.077 nV -->
    <g transform="translate(424.0635 73.863725) scale(0.1 -0.1)">
     <defs>
      <path id="DejaVuSans-50" d="M 1259 4147 
L 1259 2394 
L 2053 2394 
Q 2494 2394 2734 2622 
Q 2975 2850 2975 3272 
Q 2975 3691 2734 3919 
Q 2494 4147 2053 4147 
L 1259 4147 
z
M 628 4666 
L 2053 4666 
Q 2838 4666 3239 4311 
Q 3641 3956 3641 3272 
Q 3641 2581 3239 2228 
Q 2838 1875 2053 1875 
L 1259 1875 
L 1259 0 
L 628 0 
L 628 4666 
z
" transform="scale(0.015625)"/>
      <path id="DejaVuSans-2d" d="M 313 2009 
L 1997 2009 
L 1997 1497 
L 313 1497 
L 313 2009 
z
" transform="scale(0.015625)"/>
      <path id="DejaVuSans-70" d="M 1159 525 
L 1159 -1331 
L 581 -1331 
L 581 3500 
L 1159 3500 
L 1159 2969 
Q 1341 3281 1617 3432 
Q 1894 3584 2278 3584 
Q 2916 3584 3314 3078 
Q 3713 2572 3713 1747 
Q 3713 922 3314 415 
Q 2916 -91 2278 -91 
Q 1894 -91 1617 61 
Q 1341 213 1159 525 
z
M 3116 1747 
Q 3116 2381 2855 2742 
Q 2594 3103 2138 3103 
Q 1681 3103 1420 2742 
Q 1159 2381 1159 1747 
Q 1159 1113 1420 752 
Q 1681 391 2138 391 
Q 2594 391 2855 752 
Q 3116 1113 3116 1747 
z
" transform="scale(0.015625)"/>
      <path id="DejaVuSans-6c" d="M 603 4863 
L 1178 4863 
L 1178 0 
L 603 0 
L 603 4863 
z
" transform="scale(0.015625)"/>
      <path id="DejaVuSans-3a" d="M 750 794 
L 1409 794 
L 1409 0 
L 750 0 
L 750 794 
z
M 750 3309 
L 1409 3309 
L 1409 2516 
L 750 2516 
L 750 3309 
z
" transform="scale(0.015625)"/>
      <path id="DejaVuSans-39" d="M 703 97 
L 703 672 
Q 941 559 1184 500 
Q 1428 441 1663 441 
Q 2288 441 2617 861 
Q 2947 1281 2994 2138 
Q 2813 1869 2534 1725 
Q 2256 1581 1919 1581 
Q 1219 1581 811 2004 
Q 403 2428 403 3163 
Q 403 3881 828 4315 
Q 1253 4750 1959 4750 
Q 2769 4750 3195 4129 
Q 3622 3509 3622 2328 
Q 3622 1225 3098 567 
Q 2575 -91 1691 -91 
Q 1453 -91 1209 -44 
Q 966 3 703 97 
z
M 1959 2075 
Q 2384 2075 2632 2365 
Q 2881 2656 2881 3163 
Q 2881 3666 2632 3958 
Q 2384 4250 1959 4250 
Q 1534 4250 1286 3958 
Q 1038 3666 1038 3163 
Q 1038 2656 1286 2365 
Q 1534 2075 1959 2075 
z
" transform="scale(0.015625)"/>
      <path id="DejaVuSans-2e" d="M 684 794 
L 1344 794 
L 1344 0 
L 684 0 
L 684 794 
z
" transform="scale(0.015625)"/>
      <path id="DejaVuSans-b1" d="M 2944 4013 
L 2944 2803 
L 4684 2803 
L 4684 2272 
L 2944 2272 
L 2944 1063 
L 2419 1063 
L 2419 2272 
L 678 2272 
L 678 2803 
L 2419 2803 
L 2419 4013 
L 2944 4013 
z
M 678 531 
L 4684 531 
L 4684 0 
L 678 0 
L 678 531 
z
" transform="scale(0.015625)"/>
     </defs>
     <use xlink:href="#DejaVuSans-50" transform="translate(0 0.015625)"/>
     <use xlink:href="#DejaVuSans-69" transform="translate(60.302734 0.015625)"/>
     <use xlink:href="#DejaVuSans-2d" transform="translate(88.085938 0.015625)"/>
     <use xlink:href="#DejaVuSans-70" transform="translate(124.169922 0.015625)"/>
     <use xlink:href="#DejaVuSans-75" transform="translate(187.646484 0.015625)"/>
     <use xlink:href="#DejaVuSans-6c" transform="translate(251.025391 0.015625)"/>
     <use xlink:href="#DejaVuSans-73" transform="translate(278.808594 0.015625)"/>
     <use xlink:href="#DejaVuSans-65" transform="translate(330.908203 0.015625)"/>
     <use xlink:href="#DejaVuSans-20" transform="translate(392.431641 0.015625)"/>
     <use xlink:href="#DejaVuSans-61" transform="translate(424.21875 0.015625)"/>
     <use xlink:href="#DejaVuSans-6d" transform="translate(485.498047 0.015625)"/>
     <use xlink:href="#DejaVuSans-70" transform="translate(582.910156 0.015625)"/>
     <use xlink:href="#DejaVuSans-6c" transform="translate(646.386719 0.015625)"/>
     <use xlink:href="#DejaVuSans-69" transform="translate(674.169922 0.015625)"/>
     <use xlink:href="#DejaVuSans-74" transform="translate(701.953125 0.015625)"/>
     <use xlink:href="#DejaVuSans-75" transform="translate(741.162109 0.015625)"/>
     <use xlink:href="#DejaVuSans-64" transform="translate(804.541016 0.015625)"/>
     <use xlink:href="#DejaVuSans-65" transform="translate(868.017578 0.015625)"/>
     <use xlink:href="#DejaVuSans-3a" transform="translate(929.541016 0.015625)"/>
     <use xlink:href="#DejaVuSans-20" transform="translate(963.232422 0.015625)"/>
     <use xlink:href="#DejaVuSans-31" transform="translate(995.019531 0.015625)"/>
     <use xlink:href="#DejaVuSans-39" transform="translate(1058.642578 0.015625)"/>
     <use xlink:href="#DejaVuSans-2e" transform="translate(1122.265625 0.015625)"/>
     <use xlink:href="#DejaVuSans-37" transform="translate(1146.302734 0.015625)"/>
     <use xlink:href="#DejaVuSans-34" transform="translate(1209.925781 0.015625)"/>
     <use xlink:href="#DejaVuSans-36" transform="translate(1273.548828 0.015625)"/>
     <use xlink:href="#DejaVuSans-b1" transform="translate(1337.171875 0.015625)"/>
     <use xlink:href="#DejaVuSans-30" transform="translate(1420.960938 0.015625)"/>
     <use xlink:href="#DejaVuSans-2e" transform="translate(1484.583984 0.015625)"/>
     <use xlink:href="#DejaVuSans-30" transform="translate(1516.371094 0.015625)"/>
     <use xlink:href="#DejaVuSans-37" transform="translate(1579.994141 0.015625)"/>
     <use xlink:href="#DejaVuSans-37" transform="translate(1641.867188 0.015625)"/>
     <use xlink:href="#DejaVuSans-20" transform="translate(1705.490234 0.015625)"/>
     <use xlink:href="#DejaVuSans-6e" transform="translate(1737.277344 0.015625)"/>
     <use xlink:href="#DejaVuSans-56" transform="translate(1800.65625 0.015625)"/>
    </g>
    <!-- Oscillation amplitude: 135.4$\pm$9.6 μV -->
    <g transform="translate(424.0635 85.083725) scale(0.1 -0.1)">
     <defs>
      <path id="DejaVuSans-4f" d="M 2522 4238 
Q 1834 4238 1429 3725 
Q 1025 3213 1025 2328 
Q 1025 1447 1429 934 
Q 1834 422 2522 422 
Q 3209 422 3611 934 
Q 4013 1447 4013 2328 
Q 4013 3213 3611 3725 
Q 3209 4238 2522 4238 
z
M 2522 4750 
Q 3503 4750 4090 4092 
Q 4678 3434 4678 2328 
Q 4678 1225 4090 567 
Q 3503 -91 2522 -91 
Q 1538 -91 948 565 
Q 359 1222 359 2328 
Q 359 3434 948 4092 
Q 1538 4750 2522 4750 
z
" transform="scale(0.015625)"/>
      <path id="DejaVuSans-63" d="M 3122 3366 
L 3122 2828 
Q 2878 2963 2633 3030 
Q 2388 3097 2138 3097 
Q 1578 3097 1268 2742 
Q 959 2388 959 1747 
Q 959 1106 1268 751 
Q 1578 397 2138 397 
Q 2388 397 2633 464 
Q 2878 531 3122 666 
L 3122 134 
Q 2881 22 2623 -34 
Q 2366 -91 2075 -91 
Q 1284 -91 818 406 
Q 353 903 353 1747 
Q 353 2603 823 3093 
Q 1294 3584 2113 3584 
Q 2378 3584 2631 3529 
Q 2884 3475 3122 3366 
z
" transform="scale(0.015625)"/>
      <path id="DejaVuSans-33" d="M 2597 2516 
Q 3050 2419 3304 2112 
Q 3559 1806 3559 1356 
Q 3559 666 3084 287 
Q 2609 -91 1734 -91 
Q 1441 -91 1130 -33 
Q 819 25 488 141 
L 488 750 
Q 750 597 1062 519 
Q 1375 441 1716 441 
Q 2309 441 2620 675 
Q 2931 909 2931 1356 
Q 2931 1769 2642 2001 
Q 2353 2234 1838 2234 
L 1294 2234 
L 1294 2753 
L 1863 2753 
Q 2328 2753 2575 2939 
Q 2822 3125 2822 3475 
Q 2822 3834 2567 4026 
Q 2313 4219 1838 4219 
Q 1578 4219 1281 4162 
Q 984 4106 628 3988 
L 628 4550 
Q 988 4650 1302 4700 
Q 1616 4750 1894 4750 
Q 2613 4750 3031 4423 
Q 3450 4097 3450 3541 
Q 3450 3153 3228 2886 
Q 3006 2619 2597 2516 
z
" transform="scale(0.015625)"/>
     </defs>
     <use xlink:href="#DejaVuSans-4f" transform="translate(0 0.015625)"/>
     <use xlink:href="#DejaVuSans-73" transform="translate(78.710938 0.015625)"/>
     <use xlink:href="#DejaVuSans-63" transform="translate(130.810547 0.015625)"/>
     <use xlink:href="#DejaVuSans-69" transform="translate(185.791016 0.015625)"/>
     <use xlink:href="#DejaVuSans-6c" transform="translate(213.574219 0.015625)"/>
     <use xlink:href="#DejaVuSans-6c" transform="translate(241.357422 0.015625)"/>
     <use xlink:href="#DejaVuSans-61" transform="translate(269.140625 0.015625)"/>
     <use xlink:href="#DejaVuSans-74" transform="translate(330.419922 0.015625)"/>
     <use xlink:href="#DejaVuSans-69" transform="translate(369.628906 0.015625)"/>
     <use xlink:href="#DejaVuSans-6f" transform="translate(397.412109 0.015625)"/>
     <use xlink:href="#DejaVuSans-6e" transform="translate(458.59375 0.015625)"/>
     <use xlink:href="#DejaVuSans-20" transform="translate(521.972656 0.015625)"/>
     <use xlink:href="#DejaVuSans-61" transform="translate(553.759766 0.015625)"/>
     <use xlink:href="#DejaVuSans-6d" transform="translate(615.039062 0.015625)"/>
     <use xlink:href="#DejaVuSans-70" transform="translate(712.451172 0.015625)"/>
     <use xlink:href="#DejaVuSans-6c" transform="translate(775.927734 0.015625)"/>
     <use xlink:href="#DejaVuSans-69" transform="translate(803.710938 0.015625)"/>
     <use xlink:href="#DejaVuSans-74" transform="translate(831.494141 0.015625)"/>
     <use xlink:href="#DejaVuSans-75" transform="translate(870.703125 0.015625)"/>
     <use xlink:href="#DejaVuSans-64" transform="translate(934.082031 0.015625)"/>
     <use xlink:href="#DejaVuSans-65" transform="translate(997.558594 0.015625)"/>
     <use xlink:href="#DejaVuSans-3a" transform="translate(1059.082031 0.015625)"/>
     <use xlink:href="#DejaVuSans-20" transform="translate(1092.773438 0.015625)"/>
     <use xlink:href="#DejaVuSans-31" transform="translate(1124.560547 0.015625)"/>
     <use xlink:href="#DejaVuSans-33" transform="translate(1188.183594 0.015625)"/>
     <use xlink:href="#DejaVuSans-35" transform="translate(1251.806641 0.015625)"/>
     <use xlink:href="#DejaVuSans-2e" transform="translate(1315.429688 0.015625)"/>
     <use xlink:href="#DejaVuSans-34" transform="translate(1347.216797 0.015625)"/>
     <use xlink:href="#DejaVuSans-b1" transform="translate(1410.839844 0.015625)"/>
     <use xlink:href="#DejaVuSans-39" transform="translate(1494.628906 0.015625)"/>
     <use xlink:href="#DejaVuSans-2e" transform="translate(1558.251953 0.015625)"/>
     <use xlink:href="#DejaVuSans-36" transform="translate(1590.039062 0.015625)"/>
     <use xlink:href="#DejaVuSans-20" transform="translate(1653.662109 0.015625)"/>
     <use xlink:href="#DejaVuSans-3bc" transform="translate(1685.449219 0.015625)"/>
     <use xlink:href="#DejaVuSans-56" transform="translate(1749.072266 0.015625)"/>
    </g>
    <!-- Offset: 612.5$\pm$6.8 μV -->
    <g transform="translate(424.0635 96.303725) scale(0.1 -0.1)">
     <defs>
      <path id="DejaVuSans-66" d="M 2375 4863 
L 2375 4384 
L 1825 4384 
Q 1516 4384 1395 4259 
Q 1275 4134 1275 3809 
L 1275 3500 
L 2222 3500 
L 2222 3053 
L 1275 3053 
L 1275 0 
L 697 0 
L 697 3053 
L 147 3053 
L 147 3500 
L 697 3500 
L 697 3744 
Q 697 4328 969 4595 
Q 1241 4863 1831 4863 
L 2375 4863 
z
" transform="scale(0.015625)"/>
     </defs>
     <use xlink:href="#DejaVuSans-4f" transform="translate(0 0.015625)"/>
     <use xlink:href="#DejaVuSans-66" transform="translate(78.710938 0.015625)"/>
     <use xlink:href="#DejaVuSans-66" transform="translate(113.916016 0.015625)"/>
     <use xlink:href="#DejaVuSans-73" transform="translate(149.121094 0.015625)"/>
     <use xlink:href="#DejaVuSans-65" transform="translate(201.220703 0.015625)"/>
     <use xlink:href="#DejaVuSans-74" transform="translate(262.744141 0.015625)"/>
     <use xlink:href="#DejaVuSans-3a" transform="translate(301.953125 0.015625)"/>
     <use xlink:href="#DejaVuSans-20" transform="translate(335.644531 0.015625)"/>
     <use xlink:href="#DejaVuSans-36" transform="translate(367.431641 0.015625)"/>
     <use xlink:href="#DejaVuSans-31" transform="translate(431.054688 0.015625)"/>
     <use xlink:href="#DejaVuSans-32" transform="translate(494.677734 0.015625)"/>
     <use xlink:href="#DejaVuSans-2e" transform="translate(558.300781 0.015625)"/>
     <use xlink:href="#DejaVuSans-35" transform="translate(590.087891 0.015625)"/>
     <use xlink:href="#DejaVuSans-b1" transform="translate(653.710938 0.015625)"/>
     <use xlink:href="#DejaVuSans-36" transform="translate(737.5 0.015625)"/>
     <use xlink:href="#DejaVuSans-2e" transform="translate(801.123047 0.015625)"/>
     <use xlink:href="#DejaVuSans-38" transform="translate(830.285156 0.015625)"/>
     <use xlink:href="#DejaVuSans-20" transform="translate(893.908203 0.015625)"/>
     <use xlink:href="#DejaVuSans-3bc" transform="translate(925.695312 0.015625)"/>
     <use xlink:href="#DejaVuSans-56" transform="translate(989.318359 0.015625)"/>
    </g>
    <!--  -->
    <g transform="translate(424.0635 107.52185) scale(0.1 -0.1)"/>
   </g>
  </g>
  <g id="text_18">
   <!--  Rabi -->
   <g transform="translate(206.79375 16.318125) scale(0.12 -0.12)">
    <defs>
     <path id="DejaVuSans-62" d="M 3116 1747 
Q 3116 2381 2855 2742 
Q 2594 3103 2138 3103 
Q 1681 3103 1420 2742 
Q 1159 2381 1159 1747 
Q 1159 1113 1420 752 
Q 1681 391 2138 391 
Q 2594 391 2855 752 
Q 3116 1113 3116 1747 
z
M 1159 2969 
Q 1341 3281 1617 3432 
Q 1894 3584 2278 3584 
Q 2916 3584 3314 3078 
Q 3713 2572 3713 1747 
Q 3713 922 3314 415 
Q 2916 -91 2278 -91 
Q 1894 -91 1617 61 
Q 1341 213 1159 525 
L 1159 0 
L 581 0 
L 581 4863 
L 1159 4863 
L 1159 2969 
z
" transform="scale(0.015625)"/>
    </defs>
    <use xlink:href="#DejaVuSans-20"/>
    <use xlink:href="#DejaVuSans-52" x="31.787109"/>
    <use xlink:href="#DejaVuSans-61" x="99.019531"/>
    <use xlink:href="#DejaVuSans-62" x="160.298828"/>
    <use xlink:href="#DejaVuSans-69" x="223.775391"/>
   </g>
   <!-- tuid: 20231227-163217-166-488913 -->
   <g transform="translate(112.032188 29.7555) scale(0.12 -0.12)">
    <use xlink:href="#DejaVuSans-74"/>
    <use xlink:href="#DejaVuSans-75" x="39.208984"/>
    <use xlink:href="#DejaVuSans-69" x="102.587891"/>
    <use xlink:href="#DejaVuSans-64" x="130.371094"/>
    <use xlink:href="#DejaVuSans-3a" x="193.847656"/>
    <use xlink:href="#DejaVuSans-20" x="227.539062"/>
    <use xlink:href="#DejaVuSans-32" x="259.326172"/>
    <use xlink:href="#DejaVuSans-30" x="322.949219"/>
    <use xlink:href="#DejaVuSans-32" x="386.572266"/>
    <use xlink:href="#DejaVuSans-33" x="450.195312"/>
    <use xlink:href="#DejaVuSans-31" x="513.818359"/>
    <use xlink:href="#DejaVuSans-32" x="577.441406"/>
    <use xlink:href="#DejaVuSans-32" x="641.064453"/>
    <use xlink:href="#DejaVuSans-37" x="704.6875"/>
    <use xlink:href="#DejaVuSans-2d" x="768.310547"/>
    <use xlink:href="#DejaVuSans-31" x="804.394531"/>
    <use xlink:href="#DejaVuSans-36" x="868.017578"/>
    <use xlink:href="#DejaVuSans-33" x="931.640625"/>
    <use xlink:href="#DejaVuSans-32" x="995.263672"/>
    <use xlink:href="#DejaVuSans-31" x="1058.886719"/>
    <use xlink:href="#DejaVuSans-37" x="1122.509766"/>
    <use xlink:href="#DejaVuSans-2d" x="1186.132812"/>
    <use xlink:href="#DejaVuSans-31" x="1222.216797"/>
    <use xlink:href="#DejaVuSans-36" x="1285.839844"/>
    <use xlink:href="#DejaVuSans-36" x="1349.462891"/>
    <use xlink:href="#DejaVuSans-2d" x="1413.085938"/>
    <use xlink:href="#DejaVuSans-34" x="1449.169922"/>
    <use xlink:href="#DejaVuSans-38" x="1512.792969"/>
    <use xlink:href="#DejaVuSans-38" x="1576.416016"/>
    <use xlink:href="#DejaVuSans-39" x="1640.039062"/>
    <use xlink:href="#DejaVuSans-31" x="1703.662109"/>
    <use xlink:href="#DejaVuSans-33" x="1767.285156"/>
   </g>
  </g>
 </g>
 <defs>
  <clipPath id="p677a141d3a">
   <rect x="49.0875" y="41.76" width="357.12" height="266.112"/>
  </clipPath>
 </defs>
</svg>
