<?xml version="1.0" encoding="utf-8" standalone="no"?>
<!DOCTYPE svg PUBLIC "-//W3C//DTD SVG 1.1//EN"
  "http://www.w3.org/Graphics/SVG/1.1/DTD/svg11.dtd">
<svg xmlns:xlink="http://www.w3.org/1999/xlink" width="592.879125pt" height="345.42825pt" viewBox="0 0 592.879125 345.42825" xmlns="http://www.w3.org/2000/svg" version="1.1">
 <metadata>
  <rdf:RDF xmlns:dc="http://purl.org/dc/elements/1.1/" xmlns:cc="http://creativecommons.org/ns#" xmlns:rdf="http://www.w3.org/1999/02/22-rdf-syntax-ns#">
   <cc:Work>
    <dc:type rdf:resource="http://purl.org/dc/dcmitype/StillImage"/>
    <dc:date>2023-12-27T12:57:56.429795</dc:date>
    <dc:format>image/svg+xml</dc:format>
    <dc:creator>
     <cc:Agent>
      <dc:title>Matplotlib v3.8.2, https://matplotlib.org/</dc:title>
     </cc:Agent>
    </dc:creator>
   </cc:Work>
  </rdf:RDF>
 </metadata>
 <defs>
  <style type="text/css">*{stroke-linejoin: round; stroke-linecap: butt}</style>
 </defs>
 <g id="figure_1">
  <g id="patch_1">
   <path d="M 0 345.42825 
L 592.879125 345.42825 
L 592.879125 -0 
L 0 -0 
L 0 345.42825 
z
" style="fill: none; opacity: 0"/>
  </g>
  <g id="axes_1">
   <g id="patch_2">
    <path d="M 50.595313 162.72 
L 407.715312 162.72 
L 407.715312 41.76 
L 50.595313 41.76 
z
" style="fill: #ffffff"/>
   </g>
   <g id="matplotlib.axis_1">
    <g id="xtick_1">
     <g id="line2d_1">
      <defs>
       <path id="me39f4e85b6" d="M 0 0 
L 0 3.5 
" style="stroke: #000000; stroke-width: 0.8"/>
      </defs>
      <g>
       <use xlink:href="#me39f4e85b6" x="104.163313" y="162.72" style="stroke: #000000; stroke-width: 0.8"/>
      </g>
     </g>
    </g>
    <g id="xtick_2">
     <g id="line2d_2">
      <g>
       <use xlink:href="#me39f4e85b6" x="169.094222" y="162.72" style="stroke: #000000; stroke-width: 0.8"/>
      </g>
     </g>
    </g>
    <g id="xtick_3">
     <g id="line2d_3">
      <g>
       <use xlink:href="#me39f4e85b6" x="234.025131" y="162.72" style="stroke: #000000; stroke-width: 0.8"/>
      </g>
     </g>
    </g>
    <g id="xtick_4">
     <g id="line2d_4">
      <g>
       <use xlink:href="#me39f4e85b6" x="298.95604" y="162.72" style="stroke: #000000; stroke-width: 0.8"/>
      </g>
     </g>
    </g>
    <g id="xtick_5">
     <g id="line2d_5">
      <g>
       <use xlink:href="#me39f4e85b6" x="363.886949" y="162.72" style="stroke: #000000; stroke-width: 0.8"/>
      </g>
     </g>
    </g>
   </g>
   <g id="matplotlib.axis_2">
    <g id="ytick_1">
     <g id="line2d_6">
      <defs>
       <path id="mdd64ad045c" d="M 0 0 
L -3.5 0 
" style="stroke: #000000; stroke-width: 0.8"/>
      </defs>
      <g>
       <use xlink:href="#mdd64ad045c" x="50.595313" y="139.521483" style="stroke: #000000; stroke-width: 0.8"/>
      </g>
     </g>
     <g id="text_1">
      <!-- 4 -->
      <g transform="translate(37.232813 143.320701) scale(0.1 -0.1)">
       <defs>
        <path id="DejaVuSans-34" d="M 2419 4116 
L 825 1625 
L 2419 1625 
L 2419 4116 
z
M 2253 4666 
L 3047 4666 
L 3047 1625 
L 3713 1625 
L 3713 1100 
L 3047 1100 
L 3047 0 
L 2419 0 
L 2419 1100 
L 313 1100 
L 313 1709 
L 2253 4666 
z
" transform="scale(0.015625)"/>
       </defs>
       <use xlink:href="#DejaVuSans-34"/>
      </g>
     </g>
    </g>
    <g id="ytick_2">
     <g id="line2d_7">
      <g>
       <use xlink:href="#mdd64ad045c" x="50.595313" y="116.200438" style="stroke: #000000; stroke-width: 0.8"/>
      </g>
     </g>
     <g id="text_2">
      <!-- 6 -->
      <g transform="translate(37.232813 119.999656) scale(0.1 -0.1)">
       <defs>
        <path id="DejaVuSans-36" d="M 2113 2584 
Q 1688 2584 1439 2293 
Q 1191 2003 1191 1497 
Q 1191 994 1439 701 
Q 1688 409 2113 409 
Q 2538 409 2786 701 
Q 3034 994 3034 1497 
Q 3034 2003 2786 2293 
Q 2538 2584 2113 2584 
z
M 3366 4563 
L 3366 3988 
Q 3128 4100 2886 4159 
Q 2644 4219 2406 4219 
Q 1781 4219 1451 3797 
Q 1122 3375 1075 2522 
Q 1259 2794 1537 2939 
Q 1816 3084 2150 3084 
Q 2853 3084 3261 2657 
Q 3669 2231 3669 1497 
Q 3669 778 3244 343 
Q 2819 -91 2113 -91 
Q 1303 -91 875 529 
Q 447 1150 447 2328 
Q 447 3434 972 4092 
Q 1497 4750 2381 4750 
Q 2619 4750 2861 4703 
Q 3103 4656 3366 4563 
z
" transform="scale(0.015625)"/>
       </defs>
       <use xlink:href="#DejaVuSans-36"/>
      </g>
     </g>
    </g>
    <g id="ytick_3">
     <g id="line2d_8">
      <g>
       <use xlink:href="#mdd64ad045c" x="50.595313" y="92.879392" style="stroke: #000000; stroke-width: 0.8"/>
      </g>
     </g>
     <g id="text_3">
      <!-- 8 -->
      <g transform="translate(37.232813 96.678611) scale(0.1 -0.1)">
       <defs>
        <path id="DejaVuSans-38" d="M 2034 2216 
Q 1584 2216 1326 1975 
Q 1069 1734 1069 1313 
Q 1069 891 1326 650 
Q 1584 409 2034 409 
Q 2484 409 2743 651 
Q 3003 894 3003 1313 
Q 3003 1734 2745 1975 
Q 2488 2216 2034 2216 
z
M 1403 2484 
Q 997 2584 770 2862 
Q 544 3141 544 3541 
Q 544 4100 942 4425 
Q 1341 4750 2034 4750 
Q 2731 4750 3128 4425 
Q 3525 4100 3525 3541 
Q 3525 3141 3298 2862 
Q 3072 2584 2669 2484 
Q 3125 2378 3379 2068 
Q 3634 1759 3634 1313 
Q 3634 634 3220 271 
Q 2806 -91 2034 -91 
Q 1263 -91 848 271 
Q 434 634 434 1313 
Q 434 1759 690 2068 
Q 947 2378 1403 2484 
z
M 1172 3481 
Q 1172 3119 1398 2916 
Q 1625 2713 2034 2713 
Q 2441 2713 2670 2916 
Q 2900 3119 2900 3481 
Q 2900 3844 2670 4047 
Q 2441 4250 2034 4250 
Q 1625 4250 1398 4047 
Q 1172 3844 1172 3481 
z
" transform="scale(0.015625)"/>
       </defs>
       <use xlink:href="#DejaVuSans-38"/>
      </g>
     </g>
    </g>
    <g id="ytick_4">
     <g id="line2d_9">
      <g>
       <use xlink:href="#mdd64ad045c" x="50.595313" y="69.558347" style="stroke: #000000; stroke-width: 0.8"/>
      </g>
     </g>
     <g id="text_4">
      <!-- 10 -->
      <g transform="translate(30.870313 73.357566) scale(0.1 -0.1)">
       <defs>
        <path id="DejaVuSans-31" d="M 794 531 
L 1825 531 
L 1825 4091 
L 703 3866 
L 703 4441 
L 1819 4666 
L 2450 4666 
L 2450 531 
L 3481 531 
L 3481 0 
L 794 0 
L 794 531 
z
" transform="scale(0.015625)"/>
        <path id="DejaVuSans-30" d="M 2034 4250 
Q 1547 4250 1301 3770 
Q 1056 3291 1056 2328 
Q 1056 1369 1301 889 
Q 1547 409 2034 409 
Q 2525 409 2770 889 
Q 3016 1369 3016 2328 
Q 3016 3291 2770 3770 
Q 2525 4250 2034 4250 
z
M 2034 4750 
Q 2819 4750 3233 4129 
Q 3647 3509 3647 2328 
Q 3647 1150 3233 529 
Q 2819 -91 2034 -91 
Q 1250 -91 836 529 
Q 422 1150 422 2328 
Q 422 3509 836 4129 
Q 1250 4750 2034 4750 
z
" transform="scale(0.015625)"/>
       </defs>
       <use xlink:href="#DejaVuSans-31"/>
       <use xlink:href="#DejaVuSans-30" x="63.623047"/>
      </g>
     </g>
    </g>
    <g id="ytick_5">
     <g id="line2d_10">
      <g>
       <use xlink:href="#mdd64ad045c" x="50.595313" y="46.237302" style="stroke: #000000; stroke-width: 0.8"/>
      </g>
     </g>
     <g id="text_5">
      <!-- 12 -->
      <g transform="translate(30.870313 50.036521) scale(0.1 -0.1)">
       <defs>
        <path id="DejaVuSans-32" d="M 1228 531 
L 3431 531 
L 3431 0 
L 469 0 
L 469 531 
Q 828 903 1448 1529 
Q 2069 2156 2228 2338 
Q 2531 2678 2651 2914 
Q 2772 3150 2772 3378 
Q 2772 3750 2511 3984 
Q 2250 4219 1831 4219 
Q 1534 4219 1204 4116 
Q 875 4013 500 3803 
L 500 4441 
Q 881 4594 1212 4672 
Q 1544 4750 1819 4750 
Q 2544 4750 2975 4387 
Q 3406 4025 3406 3419 
Q 3406 3131 3298 2873 
Q 3191 2616 2906 2266 
Q 2828 2175 2409 1742 
Q 1991 1309 1228 531 
z
" transform="scale(0.015625)"/>
       </defs>
       <use xlink:href="#DejaVuSans-31"/>
       <use xlink:href="#DejaVuSans-32" x="63.623047"/>
      </g>
     </g>
    </g>
    <g id="text_6">
     <!-- $|S_{21}|$ [mV] -->
     <g transform="translate(24.470313 127.19) rotate(-90) scale(0.1 -0.1)">
      <defs>
       <path id="DejaVuSans-7c" d="M 1344 4891 
L 1344 -1509 
L 813 -1509 
L 813 4891 
L 1344 4891 
z
" transform="scale(0.015625)"/>
       <path id="DejaVuSans-Oblique-53" d="M 3859 4513 
L 3738 3897 
Q 3422 4066 3111 4152 
Q 2800 4238 2509 4238 
Q 1944 4238 1609 3991 
Q 1275 3744 1275 3334 
Q 1275 3109 1398 2989 
Q 1522 2869 2034 2731 
L 2413 2638 
Q 3053 2472 3303 2217 
Q 3553 1963 3553 1503 
Q 3553 797 2998 353 
Q 2444 -91 1538 -91 
Q 1166 -91 791 -17 
Q 416 56 38 206 
L 166 856 
Q 513 641 861 531 
Q 1209 422 1556 422 
Q 2147 422 2503 684 
Q 2859 947 2859 1369 
Q 2859 1650 2717 1795 
Q 2575 1941 2106 2059 
L 1728 2156 
Q 1081 2325 845 2545 
Q 609 2766 609 3163 
Q 609 3859 1145 4304 
Q 1681 4750 2541 4750 
Q 2875 4750 3203 4690 
Q 3531 4631 3859 4513 
z
" transform="scale(0.015625)"/>
       <path id="DejaVuSans-20" transform="scale(0.015625)"/>
       <path id="DejaVuSans-5b" d="M 550 4863 
L 1875 4863 
L 1875 4416 
L 1125 4416 
L 1125 -397 
L 1875 -397 
L 1875 -844 
L 550 -844 
L 550 4863 
z
" transform="scale(0.015625)"/>
       <path id="DejaVuSans-6d" d="M 3328 2828 
Q 3544 3216 3844 3400 
Q 4144 3584 4550 3584 
Q 5097 3584 5394 3201 
Q 5691 2819 5691 2113 
L 5691 0 
L 5113 0 
L 5113 2094 
Q 5113 2597 4934 2840 
Q 4756 3084 4391 3084 
Q 3944 3084 3684 2787 
Q 3425 2491 3425 1978 
L 3425 0 
L 2847 0 
L 2847 2094 
Q 2847 2600 2669 2842 
Q 2491 3084 2119 3084 
Q 1678 3084 1418 2786 
Q 1159 2488 1159 1978 
L 1159 0 
L 581 0 
L 581 3500 
L 1159 3500 
L 1159 2956 
Q 1356 3278 1631 3431 
Q 1906 3584 2284 3584 
Q 2666 3584 2933 3390 
Q 3200 3197 3328 2828 
z
" transform="scale(0.015625)"/>
       <path id="DejaVuSans-56" d="M 1831 0 
L 50 4666 
L 709 4666 
L 2188 738 
L 3669 4666 
L 4325 4666 
L 2547 0 
L 1831 0 
z
" transform="scale(0.015625)"/>
       <path id="DejaVuSans-5d" d="M 1947 4863 
L 1947 -844 
L 622 -844 
L 622 -397 
L 1369 -397 
L 1369 4416 
L 622 4416 
L 622 4863 
L 1947 4863 
z
" transform="scale(0.015625)"/>
      </defs>
      <use xlink:href="#DejaVuSans-7c" transform="translate(0 0.578125)"/>
      <use xlink:href="#DejaVuSans-Oblique-53" transform="translate(33.691406 0.578125)"/>
      <use xlink:href="#DejaVuSans-32" transform="translate(97.167969 -15.828125) scale(0.7)"/>
      <use xlink:href="#DejaVuSans-31" transform="translate(141.704102 -15.828125) scale(0.7)"/>
      <use xlink:href="#DejaVuSans-7c" transform="translate(188.974609 0.578125)"/>
      <use xlink:href="#DejaVuSans-20" transform="translate(222.666016 0.578125)"/>
      <use xlink:href="#DejaVuSans-5b" transform="translate(254.453125 0.578125)"/>
      <use xlink:href="#DejaVuSans-6d" transform="translate(293.466797 0.578125)"/>
      <use xlink:href="#DejaVuSans-56" transform="translate(390.878906 0.578125)"/>
      <use xlink:href="#DejaVuSans-5d" transform="translate(459.287109 0.578125)"/>
     </g>
    </g>
   </g>
   <g id="line2d_11">
    <path d="M 66.82804 94.596266 
L 68.45947 94.809255 
L 70.0909 93.869787 
L 71.722329 92.335042 
L 73.353759 92.316913 
L 74.985189 91.335002 
L 76.616619 89.695844 
L 78.248049 89.531851 
L 79.879479 93.291769 
L 81.510909 109.853764 
L 83.142339 148.648215 
L 84.773768 154.090099 
L 86.405198 132.509774 
L 88.036628 119.651713 
L 89.668058 112.087125 
L 91.299488 108.110538 
L 92.930918 105.925651 
L 94.562348 102.065386 
L 96.193778 102.191901 
L 97.825207 97.95577 
L 99.456637 97.123026 
L 101.088067 94.424074 
L 102.719497 94.602494 
L 104.350927 93.642097 
L 105.982357 92.302606 
L 107.613787 90.665854 
L 109.245217 90.457994 
L 110.876646 88.852344 
L 112.508076 89.510648 
L 114.139506 86.823488 
L 115.770936 87.151987 
L 119.033796 85.3689 
L 120.665226 84.916445 
L 122.296656 84.691791 
L 123.928085 84.077679 
L 125.559515 82.192081 
L 127.190945 82.089108 
L 128.822375 81.742916 
L 130.453805 79.233843 
L 132.085235 79.989502 
L 133.716665 78.852195 
L 135.348095 78.761819 
L 136.979524 78.30094 
L 138.610954 77.244701 
L 140.242384 77.209567 
L 141.873814 76.587789 
L 143.505244 75.836382 
L 145.136674 73.781037 
L 146.768104 74.171741 
L 148.399534 74.295197 
L 150.030963 72.965345 
L 151.662393 71.920976 
L 153.293823 72.116587 
L 154.925253 71.445845 
L 156.556683 71.996423 
L 158.188113 70.798773 
L 159.819543 70.708738 
L 161.450973 69.939446 
L 163.082402 69.521189 
L 164.713832 68.890452 
L 166.345262 69.54368 
L 167.976692 68.681911 
L 169.608122 68.686576 
L 171.239552 67.766202 
L 172.870982 68.416553 
L 174.502412 67.40264 
L 176.133842 67.847448 
L 177.765271 67.082061 
L 179.396701 68.732421 
L 181.028131 67.525055 
L 182.659561 67.98179 
L 184.290991 67.346642 
L 185.922421 66.954913 
L 187.553851 66.377828 
L 189.185281 65.553483 
L 190.81671 65.843462 
L 192.44814 65.620555 
L 194.07957 66.148448 
L 195.711 65.831398 
L 197.34243 64.608094 
L 198.97386 64.543162 
L 200.60529 63.279229 
L 202.23672 62.949051 
L 203.868149 64.715248 
L 205.499579 62.092424 
L 207.131009 62.627581 
L 208.762439 61.47709 
L 210.393869 61.172463 
L 212.025299 60.249907 
L 213.656729 60.614453 
L 215.288159 61.365622 
L 216.919588 59.545349 
L 218.551018 58.317998 
L 220.182448 59.361821 
L 221.813878 57.835812 
L 223.445308 58.652885 
L 225.076738 58.654401 
L 226.708168 58.08549 
L 228.339598 58.244634 
L 229.971027 58.061966 
L 231.602457 57.720465 
L 233.233887 57.133974 
L 234.865317 56.986817 
L 236.496747 56.030674 
L 238.128177 56.604766 
L 241.391037 54.651845 
L 243.022466 54.520644 
L 244.653896 54.650698 
L 246.285326 53.756229 
L 247.916756 53.853676 
L 249.548186 53.569649 
L 251.179616 52.297787 
L 252.811046 52.328792 
L 254.442476 52.560099 
L 256.073905 52.001588 
L 257.705335 51.292683 
L 259.336765 50.800158 
L 260.968195 51.364848 
L 262.599625 50.026805 
L 264.231055 50.846485 
L 265.862485 49.730672 
L 267.493915 49.385112 
L 269.125344 49.270768 
L 270.756774 47.971939 
L 272.388204 49.791514 
L 274.019634 48.88952 
L 275.651064 49.914286 
L 277.282494 49.317173 
L 278.913924 47.258182 
L 280.545354 48.654034 
L 282.176783 47.632736 
L 283.808213 47.58525 
L 285.439643 49.511785 
L 287.071073 49.701846 
L 288.702503 48.571812 
L 290.333933 48.89793 
L 291.965363 49.701224 
L 293.596793 48.853867 
L 295.228223 51.058392 
L 296.859652 49.349324 
L 298.491082 49.499648 
L 300.122512 50.09208 
L 301.753942 50.17489 
L 303.385372 50.432938 
L 305.016802 49.671733 
L 306.648232 50.856904 
L 308.279662 50.190655 
L 309.911091 51.075825 
L 311.542521 50.971561 
L 313.173951 52.025655 
L 314.805381 50.380418 
L 316.436811 49.566952 
L 318.068241 49.725375 
L 319.699671 51.086346 
L 321.331101 49.375108 
L 322.96253 49.54713 
L 324.59396 50.209957 
L 326.22539 49.337255 
L 327.85682 51.394479 
L 329.48825 50.708391 
L 331.11968 51.406896 
L 332.75111 51.630003 
L 334.38254 51.559653 
L 336.013969 52.686863 
L 339.276829 52.718985 
L 340.908259 52.012096 
L 342.539689 52.697417 
L 344.171119 52.204011 
L 345.802549 53.517429 
L 347.433979 53.615807 
L 349.065408 53.4308 
L 350.696838 52.654523 
L 355.591128 52.965233 
L 357.222558 54.388821 
L 358.853988 53.439757 
L 360.485418 53.382042 
L 362.116847 52.646028 
L 363.748277 53.499119 
L 365.379707 52.809774 
L 367.011137 53.729694 
L 368.642567 53.356429 
L 370.273997 52.7624 
L 371.905427 54.159917 
L 373.536857 54.219654 
L 375.168286 52.426444 
L 376.799716 53.14861 
L 378.431146 53.587167 
L 380.062576 55.406478 
L 381.694006 56.807109 
L 383.325436 61.386983 
L 384.956866 67.536159 
L 386.588296 81.338791 
L 388.219725 112.326488 
L 389.851155 157.221818 
L 391.482585 145.511543 
L 391.482585 145.511543 
" clip-path="url(#p5b795600db)" style="fill: none; stroke: #1f77b4; stroke-width: 1.5; stroke-linecap: square"/>
    <defs>
     <path id="m69eb7c219c" d="M 0 1.5 
C 0.397805 1.5 0.77937 1.341951 1.06066 1.06066 
C 1.341951 0.77937 1.5 0.397805 1.5 0 
C 1.5 -0.397805 1.341951 -0.77937 1.06066 -1.06066 
C 0.77937 -1.341951 0.397805 -1.5 0 -1.5 
C -0.397805 -1.5 -0.77937 -1.341951 -1.06066 -1.06066 
C -1.341951 -0.77937 -1.5 -0.397805 -1.5 0 
C -1.5 0.397805 -1.341951 0.77937 -1.06066 1.06066 
C -0.77937 1.341951 -0.397805 1.5 0 1.5 
z
" style="stroke: #1f77b4"/>
    </defs>
    <g clip-path="url(#p5b795600db)">
     <use xlink:href="#m69eb7c219c" x="66.82804" y="94.596266" style="fill: #1f77b4; stroke: #1f77b4"/>
     <use xlink:href="#m69eb7c219c" x="68.45947" y="94.809255" style="fill: #1f77b4; stroke: #1f77b4"/>
     <use xlink:href="#m69eb7c219c" x="70.0909" y="93.869787" style="fill: #1f77b4; stroke: #1f77b4"/>
     <use xlink:href="#m69eb7c219c" x="71.722329" y="92.335042" style="fill: #1f77b4; stroke: #1f77b4"/>
     <use xlink:href="#m69eb7c219c" x="73.353759" y="92.316913" style="fill: #1f77b4; stroke: #1f77b4"/>
     <use xlink:href="#m69eb7c219c" x="74.985189" y="91.335002" style="fill: #1f77b4; stroke: #1f77b4"/>
     <use xlink:href="#m69eb7c219c" x="76.616619" y="89.695844" style="fill: #1f77b4; stroke: #1f77b4"/>
     <use xlink:href="#m69eb7c219c" x="78.248049" y="89.531851" style="fill: #1f77b4; stroke: #1f77b4"/>
     <use xlink:href="#m69eb7c219c" x="79.879479" y="93.291769" style="fill: #1f77b4; stroke: #1f77b4"/>
     <use xlink:href="#m69eb7c219c" x="81.510909" y="109.853764" style="fill: #1f77b4; stroke: #1f77b4"/>
     <use xlink:href="#m69eb7c219c" x="83.142339" y="148.648215" style="fill: #1f77b4; stroke: #1f77b4"/>
     <use xlink:href="#m69eb7c219c" x="84.773768" y="154.090099" style="fill: #1f77b4; stroke: #1f77b4"/>
     <use xlink:href="#m69eb7c219c" x="86.405198" y="132.509774" style="fill: #1f77b4; stroke: #1f77b4"/>
     <use xlink:href="#m69eb7c219c" x="88.036628" y="119.651713" style="fill: #1f77b4; stroke: #1f77b4"/>
     <use xlink:href="#m69eb7c219c" x="89.668058" y="112.087125" style="fill: #1f77b4; stroke: #1f77b4"/>
     <use xlink:href="#m69eb7c219c" x="91.299488" y="108.110538" style="fill: #1f77b4; stroke: #1f77b4"/>
     <use xlink:href="#m69eb7c219c" x="92.930918" y="105.925651" style="fill: #1f77b4; stroke: #1f77b4"/>
     <use xlink:href="#m69eb7c219c" x="94.562348" y="102.065386" style="fill: #1f77b4; stroke: #1f77b4"/>
     <use xlink:href="#m69eb7c219c" x="96.193778" y="102.191901" style="fill: #1f77b4; stroke: #1f77b4"/>
     <use xlink:href="#m69eb7c219c" x="97.825207" y="97.95577" style="fill: #1f77b4; stroke: #1f77b4"/>
     <use xlink:href="#m69eb7c219c" x="99.456637" y="97.123026" style="fill: #1f77b4; stroke: #1f77b4"/>
     <use xlink:href="#m69eb7c219c" x="101.088067" y="94.424074" style="fill: #1f77b4; stroke: #1f77b4"/>
     <use xlink:href="#m69eb7c219c" x="102.719497" y="94.602494" style="fill: #1f77b4; stroke: #1f77b4"/>
     <use xlink:href="#m69eb7c219c" x="104.350927" y="93.642097" style="fill: #1f77b4; stroke: #1f77b4"/>
     <use xlink:href="#m69eb7c219c" x="105.982357" y="92.302606" style="fill: #1f77b4; stroke: #1f77b4"/>
     <use xlink:href="#m69eb7c219c" x="107.613787" y="90.665854" style="fill: #1f77b4; stroke: #1f77b4"/>
     <use xlink:href="#m69eb7c219c" x="109.245217" y="90.457994" style="fill: #1f77b4; stroke: #1f77b4"/>
     <use xlink:href="#m69eb7c219c" x="110.876646" y="88.852344" style="fill: #1f77b4; stroke: #1f77b4"/>
     <use xlink:href="#m69eb7c219c" x="112.508076" y="89.510648" style="fill: #1f77b4; stroke: #1f77b4"/>
     <use xlink:href="#m69eb7c219c" x="114.139506" y="86.823488" style="fill: #1f77b4; stroke: #1f77b4"/>
     <use xlink:href="#m69eb7c219c" x="115.770936" y="87.151987" style="fill: #1f77b4; stroke: #1f77b4"/>
     <use xlink:href="#m69eb7c219c" x="117.402366" y="86.215257" style="fill: #1f77b4; stroke: #1f77b4"/>
     <use xlink:href="#m69eb7c219c" x="119.033796" y="85.3689" style="fill: #1f77b4; stroke: #1f77b4"/>
     <use xlink:href="#m69eb7c219c" x="120.665226" y="84.916445" style="fill: #1f77b4; stroke: #1f77b4"/>
     <use xlink:href="#m69eb7c219c" x="122.296656" y="84.691791" style="fill: #1f77b4; stroke: #1f77b4"/>
     <use xlink:href="#m69eb7c219c" x="123.928085" y="84.077679" style="fill: #1f77b4; stroke: #1f77b4"/>
     <use xlink:href="#m69eb7c219c" x="125.559515" y="82.192081" style="fill: #1f77b4; stroke: #1f77b4"/>
     <use xlink:href="#m69eb7c219c" x="127.190945" y="82.089108" style="fill: #1f77b4; stroke: #1f77b4"/>
     <use xlink:href="#m69eb7c219c" x="128.822375" y="81.742916" style="fill: #1f77b4; stroke: #1f77b4"/>
     <use xlink:href="#m69eb7c219c" x="130.453805" y="79.233843" style="fill: #1f77b4; stroke: #1f77b4"/>
     <use xlink:href="#m69eb7c219c" x="132.085235" y="79.989502" style="fill: #1f77b4; stroke: #1f77b4"/>
     <use xlink:href="#m69eb7c219c" x="133.716665" y="78.852195" style="fill: #1f77b4; stroke: #1f77b4"/>
     <use xlink:href="#m69eb7c219c" x="135.348095" y="78.761819" style="fill: #1f77b4; stroke: #1f77b4"/>
     <use xlink:href="#m69eb7c219c" x="136.979524" y="78.30094" style="fill: #1f77b4; stroke: #1f77b4"/>
     <use xlink:href="#m69eb7c219c" x="138.610954" y="77.244701" style="fill: #1f77b4; stroke: #1f77b4"/>
     <use xlink:href="#m69eb7c219c" x="140.242384" y="77.209567" style="fill: #1f77b4; stroke: #1f77b4"/>
     <use xlink:href="#m69eb7c219c" x="141.873814" y="76.587789" style="fill: #1f77b4; stroke: #1f77b4"/>
     <use xlink:href="#m69eb7c219c" x="143.505244" y="75.836382" style="fill: #1f77b4; stroke: #1f77b4"/>
     <use xlink:href="#m69eb7c219c" x="145.136674" y="73.781037" style="fill: #1f77b4; stroke: #1f77b4"/>
     <use xlink:href="#m69eb7c219c" x="146.768104" y="74.171741" style="fill: #1f77b4; stroke: #1f77b4"/>
     <use xlink:href="#m69eb7c219c" x="148.399534" y="74.295197" style="fill: #1f77b4; stroke: #1f77b4"/>
     <use xlink:href="#m69eb7c219c" x="150.030963" y="72.965345" style="fill: #1f77b4; stroke: #1f77b4"/>
     <use xlink:href="#m69eb7c219c" x="151.662393" y="71.920976" style="fill: #1f77b4; stroke: #1f77b4"/>
     <use xlink:href="#m69eb7c219c" x="153.293823" y="72.116587" style="fill: #1f77b4; stroke: #1f77b4"/>
     <use xlink:href="#m69eb7c219c" x="154.925253" y="71.445845" style="fill: #1f77b4; stroke: #1f77b4"/>
     <use xlink:href="#m69eb7c219c" x="156.556683" y="71.996423" style="fill: #1f77b4; stroke: #1f77b4"/>
     <use xlink:href="#m69eb7c219c" x="158.188113" y="70.798773" style="fill: #1f77b4; stroke: #1f77b4"/>
     <use xlink:href="#m69eb7c219c" x="159.819543" y="70.708738" style="fill: #1f77b4; stroke: #1f77b4"/>
     <use xlink:href="#m69eb7c219c" x="161.450973" y="69.939446" style="fill: #1f77b4; stroke: #1f77b4"/>
     <use xlink:href="#m69eb7c219c" x="163.082402" y="69.521189" style="fill: #1f77b4; stroke: #1f77b4"/>
     <use xlink:href="#m69eb7c219c" x="164.713832" y="68.890452" style="fill: #1f77b4; stroke: #1f77b4"/>
     <use xlink:href="#m69eb7c219c" x="166.345262" y="69.54368" style="fill: #1f77b4; stroke: #1f77b4"/>
     <use xlink:href="#m69eb7c219c" x="167.976692" y="68.681911" style="fill: #1f77b4; stroke: #1f77b4"/>
     <use xlink:href="#m69eb7c219c" x="169.608122" y="68.686576" style="fill: #1f77b4; stroke: #1f77b4"/>
     <use xlink:href="#m69eb7c219c" x="171.239552" y="67.766202" style="fill: #1f77b4; stroke: #1f77b4"/>
     <use xlink:href="#m69eb7c219c" x="172.870982" y="68.416553" style="fill: #1f77b4; stroke: #1f77b4"/>
     <use xlink:href="#m69eb7c219c" x="174.502412" y="67.40264" style="fill: #1f77b4; stroke: #1f77b4"/>
     <use xlink:href="#m69eb7c219c" x="176.133842" y="67.847448" style="fill: #1f77b4; stroke: #1f77b4"/>
     <use xlink:href="#m69eb7c219c" x="177.765271" y="67.082061" style="fill: #1f77b4; stroke: #1f77b4"/>
     <use xlink:href="#m69eb7c219c" x="179.396701" y="68.732421" style="fill: #1f77b4; stroke: #1f77b4"/>
     <use xlink:href="#m69eb7c219c" x="181.028131" y="67.525055" style="fill: #1f77b4; stroke: #1f77b4"/>
     <use xlink:href="#m69eb7c219c" x="182.659561" y="67.98179" style="fill: #1f77b4; stroke: #1f77b4"/>
     <use xlink:href="#m69eb7c219c" x="184.290991" y="67.346642" style="fill: #1f77b4; stroke: #1f77b4"/>
     <use xlink:href="#m69eb7c219c" x="185.922421" y="66.954913" style="fill: #1f77b4; stroke: #1f77b4"/>
     <use xlink:href="#m69eb7c219c" x="187.553851" y="66.377828" style="fill: #1f77b4; stroke: #1f77b4"/>
     <use xlink:href="#m69eb7c219c" x="189.185281" y="65.553483" style="fill: #1f77b4; stroke: #1f77b4"/>
     <use xlink:href="#m69eb7c219c" x="190.81671" y="65.843462" style="fill: #1f77b4; stroke: #1f77b4"/>
     <use xlink:href="#m69eb7c219c" x="192.44814" y="65.620555" style="fill: #1f77b4; stroke: #1f77b4"/>
     <use xlink:href="#m69eb7c219c" x="194.07957" y="66.148448" style="fill: #1f77b4; stroke: #1f77b4"/>
     <use xlink:href="#m69eb7c219c" x="195.711" y="65.831398" style="fill: #1f77b4; stroke: #1f77b4"/>
     <use xlink:href="#m69eb7c219c" x="197.34243" y="64.608094" style="fill: #1f77b4; stroke: #1f77b4"/>
     <use xlink:href="#m69eb7c219c" x="198.97386" y="64.543162" style="fill: #1f77b4; stroke: #1f77b4"/>
     <use xlink:href="#m69eb7c219c" x="200.60529" y="63.279229" style="fill: #1f77b4; stroke: #1f77b4"/>
     <use xlink:href="#m69eb7c219c" x="202.23672" y="62.949051" style="fill: #1f77b4; stroke: #1f77b4"/>
     <use xlink:href="#m69eb7c219c" x="203.868149" y="64.715248" style="fill: #1f77b4; stroke: #1f77b4"/>
     <use xlink:href="#m69eb7c219c" x="205.499579" y="62.092424" style="fill: #1f77b4; stroke: #1f77b4"/>
     <use xlink:href="#m69eb7c219c" x="207.131009" y="62.627581" style="fill: #1f77b4; stroke: #1f77b4"/>
     <use xlink:href="#m69eb7c219c" x="208.762439" y="61.47709" style="fill: #1f77b4; stroke: #1f77b4"/>
     <use xlink:href="#m69eb7c219c" x="210.393869" y="61.172463" style="fill: #1f77b4; stroke: #1f77b4"/>
     <use xlink:href="#m69eb7c219c" x="212.025299" y="60.249907" style="fill: #1f77b4; stroke: #1f77b4"/>
     <use xlink:href="#m69eb7c219c" x="213.656729" y="60.614453" style="fill: #1f77b4; stroke: #1f77b4"/>
     <use xlink:href="#m69eb7c219c" x="215.288159" y="61.365622" style="fill: #1f77b4; stroke: #1f77b4"/>
     <use xlink:href="#m69eb7c219c" x="216.919588" y="59.545349" style="fill: #1f77b4; stroke: #1f77b4"/>
     <use xlink:href="#m69eb7c219c" x="218.551018" y="58.317998" style="fill: #1f77b4; stroke: #1f77b4"/>
     <use xlink:href="#m69eb7c219c" x="220.182448" y="59.361821" style="fill: #1f77b4; stroke: #1f77b4"/>
     <use xlink:href="#m69eb7c219c" x="221.813878" y="57.835812" style="fill: #1f77b4; stroke: #1f77b4"/>
     <use xlink:href="#m69eb7c219c" x="223.445308" y="58.652885" style="fill: #1f77b4; stroke: #1f77b4"/>
     <use xlink:href="#m69eb7c219c" x="225.076738" y="58.654401" style="fill: #1f77b4; stroke: #1f77b4"/>
     <use xlink:href="#m69eb7c219c" x="226.708168" y="58.08549" style="fill: #1f77b4; stroke: #1f77b4"/>
     <use xlink:href="#m69eb7c219c" x="228.339598" y="58.244634" style="fill: #1f77b4; stroke: #1f77b4"/>
     <use xlink:href="#m69eb7c219c" x="229.971027" y="58.061966" style="fill: #1f77b4; stroke: #1f77b4"/>
     <use xlink:href="#m69eb7c219c" x="231.602457" y="57.720465" style="fill: #1f77b4; stroke: #1f77b4"/>
     <use xlink:href="#m69eb7c219c" x="233.233887" y="57.133974" style="fill: #1f77b4; stroke: #1f77b4"/>
     <use xlink:href="#m69eb7c219c" x="234.865317" y="56.986817" style="fill: #1f77b4; stroke: #1f77b4"/>
     <use xlink:href="#m69eb7c219c" x="236.496747" y="56.030674" style="fill: #1f77b4; stroke: #1f77b4"/>
     <use xlink:href="#m69eb7c219c" x="238.128177" y="56.604766" style="fill: #1f77b4; stroke: #1f77b4"/>
     <use xlink:href="#m69eb7c219c" x="239.759607" y="55.625185" style="fill: #1f77b4; stroke: #1f77b4"/>
     <use xlink:href="#m69eb7c219c" x="241.391037" y="54.651845" style="fill: #1f77b4; stroke: #1f77b4"/>
     <use xlink:href="#m69eb7c219c" x="243.022466" y="54.520644" style="fill: #1f77b4; stroke: #1f77b4"/>
     <use xlink:href="#m69eb7c219c" x="244.653896" y="54.650698" style="fill: #1f77b4; stroke: #1f77b4"/>
     <use xlink:href="#m69eb7c219c" x="246.285326" y="53.756229" style="fill: #1f77b4; stroke: #1f77b4"/>
     <use xlink:href="#m69eb7c219c" x="247.916756" y="53.853676" style="fill: #1f77b4; stroke: #1f77b4"/>
     <use xlink:href="#m69eb7c219c" x="249.548186" y="53.569649" style="fill: #1f77b4; stroke: #1f77b4"/>
     <use xlink:href="#m69eb7c219c" x="251.179616" y="52.297787" style="fill: #1f77b4; stroke: #1f77b4"/>
     <use xlink:href="#m69eb7c219c" x="252.811046" y="52.328792" style="fill: #1f77b4; stroke: #1f77b4"/>
     <use xlink:href="#m69eb7c219c" x="254.442476" y="52.560099" style="fill: #1f77b4; stroke: #1f77b4"/>
     <use xlink:href="#m69eb7c219c" x="256.073905" y="52.001588" style="fill: #1f77b4; stroke: #1f77b4"/>
     <use xlink:href="#m69eb7c219c" x="257.705335" y="51.292683" style="fill: #1f77b4; stroke: #1f77b4"/>
     <use xlink:href="#m69eb7c219c" x="259.336765" y="50.800158" style="fill: #1f77b4; stroke: #1f77b4"/>
     <use xlink:href="#m69eb7c219c" x="260.968195" y="51.364848" style="fill: #1f77b4; stroke: #1f77b4"/>
     <use xlink:href="#m69eb7c219c" x="262.599625" y="50.026805" style="fill: #1f77b4; stroke: #1f77b4"/>
     <use xlink:href="#m69eb7c219c" x="264.231055" y="50.846485" style="fill: #1f77b4; stroke: #1f77b4"/>
     <use xlink:href="#m69eb7c219c" x="265.862485" y="49.730672" style="fill: #1f77b4; stroke: #1f77b4"/>
     <use xlink:href="#m69eb7c219c" x="267.493915" y="49.385112" style="fill: #1f77b4; stroke: #1f77b4"/>
     <use xlink:href="#m69eb7c219c" x="269.125344" y="49.270768" style="fill: #1f77b4; stroke: #1f77b4"/>
     <use xlink:href="#m69eb7c219c" x="270.756774" y="47.971939" style="fill: #1f77b4; stroke: #1f77b4"/>
     <use xlink:href="#m69eb7c219c" x="272.388204" y="49.791514" style="fill: #1f77b4; stroke: #1f77b4"/>
     <use xlink:href="#m69eb7c219c" x="274.019634" y="48.88952" style="fill: #1f77b4; stroke: #1f77b4"/>
     <use xlink:href="#m69eb7c219c" x="275.651064" y="49.914286" style="fill: #1f77b4; stroke: #1f77b4"/>
     <use xlink:href="#m69eb7c219c" x="277.282494" y="49.317173" style="fill: #1f77b4; stroke: #1f77b4"/>
     <use xlink:href="#m69eb7c219c" x="278.913924" y="47.258182" style="fill: #1f77b4; stroke: #1f77b4"/>
     <use xlink:href="#m69eb7c219c" x="280.545354" y="48.654034" style="fill: #1f77b4; stroke: #1f77b4"/>
     <use xlink:href="#m69eb7c219c" x="282.176783" y="47.632736" style="fill: #1f77b4; stroke: #1f77b4"/>
     <use xlink:href="#m69eb7c219c" x="283.808213" y="47.58525" style="fill: #1f77b4; stroke: #1f77b4"/>
     <use xlink:href="#m69eb7c219c" x="285.439643" y="49.511785" style="fill: #1f77b4; stroke: #1f77b4"/>
     <use xlink:href="#m69eb7c219c" x="287.071073" y="49.701846" style="fill: #1f77b4; stroke: #1f77b4"/>
     <use xlink:href="#m69eb7c219c" x="288.702503" y="48.571812" style="fill: #1f77b4; stroke: #1f77b4"/>
     <use xlink:href="#m69eb7c219c" x="290.333933" y="48.89793" style="fill: #1f77b4; stroke: #1f77b4"/>
     <use xlink:href="#m69eb7c219c" x="291.965363" y="49.701224" style="fill: #1f77b4; stroke: #1f77b4"/>
     <use xlink:href="#m69eb7c219c" x="293.596793" y="48.853867" style="fill: #1f77b4; stroke: #1f77b4"/>
     <use xlink:href="#m69eb7c219c" x="295.228223" y="51.058392" style="fill: #1f77b4; stroke: #1f77b4"/>
     <use xlink:href="#m69eb7c219c" x="296.859652" y="49.349324" style="fill: #1f77b4; stroke: #1f77b4"/>
     <use xlink:href="#m69eb7c219c" x="298.491082" y="49.499648" style="fill: #1f77b4; stroke: #1f77b4"/>
     <use xlink:href="#m69eb7c219c" x="300.122512" y="50.09208" style="fill: #1f77b4; stroke: #1f77b4"/>
     <use xlink:href="#m69eb7c219c" x="301.753942" y="50.17489" style="fill: #1f77b4; stroke: #1f77b4"/>
     <use xlink:href="#m69eb7c219c" x="303.385372" y="50.432938" style="fill: #1f77b4; stroke: #1f77b4"/>
     <use xlink:href="#m69eb7c219c" x="305.016802" y="49.671733" style="fill: #1f77b4; stroke: #1f77b4"/>
     <use xlink:href="#m69eb7c219c" x="306.648232" y="50.856904" style="fill: #1f77b4; stroke: #1f77b4"/>
     <use xlink:href="#m69eb7c219c" x="308.279662" y="50.190655" style="fill: #1f77b4; stroke: #1f77b4"/>
     <use xlink:href="#m69eb7c219c" x="309.911091" y="51.075825" style="fill: #1f77b4; stroke: #1f77b4"/>
     <use xlink:href="#m69eb7c219c" x="311.542521" y="50.971561" style="fill: #1f77b4; stroke: #1f77b4"/>
     <use xlink:href="#m69eb7c219c" x="313.173951" y="52.025655" style="fill: #1f77b4; stroke: #1f77b4"/>
     <use xlink:href="#m69eb7c219c" x="314.805381" y="50.380418" style="fill: #1f77b4; stroke: #1f77b4"/>
     <use xlink:href="#m69eb7c219c" x="316.436811" y="49.566952" style="fill: #1f77b4; stroke: #1f77b4"/>
     <use xlink:href="#m69eb7c219c" x="318.068241" y="49.725375" style="fill: #1f77b4; stroke: #1f77b4"/>
     <use xlink:href="#m69eb7c219c" x="319.699671" y="51.086346" style="fill: #1f77b4; stroke: #1f77b4"/>
     <use xlink:href="#m69eb7c219c" x="321.331101" y="49.375108" style="fill: #1f77b4; stroke: #1f77b4"/>
     <use xlink:href="#m69eb7c219c" x="322.96253" y="49.54713" style="fill: #1f77b4; stroke: #1f77b4"/>
     <use xlink:href="#m69eb7c219c" x="324.59396" y="50.209957" style="fill: #1f77b4; stroke: #1f77b4"/>
     <use xlink:href="#m69eb7c219c" x="326.22539" y="49.337255" style="fill: #1f77b4; stroke: #1f77b4"/>
     <use xlink:href="#m69eb7c219c" x="327.85682" y="51.394479" style="fill: #1f77b4; stroke: #1f77b4"/>
     <use xlink:href="#m69eb7c219c" x="329.48825" y="50.708391" style="fill: #1f77b4; stroke: #1f77b4"/>
     <use xlink:href="#m69eb7c219c" x="331.11968" y="51.406896" style="fill: #1f77b4; stroke: #1f77b4"/>
     <use xlink:href="#m69eb7c219c" x="332.75111" y="51.630003" style="fill: #1f77b4; stroke: #1f77b4"/>
     <use xlink:href="#m69eb7c219c" x="334.38254" y="51.559653" style="fill: #1f77b4; stroke: #1f77b4"/>
     <use xlink:href="#m69eb7c219c" x="336.013969" y="52.686863" style="fill: #1f77b4; stroke: #1f77b4"/>
     <use xlink:href="#m69eb7c219c" x="337.645399" y="52.676125" style="fill: #1f77b4; stroke: #1f77b4"/>
     <use xlink:href="#m69eb7c219c" x="339.276829" y="52.718985" style="fill: #1f77b4; stroke: #1f77b4"/>
     <use xlink:href="#m69eb7c219c" x="340.908259" y="52.012096" style="fill: #1f77b4; stroke: #1f77b4"/>
     <use xlink:href="#m69eb7c219c" x="342.539689" y="52.697417" style="fill: #1f77b4; stroke: #1f77b4"/>
     <use xlink:href="#m69eb7c219c" x="344.171119" y="52.204011" style="fill: #1f77b4; stroke: #1f77b4"/>
     <use xlink:href="#m69eb7c219c" x="345.802549" y="53.517429" style="fill: #1f77b4; stroke: #1f77b4"/>
     <use xlink:href="#m69eb7c219c" x="347.433979" y="53.615807" style="fill: #1f77b4; stroke: #1f77b4"/>
     <use xlink:href="#m69eb7c219c" x="349.065408" y="53.4308" style="fill: #1f77b4; stroke: #1f77b4"/>
     <use xlink:href="#m69eb7c219c" x="350.696838" y="52.654523" style="fill: #1f77b4; stroke: #1f77b4"/>
     <use xlink:href="#m69eb7c219c" x="352.328268" y="52.731876" style="fill: #1f77b4; stroke: #1f77b4"/>
     <use xlink:href="#m69eb7c219c" x="353.959698" y="52.899202" style="fill: #1f77b4; stroke: #1f77b4"/>
     <use xlink:href="#m69eb7c219c" x="355.591128" y="52.965233" style="fill: #1f77b4; stroke: #1f77b4"/>
     <use xlink:href="#m69eb7c219c" x="357.222558" y="54.388821" style="fill: #1f77b4; stroke: #1f77b4"/>
     <use xlink:href="#m69eb7c219c" x="358.853988" y="53.439757" style="fill: #1f77b4; stroke: #1f77b4"/>
     <use xlink:href="#m69eb7c219c" x="360.485418" y="53.382042" style="fill: #1f77b4; stroke: #1f77b4"/>
     <use xlink:href="#m69eb7c219c" x="362.116847" y="52.646028" style="fill: #1f77b4; stroke: #1f77b4"/>
     <use xlink:href="#m69eb7c219c" x="363.748277" y="53.499119" style="fill: #1f77b4; stroke: #1f77b4"/>
     <use xlink:href="#m69eb7c219c" x="365.379707" y="52.809774" style="fill: #1f77b4; stroke: #1f77b4"/>
     <use xlink:href="#m69eb7c219c" x="367.011137" y="53.729694" style="fill: #1f77b4; stroke: #1f77b4"/>
     <use xlink:href="#m69eb7c219c" x="368.642567" y="53.356429" style="fill: #1f77b4; stroke: #1f77b4"/>
     <use xlink:href="#m69eb7c219c" x="370.273997" y="52.7624" style="fill: #1f77b4; stroke: #1f77b4"/>
     <use xlink:href="#m69eb7c219c" x="371.905427" y="54.159917" style="fill: #1f77b4; stroke: #1f77b4"/>
     <use xlink:href="#m69eb7c219c" x="373.536857" y="54.219654" style="fill: #1f77b4; stroke: #1f77b4"/>
     <use xlink:href="#m69eb7c219c" x="375.168286" y="52.426444" style="fill: #1f77b4; stroke: #1f77b4"/>
     <use xlink:href="#m69eb7c219c" x="376.799716" y="53.14861" style="fill: #1f77b4; stroke: #1f77b4"/>
     <use xlink:href="#m69eb7c219c" x="378.431146" y="53.587167" style="fill: #1f77b4; stroke: #1f77b4"/>
     <use xlink:href="#m69eb7c219c" x="380.062576" y="55.406478" style="fill: #1f77b4; stroke: #1f77b4"/>
     <use xlink:href="#m69eb7c219c" x="381.694006" y="56.807109" style="fill: #1f77b4; stroke: #1f77b4"/>
     <use xlink:href="#m69eb7c219c" x="383.325436" y="61.386983" style="fill: #1f77b4; stroke: #1f77b4"/>
     <use xlink:href="#m69eb7c219c" x="384.956866" y="67.536159" style="fill: #1f77b4; stroke: #1f77b4"/>
     <use xlink:href="#m69eb7c219c" x="386.588296" y="81.338791" style="fill: #1f77b4; stroke: #1f77b4"/>
     <use xlink:href="#m69eb7c219c" x="388.219725" y="112.326488" style="fill: #1f77b4; stroke: #1f77b4"/>
     <use xlink:href="#m69eb7c219c" x="389.851155" y="157.221818" style="fill: #1f77b4; stroke: #1f77b4"/>
     <use xlink:href="#m69eb7c219c" x="391.482585" y="145.511543" style="fill: #1f77b4; stroke: #1f77b4"/>
    </g>
   </g>
   <g id="line2d_12">
    <path d="M 66.82804 72.904797 
L 364.509285 72.318266 
L 391.482585 72.272446 
L 391.482585 72.272446 
" clip-path="url(#p5b795600db)" style="fill: none; stroke: #d62728; stroke-width: 1.5; stroke-linecap: square"/>
   </g>
   <g id="patch_3">
    <path d="M 50.595313 162.72 
L 50.595313 41.76 
" style="fill: none; stroke: #000000; stroke-width: 0.8; stroke-linejoin: miter; stroke-linecap: square"/>
   </g>
   <g id="patch_4">
    <path d="M 407.715312 162.72 
L 407.715312 41.76 
" style="fill: none; stroke: #000000; stroke-width: 0.8; stroke-linejoin: miter; stroke-linecap: square"/>
   </g>
   <g id="patch_5">
    <path d="M 50.595313 162.72 
L 407.715313 162.72 
" style="fill: none; stroke: #000000; stroke-width: 0.8; stroke-linejoin: miter; stroke-linecap: square"/>
   </g>
   <g id="patch_6">
    <path d="M 50.595313 41.76 
L 407.715313 41.76 
" style="fill: none; stroke: #000000; stroke-width: 0.8; stroke-linejoin: miter; stroke-linecap: square"/>
   </g>
   <g id="text_7">
    <g id="patch_7">
     <path d="M 425.571312 72.683938 
L 585.679125 72.683938 
Q 589.679125 72.683938 589.679125 68.683938 
L 589.679125 47.808 
Q 589.679125 43.808 585.679125 43.808 
L 425.571312 43.808 
Q 421.571312 43.808 421.571312 47.808 
L 421.571312 68.683938 
Q 421.571312 72.683938 425.571312 72.683938 
z
" style="fill: #ffffff; opacity: 0.5; stroke: #000000; stroke-linejoin: miter"/>
    </g>
    <!-- Warning: fit failed. lmfit was not -->
    <g transform="translate(425.571312 55.406437) scale(0.1 -0.1)">
     <defs>
      <path id="DejaVuSans-57" d="M 213 4666 
L 850 4666 
L 1831 722 
L 2809 4666 
L 3519 4666 
L 4500 722 
L 5478 4666 
L 6119 4666 
L 4947 0 
L 4153 0 
L 3169 4050 
L 2175 0 
L 1381 0 
L 213 4666 
z
" transform="scale(0.015625)"/>
      <path id="DejaVuSans-61" d="M 2194 1759 
Q 1497 1759 1228 1600 
Q 959 1441 959 1056 
Q 959 750 1161 570 
Q 1363 391 1709 391 
Q 2188 391 2477 730 
Q 2766 1069 2766 1631 
L 2766 1759 
L 2194 1759 
z
M 3341 1997 
L 3341 0 
L 2766 0 
L 2766 531 
Q 2569 213 2275 61 
Q 1981 -91 1556 -91 
Q 1019 -91 701 211 
Q 384 513 384 1019 
Q 384 1609 779 1909 
Q 1175 2209 1959 2209 
L 2766 2209 
L 2766 2266 
Q 2766 2663 2505 2880 
Q 2244 3097 1772 3097 
Q 1472 3097 1187 3025 
Q 903 2953 641 2809 
L 641 3341 
Q 956 3463 1253 3523 
Q 1550 3584 1831 3584 
Q 2591 3584 2966 3190 
Q 3341 2797 3341 1997 
z
" transform="scale(0.015625)"/>
      <path id="DejaVuSans-72" d="M 2631 2963 
Q 2534 3019 2420 3045 
Q 2306 3072 2169 3072 
Q 1681 3072 1420 2755 
Q 1159 2438 1159 1844 
L 1159 0 
L 581 0 
L 581 3500 
L 1159 3500 
L 1159 2956 
Q 1341 3275 1631 3429 
Q 1922 3584 2338 3584 
Q 2397 3584 2469 3576 
Q 2541 3569 2628 3553 
L 2631 2963 
z
" transform="scale(0.015625)"/>
      <path id="DejaVuSans-6e" d="M 3513 2113 
L 3513 0 
L 2938 0 
L 2938 2094 
Q 2938 2591 2744 2837 
Q 2550 3084 2163 3084 
Q 1697 3084 1428 2787 
Q 1159 2491 1159 1978 
L 1159 0 
L 581 0 
L 581 3500 
L 1159 3500 
L 1159 2956 
Q 1366 3272 1645 3428 
Q 1925 3584 2291 3584 
Q 2894 3584 3203 3211 
Q 3513 2838 3513 2113 
z
" transform="scale(0.015625)"/>
      <path id="DejaVuSans-69" d="M 603 3500 
L 1178 3500 
L 1178 0 
L 603 0 
L 603 3500 
z
M 603 4863 
L 1178 4863 
L 1178 4134 
L 603 4134 
L 603 4863 
z
" transform="scale(0.015625)"/>
      <path id="DejaVuSans-67" d="M 2906 1791 
Q 2906 2416 2648 2759 
Q 2391 3103 1925 3103 
Q 1463 3103 1205 2759 
Q 947 2416 947 1791 
Q 947 1169 1205 825 
Q 1463 481 1925 481 
Q 2391 481 2648 825 
Q 2906 1169 2906 1791 
z
M 3481 434 
Q 3481 -459 3084 -895 
Q 2688 -1331 1869 -1331 
Q 1566 -1331 1297 -1286 
Q 1028 -1241 775 -1147 
L 775 -588 
Q 1028 -725 1275 -790 
Q 1522 -856 1778 -856 
Q 2344 -856 2625 -561 
Q 2906 -266 2906 331 
L 2906 616 
Q 2728 306 2450 153 
Q 2172 0 1784 0 
Q 1141 0 747 490 
Q 353 981 353 1791 
Q 353 2603 747 3093 
Q 1141 3584 1784 3584 
Q 2172 3584 2450 3431 
Q 2728 3278 2906 2969 
L 2906 3500 
L 3481 3500 
L 3481 434 
z
" transform="scale(0.015625)"/>
      <path id="DejaVuSans-3a" d="M 750 794 
L 1409 794 
L 1409 0 
L 750 0 
L 750 794 
z
M 750 3309 
L 1409 3309 
L 1409 2516 
L 750 2516 
L 750 3309 
z
" transform="scale(0.015625)"/>
      <path id="DejaVuSans-66" d="M 2375 4863 
L 2375 4384 
L 1825 4384 
Q 1516 4384 1395 4259 
Q 1275 4134 1275 3809 
L 1275 3500 
L 2222 3500 
L 2222 3053 
L 1275 3053 
L 1275 0 
L 697 0 
L 697 3053 
L 147 3053 
L 147 3500 
L 697 3500 
L 697 3744 
Q 697 4328 969 4595 
Q 1241 4863 1831 4863 
L 2375 4863 
z
" transform="scale(0.015625)"/>
      <path id="DejaVuSans-74" d="M 1172 4494 
L 1172 3500 
L 2356 3500 
L 2356 3053 
L 1172 3053 
L 1172 1153 
Q 1172 725 1289 603 
Q 1406 481 1766 481 
L 2356 481 
L 2356 0 
L 1766 0 
Q 1100 0 847 248 
Q 594 497 594 1153 
L 594 3053 
L 172 3053 
L 172 3500 
L 594 3500 
L 594 4494 
L 1172 4494 
z
" transform="scale(0.015625)"/>
      <path id="DejaVuSans-6c" d="M 603 4863 
L 1178 4863 
L 1178 0 
L 603 0 
L 603 4863 
z
" transform="scale(0.015625)"/>
      <path id="DejaVuSans-65" d="M 3597 1894 
L 3597 1613 
L 953 1613 
Q 991 1019 1311 708 
Q 1631 397 2203 397 
Q 2534 397 2845 478 
Q 3156 559 3463 722 
L 3463 178 
Q 3153 47 2828 -22 
Q 2503 -91 2169 -91 
Q 1331 -91 842 396 
Q 353 884 353 1716 
Q 353 2575 817 3079 
Q 1281 3584 2069 3584 
Q 2775 3584 3186 3129 
Q 3597 2675 3597 1894 
z
M 3022 2063 
Q 3016 2534 2758 2815 
Q 2500 3097 2075 3097 
Q 1594 3097 1305 2825 
Q 1016 2553 972 2059 
L 3022 2063 
z
" transform="scale(0.015625)"/>
      <path id="DejaVuSans-64" d="M 2906 2969 
L 2906 4863 
L 3481 4863 
L 3481 0 
L 2906 0 
L 2906 525 
Q 2725 213 2448 61 
Q 2172 -91 1784 -91 
Q 1150 -91 751 415 
Q 353 922 353 1747 
Q 353 2572 751 3078 
Q 1150 3584 1784 3584 
Q 2172 3584 2448 3432 
Q 2725 3281 2906 2969 
z
M 947 1747 
Q 947 1113 1208 752 
Q 1469 391 1925 391 
Q 2381 391 2643 752 
Q 2906 1113 2906 1747 
Q 2906 2381 2643 2742 
Q 2381 3103 1925 3103 
Q 1469 3103 1208 2742 
Q 947 2381 947 1747 
z
" transform="scale(0.015625)"/>
      <path id="DejaVuSans-2e" d="M 684 794 
L 1344 794 
L 1344 0 
L 684 0 
L 684 794 
z
" transform="scale(0.015625)"/>
      <path id="DejaVuSans-77" d="M 269 3500 
L 844 3500 
L 1563 769 
L 2278 3500 
L 2956 3500 
L 3675 769 
L 4391 3500 
L 4966 3500 
L 4050 0 
L 3372 0 
L 2619 2869 
L 1863 0 
L 1184 0 
L 269 3500 
z
" transform="scale(0.015625)"/>
      <path id="DejaVuSans-73" d="M 2834 3397 
L 2834 2853 
Q 2591 2978 2328 3040 
Q 2066 3103 1784 3103 
Q 1356 3103 1142 2972 
Q 928 2841 928 2578 
Q 928 2378 1081 2264 
Q 1234 2150 1697 2047 
L 1894 2003 
Q 2506 1872 2764 1633 
Q 3022 1394 3022 966 
Q 3022 478 2636 193 
Q 2250 -91 1575 -91 
Q 1294 -91 989 -36 
Q 684 19 347 128 
L 347 722 
Q 666 556 975 473 
Q 1284 391 1588 391 
Q 1994 391 2212 530 
Q 2431 669 2431 922 
Q 2431 1156 2273 1281 
Q 2116 1406 1581 1522 
L 1381 1569 
Q 847 1681 609 1914 
Q 372 2147 372 2553 
Q 372 3047 722 3315 
Q 1072 3584 1716 3584 
Q 2034 3584 2315 3537 
Q 2597 3491 2834 3397 
z
" transform="scale(0.015625)"/>
      <path id="DejaVuSans-6f" d="M 1959 3097 
Q 1497 3097 1228 2736 
Q 959 2375 959 1747 
Q 959 1119 1226 758 
Q 1494 397 1959 397 
Q 2419 397 2687 759 
Q 2956 1122 2956 1747 
Q 2956 2369 2687 2733 
Q 2419 3097 1959 3097 
z
M 1959 3584 
Q 2709 3584 3137 3096 
Q 3566 2609 3566 1747 
Q 3566 888 3137 398 
Q 2709 -91 1959 -91 
Q 1206 -91 779 398 
Q 353 888 353 1747 
Q 353 2609 779 3096 
Q 1206 3584 1959 3584 
z
" transform="scale(0.015625)"/>
     </defs>
     <use xlink:href="#DejaVuSans-57"/>
     <use xlink:href="#DejaVuSans-61" x="92.501953"/>
     <use xlink:href="#DejaVuSans-72" x="153.78125"/>
     <use xlink:href="#DejaVuSans-6e" x="193.144531"/>
     <use xlink:href="#DejaVuSans-69" x="256.523438"/>
     <use xlink:href="#DejaVuSans-6e" x="284.306641"/>
     <use xlink:href="#DejaVuSans-67" x="347.685547"/>
     <use xlink:href="#DejaVuSans-3a" x="411.162109"/>
     <use xlink:href="#DejaVuSans-20" x="444.853516"/>
     <use xlink:href="#DejaVuSans-66" x="476.640625"/>
     <use xlink:href="#DejaVuSans-69" x="511.845703"/>
     <use xlink:href="#DejaVuSans-74" x="539.628906"/>
     <use xlink:href="#DejaVuSans-20" x="578.837891"/>
     <use xlink:href="#DejaVuSans-66" x="610.625"/>
     <use xlink:href="#DejaVuSans-61" x="645.830078"/>
     <use xlink:href="#DejaVuSans-69" x="707.109375"/>
     <use xlink:href="#DejaVuSans-6c" x="734.892578"/>
     <use xlink:href="#DejaVuSans-65" x="762.675781"/>
     <use xlink:href="#DejaVuSans-64" x="824.199219"/>
     <use xlink:href="#DejaVuSans-2e" x="887.675781"/>
     <use xlink:href="#DejaVuSans-20" x="919.462891"/>
     <use xlink:href="#DejaVuSans-6c" x="951.25"/>
     <use xlink:href="#DejaVuSans-6d" x="979.033203"/>
     <use xlink:href="#DejaVuSans-66" x="1076.445312"/>
     <use xlink:href="#DejaVuSans-69" x="1111.650391"/>
     <use xlink:href="#DejaVuSans-74" x="1139.433594"/>
     <use xlink:href="#DejaVuSans-20" x="1178.642578"/>
     <use xlink:href="#DejaVuSans-77" x="1210.429688"/>
     <use xlink:href="#DejaVuSans-61" x="1292.216797"/>
     <use xlink:href="#DejaVuSans-73" x="1353.496094"/>
     <use xlink:href="#DejaVuSans-20" x="1405.595703"/>
     <use xlink:href="#DejaVuSans-6e" x="1437.382812"/>
     <use xlink:href="#DejaVuSans-6f" x="1500.761719"/>
     <use xlink:href="#DejaVuSans-74" x="1561.943359"/>
    </g>
    <!-- able to fit the data. -->
    <g transform="translate(425.571312 66.60425) scale(0.1 -0.1)">
     <defs>
      <path id="DejaVuSans-62" d="M 3116 1747 
Q 3116 2381 2855 2742 
Q 2594 3103 2138 3103 
Q 1681 3103 1420 2742 
Q 1159 2381 1159 1747 
Q 1159 1113 1420 752 
Q 1681 391 2138 391 
Q 2594 391 2855 752 
Q 3116 1113 3116 1747 
z
M 1159 2969 
Q 1341 3281 1617 3432 
Q 1894 3584 2278 3584 
Q 2916 3584 3314 3078 
Q 3713 2572 3713 1747 
Q 3713 922 3314 415 
Q 2916 -91 2278 -91 
Q 1894 -91 1617 61 
Q 1341 213 1159 525 
L 1159 0 
L 581 0 
L 581 4863 
L 1159 4863 
L 1159 2969 
z
" transform="scale(0.015625)"/>
      <path id="DejaVuSans-68" d="M 3513 2113 
L 3513 0 
L 2938 0 
L 2938 2094 
Q 2938 2591 2744 2837 
Q 2550 3084 2163 3084 
Q 1697 3084 1428 2787 
Q 1159 2491 1159 1978 
L 1159 0 
L 581 0 
L 581 4863 
L 1159 4863 
L 1159 2956 
Q 1366 3272 1645 3428 
Q 1925 3584 2291 3584 
Q 2894 3584 3203 3211 
Q 3513 2838 3513 2113 
z
" transform="scale(0.015625)"/>
     </defs>
     <use xlink:href="#DejaVuSans-61"/>
     <use xlink:href="#DejaVuSans-62" x="61.279297"/>
     <use xlink:href="#DejaVuSans-6c" x="124.755859"/>
     <use xlink:href="#DejaVuSans-65" x="152.539062"/>
     <use xlink:href="#DejaVuSans-20" x="214.0625"/>
     <use xlink:href="#DejaVuSans-74" x="245.849609"/>
     <use xlink:href="#DejaVuSans-6f" x="285.058594"/>
     <use xlink:href="#DejaVuSans-20" x="346.240234"/>
     <use xlink:href="#DejaVuSans-66" x="378.027344"/>
     <use xlink:href="#DejaVuSans-69" x="413.232422"/>
     <use xlink:href="#DejaVuSans-74" x="441.015625"/>
     <use xlink:href="#DejaVuSans-20" x="480.224609"/>
     <use xlink:href="#DejaVuSans-74" x="512.011719"/>
     <use xlink:href="#DejaVuSans-68" x="551.220703"/>
     <use xlink:href="#DejaVuSans-65" x="614.599609"/>
     <use xlink:href="#DejaVuSans-20" x="676.123047"/>
     <use xlink:href="#DejaVuSans-64" x="707.910156"/>
     <use xlink:href="#DejaVuSans-61" x="771.386719"/>
     <use xlink:href="#DejaVuSans-74" x="832.666016"/>
     <use xlink:href="#DejaVuSans-61" x="871.875"/>
     <use xlink:href="#DejaVuSans-2e" x="933.154297"/>
    </g>
   </g>
  </g>
  <g id="axes_2">
   <g id="patch_8">
    <path d="M 50.595313 307.872 
L 407.715312 307.872 
L 407.715312 186.912 
L 50.595313 186.912 
z
" style="fill: #ffffff"/>
   </g>
   <g id="matplotlib.axis_3">
    <g id="xtick_6">
     <g id="line2d_13">
      <g>
       <use xlink:href="#me39f4e85b6" x="104.163313" y="307.872" style="stroke: #000000; stroke-width: 0.8"/>
      </g>
     </g>
     <g id="text_8">
      <!-- -80 -->
      <g transform="translate(95.996906 322.470438) scale(0.1 -0.1)">
       <defs>
        <path id="DejaVuSans-2d" d="M 313 2009 
L 1997 2009 
L 1997 1497 
L 313 1497 
L 313 2009 
z
" transform="scale(0.015625)"/>
       </defs>
       <use xlink:href="#DejaVuSans-2d"/>
       <use xlink:href="#DejaVuSans-38" x="36.083984"/>
       <use xlink:href="#DejaVuSans-30" x="99.707031"/>
      </g>
     </g>
    </g>
    <g id="xtick_7">
     <g id="line2d_14">
      <g>
       <use xlink:href="#me39f4e85b6" x="169.094222" y="307.872" style="stroke: #000000; stroke-width: 0.8"/>
      </g>
     </g>
     <g id="text_9">
      <!-- -60 -->
      <g transform="translate(160.927815 322.470438) scale(0.1 -0.1)">
       <use xlink:href="#DejaVuSans-2d"/>
       <use xlink:href="#DejaVuSans-36" x="36.083984"/>
       <use xlink:href="#DejaVuSans-30" x="99.707031"/>
      </g>
     </g>
    </g>
    <g id="xtick_8">
     <g id="line2d_15">
      <g>
       <use xlink:href="#me39f4e85b6" x="234.025131" y="307.872" style="stroke: #000000; stroke-width: 0.8"/>
      </g>
     </g>
     <g id="text_10">
      <!-- -40 -->
      <g transform="translate(225.858724 322.470438) scale(0.1 -0.1)">
       <use xlink:href="#DejaVuSans-2d"/>
       <use xlink:href="#DejaVuSans-34" x="36.083984"/>
       <use xlink:href="#DejaVuSans-30" x="99.707031"/>
      </g>
     </g>
    </g>
    <g id="xtick_9">
     <g id="line2d_16">
      <g>
       <use xlink:href="#me39f4e85b6" x="298.95604" y="307.872" style="stroke: #000000; stroke-width: 0.8"/>
      </g>
     </g>
     <g id="text_11">
      <!-- -20 -->
      <g transform="translate(290.789634 322.470438) scale(0.1 -0.1)">
       <use xlink:href="#DejaVuSans-2d"/>
       <use xlink:href="#DejaVuSans-32" x="36.083984"/>
       <use xlink:href="#DejaVuSans-30" x="99.707031"/>
      </g>
     </g>
    </g>
    <g id="xtick_10">
     <g id="line2d_17">
      <g>
       <use xlink:href="#me39f4e85b6" x="363.886949" y="307.872" style="stroke: #000000; stroke-width: 0.8"/>
      </g>
     </g>
     <g id="text_12">
      <!-- 0 -->
      <g transform="translate(360.705699 322.470438) scale(0.1 -0.1)">
       <use xlink:href="#DejaVuSans-30"/>
      </g>
     </g>
    </g>
    <g id="text_13">
     <!-- Frequency [MHz] -->
     <g transform="translate(187.136562 336.148562) scale(0.1 -0.1)">
      <defs>
       <path id="DejaVuSans-46" d="M 628 4666 
L 3309 4666 
L 3309 4134 
L 1259 4134 
L 1259 2759 
L 3109 2759 
L 3109 2228 
L 1259 2228 
L 1259 0 
L 628 0 
L 628 4666 
z
" transform="scale(0.015625)"/>
       <path id="DejaVuSans-71" d="M 947 1747 
Q 947 1113 1208 752 
Q 1469 391 1925 391 
Q 2381 391 2643 752 
Q 2906 1113 2906 1747 
Q 2906 2381 2643 2742 
Q 2381 3103 1925 3103 
Q 1469 3103 1208 2742 
Q 947 2381 947 1747 
z
M 2906 525 
Q 2725 213 2448 61 
Q 2172 -91 1784 -91 
Q 1150 -91 751 415 
Q 353 922 353 1747 
Q 353 2572 751 3078 
Q 1150 3584 1784 3584 
Q 2172 3584 2448 3432 
Q 2725 3281 2906 2969 
L 2906 3500 
L 3481 3500 
L 3481 -1331 
L 2906 -1331 
L 2906 525 
z
" transform="scale(0.015625)"/>
       <path id="DejaVuSans-75" d="M 544 1381 
L 544 3500 
L 1119 3500 
L 1119 1403 
Q 1119 906 1312 657 
Q 1506 409 1894 409 
Q 2359 409 2629 706 
Q 2900 1003 2900 1516 
L 2900 3500 
L 3475 3500 
L 3475 0 
L 2900 0 
L 2900 538 
Q 2691 219 2414 64 
Q 2138 -91 1772 -91 
Q 1169 -91 856 284 
Q 544 659 544 1381 
z
M 1991 3584 
L 1991 3584 
z
" transform="scale(0.015625)"/>
       <path id="DejaVuSans-63" d="M 3122 3366 
L 3122 2828 
Q 2878 2963 2633 3030 
Q 2388 3097 2138 3097 
Q 1578 3097 1268 2742 
Q 959 2388 959 1747 
Q 959 1106 1268 751 
Q 1578 397 2138 397 
Q 2388 397 2633 464 
Q 2878 531 3122 666 
L 3122 134 
Q 2881 22 2623 -34 
Q 2366 -91 2075 -91 
Q 1284 -91 818 406 
Q 353 903 353 1747 
Q 353 2603 823 3093 
Q 1294 3584 2113 3584 
Q 2378 3584 2631 3529 
Q 2884 3475 3122 3366 
z
" transform="scale(0.015625)"/>
       <path id="DejaVuSans-79" d="M 2059 -325 
Q 1816 -950 1584 -1140 
Q 1353 -1331 966 -1331 
L 506 -1331 
L 506 -850 
L 844 -850 
Q 1081 -850 1212 -737 
Q 1344 -625 1503 -206 
L 1606 56 
L 191 3500 
L 800 3500 
L 1894 763 
L 2988 3500 
L 3597 3500 
L 2059 -325 
z
" transform="scale(0.015625)"/>
       <path id="DejaVuSans-4d" d="M 628 4666 
L 1569 4666 
L 2759 1491 
L 3956 4666 
L 4897 4666 
L 4897 0 
L 4281 0 
L 4281 4097 
L 3078 897 
L 2444 897 
L 1241 4097 
L 1241 0 
L 628 0 
L 628 4666 
z
" transform="scale(0.015625)"/>
       <path id="DejaVuSans-48" d="M 628 4666 
L 1259 4666 
L 1259 2753 
L 3553 2753 
L 3553 4666 
L 4184 4666 
L 4184 0 
L 3553 0 
L 3553 2222 
L 1259 2222 
L 1259 0 
L 628 0 
L 628 4666 
z
" transform="scale(0.015625)"/>
       <path id="DejaVuSans-7a" d="M 353 3500 
L 3084 3500 
L 3084 2975 
L 922 459 
L 3084 459 
L 3084 0 
L 275 0 
L 275 525 
L 2438 3041 
L 353 3041 
L 353 3500 
z
" transform="scale(0.015625)"/>
      </defs>
      <use xlink:href="#DejaVuSans-46"/>
      <use xlink:href="#DejaVuSans-72" x="50.269531"/>
      <use xlink:href="#DejaVuSans-65" x="89.132812"/>
      <use xlink:href="#DejaVuSans-71" x="150.65625"/>
      <use xlink:href="#DejaVuSans-75" x="214.132812"/>
      <use xlink:href="#DejaVuSans-65" x="277.511719"/>
      <use xlink:href="#DejaVuSans-6e" x="339.035156"/>
      <use xlink:href="#DejaVuSans-63" x="402.414062"/>
      <use xlink:href="#DejaVuSans-79" x="457.394531"/>
      <use xlink:href="#DejaVuSans-20" x="516.574219"/>
      <use xlink:href="#DejaVuSans-5b" x="548.361328"/>
      <use xlink:href="#DejaVuSans-4d" x="587.375"/>
      <use xlink:href="#DejaVuSans-48" x="673.654297"/>
      <use xlink:href="#DejaVuSans-7a" x="748.849609"/>
      <use xlink:href="#DejaVuSans-5d" x="801.339844"/>
     </g>
    </g>
    <g id="text_14">
     <!-- +6 GHz -->
     <g transform="translate(369.277812 335.148562) scale(0.1 -0.1)">
      <defs>
       <path id="DejaVuSans-2b" d="M 2944 4013 
L 2944 2272 
L 4684 2272 
L 4684 1741 
L 2944 1741 
L 2944 0 
L 2419 0 
L 2419 1741 
L 678 1741 
L 678 2272 
L 2419 2272 
L 2419 4013 
L 2944 4013 
z
" transform="scale(0.015625)"/>
       <path id="DejaVuSans-47" d="M 3809 666 
L 3809 1919 
L 2778 1919 
L 2778 2438 
L 4434 2438 
L 4434 434 
Q 4069 175 3628 42 
Q 3188 -91 2688 -91 
Q 1594 -91 976 548 
Q 359 1188 359 2328 
Q 359 3472 976 4111 
Q 1594 4750 2688 4750 
Q 3144 4750 3555 4637 
Q 3966 4525 4313 4306 
L 4313 3634 
Q 3963 3931 3569 4081 
Q 3175 4231 2741 4231 
Q 1884 4231 1454 3753 
Q 1025 3275 1025 2328 
Q 1025 1384 1454 906 
Q 1884 428 2741 428 
Q 3075 428 3337 486 
Q 3600 544 3809 666 
z
" transform="scale(0.015625)"/>
      </defs>
      <use xlink:href="#DejaVuSans-2b"/>
      <use xlink:href="#DejaVuSans-36" x="83.789062"/>
      <use xlink:href="#DejaVuSans-20" x="147.412109"/>
      <use xlink:href="#DejaVuSans-47" x="179.199219"/>
      <use xlink:href="#DejaVuSans-48" x="256.689453"/>
      <use xlink:href="#DejaVuSans-7a" x="331.884766"/>
     </g>
    </g>
   </g>
   <g id="matplotlib.axis_4">
    <g id="ytick_6">
     <g id="line2d_18">
      <g>
       <use xlink:href="#mdd64ad045c" x="50.595313" y="277.951122" style="stroke: #000000; stroke-width: 0.8"/>
      </g>
     </g>
     <g id="text_15">
      <!-- -100 -->
      <g transform="translate(20.9 281.750341) scale(0.1 -0.1)">
       <use xlink:href="#DejaVuSans-2d"/>
       <use xlink:href="#DejaVuSans-31" x="36.083984"/>
       <use xlink:href="#DejaVuSans-30" x="99.707031"/>
       <use xlink:href="#DejaVuSans-30" x="163.330078"/>
      </g>
     </g>
    </g>
    <g id="ytick_7">
     <g id="line2d_19">
      <g>
       <use xlink:href="#mdd64ad045c" x="50.595313" y="247.378991" style="stroke: #000000; stroke-width: 0.8"/>
      </g>
     </g>
     <g id="text_16">
      <!-- 0 -->
      <g transform="translate(37.232813 251.17821) scale(0.1 -0.1)">
       <use xlink:href="#DejaVuSans-30"/>
      </g>
     </g>
    </g>
    <g id="ytick_8">
     <g id="line2d_20">
      <g>
       <use xlink:href="#mdd64ad045c" x="50.595313" y="216.80686" style="stroke: #000000; stroke-width: 0.8"/>
      </g>
     </g>
     <g id="text_17">
      <!-- 100 -->
      <g transform="translate(24.507813 220.606079) scale(0.1 -0.1)">
       <use xlink:href="#DejaVuSans-31"/>
       <use xlink:href="#DejaVuSans-30" x="63.623047"/>
       <use xlink:href="#DejaVuSans-30" x="127.246094"/>
      </g>
     </g>
    </g>
    <g id="text_18">
     <!-- $\angle S_{21}$ [deg] -->
     <g transform="translate(14.8 274.592) rotate(-90) scale(0.1 -0.1)">
      <defs>
       <path id="DejaVuSans-2220" d="M 5028 631 
L 5028 0 
L 547 0 
L 3525 4666 
L 4281 4666 
L 1716 631 
L 5028 631 
z
" transform="scale(0.015625)"/>
      </defs>
      <use xlink:href="#DejaVuSans-2220" transform="translate(0 0.015625)"/>
      <use xlink:href="#DejaVuSans-Oblique-53" transform="translate(89.648438 0.015625)"/>
      <use xlink:href="#DejaVuSans-32" transform="translate(153.125 -16.390625) scale(0.7)"/>
      <use xlink:href="#DejaVuSans-31" transform="translate(197.661133 -16.390625) scale(0.7)"/>
      <use xlink:href="#DejaVuSans-20" transform="translate(244.931641 0.015625)"/>
      <use xlink:href="#DejaVuSans-5b" transform="translate(276.71875 0.015625)"/>
      <use xlink:href="#DejaVuSans-64" transform="translate(315.732422 0.015625)"/>
      <use xlink:href="#DejaVuSans-65" transform="translate(379.208984 0.015625)"/>
      <use xlink:href="#DejaVuSans-67" transform="translate(440.732422 0.015625)"/>
      <use xlink:href="#DejaVuSans-5d" transform="translate(504.208984 0.015625)"/>
     </g>
    </g>
   </g>
   <g id="line2d_21">
    <path d="M 66.82804 277.347894 
L 71.722329 279.817686 
L 76.616619 283.546678 
L 78.248049 285.715309 
L 79.879479 289.002394 
L 81.510909 293.98265 
L 83.142339 295.922476 
L 84.773768 277.520067 
L 86.405198 275.383311 
L 88.036628 276.963769 
L 89.668058 278.221755 
L 91.299488 279.781973 
L 92.930918 280.565642 
L 94.562348 281.701826 
L 96.193778 282.328153 
L 97.825207 283.087153 
L 99.456637 283.998079 
L 101.088067 284.340193 
L 102.719497 285.610083 
L 104.350927 285.899091 
L 107.613787 287.312604 
L 109.245217 287.757933 
L 112.508076 289.244444 
L 114.139506 289.544047 
L 115.770936 290.507849 
L 117.402366 291.143707 
L 120.665226 292.12284 
L 122.296656 292.887979 
L 125.559515 293.934297 
L 127.190945 294.700191 
L 135.348095 297.893802 
L 140.242384 299.834418 
L 141.873814 300.287422 
L 143.505244 301.051676 
L 145.136674 301.537958 
L 146.768104 302.338022 
L 148.399534 192.922382 
L 150.030963 193.619943 
L 153.293823 194.697354 
L 154.925253 195.374994 
L 156.556683 195.793315 
L 158.188113 196.588381 
L 161.450973 197.733555 
L 164.713832 198.933917 
L 169.608122 200.711459 
L 171.239552 201.189794 
L 172.870982 202.098382 
L 177.765271 203.591986 
L 179.396701 204.431941 
L 181.028131 204.894056 
L 184.290991 206.045831 
L 185.922421 206.601111 
L 187.553851 206.998827 
L 190.81671 208.551343 
L 200.60529 211.942285 
L 202.23672 212.618784 
L 205.499579 213.706035 
L 207.131009 214.502948 
L 208.762439 214.911162 
L 215.288159 217.320573 
L 216.919588 217.955753 
L 220.182448 218.909794 
L 225.076738 220.678085 
L 226.708168 221.323492 
L 228.339598 221.764771 
L 229.971027 212.464635 
L 233.233887 213.556324 
L 234.865317 214.471776 
L 236.496747 214.93203 
L 241.391037 216.869825 
L 244.653896 218.356712 
L 251.179616 221.059356 
L 252.811046 221.802343 
L 254.442476 222.258156 
L 259.336765 224.613154 
L 260.968195 225.012216 
L 278.913924 232.359041 
L 280.545354 233.10779 
L 283.808213 234.310281 
L 287.071073 235.766954 
L 288.702503 236.269105 
L 290.333933 237.127249 
L 291.965363 237.703635 
L 295.228223 239.067848 
L 296.859652 239.443472 
L 298.491082 240.287683 
L 313.173951 246.401626 
L 314.805381 246.879484 
L 321.331101 249.756268 
L 322.96253 250.308374 
L 334.38254 254.982159 
L 336.013969 255.574088 
L 337.645399 256.299277 
L 342.539689 257.893948 
L 350.696838 261.654469 
L 352.328268 262.132691 
L 353.959698 262.760146 
L 355.591128 263.536648 
L 358.853988 264.77698 
L 360.485418 265.607393 
L 362.116847 266.565687 
L 365.379707 267.806756 
L 367.011137 268.717606 
L 370.273997 270.184567 
L 371.905427 271.15153 
L 373.536857 271.947957 
L 378.431146 275.097784 
L 381.694006 277.998952 
L 383.325436 279.788987 
L 384.956866 282.457333 
L 386.588296 285.54939 
L 388.219725 290.224027 
L 389.851155 288.418334 
L 391.482585 264.262201 
L 391.482585 264.262201 
" clip-path="url(#pf4e01ccaf6)" style="fill: none; stroke: #1f77b4; stroke-width: 1.5; stroke-linecap: square"/>
    <g clip-path="url(#pf4e01ccaf6)">
     <use xlink:href="#m69eb7c219c" x="66.82804" y="277.347894" style="fill: #1f77b4; stroke: #1f77b4"/>
     <use xlink:href="#m69eb7c219c" x="68.45947" y="278.168341" style="fill: #1f77b4; stroke: #1f77b4"/>
     <use xlink:href="#m69eb7c219c" x="70.0909" y="279.02908" style="fill: #1f77b4; stroke: #1f77b4"/>
     <use xlink:href="#m69eb7c219c" x="71.722329" y="279.817686" style="fill: #1f77b4; stroke: #1f77b4"/>
     <use xlink:href="#m69eb7c219c" x="73.353759" y="281.092983" style="fill: #1f77b4; stroke: #1f77b4"/>
     <use xlink:href="#m69eb7c219c" x="74.985189" y="282.24216" style="fill: #1f77b4; stroke: #1f77b4"/>
     <use xlink:href="#m69eb7c219c" x="76.616619" y="283.546678" style="fill: #1f77b4; stroke: #1f77b4"/>
     <use xlink:href="#m69eb7c219c" x="78.248049" y="285.715309" style="fill: #1f77b4; stroke: #1f77b4"/>
     <use xlink:href="#m69eb7c219c" x="79.879479" y="289.002394" style="fill: #1f77b4; stroke: #1f77b4"/>
     <use xlink:href="#m69eb7c219c" x="81.510909" y="293.98265" style="fill: #1f77b4; stroke: #1f77b4"/>
     <use xlink:href="#m69eb7c219c" x="83.142339" y="295.922476" style="fill: #1f77b4; stroke: #1f77b4"/>
     <use xlink:href="#m69eb7c219c" x="84.773768" y="277.520067" style="fill: #1f77b4; stroke: #1f77b4"/>
     <use xlink:href="#m69eb7c219c" x="86.405198" y="275.383311" style="fill: #1f77b4; stroke: #1f77b4"/>
     <use xlink:href="#m69eb7c219c" x="88.036628" y="276.963769" style="fill: #1f77b4; stroke: #1f77b4"/>
     <use xlink:href="#m69eb7c219c" x="89.668058" y="278.221755" style="fill: #1f77b4; stroke: #1f77b4"/>
     <use xlink:href="#m69eb7c219c" x="91.299488" y="279.781973" style="fill: #1f77b4; stroke: #1f77b4"/>
     <use xlink:href="#m69eb7c219c" x="92.930918" y="280.565642" style="fill: #1f77b4; stroke: #1f77b4"/>
     <use xlink:href="#m69eb7c219c" x="94.562348" y="281.701826" style="fill: #1f77b4; stroke: #1f77b4"/>
     <use xlink:href="#m69eb7c219c" x="96.193778" y="282.328153" style="fill: #1f77b4; stroke: #1f77b4"/>
     <use xlink:href="#m69eb7c219c" x="97.825207" y="283.087153" style="fill: #1f77b4; stroke: #1f77b4"/>
     <use xlink:href="#m69eb7c219c" x="99.456637" y="283.998079" style="fill: #1f77b4; stroke: #1f77b4"/>
     <use xlink:href="#m69eb7c219c" x="101.088067" y="284.340193" style="fill: #1f77b4; stroke: #1f77b4"/>
     <use xlink:href="#m69eb7c219c" x="102.719497" y="285.610083" style="fill: #1f77b4; stroke: #1f77b4"/>
     <use xlink:href="#m69eb7c219c" x="104.350927" y="285.899091" style="fill: #1f77b4; stroke: #1f77b4"/>
     <use xlink:href="#m69eb7c219c" x="105.982357" y="286.651708" style="fill: #1f77b4; stroke: #1f77b4"/>
     <use xlink:href="#m69eb7c219c" x="107.613787" y="287.312604" style="fill: #1f77b4; stroke: #1f77b4"/>
     <use xlink:href="#m69eb7c219c" x="109.245217" y="287.757933" style="fill: #1f77b4; stroke: #1f77b4"/>
     <use xlink:href="#m69eb7c219c" x="110.876646" y="288.480096" style="fill: #1f77b4; stroke: #1f77b4"/>
     <use xlink:href="#m69eb7c219c" x="112.508076" y="289.244444" style="fill: #1f77b4; stroke: #1f77b4"/>
     <use xlink:href="#m69eb7c219c" x="114.139506" y="289.544047" style="fill: #1f77b4; stroke: #1f77b4"/>
     <use xlink:href="#m69eb7c219c" x="115.770936" y="290.507849" style="fill: #1f77b4; stroke: #1f77b4"/>
     <use xlink:href="#m69eb7c219c" x="117.402366" y="291.143707" style="fill: #1f77b4; stroke: #1f77b4"/>
     <use xlink:href="#m69eb7c219c" x="119.033796" y="291.651645" style="fill: #1f77b4; stroke: #1f77b4"/>
     <use xlink:href="#m69eb7c219c" x="120.665226" y="292.12284" style="fill: #1f77b4; stroke: #1f77b4"/>
     <use xlink:href="#m69eb7c219c" x="122.296656" y="292.887979" style="fill: #1f77b4; stroke: #1f77b4"/>
     <use xlink:href="#m69eb7c219c" x="123.928085" y="293.433876" style="fill: #1f77b4; stroke: #1f77b4"/>
     <use xlink:href="#m69eb7c219c" x="125.559515" y="293.934297" style="fill: #1f77b4; stroke: #1f77b4"/>
     <use xlink:href="#m69eb7c219c" x="127.190945" y="294.700191" style="fill: #1f77b4; stroke: #1f77b4"/>
     <use xlink:href="#m69eb7c219c" x="128.822375" y="295.316981" style="fill: #1f77b4; stroke: #1f77b4"/>
     <use xlink:href="#m69eb7c219c" x="130.453805" y="295.962893" style="fill: #1f77b4; stroke: #1f77b4"/>
     <use xlink:href="#m69eb7c219c" x="132.085235" y="296.501628" style="fill: #1f77b4; stroke: #1f77b4"/>
     <use xlink:href="#m69eb7c219c" x="133.716665" y="297.247276" style="fill: #1f77b4; stroke: #1f77b4"/>
     <use xlink:href="#m69eb7c219c" x="135.348095" y="297.893802" style="fill: #1f77b4; stroke: #1f77b4"/>
     <use xlink:href="#m69eb7c219c" x="136.979524" y="298.559389" style="fill: #1f77b4; stroke: #1f77b4"/>
     <use xlink:href="#m69eb7c219c" x="138.610954" y="299.260902" style="fill: #1f77b4; stroke: #1f77b4"/>
     <use xlink:href="#m69eb7c219c" x="140.242384" y="299.834418" style="fill: #1f77b4; stroke: #1f77b4"/>
     <use xlink:href="#m69eb7c219c" x="141.873814" y="300.287422" style="fill: #1f77b4; stroke: #1f77b4"/>
     <use xlink:href="#m69eb7c219c" x="143.505244" y="301.051676" style="fill: #1f77b4; stroke: #1f77b4"/>
     <use xlink:href="#m69eb7c219c" x="145.136674" y="301.537958" style="fill: #1f77b4; stroke: #1f77b4"/>
     <use xlink:href="#m69eb7c219c" x="146.768104" y="302.338022" style="fill: #1f77b4; stroke: #1f77b4"/>
     <use xlink:href="#m69eb7c219c" x="148.399534" y="192.922382" style="fill: #1f77b4; stroke: #1f77b4"/>
     <use xlink:href="#m69eb7c219c" x="150.030963" y="193.619943" style="fill: #1f77b4; stroke: #1f77b4"/>
     <use xlink:href="#m69eb7c219c" x="151.662393" y="194.125943" style="fill: #1f77b4; stroke: #1f77b4"/>
     <use xlink:href="#m69eb7c219c" x="153.293823" y="194.697354" style="fill: #1f77b4; stroke: #1f77b4"/>
     <use xlink:href="#m69eb7c219c" x="154.925253" y="195.374994" style="fill: #1f77b4; stroke: #1f77b4"/>
     <use xlink:href="#m69eb7c219c" x="156.556683" y="195.793315" style="fill: #1f77b4; stroke: #1f77b4"/>
     <use xlink:href="#m69eb7c219c" x="158.188113" y="196.588381" style="fill: #1f77b4; stroke: #1f77b4"/>
     <use xlink:href="#m69eb7c219c" x="159.819543" y="197.114013" style="fill: #1f77b4; stroke: #1f77b4"/>
     <use xlink:href="#m69eb7c219c" x="161.450973" y="197.733555" style="fill: #1f77b4; stroke: #1f77b4"/>
     <use xlink:href="#m69eb7c219c" x="163.082402" y="198.29769" style="fill: #1f77b4; stroke: #1f77b4"/>
     <use xlink:href="#m69eb7c219c" x="164.713832" y="198.933917" style="fill: #1f77b4; stroke: #1f77b4"/>
     <use xlink:href="#m69eb7c219c" x="166.345262" y="199.559324" style="fill: #1f77b4; stroke: #1f77b4"/>
     <use xlink:href="#m69eb7c219c" x="167.976692" y="200.129027" style="fill: #1f77b4; stroke: #1f77b4"/>
     <use xlink:href="#m69eb7c219c" x="169.608122" y="200.711459" style="fill: #1f77b4; stroke: #1f77b4"/>
     <use xlink:href="#m69eb7c219c" x="171.239552" y="201.189794" style="fill: #1f77b4; stroke: #1f77b4"/>
     <use xlink:href="#m69eb7c219c" x="172.870982" y="202.098382" style="fill: #1f77b4; stroke: #1f77b4"/>
     <use xlink:href="#m69eb7c219c" x="174.502412" y="202.594154" style="fill: #1f77b4; stroke: #1f77b4"/>
     <use xlink:href="#m69eb7c219c" x="176.133842" y="203.122532" style="fill: #1f77b4; stroke: #1f77b4"/>
     <use xlink:href="#m69eb7c219c" x="177.765271" y="203.591986" style="fill: #1f77b4; stroke: #1f77b4"/>
     <use xlink:href="#m69eb7c219c" x="179.396701" y="204.431941" style="fill: #1f77b4; stroke: #1f77b4"/>
     <use xlink:href="#m69eb7c219c" x="181.028131" y="204.894056" style="fill: #1f77b4; stroke: #1f77b4"/>
     <use xlink:href="#m69eb7c219c" x="182.659561" y="205.517367" style="fill: #1f77b4; stroke: #1f77b4"/>
     <use xlink:href="#m69eb7c219c" x="184.290991" y="206.045831" style="fill: #1f77b4; stroke: #1f77b4"/>
     <use xlink:href="#m69eb7c219c" x="185.922421" y="206.601111" style="fill: #1f77b4; stroke: #1f77b4"/>
     <use xlink:href="#m69eb7c219c" x="187.553851" y="206.998827" style="fill: #1f77b4; stroke: #1f77b4"/>
     <use xlink:href="#m69eb7c219c" x="189.185281" y="207.778878" style="fill: #1f77b4; stroke: #1f77b4"/>
     <use xlink:href="#m69eb7c219c" x="190.81671" y="208.551343" style="fill: #1f77b4; stroke: #1f77b4"/>
     <use xlink:href="#m69eb7c219c" x="192.44814" y="209.109276" style="fill: #1f77b4; stroke: #1f77b4"/>
     <use xlink:href="#m69eb7c219c" x="194.07957" y="209.600336" style="fill: #1f77b4; stroke: #1f77b4"/>
     <use xlink:href="#m69eb7c219c" x="195.711" y="210.138552" style="fill: #1f77b4; stroke: #1f77b4"/>
     <use xlink:href="#m69eb7c219c" x="197.34243" y="210.808128" style="fill: #1f77b4; stroke: #1f77b4"/>
     <use xlink:href="#m69eb7c219c" x="198.97386" y="211.431043" style="fill: #1f77b4; stroke: #1f77b4"/>
     <use xlink:href="#m69eb7c219c" x="200.60529" y="211.942285" style="fill: #1f77b4; stroke: #1f77b4"/>
     <use xlink:href="#m69eb7c219c" x="202.23672" y="212.618784" style="fill: #1f77b4; stroke: #1f77b4"/>
     <use xlink:href="#m69eb7c219c" x="203.868149" y="213.169324" style="fill: #1f77b4; stroke: #1f77b4"/>
     <use xlink:href="#m69eb7c219c" x="205.499579" y="213.706035" style="fill: #1f77b4; stroke: #1f77b4"/>
     <use xlink:href="#m69eb7c219c" x="207.131009" y="214.502948" style="fill: #1f77b4; stroke: #1f77b4"/>
     <use xlink:href="#m69eb7c219c" x="208.762439" y="214.911162" style="fill: #1f77b4; stroke: #1f77b4"/>
     <use xlink:href="#m69eb7c219c" x="210.393869" y="215.491671" style="fill: #1f77b4; stroke: #1f77b4"/>
     <use xlink:href="#m69eb7c219c" x="212.025299" y="216.159211" style="fill: #1f77b4; stroke: #1f77b4"/>
     <use xlink:href="#m69eb7c219c" x="213.656729" y="216.574645" style="fill: #1f77b4; stroke: #1f77b4"/>
     <use xlink:href="#m69eb7c219c" x="215.288159" y="217.320573" style="fill: #1f77b4; stroke: #1f77b4"/>
     <use xlink:href="#m69eb7c219c" x="216.919588" y="217.955753" style="fill: #1f77b4; stroke: #1f77b4"/>
     <use xlink:href="#m69eb7c219c" x="218.551018" y="218.400612" style="fill: #1f77b4; stroke: #1f77b4"/>
     <use xlink:href="#m69eb7c219c" x="220.182448" y="218.909794" style="fill: #1f77b4; stroke: #1f77b4"/>
     <use xlink:href="#m69eb7c219c" x="221.813878" y="219.475371" style="fill: #1f77b4; stroke: #1f77b4"/>
     <use xlink:href="#m69eb7c219c" x="223.445308" y="220.039869" style="fill: #1f77b4; stroke: #1f77b4"/>
     <use xlink:href="#m69eb7c219c" x="225.076738" y="220.678085" style="fill: #1f77b4; stroke: #1f77b4"/>
     <use xlink:href="#m69eb7c219c" x="226.708168" y="221.323492" style="fill: #1f77b4; stroke: #1f77b4"/>
     <use xlink:href="#m69eb7c219c" x="228.339598" y="221.764771" style="fill: #1f77b4; stroke: #1f77b4"/>
     <use xlink:href="#m69eb7c219c" x="229.971027" y="212.464635" style="fill: #1f77b4; stroke: #1f77b4"/>
     <use xlink:href="#m69eb7c219c" x="231.602457" y="213.019178" style="fill: #1f77b4; stroke: #1f77b4"/>
     <use xlink:href="#m69eb7c219c" x="233.233887" y="213.556324" style="fill: #1f77b4; stroke: #1f77b4"/>
     <use xlink:href="#m69eb7c219c" x="234.865317" y="214.471776" style="fill: #1f77b4; stroke: #1f77b4"/>
     <use xlink:href="#m69eb7c219c" x="236.496747" y="214.93203" style="fill: #1f77b4; stroke: #1f77b4"/>
     <use xlink:href="#m69eb7c219c" x="238.128177" y="215.558701" style="fill: #1f77b4; stroke: #1f77b4"/>
     <use xlink:href="#m69eb7c219c" x="239.759607" y="216.230712" style="fill: #1f77b4; stroke: #1f77b4"/>
     <use xlink:href="#m69eb7c219c" x="241.391037" y="216.869825" style="fill: #1f77b4; stroke: #1f77b4"/>
     <use xlink:href="#m69eb7c219c" x="243.022466" y="217.634722" style="fill: #1f77b4; stroke: #1f77b4"/>
     <use xlink:href="#m69eb7c219c" x="244.653896" y="218.356712" style="fill: #1f77b4; stroke: #1f77b4"/>
     <use xlink:href="#m69eb7c219c" x="246.285326" y="219.003493" style="fill: #1f77b4; stroke: #1f77b4"/>
     <use xlink:href="#m69eb7c219c" x="247.916756" y="219.650504" style="fill: #1f77b4; stroke: #1f77b4"/>
     <use xlink:href="#m69eb7c219c" x="249.548186" y="220.29239" style="fill: #1f77b4; stroke: #1f77b4"/>
     <use xlink:href="#m69eb7c219c" x="251.179616" y="221.059356" style="fill: #1f77b4; stroke: #1f77b4"/>
     <use xlink:href="#m69eb7c219c" x="252.811046" y="221.802343" style="fill: #1f77b4; stroke: #1f77b4"/>
     <use xlink:href="#m69eb7c219c" x="254.442476" y="222.258156" style="fill: #1f77b4; stroke: #1f77b4"/>
     <use xlink:href="#m69eb7c219c" x="256.073905" y="223.02617" style="fill: #1f77b4; stroke: #1f77b4"/>
     <use xlink:href="#m69eb7c219c" x="257.705335" y="223.697911" style="fill: #1f77b4; stroke: #1f77b4"/>
     <use xlink:href="#m69eb7c219c" x="259.336765" y="224.613154" style="fill: #1f77b4; stroke: #1f77b4"/>
     <use xlink:href="#m69eb7c219c" x="260.968195" y="225.012216" style="fill: #1f77b4; stroke: #1f77b4"/>
     <use xlink:href="#m69eb7c219c" x="262.599625" y="225.676136" style="fill: #1f77b4; stroke: #1f77b4"/>
     <use xlink:href="#m69eb7c219c" x="264.231055" y="226.264065" style="fill: #1f77b4; stroke: #1f77b4"/>
     <use xlink:href="#m69eb7c219c" x="265.862485" y="226.988936" style="fill: #1f77b4; stroke: #1f77b4"/>
     <use xlink:href="#m69eb7c219c" x="267.493915" y="227.731802" style="fill: #1f77b4; stroke: #1f77b4"/>
     <use xlink:href="#m69eb7c219c" x="269.125344" y="228.426131" style="fill: #1f77b4; stroke: #1f77b4"/>
     <use xlink:href="#m69eb7c219c" x="270.756774" y="229.076395" style="fill: #1f77b4; stroke: #1f77b4"/>
     <use xlink:href="#m69eb7c219c" x="272.388204" y="229.587433" style="fill: #1f77b4; stroke: #1f77b4"/>
     <use xlink:href="#m69eb7c219c" x="274.019634" y="230.22174" style="fill: #1f77b4; stroke: #1f77b4"/>
     <use xlink:href="#m69eb7c219c" x="275.651064" y="230.949842" style="fill: #1f77b4; stroke: #1f77b4"/>
     <use xlink:href="#m69eb7c219c" x="277.282494" y="231.556787" style="fill: #1f77b4; stroke: #1f77b4"/>
     <use xlink:href="#m69eb7c219c" x="278.913924" y="232.359041" style="fill: #1f77b4; stroke: #1f77b4"/>
     <use xlink:href="#m69eb7c219c" x="280.545354" y="233.10779" style="fill: #1f77b4; stroke: #1f77b4"/>
     <use xlink:href="#m69eb7c219c" x="282.176783" y="233.658397" style="fill: #1f77b4; stroke: #1f77b4"/>
     <use xlink:href="#m69eb7c219c" x="283.808213" y="234.310281" style="fill: #1f77b4; stroke: #1f77b4"/>
     <use xlink:href="#m69eb7c219c" x="285.439643" y="235.004103" style="fill: #1f77b4; stroke: #1f77b4"/>
     <use xlink:href="#m69eb7c219c" x="287.071073" y="235.766954" style="fill: #1f77b4; stroke: #1f77b4"/>
     <use xlink:href="#m69eb7c219c" x="288.702503" y="236.269105" style="fill: #1f77b4; stroke: #1f77b4"/>
     <use xlink:href="#m69eb7c219c" x="290.333933" y="237.127249" style="fill: #1f77b4; stroke: #1f77b4"/>
     <use xlink:href="#m69eb7c219c" x="291.965363" y="237.703635" style="fill: #1f77b4; stroke: #1f77b4"/>
     <use xlink:href="#m69eb7c219c" x="293.596793" y="238.410423" style="fill: #1f77b4; stroke: #1f77b4"/>
     <use xlink:href="#m69eb7c219c" x="295.228223" y="239.067848" style="fill: #1f77b4; stroke: #1f77b4"/>
     <use xlink:href="#m69eb7c219c" x="296.859652" y="239.443472" style="fill: #1f77b4; stroke: #1f77b4"/>
     <use xlink:href="#m69eb7c219c" x="298.491082" y="240.287683" style="fill: #1f77b4; stroke: #1f77b4"/>
     <use xlink:href="#m69eb7c219c" x="300.122512" y="240.967821" style="fill: #1f77b4; stroke: #1f77b4"/>
     <use xlink:href="#m69eb7c219c" x="301.753942" y="241.621982" style="fill: #1f77b4; stroke: #1f77b4"/>
     <use xlink:href="#m69eb7c219c" x="303.385372" y="242.376115" style="fill: #1f77b4; stroke: #1f77b4"/>
     <use xlink:href="#m69eb7c219c" x="305.016802" y="243.035828" style="fill: #1f77b4; stroke: #1f77b4"/>
     <use xlink:href="#m69eb7c219c" x="306.648232" y="243.788466" style="fill: #1f77b4; stroke: #1f77b4"/>
     <use xlink:href="#m69eb7c219c" x="308.279662" y="244.41743" style="fill: #1f77b4; stroke: #1f77b4"/>
     <use xlink:href="#m69eb7c219c" x="309.911091" y="245.167747" style="fill: #1f77b4; stroke: #1f77b4"/>
     <use xlink:href="#m69eb7c219c" x="311.542521" y="245.644911" style="fill: #1f77b4; stroke: #1f77b4"/>
     <use xlink:href="#m69eb7c219c" x="313.173951" y="246.401626" style="fill: #1f77b4; stroke: #1f77b4"/>
     <use xlink:href="#m69eb7c219c" x="314.805381" y="246.879484" style="fill: #1f77b4; stroke: #1f77b4"/>
     <use xlink:href="#m69eb7c219c" x="316.436811" y="247.624354" style="fill: #1f77b4; stroke: #1f77b4"/>
     <use xlink:href="#m69eb7c219c" x="318.068241" y="248.346579" style="fill: #1f77b4; stroke: #1f77b4"/>
     <use xlink:href="#m69eb7c219c" x="319.699671" y="249.131801" style="fill: #1f77b4; stroke: #1f77b4"/>
     <use xlink:href="#m69eb7c219c" x="321.331101" y="249.756268" style="fill: #1f77b4; stroke: #1f77b4"/>
     <use xlink:href="#m69eb7c219c" x="322.96253" y="250.308374" style="fill: #1f77b4; stroke: #1f77b4"/>
     <use xlink:href="#m69eb7c219c" x="324.59396" y="250.983752" style="fill: #1f77b4; stroke: #1f77b4"/>
     <use xlink:href="#m69eb7c219c" x="326.22539" y="251.61769" style="fill: #1f77b4; stroke: #1f77b4"/>
     <use xlink:href="#m69eb7c219c" x="327.85682" y="252.271842" style="fill: #1f77b4; stroke: #1f77b4"/>
     <use xlink:href="#m69eb7c219c" x="329.48825" y="252.909974" style="fill: #1f77b4; stroke: #1f77b4"/>
     <use xlink:href="#m69eb7c219c" x="331.11968" y="253.65898" style="fill: #1f77b4; stroke: #1f77b4"/>
     <use xlink:href="#m69eb7c219c" x="332.75111" y="254.399679" style="fill: #1f77b4; stroke: #1f77b4"/>
     <use xlink:href="#m69eb7c219c" x="334.38254" y="254.982159" style="fill: #1f77b4; stroke: #1f77b4"/>
     <use xlink:href="#m69eb7c219c" x="336.013969" y="255.574088" style="fill: #1f77b4; stroke: #1f77b4"/>
     <use xlink:href="#m69eb7c219c" x="337.645399" y="256.299277" style="fill: #1f77b4; stroke: #1f77b4"/>
     <use xlink:href="#m69eb7c219c" x="339.276829" y="256.809469" style="fill: #1f77b4; stroke: #1f77b4"/>
     <use xlink:href="#m69eb7c219c" x="340.908259" y="257.34068" style="fill: #1f77b4; stroke: #1f77b4"/>
     <use xlink:href="#m69eb7c219c" x="342.539689" y="257.893948" style="fill: #1f77b4; stroke: #1f77b4"/>
     <use xlink:href="#m69eb7c219c" x="344.171119" y="258.626522" style="fill: #1f77b4; stroke: #1f77b4"/>
     <use xlink:href="#m69eb7c219c" x="345.802549" y="259.264785" style="fill: #1f77b4; stroke: #1f77b4"/>
     <use xlink:href="#m69eb7c219c" x="347.433979" y="260.036858" style="fill: #1f77b4; stroke: #1f77b4"/>
     <use xlink:href="#m69eb7c219c" x="349.065408" y="260.904862" style="fill: #1f77b4; stroke: #1f77b4"/>
     <use xlink:href="#m69eb7c219c" x="350.696838" y="261.654469" style="fill: #1f77b4; stroke: #1f77b4"/>
     <use xlink:href="#m69eb7c219c" x="352.328268" y="262.132691" style="fill: #1f77b4; stroke: #1f77b4"/>
     <use xlink:href="#m69eb7c219c" x="353.959698" y="262.760146" style="fill: #1f77b4; stroke: #1f77b4"/>
     <use xlink:href="#m69eb7c219c" x="355.591128" y="263.536648" style="fill: #1f77b4; stroke: #1f77b4"/>
     <use xlink:href="#m69eb7c219c" x="357.222558" y="264.180054" style="fill: #1f77b4; stroke: #1f77b4"/>
     <use xlink:href="#m69eb7c219c" x="358.853988" y="264.77698" style="fill: #1f77b4; stroke: #1f77b4"/>
     <use xlink:href="#m69eb7c219c" x="360.485418" y="265.607393" style="fill: #1f77b4; stroke: #1f77b4"/>
     <use xlink:href="#m69eb7c219c" x="362.116847" y="266.565687" style="fill: #1f77b4; stroke: #1f77b4"/>
     <use xlink:href="#m69eb7c219c" x="363.748277" y="267.24222" style="fill: #1f77b4; stroke: #1f77b4"/>
     <use xlink:href="#m69eb7c219c" x="365.379707" y="267.806756" style="fill: #1f77b4; stroke: #1f77b4"/>
     <use xlink:href="#m69eb7c219c" x="367.011137" y="268.717606" style="fill: #1f77b4; stroke: #1f77b4"/>
     <use xlink:href="#m69eb7c219c" x="368.642567" y="269.445094" style="fill: #1f77b4; stroke: #1f77b4"/>
     <use xlink:href="#m69eb7c219c" x="370.273997" y="270.184567" style="fill: #1f77b4; stroke: #1f77b4"/>
     <use xlink:href="#m69eb7c219c" x="371.905427" y="271.15153" style="fill: #1f77b4; stroke: #1f77b4"/>
     <use xlink:href="#m69eb7c219c" x="373.536857" y="271.947957" style="fill: #1f77b4; stroke: #1f77b4"/>
     <use xlink:href="#m69eb7c219c" x="375.168286" y="273.003077" style="fill: #1f77b4; stroke: #1f77b4"/>
     <use xlink:href="#m69eb7c219c" x="376.799716" y="274.006412" style="fill: #1f77b4; stroke: #1f77b4"/>
     <use xlink:href="#m69eb7c219c" x="378.431146" y="275.097784" style="fill: #1f77b4; stroke: #1f77b4"/>
     <use xlink:href="#m69eb7c219c" x="380.062576" y="276.574596" style="fill: #1f77b4; stroke: #1f77b4"/>
     <use xlink:href="#m69eb7c219c" x="381.694006" y="277.998952" style="fill: #1f77b4; stroke: #1f77b4"/>
     <use xlink:href="#m69eb7c219c" x="383.325436" y="279.788987" style="fill: #1f77b4; stroke: #1f77b4"/>
     <use xlink:href="#m69eb7c219c" x="384.956866" y="282.457333" style="fill: #1f77b4; stroke: #1f77b4"/>
     <use xlink:href="#m69eb7c219c" x="386.588296" y="285.54939" style="fill: #1f77b4; stroke: #1f77b4"/>
     <use xlink:href="#m69eb7c219c" x="388.219725" y="290.224027" style="fill: #1f77b4; stroke: #1f77b4"/>
     <use xlink:href="#m69eb7c219c" x="389.851155" y="288.418334" style="fill: #1f77b4; stroke: #1f77b4"/>
     <use xlink:href="#m69eb7c219c" x="391.482585" y="264.262201" style="fill: #1f77b4; stroke: #1f77b4"/>
    </g>
   </g>
   <g id="line2d_22">
    <path d="M 66.82804 281.62886 
L 137.023617 302.373818 
L 137.348597 192.410182 
L 391.482585 267.486235 
L 391.482585 267.486235 
" clip-path="url(#pf4e01ccaf6)" style="fill: none; stroke: #d62728; stroke-width: 1.5; stroke-linecap: square"/>
   </g>
   <g id="patch_9">
    <path d="M 50.595313 307.872 
L 50.595313 186.912 
" style="fill: none; stroke: #000000; stroke-width: 0.8; stroke-linejoin: miter; stroke-linecap: square"/>
   </g>
   <g id="patch_10">
    <path d="M 407.715312 307.872 
L 407.715312 186.912 
" style="fill: none; stroke: #000000; stroke-width: 0.8; stroke-linejoin: miter; stroke-linecap: square"/>
   </g>
   <g id="patch_11">
    <path d="M 50.595313 307.872 
L 407.715313 307.872 
" style="fill: none; stroke: #000000; stroke-width: 0.8; stroke-linejoin: miter; stroke-linecap: square"/>
   </g>
   <g id="patch_12">
    <path d="M 50.595313 186.912 
L 407.715313 186.912 
" style="fill: none; stroke: #000000; stroke-width: 0.8; stroke-linejoin: miter; stroke-linecap: square"/>
   </g>
  </g>
  <g id="text_19">
   <!-- S21 resonator spectroscopy -->
   <g transform="translate(139.610938 16.318125) scale(0.12 -0.12)">
    <defs>
     <path id="DejaVuSans-53" d="M 3425 4513 
L 3425 3897 
Q 3066 4069 2747 4153 
Q 2428 4238 2131 4238 
Q 1616 4238 1336 4038 
Q 1056 3838 1056 3469 
Q 1056 3159 1242 3001 
Q 1428 2844 1947 2747 
L 2328 2669 
Q 3034 2534 3370 2195 
Q 3706 1856 3706 1288 
Q 3706 609 3251 259 
Q 2797 -91 1919 -91 
Q 1588 -91 1214 -16 
Q 841 59 441 206 
L 441 856 
Q 825 641 1194 531 
Q 1563 422 1919 422 
Q 2459 422 2753 634 
Q 3047 847 3047 1241 
Q 3047 1584 2836 1778 
Q 2625 1972 2144 2069 
L 1759 2144 
Q 1053 2284 737 2584 
Q 422 2884 422 3419 
Q 422 4038 858 4394 
Q 1294 4750 2059 4750 
Q 2388 4750 2728 4690 
Q 3069 4631 3425 4513 
z
" transform="scale(0.015625)"/>
     <path id="DejaVuSans-70" d="M 1159 525 
L 1159 -1331 
L 581 -1331 
L 581 3500 
L 1159 3500 
L 1159 2969 
Q 1341 3281 1617 3432 
Q 1894 3584 2278 3584 
Q 2916 3584 3314 3078 
Q 3713 2572 3713 1747 
Q 3713 922 3314 415 
Q 2916 -91 2278 -91 
Q 1894 -91 1617 61 
Q 1341 213 1159 525 
z
M 3116 1747 
Q 3116 2381 2855 2742 
Q 2594 3103 2138 3103 
Q 1681 3103 1420 2742 
Q 1159 2381 1159 1747 
Q 1159 1113 1420 752 
Q 1681 391 2138 391 
Q 2594 391 2855 752 
Q 3116 1113 3116 1747 
z
" transform="scale(0.015625)"/>
    </defs>
    <use xlink:href="#DejaVuSans-53"/>
    <use xlink:href="#DejaVuSans-32" x="63.476562"/>
    <use xlink:href="#DejaVuSans-31" x="127.099609"/>
    <use xlink:href="#DejaVuSans-20" x="190.722656"/>
    <use xlink:href="#DejaVuSans-72" x="222.509766"/>
    <use xlink:href="#DejaVuSans-65" x="261.373047"/>
    <use xlink:href="#DejaVuSans-73" x="322.896484"/>
    <use xlink:href="#DejaVuSans-6f" x="374.996094"/>
    <use xlink:href="#DejaVuSans-6e" x="436.177734"/>
    <use xlink:href="#DejaVuSans-61" x="499.556641"/>
    <use xlink:href="#DejaVuSans-74" x="560.835938"/>
    <use xlink:href="#DejaVuSans-6f" x="600.044922"/>
    <use xlink:href="#DejaVuSans-72" x="661.226562"/>
    <use xlink:href="#DejaVuSans-20" x="702.339844"/>
    <use xlink:href="#DejaVuSans-73" x="734.126953"/>
    <use xlink:href="#DejaVuSans-70" x="786.226562"/>
    <use xlink:href="#DejaVuSans-65" x="849.703125"/>
    <use xlink:href="#DejaVuSans-63" x="911.226562"/>
    <use xlink:href="#DejaVuSans-74" x="966.207031"/>
    <use xlink:href="#DejaVuSans-72" x="1005.416016"/>
    <use xlink:href="#DejaVuSans-6f" x="1044.279297"/>
    <use xlink:href="#DejaVuSans-73" x="1105.460938"/>
    <use xlink:href="#DejaVuSans-63" x="1157.560547"/>
    <use xlink:href="#DejaVuSans-6f" x="1212.541016"/>
    <use xlink:href="#DejaVuSans-70" x="1273.722656"/>
    <use xlink:href="#DejaVuSans-79" x="1337.199219"/>
   </g>
   <!-- tuid: 20231227-125744-317-a1f9c6 -->
   <g transform="translate(115.904375 29.7555) scale(0.12 -0.12)">
    <defs>
     <path id="DejaVuSans-33" d="M 2597 2516 
Q 3050 2419 3304 2112 
Q 3559 1806 3559 1356 
Q 3559 666 3084 287 
Q 2609 -91 1734 -91 
Q 1441 -91 1130 -33 
Q 819 25 488 141 
L 488 750 
Q 750 597 1062 519 
Q 1375 441 1716 441 
Q 2309 441 2620 675 
Q 2931 909 2931 1356 
Q 2931 1769 2642 2001 
Q 2353 2234 1838 2234 
L 1294 2234 
L 1294 2753 
L 1863 2753 
Q 2328 2753 2575 2939 
Q 2822 3125 2822 3475 
Q 2822 3834 2567 4026 
Q 2313 4219 1838 4219 
Q 1578 4219 1281 4162 
Q 984 4106 628 3988 
L 628 4550 
Q 988 4650 1302 4700 
Q 1616 4750 1894 4750 
Q 2613 4750 3031 4423 
Q 3450 4097 3450 3541 
Q 3450 3153 3228 2886 
Q 3006 2619 2597 2516 
z
" transform="scale(0.015625)"/>
     <path id="DejaVuSans-37" d="M 525 4666 
L 3525 4666 
L 3525 4397 
L 1831 0 
L 1172 0 
L 2766 4134 
L 525 4134 
L 525 4666 
z
" transform="scale(0.015625)"/>
     <path id="DejaVuSans-35" d="M 691 4666 
L 3169 4666 
L 3169 4134 
L 1269 4134 
L 1269 2991 
Q 1406 3038 1543 3061 
Q 1681 3084 1819 3084 
Q 2600 3084 3056 2656 
Q 3513 2228 3513 1497 
Q 3513 744 3044 326 
Q 2575 -91 1722 -91 
Q 1428 -91 1123 -41 
Q 819 9 494 109 
L 494 744 
Q 775 591 1075 516 
Q 1375 441 1709 441 
Q 2250 441 2565 725 
Q 2881 1009 2881 1497 
Q 2881 1984 2565 2268 
Q 2250 2553 1709 2553 
Q 1456 2553 1204 2497 
Q 953 2441 691 2322 
L 691 4666 
z
" transform="scale(0.015625)"/>
     <path id="DejaVuSans-39" d="M 703 97 
L 703 672 
Q 941 559 1184 500 
Q 1428 441 1663 441 
Q 2288 441 2617 861 
Q 2947 1281 2994 2138 
Q 2813 1869 2534 1725 
Q 2256 1581 1919 1581 
Q 1219 1581 811 2004 
Q 403 2428 403 3163 
Q 403 3881 828 4315 
Q 1253 4750 1959 4750 
Q 2769 4750 3195 4129 
Q 3622 3509 3622 2328 
Q 3622 1225 3098 567 
Q 2575 -91 1691 -91 
Q 1453 -91 1209 -44 
Q 966 3 703 97 
z
M 1959 2075 
Q 2384 2075 2632 2365 
Q 2881 2656 2881 3163 
Q 2881 3666 2632 3958 
Q 2384 4250 1959 4250 
Q 1534 4250 1286 3958 
Q 1038 3666 1038 3163 
Q 1038 2656 1286 2365 
Q 1534 2075 1959 2075 
z
" transform="scale(0.015625)"/>
    </defs>
    <use xlink:href="#DejaVuSans-74"/>
    <use xlink:href="#DejaVuSans-75" x="39.208984"/>
    <use xlink:href="#DejaVuSans-69" x="102.587891"/>
    <use xlink:href="#DejaVuSans-64" x="130.371094"/>
    <use xlink:href="#DejaVuSans-3a" x="193.847656"/>
    <use xlink:href="#DejaVuSans-20" x="227.539062"/>
    <use xlink:href="#DejaVuSans-32" x="259.326172"/>
    <use xlink:href="#DejaVuSans-30" x="322.949219"/>
    <use xlink:href="#DejaVuSans-32" x="386.572266"/>
    <use xlink:href="#DejaVuSans-33" x="450.195312"/>
    <use xlink:href="#DejaVuSans-31" x="513.818359"/>
    <use xlink:href="#DejaVuSans-32" x="577.441406"/>
    <use xlink:href="#DejaVuSans-32" x="641.064453"/>
    <use xlink:href="#DejaVuSans-37" x="704.6875"/>
    <use xlink:href="#DejaVuSans-2d" x="768.310547"/>
    <use xlink:href="#DejaVuSans-31" x="804.394531"/>
    <use xlink:href="#DejaVuSans-32" x="868.017578"/>
    <use xlink:href="#DejaVuSans-35" x="931.640625"/>
    <use xlink:href="#DejaVuSans-37" x="995.263672"/>
    <use xlink:href="#DejaVuSans-34" x="1058.886719"/>
    <use xlink:href="#DejaVuSans-34" x="1122.509766"/>
    <use xlink:href="#DejaVuSans-2d" x="1186.132812"/>
    <use xlink:href="#DejaVuSans-33" x="1222.216797"/>
    <use xlink:href="#DejaVuSans-31" x="1285.839844"/>
    <use xlink:href="#DejaVuSans-37" x="1349.462891"/>
    <use xlink:href="#DejaVuSans-2d" x="1413.085938"/>
    <use xlink:href="#DejaVuSans-61" x="1449.169922"/>
    <use xlink:href="#DejaVuSans-31" x="1510.449219"/>
    <use xlink:href="#DejaVuSans-66" x="1574.072266"/>
    <use xlink:href="#DejaVuSans-39" x="1609.277344"/>
    <use xlink:href="#DejaVuSans-63" x="1672.900391"/>
    <use xlink:href="#DejaVuSans-36" x="1727.880859"/>
   </g>
  </g>
 </g>
 <defs>
  <clipPath id="p5b795600db">
   <rect x="50.595313" y="41.76" width="357.12" height="120.96"/>
  </clipPath>
  <clipPath id="pf4e01ccaf6">
   <rect x="50.595313" y="186.912" width="357.12" height="120.96"/>
  </clipPath>
 </defs>
</svg>
