<?xml version="1.0" encoding="utf-8" standalone="no"?>
<!DOCTYPE svg PUBLIC "-//W3C//DTD SVG 1.1//EN"
  "http://www.w3.org/Graphics/SVG/1.1/DTD/svg11.dtd">
<svg xmlns:xlink="http://www.w3.org/1999/xlink" width="586.49475pt" height="345.42825pt" viewBox="0 0 586.49475 345.42825" xmlns="http://www.w3.org/2000/svg" version="1.1">
 <metadata>
  <rdf:RDF xmlns:dc="http://purl.org/dc/elements/1.1/" xmlns:cc="http://creativecommons.org/ns#" xmlns:rdf="http://www.w3.org/1999/02/22-rdf-syntax-ns#">
   <cc:Work>
    <dc:type rdf:resource="http://purl.org/dc/dcmitype/StillImage"/>
    <dc:date>2023-12-27T12:57:56.996127</dc:date>
    <dc:format>image/svg+xml</dc:format>
    <dc:creator>
     <cc:Agent>
      <dc:title>Matplotlib v3.8.2, https://matplotlib.org/</dc:title>
     </cc:Agent>
    </dc:creator>
   </cc:Work>
  </rdf:RDF>
 </metadata>
 <defs>
  <style type="text/css">*{stroke-linejoin: round; stroke-linecap: butt}</style>
 </defs>
 <g id="figure_1">
  <g id="patch_1">
   <path d="M 0 345.42825 
L 586.49475 345.42825 
L 586.49475 -0 
L 0 -0 
L 0 345.42825 
z
" style="fill: none; opacity: 0"/>
  </g>
  <g id="axes_1">
   <g id="patch_2">
    <path d="M 44.210938 307.872 
L 401.330938 307.872 
L 401.330938 41.76 
L 44.210938 41.76 
z
" style="fill: #ffffff"/>
   </g>
   <g id="matplotlib.axis_1">
    <g id="xtick_1">
     <g id="line2d_1">
      <defs>
       <path id="m475d4b93d6" d="M 0 0 
L 0 3.5 
" style="stroke: #000000; stroke-width: 0.8"/>
      </defs>
      <g>
       <use xlink:href="#m475d4b93d6" x="56.616592" y="307.872" style="stroke: #000000; stroke-width: 0.8"/>
      </g>
     </g>
     <g id="text_1">
      <!-- -10 -->
      <g transform="translate(48.450186 322.470438) scale(0.1 -0.1)">
       <defs>
        <path id="DejaVuSans-2d" d="M 313 2009 
L 1997 2009 
L 1997 1497 
L 313 1497 
L 313 2009 
z
" transform="scale(0.015625)"/>
        <path id="DejaVuSans-31" d="M 794 531 
L 1825 531 
L 1825 4091 
L 703 3866 
L 703 4441 
L 1819 4666 
L 2450 4666 
L 2450 531 
L 3481 531 
L 3481 0 
L 794 0 
L 794 531 
z
" transform="scale(0.015625)"/>
        <path id="DejaVuSans-30" d="M 2034 4250 
Q 1547 4250 1301 3770 
Q 1056 3291 1056 2328 
Q 1056 1369 1301 889 
Q 1547 409 2034 409 
Q 2525 409 2770 889 
Q 3016 1369 3016 2328 
Q 3016 3291 2770 3770 
Q 2525 4250 2034 4250 
z
M 2034 4750 
Q 2819 4750 3233 4129 
Q 3647 3509 3647 2328 
Q 3647 1150 3233 529 
Q 2819 -91 2034 -91 
Q 1250 -91 836 529 
Q 422 1150 422 2328 
Q 422 3509 836 4129 
Q 1250 4750 2034 4750 
z
" transform="scale(0.015625)"/>
       </defs>
       <use xlink:href="#DejaVuSans-2d"/>
       <use xlink:href="#DejaVuSans-31" x="36.083984"/>
       <use xlink:href="#DejaVuSans-30" x="99.707031"/>
      </g>
     </g>
    </g>
    <g id="xtick_2">
     <g id="line2d_2">
      <g>
       <use xlink:href="#m475d4b93d6" x="132.257234" y="307.872" style="stroke: #000000; stroke-width: 0.8"/>
      </g>
     </g>
     <g id="text_2">
      <!-- -5 -->
      <g transform="translate(127.272078 322.470438) scale(0.1 -0.1)">
       <defs>
        <path id="DejaVuSans-35" d="M 691 4666 
L 3169 4666 
L 3169 4134 
L 1269 4134 
L 1269 2991 
Q 1406 3038 1543 3061 
Q 1681 3084 1819 3084 
Q 2600 3084 3056 2656 
Q 3513 2228 3513 1497 
Q 3513 744 3044 326 
Q 2575 -91 1722 -91 
Q 1428 -91 1123 -41 
Q 819 9 494 109 
L 494 744 
Q 775 591 1075 516 
Q 1375 441 1709 441 
Q 2250 441 2565 725 
Q 2881 1009 2881 1497 
Q 2881 1984 2565 2268 
Q 2250 2553 1709 2553 
Q 1456 2553 1204 2497 
Q 953 2441 691 2322 
L 691 4666 
z
" transform="scale(0.015625)"/>
       </defs>
       <use xlink:href="#DejaVuSans-2d"/>
       <use xlink:href="#DejaVuSans-35" x="36.083984"/>
      </g>
     </g>
    </g>
    <g id="xtick_3">
     <g id="line2d_3">
      <g>
       <use xlink:href="#m475d4b93d6" x="207.897876" y="307.872" style="stroke: #000000; stroke-width: 0.8"/>
      </g>
     </g>
     <g id="text_3">
      <!-- 0 -->
      <g transform="translate(204.716626 322.470438) scale(0.1 -0.1)">
       <use xlink:href="#DejaVuSans-30"/>
      </g>
     </g>
    </g>
    <g id="xtick_4">
     <g id="line2d_4">
      <g>
       <use xlink:href="#m475d4b93d6" x="283.538518" y="307.872" style="stroke: #000000; stroke-width: 0.8"/>
      </g>
     </g>
     <g id="text_4">
      <!-- 5 -->
      <g transform="translate(280.357268 322.470438) scale(0.1 -0.1)">
       <use xlink:href="#DejaVuSans-35"/>
      </g>
     </g>
    </g>
    <g id="xtick_5">
     <g id="line2d_5">
      <g>
       <use xlink:href="#m475d4b93d6" x="359.17916" y="307.872" style="stroke: #000000; stroke-width: 0.8"/>
      </g>
     </g>
     <g id="text_5">
      <!-- 10 -->
      <g transform="translate(352.81666 322.470438) scale(0.1 -0.1)">
       <use xlink:href="#DejaVuSans-31"/>
       <use xlink:href="#DejaVuSans-30" x="63.623047"/>
      </g>
     </g>
    </g>
    <g id="text_6">
     <!-- Re$(S_{21})$ [mV] -->
     <g transform="translate(190.770938 336.148562) scale(0.1 -0.1)">
      <defs>
       <path id="DejaVuSans-52" d="M 2841 2188 
Q 3044 2119 3236 1894 
Q 3428 1669 3622 1275 
L 4263 0 
L 3584 0 
L 2988 1197 
Q 2756 1666 2539 1819 
Q 2322 1972 1947 1972 
L 1259 1972 
L 1259 0 
L 628 0 
L 628 4666 
L 2053 4666 
Q 2853 4666 3247 4331 
Q 3641 3997 3641 3322 
Q 3641 2881 3436 2590 
Q 3231 2300 2841 2188 
z
M 1259 4147 
L 1259 2491 
L 2053 2491 
Q 2509 2491 2742 2702 
Q 2975 2913 2975 3322 
Q 2975 3731 2742 3939 
Q 2509 4147 2053 4147 
L 1259 4147 
z
" transform="scale(0.015625)"/>
       <path id="DejaVuSans-65" d="M 3597 1894 
L 3597 1613 
L 953 1613 
Q 991 1019 1311 708 
Q 1631 397 2203 397 
Q 2534 397 2845 478 
Q 3156 559 3463 722 
L 3463 178 
Q 3153 47 2828 -22 
Q 2503 -91 2169 -91 
Q 1331 -91 842 396 
Q 353 884 353 1716 
Q 353 2575 817 3079 
Q 1281 3584 2069 3584 
Q 2775 3584 3186 3129 
Q 3597 2675 3597 1894 
z
M 3022 2063 
Q 3016 2534 2758 2815 
Q 2500 3097 2075 3097 
Q 1594 3097 1305 2825 
Q 1016 2553 972 2059 
L 3022 2063 
z
" transform="scale(0.015625)"/>
       <path id="DejaVuSans-28" d="M 1984 4856 
Q 1566 4138 1362 3434 
Q 1159 2731 1159 2009 
Q 1159 1288 1364 580 
Q 1569 -128 1984 -844 
L 1484 -844 
Q 1016 -109 783 600 
Q 550 1309 550 2009 
Q 550 2706 781 3412 
Q 1013 4119 1484 4856 
L 1984 4856 
z
" transform="scale(0.015625)"/>
       <path id="DejaVuSans-Oblique-53" d="M 3859 4513 
L 3738 3897 
Q 3422 4066 3111 4152 
Q 2800 4238 2509 4238 
Q 1944 4238 1609 3991 
Q 1275 3744 1275 3334 
Q 1275 3109 1398 2989 
Q 1522 2869 2034 2731 
L 2413 2638 
Q 3053 2472 3303 2217 
Q 3553 1963 3553 1503 
Q 3553 797 2998 353 
Q 2444 -91 1538 -91 
Q 1166 -91 791 -17 
Q 416 56 38 206 
L 166 856 
Q 513 641 861 531 
Q 1209 422 1556 422 
Q 2147 422 2503 684 
Q 2859 947 2859 1369 
Q 2859 1650 2717 1795 
Q 2575 1941 2106 2059 
L 1728 2156 
Q 1081 2325 845 2545 
Q 609 2766 609 3163 
Q 609 3859 1145 4304 
Q 1681 4750 2541 4750 
Q 2875 4750 3203 4690 
Q 3531 4631 3859 4513 
z
" transform="scale(0.015625)"/>
       <path id="DejaVuSans-32" d="M 1228 531 
L 3431 531 
L 3431 0 
L 469 0 
L 469 531 
Q 828 903 1448 1529 
Q 2069 2156 2228 2338 
Q 2531 2678 2651 2914 
Q 2772 3150 2772 3378 
Q 2772 3750 2511 3984 
Q 2250 4219 1831 4219 
Q 1534 4219 1204 4116 
Q 875 4013 500 3803 
L 500 4441 
Q 881 4594 1212 4672 
Q 1544 4750 1819 4750 
Q 2544 4750 2975 4387 
Q 3406 4025 3406 3419 
Q 3406 3131 3298 2873 
Q 3191 2616 2906 2266 
Q 2828 2175 2409 1742 
Q 1991 1309 1228 531 
z
" transform="scale(0.015625)"/>
       <path id="DejaVuSans-29" d="M 513 4856 
L 1013 4856 
Q 1481 4119 1714 3412 
Q 1947 2706 1947 2009 
Q 1947 1309 1714 600 
Q 1481 -109 1013 -844 
L 513 -844 
Q 928 -128 1133 580 
Q 1338 1288 1338 2009 
Q 1338 2731 1133 3434 
Q 928 4138 513 4856 
z
" transform="scale(0.015625)"/>
       <path id="DejaVuSans-20" transform="scale(0.015625)"/>
       <path id="DejaVuSans-5b" d="M 550 4863 
L 1875 4863 
L 1875 4416 
L 1125 4416 
L 1125 -397 
L 1875 -397 
L 1875 -844 
L 550 -844 
L 550 4863 
z
" transform="scale(0.015625)"/>
       <path id="DejaVuSans-6d" d="M 3328 2828 
Q 3544 3216 3844 3400 
Q 4144 3584 4550 3584 
Q 5097 3584 5394 3201 
Q 5691 2819 5691 2113 
L 5691 0 
L 5113 0 
L 5113 2094 
Q 5113 2597 4934 2840 
Q 4756 3084 4391 3084 
Q 3944 3084 3684 2787 
Q 3425 2491 3425 1978 
L 3425 0 
L 2847 0 
L 2847 2094 
Q 2847 2600 2669 2842 
Q 2491 3084 2119 3084 
Q 1678 3084 1418 2786 
Q 1159 2488 1159 1978 
L 1159 0 
L 581 0 
L 581 3500 
L 1159 3500 
L 1159 2956 
Q 1356 3278 1631 3431 
Q 1906 3584 2284 3584 
Q 2666 3584 2933 3390 
Q 3200 3197 3328 2828 
z
" transform="scale(0.015625)"/>
       <path id="DejaVuSans-56" d="M 1831 0 
L 50 4666 
L 709 4666 
L 2188 738 
L 3669 4666 
L 4325 4666 
L 2547 0 
L 1831 0 
z
" transform="scale(0.015625)"/>
       <path id="DejaVuSans-5d" d="M 1947 4863 
L 1947 -844 
L 622 -844 
L 622 -397 
L 1369 -397 
L 1369 4416 
L 622 4416 
L 622 4863 
L 1947 4863 
z
" transform="scale(0.015625)"/>
      </defs>
      <use xlink:href="#DejaVuSans-52" transform="translate(0 0.015625)"/>
      <use xlink:href="#DejaVuSans-65" transform="translate(69.482422 0.015625)"/>
      <use xlink:href="#DejaVuSans-28" transform="translate(131.005859 0.015625)"/>
      <use xlink:href="#DejaVuSans-Oblique-53" transform="translate(170.019531 0.015625)"/>
      <use xlink:href="#DejaVuSans-32" transform="translate(233.496094 -16.390625) scale(0.7)"/>
      <use xlink:href="#DejaVuSans-31" transform="translate(278.032227 -16.390625) scale(0.7)"/>
      <use xlink:href="#DejaVuSans-29" transform="translate(325.302734 0.015625)"/>
      <use xlink:href="#DejaVuSans-20" transform="translate(364.316406 0.015625)"/>
      <use xlink:href="#DejaVuSans-5b" transform="translate(396.103516 0.015625)"/>
      <use xlink:href="#DejaVuSans-6d" transform="translate(435.117188 0.015625)"/>
      <use xlink:href="#DejaVuSans-56" transform="translate(532.529297 0.015625)"/>
      <use xlink:href="#DejaVuSans-5d" transform="translate(600.9375 0.015625)"/>
     </g>
    </g>
   </g>
   <g id="matplotlib.axis_2">
    <g id="ytick_1">
     <g id="line2d_6">
      <defs>
       <path id="m4fb7c29033" d="M 0 0 
L -3.5 0 
" style="stroke: #000000; stroke-width: 0.8"/>
      </defs>
      <g>
       <use xlink:href="#m4fb7c29033" x="44.210938" y="280.931556" style="stroke: #000000; stroke-width: 0.8"/>
      </g>
     </g>
     <g id="text_7">
      <!-- -10 -->
      <g transform="translate(20.878125 284.730775) scale(0.1 -0.1)">
       <use xlink:href="#DejaVuSans-2d"/>
       <use xlink:href="#DejaVuSans-31" x="36.083984"/>
       <use xlink:href="#DejaVuSans-30" x="99.707031"/>
      </g>
     </g>
    </g>
    <g id="ytick_2">
     <g id="line2d_7">
      <g>
       <use xlink:href="#m4fb7c29033" x="44.210938" y="228.008921" style="stroke: #000000; stroke-width: 0.8"/>
      </g>
     </g>
     <g id="text_8">
      <!-- -5 -->
      <g transform="translate(27.240625 231.80814) scale(0.1 -0.1)">
       <use xlink:href="#DejaVuSans-2d"/>
       <use xlink:href="#DejaVuSans-35" x="36.083984"/>
      </g>
     </g>
    </g>
    <g id="ytick_3">
     <g id="line2d_8">
      <g>
       <use xlink:href="#m4fb7c29033" x="44.210938" y="175.086287" style="stroke: #000000; stroke-width: 0.8"/>
      </g>
     </g>
     <g id="text_9">
      <!-- 0 -->
      <g transform="translate(30.848437 178.885505) scale(0.1 -0.1)">
       <use xlink:href="#DejaVuSans-30"/>
      </g>
     </g>
    </g>
    <g id="ytick_4">
     <g id="line2d_9">
      <g>
       <use xlink:href="#m4fb7c29033" x="44.210938" y="122.163652" style="stroke: #000000; stroke-width: 0.8"/>
      </g>
     </g>
     <g id="text_10">
      <!-- 5 -->
      <g transform="translate(30.848437 125.962871) scale(0.1 -0.1)">
       <use xlink:href="#DejaVuSans-35"/>
      </g>
     </g>
    </g>
    <g id="ytick_5">
     <g id="line2d_10">
      <g>
       <use xlink:href="#m4fb7c29033" x="44.210938" y="69.241017" style="stroke: #000000; stroke-width: 0.8"/>
      </g>
     </g>
     <g id="text_11">
      <!-- 10 -->
      <g transform="translate(24.485937 73.040236) scale(0.1 -0.1)">
       <use xlink:href="#DejaVuSans-31"/>
       <use xlink:href="#DejaVuSans-30" x="63.623047"/>
      </g>
     </g>
    </g>
    <g id="text_12">
     <!-- Im$(S_{21})$ [mV] -->
     <g transform="translate(14.798437 206.466) rotate(-90) scale(0.1 -0.1)">
      <defs>
       <path id="DejaVuSans-49" d="M 628 4666 
L 1259 4666 
L 1259 0 
L 628 0 
L 628 4666 
z
" transform="scale(0.015625)"/>
      </defs>
      <use xlink:href="#DejaVuSans-49" transform="translate(0 0.015625)"/>
      <use xlink:href="#DejaVuSans-6d" transform="translate(25.867188 0.015625)"/>
      <use xlink:href="#DejaVuSans-28" transform="translate(123.279297 0.015625)"/>
      <use xlink:href="#DejaVuSans-Oblique-53" transform="translate(162.292969 0.015625)"/>
      <use xlink:href="#DejaVuSans-32" transform="translate(225.769531 -16.390625) scale(0.7)"/>
      <use xlink:href="#DejaVuSans-31" transform="translate(270.305664 -16.390625) scale(0.7)"/>
      <use xlink:href="#DejaVuSans-29" transform="translate(317.576172 0.015625)"/>
      <use xlink:href="#DejaVuSans-20" transform="translate(356.589844 0.015625)"/>
      <use xlink:href="#DejaVuSans-5b" transform="translate(388.376953 0.015625)"/>
      <use xlink:href="#DejaVuSans-6d" transform="translate(427.390625 0.015625)"/>
      <use xlink:href="#DejaVuSans-56" transform="translate(524.802734 0.015625)"/>
      <use xlink:href="#DejaVuSans-5d" transform="translate(593.210938 0.015625)"/>
     </g>
    </g>
   </g>
   <g id="line2d_11">
    <path d="M 191.309275 257.389725 
L 185.871065 256.56607 
L 179.892371 256.53986 
L 174.128901 256.913924 
L 165.702888 254.993955 
L 148.55784 252.184135 
L 135.281135 246.588394 
L 121.00842 233.490262 
L 120.130524 207.136841 
L 162.525201 187.410059 
L 201.68264 203.873534 
L 205.953284 223.770078 
L 197.724906 235.039626 
L 189.749131 241.117361 
L 180.004935 243.196083 
L 174.777219 244.135332 
L 166.552158 245.730808 
L 163.036632 244.546867 
L 156.30039 246.554267 
L 150.52393 245.237208 
L 146.778628 246.542076 
L 139.674558 243.12437 
L 137.347127 243.032894 
L 132.160059 241.802071 
L 127.234594 240.883447 
L 124.689343 239.567572 
L 119.503031 238.153923 
L 116.27908 234.988044 
L 112.240642 235.51761 
L 107.966927 231.558148 
L 101.022556 227.808227 
L 98.545773 226.005462 
L 95.22266 222.721426 
L 92.461495 220.515136 
L 88.488323 218.985697 
L 85.739032 215.331757 
L 83.376899 212.42167 
L 78.457001 210.003769 
L 77.9087 206.975353 
L 74.674945 203.375958 
L 73.16026 199.93803 
L 71.324618 196.4301 
L 68.864456 192.758557 
L 68.067033 189.569376 
L 66.777738 187.10287 
L 65.190989 182.837702 
L 62.275184 180.155932 
L 62.839793 171.763815 
L 60.443665 164.585457 
L 61.263128 161.24992 
L 61.280438 157.187675 
L 62.633667 154.840832 
L 62.587699 149.989553 
L 63.616819 146.928538 
L 64.178899 143.165197 
L 66.374338 136.005223 
L 69.235125 132.732793 
L 70.267349 129.264288 
L 72.526033 126.09032 
L 73.443377 123.118517 
L 78.191604 118.622906 
L 79.430562 115.569233 
L 82.52592 113.1184 
L 84.148965 110.374122 
L 90.376288 107.251643 
L 91.793108 104.386772 
L 95.89443 101.824642 
L 98.519283 99.087878 
L 101.667934 96.442085 
L 103.745471 94.38616 
L 108.302763 90.644984 
L 113.94659 87.865338 
L 117.797673 85.650809 
L 121.794856 84.31818 
L 125.604208 82.265725 
L 129.949823 79.167848 
L 134.834313 77.237239 
L 138.230049 74.755175 
L 143.646646 72.673511 
L 149.132763 72.798977 
L 152.46734 69.352212 
L 159.606818 68.16102 
L 162.764666 66.399874 
L 167.839006 65.145289 
L 173.603658 63.338502 
L 177.489213 63.126007 
L 184.47011 62.996451 
L 190.036831 60.833377 
L 194.056464 59.442675 
L 198.940001 60.156158 
L 204.203666 58.628879 
L 209.558103 59.347705 
L 215.582716 59.468207 
L 221.726248 59.230122 
L 225.870615 59.654204 
L 139.761617 69.026902 
L 144.425183 67.284463 
L 148.910969 65.475321 
L 157.117504 63.341765 
L 160.98639 61.613172 
L 166.998669 61.017249 
L 173.020244 59.13351 
L 178.87409 57.449879 
L 186.219744 56.55743 
L 193.233339 56.150733 
L 199.461664 55.04209 
L 205.805016 54.99445 
L 212.103829 54.763685 
L 219.739794 53.856 
L 227.071997 54.344337 
L 231.514771 54.942271 
L 245.890377 55.581491 
L 254.930154 56.702108 
L 258.560166 57.973044 
L 265.432095 58.252011 
L 270.623483 60.363597 
L 277.925977 61.3472 
L 284.949836 63.244165 
L 291.293616 65.376732 
L 297.901774 66.598235 
L 301.14246 69.884994 
L 307.177337 71.636144 
L 312.449395 75.362003 
L 317.803946 77.530329 
L 325.820467 79.73994 
L 330.293673 84.274504 
L 335.251327 86.356593 
L 339.926898 89.704046 
L 342.75456 94.564207 
L 347.442859 98.854562 
L 351.689509 101.07656 
L 356.344436 106.255607 
L 358.613434 110.092442 
L 363.196346 114.022213 
L 363.817697 119.056536 
L 367.492626 120.729562 
L 370.870888 126.225886 
L 372.741232 130.88148 
L 374.883558 135.242756 
L 376.858566 140.374083 
L 379.56422 144.680318 
L 379.767062 150.086476 
L 381.79106 154.31769 
L 381.763403 159.647838 
L 382.434517 162.957544 
L 381.654896 168.295999 
L 383.988601 171.572026 
L 385.09821 176.82305 
L 384.640072 181.923996 
L 382.267707 187.335186 
L 383.73263 191.885941 
L 382.668546 195.728579 
L 380.559591 200.30382 
L 380.24164 204.848186 
L 375.967728 208.814635 
L 374.946524 213.268593 
L 371.612407 218.007345 
L 366.336161 226.470945 
L 362.459097 229.725473 
L 359.106636 234.15915 
L 356.535946 237.195116 
L 354.548703 240.665437 
L 350.781854 243.521633 
L 347.080057 247.909728 
L 341.869372 250.660602 
L 331.264294 259.147987 
L 326.702107 263.276429 
L 323.150204 265.460233 
L 312.255554 271.457453 
L 306.066381 273.015826 
L 301.912785 276.020882 
L 295.008469 279.06989 
L 287.188566 282.840976 
L 280.714404 284.201067 
L 276.003309 286.361281 
L 267.232739 287.9039 
L 253.869961 291.827626 
L 244.209326 292.184764 
L 236.551831 293.165012 
L 226.590915 295.776 
L 216.637653 295.672114 
L 205.895984 295.420815 
L 191.645965 293.231611 
L 178.304275 290.666172 
L 163.24555 283.954986 
L 143.489477 272.884098 
L 130.177825 253.16937 
L 134.360211 218.03899 
L 181.702672 193.908245 
L 237.97967 205.396228 
L 237.97967 205.396228 
" clip-path="url(#p17f2dfeddb)" style="fill: none; stroke: #1f77b4; stroke-width: 1.5; stroke-linecap: square"/>
    <defs>
     <path id="m6a02029c81" d="M 0 1.5 
C 0.397805 1.5 0.77937 1.341951 1.06066 1.06066 
C 1.341951 0.77937 1.5 0.397805 1.5 0 
C 1.5 -0.397805 1.341951 -0.77937 1.06066 -1.06066 
C 0.77937 -1.341951 0.397805 -1.5 0 -1.5 
C -0.397805 -1.5 -0.77937 -1.341951 -1.06066 -1.06066 
C -1.341951 -0.77937 -1.5 -0.397805 -1.5 0 
C -1.5 0.397805 -1.341951 0.77937 -1.06066 1.06066 
C -0.77937 1.341951 -0.397805 1.5 0 1.5 
z
" style="stroke: #1f77b4"/>
    </defs>
    <g clip-path="url(#p17f2dfeddb)">
     <use xlink:href="#m6a02029c81" x="191.309275" y="257.389725" style="fill: #1f77b4; stroke: #1f77b4"/>
     <use xlink:href="#m6a02029c81" x="185.871065" y="256.56607" style="fill: #1f77b4; stroke: #1f77b4"/>
     <use xlink:href="#m6a02029c81" x="179.892371" y="256.53986" style="fill: #1f77b4; stroke: #1f77b4"/>
     <use xlink:href="#m6a02029c81" x="174.128901" y="256.913924" style="fill: #1f77b4; stroke: #1f77b4"/>
     <use xlink:href="#m6a02029c81" x="165.702888" y="254.993955" style="fill: #1f77b4; stroke: #1f77b4"/>
     <use xlink:href="#m6a02029c81" x="157.787419" y="253.700658" style="fill: #1f77b4; stroke: #1f77b4"/>
     <use xlink:href="#m6a02029c81" x="148.55784" y="252.184135" style="fill: #1f77b4; stroke: #1f77b4"/>
     <use xlink:href="#m6a02029c81" x="135.281135" y="246.588394" style="fill: #1f77b4; stroke: #1f77b4"/>
     <use xlink:href="#m6a02029c81" x="121.00842" y="233.490262" style="fill: #1f77b4; stroke: #1f77b4"/>
     <use xlink:href="#m6a02029c81" x="120.130524" y="207.136841" style="fill: #1f77b4; stroke: #1f77b4"/>
     <use xlink:href="#m6a02029c81" x="162.525201" y="187.410059" style="fill: #1f77b4; stroke: #1f77b4"/>
     <use xlink:href="#m6a02029c81" x="201.68264" y="203.873534" style="fill: #1f77b4; stroke: #1f77b4"/>
     <use xlink:href="#m6a02029c81" x="205.953284" y="223.770078" style="fill: #1f77b4; stroke: #1f77b4"/>
     <use xlink:href="#m6a02029c81" x="197.724906" y="235.039626" style="fill: #1f77b4; stroke: #1f77b4"/>
     <use xlink:href="#m6a02029c81" x="189.749131" y="241.117361" style="fill: #1f77b4; stroke: #1f77b4"/>
     <use xlink:href="#m6a02029c81" x="180.004935" y="243.196083" style="fill: #1f77b4; stroke: #1f77b4"/>
     <use xlink:href="#m6a02029c81" x="174.777219" y="244.135332" style="fill: #1f77b4; stroke: #1f77b4"/>
     <use xlink:href="#m6a02029c81" x="166.552158" y="245.730808" style="fill: #1f77b4; stroke: #1f77b4"/>
     <use xlink:href="#m6a02029c81" x="163.036632" y="244.546867" style="fill: #1f77b4; stroke: #1f77b4"/>
     <use xlink:href="#m6a02029c81" x="156.30039" y="246.554267" style="fill: #1f77b4; stroke: #1f77b4"/>
     <use xlink:href="#m6a02029c81" x="150.52393" y="245.237208" style="fill: #1f77b4; stroke: #1f77b4"/>
     <use xlink:href="#m6a02029c81" x="146.778628" y="246.542076" style="fill: #1f77b4; stroke: #1f77b4"/>
     <use xlink:href="#m6a02029c81" x="139.674558" y="243.12437" style="fill: #1f77b4; stroke: #1f77b4"/>
     <use xlink:href="#m6a02029c81" x="137.347127" y="243.032894" style="fill: #1f77b4; stroke: #1f77b4"/>
     <use xlink:href="#m6a02029c81" x="132.160059" y="241.802071" style="fill: #1f77b4; stroke: #1f77b4"/>
     <use xlink:href="#m6a02029c81" x="127.234594" y="240.883447" style="fill: #1f77b4; stroke: #1f77b4"/>
     <use xlink:href="#m6a02029c81" x="124.689343" y="239.567572" style="fill: #1f77b4; stroke: #1f77b4"/>
     <use xlink:href="#m6a02029c81" x="119.503031" y="238.153923" style="fill: #1f77b4; stroke: #1f77b4"/>
     <use xlink:href="#m6a02029c81" x="116.27908" y="234.988044" style="fill: #1f77b4; stroke: #1f77b4"/>
     <use xlink:href="#m6a02029c81" x="112.240642" y="235.51761" style="fill: #1f77b4; stroke: #1f77b4"/>
     <use xlink:href="#m6a02029c81" x="107.966927" y="231.558148" style="fill: #1f77b4; stroke: #1f77b4"/>
     <use xlink:href="#m6a02029c81" x="104.130954" y="229.493375" style="fill: #1f77b4; stroke: #1f77b4"/>
     <use xlink:href="#m6a02029c81" x="101.022556" y="227.808227" style="fill: #1f77b4; stroke: #1f77b4"/>
     <use xlink:href="#m6a02029c81" x="98.545773" y="226.005462" style="fill: #1f77b4; stroke: #1f77b4"/>
     <use xlink:href="#m6a02029c81" x="95.22266" y="222.721426" style="fill: #1f77b4; stroke: #1f77b4"/>
     <use xlink:href="#m6a02029c81" x="92.461495" y="220.515136" style="fill: #1f77b4; stroke: #1f77b4"/>
     <use xlink:href="#m6a02029c81" x="88.488323" y="218.985697" style="fill: #1f77b4; stroke: #1f77b4"/>
     <use xlink:href="#m6a02029c81" x="85.739032" y="215.331757" style="fill: #1f77b4; stroke: #1f77b4"/>
     <use xlink:href="#m6a02029c81" x="83.376899" y="212.42167" style="fill: #1f77b4; stroke: #1f77b4"/>
     <use xlink:href="#m6a02029c81" x="78.457001" y="210.003769" style="fill: #1f77b4; stroke: #1f77b4"/>
     <use xlink:href="#m6a02029c81" x="77.9087" y="206.975353" style="fill: #1f77b4; stroke: #1f77b4"/>
     <use xlink:href="#m6a02029c81" x="74.674945" y="203.375958" style="fill: #1f77b4; stroke: #1f77b4"/>
     <use xlink:href="#m6a02029c81" x="73.16026" y="199.93803" style="fill: #1f77b4; stroke: #1f77b4"/>
     <use xlink:href="#m6a02029c81" x="71.324618" y="196.4301" style="fill: #1f77b4; stroke: #1f77b4"/>
     <use xlink:href="#m6a02029c81" x="68.864456" y="192.758557" style="fill: #1f77b4; stroke: #1f77b4"/>
     <use xlink:href="#m6a02029c81" x="68.067033" y="189.569376" style="fill: #1f77b4; stroke: #1f77b4"/>
     <use xlink:href="#m6a02029c81" x="66.777738" y="187.10287" style="fill: #1f77b4; stroke: #1f77b4"/>
     <use xlink:href="#m6a02029c81" x="65.190989" y="182.837702" style="fill: #1f77b4; stroke: #1f77b4"/>
     <use xlink:href="#m6a02029c81" x="62.275184" y="180.155932" style="fill: #1f77b4; stroke: #1f77b4"/>
     <use xlink:href="#m6a02029c81" x="62.603104" y="175.4972" style="fill: #1f77b4; stroke: #1f77b4"/>
     <use xlink:href="#m6a02029c81" x="62.839793" y="171.763815" style="fill: #1f77b4; stroke: #1f77b4"/>
     <use xlink:href="#m6a02029c81" x="61.423072" y="167.638337" style="fill: #1f77b4; stroke: #1f77b4"/>
     <use xlink:href="#m6a02029c81" x="60.443665" y="164.585457" style="fill: #1f77b4; stroke: #1f77b4"/>
     <use xlink:href="#m6a02029c81" x="61.263128" y="161.24992" style="fill: #1f77b4; stroke: #1f77b4"/>
     <use xlink:href="#m6a02029c81" x="61.280438" y="157.187675" style="fill: #1f77b4; stroke: #1f77b4"/>
     <use xlink:href="#m6a02029c81" x="62.633667" y="154.840832" style="fill: #1f77b4; stroke: #1f77b4"/>
     <use xlink:href="#m6a02029c81" x="62.587699" y="149.989553" style="fill: #1f77b4; stroke: #1f77b4"/>
     <use xlink:href="#m6a02029c81" x="63.616819" y="146.928538" style="fill: #1f77b4; stroke: #1f77b4"/>
     <use xlink:href="#m6a02029c81" x="64.178899" y="143.165197" style="fill: #1f77b4; stroke: #1f77b4"/>
     <use xlink:href="#m6a02029c81" x="65.210877" y="139.817411" style="fill: #1f77b4; stroke: #1f77b4"/>
     <use xlink:href="#m6a02029c81" x="66.374338" y="136.005223" style="fill: #1f77b4; stroke: #1f77b4"/>
     <use xlink:href="#m6a02029c81" x="69.235125" y="132.732793" style="fill: #1f77b4; stroke: #1f77b4"/>
     <use xlink:href="#m6a02029c81" x="70.267349" y="129.264288" style="fill: #1f77b4; stroke: #1f77b4"/>
     <use xlink:href="#m6a02029c81" x="72.526033" y="126.09032" style="fill: #1f77b4; stroke: #1f77b4"/>
     <use xlink:href="#m6a02029c81" x="73.443377" y="123.118517" style="fill: #1f77b4; stroke: #1f77b4"/>
     <use xlink:href="#m6a02029c81" x="78.191604" y="118.622906" style="fill: #1f77b4; stroke: #1f77b4"/>
     <use xlink:href="#m6a02029c81" x="79.430562" y="115.569233" style="fill: #1f77b4; stroke: #1f77b4"/>
     <use xlink:href="#m6a02029c81" x="82.52592" y="113.1184" style="fill: #1f77b4; stroke: #1f77b4"/>
     <use xlink:href="#m6a02029c81" x="84.148965" y="110.374122" style="fill: #1f77b4; stroke: #1f77b4"/>
     <use xlink:href="#m6a02029c81" x="90.376288" y="107.251643" style="fill: #1f77b4; stroke: #1f77b4"/>
     <use xlink:href="#m6a02029c81" x="91.793108" y="104.386772" style="fill: #1f77b4; stroke: #1f77b4"/>
     <use xlink:href="#m6a02029c81" x="95.89443" y="101.824642" style="fill: #1f77b4; stroke: #1f77b4"/>
     <use xlink:href="#m6a02029c81" x="98.519283" y="99.087878" style="fill: #1f77b4; stroke: #1f77b4"/>
     <use xlink:href="#m6a02029c81" x="101.667934" y="96.442085" style="fill: #1f77b4; stroke: #1f77b4"/>
     <use xlink:href="#m6a02029c81" x="103.745471" y="94.38616" style="fill: #1f77b4; stroke: #1f77b4"/>
     <use xlink:href="#m6a02029c81" x="108.302763" y="90.644984" style="fill: #1f77b4; stroke: #1f77b4"/>
     <use xlink:href="#m6a02029c81" x="113.94659" y="87.865338" style="fill: #1f77b4; stroke: #1f77b4"/>
     <use xlink:href="#m6a02029c81" x="117.797673" y="85.650809" style="fill: #1f77b4; stroke: #1f77b4"/>
     <use xlink:href="#m6a02029c81" x="121.794856" y="84.31818" style="fill: #1f77b4; stroke: #1f77b4"/>
     <use xlink:href="#m6a02029c81" x="125.604208" y="82.265725" style="fill: #1f77b4; stroke: #1f77b4"/>
     <use xlink:href="#m6a02029c81" x="129.949823" y="79.167848" style="fill: #1f77b4; stroke: #1f77b4"/>
     <use xlink:href="#m6a02029c81" x="134.834313" y="77.237239" style="fill: #1f77b4; stroke: #1f77b4"/>
     <use xlink:href="#m6a02029c81" x="138.230049" y="74.755175" style="fill: #1f77b4; stroke: #1f77b4"/>
     <use xlink:href="#m6a02029c81" x="143.646646" y="72.673511" style="fill: #1f77b4; stroke: #1f77b4"/>
     <use xlink:href="#m6a02029c81" x="149.132763" y="72.798977" style="fill: #1f77b4; stroke: #1f77b4"/>
     <use xlink:href="#m6a02029c81" x="152.46734" y="69.352212" style="fill: #1f77b4; stroke: #1f77b4"/>
     <use xlink:href="#m6a02029c81" x="159.606818" y="68.16102" style="fill: #1f77b4; stroke: #1f77b4"/>
     <use xlink:href="#m6a02029c81" x="162.764666" y="66.399874" style="fill: #1f77b4; stroke: #1f77b4"/>
     <use xlink:href="#m6a02029c81" x="167.839006" y="65.145289" style="fill: #1f77b4; stroke: #1f77b4"/>
     <use xlink:href="#m6a02029c81" x="173.603658" y="63.338502" style="fill: #1f77b4; stroke: #1f77b4"/>
     <use xlink:href="#m6a02029c81" x="177.489213" y="63.126007" style="fill: #1f77b4; stroke: #1f77b4"/>
     <use xlink:href="#m6a02029c81" x="184.47011" y="62.996451" style="fill: #1f77b4; stroke: #1f77b4"/>
     <use xlink:href="#m6a02029c81" x="190.036831" y="60.833377" style="fill: #1f77b4; stroke: #1f77b4"/>
     <use xlink:href="#m6a02029c81" x="194.056464" y="59.442675" style="fill: #1f77b4; stroke: #1f77b4"/>
     <use xlink:href="#m6a02029c81" x="198.940001" y="60.156158" style="fill: #1f77b4; stroke: #1f77b4"/>
     <use xlink:href="#m6a02029c81" x="204.203666" y="58.628879" style="fill: #1f77b4; stroke: #1f77b4"/>
     <use xlink:href="#m6a02029c81" x="209.558103" y="59.347705" style="fill: #1f77b4; stroke: #1f77b4"/>
     <use xlink:href="#m6a02029c81" x="215.582716" y="59.468207" style="fill: #1f77b4; stroke: #1f77b4"/>
     <use xlink:href="#m6a02029c81" x="221.726248" y="59.230122" style="fill: #1f77b4; stroke: #1f77b4"/>
     <use xlink:href="#m6a02029c81" x="225.870615" y="59.654204" style="fill: #1f77b4; stroke: #1f77b4"/>
     <use xlink:href="#m6a02029c81" x="139.761617" y="69.026902" style="fill: #1f77b4; stroke: #1f77b4"/>
     <use xlink:href="#m6a02029c81" x="144.425183" y="67.284463" style="fill: #1f77b4; stroke: #1f77b4"/>
     <use xlink:href="#m6a02029c81" x="148.910969" y="65.475321" style="fill: #1f77b4; stroke: #1f77b4"/>
     <use xlink:href="#m6a02029c81" x="157.117504" y="63.341765" style="fill: #1f77b4; stroke: #1f77b4"/>
     <use xlink:href="#m6a02029c81" x="160.98639" y="61.613172" style="fill: #1f77b4; stroke: #1f77b4"/>
     <use xlink:href="#m6a02029c81" x="166.998669" y="61.017249" style="fill: #1f77b4; stroke: #1f77b4"/>
     <use xlink:href="#m6a02029c81" x="173.020244" y="59.13351" style="fill: #1f77b4; stroke: #1f77b4"/>
     <use xlink:href="#m6a02029c81" x="178.87409" y="57.449879" style="fill: #1f77b4; stroke: #1f77b4"/>
     <use xlink:href="#m6a02029c81" x="186.219744" y="56.55743" style="fill: #1f77b4; stroke: #1f77b4"/>
     <use xlink:href="#m6a02029c81" x="193.233339" y="56.150733" style="fill: #1f77b4; stroke: #1f77b4"/>
     <use xlink:href="#m6a02029c81" x="199.461664" y="55.04209" style="fill: #1f77b4; stroke: #1f77b4"/>
     <use xlink:href="#m6a02029c81" x="205.805016" y="54.99445" style="fill: #1f77b4; stroke: #1f77b4"/>
     <use xlink:href="#m6a02029c81" x="212.103829" y="54.763685" style="fill: #1f77b4; stroke: #1f77b4"/>
     <use xlink:href="#m6a02029c81" x="219.739794" y="53.856" style="fill: #1f77b4; stroke: #1f77b4"/>
     <use xlink:href="#m6a02029c81" x="227.071997" y="54.344337" style="fill: #1f77b4; stroke: #1f77b4"/>
     <use xlink:href="#m6a02029c81" x="231.514771" y="54.942271" style="fill: #1f77b4; stroke: #1f77b4"/>
     <use xlink:href="#m6a02029c81" x="239.148748" y="55.283254" style="fill: #1f77b4; stroke: #1f77b4"/>
     <use xlink:href="#m6a02029c81" x="245.890377" y="55.581491" style="fill: #1f77b4; stroke: #1f77b4"/>
     <use xlink:href="#m6a02029c81" x="254.930154" y="56.702108" style="fill: #1f77b4; stroke: #1f77b4"/>
     <use xlink:href="#m6a02029c81" x="258.560166" y="57.973044" style="fill: #1f77b4; stroke: #1f77b4"/>
     <use xlink:href="#m6a02029c81" x="265.432095" y="58.252011" style="fill: #1f77b4; stroke: #1f77b4"/>
     <use xlink:href="#m6a02029c81" x="270.623483" y="60.363597" style="fill: #1f77b4; stroke: #1f77b4"/>
     <use xlink:href="#m6a02029c81" x="277.925977" y="61.3472" style="fill: #1f77b4; stroke: #1f77b4"/>
     <use xlink:href="#m6a02029c81" x="284.949836" y="63.244165" style="fill: #1f77b4; stroke: #1f77b4"/>
     <use xlink:href="#m6a02029c81" x="291.293616" y="65.376732" style="fill: #1f77b4; stroke: #1f77b4"/>
     <use xlink:href="#m6a02029c81" x="297.901774" y="66.598235" style="fill: #1f77b4; stroke: #1f77b4"/>
     <use xlink:href="#m6a02029c81" x="301.14246" y="69.884994" style="fill: #1f77b4; stroke: #1f77b4"/>
     <use xlink:href="#m6a02029c81" x="307.177337" y="71.636144" style="fill: #1f77b4; stroke: #1f77b4"/>
     <use xlink:href="#m6a02029c81" x="312.449395" y="75.362003" style="fill: #1f77b4; stroke: #1f77b4"/>
     <use xlink:href="#m6a02029c81" x="317.803946" y="77.530329" style="fill: #1f77b4; stroke: #1f77b4"/>
     <use xlink:href="#m6a02029c81" x="325.820467" y="79.73994" style="fill: #1f77b4; stroke: #1f77b4"/>
     <use xlink:href="#m6a02029c81" x="330.293673" y="84.274504" style="fill: #1f77b4; stroke: #1f77b4"/>
     <use xlink:href="#m6a02029c81" x="335.251327" y="86.356593" style="fill: #1f77b4; stroke: #1f77b4"/>
     <use xlink:href="#m6a02029c81" x="339.926898" y="89.704046" style="fill: #1f77b4; stroke: #1f77b4"/>
     <use xlink:href="#m6a02029c81" x="342.75456" y="94.564207" style="fill: #1f77b4; stroke: #1f77b4"/>
     <use xlink:href="#m6a02029c81" x="347.442859" y="98.854562" style="fill: #1f77b4; stroke: #1f77b4"/>
     <use xlink:href="#m6a02029c81" x="351.689509" y="101.07656" style="fill: #1f77b4; stroke: #1f77b4"/>
     <use xlink:href="#m6a02029c81" x="356.344436" y="106.255607" style="fill: #1f77b4; stroke: #1f77b4"/>
     <use xlink:href="#m6a02029c81" x="358.613434" y="110.092442" style="fill: #1f77b4; stroke: #1f77b4"/>
     <use xlink:href="#m6a02029c81" x="363.196346" y="114.022213" style="fill: #1f77b4; stroke: #1f77b4"/>
     <use xlink:href="#m6a02029c81" x="363.817697" y="119.056536" style="fill: #1f77b4; stroke: #1f77b4"/>
     <use xlink:href="#m6a02029c81" x="367.492626" y="120.729562" style="fill: #1f77b4; stroke: #1f77b4"/>
     <use xlink:href="#m6a02029c81" x="370.870888" y="126.225886" style="fill: #1f77b4; stroke: #1f77b4"/>
     <use xlink:href="#m6a02029c81" x="372.741232" y="130.88148" style="fill: #1f77b4; stroke: #1f77b4"/>
     <use xlink:href="#m6a02029c81" x="374.883558" y="135.242756" style="fill: #1f77b4; stroke: #1f77b4"/>
     <use xlink:href="#m6a02029c81" x="376.858566" y="140.374083" style="fill: #1f77b4; stroke: #1f77b4"/>
     <use xlink:href="#m6a02029c81" x="379.56422" y="144.680318" style="fill: #1f77b4; stroke: #1f77b4"/>
     <use xlink:href="#m6a02029c81" x="379.767062" y="150.086476" style="fill: #1f77b4; stroke: #1f77b4"/>
     <use xlink:href="#m6a02029c81" x="381.79106" y="154.31769" style="fill: #1f77b4; stroke: #1f77b4"/>
     <use xlink:href="#m6a02029c81" x="381.763403" y="159.647838" style="fill: #1f77b4; stroke: #1f77b4"/>
     <use xlink:href="#m6a02029c81" x="382.434517" y="162.957544" style="fill: #1f77b4; stroke: #1f77b4"/>
     <use xlink:href="#m6a02029c81" x="381.654896" y="168.295999" style="fill: #1f77b4; stroke: #1f77b4"/>
     <use xlink:href="#m6a02029c81" x="383.988601" y="171.572026" style="fill: #1f77b4; stroke: #1f77b4"/>
     <use xlink:href="#m6a02029c81" x="385.09821" y="176.82305" style="fill: #1f77b4; stroke: #1f77b4"/>
     <use xlink:href="#m6a02029c81" x="384.640072" y="181.923996" style="fill: #1f77b4; stroke: #1f77b4"/>
     <use xlink:href="#m6a02029c81" x="382.267707" y="187.335186" style="fill: #1f77b4; stroke: #1f77b4"/>
     <use xlink:href="#m6a02029c81" x="383.73263" y="191.885941" style="fill: #1f77b4; stroke: #1f77b4"/>
     <use xlink:href="#m6a02029c81" x="382.668546" y="195.728579" style="fill: #1f77b4; stroke: #1f77b4"/>
     <use xlink:href="#m6a02029c81" x="380.559591" y="200.30382" style="fill: #1f77b4; stroke: #1f77b4"/>
     <use xlink:href="#m6a02029c81" x="380.24164" y="204.848186" style="fill: #1f77b4; stroke: #1f77b4"/>
     <use xlink:href="#m6a02029c81" x="375.967728" y="208.814635" style="fill: #1f77b4; stroke: #1f77b4"/>
     <use xlink:href="#m6a02029c81" x="374.946524" y="213.268593" style="fill: #1f77b4; stroke: #1f77b4"/>
     <use xlink:href="#m6a02029c81" x="371.612407" y="218.007345" style="fill: #1f77b4; stroke: #1f77b4"/>
     <use xlink:href="#m6a02029c81" x="368.606276" y="222.732101" style="fill: #1f77b4; stroke: #1f77b4"/>
     <use xlink:href="#m6a02029c81" x="366.336161" y="226.470945" style="fill: #1f77b4; stroke: #1f77b4"/>
     <use xlink:href="#m6a02029c81" x="362.459097" y="229.725473" style="fill: #1f77b4; stroke: #1f77b4"/>
     <use xlink:href="#m6a02029c81" x="359.106636" y="234.15915" style="fill: #1f77b4; stroke: #1f77b4"/>
     <use xlink:href="#m6a02029c81" x="356.535946" y="237.195116" style="fill: #1f77b4; stroke: #1f77b4"/>
     <use xlink:href="#m6a02029c81" x="354.548703" y="240.665437" style="fill: #1f77b4; stroke: #1f77b4"/>
     <use xlink:href="#m6a02029c81" x="350.781854" y="243.521633" style="fill: #1f77b4; stroke: #1f77b4"/>
     <use xlink:href="#m6a02029c81" x="347.080057" y="247.909728" style="fill: #1f77b4; stroke: #1f77b4"/>
     <use xlink:href="#m6a02029c81" x="341.869372" y="250.660602" style="fill: #1f77b4; stroke: #1f77b4"/>
     <use xlink:href="#m6a02029c81" x="336.884061" y="254.658316" style="fill: #1f77b4; stroke: #1f77b4"/>
     <use xlink:href="#m6a02029c81" x="331.264294" y="259.147987" style="fill: #1f77b4; stroke: #1f77b4"/>
     <use xlink:href="#m6a02029c81" x="326.702107" y="263.276429" style="fill: #1f77b4; stroke: #1f77b4"/>
     <use xlink:href="#m6a02029c81" x="323.150204" y="265.460233" style="fill: #1f77b4; stroke: #1f77b4"/>
     <use xlink:href="#m6a02029c81" x="318.311715" y="268.173245" style="fill: #1f77b4; stroke: #1f77b4"/>
     <use xlink:href="#m6a02029c81" x="312.255554" y="271.457453" style="fill: #1f77b4; stroke: #1f77b4"/>
     <use xlink:href="#m6a02029c81" x="306.066381" y="273.015826" style="fill: #1f77b4; stroke: #1f77b4"/>
     <use xlink:href="#m6a02029c81" x="301.912785" y="276.020882" style="fill: #1f77b4; stroke: #1f77b4"/>
     <use xlink:href="#m6a02029c81" x="295.008469" y="279.06989" style="fill: #1f77b4; stroke: #1f77b4"/>
     <use xlink:href="#m6a02029c81" x="287.188566" y="282.840976" style="fill: #1f77b4; stroke: #1f77b4"/>
     <use xlink:href="#m6a02029c81" x="280.714404" y="284.201067" style="fill: #1f77b4; stroke: #1f77b4"/>
     <use xlink:href="#m6a02029c81" x="276.003309" y="286.361281" style="fill: #1f77b4; stroke: #1f77b4"/>
     <use xlink:href="#m6a02029c81" x="267.232739" y="287.9039" style="fill: #1f77b4; stroke: #1f77b4"/>
     <use xlink:href="#m6a02029c81" x="260.634911" y="289.852825" style="fill: #1f77b4; stroke: #1f77b4"/>
     <use xlink:href="#m6a02029c81" x="253.869961" y="291.827626" style="fill: #1f77b4; stroke: #1f77b4"/>
     <use xlink:href="#m6a02029c81" x="244.209326" y="292.184764" style="fill: #1f77b4; stroke: #1f77b4"/>
     <use xlink:href="#m6a02029c81" x="236.551831" y="293.165012" style="fill: #1f77b4; stroke: #1f77b4"/>
     <use xlink:href="#m6a02029c81" x="226.590915" y="295.776" style="fill: #1f77b4; stroke: #1f77b4"/>
     <use xlink:href="#m6a02029c81" x="216.637653" y="295.672114" style="fill: #1f77b4; stroke: #1f77b4"/>
     <use xlink:href="#m6a02029c81" x="205.895984" y="295.420815" style="fill: #1f77b4; stroke: #1f77b4"/>
     <use xlink:href="#m6a02029c81" x="191.645965" y="293.231611" style="fill: #1f77b4; stroke: #1f77b4"/>
     <use xlink:href="#m6a02029c81" x="178.304275" y="290.666172" style="fill: #1f77b4; stroke: #1f77b4"/>
     <use xlink:href="#m6a02029c81" x="163.24555" y="283.954986" style="fill: #1f77b4; stroke: #1f77b4"/>
     <use xlink:href="#m6a02029c81" x="143.489477" y="272.884098" style="fill: #1f77b4; stroke: #1f77b4"/>
     <use xlink:href="#m6a02029c81" x="130.177825" y="253.16937" style="fill: #1f77b4; stroke: #1f77b4"/>
     <use xlink:href="#m6a02029c81" x="134.360211" y="218.03899" style="fill: #1f77b4; stroke: #1f77b4"/>
     <use xlink:href="#m6a02029c81" x="181.702672" y="193.908245" style="fill: #1f77b4; stroke: #1f77b4"/>
     <use xlink:href="#m6a02029c81" x="237.97967" y="205.396228" style="fill: #1f77b4; stroke: #1f77b4"/>
    </g>
   </g>
   <g id="line2d_12">
    <path d="M 152.782675 270.387869 
L 146.859247 268.610195 
L 141.052666 266.65238 
L 135.374117 264.518173 
L 129.834541 262.211668 
L 124.444613 259.737287 
L 119.214717 257.099777 
L 114.154934 254.304201 
L 109.275017 251.355922 
L 104.584371 248.260603 
L 100.092042 245.024186 
L 95.806691 241.652888 
L 91.736584 238.153185 
L 87.88957 234.531799 
L 84.273074 230.79569 
L 80.894073 226.952036 
L 77.75909 223.008226 
L 75.220921 219.481187 
L 72.877975 215.888457 
L 70.733716 212.235325 
L 68.79132 208.527168 
L 67.053661 204.769445 
L 65.523316 200.96769 
L 64.202554 197.127499 
L 63.093335 193.254527 
L 62.197309 189.354477 
L 61.515811 185.433092 
L 61.04986 181.496149 
L 60.800159 177.549446 
L 60.76709 173.598795 
L 60.950717 169.650016 
L 61.350785 165.708927 
L 61.96672 161.781333 
L 62.797629 157.87302 
L 63.842304 153.989748 
L 65.099219 150.137238 
L 66.566539 146.321167 
L 68.242117 142.547158 
L 70.123498 138.820773 
L 72.207925 135.147505 
L 74.492342 131.532766 
L 76.973398 127.981887 
L 79.647451 124.500099 
L 82.934786 120.612097 
L 86.462757 116.828524 
L 90.224596 113.156669 
L 94.213084 109.603602 
L 98.420566 106.176166 
L 102.838965 102.880965 
L 107.459798 99.724346 
L 112.27419 96.712391 
L 117.272897 93.850904 
L 122.446316 91.145401 
L 127.784509 88.601095 
L 133.277222 86.222894 
L 138.9139 84.015382 
L 144.683713 81.982818 
L 150.575573 80.129124 
L 156.578157 78.457877 
L 162.679928 76.972305 
L 168.869157 75.675277 
L 175.133949 74.569302 
L 181.46226 73.656519 
L 187.841924 72.938698 
L 194.260675 72.417232 
L 200.706173 72.093137 
L 207.166025 71.967052 
L 213.627808 72.03923 
L 220.079097 72.309548 
L 226.507485 72.777498 
L 232.900609 73.442194 
L 239.246175 74.302371 
L 245.531975 75.356388 
L 251.745921 76.602231 
L 257.876058 78.037518 
L 263.910594 79.6595 
L 269.83792 81.465072 
L 275.646632 83.450774 
L 281.325553 85.612799 
L 286.863758 87.947002 
L 292.250587 90.448907 
L 297.475676 93.113713 
L 302.528967 95.936308 
L 307.400734 98.911275 
L 312.0816 102.032905 
L 316.562554 105.295205 
L 320.834969 108.691913 
L 324.890617 112.216506 
L 328.721689 115.862217 
L 332.320805 119.622046 
L 335.681034 123.48877 
L 338.795899 127.454965 
L 341.315402 131.000997 
L 343.638727 134.612141 
L 345.762445 138.283085 
L 347.68342 142.008429 
L 349.398812 145.782694 
L 350.906088 149.600328 
L 352.203018 153.455714 
L 353.287682 157.343181 
L 354.158472 161.25701 
L 354.814097 165.191441 
L 355.253579 169.140687 
L 355.476261 173.098936 
L 355.481804 177.060364 
L 355.270188 181.019141 
L 354.841715 184.969443 
L 354.197002 188.905455 
L 353.336987 192.821385 
L 352.262926 196.711471 
L 350.976387 200.569986 
L 349.479253 204.391251 
L 347.773716 208.169643 
L 345.862274 211.899598 
L 343.74773 215.575627 
L 341.433185 219.192319 
L 338.922034 222.744348 
L 336.217962 226.226486 
L 332.896468 230.113919 
L 329.334557 233.895898 
L 325.539059 237.565148 
L 321.517254 241.114613 
L 317.276857 244.537466 
L 312.826004 247.827122 
L 308.173235 250.977254 
L 303.327478 253.981801 
L 298.298032 256.834981 
L 293.094551 259.531305 
L 287.727022 262.065583 
L 282.205748 264.432937 
L 276.54133 266.628809 
L 270.74464 268.648971 
L 268.539044 269.360427 
L 268.539044 269.360427 
" clip-path="url(#p17f2dfeddb)" style="fill: none; stroke: #d62728; stroke-width: 1.5; stroke-linecap: square"/>
   </g>
   <g id="patch_3">
    <path d="M 44.210938 307.872 
L 44.210938 41.76 
" style="fill: none; stroke: #000000; stroke-width: 0.8; stroke-linejoin: miter; stroke-linecap: square"/>
   </g>
   <g id="patch_4">
    <path d="M 401.330938 307.872 
L 401.330938 41.76 
" style="fill: none; stroke: #000000; stroke-width: 0.8; stroke-linejoin: miter; stroke-linecap: square"/>
   </g>
   <g id="patch_5">
    <path d="M 44.210938 307.872 
L 401.330937 307.872 
" style="fill: none; stroke: #000000; stroke-width: 0.8; stroke-linejoin: miter; stroke-linecap: square"/>
   </g>
   <g id="patch_6">
    <path d="M 44.210938 41.76 
L 401.330937 41.76 
" style="fill: none; stroke: #000000; stroke-width: 0.8; stroke-linejoin: miter; stroke-linecap: square"/>
   </g>
   <g id="text_13">
    <g id="patch_7">
     <path d="M 419.186937 79.941538 
L 579.29475 79.941538 
Q 583.29475 79.941538 583.29475 75.941538 
L 583.29475 55.0656 
Q 583.29475 51.0656 579.29475 51.0656 
L 419.186937 51.0656 
Q 415.186937 51.0656 415.186937 55.0656 
L 415.186937 75.941538 
Q 415.186937 79.941538 419.186937 79.941538 
z
" style="fill: #ffffff; opacity: 0.5; stroke: #000000; stroke-linejoin: miter"/>
    </g>
    <!-- Warning: fit failed. lmfit was not -->
    <g transform="translate(419.186937 62.664038) scale(0.1 -0.1)">
     <defs>
      <path id="DejaVuSans-57" d="M 213 4666 
L 850 4666 
L 1831 722 
L 2809 4666 
L 3519 4666 
L 4500 722 
L 5478 4666 
L 6119 4666 
L 4947 0 
L 4153 0 
L 3169 4050 
L 2175 0 
L 1381 0 
L 213 4666 
z
" transform="scale(0.015625)"/>
      <path id="DejaVuSans-61" d="M 2194 1759 
Q 1497 1759 1228 1600 
Q 959 1441 959 1056 
Q 959 750 1161 570 
Q 1363 391 1709 391 
Q 2188 391 2477 730 
Q 2766 1069 2766 1631 
L 2766 1759 
L 2194 1759 
z
M 3341 1997 
L 3341 0 
L 2766 0 
L 2766 531 
Q 2569 213 2275 61 
Q 1981 -91 1556 -91 
Q 1019 -91 701 211 
Q 384 513 384 1019 
Q 384 1609 779 1909 
Q 1175 2209 1959 2209 
L 2766 2209 
L 2766 2266 
Q 2766 2663 2505 2880 
Q 2244 3097 1772 3097 
Q 1472 3097 1187 3025 
Q 903 2953 641 2809 
L 641 3341 
Q 956 3463 1253 3523 
Q 1550 3584 1831 3584 
Q 2591 3584 2966 3190 
Q 3341 2797 3341 1997 
z
" transform="scale(0.015625)"/>
      <path id="DejaVuSans-72" d="M 2631 2963 
Q 2534 3019 2420 3045 
Q 2306 3072 2169 3072 
Q 1681 3072 1420 2755 
Q 1159 2438 1159 1844 
L 1159 0 
L 581 0 
L 581 3500 
L 1159 3500 
L 1159 2956 
Q 1341 3275 1631 3429 
Q 1922 3584 2338 3584 
Q 2397 3584 2469 3576 
Q 2541 3569 2628 3553 
L 2631 2963 
z
" transform="scale(0.015625)"/>
      <path id="DejaVuSans-6e" d="M 3513 2113 
L 3513 0 
L 2938 0 
L 2938 2094 
Q 2938 2591 2744 2837 
Q 2550 3084 2163 3084 
Q 1697 3084 1428 2787 
Q 1159 2491 1159 1978 
L 1159 0 
L 581 0 
L 581 3500 
L 1159 3500 
L 1159 2956 
Q 1366 3272 1645 3428 
Q 1925 3584 2291 3584 
Q 2894 3584 3203 3211 
Q 3513 2838 3513 2113 
z
" transform="scale(0.015625)"/>
      <path id="DejaVuSans-69" d="M 603 3500 
L 1178 3500 
L 1178 0 
L 603 0 
L 603 3500 
z
M 603 4863 
L 1178 4863 
L 1178 4134 
L 603 4134 
L 603 4863 
z
" transform="scale(0.015625)"/>
      <path id="DejaVuSans-67" d="M 2906 1791 
Q 2906 2416 2648 2759 
Q 2391 3103 1925 3103 
Q 1463 3103 1205 2759 
Q 947 2416 947 1791 
Q 947 1169 1205 825 
Q 1463 481 1925 481 
Q 2391 481 2648 825 
Q 2906 1169 2906 1791 
z
M 3481 434 
Q 3481 -459 3084 -895 
Q 2688 -1331 1869 -1331 
Q 1566 -1331 1297 -1286 
Q 1028 -1241 775 -1147 
L 775 -588 
Q 1028 -725 1275 -790 
Q 1522 -856 1778 -856 
Q 2344 -856 2625 -561 
Q 2906 -266 2906 331 
L 2906 616 
Q 2728 306 2450 153 
Q 2172 0 1784 0 
Q 1141 0 747 490 
Q 353 981 353 1791 
Q 353 2603 747 3093 
Q 1141 3584 1784 3584 
Q 2172 3584 2450 3431 
Q 2728 3278 2906 2969 
L 2906 3500 
L 3481 3500 
L 3481 434 
z
" transform="scale(0.015625)"/>
      <path id="DejaVuSans-3a" d="M 750 794 
L 1409 794 
L 1409 0 
L 750 0 
L 750 794 
z
M 750 3309 
L 1409 3309 
L 1409 2516 
L 750 2516 
L 750 3309 
z
" transform="scale(0.015625)"/>
      <path id="DejaVuSans-66" d="M 2375 4863 
L 2375 4384 
L 1825 4384 
Q 1516 4384 1395 4259 
Q 1275 4134 1275 3809 
L 1275 3500 
L 2222 3500 
L 2222 3053 
L 1275 3053 
L 1275 0 
L 697 0 
L 697 3053 
L 147 3053 
L 147 3500 
L 697 3500 
L 697 3744 
Q 697 4328 969 4595 
Q 1241 4863 1831 4863 
L 2375 4863 
z
" transform="scale(0.015625)"/>
      <path id="DejaVuSans-74" d="M 1172 4494 
L 1172 3500 
L 2356 3500 
L 2356 3053 
L 1172 3053 
L 1172 1153 
Q 1172 725 1289 603 
Q 1406 481 1766 481 
L 2356 481 
L 2356 0 
L 1766 0 
Q 1100 0 847 248 
Q 594 497 594 1153 
L 594 3053 
L 172 3053 
L 172 3500 
L 594 3500 
L 594 4494 
L 1172 4494 
z
" transform="scale(0.015625)"/>
      <path id="DejaVuSans-6c" d="M 603 4863 
L 1178 4863 
L 1178 0 
L 603 0 
L 603 4863 
z
" transform="scale(0.015625)"/>
      <path id="DejaVuSans-64" d="M 2906 2969 
L 2906 4863 
L 3481 4863 
L 3481 0 
L 2906 0 
L 2906 525 
Q 2725 213 2448 61 
Q 2172 -91 1784 -91 
Q 1150 -91 751 415 
Q 353 922 353 1747 
Q 353 2572 751 3078 
Q 1150 3584 1784 3584 
Q 2172 3584 2448 3432 
Q 2725 3281 2906 2969 
z
M 947 1747 
Q 947 1113 1208 752 
Q 1469 391 1925 391 
Q 2381 391 2643 752 
Q 2906 1113 2906 1747 
Q 2906 2381 2643 2742 
Q 2381 3103 1925 3103 
Q 1469 3103 1208 2742 
Q 947 2381 947 1747 
z
" transform="scale(0.015625)"/>
      <path id="DejaVuSans-2e" d="M 684 794 
L 1344 794 
L 1344 0 
L 684 0 
L 684 794 
z
" transform="scale(0.015625)"/>
      <path id="DejaVuSans-77" d="M 269 3500 
L 844 3500 
L 1563 769 
L 2278 3500 
L 2956 3500 
L 3675 769 
L 4391 3500 
L 4966 3500 
L 4050 0 
L 3372 0 
L 2619 2869 
L 1863 0 
L 1184 0 
L 269 3500 
z
" transform="scale(0.015625)"/>
      <path id="DejaVuSans-73" d="M 2834 3397 
L 2834 2853 
Q 2591 2978 2328 3040 
Q 2066 3103 1784 3103 
Q 1356 3103 1142 2972 
Q 928 2841 928 2578 
Q 928 2378 1081 2264 
Q 1234 2150 1697 2047 
L 1894 2003 
Q 2506 1872 2764 1633 
Q 3022 1394 3022 966 
Q 3022 478 2636 193 
Q 2250 -91 1575 -91 
Q 1294 -91 989 -36 
Q 684 19 347 128 
L 347 722 
Q 666 556 975 473 
Q 1284 391 1588 391 
Q 1994 391 2212 530 
Q 2431 669 2431 922 
Q 2431 1156 2273 1281 
Q 2116 1406 1581 1522 
L 1381 1569 
Q 847 1681 609 1914 
Q 372 2147 372 2553 
Q 372 3047 722 3315 
Q 1072 3584 1716 3584 
Q 2034 3584 2315 3537 
Q 2597 3491 2834 3397 
z
" transform="scale(0.015625)"/>
      <path id="DejaVuSans-6f" d="M 1959 3097 
Q 1497 3097 1228 2736 
Q 959 2375 959 1747 
Q 959 1119 1226 758 
Q 1494 397 1959 397 
Q 2419 397 2687 759 
Q 2956 1122 2956 1747 
Q 2956 2369 2687 2733 
Q 2419 3097 1959 3097 
z
M 1959 3584 
Q 2709 3584 3137 3096 
Q 3566 2609 3566 1747 
Q 3566 888 3137 398 
Q 2709 -91 1959 -91 
Q 1206 -91 779 398 
Q 353 888 353 1747 
Q 353 2609 779 3096 
Q 1206 3584 1959 3584 
z
" transform="scale(0.015625)"/>
     </defs>
     <use xlink:href="#DejaVuSans-57"/>
     <use xlink:href="#DejaVuSans-61" x="92.501953"/>
     <use xlink:href="#DejaVuSans-72" x="153.78125"/>
     <use xlink:href="#DejaVuSans-6e" x="193.144531"/>
     <use xlink:href="#DejaVuSans-69" x="256.523438"/>
     <use xlink:href="#DejaVuSans-6e" x="284.306641"/>
     <use xlink:href="#DejaVuSans-67" x="347.685547"/>
     <use xlink:href="#DejaVuSans-3a" x="411.162109"/>
     <use xlink:href="#DejaVuSans-20" x="444.853516"/>
     <use xlink:href="#DejaVuSans-66" x="476.640625"/>
     <use xlink:href="#DejaVuSans-69" x="511.845703"/>
     <use xlink:href="#DejaVuSans-74" x="539.628906"/>
     <use xlink:href="#DejaVuSans-20" x="578.837891"/>
     <use xlink:href="#DejaVuSans-66" x="610.625"/>
     <use xlink:href="#DejaVuSans-61" x="645.830078"/>
     <use xlink:href="#DejaVuSans-69" x="707.109375"/>
     <use xlink:href="#DejaVuSans-6c" x="734.892578"/>
     <use xlink:href="#DejaVuSans-65" x="762.675781"/>
     <use xlink:href="#DejaVuSans-64" x="824.199219"/>
     <use xlink:href="#DejaVuSans-2e" x="887.675781"/>
     <use xlink:href="#DejaVuSans-20" x="919.462891"/>
     <use xlink:href="#DejaVuSans-6c" x="951.25"/>
     <use xlink:href="#DejaVuSans-6d" x="979.033203"/>
     <use xlink:href="#DejaVuSans-66" x="1076.445312"/>
     <use xlink:href="#DejaVuSans-69" x="1111.650391"/>
     <use xlink:href="#DejaVuSans-74" x="1139.433594"/>
     <use xlink:href="#DejaVuSans-20" x="1178.642578"/>
     <use xlink:href="#DejaVuSans-77" x="1210.429688"/>
     <use xlink:href="#DejaVuSans-61" x="1292.216797"/>
     <use xlink:href="#DejaVuSans-73" x="1353.496094"/>
     <use xlink:href="#DejaVuSans-20" x="1405.595703"/>
     <use xlink:href="#DejaVuSans-6e" x="1437.382812"/>
     <use xlink:href="#DejaVuSans-6f" x="1500.761719"/>
     <use xlink:href="#DejaVuSans-74" x="1561.943359"/>
    </g>
    <!-- able to fit the data. -->
    <g transform="translate(419.186937 73.86185) scale(0.1 -0.1)">
     <defs>
      <path id="DejaVuSans-62" d="M 3116 1747 
Q 3116 2381 2855 2742 
Q 2594 3103 2138 3103 
Q 1681 3103 1420 2742 
Q 1159 2381 1159 1747 
Q 1159 1113 1420 752 
Q 1681 391 2138 391 
Q 2594 391 2855 752 
Q 3116 1113 3116 1747 
z
M 1159 2969 
Q 1341 3281 1617 3432 
Q 1894 3584 2278 3584 
Q 2916 3584 3314 3078 
Q 3713 2572 3713 1747 
Q 3713 922 3314 415 
Q 2916 -91 2278 -91 
Q 1894 -91 1617 61 
Q 1341 213 1159 525 
L 1159 0 
L 581 0 
L 581 4863 
L 1159 4863 
L 1159 2969 
z
" transform="scale(0.015625)"/>
      <path id="DejaVuSans-68" d="M 3513 2113 
L 3513 0 
L 2938 0 
L 2938 2094 
Q 2938 2591 2744 2837 
Q 2550 3084 2163 3084 
Q 1697 3084 1428 2787 
Q 1159 2491 1159 1978 
L 1159 0 
L 581 0 
L 581 4863 
L 1159 4863 
L 1159 2956 
Q 1366 3272 1645 3428 
Q 1925 3584 2291 3584 
Q 2894 3584 3203 3211 
Q 3513 2838 3513 2113 
z
" transform="scale(0.015625)"/>
     </defs>
     <use xlink:href="#DejaVuSans-61"/>
     <use xlink:href="#DejaVuSans-62" x="61.279297"/>
     <use xlink:href="#DejaVuSans-6c" x="124.755859"/>
     <use xlink:href="#DejaVuSans-65" x="152.539062"/>
     <use xlink:href="#DejaVuSans-20" x="214.0625"/>
     <use xlink:href="#DejaVuSans-74" x="245.849609"/>
     <use xlink:href="#DejaVuSans-6f" x="285.058594"/>
     <use xlink:href="#DejaVuSans-20" x="346.240234"/>
     <use xlink:href="#DejaVuSans-66" x="378.027344"/>
     <use xlink:href="#DejaVuSans-69" x="413.232422"/>
     <use xlink:href="#DejaVuSans-74" x="441.015625"/>
     <use xlink:href="#DejaVuSans-20" x="480.224609"/>
     <use xlink:href="#DejaVuSans-74" x="512.011719"/>
     <use xlink:href="#DejaVuSans-68" x="551.220703"/>
     <use xlink:href="#DejaVuSans-65" x="614.599609"/>
     <use xlink:href="#DejaVuSans-20" x="676.123047"/>
     <use xlink:href="#DejaVuSans-64" x="707.910156"/>
     <use xlink:href="#DejaVuSans-61" x="771.386719"/>
     <use xlink:href="#DejaVuSans-74" x="832.666016"/>
     <use xlink:href="#DejaVuSans-61" x="871.875"/>
     <use xlink:href="#DejaVuSans-2e" x="933.154297"/>
    </g>
   </g>
  </g>
  <g id="text_14">
   <!-- S21 resonator spectroscopy -->
   <g transform="translate(133.226562 16.318125) scale(0.12 -0.12)">
    <defs>
     <path id="DejaVuSans-53" d="M 3425 4513 
L 3425 3897 
Q 3066 4069 2747 4153 
Q 2428 4238 2131 4238 
Q 1616 4238 1336 4038 
Q 1056 3838 1056 3469 
Q 1056 3159 1242 3001 
Q 1428 2844 1947 2747 
L 2328 2669 
Q 3034 2534 3370 2195 
Q 3706 1856 3706 1288 
Q 3706 609 3251 259 
Q 2797 -91 1919 -91 
Q 1588 -91 1214 -16 
Q 841 59 441 206 
L 441 856 
Q 825 641 1194 531 
Q 1563 422 1919 422 
Q 2459 422 2753 634 
Q 3047 847 3047 1241 
Q 3047 1584 2836 1778 
Q 2625 1972 2144 2069 
L 1759 2144 
Q 1053 2284 737 2584 
Q 422 2884 422 3419 
Q 422 4038 858 4394 
Q 1294 4750 2059 4750 
Q 2388 4750 2728 4690 
Q 3069 4631 3425 4513 
z
" transform="scale(0.015625)"/>
     <path id="DejaVuSans-70" d="M 1159 525 
L 1159 -1331 
L 581 -1331 
L 581 3500 
L 1159 3500 
L 1159 2969 
Q 1341 3281 1617 3432 
Q 1894 3584 2278 3584 
Q 2916 3584 3314 3078 
Q 3713 2572 3713 1747 
Q 3713 922 3314 415 
Q 2916 -91 2278 -91 
Q 1894 -91 1617 61 
Q 1341 213 1159 525 
z
M 3116 1747 
Q 3116 2381 2855 2742 
Q 2594 3103 2138 3103 
Q 1681 3103 1420 2742 
Q 1159 2381 1159 1747 
Q 1159 1113 1420 752 
Q 1681 391 2138 391 
Q 2594 391 2855 752 
Q 3116 1113 3116 1747 
z
" transform="scale(0.015625)"/>
     <path id="DejaVuSans-63" d="M 3122 3366 
L 3122 2828 
Q 2878 2963 2633 3030 
Q 2388 3097 2138 3097 
Q 1578 3097 1268 2742 
Q 959 2388 959 1747 
Q 959 1106 1268 751 
Q 1578 397 2138 397 
Q 2388 397 2633 464 
Q 2878 531 3122 666 
L 3122 134 
Q 2881 22 2623 -34 
Q 2366 -91 2075 -91 
Q 1284 -91 818 406 
Q 353 903 353 1747 
Q 353 2603 823 3093 
Q 1294 3584 2113 3584 
Q 2378 3584 2631 3529 
Q 2884 3475 3122 3366 
z
" transform="scale(0.015625)"/>
     <path id="DejaVuSans-79" d="M 2059 -325 
Q 1816 -950 1584 -1140 
Q 1353 -1331 966 -1331 
L 506 -1331 
L 506 -850 
L 844 -850 
Q 1081 -850 1212 -737 
Q 1344 -625 1503 -206 
L 1606 56 
L 191 3500 
L 800 3500 
L 1894 763 
L 2988 3500 
L 3597 3500 
L 2059 -325 
z
" transform="scale(0.015625)"/>
    </defs>
    <use xlink:href="#DejaVuSans-53"/>
    <use xlink:href="#DejaVuSans-32" x="63.476562"/>
    <use xlink:href="#DejaVuSans-31" x="127.099609"/>
    <use xlink:href="#DejaVuSans-20" x="190.722656"/>
    <use xlink:href="#DejaVuSans-72" x="222.509766"/>
    <use xlink:href="#DejaVuSans-65" x="261.373047"/>
    <use xlink:href="#DejaVuSans-73" x="322.896484"/>
    <use xlink:href="#DejaVuSans-6f" x="374.996094"/>
    <use xlink:href="#DejaVuSans-6e" x="436.177734"/>
    <use xlink:href="#DejaVuSans-61" x="499.556641"/>
    <use xlink:href="#DejaVuSans-74" x="560.835938"/>
    <use xlink:href="#DejaVuSans-6f" x="600.044922"/>
    <use xlink:href="#DejaVuSans-72" x="661.226562"/>
    <use xlink:href="#DejaVuSans-20" x="702.339844"/>
    <use xlink:href="#DejaVuSans-73" x="734.126953"/>
    <use xlink:href="#DejaVuSans-70" x="786.226562"/>
    <use xlink:href="#DejaVuSans-65" x="849.703125"/>
    <use xlink:href="#DejaVuSans-63" x="911.226562"/>
    <use xlink:href="#DejaVuSans-74" x="966.207031"/>
    <use xlink:href="#DejaVuSans-72" x="1005.416016"/>
    <use xlink:href="#DejaVuSans-6f" x="1044.279297"/>
    <use xlink:href="#DejaVuSans-73" x="1105.460938"/>
    <use xlink:href="#DejaVuSans-63" x="1157.560547"/>
    <use xlink:href="#DejaVuSans-6f" x="1212.541016"/>
    <use xlink:href="#DejaVuSans-70" x="1273.722656"/>
    <use xlink:href="#DejaVuSans-79" x="1337.199219"/>
   </g>
   <!-- tuid: 20231227-125744-317-a1f9c6 -->
   <g transform="translate(109.52 29.7555) scale(0.12 -0.12)">
    <defs>
     <path id="DejaVuSans-75" d="M 544 1381 
L 544 3500 
L 1119 3500 
L 1119 1403 
Q 1119 906 1312 657 
Q 1506 409 1894 409 
Q 2359 409 2629 706 
Q 2900 1003 2900 1516 
L 2900 3500 
L 3475 3500 
L 3475 0 
L 2900 0 
L 2900 538 
Q 2691 219 2414 64 
Q 2138 -91 1772 -91 
Q 1169 -91 856 284 
Q 544 659 544 1381 
z
M 1991 3584 
L 1991 3584 
z
" transform="scale(0.015625)"/>
     <path id="DejaVuSans-33" d="M 2597 2516 
Q 3050 2419 3304 2112 
Q 3559 1806 3559 1356 
Q 3559 666 3084 287 
Q 2609 -91 1734 -91 
Q 1441 -91 1130 -33 
Q 819 25 488 141 
L 488 750 
Q 750 597 1062 519 
Q 1375 441 1716 441 
Q 2309 441 2620 675 
Q 2931 909 2931 1356 
Q 2931 1769 2642 2001 
Q 2353 2234 1838 2234 
L 1294 2234 
L 1294 2753 
L 1863 2753 
Q 2328 2753 2575 2939 
Q 2822 3125 2822 3475 
Q 2822 3834 2567 4026 
Q 2313 4219 1838 4219 
Q 1578 4219 1281 4162 
Q 984 4106 628 3988 
L 628 4550 
Q 988 4650 1302 4700 
Q 1616 4750 1894 4750 
Q 2613 4750 3031 4423 
Q 3450 4097 3450 3541 
Q 3450 3153 3228 2886 
Q 3006 2619 2597 2516 
z
" transform="scale(0.015625)"/>
     <path id="DejaVuSans-37" d="M 525 4666 
L 3525 4666 
L 3525 4397 
L 1831 0 
L 1172 0 
L 2766 4134 
L 525 4134 
L 525 4666 
z
" transform="scale(0.015625)"/>
     <path id="DejaVuSans-34" d="M 2419 4116 
L 825 1625 
L 2419 1625 
L 2419 4116 
z
M 2253 4666 
L 3047 4666 
L 3047 1625 
L 3713 1625 
L 3713 1100 
L 3047 1100 
L 3047 0 
L 2419 0 
L 2419 1100 
L 313 1100 
L 313 1709 
L 2253 4666 
z
" transform="scale(0.015625)"/>
     <path id="DejaVuSans-39" d="M 703 97 
L 703 672 
Q 941 559 1184 500 
Q 1428 441 1663 441 
Q 2288 441 2617 861 
Q 2947 1281 2994 2138 
Q 2813 1869 2534 1725 
Q 2256 1581 1919 1581 
Q 1219 1581 811 2004 
Q 403 2428 403 3163 
Q 403 3881 828 4315 
Q 1253 4750 1959 4750 
Q 2769 4750 3195 4129 
Q 3622 3509 3622 2328 
Q 3622 1225 3098 567 
Q 2575 -91 1691 -91 
Q 1453 -91 1209 -44 
Q 966 3 703 97 
z
M 1959 2075 
Q 2384 2075 2632 2365 
Q 2881 2656 2881 3163 
Q 2881 3666 2632 3958 
Q 2384 4250 1959 4250 
Q 1534 4250 1286 3958 
Q 1038 3666 1038 3163 
Q 1038 2656 1286 2365 
Q 1534 2075 1959 2075 
z
" transform="scale(0.015625)"/>
     <path id="DejaVuSans-36" d="M 2113 2584 
Q 1688 2584 1439 2293 
Q 1191 2003 1191 1497 
Q 1191 994 1439 701 
Q 1688 409 2113 409 
Q 2538 409 2786 701 
Q 3034 994 3034 1497 
Q 3034 2003 2786 2293 
Q 2538 2584 2113 2584 
z
M 3366 4563 
L 3366 3988 
Q 3128 4100 2886 4159 
Q 2644 4219 2406 4219 
Q 1781 4219 1451 3797 
Q 1122 3375 1075 2522 
Q 1259 2794 1537 2939 
Q 1816 3084 2150 3084 
Q 2853 3084 3261 2657 
Q 3669 2231 3669 1497 
Q 3669 778 3244 343 
Q 2819 -91 2113 -91 
Q 1303 -91 875 529 
Q 447 1150 447 2328 
Q 447 3434 972 4092 
Q 1497 4750 2381 4750 
Q 2619 4750 2861 4703 
Q 3103 4656 3366 4563 
z
" transform="scale(0.015625)"/>
    </defs>
    <use xlink:href="#DejaVuSans-74"/>
    <use xlink:href="#DejaVuSans-75" x="39.208984"/>
    <use xlink:href="#DejaVuSans-69" x="102.587891"/>
    <use xlink:href="#DejaVuSans-64" x="130.371094"/>
    <use xlink:href="#DejaVuSans-3a" x="193.847656"/>
    <use xlink:href="#DejaVuSans-20" x="227.539062"/>
    <use xlink:href="#DejaVuSans-32" x="259.326172"/>
    <use xlink:href="#DejaVuSans-30" x="322.949219"/>
    <use xlink:href="#DejaVuSans-32" x="386.572266"/>
    <use xlink:href="#DejaVuSans-33" x="450.195312"/>
    <use xlink:href="#DejaVuSans-31" x="513.818359"/>
    <use xlink:href="#DejaVuSans-32" x="577.441406"/>
    <use xlink:href="#DejaVuSans-32" x="641.064453"/>
    <use xlink:href="#DejaVuSans-37" x="704.6875"/>
    <use xlink:href="#DejaVuSans-2d" x="768.310547"/>
    <use xlink:href="#DejaVuSans-31" x="804.394531"/>
    <use xlink:href="#DejaVuSans-32" x="868.017578"/>
    <use xlink:href="#DejaVuSans-35" x="931.640625"/>
    <use xlink:href="#DejaVuSans-37" x="995.263672"/>
    <use xlink:href="#DejaVuSans-34" x="1058.886719"/>
    <use xlink:href="#DejaVuSans-34" x="1122.509766"/>
    <use xlink:href="#DejaVuSans-2d" x="1186.132812"/>
    <use xlink:href="#DejaVuSans-33" x="1222.216797"/>
    <use xlink:href="#DejaVuSans-31" x="1285.839844"/>
    <use xlink:href="#DejaVuSans-37" x="1349.462891"/>
    <use xlink:href="#DejaVuSans-2d" x="1413.085938"/>
    <use xlink:href="#DejaVuSans-61" x="1449.169922"/>
    <use xlink:href="#DejaVuSans-31" x="1510.449219"/>
    <use xlink:href="#DejaVuSans-66" x="1574.072266"/>
    <use xlink:href="#DejaVuSans-39" x="1609.277344"/>
    <use xlink:href="#DejaVuSans-63" x="1672.900391"/>
    <use xlink:href="#DejaVuSans-36" x="1727.880859"/>
   </g>
  </g>
 </g>
 <defs>
  <clipPath id="p17f2dfeddb">
   <rect x="44.210938" y="41.76" width="357.12" height="266.112"/>
  </clipPath>
 </defs>
</svg>
