<?xml version="1.0" encoding="utf-8" standalone="no"?>
<!DOCTYPE svg PUBLIC "-//W3C//DTD SVG 1.1//EN"
  "http://www.w3.org/Graphics/SVG/1.1/DTD/svg11.dtd">
<svg xmlns:xlink="http://www.w3.org/1999/xlink" width="574.565062pt" height="345.42825pt" viewBox="0 0 574.565062 345.42825" xmlns="http://www.w3.org/2000/svg" version="1.1">
 <metadata>
  <rdf:RDF xmlns:dc="http://purl.org/dc/elements/1.1/" xmlns:cc="http://creativecommons.org/ns#" xmlns:rdf="http://www.w3.org/1999/02/22-rdf-syntax-ns#">
   <cc:Work>
    <dc:type rdf:resource="http://purl.org/dc/dcmitype/StillImage"/>
    <dc:date>2023-12-27T19:34:09.446853</dc:date>
    <dc:format>image/svg+xml</dc:format>
    <dc:creator>
     <cc:Agent>
      <dc:title>Matplotlib v3.8.2, https://matplotlib.org/</dc:title>
     </cc:Agent>
    </dc:creator>
   </cc:Work>
  </rdf:RDF>
 </metadata>
 <defs>
  <style type="text/css">*{stroke-linejoin: round; stroke-linecap: butt}</style>
 </defs>
 <g id="figure_1">
  <g id="patch_1">
   <path d="M 0 345.42825 
L 574.565062 345.42825 
L 574.565062 -0 
L 0 -0 
L 0 345.42825 
z
" style="fill: none; opacity: 0"/>
  </g>
  <g id="axes_1">
   <g id="patch_2">
    <path d="M 47.389063 307.872 
L 404.509063 307.872 
L 404.509063 41.76 
L 47.389063 41.76 
z
" style="fill: #ffffff"/>
   </g>
   <g id="matplotlib.axis_1">
    <g id="xtick_1">
     <g id="line2d_1">
      <defs>
       <path id="m0156e3ebe2" d="M 0 0 
L 0 3.5 
" style="stroke: #000000; stroke-width: 0.8"/>
      </defs>
      <g>
       <use xlink:href="#m0156e3ebe2" x="92.685707" y="307.872" style="stroke: #000000; stroke-width: 0.8"/>
      </g>
     </g>
     <g id="text_1">
      <!-- 0 -->
      <g transform="translate(89.504457 322.470438) scale(0.1 -0.1)">
       <defs>
        <path id="DejaVuSans-30" d="M 2034 4250 
Q 1547 4250 1301 3770 
Q 1056 3291 1056 2328 
Q 1056 1369 1301 889 
Q 1547 409 2034 409 
Q 2525 409 2770 889 
Q 3016 1369 3016 2328 
Q 3016 3291 2770 3770 
Q 2525 4250 2034 4250 
z
M 2034 4750 
Q 2819 4750 3233 4129 
Q 3647 3509 3647 2328 
Q 3647 1150 3233 529 
Q 2819 -91 2034 -91 
Q 1250 -91 836 529 
Q 422 1150 422 2328 
Q 422 3509 836 4129 
Q 1250 4750 2034 4750 
z
" transform="scale(0.015625)"/>
       </defs>
       <use xlink:href="#DejaVuSans-30"/>
      </g>
     </g>
    </g>
    <g id="xtick_2">
     <g id="line2d_2">
      <g>
       <use xlink:href="#m0156e3ebe2" x="168.30284" y="307.872" style="stroke: #000000; stroke-width: 0.8"/>
      </g>
     </g>
     <g id="text_2">
      <!-- 1 -->
      <g transform="translate(165.12159 322.470438) scale(0.1 -0.1)">
       <defs>
        <path id="DejaVuSans-31" d="M 794 531 
L 1825 531 
L 1825 4091 
L 703 3866 
L 703 4441 
L 1819 4666 
L 2450 4666 
L 2450 531 
L 3481 531 
L 3481 0 
L 794 0 
L 794 531 
z
" transform="scale(0.015625)"/>
       </defs>
       <use xlink:href="#DejaVuSans-31"/>
      </g>
     </g>
    </g>
    <g id="xtick_3">
     <g id="line2d_3">
      <g>
       <use xlink:href="#m0156e3ebe2" x="243.919973" y="307.872" style="stroke: #000000; stroke-width: 0.8"/>
      </g>
     </g>
     <g id="text_3">
      <!-- 2 -->
      <g transform="translate(240.738723 322.470438) scale(0.1 -0.1)">
       <defs>
        <path id="DejaVuSans-32" d="M 1228 531 
L 3431 531 
L 3431 0 
L 469 0 
L 469 531 
Q 828 903 1448 1529 
Q 2069 2156 2228 2338 
Q 2531 2678 2651 2914 
Q 2772 3150 2772 3378 
Q 2772 3750 2511 3984 
Q 2250 4219 1831 4219 
Q 1534 4219 1204 4116 
Q 875 4013 500 3803 
L 500 4441 
Q 881 4594 1212 4672 
Q 1544 4750 1819 4750 
Q 2544 4750 2975 4387 
Q 3406 4025 3406 3419 
Q 3406 3131 3298 2873 
Q 3191 2616 2906 2266 
Q 2828 2175 2409 1742 
Q 1991 1309 1228 531 
z
" transform="scale(0.015625)"/>
       </defs>
       <use xlink:href="#DejaVuSans-32"/>
      </g>
     </g>
    </g>
    <g id="xtick_4">
     <g id="line2d_4">
      <g>
       <use xlink:href="#m0156e3ebe2" x="319.537106" y="307.872" style="stroke: #000000; stroke-width: 0.8"/>
      </g>
     </g>
     <g id="text_4">
      <!-- 3 -->
      <g transform="translate(316.355856 322.470438) scale(0.1 -0.1)">
       <defs>
        <path id="DejaVuSans-33" d="M 2597 2516 
Q 3050 2419 3304 2112 
Q 3559 1806 3559 1356 
Q 3559 666 3084 287 
Q 2609 -91 1734 -91 
Q 1441 -91 1130 -33 
Q 819 25 488 141 
L 488 750 
Q 750 597 1062 519 
Q 1375 441 1716 441 
Q 2309 441 2620 675 
Q 2931 909 2931 1356 
Q 2931 1769 2642 2001 
Q 2353 2234 1838 2234 
L 1294 2234 
L 1294 2753 
L 1863 2753 
Q 2328 2753 2575 2939 
Q 2822 3125 2822 3475 
Q 2822 3834 2567 4026 
Q 2313 4219 1838 4219 
Q 1578 4219 1281 4162 
Q 984 4106 628 3988 
L 628 4550 
Q 988 4650 1302 4700 
Q 1616 4750 1894 4750 
Q 2613 4750 3031 4423 
Q 3450 4097 3450 3541 
Q 3450 3153 3228 2886 
Q 3006 2619 2597 2516 
z
" transform="scale(0.015625)"/>
       </defs>
       <use xlink:href="#DejaVuSans-33"/>
      </g>
     </g>
    </g>
    <g id="xtick_5">
     <g id="line2d_5">
      <g>
       <use xlink:href="#m0156e3ebe2" x="395.154239" y="307.872" style="stroke: #000000; stroke-width: 0.8"/>
      </g>
     </g>
     <g id="text_5">
      <!-- 4 -->
      <g transform="translate(391.972989 322.470438) scale(0.1 -0.1)">
       <defs>
        <path id="DejaVuSans-34" d="M 2419 4116 
L 825 1625 
L 2419 1625 
L 2419 4116 
z
M 2253 4666 
L 3047 4666 
L 3047 1625 
L 3713 1625 
L 3713 1100 
L 3047 1100 
L 3047 0 
L 2419 0 
L 2419 1100 
L 313 1100 
L 313 1709 
L 2253 4666 
z
" transform="scale(0.015625)"/>
       </defs>
       <use xlink:href="#DejaVuSans-34"/>
      </g>
     </g>
    </g>
    <g id="text_6">
     <!-- Re$(S_{21})$ [mV] -->
     <g transform="translate(193.949063 336.148562) scale(0.1 -0.1)">
      <defs>
       <path id="DejaVuSans-52" d="M 2841 2188 
Q 3044 2119 3236 1894 
Q 3428 1669 3622 1275 
L 4263 0 
L 3584 0 
L 2988 1197 
Q 2756 1666 2539 1819 
Q 2322 1972 1947 1972 
L 1259 1972 
L 1259 0 
L 628 0 
L 628 4666 
L 2053 4666 
Q 2853 4666 3247 4331 
Q 3641 3997 3641 3322 
Q 3641 2881 3436 2590 
Q 3231 2300 2841 2188 
z
M 1259 4147 
L 1259 2491 
L 2053 2491 
Q 2509 2491 2742 2702 
Q 2975 2913 2975 3322 
Q 2975 3731 2742 3939 
Q 2509 4147 2053 4147 
L 1259 4147 
z
" transform="scale(0.015625)"/>
       <path id="DejaVuSans-65" d="M 3597 1894 
L 3597 1613 
L 953 1613 
Q 991 1019 1311 708 
Q 1631 397 2203 397 
Q 2534 397 2845 478 
Q 3156 559 3463 722 
L 3463 178 
Q 3153 47 2828 -22 
Q 2503 -91 2169 -91 
Q 1331 -91 842 396 
Q 353 884 353 1716 
Q 353 2575 817 3079 
Q 1281 3584 2069 3584 
Q 2775 3584 3186 3129 
Q 3597 2675 3597 1894 
z
M 3022 2063 
Q 3016 2534 2758 2815 
Q 2500 3097 2075 3097 
Q 1594 3097 1305 2825 
Q 1016 2553 972 2059 
L 3022 2063 
z
" transform="scale(0.015625)"/>
       <path id="DejaVuSans-28" d="M 1984 4856 
Q 1566 4138 1362 3434 
Q 1159 2731 1159 2009 
Q 1159 1288 1364 580 
Q 1569 -128 1984 -844 
L 1484 -844 
Q 1016 -109 783 600 
Q 550 1309 550 2009 
Q 550 2706 781 3412 
Q 1013 4119 1484 4856 
L 1984 4856 
z
" transform="scale(0.015625)"/>
       <path id="DejaVuSans-Oblique-53" d="M 3859 4513 
L 3738 3897 
Q 3422 4066 3111 4152 
Q 2800 4238 2509 4238 
Q 1944 4238 1609 3991 
Q 1275 3744 1275 3334 
Q 1275 3109 1398 2989 
Q 1522 2869 2034 2731 
L 2413 2638 
Q 3053 2472 3303 2217 
Q 3553 1963 3553 1503 
Q 3553 797 2998 353 
Q 2444 -91 1538 -91 
Q 1166 -91 791 -17 
Q 416 56 38 206 
L 166 856 
Q 513 641 861 531 
Q 1209 422 1556 422 
Q 2147 422 2503 684 
Q 2859 947 2859 1369 
Q 2859 1650 2717 1795 
Q 2575 1941 2106 2059 
L 1728 2156 
Q 1081 2325 845 2545 
Q 609 2766 609 3163 
Q 609 3859 1145 4304 
Q 1681 4750 2541 4750 
Q 2875 4750 3203 4690 
Q 3531 4631 3859 4513 
z
" transform="scale(0.015625)"/>
       <path id="DejaVuSans-29" d="M 513 4856 
L 1013 4856 
Q 1481 4119 1714 3412 
Q 1947 2706 1947 2009 
Q 1947 1309 1714 600 
Q 1481 -109 1013 -844 
L 513 -844 
Q 928 -128 1133 580 
Q 1338 1288 1338 2009 
Q 1338 2731 1133 3434 
Q 928 4138 513 4856 
z
" transform="scale(0.015625)"/>
       <path id="DejaVuSans-20" transform="scale(0.015625)"/>
       <path id="DejaVuSans-5b" d="M 550 4863 
L 1875 4863 
L 1875 4416 
L 1125 4416 
L 1125 -397 
L 1875 -397 
L 1875 -844 
L 550 -844 
L 550 4863 
z
" transform="scale(0.015625)"/>
       <path id="DejaVuSans-6d" d="M 3328 2828 
Q 3544 3216 3844 3400 
Q 4144 3584 4550 3584 
Q 5097 3584 5394 3201 
Q 5691 2819 5691 2113 
L 5691 0 
L 5113 0 
L 5113 2094 
Q 5113 2597 4934 2840 
Q 4756 3084 4391 3084 
Q 3944 3084 3684 2787 
Q 3425 2491 3425 1978 
L 3425 0 
L 2847 0 
L 2847 2094 
Q 2847 2600 2669 2842 
Q 2491 3084 2119 3084 
Q 1678 3084 1418 2786 
Q 1159 2488 1159 1978 
L 1159 0 
L 581 0 
L 581 3500 
L 1159 3500 
L 1159 2956 
Q 1356 3278 1631 3431 
Q 1906 3584 2284 3584 
Q 2666 3584 2933 3390 
Q 3200 3197 3328 2828 
z
" transform="scale(0.015625)"/>
       <path id="DejaVuSans-56" d="M 1831 0 
L 50 4666 
L 709 4666 
L 2188 738 
L 3669 4666 
L 4325 4666 
L 2547 0 
L 1831 0 
z
" transform="scale(0.015625)"/>
       <path id="DejaVuSans-5d" d="M 1947 4863 
L 1947 -844 
L 622 -844 
L 622 -397 
L 1369 -397 
L 1369 4416 
L 622 4416 
L 622 4863 
L 1947 4863 
z
" transform="scale(0.015625)"/>
      </defs>
      <use xlink:href="#DejaVuSans-52" transform="translate(0 0.015625)"/>
      <use xlink:href="#DejaVuSans-65" transform="translate(69.482422 0.015625)"/>
      <use xlink:href="#DejaVuSans-28" transform="translate(131.005859 0.015625)"/>
      <use xlink:href="#DejaVuSans-Oblique-53" transform="translate(170.019531 0.015625)"/>
      <use xlink:href="#DejaVuSans-32" transform="translate(233.496094 -16.390625) scale(0.7)"/>
      <use xlink:href="#DejaVuSans-31" transform="translate(278.032227 -16.390625) scale(0.7)"/>
      <use xlink:href="#DejaVuSans-29" transform="translate(325.302734 0.015625)"/>
      <use xlink:href="#DejaVuSans-20" transform="translate(364.316406 0.015625)"/>
      <use xlink:href="#DejaVuSans-5b" transform="translate(396.103516 0.015625)"/>
      <use xlink:href="#DejaVuSans-6d" transform="translate(435.117188 0.015625)"/>
      <use xlink:href="#DejaVuSans-56" transform="translate(532.529297 0.015625)"/>
      <use xlink:href="#DejaVuSans-5d" transform="translate(600.9375 0.015625)"/>
     </g>
    </g>
   </g>
   <g id="matplotlib.axis_2">
    <g id="ytick_1">
     <g id="line2d_6">
      <defs>
       <path id="m143ef930a8" d="M 0 0 
L -3.5 0 
" style="stroke: #000000; stroke-width: 0.8"/>
      </defs>
      <g>
       <use xlink:href="#m143ef930a8" x="47.389063" y="279.28604" style="stroke: #000000; stroke-width: 0.8"/>
      </g>
     </g>
     <g id="text_7">
      <!-- -5 -->
      <g transform="translate(30.41875 283.085259) scale(0.1 -0.1)">
       <defs>
        <path id="DejaVuSans-2d" d="M 313 2009 
L 1997 2009 
L 1997 1497 
L 313 1497 
L 313 2009 
z
" transform="scale(0.015625)"/>
        <path id="DejaVuSans-35" d="M 691 4666 
L 3169 4666 
L 3169 4134 
L 1269 4134 
L 1269 2991 
Q 1406 3038 1543 3061 
Q 1681 3084 1819 3084 
Q 2600 3084 3056 2656 
Q 3513 2228 3513 1497 
Q 3513 744 3044 326 
Q 2575 -91 1722 -91 
Q 1428 -91 1123 -41 
Q 819 9 494 109 
L 494 744 
Q 775 591 1075 516 
Q 1375 441 1709 441 
Q 2250 441 2565 725 
Q 2881 1009 2881 1497 
Q 2881 1984 2565 2268 
Q 2250 2553 1709 2553 
Q 1456 2553 1204 2497 
Q 953 2441 691 2322 
L 691 4666 
z
" transform="scale(0.015625)"/>
       </defs>
       <use xlink:href="#DejaVuSans-2d"/>
       <use xlink:href="#DejaVuSans-35" x="36.083984"/>
      </g>
     </g>
    </g>
    <g id="ytick_2">
     <g id="line2d_7">
      <g>
       <use xlink:href="#m143ef930a8" x="47.389063" y="244.287476" style="stroke: #000000; stroke-width: 0.8"/>
      </g>
     </g>
     <g id="text_8">
      <!-- -4.5 -->
      <g transform="translate(20.878125 248.086694) scale(0.1 -0.1)">
       <defs>
        <path id="DejaVuSans-2e" d="M 684 794 
L 1344 794 
L 1344 0 
L 684 0 
L 684 794 
z
" transform="scale(0.015625)"/>
       </defs>
       <use xlink:href="#DejaVuSans-2d"/>
       <use xlink:href="#DejaVuSans-34" x="36.083984"/>
       <use xlink:href="#DejaVuSans-2e" x="99.707031"/>
       <use xlink:href="#DejaVuSans-35" x="131.494141"/>
      </g>
     </g>
    </g>
    <g id="ytick_3">
     <g id="line2d_8">
      <g>
       <use xlink:href="#m143ef930a8" x="47.389063" y="209.288911" style="stroke: #000000; stroke-width: 0.8"/>
      </g>
     </g>
     <g id="text_9">
      <!-- -4 -->
      <g transform="translate(30.41875 213.08813) scale(0.1 -0.1)">
       <use xlink:href="#DejaVuSans-2d"/>
       <use xlink:href="#DejaVuSans-34" x="36.083984"/>
      </g>
     </g>
    </g>
    <g id="ytick_4">
     <g id="line2d_9">
      <g>
       <use xlink:href="#m143ef930a8" x="47.389063" y="174.290347" style="stroke: #000000; stroke-width: 0.8"/>
      </g>
     </g>
     <g id="text_10">
      <!-- -3.5 -->
      <g transform="translate(20.878125 178.089566) scale(0.1 -0.1)">
       <use xlink:href="#DejaVuSans-2d"/>
       <use xlink:href="#DejaVuSans-33" x="36.083984"/>
       <use xlink:href="#DejaVuSans-2e" x="99.707031"/>
       <use xlink:href="#DejaVuSans-35" x="131.494141"/>
      </g>
     </g>
    </g>
    <g id="ytick_5">
     <g id="line2d_10">
      <g>
       <use xlink:href="#m143ef930a8" x="47.389063" y="139.291783" style="stroke: #000000; stroke-width: 0.8"/>
      </g>
     </g>
     <g id="text_11">
      <!-- -3 -->
      <g transform="translate(30.41875 143.091002) scale(0.1 -0.1)">
       <use xlink:href="#DejaVuSans-2d"/>
       <use xlink:href="#DejaVuSans-33" x="36.083984"/>
      </g>
     </g>
    </g>
    <g id="ytick_6">
     <g id="line2d_11">
      <g>
       <use xlink:href="#m143ef930a8" x="47.389063" y="104.293219" style="stroke: #000000; stroke-width: 0.8"/>
      </g>
     </g>
     <g id="text_12">
      <!-- -2.5 -->
      <g transform="translate(20.878125 108.092437) scale(0.1 -0.1)">
       <use xlink:href="#DejaVuSans-2d"/>
       <use xlink:href="#DejaVuSans-32" x="36.083984"/>
       <use xlink:href="#DejaVuSans-2e" x="99.707031"/>
       <use xlink:href="#DejaVuSans-35" x="131.494141"/>
      </g>
     </g>
    </g>
    <g id="ytick_7">
     <g id="line2d_12">
      <g>
       <use xlink:href="#m143ef930a8" x="47.389063" y="69.294654" style="stroke: #000000; stroke-width: 0.8"/>
      </g>
     </g>
     <g id="text_13">
      <!-- -2 -->
      <g transform="translate(30.41875 73.093873) scale(0.1 -0.1)">
       <use xlink:href="#DejaVuSans-2d"/>
       <use xlink:href="#DejaVuSans-32" x="36.083984"/>
      </g>
     </g>
    </g>
    <g id="text_14">
     <!-- Im$(S_{21})$ [mV] -->
     <g transform="translate(14.798438 206.466) rotate(-90) scale(0.1 -0.1)">
      <defs>
       <path id="DejaVuSans-49" d="M 628 4666 
L 1259 4666 
L 1259 0 
L 628 0 
L 628 4666 
z
" transform="scale(0.015625)"/>
      </defs>
      <use xlink:href="#DejaVuSans-49" transform="translate(0 0.015625)"/>
      <use xlink:href="#DejaVuSans-6d" transform="translate(25.867188 0.015625)"/>
      <use xlink:href="#DejaVuSans-28" transform="translate(123.279297 0.015625)"/>
      <use xlink:href="#DejaVuSans-Oblique-53" transform="translate(162.292969 0.015625)"/>
      <use xlink:href="#DejaVuSans-32" transform="translate(225.769531 -16.390625) scale(0.7)"/>
      <use xlink:href="#DejaVuSans-31" transform="translate(270.305664 -16.390625) scale(0.7)"/>
      <use xlink:href="#DejaVuSans-29" transform="translate(317.576172 0.015625)"/>
      <use xlink:href="#DejaVuSans-20" transform="translate(356.589844 0.015625)"/>
      <use xlink:href="#DejaVuSans-5b" transform="translate(388.376953 0.015625)"/>
      <use xlink:href="#DejaVuSans-6d" transform="translate(427.390625 0.015625)"/>
      <use xlink:href="#DejaVuSans-56" transform="translate(524.802734 0.015625)"/>
      <use xlink:href="#DejaVuSans-5d" transform="translate(593.210938 0.015625)"/>
     </g>
    </g>
   </g>
   <g id="line2d_13">
    <path d="M 384.652476 150.135544 
L 381.737544 143.914869 
L 388.276335 148.276097 
L 384.334541 151.610335 
L 385.380121 151.790961 
L 381.371095 148.357253 
L 371.683745 157.109572 
L 377.581332 157.021577 
L 383.115424 162.54703 
L 382.121315 160.612962 
L 371.211974 157.238525 
L 376.365005 162.873934 
L 373.128692 165.75072 
L 374.338205 161.660544 
L 375.196045 171.258392 
L 367.375173 166.137807 
L 365.848219 176.838861 
L 366.641618 170.413472 
L 369.209719 167.627873 
L 366.198168 168.664817 
L 361.209728 171.798521 
L 363.308274 169.121206 
L 362.297583 180.048098 
L 373.265536 173.942394 
L 360.428888 180.463073 
L 359.748773 177.408018 
L 361.3029 188.833853 
L 349.141113 185.493459 
L 350.660023 185.192999 
L 346.565706 189.111136 
L 344.28845 193.525025 
L 349.966281 195.449442 
L 342.710599 198.005403 
L 343.528954 189.88911 
L 353.323923 205.009903 
L 353.571014 199.767661 
L 346.343571 200.235144 
L 336.234689 200.465998 
L 337.233642 207.481821 
L 334.630324 201.425737 
L 334.621704 211.445247 
L 339.833922 202.504703 
L 336.717953 209.760422 
L 322.756755 213.989126 
L 330.362633 213.449681 
L 332.424075 216.741594 
L 331.826378 220.089586 
L 329.389703 216.194094 
L 322.709143 226.144682 
L 324.072 230.189872 
L 315.694395 223.577247 
L 322.326768 226.145214 
L 320.396588 236.619669 
L 312.568246 233.94091 
L 308.828886 228.165301 
L 307.163692 233.108224 
L 309.684099 244.328738 
L 304.981331 239.321832 
L 301.107426 243.935951 
L 302.734612 242.888825 
L 293.878423 254.942252 
L 286.887153 249.278119 
L 284.93645 259.88677 
L 278.322382 258.296476 
L 273.149158 257.726635 
L 274.010363 258.107264 
L 270.233652 260.826753 
L 257.121264 272.682837 
L 257.416049 271.019669 
L 252.659595 279.314764 
L 244.280102 276.920735 
L 242.108987 282.556144 
L 225.843772 279.688325 
L 222.064434 285.618798 
L 213.549328 282.439425 
L 192.77713 292.365468 
L 189.747026 295.776 
L 176.124942 295.561104 
L 164.824115 293.241772 
L 145.271855 275.875736 
L 126.333299 263.778539 
L 128.525757 241.486527 
L 113.670846 227.440064 
L 101.277648 212.925282 
L 87.534564 194.157252 
L 72.958923 192.031616 
L 66.552297 180.34909 
L 72.6909 163.479338 
L 75.544099 137.168654 
L 89.394229 123.826988 
L 81.644037 103.227627 
L 102.315183 86.532573 
L 120.928416 73.853378 
L 134.436396 67.381331 
L 147.384357 63.030362 
L 164.791279 53.856 
L 181.338473 58.909182 
L 209.679363 66.567415 
L 209.724348 61.708384 
L 219.76017 66.844698 
L 219.916715 62.930512 
L 226.942217 67.888861 
L 246.246319 70.494822 
L 248.582188 82.231148 
L 252.412258 83.003955 
L 263.972489 88.20372 
L 264.611313 102.66531 
L 262.369273 103.766616 
L 264.511245 104.608192 
L 265.29857 120.009081 
L 260.902736 116.864434 
L 264.706537 120.387733 
L 264.187318 123.780331 
L 272.848298 128.781689 
L 273.764422 132.130594 
L 272.080018 134.059723 
L 276.947622 139.674235 
L 273.156628 142.525336 
L 273.590145 143.486519 
L 269.774112 151.820292 
L 273.670757 148.991684 
L 270.534265 151.343234 
L 267.760447 157.214665 
L 264.297812 157.111016 
L 260.791258 170.446983 
L 257.599027 161.286831 
L 263.509174 165.823898 
L 257.475482 169.110491 
L 255.034128 174.423404 
L 262.740484 175.611413 
L 256.583083 168.15212 
L 254.885217 180.00866 
L 261.405948 189.026637 
L 251.868494 181.502905 
L 252.472348 184.168366 
L 251.032162 182.442355 
L 242.828998 187.108906 
L 257.052062 189.222688 
L 242.875461 189.214557 
L 235.016254 189.323145 
L 244.817791 188.08939 
L 242.405496 195.193284 
L 244.696954 192.83269 
L 245.73375 189.070406 
L 237.162905 189.538954 
L 243.37465 198.290665 
L 241.570313 190.855688 
L 232.463832 208.870441 
L 233.554725 200.189019 
L 230.876377 201.825363 
L 230.332285 204.053736 
L 228.376164 203.43815 
L 226.197005 206.871934 
L 233.025409 211.113632 
L 221.506715 206.280741 
L 229.441445 205.435061 
L 222.983431 208.20949 
L 225.582644 206.867375 
L 227.617489 208.614662 
L 222.619444 211.603684 
L 220.22759 207.434327 
L 221.831463 216.384218 
L 224.479601 208.108577 
L 219.599273 210.993645 
L 209.001711 213.001119 
L 208.864538 207.14139 
L 212.389151 217.351556 
L 216.791306 214.657068 
L 213.601948 223.396241 
L 206.993873 223.568128 
L 206.168377 218.696787 
L 201.792656 219.272554 
L 203.94727 226.35046 
L 197.21959 221.710505 
L 194.619556 223.944121 
L 206.687267 224.471559 
L 202.522517 222.22039 
L 193.478096 221.105481 
L 202.455039 228.013552 
L 193.747022 226.123481 
L 196.465102 230.286378 
L 190.224215 229.871327 
L 189.020038 222.434906 
L 190.720531 228.112413 
L 188.082571 223.328535 
L 187.914123 230.986615 
L 182.06226 234.309608 
L 177.483449 229.53576 
L 182.767987 230.072166 
L 177.945779 230.442763 
L 182.212239 232.135719 
L 176.180435 238.365817 
L 173.479595 230.542765 
L 176.229525 235.807424 
L 179.231964 237.180846 
L 175.741172 233.861881 
L 174.213396 239.653676 
L 165.857709 234.756574 
L 173.466706 239.590225 
L 159.99066 232.924103 
L 159.99066 232.924103 
" clip-path="url(#p12352bcaf7)" style="fill: none; stroke: #1f77b4; stroke-width: 1.5; stroke-linecap: square"/>
    <defs>
     <path id="md8abeb7b6a" d="M 0 1.5 
C 0.397805 1.5 0.77937 1.341951 1.06066 1.06066 
C 1.341951 0.77937 1.5 0.397805 1.5 0 
C 1.5 -0.397805 1.341951 -0.77937 1.06066 -1.06066 
C 0.77937 -1.341951 0.397805 -1.5 0 -1.5 
C -0.397805 -1.5 -0.77937 -1.341951 -1.06066 -1.06066 
C -1.341951 -0.77937 -1.5 -0.397805 -1.5 0 
C -1.5 0.397805 -1.341951 0.77937 -1.06066 1.06066 
C -0.77937 1.341951 -0.397805 1.5 0 1.5 
z
" style="stroke: #1f77b4"/>
    </defs>
    <g clip-path="url(#p12352bcaf7)">
     <use xlink:href="#md8abeb7b6a" x="384.652476" y="150.135544" style="fill: #1f77b4; stroke: #1f77b4"/>
     <use xlink:href="#md8abeb7b6a" x="381.737544" y="143.914869" style="fill: #1f77b4; stroke: #1f77b4"/>
     <use xlink:href="#md8abeb7b6a" x="388.276335" y="148.276097" style="fill: #1f77b4; stroke: #1f77b4"/>
     <use xlink:href="#md8abeb7b6a" x="384.334541" y="151.610335" style="fill: #1f77b4; stroke: #1f77b4"/>
     <use xlink:href="#md8abeb7b6a" x="385.380121" y="151.790961" style="fill: #1f77b4; stroke: #1f77b4"/>
     <use xlink:href="#md8abeb7b6a" x="381.371095" y="148.357253" style="fill: #1f77b4; stroke: #1f77b4"/>
     <use xlink:href="#md8abeb7b6a" x="371.683745" y="157.109572" style="fill: #1f77b4; stroke: #1f77b4"/>
     <use xlink:href="#md8abeb7b6a" x="377.581332" y="157.021577" style="fill: #1f77b4; stroke: #1f77b4"/>
     <use xlink:href="#md8abeb7b6a" x="383.115424" y="162.54703" style="fill: #1f77b4; stroke: #1f77b4"/>
     <use xlink:href="#md8abeb7b6a" x="382.121315" y="160.612962" style="fill: #1f77b4; stroke: #1f77b4"/>
     <use xlink:href="#md8abeb7b6a" x="371.211974" y="157.238525" style="fill: #1f77b4; stroke: #1f77b4"/>
     <use xlink:href="#md8abeb7b6a" x="376.365005" y="162.873934" style="fill: #1f77b4; stroke: #1f77b4"/>
     <use xlink:href="#md8abeb7b6a" x="373.128692" y="165.75072" style="fill: #1f77b4; stroke: #1f77b4"/>
     <use xlink:href="#md8abeb7b6a" x="374.338205" y="161.660544" style="fill: #1f77b4; stroke: #1f77b4"/>
     <use xlink:href="#md8abeb7b6a" x="375.196045" y="171.258392" style="fill: #1f77b4; stroke: #1f77b4"/>
     <use xlink:href="#md8abeb7b6a" x="367.375173" y="166.137807" style="fill: #1f77b4; stroke: #1f77b4"/>
     <use xlink:href="#md8abeb7b6a" x="365.848219" y="176.838861" style="fill: #1f77b4; stroke: #1f77b4"/>
     <use xlink:href="#md8abeb7b6a" x="366.641618" y="170.413472" style="fill: #1f77b4; stroke: #1f77b4"/>
     <use xlink:href="#md8abeb7b6a" x="369.209719" y="167.627873" style="fill: #1f77b4; stroke: #1f77b4"/>
     <use xlink:href="#md8abeb7b6a" x="366.198168" y="168.664817" style="fill: #1f77b4; stroke: #1f77b4"/>
     <use xlink:href="#md8abeb7b6a" x="361.209728" y="171.798521" style="fill: #1f77b4; stroke: #1f77b4"/>
     <use xlink:href="#md8abeb7b6a" x="363.308274" y="169.121206" style="fill: #1f77b4; stroke: #1f77b4"/>
     <use xlink:href="#md8abeb7b6a" x="362.297583" y="180.048098" style="fill: #1f77b4; stroke: #1f77b4"/>
     <use xlink:href="#md8abeb7b6a" x="373.265536" y="173.942394" style="fill: #1f77b4; stroke: #1f77b4"/>
     <use xlink:href="#md8abeb7b6a" x="360.428888" y="180.463073" style="fill: #1f77b4; stroke: #1f77b4"/>
     <use xlink:href="#md8abeb7b6a" x="359.748773" y="177.408018" style="fill: #1f77b4; stroke: #1f77b4"/>
     <use xlink:href="#md8abeb7b6a" x="361.3029" y="188.833853" style="fill: #1f77b4; stroke: #1f77b4"/>
     <use xlink:href="#md8abeb7b6a" x="349.141113" y="185.493459" style="fill: #1f77b4; stroke: #1f77b4"/>
     <use xlink:href="#md8abeb7b6a" x="350.660023" y="185.192999" style="fill: #1f77b4; stroke: #1f77b4"/>
     <use xlink:href="#md8abeb7b6a" x="346.565706" y="189.111136" style="fill: #1f77b4; stroke: #1f77b4"/>
     <use xlink:href="#md8abeb7b6a" x="344.28845" y="193.525025" style="fill: #1f77b4; stroke: #1f77b4"/>
     <use xlink:href="#md8abeb7b6a" x="349.966281" y="195.449442" style="fill: #1f77b4; stroke: #1f77b4"/>
     <use xlink:href="#md8abeb7b6a" x="342.710599" y="198.005403" style="fill: #1f77b4; stroke: #1f77b4"/>
     <use xlink:href="#md8abeb7b6a" x="343.528954" y="189.88911" style="fill: #1f77b4; stroke: #1f77b4"/>
     <use xlink:href="#md8abeb7b6a" x="353.323923" y="205.009903" style="fill: #1f77b4; stroke: #1f77b4"/>
     <use xlink:href="#md8abeb7b6a" x="353.571014" y="199.767661" style="fill: #1f77b4; stroke: #1f77b4"/>
     <use xlink:href="#md8abeb7b6a" x="346.343571" y="200.235144" style="fill: #1f77b4; stroke: #1f77b4"/>
     <use xlink:href="#md8abeb7b6a" x="336.234689" y="200.465998" style="fill: #1f77b4; stroke: #1f77b4"/>
     <use xlink:href="#md8abeb7b6a" x="337.233642" y="207.481821" style="fill: #1f77b4; stroke: #1f77b4"/>
     <use xlink:href="#md8abeb7b6a" x="334.630324" y="201.425737" style="fill: #1f77b4; stroke: #1f77b4"/>
     <use xlink:href="#md8abeb7b6a" x="334.621704" y="211.445247" style="fill: #1f77b4; stroke: #1f77b4"/>
     <use xlink:href="#md8abeb7b6a" x="339.833922" y="202.504703" style="fill: #1f77b4; stroke: #1f77b4"/>
     <use xlink:href="#md8abeb7b6a" x="336.717953" y="209.760422" style="fill: #1f77b4; stroke: #1f77b4"/>
     <use xlink:href="#md8abeb7b6a" x="322.756755" y="213.989126" style="fill: #1f77b4; stroke: #1f77b4"/>
     <use xlink:href="#md8abeb7b6a" x="330.362633" y="213.449681" style="fill: #1f77b4; stroke: #1f77b4"/>
     <use xlink:href="#md8abeb7b6a" x="332.424075" y="216.741594" style="fill: #1f77b4; stroke: #1f77b4"/>
     <use xlink:href="#md8abeb7b6a" x="331.826378" y="220.089586" style="fill: #1f77b4; stroke: #1f77b4"/>
     <use xlink:href="#md8abeb7b6a" x="329.389703" y="216.194094" style="fill: #1f77b4; stroke: #1f77b4"/>
     <use xlink:href="#md8abeb7b6a" x="322.709143" y="226.144682" style="fill: #1f77b4; stroke: #1f77b4"/>
     <use xlink:href="#md8abeb7b6a" x="324.072" y="230.189872" style="fill: #1f77b4; stroke: #1f77b4"/>
     <use xlink:href="#md8abeb7b6a" x="315.694395" y="223.577247" style="fill: #1f77b4; stroke: #1f77b4"/>
     <use xlink:href="#md8abeb7b6a" x="322.326768" y="226.145214" style="fill: #1f77b4; stroke: #1f77b4"/>
     <use xlink:href="#md8abeb7b6a" x="320.396588" y="236.619669" style="fill: #1f77b4; stroke: #1f77b4"/>
     <use xlink:href="#md8abeb7b6a" x="312.568246" y="233.94091" style="fill: #1f77b4; stroke: #1f77b4"/>
     <use xlink:href="#md8abeb7b6a" x="308.828886" y="228.165301" style="fill: #1f77b4; stroke: #1f77b4"/>
     <use xlink:href="#md8abeb7b6a" x="307.163692" y="233.108224" style="fill: #1f77b4; stroke: #1f77b4"/>
     <use xlink:href="#md8abeb7b6a" x="309.684099" y="244.328738" style="fill: #1f77b4; stroke: #1f77b4"/>
     <use xlink:href="#md8abeb7b6a" x="304.981331" y="239.321832" style="fill: #1f77b4; stroke: #1f77b4"/>
     <use xlink:href="#md8abeb7b6a" x="301.107426" y="243.935951" style="fill: #1f77b4; stroke: #1f77b4"/>
     <use xlink:href="#md8abeb7b6a" x="302.734612" y="242.888825" style="fill: #1f77b4; stroke: #1f77b4"/>
     <use xlink:href="#md8abeb7b6a" x="293.878423" y="254.942252" style="fill: #1f77b4; stroke: #1f77b4"/>
     <use xlink:href="#md8abeb7b6a" x="286.887153" y="249.278119" style="fill: #1f77b4; stroke: #1f77b4"/>
     <use xlink:href="#md8abeb7b6a" x="284.93645" y="259.88677" style="fill: #1f77b4; stroke: #1f77b4"/>
     <use xlink:href="#md8abeb7b6a" x="278.322382" y="258.296476" style="fill: #1f77b4; stroke: #1f77b4"/>
     <use xlink:href="#md8abeb7b6a" x="273.149158" y="257.726635" style="fill: #1f77b4; stroke: #1f77b4"/>
     <use xlink:href="#md8abeb7b6a" x="274.010363" y="258.107264" style="fill: #1f77b4; stroke: #1f77b4"/>
     <use xlink:href="#md8abeb7b6a" x="270.233652" y="260.826753" style="fill: #1f77b4; stroke: #1f77b4"/>
     <use xlink:href="#md8abeb7b6a" x="257.121264" y="272.682837" style="fill: #1f77b4; stroke: #1f77b4"/>
     <use xlink:href="#md8abeb7b6a" x="257.416049" y="271.019669" style="fill: #1f77b4; stroke: #1f77b4"/>
     <use xlink:href="#md8abeb7b6a" x="252.659595" y="279.314764" style="fill: #1f77b4; stroke: #1f77b4"/>
     <use xlink:href="#md8abeb7b6a" x="244.280102" y="276.920735" style="fill: #1f77b4; stroke: #1f77b4"/>
     <use xlink:href="#md8abeb7b6a" x="242.108987" y="282.556144" style="fill: #1f77b4; stroke: #1f77b4"/>
     <use xlink:href="#md8abeb7b6a" x="225.843772" y="279.688325" style="fill: #1f77b4; stroke: #1f77b4"/>
     <use xlink:href="#md8abeb7b6a" x="222.064434" y="285.618798" style="fill: #1f77b4; stroke: #1f77b4"/>
     <use xlink:href="#md8abeb7b6a" x="213.549328" y="282.439425" style="fill: #1f77b4; stroke: #1f77b4"/>
     <use xlink:href="#md8abeb7b6a" x="192.77713" y="292.365468" style="fill: #1f77b4; stroke: #1f77b4"/>
     <use xlink:href="#md8abeb7b6a" x="189.747026" y="295.776" style="fill: #1f77b4; stroke: #1f77b4"/>
     <use xlink:href="#md8abeb7b6a" x="176.124942" y="295.561104" style="fill: #1f77b4; stroke: #1f77b4"/>
     <use xlink:href="#md8abeb7b6a" x="164.824115" y="293.241772" style="fill: #1f77b4; stroke: #1f77b4"/>
     <use xlink:href="#md8abeb7b6a" x="145.271855" y="275.875736" style="fill: #1f77b4; stroke: #1f77b4"/>
     <use xlink:href="#md8abeb7b6a" x="126.333299" y="263.778539" style="fill: #1f77b4; stroke: #1f77b4"/>
     <use xlink:href="#md8abeb7b6a" x="128.525757" y="241.486527" style="fill: #1f77b4; stroke: #1f77b4"/>
     <use xlink:href="#md8abeb7b6a" x="113.670846" y="227.440064" style="fill: #1f77b4; stroke: #1f77b4"/>
     <use xlink:href="#md8abeb7b6a" x="101.277648" y="212.925282" style="fill: #1f77b4; stroke: #1f77b4"/>
     <use xlink:href="#md8abeb7b6a" x="87.534564" y="194.157252" style="fill: #1f77b4; stroke: #1f77b4"/>
     <use xlink:href="#md8abeb7b6a" x="72.958923" y="192.031616" style="fill: #1f77b4; stroke: #1f77b4"/>
     <use xlink:href="#md8abeb7b6a" x="66.552297" y="180.34909" style="fill: #1f77b4; stroke: #1f77b4"/>
     <use xlink:href="#md8abeb7b6a" x="72.6909" y="163.479338" style="fill: #1f77b4; stroke: #1f77b4"/>
     <use xlink:href="#md8abeb7b6a" x="75.544099" y="137.168654" style="fill: #1f77b4; stroke: #1f77b4"/>
     <use xlink:href="#md8abeb7b6a" x="89.394229" y="123.826988" style="fill: #1f77b4; stroke: #1f77b4"/>
     <use xlink:href="#md8abeb7b6a" x="81.644037" y="103.227627" style="fill: #1f77b4; stroke: #1f77b4"/>
     <use xlink:href="#md8abeb7b6a" x="102.315183" y="86.532573" style="fill: #1f77b4; stroke: #1f77b4"/>
     <use xlink:href="#md8abeb7b6a" x="120.928416" y="73.853378" style="fill: #1f77b4; stroke: #1f77b4"/>
     <use xlink:href="#md8abeb7b6a" x="134.436396" y="67.381331" style="fill: #1f77b4; stroke: #1f77b4"/>
     <use xlink:href="#md8abeb7b6a" x="147.384357" y="63.030362" style="fill: #1f77b4; stroke: #1f77b4"/>
     <use xlink:href="#md8abeb7b6a" x="164.791279" y="53.856" style="fill: #1f77b4; stroke: #1f77b4"/>
     <use xlink:href="#md8abeb7b6a" x="181.338473" y="58.909182" style="fill: #1f77b4; stroke: #1f77b4"/>
     <use xlink:href="#md8abeb7b6a" x="209.679363" y="66.567415" style="fill: #1f77b4; stroke: #1f77b4"/>
     <use xlink:href="#md8abeb7b6a" x="209.724348" y="61.708384" style="fill: #1f77b4; stroke: #1f77b4"/>
     <use xlink:href="#md8abeb7b6a" x="219.76017" y="66.844698" style="fill: #1f77b4; stroke: #1f77b4"/>
     <use xlink:href="#md8abeb7b6a" x="219.916715" y="62.930512" style="fill: #1f77b4; stroke: #1f77b4"/>
     <use xlink:href="#md8abeb7b6a" x="226.942217" y="67.888861" style="fill: #1f77b4; stroke: #1f77b4"/>
     <use xlink:href="#md8abeb7b6a" x="246.246319" y="70.494822" style="fill: #1f77b4; stroke: #1f77b4"/>
     <use xlink:href="#md8abeb7b6a" x="248.582188" y="82.231148" style="fill: #1f77b4; stroke: #1f77b4"/>
     <use xlink:href="#md8abeb7b6a" x="252.412258" y="83.003955" style="fill: #1f77b4; stroke: #1f77b4"/>
     <use xlink:href="#md8abeb7b6a" x="263.972489" y="88.20372" style="fill: #1f77b4; stroke: #1f77b4"/>
     <use xlink:href="#md8abeb7b6a" x="264.611313" y="102.66531" style="fill: #1f77b4; stroke: #1f77b4"/>
     <use xlink:href="#md8abeb7b6a" x="262.369273" y="103.766616" style="fill: #1f77b4; stroke: #1f77b4"/>
     <use xlink:href="#md8abeb7b6a" x="264.511245" y="104.608192" style="fill: #1f77b4; stroke: #1f77b4"/>
     <use xlink:href="#md8abeb7b6a" x="265.29857" y="120.009081" style="fill: #1f77b4; stroke: #1f77b4"/>
     <use xlink:href="#md8abeb7b6a" x="260.902736" y="116.864434" style="fill: #1f77b4; stroke: #1f77b4"/>
     <use xlink:href="#md8abeb7b6a" x="264.706537" y="120.387733" style="fill: #1f77b4; stroke: #1f77b4"/>
     <use xlink:href="#md8abeb7b6a" x="264.187318" y="123.780331" style="fill: #1f77b4; stroke: #1f77b4"/>
     <use xlink:href="#md8abeb7b6a" x="272.848298" y="128.781689" style="fill: #1f77b4; stroke: #1f77b4"/>
     <use xlink:href="#md8abeb7b6a" x="273.764422" y="132.130594" style="fill: #1f77b4; stroke: #1f77b4"/>
     <use xlink:href="#md8abeb7b6a" x="272.080018" y="134.059723" style="fill: #1f77b4; stroke: #1f77b4"/>
     <use xlink:href="#md8abeb7b6a" x="276.947622" y="139.674235" style="fill: #1f77b4; stroke: #1f77b4"/>
     <use xlink:href="#md8abeb7b6a" x="273.156628" y="142.525336" style="fill: #1f77b4; stroke: #1f77b4"/>
     <use xlink:href="#md8abeb7b6a" x="273.590145" y="143.486519" style="fill: #1f77b4; stroke: #1f77b4"/>
     <use xlink:href="#md8abeb7b6a" x="269.774112" y="151.820292" style="fill: #1f77b4; stroke: #1f77b4"/>
     <use xlink:href="#md8abeb7b6a" x="273.670757" y="148.991684" style="fill: #1f77b4; stroke: #1f77b4"/>
     <use xlink:href="#md8abeb7b6a" x="270.534265" y="151.343234" style="fill: #1f77b4; stroke: #1f77b4"/>
     <use xlink:href="#md8abeb7b6a" x="267.760447" y="157.214665" style="fill: #1f77b4; stroke: #1f77b4"/>
     <use xlink:href="#md8abeb7b6a" x="264.297812" y="157.111016" style="fill: #1f77b4; stroke: #1f77b4"/>
     <use xlink:href="#md8abeb7b6a" x="260.791258" y="170.446983" style="fill: #1f77b4; stroke: #1f77b4"/>
     <use xlink:href="#md8abeb7b6a" x="257.599027" y="161.286831" style="fill: #1f77b4; stroke: #1f77b4"/>
     <use xlink:href="#md8abeb7b6a" x="263.509174" y="165.823898" style="fill: #1f77b4; stroke: #1f77b4"/>
     <use xlink:href="#md8abeb7b6a" x="257.475482" y="169.110491" style="fill: #1f77b4; stroke: #1f77b4"/>
     <use xlink:href="#md8abeb7b6a" x="255.034128" y="174.423404" style="fill: #1f77b4; stroke: #1f77b4"/>
     <use xlink:href="#md8abeb7b6a" x="262.740484" y="175.611413" style="fill: #1f77b4; stroke: #1f77b4"/>
     <use xlink:href="#md8abeb7b6a" x="256.583083" y="168.15212" style="fill: #1f77b4; stroke: #1f77b4"/>
     <use xlink:href="#md8abeb7b6a" x="254.885217" y="180.00866" style="fill: #1f77b4; stroke: #1f77b4"/>
     <use xlink:href="#md8abeb7b6a" x="261.405948" y="189.026637" style="fill: #1f77b4; stroke: #1f77b4"/>
     <use xlink:href="#md8abeb7b6a" x="251.868494" y="181.502905" style="fill: #1f77b4; stroke: #1f77b4"/>
     <use xlink:href="#md8abeb7b6a" x="252.472348" y="184.168366" style="fill: #1f77b4; stroke: #1f77b4"/>
     <use xlink:href="#md8abeb7b6a" x="251.032162" y="182.442355" style="fill: #1f77b4; stroke: #1f77b4"/>
     <use xlink:href="#md8abeb7b6a" x="242.828998" y="187.108906" style="fill: #1f77b4; stroke: #1f77b4"/>
     <use xlink:href="#md8abeb7b6a" x="257.052062" y="189.222688" style="fill: #1f77b4; stroke: #1f77b4"/>
     <use xlink:href="#md8abeb7b6a" x="242.875461" y="189.214557" style="fill: #1f77b4; stroke: #1f77b4"/>
     <use xlink:href="#md8abeb7b6a" x="235.016254" y="189.323145" style="fill: #1f77b4; stroke: #1f77b4"/>
     <use xlink:href="#md8abeb7b6a" x="244.817791" y="188.08939" style="fill: #1f77b4; stroke: #1f77b4"/>
     <use xlink:href="#md8abeb7b6a" x="242.405496" y="195.193284" style="fill: #1f77b4; stroke: #1f77b4"/>
     <use xlink:href="#md8abeb7b6a" x="244.696954" y="192.83269" style="fill: #1f77b4; stroke: #1f77b4"/>
     <use xlink:href="#md8abeb7b6a" x="245.73375" y="189.070406" style="fill: #1f77b4; stroke: #1f77b4"/>
     <use xlink:href="#md8abeb7b6a" x="237.162905" y="189.538954" style="fill: #1f77b4; stroke: #1f77b4"/>
     <use xlink:href="#md8abeb7b6a" x="243.37465" y="198.290665" style="fill: #1f77b4; stroke: #1f77b4"/>
     <use xlink:href="#md8abeb7b6a" x="241.570313" y="190.855688" style="fill: #1f77b4; stroke: #1f77b4"/>
     <use xlink:href="#md8abeb7b6a" x="232.463832" y="208.870441" style="fill: #1f77b4; stroke: #1f77b4"/>
     <use xlink:href="#md8abeb7b6a" x="233.554725" y="200.189019" style="fill: #1f77b4; stroke: #1f77b4"/>
     <use xlink:href="#md8abeb7b6a" x="230.876377" y="201.825363" style="fill: #1f77b4; stroke: #1f77b4"/>
     <use xlink:href="#md8abeb7b6a" x="230.332285" y="204.053736" style="fill: #1f77b4; stroke: #1f77b4"/>
     <use xlink:href="#md8abeb7b6a" x="228.376164" y="203.43815" style="fill: #1f77b4; stroke: #1f77b4"/>
     <use xlink:href="#md8abeb7b6a" x="226.197005" y="206.871934" style="fill: #1f77b4; stroke: #1f77b4"/>
     <use xlink:href="#md8abeb7b6a" x="233.025409" y="211.113632" style="fill: #1f77b4; stroke: #1f77b4"/>
     <use xlink:href="#md8abeb7b6a" x="221.506715" y="206.280741" style="fill: #1f77b4; stroke: #1f77b4"/>
     <use xlink:href="#md8abeb7b6a" x="229.441445" y="205.435061" style="fill: #1f77b4; stroke: #1f77b4"/>
     <use xlink:href="#md8abeb7b6a" x="222.983431" y="208.20949" style="fill: #1f77b4; stroke: #1f77b4"/>
     <use xlink:href="#md8abeb7b6a" x="225.582644" y="206.867375" style="fill: #1f77b4; stroke: #1f77b4"/>
     <use xlink:href="#md8abeb7b6a" x="227.617489" y="208.614662" style="fill: #1f77b4; stroke: #1f77b4"/>
     <use xlink:href="#md8abeb7b6a" x="222.619444" y="211.603684" style="fill: #1f77b4; stroke: #1f77b4"/>
     <use xlink:href="#md8abeb7b6a" x="220.22759" y="207.434327" style="fill: #1f77b4; stroke: #1f77b4"/>
     <use xlink:href="#md8abeb7b6a" x="221.831463" y="216.384218" style="fill: #1f77b4; stroke: #1f77b4"/>
     <use xlink:href="#md8abeb7b6a" x="224.479601" y="208.108577" style="fill: #1f77b4; stroke: #1f77b4"/>
     <use xlink:href="#md8abeb7b6a" x="219.599273" y="210.993645" style="fill: #1f77b4; stroke: #1f77b4"/>
     <use xlink:href="#md8abeb7b6a" x="209.001711" y="213.001119" style="fill: #1f77b4; stroke: #1f77b4"/>
     <use xlink:href="#md8abeb7b6a" x="208.864538" y="207.14139" style="fill: #1f77b4; stroke: #1f77b4"/>
     <use xlink:href="#md8abeb7b6a" x="212.389151" y="217.351556" style="fill: #1f77b4; stroke: #1f77b4"/>
     <use xlink:href="#md8abeb7b6a" x="216.791306" y="214.657068" style="fill: #1f77b4; stroke: #1f77b4"/>
     <use xlink:href="#md8abeb7b6a" x="213.601948" y="223.396241" style="fill: #1f77b4; stroke: #1f77b4"/>
     <use xlink:href="#md8abeb7b6a" x="206.993873" y="223.568128" style="fill: #1f77b4; stroke: #1f77b4"/>
     <use xlink:href="#md8abeb7b6a" x="206.168377" y="218.696787" style="fill: #1f77b4; stroke: #1f77b4"/>
     <use xlink:href="#md8abeb7b6a" x="201.792656" y="219.272554" style="fill: #1f77b4; stroke: #1f77b4"/>
     <use xlink:href="#md8abeb7b6a" x="203.94727" y="226.35046" style="fill: #1f77b4; stroke: #1f77b4"/>
     <use xlink:href="#md8abeb7b6a" x="197.21959" y="221.710505" style="fill: #1f77b4; stroke: #1f77b4"/>
     <use xlink:href="#md8abeb7b6a" x="194.619556" y="223.944121" style="fill: #1f77b4; stroke: #1f77b4"/>
     <use xlink:href="#md8abeb7b6a" x="206.687267" y="224.471559" style="fill: #1f77b4; stroke: #1f77b4"/>
     <use xlink:href="#md8abeb7b6a" x="202.522517" y="222.22039" style="fill: #1f77b4; stroke: #1f77b4"/>
     <use xlink:href="#md8abeb7b6a" x="193.478096" y="221.105481" style="fill: #1f77b4; stroke: #1f77b4"/>
     <use xlink:href="#md8abeb7b6a" x="202.455039" y="228.013552" style="fill: #1f77b4; stroke: #1f77b4"/>
     <use xlink:href="#md8abeb7b6a" x="193.747022" y="226.123481" style="fill: #1f77b4; stroke: #1f77b4"/>
     <use xlink:href="#md8abeb7b6a" x="196.465102" y="230.286378" style="fill: #1f77b4; stroke: #1f77b4"/>
     <use xlink:href="#md8abeb7b6a" x="190.224215" y="229.871327" style="fill: #1f77b4; stroke: #1f77b4"/>
     <use xlink:href="#md8abeb7b6a" x="189.020038" y="222.434906" style="fill: #1f77b4; stroke: #1f77b4"/>
     <use xlink:href="#md8abeb7b6a" x="190.720531" y="228.112413" style="fill: #1f77b4; stroke: #1f77b4"/>
     <use xlink:href="#md8abeb7b6a" x="188.082571" y="223.328535" style="fill: #1f77b4; stroke: #1f77b4"/>
     <use xlink:href="#md8abeb7b6a" x="187.914123" y="230.986615" style="fill: #1f77b4; stroke: #1f77b4"/>
     <use xlink:href="#md8abeb7b6a" x="182.06226" y="234.309608" style="fill: #1f77b4; stroke: #1f77b4"/>
     <use xlink:href="#md8abeb7b6a" x="177.483449" y="229.53576" style="fill: #1f77b4; stroke: #1f77b4"/>
     <use xlink:href="#md8abeb7b6a" x="182.767987" y="230.072166" style="fill: #1f77b4; stroke: #1f77b4"/>
     <use xlink:href="#md8abeb7b6a" x="177.945779" y="230.442763" style="fill: #1f77b4; stroke: #1f77b4"/>
     <use xlink:href="#md8abeb7b6a" x="182.212239" y="232.135719" style="fill: #1f77b4; stroke: #1f77b4"/>
     <use xlink:href="#md8abeb7b6a" x="176.180435" y="238.365817" style="fill: #1f77b4; stroke: #1f77b4"/>
     <use xlink:href="#md8abeb7b6a" x="173.479595" y="230.542765" style="fill: #1f77b4; stroke: #1f77b4"/>
     <use xlink:href="#md8abeb7b6a" x="176.229525" y="235.807424" style="fill: #1f77b4; stroke: #1f77b4"/>
     <use xlink:href="#md8abeb7b6a" x="179.231964" y="237.180846" style="fill: #1f77b4; stroke: #1f77b4"/>
     <use xlink:href="#md8abeb7b6a" x="175.741172" y="233.861881" style="fill: #1f77b4; stroke: #1f77b4"/>
     <use xlink:href="#md8abeb7b6a" x="174.213396" y="239.653676" style="fill: #1f77b4; stroke: #1f77b4"/>
     <use xlink:href="#md8abeb7b6a" x="165.857709" y="234.756574" style="fill: #1f77b4; stroke: #1f77b4"/>
     <use xlink:href="#md8abeb7b6a" x="173.466706" y="239.590225" style="fill: #1f77b4; stroke: #1f77b4"/>
     <use xlink:href="#md8abeb7b6a" x="159.99066" y="232.924103" style="fill: #1f77b4; stroke: #1f77b4"/>
    </g>
   </g>
   <g id="line2d_14">
    <path d="M 388.015889 144.445335 
L 381.799677 153.092 
L 375.404332 161.606609 
L 368.575167 170.319798 
L 361.734085 178.693688 
L 354.612733 187.062135 
L 347.441893 195.146252 
L 340.216878 202.949221 
L 333.302738 210.090785 
L 326.430811 216.863488 
L 320.10373 222.801963 
L 313.574478 228.620928 
L 307.379396 233.843563 
L 301.100144 238.834778 
L 295.444098 243.067406 
L 289.227324 247.431224 
L 283.142681 251.411154 
L 277.311206 254.957912 
L 271.876784 258.030609 
L 265.982067 261.113935 
L 260.672817 263.67246 
L 254.958801 266.198784 
L 248.794088 268.665006 
L 243.503975 270.570508 
L 237.865164 272.390725 
L 231.848079 274.096573 
L 225.421928 275.652414 
L 220.314998 276.695025 
L 214.947205 277.607267 
L 209.305905 278.364086 
L 203.37938 278.936684 
L 197.157422 279.292095 
L 190.632078 279.392773 
L 183.798598 279.196207 
L 179.071346 278.876658 
L 174.2081 278.388383 
L 169.211464 277.714802 
L 164.085634 276.838279 
L 158.836671 275.740165 
L 153.472786 274.40089 
L 148.004651 272.800096 
L 142.445721 270.916816 
L 136.812566 268.72973 
L 131.125198 266.217481 
L 125.407379 263.359075 
L 119.686897 260.134368 
L 113.995782 256.524643 
L 108.370435 252.513277 
L 102.851651 248.086495 
L 97.484493 243.234195 
L 94.872955 240.646537 
L 92.317995 237.950821 
L 89.826282 235.147208 
L 87.404654 232.236259 
L 85.060095 229.218952 
L 82.7997 226.096714 
L 80.630641 222.871438 
L 78.560123 219.545507 
L 76.595347 216.121808 
L 74.743456 212.603747 
L 73.011491 208.995257 
L 71.406337 205.300803 
L 69.934667 201.525384 
L 68.602887 197.674523 
L 67.417083 193.754258 
L 66.38296 189.771128 
L 65.50579 185.732143 
L 64.790354 181.644759 
L 64.240899 177.516844 
L 63.861079 173.356633 
L 63.653924 169.172682 
L 63.62179 164.973822 
L 63.766336 160.769095 
L 64.088493 156.567699 
L 64.588449 152.378925 
L 65.265634 148.212093 
L 66.118722 144.076481 
L 67.145632 139.981268 
L 68.343542 135.935459 
L 69.708911 131.947829 
L 71.237508 128.026858 
L 72.924445 124.180676 
L 74.764223 120.417007 
L 76.750775 116.743126 
L 78.877521 113.165814 
L 81.137427 109.691321 
L 83.52306 106.325339 
L 86.026656 103.072979 
L 88.640175 99.938752 
L 91.355372 96.926563 
L 94.163857 94.039708 
L 97.057153 91.280873 
L 100.026761 88.652148 
L 103.064208 86.155037 
L 106.161109 83.790482 
L 109.309207 81.55888 
L 112.500422 79.460117 
L 115.72689 77.493589 
L 118.980998 75.658244 
L 122.255411 73.952608 
L 125.543105 72.374825 
L 128.837379 70.922688 
L 135.420604 68.38501 
L 141.958564 66.316331 
L 148.410609 64.690078 
L 154.741958 63.477376 
L 160.92352 62.647955 
L 166.93158 62.170945 
L 172.747397 62.015543 
L 178.356746 62.151545 
L 183.749423 62.549775 
L 188.918753 63.18239 
L 193.861106 64.023108 
L 198.575441 65.047347 
L 203.062881 66.232298 
L 207.326327 67.55695 
L 211.370116 69.002069 
L 215.199718 70.550149 
L 218.821468 72.185337 
L 223.879766 74.770599 
L 228.511485 77.477908 
L 232.743036 80.271751 
L 236.601085 83.122451 
L 240.111906 86.005409 
L 243.300938 88.9004 
L 246.192483 91.790938 
L 248.809518 94.663707 
L 251.908925 98.448366 
L 254.605515 102.16359 
L 256.941788 105.795785 
L 258.955897 109.335714 
L 260.681941 112.777513 
L 262.150305 116.117904 
L 263.664263 120.148931 
L 264.863802 124.02013 
L 265.788723 127.734561 
L 266.473308 131.296936 
L 267.018868 135.379236 
L 267.304119 139.261971 
L 267.36553 142.956737 
L 267.194933 147.045229 
L 266.801844 150.911652 
L 266.219706 154.57305 
L 265.358183 158.526826 
L 264.31963 162.255412 
L 262.9738 166.205464 
L 261.470488 169.920729 
L 259.646334 173.800516 
L 257.687226 177.444867 
L 255.402851 181.209602 
L 253.005734 184.744764 
L 250.283984 188.366713 
L 247.231221 192.043276 
L 244.08862 195.489883 
L 240.620887 198.97151 
L 236.825586 202.464601 
L 232.701508 205.948372 
L 228.248313 209.404451 
L 223.733511 212.633146 
L 218.896487 215.827945 
L 213.737033 218.973606 
L 208.255187 222.055872 
L 202.451155 225.061173 
L 196.325278 227.976353 
L 189.878032 230.788429 
L 183.392797 233.376695 
L 176.590486 235.854372 
L 169.471758 238.207345 
L 168.044395 238.651168 
L 168.044395 238.651168 
" clip-path="url(#p12352bcaf7)" style="fill: none; stroke: #d62728; stroke-width: 1.5; stroke-linecap: square"/>
   </g>
   <g id="patch_3">
    <path d="M 47.389063 307.872 
L 47.389063 41.76 
" style="fill: none; stroke: #000000; stroke-width: 0.8; stroke-linejoin: miter; stroke-linecap: square"/>
   </g>
   <g id="patch_4">
    <path d="M 404.509063 307.872 
L 404.509063 41.76 
" style="fill: none; stroke: #000000; stroke-width: 0.8; stroke-linejoin: miter; stroke-linecap: square"/>
   </g>
   <g id="patch_5">
    <path d="M 47.389063 307.872 
L 404.509062 307.872 
" style="fill: none; stroke: #000000; stroke-width: 0.8; stroke-linejoin: miter; stroke-linecap: square"/>
   </g>
   <g id="patch_6">
    <path d="M 47.389063 41.76 
L 404.509062 41.76 
" style="fill: none; stroke: #000000; stroke-width: 0.8; stroke-linejoin: miter; stroke-linecap: square"/>
   </g>
   <g id="text_15">
    <g id="patch_7">
     <path d="M 422.365063 102.337163 
L 567.365063 102.337163 
Q 571.365063 102.337163 571.365063 98.337163 
L 571.365063 55.0656 
Q 571.365063 51.0656 567.365063 51.0656 
L 422.365063 51.0656 
Q 418.365063 51.0656 418.365063 55.0656 
L 418.365063 98.337163 
Q 418.365063 102.337163 422.365063 102.337163 
z
" style="fill: #ffffff; opacity: 0.5; stroke: #000000; stroke-linejoin: miter"/>
    </g>
    <!-- Summary -->
    <g transform="translate(422.365063 62.664038) scale(0.1 -0.1)">
     <defs>
      <path id="DejaVuSans-53" d="M 3425 4513 
L 3425 3897 
Q 3066 4069 2747 4153 
Q 2428 4238 2131 4238 
Q 1616 4238 1336 4038 
Q 1056 3838 1056 3469 
Q 1056 3159 1242 3001 
Q 1428 2844 1947 2747 
L 2328 2669 
Q 3034 2534 3370 2195 
Q 3706 1856 3706 1288 
Q 3706 609 3251 259 
Q 2797 -91 1919 -91 
Q 1588 -91 1214 -16 
Q 841 59 441 206 
L 441 856 
Q 825 641 1194 531 
Q 1563 422 1919 422 
Q 2459 422 2753 634 
Q 3047 847 3047 1241 
Q 3047 1584 2836 1778 
Q 2625 1972 2144 2069 
L 1759 2144 
Q 1053 2284 737 2584 
Q 422 2884 422 3419 
Q 422 4038 858 4394 
Q 1294 4750 2059 4750 
Q 2388 4750 2728 4690 
Q 3069 4631 3425 4513 
z
" transform="scale(0.015625)"/>
      <path id="DejaVuSans-75" d="M 544 1381 
L 544 3500 
L 1119 3500 
L 1119 1403 
Q 1119 906 1312 657 
Q 1506 409 1894 409 
Q 2359 409 2629 706 
Q 2900 1003 2900 1516 
L 2900 3500 
L 3475 3500 
L 3475 0 
L 2900 0 
L 2900 538 
Q 2691 219 2414 64 
Q 2138 -91 1772 -91 
Q 1169 -91 856 284 
Q 544 659 544 1381 
z
M 1991 3584 
L 1991 3584 
z
" transform="scale(0.015625)"/>
      <path id="DejaVuSans-61" d="M 2194 1759 
Q 1497 1759 1228 1600 
Q 959 1441 959 1056 
Q 959 750 1161 570 
Q 1363 391 1709 391 
Q 2188 391 2477 730 
Q 2766 1069 2766 1631 
L 2766 1759 
L 2194 1759 
z
M 3341 1997 
L 3341 0 
L 2766 0 
L 2766 531 
Q 2569 213 2275 61 
Q 1981 -91 1556 -91 
Q 1019 -91 701 211 
Q 384 513 384 1019 
Q 384 1609 779 1909 
Q 1175 2209 1959 2209 
L 2766 2209 
L 2766 2266 
Q 2766 2663 2505 2880 
Q 2244 3097 1772 3097 
Q 1472 3097 1187 3025 
Q 903 2953 641 2809 
L 641 3341 
Q 956 3463 1253 3523 
Q 1550 3584 1831 3584 
Q 2591 3584 2966 3190 
Q 3341 2797 3341 1997 
z
" transform="scale(0.015625)"/>
      <path id="DejaVuSans-72" d="M 2631 2963 
Q 2534 3019 2420 3045 
Q 2306 3072 2169 3072 
Q 1681 3072 1420 2755 
Q 1159 2438 1159 1844 
L 1159 0 
L 581 0 
L 581 3500 
L 1159 3500 
L 1159 2956 
Q 1341 3275 1631 3429 
Q 1922 3584 2338 3584 
Q 2397 3584 2469 3576 
Q 2541 3569 2628 3553 
L 2631 2963 
z
" transform="scale(0.015625)"/>
      <path id="DejaVuSans-79" d="M 2059 -325 
Q 1816 -950 1584 -1140 
Q 1353 -1331 966 -1331 
L 506 -1331 
L 506 -850 
L 844 -850 
Q 1081 -850 1212 -737 
Q 1344 -625 1503 -206 
L 1606 56 
L 191 3500 
L 800 3500 
L 1894 763 
L 2988 3500 
L 3597 3500 
L 2059 -325 
z
" transform="scale(0.015625)"/>
     </defs>
     <use xlink:href="#DejaVuSans-53"/>
     <use xlink:href="#DejaVuSans-75" x="63.476562"/>
     <use xlink:href="#DejaVuSans-6d" x="126.855469"/>
     <use xlink:href="#DejaVuSans-6d" x="224.267578"/>
     <use xlink:href="#DejaVuSans-61" x="321.679688"/>
     <use xlink:href="#DejaVuSans-72" x="382.958984"/>
     <use xlink:href="#DejaVuSans-79" x="424.072266"/>
    </g>
    <!-- $Q_I$: 11.15$\pm$0.19 k -->
    <g transform="translate(422.365063 73.86185) scale(0.1 -0.1)">
     <defs>
      <path id="DejaVuSans-Oblique-51" d="M 2309 -84 
Q 2275 -88 2237 -89 
Q 2200 -91 2125 -91 
Q 1250 -91 756 411 
Q 263 913 263 1797 
Q 263 2319 452 2844 
Q 641 3369 978 3788 
Q 1369 4269 1858 4509 
Q 2347 4750 2938 4750 
Q 3794 4750 4287 4245 
Q 4781 3741 4781 2869 
Q 4781 1928 4265 1147 
Q 3750 366 2919 44 
L 3553 -825 
L 2847 -825 
L 2309 -84 
z
M 2919 4238 
Q 2400 4238 2003 3986 
Q 1606 3734 1313 3219 
Q 1125 2891 1026 2522 
Q 928 2153 928 1778 
Q 928 1128 1239 775 
Q 1550 422 2119 422 
Q 2631 422 3032 676 
Q 3434 931 3719 1434 
Q 3909 1772 4009 2142 
Q 4109 2513 4109 2881 
Q 4109 3528 3796 3883 
Q 3484 4238 2919 4238 
z
" transform="scale(0.015625)"/>
      <path id="DejaVuSans-Oblique-49" d="M 1081 4666 
L 1716 4666 
L 806 0 
L 172 0 
L 1081 4666 
z
" transform="scale(0.015625)"/>
      <path id="DejaVuSans-3a" d="M 750 794 
L 1409 794 
L 1409 0 
L 750 0 
L 750 794 
z
M 750 3309 
L 1409 3309 
L 1409 2516 
L 750 2516 
L 750 3309 
z
" transform="scale(0.015625)"/>
      <path id="DejaVuSans-b1" d="M 2944 4013 
L 2944 2803 
L 4684 2803 
L 4684 2272 
L 2944 2272 
L 2944 1063 
L 2419 1063 
L 2419 2272 
L 678 2272 
L 678 2803 
L 2419 2803 
L 2419 4013 
L 2944 4013 
z
M 678 531 
L 4684 531 
L 4684 0 
L 678 0 
L 678 531 
z
" transform="scale(0.015625)"/>
      <path id="DejaVuSans-39" d="M 703 97 
L 703 672 
Q 941 559 1184 500 
Q 1428 441 1663 441 
Q 2288 441 2617 861 
Q 2947 1281 2994 2138 
Q 2813 1869 2534 1725 
Q 2256 1581 1919 1581 
Q 1219 1581 811 2004 
Q 403 2428 403 3163 
Q 403 3881 828 4315 
Q 1253 4750 1959 4750 
Q 2769 4750 3195 4129 
Q 3622 3509 3622 2328 
Q 3622 1225 3098 567 
Q 2575 -91 1691 -91 
Q 1453 -91 1209 -44 
Q 966 3 703 97 
z
M 1959 2075 
Q 2384 2075 2632 2365 
Q 2881 2656 2881 3163 
Q 2881 3666 2632 3958 
Q 2384 4250 1959 4250 
Q 1534 4250 1286 3958 
Q 1038 3666 1038 3163 
Q 1038 2656 1286 2365 
Q 1534 2075 1959 2075 
z
" transform="scale(0.015625)"/>
      <path id="DejaVuSans-6b" d="M 581 4863 
L 1159 4863 
L 1159 1991 
L 2875 3500 
L 3609 3500 
L 1753 1863 
L 3688 0 
L 2938 0 
L 1159 1709 
L 1159 0 
L 581 0 
L 581 4863 
z
" transform="scale(0.015625)"/>
     </defs>
     <use xlink:href="#DejaVuSans-Oblique-51" transform="translate(0 0.015625)"/>
     <use xlink:href="#DejaVuSans-Oblique-49" transform="translate(78.710938 -16.390625) scale(0.7)"/>
     <use xlink:href="#DejaVuSans-3a" transform="translate(102.089844 0.015625)"/>
     <use xlink:href="#DejaVuSans-20" transform="translate(135.78125 0.015625)"/>
     <use xlink:href="#DejaVuSans-31" transform="translate(167.568359 0.015625)"/>
     <use xlink:href="#DejaVuSans-31" transform="translate(231.191406 0.015625)"/>
     <use xlink:href="#DejaVuSans-2e" transform="translate(294.814453 0.015625)"/>
     <use xlink:href="#DejaVuSans-31" transform="translate(326.601562 0.015625)"/>
     <use xlink:href="#DejaVuSans-35" transform="translate(390.224609 0.015625)"/>
     <use xlink:href="#DejaVuSans-b1" transform="translate(453.847656 0.015625)"/>
     <use xlink:href="#DejaVuSans-30" transform="translate(537.636719 0.015625)"/>
     <use xlink:href="#DejaVuSans-2e" transform="translate(601.259766 0.015625)"/>
     <use xlink:href="#DejaVuSans-31" transform="translate(633.046875 0.015625)"/>
     <use xlink:href="#DejaVuSans-39" transform="translate(696.669922 0.015625)"/>
     <use xlink:href="#DejaVuSans-20" transform="translate(760.292969 0.015625)"/>
     <use xlink:href="#DejaVuSans-6b" transform="translate(792.080078 0.015625)"/>
    </g>
    <!-- $Q_C$: 10.40$\pm$0.12 k -->
    <g transform="translate(422.365063 85.059663) scale(0.1 -0.1)">
     <defs>
      <path id="DejaVuSans-Oblique-43" d="M 4447 4306 
L 4319 3641 
Q 4019 3944 3683 4091 
Q 3347 4238 2956 4238 
Q 2422 4238 2017 3981 
Q 1613 3725 1319 3200 
Q 1131 2863 1032 2486 
Q 934 2109 934 1728 
Q 934 1091 1264 756 
Q 1594 422 2222 422 
Q 2656 422 3056 561 
Q 3456 700 3834 978 
L 3688 231 
Q 3316 72 2936 -9 
Q 2556 -91 2175 -91 
Q 1278 -91 773 396 
Q 269 884 269 1753 
Q 269 2309 461 2846 
Q 653 3384 1013 3828 
Q 1394 4300 1883 4525 
Q 2372 4750 3022 4750 
Q 3422 4750 3780 4639 
Q 4138 4528 4447 4306 
z
" transform="scale(0.015625)"/>
     </defs>
     <use xlink:href="#DejaVuSans-Oblique-51" transform="translate(0 0.015625)"/>
     <use xlink:href="#DejaVuSans-Oblique-43" transform="translate(78.710938 -16.390625) scale(0.7)"/>
     <use xlink:href="#DejaVuSans-3a" transform="translate(130.322266 0.015625)"/>
     <use xlink:href="#DejaVuSans-20" transform="translate(164.013672 0.015625)"/>
     <use xlink:href="#DejaVuSans-31" transform="translate(195.800781 0.015625)"/>
     <use xlink:href="#DejaVuSans-30" transform="translate(259.423828 0.015625)"/>
     <use xlink:href="#DejaVuSans-2e" transform="translate(323.046875 0.015625)"/>
     <use xlink:href="#DejaVuSans-34" transform="translate(354.833984 0.015625)"/>
     <use xlink:href="#DejaVuSans-30" transform="translate(418.457031 0.015625)"/>
     <use xlink:href="#DejaVuSans-b1" transform="translate(482.080078 0.015625)"/>
     <use xlink:href="#DejaVuSans-30" transform="translate(565.869141 0.015625)"/>
     <use xlink:href="#DejaVuSans-2e" transform="translate(629.492188 0.015625)"/>
     <use xlink:href="#DejaVuSans-31" transform="translate(661.279297 0.015625)"/>
     <use xlink:href="#DejaVuSans-32" transform="translate(724.902344 0.015625)"/>
     <use xlink:href="#DejaVuSans-20" transform="translate(788.525391 0.015625)"/>
     <use xlink:href="#DejaVuSans-6b" transform="translate(820.3125 0.015625)"/>
    </g>
    <!-- $f_{res}$: 5.7197556$\pm$5.6e-06 GHz -->
    <g transform="translate(422.365063 96.257475) scale(0.1 -0.1)">
     <defs>
      <path id="DejaVuSans-Oblique-66" d="M 3059 4863 
L 2969 4384 
L 2419 4384 
Q 2106 4384 1964 4261 
Q 1822 4138 1753 3809 
L 1691 3500 
L 2638 3500 
L 2553 3053 
L 1606 3053 
L 1013 0 
L 434 0 
L 1031 3053 
L 481 3053 
L 563 3500 
L 1113 3500 
L 1159 3744 
Q 1278 4363 1576 4613 
Q 1875 4863 2516 4863 
L 3059 4863 
z
" transform="scale(0.015625)"/>
      <path id="DejaVuSans-Oblique-72" d="M 2853 2969 
Q 2766 3016 2653 3041 
Q 2541 3066 2413 3066 
Q 1953 3066 1609 2717 
Q 1266 2369 1153 1784 
L 800 0 
L 225 0 
L 909 3500 
L 1484 3500 
L 1375 2956 
Q 1603 3259 1920 3421 
Q 2238 3584 2597 3584 
Q 2691 3584 2781 3573 
Q 2872 3563 2963 3538 
L 2853 2969 
z
" transform="scale(0.015625)"/>
      <path id="DejaVuSans-Oblique-65" d="M 3078 2063 
Q 3088 2113 3092 2166 
Q 3097 2219 3097 2272 
Q 3097 2653 2873 2875 
Q 2650 3097 2266 3097 
Q 1838 3097 1509 2826 
Q 1181 2556 1013 2059 
L 3078 2063 
z
M 3578 1613 
L 903 1613 
Q 884 1494 878 1425 
Q 872 1356 872 1306 
Q 872 872 1139 634 
Q 1406 397 1894 397 
Q 2269 397 2603 481 
Q 2938 566 3225 728 
L 3116 159 
Q 2806 34 2476 -28 
Q 2147 -91 1806 -91 
Q 1078 -91 686 257 
Q 294 606 294 1247 
Q 294 1794 489 2264 
Q 684 2734 1063 3103 
Q 1306 3334 1642 3459 
Q 1978 3584 2356 3584 
Q 2950 3584 3301 3228 
Q 3653 2872 3653 2272 
Q 3653 2128 3634 1964 
Q 3616 1800 3578 1613 
z
" transform="scale(0.015625)"/>
      <path id="DejaVuSans-Oblique-73" d="M 3200 3397 
L 3091 2853 
Q 2863 2978 2609 3040 
Q 2356 3103 2088 3103 
Q 1634 3103 1373 2948 
Q 1113 2794 1113 2528 
Q 1113 2219 1719 2053 
Q 1766 2041 1788 2034 
L 1972 1978 
Q 2547 1819 2739 1644 
Q 2931 1469 2931 1166 
Q 2931 609 2489 259 
Q 2047 -91 1331 -91 
Q 1053 -91 747 -37 
Q 441 16 72 128 
L 184 722 
Q 500 559 806 475 
Q 1113 391 1394 391 
Q 1816 391 2080 572 
Q 2344 753 2344 1031 
Q 2344 1331 1650 1516 
L 1591 1531 
L 1394 1581 
Q 956 1697 753 1886 
Q 550 2075 550 2369 
Q 550 2928 970 3256 
Q 1391 3584 2113 3584 
Q 2397 3584 2667 3537 
Q 2938 3491 3200 3397 
z
" transform="scale(0.015625)"/>
      <path id="DejaVuSans-37" d="M 525 4666 
L 3525 4666 
L 3525 4397 
L 1831 0 
L 1172 0 
L 2766 4134 
L 525 4134 
L 525 4666 
z
" transform="scale(0.015625)"/>
      <path id="DejaVuSans-36" d="M 2113 2584 
Q 1688 2584 1439 2293 
Q 1191 2003 1191 1497 
Q 1191 994 1439 701 
Q 1688 409 2113 409 
Q 2538 409 2786 701 
Q 3034 994 3034 1497 
Q 3034 2003 2786 2293 
Q 2538 2584 2113 2584 
z
M 3366 4563 
L 3366 3988 
Q 3128 4100 2886 4159 
Q 2644 4219 2406 4219 
Q 1781 4219 1451 3797 
Q 1122 3375 1075 2522 
Q 1259 2794 1537 2939 
Q 1816 3084 2150 3084 
Q 2853 3084 3261 2657 
Q 3669 2231 3669 1497 
Q 3669 778 3244 343 
Q 2819 -91 2113 -91 
Q 1303 -91 875 529 
Q 447 1150 447 2328 
Q 447 3434 972 4092 
Q 1497 4750 2381 4750 
Q 2619 4750 2861 4703 
Q 3103 4656 3366 4563 
z
" transform="scale(0.015625)"/>
      <path id="DejaVuSans-47" d="M 3809 666 
L 3809 1919 
L 2778 1919 
L 2778 2438 
L 4434 2438 
L 4434 434 
Q 4069 175 3628 42 
Q 3188 -91 2688 -91 
Q 1594 -91 976 548 
Q 359 1188 359 2328 
Q 359 3472 976 4111 
Q 1594 4750 2688 4750 
Q 3144 4750 3555 4637 
Q 3966 4525 4313 4306 
L 4313 3634 
Q 3963 3931 3569 4081 
Q 3175 4231 2741 4231 
Q 1884 4231 1454 3753 
Q 1025 3275 1025 2328 
Q 1025 1384 1454 906 
Q 1884 428 2741 428 
Q 3075 428 3337 486 
Q 3600 544 3809 666 
z
" transform="scale(0.015625)"/>
      <path id="DejaVuSans-48" d="M 628 4666 
L 1259 4666 
L 1259 2753 
L 3553 2753 
L 3553 4666 
L 4184 4666 
L 4184 0 
L 3553 0 
L 3553 2222 
L 1259 2222 
L 1259 0 
L 628 0 
L 628 4666 
z
" transform="scale(0.015625)"/>
      <path id="DejaVuSans-7a" d="M 353 3500 
L 3084 3500 
L 3084 2975 
L 922 459 
L 3084 459 
L 3084 0 
L 275 0 
L 275 525 
L 2438 3041 
L 353 3041 
L 353 3500 
z
" transform="scale(0.015625)"/>
     </defs>
     <use xlink:href="#DejaVuSans-Oblique-66" transform="translate(0 0.015625)"/>
     <use xlink:href="#DejaVuSans-Oblique-72" transform="translate(35.205078 -16.390625) scale(0.7)"/>
     <use xlink:href="#DejaVuSans-Oblique-65" transform="translate(63.984375 -16.390625) scale(0.7)"/>
     <use xlink:href="#DejaVuSans-Oblique-73" transform="translate(107.050781 -16.390625) scale(0.7)"/>
     <use xlink:href="#DejaVuSans-3a" transform="translate(146.254883 0.015625)"/>
     <use xlink:href="#DejaVuSans-20" transform="translate(179.946289 0.015625)"/>
     <use xlink:href="#DejaVuSans-35" transform="translate(211.733398 0.015625)"/>
     <use xlink:href="#DejaVuSans-2e" transform="translate(275.356445 0.015625)"/>
     <use xlink:href="#DejaVuSans-37" transform="translate(299.393555 0.015625)"/>
     <use xlink:href="#DejaVuSans-31" transform="translate(363.016602 0.015625)"/>
     <use xlink:href="#DejaVuSans-39" transform="translate(426.639648 0.015625)"/>
     <use xlink:href="#DejaVuSans-37" transform="translate(490.262695 0.015625)"/>
     <use xlink:href="#DejaVuSans-35" transform="translate(553.885742 0.015625)"/>
     <use xlink:href="#DejaVuSans-35" transform="translate(617.508789 0.015625)"/>
     <use xlink:href="#DejaVuSans-36" transform="translate(681.131836 0.015625)"/>
     <use xlink:href="#DejaVuSans-b1" transform="translate(744.754883 0.015625)"/>
     <use xlink:href="#DejaVuSans-35" transform="translate(828.543945 0.015625)"/>
     <use xlink:href="#DejaVuSans-2e" transform="translate(892.166992 0.015625)"/>
     <use xlink:href="#DejaVuSans-36" transform="translate(923.954102 0.015625)"/>
     <use xlink:href="#DejaVuSans-65" transform="translate(987.577148 0.015625)"/>
     <use xlink:href="#DejaVuSans-2d" transform="translate(1049.100586 0.015625)"/>
     <use xlink:href="#DejaVuSans-30" transform="translate(1085.18457 0.015625)"/>
     <use xlink:href="#DejaVuSans-36" transform="translate(1148.807617 0.015625)"/>
     <use xlink:href="#DejaVuSans-20" transform="translate(1212.430664 0.015625)"/>
     <use xlink:href="#DejaVuSans-47" transform="translate(1244.217773 0.015625)"/>
     <use xlink:href="#DejaVuSans-48" transform="translate(1321.708008 0.015625)"/>
     <use xlink:href="#DejaVuSans-7a" transform="translate(1396.90332 0.015625)"/>
    </g>
   </g>
  </g>
  <g id="text_16">
   <!-- S21 resonator spectroscopy -->
   <g transform="translate(136.404688 16.318125) scale(0.12 -0.12)">
    <defs>
     <path id="DejaVuSans-73" d="M 2834 3397 
L 2834 2853 
Q 2591 2978 2328 3040 
Q 2066 3103 1784 3103 
Q 1356 3103 1142 2972 
Q 928 2841 928 2578 
Q 928 2378 1081 2264 
Q 1234 2150 1697 2047 
L 1894 2003 
Q 2506 1872 2764 1633 
Q 3022 1394 3022 966 
Q 3022 478 2636 193 
Q 2250 -91 1575 -91 
Q 1294 -91 989 -36 
Q 684 19 347 128 
L 347 722 
Q 666 556 975 473 
Q 1284 391 1588 391 
Q 1994 391 2212 530 
Q 2431 669 2431 922 
Q 2431 1156 2273 1281 
Q 2116 1406 1581 1522 
L 1381 1569 
Q 847 1681 609 1914 
Q 372 2147 372 2553 
Q 372 3047 722 3315 
Q 1072 3584 1716 3584 
Q 2034 3584 2315 3537 
Q 2597 3491 2834 3397 
z
" transform="scale(0.015625)"/>
     <path id="DejaVuSans-6f" d="M 1959 3097 
Q 1497 3097 1228 2736 
Q 959 2375 959 1747 
Q 959 1119 1226 758 
Q 1494 397 1959 397 
Q 2419 397 2687 759 
Q 2956 1122 2956 1747 
Q 2956 2369 2687 2733 
Q 2419 3097 1959 3097 
z
M 1959 3584 
Q 2709 3584 3137 3096 
Q 3566 2609 3566 1747 
Q 3566 888 3137 398 
Q 2709 -91 1959 -91 
Q 1206 -91 779 398 
Q 353 888 353 1747 
Q 353 2609 779 3096 
Q 1206 3584 1959 3584 
z
" transform="scale(0.015625)"/>
     <path id="DejaVuSans-6e" d="M 3513 2113 
L 3513 0 
L 2938 0 
L 2938 2094 
Q 2938 2591 2744 2837 
Q 2550 3084 2163 3084 
Q 1697 3084 1428 2787 
Q 1159 2491 1159 1978 
L 1159 0 
L 581 0 
L 581 3500 
L 1159 3500 
L 1159 2956 
Q 1366 3272 1645 3428 
Q 1925 3584 2291 3584 
Q 2894 3584 3203 3211 
Q 3513 2838 3513 2113 
z
" transform="scale(0.015625)"/>
     <path id="DejaVuSans-74" d="M 1172 4494 
L 1172 3500 
L 2356 3500 
L 2356 3053 
L 1172 3053 
L 1172 1153 
Q 1172 725 1289 603 
Q 1406 481 1766 481 
L 2356 481 
L 2356 0 
L 1766 0 
Q 1100 0 847 248 
Q 594 497 594 1153 
L 594 3053 
L 172 3053 
L 172 3500 
L 594 3500 
L 594 4494 
L 1172 4494 
z
" transform="scale(0.015625)"/>
     <path id="DejaVuSans-70" d="M 1159 525 
L 1159 -1331 
L 581 -1331 
L 581 3500 
L 1159 3500 
L 1159 2969 
Q 1341 3281 1617 3432 
Q 1894 3584 2278 3584 
Q 2916 3584 3314 3078 
Q 3713 2572 3713 1747 
Q 3713 922 3314 415 
Q 2916 -91 2278 -91 
Q 1894 -91 1617 61 
Q 1341 213 1159 525 
z
M 3116 1747 
Q 3116 2381 2855 2742 
Q 2594 3103 2138 3103 
Q 1681 3103 1420 2742 
Q 1159 2381 1159 1747 
Q 1159 1113 1420 752 
Q 1681 391 2138 391 
Q 2594 391 2855 752 
Q 3116 1113 3116 1747 
z
" transform="scale(0.015625)"/>
     <path id="DejaVuSans-63" d="M 3122 3366 
L 3122 2828 
Q 2878 2963 2633 3030 
Q 2388 3097 2138 3097 
Q 1578 3097 1268 2742 
Q 959 2388 959 1747 
Q 959 1106 1268 751 
Q 1578 397 2138 397 
Q 2388 397 2633 464 
Q 2878 531 3122 666 
L 3122 134 
Q 2881 22 2623 -34 
Q 2366 -91 2075 -91 
Q 1284 -91 818 406 
Q 353 903 353 1747 
Q 353 2603 823 3093 
Q 1294 3584 2113 3584 
Q 2378 3584 2631 3529 
Q 2884 3475 3122 3366 
z
" transform="scale(0.015625)"/>
    </defs>
    <use xlink:href="#DejaVuSans-53"/>
    <use xlink:href="#DejaVuSans-32" x="63.476562"/>
    <use xlink:href="#DejaVuSans-31" x="127.099609"/>
    <use xlink:href="#DejaVuSans-20" x="190.722656"/>
    <use xlink:href="#DejaVuSans-72" x="222.509766"/>
    <use xlink:href="#DejaVuSans-65" x="261.373047"/>
    <use xlink:href="#DejaVuSans-73" x="322.896484"/>
    <use xlink:href="#DejaVuSans-6f" x="374.996094"/>
    <use xlink:href="#DejaVuSans-6e" x="436.177734"/>
    <use xlink:href="#DejaVuSans-61" x="499.556641"/>
    <use xlink:href="#DejaVuSans-74" x="560.835938"/>
    <use xlink:href="#DejaVuSans-6f" x="600.044922"/>
    <use xlink:href="#DejaVuSans-72" x="661.226562"/>
    <use xlink:href="#DejaVuSans-20" x="702.339844"/>
    <use xlink:href="#DejaVuSans-73" x="734.126953"/>
    <use xlink:href="#DejaVuSans-70" x="786.226562"/>
    <use xlink:href="#DejaVuSans-65" x="849.703125"/>
    <use xlink:href="#DejaVuSans-63" x="911.226562"/>
    <use xlink:href="#DejaVuSans-74" x="966.207031"/>
    <use xlink:href="#DejaVuSans-72" x="1005.416016"/>
    <use xlink:href="#DejaVuSans-6f" x="1044.279297"/>
    <use xlink:href="#DejaVuSans-73" x="1105.460938"/>
    <use xlink:href="#DejaVuSans-63" x="1157.560547"/>
    <use xlink:href="#DejaVuSans-6f" x="1212.541016"/>
    <use xlink:href="#DejaVuSans-70" x="1273.722656"/>
    <use xlink:href="#DejaVuSans-79" x="1337.199219"/>
   </g>
   <!-- tuid: 20231227-193340-015-d5b0e3 -->
   <g transform="translate(110.47625 29.7555) scale(0.12 -0.12)">
    <defs>
     <path id="DejaVuSans-69" d="M 603 3500 
L 1178 3500 
L 1178 0 
L 603 0 
L 603 3500 
z
M 603 4863 
L 1178 4863 
L 1178 4134 
L 603 4134 
L 603 4863 
z
" transform="scale(0.015625)"/>
     <path id="DejaVuSans-64" d="M 2906 2969 
L 2906 4863 
L 3481 4863 
L 3481 0 
L 2906 0 
L 2906 525 
Q 2725 213 2448 61 
Q 2172 -91 1784 -91 
Q 1150 -91 751 415 
Q 353 922 353 1747 
Q 353 2572 751 3078 
Q 1150 3584 1784 3584 
Q 2172 3584 2448 3432 
Q 2725 3281 2906 2969 
z
M 947 1747 
Q 947 1113 1208 752 
Q 1469 391 1925 391 
Q 2381 391 2643 752 
Q 2906 1113 2906 1747 
Q 2906 2381 2643 2742 
Q 2381 3103 1925 3103 
Q 1469 3103 1208 2742 
Q 947 2381 947 1747 
z
" transform="scale(0.015625)"/>
     <path id="DejaVuSans-62" d="M 3116 1747 
Q 3116 2381 2855 2742 
Q 2594 3103 2138 3103 
Q 1681 3103 1420 2742 
Q 1159 2381 1159 1747 
Q 1159 1113 1420 752 
Q 1681 391 2138 391 
Q 2594 391 2855 752 
Q 3116 1113 3116 1747 
z
M 1159 2969 
Q 1341 3281 1617 3432 
Q 1894 3584 2278 3584 
Q 2916 3584 3314 3078 
Q 3713 2572 3713 1747 
Q 3713 922 3314 415 
Q 2916 -91 2278 -91 
Q 1894 -91 1617 61 
Q 1341 213 1159 525 
L 1159 0 
L 581 0 
L 581 4863 
L 1159 4863 
L 1159 2969 
z
" transform="scale(0.015625)"/>
    </defs>
    <use xlink:href="#DejaVuSans-74"/>
    <use xlink:href="#DejaVuSans-75" x="39.208984"/>
    <use xlink:href="#DejaVuSans-69" x="102.587891"/>
    <use xlink:href="#DejaVuSans-64" x="130.371094"/>
    <use xlink:href="#DejaVuSans-3a" x="193.847656"/>
    <use xlink:href="#DejaVuSans-20" x="227.539062"/>
    <use xlink:href="#DejaVuSans-32" x="259.326172"/>
    <use xlink:href="#DejaVuSans-30" x="322.949219"/>
    <use xlink:href="#DejaVuSans-32" x="386.572266"/>
    <use xlink:href="#DejaVuSans-33" x="450.195312"/>
    <use xlink:href="#DejaVuSans-31" x="513.818359"/>
    <use xlink:href="#DejaVuSans-32" x="577.441406"/>
    <use xlink:href="#DejaVuSans-32" x="641.064453"/>
    <use xlink:href="#DejaVuSans-37" x="704.6875"/>
    <use xlink:href="#DejaVuSans-2d" x="768.310547"/>
    <use xlink:href="#DejaVuSans-31" x="804.394531"/>
    <use xlink:href="#DejaVuSans-39" x="868.017578"/>
    <use xlink:href="#DejaVuSans-33" x="931.640625"/>
    <use xlink:href="#DejaVuSans-33" x="995.263672"/>
    <use xlink:href="#DejaVuSans-34" x="1058.886719"/>
    <use xlink:href="#DejaVuSans-30" x="1122.509766"/>
    <use xlink:href="#DejaVuSans-2d" x="1186.132812"/>
    <use xlink:href="#DejaVuSans-30" x="1222.216797"/>
    <use xlink:href="#DejaVuSans-31" x="1285.839844"/>
    <use xlink:href="#DejaVuSans-35" x="1349.462891"/>
    <use xlink:href="#DejaVuSans-2d" x="1413.085938"/>
    <use xlink:href="#DejaVuSans-64" x="1449.169922"/>
    <use xlink:href="#DejaVuSans-35" x="1512.646484"/>
    <use xlink:href="#DejaVuSans-62" x="1576.269531"/>
    <use xlink:href="#DejaVuSans-30" x="1639.746094"/>
    <use xlink:href="#DejaVuSans-65" x="1703.369141"/>
    <use xlink:href="#DejaVuSans-33" x="1764.892578"/>
   </g>
  </g>
 </g>
 <defs>
  <clipPath id="p12352bcaf7">
   <rect x="47.389063" y="41.76" width="357.12" height="266.112"/>
  </clipPath>
 </defs>
</svg>
