<?xml version="1.0" encoding="utf-8" standalone="no"?>
<!DOCTYPE svg PUBLIC "-//W3C//DTD SVG 1.1//EN"
  "http://www.w3.org/Graphics/SVG/1.1/DTD/svg11.dtd">
<svg xmlns:xlink="http://www.w3.org/1999/xlink" width="587.8635pt" height="345.42825pt" viewBox="0 0 587.8635 345.42825" xmlns="http://www.w3.org/2000/svg" version="1.1">
 <metadata>
  <rdf:RDF xmlns:dc="http://purl.org/dc/elements/1.1/" xmlns:cc="http://creativecommons.org/ns#" xmlns:rdf="http://www.w3.org/1999/02/22-rdf-syntax-ns#">
   <cc:Work>
    <dc:type rdf:resource="http://purl.org/dc/dcmitype/StillImage"/>
    <dc:date>2023-12-27T16:44:36.895893</dc:date>
    <dc:format>image/svg+xml</dc:format>
    <dc:creator>
     <cc:Agent>
      <dc:title>Matplotlib v3.8.2, https://matplotlib.org/</dc:title>
     </cc:Agent>
    </dc:creator>
   </cc:Work>
  </rdf:RDF>
 </metadata>
 <defs>
  <style type="text/css">*{stroke-linejoin: round; stroke-linecap: butt}</style>
 </defs>
 <g id="figure_1">
  <g id="patch_1">
   <path d="M 0 345.42825 
L 587.8635 345.42825 
L 587.8635 -0 
L 0 -0 
L 0 345.42825 
z
" style="fill: none; opacity: 0"/>
  </g>
  <g id="axes_1">
   <g id="patch_2">
    <path d="M 47.3875 307.872 
L 404.5075 307.872 
L 404.5075 41.76 
L 47.3875 41.76 
z
" style="fill: #ffffff"/>
   </g>
   <g id="matplotlib.axis_1">
    <g id="xtick_1">
     <g id="line2d_1">
      <defs>
       <path id="md5e9e75e6d" d="M 0 0 
L 0 3.5 
" style="stroke: #000000; stroke-width: 0.8"/>
      </defs>
      <g>
       <use xlink:href="#md5e9e75e6d" x="62.765873" y="307.872" style="stroke: #000000; stroke-width: 0.8"/>
      </g>
     </g>
     <g id="text_1">
      <!-- 0 -->
      <g transform="translate(59.584623 322.470438) scale(0.1 -0.1)">
       <defs>
        <path id="DejaVuSans-30" d="M 2034 4250 
Q 1547 4250 1301 3770 
Q 1056 3291 1056 2328 
Q 1056 1369 1301 889 
Q 1547 409 2034 409 
Q 2525 409 2770 889 
Q 3016 1369 3016 2328 
Q 3016 3291 2770 3770 
Q 2525 4250 2034 4250 
z
M 2034 4750 
Q 2819 4750 3233 4129 
Q 3647 3509 3647 2328 
Q 3647 1150 3233 529 
Q 2819 -91 2034 -91 
Q 1250 -91 836 529 
Q 422 1150 422 2328 
Q 422 3509 836 4129 
Q 1250 4750 2034 4750 
z
" transform="scale(0.015625)"/>
       </defs>
       <use xlink:href="#DejaVuSans-30"/>
      </g>
     </g>
    </g>
    <g id="xtick_2">
     <g id="line2d_2">
      <g>
       <use xlink:href="#md5e9e75e6d" x="105.483577" y="307.872" style="stroke: #000000; stroke-width: 0.8"/>
      </g>
     </g>
     <g id="text_2">
      <!-- 2 -->
      <g transform="translate(102.302327 322.470438) scale(0.1 -0.1)">
       <defs>
        <path id="DejaVuSans-32" d="M 1228 531 
L 3431 531 
L 3431 0 
L 469 0 
L 469 531 
Q 828 903 1448 1529 
Q 2069 2156 2228 2338 
Q 2531 2678 2651 2914 
Q 2772 3150 2772 3378 
Q 2772 3750 2511 3984 
Q 2250 4219 1831 4219 
Q 1534 4219 1204 4116 
Q 875 4013 500 3803 
L 500 4441 
Q 881 4594 1212 4672 
Q 1544 4750 1819 4750 
Q 2544 4750 2975 4387 
Q 3406 4025 3406 3419 
Q 3406 3131 3298 2873 
Q 3191 2616 2906 2266 
Q 2828 2175 2409 1742 
Q 1991 1309 1228 531 
z
" transform="scale(0.015625)"/>
       </defs>
       <use xlink:href="#DejaVuSans-32"/>
      </g>
     </g>
    </g>
    <g id="xtick_3">
     <g id="line2d_3">
      <g>
       <use xlink:href="#md5e9e75e6d" x="148.20128" y="307.872" style="stroke: #000000; stroke-width: 0.8"/>
      </g>
     </g>
     <g id="text_3">
      <!-- 4 -->
      <g transform="translate(145.02003 322.470438) scale(0.1 -0.1)">
       <defs>
        <path id="DejaVuSans-34" d="M 2419 4116 
L 825 1625 
L 2419 1625 
L 2419 4116 
z
M 2253 4666 
L 3047 4666 
L 3047 1625 
L 3713 1625 
L 3713 1100 
L 3047 1100 
L 3047 0 
L 2419 0 
L 2419 1100 
L 313 1100 
L 313 1709 
L 2253 4666 
z
" transform="scale(0.015625)"/>
       </defs>
       <use xlink:href="#DejaVuSans-34"/>
      </g>
     </g>
    </g>
    <g id="xtick_4">
     <g id="line2d_4">
      <g>
       <use xlink:href="#md5e9e75e6d" x="190.918983" y="307.872" style="stroke: #000000; stroke-width: 0.8"/>
      </g>
     </g>
     <g id="text_4">
      <!-- 6 -->
      <g transform="translate(187.737733 322.470438) scale(0.1 -0.1)">
       <defs>
        <path id="DejaVuSans-36" d="M 2113 2584 
Q 1688 2584 1439 2293 
Q 1191 2003 1191 1497 
Q 1191 994 1439 701 
Q 1688 409 2113 409 
Q 2538 409 2786 701 
Q 3034 994 3034 1497 
Q 3034 2003 2786 2293 
Q 2538 2584 2113 2584 
z
M 3366 4563 
L 3366 3988 
Q 3128 4100 2886 4159 
Q 2644 4219 2406 4219 
Q 1781 4219 1451 3797 
Q 1122 3375 1075 2522 
Q 1259 2794 1537 2939 
Q 1816 3084 2150 3084 
Q 2853 3084 3261 2657 
Q 3669 2231 3669 1497 
Q 3669 778 3244 343 
Q 2819 -91 2113 -91 
Q 1303 -91 875 529 
Q 447 1150 447 2328 
Q 447 3434 972 4092 
Q 1497 4750 2381 4750 
Q 2619 4750 2861 4703 
Q 3103 4656 3366 4563 
z
" transform="scale(0.015625)"/>
       </defs>
       <use xlink:href="#DejaVuSans-36"/>
      </g>
     </g>
    </g>
    <g id="xtick_5">
     <g id="line2d_5">
      <g>
       <use xlink:href="#md5e9e75e6d" x="233.636687" y="307.872" style="stroke: #000000; stroke-width: 0.8"/>
      </g>
     </g>
     <g id="text_5">
      <!-- 8 -->
      <g transform="translate(230.455437 322.470438) scale(0.1 -0.1)">
       <defs>
        <path id="DejaVuSans-38" d="M 2034 2216 
Q 1584 2216 1326 1975 
Q 1069 1734 1069 1313 
Q 1069 891 1326 650 
Q 1584 409 2034 409 
Q 2484 409 2743 651 
Q 3003 894 3003 1313 
Q 3003 1734 2745 1975 
Q 2488 2216 2034 2216 
z
M 1403 2484 
Q 997 2584 770 2862 
Q 544 3141 544 3541 
Q 544 4100 942 4425 
Q 1341 4750 2034 4750 
Q 2731 4750 3128 4425 
Q 3525 4100 3525 3541 
Q 3525 3141 3298 2862 
Q 3072 2584 2669 2484 
Q 3125 2378 3379 2068 
Q 3634 1759 3634 1313 
Q 3634 634 3220 271 
Q 2806 -91 2034 -91 
Q 1263 -91 848 271 
Q 434 634 434 1313 
Q 434 1759 690 2068 
Q 947 2378 1403 2484 
z
M 1172 3481 
Q 1172 3119 1398 2916 
Q 1625 2713 2034 2713 
Q 2441 2713 2670 2916 
Q 2900 3119 2900 3481 
Q 2900 3844 2670 4047 
Q 2441 4250 2034 4250 
Q 1625 4250 1398 4047 
Q 1172 3844 1172 3481 
z
" transform="scale(0.015625)"/>
       </defs>
       <use xlink:href="#DejaVuSans-38"/>
      </g>
     </g>
    </g>
    <g id="xtick_6">
     <g id="line2d_6">
      <g>
       <use xlink:href="#md5e9e75e6d" x="276.35439" y="307.872" style="stroke: #000000; stroke-width: 0.8"/>
      </g>
     </g>
     <g id="text_6">
      <!-- 10 -->
      <g transform="translate(269.99189 322.470438) scale(0.1 -0.1)">
       <defs>
        <path id="DejaVuSans-31" d="M 794 531 
L 1825 531 
L 1825 4091 
L 703 3866 
L 703 4441 
L 1819 4666 
L 2450 4666 
L 2450 531 
L 3481 531 
L 3481 0 
L 794 0 
L 794 531 
z
" transform="scale(0.015625)"/>
       </defs>
       <use xlink:href="#DejaVuSans-31"/>
       <use xlink:href="#DejaVuSans-30" x="63.623047"/>
      </g>
     </g>
    </g>
    <g id="xtick_7">
     <g id="line2d_7">
      <g>
       <use xlink:href="#md5e9e75e6d" x="319.072093" y="307.872" style="stroke: #000000; stroke-width: 0.8"/>
      </g>
     </g>
     <g id="text_7">
      <!-- 12 -->
      <g transform="translate(312.709593 322.470438) scale(0.1 -0.1)">
       <use xlink:href="#DejaVuSans-31"/>
       <use xlink:href="#DejaVuSans-32" x="63.623047"/>
      </g>
     </g>
    </g>
    <g id="xtick_8">
     <g id="line2d_8">
      <g>
       <use xlink:href="#md5e9e75e6d" x="361.789797" y="307.872" style="stroke: #000000; stroke-width: 0.8"/>
      </g>
     </g>
     <g id="text_8">
      <!-- 14 -->
      <g transform="translate(355.427297 322.470438) scale(0.1 -0.1)">
       <use xlink:href="#DejaVuSans-31"/>
       <use xlink:href="#DejaVuSans-34" x="63.623047"/>
      </g>
     </g>
    </g>
    <g id="xtick_9">
     <g id="line2d_9">
      <g>
       <use xlink:href="#md5e9e75e6d" x="404.5075" y="307.872" style="stroke: #000000; stroke-width: 0.8"/>
      </g>
     </g>
     <g id="text_9">
      <!-- 16 -->
      <g transform="translate(398.145 322.470438) scale(0.1 -0.1)">
       <use xlink:href="#DejaVuSans-31"/>
       <use xlink:href="#DejaVuSans-36" x="63.623047"/>
      </g>
     </g>
    </g>
    <g id="text_10">
     <!-- Time [μs] -->
     <g transform="translate(202.437344 336.148562) scale(0.1 -0.1)">
      <defs>
       <path id="DejaVuSans-54" d="M -19 4666 
L 3928 4666 
L 3928 4134 
L 2272 4134 
L 2272 0 
L 1638 0 
L 1638 4134 
L -19 4134 
L -19 4666 
z
" transform="scale(0.015625)"/>
       <path id="DejaVuSans-69" d="M 603 3500 
L 1178 3500 
L 1178 0 
L 603 0 
L 603 3500 
z
M 603 4863 
L 1178 4863 
L 1178 4134 
L 603 4134 
L 603 4863 
z
" transform="scale(0.015625)"/>
       <path id="DejaVuSans-6d" d="M 3328 2828 
Q 3544 3216 3844 3400 
Q 4144 3584 4550 3584 
Q 5097 3584 5394 3201 
Q 5691 2819 5691 2113 
L 5691 0 
L 5113 0 
L 5113 2094 
Q 5113 2597 4934 2840 
Q 4756 3084 4391 3084 
Q 3944 3084 3684 2787 
Q 3425 2491 3425 1978 
L 3425 0 
L 2847 0 
L 2847 2094 
Q 2847 2600 2669 2842 
Q 2491 3084 2119 3084 
Q 1678 3084 1418 2786 
Q 1159 2488 1159 1978 
L 1159 0 
L 581 0 
L 581 3500 
L 1159 3500 
L 1159 2956 
Q 1356 3278 1631 3431 
Q 1906 3584 2284 3584 
Q 2666 3584 2933 3390 
Q 3200 3197 3328 2828 
z
" transform="scale(0.015625)"/>
       <path id="DejaVuSans-65" d="M 3597 1894 
L 3597 1613 
L 953 1613 
Q 991 1019 1311 708 
Q 1631 397 2203 397 
Q 2534 397 2845 478 
Q 3156 559 3463 722 
L 3463 178 
Q 3153 47 2828 -22 
Q 2503 -91 2169 -91 
Q 1331 -91 842 396 
Q 353 884 353 1716 
Q 353 2575 817 3079 
Q 1281 3584 2069 3584 
Q 2775 3584 3186 3129 
Q 3597 2675 3597 1894 
z
M 3022 2063 
Q 3016 2534 2758 2815 
Q 2500 3097 2075 3097 
Q 1594 3097 1305 2825 
Q 1016 2553 972 2059 
L 3022 2063 
z
" transform="scale(0.015625)"/>
       <path id="DejaVuSans-20" transform="scale(0.015625)"/>
       <path id="DejaVuSans-5b" d="M 550 4863 
L 1875 4863 
L 1875 4416 
L 1125 4416 
L 1125 -397 
L 1875 -397 
L 1875 -844 
L 550 -844 
L 550 4863 
z
" transform="scale(0.015625)"/>
       <path id="DejaVuSans-3bc" d="M 544 -1331 
L 544 3500 
L 1119 3500 
L 1119 1325 
Q 1119 872 1334 640 
Q 1550 409 1972 409 
Q 2434 409 2667 671 
Q 2900 934 2900 1459 
L 2900 3500 
L 3475 3500 
L 3475 806 
Q 3475 619 3529 530 
Q 3584 441 3700 441 
Q 3728 441 3778 458 
Q 3828 475 3916 513 
L 3916 50 
Q 3788 -22 3673 -56 
Q 3559 -91 3450 -91 
Q 3234 -91 3106 31 
Q 2978 153 2931 403 
Q 2775 156 2548 32 
Q 2322 -91 2016 -91 
Q 1697 -91 1473 31 
Q 1250 153 1119 397 
L 1119 -1331 
L 544 -1331 
z
" transform="scale(0.015625)"/>
       <path id="DejaVuSans-73" d="M 2834 3397 
L 2834 2853 
Q 2591 2978 2328 3040 
Q 2066 3103 1784 3103 
Q 1356 3103 1142 2972 
Q 928 2841 928 2578 
Q 928 2378 1081 2264 
Q 1234 2150 1697 2047 
L 1894 2003 
Q 2506 1872 2764 1633 
Q 3022 1394 3022 966 
Q 3022 478 2636 193 
Q 2250 -91 1575 -91 
Q 1294 -91 989 -36 
Q 684 19 347 128 
L 347 722 
Q 666 556 975 473 
Q 1284 391 1588 391 
Q 1994 391 2212 530 
Q 2431 669 2431 922 
Q 2431 1156 2273 1281 
Q 2116 1406 1581 1522 
L 1381 1569 
Q 847 1681 609 1914 
Q 372 2147 372 2553 
Q 372 3047 722 3315 
Q 1072 3584 1716 3584 
Q 2034 3584 2315 3537 
Q 2597 3491 2834 3397 
z
" transform="scale(0.015625)"/>
       <path id="DejaVuSans-5d" d="M 1947 4863 
L 1947 -844 
L 622 -844 
L 622 -397 
L 1369 -397 
L 1369 4416 
L 622 4416 
L 622 4863 
L 1947 4863 
z
" transform="scale(0.015625)"/>
      </defs>
      <use xlink:href="#DejaVuSans-54"/>
      <use xlink:href="#DejaVuSans-69" x="57.958984"/>
      <use xlink:href="#DejaVuSans-6d" x="85.742188"/>
      <use xlink:href="#DejaVuSans-65" x="183.154297"/>
      <use xlink:href="#DejaVuSans-20" x="244.677734"/>
      <use xlink:href="#DejaVuSans-5b" x="276.464844"/>
      <use xlink:href="#DejaVuSans-3bc" x="315.478516"/>
      <use xlink:href="#DejaVuSans-73" x="379.101562"/>
      <use xlink:href="#DejaVuSans-5d" x="431.201172"/>
     </g>
    </g>
   </g>
   <g id="matplotlib.axis_2">
    <g id="ytick_1">
     <g id="line2d_10">
      <defs>
       <path id="mbec6279f90" d="M 0 0 
L -3.5 0 
" style="stroke: #000000; stroke-width: 0.8"/>
      </defs>
      <g>
       <use xlink:href="#mbec6279f90" x="47.3875" y="301.85367" style="stroke: #000000; stroke-width: 0.8"/>
      </g>
     </g>
     <g id="text_11">
      <!-- 600 -->
      <g transform="translate(21.3 305.652888) scale(0.1 -0.1)">
       <use xlink:href="#DejaVuSans-36"/>
       <use xlink:href="#DejaVuSans-30" x="63.623047"/>
       <use xlink:href="#DejaVuSans-30" x="127.246094"/>
      </g>
     </g>
    </g>
    <g id="ytick_2">
     <g id="line2d_11">
      <g>
       <use xlink:href="#mbec6279f90" x="47.3875" y="254.166061" style="stroke: #000000; stroke-width: 0.8"/>
      </g>
     </g>
     <g id="text_12">
      <!-- 650 -->
      <g transform="translate(21.3 257.96528) scale(0.1 -0.1)">
       <defs>
        <path id="DejaVuSans-35" d="M 691 4666 
L 3169 4666 
L 3169 4134 
L 1269 4134 
L 1269 2991 
Q 1406 3038 1543 3061 
Q 1681 3084 1819 3084 
Q 2600 3084 3056 2656 
Q 3513 2228 3513 1497 
Q 3513 744 3044 326 
Q 2575 -91 1722 -91 
Q 1428 -91 1123 -41 
Q 819 9 494 109 
L 494 744 
Q 775 591 1075 516 
Q 1375 441 1709 441 
Q 2250 441 2565 725 
Q 2881 1009 2881 1497 
Q 2881 1984 2565 2268 
Q 2250 2553 1709 2553 
Q 1456 2553 1204 2497 
Q 953 2441 691 2322 
L 691 4666 
z
" transform="scale(0.015625)"/>
       </defs>
       <use xlink:href="#DejaVuSans-36"/>
       <use xlink:href="#DejaVuSans-35" x="63.623047"/>
       <use xlink:href="#DejaVuSans-30" x="127.246094"/>
      </g>
     </g>
    </g>
    <g id="ytick_3">
     <g id="line2d_12">
      <g>
       <use xlink:href="#mbec6279f90" x="47.3875" y="206.478453" style="stroke: #000000; stroke-width: 0.8"/>
      </g>
     </g>
     <g id="text_13">
      <!-- 700 -->
      <g transform="translate(21.3 210.277672) scale(0.1 -0.1)">
       <defs>
        <path id="DejaVuSans-37" d="M 525 4666 
L 3525 4666 
L 3525 4397 
L 1831 0 
L 1172 0 
L 2766 4134 
L 525 4134 
L 525 4666 
z
" transform="scale(0.015625)"/>
       </defs>
       <use xlink:href="#DejaVuSans-37"/>
       <use xlink:href="#DejaVuSans-30" x="63.623047"/>
       <use xlink:href="#DejaVuSans-30" x="127.246094"/>
      </g>
     </g>
    </g>
    <g id="ytick_4">
     <g id="line2d_13">
      <g>
       <use xlink:href="#mbec6279f90" x="47.3875" y="158.790845" style="stroke: #000000; stroke-width: 0.8"/>
      </g>
     </g>
     <g id="text_14">
      <!-- 750 -->
      <g transform="translate(21.3 162.590064) scale(0.1 -0.1)">
       <use xlink:href="#DejaVuSans-37"/>
       <use xlink:href="#DejaVuSans-35" x="63.623047"/>
       <use xlink:href="#DejaVuSans-30" x="127.246094"/>
      </g>
     </g>
    </g>
    <g id="ytick_5">
     <g id="line2d_14">
      <g>
       <use xlink:href="#mbec6279f90" x="47.3875" y="111.103237" style="stroke: #000000; stroke-width: 0.8"/>
      </g>
     </g>
     <g id="text_15">
      <!-- 800 -->
      <g transform="translate(21.3 114.902456) scale(0.1 -0.1)">
       <use xlink:href="#DejaVuSans-38"/>
       <use xlink:href="#DejaVuSans-30" x="63.623047"/>
       <use xlink:href="#DejaVuSans-30" x="127.246094"/>
      </g>
     </g>
    </g>
    <g id="ytick_6">
     <g id="line2d_15">
      <g>
       <use xlink:href="#mbec6279f90" x="47.3875" y="63.415629" style="stroke: #000000; stroke-width: 0.8"/>
      </g>
     </g>
     <g id="text_16">
      <!-- 850 -->
      <g transform="translate(21.3 67.214848) scale(0.1 -0.1)">
       <use xlink:href="#DejaVuSans-38"/>
       <use xlink:href="#DejaVuSans-35" x="63.623047"/>
       <use xlink:href="#DejaVuSans-30" x="127.246094"/>
      </g>
     </g>
    </g>
    <g id="text_17">
     <!-- Magnitude |$S_{21}|$ [μV] -->
     <g transform="translate(14.9 226.166) rotate(-90) scale(0.1 -0.1)">
      <defs>
       <path id="DejaVuSans-4d" d="M 628 4666 
L 1569 4666 
L 2759 1491 
L 3956 4666 
L 4897 4666 
L 4897 0 
L 4281 0 
L 4281 4097 
L 3078 897 
L 2444 897 
L 1241 4097 
L 1241 0 
L 628 0 
L 628 4666 
z
" transform="scale(0.015625)"/>
       <path id="DejaVuSans-61" d="M 2194 1759 
Q 1497 1759 1228 1600 
Q 959 1441 959 1056 
Q 959 750 1161 570 
Q 1363 391 1709 391 
Q 2188 391 2477 730 
Q 2766 1069 2766 1631 
L 2766 1759 
L 2194 1759 
z
M 3341 1997 
L 3341 0 
L 2766 0 
L 2766 531 
Q 2569 213 2275 61 
Q 1981 -91 1556 -91 
Q 1019 -91 701 211 
Q 384 513 384 1019 
Q 384 1609 779 1909 
Q 1175 2209 1959 2209 
L 2766 2209 
L 2766 2266 
Q 2766 2663 2505 2880 
Q 2244 3097 1772 3097 
Q 1472 3097 1187 3025 
Q 903 2953 641 2809 
L 641 3341 
Q 956 3463 1253 3523 
Q 1550 3584 1831 3584 
Q 2591 3584 2966 3190 
Q 3341 2797 3341 1997 
z
" transform="scale(0.015625)"/>
       <path id="DejaVuSans-67" d="M 2906 1791 
Q 2906 2416 2648 2759 
Q 2391 3103 1925 3103 
Q 1463 3103 1205 2759 
Q 947 2416 947 1791 
Q 947 1169 1205 825 
Q 1463 481 1925 481 
Q 2391 481 2648 825 
Q 2906 1169 2906 1791 
z
M 3481 434 
Q 3481 -459 3084 -895 
Q 2688 -1331 1869 -1331 
Q 1566 -1331 1297 -1286 
Q 1028 -1241 775 -1147 
L 775 -588 
Q 1028 -725 1275 -790 
Q 1522 -856 1778 -856 
Q 2344 -856 2625 -561 
Q 2906 -266 2906 331 
L 2906 616 
Q 2728 306 2450 153 
Q 2172 0 1784 0 
Q 1141 0 747 490 
Q 353 981 353 1791 
Q 353 2603 747 3093 
Q 1141 3584 1784 3584 
Q 2172 3584 2450 3431 
Q 2728 3278 2906 2969 
L 2906 3500 
L 3481 3500 
L 3481 434 
z
" transform="scale(0.015625)"/>
       <path id="DejaVuSans-6e" d="M 3513 2113 
L 3513 0 
L 2938 0 
L 2938 2094 
Q 2938 2591 2744 2837 
Q 2550 3084 2163 3084 
Q 1697 3084 1428 2787 
Q 1159 2491 1159 1978 
L 1159 0 
L 581 0 
L 581 3500 
L 1159 3500 
L 1159 2956 
Q 1366 3272 1645 3428 
Q 1925 3584 2291 3584 
Q 2894 3584 3203 3211 
Q 3513 2838 3513 2113 
z
" transform="scale(0.015625)"/>
       <path id="DejaVuSans-74" d="M 1172 4494 
L 1172 3500 
L 2356 3500 
L 2356 3053 
L 1172 3053 
L 1172 1153 
Q 1172 725 1289 603 
Q 1406 481 1766 481 
L 2356 481 
L 2356 0 
L 1766 0 
Q 1100 0 847 248 
Q 594 497 594 1153 
L 594 3053 
L 172 3053 
L 172 3500 
L 594 3500 
L 594 4494 
L 1172 4494 
z
" transform="scale(0.015625)"/>
       <path id="DejaVuSans-75" d="M 544 1381 
L 544 3500 
L 1119 3500 
L 1119 1403 
Q 1119 906 1312 657 
Q 1506 409 1894 409 
Q 2359 409 2629 706 
Q 2900 1003 2900 1516 
L 2900 3500 
L 3475 3500 
L 3475 0 
L 2900 0 
L 2900 538 
Q 2691 219 2414 64 
Q 2138 -91 1772 -91 
Q 1169 -91 856 284 
Q 544 659 544 1381 
z
M 1991 3584 
L 1991 3584 
z
" transform="scale(0.015625)"/>
       <path id="DejaVuSans-64" d="M 2906 2969 
L 2906 4863 
L 3481 4863 
L 3481 0 
L 2906 0 
L 2906 525 
Q 2725 213 2448 61 
Q 2172 -91 1784 -91 
Q 1150 -91 751 415 
Q 353 922 353 1747 
Q 353 2572 751 3078 
Q 1150 3584 1784 3584 
Q 2172 3584 2448 3432 
Q 2725 3281 2906 2969 
z
M 947 1747 
Q 947 1113 1208 752 
Q 1469 391 1925 391 
Q 2381 391 2643 752 
Q 2906 1113 2906 1747 
Q 2906 2381 2643 2742 
Q 2381 3103 1925 3103 
Q 1469 3103 1208 2742 
Q 947 2381 947 1747 
z
" transform="scale(0.015625)"/>
       <path id="DejaVuSans-7c" d="M 1344 4891 
L 1344 -1509 
L 813 -1509 
L 813 4891 
L 1344 4891 
z
" transform="scale(0.015625)"/>
       <path id="DejaVuSans-Oblique-53" d="M 3859 4513 
L 3738 3897 
Q 3422 4066 3111 4152 
Q 2800 4238 2509 4238 
Q 1944 4238 1609 3991 
Q 1275 3744 1275 3334 
Q 1275 3109 1398 2989 
Q 1522 2869 2034 2731 
L 2413 2638 
Q 3053 2472 3303 2217 
Q 3553 1963 3553 1503 
Q 3553 797 2998 353 
Q 2444 -91 1538 -91 
Q 1166 -91 791 -17 
Q 416 56 38 206 
L 166 856 
Q 513 641 861 531 
Q 1209 422 1556 422 
Q 2147 422 2503 684 
Q 2859 947 2859 1369 
Q 2859 1650 2717 1795 
Q 2575 1941 2106 2059 
L 1728 2156 
Q 1081 2325 845 2545 
Q 609 2766 609 3163 
Q 609 3859 1145 4304 
Q 1681 4750 2541 4750 
Q 2875 4750 3203 4690 
Q 3531 4631 3859 4513 
z
" transform="scale(0.015625)"/>
       <path id="DejaVuSans-56" d="M 1831 0 
L 50 4666 
L 709 4666 
L 2188 738 
L 3669 4666 
L 4325 4666 
L 2547 0 
L 1831 0 
z
" transform="scale(0.015625)"/>
      </defs>
      <use xlink:href="#DejaVuSans-4d" transform="translate(0 0.578125)"/>
      <use xlink:href="#DejaVuSans-61" transform="translate(86.279297 0.578125)"/>
      <use xlink:href="#DejaVuSans-67" transform="translate(147.558594 0.578125)"/>
      <use xlink:href="#DejaVuSans-6e" transform="translate(211.035156 0.578125)"/>
      <use xlink:href="#DejaVuSans-69" transform="translate(274.414062 0.578125)"/>
      <use xlink:href="#DejaVuSans-74" transform="translate(302.197266 0.578125)"/>
      <use xlink:href="#DejaVuSans-75" transform="translate(341.40625 0.578125)"/>
      <use xlink:href="#DejaVuSans-64" transform="translate(404.785156 0.578125)"/>
      <use xlink:href="#DejaVuSans-65" transform="translate(468.261719 0.578125)"/>
      <use xlink:href="#DejaVuSans-20" transform="translate(529.785156 0.578125)"/>
      <use xlink:href="#DejaVuSans-7c" transform="translate(561.572266 0.578125)"/>
      <use xlink:href="#DejaVuSans-Oblique-53" transform="translate(595.263672 0.578125)"/>
      <use xlink:href="#DejaVuSans-32" transform="translate(658.740234 -15.828125) scale(0.7)"/>
      <use xlink:href="#DejaVuSans-31" transform="translate(703.276367 -15.828125) scale(0.7)"/>
      <use xlink:href="#DejaVuSans-7c" transform="translate(750.546875 0.578125)"/>
      <use xlink:href="#DejaVuSans-20" transform="translate(784.238281 0.578125)"/>
      <use xlink:href="#DejaVuSans-5b" transform="translate(816.025391 0.578125)"/>
      <use xlink:href="#DejaVuSans-3bc" transform="translate(855.039062 0.578125)"/>
      <use xlink:href="#DejaVuSans-56" transform="translate(918.662109 0.578125)"/>
      <use xlink:href="#DejaVuSans-5d" transform="translate(987.070312 0.578125)"/>
     </g>
    </g>
   </g>
   <g id="line2d_16">
    <defs>
     <path id="m73b8430780" d="M 0 1.5 
C 0.397805 1.5 0.77937 1.341951 1.06066 1.06066 
C 1.341951 0.77937 1.5 0.397805 1.5 0 
C 1.5 -0.397805 1.341951 -0.77937 1.06066 -1.06066 
C 0.77937 -1.341951 0.397805 -1.5 0 -1.5 
C -0.397805 -1.5 -0.77937 -1.341951 -1.06066 -1.06066 
C -1.341951 -0.77937 -1.5 -0.397805 -1.5 0 
C -1.5 0.397805 -1.341951 0.77937 -1.06066 1.06066 
C -0.77937 1.341951 -0.397805 1.5 0 1.5 
z
" style="stroke: #1f77b4"/>
    </defs>
    <g clip-path="url(#p28c30261dc)">
     <use xlink:href="#m73b8430780" x="63.620227" y="110.493341" style="fill: #1f77b4; stroke: #1f77b4"/>
     <use xlink:href="#m73b8430780" x="72.163768" y="274.706485" style="fill: #1f77b4; stroke: #1f77b4"/>
     <use xlink:href="#m73b8430780" x="80.707309" y="253.088261" style="fill: #1f77b4; stroke: #1f77b4"/>
     <use xlink:href="#m73b8430780" x="89.250849" y="113.132723" style="fill: #1f77b4; stroke: #1f77b4"/>
     <use xlink:href="#m73b8430780" x="97.79439" y="61.870842" style="fill: #1f77b4; stroke: #1f77b4"/>
     <use xlink:href="#m73b8430780" x="106.337931" y="199.814928" style="fill: #1f77b4; stroke: #1f77b4"/>
     <use xlink:href="#m73b8430780" x="114.881471" y="261.037597" style="fill: #1f77b4; stroke: #1f77b4"/>
     <use xlink:href="#m73b8430780" x="123.425012" y="152.790682" style="fill: #1f77b4; stroke: #1f77b4"/>
     <use xlink:href="#m73b8430780" x="131.968553" y="80.717158" style="fill: #1f77b4; stroke: #1f77b4"/>
     <use xlink:href="#m73b8430780" x="140.512093" y="132.085859" style="fill: #1f77b4; stroke: #1f77b4"/>
     <use xlink:href="#m73b8430780" x="149.055634" y="233.232628" style="fill: #1f77b4; stroke: #1f77b4"/>
     <use xlink:href="#m73b8430780" x="157.599175" y="191.243823" style="fill: #1f77b4; stroke: #1f77b4"/>
     <use xlink:href="#m73b8430780" x="166.142715" y="109.773857" style="fill: #1f77b4; stroke: #1f77b4"/>
     <use xlink:href="#m73b8430780" x="174.686256" y="110.03178" style="fill: #1f77b4; stroke: #1f77b4"/>
     <use xlink:href="#m73b8430780" x="183.229797" y="199.882286" style="fill: #1f77b4; stroke: #1f77b4"/>
     <use xlink:href="#m73b8430780" x="191.773337" y="206.167842" style="fill: #1f77b4; stroke: #1f77b4"/>
     <use xlink:href="#m73b8430780" x="200.316878" y="122.760751" style="fill: #1f77b4; stroke: #1f77b4"/>
     <use xlink:href="#m73b8430780" x="208.860419" y="133.146778" style="fill: #1f77b4; stroke: #1f77b4"/>
     <use xlink:href="#m73b8430780" x="217.403959" y="178.025005" style="fill: #1f77b4; stroke: #1f77b4"/>
     <use xlink:href="#m73b8430780" x="225.9475" y="208.883111" style="fill: #1f77b4; stroke: #1f77b4"/>
     <use xlink:href="#m73b8430780" x="234.491041" y="171.255642" style="fill: #1f77b4; stroke: #1f77b4"/>
     <use xlink:href="#m73b8430780" x="243.034581" y="144.568877" style="fill: #1f77b4; stroke: #1f77b4"/>
     <use xlink:href="#m73b8430780" x="251.578122" y="170.281672" style="fill: #1f77b4; stroke: #1f77b4"/>
     <use xlink:href="#m73b8430780" x="260.121663" y="168.599037" style="fill: #1f77b4; stroke: #1f77b4"/>
     <use xlink:href="#m73b8430780" x="268.665203" y="176.129016" style="fill: #1f77b4; stroke: #1f77b4"/>
     <use xlink:href="#m73b8430780" x="277.208744" y="143.010767" style="fill: #1f77b4; stroke: #1f77b4"/>
     <use xlink:href="#m73b8430780" x="285.752285" y="163.466877" style="fill: #1f77b4; stroke: #1f77b4"/>
     <use xlink:href="#m73b8430780" x="294.295825" y="173.09959" style="fill: #1f77b4; stroke: #1f77b4"/>
     <use xlink:href="#m73b8430780" x="302.839366" y="163.791389" style="fill: #1f77b4; stroke: #1f77b4"/>
     <use xlink:href="#m73b8430780" x="311.382907" y="154.840142" style="fill: #1f77b4; stroke: #1f77b4"/>
     <use xlink:href="#m73b8430780" x="319.926447" y="148.113166" style="fill: #1f77b4; stroke: #1f77b4"/>
     <use xlink:href="#m73b8430780" x="328.469988" y="182.389035" style="fill: #1f77b4; stroke: #1f77b4"/>
     <use xlink:href="#m73b8430780" x="337.013529" y="170.347025" style="fill: #1f77b4; stroke: #1f77b4"/>
     <use xlink:href="#m73b8430780" x="345.557069" y="181.874124" style="fill: #1f77b4; stroke: #1f77b4"/>
     <use xlink:href="#m73b8430780" x="354.10061" y="158.021973" style="fill: #1f77b4; stroke: #1f77b4"/>
     <use xlink:href="#m73b8430780" x="362.644151" y="161.713487" style="fill: #1f77b4; stroke: #1f77b4"/>
     <use xlink:href="#m73b8430780" x="371.187691" y="159.912872" style="fill: #1f77b4; stroke: #1f77b4"/>
     <use xlink:href="#m73b8430780" x="379.731232" y="175.405378" style="fill: #1f77b4; stroke: #1f77b4"/>
     <use xlink:href="#m73b8430780" x="388.274773" y="161.535336" style="fill: #1f77b4; stroke: #1f77b4"/>
    </g>
   </g>
   <g id="line2d_17">
    <path d="M 63.620227 91.40176 
L 65.570104 136.504166 
L 68.8199 212.41404 
L 70.444797 244.882436 
L 71.744715 266.053652 
L 72.719654 278.519406 
L 73.694593 287.739291 
L 74.344552 291.984868 
L 74.994511 294.668436 
L 75.31949 295.419353 
L 75.64447 295.776 
L 75.969449 295.739584 
L 76.294429 295.312477 
L 76.619408 294.498205 
L 77.269367 291.727918 
L 77.919326 287.479246 
L 78.569285 281.819723 
L 79.544224 270.871941 
L 80.519163 257.284339 
L 81.819081 235.773512 
L 83.443978 205.00834 
L 87.993692 115.657747 
L 89.29361 94.456361 
L 90.593528 77.058769 
L 91.568466 66.956828 
L 92.218425 61.757406 
L 92.868385 57.844001 
L 93.518344 55.248412 
L 93.843323 54.450349 
L 94.168303 53.986391 
L 94.493282 53.856 
L 94.818262 54.057643 
L 95.143241 54.588808 
L 95.468221 55.446009 
L 96.11818 58.119843 
L 96.768139 62.032565 
L 97.418098 67.123392 
L 98.393036 76.803077 
L 99.367975 88.663167 
L 100.667893 107.250711 
L 102.61777 139.106447 
L 106.517525 204.092825 
L 107.817443 222.391415 
L 109.117361 237.555498 
L 110.092299 246.47713 
L 111.067238 253.068119 
L 111.717197 256.097505 
L 112.367156 258.005886 
L 112.692136 258.536094 
L 113.017115 258.783426 
L 113.342095 258.748772 
L 113.667074 258.433858 
L 113.992054 257.84124 
L 114.642013 255.837164 
L 115.291972 252.772981 
L 115.941931 248.697328 
L 116.916869 240.82177 
L 117.891808 231.054862 
L 119.191726 215.602063 
L 120.816624 193.513557 
L 125.366337 129.42012 
L 126.666255 114.226311 
L 127.966173 101.766315 
L 128.941112 94.537562 
L 129.591071 90.8207 
L 130.24103 88.026995 
L 130.890989 86.179089 
L 131.215968 85.613738 
L 131.540948 85.288109 
L 131.865928 85.201793 
L 132.190907 85.35367 
L 132.515887 85.741915 
L 133.165846 87.216742 
L 133.815805 89.597993 
L 134.465764 92.846922 
L 135.440702 99.238314 
L 136.415641 107.268392 
L 137.715559 120.100608 
L 139.340457 138.610752 
L 144.215149 196.563249 
L 145.515068 209.164509 
L 146.490006 217.079087 
L 147.464945 223.464166 
L 148.439883 228.175769 
L 149.089842 230.337285 
L 149.739801 231.694292 
L 150.064781 232.068565 
L 150.38976 232.239882 
L 150.71474 232.208901 
L 151.039719 231.976879 
L 151.364699 231.545667 
L 152.014658 230.095984 
L 152.664617 227.886132 
L 153.314576 224.951137 
L 154.289515 219.285717 
L 155.264453 212.265208 
L 156.564371 201.164381 
L 158.514249 181.966913 
L 162.414003 142.3047 
L 164.0389 128.441329 
L 165.338819 119.517645 
L 166.313757 114.344939 
L 167.288696 110.606748 
L 167.938655 108.950331 
L 168.588614 107.977677 
L 168.913593 107.749248 
L 169.238573 107.69251 
L 169.563552 107.806645 
L 169.888532 108.090327 
L 170.538491 109.158553 
L 171.18845 110.876777 
L 171.838409 113.217088 
L 172.813348 117.815611 
L 173.788286 123.588281 
L 175.088204 132.807223 
L 176.713102 146.097634 
L 181.587795 187.668278 
L 182.887713 196.69821 
L 183.862652 202.366508 
L 184.83759 206.936173 
L 185.812529 210.304235 
L 186.462488 211.84646 
L 187.112447 212.811318 
L 187.437426 213.075444 
L 187.762406 213.193957 
L 188.087385 213.16734 
L 188.412365 212.996509 
L 189.062324 212.227987 
L 189.712283 210.904092 
L 190.362242 209.046956 
L 191.337181 205.324729 
L 192.312119 200.586283 
L 193.612037 192.939192 
L 195.236935 181.810815 
L 200.436607 144.399735 
L 201.736525 136.92013 
L 202.711464 132.271166 
L 203.686403 128.569749 
L 204.661341 125.898296 
L 205.3113 124.717191 
L 205.961259 124.026777 
L 206.611218 123.829633 
L 206.936198 123.915229 
L 207.586157 124.449953 
L 208.236116 125.458843 
L 208.886075 126.92445 
L 209.861014 129.928228 
L 210.835952 133.810584 
L 212.13587 140.146035 
L 213.760768 149.455876 
L 219.610399 184.637796 
L 220.910317 190.525571 
L 221.885256 194.068344 
L 222.860195 196.770248 
L 223.510154 198.074907 
L 224.160113 198.968798 
L 224.810072 199.446003 
L 225.460031 199.505629 
L 226.10999 199.15176 
L 226.759949 198.393357 
L 227.409908 197.244088 
L 228.059867 195.722119 
L 229.034805 192.790409 
L 230.009744 189.163109 
L 231.309662 183.434544 
L 233.259539 173.539796 
L 237.159294 153.131716 
L 238.784191 146.011032 
L 240.084109 141.433946 
L 241.059048 138.78536 
L 242.033986 136.876273 
L 242.683946 136.034124 
L 243.333905 135.544108 
L 243.983864 135.408012 
L 244.633823 135.623392 
L 245.283782 136.183648 
L 245.933741 137.078154 
L 246.5837 138.292426 
L 247.558638 140.672826 
L 248.533577 143.656023 
L 249.833495 148.414127 
L 251.458393 155.265716 
L 256.333086 176.655793 
L 257.633004 181.292611 
L 258.932922 185.046042 
L 259.90786 187.185055 
L 260.882799 188.690843 
L 261.532758 189.327708 
L 262.182717 189.66556 
L 262.832676 189.703815 
L 263.482635 189.445456 
L 264.132594 188.896965 
L 264.782553 188.068199 
L 265.757492 186.328985 
L 266.73243 184.045981 
L 268.032348 180.279125 
L 269.657246 174.691091 
L 273.232021 161.06529 
L 275.181898 154.241117 
L 276.481816 150.40094 
L 277.456755 148.016924 
L 278.431693 146.12172 
L 279.406632 144.757464 
L 280.056591 144.157021 
L 280.70655 143.809278 
L 281.356509 143.715471 
L 282.006468 143.8738 
L 282.656427 144.279486 
L 283.306386 144.924861 
L 284.281325 146.318803 
L 285.256263 148.181944 
L 286.556181 151.294734 
L 288.181079 155.961286 
L 290.780915 164.338058 
L 293.055772 171.482777 
L 294.68067 175.884146 
L 295.980588 178.742606 
L 296.955526 180.41761 
L 297.930465 181.6478 
L 298.580424 182.207852 
L 299.230383 182.554496 
L 299.880342 182.686057 
L 300.530301 182.603442 
L 301.18026 182.310091 
L 301.830219 181.811916 
L 302.805158 180.699337 
L 303.780096 179.182312 
L 305.080014 176.613675 
L 306.704912 172.720395 
L 309.304748 165.653775 
L 311.904584 158.751386 
L 313.529482 155.094025 
L 314.8294 152.746427 
L 315.804339 151.390321 
L 316.779277 150.415426 
L 317.754216 149.841188 
L 318.404175 149.685568 
L 319.054134 149.711755 
L 319.704093 149.917348 
L 320.354052 150.297841 
L 321.328991 151.181688 
L 322.303929 152.413836 
L 323.603847 154.530261 
L 325.228745 157.775178 
L 327.503602 162.967565 
L 330.428417 169.619638 
L 332.053315 172.774182 
L 333.353233 174.821513 
L 334.328172 176.020235 
L 335.30311 176.899572 
L 336.278049 177.441564 
L 337.252987 177.637553 
L 337.902946 177.575961 
L 338.877885 177.201429 
L 339.852824 176.503038 
L 340.827762 175.504974 
L 342.12768 173.763926 
L 343.427598 171.640352 
L 345.377475 167.979051 
L 349.27723 160.446693 
L 350.902127 157.825565 
L 352.202045 156.144295 
L 353.176984 155.173948 
L 354.151923 154.477302 
L 355.126861 154.068232 
L 356.1018 153.952703 
L 357.076738 154.128757 
L 358.051677 154.586689 
L 359.026615 155.309449 
L 360.326534 156.64303 
L 361.626452 158.331684 
L 363.251349 160.807015 
L 369.100981 170.11992 
L 370.400899 171.67046 
L 371.700817 172.862085 
L 372.675756 173.490623 
L 373.650694 173.877017 
L 374.625633 174.015124 
L 375.600571 173.905525 
L 376.57551 173.555398 
L 377.550448 172.97821 
L 378.850367 171.889522 
L 380.150285 170.491851 
L 381.775182 168.422427 
L 387.949793 160.135141 
L 388.274773 159.789512 
L 388.274773 159.789512 
" clip-path="url(#p28c30261dc)" style="fill: none; stroke: #d62728; stroke-width: 1.5; stroke-linecap: square"/>
   </g>
   <g id="patch_3">
    <path d="M 47.3875 307.872 
L 47.3875 41.76 
" style="fill: none; stroke: #000000; stroke-width: 0.8; stroke-linejoin: miter; stroke-linecap: square"/>
   </g>
   <g id="patch_4">
    <path d="M 404.5075 307.872 
L 404.5075 41.76 
" style="fill: none; stroke: #000000; stroke-width: 0.8; stroke-linejoin: miter; stroke-linecap: square"/>
   </g>
   <g id="patch_5">
    <path d="M 47.3875 307.872 
L 404.5075 307.872 
" style="fill: none; stroke: #000000; stroke-width: 0.8; stroke-linejoin: miter; stroke-linecap: square"/>
   </g>
   <g id="patch_6">
    <path d="M 47.3875 41.76 
L 404.5075 41.76 
" style="fill: none; stroke: #000000; stroke-width: 0.8; stroke-linejoin: miter; stroke-linecap: square"/>
   </g>
   <g id="text_18">
    <g id="patch_7">
     <path d="M 422.3635 138.497163 
L 580.6635 138.497163 
Q 584.6635 138.497163 584.6635 134.497163 
L 584.6635 55.0656 
Q 584.6635 51.0656 580.6635 51.0656 
L 422.3635 51.0656 
Q 418.3635 51.0656 418.3635 55.0656 
L 418.3635 134.497163 
Q 418.3635 138.497163 422.3635 138.497163 
z
" style="fill: #ffffff; opacity: 0.5; stroke: #000000; stroke-linejoin: miter"/>
    </g>
    <!-- Summary -->
    <g transform="translate(422.3635 62.664038) scale(0.1 -0.1)">
     <defs>
      <path id="DejaVuSans-53" d="M 3425 4513 
L 3425 3897 
Q 3066 4069 2747 4153 
Q 2428 4238 2131 4238 
Q 1616 4238 1336 4038 
Q 1056 3838 1056 3469 
Q 1056 3159 1242 3001 
Q 1428 2844 1947 2747 
L 2328 2669 
Q 3034 2534 3370 2195 
Q 3706 1856 3706 1288 
Q 3706 609 3251 259 
Q 2797 -91 1919 -91 
Q 1588 -91 1214 -16 
Q 841 59 441 206 
L 441 856 
Q 825 641 1194 531 
Q 1563 422 1919 422 
Q 2459 422 2753 634 
Q 3047 847 3047 1241 
Q 3047 1584 2836 1778 
Q 2625 1972 2144 2069 
L 1759 2144 
Q 1053 2284 737 2584 
Q 422 2884 422 3419 
Q 422 4038 858 4394 
Q 1294 4750 2059 4750 
Q 2388 4750 2728 4690 
Q 3069 4631 3425 4513 
z
" transform="scale(0.015625)"/>
      <path id="DejaVuSans-72" d="M 2631 2963 
Q 2534 3019 2420 3045 
Q 2306 3072 2169 3072 
Q 1681 3072 1420 2755 
Q 1159 2438 1159 1844 
L 1159 0 
L 581 0 
L 581 3500 
L 1159 3500 
L 1159 2956 
Q 1341 3275 1631 3429 
Q 1922 3584 2338 3584 
Q 2397 3584 2469 3576 
Q 2541 3569 2628 3553 
L 2631 2963 
z
" transform="scale(0.015625)"/>
      <path id="DejaVuSans-79" d="M 2059 -325 
Q 1816 -950 1584 -1140 
Q 1353 -1331 966 -1331 
L 506 -1331 
L 506 -850 
L 844 -850 
Q 1081 -850 1212 -737 
Q 1344 -625 1503 -206 
L 1606 56 
L 191 3500 
L 800 3500 
L 1894 763 
L 2988 3500 
L 3597 3500 
L 2059 -325 
z
" transform="scale(0.015625)"/>
     </defs>
     <use xlink:href="#DejaVuSans-53"/>
     <use xlink:href="#DejaVuSans-75" x="63.476562"/>
     <use xlink:href="#DejaVuSans-6d" x="126.855469"/>
     <use xlink:href="#DejaVuSans-6d" x="224.267578"/>
     <use xlink:href="#DejaVuSans-61" x="321.679688"/>
     <use xlink:href="#DejaVuSans-72" x="382.958984"/>
     <use xlink:href="#DejaVuSans-79" x="424.072266"/>
    </g>
    <!-- $T_2^*$: 5.27$\pm$0.47 μs -->
    <g transform="translate(422.3635 75.663725) scale(0.1 -0.1)">
     <defs>
      <path id="DejaVuSans-Oblique-54" d="M 378 4666 
L 4325 4666 
L 4225 4134 
L 2559 4134 
L 1759 0 
L 1125 0 
L 1925 4134 
L 275 4134 
L 378 4666 
z
" transform="scale(0.015625)"/>
      <path id="DejaVuSans-2a" d="M 3009 3897 
L 1888 3291 
L 3009 2681 
L 2828 2375 
L 1778 3009 
L 1778 1831 
L 1422 1831 
L 1422 3009 
L 372 2375 
L 191 2681 
L 1313 3291 
L 191 3897 
L 372 4206 
L 1422 3572 
L 1422 4750 
L 1778 4750 
L 1778 3572 
L 2828 4206 
L 3009 3897 
z
" transform="scale(0.015625)"/>
      <path id="DejaVuSans-3a" d="M 750 794 
L 1409 794 
L 1409 0 
L 750 0 
L 750 794 
z
M 750 3309 
L 1409 3309 
L 1409 2516 
L 750 2516 
L 750 3309 
z
" transform="scale(0.015625)"/>
      <path id="DejaVuSans-2e" d="M 684 794 
L 1344 794 
L 1344 0 
L 684 0 
L 684 794 
z
" transform="scale(0.015625)"/>
      <path id="DejaVuSans-b1" d="M 2944 4013 
L 2944 2803 
L 4684 2803 
L 4684 2272 
L 2944 2272 
L 2944 1063 
L 2419 1063 
L 2419 2272 
L 678 2272 
L 678 2803 
L 2419 2803 
L 2419 4013 
L 2944 4013 
z
M 678 531 
L 4684 531 
L 4684 0 
L 678 0 
L 678 531 
z
" transform="scale(0.015625)"/>
     </defs>
     <use xlink:href="#DejaVuSans-Oblique-54" transform="translate(0 0.765625)"/>
     <use xlink:href="#DejaVuSans-2a" transform="translate(81.738451 39.046875) scale(0.7)"/>
     <use xlink:href="#DejaVuSans-32" transform="translate(61.083984 -26.578125) scale(0.7)"/>
     <use xlink:href="#DejaVuSans-3a" transform="translate(133.110521 0.765625)"/>
     <use xlink:href="#DejaVuSans-20" transform="translate(166.801927 0.765625)"/>
     <use xlink:href="#DejaVuSans-35" transform="translate(198.589036 0.765625)"/>
     <use xlink:href="#DejaVuSans-2e" transform="translate(262.212083 0.765625)"/>
     <use xlink:href="#DejaVuSans-32" transform="translate(288.499193 0.765625)"/>
     <use xlink:href="#DejaVuSans-37" transform="translate(352.12224 0.765625)"/>
     <use xlink:href="#DejaVuSans-b1" transform="translate(415.745286 0.765625)"/>
     <use xlink:href="#DejaVuSans-30" transform="translate(499.534349 0.765625)"/>
     <use xlink:href="#DejaVuSans-2e" transform="translate(563.157396 0.765625)"/>
     <use xlink:href="#DejaVuSans-34" transform="translate(594.944505 0.765625)"/>
     <use xlink:href="#DejaVuSans-37" transform="translate(658.567552 0.765625)"/>
     <use xlink:href="#DejaVuSans-20" transform="translate(722.190599 0.765625)"/>
     <use xlink:href="#DejaVuSans-3bc" transform="translate(753.977708 0.765625)"/>
     <use xlink:href="#DejaVuSans-73" transform="translate(817.600755 0.765625)"/>
    </g>
    <!--  -->
    <g transform="translate(422.3635 87.58185) scale(0.1 -0.1)"/>
    <!-- artificial detuning: 0 Hz -->
    <g transform="translate(422.3635 98.779663) scale(0.1 -0.1)">
     <defs>
      <path id="DejaVuSans-66" d="M 2375 4863 
L 2375 4384 
L 1825 4384 
Q 1516 4384 1395 4259 
Q 1275 4134 1275 3809 
L 1275 3500 
L 2222 3500 
L 2222 3053 
L 1275 3053 
L 1275 0 
L 697 0 
L 697 3053 
L 147 3053 
L 147 3500 
L 697 3500 
L 697 3744 
Q 697 4328 969 4595 
Q 1241 4863 1831 4863 
L 2375 4863 
z
" transform="scale(0.015625)"/>
      <path id="DejaVuSans-63" d="M 3122 3366 
L 3122 2828 
Q 2878 2963 2633 3030 
Q 2388 3097 2138 3097 
Q 1578 3097 1268 2742 
Q 959 2388 959 1747 
Q 959 1106 1268 751 
Q 1578 397 2138 397 
Q 2388 397 2633 464 
Q 2878 531 3122 666 
L 3122 134 
Q 2881 22 2623 -34 
Q 2366 -91 2075 -91 
Q 1284 -91 818 406 
Q 353 903 353 1747 
Q 353 2603 823 3093 
Q 1294 3584 2113 3584 
Q 2378 3584 2631 3529 
Q 2884 3475 3122 3366 
z
" transform="scale(0.015625)"/>
      <path id="DejaVuSans-6c" d="M 603 4863 
L 1178 4863 
L 1178 0 
L 603 0 
L 603 4863 
z
" transform="scale(0.015625)"/>
      <path id="DejaVuSans-48" d="M 628 4666 
L 1259 4666 
L 1259 2753 
L 3553 2753 
L 3553 4666 
L 4184 4666 
L 4184 0 
L 3553 0 
L 3553 2222 
L 1259 2222 
L 1259 0 
L 628 0 
L 628 4666 
z
" transform="scale(0.015625)"/>
      <path id="DejaVuSans-7a" d="M 353 3500 
L 3084 3500 
L 3084 2975 
L 922 459 
L 3084 459 
L 3084 0 
L 275 0 
L 275 525 
L 2438 3041 
L 353 3041 
L 353 3500 
z
" transform="scale(0.015625)"/>
     </defs>
     <use xlink:href="#DejaVuSans-61"/>
     <use xlink:href="#DejaVuSans-72" x="61.279297"/>
     <use xlink:href="#DejaVuSans-74" x="102.392578"/>
     <use xlink:href="#DejaVuSans-69" x="141.601562"/>
     <use xlink:href="#DejaVuSans-66" x="169.384766"/>
     <use xlink:href="#DejaVuSans-69" x="204.589844"/>
     <use xlink:href="#DejaVuSans-63" x="232.373047"/>
     <use xlink:href="#DejaVuSans-69" x="287.353516"/>
     <use xlink:href="#DejaVuSans-61" x="315.136719"/>
     <use xlink:href="#DejaVuSans-6c" x="376.416016"/>
     <use xlink:href="#DejaVuSans-20" x="404.199219"/>
     <use xlink:href="#DejaVuSans-64" x="435.986328"/>
     <use xlink:href="#DejaVuSans-65" x="499.462891"/>
     <use xlink:href="#DejaVuSans-74" x="560.986328"/>
     <use xlink:href="#DejaVuSans-75" x="600.195312"/>
     <use xlink:href="#DejaVuSans-6e" x="663.574219"/>
     <use xlink:href="#DejaVuSans-69" x="726.953125"/>
     <use xlink:href="#DejaVuSans-6e" x="754.736328"/>
     <use xlink:href="#DejaVuSans-67" x="818.115234"/>
     <use xlink:href="#DejaVuSans-3a" x="881.591797"/>
     <use xlink:href="#DejaVuSans-20" x="915.283203"/>
     <use xlink:href="#DejaVuSans-30" x="947.070312"/>
     <use xlink:href="#DejaVuSans-20" x="1010.693359"/>
     <use xlink:href="#DejaVuSans-48" x="1042.480469"/>
     <use xlink:href="#DejaVuSans-7a" x="1117.675781"/>
    </g>
    <!-- fitted detuning: 571.7$\pm$2.6 kHz -->
    <g transform="translate(422.3635 109.97935) scale(0.1 -0.1)">
     <defs>
      <path id="DejaVuSans-6b" d="M 581 4863 
L 1159 4863 
L 1159 1991 
L 2875 3500 
L 3609 3500 
L 1753 1863 
L 3688 0 
L 2938 0 
L 1159 1709 
L 1159 0 
L 581 0 
L 581 4863 
z
" transform="scale(0.015625)"/>
     </defs>
     <use xlink:href="#DejaVuSans-66" transform="translate(0 0.015625)"/>
     <use xlink:href="#DejaVuSans-69" transform="translate(35.205078 0.015625)"/>
     <use xlink:href="#DejaVuSans-74" transform="translate(62.988281 0.015625)"/>
     <use xlink:href="#DejaVuSans-74" transform="translate(102.197266 0.015625)"/>
     <use xlink:href="#DejaVuSans-65" transform="translate(141.40625 0.015625)"/>
     <use xlink:href="#DejaVuSans-64" transform="translate(202.929688 0.015625)"/>
     <use xlink:href="#DejaVuSans-20" transform="translate(266.40625 0.015625)"/>
     <use xlink:href="#DejaVuSans-64" transform="translate(298.193359 0.015625)"/>
     <use xlink:href="#DejaVuSans-65" transform="translate(361.669922 0.015625)"/>
     <use xlink:href="#DejaVuSans-74" transform="translate(423.193359 0.015625)"/>
     <use xlink:href="#DejaVuSans-75" transform="translate(462.402344 0.015625)"/>
     <use xlink:href="#DejaVuSans-6e" transform="translate(525.78125 0.015625)"/>
     <use xlink:href="#DejaVuSans-69" transform="translate(589.160156 0.015625)"/>
     <use xlink:href="#DejaVuSans-6e" transform="translate(616.943359 0.015625)"/>
     <use xlink:href="#DejaVuSans-67" transform="translate(680.322266 0.015625)"/>
     <use xlink:href="#DejaVuSans-3a" transform="translate(743.798828 0.015625)"/>
     <use xlink:href="#DejaVuSans-20" transform="translate(777.490234 0.015625)"/>
     <use xlink:href="#DejaVuSans-35" transform="translate(809.277344 0.015625)"/>
     <use xlink:href="#DejaVuSans-37" transform="translate(865.650391 0.015625)"/>
     <use xlink:href="#DejaVuSans-31" transform="translate(929.273438 0.015625)"/>
     <use xlink:href="#DejaVuSans-2e" transform="translate(992.896484 0.015625)"/>
     <use xlink:href="#DejaVuSans-37" transform="translate(1016.933594 0.015625)"/>
     <use xlink:href="#DejaVuSans-b1" transform="translate(1080.556641 0.015625)"/>
     <use xlink:href="#DejaVuSans-32" transform="translate(1164.345703 0.015625)"/>
     <use xlink:href="#DejaVuSans-2e" transform="translate(1227.96875 0.015625)"/>
     <use xlink:href="#DejaVuSans-36" transform="translate(1259.755859 0.015625)"/>
     <use xlink:href="#DejaVuSans-20" transform="translate(1323.378906 0.015625)"/>
     <use xlink:href="#DejaVuSans-6b" transform="translate(1355.166016 0.015625)"/>
     <use xlink:href="#DejaVuSans-48" transform="translate(1413.076172 0.015625)"/>
     <use xlink:href="#DejaVuSans-7a" transform="translate(1488.271484 0.015625)"/>
    </g>
    <!-- actual detuning: 571.7$\pm$2.6 kHz -->
    <g transform="translate(422.3635 121.19935) scale(0.1 -0.1)">
     <use xlink:href="#DejaVuSans-61" transform="translate(0 0.015625)"/>
     <use xlink:href="#DejaVuSans-63" transform="translate(61.279297 0.015625)"/>
     <use xlink:href="#DejaVuSans-74" transform="translate(116.259766 0.015625)"/>
     <use xlink:href="#DejaVuSans-75" transform="translate(155.46875 0.015625)"/>
     <use xlink:href="#DejaVuSans-61" transform="translate(218.847656 0.015625)"/>
     <use xlink:href="#DejaVuSans-6c" transform="translate(280.126953 0.015625)"/>
     <use xlink:href="#DejaVuSans-20" transform="translate(307.910156 0.015625)"/>
     <use xlink:href="#DejaVuSans-64" transform="translate(339.697266 0.015625)"/>
     <use xlink:href="#DejaVuSans-65" transform="translate(403.173828 0.015625)"/>
     <use xlink:href="#DejaVuSans-74" transform="translate(464.697266 0.015625)"/>
     <use xlink:href="#DejaVuSans-75" transform="translate(503.90625 0.015625)"/>
     <use xlink:href="#DejaVuSans-6e" transform="translate(567.285156 0.015625)"/>
     <use xlink:href="#DejaVuSans-69" transform="translate(630.664062 0.015625)"/>
     <use xlink:href="#DejaVuSans-6e" transform="translate(658.447266 0.015625)"/>
     <use xlink:href="#DejaVuSans-67" transform="translate(721.826172 0.015625)"/>
     <use xlink:href="#DejaVuSans-3a" transform="translate(785.302734 0.015625)"/>
     <use xlink:href="#DejaVuSans-20" transform="translate(818.994141 0.015625)"/>
     <use xlink:href="#DejaVuSans-35" transform="translate(850.78125 0.015625)"/>
     <use xlink:href="#DejaVuSans-37" transform="translate(907.154297 0.015625)"/>
     <use xlink:href="#DejaVuSans-31" transform="translate(970.777344 0.015625)"/>
     <use xlink:href="#DejaVuSans-2e" transform="translate(1034.400391 0.015625)"/>
     <use xlink:href="#DejaVuSans-37" transform="translate(1058.4375 0.015625)"/>
     <use xlink:href="#DejaVuSans-b1" transform="translate(1122.060547 0.015625)"/>
     <use xlink:href="#DejaVuSans-32" transform="translate(1205.849609 0.015625)"/>
     <use xlink:href="#DejaVuSans-2e" transform="translate(1269.472656 0.015625)"/>
     <use xlink:href="#DejaVuSans-36" transform="translate(1301.259766 0.015625)"/>
     <use xlink:href="#DejaVuSans-20" transform="translate(1364.882812 0.015625)"/>
     <use xlink:href="#DejaVuSans-6b" transform="translate(1396.669922 0.015625)"/>
     <use xlink:href="#DejaVuSans-48" transform="translate(1454.580078 0.015625)"/>
     <use xlink:href="#DejaVuSans-7a" transform="translate(1529.775391 0.015625)"/>
    </g>
    <!--  -->
    <g transform="translate(422.3635 132.417475) scale(0.1 -0.1)"/>
   </g>
  </g>
  <g id="text_19">
   <!--  ramsey -->
   <g transform="translate(195.924062 16.318125) scale(0.12 -0.12)">
    <use xlink:href="#DejaVuSans-20"/>
    <use xlink:href="#DejaVuSans-72" x="31.787109"/>
    <use xlink:href="#DejaVuSans-61" x="72.900391"/>
    <use xlink:href="#DejaVuSans-6d" x="134.179688"/>
    <use xlink:href="#DejaVuSans-73" x="231.591797"/>
    <use xlink:href="#DejaVuSans-65" x="283.691406"/>
    <use xlink:href="#DejaVuSans-79" x="345.214844"/>
   </g>
   <!-- tuid: 20231227-164400-743-2c4354 -->
   <g transform="translate(110.850625 29.7555) scale(0.12 -0.12)">
    <defs>
     <path id="DejaVuSans-33" d="M 2597 2516 
Q 3050 2419 3304 2112 
Q 3559 1806 3559 1356 
Q 3559 666 3084 287 
Q 2609 -91 1734 -91 
Q 1441 -91 1130 -33 
Q 819 25 488 141 
L 488 750 
Q 750 597 1062 519 
Q 1375 441 1716 441 
Q 2309 441 2620 675 
Q 2931 909 2931 1356 
Q 2931 1769 2642 2001 
Q 2353 2234 1838 2234 
L 1294 2234 
L 1294 2753 
L 1863 2753 
Q 2328 2753 2575 2939 
Q 2822 3125 2822 3475 
Q 2822 3834 2567 4026 
Q 2313 4219 1838 4219 
Q 1578 4219 1281 4162 
Q 984 4106 628 3988 
L 628 4550 
Q 988 4650 1302 4700 
Q 1616 4750 1894 4750 
Q 2613 4750 3031 4423 
Q 3450 4097 3450 3541 
Q 3450 3153 3228 2886 
Q 3006 2619 2597 2516 
z
" transform="scale(0.015625)"/>
     <path id="DejaVuSans-2d" d="M 313 2009 
L 1997 2009 
L 1997 1497 
L 313 1497 
L 313 2009 
z
" transform="scale(0.015625)"/>
    </defs>
    <use xlink:href="#DejaVuSans-74"/>
    <use xlink:href="#DejaVuSans-75" x="39.208984"/>
    <use xlink:href="#DejaVuSans-69" x="102.587891"/>
    <use xlink:href="#DejaVuSans-64" x="130.371094"/>
    <use xlink:href="#DejaVuSans-3a" x="193.847656"/>
    <use xlink:href="#DejaVuSans-20" x="227.539062"/>
    <use xlink:href="#DejaVuSans-32" x="259.326172"/>
    <use xlink:href="#DejaVuSans-30" x="322.949219"/>
    <use xlink:href="#DejaVuSans-32" x="386.572266"/>
    <use xlink:href="#DejaVuSans-33" x="450.195312"/>
    <use xlink:href="#DejaVuSans-31" x="513.818359"/>
    <use xlink:href="#DejaVuSans-32" x="577.441406"/>
    <use xlink:href="#DejaVuSans-32" x="641.064453"/>
    <use xlink:href="#DejaVuSans-37" x="704.6875"/>
    <use xlink:href="#DejaVuSans-2d" x="768.310547"/>
    <use xlink:href="#DejaVuSans-31" x="804.394531"/>
    <use xlink:href="#DejaVuSans-36" x="868.017578"/>
    <use xlink:href="#DejaVuSans-34" x="931.640625"/>
    <use xlink:href="#DejaVuSans-34" x="995.263672"/>
    <use xlink:href="#DejaVuSans-30" x="1058.886719"/>
    <use xlink:href="#DejaVuSans-30" x="1122.509766"/>
    <use xlink:href="#DejaVuSans-2d" x="1186.132812"/>
    <use xlink:href="#DejaVuSans-37" x="1222.216797"/>
    <use xlink:href="#DejaVuSans-34" x="1285.839844"/>
    <use xlink:href="#DejaVuSans-33" x="1349.462891"/>
    <use xlink:href="#DejaVuSans-2d" x="1413.085938"/>
    <use xlink:href="#DejaVuSans-32" x="1449.169922"/>
    <use xlink:href="#DejaVuSans-63" x="1512.792969"/>
    <use xlink:href="#DejaVuSans-34" x="1567.773438"/>
    <use xlink:href="#DejaVuSans-33" x="1631.396484"/>
    <use xlink:href="#DejaVuSans-35" x="1695.019531"/>
    <use xlink:href="#DejaVuSans-34" x="1758.642578"/>
   </g>
  </g>
 </g>
 <defs>
  <clipPath id="p28c30261dc">
   <rect x="47.3875" y="41.76" width="357.12" height="266.112"/>
  </clipPath>
 </defs>
</svg>
