<?xml version="1.0" encoding="utf-8" standalone="no"?>
<!DOCTYPE svg PUBLIC "-//W3C//DTD SVG 1.1//EN"
  "http://www.w3.org/Graphics/SVG/1.1/DTD/svg11.dtd">
<svg xmlns:xlink="http://www.w3.org/1999/xlink" width="656.996313pt" height="345.42825pt" viewBox="0 0 656.996313 345.42825" xmlns="http://www.w3.org/2000/svg" version="1.1">
 <metadata>
  <rdf:RDF xmlns:dc="http://purl.org/dc/elements/1.1/" xmlns:cc="http://creativecommons.org/ns#" xmlns:rdf="http://www.w3.org/1999/02/22-rdf-syntax-ns#">
   <cc:Work>
    <dc:type rdf:resource="http://purl.org/dc/dcmitype/StillImage"/>
    <dc:date>2023-12-27T19:05:15.968968</dc:date>
    <dc:format>image/svg+xml</dc:format>
    <dc:creator>
     <cc:Agent>
      <dc:title>Matplotlib v3.8.2, https://matplotlib.org/</dc:title>
     </cc:Agent>
    </dc:creator>
   </cc:Work>
  </rdf:RDF>
 </metadata>
 <defs>
  <style type="text/css">*{stroke-linejoin: round; stroke-linecap: butt}</style>
 </defs>
 <g id="figure_1">
  <g id="patch_1">
   <path d="M 0 345.42825 
L 656.996313 345.42825 
L 656.996313 -0 
L 0 -0 
L 0 345.42825 
z
" style="fill: none; opacity: 0"/>
  </g>
  <g id="axes_1">
   <g id="patch_2">
    <path d="M 50.573438 307.872 
L 407.693438 307.872 
L 407.693438 41.76 
L 50.573438 41.76 
z
" style="fill: #ffffff"/>
   </g>
   <g id="matplotlib.axis_1">
    <g id="xtick_1">
     <g id="line2d_1">
      <defs>
       <path id="m0ea3765637" d="M 0 0 
L 0 3.5 
" style="stroke: #000000; stroke-width: 0.8"/>
      </defs>
      <g>
       <use xlink:href="#m0ea3765637" x="65.7127" y="307.872" style="stroke: #000000; stroke-width: 0.8"/>
      </g>
     </g>
     <g id="text_1">
      <!-- 6 -->
      <g transform="translate(62.53145 322.470438) scale(0.1 -0.1)">
       <defs>
        <path id="DejaVuSans-36" d="M 2113 2584 
Q 1688 2584 1439 2293 
Q 1191 2003 1191 1497 
Q 1191 994 1439 701 
Q 1688 409 2113 409 
Q 2538 409 2786 701 
Q 3034 994 3034 1497 
Q 3034 2003 2786 2293 
Q 2538 2584 2113 2584 
z
M 3366 4563 
L 3366 3988 
Q 3128 4100 2886 4159 
Q 2644 4219 2406 4219 
Q 1781 4219 1451 3797 
Q 1122 3375 1075 2522 
Q 1259 2794 1537 2939 
Q 1816 3084 2150 3084 
Q 2853 3084 3261 2657 
Q 3669 2231 3669 1497 
Q 3669 778 3244 343 
Q 2819 -91 2113 -91 
Q 1303 -91 875 529 
Q 447 1150 447 2328 
Q 447 3434 972 4092 
Q 1497 4750 2381 4750 
Q 2619 4750 2861 4703 
Q 3103 4656 3366 4563 
z
" transform="scale(0.015625)"/>
       </defs>
       <use xlink:href="#DejaVuSans-36"/>
      </g>
     </g>
    </g>
    <g id="xtick_2">
     <g id="line2d_2">
      <g>
       <use xlink:href="#m0ea3765637" x="106.294518" y="307.872" style="stroke: #000000; stroke-width: 0.8"/>
      </g>
     </g>
     <g id="text_2">
      <!-- 6.5 -->
      <g transform="translate(98.342956 322.470438) scale(0.1 -0.1)">
       <defs>
        <path id="DejaVuSans-2e" d="M 684 794 
L 1344 794 
L 1344 0 
L 684 0 
L 684 794 
z
" transform="scale(0.015625)"/>
        <path id="DejaVuSans-35" d="M 691 4666 
L 3169 4666 
L 3169 4134 
L 1269 4134 
L 1269 2991 
Q 1406 3038 1543 3061 
Q 1681 3084 1819 3084 
Q 2600 3084 3056 2656 
Q 3513 2228 3513 1497 
Q 3513 744 3044 326 
Q 2575 -91 1722 -91 
Q 1428 -91 1123 -41 
Q 819 9 494 109 
L 494 744 
Q 775 591 1075 516 
Q 1375 441 1709 441 
Q 2250 441 2565 725 
Q 2881 1009 2881 1497 
Q 2881 1984 2565 2268 
Q 2250 2553 1709 2553 
Q 1456 2553 1204 2497 
Q 953 2441 691 2322 
L 691 4666 
z
" transform="scale(0.015625)"/>
       </defs>
       <use xlink:href="#DejaVuSans-36"/>
       <use xlink:href="#DejaVuSans-2e" x="63.623047"/>
       <use xlink:href="#DejaVuSans-35" x="95.410156"/>
      </g>
     </g>
    </g>
    <g id="xtick_3">
     <g id="line2d_3">
      <g>
       <use xlink:href="#m0ea3765637" x="146.876336" y="307.872" style="stroke: #000000; stroke-width: 0.8"/>
      </g>
     </g>
     <g id="text_3">
      <!-- 7 -->
      <g transform="translate(143.695086 322.470438) scale(0.1 -0.1)">
       <defs>
        <path id="DejaVuSans-37" d="M 525 4666 
L 3525 4666 
L 3525 4397 
L 1831 0 
L 1172 0 
L 2766 4134 
L 525 4134 
L 525 4666 
z
" transform="scale(0.015625)"/>
       </defs>
       <use xlink:href="#DejaVuSans-37"/>
      </g>
     </g>
    </g>
    <g id="xtick_4">
     <g id="line2d_4">
      <g>
       <use xlink:href="#m0ea3765637" x="187.458155" y="307.872" style="stroke: #000000; stroke-width: 0.8"/>
      </g>
     </g>
     <g id="text_4">
      <!-- 7.5 -->
      <g transform="translate(179.506592 322.470438) scale(0.1 -0.1)">
       <use xlink:href="#DejaVuSans-37"/>
       <use xlink:href="#DejaVuSans-2e" x="63.623047"/>
       <use xlink:href="#DejaVuSans-35" x="95.410156"/>
      </g>
     </g>
    </g>
    <g id="xtick_5">
     <g id="line2d_5">
      <g>
       <use xlink:href="#m0ea3765637" x="228.039973" y="307.872" style="stroke: #000000; stroke-width: 0.8"/>
      </g>
     </g>
     <g id="text_5">
      <!-- 8 -->
      <g transform="translate(224.858723 322.470438) scale(0.1 -0.1)">
       <defs>
        <path id="DejaVuSans-38" d="M 2034 2216 
Q 1584 2216 1326 1975 
Q 1069 1734 1069 1313 
Q 1069 891 1326 650 
Q 1584 409 2034 409 
Q 2484 409 2743 651 
Q 3003 894 3003 1313 
Q 3003 1734 2745 1975 
Q 2488 2216 2034 2216 
z
M 1403 2484 
Q 997 2584 770 2862 
Q 544 3141 544 3541 
Q 544 4100 942 4425 
Q 1341 4750 2034 4750 
Q 2731 4750 3128 4425 
Q 3525 4100 3525 3541 
Q 3525 3141 3298 2862 
Q 3072 2584 2669 2484 
Q 3125 2378 3379 2068 
Q 3634 1759 3634 1313 
Q 3634 634 3220 271 
Q 2806 -91 2034 -91 
Q 1263 -91 848 271 
Q 434 634 434 1313 
Q 434 1759 690 2068 
Q 947 2378 1403 2484 
z
M 1172 3481 
Q 1172 3119 1398 2916 
Q 1625 2713 2034 2713 
Q 2441 2713 2670 2916 
Q 2900 3119 2900 3481 
Q 2900 3844 2670 4047 
Q 2441 4250 2034 4250 
Q 1625 4250 1398 4047 
Q 1172 3844 1172 3481 
z
" transform="scale(0.015625)"/>
       </defs>
       <use xlink:href="#DejaVuSans-38"/>
      </g>
     </g>
    </g>
    <g id="xtick_6">
     <g id="line2d_6">
      <g>
       <use xlink:href="#m0ea3765637" x="268.621791" y="307.872" style="stroke: #000000; stroke-width: 0.8"/>
      </g>
     </g>
     <g id="text_6">
      <!-- 8.5 -->
      <g transform="translate(260.670228 322.470438) scale(0.1 -0.1)">
       <use xlink:href="#DejaVuSans-38"/>
       <use xlink:href="#DejaVuSans-2e" x="63.623047"/>
       <use xlink:href="#DejaVuSans-35" x="95.410156"/>
      </g>
     </g>
    </g>
    <g id="xtick_7">
     <g id="line2d_7">
      <g>
       <use xlink:href="#m0ea3765637" x="309.203609" y="307.872" style="stroke: #000000; stroke-width: 0.8"/>
      </g>
     </g>
     <g id="text_7">
      <!-- 9 -->
      <g transform="translate(306.022359 322.470438) scale(0.1 -0.1)">
       <defs>
        <path id="DejaVuSans-39" d="M 703 97 
L 703 672 
Q 941 559 1184 500 
Q 1428 441 1663 441 
Q 2288 441 2617 861 
Q 2947 1281 2994 2138 
Q 2813 1869 2534 1725 
Q 2256 1581 1919 1581 
Q 1219 1581 811 2004 
Q 403 2428 403 3163 
Q 403 3881 828 4315 
Q 1253 4750 1959 4750 
Q 2769 4750 3195 4129 
Q 3622 3509 3622 2328 
Q 3622 1225 3098 567 
Q 2575 -91 1691 -91 
Q 1453 -91 1209 -44 
Q 966 3 703 97 
z
M 1959 2075 
Q 2384 2075 2632 2365 
Q 2881 2656 2881 3163 
Q 2881 3666 2632 3958 
Q 2384 4250 1959 4250 
Q 1534 4250 1286 3958 
Q 1038 3666 1038 3163 
Q 1038 2656 1286 2365 
Q 1534 2075 1959 2075 
z
" transform="scale(0.015625)"/>
       </defs>
       <use xlink:href="#DejaVuSans-39"/>
      </g>
     </g>
    </g>
    <g id="xtick_8">
     <g id="line2d_8">
      <g>
       <use xlink:href="#m0ea3765637" x="349.785427" y="307.872" style="stroke: #000000; stroke-width: 0.8"/>
      </g>
     </g>
     <g id="text_8">
      <!-- 9.5 -->
      <g transform="translate(341.833865 322.470438) scale(0.1 -0.1)">
       <use xlink:href="#DejaVuSans-39"/>
       <use xlink:href="#DejaVuSans-2e" x="63.623047"/>
       <use xlink:href="#DejaVuSans-35" x="95.410156"/>
      </g>
     </g>
    </g>
    <g id="xtick_9">
     <g id="line2d_9">
      <g>
       <use xlink:href="#m0ea3765637" x="390.367245" y="307.872" style="stroke: #000000; stroke-width: 0.8"/>
      </g>
     </g>
     <g id="text_9">
      <!-- 10 -->
      <g transform="translate(384.004745 322.470438) scale(0.1 -0.1)">
       <defs>
        <path id="DejaVuSans-31" d="M 794 531 
L 1825 531 
L 1825 4091 
L 703 3866 
L 703 4441 
L 1819 4666 
L 2450 4666 
L 2450 531 
L 3481 531 
L 3481 0 
L 794 0 
L 794 531 
z
" transform="scale(0.015625)"/>
        <path id="DejaVuSans-30" d="M 2034 4250 
Q 1547 4250 1301 3770 
Q 1056 3291 1056 2328 
Q 1056 1369 1301 889 
Q 1547 409 2034 409 
Q 2525 409 2770 889 
Q 3016 1369 3016 2328 
Q 3016 3291 2770 3770 
Q 2525 4250 2034 4250 
z
M 2034 4750 
Q 2819 4750 3233 4129 
Q 3647 3509 3647 2328 
Q 3647 1150 3233 529 
Q 2819 -91 2034 -91 
Q 1250 -91 836 529 
Q 422 1150 422 2328 
Q 422 3509 836 4129 
Q 1250 4750 2034 4750 
z
" transform="scale(0.015625)"/>
       </defs>
       <use xlink:href="#DejaVuSans-31"/>
       <use xlink:href="#DejaVuSans-30" x="63.623047"/>
      </g>
     </g>
    </g>
    <g id="text_10">
     <!-- Frequency [MHz] -->
     <g transform="translate(187.114688 336.148562) scale(0.1 -0.1)">
      <defs>
       <path id="DejaVuSans-46" d="M 628 4666 
L 3309 4666 
L 3309 4134 
L 1259 4134 
L 1259 2759 
L 3109 2759 
L 3109 2228 
L 1259 2228 
L 1259 0 
L 628 0 
L 628 4666 
z
" transform="scale(0.015625)"/>
       <path id="DejaVuSans-72" d="M 2631 2963 
Q 2534 3019 2420 3045 
Q 2306 3072 2169 3072 
Q 1681 3072 1420 2755 
Q 1159 2438 1159 1844 
L 1159 0 
L 581 0 
L 581 3500 
L 1159 3500 
L 1159 2956 
Q 1341 3275 1631 3429 
Q 1922 3584 2338 3584 
Q 2397 3584 2469 3576 
Q 2541 3569 2628 3553 
L 2631 2963 
z
" transform="scale(0.015625)"/>
       <path id="DejaVuSans-65" d="M 3597 1894 
L 3597 1613 
L 953 1613 
Q 991 1019 1311 708 
Q 1631 397 2203 397 
Q 2534 397 2845 478 
Q 3156 559 3463 722 
L 3463 178 
Q 3153 47 2828 -22 
Q 2503 -91 2169 -91 
Q 1331 -91 842 396 
Q 353 884 353 1716 
Q 353 2575 817 3079 
Q 1281 3584 2069 3584 
Q 2775 3584 3186 3129 
Q 3597 2675 3597 1894 
z
M 3022 2063 
Q 3016 2534 2758 2815 
Q 2500 3097 2075 3097 
Q 1594 3097 1305 2825 
Q 1016 2553 972 2059 
L 3022 2063 
z
" transform="scale(0.015625)"/>
       <path id="DejaVuSans-71" d="M 947 1747 
Q 947 1113 1208 752 
Q 1469 391 1925 391 
Q 2381 391 2643 752 
Q 2906 1113 2906 1747 
Q 2906 2381 2643 2742 
Q 2381 3103 1925 3103 
Q 1469 3103 1208 2742 
Q 947 2381 947 1747 
z
M 2906 525 
Q 2725 213 2448 61 
Q 2172 -91 1784 -91 
Q 1150 -91 751 415 
Q 353 922 353 1747 
Q 353 2572 751 3078 
Q 1150 3584 1784 3584 
Q 2172 3584 2448 3432 
Q 2725 3281 2906 2969 
L 2906 3500 
L 3481 3500 
L 3481 -1331 
L 2906 -1331 
L 2906 525 
z
" transform="scale(0.015625)"/>
       <path id="DejaVuSans-75" d="M 544 1381 
L 544 3500 
L 1119 3500 
L 1119 1403 
Q 1119 906 1312 657 
Q 1506 409 1894 409 
Q 2359 409 2629 706 
Q 2900 1003 2900 1516 
L 2900 3500 
L 3475 3500 
L 3475 0 
L 2900 0 
L 2900 538 
Q 2691 219 2414 64 
Q 2138 -91 1772 -91 
Q 1169 -91 856 284 
Q 544 659 544 1381 
z
M 1991 3584 
L 1991 3584 
z
" transform="scale(0.015625)"/>
       <path id="DejaVuSans-6e" d="M 3513 2113 
L 3513 0 
L 2938 0 
L 2938 2094 
Q 2938 2591 2744 2837 
Q 2550 3084 2163 3084 
Q 1697 3084 1428 2787 
Q 1159 2491 1159 1978 
L 1159 0 
L 581 0 
L 581 3500 
L 1159 3500 
L 1159 2956 
Q 1366 3272 1645 3428 
Q 1925 3584 2291 3584 
Q 2894 3584 3203 3211 
Q 3513 2838 3513 2113 
z
" transform="scale(0.015625)"/>
       <path id="DejaVuSans-63" d="M 3122 3366 
L 3122 2828 
Q 2878 2963 2633 3030 
Q 2388 3097 2138 3097 
Q 1578 3097 1268 2742 
Q 959 2388 959 1747 
Q 959 1106 1268 751 
Q 1578 397 2138 397 
Q 2388 397 2633 464 
Q 2878 531 3122 666 
L 3122 134 
Q 2881 22 2623 -34 
Q 2366 -91 2075 -91 
Q 1284 -91 818 406 
Q 353 903 353 1747 
Q 353 2603 823 3093 
Q 1294 3584 2113 3584 
Q 2378 3584 2631 3529 
Q 2884 3475 3122 3366 
z
" transform="scale(0.015625)"/>
       <path id="DejaVuSans-79" d="M 2059 -325 
Q 1816 -950 1584 -1140 
Q 1353 -1331 966 -1331 
L 506 -1331 
L 506 -850 
L 844 -850 
Q 1081 -850 1212 -737 
Q 1344 -625 1503 -206 
L 1606 56 
L 191 3500 
L 800 3500 
L 1894 763 
L 2988 3500 
L 3597 3500 
L 2059 -325 
z
" transform="scale(0.015625)"/>
       <path id="DejaVuSans-20" transform="scale(0.015625)"/>
       <path id="DejaVuSans-5b" d="M 550 4863 
L 1875 4863 
L 1875 4416 
L 1125 4416 
L 1125 -397 
L 1875 -397 
L 1875 -844 
L 550 -844 
L 550 4863 
z
" transform="scale(0.015625)"/>
       <path id="DejaVuSans-4d" d="M 628 4666 
L 1569 4666 
L 2759 1491 
L 3956 4666 
L 4897 4666 
L 4897 0 
L 4281 0 
L 4281 4097 
L 3078 897 
L 2444 897 
L 1241 4097 
L 1241 0 
L 628 0 
L 628 4666 
z
" transform="scale(0.015625)"/>
       <path id="DejaVuSans-48" d="M 628 4666 
L 1259 4666 
L 1259 2753 
L 3553 2753 
L 3553 4666 
L 4184 4666 
L 4184 0 
L 3553 0 
L 3553 2222 
L 1259 2222 
L 1259 0 
L 628 0 
L 628 4666 
z
" transform="scale(0.015625)"/>
       <path id="DejaVuSans-7a" d="M 353 3500 
L 3084 3500 
L 3084 2975 
L 922 459 
L 3084 459 
L 3084 0 
L 275 0 
L 275 525 
L 2438 3041 
L 353 3041 
L 353 3500 
z
" transform="scale(0.015625)"/>
       <path id="DejaVuSans-5d" d="M 1947 4863 
L 1947 -844 
L 622 -844 
L 622 -397 
L 1369 -397 
L 1369 4416 
L 622 4416 
L 622 4863 
L 1947 4863 
z
" transform="scale(0.015625)"/>
      </defs>
      <use xlink:href="#DejaVuSans-46"/>
      <use xlink:href="#DejaVuSans-72" x="50.269531"/>
      <use xlink:href="#DejaVuSans-65" x="89.132812"/>
      <use xlink:href="#DejaVuSans-71" x="150.65625"/>
      <use xlink:href="#DejaVuSans-75" x="214.132812"/>
      <use xlink:href="#DejaVuSans-65" x="277.511719"/>
      <use xlink:href="#DejaVuSans-6e" x="339.035156"/>
      <use xlink:href="#DejaVuSans-63" x="402.414062"/>
      <use xlink:href="#DejaVuSans-79" x="457.394531"/>
      <use xlink:href="#DejaVuSans-20" x="516.574219"/>
      <use xlink:href="#DejaVuSans-5b" x="548.361328"/>
      <use xlink:href="#DejaVuSans-4d" x="587.375"/>
      <use xlink:href="#DejaVuSans-48" x="673.654297"/>
      <use xlink:href="#DejaVuSans-7a" x="748.849609"/>
      <use xlink:href="#DejaVuSans-5d" x="801.339844"/>
     </g>
    </g>
    <g id="text_11">
     <!-- +6 GHz -->
     <g transform="translate(369.255938 335.148562) scale(0.1 -0.1)">
      <defs>
       <path id="DejaVuSans-2b" d="M 2944 4013 
L 2944 2272 
L 4684 2272 
L 4684 1741 
L 2944 1741 
L 2944 0 
L 2419 0 
L 2419 1741 
L 678 1741 
L 678 2272 
L 2419 2272 
L 2419 4013 
L 2944 4013 
z
" transform="scale(0.015625)"/>
       <path id="DejaVuSans-47" d="M 3809 666 
L 3809 1919 
L 2778 1919 
L 2778 2438 
L 4434 2438 
L 4434 434 
Q 4069 175 3628 42 
Q 3188 -91 2688 -91 
Q 1594 -91 976 548 
Q 359 1188 359 2328 
Q 359 3472 976 4111 
Q 1594 4750 2688 4750 
Q 3144 4750 3555 4637 
Q 3966 4525 4313 4306 
L 4313 3634 
Q 3963 3931 3569 4081 
Q 3175 4231 2741 4231 
Q 1884 4231 1454 3753 
Q 1025 3275 1025 2328 
Q 1025 1384 1454 906 
Q 1884 428 2741 428 
Q 3075 428 3337 486 
Q 3600 544 3809 666 
z
" transform="scale(0.015625)"/>
      </defs>
      <use xlink:href="#DejaVuSans-2b"/>
      <use xlink:href="#DejaVuSans-36" x="83.789062"/>
      <use xlink:href="#DejaVuSans-20" x="147.412109"/>
      <use xlink:href="#DejaVuSans-47" x="179.199219"/>
      <use xlink:href="#DejaVuSans-48" x="256.689453"/>
      <use xlink:href="#DejaVuSans-7a" x="331.884766"/>
     </g>
    </g>
   </g>
   <g id="matplotlib.axis_2">
    <g id="ytick_1">
     <g id="line2d_10">
      <defs>
       <path id="m150097adc2" d="M 0 0 
L -3.5 0 
" style="stroke: #000000; stroke-width: 0.8"/>
      </defs>
      <g>
       <use xlink:href="#m150097adc2" x="50.573438" y="275.650296" style="stroke: #000000; stroke-width: 0.8"/>
      </g>
     </g>
     <g id="text_12">
      <!-- -150 -->
      <g transform="translate(20.878125 279.449515) scale(0.1 -0.1)">
       <defs>
        <path id="DejaVuSans-2d" d="M 313 2009 
L 1997 2009 
L 1997 1497 
L 313 1497 
L 313 2009 
z
" transform="scale(0.015625)"/>
       </defs>
       <use xlink:href="#DejaVuSans-2d"/>
       <use xlink:href="#DejaVuSans-31" x="36.083984"/>
       <use xlink:href="#DejaVuSans-35" x="99.707031"/>
       <use xlink:href="#DejaVuSans-30" x="163.330078"/>
      </g>
     </g>
    </g>
    <g id="ytick_2">
     <g id="line2d_11">
      <g>
       <use xlink:href="#m150097adc2" x="50.573438" y="242.044716" style="stroke: #000000; stroke-width: 0.8"/>
      </g>
     </g>
     <g id="text_13">
      <!-- -100 -->
      <g transform="translate(20.878125 245.843934) scale(0.1 -0.1)">
       <use xlink:href="#DejaVuSans-2d"/>
       <use xlink:href="#DejaVuSans-31" x="36.083984"/>
       <use xlink:href="#DejaVuSans-30" x="99.707031"/>
       <use xlink:href="#DejaVuSans-30" x="163.330078"/>
      </g>
     </g>
    </g>
    <g id="ytick_3">
     <g id="line2d_12">
      <g>
       <use xlink:href="#m150097adc2" x="50.573438" y="208.439135" style="stroke: #000000; stroke-width: 0.8"/>
      </g>
     </g>
     <g id="text_14">
      <!-- -50 -->
      <g transform="translate(27.240625 212.238354) scale(0.1 -0.1)">
       <use xlink:href="#DejaVuSans-2d"/>
       <use xlink:href="#DejaVuSans-35" x="36.083984"/>
       <use xlink:href="#DejaVuSans-30" x="99.707031"/>
      </g>
     </g>
    </g>
    <g id="ytick_4">
     <g id="line2d_13">
      <g>
       <use xlink:href="#m150097adc2" x="50.573438" y="174.833555" style="stroke: #000000; stroke-width: 0.8"/>
      </g>
     </g>
     <g id="text_15">
      <!-- 0 -->
      <g transform="translate(37.210938 178.632773) scale(0.1 -0.1)">
       <use xlink:href="#DejaVuSans-30"/>
      </g>
     </g>
    </g>
    <g id="ytick_5">
     <g id="line2d_14">
      <g>
       <use xlink:href="#m150097adc2" x="50.573438" y="141.227974" style="stroke: #000000; stroke-width: 0.8"/>
      </g>
     </g>
     <g id="text_16">
      <!-- 50 -->
      <g transform="translate(30.848438 145.027193) scale(0.1 -0.1)">
       <use xlink:href="#DejaVuSans-35"/>
       <use xlink:href="#DejaVuSans-30" x="63.623047"/>
      </g>
     </g>
    </g>
    <g id="ytick_6">
     <g id="line2d_15">
      <g>
       <use xlink:href="#m150097adc2" x="50.573438" y="107.622394" style="stroke: #000000; stroke-width: 0.8"/>
      </g>
     </g>
     <g id="text_17">
      <!-- 100 -->
      <g transform="translate(24.485938 111.421612) scale(0.1 -0.1)">
       <use xlink:href="#DejaVuSans-31"/>
       <use xlink:href="#DejaVuSans-30" x="63.623047"/>
       <use xlink:href="#DejaVuSans-30" x="127.246094"/>
      </g>
     </g>
    </g>
    <g id="ytick_7">
     <g id="line2d_16">
      <g>
       <use xlink:href="#m150097adc2" x="50.573438" y="74.016813" style="stroke: #000000; stroke-width: 0.8"/>
      </g>
     </g>
     <g id="text_18">
      <!-- 150 -->
      <g transform="translate(24.485938 77.816032) scale(0.1 -0.1)">
       <use xlink:href="#DejaVuSans-31"/>
       <use xlink:href="#DejaVuSans-35" x="63.623047"/>
       <use xlink:href="#DejaVuSans-30" x="127.246094"/>
      </g>
     </g>
    </g>
    <g id="text_19">
     <!-- Phase0 [deg] -->
     <g transform="translate(14.798438 207.841781) rotate(-90) scale(0.1 -0.1)">
      <defs>
       <path id="DejaVuSans-50" d="M 1259 4147 
L 1259 2394 
L 2053 2394 
Q 2494 2394 2734 2622 
Q 2975 2850 2975 3272 
Q 2975 3691 2734 3919 
Q 2494 4147 2053 4147 
L 1259 4147 
z
M 628 4666 
L 2053 4666 
Q 2838 4666 3239 4311 
Q 3641 3956 3641 3272 
Q 3641 2581 3239 2228 
Q 2838 1875 2053 1875 
L 1259 1875 
L 1259 0 
L 628 0 
L 628 4666 
z
" transform="scale(0.015625)"/>
       <path id="DejaVuSans-68" d="M 3513 2113 
L 3513 0 
L 2938 0 
L 2938 2094 
Q 2938 2591 2744 2837 
Q 2550 3084 2163 3084 
Q 1697 3084 1428 2787 
Q 1159 2491 1159 1978 
L 1159 0 
L 581 0 
L 581 4863 
L 1159 4863 
L 1159 2956 
Q 1366 3272 1645 3428 
Q 1925 3584 2291 3584 
Q 2894 3584 3203 3211 
Q 3513 2838 3513 2113 
z
" transform="scale(0.015625)"/>
       <path id="DejaVuSans-61" d="M 2194 1759 
Q 1497 1759 1228 1600 
Q 959 1441 959 1056 
Q 959 750 1161 570 
Q 1363 391 1709 391 
Q 2188 391 2477 730 
Q 2766 1069 2766 1631 
L 2766 1759 
L 2194 1759 
z
M 3341 1997 
L 3341 0 
L 2766 0 
L 2766 531 
Q 2569 213 2275 61 
Q 1981 -91 1556 -91 
Q 1019 -91 701 211 
Q 384 513 384 1019 
Q 384 1609 779 1909 
Q 1175 2209 1959 2209 
L 2766 2209 
L 2766 2266 
Q 2766 2663 2505 2880 
Q 2244 3097 1772 3097 
Q 1472 3097 1187 3025 
Q 903 2953 641 2809 
L 641 3341 
Q 956 3463 1253 3523 
Q 1550 3584 1831 3584 
Q 2591 3584 2966 3190 
Q 3341 2797 3341 1997 
z
" transform="scale(0.015625)"/>
       <path id="DejaVuSans-73" d="M 2834 3397 
L 2834 2853 
Q 2591 2978 2328 3040 
Q 2066 3103 1784 3103 
Q 1356 3103 1142 2972 
Q 928 2841 928 2578 
Q 928 2378 1081 2264 
Q 1234 2150 1697 2047 
L 1894 2003 
Q 2506 1872 2764 1633 
Q 3022 1394 3022 966 
Q 3022 478 2636 193 
Q 2250 -91 1575 -91 
Q 1294 -91 989 -36 
Q 684 19 347 128 
L 347 722 
Q 666 556 975 473 
Q 1284 391 1588 391 
Q 1994 391 2212 530 
Q 2431 669 2431 922 
Q 2431 1156 2273 1281 
Q 2116 1406 1581 1522 
L 1381 1569 
Q 847 1681 609 1914 
Q 372 2147 372 2553 
Q 372 3047 722 3315 
Q 1072 3584 1716 3584 
Q 2034 3584 2315 3537 
Q 2597 3491 2834 3397 
z
" transform="scale(0.015625)"/>
       <path id="DejaVuSans-64" d="M 2906 2969 
L 2906 4863 
L 3481 4863 
L 3481 0 
L 2906 0 
L 2906 525 
Q 2725 213 2448 61 
Q 2172 -91 1784 -91 
Q 1150 -91 751 415 
Q 353 922 353 1747 
Q 353 2572 751 3078 
Q 1150 3584 1784 3584 
Q 2172 3584 2448 3432 
Q 2725 3281 2906 2969 
z
M 947 1747 
Q 947 1113 1208 752 
Q 1469 391 1925 391 
Q 2381 391 2643 752 
Q 2906 1113 2906 1747 
Q 2906 2381 2643 2742 
Q 2381 3103 1925 3103 
Q 1469 3103 1208 2742 
Q 947 2381 947 1747 
z
" transform="scale(0.015625)"/>
       <path id="DejaVuSans-67" d="M 2906 1791 
Q 2906 2416 2648 2759 
Q 2391 3103 1925 3103 
Q 1463 3103 1205 2759 
Q 947 2416 947 1791 
Q 947 1169 1205 825 
Q 1463 481 1925 481 
Q 2391 481 2648 825 
Q 2906 1169 2906 1791 
z
M 3481 434 
Q 3481 -459 3084 -895 
Q 2688 -1331 1869 -1331 
Q 1566 -1331 1297 -1286 
Q 1028 -1241 775 -1147 
L 775 -588 
Q 1028 -725 1275 -790 
Q 1522 -856 1778 -856 
Q 2344 -856 2625 -561 
Q 2906 -266 2906 331 
L 2906 616 
Q 2728 306 2450 153 
Q 2172 0 1784 0 
Q 1141 0 747 490 
Q 353 981 353 1791 
Q 353 2603 747 3093 
Q 1141 3584 1784 3584 
Q 2172 3584 2450 3431 
Q 2728 3278 2906 2969 
L 2906 3500 
L 3481 3500 
L 3481 434 
z
" transform="scale(0.015625)"/>
      </defs>
      <use xlink:href="#DejaVuSans-50"/>
      <use xlink:href="#DejaVuSans-68" x="60.302734"/>
      <use xlink:href="#DejaVuSans-61" x="123.681641"/>
      <use xlink:href="#DejaVuSans-73" x="184.960938"/>
      <use xlink:href="#DejaVuSans-65" x="237.060547"/>
      <use xlink:href="#DejaVuSans-30" x="298.583984"/>
      <use xlink:href="#DejaVuSans-20" x="362.207031"/>
      <use xlink:href="#DejaVuSans-5b" x="393.994141"/>
      <use xlink:href="#DejaVuSans-64" x="433.007812"/>
      <use xlink:href="#DejaVuSans-65" x="496.484375"/>
      <use xlink:href="#DejaVuSans-67" x="558.007812"/>
      <use xlink:href="#DejaVuSans-5d" x="621.484375"/>
     </g>
    </g>
   </g>
   <g id="line2d_17">
    <path d="M 66.806165 284.075012 
L 78.001149 286.243847 
L 89.196133 288.663927 
L 100.391118 287.507107 
L 111.586102 289.933842 
L 122.781086 292.32752 
L 133.976071 56.178405 
L 145.171055 56.410496 
L 156.366039 58.358193 
L 167.561024 61.691218 
L 178.756008 64.791915 
L 189.950992 60.598224 
L 201.145977 70.52434 
L 212.340961 67.850558 
L 223.535945 291.246284 
L 234.73093 290.290713 
L 245.925914 284.314052 
L 257.120898 258.613141 
L 268.315883 249.126183 
L 279.510867 250.453192 
L 290.705851 245.398823 
L 301.900836 256.528189 
L 313.09582 251.225854 
L 324.290804 251.443534 
L 335.485789 251.874716 
L 346.680773 257.517628 
L 357.875757 261.154305 
L 369.070742 259.983751 
L 380.265726 259.848718 
L 391.46071 263.483808 
" clip-path="url(#pae8a4ab30f)" style="fill: none; stroke: #440154; stroke-width: 1.5; stroke-linecap: square"/>
   </g>
   <g id="line2d_18">
    <path d="M 66.806165 284.856044 
L 78.001149 285.950721 
L 89.196133 286.713585 
L 100.391118 288.679763 
L 111.586102 292.363388 
L 122.781086 294.298423 
L 133.976071 54.531047 
L 145.171055 56.277009 
L 156.366039 57.972405 
L 167.561024 59.934487 
L 178.756008 62.43272 
L 189.950992 65.924423 
L 201.145977 67.569077 
L 212.340961 68.991036 
L 223.535945 65.88741 
L 234.73093 293.459748 
L 245.925914 275.792627 
L 257.120898 260.235255 
L 268.315883 251.966814 
L 279.510867 248.618771 
L 290.705851 250.919537 
L 301.900836 251.516433 
L 313.09582 251.436238 
L 324.290804 254.77446 
L 335.485789 255.107439 
L 346.680773 257.879609 
L 357.875757 259.719145 
L 369.070742 262.656693 
L 380.265726 263.200266 
L 391.46071 263.365088 
" clip-path="url(#pae8a4ab30f)" style="fill: none; stroke: #470d60; stroke-width: 1.5; stroke-linecap: square"/>
   </g>
   <g id="line2d_19">
    <path d="M 66.806165 284.661385 
L 78.001149 286.609343 
L 89.196133 287.501125 
L 100.391118 290.311275 
L 111.586102 291.958209 
L 122.781086 292.678485 
L 133.976071 53.856 
L 145.171055 55.942028 
L 156.366039 58.457113 
L 167.561024 60.874413 
L 178.756008 63.381802 
L 189.950992 66.530819 
L 201.145977 69.75518 
L 212.340961 68.865645 
L 223.535945 65.035004 
L 234.73093 292.896346 
L 245.925914 274.886921 
L 257.120898 256.435674 
L 268.315883 250.073285 
L 279.510867 247.544766 
L 290.705851 249.500301 
L 301.900836 251.154224 
L 313.09582 253.664258 
L 324.290804 254.162332 
L 335.485789 256.57635 
L 346.680773 257.583212 
L 357.875757 259.644654 
L 369.070742 261.556245 
L 380.265726 261.843582 
L 391.46071 264.476751 
" clip-path="url(#pae8a4ab30f)" style="fill: none; stroke: #481a6c; stroke-width: 1.5; stroke-linecap: square"/>
   </g>
   <g id="line2d_20">
    <path d="M 66.806165 285.117444 
L 78.001149 286.558468 
L 89.196133 287.903046 
L 100.391118 289.522881 
L 111.586102 290.866717 
L 122.781086 293.574043 
L 133.976071 295.317801 
L 145.171055 55.780853 
L 156.366039 57.792393 
L 167.561024 60.802187 
L 178.756008 63.498326 
L 189.950992 66.228799 
L 201.145977 68.972127 
L 212.340961 68.580227 
L 223.535945 66.228672 
L 234.73093 55.813023 
L 245.925914 272.991062 
L 257.120898 253.420172 
L 268.315883 249.714946 
L 279.510867 247.868339 
L 290.705851 249.530427 
L 301.900836 250.85365 
L 313.09582 252.835795 
L 324.290804 253.422633 
L 335.485789 256.28222 
L 346.680773 257.653334 
L 357.875757 260.130519 
L 369.070742 261.120622 
L 380.265726 262.554138 
L 391.46071 263.636735 
" clip-path="url(#pae8a4ab30f)" style="fill: none; stroke: #482576; stroke-width: 1.5; stroke-linecap: square"/>
   </g>
   <g id="line2d_21">
    <path d="M 66.806165 285.146268 
L 78.001149 285.982428 
L 89.196133 287.812422 
L 100.391118 289.801644 
L 111.586102 291.175038 
L 122.781086 292.994 
L 133.976071 295.613246 
L 145.171055 55.821049 
L 156.366039 57.86167 
L 167.561024 61.103163 
L 178.756008 63.529278 
L 189.950992 66.404192 
L 201.145977 69.228921 
L 212.340961 69.978004 
L 223.535945 66.473358 
L 234.73093 55.127368 
L 245.925914 268.588279 
L 257.120898 253.179179 
L 268.315883 250.216985 
L 279.510867 247.863259 
L 290.705851 248.632856 
L 301.900836 250.68814 
L 313.09582 252.759018 
L 324.290804 254.430942 
L 335.485789 256.016904 
L 346.680773 258.02585 
L 357.875757 259.468448 
L 369.070742 260.638913 
L 380.265726 262.635727 
L 391.46071 263.732491 
" clip-path="url(#pae8a4ab30f)" style="fill: none; stroke: #46307e; stroke-width: 1.5; stroke-linecap: square"/>
   </g>
   <g id="line2d_22">
    <path d="M 66.806165 284.993283 
L 78.001149 286.281419 
L 89.196133 287.951532 
L 100.391118 289.679903 
L 111.586102 291.345298 
L 122.781086 293.35063 
L 133.976071 295.285092 
L 145.171055 55.750964 
L 156.366039 58.178942 
L 167.561024 61.218157 
L 178.756008 64.026141 
L 189.950992 66.867572 
L 201.145977 68.384031 
L 212.340961 69.688357 
L 223.535945 65.473059 
L 234.73093 54.397413 
L 245.925914 269.702351 
L 257.120898 252.189142 
L 268.315883 248.25433 
L 279.510867 248.071053 
L 290.705851 249.179258 
L 301.900836 250.710413 
L 313.09582 252.098634 
L 324.290804 254.526564 
L 335.485789 255.969543 
L 346.680773 258.376484 
L 357.875757 260.023377 
L 369.070742 261.328167 
L 380.265726 262.399005 
L 391.46071 263.966615 
" clip-path="url(#pae8a4ab30f)" style="fill: none; stroke: #443b84; stroke-width: 1.5; stroke-linecap: square"/>
   </g>
   <g id="line2d_23">
    <path d="M 66.806165 285.128499 
L 78.001149 286.405817 
L 89.196133 287.834732 
L 100.391118 289.514312 
L 111.586102 291.296446 
L 122.781086 293.211517 
L 133.976071 295.616223 
L 145.171055 55.783662 
L 156.366039 58.074613 
L 167.561024 61.09501 
L 178.756008 64.208375 
L 189.950992 66.030955 
L 201.145977 68.199238 
L 212.340961 68.471075 
L 223.535945 65.808298 
L 234.73093 53.951246 
L 245.925914 269.52493 
L 257.120898 252.489144 
L 268.315883 248.399022 
L 279.510867 247.814284 
L 290.705851 248.78083 
L 301.900836 250.586824 
L 313.09582 252.377454 
L 324.290804 254.405824 
L 335.485789 256.080782 
L 346.680773 257.831795 
L 357.875757 260.075885 
L 369.070742 260.85687 
L 380.265726 262.271312 
L 391.46071 263.883494 
" clip-path="url(#pae8a4ab30f)" style="fill: none; stroke: #404588; stroke-width: 1.5; stroke-linecap: square"/>
   </g>
   <g id="line2d_24">
    <path d="M 66.806165 285.008541 
L 78.001149 286.529153 
L 89.196133 287.902904 
L 100.391118 289.708484 
L 111.586102 291.515137 
L 122.781086 293.320369 
L 133.976071 295.503497 
L 145.171055 56.106067 
L 156.366039 58.490994 
L 167.561024 61.184841 
L 178.756008 63.458829 
L 189.950992 66.239074 
L 201.145977 68.407456 
L 212.340961 67.861209 
L 223.535945 63.622593 
L 234.73093 291.21316 
L 245.925914 265.432001 
L 257.120898 252.156296 
L 268.315883 248.515241 
L 279.510867 247.700856 
L 290.705851 248.978551 
L 301.900836 250.412087 
L 313.09582 252.378946 
L 324.290804 254.540483 
L 335.485789 256.338954 
L 346.680773 258.111808 
L 357.875757 259.637286 
L 369.070742 261.016054 
L 380.265726 262.276652 
L 391.46071 263.813763 
" clip-path="url(#pae8a4ab30f)" style="fill: none; stroke: #3c4f8a; stroke-width: 1.5; stroke-linecap: square"/>
   </g>
   <g id="line2d_25">
    <path d="M 66.806165 284.948717 
L 78.001149 286.371621 
L 89.196133 288.234008 
L 100.391118 289.840272 
L 111.586102 291.322182 
L 122.781086 293.553801 
L 133.976071 295.525761 
L 145.171055 56.012103 
L 156.366039 58.129713 
L 167.561024 61.014687 
L 178.756008 63.306779 
L 189.950992 66.214387 
L 201.145977 67.875607 
L 212.340961 66.64281 
L 223.535945 60.093384 
L 234.73093 281.489494 
L 245.925914 260.468194 
L 257.120898 251.51848 
L 268.315883 248.924115 
L 279.510867 248.697535 
L 290.705851 249.161751 
L 301.900836 250.77287 
L 313.09582 252.980913 
L 324.290804 254.39111 
L 335.485789 256.348524 
L 346.680773 257.942117 
L 357.875757 259.409495 
L 369.070742 261.01896 
L 380.265726 262.593347 
L 391.46071 263.855694 
" clip-path="url(#pae8a4ab30f)" style="fill: none; stroke: #38598c; stroke-width: 1.5; stroke-linecap: square"/>
   </g>
   <g id="line2d_26">
    <path d="M 66.806165 285.114985 
L 78.001149 286.509233 
L 89.196133 287.99604 
L 100.391118 289.829696 
L 111.586102 291.436646 
L 122.781086 293.551855 
L 133.976071 295.683881 
L 145.171055 56.141253 
L 156.366039 58.900558 
L 167.561024 61.295591 
L 178.756008 63.842835 
L 189.950992 66.046512 
L 201.145977 66.453656 
L 212.340961 64.210121 
L 223.535945 54.641867 
L 234.73093 279.164946 
L 245.925914 260.80251 
L 257.120898 251.229626 
L 268.315883 249.152954 
L 279.510867 249.14303 
L 290.705851 250.214683 
L 301.900836 251.617867 
L 313.09582 252.899397 
L 324.290804 254.755808 
L 335.485789 256.543669 
L 346.680773 258.20125 
L 357.875757 259.892987 
L 369.070742 261.141346 
L 380.265726 262.624411 
L 391.46071 263.772514 
" clip-path="url(#pae8a4ab30f)" style="fill: none; stroke: #33628d; stroke-width: 1.5; stroke-linecap: square"/>
   </g>
   <g id="line2d_27">
    <path d="M 66.806165 285.082089 
L 78.001149 286.536389 
L 89.196133 288.11294 
L 100.391118 289.734977 
L 111.586102 291.492369 
L 122.781086 293.643613 
L 133.976071 53.88295 
L 145.171055 55.98589 
L 156.366039 58.731383 
L 167.561024 61.298512 
L 178.756008 63.038027 
L 189.950992 64.403818 
L 201.145977 65.706649 
L 212.340961 63.156287 
L 223.535945 54.873784 
L 234.73093 277.803634 
L 245.925914 259.083535 
L 257.120898 251.113551 
L 268.315883 248.168947 
L 279.510867 248.999846 
L 290.705851 250.476655 
L 301.900836 251.717292 
L 313.09582 253.253759 
L 324.290804 254.850637 
L 335.485789 256.389172 
L 346.680773 258.213265 
L 357.875757 259.856719 
L 369.070742 261.343041 
L 380.265726 262.4696 
L 391.46071 263.832695 
" clip-path="url(#pae8a4ab30f)" style="fill: none; stroke: #2f6b8e; stroke-width: 1.5; stroke-linecap: square"/>
   </g>
   <g id="line2d_28">
    <path d="M 66.806165 285.252585 
L 78.001149 286.703978 
L 89.196133 288.214865 
L 100.391118 290.139093 
L 111.586102 291.93306 
L 122.781086 293.633569 
L 133.976071 295.776 
L 145.171055 56.857305 
L 156.366039 58.960043 
L 167.561024 61.234106 
L 178.756008 62.901467 
L 189.950992 64.831074 
L 201.145977 65.720304 
L 212.340961 59.991836 
L 223.535945 289.631711 
L 234.73093 268.819565 
L 245.925914 256.304283 
L 257.120898 250.918648 
L 268.315883 249.11921 
L 279.510867 249.341235 
L 290.705851 250.465726 
L 301.900836 252.089342 
L 313.09582 253.882167 
L 324.290804 255.338667 
L 335.485789 256.782164 
L 346.680773 258.38506 
L 357.875757 259.832727 
L 369.070742 261.23192 
L 380.265726 262.534667 
L 391.46071 263.93832 
" clip-path="url(#pae8a4ab30f)" style="fill: none; stroke: #2c738e; stroke-width: 1.5; stroke-linecap: square"/>
   </g>
   <g id="line2d_29">
    <path d="M 66.806165 285.303451 
L 78.001149 287.060672 
L 89.196133 288.412181 
L 100.391118 290.040498 
L 111.586102 291.951944 
L 122.781086 293.922097 
L 133.976071 54.300924 
L 145.171055 56.635238 
L 156.366039 58.669532 
L 167.561024 61.414721 
L 178.756008 64.028318 
L 189.950992 63.904429 
L 201.145977 57.352621 
L 212.340961 284.188126 
L 223.535945 267.187021 
L 234.73093 256.854697 
L 245.925914 252.4595 
L 257.120898 251.323672 
L 268.315883 251.317432 
L 279.510867 250.472129 
L 290.705851 251.184496 
L 301.900836 252.549749 
L 313.09582 254.50117 
L 324.290804 255.810741 
L 335.485789 256.897314 
L 346.680773 258.298019 
L 357.875757 259.782113 
L 369.070742 261.148895 
L 380.265726 262.577837 
L 391.46071 263.825539 
" clip-path="url(#pae8a4ab30f)" style="fill: none; stroke: #297b8e; stroke-width: 1.5; stroke-linecap: square"/>
   </g>
   <g id="line2d_30">
    <path d="M 66.806165 285.338559 
L 78.001149 286.779923 
L 89.196133 288.3602 
L 100.391118 290.118399 
L 111.586102 291.900394 
L 122.781086 294.132791 
L 133.976071 54.614261 
L 145.171055 56.768241 
L 156.366039 58.670451 
L 167.561024 61.801292 
L 178.756008 61.936842 
L 189.950992 57.21636 
L 201.145977 288.816646 
L 212.340961 271.146995 
L 223.535945 258.472137 
L 234.73093 253.762514 
L 245.925914 252.305402 
L 257.120898 251.366742 
L 268.315883 251.772497 
L 279.510867 251.357179 
L 290.705851 251.780798 
L 301.900836 252.812033 
L 313.09582 254.009581 
L 324.290804 255.814953 
L 335.485789 257.315388 
L 346.680773 258.873274 
L 357.875757 260.220123 
L 369.070742 261.847127 
L 380.265726 262.938792 
L 391.46071 264.059865 
" clip-path="url(#pae8a4ab30f)" style="fill: none; stroke: #25838e; stroke-width: 1.5; stroke-linecap: square"/>
   </g>
   <g id="line2d_31">
    <path d="M 66.806165 285.584759 
L 78.001149 287.316902 
L 89.196133 288.5658 
L 100.391118 290.591919 
L 111.586102 292.512122 
L 122.781086 294.711689 
L 133.976071 54.83754 
L 145.171055 57.18913 
L 156.366039 59.392434 
L 167.561024 60.721331 
L 178.756008 58.27054 
L 189.950992 292.494986 
L 201.145977 279.368657 
L 212.340961 266.070489 
L 223.535945 257.233228 
L 234.73093 253.360774 
L 245.925914 251.777921 
L 257.120898 251.806397 
L 268.315883 252.158674 
L 279.510867 253.134403 
L 290.705851 253.540529 
L 301.900836 253.946055 
L 313.09582 254.682113 
L 324.290804 255.975394 
L 335.485789 257.565135 
L 346.680773 259.16467 
L 357.875757 260.418515 
L 369.070742 261.679559 
L 380.265726 262.90346 
L 391.46071 264.094988 
" clip-path="url(#pae8a4ab30f)" style="fill: none; stroke: #228c8d; stroke-width: 1.5; stroke-linecap: square"/>
   </g>
   <g id="line2d_32">
    <path d="M 66.806165 285.559157 
L 78.001149 287.235418 
L 89.196133 288.876259 
L 100.391118 290.763843 
L 111.586102 292.638894 
L 122.781086 294.966078 
L 133.976071 55.006302 
L 145.171055 57.740516 
L 156.366039 59.875164 
L 167.561024 59.027129 
L 178.756008 293.252144 
L 189.950992 281.613351 
L 201.145977 267.516937 
L 212.340961 256.967422 
L 223.535945 251.968171 
L 234.73093 251.169133 
L 245.925914 251.136315 
L 257.120898 251.593341 
L 268.315883 253.168057 
L 279.510867 253.653282 
L 290.705851 254.304663 
L 301.900836 254.774378 
L 313.09582 255.204352 
L 324.290804 256.118281 
L 335.485789 257.349022 
L 346.680773 259.313802 
L 357.875757 260.401415 
L 369.070742 261.892153 
L 380.265726 263.066773 
L 391.46071 264.299451 
" clip-path="url(#pae8a4ab30f)" style="fill: none; stroke: #1f948c; stroke-width: 1.5; stroke-linecap: square"/>
   </g>
   <g id="line2d_33">
    <path d="M 66.806165 285.963799 
L 78.001149 287.288495 
L 89.196133 288.842579 
L 100.391118 290.842514 
L 111.586102 292.601924 
L 122.781086 295.054765 
L 133.976071 55.980557 
L 145.171055 58.453783 
L 156.366039 60.312339 
L 167.561024 58.098417 
L 178.756008 293.253207 
L 189.950992 277.482077 
L 201.145977 258.135497 
L 212.340961 251.868313 
L 223.535945 250.224155 
L 234.73093 249.912136 
L 245.925914 250.822274 
L 257.120898 251.747971 
L 268.315883 252.450842 
L 279.510867 254.009775 
L 290.705851 255.223711 
L 301.900836 256.304974 
L 313.09582 256.556443 
L 324.290804 257.209034 
L 335.485789 258.11326 
L 346.680773 259.351734 
L 357.875757 260.578011 
L 369.070742 261.989177 
L 380.265726 263.259176 
L 391.46071 264.289231 
" clip-path="url(#pae8a4ab30f)" style="fill: none; stroke: #1e9d89; stroke-width: 1.5; stroke-linecap: square"/>
   </g>
   <g id="line2d_34">
    <path d="M 66.806165 286.033831 
L 78.001149 287.716267 
L 89.196133 289.486072 
L 100.391118 291.384827 
L 111.586102 293.214463 
L 122.781086 54.543033 
L 133.976071 57.271746 
L 145.171055 60.147316 
L 156.366039 60.727755 
L 167.561024 58.06266 
L 178.756008 289.194847 
L 189.950992 267.172355 
L 201.145977 253.904424 
L 212.340961 250.494521 
L 223.535945 249.259046 
L 234.73093 249.751042 
L 245.925914 250.789326 
L 257.120898 252.339971 
L 268.315883 252.798291 
L 279.510867 254.056869 
L 290.705851 255.208306 
L 301.900836 256.301328 
L 313.09582 257.538868 
L 324.290804 258.092422 
L 335.485789 258.539175 
L 346.680773 259.57418 
L 357.875757 260.704397 
L 369.070742 262.219253 
L 380.265726 263.161781 
L 391.46071 264.337565 
" clip-path="url(#pae8a4ab30f)" style="fill: none; stroke: #21a585; stroke-width: 1.5; stroke-linecap: square"/>
   </g>
   <g id="line2d_35">
    <path d="M 66.806165 286.421249 
L 78.001149 288.271376 
L 89.196133 289.500183 
L 100.391118 291.728605 
L 111.586102 294.233265 
L 122.781086 55.202127 
L 133.976071 58.610839 
L 145.171055 61.576977 
L 156.366039 61.788933 
L 167.561024 58.713015 
L 178.756008 279.873744 
L 189.950992 261.336596 
L 201.145977 251.772445 
L 212.340961 249.57086 
L 223.535945 248.78019 
L 234.73093 249.262831 
L 245.925914 250.505153 
L 257.120898 251.975912 
L 268.315883 253.592695 
L 279.510867 254.774936 
L 290.705851 255.13662 
L 301.900836 256.721357 
L 313.09582 258.061253 
L 324.290804 259.028255 
L 335.485789 259.650047 
L 346.680773 260.373387 
L 357.875757 261.137648 
L 369.070742 262.115981 
L 380.265726 263.439347 
L 391.46071 264.646719 
" clip-path="url(#pae8a4ab30f)" style="fill: none; stroke: #26ad81; stroke-width: 1.5; stroke-linecap: square"/>
   </g>
   <g id="line2d_36">
    <path d="M 66.806165 286.764461 
L 78.001149 288.377899 
L 89.196133 290.121669 
L 100.391118 292.497351 
L 111.586102 295.728461 
L 122.781086 57.113165 
L 133.976071 60.279322 
L 145.171055 62.177322 
L 156.366039 63.124358 
L 167.561024 55.751625 
L 178.756008 275.06964 
L 189.950992 258.068198 
L 201.145977 249.64694 
L 212.340961 248.159034 
L 223.535945 248.096481 
L 234.73093 249.177227 
L 245.925914 250.677787 
L 257.120898 252.223254 
L 268.315883 253.427696 
L 279.510867 254.642939 
L 290.705851 256.113091 
L 301.900836 257.272882 
L 313.09582 258.389166 
L 324.290804 259.595149 
L 335.485789 260.516325 
L 346.680773 261.151138 
L 357.875757 261.888491 
L 369.070742 262.775559 
L 380.265726 263.628066 
L 391.46071 264.70123 
" clip-path="url(#pae8a4ab30f)" style="fill: none; stroke: #31b57b; stroke-width: 1.5; stroke-linecap: square"/>
   </g>
   <g id="line2d_37">
    <path d="M 66.806165 287.014803 
L 78.001149 288.695973 
L 89.196133 291.140703 
L 100.391118 293.969009 
L 111.586102 55.072622 
L 122.781086 58.276862 
L 133.976071 61.258326 
L 145.171055 64.132179 
L 156.366039 64.253605 
L 167.561024 295.755719 
L 178.756008 274.856035 
L 189.950992 256.481491 
L 201.145977 249.480772 
L 212.340961 247.767189 
L 223.535945 247.910218 
L 234.73093 249.097765 
L 245.925914 250.590536 
L 257.120898 252.309827 
L 268.315883 253.57783 
L 279.510867 254.822855 
L 290.705851 256.345744 
L 301.900836 257.446669 
L 313.09582 258.755019 
L 324.290804 259.681899 
L 335.485789 260.987192 
L 346.680773 261.844457 
L 357.875757 262.557305 
L 369.070742 263.389689 
L 380.265726 264.010565 
L 391.46071 264.925227 
" clip-path="url(#pae8a4ab30f)" style="fill: none; stroke: #3fbc73; stroke-width: 1.5; stroke-linecap: square"/>
   </g>
   <g id="line2d_38">
    <path d="M 66.806165 287.246492 
L 78.001149 288.832113 
L 89.196133 291.60745 
L 100.391118 294.42464 
L 111.586102 55.660801 
L 122.781086 59.059711 
L 133.976071 62.510115 
L 145.171055 65.488004 
L 156.366039 64.038824 
L 167.561024 54.272481 
L 178.756008 273.563825 
L 189.950992 256.175122 
L 201.145977 248.950756 
L 212.340961 247.081463 
L 223.535945 247.513401 
L 234.73093 248.955661 
L 245.925914 251.026167 
L 257.120898 252.005229 
L 268.315883 253.827989 
L 279.510867 254.808025 
L 290.705851 256.443195 
L 301.900836 257.573084 
L 313.09582 258.896714 
L 324.290804 260.185419 
L 335.485789 261.178736 
L 346.680773 261.968461 
L 357.875757 262.728279 
L 369.070742 263.503121 
L 380.265726 263.94246 
L 391.46071 264.910776 
" clip-path="url(#pae8a4ab30f)" style="fill: none; stroke: #50c46a; stroke-width: 1.5; stroke-linecap: square"/>
   </g>
   <g id="line2d_39">
    <path d="M 66.806165 287.897232 
L 78.001149 290.030803 
L 89.196133 292.703115 
L 100.391118 54.045008 
L 111.586102 57.43834 
L 122.781086 60.836261 
L 133.976071 64.085025 
L 145.171055 66.171111 
L 156.366039 64.186682 
L 167.561024 55.099744 
L 178.756008 274.626697 
L 189.950992 253.530157 
L 201.145977 247.82316 
L 212.340961 246.864286 
L 223.535945 247.605954 
L 234.73093 248.660112 
L 245.925914 250.791185 
L 257.120898 252.049542 
L 268.315883 253.899824 
L 279.510867 255.111285 
L 290.705851 256.845076 
L 301.900836 257.391104 
L 313.09582 258.588564 
L 324.290804 260.18188 
L 335.485789 261.283751 
L 346.680773 262.731339 
L 357.875757 263.323219 
L 369.070742 263.924823 
L 380.265726 264.741003 
L 391.46071 265.279182 
" clip-path="url(#pae8a4ab30f)" style="fill: none; stroke: #63cb5f; stroke-width: 1.5; stroke-linecap: square"/>
   </g>
   <g id="line2d_40">
    <path d="M 66.806165 288.561457 
L 78.001149 290.88082 
L 89.196133 293.708677 
L 100.391118 54.816896 
L 111.586102 58.485636 
L 122.781086 62.093163 
L 133.976071 65.454713 
L 145.171055 66.646013 
L 156.366039 64.222781 
L 167.561024 55.210567 
L 178.756008 271.545793 
L 189.950992 253.833369 
L 201.145977 248.138204 
L 212.340961 246.755336 
L 223.535945 247.316311 
L 234.73093 248.945016 
L 245.925914 250.510352 
L 257.120898 252.256451 
L 268.315883 254.110046 
L 279.510867 255.497467 
L 290.705851 256.755449 
L 301.900836 258.239091 
L 313.09582 259.364195 
L 324.290804 260.386237 
L 335.485789 261.537676 
L 346.680773 262.736899 
L 357.875757 263.775186 
L 369.070742 264.298612 
L 380.265726 264.948982 
L 391.46071 265.592066 
" clip-path="url(#pae8a4ab30f)" style="fill: none; stroke: #77d153; stroke-width: 1.5; stroke-linecap: square"/>
   </g>
   <g id="line2d_41">
    <path d="M 66.806165 289.590134 
L 78.001149 292.147797 
L 89.196133 294.762984 
L 100.391118 56.520635 
L 111.586102 59.704042 
L 122.781086 63.300492 
L 133.976071 65.767416 
L 145.171055 66.753233 
L 156.366039 64.884911 
L 167.561024 54.736034 
L 178.756008 269.209142 
L 189.950992 254.456319 
L 201.145977 247.597576 
L 212.340961 246.645363 
L 223.535945 247.210995 
L 234.73093 248.735812 
L 245.925914 250.201065 
L 257.120898 252.321813 
L 268.315883 253.983488 
L 279.510867 255.34019 
L 290.705851 257.032953 
L 301.900836 258.301083 
L 313.09582 259.552691 
L 324.290804 260.611691 
L 335.485789 261.595828 
L 346.680773 262.695112 
L 357.875757 263.735044 
L 369.070742 264.636852 
L 380.265726 265.214926 
L 391.46071 266.234135 
" clip-path="url(#pae8a4ab30f)" style="fill: none; stroke: #8bd646; stroke-width: 1.5; stroke-linecap: square"/>
   </g>
   <g id="line2d_42">
    <path d="M 66.806165 289.808202 
L 78.001149 292.148873 
L 89.196133 53.998054 
L 100.391118 57.584579 
L 111.586102 61.369603 
L 122.781086 63.827942 
L 133.976071 65.959902 
L 145.171055 67.253381 
L 156.366039 65.598374 
L 167.561024 56.030574 
L 178.756008 269.961685 
L 189.950992 253.931903 
L 201.145977 247.278864 
L 212.340961 246.286599 
L 223.535945 247.111384 
L 234.73093 248.7708 
L 245.925914 250.22631 
L 257.120898 252.090308 
L 268.315883 254.035918 
L 279.510867 255.50404 
L 290.705851 256.880228 
L 301.900836 258.472312 
L 313.09582 259.736022 
L 324.290804 260.76963 
L 335.485789 261.968307 
L 346.680773 263.034966 
L 357.875757 263.982555 
L 369.070742 264.874172 
L 380.265726 265.537781 
L 391.46071 266.269403 
" clip-path="url(#pae8a4ab30f)" style="fill: none; stroke: #a2da37; stroke-width: 1.5; stroke-linecap: square"/>
   </g>
   <g id="line2d_43">
    <path d="M 66.806165 290.217355 
L 78.001149 293.301589 
L 89.196133 54.469592 
L 100.391118 58.25229 
L 111.586102 61.140098 
L 122.781086 63.963785 
L 133.976071 66.010506 
L 145.171055 67.396077 
L 156.366039 65.918321 
L 167.561024 55.709783 
L 178.756008 271.643345 
L 189.950992 252.611389 
L 201.145977 247.322857 
L 212.340961 246.435698 
L 223.535945 247.271277 
L 234.73093 248.821399 
L 245.925914 250.441095 
L 257.120898 251.998894 
L 268.315883 254.011677 
L 279.510867 255.377225 
L 290.705851 257.150815 
L 301.900836 258.422556 
L 313.09582 259.831622 
L 324.290804 261.173854 
L 335.485789 262.470026 
L 346.680773 263.069055 
L 357.875757 264.111289 
L 369.070742 265.349383 
L 380.265726 265.928242 
L 391.46071 266.458833 
" clip-path="url(#pae8a4ab30f)" style="fill: none; stroke: #bade28; stroke-width: 1.5; stroke-linecap: square"/>
   </g>
   <g id="line2d_44">
    <path d="M 66.806165 291.259417 
L 78.001149 294.009779 
L 89.196133 55.082651 
L 100.391118 58.591221 
L 111.586102 61.752018 
L 122.781086 63.948991 
L 133.976071 66.367662 
L 145.171055 67.542562 
L 156.366039 66.145977 
L 167.561024 57.59545 
L 178.756008 274.062334 
L 189.950992 253.136518 
L 201.145977 246.724212 
L 212.340961 246.148107 
L 223.535945 246.977398 
L 234.73093 248.611967 
L 245.925914 250.311511 
L 257.120898 252.233893 
L 268.315883 253.809548 
L 279.510867 255.527973 
L 290.705851 257.153575 
L 301.900836 258.761565 
L 313.09582 259.967644 
L 324.290804 261.114354 
L 335.485789 262.364374 
L 346.680773 263.306972 
L 357.875757 264.247052 
L 369.070742 265.151267 
L 380.265726 266.156357 
L 391.46071 266.939262 
" clip-path="url(#pae8a4ab30f)" style="fill: none; stroke: #d2e21b; stroke-width: 1.5; stroke-linecap: square"/>
   </g>
   <g id="line2d_45">
    <path d="M 66.806165 292.009509 
L 78.001149 294.803236 
L 89.196133 56.06944 
L 100.391118 59.066201 
L 111.586102 61.29302 
L 122.781086 64.124428 
L 133.976071 66.60379 
L 145.171055 68.057365 
L 156.366039 66.712473 
L 167.561024 56.531356 
L 178.756008 274.47539 
L 189.950992 252.560393 
L 201.145977 246.722154 
L 212.340961 245.879061 
L 223.535945 246.925785 
L 234.73093 248.580133 
L 245.925914 250.616887 
L 257.120898 252.264328 
L 268.315883 253.883886 
L 279.510867 255.51394 
L 290.705851 257.008821 
L 301.900836 258.557012 
L 313.09582 259.88401 
L 324.290804 261.225437 
L 335.485789 262.419822 
L 346.680773 263.466461 
L 357.875757 264.490417 
L 369.070742 265.264405 
L 380.265726 266.173567 
L 391.46071 266.937634 
" clip-path="url(#pae8a4ab30f)" style="fill: none; stroke: #eae51a; stroke-width: 1.5; stroke-linecap: square"/>
   </g>
   <g id="line2d_46">
    <path d="M 66.806165 292.627129 
L 78.001149 295.689239 
L 89.196133 56.309992 
L 100.391118 58.749276 
L 111.586102 61.370881 
L 122.781086 64.172131 
L 133.976071 66.6824 
L 145.171055 67.883054 
L 156.366039 66.772284 
L 167.561024 57.883965 
L 178.756008 274.500552 
L 189.950992 252.826685 
L 201.145977 246.642212 
L 212.340961 245.913051 
L 223.535945 246.9471 
L 234.73093 248.594528 
L 245.925914 250.565904 
L 257.120898 252.255814 
L 268.315883 253.964348 
L 279.510867 255.70211 
L 290.705851 257.275451 
L 301.900836 258.651875 
L 313.09582 260.023919 
L 324.290804 261.408194 
L 335.485789 262.387608 
L 346.680773 263.468578 
L 357.875757 264.53767 
L 369.070742 265.860738 
L 380.265726 266.505607 
L 391.46071 267.341111 
" clip-path="url(#pae8a4ab30f)" style="fill: none; stroke: #fde725; stroke-width: 1.5; stroke-linecap: square"/>
   </g>
   <g id="patch_3">
    <path d="M 50.573438 307.872 
L 50.573438 41.76 
" style="fill: none; stroke: #000000; stroke-width: 0.8; stroke-linejoin: miter; stroke-linecap: square"/>
   </g>
   <g id="patch_4">
    <path d="M 407.693438 307.872 
L 407.693438 41.76 
" style="fill: none; stroke: #000000; stroke-width: 0.8; stroke-linejoin: miter; stroke-linecap: square"/>
   </g>
   <g id="patch_5">
    <path d="M 50.573437 307.872 
L 407.693437 307.872 
" style="fill: none; stroke: #000000; stroke-width: 0.8; stroke-linejoin: miter; stroke-linecap: square"/>
   </g>
   <g id="patch_6">
    <path d="M 50.573437 41.76 
L 407.693437 41.76 
" style="fill: none; stroke: #000000; stroke-width: 0.8; stroke-linejoin: miter; stroke-linecap: square"/>
   </g>
   <g id="legend_1">
    <g id="patch_7">
     <path d="M 427.549438 307.872 
L 647.796312 307.872 
Q 649.796312 307.872 649.796312 305.872 
L 649.796312 145.412625 
Q 649.796312 143.412625 647.796312 143.412625 
L 427.549438 143.412625 
Q 425.549438 143.412625 425.549438 145.412625 
L 425.549438 305.872 
Q 425.549438 307.872 427.549438 307.872 
z
" style="fill: #ffffff; opacity: 0.8; stroke: #cccccc; stroke-linejoin: miter"/>
    </g>
    <g id="text_20">
     <!-- Readout pulse amplitude () -->
     <g transform="translate(469.572094 155.011063) scale(0.1 -0.1)">
      <defs>
       <path id="DejaVuSans-52" d="M 2841 2188 
Q 3044 2119 3236 1894 
Q 3428 1669 3622 1275 
L 4263 0 
L 3584 0 
L 2988 1197 
Q 2756 1666 2539 1819 
Q 2322 1972 1947 1972 
L 1259 1972 
L 1259 0 
L 628 0 
L 628 4666 
L 2053 4666 
Q 2853 4666 3247 4331 
Q 3641 3997 3641 3322 
Q 3641 2881 3436 2590 
Q 3231 2300 2841 2188 
z
M 1259 4147 
L 1259 2491 
L 2053 2491 
Q 2509 2491 2742 2702 
Q 2975 2913 2975 3322 
Q 2975 3731 2742 3939 
Q 2509 4147 2053 4147 
L 1259 4147 
z
" transform="scale(0.015625)"/>
       <path id="DejaVuSans-6f" d="M 1959 3097 
Q 1497 3097 1228 2736 
Q 959 2375 959 1747 
Q 959 1119 1226 758 
Q 1494 397 1959 397 
Q 2419 397 2687 759 
Q 2956 1122 2956 1747 
Q 2956 2369 2687 2733 
Q 2419 3097 1959 3097 
z
M 1959 3584 
Q 2709 3584 3137 3096 
Q 3566 2609 3566 1747 
Q 3566 888 3137 398 
Q 2709 -91 1959 -91 
Q 1206 -91 779 398 
Q 353 888 353 1747 
Q 353 2609 779 3096 
Q 1206 3584 1959 3584 
z
" transform="scale(0.015625)"/>
       <path id="DejaVuSans-74" d="M 1172 4494 
L 1172 3500 
L 2356 3500 
L 2356 3053 
L 1172 3053 
L 1172 1153 
Q 1172 725 1289 603 
Q 1406 481 1766 481 
L 2356 481 
L 2356 0 
L 1766 0 
Q 1100 0 847 248 
Q 594 497 594 1153 
L 594 3053 
L 172 3053 
L 172 3500 
L 594 3500 
L 594 4494 
L 1172 4494 
z
" transform="scale(0.015625)"/>
       <path id="DejaVuSans-70" d="M 1159 525 
L 1159 -1331 
L 581 -1331 
L 581 3500 
L 1159 3500 
L 1159 2969 
Q 1341 3281 1617 3432 
Q 1894 3584 2278 3584 
Q 2916 3584 3314 3078 
Q 3713 2572 3713 1747 
Q 3713 922 3314 415 
Q 2916 -91 2278 -91 
Q 1894 -91 1617 61 
Q 1341 213 1159 525 
z
M 3116 1747 
Q 3116 2381 2855 2742 
Q 2594 3103 2138 3103 
Q 1681 3103 1420 2742 
Q 1159 2381 1159 1747 
Q 1159 1113 1420 752 
Q 1681 391 2138 391 
Q 2594 391 2855 752 
Q 3116 1113 3116 1747 
z
" transform="scale(0.015625)"/>
       <path id="DejaVuSans-6c" d="M 603 4863 
L 1178 4863 
L 1178 0 
L 603 0 
L 603 4863 
z
" transform="scale(0.015625)"/>
       <path id="DejaVuSans-6d" d="M 3328 2828 
Q 3544 3216 3844 3400 
Q 4144 3584 4550 3584 
Q 5097 3584 5394 3201 
Q 5691 2819 5691 2113 
L 5691 0 
L 5113 0 
L 5113 2094 
Q 5113 2597 4934 2840 
Q 4756 3084 4391 3084 
Q 3944 3084 3684 2787 
Q 3425 2491 3425 1978 
L 3425 0 
L 2847 0 
L 2847 2094 
Q 2847 2600 2669 2842 
Q 2491 3084 2119 3084 
Q 1678 3084 1418 2786 
Q 1159 2488 1159 1978 
L 1159 0 
L 581 0 
L 581 3500 
L 1159 3500 
L 1159 2956 
Q 1356 3278 1631 3431 
Q 1906 3584 2284 3584 
Q 2666 3584 2933 3390 
Q 3200 3197 3328 2828 
z
" transform="scale(0.015625)"/>
       <path id="DejaVuSans-69" d="M 603 3500 
L 1178 3500 
L 1178 0 
L 603 0 
L 603 3500 
z
M 603 4863 
L 1178 4863 
L 1178 4134 
L 603 4134 
L 603 4863 
z
" transform="scale(0.015625)"/>
       <path id="DejaVuSans-28" d="M 1984 4856 
Q 1566 4138 1362 3434 
Q 1159 2731 1159 2009 
Q 1159 1288 1364 580 
Q 1569 -128 1984 -844 
L 1484 -844 
Q 1016 -109 783 600 
Q 550 1309 550 2009 
Q 550 2706 781 3412 
Q 1013 4119 1484 4856 
L 1984 4856 
z
" transform="scale(0.015625)"/>
       <path id="DejaVuSans-29" d="M 513 4856 
L 1013 4856 
Q 1481 4119 1714 3412 
Q 1947 2706 1947 2009 
Q 1947 1309 1714 600 
Q 1481 -109 1013 -844 
L 513 -844 
Q 928 -128 1133 580 
Q 1338 1288 1338 2009 
Q 1338 2731 1133 3434 
Q 928 4138 513 4856 
z
" transform="scale(0.015625)"/>
      </defs>
      <use xlink:href="#DejaVuSans-52"/>
      <use xlink:href="#DejaVuSans-65" x="64.982422"/>
      <use xlink:href="#DejaVuSans-61" x="126.505859"/>
      <use xlink:href="#DejaVuSans-64" x="187.785156"/>
      <use xlink:href="#DejaVuSans-6f" x="251.261719"/>
      <use xlink:href="#DejaVuSans-75" x="312.443359"/>
      <use xlink:href="#DejaVuSans-74" x="375.822266"/>
      <use xlink:href="#DejaVuSans-20" x="415.03125"/>
      <use xlink:href="#DejaVuSans-70" x="446.818359"/>
      <use xlink:href="#DejaVuSans-75" x="510.294922"/>
      <use xlink:href="#DejaVuSans-6c" x="573.673828"/>
      <use xlink:href="#DejaVuSans-73" x="601.457031"/>
      <use xlink:href="#DejaVuSans-65" x="653.556641"/>
      <use xlink:href="#DejaVuSans-20" x="715.080078"/>
      <use xlink:href="#DejaVuSans-61" x="746.867188"/>
      <use xlink:href="#DejaVuSans-6d" x="808.146484"/>
      <use xlink:href="#DejaVuSans-70" x="905.558594"/>
      <use xlink:href="#DejaVuSans-6c" x="969.035156"/>
      <use xlink:href="#DejaVuSans-69" x="996.818359"/>
      <use xlink:href="#DejaVuSans-74" x="1024.601562"/>
      <use xlink:href="#DejaVuSans-75" x="1063.810547"/>
      <use xlink:href="#DejaVuSans-64" x="1127.189453"/>
      <use xlink:href="#DejaVuSans-65" x="1190.666016"/>
      <use xlink:href="#DejaVuSans-20" x="1252.189453"/>
      <use xlink:href="#DejaVuSans-28" x="1283.976562"/>
      <use xlink:href="#DejaVuSans-29" x="1322.990234"/>
     </g>
    </g>
    <g id="line2d_47">
     <path d="M 429.549438 166.189188 
L 439.549438 166.189188 
L 449.549438 166.189188 
" style="fill: none; stroke: #440154; stroke-width: 1.5; stroke-linecap: square"/>
    </g>
    <g id="text_21">
     <!-- 0.01 -->
     <g transform="translate(457.549438 169.689188) scale(0.1 -0.1)">
      <use xlink:href="#DejaVuSans-30"/>
      <use xlink:href="#DejaVuSans-2e" x="63.623047"/>
      <use xlink:href="#DejaVuSans-30" x="95.410156"/>
      <use xlink:href="#DejaVuSans-31" x="159.033203"/>
     </g>
    </g>
    <g id="line2d_48">
     <path d="M 429.549438 180.867313 
L 439.549438 180.867313 
L 449.549438 180.867313 
" style="fill: none; stroke: #470d60; stroke-width: 1.5; stroke-linecap: square"/>
    </g>
    <g id="text_22">
     <!-- 0.0338 -->
     <g transform="translate(457.549438 184.367313) scale(0.1 -0.1)">
      <defs>
       <path id="DejaVuSans-33" d="M 2597 2516 
Q 3050 2419 3304 2112 
Q 3559 1806 3559 1356 
Q 3559 666 3084 287 
Q 2609 -91 1734 -91 
Q 1441 -91 1130 -33 
Q 819 25 488 141 
L 488 750 
Q 750 597 1062 519 
Q 1375 441 1716 441 
Q 2309 441 2620 675 
Q 2931 909 2931 1356 
Q 2931 1769 2642 2001 
Q 2353 2234 1838 2234 
L 1294 2234 
L 1294 2753 
L 1863 2753 
Q 2328 2753 2575 2939 
Q 2822 3125 2822 3475 
Q 2822 3834 2567 4026 
Q 2313 4219 1838 4219 
Q 1578 4219 1281 4162 
Q 984 4106 628 3988 
L 628 4550 
Q 988 4650 1302 4700 
Q 1616 4750 1894 4750 
Q 2613 4750 3031 4423 
Q 3450 4097 3450 3541 
Q 3450 3153 3228 2886 
Q 3006 2619 2597 2516 
z
" transform="scale(0.015625)"/>
      </defs>
      <use xlink:href="#DejaVuSans-30"/>
      <use xlink:href="#DejaVuSans-2e" x="63.623047"/>
      <use xlink:href="#DejaVuSans-30" x="95.410156"/>
      <use xlink:href="#DejaVuSans-33" x="159.033203"/>
      <use xlink:href="#DejaVuSans-33" x="222.65625"/>
      <use xlink:href="#DejaVuSans-38" x="286.279297"/>
     </g>
    </g>
    <g id="line2d_49">
     <path d="M 429.549438 195.545438 
L 439.549438 195.545438 
L 449.549438 195.545438 
" style="fill: none; stroke: #481a6c; stroke-width: 1.5; stroke-linecap: square"/>
    </g>
    <g id="text_23">
     <!-- 0.0576 -->
     <g transform="translate(457.549438 199.045438) scale(0.1 -0.1)">
      <use xlink:href="#DejaVuSans-30"/>
      <use xlink:href="#DejaVuSans-2e" x="63.623047"/>
      <use xlink:href="#DejaVuSans-30" x="95.410156"/>
      <use xlink:href="#DejaVuSans-35" x="159.033203"/>
      <use xlink:href="#DejaVuSans-37" x="222.65625"/>
      <use xlink:href="#DejaVuSans-36" x="286.279297"/>
     </g>
    </g>
    <g id="line2d_50">
     <path d="M 429.549438 210.223563 
L 439.549438 210.223563 
L 449.549438 210.223563 
" style="fill: none; stroke: #482576; stroke-width: 1.5; stroke-linecap: square"/>
    </g>
    <g id="text_24">
     <!-- 0.0814 -->
     <g transform="translate(457.549438 213.723563) scale(0.1 -0.1)">
      <defs>
       <path id="DejaVuSans-34" d="M 2419 4116 
L 825 1625 
L 2419 1625 
L 2419 4116 
z
M 2253 4666 
L 3047 4666 
L 3047 1625 
L 3713 1625 
L 3713 1100 
L 3047 1100 
L 3047 0 
L 2419 0 
L 2419 1100 
L 313 1100 
L 313 1709 
L 2253 4666 
z
" transform="scale(0.015625)"/>
      </defs>
      <use xlink:href="#DejaVuSans-30"/>
      <use xlink:href="#DejaVuSans-2e" x="63.623047"/>
      <use xlink:href="#DejaVuSans-30" x="95.410156"/>
      <use xlink:href="#DejaVuSans-38" x="159.033203"/>
      <use xlink:href="#DejaVuSans-31" x="222.65625"/>
      <use xlink:href="#DejaVuSans-34" x="286.279297"/>
     </g>
    </g>
    <g id="line2d_51">
     <path d="M 429.549438 224.901688 
L 439.549438 224.901688 
L 449.549438 224.901688 
" style="fill: none; stroke: #46307e; stroke-width: 1.5; stroke-linecap: square"/>
    </g>
    <g id="text_25">
     <!-- 0.105 -->
     <g transform="translate(457.549438 228.401688) scale(0.1 -0.1)">
      <use xlink:href="#DejaVuSans-30"/>
      <use xlink:href="#DejaVuSans-2e" x="63.623047"/>
      <use xlink:href="#DejaVuSans-31" x="95.410156"/>
      <use xlink:href="#DejaVuSans-30" x="159.033203"/>
      <use xlink:href="#DejaVuSans-35" x="222.65625"/>
     </g>
    </g>
    <g id="line2d_52">
     <path d="M 429.549438 239.579813 
L 439.549438 239.579813 
L 449.549438 239.579813 
" style="fill: none; stroke: #443b84; stroke-width: 1.5; stroke-linecap: square"/>
    </g>
    <g id="text_26">
     <!-- 0.129 -->
     <g transform="translate(457.549438 243.079813) scale(0.1 -0.1)">
      <defs>
       <path id="DejaVuSans-32" d="M 1228 531 
L 3431 531 
L 3431 0 
L 469 0 
L 469 531 
Q 828 903 1448 1529 
Q 2069 2156 2228 2338 
Q 2531 2678 2651 2914 
Q 2772 3150 2772 3378 
Q 2772 3750 2511 3984 
Q 2250 4219 1831 4219 
Q 1534 4219 1204 4116 
Q 875 4013 500 3803 
L 500 4441 
Q 881 4594 1212 4672 
Q 1544 4750 1819 4750 
Q 2544 4750 2975 4387 
Q 3406 4025 3406 3419 
Q 3406 3131 3298 2873 
Q 3191 2616 2906 2266 
Q 2828 2175 2409 1742 
Q 1991 1309 1228 531 
z
" transform="scale(0.015625)"/>
      </defs>
      <use xlink:href="#DejaVuSans-30"/>
      <use xlink:href="#DejaVuSans-2e" x="63.623047"/>
      <use xlink:href="#DejaVuSans-31" x="95.410156"/>
      <use xlink:href="#DejaVuSans-32" x="159.033203"/>
      <use xlink:href="#DejaVuSans-39" x="222.65625"/>
     </g>
    </g>
    <g id="line2d_53">
     <path d="M 429.549438 254.257938 
L 439.549438 254.257938 
L 449.549438 254.257938 
" style="fill: none; stroke: #404588; stroke-width: 1.5; stroke-linecap: square"/>
    </g>
    <g id="text_27">
     <!-- 0.153 -->
     <g transform="translate(457.549438 257.757938) scale(0.1 -0.1)">
      <use xlink:href="#DejaVuSans-30"/>
      <use xlink:href="#DejaVuSans-2e" x="63.623047"/>
      <use xlink:href="#DejaVuSans-31" x="95.410156"/>
      <use xlink:href="#DejaVuSans-35" x="159.033203"/>
      <use xlink:href="#DejaVuSans-33" x="222.65625"/>
     </g>
    </g>
    <g id="line2d_54">
     <path d="M 429.549438 268.936062 
L 439.549438 268.936062 
L 449.549438 268.936062 
" style="fill: none; stroke: #3c4f8a; stroke-width: 1.5; stroke-linecap: square"/>
    </g>
    <g id="text_28">
     <!-- 0.177 -->
     <g transform="translate(457.549438 272.436062) scale(0.1 -0.1)">
      <use xlink:href="#DejaVuSans-30"/>
      <use xlink:href="#DejaVuSans-2e" x="63.623047"/>
      <use xlink:href="#DejaVuSans-31" x="95.410156"/>
      <use xlink:href="#DejaVuSans-37" x="159.033203"/>
      <use xlink:href="#DejaVuSans-37" x="222.65625"/>
     </g>
    </g>
    <g id="line2d_55">
     <path d="M 429.549438 283.614188 
L 439.549438 283.614188 
L 449.549438 283.614188 
" style="fill: none; stroke: #38598c; stroke-width: 1.5; stroke-linecap: square"/>
    </g>
    <g id="text_29">
     <!-- 0.2 -->
     <g transform="translate(457.549438 287.114188) scale(0.1 -0.1)">
      <use xlink:href="#DejaVuSans-30"/>
      <use xlink:href="#DejaVuSans-2e" x="63.623047"/>
      <use xlink:href="#DejaVuSans-32" x="95.410156"/>
     </g>
    </g>
    <g id="line2d_56">
     <path d="M 429.549438 298.292312 
L 439.549438 298.292312 
L 449.549438 298.292312 
" style="fill: none; stroke: #33628d; stroke-width: 1.5; stroke-linecap: square"/>
    </g>
    <g id="text_30">
     <!-- 0.224 -->
     <g transform="translate(457.549438 301.792312) scale(0.1 -0.1)">
      <use xlink:href="#DejaVuSans-30"/>
      <use xlink:href="#DejaVuSans-2e" x="63.623047"/>
      <use xlink:href="#DejaVuSans-32" x="95.410156"/>
      <use xlink:href="#DejaVuSans-32" x="159.033203"/>
      <use xlink:href="#DejaVuSans-34" x="222.65625"/>
     </g>
    </g>
    <g id="line2d_57">
     <path d="M 512.540062 166.189188 
L 522.540062 166.189188 
L 532.540062 166.189188 
" style="fill: none; stroke: #2f6b8e; stroke-width: 1.5; stroke-linecap: square"/>
    </g>
    <g id="text_31">
     <!-- 0.248 -->
     <g transform="translate(540.540062 169.689188) scale(0.1 -0.1)">
      <use xlink:href="#DejaVuSans-30"/>
      <use xlink:href="#DejaVuSans-2e" x="63.623047"/>
      <use xlink:href="#DejaVuSans-32" x="95.410156"/>
      <use xlink:href="#DejaVuSans-34" x="159.033203"/>
      <use xlink:href="#DejaVuSans-38" x="222.65625"/>
     </g>
    </g>
    <g id="line2d_58">
     <path d="M 512.540062 180.867313 
L 522.540062 180.867313 
L 532.540062 180.867313 
" style="fill: none; stroke: #2c738e; stroke-width: 1.5; stroke-linecap: square"/>
    </g>
    <g id="text_32">
     <!-- 0.272 -->
     <g transform="translate(540.540062 184.367313) scale(0.1 -0.1)">
      <use xlink:href="#DejaVuSans-30"/>
      <use xlink:href="#DejaVuSans-2e" x="63.623047"/>
      <use xlink:href="#DejaVuSans-32" x="95.410156"/>
      <use xlink:href="#DejaVuSans-37" x="159.033203"/>
      <use xlink:href="#DejaVuSans-32" x="222.65625"/>
     </g>
    </g>
    <g id="line2d_59">
     <path d="M 512.540062 195.545438 
L 522.540062 195.545438 
L 532.540062 195.545438 
" style="fill: none; stroke: #297b8e; stroke-width: 1.5; stroke-linecap: square"/>
    </g>
    <g id="text_33">
     <!-- 0.296 -->
     <g transform="translate(540.540062 199.045438) scale(0.1 -0.1)">
      <use xlink:href="#DejaVuSans-30"/>
      <use xlink:href="#DejaVuSans-2e" x="63.623047"/>
      <use xlink:href="#DejaVuSans-32" x="95.410156"/>
      <use xlink:href="#DejaVuSans-39" x="159.033203"/>
      <use xlink:href="#DejaVuSans-36" x="222.65625"/>
     </g>
    </g>
    <g id="line2d_60">
     <path d="M 512.540062 210.223563 
L 522.540062 210.223563 
L 532.540062 210.223563 
" style="fill: none; stroke: #25838e; stroke-width: 1.5; stroke-linecap: square"/>
    </g>
    <g id="text_34">
     <!-- 0.319 -->
     <g transform="translate(540.540062 213.723563) scale(0.1 -0.1)">
      <use xlink:href="#DejaVuSans-30"/>
      <use xlink:href="#DejaVuSans-2e" x="63.623047"/>
      <use xlink:href="#DejaVuSans-33" x="95.410156"/>
      <use xlink:href="#DejaVuSans-31" x="159.033203"/>
      <use xlink:href="#DejaVuSans-39" x="222.65625"/>
     </g>
    </g>
    <g id="line2d_61">
     <path d="M 512.540062 224.901688 
L 522.540062 224.901688 
L 532.540062 224.901688 
" style="fill: none; stroke: #228c8d; stroke-width: 1.5; stroke-linecap: square"/>
    </g>
    <g id="text_35">
     <!-- 0.343 -->
     <g transform="translate(540.540062 228.401688) scale(0.1 -0.1)">
      <use xlink:href="#DejaVuSans-30"/>
      <use xlink:href="#DejaVuSans-2e" x="63.623047"/>
      <use xlink:href="#DejaVuSans-33" x="95.410156"/>
      <use xlink:href="#DejaVuSans-34" x="159.033203"/>
      <use xlink:href="#DejaVuSans-33" x="222.65625"/>
     </g>
    </g>
    <g id="line2d_62">
     <path d="M 512.540062 239.579813 
L 522.540062 239.579813 
L 532.540062 239.579813 
" style="fill: none; stroke: #1f948c; stroke-width: 1.5; stroke-linecap: square"/>
    </g>
    <g id="text_36">
     <!-- 0.367 -->
     <g transform="translate(540.540062 243.079813) scale(0.1 -0.1)">
      <use xlink:href="#DejaVuSans-30"/>
      <use xlink:href="#DejaVuSans-2e" x="63.623047"/>
      <use xlink:href="#DejaVuSans-33" x="95.410156"/>
      <use xlink:href="#DejaVuSans-36" x="159.033203"/>
      <use xlink:href="#DejaVuSans-37" x="222.65625"/>
     </g>
    </g>
    <g id="line2d_63">
     <path d="M 512.540062 254.257938 
L 522.540062 254.257938 
L 532.540062 254.257938 
" style="fill: none; stroke: #1e9d89; stroke-width: 1.5; stroke-linecap: square"/>
    </g>
    <g id="text_37">
     <!-- 0.391 -->
     <g transform="translate(540.540062 257.757938) scale(0.1 -0.1)">
      <use xlink:href="#DejaVuSans-30"/>
      <use xlink:href="#DejaVuSans-2e" x="63.623047"/>
      <use xlink:href="#DejaVuSans-33" x="95.410156"/>
      <use xlink:href="#DejaVuSans-39" x="159.033203"/>
      <use xlink:href="#DejaVuSans-31" x="222.65625"/>
     </g>
    </g>
    <g id="line2d_64">
     <path d="M 512.540062 268.936062 
L 522.540062 268.936062 
L 532.540062 268.936062 
" style="fill: none; stroke: #21a585; stroke-width: 1.5; stroke-linecap: square"/>
    </g>
    <g id="text_38">
     <!-- 0.414 -->
     <g transform="translate(540.540062 272.436062) scale(0.1 -0.1)">
      <use xlink:href="#DejaVuSans-30"/>
      <use xlink:href="#DejaVuSans-2e" x="63.623047"/>
      <use xlink:href="#DejaVuSans-34" x="95.410156"/>
      <use xlink:href="#DejaVuSans-31" x="159.033203"/>
      <use xlink:href="#DejaVuSans-34" x="222.65625"/>
     </g>
    </g>
    <g id="line2d_65">
     <path d="M 512.540062 283.614188 
L 522.540062 283.614188 
L 532.540062 283.614188 
" style="fill: none; stroke: #26ad81; stroke-width: 1.5; stroke-linecap: square"/>
    </g>
    <g id="text_39">
     <!-- 0.438 -->
     <g transform="translate(540.540062 287.114188) scale(0.1 -0.1)">
      <use xlink:href="#DejaVuSans-30"/>
      <use xlink:href="#DejaVuSans-2e" x="63.623047"/>
      <use xlink:href="#DejaVuSans-34" x="95.410156"/>
      <use xlink:href="#DejaVuSans-33" x="159.033203"/>
      <use xlink:href="#DejaVuSans-38" x="222.65625"/>
     </g>
    </g>
    <g id="line2d_66">
     <path d="M 512.540062 298.292312 
L 522.540062 298.292312 
L 532.540062 298.292312 
" style="fill: none; stroke: #31b57b; stroke-width: 1.5; stroke-linecap: square"/>
    </g>
    <g id="text_40">
     <!-- 0.462 -->
     <g transform="translate(540.540062 301.792312) scale(0.1 -0.1)">
      <use xlink:href="#DejaVuSans-30"/>
      <use xlink:href="#DejaVuSans-2e" x="63.623047"/>
      <use xlink:href="#DejaVuSans-34" x="95.410156"/>
      <use xlink:href="#DejaVuSans-36" x="159.033203"/>
      <use xlink:href="#DejaVuSans-32" x="222.65625"/>
     </g>
    </g>
    <g id="line2d_67">
     <path d="M 589.168187 166.189188 
L 599.168187 166.189188 
L 609.168187 166.189188 
" style="fill: none; stroke: #3fbc73; stroke-width: 1.5; stroke-linecap: square"/>
    </g>
    <g id="text_41">
     <!-- 0.486 -->
     <g transform="translate(617.168187 169.689188) scale(0.1 -0.1)">
      <use xlink:href="#DejaVuSans-30"/>
      <use xlink:href="#DejaVuSans-2e" x="63.623047"/>
      <use xlink:href="#DejaVuSans-34" x="95.410156"/>
      <use xlink:href="#DejaVuSans-38" x="159.033203"/>
      <use xlink:href="#DejaVuSans-36" x="222.65625"/>
     </g>
    </g>
    <g id="line2d_68">
     <path d="M 589.168187 180.867313 
L 599.168187 180.867313 
L 609.168187 180.867313 
" style="fill: none; stroke: #50c46a; stroke-width: 1.5; stroke-linecap: square"/>
    </g>
    <g id="text_42">
     <!-- 0.51 -->
     <g transform="translate(617.168187 184.367313) scale(0.1 -0.1)">
      <use xlink:href="#DejaVuSans-30"/>
      <use xlink:href="#DejaVuSans-2e" x="63.623047"/>
      <use xlink:href="#DejaVuSans-35" x="95.410156"/>
      <use xlink:href="#DejaVuSans-31" x="159.033203"/>
     </g>
    </g>
    <g id="line2d_69">
     <path d="M 589.168187 195.545438 
L 599.168187 195.545438 
L 609.168187 195.545438 
" style="fill: none; stroke: #63cb5f; stroke-width: 1.5; stroke-linecap: square"/>
    </g>
    <g id="text_43">
     <!-- 0.533 -->
     <g transform="translate(617.168187 199.045438) scale(0.1 -0.1)">
      <use xlink:href="#DejaVuSans-30"/>
      <use xlink:href="#DejaVuSans-2e" x="63.623047"/>
      <use xlink:href="#DejaVuSans-35" x="95.410156"/>
      <use xlink:href="#DejaVuSans-33" x="159.033203"/>
      <use xlink:href="#DejaVuSans-33" x="222.65625"/>
     </g>
    </g>
    <g id="line2d_70">
     <path d="M 589.168187 210.223563 
L 599.168187 210.223563 
L 609.168187 210.223563 
" style="fill: none; stroke: #77d153; stroke-width: 1.5; stroke-linecap: square"/>
    </g>
    <g id="text_44">
     <!-- 0.557 -->
     <g transform="translate(617.168187 213.723563) scale(0.1 -0.1)">
      <use xlink:href="#DejaVuSans-30"/>
      <use xlink:href="#DejaVuSans-2e" x="63.623047"/>
      <use xlink:href="#DejaVuSans-35" x="95.410156"/>
      <use xlink:href="#DejaVuSans-35" x="159.033203"/>
      <use xlink:href="#DejaVuSans-37" x="222.65625"/>
     </g>
    </g>
    <g id="line2d_71">
     <path d="M 589.168187 224.901688 
L 599.168187 224.901688 
L 609.168187 224.901688 
" style="fill: none; stroke: #8bd646; stroke-width: 1.5; stroke-linecap: square"/>
    </g>
    <g id="text_45">
     <!-- 0.581 -->
     <g transform="translate(617.168187 228.401688) scale(0.1 -0.1)">
      <use xlink:href="#DejaVuSans-30"/>
      <use xlink:href="#DejaVuSans-2e" x="63.623047"/>
      <use xlink:href="#DejaVuSans-35" x="95.410156"/>
      <use xlink:href="#DejaVuSans-38" x="159.033203"/>
      <use xlink:href="#DejaVuSans-31" x="222.65625"/>
     </g>
    </g>
    <g id="line2d_72">
     <path d="M 589.168187 239.579813 
L 599.168187 239.579813 
L 609.168187 239.579813 
" style="fill: none; stroke: #a2da37; stroke-width: 1.5; stroke-linecap: square"/>
    </g>
    <g id="text_46">
     <!-- 0.605 -->
     <g transform="translate(617.168187 243.079813) scale(0.1 -0.1)">
      <use xlink:href="#DejaVuSans-30"/>
      <use xlink:href="#DejaVuSans-2e" x="63.623047"/>
      <use xlink:href="#DejaVuSans-36" x="95.410156"/>
      <use xlink:href="#DejaVuSans-30" x="159.033203"/>
      <use xlink:href="#DejaVuSans-35" x="222.65625"/>
     </g>
    </g>
    <g id="line2d_73">
     <path d="M 589.168187 254.257938 
L 599.168187 254.257938 
L 609.168187 254.257938 
" style="fill: none; stroke: #bade28; stroke-width: 1.5; stroke-linecap: square"/>
    </g>
    <g id="text_47">
     <!-- 0.629 -->
     <g transform="translate(617.168187 257.757938) scale(0.1 -0.1)">
      <use xlink:href="#DejaVuSans-30"/>
      <use xlink:href="#DejaVuSans-2e" x="63.623047"/>
      <use xlink:href="#DejaVuSans-36" x="95.410156"/>
      <use xlink:href="#DejaVuSans-32" x="159.033203"/>
      <use xlink:href="#DejaVuSans-39" x="222.65625"/>
     </g>
    </g>
    <g id="line2d_74">
     <path d="M 589.168187 268.936062 
L 599.168187 268.936062 
L 609.168187 268.936062 
" style="fill: none; stroke: #d2e21b; stroke-width: 1.5; stroke-linecap: square"/>
    </g>
    <g id="text_48">
     <!-- 0.652 -->
     <g transform="translate(617.168187 272.436062) scale(0.1 -0.1)">
      <use xlink:href="#DejaVuSans-30"/>
      <use xlink:href="#DejaVuSans-2e" x="63.623047"/>
      <use xlink:href="#DejaVuSans-36" x="95.410156"/>
      <use xlink:href="#DejaVuSans-35" x="159.033203"/>
      <use xlink:href="#DejaVuSans-32" x="222.65625"/>
     </g>
    </g>
    <g id="line2d_75">
     <path d="M 589.168187 283.614188 
L 599.168187 283.614188 
L 609.168187 283.614188 
" style="fill: none; stroke: #eae51a; stroke-width: 1.5; stroke-linecap: square"/>
    </g>
    <g id="text_49">
     <!-- 0.676 -->
     <g transform="translate(617.168187 287.114188) scale(0.1 -0.1)">
      <use xlink:href="#DejaVuSans-30"/>
      <use xlink:href="#DejaVuSans-2e" x="63.623047"/>
      <use xlink:href="#DejaVuSans-36" x="95.410156"/>
      <use xlink:href="#DejaVuSans-37" x="159.033203"/>
      <use xlink:href="#DejaVuSans-36" x="222.65625"/>
     </g>
    </g>
    <g id="line2d_76">
     <path d="M 589.168187 298.292312 
L 599.168187 298.292312 
L 609.168187 298.292312 
" style="fill: none; stroke: #fde725; stroke-width: 1.5; stroke-linecap: square"/>
    </g>
    <g id="text_50">
     <!-- 0.7 -->
     <g transform="translate(617.168187 301.792312) scale(0.1 -0.1)">
      <use xlink:href="#DejaVuSans-30"/>
      <use xlink:href="#DejaVuSans-2e" x="63.623047"/>
      <use xlink:href="#DejaVuSans-37" x="95.410156"/>
     </g>
    </g>
   </g>
  </g>
  <g id="text_51">
   <!-- x0x1-y1 resonator punchout -->
   <g transform="translate(138.2625 16.318125) scale(0.12 -0.12)">
    <defs>
     <path id="DejaVuSans-78" d="M 3513 3500 
L 2247 1797 
L 3578 0 
L 2900 0 
L 1881 1375 
L 863 0 
L 184 0 
L 1544 1831 
L 300 3500 
L 978 3500 
L 1906 2253 
L 2834 3500 
L 3513 3500 
z
" transform="scale(0.015625)"/>
    </defs>
    <use xlink:href="#DejaVuSans-78"/>
    <use xlink:href="#DejaVuSans-30" x="59.179688"/>
    <use xlink:href="#DejaVuSans-78" x="122.802734"/>
    <use xlink:href="#DejaVuSans-31" x="181.982422"/>
    <use xlink:href="#DejaVuSans-2d" x="245.605469"/>
    <use xlink:href="#DejaVuSans-79" x="279.939453"/>
    <use xlink:href="#DejaVuSans-31" x="339.119141"/>
    <use xlink:href="#DejaVuSans-20" x="402.742188"/>
    <use xlink:href="#DejaVuSans-72" x="434.529297"/>
    <use xlink:href="#DejaVuSans-65" x="473.392578"/>
    <use xlink:href="#DejaVuSans-73" x="534.916016"/>
    <use xlink:href="#DejaVuSans-6f" x="587.015625"/>
    <use xlink:href="#DejaVuSans-6e" x="648.197266"/>
    <use xlink:href="#DejaVuSans-61" x="711.576172"/>
    <use xlink:href="#DejaVuSans-74" x="772.855469"/>
    <use xlink:href="#DejaVuSans-6f" x="812.064453"/>
    <use xlink:href="#DejaVuSans-72" x="873.246094"/>
    <use xlink:href="#DejaVuSans-20" x="914.359375"/>
    <use xlink:href="#DejaVuSans-70" x="946.146484"/>
    <use xlink:href="#DejaVuSans-75" x="1009.623047"/>
    <use xlink:href="#DejaVuSans-6e" x="1073.001953"/>
    <use xlink:href="#DejaVuSans-63" x="1136.380859"/>
    <use xlink:href="#DejaVuSans-68" x="1191.361328"/>
    <use xlink:href="#DejaVuSans-6f" x="1254.740234"/>
    <use xlink:href="#DejaVuSans-75" x="1315.921875"/>
    <use xlink:href="#DejaVuSans-74" x="1379.300781"/>
   </g>
   <!-- tuid: 20231227-190437-981-7904f4 -->
   <g transform="translate(115.223438 29.7555) scale(0.12 -0.12)">
    <defs>
     <path id="DejaVuSans-3a" d="M 750 794 
L 1409 794 
L 1409 0 
L 750 0 
L 750 794 
z
M 750 3309 
L 1409 3309 
L 1409 2516 
L 750 2516 
L 750 3309 
z
" transform="scale(0.015625)"/>
     <path id="DejaVuSans-66" d="M 2375 4863 
L 2375 4384 
L 1825 4384 
Q 1516 4384 1395 4259 
Q 1275 4134 1275 3809 
L 1275 3500 
L 2222 3500 
L 2222 3053 
L 1275 3053 
L 1275 0 
L 697 0 
L 697 3053 
L 147 3053 
L 147 3500 
L 697 3500 
L 697 3744 
Q 697 4328 969 4595 
Q 1241 4863 1831 4863 
L 2375 4863 
z
" transform="scale(0.015625)"/>
    </defs>
    <use xlink:href="#DejaVuSans-74"/>
    <use xlink:href="#DejaVuSans-75" x="39.208984"/>
    <use xlink:href="#DejaVuSans-69" x="102.587891"/>
    <use xlink:href="#DejaVuSans-64" x="130.371094"/>
    <use xlink:href="#DejaVuSans-3a" x="193.847656"/>
    <use xlink:href="#DejaVuSans-20" x="227.539062"/>
    <use xlink:href="#DejaVuSans-32" x="259.326172"/>
    <use xlink:href="#DejaVuSans-30" x="322.949219"/>
    <use xlink:href="#DejaVuSans-32" x="386.572266"/>
    <use xlink:href="#DejaVuSans-33" x="450.195312"/>
    <use xlink:href="#DejaVuSans-31" x="513.818359"/>
    <use xlink:href="#DejaVuSans-32" x="577.441406"/>
    <use xlink:href="#DejaVuSans-32" x="641.064453"/>
    <use xlink:href="#DejaVuSans-37" x="704.6875"/>
    <use xlink:href="#DejaVuSans-2d" x="768.310547"/>
    <use xlink:href="#DejaVuSans-31" x="804.394531"/>
    <use xlink:href="#DejaVuSans-39" x="868.017578"/>
    <use xlink:href="#DejaVuSans-30" x="931.640625"/>
    <use xlink:href="#DejaVuSans-34" x="995.263672"/>
    <use xlink:href="#DejaVuSans-33" x="1058.886719"/>
    <use xlink:href="#DejaVuSans-37" x="1122.509766"/>
    <use xlink:href="#DejaVuSans-2d" x="1186.132812"/>
    <use xlink:href="#DejaVuSans-39" x="1222.216797"/>
    <use xlink:href="#DejaVuSans-38" x="1285.839844"/>
    <use xlink:href="#DejaVuSans-31" x="1349.462891"/>
    <use xlink:href="#DejaVuSans-2d" x="1413.085938"/>
    <use xlink:href="#DejaVuSans-37" x="1449.169922"/>
    <use xlink:href="#DejaVuSans-39" x="1512.792969"/>
    <use xlink:href="#DejaVuSans-30" x="1576.416016"/>
    <use xlink:href="#DejaVuSans-34" x="1640.039062"/>
    <use xlink:href="#DejaVuSans-66" x="1703.662109"/>
    <use xlink:href="#DejaVuSans-34" x="1738.867188"/>
   </g>
  </g>
 </g>
 <defs>
  <clipPath id="pae8a4ab30f">
   <rect x="50.573438" y="41.76" width="357.12" height="266.112"/>
  </clipPath>
 </defs>
</svg>
