<?xml version="1.0" encoding="utf-8" standalone="no"?>
<!DOCTYPE svg PUBLIC "-//W3C//DTD SVG 1.1//EN"
  "http://www.w3.org/Graphics/SVG/1.1/DTD/svg11.dtd">
<svg xmlns:xlink="http://www.w3.org/1999/xlink" width="565.224437pt" height="345.42825pt" viewBox="0 0 565.224437 345.42825" xmlns="http://www.w3.org/2000/svg" version="1.1">
 <metadata>
  <rdf:RDF xmlns:dc="http://purl.org/dc/elements/1.1/" xmlns:cc="http://creativecommons.org/ns#" xmlns:rdf="http://www.w3.org/1999/02/22-rdf-syntax-ns#">
   <cc:Work>
    <dc:type rdf:resource="http://purl.org/dc/dcmitype/StillImage"/>
    <dc:date>2023-12-27T18:51:23.242086</dc:date>
    <dc:format>image/svg+xml</dc:format>
    <dc:creator>
     <cc:Agent>
      <dc:title>Matplotlib v3.8.2, https://matplotlib.org/</dc:title>
     </cc:Agent>
    </dc:creator>
   </cc:Work>
  </rdf:RDF>
 </metadata>
 <defs>
  <style type="text/css">*{stroke-linejoin: round; stroke-linecap: butt}</style>
 </defs>
 <g id="figure_1">
  <g id="patch_1">
   <path d="M 0 345.42825 
L 565.224437 345.42825 
L 565.224437 -0 
L 0 -0 
L 0 345.42825 
z
" style="fill: none; opacity: 0"/>
  </g>
  <g id="axes_1">
   <g id="patch_2">
    <path d="M 37.848438 307.872 
L 394.968438 307.872 
L 394.968438 41.76 
L 37.848438 41.76 
z
" style="fill: #ffffff"/>
   </g>
   <g id="matplotlib.axis_1">
    <g id="xtick_1">
     <g id="line2d_1">
      <defs>
       <path id="m61eccd820a" d="M 0 0 
L 0 3.5 
" style="stroke: #000000; stroke-width: 0.8"/>
      </defs>
      <g>
       <use xlink:href="#m61eccd820a" x="65.338309" y="307.872" style="stroke: #000000; stroke-width: 0.8"/>
      </g>
     </g>
     <g id="text_1">
      <!-- -7 -->
      <g transform="translate(60.353153 322.470438) scale(0.1 -0.1)">
       <defs>
        <path id="DejaVuSans-2d" d="M 313 2009 
L 1997 2009 
L 1997 1497 
L 313 1497 
L 313 2009 
z
" transform="scale(0.015625)"/>
        <path id="DejaVuSans-37" d="M 525 4666 
L 3525 4666 
L 3525 4397 
L 1831 0 
L 1172 0 
L 2766 4134 
L 525 4134 
L 525 4666 
z
" transform="scale(0.015625)"/>
       </defs>
       <use xlink:href="#DejaVuSans-2d"/>
       <use xlink:href="#DejaVuSans-37" x="36.083984"/>
      </g>
     </g>
    </g>
    <g id="xtick_2">
     <g id="line2d_2">
      <g>
       <use xlink:href="#m61eccd820a" x="112.225475" y="307.872" style="stroke: #000000; stroke-width: 0.8"/>
      </g>
     </g>
     <g id="text_2">
      <!-- -6 -->
      <g transform="translate(107.240319 322.470438) scale(0.1 -0.1)">
       <defs>
        <path id="DejaVuSans-36" d="M 2113 2584 
Q 1688 2584 1439 2293 
Q 1191 2003 1191 1497 
Q 1191 994 1439 701 
Q 1688 409 2113 409 
Q 2538 409 2786 701 
Q 3034 994 3034 1497 
Q 3034 2003 2786 2293 
Q 2538 2584 2113 2584 
z
M 3366 4563 
L 3366 3988 
Q 3128 4100 2886 4159 
Q 2644 4219 2406 4219 
Q 1781 4219 1451 3797 
Q 1122 3375 1075 2522 
Q 1259 2794 1537 2939 
Q 1816 3084 2150 3084 
Q 2853 3084 3261 2657 
Q 3669 2231 3669 1497 
Q 3669 778 3244 343 
Q 2819 -91 2113 -91 
Q 1303 -91 875 529 
Q 447 1150 447 2328 
Q 447 3434 972 4092 
Q 1497 4750 2381 4750 
Q 2619 4750 2861 4703 
Q 3103 4656 3366 4563 
z
" transform="scale(0.015625)"/>
       </defs>
       <use xlink:href="#DejaVuSans-2d"/>
       <use xlink:href="#DejaVuSans-36" x="36.083984"/>
      </g>
     </g>
    </g>
    <g id="xtick_3">
     <g id="line2d_3">
      <g>
       <use xlink:href="#m61eccd820a" x="159.112641" y="307.872" style="stroke: #000000; stroke-width: 0.8"/>
      </g>
     </g>
     <g id="text_3">
      <!-- -5 -->
      <g transform="translate(154.127485 322.470438) scale(0.1 -0.1)">
       <defs>
        <path id="DejaVuSans-35" d="M 691 4666 
L 3169 4666 
L 3169 4134 
L 1269 4134 
L 1269 2991 
Q 1406 3038 1543 3061 
Q 1681 3084 1819 3084 
Q 2600 3084 3056 2656 
Q 3513 2228 3513 1497 
Q 3513 744 3044 326 
Q 2575 -91 1722 -91 
Q 1428 -91 1123 -41 
Q 819 9 494 109 
L 494 744 
Q 775 591 1075 516 
Q 1375 441 1709 441 
Q 2250 441 2565 725 
Q 2881 1009 2881 1497 
Q 2881 1984 2565 2268 
Q 2250 2553 1709 2553 
Q 1456 2553 1204 2497 
Q 953 2441 691 2322 
L 691 4666 
z
" transform="scale(0.015625)"/>
       </defs>
       <use xlink:href="#DejaVuSans-2d"/>
       <use xlink:href="#DejaVuSans-35" x="36.083984"/>
      </g>
     </g>
    </g>
    <g id="xtick_4">
     <g id="line2d_4">
      <g>
       <use xlink:href="#m61eccd820a" x="205.999807" y="307.872" style="stroke: #000000; stroke-width: 0.8"/>
      </g>
     </g>
     <g id="text_4">
      <!-- -4 -->
      <g transform="translate(201.014651 322.470438) scale(0.1 -0.1)">
       <defs>
        <path id="DejaVuSans-34" d="M 2419 4116 
L 825 1625 
L 2419 1625 
L 2419 4116 
z
M 2253 4666 
L 3047 4666 
L 3047 1625 
L 3713 1625 
L 3713 1100 
L 3047 1100 
L 3047 0 
L 2419 0 
L 2419 1100 
L 313 1100 
L 313 1709 
L 2253 4666 
z
" transform="scale(0.015625)"/>
       </defs>
       <use xlink:href="#DejaVuSans-2d"/>
       <use xlink:href="#DejaVuSans-34" x="36.083984"/>
      </g>
     </g>
    </g>
    <g id="xtick_5">
     <g id="line2d_5">
      <g>
       <use xlink:href="#m61eccd820a" x="252.886973" y="307.872" style="stroke: #000000; stroke-width: 0.8"/>
      </g>
     </g>
     <g id="text_5">
      <!-- -3 -->
      <g transform="translate(247.901817 322.470438) scale(0.1 -0.1)">
       <defs>
        <path id="DejaVuSans-33" d="M 2597 2516 
Q 3050 2419 3304 2112 
Q 3559 1806 3559 1356 
Q 3559 666 3084 287 
Q 2609 -91 1734 -91 
Q 1441 -91 1130 -33 
Q 819 25 488 141 
L 488 750 
Q 750 597 1062 519 
Q 1375 441 1716 441 
Q 2309 441 2620 675 
Q 2931 909 2931 1356 
Q 2931 1769 2642 2001 
Q 2353 2234 1838 2234 
L 1294 2234 
L 1294 2753 
L 1863 2753 
Q 2328 2753 2575 2939 
Q 2822 3125 2822 3475 
Q 2822 3834 2567 4026 
Q 2313 4219 1838 4219 
Q 1578 4219 1281 4162 
Q 984 4106 628 3988 
L 628 4550 
Q 988 4650 1302 4700 
Q 1616 4750 1894 4750 
Q 2613 4750 3031 4423 
Q 3450 4097 3450 3541 
Q 3450 3153 3228 2886 
Q 3006 2619 2597 2516 
z
" transform="scale(0.015625)"/>
       </defs>
       <use xlink:href="#DejaVuSans-2d"/>
       <use xlink:href="#DejaVuSans-33" x="36.083984"/>
      </g>
     </g>
    </g>
    <g id="xtick_6">
     <g id="line2d_6">
      <g>
       <use xlink:href="#m61eccd820a" x="299.774139" y="307.872" style="stroke: #000000; stroke-width: 0.8"/>
      </g>
     </g>
     <g id="text_6">
      <!-- -2 -->
      <g transform="translate(294.788983 322.470438) scale(0.1 -0.1)">
       <defs>
        <path id="DejaVuSans-32" d="M 1228 531 
L 3431 531 
L 3431 0 
L 469 0 
L 469 531 
Q 828 903 1448 1529 
Q 2069 2156 2228 2338 
Q 2531 2678 2651 2914 
Q 2772 3150 2772 3378 
Q 2772 3750 2511 3984 
Q 2250 4219 1831 4219 
Q 1534 4219 1204 4116 
Q 875 4013 500 3803 
L 500 4441 
Q 881 4594 1212 4672 
Q 1544 4750 1819 4750 
Q 2544 4750 2975 4387 
Q 3406 4025 3406 3419 
Q 3406 3131 3298 2873 
Q 3191 2616 2906 2266 
Q 2828 2175 2409 1742 
Q 1991 1309 1228 531 
z
" transform="scale(0.015625)"/>
       </defs>
       <use xlink:href="#DejaVuSans-2d"/>
       <use xlink:href="#DejaVuSans-32" x="36.083984"/>
      </g>
     </g>
    </g>
    <g id="xtick_7">
     <g id="line2d_7">
      <g>
       <use xlink:href="#m61eccd820a" x="346.661305" y="307.872" style="stroke: #000000; stroke-width: 0.8"/>
      </g>
     </g>
     <g id="text_7">
      <!-- -1 -->
      <g transform="translate(341.676149 322.470438) scale(0.1 -0.1)">
       <defs>
        <path id="DejaVuSans-31" d="M 794 531 
L 1825 531 
L 1825 4091 
L 703 3866 
L 703 4441 
L 1819 4666 
L 2450 4666 
L 2450 531 
L 3481 531 
L 3481 0 
L 794 0 
L 794 531 
z
" transform="scale(0.015625)"/>
       </defs>
       <use xlink:href="#DejaVuSans-2d"/>
       <use xlink:href="#DejaVuSans-31" x="36.083984"/>
      </g>
     </g>
    </g>
    <g id="xtick_8">
     <g id="line2d_8">
      <g>
       <use xlink:href="#m61eccd820a" x="393.548471" y="307.872" style="stroke: #000000; stroke-width: 0.8"/>
      </g>
     </g>
     <g id="text_8">
      <!-- 0 -->
      <g transform="translate(390.367221 322.470438) scale(0.1 -0.1)">
       <defs>
        <path id="DejaVuSans-30" d="M 2034 4250 
Q 1547 4250 1301 3770 
Q 1056 3291 1056 2328 
Q 1056 1369 1301 889 
Q 1547 409 2034 409 
Q 2525 409 2770 889 
Q 3016 1369 3016 2328 
Q 3016 3291 2770 3770 
Q 2525 4250 2034 4250 
z
M 2034 4750 
Q 2819 4750 3233 4129 
Q 3647 3509 3647 2328 
Q 3647 1150 3233 529 
Q 2819 -91 2034 -91 
Q 1250 -91 836 529 
Q 422 1150 422 2328 
Q 422 3509 836 4129 
Q 1250 4750 2034 4750 
z
" transform="scale(0.015625)"/>
       </defs>
       <use xlink:href="#DejaVuSans-30"/>
      </g>
     </g>
    </g>
    <g id="text_9">
     <!-- Re$(S_{21})$ [mV] -->
     <g transform="translate(184.408438 336.148562) scale(0.1 -0.1)">
      <defs>
       <path id="DejaVuSans-52" d="M 2841 2188 
Q 3044 2119 3236 1894 
Q 3428 1669 3622 1275 
L 4263 0 
L 3584 0 
L 2988 1197 
Q 2756 1666 2539 1819 
Q 2322 1972 1947 1972 
L 1259 1972 
L 1259 0 
L 628 0 
L 628 4666 
L 2053 4666 
Q 2853 4666 3247 4331 
Q 3641 3997 3641 3322 
Q 3641 2881 3436 2590 
Q 3231 2300 2841 2188 
z
M 1259 4147 
L 1259 2491 
L 2053 2491 
Q 2509 2491 2742 2702 
Q 2975 2913 2975 3322 
Q 2975 3731 2742 3939 
Q 2509 4147 2053 4147 
L 1259 4147 
z
" transform="scale(0.015625)"/>
       <path id="DejaVuSans-65" d="M 3597 1894 
L 3597 1613 
L 953 1613 
Q 991 1019 1311 708 
Q 1631 397 2203 397 
Q 2534 397 2845 478 
Q 3156 559 3463 722 
L 3463 178 
Q 3153 47 2828 -22 
Q 2503 -91 2169 -91 
Q 1331 -91 842 396 
Q 353 884 353 1716 
Q 353 2575 817 3079 
Q 1281 3584 2069 3584 
Q 2775 3584 3186 3129 
Q 3597 2675 3597 1894 
z
M 3022 2063 
Q 3016 2534 2758 2815 
Q 2500 3097 2075 3097 
Q 1594 3097 1305 2825 
Q 1016 2553 972 2059 
L 3022 2063 
z
" transform="scale(0.015625)"/>
       <path id="DejaVuSans-28" d="M 1984 4856 
Q 1566 4138 1362 3434 
Q 1159 2731 1159 2009 
Q 1159 1288 1364 580 
Q 1569 -128 1984 -844 
L 1484 -844 
Q 1016 -109 783 600 
Q 550 1309 550 2009 
Q 550 2706 781 3412 
Q 1013 4119 1484 4856 
L 1984 4856 
z
" transform="scale(0.015625)"/>
       <path id="DejaVuSans-Oblique-53" d="M 3859 4513 
L 3738 3897 
Q 3422 4066 3111 4152 
Q 2800 4238 2509 4238 
Q 1944 4238 1609 3991 
Q 1275 3744 1275 3334 
Q 1275 3109 1398 2989 
Q 1522 2869 2034 2731 
L 2413 2638 
Q 3053 2472 3303 2217 
Q 3553 1963 3553 1503 
Q 3553 797 2998 353 
Q 2444 -91 1538 -91 
Q 1166 -91 791 -17 
Q 416 56 38 206 
L 166 856 
Q 513 641 861 531 
Q 1209 422 1556 422 
Q 2147 422 2503 684 
Q 2859 947 2859 1369 
Q 2859 1650 2717 1795 
Q 2575 1941 2106 2059 
L 1728 2156 
Q 1081 2325 845 2545 
Q 609 2766 609 3163 
Q 609 3859 1145 4304 
Q 1681 4750 2541 4750 
Q 2875 4750 3203 4690 
Q 3531 4631 3859 4513 
z
" transform="scale(0.015625)"/>
       <path id="DejaVuSans-29" d="M 513 4856 
L 1013 4856 
Q 1481 4119 1714 3412 
Q 1947 2706 1947 2009 
Q 1947 1309 1714 600 
Q 1481 -109 1013 -844 
L 513 -844 
Q 928 -128 1133 580 
Q 1338 1288 1338 2009 
Q 1338 2731 1133 3434 
Q 928 4138 513 4856 
z
" transform="scale(0.015625)"/>
       <path id="DejaVuSans-20" transform="scale(0.015625)"/>
       <path id="DejaVuSans-5b" d="M 550 4863 
L 1875 4863 
L 1875 4416 
L 1125 4416 
L 1125 -397 
L 1875 -397 
L 1875 -844 
L 550 -844 
L 550 4863 
z
" transform="scale(0.015625)"/>
       <path id="DejaVuSans-6d" d="M 3328 2828 
Q 3544 3216 3844 3400 
Q 4144 3584 4550 3584 
Q 5097 3584 5394 3201 
Q 5691 2819 5691 2113 
L 5691 0 
L 5113 0 
L 5113 2094 
Q 5113 2597 4934 2840 
Q 4756 3084 4391 3084 
Q 3944 3084 3684 2787 
Q 3425 2491 3425 1978 
L 3425 0 
L 2847 0 
L 2847 2094 
Q 2847 2600 2669 2842 
Q 2491 3084 2119 3084 
Q 1678 3084 1418 2786 
Q 1159 2488 1159 1978 
L 1159 0 
L 581 0 
L 581 3500 
L 1159 3500 
L 1159 2956 
Q 1356 3278 1631 3431 
Q 1906 3584 2284 3584 
Q 2666 3584 2933 3390 
Q 3200 3197 3328 2828 
z
" transform="scale(0.015625)"/>
       <path id="DejaVuSans-56" d="M 1831 0 
L 50 4666 
L 709 4666 
L 2188 738 
L 3669 4666 
L 4325 4666 
L 2547 0 
L 1831 0 
z
" transform="scale(0.015625)"/>
       <path id="DejaVuSans-5d" d="M 1947 4863 
L 1947 -844 
L 622 -844 
L 622 -397 
L 1369 -397 
L 1369 4416 
L 622 4416 
L 622 4863 
L 1947 4863 
z
" transform="scale(0.015625)"/>
      </defs>
      <use xlink:href="#DejaVuSans-52" transform="translate(0 0.015625)"/>
      <use xlink:href="#DejaVuSans-65" transform="translate(69.482422 0.015625)"/>
      <use xlink:href="#DejaVuSans-28" transform="translate(131.005859 0.015625)"/>
      <use xlink:href="#DejaVuSans-Oblique-53" transform="translate(170.019531 0.015625)"/>
      <use xlink:href="#DejaVuSans-32" transform="translate(233.496094 -16.390625) scale(0.7)"/>
      <use xlink:href="#DejaVuSans-31" transform="translate(278.032227 -16.390625) scale(0.7)"/>
      <use xlink:href="#DejaVuSans-29" transform="translate(325.302734 0.015625)"/>
      <use xlink:href="#DejaVuSans-20" transform="translate(364.316406 0.015625)"/>
      <use xlink:href="#DejaVuSans-5b" transform="translate(396.103516 0.015625)"/>
      <use xlink:href="#DejaVuSans-6d" transform="translate(435.117188 0.015625)"/>
      <use xlink:href="#DejaVuSans-56" transform="translate(532.529297 0.015625)"/>
      <use xlink:href="#DejaVuSans-5d" transform="translate(600.9375 0.015625)"/>
     </g>
    </g>
   </g>
   <g id="matplotlib.axis_2">
    <g id="ytick_1">
     <g id="line2d_9">
      <defs>
       <path id="m94788e7d32" d="M 0 0 
L -3.5 0 
" style="stroke: #000000; stroke-width: 0.8"/>
      </defs>
      <g>
       <use xlink:href="#m94788e7d32" x="37.848438" y="300.718898" style="stroke: #000000; stroke-width: 0.8"/>
      </g>
     </g>
     <g id="text_10">
      <!-- -1 -->
      <g transform="translate(20.878125 304.518117) scale(0.1 -0.1)">
       <use xlink:href="#DejaVuSans-2d"/>
       <use xlink:href="#DejaVuSans-31" x="36.083984"/>
      </g>
     </g>
    </g>
    <g id="ytick_2">
     <g id="line2d_10">
      <g>
       <use xlink:href="#m94788e7d32" x="37.848438" y="270.390442" style="stroke: #000000; stroke-width: 0.8"/>
      </g>
     </g>
     <g id="text_11">
      <!-- 0 -->
      <g transform="translate(24.485938 274.189661) scale(0.1 -0.1)">
       <use xlink:href="#DejaVuSans-30"/>
      </g>
     </g>
    </g>
    <g id="ytick_3">
     <g id="line2d_11">
      <g>
       <use xlink:href="#m94788e7d32" x="37.848438" y="240.061986" style="stroke: #000000; stroke-width: 0.8"/>
      </g>
     </g>
     <g id="text_12">
      <!-- 1 -->
      <g transform="translate(24.485938 243.861205) scale(0.1 -0.1)">
       <use xlink:href="#DejaVuSans-31"/>
      </g>
     </g>
    </g>
    <g id="ytick_4">
     <g id="line2d_12">
      <g>
       <use xlink:href="#m94788e7d32" x="37.848438" y="209.73353" style="stroke: #000000; stroke-width: 0.8"/>
      </g>
     </g>
     <g id="text_13">
      <!-- 2 -->
      <g transform="translate(24.485938 213.532749) scale(0.1 -0.1)">
       <use xlink:href="#DejaVuSans-32"/>
      </g>
     </g>
    </g>
    <g id="ytick_5">
     <g id="line2d_13">
      <g>
       <use xlink:href="#m94788e7d32" x="37.848438" y="179.405074" style="stroke: #000000; stroke-width: 0.8"/>
      </g>
     </g>
     <g id="text_14">
      <!-- 3 -->
      <g transform="translate(24.485938 183.204293) scale(0.1 -0.1)">
       <use xlink:href="#DejaVuSans-33"/>
      </g>
     </g>
    </g>
    <g id="ytick_6">
     <g id="line2d_14">
      <g>
       <use xlink:href="#m94788e7d32" x="37.848438" y="149.076618" style="stroke: #000000; stroke-width: 0.8"/>
      </g>
     </g>
     <g id="text_15">
      <!-- 4 -->
      <g transform="translate(24.485938 152.875837) scale(0.1 -0.1)">
       <use xlink:href="#DejaVuSans-34"/>
      </g>
     </g>
    </g>
    <g id="ytick_7">
     <g id="line2d_15">
      <g>
       <use xlink:href="#m94788e7d32" x="37.848438" y="118.748162" style="stroke: #000000; stroke-width: 0.8"/>
      </g>
     </g>
     <g id="text_16">
      <!-- 5 -->
      <g transform="translate(24.485938 122.547381) scale(0.1 -0.1)">
       <use xlink:href="#DejaVuSans-35"/>
      </g>
     </g>
    </g>
    <g id="ytick_8">
     <g id="line2d_16">
      <g>
       <use xlink:href="#m94788e7d32" x="37.848438" y="88.419706" style="stroke: #000000; stroke-width: 0.8"/>
      </g>
     </g>
     <g id="text_17">
      <!-- 6 -->
      <g transform="translate(24.485938 92.218925) scale(0.1 -0.1)">
       <use xlink:href="#DejaVuSans-36"/>
      </g>
     </g>
    </g>
    <g id="ytick_9">
     <g id="line2d_17">
      <g>
       <use xlink:href="#m94788e7d32" x="37.848438" y="58.09125" style="stroke: #000000; stroke-width: 0.8"/>
      </g>
     </g>
     <g id="text_18">
      <!-- 7 -->
      <g transform="translate(24.485938 61.890469) scale(0.1 -0.1)">
       <use xlink:href="#DejaVuSans-37"/>
      </g>
     </g>
    </g>
    <g id="text_19">
     <!-- Im$(S_{21})$ [mV] -->
     <g transform="translate(14.798438 206.466) rotate(-90) scale(0.1 -0.1)">
      <defs>
       <path id="DejaVuSans-49" d="M 628 4666 
L 1259 4666 
L 1259 0 
L 628 0 
L 628 4666 
z
" transform="scale(0.015625)"/>
      </defs>
      <use xlink:href="#DejaVuSans-49" transform="translate(0 0.015625)"/>
      <use xlink:href="#DejaVuSans-6d" transform="translate(25.867188 0.015625)"/>
      <use xlink:href="#DejaVuSans-28" transform="translate(123.279297 0.015625)"/>
      <use xlink:href="#DejaVuSans-Oblique-53" transform="translate(162.292969 0.015625)"/>
      <use xlink:href="#DejaVuSans-32" transform="translate(225.769531 -16.390625) scale(0.7)"/>
      <use xlink:href="#DejaVuSans-31" transform="translate(270.305664 -16.390625) scale(0.7)"/>
      <use xlink:href="#DejaVuSans-29" transform="translate(317.576172 0.015625)"/>
      <use xlink:href="#DejaVuSans-20" transform="translate(356.589844 0.015625)"/>
      <use xlink:href="#DejaVuSans-5b" transform="translate(388.376953 0.015625)"/>
      <use xlink:href="#DejaVuSans-6d" transform="translate(427.390625 0.015625)"/>
      <use xlink:href="#DejaVuSans-56" transform="translate(524.802734 0.015625)"/>
      <use xlink:href="#DejaVuSans-5d" transform="translate(593.210938 0.015625)"/>
     </g>
    </g>
   </g>
   <g id="line2d_18">
    <path d="M 54.081165 81.739215 
L 63.32646 82.417164 
L 65.9029 77.218607 
L 82.081632 75.206061 
L 93.663573 74.118168 
L 96.015134 70.205512 
L 90.997192 67.900925 
L 100.542597 64.09883 
L 107.606493 66.767694 
L 119.935504 68.057152 
L 115.262465 65.624883 
L 124.519721 60.656831 
L 131.253628 60.654098 
L 145.418932 64.628388 
L 138.546779 62.677279 
L 153.86702 63.534536 
L 153.62967 53.856 
L 159.417027 59.497162 
L 175.149055 61.607396 
L 174.102944 57.485274 
L 187.361198 63.032173 
L 188.187011 58.317673 
L 195.667579 64.300888 
L 205.886502 67.465761 
L 219.739938 65.494337 
L 230.081329 66.828868 
L 226.991453 62.227859 
L 231.55582 60.885854 
L 239.571914 68.406086 
L 242.494428 65.272393 
L 259.745535 71.006731 
L 258.823062 68.043587 
L 263.056167 71.385792 
L 273.06146 77.897874 
L 284.754772 80.90438 
L 295.530549 85.361114 
L 298.4382 88.71099 
L 305.971756 92.458068 
L 316.248095 89.330169 
L 314.097897 94.980682 
L 320.578878 98.400193 
L 325.352599 99.988704 
L 330.143117 106.378604 
L 334.387012 105.573335 
L 337.026162 108.065032 
L 348.619506 120.081804 
L 352.063904 118.072682 
L 354.683559 118.736474 
L 355.217354 122.749418 
L 360.288233 131.756293 
L 360.785736 139.573406 
L 364.849036 138.54448 
L 362.816114 147.424991 
L 372.931912 147.696552 
L 370.651154 154.041905 
L 371.954416 157.221792 
L 372.12305 160.340241 
L 375.085571 163.997665 
L 378.73571 169.462352 
L 375.239189 176.615607 
L 371.314848 183.213293 
L 372.542013 185.040804 
L 378.603623 184.311986 
L 376.186553 193.104982 
L 377.679674 194.127981 
L 377.99144 190.427623 
L 375.356974 199.322884 
L 372.338054 207.601797 
L 370.004563 212.308 
L 373.277579 216.061004 
L 370.872013 216.986514 
L 367.348311 220.763981 
L 365.187933 224.739095 
L 361.737477 228.553536 
L 362.723831 229.941043 
L 362.9114 230.656955 
L 359.787472 233.849682 
L 351.832509 238.309346 
L 348.650708 240.748397 
L 352.937105 246.485567 
L 344.39541 245.443274 
L 348.590339 251.432877 
L 345.978473 254.093971 
L 338.633453 253.615643 
L 339.867133 254.876917 
L 329.573284 256.446497 
L 332.420821 259.773194 
L 335.618554 256.557551 
L 330.300044 261.851623 
L 324.373626 264.44667 
L 320.29979 264.85049 
L 317.074111 268.897083 
L 314.381363 268.639843 
L 310.456971 269.466744 
L 307.064186 272.26836 
L 300.03694 272.721665 
L 302.3687 275.177409 
L 302.859281 274.993427 
L 295.001131 278.902922 
L 293.377247 278.293653 
L 286.661868 277.771469 
L 289.957382 280.617534 
L 281.286298 284.165484 
L 279.003046 282.423676 
L 271.473257 281.961712 
L 272.259214 284.433391 
L 275.345628 283.670068 
L 270.681242 284.125382 
L 265.884311 287.248737 
L 263.115771 288.329222 
L 261.028945 286.188994 
L 263.326806 291.402927 
L 256.411948 288.79629 
L 251.145661 286.298172 
L 254.122791 291.477238 
L 255.275742 288.358262 
L 252.231881 290.450025 
L 245.865987 291.056857 
L 243.674611 291.540058 
L 237.589231 293.310017 
L 232.037391 290.487065 
L 233.530461 290.776999 
L 228.90308 291.027818 
L 230.405922 291.911612 
L 225.923099 294.371636 
L 227.031767 290.328533 
L 227.099719 293.673141 
L 219.66318 291.813661 
L 220.674882 292.107645 
L 212.468317 295.776 
L 212.652527 293.30386 
L 209.370807 291.830255 
L 205.437864 293.379586 
L 205.298447 294.796132 
L 205.407934 293.525277 
L 205.905896 293.374977 
L 198.303166 290.547152 
L 205.383858 291.940388 
L 194.872765 292.972639 
L 196.107768 291.39361 
L 195.860187 292.991669 
L 197.640082 293.706066 
L 191.483492 289.454814 
L 189.293134 292.264102 
L 186.765507 290.0815 
L 191.367337 286.713845 
L 178.850604 291.742972 
L 182.904589 290.612211 
L 182.746389 288.307295 
L 180.256328 287.315245 
L 177.233183 289.041907 
L 175.146103 288.393524 
L 174.759156 290.15107 
L 172.151361 288.312365 
L 171.502733 288.306109 
L 170.395287 287.993622 
L 170.136966 287.280542 
L 170.191328 287.862846 
L 166.907216 285.44727 
L 162.296632 288.712761 
L 163.148557 285.664012 
L 164.550616 282.645851 
L 159.073906 283.714121 
L 164.199554 285.362884 
L 160.480037 284.694911 
L 157.261383 284.391478 
L 156.991915 283.514763 
L 157.260569 283.668685 
L 151.914419 283.175871 
L 152.171519 284.024337 
L 148.066073 280.779654 
L 150.920583 282.875204 
L 147.637845 285.045656 
L 147.324603 279.238719 
L 146.365786 280.799014 
L 144.771424 280.68707 
L 145.490753 278.211769 
L 142.530369 279.212577 
L 143.18149 279.839987 
L 140.109074 280.023081 
L 142.332569 279.482855 
L 142.662914 277.737524 
L 138.047138 277.64899 
L 137.600739 278.016428 
L 134.851135 277.085651 
L 133.900616 276.999751 
L 132.515201 275.950873 
L 132.426481 274.609889 
L 130.857213 274.288051 
L 132.871862 276.793314 
L 133.108754 275.218203 
L 127.467075 273.968815 
L 130.154224 275.366396 
L 124.934918 271.781077 
L 130.811911 273.010183 
L 126.291065 268.103305 
L 122.474634 270.49264 
L 122.474634 270.49264 
" clip-path="url(#p67a5331f7d)" style="fill: none; stroke: #1f77b4; stroke-width: 1.5; stroke-linecap: square"/>
    <defs>
     <path id="m152d5ff753" d="M 0 1.5 
C 0.397805 1.5 0.77937 1.341951 1.06066 1.06066 
C 1.341951 0.77937 1.5 0.397805 1.5 0 
C 1.5 -0.397805 1.341951 -0.77937 1.06066 -1.06066 
C 0.77937 -1.341951 0.397805 -1.5 0 -1.5 
C -0.397805 -1.5 -0.77937 -1.341951 -1.06066 -1.06066 
C -1.341951 -0.77937 -1.5 -0.397805 -1.5 0 
C -1.5 0.397805 -1.341951 0.77937 -1.06066 1.06066 
C -0.77937 1.341951 -0.397805 1.5 0 1.5 
z
" style="stroke: #1f77b4"/>
    </defs>
    <g clip-path="url(#p67a5331f7d)">
     <use xlink:href="#m152d5ff753" x="54.081165" y="81.739215" style="fill: #1f77b4; stroke: #1f77b4"/>
     <use xlink:href="#m152d5ff753" x="63.32646" y="82.417164" style="fill: #1f77b4; stroke: #1f77b4"/>
     <use xlink:href="#m152d5ff753" x="65.9029" y="77.218607" style="fill: #1f77b4; stroke: #1f77b4"/>
     <use xlink:href="#m152d5ff753" x="77.338044" y="75.777993" style="fill: #1f77b4; stroke: #1f77b4"/>
     <use xlink:href="#m152d5ff753" x="82.081632" y="75.206061" style="fill: #1f77b4; stroke: #1f77b4"/>
     <use xlink:href="#m152d5ff753" x="93.663573" y="74.118168" style="fill: #1f77b4; stroke: #1f77b4"/>
     <use xlink:href="#m152d5ff753" x="96.015134" y="70.205512" style="fill: #1f77b4; stroke: #1f77b4"/>
     <use xlink:href="#m152d5ff753" x="90.997192" y="67.900925" style="fill: #1f77b4; stroke: #1f77b4"/>
     <use xlink:href="#m152d5ff753" x="100.542597" y="64.09883" style="fill: #1f77b4; stroke: #1f77b4"/>
     <use xlink:href="#m152d5ff753" x="107.606493" y="66.767694" style="fill: #1f77b4; stroke: #1f77b4"/>
     <use xlink:href="#m152d5ff753" x="119.935504" y="68.057152" style="fill: #1f77b4; stroke: #1f77b4"/>
     <use xlink:href="#m152d5ff753" x="115.262465" y="65.624883" style="fill: #1f77b4; stroke: #1f77b4"/>
     <use xlink:href="#m152d5ff753" x="124.519721" y="60.656831" style="fill: #1f77b4; stroke: #1f77b4"/>
     <use xlink:href="#m152d5ff753" x="131.253628" y="60.654098" style="fill: #1f77b4; stroke: #1f77b4"/>
     <use xlink:href="#m152d5ff753" x="145.418932" y="64.628388" style="fill: #1f77b4; stroke: #1f77b4"/>
     <use xlink:href="#m152d5ff753" x="138.546779" y="62.677279" style="fill: #1f77b4; stroke: #1f77b4"/>
     <use xlink:href="#m152d5ff753" x="153.86702" y="63.534536" style="fill: #1f77b4; stroke: #1f77b4"/>
     <use xlink:href="#m152d5ff753" x="153.62967" y="53.856" style="fill: #1f77b4; stroke: #1f77b4"/>
     <use xlink:href="#m152d5ff753" x="159.417027" y="59.497162" style="fill: #1f77b4; stroke: #1f77b4"/>
     <use xlink:href="#m152d5ff753" x="175.149055" y="61.607396" style="fill: #1f77b4; stroke: #1f77b4"/>
     <use xlink:href="#m152d5ff753" x="174.102944" y="57.485274" style="fill: #1f77b4; stroke: #1f77b4"/>
     <use xlink:href="#m152d5ff753" x="187.361198" y="63.032173" style="fill: #1f77b4; stroke: #1f77b4"/>
     <use xlink:href="#m152d5ff753" x="188.187011" y="58.317673" style="fill: #1f77b4; stroke: #1f77b4"/>
     <use xlink:href="#m152d5ff753" x="195.667579" y="64.300888" style="fill: #1f77b4; stroke: #1f77b4"/>
     <use xlink:href="#m152d5ff753" x="205.886502" y="67.465761" style="fill: #1f77b4; stroke: #1f77b4"/>
     <use xlink:href="#m152d5ff753" x="219.739938" y="65.494337" style="fill: #1f77b4; stroke: #1f77b4"/>
     <use xlink:href="#m152d5ff753" x="230.081329" y="66.828868" style="fill: #1f77b4; stroke: #1f77b4"/>
     <use xlink:href="#m152d5ff753" x="226.991453" y="62.227859" style="fill: #1f77b4; stroke: #1f77b4"/>
     <use xlink:href="#m152d5ff753" x="231.55582" y="60.885854" style="fill: #1f77b4; stroke: #1f77b4"/>
     <use xlink:href="#m152d5ff753" x="239.571914" y="68.406086" style="fill: #1f77b4; stroke: #1f77b4"/>
     <use xlink:href="#m152d5ff753" x="242.494428" y="65.272393" style="fill: #1f77b4; stroke: #1f77b4"/>
     <use xlink:href="#m152d5ff753" x="259.745535" y="71.006731" style="fill: #1f77b4; stroke: #1f77b4"/>
     <use xlink:href="#m152d5ff753" x="258.823062" y="68.043587" style="fill: #1f77b4; stroke: #1f77b4"/>
     <use xlink:href="#m152d5ff753" x="263.056167" y="71.385792" style="fill: #1f77b4; stroke: #1f77b4"/>
     <use xlink:href="#m152d5ff753" x="273.06146" y="77.897874" style="fill: #1f77b4; stroke: #1f77b4"/>
     <use xlink:href="#m152d5ff753" x="276.656066" y="78.827894" style="fill: #1f77b4; stroke: #1f77b4"/>
     <use xlink:href="#m152d5ff753" x="284.754772" y="80.90438" style="fill: #1f77b4; stroke: #1f77b4"/>
     <use xlink:href="#m152d5ff753" x="295.530549" y="85.361114" style="fill: #1f77b4; stroke: #1f77b4"/>
     <use xlink:href="#m152d5ff753" x="298.4382" y="88.71099" style="fill: #1f77b4; stroke: #1f77b4"/>
     <use xlink:href="#m152d5ff753" x="305.971756" y="92.458068" style="fill: #1f77b4; stroke: #1f77b4"/>
     <use xlink:href="#m152d5ff753" x="316.248095" y="89.330169" style="fill: #1f77b4; stroke: #1f77b4"/>
     <use xlink:href="#m152d5ff753" x="314.097897" y="94.980682" style="fill: #1f77b4; stroke: #1f77b4"/>
     <use xlink:href="#m152d5ff753" x="320.578878" y="98.400193" style="fill: #1f77b4; stroke: #1f77b4"/>
     <use xlink:href="#m152d5ff753" x="325.352599" y="99.988704" style="fill: #1f77b4; stroke: #1f77b4"/>
     <use xlink:href="#m152d5ff753" x="330.143117" y="106.378604" style="fill: #1f77b4; stroke: #1f77b4"/>
     <use xlink:href="#m152d5ff753" x="334.387012" y="105.573335" style="fill: #1f77b4; stroke: #1f77b4"/>
     <use xlink:href="#m152d5ff753" x="337.026162" y="108.065032" style="fill: #1f77b4; stroke: #1f77b4"/>
     <use xlink:href="#m152d5ff753" x="348.619506" y="120.081804" style="fill: #1f77b4; stroke: #1f77b4"/>
     <use xlink:href="#m152d5ff753" x="352.063904" y="118.072682" style="fill: #1f77b4; stroke: #1f77b4"/>
     <use xlink:href="#m152d5ff753" x="354.683559" y="118.736474" style="fill: #1f77b4; stroke: #1f77b4"/>
     <use xlink:href="#m152d5ff753" x="355.217354" y="122.749418" style="fill: #1f77b4; stroke: #1f77b4"/>
     <use xlink:href="#m152d5ff753" x="360.288233" y="131.756293" style="fill: #1f77b4; stroke: #1f77b4"/>
     <use xlink:href="#m152d5ff753" x="360.785736" y="139.573406" style="fill: #1f77b4; stroke: #1f77b4"/>
     <use xlink:href="#m152d5ff753" x="364.849036" y="138.54448" style="fill: #1f77b4; stroke: #1f77b4"/>
     <use xlink:href="#m152d5ff753" x="362.816114" y="147.424991" style="fill: #1f77b4; stroke: #1f77b4"/>
     <use xlink:href="#m152d5ff753" x="372.931912" y="147.696552" style="fill: #1f77b4; stroke: #1f77b4"/>
     <use xlink:href="#m152d5ff753" x="370.651154" y="154.041905" style="fill: #1f77b4; stroke: #1f77b4"/>
     <use xlink:href="#m152d5ff753" x="371.954416" y="157.221792" style="fill: #1f77b4; stroke: #1f77b4"/>
     <use xlink:href="#m152d5ff753" x="372.12305" y="160.340241" style="fill: #1f77b4; stroke: #1f77b4"/>
     <use xlink:href="#m152d5ff753" x="375.085571" y="163.997665" style="fill: #1f77b4; stroke: #1f77b4"/>
     <use xlink:href="#m152d5ff753" x="378.73571" y="169.462352" style="fill: #1f77b4; stroke: #1f77b4"/>
     <use xlink:href="#m152d5ff753" x="375.239189" y="176.615607" style="fill: #1f77b4; stroke: #1f77b4"/>
     <use xlink:href="#m152d5ff753" x="371.314848" y="183.213293" style="fill: #1f77b4; stroke: #1f77b4"/>
     <use xlink:href="#m152d5ff753" x="372.542013" y="185.040804" style="fill: #1f77b4; stroke: #1f77b4"/>
     <use xlink:href="#m152d5ff753" x="378.603623" y="184.311986" style="fill: #1f77b4; stroke: #1f77b4"/>
     <use xlink:href="#m152d5ff753" x="376.186553" y="193.104982" style="fill: #1f77b4; stroke: #1f77b4"/>
     <use xlink:href="#m152d5ff753" x="377.679674" y="194.127981" style="fill: #1f77b4; stroke: #1f77b4"/>
     <use xlink:href="#m152d5ff753" x="377.99144" y="190.427623" style="fill: #1f77b4; stroke: #1f77b4"/>
     <use xlink:href="#m152d5ff753" x="375.356974" y="199.322884" style="fill: #1f77b4; stroke: #1f77b4"/>
     <use xlink:href="#m152d5ff753" x="372.338054" y="207.601797" style="fill: #1f77b4; stroke: #1f77b4"/>
     <use xlink:href="#m152d5ff753" x="370.004563" y="212.308" style="fill: #1f77b4; stroke: #1f77b4"/>
     <use xlink:href="#m152d5ff753" x="373.277579" y="216.061004" style="fill: #1f77b4; stroke: #1f77b4"/>
     <use xlink:href="#m152d5ff753" x="370.872013" y="216.986514" style="fill: #1f77b4; stroke: #1f77b4"/>
     <use xlink:href="#m152d5ff753" x="367.348311" y="220.763981" style="fill: #1f77b4; stroke: #1f77b4"/>
     <use xlink:href="#m152d5ff753" x="365.187933" y="224.739095" style="fill: #1f77b4; stroke: #1f77b4"/>
     <use xlink:href="#m152d5ff753" x="361.737477" y="228.553536" style="fill: #1f77b4; stroke: #1f77b4"/>
     <use xlink:href="#m152d5ff753" x="362.723831" y="229.941043" style="fill: #1f77b4; stroke: #1f77b4"/>
     <use xlink:href="#m152d5ff753" x="362.9114" y="230.656955" style="fill: #1f77b4; stroke: #1f77b4"/>
     <use xlink:href="#m152d5ff753" x="359.787472" y="233.849682" style="fill: #1f77b4; stroke: #1f77b4"/>
     <use xlink:href="#m152d5ff753" x="351.832509" y="238.309346" style="fill: #1f77b4; stroke: #1f77b4"/>
     <use xlink:href="#m152d5ff753" x="348.650708" y="240.748397" style="fill: #1f77b4; stroke: #1f77b4"/>
     <use xlink:href="#m152d5ff753" x="352.937105" y="246.485567" style="fill: #1f77b4; stroke: #1f77b4"/>
     <use xlink:href="#m152d5ff753" x="344.39541" y="245.443274" style="fill: #1f77b4; stroke: #1f77b4"/>
     <use xlink:href="#m152d5ff753" x="348.590339" y="251.432877" style="fill: #1f77b4; stroke: #1f77b4"/>
     <use xlink:href="#m152d5ff753" x="345.978473" y="254.093971" style="fill: #1f77b4; stroke: #1f77b4"/>
     <use xlink:href="#m152d5ff753" x="338.633453" y="253.615643" style="fill: #1f77b4; stroke: #1f77b4"/>
     <use xlink:href="#m152d5ff753" x="339.867133" y="254.876917" style="fill: #1f77b4; stroke: #1f77b4"/>
     <use xlink:href="#m152d5ff753" x="329.573284" y="256.446497" style="fill: #1f77b4; stroke: #1f77b4"/>
     <use xlink:href="#m152d5ff753" x="332.420821" y="259.773194" style="fill: #1f77b4; stroke: #1f77b4"/>
     <use xlink:href="#m152d5ff753" x="335.618554" y="256.557551" style="fill: #1f77b4; stroke: #1f77b4"/>
     <use xlink:href="#m152d5ff753" x="330.300044" y="261.851623" style="fill: #1f77b4; stroke: #1f77b4"/>
     <use xlink:href="#m152d5ff753" x="324.373626" y="264.44667" style="fill: #1f77b4; stroke: #1f77b4"/>
     <use xlink:href="#m152d5ff753" x="320.29979" y="264.85049" style="fill: #1f77b4; stroke: #1f77b4"/>
     <use xlink:href="#m152d5ff753" x="317.074111" y="268.897083" style="fill: #1f77b4; stroke: #1f77b4"/>
     <use xlink:href="#m152d5ff753" x="314.381363" y="268.639843" style="fill: #1f77b4; stroke: #1f77b4"/>
     <use xlink:href="#m152d5ff753" x="310.456971" y="269.466744" style="fill: #1f77b4; stroke: #1f77b4"/>
     <use xlink:href="#m152d5ff753" x="307.064186" y="272.26836" style="fill: #1f77b4; stroke: #1f77b4"/>
     <use xlink:href="#m152d5ff753" x="300.03694" y="272.721665" style="fill: #1f77b4; stroke: #1f77b4"/>
     <use xlink:href="#m152d5ff753" x="302.3687" y="275.177409" style="fill: #1f77b4; stroke: #1f77b4"/>
     <use xlink:href="#m152d5ff753" x="302.859281" y="274.993427" style="fill: #1f77b4; stroke: #1f77b4"/>
     <use xlink:href="#m152d5ff753" x="295.001131" y="278.902922" style="fill: #1f77b4; stroke: #1f77b4"/>
     <use xlink:href="#m152d5ff753" x="293.377247" y="278.293653" style="fill: #1f77b4; stroke: #1f77b4"/>
     <use xlink:href="#m152d5ff753" x="286.661868" y="277.771469" style="fill: #1f77b4; stroke: #1f77b4"/>
     <use xlink:href="#m152d5ff753" x="289.957382" y="280.617534" style="fill: #1f77b4; stroke: #1f77b4"/>
     <use xlink:href="#m152d5ff753" x="281.286298" y="284.165484" style="fill: #1f77b4; stroke: #1f77b4"/>
     <use xlink:href="#m152d5ff753" x="279.003046" y="282.423676" style="fill: #1f77b4; stroke: #1f77b4"/>
     <use xlink:href="#m152d5ff753" x="271.473257" y="281.961712" style="fill: #1f77b4; stroke: #1f77b4"/>
     <use xlink:href="#m152d5ff753" x="272.259214" y="284.433391" style="fill: #1f77b4; stroke: #1f77b4"/>
     <use xlink:href="#m152d5ff753" x="275.345628" y="283.670068" style="fill: #1f77b4; stroke: #1f77b4"/>
     <use xlink:href="#m152d5ff753" x="270.681242" y="284.125382" style="fill: #1f77b4; stroke: #1f77b4"/>
     <use xlink:href="#m152d5ff753" x="265.884311" y="287.248737" style="fill: #1f77b4; stroke: #1f77b4"/>
     <use xlink:href="#m152d5ff753" x="263.115771" y="288.329222" style="fill: #1f77b4; stroke: #1f77b4"/>
     <use xlink:href="#m152d5ff753" x="261.028945" y="286.188994" style="fill: #1f77b4; stroke: #1f77b4"/>
     <use xlink:href="#m152d5ff753" x="263.326806" y="291.402927" style="fill: #1f77b4; stroke: #1f77b4"/>
     <use xlink:href="#m152d5ff753" x="256.411948" y="288.79629" style="fill: #1f77b4; stroke: #1f77b4"/>
     <use xlink:href="#m152d5ff753" x="251.145661" y="286.298172" style="fill: #1f77b4; stroke: #1f77b4"/>
     <use xlink:href="#m152d5ff753" x="254.122791" y="291.477238" style="fill: #1f77b4; stroke: #1f77b4"/>
     <use xlink:href="#m152d5ff753" x="255.275742" y="288.358262" style="fill: #1f77b4; stroke: #1f77b4"/>
     <use xlink:href="#m152d5ff753" x="252.231881" y="290.450025" style="fill: #1f77b4; stroke: #1f77b4"/>
     <use xlink:href="#m152d5ff753" x="245.865987" y="291.056857" style="fill: #1f77b4; stroke: #1f77b4"/>
     <use xlink:href="#m152d5ff753" x="243.674611" y="291.540058" style="fill: #1f77b4; stroke: #1f77b4"/>
     <use xlink:href="#m152d5ff753" x="237.589231" y="293.310017" style="fill: #1f77b4; stroke: #1f77b4"/>
     <use xlink:href="#m152d5ff753" x="232.037391" y="290.487065" style="fill: #1f77b4; stroke: #1f77b4"/>
     <use xlink:href="#m152d5ff753" x="233.530461" y="290.776999" style="fill: #1f77b4; stroke: #1f77b4"/>
     <use xlink:href="#m152d5ff753" x="228.90308" y="291.027818" style="fill: #1f77b4; stroke: #1f77b4"/>
     <use xlink:href="#m152d5ff753" x="230.405922" y="291.911612" style="fill: #1f77b4; stroke: #1f77b4"/>
     <use xlink:href="#m152d5ff753" x="225.923099" y="294.371636" style="fill: #1f77b4; stroke: #1f77b4"/>
     <use xlink:href="#m152d5ff753" x="227.031767" y="290.328533" style="fill: #1f77b4; stroke: #1f77b4"/>
     <use xlink:href="#m152d5ff753" x="227.099719" y="293.673141" style="fill: #1f77b4; stroke: #1f77b4"/>
     <use xlink:href="#m152d5ff753" x="219.66318" y="291.813661" style="fill: #1f77b4; stroke: #1f77b4"/>
     <use xlink:href="#m152d5ff753" x="220.674882" y="292.107645" style="fill: #1f77b4; stroke: #1f77b4"/>
     <use xlink:href="#m152d5ff753" x="212.468317" y="295.776" style="fill: #1f77b4; stroke: #1f77b4"/>
     <use xlink:href="#m152d5ff753" x="212.652527" y="293.30386" style="fill: #1f77b4; stroke: #1f77b4"/>
     <use xlink:href="#m152d5ff753" x="209.370807" y="291.830255" style="fill: #1f77b4; stroke: #1f77b4"/>
     <use xlink:href="#m152d5ff753" x="205.437864" y="293.379586" style="fill: #1f77b4; stroke: #1f77b4"/>
     <use xlink:href="#m152d5ff753" x="205.298447" y="294.796132" style="fill: #1f77b4; stroke: #1f77b4"/>
     <use xlink:href="#m152d5ff753" x="205.407934" y="293.525277" style="fill: #1f77b4; stroke: #1f77b4"/>
     <use xlink:href="#m152d5ff753" x="205.905896" y="293.374977" style="fill: #1f77b4; stroke: #1f77b4"/>
     <use xlink:href="#m152d5ff753" x="198.303166" y="290.547152" style="fill: #1f77b4; stroke: #1f77b4"/>
     <use xlink:href="#m152d5ff753" x="205.383858" y="291.940388" style="fill: #1f77b4; stroke: #1f77b4"/>
     <use xlink:href="#m152d5ff753" x="194.872765" y="292.972639" style="fill: #1f77b4; stroke: #1f77b4"/>
     <use xlink:href="#m152d5ff753" x="196.107768" y="291.39361" style="fill: #1f77b4; stroke: #1f77b4"/>
     <use xlink:href="#m152d5ff753" x="195.860187" y="292.991669" style="fill: #1f77b4; stroke: #1f77b4"/>
     <use xlink:href="#m152d5ff753" x="197.640082" y="293.706066" style="fill: #1f77b4; stroke: #1f77b4"/>
     <use xlink:href="#m152d5ff753" x="191.483492" y="289.454814" style="fill: #1f77b4; stroke: #1f77b4"/>
     <use xlink:href="#m152d5ff753" x="189.293134" y="292.264102" style="fill: #1f77b4; stroke: #1f77b4"/>
     <use xlink:href="#m152d5ff753" x="186.765507" y="290.0815" style="fill: #1f77b4; stroke: #1f77b4"/>
     <use xlink:href="#m152d5ff753" x="191.367337" y="286.713845" style="fill: #1f77b4; stroke: #1f77b4"/>
     <use xlink:href="#m152d5ff753" x="178.850604" y="291.742972" style="fill: #1f77b4; stroke: #1f77b4"/>
     <use xlink:href="#m152d5ff753" x="182.904589" y="290.612211" style="fill: #1f77b4; stroke: #1f77b4"/>
     <use xlink:href="#m152d5ff753" x="182.746389" y="288.307295" style="fill: #1f77b4; stroke: #1f77b4"/>
     <use xlink:href="#m152d5ff753" x="180.256328" y="287.315245" style="fill: #1f77b4; stroke: #1f77b4"/>
     <use xlink:href="#m152d5ff753" x="177.233183" y="289.041907" style="fill: #1f77b4; stroke: #1f77b4"/>
     <use xlink:href="#m152d5ff753" x="175.146103" y="288.393524" style="fill: #1f77b4; stroke: #1f77b4"/>
     <use xlink:href="#m152d5ff753" x="174.759156" y="290.15107" style="fill: #1f77b4; stroke: #1f77b4"/>
     <use xlink:href="#m152d5ff753" x="172.151361" y="288.312365" style="fill: #1f77b4; stroke: #1f77b4"/>
     <use xlink:href="#m152d5ff753" x="171.502733" y="288.306109" style="fill: #1f77b4; stroke: #1f77b4"/>
     <use xlink:href="#m152d5ff753" x="170.395287" y="287.993622" style="fill: #1f77b4; stroke: #1f77b4"/>
     <use xlink:href="#m152d5ff753" x="170.136966" y="287.280542" style="fill: #1f77b4; stroke: #1f77b4"/>
     <use xlink:href="#m152d5ff753" x="170.191328" y="287.862846" style="fill: #1f77b4; stroke: #1f77b4"/>
     <use xlink:href="#m152d5ff753" x="166.907216" y="285.44727" style="fill: #1f77b4; stroke: #1f77b4"/>
     <use xlink:href="#m152d5ff753" x="162.296632" y="288.712761" style="fill: #1f77b4; stroke: #1f77b4"/>
     <use xlink:href="#m152d5ff753" x="163.148557" y="285.664012" style="fill: #1f77b4; stroke: #1f77b4"/>
     <use xlink:href="#m152d5ff753" x="164.550616" y="282.645851" style="fill: #1f77b4; stroke: #1f77b4"/>
     <use xlink:href="#m152d5ff753" x="159.073906" y="283.714121" style="fill: #1f77b4; stroke: #1f77b4"/>
     <use xlink:href="#m152d5ff753" x="164.199554" y="285.362884" style="fill: #1f77b4; stroke: #1f77b4"/>
     <use xlink:href="#m152d5ff753" x="160.480037" y="284.694911" style="fill: #1f77b4; stroke: #1f77b4"/>
     <use xlink:href="#m152d5ff753" x="157.261383" y="284.391478" style="fill: #1f77b4; stroke: #1f77b4"/>
     <use xlink:href="#m152d5ff753" x="156.991915" y="283.514763" style="fill: #1f77b4; stroke: #1f77b4"/>
     <use xlink:href="#m152d5ff753" x="157.260569" y="283.668685" style="fill: #1f77b4; stroke: #1f77b4"/>
     <use xlink:href="#m152d5ff753" x="151.914419" y="283.175871" style="fill: #1f77b4; stroke: #1f77b4"/>
     <use xlink:href="#m152d5ff753" x="152.171519" y="284.024337" style="fill: #1f77b4; stroke: #1f77b4"/>
     <use xlink:href="#m152d5ff753" x="148.066073" y="280.779654" style="fill: #1f77b4; stroke: #1f77b4"/>
     <use xlink:href="#m152d5ff753" x="150.920583" y="282.875204" style="fill: #1f77b4; stroke: #1f77b4"/>
     <use xlink:href="#m152d5ff753" x="147.637845" y="285.045656" style="fill: #1f77b4; stroke: #1f77b4"/>
     <use xlink:href="#m152d5ff753" x="147.324603" y="279.238719" style="fill: #1f77b4; stroke: #1f77b4"/>
     <use xlink:href="#m152d5ff753" x="146.855705" y="279.942021" style="fill: #1f77b4; stroke: #1f77b4"/>
     <use xlink:href="#m152d5ff753" x="146.365786" y="280.799014" style="fill: #1f77b4; stroke: #1f77b4"/>
     <use xlink:href="#m152d5ff753" x="144.771424" y="280.68707" style="fill: #1f77b4; stroke: #1f77b4"/>
     <use xlink:href="#m152d5ff753" x="145.490753" y="278.211769" style="fill: #1f77b4; stroke: #1f77b4"/>
     <use xlink:href="#m152d5ff753" x="142.530369" y="279.212577" style="fill: #1f77b4; stroke: #1f77b4"/>
     <use xlink:href="#m152d5ff753" x="143.18149" y="279.839987" style="fill: #1f77b4; stroke: #1f77b4"/>
     <use xlink:href="#m152d5ff753" x="140.109074" y="280.023081" style="fill: #1f77b4; stroke: #1f77b4"/>
     <use xlink:href="#m152d5ff753" x="142.332569" y="279.482855" style="fill: #1f77b4; stroke: #1f77b4"/>
     <use xlink:href="#m152d5ff753" x="142.662914" y="277.737524" style="fill: #1f77b4; stroke: #1f77b4"/>
     <use xlink:href="#m152d5ff753" x="138.047138" y="277.64899" style="fill: #1f77b4; stroke: #1f77b4"/>
     <use xlink:href="#m152d5ff753" x="137.600739" y="278.016428" style="fill: #1f77b4; stroke: #1f77b4"/>
     <use xlink:href="#m152d5ff753" x="134.851135" y="277.085651" style="fill: #1f77b4; stroke: #1f77b4"/>
     <use xlink:href="#m152d5ff753" x="133.900616" y="276.999751" style="fill: #1f77b4; stroke: #1f77b4"/>
     <use xlink:href="#m152d5ff753" x="132.515201" y="275.950873" style="fill: #1f77b4; stroke: #1f77b4"/>
     <use xlink:href="#m152d5ff753" x="132.426481" y="274.609889" style="fill: #1f77b4; stroke: #1f77b4"/>
     <use xlink:href="#m152d5ff753" x="130.857213" y="274.288051" style="fill: #1f77b4; stroke: #1f77b4"/>
     <use xlink:href="#m152d5ff753" x="132.871862" y="276.793314" style="fill: #1f77b4; stroke: #1f77b4"/>
     <use xlink:href="#m152d5ff753" x="133.108754" y="275.218203" style="fill: #1f77b4; stroke: #1f77b4"/>
     <use xlink:href="#m152d5ff753" x="127.467075" y="273.968815" style="fill: #1f77b4; stroke: #1f77b4"/>
     <use xlink:href="#m152d5ff753" x="130.154224" y="275.366396" style="fill: #1f77b4; stroke: #1f77b4"/>
     <use xlink:href="#m152d5ff753" x="124.934918" y="271.781077" style="fill: #1f77b4; stroke: #1f77b4"/>
     <use xlink:href="#m152d5ff753" x="130.811911" y="273.010183" style="fill: #1f77b4; stroke: #1f77b4"/>
     <use xlink:href="#m152d5ff753" x="126.291065" y="268.103305" style="fill: #1f77b4; stroke: #1f77b4"/>
     <use xlink:href="#m152d5ff753" x="122.474634" y="270.49264" style="fill: #1f77b4; stroke: #1f77b4"/>
    </g>
   </g>
   <g id="line2d_19">
    <path d="M 64.754325 80.360095 
L 71.943814 77.601664 
L 79.458524 74.964662 
L 87.300311 72.466228 
L 95.468996 70.124492 
L 102.88285 68.218974 
L 110.541797 66.46129 
L 118.440835 64.865141 
L 126.573124 63.444559 
L 134.929835 62.213808 
L 143.500018 61.187264 
L 152.270479 60.379286 
L 161.225681 59.80406 
L 170.347661 59.47543 
L 178.283824 59.400132 
L 186.313229 59.523778 
L 194.420226 59.853856 
L 202.587865 60.397272 
L 210.79794 61.160245 
L 219.031063 62.148211 
L 227.266744 63.365722 
L 235.48351 64.816355 
L 243.659028 66.50262 
L 251.77026 68.425882 
L 259.79363 70.586293 
L 267.705216 72.982731 
L 275.480943 75.612757 
L 281.839608 77.980193 
L 288.0735 80.504335 
L 294.169097 83.181625 
L 300.113196 86.007865 
L 305.893007 88.978228 
L 311.496235 92.087284 
L 316.911169 95.329025 
L 322.126762 98.696899 
L 327.132703 102.183851 
L 331.919486 105.782362 
L 336.478469 109.484505 
L 340.801927 113.28199 
L 344.883094 117.166226 
L 348.716194 121.128373 
L 352.296466 125.159406 
L 355.620175 129.25017 
L 358.684618 133.391445 
L 361.488113 137.574 
L 364.029987 141.788656 
L 366.31055 146.026333 
L 368.331061 150.278111 
L 370.093688 154.53527 
L 371.601464 158.789342 
L 372.858231 163.032148 
L 373.868587 167.255831 
L 374.637823 171.452894 
L 375.171861 175.61622 
L 375.477188 179.739099 
L 375.560792 183.815239 
L 375.430096 187.838785 
L 375.092892 191.80432 
L 374.557277 195.706876 
L 373.831592 199.541928 
L 372.924365 203.305393 
L 371.60825 207.721951 
L 370.058275 212.024697 
L 368.289568 216.208986 
L 366.317184 220.270989 
L 364.156007 224.207648 
L 361.82066 228.016635 
L 359.325432 231.696301 
L 356.230764 235.824472 
L 352.958637 239.774634 
L 349.52939 243.547126 
L 345.962367 247.143147 
L 342.275861 250.564647 
L 337.938447 254.264607 
L 333.491394 257.744828 
L 328.956812 261.01088 
L 324.354992 264.068964 
L 319.120565 267.269079 
L 313.848225 270.224555 
L 308.55918 272.945871 
L 302.685633 275.707944 
L 296.83709 278.208939 
L 291.032894 280.463573 
L 284.719089 282.676404 
L 278.497172 284.627436 
L 271.831969 286.4785 
L 265.30942 288.061961 
L 258.418049 289.499979 
L 251.719144 290.674119 
L 244.728801 291.670413 
L 237.976091 292.415023 
L 231.00751 292.961661 
L 223.877878 293.288824 
L 217.058093 293.381404 
L 210.144789 293.252944 
L 203.18802 292.893508 
L 196.591769 292.333771 
L 190.004049 291.5547 
L 183.466196 290.554823 
L 177.016193 289.335633 
L 170.966815 287.969478 
L 165.032893 286.405659 
L 159.24236 284.649617 
L 153.619626 282.70823 
L 148.185644 280.589452 
L 143.15153 278.391335 
L 138.308262 276.038423 
L 133.669524 273.538675 
L 129.246478 270.900257 
L 127.90336 270.044331 
L 127.90336 270.044331 
" clip-path="url(#p67a5331f7d)" style="fill: none; stroke: #d62728; stroke-width: 1.5; stroke-linecap: square"/>
   </g>
   <g id="patch_3">
    <path d="M 37.848438 307.872 
L 37.848438 41.76 
" style="fill: none; stroke: #000000; stroke-width: 0.8; stroke-linejoin: miter; stroke-linecap: square"/>
   </g>
   <g id="patch_4">
    <path d="M 394.968438 307.872 
L 394.968438 41.76 
" style="fill: none; stroke: #000000; stroke-width: 0.8; stroke-linejoin: miter; stroke-linecap: square"/>
   </g>
   <g id="patch_5">
    <path d="M 37.848437 307.872 
L 394.968437 307.872 
" style="fill: none; stroke: #000000; stroke-width: 0.8; stroke-linejoin: miter; stroke-linecap: square"/>
   </g>
   <g id="patch_6">
    <path d="M 37.848437 41.76 
L 394.968437 41.76 
" style="fill: none; stroke: #000000; stroke-width: 0.8; stroke-linejoin: miter; stroke-linecap: square"/>
   </g>
   <g id="text_20">
    <g id="patch_7">
     <path d="M 412.824438 102.337163 
L 558.024438 102.337163 
Q 562.024438 102.337163 562.024438 98.337163 
L 562.024438 55.0656 
Q 562.024438 51.0656 558.024438 51.0656 
L 412.824438 51.0656 
Q 408.824438 51.0656 408.824438 55.0656 
L 408.824438 98.337163 
Q 408.824438 102.337163 412.824438 102.337163 
z
" style="fill: #ffffff; opacity: 0.5; stroke: #000000; stroke-linejoin: miter"/>
    </g>
    <!-- Summary -->
    <g transform="translate(412.824438 62.664038) scale(0.1 -0.1)">
     <defs>
      <path id="DejaVuSans-53" d="M 3425 4513 
L 3425 3897 
Q 3066 4069 2747 4153 
Q 2428 4238 2131 4238 
Q 1616 4238 1336 4038 
Q 1056 3838 1056 3469 
Q 1056 3159 1242 3001 
Q 1428 2844 1947 2747 
L 2328 2669 
Q 3034 2534 3370 2195 
Q 3706 1856 3706 1288 
Q 3706 609 3251 259 
Q 2797 -91 1919 -91 
Q 1588 -91 1214 -16 
Q 841 59 441 206 
L 441 856 
Q 825 641 1194 531 
Q 1563 422 1919 422 
Q 2459 422 2753 634 
Q 3047 847 3047 1241 
Q 3047 1584 2836 1778 
Q 2625 1972 2144 2069 
L 1759 2144 
Q 1053 2284 737 2584 
Q 422 2884 422 3419 
Q 422 4038 858 4394 
Q 1294 4750 2059 4750 
Q 2388 4750 2728 4690 
Q 3069 4631 3425 4513 
z
" transform="scale(0.015625)"/>
      <path id="DejaVuSans-75" d="M 544 1381 
L 544 3500 
L 1119 3500 
L 1119 1403 
Q 1119 906 1312 657 
Q 1506 409 1894 409 
Q 2359 409 2629 706 
Q 2900 1003 2900 1516 
L 2900 3500 
L 3475 3500 
L 3475 0 
L 2900 0 
L 2900 538 
Q 2691 219 2414 64 
Q 2138 -91 1772 -91 
Q 1169 -91 856 284 
Q 544 659 544 1381 
z
M 1991 3584 
L 1991 3584 
z
" transform="scale(0.015625)"/>
      <path id="DejaVuSans-61" d="M 2194 1759 
Q 1497 1759 1228 1600 
Q 959 1441 959 1056 
Q 959 750 1161 570 
Q 1363 391 1709 391 
Q 2188 391 2477 730 
Q 2766 1069 2766 1631 
L 2766 1759 
L 2194 1759 
z
M 3341 1997 
L 3341 0 
L 2766 0 
L 2766 531 
Q 2569 213 2275 61 
Q 1981 -91 1556 -91 
Q 1019 -91 701 211 
Q 384 513 384 1019 
Q 384 1609 779 1909 
Q 1175 2209 1959 2209 
L 2766 2209 
L 2766 2266 
Q 2766 2663 2505 2880 
Q 2244 3097 1772 3097 
Q 1472 3097 1187 3025 
Q 903 2953 641 2809 
L 641 3341 
Q 956 3463 1253 3523 
Q 1550 3584 1831 3584 
Q 2591 3584 2966 3190 
Q 3341 2797 3341 1997 
z
" transform="scale(0.015625)"/>
      <path id="DejaVuSans-72" d="M 2631 2963 
Q 2534 3019 2420 3045 
Q 2306 3072 2169 3072 
Q 1681 3072 1420 2755 
Q 1159 2438 1159 1844 
L 1159 0 
L 581 0 
L 581 3500 
L 1159 3500 
L 1159 2956 
Q 1341 3275 1631 3429 
Q 1922 3584 2338 3584 
Q 2397 3584 2469 3576 
Q 2541 3569 2628 3553 
L 2631 2963 
z
" transform="scale(0.015625)"/>
      <path id="DejaVuSans-79" d="M 2059 -325 
Q 1816 -950 1584 -1140 
Q 1353 -1331 966 -1331 
L 506 -1331 
L 506 -850 
L 844 -850 
Q 1081 -850 1212 -737 
Q 1344 -625 1503 -206 
L 1606 56 
L 191 3500 
L 800 3500 
L 1894 763 
L 2988 3500 
L 3597 3500 
L 2059 -325 
z
" transform="scale(0.015625)"/>
     </defs>
     <use xlink:href="#DejaVuSans-53"/>
     <use xlink:href="#DejaVuSans-75" x="63.476562"/>
     <use xlink:href="#DejaVuSans-6d" x="126.855469"/>
     <use xlink:href="#DejaVuSans-6d" x="224.267578"/>
     <use xlink:href="#DejaVuSans-61" x="321.679688"/>
     <use xlink:href="#DejaVuSans-72" x="382.958984"/>
     <use xlink:href="#DejaVuSans-79" x="424.072266"/>
    </g>
    <!-- $Q_I$: 13.36$\pm$0.12 k -->
    <g transform="translate(412.824438 73.86185) scale(0.1 -0.1)">
     <defs>
      <path id="DejaVuSans-Oblique-51" d="M 2309 -84 
Q 2275 -88 2237 -89 
Q 2200 -91 2125 -91 
Q 1250 -91 756 411 
Q 263 913 263 1797 
Q 263 2319 452 2844 
Q 641 3369 978 3788 
Q 1369 4269 1858 4509 
Q 2347 4750 2938 4750 
Q 3794 4750 4287 4245 
Q 4781 3741 4781 2869 
Q 4781 1928 4265 1147 
Q 3750 366 2919 44 
L 3553 -825 
L 2847 -825 
L 2309 -84 
z
M 2919 4238 
Q 2400 4238 2003 3986 
Q 1606 3734 1313 3219 
Q 1125 2891 1026 2522 
Q 928 2153 928 1778 
Q 928 1128 1239 775 
Q 1550 422 2119 422 
Q 2631 422 3032 676 
Q 3434 931 3719 1434 
Q 3909 1772 4009 2142 
Q 4109 2513 4109 2881 
Q 4109 3528 3796 3883 
Q 3484 4238 2919 4238 
z
" transform="scale(0.015625)"/>
      <path id="DejaVuSans-Oblique-49" d="M 1081 4666 
L 1716 4666 
L 806 0 
L 172 0 
L 1081 4666 
z
" transform="scale(0.015625)"/>
      <path id="DejaVuSans-3a" d="M 750 794 
L 1409 794 
L 1409 0 
L 750 0 
L 750 794 
z
M 750 3309 
L 1409 3309 
L 1409 2516 
L 750 2516 
L 750 3309 
z
" transform="scale(0.015625)"/>
      <path id="DejaVuSans-2e" d="M 684 794 
L 1344 794 
L 1344 0 
L 684 0 
L 684 794 
z
" transform="scale(0.015625)"/>
      <path id="DejaVuSans-b1" d="M 2944 4013 
L 2944 2803 
L 4684 2803 
L 4684 2272 
L 2944 2272 
L 2944 1063 
L 2419 1063 
L 2419 2272 
L 678 2272 
L 678 2803 
L 2419 2803 
L 2419 4013 
L 2944 4013 
z
M 678 531 
L 4684 531 
L 4684 0 
L 678 0 
L 678 531 
z
" transform="scale(0.015625)"/>
      <path id="DejaVuSans-6b" d="M 581 4863 
L 1159 4863 
L 1159 1991 
L 2875 3500 
L 3609 3500 
L 1753 1863 
L 3688 0 
L 2938 0 
L 1159 1709 
L 1159 0 
L 581 0 
L 581 4863 
z
" transform="scale(0.015625)"/>
     </defs>
     <use xlink:href="#DejaVuSans-Oblique-51" transform="translate(0 0.015625)"/>
     <use xlink:href="#DejaVuSans-Oblique-49" transform="translate(78.710938 -16.390625) scale(0.7)"/>
     <use xlink:href="#DejaVuSans-3a" transform="translate(102.089844 0.015625)"/>
     <use xlink:href="#DejaVuSans-20" transform="translate(135.78125 0.015625)"/>
     <use xlink:href="#DejaVuSans-31" transform="translate(167.568359 0.015625)"/>
     <use xlink:href="#DejaVuSans-33" transform="translate(231.191406 0.015625)"/>
     <use xlink:href="#DejaVuSans-2e" transform="translate(294.814453 0.015625)"/>
     <use xlink:href="#DejaVuSans-33" transform="translate(326.601562 0.015625)"/>
     <use xlink:href="#DejaVuSans-36" transform="translate(390.224609 0.015625)"/>
     <use xlink:href="#DejaVuSans-b1" transform="translate(453.847656 0.015625)"/>
     <use xlink:href="#DejaVuSans-30" transform="translate(537.636719 0.015625)"/>
     <use xlink:href="#DejaVuSans-2e" transform="translate(601.259766 0.015625)"/>
     <use xlink:href="#DejaVuSans-31" transform="translate(633.046875 0.015625)"/>
     <use xlink:href="#DejaVuSans-32" transform="translate(696.669922 0.015625)"/>
     <use xlink:href="#DejaVuSans-20" transform="translate(760.292969 0.015625)"/>
     <use xlink:href="#DejaVuSans-6b" transform="translate(792.080078 0.015625)"/>
    </g>
    <!-- $Q_C$: 3.244$\pm$0.025 k -->
    <g transform="translate(412.824438 85.059663) scale(0.1 -0.1)">
     <defs>
      <path id="DejaVuSans-Oblique-43" d="M 4447 4306 
L 4319 3641 
Q 4019 3944 3683 4091 
Q 3347 4238 2956 4238 
Q 2422 4238 2017 3981 
Q 1613 3725 1319 3200 
Q 1131 2863 1032 2486 
Q 934 2109 934 1728 
Q 934 1091 1264 756 
Q 1594 422 2222 422 
Q 2656 422 3056 561 
Q 3456 700 3834 978 
L 3688 231 
Q 3316 72 2936 -9 
Q 2556 -91 2175 -91 
Q 1278 -91 773 396 
Q 269 884 269 1753 
Q 269 2309 461 2846 
Q 653 3384 1013 3828 
Q 1394 4300 1883 4525 
Q 2372 4750 3022 4750 
Q 3422 4750 3780 4639 
Q 4138 4528 4447 4306 
z
" transform="scale(0.015625)"/>
     </defs>
     <use xlink:href="#DejaVuSans-Oblique-51" transform="translate(0 0.015625)"/>
     <use xlink:href="#DejaVuSans-Oblique-43" transform="translate(78.710938 -16.390625) scale(0.7)"/>
     <use xlink:href="#DejaVuSans-3a" transform="translate(130.322266 0.015625)"/>
     <use xlink:href="#DejaVuSans-20" transform="translate(164.013672 0.015625)"/>
     <use xlink:href="#DejaVuSans-33" transform="translate(195.800781 0.015625)"/>
     <use xlink:href="#DejaVuSans-2e" transform="translate(259.423828 0.015625)"/>
     <use xlink:href="#DejaVuSans-32" transform="translate(285.710938 0.015625)"/>
     <use xlink:href="#DejaVuSans-34" transform="translate(349.333984 0.015625)"/>
     <use xlink:href="#DejaVuSans-34" transform="translate(412.957031 0.015625)"/>
     <use xlink:href="#DejaVuSans-b1" transform="translate(476.580078 0.015625)"/>
     <use xlink:href="#DejaVuSans-30" transform="translate(560.369141 0.015625)"/>
     <use xlink:href="#DejaVuSans-2e" transform="translate(623.992188 0.015625)"/>
     <use xlink:href="#DejaVuSans-30" transform="translate(655.779297 0.015625)"/>
     <use xlink:href="#DejaVuSans-32" transform="translate(719.402344 0.015625)"/>
     <use xlink:href="#DejaVuSans-35" transform="translate(783.025391 0.015625)"/>
     <use xlink:href="#DejaVuSans-20" transform="translate(846.648438 0.015625)"/>
     <use xlink:href="#DejaVuSans-6b" transform="translate(878.435547 0.015625)"/>
    </g>
    <!-- $f_{res}$: 5.8376061$\pm$6.8e-06 GHz -->
    <g transform="translate(412.824438 96.257475) scale(0.1 -0.1)">
     <defs>
      <path id="DejaVuSans-Oblique-66" d="M 3059 4863 
L 2969 4384 
L 2419 4384 
Q 2106 4384 1964 4261 
Q 1822 4138 1753 3809 
L 1691 3500 
L 2638 3500 
L 2553 3053 
L 1606 3053 
L 1013 0 
L 434 0 
L 1031 3053 
L 481 3053 
L 563 3500 
L 1113 3500 
L 1159 3744 
Q 1278 4363 1576 4613 
Q 1875 4863 2516 4863 
L 3059 4863 
z
" transform="scale(0.015625)"/>
      <path id="DejaVuSans-Oblique-72" d="M 2853 2969 
Q 2766 3016 2653 3041 
Q 2541 3066 2413 3066 
Q 1953 3066 1609 2717 
Q 1266 2369 1153 1784 
L 800 0 
L 225 0 
L 909 3500 
L 1484 3500 
L 1375 2956 
Q 1603 3259 1920 3421 
Q 2238 3584 2597 3584 
Q 2691 3584 2781 3573 
Q 2872 3563 2963 3538 
L 2853 2969 
z
" transform="scale(0.015625)"/>
      <path id="DejaVuSans-Oblique-65" d="M 3078 2063 
Q 3088 2113 3092 2166 
Q 3097 2219 3097 2272 
Q 3097 2653 2873 2875 
Q 2650 3097 2266 3097 
Q 1838 3097 1509 2826 
Q 1181 2556 1013 2059 
L 3078 2063 
z
M 3578 1613 
L 903 1613 
Q 884 1494 878 1425 
Q 872 1356 872 1306 
Q 872 872 1139 634 
Q 1406 397 1894 397 
Q 2269 397 2603 481 
Q 2938 566 3225 728 
L 3116 159 
Q 2806 34 2476 -28 
Q 2147 -91 1806 -91 
Q 1078 -91 686 257 
Q 294 606 294 1247 
Q 294 1794 489 2264 
Q 684 2734 1063 3103 
Q 1306 3334 1642 3459 
Q 1978 3584 2356 3584 
Q 2950 3584 3301 3228 
Q 3653 2872 3653 2272 
Q 3653 2128 3634 1964 
Q 3616 1800 3578 1613 
z
" transform="scale(0.015625)"/>
      <path id="DejaVuSans-Oblique-73" d="M 3200 3397 
L 3091 2853 
Q 2863 2978 2609 3040 
Q 2356 3103 2088 3103 
Q 1634 3103 1373 2948 
Q 1113 2794 1113 2528 
Q 1113 2219 1719 2053 
Q 1766 2041 1788 2034 
L 1972 1978 
Q 2547 1819 2739 1644 
Q 2931 1469 2931 1166 
Q 2931 609 2489 259 
Q 2047 -91 1331 -91 
Q 1053 -91 747 -37 
Q 441 16 72 128 
L 184 722 
Q 500 559 806 475 
Q 1113 391 1394 391 
Q 1816 391 2080 572 
Q 2344 753 2344 1031 
Q 2344 1331 1650 1516 
L 1591 1531 
L 1394 1581 
Q 956 1697 753 1886 
Q 550 2075 550 2369 
Q 550 2928 970 3256 
Q 1391 3584 2113 3584 
Q 2397 3584 2667 3537 
Q 2938 3491 3200 3397 
z
" transform="scale(0.015625)"/>
      <path id="DejaVuSans-38" d="M 2034 2216 
Q 1584 2216 1326 1975 
Q 1069 1734 1069 1313 
Q 1069 891 1326 650 
Q 1584 409 2034 409 
Q 2484 409 2743 651 
Q 3003 894 3003 1313 
Q 3003 1734 2745 1975 
Q 2488 2216 2034 2216 
z
M 1403 2484 
Q 997 2584 770 2862 
Q 544 3141 544 3541 
Q 544 4100 942 4425 
Q 1341 4750 2034 4750 
Q 2731 4750 3128 4425 
Q 3525 4100 3525 3541 
Q 3525 3141 3298 2862 
Q 3072 2584 2669 2484 
Q 3125 2378 3379 2068 
Q 3634 1759 3634 1313 
Q 3634 634 3220 271 
Q 2806 -91 2034 -91 
Q 1263 -91 848 271 
Q 434 634 434 1313 
Q 434 1759 690 2068 
Q 947 2378 1403 2484 
z
M 1172 3481 
Q 1172 3119 1398 2916 
Q 1625 2713 2034 2713 
Q 2441 2713 2670 2916 
Q 2900 3119 2900 3481 
Q 2900 3844 2670 4047 
Q 2441 4250 2034 4250 
Q 1625 4250 1398 4047 
Q 1172 3844 1172 3481 
z
" transform="scale(0.015625)"/>
      <path id="DejaVuSans-47" d="M 3809 666 
L 3809 1919 
L 2778 1919 
L 2778 2438 
L 4434 2438 
L 4434 434 
Q 4069 175 3628 42 
Q 3188 -91 2688 -91 
Q 1594 -91 976 548 
Q 359 1188 359 2328 
Q 359 3472 976 4111 
Q 1594 4750 2688 4750 
Q 3144 4750 3555 4637 
Q 3966 4525 4313 4306 
L 4313 3634 
Q 3963 3931 3569 4081 
Q 3175 4231 2741 4231 
Q 1884 4231 1454 3753 
Q 1025 3275 1025 2328 
Q 1025 1384 1454 906 
Q 1884 428 2741 428 
Q 3075 428 3337 486 
Q 3600 544 3809 666 
z
" transform="scale(0.015625)"/>
      <path id="DejaVuSans-48" d="M 628 4666 
L 1259 4666 
L 1259 2753 
L 3553 2753 
L 3553 4666 
L 4184 4666 
L 4184 0 
L 3553 0 
L 3553 2222 
L 1259 2222 
L 1259 0 
L 628 0 
L 628 4666 
z
" transform="scale(0.015625)"/>
      <path id="DejaVuSans-7a" d="M 353 3500 
L 3084 3500 
L 3084 2975 
L 922 459 
L 3084 459 
L 3084 0 
L 275 0 
L 275 525 
L 2438 3041 
L 353 3041 
L 353 3500 
z
" transform="scale(0.015625)"/>
     </defs>
     <use xlink:href="#DejaVuSans-Oblique-66" transform="translate(0 0.015625)"/>
     <use xlink:href="#DejaVuSans-Oblique-72" transform="translate(35.205078 -16.390625) scale(0.7)"/>
     <use xlink:href="#DejaVuSans-Oblique-65" transform="translate(63.984375 -16.390625) scale(0.7)"/>
     <use xlink:href="#DejaVuSans-Oblique-73" transform="translate(107.050781 -16.390625) scale(0.7)"/>
     <use xlink:href="#DejaVuSans-3a" transform="translate(146.254883 0.015625)"/>
     <use xlink:href="#DejaVuSans-20" transform="translate(179.946289 0.015625)"/>
     <use xlink:href="#DejaVuSans-35" transform="translate(211.733398 0.015625)"/>
     <use xlink:href="#DejaVuSans-2e" transform="translate(275.356445 0.015625)"/>
     <use xlink:href="#DejaVuSans-38" transform="translate(304.518555 0.015625)"/>
     <use xlink:href="#DejaVuSans-33" transform="translate(368.141602 0.015625)"/>
     <use xlink:href="#DejaVuSans-37" transform="translate(431.764648 0.015625)"/>
     <use xlink:href="#DejaVuSans-36" transform="translate(495.387695 0.015625)"/>
     <use xlink:href="#DejaVuSans-30" transform="translate(559.010742 0.015625)"/>
     <use xlink:href="#DejaVuSans-36" transform="translate(622.633789 0.015625)"/>
     <use xlink:href="#DejaVuSans-31" transform="translate(686.256836 0.015625)"/>
     <use xlink:href="#DejaVuSans-b1" transform="translate(749.879883 0.015625)"/>
     <use xlink:href="#DejaVuSans-36" transform="translate(833.668945 0.015625)"/>
     <use xlink:href="#DejaVuSans-2e" transform="translate(897.291992 0.015625)"/>
     <use xlink:href="#DejaVuSans-38" transform="translate(926.454102 0.015625)"/>
     <use xlink:href="#DejaVuSans-65" transform="translate(990.077148 0.015625)"/>
     <use xlink:href="#DejaVuSans-2d" transform="translate(1051.600586 0.015625)"/>
     <use xlink:href="#DejaVuSans-30" transform="translate(1087.68457 0.015625)"/>
     <use xlink:href="#DejaVuSans-36" transform="translate(1151.307617 0.015625)"/>
     <use xlink:href="#DejaVuSans-20" transform="translate(1214.930664 0.015625)"/>
     <use xlink:href="#DejaVuSans-47" transform="translate(1246.717773 0.015625)"/>
     <use xlink:href="#DejaVuSans-48" transform="translate(1324.208008 0.015625)"/>
     <use xlink:href="#DejaVuSans-7a" transform="translate(1399.40332 0.015625)"/>
    </g>
   </g>
  </g>
  <g id="text_21">
   <!-- S21 resonator spectroscopy -->
   <g transform="translate(126.864063 16.318125) scale(0.12 -0.12)">
    <defs>
     <path id="DejaVuSans-73" d="M 2834 3397 
L 2834 2853 
Q 2591 2978 2328 3040 
Q 2066 3103 1784 3103 
Q 1356 3103 1142 2972 
Q 928 2841 928 2578 
Q 928 2378 1081 2264 
Q 1234 2150 1697 2047 
L 1894 2003 
Q 2506 1872 2764 1633 
Q 3022 1394 3022 966 
Q 3022 478 2636 193 
Q 2250 -91 1575 -91 
Q 1294 -91 989 -36 
Q 684 19 347 128 
L 347 722 
Q 666 556 975 473 
Q 1284 391 1588 391 
Q 1994 391 2212 530 
Q 2431 669 2431 922 
Q 2431 1156 2273 1281 
Q 2116 1406 1581 1522 
L 1381 1569 
Q 847 1681 609 1914 
Q 372 2147 372 2553 
Q 372 3047 722 3315 
Q 1072 3584 1716 3584 
Q 2034 3584 2315 3537 
Q 2597 3491 2834 3397 
z
" transform="scale(0.015625)"/>
     <path id="DejaVuSans-6f" d="M 1959 3097 
Q 1497 3097 1228 2736 
Q 959 2375 959 1747 
Q 959 1119 1226 758 
Q 1494 397 1959 397 
Q 2419 397 2687 759 
Q 2956 1122 2956 1747 
Q 2956 2369 2687 2733 
Q 2419 3097 1959 3097 
z
M 1959 3584 
Q 2709 3584 3137 3096 
Q 3566 2609 3566 1747 
Q 3566 888 3137 398 
Q 2709 -91 1959 -91 
Q 1206 -91 779 398 
Q 353 888 353 1747 
Q 353 2609 779 3096 
Q 1206 3584 1959 3584 
z
" transform="scale(0.015625)"/>
     <path id="DejaVuSans-6e" d="M 3513 2113 
L 3513 0 
L 2938 0 
L 2938 2094 
Q 2938 2591 2744 2837 
Q 2550 3084 2163 3084 
Q 1697 3084 1428 2787 
Q 1159 2491 1159 1978 
L 1159 0 
L 581 0 
L 581 3500 
L 1159 3500 
L 1159 2956 
Q 1366 3272 1645 3428 
Q 1925 3584 2291 3584 
Q 2894 3584 3203 3211 
Q 3513 2838 3513 2113 
z
" transform="scale(0.015625)"/>
     <path id="DejaVuSans-74" d="M 1172 4494 
L 1172 3500 
L 2356 3500 
L 2356 3053 
L 1172 3053 
L 1172 1153 
Q 1172 725 1289 603 
Q 1406 481 1766 481 
L 2356 481 
L 2356 0 
L 1766 0 
Q 1100 0 847 248 
Q 594 497 594 1153 
L 594 3053 
L 172 3053 
L 172 3500 
L 594 3500 
L 594 4494 
L 1172 4494 
z
" transform="scale(0.015625)"/>
     <path id="DejaVuSans-70" d="M 1159 525 
L 1159 -1331 
L 581 -1331 
L 581 3500 
L 1159 3500 
L 1159 2969 
Q 1341 3281 1617 3432 
Q 1894 3584 2278 3584 
Q 2916 3584 3314 3078 
Q 3713 2572 3713 1747 
Q 3713 922 3314 415 
Q 2916 -91 2278 -91 
Q 1894 -91 1617 61 
Q 1341 213 1159 525 
z
M 3116 1747 
Q 3116 2381 2855 2742 
Q 2594 3103 2138 3103 
Q 1681 3103 1420 2742 
Q 1159 2381 1159 1747 
Q 1159 1113 1420 752 
Q 1681 391 2138 391 
Q 2594 391 2855 752 
Q 3116 1113 3116 1747 
z
" transform="scale(0.015625)"/>
     <path id="DejaVuSans-63" d="M 3122 3366 
L 3122 2828 
Q 2878 2963 2633 3030 
Q 2388 3097 2138 3097 
Q 1578 3097 1268 2742 
Q 959 2388 959 1747 
Q 959 1106 1268 751 
Q 1578 397 2138 397 
Q 2388 397 2633 464 
Q 2878 531 3122 666 
L 3122 134 
Q 2881 22 2623 -34 
Q 2366 -91 2075 -91 
Q 1284 -91 818 406 
Q 353 903 353 1747 
Q 353 2603 823 3093 
Q 1294 3584 2113 3584 
Q 2378 3584 2631 3529 
Q 2884 3475 3122 3366 
z
" transform="scale(0.015625)"/>
    </defs>
    <use xlink:href="#DejaVuSans-53"/>
    <use xlink:href="#DejaVuSans-32" x="63.476562"/>
    <use xlink:href="#DejaVuSans-31" x="127.099609"/>
    <use xlink:href="#DejaVuSans-20" x="190.722656"/>
    <use xlink:href="#DejaVuSans-72" x="222.509766"/>
    <use xlink:href="#DejaVuSans-65" x="261.373047"/>
    <use xlink:href="#DejaVuSans-73" x="322.896484"/>
    <use xlink:href="#DejaVuSans-6f" x="374.996094"/>
    <use xlink:href="#DejaVuSans-6e" x="436.177734"/>
    <use xlink:href="#DejaVuSans-61" x="499.556641"/>
    <use xlink:href="#DejaVuSans-74" x="560.835938"/>
    <use xlink:href="#DejaVuSans-6f" x="600.044922"/>
    <use xlink:href="#DejaVuSans-72" x="661.226562"/>
    <use xlink:href="#DejaVuSans-20" x="702.339844"/>
    <use xlink:href="#DejaVuSans-73" x="734.126953"/>
    <use xlink:href="#DejaVuSans-70" x="786.226562"/>
    <use xlink:href="#DejaVuSans-65" x="849.703125"/>
    <use xlink:href="#DejaVuSans-63" x="911.226562"/>
    <use xlink:href="#DejaVuSans-74" x="966.207031"/>
    <use xlink:href="#DejaVuSans-72" x="1005.416016"/>
    <use xlink:href="#DejaVuSans-6f" x="1044.279297"/>
    <use xlink:href="#DejaVuSans-73" x="1105.460938"/>
    <use xlink:href="#DejaVuSans-63" x="1157.560547"/>
    <use xlink:href="#DejaVuSans-6f" x="1212.541016"/>
    <use xlink:href="#DejaVuSans-70" x="1273.722656"/>
    <use xlink:href="#DejaVuSans-79" x="1337.199219"/>
   </g>
   <!-- tuid: 20231227-185118-275-e26e6e -->
   <g transform="translate(101.17 29.7555) scale(0.12 -0.12)">
    <defs>
     <path id="DejaVuSans-69" d="M 603 3500 
L 1178 3500 
L 1178 0 
L 603 0 
L 603 3500 
z
M 603 4863 
L 1178 4863 
L 1178 4134 
L 603 4134 
L 603 4863 
z
" transform="scale(0.015625)"/>
     <path id="DejaVuSans-64" d="M 2906 2969 
L 2906 4863 
L 3481 4863 
L 3481 0 
L 2906 0 
L 2906 525 
Q 2725 213 2448 61 
Q 2172 -91 1784 -91 
Q 1150 -91 751 415 
Q 353 922 353 1747 
Q 353 2572 751 3078 
Q 1150 3584 1784 3584 
Q 2172 3584 2448 3432 
Q 2725 3281 2906 2969 
z
M 947 1747 
Q 947 1113 1208 752 
Q 1469 391 1925 391 
Q 2381 391 2643 752 
Q 2906 1113 2906 1747 
Q 2906 2381 2643 2742 
Q 2381 3103 1925 3103 
Q 1469 3103 1208 2742 
Q 947 2381 947 1747 
z
" transform="scale(0.015625)"/>
    </defs>
    <use xlink:href="#DejaVuSans-74"/>
    <use xlink:href="#DejaVuSans-75" x="39.208984"/>
    <use xlink:href="#DejaVuSans-69" x="102.587891"/>
    <use xlink:href="#DejaVuSans-64" x="130.371094"/>
    <use xlink:href="#DejaVuSans-3a" x="193.847656"/>
    <use xlink:href="#DejaVuSans-20" x="227.539062"/>
    <use xlink:href="#DejaVuSans-32" x="259.326172"/>
    <use xlink:href="#DejaVuSans-30" x="322.949219"/>
    <use xlink:href="#DejaVuSans-32" x="386.572266"/>
    <use xlink:href="#DejaVuSans-33" x="450.195312"/>
    <use xlink:href="#DejaVuSans-31" x="513.818359"/>
    <use xlink:href="#DejaVuSans-32" x="577.441406"/>
    <use xlink:href="#DejaVuSans-32" x="641.064453"/>
    <use xlink:href="#DejaVuSans-37" x="704.6875"/>
    <use xlink:href="#DejaVuSans-2d" x="768.310547"/>
    <use xlink:href="#DejaVuSans-31" x="804.394531"/>
    <use xlink:href="#DejaVuSans-38" x="868.017578"/>
    <use xlink:href="#DejaVuSans-35" x="931.640625"/>
    <use xlink:href="#DejaVuSans-31" x="995.263672"/>
    <use xlink:href="#DejaVuSans-31" x="1058.886719"/>
    <use xlink:href="#DejaVuSans-38" x="1122.509766"/>
    <use xlink:href="#DejaVuSans-2d" x="1186.132812"/>
    <use xlink:href="#DejaVuSans-32" x="1222.216797"/>
    <use xlink:href="#DejaVuSans-37" x="1285.839844"/>
    <use xlink:href="#DejaVuSans-35" x="1349.462891"/>
    <use xlink:href="#DejaVuSans-2d" x="1413.085938"/>
    <use xlink:href="#DejaVuSans-65" x="1449.169922"/>
    <use xlink:href="#DejaVuSans-32" x="1510.693359"/>
    <use xlink:href="#DejaVuSans-36" x="1574.316406"/>
    <use xlink:href="#DejaVuSans-65" x="1637.939453"/>
    <use xlink:href="#DejaVuSans-36" x="1699.462891"/>
    <use xlink:href="#DejaVuSans-65" x="1763.085938"/>
   </g>
  </g>
 </g>
 <defs>
  <clipPath id="p67a5331f7d">
   <rect x="37.848438" y="41.76" width="357.12" height="266.112"/>
  </clipPath>
 </defs>
</svg>
