<?xml version="1.0" encoding="utf-8" standalone="no"?>
<!DOCTYPE svg PUBLIC "-//W3C//DTD SVG 1.1//EN"
  "http://www.w3.org/Graphics/SVG/1.1/DTD/svg11.dtd">
<svg xmlns:xlink="http://www.w3.org/1999/xlink" width="577.971312pt" height="345.42825pt" viewBox="0 0 577.971312 345.42825" xmlns="http://www.w3.org/2000/svg" version="1.1">
 <metadata>
  <rdf:RDF xmlns:dc="http://purl.org/dc/elements/1.1/" xmlns:cc="http://creativecommons.org/ns#" xmlns:rdf="http://www.w3.org/1999/02/22-rdf-syntax-ns#">
   <cc:Work>
    <dc:type rdf:resource="http://purl.org/dc/dcmitype/StillImage"/>
    <dc:date>2023-12-27T19:34:16.896459</dc:date>
    <dc:format>image/svg+xml</dc:format>
    <dc:creator>
     <cc:Agent>
      <dc:title>Matplotlib v3.8.2, https://matplotlib.org/</dc:title>
     </cc:Agent>
    </dc:creator>
   </cc:Work>
  </rdf:RDF>
 </metadata>
 <defs>
  <style type="text/css">*{stroke-linejoin: round; stroke-linecap: butt}</style>
 </defs>
 <g id="figure_1">
  <g id="patch_1">
   <path d="M 0 345.42825 
L 577.971312 345.42825 
L 577.971312 -0 
L 0 -0 
L 0 345.42825 
z
" style="fill: none; opacity: 0"/>
  </g>
  <g id="axes_1">
   <g id="patch_2">
    <path d="M 50.595313 162.72 
L 407.715312 162.72 
L 407.715312 41.76 
L 50.595313 41.76 
z
" style="fill: #ffffff"/>
   </g>
   <g id="matplotlib.axis_1">
    <g id="xtick_1">
     <g id="line2d_1">
      <defs>
       <path id="m01ef6e6afc" d="M 0 0 
L 0 3.5 
" style="stroke: #000000; stroke-width: 0.8"/>
      </defs>
      <g>
       <use xlink:href="#m01ef6e6afc" x="102.54004" y="162.72" style="stroke: #000000; stroke-width: 0.8"/>
      </g>
     </g>
    </g>
    <g id="xtick_2">
     <g id="line2d_2">
      <g>
       <use xlink:href="#m01ef6e6afc" x="167.470949" y="162.72" style="stroke: #000000; stroke-width: 0.8"/>
      </g>
     </g>
    </g>
    <g id="xtick_3">
     <g id="line2d_3">
      <g>
       <use xlink:href="#m01ef6e6afc" x="232.401858" y="162.72" style="stroke: #000000; stroke-width: 0.8"/>
      </g>
     </g>
    </g>
    <g id="xtick_4">
     <g id="line2d_4">
      <g>
       <use xlink:href="#m01ef6e6afc" x="297.332767" y="162.72" style="stroke: #000000; stroke-width: 0.8"/>
      </g>
     </g>
    </g>
    <g id="xtick_5">
     <g id="line2d_5">
      <g>
       <use xlink:href="#m01ef6e6afc" x="362.263676" y="162.72" style="stroke: #000000; stroke-width: 0.8"/>
      </g>
     </g>
    </g>
   </g>
   <g id="matplotlib.axis_2">
    <g id="ytick_1">
     <g id="line2d_6">
      <defs>
       <path id="m23e025d6a2" d="M 0 0 
L -3.5 0 
" style="stroke: #000000; stroke-width: 0.8"/>
      </defs>
      <g>
       <use xlink:href="#m23e025d6a2" x="50.595313" y="158.609019" style="stroke: #000000; stroke-width: 0.8"/>
      </g>
     </g>
     <g id="text_1">
      <!-- 2 -->
      <g transform="translate(37.232813 162.408238) scale(0.1 -0.1)">
       <defs>
        <path id="DejaVuSans-32" d="M 1228 531 
L 3431 531 
L 3431 0 
L 469 0 
L 469 531 
Q 828 903 1448 1529 
Q 2069 2156 2228 2338 
Q 2531 2678 2651 2914 
Q 2772 3150 2772 3378 
Q 2772 3750 2511 3984 
Q 2250 4219 1831 4219 
Q 1534 4219 1204 4116 
Q 875 4013 500 3803 
L 500 4441 
Q 881 4594 1212 4672 
Q 1544 4750 1819 4750 
Q 2544 4750 2975 4387 
Q 3406 4025 3406 3419 
Q 3406 3131 3298 2873 
Q 3191 2616 2906 2266 
Q 2828 2175 2409 1742 
Q 1991 1309 1228 531 
z
" transform="scale(0.015625)"/>
       </defs>
       <use xlink:href="#DejaVuSans-32"/>
      </g>
     </g>
    </g>
    <g id="ytick_2">
     <g id="line2d_7">
      <g>
       <use xlink:href="#m23e025d6a2" x="50.595313" y="133.215359" style="stroke: #000000; stroke-width: 0.8"/>
      </g>
     </g>
     <g id="text_2">
      <!-- 4 -->
      <g transform="translate(37.232813 137.014577) scale(0.1 -0.1)">
       <defs>
        <path id="DejaVuSans-34" d="M 2419 4116 
L 825 1625 
L 2419 1625 
L 2419 4116 
z
M 2253 4666 
L 3047 4666 
L 3047 1625 
L 3713 1625 
L 3713 1100 
L 3047 1100 
L 3047 0 
L 2419 0 
L 2419 1100 
L 313 1100 
L 313 1709 
L 2253 4666 
z
" transform="scale(0.015625)"/>
       </defs>
       <use xlink:href="#DejaVuSans-34"/>
      </g>
     </g>
    </g>
    <g id="ytick_3">
     <g id="line2d_8">
      <g>
       <use xlink:href="#m23e025d6a2" x="50.595313" y="107.821698" style="stroke: #000000; stroke-width: 0.8"/>
      </g>
     </g>
     <g id="text_3">
      <!-- 6 -->
      <g transform="translate(37.232813 111.620917) scale(0.1 -0.1)">
       <defs>
        <path id="DejaVuSans-36" d="M 2113 2584 
Q 1688 2584 1439 2293 
Q 1191 2003 1191 1497 
Q 1191 994 1439 701 
Q 1688 409 2113 409 
Q 2538 409 2786 701 
Q 3034 994 3034 1497 
Q 3034 2003 2786 2293 
Q 2538 2584 2113 2584 
z
M 3366 4563 
L 3366 3988 
Q 3128 4100 2886 4159 
Q 2644 4219 2406 4219 
Q 1781 4219 1451 3797 
Q 1122 3375 1075 2522 
Q 1259 2794 1537 2939 
Q 1816 3084 2150 3084 
Q 2853 3084 3261 2657 
Q 3669 2231 3669 1497 
Q 3669 778 3244 343 
Q 2819 -91 2113 -91 
Q 1303 -91 875 529 
Q 447 1150 447 2328 
Q 447 3434 972 4092 
Q 1497 4750 2381 4750 
Q 2619 4750 2861 4703 
Q 3103 4656 3366 4563 
z
" transform="scale(0.015625)"/>
       </defs>
       <use xlink:href="#DejaVuSans-36"/>
      </g>
     </g>
    </g>
    <g id="ytick_4">
     <g id="line2d_9">
      <g>
       <use xlink:href="#m23e025d6a2" x="50.595313" y="82.428037" style="stroke: #000000; stroke-width: 0.8"/>
      </g>
     </g>
     <g id="text_4">
      <!-- 8 -->
      <g transform="translate(37.232813 86.227256) scale(0.1 -0.1)">
       <defs>
        <path id="DejaVuSans-38" d="M 2034 2216 
Q 1584 2216 1326 1975 
Q 1069 1734 1069 1313 
Q 1069 891 1326 650 
Q 1584 409 2034 409 
Q 2484 409 2743 651 
Q 3003 894 3003 1313 
Q 3003 1734 2745 1975 
Q 2488 2216 2034 2216 
z
M 1403 2484 
Q 997 2584 770 2862 
Q 544 3141 544 3541 
Q 544 4100 942 4425 
Q 1341 4750 2034 4750 
Q 2731 4750 3128 4425 
Q 3525 4100 3525 3541 
Q 3525 3141 3298 2862 
Q 3072 2584 2669 2484 
Q 3125 2378 3379 2068 
Q 3634 1759 3634 1313 
Q 3634 634 3220 271 
Q 2806 -91 2034 -91 
Q 1263 -91 848 271 
Q 434 634 434 1313 
Q 434 1759 690 2068 
Q 947 2378 1403 2484 
z
M 1172 3481 
Q 1172 3119 1398 2916 
Q 1625 2713 2034 2713 
Q 2441 2713 2670 2916 
Q 2900 3119 2900 3481 
Q 2900 3844 2670 4047 
Q 2441 4250 2034 4250 
Q 1625 4250 1398 4047 
Q 1172 3844 1172 3481 
z
" transform="scale(0.015625)"/>
       </defs>
       <use xlink:href="#DejaVuSans-38"/>
      </g>
     </g>
    </g>
    <g id="ytick_5">
     <g id="line2d_10">
      <g>
       <use xlink:href="#m23e025d6a2" x="50.595313" y="57.034376" style="stroke: #000000; stroke-width: 0.8"/>
      </g>
     </g>
     <g id="text_5">
      <!-- 10 -->
      <g transform="translate(30.870313 60.833595) scale(0.1 -0.1)">
       <defs>
        <path id="DejaVuSans-31" d="M 794 531 
L 1825 531 
L 1825 4091 
L 703 3866 
L 703 4441 
L 1819 4666 
L 2450 4666 
L 2450 531 
L 3481 531 
L 3481 0 
L 794 0 
L 794 531 
z
" transform="scale(0.015625)"/>
        <path id="DejaVuSans-30" d="M 2034 4250 
Q 1547 4250 1301 3770 
Q 1056 3291 1056 2328 
Q 1056 1369 1301 889 
Q 1547 409 2034 409 
Q 2525 409 2770 889 
Q 3016 1369 3016 2328 
Q 3016 3291 2770 3770 
Q 2525 4250 2034 4250 
z
M 2034 4750 
Q 2819 4750 3233 4129 
Q 3647 3509 3647 2328 
Q 3647 1150 3233 529 
Q 2819 -91 2034 -91 
Q 1250 -91 836 529 
Q 422 1150 422 2328 
Q 422 3509 836 4129 
Q 1250 4750 2034 4750 
z
" transform="scale(0.015625)"/>
       </defs>
       <use xlink:href="#DejaVuSans-31"/>
       <use xlink:href="#DejaVuSans-30" x="63.623047"/>
      </g>
     </g>
    </g>
    <g id="text_6">
     <!-- $|S_{21}|$ [mV] -->
     <g transform="translate(24.470313 127.19) rotate(-90) scale(0.1 -0.1)">
      <defs>
       <path id="DejaVuSans-7c" d="M 1344 4891 
L 1344 -1509 
L 813 -1509 
L 813 4891 
L 1344 4891 
z
" transform="scale(0.015625)"/>
       <path id="DejaVuSans-Oblique-53" d="M 3859 4513 
L 3738 3897 
Q 3422 4066 3111 4152 
Q 2800 4238 2509 4238 
Q 1944 4238 1609 3991 
Q 1275 3744 1275 3334 
Q 1275 3109 1398 2989 
Q 1522 2869 2034 2731 
L 2413 2638 
Q 3053 2472 3303 2217 
Q 3553 1963 3553 1503 
Q 3553 797 2998 353 
Q 2444 -91 1538 -91 
Q 1166 -91 791 -17 
Q 416 56 38 206 
L 166 856 
Q 513 641 861 531 
Q 1209 422 1556 422 
Q 2147 422 2503 684 
Q 2859 947 2859 1369 
Q 2859 1650 2717 1795 
Q 2575 1941 2106 2059 
L 1728 2156 
Q 1081 2325 845 2545 
Q 609 2766 609 3163 
Q 609 3859 1145 4304 
Q 1681 4750 2541 4750 
Q 2875 4750 3203 4690 
Q 3531 4631 3859 4513 
z
" transform="scale(0.015625)"/>
       <path id="DejaVuSans-20" transform="scale(0.015625)"/>
       <path id="DejaVuSans-5b" d="M 550 4863 
L 1875 4863 
L 1875 4416 
L 1125 4416 
L 1125 -397 
L 1875 -397 
L 1875 -844 
L 550 -844 
L 550 4863 
z
" transform="scale(0.015625)"/>
       <path id="DejaVuSans-6d" d="M 3328 2828 
Q 3544 3216 3844 3400 
Q 4144 3584 4550 3584 
Q 5097 3584 5394 3201 
Q 5691 2819 5691 2113 
L 5691 0 
L 5113 0 
L 5113 2094 
Q 5113 2597 4934 2840 
Q 4756 3084 4391 3084 
Q 3944 3084 3684 2787 
Q 3425 2491 3425 1978 
L 3425 0 
L 2847 0 
L 2847 2094 
Q 2847 2600 2669 2842 
Q 2491 3084 2119 3084 
Q 1678 3084 1418 2786 
Q 1159 2488 1159 1978 
L 1159 0 
L 581 0 
L 581 3500 
L 1159 3500 
L 1159 2956 
Q 1356 3278 1631 3431 
Q 1906 3584 2284 3584 
Q 2666 3584 2933 3390 
Q 3200 3197 3328 2828 
z
" transform="scale(0.015625)"/>
       <path id="DejaVuSans-56" d="M 1831 0 
L 50 4666 
L 709 4666 
L 2188 738 
L 3669 4666 
L 4325 4666 
L 2547 0 
L 1831 0 
z
" transform="scale(0.015625)"/>
       <path id="DejaVuSans-5d" d="M 1947 4863 
L 1947 -844 
L 622 -844 
L 622 -397 
L 1369 -397 
L 1369 4416 
L 622 4416 
L 622 4863 
L 1947 4863 
z
" transform="scale(0.015625)"/>
      </defs>
      <use xlink:href="#DejaVuSans-7c" transform="translate(0 0.578125)"/>
      <use xlink:href="#DejaVuSans-Oblique-53" transform="translate(33.691406 0.578125)"/>
      <use xlink:href="#DejaVuSans-32" transform="translate(97.167969 -15.828125) scale(0.7)"/>
      <use xlink:href="#DejaVuSans-31" transform="translate(141.704102 -15.828125) scale(0.7)"/>
      <use xlink:href="#DejaVuSans-7c" transform="translate(188.974609 0.578125)"/>
      <use xlink:href="#DejaVuSans-20" transform="translate(222.666016 0.578125)"/>
      <use xlink:href="#DejaVuSans-5b" transform="translate(254.453125 0.578125)"/>
      <use xlink:href="#DejaVuSans-6d" transform="translate(293.466797 0.578125)"/>
      <use xlink:href="#DejaVuSans-56" transform="translate(390.878906 0.578125)"/>
      <use xlink:href="#DejaVuSans-5d" transform="translate(459.287109 0.578125)"/>
     </g>
    </g>
   </g>
   <g id="line2d_11">
    <path d="M 66.82804 51.043758 
L 68.45947 49.949604 
L 70.0909 50.214387 
L 71.722329 49.973718 
L 73.353759 50.591759 
L 74.985189 50.109089 
L 76.616619 49.896388 
L 78.248049 50.043336 
L 79.879479 50.040631 
L 81.510909 49.893533 
L 83.142339 49.407838 
L 84.773768 49.658761 
L 86.405198 50.338058 
L 88.036628 51.285767 
L 89.668058 50.222595 
L 91.299488 50.684891 
L 92.930918 49.760906 
L 94.562348 49.787884 
L 96.193778 50.043597 
L 97.825207 50.590596 
L 99.456637 50.136547 
L 101.088067 50.286948 
L 102.719497 49.206204 
L 104.350927 50.289339 
L 105.982357 49.868601 
L 107.613787 50.426542 
L 109.245217 50.814142 
L 110.876646 50.304788 
L 112.508076 48.467786 
L 114.139506 48.426286 
L 115.770936 50.788965 
L 117.402366 49.217043 
L 119.033796 49.581339 
L 120.665226 48.43408 
L 122.296656 49.53703 
L 123.928085 48.902034 
L 125.559515 49.268827 
L 127.190945 49.803763 
L 128.822375 50.670778 
L 130.453805 48.505007 
L 132.085235 48.292856 
L 133.716665 48.96983 
L 135.348095 49.337987 
L 136.979524 49.823267 
L 138.610954 47.842047 
L 140.242384 47.258182 
L 141.873814 47.887983 
L 143.505244 49.341435 
L 145.136674 47.862488 
L 146.768104 48.170981 
L 148.399534 48.682513 
L 150.030963 48.351662 
L 151.662393 50.333327 
L 153.293823 48.858136 
L 154.925253 49.248324 
L 156.556683 47.762094 
L 158.188113 48.283039 
L 159.819543 48.665931 
L 161.450973 48.875448 
L 163.082402 49.340988 
L 164.713832 48.375522 
L 166.345262 49.7421 
L 167.976692 49.277678 
L 169.608122 48.382762 
L 171.239552 49.371073 
L 172.870982 51.004761 
L 174.502412 52.464233 
L 176.133842 52.405326 
L 177.765271 51.944526 
L 179.396701 54.419284 
L 181.028131 53.573334 
L 182.659561 56.258954 
L 184.290991 56.190512 
L 185.922421 58.314863 
L 187.553851 59.024286 
L 189.185281 60.850039 
L 190.81671 62.342036 
L 192.44814 63.474383 
L 194.07957 67.491311 
L 195.711 69.906012 
L 197.34243 73.293857 
L 198.97386 77.671925 
L 200.60529 83.330116 
L 202.23672 84.959011 
L 203.868149 91.991346 
L 205.499579 94.357012 
L 207.131009 102.809637 
L 208.762439 107.452519 
L 210.393869 114.018529 
L 212.025299 121.768188 
L 213.656729 128.28746 
L 215.288159 131.458025 
L 218.551018 142.66802 
L 220.182448 147.785432 
L 221.813878 154.152326 
L 223.445308 155.542369 
L 225.076738 156.381529 
L 226.708168 155.54039 
L 228.339598 155.300541 
L 229.971027 155.561235 
L 231.602457 151.55847 
L 233.233887 146.274314 
L 234.865317 141.537473 
L 236.496747 137.790864 
L 238.128177 133.105696 
L 239.759607 128.967778 
L 241.391037 125.783907 
L 243.022466 123.171107 
L 244.653896 119.064089 
L 246.285326 117.334528 
L 247.916756 114.316442 
L 249.548186 111.628384 
L 251.179616 109.321943 
L 252.811046 107.214133 
L 254.442476 106.149901 
L 256.073905 101.941868 
L 257.705335 100.659621 
L 259.336765 99.975398 
L 260.968195 97.848016 
L 262.599625 95.162451 
L 264.231055 95.913869 
L 265.862485 93.632632 
L 267.493915 92.696929 
L 269.125344 90.412819 
L 270.756774 90.121359 
L 272.388204 89.516546 
L 274.019634 89.100607 
L 275.651064 86.68206 
L 277.282494 86.418558 
L 278.913924 84.574242 
L 280.545354 84.868235 
L 282.176783 84.226597 
L 283.808213 82.707278 
L 285.439643 83.213632 
L 287.071073 81.864236 
L 288.702503 82.358741 
L 290.333933 80.121864 
L 291.965363 79.294641 
L 293.596793 80.211526 
L 295.228223 78.595501 
L 298.491082 77.724864 
L 300.122512 77.359868 
L 301.753942 78.127795 
L 303.385372 76.734504 
L 305.016802 75.759264 
L 306.648232 75.41922 
L 309.911091 74.237718 
L 311.542521 74.18289 
L 313.173951 74.646323 
L 314.805381 73.060056 
L 316.436811 74.565033 
L 318.068241 72.939599 
L 319.699671 73.852307 
L 321.331101 73.021967 
L 322.96253 71.840596 
L 324.59396 72.867357 
L 326.22539 71.696904 
L 327.85682 70.355711 
L 329.48825 70.940631 
L 331.11968 70.871314 
L 332.75111 71.533781 
L 334.38254 69.467451 
L 336.013969 69.948909 
L 337.645399 69.390366 
L 339.276829 69.957749 
L 340.908259 69.407788 
L 342.539689 67.425765 
L 344.171119 70.13367 
L 345.802549 68.21768 
L 347.433979 69.731721 
L 349.065408 68.852718 
L 350.696838 67.66219 
L 352.328268 67.554072 
L 353.959698 67.2207 
L 355.591128 66.542647 
L 357.222558 67.874983 
L 358.853988 67.096748 
L 360.485418 66.471515 
L 362.116847 66.512053 
L 363.748277 67.344656 
L 365.379707 66.850136 
L 367.011137 66.201825 
L 368.642567 66.610701 
L 370.273997 65.232988 
L 371.905427 64.799877 
L 373.536857 66.332223 
L 375.168286 64.918225 
L 376.799716 66.740893 
L 380.062576 64.598951 
L 381.694006 63.752429 
L 383.325436 64.945364 
L 384.956866 65.460393 
L 386.588296 64.075815 
L 388.219725 63.599257 
L 389.851155 63.553389 
L 391.482585 63.801503 
L 391.482585 63.801503 
" clip-path="url(#p45fbc84db6)" style="fill: none; stroke: #1f77b4; stroke-width: 1.5; stroke-linecap: square"/>
    <defs>
     <path id="m5d29b40fa9" d="M 0 1.5 
C 0.397805 1.5 0.77937 1.341951 1.06066 1.06066 
C 1.341951 0.77937 1.5 0.397805 1.5 0 
C 1.5 -0.397805 1.341951 -0.77937 1.06066 -1.06066 
C 0.77937 -1.341951 0.397805 -1.5 0 -1.5 
C -0.397805 -1.5 -0.77937 -1.341951 -1.06066 -1.06066 
C -1.341951 -0.77937 -1.5 -0.397805 -1.5 0 
C -1.5 0.397805 -1.341951 0.77937 -1.06066 1.06066 
C -0.77937 1.341951 -0.397805 1.5 0 1.5 
z
" style="stroke: #1f77b4"/>
    </defs>
    <g clip-path="url(#p45fbc84db6)">
     <use xlink:href="#m5d29b40fa9" x="66.82804" y="51.043758" style="fill: #1f77b4; stroke: #1f77b4"/>
     <use xlink:href="#m5d29b40fa9" x="68.45947" y="49.949604" style="fill: #1f77b4; stroke: #1f77b4"/>
     <use xlink:href="#m5d29b40fa9" x="70.0909" y="50.214387" style="fill: #1f77b4; stroke: #1f77b4"/>
     <use xlink:href="#m5d29b40fa9" x="71.722329" y="49.973718" style="fill: #1f77b4; stroke: #1f77b4"/>
     <use xlink:href="#m5d29b40fa9" x="73.353759" y="50.591759" style="fill: #1f77b4; stroke: #1f77b4"/>
     <use xlink:href="#m5d29b40fa9" x="74.985189" y="50.109089" style="fill: #1f77b4; stroke: #1f77b4"/>
     <use xlink:href="#m5d29b40fa9" x="76.616619" y="49.896388" style="fill: #1f77b4; stroke: #1f77b4"/>
     <use xlink:href="#m5d29b40fa9" x="78.248049" y="50.043336" style="fill: #1f77b4; stroke: #1f77b4"/>
     <use xlink:href="#m5d29b40fa9" x="79.879479" y="50.040631" style="fill: #1f77b4; stroke: #1f77b4"/>
     <use xlink:href="#m5d29b40fa9" x="81.510909" y="49.893533" style="fill: #1f77b4; stroke: #1f77b4"/>
     <use xlink:href="#m5d29b40fa9" x="83.142339" y="49.407838" style="fill: #1f77b4; stroke: #1f77b4"/>
     <use xlink:href="#m5d29b40fa9" x="84.773768" y="49.658761" style="fill: #1f77b4; stroke: #1f77b4"/>
     <use xlink:href="#m5d29b40fa9" x="86.405198" y="50.338058" style="fill: #1f77b4; stroke: #1f77b4"/>
     <use xlink:href="#m5d29b40fa9" x="88.036628" y="51.285767" style="fill: #1f77b4; stroke: #1f77b4"/>
     <use xlink:href="#m5d29b40fa9" x="89.668058" y="50.222595" style="fill: #1f77b4; stroke: #1f77b4"/>
     <use xlink:href="#m5d29b40fa9" x="91.299488" y="50.684891" style="fill: #1f77b4; stroke: #1f77b4"/>
     <use xlink:href="#m5d29b40fa9" x="92.930918" y="49.760906" style="fill: #1f77b4; stroke: #1f77b4"/>
     <use xlink:href="#m5d29b40fa9" x="94.562348" y="49.787884" style="fill: #1f77b4; stroke: #1f77b4"/>
     <use xlink:href="#m5d29b40fa9" x="96.193778" y="50.043597" style="fill: #1f77b4; stroke: #1f77b4"/>
     <use xlink:href="#m5d29b40fa9" x="97.825207" y="50.590596" style="fill: #1f77b4; stroke: #1f77b4"/>
     <use xlink:href="#m5d29b40fa9" x="99.456637" y="50.136547" style="fill: #1f77b4; stroke: #1f77b4"/>
     <use xlink:href="#m5d29b40fa9" x="101.088067" y="50.286948" style="fill: #1f77b4; stroke: #1f77b4"/>
     <use xlink:href="#m5d29b40fa9" x="102.719497" y="49.206204" style="fill: #1f77b4; stroke: #1f77b4"/>
     <use xlink:href="#m5d29b40fa9" x="104.350927" y="50.289339" style="fill: #1f77b4; stroke: #1f77b4"/>
     <use xlink:href="#m5d29b40fa9" x="105.982357" y="49.868601" style="fill: #1f77b4; stroke: #1f77b4"/>
     <use xlink:href="#m5d29b40fa9" x="107.613787" y="50.426542" style="fill: #1f77b4; stroke: #1f77b4"/>
     <use xlink:href="#m5d29b40fa9" x="109.245217" y="50.814142" style="fill: #1f77b4; stroke: #1f77b4"/>
     <use xlink:href="#m5d29b40fa9" x="110.876646" y="50.304788" style="fill: #1f77b4; stroke: #1f77b4"/>
     <use xlink:href="#m5d29b40fa9" x="112.508076" y="48.467786" style="fill: #1f77b4; stroke: #1f77b4"/>
     <use xlink:href="#m5d29b40fa9" x="114.139506" y="48.426286" style="fill: #1f77b4; stroke: #1f77b4"/>
     <use xlink:href="#m5d29b40fa9" x="115.770936" y="50.788965" style="fill: #1f77b4; stroke: #1f77b4"/>
     <use xlink:href="#m5d29b40fa9" x="117.402366" y="49.217043" style="fill: #1f77b4; stroke: #1f77b4"/>
     <use xlink:href="#m5d29b40fa9" x="119.033796" y="49.581339" style="fill: #1f77b4; stroke: #1f77b4"/>
     <use xlink:href="#m5d29b40fa9" x="120.665226" y="48.43408" style="fill: #1f77b4; stroke: #1f77b4"/>
     <use xlink:href="#m5d29b40fa9" x="122.296656" y="49.53703" style="fill: #1f77b4; stroke: #1f77b4"/>
     <use xlink:href="#m5d29b40fa9" x="123.928085" y="48.902034" style="fill: #1f77b4; stroke: #1f77b4"/>
     <use xlink:href="#m5d29b40fa9" x="125.559515" y="49.268827" style="fill: #1f77b4; stroke: #1f77b4"/>
     <use xlink:href="#m5d29b40fa9" x="127.190945" y="49.803763" style="fill: #1f77b4; stroke: #1f77b4"/>
     <use xlink:href="#m5d29b40fa9" x="128.822375" y="50.670778" style="fill: #1f77b4; stroke: #1f77b4"/>
     <use xlink:href="#m5d29b40fa9" x="130.453805" y="48.505007" style="fill: #1f77b4; stroke: #1f77b4"/>
     <use xlink:href="#m5d29b40fa9" x="132.085235" y="48.292856" style="fill: #1f77b4; stroke: #1f77b4"/>
     <use xlink:href="#m5d29b40fa9" x="133.716665" y="48.96983" style="fill: #1f77b4; stroke: #1f77b4"/>
     <use xlink:href="#m5d29b40fa9" x="135.348095" y="49.337987" style="fill: #1f77b4; stroke: #1f77b4"/>
     <use xlink:href="#m5d29b40fa9" x="136.979524" y="49.823267" style="fill: #1f77b4; stroke: #1f77b4"/>
     <use xlink:href="#m5d29b40fa9" x="138.610954" y="47.842047" style="fill: #1f77b4; stroke: #1f77b4"/>
     <use xlink:href="#m5d29b40fa9" x="140.242384" y="47.258182" style="fill: #1f77b4; stroke: #1f77b4"/>
     <use xlink:href="#m5d29b40fa9" x="141.873814" y="47.887983" style="fill: #1f77b4; stroke: #1f77b4"/>
     <use xlink:href="#m5d29b40fa9" x="143.505244" y="49.341435" style="fill: #1f77b4; stroke: #1f77b4"/>
     <use xlink:href="#m5d29b40fa9" x="145.136674" y="47.862488" style="fill: #1f77b4; stroke: #1f77b4"/>
     <use xlink:href="#m5d29b40fa9" x="146.768104" y="48.170981" style="fill: #1f77b4; stroke: #1f77b4"/>
     <use xlink:href="#m5d29b40fa9" x="148.399534" y="48.682513" style="fill: #1f77b4; stroke: #1f77b4"/>
     <use xlink:href="#m5d29b40fa9" x="150.030963" y="48.351662" style="fill: #1f77b4; stroke: #1f77b4"/>
     <use xlink:href="#m5d29b40fa9" x="151.662393" y="50.333327" style="fill: #1f77b4; stroke: #1f77b4"/>
     <use xlink:href="#m5d29b40fa9" x="153.293823" y="48.858136" style="fill: #1f77b4; stroke: #1f77b4"/>
     <use xlink:href="#m5d29b40fa9" x="154.925253" y="49.248324" style="fill: #1f77b4; stroke: #1f77b4"/>
     <use xlink:href="#m5d29b40fa9" x="156.556683" y="47.762094" style="fill: #1f77b4; stroke: #1f77b4"/>
     <use xlink:href="#m5d29b40fa9" x="158.188113" y="48.283039" style="fill: #1f77b4; stroke: #1f77b4"/>
     <use xlink:href="#m5d29b40fa9" x="159.819543" y="48.665931" style="fill: #1f77b4; stroke: #1f77b4"/>
     <use xlink:href="#m5d29b40fa9" x="161.450973" y="48.875448" style="fill: #1f77b4; stroke: #1f77b4"/>
     <use xlink:href="#m5d29b40fa9" x="163.082402" y="49.340988" style="fill: #1f77b4; stroke: #1f77b4"/>
     <use xlink:href="#m5d29b40fa9" x="164.713832" y="48.375522" style="fill: #1f77b4; stroke: #1f77b4"/>
     <use xlink:href="#m5d29b40fa9" x="166.345262" y="49.7421" style="fill: #1f77b4; stroke: #1f77b4"/>
     <use xlink:href="#m5d29b40fa9" x="167.976692" y="49.277678" style="fill: #1f77b4; stroke: #1f77b4"/>
     <use xlink:href="#m5d29b40fa9" x="169.608122" y="48.382762" style="fill: #1f77b4; stroke: #1f77b4"/>
     <use xlink:href="#m5d29b40fa9" x="171.239552" y="49.371073" style="fill: #1f77b4; stroke: #1f77b4"/>
     <use xlink:href="#m5d29b40fa9" x="172.870982" y="51.004761" style="fill: #1f77b4; stroke: #1f77b4"/>
     <use xlink:href="#m5d29b40fa9" x="174.502412" y="52.464233" style="fill: #1f77b4; stroke: #1f77b4"/>
     <use xlink:href="#m5d29b40fa9" x="176.133842" y="52.405326" style="fill: #1f77b4; stroke: #1f77b4"/>
     <use xlink:href="#m5d29b40fa9" x="177.765271" y="51.944526" style="fill: #1f77b4; stroke: #1f77b4"/>
     <use xlink:href="#m5d29b40fa9" x="179.396701" y="54.419284" style="fill: #1f77b4; stroke: #1f77b4"/>
     <use xlink:href="#m5d29b40fa9" x="181.028131" y="53.573334" style="fill: #1f77b4; stroke: #1f77b4"/>
     <use xlink:href="#m5d29b40fa9" x="182.659561" y="56.258954" style="fill: #1f77b4; stroke: #1f77b4"/>
     <use xlink:href="#m5d29b40fa9" x="184.290991" y="56.190512" style="fill: #1f77b4; stroke: #1f77b4"/>
     <use xlink:href="#m5d29b40fa9" x="185.922421" y="58.314863" style="fill: #1f77b4; stroke: #1f77b4"/>
     <use xlink:href="#m5d29b40fa9" x="187.553851" y="59.024286" style="fill: #1f77b4; stroke: #1f77b4"/>
     <use xlink:href="#m5d29b40fa9" x="189.185281" y="60.850039" style="fill: #1f77b4; stroke: #1f77b4"/>
     <use xlink:href="#m5d29b40fa9" x="190.81671" y="62.342036" style="fill: #1f77b4; stroke: #1f77b4"/>
     <use xlink:href="#m5d29b40fa9" x="192.44814" y="63.474383" style="fill: #1f77b4; stroke: #1f77b4"/>
     <use xlink:href="#m5d29b40fa9" x="194.07957" y="67.491311" style="fill: #1f77b4; stroke: #1f77b4"/>
     <use xlink:href="#m5d29b40fa9" x="195.711" y="69.906012" style="fill: #1f77b4; stroke: #1f77b4"/>
     <use xlink:href="#m5d29b40fa9" x="197.34243" y="73.293857" style="fill: #1f77b4; stroke: #1f77b4"/>
     <use xlink:href="#m5d29b40fa9" x="198.97386" y="77.671925" style="fill: #1f77b4; stroke: #1f77b4"/>
     <use xlink:href="#m5d29b40fa9" x="200.60529" y="83.330116" style="fill: #1f77b4; stroke: #1f77b4"/>
     <use xlink:href="#m5d29b40fa9" x="202.23672" y="84.959011" style="fill: #1f77b4; stroke: #1f77b4"/>
     <use xlink:href="#m5d29b40fa9" x="203.868149" y="91.991346" style="fill: #1f77b4; stroke: #1f77b4"/>
     <use xlink:href="#m5d29b40fa9" x="205.499579" y="94.357012" style="fill: #1f77b4; stroke: #1f77b4"/>
     <use xlink:href="#m5d29b40fa9" x="207.131009" y="102.809637" style="fill: #1f77b4; stroke: #1f77b4"/>
     <use xlink:href="#m5d29b40fa9" x="208.762439" y="107.452519" style="fill: #1f77b4; stroke: #1f77b4"/>
     <use xlink:href="#m5d29b40fa9" x="210.393869" y="114.018529" style="fill: #1f77b4; stroke: #1f77b4"/>
     <use xlink:href="#m5d29b40fa9" x="212.025299" y="121.768188" style="fill: #1f77b4; stroke: #1f77b4"/>
     <use xlink:href="#m5d29b40fa9" x="213.656729" y="128.28746" style="fill: #1f77b4; stroke: #1f77b4"/>
     <use xlink:href="#m5d29b40fa9" x="215.288159" y="131.458025" style="fill: #1f77b4; stroke: #1f77b4"/>
     <use xlink:href="#m5d29b40fa9" x="216.919588" y="137.113086" style="fill: #1f77b4; stroke: #1f77b4"/>
     <use xlink:href="#m5d29b40fa9" x="218.551018" y="142.66802" style="fill: #1f77b4; stroke: #1f77b4"/>
     <use xlink:href="#m5d29b40fa9" x="220.182448" y="147.785432" style="fill: #1f77b4; stroke: #1f77b4"/>
     <use xlink:href="#m5d29b40fa9" x="221.813878" y="154.152326" style="fill: #1f77b4; stroke: #1f77b4"/>
     <use xlink:href="#m5d29b40fa9" x="223.445308" y="155.542369" style="fill: #1f77b4; stroke: #1f77b4"/>
     <use xlink:href="#m5d29b40fa9" x="225.076738" y="156.381529" style="fill: #1f77b4; stroke: #1f77b4"/>
     <use xlink:href="#m5d29b40fa9" x="226.708168" y="155.54039" style="fill: #1f77b4; stroke: #1f77b4"/>
     <use xlink:href="#m5d29b40fa9" x="228.339598" y="155.300541" style="fill: #1f77b4; stroke: #1f77b4"/>
     <use xlink:href="#m5d29b40fa9" x="229.971027" y="155.561235" style="fill: #1f77b4; stroke: #1f77b4"/>
     <use xlink:href="#m5d29b40fa9" x="231.602457" y="151.55847" style="fill: #1f77b4; stroke: #1f77b4"/>
     <use xlink:href="#m5d29b40fa9" x="233.233887" y="146.274314" style="fill: #1f77b4; stroke: #1f77b4"/>
     <use xlink:href="#m5d29b40fa9" x="234.865317" y="141.537473" style="fill: #1f77b4; stroke: #1f77b4"/>
     <use xlink:href="#m5d29b40fa9" x="236.496747" y="137.790864" style="fill: #1f77b4; stroke: #1f77b4"/>
     <use xlink:href="#m5d29b40fa9" x="238.128177" y="133.105696" style="fill: #1f77b4; stroke: #1f77b4"/>
     <use xlink:href="#m5d29b40fa9" x="239.759607" y="128.967778" style="fill: #1f77b4; stroke: #1f77b4"/>
     <use xlink:href="#m5d29b40fa9" x="241.391037" y="125.783907" style="fill: #1f77b4; stroke: #1f77b4"/>
     <use xlink:href="#m5d29b40fa9" x="243.022466" y="123.171107" style="fill: #1f77b4; stroke: #1f77b4"/>
     <use xlink:href="#m5d29b40fa9" x="244.653896" y="119.064089" style="fill: #1f77b4; stroke: #1f77b4"/>
     <use xlink:href="#m5d29b40fa9" x="246.285326" y="117.334528" style="fill: #1f77b4; stroke: #1f77b4"/>
     <use xlink:href="#m5d29b40fa9" x="247.916756" y="114.316442" style="fill: #1f77b4; stroke: #1f77b4"/>
     <use xlink:href="#m5d29b40fa9" x="249.548186" y="111.628384" style="fill: #1f77b4; stroke: #1f77b4"/>
     <use xlink:href="#m5d29b40fa9" x="251.179616" y="109.321943" style="fill: #1f77b4; stroke: #1f77b4"/>
     <use xlink:href="#m5d29b40fa9" x="252.811046" y="107.214133" style="fill: #1f77b4; stroke: #1f77b4"/>
     <use xlink:href="#m5d29b40fa9" x="254.442476" y="106.149901" style="fill: #1f77b4; stroke: #1f77b4"/>
     <use xlink:href="#m5d29b40fa9" x="256.073905" y="101.941868" style="fill: #1f77b4; stroke: #1f77b4"/>
     <use xlink:href="#m5d29b40fa9" x="257.705335" y="100.659621" style="fill: #1f77b4; stroke: #1f77b4"/>
     <use xlink:href="#m5d29b40fa9" x="259.336765" y="99.975398" style="fill: #1f77b4; stroke: #1f77b4"/>
     <use xlink:href="#m5d29b40fa9" x="260.968195" y="97.848016" style="fill: #1f77b4; stroke: #1f77b4"/>
     <use xlink:href="#m5d29b40fa9" x="262.599625" y="95.162451" style="fill: #1f77b4; stroke: #1f77b4"/>
     <use xlink:href="#m5d29b40fa9" x="264.231055" y="95.913869" style="fill: #1f77b4; stroke: #1f77b4"/>
     <use xlink:href="#m5d29b40fa9" x="265.862485" y="93.632632" style="fill: #1f77b4; stroke: #1f77b4"/>
     <use xlink:href="#m5d29b40fa9" x="267.493915" y="92.696929" style="fill: #1f77b4; stroke: #1f77b4"/>
     <use xlink:href="#m5d29b40fa9" x="269.125344" y="90.412819" style="fill: #1f77b4; stroke: #1f77b4"/>
     <use xlink:href="#m5d29b40fa9" x="270.756774" y="90.121359" style="fill: #1f77b4; stroke: #1f77b4"/>
     <use xlink:href="#m5d29b40fa9" x="272.388204" y="89.516546" style="fill: #1f77b4; stroke: #1f77b4"/>
     <use xlink:href="#m5d29b40fa9" x="274.019634" y="89.100607" style="fill: #1f77b4; stroke: #1f77b4"/>
     <use xlink:href="#m5d29b40fa9" x="275.651064" y="86.68206" style="fill: #1f77b4; stroke: #1f77b4"/>
     <use xlink:href="#m5d29b40fa9" x="277.282494" y="86.418558" style="fill: #1f77b4; stroke: #1f77b4"/>
     <use xlink:href="#m5d29b40fa9" x="278.913924" y="84.574242" style="fill: #1f77b4; stroke: #1f77b4"/>
     <use xlink:href="#m5d29b40fa9" x="280.545354" y="84.868235" style="fill: #1f77b4; stroke: #1f77b4"/>
     <use xlink:href="#m5d29b40fa9" x="282.176783" y="84.226597" style="fill: #1f77b4; stroke: #1f77b4"/>
     <use xlink:href="#m5d29b40fa9" x="283.808213" y="82.707278" style="fill: #1f77b4; stroke: #1f77b4"/>
     <use xlink:href="#m5d29b40fa9" x="285.439643" y="83.213632" style="fill: #1f77b4; stroke: #1f77b4"/>
     <use xlink:href="#m5d29b40fa9" x="287.071073" y="81.864236" style="fill: #1f77b4; stroke: #1f77b4"/>
     <use xlink:href="#m5d29b40fa9" x="288.702503" y="82.358741" style="fill: #1f77b4; stroke: #1f77b4"/>
     <use xlink:href="#m5d29b40fa9" x="290.333933" y="80.121864" style="fill: #1f77b4; stroke: #1f77b4"/>
     <use xlink:href="#m5d29b40fa9" x="291.965363" y="79.294641" style="fill: #1f77b4; stroke: #1f77b4"/>
     <use xlink:href="#m5d29b40fa9" x="293.596793" y="80.211526" style="fill: #1f77b4; stroke: #1f77b4"/>
     <use xlink:href="#m5d29b40fa9" x="295.228223" y="78.595501" style="fill: #1f77b4; stroke: #1f77b4"/>
     <use xlink:href="#m5d29b40fa9" x="296.859652" y="78.114721" style="fill: #1f77b4; stroke: #1f77b4"/>
     <use xlink:href="#m5d29b40fa9" x="298.491082" y="77.724864" style="fill: #1f77b4; stroke: #1f77b4"/>
     <use xlink:href="#m5d29b40fa9" x="300.122512" y="77.359868" style="fill: #1f77b4; stroke: #1f77b4"/>
     <use xlink:href="#m5d29b40fa9" x="301.753942" y="78.127795" style="fill: #1f77b4; stroke: #1f77b4"/>
     <use xlink:href="#m5d29b40fa9" x="303.385372" y="76.734504" style="fill: #1f77b4; stroke: #1f77b4"/>
     <use xlink:href="#m5d29b40fa9" x="305.016802" y="75.759264" style="fill: #1f77b4; stroke: #1f77b4"/>
     <use xlink:href="#m5d29b40fa9" x="306.648232" y="75.41922" style="fill: #1f77b4; stroke: #1f77b4"/>
     <use xlink:href="#m5d29b40fa9" x="308.279662" y="74.83722" style="fill: #1f77b4; stroke: #1f77b4"/>
     <use xlink:href="#m5d29b40fa9" x="309.911091" y="74.237718" style="fill: #1f77b4; stroke: #1f77b4"/>
     <use xlink:href="#m5d29b40fa9" x="311.542521" y="74.18289" style="fill: #1f77b4; stroke: #1f77b4"/>
     <use xlink:href="#m5d29b40fa9" x="313.173951" y="74.646323" style="fill: #1f77b4; stroke: #1f77b4"/>
     <use xlink:href="#m5d29b40fa9" x="314.805381" y="73.060056" style="fill: #1f77b4; stroke: #1f77b4"/>
     <use xlink:href="#m5d29b40fa9" x="316.436811" y="74.565033" style="fill: #1f77b4; stroke: #1f77b4"/>
     <use xlink:href="#m5d29b40fa9" x="318.068241" y="72.939599" style="fill: #1f77b4; stroke: #1f77b4"/>
     <use xlink:href="#m5d29b40fa9" x="319.699671" y="73.852307" style="fill: #1f77b4; stroke: #1f77b4"/>
     <use xlink:href="#m5d29b40fa9" x="321.331101" y="73.021967" style="fill: #1f77b4; stroke: #1f77b4"/>
     <use xlink:href="#m5d29b40fa9" x="322.96253" y="71.840596" style="fill: #1f77b4; stroke: #1f77b4"/>
     <use xlink:href="#m5d29b40fa9" x="324.59396" y="72.867357" style="fill: #1f77b4; stroke: #1f77b4"/>
     <use xlink:href="#m5d29b40fa9" x="326.22539" y="71.696904" style="fill: #1f77b4; stroke: #1f77b4"/>
     <use xlink:href="#m5d29b40fa9" x="327.85682" y="70.355711" style="fill: #1f77b4; stroke: #1f77b4"/>
     <use xlink:href="#m5d29b40fa9" x="329.48825" y="70.940631" style="fill: #1f77b4; stroke: #1f77b4"/>
     <use xlink:href="#m5d29b40fa9" x="331.11968" y="70.871314" style="fill: #1f77b4; stroke: #1f77b4"/>
     <use xlink:href="#m5d29b40fa9" x="332.75111" y="71.533781" style="fill: #1f77b4; stroke: #1f77b4"/>
     <use xlink:href="#m5d29b40fa9" x="334.38254" y="69.467451" style="fill: #1f77b4; stroke: #1f77b4"/>
     <use xlink:href="#m5d29b40fa9" x="336.013969" y="69.948909" style="fill: #1f77b4; stroke: #1f77b4"/>
     <use xlink:href="#m5d29b40fa9" x="337.645399" y="69.390366" style="fill: #1f77b4; stroke: #1f77b4"/>
     <use xlink:href="#m5d29b40fa9" x="339.276829" y="69.957749" style="fill: #1f77b4; stroke: #1f77b4"/>
     <use xlink:href="#m5d29b40fa9" x="340.908259" y="69.407788" style="fill: #1f77b4; stroke: #1f77b4"/>
     <use xlink:href="#m5d29b40fa9" x="342.539689" y="67.425765" style="fill: #1f77b4; stroke: #1f77b4"/>
     <use xlink:href="#m5d29b40fa9" x="344.171119" y="70.13367" style="fill: #1f77b4; stroke: #1f77b4"/>
     <use xlink:href="#m5d29b40fa9" x="345.802549" y="68.21768" style="fill: #1f77b4; stroke: #1f77b4"/>
     <use xlink:href="#m5d29b40fa9" x="347.433979" y="69.731721" style="fill: #1f77b4; stroke: #1f77b4"/>
     <use xlink:href="#m5d29b40fa9" x="349.065408" y="68.852718" style="fill: #1f77b4; stroke: #1f77b4"/>
     <use xlink:href="#m5d29b40fa9" x="350.696838" y="67.66219" style="fill: #1f77b4; stroke: #1f77b4"/>
     <use xlink:href="#m5d29b40fa9" x="352.328268" y="67.554072" style="fill: #1f77b4; stroke: #1f77b4"/>
     <use xlink:href="#m5d29b40fa9" x="353.959698" y="67.2207" style="fill: #1f77b4; stroke: #1f77b4"/>
     <use xlink:href="#m5d29b40fa9" x="355.591128" y="66.542647" style="fill: #1f77b4; stroke: #1f77b4"/>
     <use xlink:href="#m5d29b40fa9" x="357.222558" y="67.874983" style="fill: #1f77b4; stroke: #1f77b4"/>
     <use xlink:href="#m5d29b40fa9" x="358.853988" y="67.096748" style="fill: #1f77b4; stroke: #1f77b4"/>
     <use xlink:href="#m5d29b40fa9" x="360.485418" y="66.471515" style="fill: #1f77b4; stroke: #1f77b4"/>
     <use xlink:href="#m5d29b40fa9" x="362.116847" y="66.512053" style="fill: #1f77b4; stroke: #1f77b4"/>
     <use xlink:href="#m5d29b40fa9" x="363.748277" y="67.344656" style="fill: #1f77b4; stroke: #1f77b4"/>
     <use xlink:href="#m5d29b40fa9" x="365.379707" y="66.850136" style="fill: #1f77b4; stroke: #1f77b4"/>
     <use xlink:href="#m5d29b40fa9" x="367.011137" y="66.201825" style="fill: #1f77b4; stroke: #1f77b4"/>
     <use xlink:href="#m5d29b40fa9" x="368.642567" y="66.610701" style="fill: #1f77b4; stroke: #1f77b4"/>
     <use xlink:href="#m5d29b40fa9" x="370.273997" y="65.232988" style="fill: #1f77b4; stroke: #1f77b4"/>
     <use xlink:href="#m5d29b40fa9" x="371.905427" y="64.799877" style="fill: #1f77b4; stroke: #1f77b4"/>
     <use xlink:href="#m5d29b40fa9" x="373.536857" y="66.332223" style="fill: #1f77b4; stroke: #1f77b4"/>
     <use xlink:href="#m5d29b40fa9" x="375.168286" y="64.918225" style="fill: #1f77b4; stroke: #1f77b4"/>
     <use xlink:href="#m5d29b40fa9" x="376.799716" y="66.740893" style="fill: #1f77b4; stroke: #1f77b4"/>
     <use xlink:href="#m5d29b40fa9" x="378.431146" y="65.638754" style="fill: #1f77b4; stroke: #1f77b4"/>
     <use xlink:href="#m5d29b40fa9" x="380.062576" y="64.598951" style="fill: #1f77b4; stroke: #1f77b4"/>
     <use xlink:href="#m5d29b40fa9" x="381.694006" y="63.752429" style="fill: #1f77b4; stroke: #1f77b4"/>
     <use xlink:href="#m5d29b40fa9" x="383.325436" y="64.945364" style="fill: #1f77b4; stroke: #1f77b4"/>
     <use xlink:href="#m5d29b40fa9" x="384.956866" y="65.460393" style="fill: #1f77b4; stroke: #1f77b4"/>
     <use xlink:href="#m5d29b40fa9" x="386.588296" y="64.075815" style="fill: #1f77b4; stroke: #1f77b4"/>
     <use xlink:href="#m5d29b40fa9" x="388.219725" y="63.599257" style="fill: #1f77b4; stroke: #1f77b4"/>
     <use xlink:href="#m5d29b40fa9" x="389.851155" y="63.553389" style="fill: #1f77b4; stroke: #1f77b4"/>
     <use xlink:href="#m5d29b40fa9" x="391.482585" y="63.801503" style="fill: #1f77b4; stroke: #1f77b4"/>
    </g>
   </g>
   <g id="line2d_12">
    <path d="M 66.82804 50.632726 
L 105.175624 49.413464 
L 132.473904 48.609354 
L 143.523208 48.496763 
L 151.322716 48.626619 
L 157.497327 48.949618 
L 162.37202 49.419194 
L 166.596754 50.047216 
L 170.171529 50.79707 
L 173.421324 51.707046 
L 176.34614 52.763022 
L 178.945976 53.936337 
L 181.220833 55.183036 
L 183.495689 56.67494 
L 185.770546 58.456685 
L 187.720423 60.253458 
L 189.6703 62.3375 
L 191.620177 64.748991 
L 193.570055 67.531119 
L 195.519932 70.728941 
L 197.469809 74.387502 
L 199.419686 78.549028 
L 201.369563 83.249041 
L 203.31944 88.511358 
L 205.594297 95.368234 
L 207.869154 102.964305 
L 210.46899 112.426951 
L 214.693724 128.856859 
L 217.943519 141.213643 
L 219.893396 147.775201 
L 221.193314 151.473287 
L 222.168253 153.751643 
L 223.143191 155.508422 
L 223.79315 156.352027 
L 224.443109 156.915041 
L 225.093068 157.190912 
L 225.743027 157.182988 
L 226.392987 156.904487 
L 227.042946 156.376993 
L 228.017884 155.179767 
L 228.992823 153.587147 
L 230.292741 151.019884 
L 232.242618 146.6066 
L 239.717147 129.078523 
L 242.316983 123.675903 
L 244.916819 118.756921 
L 247.516656 114.30889 
L 250.116492 110.300094 
L 252.716328 106.691371 
L 255.316164 103.44209 
L 258.24098 100.167764 
L 261.165796 97.247935 
L 264.090611 94.637194 
L 267.340407 92.050755 
L 270.590202 89.750153 
L 274.164977 87.502435 
L 277.739751 85.508341 
L 281.639506 83.579107 
L 285.86424 81.734723 
L 290.413953 79.988697 
L 295.288646 78.348987 
L 300.813298 76.730017 
L 306.987909 75.167287 
L 313.812479 73.685388 
L 321.287008 72.299431 
L 329.736475 70.969729 
L 339.160882 69.719936 
L 349.885206 68.530184 
L 362.234428 67.394984 
L 376.208548 66.339454 
L 391.482585 65.393965 
L 391.482585 65.393965 
" clip-path="url(#p45fbc84db6)" style="fill: none; stroke: #d62728; stroke-width: 1.5; stroke-linecap: square"/>
   </g>
   <g id="patch_3">
    <path d="M 50.595313 162.72 
L 50.595313 41.76 
" style="fill: none; stroke: #000000; stroke-width: 0.8; stroke-linejoin: miter; stroke-linecap: square"/>
   </g>
   <g id="patch_4">
    <path d="M 407.715312 162.72 
L 407.715312 41.76 
" style="fill: none; stroke: #000000; stroke-width: 0.8; stroke-linejoin: miter; stroke-linecap: square"/>
   </g>
   <g id="patch_5">
    <path d="M 50.595312 162.72 
L 407.715313 162.72 
" style="fill: none; stroke: #000000; stroke-width: 0.8; stroke-linejoin: miter; stroke-linecap: square"/>
   </g>
   <g id="patch_6">
    <path d="M 50.595312 41.76 
L 407.715313 41.76 
" style="fill: none; stroke: #000000; stroke-width: 0.8; stroke-linejoin: miter; stroke-linecap: square"/>
   </g>
   <g id="text_7">
    <g id="patch_7">
     <path d="M 425.571312 95.079562 
L 570.771313 95.079562 
Q 574.771313 95.079562 574.771313 91.079562 
L 574.771313 47.808 
Q 574.771313 43.808 570.771313 43.808 
L 425.571312 43.808 
Q 421.571312 43.808 421.571312 47.808 
L 421.571312 91.079562 
Q 421.571312 95.079562 425.571312 95.079562 
z
" style="fill: #ffffff; opacity: 0.5; stroke: #000000; stroke-linejoin: miter"/>
    </g>
    <!-- Summary -->
    <g transform="translate(425.571312 55.406437) scale(0.1 -0.1)">
     <defs>
      <path id="DejaVuSans-53" d="M 3425 4513 
L 3425 3897 
Q 3066 4069 2747 4153 
Q 2428 4238 2131 4238 
Q 1616 4238 1336 4038 
Q 1056 3838 1056 3469 
Q 1056 3159 1242 3001 
Q 1428 2844 1947 2747 
L 2328 2669 
Q 3034 2534 3370 2195 
Q 3706 1856 3706 1288 
Q 3706 609 3251 259 
Q 2797 -91 1919 -91 
Q 1588 -91 1214 -16 
Q 841 59 441 206 
L 441 856 
Q 825 641 1194 531 
Q 1563 422 1919 422 
Q 2459 422 2753 634 
Q 3047 847 3047 1241 
Q 3047 1584 2836 1778 
Q 2625 1972 2144 2069 
L 1759 2144 
Q 1053 2284 737 2584 
Q 422 2884 422 3419 
Q 422 4038 858 4394 
Q 1294 4750 2059 4750 
Q 2388 4750 2728 4690 
Q 3069 4631 3425 4513 
z
" transform="scale(0.015625)"/>
      <path id="DejaVuSans-75" d="M 544 1381 
L 544 3500 
L 1119 3500 
L 1119 1403 
Q 1119 906 1312 657 
Q 1506 409 1894 409 
Q 2359 409 2629 706 
Q 2900 1003 2900 1516 
L 2900 3500 
L 3475 3500 
L 3475 0 
L 2900 0 
L 2900 538 
Q 2691 219 2414 64 
Q 2138 -91 1772 -91 
Q 1169 -91 856 284 
Q 544 659 544 1381 
z
M 1991 3584 
L 1991 3584 
z
" transform="scale(0.015625)"/>
      <path id="DejaVuSans-61" d="M 2194 1759 
Q 1497 1759 1228 1600 
Q 959 1441 959 1056 
Q 959 750 1161 570 
Q 1363 391 1709 391 
Q 2188 391 2477 730 
Q 2766 1069 2766 1631 
L 2766 1759 
L 2194 1759 
z
M 3341 1997 
L 3341 0 
L 2766 0 
L 2766 531 
Q 2569 213 2275 61 
Q 1981 -91 1556 -91 
Q 1019 -91 701 211 
Q 384 513 384 1019 
Q 384 1609 779 1909 
Q 1175 2209 1959 2209 
L 2766 2209 
L 2766 2266 
Q 2766 2663 2505 2880 
Q 2244 3097 1772 3097 
Q 1472 3097 1187 3025 
Q 903 2953 641 2809 
L 641 3341 
Q 956 3463 1253 3523 
Q 1550 3584 1831 3584 
Q 2591 3584 2966 3190 
Q 3341 2797 3341 1997 
z
" transform="scale(0.015625)"/>
      <path id="DejaVuSans-72" d="M 2631 2963 
Q 2534 3019 2420 3045 
Q 2306 3072 2169 3072 
Q 1681 3072 1420 2755 
Q 1159 2438 1159 1844 
L 1159 0 
L 581 0 
L 581 3500 
L 1159 3500 
L 1159 2956 
Q 1341 3275 1631 3429 
Q 1922 3584 2338 3584 
Q 2397 3584 2469 3576 
Q 2541 3569 2628 3553 
L 2631 2963 
z
" transform="scale(0.015625)"/>
      <path id="DejaVuSans-79" d="M 2059 -325 
Q 1816 -950 1584 -1140 
Q 1353 -1331 966 -1331 
L 506 -1331 
L 506 -850 
L 844 -850 
Q 1081 -850 1212 -737 
Q 1344 -625 1503 -206 
L 1606 56 
L 191 3500 
L 800 3500 
L 1894 763 
L 2988 3500 
L 3597 3500 
L 2059 -325 
z
" transform="scale(0.015625)"/>
     </defs>
     <use xlink:href="#DejaVuSans-53"/>
     <use xlink:href="#DejaVuSans-75" x="63.476562"/>
     <use xlink:href="#DejaVuSans-6d" x="126.855469"/>
     <use xlink:href="#DejaVuSans-6d" x="224.267578"/>
     <use xlink:href="#DejaVuSans-61" x="321.679688"/>
     <use xlink:href="#DejaVuSans-72" x="382.958984"/>
     <use xlink:href="#DejaVuSans-79" x="424.072266"/>
    </g>
    <!-- $Q_I$: 15.48$\pm$0.16 k -->
    <g transform="translate(425.571312 66.60425) scale(0.1 -0.1)">
     <defs>
      <path id="DejaVuSans-Oblique-51" d="M 2309 -84 
Q 2275 -88 2237 -89 
Q 2200 -91 2125 -91 
Q 1250 -91 756 411 
Q 263 913 263 1797 
Q 263 2319 452 2844 
Q 641 3369 978 3788 
Q 1369 4269 1858 4509 
Q 2347 4750 2938 4750 
Q 3794 4750 4287 4245 
Q 4781 3741 4781 2869 
Q 4781 1928 4265 1147 
Q 3750 366 2919 44 
L 3553 -825 
L 2847 -825 
L 2309 -84 
z
M 2919 4238 
Q 2400 4238 2003 3986 
Q 1606 3734 1313 3219 
Q 1125 2891 1026 2522 
Q 928 2153 928 1778 
Q 928 1128 1239 775 
Q 1550 422 2119 422 
Q 2631 422 3032 676 
Q 3434 931 3719 1434 
Q 3909 1772 4009 2142 
Q 4109 2513 4109 2881 
Q 4109 3528 3796 3883 
Q 3484 4238 2919 4238 
z
" transform="scale(0.015625)"/>
      <path id="DejaVuSans-Oblique-49" d="M 1081 4666 
L 1716 4666 
L 806 0 
L 172 0 
L 1081 4666 
z
" transform="scale(0.015625)"/>
      <path id="DejaVuSans-3a" d="M 750 794 
L 1409 794 
L 1409 0 
L 750 0 
L 750 794 
z
M 750 3309 
L 1409 3309 
L 1409 2516 
L 750 2516 
L 750 3309 
z
" transform="scale(0.015625)"/>
      <path id="DejaVuSans-35" d="M 691 4666 
L 3169 4666 
L 3169 4134 
L 1269 4134 
L 1269 2991 
Q 1406 3038 1543 3061 
Q 1681 3084 1819 3084 
Q 2600 3084 3056 2656 
Q 3513 2228 3513 1497 
Q 3513 744 3044 326 
Q 2575 -91 1722 -91 
Q 1428 -91 1123 -41 
Q 819 9 494 109 
L 494 744 
Q 775 591 1075 516 
Q 1375 441 1709 441 
Q 2250 441 2565 725 
Q 2881 1009 2881 1497 
Q 2881 1984 2565 2268 
Q 2250 2553 1709 2553 
Q 1456 2553 1204 2497 
Q 953 2441 691 2322 
L 691 4666 
z
" transform="scale(0.015625)"/>
      <path id="DejaVuSans-2e" d="M 684 794 
L 1344 794 
L 1344 0 
L 684 0 
L 684 794 
z
" transform="scale(0.015625)"/>
      <path id="DejaVuSans-b1" d="M 2944 4013 
L 2944 2803 
L 4684 2803 
L 4684 2272 
L 2944 2272 
L 2944 1063 
L 2419 1063 
L 2419 2272 
L 678 2272 
L 678 2803 
L 2419 2803 
L 2419 4013 
L 2944 4013 
z
M 678 531 
L 4684 531 
L 4684 0 
L 678 0 
L 678 531 
z
" transform="scale(0.015625)"/>
      <path id="DejaVuSans-6b" d="M 581 4863 
L 1159 4863 
L 1159 1991 
L 2875 3500 
L 3609 3500 
L 1753 1863 
L 3688 0 
L 2938 0 
L 1159 1709 
L 1159 0 
L 581 0 
L 581 4863 
z
" transform="scale(0.015625)"/>
     </defs>
     <use xlink:href="#DejaVuSans-Oblique-51" transform="translate(0 0.015625)"/>
     <use xlink:href="#DejaVuSans-Oblique-49" transform="translate(78.710938 -16.390625) scale(0.7)"/>
     <use xlink:href="#DejaVuSans-3a" transform="translate(102.089844 0.015625)"/>
     <use xlink:href="#DejaVuSans-20" transform="translate(135.78125 0.015625)"/>
     <use xlink:href="#DejaVuSans-31" transform="translate(167.568359 0.015625)"/>
     <use xlink:href="#DejaVuSans-35" transform="translate(231.191406 0.015625)"/>
     <use xlink:href="#DejaVuSans-2e" transform="translate(294.814453 0.015625)"/>
     <use xlink:href="#DejaVuSans-34" transform="translate(326.601562 0.015625)"/>
     <use xlink:href="#DejaVuSans-38" transform="translate(390.224609 0.015625)"/>
     <use xlink:href="#DejaVuSans-b1" transform="translate(453.847656 0.015625)"/>
     <use xlink:href="#DejaVuSans-30" transform="translate(537.636719 0.015625)"/>
     <use xlink:href="#DejaVuSans-2e" transform="translate(601.259766 0.015625)"/>
     <use xlink:href="#DejaVuSans-31" transform="translate(633.046875 0.015625)"/>
     <use xlink:href="#DejaVuSans-36" transform="translate(696.669922 0.015625)"/>
     <use xlink:href="#DejaVuSans-20" transform="translate(760.292969 0.015625)"/>
     <use xlink:href="#DejaVuSans-6b" transform="translate(792.080078 0.015625)"/>
    </g>
    <!-- $Q_C$: 4.490$\pm$0.016 k -->
    <g transform="translate(425.571312 77.802062) scale(0.1 -0.1)">
     <defs>
      <path id="DejaVuSans-Oblique-43" d="M 4447 4306 
L 4319 3641 
Q 4019 3944 3683 4091 
Q 3347 4238 2956 4238 
Q 2422 4238 2017 3981 
Q 1613 3725 1319 3200 
Q 1131 2863 1032 2486 
Q 934 2109 934 1728 
Q 934 1091 1264 756 
Q 1594 422 2222 422 
Q 2656 422 3056 561 
Q 3456 700 3834 978 
L 3688 231 
Q 3316 72 2936 -9 
Q 2556 -91 2175 -91 
Q 1278 -91 773 396 
Q 269 884 269 1753 
Q 269 2309 461 2846 
Q 653 3384 1013 3828 
Q 1394 4300 1883 4525 
Q 2372 4750 3022 4750 
Q 3422 4750 3780 4639 
Q 4138 4528 4447 4306 
z
" transform="scale(0.015625)"/>
      <path id="DejaVuSans-39" d="M 703 97 
L 703 672 
Q 941 559 1184 500 
Q 1428 441 1663 441 
Q 2288 441 2617 861 
Q 2947 1281 2994 2138 
Q 2813 1869 2534 1725 
Q 2256 1581 1919 1581 
Q 1219 1581 811 2004 
Q 403 2428 403 3163 
Q 403 3881 828 4315 
Q 1253 4750 1959 4750 
Q 2769 4750 3195 4129 
Q 3622 3509 3622 2328 
Q 3622 1225 3098 567 
Q 2575 -91 1691 -91 
Q 1453 -91 1209 -44 
Q 966 3 703 97 
z
M 1959 2075 
Q 2384 2075 2632 2365 
Q 2881 2656 2881 3163 
Q 2881 3666 2632 3958 
Q 2384 4250 1959 4250 
Q 1534 4250 1286 3958 
Q 1038 3666 1038 3163 
Q 1038 2656 1286 2365 
Q 1534 2075 1959 2075 
z
" transform="scale(0.015625)"/>
     </defs>
     <use xlink:href="#DejaVuSans-Oblique-51" transform="translate(0 0.015625)"/>
     <use xlink:href="#DejaVuSans-Oblique-43" transform="translate(78.710938 -16.390625) scale(0.7)"/>
     <use xlink:href="#DejaVuSans-3a" transform="translate(130.322266 0.015625)"/>
     <use xlink:href="#DejaVuSans-20" transform="translate(164.013672 0.015625)"/>
     <use xlink:href="#DejaVuSans-34" transform="translate(195.800781 0.015625)"/>
     <use xlink:href="#DejaVuSans-2e" transform="translate(259.423828 0.015625)"/>
     <use xlink:href="#DejaVuSans-34" transform="translate(291.210938 0.015625)"/>
     <use xlink:href="#DejaVuSans-39" transform="translate(354.833984 0.015625)"/>
     <use xlink:href="#DejaVuSans-30" transform="translate(418.457031 0.015625)"/>
     <use xlink:href="#DejaVuSans-b1" transform="translate(482.080078 0.015625)"/>
     <use xlink:href="#DejaVuSans-30" transform="translate(565.869141 0.015625)"/>
     <use xlink:href="#DejaVuSans-2e" transform="translate(629.492188 0.015625)"/>
     <use xlink:href="#DejaVuSans-30" transform="translate(661.279297 0.015625)"/>
     <use xlink:href="#DejaVuSans-31" transform="translate(724.902344 0.015625)"/>
     <use xlink:href="#DejaVuSans-36" transform="translate(788.525391 0.015625)"/>
     <use xlink:href="#DejaVuSans-20" transform="translate(852.148438 0.015625)"/>
     <use xlink:href="#DejaVuSans-6b" transform="translate(883.935547 0.015625)"/>
    </g>
    <!-- $f_{res}$: 5.9134613$\pm$3.2e-06 GHz -->
    <g transform="translate(425.571312 88.999875) scale(0.1 -0.1)">
     <defs>
      <path id="DejaVuSans-Oblique-66" d="M 3059 4863 
L 2969 4384 
L 2419 4384 
Q 2106 4384 1964 4261 
Q 1822 4138 1753 3809 
L 1691 3500 
L 2638 3500 
L 2553 3053 
L 1606 3053 
L 1013 0 
L 434 0 
L 1031 3053 
L 481 3053 
L 563 3500 
L 1113 3500 
L 1159 3744 
Q 1278 4363 1576 4613 
Q 1875 4863 2516 4863 
L 3059 4863 
z
" transform="scale(0.015625)"/>
      <path id="DejaVuSans-Oblique-72" d="M 2853 2969 
Q 2766 3016 2653 3041 
Q 2541 3066 2413 3066 
Q 1953 3066 1609 2717 
Q 1266 2369 1153 1784 
L 800 0 
L 225 0 
L 909 3500 
L 1484 3500 
L 1375 2956 
Q 1603 3259 1920 3421 
Q 2238 3584 2597 3584 
Q 2691 3584 2781 3573 
Q 2872 3563 2963 3538 
L 2853 2969 
z
" transform="scale(0.015625)"/>
      <path id="DejaVuSans-Oblique-65" d="M 3078 2063 
Q 3088 2113 3092 2166 
Q 3097 2219 3097 2272 
Q 3097 2653 2873 2875 
Q 2650 3097 2266 3097 
Q 1838 3097 1509 2826 
Q 1181 2556 1013 2059 
L 3078 2063 
z
M 3578 1613 
L 903 1613 
Q 884 1494 878 1425 
Q 872 1356 872 1306 
Q 872 872 1139 634 
Q 1406 397 1894 397 
Q 2269 397 2603 481 
Q 2938 566 3225 728 
L 3116 159 
Q 2806 34 2476 -28 
Q 2147 -91 1806 -91 
Q 1078 -91 686 257 
Q 294 606 294 1247 
Q 294 1794 489 2264 
Q 684 2734 1063 3103 
Q 1306 3334 1642 3459 
Q 1978 3584 2356 3584 
Q 2950 3584 3301 3228 
Q 3653 2872 3653 2272 
Q 3653 2128 3634 1964 
Q 3616 1800 3578 1613 
z
" transform="scale(0.015625)"/>
      <path id="DejaVuSans-Oblique-73" d="M 3200 3397 
L 3091 2853 
Q 2863 2978 2609 3040 
Q 2356 3103 2088 3103 
Q 1634 3103 1373 2948 
Q 1113 2794 1113 2528 
Q 1113 2219 1719 2053 
Q 1766 2041 1788 2034 
L 1972 1978 
Q 2547 1819 2739 1644 
Q 2931 1469 2931 1166 
Q 2931 609 2489 259 
Q 2047 -91 1331 -91 
Q 1053 -91 747 -37 
Q 441 16 72 128 
L 184 722 
Q 500 559 806 475 
Q 1113 391 1394 391 
Q 1816 391 2080 572 
Q 2344 753 2344 1031 
Q 2344 1331 1650 1516 
L 1591 1531 
L 1394 1581 
Q 956 1697 753 1886 
Q 550 2075 550 2369 
Q 550 2928 970 3256 
Q 1391 3584 2113 3584 
Q 2397 3584 2667 3537 
Q 2938 3491 3200 3397 
z
" transform="scale(0.015625)"/>
      <path id="DejaVuSans-33" d="M 2597 2516 
Q 3050 2419 3304 2112 
Q 3559 1806 3559 1356 
Q 3559 666 3084 287 
Q 2609 -91 1734 -91 
Q 1441 -91 1130 -33 
Q 819 25 488 141 
L 488 750 
Q 750 597 1062 519 
Q 1375 441 1716 441 
Q 2309 441 2620 675 
Q 2931 909 2931 1356 
Q 2931 1769 2642 2001 
Q 2353 2234 1838 2234 
L 1294 2234 
L 1294 2753 
L 1863 2753 
Q 2328 2753 2575 2939 
Q 2822 3125 2822 3475 
Q 2822 3834 2567 4026 
Q 2313 4219 1838 4219 
Q 1578 4219 1281 4162 
Q 984 4106 628 3988 
L 628 4550 
Q 988 4650 1302 4700 
Q 1616 4750 1894 4750 
Q 2613 4750 3031 4423 
Q 3450 4097 3450 3541 
Q 3450 3153 3228 2886 
Q 3006 2619 2597 2516 
z
" transform="scale(0.015625)"/>
      <path id="DejaVuSans-65" d="M 3597 1894 
L 3597 1613 
L 953 1613 
Q 991 1019 1311 708 
Q 1631 397 2203 397 
Q 2534 397 2845 478 
Q 3156 559 3463 722 
L 3463 178 
Q 3153 47 2828 -22 
Q 2503 -91 2169 -91 
Q 1331 -91 842 396 
Q 353 884 353 1716 
Q 353 2575 817 3079 
Q 1281 3584 2069 3584 
Q 2775 3584 3186 3129 
Q 3597 2675 3597 1894 
z
M 3022 2063 
Q 3016 2534 2758 2815 
Q 2500 3097 2075 3097 
Q 1594 3097 1305 2825 
Q 1016 2553 972 2059 
L 3022 2063 
z
" transform="scale(0.015625)"/>
      <path id="DejaVuSans-2d" d="M 313 2009 
L 1997 2009 
L 1997 1497 
L 313 1497 
L 313 2009 
z
" transform="scale(0.015625)"/>
      <path id="DejaVuSans-47" d="M 3809 666 
L 3809 1919 
L 2778 1919 
L 2778 2438 
L 4434 2438 
L 4434 434 
Q 4069 175 3628 42 
Q 3188 -91 2688 -91 
Q 1594 -91 976 548 
Q 359 1188 359 2328 
Q 359 3472 976 4111 
Q 1594 4750 2688 4750 
Q 3144 4750 3555 4637 
Q 3966 4525 4313 4306 
L 4313 3634 
Q 3963 3931 3569 4081 
Q 3175 4231 2741 4231 
Q 1884 4231 1454 3753 
Q 1025 3275 1025 2328 
Q 1025 1384 1454 906 
Q 1884 428 2741 428 
Q 3075 428 3337 486 
Q 3600 544 3809 666 
z
" transform="scale(0.015625)"/>
      <path id="DejaVuSans-48" d="M 628 4666 
L 1259 4666 
L 1259 2753 
L 3553 2753 
L 3553 4666 
L 4184 4666 
L 4184 0 
L 3553 0 
L 3553 2222 
L 1259 2222 
L 1259 0 
L 628 0 
L 628 4666 
z
" transform="scale(0.015625)"/>
      <path id="DejaVuSans-7a" d="M 353 3500 
L 3084 3500 
L 3084 2975 
L 922 459 
L 3084 459 
L 3084 0 
L 275 0 
L 275 525 
L 2438 3041 
L 353 3041 
L 353 3500 
z
" transform="scale(0.015625)"/>
     </defs>
     <use xlink:href="#DejaVuSans-Oblique-66" transform="translate(0 0.015625)"/>
     <use xlink:href="#DejaVuSans-Oblique-72" transform="translate(35.205078 -16.390625) scale(0.7)"/>
     <use xlink:href="#DejaVuSans-Oblique-65" transform="translate(63.984375 -16.390625) scale(0.7)"/>
     <use xlink:href="#DejaVuSans-Oblique-73" transform="translate(107.050781 -16.390625) scale(0.7)"/>
     <use xlink:href="#DejaVuSans-3a" transform="translate(146.254883 0.015625)"/>
     <use xlink:href="#DejaVuSans-20" transform="translate(179.946289 0.015625)"/>
     <use xlink:href="#DejaVuSans-35" transform="translate(211.733398 0.015625)"/>
     <use xlink:href="#DejaVuSans-2e" transform="translate(275.356445 0.015625)"/>
     <use xlink:href="#DejaVuSans-39" transform="translate(307.143555 0.015625)"/>
     <use xlink:href="#DejaVuSans-31" transform="translate(370.766602 0.015625)"/>
     <use xlink:href="#DejaVuSans-33" transform="translate(434.389648 0.015625)"/>
     <use xlink:href="#DejaVuSans-34" transform="translate(498.012695 0.015625)"/>
     <use xlink:href="#DejaVuSans-36" transform="translate(561.635742 0.015625)"/>
     <use xlink:href="#DejaVuSans-31" transform="translate(625.258789 0.015625)"/>
     <use xlink:href="#DejaVuSans-33" transform="translate(688.881836 0.015625)"/>
     <use xlink:href="#DejaVuSans-b1" transform="translate(752.504883 0.015625)"/>
     <use xlink:href="#DejaVuSans-33" transform="translate(836.293945 0.015625)"/>
     <use xlink:href="#DejaVuSans-2e" transform="translate(899.916992 0.015625)"/>
     <use xlink:href="#DejaVuSans-32" transform="translate(926.204102 0.015625)"/>
     <use xlink:href="#DejaVuSans-65" transform="translate(989.827148 0.015625)"/>
     <use xlink:href="#DejaVuSans-2d" transform="translate(1051.350586 0.015625)"/>
     <use xlink:href="#DejaVuSans-30" transform="translate(1087.43457 0.015625)"/>
     <use xlink:href="#DejaVuSans-36" transform="translate(1151.057617 0.015625)"/>
     <use xlink:href="#DejaVuSans-20" transform="translate(1214.680664 0.015625)"/>
     <use xlink:href="#DejaVuSans-47" transform="translate(1246.467773 0.015625)"/>
     <use xlink:href="#DejaVuSans-48" transform="translate(1323.958008 0.015625)"/>
     <use xlink:href="#DejaVuSans-7a" transform="translate(1399.15332 0.015625)"/>
    </g>
   </g>
  </g>
  <g id="axes_2">
   <g id="patch_8">
    <path d="M 50.595313 307.872 
L 407.715312 307.872 
L 407.715312 186.912 
L 50.595313 186.912 
z
" style="fill: #ffffff"/>
   </g>
   <g id="matplotlib.axis_3">
    <g id="xtick_6">
     <g id="line2d_13">
      <g>
       <use xlink:href="#m01ef6e6afc" x="102.54004" y="307.872" style="stroke: #000000; stroke-width: 0.8"/>
      </g>
     </g>
     <g id="text_8">
      <!-- 910 -->
      <g transform="translate(92.99629 322.470438) scale(0.1 -0.1)">
       <use xlink:href="#DejaVuSans-39"/>
       <use xlink:href="#DejaVuSans-31" x="63.623047"/>
       <use xlink:href="#DejaVuSans-30" x="127.246094"/>
      </g>
     </g>
    </g>
    <g id="xtick_7">
     <g id="line2d_14">
      <g>
       <use xlink:href="#m01ef6e6afc" x="167.470949" y="307.872" style="stroke: #000000; stroke-width: 0.8"/>
      </g>
     </g>
     <g id="text_9">
      <!-- 912 -->
      <g transform="translate(157.927199 322.470438) scale(0.1 -0.1)">
       <use xlink:href="#DejaVuSans-39"/>
       <use xlink:href="#DejaVuSans-31" x="63.623047"/>
       <use xlink:href="#DejaVuSans-32" x="127.246094"/>
      </g>
     </g>
    </g>
    <g id="xtick_8">
     <g id="line2d_15">
      <g>
       <use xlink:href="#m01ef6e6afc" x="232.401858" y="307.872" style="stroke: #000000; stroke-width: 0.8"/>
      </g>
     </g>
     <g id="text_10">
      <!-- 914 -->
      <g transform="translate(222.858108 322.470438) scale(0.1 -0.1)">
       <use xlink:href="#DejaVuSans-39"/>
       <use xlink:href="#DejaVuSans-31" x="63.623047"/>
       <use xlink:href="#DejaVuSans-34" x="127.246094"/>
      </g>
     </g>
    </g>
    <g id="xtick_9">
     <g id="line2d_16">
      <g>
       <use xlink:href="#m01ef6e6afc" x="297.332767" y="307.872" style="stroke: #000000; stroke-width: 0.8"/>
      </g>
     </g>
     <g id="text_11">
      <!-- 916 -->
      <g transform="translate(287.789017 322.470438) scale(0.1 -0.1)">
       <use xlink:href="#DejaVuSans-39"/>
       <use xlink:href="#DejaVuSans-31" x="63.623047"/>
       <use xlink:href="#DejaVuSans-36" x="127.246094"/>
      </g>
     </g>
    </g>
    <g id="xtick_10">
     <g id="line2d_17">
      <g>
       <use xlink:href="#m01ef6e6afc" x="362.263676" y="307.872" style="stroke: #000000; stroke-width: 0.8"/>
      </g>
     </g>
     <g id="text_12">
      <!-- 918 -->
      <g transform="translate(352.719926 322.470438) scale(0.1 -0.1)">
       <use xlink:href="#DejaVuSans-39"/>
       <use xlink:href="#DejaVuSans-31" x="63.623047"/>
       <use xlink:href="#DejaVuSans-38" x="127.246094"/>
      </g>
     </g>
    </g>
    <g id="text_13">
     <!-- Frequency [MHz] -->
     <g transform="translate(187.136562 336.148562) scale(0.1 -0.1)">
      <defs>
       <path id="DejaVuSans-46" d="M 628 4666 
L 3309 4666 
L 3309 4134 
L 1259 4134 
L 1259 2759 
L 3109 2759 
L 3109 2228 
L 1259 2228 
L 1259 0 
L 628 0 
L 628 4666 
z
" transform="scale(0.015625)"/>
       <path id="DejaVuSans-71" d="M 947 1747 
Q 947 1113 1208 752 
Q 1469 391 1925 391 
Q 2381 391 2643 752 
Q 2906 1113 2906 1747 
Q 2906 2381 2643 2742 
Q 2381 3103 1925 3103 
Q 1469 3103 1208 2742 
Q 947 2381 947 1747 
z
M 2906 525 
Q 2725 213 2448 61 
Q 2172 -91 1784 -91 
Q 1150 -91 751 415 
Q 353 922 353 1747 
Q 353 2572 751 3078 
Q 1150 3584 1784 3584 
Q 2172 3584 2448 3432 
Q 2725 3281 2906 2969 
L 2906 3500 
L 3481 3500 
L 3481 -1331 
L 2906 -1331 
L 2906 525 
z
" transform="scale(0.015625)"/>
       <path id="DejaVuSans-6e" d="M 3513 2113 
L 3513 0 
L 2938 0 
L 2938 2094 
Q 2938 2591 2744 2837 
Q 2550 3084 2163 3084 
Q 1697 3084 1428 2787 
Q 1159 2491 1159 1978 
L 1159 0 
L 581 0 
L 581 3500 
L 1159 3500 
L 1159 2956 
Q 1366 3272 1645 3428 
Q 1925 3584 2291 3584 
Q 2894 3584 3203 3211 
Q 3513 2838 3513 2113 
z
" transform="scale(0.015625)"/>
       <path id="DejaVuSans-63" d="M 3122 3366 
L 3122 2828 
Q 2878 2963 2633 3030 
Q 2388 3097 2138 3097 
Q 1578 3097 1268 2742 
Q 959 2388 959 1747 
Q 959 1106 1268 751 
Q 1578 397 2138 397 
Q 2388 397 2633 464 
Q 2878 531 3122 666 
L 3122 134 
Q 2881 22 2623 -34 
Q 2366 -91 2075 -91 
Q 1284 -91 818 406 
Q 353 903 353 1747 
Q 353 2603 823 3093 
Q 1294 3584 2113 3584 
Q 2378 3584 2631 3529 
Q 2884 3475 3122 3366 
z
" transform="scale(0.015625)"/>
       <path id="DejaVuSans-4d" d="M 628 4666 
L 1569 4666 
L 2759 1491 
L 3956 4666 
L 4897 4666 
L 4897 0 
L 4281 0 
L 4281 4097 
L 3078 897 
L 2444 897 
L 1241 4097 
L 1241 0 
L 628 0 
L 628 4666 
z
" transform="scale(0.015625)"/>
      </defs>
      <use xlink:href="#DejaVuSans-46"/>
      <use xlink:href="#DejaVuSans-72" x="50.269531"/>
      <use xlink:href="#DejaVuSans-65" x="89.132812"/>
      <use xlink:href="#DejaVuSans-71" x="150.65625"/>
      <use xlink:href="#DejaVuSans-75" x="214.132812"/>
      <use xlink:href="#DejaVuSans-65" x="277.511719"/>
      <use xlink:href="#DejaVuSans-6e" x="339.035156"/>
      <use xlink:href="#DejaVuSans-63" x="402.414062"/>
      <use xlink:href="#DejaVuSans-79" x="457.394531"/>
      <use xlink:href="#DejaVuSans-20" x="516.574219"/>
      <use xlink:href="#DejaVuSans-5b" x="548.361328"/>
      <use xlink:href="#DejaVuSans-4d" x="587.375"/>
      <use xlink:href="#DejaVuSans-48" x="673.654297"/>
      <use xlink:href="#DejaVuSans-7a" x="748.849609"/>
      <use xlink:href="#DejaVuSans-5d" x="801.339844"/>
     </g>
    </g>
    <g id="text_14">
     <!-- +5 GHz -->
     <g transform="translate(369.277812 335.148562) scale(0.1 -0.1)">
      <defs>
       <path id="DejaVuSans-2b" d="M 2944 4013 
L 2944 2272 
L 4684 2272 
L 4684 1741 
L 2944 1741 
L 2944 0 
L 2419 0 
L 2419 1741 
L 678 1741 
L 678 2272 
L 2419 2272 
L 2419 4013 
L 2944 4013 
z
" transform="scale(0.015625)"/>
      </defs>
      <use xlink:href="#DejaVuSans-2b"/>
      <use xlink:href="#DejaVuSans-35" x="83.789062"/>
      <use xlink:href="#DejaVuSans-20" x="147.412109"/>
      <use xlink:href="#DejaVuSans-47" x="179.199219"/>
      <use xlink:href="#DejaVuSans-48" x="256.689453"/>
      <use xlink:href="#DejaVuSans-7a" x="331.884766"/>
     </g>
    </g>
   </g>
   <g id="matplotlib.axis_4">
    <g id="ytick_6">
     <g id="line2d_18">
      <g>
       <use xlink:href="#m23e025d6a2" x="50.595313" y="277.951513" style="stroke: #000000; stroke-width: 0.8"/>
      </g>
     </g>
     <g id="text_15">
      <!-- -100 -->
      <g transform="translate(20.9 281.750732) scale(0.1 -0.1)">
       <use xlink:href="#DejaVuSans-2d"/>
       <use xlink:href="#DejaVuSans-31" x="36.083984"/>
       <use xlink:href="#DejaVuSans-30" x="99.707031"/>
       <use xlink:href="#DejaVuSans-30" x="163.330078"/>
      </g>
     </g>
    </g>
    <g id="ytick_7">
     <g id="line2d_19">
      <g>
       <use xlink:href="#m23e025d6a2" x="50.595313" y="247.399065" style="stroke: #000000; stroke-width: 0.8"/>
      </g>
     </g>
     <g id="text_16">
      <!-- 0 -->
      <g transform="translate(37.232813 251.198284) scale(0.1 -0.1)">
       <use xlink:href="#DejaVuSans-30"/>
      </g>
     </g>
    </g>
    <g id="ytick_8">
     <g id="line2d_20">
      <g>
       <use xlink:href="#m23e025d6a2" x="50.595313" y="216.846617" style="stroke: #000000; stroke-width: 0.8"/>
      </g>
     </g>
     <g id="text_17">
      <!-- 100 -->
      <g transform="translate(24.507813 220.645836) scale(0.1 -0.1)">
       <use xlink:href="#DejaVuSans-31"/>
       <use xlink:href="#DejaVuSans-30" x="63.623047"/>
       <use xlink:href="#DejaVuSans-30" x="127.246094"/>
      </g>
     </g>
    </g>
    <g id="text_18">
     <!-- $\angle S_{21}$ [deg] -->
     <g transform="translate(14.8 274.592) rotate(-90) scale(0.1 -0.1)">
      <defs>
       <path id="DejaVuSans-2220" d="M 5028 631 
L 5028 0 
L 547 0 
L 3525 4666 
L 4281 4666 
L 1716 631 
L 5028 631 
z
" transform="scale(0.015625)"/>
       <path id="DejaVuSans-64" d="M 2906 2969 
L 2906 4863 
L 3481 4863 
L 3481 0 
L 2906 0 
L 2906 525 
Q 2725 213 2448 61 
Q 2172 -91 1784 -91 
Q 1150 -91 751 415 
Q 353 922 353 1747 
Q 353 2572 751 3078 
Q 1150 3584 1784 3584 
Q 2172 3584 2448 3432 
Q 2725 3281 2906 2969 
z
M 947 1747 
Q 947 1113 1208 752 
Q 1469 391 1925 391 
Q 2381 391 2643 752 
Q 2906 1113 2906 1747 
Q 2906 2381 2643 2742 
Q 2381 3103 1925 3103 
Q 1469 3103 1208 2742 
Q 947 2381 947 1747 
z
" transform="scale(0.015625)"/>
       <path id="DejaVuSans-67" d="M 2906 1791 
Q 2906 2416 2648 2759 
Q 2391 3103 1925 3103 
Q 1463 3103 1205 2759 
Q 947 2416 947 1791 
Q 947 1169 1205 825 
Q 1463 481 1925 481 
Q 2391 481 2648 825 
Q 2906 1169 2906 1791 
z
M 3481 434 
Q 3481 -459 3084 -895 
Q 2688 -1331 1869 -1331 
Q 1566 -1331 1297 -1286 
Q 1028 -1241 775 -1147 
L 775 -588 
Q 1028 -725 1275 -790 
Q 1522 -856 1778 -856 
Q 2344 -856 2625 -561 
Q 2906 -266 2906 331 
L 2906 616 
Q 2728 306 2450 153 
Q 2172 0 1784 0 
Q 1141 0 747 490 
Q 353 981 353 1791 
Q 353 2603 747 3093 
Q 1141 3584 1784 3584 
Q 2172 3584 2450 3431 
Q 2728 3278 2906 2969 
L 2906 3500 
L 3481 3500 
L 3481 434 
z
" transform="scale(0.015625)"/>
      </defs>
      <use xlink:href="#DejaVuSans-2220" transform="translate(0 0.015625)"/>
      <use xlink:href="#DejaVuSans-Oblique-53" transform="translate(89.648438 0.015625)"/>
      <use xlink:href="#DejaVuSans-32" transform="translate(153.125 -16.390625) scale(0.7)"/>
      <use xlink:href="#DejaVuSans-31" transform="translate(197.661133 -16.390625) scale(0.7)"/>
      <use xlink:href="#DejaVuSans-20" transform="translate(244.931641 0.015625)"/>
      <use xlink:href="#DejaVuSans-5b" transform="translate(276.71875 0.015625)"/>
      <use xlink:href="#DejaVuSans-64" transform="translate(315.732422 0.015625)"/>
      <use xlink:href="#DejaVuSans-65" transform="translate(379.208984 0.015625)"/>
      <use xlink:href="#DejaVuSans-67" transform="translate(440.732422 0.015625)"/>
      <use xlink:href="#DejaVuSans-5d" transform="translate(504.208984 0.015625)"/>
     </g>
    </g>
   </g>
   <g id="line2d_21">
    <path d="M 66.82804 282.397164 
L 68.45947 282.337227 
L 70.0909 282.408578 
L 73.353759 282.772006 
L 76.616619 282.669125 
L 78.248049 282.86696 
L 79.879479 282.931237 
L 81.510909 283.21286 
L 84.773768 283.132021 
L 86.405198 283.370171 
L 88.036628 283.366138 
L 91.299488 283.730776 
L 92.930918 283.703451 
L 94.562348 283.896574 
L 96.193778 283.910594 
L 97.825207 284.117642 
L 101.088067 284.139359 
L 102.719497 284.4772 
L 104.350927 284.301526 
L 105.982357 284.79057 
L 107.613787 284.709596 
L 110.876646 284.958216 
L 112.508076 284.984301 
L 115.770936 285.341749 
L 117.402366 285.253047 
L 120.665226 285.806619 
L 122.296656 285.801289 
L 123.928085 285.565374 
L 125.559515 286.170025 
L 127.190945 286.082003 
L 132.085235 286.568184 
L 135.348095 286.956344 
L 136.979524 286.925941 
L 140.242384 287.341872 
L 141.873814 287.334913 
L 145.136674 287.91538 
L 146.768104 287.802696 
L 148.399534 288.296216 
L 150.030963 288.54752 
L 151.662393 288.490383 
L 153.293823 288.794508 
L 158.188113 289.37712 
L 159.819543 289.827741 
L 163.082402 289.990803 
L 164.713832 290.337811 
L 167.976692 290.693838 
L 169.608122 291.105476 
L 174.502412 291.952643 
L 176.133842 292.360186 
L 177.765271 292.584064 
L 179.396701 292.944112 
L 184.290991 294.504624 
L 189.185281 295.555728 
L 190.81671 296.233971 
L 195.711 297.836633 
L 198.97386 299.178298 
L 202.23672 300.231129 
L 203.868149 301.002932 
L 205.499579 301.366698 
L 207.131009 301.437145 
L 208.762439 302.368214 
L 210.393869 192.87162 
L 212.025299 193.180231 
L 213.656729 302.13487 
L 215.288159 302.09751 
L 216.919588 301.364924 
L 218.551018 301.683917 
L 220.182448 300.080195 
L 221.813878 298.123323 
L 226.708168 287.369828 
L 228.339598 284.852885 
L 229.971027 283.499272 
L 231.602457 281.592248 
L 233.233887 279.864566 
L 234.865317 278.957928 
L 236.496747 278.668061 
L 238.128177 278.240634 
L 239.759607 278.222767 
L 241.391037 278.740996 
L 243.022466 278.010912 
L 246.285326 278.761662 
L 247.916756 278.862394 
L 249.548186 278.813199 
L 251.179616 279.303032 
L 256.073905 280.071653 
L 257.705335 280.403243 
L 259.336765 280.583294 
L 260.968195 280.878271 
L 264.231055 280.704832 
L 265.862485 281.340413 
L 269.125344 281.414287 
L 270.756774 282.020871 
L 272.388204 282.086391 
L 277.282494 282.832696 
L 280.545354 282.833955 
L 283.808213 283.469439 
L 285.439643 283.363251 
L 288.702503 283.843017 
L 290.333933 283.668523 
L 293.596793 284.322922 
L 296.859652 284.453043 
L 298.491082 284.862669 
L 300.122512 284.679522 
L 305.016802 285.141767 
L 306.648232 284.994359 
L 308.279662 285.206359 
L 309.911091 285.827745 
L 311.542521 285.596163 
L 314.805381 285.767886 
L 324.59396 286.528593 
L 327.85682 286.6523 
L 329.48825 286.80696 
L 331.11968 286.827206 
L 334.38254 287.164442 
L 336.013969 287.011201 
L 337.645399 287.366308 
L 339.276829 287.332152 
L 342.539689 287.573983 
L 344.171119 287.557688 
L 345.802549 287.916918 
L 347.433979 287.757638 
L 355.591128 288.288829 
L 357.222558 288.325805 
L 360.485418 288.733562 
L 362.116847 288.669143 
L 363.748277 288.815118 
L 367.011137 288.830035 
L 371.905427 289.2899 
L 376.799716 289.264135 
L 378.431146 289.768488 
L 380.062576 289.708636 
L 381.694006 289.816324 
L 383.325436 289.645919 
L 384.956866 289.942958 
L 388.219725 289.996353 
L 389.851155 290.165534 
L 391.482585 290.034111 
L 391.482585 290.034111 
" clip-path="url(#pec9c2e2d81)" style="fill: none; stroke: #1f77b4; stroke-width: 1.5; stroke-linecap: square"/>
    <g clip-path="url(#pec9c2e2d81)">
     <use xlink:href="#m5d29b40fa9" x="66.82804" y="282.397164" style="fill: #1f77b4; stroke: #1f77b4"/>
     <use xlink:href="#m5d29b40fa9" x="68.45947" y="282.337227" style="fill: #1f77b4; stroke: #1f77b4"/>
     <use xlink:href="#m5d29b40fa9" x="70.0909" y="282.408578" style="fill: #1f77b4; stroke: #1f77b4"/>
     <use xlink:href="#m5d29b40fa9" x="71.722329" y="282.60808" style="fill: #1f77b4; stroke: #1f77b4"/>
     <use xlink:href="#m5d29b40fa9" x="73.353759" y="282.772006" style="fill: #1f77b4; stroke: #1f77b4"/>
     <use xlink:href="#m5d29b40fa9" x="74.985189" y="282.683598" style="fill: #1f77b4; stroke: #1f77b4"/>
     <use xlink:href="#m5d29b40fa9" x="76.616619" y="282.669125" style="fill: #1f77b4; stroke: #1f77b4"/>
     <use xlink:href="#m5d29b40fa9" x="78.248049" y="282.86696" style="fill: #1f77b4; stroke: #1f77b4"/>
     <use xlink:href="#m5d29b40fa9" x="79.879479" y="282.931237" style="fill: #1f77b4; stroke: #1f77b4"/>
     <use xlink:href="#m5d29b40fa9" x="81.510909" y="283.21286" style="fill: #1f77b4; stroke: #1f77b4"/>
     <use xlink:href="#m5d29b40fa9" x="83.142339" y="283.14273" style="fill: #1f77b4; stroke: #1f77b4"/>
     <use xlink:href="#m5d29b40fa9" x="84.773768" y="283.132021" style="fill: #1f77b4; stroke: #1f77b4"/>
     <use xlink:href="#m5d29b40fa9" x="86.405198" y="283.370171" style="fill: #1f77b4; stroke: #1f77b4"/>
     <use xlink:href="#m5d29b40fa9" x="88.036628" y="283.366138" style="fill: #1f77b4; stroke: #1f77b4"/>
     <use xlink:href="#m5d29b40fa9" x="89.668058" y="283.56303" style="fill: #1f77b4; stroke: #1f77b4"/>
     <use xlink:href="#m5d29b40fa9" x="91.299488" y="283.730776" style="fill: #1f77b4; stroke: #1f77b4"/>
     <use xlink:href="#m5d29b40fa9" x="92.930918" y="283.703451" style="fill: #1f77b4; stroke: #1f77b4"/>
     <use xlink:href="#m5d29b40fa9" x="94.562348" y="283.896574" style="fill: #1f77b4; stroke: #1f77b4"/>
     <use xlink:href="#m5d29b40fa9" x="96.193778" y="283.910594" style="fill: #1f77b4; stroke: #1f77b4"/>
     <use xlink:href="#m5d29b40fa9" x="97.825207" y="284.117642" style="fill: #1f77b4; stroke: #1f77b4"/>
     <use xlink:href="#m5d29b40fa9" x="99.456637" y="284.161489" style="fill: #1f77b4; stroke: #1f77b4"/>
     <use xlink:href="#m5d29b40fa9" x="101.088067" y="284.139359" style="fill: #1f77b4; stroke: #1f77b4"/>
     <use xlink:href="#m5d29b40fa9" x="102.719497" y="284.4772" style="fill: #1f77b4; stroke: #1f77b4"/>
     <use xlink:href="#m5d29b40fa9" x="104.350927" y="284.301526" style="fill: #1f77b4; stroke: #1f77b4"/>
     <use xlink:href="#m5d29b40fa9" x="105.982357" y="284.79057" style="fill: #1f77b4; stroke: #1f77b4"/>
     <use xlink:href="#m5d29b40fa9" x="107.613787" y="284.709596" style="fill: #1f77b4; stroke: #1f77b4"/>
     <use xlink:href="#m5d29b40fa9" x="109.245217" y="284.848396" style="fill: #1f77b4; stroke: #1f77b4"/>
     <use xlink:href="#m5d29b40fa9" x="110.876646" y="284.958216" style="fill: #1f77b4; stroke: #1f77b4"/>
     <use xlink:href="#m5d29b40fa9" x="112.508076" y="284.984301" style="fill: #1f77b4; stroke: #1f77b4"/>
     <use xlink:href="#m5d29b40fa9" x="114.139506" y="285.137809" style="fill: #1f77b4; stroke: #1f77b4"/>
     <use xlink:href="#m5d29b40fa9" x="115.770936" y="285.341749" style="fill: #1f77b4; stroke: #1f77b4"/>
     <use xlink:href="#m5d29b40fa9" x="117.402366" y="285.253047" style="fill: #1f77b4; stroke: #1f77b4"/>
     <use xlink:href="#m5d29b40fa9" x="119.033796" y="285.499902" style="fill: #1f77b4; stroke: #1f77b4"/>
     <use xlink:href="#m5d29b40fa9" x="120.665226" y="285.806619" style="fill: #1f77b4; stroke: #1f77b4"/>
     <use xlink:href="#m5d29b40fa9" x="122.296656" y="285.801289" style="fill: #1f77b4; stroke: #1f77b4"/>
     <use xlink:href="#m5d29b40fa9" x="123.928085" y="285.565374" style="fill: #1f77b4; stroke: #1f77b4"/>
     <use xlink:href="#m5d29b40fa9" x="125.559515" y="286.170025" style="fill: #1f77b4; stroke: #1f77b4"/>
     <use xlink:href="#m5d29b40fa9" x="127.190945" y="286.082003" style="fill: #1f77b4; stroke: #1f77b4"/>
     <use xlink:href="#m5d29b40fa9" x="128.822375" y="286.215788" style="fill: #1f77b4; stroke: #1f77b4"/>
     <use xlink:href="#m5d29b40fa9" x="130.453805" y="286.326237" style="fill: #1f77b4; stroke: #1f77b4"/>
     <use xlink:href="#m5d29b40fa9" x="132.085235" y="286.568184" style="fill: #1f77b4; stroke: #1f77b4"/>
     <use xlink:href="#m5d29b40fa9" x="133.716665" y="286.795229" style="fill: #1f77b4; stroke: #1f77b4"/>
     <use xlink:href="#m5d29b40fa9" x="135.348095" y="286.956344" style="fill: #1f77b4; stroke: #1f77b4"/>
     <use xlink:href="#m5d29b40fa9" x="136.979524" y="286.925941" style="fill: #1f77b4; stroke: #1f77b4"/>
     <use xlink:href="#m5d29b40fa9" x="138.610954" y="287.160836" style="fill: #1f77b4; stroke: #1f77b4"/>
     <use xlink:href="#m5d29b40fa9" x="140.242384" y="287.341872" style="fill: #1f77b4; stroke: #1f77b4"/>
     <use xlink:href="#m5d29b40fa9" x="141.873814" y="287.334913" style="fill: #1f77b4; stroke: #1f77b4"/>
     <use xlink:href="#m5d29b40fa9" x="143.505244" y="287.628007" style="fill: #1f77b4; stroke: #1f77b4"/>
     <use xlink:href="#m5d29b40fa9" x="145.136674" y="287.91538" style="fill: #1f77b4; stroke: #1f77b4"/>
     <use xlink:href="#m5d29b40fa9" x="146.768104" y="287.802696" style="fill: #1f77b4; stroke: #1f77b4"/>
     <use xlink:href="#m5d29b40fa9" x="148.399534" y="288.296216" style="fill: #1f77b4; stroke: #1f77b4"/>
     <use xlink:href="#m5d29b40fa9" x="150.030963" y="288.54752" style="fill: #1f77b4; stroke: #1f77b4"/>
     <use xlink:href="#m5d29b40fa9" x="151.662393" y="288.490383" style="fill: #1f77b4; stroke: #1f77b4"/>
     <use xlink:href="#m5d29b40fa9" x="153.293823" y="288.794508" style="fill: #1f77b4; stroke: #1f77b4"/>
     <use xlink:href="#m5d29b40fa9" x="154.925253" y="288.971184" style="fill: #1f77b4; stroke: #1f77b4"/>
     <use xlink:href="#m5d29b40fa9" x="156.556683" y="289.057875" style="fill: #1f77b4; stroke: #1f77b4"/>
     <use xlink:href="#m5d29b40fa9" x="158.188113" y="289.37712" style="fill: #1f77b4; stroke: #1f77b4"/>
     <use xlink:href="#m5d29b40fa9" x="159.819543" y="289.827741" style="fill: #1f77b4; stroke: #1f77b4"/>
     <use xlink:href="#m5d29b40fa9" x="161.450973" y="289.871954" style="fill: #1f77b4; stroke: #1f77b4"/>
     <use xlink:href="#m5d29b40fa9" x="163.082402" y="289.990803" style="fill: #1f77b4; stroke: #1f77b4"/>
     <use xlink:href="#m5d29b40fa9" x="164.713832" y="290.337811" style="fill: #1f77b4; stroke: #1f77b4"/>
     <use xlink:href="#m5d29b40fa9" x="166.345262" y="290.51082" style="fill: #1f77b4; stroke: #1f77b4"/>
     <use xlink:href="#m5d29b40fa9" x="167.976692" y="290.693838" style="fill: #1f77b4; stroke: #1f77b4"/>
     <use xlink:href="#m5d29b40fa9" x="169.608122" y="291.105476" style="fill: #1f77b4; stroke: #1f77b4"/>
     <use xlink:href="#m5d29b40fa9" x="171.239552" y="291.358455" style="fill: #1f77b4; stroke: #1f77b4"/>
     <use xlink:href="#m5d29b40fa9" x="172.870982" y="291.628489" style="fill: #1f77b4; stroke: #1f77b4"/>
     <use xlink:href="#m5d29b40fa9" x="174.502412" y="291.952643" style="fill: #1f77b4; stroke: #1f77b4"/>
     <use xlink:href="#m5d29b40fa9" x="176.133842" y="292.360186" style="fill: #1f77b4; stroke: #1f77b4"/>
     <use xlink:href="#m5d29b40fa9" x="177.765271" y="292.584064" style="fill: #1f77b4; stroke: #1f77b4"/>
     <use xlink:href="#m5d29b40fa9" x="179.396701" y="292.944112" style="fill: #1f77b4; stroke: #1f77b4"/>
     <use xlink:href="#m5d29b40fa9" x="181.028131" y="293.50284" style="fill: #1f77b4; stroke: #1f77b4"/>
     <use xlink:href="#m5d29b40fa9" x="182.659561" y="293.9679" style="fill: #1f77b4; stroke: #1f77b4"/>
     <use xlink:href="#m5d29b40fa9" x="184.290991" y="294.504624" style="fill: #1f77b4; stroke: #1f77b4"/>
     <use xlink:href="#m5d29b40fa9" x="185.922421" y="294.855806" style="fill: #1f77b4; stroke: #1f77b4"/>
     <use xlink:href="#m5d29b40fa9" x="187.553851" y="295.191037" style="fill: #1f77b4; stroke: #1f77b4"/>
     <use xlink:href="#m5d29b40fa9" x="189.185281" y="295.555728" style="fill: #1f77b4; stroke: #1f77b4"/>
     <use xlink:href="#m5d29b40fa9" x="190.81671" y="296.233971" style="fill: #1f77b4; stroke: #1f77b4"/>
     <use xlink:href="#m5d29b40fa9" x="192.44814" y="296.75229" style="fill: #1f77b4; stroke: #1f77b4"/>
     <use xlink:href="#m5d29b40fa9" x="194.07957" y="297.254119" style="fill: #1f77b4; stroke: #1f77b4"/>
     <use xlink:href="#m5d29b40fa9" x="195.711" y="297.836633" style="fill: #1f77b4; stroke: #1f77b4"/>
     <use xlink:href="#m5d29b40fa9" x="197.34243" y="298.517451" style="fill: #1f77b4; stroke: #1f77b4"/>
     <use xlink:href="#m5d29b40fa9" x="198.97386" y="299.178298" style="fill: #1f77b4; stroke: #1f77b4"/>
     <use xlink:href="#m5d29b40fa9" x="200.60529" y="299.71656" style="fill: #1f77b4; stroke: #1f77b4"/>
     <use xlink:href="#m5d29b40fa9" x="202.23672" y="300.231129" style="fill: #1f77b4; stroke: #1f77b4"/>
     <use xlink:href="#m5d29b40fa9" x="203.868149" y="301.002932" style="fill: #1f77b4; stroke: #1f77b4"/>
     <use xlink:href="#m5d29b40fa9" x="205.499579" y="301.366698" style="fill: #1f77b4; stroke: #1f77b4"/>
     <use xlink:href="#m5d29b40fa9" x="207.131009" y="301.437145" style="fill: #1f77b4; stroke: #1f77b4"/>
     <use xlink:href="#m5d29b40fa9" x="208.762439" y="302.368214" style="fill: #1f77b4; stroke: #1f77b4"/>
     <use xlink:href="#m5d29b40fa9" x="210.393869" y="192.87162" style="fill: #1f77b4; stroke: #1f77b4"/>
     <use xlink:href="#m5d29b40fa9" x="212.025299" y="193.180231" style="fill: #1f77b4; stroke: #1f77b4"/>
     <use xlink:href="#m5d29b40fa9" x="213.656729" y="302.13487" style="fill: #1f77b4; stroke: #1f77b4"/>
     <use xlink:href="#m5d29b40fa9" x="215.288159" y="302.09751" style="fill: #1f77b4; stroke: #1f77b4"/>
     <use xlink:href="#m5d29b40fa9" x="216.919588" y="301.364924" style="fill: #1f77b4; stroke: #1f77b4"/>
     <use xlink:href="#m5d29b40fa9" x="218.551018" y="301.683917" style="fill: #1f77b4; stroke: #1f77b4"/>
     <use xlink:href="#m5d29b40fa9" x="220.182448" y="300.080195" style="fill: #1f77b4; stroke: #1f77b4"/>
     <use xlink:href="#m5d29b40fa9" x="221.813878" y="298.123323" style="fill: #1f77b4; stroke: #1f77b4"/>
     <use xlink:href="#m5d29b40fa9" x="223.445308" y="294.449239" style="fill: #1f77b4; stroke: #1f77b4"/>
     <use xlink:href="#m5d29b40fa9" x="225.076738" y="290.89951" style="fill: #1f77b4; stroke: #1f77b4"/>
     <use xlink:href="#m5d29b40fa9" x="226.708168" y="287.369828" style="fill: #1f77b4; stroke: #1f77b4"/>
     <use xlink:href="#m5d29b40fa9" x="228.339598" y="284.852885" style="fill: #1f77b4; stroke: #1f77b4"/>
     <use xlink:href="#m5d29b40fa9" x="229.971027" y="283.499272" style="fill: #1f77b4; stroke: #1f77b4"/>
     <use xlink:href="#m5d29b40fa9" x="231.602457" y="281.592248" style="fill: #1f77b4; stroke: #1f77b4"/>
     <use xlink:href="#m5d29b40fa9" x="233.233887" y="279.864566" style="fill: #1f77b4; stroke: #1f77b4"/>
     <use xlink:href="#m5d29b40fa9" x="234.865317" y="278.957928" style="fill: #1f77b4; stroke: #1f77b4"/>
     <use xlink:href="#m5d29b40fa9" x="236.496747" y="278.668061" style="fill: #1f77b4; stroke: #1f77b4"/>
     <use xlink:href="#m5d29b40fa9" x="238.128177" y="278.240634" style="fill: #1f77b4; stroke: #1f77b4"/>
     <use xlink:href="#m5d29b40fa9" x="239.759607" y="278.222767" style="fill: #1f77b4; stroke: #1f77b4"/>
     <use xlink:href="#m5d29b40fa9" x="241.391037" y="278.740996" style="fill: #1f77b4; stroke: #1f77b4"/>
     <use xlink:href="#m5d29b40fa9" x="243.022466" y="278.010912" style="fill: #1f77b4; stroke: #1f77b4"/>
     <use xlink:href="#m5d29b40fa9" x="244.653896" y="278.424676" style="fill: #1f77b4; stroke: #1f77b4"/>
     <use xlink:href="#m5d29b40fa9" x="246.285326" y="278.761662" style="fill: #1f77b4; stroke: #1f77b4"/>
     <use xlink:href="#m5d29b40fa9" x="247.916756" y="278.862394" style="fill: #1f77b4; stroke: #1f77b4"/>
     <use xlink:href="#m5d29b40fa9" x="249.548186" y="278.813199" style="fill: #1f77b4; stroke: #1f77b4"/>
     <use xlink:href="#m5d29b40fa9" x="251.179616" y="279.303032" style="fill: #1f77b4; stroke: #1f77b4"/>
     <use xlink:href="#m5d29b40fa9" x="252.811046" y="279.540698" style="fill: #1f77b4; stroke: #1f77b4"/>
     <use xlink:href="#m5d29b40fa9" x="254.442476" y="279.761838" style="fill: #1f77b4; stroke: #1f77b4"/>
     <use xlink:href="#m5d29b40fa9" x="256.073905" y="280.071653" style="fill: #1f77b4; stroke: #1f77b4"/>
     <use xlink:href="#m5d29b40fa9" x="257.705335" y="280.403243" style="fill: #1f77b4; stroke: #1f77b4"/>
     <use xlink:href="#m5d29b40fa9" x="259.336765" y="280.583294" style="fill: #1f77b4; stroke: #1f77b4"/>
     <use xlink:href="#m5d29b40fa9" x="260.968195" y="280.878271" style="fill: #1f77b4; stroke: #1f77b4"/>
     <use xlink:href="#m5d29b40fa9" x="262.599625" y="280.774384" style="fill: #1f77b4; stroke: #1f77b4"/>
     <use xlink:href="#m5d29b40fa9" x="264.231055" y="280.704832" style="fill: #1f77b4; stroke: #1f77b4"/>
     <use xlink:href="#m5d29b40fa9" x="265.862485" y="281.340413" style="fill: #1f77b4; stroke: #1f77b4"/>
     <use xlink:href="#m5d29b40fa9" x="267.493915" y="281.406545" style="fill: #1f77b4; stroke: #1f77b4"/>
     <use xlink:href="#m5d29b40fa9" x="269.125344" y="281.414287" style="fill: #1f77b4; stroke: #1f77b4"/>
     <use xlink:href="#m5d29b40fa9" x="270.756774" y="282.020871" style="fill: #1f77b4; stroke: #1f77b4"/>
     <use xlink:href="#m5d29b40fa9" x="272.388204" y="282.086391" style="fill: #1f77b4; stroke: #1f77b4"/>
     <use xlink:href="#m5d29b40fa9" x="274.019634" y="282.312729" style="fill: #1f77b4; stroke: #1f77b4"/>
     <use xlink:href="#m5d29b40fa9" x="275.651064" y="282.517383" style="fill: #1f77b4; stroke: #1f77b4"/>
     <use xlink:href="#m5d29b40fa9" x="277.282494" y="282.832696" style="fill: #1f77b4; stroke: #1f77b4"/>
     <use xlink:href="#m5d29b40fa9" x="278.913924" y="282.798809" style="fill: #1f77b4; stroke: #1f77b4"/>
     <use xlink:href="#m5d29b40fa9" x="280.545354" y="282.833955" style="fill: #1f77b4; stroke: #1f77b4"/>
     <use xlink:href="#m5d29b40fa9" x="282.176783" y="283.128023" style="fill: #1f77b4; stroke: #1f77b4"/>
     <use xlink:href="#m5d29b40fa9" x="283.808213" y="283.469439" style="fill: #1f77b4; stroke: #1f77b4"/>
     <use xlink:href="#m5d29b40fa9" x="285.439643" y="283.363251" style="fill: #1f77b4; stroke: #1f77b4"/>
     <use xlink:href="#m5d29b40fa9" x="287.071073" y="283.561449" style="fill: #1f77b4; stroke: #1f77b4"/>
     <use xlink:href="#m5d29b40fa9" x="288.702503" y="283.843017" style="fill: #1f77b4; stroke: #1f77b4"/>
     <use xlink:href="#m5d29b40fa9" x="290.333933" y="283.668523" style="fill: #1f77b4; stroke: #1f77b4"/>
     <use xlink:href="#m5d29b40fa9" x="291.965363" y="283.971812" style="fill: #1f77b4; stroke: #1f77b4"/>
     <use xlink:href="#m5d29b40fa9" x="293.596793" y="284.322922" style="fill: #1f77b4; stroke: #1f77b4"/>
     <use xlink:href="#m5d29b40fa9" x="295.228223" y="284.352644" style="fill: #1f77b4; stroke: #1f77b4"/>
     <use xlink:href="#m5d29b40fa9" x="296.859652" y="284.453043" style="fill: #1f77b4; stroke: #1f77b4"/>
     <use xlink:href="#m5d29b40fa9" x="298.491082" y="284.862669" style="fill: #1f77b4; stroke: #1f77b4"/>
     <use xlink:href="#m5d29b40fa9" x="300.122512" y="284.679522" style="fill: #1f77b4; stroke: #1f77b4"/>
     <use xlink:href="#m5d29b40fa9" x="301.753942" y="284.857416" style="fill: #1f77b4; stroke: #1f77b4"/>
     <use xlink:href="#m5d29b40fa9" x="303.385372" y="285.065903" style="fill: #1f77b4; stroke: #1f77b4"/>
     <use xlink:href="#m5d29b40fa9" x="305.016802" y="285.141767" style="fill: #1f77b4; stroke: #1f77b4"/>
     <use xlink:href="#m5d29b40fa9" x="306.648232" y="284.994359" style="fill: #1f77b4; stroke: #1f77b4"/>
     <use xlink:href="#m5d29b40fa9" x="308.279662" y="285.206359" style="fill: #1f77b4; stroke: #1f77b4"/>
     <use xlink:href="#m5d29b40fa9" x="309.911091" y="285.827745" style="fill: #1f77b4; stroke: #1f77b4"/>
     <use xlink:href="#m5d29b40fa9" x="311.542521" y="285.596163" style="fill: #1f77b4; stroke: #1f77b4"/>
     <use xlink:href="#m5d29b40fa9" x="313.173951" y="285.653871" style="fill: #1f77b4; stroke: #1f77b4"/>
     <use xlink:href="#m5d29b40fa9" x="314.805381" y="285.767886" style="fill: #1f77b4; stroke: #1f77b4"/>
     <use xlink:href="#m5d29b40fa9" x="316.436811" y="285.89896" style="fill: #1f77b4; stroke: #1f77b4"/>
     <use xlink:href="#m5d29b40fa9" x="318.068241" y="285.923169" style="fill: #1f77b4; stroke: #1f77b4"/>
     <use xlink:href="#m5d29b40fa9" x="319.699671" y="286.160463" style="fill: #1f77b4; stroke: #1f77b4"/>
     <use xlink:href="#m5d29b40fa9" x="321.331101" y="286.363404" style="fill: #1f77b4; stroke: #1f77b4"/>
     <use xlink:href="#m5d29b40fa9" x="322.96253" y="286.389721" style="fill: #1f77b4; stroke: #1f77b4"/>
     <use xlink:href="#m5d29b40fa9" x="324.59396" y="286.528593" style="fill: #1f77b4; stroke: #1f77b4"/>
     <use xlink:href="#m5d29b40fa9" x="326.22539" y="286.556558" style="fill: #1f77b4; stroke: #1f77b4"/>
     <use xlink:href="#m5d29b40fa9" x="327.85682" y="286.6523" style="fill: #1f77b4; stroke: #1f77b4"/>
     <use xlink:href="#m5d29b40fa9" x="329.48825" y="286.80696" style="fill: #1f77b4; stroke: #1f77b4"/>
     <use xlink:href="#m5d29b40fa9" x="331.11968" y="286.827206" style="fill: #1f77b4; stroke: #1f77b4"/>
     <use xlink:href="#m5d29b40fa9" x="332.75111" y="286.963439" style="fill: #1f77b4; stroke: #1f77b4"/>
     <use xlink:href="#m5d29b40fa9" x="334.38254" y="287.164442" style="fill: #1f77b4; stroke: #1f77b4"/>
     <use xlink:href="#m5d29b40fa9" x="336.013969" y="287.011201" style="fill: #1f77b4; stroke: #1f77b4"/>
     <use xlink:href="#m5d29b40fa9" x="337.645399" y="287.366308" style="fill: #1f77b4; stroke: #1f77b4"/>
     <use xlink:href="#m5d29b40fa9" x="339.276829" y="287.332152" style="fill: #1f77b4; stroke: #1f77b4"/>
     <use xlink:href="#m5d29b40fa9" x="340.908259" y="287.45194" style="fill: #1f77b4; stroke: #1f77b4"/>
     <use xlink:href="#m5d29b40fa9" x="342.539689" y="287.573983" style="fill: #1f77b4; stroke: #1f77b4"/>
     <use xlink:href="#m5d29b40fa9" x="344.171119" y="287.557688" style="fill: #1f77b4; stroke: #1f77b4"/>
     <use xlink:href="#m5d29b40fa9" x="345.802549" y="287.916918" style="fill: #1f77b4; stroke: #1f77b4"/>
     <use xlink:href="#m5d29b40fa9" x="347.433979" y="287.757638" style="fill: #1f77b4; stroke: #1f77b4"/>
     <use xlink:href="#m5d29b40fa9" x="349.065408" y="287.872675" style="fill: #1f77b4; stroke: #1f77b4"/>
     <use xlink:href="#m5d29b40fa9" x="350.696838" y="287.901614" style="fill: #1f77b4; stroke: #1f77b4"/>
     <use xlink:href="#m5d29b40fa9" x="352.328268" y="288.154429" style="fill: #1f77b4; stroke: #1f77b4"/>
     <use xlink:href="#m5d29b40fa9" x="353.959698" y="288.160688" style="fill: #1f77b4; stroke: #1f77b4"/>
     <use xlink:href="#m5d29b40fa9" x="355.591128" y="288.288829" style="fill: #1f77b4; stroke: #1f77b4"/>
     <use xlink:href="#m5d29b40fa9" x="357.222558" y="288.325805" style="fill: #1f77b4; stroke: #1f77b4"/>
     <use xlink:href="#m5d29b40fa9" x="358.853988" y="288.54542" style="fill: #1f77b4; stroke: #1f77b4"/>
     <use xlink:href="#m5d29b40fa9" x="360.485418" y="288.733562" style="fill: #1f77b4; stroke: #1f77b4"/>
     <use xlink:href="#m5d29b40fa9" x="362.116847" y="288.669143" style="fill: #1f77b4; stroke: #1f77b4"/>
     <use xlink:href="#m5d29b40fa9" x="363.748277" y="288.815118" style="fill: #1f77b4; stroke: #1f77b4"/>
     <use xlink:href="#m5d29b40fa9" x="365.379707" y="288.833257" style="fill: #1f77b4; stroke: #1f77b4"/>
     <use xlink:href="#m5d29b40fa9" x="367.011137" y="288.830035" style="fill: #1f77b4; stroke: #1f77b4"/>
     <use xlink:href="#m5d29b40fa9" x="368.642567" y="288.995663" style="fill: #1f77b4; stroke: #1f77b4"/>
     <use xlink:href="#m5d29b40fa9" x="370.273997" y="289.062661" style="fill: #1f77b4; stroke: #1f77b4"/>
     <use xlink:href="#m5d29b40fa9" x="371.905427" y="289.2899" style="fill: #1f77b4; stroke: #1f77b4"/>
     <use xlink:href="#m5d29b40fa9" x="373.536857" y="289.283055" style="fill: #1f77b4; stroke: #1f77b4"/>
     <use xlink:href="#m5d29b40fa9" x="375.168286" y="289.358642" style="fill: #1f77b4; stroke: #1f77b4"/>
     <use xlink:href="#m5d29b40fa9" x="376.799716" y="289.264135" style="fill: #1f77b4; stroke: #1f77b4"/>
     <use xlink:href="#m5d29b40fa9" x="378.431146" y="289.768488" style="fill: #1f77b4; stroke: #1f77b4"/>
     <use xlink:href="#m5d29b40fa9" x="380.062576" y="289.708636" style="fill: #1f77b4; stroke: #1f77b4"/>
     <use xlink:href="#m5d29b40fa9" x="381.694006" y="289.816324" style="fill: #1f77b4; stroke: #1f77b4"/>
     <use xlink:href="#m5d29b40fa9" x="383.325436" y="289.645919" style="fill: #1f77b4; stroke: #1f77b4"/>
     <use xlink:href="#m5d29b40fa9" x="384.956866" y="289.942958" style="fill: #1f77b4; stroke: #1f77b4"/>
     <use xlink:href="#m5d29b40fa9" x="386.588296" y="289.918009" style="fill: #1f77b4; stroke: #1f77b4"/>
     <use xlink:href="#m5d29b40fa9" x="388.219725" y="289.996353" style="fill: #1f77b4; stroke: #1f77b4"/>
     <use xlink:href="#m5d29b40fa9" x="389.851155" y="290.165534" style="fill: #1f77b4; stroke: #1f77b4"/>
     <use xlink:href="#m5d29b40fa9" x="391.482585" y="290.034111" style="fill: #1f77b4; stroke: #1f77b4"/>
    </g>
   </g>
   <g id="line2d_22">
    <path d="M 66.82804 282.134024 
L 95.426238 283.845177 
L 116.549907 285.320086 
L 132.798883 286.66447 
L 145.798064 287.952842 
L 156.522389 289.235563 
L 165.296836 290.502848 
L 172.771365 291.799953 
L 179.270955 293.145843 
L 185.120587 294.577487 
L 190.645239 296.1572 
L 196.169891 297.970534 
L 208.519113 302.306693 
L 208.844092 192.410182 
L 211.443928 193.009435 
L 213.393806 193.223371 
L 215.018703 193.164702 
L 216.318621 192.901907 
L 217.29356 192.541753 
L 217.618539 302.373818 
L 218.593478 301.776732 
L 219.568417 300.962445 
L 220.543355 299.896793 
L 221.518294 298.552563 
L 222.818212 296.316817 
L 224.443109 292.944349 
L 227.367925 286.73008 
L 228.667843 284.514169 
L 229.967761 282.764793 
L 231.267679 281.441386 
L 232.567598 280.469181 
L 233.867516 279.772241 
L 235.492413 279.19126 
L 237.117311 278.844362 
L 239.067188 278.642133 
L 241.667024 278.609673 
L 245.241799 278.820766 
L 250.766451 279.412368 
L 279.689629 282.821671 
L 293.663748 284.116724 
L 310.562684 285.448555 
L 331.361373 286.855846 
L 358.334674 288.446913 
L 391.482585 290.190617 
L 391.482585 290.190617 
" clip-path="url(#pec9c2e2d81)" style="fill: none; stroke: #d62728; stroke-width: 1.5; stroke-linecap: square"/>
   </g>
   <g id="patch_9">
    <path d="M 50.595313 307.872 
L 50.595313 186.912 
" style="fill: none; stroke: #000000; stroke-width: 0.8; stroke-linejoin: miter; stroke-linecap: square"/>
   </g>
   <g id="patch_10">
    <path d="M 407.715312 307.872 
L 407.715312 186.912 
" style="fill: none; stroke: #000000; stroke-width: 0.8; stroke-linejoin: miter; stroke-linecap: square"/>
   </g>
   <g id="patch_11">
    <path d="M 50.595312 307.872 
L 407.715313 307.872 
" style="fill: none; stroke: #000000; stroke-width: 0.8; stroke-linejoin: miter; stroke-linecap: square"/>
   </g>
   <g id="patch_12">
    <path d="M 50.595312 186.912 
L 407.715313 186.912 
" style="fill: none; stroke: #000000; stroke-width: 0.8; stroke-linejoin: miter; stroke-linecap: square"/>
   </g>
  </g>
  <g id="text_19">
   <!-- S21 resonator spectroscopy -->
   <g transform="translate(139.610938 16.318125) scale(0.12 -0.12)">
    <defs>
     <path id="DejaVuSans-73" d="M 2834 3397 
L 2834 2853 
Q 2591 2978 2328 3040 
Q 2066 3103 1784 3103 
Q 1356 3103 1142 2972 
Q 928 2841 928 2578 
Q 928 2378 1081 2264 
Q 1234 2150 1697 2047 
L 1894 2003 
Q 2506 1872 2764 1633 
Q 3022 1394 3022 966 
Q 3022 478 2636 193 
Q 2250 -91 1575 -91 
Q 1294 -91 989 -36 
Q 684 19 347 128 
L 347 722 
Q 666 556 975 473 
Q 1284 391 1588 391 
Q 1994 391 2212 530 
Q 2431 669 2431 922 
Q 2431 1156 2273 1281 
Q 2116 1406 1581 1522 
L 1381 1569 
Q 847 1681 609 1914 
Q 372 2147 372 2553 
Q 372 3047 722 3315 
Q 1072 3584 1716 3584 
Q 2034 3584 2315 3537 
Q 2597 3491 2834 3397 
z
" transform="scale(0.015625)"/>
     <path id="DejaVuSans-6f" d="M 1959 3097 
Q 1497 3097 1228 2736 
Q 959 2375 959 1747 
Q 959 1119 1226 758 
Q 1494 397 1959 397 
Q 2419 397 2687 759 
Q 2956 1122 2956 1747 
Q 2956 2369 2687 2733 
Q 2419 3097 1959 3097 
z
M 1959 3584 
Q 2709 3584 3137 3096 
Q 3566 2609 3566 1747 
Q 3566 888 3137 398 
Q 2709 -91 1959 -91 
Q 1206 -91 779 398 
Q 353 888 353 1747 
Q 353 2609 779 3096 
Q 1206 3584 1959 3584 
z
" transform="scale(0.015625)"/>
     <path id="DejaVuSans-74" d="M 1172 4494 
L 1172 3500 
L 2356 3500 
L 2356 3053 
L 1172 3053 
L 1172 1153 
Q 1172 725 1289 603 
Q 1406 481 1766 481 
L 2356 481 
L 2356 0 
L 1766 0 
Q 1100 0 847 248 
Q 594 497 594 1153 
L 594 3053 
L 172 3053 
L 172 3500 
L 594 3500 
L 594 4494 
L 1172 4494 
z
" transform="scale(0.015625)"/>
     <path id="DejaVuSans-70" d="M 1159 525 
L 1159 -1331 
L 581 -1331 
L 581 3500 
L 1159 3500 
L 1159 2969 
Q 1341 3281 1617 3432 
Q 1894 3584 2278 3584 
Q 2916 3584 3314 3078 
Q 3713 2572 3713 1747 
Q 3713 922 3314 415 
Q 2916 -91 2278 -91 
Q 1894 -91 1617 61 
Q 1341 213 1159 525 
z
M 3116 1747 
Q 3116 2381 2855 2742 
Q 2594 3103 2138 3103 
Q 1681 3103 1420 2742 
Q 1159 2381 1159 1747 
Q 1159 1113 1420 752 
Q 1681 391 2138 391 
Q 2594 391 2855 752 
Q 3116 1113 3116 1747 
z
" transform="scale(0.015625)"/>
    </defs>
    <use xlink:href="#DejaVuSans-53"/>
    <use xlink:href="#DejaVuSans-32" x="63.476562"/>
    <use xlink:href="#DejaVuSans-31" x="127.099609"/>
    <use xlink:href="#DejaVuSans-20" x="190.722656"/>
    <use xlink:href="#DejaVuSans-72" x="222.509766"/>
    <use xlink:href="#DejaVuSans-65" x="261.373047"/>
    <use xlink:href="#DejaVuSans-73" x="322.896484"/>
    <use xlink:href="#DejaVuSans-6f" x="374.996094"/>
    <use xlink:href="#DejaVuSans-6e" x="436.177734"/>
    <use xlink:href="#DejaVuSans-61" x="499.556641"/>
    <use xlink:href="#DejaVuSans-74" x="560.835938"/>
    <use xlink:href="#DejaVuSans-6f" x="600.044922"/>
    <use xlink:href="#DejaVuSans-72" x="661.226562"/>
    <use xlink:href="#DejaVuSans-20" x="702.339844"/>
    <use xlink:href="#DejaVuSans-73" x="734.126953"/>
    <use xlink:href="#DejaVuSans-70" x="786.226562"/>
    <use xlink:href="#DejaVuSans-65" x="849.703125"/>
    <use xlink:href="#DejaVuSans-63" x="911.226562"/>
    <use xlink:href="#DejaVuSans-74" x="966.207031"/>
    <use xlink:href="#DejaVuSans-72" x="1005.416016"/>
    <use xlink:href="#DejaVuSans-6f" x="1044.279297"/>
    <use xlink:href="#DejaVuSans-73" x="1105.460938"/>
    <use xlink:href="#DejaVuSans-63" x="1157.560547"/>
    <use xlink:href="#DejaVuSans-6f" x="1212.541016"/>
    <use xlink:href="#DejaVuSans-70" x="1273.722656"/>
    <use xlink:href="#DejaVuSans-79" x="1337.199219"/>
   </g>
   <!-- tuid: 20231227-193402-270-26090e -->
   <g transform="translate(113.665625 29.7555) scale(0.12 -0.12)">
    <defs>
     <path id="DejaVuSans-69" d="M 603 3500 
L 1178 3500 
L 1178 0 
L 603 0 
L 603 3500 
z
M 603 4863 
L 1178 4863 
L 1178 4134 
L 603 4134 
L 603 4863 
z
" transform="scale(0.015625)"/>
     <path id="DejaVuSans-37" d="M 525 4666 
L 3525 4666 
L 3525 4397 
L 1831 0 
L 1172 0 
L 2766 4134 
L 525 4134 
L 525 4666 
z
" transform="scale(0.015625)"/>
    </defs>
    <use xlink:href="#DejaVuSans-74"/>
    <use xlink:href="#DejaVuSans-75" x="39.208984"/>
    <use xlink:href="#DejaVuSans-69" x="102.587891"/>
    <use xlink:href="#DejaVuSans-64" x="130.371094"/>
    <use xlink:href="#DejaVuSans-3a" x="193.847656"/>
    <use xlink:href="#DejaVuSans-20" x="227.539062"/>
    <use xlink:href="#DejaVuSans-32" x="259.326172"/>
    <use xlink:href="#DejaVuSans-30" x="322.949219"/>
    <use xlink:href="#DejaVuSans-32" x="386.572266"/>
    <use xlink:href="#DejaVuSans-33" x="450.195312"/>
    <use xlink:href="#DejaVuSans-31" x="513.818359"/>
    <use xlink:href="#DejaVuSans-32" x="577.441406"/>
    <use xlink:href="#DejaVuSans-32" x="641.064453"/>
    <use xlink:href="#DejaVuSans-37" x="704.6875"/>
    <use xlink:href="#DejaVuSans-2d" x="768.310547"/>
    <use xlink:href="#DejaVuSans-31" x="804.394531"/>
    <use xlink:href="#DejaVuSans-39" x="868.017578"/>
    <use xlink:href="#DejaVuSans-33" x="931.640625"/>
    <use xlink:href="#DejaVuSans-34" x="995.263672"/>
    <use xlink:href="#DejaVuSans-30" x="1058.886719"/>
    <use xlink:href="#DejaVuSans-32" x="1122.509766"/>
    <use xlink:href="#DejaVuSans-2d" x="1186.132812"/>
    <use xlink:href="#DejaVuSans-32" x="1222.216797"/>
    <use xlink:href="#DejaVuSans-37" x="1285.839844"/>
    <use xlink:href="#DejaVuSans-30" x="1349.462891"/>
    <use xlink:href="#DejaVuSans-2d" x="1413.085938"/>
    <use xlink:href="#DejaVuSans-32" x="1449.169922"/>
    <use xlink:href="#DejaVuSans-36" x="1512.792969"/>
    <use xlink:href="#DejaVuSans-30" x="1576.416016"/>
    <use xlink:href="#DejaVuSans-39" x="1640.039062"/>
    <use xlink:href="#DejaVuSans-30" x="1703.662109"/>
    <use xlink:href="#DejaVuSans-65" x="1767.285156"/>
   </g>
  </g>
 </g>
 <defs>
  <clipPath id="p45fbc84db6">
   <rect x="50.595313" y="41.76" width="357.12" height="120.96"/>
  </clipPath>
  <clipPath id="pec9c2e2d81">
   <rect x="50.595313" y="186.912" width="357.12" height="120.96"/>
  </clipPath>
 </defs>
</svg>
