<?xml version="1.0" encoding="utf-8" standalone="no"?>
<!DOCTYPE svg PUBLIC "-//W3C//DTD SVG 1.1//EN"
  "http://www.w3.org/Graphics/SVG/1.1/DTD/svg11.dtd">
<svg xmlns:xlink="http://www.w3.org/1999/xlink" width="571.586937pt" height="345.42825pt" viewBox="0 0 571.586937 345.42825" xmlns="http://www.w3.org/2000/svg" version="1.1">
 <metadata>
  <rdf:RDF xmlns:dc="http://purl.org/dc/elements/1.1/" xmlns:cc="http://creativecommons.org/ns#" xmlns:rdf="http://www.w3.org/1999/02/22-rdf-syntax-ns#">
   <cc:Work>
    <dc:type rdf:resource="http://purl.org/dc/dcmitype/StillImage"/>
    <dc:date>2023-12-27T19:34:17.471790</dc:date>
    <dc:format>image/svg+xml</dc:format>
    <dc:creator>
     <cc:Agent>
      <dc:title>Matplotlib v3.8.2, https://matplotlib.org/</dc:title>
     </cc:Agent>
    </dc:creator>
   </cc:Work>
  </rdf:RDF>
 </metadata>
 <defs>
  <style type="text/css">*{stroke-linejoin: round; stroke-linecap: butt}</style>
 </defs>
 <g id="figure_1">
  <g id="patch_1">
   <path d="M 0 345.42825 
L 571.586937 345.42825 
L 571.586937 -0 
L 0 -0 
L 0 345.42825 
z
" style="fill: none; opacity: 0"/>
  </g>
  <g id="axes_1">
   <g id="patch_2">
    <path d="M 44.210938 307.872 
L 401.330938 307.872 
L 401.330938 41.76 
L 44.210938 41.76 
z
" style="fill: #ffffff"/>
   </g>
   <g id="matplotlib.axis_1">
    <g id="xtick_1">
     <g id="line2d_1">
      <defs>
       <path id="m347019261d" d="M 0 0 
L 0 3.5 
" style="stroke: #000000; stroke-width: 0.8"/>
      </defs>
      <g>
       <use xlink:href="#m347019261d" x="101.960809" y="307.872" style="stroke: #000000; stroke-width: 0.8"/>
      </g>
     </g>
     <g id="text_1">
      <!-- -8 -->
      <g transform="translate(96.975652 322.470438) scale(0.1 -0.1)">
       <defs>
        <path id="DejaVuSans-2d" d="M 313 2009 
L 1997 2009 
L 1997 1497 
L 313 1497 
L 313 2009 
z
" transform="scale(0.015625)"/>
        <path id="DejaVuSans-38" d="M 2034 2216 
Q 1584 2216 1326 1975 
Q 1069 1734 1069 1313 
Q 1069 891 1326 650 
Q 1584 409 2034 409 
Q 2484 409 2743 651 
Q 3003 894 3003 1313 
Q 3003 1734 2745 1975 
Q 2488 2216 2034 2216 
z
M 1403 2484 
Q 997 2584 770 2862 
Q 544 3141 544 3541 
Q 544 4100 942 4425 
Q 1341 4750 2034 4750 
Q 2731 4750 3128 4425 
Q 3525 4100 3525 3541 
Q 3525 3141 3298 2862 
Q 3072 2584 2669 2484 
Q 3125 2378 3379 2068 
Q 3634 1759 3634 1313 
Q 3634 634 3220 271 
Q 2806 -91 2034 -91 
Q 1263 -91 848 271 
Q 434 634 434 1313 
Q 434 1759 690 2068 
Q 947 2378 1403 2484 
z
M 1172 3481 
Q 1172 3119 1398 2916 
Q 1625 2713 2034 2713 
Q 2441 2713 2670 2916 
Q 2900 3119 2900 3481 
Q 2900 3844 2670 4047 
Q 2441 4250 2034 4250 
Q 1625 4250 1398 4047 
Q 1172 3844 1172 3481 
z
" transform="scale(0.015625)"/>
       </defs>
       <use xlink:href="#DejaVuSans-2d"/>
       <use xlink:href="#DejaVuSans-38" x="36.083984"/>
      </g>
     </g>
    </g>
    <g id="xtick_2">
     <g id="line2d_2">
      <g>
       <use xlink:href="#m347019261d" x="180.188487" y="307.872" style="stroke: #000000; stroke-width: 0.8"/>
      </g>
     </g>
     <g id="text_2">
      <!-- -6 -->
      <g transform="translate(175.20333 322.470438) scale(0.1 -0.1)">
       <defs>
        <path id="DejaVuSans-36" d="M 2113 2584 
Q 1688 2584 1439 2293 
Q 1191 2003 1191 1497 
Q 1191 994 1439 701 
Q 1688 409 2113 409 
Q 2538 409 2786 701 
Q 3034 994 3034 1497 
Q 3034 2003 2786 2293 
Q 2538 2584 2113 2584 
z
M 3366 4563 
L 3366 3988 
Q 3128 4100 2886 4159 
Q 2644 4219 2406 4219 
Q 1781 4219 1451 3797 
Q 1122 3375 1075 2522 
Q 1259 2794 1537 2939 
Q 1816 3084 2150 3084 
Q 2853 3084 3261 2657 
Q 3669 2231 3669 1497 
Q 3669 778 3244 343 
Q 2819 -91 2113 -91 
Q 1303 -91 875 529 
Q 447 1150 447 2328 
Q 447 3434 972 4092 
Q 1497 4750 2381 4750 
Q 2619 4750 2861 4703 
Q 3103 4656 3366 4563 
z
" transform="scale(0.015625)"/>
       </defs>
       <use xlink:href="#DejaVuSans-2d"/>
       <use xlink:href="#DejaVuSans-36" x="36.083984"/>
      </g>
     </g>
    </g>
    <g id="xtick_3">
     <g id="line2d_3">
      <g>
       <use xlink:href="#m347019261d" x="258.416165" y="307.872" style="stroke: #000000; stroke-width: 0.8"/>
      </g>
     </g>
     <g id="text_3">
      <!-- -4 -->
      <g transform="translate(253.431009 322.470438) scale(0.1 -0.1)">
       <defs>
        <path id="DejaVuSans-34" d="M 2419 4116 
L 825 1625 
L 2419 1625 
L 2419 4116 
z
M 2253 4666 
L 3047 4666 
L 3047 1625 
L 3713 1625 
L 3713 1100 
L 3047 1100 
L 3047 0 
L 2419 0 
L 2419 1100 
L 313 1100 
L 313 1709 
L 2253 4666 
z
" transform="scale(0.015625)"/>
       </defs>
       <use xlink:href="#DejaVuSans-2d"/>
       <use xlink:href="#DejaVuSans-34" x="36.083984"/>
      </g>
     </g>
    </g>
    <g id="xtick_4">
     <g id="line2d_4">
      <g>
       <use xlink:href="#m347019261d" x="336.643843" y="307.872" style="stroke: #000000; stroke-width: 0.8"/>
      </g>
     </g>
     <g id="text_4">
      <!-- -2 -->
      <g transform="translate(331.658687 322.470438) scale(0.1 -0.1)">
       <defs>
        <path id="DejaVuSans-32" d="M 1228 531 
L 3431 531 
L 3431 0 
L 469 0 
L 469 531 
Q 828 903 1448 1529 
Q 2069 2156 2228 2338 
Q 2531 2678 2651 2914 
Q 2772 3150 2772 3378 
Q 2772 3750 2511 3984 
Q 2250 4219 1831 4219 
Q 1534 4219 1204 4116 
Q 875 4013 500 3803 
L 500 4441 
Q 881 4594 1212 4672 
Q 1544 4750 1819 4750 
Q 2544 4750 2975 4387 
Q 3406 4025 3406 3419 
Q 3406 3131 3298 2873 
Q 3191 2616 2906 2266 
Q 2828 2175 2409 1742 
Q 1991 1309 1228 531 
z
" transform="scale(0.015625)"/>
       </defs>
       <use xlink:href="#DejaVuSans-2d"/>
       <use xlink:href="#DejaVuSans-32" x="36.083984"/>
      </g>
     </g>
    </g>
    <g id="text_5">
     <!-- Re$(S_{21})$ [mV] -->
     <g transform="translate(190.770938 336.148562) scale(0.1 -0.1)">
      <defs>
       <path id="DejaVuSans-52" d="M 2841 2188 
Q 3044 2119 3236 1894 
Q 3428 1669 3622 1275 
L 4263 0 
L 3584 0 
L 2988 1197 
Q 2756 1666 2539 1819 
Q 2322 1972 1947 1972 
L 1259 1972 
L 1259 0 
L 628 0 
L 628 4666 
L 2053 4666 
Q 2853 4666 3247 4331 
Q 3641 3997 3641 3322 
Q 3641 2881 3436 2590 
Q 3231 2300 2841 2188 
z
M 1259 4147 
L 1259 2491 
L 2053 2491 
Q 2509 2491 2742 2702 
Q 2975 2913 2975 3322 
Q 2975 3731 2742 3939 
Q 2509 4147 2053 4147 
L 1259 4147 
z
" transform="scale(0.015625)"/>
       <path id="DejaVuSans-65" d="M 3597 1894 
L 3597 1613 
L 953 1613 
Q 991 1019 1311 708 
Q 1631 397 2203 397 
Q 2534 397 2845 478 
Q 3156 559 3463 722 
L 3463 178 
Q 3153 47 2828 -22 
Q 2503 -91 2169 -91 
Q 1331 -91 842 396 
Q 353 884 353 1716 
Q 353 2575 817 3079 
Q 1281 3584 2069 3584 
Q 2775 3584 3186 3129 
Q 3597 2675 3597 1894 
z
M 3022 2063 
Q 3016 2534 2758 2815 
Q 2500 3097 2075 3097 
Q 1594 3097 1305 2825 
Q 1016 2553 972 2059 
L 3022 2063 
z
" transform="scale(0.015625)"/>
       <path id="DejaVuSans-28" d="M 1984 4856 
Q 1566 4138 1362 3434 
Q 1159 2731 1159 2009 
Q 1159 1288 1364 580 
Q 1569 -128 1984 -844 
L 1484 -844 
Q 1016 -109 783 600 
Q 550 1309 550 2009 
Q 550 2706 781 3412 
Q 1013 4119 1484 4856 
L 1984 4856 
z
" transform="scale(0.015625)"/>
       <path id="DejaVuSans-Oblique-53" d="M 3859 4513 
L 3738 3897 
Q 3422 4066 3111 4152 
Q 2800 4238 2509 4238 
Q 1944 4238 1609 3991 
Q 1275 3744 1275 3334 
Q 1275 3109 1398 2989 
Q 1522 2869 2034 2731 
L 2413 2638 
Q 3053 2472 3303 2217 
Q 3553 1963 3553 1503 
Q 3553 797 2998 353 
Q 2444 -91 1538 -91 
Q 1166 -91 791 -17 
Q 416 56 38 206 
L 166 856 
Q 513 641 861 531 
Q 1209 422 1556 422 
Q 2147 422 2503 684 
Q 2859 947 2859 1369 
Q 2859 1650 2717 1795 
Q 2575 1941 2106 2059 
L 1728 2156 
Q 1081 2325 845 2545 
Q 609 2766 609 3163 
Q 609 3859 1145 4304 
Q 1681 4750 2541 4750 
Q 2875 4750 3203 4690 
Q 3531 4631 3859 4513 
z
" transform="scale(0.015625)"/>
       <path id="DejaVuSans-31" d="M 794 531 
L 1825 531 
L 1825 4091 
L 703 3866 
L 703 4441 
L 1819 4666 
L 2450 4666 
L 2450 531 
L 3481 531 
L 3481 0 
L 794 0 
L 794 531 
z
" transform="scale(0.015625)"/>
       <path id="DejaVuSans-29" d="M 513 4856 
L 1013 4856 
Q 1481 4119 1714 3412 
Q 1947 2706 1947 2009 
Q 1947 1309 1714 600 
Q 1481 -109 1013 -844 
L 513 -844 
Q 928 -128 1133 580 
Q 1338 1288 1338 2009 
Q 1338 2731 1133 3434 
Q 928 4138 513 4856 
z
" transform="scale(0.015625)"/>
       <path id="DejaVuSans-20" transform="scale(0.015625)"/>
       <path id="DejaVuSans-5b" d="M 550 4863 
L 1875 4863 
L 1875 4416 
L 1125 4416 
L 1125 -397 
L 1875 -397 
L 1875 -844 
L 550 -844 
L 550 4863 
z
" transform="scale(0.015625)"/>
       <path id="DejaVuSans-6d" d="M 3328 2828 
Q 3544 3216 3844 3400 
Q 4144 3584 4550 3584 
Q 5097 3584 5394 3201 
Q 5691 2819 5691 2113 
L 5691 0 
L 5113 0 
L 5113 2094 
Q 5113 2597 4934 2840 
Q 4756 3084 4391 3084 
Q 3944 3084 3684 2787 
Q 3425 2491 3425 1978 
L 3425 0 
L 2847 0 
L 2847 2094 
Q 2847 2600 2669 2842 
Q 2491 3084 2119 3084 
Q 1678 3084 1418 2786 
Q 1159 2488 1159 1978 
L 1159 0 
L 581 0 
L 581 3500 
L 1159 3500 
L 1159 2956 
Q 1356 3278 1631 3431 
Q 1906 3584 2284 3584 
Q 2666 3584 2933 3390 
Q 3200 3197 3328 2828 
z
" transform="scale(0.015625)"/>
       <path id="DejaVuSans-56" d="M 1831 0 
L 50 4666 
L 709 4666 
L 2188 738 
L 3669 4666 
L 4325 4666 
L 2547 0 
L 1831 0 
z
" transform="scale(0.015625)"/>
       <path id="DejaVuSans-5d" d="M 1947 4863 
L 1947 -844 
L 622 -844 
L 622 -397 
L 1369 -397 
L 1369 4416 
L 622 4416 
L 622 4863 
L 1947 4863 
z
" transform="scale(0.015625)"/>
      </defs>
      <use xlink:href="#DejaVuSans-52" transform="translate(0 0.015625)"/>
      <use xlink:href="#DejaVuSans-65" transform="translate(69.482422 0.015625)"/>
      <use xlink:href="#DejaVuSans-28" transform="translate(131.005859 0.015625)"/>
      <use xlink:href="#DejaVuSans-Oblique-53" transform="translate(170.019531 0.015625)"/>
      <use xlink:href="#DejaVuSans-32" transform="translate(233.496094 -16.390625) scale(0.7)"/>
      <use xlink:href="#DejaVuSans-31" transform="translate(278.032227 -16.390625) scale(0.7)"/>
      <use xlink:href="#DejaVuSans-29" transform="translate(325.302734 0.015625)"/>
      <use xlink:href="#DejaVuSans-20" transform="translate(364.316406 0.015625)"/>
      <use xlink:href="#DejaVuSans-5b" transform="translate(396.103516 0.015625)"/>
      <use xlink:href="#DejaVuSans-6d" transform="translate(435.117188 0.015625)"/>
      <use xlink:href="#DejaVuSans-56" transform="translate(532.529297 0.015625)"/>
      <use xlink:href="#DejaVuSans-5d" transform="translate(600.9375 0.015625)"/>
     </g>
    </g>
   </g>
   <g id="matplotlib.axis_2">
    <g id="ytick_1">
     <g id="line2d_5">
      <defs>
       <path id="ma63f9021f6" d="M 0 0 
L -3.5 0 
" style="stroke: #000000; stroke-width: 0.8"/>
      </defs>
      <g>
       <use xlink:href="#ma63f9021f6" x="44.210938" y="305.140598" style="stroke: #000000; stroke-width: 0.8"/>
      </g>
     </g>
     <g id="text_6">
      <!-- -10 -->
      <g transform="translate(20.878125 308.939817) scale(0.1 -0.1)">
       <defs>
        <path id="DejaVuSans-30" d="M 2034 4250 
Q 1547 4250 1301 3770 
Q 1056 3291 1056 2328 
Q 1056 1369 1301 889 
Q 1547 409 2034 409 
Q 2525 409 2770 889 
Q 3016 1369 3016 2328 
Q 3016 3291 2770 3770 
Q 2525 4250 2034 4250 
z
M 2034 4750 
Q 2819 4750 3233 4129 
Q 3647 3509 3647 2328 
Q 3647 1150 3233 529 
Q 2819 -91 2034 -91 
Q 1250 -91 836 529 
Q 422 1150 422 2328 
Q 422 3509 836 4129 
Q 1250 4750 2034 4750 
z
" transform="scale(0.015625)"/>
       </defs>
       <use xlink:href="#DejaVuSans-2d"/>
       <use xlink:href="#DejaVuSans-31" x="36.083984"/>
       <use xlink:href="#DejaVuSans-30" x="99.707031"/>
      </g>
     </g>
    </g>
    <g id="ytick_2">
     <g id="line2d_6">
      <g>
       <use xlink:href="#ma63f9021f6" x="44.210938" y="255.97461" style="stroke: #000000; stroke-width: 0.8"/>
      </g>
     </g>
     <g id="text_7">
      <!-- -8 -->
      <g transform="translate(27.240625 259.773828) scale(0.1 -0.1)">
       <use xlink:href="#DejaVuSans-2d"/>
       <use xlink:href="#DejaVuSans-38" x="36.083984"/>
      </g>
     </g>
    </g>
    <g id="ytick_3">
     <g id="line2d_7">
      <g>
       <use xlink:href="#ma63f9021f6" x="44.210938" y="206.808621" style="stroke: #000000; stroke-width: 0.8"/>
      </g>
     </g>
     <g id="text_8">
      <!-- -6 -->
      <g transform="translate(27.240625 210.60784) scale(0.1 -0.1)">
       <use xlink:href="#DejaVuSans-2d"/>
       <use xlink:href="#DejaVuSans-36" x="36.083984"/>
      </g>
     </g>
    </g>
    <g id="ytick_4">
     <g id="line2d_8">
      <g>
       <use xlink:href="#ma63f9021f6" x="44.210938" y="157.642633" style="stroke: #000000; stroke-width: 0.8"/>
      </g>
     </g>
     <g id="text_9">
      <!-- -4 -->
      <g transform="translate(27.240625 161.441851) scale(0.1 -0.1)">
       <use xlink:href="#DejaVuSans-2d"/>
       <use xlink:href="#DejaVuSans-34" x="36.083984"/>
      </g>
     </g>
    </g>
    <g id="ytick_5">
     <g id="line2d_9">
      <g>
       <use xlink:href="#ma63f9021f6" x="44.210938" y="108.476644" style="stroke: #000000; stroke-width: 0.8"/>
      </g>
     </g>
     <g id="text_10">
      <!-- -2 -->
      <g transform="translate(27.240625 112.275863) scale(0.1 -0.1)">
       <use xlink:href="#DejaVuSans-2d"/>
       <use xlink:href="#DejaVuSans-32" x="36.083984"/>
      </g>
     </g>
    </g>
    <g id="ytick_6">
     <g id="line2d_10">
      <g>
       <use xlink:href="#ma63f9021f6" x="44.210938" y="59.310656" style="stroke: #000000; stroke-width: 0.8"/>
      </g>
     </g>
     <g id="text_11">
      <!-- 0 -->
      <g transform="translate(30.848437 63.109874) scale(0.1 -0.1)">
       <use xlink:href="#DejaVuSans-30"/>
      </g>
     </g>
    </g>
    <g id="text_12">
     <!-- Im$(S_{21})$ [mV] -->
     <g transform="translate(14.798437 206.466) rotate(-90) scale(0.1 -0.1)">
      <defs>
       <path id="DejaVuSans-49" d="M 628 4666 
L 1259 4666 
L 1259 0 
L 628 0 
L 628 4666 
z
" transform="scale(0.015625)"/>
      </defs>
      <use xlink:href="#DejaVuSans-49" transform="translate(0 0.015625)"/>
      <use xlink:href="#DejaVuSans-6d" transform="translate(25.867188 0.015625)"/>
      <use xlink:href="#DejaVuSans-28" transform="translate(123.279297 0.015625)"/>
      <use xlink:href="#DejaVuSans-Oblique-53" transform="translate(162.292969 0.015625)"/>
      <use xlink:href="#DejaVuSans-32" transform="translate(225.769531 -16.390625) scale(0.7)"/>
      <use xlink:href="#DejaVuSans-31" transform="translate(270.305664 -16.390625) scale(0.7)"/>
      <use xlink:href="#DejaVuSans-29" transform="translate(317.576172 0.015625)"/>
      <use xlink:href="#DejaVuSans-20" transform="translate(356.589844 0.015625)"/>
      <use xlink:href="#DejaVuSans-5b" transform="translate(388.376953 0.015625)"/>
      <use xlink:href="#DejaVuSans-6d" transform="translate(427.390625 0.015625)"/>
      <use xlink:href="#DejaVuSans-56" transform="translate(524.802734 0.015625)"/>
      <use xlink:href="#DejaVuSans-5d" transform="translate(593.210938 0.015625)"/>
     </g>
    </g>
   </g>
   <g id="line2d_11">
    <path d="M 244.685112 293.465897 
L 244.571738 295.760684 
L 243.379109 294.856278 
L 238.802983 294.034123 
L 236.141467 291.910055 
L 237.372949 293.31797 
L 237.39936 293.782008 
L 232.0303 291.835278 
L 225.894928 290.209782 
L 226.689179 291.521702 
L 227.265643 291.16097 
L 223.238423 288.371348 
L 224.680516 286.774808 
L 219.065855 287.227264 
L 216.288503 285.254059 
L 215.477479 287.0159 
L 211.53357 285.57404 
L 211.63327 285.040721 
L 208.246716 282.598647 
L 206.65125 283.031489 
L 207.334846 282.945209 
L 198.774174 282.173199 
L 204.051262 281.723304 
L 193.554282 278.623256 
L 196.084633 278.349418 
L 193.971046 276.619841 
L 190.953189 276.572284 
L 187.354623 279.344613 
L 184.222756 278.14921 
L 184.271884 272.661556 
L 183.294197 275.91938 
L 179.09628 273.265623 
L 171.105193 272.440132 
L 173.19084 270.752428 
L 176.626777 273.78832 
L 165.662376 267.92144 
L 168.31731 267.875004 
L 167.397627 265.344863 
L 161.280853 267.690115 
L 156.318536 265.790194 
L 153.390273 262.645844 
L 151.144715 260.574457 
L 152.649652 260.135718 
L 144.450968 260.838608 
L 139.975647 259.926757 
L 141.36806 259.071135 
L 139.06195 254.063133 
L 130.927809 253.298675 
L 133.559432 254.001245 
L 126.030968 248.225822 
L 121.029076 246.055799 
L 126.278903 243.920736 
L 117.978821 242.744147 
L 115.91398 240.327426 
L 111.178367 241.38088 
L 107.127283 237.187107 
L 100.833061 231.662171 
L 100.628692 230.897073 
L 99.871383 228.965714 
L 92.286317 226.196108 
L 92.954456 222.52295 
L 89.134195 220.955979 
L 80.9736 217.139056 
L 79.838932 212.962016 
L 80.218457 207.870828 
L 79.618809 202.363587 
L 74.258623 197.481628 
L 70.272506 195.20675 
L 72.438151 188.261037 
L 63.787969 182.123788 
L 66.054461 173.811792 
L 60.443665 167.094976 
L 63.021658 160.887887 
L 61.994376 156.085349 
L 64.064099 150.098297 
L 63.046626 140.494103 
L 62.685487 133.217867 
L 71.304629 124.592216 
L 75.22718 116.168641 
L 82.148268 106.385028 
L 92.818663 96.910801 
L 108.35885 89.001463 
L 112.082552 82.938112 
L 132.315339 73.447045 
L 139.184114 69.485451 
L 165.121495 67.894461 
L 179.05144 59.524501 
L 199.355138 55.696556 
L 223.340161 53.973839 
L 243.254016 60.90418 
L 253.025661 61.030598 
L 270.672769 64.641815 
L 287.640612 62.553695 
L 304.273473 68.550168 
L 325.636937 73.269441 
L 336.071243 83.468121 
L 347.474362 91.955559 
L 357.548081 101.009835 
L 367.248347 106.133127 
L 373.524607 107.860355 
L 377.56584 117.587791 
L 382.325656 129.436119 
L 384.790021 139.326507 
L 384.43453 146.714856 
L 385.09821 156.061998 
L 382.847556 163.948465 
L 375.79662 169.323231 
L 381.704225 175.230435 
L 374.821438 182.496209 
L 369.889014 185.256235 
L 366.648104 190.785601 
L 365.398703 195.945001 
L 357.565787 199.346429 
L 352.843465 202.78279 
L 349.065157 204.260305 
L 341.216954 211.299558 
L 332.247671 213.49005 
L 325.92967 216.473929 
L 324.689101 221.712163 
L 326.470551 220.56058 
L 314.686548 222.55839 
L 312.658523 224.007163 
L 309.982782 228.098084 
L 300.386293 226.231121 
L 298.649089 227.034249 
L 294.681655 226.809915 
L 288.432018 230.161225 
L 283.200747 229.160825 
L 281.245501 232.533858 
L 281.089156 231.853199 
L 275.600819 231.523904 
L 268.081824 232.379926 
L 270.480331 232.068458 
L 265.402772 233.328952 
L 261.713888 230.960402 
L 261.133391 235.709805 
L 255.031182 235.400499 
L 250.892711 231.826271 
L 247.86649 234.334369 
L 245.503057 234.52505 
L 238.379043 232.622166 
L 240.677509 234.372372 
L 239.13062 231.998244 
L 233.515152 232.925601 
L 230.66001 234.003927 
L 232.435769 235.524489 
L 228.057771 235.05997 
L 217.171584 231.724005 
L 220.72098 233.439598 
L 220.631852 232.30328 
L 215.999761 234.002246 
L 216.650066 230.704471 
L 213.323426 233.075103 
L 211.281218 229.928325 
L 206.589468 229.708368 
L 203.960648 231.323136 
L 203.74664 228.701163 
L 201.088308 230.270723 
L 197.032978 231.56615 
L 195.753642 229.469517 
L 195.306135 229.414354 
L 194.504496 227.345502 
L 187.344347 228.801934 
L 190.660244 229.329542 
L 184.094478 227.254605 
L 185.756184 226.7045 
L 182.825375 226.517663 
L 176.930805 228.371175 
L 182.70249 224.580059 
L 173.358989 224.280948 
L 178.884013 223.480062 
L 175.344128 223.757156 
L 172.430983 225.205689 
L 168.415482 223.13996 
L 167.616475 223.553426 
L 164.263509 223.358475 
L 166.561593 221.16841 
L 161.664752 220.269315 
L 157.558085 219.401284 
L 158.585622 219.939914 
L 158.294546 217.462399 
L 156.945189 217.964921 
L 155.564581 218.872903 
L 154.082446 216.775335 
L 150.053612 217.987498 
L 145.821089 216.38434 
L 149.376217 214.43043 
L 145.109851 215.563812 
L 150.56426 214.071326 
L 141.030572 210.630694 
L 139.456974 212.552739 
L 135.999084 212.563841 
L 141.128787 212.725539 
L 138.228337 209.133271 
L 135.341136 211.13375 
L 133.147763 210.946138 
L 130.721019 209.284961 
L 133.102116 210.309806 
L 133.102116 210.309806 
" clip-path="url(#p1ab15f9bab)" style="fill: none; stroke: #1f77b4; stroke-width: 1.5; stroke-linecap: square"/>
    <defs>
     <path id="ma86bdc1f19" d="M 0 1.5 
C 0.397805 1.5 0.77937 1.341951 1.06066 1.06066 
C 1.341951 0.77937 1.5 0.397805 1.5 0 
C 1.5 -0.397805 1.341951 -0.77937 1.06066 -1.06066 
C 0.77937 -1.341951 0.397805 -1.5 0 -1.5 
C -0.397805 -1.5 -0.77937 -1.341951 -1.06066 -1.06066 
C -1.341951 -0.77937 -1.5 -0.397805 -1.5 0 
C -1.5 0.397805 -1.341951 0.77937 -1.06066 1.06066 
C -0.77937 1.341951 -0.397805 1.5 0 1.5 
z
" style="stroke: #1f77b4"/>
    </defs>
    <g clip-path="url(#p1ab15f9bab)">
     <use xlink:href="#ma86bdc1f19" x="244.685112" y="293.465897" style="fill: #1f77b4; stroke: #1f77b4"/>
     <use xlink:href="#ma86bdc1f19" x="244.571738" y="295.760684" style="fill: #1f77b4; stroke: #1f77b4"/>
     <use xlink:href="#ma86bdc1f19" x="243.379109" y="294.856278" style="fill: #1f77b4; stroke: #1f77b4"/>
     <use xlink:href="#ma86bdc1f19" x="238.802983" y="294.034123" style="fill: #1f77b4; stroke: #1f77b4"/>
     <use xlink:href="#ma86bdc1f19" x="236.141467" y="291.910055" style="fill: #1f77b4; stroke: #1f77b4"/>
     <use xlink:href="#ma86bdc1f19" x="237.372949" y="293.31797" style="fill: #1f77b4; stroke: #1f77b4"/>
     <use xlink:href="#ma86bdc1f19" x="237.39936" y="293.782008" style="fill: #1f77b4; stroke: #1f77b4"/>
     <use xlink:href="#ma86bdc1f19" x="233.393669" y="292.250959" style="fill: #1f77b4; stroke: #1f77b4"/>
     <use xlink:href="#ma86bdc1f19" x="232.0303" y="291.835278" style="fill: #1f77b4; stroke: #1f77b4"/>
     <use xlink:href="#ma86bdc1f19" x="225.894928" y="290.209782" style="fill: #1f77b4; stroke: #1f77b4"/>
     <use xlink:href="#ma86bdc1f19" x="226.689179" y="291.521702" style="fill: #1f77b4; stroke: #1f77b4"/>
     <use xlink:href="#ma86bdc1f19" x="227.265643" y="291.16097" style="fill: #1f77b4; stroke: #1f77b4"/>
     <use xlink:href="#ma86bdc1f19" x="223.238423" y="288.371348" style="fill: #1f77b4; stroke: #1f77b4"/>
     <use xlink:href="#ma86bdc1f19" x="224.680516" y="286.774808" style="fill: #1f77b4; stroke: #1f77b4"/>
     <use xlink:href="#ma86bdc1f19" x="219.065855" y="287.227264" style="fill: #1f77b4; stroke: #1f77b4"/>
     <use xlink:href="#ma86bdc1f19" x="216.288503" y="285.254059" style="fill: #1f77b4; stroke: #1f77b4"/>
     <use xlink:href="#ma86bdc1f19" x="215.477479" y="287.0159" style="fill: #1f77b4; stroke: #1f77b4"/>
     <use xlink:href="#ma86bdc1f19" x="211.53357" y="285.57404" style="fill: #1f77b4; stroke: #1f77b4"/>
     <use xlink:href="#ma86bdc1f19" x="211.63327" y="285.040721" style="fill: #1f77b4; stroke: #1f77b4"/>
     <use xlink:href="#ma86bdc1f19" x="208.246716" y="282.598647" style="fill: #1f77b4; stroke: #1f77b4"/>
     <use xlink:href="#ma86bdc1f19" x="206.65125" y="283.031489" style="fill: #1f77b4; stroke: #1f77b4"/>
     <use xlink:href="#ma86bdc1f19" x="207.334846" y="282.945209" style="fill: #1f77b4; stroke: #1f77b4"/>
     <use xlink:href="#ma86bdc1f19" x="198.774174" y="282.173199" style="fill: #1f77b4; stroke: #1f77b4"/>
     <use xlink:href="#ma86bdc1f19" x="204.051262" y="281.723304" style="fill: #1f77b4; stroke: #1f77b4"/>
     <use xlink:href="#ma86bdc1f19" x="193.554282" y="278.623256" style="fill: #1f77b4; stroke: #1f77b4"/>
     <use xlink:href="#ma86bdc1f19" x="196.084633" y="278.349418" style="fill: #1f77b4; stroke: #1f77b4"/>
     <use xlink:href="#ma86bdc1f19" x="193.971046" y="276.619841" style="fill: #1f77b4; stroke: #1f77b4"/>
     <use xlink:href="#ma86bdc1f19" x="190.953189" y="276.572284" style="fill: #1f77b4; stroke: #1f77b4"/>
     <use xlink:href="#ma86bdc1f19" x="187.354623" y="279.344613" style="fill: #1f77b4; stroke: #1f77b4"/>
     <use xlink:href="#ma86bdc1f19" x="184.222756" y="278.14921" style="fill: #1f77b4; stroke: #1f77b4"/>
     <use xlink:href="#ma86bdc1f19" x="184.271884" y="272.661556" style="fill: #1f77b4; stroke: #1f77b4"/>
     <use xlink:href="#ma86bdc1f19" x="183.294197" y="275.91938" style="fill: #1f77b4; stroke: #1f77b4"/>
     <use xlink:href="#ma86bdc1f19" x="179.09628" y="273.265623" style="fill: #1f77b4; stroke: #1f77b4"/>
     <use xlink:href="#ma86bdc1f19" x="171.105193" y="272.440132" style="fill: #1f77b4; stroke: #1f77b4"/>
     <use xlink:href="#ma86bdc1f19" x="173.19084" y="270.752428" style="fill: #1f77b4; stroke: #1f77b4"/>
     <use xlink:href="#ma86bdc1f19" x="176.626777" y="273.78832" style="fill: #1f77b4; stroke: #1f77b4"/>
     <use xlink:href="#ma86bdc1f19" x="165.662376" y="267.92144" style="fill: #1f77b4; stroke: #1f77b4"/>
     <use xlink:href="#ma86bdc1f19" x="168.31731" y="267.875004" style="fill: #1f77b4; stroke: #1f77b4"/>
     <use xlink:href="#ma86bdc1f19" x="167.397627" y="265.344863" style="fill: #1f77b4; stroke: #1f77b4"/>
     <use xlink:href="#ma86bdc1f19" x="161.280853" y="267.690115" style="fill: #1f77b4; stroke: #1f77b4"/>
     <use xlink:href="#ma86bdc1f19" x="156.318536" y="265.790194" style="fill: #1f77b4; stroke: #1f77b4"/>
     <use xlink:href="#ma86bdc1f19" x="153.390273" y="262.645844" style="fill: #1f77b4; stroke: #1f77b4"/>
     <use xlink:href="#ma86bdc1f19" x="151.144715" y="260.574457" style="fill: #1f77b4; stroke: #1f77b4"/>
     <use xlink:href="#ma86bdc1f19" x="152.649652" y="260.135718" style="fill: #1f77b4; stroke: #1f77b4"/>
     <use xlink:href="#ma86bdc1f19" x="144.450968" y="260.838608" style="fill: #1f77b4; stroke: #1f77b4"/>
     <use xlink:href="#ma86bdc1f19" x="139.975647" y="259.926757" style="fill: #1f77b4; stroke: #1f77b4"/>
     <use xlink:href="#ma86bdc1f19" x="141.36806" y="259.071135" style="fill: #1f77b4; stroke: #1f77b4"/>
     <use xlink:href="#ma86bdc1f19" x="139.06195" y="254.063133" style="fill: #1f77b4; stroke: #1f77b4"/>
     <use xlink:href="#ma86bdc1f19" x="130.927809" y="253.298675" style="fill: #1f77b4; stroke: #1f77b4"/>
     <use xlink:href="#ma86bdc1f19" x="133.559432" y="254.001245" style="fill: #1f77b4; stroke: #1f77b4"/>
     <use xlink:href="#ma86bdc1f19" x="126.030968" y="248.225822" style="fill: #1f77b4; stroke: #1f77b4"/>
     <use xlink:href="#ma86bdc1f19" x="121.029076" y="246.055799" style="fill: #1f77b4; stroke: #1f77b4"/>
     <use xlink:href="#ma86bdc1f19" x="126.278903" y="243.920736" style="fill: #1f77b4; stroke: #1f77b4"/>
     <use xlink:href="#ma86bdc1f19" x="117.978821" y="242.744147" style="fill: #1f77b4; stroke: #1f77b4"/>
     <use xlink:href="#ma86bdc1f19" x="115.91398" y="240.327426" style="fill: #1f77b4; stroke: #1f77b4"/>
     <use xlink:href="#ma86bdc1f19" x="111.178367" y="241.38088" style="fill: #1f77b4; stroke: #1f77b4"/>
     <use xlink:href="#ma86bdc1f19" x="107.127283" y="237.187107" style="fill: #1f77b4; stroke: #1f77b4"/>
     <use xlink:href="#ma86bdc1f19" x="100.833061" y="231.662171" style="fill: #1f77b4; stroke: #1f77b4"/>
     <use xlink:href="#ma86bdc1f19" x="100.628692" y="230.897073" style="fill: #1f77b4; stroke: #1f77b4"/>
     <use xlink:href="#ma86bdc1f19" x="99.871383" y="228.965714" style="fill: #1f77b4; stroke: #1f77b4"/>
     <use xlink:href="#ma86bdc1f19" x="92.286317" y="226.196108" style="fill: #1f77b4; stroke: #1f77b4"/>
     <use xlink:href="#ma86bdc1f19" x="92.954456" y="222.52295" style="fill: #1f77b4; stroke: #1f77b4"/>
     <use xlink:href="#ma86bdc1f19" x="89.134195" y="220.955979" style="fill: #1f77b4; stroke: #1f77b4"/>
     <use xlink:href="#ma86bdc1f19" x="80.9736" y="217.139056" style="fill: #1f77b4; stroke: #1f77b4"/>
     <use xlink:href="#ma86bdc1f19" x="79.838932" y="212.962016" style="fill: #1f77b4; stroke: #1f77b4"/>
     <use xlink:href="#ma86bdc1f19" x="80.218457" y="207.870828" style="fill: #1f77b4; stroke: #1f77b4"/>
     <use xlink:href="#ma86bdc1f19" x="79.618809" y="202.363587" style="fill: #1f77b4; stroke: #1f77b4"/>
     <use xlink:href="#ma86bdc1f19" x="74.258623" y="197.481628" style="fill: #1f77b4; stroke: #1f77b4"/>
     <use xlink:href="#ma86bdc1f19" x="70.272506" y="195.20675" style="fill: #1f77b4; stroke: #1f77b4"/>
     <use xlink:href="#ma86bdc1f19" x="72.438151" y="188.261037" style="fill: #1f77b4; stroke: #1f77b4"/>
     <use xlink:href="#ma86bdc1f19" x="63.787969" y="182.123788" style="fill: #1f77b4; stroke: #1f77b4"/>
     <use xlink:href="#ma86bdc1f19" x="66.054461" y="173.811792" style="fill: #1f77b4; stroke: #1f77b4"/>
     <use xlink:href="#ma86bdc1f19" x="60.443665" y="167.094976" style="fill: #1f77b4; stroke: #1f77b4"/>
     <use xlink:href="#ma86bdc1f19" x="63.021658" y="160.887887" style="fill: #1f77b4; stroke: #1f77b4"/>
     <use xlink:href="#ma86bdc1f19" x="61.994376" y="156.085349" style="fill: #1f77b4; stroke: #1f77b4"/>
     <use xlink:href="#ma86bdc1f19" x="64.064099" y="150.098297" style="fill: #1f77b4; stroke: #1f77b4"/>
     <use xlink:href="#ma86bdc1f19" x="63.046626" y="140.494103" style="fill: #1f77b4; stroke: #1f77b4"/>
     <use xlink:href="#ma86bdc1f19" x="62.685487" y="133.217867" style="fill: #1f77b4; stroke: #1f77b4"/>
     <use xlink:href="#ma86bdc1f19" x="71.304629" y="124.592216" style="fill: #1f77b4; stroke: #1f77b4"/>
     <use xlink:href="#ma86bdc1f19" x="75.22718" y="116.168641" style="fill: #1f77b4; stroke: #1f77b4"/>
     <use xlink:href="#ma86bdc1f19" x="82.148268" y="106.385028" style="fill: #1f77b4; stroke: #1f77b4"/>
     <use xlink:href="#ma86bdc1f19" x="92.818663" y="96.910801" style="fill: #1f77b4; stroke: #1f77b4"/>
     <use xlink:href="#ma86bdc1f19" x="108.35885" y="89.001463" style="fill: #1f77b4; stroke: #1f77b4"/>
     <use xlink:href="#ma86bdc1f19" x="112.082552" y="82.938112" style="fill: #1f77b4; stroke: #1f77b4"/>
     <use xlink:href="#ma86bdc1f19" x="132.315339" y="73.447045" style="fill: #1f77b4; stroke: #1f77b4"/>
     <use xlink:href="#ma86bdc1f19" x="139.184114" y="69.485451" style="fill: #1f77b4; stroke: #1f77b4"/>
     <use xlink:href="#ma86bdc1f19" x="165.121495" y="67.894461" style="fill: #1f77b4; stroke: #1f77b4"/>
     <use xlink:href="#ma86bdc1f19" x="179.05144" y="59.524501" style="fill: #1f77b4; stroke: #1f77b4"/>
     <use xlink:href="#ma86bdc1f19" x="199.355138" y="55.696556" style="fill: #1f77b4; stroke: #1f77b4"/>
     <use xlink:href="#ma86bdc1f19" x="223.340161" y="53.973839" style="fill: #1f77b4; stroke: #1f77b4"/>
     <use xlink:href="#ma86bdc1f19" x="243.254016" y="60.90418" style="fill: #1f77b4; stroke: #1f77b4"/>
     <use xlink:href="#ma86bdc1f19" x="253.025661" y="61.030598" style="fill: #1f77b4; stroke: #1f77b4"/>
     <use xlink:href="#ma86bdc1f19" x="270.672769" y="64.641815" style="fill: #1f77b4; stroke: #1f77b4"/>
     <use xlink:href="#ma86bdc1f19" x="287.640612" y="62.553695" style="fill: #1f77b4; stroke: #1f77b4"/>
     <use xlink:href="#ma86bdc1f19" x="304.273473" y="68.550168" style="fill: #1f77b4; stroke: #1f77b4"/>
     <use xlink:href="#ma86bdc1f19" x="325.636937" y="73.269441" style="fill: #1f77b4; stroke: #1f77b4"/>
     <use xlink:href="#ma86bdc1f19" x="336.071243" y="83.468121" style="fill: #1f77b4; stroke: #1f77b4"/>
     <use xlink:href="#ma86bdc1f19" x="347.474362" y="91.955559" style="fill: #1f77b4; stroke: #1f77b4"/>
     <use xlink:href="#ma86bdc1f19" x="357.548081" y="101.009835" style="fill: #1f77b4; stroke: #1f77b4"/>
     <use xlink:href="#ma86bdc1f19" x="367.248347" y="106.133127" style="fill: #1f77b4; stroke: #1f77b4"/>
     <use xlink:href="#ma86bdc1f19" x="373.524607" y="107.860355" style="fill: #1f77b4; stroke: #1f77b4"/>
     <use xlink:href="#ma86bdc1f19" x="377.56584" y="117.587791" style="fill: #1f77b4; stroke: #1f77b4"/>
     <use xlink:href="#ma86bdc1f19" x="382.325656" y="129.436119" style="fill: #1f77b4; stroke: #1f77b4"/>
     <use xlink:href="#ma86bdc1f19" x="384.790021" y="139.326507" style="fill: #1f77b4; stroke: #1f77b4"/>
     <use xlink:href="#ma86bdc1f19" x="384.43453" y="146.714856" style="fill: #1f77b4; stroke: #1f77b4"/>
     <use xlink:href="#ma86bdc1f19" x="385.09821" y="156.061998" style="fill: #1f77b4; stroke: #1f77b4"/>
     <use xlink:href="#ma86bdc1f19" x="382.847556" y="163.948465" style="fill: #1f77b4; stroke: #1f77b4"/>
     <use xlink:href="#ma86bdc1f19" x="375.79662" y="169.323231" style="fill: #1f77b4; stroke: #1f77b4"/>
     <use xlink:href="#ma86bdc1f19" x="381.704225" y="175.230435" style="fill: #1f77b4; stroke: #1f77b4"/>
     <use xlink:href="#ma86bdc1f19" x="374.821438" y="182.496209" style="fill: #1f77b4; stroke: #1f77b4"/>
     <use xlink:href="#ma86bdc1f19" x="369.889014" y="185.256235" style="fill: #1f77b4; stroke: #1f77b4"/>
     <use xlink:href="#ma86bdc1f19" x="366.648104" y="190.785601" style="fill: #1f77b4; stroke: #1f77b4"/>
     <use xlink:href="#ma86bdc1f19" x="365.398703" y="195.945001" style="fill: #1f77b4; stroke: #1f77b4"/>
     <use xlink:href="#ma86bdc1f19" x="357.565787" y="199.346429" style="fill: #1f77b4; stroke: #1f77b4"/>
     <use xlink:href="#ma86bdc1f19" x="352.843465" y="202.78279" style="fill: #1f77b4; stroke: #1f77b4"/>
     <use xlink:href="#ma86bdc1f19" x="349.065157" y="204.260305" style="fill: #1f77b4; stroke: #1f77b4"/>
     <use xlink:href="#ma86bdc1f19" x="341.216954" y="211.299558" style="fill: #1f77b4; stroke: #1f77b4"/>
     <use xlink:href="#ma86bdc1f19" x="335.427393" y="212.756257" style="fill: #1f77b4; stroke: #1f77b4"/>
     <use xlink:href="#ma86bdc1f19" x="332.247671" y="213.49005" style="fill: #1f77b4; stroke: #1f77b4"/>
     <use xlink:href="#ma86bdc1f19" x="325.92967" y="216.473929" style="fill: #1f77b4; stroke: #1f77b4"/>
     <use xlink:href="#ma86bdc1f19" x="324.689101" y="221.712163" style="fill: #1f77b4; stroke: #1f77b4"/>
     <use xlink:href="#ma86bdc1f19" x="326.470551" y="220.56058" style="fill: #1f77b4; stroke: #1f77b4"/>
     <use xlink:href="#ma86bdc1f19" x="314.686548" y="222.55839" style="fill: #1f77b4; stroke: #1f77b4"/>
     <use xlink:href="#ma86bdc1f19" x="312.658523" y="224.007163" style="fill: #1f77b4; stroke: #1f77b4"/>
     <use xlink:href="#ma86bdc1f19" x="309.982782" y="228.098084" style="fill: #1f77b4; stroke: #1f77b4"/>
     <use xlink:href="#ma86bdc1f19" x="300.386293" y="226.231121" style="fill: #1f77b4; stroke: #1f77b4"/>
     <use xlink:href="#ma86bdc1f19" x="298.649089" y="227.034249" style="fill: #1f77b4; stroke: #1f77b4"/>
     <use xlink:href="#ma86bdc1f19" x="294.681655" y="226.809915" style="fill: #1f77b4; stroke: #1f77b4"/>
     <use xlink:href="#ma86bdc1f19" x="288.432018" y="230.161225" style="fill: #1f77b4; stroke: #1f77b4"/>
     <use xlink:href="#ma86bdc1f19" x="283.200747" y="229.160825" style="fill: #1f77b4; stroke: #1f77b4"/>
     <use xlink:href="#ma86bdc1f19" x="281.245501" y="232.533858" style="fill: #1f77b4; stroke: #1f77b4"/>
     <use xlink:href="#ma86bdc1f19" x="281.089156" y="231.853199" style="fill: #1f77b4; stroke: #1f77b4"/>
     <use xlink:href="#ma86bdc1f19" x="275.600819" y="231.523904" style="fill: #1f77b4; stroke: #1f77b4"/>
     <use xlink:href="#ma86bdc1f19" x="268.081824" y="232.379926" style="fill: #1f77b4; stroke: #1f77b4"/>
     <use xlink:href="#ma86bdc1f19" x="270.480331" y="232.068458" style="fill: #1f77b4; stroke: #1f77b4"/>
     <use xlink:href="#ma86bdc1f19" x="265.402772" y="233.328952" style="fill: #1f77b4; stroke: #1f77b4"/>
     <use xlink:href="#ma86bdc1f19" x="261.713888" y="230.960402" style="fill: #1f77b4; stroke: #1f77b4"/>
     <use xlink:href="#ma86bdc1f19" x="261.133391" y="235.709805" style="fill: #1f77b4; stroke: #1f77b4"/>
     <use xlink:href="#ma86bdc1f19" x="255.031182" y="235.400499" style="fill: #1f77b4; stroke: #1f77b4"/>
     <use xlink:href="#ma86bdc1f19" x="250.892711" y="231.826271" style="fill: #1f77b4; stroke: #1f77b4"/>
     <use xlink:href="#ma86bdc1f19" x="247.86649" y="234.334369" style="fill: #1f77b4; stroke: #1f77b4"/>
     <use xlink:href="#ma86bdc1f19" x="245.503057" y="234.52505" style="fill: #1f77b4; stroke: #1f77b4"/>
     <use xlink:href="#ma86bdc1f19" x="238.379043" y="232.622166" style="fill: #1f77b4; stroke: #1f77b4"/>
     <use xlink:href="#ma86bdc1f19" x="240.677509" y="234.372372" style="fill: #1f77b4; stroke: #1f77b4"/>
     <use xlink:href="#ma86bdc1f19" x="239.13062" y="231.998244" style="fill: #1f77b4; stroke: #1f77b4"/>
     <use xlink:href="#ma86bdc1f19" x="233.515152" y="232.925601" style="fill: #1f77b4; stroke: #1f77b4"/>
     <use xlink:href="#ma86bdc1f19" x="230.66001" y="234.003927" style="fill: #1f77b4; stroke: #1f77b4"/>
     <use xlink:href="#ma86bdc1f19" x="232.435769" y="235.524489" style="fill: #1f77b4; stroke: #1f77b4"/>
     <use xlink:href="#ma86bdc1f19" x="228.057771" y="235.05997" style="fill: #1f77b4; stroke: #1f77b4"/>
     <use xlink:href="#ma86bdc1f19" x="217.171584" y="231.724005" style="fill: #1f77b4; stroke: #1f77b4"/>
     <use xlink:href="#ma86bdc1f19" x="220.72098" y="233.439598" style="fill: #1f77b4; stroke: #1f77b4"/>
     <use xlink:href="#ma86bdc1f19" x="220.631852" y="232.30328" style="fill: #1f77b4; stroke: #1f77b4"/>
     <use xlink:href="#ma86bdc1f19" x="215.999761" y="234.002246" style="fill: #1f77b4; stroke: #1f77b4"/>
     <use xlink:href="#ma86bdc1f19" x="216.650066" y="230.704471" style="fill: #1f77b4; stroke: #1f77b4"/>
     <use xlink:href="#ma86bdc1f19" x="213.323426" y="233.075103" style="fill: #1f77b4; stroke: #1f77b4"/>
     <use xlink:href="#ma86bdc1f19" x="211.281218" y="229.928325" style="fill: #1f77b4; stroke: #1f77b4"/>
     <use xlink:href="#ma86bdc1f19" x="206.589468" y="229.708368" style="fill: #1f77b4; stroke: #1f77b4"/>
     <use xlink:href="#ma86bdc1f19" x="203.960648" y="231.323136" style="fill: #1f77b4; stroke: #1f77b4"/>
     <use xlink:href="#ma86bdc1f19" x="203.74664" y="228.701163" style="fill: #1f77b4; stroke: #1f77b4"/>
     <use xlink:href="#ma86bdc1f19" x="201.088308" y="230.270723" style="fill: #1f77b4; stroke: #1f77b4"/>
     <use xlink:href="#ma86bdc1f19" x="197.032978" y="231.56615" style="fill: #1f77b4; stroke: #1f77b4"/>
     <use xlink:href="#ma86bdc1f19" x="195.753642" y="229.469517" style="fill: #1f77b4; stroke: #1f77b4"/>
     <use xlink:href="#ma86bdc1f19" x="195.306135" y="229.414354" style="fill: #1f77b4; stroke: #1f77b4"/>
     <use xlink:href="#ma86bdc1f19" x="194.504496" y="227.345502" style="fill: #1f77b4; stroke: #1f77b4"/>
     <use xlink:href="#ma86bdc1f19" x="187.344347" y="228.801934" style="fill: #1f77b4; stroke: #1f77b4"/>
     <use xlink:href="#ma86bdc1f19" x="190.660244" y="229.329542" style="fill: #1f77b4; stroke: #1f77b4"/>
     <use xlink:href="#ma86bdc1f19" x="184.094478" y="227.254605" style="fill: #1f77b4; stroke: #1f77b4"/>
     <use xlink:href="#ma86bdc1f19" x="185.756184" y="226.7045" style="fill: #1f77b4; stroke: #1f77b4"/>
     <use xlink:href="#ma86bdc1f19" x="182.825375" y="226.517663" style="fill: #1f77b4; stroke: #1f77b4"/>
     <use xlink:href="#ma86bdc1f19" x="176.930805" y="228.371175" style="fill: #1f77b4; stroke: #1f77b4"/>
     <use xlink:href="#ma86bdc1f19" x="182.70249" y="224.580059" style="fill: #1f77b4; stroke: #1f77b4"/>
     <use xlink:href="#ma86bdc1f19" x="173.358989" y="224.280948" style="fill: #1f77b4; stroke: #1f77b4"/>
     <use xlink:href="#ma86bdc1f19" x="178.884013" y="223.480062" style="fill: #1f77b4; stroke: #1f77b4"/>
     <use xlink:href="#ma86bdc1f19" x="175.344128" y="223.757156" style="fill: #1f77b4; stroke: #1f77b4"/>
     <use xlink:href="#ma86bdc1f19" x="172.430983" y="225.205689" style="fill: #1f77b4; stroke: #1f77b4"/>
     <use xlink:href="#ma86bdc1f19" x="168.415482" y="223.13996" style="fill: #1f77b4; stroke: #1f77b4"/>
     <use xlink:href="#ma86bdc1f19" x="167.616475" y="223.553426" style="fill: #1f77b4; stroke: #1f77b4"/>
     <use xlink:href="#ma86bdc1f19" x="164.263509" y="223.358475" style="fill: #1f77b4; stroke: #1f77b4"/>
     <use xlink:href="#ma86bdc1f19" x="166.561593" y="221.16841" style="fill: #1f77b4; stroke: #1f77b4"/>
     <use xlink:href="#ma86bdc1f19" x="161.664752" y="220.269315" style="fill: #1f77b4; stroke: #1f77b4"/>
     <use xlink:href="#ma86bdc1f19" x="157.558085" y="219.401284" style="fill: #1f77b4; stroke: #1f77b4"/>
     <use xlink:href="#ma86bdc1f19" x="158.585622" y="219.939914" style="fill: #1f77b4; stroke: #1f77b4"/>
     <use xlink:href="#ma86bdc1f19" x="158.294546" y="217.462399" style="fill: #1f77b4; stroke: #1f77b4"/>
     <use xlink:href="#ma86bdc1f19" x="156.945189" y="217.964921" style="fill: #1f77b4; stroke: #1f77b4"/>
     <use xlink:href="#ma86bdc1f19" x="155.564581" y="218.872903" style="fill: #1f77b4; stroke: #1f77b4"/>
     <use xlink:href="#ma86bdc1f19" x="154.082446" y="216.775335" style="fill: #1f77b4; stroke: #1f77b4"/>
     <use xlink:href="#ma86bdc1f19" x="150.053612" y="217.987498" style="fill: #1f77b4; stroke: #1f77b4"/>
     <use xlink:href="#ma86bdc1f19" x="145.821089" y="216.38434" style="fill: #1f77b4; stroke: #1f77b4"/>
     <use xlink:href="#ma86bdc1f19" x="149.376217" y="214.43043" style="fill: #1f77b4; stroke: #1f77b4"/>
     <use xlink:href="#ma86bdc1f19" x="145.109851" y="215.563812" style="fill: #1f77b4; stroke: #1f77b4"/>
     <use xlink:href="#ma86bdc1f19" x="150.56426" y="214.071326" style="fill: #1f77b4; stroke: #1f77b4"/>
     <use xlink:href="#ma86bdc1f19" x="141.030572" y="210.630694" style="fill: #1f77b4; stroke: #1f77b4"/>
     <use xlink:href="#ma86bdc1f19" x="139.456974" y="212.552739" style="fill: #1f77b4; stroke: #1f77b4"/>
     <use xlink:href="#ma86bdc1f19" x="135.999084" y="212.563841" style="fill: #1f77b4; stroke: #1f77b4"/>
     <use xlink:href="#ma86bdc1f19" x="141.128787" y="212.725539" style="fill: #1f77b4; stroke: #1f77b4"/>
     <use xlink:href="#ma86bdc1f19" x="138.228337" y="209.133271" style="fill: #1f77b4; stroke: #1f77b4"/>
     <use xlink:href="#ma86bdc1f19" x="135.341136" y="211.13375" style="fill: #1f77b4; stroke: #1f77b4"/>
     <use xlink:href="#ma86bdc1f19" x="133.147763" y="210.946138" style="fill: #1f77b4; stroke: #1f77b4"/>
     <use xlink:href="#ma86bdc1f19" x="130.721019" y="209.284961" style="fill: #1f77b4; stroke: #1f77b4"/>
     <use xlink:href="#ma86bdc1f19" x="133.102116" y="210.309806" style="fill: #1f77b4; stroke: #1f77b4"/>
    </g>
   </g>
   <g id="line2d_12">
    <path d="M 249.795765 295.776 
L 238.365262 293.071113 
L 227.416139 290.252278 
L 216.975217 287.342499 
L 206.620862 284.226499 
L 196.825048 281.049276 
L 187.150616 277.671732 
L 178.120358 274.28218 
L 169.280053 270.718021 
L 161.205712 267.22589 
L 153.421408 263.619746 
L 145.967877 259.919516 
L 138.890121 256.153114 
L 132.235786 252.357504 
L 126.053046 248.579326 
L 120.388142 244.874873 
L 114.640691 240.843957 
L 109.477732 236.952482 
L 104.283751 232.735305 
L 99.734338 228.748003 
L 95.20531 224.453327 
L 91.362719 220.503718 
L 87.582239 216.28363 
L 84.500969 212.543676 
L 81.504954 208.585799 
L 78.619273 204.395326 
L 75.873518 199.957159 
L 73.800858 196.218002 
L 71.860456 192.302729 
L 70.075575 188.20372 
L 68.472486 183.913718 
L 67.080759 179.42604 
L 66.19548 175.927008 
L 65.463077 172.311437 
L 64.900249 168.577755 
L 64.525032 164.72496 
L 64.356845 160.752747 
L 64.416514 156.661643 
L 64.726274 152.453163 
L 65.309749 148.129978 
L 66.191894 143.696103 
L 67.398893 139.157099 
L 68.958015 134.520285 
L 70.206922 131.379244 
L 71.63332 128.202119 
L 73.24578 124.992672 
L 75.052895 121.755164 
L 77.063219 118.494385 
L 79.285193 115.215675 
L 81.727076 111.924957 
L 84.396851 108.628749 
L 87.302134 105.33419 
L 90.450065 102.049044 
L 93.847203 98.781713 
L 97.499395 95.541229 
L 101.411658 92.337245 
L 105.588041 89.18002 
L 110.031494 86.080382 
L 114.743722 83.04969 
L 119.725057 80.099778 
L 124.974319 77.242885 
L 130.488693 74.49158 
L 136.263612 71.85866 
L 142.292655 69.357046 
L 148.567464 66.99966 
L 155.077684 64.799295 
L 161.810925 62.768471 
L 168.752756 60.919288 
L 175.88673 59.263267 
L 183.194442 57.8112 
L 190.655626 56.572987 
L 198.248284 55.557493 
L 205.948851 54.772401 
L 213.7324 54.224087 
L 221.572868 53.917505 
L 229.443317 53.856096 
L 237.316213 54.041717 
L 245.163725 54.474596 
L 252.958028 55.153309 
L 260.671612 56.074794 
L 268.277587 57.234384 
L 275.749977 58.625867 
L 283.06399 60.241575 
L 290.196273 62.07249 
L 297.125128 64.108376 
L 303.830704 66.33792 
L 310.295142 68.748889 
L 316.502697 71.328294 
L 322.439802 74.062558 
L 328.095113 76.937684 
L 333.459507 79.939419 
L 338.526047 83.053412 
L 343.289922 86.265363 
L 347.748355 89.561159 
L 351.900493 92.926997 
L 355.747275 96.349492 
L 359.291291 99.815772 
L 362.536624 103.313552 
L 365.488699 106.831199 
L 368.154115 110.357781 
L 370.54049 113.883097 
L 372.656303 117.397697 
L 374.510744 120.892897 
L 376.113575 124.360773 
L 377.474995 127.79415 
L 378.605517 131.186589 
L 379.515861 134.53236 
L 380.216845 137.826412 
L 380.719306 141.064341 
L 381.034011 144.242355 
L 381.171596 147.357236 
L 381.142506 150.406298 
L 380.956943 153.387353 
L 380.406831 157.727746 
L 379.559042 161.90719 
L 378.44395 165.92339 
L 377.090053 169.775619 
L 375.523915 173.464476 
L 373.770162 176.991665 
L 371.851499 180.359793 
L 369.78877 183.572199 
L 367.601029 186.632799 
L 364.519335 190.485029 
L 361.282803 194.086339 
L 357.923534 197.448538 
L 354.469437 200.583749 
L 350.944651 203.504157 
L 347.369959 206.221811 
L 342.858292 209.351664 
L 338.325406 212.205236 
L 333.794991 214.803542 
L 329.286158 217.166344 
L 323.925309 219.716734 
L 318.637737 221.983898 
L 313.438475 223.99458 
L 307.498463 226.048391 
L 301.704572 227.820417 
L 295.270255 229.539483 
L 289.03966 230.97006 
L 282.273584 232.27746 
L 275.760671 233.305612 
L 268.811573 234.16409 
L 262.152142 234.763897 
L 255.143553 235.16659 
L 248.446836 235.337567 
L 241.472904 235.297694 
L 234.279291 235.026825 
L 227.431698 234.554258 
L 220.411837 233.853467 
L 213.262826 232.914853 
L 206.022655 231.732182 
L 198.724281 230.301895 
L 191.792999 228.719752 
L 184.815498 226.903564 
L 177.81508 224.851861 
L 170.811933 222.564037 
L 163.823621 220.040021 
L 157.174301 217.407828 
L 150.539088 214.548964 
L 143.932689 211.462605 
L 137.368805 208.147985 
L 134.726696 206.741081 
L 134.726696 206.741081 
" clip-path="url(#p1ab15f9bab)" style="fill: none; stroke: #d62728; stroke-width: 1.5; stroke-linecap: square"/>
   </g>
   <g id="patch_3">
    <path d="M 44.210938 307.872 
L 44.210938 41.76 
" style="fill: none; stroke: #000000; stroke-width: 0.8; stroke-linejoin: miter; stroke-linecap: square"/>
   </g>
   <g id="patch_4">
    <path d="M 401.330938 307.872 
L 401.330938 41.76 
" style="fill: none; stroke: #000000; stroke-width: 0.8; stroke-linejoin: miter; stroke-linecap: square"/>
   </g>
   <g id="patch_5">
    <path d="M 44.210937 307.872 
L 401.330938 307.872 
" style="fill: none; stroke: #000000; stroke-width: 0.8; stroke-linejoin: miter; stroke-linecap: square"/>
   </g>
   <g id="patch_6">
    <path d="M 44.210937 41.76 
L 401.330938 41.76 
" style="fill: none; stroke: #000000; stroke-width: 0.8; stroke-linejoin: miter; stroke-linecap: square"/>
   </g>
   <g id="text_13">
    <g id="patch_7">
     <path d="M 419.186937 102.337163 
L 564.386938 102.337163 
Q 568.386938 102.337163 568.386938 98.337163 
L 568.386938 55.0656 
Q 568.386938 51.0656 564.386938 51.0656 
L 419.186937 51.0656 
Q 415.186937 51.0656 415.186937 55.0656 
L 415.186937 98.337163 
Q 415.186937 102.337163 419.186937 102.337163 
z
" style="fill: #ffffff; opacity: 0.5; stroke: #000000; stroke-linejoin: miter"/>
    </g>
    <!-- Summary -->
    <g transform="translate(419.186937 62.664038) scale(0.1 -0.1)">
     <defs>
      <path id="DejaVuSans-53" d="M 3425 4513 
L 3425 3897 
Q 3066 4069 2747 4153 
Q 2428 4238 2131 4238 
Q 1616 4238 1336 4038 
Q 1056 3838 1056 3469 
Q 1056 3159 1242 3001 
Q 1428 2844 1947 2747 
L 2328 2669 
Q 3034 2534 3370 2195 
Q 3706 1856 3706 1288 
Q 3706 609 3251 259 
Q 2797 -91 1919 -91 
Q 1588 -91 1214 -16 
Q 841 59 441 206 
L 441 856 
Q 825 641 1194 531 
Q 1563 422 1919 422 
Q 2459 422 2753 634 
Q 3047 847 3047 1241 
Q 3047 1584 2836 1778 
Q 2625 1972 2144 2069 
L 1759 2144 
Q 1053 2284 737 2584 
Q 422 2884 422 3419 
Q 422 4038 858 4394 
Q 1294 4750 2059 4750 
Q 2388 4750 2728 4690 
Q 3069 4631 3425 4513 
z
" transform="scale(0.015625)"/>
      <path id="DejaVuSans-75" d="M 544 1381 
L 544 3500 
L 1119 3500 
L 1119 1403 
Q 1119 906 1312 657 
Q 1506 409 1894 409 
Q 2359 409 2629 706 
Q 2900 1003 2900 1516 
L 2900 3500 
L 3475 3500 
L 3475 0 
L 2900 0 
L 2900 538 
Q 2691 219 2414 64 
Q 2138 -91 1772 -91 
Q 1169 -91 856 284 
Q 544 659 544 1381 
z
M 1991 3584 
L 1991 3584 
z
" transform="scale(0.015625)"/>
      <path id="DejaVuSans-61" d="M 2194 1759 
Q 1497 1759 1228 1600 
Q 959 1441 959 1056 
Q 959 750 1161 570 
Q 1363 391 1709 391 
Q 2188 391 2477 730 
Q 2766 1069 2766 1631 
L 2766 1759 
L 2194 1759 
z
M 3341 1997 
L 3341 0 
L 2766 0 
L 2766 531 
Q 2569 213 2275 61 
Q 1981 -91 1556 -91 
Q 1019 -91 701 211 
Q 384 513 384 1019 
Q 384 1609 779 1909 
Q 1175 2209 1959 2209 
L 2766 2209 
L 2766 2266 
Q 2766 2663 2505 2880 
Q 2244 3097 1772 3097 
Q 1472 3097 1187 3025 
Q 903 2953 641 2809 
L 641 3341 
Q 956 3463 1253 3523 
Q 1550 3584 1831 3584 
Q 2591 3584 2966 3190 
Q 3341 2797 3341 1997 
z
" transform="scale(0.015625)"/>
      <path id="DejaVuSans-72" d="M 2631 2963 
Q 2534 3019 2420 3045 
Q 2306 3072 2169 3072 
Q 1681 3072 1420 2755 
Q 1159 2438 1159 1844 
L 1159 0 
L 581 0 
L 581 3500 
L 1159 3500 
L 1159 2956 
Q 1341 3275 1631 3429 
Q 1922 3584 2338 3584 
Q 2397 3584 2469 3576 
Q 2541 3569 2628 3553 
L 2631 2963 
z
" transform="scale(0.015625)"/>
      <path id="DejaVuSans-79" d="M 2059 -325 
Q 1816 -950 1584 -1140 
Q 1353 -1331 966 -1331 
L 506 -1331 
L 506 -850 
L 844 -850 
Q 1081 -850 1212 -737 
Q 1344 -625 1503 -206 
L 1606 56 
L 191 3500 
L 800 3500 
L 1894 763 
L 2988 3500 
L 3597 3500 
L 2059 -325 
z
" transform="scale(0.015625)"/>
     </defs>
     <use xlink:href="#DejaVuSans-53"/>
     <use xlink:href="#DejaVuSans-75" x="63.476562"/>
     <use xlink:href="#DejaVuSans-6d" x="126.855469"/>
     <use xlink:href="#DejaVuSans-6d" x="224.267578"/>
     <use xlink:href="#DejaVuSans-61" x="321.679688"/>
     <use xlink:href="#DejaVuSans-72" x="382.958984"/>
     <use xlink:href="#DejaVuSans-79" x="424.072266"/>
    </g>
    <!-- $Q_I$: 15.48$\pm$0.16 k -->
    <g transform="translate(419.186937 73.86185) scale(0.1 -0.1)">
     <defs>
      <path id="DejaVuSans-Oblique-51" d="M 2309 -84 
Q 2275 -88 2237 -89 
Q 2200 -91 2125 -91 
Q 1250 -91 756 411 
Q 263 913 263 1797 
Q 263 2319 452 2844 
Q 641 3369 978 3788 
Q 1369 4269 1858 4509 
Q 2347 4750 2938 4750 
Q 3794 4750 4287 4245 
Q 4781 3741 4781 2869 
Q 4781 1928 4265 1147 
Q 3750 366 2919 44 
L 3553 -825 
L 2847 -825 
L 2309 -84 
z
M 2919 4238 
Q 2400 4238 2003 3986 
Q 1606 3734 1313 3219 
Q 1125 2891 1026 2522 
Q 928 2153 928 1778 
Q 928 1128 1239 775 
Q 1550 422 2119 422 
Q 2631 422 3032 676 
Q 3434 931 3719 1434 
Q 3909 1772 4009 2142 
Q 4109 2513 4109 2881 
Q 4109 3528 3796 3883 
Q 3484 4238 2919 4238 
z
" transform="scale(0.015625)"/>
      <path id="DejaVuSans-Oblique-49" d="M 1081 4666 
L 1716 4666 
L 806 0 
L 172 0 
L 1081 4666 
z
" transform="scale(0.015625)"/>
      <path id="DejaVuSans-3a" d="M 750 794 
L 1409 794 
L 1409 0 
L 750 0 
L 750 794 
z
M 750 3309 
L 1409 3309 
L 1409 2516 
L 750 2516 
L 750 3309 
z
" transform="scale(0.015625)"/>
      <path id="DejaVuSans-35" d="M 691 4666 
L 3169 4666 
L 3169 4134 
L 1269 4134 
L 1269 2991 
Q 1406 3038 1543 3061 
Q 1681 3084 1819 3084 
Q 2600 3084 3056 2656 
Q 3513 2228 3513 1497 
Q 3513 744 3044 326 
Q 2575 -91 1722 -91 
Q 1428 -91 1123 -41 
Q 819 9 494 109 
L 494 744 
Q 775 591 1075 516 
Q 1375 441 1709 441 
Q 2250 441 2565 725 
Q 2881 1009 2881 1497 
Q 2881 1984 2565 2268 
Q 2250 2553 1709 2553 
Q 1456 2553 1204 2497 
Q 953 2441 691 2322 
L 691 4666 
z
" transform="scale(0.015625)"/>
      <path id="DejaVuSans-2e" d="M 684 794 
L 1344 794 
L 1344 0 
L 684 0 
L 684 794 
z
" transform="scale(0.015625)"/>
      <path id="DejaVuSans-b1" d="M 2944 4013 
L 2944 2803 
L 4684 2803 
L 4684 2272 
L 2944 2272 
L 2944 1063 
L 2419 1063 
L 2419 2272 
L 678 2272 
L 678 2803 
L 2419 2803 
L 2419 4013 
L 2944 4013 
z
M 678 531 
L 4684 531 
L 4684 0 
L 678 0 
L 678 531 
z
" transform="scale(0.015625)"/>
      <path id="DejaVuSans-6b" d="M 581 4863 
L 1159 4863 
L 1159 1991 
L 2875 3500 
L 3609 3500 
L 1753 1863 
L 3688 0 
L 2938 0 
L 1159 1709 
L 1159 0 
L 581 0 
L 581 4863 
z
" transform="scale(0.015625)"/>
     </defs>
     <use xlink:href="#DejaVuSans-Oblique-51" transform="translate(0 0.015625)"/>
     <use xlink:href="#DejaVuSans-Oblique-49" transform="translate(78.710938 -16.390625) scale(0.7)"/>
     <use xlink:href="#DejaVuSans-3a" transform="translate(102.089844 0.015625)"/>
     <use xlink:href="#DejaVuSans-20" transform="translate(135.78125 0.015625)"/>
     <use xlink:href="#DejaVuSans-31" transform="translate(167.568359 0.015625)"/>
     <use xlink:href="#DejaVuSans-35" transform="translate(231.191406 0.015625)"/>
     <use xlink:href="#DejaVuSans-2e" transform="translate(294.814453 0.015625)"/>
     <use xlink:href="#DejaVuSans-34" transform="translate(326.601562 0.015625)"/>
     <use xlink:href="#DejaVuSans-38" transform="translate(390.224609 0.015625)"/>
     <use xlink:href="#DejaVuSans-b1" transform="translate(453.847656 0.015625)"/>
     <use xlink:href="#DejaVuSans-30" transform="translate(537.636719 0.015625)"/>
     <use xlink:href="#DejaVuSans-2e" transform="translate(601.259766 0.015625)"/>
     <use xlink:href="#DejaVuSans-31" transform="translate(633.046875 0.015625)"/>
     <use xlink:href="#DejaVuSans-36" transform="translate(696.669922 0.015625)"/>
     <use xlink:href="#DejaVuSans-20" transform="translate(760.292969 0.015625)"/>
     <use xlink:href="#DejaVuSans-6b" transform="translate(792.080078 0.015625)"/>
    </g>
    <!-- $Q_C$: 4.490$\pm$0.016 k -->
    <g transform="translate(419.186937 85.059663) scale(0.1 -0.1)">
     <defs>
      <path id="DejaVuSans-Oblique-43" d="M 4447 4306 
L 4319 3641 
Q 4019 3944 3683 4091 
Q 3347 4238 2956 4238 
Q 2422 4238 2017 3981 
Q 1613 3725 1319 3200 
Q 1131 2863 1032 2486 
Q 934 2109 934 1728 
Q 934 1091 1264 756 
Q 1594 422 2222 422 
Q 2656 422 3056 561 
Q 3456 700 3834 978 
L 3688 231 
Q 3316 72 2936 -9 
Q 2556 -91 2175 -91 
Q 1278 -91 773 396 
Q 269 884 269 1753 
Q 269 2309 461 2846 
Q 653 3384 1013 3828 
Q 1394 4300 1883 4525 
Q 2372 4750 3022 4750 
Q 3422 4750 3780 4639 
Q 4138 4528 4447 4306 
z
" transform="scale(0.015625)"/>
      <path id="DejaVuSans-39" d="M 703 97 
L 703 672 
Q 941 559 1184 500 
Q 1428 441 1663 441 
Q 2288 441 2617 861 
Q 2947 1281 2994 2138 
Q 2813 1869 2534 1725 
Q 2256 1581 1919 1581 
Q 1219 1581 811 2004 
Q 403 2428 403 3163 
Q 403 3881 828 4315 
Q 1253 4750 1959 4750 
Q 2769 4750 3195 4129 
Q 3622 3509 3622 2328 
Q 3622 1225 3098 567 
Q 2575 -91 1691 -91 
Q 1453 -91 1209 -44 
Q 966 3 703 97 
z
M 1959 2075 
Q 2384 2075 2632 2365 
Q 2881 2656 2881 3163 
Q 2881 3666 2632 3958 
Q 2384 4250 1959 4250 
Q 1534 4250 1286 3958 
Q 1038 3666 1038 3163 
Q 1038 2656 1286 2365 
Q 1534 2075 1959 2075 
z
" transform="scale(0.015625)"/>
     </defs>
     <use xlink:href="#DejaVuSans-Oblique-51" transform="translate(0 0.015625)"/>
     <use xlink:href="#DejaVuSans-Oblique-43" transform="translate(78.710938 -16.390625) scale(0.7)"/>
     <use xlink:href="#DejaVuSans-3a" transform="translate(130.322266 0.015625)"/>
     <use xlink:href="#DejaVuSans-20" transform="translate(164.013672 0.015625)"/>
     <use xlink:href="#DejaVuSans-34" transform="translate(195.800781 0.015625)"/>
     <use xlink:href="#DejaVuSans-2e" transform="translate(259.423828 0.015625)"/>
     <use xlink:href="#DejaVuSans-34" transform="translate(291.210938 0.015625)"/>
     <use xlink:href="#DejaVuSans-39" transform="translate(354.833984 0.015625)"/>
     <use xlink:href="#DejaVuSans-30" transform="translate(418.457031 0.015625)"/>
     <use xlink:href="#DejaVuSans-b1" transform="translate(482.080078 0.015625)"/>
     <use xlink:href="#DejaVuSans-30" transform="translate(565.869141 0.015625)"/>
     <use xlink:href="#DejaVuSans-2e" transform="translate(629.492188 0.015625)"/>
     <use xlink:href="#DejaVuSans-30" transform="translate(661.279297 0.015625)"/>
     <use xlink:href="#DejaVuSans-31" transform="translate(724.902344 0.015625)"/>
     <use xlink:href="#DejaVuSans-36" transform="translate(788.525391 0.015625)"/>
     <use xlink:href="#DejaVuSans-20" transform="translate(852.148438 0.015625)"/>
     <use xlink:href="#DejaVuSans-6b" transform="translate(883.935547 0.015625)"/>
    </g>
    <!-- $f_{res}$: 5.9134613$\pm$3.2e-06 GHz -->
    <g transform="translate(419.186937 96.257475) scale(0.1 -0.1)">
     <defs>
      <path id="DejaVuSans-Oblique-66" d="M 3059 4863 
L 2969 4384 
L 2419 4384 
Q 2106 4384 1964 4261 
Q 1822 4138 1753 3809 
L 1691 3500 
L 2638 3500 
L 2553 3053 
L 1606 3053 
L 1013 0 
L 434 0 
L 1031 3053 
L 481 3053 
L 563 3500 
L 1113 3500 
L 1159 3744 
Q 1278 4363 1576 4613 
Q 1875 4863 2516 4863 
L 3059 4863 
z
" transform="scale(0.015625)"/>
      <path id="DejaVuSans-Oblique-72" d="M 2853 2969 
Q 2766 3016 2653 3041 
Q 2541 3066 2413 3066 
Q 1953 3066 1609 2717 
Q 1266 2369 1153 1784 
L 800 0 
L 225 0 
L 909 3500 
L 1484 3500 
L 1375 2956 
Q 1603 3259 1920 3421 
Q 2238 3584 2597 3584 
Q 2691 3584 2781 3573 
Q 2872 3563 2963 3538 
L 2853 2969 
z
" transform="scale(0.015625)"/>
      <path id="DejaVuSans-Oblique-65" d="M 3078 2063 
Q 3088 2113 3092 2166 
Q 3097 2219 3097 2272 
Q 3097 2653 2873 2875 
Q 2650 3097 2266 3097 
Q 1838 3097 1509 2826 
Q 1181 2556 1013 2059 
L 3078 2063 
z
M 3578 1613 
L 903 1613 
Q 884 1494 878 1425 
Q 872 1356 872 1306 
Q 872 872 1139 634 
Q 1406 397 1894 397 
Q 2269 397 2603 481 
Q 2938 566 3225 728 
L 3116 159 
Q 2806 34 2476 -28 
Q 2147 -91 1806 -91 
Q 1078 -91 686 257 
Q 294 606 294 1247 
Q 294 1794 489 2264 
Q 684 2734 1063 3103 
Q 1306 3334 1642 3459 
Q 1978 3584 2356 3584 
Q 2950 3584 3301 3228 
Q 3653 2872 3653 2272 
Q 3653 2128 3634 1964 
Q 3616 1800 3578 1613 
z
" transform="scale(0.015625)"/>
      <path id="DejaVuSans-Oblique-73" d="M 3200 3397 
L 3091 2853 
Q 2863 2978 2609 3040 
Q 2356 3103 2088 3103 
Q 1634 3103 1373 2948 
Q 1113 2794 1113 2528 
Q 1113 2219 1719 2053 
Q 1766 2041 1788 2034 
L 1972 1978 
Q 2547 1819 2739 1644 
Q 2931 1469 2931 1166 
Q 2931 609 2489 259 
Q 2047 -91 1331 -91 
Q 1053 -91 747 -37 
Q 441 16 72 128 
L 184 722 
Q 500 559 806 475 
Q 1113 391 1394 391 
Q 1816 391 2080 572 
Q 2344 753 2344 1031 
Q 2344 1331 1650 1516 
L 1591 1531 
L 1394 1581 
Q 956 1697 753 1886 
Q 550 2075 550 2369 
Q 550 2928 970 3256 
Q 1391 3584 2113 3584 
Q 2397 3584 2667 3537 
Q 2938 3491 3200 3397 
z
" transform="scale(0.015625)"/>
      <path id="DejaVuSans-33" d="M 2597 2516 
Q 3050 2419 3304 2112 
Q 3559 1806 3559 1356 
Q 3559 666 3084 287 
Q 2609 -91 1734 -91 
Q 1441 -91 1130 -33 
Q 819 25 488 141 
L 488 750 
Q 750 597 1062 519 
Q 1375 441 1716 441 
Q 2309 441 2620 675 
Q 2931 909 2931 1356 
Q 2931 1769 2642 2001 
Q 2353 2234 1838 2234 
L 1294 2234 
L 1294 2753 
L 1863 2753 
Q 2328 2753 2575 2939 
Q 2822 3125 2822 3475 
Q 2822 3834 2567 4026 
Q 2313 4219 1838 4219 
Q 1578 4219 1281 4162 
Q 984 4106 628 3988 
L 628 4550 
Q 988 4650 1302 4700 
Q 1616 4750 1894 4750 
Q 2613 4750 3031 4423 
Q 3450 4097 3450 3541 
Q 3450 3153 3228 2886 
Q 3006 2619 2597 2516 
z
" transform="scale(0.015625)"/>
      <path id="DejaVuSans-47" d="M 3809 666 
L 3809 1919 
L 2778 1919 
L 2778 2438 
L 4434 2438 
L 4434 434 
Q 4069 175 3628 42 
Q 3188 -91 2688 -91 
Q 1594 -91 976 548 
Q 359 1188 359 2328 
Q 359 3472 976 4111 
Q 1594 4750 2688 4750 
Q 3144 4750 3555 4637 
Q 3966 4525 4313 4306 
L 4313 3634 
Q 3963 3931 3569 4081 
Q 3175 4231 2741 4231 
Q 1884 4231 1454 3753 
Q 1025 3275 1025 2328 
Q 1025 1384 1454 906 
Q 1884 428 2741 428 
Q 3075 428 3337 486 
Q 3600 544 3809 666 
z
" transform="scale(0.015625)"/>
      <path id="DejaVuSans-48" d="M 628 4666 
L 1259 4666 
L 1259 2753 
L 3553 2753 
L 3553 4666 
L 4184 4666 
L 4184 0 
L 3553 0 
L 3553 2222 
L 1259 2222 
L 1259 0 
L 628 0 
L 628 4666 
z
" transform="scale(0.015625)"/>
      <path id="DejaVuSans-7a" d="M 353 3500 
L 3084 3500 
L 3084 2975 
L 922 459 
L 3084 459 
L 3084 0 
L 275 0 
L 275 525 
L 2438 3041 
L 353 3041 
L 353 3500 
z
" transform="scale(0.015625)"/>
     </defs>
     <use xlink:href="#DejaVuSans-Oblique-66" transform="translate(0 0.015625)"/>
     <use xlink:href="#DejaVuSans-Oblique-72" transform="translate(35.205078 -16.390625) scale(0.7)"/>
     <use xlink:href="#DejaVuSans-Oblique-65" transform="translate(63.984375 -16.390625) scale(0.7)"/>
     <use xlink:href="#DejaVuSans-Oblique-73" transform="translate(107.050781 -16.390625) scale(0.7)"/>
     <use xlink:href="#DejaVuSans-3a" transform="translate(146.254883 0.015625)"/>
     <use xlink:href="#DejaVuSans-20" transform="translate(179.946289 0.015625)"/>
     <use xlink:href="#DejaVuSans-35" transform="translate(211.733398 0.015625)"/>
     <use xlink:href="#DejaVuSans-2e" transform="translate(275.356445 0.015625)"/>
     <use xlink:href="#DejaVuSans-39" transform="translate(307.143555 0.015625)"/>
     <use xlink:href="#DejaVuSans-31" transform="translate(370.766602 0.015625)"/>
     <use xlink:href="#DejaVuSans-33" transform="translate(434.389648 0.015625)"/>
     <use xlink:href="#DejaVuSans-34" transform="translate(498.012695 0.015625)"/>
     <use xlink:href="#DejaVuSans-36" transform="translate(561.635742 0.015625)"/>
     <use xlink:href="#DejaVuSans-31" transform="translate(625.258789 0.015625)"/>
     <use xlink:href="#DejaVuSans-33" transform="translate(688.881836 0.015625)"/>
     <use xlink:href="#DejaVuSans-b1" transform="translate(752.504883 0.015625)"/>
     <use xlink:href="#DejaVuSans-33" transform="translate(836.293945 0.015625)"/>
     <use xlink:href="#DejaVuSans-2e" transform="translate(899.916992 0.015625)"/>
     <use xlink:href="#DejaVuSans-32" transform="translate(926.204102 0.015625)"/>
     <use xlink:href="#DejaVuSans-65" transform="translate(989.827148 0.015625)"/>
     <use xlink:href="#DejaVuSans-2d" transform="translate(1051.350586 0.015625)"/>
     <use xlink:href="#DejaVuSans-30" transform="translate(1087.43457 0.015625)"/>
     <use xlink:href="#DejaVuSans-36" transform="translate(1151.057617 0.015625)"/>
     <use xlink:href="#DejaVuSans-20" transform="translate(1214.680664 0.015625)"/>
     <use xlink:href="#DejaVuSans-47" transform="translate(1246.467773 0.015625)"/>
     <use xlink:href="#DejaVuSans-48" transform="translate(1323.958008 0.015625)"/>
     <use xlink:href="#DejaVuSans-7a" transform="translate(1399.15332 0.015625)"/>
    </g>
   </g>
  </g>
  <g id="text_14">
   <!-- S21 resonator spectroscopy -->
   <g transform="translate(133.226562 16.318125) scale(0.12 -0.12)">
    <defs>
     <path id="DejaVuSans-73" d="M 2834 3397 
L 2834 2853 
Q 2591 2978 2328 3040 
Q 2066 3103 1784 3103 
Q 1356 3103 1142 2972 
Q 928 2841 928 2578 
Q 928 2378 1081 2264 
Q 1234 2150 1697 2047 
L 1894 2003 
Q 2506 1872 2764 1633 
Q 3022 1394 3022 966 
Q 3022 478 2636 193 
Q 2250 -91 1575 -91 
Q 1294 -91 989 -36 
Q 684 19 347 128 
L 347 722 
Q 666 556 975 473 
Q 1284 391 1588 391 
Q 1994 391 2212 530 
Q 2431 669 2431 922 
Q 2431 1156 2273 1281 
Q 2116 1406 1581 1522 
L 1381 1569 
Q 847 1681 609 1914 
Q 372 2147 372 2553 
Q 372 3047 722 3315 
Q 1072 3584 1716 3584 
Q 2034 3584 2315 3537 
Q 2597 3491 2834 3397 
z
" transform="scale(0.015625)"/>
     <path id="DejaVuSans-6f" d="M 1959 3097 
Q 1497 3097 1228 2736 
Q 959 2375 959 1747 
Q 959 1119 1226 758 
Q 1494 397 1959 397 
Q 2419 397 2687 759 
Q 2956 1122 2956 1747 
Q 2956 2369 2687 2733 
Q 2419 3097 1959 3097 
z
M 1959 3584 
Q 2709 3584 3137 3096 
Q 3566 2609 3566 1747 
Q 3566 888 3137 398 
Q 2709 -91 1959 -91 
Q 1206 -91 779 398 
Q 353 888 353 1747 
Q 353 2609 779 3096 
Q 1206 3584 1959 3584 
z
" transform="scale(0.015625)"/>
     <path id="DejaVuSans-6e" d="M 3513 2113 
L 3513 0 
L 2938 0 
L 2938 2094 
Q 2938 2591 2744 2837 
Q 2550 3084 2163 3084 
Q 1697 3084 1428 2787 
Q 1159 2491 1159 1978 
L 1159 0 
L 581 0 
L 581 3500 
L 1159 3500 
L 1159 2956 
Q 1366 3272 1645 3428 
Q 1925 3584 2291 3584 
Q 2894 3584 3203 3211 
Q 3513 2838 3513 2113 
z
" transform="scale(0.015625)"/>
     <path id="DejaVuSans-74" d="M 1172 4494 
L 1172 3500 
L 2356 3500 
L 2356 3053 
L 1172 3053 
L 1172 1153 
Q 1172 725 1289 603 
Q 1406 481 1766 481 
L 2356 481 
L 2356 0 
L 1766 0 
Q 1100 0 847 248 
Q 594 497 594 1153 
L 594 3053 
L 172 3053 
L 172 3500 
L 594 3500 
L 594 4494 
L 1172 4494 
z
" transform="scale(0.015625)"/>
     <path id="DejaVuSans-70" d="M 1159 525 
L 1159 -1331 
L 581 -1331 
L 581 3500 
L 1159 3500 
L 1159 2969 
Q 1341 3281 1617 3432 
Q 1894 3584 2278 3584 
Q 2916 3584 3314 3078 
Q 3713 2572 3713 1747 
Q 3713 922 3314 415 
Q 2916 -91 2278 -91 
Q 1894 -91 1617 61 
Q 1341 213 1159 525 
z
M 3116 1747 
Q 3116 2381 2855 2742 
Q 2594 3103 2138 3103 
Q 1681 3103 1420 2742 
Q 1159 2381 1159 1747 
Q 1159 1113 1420 752 
Q 1681 391 2138 391 
Q 2594 391 2855 752 
Q 3116 1113 3116 1747 
z
" transform="scale(0.015625)"/>
     <path id="DejaVuSans-63" d="M 3122 3366 
L 3122 2828 
Q 2878 2963 2633 3030 
Q 2388 3097 2138 3097 
Q 1578 3097 1268 2742 
Q 959 2388 959 1747 
Q 959 1106 1268 751 
Q 1578 397 2138 397 
Q 2388 397 2633 464 
Q 2878 531 3122 666 
L 3122 134 
Q 2881 22 2623 -34 
Q 2366 -91 2075 -91 
Q 1284 -91 818 406 
Q 353 903 353 1747 
Q 353 2603 823 3093 
Q 1294 3584 2113 3584 
Q 2378 3584 2631 3529 
Q 2884 3475 3122 3366 
z
" transform="scale(0.015625)"/>
    </defs>
    <use xlink:href="#DejaVuSans-53"/>
    <use xlink:href="#DejaVuSans-32" x="63.476562"/>
    <use xlink:href="#DejaVuSans-31" x="127.099609"/>
    <use xlink:href="#DejaVuSans-20" x="190.722656"/>
    <use xlink:href="#DejaVuSans-72" x="222.509766"/>
    <use xlink:href="#DejaVuSans-65" x="261.373047"/>
    <use xlink:href="#DejaVuSans-73" x="322.896484"/>
    <use xlink:href="#DejaVuSans-6f" x="374.996094"/>
    <use xlink:href="#DejaVuSans-6e" x="436.177734"/>
    <use xlink:href="#DejaVuSans-61" x="499.556641"/>
    <use xlink:href="#DejaVuSans-74" x="560.835938"/>
    <use xlink:href="#DejaVuSans-6f" x="600.044922"/>
    <use xlink:href="#DejaVuSans-72" x="661.226562"/>
    <use xlink:href="#DejaVuSans-20" x="702.339844"/>
    <use xlink:href="#DejaVuSans-73" x="734.126953"/>
    <use xlink:href="#DejaVuSans-70" x="786.226562"/>
    <use xlink:href="#DejaVuSans-65" x="849.703125"/>
    <use xlink:href="#DejaVuSans-63" x="911.226562"/>
    <use xlink:href="#DejaVuSans-74" x="966.207031"/>
    <use xlink:href="#DejaVuSans-72" x="1005.416016"/>
    <use xlink:href="#DejaVuSans-6f" x="1044.279297"/>
    <use xlink:href="#DejaVuSans-73" x="1105.460938"/>
    <use xlink:href="#DejaVuSans-63" x="1157.560547"/>
    <use xlink:href="#DejaVuSans-6f" x="1212.541016"/>
    <use xlink:href="#DejaVuSans-70" x="1273.722656"/>
    <use xlink:href="#DejaVuSans-79" x="1337.199219"/>
   </g>
   <!-- tuid: 20231227-193402-270-26090e -->
   <g transform="translate(107.28125 29.7555) scale(0.12 -0.12)">
    <defs>
     <path id="DejaVuSans-69" d="M 603 3500 
L 1178 3500 
L 1178 0 
L 603 0 
L 603 3500 
z
M 603 4863 
L 1178 4863 
L 1178 4134 
L 603 4134 
L 603 4863 
z
" transform="scale(0.015625)"/>
     <path id="DejaVuSans-64" d="M 2906 2969 
L 2906 4863 
L 3481 4863 
L 3481 0 
L 2906 0 
L 2906 525 
Q 2725 213 2448 61 
Q 2172 -91 1784 -91 
Q 1150 -91 751 415 
Q 353 922 353 1747 
Q 353 2572 751 3078 
Q 1150 3584 1784 3584 
Q 2172 3584 2448 3432 
Q 2725 3281 2906 2969 
z
M 947 1747 
Q 947 1113 1208 752 
Q 1469 391 1925 391 
Q 2381 391 2643 752 
Q 2906 1113 2906 1747 
Q 2906 2381 2643 2742 
Q 2381 3103 1925 3103 
Q 1469 3103 1208 2742 
Q 947 2381 947 1747 
z
" transform="scale(0.015625)"/>
     <path id="DejaVuSans-37" d="M 525 4666 
L 3525 4666 
L 3525 4397 
L 1831 0 
L 1172 0 
L 2766 4134 
L 525 4134 
L 525 4666 
z
" transform="scale(0.015625)"/>
    </defs>
    <use xlink:href="#DejaVuSans-74"/>
    <use xlink:href="#DejaVuSans-75" x="39.208984"/>
    <use xlink:href="#DejaVuSans-69" x="102.587891"/>
    <use xlink:href="#DejaVuSans-64" x="130.371094"/>
    <use xlink:href="#DejaVuSans-3a" x="193.847656"/>
    <use xlink:href="#DejaVuSans-20" x="227.539062"/>
    <use xlink:href="#DejaVuSans-32" x="259.326172"/>
    <use xlink:href="#DejaVuSans-30" x="322.949219"/>
    <use xlink:href="#DejaVuSans-32" x="386.572266"/>
    <use xlink:href="#DejaVuSans-33" x="450.195312"/>
    <use xlink:href="#DejaVuSans-31" x="513.818359"/>
    <use xlink:href="#DejaVuSans-32" x="577.441406"/>
    <use xlink:href="#DejaVuSans-32" x="641.064453"/>
    <use xlink:href="#DejaVuSans-37" x="704.6875"/>
    <use xlink:href="#DejaVuSans-2d" x="768.310547"/>
    <use xlink:href="#DejaVuSans-31" x="804.394531"/>
    <use xlink:href="#DejaVuSans-39" x="868.017578"/>
    <use xlink:href="#DejaVuSans-33" x="931.640625"/>
    <use xlink:href="#DejaVuSans-34" x="995.263672"/>
    <use xlink:href="#DejaVuSans-30" x="1058.886719"/>
    <use xlink:href="#DejaVuSans-32" x="1122.509766"/>
    <use xlink:href="#DejaVuSans-2d" x="1186.132812"/>
    <use xlink:href="#DejaVuSans-32" x="1222.216797"/>
    <use xlink:href="#DejaVuSans-37" x="1285.839844"/>
    <use xlink:href="#DejaVuSans-30" x="1349.462891"/>
    <use xlink:href="#DejaVuSans-2d" x="1413.085938"/>
    <use xlink:href="#DejaVuSans-32" x="1449.169922"/>
    <use xlink:href="#DejaVuSans-36" x="1512.792969"/>
    <use xlink:href="#DejaVuSans-30" x="1576.416016"/>
    <use xlink:href="#DejaVuSans-39" x="1640.039062"/>
    <use xlink:href="#DejaVuSans-30" x="1703.662109"/>
    <use xlink:href="#DejaVuSans-65" x="1767.285156"/>
   </g>
  </g>
 </g>
 <defs>
  <clipPath id="p1ab15f9bab">
   <rect x="44.210938" y="41.76" width="357.12" height="266.112"/>
  </clipPath>
 </defs>
</svg>
