<?xml version="1.0" encoding="utf-8" standalone="no"?>
<!DOCTYPE svg PUBLIC "-//W3C//DTD SVG 1.1//EN"
  "http://www.w3.org/Graphics/SVG/1.1/DTD/svg11.dtd">
<svg xmlns:xlink="http://www.w3.org/1999/xlink" width="586.49475pt" height="345.42825pt" viewBox="0 0 586.49475 345.42825" xmlns="http://www.w3.org/2000/svg" version="1.1">
 <metadata>
  <rdf:RDF xmlns:dc="http://purl.org/dc/elements/1.1/" xmlns:cc="http://creativecommons.org/ns#" xmlns:rdf="http://www.w3.org/1999/02/22-rdf-syntax-ns#">
   <cc:Work>
    <dc:type rdf:resource="http://purl.org/dc/dcmitype/StillImage"/>
    <dc:date>2023-12-27T13:17:49.262484</dc:date>
    <dc:format>image/svg+xml</dc:format>
    <dc:creator>
     <cc:Agent>
      <dc:title>Matplotlib v3.8.2, https://matplotlib.org/</dc:title>
     </cc:Agent>
    </dc:creator>
   </cc:Work>
  </rdf:RDF>
 </metadata>
 <defs>
  <style type="text/css">*{stroke-linejoin: round; stroke-linecap: butt}</style>
 </defs>
 <g id="figure_1">
  <g id="patch_1">
   <path d="M 0 345.42825 
L 586.49475 345.42825 
L 586.49475 -0 
L 0 -0 
L 0 345.42825 
z
" style="fill: none; opacity: 0"/>
  </g>
  <g id="axes_1">
   <g id="patch_2">
    <path d="M 44.210938 162.72 
L 401.330938 162.72 
L 401.330938 41.76 
L 44.210938 41.76 
z
" style="fill: #ffffff"/>
   </g>
   <g id="matplotlib.axis_1">
    <g id="xtick_1">
     <g id="line2d_1">
      <defs>
       <path id="m357309f35f" d="M 0 0 
L 0 3.5 
" style="stroke: #000000; stroke-width: 0.8"/>
      </defs>
      <g>
       <use xlink:href="#m357309f35f" x="60.443665" y="162.72" style="stroke: #000000; stroke-width: 0.8"/>
      </g>
     </g>
    </g>
    <g id="xtick_2">
     <g id="line2d_2">
      <g>
       <use xlink:href="#m357309f35f" x="103.730938" y="162.72" style="stroke: #000000; stroke-width: 0.8"/>
      </g>
     </g>
    </g>
    <g id="xtick_3">
     <g id="line2d_3">
      <g>
       <use xlink:href="#m357309f35f" x="147.01821" y="162.72" style="stroke: #000000; stroke-width: 0.8"/>
      </g>
     </g>
    </g>
    <g id="xtick_4">
     <g id="line2d_4">
      <g>
       <use xlink:href="#m357309f35f" x="190.305483" y="162.72" style="stroke: #000000; stroke-width: 0.8"/>
      </g>
     </g>
    </g>
    <g id="xtick_5">
     <g id="line2d_5">
      <g>
       <use xlink:href="#m357309f35f" x="233.592756" y="162.72" style="stroke: #000000; stroke-width: 0.8"/>
      </g>
     </g>
    </g>
    <g id="xtick_6">
     <g id="line2d_6">
      <g>
       <use xlink:href="#m357309f35f" x="276.880028" y="162.72" style="stroke: #000000; stroke-width: 0.8"/>
      </g>
     </g>
    </g>
    <g id="xtick_7">
     <g id="line2d_7">
      <g>
       <use xlink:href="#m357309f35f" x="320.167301" y="162.72" style="stroke: #000000; stroke-width: 0.8"/>
      </g>
     </g>
    </g>
    <g id="xtick_8">
     <g id="line2d_8">
      <g>
       <use xlink:href="#m357309f35f" x="363.454574" y="162.72" style="stroke: #000000; stroke-width: 0.8"/>
      </g>
     </g>
    </g>
   </g>
   <g id="matplotlib.axis_2">
    <g id="ytick_1">
     <g id="line2d_9">
      <defs>
       <path id="m96579934a8" d="M 0 0 
L -3.5 0 
" style="stroke: #000000; stroke-width: 0.8"/>
      </defs>
      <g>
       <use xlink:href="#m96579934a8" x="44.210938" y="153.567984" style="stroke: #000000; stroke-width: 0.8"/>
      </g>
     </g>
     <g id="text_1">
      <!-- -10 -->
      <g transform="translate(20.878125 157.367202) scale(0.1 -0.1)">
       <defs>
        <path id="DejaVuSans-2d" d="M 313 2009 
L 1997 2009 
L 1997 1497 
L 313 1497 
L 313 2009 
z
" transform="scale(0.015625)"/>
        <path id="DejaVuSans-31" d="M 794 531 
L 1825 531 
L 1825 4091 
L 703 3866 
L 703 4441 
L 1819 4666 
L 2450 4666 
L 2450 531 
L 3481 531 
L 3481 0 
L 794 0 
L 794 531 
z
" transform="scale(0.015625)"/>
        <path id="DejaVuSans-30" d="M 2034 4250 
Q 1547 4250 1301 3770 
Q 1056 3291 1056 2328 
Q 1056 1369 1301 889 
Q 1547 409 2034 409 
Q 2525 409 2770 889 
Q 3016 1369 3016 2328 
Q 3016 3291 2770 3770 
Q 2525 4250 2034 4250 
z
M 2034 4750 
Q 2819 4750 3233 4129 
Q 3647 3509 3647 2328 
Q 3647 1150 3233 529 
Q 2819 -91 2034 -91 
Q 1250 -91 836 529 
Q 422 1150 422 2328 
Q 422 3509 836 4129 
Q 1250 4750 2034 4750 
z
" transform="scale(0.015625)"/>
       </defs>
       <use xlink:href="#DejaVuSans-2d"/>
       <use xlink:href="#DejaVuSans-31" x="36.083984"/>
       <use xlink:href="#DejaVuSans-30" x="99.707031"/>
      </g>
     </g>
    </g>
    <g id="ytick_2">
     <g id="line2d_10">
      <g>
       <use xlink:href="#m96579934a8" x="44.210938" y="125.373201" style="stroke: #000000; stroke-width: 0.8"/>
      </g>
     </g>
     <g id="text_2">
      <!-- -5 -->
      <g transform="translate(27.240625 129.17242) scale(0.1 -0.1)">
       <defs>
        <path id="DejaVuSans-35" d="M 691 4666 
L 3169 4666 
L 3169 4134 
L 1269 4134 
L 1269 2991 
Q 1406 3038 1543 3061 
Q 1681 3084 1819 3084 
Q 2600 3084 3056 2656 
Q 3513 2228 3513 1497 
Q 3513 744 3044 326 
Q 2575 -91 1722 -91 
Q 1428 -91 1123 -41 
Q 819 9 494 109 
L 494 744 
Q 775 591 1075 516 
Q 1375 441 1709 441 
Q 2250 441 2565 725 
Q 2881 1009 2881 1497 
Q 2881 1984 2565 2268 
Q 2250 2553 1709 2553 
Q 1456 2553 1204 2497 
Q 953 2441 691 2322 
L 691 4666 
z
" transform="scale(0.015625)"/>
       </defs>
       <use xlink:href="#DejaVuSans-2d"/>
       <use xlink:href="#DejaVuSans-35" x="36.083984"/>
      </g>
     </g>
    </g>
    <g id="ytick_3">
     <g id="line2d_11">
      <g>
       <use xlink:href="#m96579934a8" x="44.210938" y="97.178419" style="stroke: #000000; stroke-width: 0.8"/>
      </g>
     </g>
     <g id="text_3">
      <!-- 0 -->
      <g transform="translate(30.848437 100.977638) scale(0.1 -0.1)">
       <use xlink:href="#DejaVuSans-30"/>
      </g>
     </g>
    </g>
    <g id="ytick_4">
     <g id="line2d_12">
      <g>
       <use xlink:href="#m96579934a8" x="44.210938" y="68.983636" style="stroke: #000000; stroke-width: 0.8"/>
      </g>
     </g>
     <g id="text_4">
      <!-- 5 -->
      <g transform="translate(30.848437 72.782855) scale(0.1 -0.1)">
       <use xlink:href="#DejaVuSans-35"/>
      </g>
     </g>
    </g>
    <g id="text_5">
     <!-- Re$(S_{21})$ [mV] -->
     <g transform="translate(14.798437 134.24) rotate(-90) scale(0.1 -0.1)">
      <defs>
       <path id="DejaVuSans-52" d="M 2841 2188 
Q 3044 2119 3236 1894 
Q 3428 1669 3622 1275 
L 4263 0 
L 3584 0 
L 2988 1197 
Q 2756 1666 2539 1819 
Q 2322 1972 1947 1972 
L 1259 1972 
L 1259 0 
L 628 0 
L 628 4666 
L 2053 4666 
Q 2853 4666 3247 4331 
Q 3641 3997 3641 3322 
Q 3641 2881 3436 2590 
Q 3231 2300 2841 2188 
z
M 1259 4147 
L 1259 2491 
L 2053 2491 
Q 2509 2491 2742 2702 
Q 2975 2913 2975 3322 
Q 2975 3731 2742 3939 
Q 2509 4147 2053 4147 
L 1259 4147 
z
" transform="scale(0.015625)"/>
       <path id="DejaVuSans-65" d="M 3597 1894 
L 3597 1613 
L 953 1613 
Q 991 1019 1311 708 
Q 1631 397 2203 397 
Q 2534 397 2845 478 
Q 3156 559 3463 722 
L 3463 178 
Q 3153 47 2828 -22 
Q 2503 -91 2169 -91 
Q 1331 -91 842 396 
Q 353 884 353 1716 
Q 353 2575 817 3079 
Q 1281 3584 2069 3584 
Q 2775 3584 3186 3129 
Q 3597 2675 3597 1894 
z
M 3022 2063 
Q 3016 2534 2758 2815 
Q 2500 3097 2075 3097 
Q 1594 3097 1305 2825 
Q 1016 2553 972 2059 
L 3022 2063 
z
" transform="scale(0.015625)"/>
       <path id="DejaVuSans-28" d="M 1984 4856 
Q 1566 4138 1362 3434 
Q 1159 2731 1159 2009 
Q 1159 1288 1364 580 
Q 1569 -128 1984 -844 
L 1484 -844 
Q 1016 -109 783 600 
Q 550 1309 550 2009 
Q 550 2706 781 3412 
Q 1013 4119 1484 4856 
L 1984 4856 
z
" transform="scale(0.015625)"/>
       <path id="DejaVuSans-Oblique-53" d="M 3859 4513 
L 3738 3897 
Q 3422 4066 3111 4152 
Q 2800 4238 2509 4238 
Q 1944 4238 1609 3991 
Q 1275 3744 1275 3334 
Q 1275 3109 1398 2989 
Q 1522 2869 2034 2731 
L 2413 2638 
Q 3053 2472 3303 2217 
Q 3553 1963 3553 1503 
Q 3553 797 2998 353 
Q 2444 -91 1538 -91 
Q 1166 -91 791 -17 
Q 416 56 38 206 
L 166 856 
Q 513 641 861 531 
Q 1209 422 1556 422 
Q 2147 422 2503 684 
Q 2859 947 2859 1369 
Q 2859 1650 2717 1795 
Q 2575 1941 2106 2059 
L 1728 2156 
Q 1081 2325 845 2545 
Q 609 2766 609 3163 
Q 609 3859 1145 4304 
Q 1681 4750 2541 4750 
Q 2875 4750 3203 4690 
Q 3531 4631 3859 4513 
z
" transform="scale(0.015625)"/>
       <path id="DejaVuSans-32" d="M 1228 531 
L 3431 531 
L 3431 0 
L 469 0 
L 469 531 
Q 828 903 1448 1529 
Q 2069 2156 2228 2338 
Q 2531 2678 2651 2914 
Q 2772 3150 2772 3378 
Q 2772 3750 2511 3984 
Q 2250 4219 1831 4219 
Q 1534 4219 1204 4116 
Q 875 4013 500 3803 
L 500 4441 
Q 881 4594 1212 4672 
Q 1544 4750 1819 4750 
Q 2544 4750 2975 4387 
Q 3406 4025 3406 3419 
Q 3406 3131 3298 2873 
Q 3191 2616 2906 2266 
Q 2828 2175 2409 1742 
Q 1991 1309 1228 531 
z
" transform="scale(0.015625)"/>
       <path id="DejaVuSans-29" d="M 513 4856 
L 1013 4856 
Q 1481 4119 1714 3412 
Q 1947 2706 1947 2009 
Q 1947 1309 1714 600 
Q 1481 -109 1013 -844 
L 513 -844 
Q 928 -128 1133 580 
Q 1338 1288 1338 2009 
Q 1338 2731 1133 3434 
Q 928 4138 513 4856 
z
" transform="scale(0.015625)"/>
       <path id="DejaVuSans-20" transform="scale(0.015625)"/>
       <path id="DejaVuSans-5b" d="M 550 4863 
L 1875 4863 
L 1875 4416 
L 1125 4416 
L 1125 -397 
L 1875 -397 
L 1875 -844 
L 550 -844 
L 550 4863 
z
" transform="scale(0.015625)"/>
       <path id="DejaVuSans-6d" d="M 3328 2828 
Q 3544 3216 3844 3400 
Q 4144 3584 4550 3584 
Q 5097 3584 5394 3201 
Q 5691 2819 5691 2113 
L 5691 0 
L 5113 0 
L 5113 2094 
Q 5113 2597 4934 2840 
Q 4756 3084 4391 3084 
Q 3944 3084 3684 2787 
Q 3425 2491 3425 1978 
L 3425 0 
L 2847 0 
L 2847 2094 
Q 2847 2600 2669 2842 
Q 2491 3084 2119 3084 
Q 1678 3084 1418 2786 
Q 1159 2488 1159 1978 
L 1159 0 
L 581 0 
L 581 3500 
L 1159 3500 
L 1159 2956 
Q 1356 3278 1631 3431 
Q 1906 3584 2284 3584 
Q 2666 3584 2933 3390 
Q 3200 3197 3328 2828 
z
" transform="scale(0.015625)"/>
       <path id="DejaVuSans-56" d="M 1831 0 
L 50 4666 
L 709 4666 
L 2188 738 
L 3669 4666 
L 4325 4666 
L 2547 0 
L 1831 0 
z
" transform="scale(0.015625)"/>
       <path id="DejaVuSans-5d" d="M 1947 4863 
L 1947 -844 
L 622 -844 
L 622 -397 
L 1369 -397 
L 1369 4416 
L 622 4416 
L 622 4863 
L 1947 4863 
z
" transform="scale(0.015625)"/>
      </defs>
      <use xlink:href="#DejaVuSans-52" transform="translate(0 0.015625)"/>
      <use xlink:href="#DejaVuSans-65" transform="translate(69.482422 0.015625)"/>
      <use xlink:href="#DejaVuSans-28" transform="translate(131.005859 0.015625)"/>
      <use xlink:href="#DejaVuSans-Oblique-53" transform="translate(170.019531 0.015625)"/>
      <use xlink:href="#DejaVuSans-32" transform="translate(233.496094 -16.390625) scale(0.7)"/>
      <use xlink:href="#DejaVuSans-31" transform="translate(278.032227 -16.390625) scale(0.7)"/>
      <use xlink:href="#DejaVuSans-29" transform="translate(325.302734 0.015625)"/>
      <use xlink:href="#DejaVuSans-20" transform="translate(364.316406 0.015625)"/>
      <use xlink:href="#DejaVuSans-5b" transform="translate(396.103516 0.015625)"/>
      <use xlink:href="#DejaVuSans-6d" transform="translate(435.117188 0.015625)"/>
      <use xlink:href="#DejaVuSans-56" transform="translate(532.529297 0.015625)"/>
      <use xlink:href="#DejaVuSans-5d" transform="translate(600.9375 0.015625)"/>
     </g>
    </g>
   </g>
   <g id="line2d_13">
    <path d="M 60.443665 156.567891 
L 62.075095 157.221818 
L 63.706525 156.935539 
L 65.337954 156.895045 
L 66.969384 157.124245 
L 68.600814 156.295068 
L 70.232244 156.941061 
L 71.863674 157.157143 
L 73.495104 156.003439 
L 75.126534 156.665458 
L 76.757964 156.317804 
L 78.389393 155.252716 
L 80.020823 155.468664 
L 81.652253 155.560452 
L 83.283683 154.616273 
L 84.915113 155.370215 
L 86.546543 154.598263 
L 88.177973 155.181179 
L 89.809403 154.512646 
L 91.440832 153.660127 
L 93.072262 154.199058 
L 94.703692 153.622754 
L 96.335122 153.673576 
L 97.966552 153.263995 
L 99.597982 152.653207 
L 101.229412 153.429506 
L 102.860842 152.758898 
L 104.492271 151.925986 
L 106.123701 150.937052 
L 107.755131 151.466703 
L 109.386561 151.604043 
L 111.017991 150.72015 
L 112.649421 149.536101 
L 114.280851 150.169489 
L 115.912281 150.321894 
L 117.54371 148.754856 
L 120.80657 148.344504 
L 124.06943 146.886064 
L 125.70086 146.417721 
L 127.33229 145.548434 
L 128.96372 145.840719 
L 130.595149 145.017608 
L 132.226579 144.696827 
L 133.858009 143.105597 
L 135.489439 142.090756 
L 137.120869 142.371978 
L 138.752299 140.399491 
L 140.383729 139.789426 
L 142.015159 138.778871 
L 143.646588 138.029618 
L 145.278018 135.806633 
L 146.909448 135.354078 
L 148.540878 135.334788 
L 150.172308 134.197588 
L 151.803738 133.458081 
L 153.435168 130.799216 
L 155.066598 129.649864 
L 156.698027 127.995911 
L 158.329457 126.985068 
L 159.960887 125.720697 
L 161.592317 122.706728 
L 163.223747 121.820692 
L 164.855177 119.262762 
L 166.486607 118.316091 
L 168.118037 115.202027 
L 169.749467 112.551047 
L 171.380896 110.623108 
L 173.012326 108.38466 
L 174.643756 107.459238 
L 176.275186 103.653941 
L 177.906616 103.007146 
L 179.538046 99.995791 
L 182.800906 98.190076 
L 184.432335 97.706821 
L 186.063765 97.358818 
L 187.695195 97.305033 
L 189.326625 100.072036 
L 190.958055 99.275304 
L 192.589485 101.397318 
L 194.220915 104.751859 
L 195.852345 107.489534 
L 197.483774 109.775357 
L 199.115204 113.36306 
L 200.746634 115.210004 
L 202.378064 117.761372 
L 204.009494 120.655277 
L 205.640924 124.373089 
L 207.272354 126.799123 
L 208.903784 129.866595 
L 210.535213 131.900825 
L 212.166643 132.549732 
L 213.798073 134.335491 
L 217.060933 136.186634 
L 218.692363 139.341603 
L 220.323793 140.249572 
L 221.955223 140.931193 
L 223.586652 138.149773 
L 225.218082 140.940547 
L 226.849512 141.230297 
L 228.480942 140.594576 
L 230.112372 142.266111 
L 231.743802 143.126239 
L 233.375232 141.927265 
L 235.006662 142.534337 
L 236.638091 142.971839 
L 239.900951 141.035243 
L 241.532381 140.661969 
L 243.163811 141.083059 
L 246.426671 140.990537 
L 248.058101 141.324772 
L 249.68953 140.693661 
L 251.32096 137.710802 
L 252.95239 137.103186 
L 254.58382 136.875858 
L 256.21525 135.748398 
L 257.84668 136.217108 
L 259.47811 136.00686 
L 261.10954 134.824555 
L 262.740969 132.343329 
L 264.372399 131.086591 
L 266.003829 133.172898 
L 267.635259 130.083185 
L 269.266689 129.542607 
L 270.898119 127.569894 
L 272.529549 125.970295 
L 274.160979 123.529508 
L 275.792408 122.471069 
L 277.423838 125.140713 
L 279.055268 119.889539 
L 280.686698 121.602088 
L 282.318128 117.647124 
L 283.949558 116.103067 
L 285.580988 114.306253 
L 287.212418 113.219935 
L 288.843848 112.757702 
L 290.475277 105.722275 
L 292.106707 106.664336 
L 293.738137 101.050049 
L 295.369567 101.873705 
L 297.000997 97.314154 
L 298.632427 93.369603 
L 300.263857 89.101142 
L 301.895287 85.176058 
L 303.526716 85.881155 
L 305.158146 77.258293 
L 306.789576 80.959099 
L 308.421006 70.948949 
L 310.052436 68.385545 
L 311.683866 67.643901 
L 313.315296 68.209615 
L 314.946726 66.410285 
L 316.578155 61.797886 
L 318.209585 72.433883 
L 319.841015 63.477918 
L 321.472445 68.388049 
L 323.103875 79.48156 
L 324.735305 82.130048 
L 326.366735 82.479006 
L 327.998165 87.605593 
L 329.629594 87.338769 
L 331.261024 92.217661 
L 332.892454 82.833254 
L 334.523884 114.024063 
L 336.155314 121.062392 
L 337.786744 124.022851 
L 339.418174 129.839856 
L 341.049604 95.044945 
L 342.681033 114.50771 
L 344.312463 75.170584 
L 345.943893 96.371439 
L 347.575323 121.071164 
L 349.206753 106.090719 
L 350.838183 101.65073 
L 352.469613 101.790812 
L 354.101043 91.712448 
L 355.732472 87.610876 
L 357.363902 86.251913 
L 358.995332 90.916646 
L 360.626762 97.191586 
L 362.258192 97.102969 
L 363.889622 99.648284 
L 365.521052 105.820742 
L 367.152482 105.262331 
L 368.783911 107.689993 
L 370.415341 115.198991 
L 372.046771 119.623792 
L 373.678201 127.827566 
L 375.309631 132.176954 
L 376.941061 137.474274 
L 378.572491 141.614651 
L 380.203921 139.67415 
L 381.83535 143.113071 
L 383.46678 146.946466 
L 385.09821 148.475182 
L 385.09821 148.475182 
" clip-path="url(#p3c4f5d438b)" style="fill: none; stroke: #1f77b4; stroke-width: 1.5; stroke-linecap: square"/>
    <defs>
     <path id="mbac89d517c" d="M 0 1.5 
C 0.397805 1.5 0.77937 1.341951 1.06066 1.06066 
C 1.341951 0.77937 1.5 0.397805 1.5 0 
C 1.5 -0.397805 1.341951 -0.77937 1.06066 -1.06066 
C 0.77937 -1.341951 0.397805 -1.5 0 -1.5 
C -0.397805 -1.5 -0.77937 -1.341951 -1.06066 -1.06066 
C -1.341951 -0.77937 -1.5 -0.397805 -1.5 0 
C -1.5 0.397805 -1.341951 0.77937 -1.06066 1.06066 
C -0.77937 1.341951 -0.397805 1.5 0 1.5 
z
" style="stroke: #1f77b4"/>
    </defs>
    <g clip-path="url(#p3c4f5d438b)">
     <use xlink:href="#mbac89d517c" x="60.443665" y="156.567891" style="fill: #1f77b4; stroke: #1f77b4"/>
     <use xlink:href="#mbac89d517c" x="62.075095" y="157.221818" style="fill: #1f77b4; stroke: #1f77b4"/>
     <use xlink:href="#mbac89d517c" x="63.706525" y="156.935539" style="fill: #1f77b4; stroke: #1f77b4"/>
     <use xlink:href="#mbac89d517c" x="65.337954" y="156.895045" style="fill: #1f77b4; stroke: #1f77b4"/>
     <use xlink:href="#mbac89d517c" x="66.969384" y="157.124245" style="fill: #1f77b4; stroke: #1f77b4"/>
     <use xlink:href="#mbac89d517c" x="68.600814" y="156.295068" style="fill: #1f77b4; stroke: #1f77b4"/>
     <use xlink:href="#mbac89d517c" x="70.232244" y="156.941061" style="fill: #1f77b4; stroke: #1f77b4"/>
     <use xlink:href="#mbac89d517c" x="71.863674" y="157.157143" style="fill: #1f77b4; stroke: #1f77b4"/>
     <use xlink:href="#mbac89d517c" x="73.495104" y="156.003439" style="fill: #1f77b4; stroke: #1f77b4"/>
     <use xlink:href="#mbac89d517c" x="75.126534" y="156.665458" style="fill: #1f77b4; stroke: #1f77b4"/>
     <use xlink:href="#mbac89d517c" x="76.757964" y="156.317804" style="fill: #1f77b4; stroke: #1f77b4"/>
     <use xlink:href="#mbac89d517c" x="78.389393" y="155.252716" style="fill: #1f77b4; stroke: #1f77b4"/>
     <use xlink:href="#mbac89d517c" x="80.020823" y="155.468664" style="fill: #1f77b4; stroke: #1f77b4"/>
     <use xlink:href="#mbac89d517c" x="81.652253" y="155.560452" style="fill: #1f77b4; stroke: #1f77b4"/>
     <use xlink:href="#mbac89d517c" x="83.283683" y="154.616273" style="fill: #1f77b4; stroke: #1f77b4"/>
     <use xlink:href="#mbac89d517c" x="84.915113" y="155.370215" style="fill: #1f77b4; stroke: #1f77b4"/>
     <use xlink:href="#mbac89d517c" x="86.546543" y="154.598263" style="fill: #1f77b4; stroke: #1f77b4"/>
     <use xlink:href="#mbac89d517c" x="88.177973" y="155.181179" style="fill: #1f77b4; stroke: #1f77b4"/>
     <use xlink:href="#mbac89d517c" x="89.809403" y="154.512646" style="fill: #1f77b4; stroke: #1f77b4"/>
     <use xlink:href="#mbac89d517c" x="91.440832" y="153.660127" style="fill: #1f77b4; stroke: #1f77b4"/>
     <use xlink:href="#mbac89d517c" x="93.072262" y="154.199058" style="fill: #1f77b4; stroke: #1f77b4"/>
     <use xlink:href="#mbac89d517c" x="94.703692" y="153.622754" style="fill: #1f77b4; stroke: #1f77b4"/>
     <use xlink:href="#mbac89d517c" x="96.335122" y="153.673576" style="fill: #1f77b4; stroke: #1f77b4"/>
     <use xlink:href="#mbac89d517c" x="97.966552" y="153.263995" style="fill: #1f77b4; stroke: #1f77b4"/>
     <use xlink:href="#mbac89d517c" x="99.597982" y="152.653207" style="fill: #1f77b4; stroke: #1f77b4"/>
     <use xlink:href="#mbac89d517c" x="101.229412" y="153.429506" style="fill: #1f77b4; stroke: #1f77b4"/>
     <use xlink:href="#mbac89d517c" x="102.860842" y="152.758898" style="fill: #1f77b4; stroke: #1f77b4"/>
     <use xlink:href="#mbac89d517c" x="104.492271" y="151.925986" style="fill: #1f77b4; stroke: #1f77b4"/>
     <use xlink:href="#mbac89d517c" x="106.123701" y="150.937052" style="fill: #1f77b4; stroke: #1f77b4"/>
     <use xlink:href="#mbac89d517c" x="107.755131" y="151.466703" style="fill: #1f77b4; stroke: #1f77b4"/>
     <use xlink:href="#mbac89d517c" x="109.386561" y="151.604043" style="fill: #1f77b4; stroke: #1f77b4"/>
     <use xlink:href="#mbac89d517c" x="111.017991" y="150.72015" style="fill: #1f77b4; stroke: #1f77b4"/>
     <use xlink:href="#mbac89d517c" x="112.649421" y="149.536101" style="fill: #1f77b4; stroke: #1f77b4"/>
     <use xlink:href="#mbac89d517c" x="114.280851" y="150.169489" style="fill: #1f77b4; stroke: #1f77b4"/>
     <use xlink:href="#mbac89d517c" x="115.912281" y="150.321894" style="fill: #1f77b4; stroke: #1f77b4"/>
     <use xlink:href="#mbac89d517c" x="117.54371" y="148.754856" style="fill: #1f77b4; stroke: #1f77b4"/>
     <use xlink:href="#mbac89d517c" x="119.17514" y="148.514502" style="fill: #1f77b4; stroke: #1f77b4"/>
     <use xlink:href="#mbac89d517c" x="120.80657" y="148.344504" style="fill: #1f77b4; stroke: #1f77b4"/>
     <use xlink:href="#mbac89d517c" x="122.438" y="147.569105" style="fill: #1f77b4; stroke: #1f77b4"/>
     <use xlink:href="#mbac89d517c" x="124.06943" y="146.886064" style="fill: #1f77b4; stroke: #1f77b4"/>
     <use xlink:href="#mbac89d517c" x="125.70086" y="146.417721" style="fill: #1f77b4; stroke: #1f77b4"/>
     <use xlink:href="#mbac89d517c" x="127.33229" y="145.548434" style="fill: #1f77b4; stroke: #1f77b4"/>
     <use xlink:href="#mbac89d517c" x="128.96372" y="145.840719" style="fill: #1f77b4; stroke: #1f77b4"/>
     <use xlink:href="#mbac89d517c" x="130.595149" y="145.017608" style="fill: #1f77b4; stroke: #1f77b4"/>
     <use xlink:href="#mbac89d517c" x="132.226579" y="144.696827" style="fill: #1f77b4; stroke: #1f77b4"/>
     <use xlink:href="#mbac89d517c" x="133.858009" y="143.105597" style="fill: #1f77b4; stroke: #1f77b4"/>
     <use xlink:href="#mbac89d517c" x="135.489439" y="142.090756" style="fill: #1f77b4; stroke: #1f77b4"/>
     <use xlink:href="#mbac89d517c" x="137.120869" y="142.371978" style="fill: #1f77b4; stroke: #1f77b4"/>
     <use xlink:href="#mbac89d517c" x="138.752299" y="140.399491" style="fill: #1f77b4; stroke: #1f77b4"/>
     <use xlink:href="#mbac89d517c" x="140.383729" y="139.789426" style="fill: #1f77b4; stroke: #1f77b4"/>
     <use xlink:href="#mbac89d517c" x="142.015159" y="138.778871" style="fill: #1f77b4; stroke: #1f77b4"/>
     <use xlink:href="#mbac89d517c" x="143.646588" y="138.029618" style="fill: #1f77b4; stroke: #1f77b4"/>
     <use xlink:href="#mbac89d517c" x="145.278018" y="135.806633" style="fill: #1f77b4; stroke: #1f77b4"/>
     <use xlink:href="#mbac89d517c" x="146.909448" y="135.354078" style="fill: #1f77b4; stroke: #1f77b4"/>
     <use xlink:href="#mbac89d517c" x="148.540878" y="135.334788" style="fill: #1f77b4; stroke: #1f77b4"/>
     <use xlink:href="#mbac89d517c" x="150.172308" y="134.197588" style="fill: #1f77b4; stroke: #1f77b4"/>
     <use xlink:href="#mbac89d517c" x="151.803738" y="133.458081" style="fill: #1f77b4; stroke: #1f77b4"/>
     <use xlink:href="#mbac89d517c" x="153.435168" y="130.799216" style="fill: #1f77b4; stroke: #1f77b4"/>
     <use xlink:href="#mbac89d517c" x="155.066598" y="129.649864" style="fill: #1f77b4; stroke: #1f77b4"/>
     <use xlink:href="#mbac89d517c" x="156.698027" y="127.995911" style="fill: #1f77b4; stroke: #1f77b4"/>
     <use xlink:href="#mbac89d517c" x="158.329457" y="126.985068" style="fill: #1f77b4; stroke: #1f77b4"/>
     <use xlink:href="#mbac89d517c" x="159.960887" y="125.720697" style="fill: #1f77b4; stroke: #1f77b4"/>
     <use xlink:href="#mbac89d517c" x="161.592317" y="122.706728" style="fill: #1f77b4; stroke: #1f77b4"/>
     <use xlink:href="#mbac89d517c" x="163.223747" y="121.820692" style="fill: #1f77b4; stroke: #1f77b4"/>
     <use xlink:href="#mbac89d517c" x="164.855177" y="119.262762" style="fill: #1f77b4; stroke: #1f77b4"/>
     <use xlink:href="#mbac89d517c" x="166.486607" y="118.316091" style="fill: #1f77b4; stroke: #1f77b4"/>
     <use xlink:href="#mbac89d517c" x="168.118037" y="115.202027" style="fill: #1f77b4; stroke: #1f77b4"/>
     <use xlink:href="#mbac89d517c" x="169.749467" y="112.551047" style="fill: #1f77b4; stroke: #1f77b4"/>
     <use xlink:href="#mbac89d517c" x="171.380896" y="110.623108" style="fill: #1f77b4; stroke: #1f77b4"/>
     <use xlink:href="#mbac89d517c" x="173.012326" y="108.38466" style="fill: #1f77b4; stroke: #1f77b4"/>
     <use xlink:href="#mbac89d517c" x="174.643756" y="107.459238" style="fill: #1f77b4; stroke: #1f77b4"/>
     <use xlink:href="#mbac89d517c" x="176.275186" y="103.653941" style="fill: #1f77b4; stroke: #1f77b4"/>
     <use xlink:href="#mbac89d517c" x="177.906616" y="103.007146" style="fill: #1f77b4; stroke: #1f77b4"/>
     <use xlink:href="#mbac89d517c" x="179.538046" y="99.995791" style="fill: #1f77b4; stroke: #1f77b4"/>
     <use xlink:href="#mbac89d517c" x="181.169476" y="99.108617" style="fill: #1f77b4; stroke: #1f77b4"/>
     <use xlink:href="#mbac89d517c" x="182.800906" y="98.190076" style="fill: #1f77b4; stroke: #1f77b4"/>
     <use xlink:href="#mbac89d517c" x="184.432335" y="97.706821" style="fill: #1f77b4; stroke: #1f77b4"/>
     <use xlink:href="#mbac89d517c" x="186.063765" y="97.358818" style="fill: #1f77b4; stroke: #1f77b4"/>
     <use xlink:href="#mbac89d517c" x="187.695195" y="97.305033" style="fill: #1f77b4; stroke: #1f77b4"/>
     <use xlink:href="#mbac89d517c" x="189.326625" y="100.072036" style="fill: #1f77b4; stroke: #1f77b4"/>
     <use xlink:href="#mbac89d517c" x="190.958055" y="99.275304" style="fill: #1f77b4; stroke: #1f77b4"/>
     <use xlink:href="#mbac89d517c" x="192.589485" y="101.397318" style="fill: #1f77b4; stroke: #1f77b4"/>
     <use xlink:href="#mbac89d517c" x="194.220915" y="104.751859" style="fill: #1f77b4; stroke: #1f77b4"/>
     <use xlink:href="#mbac89d517c" x="195.852345" y="107.489534" style="fill: #1f77b4; stroke: #1f77b4"/>
     <use xlink:href="#mbac89d517c" x="197.483774" y="109.775357" style="fill: #1f77b4; stroke: #1f77b4"/>
     <use xlink:href="#mbac89d517c" x="199.115204" y="113.36306" style="fill: #1f77b4; stroke: #1f77b4"/>
     <use xlink:href="#mbac89d517c" x="200.746634" y="115.210004" style="fill: #1f77b4; stroke: #1f77b4"/>
     <use xlink:href="#mbac89d517c" x="202.378064" y="117.761372" style="fill: #1f77b4; stroke: #1f77b4"/>
     <use xlink:href="#mbac89d517c" x="204.009494" y="120.655277" style="fill: #1f77b4; stroke: #1f77b4"/>
     <use xlink:href="#mbac89d517c" x="205.640924" y="124.373089" style="fill: #1f77b4; stroke: #1f77b4"/>
     <use xlink:href="#mbac89d517c" x="207.272354" y="126.799123" style="fill: #1f77b4; stroke: #1f77b4"/>
     <use xlink:href="#mbac89d517c" x="208.903784" y="129.866595" style="fill: #1f77b4; stroke: #1f77b4"/>
     <use xlink:href="#mbac89d517c" x="210.535213" y="131.900825" style="fill: #1f77b4; stroke: #1f77b4"/>
     <use xlink:href="#mbac89d517c" x="212.166643" y="132.549732" style="fill: #1f77b4; stroke: #1f77b4"/>
     <use xlink:href="#mbac89d517c" x="213.798073" y="134.335491" style="fill: #1f77b4; stroke: #1f77b4"/>
     <use xlink:href="#mbac89d517c" x="215.429503" y="135.306947" style="fill: #1f77b4; stroke: #1f77b4"/>
     <use xlink:href="#mbac89d517c" x="217.060933" y="136.186634" style="fill: #1f77b4; stroke: #1f77b4"/>
     <use xlink:href="#mbac89d517c" x="218.692363" y="139.341603" style="fill: #1f77b4; stroke: #1f77b4"/>
     <use xlink:href="#mbac89d517c" x="220.323793" y="140.249572" style="fill: #1f77b4; stroke: #1f77b4"/>
     <use xlink:href="#mbac89d517c" x="221.955223" y="140.931193" style="fill: #1f77b4; stroke: #1f77b4"/>
     <use xlink:href="#mbac89d517c" x="223.586652" y="138.149773" style="fill: #1f77b4; stroke: #1f77b4"/>
     <use xlink:href="#mbac89d517c" x="225.218082" y="140.940547" style="fill: #1f77b4; stroke: #1f77b4"/>
     <use xlink:href="#mbac89d517c" x="226.849512" y="141.230297" style="fill: #1f77b4; stroke: #1f77b4"/>
     <use xlink:href="#mbac89d517c" x="228.480942" y="140.594576" style="fill: #1f77b4; stroke: #1f77b4"/>
     <use xlink:href="#mbac89d517c" x="230.112372" y="142.266111" style="fill: #1f77b4; stroke: #1f77b4"/>
     <use xlink:href="#mbac89d517c" x="231.743802" y="143.126239" style="fill: #1f77b4; stroke: #1f77b4"/>
     <use xlink:href="#mbac89d517c" x="233.375232" y="141.927265" style="fill: #1f77b4; stroke: #1f77b4"/>
     <use xlink:href="#mbac89d517c" x="235.006662" y="142.534337" style="fill: #1f77b4; stroke: #1f77b4"/>
     <use xlink:href="#mbac89d517c" x="236.638091" y="142.971839" style="fill: #1f77b4; stroke: #1f77b4"/>
     <use xlink:href="#mbac89d517c" x="238.269521" y="142.046901" style="fill: #1f77b4; stroke: #1f77b4"/>
     <use xlink:href="#mbac89d517c" x="239.900951" y="141.035243" style="fill: #1f77b4; stroke: #1f77b4"/>
     <use xlink:href="#mbac89d517c" x="241.532381" y="140.661969" style="fill: #1f77b4; stroke: #1f77b4"/>
     <use xlink:href="#mbac89d517c" x="243.163811" y="141.083059" style="fill: #1f77b4; stroke: #1f77b4"/>
     <use xlink:href="#mbac89d517c" x="244.795241" y="141.067535" style="fill: #1f77b4; stroke: #1f77b4"/>
     <use xlink:href="#mbac89d517c" x="246.426671" y="140.990537" style="fill: #1f77b4; stroke: #1f77b4"/>
     <use xlink:href="#mbac89d517c" x="248.058101" y="141.324772" style="fill: #1f77b4; stroke: #1f77b4"/>
     <use xlink:href="#mbac89d517c" x="249.68953" y="140.693661" style="fill: #1f77b4; stroke: #1f77b4"/>
     <use xlink:href="#mbac89d517c" x="251.32096" y="137.710802" style="fill: #1f77b4; stroke: #1f77b4"/>
     <use xlink:href="#mbac89d517c" x="252.95239" y="137.103186" style="fill: #1f77b4; stroke: #1f77b4"/>
     <use xlink:href="#mbac89d517c" x="254.58382" y="136.875858" style="fill: #1f77b4; stroke: #1f77b4"/>
     <use xlink:href="#mbac89d517c" x="256.21525" y="135.748398" style="fill: #1f77b4; stroke: #1f77b4"/>
     <use xlink:href="#mbac89d517c" x="257.84668" y="136.217108" style="fill: #1f77b4; stroke: #1f77b4"/>
     <use xlink:href="#mbac89d517c" x="259.47811" y="136.00686" style="fill: #1f77b4; stroke: #1f77b4"/>
     <use xlink:href="#mbac89d517c" x="261.10954" y="134.824555" style="fill: #1f77b4; stroke: #1f77b4"/>
     <use xlink:href="#mbac89d517c" x="262.740969" y="132.343329" style="fill: #1f77b4; stroke: #1f77b4"/>
     <use xlink:href="#mbac89d517c" x="264.372399" y="131.086591" style="fill: #1f77b4; stroke: #1f77b4"/>
     <use xlink:href="#mbac89d517c" x="266.003829" y="133.172898" style="fill: #1f77b4; stroke: #1f77b4"/>
     <use xlink:href="#mbac89d517c" x="267.635259" y="130.083185" style="fill: #1f77b4; stroke: #1f77b4"/>
     <use xlink:href="#mbac89d517c" x="269.266689" y="129.542607" style="fill: #1f77b4; stroke: #1f77b4"/>
     <use xlink:href="#mbac89d517c" x="270.898119" y="127.569894" style="fill: #1f77b4; stroke: #1f77b4"/>
     <use xlink:href="#mbac89d517c" x="272.529549" y="125.970295" style="fill: #1f77b4; stroke: #1f77b4"/>
     <use xlink:href="#mbac89d517c" x="274.160979" y="123.529508" style="fill: #1f77b4; stroke: #1f77b4"/>
     <use xlink:href="#mbac89d517c" x="275.792408" y="122.471069" style="fill: #1f77b4; stroke: #1f77b4"/>
     <use xlink:href="#mbac89d517c" x="277.423838" y="125.140713" style="fill: #1f77b4; stroke: #1f77b4"/>
     <use xlink:href="#mbac89d517c" x="279.055268" y="119.889539" style="fill: #1f77b4; stroke: #1f77b4"/>
     <use xlink:href="#mbac89d517c" x="280.686698" y="121.602088" style="fill: #1f77b4; stroke: #1f77b4"/>
     <use xlink:href="#mbac89d517c" x="282.318128" y="117.647124" style="fill: #1f77b4; stroke: #1f77b4"/>
     <use xlink:href="#mbac89d517c" x="283.949558" y="116.103067" style="fill: #1f77b4; stroke: #1f77b4"/>
     <use xlink:href="#mbac89d517c" x="285.580988" y="114.306253" style="fill: #1f77b4; stroke: #1f77b4"/>
     <use xlink:href="#mbac89d517c" x="287.212418" y="113.219935" style="fill: #1f77b4; stroke: #1f77b4"/>
     <use xlink:href="#mbac89d517c" x="288.843848" y="112.757702" style="fill: #1f77b4; stroke: #1f77b4"/>
     <use xlink:href="#mbac89d517c" x="290.475277" y="105.722275" style="fill: #1f77b4; stroke: #1f77b4"/>
     <use xlink:href="#mbac89d517c" x="292.106707" y="106.664336" style="fill: #1f77b4; stroke: #1f77b4"/>
     <use xlink:href="#mbac89d517c" x="293.738137" y="101.050049" style="fill: #1f77b4; stroke: #1f77b4"/>
     <use xlink:href="#mbac89d517c" x="295.369567" y="101.873705" style="fill: #1f77b4; stroke: #1f77b4"/>
     <use xlink:href="#mbac89d517c" x="297.000997" y="97.314154" style="fill: #1f77b4; stroke: #1f77b4"/>
     <use xlink:href="#mbac89d517c" x="298.632427" y="93.369603" style="fill: #1f77b4; stroke: #1f77b4"/>
     <use xlink:href="#mbac89d517c" x="300.263857" y="89.101142" style="fill: #1f77b4; stroke: #1f77b4"/>
     <use xlink:href="#mbac89d517c" x="301.895287" y="85.176058" style="fill: #1f77b4; stroke: #1f77b4"/>
     <use xlink:href="#mbac89d517c" x="303.526716" y="85.881155" style="fill: #1f77b4; stroke: #1f77b4"/>
     <use xlink:href="#mbac89d517c" x="305.158146" y="77.258293" style="fill: #1f77b4; stroke: #1f77b4"/>
     <use xlink:href="#mbac89d517c" x="306.789576" y="80.959099" style="fill: #1f77b4; stroke: #1f77b4"/>
     <use xlink:href="#mbac89d517c" x="308.421006" y="70.948949" style="fill: #1f77b4; stroke: #1f77b4"/>
     <use xlink:href="#mbac89d517c" x="310.052436" y="68.385545" style="fill: #1f77b4; stroke: #1f77b4"/>
     <use xlink:href="#mbac89d517c" x="311.683866" y="67.643901" style="fill: #1f77b4; stroke: #1f77b4"/>
     <use xlink:href="#mbac89d517c" x="313.315296" y="68.209615" style="fill: #1f77b4; stroke: #1f77b4"/>
     <use xlink:href="#mbac89d517c" x="314.946726" y="66.410285" style="fill: #1f77b4; stroke: #1f77b4"/>
     <use xlink:href="#mbac89d517c" x="316.578155" y="61.797886" style="fill: #1f77b4; stroke: #1f77b4"/>
     <use xlink:href="#mbac89d517c" x="318.209585" y="72.433883" style="fill: #1f77b4; stroke: #1f77b4"/>
     <use xlink:href="#mbac89d517c" x="319.841015" y="63.477918" style="fill: #1f77b4; stroke: #1f77b4"/>
     <use xlink:href="#mbac89d517c" x="321.472445" y="68.388049" style="fill: #1f77b4; stroke: #1f77b4"/>
     <use xlink:href="#mbac89d517c" x="323.103875" y="79.48156" style="fill: #1f77b4; stroke: #1f77b4"/>
     <use xlink:href="#mbac89d517c" x="324.735305" y="82.130048" style="fill: #1f77b4; stroke: #1f77b4"/>
     <use xlink:href="#mbac89d517c" x="326.366735" y="82.479006" style="fill: #1f77b4; stroke: #1f77b4"/>
     <use xlink:href="#mbac89d517c" x="327.998165" y="87.605593" style="fill: #1f77b4; stroke: #1f77b4"/>
     <use xlink:href="#mbac89d517c" x="329.629594" y="87.338769" style="fill: #1f77b4; stroke: #1f77b4"/>
     <use xlink:href="#mbac89d517c" x="331.261024" y="92.217661" style="fill: #1f77b4; stroke: #1f77b4"/>
     <use xlink:href="#mbac89d517c" x="332.892454" y="82.833254" style="fill: #1f77b4; stroke: #1f77b4"/>
     <use xlink:href="#mbac89d517c" x="334.523884" y="114.024063" style="fill: #1f77b4; stroke: #1f77b4"/>
     <use xlink:href="#mbac89d517c" x="336.155314" y="121.062392" style="fill: #1f77b4; stroke: #1f77b4"/>
     <use xlink:href="#mbac89d517c" x="337.786744" y="124.022851" style="fill: #1f77b4; stroke: #1f77b4"/>
     <use xlink:href="#mbac89d517c" x="339.418174" y="129.839856" style="fill: #1f77b4; stroke: #1f77b4"/>
     <use xlink:href="#mbac89d517c" x="341.049604" y="95.044945" style="fill: #1f77b4; stroke: #1f77b4"/>
     <use xlink:href="#mbac89d517c" x="342.681033" y="114.50771" style="fill: #1f77b4; stroke: #1f77b4"/>
     <use xlink:href="#mbac89d517c" x="344.312463" y="75.170584" style="fill: #1f77b4; stroke: #1f77b4"/>
     <use xlink:href="#mbac89d517c" x="345.943893" y="96.371439" style="fill: #1f77b4; stroke: #1f77b4"/>
     <use xlink:href="#mbac89d517c" x="347.575323" y="121.071164" style="fill: #1f77b4; stroke: #1f77b4"/>
     <use xlink:href="#mbac89d517c" x="349.206753" y="106.090719" style="fill: #1f77b4; stroke: #1f77b4"/>
     <use xlink:href="#mbac89d517c" x="350.838183" y="101.65073" style="fill: #1f77b4; stroke: #1f77b4"/>
     <use xlink:href="#mbac89d517c" x="352.469613" y="101.790812" style="fill: #1f77b4; stroke: #1f77b4"/>
     <use xlink:href="#mbac89d517c" x="354.101043" y="91.712448" style="fill: #1f77b4; stroke: #1f77b4"/>
     <use xlink:href="#mbac89d517c" x="355.732472" y="87.610876" style="fill: #1f77b4; stroke: #1f77b4"/>
     <use xlink:href="#mbac89d517c" x="357.363902" y="86.251913" style="fill: #1f77b4; stroke: #1f77b4"/>
     <use xlink:href="#mbac89d517c" x="358.995332" y="90.916646" style="fill: #1f77b4; stroke: #1f77b4"/>
     <use xlink:href="#mbac89d517c" x="360.626762" y="97.191586" style="fill: #1f77b4; stroke: #1f77b4"/>
     <use xlink:href="#mbac89d517c" x="362.258192" y="97.102969" style="fill: #1f77b4; stroke: #1f77b4"/>
     <use xlink:href="#mbac89d517c" x="363.889622" y="99.648284" style="fill: #1f77b4; stroke: #1f77b4"/>
     <use xlink:href="#mbac89d517c" x="365.521052" y="105.820742" style="fill: #1f77b4; stroke: #1f77b4"/>
     <use xlink:href="#mbac89d517c" x="367.152482" y="105.262331" style="fill: #1f77b4; stroke: #1f77b4"/>
     <use xlink:href="#mbac89d517c" x="368.783911" y="107.689993" style="fill: #1f77b4; stroke: #1f77b4"/>
     <use xlink:href="#mbac89d517c" x="370.415341" y="115.198991" style="fill: #1f77b4; stroke: #1f77b4"/>
     <use xlink:href="#mbac89d517c" x="372.046771" y="119.623792" style="fill: #1f77b4; stroke: #1f77b4"/>
     <use xlink:href="#mbac89d517c" x="373.678201" y="127.827566" style="fill: #1f77b4; stroke: #1f77b4"/>
     <use xlink:href="#mbac89d517c" x="375.309631" y="132.176954" style="fill: #1f77b4; stroke: #1f77b4"/>
     <use xlink:href="#mbac89d517c" x="376.941061" y="137.474274" style="fill: #1f77b4; stroke: #1f77b4"/>
     <use xlink:href="#mbac89d517c" x="378.572491" y="141.614651" style="fill: #1f77b4; stroke: #1f77b4"/>
     <use xlink:href="#mbac89d517c" x="380.203921" y="139.67415" style="fill: #1f77b4; stroke: #1f77b4"/>
     <use xlink:href="#mbac89d517c" x="381.83535" y="143.113071" style="fill: #1f77b4; stroke: #1f77b4"/>
     <use xlink:href="#mbac89d517c" x="383.46678" y="146.946466" style="fill: #1f77b4; stroke: #1f77b4"/>
     <use xlink:href="#mbac89d517c" x="385.09821" y="148.475182" style="fill: #1f77b4; stroke: #1f77b4"/>
    </g>
   </g>
   <g id="line2d_14">
    <path d="M 60.443665 106.054409 
L 68.893132 108.442906 
L 76.367661 110.335509 
L 83.517211 111.91882 
L 90.341781 113.198356 
L 96.841372 114.188321 
L 103.015983 114.909517 
L 109.190594 115.40799 
L 115.365204 115.677668 
L 121.539815 115.715367 
L 127.714426 115.520829 
L 133.889037 115.096729 
L 140.063648 114.448639 
L 146.563239 113.53373 
L 153.062829 112.393026 
L 159.887399 110.970062 
L 167.036949 109.255836 
L 174.836458 107.159101 
L 183.610905 104.569611 
L 194.660209 101.061711 
L 230.407956 89.504999 
L 239.182404 87.014741 
L 246.981912 85.03053 
L 254.131462 83.438447 
L 260.956032 82.148025 
L 267.455622 81.147164 
L 273.630233 80.416869 
L 279.804844 79.912383 
L 285.654476 79.650199 
L 291.504107 79.602943 
L 297.353738 79.773573 
L 303.20337 80.163306 
L 309.053001 80.771965 
L 314.902633 81.598589 
L 320.752264 82.642501 
L 326.601896 83.905205 
L 332.451527 85.39365 
L 337.976179 87.020984 
L 343.825811 88.981438 
L 348.050544 90.350846 
L 349.350462 90.575814 
L 350.325401 90.52424 
L 350.97536 90.282164 
L 351.625319 89.745825 
L 352.275278 88.710984 
L 352.925237 86.811253 
L 353.575196 83.394674 
L 354.225155 77.407559 
L 354.875114 67.762003 
L 355.850053 50.592374 
L 356.175033 47.637206 
L 356.500012 47.258182 
L 356.824992 49.111853 
L 357.474951 56.22134 
L 358.449889 66.863135 
L 359.099848 72.035368 
L 359.749807 75.879538 
L 360.399766 78.769443 
L 361.374705 81.922036 
L 362.349643 84.178745 
L 363.324582 85.88457 
L 364.6245 87.62863 
L 365.924418 88.99396 
L 367.549316 90.374895 
L 369.499193 91.739824 
L 372.099029 93.269592 
L 375.348824 94.91873 
L 379.898538 96.964105 
L 385.09821 99.095959 
L 385.09821 99.095959 
" clip-path="url(#p3c4f5d438b)" style="fill: none; stroke: #d62728; stroke-width: 1.5; stroke-linecap: square"/>
   </g>
   <g id="patch_3">
    <path d="M 44.210938 162.72 
L 44.210938 41.76 
" style="fill: none; stroke: #000000; stroke-width: 0.8; stroke-linejoin: miter; stroke-linecap: square"/>
   </g>
   <g id="patch_4">
    <path d="M 401.330938 162.72 
L 401.330938 41.76 
" style="fill: none; stroke: #000000; stroke-width: 0.8; stroke-linejoin: miter; stroke-linecap: square"/>
   </g>
   <g id="patch_5">
    <path d="M 44.210938 162.72 
L 401.330937 162.72 
" style="fill: none; stroke: #000000; stroke-width: 0.8; stroke-linejoin: miter; stroke-linecap: square"/>
   </g>
   <g id="patch_6">
    <path d="M 44.210938 41.76 
L 401.330937 41.76 
" style="fill: none; stroke: #000000; stroke-width: 0.8; stroke-linejoin: miter; stroke-linecap: square"/>
   </g>
   <g id="text_6">
    <g id="patch_7">
     <path d="M 419.186937 72.683938 
L 579.29475 72.683938 
Q 583.29475 72.683938 583.29475 68.683938 
L 583.29475 47.808 
Q 583.29475 43.808 579.29475 43.808 
L 419.186937 43.808 
Q 415.186937 43.808 415.186937 47.808 
L 415.186937 68.683938 
Q 415.186937 72.683938 419.186937 72.683938 
z
" style="fill: #ffffff; opacity: 0.5; stroke: #000000; stroke-linejoin: miter"/>
    </g>
    <!-- Warning: fit failed. lmfit was not -->
    <g transform="translate(419.186937 55.406437) scale(0.1 -0.1)">
     <defs>
      <path id="DejaVuSans-57" d="M 213 4666 
L 850 4666 
L 1831 722 
L 2809 4666 
L 3519 4666 
L 4500 722 
L 5478 4666 
L 6119 4666 
L 4947 0 
L 4153 0 
L 3169 4050 
L 2175 0 
L 1381 0 
L 213 4666 
z
" transform="scale(0.015625)"/>
      <path id="DejaVuSans-61" d="M 2194 1759 
Q 1497 1759 1228 1600 
Q 959 1441 959 1056 
Q 959 750 1161 570 
Q 1363 391 1709 391 
Q 2188 391 2477 730 
Q 2766 1069 2766 1631 
L 2766 1759 
L 2194 1759 
z
M 3341 1997 
L 3341 0 
L 2766 0 
L 2766 531 
Q 2569 213 2275 61 
Q 1981 -91 1556 -91 
Q 1019 -91 701 211 
Q 384 513 384 1019 
Q 384 1609 779 1909 
Q 1175 2209 1959 2209 
L 2766 2209 
L 2766 2266 
Q 2766 2663 2505 2880 
Q 2244 3097 1772 3097 
Q 1472 3097 1187 3025 
Q 903 2953 641 2809 
L 641 3341 
Q 956 3463 1253 3523 
Q 1550 3584 1831 3584 
Q 2591 3584 2966 3190 
Q 3341 2797 3341 1997 
z
" transform="scale(0.015625)"/>
      <path id="DejaVuSans-72" d="M 2631 2963 
Q 2534 3019 2420 3045 
Q 2306 3072 2169 3072 
Q 1681 3072 1420 2755 
Q 1159 2438 1159 1844 
L 1159 0 
L 581 0 
L 581 3500 
L 1159 3500 
L 1159 2956 
Q 1341 3275 1631 3429 
Q 1922 3584 2338 3584 
Q 2397 3584 2469 3576 
Q 2541 3569 2628 3553 
L 2631 2963 
z
" transform="scale(0.015625)"/>
      <path id="DejaVuSans-6e" d="M 3513 2113 
L 3513 0 
L 2938 0 
L 2938 2094 
Q 2938 2591 2744 2837 
Q 2550 3084 2163 3084 
Q 1697 3084 1428 2787 
Q 1159 2491 1159 1978 
L 1159 0 
L 581 0 
L 581 3500 
L 1159 3500 
L 1159 2956 
Q 1366 3272 1645 3428 
Q 1925 3584 2291 3584 
Q 2894 3584 3203 3211 
Q 3513 2838 3513 2113 
z
" transform="scale(0.015625)"/>
      <path id="DejaVuSans-69" d="M 603 3500 
L 1178 3500 
L 1178 0 
L 603 0 
L 603 3500 
z
M 603 4863 
L 1178 4863 
L 1178 4134 
L 603 4134 
L 603 4863 
z
" transform="scale(0.015625)"/>
      <path id="DejaVuSans-67" d="M 2906 1791 
Q 2906 2416 2648 2759 
Q 2391 3103 1925 3103 
Q 1463 3103 1205 2759 
Q 947 2416 947 1791 
Q 947 1169 1205 825 
Q 1463 481 1925 481 
Q 2391 481 2648 825 
Q 2906 1169 2906 1791 
z
M 3481 434 
Q 3481 -459 3084 -895 
Q 2688 -1331 1869 -1331 
Q 1566 -1331 1297 -1286 
Q 1028 -1241 775 -1147 
L 775 -588 
Q 1028 -725 1275 -790 
Q 1522 -856 1778 -856 
Q 2344 -856 2625 -561 
Q 2906 -266 2906 331 
L 2906 616 
Q 2728 306 2450 153 
Q 2172 0 1784 0 
Q 1141 0 747 490 
Q 353 981 353 1791 
Q 353 2603 747 3093 
Q 1141 3584 1784 3584 
Q 2172 3584 2450 3431 
Q 2728 3278 2906 2969 
L 2906 3500 
L 3481 3500 
L 3481 434 
z
" transform="scale(0.015625)"/>
      <path id="DejaVuSans-3a" d="M 750 794 
L 1409 794 
L 1409 0 
L 750 0 
L 750 794 
z
M 750 3309 
L 1409 3309 
L 1409 2516 
L 750 2516 
L 750 3309 
z
" transform="scale(0.015625)"/>
      <path id="DejaVuSans-66" d="M 2375 4863 
L 2375 4384 
L 1825 4384 
Q 1516 4384 1395 4259 
Q 1275 4134 1275 3809 
L 1275 3500 
L 2222 3500 
L 2222 3053 
L 1275 3053 
L 1275 0 
L 697 0 
L 697 3053 
L 147 3053 
L 147 3500 
L 697 3500 
L 697 3744 
Q 697 4328 969 4595 
Q 1241 4863 1831 4863 
L 2375 4863 
z
" transform="scale(0.015625)"/>
      <path id="DejaVuSans-74" d="M 1172 4494 
L 1172 3500 
L 2356 3500 
L 2356 3053 
L 1172 3053 
L 1172 1153 
Q 1172 725 1289 603 
Q 1406 481 1766 481 
L 2356 481 
L 2356 0 
L 1766 0 
Q 1100 0 847 248 
Q 594 497 594 1153 
L 594 3053 
L 172 3053 
L 172 3500 
L 594 3500 
L 594 4494 
L 1172 4494 
z
" transform="scale(0.015625)"/>
      <path id="DejaVuSans-6c" d="M 603 4863 
L 1178 4863 
L 1178 0 
L 603 0 
L 603 4863 
z
" transform="scale(0.015625)"/>
      <path id="DejaVuSans-64" d="M 2906 2969 
L 2906 4863 
L 3481 4863 
L 3481 0 
L 2906 0 
L 2906 525 
Q 2725 213 2448 61 
Q 2172 -91 1784 -91 
Q 1150 -91 751 415 
Q 353 922 353 1747 
Q 353 2572 751 3078 
Q 1150 3584 1784 3584 
Q 2172 3584 2448 3432 
Q 2725 3281 2906 2969 
z
M 947 1747 
Q 947 1113 1208 752 
Q 1469 391 1925 391 
Q 2381 391 2643 752 
Q 2906 1113 2906 1747 
Q 2906 2381 2643 2742 
Q 2381 3103 1925 3103 
Q 1469 3103 1208 2742 
Q 947 2381 947 1747 
z
" transform="scale(0.015625)"/>
      <path id="DejaVuSans-2e" d="M 684 794 
L 1344 794 
L 1344 0 
L 684 0 
L 684 794 
z
" transform="scale(0.015625)"/>
      <path id="DejaVuSans-77" d="M 269 3500 
L 844 3500 
L 1563 769 
L 2278 3500 
L 2956 3500 
L 3675 769 
L 4391 3500 
L 4966 3500 
L 4050 0 
L 3372 0 
L 2619 2869 
L 1863 0 
L 1184 0 
L 269 3500 
z
" transform="scale(0.015625)"/>
      <path id="DejaVuSans-73" d="M 2834 3397 
L 2834 2853 
Q 2591 2978 2328 3040 
Q 2066 3103 1784 3103 
Q 1356 3103 1142 2972 
Q 928 2841 928 2578 
Q 928 2378 1081 2264 
Q 1234 2150 1697 2047 
L 1894 2003 
Q 2506 1872 2764 1633 
Q 3022 1394 3022 966 
Q 3022 478 2636 193 
Q 2250 -91 1575 -91 
Q 1294 -91 989 -36 
Q 684 19 347 128 
L 347 722 
Q 666 556 975 473 
Q 1284 391 1588 391 
Q 1994 391 2212 530 
Q 2431 669 2431 922 
Q 2431 1156 2273 1281 
Q 2116 1406 1581 1522 
L 1381 1569 
Q 847 1681 609 1914 
Q 372 2147 372 2553 
Q 372 3047 722 3315 
Q 1072 3584 1716 3584 
Q 2034 3584 2315 3537 
Q 2597 3491 2834 3397 
z
" transform="scale(0.015625)"/>
      <path id="DejaVuSans-6f" d="M 1959 3097 
Q 1497 3097 1228 2736 
Q 959 2375 959 1747 
Q 959 1119 1226 758 
Q 1494 397 1959 397 
Q 2419 397 2687 759 
Q 2956 1122 2956 1747 
Q 2956 2369 2687 2733 
Q 2419 3097 1959 3097 
z
M 1959 3584 
Q 2709 3584 3137 3096 
Q 3566 2609 3566 1747 
Q 3566 888 3137 398 
Q 2709 -91 1959 -91 
Q 1206 -91 779 398 
Q 353 888 353 1747 
Q 353 2609 779 3096 
Q 1206 3584 1959 3584 
z
" transform="scale(0.015625)"/>
     </defs>
     <use xlink:href="#DejaVuSans-57"/>
     <use xlink:href="#DejaVuSans-61" x="92.501953"/>
     <use xlink:href="#DejaVuSans-72" x="153.78125"/>
     <use xlink:href="#DejaVuSans-6e" x="193.144531"/>
     <use xlink:href="#DejaVuSans-69" x="256.523438"/>
     <use xlink:href="#DejaVuSans-6e" x="284.306641"/>
     <use xlink:href="#DejaVuSans-67" x="347.685547"/>
     <use xlink:href="#DejaVuSans-3a" x="411.162109"/>
     <use xlink:href="#DejaVuSans-20" x="444.853516"/>
     <use xlink:href="#DejaVuSans-66" x="476.640625"/>
     <use xlink:href="#DejaVuSans-69" x="511.845703"/>
     <use xlink:href="#DejaVuSans-74" x="539.628906"/>
     <use xlink:href="#DejaVuSans-20" x="578.837891"/>
     <use xlink:href="#DejaVuSans-66" x="610.625"/>
     <use xlink:href="#DejaVuSans-61" x="645.830078"/>
     <use xlink:href="#DejaVuSans-69" x="707.109375"/>
     <use xlink:href="#DejaVuSans-6c" x="734.892578"/>
     <use xlink:href="#DejaVuSans-65" x="762.675781"/>
     <use xlink:href="#DejaVuSans-64" x="824.199219"/>
     <use xlink:href="#DejaVuSans-2e" x="887.675781"/>
     <use xlink:href="#DejaVuSans-20" x="919.462891"/>
     <use xlink:href="#DejaVuSans-6c" x="951.25"/>
     <use xlink:href="#DejaVuSans-6d" x="979.033203"/>
     <use xlink:href="#DejaVuSans-66" x="1076.445312"/>
     <use xlink:href="#DejaVuSans-69" x="1111.650391"/>
     <use xlink:href="#DejaVuSans-74" x="1139.433594"/>
     <use xlink:href="#DejaVuSans-20" x="1178.642578"/>
     <use xlink:href="#DejaVuSans-77" x="1210.429688"/>
     <use xlink:href="#DejaVuSans-61" x="1292.216797"/>
     <use xlink:href="#DejaVuSans-73" x="1353.496094"/>
     <use xlink:href="#DejaVuSans-20" x="1405.595703"/>
     <use xlink:href="#DejaVuSans-6e" x="1437.382812"/>
     <use xlink:href="#DejaVuSans-6f" x="1500.761719"/>
     <use xlink:href="#DejaVuSans-74" x="1561.943359"/>
    </g>
    <!-- able to fit the data. -->
    <g transform="translate(419.186937 66.60425) scale(0.1 -0.1)">
     <defs>
      <path id="DejaVuSans-62" d="M 3116 1747 
Q 3116 2381 2855 2742 
Q 2594 3103 2138 3103 
Q 1681 3103 1420 2742 
Q 1159 2381 1159 1747 
Q 1159 1113 1420 752 
Q 1681 391 2138 391 
Q 2594 391 2855 752 
Q 3116 1113 3116 1747 
z
M 1159 2969 
Q 1341 3281 1617 3432 
Q 1894 3584 2278 3584 
Q 2916 3584 3314 3078 
Q 3713 2572 3713 1747 
Q 3713 922 3314 415 
Q 2916 -91 2278 -91 
Q 1894 -91 1617 61 
Q 1341 213 1159 525 
L 1159 0 
L 581 0 
L 581 4863 
L 1159 4863 
L 1159 2969 
z
" transform="scale(0.015625)"/>
      <path id="DejaVuSans-68" d="M 3513 2113 
L 3513 0 
L 2938 0 
L 2938 2094 
Q 2938 2591 2744 2837 
Q 2550 3084 2163 3084 
Q 1697 3084 1428 2787 
Q 1159 2491 1159 1978 
L 1159 0 
L 581 0 
L 581 4863 
L 1159 4863 
L 1159 2956 
Q 1366 3272 1645 3428 
Q 1925 3584 2291 3584 
Q 2894 3584 3203 3211 
Q 3513 2838 3513 2113 
z
" transform="scale(0.015625)"/>
     </defs>
     <use xlink:href="#DejaVuSans-61"/>
     <use xlink:href="#DejaVuSans-62" x="61.279297"/>
     <use xlink:href="#DejaVuSans-6c" x="124.755859"/>
     <use xlink:href="#DejaVuSans-65" x="152.539062"/>
     <use xlink:href="#DejaVuSans-20" x="214.0625"/>
     <use xlink:href="#DejaVuSans-74" x="245.849609"/>
     <use xlink:href="#DejaVuSans-6f" x="285.058594"/>
     <use xlink:href="#DejaVuSans-20" x="346.240234"/>
     <use xlink:href="#DejaVuSans-66" x="378.027344"/>
     <use xlink:href="#DejaVuSans-69" x="413.232422"/>
     <use xlink:href="#DejaVuSans-74" x="441.015625"/>
     <use xlink:href="#DejaVuSans-20" x="480.224609"/>
     <use xlink:href="#DejaVuSans-74" x="512.011719"/>
     <use xlink:href="#DejaVuSans-68" x="551.220703"/>
     <use xlink:href="#DejaVuSans-65" x="614.599609"/>
     <use xlink:href="#DejaVuSans-20" x="676.123047"/>
     <use xlink:href="#DejaVuSans-64" x="707.910156"/>
     <use xlink:href="#DejaVuSans-61" x="771.386719"/>
     <use xlink:href="#DejaVuSans-74" x="832.666016"/>
     <use xlink:href="#DejaVuSans-61" x="871.875"/>
     <use xlink:href="#DejaVuSans-2e" x="933.154297"/>
    </g>
   </g>
  </g>
  <g id="axes_2">
   <g id="patch_8">
    <path d="M 44.210938 307.872 
L 401.330938 307.872 
L 401.330938 186.912 
L 44.210938 186.912 
z
" style="fill: #ffffff"/>
   </g>
   <g id="matplotlib.axis_3">
    <g id="xtick_9">
     <g id="line2d_15">
      <g>
       <use xlink:href="#m357309f35f" x="60.443665" y="307.872" style="stroke: #000000; stroke-width: 0.8"/>
      </g>
     </g>
     <g id="text_7">
      <!-- 2 -->
      <g transform="translate(57.262415 322.470438) scale(0.1 -0.1)">
       <use xlink:href="#DejaVuSans-32"/>
      </g>
     </g>
    </g>
    <g id="xtick_10">
     <g id="line2d_16">
      <g>
       <use xlink:href="#m357309f35f" x="103.730938" y="307.872" style="stroke: #000000; stroke-width: 0.8"/>
      </g>
     </g>
     <g id="text_8">
      <!-- 4 -->
      <g transform="translate(100.549688 322.470438) scale(0.1 -0.1)">
       <defs>
        <path id="DejaVuSans-34" d="M 2419 4116 
L 825 1625 
L 2419 1625 
L 2419 4116 
z
M 2253 4666 
L 3047 4666 
L 3047 1625 
L 3713 1625 
L 3713 1100 
L 3047 1100 
L 3047 0 
L 2419 0 
L 2419 1100 
L 313 1100 
L 313 1709 
L 2253 4666 
z
" transform="scale(0.015625)"/>
       </defs>
       <use xlink:href="#DejaVuSans-34"/>
      </g>
     </g>
    </g>
    <g id="xtick_11">
     <g id="line2d_17">
      <g>
       <use xlink:href="#m357309f35f" x="147.01821" y="307.872" style="stroke: #000000; stroke-width: 0.8"/>
      </g>
     </g>
     <g id="text_9">
      <!-- 6 -->
      <g transform="translate(143.83696 322.470438) scale(0.1 -0.1)">
       <defs>
        <path id="DejaVuSans-36" d="M 2113 2584 
Q 1688 2584 1439 2293 
Q 1191 2003 1191 1497 
Q 1191 994 1439 701 
Q 1688 409 2113 409 
Q 2538 409 2786 701 
Q 3034 994 3034 1497 
Q 3034 2003 2786 2293 
Q 2538 2584 2113 2584 
z
M 3366 4563 
L 3366 3988 
Q 3128 4100 2886 4159 
Q 2644 4219 2406 4219 
Q 1781 4219 1451 3797 
Q 1122 3375 1075 2522 
Q 1259 2794 1537 2939 
Q 1816 3084 2150 3084 
Q 2853 3084 3261 2657 
Q 3669 2231 3669 1497 
Q 3669 778 3244 343 
Q 2819 -91 2113 -91 
Q 1303 -91 875 529 
Q 447 1150 447 2328 
Q 447 3434 972 4092 
Q 1497 4750 2381 4750 
Q 2619 4750 2861 4703 
Q 3103 4656 3366 4563 
z
" transform="scale(0.015625)"/>
       </defs>
       <use xlink:href="#DejaVuSans-36"/>
      </g>
     </g>
    </g>
    <g id="xtick_12">
     <g id="line2d_18">
      <g>
       <use xlink:href="#m357309f35f" x="190.305483" y="307.872" style="stroke: #000000; stroke-width: 0.8"/>
      </g>
     </g>
     <g id="text_10">
      <!-- 8 -->
      <g transform="translate(187.124233 322.470438) scale(0.1 -0.1)">
       <defs>
        <path id="DejaVuSans-38" d="M 2034 2216 
Q 1584 2216 1326 1975 
Q 1069 1734 1069 1313 
Q 1069 891 1326 650 
Q 1584 409 2034 409 
Q 2484 409 2743 651 
Q 3003 894 3003 1313 
Q 3003 1734 2745 1975 
Q 2488 2216 2034 2216 
z
M 1403 2484 
Q 997 2584 770 2862 
Q 544 3141 544 3541 
Q 544 4100 942 4425 
Q 1341 4750 2034 4750 
Q 2731 4750 3128 4425 
Q 3525 4100 3525 3541 
Q 3525 3141 3298 2862 
Q 3072 2584 2669 2484 
Q 3125 2378 3379 2068 
Q 3634 1759 3634 1313 
Q 3634 634 3220 271 
Q 2806 -91 2034 -91 
Q 1263 -91 848 271 
Q 434 634 434 1313 
Q 434 1759 690 2068 
Q 947 2378 1403 2484 
z
M 1172 3481 
Q 1172 3119 1398 2916 
Q 1625 2713 2034 2713 
Q 2441 2713 2670 2916 
Q 2900 3119 2900 3481 
Q 2900 3844 2670 4047 
Q 2441 4250 2034 4250 
Q 1625 4250 1398 4047 
Q 1172 3844 1172 3481 
z
" transform="scale(0.015625)"/>
       </defs>
       <use xlink:href="#DejaVuSans-38"/>
      </g>
     </g>
    </g>
    <g id="xtick_13">
     <g id="line2d_19">
      <g>
       <use xlink:href="#m357309f35f" x="233.592756" y="307.872" style="stroke: #000000; stroke-width: 0.8"/>
      </g>
     </g>
     <g id="text_11">
      <!-- 10 -->
      <g transform="translate(227.230256 322.470438) scale(0.1 -0.1)">
       <use xlink:href="#DejaVuSans-31"/>
       <use xlink:href="#DejaVuSans-30" x="63.623047"/>
      </g>
     </g>
    </g>
    <g id="xtick_14">
     <g id="line2d_20">
      <g>
       <use xlink:href="#m357309f35f" x="276.880028" y="307.872" style="stroke: #000000; stroke-width: 0.8"/>
      </g>
     </g>
     <g id="text_12">
      <!-- 12 -->
      <g transform="translate(270.517528 322.470438) scale(0.1 -0.1)">
       <use xlink:href="#DejaVuSans-31"/>
       <use xlink:href="#DejaVuSans-32" x="63.623047"/>
      </g>
     </g>
    </g>
    <g id="xtick_15">
     <g id="line2d_21">
      <g>
       <use xlink:href="#m357309f35f" x="320.167301" y="307.872" style="stroke: #000000; stroke-width: 0.8"/>
      </g>
     </g>
     <g id="text_13">
      <!-- 14 -->
      <g transform="translate(313.804801 322.470438) scale(0.1 -0.1)">
       <use xlink:href="#DejaVuSans-31"/>
       <use xlink:href="#DejaVuSans-34" x="63.623047"/>
      </g>
     </g>
    </g>
    <g id="xtick_16">
     <g id="line2d_22">
      <g>
       <use xlink:href="#m357309f35f" x="363.454574" y="307.872" style="stroke: #000000; stroke-width: 0.8"/>
      </g>
     </g>
     <g id="text_14">
      <!-- 16 -->
      <g transform="translate(357.092074 322.470438) scale(0.1 -0.1)">
       <use xlink:href="#DejaVuSans-31"/>
       <use xlink:href="#DejaVuSans-36" x="63.623047"/>
      </g>
     </g>
    </g>
    <g id="text_15">
     <!-- Frequency [MHz] -->
     <g transform="translate(180.752187 336.148562) scale(0.1 -0.1)">
      <defs>
       <path id="DejaVuSans-46" d="M 628 4666 
L 3309 4666 
L 3309 4134 
L 1259 4134 
L 1259 2759 
L 3109 2759 
L 3109 2228 
L 1259 2228 
L 1259 0 
L 628 0 
L 628 4666 
z
" transform="scale(0.015625)"/>
       <path id="DejaVuSans-71" d="M 947 1747 
Q 947 1113 1208 752 
Q 1469 391 1925 391 
Q 2381 391 2643 752 
Q 2906 1113 2906 1747 
Q 2906 2381 2643 2742 
Q 2381 3103 1925 3103 
Q 1469 3103 1208 2742 
Q 947 2381 947 1747 
z
M 2906 525 
Q 2725 213 2448 61 
Q 2172 -91 1784 -91 
Q 1150 -91 751 415 
Q 353 922 353 1747 
Q 353 2572 751 3078 
Q 1150 3584 1784 3584 
Q 2172 3584 2448 3432 
Q 2725 3281 2906 2969 
L 2906 3500 
L 3481 3500 
L 3481 -1331 
L 2906 -1331 
L 2906 525 
z
" transform="scale(0.015625)"/>
       <path id="DejaVuSans-75" d="M 544 1381 
L 544 3500 
L 1119 3500 
L 1119 1403 
Q 1119 906 1312 657 
Q 1506 409 1894 409 
Q 2359 409 2629 706 
Q 2900 1003 2900 1516 
L 2900 3500 
L 3475 3500 
L 3475 0 
L 2900 0 
L 2900 538 
Q 2691 219 2414 64 
Q 2138 -91 1772 -91 
Q 1169 -91 856 284 
Q 544 659 544 1381 
z
M 1991 3584 
L 1991 3584 
z
" transform="scale(0.015625)"/>
       <path id="DejaVuSans-63" d="M 3122 3366 
L 3122 2828 
Q 2878 2963 2633 3030 
Q 2388 3097 2138 3097 
Q 1578 3097 1268 2742 
Q 959 2388 959 1747 
Q 959 1106 1268 751 
Q 1578 397 2138 397 
Q 2388 397 2633 464 
Q 2878 531 3122 666 
L 3122 134 
Q 2881 22 2623 -34 
Q 2366 -91 2075 -91 
Q 1284 -91 818 406 
Q 353 903 353 1747 
Q 353 2603 823 3093 
Q 1294 3584 2113 3584 
Q 2378 3584 2631 3529 
Q 2884 3475 3122 3366 
z
" transform="scale(0.015625)"/>
       <path id="DejaVuSans-79" d="M 2059 -325 
Q 1816 -950 1584 -1140 
Q 1353 -1331 966 -1331 
L 506 -1331 
L 506 -850 
L 844 -850 
Q 1081 -850 1212 -737 
Q 1344 -625 1503 -206 
L 1606 56 
L 191 3500 
L 800 3500 
L 1894 763 
L 2988 3500 
L 3597 3500 
L 2059 -325 
z
" transform="scale(0.015625)"/>
       <path id="DejaVuSans-4d" d="M 628 4666 
L 1569 4666 
L 2759 1491 
L 3956 4666 
L 4897 4666 
L 4897 0 
L 4281 0 
L 4281 4097 
L 3078 897 
L 2444 897 
L 1241 4097 
L 1241 0 
L 628 0 
L 628 4666 
z
" transform="scale(0.015625)"/>
       <path id="DejaVuSans-48" d="M 628 4666 
L 1259 4666 
L 1259 2753 
L 3553 2753 
L 3553 4666 
L 4184 4666 
L 4184 0 
L 3553 0 
L 3553 2222 
L 1259 2222 
L 1259 0 
L 628 0 
L 628 4666 
z
" transform="scale(0.015625)"/>
       <path id="DejaVuSans-7a" d="M 353 3500 
L 3084 3500 
L 3084 2975 
L 922 459 
L 3084 459 
L 3084 0 
L 275 0 
L 275 525 
L 2438 3041 
L 353 3041 
L 353 3500 
z
" transform="scale(0.015625)"/>
      </defs>
      <use xlink:href="#DejaVuSans-46"/>
      <use xlink:href="#DejaVuSans-72" x="50.269531"/>
      <use xlink:href="#DejaVuSans-65" x="89.132812"/>
      <use xlink:href="#DejaVuSans-71" x="150.65625"/>
      <use xlink:href="#DejaVuSans-75" x="214.132812"/>
      <use xlink:href="#DejaVuSans-65" x="277.511719"/>
      <use xlink:href="#DejaVuSans-6e" x="339.035156"/>
      <use xlink:href="#DejaVuSans-63" x="402.414062"/>
      <use xlink:href="#DejaVuSans-79" x="457.394531"/>
      <use xlink:href="#DejaVuSans-20" x="516.574219"/>
      <use xlink:href="#DejaVuSans-5b" x="548.361328"/>
      <use xlink:href="#DejaVuSans-4d" x="587.375"/>
      <use xlink:href="#DejaVuSans-48" x="673.654297"/>
      <use xlink:href="#DejaVuSans-7a" x="748.849609"/>
      <use xlink:href="#DejaVuSans-5d" x="801.339844"/>
     </g>
    </g>
    <g id="text_16">
     <!-- +6 GHz -->
     <g transform="translate(362.893438 335.148562) scale(0.1 -0.1)">
      <defs>
       <path id="DejaVuSans-2b" d="M 2944 4013 
L 2944 2272 
L 4684 2272 
L 4684 1741 
L 2944 1741 
L 2944 0 
L 2419 0 
L 2419 1741 
L 678 1741 
L 678 2272 
L 2419 2272 
L 2419 4013 
L 2944 4013 
z
" transform="scale(0.015625)"/>
       <path id="DejaVuSans-47" d="M 3809 666 
L 3809 1919 
L 2778 1919 
L 2778 2438 
L 4434 2438 
L 4434 434 
Q 4069 175 3628 42 
Q 3188 -91 2688 -91 
Q 1594 -91 976 548 
Q 359 1188 359 2328 
Q 359 3472 976 4111 
Q 1594 4750 2688 4750 
Q 3144 4750 3555 4637 
Q 3966 4525 4313 4306 
L 4313 3634 
Q 3963 3931 3569 4081 
Q 3175 4231 2741 4231 
Q 1884 4231 1454 3753 
Q 1025 3275 1025 2328 
Q 1025 1384 1454 906 
Q 1884 428 2741 428 
Q 3075 428 3337 486 
Q 3600 544 3809 666 
z
" transform="scale(0.015625)"/>
      </defs>
      <use xlink:href="#DejaVuSans-2b"/>
      <use xlink:href="#DejaVuSans-36" x="83.789062"/>
      <use xlink:href="#DejaVuSans-20" x="147.412109"/>
      <use xlink:href="#DejaVuSans-47" x="179.199219"/>
      <use xlink:href="#DejaVuSans-48" x="256.689453"/>
      <use xlink:href="#DejaVuSans-7a" x="331.884766"/>
     </g>
    </g>
   </g>
   <g id="matplotlib.axis_4">
    <g id="ytick_5">
     <g id="line2d_23">
      <g>
       <use xlink:href="#m96579934a8" x="44.210938" y="288.506999" style="stroke: #000000; stroke-width: 0.8"/>
      </g>
     </g>
     <g id="text_17">
      <!-- -5 -->
      <g transform="translate(27.240625 292.306218) scale(0.1 -0.1)">
       <use xlink:href="#DejaVuSans-2d"/>
       <use xlink:href="#DejaVuSans-35" x="36.083984"/>
      </g>
     </g>
    </g>
    <g id="ytick_6">
     <g id="line2d_24">
      <g>
       <use xlink:href="#m96579934a8" x="44.210938" y="257.091598" style="stroke: #000000; stroke-width: 0.8"/>
      </g>
     </g>
     <g id="text_18">
      <!-- 0 -->
      <g transform="translate(30.848437 260.890817) scale(0.1 -0.1)">
       <use xlink:href="#DejaVuSans-30"/>
      </g>
     </g>
    </g>
    <g id="ytick_7">
     <g id="line2d_25">
      <g>
       <use xlink:href="#m96579934a8" x="44.210938" y="225.676198" style="stroke: #000000; stroke-width: 0.8"/>
      </g>
     </g>
     <g id="text_19">
      <!-- 5 -->
      <g transform="translate(30.848437 229.475416) scale(0.1 -0.1)">
       <use xlink:href="#DejaVuSans-35"/>
      </g>
     </g>
    </g>
    <g id="ytick_8">
     <g id="line2d_26">
      <g>
       <use xlink:href="#m96579934a8" x="44.210938" y="194.260797" style="stroke: #000000; stroke-width: 0.8"/>
      </g>
     </g>
     <g id="text_20">
      <!-- 10 -->
      <g transform="translate(24.485937 198.060015) scale(0.1 -0.1)">
       <use xlink:href="#DejaVuSans-31"/>
       <use xlink:href="#DejaVuSans-30" x="63.623047"/>
      </g>
     </g>
    </g>
    <g id="text_21">
     <!-- Im$(S_{21})$ [mV] -->
     <g transform="translate(18.40625 279.042) rotate(-90) scale(0.1 -0.1)">
      <defs>
       <path id="DejaVuSans-49" d="M 628 4666 
L 1259 4666 
L 1259 0 
L 628 0 
L 628 4666 
z
" transform="scale(0.015625)"/>
      </defs>
      <use xlink:href="#DejaVuSans-49" transform="translate(0 0.015625)"/>
      <use xlink:href="#DejaVuSans-6d" transform="translate(25.867188 0.015625)"/>
      <use xlink:href="#DejaVuSans-28" transform="translate(123.279297 0.015625)"/>
      <use xlink:href="#DejaVuSans-Oblique-53" transform="translate(162.292969 0.015625)"/>
      <use xlink:href="#DejaVuSans-32" transform="translate(225.769531 -16.390625) scale(0.7)"/>
      <use xlink:href="#DejaVuSans-31" transform="translate(270.305664 -16.390625) scale(0.7)"/>
      <use xlink:href="#DejaVuSans-29" transform="translate(317.576172 0.015625)"/>
      <use xlink:href="#DejaVuSans-20" transform="translate(356.589844 0.015625)"/>
      <use xlink:href="#DejaVuSans-5b" transform="translate(388.376953 0.015625)"/>
      <use xlink:href="#DejaVuSans-6d" transform="translate(427.390625 0.015625)"/>
      <use xlink:href="#DejaVuSans-56" transform="translate(524.802734 0.015625)"/>
      <use xlink:href="#DejaVuSans-5d" transform="translate(593.210938 0.015625)"/>
     </g>
    </g>
   </g>
   <g id="line2d_27">
    <path d="M 60.443665 238.173207 
L 62.075095 239.595544 
L 63.706525 237.542567 
L 68.600814 235.774253 
L 70.232244 235.68863 
L 71.863674 235.230306 
L 73.495104 234.969283 
L 75.126534 235.157697 
L 76.757964 233.063794 
L 78.389393 233.566843 
L 80.020823 232.109917 
L 81.652253 232.03617 
L 84.915113 230.657391 
L 86.546543 231.020693 
L 88.177973 230.303045 
L 89.809403 228.256643 
L 93.072262 228.054437 
L 94.703692 227.718589 
L 96.335122 226.232934 
L 97.966552 226.661778 
L 99.597982 225.580698 
L 101.229412 225.403668 
L 106.123701 222.721625 
L 107.755131 223.055877 
L 109.386561 221.813101 
L 112.649421 220.715971 
L 114.280851 220.655265 
L 115.912281 219.014018 
L 117.54371 218.006461 
L 119.17514 218.033833 
L 120.80657 217.581634 
L 122.438 217.418075 
L 124.06943 215.423219 
L 125.70086 216.045565 
L 127.33229 215.092009 
L 128.96372 214.947795 
L 130.595149 213.601606 
L 132.226579 213.355549 
L 133.858009 213.364191 
L 135.489439 212.182339 
L 138.752299 210.422927 
L 142.015159 209.512799 
L 143.646588 209.915048 
L 145.278018 208.520677 
L 146.909448 207.306474 
L 148.540878 206.361948 
L 150.172308 207.569256 
L 151.803738 206.202025 
L 155.066598 204.522322 
L 156.698027 204.720572 
L 158.329457 203.521715 
L 159.960887 205.691119 
L 161.592317 204.613831 
L 163.223747 203.221486 
L 164.855177 205.35081 
L 166.486607 204.993722 
L 168.118037 205.513973 
L 169.749467 206.521258 
L 171.380896 207.958034 
L 173.012326 208.800123 
L 176.275186 213.436656 
L 177.906616 214.999327 
L 179.538046 218.130533 
L 184.432335 228.924287 
L 186.063765 233.559136 
L 187.695195 236.683023 
L 189.326625 240.918951 
L 190.958055 243.274859 
L 192.589485 248.180374 
L 194.220915 251.426315 
L 197.483774 255.228542 
L 199.115204 255.987641 
L 200.746634 257.600738 
L 202.378064 256.774474 
L 204.009494 257.929499 
L 205.640924 258.648607 
L 207.272354 256.852921 
L 208.903784 255.539091 
L 212.166643 254.046977 
L 213.798073 252.345624 
L 215.429503 248.674849 
L 217.060933 249.435524 
L 218.692363 247.889333 
L 220.323793 245.755043 
L 223.586652 240.830054 
L 225.218082 241.397854 
L 228.480942 237.475101 
L 230.112372 237.236649 
L 231.743802 233.641573 
L 233.375232 231.518852 
L 235.006662 230.094121 
L 236.638091 230.266287 
L 238.269521 229.349803 
L 239.900951 227.28542 
L 241.532381 225.415073 
L 243.163811 225.868991 
L 246.426671 221.306219 
L 248.058101 220.165844 
L 249.68953 220.119346 
L 251.32096 219.207548 
L 252.95239 216.821225 
L 254.58382 216.807481 
L 256.21525 214.980058 
L 257.84668 214.994081 
L 259.47811 214.108571 
L 261.10954 212.799904 
L 262.740969 212.583654 
L 264.372399 208.234281 
L 266.003829 207.75501 
L 267.635259 206.626982 
L 269.266689 206.653679 
L 270.898119 204.600524 
L 272.529549 204.835027 
L 274.160979 202.996553 
L 275.792408 200.143094 
L 277.423838 200.48195 
L 279.055268 202.112106 
L 280.686698 198.637719 
L 282.318128 198.292015 
L 285.580988 196.891512 
L 287.212418 195.227442 
L 288.843848 197.743109 
L 290.475277 197.554559 
L 292.106707 192.410182 
L 293.738137 197.100962 
L 295.369567 197.105027 
L 297.000997 194.50182 
L 298.632427 196.876452 
L 300.263857 198.028387 
L 301.895287 196.559211 
L 303.526716 198.207511 
L 305.158146 207.059966 
L 306.789576 204.39651 
L 308.421006 205.727522 
L 310.052436 214.767886 
L 311.683866 219.810618 
L 313.315296 225.717826 
L 314.946726 233.694851 
L 316.578155 234.723506 
L 318.209585 242.800546 
L 319.841015 242.369506 
L 321.472445 260.175659 
L 323.103875 262.259433 
L 324.735305 263.221986 
L 326.366735 263.142277 
L 327.998165 261.114659 
L 329.629594 268.988525 
L 331.261024 250.098625 
L 332.892454 274.820089 
L 334.523884 273.236478 
L 336.155314 248.713306 
L 337.786744 242.880692 
L 339.418174 264.251309 
L 341.049604 295.12075 
L 342.681033 282.417237 
L 344.312463 229.158142 
L 345.943893 290.246774 
L 347.575323 254.025859 
L 349.206753 238.507036 
L 350.838183 244.308676 
L 352.469613 258.332267 
L 354.101043 270.676393 
L 355.732472 266.940793 
L 357.363902 270.205028 
L 358.995332 281.103394 
L 360.626762 279.175205 
L 362.258192 278.256415 
L 363.889622 282.606729 
L 367.152482 302.304804 
L 368.783911 297.58009 
L 370.415341 300.777357 
L 372.046771 302.373818 
L 373.678201 299.880005 
L 375.309631 295.966502 
L 376.941061 294.716952 
L 378.572491 296.59659 
L 380.203921 295.174219 
L 381.83535 285.932856 
L 383.46678 287.293989 
L 385.09821 283.299747 
L 385.09821 283.299747 
" clip-path="url(#p70fd1891dd)" style="fill: none; stroke: #1f77b4; stroke-width: 1.5; stroke-linecap: square"/>
    <g clip-path="url(#p70fd1891dd)">
     <use xlink:href="#mbac89d517c" x="60.443665" y="238.173207" style="fill: #1f77b4; stroke: #1f77b4"/>
     <use xlink:href="#mbac89d517c" x="62.075095" y="239.595544" style="fill: #1f77b4; stroke: #1f77b4"/>
     <use xlink:href="#mbac89d517c" x="63.706525" y="237.542567" style="fill: #1f77b4; stroke: #1f77b4"/>
     <use xlink:href="#mbac89d517c" x="65.337954" y="236.944707" style="fill: #1f77b4; stroke: #1f77b4"/>
     <use xlink:href="#mbac89d517c" x="66.969384" y="236.360858" style="fill: #1f77b4; stroke: #1f77b4"/>
     <use xlink:href="#mbac89d517c" x="68.600814" y="235.774253" style="fill: #1f77b4; stroke: #1f77b4"/>
     <use xlink:href="#mbac89d517c" x="70.232244" y="235.68863" style="fill: #1f77b4; stroke: #1f77b4"/>
     <use xlink:href="#mbac89d517c" x="71.863674" y="235.230306" style="fill: #1f77b4; stroke: #1f77b4"/>
     <use xlink:href="#mbac89d517c" x="73.495104" y="234.969283" style="fill: #1f77b4; stroke: #1f77b4"/>
     <use xlink:href="#mbac89d517c" x="75.126534" y="235.157697" style="fill: #1f77b4; stroke: #1f77b4"/>
     <use xlink:href="#mbac89d517c" x="76.757964" y="233.063794" style="fill: #1f77b4; stroke: #1f77b4"/>
     <use xlink:href="#mbac89d517c" x="78.389393" y="233.566843" style="fill: #1f77b4; stroke: #1f77b4"/>
     <use xlink:href="#mbac89d517c" x="80.020823" y="232.109917" style="fill: #1f77b4; stroke: #1f77b4"/>
     <use xlink:href="#mbac89d517c" x="81.652253" y="232.03617" style="fill: #1f77b4; stroke: #1f77b4"/>
     <use xlink:href="#mbac89d517c" x="83.283683" y="231.357885" style="fill: #1f77b4; stroke: #1f77b4"/>
     <use xlink:href="#mbac89d517c" x="84.915113" y="230.657391" style="fill: #1f77b4; stroke: #1f77b4"/>
     <use xlink:href="#mbac89d517c" x="86.546543" y="231.020693" style="fill: #1f77b4; stroke: #1f77b4"/>
     <use xlink:href="#mbac89d517c" x="88.177973" y="230.303045" style="fill: #1f77b4; stroke: #1f77b4"/>
     <use xlink:href="#mbac89d517c" x="89.809403" y="228.256643" style="fill: #1f77b4; stroke: #1f77b4"/>
     <use xlink:href="#mbac89d517c" x="91.440832" y="228.160366" style="fill: #1f77b4; stroke: #1f77b4"/>
     <use xlink:href="#mbac89d517c" x="93.072262" y="228.054437" style="fill: #1f77b4; stroke: #1f77b4"/>
     <use xlink:href="#mbac89d517c" x="94.703692" y="227.718589" style="fill: #1f77b4; stroke: #1f77b4"/>
     <use xlink:href="#mbac89d517c" x="96.335122" y="226.232934" style="fill: #1f77b4; stroke: #1f77b4"/>
     <use xlink:href="#mbac89d517c" x="97.966552" y="226.661778" style="fill: #1f77b4; stroke: #1f77b4"/>
     <use xlink:href="#mbac89d517c" x="99.597982" y="225.580698" style="fill: #1f77b4; stroke: #1f77b4"/>
     <use xlink:href="#mbac89d517c" x="101.229412" y="225.403668" style="fill: #1f77b4; stroke: #1f77b4"/>
     <use xlink:href="#mbac89d517c" x="102.860842" y="224.547399" style="fill: #1f77b4; stroke: #1f77b4"/>
     <use xlink:href="#mbac89d517c" x="104.492271" y="223.711073" style="fill: #1f77b4; stroke: #1f77b4"/>
     <use xlink:href="#mbac89d517c" x="106.123701" y="222.721625" style="fill: #1f77b4; stroke: #1f77b4"/>
     <use xlink:href="#mbac89d517c" x="107.755131" y="223.055877" style="fill: #1f77b4; stroke: #1f77b4"/>
     <use xlink:href="#mbac89d517c" x="109.386561" y="221.813101" style="fill: #1f77b4; stroke: #1f77b4"/>
     <use xlink:href="#mbac89d517c" x="111.017991" y="221.317487" style="fill: #1f77b4; stroke: #1f77b4"/>
     <use xlink:href="#mbac89d517c" x="112.649421" y="220.715971" style="fill: #1f77b4; stroke: #1f77b4"/>
     <use xlink:href="#mbac89d517c" x="114.280851" y="220.655265" style="fill: #1f77b4; stroke: #1f77b4"/>
     <use xlink:href="#mbac89d517c" x="115.912281" y="219.014018" style="fill: #1f77b4; stroke: #1f77b4"/>
     <use xlink:href="#mbac89d517c" x="117.54371" y="218.006461" style="fill: #1f77b4; stroke: #1f77b4"/>
     <use xlink:href="#mbac89d517c" x="119.17514" y="218.033833" style="fill: #1f77b4; stroke: #1f77b4"/>
     <use xlink:href="#mbac89d517c" x="120.80657" y="217.581634" style="fill: #1f77b4; stroke: #1f77b4"/>
     <use xlink:href="#mbac89d517c" x="122.438" y="217.418075" style="fill: #1f77b4; stroke: #1f77b4"/>
     <use xlink:href="#mbac89d517c" x="124.06943" y="215.423219" style="fill: #1f77b4; stroke: #1f77b4"/>
     <use xlink:href="#mbac89d517c" x="125.70086" y="216.045565" style="fill: #1f77b4; stroke: #1f77b4"/>
     <use xlink:href="#mbac89d517c" x="127.33229" y="215.092009" style="fill: #1f77b4; stroke: #1f77b4"/>
     <use xlink:href="#mbac89d517c" x="128.96372" y="214.947795" style="fill: #1f77b4; stroke: #1f77b4"/>
     <use xlink:href="#mbac89d517c" x="130.595149" y="213.601606" style="fill: #1f77b4; stroke: #1f77b4"/>
     <use xlink:href="#mbac89d517c" x="132.226579" y="213.355549" style="fill: #1f77b4; stroke: #1f77b4"/>
     <use xlink:href="#mbac89d517c" x="133.858009" y="213.364191" style="fill: #1f77b4; stroke: #1f77b4"/>
     <use xlink:href="#mbac89d517c" x="135.489439" y="212.182339" style="fill: #1f77b4; stroke: #1f77b4"/>
     <use xlink:href="#mbac89d517c" x="137.120869" y="211.26196" style="fill: #1f77b4; stroke: #1f77b4"/>
     <use xlink:href="#mbac89d517c" x="138.752299" y="210.422927" style="fill: #1f77b4; stroke: #1f77b4"/>
     <use xlink:href="#mbac89d517c" x="140.383729" y="210.022621" style="fill: #1f77b4; stroke: #1f77b4"/>
     <use xlink:href="#mbac89d517c" x="142.015159" y="209.512799" style="fill: #1f77b4; stroke: #1f77b4"/>
     <use xlink:href="#mbac89d517c" x="143.646588" y="209.915048" style="fill: #1f77b4; stroke: #1f77b4"/>
     <use xlink:href="#mbac89d517c" x="145.278018" y="208.520677" style="fill: #1f77b4; stroke: #1f77b4"/>
     <use xlink:href="#mbac89d517c" x="146.909448" y="207.306474" style="fill: #1f77b4; stroke: #1f77b4"/>
     <use xlink:href="#mbac89d517c" x="148.540878" y="206.361948" style="fill: #1f77b4; stroke: #1f77b4"/>
     <use xlink:href="#mbac89d517c" x="150.172308" y="207.569256" style="fill: #1f77b4; stroke: #1f77b4"/>
     <use xlink:href="#mbac89d517c" x="151.803738" y="206.202025" style="fill: #1f77b4; stroke: #1f77b4"/>
     <use xlink:href="#mbac89d517c" x="153.435168" y="205.335033" style="fill: #1f77b4; stroke: #1f77b4"/>
     <use xlink:href="#mbac89d517c" x="155.066598" y="204.522322" style="fill: #1f77b4; stroke: #1f77b4"/>
     <use xlink:href="#mbac89d517c" x="156.698027" y="204.720572" style="fill: #1f77b4; stroke: #1f77b4"/>
     <use xlink:href="#mbac89d517c" x="158.329457" y="203.521715" style="fill: #1f77b4; stroke: #1f77b4"/>
     <use xlink:href="#mbac89d517c" x="159.960887" y="205.691119" style="fill: #1f77b4; stroke: #1f77b4"/>
     <use xlink:href="#mbac89d517c" x="161.592317" y="204.613831" style="fill: #1f77b4; stroke: #1f77b4"/>
     <use xlink:href="#mbac89d517c" x="163.223747" y="203.221486" style="fill: #1f77b4; stroke: #1f77b4"/>
     <use xlink:href="#mbac89d517c" x="164.855177" y="205.35081" style="fill: #1f77b4; stroke: #1f77b4"/>
     <use xlink:href="#mbac89d517c" x="166.486607" y="204.993722" style="fill: #1f77b4; stroke: #1f77b4"/>
     <use xlink:href="#mbac89d517c" x="168.118037" y="205.513973" style="fill: #1f77b4; stroke: #1f77b4"/>
     <use xlink:href="#mbac89d517c" x="169.749467" y="206.521258" style="fill: #1f77b4; stroke: #1f77b4"/>
     <use xlink:href="#mbac89d517c" x="171.380896" y="207.958034" style="fill: #1f77b4; stroke: #1f77b4"/>
     <use xlink:href="#mbac89d517c" x="173.012326" y="208.800123" style="fill: #1f77b4; stroke: #1f77b4"/>
     <use xlink:href="#mbac89d517c" x="174.643756" y="211.130937" style="fill: #1f77b4; stroke: #1f77b4"/>
     <use xlink:href="#mbac89d517c" x="176.275186" y="213.436656" style="fill: #1f77b4; stroke: #1f77b4"/>
     <use xlink:href="#mbac89d517c" x="177.906616" y="214.999327" style="fill: #1f77b4; stroke: #1f77b4"/>
     <use xlink:href="#mbac89d517c" x="179.538046" y="218.130533" style="fill: #1f77b4; stroke: #1f77b4"/>
     <use xlink:href="#mbac89d517c" x="181.169476" y="221.782489" style="fill: #1f77b4; stroke: #1f77b4"/>
     <use xlink:href="#mbac89d517c" x="182.800906" y="225.386561" style="fill: #1f77b4; stroke: #1f77b4"/>
     <use xlink:href="#mbac89d517c" x="184.432335" y="228.924287" style="fill: #1f77b4; stroke: #1f77b4"/>
     <use xlink:href="#mbac89d517c" x="186.063765" y="233.559136" style="fill: #1f77b4; stroke: #1f77b4"/>
     <use xlink:href="#mbac89d517c" x="187.695195" y="236.683023" style="fill: #1f77b4; stroke: #1f77b4"/>
     <use xlink:href="#mbac89d517c" x="189.326625" y="240.918951" style="fill: #1f77b4; stroke: #1f77b4"/>
     <use xlink:href="#mbac89d517c" x="190.958055" y="243.274859" style="fill: #1f77b4; stroke: #1f77b4"/>
     <use xlink:href="#mbac89d517c" x="192.589485" y="248.180374" style="fill: #1f77b4; stroke: #1f77b4"/>
     <use xlink:href="#mbac89d517c" x="194.220915" y="251.426315" style="fill: #1f77b4; stroke: #1f77b4"/>
     <use xlink:href="#mbac89d517c" x="195.852345" y="253.283744" style="fill: #1f77b4; stroke: #1f77b4"/>
     <use xlink:href="#mbac89d517c" x="197.483774" y="255.228542" style="fill: #1f77b4; stroke: #1f77b4"/>
     <use xlink:href="#mbac89d517c" x="199.115204" y="255.987641" style="fill: #1f77b4; stroke: #1f77b4"/>
     <use xlink:href="#mbac89d517c" x="200.746634" y="257.600738" style="fill: #1f77b4; stroke: #1f77b4"/>
     <use xlink:href="#mbac89d517c" x="202.378064" y="256.774474" style="fill: #1f77b4; stroke: #1f77b4"/>
     <use xlink:href="#mbac89d517c" x="204.009494" y="257.929499" style="fill: #1f77b4; stroke: #1f77b4"/>
     <use xlink:href="#mbac89d517c" x="205.640924" y="258.648607" style="fill: #1f77b4; stroke: #1f77b4"/>
     <use xlink:href="#mbac89d517c" x="207.272354" y="256.852921" style="fill: #1f77b4; stroke: #1f77b4"/>
     <use xlink:href="#mbac89d517c" x="208.903784" y="255.539091" style="fill: #1f77b4; stroke: #1f77b4"/>
     <use xlink:href="#mbac89d517c" x="210.535213" y="254.795251" style="fill: #1f77b4; stroke: #1f77b4"/>
     <use xlink:href="#mbac89d517c" x="212.166643" y="254.046977" style="fill: #1f77b4; stroke: #1f77b4"/>
     <use xlink:href="#mbac89d517c" x="213.798073" y="252.345624" style="fill: #1f77b4; stroke: #1f77b4"/>
     <use xlink:href="#mbac89d517c" x="215.429503" y="248.674849" style="fill: #1f77b4; stroke: #1f77b4"/>
     <use xlink:href="#mbac89d517c" x="217.060933" y="249.435524" style="fill: #1f77b4; stroke: #1f77b4"/>
     <use xlink:href="#mbac89d517c" x="218.692363" y="247.889333" style="fill: #1f77b4; stroke: #1f77b4"/>
     <use xlink:href="#mbac89d517c" x="220.323793" y="245.755043" style="fill: #1f77b4; stroke: #1f77b4"/>
     <use xlink:href="#mbac89d517c" x="221.955223" y="243.28406" style="fill: #1f77b4; stroke: #1f77b4"/>
     <use xlink:href="#mbac89d517c" x="223.586652" y="240.830054" style="fill: #1f77b4; stroke: #1f77b4"/>
     <use xlink:href="#mbac89d517c" x="225.218082" y="241.397854" style="fill: #1f77b4; stroke: #1f77b4"/>
     <use xlink:href="#mbac89d517c" x="226.849512" y="239.520651" style="fill: #1f77b4; stroke: #1f77b4"/>
     <use xlink:href="#mbac89d517c" x="228.480942" y="237.475101" style="fill: #1f77b4; stroke: #1f77b4"/>
     <use xlink:href="#mbac89d517c" x="230.112372" y="237.236649" style="fill: #1f77b4; stroke: #1f77b4"/>
     <use xlink:href="#mbac89d517c" x="231.743802" y="233.641573" style="fill: #1f77b4; stroke: #1f77b4"/>
     <use xlink:href="#mbac89d517c" x="233.375232" y="231.518852" style="fill: #1f77b4; stroke: #1f77b4"/>
     <use xlink:href="#mbac89d517c" x="235.006662" y="230.094121" style="fill: #1f77b4; stroke: #1f77b4"/>
     <use xlink:href="#mbac89d517c" x="236.638091" y="230.266287" style="fill: #1f77b4; stroke: #1f77b4"/>
     <use xlink:href="#mbac89d517c" x="238.269521" y="229.349803" style="fill: #1f77b4; stroke: #1f77b4"/>
     <use xlink:href="#mbac89d517c" x="239.900951" y="227.28542" style="fill: #1f77b4; stroke: #1f77b4"/>
     <use xlink:href="#mbac89d517c" x="241.532381" y="225.415073" style="fill: #1f77b4; stroke: #1f77b4"/>
     <use xlink:href="#mbac89d517c" x="243.163811" y="225.868991" style="fill: #1f77b4; stroke: #1f77b4"/>
     <use xlink:href="#mbac89d517c" x="244.795241" y="223.520756" style="fill: #1f77b4; stroke: #1f77b4"/>
     <use xlink:href="#mbac89d517c" x="246.426671" y="221.306219" style="fill: #1f77b4; stroke: #1f77b4"/>
     <use xlink:href="#mbac89d517c" x="248.058101" y="220.165844" style="fill: #1f77b4; stroke: #1f77b4"/>
     <use xlink:href="#mbac89d517c" x="249.68953" y="220.119346" style="fill: #1f77b4; stroke: #1f77b4"/>
     <use xlink:href="#mbac89d517c" x="251.32096" y="219.207548" style="fill: #1f77b4; stroke: #1f77b4"/>
     <use xlink:href="#mbac89d517c" x="252.95239" y="216.821225" style="fill: #1f77b4; stroke: #1f77b4"/>
     <use xlink:href="#mbac89d517c" x="254.58382" y="216.807481" style="fill: #1f77b4; stroke: #1f77b4"/>
     <use xlink:href="#mbac89d517c" x="256.21525" y="214.980058" style="fill: #1f77b4; stroke: #1f77b4"/>
     <use xlink:href="#mbac89d517c" x="257.84668" y="214.994081" style="fill: #1f77b4; stroke: #1f77b4"/>
     <use xlink:href="#mbac89d517c" x="259.47811" y="214.108571" style="fill: #1f77b4; stroke: #1f77b4"/>
     <use xlink:href="#mbac89d517c" x="261.10954" y="212.799904" style="fill: #1f77b4; stroke: #1f77b4"/>
     <use xlink:href="#mbac89d517c" x="262.740969" y="212.583654" style="fill: #1f77b4; stroke: #1f77b4"/>
     <use xlink:href="#mbac89d517c" x="264.372399" y="208.234281" style="fill: #1f77b4; stroke: #1f77b4"/>
     <use xlink:href="#mbac89d517c" x="266.003829" y="207.75501" style="fill: #1f77b4; stroke: #1f77b4"/>
     <use xlink:href="#mbac89d517c" x="267.635259" y="206.626982" style="fill: #1f77b4; stroke: #1f77b4"/>
     <use xlink:href="#mbac89d517c" x="269.266689" y="206.653679" style="fill: #1f77b4; stroke: #1f77b4"/>
     <use xlink:href="#mbac89d517c" x="270.898119" y="204.600524" style="fill: #1f77b4; stroke: #1f77b4"/>
     <use xlink:href="#mbac89d517c" x="272.529549" y="204.835027" style="fill: #1f77b4; stroke: #1f77b4"/>
     <use xlink:href="#mbac89d517c" x="274.160979" y="202.996553" style="fill: #1f77b4; stroke: #1f77b4"/>
     <use xlink:href="#mbac89d517c" x="275.792408" y="200.143094" style="fill: #1f77b4; stroke: #1f77b4"/>
     <use xlink:href="#mbac89d517c" x="277.423838" y="200.48195" style="fill: #1f77b4; stroke: #1f77b4"/>
     <use xlink:href="#mbac89d517c" x="279.055268" y="202.112106" style="fill: #1f77b4; stroke: #1f77b4"/>
     <use xlink:href="#mbac89d517c" x="280.686698" y="198.637719" style="fill: #1f77b4; stroke: #1f77b4"/>
     <use xlink:href="#mbac89d517c" x="282.318128" y="198.292015" style="fill: #1f77b4; stroke: #1f77b4"/>
     <use xlink:href="#mbac89d517c" x="283.949558" y="197.619712" style="fill: #1f77b4; stroke: #1f77b4"/>
     <use xlink:href="#mbac89d517c" x="285.580988" y="196.891512" style="fill: #1f77b4; stroke: #1f77b4"/>
     <use xlink:href="#mbac89d517c" x="287.212418" y="195.227442" style="fill: #1f77b4; stroke: #1f77b4"/>
     <use xlink:href="#mbac89d517c" x="288.843848" y="197.743109" style="fill: #1f77b4; stroke: #1f77b4"/>
     <use xlink:href="#mbac89d517c" x="290.475277" y="197.554559" style="fill: #1f77b4; stroke: #1f77b4"/>
     <use xlink:href="#mbac89d517c" x="292.106707" y="192.410182" style="fill: #1f77b4; stroke: #1f77b4"/>
     <use xlink:href="#mbac89d517c" x="293.738137" y="197.100962" style="fill: #1f77b4; stroke: #1f77b4"/>
     <use xlink:href="#mbac89d517c" x="295.369567" y="197.105027" style="fill: #1f77b4; stroke: #1f77b4"/>
     <use xlink:href="#mbac89d517c" x="297.000997" y="194.50182" style="fill: #1f77b4; stroke: #1f77b4"/>
     <use xlink:href="#mbac89d517c" x="298.632427" y="196.876452" style="fill: #1f77b4; stroke: #1f77b4"/>
     <use xlink:href="#mbac89d517c" x="300.263857" y="198.028387" style="fill: #1f77b4; stroke: #1f77b4"/>
     <use xlink:href="#mbac89d517c" x="301.895287" y="196.559211" style="fill: #1f77b4; stroke: #1f77b4"/>
     <use xlink:href="#mbac89d517c" x="303.526716" y="198.207511" style="fill: #1f77b4; stroke: #1f77b4"/>
     <use xlink:href="#mbac89d517c" x="305.158146" y="207.059966" style="fill: #1f77b4; stroke: #1f77b4"/>
     <use xlink:href="#mbac89d517c" x="306.789576" y="204.39651" style="fill: #1f77b4; stroke: #1f77b4"/>
     <use xlink:href="#mbac89d517c" x="308.421006" y="205.727522" style="fill: #1f77b4; stroke: #1f77b4"/>
     <use xlink:href="#mbac89d517c" x="310.052436" y="214.767886" style="fill: #1f77b4; stroke: #1f77b4"/>
     <use xlink:href="#mbac89d517c" x="311.683866" y="219.810618" style="fill: #1f77b4; stroke: #1f77b4"/>
     <use xlink:href="#mbac89d517c" x="313.315296" y="225.717826" style="fill: #1f77b4; stroke: #1f77b4"/>
     <use xlink:href="#mbac89d517c" x="314.946726" y="233.694851" style="fill: #1f77b4; stroke: #1f77b4"/>
     <use xlink:href="#mbac89d517c" x="316.578155" y="234.723506" style="fill: #1f77b4; stroke: #1f77b4"/>
     <use xlink:href="#mbac89d517c" x="318.209585" y="242.800546" style="fill: #1f77b4; stroke: #1f77b4"/>
     <use xlink:href="#mbac89d517c" x="319.841015" y="242.369506" style="fill: #1f77b4; stroke: #1f77b4"/>
     <use xlink:href="#mbac89d517c" x="321.472445" y="260.175659" style="fill: #1f77b4; stroke: #1f77b4"/>
     <use xlink:href="#mbac89d517c" x="323.103875" y="262.259433" style="fill: #1f77b4; stroke: #1f77b4"/>
     <use xlink:href="#mbac89d517c" x="324.735305" y="263.221986" style="fill: #1f77b4; stroke: #1f77b4"/>
     <use xlink:href="#mbac89d517c" x="326.366735" y="263.142277" style="fill: #1f77b4; stroke: #1f77b4"/>
     <use xlink:href="#mbac89d517c" x="327.998165" y="261.114659" style="fill: #1f77b4; stroke: #1f77b4"/>
     <use xlink:href="#mbac89d517c" x="329.629594" y="268.988525" style="fill: #1f77b4; stroke: #1f77b4"/>
     <use xlink:href="#mbac89d517c" x="331.261024" y="250.098625" style="fill: #1f77b4; stroke: #1f77b4"/>
     <use xlink:href="#mbac89d517c" x="332.892454" y="274.820089" style="fill: #1f77b4; stroke: #1f77b4"/>
     <use xlink:href="#mbac89d517c" x="334.523884" y="273.236478" style="fill: #1f77b4; stroke: #1f77b4"/>
     <use xlink:href="#mbac89d517c" x="336.155314" y="248.713306" style="fill: #1f77b4; stroke: #1f77b4"/>
     <use xlink:href="#mbac89d517c" x="337.786744" y="242.880692" style="fill: #1f77b4; stroke: #1f77b4"/>
     <use xlink:href="#mbac89d517c" x="339.418174" y="264.251309" style="fill: #1f77b4; stroke: #1f77b4"/>
     <use xlink:href="#mbac89d517c" x="341.049604" y="295.12075" style="fill: #1f77b4; stroke: #1f77b4"/>
     <use xlink:href="#mbac89d517c" x="342.681033" y="282.417237" style="fill: #1f77b4; stroke: #1f77b4"/>
     <use xlink:href="#mbac89d517c" x="344.312463" y="229.158142" style="fill: #1f77b4; stroke: #1f77b4"/>
     <use xlink:href="#mbac89d517c" x="345.943893" y="290.246774" style="fill: #1f77b4; stroke: #1f77b4"/>
     <use xlink:href="#mbac89d517c" x="347.575323" y="254.025859" style="fill: #1f77b4; stroke: #1f77b4"/>
     <use xlink:href="#mbac89d517c" x="349.206753" y="238.507036" style="fill: #1f77b4; stroke: #1f77b4"/>
     <use xlink:href="#mbac89d517c" x="350.838183" y="244.308676" style="fill: #1f77b4; stroke: #1f77b4"/>
     <use xlink:href="#mbac89d517c" x="352.469613" y="258.332267" style="fill: #1f77b4; stroke: #1f77b4"/>
     <use xlink:href="#mbac89d517c" x="354.101043" y="270.676393" style="fill: #1f77b4; stroke: #1f77b4"/>
     <use xlink:href="#mbac89d517c" x="355.732472" y="266.940793" style="fill: #1f77b4; stroke: #1f77b4"/>
     <use xlink:href="#mbac89d517c" x="357.363902" y="270.205028" style="fill: #1f77b4; stroke: #1f77b4"/>
     <use xlink:href="#mbac89d517c" x="358.995332" y="281.103394" style="fill: #1f77b4; stroke: #1f77b4"/>
     <use xlink:href="#mbac89d517c" x="360.626762" y="279.175205" style="fill: #1f77b4; stroke: #1f77b4"/>
     <use xlink:href="#mbac89d517c" x="362.258192" y="278.256415" style="fill: #1f77b4; stroke: #1f77b4"/>
     <use xlink:href="#mbac89d517c" x="363.889622" y="282.606729" style="fill: #1f77b4; stroke: #1f77b4"/>
     <use xlink:href="#mbac89d517c" x="365.521052" y="292.518464" style="fill: #1f77b4; stroke: #1f77b4"/>
     <use xlink:href="#mbac89d517c" x="367.152482" y="302.304804" style="fill: #1f77b4; stroke: #1f77b4"/>
     <use xlink:href="#mbac89d517c" x="368.783911" y="297.58009" style="fill: #1f77b4; stroke: #1f77b4"/>
     <use xlink:href="#mbac89d517c" x="370.415341" y="300.777357" style="fill: #1f77b4; stroke: #1f77b4"/>
     <use xlink:href="#mbac89d517c" x="372.046771" y="302.373818" style="fill: #1f77b4; stroke: #1f77b4"/>
     <use xlink:href="#mbac89d517c" x="373.678201" y="299.880005" style="fill: #1f77b4; stroke: #1f77b4"/>
     <use xlink:href="#mbac89d517c" x="375.309631" y="295.966502" style="fill: #1f77b4; stroke: #1f77b4"/>
     <use xlink:href="#mbac89d517c" x="376.941061" y="294.716952" style="fill: #1f77b4; stroke: #1f77b4"/>
     <use xlink:href="#mbac89d517c" x="378.572491" y="296.59659" style="fill: #1f77b4; stroke: #1f77b4"/>
     <use xlink:href="#mbac89d517c" x="380.203921" y="295.174219" style="fill: #1f77b4; stroke: #1f77b4"/>
     <use xlink:href="#mbac89d517c" x="381.83535" y="285.932856" style="fill: #1f77b4; stroke: #1f77b4"/>
     <use xlink:href="#mbac89d517c" x="383.46678" y="287.293989" style="fill: #1f77b4; stroke: #1f77b4"/>
     <use xlink:href="#mbac89d517c" x="385.09821" y="283.299747" style="fill: #1f77b4; stroke: #1f77b4"/>
    </g>
   </g>
   <g id="line2d_28">
    <path d="M 60.443665 275.341713 
L 66.618276 274.116962 
L 73.117866 272.598876 
L 79.942436 270.775226 
L 87.416965 268.5409 
L 95.541453 265.878318 
L 105.290839 262.441696 
L 119.914918 257.019349 
L 137.138833 250.686793 
L 146.563239 247.45607 
L 154.687727 244.898582 
L 162.162256 242.782437 
L 168.986826 241.082524 
L 175.486417 239.69427 
L 181.661028 238.601738 
L 187.510659 237.782682 
L 193.36029 237.183016 
L 199.209922 236.809278 
L 205.059553 236.665412 
L 210.909185 236.752717 
L 216.758816 237.069822 
L 222.608448 237.612695 
L 228.458079 238.374668 
L 234.63269 239.406425 
L 241.132281 240.72978 
L 247.956851 242.359938 
L 255.1064 244.303217 
L 262.905909 246.656857 
L 272.005336 249.643458 
L 284.354557 253.952911 
L 303.853329 260.765418 
L 311.977817 263.362402 
L 318.477408 265.223739 
L 324.00206 266.583963 
L 328.551773 267.488209 
L 332.451527 268.044249 
L 335.701322 268.28751 
L 338.301159 268.275255 
L 340.576015 268.047032 
L 342.525892 267.618213 
L 344.15079 267.023481 
L 345.450708 266.326974 
L 346.750626 265.352847 
L 347.725565 264.369408 
L 348.700503 263.084877 
L 349.675442 261.383043 
L 350.650381 259.088243 
L 351.625319 255.938727 
L 352.600258 251.592553 
L 353.575196 245.916784 
L 354.225155 242.104966 
L 354.550135 240.840072 
L 354.875114 240.642521 
L 355.200094 242.183543 
L 355.525073 246.0634 
L 356.175033 260.471554 
L 356.824992 276.476667 
L 357.474951 286.551117 
L 357.79993 289.267454 
L 358.12491 290.894977 
L 358.449889 291.764763 
L 358.774869 292.130111 
L 359.099848 292.170082 
L 359.749807 291.718708 
L 361.049725 290.146628 
L 362.674623 288.291647 
L 363.974541 287.119015 
L 365.599439 285.985591 
L 367.224336 285.123483 
L 369.174214 284.334097 
L 371.77405 283.549835 
L 375.023845 282.82207 
L 379.898538 281.984235 
L 385.09821 281.20418 
L 385.09821 281.20418 
" clip-path="url(#p70fd1891dd)" style="fill: none; stroke: #d62728; stroke-width: 1.5; stroke-linecap: square"/>
   </g>
   <g id="patch_9">
    <path d="M 44.210938 307.872 
L 44.210938 186.912 
" style="fill: none; stroke: #000000; stroke-width: 0.8; stroke-linejoin: miter; stroke-linecap: square"/>
   </g>
   <g id="patch_10">
    <path d="M 401.330938 307.872 
L 401.330938 186.912 
" style="fill: none; stroke: #000000; stroke-width: 0.8; stroke-linejoin: miter; stroke-linecap: square"/>
   </g>
   <g id="patch_11">
    <path d="M 44.210938 307.872 
L 401.330937 307.872 
" style="fill: none; stroke: #000000; stroke-width: 0.8; stroke-linejoin: miter; stroke-linecap: square"/>
   </g>
   <g id="patch_12">
    <path d="M 44.210938 186.912 
L 401.330937 186.912 
" style="fill: none; stroke: #000000; stroke-width: 0.8; stroke-linejoin: miter; stroke-linecap: square"/>
   </g>
  </g>
  <g id="text_22">
   <!-- S21 resonator spectroscopy -->
   <g transform="translate(133.226562 16.318125) scale(0.12 -0.12)">
    <defs>
     <path id="DejaVuSans-53" d="M 3425 4513 
L 3425 3897 
Q 3066 4069 2747 4153 
Q 2428 4238 2131 4238 
Q 1616 4238 1336 4038 
Q 1056 3838 1056 3469 
Q 1056 3159 1242 3001 
Q 1428 2844 1947 2747 
L 2328 2669 
Q 3034 2534 3370 2195 
Q 3706 1856 3706 1288 
Q 3706 609 3251 259 
Q 2797 -91 1919 -91 
Q 1588 -91 1214 -16 
Q 841 59 441 206 
L 441 856 
Q 825 641 1194 531 
Q 1563 422 1919 422 
Q 2459 422 2753 634 
Q 3047 847 3047 1241 
Q 3047 1584 2836 1778 
Q 2625 1972 2144 2069 
L 1759 2144 
Q 1053 2284 737 2584 
Q 422 2884 422 3419 
Q 422 4038 858 4394 
Q 1294 4750 2059 4750 
Q 2388 4750 2728 4690 
Q 3069 4631 3425 4513 
z
" transform="scale(0.015625)"/>
     <path id="DejaVuSans-70" d="M 1159 525 
L 1159 -1331 
L 581 -1331 
L 581 3500 
L 1159 3500 
L 1159 2969 
Q 1341 3281 1617 3432 
Q 1894 3584 2278 3584 
Q 2916 3584 3314 3078 
Q 3713 2572 3713 1747 
Q 3713 922 3314 415 
Q 2916 -91 2278 -91 
Q 1894 -91 1617 61 
Q 1341 213 1159 525 
z
M 3116 1747 
Q 3116 2381 2855 2742 
Q 2594 3103 2138 3103 
Q 1681 3103 1420 2742 
Q 1159 2381 1159 1747 
Q 1159 1113 1420 752 
Q 1681 391 2138 391 
Q 2594 391 2855 752 
Q 3116 1113 3116 1747 
z
" transform="scale(0.015625)"/>
    </defs>
    <use xlink:href="#DejaVuSans-53"/>
    <use xlink:href="#DejaVuSans-32" x="63.476562"/>
    <use xlink:href="#DejaVuSans-31" x="127.099609"/>
    <use xlink:href="#DejaVuSans-20" x="190.722656"/>
    <use xlink:href="#DejaVuSans-72" x="222.509766"/>
    <use xlink:href="#DejaVuSans-65" x="261.373047"/>
    <use xlink:href="#DejaVuSans-73" x="322.896484"/>
    <use xlink:href="#DejaVuSans-6f" x="374.996094"/>
    <use xlink:href="#DejaVuSans-6e" x="436.177734"/>
    <use xlink:href="#DejaVuSans-61" x="499.556641"/>
    <use xlink:href="#DejaVuSans-74" x="560.835938"/>
    <use xlink:href="#DejaVuSans-6f" x="600.044922"/>
    <use xlink:href="#DejaVuSans-72" x="661.226562"/>
    <use xlink:href="#DejaVuSans-20" x="702.339844"/>
    <use xlink:href="#DejaVuSans-73" x="734.126953"/>
    <use xlink:href="#DejaVuSans-70" x="786.226562"/>
    <use xlink:href="#DejaVuSans-65" x="849.703125"/>
    <use xlink:href="#DejaVuSans-63" x="911.226562"/>
    <use xlink:href="#DejaVuSans-74" x="966.207031"/>
    <use xlink:href="#DejaVuSans-72" x="1005.416016"/>
    <use xlink:href="#DejaVuSans-6f" x="1044.279297"/>
    <use xlink:href="#DejaVuSans-73" x="1105.460938"/>
    <use xlink:href="#DejaVuSans-63" x="1157.560547"/>
    <use xlink:href="#DejaVuSans-6f" x="1212.541016"/>
    <use xlink:href="#DejaVuSans-70" x="1273.722656"/>
    <use xlink:href="#DejaVuSans-79" x="1337.199219"/>
   </g>
   <!-- tuid: 20231227-131739-569-0624e7 -->
   <g transform="translate(107.28125 29.7555) scale(0.12 -0.12)">
    <defs>
     <path id="DejaVuSans-33" d="M 2597 2516 
Q 3050 2419 3304 2112 
Q 3559 1806 3559 1356 
Q 3559 666 3084 287 
Q 2609 -91 1734 -91 
Q 1441 -91 1130 -33 
Q 819 25 488 141 
L 488 750 
Q 750 597 1062 519 
Q 1375 441 1716 441 
Q 2309 441 2620 675 
Q 2931 909 2931 1356 
Q 2931 1769 2642 2001 
Q 2353 2234 1838 2234 
L 1294 2234 
L 1294 2753 
L 1863 2753 
Q 2328 2753 2575 2939 
Q 2822 3125 2822 3475 
Q 2822 3834 2567 4026 
Q 2313 4219 1838 4219 
Q 1578 4219 1281 4162 
Q 984 4106 628 3988 
L 628 4550 
Q 988 4650 1302 4700 
Q 1616 4750 1894 4750 
Q 2613 4750 3031 4423 
Q 3450 4097 3450 3541 
Q 3450 3153 3228 2886 
Q 3006 2619 2597 2516 
z
" transform="scale(0.015625)"/>
     <path id="DejaVuSans-37" d="M 525 4666 
L 3525 4666 
L 3525 4397 
L 1831 0 
L 1172 0 
L 2766 4134 
L 525 4134 
L 525 4666 
z
" transform="scale(0.015625)"/>
     <path id="DejaVuSans-39" d="M 703 97 
L 703 672 
Q 941 559 1184 500 
Q 1428 441 1663 441 
Q 2288 441 2617 861 
Q 2947 1281 2994 2138 
Q 2813 1869 2534 1725 
Q 2256 1581 1919 1581 
Q 1219 1581 811 2004 
Q 403 2428 403 3163 
Q 403 3881 828 4315 
Q 1253 4750 1959 4750 
Q 2769 4750 3195 4129 
Q 3622 3509 3622 2328 
Q 3622 1225 3098 567 
Q 2575 -91 1691 -91 
Q 1453 -91 1209 -44 
Q 966 3 703 97 
z
M 1959 2075 
Q 2384 2075 2632 2365 
Q 2881 2656 2881 3163 
Q 2881 3666 2632 3958 
Q 2384 4250 1959 4250 
Q 1534 4250 1286 3958 
Q 1038 3666 1038 3163 
Q 1038 2656 1286 2365 
Q 1534 2075 1959 2075 
z
" transform="scale(0.015625)"/>
    </defs>
    <use xlink:href="#DejaVuSans-74"/>
    <use xlink:href="#DejaVuSans-75" x="39.208984"/>
    <use xlink:href="#DejaVuSans-69" x="102.587891"/>
    <use xlink:href="#DejaVuSans-64" x="130.371094"/>
    <use xlink:href="#DejaVuSans-3a" x="193.847656"/>
    <use xlink:href="#DejaVuSans-20" x="227.539062"/>
    <use xlink:href="#DejaVuSans-32" x="259.326172"/>
    <use xlink:href="#DejaVuSans-30" x="322.949219"/>
    <use xlink:href="#DejaVuSans-32" x="386.572266"/>
    <use xlink:href="#DejaVuSans-33" x="450.195312"/>
    <use xlink:href="#DejaVuSans-31" x="513.818359"/>
    <use xlink:href="#DejaVuSans-32" x="577.441406"/>
    <use xlink:href="#DejaVuSans-32" x="641.064453"/>
    <use xlink:href="#DejaVuSans-37" x="704.6875"/>
    <use xlink:href="#DejaVuSans-2d" x="768.310547"/>
    <use xlink:href="#DejaVuSans-31" x="804.394531"/>
    <use xlink:href="#DejaVuSans-33" x="868.017578"/>
    <use xlink:href="#DejaVuSans-31" x="931.640625"/>
    <use xlink:href="#DejaVuSans-37" x="995.263672"/>
    <use xlink:href="#DejaVuSans-33" x="1058.886719"/>
    <use xlink:href="#DejaVuSans-39" x="1122.509766"/>
    <use xlink:href="#DejaVuSans-2d" x="1186.132812"/>
    <use xlink:href="#DejaVuSans-35" x="1222.216797"/>
    <use xlink:href="#DejaVuSans-36" x="1285.839844"/>
    <use xlink:href="#DejaVuSans-39" x="1349.462891"/>
    <use xlink:href="#DejaVuSans-2d" x="1413.085938"/>
    <use xlink:href="#DejaVuSans-30" x="1449.169922"/>
    <use xlink:href="#DejaVuSans-36" x="1512.792969"/>
    <use xlink:href="#DejaVuSans-32" x="1576.416016"/>
    <use xlink:href="#DejaVuSans-34" x="1640.039062"/>
    <use xlink:href="#DejaVuSans-65" x="1703.662109"/>
    <use xlink:href="#DejaVuSans-37" x="1765.185547"/>
   </g>
  </g>
 </g>
 <defs>
  <clipPath id="p3c4f5d438b">
   <rect x="44.210938" y="41.76" width="357.12" height="120.96"/>
  </clipPath>
  <clipPath id="p70fd1891dd">
   <rect x="44.210938" y="186.912" width="357.12" height="120.96"/>
  </clipPath>
 </defs>
</svg>
