<?xml version="1.0" encoding="utf-8" standalone="no"?>
<!DOCTYPE svg PUBLIC "-//W3C//DTD SVG 1.1//EN"
  "http://www.w3.org/Graphics/SVG/1.1/DTD/svg11.dtd">
<svg xmlns:xlink="http://www.w3.org/1999/xlink" width="592.879125pt" height="345.42825pt" viewBox="0 0 592.879125 345.42825" xmlns="http://www.w3.org/2000/svg" version="1.1">
 <metadata>
  <rdf:RDF xmlns:dc="http://purl.org/dc/elements/1.1/" xmlns:cc="http://creativecommons.org/ns#" xmlns:rdf="http://www.w3.org/1999/02/22-rdf-syntax-ns#">
   <cc:Work>
    <dc:type rdf:resource="http://purl.org/dc/dcmitype/StillImage"/>
    <dc:date>2023-12-27T13:17:49.881999</dc:date>
    <dc:format>image/svg+xml</dc:format>
    <dc:creator>
     <cc:Agent>
      <dc:title>Matplotlib v3.8.2, https://matplotlib.org/</dc:title>
     </cc:Agent>
    </dc:creator>
   </cc:Work>
  </rdf:RDF>
 </metadata>
 <defs>
  <style type="text/css">*{stroke-linejoin: round; stroke-linecap: butt}</style>
 </defs>
 <g id="figure_1">
  <g id="patch_1">
   <path d="M 0 345.42825 
L 592.879125 345.42825 
L 592.879125 -0 
L 0 -0 
L 0 345.42825 
z
" style="fill: none; opacity: 0"/>
  </g>
  <g id="axes_1">
   <g id="patch_2">
    <path d="M 50.595313 162.72 
L 407.715312 162.72 
L 407.715312 41.76 
L 50.595313 41.76 
z
" style="fill: #ffffff"/>
   </g>
   <g id="matplotlib.axis_1">
    <g id="xtick_1">
     <g id="line2d_1">
      <defs>
       <path id="m3c0047b326" d="M 0 0 
L 0 3.5 
" style="stroke: #000000; stroke-width: 0.8"/>
      </defs>
      <g>
       <use xlink:href="#m3c0047b326" x="66.82804" y="162.72" style="stroke: #000000; stroke-width: 0.8"/>
      </g>
     </g>
    </g>
    <g id="xtick_2">
     <g id="line2d_2">
      <g>
       <use xlink:href="#m3c0047b326" x="110.115312" y="162.72" style="stroke: #000000; stroke-width: 0.8"/>
      </g>
     </g>
    </g>
    <g id="xtick_3">
     <g id="line2d_3">
      <g>
       <use xlink:href="#m3c0047b326" x="153.402585" y="162.72" style="stroke: #000000; stroke-width: 0.8"/>
      </g>
     </g>
    </g>
    <g id="xtick_4">
     <g id="line2d_4">
      <g>
       <use xlink:href="#m3c0047b326" x="196.689858" y="162.72" style="stroke: #000000; stroke-width: 0.8"/>
      </g>
     </g>
    </g>
    <g id="xtick_5">
     <g id="line2d_5">
      <g>
       <use xlink:href="#m3c0047b326" x="239.977131" y="162.72" style="stroke: #000000; stroke-width: 0.8"/>
      </g>
     </g>
    </g>
    <g id="xtick_6">
     <g id="line2d_6">
      <g>
       <use xlink:href="#m3c0047b326" x="283.264403" y="162.72" style="stroke: #000000; stroke-width: 0.8"/>
      </g>
     </g>
    </g>
    <g id="xtick_7">
     <g id="line2d_7">
      <g>
       <use xlink:href="#m3c0047b326" x="326.551676" y="162.72" style="stroke: #000000; stroke-width: 0.8"/>
      </g>
     </g>
    </g>
    <g id="xtick_8">
     <g id="line2d_8">
      <g>
       <use xlink:href="#m3c0047b326" x="369.838949" y="162.72" style="stroke: #000000; stroke-width: 0.8"/>
      </g>
     </g>
    </g>
   </g>
   <g id="matplotlib.axis_2">
    <g id="ytick_1">
     <g id="line2d_9">
      <defs>
       <path id="m20a6b4a23e" d="M 0 0 
L -3.5 0 
" style="stroke: #000000; stroke-width: 0.8"/>
      </defs>
      <g>
       <use xlink:href="#m20a6b4a23e" x="50.595313" y="144.928557" style="stroke: #000000; stroke-width: 0.8"/>
      </g>
     </g>
     <g id="text_1">
      <!-- 2 -->
      <g transform="translate(37.232813 148.727776) scale(0.1 -0.1)">
       <defs>
        <path id="DejaVuSans-32" d="M 1228 531 
L 3431 531 
L 3431 0 
L 469 0 
L 469 531 
Q 828 903 1448 1529 
Q 2069 2156 2228 2338 
Q 2531 2678 2651 2914 
Q 2772 3150 2772 3378 
Q 2772 3750 2511 3984 
Q 2250 4219 1831 4219 
Q 1534 4219 1204 4116 
Q 875 4013 500 3803 
L 500 4441 
Q 881 4594 1212 4672 
Q 1544 4750 1819 4750 
Q 2544 4750 2975 4387 
Q 3406 4025 3406 3419 
Q 3406 3131 3298 2873 
Q 3191 2616 2906 2266 
Q 2828 2175 2409 1742 
Q 1991 1309 1228 531 
z
" transform="scale(0.015625)"/>
       </defs>
       <use xlink:href="#DejaVuSans-32"/>
      </g>
     </g>
    </g>
    <g id="ytick_2">
     <g id="line2d_10">
      <g>
       <use xlink:href="#m20a6b4a23e" x="50.595313" y="123.706777" style="stroke: #000000; stroke-width: 0.8"/>
      </g>
     </g>
     <g id="text_2">
      <!-- 4 -->
      <g transform="translate(37.232813 127.505996) scale(0.1 -0.1)">
       <defs>
        <path id="DejaVuSans-34" d="M 2419 4116 
L 825 1625 
L 2419 1625 
L 2419 4116 
z
M 2253 4666 
L 3047 4666 
L 3047 1625 
L 3713 1625 
L 3713 1100 
L 3047 1100 
L 3047 0 
L 2419 0 
L 2419 1100 
L 313 1100 
L 313 1709 
L 2253 4666 
z
" transform="scale(0.015625)"/>
       </defs>
       <use xlink:href="#DejaVuSans-34"/>
      </g>
     </g>
    </g>
    <g id="ytick_3">
     <g id="line2d_11">
      <g>
       <use xlink:href="#m20a6b4a23e" x="50.595313" y="102.484997" style="stroke: #000000; stroke-width: 0.8"/>
      </g>
     </g>
     <g id="text_3">
      <!-- 6 -->
      <g transform="translate(37.232813 106.284216) scale(0.1 -0.1)">
       <defs>
        <path id="DejaVuSans-36" d="M 2113 2584 
Q 1688 2584 1439 2293 
Q 1191 2003 1191 1497 
Q 1191 994 1439 701 
Q 1688 409 2113 409 
Q 2538 409 2786 701 
Q 3034 994 3034 1497 
Q 3034 2003 2786 2293 
Q 2538 2584 2113 2584 
z
M 3366 4563 
L 3366 3988 
Q 3128 4100 2886 4159 
Q 2644 4219 2406 4219 
Q 1781 4219 1451 3797 
Q 1122 3375 1075 2522 
Q 1259 2794 1537 2939 
Q 1816 3084 2150 3084 
Q 2853 3084 3261 2657 
Q 3669 2231 3669 1497 
Q 3669 778 3244 343 
Q 2819 -91 2113 -91 
Q 1303 -91 875 529 
Q 447 1150 447 2328 
Q 447 3434 972 4092 
Q 1497 4750 2381 4750 
Q 2619 4750 2861 4703 
Q 3103 4656 3366 4563 
z
" transform="scale(0.015625)"/>
       </defs>
       <use xlink:href="#DejaVuSans-36"/>
      </g>
     </g>
    </g>
    <g id="ytick_4">
     <g id="line2d_12">
      <g>
       <use xlink:href="#m20a6b4a23e" x="50.595313" y="81.263217" style="stroke: #000000; stroke-width: 0.8"/>
      </g>
     </g>
     <g id="text_4">
      <!-- 8 -->
      <g transform="translate(37.232813 85.062436) scale(0.1 -0.1)">
       <defs>
        <path id="DejaVuSans-38" d="M 2034 2216 
Q 1584 2216 1326 1975 
Q 1069 1734 1069 1313 
Q 1069 891 1326 650 
Q 1584 409 2034 409 
Q 2484 409 2743 651 
Q 3003 894 3003 1313 
Q 3003 1734 2745 1975 
Q 2488 2216 2034 2216 
z
M 1403 2484 
Q 997 2584 770 2862 
Q 544 3141 544 3541 
Q 544 4100 942 4425 
Q 1341 4750 2034 4750 
Q 2731 4750 3128 4425 
Q 3525 4100 3525 3541 
Q 3525 3141 3298 2862 
Q 3072 2584 2669 2484 
Q 3125 2378 3379 2068 
Q 3634 1759 3634 1313 
Q 3634 634 3220 271 
Q 2806 -91 2034 -91 
Q 1263 -91 848 271 
Q 434 634 434 1313 
Q 434 1759 690 2068 
Q 947 2378 1403 2484 
z
M 1172 3481 
Q 1172 3119 1398 2916 
Q 1625 2713 2034 2713 
Q 2441 2713 2670 2916 
Q 2900 3119 2900 3481 
Q 2900 3844 2670 4047 
Q 2441 4250 2034 4250 
Q 1625 4250 1398 4047 
Q 1172 3844 1172 3481 
z
" transform="scale(0.015625)"/>
       </defs>
       <use xlink:href="#DejaVuSans-38"/>
      </g>
     </g>
    </g>
    <g id="ytick_5">
     <g id="line2d_13">
      <g>
       <use xlink:href="#m20a6b4a23e" x="50.595313" y="60.041437" style="stroke: #000000; stroke-width: 0.8"/>
      </g>
     </g>
     <g id="text_5">
      <!-- 10 -->
      <g transform="translate(30.870313 63.840656) scale(0.1 -0.1)">
       <defs>
        <path id="DejaVuSans-31" d="M 794 531 
L 1825 531 
L 1825 4091 
L 703 3866 
L 703 4441 
L 1819 4666 
L 2450 4666 
L 2450 531 
L 3481 531 
L 3481 0 
L 794 0 
L 794 531 
z
" transform="scale(0.015625)"/>
        <path id="DejaVuSans-30" d="M 2034 4250 
Q 1547 4250 1301 3770 
Q 1056 3291 1056 2328 
Q 1056 1369 1301 889 
Q 1547 409 2034 409 
Q 2525 409 2770 889 
Q 3016 1369 3016 2328 
Q 3016 3291 2770 3770 
Q 2525 4250 2034 4250 
z
M 2034 4750 
Q 2819 4750 3233 4129 
Q 3647 3509 3647 2328 
Q 3647 1150 3233 529 
Q 2819 -91 2034 -91 
Q 1250 -91 836 529 
Q 422 1150 422 2328 
Q 422 3509 836 4129 
Q 1250 4750 2034 4750 
z
" transform="scale(0.015625)"/>
       </defs>
       <use xlink:href="#DejaVuSans-31"/>
       <use xlink:href="#DejaVuSans-30" x="63.623047"/>
      </g>
     </g>
    </g>
    <g id="text_6">
     <!-- $|S_{21}|$ [mV] -->
     <g transform="translate(24.470313 127.19) rotate(-90) scale(0.1 -0.1)">
      <defs>
       <path id="DejaVuSans-7c" d="M 1344 4891 
L 1344 -1509 
L 813 -1509 
L 813 4891 
L 1344 4891 
z
" transform="scale(0.015625)"/>
       <path id="DejaVuSans-Oblique-53" d="M 3859 4513 
L 3738 3897 
Q 3422 4066 3111 4152 
Q 2800 4238 2509 4238 
Q 1944 4238 1609 3991 
Q 1275 3744 1275 3334 
Q 1275 3109 1398 2989 
Q 1522 2869 2034 2731 
L 2413 2638 
Q 3053 2472 3303 2217 
Q 3553 1963 3553 1503 
Q 3553 797 2998 353 
Q 2444 -91 1538 -91 
Q 1166 -91 791 -17 
Q 416 56 38 206 
L 166 856 
Q 513 641 861 531 
Q 1209 422 1556 422 
Q 2147 422 2503 684 
Q 2859 947 2859 1369 
Q 2859 1650 2717 1795 
Q 2575 1941 2106 2059 
L 1728 2156 
Q 1081 2325 845 2545 
Q 609 2766 609 3163 
Q 609 3859 1145 4304 
Q 1681 4750 2541 4750 
Q 2875 4750 3203 4690 
Q 3531 4631 3859 4513 
z
" transform="scale(0.015625)"/>
       <path id="DejaVuSans-20" transform="scale(0.015625)"/>
       <path id="DejaVuSans-5b" d="M 550 4863 
L 1875 4863 
L 1875 4416 
L 1125 4416 
L 1125 -397 
L 1875 -397 
L 1875 -844 
L 550 -844 
L 550 4863 
z
" transform="scale(0.015625)"/>
       <path id="DejaVuSans-6d" d="M 3328 2828 
Q 3544 3216 3844 3400 
Q 4144 3584 4550 3584 
Q 5097 3584 5394 3201 
Q 5691 2819 5691 2113 
L 5691 0 
L 5113 0 
L 5113 2094 
Q 5113 2597 4934 2840 
Q 4756 3084 4391 3084 
Q 3944 3084 3684 2787 
Q 3425 2491 3425 1978 
L 3425 0 
L 2847 0 
L 2847 2094 
Q 2847 2600 2669 2842 
Q 2491 3084 2119 3084 
Q 1678 3084 1418 2786 
Q 1159 2488 1159 1978 
L 1159 0 
L 581 0 
L 581 3500 
L 1159 3500 
L 1159 2956 
Q 1356 3278 1631 3431 
Q 1906 3584 2284 3584 
Q 2666 3584 2933 3390 
Q 3200 3197 3328 2828 
z
" transform="scale(0.015625)"/>
       <path id="DejaVuSans-56" d="M 1831 0 
L 50 4666 
L 709 4666 
L 2188 738 
L 3669 4666 
L 4325 4666 
L 2547 0 
L 1831 0 
z
" transform="scale(0.015625)"/>
       <path id="DejaVuSans-5d" d="M 1947 4863 
L 1947 -844 
L 622 -844 
L 622 -397 
L 1369 -397 
L 1369 4416 
L 622 4416 
L 622 4863 
L 1947 4863 
z
" transform="scale(0.015625)"/>
      </defs>
      <use xlink:href="#DejaVuSans-7c" transform="translate(0 0.578125)"/>
      <use xlink:href="#DejaVuSans-Oblique-53" transform="translate(33.691406 0.578125)"/>
      <use xlink:href="#DejaVuSans-32" transform="translate(97.167969 -15.828125) scale(0.7)"/>
      <use xlink:href="#DejaVuSans-31" transform="translate(141.704102 -15.828125) scale(0.7)"/>
      <use xlink:href="#DejaVuSans-7c" transform="translate(188.974609 0.578125)"/>
      <use xlink:href="#DejaVuSans-20" transform="translate(222.666016 0.578125)"/>
      <use xlink:href="#DejaVuSans-5b" transform="translate(254.453125 0.578125)"/>
      <use xlink:href="#DejaVuSans-6d" transform="translate(293.466797 0.578125)"/>
      <use xlink:href="#DejaVuSans-56" transform="translate(390.878906 0.578125)"/>
      <use xlink:href="#DejaVuSans-5d" transform="translate(459.287109 0.578125)"/>
     </g>
    </g>
   </g>
   <g id="line2d_14">
    <path d="M 66.82804 49.919133 
L 68.45947 49.366283 
L 70.0909 48.958255 
L 71.722329 48.742756 
L 73.353759 48.041396 
L 74.985189 49.229405 
L 76.616619 48.028128 
L 78.248049 47.402599 
L 79.879479 49.323773 
L 81.510909 48.243138 
L 83.142339 47.699672 
L 84.773768 49.873568 
L 86.405198 48.630896 
L 88.036628 48.424967 
L 89.668058 49.658674 
L 91.299488 47.899694 
L 92.930918 49.47642 
L 94.562348 48.001161 
L 96.193778 47.7829 
L 97.825207 49.175367 
L 99.456637 48.178943 
L 101.088067 48.925503 
L 102.719497 47.75609 
L 104.350927 48.766501 
L 105.982357 48.980906 
L 107.613787 47.543041 
L 109.245217 48.00209 
L 112.508076 49.522239 
L 114.139506 48.93458 
L 115.770936 47.66792 
L 117.402366 48.674341 
L 119.033796 50.04521 
L 120.665226 48.978346 
L 122.296656 47.258182 
L 123.928085 48.77901 
L 125.559515 49.178786 
L 127.190945 49.009513 
L 128.822375 50.046592 
L 130.453805 49.100013 
L 132.085235 50.435703 
L 133.716665 50.758459 
L 135.348095 50.174839 
L 136.979524 49.970109 
L 138.610954 50.172978 
L 140.242384 52.474955 
L 141.873814 52.596651 
L 143.505244 51.161855 
L 145.136674 52.897583 
L 146.768104 53.244197 
L 148.399534 53.971499 
L 150.030963 55.440618 
L 151.662393 56.551924 
L 153.293823 55.563969 
L 154.925253 54.369739 
L 156.556683 57.30642 
L 158.188113 56.393262 
L 159.819543 58.250642 
L 161.450973 58.376558 
L 163.082402 60.390193 
L 164.713832 59.705731 
L 166.345262 64.073159 
L 167.976692 65.344213 
L 169.608122 64.038697 
L 171.239552 69.391858 
L 172.870982 69.594261 
L 176.133842 75.981045 
L 177.765271 79.402338 
L 179.396701 81.91348 
L 181.028131 86.157288 
L 182.659561 91.425525 
L 184.290991 94.223584 
L 187.553851 106.409664 
L 190.81671 118.570883 
L 192.44814 126.407173 
L 194.07957 131.683433 
L 195.711 138.300448 
L 197.34243 142.485314 
L 198.97386 149.135476 
L 200.60529 148.98555 
L 203.868149 142.238628 
L 205.499579 135.638498 
L 207.131009 132.209201 
L 208.762439 127.415452 
L 210.393869 121.951002 
L 212.025299 114.910297 
L 213.656729 110.411256 
L 215.288159 104.584761 
L 216.919588 100.697792 
L 218.551018 99.393416 
L 220.182448 95.773549 
L 221.813878 93.008957 
L 223.445308 91.618065 
L 225.076738 85.30365 
L 228.339598 80.581735 
L 229.971027 84.308858 
L 231.602457 79.642601 
L 233.233887 78.106158 
L 234.865317 77.992293 
L 236.496747 74.922565 
L 238.128177 71.051527 
L 239.759607 71.516661 
L 241.391037 69.388613 
L 243.022466 68.797349 
L 244.653896 69.593035 
L 246.285326 69.484336 
L 247.916756 68.391207 
L 249.548186 68.141587 
L 252.811046 63.930119 
L 254.442476 62.277548 
L 256.073905 63.177223 
L 257.705335 66.599194 
L 259.336765 64.813067 
L 260.968195 65.114157 
L 264.231055 63.92154 
L 265.862485 63.15698 
L 267.493915 63.129825 
L 269.125344 66.00892 
L 270.756774 61.847415 
L 272.388204 58.773841 
L 274.019634 60.807929 
L 275.651064 61.439264 
L 277.282494 60.657305 
L 278.913924 62.59594 
L 280.545354 62.2052 
L 282.176783 58.843575 
L 283.808213 57.024714 
L 285.439643 63.937858 
L 287.071073 57.259389 
L 288.702503 59.641282 
L 291.965363 59.497848 
L 293.596793 57.400678 
L 295.228223 61.723067 
L 296.859652 64.326729 
L 298.491082 55.467322 
L 300.122512 64.576317 
L 301.753942 64.460243 
L 303.385372 60.44817 
L 305.016802 64.206514 
L 306.648232 65.2528 
L 308.279662 61.457891 
L 309.911091 64.459851 
L 311.542521 73.715409 
L 313.173951 72.070624 
L 314.805381 66.347833 
L 316.436811 76.460078 
L 318.068241 82.17043 
L 319.699671 90.132168 
L 321.331101 96.055593 
L 322.96253 89.604055 
L 324.59396 113.704983 
L 326.22539 98.035949 
L 327.85682 111.725374 
L 329.48825 131.725285 
L 331.11968 136.000374 
L 332.75111 136.663144 
L 334.38254 146.898337 
L 336.013969 138.828352 
L 337.645399 151.096855 
L 339.276829 125.838462 
L 340.908259 124.338694 
L 342.539689 119.032897 
L 344.171119 110.225525 
L 345.802549 103.512814 
L 347.433979 101.801207 
L 349.065408 112.367392 
L 350.696838 103.37785 
L 352.328268 110.137161 
L 353.959698 120.893951 
L 355.591128 130.565137 
L 357.222558 142.980152 
L 358.853988 157.221818 
L 360.485418 141.008203 
L 362.116847 141.639331 
L 363.748277 135.931448 
L 365.379707 123.921953 
L 367.011137 128.855449 
L 368.642567 130.406832 
L 370.273997 122.810374 
L 371.905427 104.150523 
L 373.536857 88.293627 
L 375.168286 94.969797 
L 376.799716 84.953947 
L 378.431146 78.789344 
L 380.062576 73.69579 
L 381.694006 73.15915 
L 383.325436 67.22095 
L 384.956866 59.179717 
L 386.588296 63.531355 
L 388.219725 66.93574 
L 389.851155 59.511884 
L 391.482585 59.960889 
L 391.482585 59.960889 
" clip-path="url(#p7f05851aa3)" style="fill: none; stroke: #1f77b4; stroke-width: 1.5; stroke-linecap: square"/>
    <defs>
     <path id="mf1478418d8" d="M 0 1.5 
C 0.397805 1.5 0.77937 1.341951 1.06066 1.06066 
C 1.341951 0.77937 1.5 0.397805 1.5 0 
C 1.5 -0.397805 1.341951 -0.77937 1.06066 -1.06066 
C 0.77937 -1.341951 0.397805 -1.5 0 -1.5 
C -0.397805 -1.5 -0.77937 -1.341951 -1.06066 -1.06066 
C -1.341951 -0.77937 -1.5 -0.397805 -1.5 0 
C -1.5 0.397805 -1.341951 0.77937 -1.06066 1.06066 
C -0.77937 1.341951 -0.397805 1.5 0 1.5 
z
" style="stroke: #1f77b4"/>
    </defs>
    <g clip-path="url(#p7f05851aa3)">
     <use xlink:href="#mf1478418d8" x="66.82804" y="49.919133" style="fill: #1f77b4; stroke: #1f77b4"/>
     <use xlink:href="#mf1478418d8" x="68.45947" y="49.366283" style="fill: #1f77b4; stroke: #1f77b4"/>
     <use xlink:href="#mf1478418d8" x="70.0909" y="48.958255" style="fill: #1f77b4; stroke: #1f77b4"/>
     <use xlink:href="#mf1478418d8" x="71.722329" y="48.742756" style="fill: #1f77b4; stroke: #1f77b4"/>
     <use xlink:href="#mf1478418d8" x="73.353759" y="48.041396" style="fill: #1f77b4; stroke: #1f77b4"/>
     <use xlink:href="#mf1478418d8" x="74.985189" y="49.229405" style="fill: #1f77b4; stroke: #1f77b4"/>
     <use xlink:href="#mf1478418d8" x="76.616619" y="48.028128" style="fill: #1f77b4; stroke: #1f77b4"/>
     <use xlink:href="#mf1478418d8" x="78.248049" y="47.402599" style="fill: #1f77b4; stroke: #1f77b4"/>
     <use xlink:href="#mf1478418d8" x="79.879479" y="49.323773" style="fill: #1f77b4; stroke: #1f77b4"/>
     <use xlink:href="#mf1478418d8" x="81.510909" y="48.243138" style="fill: #1f77b4; stroke: #1f77b4"/>
     <use xlink:href="#mf1478418d8" x="83.142339" y="47.699672" style="fill: #1f77b4; stroke: #1f77b4"/>
     <use xlink:href="#mf1478418d8" x="84.773768" y="49.873568" style="fill: #1f77b4; stroke: #1f77b4"/>
     <use xlink:href="#mf1478418d8" x="86.405198" y="48.630896" style="fill: #1f77b4; stroke: #1f77b4"/>
     <use xlink:href="#mf1478418d8" x="88.036628" y="48.424967" style="fill: #1f77b4; stroke: #1f77b4"/>
     <use xlink:href="#mf1478418d8" x="89.668058" y="49.658674" style="fill: #1f77b4; stroke: #1f77b4"/>
     <use xlink:href="#mf1478418d8" x="91.299488" y="47.899694" style="fill: #1f77b4; stroke: #1f77b4"/>
     <use xlink:href="#mf1478418d8" x="92.930918" y="49.47642" style="fill: #1f77b4; stroke: #1f77b4"/>
     <use xlink:href="#mf1478418d8" x="94.562348" y="48.001161" style="fill: #1f77b4; stroke: #1f77b4"/>
     <use xlink:href="#mf1478418d8" x="96.193778" y="47.7829" style="fill: #1f77b4; stroke: #1f77b4"/>
     <use xlink:href="#mf1478418d8" x="97.825207" y="49.175367" style="fill: #1f77b4; stroke: #1f77b4"/>
     <use xlink:href="#mf1478418d8" x="99.456637" y="48.178943" style="fill: #1f77b4; stroke: #1f77b4"/>
     <use xlink:href="#mf1478418d8" x="101.088067" y="48.925503" style="fill: #1f77b4; stroke: #1f77b4"/>
     <use xlink:href="#mf1478418d8" x="102.719497" y="47.75609" style="fill: #1f77b4; stroke: #1f77b4"/>
     <use xlink:href="#mf1478418d8" x="104.350927" y="48.766501" style="fill: #1f77b4; stroke: #1f77b4"/>
     <use xlink:href="#mf1478418d8" x="105.982357" y="48.980906" style="fill: #1f77b4; stroke: #1f77b4"/>
     <use xlink:href="#mf1478418d8" x="107.613787" y="47.543041" style="fill: #1f77b4; stroke: #1f77b4"/>
     <use xlink:href="#mf1478418d8" x="109.245217" y="48.00209" style="fill: #1f77b4; stroke: #1f77b4"/>
     <use xlink:href="#mf1478418d8" x="110.876646" y="48.715781" style="fill: #1f77b4; stroke: #1f77b4"/>
     <use xlink:href="#mf1478418d8" x="112.508076" y="49.522239" style="fill: #1f77b4; stroke: #1f77b4"/>
     <use xlink:href="#mf1478418d8" x="114.139506" y="48.93458" style="fill: #1f77b4; stroke: #1f77b4"/>
     <use xlink:href="#mf1478418d8" x="115.770936" y="47.66792" style="fill: #1f77b4; stroke: #1f77b4"/>
     <use xlink:href="#mf1478418d8" x="117.402366" y="48.674341" style="fill: #1f77b4; stroke: #1f77b4"/>
     <use xlink:href="#mf1478418d8" x="119.033796" y="50.04521" style="fill: #1f77b4; stroke: #1f77b4"/>
     <use xlink:href="#mf1478418d8" x="120.665226" y="48.978346" style="fill: #1f77b4; stroke: #1f77b4"/>
     <use xlink:href="#mf1478418d8" x="122.296656" y="47.258182" style="fill: #1f77b4; stroke: #1f77b4"/>
     <use xlink:href="#mf1478418d8" x="123.928085" y="48.77901" style="fill: #1f77b4; stroke: #1f77b4"/>
     <use xlink:href="#mf1478418d8" x="125.559515" y="49.178786" style="fill: #1f77b4; stroke: #1f77b4"/>
     <use xlink:href="#mf1478418d8" x="127.190945" y="49.009513" style="fill: #1f77b4; stroke: #1f77b4"/>
     <use xlink:href="#mf1478418d8" x="128.822375" y="50.046592" style="fill: #1f77b4; stroke: #1f77b4"/>
     <use xlink:href="#mf1478418d8" x="130.453805" y="49.100013" style="fill: #1f77b4; stroke: #1f77b4"/>
     <use xlink:href="#mf1478418d8" x="132.085235" y="50.435703" style="fill: #1f77b4; stroke: #1f77b4"/>
     <use xlink:href="#mf1478418d8" x="133.716665" y="50.758459" style="fill: #1f77b4; stroke: #1f77b4"/>
     <use xlink:href="#mf1478418d8" x="135.348095" y="50.174839" style="fill: #1f77b4; stroke: #1f77b4"/>
     <use xlink:href="#mf1478418d8" x="136.979524" y="49.970109" style="fill: #1f77b4; stroke: #1f77b4"/>
     <use xlink:href="#mf1478418d8" x="138.610954" y="50.172978" style="fill: #1f77b4; stroke: #1f77b4"/>
     <use xlink:href="#mf1478418d8" x="140.242384" y="52.474955" style="fill: #1f77b4; stroke: #1f77b4"/>
     <use xlink:href="#mf1478418d8" x="141.873814" y="52.596651" style="fill: #1f77b4; stroke: #1f77b4"/>
     <use xlink:href="#mf1478418d8" x="143.505244" y="51.161855" style="fill: #1f77b4; stroke: #1f77b4"/>
     <use xlink:href="#mf1478418d8" x="145.136674" y="52.897583" style="fill: #1f77b4; stroke: #1f77b4"/>
     <use xlink:href="#mf1478418d8" x="146.768104" y="53.244197" style="fill: #1f77b4; stroke: #1f77b4"/>
     <use xlink:href="#mf1478418d8" x="148.399534" y="53.971499" style="fill: #1f77b4; stroke: #1f77b4"/>
     <use xlink:href="#mf1478418d8" x="150.030963" y="55.440618" style="fill: #1f77b4; stroke: #1f77b4"/>
     <use xlink:href="#mf1478418d8" x="151.662393" y="56.551924" style="fill: #1f77b4; stroke: #1f77b4"/>
     <use xlink:href="#mf1478418d8" x="153.293823" y="55.563969" style="fill: #1f77b4; stroke: #1f77b4"/>
     <use xlink:href="#mf1478418d8" x="154.925253" y="54.369739" style="fill: #1f77b4; stroke: #1f77b4"/>
     <use xlink:href="#mf1478418d8" x="156.556683" y="57.30642" style="fill: #1f77b4; stroke: #1f77b4"/>
     <use xlink:href="#mf1478418d8" x="158.188113" y="56.393262" style="fill: #1f77b4; stroke: #1f77b4"/>
     <use xlink:href="#mf1478418d8" x="159.819543" y="58.250642" style="fill: #1f77b4; stroke: #1f77b4"/>
     <use xlink:href="#mf1478418d8" x="161.450973" y="58.376558" style="fill: #1f77b4; stroke: #1f77b4"/>
     <use xlink:href="#mf1478418d8" x="163.082402" y="60.390193" style="fill: #1f77b4; stroke: #1f77b4"/>
     <use xlink:href="#mf1478418d8" x="164.713832" y="59.705731" style="fill: #1f77b4; stroke: #1f77b4"/>
     <use xlink:href="#mf1478418d8" x="166.345262" y="64.073159" style="fill: #1f77b4; stroke: #1f77b4"/>
     <use xlink:href="#mf1478418d8" x="167.976692" y="65.344213" style="fill: #1f77b4; stroke: #1f77b4"/>
     <use xlink:href="#mf1478418d8" x="169.608122" y="64.038697" style="fill: #1f77b4; stroke: #1f77b4"/>
     <use xlink:href="#mf1478418d8" x="171.239552" y="69.391858" style="fill: #1f77b4; stroke: #1f77b4"/>
     <use xlink:href="#mf1478418d8" x="172.870982" y="69.594261" style="fill: #1f77b4; stroke: #1f77b4"/>
     <use xlink:href="#mf1478418d8" x="174.502412" y="72.676086" style="fill: #1f77b4; stroke: #1f77b4"/>
     <use xlink:href="#mf1478418d8" x="176.133842" y="75.981045" style="fill: #1f77b4; stroke: #1f77b4"/>
     <use xlink:href="#mf1478418d8" x="177.765271" y="79.402338" style="fill: #1f77b4; stroke: #1f77b4"/>
     <use xlink:href="#mf1478418d8" x="179.396701" y="81.91348" style="fill: #1f77b4; stroke: #1f77b4"/>
     <use xlink:href="#mf1478418d8" x="181.028131" y="86.157288" style="fill: #1f77b4; stroke: #1f77b4"/>
     <use xlink:href="#mf1478418d8" x="182.659561" y="91.425525" style="fill: #1f77b4; stroke: #1f77b4"/>
     <use xlink:href="#mf1478418d8" x="184.290991" y="94.223584" style="fill: #1f77b4; stroke: #1f77b4"/>
     <use xlink:href="#mf1478418d8" x="185.922421" y="100.139508" style="fill: #1f77b4; stroke: #1f77b4"/>
     <use xlink:href="#mf1478418d8" x="187.553851" y="106.409664" style="fill: #1f77b4; stroke: #1f77b4"/>
     <use xlink:href="#mf1478418d8" x="189.185281" y="112.572919" style="fill: #1f77b4; stroke: #1f77b4"/>
     <use xlink:href="#mf1478418d8" x="190.81671" y="118.570883" style="fill: #1f77b4; stroke: #1f77b4"/>
     <use xlink:href="#mf1478418d8" x="192.44814" y="126.407173" style="fill: #1f77b4; stroke: #1f77b4"/>
     <use xlink:href="#mf1478418d8" x="194.07957" y="131.683433" style="fill: #1f77b4; stroke: #1f77b4"/>
     <use xlink:href="#mf1478418d8" x="195.711" y="138.300448" style="fill: #1f77b4; stroke: #1f77b4"/>
     <use xlink:href="#mf1478418d8" x="197.34243" y="142.485314" style="fill: #1f77b4; stroke: #1f77b4"/>
     <use xlink:href="#mf1478418d8" x="198.97386" y="149.135476" style="fill: #1f77b4; stroke: #1f77b4"/>
     <use xlink:href="#mf1478418d8" x="200.60529" y="148.98555" style="fill: #1f77b4; stroke: #1f77b4"/>
     <use xlink:href="#mf1478418d8" x="202.23672" y="145.709865" style="fill: #1f77b4; stroke: #1f77b4"/>
     <use xlink:href="#mf1478418d8" x="203.868149" y="142.238628" style="fill: #1f77b4; stroke: #1f77b4"/>
     <use xlink:href="#mf1478418d8" x="205.499579" y="135.638498" style="fill: #1f77b4; stroke: #1f77b4"/>
     <use xlink:href="#mf1478418d8" x="207.131009" y="132.209201" style="fill: #1f77b4; stroke: #1f77b4"/>
     <use xlink:href="#mf1478418d8" x="208.762439" y="127.415452" style="fill: #1f77b4; stroke: #1f77b4"/>
     <use xlink:href="#mf1478418d8" x="210.393869" y="121.951002" style="fill: #1f77b4; stroke: #1f77b4"/>
     <use xlink:href="#mf1478418d8" x="212.025299" y="114.910297" style="fill: #1f77b4; stroke: #1f77b4"/>
     <use xlink:href="#mf1478418d8" x="213.656729" y="110.411256" style="fill: #1f77b4; stroke: #1f77b4"/>
     <use xlink:href="#mf1478418d8" x="215.288159" y="104.584761" style="fill: #1f77b4; stroke: #1f77b4"/>
     <use xlink:href="#mf1478418d8" x="216.919588" y="100.697792" style="fill: #1f77b4; stroke: #1f77b4"/>
     <use xlink:href="#mf1478418d8" x="218.551018" y="99.393416" style="fill: #1f77b4; stroke: #1f77b4"/>
     <use xlink:href="#mf1478418d8" x="220.182448" y="95.773549" style="fill: #1f77b4; stroke: #1f77b4"/>
     <use xlink:href="#mf1478418d8" x="221.813878" y="93.008957" style="fill: #1f77b4; stroke: #1f77b4"/>
     <use xlink:href="#mf1478418d8" x="223.445308" y="91.618065" style="fill: #1f77b4; stroke: #1f77b4"/>
     <use xlink:href="#mf1478418d8" x="225.076738" y="85.30365" style="fill: #1f77b4; stroke: #1f77b4"/>
     <use xlink:href="#mf1478418d8" x="226.708168" y="82.872279" style="fill: #1f77b4; stroke: #1f77b4"/>
     <use xlink:href="#mf1478418d8" x="228.339598" y="80.581735" style="fill: #1f77b4; stroke: #1f77b4"/>
     <use xlink:href="#mf1478418d8" x="229.971027" y="84.308858" style="fill: #1f77b4; stroke: #1f77b4"/>
     <use xlink:href="#mf1478418d8" x="231.602457" y="79.642601" style="fill: #1f77b4; stroke: #1f77b4"/>
     <use xlink:href="#mf1478418d8" x="233.233887" y="78.106158" style="fill: #1f77b4; stroke: #1f77b4"/>
     <use xlink:href="#mf1478418d8" x="234.865317" y="77.992293" style="fill: #1f77b4; stroke: #1f77b4"/>
     <use xlink:href="#mf1478418d8" x="236.496747" y="74.922565" style="fill: #1f77b4; stroke: #1f77b4"/>
     <use xlink:href="#mf1478418d8" x="238.128177" y="71.051527" style="fill: #1f77b4; stroke: #1f77b4"/>
     <use xlink:href="#mf1478418d8" x="239.759607" y="71.516661" style="fill: #1f77b4; stroke: #1f77b4"/>
     <use xlink:href="#mf1478418d8" x="241.391037" y="69.388613" style="fill: #1f77b4; stroke: #1f77b4"/>
     <use xlink:href="#mf1478418d8" x="243.022466" y="68.797349" style="fill: #1f77b4; stroke: #1f77b4"/>
     <use xlink:href="#mf1478418d8" x="244.653896" y="69.593035" style="fill: #1f77b4; stroke: #1f77b4"/>
     <use xlink:href="#mf1478418d8" x="246.285326" y="69.484336" style="fill: #1f77b4; stroke: #1f77b4"/>
     <use xlink:href="#mf1478418d8" x="247.916756" y="68.391207" style="fill: #1f77b4; stroke: #1f77b4"/>
     <use xlink:href="#mf1478418d8" x="249.548186" y="68.141587" style="fill: #1f77b4; stroke: #1f77b4"/>
     <use xlink:href="#mf1478418d8" x="251.179616" y="65.976337" style="fill: #1f77b4; stroke: #1f77b4"/>
     <use xlink:href="#mf1478418d8" x="252.811046" y="63.930119" style="fill: #1f77b4; stroke: #1f77b4"/>
     <use xlink:href="#mf1478418d8" x="254.442476" y="62.277548" style="fill: #1f77b4; stroke: #1f77b4"/>
     <use xlink:href="#mf1478418d8" x="256.073905" y="63.177223" style="fill: #1f77b4; stroke: #1f77b4"/>
     <use xlink:href="#mf1478418d8" x="257.705335" y="66.599194" style="fill: #1f77b4; stroke: #1f77b4"/>
     <use xlink:href="#mf1478418d8" x="259.336765" y="64.813067" style="fill: #1f77b4; stroke: #1f77b4"/>
     <use xlink:href="#mf1478418d8" x="260.968195" y="65.114157" style="fill: #1f77b4; stroke: #1f77b4"/>
     <use xlink:href="#mf1478418d8" x="262.599625" y="64.536886" style="fill: #1f77b4; stroke: #1f77b4"/>
     <use xlink:href="#mf1478418d8" x="264.231055" y="63.92154" style="fill: #1f77b4; stroke: #1f77b4"/>
     <use xlink:href="#mf1478418d8" x="265.862485" y="63.15698" style="fill: #1f77b4; stroke: #1f77b4"/>
     <use xlink:href="#mf1478418d8" x="267.493915" y="63.129825" style="fill: #1f77b4; stroke: #1f77b4"/>
     <use xlink:href="#mf1478418d8" x="269.125344" y="66.00892" style="fill: #1f77b4; stroke: #1f77b4"/>
     <use xlink:href="#mf1478418d8" x="270.756774" y="61.847415" style="fill: #1f77b4; stroke: #1f77b4"/>
     <use xlink:href="#mf1478418d8" x="272.388204" y="58.773841" style="fill: #1f77b4; stroke: #1f77b4"/>
     <use xlink:href="#mf1478418d8" x="274.019634" y="60.807929" style="fill: #1f77b4; stroke: #1f77b4"/>
     <use xlink:href="#mf1478418d8" x="275.651064" y="61.439264" style="fill: #1f77b4; stroke: #1f77b4"/>
     <use xlink:href="#mf1478418d8" x="277.282494" y="60.657305" style="fill: #1f77b4; stroke: #1f77b4"/>
     <use xlink:href="#mf1478418d8" x="278.913924" y="62.59594" style="fill: #1f77b4; stroke: #1f77b4"/>
     <use xlink:href="#mf1478418d8" x="280.545354" y="62.2052" style="fill: #1f77b4; stroke: #1f77b4"/>
     <use xlink:href="#mf1478418d8" x="282.176783" y="58.843575" style="fill: #1f77b4; stroke: #1f77b4"/>
     <use xlink:href="#mf1478418d8" x="283.808213" y="57.024714" style="fill: #1f77b4; stroke: #1f77b4"/>
     <use xlink:href="#mf1478418d8" x="285.439643" y="63.937858" style="fill: #1f77b4; stroke: #1f77b4"/>
     <use xlink:href="#mf1478418d8" x="287.071073" y="57.259389" style="fill: #1f77b4; stroke: #1f77b4"/>
     <use xlink:href="#mf1478418d8" x="288.702503" y="59.641282" style="fill: #1f77b4; stroke: #1f77b4"/>
     <use xlink:href="#mf1478418d8" x="290.333933" y="59.587752" style="fill: #1f77b4; stroke: #1f77b4"/>
     <use xlink:href="#mf1478418d8" x="291.965363" y="59.497848" style="fill: #1f77b4; stroke: #1f77b4"/>
     <use xlink:href="#mf1478418d8" x="293.596793" y="57.400678" style="fill: #1f77b4; stroke: #1f77b4"/>
     <use xlink:href="#mf1478418d8" x="295.228223" y="61.723067" style="fill: #1f77b4; stroke: #1f77b4"/>
     <use xlink:href="#mf1478418d8" x="296.859652" y="64.326729" style="fill: #1f77b4; stroke: #1f77b4"/>
     <use xlink:href="#mf1478418d8" x="298.491082" y="55.467322" style="fill: #1f77b4; stroke: #1f77b4"/>
     <use xlink:href="#mf1478418d8" x="300.122512" y="64.576317" style="fill: #1f77b4; stroke: #1f77b4"/>
     <use xlink:href="#mf1478418d8" x="301.753942" y="64.460243" style="fill: #1f77b4; stroke: #1f77b4"/>
     <use xlink:href="#mf1478418d8" x="303.385372" y="60.44817" style="fill: #1f77b4; stroke: #1f77b4"/>
     <use xlink:href="#mf1478418d8" x="305.016802" y="64.206514" style="fill: #1f77b4; stroke: #1f77b4"/>
     <use xlink:href="#mf1478418d8" x="306.648232" y="65.2528" style="fill: #1f77b4; stroke: #1f77b4"/>
     <use xlink:href="#mf1478418d8" x="308.279662" y="61.457891" style="fill: #1f77b4; stroke: #1f77b4"/>
     <use xlink:href="#mf1478418d8" x="309.911091" y="64.459851" style="fill: #1f77b4; stroke: #1f77b4"/>
     <use xlink:href="#mf1478418d8" x="311.542521" y="73.715409" style="fill: #1f77b4; stroke: #1f77b4"/>
     <use xlink:href="#mf1478418d8" x="313.173951" y="72.070624" style="fill: #1f77b4; stroke: #1f77b4"/>
     <use xlink:href="#mf1478418d8" x="314.805381" y="66.347833" style="fill: #1f77b4; stroke: #1f77b4"/>
     <use xlink:href="#mf1478418d8" x="316.436811" y="76.460078" style="fill: #1f77b4; stroke: #1f77b4"/>
     <use xlink:href="#mf1478418d8" x="318.068241" y="82.17043" style="fill: #1f77b4; stroke: #1f77b4"/>
     <use xlink:href="#mf1478418d8" x="319.699671" y="90.132168" style="fill: #1f77b4; stroke: #1f77b4"/>
     <use xlink:href="#mf1478418d8" x="321.331101" y="96.055593" style="fill: #1f77b4; stroke: #1f77b4"/>
     <use xlink:href="#mf1478418d8" x="322.96253" y="89.604055" style="fill: #1f77b4; stroke: #1f77b4"/>
     <use xlink:href="#mf1478418d8" x="324.59396" y="113.704983" style="fill: #1f77b4; stroke: #1f77b4"/>
     <use xlink:href="#mf1478418d8" x="326.22539" y="98.035949" style="fill: #1f77b4; stroke: #1f77b4"/>
     <use xlink:href="#mf1478418d8" x="327.85682" y="111.725374" style="fill: #1f77b4; stroke: #1f77b4"/>
     <use xlink:href="#mf1478418d8" x="329.48825" y="131.725285" style="fill: #1f77b4; stroke: #1f77b4"/>
     <use xlink:href="#mf1478418d8" x="331.11968" y="136.000374" style="fill: #1f77b4; stroke: #1f77b4"/>
     <use xlink:href="#mf1478418d8" x="332.75111" y="136.663144" style="fill: #1f77b4; stroke: #1f77b4"/>
     <use xlink:href="#mf1478418d8" x="334.38254" y="146.898337" style="fill: #1f77b4; stroke: #1f77b4"/>
     <use xlink:href="#mf1478418d8" x="336.013969" y="138.828352" style="fill: #1f77b4; stroke: #1f77b4"/>
     <use xlink:href="#mf1478418d8" x="337.645399" y="151.096855" style="fill: #1f77b4; stroke: #1f77b4"/>
     <use xlink:href="#mf1478418d8" x="339.276829" y="125.838462" style="fill: #1f77b4; stroke: #1f77b4"/>
     <use xlink:href="#mf1478418d8" x="340.908259" y="124.338694" style="fill: #1f77b4; stroke: #1f77b4"/>
     <use xlink:href="#mf1478418d8" x="342.539689" y="119.032897" style="fill: #1f77b4; stroke: #1f77b4"/>
     <use xlink:href="#mf1478418d8" x="344.171119" y="110.225525" style="fill: #1f77b4; stroke: #1f77b4"/>
     <use xlink:href="#mf1478418d8" x="345.802549" y="103.512814" style="fill: #1f77b4; stroke: #1f77b4"/>
     <use xlink:href="#mf1478418d8" x="347.433979" y="101.801207" style="fill: #1f77b4; stroke: #1f77b4"/>
     <use xlink:href="#mf1478418d8" x="349.065408" y="112.367392" style="fill: #1f77b4; stroke: #1f77b4"/>
     <use xlink:href="#mf1478418d8" x="350.696838" y="103.37785" style="fill: #1f77b4; stroke: #1f77b4"/>
     <use xlink:href="#mf1478418d8" x="352.328268" y="110.137161" style="fill: #1f77b4; stroke: #1f77b4"/>
     <use xlink:href="#mf1478418d8" x="353.959698" y="120.893951" style="fill: #1f77b4; stroke: #1f77b4"/>
     <use xlink:href="#mf1478418d8" x="355.591128" y="130.565137" style="fill: #1f77b4; stroke: #1f77b4"/>
     <use xlink:href="#mf1478418d8" x="357.222558" y="142.980152" style="fill: #1f77b4; stroke: #1f77b4"/>
     <use xlink:href="#mf1478418d8" x="358.853988" y="157.221818" style="fill: #1f77b4; stroke: #1f77b4"/>
     <use xlink:href="#mf1478418d8" x="360.485418" y="141.008203" style="fill: #1f77b4; stroke: #1f77b4"/>
     <use xlink:href="#mf1478418d8" x="362.116847" y="141.639331" style="fill: #1f77b4; stroke: #1f77b4"/>
     <use xlink:href="#mf1478418d8" x="363.748277" y="135.931448" style="fill: #1f77b4; stroke: #1f77b4"/>
     <use xlink:href="#mf1478418d8" x="365.379707" y="123.921953" style="fill: #1f77b4; stroke: #1f77b4"/>
     <use xlink:href="#mf1478418d8" x="367.011137" y="128.855449" style="fill: #1f77b4; stroke: #1f77b4"/>
     <use xlink:href="#mf1478418d8" x="368.642567" y="130.406832" style="fill: #1f77b4; stroke: #1f77b4"/>
     <use xlink:href="#mf1478418d8" x="370.273997" y="122.810374" style="fill: #1f77b4; stroke: #1f77b4"/>
     <use xlink:href="#mf1478418d8" x="371.905427" y="104.150523" style="fill: #1f77b4; stroke: #1f77b4"/>
     <use xlink:href="#mf1478418d8" x="373.536857" y="88.293627" style="fill: #1f77b4; stroke: #1f77b4"/>
     <use xlink:href="#mf1478418d8" x="375.168286" y="94.969797" style="fill: #1f77b4; stroke: #1f77b4"/>
     <use xlink:href="#mf1478418d8" x="376.799716" y="84.953947" style="fill: #1f77b4; stroke: #1f77b4"/>
     <use xlink:href="#mf1478418d8" x="378.431146" y="78.789344" style="fill: #1f77b4; stroke: #1f77b4"/>
     <use xlink:href="#mf1478418d8" x="380.062576" y="73.69579" style="fill: #1f77b4; stroke: #1f77b4"/>
     <use xlink:href="#mf1478418d8" x="381.694006" y="73.15915" style="fill: #1f77b4; stroke: #1f77b4"/>
     <use xlink:href="#mf1478418d8" x="383.325436" y="67.22095" style="fill: #1f77b4; stroke: #1f77b4"/>
     <use xlink:href="#mf1478418d8" x="384.956866" y="59.179717" style="fill: #1f77b4; stroke: #1f77b4"/>
     <use xlink:href="#mf1478418d8" x="386.588296" y="63.531355" style="fill: #1f77b4; stroke: #1f77b4"/>
     <use xlink:href="#mf1478418d8" x="388.219725" y="66.93574" style="fill: #1f77b4; stroke: #1f77b4"/>
     <use xlink:href="#mf1478418d8" x="389.851155" y="59.511884" style="fill: #1f77b4; stroke: #1f77b4"/>
     <use xlink:href="#mf1478418d8" x="391.482585" y="59.960889" style="fill: #1f77b4; stroke: #1f77b4"/>
    </g>
   </g>
   <g id="line2d_15">
    <path d="M 66.82804 131.094893 
L 174.396263 131.428706 
L 231.592659 131.810105 
L 265.715509 132.243659 
L 287.814117 132.731304 
L 303.088154 133.277668 
L 314.137458 133.886104 
L 322.261946 134.54499 
L 328.436557 135.25417 
L 333.31125 136.023744 
L 337.211005 136.849982 
L 340.4608 137.757483 
L 343.060636 138.696022 
L 345.335493 139.741689 
L 347.28537 140.87387 
L 348.910267 142.047663 
L 350.535165 143.507569 
L 351.835083 144.948881 
L 353.135001 146.702253 
L 354.434919 148.819196 
L 356.709776 152.740982 
L 357.034756 153.01397 
L 357.359735 153.051241 
L 357.684715 152.75706 
L 358.009694 152.029471 
L 358.334674 150.77384 
L 358.659653 148.911501 
L 359.309612 143.108768 
L 359.959571 134.074105 
L 360.60953 121.154367 
L 361.584469 94.852872 
L 362.234428 78.130969 
L 362.559408 72.753469 
L 362.884387 70.108887 
L 363.209367 69.960504 
L 363.534346 71.642487 
L 364.184305 77.698591 
L 365.484223 90.335559 
L 366.459162 97.366562 
L 367.4341 102.560113 
L 368.409039 106.45779 
L 369.383978 109.456433 
L 370.358916 111.820443 
L 371.658834 114.27968 
L 372.958752 116.18391 
L 374.25867 117.698671 
L 375.883568 119.203448 
L 377.508466 120.398714 
L 379.458343 121.543088 
L 381.733199 122.594775 
L 384.333036 123.535721 
L 387.257851 124.363409 
L 390.832626 125.147262 
L 391.482585 125.269367 
L 391.482585 125.269367 
" clip-path="url(#p7f05851aa3)" style="fill: none; stroke: #d62728; stroke-width: 1.5; stroke-linecap: square"/>
   </g>
   <g id="patch_3">
    <path d="M 50.595313 162.72 
L 50.595313 41.76 
" style="fill: none; stroke: #000000; stroke-width: 0.8; stroke-linejoin: miter; stroke-linecap: square"/>
   </g>
   <g id="patch_4">
    <path d="M 407.715312 162.72 
L 407.715312 41.76 
" style="fill: none; stroke: #000000; stroke-width: 0.8; stroke-linejoin: miter; stroke-linecap: square"/>
   </g>
   <g id="patch_5">
    <path d="M 50.595312 162.72 
L 407.715312 162.72 
" style="fill: none; stroke: #000000; stroke-width: 0.8; stroke-linejoin: miter; stroke-linecap: square"/>
   </g>
   <g id="patch_6">
    <path d="M 50.595312 41.76 
L 407.715312 41.76 
" style="fill: none; stroke: #000000; stroke-width: 0.8; stroke-linejoin: miter; stroke-linecap: square"/>
   </g>
   <g id="text_7">
    <g id="patch_7">
     <path d="M 425.571312 72.683938 
L 585.679125 72.683938 
Q 589.679125 72.683938 589.679125 68.683938 
L 589.679125 47.808 
Q 589.679125 43.808 585.679125 43.808 
L 425.571312 43.808 
Q 421.571312 43.808 421.571312 47.808 
L 421.571312 68.683938 
Q 421.571312 72.683938 425.571312 72.683938 
z
" style="fill: #ffffff; opacity: 0.5; stroke: #000000; stroke-linejoin: miter"/>
    </g>
    <!-- Warning: fit failed. lmfit was not -->
    <g transform="translate(425.571312 55.406437) scale(0.1 -0.1)">
     <defs>
      <path id="DejaVuSans-57" d="M 213 4666 
L 850 4666 
L 1831 722 
L 2809 4666 
L 3519 4666 
L 4500 722 
L 5478 4666 
L 6119 4666 
L 4947 0 
L 4153 0 
L 3169 4050 
L 2175 0 
L 1381 0 
L 213 4666 
z
" transform="scale(0.015625)"/>
      <path id="DejaVuSans-61" d="M 2194 1759 
Q 1497 1759 1228 1600 
Q 959 1441 959 1056 
Q 959 750 1161 570 
Q 1363 391 1709 391 
Q 2188 391 2477 730 
Q 2766 1069 2766 1631 
L 2766 1759 
L 2194 1759 
z
M 3341 1997 
L 3341 0 
L 2766 0 
L 2766 531 
Q 2569 213 2275 61 
Q 1981 -91 1556 -91 
Q 1019 -91 701 211 
Q 384 513 384 1019 
Q 384 1609 779 1909 
Q 1175 2209 1959 2209 
L 2766 2209 
L 2766 2266 
Q 2766 2663 2505 2880 
Q 2244 3097 1772 3097 
Q 1472 3097 1187 3025 
Q 903 2953 641 2809 
L 641 3341 
Q 956 3463 1253 3523 
Q 1550 3584 1831 3584 
Q 2591 3584 2966 3190 
Q 3341 2797 3341 1997 
z
" transform="scale(0.015625)"/>
      <path id="DejaVuSans-72" d="M 2631 2963 
Q 2534 3019 2420 3045 
Q 2306 3072 2169 3072 
Q 1681 3072 1420 2755 
Q 1159 2438 1159 1844 
L 1159 0 
L 581 0 
L 581 3500 
L 1159 3500 
L 1159 2956 
Q 1341 3275 1631 3429 
Q 1922 3584 2338 3584 
Q 2397 3584 2469 3576 
Q 2541 3569 2628 3553 
L 2631 2963 
z
" transform="scale(0.015625)"/>
      <path id="DejaVuSans-6e" d="M 3513 2113 
L 3513 0 
L 2938 0 
L 2938 2094 
Q 2938 2591 2744 2837 
Q 2550 3084 2163 3084 
Q 1697 3084 1428 2787 
Q 1159 2491 1159 1978 
L 1159 0 
L 581 0 
L 581 3500 
L 1159 3500 
L 1159 2956 
Q 1366 3272 1645 3428 
Q 1925 3584 2291 3584 
Q 2894 3584 3203 3211 
Q 3513 2838 3513 2113 
z
" transform="scale(0.015625)"/>
      <path id="DejaVuSans-69" d="M 603 3500 
L 1178 3500 
L 1178 0 
L 603 0 
L 603 3500 
z
M 603 4863 
L 1178 4863 
L 1178 4134 
L 603 4134 
L 603 4863 
z
" transform="scale(0.015625)"/>
      <path id="DejaVuSans-67" d="M 2906 1791 
Q 2906 2416 2648 2759 
Q 2391 3103 1925 3103 
Q 1463 3103 1205 2759 
Q 947 2416 947 1791 
Q 947 1169 1205 825 
Q 1463 481 1925 481 
Q 2391 481 2648 825 
Q 2906 1169 2906 1791 
z
M 3481 434 
Q 3481 -459 3084 -895 
Q 2688 -1331 1869 -1331 
Q 1566 -1331 1297 -1286 
Q 1028 -1241 775 -1147 
L 775 -588 
Q 1028 -725 1275 -790 
Q 1522 -856 1778 -856 
Q 2344 -856 2625 -561 
Q 2906 -266 2906 331 
L 2906 616 
Q 2728 306 2450 153 
Q 2172 0 1784 0 
Q 1141 0 747 490 
Q 353 981 353 1791 
Q 353 2603 747 3093 
Q 1141 3584 1784 3584 
Q 2172 3584 2450 3431 
Q 2728 3278 2906 2969 
L 2906 3500 
L 3481 3500 
L 3481 434 
z
" transform="scale(0.015625)"/>
      <path id="DejaVuSans-3a" d="M 750 794 
L 1409 794 
L 1409 0 
L 750 0 
L 750 794 
z
M 750 3309 
L 1409 3309 
L 1409 2516 
L 750 2516 
L 750 3309 
z
" transform="scale(0.015625)"/>
      <path id="DejaVuSans-66" d="M 2375 4863 
L 2375 4384 
L 1825 4384 
Q 1516 4384 1395 4259 
Q 1275 4134 1275 3809 
L 1275 3500 
L 2222 3500 
L 2222 3053 
L 1275 3053 
L 1275 0 
L 697 0 
L 697 3053 
L 147 3053 
L 147 3500 
L 697 3500 
L 697 3744 
Q 697 4328 969 4595 
Q 1241 4863 1831 4863 
L 2375 4863 
z
" transform="scale(0.015625)"/>
      <path id="DejaVuSans-74" d="M 1172 4494 
L 1172 3500 
L 2356 3500 
L 2356 3053 
L 1172 3053 
L 1172 1153 
Q 1172 725 1289 603 
Q 1406 481 1766 481 
L 2356 481 
L 2356 0 
L 1766 0 
Q 1100 0 847 248 
Q 594 497 594 1153 
L 594 3053 
L 172 3053 
L 172 3500 
L 594 3500 
L 594 4494 
L 1172 4494 
z
" transform="scale(0.015625)"/>
      <path id="DejaVuSans-6c" d="M 603 4863 
L 1178 4863 
L 1178 0 
L 603 0 
L 603 4863 
z
" transform="scale(0.015625)"/>
      <path id="DejaVuSans-65" d="M 3597 1894 
L 3597 1613 
L 953 1613 
Q 991 1019 1311 708 
Q 1631 397 2203 397 
Q 2534 397 2845 478 
Q 3156 559 3463 722 
L 3463 178 
Q 3153 47 2828 -22 
Q 2503 -91 2169 -91 
Q 1331 -91 842 396 
Q 353 884 353 1716 
Q 353 2575 817 3079 
Q 1281 3584 2069 3584 
Q 2775 3584 3186 3129 
Q 3597 2675 3597 1894 
z
M 3022 2063 
Q 3016 2534 2758 2815 
Q 2500 3097 2075 3097 
Q 1594 3097 1305 2825 
Q 1016 2553 972 2059 
L 3022 2063 
z
" transform="scale(0.015625)"/>
      <path id="DejaVuSans-64" d="M 2906 2969 
L 2906 4863 
L 3481 4863 
L 3481 0 
L 2906 0 
L 2906 525 
Q 2725 213 2448 61 
Q 2172 -91 1784 -91 
Q 1150 -91 751 415 
Q 353 922 353 1747 
Q 353 2572 751 3078 
Q 1150 3584 1784 3584 
Q 2172 3584 2448 3432 
Q 2725 3281 2906 2969 
z
M 947 1747 
Q 947 1113 1208 752 
Q 1469 391 1925 391 
Q 2381 391 2643 752 
Q 2906 1113 2906 1747 
Q 2906 2381 2643 2742 
Q 2381 3103 1925 3103 
Q 1469 3103 1208 2742 
Q 947 2381 947 1747 
z
" transform="scale(0.015625)"/>
      <path id="DejaVuSans-2e" d="M 684 794 
L 1344 794 
L 1344 0 
L 684 0 
L 684 794 
z
" transform="scale(0.015625)"/>
      <path id="DejaVuSans-77" d="M 269 3500 
L 844 3500 
L 1563 769 
L 2278 3500 
L 2956 3500 
L 3675 769 
L 4391 3500 
L 4966 3500 
L 4050 0 
L 3372 0 
L 2619 2869 
L 1863 0 
L 1184 0 
L 269 3500 
z
" transform="scale(0.015625)"/>
      <path id="DejaVuSans-73" d="M 2834 3397 
L 2834 2853 
Q 2591 2978 2328 3040 
Q 2066 3103 1784 3103 
Q 1356 3103 1142 2972 
Q 928 2841 928 2578 
Q 928 2378 1081 2264 
Q 1234 2150 1697 2047 
L 1894 2003 
Q 2506 1872 2764 1633 
Q 3022 1394 3022 966 
Q 3022 478 2636 193 
Q 2250 -91 1575 -91 
Q 1294 -91 989 -36 
Q 684 19 347 128 
L 347 722 
Q 666 556 975 473 
Q 1284 391 1588 391 
Q 1994 391 2212 530 
Q 2431 669 2431 922 
Q 2431 1156 2273 1281 
Q 2116 1406 1581 1522 
L 1381 1569 
Q 847 1681 609 1914 
Q 372 2147 372 2553 
Q 372 3047 722 3315 
Q 1072 3584 1716 3584 
Q 2034 3584 2315 3537 
Q 2597 3491 2834 3397 
z
" transform="scale(0.015625)"/>
      <path id="DejaVuSans-6f" d="M 1959 3097 
Q 1497 3097 1228 2736 
Q 959 2375 959 1747 
Q 959 1119 1226 758 
Q 1494 397 1959 397 
Q 2419 397 2687 759 
Q 2956 1122 2956 1747 
Q 2956 2369 2687 2733 
Q 2419 3097 1959 3097 
z
M 1959 3584 
Q 2709 3584 3137 3096 
Q 3566 2609 3566 1747 
Q 3566 888 3137 398 
Q 2709 -91 1959 -91 
Q 1206 -91 779 398 
Q 353 888 353 1747 
Q 353 2609 779 3096 
Q 1206 3584 1959 3584 
z
" transform="scale(0.015625)"/>
     </defs>
     <use xlink:href="#DejaVuSans-57"/>
     <use xlink:href="#DejaVuSans-61" x="92.501953"/>
     <use xlink:href="#DejaVuSans-72" x="153.78125"/>
     <use xlink:href="#DejaVuSans-6e" x="193.144531"/>
     <use xlink:href="#DejaVuSans-69" x="256.523438"/>
     <use xlink:href="#DejaVuSans-6e" x="284.306641"/>
     <use xlink:href="#DejaVuSans-67" x="347.685547"/>
     <use xlink:href="#DejaVuSans-3a" x="411.162109"/>
     <use xlink:href="#DejaVuSans-20" x="444.853516"/>
     <use xlink:href="#DejaVuSans-66" x="476.640625"/>
     <use xlink:href="#DejaVuSans-69" x="511.845703"/>
     <use xlink:href="#DejaVuSans-74" x="539.628906"/>
     <use xlink:href="#DejaVuSans-20" x="578.837891"/>
     <use xlink:href="#DejaVuSans-66" x="610.625"/>
     <use xlink:href="#DejaVuSans-61" x="645.830078"/>
     <use xlink:href="#DejaVuSans-69" x="707.109375"/>
     <use xlink:href="#DejaVuSans-6c" x="734.892578"/>
     <use xlink:href="#DejaVuSans-65" x="762.675781"/>
     <use xlink:href="#DejaVuSans-64" x="824.199219"/>
     <use xlink:href="#DejaVuSans-2e" x="887.675781"/>
     <use xlink:href="#DejaVuSans-20" x="919.462891"/>
     <use xlink:href="#DejaVuSans-6c" x="951.25"/>
     <use xlink:href="#DejaVuSans-6d" x="979.033203"/>
     <use xlink:href="#DejaVuSans-66" x="1076.445312"/>
     <use xlink:href="#DejaVuSans-69" x="1111.650391"/>
     <use xlink:href="#DejaVuSans-74" x="1139.433594"/>
     <use xlink:href="#DejaVuSans-20" x="1178.642578"/>
     <use xlink:href="#DejaVuSans-77" x="1210.429688"/>
     <use xlink:href="#DejaVuSans-61" x="1292.216797"/>
     <use xlink:href="#DejaVuSans-73" x="1353.496094"/>
     <use xlink:href="#DejaVuSans-20" x="1405.595703"/>
     <use xlink:href="#DejaVuSans-6e" x="1437.382812"/>
     <use xlink:href="#DejaVuSans-6f" x="1500.761719"/>
     <use xlink:href="#DejaVuSans-74" x="1561.943359"/>
    </g>
    <!-- able to fit the data. -->
    <g transform="translate(425.571312 66.60425) scale(0.1 -0.1)">
     <defs>
      <path id="DejaVuSans-62" d="M 3116 1747 
Q 3116 2381 2855 2742 
Q 2594 3103 2138 3103 
Q 1681 3103 1420 2742 
Q 1159 2381 1159 1747 
Q 1159 1113 1420 752 
Q 1681 391 2138 391 
Q 2594 391 2855 752 
Q 3116 1113 3116 1747 
z
M 1159 2969 
Q 1341 3281 1617 3432 
Q 1894 3584 2278 3584 
Q 2916 3584 3314 3078 
Q 3713 2572 3713 1747 
Q 3713 922 3314 415 
Q 2916 -91 2278 -91 
Q 1894 -91 1617 61 
Q 1341 213 1159 525 
L 1159 0 
L 581 0 
L 581 4863 
L 1159 4863 
L 1159 2969 
z
" transform="scale(0.015625)"/>
      <path id="DejaVuSans-68" d="M 3513 2113 
L 3513 0 
L 2938 0 
L 2938 2094 
Q 2938 2591 2744 2837 
Q 2550 3084 2163 3084 
Q 1697 3084 1428 2787 
Q 1159 2491 1159 1978 
L 1159 0 
L 581 0 
L 581 4863 
L 1159 4863 
L 1159 2956 
Q 1366 3272 1645 3428 
Q 1925 3584 2291 3584 
Q 2894 3584 3203 3211 
Q 3513 2838 3513 2113 
z
" transform="scale(0.015625)"/>
     </defs>
     <use xlink:href="#DejaVuSans-61"/>
     <use xlink:href="#DejaVuSans-62" x="61.279297"/>
     <use xlink:href="#DejaVuSans-6c" x="124.755859"/>
     <use xlink:href="#DejaVuSans-65" x="152.539062"/>
     <use xlink:href="#DejaVuSans-20" x="214.0625"/>
     <use xlink:href="#DejaVuSans-74" x="245.849609"/>
     <use xlink:href="#DejaVuSans-6f" x="285.058594"/>
     <use xlink:href="#DejaVuSans-20" x="346.240234"/>
     <use xlink:href="#DejaVuSans-66" x="378.027344"/>
     <use xlink:href="#DejaVuSans-69" x="413.232422"/>
     <use xlink:href="#DejaVuSans-74" x="441.015625"/>
     <use xlink:href="#DejaVuSans-20" x="480.224609"/>
     <use xlink:href="#DejaVuSans-74" x="512.011719"/>
     <use xlink:href="#DejaVuSans-68" x="551.220703"/>
     <use xlink:href="#DejaVuSans-65" x="614.599609"/>
     <use xlink:href="#DejaVuSans-20" x="676.123047"/>
     <use xlink:href="#DejaVuSans-64" x="707.910156"/>
     <use xlink:href="#DejaVuSans-61" x="771.386719"/>
     <use xlink:href="#DejaVuSans-74" x="832.666016"/>
     <use xlink:href="#DejaVuSans-61" x="871.875"/>
     <use xlink:href="#DejaVuSans-2e" x="933.154297"/>
    </g>
   </g>
  </g>
  <g id="axes_2">
   <g id="patch_8">
    <path d="M 50.595313 307.872 
L 407.715312 307.872 
L 407.715312 186.912 
L 50.595313 186.912 
z
" style="fill: #ffffff"/>
   </g>
   <g id="matplotlib.axis_3">
    <g id="xtick_9">
     <g id="line2d_16">
      <g>
       <use xlink:href="#m3c0047b326" x="66.82804" y="307.872" style="stroke: #000000; stroke-width: 0.8"/>
      </g>
     </g>
     <g id="text_8">
      <!-- 2 -->
      <g transform="translate(63.64679 322.470438) scale(0.1 -0.1)">
       <use xlink:href="#DejaVuSans-32"/>
      </g>
     </g>
    </g>
    <g id="xtick_10">
     <g id="line2d_17">
      <g>
       <use xlink:href="#m3c0047b326" x="110.115312" y="307.872" style="stroke: #000000; stroke-width: 0.8"/>
      </g>
     </g>
     <g id="text_9">
      <!-- 4 -->
      <g transform="translate(106.934062 322.470438) scale(0.1 -0.1)">
       <use xlink:href="#DejaVuSans-34"/>
      </g>
     </g>
    </g>
    <g id="xtick_11">
     <g id="line2d_18">
      <g>
       <use xlink:href="#m3c0047b326" x="153.402585" y="307.872" style="stroke: #000000; stroke-width: 0.8"/>
      </g>
     </g>
     <g id="text_10">
      <!-- 6 -->
      <g transform="translate(150.221335 322.470438) scale(0.1 -0.1)">
       <use xlink:href="#DejaVuSans-36"/>
      </g>
     </g>
    </g>
    <g id="xtick_12">
     <g id="line2d_19">
      <g>
       <use xlink:href="#m3c0047b326" x="196.689858" y="307.872" style="stroke: #000000; stroke-width: 0.8"/>
      </g>
     </g>
     <g id="text_11">
      <!-- 8 -->
      <g transform="translate(193.508608 322.470438) scale(0.1 -0.1)">
       <use xlink:href="#DejaVuSans-38"/>
      </g>
     </g>
    </g>
    <g id="xtick_13">
     <g id="line2d_20">
      <g>
       <use xlink:href="#m3c0047b326" x="239.977131" y="307.872" style="stroke: #000000; stroke-width: 0.8"/>
      </g>
     </g>
     <g id="text_12">
      <!-- 10 -->
      <g transform="translate(233.614631 322.470438) scale(0.1 -0.1)">
       <use xlink:href="#DejaVuSans-31"/>
       <use xlink:href="#DejaVuSans-30" x="63.623047"/>
      </g>
     </g>
    </g>
    <g id="xtick_14">
     <g id="line2d_21">
      <g>
       <use xlink:href="#m3c0047b326" x="283.264403" y="307.872" style="stroke: #000000; stroke-width: 0.8"/>
      </g>
     </g>
     <g id="text_13">
      <!-- 12 -->
      <g transform="translate(276.901903 322.470438) scale(0.1 -0.1)">
       <use xlink:href="#DejaVuSans-31"/>
       <use xlink:href="#DejaVuSans-32" x="63.623047"/>
      </g>
     </g>
    </g>
    <g id="xtick_15">
     <g id="line2d_22">
      <g>
       <use xlink:href="#m3c0047b326" x="326.551676" y="307.872" style="stroke: #000000; stroke-width: 0.8"/>
      </g>
     </g>
     <g id="text_14">
      <!-- 14 -->
      <g transform="translate(320.189176 322.470438) scale(0.1 -0.1)">
       <use xlink:href="#DejaVuSans-31"/>
       <use xlink:href="#DejaVuSans-34" x="63.623047"/>
      </g>
     </g>
    </g>
    <g id="xtick_16">
     <g id="line2d_23">
      <g>
       <use xlink:href="#m3c0047b326" x="369.838949" y="307.872" style="stroke: #000000; stroke-width: 0.8"/>
      </g>
     </g>
     <g id="text_15">
      <!-- 16 -->
      <g transform="translate(363.476449 322.470438) scale(0.1 -0.1)">
       <use xlink:href="#DejaVuSans-31"/>
       <use xlink:href="#DejaVuSans-36" x="63.623047"/>
      </g>
     </g>
    </g>
    <g id="text_16">
     <!-- Frequency [MHz] -->
     <g transform="translate(187.136562 336.148562) scale(0.1 -0.1)">
      <defs>
       <path id="DejaVuSans-46" d="M 628 4666 
L 3309 4666 
L 3309 4134 
L 1259 4134 
L 1259 2759 
L 3109 2759 
L 3109 2228 
L 1259 2228 
L 1259 0 
L 628 0 
L 628 4666 
z
" transform="scale(0.015625)"/>
       <path id="DejaVuSans-71" d="M 947 1747 
Q 947 1113 1208 752 
Q 1469 391 1925 391 
Q 2381 391 2643 752 
Q 2906 1113 2906 1747 
Q 2906 2381 2643 2742 
Q 2381 3103 1925 3103 
Q 1469 3103 1208 2742 
Q 947 2381 947 1747 
z
M 2906 525 
Q 2725 213 2448 61 
Q 2172 -91 1784 -91 
Q 1150 -91 751 415 
Q 353 922 353 1747 
Q 353 2572 751 3078 
Q 1150 3584 1784 3584 
Q 2172 3584 2448 3432 
Q 2725 3281 2906 2969 
L 2906 3500 
L 3481 3500 
L 3481 -1331 
L 2906 -1331 
L 2906 525 
z
" transform="scale(0.015625)"/>
       <path id="DejaVuSans-75" d="M 544 1381 
L 544 3500 
L 1119 3500 
L 1119 1403 
Q 1119 906 1312 657 
Q 1506 409 1894 409 
Q 2359 409 2629 706 
Q 2900 1003 2900 1516 
L 2900 3500 
L 3475 3500 
L 3475 0 
L 2900 0 
L 2900 538 
Q 2691 219 2414 64 
Q 2138 -91 1772 -91 
Q 1169 -91 856 284 
Q 544 659 544 1381 
z
M 1991 3584 
L 1991 3584 
z
" transform="scale(0.015625)"/>
       <path id="DejaVuSans-63" d="M 3122 3366 
L 3122 2828 
Q 2878 2963 2633 3030 
Q 2388 3097 2138 3097 
Q 1578 3097 1268 2742 
Q 959 2388 959 1747 
Q 959 1106 1268 751 
Q 1578 397 2138 397 
Q 2388 397 2633 464 
Q 2878 531 3122 666 
L 3122 134 
Q 2881 22 2623 -34 
Q 2366 -91 2075 -91 
Q 1284 -91 818 406 
Q 353 903 353 1747 
Q 353 2603 823 3093 
Q 1294 3584 2113 3584 
Q 2378 3584 2631 3529 
Q 2884 3475 3122 3366 
z
" transform="scale(0.015625)"/>
       <path id="DejaVuSans-79" d="M 2059 -325 
Q 1816 -950 1584 -1140 
Q 1353 -1331 966 -1331 
L 506 -1331 
L 506 -850 
L 844 -850 
Q 1081 -850 1212 -737 
Q 1344 -625 1503 -206 
L 1606 56 
L 191 3500 
L 800 3500 
L 1894 763 
L 2988 3500 
L 3597 3500 
L 2059 -325 
z
" transform="scale(0.015625)"/>
       <path id="DejaVuSans-4d" d="M 628 4666 
L 1569 4666 
L 2759 1491 
L 3956 4666 
L 4897 4666 
L 4897 0 
L 4281 0 
L 4281 4097 
L 3078 897 
L 2444 897 
L 1241 4097 
L 1241 0 
L 628 0 
L 628 4666 
z
" transform="scale(0.015625)"/>
       <path id="DejaVuSans-48" d="M 628 4666 
L 1259 4666 
L 1259 2753 
L 3553 2753 
L 3553 4666 
L 4184 4666 
L 4184 0 
L 3553 0 
L 3553 2222 
L 1259 2222 
L 1259 0 
L 628 0 
L 628 4666 
z
" transform="scale(0.015625)"/>
       <path id="DejaVuSans-7a" d="M 353 3500 
L 3084 3500 
L 3084 2975 
L 922 459 
L 3084 459 
L 3084 0 
L 275 0 
L 275 525 
L 2438 3041 
L 353 3041 
L 353 3500 
z
" transform="scale(0.015625)"/>
      </defs>
      <use xlink:href="#DejaVuSans-46"/>
      <use xlink:href="#DejaVuSans-72" x="50.269531"/>
      <use xlink:href="#DejaVuSans-65" x="89.132812"/>
      <use xlink:href="#DejaVuSans-71" x="150.65625"/>
      <use xlink:href="#DejaVuSans-75" x="214.132812"/>
      <use xlink:href="#DejaVuSans-65" x="277.511719"/>
      <use xlink:href="#DejaVuSans-6e" x="339.035156"/>
      <use xlink:href="#DejaVuSans-63" x="402.414062"/>
      <use xlink:href="#DejaVuSans-79" x="457.394531"/>
      <use xlink:href="#DejaVuSans-20" x="516.574219"/>
      <use xlink:href="#DejaVuSans-5b" x="548.361328"/>
      <use xlink:href="#DejaVuSans-4d" x="587.375"/>
      <use xlink:href="#DejaVuSans-48" x="673.654297"/>
      <use xlink:href="#DejaVuSans-7a" x="748.849609"/>
      <use xlink:href="#DejaVuSans-5d" x="801.339844"/>
     </g>
    </g>
    <g id="text_17">
     <!-- +6 GHz -->
     <g transform="translate(369.277812 335.148562) scale(0.1 -0.1)">
      <defs>
       <path id="DejaVuSans-2b" d="M 2944 4013 
L 2944 2272 
L 4684 2272 
L 4684 1741 
L 2944 1741 
L 2944 0 
L 2419 0 
L 2419 1741 
L 678 1741 
L 678 2272 
L 2419 2272 
L 2419 4013 
L 2944 4013 
z
" transform="scale(0.015625)"/>
       <path id="DejaVuSans-47" d="M 3809 666 
L 3809 1919 
L 2778 1919 
L 2778 2438 
L 4434 2438 
L 4434 434 
Q 4069 175 3628 42 
Q 3188 -91 2688 -91 
Q 1594 -91 976 548 
Q 359 1188 359 2328 
Q 359 3472 976 4111 
Q 1594 4750 2688 4750 
Q 3144 4750 3555 4637 
Q 3966 4525 4313 4306 
L 4313 3634 
Q 3963 3931 3569 4081 
Q 3175 4231 2741 4231 
Q 1884 4231 1454 3753 
Q 1025 3275 1025 2328 
Q 1025 1384 1454 906 
Q 1884 428 2741 428 
Q 3075 428 3337 486 
Q 3600 544 3809 666 
z
" transform="scale(0.015625)"/>
      </defs>
      <use xlink:href="#DejaVuSans-2b"/>
      <use xlink:href="#DejaVuSans-36" x="83.789062"/>
      <use xlink:href="#DejaVuSans-20" x="147.412109"/>
      <use xlink:href="#DejaVuSans-47" x="179.199219"/>
      <use xlink:href="#DejaVuSans-48" x="256.689453"/>
      <use xlink:href="#DejaVuSans-7a" x="331.884766"/>
     </g>
    </g>
   </g>
   <g id="matplotlib.axis_4">
    <g id="ytick_6">
     <g id="line2d_24">
      <g>
       <use xlink:href="#m20a6b4a23e" x="50.595313" y="277.956454" style="stroke: #000000; stroke-width: 0.8"/>
      </g>
     </g>
     <g id="text_18">
      <!-- -100 -->
      <g transform="translate(20.9 281.755673) scale(0.1 -0.1)">
       <defs>
        <path id="DejaVuSans-2d" d="M 313 2009 
L 1997 2009 
L 1997 1497 
L 313 1497 
L 313 2009 
z
" transform="scale(0.015625)"/>
       </defs>
       <use xlink:href="#DejaVuSans-2d"/>
       <use xlink:href="#DejaVuSans-31" x="36.083984"/>
       <use xlink:href="#DejaVuSans-30" x="99.707031"/>
       <use xlink:href="#DejaVuSans-30" x="163.330078"/>
      </g>
     </g>
    </g>
    <g id="ytick_7">
     <g id="line2d_25">
      <g>
       <use xlink:href="#m20a6b4a23e" x="50.595313" y="247.382344" style="stroke: #000000; stroke-width: 0.8"/>
      </g>
     </g>
     <g id="text_19">
      <!-- 0 -->
      <g transform="translate(37.232813 251.181563) scale(0.1 -0.1)">
       <use xlink:href="#DejaVuSans-30"/>
      </g>
     </g>
    </g>
    <g id="ytick_8">
     <g id="line2d_26">
      <g>
       <use xlink:href="#m20a6b4a23e" x="50.595313" y="216.808234" style="stroke: #000000; stroke-width: 0.8"/>
      </g>
     </g>
     <g id="text_20">
      <!-- 100 -->
      <g transform="translate(24.507813 220.607453) scale(0.1 -0.1)">
       <use xlink:href="#DejaVuSans-31"/>
       <use xlink:href="#DejaVuSans-30" x="63.623047"/>
       <use xlink:href="#DejaVuSans-30" x="127.246094"/>
      </g>
     </g>
    </g>
    <g id="text_21">
     <!-- $\angle S_{21}$ [deg] -->
     <g transform="translate(14.8 274.592) rotate(-90) scale(0.1 -0.1)">
      <defs>
       <path id="DejaVuSans-2220" d="M 5028 631 
L 5028 0 
L 547 0 
L 3525 4666 
L 4281 4666 
L 1716 631 
L 5028 631 
z
" transform="scale(0.015625)"/>
      </defs>
      <use xlink:href="#DejaVuSans-2220" transform="translate(0 0.015625)"/>
      <use xlink:href="#DejaVuSans-Oblique-53" transform="translate(89.648438 0.015625)"/>
      <use xlink:href="#DejaVuSans-32" transform="translate(153.125 -16.390625) scale(0.7)"/>
      <use xlink:href="#DejaVuSans-31" transform="translate(197.661133 -16.390625) scale(0.7)"/>
      <use xlink:href="#DejaVuSans-20" transform="translate(244.931641 0.015625)"/>
      <use xlink:href="#DejaVuSans-5b" transform="translate(276.71875 0.015625)"/>
      <use xlink:href="#DejaVuSans-64" transform="translate(315.732422 0.015625)"/>
      <use xlink:href="#DejaVuSans-65" transform="translate(379.208984 0.015625)"/>
      <use xlink:href="#DejaVuSans-67" transform="translate(440.732422 0.015625)"/>
      <use xlink:href="#DejaVuSans-5d" transform="translate(504.208984 0.015625)"/>
     </g>
    </g>
   </g>
   <g id="line2d_27">
    <path d="M 66.82804 197.226975 
L 68.45947 196.829776 
L 70.0909 197.351617 
L 74.985189 197.831851 
L 76.616619 197.796747 
L 79.879479 198.051132 
L 81.510909 197.947152 
L 83.142339 198.474115 
L 84.773768 198.457308 
L 86.405198 198.78132 
L 88.036628 198.78939 
L 89.668058 199.046172 
L 94.562348 199.232435 
L 96.193778 199.776293 
L 97.825207 199.897321 
L 99.456637 199.858558 
L 101.088067 200.003011 
L 102.719497 200.333397 
L 104.350927 200.286978 
L 105.982357 200.607635 
L 107.613787 200.548986 
L 112.508076 201.474404 
L 114.139506 201.327101 
L 119.033796 202.115757 
L 120.665226 202.034484 
L 122.296656 202.359855 
L 123.928085 202.811547 
L 127.190945 202.965204 
L 128.822375 203.124857 
L 130.453805 203.647706 
L 132.085235 203.600767 
L 133.716665 203.945298 
L 135.348095 203.923251 
L 136.979524 204.337258 
L 138.610954 204.443528 
L 140.242384 204.735668 
L 141.873814 205.161174 
L 143.505244 205.283563 
L 145.136674 205.83217 
L 150.030963 206.420791 
L 151.662393 207.163502 
L 153.293823 207.479906 
L 154.925253 207.646616 
L 156.556683 207.699798 
L 158.188113 208.106341 
L 159.819543 208.890492 
L 164.713832 210.143869 
L 166.345262 210.159596 
L 167.976692 211.1646 
L 172.870982 212.428015 
L 174.502412 213.361285 
L 176.133842 214.144716 
L 177.765271 214.681482 
L 179.396701 215.433325 
L 181.028131 215.586744 
L 182.659561 216.996297 
L 184.290991 217.183944 
L 185.922421 218.457243 
L 192.44814 219.71602 
L 194.07957 219.744554 
L 195.711 216.418548 
L 197.34243 216.931171 
L 198.97386 211.362262 
L 200.60529 202.706164 
L 202.23672 197.955351 
L 203.868149 194.66065 
L 205.499579 193.419997 
L 207.131009 301.971916 
L 208.762439 192.591159 
L 210.393869 301.854814 
L 212.025299 301.516393 
L 213.656729 192.475627 
L 215.288159 193.095193 
L 218.551018 193.699535 
L 220.182448 194.348325 
L 221.813878 195.775119 
L 223.445308 195.403306 
L 225.076738 195.737386 
L 228.339598 197.183823 
L 229.971027 198.34345 
L 231.602457 197.803613 
L 233.233887 198.370907 
L 234.865317 199.097509 
L 236.496747 198.942202 
L 238.128177 199.873153 
L 239.759607 200.650642 
L 241.391037 200.943868 
L 243.022466 200.82792 
L 244.653896 201.223434 
L 246.285326 201.943458 
L 247.916756 202.492299 
L 249.548186 202.300116 
L 252.811046 203.430082 
L 256.073905 203.761296 
L 257.705335 204.575946 
L 259.336765 205.236859 
L 260.968195 205.289616 
L 262.599625 205.929384 
L 264.231055 205.820708 
L 265.862485 206.050285 
L 269.125344 207.220666 
L 270.756774 208.334675 
L 272.388204 207.908757 
L 274.019634 208.85926 
L 275.651064 208.992504 
L 277.282494 209.829128 
L 278.913924 210.220714 
L 280.545354 211.154552 
L 282.176783 211.815742 
L 283.808213 211.052001 
L 285.439643 212.309209 
L 287.071073 212.232944 
L 288.702503 213.38395 
L 293.596793 214.93858 
L 295.228223 214.880936 
L 296.859652 217.088132 
L 298.491082 217.028193 
L 300.122512 218.608128 
L 301.753942 218.34173 
L 303.385372 219.823316 
L 305.016802 221.098231 
L 306.648232 222.514574 
L 308.279662 223.674623 
L 309.911091 223.554891 
L 311.542521 227.180051 
L 313.173951 225.653211 
L 314.805381 228.927628 
L 316.436811 231.22775 
L 319.699671 233.872787 
L 321.331101 236.891702 
L 322.96253 238.341379 
L 324.59396 239.005247 
L 326.22539 240.836897 
L 327.85682 249.061324 
L 329.48825 251.872439 
L 331.11968 253.522602 
L 334.38254 253.700547 
L 336.013969 261.855484 
L 337.645399 231.58277 
L 339.276829 262.046479 
L 340.908259 289.971952 
L 342.539689 197.691934 
L 344.171119 200.118695 
L 345.802549 299.012825 
L 347.433979 273.805448 
L 349.065408 286.310102 
L 350.696838 232.486235 
L 352.328268 274.424085 
L 353.959698 194.357405 
L 355.591128 211.269115 
L 357.222558 213.35417 
L 358.853988 298.26619 
L 360.485418 267.516115 
L 362.116847 260.448171 
L 363.748277 261.790737 
L 365.379707 269.945386 
L 367.011137 274.910681 
L 368.642567 274.829462 
L 370.273997 276.781175 
L 371.905427 279.548263 
L 373.536857 278.343792 
L 375.168286 279.83181 
L 376.799716 282.446152 
L 378.431146 283.738555 
L 380.062576 286.698795 
L 381.694006 288.684708 
L 383.325436 290.197361 
L 384.956866 290.618453 
L 386.588296 290.55022 
L 388.219725 293.426465 
L 389.851155 293.679225 
L 391.482585 294.884386 
L 391.482585 294.884386 
" clip-path="url(#pbc23ed2094)" style="fill: none; stroke: #1f77b4; stroke-width: 1.5; stroke-linecap: square"/>
    <g clip-path="url(#pbc23ed2094)">
     <use xlink:href="#mf1478418d8" x="66.82804" y="197.226975" style="fill: #1f77b4; stroke: #1f77b4"/>
     <use xlink:href="#mf1478418d8" x="68.45947" y="196.829776" style="fill: #1f77b4; stroke: #1f77b4"/>
     <use xlink:href="#mf1478418d8" x="70.0909" y="197.351617" style="fill: #1f77b4; stroke: #1f77b4"/>
     <use xlink:href="#mf1478418d8" x="71.722329" y="197.499367" style="fill: #1f77b4; stroke: #1f77b4"/>
     <use xlink:href="#mf1478418d8" x="73.353759" y="197.620797" style="fill: #1f77b4; stroke: #1f77b4"/>
     <use xlink:href="#mf1478418d8" x="74.985189" y="197.831851" style="fill: #1f77b4; stroke: #1f77b4"/>
     <use xlink:href="#mf1478418d8" x="76.616619" y="197.796747" style="fill: #1f77b4; stroke: #1f77b4"/>
     <use xlink:href="#mf1478418d8" x="78.248049" y="197.887099" style="fill: #1f77b4; stroke: #1f77b4"/>
     <use xlink:href="#mf1478418d8" x="79.879479" y="198.051132" style="fill: #1f77b4; stroke: #1f77b4"/>
     <use xlink:href="#mf1478418d8" x="81.510909" y="197.947152" style="fill: #1f77b4; stroke: #1f77b4"/>
     <use xlink:href="#mf1478418d8" x="83.142339" y="198.474115" style="fill: #1f77b4; stroke: #1f77b4"/>
     <use xlink:href="#mf1478418d8" x="84.773768" y="198.457308" style="fill: #1f77b4; stroke: #1f77b4"/>
     <use xlink:href="#mf1478418d8" x="86.405198" y="198.78132" style="fill: #1f77b4; stroke: #1f77b4"/>
     <use xlink:href="#mf1478418d8" x="88.036628" y="198.78939" style="fill: #1f77b4; stroke: #1f77b4"/>
     <use xlink:href="#mf1478418d8" x="89.668058" y="199.046172" style="fill: #1f77b4; stroke: #1f77b4"/>
     <use xlink:href="#mf1478418d8" x="91.299488" y="199.130363" style="fill: #1f77b4; stroke: #1f77b4"/>
     <use xlink:href="#mf1478418d8" x="92.930918" y="199.127396" style="fill: #1f77b4; stroke: #1f77b4"/>
     <use xlink:href="#mf1478418d8" x="94.562348" y="199.232435" style="fill: #1f77b4; stroke: #1f77b4"/>
     <use xlink:href="#mf1478418d8" x="96.193778" y="199.776293" style="fill: #1f77b4; stroke: #1f77b4"/>
     <use xlink:href="#mf1478418d8" x="97.825207" y="199.897321" style="fill: #1f77b4; stroke: #1f77b4"/>
     <use xlink:href="#mf1478418d8" x="99.456637" y="199.858558" style="fill: #1f77b4; stroke: #1f77b4"/>
     <use xlink:href="#mf1478418d8" x="101.088067" y="200.003011" style="fill: #1f77b4; stroke: #1f77b4"/>
     <use xlink:href="#mf1478418d8" x="102.719497" y="200.333397" style="fill: #1f77b4; stroke: #1f77b4"/>
     <use xlink:href="#mf1478418d8" x="104.350927" y="200.286978" style="fill: #1f77b4; stroke: #1f77b4"/>
     <use xlink:href="#mf1478418d8" x="105.982357" y="200.607635" style="fill: #1f77b4; stroke: #1f77b4"/>
     <use xlink:href="#mf1478418d8" x="107.613787" y="200.548986" style="fill: #1f77b4; stroke: #1f77b4"/>
     <use xlink:href="#mf1478418d8" x="109.245217" y="200.824757" style="fill: #1f77b4; stroke: #1f77b4"/>
     <use xlink:href="#mf1478418d8" x="110.876646" y="201.12003" style="fill: #1f77b4; stroke: #1f77b4"/>
     <use xlink:href="#mf1478418d8" x="112.508076" y="201.474404" style="fill: #1f77b4; stroke: #1f77b4"/>
     <use xlink:href="#mf1478418d8" x="114.139506" y="201.327101" style="fill: #1f77b4; stroke: #1f77b4"/>
     <use xlink:href="#mf1478418d8" x="115.770936" y="201.578811" style="fill: #1f77b4; stroke: #1f77b4"/>
     <use xlink:href="#mf1478418d8" x="117.402366" y="201.811415" style="fill: #1f77b4; stroke: #1f77b4"/>
     <use xlink:href="#mf1478418d8" x="119.033796" y="202.115757" style="fill: #1f77b4; stroke: #1f77b4"/>
     <use xlink:href="#mf1478418d8" x="120.665226" y="202.034484" style="fill: #1f77b4; stroke: #1f77b4"/>
     <use xlink:href="#mf1478418d8" x="122.296656" y="202.359855" style="fill: #1f77b4; stroke: #1f77b4"/>
     <use xlink:href="#mf1478418d8" x="123.928085" y="202.811547" style="fill: #1f77b4; stroke: #1f77b4"/>
     <use xlink:href="#mf1478418d8" x="125.559515" y="202.843914" style="fill: #1f77b4; stroke: #1f77b4"/>
     <use xlink:href="#mf1478418d8" x="127.190945" y="202.965204" style="fill: #1f77b4; stroke: #1f77b4"/>
     <use xlink:href="#mf1478418d8" x="128.822375" y="203.124857" style="fill: #1f77b4; stroke: #1f77b4"/>
     <use xlink:href="#mf1478418d8" x="130.453805" y="203.647706" style="fill: #1f77b4; stroke: #1f77b4"/>
     <use xlink:href="#mf1478418d8" x="132.085235" y="203.600767" style="fill: #1f77b4; stroke: #1f77b4"/>
     <use xlink:href="#mf1478418d8" x="133.716665" y="203.945298" style="fill: #1f77b4; stroke: #1f77b4"/>
     <use xlink:href="#mf1478418d8" x="135.348095" y="203.923251" style="fill: #1f77b4; stroke: #1f77b4"/>
     <use xlink:href="#mf1478418d8" x="136.979524" y="204.337258" style="fill: #1f77b4; stroke: #1f77b4"/>
     <use xlink:href="#mf1478418d8" x="138.610954" y="204.443528" style="fill: #1f77b4; stroke: #1f77b4"/>
     <use xlink:href="#mf1478418d8" x="140.242384" y="204.735668" style="fill: #1f77b4; stroke: #1f77b4"/>
     <use xlink:href="#mf1478418d8" x="141.873814" y="205.161174" style="fill: #1f77b4; stroke: #1f77b4"/>
     <use xlink:href="#mf1478418d8" x="143.505244" y="205.283563" style="fill: #1f77b4; stroke: #1f77b4"/>
     <use xlink:href="#mf1478418d8" x="145.136674" y="205.83217" style="fill: #1f77b4; stroke: #1f77b4"/>
     <use xlink:href="#mf1478418d8" x="146.768104" y="206.031447" style="fill: #1f77b4; stroke: #1f77b4"/>
     <use xlink:href="#mf1478418d8" x="148.399534" y="206.336006" style="fill: #1f77b4; stroke: #1f77b4"/>
     <use xlink:href="#mf1478418d8" x="150.030963" y="206.420791" style="fill: #1f77b4; stroke: #1f77b4"/>
     <use xlink:href="#mf1478418d8" x="151.662393" y="207.163502" style="fill: #1f77b4; stroke: #1f77b4"/>
     <use xlink:href="#mf1478418d8" x="153.293823" y="207.479906" style="fill: #1f77b4; stroke: #1f77b4"/>
     <use xlink:href="#mf1478418d8" x="154.925253" y="207.646616" style="fill: #1f77b4; stroke: #1f77b4"/>
     <use xlink:href="#mf1478418d8" x="156.556683" y="207.699798" style="fill: #1f77b4; stroke: #1f77b4"/>
     <use xlink:href="#mf1478418d8" x="158.188113" y="208.106341" style="fill: #1f77b4; stroke: #1f77b4"/>
     <use xlink:href="#mf1478418d8" x="159.819543" y="208.890492" style="fill: #1f77b4; stroke: #1f77b4"/>
     <use xlink:href="#mf1478418d8" x="161.450973" y="209.306105" style="fill: #1f77b4; stroke: #1f77b4"/>
     <use xlink:href="#mf1478418d8" x="163.082402" y="209.699345" style="fill: #1f77b4; stroke: #1f77b4"/>
     <use xlink:href="#mf1478418d8" x="164.713832" y="210.143869" style="fill: #1f77b4; stroke: #1f77b4"/>
     <use xlink:href="#mf1478418d8" x="166.345262" y="210.159596" style="fill: #1f77b4; stroke: #1f77b4"/>
     <use xlink:href="#mf1478418d8" x="167.976692" y="211.1646" style="fill: #1f77b4; stroke: #1f77b4"/>
     <use xlink:href="#mf1478418d8" x="169.608122" y="211.608337" style="fill: #1f77b4; stroke: #1f77b4"/>
     <use xlink:href="#mf1478418d8" x="171.239552" y="212.089147" style="fill: #1f77b4; stroke: #1f77b4"/>
     <use xlink:href="#mf1478418d8" x="172.870982" y="212.428015" style="fill: #1f77b4; stroke: #1f77b4"/>
     <use xlink:href="#mf1478418d8" x="174.502412" y="213.361285" style="fill: #1f77b4; stroke: #1f77b4"/>
     <use xlink:href="#mf1478418d8" x="176.133842" y="214.144716" style="fill: #1f77b4; stroke: #1f77b4"/>
     <use xlink:href="#mf1478418d8" x="177.765271" y="214.681482" style="fill: #1f77b4; stroke: #1f77b4"/>
     <use xlink:href="#mf1478418d8" x="179.396701" y="215.433325" style="fill: #1f77b4; stroke: #1f77b4"/>
     <use xlink:href="#mf1478418d8" x="181.028131" y="215.586744" style="fill: #1f77b4; stroke: #1f77b4"/>
     <use xlink:href="#mf1478418d8" x="182.659561" y="216.996297" style="fill: #1f77b4; stroke: #1f77b4"/>
     <use xlink:href="#mf1478418d8" x="184.290991" y="217.183944" style="fill: #1f77b4; stroke: #1f77b4"/>
     <use xlink:href="#mf1478418d8" x="185.922421" y="218.457243" style="fill: #1f77b4; stroke: #1f77b4"/>
     <use xlink:href="#mf1478418d8" x="187.553851" y="218.799959" style="fill: #1f77b4; stroke: #1f77b4"/>
     <use xlink:href="#mf1478418d8" x="189.185281" y="219.243097" style="fill: #1f77b4; stroke: #1f77b4"/>
     <use xlink:href="#mf1478418d8" x="190.81671" y="219.49954" style="fill: #1f77b4; stroke: #1f77b4"/>
     <use xlink:href="#mf1478418d8" x="192.44814" y="219.71602" style="fill: #1f77b4; stroke: #1f77b4"/>
     <use xlink:href="#mf1478418d8" x="194.07957" y="219.744554" style="fill: #1f77b4; stroke: #1f77b4"/>
     <use xlink:href="#mf1478418d8" x="195.711" y="216.418548" style="fill: #1f77b4; stroke: #1f77b4"/>
     <use xlink:href="#mf1478418d8" x="197.34243" y="216.931171" style="fill: #1f77b4; stroke: #1f77b4"/>
     <use xlink:href="#mf1478418d8" x="198.97386" y="211.362262" style="fill: #1f77b4; stroke: #1f77b4"/>
     <use xlink:href="#mf1478418d8" x="200.60529" y="202.706164" style="fill: #1f77b4; stroke: #1f77b4"/>
     <use xlink:href="#mf1478418d8" x="202.23672" y="197.955351" style="fill: #1f77b4; stroke: #1f77b4"/>
     <use xlink:href="#mf1478418d8" x="203.868149" y="194.66065" style="fill: #1f77b4; stroke: #1f77b4"/>
     <use xlink:href="#mf1478418d8" x="205.499579" y="193.419997" style="fill: #1f77b4; stroke: #1f77b4"/>
     <use xlink:href="#mf1478418d8" x="207.131009" y="301.971916" style="fill: #1f77b4; stroke: #1f77b4"/>
     <use xlink:href="#mf1478418d8" x="208.762439" y="192.591159" style="fill: #1f77b4; stroke: #1f77b4"/>
     <use xlink:href="#mf1478418d8" x="210.393869" y="301.854814" style="fill: #1f77b4; stroke: #1f77b4"/>
     <use xlink:href="#mf1478418d8" x="212.025299" y="301.516393" style="fill: #1f77b4; stroke: #1f77b4"/>
     <use xlink:href="#mf1478418d8" x="213.656729" y="192.475627" style="fill: #1f77b4; stroke: #1f77b4"/>
     <use xlink:href="#mf1478418d8" x="215.288159" y="193.095193" style="fill: #1f77b4; stroke: #1f77b4"/>
     <use xlink:href="#mf1478418d8" x="216.919588" y="193.387481" style="fill: #1f77b4; stroke: #1f77b4"/>
     <use xlink:href="#mf1478418d8" x="218.551018" y="193.699535" style="fill: #1f77b4; stroke: #1f77b4"/>
     <use xlink:href="#mf1478418d8" x="220.182448" y="194.348325" style="fill: #1f77b4; stroke: #1f77b4"/>
     <use xlink:href="#mf1478418d8" x="221.813878" y="195.775119" style="fill: #1f77b4; stroke: #1f77b4"/>
     <use xlink:href="#mf1478418d8" x="223.445308" y="195.403306" style="fill: #1f77b4; stroke: #1f77b4"/>
     <use xlink:href="#mf1478418d8" x="225.076738" y="195.737386" style="fill: #1f77b4; stroke: #1f77b4"/>
     <use xlink:href="#mf1478418d8" x="226.708168" y="196.41252" style="fill: #1f77b4; stroke: #1f77b4"/>
     <use xlink:href="#mf1478418d8" x="228.339598" y="197.183823" style="fill: #1f77b4; stroke: #1f77b4"/>
     <use xlink:href="#mf1478418d8" x="229.971027" y="198.34345" style="fill: #1f77b4; stroke: #1f77b4"/>
     <use xlink:href="#mf1478418d8" x="231.602457" y="197.803613" style="fill: #1f77b4; stroke: #1f77b4"/>
     <use xlink:href="#mf1478418d8" x="233.233887" y="198.370907" style="fill: #1f77b4; stroke: #1f77b4"/>
     <use xlink:href="#mf1478418d8" x="234.865317" y="199.097509" style="fill: #1f77b4; stroke: #1f77b4"/>
     <use xlink:href="#mf1478418d8" x="236.496747" y="198.942202" style="fill: #1f77b4; stroke: #1f77b4"/>
     <use xlink:href="#mf1478418d8" x="238.128177" y="199.873153" style="fill: #1f77b4; stroke: #1f77b4"/>
     <use xlink:href="#mf1478418d8" x="239.759607" y="200.650642" style="fill: #1f77b4; stroke: #1f77b4"/>
     <use xlink:href="#mf1478418d8" x="241.391037" y="200.943868" style="fill: #1f77b4; stroke: #1f77b4"/>
     <use xlink:href="#mf1478418d8" x="243.022466" y="200.82792" style="fill: #1f77b4; stroke: #1f77b4"/>
     <use xlink:href="#mf1478418d8" x="244.653896" y="201.223434" style="fill: #1f77b4; stroke: #1f77b4"/>
     <use xlink:href="#mf1478418d8" x="246.285326" y="201.943458" style="fill: #1f77b4; stroke: #1f77b4"/>
     <use xlink:href="#mf1478418d8" x="247.916756" y="202.492299" style="fill: #1f77b4; stroke: #1f77b4"/>
     <use xlink:href="#mf1478418d8" x="249.548186" y="202.300116" style="fill: #1f77b4; stroke: #1f77b4"/>
     <use xlink:href="#mf1478418d8" x="251.179616" y="202.88755" style="fill: #1f77b4; stroke: #1f77b4"/>
     <use xlink:href="#mf1478418d8" x="252.811046" y="203.430082" style="fill: #1f77b4; stroke: #1f77b4"/>
     <use xlink:href="#mf1478418d8" x="254.442476" y="203.629323" style="fill: #1f77b4; stroke: #1f77b4"/>
     <use xlink:href="#mf1478418d8" x="256.073905" y="203.761296" style="fill: #1f77b4; stroke: #1f77b4"/>
     <use xlink:href="#mf1478418d8" x="257.705335" y="204.575946" style="fill: #1f77b4; stroke: #1f77b4"/>
     <use xlink:href="#mf1478418d8" x="259.336765" y="205.236859" style="fill: #1f77b4; stroke: #1f77b4"/>
     <use xlink:href="#mf1478418d8" x="260.968195" y="205.289616" style="fill: #1f77b4; stroke: #1f77b4"/>
     <use xlink:href="#mf1478418d8" x="262.599625" y="205.929384" style="fill: #1f77b4; stroke: #1f77b4"/>
     <use xlink:href="#mf1478418d8" x="264.231055" y="205.820708" style="fill: #1f77b4; stroke: #1f77b4"/>
     <use xlink:href="#mf1478418d8" x="265.862485" y="206.050285" style="fill: #1f77b4; stroke: #1f77b4"/>
     <use xlink:href="#mf1478418d8" x="267.493915" y="206.58359" style="fill: #1f77b4; stroke: #1f77b4"/>
     <use xlink:href="#mf1478418d8" x="269.125344" y="207.220666" style="fill: #1f77b4; stroke: #1f77b4"/>
     <use xlink:href="#mf1478418d8" x="270.756774" y="208.334675" style="fill: #1f77b4; stroke: #1f77b4"/>
     <use xlink:href="#mf1478418d8" x="272.388204" y="207.908757" style="fill: #1f77b4; stroke: #1f77b4"/>
     <use xlink:href="#mf1478418d8" x="274.019634" y="208.85926" style="fill: #1f77b4; stroke: #1f77b4"/>
     <use xlink:href="#mf1478418d8" x="275.651064" y="208.992504" style="fill: #1f77b4; stroke: #1f77b4"/>
     <use xlink:href="#mf1478418d8" x="277.282494" y="209.829128" style="fill: #1f77b4; stroke: #1f77b4"/>
     <use xlink:href="#mf1478418d8" x="278.913924" y="210.220714" style="fill: #1f77b4; stroke: #1f77b4"/>
     <use xlink:href="#mf1478418d8" x="280.545354" y="211.154552" style="fill: #1f77b4; stroke: #1f77b4"/>
     <use xlink:href="#mf1478418d8" x="282.176783" y="211.815742" style="fill: #1f77b4; stroke: #1f77b4"/>
     <use xlink:href="#mf1478418d8" x="283.808213" y="211.052001" style="fill: #1f77b4; stroke: #1f77b4"/>
     <use xlink:href="#mf1478418d8" x="285.439643" y="212.309209" style="fill: #1f77b4; stroke: #1f77b4"/>
     <use xlink:href="#mf1478418d8" x="287.071073" y="212.232944" style="fill: #1f77b4; stroke: #1f77b4"/>
     <use xlink:href="#mf1478418d8" x="288.702503" y="213.38395" style="fill: #1f77b4; stroke: #1f77b4"/>
     <use xlink:href="#mf1478418d8" x="290.333933" y="213.896821" style="fill: #1f77b4; stroke: #1f77b4"/>
     <use xlink:href="#mf1478418d8" x="291.965363" y="214.487851" style="fill: #1f77b4; stroke: #1f77b4"/>
     <use xlink:href="#mf1478418d8" x="293.596793" y="214.93858" style="fill: #1f77b4; stroke: #1f77b4"/>
     <use xlink:href="#mf1478418d8" x="295.228223" y="214.880936" style="fill: #1f77b4; stroke: #1f77b4"/>
     <use xlink:href="#mf1478418d8" x="296.859652" y="217.088132" style="fill: #1f77b4; stroke: #1f77b4"/>
     <use xlink:href="#mf1478418d8" x="298.491082" y="217.028193" style="fill: #1f77b4; stroke: #1f77b4"/>
     <use xlink:href="#mf1478418d8" x="300.122512" y="218.608128" style="fill: #1f77b4; stroke: #1f77b4"/>
     <use xlink:href="#mf1478418d8" x="301.753942" y="218.34173" style="fill: #1f77b4; stroke: #1f77b4"/>
     <use xlink:href="#mf1478418d8" x="303.385372" y="219.823316" style="fill: #1f77b4; stroke: #1f77b4"/>
     <use xlink:href="#mf1478418d8" x="305.016802" y="221.098231" style="fill: #1f77b4; stroke: #1f77b4"/>
     <use xlink:href="#mf1478418d8" x="306.648232" y="222.514574" style="fill: #1f77b4; stroke: #1f77b4"/>
     <use xlink:href="#mf1478418d8" x="308.279662" y="223.674623" style="fill: #1f77b4; stroke: #1f77b4"/>
     <use xlink:href="#mf1478418d8" x="309.911091" y="223.554891" style="fill: #1f77b4; stroke: #1f77b4"/>
     <use xlink:href="#mf1478418d8" x="311.542521" y="227.180051" style="fill: #1f77b4; stroke: #1f77b4"/>
     <use xlink:href="#mf1478418d8" x="313.173951" y="225.653211" style="fill: #1f77b4; stroke: #1f77b4"/>
     <use xlink:href="#mf1478418d8" x="314.805381" y="228.927628" style="fill: #1f77b4; stroke: #1f77b4"/>
     <use xlink:href="#mf1478418d8" x="316.436811" y="231.22775" style="fill: #1f77b4; stroke: #1f77b4"/>
     <use xlink:href="#mf1478418d8" x="318.068241" y="232.534046" style="fill: #1f77b4; stroke: #1f77b4"/>
     <use xlink:href="#mf1478418d8" x="319.699671" y="233.872787" style="fill: #1f77b4; stroke: #1f77b4"/>
     <use xlink:href="#mf1478418d8" x="321.331101" y="236.891702" style="fill: #1f77b4; stroke: #1f77b4"/>
     <use xlink:href="#mf1478418d8" x="322.96253" y="238.341379" style="fill: #1f77b4; stroke: #1f77b4"/>
     <use xlink:href="#mf1478418d8" x="324.59396" y="239.005247" style="fill: #1f77b4; stroke: #1f77b4"/>
     <use xlink:href="#mf1478418d8" x="326.22539" y="240.836897" style="fill: #1f77b4; stroke: #1f77b4"/>
     <use xlink:href="#mf1478418d8" x="327.85682" y="249.061324" style="fill: #1f77b4; stroke: #1f77b4"/>
     <use xlink:href="#mf1478418d8" x="329.48825" y="251.872439" style="fill: #1f77b4; stroke: #1f77b4"/>
     <use xlink:href="#mf1478418d8" x="331.11968" y="253.522602" style="fill: #1f77b4; stroke: #1f77b4"/>
     <use xlink:href="#mf1478418d8" x="332.75111" y="253.581446" style="fill: #1f77b4; stroke: #1f77b4"/>
     <use xlink:href="#mf1478418d8" x="334.38254" y="253.700547" style="fill: #1f77b4; stroke: #1f77b4"/>
     <use xlink:href="#mf1478418d8" x="336.013969" y="261.855484" style="fill: #1f77b4; stroke: #1f77b4"/>
     <use xlink:href="#mf1478418d8" x="337.645399" y="231.58277" style="fill: #1f77b4; stroke: #1f77b4"/>
     <use xlink:href="#mf1478418d8" x="339.276829" y="262.046479" style="fill: #1f77b4; stroke: #1f77b4"/>
     <use xlink:href="#mf1478418d8" x="340.908259" y="289.971952" style="fill: #1f77b4; stroke: #1f77b4"/>
     <use xlink:href="#mf1478418d8" x="342.539689" y="197.691934" style="fill: #1f77b4; stroke: #1f77b4"/>
     <use xlink:href="#mf1478418d8" x="344.171119" y="200.118695" style="fill: #1f77b4; stroke: #1f77b4"/>
     <use xlink:href="#mf1478418d8" x="345.802549" y="299.012825" style="fill: #1f77b4; stroke: #1f77b4"/>
     <use xlink:href="#mf1478418d8" x="347.433979" y="273.805448" style="fill: #1f77b4; stroke: #1f77b4"/>
     <use xlink:href="#mf1478418d8" x="349.065408" y="286.310102" style="fill: #1f77b4; stroke: #1f77b4"/>
     <use xlink:href="#mf1478418d8" x="350.696838" y="232.486235" style="fill: #1f77b4; stroke: #1f77b4"/>
     <use xlink:href="#mf1478418d8" x="352.328268" y="274.424085" style="fill: #1f77b4; stroke: #1f77b4"/>
     <use xlink:href="#mf1478418d8" x="353.959698" y="194.357405" style="fill: #1f77b4; stroke: #1f77b4"/>
     <use xlink:href="#mf1478418d8" x="355.591128" y="211.269115" style="fill: #1f77b4; stroke: #1f77b4"/>
     <use xlink:href="#mf1478418d8" x="357.222558" y="213.35417" style="fill: #1f77b4; stroke: #1f77b4"/>
     <use xlink:href="#mf1478418d8" x="358.853988" y="298.26619" style="fill: #1f77b4; stroke: #1f77b4"/>
     <use xlink:href="#mf1478418d8" x="360.485418" y="267.516115" style="fill: #1f77b4; stroke: #1f77b4"/>
     <use xlink:href="#mf1478418d8" x="362.116847" y="260.448171" style="fill: #1f77b4; stroke: #1f77b4"/>
     <use xlink:href="#mf1478418d8" x="363.748277" y="261.790737" style="fill: #1f77b4; stroke: #1f77b4"/>
     <use xlink:href="#mf1478418d8" x="365.379707" y="269.945386" style="fill: #1f77b4; stroke: #1f77b4"/>
     <use xlink:href="#mf1478418d8" x="367.011137" y="274.910681" style="fill: #1f77b4; stroke: #1f77b4"/>
     <use xlink:href="#mf1478418d8" x="368.642567" y="274.829462" style="fill: #1f77b4; stroke: #1f77b4"/>
     <use xlink:href="#mf1478418d8" x="370.273997" y="276.781175" style="fill: #1f77b4; stroke: #1f77b4"/>
     <use xlink:href="#mf1478418d8" x="371.905427" y="279.548263" style="fill: #1f77b4; stroke: #1f77b4"/>
     <use xlink:href="#mf1478418d8" x="373.536857" y="278.343792" style="fill: #1f77b4; stroke: #1f77b4"/>
     <use xlink:href="#mf1478418d8" x="375.168286" y="279.83181" style="fill: #1f77b4; stroke: #1f77b4"/>
     <use xlink:href="#mf1478418d8" x="376.799716" y="282.446152" style="fill: #1f77b4; stroke: #1f77b4"/>
     <use xlink:href="#mf1478418d8" x="378.431146" y="283.738555" style="fill: #1f77b4; stroke: #1f77b4"/>
     <use xlink:href="#mf1478418d8" x="380.062576" y="286.698795" style="fill: #1f77b4; stroke: #1f77b4"/>
     <use xlink:href="#mf1478418d8" x="381.694006" y="288.684708" style="fill: #1f77b4; stroke: #1f77b4"/>
     <use xlink:href="#mf1478418d8" x="383.325436" y="290.197361" style="fill: #1f77b4; stroke: #1f77b4"/>
     <use xlink:href="#mf1478418d8" x="384.956866" y="290.618453" style="fill: #1f77b4; stroke: #1f77b4"/>
     <use xlink:href="#mf1478418d8" x="386.588296" y="290.55022" style="fill: #1f77b4; stroke: #1f77b4"/>
     <use xlink:href="#mf1478418d8" x="388.219725" y="293.426465" style="fill: #1f77b4; stroke: #1f77b4"/>
     <use xlink:href="#mf1478418d8" x="389.851155" y="293.679225" style="fill: #1f77b4; stroke: #1f77b4"/>
     <use xlink:href="#mf1478418d8" x="391.482585" y="294.884386" style="fill: #1f77b4; stroke: #1f77b4"/>
    </g>
   </g>
   <g id="line2d_28">
    <path d="M 66.82804 283.598475 
L 125.974313 302.373818 
L 126.299293 192.410182 
L 325.511742 255.531791 
L 339.160882 259.653642 
L 344.685534 261.125433 
L 347.935329 261.78349 
L 349.885206 261.987448 
L 351.185124 261.959098 
L 352.160063 261.785989 
L 353.135001 261.397036 
L 353.78496 260.949875 
L 354.434919 260.271772 
L 355.084878 259.248276 
L 355.734837 257.699066 
L 356.384797 255.358227 
L 357.034756 251.929814 
L 359.309612 237.552327 
L 359.634592 236.736682 
L 359.959571 236.36342 
L 360.284551 236.424009 
L 360.60953 236.917526 
L 360.93451 237.85142 
L 361.584469 241.06009 
L 362.559408 248.453629 
L 363.534346 255.595246 
L 364.184305 258.970963 
L 364.834264 261.369735 
L 365.484223 263.093688 
L 366.459162 264.897204 
L 367.4341 266.150433 
L 368.734018 267.356745 
L 370.358916 268.468671 
L 372.308793 269.510095 
L 375.233609 270.790476 
L 379.783322 272.501152 
L 387.582831 275.163602 
L 391.482585 276.447211 
L 391.482585 276.447211 
" clip-path="url(#pbc23ed2094)" style="fill: none; stroke: #d62728; stroke-width: 1.5; stroke-linecap: square"/>
   </g>
   <g id="patch_9">
    <path d="M 50.595313 307.872 
L 50.595313 186.912 
" style="fill: none; stroke: #000000; stroke-width: 0.8; stroke-linejoin: miter; stroke-linecap: square"/>
   </g>
   <g id="patch_10">
    <path d="M 407.715312 307.872 
L 407.715312 186.912 
" style="fill: none; stroke: #000000; stroke-width: 0.8; stroke-linejoin: miter; stroke-linecap: square"/>
   </g>
   <g id="patch_11">
    <path d="M 50.595312 307.872 
L 407.715312 307.872 
" style="fill: none; stroke: #000000; stroke-width: 0.8; stroke-linejoin: miter; stroke-linecap: square"/>
   </g>
   <g id="patch_12">
    <path d="M 50.595312 186.912 
L 407.715312 186.912 
" style="fill: none; stroke: #000000; stroke-width: 0.8; stroke-linejoin: miter; stroke-linecap: square"/>
   </g>
  </g>
  <g id="text_22">
   <!-- S21 resonator spectroscopy -->
   <g transform="translate(139.610938 16.318125) scale(0.12 -0.12)">
    <defs>
     <path id="DejaVuSans-53" d="M 3425 4513 
L 3425 3897 
Q 3066 4069 2747 4153 
Q 2428 4238 2131 4238 
Q 1616 4238 1336 4038 
Q 1056 3838 1056 3469 
Q 1056 3159 1242 3001 
Q 1428 2844 1947 2747 
L 2328 2669 
Q 3034 2534 3370 2195 
Q 3706 1856 3706 1288 
Q 3706 609 3251 259 
Q 2797 -91 1919 -91 
Q 1588 -91 1214 -16 
Q 841 59 441 206 
L 441 856 
Q 825 641 1194 531 
Q 1563 422 1919 422 
Q 2459 422 2753 634 
Q 3047 847 3047 1241 
Q 3047 1584 2836 1778 
Q 2625 1972 2144 2069 
L 1759 2144 
Q 1053 2284 737 2584 
Q 422 2884 422 3419 
Q 422 4038 858 4394 
Q 1294 4750 2059 4750 
Q 2388 4750 2728 4690 
Q 3069 4631 3425 4513 
z
" transform="scale(0.015625)"/>
     <path id="DejaVuSans-70" d="M 1159 525 
L 1159 -1331 
L 581 -1331 
L 581 3500 
L 1159 3500 
L 1159 2969 
Q 1341 3281 1617 3432 
Q 1894 3584 2278 3584 
Q 2916 3584 3314 3078 
Q 3713 2572 3713 1747 
Q 3713 922 3314 415 
Q 2916 -91 2278 -91 
Q 1894 -91 1617 61 
Q 1341 213 1159 525 
z
M 3116 1747 
Q 3116 2381 2855 2742 
Q 2594 3103 2138 3103 
Q 1681 3103 1420 2742 
Q 1159 2381 1159 1747 
Q 1159 1113 1420 752 
Q 1681 391 2138 391 
Q 2594 391 2855 752 
Q 3116 1113 3116 1747 
z
" transform="scale(0.015625)"/>
    </defs>
    <use xlink:href="#DejaVuSans-53"/>
    <use xlink:href="#DejaVuSans-32" x="63.476562"/>
    <use xlink:href="#DejaVuSans-31" x="127.099609"/>
    <use xlink:href="#DejaVuSans-20" x="190.722656"/>
    <use xlink:href="#DejaVuSans-72" x="222.509766"/>
    <use xlink:href="#DejaVuSans-65" x="261.373047"/>
    <use xlink:href="#DejaVuSans-73" x="322.896484"/>
    <use xlink:href="#DejaVuSans-6f" x="374.996094"/>
    <use xlink:href="#DejaVuSans-6e" x="436.177734"/>
    <use xlink:href="#DejaVuSans-61" x="499.556641"/>
    <use xlink:href="#DejaVuSans-74" x="560.835938"/>
    <use xlink:href="#DejaVuSans-6f" x="600.044922"/>
    <use xlink:href="#DejaVuSans-72" x="661.226562"/>
    <use xlink:href="#DejaVuSans-20" x="702.339844"/>
    <use xlink:href="#DejaVuSans-73" x="734.126953"/>
    <use xlink:href="#DejaVuSans-70" x="786.226562"/>
    <use xlink:href="#DejaVuSans-65" x="849.703125"/>
    <use xlink:href="#DejaVuSans-63" x="911.226562"/>
    <use xlink:href="#DejaVuSans-74" x="966.207031"/>
    <use xlink:href="#DejaVuSans-72" x="1005.416016"/>
    <use xlink:href="#DejaVuSans-6f" x="1044.279297"/>
    <use xlink:href="#DejaVuSans-73" x="1105.460938"/>
    <use xlink:href="#DejaVuSans-63" x="1157.560547"/>
    <use xlink:href="#DejaVuSans-6f" x="1212.541016"/>
    <use xlink:href="#DejaVuSans-70" x="1273.722656"/>
    <use xlink:href="#DejaVuSans-79" x="1337.199219"/>
   </g>
   <!-- tuid: 20231227-131739-569-0624e7 -->
   <g transform="translate(113.665625 29.7555) scale(0.12 -0.12)">
    <defs>
     <path id="DejaVuSans-33" d="M 2597 2516 
Q 3050 2419 3304 2112 
Q 3559 1806 3559 1356 
Q 3559 666 3084 287 
Q 2609 -91 1734 -91 
Q 1441 -91 1130 -33 
Q 819 25 488 141 
L 488 750 
Q 750 597 1062 519 
Q 1375 441 1716 441 
Q 2309 441 2620 675 
Q 2931 909 2931 1356 
Q 2931 1769 2642 2001 
Q 2353 2234 1838 2234 
L 1294 2234 
L 1294 2753 
L 1863 2753 
Q 2328 2753 2575 2939 
Q 2822 3125 2822 3475 
Q 2822 3834 2567 4026 
Q 2313 4219 1838 4219 
Q 1578 4219 1281 4162 
Q 984 4106 628 3988 
L 628 4550 
Q 988 4650 1302 4700 
Q 1616 4750 1894 4750 
Q 2613 4750 3031 4423 
Q 3450 4097 3450 3541 
Q 3450 3153 3228 2886 
Q 3006 2619 2597 2516 
z
" transform="scale(0.015625)"/>
     <path id="DejaVuSans-37" d="M 525 4666 
L 3525 4666 
L 3525 4397 
L 1831 0 
L 1172 0 
L 2766 4134 
L 525 4134 
L 525 4666 
z
" transform="scale(0.015625)"/>
     <path id="DejaVuSans-39" d="M 703 97 
L 703 672 
Q 941 559 1184 500 
Q 1428 441 1663 441 
Q 2288 441 2617 861 
Q 2947 1281 2994 2138 
Q 2813 1869 2534 1725 
Q 2256 1581 1919 1581 
Q 1219 1581 811 2004 
Q 403 2428 403 3163 
Q 403 3881 828 4315 
Q 1253 4750 1959 4750 
Q 2769 4750 3195 4129 
Q 3622 3509 3622 2328 
Q 3622 1225 3098 567 
Q 2575 -91 1691 -91 
Q 1453 -91 1209 -44 
Q 966 3 703 97 
z
M 1959 2075 
Q 2384 2075 2632 2365 
Q 2881 2656 2881 3163 
Q 2881 3666 2632 3958 
Q 2384 4250 1959 4250 
Q 1534 4250 1286 3958 
Q 1038 3666 1038 3163 
Q 1038 2656 1286 2365 
Q 1534 2075 1959 2075 
z
" transform="scale(0.015625)"/>
     <path id="DejaVuSans-35" d="M 691 4666 
L 3169 4666 
L 3169 4134 
L 1269 4134 
L 1269 2991 
Q 1406 3038 1543 3061 
Q 1681 3084 1819 3084 
Q 2600 3084 3056 2656 
Q 3513 2228 3513 1497 
Q 3513 744 3044 326 
Q 2575 -91 1722 -91 
Q 1428 -91 1123 -41 
Q 819 9 494 109 
L 494 744 
Q 775 591 1075 516 
Q 1375 441 1709 441 
Q 2250 441 2565 725 
Q 2881 1009 2881 1497 
Q 2881 1984 2565 2268 
Q 2250 2553 1709 2553 
Q 1456 2553 1204 2497 
Q 953 2441 691 2322 
L 691 4666 
z
" transform="scale(0.015625)"/>
    </defs>
    <use xlink:href="#DejaVuSans-74"/>
    <use xlink:href="#DejaVuSans-75" x="39.208984"/>
    <use xlink:href="#DejaVuSans-69" x="102.587891"/>
    <use xlink:href="#DejaVuSans-64" x="130.371094"/>
    <use xlink:href="#DejaVuSans-3a" x="193.847656"/>
    <use xlink:href="#DejaVuSans-20" x="227.539062"/>
    <use xlink:href="#DejaVuSans-32" x="259.326172"/>
    <use xlink:href="#DejaVuSans-30" x="322.949219"/>
    <use xlink:href="#DejaVuSans-32" x="386.572266"/>
    <use xlink:href="#DejaVuSans-33" x="450.195312"/>
    <use xlink:href="#DejaVuSans-31" x="513.818359"/>
    <use xlink:href="#DejaVuSans-32" x="577.441406"/>
    <use xlink:href="#DejaVuSans-32" x="641.064453"/>
    <use xlink:href="#DejaVuSans-37" x="704.6875"/>
    <use xlink:href="#DejaVuSans-2d" x="768.310547"/>
    <use xlink:href="#DejaVuSans-31" x="804.394531"/>
    <use xlink:href="#DejaVuSans-33" x="868.017578"/>
    <use xlink:href="#DejaVuSans-31" x="931.640625"/>
    <use xlink:href="#DejaVuSans-37" x="995.263672"/>
    <use xlink:href="#DejaVuSans-33" x="1058.886719"/>
    <use xlink:href="#DejaVuSans-39" x="1122.509766"/>
    <use xlink:href="#DejaVuSans-2d" x="1186.132812"/>
    <use xlink:href="#DejaVuSans-35" x="1222.216797"/>
    <use xlink:href="#DejaVuSans-36" x="1285.839844"/>
    <use xlink:href="#DejaVuSans-39" x="1349.462891"/>
    <use xlink:href="#DejaVuSans-2d" x="1413.085938"/>
    <use xlink:href="#DejaVuSans-30" x="1449.169922"/>
    <use xlink:href="#DejaVuSans-36" x="1512.792969"/>
    <use xlink:href="#DejaVuSans-32" x="1576.416016"/>
    <use xlink:href="#DejaVuSans-34" x="1640.039062"/>
    <use xlink:href="#DejaVuSans-65" x="1703.662109"/>
    <use xlink:href="#DejaVuSans-37" x="1765.185547"/>
   </g>
  </g>
 </g>
 <defs>
  <clipPath id="p7f05851aa3">
   <rect x="50.595313" y="41.76" width="357.12" height="120.96"/>
  </clipPath>
  <clipPath id="pbc23ed2094">
   <rect x="50.595313" y="186.912" width="357.12" height="120.96"/>
  </clipPath>
 </defs>
</svg>
