<?xml version="1.0" encoding="utf-8" standalone="no"?>
<!DOCTYPE svg PUBLIC "-//W3C//DTD SVG 1.1//EN"
  "http://www.w3.org/Graphics/SVG/1.1/DTD/svg11.dtd">
<svg xmlns:xlink="http://www.w3.org/1999/xlink" width="602.396313pt" height="345.42825pt" viewBox="0 0 602.396313 345.42825" xmlns="http://www.w3.org/2000/svg" version="1.1">
 <metadata>
  <rdf:RDF xmlns:dc="http://purl.org/dc/elements/1.1/" xmlns:cc="http://creativecommons.org/ns#" xmlns:rdf="http://www.w3.org/1999/02/22-rdf-syntax-ns#">
   <cc:Work>
    <dc:type rdf:resource="http://purl.org/dc/dcmitype/StillImage"/>
    <dc:date>2023-12-27T13:07:58.296942</dc:date>
    <dc:format>image/svg+xml</dc:format>
    <dc:creator>
     <cc:Agent>
      <dc:title>Matplotlib v3.8.2, https://matplotlib.org/</dc:title>
     </cc:Agent>
    </dc:creator>
   </cc:Work>
  </rdf:RDF>
 </metadata>
 <defs>
  <style type="text/css">*{stroke-linejoin: round; stroke-linecap: butt}</style>
 </defs>
 <g id="figure_1">
  <g id="patch_1">
   <path d="M 0 345.42825 
L 602.396313 345.42825 
L 602.396313 -0 
L 0 -0 
L 0 345.42825 
z
" style="fill: none; opacity: 0"/>
  </g>
  <g id="axes_1">
   <g id="patch_2">
    <path d="M 60.1125 162.72 
L 417.2325 162.72 
L 417.2325 41.76 
L 60.1125 41.76 
z
" style="fill: #ffffff"/>
   </g>
   <g id="matplotlib.axis_1">
    <g id="xtick_1">
     <g id="line2d_1">
      <defs>
       <path id="mf1a88ca8af" d="M 0 0 
L 0 3.5 
" style="stroke: #000000; stroke-width: 0.8"/>
      </defs>
      <g>
       <use xlink:href="#mf1a88ca8af" x="76.345227" y="162.72" style="stroke: #000000; stroke-width: 0.8"/>
      </g>
     </g>
    </g>
    <g id="xtick_2">
     <g id="line2d_2">
      <g>
       <use xlink:href="#mf1a88ca8af" x="119.6325" y="162.72" style="stroke: #000000; stroke-width: 0.8"/>
      </g>
     </g>
    </g>
    <g id="xtick_3">
     <g id="line2d_3">
      <g>
       <use xlink:href="#mf1a88ca8af" x="162.919773" y="162.72" style="stroke: #000000; stroke-width: 0.8"/>
      </g>
     </g>
    </g>
    <g id="xtick_4">
     <g id="line2d_4">
      <g>
       <use xlink:href="#mf1a88ca8af" x="206.207045" y="162.72" style="stroke: #000000; stroke-width: 0.8"/>
      </g>
     </g>
    </g>
    <g id="xtick_5">
     <g id="line2d_5">
      <g>
       <use xlink:href="#mf1a88ca8af" x="249.494318" y="162.72" style="stroke: #000000; stroke-width: 0.8"/>
      </g>
     </g>
    </g>
    <g id="xtick_6">
     <g id="line2d_6">
      <g>
       <use xlink:href="#mf1a88ca8af" x="292.781591" y="162.72" style="stroke: #000000; stroke-width: 0.8"/>
      </g>
     </g>
    </g>
    <g id="xtick_7">
     <g id="line2d_7">
      <g>
       <use xlink:href="#mf1a88ca8af" x="336.068864" y="162.72" style="stroke: #000000; stroke-width: 0.8"/>
      </g>
     </g>
    </g>
    <g id="xtick_8">
     <g id="line2d_8">
      <g>
       <use xlink:href="#mf1a88ca8af" x="379.356136" y="162.72" style="stroke: #000000; stroke-width: 0.8"/>
      </g>
     </g>
    </g>
   </g>
   <g id="matplotlib.axis_2">
    <g id="ytick_1">
     <g id="line2d_9">
      <defs>
       <path id="m4ac1f6c380" d="M 0 0 
L -3.5 0 
" style="stroke: #000000; stroke-width: 0.8"/>
      </defs>
      <g>
       <use xlink:href="#m4ac1f6c380" x="60.1125" y="138.308858" style="stroke: #000000; stroke-width: 0.8"/>
      </g>
     </g>
     <g id="text_1">
      <!-- 11000 -->
      <g transform="translate(21.3 142.108077) scale(0.1 -0.1)">
       <defs>
        <path id="DejaVuSans-31" d="M 794 531 
L 1825 531 
L 1825 4091 
L 703 3866 
L 703 4441 
L 1819 4666 
L 2450 4666 
L 2450 531 
L 3481 531 
L 3481 0 
L 794 0 
L 794 531 
z
" transform="scale(0.015625)"/>
        <path id="DejaVuSans-30" d="M 2034 4250 
Q 1547 4250 1301 3770 
Q 1056 3291 1056 2328 
Q 1056 1369 1301 889 
Q 1547 409 2034 409 
Q 2525 409 2770 889 
Q 3016 1369 3016 2328 
Q 3016 3291 2770 3770 
Q 2525 4250 2034 4250 
z
M 2034 4750 
Q 2819 4750 3233 4129 
Q 3647 3509 3647 2328 
Q 3647 1150 3233 529 
Q 2819 -91 2034 -91 
Q 1250 -91 836 529 
Q 422 1150 422 2328 
Q 422 3509 836 4129 
Q 1250 4750 2034 4750 
z
" transform="scale(0.015625)"/>
       </defs>
       <use xlink:href="#DejaVuSans-31"/>
       <use xlink:href="#DejaVuSans-31" x="63.623047"/>
       <use xlink:href="#DejaVuSans-30" x="127.246094"/>
       <use xlink:href="#DejaVuSans-30" x="190.869141"/>
       <use xlink:href="#DejaVuSans-30" x="254.492188"/>
      </g>
     </g>
    </g>
    <g id="ytick_2">
     <g id="line2d_10">
      <g>
       <use xlink:href="#m4ac1f6c380" x="60.1125" y="109.373854" style="stroke: #000000; stroke-width: 0.8"/>
      </g>
     </g>
     <g id="text_2">
      <!-- 11100 -->
      <g transform="translate(21.3 113.173073) scale(0.1 -0.1)">
       <use xlink:href="#DejaVuSans-31"/>
       <use xlink:href="#DejaVuSans-31" x="63.623047"/>
       <use xlink:href="#DejaVuSans-31" x="127.246094"/>
       <use xlink:href="#DejaVuSans-30" x="190.869141"/>
       <use xlink:href="#DejaVuSans-30" x="254.492188"/>
      </g>
     </g>
    </g>
    <g id="ytick_3">
     <g id="line2d_11">
      <g>
       <use xlink:href="#m4ac1f6c380" x="60.1125" y="80.43885" style="stroke: #000000; stroke-width: 0.8"/>
      </g>
     </g>
     <g id="text_3">
      <!-- 11200 -->
      <g transform="translate(21.3 84.238068) scale(0.1 -0.1)">
       <defs>
        <path id="DejaVuSans-32" d="M 1228 531 
L 3431 531 
L 3431 0 
L 469 0 
L 469 531 
Q 828 903 1448 1529 
Q 2069 2156 2228 2338 
Q 2531 2678 2651 2914 
Q 2772 3150 2772 3378 
Q 2772 3750 2511 3984 
Q 2250 4219 1831 4219 
Q 1534 4219 1204 4116 
Q 875 4013 500 3803 
L 500 4441 
Q 881 4594 1212 4672 
Q 1544 4750 1819 4750 
Q 2544 4750 2975 4387 
Q 3406 4025 3406 3419 
Q 3406 3131 3298 2873 
Q 3191 2616 2906 2266 
Q 2828 2175 2409 1742 
Q 1991 1309 1228 531 
z
" transform="scale(0.015625)"/>
       </defs>
       <use xlink:href="#DejaVuSans-31"/>
       <use xlink:href="#DejaVuSans-31" x="63.623047"/>
       <use xlink:href="#DejaVuSans-32" x="127.246094"/>
       <use xlink:href="#DejaVuSans-30" x="190.869141"/>
       <use xlink:href="#DejaVuSans-30" x="254.492188"/>
      </g>
     </g>
    </g>
    <g id="ytick_4">
     <g id="line2d_12">
      <g>
       <use xlink:href="#m4ac1f6c380" x="60.1125" y="51.503845" style="stroke: #000000; stroke-width: 0.8"/>
      </g>
     </g>
     <g id="text_4">
      <!-- 11300 -->
      <g transform="translate(21.3 55.303064) scale(0.1 -0.1)">
       <defs>
        <path id="DejaVuSans-33" d="M 2597 2516 
Q 3050 2419 3304 2112 
Q 3559 1806 3559 1356 
Q 3559 666 3084 287 
Q 2609 -91 1734 -91 
Q 1441 -91 1130 -33 
Q 819 25 488 141 
L 488 750 
Q 750 597 1062 519 
Q 1375 441 1716 441 
Q 2309 441 2620 675 
Q 2931 909 2931 1356 
Q 2931 1769 2642 2001 
Q 2353 2234 1838 2234 
L 1294 2234 
L 1294 2753 
L 1863 2753 
Q 2328 2753 2575 2939 
Q 2822 3125 2822 3475 
Q 2822 3834 2567 4026 
Q 2313 4219 1838 4219 
Q 1578 4219 1281 4162 
Q 984 4106 628 3988 
L 628 4550 
Q 988 4650 1302 4700 
Q 1616 4750 1894 4750 
Q 2613 4750 3031 4423 
Q 3450 4097 3450 3541 
Q 3450 3153 3228 2886 
Q 3006 2619 2597 2516 
z
" transform="scale(0.015625)"/>
       </defs>
       <use xlink:href="#DejaVuSans-31"/>
       <use xlink:href="#DejaVuSans-31" x="63.623047"/>
       <use xlink:href="#DejaVuSans-33" x="127.246094"/>
       <use xlink:href="#DejaVuSans-30" x="190.869141"/>
       <use xlink:href="#DejaVuSans-30" x="254.492188"/>
      </g>
     </g>
    </g>
    <g id="text_5">
     <!-- $|S_{21}|$ [μV] -->
     <g transform="translate(14.9 125.49) rotate(-90) scale(0.1 -0.1)">
      <defs>
       <path id="DejaVuSans-7c" d="M 1344 4891 
L 1344 -1509 
L 813 -1509 
L 813 4891 
L 1344 4891 
z
" transform="scale(0.015625)"/>
       <path id="DejaVuSans-Oblique-53" d="M 3859 4513 
L 3738 3897 
Q 3422 4066 3111 4152 
Q 2800 4238 2509 4238 
Q 1944 4238 1609 3991 
Q 1275 3744 1275 3334 
Q 1275 3109 1398 2989 
Q 1522 2869 2034 2731 
L 2413 2638 
Q 3053 2472 3303 2217 
Q 3553 1963 3553 1503 
Q 3553 797 2998 353 
Q 2444 -91 1538 -91 
Q 1166 -91 791 -17 
Q 416 56 38 206 
L 166 856 
Q 513 641 861 531 
Q 1209 422 1556 422 
Q 2147 422 2503 684 
Q 2859 947 2859 1369 
Q 2859 1650 2717 1795 
Q 2575 1941 2106 2059 
L 1728 2156 
Q 1081 2325 845 2545 
Q 609 2766 609 3163 
Q 609 3859 1145 4304 
Q 1681 4750 2541 4750 
Q 2875 4750 3203 4690 
Q 3531 4631 3859 4513 
z
" transform="scale(0.015625)"/>
       <path id="DejaVuSans-20" transform="scale(0.015625)"/>
       <path id="DejaVuSans-5b" d="M 550 4863 
L 1875 4863 
L 1875 4416 
L 1125 4416 
L 1125 -397 
L 1875 -397 
L 1875 -844 
L 550 -844 
L 550 4863 
z
" transform="scale(0.015625)"/>
       <path id="DejaVuSans-3bc" d="M 544 -1331 
L 544 3500 
L 1119 3500 
L 1119 1325 
Q 1119 872 1334 640 
Q 1550 409 1972 409 
Q 2434 409 2667 671 
Q 2900 934 2900 1459 
L 2900 3500 
L 3475 3500 
L 3475 806 
Q 3475 619 3529 530 
Q 3584 441 3700 441 
Q 3728 441 3778 458 
Q 3828 475 3916 513 
L 3916 50 
Q 3788 -22 3673 -56 
Q 3559 -91 3450 -91 
Q 3234 -91 3106 31 
Q 2978 153 2931 403 
Q 2775 156 2548 32 
Q 2322 -91 2016 -91 
Q 1697 -91 1473 31 
Q 1250 153 1119 397 
L 1119 -1331 
L 544 -1331 
z
" transform="scale(0.015625)"/>
       <path id="DejaVuSans-56" d="M 1831 0 
L 50 4666 
L 709 4666 
L 2188 738 
L 3669 4666 
L 4325 4666 
L 2547 0 
L 1831 0 
z
" transform="scale(0.015625)"/>
       <path id="DejaVuSans-5d" d="M 1947 4863 
L 1947 -844 
L 622 -844 
L 622 -397 
L 1369 -397 
L 1369 4416 
L 622 4416 
L 622 4863 
L 1947 4863 
z
" transform="scale(0.015625)"/>
      </defs>
      <use xlink:href="#DejaVuSans-7c" transform="translate(0 0.578125)"/>
      <use xlink:href="#DejaVuSans-Oblique-53" transform="translate(33.691406 0.578125)"/>
      <use xlink:href="#DejaVuSans-32" transform="translate(97.167969 -15.828125) scale(0.7)"/>
      <use xlink:href="#DejaVuSans-31" transform="translate(141.704102 -15.828125) scale(0.7)"/>
      <use xlink:href="#DejaVuSans-7c" transform="translate(188.974609 0.578125)"/>
      <use xlink:href="#DejaVuSans-20" transform="translate(222.666016 0.578125)"/>
      <use xlink:href="#DejaVuSans-5b" transform="translate(254.453125 0.578125)"/>
      <use xlink:href="#DejaVuSans-3bc" transform="translate(293.466797 0.578125)"/>
      <use xlink:href="#DejaVuSans-56" transform="translate(357.089844 0.578125)"/>
      <use xlink:href="#DejaVuSans-5d" transform="translate(425.498047 0.578125)"/>
     </g>
    </g>
   </g>
   <g id="line2d_13">
    <path d="M 76.345227 137.421072 
L 77.976657 142.018495 
L 79.608087 138.06008 
L 81.239517 113.722895 
L 82.870947 157.221818 
L 84.502377 149.909443 
L 86.133807 111.750136 
L 87.765236 93.937846 
L 89.396666 107.78308 
L 91.028096 140.643874 
L 92.659526 125.524562 
L 94.290956 100.972224 
L 95.922386 120.115431 
L 97.553816 106.174838 
L 99.185246 140.037339 
L 100.816675 134.829552 
L 102.448105 139.868941 
L 104.079535 107.984634 
L 105.710965 108.085403 
L 107.342395 117.677102 
L 108.973825 94.739743 
L 110.605255 107.216606 
L 112.236685 129.562254 
L 113.868114 114.011025 
L 115.499544 94.108099 
L 117.130974 114.92401 
L 118.762404 115.730338 
L 120.393834 119.690503 
L 122.025264 149.443328 
L 123.656694 76.554344 
L 125.288124 112.615339 
L 126.919553 102.637381 
L 128.550983 110.503284 
L 130.182413 115.319327 
L 131.813843 121.502542 
L 133.445273 135.656429 
L 135.076703 132.7509 
L 136.708133 115.17 
L 138.339563 123.149599 
L 139.970992 129.002022 
L 141.602422 122.231497 
L 143.233852 87.0173 
L 144.865282 87.317342 
L 146.496712 101.067558 
L 148.128142 103.972541 
L 149.759572 125.276681 
L 151.391002 130.22619 
L 153.022431 117.017685 
L 154.653861 106.319555 
L 156.285291 109.635498 
L 157.916721 102.675504 
L 159.548151 125.408436 
L 161.179581 103.336195 
L 162.811011 120.26737 
L 164.442441 121.905339 
L 166.07387 124.256667 
L 167.7053 119.974237 
L 169.33673 130.836752 
L 170.96816 104.065695 
L 172.59959 96.763757 
L 174.23102 102.5928 
L 177.49388 101.625287 
L 179.12531 129.894841 
L 180.756739 113.036154 
L 182.388169 133.942762 
L 184.019599 102.986594 
L 185.651029 104.931377 
L 187.282459 100.242682 
L 188.913889 126.578826 
L 190.545319 135.775387 
L 192.176749 135.649188 
L 193.808178 85.433929 
L 195.439608 95.637863 
L 197.071038 121.339795 
L 198.702468 121.62509 
L 200.333898 110.224599 
L 201.965328 83.056064 
L 203.596758 92.129274 
L 205.228188 95.537919 
L 206.859617 103.156622 
L 208.491047 106.684025 
L 210.122477 103.210238 
L 211.753907 120.474688 
L 213.385337 95.199365 
L 215.016767 96.134378 
L 216.648197 94.831516 
L 218.279627 146.698044 
L 219.911056 146.582708 
L 221.542486 111.441738 
L 223.173916 101.679733 
L 224.805346 95.731762 
L 226.436776 116.880409 
L 228.068206 106.732911 
L 229.699636 99.088362 
L 231.331066 133.993959 
L 232.962495 122.313813 
L 234.593925 68.45867 
L 236.225355 83.374432 
L 237.856785 102.787086 
L 239.488215 84.976113 
L 241.119645 132.20698 
L 242.751075 114.541442 
L 244.382505 141.78394 
L 246.013934 121.805519 
L 247.645364 117.943916 
L 249.276794 124.120726 
L 250.908224 111.028019 
L 252.539654 113.145447 
L 254.171084 109.018662 
L 255.802514 119.745883 
L 257.433944 131.227921 
L 259.065373 87.144073 
L 260.696803 114.621591 
L 262.328233 93.197761 
L 263.959663 86.727311 
L 265.591093 89.386193 
L 267.222523 104.920987 
L 268.853953 112.652104 
L 270.485383 107.768497 
L 272.116812 109.814352 
L 273.748242 113.205949 
L 275.379672 59.850401 
L 277.011102 121.427084 
L 278.642532 127.771334 
L 280.273962 97.236382 
L 281.905392 101.627452 
L 283.536822 109.478374 
L 285.168251 130.797355 
L 286.799681 105.329362 
L 288.431111 85.052986 
L 290.062541 121.337171 
L 291.693971 103.744458 
L 293.325401 138.71152 
L 294.956831 118.13811 
L 296.588261 123.714159 
L 298.21969 85.745439 
L 299.85112 134.870155 
L 301.48255 110.888015 
L 303.11398 103.854126 
L 304.74541 85.658134 
L 306.37684 113.547725 
L 309.6397 133.238179 
L 311.27113 121.502735 
L 312.902559 97.127994 
L 314.533989 102.889312 
L 316.165419 94.411898 
L 317.796849 98.257374 
L 319.428279 128.825016 
L 321.059709 79.645286 
L 322.691139 107.483628 
L 324.322569 97.245115 
L 325.953998 105.721753 
L 327.585428 119.697962 
L 329.216858 113.442948 
L 330.848288 111.468725 
L 332.479718 102.782206 
L 334.111148 135.944479 
L 335.742578 87.193008 
L 337.374008 94.846405 
L 339.005437 109.852434 
L 340.636867 113.924011 
L 342.268297 65.712186 
L 343.899727 118.842428 
L 345.531157 72.160902 
L 347.162587 79.816929 
L 348.794017 82.373693 
L 350.425447 119.352521 
L 352.056876 91.80332 
L 353.688306 81.851519 
L 355.319736 79.217442 
L 356.951166 72.728367 
L 358.582596 69.013294 
L 360.214026 60.343564 
L 361.845456 102.965467 
L 363.476886 53.524767 
L 365.108315 113.972708 
L 366.739745 80.304524 
L 368.371175 52.989544 
L 370.002605 95.137552 
L 371.634035 110.396767 
L 373.265465 113.519602 
L 374.896895 93.320343 
L 376.528325 63.618006 
L 378.159754 77.021824 
L 379.791184 81.154895 
L 381.422614 71.377436 
L 383.054044 60.554573 
L 384.685474 81.763751 
L 386.316904 127.430113 
L 387.948334 66.806485 
L 389.579764 66.792713 
L 391.211193 56.234335 
L 392.842623 55.153647 
L 394.474053 85.909363 
L 396.105483 83.946976 
L 397.736913 69.443567 
L 399.368343 73.239803 
L 400.999773 47.258182 
L 400.999773 47.258182 
" clip-path="url(#pf23d459536)" style="fill: none; stroke: #1f77b4; stroke-width: 1.5; stroke-linecap: square"/>
    <defs>
     <path id="m379f32807c" d="M 0 1.5 
C 0.397805 1.5 0.77937 1.341951 1.06066 1.06066 
C 1.341951 0.77937 1.5 0.397805 1.5 0 
C 1.5 -0.397805 1.341951 -0.77937 1.06066 -1.06066 
C 0.77937 -1.341951 0.397805 -1.5 0 -1.5 
C -0.397805 -1.5 -0.77937 -1.341951 -1.06066 -1.06066 
C -1.341951 -0.77937 -1.5 -0.397805 -1.5 0 
C -1.5 0.397805 -1.341951 0.77937 -1.06066 1.06066 
C -0.77937 1.341951 -0.397805 1.5 0 1.5 
z
" style="stroke: #1f77b4"/>
    </defs>
    <g clip-path="url(#pf23d459536)">
     <use xlink:href="#m379f32807c" x="76.345227" y="137.421072" style="fill: #1f77b4; stroke: #1f77b4"/>
     <use xlink:href="#m379f32807c" x="77.976657" y="142.018495" style="fill: #1f77b4; stroke: #1f77b4"/>
     <use xlink:href="#m379f32807c" x="79.608087" y="138.06008" style="fill: #1f77b4; stroke: #1f77b4"/>
     <use xlink:href="#m379f32807c" x="81.239517" y="113.722895" style="fill: #1f77b4; stroke: #1f77b4"/>
     <use xlink:href="#m379f32807c" x="82.870947" y="157.221818" style="fill: #1f77b4; stroke: #1f77b4"/>
     <use xlink:href="#m379f32807c" x="84.502377" y="149.909443" style="fill: #1f77b4; stroke: #1f77b4"/>
     <use xlink:href="#m379f32807c" x="86.133807" y="111.750136" style="fill: #1f77b4; stroke: #1f77b4"/>
     <use xlink:href="#m379f32807c" x="87.765236" y="93.937846" style="fill: #1f77b4; stroke: #1f77b4"/>
     <use xlink:href="#m379f32807c" x="89.396666" y="107.78308" style="fill: #1f77b4; stroke: #1f77b4"/>
     <use xlink:href="#m379f32807c" x="91.028096" y="140.643874" style="fill: #1f77b4; stroke: #1f77b4"/>
     <use xlink:href="#m379f32807c" x="92.659526" y="125.524562" style="fill: #1f77b4; stroke: #1f77b4"/>
     <use xlink:href="#m379f32807c" x="94.290956" y="100.972224" style="fill: #1f77b4; stroke: #1f77b4"/>
     <use xlink:href="#m379f32807c" x="95.922386" y="120.115431" style="fill: #1f77b4; stroke: #1f77b4"/>
     <use xlink:href="#m379f32807c" x="97.553816" y="106.174838" style="fill: #1f77b4; stroke: #1f77b4"/>
     <use xlink:href="#m379f32807c" x="99.185246" y="140.037339" style="fill: #1f77b4; stroke: #1f77b4"/>
     <use xlink:href="#m379f32807c" x="100.816675" y="134.829552" style="fill: #1f77b4; stroke: #1f77b4"/>
     <use xlink:href="#m379f32807c" x="102.448105" y="139.868941" style="fill: #1f77b4; stroke: #1f77b4"/>
     <use xlink:href="#m379f32807c" x="104.079535" y="107.984634" style="fill: #1f77b4; stroke: #1f77b4"/>
     <use xlink:href="#m379f32807c" x="105.710965" y="108.085403" style="fill: #1f77b4; stroke: #1f77b4"/>
     <use xlink:href="#m379f32807c" x="107.342395" y="117.677102" style="fill: #1f77b4; stroke: #1f77b4"/>
     <use xlink:href="#m379f32807c" x="108.973825" y="94.739743" style="fill: #1f77b4; stroke: #1f77b4"/>
     <use xlink:href="#m379f32807c" x="110.605255" y="107.216606" style="fill: #1f77b4; stroke: #1f77b4"/>
     <use xlink:href="#m379f32807c" x="112.236685" y="129.562254" style="fill: #1f77b4; stroke: #1f77b4"/>
     <use xlink:href="#m379f32807c" x="113.868114" y="114.011025" style="fill: #1f77b4; stroke: #1f77b4"/>
     <use xlink:href="#m379f32807c" x="115.499544" y="94.108099" style="fill: #1f77b4; stroke: #1f77b4"/>
     <use xlink:href="#m379f32807c" x="117.130974" y="114.92401" style="fill: #1f77b4; stroke: #1f77b4"/>
     <use xlink:href="#m379f32807c" x="118.762404" y="115.730338" style="fill: #1f77b4; stroke: #1f77b4"/>
     <use xlink:href="#m379f32807c" x="120.393834" y="119.690503" style="fill: #1f77b4; stroke: #1f77b4"/>
     <use xlink:href="#m379f32807c" x="122.025264" y="149.443328" style="fill: #1f77b4; stroke: #1f77b4"/>
     <use xlink:href="#m379f32807c" x="123.656694" y="76.554344" style="fill: #1f77b4; stroke: #1f77b4"/>
     <use xlink:href="#m379f32807c" x="125.288124" y="112.615339" style="fill: #1f77b4; stroke: #1f77b4"/>
     <use xlink:href="#m379f32807c" x="126.919553" y="102.637381" style="fill: #1f77b4; stroke: #1f77b4"/>
     <use xlink:href="#m379f32807c" x="128.550983" y="110.503284" style="fill: #1f77b4; stroke: #1f77b4"/>
     <use xlink:href="#m379f32807c" x="130.182413" y="115.319327" style="fill: #1f77b4; stroke: #1f77b4"/>
     <use xlink:href="#m379f32807c" x="131.813843" y="121.502542" style="fill: #1f77b4; stroke: #1f77b4"/>
     <use xlink:href="#m379f32807c" x="133.445273" y="135.656429" style="fill: #1f77b4; stroke: #1f77b4"/>
     <use xlink:href="#m379f32807c" x="135.076703" y="132.7509" style="fill: #1f77b4; stroke: #1f77b4"/>
     <use xlink:href="#m379f32807c" x="136.708133" y="115.17" style="fill: #1f77b4; stroke: #1f77b4"/>
     <use xlink:href="#m379f32807c" x="138.339563" y="123.149599" style="fill: #1f77b4; stroke: #1f77b4"/>
     <use xlink:href="#m379f32807c" x="139.970992" y="129.002022" style="fill: #1f77b4; stroke: #1f77b4"/>
     <use xlink:href="#m379f32807c" x="141.602422" y="122.231497" style="fill: #1f77b4; stroke: #1f77b4"/>
     <use xlink:href="#m379f32807c" x="143.233852" y="87.0173" style="fill: #1f77b4; stroke: #1f77b4"/>
     <use xlink:href="#m379f32807c" x="144.865282" y="87.317342" style="fill: #1f77b4; stroke: #1f77b4"/>
     <use xlink:href="#m379f32807c" x="146.496712" y="101.067558" style="fill: #1f77b4; stroke: #1f77b4"/>
     <use xlink:href="#m379f32807c" x="148.128142" y="103.972541" style="fill: #1f77b4; stroke: #1f77b4"/>
     <use xlink:href="#m379f32807c" x="149.759572" y="125.276681" style="fill: #1f77b4; stroke: #1f77b4"/>
     <use xlink:href="#m379f32807c" x="151.391002" y="130.22619" style="fill: #1f77b4; stroke: #1f77b4"/>
     <use xlink:href="#m379f32807c" x="153.022431" y="117.017685" style="fill: #1f77b4; stroke: #1f77b4"/>
     <use xlink:href="#m379f32807c" x="154.653861" y="106.319555" style="fill: #1f77b4; stroke: #1f77b4"/>
     <use xlink:href="#m379f32807c" x="156.285291" y="109.635498" style="fill: #1f77b4; stroke: #1f77b4"/>
     <use xlink:href="#m379f32807c" x="157.916721" y="102.675504" style="fill: #1f77b4; stroke: #1f77b4"/>
     <use xlink:href="#m379f32807c" x="159.548151" y="125.408436" style="fill: #1f77b4; stroke: #1f77b4"/>
     <use xlink:href="#m379f32807c" x="161.179581" y="103.336195" style="fill: #1f77b4; stroke: #1f77b4"/>
     <use xlink:href="#m379f32807c" x="162.811011" y="120.26737" style="fill: #1f77b4; stroke: #1f77b4"/>
     <use xlink:href="#m379f32807c" x="164.442441" y="121.905339" style="fill: #1f77b4; stroke: #1f77b4"/>
     <use xlink:href="#m379f32807c" x="166.07387" y="124.256667" style="fill: #1f77b4; stroke: #1f77b4"/>
     <use xlink:href="#m379f32807c" x="167.7053" y="119.974237" style="fill: #1f77b4; stroke: #1f77b4"/>
     <use xlink:href="#m379f32807c" x="169.33673" y="130.836752" style="fill: #1f77b4; stroke: #1f77b4"/>
     <use xlink:href="#m379f32807c" x="170.96816" y="104.065695" style="fill: #1f77b4; stroke: #1f77b4"/>
     <use xlink:href="#m379f32807c" x="172.59959" y="96.763757" style="fill: #1f77b4; stroke: #1f77b4"/>
     <use xlink:href="#m379f32807c" x="174.23102" y="102.5928" style="fill: #1f77b4; stroke: #1f77b4"/>
     <use xlink:href="#m379f32807c" x="175.86245" y="102.121172" style="fill: #1f77b4; stroke: #1f77b4"/>
     <use xlink:href="#m379f32807c" x="177.49388" y="101.625287" style="fill: #1f77b4; stroke: #1f77b4"/>
     <use xlink:href="#m379f32807c" x="179.12531" y="129.894841" style="fill: #1f77b4; stroke: #1f77b4"/>
     <use xlink:href="#m379f32807c" x="180.756739" y="113.036154" style="fill: #1f77b4; stroke: #1f77b4"/>
     <use xlink:href="#m379f32807c" x="182.388169" y="133.942762" style="fill: #1f77b4; stroke: #1f77b4"/>
     <use xlink:href="#m379f32807c" x="184.019599" y="102.986594" style="fill: #1f77b4; stroke: #1f77b4"/>
     <use xlink:href="#m379f32807c" x="185.651029" y="104.931377" style="fill: #1f77b4; stroke: #1f77b4"/>
     <use xlink:href="#m379f32807c" x="187.282459" y="100.242682" style="fill: #1f77b4; stroke: #1f77b4"/>
     <use xlink:href="#m379f32807c" x="188.913889" y="126.578826" style="fill: #1f77b4; stroke: #1f77b4"/>
     <use xlink:href="#m379f32807c" x="190.545319" y="135.775387" style="fill: #1f77b4; stroke: #1f77b4"/>
     <use xlink:href="#m379f32807c" x="192.176749" y="135.649188" style="fill: #1f77b4; stroke: #1f77b4"/>
     <use xlink:href="#m379f32807c" x="193.808178" y="85.433929" style="fill: #1f77b4; stroke: #1f77b4"/>
     <use xlink:href="#m379f32807c" x="195.439608" y="95.637863" style="fill: #1f77b4; stroke: #1f77b4"/>
     <use xlink:href="#m379f32807c" x="197.071038" y="121.339795" style="fill: #1f77b4; stroke: #1f77b4"/>
     <use xlink:href="#m379f32807c" x="198.702468" y="121.62509" style="fill: #1f77b4; stroke: #1f77b4"/>
     <use xlink:href="#m379f32807c" x="200.333898" y="110.224599" style="fill: #1f77b4; stroke: #1f77b4"/>
     <use xlink:href="#m379f32807c" x="201.965328" y="83.056064" style="fill: #1f77b4; stroke: #1f77b4"/>
     <use xlink:href="#m379f32807c" x="203.596758" y="92.129274" style="fill: #1f77b4; stroke: #1f77b4"/>
     <use xlink:href="#m379f32807c" x="205.228188" y="95.537919" style="fill: #1f77b4; stroke: #1f77b4"/>
     <use xlink:href="#m379f32807c" x="206.859617" y="103.156622" style="fill: #1f77b4; stroke: #1f77b4"/>
     <use xlink:href="#m379f32807c" x="208.491047" y="106.684025" style="fill: #1f77b4; stroke: #1f77b4"/>
     <use xlink:href="#m379f32807c" x="210.122477" y="103.210238" style="fill: #1f77b4; stroke: #1f77b4"/>
     <use xlink:href="#m379f32807c" x="211.753907" y="120.474688" style="fill: #1f77b4; stroke: #1f77b4"/>
     <use xlink:href="#m379f32807c" x="213.385337" y="95.199365" style="fill: #1f77b4; stroke: #1f77b4"/>
     <use xlink:href="#m379f32807c" x="215.016767" y="96.134378" style="fill: #1f77b4; stroke: #1f77b4"/>
     <use xlink:href="#m379f32807c" x="216.648197" y="94.831516" style="fill: #1f77b4; stroke: #1f77b4"/>
     <use xlink:href="#m379f32807c" x="218.279627" y="146.698044" style="fill: #1f77b4; stroke: #1f77b4"/>
     <use xlink:href="#m379f32807c" x="219.911056" y="146.582708" style="fill: #1f77b4; stroke: #1f77b4"/>
     <use xlink:href="#m379f32807c" x="221.542486" y="111.441738" style="fill: #1f77b4; stroke: #1f77b4"/>
     <use xlink:href="#m379f32807c" x="223.173916" y="101.679733" style="fill: #1f77b4; stroke: #1f77b4"/>
     <use xlink:href="#m379f32807c" x="224.805346" y="95.731762" style="fill: #1f77b4; stroke: #1f77b4"/>
     <use xlink:href="#m379f32807c" x="226.436776" y="116.880409" style="fill: #1f77b4; stroke: #1f77b4"/>
     <use xlink:href="#m379f32807c" x="228.068206" y="106.732911" style="fill: #1f77b4; stroke: #1f77b4"/>
     <use xlink:href="#m379f32807c" x="229.699636" y="99.088362" style="fill: #1f77b4; stroke: #1f77b4"/>
     <use xlink:href="#m379f32807c" x="231.331066" y="133.993959" style="fill: #1f77b4; stroke: #1f77b4"/>
     <use xlink:href="#m379f32807c" x="232.962495" y="122.313813" style="fill: #1f77b4; stroke: #1f77b4"/>
     <use xlink:href="#m379f32807c" x="234.593925" y="68.45867" style="fill: #1f77b4; stroke: #1f77b4"/>
     <use xlink:href="#m379f32807c" x="236.225355" y="83.374432" style="fill: #1f77b4; stroke: #1f77b4"/>
     <use xlink:href="#m379f32807c" x="237.856785" y="102.787086" style="fill: #1f77b4; stroke: #1f77b4"/>
     <use xlink:href="#m379f32807c" x="239.488215" y="84.976113" style="fill: #1f77b4; stroke: #1f77b4"/>
     <use xlink:href="#m379f32807c" x="241.119645" y="132.20698" style="fill: #1f77b4; stroke: #1f77b4"/>
     <use xlink:href="#m379f32807c" x="242.751075" y="114.541442" style="fill: #1f77b4; stroke: #1f77b4"/>
     <use xlink:href="#m379f32807c" x="244.382505" y="141.78394" style="fill: #1f77b4; stroke: #1f77b4"/>
     <use xlink:href="#m379f32807c" x="246.013934" y="121.805519" style="fill: #1f77b4; stroke: #1f77b4"/>
     <use xlink:href="#m379f32807c" x="247.645364" y="117.943916" style="fill: #1f77b4; stroke: #1f77b4"/>
     <use xlink:href="#m379f32807c" x="249.276794" y="124.120726" style="fill: #1f77b4; stroke: #1f77b4"/>
     <use xlink:href="#m379f32807c" x="250.908224" y="111.028019" style="fill: #1f77b4; stroke: #1f77b4"/>
     <use xlink:href="#m379f32807c" x="252.539654" y="113.145447" style="fill: #1f77b4; stroke: #1f77b4"/>
     <use xlink:href="#m379f32807c" x="254.171084" y="109.018662" style="fill: #1f77b4; stroke: #1f77b4"/>
     <use xlink:href="#m379f32807c" x="255.802514" y="119.745883" style="fill: #1f77b4; stroke: #1f77b4"/>
     <use xlink:href="#m379f32807c" x="257.433944" y="131.227921" style="fill: #1f77b4; stroke: #1f77b4"/>
     <use xlink:href="#m379f32807c" x="259.065373" y="87.144073" style="fill: #1f77b4; stroke: #1f77b4"/>
     <use xlink:href="#m379f32807c" x="260.696803" y="114.621591" style="fill: #1f77b4; stroke: #1f77b4"/>
     <use xlink:href="#m379f32807c" x="262.328233" y="93.197761" style="fill: #1f77b4; stroke: #1f77b4"/>
     <use xlink:href="#m379f32807c" x="263.959663" y="86.727311" style="fill: #1f77b4; stroke: #1f77b4"/>
     <use xlink:href="#m379f32807c" x="265.591093" y="89.386193" style="fill: #1f77b4; stroke: #1f77b4"/>
     <use xlink:href="#m379f32807c" x="267.222523" y="104.920987" style="fill: #1f77b4; stroke: #1f77b4"/>
     <use xlink:href="#m379f32807c" x="268.853953" y="112.652104" style="fill: #1f77b4; stroke: #1f77b4"/>
     <use xlink:href="#m379f32807c" x="270.485383" y="107.768497" style="fill: #1f77b4; stroke: #1f77b4"/>
     <use xlink:href="#m379f32807c" x="272.116812" y="109.814352" style="fill: #1f77b4; stroke: #1f77b4"/>
     <use xlink:href="#m379f32807c" x="273.748242" y="113.205949" style="fill: #1f77b4; stroke: #1f77b4"/>
     <use xlink:href="#m379f32807c" x="275.379672" y="59.850401" style="fill: #1f77b4; stroke: #1f77b4"/>
     <use xlink:href="#m379f32807c" x="277.011102" y="121.427084" style="fill: #1f77b4; stroke: #1f77b4"/>
     <use xlink:href="#m379f32807c" x="278.642532" y="127.771334" style="fill: #1f77b4; stroke: #1f77b4"/>
     <use xlink:href="#m379f32807c" x="280.273962" y="97.236382" style="fill: #1f77b4; stroke: #1f77b4"/>
     <use xlink:href="#m379f32807c" x="281.905392" y="101.627452" style="fill: #1f77b4; stroke: #1f77b4"/>
     <use xlink:href="#m379f32807c" x="283.536822" y="109.478374" style="fill: #1f77b4; stroke: #1f77b4"/>
     <use xlink:href="#m379f32807c" x="285.168251" y="130.797355" style="fill: #1f77b4; stroke: #1f77b4"/>
     <use xlink:href="#m379f32807c" x="286.799681" y="105.329362" style="fill: #1f77b4; stroke: #1f77b4"/>
     <use xlink:href="#m379f32807c" x="288.431111" y="85.052986" style="fill: #1f77b4; stroke: #1f77b4"/>
     <use xlink:href="#m379f32807c" x="290.062541" y="121.337171" style="fill: #1f77b4; stroke: #1f77b4"/>
     <use xlink:href="#m379f32807c" x="291.693971" y="103.744458" style="fill: #1f77b4; stroke: #1f77b4"/>
     <use xlink:href="#m379f32807c" x="293.325401" y="138.71152" style="fill: #1f77b4; stroke: #1f77b4"/>
     <use xlink:href="#m379f32807c" x="294.956831" y="118.13811" style="fill: #1f77b4; stroke: #1f77b4"/>
     <use xlink:href="#m379f32807c" x="296.588261" y="123.714159" style="fill: #1f77b4; stroke: #1f77b4"/>
     <use xlink:href="#m379f32807c" x="298.21969" y="85.745439" style="fill: #1f77b4; stroke: #1f77b4"/>
     <use xlink:href="#m379f32807c" x="299.85112" y="134.870155" style="fill: #1f77b4; stroke: #1f77b4"/>
     <use xlink:href="#m379f32807c" x="301.48255" y="110.888015" style="fill: #1f77b4; stroke: #1f77b4"/>
     <use xlink:href="#m379f32807c" x="303.11398" y="103.854126" style="fill: #1f77b4; stroke: #1f77b4"/>
     <use xlink:href="#m379f32807c" x="304.74541" y="85.658134" style="fill: #1f77b4; stroke: #1f77b4"/>
     <use xlink:href="#m379f32807c" x="306.37684" y="113.547725" style="fill: #1f77b4; stroke: #1f77b4"/>
     <use xlink:href="#m379f32807c" x="308.00827" y="123.562549" style="fill: #1f77b4; stroke: #1f77b4"/>
     <use xlink:href="#m379f32807c" x="309.6397" y="133.238179" style="fill: #1f77b4; stroke: #1f77b4"/>
     <use xlink:href="#m379f32807c" x="311.27113" y="121.502735" style="fill: #1f77b4; stroke: #1f77b4"/>
     <use xlink:href="#m379f32807c" x="312.902559" y="97.127994" style="fill: #1f77b4; stroke: #1f77b4"/>
     <use xlink:href="#m379f32807c" x="314.533989" y="102.889312" style="fill: #1f77b4; stroke: #1f77b4"/>
     <use xlink:href="#m379f32807c" x="316.165419" y="94.411898" style="fill: #1f77b4; stroke: #1f77b4"/>
     <use xlink:href="#m379f32807c" x="317.796849" y="98.257374" style="fill: #1f77b4; stroke: #1f77b4"/>
     <use xlink:href="#m379f32807c" x="319.428279" y="128.825016" style="fill: #1f77b4; stroke: #1f77b4"/>
     <use xlink:href="#m379f32807c" x="321.059709" y="79.645286" style="fill: #1f77b4; stroke: #1f77b4"/>
     <use xlink:href="#m379f32807c" x="322.691139" y="107.483628" style="fill: #1f77b4; stroke: #1f77b4"/>
     <use xlink:href="#m379f32807c" x="324.322569" y="97.245115" style="fill: #1f77b4; stroke: #1f77b4"/>
     <use xlink:href="#m379f32807c" x="325.953998" y="105.721753" style="fill: #1f77b4; stroke: #1f77b4"/>
     <use xlink:href="#m379f32807c" x="327.585428" y="119.697962" style="fill: #1f77b4; stroke: #1f77b4"/>
     <use xlink:href="#m379f32807c" x="329.216858" y="113.442948" style="fill: #1f77b4; stroke: #1f77b4"/>
     <use xlink:href="#m379f32807c" x="330.848288" y="111.468725" style="fill: #1f77b4; stroke: #1f77b4"/>
     <use xlink:href="#m379f32807c" x="332.479718" y="102.782206" style="fill: #1f77b4; stroke: #1f77b4"/>
     <use xlink:href="#m379f32807c" x="334.111148" y="135.944479" style="fill: #1f77b4; stroke: #1f77b4"/>
     <use xlink:href="#m379f32807c" x="335.742578" y="87.193008" style="fill: #1f77b4; stroke: #1f77b4"/>
     <use xlink:href="#m379f32807c" x="337.374008" y="94.846405" style="fill: #1f77b4; stroke: #1f77b4"/>
     <use xlink:href="#m379f32807c" x="339.005437" y="109.852434" style="fill: #1f77b4; stroke: #1f77b4"/>
     <use xlink:href="#m379f32807c" x="340.636867" y="113.924011" style="fill: #1f77b4; stroke: #1f77b4"/>
     <use xlink:href="#m379f32807c" x="342.268297" y="65.712186" style="fill: #1f77b4; stroke: #1f77b4"/>
     <use xlink:href="#m379f32807c" x="343.899727" y="118.842428" style="fill: #1f77b4; stroke: #1f77b4"/>
     <use xlink:href="#m379f32807c" x="345.531157" y="72.160902" style="fill: #1f77b4; stroke: #1f77b4"/>
     <use xlink:href="#m379f32807c" x="347.162587" y="79.816929" style="fill: #1f77b4; stroke: #1f77b4"/>
     <use xlink:href="#m379f32807c" x="348.794017" y="82.373693" style="fill: #1f77b4; stroke: #1f77b4"/>
     <use xlink:href="#m379f32807c" x="350.425447" y="119.352521" style="fill: #1f77b4; stroke: #1f77b4"/>
     <use xlink:href="#m379f32807c" x="352.056876" y="91.80332" style="fill: #1f77b4; stroke: #1f77b4"/>
     <use xlink:href="#m379f32807c" x="353.688306" y="81.851519" style="fill: #1f77b4; stroke: #1f77b4"/>
     <use xlink:href="#m379f32807c" x="355.319736" y="79.217442" style="fill: #1f77b4; stroke: #1f77b4"/>
     <use xlink:href="#m379f32807c" x="356.951166" y="72.728367" style="fill: #1f77b4; stroke: #1f77b4"/>
     <use xlink:href="#m379f32807c" x="358.582596" y="69.013294" style="fill: #1f77b4; stroke: #1f77b4"/>
     <use xlink:href="#m379f32807c" x="360.214026" y="60.343564" style="fill: #1f77b4; stroke: #1f77b4"/>
     <use xlink:href="#m379f32807c" x="361.845456" y="102.965467" style="fill: #1f77b4; stroke: #1f77b4"/>
     <use xlink:href="#m379f32807c" x="363.476886" y="53.524767" style="fill: #1f77b4; stroke: #1f77b4"/>
     <use xlink:href="#m379f32807c" x="365.108315" y="113.972708" style="fill: #1f77b4; stroke: #1f77b4"/>
     <use xlink:href="#m379f32807c" x="366.739745" y="80.304524" style="fill: #1f77b4; stroke: #1f77b4"/>
     <use xlink:href="#m379f32807c" x="368.371175" y="52.989544" style="fill: #1f77b4; stroke: #1f77b4"/>
     <use xlink:href="#m379f32807c" x="370.002605" y="95.137552" style="fill: #1f77b4; stroke: #1f77b4"/>
     <use xlink:href="#m379f32807c" x="371.634035" y="110.396767" style="fill: #1f77b4; stroke: #1f77b4"/>
     <use xlink:href="#m379f32807c" x="373.265465" y="113.519602" style="fill: #1f77b4; stroke: #1f77b4"/>
     <use xlink:href="#m379f32807c" x="374.896895" y="93.320343" style="fill: #1f77b4; stroke: #1f77b4"/>
     <use xlink:href="#m379f32807c" x="376.528325" y="63.618006" style="fill: #1f77b4; stroke: #1f77b4"/>
     <use xlink:href="#m379f32807c" x="378.159754" y="77.021824" style="fill: #1f77b4; stroke: #1f77b4"/>
     <use xlink:href="#m379f32807c" x="379.791184" y="81.154895" style="fill: #1f77b4; stroke: #1f77b4"/>
     <use xlink:href="#m379f32807c" x="381.422614" y="71.377436" style="fill: #1f77b4; stroke: #1f77b4"/>
     <use xlink:href="#m379f32807c" x="383.054044" y="60.554573" style="fill: #1f77b4; stroke: #1f77b4"/>
     <use xlink:href="#m379f32807c" x="384.685474" y="81.763751" style="fill: #1f77b4; stroke: #1f77b4"/>
     <use xlink:href="#m379f32807c" x="386.316904" y="127.430113" style="fill: #1f77b4; stroke: #1f77b4"/>
     <use xlink:href="#m379f32807c" x="387.948334" y="66.806485" style="fill: #1f77b4; stroke: #1f77b4"/>
     <use xlink:href="#m379f32807c" x="389.579764" y="66.792713" style="fill: #1f77b4; stroke: #1f77b4"/>
     <use xlink:href="#m379f32807c" x="391.211193" y="56.234335" style="fill: #1f77b4; stroke: #1f77b4"/>
     <use xlink:href="#m379f32807c" x="392.842623" y="55.153647" style="fill: #1f77b4; stroke: #1f77b4"/>
     <use xlink:href="#m379f32807c" x="394.474053" y="85.909363" style="fill: #1f77b4; stroke: #1f77b4"/>
     <use xlink:href="#m379f32807c" x="396.105483" y="83.946976" style="fill: #1f77b4; stroke: #1f77b4"/>
     <use xlink:href="#m379f32807c" x="397.736913" y="69.443567" style="fill: #1f77b4; stroke: #1f77b4"/>
     <use xlink:href="#m379f32807c" x="399.368343" y="73.239803" style="fill: #1f77b4; stroke: #1f77b4"/>
     <use xlink:href="#m379f32807c" x="400.999773" y="47.258182" style="fill: #1f77b4; stroke: #1f77b4"/>
    </g>
   </g>
   <g id="line2d_14">
    <path d="M 76.345227 109.284928 
L 91.619265 113.465639 
L 115.66775 120.062959 
L 124.442197 122.221946 
L 131.591747 123.768616 
L 138.091337 124.951678 
L 143.940968 125.794495 
L 149.46562 126.367818 
L 154.665293 126.6892 
L 159.864965 126.784512 
L 165.064638 126.645243 
L 170.26431 126.269246 
L 175.463982 125.661111 
L 180.663655 124.832074 
L 186.188307 123.728648 
L 192.362918 122.256964 
L 199.187488 120.389836 
L 207.311976 117.926467 
L 219.661198 113.916965 
L 237.535072 108.140684 
L 247.609437 105.127134 
L 256.708864 102.628622 
L 265.80829 100.364264 
L 274.582738 98.406674 
L 283.682164 96.604348 
L 293.10657 94.967775 
L 302.855956 93.500858 
L 313.255301 92.163676 
L 324.304605 90.96954 
L 336.328847 89.899168 
L 349.328028 88.969737 
L 363.627127 88.17455 
L 379.551124 87.517199 
L 397.424998 87.00754 
L 400.999773 86.92984 
L 400.999773 86.92984 
" clip-path="url(#pf23d459536)" style="fill: none; stroke: #d62728; stroke-width: 1.5; stroke-linecap: square"/>
   </g>
   <g id="patch_3">
    <path d="M 60.1125 162.72 
L 60.1125 41.76 
" style="fill: none; stroke: #000000; stroke-width: 0.8; stroke-linejoin: miter; stroke-linecap: square"/>
   </g>
   <g id="patch_4">
    <path d="M 417.2325 162.72 
L 417.2325 41.76 
" style="fill: none; stroke: #000000; stroke-width: 0.8; stroke-linejoin: miter; stroke-linecap: square"/>
   </g>
   <g id="patch_5">
    <path d="M 60.1125 162.72 
L 417.2325 162.72 
" style="fill: none; stroke: #000000; stroke-width: 0.8; stroke-linejoin: miter; stroke-linecap: square"/>
   </g>
   <g id="patch_6">
    <path d="M 60.1125 41.76 
L 417.2325 41.76 
" style="fill: none; stroke: #000000; stroke-width: 0.8; stroke-linejoin: miter; stroke-linecap: square"/>
   </g>
   <g id="text_6">
    <g id="patch_7">
     <path d="M 435.0885 72.683938 
L 595.196312 72.683938 
Q 599.196312 72.683938 599.196312 68.683938 
L 599.196312 47.808 
Q 599.196312 43.808 595.196312 43.808 
L 435.0885 43.808 
Q 431.0885 43.808 431.0885 47.808 
L 431.0885 68.683938 
Q 431.0885 72.683938 435.0885 72.683938 
z
" style="fill: #ffffff; opacity: 0.5; stroke: #000000; stroke-linejoin: miter"/>
    </g>
    <!-- Warning: fit failed. lmfit was not -->
    <g transform="translate(435.0885 55.406437) scale(0.1 -0.1)">
     <defs>
      <path id="DejaVuSans-57" d="M 213 4666 
L 850 4666 
L 1831 722 
L 2809 4666 
L 3519 4666 
L 4500 722 
L 5478 4666 
L 6119 4666 
L 4947 0 
L 4153 0 
L 3169 4050 
L 2175 0 
L 1381 0 
L 213 4666 
z
" transform="scale(0.015625)"/>
      <path id="DejaVuSans-61" d="M 2194 1759 
Q 1497 1759 1228 1600 
Q 959 1441 959 1056 
Q 959 750 1161 570 
Q 1363 391 1709 391 
Q 2188 391 2477 730 
Q 2766 1069 2766 1631 
L 2766 1759 
L 2194 1759 
z
M 3341 1997 
L 3341 0 
L 2766 0 
L 2766 531 
Q 2569 213 2275 61 
Q 1981 -91 1556 -91 
Q 1019 -91 701 211 
Q 384 513 384 1019 
Q 384 1609 779 1909 
Q 1175 2209 1959 2209 
L 2766 2209 
L 2766 2266 
Q 2766 2663 2505 2880 
Q 2244 3097 1772 3097 
Q 1472 3097 1187 3025 
Q 903 2953 641 2809 
L 641 3341 
Q 956 3463 1253 3523 
Q 1550 3584 1831 3584 
Q 2591 3584 2966 3190 
Q 3341 2797 3341 1997 
z
" transform="scale(0.015625)"/>
      <path id="DejaVuSans-72" d="M 2631 2963 
Q 2534 3019 2420 3045 
Q 2306 3072 2169 3072 
Q 1681 3072 1420 2755 
Q 1159 2438 1159 1844 
L 1159 0 
L 581 0 
L 581 3500 
L 1159 3500 
L 1159 2956 
Q 1341 3275 1631 3429 
Q 1922 3584 2338 3584 
Q 2397 3584 2469 3576 
Q 2541 3569 2628 3553 
L 2631 2963 
z
" transform="scale(0.015625)"/>
      <path id="DejaVuSans-6e" d="M 3513 2113 
L 3513 0 
L 2938 0 
L 2938 2094 
Q 2938 2591 2744 2837 
Q 2550 3084 2163 3084 
Q 1697 3084 1428 2787 
Q 1159 2491 1159 1978 
L 1159 0 
L 581 0 
L 581 3500 
L 1159 3500 
L 1159 2956 
Q 1366 3272 1645 3428 
Q 1925 3584 2291 3584 
Q 2894 3584 3203 3211 
Q 3513 2838 3513 2113 
z
" transform="scale(0.015625)"/>
      <path id="DejaVuSans-69" d="M 603 3500 
L 1178 3500 
L 1178 0 
L 603 0 
L 603 3500 
z
M 603 4863 
L 1178 4863 
L 1178 4134 
L 603 4134 
L 603 4863 
z
" transform="scale(0.015625)"/>
      <path id="DejaVuSans-67" d="M 2906 1791 
Q 2906 2416 2648 2759 
Q 2391 3103 1925 3103 
Q 1463 3103 1205 2759 
Q 947 2416 947 1791 
Q 947 1169 1205 825 
Q 1463 481 1925 481 
Q 2391 481 2648 825 
Q 2906 1169 2906 1791 
z
M 3481 434 
Q 3481 -459 3084 -895 
Q 2688 -1331 1869 -1331 
Q 1566 -1331 1297 -1286 
Q 1028 -1241 775 -1147 
L 775 -588 
Q 1028 -725 1275 -790 
Q 1522 -856 1778 -856 
Q 2344 -856 2625 -561 
Q 2906 -266 2906 331 
L 2906 616 
Q 2728 306 2450 153 
Q 2172 0 1784 0 
Q 1141 0 747 490 
Q 353 981 353 1791 
Q 353 2603 747 3093 
Q 1141 3584 1784 3584 
Q 2172 3584 2450 3431 
Q 2728 3278 2906 2969 
L 2906 3500 
L 3481 3500 
L 3481 434 
z
" transform="scale(0.015625)"/>
      <path id="DejaVuSans-3a" d="M 750 794 
L 1409 794 
L 1409 0 
L 750 0 
L 750 794 
z
M 750 3309 
L 1409 3309 
L 1409 2516 
L 750 2516 
L 750 3309 
z
" transform="scale(0.015625)"/>
      <path id="DejaVuSans-66" d="M 2375 4863 
L 2375 4384 
L 1825 4384 
Q 1516 4384 1395 4259 
Q 1275 4134 1275 3809 
L 1275 3500 
L 2222 3500 
L 2222 3053 
L 1275 3053 
L 1275 0 
L 697 0 
L 697 3053 
L 147 3053 
L 147 3500 
L 697 3500 
L 697 3744 
Q 697 4328 969 4595 
Q 1241 4863 1831 4863 
L 2375 4863 
z
" transform="scale(0.015625)"/>
      <path id="DejaVuSans-74" d="M 1172 4494 
L 1172 3500 
L 2356 3500 
L 2356 3053 
L 1172 3053 
L 1172 1153 
Q 1172 725 1289 603 
Q 1406 481 1766 481 
L 2356 481 
L 2356 0 
L 1766 0 
Q 1100 0 847 248 
Q 594 497 594 1153 
L 594 3053 
L 172 3053 
L 172 3500 
L 594 3500 
L 594 4494 
L 1172 4494 
z
" transform="scale(0.015625)"/>
      <path id="DejaVuSans-6c" d="M 603 4863 
L 1178 4863 
L 1178 0 
L 603 0 
L 603 4863 
z
" transform="scale(0.015625)"/>
      <path id="DejaVuSans-65" d="M 3597 1894 
L 3597 1613 
L 953 1613 
Q 991 1019 1311 708 
Q 1631 397 2203 397 
Q 2534 397 2845 478 
Q 3156 559 3463 722 
L 3463 178 
Q 3153 47 2828 -22 
Q 2503 -91 2169 -91 
Q 1331 -91 842 396 
Q 353 884 353 1716 
Q 353 2575 817 3079 
Q 1281 3584 2069 3584 
Q 2775 3584 3186 3129 
Q 3597 2675 3597 1894 
z
M 3022 2063 
Q 3016 2534 2758 2815 
Q 2500 3097 2075 3097 
Q 1594 3097 1305 2825 
Q 1016 2553 972 2059 
L 3022 2063 
z
" transform="scale(0.015625)"/>
      <path id="DejaVuSans-64" d="M 2906 2969 
L 2906 4863 
L 3481 4863 
L 3481 0 
L 2906 0 
L 2906 525 
Q 2725 213 2448 61 
Q 2172 -91 1784 -91 
Q 1150 -91 751 415 
Q 353 922 353 1747 
Q 353 2572 751 3078 
Q 1150 3584 1784 3584 
Q 2172 3584 2448 3432 
Q 2725 3281 2906 2969 
z
M 947 1747 
Q 947 1113 1208 752 
Q 1469 391 1925 391 
Q 2381 391 2643 752 
Q 2906 1113 2906 1747 
Q 2906 2381 2643 2742 
Q 2381 3103 1925 3103 
Q 1469 3103 1208 2742 
Q 947 2381 947 1747 
z
" transform="scale(0.015625)"/>
      <path id="DejaVuSans-2e" d="M 684 794 
L 1344 794 
L 1344 0 
L 684 0 
L 684 794 
z
" transform="scale(0.015625)"/>
      <path id="DejaVuSans-6d" d="M 3328 2828 
Q 3544 3216 3844 3400 
Q 4144 3584 4550 3584 
Q 5097 3584 5394 3201 
Q 5691 2819 5691 2113 
L 5691 0 
L 5113 0 
L 5113 2094 
Q 5113 2597 4934 2840 
Q 4756 3084 4391 3084 
Q 3944 3084 3684 2787 
Q 3425 2491 3425 1978 
L 3425 0 
L 2847 0 
L 2847 2094 
Q 2847 2600 2669 2842 
Q 2491 3084 2119 3084 
Q 1678 3084 1418 2786 
Q 1159 2488 1159 1978 
L 1159 0 
L 581 0 
L 581 3500 
L 1159 3500 
L 1159 2956 
Q 1356 3278 1631 3431 
Q 1906 3584 2284 3584 
Q 2666 3584 2933 3390 
Q 3200 3197 3328 2828 
z
" transform="scale(0.015625)"/>
      <path id="DejaVuSans-77" d="M 269 3500 
L 844 3500 
L 1563 769 
L 2278 3500 
L 2956 3500 
L 3675 769 
L 4391 3500 
L 4966 3500 
L 4050 0 
L 3372 0 
L 2619 2869 
L 1863 0 
L 1184 0 
L 269 3500 
z
" transform="scale(0.015625)"/>
      <path id="DejaVuSans-73" d="M 2834 3397 
L 2834 2853 
Q 2591 2978 2328 3040 
Q 2066 3103 1784 3103 
Q 1356 3103 1142 2972 
Q 928 2841 928 2578 
Q 928 2378 1081 2264 
Q 1234 2150 1697 2047 
L 1894 2003 
Q 2506 1872 2764 1633 
Q 3022 1394 3022 966 
Q 3022 478 2636 193 
Q 2250 -91 1575 -91 
Q 1294 -91 989 -36 
Q 684 19 347 128 
L 347 722 
Q 666 556 975 473 
Q 1284 391 1588 391 
Q 1994 391 2212 530 
Q 2431 669 2431 922 
Q 2431 1156 2273 1281 
Q 2116 1406 1581 1522 
L 1381 1569 
Q 847 1681 609 1914 
Q 372 2147 372 2553 
Q 372 3047 722 3315 
Q 1072 3584 1716 3584 
Q 2034 3584 2315 3537 
Q 2597 3491 2834 3397 
z
" transform="scale(0.015625)"/>
      <path id="DejaVuSans-6f" d="M 1959 3097 
Q 1497 3097 1228 2736 
Q 959 2375 959 1747 
Q 959 1119 1226 758 
Q 1494 397 1959 397 
Q 2419 397 2687 759 
Q 2956 1122 2956 1747 
Q 2956 2369 2687 2733 
Q 2419 3097 1959 3097 
z
M 1959 3584 
Q 2709 3584 3137 3096 
Q 3566 2609 3566 1747 
Q 3566 888 3137 398 
Q 2709 -91 1959 -91 
Q 1206 -91 779 398 
Q 353 888 353 1747 
Q 353 2609 779 3096 
Q 1206 3584 1959 3584 
z
" transform="scale(0.015625)"/>
     </defs>
     <use xlink:href="#DejaVuSans-57"/>
     <use xlink:href="#DejaVuSans-61" x="92.501953"/>
     <use xlink:href="#DejaVuSans-72" x="153.78125"/>
     <use xlink:href="#DejaVuSans-6e" x="193.144531"/>
     <use xlink:href="#DejaVuSans-69" x="256.523438"/>
     <use xlink:href="#DejaVuSans-6e" x="284.306641"/>
     <use xlink:href="#DejaVuSans-67" x="347.685547"/>
     <use xlink:href="#DejaVuSans-3a" x="411.162109"/>
     <use xlink:href="#DejaVuSans-20" x="444.853516"/>
     <use xlink:href="#DejaVuSans-66" x="476.640625"/>
     <use xlink:href="#DejaVuSans-69" x="511.845703"/>
     <use xlink:href="#DejaVuSans-74" x="539.628906"/>
     <use xlink:href="#DejaVuSans-20" x="578.837891"/>
     <use xlink:href="#DejaVuSans-66" x="610.625"/>
     <use xlink:href="#DejaVuSans-61" x="645.830078"/>
     <use xlink:href="#DejaVuSans-69" x="707.109375"/>
     <use xlink:href="#DejaVuSans-6c" x="734.892578"/>
     <use xlink:href="#DejaVuSans-65" x="762.675781"/>
     <use xlink:href="#DejaVuSans-64" x="824.199219"/>
     <use xlink:href="#DejaVuSans-2e" x="887.675781"/>
     <use xlink:href="#DejaVuSans-20" x="919.462891"/>
     <use xlink:href="#DejaVuSans-6c" x="951.25"/>
     <use xlink:href="#DejaVuSans-6d" x="979.033203"/>
     <use xlink:href="#DejaVuSans-66" x="1076.445312"/>
     <use xlink:href="#DejaVuSans-69" x="1111.650391"/>
     <use xlink:href="#DejaVuSans-74" x="1139.433594"/>
     <use xlink:href="#DejaVuSans-20" x="1178.642578"/>
     <use xlink:href="#DejaVuSans-77" x="1210.429688"/>
     <use xlink:href="#DejaVuSans-61" x="1292.216797"/>
     <use xlink:href="#DejaVuSans-73" x="1353.496094"/>
     <use xlink:href="#DejaVuSans-20" x="1405.595703"/>
     <use xlink:href="#DejaVuSans-6e" x="1437.382812"/>
     <use xlink:href="#DejaVuSans-6f" x="1500.761719"/>
     <use xlink:href="#DejaVuSans-74" x="1561.943359"/>
    </g>
    <!-- able to fit the data. -->
    <g transform="translate(435.0885 66.60425) scale(0.1 -0.1)">
     <defs>
      <path id="DejaVuSans-62" d="M 3116 1747 
Q 3116 2381 2855 2742 
Q 2594 3103 2138 3103 
Q 1681 3103 1420 2742 
Q 1159 2381 1159 1747 
Q 1159 1113 1420 752 
Q 1681 391 2138 391 
Q 2594 391 2855 752 
Q 3116 1113 3116 1747 
z
M 1159 2969 
Q 1341 3281 1617 3432 
Q 1894 3584 2278 3584 
Q 2916 3584 3314 3078 
Q 3713 2572 3713 1747 
Q 3713 922 3314 415 
Q 2916 -91 2278 -91 
Q 1894 -91 1617 61 
Q 1341 213 1159 525 
L 1159 0 
L 581 0 
L 581 4863 
L 1159 4863 
L 1159 2969 
z
" transform="scale(0.015625)"/>
      <path id="DejaVuSans-68" d="M 3513 2113 
L 3513 0 
L 2938 0 
L 2938 2094 
Q 2938 2591 2744 2837 
Q 2550 3084 2163 3084 
Q 1697 3084 1428 2787 
Q 1159 2491 1159 1978 
L 1159 0 
L 581 0 
L 581 4863 
L 1159 4863 
L 1159 2956 
Q 1366 3272 1645 3428 
Q 1925 3584 2291 3584 
Q 2894 3584 3203 3211 
Q 3513 2838 3513 2113 
z
" transform="scale(0.015625)"/>
     </defs>
     <use xlink:href="#DejaVuSans-61"/>
     <use xlink:href="#DejaVuSans-62" x="61.279297"/>
     <use xlink:href="#DejaVuSans-6c" x="124.755859"/>
     <use xlink:href="#DejaVuSans-65" x="152.539062"/>
     <use xlink:href="#DejaVuSans-20" x="214.0625"/>
     <use xlink:href="#DejaVuSans-74" x="245.849609"/>
     <use xlink:href="#DejaVuSans-6f" x="285.058594"/>
     <use xlink:href="#DejaVuSans-20" x="346.240234"/>
     <use xlink:href="#DejaVuSans-66" x="378.027344"/>
     <use xlink:href="#DejaVuSans-69" x="413.232422"/>
     <use xlink:href="#DejaVuSans-74" x="441.015625"/>
     <use xlink:href="#DejaVuSans-20" x="480.224609"/>
     <use xlink:href="#DejaVuSans-74" x="512.011719"/>
     <use xlink:href="#DejaVuSans-68" x="551.220703"/>
     <use xlink:href="#DejaVuSans-65" x="614.599609"/>
     <use xlink:href="#DejaVuSans-20" x="676.123047"/>
     <use xlink:href="#DejaVuSans-64" x="707.910156"/>
     <use xlink:href="#DejaVuSans-61" x="771.386719"/>
     <use xlink:href="#DejaVuSans-74" x="832.666016"/>
     <use xlink:href="#DejaVuSans-61" x="871.875"/>
     <use xlink:href="#DejaVuSans-2e" x="933.154297"/>
    </g>
   </g>
  </g>
  <g id="axes_2">
   <g id="patch_8">
    <path d="M 60.1125 307.872 
L 417.2325 307.872 
L 417.2325 186.912 
L 60.1125 186.912 
z
" style="fill: #ffffff"/>
   </g>
   <g id="matplotlib.axis_3">
    <g id="xtick_9">
     <g id="line2d_15">
      <g>
       <use xlink:href="#mf1a88ca8af" x="76.345227" y="307.872" style="stroke: #000000; stroke-width: 0.8"/>
      </g>
     </g>
     <g id="text_7">
      <!-- 950 -->
      <g transform="translate(66.801477 322.470438) scale(0.1 -0.1)">
       <defs>
        <path id="DejaVuSans-39" d="M 703 97 
L 703 672 
Q 941 559 1184 500 
Q 1428 441 1663 441 
Q 2288 441 2617 861 
Q 2947 1281 2994 2138 
Q 2813 1869 2534 1725 
Q 2256 1581 1919 1581 
Q 1219 1581 811 2004 
Q 403 2428 403 3163 
Q 403 3881 828 4315 
Q 1253 4750 1959 4750 
Q 2769 4750 3195 4129 
Q 3622 3509 3622 2328 
Q 3622 1225 3098 567 
Q 2575 -91 1691 -91 
Q 1453 -91 1209 -44 
Q 966 3 703 97 
z
M 1959 2075 
Q 2384 2075 2632 2365 
Q 2881 2656 2881 3163 
Q 2881 3666 2632 3958 
Q 2384 4250 1959 4250 
Q 1534 4250 1286 3958 
Q 1038 3666 1038 3163 
Q 1038 2656 1286 2365 
Q 1534 2075 1959 2075 
z
" transform="scale(0.015625)"/>
        <path id="DejaVuSans-35" d="M 691 4666 
L 3169 4666 
L 3169 4134 
L 1269 4134 
L 1269 2991 
Q 1406 3038 1543 3061 
Q 1681 3084 1819 3084 
Q 2600 3084 3056 2656 
Q 3513 2228 3513 1497 
Q 3513 744 3044 326 
Q 2575 -91 1722 -91 
Q 1428 -91 1123 -41 
Q 819 9 494 109 
L 494 744 
Q 775 591 1075 516 
Q 1375 441 1709 441 
Q 2250 441 2565 725 
Q 2881 1009 2881 1497 
Q 2881 1984 2565 2268 
Q 2250 2553 1709 2553 
Q 1456 2553 1204 2497 
Q 953 2441 691 2322 
L 691 4666 
z
" transform="scale(0.015625)"/>
       </defs>
       <use xlink:href="#DejaVuSans-39"/>
       <use xlink:href="#DejaVuSans-35" x="63.623047"/>
       <use xlink:href="#DejaVuSans-30" x="127.246094"/>
      </g>
     </g>
    </g>
    <g id="xtick_10">
     <g id="line2d_16">
      <g>
       <use xlink:href="#mf1a88ca8af" x="119.6325" y="307.872" style="stroke: #000000; stroke-width: 0.8"/>
      </g>
     </g>
     <g id="text_8">
      <!-- 952 -->
      <g transform="translate(110.08875 322.470438) scale(0.1 -0.1)">
       <use xlink:href="#DejaVuSans-39"/>
       <use xlink:href="#DejaVuSans-35" x="63.623047"/>
       <use xlink:href="#DejaVuSans-32" x="127.246094"/>
      </g>
     </g>
    </g>
    <g id="xtick_11">
     <g id="line2d_17">
      <g>
       <use xlink:href="#mf1a88ca8af" x="162.919773" y="307.872" style="stroke: #000000; stroke-width: 0.8"/>
      </g>
     </g>
     <g id="text_9">
      <!-- 954 -->
      <g transform="translate(153.376023 322.470438) scale(0.1 -0.1)">
       <defs>
        <path id="DejaVuSans-34" d="M 2419 4116 
L 825 1625 
L 2419 1625 
L 2419 4116 
z
M 2253 4666 
L 3047 4666 
L 3047 1625 
L 3713 1625 
L 3713 1100 
L 3047 1100 
L 3047 0 
L 2419 0 
L 2419 1100 
L 313 1100 
L 313 1709 
L 2253 4666 
z
" transform="scale(0.015625)"/>
       </defs>
       <use xlink:href="#DejaVuSans-39"/>
       <use xlink:href="#DejaVuSans-35" x="63.623047"/>
       <use xlink:href="#DejaVuSans-34" x="127.246094"/>
      </g>
     </g>
    </g>
    <g id="xtick_12">
     <g id="line2d_18">
      <g>
       <use xlink:href="#mf1a88ca8af" x="206.207045" y="307.872" style="stroke: #000000; stroke-width: 0.8"/>
      </g>
     </g>
     <g id="text_10">
      <!-- 956 -->
      <g transform="translate(196.663295 322.470438) scale(0.1 -0.1)">
       <defs>
        <path id="DejaVuSans-36" d="M 2113 2584 
Q 1688 2584 1439 2293 
Q 1191 2003 1191 1497 
Q 1191 994 1439 701 
Q 1688 409 2113 409 
Q 2538 409 2786 701 
Q 3034 994 3034 1497 
Q 3034 2003 2786 2293 
Q 2538 2584 2113 2584 
z
M 3366 4563 
L 3366 3988 
Q 3128 4100 2886 4159 
Q 2644 4219 2406 4219 
Q 1781 4219 1451 3797 
Q 1122 3375 1075 2522 
Q 1259 2794 1537 2939 
Q 1816 3084 2150 3084 
Q 2853 3084 3261 2657 
Q 3669 2231 3669 1497 
Q 3669 778 3244 343 
Q 2819 -91 2113 -91 
Q 1303 -91 875 529 
Q 447 1150 447 2328 
Q 447 3434 972 4092 
Q 1497 4750 2381 4750 
Q 2619 4750 2861 4703 
Q 3103 4656 3366 4563 
z
" transform="scale(0.015625)"/>
       </defs>
       <use xlink:href="#DejaVuSans-39"/>
       <use xlink:href="#DejaVuSans-35" x="63.623047"/>
       <use xlink:href="#DejaVuSans-36" x="127.246094"/>
      </g>
     </g>
    </g>
    <g id="xtick_13">
     <g id="line2d_19">
      <g>
       <use xlink:href="#mf1a88ca8af" x="249.494318" y="307.872" style="stroke: #000000; stroke-width: 0.8"/>
      </g>
     </g>
     <g id="text_11">
      <!-- 958 -->
      <g transform="translate(239.950568 322.470438) scale(0.1 -0.1)">
       <defs>
        <path id="DejaVuSans-38" d="M 2034 2216 
Q 1584 2216 1326 1975 
Q 1069 1734 1069 1313 
Q 1069 891 1326 650 
Q 1584 409 2034 409 
Q 2484 409 2743 651 
Q 3003 894 3003 1313 
Q 3003 1734 2745 1975 
Q 2488 2216 2034 2216 
z
M 1403 2484 
Q 997 2584 770 2862 
Q 544 3141 544 3541 
Q 544 4100 942 4425 
Q 1341 4750 2034 4750 
Q 2731 4750 3128 4425 
Q 3525 4100 3525 3541 
Q 3525 3141 3298 2862 
Q 3072 2584 2669 2484 
Q 3125 2378 3379 2068 
Q 3634 1759 3634 1313 
Q 3634 634 3220 271 
Q 2806 -91 2034 -91 
Q 1263 -91 848 271 
Q 434 634 434 1313 
Q 434 1759 690 2068 
Q 947 2378 1403 2484 
z
M 1172 3481 
Q 1172 3119 1398 2916 
Q 1625 2713 2034 2713 
Q 2441 2713 2670 2916 
Q 2900 3119 2900 3481 
Q 2900 3844 2670 4047 
Q 2441 4250 2034 4250 
Q 1625 4250 1398 4047 
Q 1172 3844 1172 3481 
z
" transform="scale(0.015625)"/>
       </defs>
       <use xlink:href="#DejaVuSans-39"/>
       <use xlink:href="#DejaVuSans-35" x="63.623047"/>
       <use xlink:href="#DejaVuSans-38" x="127.246094"/>
      </g>
     </g>
    </g>
    <g id="xtick_14">
     <g id="line2d_20">
      <g>
       <use xlink:href="#mf1a88ca8af" x="292.781591" y="307.872" style="stroke: #000000; stroke-width: 0.8"/>
      </g>
     </g>
     <g id="text_12">
      <!-- 960 -->
      <g transform="translate(283.237841 322.470438) scale(0.1 -0.1)">
       <use xlink:href="#DejaVuSans-39"/>
       <use xlink:href="#DejaVuSans-36" x="63.623047"/>
       <use xlink:href="#DejaVuSans-30" x="127.246094"/>
      </g>
     </g>
    </g>
    <g id="xtick_15">
     <g id="line2d_21">
      <g>
       <use xlink:href="#mf1a88ca8af" x="336.068864" y="307.872" style="stroke: #000000; stroke-width: 0.8"/>
      </g>
     </g>
     <g id="text_13">
      <!-- 962 -->
      <g transform="translate(326.525114 322.470438) scale(0.1 -0.1)">
       <use xlink:href="#DejaVuSans-39"/>
       <use xlink:href="#DejaVuSans-36" x="63.623047"/>
       <use xlink:href="#DejaVuSans-32" x="127.246094"/>
      </g>
     </g>
    </g>
    <g id="xtick_16">
     <g id="line2d_22">
      <g>
       <use xlink:href="#mf1a88ca8af" x="379.356136" y="307.872" style="stroke: #000000; stroke-width: 0.8"/>
      </g>
     </g>
     <g id="text_14">
      <!-- 964 -->
      <g transform="translate(369.812386 322.470438) scale(0.1 -0.1)">
       <use xlink:href="#DejaVuSans-39"/>
       <use xlink:href="#DejaVuSans-36" x="63.623047"/>
       <use xlink:href="#DejaVuSans-34" x="127.246094"/>
      </g>
     </g>
    </g>
    <g id="text_15">
     <!-- Frequency [MHz] -->
     <g transform="translate(196.65375 336.148562) scale(0.1 -0.1)">
      <defs>
       <path id="DejaVuSans-46" d="M 628 4666 
L 3309 4666 
L 3309 4134 
L 1259 4134 
L 1259 2759 
L 3109 2759 
L 3109 2228 
L 1259 2228 
L 1259 0 
L 628 0 
L 628 4666 
z
" transform="scale(0.015625)"/>
       <path id="DejaVuSans-71" d="M 947 1747 
Q 947 1113 1208 752 
Q 1469 391 1925 391 
Q 2381 391 2643 752 
Q 2906 1113 2906 1747 
Q 2906 2381 2643 2742 
Q 2381 3103 1925 3103 
Q 1469 3103 1208 2742 
Q 947 2381 947 1747 
z
M 2906 525 
Q 2725 213 2448 61 
Q 2172 -91 1784 -91 
Q 1150 -91 751 415 
Q 353 922 353 1747 
Q 353 2572 751 3078 
Q 1150 3584 1784 3584 
Q 2172 3584 2448 3432 
Q 2725 3281 2906 2969 
L 2906 3500 
L 3481 3500 
L 3481 -1331 
L 2906 -1331 
L 2906 525 
z
" transform="scale(0.015625)"/>
       <path id="DejaVuSans-75" d="M 544 1381 
L 544 3500 
L 1119 3500 
L 1119 1403 
Q 1119 906 1312 657 
Q 1506 409 1894 409 
Q 2359 409 2629 706 
Q 2900 1003 2900 1516 
L 2900 3500 
L 3475 3500 
L 3475 0 
L 2900 0 
L 2900 538 
Q 2691 219 2414 64 
Q 2138 -91 1772 -91 
Q 1169 -91 856 284 
Q 544 659 544 1381 
z
M 1991 3584 
L 1991 3584 
z
" transform="scale(0.015625)"/>
       <path id="DejaVuSans-63" d="M 3122 3366 
L 3122 2828 
Q 2878 2963 2633 3030 
Q 2388 3097 2138 3097 
Q 1578 3097 1268 2742 
Q 959 2388 959 1747 
Q 959 1106 1268 751 
Q 1578 397 2138 397 
Q 2388 397 2633 464 
Q 2878 531 3122 666 
L 3122 134 
Q 2881 22 2623 -34 
Q 2366 -91 2075 -91 
Q 1284 -91 818 406 
Q 353 903 353 1747 
Q 353 2603 823 3093 
Q 1294 3584 2113 3584 
Q 2378 3584 2631 3529 
Q 2884 3475 3122 3366 
z
" transform="scale(0.015625)"/>
       <path id="DejaVuSans-79" d="M 2059 -325 
Q 1816 -950 1584 -1140 
Q 1353 -1331 966 -1331 
L 506 -1331 
L 506 -850 
L 844 -850 
Q 1081 -850 1212 -737 
Q 1344 -625 1503 -206 
L 1606 56 
L 191 3500 
L 800 3500 
L 1894 763 
L 2988 3500 
L 3597 3500 
L 2059 -325 
z
" transform="scale(0.015625)"/>
       <path id="DejaVuSans-4d" d="M 628 4666 
L 1569 4666 
L 2759 1491 
L 3956 4666 
L 4897 4666 
L 4897 0 
L 4281 0 
L 4281 4097 
L 3078 897 
L 2444 897 
L 1241 4097 
L 1241 0 
L 628 0 
L 628 4666 
z
" transform="scale(0.015625)"/>
       <path id="DejaVuSans-48" d="M 628 4666 
L 1259 4666 
L 1259 2753 
L 3553 2753 
L 3553 4666 
L 4184 4666 
L 4184 0 
L 3553 0 
L 3553 2222 
L 1259 2222 
L 1259 0 
L 628 0 
L 628 4666 
z
" transform="scale(0.015625)"/>
       <path id="DejaVuSans-7a" d="M 353 3500 
L 3084 3500 
L 3084 2975 
L 922 459 
L 3084 459 
L 3084 0 
L 275 0 
L 275 525 
L 2438 3041 
L 353 3041 
L 353 3500 
z
" transform="scale(0.015625)"/>
      </defs>
      <use xlink:href="#DejaVuSans-46"/>
      <use xlink:href="#DejaVuSans-72" x="50.269531"/>
      <use xlink:href="#DejaVuSans-65" x="89.132812"/>
      <use xlink:href="#DejaVuSans-71" x="150.65625"/>
      <use xlink:href="#DejaVuSans-75" x="214.132812"/>
      <use xlink:href="#DejaVuSans-65" x="277.511719"/>
      <use xlink:href="#DejaVuSans-6e" x="339.035156"/>
      <use xlink:href="#DejaVuSans-63" x="402.414062"/>
      <use xlink:href="#DejaVuSans-79" x="457.394531"/>
      <use xlink:href="#DejaVuSans-20" x="516.574219"/>
      <use xlink:href="#DejaVuSans-5b" x="548.361328"/>
      <use xlink:href="#DejaVuSans-4d" x="587.375"/>
      <use xlink:href="#DejaVuSans-48" x="673.654297"/>
      <use xlink:href="#DejaVuSans-7a" x="748.849609"/>
      <use xlink:href="#DejaVuSans-5d" x="801.339844"/>
     </g>
    </g>
    <g id="text_16">
     <!-- +5 GHz -->
     <g transform="translate(378.795 335.148562) scale(0.1 -0.1)">
      <defs>
       <path id="DejaVuSans-2b" d="M 2944 4013 
L 2944 2272 
L 4684 2272 
L 4684 1741 
L 2944 1741 
L 2944 0 
L 2419 0 
L 2419 1741 
L 678 1741 
L 678 2272 
L 2419 2272 
L 2419 4013 
L 2944 4013 
z
" transform="scale(0.015625)"/>
       <path id="DejaVuSans-47" d="M 3809 666 
L 3809 1919 
L 2778 1919 
L 2778 2438 
L 4434 2438 
L 4434 434 
Q 4069 175 3628 42 
Q 3188 -91 2688 -91 
Q 1594 -91 976 548 
Q 359 1188 359 2328 
Q 359 3472 976 4111 
Q 1594 4750 2688 4750 
Q 3144 4750 3555 4637 
Q 3966 4525 4313 4306 
L 4313 3634 
Q 3963 3931 3569 4081 
Q 3175 4231 2741 4231 
Q 1884 4231 1454 3753 
Q 1025 3275 1025 2328 
Q 1025 1384 1454 906 
Q 1884 428 2741 428 
Q 3075 428 3337 486 
Q 3600 544 3809 666 
z
" transform="scale(0.015625)"/>
      </defs>
      <use xlink:href="#DejaVuSans-2b"/>
      <use xlink:href="#DejaVuSans-35" x="83.789062"/>
      <use xlink:href="#DejaVuSans-20" x="147.412109"/>
      <use xlink:href="#DejaVuSans-47" x="179.199219"/>
      <use xlink:href="#DejaVuSans-48" x="256.689453"/>
      <use xlink:href="#DejaVuSans-7a" x="331.884766"/>
     </g>
    </g>
   </g>
   <g id="matplotlib.axis_4">
    <g id="ytick_5">
     <g id="line2d_23">
      <g>
       <use xlink:href="#m4ac1f6c380" x="60.1125" y="287.767375" style="stroke: #000000; stroke-width: 0.8"/>
      </g>
     </g>
     <g id="text_17">
      <!-- -120 -->
      <g transform="translate(30.417188 291.566593) scale(0.1 -0.1)">
       <defs>
        <path id="DejaVuSans-2d" d="M 313 2009 
L 1997 2009 
L 1997 1497 
L 313 1497 
L 313 2009 
z
" transform="scale(0.015625)"/>
       </defs>
       <use xlink:href="#DejaVuSans-2d"/>
       <use xlink:href="#DejaVuSans-31" x="36.083984"/>
       <use xlink:href="#DejaVuSans-32" x="99.707031"/>
       <use xlink:href="#DejaVuSans-30" x="163.330078"/>
      </g>
     </g>
    </g>
    <g id="ytick_6">
     <g id="line2d_24">
      <g>
       <use xlink:href="#m4ac1f6c380" x="60.1125" y="252.299148" style="stroke: #000000; stroke-width: 0.8"/>
      </g>
     </g>
     <g id="text_18">
      <!-- -100 -->
      <g transform="translate(30.417188 256.098366) scale(0.1 -0.1)">
       <use xlink:href="#DejaVuSans-2d"/>
       <use xlink:href="#DejaVuSans-31" x="36.083984"/>
       <use xlink:href="#DejaVuSans-30" x="99.707031"/>
       <use xlink:href="#DejaVuSans-30" x="163.330078"/>
      </g>
     </g>
    </g>
    <g id="ytick_7">
     <g id="line2d_25">
      <g>
       <use xlink:href="#m4ac1f6c380" x="60.1125" y="216.830921" style="stroke: #000000; stroke-width: 0.8"/>
      </g>
     </g>
     <g id="text_19">
      <!-- -80 -->
      <g transform="translate(36.779688 220.63014) scale(0.1 -0.1)">
       <use xlink:href="#DejaVuSans-2d"/>
       <use xlink:href="#DejaVuSans-38" x="36.083984"/>
       <use xlink:href="#DejaVuSans-30" x="99.707031"/>
      </g>
     </g>
    </g>
    <g id="text_20">
     <!-- $\angle S_{21}$ [deg] -->
     <g transform="translate(24.317188 274.592) rotate(-90) scale(0.1 -0.1)">
      <defs>
       <path id="DejaVuSans-2220" d="M 5028 631 
L 5028 0 
L 547 0 
L 3525 4666 
L 4281 4666 
L 1716 631 
L 5028 631 
z
" transform="scale(0.015625)"/>
      </defs>
      <use xlink:href="#DejaVuSans-2220" transform="translate(0 0.015625)"/>
      <use xlink:href="#DejaVuSans-Oblique-53" transform="translate(89.648438 0.015625)"/>
      <use xlink:href="#DejaVuSans-32" transform="translate(153.125 -16.390625) scale(0.7)"/>
      <use xlink:href="#DejaVuSans-31" transform="translate(197.661133 -16.390625) scale(0.7)"/>
      <use xlink:href="#DejaVuSans-20" transform="translate(244.931641 0.015625)"/>
      <use xlink:href="#DejaVuSans-5b" transform="translate(276.71875 0.015625)"/>
      <use xlink:href="#DejaVuSans-64" transform="translate(315.732422 0.015625)"/>
      <use xlink:href="#DejaVuSans-65" transform="translate(379.208984 0.015625)"/>
      <use xlink:href="#DejaVuSans-67" transform="translate(440.732422 0.015625)"/>
      <use xlink:href="#DejaVuSans-5d" transform="translate(504.208984 0.015625)"/>
     </g>
    </g>
   </g>
   <g id="line2d_26">
    <path d="M 76.345227 193.480246 
L 77.976657 193.688567 
L 81.239517 193.836025 
L 82.870947 195.570401 
L 84.502377 194.966175 
L 86.133807 196.169372 
L 89.396666 196.904705 
L 91.028096 197.033751 
L 94.290956 198.366455 
L 95.922386 198.633854 
L 97.553816 200.550871 
L 99.185246 200.567878 
L 100.816675 201.841707 
L 102.448105 201.752821 
L 104.079535 202.439738 
L 105.710965 202.577912 
L 107.342395 202.588361 
L 108.973825 204.161331 
L 110.605255 204.398503 
L 112.236685 205.366732 
L 113.868114 205.241199 
L 115.499544 206.63305 
L 117.130974 205.177339 
L 118.762404 207.222813 
L 120.393834 207.895866 
L 122.025264 207.740732 
L 123.656694 208.563078 
L 125.288124 208.492676 
L 126.919553 209.853696 
L 128.550983 208.919026 
L 130.182413 210.028819 
L 133.445273 210.974288 
L 135.076703 211.578997 
L 136.708133 212.064693 
L 138.339563 212.27399 
L 139.970992 213.788929 
L 141.602422 213.252576 
L 143.233852 214.308806 
L 144.865282 214.485809 
L 146.496712 214.89158 
L 148.128142 216.854087 
L 149.759572 216.249294 
L 151.391002 215.786238 
L 153.022431 218.092946 
L 154.653861 218.738045 
L 156.285291 218.233303 
L 157.916721 219.129432 
L 159.548151 220.653773 
L 161.179581 220.068765 
L 162.811011 220.182611 
L 164.442441 220.414394 
L 166.07387 221.314458 
L 169.33673 222.731408 
L 170.96816 223.03999 
L 174.23102 224.679783 
L 175.86245 225.292353 
L 177.49388 225.728687 
L 179.12531 225.603643 
L 180.756739 226.616139 
L 182.388169 226.795363 
L 185.651029 227.914529 
L 187.282459 228.412425 
L 188.913889 228.663516 
L 190.545319 229.943534 
L 192.176749 229.623951 
L 193.808178 230.547213 
L 195.439608 230.565522 
L 197.071038 232.135315 
L 198.702468 231.675275 
L 200.333898 233.148275 
L 201.965328 233.081952 
L 203.596758 233.334052 
L 205.228188 233.863291 
L 206.859617 234.528902 
L 208.491047 235.388563 
L 211.753907 236.173935 
L 213.385337 237.583 
L 215.016767 238.137494 
L 216.648197 238.810405 
L 218.279627 237.564842 
L 219.911056 239.194559 
L 221.542486 240.266131 
L 223.173916 239.413765 
L 224.805346 239.634032 
L 226.436776 240.990537 
L 228.068206 241.260638 
L 229.699636 242.155677 
L 231.331066 241.441817 
L 232.962495 243.993732 
L 234.593925 244.917093 
L 236.225355 244.546901 
L 237.856785 245.322401 
L 239.488215 245.316988 
L 241.119645 246.371533 
L 242.751075 246.259674 
L 244.382505 247.777996 
L 246.013934 247.367568 
L 247.645364 248.671328 
L 249.276794 248.426619 
L 250.908224 249.324501 
L 254.171084 249.959875 
L 255.802514 250.669711 
L 257.433944 250.901905 
L 259.065373 252.887093 
L 260.696803 252.673133 
L 262.328233 253.218698 
L 263.959663 254.642893 
L 265.591093 254.540417 
L 267.222523 254.930773 
L 268.853953 256.206638 
L 270.485383 255.505888 
L 272.116812 255.194802 
L 273.748242 256.976502 
L 275.379672 256.858871 
L 277.011102 258.137475 
L 278.642532 258.009198 
L 280.273962 259.725918 
L 281.905392 259.433863 
L 283.536822 260.499655 
L 285.168251 261.342992 
L 286.799681 261.610688 
L 288.431111 262.598166 
L 290.062541 261.840765 
L 291.693971 263.630812 
L 293.325401 264.070071 
L 294.956831 263.549677 
L 296.588261 264.675196 
L 298.21969 265.307132 
L 299.85112 265.568356 
L 301.48255 265.485377 
L 303.11398 267.799846 
L 304.74541 268.254403 
L 306.37684 268.285562 
L 308.00827 269.899893 
L 309.6397 268.871848 
L 311.27113 270.175211 
L 312.902559 270.285152 
L 314.533989 271.388514 
L 316.165419 272.673084 
L 317.796849 271.552614 
L 319.428279 272.16297 
L 321.059709 273.683959 
L 322.691139 273.160272 
L 324.322569 273.54591 
L 325.953998 275.411735 
L 327.585428 276.570912 
L 329.216858 275.725106 
L 330.848288 276.265551 
L 332.479718 277.015318 
L 334.111148 276.534083 
L 335.742578 278.98544 
L 337.374008 279.056227 
L 339.005437 278.892329 
L 340.636867 279.714502 
L 342.268297 280.217843 
L 343.899727 281.196101 
L 345.531157 281.190296 
L 347.162587 281.663419 
L 348.794017 283.303653 
L 350.425447 283.066539 
L 352.056876 283.596367 
L 353.688306 284.335076 
L 356.951166 286.158558 
L 358.582596 286.301401 
L 360.214026 287.180179 
L 365.108315 288.371627 
L 366.739745 289.046605 
L 368.371175 290.098658 
L 370.002605 290.597322 
L 371.634035 290.732818 
L 373.265465 291.496317 
L 374.896895 291.384996 
L 376.528325 292.609467 
L 378.159754 294.016727 
L 379.791184 293.661856 
L 381.422614 294.39519 
L 383.054044 295.523054 
L 384.685474 295.881853 
L 386.316904 295.332718 
L 387.948334 297.515999 
L 389.579764 296.671193 
L 391.211193 297.781538 
L 392.842623 299.092851 
L 394.474053 298.848519 
L 396.105483 300.042585 
L 397.736913 300.033358 
L 399.368343 300.886281 
L 400.999773 302.373818 
L 400.999773 302.373818 
" clip-path="url(#p59677e6d6b)" style="fill: none; stroke: #1f77b4; stroke-width: 1.5; stroke-linecap: square"/>
    <g clip-path="url(#p59677e6d6b)">
     <use xlink:href="#m379f32807c" x="76.345227" y="193.480246" style="fill: #1f77b4; stroke: #1f77b4"/>
     <use xlink:href="#m379f32807c" x="77.976657" y="193.688567" style="fill: #1f77b4; stroke: #1f77b4"/>
     <use xlink:href="#m379f32807c" x="79.608087" y="193.754778" style="fill: #1f77b4; stroke: #1f77b4"/>
     <use xlink:href="#m379f32807c" x="81.239517" y="193.836025" style="fill: #1f77b4; stroke: #1f77b4"/>
     <use xlink:href="#m379f32807c" x="82.870947" y="195.570401" style="fill: #1f77b4; stroke: #1f77b4"/>
     <use xlink:href="#m379f32807c" x="84.502377" y="194.966175" style="fill: #1f77b4; stroke: #1f77b4"/>
     <use xlink:href="#m379f32807c" x="86.133807" y="196.169372" style="fill: #1f77b4; stroke: #1f77b4"/>
     <use xlink:href="#m379f32807c" x="87.765236" y="196.559487" style="fill: #1f77b4; stroke: #1f77b4"/>
     <use xlink:href="#m379f32807c" x="89.396666" y="196.904705" style="fill: #1f77b4; stroke: #1f77b4"/>
     <use xlink:href="#m379f32807c" x="91.028096" y="197.033751" style="fill: #1f77b4; stroke: #1f77b4"/>
     <use xlink:href="#m379f32807c" x="92.659526" y="197.744066" style="fill: #1f77b4; stroke: #1f77b4"/>
     <use xlink:href="#m379f32807c" x="94.290956" y="198.366455" style="fill: #1f77b4; stroke: #1f77b4"/>
     <use xlink:href="#m379f32807c" x="95.922386" y="198.633854" style="fill: #1f77b4; stroke: #1f77b4"/>
     <use xlink:href="#m379f32807c" x="97.553816" y="200.550871" style="fill: #1f77b4; stroke: #1f77b4"/>
     <use xlink:href="#m379f32807c" x="99.185246" y="200.567878" style="fill: #1f77b4; stroke: #1f77b4"/>
     <use xlink:href="#m379f32807c" x="100.816675" y="201.841707" style="fill: #1f77b4; stroke: #1f77b4"/>
     <use xlink:href="#m379f32807c" x="102.448105" y="201.752821" style="fill: #1f77b4; stroke: #1f77b4"/>
     <use xlink:href="#m379f32807c" x="104.079535" y="202.439738" style="fill: #1f77b4; stroke: #1f77b4"/>
     <use xlink:href="#m379f32807c" x="105.710965" y="202.577912" style="fill: #1f77b4; stroke: #1f77b4"/>
     <use xlink:href="#m379f32807c" x="107.342395" y="202.588361" style="fill: #1f77b4; stroke: #1f77b4"/>
     <use xlink:href="#m379f32807c" x="108.973825" y="204.161331" style="fill: #1f77b4; stroke: #1f77b4"/>
     <use xlink:href="#m379f32807c" x="110.605255" y="204.398503" style="fill: #1f77b4; stroke: #1f77b4"/>
     <use xlink:href="#m379f32807c" x="112.236685" y="205.366732" style="fill: #1f77b4; stroke: #1f77b4"/>
     <use xlink:href="#m379f32807c" x="113.868114" y="205.241199" style="fill: #1f77b4; stroke: #1f77b4"/>
     <use xlink:href="#m379f32807c" x="115.499544" y="206.63305" style="fill: #1f77b4; stroke: #1f77b4"/>
     <use xlink:href="#m379f32807c" x="117.130974" y="205.177339" style="fill: #1f77b4; stroke: #1f77b4"/>
     <use xlink:href="#m379f32807c" x="118.762404" y="207.222813" style="fill: #1f77b4; stroke: #1f77b4"/>
     <use xlink:href="#m379f32807c" x="120.393834" y="207.895866" style="fill: #1f77b4; stroke: #1f77b4"/>
     <use xlink:href="#m379f32807c" x="122.025264" y="207.740732" style="fill: #1f77b4; stroke: #1f77b4"/>
     <use xlink:href="#m379f32807c" x="123.656694" y="208.563078" style="fill: #1f77b4; stroke: #1f77b4"/>
     <use xlink:href="#m379f32807c" x="125.288124" y="208.492676" style="fill: #1f77b4; stroke: #1f77b4"/>
     <use xlink:href="#m379f32807c" x="126.919553" y="209.853696" style="fill: #1f77b4; stroke: #1f77b4"/>
     <use xlink:href="#m379f32807c" x="128.550983" y="208.919026" style="fill: #1f77b4; stroke: #1f77b4"/>
     <use xlink:href="#m379f32807c" x="130.182413" y="210.028819" style="fill: #1f77b4; stroke: #1f77b4"/>
     <use xlink:href="#m379f32807c" x="131.813843" y="210.453912" style="fill: #1f77b4; stroke: #1f77b4"/>
     <use xlink:href="#m379f32807c" x="133.445273" y="210.974288" style="fill: #1f77b4; stroke: #1f77b4"/>
     <use xlink:href="#m379f32807c" x="135.076703" y="211.578997" style="fill: #1f77b4; stroke: #1f77b4"/>
     <use xlink:href="#m379f32807c" x="136.708133" y="212.064693" style="fill: #1f77b4; stroke: #1f77b4"/>
     <use xlink:href="#m379f32807c" x="138.339563" y="212.27399" style="fill: #1f77b4; stroke: #1f77b4"/>
     <use xlink:href="#m379f32807c" x="139.970992" y="213.788929" style="fill: #1f77b4; stroke: #1f77b4"/>
     <use xlink:href="#m379f32807c" x="141.602422" y="213.252576" style="fill: #1f77b4; stroke: #1f77b4"/>
     <use xlink:href="#m379f32807c" x="143.233852" y="214.308806" style="fill: #1f77b4; stroke: #1f77b4"/>
     <use xlink:href="#m379f32807c" x="144.865282" y="214.485809" style="fill: #1f77b4; stroke: #1f77b4"/>
     <use xlink:href="#m379f32807c" x="146.496712" y="214.89158" style="fill: #1f77b4; stroke: #1f77b4"/>
     <use xlink:href="#m379f32807c" x="148.128142" y="216.854087" style="fill: #1f77b4; stroke: #1f77b4"/>
     <use xlink:href="#m379f32807c" x="149.759572" y="216.249294" style="fill: #1f77b4; stroke: #1f77b4"/>
     <use xlink:href="#m379f32807c" x="151.391002" y="215.786238" style="fill: #1f77b4; stroke: #1f77b4"/>
     <use xlink:href="#m379f32807c" x="153.022431" y="218.092946" style="fill: #1f77b4; stroke: #1f77b4"/>
     <use xlink:href="#m379f32807c" x="154.653861" y="218.738045" style="fill: #1f77b4; stroke: #1f77b4"/>
     <use xlink:href="#m379f32807c" x="156.285291" y="218.233303" style="fill: #1f77b4; stroke: #1f77b4"/>
     <use xlink:href="#m379f32807c" x="157.916721" y="219.129432" style="fill: #1f77b4; stroke: #1f77b4"/>
     <use xlink:href="#m379f32807c" x="159.548151" y="220.653773" style="fill: #1f77b4; stroke: #1f77b4"/>
     <use xlink:href="#m379f32807c" x="161.179581" y="220.068765" style="fill: #1f77b4; stroke: #1f77b4"/>
     <use xlink:href="#m379f32807c" x="162.811011" y="220.182611" style="fill: #1f77b4; stroke: #1f77b4"/>
     <use xlink:href="#m379f32807c" x="164.442441" y="220.414394" style="fill: #1f77b4; stroke: #1f77b4"/>
     <use xlink:href="#m379f32807c" x="166.07387" y="221.314458" style="fill: #1f77b4; stroke: #1f77b4"/>
     <use xlink:href="#m379f32807c" x="167.7053" y="222.029826" style="fill: #1f77b4; stroke: #1f77b4"/>
     <use xlink:href="#m379f32807c" x="169.33673" y="222.731408" style="fill: #1f77b4; stroke: #1f77b4"/>
     <use xlink:href="#m379f32807c" x="170.96816" y="223.03999" style="fill: #1f77b4; stroke: #1f77b4"/>
     <use xlink:href="#m379f32807c" x="172.59959" y="223.861383" style="fill: #1f77b4; stroke: #1f77b4"/>
     <use xlink:href="#m379f32807c" x="174.23102" y="224.679783" style="fill: #1f77b4; stroke: #1f77b4"/>
     <use xlink:href="#m379f32807c" x="175.86245" y="225.292353" style="fill: #1f77b4; stroke: #1f77b4"/>
     <use xlink:href="#m379f32807c" x="177.49388" y="225.728687" style="fill: #1f77b4; stroke: #1f77b4"/>
     <use xlink:href="#m379f32807c" x="179.12531" y="225.603643" style="fill: #1f77b4; stroke: #1f77b4"/>
     <use xlink:href="#m379f32807c" x="180.756739" y="226.616139" style="fill: #1f77b4; stroke: #1f77b4"/>
     <use xlink:href="#m379f32807c" x="182.388169" y="226.795363" style="fill: #1f77b4; stroke: #1f77b4"/>
     <use xlink:href="#m379f32807c" x="184.019599" y="227.385129" style="fill: #1f77b4; stroke: #1f77b4"/>
     <use xlink:href="#m379f32807c" x="185.651029" y="227.914529" style="fill: #1f77b4; stroke: #1f77b4"/>
     <use xlink:href="#m379f32807c" x="187.282459" y="228.412425" style="fill: #1f77b4; stroke: #1f77b4"/>
     <use xlink:href="#m379f32807c" x="188.913889" y="228.663516" style="fill: #1f77b4; stroke: #1f77b4"/>
     <use xlink:href="#m379f32807c" x="190.545319" y="229.943534" style="fill: #1f77b4; stroke: #1f77b4"/>
     <use xlink:href="#m379f32807c" x="192.176749" y="229.623951" style="fill: #1f77b4; stroke: #1f77b4"/>
     <use xlink:href="#m379f32807c" x="193.808178" y="230.547213" style="fill: #1f77b4; stroke: #1f77b4"/>
     <use xlink:href="#m379f32807c" x="195.439608" y="230.565522" style="fill: #1f77b4; stroke: #1f77b4"/>
     <use xlink:href="#m379f32807c" x="197.071038" y="232.135315" style="fill: #1f77b4; stroke: #1f77b4"/>
     <use xlink:href="#m379f32807c" x="198.702468" y="231.675275" style="fill: #1f77b4; stroke: #1f77b4"/>
     <use xlink:href="#m379f32807c" x="200.333898" y="233.148275" style="fill: #1f77b4; stroke: #1f77b4"/>
     <use xlink:href="#m379f32807c" x="201.965328" y="233.081952" style="fill: #1f77b4; stroke: #1f77b4"/>
     <use xlink:href="#m379f32807c" x="203.596758" y="233.334052" style="fill: #1f77b4; stroke: #1f77b4"/>
     <use xlink:href="#m379f32807c" x="205.228188" y="233.863291" style="fill: #1f77b4; stroke: #1f77b4"/>
     <use xlink:href="#m379f32807c" x="206.859617" y="234.528902" style="fill: #1f77b4; stroke: #1f77b4"/>
     <use xlink:href="#m379f32807c" x="208.491047" y="235.388563" style="fill: #1f77b4; stroke: #1f77b4"/>
     <use xlink:href="#m379f32807c" x="210.122477" y="235.734878" style="fill: #1f77b4; stroke: #1f77b4"/>
     <use xlink:href="#m379f32807c" x="211.753907" y="236.173935" style="fill: #1f77b4; stroke: #1f77b4"/>
     <use xlink:href="#m379f32807c" x="213.385337" y="237.583" style="fill: #1f77b4; stroke: #1f77b4"/>
     <use xlink:href="#m379f32807c" x="215.016767" y="238.137494" style="fill: #1f77b4; stroke: #1f77b4"/>
     <use xlink:href="#m379f32807c" x="216.648197" y="238.810405" style="fill: #1f77b4; stroke: #1f77b4"/>
     <use xlink:href="#m379f32807c" x="218.279627" y="237.564842" style="fill: #1f77b4; stroke: #1f77b4"/>
     <use xlink:href="#m379f32807c" x="219.911056" y="239.194559" style="fill: #1f77b4; stroke: #1f77b4"/>
     <use xlink:href="#m379f32807c" x="221.542486" y="240.266131" style="fill: #1f77b4; stroke: #1f77b4"/>
     <use xlink:href="#m379f32807c" x="223.173916" y="239.413765" style="fill: #1f77b4; stroke: #1f77b4"/>
     <use xlink:href="#m379f32807c" x="224.805346" y="239.634032" style="fill: #1f77b4; stroke: #1f77b4"/>
     <use xlink:href="#m379f32807c" x="226.436776" y="240.990537" style="fill: #1f77b4; stroke: #1f77b4"/>
     <use xlink:href="#m379f32807c" x="228.068206" y="241.260638" style="fill: #1f77b4; stroke: #1f77b4"/>
     <use xlink:href="#m379f32807c" x="229.699636" y="242.155677" style="fill: #1f77b4; stroke: #1f77b4"/>
     <use xlink:href="#m379f32807c" x="231.331066" y="241.441817" style="fill: #1f77b4; stroke: #1f77b4"/>
     <use xlink:href="#m379f32807c" x="232.962495" y="243.993732" style="fill: #1f77b4; stroke: #1f77b4"/>
     <use xlink:href="#m379f32807c" x="234.593925" y="244.917093" style="fill: #1f77b4; stroke: #1f77b4"/>
     <use xlink:href="#m379f32807c" x="236.225355" y="244.546901" style="fill: #1f77b4; stroke: #1f77b4"/>
     <use xlink:href="#m379f32807c" x="237.856785" y="245.322401" style="fill: #1f77b4; stroke: #1f77b4"/>
     <use xlink:href="#m379f32807c" x="239.488215" y="245.316988" style="fill: #1f77b4; stroke: #1f77b4"/>
     <use xlink:href="#m379f32807c" x="241.119645" y="246.371533" style="fill: #1f77b4; stroke: #1f77b4"/>
     <use xlink:href="#m379f32807c" x="242.751075" y="246.259674" style="fill: #1f77b4; stroke: #1f77b4"/>
     <use xlink:href="#m379f32807c" x="244.382505" y="247.777996" style="fill: #1f77b4; stroke: #1f77b4"/>
     <use xlink:href="#m379f32807c" x="246.013934" y="247.367568" style="fill: #1f77b4; stroke: #1f77b4"/>
     <use xlink:href="#m379f32807c" x="247.645364" y="248.671328" style="fill: #1f77b4; stroke: #1f77b4"/>
     <use xlink:href="#m379f32807c" x="249.276794" y="248.426619" style="fill: #1f77b4; stroke: #1f77b4"/>
     <use xlink:href="#m379f32807c" x="250.908224" y="249.324501" style="fill: #1f77b4; stroke: #1f77b4"/>
     <use xlink:href="#m379f32807c" x="252.539654" y="249.588243" style="fill: #1f77b4; stroke: #1f77b4"/>
     <use xlink:href="#m379f32807c" x="254.171084" y="249.959875" style="fill: #1f77b4; stroke: #1f77b4"/>
     <use xlink:href="#m379f32807c" x="255.802514" y="250.669711" style="fill: #1f77b4; stroke: #1f77b4"/>
     <use xlink:href="#m379f32807c" x="257.433944" y="250.901905" style="fill: #1f77b4; stroke: #1f77b4"/>
     <use xlink:href="#m379f32807c" x="259.065373" y="252.887093" style="fill: #1f77b4; stroke: #1f77b4"/>
     <use xlink:href="#m379f32807c" x="260.696803" y="252.673133" style="fill: #1f77b4; stroke: #1f77b4"/>
     <use xlink:href="#m379f32807c" x="262.328233" y="253.218698" style="fill: #1f77b4; stroke: #1f77b4"/>
     <use xlink:href="#m379f32807c" x="263.959663" y="254.642893" style="fill: #1f77b4; stroke: #1f77b4"/>
     <use xlink:href="#m379f32807c" x="265.591093" y="254.540417" style="fill: #1f77b4; stroke: #1f77b4"/>
     <use xlink:href="#m379f32807c" x="267.222523" y="254.930773" style="fill: #1f77b4; stroke: #1f77b4"/>
     <use xlink:href="#m379f32807c" x="268.853953" y="256.206638" style="fill: #1f77b4; stroke: #1f77b4"/>
     <use xlink:href="#m379f32807c" x="270.485383" y="255.505888" style="fill: #1f77b4; stroke: #1f77b4"/>
     <use xlink:href="#m379f32807c" x="272.116812" y="255.194802" style="fill: #1f77b4; stroke: #1f77b4"/>
     <use xlink:href="#m379f32807c" x="273.748242" y="256.976502" style="fill: #1f77b4; stroke: #1f77b4"/>
     <use xlink:href="#m379f32807c" x="275.379672" y="256.858871" style="fill: #1f77b4; stroke: #1f77b4"/>
     <use xlink:href="#m379f32807c" x="277.011102" y="258.137475" style="fill: #1f77b4; stroke: #1f77b4"/>
     <use xlink:href="#m379f32807c" x="278.642532" y="258.009198" style="fill: #1f77b4; stroke: #1f77b4"/>
     <use xlink:href="#m379f32807c" x="280.273962" y="259.725918" style="fill: #1f77b4; stroke: #1f77b4"/>
     <use xlink:href="#m379f32807c" x="281.905392" y="259.433863" style="fill: #1f77b4; stroke: #1f77b4"/>
     <use xlink:href="#m379f32807c" x="283.536822" y="260.499655" style="fill: #1f77b4; stroke: #1f77b4"/>
     <use xlink:href="#m379f32807c" x="285.168251" y="261.342992" style="fill: #1f77b4; stroke: #1f77b4"/>
     <use xlink:href="#m379f32807c" x="286.799681" y="261.610688" style="fill: #1f77b4; stroke: #1f77b4"/>
     <use xlink:href="#m379f32807c" x="288.431111" y="262.598166" style="fill: #1f77b4; stroke: #1f77b4"/>
     <use xlink:href="#m379f32807c" x="290.062541" y="261.840765" style="fill: #1f77b4; stroke: #1f77b4"/>
     <use xlink:href="#m379f32807c" x="291.693971" y="263.630812" style="fill: #1f77b4; stroke: #1f77b4"/>
     <use xlink:href="#m379f32807c" x="293.325401" y="264.070071" style="fill: #1f77b4; stroke: #1f77b4"/>
     <use xlink:href="#m379f32807c" x="294.956831" y="263.549677" style="fill: #1f77b4; stroke: #1f77b4"/>
     <use xlink:href="#m379f32807c" x="296.588261" y="264.675196" style="fill: #1f77b4; stroke: #1f77b4"/>
     <use xlink:href="#m379f32807c" x="298.21969" y="265.307132" style="fill: #1f77b4; stroke: #1f77b4"/>
     <use xlink:href="#m379f32807c" x="299.85112" y="265.568356" style="fill: #1f77b4; stroke: #1f77b4"/>
     <use xlink:href="#m379f32807c" x="301.48255" y="265.485377" style="fill: #1f77b4; stroke: #1f77b4"/>
     <use xlink:href="#m379f32807c" x="303.11398" y="267.799846" style="fill: #1f77b4; stroke: #1f77b4"/>
     <use xlink:href="#m379f32807c" x="304.74541" y="268.254403" style="fill: #1f77b4; stroke: #1f77b4"/>
     <use xlink:href="#m379f32807c" x="306.37684" y="268.285562" style="fill: #1f77b4; stroke: #1f77b4"/>
     <use xlink:href="#m379f32807c" x="308.00827" y="269.899893" style="fill: #1f77b4; stroke: #1f77b4"/>
     <use xlink:href="#m379f32807c" x="309.6397" y="268.871848" style="fill: #1f77b4; stroke: #1f77b4"/>
     <use xlink:href="#m379f32807c" x="311.27113" y="270.175211" style="fill: #1f77b4; stroke: #1f77b4"/>
     <use xlink:href="#m379f32807c" x="312.902559" y="270.285152" style="fill: #1f77b4; stroke: #1f77b4"/>
     <use xlink:href="#m379f32807c" x="314.533989" y="271.388514" style="fill: #1f77b4; stroke: #1f77b4"/>
     <use xlink:href="#m379f32807c" x="316.165419" y="272.673084" style="fill: #1f77b4; stroke: #1f77b4"/>
     <use xlink:href="#m379f32807c" x="317.796849" y="271.552614" style="fill: #1f77b4; stroke: #1f77b4"/>
     <use xlink:href="#m379f32807c" x="319.428279" y="272.16297" style="fill: #1f77b4; stroke: #1f77b4"/>
     <use xlink:href="#m379f32807c" x="321.059709" y="273.683959" style="fill: #1f77b4; stroke: #1f77b4"/>
     <use xlink:href="#m379f32807c" x="322.691139" y="273.160272" style="fill: #1f77b4; stroke: #1f77b4"/>
     <use xlink:href="#m379f32807c" x="324.322569" y="273.54591" style="fill: #1f77b4; stroke: #1f77b4"/>
     <use xlink:href="#m379f32807c" x="325.953998" y="275.411735" style="fill: #1f77b4; stroke: #1f77b4"/>
     <use xlink:href="#m379f32807c" x="327.585428" y="276.570912" style="fill: #1f77b4; stroke: #1f77b4"/>
     <use xlink:href="#m379f32807c" x="329.216858" y="275.725106" style="fill: #1f77b4; stroke: #1f77b4"/>
     <use xlink:href="#m379f32807c" x="330.848288" y="276.265551" style="fill: #1f77b4; stroke: #1f77b4"/>
     <use xlink:href="#m379f32807c" x="332.479718" y="277.015318" style="fill: #1f77b4; stroke: #1f77b4"/>
     <use xlink:href="#m379f32807c" x="334.111148" y="276.534083" style="fill: #1f77b4; stroke: #1f77b4"/>
     <use xlink:href="#m379f32807c" x="335.742578" y="278.98544" style="fill: #1f77b4; stroke: #1f77b4"/>
     <use xlink:href="#m379f32807c" x="337.374008" y="279.056227" style="fill: #1f77b4; stroke: #1f77b4"/>
     <use xlink:href="#m379f32807c" x="339.005437" y="278.892329" style="fill: #1f77b4; stroke: #1f77b4"/>
     <use xlink:href="#m379f32807c" x="340.636867" y="279.714502" style="fill: #1f77b4; stroke: #1f77b4"/>
     <use xlink:href="#m379f32807c" x="342.268297" y="280.217843" style="fill: #1f77b4; stroke: #1f77b4"/>
     <use xlink:href="#m379f32807c" x="343.899727" y="281.196101" style="fill: #1f77b4; stroke: #1f77b4"/>
     <use xlink:href="#m379f32807c" x="345.531157" y="281.190296" style="fill: #1f77b4; stroke: #1f77b4"/>
     <use xlink:href="#m379f32807c" x="347.162587" y="281.663419" style="fill: #1f77b4; stroke: #1f77b4"/>
     <use xlink:href="#m379f32807c" x="348.794017" y="283.303653" style="fill: #1f77b4; stroke: #1f77b4"/>
     <use xlink:href="#m379f32807c" x="350.425447" y="283.066539" style="fill: #1f77b4; stroke: #1f77b4"/>
     <use xlink:href="#m379f32807c" x="352.056876" y="283.596367" style="fill: #1f77b4; stroke: #1f77b4"/>
     <use xlink:href="#m379f32807c" x="353.688306" y="284.335076" style="fill: #1f77b4; stroke: #1f77b4"/>
     <use xlink:href="#m379f32807c" x="355.319736" y="285.302364" style="fill: #1f77b4; stroke: #1f77b4"/>
     <use xlink:href="#m379f32807c" x="356.951166" y="286.158558" style="fill: #1f77b4; stroke: #1f77b4"/>
     <use xlink:href="#m379f32807c" x="358.582596" y="286.301401" style="fill: #1f77b4; stroke: #1f77b4"/>
     <use xlink:href="#m379f32807c" x="360.214026" y="287.180179" style="fill: #1f77b4; stroke: #1f77b4"/>
     <use xlink:href="#m379f32807c" x="361.845456" y="287.567672" style="fill: #1f77b4; stroke: #1f77b4"/>
     <use xlink:href="#m379f32807c" x="363.476886" y="287.934485" style="fill: #1f77b4; stroke: #1f77b4"/>
     <use xlink:href="#m379f32807c" x="365.108315" y="288.371627" style="fill: #1f77b4; stroke: #1f77b4"/>
     <use xlink:href="#m379f32807c" x="366.739745" y="289.046605" style="fill: #1f77b4; stroke: #1f77b4"/>
     <use xlink:href="#m379f32807c" x="368.371175" y="290.098658" style="fill: #1f77b4; stroke: #1f77b4"/>
     <use xlink:href="#m379f32807c" x="370.002605" y="290.597322" style="fill: #1f77b4; stroke: #1f77b4"/>
     <use xlink:href="#m379f32807c" x="371.634035" y="290.732818" style="fill: #1f77b4; stroke: #1f77b4"/>
     <use xlink:href="#m379f32807c" x="373.265465" y="291.496317" style="fill: #1f77b4; stroke: #1f77b4"/>
     <use xlink:href="#m379f32807c" x="374.896895" y="291.384996" style="fill: #1f77b4; stroke: #1f77b4"/>
     <use xlink:href="#m379f32807c" x="376.528325" y="292.609467" style="fill: #1f77b4; stroke: #1f77b4"/>
     <use xlink:href="#m379f32807c" x="378.159754" y="294.016727" style="fill: #1f77b4; stroke: #1f77b4"/>
     <use xlink:href="#m379f32807c" x="379.791184" y="293.661856" style="fill: #1f77b4; stroke: #1f77b4"/>
     <use xlink:href="#m379f32807c" x="381.422614" y="294.39519" style="fill: #1f77b4; stroke: #1f77b4"/>
     <use xlink:href="#m379f32807c" x="383.054044" y="295.523054" style="fill: #1f77b4; stroke: #1f77b4"/>
     <use xlink:href="#m379f32807c" x="384.685474" y="295.881853" style="fill: #1f77b4; stroke: #1f77b4"/>
     <use xlink:href="#m379f32807c" x="386.316904" y="295.332718" style="fill: #1f77b4; stroke: #1f77b4"/>
     <use xlink:href="#m379f32807c" x="387.948334" y="297.515999" style="fill: #1f77b4; stroke: #1f77b4"/>
     <use xlink:href="#m379f32807c" x="389.579764" y="296.671193" style="fill: #1f77b4; stroke: #1f77b4"/>
     <use xlink:href="#m379f32807c" x="391.211193" y="297.781538" style="fill: #1f77b4; stroke: #1f77b4"/>
     <use xlink:href="#m379f32807c" x="392.842623" y="299.092851" style="fill: #1f77b4; stroke: #1f77b4"/>
     <use xlink:href="#m379f32807c" x="394.474053" y="298.848519" style="fill: #1f77b4; stroke: #1f77b4"/>
     <use xlink:href="#m379f32807c" x="396.105483" y="300.042585" style="fill: #1f77b4; stroke: #1f77b4"/>
     <use xlink:href="#m379f32807c" x="397.736913" y="300.033358" style="fill: #1f77b4; stroke: #1f77b4"/>
     <use xlink:href="#m379f32807c" x="399.368343" y="300.886281" style="fill: #1f77b4; stroke: #1f77b4"/>
     <use xlink:href="#m379f32807c" x="400.999773" y="302.373818" style="fill: #1f77b4; stroke: #1f77b4"/>
    </g>
   </g>
   <g id="line2d_27">
    <path d="M 76.345227 192.410182 
L 117.617627 206.055526 
L 155.965211 218.486758 
L 208.611894 235.553828 
L 242.084785 246.680892 
L 291.481673 263.36758 
L 400.999773 300.523418 
L 400.999773 300.523418 
" clip-path="url(#p59677e6d6b)" style="fill: none; stroke: #d62728; stroke-width: 1.5; stroke-linecap: square"/>
   </g>
   <g id="patch_9">
    <path d="M 60.1125 307.872 
L 60.1125 186.912 
" style="fill: none; stroke: #000000; stroke-width: 0.8; stroke-linejoin: miter; stroke-linecap: square"/>
   </g>
   <g id="patch_10">
    <path d="M 417.2325 307.872 
L 417.2325 186.912 
" style="fill: none; stroke: #000000; stroke-width: 0.8; stroke-linejoin: miter; stroke-linecap: square"/>
   </g>
   <g id="patch_11">
    <path d="M 60.1125 307.872 
L 417.2325 307.872 
" style="fill: none; stroke: #000000; stroke-width: 0.8; stroke-linejoin: miter; stroke-linecap: square"/>
   </g>
   <g id="patch_12">
    <path d="M 60.1125 186.912 
L 417.2325 186.912 
" style="fill: none; stroke: #000000; stroke-width: 0.8; stroke-linejoin: miter; stroke-linecap: square"/>
   </g>
  </g>
  <g id="text_21">
   <!-- S21 resonator spectroscopy -->
   <g transform="translate(149.128125 16.318125) scale(0.12 -0.12)">
    <defs>
     <path id="DejaVuSans-53" d="M 3425 4513 
L 3425 3897 
Q 3066 4069 2747 4153 
Q 2428 4238 2131 4238 
Q 1616 4238 1336 4038 
Q 1056 3838 1056 3469 
Q 1056 3159 1242 3001 
Q 1428 2844 1947 2747 
L 2328 2669 
Q 3034 2534 3370 2195 
Q 3706 1856 3706 1288 
Q 3706 609 3251 259 
Q 2797 -91 1919 -91 
Q 1588 -91 1214 -16 
Q 841 59 441 206 
L 441 856 
Q 825 641 1194 531 
Q 1563 422 1919 422 
Q 2459 422 2753 634 
Q 3047 847 3047 1241 
Q 3047 1584 2836 1778 
Q 2625 1972 2144 2069 
L 1759 2144 
Q 1053 2284 737 2584 
Q 422 2884 422 3419 
Q 422 4038 858 4394 
Q 1294 4750 2059 4750 
Q 2388 4750 2728 4690 
Q 3069 4631 3425 4513 
z
" transform="scale(0.015625)"/>
     <path id="DejaVuSans-70" d="M 1159 525 
L 1159 -1331 
L 581 -1331 
L 581 3500 
L 1159 3500 
L 1159 2969 
Q 1341 3281 1617 3432 
Q 1894 3584 2278 3584 
Q 2916 3584 3314 3078 
Q 3713 2572 3713 1747 
Q 3713 922 3314 415 
Q 2916 -91 2278 -91 
Q 1894 -91 1617 61 
Q 1341 213 1159 525 
z
M 3116 1747 
Q 3116 2381 2855 2742 
Q 2594 3103 2138 3103 
Q 1681 3103 1420 2742 
Q 1159 2381 1159 1747 
Q 1159 1113 1420 752 
Q 1681 391 2138 391 
Q 2594 391 2855 752 
Q 3116 1113 3116 1747 
z
" transform="scale(0.015625)"/>
    </defs>
    <use xlink:href="#DejaVuSans-53"/>
    <use xlink:href="#DejaVuSans-32" x="63.476562"/>
    <use xlink:href="#DejaVuSans-31" x="127.099609"/>
    <use xlink:href="#DejaVuSans-20" x="190.722656"/>
    <use xlink:href="#DejaVuSans-72" x="222.509766"/>
    <use xlink:href="#DejaVuSans-65" x="261.373047"/>
    <use xlink:href="#DejaVuSans-73" x="322.896484"/>
    <use xlink:href="#DejaVuSans-6f" x="374.996094"/>
    <use xlink:href="#DejaVuSans-6e" x="436.177734"/>
    <use xlink:href="#DejaVuSans-61" x="499.556641"/>
    <use xlink:href="#DejaVuSans-74" x="560.835938"/>
    <use xlink:href="#DejaVuSans-6f" x="600.044922"/>
    <use xlink:href="#DejaVuSans-72" x="661.226562"/>
    <use xlink:href="#DejaVuSans-20" x="702.339844"/>
    <use xlink:href="#DejaVuSans-73" x="734.126953"/>
    <use xlink:href="#DejaVuSans-70" x="786.226562"/>
    <use xlink:href="#DejaVuSans-65" x="849.703125"/>
    <use xlink:href="#DejaVuSans-63" x="911.226562"/>
    <use xlink:href="#DejaVuSans-74" x="966.207031"/>
    <use xlink:href="#DejaVuSans-72" x="1005.416016"/>
    <use xlink:href="#DejaVuSans-6f" x="1044.279297"/>
    <use xlink:href="#DejaVuSans-73" x="1105.460938"/>
    <use xlink:href="#DejaVuSans-63" x="1157.560547"/>
    <use xlink:href="#DejaVuSans-6f" x="1212.541016"/>
    <use xlink:href="#DejaVuSans-70" x="1273.722656"/>
    <use xlink:href="#DejaVuSans-79" x="1337.199219"/>
   </g>
   <!-- tuid: 20231227-130749-649-6623b7 -->
   <g transform="translate(123.065625 29.7555) scale(0.12 -0.12)">
    <defs>
     <path id="DejaVuSans-37" d="M 525 4666 
L 3525 4666 
L 3525 4397 
L 1831 0 
L 1172 0 
L 2766 4134 
L 525 4134 
L 525 4666 
z
" transform="scale(0.015625)"/>
    </defs>
    <use xlink:href="#DejaVuSans-74"/>
    <use xlink:href="#DejaVuSans-75" x="39.208984"/>
    <use xlink:href="#DejaVuSans-69" x="102.587891"/>
    <use xlink:href="#DejaVuSans-64" x="130.371094"/>
    <use xlink:href="#DejaVuSans-3a" x="193.847656"/>
    <use xlink:href="#DejaVuSans-20" x="227.539062"/>
    <use xlink:href="#DejaVuSans-32" x="259.326172"/>
    <use xlink:href="#DejaVuSans-30" x="322.949219"/>
    <use xlink:href="#DejaVuSans-32" x="386.572266"/>
    <use xlink:href="#DejaVuSans-33" x="450.195312"/>
    <use xlink:href="#DejaVuSans-31" x="513.818359"/>
    <use xlink:href="#DejaVuSans-32" x="577.441406"/>
    <use xlink:href="#DejaVuSans-32" x="641.064453"/>
    <use xlink:href="#DejaVuSans-37" x="704.6875"/>
    <use xlink:href="#DejaVuSans-2d" x="768.310547"/>
    <use xlink:href="#DejaVuSans-31" x="804.394531"/>
    <use xlink:href="#DejaVuSans-33" x="868.017578"/>
    <use xlink:href="#DejaVuSans-30" x="931.640625"/>
    <use xlink:href="#DejaVuSans-37" x="995.263672"/>
    <use xlink:href="#DejaVuSans-34" x="1058.886719"/>
    <use xlink:href="#DejaVuSans-39" x="1122.509766"/>
    <use xlink:href="#DejaVuSans-2d" x="1186.132812"/>
    <use xlink:href="#DejaVuSans-36" x="1222.216797"/>
    <use xlink:href="#DejaVuSans-34" x="1285.839844"/>
    <use xlink:href="#DejaVuSans-39" x="1349.462891"/>
    <use xlink:href="#DejaVuSans-2d" x="1413.085938"/>
    <use xlink:href="#DejaVuSans-36" x="1449.169922"/>
    <use xlink:href="#DejaVuSans-36" x="1512.792969"/>
    <use xlink:href="#DejaVuSans-32" x="1576.416016"/>
    <use xlink:href="#DejaVuSans-33" x="1640.039062"/>
    <use xlink:href="#DejaVuSans-62" x="1703.662109"/>
    <use xlink:href="#DejaVuSans-37" x="1767.138672"/>
   </g>
  </g>
 </g>
 <defs>
  <clipPath id="pf23d459536">
   <rect x="60.1125" y="41.76" width="357.12" height="120.96"/>
  </clipPath>
  <clipPath id="p59677e6d6b">
   <rect x="60.1125" y="186.912" width="357.12" height="120.96"/>
  </clipPath>
 </defs>
</svg>
