<?xml version="1.0" encoding="utf-8" standalone="no"?>
<!DOCTYPE svg PUBLIC "-//W3C//DTD SVG 1.1//EN"
  "http://www.w3.org/Graphics/SVG/1.1/DTD/svg11.dtd">
<svg xmlns:xlink="http://www.w3.org/1999/xlink" width="596.035375pt" height="345.42825pt" viewBox="0 0 596.035375 345.42825" xmlns="http://www.w3.org/2000/svg" version="1.1">
 <metadata>
  <rdf:RDF xmlns:dc="http://purl.org/dc/elements/1.1/" xmlns:cc="http://creativecommons.org/ns#" xmlns:rdf="http://www.w3.org/1999/02/22-rdf-syntax-ns#">
   <cc:Work>
    <dc:type rdf:resource="http://purl.org/dc/dcmitype/StillImage"/>
    <dc:date>2023-12-27T13:07:57.670553</dc:date>
    <dc:format>image/svg+xml</dc:format>
    <dc:creator>
     <cc:Agent>
      <dc:title>Matplotlib v3.8.2, https://matplotlib.org/</dc:title>
     </cc:Agent>
    </dc:creator>
   </cc:Work>
  </rdf:RDF>
 </metadata>
 <defs>
  <style type="text/css">*{stroke-linejoin: round; stroke-linecap: butt}</style>
 </defs>
 <g id="figure_1">
  <g id="patch_1">
   <path d="M 0 345.42825 
L 596.035375 345.42825 
L 596.035375 -0 
L 0 -0 
L 0 345.42825 
z
" style="fill: none; opacity: 0"/>
  </g>
  <g id="axes_1">
   <g id="patch_2">
    <path d="M 53.751563 162.72 
L 410.871562 162.72 
L 410.871562 41.76 
L 53.751563 41.76 
z
" style="fill: #ffffff"/>
   </g>
   <g id="matplotlib.axis_1">
    <g id="xtick_1">
     <g id="line2d_1">
      <defs>
       <path id="m6d26399340" d="M 0 0 
L 0 3.5 
" style="stroke: #000000; stroke-width: 0.8"/>
      </defs>
      <g>
       <use xlink:href="#m6d26399340" x="69.98429" y="162.72" style="stroke: #000000; stroke-width: 0.8"/>
      </g>
     </g>
    </g>
    <g id="xtick_2">
     <g id="line2d_2">
      <g>
       <use xlink:href="#m6d26399340" x="113.271562" y="162.72" style="stroke: #000000; stroke-width: 0.8"/>
      </g>
     </g>
    </g>
    <g id="xtick_3">
     <g id="line2d_3">
      <g>
       <use xlink:href="#m6d26399340" x="156.558835" y="162.72" style="stroke: #000000; stroke-width: 0.8"/>
      </g>
     </g>
    </g>
    <g id="xtick_4">
     <g id="line2d_4">
      <g>
       <use xlink:href="#m6d26399340" x="199.846108" y="162.72" style="stroke: #000000; stroke-width: 0.8"/>
      </g>
     </g>
    </g>
    <g id="xtick_5">
     <g id="line2d_5">
      <g>
       <use xlink:href="#m6d26399340" x="243.133381" y="162.72" style="stroke: #000000; stroke-width: 0.8"/>
      </g>
     </g>
    </g>
    <g id="xtick_6">
     <g id="line2d_6">
      <g>
       <use xlink:href="#m6d26399340" x="286.420653" y="162.72" style="stroke: #000000; stroke-width: 0.8"/>
      </g>
     </g>
    </g>
    <g id="xtick_7">
     <g id="line2d_7">
      <g>
       <use xlink:href="#m6d26399340" x="329.707926" y="162.72" style="stroke: #000000; stroke-width: 0.8"/>
      </g>
     </g>
    </g>
    <g id="xtick_8">
     <g id="line2d_8">
      <g>
       <use xlink:href="#m6d26399340" x="372.995199" y="162.72" style="stroke: #000000; stroke-width: 0.8"/>
      </g>
     </g>
    </g>
   </g>
   <g id="matplotlib.axis_2">
    <g id="ytick_1">
     <g id="line2d_9">
      <defs>
       <path id="mdf0110abcb" d="M 0 0 
L -3.5 0 
" style="stroke: #000000; stroke-width: 0.8"/>
      </defs>
      <g>
       <use xlink:href="#mdf0110abcb" x="53.751563" y="161.986289" style="stroke: #000000; stroke-width: 0.8"/>
      </g>
     </g>
     <g id="text_1">
      <!-- -7.5 -->
      <g transform="translate(27.240625 165.785508) scale(0.1 -0.1)">
       <defs>
        <path id="DejaVuSans-2d" d="M 313 2009 
L 1997 2009 
L 1997 1497 
L 313 1497 
L 313 2009 
z
" transform="scale(0.015625)"/>
        <path id="DejaVuSans-37" d="M 525 4666 
L 3525 4666 
L 3525 4397 
L 1831 0 
L 1172 0 
L 2766 4134 
L 525 4134 
L 525 4666 
z
" transform="scale(0.015625)"/>
        <path id="DejaVuSans-2e" d="M 684 794 
L 1344 794 
L 1344 0 
L 684 0 
L 684 794 
z
" transform="scale(0.015625)"/>
        <path id="DejaVuSans-35" d="M 691 4666 
L 3169 4666 
L 3169 4134 
L 1269 4134 
L 1269 2991 
Q 1406 3038 1543 3061 
Q 1681 3084 1819 3084 
Q 2600 3084 3056 2656 
Q 3513 2228 3513 1497 
Q 3513 744 3044 326 
Q 2575 -91 1722 -91 
Q 1428 -91 1123 -41 
Q 819 9 494 109 
L 494 744 
Q 775 591 1075 516 
Q 1375 441 1709 441 
Q 2250 441 2565 725 
Q 2881 1009 2881 1497 
Q 2881 1984 2565 2268 
Q 2250 2553 1709 2553 
Q 1456 2553 1204 2497 
Q 953 2441 691 2322 
L 691 4666 
z
" transform="scale(0.015625)"/>
       </defs>
       <use xlink:href="#DejaVuSans-2d"/>
       <use xlink:href="#DejaVuSans-37" x="36.083984"/>
       <use xlink:href="#DejaVuSans-2e" x="99.707031"/>
       <use xlink:href="#DejaVuSans-35" x="131.494141"/>
      </g>
     </g>
    </g>
    <g id="ytick_2">
     <g id="line2d_10">
      <g>
       <use xlink:href="#mdf0110abcb" x="53.751563" y="138.03319" style="stroke: #000000; stroke-width: 0.8"/>
      </g>
     </g>
     <g id="text_2">
      <!-- -5 -->
      <g transform="translate(36.78125 141.832409) scale(0.1 -0.1)">
       <use xlink:href="#DejaVuSans-2d"/>
       <use xlink:href="#DejaVuSans-35" x="36.083984"/>
      </g>
     </g>
    </g>
    <g id="ytick_3">
     <g id="line2d_11">
      <g>
       <use xlink:href="#mdf0110abcb" x="53.751563" y="114.080091" style="stroke: #000000; stroke-width: 0.8"/>
      </g>
     </g>
     <g id="text_3">
      <!-- -2.5 -->
      <g transform="translate(27.240625 117.87931) scale(0.1 -0.1)">
       <defs>
        <path id="DejaVuSans-32" d="M 1228 531 
L 3431 531 
L 3431 0 
L 469 0 
L 469 531 
Q 828 903 1448 1529 
Q 2069 2156 2228 2338 
Q 2531 2678 2651 2914 
Q 2772 3150 2772 3378 
Q 2772 3750 2511 3984 
Q 2250 4219 1831 4219 
Q 1534 4219 1204 4116 
Q 875 4013 500 3803 
L 500 4441 
Q 881 4594 1212 4672 
Q 1544 4750 1819 4750 
Q 2544 4750 2975 4387 
Q 3406 4025 3406 3419 
Q 3406 3131 3298 2873 
Q 3191 2616 2906 2266 
Q 2828 2175 2409 1742 
Q 1991 1309 1228 531 
z
" transform="scale(0.015625)"/>
       </defs>
       <use xlink:href="#DejaVuSans-2d"/>
       <use xlink:href="#DejaVuSans-32" x="36.083984"/>
       <use xlink:href="#DejaVuSans-2e" x="99.707031"/>
       <use xlink:href="#DejaVuSans-35" x="131.494141"/>
      </g>
     </g>
    </g>
    <g id="ytick_4">
     <g id="line2d_12">
      <g>
       <use xlink:href="#mdf0110abcb" x="53.751563" y="90.126993" style="stroke: #000000; stroke-width: 0.8"/>
      </g>
     </g>
     <g id="text_4">
      <!-- 0 -->
      <g transform="translate(40.389063 93.926212) scale(0.1 -0.1)">
       <defs>
        <path id="DejaVuSans-30" d="M 2034 4250 
Q 1547 4250 1301 3770 
Q 1056 3291 1056 2328 
Q 1056 1369 1301 889 
Q 1547 409 2034 409 
Q 2525 409 2770 889 
Q 3016 1369 3016 2328 
Q 3016 3291 2770 3770 
Q 2525 4250 2034 4250 
z
M 2034 4750 
Q 2819 4750 3233 4129 
Q 3647 3509 3647 2328 
Q 3647 1150 3233 529 
Q 2819 -91 2034 -91 
Q 1250 -91 836 529 
Q 422 1150 422 2328 
Q 422 3509 836 4129 
Q 1250 4750 2034 4750 
z
" transform="scale(0.015625)"/>
       </defs>
       <use xlink:href="#DejaVuSans-30"/>
      </g>
     </g>
    </g>
    <g id="ytick_5">
     <g id="line2d_13">
      <g>
       <use xlink:href="#mdf0110abcb" x="53.751563" y="66.173894" style="stroke: #000000; stroke-width: 0.8"/>
      </g>
     </g>
     <g id="text_5">
      <!-- 2.5 -->
      <g transform="translate(30.848438 69.973113) scale(0.1 -0.1)">
       <use xlink:href="#DejaVuSans-32"/>
       <use xlink:href="#DejaVuSans-2e" x="63.623047"/>
       <use xlink:href="#DejaVuSans-35" x="95.410156"/>
      </g>
     </g>
    </g>
    <g id="ytick_6">
     <g id="line2d_14">
      <g>
       <use xlink:href="#mdf0110abcb" x="53.751563" y="42.220795" style="stroke: #000000; stroke-width: 0.8"/>
      </g>
     </g>
     <g id="text_6">
      <!-- 5 -->
      <g transform="translate(40.389063 46.020014) scale(0.1 -0.1)">
       <use xlink:href="#DejaVuSans-35"/>
      </g>
     </g>
    </g>
    <g id="text_7">
     <!-- Re$(S_{21})$ [mV] -->
     <g transform="translate(21.160938 134.24) rotate(-90) scale(0.1 -0.1)">
      <defs>
       <path id="DejaVuSans-52" d="M 2841 2188 
Q 3044 2119 3236 1894 
Q 3428 1669 3622 1275 
L 4263 0 
L 3584 0 
L 2988 1197 
Q 2756 1666 2539 1819 
Q 2322 1972 1947 1972 
L 1259 1972 
L 1259 0 
L 628 0 
L 628 4666 
L 2053 4666 
Q 2853 4666 3247 4331 
Q 3641 3997 3641 3322 
Q 3641 2881 3436 2590 
Q 3231 2300 2841 2188 
z
M 1259 4147 
L 1259 2491 
L 2053 2491 
Q 2509 2491 2742 2702 
Q 2975 2913 2975 3322 
Q 2975 3731 2742 3939 
Q 2509 4147 2053 4147 
L 1259 4147 
z
" transform="scale(0.015625)"/>
       <path id="DejaVuSans-65" d="M 3597 1894 
L 3597 1613 
L 953 1613 
Q 991 1019 1311 708 
Q 1631 397 2203 397 
Q 2534 397 2845 478 
Q 3156 559 3463 722 
L 3463 178 
Q 3153 47 2828 -22 
Q 2503 -91 2169 -91 
Q 1331 -91 842 396 
Q 353 884 353 1716 
Q 353 2575 817 3079 
Q 1281 3584 2069 3584 
Q 2775 3584 3186 3129 
Q 3597 2675 3597 1894 
z
M 3022 2063 
Q 3016 2534 2758 2815 
Q 2500 3097 2075 3097 
Q 1594 3097 1305 2825 
Q 1016 2553 972 2059 
L 3022 2063 
z
" transform="scale(0.015625)"/>
       <path id="DejaVuSans-28" d="M 1984 4856 
Q 1566 4138 1362 3434 
Q 1159 2731 1159 2009 
Q 1159 1288 1364 580 
Q 1569 -128 1984 -844 
L 1484 -844 
Q 1016 -109 783 600 
Q 550 1309 550 2009 
Q 550 2706 781 3412 
Q 1013 4119 1484 4856 
L 1984 4856 
z
" transform="scale(0.015625)"/>
       <path id="DejaVuSans-Oblique-53" d="M 3859 4513 
L 3738 3897 
Q 3422 4066 3111 4152 
Q 2800 4238 2509 4238 
Q 1944 4238 1609 3991 
Q 1275 3744 1275 3334 
Q 1275 3109 1398 2989 
Q 1522 2869 2034 2731 
L 2413 2638 
Q 3053 2472 3303 2217 
Q 3553 1963 3553 1503 
Q 3553 797 2998 353 
Q 2444 -91 1538 -91 
Q 1166 -91 791 -17 
Q 416 56 38 206 
L 166 856 
Q 513 641 861 531 
Q 1209 422 1556 422 
Q 2147 422 2503 684 
Q 2859 947 2859 1369 
Q 2859 1650 2717 1795 
Q 2575 1941 2106 2059 
L 1728 2156 
Q 1081 2325 845 2545 
Q 609 2766 609 3163 
Q 609 3859 1145 4304 
Q 1681 4750 2541 4750 
Q 2875 4750 3203 4690 
Q 3531 4631 3859 4513 
z
" transform="scale(0.015625)"/>
       <path id="DejaVuSans-31" d="M 794 531 
L 1825 531 
L 1825 4091 
L 703 3866 
L 703 4441 
L 1819 4666 
L 2450 4666 
L 2450 531 
L 3481 531 
L 3481 0 
L 794 0 
L 794 531 
z
" transform="scale(0.015625)"/>
       <path id="DejaVuSans-29" d="M 513 4856 
L 1013 4856 
Q 1481 4119 1714 3412 
Q 1947 2706 1947 2009 
Q 1947 1309 1714 600 
Q 1481 -109 1013 -844 
L 513 -844 
Q 928 -128 1133 580 
Q 1338 1288 1338 2009 
Q 1338 2731 1133 3434 
Q 928 4138 513 4856 
z
" transform="scale(0.015625)"/>
       <path id="DejaVuSans-20" transform="scale(0.015625)"/>
       <path id="DejaVuSans-5b" d="M 550 4863 
L 1875 4863 
L 1875 4416 
L 1125 4416 
L 1125 -397 
L 1875 -397 
L 1875 -844 
L 550 -844 
L 550 4863 
z
" transform="scale(0.015625)"/>
       <path id="DejaVuSans-6d" d="M 3328 2828 
Q 3544 3216 3844 3400 
Q 4144 3584 4550 3584 
Q 5097 3584 5394 3201 
Q 5691 2819 5691 2113 
L 5691 0 
L 5113 0 
L 5113 2094 
Q 5113 2597 4934 2840 
Q 4756 3084 4391 3084 
Q 3944 3084 3684 2787 
Q 3425 2491 3425 1978 
L 3425 0 
L 2847 0 
L 2847 2094 
Q 2847 2600 2669 2842 
Q 2491 3084 2119 3084 
Q 1678 3084 1418 2786 
Q 1159 2488 1159 1978 
L 1159 0 
L 581 0 
L 581 3500 
L 1159 3500 
L 1159 2956 
Q 1356 3278 1631 3431 
Q 1906 3584 2284 3584 
Q 2666 3584 2933 3390 
Q 3200 3197 3328 2828 
z
" transform="scale(0.015625)"/>
       <path id="DejaVuSans-56" d="M 1831 0 
L 50 4666 
L 709 4666 
L 2188 738 
L 3669 4666 
L 4325 4666 
L 2547 0 
L 1831 0 
z
" transform="scale(0.015625)"/>
       <path id="DejaVuSans-5d" d="M 1947 4863 
L 1947 -844 
L 622 -844 
L 622 -397 
L 1369 -397 
L 1369 4416 
L 622 4416 
L 622 4863 
L 1947 4863 
z
" transform="scale(0.015625)"/>
      </defs>
      <use xlink:href="#DejaVuSans-52" transform="translate(0 0.015625)"/>
      <use xlink:href="#DejaVuSans-65" transform="translate(69.482422 0.015625)"/>
      <use xlink:href="#DejaVuSans-28" transform="translate(131.005859 0.015625)"/>
      <use xlink:href="#DejaVuSans-Oblique-53" transform="translate(170.019531 0.015625)"/>
      <use xlink:href="#DejaVuSans-32" transform="translate(233.496094 -16.390625) scale(0.7)"/>
      <use xlink:href="#DejaVuSans-31" transform="translate(278.032227 -16.390625) scale(0.7)"/>
      <use xlink:href="#DejaVuSans-29" transform="translate(325.302734 0.015625)"/>
      <use xlink:href="#DejaVuSans-20" transform="translate(364.316406 0.015625)"/>
      <use xlink:href="#DejaVuSans-5b" transform="translate(396.103516 0.015625)"/>
      <use xlink:href="#DejaVuSans-6d" transform="translate(435.117188 0.015625)"/>
      <use xlink:href="#DejaVuSans-56" transform="translate(532.529297 0.015625)"/>
      <use xlink:href="#DejaVuSans-5d" transform="translate(600.9375 0.015625)"/>
     </g>
    </g>
   </g>
   <g id="line2d_15">
    <path d="M 69.98429 48.652099 
L 71.61572 48.910501 
L 73.24715 48.92239 
L 74.878579 48.685529 
L 76.510009 50.899964 
L 78.141439 50.230978 
L 79.772869 50.917782 
L 81.404299 51.081801 
L 86.298589 52.614903 
L 87.930018 52.938127 
L 89.561448 53.420761 
L 91.192878 55.151573 
L 92.824308 55.536612 
L 94.455738 56.732044 
L 96.087168 56.697459 
L 97.718598 57.045292 
L 100.981457 57.292585 
L 102.612887 58.634052 
L 104.244317 58.993295 
L 105.875747 60.174144 
L 107.507177 59.902397 
L 109.138607 61.120847 
L 110.770037 59.847041 
L 112.401467 61.908617 
L 114.032896 62.621029 
L 117.295756 62.932343 
L 118.927186 63.163378 
L 120.558616 64.46271 
L 122.190046 63.577354 
L 123.821476 64.741446 
L 125.452906 65.221023 
L 128.715765 66.446348 
L 131.978625 67.081447 
L 133.610055 68.664309 
L 135.241485 68.071596 
L 136.872915 68.918821 
L 138.504345 69.103664 
L 140.135774 69.610742 
L 141.767204 71.652066 
L 145.030064 70.710252 
L 146.661494 73.002312 
L 148.292924 73.612468 
L 149.924354 73.107845 
L 151.555784 73.99941 
L 153.187213 75.684311 
L 154.818643 74.977078 
L 158.081503 75.42128 
L 159.712933 76.361285 
L 162.975793 77.851575 
L 164.607223 78.069952 
L 167.870082 79.774834 
L 169.501512 80.413073 
L 171.132942 80.867562 
L 172.764372 80.81932 
L 174.395802 81.825031 
L 176.027232 82.064731 
L 180.921521 83.672837 
L 182.552951 83.986554 
L 184.184381 85.331193 
L 185.815811 84.999607 
L 187.447241 85.891391 
L 189.078671 85.923979 
L 190.710101 87.593578 
L 192.341531 87.114293 
L 193.97296 88.644545 
L 195.60439 88.562021 
L 197.23582 88.831666 
L 198.86725 89.389337 
L 200.49868 90.089101 
L 202.13011 90.989674 
L 205.39297 91.805101 
L 207.024399 93.299302 
L 208.655829 93.880844 
L 210.287259 94.589345 
L 211.918689 93.229883 
L 213.550119 94.914815 
L 215.181549 96.087228 
L 216.812979 95.212273 
L 218.444409 95.45292 
L 220.075838 96.832227 
L 221.707268 97.135813 
L 223.338698 98.089974 
L 224.970128 97.264135 
L 226.601558 99.941931 
L 228.232988 101.081309 
L 229.864418 100.642423 
L 231.495848 101.388504 
L 233.127277 101.44515 
L 234.758707 102.369136 
L 236.390137 102.320843 
L 238.021567 103.778587 
L 239.652997 103.439949 
L 241.284427 104.805069 
L 242.915857 104.524221 
L 244.547287 105.513185 
L 246.178716 105.77581 
L 247.810146 106.180611 
L 249.441576 106.858688 
L 251.073006 107.036989 
L 252.704436 109.332523 
L 254.335866 108.949346 
L 255.967296 109.639645 
L 257.598726 111.152745 
L 259.230155 111.029624 
L 260.861585 111.330255 
L 262.493015 112.584933 
L 264.124445 111.901344 
L 265.755875 111.568707 
L 267.387305 113.367055 
L 269.018735 113.631584 
L 270.650165 114.487233 
L 272.281594 114.308995 
L 273.913024 116.292498 
L 275.544454 115.959674 
L 277.175884 116.977502 
L 278.807314 117.646749 
L 280.438744 118.137195 
L 282.070174 119.31718 
L 283.701604 118.229164 
L 285.333033 120.188858 
L 286.964463 120.298916 
L 288.595893 119.973113 
L 291.858753 122.048492 
L 293.490183 121.822636 
L 295.121613 121.978386 
L 296.753043 124.354864 
L 298.384473 125.001976 
L 300.015902 124.732154 
L 301.647332 126.210119 
L 303.278762 125.095006 
L 304.910192 126.503126 
L 306.541622 126.888705 
L 308.173052 127.907251 
L 309.804482 129.266764 
L 311.435912 128.122736 
L 313.067341 128.355051 
L 314.698771 130.437545 
L 316.330201 129.582519 
L 317.961631 130.08422 
L 319.593061 131.785357 
L 321.224491 132.714533 
L 322.855921 131.986592 
L 324.487351 132.531313 
L 326.11878 133.365983 
L 327.75021 132.463402 
L 329.38164 135.464879 
L 331.01307 135.425 
L 332.6445 135.058913 
L 334.27593 135.779313 
L 335.90736 136.94714 
L 337.53879 137.100446 
L 339.170219 137.779687 
L 340.801649 138.114945 
L 342.433079 139.619329 
L 344.064509 138.834628 
L 350.590229 142.427964 
L 352.221658 142.620015 
L 353.853088 143.573355 
L 355.484518 143.227488 
L 357.115948 144.381574 
L 358.747378 143.772729 
L 360.378808 144.949927 
L 362.010238 146.372254 
L 363.641668 146.0941 
L 365.273097 145.950083 
L 366.904527 146.573448 
L 368.535957 146.829676 
L 370.167387 148.449151 
L 371.798817 149.455122 
L 373.430247 149.066807 
L 375.061677 149.892074 
L 376.693107 151.084021 
L 378.324536 150.99977 
L 379.955966 149.670171 
L 381.587396 152.699856 
L 383.218826 151.968524 
L 386.481686 154.282687 
L 388.113116 153.470973 
L 389.744546 154.52089 
L 391.375975 154.801571 
L 393.007405 155.445563 
L 394.638835 157.221818 
L 394.638835 157.221818 
" clip-path="url(#pa259059aaf)" style="fill: none; stroke: #1f77b4; stroke-width: 1.5; stroke-linecap: square"/>
    <defs>
     <path id="m68f9ef1542" d="M 0 1.5 
C 0.397805 1.5 0.77937 1.341951 1.06066 1.06066 
C 1.341951 0.77937 1.5 0.397805 1.5 0 
C 1.5 -0.397805 1.341951 -0.77937 1.06066 -1.06066 
C 0.77937 -1.341951 0.397805 -1.5 0 -1.5 
C -0.397805 -1.5 -0.77937 -1.341951 -1.06066 -1.06066 
C -1.341951 -0.77937 -1.5 -0.397805 -1.5 0 
C -1.5 0.397805 -1.341951 0.77937 -1.06066 1.06066 
C -0.77937 1.341951 -0.397805 1.5 0 1.5 
z
" style="stroke: #1f77b4"/>
    </defs>
    <g clip-path="url(#pa259059aaf)">
     <use xlink:href="#m68f9ef1542" x="69.98429" y="48.652099" style="fill: #1f77b4; stroke: #1f77b4"/>
     <use xlink:href="#m68f9ef1542" x="71.61572" y="48.910501" style="fill: #1f77b4; stroke: #1f77b4"/>
     <use xlink:href="#m68f9ef1542" x="73.24715" y="48.92239" style="fill: #1f77b4; stroke: #1f77b4"/>
     <use xlink:href="#m68f9ef1542" x="74.878579" y="48.685529" style="fill: #1f77b4; stroke: #1f77b4"/>
     <use xlink:href="#m68f9ef1542" x="76.510009" y="50.899964" style="fill: #1f77b4; stroke: #1f77b4"/>
     <use xlink:href="#m68f9ef1542" x="78.141439" y="50.230978" style="fill: #1f77b4; stroke: #1f77b4"/>
     <use xlink:href="#m68f9ef1542" x="79.772869" y="50.917782" style="fill: #1f77b4; stroke: #1f77b4"/>
     <use xlink:href="#m68f9ef1542" x="81.404299" y="51.081801" style="fill: #1f77b4; stroke: #1f77b4"/>
     <use xlink:href="#m68f9ef1542" x="83.035729" y="51.58605" style="fill: #1f77b4; stroke: #1f77b4"/>
     <use xlink:href="#m68f9ef1542" x="84.667159" y="52.104882" style="fill: #1f77b4; stroke: #1f77b4"/>
     <use xlink:href="#m68f9ef1542" x="86.298589" y="52.614903" style="fill: #1f77b4; stroke: #1f77b4"/>
     <use xlink:href="#m68f9ef1542" x="87.930018" y="52.938127" style="fill: #1f77b4; stroke: #1f77b4"/>
     <use xlink:href="#m68f9ef1542" x="89.561448" y="53.420761" style="fill: #1f77b4; stroke: #1f77b4"/>
     <use xlink:href="#m68f9ef1542" x="91.192878" y="55.151573" style="fill: #1f77b4; stroke: #1f77b4"/>
     <use xlink:href="#m68f9ef1542" x="92.824308" y="55.536612" style="fill: #1f77b4; stroke: #1f77b4"/>
     <use xlink:href="#m68f9ef1542" x="94.455738" y="56.732044" style="fill: #1f77b4; stroke: #1f77b4"/>
     <use xlink:href="#m68f9ef1542" x="96.087168" y="56.697459" style="fill: #1f77b4; stroke: #1f77b4"/>
     <use xlink:href="#m68f9ef1542" x="97.718598" y="57.045292" style="fill: #1f77b4; stroke: #1f77b4"/>
     <use xlink:href="#m68f9ef1542" x="99.350028" y="57.18387" style="fill: #1f77b4; stroke: #1f77b4"/>
     <use xlink:href="#m68f9ef1542" x="100.981457" y="57.292585" style="fill: #1f77b4; stroke: #1f77b4"/>
     <use xlink:href="#m68f9ef1542" x="102.612887" y="58.634052" style="fill: #1f77b4; stroke: #1f77b4"/>
     <use xlink:href="#m68f9ef1542" x="104.244317" y="58.993295" style="fill: #1f77b4; stroke: #1f77b4"/>
     <use xlink:href="#m68f9ef1542" x="105.875747" y="60.174144" style="fill: #1f77b4; stroke: #1f77b4"/>
     <use xlink:href="#m68f9ef1542" x="107.507177" y="59.902397" style="fill: #1f77b4; stroke: #1f77b4"/>
     <use xlink:href="#m68f9ef1542" x="109.138607" y="61.120847" style="fill: #1f77b4; stroke: #1f77b4"/>
     <use xlink:href="#m68f9ef1542" x="110.770037" y="59.847041" style="fill: #1f77b4; stroke: #1f77b4"/>
     <use xlink:href="#m68f9ef1542" x="112.401467" y="61.908617" style="fill: #1f77b4; stroke: #1f77b4"/>
     <use xlink:href="#m68f9ef1542" x="114.032896" y="62.621029" style="fill: #1f77b4; stroke: #1f77b4"/>
     <use xlink:href="#m68f9ef1542" x="115.664326" y="62.721829" style="fill: #1f77b4; stroke: #1f77b4"/>
     <use xlink:href="#m68f9ef1542" x="117.295756" y="62.932343" style="fill: #1f77b4; stroke: #1f77b4"/>
     <use xlink:href="#m68f9ef1542" x="118.927186" y="63.163378" style="fill: #1f77b4; stroke: #1f77b4"/>
     <use xlink:href="#m68f9ef1542" x="120.558616" y="64.46271" style="fill: #1f77b4; stroke: #1f77b4"/>
     <use xlink:href="#m68f9ef1542" x="122.190046" y="63.577354" style="fill: #1f77b4; stroke: #1f77b4"/>
     <use xlink:href="#m68f9ef1542" x="123.821476" y="64.741446" style="fill: #1f77b4; stroke: #1f77b4"/>
     <use xlink:href="#m68f9ef1542" x="125.452906" y="65.221023" style="fill: #1f77b4; stroke: #1f77b4"/>
     <use xlink:href="#m68f9ef1542" x="127.084335" y="65.856589" style="fill: #1f77b4; stroke: #1f77b4"/>
     <use xlink:href="#m68f9ef1542" x="128.715765" y="66.446348" style="fill: #1f77b4; stroke: #1f77b4"/>
     <use xlink:href="#m68f9ef1542" x="130.347195" y="66.810563" style="fill: #1f77b4; stroke: #1f77b4"/>
     <use xlink:href="#m68f9ef1542" x="131.978625" y="67.081447" style="fill: #1f77b4; stroke: #1f77b4"/>
     <use xlink:href="#m68f9ef1542" x="133.610055" y="68.664309" style="fill: #1f77b4; stroke: #1f77b4"/>
     <use xlink:href="#m68f9ef1542" x="135.241485" y="68.071596" style="fill: #1f77b4; stroke: #1f77b4"/>
     <use xlink:href="#m68f9ef1542" x="136.872915" y="68.918821" style="fill: #1f77b4; stroke: #1f77b4"/>
     <use xlink:href="#m68f9ef1542" x="138.504345" y="69.103664" style="fill: #1f77b4; stroke: #1f77b4"/>
     <use xlink:href="#m68f9ef1542" x="140.135774" y="69.610742" style="fill: #1f77b4; stroke: #1f77b4"/>
     <use xlink:href="#m68f9ef1542" x="141.767204" y="71.652066" style="fill: #1f77b4; stroke: #1f77b4"/>
     <use xlink:href="#m68f9ef1542" x="143.398634" y="71.154391" style="fill: #1f77b4; stroke: #1f77b4"/>
     <use xlink:href="#m68f9ef1542" x="145.030064" y="70.710252" style="fill: #1f77b4; stroke: #1f77b4"/>
     <use xlink:href="#m68f9ef1542" x="146.661494" y="73.002312" style="fill: #1f77b4; stroke: #1f77b4"/>
     <use xlink:href="#m68f9ef1542" x="148.292924" y="73.612468" style="fill: #1f77b4; stroke: #1f77b4"/>
     <use xlink:href="#m68f9ef1542" x="149.924354" y="73.107845" style="fill: #1f77b4; stroke: #1f77b4"/>
     <use xlink:href="#m68f9ef1542" x="151.555784" y="73.99941" style="fill: #1f77b4; stroke: #1f77b4"/>
     <use xlink:href="#m68f9ef1542" x="153.187213" y="75.684311" style="fill: #1f77b4; stroke: #1f77b4"/>
     <use xlink:href="#m68f9ef1542" x="154.818643" y="74.977078" style="fill: #1f77b4; stroke: #1f77b4"/>
     <use xlink:href="#m68f9ef1542" x="156.450073" y="75.174351" style="fill: #1f77b4; stroke: #1f77b4"/>
     <use xlink:href="#m68f9ef1542" x="158.081503" y="75.42128" style="fill: #1f77b4; stroke: #1f77b4"/>
     <use xlink:href="#m68f9ef1542" x="159.712933" y="76.361285" style="fill: #1f77b4; stroke: #1f77b4"/>
     <use xlink:href="#m68f9ef1542" x="161.344363" y="77.083131" style="fill: #1f77b4; stroke: #1f77b4"/>
     <use xlink:href="#m68f9ef1542" x="162.975793" y="77.851575" style="fill: #1f77b4; stroke: #1f77b4"/>
     <use xlink:href="#m68f9ef1542" x="164.607223" y="78.069952" style="fill: #1f77b4; stroke: #1f77b4"/>
     <use xlink:href="#m68f9ef1542" x="166.238652" y="78.900534" style="fill: #1f77b4; stroke: #1f77b4"/>
     <use xlink:href="#m68f9ef1542" x="167.870082" y="79.774834" style="fill: #1f77b4; stroke: #1f77b4"/>
     <use xlink:href="#m68f9ef1542" x="169.501512" y="80.413073" style="fill: #1f77b4; stroke: #1f77b4"/>
     <use xlink:href="#m68f9ef1542" x="171.132942" y="80.867562" style="fill: #1f77b4; stroke: #1f77b4"/>
     <use xlink:href="#m68f9ef1542" x="172.764372" y="80.81932" style="fill: #1f77b4; stroke: #1f77b4"/>
     <use xlink:href="#m68f9ef1542" x="174.395802" y="81.825031" style="fill: #1f77b4; stroke: #1f77b4"/>
     <use xlink:href="#m68f9ef1542" x="176.027232" y="82.064731" style="fill: #1f77b4; stroke: #1f77b4"/>
     <use xlink:href="#m68f9ef1542" x="177.658662" y="82.603273" style="fill: #1f77b4; stroke: #1f77b4"/>
     <use xlink:href="#m68f9ef1542" x="179.290092" y="83.161411" style="fill: #1f77b4; stroke: #1f77b4"/>
     <use xlink:href="#m68f9ef1542" x="180.921521" y="83.672837" style="fill: #1f77b4; stroke: #1f77b4"/>
     <use xlink:href="#m68f9ef1542" x="182.552951" y="83.986554" style="fill: #1f77b4; stroke: #1f77b4"/>
     <use xlink:href="#m68f9ef1542" x="184.184381" y="85.331193" style="fill: #1f77b4; stroke: #1f77b4"/>
     <use xlink:href="#m68f9ef1542" x="185.815811" y="84.999607" style="fill: #1f77b4; stroke: #1f77b4"/>
     <use xlink:href="#m68f9ef1542" x="187.447241" y="85.891391" style="fill: #1f77b4; stroke: #1f77b4"/>
     <use xlink:href="#m68f9ef1542" x="189.078671" y="85.923979" style="fill: #1f77b4; stroke: #1f77b4"/>
     <use xlink:href="#m68f9ef1542" x="190.710101" y="87.593578" style="fill: #1f77b4; stroke: #1f77b4"/>
     <use xlink:href="#m68f9ef1542" x="192.341531" y="87.114293" style="fill: #1f77b4; stroke: #1f77b4"/>
     <use xlink:href="#m68f9ef1542" x="193.97296" y="88.644545" style="fill: #1f77b4; stroke: #1f77b4"/>
     <use xlink:href="#m68f9ef1542" x="195.60439" y="88.562021" style="fill: #1f77b4; stroke: #1f77b4"/>
     <use xlink:href="#m68f9ef1542" x="197.23582" y="88.831666" style="fill: #1f77b4; stroke: #1f77b4"/>
     <use xlink:href="#m68f9ef1542" x="198.86725" y="89.389337" style="fill: #1f77b4; stroke: #1f77b4"/>
     <use xlink:href="#m68f9ef1542" x="200.49868" y="90.089101" style="fill: #1f77b4; stroke: #1f77b4"/>
     <use xlink:href="#m68f9ef1542" x="202.13011" y="90.989674" style="fill: #1f77b4; stroke: #1f77b4"/>
     <use xlink:href="#m68f9ef1542" x="203.76154" y="91.353764" style="fill: #1f77b4; stroke: #1f77b4"/>
     <use xlink:href="#m68f9ef1542" x="205.39297" y="91.805101" style="fill: #1f77b4; stroke: #1f77b4"/>
     <use xlink:href="#m68f9ef1542" x="207.024399" y="93.299302" style="fill: #1f77b4; stroke: #1f77b4"/>
     <use xlink:href="#m68f9ef1542" x="208.655829" y="93.880844" style="fill: #1f77b4; stroke: #1f77b4"/>
     <use xlink:href="#m68f9ef1542" x="210.287259" y="94.589345" style="fill: #1f77b4; stroke: #1f77b4"/>
     <use xlink:href="#m68f9ef1542" x="211.918689" y="93.229883" style="fill: #1f77b4; stroke: #1f77b4"/>
     <use xlink:href="#m68f9ef1542" x="213.550119" y="94.914815" style="fill: #1f77b4; stroke: #1f77b4"/>
     <use xlink:href="#m68f9ef1542" x="215.181549" y="96.087228" style="fill: #1f77b4; stroke: #1f77b4"/>
     <use xlink:href="#m68f9ef1542" x="216.812979" y="95.212273" style="fill: #1f77b4; stroke: #1f77b4"/>
     <use xlink:href="#m68f9ef1542" x="218.444409" y="95.45292" style="fill: #1f77b4; stroke: #1f77b4"/>
     <use xlink:href="#m68f9ef1542" x="220.075838" y="96.832227" style="fill: #1f77b4; stroke: #1f77b4"/>
     <use xlink:href="#m68f9ef1542" x="221.707268" y="97.135813" style="fill: #1f77b4; stroke: #1f77b4"/>
     <use xlink:href="#m68f9ef1542" x="223.338698" y="98.089974" style="fill: #1f77b4; stroke: #1f77b4"/>
     <use xlink:href="#m68f9ef1542" x="224.970128" y="97.264135" style="fill: #1f77b4; stroke: #1f77b4"/>
     <use xlink:href="#m68f9ef1542" x="226.601558" y="99.941931" style="fill: #1f77b4; stroke: #1f77b4"/>
     <use xlink:href="#m68f9ef1542" x="228.232988" y="101.081309" style="fill: #1f77b4; stroke: #1f77b4"/>
     <use xlink:href="#m68f9ef1542" x="229.864418" y="100.642423" style="fill: #1f77b4; stroke: #1f77b4"/>
     <use xlink:href="#m68f9ef1542" x="231.495848" y="101.388504" style="fill: #1f77b4; stroke: #1f77b4"/>
     <use xlink:href="#m68f9ef1542" x="233.127277" y="101.44515" style="fill: #1f77b4; stroke: #1f77b4"/>
     <use xlink:href="#m68f9ef1542" x="234.758707" y="102.369136" style="fill: #1f77b4; stroke: #1f77b4"/>
     <use xlink:href="#m68f9ef1542" x="236.390137" y="102.320843" style="fill: #1f77b4; stroke: #1f77b4"/>
     <use xlink:href="#m68f9ef1542" x="238.021567" y="103.778587" style="fill: #1f77b4; stroke: #1f77b4"/>
     <use xlink:href="#m68f9ef1542" x="239.652997" y="103.439949" style="fill: #1f77b4; stroke: #1f77b4"/>
     <use xlink:href="#m68f9ef1542" x="241.284427" y="104.805069" style="fill: #1f77b4; stroke: #1f77b4"/>
     <use xlink:href="#m68f9ef1542" x="242.915857" y="104.524221" style="fill: #1f77b4; stroke: #1f77b4"/>
     <use xlink:href="#m68f9ef1542" x="244.547287" y="105.513185" style="fill: #1f77b4; stroke: #1f77b4"/>
     <use xlink:href="#m68f9ef1542" x="246.178716" y="105.77581" style="fill: #1f77b4; stroke: #1f77b4"/>
     <use xlink:href="#m68f9ef1542" x="247.810146" y="106.180611" style="fill: #1f77b4; stroke: #1f77b4"/>
     <use xlink:href="#m68f9ef1542" x="249.441576" y="106.858688" style="fill: #1f77b4; stroke: #1f77b4"/>
     <use xlink:href="#m68f9ef1542" x="251.073006" y="107.036989" style="fill: #1f77b4; stroke: #1f77b4"/>
     <use xlink:href="#m68f9ef1542" x="252.704436" y="109.332523" style="fill: #1f77b4; stroke: #1f77b4"/>
     <use xlink:href="#m68f9ef1542" x="254.335866" y="108.949346" style="fill: #1f77b4; stroke: #1f77b4"/>
     <use xlink:href="#m68f9ef1542" x="255.967296" y="109.639645" style="fill: #1f77b4; stroke: #1f77b4"/>
     <use xlink:href="#m68f9ef1542" x="257.598726" y="111.152745" style="fill: #1f77b4; stroke: #1f77b4"/>
     <use xlink:href="#m68f9ef1542" x="259.230155" y="111.029624" style="fill: #1f77b4; stroke: #1f77b4"/>
     <use xlink:href="#m68f9ef1542" x="260.861585" y="111.330255" style="fill: #1f77b4; stroke: #1f77b4"/>
     <use xlink:href="#m68f9ef1542" x="262.493015" y="112.584933" style="fill: #1f77b4; stroke: #1f77b4"/>
     <use xlink:href="#m68f9ef1542" x="264.124445" y="111.901344" style="fill: #1f77b4; stroke: #1f77b4"/>
     <use xlink:href="#m68f9ef1542" x="265.755875" y="111.568707" style="fill: #1f77b4; stroke: #1f77b4"/>
     <use xlink:href="#m68f9ef1542" x="267.387305" y="113.367055" style="fill: #1f77b4; stroke: #1f77b4"/>
     <use xlink:href="#m68f9ef1542" x="269.018735" y="113.631584" style="fill: #1f77b4; stroke: #1f77b4"/>
     <use xlink:href="#m68f9ef1542" x="270.650165" y="114.487233" style="fill: #1f77b4; stroke: #1f77b4"/>
     <use xlink:href="#m68f9ef1542" x="272.281594" y="114.308995" style="fill: #1f77b4; stroke: #1f77b4"/>
     <use xlink:href="#m68f9ef1542" x="273.913024" y="116.292498" style="fill: #1f77b4; stroke: #1f77b4"/>
     <use xlink:href="#m68f9ef1542" x="275.544454" y="115.959674" style="fill: #1f77b4; stroke: #1f77b4"/>
     <use xlink:href="#m68f9ef1542" x="277.175884" y="116.977502" style="fill: #1f77b4; stroke: #1f77b4"/>
     <use xlink:href="#m68f9ef1542" x="278.807314" y="117.646749" style="fill: #1f77b4; stroke: #1f77b4"/>
     <use xlink:href="#m68f9ef1542" x="280.438744" y="118.137195" style="fill: #1f77b4; stroke: #1f77b4"/>
     <use xlink:href="#m68f9ef1542" x="282.070174" y="119.31718" style="fill: #1f77b4; stroke: #1f77b4"/>
     <use xlink:href="#m68f9ef1542" x="283.701604" y="118.229164" style="fill: #1f77b4; stroke: #1f77b4"/>
     <use xlink:href="#m68f9ef1542" x="285.333033" y="120.188858" style="fill: #1f77b4; stroke: #1f77b4"/>
     <use xlink:href="#m68f9ef1542" x="286.964463" y="120.298916" style="fill: #1f77b4; stroke: #1f77b4"/>
     <use xlink:href="#m68f9ef1542" x="288.595893" y="119.973113" style="fill: #1f77b4; stroke: #1f77b4"/>
     <use xlink:href="#m68f9ef1542" x="290.227323" y="121.044706" style="fill: #1f77b4; stroke: #1f77b4"/>
     <use xlink:href="#m68f9ef1542" x="291.858753" y="122.048492" style="fill: #1f77b4; stroke: #1f77b4"/>
     <use xlink:href="#m68f9ef1542" x="293.490183" y="121.822636" style="fill: #1f77b4; stroke: #1f77b4"/>
     <use xlink:href="#m68f9ef1542" x="295.121613" y="121.978386" style="fill: #1f77b4; stroke: #1f77b4"/>
     <use xlink:href="#m68f9ef1542" x="296.753043" y="124.354864" style="fill: #1f77b4; stroke: #1f77b4"/>
     <use xlink:href="#m68f9ef1542" x="298.384473" y="125.001976" style="fill: #1f77b4; stroke: #1f77b4"/>
     <use xlink:href="#m68f9ef1542" x="300.015902" y="124.732154" style="fill: #1f77b4; stroke: #1f77b4"/>
     <use xlink:href="#m68f9ef1542" x="301.647332" y="126.210119" style="fill: #1f77b4; stroke: #1f77b4"/>
     <use xlink:href="#m68f9ef1542" x="303.278762" y="125.095006" style="fill: #1f77b4; stroke: #1f77b4"/>
     <use xlink:href="#m68f9ef1542" x="304.910192" y="126.503126" style="fill: #1f77b4; stroke: #1f77b4"/>
     <use xlink:href="#m68f9ef1542" x="306.541622" y="126.888705" style="fill: #1f77b4; stroke: #1f77b4"/>
     <use xlink:href="#m68f9ef1542" x="308.173052" y="127.907251" style="fill: #1f77b4; stroke: #1f77b4"/>
     <use xlink:href="#m68f9ef1542" x="309.804482" y="129.266764" style="fill: #1f77b4; stroke: #1f77b4"/>
     <use xlink:href="#m68f9ef1542" x="311.435912" y="128.122736" style="fill: #1f77b4; stroke: #1f77b4"/>
     <use xlink:href="#m68f9ef1542" x="313.067341" y="128.355051" style="fill: #1f77b4; stroke: #1f77b4"/>
     <use xlink:href="#m68f9ef1542" x="314.698771" y="130.437545" style="fill: #1f77b4; stroke: #1f77b4"/>
     <use xlink:href="#m68f9ef1542" x="316.330201" y="129.582519" style="fill: #1f77b4; stroke: #1f77b4"/>
     <use xlink:href="#m68f9ef1542" x="317.961631" y="130.08422" style="fill: #1f77b4; stroke: #1f77b4"/>
     <use xlink:href="#m68f9ef1542" x="319.593061" y="131.785357" style="fill: #1f77b4; stroke: #1f77b4"/>
     <use xlink:href="#m68f9ef1542" x="321.224491" y="132.714533" style="fill: #1f77b4; stroke: #1f77b4"/>
     <use xlink:href="#m68f9ef1542" x="322.855921" y="131.986592" style="fill: #1f77b4; stroke: #1f77b4"/>
     <use xlink:href="#m68f9ef1542" x="324.487351" y="132.531313" style="fill: #1f77b4; stroke: #1f77b4"/>
     <use xlink:href="#m68f9ef1542" x="326.11878" y="133.365983" style="fill: #1f77b4; stroke: #1f77b4"/>
     <use xlink:href="#m68f9ef1542" x="327.75021" y="132.463402" style="fill: #1f77b4; stroke: #1f77b4"/>
     <use xlink:href="#m68f9ef1542" x="329.38164" y="135.464879" style="fill: #1f77b4; stroke: #1f77b4"/>
     <use xlink:href="#m68f9ef1542" x="331.01307" y="135.425" style="fill: #1f77b4; stroke: #1f77b4"/>
     <use xlink:href="#m68f9ef1542" x="332.6445" y="135.058913" style="fill: #1f77b4; stroke: #1f77b4"/>
     <use xlink:href="#m68f9ef1542" x="334.27593" y="135.779313" style="fill: #1f77b4; stroke: #1f77b4"/>
     <use xlink:href="#m68f9ef1542" x="335.90736" y="136.94714" style="fill: #1f77b4; stroke: #1f77b4"/>
     <use xlink:href="#m68f9ef1542" x="337.53879" y="137.100446" style="fill: #1f77b4; stroke: #1f77b4"/>
     <use xlink:href="#m68f9ef1542" x="339.170219" y="137.779687" style="fill: #1f77b4; stroke: #1f77b4"/>
     <use xlink:href="#m68f9ef1542" x="340.801649" y="138.114945" style="fill: #1f77b4; stroke: #1f77b4"/>
     <use xlink:href="#m68f9ef1542" x="342.433079" y="139.619329" style="fill: #1f77b4; stroke: #1f77b4"/>
     <use xlink:href="#m68f9ef1542" x="344.064509" y="138.834628" style="fill: #1f77b4; stroke: #1f77b4"/>
     <use xlink:href="#m68f9ef1542" x="345.695939" y="139.748317" style="fill: #1f77b4; stroke: #1f77b4"/>
     <use xlink:href="#m68f9ef1542" x="347.327369" y="140.590684" style="fill: #1f77b4; stroke: #1f77b4"/>
     <use xlink:href="#m68f9ef1542" x="348.958799" y="141.531198" style="fill: #1f77b4; stroke: #1f77b4"/>
     <use xlink:href="#m68f9ef1542" x="350.590229" y="142.427964" style="fill: #1f77b4; stroke: #1f77b4"/>
     <use xlink:href="#m68f9ef1542" x="352.221658" y="142.620015" style="fill: #1f77b4; stroke: #1f77b4"/>
     <use xlink:href="#m68f9ef1542" x="353.853088" y="143.573355" style="fill: #1f77b4; stroke: #1f77b4"/>
     <use xlink:href="#m68f9ef1542" x="355.484518" y="143.227488" style="fill: #1f77b4; stroke: #1f77b4"/>
     <use xlink:href="#m68f9ef1542" x="357.115948" y="144.381574" style="fill: #1f77b4; stroke: #1f77b4"/>
     <use xlink:href="#m68f9ef1542" x="358.747378" y="143.772729" style="fill: #1f77b4; stroke: #1f77b4"/>
     <use xlink:href="#m68f9ef1542" x="360.378808" y="144.949927" style="fill: #1f77b4; stroke: #1f77b4"/>
     <use xlink:href="#m68f9ef1542" x="362.010238" y="146.372254" style="fill: #1f77b4; stroke: #1f77b4"/>
     <use xlink:href="#m68f9ef1542" x="363.641668" y="146.0941" style="fill: #1f77b4; stroke: #1f77b4"/>
     <use xlink:href="#m68f9ef1542" x="365.273097" y="145.950083" style="fill: #1f77b4; stroke: #1f77b4"/>
     <use xlink:href="#m68f9ef1542" x="366.904527" y="146.573448" style="fill: #1f77b4; stroke: #1f77b4"/>
     <use xlink:href="#m68f9ef1542" x="368.535957" y="146.829676" style="fill: #1f77b4; stroke: #1f77b4"/>
     <use xlink:href="#m68f9ef1542" x="370.167387" y="148.449151" style="fill: #1f77b4; stroke: #1f77b4"/>
     <use xlink:href="#m68f9ef1542" x="371.798817" y="149.455122" style="fill: #1f77b4; stroke: #1f77b4"/>
     <use xlink:href="#m68f9ef1542" x="373.430247" y="149.066807" style="fill: #1f77b4; stroke: #1f77b4"/>
     <use xlink:href="#m68f9ef1542" x="375.061677" y="149.892074" style="fill: #1f77b4; stroke: #1f77b4"/>
     <use xlink:href="#m68f9ef1542" x="376.693107" y="151.084021" style="fill: #1f77b4; stroke: #1f77b4"/>
     <use xlink:href="#m68f9ef1542" x="378.324536" y="150.99977" style="fill: #1f77b4; stroke: #1f77b4"/>
     <use xlink:href="#m68f9ef1542" x="379.955966" y="149.670171" style="fill: #1f77b4; stroke: #1f77b4"/>
     <use xlink:href="#m68f9ef1542" x="381.587396" y="152.699856" style="fill: #1f77b4; stroke: #1f77b4"/>
     <use xlink:href="#m68f9ef1542" x="383.218826" y="151.968524" style="fill: #1f77b4; stroke: #1f77b4"/>
     <use xlink:href="#m68f9ef1542" x="384.850256" y="153.132939" style="fill: #1f77b4; stroke: #1f77b4"/>
     <use xlink:href="#m68f9ef1542" x="386.481686" y="154.282687" style="fill: #1f77b4; stroke: #1f77b4"/>
     <use xlink:href="#m68f9ef1542" x="388.113116" y="153.470973" style="fill: #1f77b4; stroke: #1f77b4"/>
     <use xlink:href="#m68f9ef1542" x="389.744546" y="154.52089" style="fill: #1f77b4; stroke: #1f77b4"/>
     <use xlink:href="#m68f9ef1542" x="391.375975" y="154.801571" style="fill: #1f77b4; stroke: #1f77b4"/>
     <use xlink:href="#m68f9ef1542" x="393.007405" y="155.445563" style="fill: #1f77b4; stroke: #1f77b4"/>
     <use xlink:href="#m68f9ef1542" x="394.638835" y="157.221818" style="fill: #1f77b4; stroke: #1f77b4"/>
    </g>
   </g>
   <g id="line2d_16">
    <path d="M 69.98429 47.258182 
L 100.857345 57.347972 
L 172.35284 81.025359 
L 200.951038 90.713052 
L 231.824093 101.424116 
L 292.920244 122.675586 
L 317.618688 130.99208 
L 339.392316 138.09458 
L 359.541047 144.43682 
L 378.389859 150.142123 
L 394.638835 154.865992 
L 394.638835 154.865992 
" clip-path="url(#pa259059aaf)" style="fill: none; stroke: #d62728; stroke-width: 1.5; stroke-linecap: square"/>
   </g>
   <g id="patch_3">
    <path d="M 53.751563 162.72 
L 53.751563 41.76 
" style="fill: none; stroke: #000000; stroke-width: 0.8; stroke-linejoin: miter; stroke-linecap: square"/>
   </g>
   <g id="patch_4">
    <path d="M 410.871562 162.72 
L 410.871562 41.76 
" style="fill: none; stroke: #000000; stroke-width: 0.8; stroke-linejoin: miter; stroke-linecap: square"/>
   </g>
   <g id="patch_5">
    <path d="M 53.751563 162.72 
L 410.871563 162.72 
" style="fill: none; stroke: #000000; stroke-width: 0.8; stroke-linejoin: miter; stroke-linecap: square"/>
   </g>
   <g id="patch_6">
    <path d="M 53.751563 41.76 
L 410.871563 41.76 
" style="fill: none; stroke: #000000; stroke-width: 0.8; stroke-linejoin: miter; stroke-linecap: square"/>
   </g>
   <g id="text_8">
    <g id="patch_7">
     <path d="M 428.727562 72.683938 
L 588.835375 72.683938 
Q 592.835375 72.683938 592.835375 68.683938 
L 592.835375 47.808 
Q 592.835375 43.808 588.835375 43.808 
L 428.727562 43.808 
Q 424.727562 43.808 424.727562 47.808 
L 424.727562 68.683938 
Q 424.727562 72.683938 428.727562 72.683938 
z
" style="fill: #ffffff; opacity: 0.5; stroke: #000000; stroke-linejoin: miter"/>
    </g>
    <!-- Warning: fit failed. lmfit was not -->
    <g transform="translate(428.727562 55.406437) scale(0.1 -0.1)">
     <defs>
      <path id="DejaVuSans-57" d="M 213 4666 
L 850 4666 
L 1831 722 
L 2809 4666 
L 3519 4666 
L 4500 722 
L 5478 4666 
L 6119 4666 
L 4947 0 
L 4153 0 
L 3169 4050 
L 2175 0 
L 1381 0 
L 213 4666 
z
" transform="scale(0.015625)"/>
      <path id="DejaVuSans-61" d="M 2194 1759 
Q 1497 1759 1228 1600 
Q 959 1441 959 1056 
Q 959 750 1161 570 
Q 1363 391 1709 391 
Q 2188 391 2477 730 
Q 2766 1069 2766 1631 
L 2766 1759 
L 2194 1759 
z
M 3341 1997 
L 3341 0 
L 2766 0 
L 2766 531 
Q 2569 213 2275 61 
Q 1981 -91 1556 -91 
Q 1019 -91 701 211 
Q 384 513 384 1019 
Q 384 1609 779 1909 
Q 1175 2209 1959 2209 
L 2766 2209 
L 2766 2266 
Q 2766 2663 2505 2880 
Q 2244 3097 1772 3097 
Q 1472 3097 1187 3025 
Q 903 2953 641 2809 
L 641 3341 
Q 956 3463 1253 3523 
Q 1550 3584 1831 3584 
Q 2591 3584 2966 3190 
Q 3341 2797 3341 1997 
z
" transform="scale(0.015625)"/>
      <path id="DejaVuSans-72" d="M 2631 2963 
Q 2534 3019 2420 3045 
Q 2306 3072 2169 3072 
Q 1681 3072 1420 2755 
Q 1159 2438 1159 1844 
L 1159 0 
L 581 0 
L 581 3500 
L 1159 3500 
L 1159 2956 
Q 1341 3275 1631 3429 
Q 1922 3584 2338 3584 
Q 2397 3584 2469 3576 
Q 2541 3569 2628 3553 
L 2631 2963 
z
" transform="scale(0.015625)"/>
      <path id="DejaVuSans-6e" d="M 3513 2113 
L 3513 0 
L 2938 0 
L 2938 2094 
Q 2938 2591 2744 2837 
Q 2550 3084 2163 3084 
Q 1697 3084 1428 2787 
Q 1159 2491 1159 1978 
L 1159 0 
L 581 0 
L 581 3500 
L 1159 3500 
L 1159 2956 
Q 1366 3272 1645 3428 
Q 1925 3584 2291 3584 
Q 2894 3584 3203 3211 
Q 3513 2838 3513 2113 
z
" transform="scale(0.015625)"/>
      <path id="DejaVuSans-69" d="M 603 3500 
L 1178 3500 
L 1178 0 
L 603 0 
L 603 3500 
z
M 603 4863 
L 1178 4863 
L 1178 4134 
L 603 4134 
L 603 4863 
z
" transform="scale(0.015625)"/>
      <path id="DejaVuSans-67" d="M 2906 1791 
Q 2906 2416 2648 2759 
Q 2391 3103 1925 3103 
Q 1463 3103 1205 2759 
Q 947 2416 947 1791 
Q 947 1169 1205 825 
Q 1463 481 1925 481 
Q 2391 481 2648 825 
Q 2906 1169 2906 1791 
z
M 3481 434 
Q 3481 -459 3084 -895 
Q 2688 -1331 1869 -1331 
Q 1566 -1331 1297 -1286 
Q 1028 -1241 775 -1147 
L 775 -588 
Q 1028 -725 1275 -790 
Q 1522 -856 1778 -856 
Q 2344 -856 2625 -561 
Q 2906 -266 2906 331 
L 2906 616 
Q 2728 306 2450 153 
Q 2172 0 1784 0 
Q 1141 0 747 490 
Q 353 981 353 1791 
Q 353 2603 747 3093 
Q 1141 3584 1784 3584 
Q 2172 3584 2450 3431 
Q 2728 3278 2906 2969 
L 2906 3500 
L 3481 3500 
L 3481 434 
z
" transform="scale(0.015625)"/>
      <path id="DejaVuSans-3a" d="M 750 794 
L 1409 794 
L 1409 0 
L 750 0 
L 750 794 
z
M 750 3309 
L 1409 3309 
L 1409 2516 
L 750 2516 
L 750 3309 
z
" transform="scale(0.015625)"/>
      <path id="DejaVuSans-66" d="M 2375 4863 
L 2375 4384 
L 1825 4384 
Q 1516 4384 1395 4259 
Q 1275 4134 1275 3809 
L 1275 3500 
L 2222 3500 
L 2222 3053 
L 1275 3053 
L 1275 0 
L 697 0 
L 697 3053 
L 147 3053 
L 147 3500 
L 697 3500 
L 697 3744 
Q 697 4328 969 4595 
Q 1241 4863 1831 4863 
L 2375 4863 
z
" transform="scale(0.015625)"/>
      <path id="DejaVuSans-74" d="M 1172 4494 
L 1172 3500 
L 2356 3500 
L 2356 3053 
L 1172 3053 
L 1172 1153 
Q 1172 725 1289 603 
Q 1406 481 1766 481 
L 2356 481 
L 2356 0 
L 1766 0 
Q 1100 0 847 248 
Q 594 497 594 1153 
L 594 3053 
L 172 3053 
L 172 3500 
L 594 3500 
L 594 4494 
L 1172 4494 
z
" transform="scale(0.015625)"/>
      <path id="DejaVuSans-6c" d="M 603 4863 
L 1178 4863 
L 1178 0 
L 603 0 
L 603 4863 
z
" transform="scale(0.015625)"/>
      <path id="DejaVuSans-64" d="M 2906 2969 
L 2906 4863 
L 3481 4863 
L 3481 0 
L 2906 0 
L 2906 525 
Q 2725 213 2448 61 
Q 2172 -91 1784 -91 
Q 1150 -91 751 415 
Q 353 922 353 1747 
Q 353 2572 751 3078 
Q 1150 3584 1784 3584 
Q 2172 3584 2448 3432 
Q 2725 3281 2906 2969 
z
M 947 1747 
Q 947 1113 1208 752 
Q 1469 391 1925 391 
Q 2381 391 2643 752 
Q 2906 1113 2906 1747 
Q 2906 2381 2643 2742 
Q 2381 3103 1925 3103 
Q 1469 3103 1208 2742 
Q 947 2381 947 1747 
z
" transform="scale(0.015625)"/>
      <path id="DejaVuSans-77" d="M 269 3500 
L 844 3500 
L 1563 769 
L 2278 3500 
L 2956 3500 
L 3675 769 
L 4391 3500 
L 4966 3500 
L 4050 0 
L 3372 0 
L 2619 2869 
L 1863 0 
L 1184 0 
L 269 3500 
z
" transform="scale(0.015625)"/>
      <path id="DejaVuSans-73" d="M 2834 3397 
L 2834 2853 
Q 2591 2978 2328 3040 
Q 2066 3103 1784 3103 
Q 1356 3103 1142 2972 
Q 928 2841 928 2578 
Q 928 2378 1081 2264 
Q 1234 2150 1697 2047 
L 1894 2003 
Q 2506 1872 2764 1633 
Q 3022 1394 3022 966 
Q 3022 478 2636 193 
Q 2250 -91 1575 -91 
Q 1294 -91 989 -36 
Q 684 19 347 128 
L 347 722 
Q 666 556 975 473 
Q 1284 391 1588 391 
Q 1994 391 2212 530 
Q 2431 669 2431 922 
Q 2431 1156 2273 1281 
Q 2116 1406 1581 1522 
L 1381 1569 
Q 847 1681 609 1914 
Q 372 2147 372 2553 
Q 372 3047 722 3315 
Q 1072 3584 1716 3584 
Q 2034 3584 2315 3537 
Q 2597 3491 2834 3397 
z
" transform="scale(0.015625)"/>
      <path id="DejaVuSans-6f" d="M 1959 3097 
Q 1497 3097 1228 2736 
Q 959 2375 959 1747 
Q 959 1119 1226 758 
Q 1494 397 1959 397 
Q 2419 397 2687 759 
Q 2956 1122 2956 1747 
Q 2956 2369 2687 2733 
Q 2419 3097 1959 3097 
z
M 1959 3584 
Q 2709 3584 3137 3096 
Q 3566 2609 3566 1747 
Q 3566 888 3137 398 
Q 2709 -91 1959 -91 
Q 1206 -91 779 398 
Q 353 888 353 1747 
Q 353 2609 779 3096 
Q 1206 3584 1959 3584 
z
" transform="scale(0.015625)"/>
     </defs>
     <use xlink:href="#DejaVuSans-57"/>
     <use xlink:href="#DejaVuSans-61" x="92.501953"/>
     <use xlink:href="#DejaVuSans-72" x="153.78125"/>
     <use xlink:href="#DejaVuSans-6e" x="193.144531"/>
     <use xlink:href="#DejaVuSans-69" x="256.523438"/>
     <use xlink:href="#DejaVuSans-6e" x="284.306641"/>
     <use xlink:href="#DejaVuSans-67" x="347.685547"/>
     <use xlink:href="#DejaVuSans-3a" x="411.162109"/>
     <use xlink:href="#DejaVuSans-20" x="444.853516"/>
     <use xlink:href="#DejaVuSans-66" x="476.640625"/>
     <use xlink:href="#DejaVuSans-69" x="511.845703"/>
     <use xlink:href="#DejaVuSans-74" x="539.628906"/>
     <use xlink:href="#DejaVuSans-20" x="578.837891"/>
     <use xlink:href="#DejaVuSans-66" x="610.625"/>
     <use xlink:href="#DejaVuSans-61" x="645.830078"/>
     <use xlink:href="#DejaVuSans-69" x="707.109375"/>
     <use xlink:href="#DejaVuSans-6c" x="734.892578"/>
     <use xlink:href="#DejaVuSans-65" x="762.675781"/>
     <use xlink:href="#DejaVuSans-64" x="824.199219"/>
     <use xlink:href="#DejaVuSans-2e" x="887.675781"/>
     <use xlink:href="#DejaVuSans-20" x="919.462891"/>
     <use xlink:href="#DejaVuSans-6c" x="951.25"/>
     <use xlink:href="#DejaVuSans-6d" x="979.033203"/>
     <use xlink:href="#DejaVuSans-66" x="1076.445312"/>
     <use xlink:href="#DejaVuSans-69" x="1111.650391"/>
     <use xlink:href="#DejaVuSans-74" x="1139.433594"/>
     <use xlink:href="#DejaVuSans-20" x="1178.642578"/>
     <use xlink:href="#DejaVuSans-77" x="1210.429688"/>
     <use xlink:href="#DejaVuSans-61" x="1292.216797"/>
     <use xlink:href="#DejaVuSans-73" x="1353.496094"/>
     <use xlink:href="#DejaVuSans-20" x="1405.595703"/>
     <use xlink:href="#DejaVuSans-6e" x="1437.382812"/>
     <use xlink:href="#DejaVuSans-6f" x="1500.761719"/>
     <use xlink:href="#DejaVuSans-74" x="1561.943359"/>
    </g>
    <!-- able to fit the data. -->
    <g transform="translate(428.727562 66.60425) scale(0.1 -0.1)">
     <defs>
      <path id="DejaVuSans-62" d="M 3116 1747 
Q 3116 2381 2855 2742 
Q 2594 3103 2138 3103 
Q 1681 3103 1420 2742 
Q 1159 2381 1159 1747 
Q 1159 1113 1420 752 
Q 1681 391 2138 391 
Q 2594 391 2855 752 
Q 3116 1113 3116 1747 
z
M 1159 2969 
Q 1341 3281 1617 3432 
Q 1894 3584 2278 3584 
Q 2916 3584 3314 3078 
Q 3713 2572 3713 1747 
Q 3713 922 3314 415 
Q 2916 -91 2278 -91 
Q 1894 -91 1617 61 
Q 1341 213 1159 525 
L 1159 0 
L 581 0 
L 581 4863 
L 1159 4863 
L 1159 2969 
z
" transform="scale(0.015625)"/>
      <path id="DejaVuSans-68" d="M 3513 2113 
L 3513 0 
L 2938 0 
L 2938 2094 
Q 2938 2591 2744 2837 
Q 2550 3084 2163 3084 
Q 1697 3084 1428 2787 
Q 1159 2491 1159 1978 
L 1159 0 
L 581 0 
L 581 4863 
L 1159 4863 
L 1159 2956 
Q 1366 3272 1645 3428 
Q 1925 3584 2291 3584 
Q 2894 3584 3203 3211 
Q 3513 2838 3513 2113 
z
" transform="scale(0.015625)"/>
     </defs>
     <use xlink:href="#DejaVuSans-61"/>
     <use xlink:href="#DejaVuSans-62" x="61.279297"/>
     <use xlink:href="#DejaVuSans-6c" x="124.755859"/>
     <use xlink:href="#DejaVuSans-65" x="152.539062"/>
     <use xlink:href="#DejaVuSans-20" x="214.0625"/>
     <use xlink:href="#DejaVuSans-74" x="245.849609"/>
     <use xlink:href="#DejaVuSans-6f" x="285.058594"/>
     <use xlink:href="#DejaVuSans-20" x="346.240234"/>
     <use xlink:href="#DejaVuSans-66" x="378.027344"/>
     <use xlink:href="#DejaVuSans-69" x="413.232422"/>
     <use xlink:href="#DejaVuSans-74" x="441.015625"/>
     <use xlink:href="#DejaVuSans-20" x="480.224609"/>
     <use xlink:href="#DejaVuSans-74" x="512.011719"/>
     <use xlink:href="#DejaVuSans-68" x="551.220703"/>
     <use xlink:href="#DejaVuSans-65" x="614.599609"/>
     <use xlink:href="#DejaVuSans-20" x="676.123047"/>
     <use xlink:href="#DejaVuSans-64" x="707.910156"/>
     <use xlink:href="#DejaVuSans-61" x="771.386719"/>
     <use xlink:href="#DejaVuSans-74" x="832.666016"/>
     <use xlink:href="#DejaVuSans-61" x="871.875"/>
     <use xlink:href="#DejaVuSans-2e" x="933.154297"/>
    </g>
   </g>
  </g>
  <g id="axes_2">
   <g id="patch_8">
    <path d="M 53.751563 307.872 
L 410.871562 307.872 
L 410.871562 186.912 
L 53.751563 186.912 
z
" style="fill: #ffffff"/>
   </g>
   <g id="matplotlib.axis_3">
    <g id="xtick_9">
     <g id="line2d_17">
      <g>
       <use xlink:href="#m6d26399340" x="69.98429" y="307.872" style="stroke: #000000; stroke-width: 0.8"/>
      </g>
     </g>
     <g id="text_9">
      <!-- 950 -->
      <g transform="translate(60.44054 322.470438) scale(0.1 -0.1)">
       <defs>
        <path id="DejaVuSans-39" d="M 703 97 
L 703 672 
Q 941 559 1184 500 
Q 1428 441 1663 441 
Q 2288 441 2617 861 
Q 2947 1281 2994 2138 
Q 2813 1869 2534 1725 
Q 2256 1581 1919 1581 
Q 1219 1581 811 2004 
Q 403 2428 403 3163 
Q 403 3881 828 4315 
Q 1253 4750 1959 4750 
Q 2769 4750 3195 4129 
Q 3622 3509 3622 2328 
Q 3622 1225 3098 567 
Q 2575 -91 1691 -91 
Q 1453 -91 1209 -44 
Q 966 3 703 97 
z
M 1959 2075 
Q 2384 2075 2632 2365 
Q 2881 2656 2881 3163 
Q 2881 3666 2632 3958 
Q 2384 4250 1959 4250 
Q 1534 4250 1286 3958 
Q 1038 3666 1038 3163 
Q 1038 2656 1286 2365 
Q 1534 2075 1959 2075 
z
" transform="scale(0.015625)"/>
       </defs>
       <use xlink:href="#DejaVuSans-39"/>
       <use xlink:href="#DejaVuSans-35" x="63.623047"/>
       <use xlink:href="#DejaVuSans-30" x="127.246094"/>
      </g>
     </g>
    </g>
    <g id="xtick_10">
     <g id="line2d_18">
      <g>
       <use xlink:href="#m6d26399340" x="113.271562" y="307.872" style="stroke: #000000; stroke-width: 0.8"/>
      </g>
     </g>
     <g id="text_10">
      <!-- 952 -->
      <g transform="translate(103.727812 322.470438) scale(0.1 -0.1)">
       <use xlink:href="#DejaVuSans-39"/>
       <use xlink:href="#DejaVuSans-35" x="63.623047"/>
       <use xlink:href="#DejaVuSans-32" x="127.246094"/>
      </g>
     </g>
    </g>
    <g id="xtick_11">
     <g id="line2d_19">
      <g>
       <use xlink:href="#m6d26399340" x="156.558835" y="307.872" style="stroke: #000000; stroke-width: 0.8"/>
      </g>
     </g>
     <g id="text_11">
      <!-- 954 -->
      <g transform="translate(147.015085 322.470438) scale(0.1 -0.1)">
       <defs>
        <path id="DejaVuSans-34" d="M 2419 4116 
L 825 1625 
L 2419 1625 
L 2419 4116 
z
M 2253 4666 
L 3047 4666 
L 3047 1625 
L 3713 1625 
L 3713 1100 
L 3047 1100 
L 3047 0 
L 2419 0 
L 2419 1100 
L 313 1100 
L 313 1709 
L 2253 4666 
z
" transform="scale(0.015625)"/>
       </defs>
       <use xlink:href="#DejaVuSans-39"/>
       <use xlink:href="#DejaVuSans-35" x="63.623047"/>
       <use xlink:href="#DejaVuSans-34" x="127.246094"/>
      </g>
     </g>
    </g>
    <g id="xtick_12">
     <g id="line2d_20">
      <g>
       <use xlink:href="#m6d26399340" x="199.846108" y="307.872" style="stroke: #000000; stroke-width: 0.8"/>
      </g>
     </g>
     <g id="text_12">
      <!-- 956 -->
      <g transform="translate(190.302358 322.470438) scale(0.1 -0.1)">
       <defs>
        <path id="DejaVuSans-36" d="M 2113 2584 
Q 1688 2584 1439 2293 
Q 1191 2003 1191 1497 
Q 1191 994 1439 701 
Q 1688 409 2113 409 
Q 2538 409 2786 701 
Q 3034 994 3034 1497 
Q 3034 2003 2786 2293 
Q 2538 2584 2113 2584 
z
M 3366 4563 
L 3366 3988 
Q 3128 4100 2886 4159 
Q 2644 4219 2406 4219 
Q 1781 4219 1451 3797 
Q 1122 3375 1075 2522 
Q 1259 2794 1537 2939 
Q 1816 3084 2150 3084 
Q 2853 3084 3261 2657 
Q 3669 2231 3669 1497 
Q 3669 778 3244 343 
Q 2819 -91 2113 -91 
Q 1303 -91 875 529 
Q 447 1150 447 2328 
Q 447 3434 972 4092 
Q 1497 4750 2381 4750 
Q 2619 4750 2861 4703 
Q 3103 4656 3366 4563 
z
" transform="scale(0.015625)"/>
       </defs>
       <use xlink:href="#DejaVuSans-39"/>
       <use xlink:href="#DejaVuSans-35" x="63.623047"/>
       <use xlink:href="#DejaVuSans-36" x="127.246094"/>
      </g>
     </g>
    </g>
    <g id="xtick_13">
     <g id="line2d_21">
      <g>
       <use xlink:href="#m6d26399340" x="243.133381" y="307.872" style="stroke: #000000; stroke-width: 0.8"/>
      </g>
     </g>
     <g id="text_13">
      <!-- 958 -->
      <g transform="translate(233.589631 322.470438) scale(0.1 -0.1)">
       <defs>
        <path id="DejaVuSans-38" d="M 2034 2216 
Q 1584 2216 1326 1975 
Q 1069 1734 1069 1313 
Q 1069 891 1326 650 
Q 1584 409 2034 409 
Q 2484 409 2743 651 
Q 3003 894 3003 1313 
Q 3003 1734 2745 1975 
Q 2488 2216 2034 2216 
z
M 1403 2484 
Q 997 2584 770 2862 
Q 544 3141 544 3541 
Q 544 4100 942 4425 
Q 1341 4750 2034 4750 
Q 2731 4750 3128 4425 
Q 3525 4100 3525 3541 
Q 3525 3141 3298 2862 
Q 3072 2584 2669 2484 
Q 3125 2378 3379 2068 
Q 3634 1759 3634 1313 
Q 3634 634 3220 271 
Q 2806 -91 2034 -91 
Q 1263 -91 848 271 
Q 434 634 434 1313 
Q 434 1759 690 2068 
Q 947 2378 1403 2484 
z
M 1172 3481 
Q 1172 3119 1398 2916 
Q 1625 2713 2034 2713 
Q 2441 2713 2670 2916 
Q 2900 3119 2900 3481 
Q 2900 3844 2670 4047 
Q 2441 4250 2034 4250 
Q 1625 4250 1398 4047 
Q 1172 3844 1172 3481 
z
" transform="scale(0.015625)"/>
       </defs>
       <use xlink:href="#DejaVuSans-39"/>
       <use xlink:href="#DejaVuSans-35" x="63.623047"/>
       <use xlink:href="#DejaVuSans-38" x="127.246094"/>
      </g>
     </g>
    </g>
    <g id="xtick_14">
     <g id="line2d_22">
      <g>
       <use xlink:href="#m6d26399340" x="286.420653" y="307.872" style="stroke: #000000; stroke-width: 0.8"/>
      </g>
     </g>
     <g id="text_14">
      <!-- 960 -->
      <g transform="translate(276.876903 322.470438) scale(0.1 -0.1)">
       <use xlink:href="#DejaVuSans-39"/>
       <use xlink:href="#DejaVuSans-36" x="63.623047"/>
       <use xlink:href="#DejaVuSans-30" x="127.246094"/>
      </g>
     </g>
    </g>
    <g id="xtick_15">
     <g id="line2d_23">
      <g>
       <use xlink:href="#m6d26399340" x="329.707926" y="307.872" style="stroke: #000000; stroke-width: 0.8"/>
      </g>
     </g>
     <g id="text_15">
      <!-- 962 -->
      <g transform="translate(320.164176 322.470438) scale(0.1 -0.1)">
       <use xlink:href="#DejaVuSans-39"/>
       <use xlink:href="#DejaVuSans-36" x="63.623047"/>
       <use xlink:href="#DejaVuSans-32" x="127.246094"/>
      </g>
     </g>
    </g>
    <g id="xtick_16">
     <g id="line2d_24">
      <g>
       <use xlink:href="#m6d26399340" x="372.995199" y="307.872" style="stroke: #000000; stroke-width: 0.8"/>
      </g>
     </g>
     <g id="text_16">
      <!-- 964 -->
      <g transform="translate(363.451449 322.470438) scale(0.1 -0.1)">
       <use xlink:href="#DejaVuSans-39"/>
       <use xlink:href="#DejaVuSans-36" x="63.623047"/>
       <use xlink:href="#DejaVuSans-34" x="127.246094"/>
      </g>
     </g>
    </g>
    <g id="text_17">
     <!-- Frequency [MHz] -->
     <g transform="translate(190.292812 336.148562) scale(0.1 -0.1)">
      <defs>
       <path id="DejaVuSans-46" d="M 628 4666 
L 3309 4666 
L 3309 4134 
L 1259 4134 
L 1259 2759 
L 3109 2759 
L 3109 2228 
L 1259 2228 
L 1259 0 
L 628 0 
L 628 4666 
z
" transform="scale(0.015625)"/>
       <path id="DejaVuSans-71" d="M 947 1747 
Q 947 1113 1208 752 
Q 1469 391 1925 391 
Q 2381 391 2643 752 
Q 2906 1113 2906 1747 
Q 2906 2381 2643 2742 
Q 2381 3103 1925 3103 
Q 1469 3103 1208 2742 
Q 947 2381 947 1747 
z
M 2906 525 
Q 2725 213 2448 61 
Q 2172 -91 1784 -91 
Q 1150 -91 751 415 
Q 353 922 353 1747 
Q 353 2572 751 3078 
Q 1150 3584 1784 3584 
Q 2172 3584 2448 3432 
Q 2725 3281 2906 2969 
L 2906 3500 
L 3481 3500 
L 3481 -1331 
L 2906 -1331 
L 2906 525 
z
" transform="scale(0.015625)"/>
       <path id="DejaVuSans-75" d="M 544 1381 
L 544 3500 
L 1119 3500 
L 1119 1403 
Q 1119 906 1312 657 
Q 1506 409 1894 409 
Q 2359 409 2629 706 
Q 2900 1003 2900 1516 
L 2900 3500 
L 3475 3500 
L 3475 0 
L 2900 0 
L 2900 538 
Q 2691 219 2414 64 
Q 2138 -91 1772 -91 
Q 1169 -91 856 284 
Q 544 659 544 1381 
z
M 1991 3584 
L 1991 3584 
z
" transform="scale(0.015625)"/>
       <path id="DejaVuSans-63" d="M 3122 3366 
L 3122 2828 
Q 2878 2963 2633 3030 
Q 2388 3097 2138 3097 
Q 1578 3097 1268 2742 
Q 959 2388 959 1747 
Q 959 1106 1268 751 
Q 1578 397 2138 397 
Q 2388 397 2633 464 
Q 2878 531 3122 666 
L 3122 134 
Q 2881 22 2623 -34 
Q 2366 -91 2075 -91 
Q 1284 -91 818 406 
Q 353 903 353 1747 
Q 353 2603 823 3093 
Q 1294 3584 2113 3584 
Q 2378 3584 2631 3529 
Q 2884 3475 3122 3366 
z
" transform="scale(0.015625)"/>
       <path id="DejaVuSans-79" d="M 2059 -325 
Q 1816 -950 1584 -1140 
Q 1353 -1331 966 -1331 
L 506 -1331 
L 506 -850 
L 844 -850 
Q 1081 -850 1212 -737 
Q 1344 -625 1503 -206 
L 1606 56 
L 191 3500 
L 800 3500 
L 1894 763 
L 2988 3500 
L 3597 3500 
L 2059 -325 
z
" transform="scale(0.015625)"/>
       <path id="DejaVuSans-4d" d="M 628 4666 
L 1569 4666 
L 2759 1491 
L 3956 4666 
L 4897 4666 
L 4897 0 
L 4281 0 
L 4281 4097 
L 3078 897 
L 2444 897 
L 1241 4097 
L 1241 0 
L 628 0 
L 628 4666 
z
" transform="scale(0.015625)"/>
       <path id="DejaVuSans-48" d="M 628 4666 
L 1259 4666 
L 1259 2753 
L 3553 2753 
L 3553 4666 
L 4184 4666 
L 4184 0 
L 3553 0 
L 3553 2222 
L 1259 2222 
L 1259 0 
L 628 0 
L 628 4666 
z
" transform="scale(0.015625)"/>
       <path id="DejaVuSans-7a" d="M 353 3500 
L 3084 3500 
L 3084 2975 
L 922 459 
L 3084 459 
L 3084 0 
L 275 0 
L 275 525 
L 2438 3041 
L 353 3041 
L 353 3500 
z
" transform="scale(0.015625)"/>
      </defs>
      <use xlink:href="#DejaVuSans-46"/>
      <use xlink:href="#DejaVuSans-72" x="50.269531"/>
      <use xlink:href="#DejaVuSans-65" x="89.132812"/>
      <use xlink:href="#DejaVuSans-71" x="150.65625"/>
      <use xlink:href="#DejaVuSans-75" x="214.132812"/>
      <use xlink:href="#DejaVuSans-65" x="277.511719"/>
      <use xlink:href="#DejaVuSans-6e" x="339.035156"/>
      <use xlink:href="#DejaVuSans-63" x="402.414062"/>
      <use xlink:href="#DejaVuSans-79" x="457.394531"/>
      <use xlink:href="#DejaVuSans-20" x="516.574219"/>
      <use xlink:href="#DejaVuSans-5b" x="548.361328"/>
      <use xlink:href="#DejaVuSans-4d" x="587.375"/>
      <use xlink:href="#DejaVuSans-48" x="673.654297"/>
      <use xlink:href="#DejaVuSans-7a" x="748.849609"/>
      <use xlink:href="#DejaVuSans-5d" x="801.339844"/>
     </g>
    </g>
    <g id="text_18">
     <!-- +5 GHz -->
     <g transform="translate(372.434062 335.148562) scale(0.1 -0.1)">
      <defs>
       <path id="DejaVuSans-2b" d="M 2944 4013 
L 2944 2272 
L 4684 2272 
L 4684 1741 
L 2944 1741 
L 2944 0 
L 2419 0 
L 2419 1741 
L 678 1741 
L 678 2272 
L 2419 2272 
L 2419 4013 
L 2944 4013 
z
" transform="scale(0.015625)"/>
       <path id="DejaVuSans-47" d="M 3809 666 
L 3809 1919 
L 2778 1919 
L 2778 2438 
L 4434 2438 
L 4434 434 
Q 4069 175 3628 42 
Q 3188 -91 2688 -91 
Q 1594 -91 976 548 
Q 359 1188 359 2328 
Q 359 3472 976 4111 
Q 1594 4750 2688 4750 
Q 3144 4750 3555 4637 
Q 3966 4525 4313 4306 
L 4313 3634 
Q 3963 3931 3569 4081 
Q 3175 4231 2741 4231 
Q 1884 4231 1454 3753 
Q 1025 3275 1025 2328 
Q 1025 1384 1454 906 
Q 1884 428 2741 428 
Q 3075 428 3337 486 
Q 3600 544 3809 666 
z
" transform="scale(0.015625)"/>
      </defs>
      <use xlink:href="#DejaVuSans-2b"/>
      <use xlink:href="#DejaVuSans-35" x="83.789062"/>
      <use xlink:href="#DejaVuSans-20" x="147.412109"/>
      <use xlink:href="#DejaVuSans-47" x="179.199219"/>
      <use xlink:href="#DejaVuSans-48" x="256.689453"/>
      <use xlink:href="#DejaVuSans-7a" x="331.884766"/>
     </g>
    </g>
   </g>
   <g id="matplotlib.axis_4">
    <g id="ytick_7">
     <g id="line2d_25">
      <g>
       <use xlink:href="#mdf0110abcb" x="53.751563" y="293.311019" style="stroke: #000000; stroke-width: 0.8"/>
      </g>
     </g>
     <g id="text_19">
      <!-- -11 -->
      <g transform="translate(30.41875 297.110238) scale(0.1 -0.1)">
       <use xlink:href="#DejaVuSans-2d"/>
       <use xlink:href="#DejaVuSans-31" x="36.083984"/>
       <use xlink:href="#DejaVuSans-31" x="99.707031"/>
      </g>
     </g>
    </g>
    <g id="ytick_8">
     <g id="line2d_26">
      <g>
       <use xlink:href="#mdf0110abcb" x="53.751563" y="269.431737" style="stroke: #000000; stroke-width: 0.8"/>
      </g>
     </g>
     <g id="text_20">
      <!-- -10.5 -->
      <g transform="translate(20.878125 273.230955) scale(0.1 -0.1)">
       <use xlink:href="#DejaVuSans-2d"/>
       <use xlink:href="#DejaVuSans-31" x="36.083984"/>
       <use xlink:href="#DejaVuSans-30" x="99.707031"/>
       <use xlink:href="#DejaVuSans-2e" x="163.330078"/>
       <use xlink:href="#DejaVuSans-35" x="195.117188"/>
      </g>
     </g>
    </g>
    <g id="ytick_9">
     <g id="line2d_27">
      <g>
       <use xlink:href="#mdf0110abcb" x="53.751563" y="245.552454" style="stroke: #000000; stroke-width: 0.8"/>
      </g>
     </g>
     <g id="text_21">
      <!-- -10 -->
      <g transform="translate(30.41875 249.351673) scale(0.1 -0.1)">
       <use xlink:href="#DejaVuSans-2d"/>
       <use xlink:href="#DejaVuSans-31" x="36.083984"/>
       <use xlink:href="#DejaVuSans-30" x="99.707031"/>
      </g>
     </g>
    </g>
    <g id="ytick_10">
     <g id="line2d_28">
      <g>
       <use xlink:href="#mdf0110abcb" x="53.751563" y="221.673171" style="stroke: #000000; stroke-width: 0.8"/>
      </g>
     </g>
     <g id="text_22">
      <!-- -9.5 -->
      <g transform="translate(27.240625 225.47239) scale(0.1 -0.1)">
       <use xlink:href="#DejaVuSans-2d"/>
       <use xlink:href="#DejaVuSans-39" x="36.083984"/>
       <use xlink:href="#DejaVuSans-2e" x="99.707031"/>
       <use xlink:href="#DejaVuSans-35" x="131.494141"/>
      </g>
     </g>
    </g>
    <g id="ytick_11">
     <g id="line2d_29">
      <g>
       <use xlink:href="#mdf0110abcb" x="53.751563" y="197.793889" style="stroke: #000000; stroke-width: 0.8"/>
      </g>
     </g>
     <g id="text_23">
      <!-- -9 -->
      <g transform="translate(36.78125 201.593108) scale(0.1 -0.1)">
       <use xlink:href="#DejaVuSans-2d"/>
       <use xlink:href="#DejaVuSans-39" x="36.083984"/>
      </g>
     </g>
    </g>
    <g id="text_24">
     <!-- Im$(S_{21})$ [mV] -->
     <g transform="translate(14.798438 279.042) rotate(-90) scale(0.1 -0.1)">
      <defs>
       <path id="DejaVuSans-49" d="M 628 4666 
L 1259 4666 
L 1259 0 
L 628 0 
L 628 4666 
z
" transform="scale(0.015625)"/>
      </defs>
      <use xlink:href="#DejaVuSans-49" transform="translate(0 0.015625)"/>
      <use xlink:href="#DejaVuSans-6d" transform="translate(25.867188 0.015625)"/>
      <use xlink:href="#DejaVuSans-28" transform="translate(123.279297 0.015625)"/>
      <use xlink:href="#DejaVuSans-Oblique-53" transform="translate(162.292969 0.015625)"/>
      <use xlink:href="#DejaVuSans-32" transform="translate(225.769531 -16.390625) scale(0.7)"/>
      <use xlink:href="#DejaVuSans-31" transform="translate(270.305664 -16.390625) scale(0.7)"/>
      <use xlink:href="#DejaVuSans-29" transform="translate(317.576172 0.015625)"/>
      <use xlink:href="#DejaVuSans-20" transform="translate(356.589844 0.015625)"/>
      <use xlink:href="#DejaVuSans-5b" transform="translate(388.376953 0.015625)"/>
      <use xlink:href="#DejaVuSans-6d" transform="translate(427.390625 0.015625)"/>
      <use xlink:href="#DejaVuSans-56" transform="translate(524.802734 0.015625)"/>
      <use xlink:href="#DejaVuSans-5d" transform="translate(593.210938 0.015625)"/>
     </g>
    </g>
   </g>
   <g id="line2d_30">
    <path d="M 69.98429 251.082732 
L 71.61572 250.807322 
L 73.24715 251.542456 
L 74.878579 255.405085 
L 76.510009 252.202412 
L 78.141439 252.147559 
L 79.772869 260.322431 
L 81.404299 263.805906 
L 83.035729 262.334238 
L 84.667159 257.519807 
L 86.298589 261.166184 
L 87.930018 266.100277 
L 89.561448 263.622213 
L 91.192878 269.158971 
L 92.824308 263.908925 
L 94.455738 266.846817 
L 96.087168 265.912229 
L 97.718598 272.029151 
L 99.350028 272.237108 
L 100.981457 270.74859 
L 102.612887 276.83959 
L 104.244317 275.23535 
L 105.875747 273.154069 
L 107.507177 275.429879 
L 109.138607 280.607651 
L 110.770037 275.190658 
L 112.401467 277.997793 
L 114.032896 278.287045 
L 115.664326 273.336413 
L 117.295756 286.064306 
L 118.927186 280.213097 
L 120.558616 283.565814 
L 122.190046 281.110097 
L 123.821476 281.753047 
L 125.452906 281.285961 
L 127.084335 279.64154 
L 128.715765 280.819807 
L 130.347195 284.209128 
L 131.978625 283.161929 
L 133.610055 283.871451 
L 135.241485 284.392562 
L 136.872915 291.204593 
L 138.504345 291.339394 
L 140.135774 289.526575 
L 141.767204 290.932138 
L 143.398634 286.915369 
L 145.030064 285.675974 
L 146.661494 289.891109 
L 148.292924 292.166919 
L 149.924354 291.211281 
L 151.555784 293.07465 
L 153.187213 290.504455 
L 154.818643 293.687426 
L 156.450073 291.005087 
L 158.081503 290.906008 
L 159.712933 291.149998 
L 161.344363 292.321577 
L 162.975793 290.977245 
L 164.607223 295.550951 
L 166.238652 297.218081 
L 167.870082 296.694067 
L 171.132942 297.357652 
L 172.764372 292.652567 
L 174.395802 295.862913 
L 176.027232 292.494434 
L 177.658662 297.815562 
L 179.290092 297.683457 
L 180.921521 298.619704 
L 182.552951 294.358011 
L 184.184381 293.185447 
L 185.815811 293.128467 
L 187.447241 301.620797 
L 189.078671 299.941691 
L 190.710101 295.960851 
L 192.341531 295.851195 
L 193.97296 297.894939 
L 195.60439 302.373818 
L 197.23582 300.894062 
L 198.86725 300.357864 
L 200.49868 299.113025 
L 202.13011 298.513418 
L 203.76154 299.069007 
L 205.39297 296.188406 
L 207.024399 300.191592 
L 208.655829 299.943142 
L 210.287259 300.022416 
L 211.918689 291.698017 
L 213.550119 291.40161 
L 215.181549 296.911875 
L 216.812979 298.751913 
L 218.444409 299.676236 
L 220.075838 295.790742 
L 221.707268 297.371288 
L 223.338698 298.301262 
L 224.970128 292.818891 
L 226.601558 293.679545 
L 228.232988 302.056205 
L 229.864418 299.801549 
L 231.495848 296.199812 
L 233.127277 299.126142 
L 234.758707 290.768925 
L 236.390137 293.732274 
L 238.021567 288.30683 
L 239.652997 291.848839 
L 241.284427 291.58551 
L 242.915857 290.750156 
L 244.547287 292.233853 
L 246.178716 291.687337 
L 247.810146 292.071884 
L 249.441576 289.751693 
L 251.073006 287.689025 
L 252.704436 293.101403 
L 254.335866 288.838362 
L 255.967296 291.803785 
L 259.230155 291.11132 
L 260.861585 288.194426 
L 262.493015 285.579125 
L 264.124445 287.127837 
L 265.755875 287.126955 
L 267.387305 284.626909 
L 269.018735 293.356126 
L 270.650165 281.949028 
L 272.281594 281.082514 
L 273.913024 283.859059 
L 275.544454 283.52864 
L 277.175884 280.895814 
L 278.807314 276.370014 
L 280.438744 280.062431 
L 282.070174 281.901536 
L 283.701604 277.197435 
L 285.333033 277.436552 
L 286.964463 271.254147 
L 288.595893 275.276309 
L 290.227323 272.717053 
L 291.858753 277.731093 
L 293.490183 269.586603 
L 295.121613 273.491954 
L 296.753043 270.844144 
L 298.384473 272.915626 
L 301.647332 264.152553 
L 303.278762 264.440042 
L 304.910192 263.982703 
L 306.541622 267.563338 
L 308.173052 264.654947 
L 309.804482 263.53651 
L 311.435912 265.064587 
L 313.067341 259.214105 
L 314.698771 263.829963 
L 316.330201 260.591619 
L 317.961631 261.408723 
L 319.593061 256.38084 
L 321.224491 251.86769 
L 322.855921 254.566828 
L 324.487351 253.748947 
L 326.11878 253.486499 
L 327.75021 249.48855 
L 329.38164 251.547641 
L 331.01307 250.24603 
L 332.6445 248.364773 
L 334.27593 245.930053 
L 335.90736 251.964747 
L 337.53879 241.83344 
L 339.170219 248.754764 
L 340.801649 246.513225 
L 342.433079 242.215343 
L 344.064509 237.368456 
L 345.695939 240.124003 
L 347.327369 239.762788 
L 348.958799 237.728531 
L 350.590229 236.488722 
L 352.221658 236.657172 
L 353.853088 235.620083 
L 355.484518 228.501379 
L 357.115948 234.603266 
L 358.747378 224.824775 
L 360.378808 227.815603 
L 362.010238 228.813288 
L 363.641668 221.506329 
L 366.904527 216.450241 
L 368.535957 219.584373 
L 370.167387 220.269734 
L 371.798817 214.355843 
L 373.430247 214.81593 
L 375.061677 214.025994 
L 376.693107 212.166254 
L 378.324536 208.208175 
L 379.955966 203.612382 
L 381.587396 205.281482 
L 383.218826 207.861424 
L 384.850256 205.882903 
L 386.481686 201.93706 
L 389.744546 195.129695 
L 391.375975 197.072753 
L 393.007405 193.853801 
L 394.638835 192.410182 
L 394.638835 192.410182 
" clip-path="url(#p409e12ad41)" style="fill: none; stroke: #1f77b4; stroke-width: 1.5; stroke-linecap: square"/>
    <g clip-path="url(#p409e12ad41)">
     <use xlink:href="#m68f9ef1542" x="69.98429" y="251.082732" style="fill: #1f77b4; stroke: #1f77b4"/>
     <use xlink:href="#m68f9ef1542" x="71.61572" y="250.807322" style="fill: #1f77b4; stroke: #1f77b4"/>
     <use xlink:href="#m68f9ef1542" x="73.24715" y="251.542456" style="fill: #1f77b4; stroke: #1f77b4"/>
     <use xlink:href="#m68f9ef1542" x="74.878579" y="255.405085" style="fill: #1f77b4; stroke: #1f77b4"/>
     <use xlink:href="#m68f9ef1542" x="76.510009" y="252.202412" style="fill: #1f77b4; stroke: #1f77b4"/>
     <use xlink:href="#m68f9ef1542" x="78.141439" y="252.147559" style="fill: #1f77b4; stroke: #1f77b4"/>
     <use xlink:href="#m68f9ef1542" x="79.772869" y="260.322431" style="fill: #1f77b4; stroke: #1f77b4"/>
     <use xlink:href="#m68f9ef1542" x="81.404299" y="263.805906" style="fill: #1f77b4; stroke: #1f77b4"/>
     <use xlink:href="#m68f9ef1542" x="83.035729" y="262.334238" style="fill: #1f77b4; stroke: #1f77b4"/>
     <use xlink:href="#m68f9ef1542" x="84.667159" y="257.519807" style="fill: #1f77b4; stroke: #1f77b4"/>
     <use xlink:href="#m68f9ef1542" x="86.298589" y="261.166184" style="fill: #1f77b4; stroke: #1f77b4"/>
     <use xlink:href="#m68f9ef1542" x="87.930018" y="266.100277" style="fill: #1f77b4; stroke: #1f77b4"/>
     <use xlink:href="#m68f9ef1542" x="89.561448" y="263.622213" style="fill: #1f77b4; stroke: #1f77b4"/>
     <use xlink:href="#m68f9ef1542" x="91.192878" y="269.158971" style="fill: #1f77b4; stroke: #1f77b4"/>
     <use xlink:href="#m68f9ef1542" x="92.824308" y="263.908925" style="fill: #1f77b4; stroke: #1f77b4"/>
     <use xlink:href="#m68f9ef1542" x="94.455738" y="266.846817" style="fill: #1f77b4; stroke: #1f77b4"/>
     <use xlink:href="#m68f9ef1542" x="96.087168" y="265.912229" style="fill: #1f77b4; stroke: #1f77b4"/>
     <use xlink:href="#m68f9ef1542" x="97.718598" y="272.029151" style="fill: #1f77b4; stroke: #1f77b4"/>
     <use xlink:href="#m68f9ef1542" x="99.350028" y="272.237108" style="fill: #1f77b4; stroke: #1f77b4"/>
     <use xlink:href="#m68f9ef1542" x="100.981457" y="270.74859" style="fill: #1f77b4; stroke: #1f77b4"/>
     <use xlink:href="#m68f9ef1542" x="102.612887" y="276.83959" style="fill: #1f77b4; stroke: #1f77b4"/>
     <use xlink:href="#m68f9ef1542" x="104.244317" y="275.23535" style="fill: #1f77b4; stroke: #1f77b4"/>
     <use xlink:href="#m68f9ef1542" x="105.875747" y="273.154069" style="fill: #1f77b4; stroke: #1f77b4"/>
     <use xlink:href="#m68f9ef1542" x="107.507177" y="275.429879" style="fill: #1f77b4; stroke: #1f77b4"/>
     <use xlink:href="#m68f9ef1542" x="109.138607" y="280.607651" style="fill: #1f77b4; stroke: #1f77b4"/>
     <use xlink:href="#m68f9ef1542" x="110.770037" y="275.190658" style="fill: #1f77b4; stroke: #1f77b4"/>
     <use xlink:href="#m68f9ef1542" x="112.401467" y="277.997793" style="fill: #1f77b4; stroke: #1f77b4"/>
     <use xlink:href="#m68f9ef1542" x="114.032896" y="278.287045" style="fill: #1f77b4; stroke: #1f77b4"/>
     <use xlink:href="#m68f9ef1542" x="115.664326" y="273.336413" style="fill: #1f77b4; stroke: #1f77b4"/>
     <use xlink:href="#m68f9ef1542" x="117.295756" y="286.064306" style="fill: #1f77b4; stroke: #1f77b4"/>
     <use xlink:href="#m68f9ef1542" x="118.927186" y="280.213097" style="fill: #1f77b4; stroke: #1f77b4"/>
     <use xlink:href="#m68f9ef1542" x="120.558616" y="283.565814" style="fill: #1f77b4; stroke: #1f77b4"/>
     <use xlink:href="#m68f9ef1542" x="122.190046" y="281.110097" style="fill: #1f77b4; stroke: #1f77b4"/>
     <use xlink:href="#m68f9ef1542" x="123.821476" y="281.753047" style="fill: #1f77b4; stroke: #1f77b4"/>
     <use xlink:href="#m68f9ef1542" x="125.452906" y="281.285961" style="fill: #1f77b4; stroke: #1f77b4"/>
     <use xlink:href="#m68f9ef1542" x="127.084335" y="279.64154" style="fill: #1f77b4; stroke: #1f77b4"/>
     <use xlink:href="#m68f9ef1542" x="128.715765" y="280.819807" style="fill: #1f77b4; stroke: #1f77b4"/>
     <use xlink:href="#m68f9ef1542" x="130.347195" y="284.209128" style="fill: #1f77b4; stroke: #1f77b4"/>
     <use xlink:href="#m68f9ef1542" x="131.978625" y="283.161929" style="fill: #1f77b4; stroke: #1f77b4"/>
     <use xlink:href="#m68f9ef1542" x="133.610055" y="283.871451" style="fill: #1f77b4; stroke: #1f77b4"/>
     <use xlink:href="#m68f9ef1542" x="135.241485" y="284.392562" style="fill: #1f77b4; stroke: #1f77b4"/>
     <use xlink:href="#m68f9ef1542" x="136.872915" y="291.204593" style="fill: #1f77b4; stroke: #1f77b4"/>
     <use xlink:href="#m68f9ef1542" x="138.504345" y="291.339394" style="fill: #1f77b4; stroke: #1f77b4"/>
     <use xlink:href="#m68f9ef1542" x="140.135774" y="289.526575" style="fill: #1f77b4; stroke: #1f77b4"/>
     <use xlink:href="#m68f9ef1542" x="141.767204" y="290.932138" style="fill: #1f77b4; stroke: #1f77b4"/>
     <use xlink:href="#m68f9ef1542" x="143.398634" y="286.915369" style="fill: #1f77b4; stroke: #1f77b4"/>
     <use xlink:href="#m68f9ef1542" x="145.030064" y="285.675974" style="fill: #1f77b4; stroke: #1f77b4"/>
     <use xlink:href="#m68f9ef1542" x="146.661494" y="289.891109" style="fill: #1f77b4; stroke: #1f77b4"/>
     <use xlink:href="#m68f9ef1542" x="148.292924" y="292.166919" style="fill: #1f77b4; stroke: #1f77b4"/>
     <use xlink:href="#m68f9ef1542" x="149.924354" y="291.211281" style="fill: #1f77b4; stroke: #1f77b4"/>
     <use xlink:href="#m68f9ef1542" x="151.555784" y="293.07465" style="fill: #1f77b4; stroke: #1f77b4"/>
     <use xlink:href="#m68f9ef1542" x="153.187213" y="290.504455" style="fill: #1f77b4; stroke: #1f77b4"/>
     <use xlink:href="#m68f9ef1542" x="154.818643" y="293.687426" style="fill: #1f77b4; stroke: #1f77b4"/>
     <use xlink:href="#m68f9ef1542" x="156.450073" y="291.005087" style="fill: #1f77b4; stroke: #1f77b4"/>
     <use xlink:href="#m68f9ef1542" x="158.081503" y="290.906008" style="fill: #1f77b4; stroke: #1f77b4"/>
     <use xlink:href="#m68f9ef1542" x="159.712933" y="291.149998" style="fill: #1f77b4; stroke: #1f77b4"/>
     <use xlink:href="#m68f9ef1542" x="161.344363" y="292.321577" style="fill: #1f77b4; stroke: #1f77b4"/>
     <use xlink:href="#m68f9ef1542" x="162.975793" y="290.977245" style="fill: #1f77b4; stroke: #1f77b4"/>
     <use xlink:href="#m68f9ef1542" x="164.607223" y="295.550951" style="fill: #1f77b4; stroke: #1f77b4"/>
     <use xlink:href="#m68f9ef1542" x="166.238652" y="297.218081" style="fill: #1f77b4; stroke: #1f77b4"/>
     <use xlink:href="#m68f9ef1542" x="167.870082" y="296.694067" style="fill: #1f77b4; stroke: #1f77b4"/>
     <use xlink:href="#m68f9ef1542" x="169.501512" y="297.073066" style="fill: #1f77b4; stroke: #1f77b4"/>
     <use xlink:href="#m68f9ef1542" x="171.132942" y="297.357652" style="fill: #1f77b4; stroke: #1f77b4"/>
     <use xlink:href="#m68f9ef1542" x="172.764372" y="292.652567" style="fill: #1f77b4; stroke: #1f77b4"/>
     <use xlink:href="#m68f9ef1542" x="174.395802" y="295.862913" style="fill: #1f77b4; stroke: #1f77b4"/>
     <use xlink:href="#m68f9ef1542" x="176.027232" y="292.494434" style="fill: #1f77b4; stroke: #1f77b4"/>
     <use xlink:href="#m68f9ef1542" x="177.658662" y="297.815562" style="fill: #1f77b4; stroke: #1f77b4"/>
     <use xlink:href="#m68f9ef1542" x="179.290092" y="297.683457" style="fill: #1f77b4; stroke: #1f77b4"/>
     <use xlink:href="#m68f9ef1542" x="180.921521" y="298.619704" style="fill: #1f77b4; stroke: #1f77b4"/>
     <use xlink:href="#m68f9ef1542" x="182.552951" y="294.358011" style="fill: #1f77b4; stroke: #1f77b4"/>
     <use xlink:href="#m68f9ef1542" x="184.184381" y="293.185447" style="fill: #1f77b4; stroke: #1f77b4"/>
     <use xlink:href="#m68f9ef1542" x="185.815811" y="293.128467" style="fill: #1f77b4; stroke: #1f77b4"/>
     <use xlink:href="#m68f9ef1542" x="187.447241" y="301.620797" style="fill: #1f77b4; stroke: #1f77b4"/>
     <use xlink:href="#m68f9ef1542" x="189.078671" y="299.941691" style="fill: #1f77b4; stroke: #1f77b4"/>
     <use xlink:href="#m68f9ef1542" x="190.710101" y="295.960851" style="fill: #1f77b4; stroke: #1f77b4"/>
     <use xlink:href="#m68f9ef1542" x="192.341531" y="295.851195" style="fill: #1f77b4; stroke: #1f77b4"/>
     <use xlink:href="#m68f9ef1542" x="193.97296" y="297.894939" style="fill: #1f77b4; stroke: #1f77b4"/>
     <use xlink:href="#m68f9ef1542" x="195.60439" y="302.373818" style="fill: #1f77b4; stroke: #1f77b4"/>
     <use xlink:href="#m68f9ef1542" x="197.23582" y="300.894062" style="fill: #1f77b4; stroke: #1f77b4"/>
     <use xlink:href="#m68f9ef1542" x="198.86725" y="300.357864" style="fill: #1f77b4; stroke: #1f77b4"/>
     <use xlink:href="#m68f9ef1542" x="200.49868" y="299.113025" style="fill: #1f77b4; stroke: #1f77b4"/>
     <use xlink:href="#m68f9ef1542" x="202.13011" y="298.513418" style="fill: #1f77b4; stroke: #1f77b4"/>
     <use xlink:href="#m68f9ef1542" x="203.76154" y="299.069007" style="fill: #1f77b4; stroke: #1f77b4"/>
     <use xlink:href="#m68f9ef1542" x="205.39297" y="296.188406" style="fill: #1f77b4; stroke: #1f77b4"/>
     <use xlink:href="#m68f9ef1542" x="207.024399" y="300.191592" style="fill: #1f77b4; stroke: #1f77b4"/>
     <use xlink:href="#m68f9ef1542" x="208.655829" y="299.943142" style="fill: #1f77b4; stroke: #1f77b4"/>
     <use xlink:href="#m68f9ef1542" x="210.287259" y="300.022416" style="fill: #1f77b4; stroke: #1f77b4"/>
     <use xlink:href="#m68f9ef1542" x="211.918689" y="291.698017" style="fill: #1f77b4; stroke: #1f77b4"/>
     <use xlink:href="#m68f9ef1542" x="213.550119" y="291.40161" style="fill: #1f77b4; stroke: #1f77b4"/>
     <use xlink:href="#m68f9ef1542" x="215.181549" y="296.911875" style="fill: #1f77b4; stroke: #1f77b4"/>
     <use xlink:href="#m68f9ef1542" x="216.812979" y="298.751913" style="fill: #1f77b4; stroke: #1f77b4"/>
     <use xlink:href="#m68f9ef1542" x="218.444409" y="299.676236" style="fill: #1f77b4; stroke: #1f77b4"/>
     <use xlink:href="#m68f9ef1542" x="220.075838" y="295.790742" style="fill: #1f77b4; stroke: #1f77b4"/>
     <use xlink:href="#m68f9ef1542" x="221.707268" y="297.371288" style="fill: #1f77b4; stroke: #1f77b4"/>
     <use xlink:href="#m68f9ef1542" x="223.338698" y="298.301262" style="fill: #1f77b4; stroke: #1f77b4"/>
     <use xlink:href="#m68f9ef1542" x="224.970128" y="292.818891" style="fill: #1f77b4; stroke: #1f77b4"/>
     <use xlink:href="#m68f9ef1542" x="226.601558" y="293.679545" style="fill: #1f77b4; stroke: #1f77b4"/>
     <use xlink:href="#m68f9ef1542" x="228.232988" y="302.056205" style="fill: #1f77b4; stroke: #1f77b4"/>
     <use xlink:href="#m68f9ef1542" x="229.864418" y="299.801549" style="fill: #1f77b4; stroke: #1f77b4"/>
     <use xlink:href="#m68f9ef1542" x="231.495848" y="296.199812" style="fill: #1f77b4; stroke: #1f77b4"/>
     <use xlink:href="#m68f9ef1542" x="233.127277" y="299.126142" style="fill: #1f77b4; stroke: #1f77b4"/>
     <use xlink:href="#m68f9ef1542" x="234.758707" y="290.768925" style="fill: #1f77b4; stroke: #1f77b4"/>
     <use xlink:href="#m68f9ef1542" x="236.390137" y="293.732274" style="fill: #1f77b4; stroke: #1f77b4"/>
     <use xlink:href="#m68f9ef1542" x="238.021567" y="288.30683" style="fill: #1f77b4; stroke: #1f77b4"/>
     <use xlink:href="#m68f9ef1542" x="239.652997" y="291.848839" style="fill: #1f77b4; stroke: #1f77b4"/>
     <use xlink:href="#m68f9ef1542" x="241.284427" y="291.58551" style="fill: #1f77b4; stroke: #1f77b4"/>
     <use xlink:href="#m68f9ef1542" x="242.915857" y="290.750156" style="fill: #1f77b4; stroke: #1f77b4"/>
     <use xlink:href="#m68f9ef1542" x="244.547287" y="292.233853" style="fill: #1f77b4; stroke: #1f77b4"/>
     <use xlink:href="#m68f9ef1542" x="246.178716" y="291.687337" style="fill: #1f77b4; stroke: #1f77b4"/>
     <use xlink:href="#m68f9ef1542" x="247.810146" y="292.071884" style="fill: #1f77b4; stroke: #1f77b4"/>
     <use xlink:href="#m68f9ef1542" x="249.441576" y="289.751693" style="fill: #1f77b4; stroke: #1f77b4"/>
     <use xlink:href="#m68f9ef1542" x="251.073006" y="287.689025" style="fill: #1f77b4; stroke: #1f77b4"/>
     <use xlink:href="#m68f9ef1542" x="252.704436" y="293.101403" style="fill: #1f77b4; stroke: #1f77b4"/>
     <use xlink:href="#m68f9ef1542" x="254.335866" y="288.838362" style="fill: #1f77b4; stroke: #1f77b4"/>
     <use xlink:href="#m68f9ef1542" x="255.967296" y="291.803785" style="fill: #1f77b4; stroke: #1f77b4"/>
     <use xlink:href="#m68f9ef1542" x="257.598726" y="291.436295" style="fill: #1f77b4; stroke: #1f77b4"/>
     <use xlink:href="#m68f9ef1542" x="259.230155" y="291.11132" style="fill: #1f77b4; stroke: #1f77b4"/>
     <use xlink:href="#m68f9ef1542" x="260.861585" y="288.194426" style="fill: #1f77b4; stroke: #1f77b4"/>
     <use xlink:href="#m68f9ef1542" x="262.493015" y="285.579125" style="fill: #1f77b4; stroke: #1f77b4"/>
     <use xlink:href="#m68f9ef1542" x="264.124445" y="287.127837" style="fill: #1f77b4; stroke: #1f77b4"/>
     <use xlink:href="#m68f9ef1542" x="265.755875" y="287.126955" style="fill: #1f77b4; stroke: #1f77b4"/>
     <use xlink:href="#m68f9ef1542" x="267.387305" y="284.626909" style="fill: #1f77b4; stroke: #1f77b4"/>
     <use xlink:href="#m68f9ef1542" x="269.018735" y="293.356126" style="fill: #1f77b4; stroke: #1f77b4"/>
     <use xlink:href="#m68f9ef1542" x="270.650165" y="281.949028" style="fill: #1f77b4; stroke: #1f77b4"/>
     <use xlink:href="#m68f9ef1542" x="272.281594" y="281.082514" style="fill: #1f77b4; stroke: #1f77b4"/>
     <use xlink:href="#m68f9ef1542" x="273.913024" y="283.859059" style="fill: #1f77b4; stroke: #1f77b4"/>
     <use xlink:href="#m68f9ef1542" x="275.544454" y="283.52864" style="fill: #1f77b4; stroke: #1f77b4"/>
     <use xlink:href="#m68f9ef1542" x="277.175884" y="280.895814" style="fill: #1f77b4; stroke: #1f77b4"/>
     <use xlink:href="#m68f9ef1542" x="278.807314" y="276.370014" style="fill: #1f77b4; stroke: #1f77b4"/>
     <use xlink:href="#m68f9ef1542" x="280.438744" y="280.062431" style="fill: #1f77b4; stroke: #1f77b4"/>
     <use xlink:href="#m68f9ef1542" x="282.070174" y="281.901536" style="fill: #1f77b4; stroke: #1f77b4"/>
     <use xlink:href="#m68f9ef1542" x="283.701604" y="277.197435" style="fill: #1f77b4; stroke: #1f77b4"/>
     <use xlink:href="#m68f9ef1542" x="285.333033" y="277.436552" style="fill: #1f77b4; stroke: #1f77b4"/>
     <use xlink:href="#m68f9ef1542" x="286.964463" y="271.254147" style="fill: #1f77b4; stroke: #1f77b4"/>
     <use xlink:href="#m68f9ef1542" x="288.595893" y="275.276309" style="fill: #1f77b4; stroke: #1f77b4"/>
     <use xlink:href="#m68f9ef1542" x="290.227323" y="272.717053" style="fill: #1f77b4; stroke: #1f77b4"/>
     <use xlink:href="#m68f9ef1542" x="291.858753" y="277.731093" style="fill: #1f77b4; stroke: #1f77b4"/>
     <use xlink:href="#m68f9ef1542" x="293.490183" y="269.586603" style="fill: #1f77b4; stroke: #1f77b4"/>
     <use xlink:href="#m68f9ef1542" x="295.121613" y="273.491954" style="fill: #1f77b4; stroke: #1f77b4"/>
     <use xlink:href="#m68f9ef1542" x="296.753043" y="270.844144" style="fill: #1f77b4; stroke: #1f77b4"/>
     <use xlink:href="#m68f9ef1542" x="298.384473" y="272.915626" style="fill: #1f77b4; stroke: #1f77b4"/>
     <use xlink:href="#m68f9ef1542" x="300.015902" y="268.510162" style="fill: #1f77b4; stroke: #1f77b4"/>
     <use xlink:href="#m68f9ef1542" x="301.647332" y="264.152553" style="fill: #1f77b4; stroke: #1f77b4"/>
     <use xlink:href="#m68f9ef1542" x="303.278762" y="264.440042" style="fill: #1f77b4; stroke: #1f77b4"/>
     <use xlink:href="#m68f9ef1542" x="304.910192" y="263.982703" style="fill: #1f77b4; stroke: #1f77b4"/>
     <use xlink:href="#m68f9ef1542" x="306.541622" y="267.563338" style="fill: #1f77b4; stroke: #1f77b4"/>
     <use xlink:href="#m68f9ef1542" x="308.173052" y="264.654947" style="fill: #1f77b4; stroke: #1f77b4"/>
     <use xlink:href="#m68f9ef1542" x="309.804482" y="263.53651" style="fill: #1f77b4; stroke: #1f77b4"/>
     <use xlink:href="#m68f9ef1542" x="311.435912" y="265.064587" style="fill: #1f77b4; stroke: #1f77b4"/>
     <use xlink:href="#m68f9ef1542" x="313.067341" y="259.214105" style="fill: #1f77b4; stroke: #1f77b4"/>
     <use xlink:href="#m68f9ef1542" x="314.698771" y="263.829963" style="fill: #1f77b4; stroke: #1f77b4"/>
     <use xlink:href="#m68f9ef1542" x="316.330201" y="260.591619" style="fill: #1f77b4; stroke: #1f77b4"/>
     <use xlink:href="#m68f9ef1542" x="317.961631" y="261.408723" style="fill: #1f77b4; stroke: #1f77b4"/>
     <use xlink:href="#m68f9ef1542" x="319.593061" y="256.38084" style="fill: #1f77b4; stroke: #1f77b4"/>
     <use xlink:href="#m68f9ef1542" x="321.224491" y="251.86769" style="fill: #1f77b4; stroke: #1f77b4"/>
     <use xlink:href="#m68f9ef1542" x="322.855921" y="254.566828" style="fill: #1f77b4; stroke: #1f77b4"/>
     <use xlink:href="#m68f9ef1542" x="324.487351" y="253.748947" style="fill: #1f77b4; stroke: #1f77b4"/>
     <use xlink:href="#m68f9ef1542" x="326.11878" y="253.486499" style="fill: #1f77b4; stroke: #1f77b4"/>
     <use xlink:href="#m68f9ef1542" x="327.75021" y="249.48855" style="fill: #1f77b4; stroke: #1f77b4"/>
     <use xlink:href="#m68f9ef1542" x="329.38164" y="251.547641" style="fill: #1f77b4; stroke: #1f77b4"/>
     <use xlink:href="#m68f9ef1542" x="331.01307" y="250.24603" style="fill: #1f77b4; stroke: #1f77b4"/>
     <use xlink:href="#m68f9ef1542" x="332.6445" y="248.364773" style="fill: #1f77b4; stroke: #1f77b4"/>
     <use xlink:href="#m68f9ef1542" x="334.27593" y="245.930053" style="fill: #1f77b4; stroke: #1f77b4"/>
     <use xlink:href="#m68f9ef1542" x="335.90736" y="251.964747" style="fill: #1f77b4; stroke: #1f77b4"/>
     <use xlink:href="#m68f9ef1542" x="337.53879" y="241.83344" style="fill: #1f77b4; stroke: #1f77b4"/>
     <use xlink:href="#m68f9ef1542" x="339.170219" y="248.754764" style="fill: #1f77b4; stroke: #1f77b4"/>
     <use xlink:href="#m68f9ef1542" x="340.801649" y="246.513225" style="fill: #1f77b4; stroke: #1f77b4"/>
     <use xlink:href="#m68f9ef1542" x="342.433079" y="242.215343" style="fill: #1f77b4; stroke: #1f77b4"/>
     <use xlink:href="#m68f9ef1542" x="344.064509" y="237.368456" style="fill: #1f77b4; stroke: #1f77b4"/>
     <use xlink:href="#m68f9ef1542" x="345.695939" y="240.124003" style="fill: #1f77b4; stroke: #1f77b4"/>
     <use xlink:href="#m68f9ef1542" x="347.327369" y="239.762788" style="fill: #1f77b4; stroke: #1f77b4"/>
     <use xlink:href="#m68f9ef1542" x="348.958799" y="237.728531" style="fill: #1f77b4; stroke: #1f77b4"/>
     <use xlink:href="#m68f9ef1542" x="350.590229" y="236.488722" style="fill: #1f77b4; stroke: #1f77b4"/>
     <use xlink:href="#m68f9ef1542" x="352.221658" y="236.657172" style="fill: #1f77b4; stroke: #1f77b4"/>
     <use xlink:href="#m68f9ef1542" x="353.853088" y="235.620083" style="fill: #1f77b4; stroke: #1f77b4"/>
     <use xlink:href="#m68f9ef1542" x="355.484518" y="228.501379" style="fill: #1f77b4; stroke: #1f77b4"/>
     <use xlink:href="#m68f9ef1542" x="357.115948" y="234.603266" style="fill: #1f77b4; stroke: #1f77b4"/>
     <use xlink:href="#m68f9ef1542" x="358.747378" y="224.824775" style="fill: #1f77b4; stroke: #1f77b4"/>
     <use xlink:href="#m68f9ef1542" x="360.378808" y="227.815603" style="fill: #1f77b4; stroke: #1f77b4"/>
     <use xlink:href="#m68f9ef1542" x="362.010238" y="228.813288" style="fill: #1f77b4; stroke: #1f77b4"/>
     <use xlink:href="#m68f9ef1542" x="363.641668" y="221.506329" style="fill: #1f77b4; stroke: #1f77b4"/>
     <use xlink:href="#m68f9ef1542" x="365.273097" y="218.990417" style="fill: #1f77b4; stroke: #1f77b4"/>
     <use xlink:href="#m68f9ef1542" x="366.904527" y="216.450241" style="fill: #1f77b4; stroke: #1f77b4"/>
     <use xlink:href="#m68f9ef1542" x="368.535957" y="219.584373" style="fill: #1f77b4; stroke: #1f77b4"/>
     <use xlink:href="#m68f9ef1542" x="370.167387" y="220.269734" style="fill: #1f77b4; stroke: #1f77b4"/>
     <use xlink:href="#m68f9ef1542" x="371.798817" y="214.355843" style="fill: #1f77b4; stroke: #1f77b4"/>
     <use xlink:href="#m68f9ef1542" x="373.430247" y="214.81593" style="fill: #1f77b4; stroke: #1f77b4"/>
     <use xlink:href="#m68f9ef1542" x="375.061677" y="214.025994" style="fill: #1f77b4; stroke: #1f77b4"/>
     <use xlink:href="#m68f9ef1542" x="376.693107" y="212.166254" style="fill: #1f77b4; stroke: #1f77b4"/>
     <use xlink:href="#m68f9ef1542" x="378.324536" y="208.208175" style="fill: #1f77b4; stroke: #1f77b4"/>
     <use xlink:href="#m68f9ef1542" x="379.955966" y="203.612382" style="fill: #1f77b4; stroke: #1f77b4"/>
     <use xlink:href="#m68f9ef1542" x="381.587396" y="205.281482" style="fill: #1f77b4; stroke: #1f77b4"/>
     <use xlink:href="#m68f9ef1542" x="383.218826" y="207.861424" style="fill: #1f77b4; stroke: #1f77b4"/>
     <use xlink:href="#m68f9ef1542" x="384.850256" y="205.882903" style="fill: #1f77b4; stroke: #1f77b4"/>
     <use xlink:href="#m68f9ef1542" x="386.481686" y="201.93706" style="fill: #1f77b4; stroke: #1f77b4"/>
     <use xlink:href="#m68f9ef1542" x="388.113116" y="198.610889" style="fill: #1f77b4; stroke: #1f77b4"/>
     <use xlink:href="#m68f9ef1542" x="389.744546" y="195.129695" style="fill: #1f77b4; stroke: #1f77b4"/>
     <use xlink:href="#m68f9ef1542" x="391.375975" y="197.072753" style="fill: #1f77b4; stroke: #1f77b4"/>
     <use xlink:href="#m68f9ef1542" x="393.007405" y="193.853801" style="fill: #1f77b4; stroke: #1f77b4"/>
     <use xlink:href="#m68f9ef1542" x="394.638835" y="192.410182" style="fill: #1f77b4; stroke: #1f77b4"/>
    </g>
   </g>
   <g id="line2d_31">
    <path d="M 69.98429 253.128848 
L 76.80886 257.506408 
L 83.63343 261.616432 
L 90.458 265.460686 
L 97.28257 269.042543 
L 104.10714 272.367171 
L 110.93171 275.44163 
L 117.75628 278.274832 
L 124.905829 280.995673 
L 132.055379 283.476706 
L 139.529908 285.829063 
L 147.004437 287.949037 
L 154.803946 289.926083 
L 162.603454 291.670777 
L 170.402963 293.183979 
L 177.877492 294.410736 
L 185.027042 295.368496 
L 192.176591 296.10087 
L 199.001161 296.574456 
L 205.500752 296.806733 
L 212.000342 296.812852 
L 218.174953 296.598833 
L 224.349564 296.162083 
L 230.524175 295.495747 
L 236.698786 294.594521 
L 242.548418 293.520581 
L 248.398049 292.230265 
L 254.24768 290.722404 
L 260.422291 288.894384 
L 266.596902 286.823982 
L 272.771513 284.512267 
L 278.946124 281.960831 
L 285.120735 279.171668 
L 291.295346 276.147076 
L 297.794937 272.711725 
L 304.294527 269.021434 
L 310.794118 265.079469 
L 317.618688 260.673223 
L 324.443258 255.997181 
L 331.267828 251.055365 
L 338.417377 245.597585 
L 345.566927 239.857265 
L 352.716477 233.839133 
L 360.191006 227.255572 
L 367.665535 220.37904 
L 375.465043 212.897143 
L 383.264552 205.108582 
L 391.38904 196.676299 
L 394.638835 193.213796 
L 394.638835 193.213796 
" clip-path="url(#p409e12ad41)" style="fill: none; stroke: #d62728; stroke-width: 1.5; stroke-linecap: square"/>
   </g>
   <g id="patch_9">
    <path d="M 53.751563 307.872 
L 53.751563 186.912 
" style="fill: none; stroke: #000000; stroke-width: 0.8; stroke-linejoin: miter; stroke-linecap: square"/>
   </g>
   <g id="patch_10">
    <path d="M 410.871562 307.872 
L 410.871562 186.912 
" style="fill: none; stroke: #000000; stroke-width: 0.8; stroke-linejoin: miter; stroke-linecap: square"/>
   </g>
   <g id="patch_11">
    <path d="M 53.751563 307.872 
L 410.871563 307.872 
" style="fill: none; stroke: #000000; stroke-width: 0.8; stroke-linejoin: miter; stroke-linecap: square"/>
   </g>
   <g id="patch_12">
    <path d="M 53.751563 186.912 
L 410.871563 186.912 
" style="fill: none; stroke: #000000; stroke-width: 0.8; stroke-linejoin: miter; stroke-linecap: square"/>
   </g>
  </g>
  <g id="text_25">
   <!-- S21 resonator spectroscopy -->
   <g transform="translate(142.767188 16.318125) scale(0.12 -0.12)">
    <defs>
     <path id="DejaVuSans-53" d="M 3425 4513 
L 3425 3897 
Q 3066 4069 2747 4153 
Q 2428 4238 2131 4238 
Q 1616 4238 1336 4038 
Q 1056 3838 1056 3469 
Q 1056 3159 1242 3001 
Q 1428 2844 1947 2747 
L 2328 2669 
Q 3034 2534 3370 2195 
Q 3706 1856 3706 1288 
Q 3706 609 3251 259 
Q 2797 -91 1919 -91 
Q 1588 -91 1214 -16 
Q 841 59 441 206 
L 441 856 
Q 825 641 1194 531 
Q 1563 422 1919 422 
Q 2459 422 2753 634 
Q 3047 847 3047 1241 
Q 3047 1584 2836 1778 
Q 2625 1972 2144 2069 
L 1759 2144 
Q 1053 2284 737 2584 
Q 422 2884 422 3419 
Q 422 4038 858 4394 
Q 1294 4750 2059 4750 
Q 2388 4750 2728 4690 
Q 3069 4631 3425 4513 
z
" transform="scale(0.015625)"/>
     <path id="DejaVuSans-70" d="M 1159 525 
L 1159 -1331 
L 581 -1331 
L 581 3500 
L 1159 3500 
L 1159 2969 
Q 1341 3281 1617 3432 
Q 1894 3584 2278 3584 
Q 2916 3584 3314 3078 
Q 3713 2572 3713 1747 
Q 3713 922 3314 415 
Q 2916 -91 2278 -91 
Q 1894 -91 1617 61 
Q 1341 213 1159 525 
z
M 3116 1747 
Q 3116 2381 2855 2742 
Q 2594 3103 2138 3103 
Q 1681 3103 1420 2742 
Q 1159 2381 1159 1747 
Q 1159 1113 1420 752 
Q 1681 391 2138 391 
Q 2594 391 2855 752 
Q 3116 1113 3116 1747 
z
" transform="scale(0.015625)"/>
    </defs>
    <use xlink:href="#DejaVuSans-53"/>
    <use xlink:href="#DejaVuSans-32" x="63.476562"/>
    <use xlink:href="#DejaVuSans-31" x="127.099609"/>
    <use xlink:href="#DejaVuSans-20" x="190.722656"/>
    <use xlink:href="#DejaVuSans-72" x="222.509766"/>
    <use xlink:href="#DejaVuSans-65" x="261.373047"/>
    <use xlink:href="#DejaVuSans-73" x="322.896484"/>
    <use xlink:href="#DejaVuSans-6f" x="374.996094"/>
    <use xlink:href="#DejaVuSans-6e" x="436.177734"/>
    <use xlink:href="#DejaVuSans-61" x="499.556641"/>
    <use xlink:href="#DejaVuSans-74" x="560.835938"/>
    <use xlink:href="#DejaVuSans-6f" x="600.044922"/>
    <use xlink:href="#DejaVuSans-72" x="661.226562"/>
    <use xlink:href="#DejaVuSans-20" x="702.339844"/>
    <use xlink:href="#DejaVuSans-73" x="734.126953"/>
    <use xlink:href="#DejaVuSans-70" x="786.226562"/>
    <use xlink:href="#DejaVuSans-65" x="849.703125"/>
    <use xlink:href="#DejaVuSans-63" x="911.226562"/>
    <use xlink:href="#DejaVuSans-74" x="966.207031"/>
    <use xlink:href="#DejaVuSans-72" x="1005.416016"/>
    <use xlink:href="#DejaVuSans-6f" x="1044.279297"/>
    <use xlink:href="#DejaVuSans-73" x="1105.460938"/>
    <use xlink:href="#DejaVuSans-63" x="1157.560547"/>
    <use xlink:href="#DejaVuSans-6f" x="1212.541016"/>
    <use xlink:href="#DejaVuSans-70" x="1273.722656"/>
    <use xlink:href="#DejaVuSans-79" x="1337.199219"/>
   </g>
   <!-- tuid: 20231227-130749-649-6623b7 -->
   <g transform="translate(116.704688 29.7555) scale(0.12 -0.12)">
    <defs>
     <path id="DejaVuSans-33" d="M 2597 2516 
Q 3050 2419 3304 2112 
Q 3559 1806 3559 1356 
Q 3559 666 3084 287 
Q 2609 -91 1734 -91 
Q 1441 -91 1130 -33 
Q 819 25 488 141 
L 488 750 
Q 750 597 1062 519 
Q 1375 441 1716 441 
Q 2309 441 2620 675 
Q 2931 909 2931 1356 
Q 2931 1769 2642 2001 
Q 2353 2234 1838 2234 
L 1294 2234 
L 1294 2753 
L 1863 2753 
Q 2328 2753 2575 2939 
Q 2822 3125 2822 3475 
Q 2822 3834 2567 4026 
Q 2313 4219 1838 4219 
Q 1578 4219 1281 4162 
Q 984 4106 628 3988 
L 628 4550 
Q 988 4650 1302 4700 
Q 1616 4750 1894 4750 
Q 2613 4750 3031 4423 
Q 3450 4097 3450 3541 
Q 3450 3153 3228 2886 
Q 3006 2619 2597 2516 
z
" transform="scale(0.015625)"/>
    </defs>
    <use xlink:href="#DejaVuSans-74"/>
    <use xlink:href="#DejaVuSans-75" x="39.208984"/>
    <use xlink:href="#DejaVuSans-69" x="102.587891"/>
    <use xlink:href="#DejaVuSans-64" x="130.371094"/>
    <use xlink:href="#DejaVuSans-3a" x="193.847656"/>
    <use xlink:href="#DejaVuSans-20" x="227.539062"/>
    <use xlink:href="#DejaVuSans-32" x="259.326172"/>
    <use xlink:href="#DejaVuSans-30" x="322.949219"/>
    <use xlink:href="#DejaVuSans-32" x="386.572266"/>
    <use xlink:href="#DejaVuSans-33" x="450.195312"/>
    <use xlink:href="#DejaVuSans-31" x="513.818359"/>
    <use xlink:href="#DejaVuSans-32" x="577.441406"/>
    <use xlink:href="#DejaVuSans-32" x="641.064453"/>
    <use xlink:href="#DejaVuSans-37" x="704.6875"/>
    <use xlink:href="#DejaVuSans-2d" x="768.310547"/>
    <use xlink:href="#DejaVuSans-31" x="804.394531"/>
    <use xlink:href="#DejaVuSans-33" x="868.017578"/>
    <use xlink:href="#DejaVuSans-30" x="931.640625"/>
    <use xlink:href="#DejaVuSans-37" x="995.263672"/>
    <use xlink:href="#DejaVuSans-34" x="1058.886719"/>
    <use xlink:href="#DejaVuSans-39" x="1122.509766"/>
    <use xlink:href="#DejaVuSans-2d" x="1186.132812"/>
    <use xlink:href="#DejaVuSans-36" x="1222.216797"/>
    <use xlink:href="#DejaVuSans-34" x="1285.839844"/>
    <use xlink:href="#DejaVuSans-39" x="1349.462891"/>
    <use xlink:href="#DejaVuSans-2d" x="1413.085938"/>
    <use xlink:href="#DejaVuSans-36" x="1449.169922"/>
    <use xlink:href="#DejaVuSans-36" x="1512.792969"/>
    <use xlink:href="#DejaVuSans-32" x="1576.416016"/>
    <use xlink:href="#DejaVuSans-33" x="1640.039062"/>
    <use xlink:href="#DejaVuSans-62" x="1703.662109"/>
    <use xlink:href="#DejaVuSans-37" x="1767.138672"/>
   </g>
  </g>
 </g>
 <defs>
  <clipPath id="pa259059aaf">
   <rect x="53.751563" y="41.76" width="357.12" height="120.96"/>
  </clipPath>
  <clipPath id="p409e12ad41">
   <rect x="53.751563" y="186.912" width="357.12" height="120.96"/>
  </clipPath>
 </defs>
</svg>
