<?xml version="1.0" encoding="utf-8" standalone="no"?>
<!DOCTYPE svg PUBLIC "-//W3C//DTD SVG 1.1//EN"
  "http://www.w3.org/Graphics/SVG/1.1/DTD/svg11.dtd">
<svg xmlns:xlink="http://www.w3.org/1999/xlink" width="596.035375pt" height="345.42825pt" viewBox="0 0 596.035375 345.42825" xmlns="http://www.w3.org/2000/svg" version="1.1">
 <metadata>
  <rdf:RDF xmlns:dc="http://purl.org/dc/elements/1.1/" xmlns:cc="http://creativecommons.org/ns#" xmlns:rdf="http://www.w3.org/1999/02/22-rdf-syntax-ns#">
   <cc:Work>
    <dc:type rdf:resource="http://purl.org/dc/dcmitype/StillImage"/>
    <dc:date>2023-12-27T13:07:58.863422</dc:date>
    <dc:format>image/svg+xml</dc:format>
    <dc:creator>
     <cc:Agent>
      <dc:title>Matplotlib v3.8.2, https://matplotlib.org/</dc:title>
     </cc:Agent>
    </dc:creator>
   </cc:Work>
  </rdf:RDF>
 </metadata>
 <defs>
  <style type="text/css">*{stroke-linejoin: round; stroke-linecap: butt}</style>
 </defs>
 <g id="figure_1">
  <g id="patch_1">
   <path d="M 0 345.42825 
L 596.035375 345.42825 
L 596.035375 -0 
L 0 -0 
L 0 345.42825 
z
" style="fill: none; opacity: 0"/>
  </g>
  <g id="axes_1">
   <g id="patch_2">
    <path d="M 53.751563 307.872 
L 410.871562 307.872 
L 410.871562 41.76 
L 53.751563 41.76 
z
" style="fill: #ffffff"/>
   </g>
   <g id="matplotlib.axis_1">
    <g id="xtick_1">
     <g id="line2d_1">
      <defs>
       <path id="mf1c21542f3" d="M 0 0 
L 0 3.5 
" style="stroke: #000000; stroke-width: 0.8"/>
      </defs>
      <g>
       <use xlink:href="#mf1c21542f3" x="98.348961" y="307.872" style="stroke: #000000; stroke-width: 0.8"/>
      </g>
     </g>
     <g id="text_1">
      <!-- -6 -->
      <g transform="translate(93.363805 322.470438) scale(0.1 -0.1)">
       <defs>
        <path id="DejaVuSans-2d" d="M 313 2009 
L 1997 2009 
L 1997 1497 
L 313 1497 
L 313 2009 
z
" transform="scale(0.015625)"/>
        <path id="DejaVuSans-36" d="M 2113 2584 
Q 1688 2584 1439 2293 
Q 1191 2003 1191 1497 
Q 1191 994 1439 701 
Q 1688 409 2113 409 
Q 2538 409 2786 701 
Q 3034 994 3034 1497 
Q 3034 2003 2786 2293 
Q 2538 2584 2113 2584 
z
M 3366 4563 
L 3366 3988 
Q 3128 4100 2886 4159 
Q 2644 4219 2406 4219 
Q 1781 4219 1451 3797 
Q 1122 3375 1075 2522 
Q 1259 2794 1537 2939 
Q 1816 3084 2150 3084 
Q 2853 3084 3261 2657 
Q 3669 2231 3669 1497 
Q 3669 778 3244 343 
Q 2819 -91 2113 -91 
Q 1303 -91 875 529 
Q 447 1150 447 2328 
Q 447 3434 972 4092 
Q 1497 4750 2381 4750 
Q 2619 4750 2861 4703 
Q 3103 4656 3366 4563 
z
" transform="scale(0.015625)"/>
       </defs>
       <use xlink:href="#DejaVuSans-2d"/>
       <use xlink:href="#DejaVuSans-36" x="36.083984"/>
      </g>
     </g>
    </g>
    <g id="xtick_2">
     <g id="line2d_2">
      <g>
       <use xlink:href="#mf1c21542f3" x="154.923899" y="307.872" style="stroke: #000000; stroke-width: 0.8"/>
      </g>
     </g>
     <g id="text_2">
      <!-- -4 -->
      <g transform="translate(149.938742 322.470438) scale(0.1 -0.1)">
       <defs>
        <path id="DejaVuSans-34" d="M 2419 4116 
L 825 1625 
L 2419 1625 
L 2419 4116 
z
M 2253 4666 
L 3047 4666 
L 3047 1625 
L 3713 1625 
L 3713 1100 
L 3047 1100 
L 3047 0 
L 2419 0 
L 2419 1100 
L 313 1100 
L 313 1709 
L 2253 4666 
z
" transform="scale(0.015625)"/>
       </defs>
       <use xlink:href="#DejaVuSans-2d"/>
       <use xlink:href="#DejaVuSans-34" x="36.083984"/>
      </g>
     </g>
    </g>
    <g id="xtick_3">
     <g id="line2d_3">
      <g>
       <use xlink:href="#mf1c21542f3" x="211.498836" y="307.872" style="stroke: #000000; stroke-width: 0.8"/>
      </g>
     </g>
     <g id="text_3">
      <!-- -2 -->
      <g transform="translate(206.51368 322.470438) scale(0.1 -0.1)">
       <defs>
        <path id="DejaVuSans-32" d="M 1228 531 
L 3431 531 
L 3431 0 
L 469 0 
L 469 531 
Q 828 903 1448 1529 
Q 2069 2156 2228 2338 
Q 2531 2678 2651 2914 
Q 2772 3150 2772 3378 
Q 2772 3750 2511 3984 
Q 2250 4219 1831 4219 
Q 1534 4219 1204 4116 
Q 875 4013 500 3803 
L 500 4441 
Q 881 4594 1212 4672 
Q 1544 4750 1819 4750 
Q 2544 4750 2975 4387 
Q 3406 4025 3406 3419 
Q 3406 3131 3298 2873 
Q 3191 2616 2906 2266 
Q 2828 2175 2409 1742 
Q 1991 1309 1228 531 
z
" transform="scale(0.015625)"/>
       </defs>
       <use xlink:href="#DejaVuSans-2d"/>
       <use xlink:href="#DejaVuSans-32" x="36.083984"/>
      </g>
     </g>
    </g>
    <g id="xtick_4">
     <g id="line2d_4">
      <g>
       <use xlink:href="#mf1c21542f3" x="268.073774" y="307.872" style="stroke: #000000; stroke-width: 0.8"/>
      </g>
     </g>
     <g id="text_4">
      <!-- 0 -->
      <g transform="translate(264.892524 322.470438) scale(0.1 -0.1)">
       <defs>
        <path id="DejaVuSans-30" d="M 2034 4250 
Q 1547 4250 1301 3770 
Q 1056 3291 1056 2328 
Q 1056 1369 1301 889 
Q 1547 409 2034 409 
Q 2525 409 2770 889 
Q 3016 1369 3016 2328 
Q 3016 3291 2770 3770 
Q 2525 4250 2034 4250 
z
M 2034 4750 
Q 2819 4750 3233 4129 
Q 3647 3509 3647 2328 
Q 3647 1150 3233 529 
Q 2819 -91 2034 -91 
Q 1250 -91 836 529 
Q 422 1150 422 2328 
Q 422 3509 836 4129 
Q 1250 4750 2034 4750 
z
" transform="scale(0.015625)"/>
       </defs>
       <use xlink:href="#DejaVuSans-30"/>
      </g>
     </g>
    </g>
    <g id="xtick_5">
     <g id="line2d_5">
      <g>
       <use xlink:href="#mf1c21542f3" x="324.648712" y="307.872" style="stroke: #000000; stroke-width: 0.8"/>
      </g>
     </g>
     <g id="text_5">
      <!-- 2 -->
      <g transform="translate(321.467462 322.470438) scale(0.1 -0.1)">
       <use xlink:href="#DejaVuSans-32"/>
      </g>
     </g>
    </g>
    <g id="xtick_6">
     <g id="line2d_6">
      <g>
       <use xlink:href="#mf1c21542f3" x="381.22365" y="307.872" style="stroke: #000000; stroke-width: 0.8"/>
      </g>
     </g>
     <g id="text_6">
      <!-- 4 -->
      <g transform="translate(378.0424 322.470438) scale(0.1 -0.1)">
       <use xlink:href="#DejaVuSans-34"/>
      </g>
     </g>
    </g>
    <g id="text_7">
     <!-- Re$(S_{21})$ [mV] -->
     <g transform="translate(200.311563 336.148562) scale(0.1 -0.1)">
      <defs>
       <path id="DejaVuSans-52" d="M 2841 2188 
Q 3044 2119 3236 1894 
Q 3428 1669 3622 1275 
L 4263 0 
L 3584 0 
L 2988 1197 
Q 2756 1666 2539 1819 
Q 2322 1972 1947 1972 
L 1259 1972 
L 1259 0 
L 628 0 
L 628 4666 
L 2053 4666 
Q 2853 4666 3247 4331 
Q 3641 3997 3641 3322 
Q 3641 2881 3436 2590 
Q 3231 2300 2841 2188 
z
M 1259 4147 
L 1259 2491 
L 2053 2491 
Q 2509 2491 2742 2702 
Q 2975 2913 2975 3322 
Q 2975 3731 2742 3939 
Q 2509 4147 2053 4147 
L 1259 4147 
z
" transform="scale(0.015625)"/>
       <path id="DejaVuSans-65" d="M 3597 1894 
L 3597 1613 
L 953 1613 
Q 991 1019 1311 708 
Q 1631 397 2203 397 
Q 2534 397 2845 478 
Q 3156 559 3463 722 
L 3463 178 
Q 3153 47 2828 -22 
Q 2503 -91 2169 -91 
Q 1331 -91 842 396 
Q 353 884 353 1716 
Q 353 2575 817 3079 
Q 1281 3584 2069 3584 
Q 2775 3584 3186 3129 
Q 3597 2675 3597 1894 
z
M 3022 2063 
Q 3016 2534 2758 2815 
Q 2500 3097 2075 3097 
Q 1594 3097 1305 2825 
Q 1016 2553 972 2059 
L 3022 2063 
z
" transform="scale(0.015625)"/>
       <path id="DejaVuSans-28" d="M 1984 4856 
Q 1566 4138 1362 3434 
Q 1159 2731 1159 2009 
Q 1159 1288 1364 580 
Q 1569 -128 1984 -844 
L 1484 -844 
Q 1016 -109 783 600 
Q 550 1309 550 2009 
Q 550 2706 781 3412 
Q 1013 4119 1484 4856 
L 1984 4856 
z
" transform="scale(0.015625)"/>
       <path id="DejaVuSans-Oblique-53" d="M 3859 4513 
L 3738 3897 
Q 3422 4066 3111 4152 
Q 2800 4238 2509 4238 
Q 1944 4238 1609 3991 
Q 1275 3744 1275 3334 
Q 1275 3109 1398 2989 
Q 1522 2869 2034 2731 
L 2413 2638 
Q 3053 2472 3303 2217 
Q 3553 1963 3553 1503 
Q 3553 797 2998 353 
Q 2444 -91 1538 -91 
Q 1166 -91 791 -17 
Q 416 56 38 206 
L 166 856 
Q 513 641 861 531 
Q 1209 422 1556 422 
Q 2147 422 2503 684 
Q 2859 947 2859 1369 
Q 2859 1650 2717 1795 
Q 2575 1941 2106 2059 
L 1728 2156 
Q 1081 2325 845 2545 
Q 609 2766 609 3163 
Q 609 3859 1145 4304 
Q 1681 4750 2541 4750 
Q 2875 4750 3203 4690 
Q 3531 4631 3859 4513 
z
" transform="scale(0.015625)"/>
       <path id="DejaVuSans-31" d="M 794 531 
L 1825 531 
L 1825 4091 
L 703 3866 
L 703 4441 
L 1819 4666 
L 2450 4666 
L 2450 531 
L 3481 531 
L 3481 0 
L 794 0 
L 794 531 
z
" transform="scale(0.015625)"/>
       <path id="DejaVuSans-29" d="M 513 4856 
L 1013 4856 
Q 1481 4119 1714 3412 
Q 1947 2706 1947 2009 
Q 1947 1309 1714 600 
Q 1481 -109 1013 -844 
L 513 -844 
Q 928 -128 1133 580 
Q 1338 1288 1338 2009 
Q 1338 2731 1133 3434 
Q 928 4138 513 4856 
z
" transform="scale(0.015625)"/>
       <path id="DejaVuSans-20" transform="scale(0.015625)"/>
       <path id="DejaVuSans-5b" d="M 550 4863 
L 1875 4863 
L 1875 4416 
L 1125 4416 
L 1125 -397 
L 1875 -397 
L 1875 -844 
L 550 -844 
L 550 4863 
z
" transform="scale(0.015625)"/>
       <path id="DejaVuSans-6d" d="M 3328 2828 
Q 3544 3216 3844 3400 
Q 4144 3584 4550 3584 
Q 5097 3584 5394 3201 
Q 5691 2819 5691 2113 
L 5691 0 
L 5113 0 
L 5113 2094 
Q 5113 2597 4934 2840 
Q 4756 3084 4391 3084 
Q 3944 3084 3684 2787 
Q 3425 2491 3425 1978 
L 3425 0 
L 2847 0 
L 2847 2094 
Q 2847 2600 2669 2842 
Q 2491 3084 2119 3084 
Q 1678 3084 1418 2786 
Q 1159 2488 1159 1978 
L 1159 0 
L 581 0 
L 581 3500 
L 1159 3500 
L 1159 2956 
Q 1356 3278 1631 3431 
Q 1906 3584 2284 3584 
Q 2666 3584 2933 3390 
Q 3200 3197 3328 2828 
z
" transform="scale(0.015625)"/>
       <path id="DejaVuSans-56" d="M 1831 0 
L 50 4666 
L 709 4666 
L 2188 738 
L 3669 4666 
L 4325 4666 
L 2547 0 
L 1831 0 
z
" transform="scale(0.015625)"/>
       <path id="DejaVuSans-5d" d="M 1947 4863 
L 1947 -844 
L 622 -844 
L 622 -397 
L 1369 -397 
L 1369 4416 
L 622 4416 
L 622 4863 
L 1947 4863 
z
" transform="scale(0.015625)"/>
      </defs>
      <use xlink:href="#DejaVuSans-52" transform="translate(0 0.015625)"/>
      <use xlink:href="#DejaVuSans-65" transform="translate(69.482422 0.015625)"/>
      <use xlink:href="#DejaVuSans-28" transform="translate(131.005859 0.015625)"/>
      <use xlink:href="#DejaVuSans-Oblique-53" transform="translate(170.019531 0.015625)"/>
      <use xlink:href="#DejaVuSans-32" transform="translate(233.496094 -16.390625) scale(0.7)"/>
      <use xlink:href="#DejaVuSans-31" transform="translate(278.032227 -16.390625) scale(0.7)"/>
      <use xlink:href="#DejaVuSans-29" transform="translate(325.302734 0.015625)"/>
      <use xlink:href="#DejaVuSans-20" transform="translate(364.316406 0.015625)"/>
      <use xlink:href="#DejaVuSans-5b" transform="translate(396.103516 0.015625)"/>
      <use xlink:href="#DejaVuSans-6d" transform="translate(435.117188 0.015625)"/>
      <use xlink:href="#DejaVuSans-56" transform="translate(532.529297 0.015625)"/>
      <use xlink:href="#DejaVuSans-5d" transform="translate(600.9375 0.015625)"/>
     </g>
    </g>
   </g>
   <g id="matplotlib.axis_2">
    <g id="ytick_1">
     <g id="line2d_7">
      <defs>
       <path id="m3083d26b29" d="M 0 0 
L -3.5 0 
" style="stroke: #000000; stroke-width: 0.8"/>
      </defs>
      <g>
       <use xlink:href="#m3083d26b29" x="53.751563" y="275.837842" style="stroke: #000000; stroke-width: 0.8"/>
      </g>
     </g>
     <g id="text_8">
      <!-- -11 -->
      <g transform="translate(30.41875 279.637061) scale(0.1 -0.1)">
       <use xlink:href="#DejaVuSans-2d"/>
       <use xlink:href="#DejaVuSans-31" x="36.083984"/>
       <use xlink:href="#DejaVuSans-31" x="99.707031"/>
      </g>
     </g>
    </g>
    <g id="ytick_2">
     <g id="line2d_8">
      <g>
       <use xlink:href="#m3083d26b29" x="53.751563" y="223.303421" style="stroke: #000000; stroke-width: 0.8"/>
      </g>
     </g>
     <g id="text_9">
      <!-- -10.5 -->
      <g transform="translate(20.878125 227.102639) scale(0.1 -0.1)">
       <defs>
        <path id="DejaVuSans-2e" d="M 684 794 
L 1344 794 
L 1344 0 
L 684 0 
L 684 794 
z
" transform="scale(0.015625)"/>
        <path id="DejaVuSans-35" d="M 691 4666 
L 3169 4666 
L 3169 4134 
L 1269 4134 
L 1269 2991 
Q 1406 3038 1543 3061 
Q 1681 3084 1819 3084 
Q 2600 3084 3056 2656 
Q 3513 2228 3513 1497 
Q 3513 744 3044 326 
Q 2575 -91 1722 -91 
Q 1428 -91 1123 -41 
Q 819 9 494 109 
L 494 744 
Q 775 591 1075 516 
Q 1375 441 1709 441 
Q 2250 441 2565 725 
Q 2881 1009 2881 1497 
Q 2881 1984 2565 2268 
Q 2250 2553 1709 2553 
Q 1456 2553 1204 2497 
Q 953 2441 691 2322 
L 691 4666 
z
" transform="scale(0.015625)"/>
       </defs>
       <use xlink:href="#DejaVuSans-2d"/>
       <use xlink:href="#DejaVuSans-31" x="36.083984"/>
       <use xlink:href="#DejaVuSans-30" x="99.707031"/>
       <use xlink:href="#DejaVuSans-2e" x="163.330078"/>
       <use xlink:href="#DejaVuSans-35" x="195.117188"/>
      </g>
     </g>
    </g>
    <g id="ytick_3">
     <g id="line2d_9">
      <g>
       <use xlink:href="#m3083d26b29" x="53.751563" y="170.768999" style="stroke: #000000; stroke-width: 0.8"/>
      </g>
     </g>
     <g id="text_10">
      <!-- -10 -->
      <g transform="translate(30.41875 174.568218) scale(0.1 -0.1)">
       <use xlink:href="#DejaVuSans-2d"/>
       <use xlink:href="#DejaVuSans-31" x="36.083984"/>
       <use xlink:href="#DejaVuSans-30" x="99.707031"/>
      </g>
     </g>
    </g>
    <g id="ytick_4">
     <g id="line2d_10">
      <g>
       <use xlink:href="#m3083d26b29" x="53.751563" y="118.234577" style="stroke: #000000; stroke-width: 0.8"/>
      </g>
     </g>
     <g id="text_11">
      <!-- -9.5 -->
      <g transform="translate(27.240625 122.033796) scale(0.1 -0.1)">
       <defs>
        <path id="DejaVuSans-39" d="M 703 97 
L 703 672 
Q 941 559 1184 500 
Q 1428 441 1663 441 
Q 2288 441 2617 861 
Q 2947 1281 2994 2138 
Q 2813 1869 2534 1725 
Q 2256 1581 1919 1581 
Q 1219 1581 811 2004 
Q 403 2428 403 3163 
Q 403 3881 828 4315 
Q 1253 4750 1959 4750 
Q 2769 4750 3195 4129 
Q 3622 3509 3622 2328 
Q 3622 1225 3098 567 
Q 2575 -91 1691 -91 
Q 1453 -91 1209 -44 
Q 966 3 703 97 
z
M 1959 2075 
Q 2384 2075 2632 2365 
Q 2881 2656 2881 3163 
Q 2881 3666 2632 3958 
Q 2384 4250 1959 4250 
Q 1534 4250 1286 3958 
Q 1038 3666 1038 3163 
Q 1038 2656 1286 2365 
Q 1534 2075 1959 2075 
z
" transform="scale(0.015625)"/>
       </defs>
       <use xlink:href="#DejaVuSans-2d"/>
       <use xlink:href="#DejaVuSans-39" x="36.083984"/>
       <use xlink:href="#DejaVuSans-2e" x="99.707031"/>
       <use xlink:href="#DejaVuSans-35" x="131.494141"/>
      </g>
     </g>
    </g>
    <g id="ytick_5">
     <g id="line2d_11">
      <g>
       <use xlink:href="#m3083d26b29" x="53.751563" y="65.700155" style="stroke: #000000; stroke-width: 0.8"/>
      </g>
     </g>
     <g id="text_12">
      <!-- -9 -->
      <g transform="translate(36.78125 69.499374) scale(0.1 -0.1)">
       <use xlink:href="#DejaVuSans-2d"/>
       <use xlink:href="#DejaVuSans-39" x="36.083984"/>
      </g>
     </g>
    </g>
    <g id="text_13">
     <!-- Im$(S_{21})$ [mV] -->
     <g transform="translate(14.798438 206.466) rotate(-90) scale(0.1 -0.1)">
      <defs>
       <path id="DejaVuSans-49" d="M 628 4666 
L 1259 4666 
L 1259 0 
L 628 0 
L 628 4666 
z
" transform="scale(0.015625)"/>
      </defs>
      <use xlink:href="#DejaVuSans-49" transform="translate(0 0.015625)"/>
      <use xlink:href="#DejaVuSans-6d" transform="translate(25.867188 0.015625)"/>
      <use xlink:href="#DejaVuSans-28" transform="translate(123.279297 0.015625)"/>
      <use xlink:href="#DejaVuSans-Oblique-53" transform="translate(162.292969 0.015625)"/>
      <use xlink:href="#DejaVuSans-32" transform="translate(225.769531 -16.390625) scale(0.7)"/>
      <use xlink:href="#DejaVuSans-31" transform="translate(270.305664 -16.390625) scale(0.7)"/>
      <use xlink:href="#DejaVuSans-29" transform="translate(317.576172 0.015625)"/>
      <use xlink:href="#DejaVuSans-20" transform="translate(356.589844 0.015625)"/>
      <use xlink:href="#DejaVuSans-5b" transform="translate(388.376953 0.015625)"/>
      <use xlink:href="#DejaVuSans-6d" transform="translate(427.390625 0.015625)"/>
      <use xlink:href="#DejaVuSans-56" transform="translate(524.802734 0.015625)"/>
      <use xlink:href="#DejaVuSans-5d" transform="translate(593.210938 0.015625)"/>
     </g>
    </g>
   </g>
   <g id="line2d_12">
    <path d="M 390.52346 182.935609 
L 389.76056 182.329708 
L 389.72546 183.947003 
L 390.424762 192.444787 
L 383.886907 185.398907 
L 385.862009 185.278229 
L 383.834302 203.262949 
L 383.350054 210.926593 
L 381.861319 207.688923 
L 380.329531 197.097176 
L 378.823752 205.119205 
L 377.869474 215.974209 
L 376.444552 210.522469 
L 371.334536 222.703337 
L 370.197756 211.153235 
L 366.668386 217.616597 
L 366.770493 215.560503 
L 365.743558 229.017733 
L 365.334424 229.475239 
L 365.013455 226.200499 
L 361.052933 239.600697 
L 359.99231 236.07137 
L 356.505994 231.492551 
L 357.308294 236.499333 
L 353.710966 247.890431 
L 357.471726 235.973048 
L 351.385168 242.148744 
L 349.281857 242.785099 
L 348.984257 231.89371 
L 348.362741 259.895073 
L 347.680636 247.022414 
L 343.844515 254.398392 
L 346.458423 248.995813 
L 343.021579 250.410304 
L 341.605685 249.382713 
L 339.729251 245.764987 
L 337.988059 248.357176 
L 336.912757 255.813682 
L 336.113006 253.509843 
L 331.439793 255.070791 
L 333.189707 256.217235 
L 330.688378 271.203704 
L 330.14265 271.500267 
L 328.645563 267.512065 
L 322.618795 270.604304 
L 324.088122 261.767412 
L 325.39939 259.040743 
L 318.632355 268.31404 
L 316.830942 273.320821 
L 318.320782 271.218418 
L 315.688542 275.317831 
L 310.714074 269.663401 
L 312.802093 276.665938 
L 312.219668 270.76479 
L 311.49064 270.546817 
L 308.715388 271.083596 
L 306.584224 273.66107 
L 304.315483 270.703539 
L 303.670751 280.765693 
L 301.218556 284.433378 
L 298.637292 283.280547 
L 295.411142 284.740435 
L 295.553569 274.389246 
L 292.584329 281.452008 
L 291.876644 274.041355 
L 290.286662 285.747837 
L 288.638824 285.457205 
L 287.1289 287.516949 
L 286.20269 278.141224 
L 282.232802 275.561583 
L 283.21177 275.436228 
L 280.578884 294.119354 
L 280.482673 290.425319 
L 275.553378 281.667472 
L 276.968412 281.42623 
L 272.450524 285.922467 
L 272.694168 295.776 
L 271.898072 292.520537 
L 270.251616 291.340901 
L 268.185647 288.602255 
L 265.526812 287.28312 
L 264.451879 288.505416 
L 263.11936 282.168093 
L 258.707909 290.975102 
L 256.990976 290.428513 
L 254.899211 290.602915 
L 258.91286 272.289238 
L 253.9383 271.637142 
L 250.47689 283.759724 
L 253.060088 287.807809 
L 252.349608 289.841318 
L 248.277367 281.293233 
L 247.381068 284.770434 
L 244.564021 286.816376 
L 247.002212 274.755159 
L 239.096339 276.6486 
L 235.732459 295.077252 
L 237.02822 290.117008 
L 234.825504 282.193187 
L 234.658263 288.631113 
L 231.930303 270.245235 
L 232.072884 276.764602 
L 227.769067 264.828626 
L 228.768856 272.621047 
L 224.738502 272.041722 
L 225.567672 270.203944 
L 222.647873 273.468076 
L 221.872505 272.265741 
L 220.677378 273.111744 
L 218.675436 268.007325 
L 218.149025 263.469455 
L 211.371732 275.376687 
L 212.503016 265.997997 
L 210.464992 272.521926 
L 205.997743 271.71345 
L 206.361244 270.998505 
L 205.473665 264.581338 
L 201.769378 258.827674 
L 203.787595 262.234841 
L 204.769665 262.232901 
L 199.460256 256.732799 
L 198.679268 275.937077 
L 196.153065 250.841461 
L 196.679292 248.935131 
L 190.823235 255.04353 
L 191.805857 254.316609 
L 188.800841 248.524392 
L 186.824972 238.567632 
L 185.376987 246.690948 
L 181.89322 250.73698 
L 185.105459 240.387958 
L 179.319695 240.914015 
L 178.994764 227.312724 
L 179.956658 236.161479 
L 176.792908 230.531117 
L 173.829349 241.562005 
L 174.496162 223.644126 
L 174.036327 232.235898 
L 167.020058 226.410716 
L 165.109537 230.967977 
L 165.906156 221.275956 
L 161.542641 211.689216 
L 164.834877 212.321693 
L 160.677573 211.315546 
L 159.539195 219.192944 
L 156.53206 212.794483 
L 152.518258 210.333923 
L 155.895865 213.695692 
L 155.209982 200.824631 
L 149.061669 210.979518 
L 151.586029 203.855162 
L 150.104818 205.65279 
L 145.082414 194.591447 
L 142.33913 184.662518 
L 144.48829 190.600622 
L 142.880067 188.801283 
L 140.415803 188.223898 
L 143.080565 179.42841 
L 134.219062 183.958409 
L 134.3368 181.094866 
L 135.417629 176.956101 
L 133.290733 171.599717 
L 129.842865 184.876044 
L 129.390247 162.587168 
L 127.384866 177.814081 
L 126.395058 172.882694 
L 121.953543 163.427354 
L 124.270281 152.764204 
L 121.572722 158.826407 
L 119.085735 158.031733 
L 116.308978 153.556369 
L 113.661382 150.828788 
L 113.094374 151.199378 
L 110.279753 148.917782 
L 111.300884 133.256633 
L 107.893582 146.680784 
L 109.691126 125.168106 
L 106.215589 131.747926 
L 102.016336 133.942834 
L 102.837552 117.867523 
L 103.262747 112.332517 
L 101.422334 106.74413 
L 100.665852 113.63922 
L 95.884544 115.147014 
L 92.914536 102.136454 
L 94.06099 103.148646 
L 91.624488 101.410787 
L 88.105405 97.319359 
L 88.354147 88.611585 
L 92.27963 78.50084 
L 83.334845 82.17286 
L 85.494016 87.848734 
L 82.05622 83.495987 
L 78.661724 74.815133 
L 81.058213 67.497555 
L 77.95846 59.83893 
L 77.129781 64.113657 
L 75.228473 57.031961 
L 69.98429 53.856 
L 69.98429 53.856 
" clip-path="url(#p2da0e3cf88)" style="fill: none; stroke: #1f77b4; stroke-width: 1.5; stroke-linecap: square"/>
    <defs>
     <path id="md56cafb3f3" d="M 0 1.5 
C 0.397805 1.5 0.77937 1.341951 1.06066 1.06066 
C 1.341951 0.77937 1.5 0.397805 1.5 0 
C 1.5 -0.397805 1.341951 -0.77937 1.06066 -1.06066 
C 0.77937 -1.341951 0.397805 -1.5 0 -1.5 
C -0.397805 -1.5 -0.77937 -1.341951 -1.06066 -1.06066 
C -1.341951 -0.77937 -1.5 -0.397805 -1.5 0 
C -1.5 0.397805 -1.341951 0.77937 -1.06066 1.06066 
C -0.77937 1.341951 -0.397805 1.5 0 1.5 
z
" style="stroke: #1f77b4"/>
    </defs>
    <g clip-path="url(#p2da0e3cf88)">
     <use xlink:href="#md56cafb3f3" x="390.52346" y="182.935609" style="fill: #1f77b4; stroke: #1f77b4"/>
     <use xlink:href="#md56cafb3f3" x="389.76056" y="182.329708" style="fill: #1f77b4; stroke: #1f77b4"/>
     <use xlink:href="#md56cafb3f3" x="389.72546" y="183.947003" style="fill: #1f77b4; stroke: #1f77b4"/>
     <use xlink:href="#md56cafb3f3" x="390.424762" y="192.444787" style="fill: #1f77b4; stroke: #1f77b4"/>
     <use xlink:href="#md56cafb3f3" x="383.886907" y="185.398907" style="fill: #1f77b4; stroke: #1f77b4"/>
     <use xlink:href="#md56cafb3f3" x="385.862009" y="185.278229" style="fill: #1f77b4; stroke: #1f77b4"/>
     <use xlink:href="#md56cafb3f3" x="383.834302" y="203.262949" style="fill: #1f77b4; stroke: #1f77b4"/>
     <use xlink:href="#md56cafb3f3" x="383.350054" y="210.926593" style="fill: #1f77b4; stroke: #1f77b4"/>
     <use xlink:href="#md56cafb3f3" x="381.861319" y="207.688923" style="fill: #1f77b4; stroke: #1f77b4"/>
     <use xlink:href="#md56cafb3f3" x="380.329531" y="197.097176" style="fill: #1f77b4; stroke: #1f77b4"/>
     <use xlink:href="#md56cafb3f3" x="378.823752" y="205.119205" style="fill: #1f77b4; stroke: #1f77b4"/>
     <use xlink:href="#md56cafb3f3" x="377.869474" y="215.974209" style="fill: #1f77b4; stroke: #1f77b4"/>
     <use xlink:href="#md56cafb3f3" x="376.444552" y="210.522469" style="fill: #1f77b4; stroke: #1f77b4"/>
     <use xlink:href="#md56cafb3f3" x="371.334536" y="222.703337" style="fill: #1f77b4; stroke: #1f77b4"/>
     <use xlink:href="#md56cafb3f3" x="370.197756" y="211.153235" style="fill: #1f77b4; stroke: #1f77b4"/>
     <use xlink:href="#md56cafb3f3" x="366.668386" y="217.616597" style="fill: #1f77b4; stroke: #1f77b4"/>
     <use xlink:href="#md56cafb3f3" x="366.770493" y="215.560503" style="fill: #1f77b4; stroke: #1f77b4"/>
     <use xlink:href="#md56cafb3f3" x="365.743558" y="229.017733" style="fill: #1f77b4; stroke: #1f77b4"/>
     <use xlink:href="#md56cafb3f3" x="365.334424" y="229.475239" style="fill: #1f77b4; stroke: #1f77b4"/>
     <use xlink:href="#md56cafb3f3" x="365.013455" y="226.200499" style="fill: #1f77b4; stroke: #1f77b4"/>
     <use xlink:href="#md56cafb3f3" x="361.052933" y="239.600697" style="fill: #1f77b4; stroke: #1f77b4"/>
     <use xlink:href="#md56cafb3f3" x="359.99231" y="236.07137" style="fill: #1f77b4; stroke: #1f77b4"/>
     <use xlink:href="#md56cafb3f3" x="356.505994" y="231.492551" style="fill: #1f77b4; stroke: #1f77b4"/>
     <use xlink:href="#md56cafb3f3" x="357.308294" y="236.499333" style="fill: #1f77b4; stroke: #1f77b4"/>
     <use xlink:href="#md56cafb3f3" x="353.710966" y="247.890431" style="fill: #1f77b4; stroke: #1f77b4"/>
     <use xlink:href="#md56cafb3f3" x="357.471726" y="235.973048" style="fill: #1f77b4; stroke: #1f77b4"/>
     <use xlink:href="#md56cafb3f3" x="351.385168" y="242.148744" style="fill: #1f77b4; stroke: #1f77b4"/>
     <use xlink:href="#md56cafb3f3" x="349.281857" y="242.785099" style="fill: #1f77b4; stroke: #1f77b4"/>
     <use xlink:href="#md56cafb3f3" x="348.984257" y="231.89371" style="fill: #1f77b4; stroke: #1f77b4"/>
     <use xlink:href="#md56cafb3f3" x="348.362741" y="259.895073" style="fill: #1f77b4; stroke: #1f77b4"/>
     <use xlink:href="#md56cafb3f3" x="347.680636" y="247.022414" style="fill: #1f77b4; stroke: #1f77b4"/>
     <use xlink:href="#md56cafb3f3" x="343.844515" y="254.398392" style="fill: #1f77b4; stroke: #1f77b4"/>
     <use xlink:href="#md56cafb3f3" x="346.458423" y="248.995813" style="fill: #1f77b4; stroke: #1f77b4"/>
     <use xlink:href="#md56cafb3f3" x="343.021579" y="250.410304" style="fill: #1f77b4; stroke: #1f77b4"/>
     <use xlink:href="#md56cafb3f3" x="341.605685" y="249.382713" style="fill: #1f77b4; stroke: #1f77b4"/>
     <use xlink:href="#md56cafb3f3" x="339.729251" y="245.764987" style="fill: #1f77b4; stroke: #1f77b4"/>
     <use xlink:href="#md56cafb3f3" x="337.988059" y="248.357176" style="fill: #1f77b4; stroke: #1f77b4"/>
     <use xlink:href="#md56cafb3f3" x="336.912757" y="255.813682" style="fill: #1f77b4; stroke: #1f77b4"/>
     <use xlink:href="#md56cafb3f3" x="336.113006" y="253.509843" style="fill: #1f77b4; stroke: #1f77b4"/>
     <use xlink:href="#md56cafb3f3" x="331.439793" y="255.070791" style="fill: #1f77b4; stroke: #1f77b4"/>
     <use xlink:href="#md56cafb3f3" x="333.189707" y="256.217235" style="fill: #1f77b4; stroke: #1f77b4"/>
     <use xlink:href="#md56cafb3f3" x="330.688378" y="271.203704" style="fill: #1f77b4; stroke: #1f77b4"/>
     <use xlink:href="#md56cafb3f3" x="330.14265" y="271.500267" style="fill: #1f77b4; stroke: #1f77b4"/>
     <use xlink:href="#md56cafb3f3" x="328.645563" y="267.512065" style="fill: #1f77b4; stroke: #1f77b4"/>
     <use xlink:href="#md56cafb3f3" x="322.618795" y="270.604304" style="fill: #1f77b4; stroke: #1f77b4"/>
     <use xlink:href="#md56cafb3f3" x="324.088122" y="261.767412" style="fill: #1f77b4; stroke: #1f77b4"/>
     <use xlink:href="#md56cafb3f3" x="325.39939" y="259.040743" style="fill: #1f77b4; stroke: #1f77b4"/>
     <use xlink:href="#md56cafb3f3" x="318.632355" y="268.31404" style="fill: #1f77b4; stroke: #1f77b4"/>
     <use xlink:href="#md56cafb3f3" x="316.830942" y="273.320821" style="fill: #1f77b4; stroke: #1f77b4"/>
     <use xlink:href="#md56cafb3f3" x="318.320782" y="271.218418" style="fill: #1f77b4; stroke: #1f77b4"/>
     <use xlink:href="#md56cafb3f3" x="315.688542" y="275.317831" style="fill: #1f77b4; stroke: #1f77b4"/>
     <use xlink:href="#md56cafb3f3" x="310.714074" y="269.663401" style="fill: #1f77b4; stroke: #1f77b4"/>
     <use xlink:href="#md56cafb3f3" x="312.802093" y="276.665938" style="fill: #1f77b4; stroke: #1f77b4"/>
     <use xlink:href="#md56cafb3f3" x="312.219668" y="270.76479" style="fill: #1f77b4; stroke: #1f77b4"/>
     <use xlink:href="#md56cafb3f3" x="311.49064" y="270.546817" style="fill: #1f77b4; stroke: #1f77b4"/>
     <use xlink:href="#md56cafb3f3" x="308.715388" y="271.083596" style="fill: #1f77b4; stroke: #1f77b4"/>
     <use xlink:href="#md56cafb3f3" x="306.584224" y="273.66107" style="fill: #1f77b4; stroke: #1f77b4"/>
     <use xlink:href="#md56cafb3f3" x="304.315483" y="270.703539" style="fill: #1f77b4; stroke: #1f77b4"/>
     <use xlink:href="#md56cafb3f3" x="303.670751" y="280.765693" style="fill: #1f77b4; stroke: #1f77b4"/>
     <use xlink:href="#md56cafb3f3" x="301.218556" y="284.433378" style="fill: #1f77b4; stroke: #1f77b4"/>
     <use xlink:href="#md56cafb3f3" x="298.637292" y="283.280547" style="fill: #1f77b4; stroke: #1f77b4"/>
     <use xlink:href="#md56cafb3f3" x="296.752965" y="284.114345" style="fill: #1f77b4; stroke: #1f77b4"/>
     <use xlink:href="#md56cafb3f3" x="295.411142" y="284.740435" style="fill: #1f77b4; stroke: #1f77b4"/>
     <use xlink:href="#md56cafb3f3" x="295.553569" y="274.389246" style="fill: #1f77b4; stroke: #1f77b4"/>
     <use xlink:href="#md56cafb3f3" x="292.584329" y="281.452008" style="fill: #1f77b4; stroke: #1f77b4"/>
     <use xlink:href="#md56cafb3f3" x="291.876644" y="274.041355" style="fill: #1f77b4; stroke: #1f77b4"/>
     <use xlink:href="#md56cafb3f3" x="290.286662" y="285.747837" style="fill: #1f77b4; stroke: #1f77b4"/>
     <use xlink:href="#md56cafb3f3" x="288.638824" y="285.457205" style="fill: #1f77b4; stroke: #1f77b4"/>
     <use xlink:href="#md56cafb3f3" x="287.1289" y="287.516949" style="fill: #1f77b4; stroke: #1f77b4"/>
     <use xlink:href="#md56cafb3f3" x="286.20269" y="278.141224" style="fill: #1f77b4; stroke: #1f77b4"/>
     <use xlink:href="#md56cafb3f3" x="282.232802" y="275.561583" style="fill: #1f77b4; stroke: #1f77b4"/>
     <use xlink:href="#md56cafb3f3" x="283.21177" y="275.436228" style="fill: #1f77b4; stroke: #1f77b4"/>
     <use xlink:href="#md56cafb3f3" x="280.578884" y="294.119354" style="fill: #1f77b4; stroke: #1f77b4"/>
     <use xlink:href="#md56cafb3f3" x="280.482673" y="290.425319" style="fill: #1f77b4; stroke: #1f77b4"/>
     <use xlink:href="#md56cafb3f3" x="275.553378" y="281.667472" style="fill: #1f77b4; stroke: #1f77b4"/>
     <use xlink:href="#md56cafb3f3" x="276.968412" y="281.42623" style="fill: #1f77b4; stroke: #1f77b4"/>
     <use xlink:href="#md56cafb3f3" x="272.450524" y="285.922467" style="fill: #1f77b4; stroke: #1f77b4"/>
     <use xlink:href="#md56cafb3f3" x="272.694168" y="295.776" style="fill: #1f77b4; stroke: #1f77b4"/>
     <use xlink:href="#md56cafb3f3" x="271.898072" y="292.520537" style="fill: #1f77b4; stroke: #1f77b4"/>
     <use xlink:href="#md56cafb3f3" x="270.251616" y="291.340901" style="fill: #1f77b4; stroke: #1f77b4"/>
     <use xlink:href="#md56cafb3f3" x="268.185647" y="288.602255" style="fill: #1f77b4; stroke: #1f77b4"/>
     <use xlink:href="#md56cafb3f3" x="265.526812" y="287.28312" style="fill: #1f77b4; stroke: #1f77b4"/>
     <use xlink:href="#md56cafb3f3" x="264.451879" y="288.505416" style="fill: #1f77b4; stroke: #1f77b4"/>
     <use xlink:href="#md56cafb3f3" x="263.11936" y="282.168093" style="fill: #1f77b4; stroke: #1f77b4"/>
     <use xlink:href="#md56cafb3f3" x="258.707909" y="290.975102" style="fill: #1f77b4; stroke: #1f77b4"/>
     <use xlink:href="#md56cafb3f3" x="256.990976" y="290.428513" style="fill: #1f77b4; stroke: #1f77b4"/>
     <use xlink:href="#md56cafb3f3" x="254.899211" y="290.602915" style="fill: #1f77b4; stroke: #1f77b4"/>
     <use xlink:href="#md56cafb3f3" x="258.91286" y="272.289238" style="fill: #1f77b4; stroke: #1f77b4"/>
     <use xlink:href="#md56cafb3f3" x="253.9383" y="271.637142" style="fill: #1f77b4; stroke: #1f77b4"/>
     <use xlink:href="#md56cafb3f3" x="250.47689" y="283.759724" style="fill: #1f77b4; stroke: #1f77b4"/>
     <use xlink:href="#md56cafb3f3" x="253.060088" y="287.807809" style="fill: #1f77b4; stroke: #1f77b4"/>
     <use xlink:href="#md56cafb3f3" x="252.349608" y="289.841318" style="fill: #1f77b4; stroke: #1f77b4"/>
     <use xlink:href="#md56cafb3f3" x="248.277367" y="281.293233" style="fill: #1f77b4; stroke: #1f77b4"/>
     <use xlink:href="#md56cafb3f3" x="247.381068" y="284.770434" style="fill: #1f77b4; stroke: #1f77b4"/>
     <use xlink:href="#md56cafb3f3" x="244.564021" y="286.816376" style="fill: #1f77b4; stroke: #1f77b4"/>
     <use xlink:href="#md56cafb3f3" x="247.002212" y="274.755159" style="fill: #1f77b4; stroke: #1f77b4"/>
     <use xlink:href="#md56cafb3f3" x="239.096339" y="276.6486" style="fill: #1f77b4; stroke: #1f77b4"/>
     <use xlink:href="#md56cafb3f3" x="235.732459" y="295.077252" style="fill: #1f77b4; stroke: #1f77b4"/>
     <use xlink:href="#md56cafb3f3" x="237.02822" y="290.117008" style="fill: #1f77b4; stroke: #1f77b4"/>
     <use xlink:href="#md56cafb3f3" x="234.825504" y="282.193187" style="fill: #1f77b4; stroke: #1f77b4"/>
     <use xlink:href="#md56cafb3f3" x="234.658263" y="288.631113" style="fill: #1f77b4; stroke: #1f77b4"/>
     <use xlink:href="#md56cafb3f3" x="231.930303" y="270.245235" style="fill: #1f77b4; stroke: #1f77b4"/>
     <use xlink:href="#md56cafb3f3" x="232.072884" y="276.764602" style="fill: #1f77b4; stroke: #1f77b4"/>
     <use xlink:href="#md56cafb3f3" x="227.769067" y="264.828626" style="fill: #1f77b4; stroke: #1f77b4"/>
     <use xlink:href="#md56cafb3f3" x="228.768856" y="272.621047" style="fill: #1f77b4; stroke: #1f77b4"/>
     <use xlink:href="#md56cafb3f3" x="224.738502" y="272.041722" style="fill: #1f77b4; stroke: #1f77b4"/>
     <use xlink:href="#md56cafb3f3" x="225.567672" y="270.203944" style="fill: #1f77b4; stroke: #1f77b4"/>
     <use xlink:href="#md56cafb3f3" x="222.647873" y="273.468076" style="fill: #1f77b4; stroke: #1f77b4"/>
     <use xlink:href="#md56cafb3f3" x="221.872505" y="272.265741" style="fill: #1f77b4; stroke: #1f77b4"/>
     <use xlink:href="#md56cafb3f3" x="220.677378" y="273.111744" style="fill: #1f77b4; stroke: #1f77b4"/>
     <use xlink:href="#md56cafb3f3" x="218.675436" y="268.007325" style="fill: #1f77b4; stroke: #1f77b4"/>
     <use xlink:href="#md56cafb3f3" x="218.149025" y="263.469455" style="fill: #1f77b4; stroke: #1f77b4"/>
     <use xlink:href="#md56cafb3f3" x="211.371732" y="275.376687" style="fill: #1f77b4; stroke: #1f77b4"/>
     <use xlink:href="#md56cafb3f3" x="212.503016" y="265.997997" style="fill: #1f77b4; stroke: #1f77b4"/>
     <use xlink:href="#md56cafb3f3" x="210.464992" y="272.521926" style="fill: #1f77b4; stroke: #1f77b4"/>
     <use xlink:href="#md56cafb3f3" x="205.997743" y="271.71345" style="fill: #1f77b4; stroke: #1f77b4"/>
     <use xlink:href="#md56cafb3f3" x="206.361244" y="270.998505" style="fill: #1f77b4; stroke: #1f77b4"/>
     <use xlink:href="#md56cafb3f3" x="205.473665" y="264.581338" style="fill: #1f77b4; stroke: #1f77b4"/>
     <use xlink:href="#md56cafb3f3" x="201.769378" y="258.827674" style="fill: #1f77b4; stroke: #1f77b4"/>
     <use xlink:href="#md56cafb3f3" x="203.787595" y="262.234841" style="fill: #1f77b4; stroke: #1f77b4"/>
     <use xlink:href="#md56cafb3f3" x="204.769665" y="262.232901" style="fill: #1f77b4; stroke: #1f77b4"/>
     <use xlink:href="#md56cafb3f3" x="199.460256" y="256.732799" style="fill: #1f77b4; stroke: #1f77b4"/>
     <use xlink:href="#md56cafb3f3" x="198.679268" y="275.937077" style="fill: #1f77b4; stroke: #1f77b4"/>
     <use xlink:href="#md56cafb3f3" x="196.153065" y="250.841461" style="fill: #1f77b4; stroke: #1f77b4"/>
     <use xlink:href="#md56cafb3f3" x="196.679292" y="248.935131" style="fill: #1f77b4; stroke: #1f77b4"/>
     <use xlink:href="#md56cafb3f3" x="190.823235" y="255.04353" style="fill: #1f77b4; stroke: #1f77b4"/>
     <use xlink:href="#md56cafb3f3" x="191.805857" y="254.316609" style="fill: #1f77b4; stroke: #1f77b4"/>
     <use xlink:href="#md56cafb3f3" x="188.800841" y="248.524392" style="fill: #1f77b4; stroke: #1f77b4"/>
     <use xlink:href="#md56cafb3f3" x="186.824972" y="238.567632" style="fill: #1f77b4; stroke: #1f77b4"/>
     <use xlink:href="#md56cafb3f3" x="185.376987" y="246.690948" style="fill: #1f77b4; stroke: #1f77b4"/>
     <use xlink:href="#md56cafb3f3" x="181.89322" y="250.73698" style="fill: #1f77b4; stroke: #1f77b4"/>
     <use xlink:href="#md56cafb3f3" x="185.105459" y="240.387958" style="fill: #1f77b4; stroke: #1f77b4"/>
     <use xlink:href="#md56cafb3f3" x="179.319695" y="240.914015" style="fill: #1f77b4; stroke: #1f77b4"/>
     <use xlink:href="#md56cafb3f3" x="178.994764" y="227.312724" style="fill: #1f77b4; stroke: #1f77b4"/>
     <use xlink:href="#md56cafb3f3" x="179.956658" y="236.161479" style="fill: #1f77b4; stroke: #1f77b4"/>
     <use xlink:href="#md56cafb3f3" x="176.792908" y="230.531117" style="fill: #1f77b4; stroke: #1f77b4"/>
     <use xlink:href="#md56cafb3f3" x="173.829349" y="241.562005" style="fill: #1f77b4; stroke: #1f77b4"/>
     <use xlink:href="#md56cafb3f3" x="174.496162" y="223.644126" style="fill: #1f77b4; stroke: #1f77b4"/>
     <use xlink:href="#md56cafb3f3" x="174.036327" y="232.235898" style="fill: #1f77b4; stroke: #1f77b4"/>
     <use xlink:href="#md56cafb3f3" x="167.020058" y="226.410716" style="fill: #1f77b4; stroke: #1f77b4"/>
     <use xlink:href="#md56cafb3f3" x="165.109537" y="230.967977" style="fill: #1f77b4; stroke: #1f77b4"/>
     <use xlink:href="#md56cafb3f3" x="165.906156" y="221.275956" style="fill: #1f77b4; stroke: #1f77b4"/>
     <use xlink:href="#md56cafb3f3" x="161.542641" y="211.689216" style="fill: #1f77b4; stroke: #1f77b4"/>
     <use xlink:href="#md56cafb3f3" x="164.834877" y="212.321693" style="fill: #1f77b4; stroke: #1f77b4"/>
     <use xlink:href="#md56cafb3f3" x="160.677573" y="211.315546" style="fill: #1f77b4; stroke: #1f77b4"/>
     <use xlink:href="#md56cafb3f3" x="159.539195" y="219.192944" style="fill: #1f77b4; stroke: #1f77b4"/>
     <use xlink:href="#md56cafb3f3" x="156.53206" y="212.794483" style="fill: #1f77b4; stroke: #1f77b4"/>
     <use xlink:href="#md56cafb3f3" x="152.518258" y="210.333923" style="fill: #1f77b4; stroke: #1f77b4"/>
     <use xlink:href="#md56cafb3f3" x="155.895865" y="213.695692" style="fill: #1f77b4; stroke: #1f77b4"/>
     <use xlink:href="#md56cafb3f3" x="155.209982" y="200.824631" style="fill: #1f77b4; stroke: #1f77b4"/>
     <use xlink:href="#md56cafb3f3" x="149.061669" y="210.979518" style="fill: #1f77b4; stroke: #1f77b4"/>
     <use xlink:href="#md56cafb3f3" x="151.586029" y="203.855162" style="fill: #1f77b4; stroke: #1f77b4"/>
     <use xlink:href="#md56cafb3f3" x="150.104818" y="205.65279" style="fill: #1f77b4; stroke: #1f77b4"/>
     <use xlink:href="#md56cafb3f3" x="145.082414" y="194.591447" style="fill: #1f77b4; stroke: #1f77b4"/>
     <use xlink:href="#md56cafb3f3" x="142.33913" y="184.662518" style="fill: #1f77b4; stroke: #1f77b4"/>
     <use xlink:href="#md56cafb3f3" x="144.48829" y="190.600622" style="fill: #1f77b4; stroke: #1f77b4"/>
     <use xlink:href="#md56cafb3f3" x="142.880067" y="188.801283" style="fill: #1f77b4; stroke: #1f77b4"/>
     <use xlink:href="#md56cafb3f3" x="140.415803" y="188.223898" style="fill: #1f77b4; stroke: #1f77b4"/>
     <use xlink:href="#md56cafb3f3" x="143.080565" y="179.42841" style="fill: #1f77b4; stroke: #1f77b4"/>
     <use xlink:href="#md56cafb3f3" x="134.219062" y="183.958409" style="fill: #1f77b4; stroke: #1f77b4"/>
     <use xlink:href="#md56cafb3f3" x="134.3368" y="181.094866" style="fill: #1f77b4; stroke: #1f77b4"/>
     <use xlink:href="#md56cafb3f3" x="135.417629" y="176.956101" style="fill: #1f77b4; stroke: #1f77b4"/>
     <use xlink:href="#md56cafb3f3" x="133.290733" y="171.599717" style="fill: #1f77b4; stroke: #1f77b4"/>
     <use xlink:href="#md56cafb3f3" x="129.842865" y="184.876044" style="fill: #1f77b4; stroke: #1f77b4"/>
     <use xlink:href="#md56cafb3f3" x="129.390247" y="162.587168" style="fill: #1f77b4; stroke: #1f77b4"/>
     <use xlink:href="#md56cafb3f3" x="127.384866" y="177.814081" style="fill: #1f77b4; stroke: #1f77b4"/>
     <use xlink:href="#md56cafb3f3" x="126.395058" y="172.882694" style="fill: #1f77b4; stroke: #1f77b4"/>
     <use xlink:href="#md56cafb3f3" x="121.953543" y="163.427354" style="fill: #1f77b4; stroke: #1f77b4"/>
     <use xlink:href="#md56cafb3f3" x="124.270281" y="152.764204" style="fill: #1f77b4; stroke: #1f77b4"/>
     <use xlink:href="#md56cafb3f3" x="121.572722" y="158.826407" style="fill: #1f77b4; stroke: #1f77b4"/>
     <use xlink:href="#md56cafb3f3" x="119.085735" y="158.031733" style="fill: #1f77b4; stroke: #1f77b4"/>
     <use xlink:href="#md56cafb3f3" x="116.308978" y="153.556369" style="fill: #1f77b4; stroke: #1f77b4"/>
     <use xlink:href="#md56cafb3f3" x="113.661382" y="150.828788" style="fill: #1f77b4; stroke: #1f77b4"/>
     <use xlink:href="#md56cafb3f3" x="113.094374" y="151.199378" style="fill: #1f77b4; stroke: #1f77b4"/>
     <use xlink:href="#md56cafb3f3" x="110.279753" y="148.917782" style="fill: #1f77b4; stroke: #1f77b4"/>
     <use xlink:href="#md56cafb3f3" x="111.300884" y="133.256633" style="fill: #1f77b4; stroke: #1f77b4"/>
     <use xlink:href="#md56cafb3f3" x="107.893582" y="146.680784" style="fill: #1f77b4; stroke: #1f77b4"/>
     <use xlink:href="#md56cafb3f3" x="109.691126" y="125.168106" style="fill: #1f77b4; stroke: #1f77b4"/>
     <use xlink:href="#md56cafb3f3" x="106.215589" y="131.747926" style="fill: #1f77b4; stroke: #1f77b4"/>
     <use xlink:href="#md56cafb3f3" x="102.016336" y="133.942834" style="fill: #1f77b4; stroke: #1f77b4"/>
     <use xlink:href="#md56cafb3f3" x="102.837552" y="117.867523" style="fill: #1f77b4; stroke: #1f77b4"/>
     <use xlink:href="#md56cafb3f3" x="103.262747" y="112.332517" style="fill: #1f77b4; stroke: #1f77b4"/>
     <use xlink:href="#md56cafb3f3" x="101.422334" y="106.74413" style="fill: #1f77b4; stroke: #1f77b4"/>
     <use xlink:href="#md56cafb3f3" x="100.665852" y="113.63922" style="fill: #1f77b4; stroke: #1f77b4"/>
     <use xlink:href="#md56cafb3f3" x="95.884544" y="115.147014" style="fill: #1f77b4; stroke: #1f77b4"/>
     <use xlink:href="#md56cafb3f3" x="92.914536" y="102.136454" style="fill: #1f77b4; stroke: #1f77b4"/>
     <use xlink:href="#md56cafb3f3" x="94.06099" y="103.148646" style="fill: #1f77b4; stroke: #1f77b4"/>
     <use xlink:href="#md56cafb3f3" x="91.624488" y="101.410787" style="fill: #1f77b4; stroke: #1f77b4"/>
     <use xlink:href="#md56cafb3f3" x="88.105405" y="97.319359" style="fill: #1f77b4; stroke: #1f77b4"/>
     <use xlink:href="#md56cafb3f3" x="88.354147" y="88.611585" style="fill: #1f77b4; stroke: #1f77b4"/>
     <use xlink:href="#md56cafb3f3" x="92.27963" y="78.50084" style="fill: #1f77b4; stroke: #1f77b4"/>
     <use xlink:href="#md56cafb3f3" x="83.334845" y="82.17286" style="fill: #1f77b4; stroke: #1f77b4"/>
     <use xlink:href="#md56cafb3f3" x="85.494016" y="87.848734" style="fill: #1f77b4; stroke: #1f77b4"/>
     <use xlink:href="#md56cafb3f3" x="82.05622" y="83.495987" style="fill: #1f77b4; stroke: #1f77b4"/>
     <use xlink:href="#md56cafb3f3" x="78.661724" y="74.815133" style="fill: #1f77b4; stroke: #1f77b4"/>
     <use xlink:href="#md56cafb3f3" x="81.058213" y="67.497555" style="fill: #1f77b4; stroke: #1f77b4"/>
     <use xlink:href="#md56cafb3f3" x="77.95846" y="59.83893" style="fill: #1f77b4; stroke: #1f77b4"/>
     <use xlink:href="#md56cafb3f3" x="77.129781" y="64.113657" style="fill: #1f77b4; stroke: #1f77b4"/>
     <use xlink:href="#md56cafb3f3" x="75.228473" y="57.031961" style="fill: #1f77b4; stroke: #1f77b4"/>
     <use xlink:href="#md56cafb3f3" x="69.98429" y="53.856" style="fill: #1f77b4; stroke: #1f77b4"/>
    </g>
   </g>
   <g id="line2d_13">
    <path d="M 394.638835 187.437066 
L 389.356733 195.278734 
L 384.362079 202.306483 
L 379.347882 208.993548 
L 374.317112 215.342317 
L 369.272713 221.356426 
L 364.217538 227.040854 
L 359.15428 232.401984 
L 354.085381 237.44761 
L 349.012943 242.186863 
L 343.938623 246.630044 
L 338.863538 250.788346 
L 333.788177 254.673453 
L 328.395073 258.515079 
L 323.000307 262.074647 
L 317.601875 265.363648 
L 312.196996 268.390982 
L 306.782286 271.162172 
L 301.354004 273.678777 
L 296.229223 275.812438 
L 291.086054 277.712599 
L 286.245318 279.274276 
L 281.384453 280.61398 
L 276.502314 281.721052 
L 271.925967 282.534181 
L 267.330646 283.12471 
L 262.716845 283.48283 
L 258.416848 283.598972 
L 254.102729 283.499393 
L 249.775755 283.177518 
L 245.437391 282.62744 
L 241.089261 281.84398 
L 236.733103 280.822713 
L 232.370735 279.559961 
L 228.00402 278.052772 
L 223.63484 276.298879 
L 219.265068 274.296643 
L 214.896552 272.045001 
L 210.531104 269.543399 
L 206.170481 266.791733 
L 201.816387 263.790288 
L 197.470463 260.539688 
L 192.80118 256.761443 
L 188.145086 252.696728 
L 183.503985 248.347248 
L 178.879597 243.714918 
L 174.273566 238.801828 
L 169.360688 233.228774 
L 164.472534 227.338846 
L 159.610869 221.135024 
L 154.777384 214.62037 
L 149.654556 207.332321 
L 144.567531 199.698017 
L 139.51813 191.72135 
L 134.50811 183.406245 
L 129.230016 174.205036 
L 124.000274 164.630985 
L 118.820798 154.688879 
L 113.693452 144.383527 
L 108.323329 133.081424 
L 103.01578 121.383271 
L 97.77285 109.294871 
L 92.596541 96.822068 
L 87.207094 83.245809 
L 81.896305 69.254794 
L 76.939585 55.623951 
L 76.939585 55.623951 
" clip-path="url(#p2da0e3cf88)" style="fill: none; stroke: #d62728; stroke-width: 1.5; stroke-linecap: square"/>
   </g>
   <g id="patch_3">
    <path d="M 53.751563 307.872 
L 53.751563 41.76 
" style="fill: none; stroke: #000000; stroke-width: 0.8; stroke-linejoin: miter; stroke-linecap: square"/>
   </g>
   <g id="patch_4">
    <path d="M 410.871562 307.872 
L 410.871562 41.76 
" style="fill: none; stroke: #000000; stroke-width: 0.8; stroke-linejoin: miter; stroke-linecap: square"/>
   </g>
   <g id="patch_5">
    <path d="M 53.751563 307.872 
L 410.871563 307.872 
" style="fill: none; stroke: #000000; stroke-width: 0.8; stroke-linejoin: miter; stroke-linecap: square"/>
   </g>
   <g id="patch_6">
    <path d="M 53.751563 41.76 
L 410.871563 41.76 
" style="fill: none; stroke: #000000; stroke-width: 0.8; stroke-linejoin: miter; stroke-linecap: square"/>
   </g>
   <g id="text_14">
    <g id="patch_7">
     <path d="M 428.727562 79.941538 
L 588.835375 79.941538 
Q 592.835375 79.941538 592.835375 75.941538 
L 592.835375 55.0656 
Q 592.835375 51.0656 588.835375 51.0656 
L 428.727562 51.0656 
Q 424.727562 51.0656 424.727562 55.0656 
L 424.727562 75.941538 
Q 424.727562 79.941538 428.727562 79.941538 
z
" style="fill: #ffffff; opacity: 0.5; stroke: #000000; stroke-linejoin: miter"/>
    </g>
    <!-- Warning: fit failed. lmfit was not -->
    <g transform="translate(428.727562 62.664038) scale(0.1 -0.1)">
     <defs>
      <path id="DejaVuSans-57" d="M 213 4666 
L 850 4666 
L 1831 722 
L 2809 4666 
L 3519 4666 
L 4500 722 
L 5478 4666 
L 6119 4666 
L 4947 0 
L 4153 0 
L 3169 4050 
L 2175 0 
L 1381 0 
L 213 4666 
z
" transform="scale(0.015625)"/>
      <path id="DejaVuSans-61" d="M 2194 1759 
Q 1497 1759 1228 1600 
Q 959 1441 959 1056 
Q 959 750 1161 570 
Q 1363 391 1709 391 
Q 2188 391 2477 730 
Q 2766 1069 2766 1631 
L 2766 1759 
L 2194 1759 
z
M 3341 1997 
L 3341 0 
L 2766 0 
L 2766 531 
Q 2569 213 2275 61 
Q 1981 -91 1556 -91 
Q 1019 -91 701 211 
Q 384 513 384 1019 
Q 384 1609 779 1909 
Q 1175 2209 1959 2209 
L 2766 2209 
L 2766 2266 
Q 2766 2663 2505 2880 
Q 2244 3097 1772 3097 
Q 1472 3097 1187 3025 
Q 903 2953 641 2809 
L 641 3341 
Q 956 3463 1253 3523 
Q 1550 3584 1831 3584 
Q 2591 3584 2966 3190 
Q 3341 2797 3341 1997 
z
" transform="scale(0.015625)"/>
      <path id="DejaVuSans-72" d="M 2631 2963 
Q 2534 3019 2420 3045 
Q 2306 3072 2169 3072 
Q 1681 3072 1420 2755 
Q 1159 2438 1159 1844 
L 1159 0 
L 581 0 
L 581 3500 
L 1159 3500 
L 1159 2956 
Q 1341 3275 1631 3429 
Q 1922 3584 2338 3584 
Q 2397 3584 2469 3576 
Q 2541 3569 2628 3553 
L 2631 2963 
z
" transform="scale(0.015625)"/>
      <path id="DejaVuSans-6e" d="M 3513 2113 
L 3513 0 
L 2938 0 
L 2938 2094 
Q 2938 2591 2744 2837 
Q 2550 3084 2163 3084 
Q 1697 3084 1428 2787 
Q 1159 2491 1159 1978 
L 1159 0 
L 581 0 
L 581 3500 
L 1159 3500 
L 1159 2956 
Q 1366 3272 1645 3428 
Q 1925 3584 2291 3584 
Q 2894 3584 3203 3211 
Q 3513 2838 3513 2113 
z
" transform="scale(0.015625)"/>
      <path id="DejaVuSans-69" d="M 603 3500 
L 1178 3500 
L 1178 0 
L 603 0 
L 603 3500 
z
M 603 4863 
L 1178 4863 
L 1178 4134 
L 603 4134 
L 603 4863 
z
" transform="scale(0.015625)"/>
      <path id="DejaVuSans-67" d="M 2906 1791 
Q 2906 2416 2648 2759 
Q 2391 3103 1925 3103 
Q 1463 3103 1205 2759 
Q 947 2416 947 1791 
Q 947 1169 1205 825 
Q 1463 481 1925 481 
Q 2391 481 2648 825 
Q 2906 1169 2906 1791 
z
M 3481 434 
Q 3481 -459 3084 -895 
Q 2688 -1331 1869 -1331 
Q 1566 -1331 1297 -1286 
Q 1028 -1241 775 -1147 
L 775 -588 
Q 1028 -725 1275 -790 
Q 1522 -856 1778 -856 
Q 2344 -856 2625 -561 
Q 2906 -266 2906 331 
L 2906 616 
Q 2728 306 2450 153 
Q 2172 0 1784 0 
Q 1141 0 747 490 
Q 353 981 353 1791 
Q 353 2603 747 3093 
Q 1141 3584 1784 3584 
Q 2172 3584 2450 3431 
Q 2728 3278 2906 2969 
L 2906 3500 
L 3481 3500 
L 3481 434 
z
" transform="scale(0.015625)"/>
      <path id="DejaVuSans-3a" d="M 750 794 
L 1409 794 
L 1409 0 
L 750 0 
L 750 794 
z
M 750 3309 
L 1409 3309 
L 1409 2516 
L 750 2516 
L 750 3309 
z
" transform="scale(0.015625)"/>
      <path id="DejaVuSans-66" d="M 2375 4863 
L 2375 4384 
L 1825 4384 
Q 1516 4384 1395 4259 
Q 1275 4134 1275 3809 
L 1275 3500 
L 2222 3500 
L 2222 3053 
L 1275 3053 
L 1275 0 
L 697 0 
L 697 3053 
L 147 3053 
L 147 3500 
L 697 3500 
L 697 3744 
Q 697 4328 969 4595 
Q 1241 4863 1831 4863 
L 2375 4863 
z
" transform="scale(0.015625)"/>
      <path id="DejaVuSans-74" d="M 1172 4494 
L 1172 3500 
L 2356 3500 
L 2356 3053 
L 1172 3053 
L 1172 1153 
Q 1172 725 1289 603 
Q 1406 481 1766 481 
L 2356 481 
L 2356 0 
L 1766 0 
Q 1100 0 847 248 
Q 594 497 594 1153 
L 594 3053 
L 172 3053 
L 172 3500 
L 594 3500 
L 594 4494 
L 1172 4494 
z
" transform="scale(0.015625)"/>
      <path id="DejaVuSans-6c" d="M 603 4863 
L 1178 4863 
L 1178 0 
L 603 0 
L 603 4863 
z
" transform="scale(0.015625)"/>
      <path id="DejaVuSans-64" d="M 2906 2969 
L 2906 4863 
L 3481 4863 
L 3481 0 
L 2906 0 
L 2906 525 
Q 2725 213 2448 61 
Q 2172 -91 1784 -91 
Q 1150 -91 751 415 
Q 353 922 353 1747 
Q 353 2572 751 3078 
Q 1150 3584 1784 3584 
Q 2172 3584 2448 3432 
Q 2725 3281 2906 2969 
z
M 947 1747 
Q 947 1113 1208 752 
Q 1469 391 1925 391 
Q 2381 391 2643 752 
Q 2906 1113 2906 1747 
Q 2906 2381 2643 2742 
Q 2381 3103 1925 3103 
Q 1469 3103 1208 2742 
Q 947 2381 947 1747 
z
" transform="scale(0.015625)"/>
      <path id="DejaVuSans-77" d="M 269 3500 
L 844 3500 
L 1563 769 
L 2278 3500 
L 2956 3500 
L 3675 769 
L 4391 3500 
L 4966 3500 
L 4050 0 
L 3372 0 
L 2619 2869 
L 1863 0 
L 1184 0 
L 269 3500 
z
" transform="scale(0.015625)"/>
      <path id="DejaVuSans-73" d="M 2834 3397 
L 2834 2853 
Q 2591 2978 2328 3040 
Q 2066 3103 1784 3103 
Q 1356 3103 1142 2972 
Q 928 2841 928 2578 
Q 928 2378 1081 2264 
Q 1234 2150 1697 2047 
L 1894 2003 
Q 2506 1872 2764 1633 
Q 3022 1394 3022 966 
Q 3022 478 2636 193 
Q 2250 -91 1575 -91 
Q 1294 -91 989 -36 
Q 684 19 347 128 
L 347 722 
Q 666 556 975 473 
Q 1284 391 1588 391 
Q 1994 391 2212 530 
Q 2431 669 2431 922 
Q 2431 1156 2273 1281 
Q 2116 1406 1581 1522 
L 1381 1569 
Q 847 1681 609 1914 
Q 372 2147 372 2553 
Q 372 3047 722 3315 
Q 1072 3584 1716 3584 
Q 2034 3584 2315 3537 
Q 2597 3491 2834 3397 
z
" transform="scale(0.015625)"/>
      <path id="DejaVuSans-6f" d="M 1959 3097 
Q 1497 3097 1228 2736 
Q 959 2375 959 1747 
Q 959 1119 1226 758 
Q 1494 397 1959 397 
Q 2419 397 2687 759 
Q 2956 1122 2956 1747 
Q 2956 2369 2687 2733 
Q 2419 3097 1959 3097 
z
M 1959 3584 
Q 2709 3584 3137 3096 
Q 3566 2609 3566 1747 
Q 3566 888 3137 398 
Q 2709 -91 1959 -91 
Q 1206 -91 779 398 
Q 353 888 353 1747 
Q 353 2609 779 3096 
Q 1206 3584 1959 3584 
z
" transform="scale(0.015625)"/>
     </defs>
     <use xlink:href="#DejaVuSans-57"/>
     <use xlink:href="#DejaVuSans-61" x="92.501953"/>
     <use xlink:href="#DejaVuSans-72" x="153.78125"/>
     <use xlink:href="#DejaVuSans-6e" x="193.144531"/>
     <use xlink:href="#DejaVuSans-69" x="256.523438"/>
     <use xlink:href="#DejaVuSans-6e" x="284.306641"/>
     <use xlink:href="#DejaVuSans-67" x="347.685547"/>
     <use xlink:href="#DejaVuSans-3a" x="411.162109"/>
     <use xlink:href="#DejaVuSans-20" x="444.853516"/>
     <use xlink:href="#DejaVuSans-66" x="476.640625"/>
     <use xlink:href="#DejaVuSans-69" x="511.845703"/>
     <use xlink:href="#DejaVuSans-74" x="539.628906"/>
     <use xlink:href="#DejaVuSans-20" x="578.837891"/>
     <use xlink:href="#DejaVuSans-66" x="610.625"/>
     <use xlink:href="#DejaVuSans-61" x="645.830078"/>
     <use xlink:href="#DejaVuSans-69" x="707.109375"/>
     <use xlink:href="#DejaVuSans-6c" x="734.892578"/>
     <use xlink:href="#DejaVuSans-65" x="762.675781"/>
     <use xlink:href="#DejaVuSans-64" x="824.199219"/>
     <use xlink:href="#DejaVuSans-2e" x="887.675781"/>
     <use xlink:href="#DejaVuSans-20" x="919.462891"/>
     <use xlink:href="#DejaVuSans-6c" x="951.25"/>
     <use xlink:href="#DejaVuSans-6d" x="979.033203"/>
     <use xlink:href="#DejaVuSans-66" x="1076.445312"/>
     <use xlink:href="#DejaVuSans-69" x="1111.650391"/>
     <use xlink:href="#DejaVuSans-74" x="1139.433594"/>
     <use xlink:href="#DejaVuSans-20" x="1178.642578"/>
     <use xlink:href="#DejaVuSans-77" x="1210.429688"/>
     <use xlink:href="#DejaVuSans-61" x="1292.216797"/>
     <use xlink:href="#DejaVuSans-73" x="1353.496094"/>
     <use xlink:href="#DejaVuSans-20" x="1405.595703"/>
     <use xlink:href="#DejaVuSans-6e" x="1437.382812"/>
     <use xlink:href="#DejaVuSans-6f" x="1500.761719"/>
     <use xlink:href="#DejaVuSans-74" x="1561.943359"/>
    </g>
    <!-- able to fit the data. -->
    <g transform="translate(428.727562 73.86185) scale(0.1 -0.1)">
     <defs>
      <path id="DejaVuSans-62" d="M 3116 1747 
Q 3116 2381 2855 2742 
Q 2594 3103 2138 3103 
Q 1681 3103 1420 2742 
Q 1159 2381 1159 1747 
Q 1159 1113 1420 752 
Q 1681 391 2138 391 
Q 2594 391 2855 752 
Q 3116 1113 3116 1747 
z
M 1159 2969 
Q 1341 3281 1617 3432 
Q 1894 3584 2278 3584 
Q 2916 3584 3314 3078 
Q 3713 2572 3713 1747 
Q 3713 922 3314 415 
Q 2916 -91 2278 -91 
Q 1894 -91 1617 61 
Q 1341 213 1159 525 
L 1159 0 
L 581 0 
L 581 4863 
L 1159 4863 
L 1159 2969 
z
" transform="scale(0.015625)"/>
      <path id="DejaVuSans-68" d="M 3513 2113 
L 3513 0 
L 2938 0 
L 2938 2094 
Q 2938 2591 2744 2837 
Q 2550 3084 2163 3084 
Q 1697 3084 1428 2787 
Q 1159 2491 1159 1978 
L 1159 0 
L 581 0 
L 581 4863 
L 1159 4863 
L 1159 2956 
Q 1366 3272 1645 3428 
Q 1925 3584 2291 3584 
Q 2894 3584 3203 3211 
Q 3513 2838 3513 2113 
z
" transform="scale(0.015625)"/>
     </defs>
     <use xlink:href="#DejaVuSans-61"/>
     <use xlink:href="#DejaVuSans-62" x="61.279297"/>
     <use xlink:href="#DejaVuSans-6c" x="124.755859"/>
     <use xlink:href="#DejaVuSans-65" x="152.539062"/>
     <use xlink:href="#DejaVuSans-20" x="214.0625"/>
     <use xlink:href="#DejaVuSans-74" x="245.849609"/>
     <use xlink:href="#DejaVuSans-6f" x="285.058594"/>
     <use xlink:href="#DejaVuSans-20" x="346.240234"/>
     <use xlink:href="#DejaVuSans-66" x="378.027344"/>
     <use xlink:href="#DejaVuSans-69" x="413.232422"/>
     <use xlink:href="#DejaVuSans-74" x="441.015625"/>
     <use xlink:href="#DejaVuSans-20" x="480.224609"/>
     <use xlink:href="#DejaVuSans-74" x="512.011719"/>
     <use xlink:href="#DejaVuSans-68" x="551.220703"/>
     <use xlink:href="#DejaVuSans-65" x="614.599609"/>
     <use xlink:href="#DejaVuSans-20" x="676.123047"/>
     <use xlink:href="#DejaVuSans-64" x="707.910156"/>
     <use xlink:href="#DejaVuSans-61" x="771.386719"/>
     <use xlink:href="#DejaVuSans-74" x="832.666016"/>
     <use xlink:href="#DejaVuSans-61" x="871.875"/>
     <use xlink:href="#DejaVuSans-2e" x="933.154297"/>
    </g>
   </g>
  </g>
  <g id="text_15">
   <!-- S21 resonator spectroscopy -->
   <g transform="translate(142.767188 16.318125) scale(0.12 -0.12)">
    <defs>
     <path id="DejaVuSans-53" d="M 3425 4513 
L 3425 3897 
Q 3066 4069 2747 4153 
Q 2428 4238 2131 4238 
Q 1616 4238 1336 4038 
Q 1056 3838 1056 3469 
Q 1056 3159 1242 3001 
Q 1428 2844 1947 2747 
L 2328 2669 
Q 3034 2534 3370 2195 
Q 3706 1856 3706 1288 
Q 3706 609 3251 259 
Q 2797 -91 1919 -91 
Q 1588 -91 1214 -16 
Q 841 59 441 206 
L 441 856 
Q 825 641 1194 531 
Q 1563 422 1919 422 
Q 2459 422 2753 634 
Q 3047 847 3047 1241 
Q 3047 1584 2836 1778 
Q 2625 1972 2144 2069 
L 1759 2144 
Q 1053 2284 737 2584 
Q 422 2884 422 3419 
Q 422 4038 858 4394 
Q 1294 4750 2059 4750 
Q 2388 4750 2728 4690 
Q 3069 4631 3425 4513 
z
" transform="scale(0.015625)"/>
     <path id="DejaVuSans-70" d="M 1159 525 
L 1159 -1331 
L 581 -1331 
L 581 3500 
L 1159 3500 
L 1159 2969 
Q 1341 3281 1617 3432 
Q 1894 3584 2278 3584 
Q 2916 3584 3314 3078 
Q 3713 2572 3713 1747 
Q 3713 922 3314 415 
Q 2916 -91 2278 -91 
Q 1894 -91 1617 61 
Q 1341 213 1159 525 
z
M 3116 1747 
Q 3116 2381 2855 2742 
Q 2594 3103 2138 3103 
Q 1681 3103 1420 2742 
Q 1159 2381 1159 1747 
Q 1159 1113 1420 752 
Q 1681 391 2138 391 
Q 2594 391 2855 752 
Q 3116 1113 3116 1747 
z
" transform="scale(0.015625)"/>
     <path id="DejaVuSans-63" d="M 3122 3366 
L 3122 2828 
Q 2878 2963 2633 3030 
Q 2388 3097 2138 3097 
Q 1578 3097 1268 2742 
Q 959 2388 959 1747 
Q 959 1106 1268 751 
Q 1578 397 2138 397 
Q 2388 397 2633 464 
Q 2878 531 3122 666 
L 3122 134 
Q 2881 22 2623 -34 
Q 2366 -91 2075 -91 
Q 1284 -91 818 406 
Q 353 903 353 1747 
Q 353 2603 823 3093 
Q 1294 3584 2113 3584 
Q 2378 3584 2631 3529 
Q 2884 3475 3122 3366 
z
" transform="scale(0.015625)"/>
     <path id="DejaVuSans-79" d="M 2059 -325 
Q 1816 -950 1584 -1140 
Q 1353 -1331 966 -1331 
L 506 -1331 
L 506 -850 
L 844 -850 
Q 1081 -850 1212 -737 
Q 1344 -625 1503 -206 
L 1606 56 
L 191 3500 
L 800 3500 
L 1894 763 
L 2988 3500 
L 3597 3500 
L 2059 -325 
z
" transform="scale(0.015625)"/>
    </defs>
    <use xlink:href="#DejaVuSans-53"/>
    <use xlink:href="#DejaVuSans-32" x="63.476562"/>
    <use xlink:href="#DejaVuSans-31" x="127.099609"/>
    <use xlink:href="#DejaVuSans-20" x="190.722656"/>
    <use xlink:href="#DejaVuSans-72" x="222.509766"/>
    <use xlink:href="#DejaVuSans-65" x="261.373047"/>
    <use xlink:href="#DejaVuSans-73" x="322.896484"/>
    <use xlink:href="#DejaVuSans-6f" x="374.996094"/>
    <use xlink:href="#DejaVuSans-6e" x="436.177734"/>
    <use xlink:href="#DejaVuSans-61" x="499.556641"/>
    <use xlink:href="#DejaVuSans-74" x="560.835938"/>
    <use xlink:href="#DejaVuSans-6f" x="600.044922"/>
    <use xlink:href="#DejaVuSans-72" x="661.226562"/>
    <use xlink:href="#DejaVuSans-20" x="702.339844"/>
    <use xlink:href="#DejaVuSans-73" x="734.126953"/>
    <use xlink:href="#DejaVuSans-70" x="786.226562"/>
    <use xlink:href="#DejaVuSans-65" x="849.703125"/>
    <use xlink:href="#DejaVuSans-63" x="911.226562"/>
    <use xlink:href="#DejaVuSans-74" x="966.207031"/>
    <use xlink:href="#DejaVuSans-72" x="1005.416016"/>
    <use xlink:href="#DejaVuSans-6f" x="1044.279297"/>
    <use xlink:href="#DejaVuSans-73" x="1105.460938"/>
    <use xlink:href="#DejaVuSans-63" x="1157.560547"/>
    <use xlink:href="#DejaVuSans-6f" x="1212.541016"/>
    <use xlink:href="#DejaVuSans-70" x="1273.722656"/>
    <use xlink:href="#DejaVuSans-79" x="1337.199219"/>
   </g>
   <!-- tuid: 20231227-130749-649-6623b7 -->
   <g transform="translate(116.704688 29.7555) scale(0.12 -0.12)">
    <defs>
     <path id="DejaVuSans-75" d="M 544 1381 
L 544 3500 
L 1119 3500 
L 1119 1403 
Q 1119 906 1312 657 
Q 1506 409 1894 409 
Q 2359 409 2629 706 
Q 2900 1003 2900 1516 
L 2900 3500 
L 3475 3500 
L 3475 0 
L 2900 0 
L 2900 538 
Q 2691 219 2414 64 
Q 2138 -91 1772 -91 
Q 1169 -91 856 284 
Q 544 659 544 1381 
z
M 1991 3584 
L 1991 3584 
z
" transform="scale(0.015625)"/>
     <path id="DejaVuSans-33" d="M 2597 2516 
Q 3050 2419 3304 2112 
Q 3559 1806 3559 1356 
Q 3559 666 3084 287 
Q 2609 -91 1734 -91 
Q 1441 -91 1130 -33 
Q 819 25 488 141 
L 488 750 
Q 750 597 1062 519 
Q 1375 441 1716 441 
Q 2309 441 2620 675 
Q 2931 909 2931 1356 
Q 2931 1769 2642 2001 
Q 2353 2234 1838 2234 
L 1294 2234 
L 1294 2753 
L 1863 2753 
Q 2328 2753 2575 2939 
Q 2822 3125 2822 3475 
Q 2822 3834 2567 4026 
Q 2313 4219 1838 4219 
Q 1578 4219 1281 4162 
Q 984 4106 628 3988 
L 628 4550 
Q 988 4650 1302 4700 
Q 1616 4750 1894 4750 
Q 2613 4750 3031 4423 
Q 3450 4097 3450 3541 
Q 3450 3153 3228 2886 
Q 3006 2619 2597 2516 
z
" transform="scale(0.015625)"/>
     <path id="DejaVuSans-37" d="M 525 4666 
L 3525 4666 
L 3525 4397 
L 1831 0 
L 1172 0 
L 2766 4134 
L 525 4134 
L 525 4666 
z
" transform="scale(0.015625)"/>
    </defs>
    <use xlink:href="#DejaVuSans-74"/>
    <use xlink:href="#DejaVuSans-75" x="39.208984"/>
    <use xlink:href="#DejaVuSans-69" x="102.587891"/>
    <use xlink:href="#DejaVuSans-64" x="130.371094"/>
    <use xlink:href="#DejaVuSans-3a" x="193.847656"/>
    <use xlink:href="#DejaVuSans-20" x="227.539062"/>
    <use xlink:href="#DejaVuSans-32" x="259.326172"/>
    <use xlink:href="#DejaVuSans-30" x="322.949219"/>
    <use xlink:href="#DejaVuSans-32" x="386.572266"/>
    <use xlink:href="#DejaVuSans-33" x="450.195312"/>
    <use xlink:href="#DejaVuSans-31" x="513.818359"/>
    <use xlink:href="#DejaVuSans-32" x="577.441406"/>
    <use xlink:href="#DejaVuSans-32" x="641.064453"/>
    <use xlink:href="#DejaVuSans-37" x="704.6875"/>
    <use xlink:href="#DejaVuSans-2d" x="768.310547"/>
    <use xlink:href="#DejaVuSans-31" x="804.394531"/>
    <use xlink:href="#DejaVuSans-33" x="868.017578"/>
    <use xlink:href="#DejaVuSans-30" x="931.640625"/>
    <use xlink:href="#DejaVuSans-37" x="995.263672"/>
    <use xlink:href="#DejaVuSans-34" x="1058.886719"/>
    <use xlink:href="#DejaVuSans-39" x="1122.509766"/>
    <use xlink:href="#DejaVuSans-2d" x="1186.132812"/>
    <use xlink:href="#DejaVuSans-36" x="1222.216797"/>
    <use xlink:href="#DejaVuSans-34" x="1285.839844"/>
    <use xlink:href="#DejaVuSans-39" x="1349.462891"/>
    <use xlink:href="#DejaVuSans-2d" x="1413.085938"/>
    <use xlink:href="#DejaVuSans-36" x="1449.169922"/>
    <use xlink:href="#DejaVuSans-36" x="1512.792969"/>
    <use xlink:href="#DejaVuSans-32" x="1576.416016"/>
    <use xlink:href="#DejaVuSans-33" x="1640.039062"/>
    <use xlink:href="#DejaVuSans-62" x="1703.662109"/>
    <use xlink:href="#DejaVuSans-37" x="1767.138672"/>
   </g>
  </g>
 </g>
 <defs>
  <clipPath id="p2da0e3cf88">
   <rect x="53.751563" y="41.76" width="357.12" height="266.112"/>
  </clipPath>
 </defs>
</svg>
