<?xml version="1.0" encoding="utf-8" standalone="no"?>
<!DOCTYPE svg PUBLIC "-//W3C//DTD SVG 1.1//EN"
  "http://www.w3.org/Graphics/SVG/1.1/DTD/svg11.dtd">
<svg xmlns:xlink="http://www.w3.org/1999/xlink" width="574.365062pt" height="345.42825pt" viewBox="0 0 574.365062 345.42825" xmlns="http://www.w3.org/2000/svg" version="1.1">
 <metadata>
  <rdf:RDF xmlns:dc="http://purl.org/dc/elements/1.1/" xmlns:cc="http://creativecommons.org/ns#" xmlns:rdf="http://www.w3.org/1999/02/22-rdf-syntax-ns#">
   <cc:Work>
    <dc:type rdf:resource="http://purl.org/dc/dcmitype/StillImage"/>
    <dc:date>2023-12-25T15:59:18.048273</dc:date>
    <dc:format>image/svg+xml</dc:format>
    <dc:creator>
     <cc:Agent>
      <dc:title>Matplotlib v3.8.2, https://matplotlib.org/</dc:title>
     </cc:Agent>
    </dc:creator>
   </cc:Work>
  </rdf:RDF>
 </metadata>
 <defs>
  <style type="text/css">*{stroke-linejoin: round; stroke-linecap: butt}</style>
 </defs>
 <g id="figure_1">
  <g id="patch_1">
   <path d="M 0 345.42825 
L 574.365062 345.42825 
L 574.365062 -0 
L 0 -0 
L 0 345.42825 
z
" style="fill: none; opacity: 0"/>
  </g>
  <g id="axes_1">
   <g id="patch_2">
    <path d="M 47.389063 307.872 
L 404.509063 307.872 
L 404.509063 41.76 
L 47.389063 41.76 
z
" style="fill: #ffffff"/>
   </g>
   <g id="matplotlib.axis_1">
    <g id="xtick_1">
     <g id="line2d_1">
      <defs>
       <path id="mde9d5eb0ec" d="M 0 0 
L 0 3.5 
" style="stroke: #000000; stroke-width: 0.8"/>
      </defs>
      <g>
       <use xlink:href="#mde9d5eb0ec" x="49.443853" y="307.872" style="stroke: #000000; stroke-width: 0.8"/>
      </g>
     </g>
     <g id="text_1">
      <!-- -3 -->
      <g transform="translate(44.458697 322.470438) scale(0.1 -0.1)">
       <defs>
        <path id="DejaVuSans-2d" d="M 313 2009 
L 1997 2009 
L 1997 1497 
L 313 1497 
L 313 2009 
z
" transform="scale(0.015625)"/>
        <path id="DejaVuSans-33" d="M 2597 2516 
Q 3050 2419 3304 2112 
Q 3559 1806 3559 1356 
Q 3559 666 3084 287 
Q 2609 -91 1734 -91 
Q 1441 -91 1130 -33 
Q 819 25 488 141 
L 488 750 
Q 750 597 1062 519 
Q 1375 441 1716 441 
Q 2309 441 2620 675 
Q 2931 909 2931 1356 
Q 2931 1769 2642 2001 
Q 2353 2234 1838 2234 
L 1294 2234 
L 1294 2753 
L 1863 2753 
Q 2328 2753 2575 2939 
Q 2822 3125 2822 3475 
Q 2822 3834 2567 4026 
Q 2313 4219 1838 4219 
Q 1578 4219 1281 4162 
Q 984 4106 628 3988 
L 628 4550 
Q 988 4650 1302 4700 
Q 1616 4750 1894 4750 
Q 2613 4750 3031 4423 
Q 3450 4097 3450 3541 
Q 3450 3153 3228 2886 
Q 3006 2619 2597 2516 
z
" transform="scale(0.015625)"/>
       </defs>
       <use xlink:href="#DejaVuSans-2d"/>
       <use xlink:href="#DejaVuSans-33" x="36.083984"/>
      </g>
     </g>
    </g>
    <g id="xtick_2">
     <g id="line2d_2">
      <g>
       <use xlink:href="#mde9d5eb0ec" x="109.13637" y="307.872" style="stroke: #000000; stroke-width: 0.8"/>
      </g>
     </g>
     <g id="text_2">
      <!-- -2 -->
      <g transform="translate(104.151214 322.470438) scale(0.1 -0.1)">
       <defs>
        <path id="DejaVuSans-32" d="M 1228 531 
L 3431 531 
L 3431 0 
L 469 0 
L 469 531 
Q 828 903 1448 1529 
Q 2069 2156 2228 2338 
Q 2531 2678 2651 2914 
Q 2772 3150 2772 3378 
Q 2772 3750 2511 3984 
Q 2250 4219 1831 4219 
Q 1534 4219 1204 4116 
Q 875 4013 500 3803 
L 500 4441 
Q 881 4594 1212 4672 
Q 1544 4750 1819 4750 
Q 2544 4750 2975 4387 
Q 3406 4025 3406 3419 
Q 3406 3131 3298 2873 
Q 3191 2616 2906 2266 
Q 2828 2175 2409 1742 
Q 1991 1309 1228 531 
z
" transform="scale(0.015625)"/>
       </defs>
       <use xlink:href="#DejaVuSans-2d"/>
       <use xlink:href="#DejaVuSans-32" x="36.083984"/>
      </g>
     </g>
    </g>
    <g id="xtick_3">
     <g id="line2d_3">
      <g>
       <use xlink:href="#mde9d5eb0ec" x="168.828888" y="307.872" style="stroke: #000000; stroke-width: 0.8"/>
      </g>
     </g>
     <g id="text_3">
      <!-- -1 -->
      <g transform="translate(163.843732 322.470438) scale(0.1 -0.1)">
       <defs>
        <path id="DejaVuSans-31" d="M 794 531 
L 1825 531 
L 1825 4091 
L 703 3866 
L 703 4441 
L 1819 4666 
L 2450 4666 
L 2450 531 
L 3481 531 
L 3481 0 
L 794 0 
L 794 531 
z
" transform="scale(0.015625)"/>
       </defs>
       <use xlink:href="#DejaVuSans-2d"/>
       <use xlink:href="#DejaVuSans-31" x="36.083984"/>
      </g>
     </g>
    </g>
    <g id="xtick_4">
     <g id="line2d_4">
      <g>
       <use xlink:href="#mde9d5eb0ec" x="228.521405" y="307.872" style="stroke: #000000; stroke-width: 0.8"/>
      </g>
     </g>
     <g id="text_4">
      <!-- 0 -->
      <g transform="translate(225.340155 322.470438) scale(0.1 -0.1)">
       <defs>
        <path id="DejaVuSans-30" d="M 2034 4250 
Q 1547 4250 1301 3770 
Q 1056 3291 1056 2328 
Q 1056 1369 1301 889 
Q 1547 409 2034 409 
Q 2525 409 2770 889 
Q 3016 1369 3016 2328 
Q 3016 3291 2770 3770 
Q 2525 4250 2034 4250 
z
M 2034 4750 
Q 2819 4750 3233 4129 
Q 3647 3509 3647 2328 
Q 3647 1150 3233 529 
Q 2819 -91 2034 -91 
Q 1250 -91 836 529 
Q 422 1150 422 2328 
Q 422 3509 836 4129 
Q 1250 4750 2034 4750 
z
" transform="scale(0.015625)"/>
       </defs>
       <use xlink:href="#DejaVuSans-30"/>
      </g>
     </g>
    </g>
    <g id="xtick_5">
     <g id="line2d_5">
      <g>
       <use xlink:href="#mde9d5eb0ec" x="288.213923" y="307.872" style="stroke: #000000; stroke-width: 0.8"/>
      </g>
     </g>
     <g id="text_5">
      <!-- 1 -->
      <g transform="translate(285.032673 322.470438) scale(0.1 -0.1)">
       <use xlink:href="#DejaVuSans-31"/>
      </g>
     </g>
    </g>
    <g id="xtick_6">
     <g id="line2d_6">
      <g>
       <use xlink:href="#mde9d5eb0ec" x="347.906441" y="307.872" style="stroke: #000000; stroke-width: 0.8"/>
      </g>
     </g>
     <g id="text_6">
      <!-- 2 -->
      <g transform="translate(344.725191 322.470438) scale(0.1 -0.1)">
       <use xlink:href="#DejaVuSans-32"/>
      </g>
     </g>
    </g>
    <g id="text_7">
     <!-- Re$(S_{21})$ [mV] -->
     <g transform="translate(193.949063 336.148562) scale(0.1 -0.1)">
      <defs>
       <path id="DejaVuSans-52" d="M 2841 2188 
Q 3044 2119 3236 1894 
Q 3428 1669 3622 1275 
L 4263 0 
L 3584 0 
L 2988 1197 
Q 2756 1666 2539 1819 
Q 2322 1972 1947 1972 
L 1259 1972 
L 1259 0 
L 628 0 
L 628 4666 
L 2053 4666 
Q 2853 4666 3247 4331 
Q 3641 3997 3641 3322 
Q 3641 2881 3436 2590 
Q 3231 2300 2841 2188 
z
M 1259 4147 
L 1259 2491 
L 2053 2491 
Q 2509 2491 2742 2702 
Q 2975 2913 2975 3322 
Q 2975 3731 2742 3939 
Q 2509 4147 2053 4147 
L 1259 4147 
z
" transform="scale(0.015625)"/>
       <path id="DejaVuSans-65" d="M 3597 1894 
L 3597 1613 
L 953 1613 
Q 991 1019 1311 708 
Q 1631 397 2203 397 
Q 2534 397 2845 478 
Q 3156 559 3463 722 
L 3463 178 
Q 3153 47 2828 -22 
Q 2503 -91 2169 -91 
Q 1331 -91 842 396 
Q 353 884 353 1716 
Q 353 2575 817 3079 
Q 1281 3584 2069 3584 
Q 2775 3584 3186 3129 
Q 3597 2675 3597 1894 
z
M 3022 2063 
Q 3016 2534 2758 2815 
Q 2500 3097 2075 3097 
Q 1594 3097 1305 2825 
Q 1016 2553 972 2059 
L 3022 2063 
z
" transform="scale(0.015625)"/>
       <path id="DejaVuSans-28" d="M 1984 4856 
Q 1566 4138 1362 3434 
Q 1159 2731 1159 2009 
Q 1159 1288 1364 580 
Q 1569 -128 1984 -844 
L 1484 -844 
Q 1016 -109 783 600 
Q 550 1309 550 2009 
Q 550 2706 781 3412 
Q 1013 4119 1484 4856 
L 1984 4856 
z
" transform="scale(0.015625)"/>
       <path id="DejaVuSans-Oblique-53" d="M 3859 4513 
L 3738 3897 
Q 3422 4066 3111 4152 
Q 2800 4238 2509 4238 
Q 1944 4238 1609 3991 
Q 1275 3744 1275 3334 
Q 1275 3109 1398 2989 
Q 1522 2869 2034 2731 
L 2413 2638 
Q 3053 2472 3303 2217 
Q 3553 1963 3553 1503 
Q 3553 797 2998 353 
Q 2444 -91 1538 -91 
Q 1166 -91 791 -17 
Q 416 56 38 206 
L 166 856 
Q 513 641 861 531 
Q 1209 422 1556 422 
Q 2147 422 2503 684 
Q 2859 947 2859 1369 
Q 2859 1650 2717 1795 
Q 2575 1941 2106 2059 
L 1728 2156 
Q 1081 2325 845 2545 
Q 609 2766 609 3163 
Q 609 3859 1145 4304 
Q 1681 4750 2541 4750 
Q 2875 4750 3203 4690 
Q 3531 4631 3859 4513 
z
" transform="scale(0.015625)"/>
       <path id="DejaVuSans-29" d="M 513 4856 
L 1013 4856 
Q 1481 4119 1714 3412 
Q 1947 2706 1947 2009 
Q 1947 1309 1714 600 
Q 1481 -109 1013 -844 
L 513 -844 
Q 928 -128 1133 580 
Q 1338 1288 1338 2009 
Q 1338 2731 1133 3434 
Q 928 4138 513 4856 
z
" transform="scale(0.015625)"/>
       <path id="DejaVuSans-20" transform="scale(0.015625)"/>
       <path id="DejaVuSans-5b" d="M 550 4863 
L 1875 4863 
L 1875 4416 
L 1125 4416 
L 1125 -397 
L 1875 -397 
L 1875 -844 
L 550 -844 
L 550 4863 
z
" transform="scale(0.015625)"/>
       <path id="DejaVuSans-6d" d="M 3328 2828 
Q 3544 3216 3844 3400 
Q 4144 3584 4550 3584 
Q 5097 3584 5394 3201 
Q 5691 2819 5691 2113 
L 5691 0 
L 5113 0 
L 5113 2094 
Q 5113 2597 4934 2840 
Q 4756 3084 4391 3084 
Q 3944 3084 3684 2787 
Q 3425 2491 3425 1978 
L 3425 0 
L 2847 0 
L 2847 2094 
Q 2847 2600 2669 2842 
Q 2491 3084 2119 3084 
Q 1678 3084 1418 2786 
Q 1159 2488 1159 1978 
L 1159 0 
L 581 0 
L 581 3500 
L 1159 3500 
L 1159 2956 
Q 1356 3278 1631 3431 
Q 1906 3584 2284 3584 
Q 2666 3584 2933 3390 
Q 3200 3197 3328 2828 
z
" transform="scale(0.015625)"/>
       <path id="DejaVuSans-56" d="M 1831 0 
L 50 4666 
L 709 4666 
L 2188 738 
L 3669 4666 
L 4325 4666 
L 2547 0 
L 1831 0 
z
" transform="scale(0.015625)"/>
       <path id="DejaVuSans-5d" d="M 1947 4863 
L 1947 -844 
L 622 -844 
L 622 -397 
L 1369 -397 
L 1369 4416 
L 622 4416 
L 622 4863 
L 1947 4863 
z
" transform="scale(0.015625)"/>
      </defs>
      <use xlink:href="#DejaVuSans-52" transform="translate(0 0.015625)"/>
      <use xlink:href="#DejaVuSans-65" transform="translate(69.482422 0.015625)"/>
      <use xlink:href="#DejaVuSans-28" transform="translate(131.005859 0.015625)"/>
      <use xlink:href="#DejaVuSans-Oblique-53" transform="translate(170.019531 0.015625)"/>
      <use xlink:href="#DejaVuSans-32" transform="translate(233.496094 -16.390625) scale(0.7)"/>
      <use xlink:href="#DejaVuSans-31" transform="translate(278.032227 -16.390625) scale(0.7)"/>
      <use xlink:href="#DejaVuSans-29" transform="translate(325.302734 0.015625)"/>
      <use xlink:href="#DejaVuSans-20" transform="translate(364.316406 0.015625)"/>
      <use xlink:href="#DejaVuSans-5b" transform="translate(396.103516 0.015625)"/>
      <use xlink:href="#DejaVuSans-6d" transform="translate(435.117188 0.015625)"/>
      <use xlink:href="#DejaVuSans-56" transform="translate(532.529297 0.015625)"/>
      <use xlink:href="#DejaVuSans-5d" transform="translate(600.9375 0.015625)"/>
     </g>
    </g>
   </g>
   <g id="matplotlib.axis_2">
    <g id="ytick_1">
     <g id="line2d_7">
      <defs>
       <path id="mf238081ebd" d="M 0 0 
L -3.5 0 
" style="stroke: #000000; stroke-width: 0.8"/>
      </defs>
      <g>
       <use xlink:href="#mf238081ebd" x="47.389063" y="260.985152" style="stroke: #000000; stroke-width: 0.8"/>
      </g>
     </g>
     <g id="text_8">
      <!-- -4 -->
      <g transform="translate(30.41875 264.78437) scale(0.1 -0.1)">
       <defs>
        <path id="DejaVuSans-34" d="M 2419 4116 
L 825 1625 
L 2419 1625 
L 2419 4116 
z
M 2253 4666 
L 3047 4666 
L 3047 1625 
L 3713 1625 
L 3713 1100 
L 3047 1100 
L 3047 0 
L 2419 0 
L 2419 1100 
L 313 1100 
L 313 1709 
L 2253 4666 
z
" transform="scale(0.015625)"/>
       </defs>
       <use xlink:href="#DejaVuSans-2d"/>
       <use xlink:href="#DejaVuSans-34" x="36.083984"/>
      </g>
     </g>
    </g>
    <g id="ytick_2">
     <g id="line2d_8">
      <g>
       <use xlink:href="#mf238081ebd" x="47.389063" y="211.754634" style="stroke: #000000; stroke-width: 0.8"/>
      </g>
     </g>
     <g id="text_9">
      <!-- -3.5 -->
      <g transform="translate(20.878125 215.553853) scale(0.1 -0.1)">
       <defs>
        <path id="DejaVuSans-2e" d="M 684 794 
L 1344 794 
L 1344 0 
L 684 0 
L 684 794 
z
" transform="scale(0.015625)"/>
        <path id="DejaVuSans-35" d="M 691 4666 
L 3169 4666 
L 3169 4134 
L 1269 4134 
L 1269 2991 
Q 1406 3038 1543 3061 
Q 1681 3084 1819 3084 
Q 2600 3084 3056 2656 
Q 3513 2228 3513 1497 
Q 3513 744 3044 326 
Q 2575 -91 1722 -91 
Q 1428 -91 1123 -41 
Q 819 9 494 109 
L 494 744 
Q 775 591 1075 516 
Q 1375 441 1709 441 
Q 2250 441 2565 725 
Q 2881 1009 2881 1497 
Q 2881 1984 2565 2268 
Q 2250 2553 1709 2553 
Q 1456 2553 1204 2497 
Q 953 2441 691 2322 
L 691 4666 
z
" transform="scale(0.015625)"/>
       </defs>
       <use xlink:href="#DejaVuSans-2d"/>
       <use xlink:href="#DejaVuSans-33" x="36.083984"/>
       <use xlink:href="#DejaVuSans-2e" x="99.707031"/>
       <use xlink:href="#DejaVuSans-35" x="131.494141"/>
      </g>
     </g>
    </g>
    <g id="ytick_3">
     <g id="line2d_9">
      <g>
       <use xlink:href="#mf238081ebd" x="47.389063" y="162.524116" style="stroke: #000000; stroke-width: 0.8"/>
      </g>
     </g>
     <g id="text_10">
      <!-- -3 -->
      <g transform="translate(30.41875 166.323335) scale(0.1 -0.1)">
       <use xlink:href="#DejaVuSans-2d"/>
       <use xlink:href="#DejaVuSans-33" x="36.083984"/>
      </g>
     </g>
    </g>
    <g id="ytick_4">
     <g id="line2d_10">
      <g>
       <use xlink:href="#mf238081ebd" x="47.389063" y="113.293599" style="stroke: #000000; stroke-width: 0.8"/>
      </g>
     </g>
     <g id="text_11">
      <!-- -2.5 -->
      <g transform="translate(20.878125 117.092817) scale(0.1 -0.1)">
       <use xlink:href="#DejaVuSans-2d"/>
       <use xlink:href="#DejaVuSans-32" x="36.083984"/>
       <use xlink:href="#DejaVuSans-2e" x="99.707031"/>
       <use xlink:href="#DejaVuSans-35" x="131.494141"/>
      </g>
     </g>
    </g>
    <g id="ytick_5">
     <g id="line2d_11">
      <g>
       <use xlink:href="#mf238081ebd" x="47.389063" y="64.063081" style="stroke: #000000; stroke-width: 0.8"/>
      </g>
     </g>
     <g id="text_12">
      <!-- -2 -->
      <g transform="translate(30.41875 67.8623) scale(0.1 -0.1)">
       <use xlink:href="#DejaVuSans-2d"/>
       <use xlink:href="#DejaVuSans-32" x="36.083984"/>
      </g>
     </g>
    </g>
    <g id="text_13">
     <!-- Im$(S_{21})$ [mV] -->
     <g transform="translate(14.798438 206.466) rotate(-90) scale(0.1 -0.1)">
      <defs>
       <path id="DejaVuSans-49" d="M 628 4666 
L 1259 4666 
L 1259 0 
L 628 0 
L 628 4666 
z
" transform="scale(0.015625)"/>
      </defs>
      <use xlink:href="#DejaVuSans-49" transform="translate(0 0.015625)"/>
      <use xlink:href="#DejaVuSans-6d" transform="translate(25.867188 0.015625)"/>
      <use xlink:href="#DejaVuSans-28" transform="translate(123.279297 0.015625)"/>
      <use xlink:href="#DejaVuSans-Oblique-53" transform="translate(162.292969 0.015625)"/>
      <use xlink:href="#DejaVuSans-32" transform="translate(225.769531 -16.390625) scale(0.7)"/>
      <use xlink:href="#DejaVuSans-31" transform="translate(270.305664 -16.390625) scale(0.7)"/>
      <use xlink:href="#DejaVuSans-29" transform="translate(317.576172 0.015625)"/>
      <use xlink:href="#DejaVuSans-20" transform="translate(356.589844 0.015625)"/>
      <use xlink:href="#DejaVuSans-5b" transform="translate(388.376953 0.015625)"/>
      <use xlink:href="#DejaVuSans-6d" transform="translate(427.390625 0.015625)"/>
      <use xlink:href="#DejaVuSans-56" transform="translate(524.802734 0.015625)"/>
      <use xlink:href="#DejaVuSans-5d" transform="translate(593.210938 0.015625)"/>
     </g>
    </g>
   </g>
   <g id="line2d_12">
    <path d="M 386.721319 156.645207 
L 385.912135 151.333239 
L 382.766378 162.008376 
L 380.841495 165.475649 
L 382.203442 164.734265 
L 382.873755 172.196311 
L 376.629548 176.162757 
L 376.251039 170.24633 
L 377.684139 176.576846 
L 372.160078 171.515213 
L 374.215991 168.542623 
L 370.361623 182.645484 
L 368.017988 176.798214 
L 362.507276 180.477663 
L 370.895982 193.520076 
L 365.383585 185.131086 
L 363.078054 192.764582 
L 362.092866 190.808937 
L 355.564631 194.597626 
L 355.017053 204.0771 
L 354.843837 195.615319 
L 357.527748 200.305833 
L 351.685249 208.495474 
L 356.686746 203.595884 
L 347.545492 210.895993 
L 344.51476 210.008705 
L 346.102413 204.558956 
L 345.410002 216.771909 
L 338.543823 217.748983 
L 345.122734 204.408884 
L 340.952325 210.60333 
L 331.371584 220.529066 
L 337.735287 221.524632 
L 335.864837 237.17354 
L 329.832857 222.780474 
L 330.060701 222.19889 
L 327.35709 229.430696 
L 328.119034 238.372623 
L 322.705914 231.405582 
L 329.122495 233.237984 
L 326.798365 234.317566 
L 322.195532 238.237301 
L 319.965301 236.189945 
L 314.118655 242.290114 
L 319.109005 241.409347 
L 318.138592 241.380487 
L 312.046281 242.956569 
L 309.30515 247.107506 
L 306.421647 255.391423 
L 305.382804 250.312473 
L 301.327808 253.256845 
L 303.779404 258.934588 
L 302.063507 255.664098 
L 301.395073 264.56701 
L 294.12725 259.784358 
L 295.752878 255.416649 
L 286.949049 255.544061 
L 291.679608 256.369674 
L 288.834793 260.489506 
L 285.385892 264.611263 
L 287.203981 254.910956 
L 281.763904 266.885652 
L 279.42325 261.038169 
L 276.962063 277.873653 
L 274.373735 280.933572 
L 271.166028 278.65651 
L 268.322379 277.16284 
L 264.150545 274.482913 
L 262.023025 271.898758 
L 260.960464 279.162845 
L 257.687112 281.799589 
L 252.979818 283.654224 
L 250.734228 278.731012 
L 245.839915 286.804678 
L 243.719717 290.857384 
L 242.33334 279.704773 
L 235.528205 277.814437 
L 233.365238 280.759236 
L 225.506031 282.995466 
L 228.597742 285.587103 
L 219.983266 289.7126 
L 216.199986 290.018304 
L 206.191291 288.311282 
L 197.719768 294.473234 
L 191.600046 295.776 
L 188.90136 292.659644 
L 177.515489 277.355348 
L 167.860549 268.809445 
L 155.037172 262.06655 
L 142.923314 239.237678 
L 142.797144 208.976903 
L 140.740388 160.850872 
L 142.124498 129.61516 
L 150.102422 96.143966 
L 171.018424 72.246415 
L 186.863267 56.716796 
L 207.306018 72.005273 
L 234.827693 61.227416 
L 247.122803 94.648265 
L 258.544121 116.871716 
L 262.536971 121.939229 
L 259.384021 144.933352 
L 261.620928 156.00772 
L 259.067657 172.446646 
L 256.396771 178.298405 
L 247.675242 199.053198 
L 250.28476 196.100275 
L 251.281029 201.428277 
L 238.924162 211.691569 
L 240.639994 211.677246 
L 239.208579 212.060765 
L 230.558526 224.926062 
L 227.331314 219.580744 
L 228.216252 227.645432 
L 224.43025 231.798827 
L 221.050299 232.295862 
L 217.752128 229.405577 
L 209.687238 224.141174 
L 212.924949 236.03891 
L 211.962119 237.231367 
L 206.838989 239.69634 
L 208.209943 240.374659 
L 204.752035 237.237032 
L 200.104229 235.744537 
L 195.966416 237.927429 
L 195.315608 237.671643 
L 194.22097 248.672151 
L 195.935181 243.856469 
L 194.431771 236.402868 
L 191.906366 235.792103 
L 189.158041 236.734011 
L 182.959649 236.886221 
L 183.184512 238.166755 
L 179.201058 241.241424 
L 177.250772 240.795589 
L 184.379205 243.775127 
L 173.611482 232.415471 
L 167.760171 237.713223 
L 170.256674 247.88395 
L 171.878543 244.932203 
L 167.395464 239.706494 
L 168.663707 238.205876 
L 158.985439 238.291387 
L 160.173846 238.607566 
L 159.857935 236.265088 
L 159.847437 230.856278 
L 153.399816 228.249677 
L 153.357305 234.173372 
L 150.120632 237.242483 
L 147.303487 235.035113 
L 145.686219 230.748961 
L 145.736117 222.354627 
L 138.092377 226.058661 
L 146.730312 228.482588 
L 140.677919 229.739499 
L 136.702111 225.812922 
L 135.822163 223.953584 
L 138.712728 229.8776 
L 137.617053 223.913928 
L 131.667177 223.371465 
L 129.634787 217.125926 
L 123.839723 224.921038 
L 126.519293 219.680579 
L 124.39767 220.956516 
L 119.048381 217.380429 
L 122.426712 217.199679 
L 119.605031 212.971034 
L 115.874046 211.774622 
L 113.521209 213.598794 
L 110.442393 208.176837 
L 106.51752 212.154186 
L 111.784705 218.930216 
L 112.078 209.193995 
L 107.639829 197.361996 
L 109.251005 200.280714 
L 108.847158 204.216056 
L 106.413707 194.342588 
L 104.037282 208.934895 
L 97.855285 191.169046 
L 98.173658 195.926153 
L 92.670723 192.061251 
L 94.317022 198.935299 
L 91.954983 189.144778 
L 92.577213 189.829297 
L 88.749997 186.840032 
L 86.013207 190.618139 
L 81.37713 188.900322 
L 81.332222 190.951634 
L 78.27343 189.590934 
L 86.431699 177.98725 
L 79.124542 179.305836 
L 80.808038 181.82746 
L 73.960393 184.847189 
L 76.808059 176.007554 
L 77.781971 179.394554 
L 70.423685 167.046601 
L 70.874578 166.426108 
L 68.030022 164.180579 
L 71.823476 158.328499 
L 63.62179 154.747602 
L 63.62179 154.747602 
" clip-path="url(#pab2433dae8)" style="fill: none; stroke: #1f77b4; stroke-width: 1.5; stroke-linecap: square"/>
    <defs>
     <path id="m9f96d9b520" d="M 0 1.5 
C 0.397805 1.5 0.77937 1.341951 1.06066 1.06066 
C 1.341951 0.77937 1.5 0.397805 1.5 0 
C 1.5 -0.397805 1.341951 -0.77937 1.06066 -1.06066 
C 0.77937 -1.341951 0.397805 -1.5 0 -1.5 
C -0.397805 -1.5 -0.77937 -1.341951 -1.06066 -1.06066 
C -1.341951 -0.77937 -1.5 -0.397805 -1.5 0 
C -1.5 0.397805 -1.341951 0.77937 -1.06066 1.06066 
C -0.77937 1.341951 -0.397805 1.5 0 1.5 
z
" style="stroke: #1f77b4"/>
    </defs>
    <g clip-path="url(#pab2433dae8)">
     <use xlink:href="#m9f96d9b520" x="386.721319" y="156.645207" style="fill: #1f77b4; stroke: #1f77b4"/>
     <use xlink:href="#m9f96d9b520" x="385.912135" y="151.333239" style="fill: #1f77b4; stroke: #1f77b4"/>
     <use xlink:href="#m9f96d9b520" x="382.766378" y="162.008376" style="fill: #1f77b4; stroke: #1f77b4"/>
     <use xlink:href="#m9f96d9b520" x="380.841495" y="165.475649" style="fill: #1f77b4; stroke: #1f77b4"/>
     <use xlink:href="#m9f96d9b520" x="382.203442" y="164.734265" style="fill: #1f77b4; stroke: #1f77b4"/>
     <use xlink:href="#m9f96d9b520" x="382.873755" y="172.196311" style="fill: #1f77b4; stroke: #1f77b4"/>
     <use xlink:href="#m9f96d9b520" x="376.629548" y="176.162757" style="fill: #1f77b4; stroke: #1f77b4"/>
     <use xlink:href="#m9f96d9b520" x="376.251039" y="170.24633" style="fill: #1f77b4; stroke: #1f77b4"/>
     <use xlink:href="#m9f96d9b520" x="377.684139" y="176.576846" style="fill: #1f77b4; stroke: #1f77b4"/>
     <use xlink:href="#m9f96d9b520" x="372.160078" y="171.515213" style="fill: #1f77b4; stroke: #1f77b4"/>
     <use xlink:href="#m9f96d9b520" x="374.215991" y="168.542623" style="fill: #1f77b4; stroke: #1f77b4"/>
     <use xlink:href="#m9f96d9b520" x="370.361623" y="182.645484" style="fill: #1f77b4; stroke: #1f77b4"/>
     <use xlink:href="#m9f96d9b520" x="368.017988" y="176.798214" style="fill: #1f77b4; stroke: #1f77b4"/>
     <use xlink:href="#m9f96d9b520" x="362.507276" y="180.477663" style="fill: #1f77b4; stroke: #1f77b4"/>
     <use xlink:href="#m9f96d9b520" x="370.895982" y="193.520076" style="fill: #1f77b4; stroke: #1f77b4"/>
     <use xlink:href="#m9f96d9b520" x="365.383585" y="185.131086" style="fill: #1f77b4; stroke: #1f77b4"/>
     <use xlink:href="#m9f96d9b520" x="363.078054" y="192.764582" style="fill: #1f77b4; stroke: #1f77b4"/>
     <use xlink:href="#m9f96d9b520" x="362.092866" y="190.808937" style="fill: #1f77b4; stroke: #1f77b4"/>
     <use xlink:href="#m9f96d9b520" x="355.564631" y="194.597626" style="fill: #1f77b4; stroke: #1f77b4"/>
     <use xlink:href="#m9f96d9b520" x="355.017053" y="204.0771" style="fill: #1f77b4; stroke: #1f77b4"/>
     <use xlink:href="#m9f96d9b520" x="354.843837" y="195.615319" style="fill: #1f77b4; stroke: #1f77b4"/>
     <use xlink:href="#m9f96d9b520" x="357.527748" y="200.305833" style="fill: #1f77b4; stroke: #1f77b4"/>
     <use xlink:href="#m9f96d9b520" x="351.685249" y="208.495474" style="fill: #1f77b4; stroke: #1f77b4"/>
     <use xlink:href="#m9f96d9b520" x="356.686746" y="203.595884" style="fill: #1f77b4; stroke: #1f77b4"/>
     <use xlink:href="#m9f96d9b520" x="347.545492" y="210.895993" style="fill: #1f77b4; stroke: #1f77b4"/>
     <use xlink:href="#m9f96d9b520" x="344.51476" y="210.008705" style="fill: #1f77b4; stroke: #1f77b4"/>
     <use xlink:href="#m9f96d9b520" x="346.102413" y="204.558956" style="fill: #1f77b4; stroke: #1f77b4"/>
     <use xlink:href="#m9f96d9b520" x="345.410002" y="216.771909" style="fill: #1f77b4; stroke: #1f77b4"/>
     <use xlink:href="#m9f96d9b520" x="338.543823" y="217.748983" style="fill: #1f77b4; stroke: #1f77b4"/>
     <use xlink:href="#m9f96d9b520" x="345.122734" y="204.408884" style="fill: #1f77b4; stroke: #1f77b4"/>
     <use xlink:href="#m9f96d9b520" x="340.952325" y="210.60333" style="fill: #1f77b4; stroke: #1f77b4"/>
     <use xlink:href="#m9f96d9b520" x="331.371584" y="220.529066" style="fill: #1f77b4; stroke: #1f77b4"/>
     <use xlink:href="#m9f96d9b520" x="337.735287" y="221.524632" style="fill: #1f77b4; stroke: #1f77b4"/>
     <use xlink:href="#m9f96d9b520" x="335.864837" y="237.17354" style="fill: #1f77b4; stroke: #1f77b4"/>
     <use xlink:href="#m9f96d9b520" x="329.832857" y="222.780474" style="fill: #1f77b4; stroke: #1f77b4"/>
     <use xlink:href="#m9f96d9b520" x="330.060701" y="222.19889" style="fill: #1f77b4; stroke: #1f77b4"/>
     <use xlink:href="#m9f96d9b520" x="327.35709" y="229.430696" style="fill: #1f77b4; stroke: #1f77b4"/>
     <use xlink:href="#m9f96d9b520" x="328.119034" y="238.372623" style="fill: #1f77b4; stroke: #1f77b4"/>
     <use xlink:href="#m9f96d9b520" x="322.705914" y="231.405582" style="fill: #1f77b4; stroke: #1f77b4"/>
     <use xlink:href="#m9f96d9b520" x="329.122495" y="233.237984" style="fill: #1f77b4; stroke: #1f77b4"/>
     <use xlink:href="#m9f96d9b520" x="326.798365" y="234.317566" style="fill: #1f77b4; stroke: #1f77b4"/>
     <use xlink:href="#m9f96d9b520" x="322.195532" y="238.237301" style="fill: #1f77b4; stroke: #1f77b4"/>
     <use xlink:href="#m9f96d9b520" x="319.965301" y="236.189945" style="fill: #1f77b4; stroke: #1f77b4"/>
     <use xlink:href="#m9f96d9b520" x="314.118655" y="242.290114" style="fill: #1f77b4; stroke: #1f77b4"/>
     <use xlink:href="#m9f96d9b520" x="319.109005" y="241.409347" style="fill: #1f77b4; stroke: #1f77b4"/>
     <use xlink:href="#m9f96d9b520" x="318.138592" y="241.380487" style="fill: #1f77b4; stroke: #1f77b4"/>
     <use xlink:href="#m9f96d9b520" x="312.046281" y="242.956569" style="fill: #1f77b4; stroke: #1f77b4"/>
     <use xlink:href="#m9f96d9b520" x="309.30515" y="247.107506" style="fill: #1f77b4; stroke: #1f77b4"/>
     <use xlink:href="#m9f96d9b520" x="306.421647" y="255.391423" style="fill: #1f77b4; stroke: #1f77b4"/>
     <use xlink:href="#m9f96d9b520" x="305.382804" y="250.312473" style="fill: #1f77b4; stroke: #1f77b4"/>
     <use xlink:href="#m9f96d9b520" x="301.327808" y="253.256845" style="fill: #1f77b4; stroke: #1f77b4"/>
     <use xlink:href="#m9f96d9b520" x="303.779404" y="258.934588" style="fill: #1f77b4; stroke: #1f77b4"/>
     <use xlink:href="#m9f96d9b520" x="302.063507" y="255.664098" style="fill: #1f77b4; stroke: #1f77b4"/>
     <use xlink:href="#m9f96d9b520" x="301.395073" y="264.56701" style="fill: #1f77b4; stroke: #1f77b4"/>
     <use xlink:href="#m9f96d9b520" x="294.12725" y="259.784358" style="fill: #1f77b4; stroke: #1f77b4"/>
     <use xlink:href="#m9f96d9b520" x="295.752878" y="255.416649" style="fill: #1f77b4; stroke: #1f77b4"/>
     <use xlink:href="#m9f96d9b520" x="286.949049" y="255.544061" style="fill: #1f77b4; stroke: #1f77b4"/>
     <use xlink:href="#m9f96d9b520" x="291.679608" y="256.369674" style="fill: #1f77b4; stroke: #1f77b4"/>
     <use xlink:href="#m9f96d9b520" x="288.834793" y="260.489506" style="fill: #1f77b4; stroke: #1f77b4"/>
     <use xlink:href="#m9f96d9b520" x="285.385892" y="264.611263" style="fill: #1f77b4; stroke: #1f77b4"/>
     <use xlink:href="#m9f96d9b520" x="287.203981" y="254.910956" style="fill: #1f77b4; stroke: #1f77b4"/>
     <use xlink:href="#m9f96d9b520" x="281.763904" y="266.885652" style="fill: #1f77b4; stroke: #1f77b4"/>
     <use xlink:href="#m9f96d9b520" x="279.42325" y="261.038169" style="fill: #1f77b4; stroke: #1f77b4"/>
     <use xlink:href="#m9f96d9b520" x="276.962063" y="277.873653" style="fill: #1f77b4; stroke: #1f77b4"/>
     <use xlink:href="#m9f96d9b520" x="274.373735" y="280.933572" style="fill: #1f77b4; stroke: #1f77b4"/>
     <use xlink:href="#m9f96d9b520" x="271.166028" y="278.65651" style="fill: #1f77b4; stroke: #1f77b4"/>
     <use xlink:href="#m9f96d9b520" x="268.322379" y="277.16284" style="fill: #1f77b4; stroke: #1f77b4"/>
     <use xlink:href="#m9f96d9b520" x="264.150545" y="274.482913" style="fill: #1f77b4; stroke: #1f77b4"/>
     <use xlink:href="#m9f96d9b520" x="262.023025" y="271.898758" style="fill: #1f77b4; stroke: #1f77b4"/>
     <use xlink:href="#m9f96d9b520" x="260.960464" y="279.162845" style="fill: #1f77b4; stroke: #1f77b4"/>
     <use xlink:href="#m9f96d9b520" x="257.687112" y="281.799589" style="fill: #1f77b4; stroke: #1f77b4"/>
     <use xlink:href="#m9f96d9b520" x="252.979818" y="283.654224" style="fill: #1f77b4; stroke: #1f77b4"/>
     <use xlink:href="#m9f96d9b520" x="250.734228" y="278.731012" style="fill: #1f77b4; stroke: #1f77b4"/>
     <use xlink:href="#m9f96d9b520" x="245.839915" y="286.804678" style="fill: #1f77b4; stroke: #1f77b4"/>
     <use xlink:href="#m9f96d9b520" x="243.719717" y="290.857384" style="fill: #1f77b4; stroke: #1f77b4"/>
     <use xlink:href="#m9f96d9b520" x="242.33334" y="279.704773" style="fill: #1f77b4; stroke: #1f77b4"/>
     <use xlink:href="#m9f96d9b520" x="235.528205" y="277.814437" style="fill: #1f77b4; stroke: #1f77b4"/>
     <use xlink:href="#m9f96d9b520" x="233.365238" y="280.759236" style="fill: #1f77b4; stroke: #1f77b4"/>
     <use xlink:href="#m9f96d9b520" x="225.506031" y="282.995466" style="fill: #1f77b4; stroke: #1f77b4"/>
     <use xlink:href="#m9f96d9b520" x="228.597742" y="285.587103" style="fill: #1f77b4; stroke: #1f77b4"/>
     <use xlink:href="#m9f96d9b520" x="219.983266" y="289.7126" style="fill: #1f77b4; stroke: #1f77b4"/>
     <use xlink:href="#m9f96d9b520" x="216.199986" y="290.018304" style="fill: #1f77b4; stroke: #1f77b4"/>
     <use xlink:href="#m9f96d9b520" x="206.191291" y="288.311282" style="fill: #1f77b4; stroke: #1f77b4"/>
     <use xlink:href="#m9f96d9b520" x="197.719768" y="294.473234" style="fill: #1f77b4; stroke: #1f77b4"/>
     <use xlink:href="#m9f96d9b520" x="191.600046" y="295.776" style="fill: #1f77b4; stroke: #1f77b4"/>
     <use xlink:href="#m9f96d9b520" x="188.90136" y="292.659644" style="fill: #1f77b4; stroke: #1f77b4"/>
     <use xlink:href="#m9f96d9b520" x="177.515489" y="277.355348" style="fill: #1f77b4; stroke: #1f77b4"/>
     <use xlink:href="#m9f96d9b520" x="167.860549" y="268.809445" style="fill: #1f77b4; stroke: #1f77b4"/>
     <use xlink:href="#m9f96d9b520" x="155.037172" y="262.06655" style="fill: #1f77b4; stroke: #1f77b4"/>
     <use xlink:href="#m9f96d9b520" x="142.923314" y="239.237678" style="fill: #1f77b4; stroke: #1f77b4"/>
     <use xlink:href="#m9f96d9b520" x="142.797144" y="208.976903" style="fill: #1f77b4; stroke: #1f77b4"/>
     <use xlink:href="#m9f96d9b520" x="140.740388" y="160.850872" style="fill: #1f77b4; stroke: #1f77b4"/>
     <use xlink:href="#m9f96d9b520" x="142.124498" y="129.61516" style="fill: #1f77b4; stroke: #1f77b4"/>
     <use xlink:href="#m9f96d9b520" x="150.102422" y="96.143966" style="fill: #1f77b4; stroke: #1f77b4"/>
     <use xlink:href="#m9f96d9b520" x="171.018424" y="72.246415" style="fill: #1f77b4; stroke: #1f77b4"/>
     <use xlink:href="#m9f96d9b520" x="186.863267" y="56.716796" style="fill: #1f77b4; stroke: #1f77b4"/>
     <use xlink:href="#m9f96d9b520" x="207.306018" y="72.005273" style="fill: #1f77b4; stroke: #1f77b4"/>
     <use xlink:href="#m9f96d9b520" x="234.827693" y="61.227416" style="fill: #1f77b4; stroke: #1f77b4"/>
     <use xlink:href="#m9f96d9b520" x="247.122803" y="94.648265" style="fill: #1f77b4; stroke: #1f77b4"/>
     <use xlink:href="#m9f96d9b520" x="258.544121" y="116.871716" style="fill: #1f77b4; stroke: #1f77b4"/>
     <use xlink:href="#m9f96d9b520" x="262.536971" y="121.939229" style="fill: #1f77b4; stroke: #1f77b4"/>
     <use xlink:href="#m9f96d9b520" x="259.384021" y="144.933352" style="fill: #1f77b4; stroke: #1f77b4"/>
     <use xlink:href="#m9f96d9b520" x="261.620928" y="156.00772" style="fill: #1f77b4; stroke: #1f77b4"/>
     <use xlink:href="#m9f96d9b520" x="259.067657" y="172.446646" style="fill: #1f77b4; stroke: #1f77b4"/>
     <use xlink:href="#m9f96d9b520" x="256.396771" y="178.298405" style="fill: #1f77b4; stroke: #1f77b4"/>
     <use xlink:href="#m9f96d9b520" x="247.675242" y="199.053198" style="fill: #1f77b4; stroke: #1f77b4"/>
     <use xlink:href="#m9f96d9b520" x="250.28476" y="196.100275" style="fill: #1f77b4; stroke: #1f77b4"/>
     <use xlink:href="#m9f96d9b520" x="251.281029" y="201.428277" style="fill: #1f77b4; stroke: #1f77b4"/>
     <use xlink:href="#m9f96d9b520" x="238.924162" y="211.691569" style="fill: #1f77b4; stroke: #1f77b4"/>
     <use xlink:href="#m9f96d9b520" x="240.639994" y="211.677246" style="fill: #1f77b4; stroke: #1f77b4"/>
     <use xlink:href="#m9f96d9b520" x="239.208579" y="212.060765" style="fill: #1f77b4; stroke: #1f77b4"/>
     <use xlink:href="#m9f96d9b520" x="230.558526" y="224.926062" style="fill: #1f77b4; stroke: #1f77b4"/>
     <use xlink:href="#m9f96d9b520" x="227.331314" y="219.580744" style="fill: #1f77b4; stroke: #1f77b4"/>
     <use xlink:href="#m9f96d9b520" x="228.216252" y="227.645432" style="fill: #1f77b4; stroke: #1f77b4"/>
     <use xlink:href="#m9f96d9b520" x="224.43025" y="231.798827" style="fill: #1f77b4; stroke: #1f77b4"/>
     <use xlink:href="#m9f96d9b520" x="221.050299" y="232.295862" style="fill: #1f77b4; stroke: #1f77b4"/>
     <use xlink:href="#m9f96d9b520" x="217.752128" y="229.405577" style="fill: #1f77b4; stroke: #1f77b4"/>
     <use xlink:href="#m9f96d9b520" x="209.687238" y="224.141174" style="fill: #1f77b4; stroke: #1f77b4"/>
     <use xlink:href="#m9f96d9b520" x="212.924949" y="236.03891" style="fill: #1f77b4; stroke: #1f77b4"/>
     <use xlink:href="#m9f96d9b520" x="211.962119" y="237.231367" style="fill: #1f77b4; stroke: #1f77b4"/>
     <use xlink:href="#m9f96d9b520" x="206.838989" y="239.69634" style="fill: #1f77b4; stroke: #1f77b4"/>
     <use xlink:href="#m9f96d9b520" x="208.209943" y="240.374659" style="fill: #1f77b4; stroke: #1f77b4"/>
     <use xlink:href="#m9f96d9b520" x="204.752035" y="237.237032" style="fill: #1f77b4; stroke: #1f77b4"/>
     <use xlink:href="#m9f96d9b520" x="200.104229" y="235.744537" style="fill: #1f77b4; stroke: #1f77b4"/>
     <use xlink:href="#m9f96d9b520" x="195.966416" y="237.927429" style="fill: #1f77b4; stroke: #1f77b4"/>
     <use xlink:href="#m9f96d9b520" x="195.315608" y="237.671643" style="fill: #1f77b4; stroke: #1f77b4"/>
     <use xlink:href="#m9f96d9b520" x="194.22097" y="248.672151" style="fill: #1f77b4; stroke: #1f77b4"/>
     <use xlink:href="#m9f96d9b520" x="195.935181" y="243.856469" style="fill: #1f77b4; stroke: #1f77b4"/>
     <use xlink:href="#m9f96d9b520" x="194.431771" y="236.402868" style="fill: #1f77b4; stroke: #1f77b4"/>
     <use xlink:href="#m9f96d9b520" x="191.906366" y="235.792103" style="fill: #1f77b4; stroke: #1f77b4"/>
     <use xlink:href="#m9f96d9b520" x="189.158041" y="236.734011" style="fill: #1f77b4; stroke: #1f77b4"/>
     <use xlink:href="#m9f96d9b520" x="182.959649" y="236.886221" style="fill: #1f77b4; stroke: #1f77b4"/>
     <use xlink:href="#m9f96d9b520" x="183.184512" y="238.166755" style="fill: #1f77b4; stroke: #1f77b4"/>
     <use xlink:href="#m9f96d9b520" x="179.201058" y="241.241424" style="fill: #1f77b4; stroke: #1f77b4"/>
     <use xlink:href="#m9f96d9b520" x="177.250772" y="240.795589" style="fill: #1f77b4; stroke: #1f77b4"/>
     <use xlink:href="#m9f96d9b520" x="184.379205" y="243.775127" style="fill: #1f77b4; stroke: #1f77b4"/>
     <use xlink:href="#m9f96d9b520" x="173.611482" y="232.415471" style="fill: #1f77b4; stroke: #1f77b4"/>
     <use xlink:href="#m9f96d9b520" x="167.760171" y="237.713223" style="fill: #1f77b4; stroke: #1f77b4"/>
     <use xlink:href="#m9f96d9b520" x="170.256674" y="247.88395" style="fill: #1f77b4; stroke: #1f77b4"/>
     <use xlink:href="#m9f96d9b520" x="171.878543" y="244.932203" style="fill: #1f77b4; stroke: #1f77b4"/>
     <use xlink:href="#m9f96d9b520" x="167.395464" y="239.706494" style="fill: #1f77b4; stroke: #1f77b4"/>
     <use xlink:href="#m9f96d9b520" x="168.663707" y="238.205876" style="fill: #1f77b4; stroke: #1f77b4"/>
     <use xlink:href="#m9f96d9b520" x="158.985439" y="238.291387" style="fill: #1f77b4; stroke: #1f77b4"/>
     <use xlink:href="#m9f96d9b520" x="160.173846" y="238.607566" style="fill: #1f77b4; stroke: #1f77b4"/>
     <use xlink:href="#m9f96d9b520" x="159.857935" y="236.265088" style="fill: #1f77b4; stroke: #1f77b4"/>
     <use xlink:href="#m9f96d9b520" x="159.847437" y="230.856278" style="fill: #1f77b4; stroke: #1f77b4"/>
     <use xlink:href="#m9f96d9b520" x="153.399816" y="228.249677" style="fill: #1f77b4; stroke: #1f77b4"/>
     <use xlink:href="#m9f96d9b520" x="153.357305" y="234.173372" style="fill: #1f77b4; stroke: #1f77b4"/>
     <use xlink:href="#m9f96d9b520" x="150.120632" y="237.242483" style="fill: #1f77b4; stroke: #1f77b4"/>
     <use xlink:href="#m9f96d9b520" x="147.303487" y="235.035113" style="fill: #1f77b4; stroke: #1f77b4"/>
     <use xlink:href="#m9f96d9b520" x="145.686219" y="230.748961" style="fill: #1f77b4; stroke: #1f77b4"/>
     <use xlink:href="#m9f96d9b520" x="145.736117" y="222.354627" style="fill: #1f77b4; stroke: #1f77b4"/>
     <use xlink:href="#m9f96d9b520" x="138.092377" y="226.058661" style="fill: #1f77b4; stroke: #1f77b4"/>
     <use xlink:href="#m9f96d9b520" x="146.730312" y="228.482588" style="fill: #1f77b4; stroke: #1f77b4"/>
     <use xlink:href="#m9f96d9b520" x="140.677919" y="229.739499" style="fill: #1f77b4; stroke: #1f77b4"/>
     <use xlink:href="#m9f96d9b520" x="136.702111" y="225.812922" style="fill: #1f77b4; stroke: #1f77b4"/>
     <use xlink:href="#m9f96d9b520" x="135.822163" y="223.953584" style="fill: #1f77b4; stroke: #1f77b4"/>
     <use xlink:href="#m9f96d9b520" x="138.712728" y="229.8776" style="fill: #1f77b4; stroke: #1f77b4"/>
     <use xlink:href="#m9f96d9b520" x="137.617053" y="223.913928" style="fill: #1f77b4; stroke: #1f77b4"/>
     <use xlink:href="#m9f96d9b520" x="131.667177" y="223.371465" style="fill: #1f77b4; stroke: #1f77b4"/>
     <use xlink:href="#m9f96d9b520" x="129.634787" y="217.125926" style="fill: #1f77b4; stroke: #1f77b4"/>
     <use xlink:href="#m9f96d9b520" x="123.839723" y="224.921038" style="fill: #1f77b4; stroke: #1f77b4"/>
     <use xlink:href="#m9f96d9b520" x="126.519293" y="219.680579" style="fill: #1f77b4; stroke: #1f77b4"/>
     <use xlink:href="#m9f96d9b520" x="124.39767" y="220.956516" style="fill: #1f77b4; stroke: #1f77b4"/>
     <use xlink:href="#m9f96d9b520" x="119.048381" y="217.380429" style="fill: #1f77b4; stroke: #1f77b4"/>
     <use xlink:href="#m9f96d9b520" x="122.426712" y="217.199679" style="fill: #1f77b4; stroke: #1f77b4"/>
     <use xlink:href="#m9f96d9b520" x="119.605031" y="212.971034" style="fill: #1f77b4; stroke: #1f77b4"/>
     <use xlink:href="#m9f96d9b520" x="115.874046" y="211.774622" style="fill: #1f77b4; stroke: #1f77b4"/>
     <use xlink:href="#m9f96d9b520" x="113.521209" y="213.598794" style="fill: #1f77b4; stroke: #1f77b4"/>
     <use xlink:href="#m9f96d9b520" x="110.442393" y="208.176837" style="fill: #1f77b4; stroke: #1f77b4"/>
     <use xlink:href="#m9f96d9b520" x="106.51752" y="212.154186" style="fill: #1f77b4; stroke: #1f77b4"/>
     <use xlink:href="#m9f96d9b520" x="111.784705" y="218.930216" style="fill: #1f77b4; stroke: #1f77b4"/>
     <use xlink:href="#m9f96d9b520" x="112.078" y="209.193995" style="fill: #1f77b4; stroke: #1f77b4"/>
     <use xlink:href="#m9f96d9b520" x="107.639829" y="197.361996" style="fill: #1f77b4; stroke: #1f77b4"/>
     <use xlink:href="#m9f96d9b520" x="109.251005" y="200.280714" style="fill: #1f77b4; stroke: #1f77b4"/>
     <use xlink:href="#m9f96d9b520" x="108.847158" y="204.216056" style="fill: #1f77b4; stroke: #1f77b4"/>
     <use xlink:href="#m9f96d9b520" x="106.413707" y="194.342588" style="fill: #1f77b4; stroke: #1f77b4"/>
     <use xlink:href="#m9f96d9b520" x="104.037282" y="208.934895" style="fill: #1f77b4; stroke: #1f77b4"/>
     <use xlink:href="#m9f96d9b520" x="97.855285" y="191.169046" style="fill: #1f77b4; stroke: #1f77b4"/>
     <use xlink:href="#m9f96d9b520" x="98.173658" y="195.926153" style="fill: #1f77b4; stroke: #1f77b4"/>
     <use xlink:href="#m9f96d9b520" x="92.670723" y="192.061251" style="fill: #1f77b4; stroke: #1f77b4"/>
     <use xlink:href="#m9f96d9b520" x="94.317022" y="198.935299" style="fill: #1f77b4; stroke: #1f77b4"/>
     <use xlink:href="#m9f96d9b520" x="91.954983" y="189.144778" style="fill: #1f77b4; stroke: #1f77b4"/>
     <use xlink:href="#m9f96d9b520" x="92.577213" y="189.829297" style="fill: #1f77b4; stroke: #1f77b4"/>
     <use xlink:href="#m9f96d9b520" x="88.749997" y="186.840032" style="fill: #1f77b4; stroke: #1f77b4"/>
     <use xlink:href="#m9f96d9b520" x="86.013207" y="190.618139" style="fill: #1f77b4; stroke: #1f77b4"/>
     <use xlink:href="#m9f96d9b520" x="81.37713" y="188.900322" style="fill: #1f77b4; stroke: #1f77b4"/>
     <use xlink:href="#m9f96d9b520" x="81.332222" y="190.951634" style="fill: #1f77b4; stroke: #1f77b4"/>
     <use xlink:href="#m9f96d9b520" x="78.27343" y="189.590934" style="fill: #1f77b4; stroke: #1f77b4"/>
     <use xlink:href="#m9f96d9b520" x="86.431699" y="177.98725" style="fill: #1f77b4; stroke: #1f77b4"/>
     <use xlink:href="#m9f96d9b520" x="79.124542" y="179.305836" style="fill: #1f77b4; stroke: #1f77b4"/>
     <use xlink:href="#m9f96d9b520" x="80.808038" y="181.82746" style="fill: #1f77b4; stroke: #1f77b4"/>
     <use xlink:href="#m9f96d9b520" x="73.960393" y="184.847189" style="fill: #1f77b4; stroke: #1f77b4"/>
     <use xlink:href="#m9f96d9b520" x="76.808059" y="176.007554" style="fill: #1f77b4; stroke: #1f77b4"/>
     <use xlink:href="#m9f96d9b520" x="77.781971" y="179.394554" style="fill: #1f77b4; stroke: #1f77b4"/>
     <use xlink:href="#m9f96d9b520" x="70.423685" y="167.046601" style="fill: #1f77b4; stroke: #1f77b4"/>
     <use xlink:href="#m9f96d9b520" x="70.874578" y="166.426108" style="fill: #1f77b4; stroke: #1f77b4"/>
     <use xlink:href="#m9f96d9b520" x="68.030022" y="164.180579" style="fill: #1f77b4; stroke: #1f77b4"/>
     <use xlink:href="#m9f96d9b520" x="71.823476" y="158.328499" style="fill: #1f77b4; stroke: #1f77b4"/>
     <use xlink:href="#m9f96d9b520" x="63.62179" y="154.747602" style="fill: #1f77b4; stroke: #1f77b4"/>
    </g>
   </g>
   <g id="line2d_13">
    <path d="M 388.276335 169.001561 
L 383.172559 176.452723 
L 377.930303 183.702886 
L 372.550233 190.748781 
L 367.342708 197.213117 
L 362.012146 203.490739 
L 356.55765 209.580108 
L 350.977566 215.480189 
L 345.269265 221.190518 
L 339.42886 226.711291 
L 333.450826 232.043457 
L 327.691866 236.891289 
L 321.795488 241.575969 
L 315.74997 246.100688 
L 309.539549 250.469595 
L 303.142907 254.687824 
L 296.951216 258.510923 
L 290.537706 262.212281 
L 284.312279 265.56155 
L 277.80438 268.811899 
L 271.447593 271.740559 
L 265.242795 274.360918 
L 259.196168 276.679199 
L 253.322675 278.695076 
L 247.65012 280.403607 
L 242.223384 281.798916 
L 237.107967 282.879714 
L 232.391596 283.656024 
L 228.18243 284.155422 
L 223.675085 284.471955 
L 219.82082 284.550801 
L 215.713145 284.426791 
L 211.317273 284.040544 
L 207.807701 283.532133 
L 204.095656 282.789443 
L 200.161668 281.758974 
L 195.985567 280.373743 
L 193.05708 279.212498 
L 190.006498 277.826688 
L 186.828882 276.181419 
L 183.520349 274.236124 
L 180.078656 271.943716 
L 176.503981 269.249699 
L 172.799978 266.091267 
L 168.97516 262.396496 
L 165.044704 258.083749 
L 161.032772 253.061542 
L 159.006959 250.253244 
L 156.975404 247.229186 
L 154.945046 243.975655 
L 152.924041 240.478705 
L 150.921898 236.72433 
L 148.949623 232.698701 
L 147.019862 228.388446 
L 145.147036 223.781016 
L 143.347461 218.86511 
L 141.639445 213.631192 
L 140.043345 208.072091 
L 138.581579 202.183682 
L 137.278562 195.965661 
L 136.160559 189.422372 
L 135.255427 182.563693 
L 134.592233 175.40593 
L 134.200724 167.972685 
L 134.110647 160.295623 
L 134.350906 152.415085 
L 134.948568 144.380453 
L 135.927746 136.250189 
L 137.308399 128.091457 
L 139.105102 119.979277 
L 141.325876 111.995149 
L 143.971157 104.225161 
L 147.033009 96.757619 
L 150.494659 89.68029 
L 154.330443 83.077418 
L 158.506188 77.02669 
L 162.98005 71.596372 
L 167.703772 66.84282 
L 172.624273 62.808553 
L 177.685479 59.521033 
L 182.830237 56.992203 
L 188.002217 55.218809 
L 193.147637 54.183416 
L 198.216743 53.856 
L 203.164959 54.195965 
L 207.953682 55.154395 
L 212.550719 56.676387 
L 216.930399 58.703304 
L 221.073404 61.174849 
L 224.966377 64.03086 
L 228.601375 67.212804 
L 231.975224 70.664941 
L 235.088825 74.335171 
L 237.946456 78.175599 
L 240.555107 82.142854 
L 242.923862 86.198198 
L 245.063344 90.307475 
L 246.985241 94.440944 
L 248.701892 98.573018 
L 250.225955 102.681958 
L 251.570132 106.749528 
L 252.746955 110.760646 
L 253.768623 114.70303 
L 255.392934 122.344493 
L 256.530256 129.619491 
L 257.257933 136.499314 
L 257.643227 142.973744 
L 257.743808 149.045424 
L 257.608614 154.725597 
L 257.278868 160.030959 
L 256.789107 164.981393 
L 256.168163 169.598361 
L 255.042156 175.946508 
L 253.738646 181.666098 
L 252.306471 186.825134 
L 250.782502 191.485658 
L 249.194555 195.703289 
L 247.563601 199.527342 
L 245.348809 204.088149 
L 243.112219 208.114378 
L 240.872199 211.680161 
L 238.641103 214.847566 
L 236.427094 217.668639 
L 233.691396 220.773947 
L 230.996377 223.47674 
L 228.34477 225.834556 
L 225.737284 227.894483 
L 222.665716 230.027307 
L 219.654541 231.841337 
L 216.700638 233.380611 
L 213.322178 234.876542 
L 210.011379 236.092854 
L 206.762866 237.066319 
L 203.120146 237.919384 
L 199.545477 238.529745 
L 195.597846 238.961842 
L 191.721254 239.155763 
L 187.909264 239.137713 
L 183.7428 238.894683 
L 179.642876 238.439541 
L 175.203408 237.716478 
L 170.831982 236.780206 
L 166.135005 235.535133 
L 161.507965 234.073699 
L 156.946662 232.410308 
L 152.075539 230.394186 
L 147.274222 228.167649 
L 142.178629 225.546629 
L 137.158451 222.704991 
L 132.21187 219.652235 
L 126.992202 216.15644 
L 121.854582 212.436485 
L 116.798499 208.500117 
L 111.823832 204.354262 
L 106.607485 199.708185 
L 101.484557 194.837886 
L 96.455878 189.749834 
L 91.522495 184.450097 
L 86.38656 178.593612 
L 81.361218 172.511248 
L 76.448242 166.20937 
L 71.649505 159.694168 
L 69.983472 157.344892 
L 69.983472 157.344892 
" clip-path="url(#pab2433dae8)" style="fill: none; stroke: #d62728; stroke-width: 1.5; stroke-linecap: square"/>
   </g>
   <g id="patch_3">
    <path d="M 47.389063 307.872 
L 47.389063 41.76 
" style="fill: none; stroke: #000000; stroke-width: 0.8; stroke-linejoin: miter; stroke-linecap: square"/>
   </g>
   <g id="patch_4">
    <path d="M 404.509063 307.872 
L 404.509063 41.76 
" style="fill: none; stroke: #000000; stroke-width: 0.8; stroke-linejoin: miter; stroke-linecap: square"/>
   </g>
   <g id="patch_5">
    <path d="M 47.389063 307.872 
L 404.509063 307.872 
" style="fill: none; stroke: #000000; stroke-width: 0.8; stroke-linejoin: miter; stroke-linecap: square"/>
   </g>
   <g id="patch_6">
    <path d="M 47.389063 41.76 
L 404.509063 41.76 
" style="fill: none; stroke: #000000; stroke-width: 0.8; stroke-linejoin: miter; stroke-linecap: square"/>
   </g>
   <g id="text_14">
    <g id="patch_7">
     <path d="M 422.365063 102.337163 
L 567.165062 102.337163 
Q 571.165062 102.337163 571.165062 98.337163 
L 571.165062 55.0656 
Q 571.165062 51.0656 567.165062 51.0656 
L 422.365063 51.0656 
Q 418.365063 51.0656 418.365063 55.0656 
L 418.365063 98.337163 
Q 418.365063 102.337163 422.365063 102.337163 
z
" style="fill: #ffffff; opacity: 0.5; stroke: #000000; stroke-linejoin: miter"/>
    </g>
    <!-- Summary -->
    <g transform="translate(422.365063 62.664038) scale(0.1 -0.1)">
     <defs>
      <path id="DejaVuSans-53" d="M 3425 4513 
L 3425 3897 
Q 3066 4069 2747 4153 
Q 2428 4238 2131 4238 
Q 1616 4238 1336 4038 
Q 1056 3838 1056 3469 
Q 1056 3159 1242 3001 
Q 1428 2844 1947 2747 
L 2328 2669 
Q 3034 2534 3370 2195 
Q 3706 1856 3706 1288 
Q 3706 609 3251 259 
Q 2797 -91 1919 -91 
Q 1588 -91 1214 -16 
Q 841 59 441 206 
L 441 856 
Q 825 641 1194 531 
Q 1563 422 1919 422 
Q 2459 422 2753 634 
Q 3047 847 3047 1241 
Q 3047 1584 2836 1778 
Q 2625 1972 2144 2069 
L 1759 2144 
Q 1053 2284 737 2584 
Q 422 2884 422 3419 
Q 422 4038 858 4394 
Q 1294 4750 2059 4750 
Q 2388 4750 2728 4690 
Q 3069 4631 3425 4513 
z
" transform="scale(0.015625)"/>
      <path id="DejaVuSans-75" d="M 544 1381 
L 544 3500 
L 1119 3500 
L 1119 1403 
Q 1119 906 1312 657 
Q 1506 409 1894 409 
Q 2359 409 2629 706 
Q 2900 1003 2900 1516 
L 2900 3500 
L 3475 3500 
L 3475 0 
L 2900 0 
L 2900 538 
Q 2691 219 2414 64 
Q 2138 -91 1772 -91 
Q 1169 -91 856 284 
Q 544 659 544 1381 
z
M 1991 3584 
L 1991 3584 
z
" transform="scale(0.015625)"/>
      <path id="DejaVuSans-61" d="M 2194 1759 
Q 1497 1759 1228 1600 
Q 959 1441 959 1056 
Q 959 750 1161 570 
Q 1363 391 1709 391 
Q 2188 391 2477 730 
Q 2766 1069 2766 1631 
L 2766 1759 
L 2194 1759 
z
M 3341 1997 
L 3341 0 
L 2766 0 
L 2766 531 
Q 2569 213 2275 61 
Q 1981 -91 1556 -91 
Q 1019 -91 701 211 
Q 384 513 384 1019 
Q 384 1609 779 1909 
Q 1175 2209 1959 2209 
L 2766 2209 
L 2766 2266 
Q 2766 2663 2505 2880 
Q 2244 3097 1772 3097 
Q 1472 3097 1187 3025 
Q 903 2953 641 2809 
L 641 3341 
Q 956 3463 1253 3523 
Q 1550 3584 1831 3584 
Q 2591 3584 2966 3190 
Q 3341 2797 3341 1997 
z
" transform="scale(0.015625)"/>
      <path id="DejaVuSans-72" d="M 2631 2963 
Q 2534 3019 2420 3045 
Q 2306 3072 2169 3072 
Q 1681 3072 1420 2755 
Q 1159 2438 1159 1844 
L 1159 0 
L 581 0 
L 581 3500 
L 1159 3500 
L 1159 2956 
Q 1341 3275 1631 3429 
Q 1922 3584 2338 3584 
Q 2397 3584 2469 3576 
Q 2541 3569 2628 3553 
L 2631 2963 
z
" transform="scale(0.015625)"/>
      <path id="DejaVuSans-79" d="M 2059 -325 
Q 1816 -950 1584 -1140 
Q 1353 -1331 966 -1331 
L 506 -1331 
L 506 -850 
L 844 -850 
Q 1081 -850 1212 -737 
Q 1344 -625 1503 -206 
L 1606 56 
L 191 3500 
L 800 3500 
L 1894 763 
L 2988 3500 
L 3597 3500 
L 2059 -325 
z
" transform="scale(0.015625)"/>
     </defs>
     <use xlink:href="#DejaVuSans-53"/>
     <use xlink:href="#DejaVuSans-75" x="63.476562"/>
     <use xlink:href="#DejaVuSans-6d" x="126.855469"/>
     <use xlink:href="#DejaVuSans-6d" x="224.267578"/>
     <use xlink:href="#DejaVuSans-61" x="321.679688"/>
     <use xlink:href="#DejaVuSans-72" x="382.958984"/>
     <use xlink:href="#DejaVuSans-79" x="424.072266"/>
    </g>
    <!-- $Q_I$: 11.51$\pm$0.29 k -->
    <g transform="translate(422.365063 73.86185) scale(0.1 -0.1)">
     <defs>
      <path id="DejaVuSans-Oblique-51" d="M 2309 -84 
Q 2275 -88 2237 -89 
Q 2200 -91 2125 -91 
Q 1250 -91 756 411 
Q 263 913 263 1797 
Q 263 2319 452 2844 
Q 641 3369 978 3788 
Q 1369 4269 1858 4509 
Q 2347 4750 2938 4750 
Q 3794 4750 4287 4245 
Q 4781 3741 4781 2869 
Q 4781 1928 4265 1147 
Q 3750 366 2919 44 
L 3553 -825 
L 2847 -825 
L 2309 -84 
z
M 2919 4238 
Q 2400 4238 2003 3986 
Q 1606 3734 1313 3219 
Q 1125 2891 1026 2522 
Q 928 2153 928 1778 
Q 928 1128 1239 775 
Q 1550 422 2119 422 
Q 2631 422 3032 676 
Q 3434 931 3719 1434 
Q 3909 1772 4009 2142 
Q 4109 2513 4109 2881 
Q 4109 3528 3796 3883 
Q 3484 4238 2919 4238 
z
" transform="scale(0.015625)"/>
      <path id="DejaVuSans-Oblique-49" d="M 1081 4666 
L 1716 4666 
L 806 0 
L 172 0 
L 1081 4666 
z
" transform="scale(0.015625)"/>
      <path id="DejaVuSans-3a" d="M 750 794 
L 1409 794 
L 1409 0 
L 750 0 
L 750 794 
z
M 750 3309 
L 1409 3309 
L 1409 2516 
L 750 2516 
L 750 3309 
z
" transform="scale(0.015625)"/>
      <path id="DejaVuSans-b1" d="M 2944 4013 
L 2944 2803 
L 4684 2803 
L 4684 2272 
L 2944 2272 
L 2944 1063 
L 2419 1063 
L 2419 2272 
L 678 2272 
L 678 2803 
L 2419 2803 
L 2419 4013 
L 2944 4013 
z
M 678 531 
L 4684 531 
L 4684 0 
L 678 0 
L 678 531 
z
" transform="scale(0.015625)"/>
      <path id="DejaVuSans-39" d="M 703 97 
L 703 672 
Q 941 559 1184 500 
Q 1428 441 1663 441 
Q 2288 441 2617 861 
Q 2947 1281 2994 2138 
Q 2813 1869 2534 1725 
Q 2256 1581 1919 1581 
Q 1219 1581 811 2004 
Q 403 2428 403 3163 
Q 403 3881 828 4315 
Q 1253 4750 1959 4750 
Q 2769 4750 3195 4129 
Q 3622 3509 3622 2328 
Q 3622 1225 3098 567 
Q 2575 -91 1691 -91 
Q 1453 -91 1209 -44 
Q 966 3 703 97 
z
M 1959 2075 
Q 2384 2075 2632 2365 
Q 2881 2656 2881 3163 
Q 2881 3666 2632 3958 
Q 2384 4250 1959 4250 
Q 1534 4250 1286 3958 
Q 1038 3666 1038 3163 
Q 1038 2656 1286 2365 
Q 1534 2075 1959 2075 
z
" transform="scale(0.015625)"/>
      <path id="DejaVuSans-6b" d="M 581 4863 
L 1159 4863 
L 1159 1991 
L 2875 3500 
L 3609 3500 
L 1753 1863 
L 3688 0 
L 2938 0 
L 1159 1709 
L 1159 0 
L 581 0 
L 581 4863 
z
" transform="scale(0.015625)"/>
     </defs>
     <use xlink:href="#DejaVuSans-Oblique-51" transform="translate(0 0.015625)"/>
     <use xlink:href="#DejaVuSans-Oblique-49" transform="translate(78.710938 -16.390625) scale(0.7)"/>
     <use xlink:href="#DejaVuSans-3a" transform="translate(102.089844 0.015625)"/>
     <use xlink:href="#DejaVuSans-20" transform="translate(135.78125 0.015625)"/>
     <use xlink:href="#DejaVuSans-31" transform="translate(167.568359 0.015625)"/>
     <use xlink:href="#DejaVuSans-31" transform="translate(231.191406 0.015625)"/>
     <use xlink:href="#DejaVuSans-2e" transform="translate(294.814453 0.015625)"/>
     <use xlink:href="#DejaVuSans-35" transform="translate(326.601562 0.015625)"/>
     <use xlink:href="#DejaVuSans-31" transform="translate(390.224609 0.015625)"/>
     <use xlink:href="#DejaVuSans-b1" transform="translate(453.847656 0.015625)"/>
     <use xlink:href="#DejaVuSans-30" transform="translate(537.636719 0.015625)"/>
     <use xlink:href="#DejaVuSans-2e" transform="translate(601.259766 0.015625)"/>
     <use xlink:href="#DejaVuSans-32" transform="translate(627.546875 0.015625)"/>
     <use xlink:href="#DejaVuSans-39" transform="translate(689.419922 0.015625)"/>
     <use xlink:href="#DejaVuSans-20" transform="translate(753.042969 0.015625)"/>
     <use xlink:href="#DejaVuSans-6b" transform="translate(784.830078 0.015625)"/>
    </g>
    <!-- $Q_C$: 11.98$\pm$0.17 k -->
    <g transform="translate(422.365063 85.059663) scale(0.1 -0.1)">
     <defs>
      <path id="DejaVuSans-Oblique-43" d="M 4447 4306 
L 4319 3641 
Q 4019 3944 3683 4091 
Q 3347 4238 2956 4238 
Q 2422 4238 2017 3981 
Q 1613 3725 1319 3200 
Q 1131 2863 1032 2486 
Q 934 2109 934 1728 
Q 934 1091 1264 756 
Q 1594 422 2222 422 
Q 2656 422 3056 561 
Q 3456 700 3834 978 
L 3688 231 
Q 3316 72 2936 -9 
Q 2556 -91 2175 -91 
Q 1278 -91 773 396 
Q 269 884 269 1753 
Q 269 2309 461 2846 
Q 653 3384 1013 3828 
Q 1394 4300 1883 4525 
Q 2372 4750 3022 4750 
Q 3422 4750 3780 4639 
Q 4138 4528 4447 4306 
z
" transform="scale(0.015625)"/>
      <path id="DejaVuSans-38" d="M 2034 2216 
Q 1584 2216 1326 1975 
Q 1069 1734 1069 1313 
Q 1069 891 1326 650 
Q 1584 409 2034 409 
Q 2484 409 2743 651 
Q 3003 894 3003 1313 
Q 3003 1734 2745 1975 
Q 2488 2216 2034 2216 
z
M 1403 2484 
Q 997 2584 770 2862 
Q 544 3141 544 3541 
Q 544 4100 942 4425 
Q 1341 4750 2034 4750 
Q 2731 4750 3128 4425 
Q 3525 4100 3525 3541 
Q 3525 3141 3298 2862 
Q 3072 2584 2669 2484 
Q 3125 2378 3379 2068 
Q 3634 1759 3634 1313 
Q 3634 634 3220 271 
Q 2806 -91 2034 -91 
Q 1263 -91 848 271 
Q 434 634 434 1313 
Q 434 1759 690 2068 
Q 947 2378 1403 2484 
z
M 1172 3481 
Q 1172 3119 1398 2916 
Q 1625 2713 2034 2713 
Q 2441 2713 2670 2916 
Q 2900 3119 2900 3481 
Q 2900 3844 2670 4047 
Q 2441 4250 2034 4250 
Q 1625 4250 1398 4047 
Q 1172 3844 1172 3481 
z
" transform="scale(0.015625)"/>
      <path id="DejaVuSans-37" d="M 525 4666 
L 3525 4666 
L 3525 4397 
L 1831 0 
L 1172 0 
L 2766 4134 
L 525 4134 
L 525 4666 
z
" transform="scale(0.015625)"/>
     </defs>
     <use xlink:href="#DejaVuSans-Oblique-51" transform="translate(0 0.015625)"/>
     <use xlink:href="#DejaVuSans-Oblique-43" transform="translate(78.710938 -16.390625) scale(0.7)"/>
     <use xlink:href="#DejaVuSans-3a" transform="translate(130.322266 0.015625)"/>
     <use xlink:href="#DejaVuSans-20" transform="translate(164.013672 0.015625)"/>
     <use xlink:href="#DejaVuSans-31" transform="translate(195.800781 0.015625)"/>
     <use xlink:href="#DejaVuSans-31" transform="translate(259.423828 0.015625)"/>
     <use xlink:href="#DejaVuSans-2e" transform="translate(323.046875 0.015625)"/>
     <use xlink:href="#DejaVuSans-39" transform="translate(354.833984 0.015625)"/>
     <use xlink:href="#DejaVuSans-38" transform="translate(418.457031 0.015625)"/>
     <use xlink:href="#DejaVuSans-b1" transform="translate(482.080078 0.015625)"/>
     <use xlink:href="#DejaVuSans-30" transform="translate(565.869141 0.015625)"/>
     <use xlink:href="#DejaVuSans-2e" transform="translate(629.492188 0.015625)"/>
     <use xlink:href="#DejaVuSans-31" transform="translate(661.279297 0.015625)"/>
     <use xlink:href="#DejaVuSans-37" transform="translate(724.902344 0.015625)"/>
     <use xlink:href="#DejaVuSans-20" transform="translate(788.525391 0.015625)"/>
     <use xlink:href="#DejaVuSans-6b" transform="translate(820.3125 0.015625)"/>
    </g>
    <!-- $f_{res}$: 5.7197734$\pm$7.9e-06 GHz -->
    <g transform="translate(422.365063 96.257475) scale(0.1 -0.1)">
     <defs>
      <path id="DejaVuSans-Oblique-66" d="M 3059 4863 
L 2969 4384 
L 2419 4384 
Q 2106 4384 1964 4261 
Q 1822 4138 1753 3809 
L 1691 3500 
L 2638 3500 
L 2553 3053 
L 1606 3053 
L 1013 0 
L 434 0 
L 1031 3053 
L 481 3053 
L 563 3500 
L 1113 3500 
L 1159 3744 
Q 1278 4363 1576 4613 
Q 1875 4863 2516 4863 
L 3059 4863 
z
" transform="scale(0.015625)"/>
      <path id="DejaVuSans-Oblique-72" d="M 2853 2969 
Q 2766 3016 2653 3041 
Q 2541 3066 2413 3066 
Q 1953 3066 1609 2717 
Q 1266 2369 1153 1784 
L 800 0 
L 225 0 
L 909 3500 
L 1484 3500 
L 1375 2956 
Q 1603 3259 1920 3421 
Q 2238 3584 2597 3584 
Q 2691 3584 2781 3573 
Q 2872 3563 2963 3538 
L 2853 2969 
z
" transform="scale(0.015625)"/>
      <path id="DejaVuSans-Oblique-65" d="M 3078 2063 
Q 3088 2113 3092 2166 
Q 3097 2219 3097 2272 
Q 3097 2653 2873 2875 
Q 2650 3097 2266 3097 
Q 1838 3097 1509 2826 
Q 1181 2556 1013 2059 
L 3078 2063 
z
M 3578 1613 
L 903 1613 
Q 884 1494 878 1425 
Q 872 1356 872 1306 
Q 872 872 1139 634 
Q 1406 397 1894 397 
Q 2269 397 2603 481 
Q 2938 566 3225 728 
L 3116 159 
Q 2806 34 2476 -28 
Q 2147 -91 1806 -91 
Q 1078 -91 686 257 
Q 294 606 294 1247 
Q 294 1794 489 2264 
Q 684 2734 1063 3103 
Q 1306 3334 1642 3459 
Q 1978 3584 2356 3584 
Q 2950 3584 3301 3228 
Q 3653 2872 3653 2272 
Q 3653 2128 3634 1964 
Q 3616 1800 3578 1613 
z
" transform="scale(0.015625)"/>
      <path id="DejaVuSans-Oblique-73" d="M 3200 3397 
L 3091 2853 
Q 2863 2978 2609 3040 
Q 2356 3103 2088 3103 
Q 1634 3103 1373 2948 
Q 1113 2794 1113 2528 
Q 1113 2219 1719 2053 
Q 1766 2041 1788 2034 
L 1972 1978 
Q 2547 1819 2739 1644 
Q 2931 1469 2931 1166 
Q 2931 609 2489 259 
Q 2047 -91 1331 -91 
Q 1053 -91 747 -37 
Q 441 16 72 128 
L 184 722 
Q 500 559 806 475 
Q 1113 391 1394 391 
Q 1816 391 2080 572 
Q 2344 753 2344 1031 
Q 2344 1331 1650 1516 
L 1591 1531 
L 1394 1581 
Q 956 1697 753 1886 
Q 550 2075 550 2369 
Q 550 2928 970 3256 
Q 1391 3584 2113 3584 
Q 2397 3584 2667 3537 
Q 2938 3491 3200 3397 
z
" transform="scale(0.015625)"/>
      <path id="DejaVuSans-36" d="M 2113 2584 
Q 1688 2584 1439 2293 
Q 1191 2003 1191 1497 
Q 1191 994 1439 701 
Q 1688 409 2113 409 
Q 2538 409 2786 701 
Q 3034 994 3034 1497 
Q 3034 2003 2786 2293 
Q 2538 2584 2113 2584 
z
M 3366 4563 
L 3366 3988 
Q 3128 4100 2886 4159 
Q 2644 4219 2406 4219 
Q 1781 4219 1451 3797 
Q 1122 3375 1075 2522 
Q 1259 2794 1537 2939 
Q 1816 3084 2150 3084 
Q 2853 3084 3261 2657 
Q 3669 2231 3669 1497 
Q 3669 778 3244 343 
Q 2819 -91 2113 -91 
Q 1303 -91 875 529 
Q 447 1150 447 2328 
Q 447 3434 972 4092 
Q 1497 4750 2381 4750 
Q 2619 4750 2861 4703 
Q 3103 4656 3366 4563 
z
" transform="scale(0.015625)"/>
      <path id="DejaVuSans-47" d="M 3809 666 
L 3809 1919 
L 2778 1919 
L 2778 2438 
L 4434 2438 
L 4434 434 
Q 4069 175 3628 42 
Q 3188 -91 2688 -91 
Q 1594 -91 976 548 
Q 359 1188 359 2328 
Q 359 3472 976 4111 
Q 1594 4750 2688 4750 
Q 3144 4750 3555 4637 
Q 3966 4525 4313 4306 
L 4313 3634 
Q 3963 3931 3569 4081 
Q 3175 4231 2741 4231 
Q 1884 4231 1454 3753 
Q 1025 3275 1025 2328 
Q 1025 1384 1454 906 
Q 1884 428 2741 428 
Q 3075 428 3337 486 
Q 3600 544 3809 666 
z
" transform="scale(0.015625)"/>
      <path id="DejaVuSans-48" d="M 628 4666 
L 1259 4666 
L 1259 2753 
L 3553 2753 
L 3553 4666 
L 4184 4666 
L 4184 0 
L 3553 0 
L 3553 2222 
L 1259 2222 
L 1259 0 
L 628 0 
L 628 4666 
z
" transform="scale(0.015625)"/>
      <path id="DejaVuSans-7a" d="M 353 3500 
L 3084 3500 
L 3084 2975 
L 922 459 
L 3084 459 
L 3084 0 
L 275 0 
L 275 525 
L 2438 3041 
L 353 3041 
L 353 3500 
z
" transform="scale(0.015625)"/>
     </defs>
     <use xlink:href="#DejaVuSans-Oblique-66" transform="translate(0 0.015625)"/>
     <use xlink:href="#DejaVuSans-Oblique-72" transform="translate(35.205078 -16.390625) scale(0.7)"/>
     <use xlink:href="#DejaVuSans-Oblique-65" transform="translate(63.984375 -16.390625) scale(0.7)"/>
     <use xlink:href="#DejaVuSans-Oblique-73" transform="translate(107.050781 -16.390625) scale(0.7)"/>
     <use xlink:href="#DejaVuSans-3a" transform="translate(146.254883 0.015625)"/>
     <use xlink:href="#DejaVuSans-20" transform="translate(179.946289 0.015625)"/>
     <use xlink:href="#DejaVuSans-35" transform="translate(211.733398 0.015625)"/>
     <use xlink:href="#DejaVuSans-2e" transform="translate(275.356445 0.015625)"/>
     <use xlink:href="#DejaVuSans-37" transform="translate(299.393555 0.015625)"/>
     <use xlink:href="#DejaVuSans-31" transform="translate(363.016602 0.015625)"/>
     <use xlink:href="#DejaVuSans-39" transform="translate(426.639648 0.015625)"/>
     <use xlink:href="#DejaVuSans-37" transform="translate(490.262695 0.015625)"/>
     <use xlink:href="#DejaVuSans-37" transform="translate(552.135742 0.015625)"/>
     <use xlink:href="#DejaVuSans-33" transform="translate(615.758789 0.015625)"/>
     <use xlink:href="#DejaVuSans-34" transform="translate(679.381836 0.015625)"/>
     <use xlink:href="#DejaVuSans-b1" transform="translate(743.004883 0.015625)"/>
     <use xlink:href="#DejaVuSans-37" transform="translate(826.793945 0.015625)"/>
     <use xlink:href="#DejaVuSans-2e" transform="translate(890.416992 0.015625)"/>
     <use xlink:href="#DejaVuSans-39" transform="translate(922.204102 0.015625)"/>
     <use xlink:href="#DejaVuSans-65" transform="translate(985.827148 0.015625)"/>
     <use xlink:href="#DejaVuSans-2d" transform="translate(1047.350586 0.015625)"/>
     <use xlink:href="#DejaVuSans-30" transform="translate(1083.43457 0.015625)"/>
     <use xlink:href="#DejaVuSans-36" transform="translate(1147.057617 0.015625)"/>
     <use xlink:href="#DejaVuSans-20" transform="translate(1210.680664 0.015625)"/>
     <use xlink:href="#DejaVuSans-47" transform="translate(1242.467773 0.015625)"/>
     <use xlink:href="#DejaVuSans-48" transform="translate(1319.958008 0.015625)"/>
     <use xlink:href="#DejaVuSans-7a" transform="translate(1395.15332 0.015625)"/>
    </g>
   </g>
  </g>
  <g id="text_15">
   <!-- S21 resonator spectroscopy -->
   <g transform="translate(136.404688 16.318125) scale(0.12 -0.12)">
    <defs>
     <path id="DejaVuSans-73" d="M 2834 3397 
L 2834 2853 
Q 2591 2978 2328 3040 
Q 2066 3103 1784 3103 
Q 1356 3103 1142 2972 
Q 928 2841 928 2578 
Q 928 2378 1081 2264 
Q 1234 2150 1697 2047 
L 1894 2003 
Q 2506 1872 2764 1633 
Q 3022 1394 3022 966 
Q 3022 478 2636 193 
Q 2250 -91 1575 -91 
Q 1294 -91 989 -36 
Q 684 19 347 128 
L 347 722 
Q 666 556 975 473 
Q 1284 391 1588 391 
Q 1994 391 2212 530 
Q 2431 669 2431 922 
Q 2431 1156 2273 1281 
Q 2116 1406 1581 1522 
L 1381 1569 
Q 847 1681 609 1914 
Q 372 2147 372 2553 
Q 372 3047 722 3315 
Q 1072 3584 1716 3584 
Q 2034 3584 2315 3537 
Q 2597 3491 2834 3397 
z
" transform="scale(0.015625)"/>
     <path id="DejaVuSans-6f" d="M 1959 3097 
Q 1497 3097 1228 2736 
Q 959 2375 959 1747 
Q 959 1119 1226 758 
Q 1494 397 1959 397 
Q 2419 397 2687 759 
Q 2956 1122 2956 1747 
Q 2956 2369 2687 2733 
Q 2419 3097 1959 3097 
z
M 1959 3584 
Q 2709 3584 3137 3096 
Q 3566 2609 3566 1747 
Q 3566 888 3137 398 
Q 2709 -91 1959 -91 
Q 1206 -91 779 398 
Q 353 888 353 1747 
Q 353 2609 779 3096 
Q 1206 3584 1959 3584 
z
" transform="scale(0.015625)"/>
     <path id="DejaVuSans-6e" d="M 3513 2113 
L 3513 0 
L 2938 0 
L 2938 2094 
Q 2938 2591 2744 2837 
Q 2550 3084 2163 3084 
Q 1697 3084 1428 2787 
Q 1159 2491 1159 1978 
L 1159 0 
L 581 0 
L 581 3500 
L 1159 3500 
L 1159 2956 
Q 1366 3272 1645 3428 
Q 1925 3584 2291 3584 
Q 2894 3584 3203 3211 
Q 3513 2838 3513 2113 
z
" transform="scale(0.015625)"/>
     <path id="DejaVuSans-74" d="M 1172 4494 
L 1172 3500 
L 2356 3500 
L 2356 3053 
L 1172 3053 
L 1172 1153 
Q 1172 725 1289 603 
Q 1406 481 1766 481 
L 2356 481 
L 2356 0 
L 1766 0 
Q 1100 0 847 248 
Q 594 497 594 1153 
L 594 3053 
L 172 3053 
L 172 3500 
L 594 3500 
L 594 4494 
L 1172 4494 
z
" transform="scale(0.015625)"/>
     <path id="DejaVuSans-70" d="M 1159 525 
L 1159 -1331 
L 581 -1331 
L 581 3500 
L 1159 3500 
L 1159 2969 
Q 1341 3281 1617 3432 
Q 1894 3584 2278 3584 
Q 2916 3584 3314 3078 
Q 3713 2572 3713 1747 
Q 3713 922 3314 415 
Q 2916 -91 2278 -91 
Q 1894 -91 1617 61 
Q 1341 213 1159 525 
z
M 3116 1747 
Q 3116 2381 2855 2742 
Q 2594 3103 2138 3103 
Q 1681 3103 1420 2742 
Q 1159 2381 1159 1747 
Q 1159 1113 1420 752 
Q 1681 391 2138 391 
Q 2594 391 2855 752 
Q 3116 1113 3116 1747 
z
" transform="scale(0.015625)"/>
     <path id="DejaVuSans-63" d="M 3122 3366 
L 3122 2828 
Q 2878 2963 2633 3030 
Q 2388 3097 2138 3097 
Q 1578 3097 1268 2742 
Q 959 2388 959 1747 
Q 959 1106 1268 751 
Q 1578 397 2138 397 
Q 2388 397 2633 464 
Q 2878 531 3122 666 
L 3122 134 
Q 2881 22 2623 -34 
Q 2366 -91 2075 -91 
Q 1284 -91 818 406 
Q 353 903 353 1747 
Q 353 2603 823 3093 
Q 1294 3584 2113 3584 
Q 2378 3584 2631 3529 
Q 2884 3475 3122 3366 
z
" transform="scale(0.015625)"/>
    </defs>
    <use xlink:href="#DejaVuSans-53"/>
    <use xlink:href="#DejaVuSans-32" x="63.476562"/>
    <use xlink:href="#DejaVuSans-31" x="127.099609"/>
    <use xlink:href="#DejaVuSans-20" x="190.722656"/>
    <use xlink:href="#DejaVuSans-72" x="222.509766"/>
    <use xlink:href="#DejaVuSans-65" x="261.373047"/>
    <use xlink:href="#DejaVuSans-73" x="322.896484"/>
    <use xlink:href="#DejaVuSans-6f" x="374.996094"/>
    <use xlink:href="#DejaVuSans-6e" x="436.177734"/>
    <use xlink:href="#DejaVuSans-61" x="499.556641"/>
    <use xlink:href="#DejaVuSans-74" x="560.835938"/>
    <use xlink:href="#DejaVuSans-6f" x="600.044922"/>
    <use xlink:href="#DejaVuSans-72" x="661.226562"/>
    <use xlink:href="#DejaVuSans-20" x="702.339844"/>
    <use xlink:href="#DejaVuSans-73" x="734.126953"/>
    <use xlink:href="#DejaVuSans-70" x="786.226562"/>
    <use xlink:href="#DejaVuSans-65" x="849.703125"/>
    <use xlink:href="#DejaVuSans-63" x="911.226562"/>
    <use xlink:href="#DejaVuSans-74" x="966.207031"/>
    <use xlink:href="#DejaVuSans-72" x="1005.416016"/>
    <use xlink:href="#DejaVuSans-6f" x="1044.279297"/>
    <use xlink:href="#DejaVuSans-73" x="1105.460938"/>
    <use xlink:href="#DejaVuSans-63" x="1157.560547"/>
    <use xlink:href="#DejaVuSans-6f" x="1212.541016"/>
    <use xlink:href="#DejaVuSans-70" x="1273.722656"/>
    <use xlink:href="#DejaVuSans-79" x="1337.199219"/>
   </g>
   <!-- tuid: 20231225-155847-268-f2b98a -->
   <g transform="translate(112.188125 29.7555) scale(0.12 -0.12)">
    <defs>
     <path id="DejaVuSans-69" d="M 603 3500 
L 1178 3500 
L 1178 0 
L 603 0 
L 603 3500 
z
M 603 4863 
L 1178 4863 
L 1178 4134 
L 603 4134 
L 603 4863 
z
" transform="scale(0.015625)"/>
     <path id="DejaVuSans-64" d="M 2906 2969 
L 2906 4863 
L 3481 4863 
L 3481 0 
L 2906 0 
L 2906 525 
Q 2725 213 2448 61 
Q 2172 -91 1784 -91 
Q 1150 -91 751 415 
Q 353 922 353 1747 
Q 353 2572 751 3078 
Q 1150 3584 1784 3584 
Q 2172 3584 2448 3432 
Q 2725 3281 2906 2969 
z
M 947 1747 
Q 947 1113 1208 752 
Q 1469 391 1925 391 
Q 2381 391 2643 752 
Q 2906 1113 2906 1747 
Q 2906 2381 2643 2742 
Q 2381 3103 1925 3103 
Q 1469 3103 1208 2742 
Q 947 2381 947 1747 
z
" transform="scale(0.015625)"/>
     <path id="DejaVuSans-66" d="M 2375 4863 
L 2375 4384 
L 1825 4384 
Q 1516 4384 1395 4259 
Q 1275 4134 1275 3809 
L 1275 3500 
L 2222 3500 
L 2222 3053 
L 1275 3053 
L 1275 0 
L 697 0 
L 697 3053 
L 147 3053 
L 147 3500 
L 697 3500 
L 697 3744 
Q 697 4328 969 4595 
Q 1241 4863 1831 4863 
L 2375 4863 
z
" transform="scale(0.015625)"/>
     <path id="DejaVuSans-62" d="M 3116 1747 
Q 3116 2381 2855 2742 
Q 2594 3103 2138 3103 
Q 1681 3103 1420 2742 
Q 1159 2381 1159 1747 
Q 1159 1113 1420 752 
Q 1681 391 2138 391 
Q 2594 391 2855 752 
Q 3116 1113 3116 1747 
z
M 1159 2969 
Q 1341 3281 1617 3432 
Q 1894 3584 2278 3584 
Q 2916 3584 3314 3078 
Q 3713 2572 3713 1747 
Q 3713 922 3314 415 
Q 2916 -91 2278 -91 
Q 1894 -91 1617 61 
Q 1341 213 1159 525 
L 1159 0 
L 581 0 
L 581 4863 
L 1159 4863 
L 1159 2969 
z
" transform="scale(0.015625)"/>
    </defs>
    <use xlink:href="#DejaVuSans-74"/>
    <use xlink:href="#DejaVuSans-75" x="39.208984"/>
    <use xlink:href="#DejaVuSans-69" x="102.587891"/>
    <use xlink:href="#DejaVuSans-64" x="130.371094"/>
    <use xlink:href="#DejaVuSans-3a" x="193.847656"/>
    <use xlink:href="#DejaVuSans-20" x="227.539062"/>
    <use xlink:href="#DejaVuSans-32" x="259.326172"/>
    <use xlink:href="#DejaVuSans-30" x="322.949219"/>
    <use xlink:href="#DejaVuSans-32" x="386.572266"/>
    <use xlink:href="#DejaVuSans-33" x="450.195312"/>
    <use xlink:href="#DejaVuSans-31" x="513.818359"/>
    <use xlink:href="#DejaVuSans-32" x="577.441406"/>
    <use xlink:href="#DejaVuSans-32" x="641.064453"/>
    <use xlink:href="#DejaVuSans-35" x="704.6875"/>
    <use xlink:href="#DejaVuSans-2d" x="768.310547"/>
    <use xlink:href="#DejaVuSans-31" x="804.394531"/>
    <use xlink:href="#DejaVuSans-35" x="868.017578"/>
    <use xlink:href="#DejaVuSans-35" x="931.640625"/>
    <use xlink:href="#DejaVuSans-38" x="995.263672"/>
    <use xlink:href="#DejaVuSans-34" x="1058.886719"/>
    <use xlink:href="#DejaVuSans-37" x="1122.509766"/>
    <use xlink:href="#DejaVuSans-2d" x="1186.132812"/>
    <use xlink:href="#DejaVuSans-32" x="1222.216797"/>
    <use xlink:href="#DejaVuSans-36" x="1285.839844"/>
    <use xlink:href="#DejaVuSans-38" x="1349.462891"/>
    <use xlink:href="#DejaVuSans-2d" x="1413.085938"/>
    <use xlink:href="#DejaVuSans-66" x="1449.169922"/>
    <use xlink:href="#DejaVuSans-32" x="1484.375"/>
    <use xlink:href="#DejaVuSans-62" x="1547.998047"/>
    <use xlink:href="#DejaVuSans-39" x="1611.474609"/>
    <use xlink:href="#DejaVuSans-38" x="1675.097656"/>
    <use xlink:href="#DejaVuSans-61" x="1738.720703"/>
   </g>
  </g>
 </g>
 <defs>
  <clipPath id="pab2433dae8">
   <rect x="47.389063" y="41.76" width="357.12" height="266.112"/>
  </clipPath>
 </defs>
</svg>
