<?xml version="1.0" encoding="utf-8" standalone="no"?>
<!DOCTYPE svg PUBLIC "-//W3C//DTD SVG 1.1//EN"
  "http://www.w3.org/Graphics/SVG/1.1/DTD/svg11.dtd">
<svg xmlns:xlink="http://www.w3.org/1999/xlink" width="586.49475pt" height="345.42825pt" viewBox="0 0 586.49475 345.42825" xmlns="http://www.w3.org/2000/svg" version="1.1">
 <metadata>
  <rdf:RDF xmlns:dc="http://purl.org/dc/elements/1.1/" xmlns:cc="http://creativecommons.org/ns#" xmlns:rdf="http://www.w3.org/1999/02/22-rdf-syntax-ns#">
   <cc:Work>
    <dc:type rdf:resource="http://purl.org/dc/dcmitype/StillImage"/>
    <dc:date>2023-12-27T12:56:22.278949</dc:date>
    <dc:format>image/svg+xml</dc:format>
    <dc:creator>
     <cc:Agent>
      <dc:title>Matplotlib v3.8.2, https://matplotlib.org/</dc:title>
     </cc:Agent>
    </dc:creator>
   </cc:Work>
  </rdf:RDF>
 </metadata>
 <defs>
  <style type="text/css">*{stroke-linejoin: round; stroke-linecap: butt}</style>
 </defs>
 <g id="figure_1">
  <g id="patch_1">
   <path d="M 0 345.42825 
L 586.49475 345.42825 
L 586.49475 -0 
L 0 -0 
L 0 345.42825 
z
" style="fill: none; opacity: 0"/>
  </g>
  <g id="axes_1">
   <g id="patch_2">
    <path d="M 44.210938 162.72 
L 401.330938 162.72 
L 401.330938 41.76 
L 44.210938 41.76 
z
" style="fill: #ffffff"/>
   </g>
   <g id="matplotlib.axis_1">
    <g id="xtick_1">
     <g id="line2d_1">
      <defs>
       <path id="mda8dfcba53" d="M 0 0 
L 0 3.5 
" style="stroke: #000000; stroke-width: 0.8"/>
      </defs>
      <g>
       <use xlink:href="#mda8dfcba53" x="97.778937" y="162.72" style="stroke: #000000; stroke-width: 0.8"/>
      </g>
     </g>
    </g>
    <g id="xtick_2">
     <g id="line2d_2">
      <g>
       <use xlink:href="#mda8dfcba53" x="162.709847" y="162.72" style="stroke: #000000; stroke-width: 0.8"/>
      </g>
     </g>
    </g>
    <g id="xtick_3">
     <g id="line2d_3">
      <g>
       <use xlink:href="#mda8dfcba53" x="227.640756" y="162.72" style="stroke: #000000; stroke-width: 0.8"/>
      </g>
     </g>
    </g>
    <g id="xtick_4">
     <g id="line2d_4">
      <g>
       <use xlink:href="#mda8dfcba53" x="292.571665" y="162.72" style="stroke: #000000; stroke-width: 0.8"/>
      </g>
     </g>
    </g>
    <g id="xtick_5">
     <g id="line2d_5">
      <g>
       <use xlink:href="#mda8dfcba53" x="357.502574" y="162.72" style="stroke: #000000; stroke-width: 0.8"/>
      </g>
     </g>
    </g>
   </g>
   <g id="matplotlib.axis_2">
    <g id="ytick_1">
     <g id="line2d_6">
      <defs>
       <path id="m9c491dcd7d" d="M 0 0 
L -3.5 0 
" style="stroke: #000000; stroke-width: 0.8"/>
      </defs>
      <g>
       <use xlink:href="#m9c491dcd7d" x="44.210938" y="151.838016" style="stroke: #000000; stroke-width: 0.8"/>
      </g>
     </g>
     <g id="text_1">
      <!-- -10 -->
      <g transform="translate(20.878125 155.637235) scale(0.1 -0.1)">
       <defs>
        <path id="DejaVuSans-2d" d="M 313 2009 
L 1997 2009 
L 1997 1497 
L 313 1497 
L 313 2009 
z
" transform="scale(0.015625)"/>
        <path id="DejaVuSans-31" d="M 794 531 
L 1825 531 
L 1825 4091 
L 703 3866 
L 703 4441 
L 1819 4666 
L 2450 4666 
L 2450 531 
L 3481 531 
L 3481 0 
L 794 0 
L 794 531 
z
" transform="scale(0.015625)"/>
        <path id="DejaVuSans-30" d="M 2034 4250 
Q 1547 4250 1301 3770 
Q 1056 3291 1056 2328 
Q 1056 1369 1301 889 
Q 1547 409 2034 409 
Q 2525 409 2770 889 
Q 3016 1369 3016 2328 
Q 3016 3291 2770 3770 
Q 2525 4250 2034 4250 
z
M 2034 4750 
Q 2819 4750 3233 4129 
Q 3647 3509 3647 2328 
Q 3647 1150 3233 529 
Q 2819 -91 2034 -91 
Q 1250 -91 836 529 
Q 422 1150 422 2328 
Q 422 3509 836 4129 
Q 1250 4750 2034 4750 
z
" transform="scale(0.015625)"/>
       </defs>
       <use xlink:href="#DejaVuSans-2d"/>
       <use xlink:href="#DejaVuSans-31" x="36.083984"/>
       <use xlink:href="#DejaVuSans-30" x="99.707031"/>
      </g>
     </g>
    </g>
    <g id="ytick_2">
     <g id="line2d_7">
      <g>
       <use xlink:href="#m9c491dcd7d" x="44.210938" y="125.821228" style="stroke: #000000; stroke-width: 0.8"/>
      </g>
     </g>
     <g id="text_2">
      <!-- -5 -->
      <g transform="translate(27.240625 129.620447) scale(0.1 -0.1)">
       <defs>
        <path id="DejaVuSans-35" d="M 691 4666 
L 3169 4666 
L 3169 4134 
L 1269 4134 
L 1269 2991 
Q 1406 3038 1543 3061 
Q 1681 3084 1819 3084 
Q 2600 3084 3056 2656 
Q 3513 2228 3513 1497 
Q 3513 744 3044 326 
Q 2575 -91 1722 -91 
Q 1428 -91 1123 -41 
Q 819 9 494 109 
L 494 744 
Q 775 591 1075 516 
Q 1375 441 1709 441 
Q 2250 441 2565 725 
Q 2881 1009 2881 1497 
Q 2881 1984 2565 2268 
Q 2250 2553 1709 2553 
Q 1456 2553 1204 2497 
Q 953 2441 691 2322 
L 691 4666 
z
" transform="scale(0.015625)"/>
       </defs>
       <use xlink:href="#DejaVuSans-2d"/>
       <use xlink:href="#DejaVuSans-35" x="36.083984"/>
      </g>
     </g>
    </g>
    <g id="ytick_3">
     <g id="line2d_8">
      <g>
       <use xlink:href="#m9c491dcd7d" x="44.210938" y="99.80444" style="stroke: #000000; stroke-width: 0.8"/>
      </g>
     </g>
     <g id="text_3">
      <!-- 0 -->
      <g transform="translate(30.848437 103.603659) scale(0.1 -0.1)">
       <use xlink:href="#DejaVuSans-30"/>
      </g>
     </g>
    </g>
    <g id="ytick_4">
     <g id="line2d_9">
      <g>
       <use xlink:href="#m9c491dcd7d" x="44.210938" y="73.787652" style="stroke: #000000; stroke-width: 0.8"/>
      </g>
     </g>
     <g id="text_4">
      <!-- 5 -->
      <g transform="translate(30.848437 77.58687) scale(0.1 -0.1)">
       <use xlink:href="#DejaVuSans-35"/>
      </g>
     </g>
    </g>
    <g id="ytick_5">
     <g id="line2d_10">
      <g>
       <use xlink:href="#m9c491dcd7d" x="44.210938" y="47.770864" style="stroke: #000000; stroke-width: 0.8"/>
      </g>
     </g>
     <g id="text_5">
      <!-- 10 -->
      <g transform="translate(24.485937 51.570082) scale(0.1 -0.1)">
       <use xlink:href="#DejaVuSans-31"/>
       <use xlink:href="#DejaVuSans-30" x="63.623047"/>
      </g>
     </g>
    </g>
    <g id="text_6">
     <!-- Re$(S_{21})$ [mV] -->
     <g transform="translate(14.798437 134.24) rotate(-90) scale(0.1 -0.1)">
      <defs>
       <path id="DejaVuSans-52" d="M 2841 2188 
Q 3044 2119 3236 1894 
Q 3428 1669 3622 1275 
L 4263 0 
L 3584 0 
L 2988 1197 
Q 2756 1666 2539 1819 
Q 2322 1972 1947 1972 
L 1259 1972 
L 1259 0 
L 628 0 
L 628 4666 
L 2053 4666 
Q 2853 4666 3247 4331 
Q 3641 3997 3641 3322 
Q 3641 2881 3436 2590 
Q 3231 2300 2841 2188 
z
M 1259 4147 
L 1259 2491 
L 2053 2491 
Q 2509 2491 2742 2702 
Q 2975 2913 2975 3322 
Q 2975 3731 2742 3939 
Q 2509 4147 2053 4147 
L 1259 4147 
z
" transform="scale(0.015625)"/>
       <path id="DejaVuSans-65" d="M 3597 1894 
L 3597 1613 
L 953 1613 
Q 991 1019 1311 708 
Q 1631 397 2203 397 
Q 2534 397 2845 478 
Q 3156 559 3463 722 
L 3463 178 
Q 3153 47 2828 -22 
Q 2503 -91 2169 -91 
Q 1331 -91 842 396 
Q 353 884 353 1716 
Q 353 2575 817 3079 
Q 1281 3584 2069 3584 
Q 2775 3584 3186 3129 
Q 3597 2675 3597 1894 
z
M 3022 2063 
Q 3016 2534 2758 2815 
Q 2500 3097 2075 3097 
Q 1594 3097 1305 2825 
Q 1016 2553 972 2059 
L 3022 2063 
z
" transform="scale(0.015625)"/>
       <path id="DejaVuSans-28" d="M 1984 4856 
Q 1566 4138 1362 3434 
Q 1159 2731 1159 2009 
Q 1159 1288 1364 580 
Q 1569 -128 1984 -844 
L 1484 -844 
Q 1016 -109 783 600 
Q 550 1309 550 2009 
Q 550 2706 781 3412 
Q 1013 4119 1484 4856 
L 1984 4856 
z
" transform="scale(0.015625)"/>
       <path id="DejaVuSans-Oblique-53" d="M 3859 4513 
L 3738 3897 
Q 3422 4066 3111 4152 
Q 2800 4238 2509 4238 
Q 1944 4238 1609 3991 
Q 1275 3744 1275 3334 
Q 1275 3109 1398 2989 
Q 1522 2869 2034 2731 
L 2413 2638 
Q 3053 2472 3303 2217 
Q 3553 1963 3553 1503 
Q 3553 797 2998 353 
Q 2444 -91 1538 -91 
Q 1166 -91 791 -17 
Q 416 56 38 206 
L 166 856 
Q 513 641 861 531 
Q 1209 422 1556 422 
Q 2147 422 2503 684 
Q 2859 947 2859 1369 
Q 2859 1650 2717 1795 
Q 2575 1941 2106 2059 
L 1728 2156 
Q 1081 2325 845 2545 
Q 609 2766 609 3163 
Q 609 3859 1145 4304 
Q 1681 4750 2541 4750 
Q 2875 4750 3203 4690 
Q 3531 4631 3859 4513 
z
" transform="scale(0.015625)"/>
       <path id="DejaVuSans-32" d="M 1228 531 
L 3431 531 
L 3431 0 
L 469 0 
L 469 531 
Q 828 903 1448 1529 
Q 2069 2156 2228 2338 
Q 2531 2678 2651 2914 
Q 2772 3150 2772 3378 
Q 2772 3750 2511 3984 
Q 2250 4219 1831 4219 
Q 1534 4219 1204 4116 
Q 875 4013 500 3803 
L 500 4441 
Q 881 4594 1212 4672 
Q 1544 4750 1819 4750 
Q 2544 4750 2975 4387 
Q 3406 4025 3406 3419 
Q 3406 3131 3298 2873 
Q 3191 2616 2906 2266 
Q 2828 2175 2409 1742 
Q 1991 1309 1228 531 
z
" transform="scale(0.015625)"/>
       <path id="DejaVuSans-29" d="M 513 4856 
L 1013 4856 
Q 1481 4119 1714 3412 
Q 1947 2706 1947 2009 
Q 1947 1309 1714 600 
Q 1481 -109 1013 -844 
L 513 -844 
Q 928 -128 1133 580 
Q 1338 1288 1338 2009 
Q 1338 2731 1133 3434 
Q 928 4138 513 4856 
z
" transform="scale(0.015625)"/>
       <path id="DejaVuSans-20" transform="scale(0.015625)"/>
       <path id="DejaVuSans-5b" d="M 550 4863 
L 1875 4863 
L 1875 4416 
L 1125 4416 
L 1125 -397 
L 1875 -397 
L 1875 -844 
L 550 -844 
L 550 4863 
z
" transform="scale(0.015625)"/>
       <path id="DejaVuSans-6d" d="M 3328 2828 
Q 3544 3216 3844 3400 
Q 4144 3584 4550 3584 
Q 5097 3584 5394 3201 
Q 5691 2819 5691 2113 
L 5691 0 
L 5113 0 
L 5113 2094 
Q 5113 2597 4934 2840 
Q 4756 3084 4391 3084 
Q 3944 3084 3684 2787 
Q 3425 2491 3425 1978 
L 3425 0 
L 2847 0 
L 2847 2094 
Q 2847 2600 2669 2842 
Q 2491 3084 2119 3084 
Q 1678 3084 1418 2786 
Q 1159 2488 1159 1978 
L 1159 0 
L 581 0 
L 581 3500 
L 1159 3500 
L 1159 2956 
Q 1356 3278 1631 3431 
Q 1906 3584 2284 3584 
Q 2666 3584 2933 3390 
Q 3200 3197 3328 2828 
z
" transform="scale(0.015625)"/>
       <path id="DejaVuSans-56" d="M 1831 0 
L 50 4666 
L 709 4666 
L 2188 738 
L 3669 4666 
L 4325 4666 
L 2547 0 
L 1831 0 
z
" transform="scale(0.015625)"/>
       <path id="DejaVuSans-5d" d="M 1947 4863 
L 1947 -844 
L 622 -844 
L 622 -397 
L 1369 -397 
L 1369 4416 
L 622 4416 
L 622 4863 
L 1947 4863 
z
" transform="scale(0.015625)"/>
      </defs>
      <use xlink:href="#DejaVuSans-52" transform="translate(0 0.015625)"/>
      <use xlink:href="#DejaVuSans-65" transform="translate(69.482422 0.015625)"/>
      <use xlink:href="#DejaVuSans-28" transform="translate(131.005859 0.015625)"/>
      <use xlink:href="#DejaVuSans-Oblique-53" transform="translate(170.019531 0.015625)"/>
      <use xlink:href="#DejaVuSans-32" transform="translate(233.496094 -16.390625) scale(0.7)"/>
      <use xlink:href="#DejaVuSans-31" transform="translate(278.032227 -16.390625) scale(0.7)"/>
      <use xlink:href="#DejaVuSans-29" transform="translate(325.302734 0.015625)"/>
      <use xlink:href="#DejaVuSans-20" transform="translate(364.316406 0.015625)"/>
      <use xlink:href="#DejaVuSans-5b" transform="translate(396.103516 0.015625)"/>
      <use xlink:href="#DejaVuSans-6d" transform="translate(435.117188 0.015625)"/>
      <use xlink:href="#DejaVuSans-56" transform="translate(532.529297 0.015625)"/>
      <use xlink:href="#DejaVuSans-5d" transform="translate(600.9375 0.015625)"/>
     </g>
    </g>
   </g>
   <g id="line2d_11">
    <path d="M 60.443665 102.503311 
L 62.075095 107.51765 
L 65.337954 124.241247 
L 66.969384 130.192783 
L 68.600814 134.825164 
L 70.232244 138.671141 
L 73.495104 143.840465 
L 75.126534 146.073567 
L 76.757964 147.798434 
L 80.020823 150.849861 
L 81.652253 151.927792 
L 83.283683 153.183009 
L 84.915113 154.028895 
L 86.546543 155.121557 
L 88.177973 155.748564 
L 91.440832 155.881548 
L 93.072262 156.782446 
L 94.703692 157.098336 
L 96.335122 157.221818 
L 97.966552 156.737979 
L 99.597982 156.492648 
L 101.229412 156.395116 
L 102.860842 156.090207 
L 104.492271 155.209362 
L 106.123701 155.094133 
L 107.755131 155.166793 
L 109.386561 153.908593 
L 111.017991 153.001277 
L 112.649421 152.247919 
L 115.912281 150.145416 
L 117.54371 149.489464 
L 119.17514 147.822091 
L 120.80657 146.702608 
L 122.438 145.086666 
L 125.70086 143.445085 
L 127.33229 141.623167 
L 128.96372 139.600899 
L 130.595149 138.291052 
L 132.226579 136.738089 
L 133.858009 135.369083 
L 135.489439 133.678318 
L 137.120869 132.343007 
L 138.752299 130.229116 
L 140.383729 128.654167 
L 142.015159 126.438418 
L 145.278018 123.927763 
L 146.909448 121.401292 
L 148.540878 119.722711 
L 151.803738 115.842672 
L 153.435168 114.592595 
L 155.066598 112.384302 
L 156.698027 109.915369 
L 159.960887 106.172844 
L 161.592317 104.714582 
L 163.223747 102.884202 
L 164.855177 100.559414 
L 166.486607 98.456628 
L 168.118037 97.159136 
L 169.749467 94.437082 
L 171.380896 92.710972 
L 173.012326 90.360511 
L 174.643756 89.011558 
L 176.275186 86.287386 
L 177.906616 85.318267 
L 179.538046 82.309607 
L 181.169476 80.572149 
L 182.800906 79.669968 
L 184.432335 77.919642 
L 186.063765 75.510214 
L 187.695195 73.557408 
L 189.326625 72.104976 
L 190.958055 70.294231 
L 192.589485 67.910702 
L 194.220915 66.888581 
L 197.483774 63.331442 
L 199.115204 62.34275 
L 202.378064 58.95665 
L 204.009494 57.842285 
L 205.640924 56.433992 
L 207.272354 56.008985 
L 208.903784 54.997698 
L 210.535213 53.159676 
L 212.166643 53.018925 
L 213.798073 51.931765 
L 215.429503 51.252315 
L 218.692363 50.340864 
L 220.323793 48.975999 
L 225.218082 48.623154 
L 226.849512 47.609919 
L 228.480942 48.02072 
L 230.112372 47.504694 
L 231.743802 47.816184 
L 233.375232 47.258182 
L 235.006662 48.452878 
L 236.638091 47.719228 
L 238.269521 48.424092 
L 239.900951 48.787533 
L 241.532381 48.896436 
L 243.163811 49.609541 
L 244.795241 50.201362 
L 246.426671 51.421783 
L 248.058101 51.594149 
L 251.32096 52.713587 
L 252.95239 53.732991 
L 254.58382 54.887485 
L 256.21525 55.093671 
L 261.10954 58.497033 
L 262.740969 59.432536 
L 264.372399 60.722719 
L 266.003829 61.478608 
L 267.635259 63.028742 
L 269.266689 64.055082 
L 272.529549 66.539917 
L 274.160979 67.641826 
L 275.792408 69.162179 
L 277.423838 69.649837 
L 279.055268 72.260972 
L 282.318128 75.528312 
L 283.949558 76.861189 
L 285.580988 78.791297 
L 287.212418 79.763461 
L 288.843848 82.242663 
L 290.475277 84.046759 
L 292.106707 85.050776 
L 293.738137 87.280749 
L 295.369567 88.996538 
L 298.632427 91.939521 
L 300.263857 94.159773 
L 301.895287 95.960519 
L 303.526716 97.542438 
L 310.052436 105.009526 
L 311.683866 107.229055 
L 313.315296 108.394033 
L 314.946726 110.325899 
L 319.841015 114.69298 
L 321.472445 117.094478 
L 323.103875 118.680181 
L 326.366735 120.597439 
L 327.998165 122.670563 
L 329.629594 123.471524 
L 331.261024 124.836186 
L 332.892454 126.926957 
L 334.523884 127.046688 
L 336.155314 128.601798 
L 337.786744 129.438204 
L 341.049604 131.549904 
L 342.681033 132.380086 
L 344.312463 133.375708 
L 345.943893 134.700998 
L 347.575323 135.04294 
L 349.206753 136.042229 
L 350.838183 136.845715 
L 352.469613 137.421166 
L 354.101043 138.678919 
L 355.732472 139.023256 
L 357.363902 139.144733 
L 358.995332 139.395289 
L 360.626762 140.126522 
L 363.889622 139.751094 
L 365.521052 139.907474 
L 367.152482 139.211434 
L 368.783911 138.277518 
L 370.415341 136.540749 
L 372.046771 133.305285 
L 373.678201 129.386202 
L 375.309631 124.033389 
L 378.572491 107.220186 
L 380.203921 105.468313 
L 381.83535 110.710303 
L 383.46678 119.051909 
L 385.09821 125.127108 
L 385.09821 125.127108 
" clip-path="url(#p8d6f9c740c)" style="fill: none; stroke: #1f77b4; stroke-width: 1.5; stroke-linecap: square"/>
    <defs>
     <path id="m6d8032b127" d="M 0 1.5 
C 0.397805 1.5 0.77937 1.341951 1.06066 1.06066 
C 1.341951 0.77937 1.5 0.397805 1.5 0 
C 1.5 -0.397805 1.341951 -0.77937 1.06066 -1.06066 
C 0.77937 -1.341951 0.397805 -1.5 0 -1.5 
C -0.397805 -1.5 -0.77937 -1.341951 -1.06066 -1.06066 
C -1.341951 -0.77937 -1.5 -0.397805 -1.5 0 
C -1.5 0.397805 -1.341951 0.77937 -1.06066 1.06066 
C -0.77937 1.341951 -0.397805 1.5 0 1.5 
z
" style="stroke: #1f77b4"/>
    </defs>
    <g clip-path="url(#p8d6f9c740c)">
     <use xlink:href="#m6d8032b127" x="60.443665" y="102.503311" style="fill: #1f77b4; stroke: #1f77b4"/>
     <use xlink:href="#m6d8032b127" x="62.075095" y="107.51765" style="fill: #1f77b4; stroke: #1f77b4"/>
     <use xlink:href="#m6d8032b127" x="63.706525" y="116.126449" style="fill: #1f77b4; stroke: #1f77b4"/>
     <use xlink:href="#m6d8032b127" x="65.337954" y="124.241247" style="fill: #1f77b4; stroke: #1f77b4"/>
     <use xlink:href="#m6d8032b127" x="66.969384" y="130.192783" style="fill: #1f77b4; stroke: #1f77b4"/>
     <use xlink:href="#m6d8032b127" x="68.600814" y="134.825164" style="fill: #1f77b4; stroke: #1f77b4"/>
     <use xlink:href="#m6d8032b127" x="70.232244" y="138.671141" style="fill: #1f77b4; stroke: #1f77b4"/>
     <use xlink:href="#m6d8032b127" x="71.863674" y="141.328183" style="fill: #1f77b4; stroke: #1f77b4"/>
     <use xlink:href="#m6d8032b127" x="73.495104" y="143.840465" style="fill: #1f77b4; stroke: #1f77b4"/>
     <use xlink:href="#m6d8032b127" x="75.126534" y="146.073567" style="fill: #1f77b4; stroke: #1f77b4"/>
     <use xlink:href="#m6d8032b127" x="76.757964" y="147.798434" style="fill: #1f77b4; stroke: #1f77b4"/>
     <use xlink:href="#m6d8032b127" x="78.389393" y="149.264632" style="fill: #1f77b4; stroke: #1f77b4"/>
     <use xlink:href="#m6d8032b127" x="80.020823" y="150.849861" style="fill: #1f77b4; stroke: #1f77b4"/>
     <use xlink:href="#m6d8032b127" x="81.652253" y="151.927792" style="fill: #1f77b4; stroke: #1f77b4"/>
     <use xlink:href="#m6d8032b127" x="83.283683" y="153.183009" style="fill: #1f77b4; stroke: #1f77b4"/>
     <use xlink:href="#m6d8032b127" x="84.915113" y="154.028895" style="fill: #1f77b4; stroke: #1f77b4"/>
     <use xlink:href="#m6d8032b127" x="86.546543" y="155.121557" style="fill: #1f77b4; stroke: #1f77b4"/>
     <use xlink:href="#m6d8032b127" x="88.177973" y="155.748564" style="fill: #1f77b4; stroke: #1f77b4"/>
     <use xlink:href="#m6d8032b127" x="89.809403" y="155.796268" style="fill: #1f77b4; stroke: #1f77b4"/>
     <use xlink:href="#m6d8032b127" x="91.440832" y="155.881548" style="fill: #1f77b4; stroke: #1f77b4"/>
     <use xlink:href="#m6d8032b127" x="93.072262" y="156.782446" style="fill: #1f77b4; stroke: #1f77b4"/>
     <use xlink:href="#m6d8032b127" x="94.703692" y="157.098336" style="fill: #1f77b4; stroke: #1f77b4"/>
     <use xlink:href="#m6d8032b127" x="96.335122" y="157.221818" style="fill: #1f77b4; stroke: #1f77b4"/>
     <use xlink:href="#m6d8032b127" x="97.966552" y="156.737979" style="fill: #1f77b4; stroke: #1f77b4"/>
     <use xlink:href="#m6d8032b127" x="99.597982" y="156.492648" style="fill: #1f77b4; stroke: #1f77b4"/>
     <use xlink:href="#m6d8032b127" x="101.229412" y="156.395116" style="fill: #1f77b4; stroke: #1f77b4"/>
     <use xlink:href="#m6d8032b127" x="102.860842" y="156.090207" style="fill: #1f77b4; stroke: #1f77b4"/>
     <use xlink:href="#m6d8032b127" x="104.492271" y="155.209362" style="fill: #1f77b4; stroke: #1f77b4"/>
     <use xlink:href="#m6d8032b127" x="106.123701" y="155.094133" style="fill: #1f77b4; stroke: #1f77b4"/>
     <use xlink:href="#m6d8032b127" x="107.755131" y="155.166793" style="fill: #1f77b4; stroke: #1f77b4"/>
     <use xlink:href="#m6d8032b127" x="109.386561" y="153.908593" style="fill: #1f77b4; stroke: #1f77b4"/>
     <use xlink:href="#m6d8032b127" x="111.017991" y="153.001277" style="fill: #1f77b4; stroke: #1f77b4"/>
     <use xlink:href="#m6d8032b127" x="112.649421" y="152.247919" style="fill: #1f77b4; stroke: #1f77b4"/>
     <use xlink:href="#m6d8032b127" x="114.280851" y="151.195984" style="fill: #1f77b4; stroke: #1f77b4"/>
     <use xlink:href="#m6d8032b127" x="115.912281" y="150.145416" style="fill: #1f77b4; stroke: #1f77b4"/>
     <use xlink:href="#m6d8032b127" x="117.54371" y="149.489464" style="fill: #1f77b4; stroke: #1f77b4"/>
     <use xlink:href="#m6d8032b127" x="119.17514" y="147.822091" style="fill: #1f77b4; stroke: #1f77b4"/>
     <use xlink:href="#m6d8032b127" x="120.80657" y="146.702608" style="fill: #1f77b4; stroke: #1f77b4"/>
     <use xlink:href="#m6d8032b127" x="122.438" y="145.086666" style="fill: #1f77b4; stroke: #1f77b4"/>
     <use xlink:href="#m6d8032b127" x="124.06943" y="144.306109" style="fill: #1f77b4; stroke: #1f77b4"/>
     <use xlink:href="#m6d8032b127" x="125.70086" y="143.445085" style="fill: #1f77b4; stroke: #1f77b4"/>
     <use xlink:href="#m6d8032b127" x="127.33229" y="141.623167" style="fill: #1f77b4; stroke: #1f77b4"/>
     <use xlink:href="#m6d8032b127" x="128.96372" y="139.600899" style="fill: #1f77b4; stroke: #1f77b4"/>
     <use xlink:href="#m6d8032b127" x="130.595149" y="138.291052" style="fill: #1f77b4; stroke: #1f77b4"/>
     <use xlink:href="#m6d8032b127" x="132.226579" y="136.738089" style="fill: #1f77b4; stroke: #1f77b4"/>
     <use xlink:href="#m6d8032b127" x="133.858009" y="135.369083" style="fill: #1f77b4; stroke: #1f77b4"/>
     <use xlink:href="#m6d8032b127" x="135.489439" y="133.678318" style="fill: #1f77b4; stroke: #1f77b4"/>
     <use xlink:href="#m6d8032b127" x="137.120869" y="132.343007" style="fill: #1f77b4; stroke: #1f77b4"/>
     <use xlink:href="#m6d8032b127" x="138.752299" y="130.229116" style="fill: #1f77b4; stroke: #1f77b4"/>
     <use xlink:href="#m6d8032b127" x="140.383729" y="128.654167" style="fill: #1f77b4; stroke: #1f77b4"/>
     <use xlink:href="#m6d8032b127" x="142.015159" y="126.438418" style="fill: #1f77b4; stroke: #1f77b4"/>
     <use xlink:href="#m6d8032b127" x="143.646588" y="125.139795" style="fill: #1f77b4; stroke: #1f77b4"/>
     <use xlink:href="#m6d8032b127" x="145.278018" y="123.927763" style="fill: #1f77b4; stroke: #1f77b4"/>
     <use xlink:href="#m6d8032b127" x="146.909448" y="121.401292" style="fill: #1f77b4; stroke: #1f77b4"/>
     <use xlink:href="#m6d8032b127" x="148.540878" y="119.722711" style="fill: #1f77b4; stroke: #1f77b4"/>
     <use xlink:href="#m6d8032b127" x="150.172308" y="117.783175" style="fill: #1f77b4; stroke: #1f77b4"/>
     <use xlink:href="#m6d8032b127" x="151.803738" y="115.842672" style="fill: #1f77b4; stroke: #1f77b4"/>
     <use xlink:href="#m6d8032b127" x="153.435168" y="114.592595" style="fill: #1f77b4; stroke: #1f77b4"/>
     <use xlink:href="#m6d8032b127" x="155.066598" y="112.384302" style="fill: #1f77b4; stroke: #1f77b4"/>
     <use xlink:href="#m6d8032b127" x="156.698027" y="109.915369" style="fill: #1f77b4; stroke: #1f77b4"/>
     <use xlink:href="#m6d8032b127" x="158.329457" y="107.987164" style="fill: #1f77b4; stroke: #1f77b4"/>
     <use xlink:href="#m6d8032b127" x="159.960887" y="106.172844" style="fill: #1f77b4; stroke: #1f77b4"/>
     <use xlink:href="#m6d8032b127" x="161.592317" y="104.714582" style="fill: #1f77b4; stroke: #1f77b4"/>
     <use xlink:href="#m6d8032b127" x="163.223747" y="102.884202" style="fill: #1f77b4; stroke: #1f77b4"/>
     <use xlink:href="#m6d8032b127" x="164.855177" y="100.559414" style="fill: #1f77b4; stroke: #1f77b4"/>
     <use xlink:href="#m6d8032b127" x="166.486607" y="98.456628" style="fill: #1f77b4; stroke: #1f77b4"/>
     <use xlink:href="#m6d8032b127" x="168.118037" y="97.159136" style="fill: #1f77b4; stroke: #1f77b4"/>
     <use xlink:href="#m6d8032b127" x="169.749467" y="94.437082" style="fill: #1f77b4; stroke: #1f77b4"/>
     <use xlink:href="#m6d8032b127" x="171.380896" y="92.710972" style="fill: #1f77b4; stroke: #1f77b4"/>
     <use xlink:href="#m6d8032b127" x="173.012326" y="90.360511" style="fill: #1f77b4; stroke: #1f77b4"/>
     <use xlink:href="#m6d8032b127" x="174.643756" y="89.011558" style="fill: #1f77b4; stroke: #1f77b4"/>
     <use xlink:href="#m6d8032b127" x="176.275186" y="86.287386" style="fill: #1f77b4; stroke: #1f77b4"/>
     <use xlink:href="#m6d8032b127" x="177.906616" y="85.318267" style="fill: #1f77b4; stroke: #1f77b4"/>
     <use xlink:href="#m6d8032b127" x="179.538046" y="82.309607" style="fill: #1f77b4; stroke: #1f77b4"/>
     <use xlink:href="#m6d8032b127" x="181.169476" y="80.572149" style="fill: #1f77b4; stroke: #1f77b4"/>
     <use xlink:href="#m6d8032b127" x="182.800906" y="79.669968" style="fill: #1f77b4; stroke: #1f77b4"/>
     <use xlink:href="#m6d8032b127" x="184.432335" y="77.919642" style="fill: #1f77b4; stroke: #1f77b4"/>
     <use xlink:href="#m6d8032b127" x="186.063765" y="75.510214" style="fill: #1f77b4; stroke: #1f77b4"/>
     <use xlink:href="#m6d8032b127" x="187.695195" y="73.557408" style="fill: #1f77b4; stroke: #1f77b4"/>
     <use xlink:href="#m6d8032b127" x="189.326625" y="72.104976" style="fill: #1f77b4; stroke: #1f77b4"/>
     <use xlink:href="#m6d8032b127" x="190.958055" y="70.294231" style="fill: #1f77b4; stroke: #1f77b4"/>
     <use xlink:href="#m6d8032b127" x="192.589485" y="67.910702" style="fill: #1f77b4; stroke: #1f77b4"/>
     <use xlink:href="#m6d8032b127" x="194.220915" y="66.888581" style="fill: #1f77b4; stroke: #1f77b4"/>
     <use xlink:href="#m6d8032b127" x="195.852345" y="65.041938" style="fill: #1f77b4; stroke: #1f77b4"/>
     <use xlink:href="#m6d8032b127" x="197.483774" y="63.331442" style="fill: #1f77b4; stroke: #1f77b4"/>
     <use xlink:href="#m6d8032b127" x="199.115204" y="62.34275" style="fill: #1f77b4; stroke: #1f77b4"/>
     <use xlink:href="#m6d8032b127" x="200.746634" y="60.651692" style="fill: #1f77b4; stroke: #1f77b4"/>
     <use xlink:href="#m6d8032b127" x="202.378064" y="58.95665" style="fill: #1f77b4; stroke: #1f77b4"/>
     <use xlink:href="#m6d8032b127" x="204.009494" y="57.842285" style="fill: #1f77b4; stroke: #1f77b4"/>
     <use xlink:href="#m6d8032b127" x="205.640924" y="56.433992" style="fill: #1f77b4; stroke: #1f77b4"/>
     <use xlink:href="#m6d8032b127" x="207.272354" y="56.008985" style="fill: #1f77b4; stroke: #1f77b4"/>
     <use xlink:href="#m6d8032b127" x="208.903784" y="54.997698" style="fill: #1f77b4; stroke: #1f77b4"/>
     <use xlink:href="#m6d8032b127" x="210.535213" y="53.159676" style="fill: #1f77b4; stroke: #1f77b4"/>
     <use xlink:href="#m6d8032b127" x="212.166643" y="53.018925" style="fill: #1f77b4; stroke: #1f77b4"/>
     <use xlink:href="#m6d8032b127" x="213.798073" y="51.931765" style="fill: #1f77b4; stroke: #1f77b4"/>
     <use xlink:href="#m6d8032b127" x="215.429503" y="51.252315" style="fill: #1f77b4; stroke: #1f77b4"/>
     <use xlink:href="#m6d8032b127" x="217.060933" y="50.842248" style="fill: #1f77b4; stroke: #1f77b4"/>
     <use xlink:href="#m6d8032b127" x="218.692363" y="50.340864" style="fill: #1f77b4; stroke: #1f77b4"/>
     <use xlink:href="#m6d8032b127" x="220.323793" y="48.975999" style="fill: #1f77b4; stroke: #1f77b4"/>
     <use xlink:href="#m6d8032b127" x="221.955223" y="48.82229" style="fill: #1f77b4; stroke: #1f77b4"/>
     <use xlink:href="#m6d8032b127" x="223.586652" y="48.64732" style="fill: #1f77b4; stroke: #1f77b4"/>
     <use xlink:href="#m6d8032b127" x="225.218082" y="48.623154" style="fill: #1f77b4; stroke: #1f77b4"/>
     <use xlink:href="#m6d8032b127" x="226.849512" y="47.609919" style="fill: #1f77b4; stroke: #1f77b4"/>
     <use xlink:href="#m6d8032b127" x="228.480942" y="48.02072" style="fill: #1f77b4; stroke: #1f77b4"/>
     <use xlink:href="#m6d8032b127" x="230.112372" y="47.504694" style="fill: #1f77b4; stroke: #1f77b4"/>
     <use xlink:href="#m6d8032b127" x="231.743802" y="47.816184" style="fill: #1f77b4; stroke: #1f77b4"/>
     <use xlink:href="#m6d8032b127" x="233.375232" y="47.258182" style="fill: #1f77b4; stroke: #1f77b4"/>
     <use xlink:href="#m6d8032b127" x="235.006662" y="48.452878" style="fill: #1f77b4; stroke: #1f77b4"/>
     <use xlink:href="#m6d8032b127" x="236.638091" y="47.719228" style="fill: #1f77b4; stroke: #1f77b4"/>
     <use xlink:href="#m6d8032b127" x="238.269521" y="48.424092" style="fill: #1f77b4; stroke: #1f77b4"/>
     <use xlink:href="#m6d8032b127" x="239.900951" y="48.787533" style="fill: #1f77b4; stroke: #1f77b4"/>
     <use xlink:href="#m6d8032b127" x="241.532381" y="48.896436" style="fill: #1f77b4; stroke: #1f77b4"/>
     <use xlink:href="#m6d8032b127" x="243.163811" y="49.609541" style="fill: #1f77b4; stroke: #1f77b4"/>
     <use xlink:href="#m6d8032b127" x="244.795241" y="50.201362" style="fill: #1f77b4; stroke: #1f77b4"/>
     <use xlink:href="#m6d8032b127" x="246.426671" y="51.421783" style="fill: #1f77b4; stroke: #1f77b4"/>
     <use xlink:href="#m6d8032b127" x="248.058101" y="51.594149" style="fill: #1f77b4; stroke: #1f77b4"/>
     <use xlink:href="#m6d8032b127" x="249.68953" y="52.204747" style="fill: #1f77b4; stroke: #1f77b4"/>
     <use xlink:href="#m6d8032b127" x="251.32096" y="52.713587" style="fill: #1f77b4; stroke: #1f77b4"/>
     <use xlink:href="#m6d8032b127" x="252.95239" y="53.732991" style="fill: #1f77b4; stroke: #1f77b4"/>
     <use xlink:href="#m6d8032b127" x="254.58382" y="54.887485" style="fill: #1f77b4; stroke: #1f77b4"/>
     <use xlink:href="#m6d8032b127" x="256.21525" y="55.093671" style="fill: #1f77b4; stroke: #1f77b4"/>
     <use xlink:href="#m6d8032b127" x="257.84668" y="56.255017" style="fill: #1f77b4; stroke: #1f77b4"/>
     <use xlink:href="#m6d8032b127" x="259.47811" y="57.290266" style="fill: #1f77b4; stroke: #1f77b4"/>
     <use xlink:href="#m6d8032b127" x="261.10954" y="58.497033" style="fill: #1f77b4; stroke: #1f77b4"/>
     <use xlink:href="#m6d8032b127" x="262.740969" y="59.432536" style="fill: #1f77b4; stroke: #1f77b4"/>
     <use xlink:href="#m6d8032b127" x="264.372399" y="60.722719" style="fill: #1f77b4; stroke: #1f77b4"/>
     <use xlink:href="#m6d8032b127" x="266.003829" y="61.478608" style="fill: #1f77b4; stroke: #1f77b4"/>
     <use xlink:href="#m6d8032b127" x="267.635259" y="63.028742" style="fill: #1f77b4; stroke: #1f77b4"/>
     <use xlink:href="#m6d8032b127" x="269.266689" y="64.055082" style="fill: #1f77b4; stroke: #1f77b4"/>
     <use xlink:href="#m6d8032b127" x="270.898119" y="65.348457" style="fill: #1f77b4; stroke: #1f77b4"/>
     <use xlink:href="#m6d8032b127" x="272.529549" y="66.539917" style="fill: #1f77b4; stroke: #1f77b4"/>
     <use xlink:href="#m6d8032b127" x="274.160979" y="67.641826" style="fill: #1f77b4; stroke: #1f77b4"/>
     <use xlink:href="#m6d8032b127" x="275.792408" y="69.162179" style="fill: #1f77b4; stroke: #1f77b4"/>
     <use xlink:href="#m6d8032b127" x="277.423838" y="69.649837" style="fill: #1f77b4; stroke: #1f77b4"/>
     <use xlink:href="#m6d8032b127" x="279.055268" y="72.260972" style="fill: #1f77b4; stroke: #1f77b4"/>
     <use xlink:href="#m6d8032b127" x="280.686698" y="73.923889" style="fill: #1f77b4; stroke: #1f77b4"/>
     <use xlink:href="#m6d8032b127" x="282.318128" y="75.528312" style="fill: #1f77b4; stroke: #1f77b4"/>
     <use xlink:href="#m6d8032b127" x="283.949558" y="76.861189" style="fill: #1f77b4; stroke: #1f77b4"/>
     <use xlink:href="#m6d8032b127" x="285.580988" y="78.791297" style="fill: #1f77b4; stroke: #1f77b4"/>
     <use xlink:href="#m6d8032b127" x="287.212418" y="79.763461" style="fill: #1f77b4; stroke: #1f77b4"/>
     <use xlink:href="#m6d8032b127" x="288.843848" y="82.242663" style="fill: #1f77b4; stroke: #1f77b4"/>
     <use xlink:href="#m6d8032b127" x="290.475277" y="84.046759" style="fill: #1f77b4; stroke: #1f77b4"/>
     <use xlink:href="#m6d8032b127" x="292.106707" y="85.050776" style="fill: #1f77b4; stroke: #1f77b4"/>
     <use xlink:href="#m6d8032b127" x="293.738137" y="87.280749" style="fill: #1f77b4; stroke: #1f77b4"/>
     <use xlink:href="#m6d8032b127" x="295.369567" y="88.996538" style="fill: #1f77b4; stroke: #1f77b4"/>
     <use xlink:href="#m6d8032b127" x="297.000997" y="90.449321" style="fill: #1f77b4; stroke: #1f77b4"/>
     <use xlink:href="#m6d8032b127" x="298.632427" y="91.939521" style="fill: #1f77b4; stroke: #1f77b4"/>
     <use xlink:href="#m6d8032b127" x="300.263857" y="94.159773" style="fill: #1f77b4; stroke: #1f77b4"/>
     <use xlink:href="#m6d8032b127" x="301.895287" y="95.960519" style="fill: #1f77b4; stroke: #1f77b4"/>
     <use xlink:href="#m6d8032b127" x="303.526716" y="97.542438" style="fill: #1f77b4; stroke: #1f77b4"/>
     <use xlink:href="#m6d8032b127" x="305.158146" y="99.379726" style="fill: #1f77b4; stroke: #1f77b4"/>
     <use xlink:href="#m6d8032b127" x="306.789576" y="101.075208" style="fill: #1f77b4; stroke: #1f77b4"/>
     <use xlink:href="#m6d8032b127" x="308.421006" y="102.942412" style="fill: #1f77b4; stroke: #1f77b4"/>
     <use xlink:href="#m6d8032b127" x="310.052436" y="105.009526" style="fill: #1f77b4; stroke: #1f77b4"/>
     <use xlink:href="#m6d8032b127" x="311.683866" y="107.229055" style="fill: #1f77b4; stroke: #1f77b4"/>
     <use xlink:href="#m6d8032b127" x="313.315296" y="108.394033" style="fill: #1f77b4; stroke: #1f77b4"/>
     <use xlink:href="#m6d8032b127" x="314.946726" y="110.325899" style="fill: #1f77b4; stroke: #1f77b4"/>
     <use xlink:href="#m6d8032b127" x="316.578155" y="111.79678" style="fill: #1f77b4; stroke: #1f77b4"/>
     <use xlink:href="#m6d8032b127" x="318.209585" y="113.385127" style="fill: #1f77b4; stroke: #1f77b4"/>
     <use xlink:href="#m6d8032b127" x="319.841015" y="114.69298" style="fill: #1f77b4; stroke: #1f77b4"/>
     <use xlink:href="#m6d8032b127" x="321.472445" y="117.094478" style="fill: #1f77b4; stroke: #1f77b4"/>
     <use xlink:href="#m6d8032b127" x="323.103875" y="118.680181" style="fill: #1f77b4; stroke: #1f77b4"/>
     <use xlink:href="#m6d8032b127" x="324.735305" y="119.653469" style="fill: #1f77b4; stroke: #1f77b4"/>
     <use xlink:href="#m6d8032b127" x="326.366735" y="120.597439" style="fill: #1f77b4; stroke: #1f77b4"/>
     <use xlink:href="#m6d8032b127" x="327.998165" y="122.670563" style="fill: #1f77b4; stroke: #1f77b4"/>
     <use xlink:href="#m6d8032b127" x="329.629594" y="123.471524" style="fill: #1f77b4; stroke: #1f77b4"/>
     <use xlink:href="#m6d8032b127" x="331.261024" y="124.836186" style="fill: #1f77b4; stroke: #1f77b4"/>
     <use xlink:href="#m6d8032b127" x="332.892454" y="126.926957" style="fill: #1f77b4; stroke: #1f77b4"/>
     <use xlink:href="#m6d8032b127" x="334.523884" y="127.046688" style="fill: #1f77b4; stroke: #1f77b4"/>
     <use xlink:href="#m6d8032b127" x="336.155314" y="128.601798" style="fill: #1f77b4; stroke: #1f77b4"/>
     <use xlink:href="#m6d8032b127" x="337.786744" y="129.438204" style="fill: #1f77b4; stroke: #1f77b4"/>
     <use xlink:href="#m6d8032b127" x="339.418174" y="130.510933" style="fill: #1f77b4; stroke: #1f77b4"/>
     <use xlink:href="#m6d8032b127" x="341.049604" y="131.549904" style="fill: #1f77b4; stroke: #1f77b4"/>
     <use xlink:href="#m6d8032b127" x="342.681033" y="132.380086" style="fill: #1f77b4; stroke: #1f77b4"/>
     <use xlink:href="#m6d8032b127" x="344.312463" y="133.375708" style="fill: #1f77b4; stroke: #1f77b4"/>
     <use xlink:href="#m6d8032b127" x="345.943893" y="134.700998" style="fill: #1f77b4; stroke: #1f77b4"/>
     <use xlink:href="#m6d8032b127" x="347.575323" y="135.04294" style="fill: #1f77b4; stroke: #1f77b4"/>
     <use xlink:href="#m6d8032b127" x="349.206753" y="136.042229" style="fill: #1f77b4; stroke: #1f77b4"/>
     <use xlink:href="#m6d8032b127" x="350.838183" y="136.845715" style="fill: #1f77b4; stroke: #1f77b4"/>
     <use xlink:href="#m6d8032b127" x="352.469613" y="137.421166" style="fill: #1f77b4; stroke: #1f77b4"/>
     <use xlink:href="#m6d8032b127" x="354.101043" y="138.678919" style="fill: #1f77b4; stroke: #1f77b4"/>
     <use xlink:href="#m6d8032b127" x="355.732472" y="139.023256" style="fill: #1f77b4; stroke: #1f77b4"/>
     <use xlink:href="#m6d8032b127" x="357.363902" y="139.144733" style="fill: #1f77b4; stroke: #1f77b4"/>
     <use xlink:href="#m6d8032b127" x="358.995332" y="139.395289" style="fill: #1f77b4; stroke: #1f77b4"/>
     <use xlink:href="#m6d8032b127" x="360.626762" y="140.126522" style="fill: #1f77b4; stroke: #1f77b4"/>
     <use xlink:href="#m6d8032b127" x="362.258192" y="139.965848" style="fill: #1f77b4; stroke: #1f77b4"/>
     <use xlink:href="#m6d8032b127" x="363.889622" y="139.751094" style="fill: #1f77b4; stroke: #1f77b4"/>
     <use xlink:href="#m6d8032b127" x="365.521052" y="139.907474" style="fill: #1f77b4; stroke: #1f77b4"/>
     <use xlink:href="#m6d8032b127" x="367.152482" y="139.211434" style="fill: #1f77b4; stroke: #1f77b4"/>
     <use xlink:href="#m6d8032b127" x="368.783911" y="138.277518" style="fill: #1f77b4; stroke: #1f77b4"/>
     <use xlink:href="#m6d8032b127" x="370.415341" y="136.540749" style="fill: #1f77b4; stroke: #1f77b4"/>
     <use xlink:href="#m6d8032b127" x="372.046771" y="133.305285" style="fill: #1f77b4; stroke: #1f77b4"/>
     <use xlink:href="#m6d8032b127" x="373.678201" y="129.386202" style="fill: #1f77b4; stroke: #1f77b4"/>
     <use xlink:href="#m6d8032b127" x="375.309631" y="124.033389" style="fill: #1f77b4; stroke: #1f77b4"/>
     <use xlink:href="#m6d8032b127" x="376.941061" y="115.61788" style="fill: #1f77b4; stroke: #1f77b4"/>
     <use xlink:href="#m6d8032b127" x="378.572491" y="107.220186" style="fill: #1f77b4; stroke: #1f77b4"/>
     <use xlink:href="#m6d8032b127" x="380.203921" y="105.468313" style="fill: #1f77b4; stroke: #1f77b4"/>
     <use xlink:href="#m6d8032b127" x="381.83535" y="110.710303" style="fill: #1f77b4; stroke: #1f77b4"/>
     <use xlink:href="#m6d8032b127" x="383.46678" y="119.051909" style="fill: #1f77b4; stroke: #1f77b4"/>
     <use xlink:href="#m6d8032b127" x="385.09821" y="125.127108" style="fill: #1f77b4; stroke: #1f77b4"/>
    </g>
   </g>
   <g id="line2d_12">
    <path d="M 60.443665 131.554004 
L 64.668399 135.52762 
L 68.568153 138.887106 
L 72.142928 141.682198 
L 75.717702 144.185352 
L 78.967498 146.193091 
L 82.217293 147.933925 
L 85.142109 149.264294 
L 88.066924 150.364387 
L 90.99174 151.229193 
L 93.916556 151.854796 
L 96.841372 152.238397 
L 99.766187 152.37832 
L 102.691003 152.274023 
L 105.615819 151.926101 
L 108.540634 151.336282 
L 111.46545 150.507419 
L 114.390266 149.443476 
L 117.315082 148.149509 
L 120.564877 146.449474 
L 123.814672 144.482956 
L 127.064467 142.261391 
L 130.639242 139.538526 
L 134.214017 136.541795 
L 138.113771 132.985018 
L 142.338505 128.826721 
L 146.888218 124.039238 
L 152.087891 118.243224 
L 158.587481 110.637355 
L 168.986826 98.050452 
L 179.061191 85.979215 
L 185.235802 78.932117 
L 190.435475 73.337658 
L 194.985188 68.766896 
L 199.209922 64.841215 
L 203.109676 61.523851 
L 206.684451 58.76555 
L 210.259226 56.297427 
L 213.509021 54.319992 
L 216.758816 52.607984 
L 219.683632 51.302283 
L 222.608448 50.225638 
L 225.533263 49.383047 
L 228.458079 48.778405 
L 231.382895 48.414487 
L 234.307711 48.292939 
L 237.232526 48.414261 
L 240.157342 48.777809 
L 243.082158 49.381792 
L 246.006974 50.223284 
L 248.931789 51.29823 
L 251.856605 52.601466 
L 255.1064 54.309611 
L 258.356195 56.281737 
L 261.605991 58.506166 
L 265.180766 61.22867 
L 268.75554 64.220932 
L 272.655295 67.767532 
L 276.880028 71.907656 
L 281.754721 77.016249 
L 287.279373 83.151532 
L 294.103943 91.082586 
L 314.252674 114.744503 
L 319.452346 120.40505 
L 324.00206 125.047438 
L 328.226793 129.035431 
L 331.801568 132.124547 
L 335.376343 134.915258 
L 338.626138 137.162818 
L 341.550954 138.92513 
L 344.47577 140.416707 
L 347.075606 141.49437 
L 349.675442 142.316711 
L 351.950299 142.80752 
L 354.225155 143.064174 
L 356.175033 143.079609 
L 358.12491 142.886666 
L 360.074787 142.462346 
L 362.024664 141.777867 
L 363.649562 140.982674 
L 365.274459 139.955178 
L 366.899357 138.66275 
L 368.524254 137.065307 
L 370.149152 135.114419 
L 371.77405 132.754063 
L 373.398947 129.926257 
L 375.023845 126.589674 
L 376.973722 121.962308 
L 379.573558 115.663636 
L 380.548497 113.986502 
L 381.198456 113.40652 
L 381.523435 113.342797 
L 381.848415 113.461224 
L 382.173395 113.785099 
L 382.498374 114.336211 
L 383.148333 116.191015 
L 383.798292 119.112393 
L 384.448251 123.066955 
L 385.09821 127.875041 
L 385.09821 127.875041 
" clip-path="url(#p8d6f9c740c)" style="fill: none; stroke: #d62728; stroke-width: 1.5; stroke-linecap: square"/>
   </g>
   <g id="patch_3">
    <path d="M 44.210938 162.72 
L 44.210938 41.76 
" style="fill: none; stroke: #000000; stroke-width: 0.8; stroke-linejoin: miter; stroke-linecap: square"/>
   </g>
   <g id="patch_4">
    <path d="M 401.330938 162.72 
L 401.330938 41.76 
" style="fill: none; stroke: #000000; stroke-width: 0.8; stroke-linejoin: miter; stroke-linecap: square"/>
   </g>
   <g id="patch_5">
    <path d="M 44.210938 162.72 
L 401.330937 162.72 
" style="fill: none; stroke: #000000; stroke-width: 0.8; stroke-linejoin: miter; stroke-linecap: square"/>
   </g>
   <g id="patch_6">
    <path d="M 44.210938 41.76 
L 401.330937 41.76 
" style="fill: none; stroke: #000000; stroke-width: 0.8; stroke-linejoin: miter; stroke-linecap: square"/>
   </g>
   <g id="text_7">
    <g id="patch_7">
     <path d="M 419.186937 72.683938 
L 579.29475 72.683938 
Q 583.29475 72.683938 583.29475 68.683938 
L 583.29475 47.808 
Q 583.29475 43.808 579.29475 43.808 
L 419.186937 43.808 
Q 415.186937 43.808 415.186937 47.808 
L 415.186937 68.683938 
Q 415.186937 72.683938 419.186937 72.683938 
z
" style="fill: #ffffff; opacity: 0.5; stroke: #000000; stroke-linejoin: miter"/>
    </g>
    <!-- Warning: fit failed. lmfit was not -->
    <g transform="translate(419.186937 55.406437) scale(0.1 -0.1)">
     <defs>
      <path id="DejaVuSans-57" d="M 213 4666 
L 850 4666 
L 1831 722 
L 2809 4666 
L 3519 4666 
L 4500 722 
L 5478 4666 
L 6119 4666 
L 4947 0 
L 4153 0 
L 3169 4050 
L 2175 0 
L 1381 0 
L 213 4666 
z
" transform="scale(0.015625)"/>
      <path id="DejaVuSans-61" d="M 2194 1759 
Q 1497 1759 1228 1600 
Q 959 1441 959 1056 
Q 959 750 1161 570 
Q 1363 391 1709 391 
Q 2188 391 2477 730 
Q 2766 1069 2766 1631 
L 2766 1759 
L 2194 1759 
z
M 3341 1997 
L 3341 0 
L 2766 0 
L 2766 531 
Q 2569 213 2275 61 
Q 1981 -91 1556 -91 
Q 1019 -91 701 211 
Q 384 513 384 1019 
Q 384 1609 779 1909 
Q 1175 2209 1959 2209 
L 2766 2209 
L 2766 2266 
Q 2766 2663 2505 2880 
Q 2244 3097 1772 3097 
Q 1472 3097 1187 3025 
Q 903 2953 641 2809 
L 641 3341 
Q 956 3463 1253 3523 
Q 1550 3584 1831 3584 
Q 2591 3584 2966 3190 
Q 3341 2797 3341 1997 
z
" transform="scale(0.015625)"/>
      <path id="DejaVuSans-72" d="M 2631 2963 
Q 2534 3019 2420 3045 
Q 2306 3072 2169 3072 
Q 1681 3072 1420 2755 
Q 1159 2438 1159 1844 
L 1159 0 
L 581 0 
L 581 3500 
L 1159 3500 
L 1159 2956 
Q 1341 3275 1631 3429 
Q 1922 3584 2338 3584 
Q 2397 3584 2469 3576 
Q 2541 3569 2628 3553 
L 2631 2963 
z
" transform="scale(0.015625)"/>
      <path id="DejaVuSans-6e" d="M 3513 2113 
L 3513 0 
L 2938 0 
L 2938 2094 
Q 2938 2591 2744 2837 
Q 2550 3084 2163 3084 
Q 1697 3084 1428 2787 
Q 1159 2491 1159 1978 
L 1159 0 
L 581 0 
L 581 3500 
L 1159 3500 
L 1159 2956 
Q 1366 3272 1645 3428 
Q 1925 3584 2291 3584 
Q 2894 3584 3203 3211 
Q 3513 2838 3513 2113 
z
" transform="scale(0.015625)"/>
      <path id="DejaVuSans-69" d="M 603 3500 
L 1178 3500 
L 1178 0 
L 603 0 
L 603 3500 
z
M 603 4863 
L 1178 4863 
L 1178 4134 
L 603 4134 
L 603 4863 
z
" transform="scale(0.015625)"/>
      <path id="DejaVuSans-67" d="M 2906 1791 
Q 2906 2416 2648 2759 
Q 2391 3103 1925 3103 
Q 1463 3103 1205 2759 
Q 947 2416 947 1791 
Q 947 1169 1205 825 
Q 1463 481 1925 481 
Q 2391 481 2648 825 
Q 2906 1169 2906 1791 
z
M 3481 434 
Q 3481 -459 3084 -895 
Q 2688 -1331 1869 -1331 
Q 1566 -1331 1297 -1286 
Q 1028 -1241 775 -1147 
L 775 -588 
Q 1028 -725 1275 -790 
Q 1522 -856 1778 -856 
Q 2344 -856 2625 -561 
Q 2906 -266 2906 331 
L 2906 616 
Q 2728 306 2450 153 
Q 2172 0 1784 0 
Q 1141 0 747 490 
Q 353 981 353 1791 
Q 353 2603 747 3093 
Q 1141 3584 1784 3584 
Q 2172 3584 2450 3431 
Q 2728 3278 2906 2969 
L 2906 3500 
L 3481 3500 
L 3481 434 
z
" transform="scale(0.015625)"/>
      <path id="DejaVuSans-3a" d="M 750 794 
L 1409 794 
L 1409 0 
L 750 0 
L 750 794 
z
M 750 3309 
L 1409 3309 
L 1409 2516 
L 750 2516 
L 750 3309 
z
" transform="scale(0.015625)"/>
      <path id="DejaVuSans-66" d="M 2375 4863 
L 2375 4384 
L 1825 4384 
Q 1516 4384 1395 4259 
Q 1275 4134 1275 3809 
L 1275 3500 
L 2222 3500 
L 2222 3053 
L 1275 3053 
L 1275 0 
L 697 0 
L 697 3053 
L 147 3053 
L 147 3500 
L 697 3500 
L 697 3744 
Q 697 4328 969 4595 
Q 1241 4863 1831 4863 
L 2375 4863 
z
" transform="scale(0.015625)"/>
      <path id="DejaVuSans-74" d="M 1172 4494 
L 1172 3500 
L 2356 3500 
L 2356 3053 
L 1172 3053 
L 1172 1153 
Q 1172 725 1289 603 
Q 1406 481 1766 481 
L 2356 481 
L 2356 0 
L 1766 0 
Q 1100 0 847 248 
Q 594 497 594 1153 
L 594 3053 
L 172 3053 
L 172 3500 
L 594 3500 
L 594 4494 
L 1172 4494 
z
" transform="scale(0.015625)"/>
      <path id="DejaVuSans-6c" d="M 603 4863 
L 1178 4863 
L 1178 0 
L 603 0 
L 603 4863 
z
" transform="scale(0.015625)"/>
      <path id="DejaVuSans-64" d="M 2906 2969 
L 2906 4863 
L 3481 4863 
L 3481 0 
L 2906 0 
L 2906 525 
Q 2725 213 2448 61 
Q 2172 -91 1784 -91 
Q 1150 -91 751 415 
Q 353 922 353 1747 
Q 353 2572 751 3078 
Q 1150 3584 1784 3584 
Q 2172 3584 2448 3432 
Q 2725 3281 2906 2969 
z
M 947 1747 
Q 947 1113 1208 752 
Q 1469 391 1925 391 
Q 2381 391 2643 752 
Q 2906 1113 2906 1747 
Q 2906 2381 2643 2742 
Q 2381 3103 1925 3103 
Q 1469 3103 1208 2742 
Q 947 2381 947 1747 
z
" transform="scale(0.015625)"/>
      <path id="DejaVuSans-2e" d="M 684 794 
L 1344 794 
L 1344 0 
L 684 0 
L 684 794 
z
" transform="scale(0.015625)"/>
      <path id="DejaVuSans-77" d="M 269 3500 
L 844 3500 
L 1563 769 
L 2278 3500 
L 2956 3500 
L 3675 769 
L 4391 3500 
L 4966 3500 
L 4050 0 
L 3372 0 
L 2619 2869 
L 1863 0 
L 1184 0 
L 269 3500 
z
" transform="scale(0.015625)"/>
      <path id="DejaVuSans-73" d="M 2834 3397 
L 2834 2853 
Q 2591 2978 2328 3040 
Q 2066 3103 1784 3103 
Q 1356 3103 1142 2972 
Q 928 2841 928 2578 
Q 928 2378 1081 2264 
Q 1234 2150 1697 2047 
L 1894 2003 
Q 2506 1872 2764 1633 
Q 3022 1394 3022 966 
Q 3022 478 2636 193 
Q 2250 -91 1575 -91 
Q 1294 -91 989 -36 
Q 684 19 347 128 
L 347 722 
Q 666 556 975 473 
Q 1284 391 1588 391 
Q 1994 391 2212 530 
Q 2431 669 2431 922 
Q 2431 1156 2273 1281 
Q 2116 1406 1581 1522 
L 1381 1569 
Q 847 1681 609 1914 
Q 372 2147 372 2553 
Q 372 3047 722 3315 
Q 1072 3584 1716 3584 
Q 2034 3584 2315 3537 
Q 2597 3491 2834 3397 
z
" transform="scale(0.015625)"/>
      <path id="DejaVuSans-6f" d="M 1959 3097 
Q 1497 3097 1228 2736 
Q 959 2375 959 1747 
Q 959 1119 1226 758 
Q 1494 397 1959 397 
Q 2419 397 2687 759 
Q 2956 1122 2956 1747 
Q 2956 2369 2687 2733 
Q 2419 3097 1959 3097 
z
M 1959 3584 
Q 2709 3584 3137 3096 
Q 3566 2609 3566 1747 
Q 3566 888 3137 398 
Q 2709 -91 1959 -91 
Q 1206 -91 779 398 
Q 353 888 353 1747 
Q 353 2609 779 3096 
Q 1206 3584 1959 3584 
z
" transform="scale(0.015625)"/>
     </defs>
     <use xlink:href="#DejaVuSans-57"/>
     <use xlink:href="#DejaVuSans-61" x="92.501953"/>
     <use xlink:href="#DejaVuSans-72" x="153.78125"/>
     <use xlink:href="#DejaVuSans-6e" x="193.144531"/>
     <use xlink:href="#DejaVuSans-69" x="256.523438"/>
     <use xlink:href="#DejaVuSans-6e" x="284.306641"/>
     <use xlink:href="#DejaVuSans-67" x="347.685547"/>
     <use xlink:href="#DejaVuSans-3a" x="411.162109"/>
     <use xlink:href="#DejaVuSans-20" x="444.853516"/>
     <use xlink:href="#DejaVuSans-66" x="476.640625"/>
     <use xlink:href="#DejaVuSans-69" x="511.845703"/>
     <use xlink:href="#DejaVuSans-74" x="539.628906"/>
     <use xlink:href="#DejaVuSans-20" x="578.837891"/>
     <use xlink:href="#DejaVuSans-66" x="610.625"/>
     <use xlink:href="#DejaVuSans-61" x="645.830078"/>
     <use xlink:href="#DejaVuSans-69" x="707.109375"/>
     <use xlink:href="#DejaVuSans-6c" x="734.892578"/>
     <use xlink:href="#DejaVuSans-65" x="762.675781"/>
     <use xlink:href="#DejaVuSans-64" x="824.199219"/>
     <use xlink:href="#DejaVuSans-2e" x="887.675781"/>
     <use xlink:href="#DejaVuSans-20" x="919.462891"/>
     <use xlink:href="#DejaVuSans-6c" x="951.25"/>
     <use xlink:href="#DejaVuSans-6d" x="979.033203"/>
     <use xlink:href="#DejaVuSans-66" x="1076.445312"/>
     <use xlink:href="#DejaVuSans-69" x="1111.650391"/>
     <use xlink:href="#DejaVuSans-74" x="1139.433594"/>
     <use xlink:href="#DejaVuSans-20" x="1178.642578"/>
     <use xlink:href="#DejaVuSans-77" x="1210.429688"/>
     <use xlink:href="#DejaVuSans-61" x="1292.216797"/>
     <use xlink:href="#DejaVuSans-73" x="1353.496094"/>
     <use xlink:href="#DejaVuSans-20" x="1405.595703"/>
     <use xlink:href="#DejaVuSans-6e" x="1437.382812"/>
     <use xlink:href="#DejaVuSans-6f" x="1500.761719"/>
     <use xlink:href="#DejaVuSans-74" x="1561.943359"/>
    </g>
    <!-- able to fit the data. -->
    <g transform="translate(419.186937 66.60425) scale(0.1 -0.1)">
     <defs>
      <path id="DejaVuSans-62" d="M 3116 1747 
Q 3116 2381 2855 2742 
Q 2594 3103 2138 3103 
Q 1681 3103 1420 2742 
Q 1159 2381 1159 1747 
Q 1159 1113 1420 752 
Q 1681 391 2138 391 
Q 2594 391 2855 752 
Q 3116 1113 3116 1747 
z
M 1159 2969 
Q 1341 3281 1617 3432 
Q 1894 3584 2278 3584 
Q 2916 3584 3314 3078 
Q 3713 2572 3713 1747 
Q 3713 922 3314 415 
Q 2916 -91 2278 -91 
Q 1894 -91 1617 61 
Q 1341 213 1159 525 
L 1159 0 
L 581 0 
L 581 4863 
L 1159 4863 
L 1159 2969 
z
" transform="scale(0.015625)"/>
      <path id="DejaVuSans-68" d="M 3513 2113 
L 3513 0 
L 2938 0 
L 2938 2094 
Q 2938 2591 2744 2837 
Q 2550 3084 2163 3084 
Q 1697 3084 1428 2787 
Q 1159 2491 1159 1978 
L 1159 0 
L 581 0 
L 581 4863 
L 1159 4863 
L 1159 2956 
Q 1366 3272 1645 3428 
Q 1925 3584 2291 3584 
Q 2894 3584 3203 3211 
Q 3513 2838 3513 2113 
z
" transform="scale(0.015625)"/>
     </defs>
     <use xlink:href="#DejaVuSans-61"/>
     <use xlink:href="#DejaVuSans-62" x="61.279297"/>
     <use xlink:href="#DejaVuSans-6c" x="124.755859"/>
     <use xlink:href="#DejaVuSans-65" x="152.539062"/>
     <use xlink:href="#DejaVuSans-20" x="214.0625"/>
     <use xlink:href="#DejaVuSans-74" x="245.849609"/>
     <use xlink:href="#DejaVuSans-6f" x="285.058594"/>
     <use xlink:href="#DejaVuSans-20" x="346.240234"/>
     <use xlink:href="#DejaVuSans-66" x="378.027344"/>
     <use xlink:href="#DejaVuSans-69" x="413.232422"/>
     <use xlink:href="#DejaVuSans-74" x="441.015625"/>
     <use xlink:href="#DejaVuSans-20" x="480.224609"/>
     <use xlink:href="#DejaVuSans-74" x="512.011719"/>
     <use xlink:href="#DejaVuSans-68" x="551.220703"/>
     <use xlink:href="#DejaVuSans-65" x="614.599609"/>
     <use xlink:href="#DejaVuSans-20" x="676.123047"/>
     <use xlink:href="#DejaVuSans-64" x="707.910156"/>
     <use xlink:href="#DejaVuSans-61" x="771.386719"/>
     <use xlink:href="#DejaVuSans-74" x="832.666016"/>
     <use xlink:href="#DejaVuSans-61" x="871.875"/>
     <use xlink:href="#DejaVuSans-2e" x="933.154297"/>
    </g>
   </g>
  </g>
  <g id="axes_2">
   <g id="patch_8">
    <path d="M 44.210938 307.872 
L 401.330938 307.872 
L 401.330938 186.912 
L 44.210938 186.912 
z
" style="fill: #ffffff"/>
   </g>
   <g id="matplotlib.axis_3">
    <g id="xtick_6">
     <g id="line2d_13">
      <g>
       <use xlink:href="#mda8dfcba53" x="97.778937" y="307.872" style="stroke: #000000; stroke-width: 0.8"/>
      </g>
     </g>
     <g id="text_8">
      <!-- 20 -->
      <g transform="translate(91.416437 322.470438) scale(0.1 -0.1)">
       <use xlink:href="#DejaVuSans-32"/>
       <use xlink:href="#DejaVuSans-30" x="63.623047"/>
      </g>
     </g>
    </g>
    <g id="xtick_7">
     <g id="line2d_14">
      <g>
       <use xlink:href="#mda8dfcba53" x="162.709847" y="307.872" style="stroke: #000000; stroke-width: 0.8"/>
      </g>
     </g>
     <g id="text_9">
      <!-- 40 -->
      <g transform="translate(156.347347 322.470438) scale(0.1 -0.1)">
       <defs>
        <path id="DejaVuSans-34" d="M 2419 4116 
L 825 1625 
L 2419 1625 
L 2419 4116 
z
M 2253 4666 
L 3047 4666 
L 3047 1625 
L 3713 1625 
L 3713 1100 
L 3047 1100 
L 3047 0 
L 2419 0 
L 2419 1100 
L 313 1100 
L 313 1709 
L 2253 4666 
z
" transform="scale(0.015625)"/>
       </defs>
       <use xlink:href="#DejaVuSans-34"/>
       <use xlink:href="#DejaVuSans-30" x="63.623047"/>
      </g>
     </g>
    </g>
    <g id="xtick_8">
     <g id="line2d_15">
      <g>
       <use xlink:href="#mda8dfcba53" x="227.640756" y="307.872" style="stroke: #000000; stroke-width: 0.8"/>
      </g>
     </g>
     <g id="text_10">
      <!-- 60 -->
      <g transform="translate(221.278256 322.470438) scale(0.1 -0.1)">
       <defs>
        <path id="DejaVuSans-36" d="M 2113 2584 
Q 1688 2584 1439 2293 
Q 1191 2003 1191 1497 
Q 1191 994 1439 701 
Q 1688 409 2113 409 
Q 2538 409 2786 701 
Q 3034 994 3034 1497 
Q 3034 2003 2786 2293 
Q 2538 2584 2113 2584 
z
M 3366 4563 
L 3366 3988 
Q 3128 4100 2886 4159 
Q 2644 4219 2406 4219 
Q 1781 4219 1451 3797 
Q 1122 3375 1075 2522 
Q 1259 2794 1537 2939 
Q 1816 3084 2150 3084 
Q 2853 3084 3261 2657 
Q 3669 2231 3669 1497 
Q 3669 778 3244 343 
Q 2819 -91 2113 -91 
Q 1303 -91 875 529 
Q 447 1150 447 2328 
Q 447 3434 972 4092 
Q 1497 4750 2381 4750 
Q 2619 4750 2861 4703 
Q 3103 4656 3366 4563 
z
" transform="scale(0.015625)"/>
       </defs>
       <use xlink:href="#DejaVuSans-36"/>
       <use xlink:href="#DejaVuSans-30" x="63.623047"/>
      </g>
     </g>
    </g>
    <g id="xtick_9">
     <g id="line2d_16">
      <g>
       <use xlink:href="#mda8dfcba53" x="292.571665" y="307.872" style="stroke: #000000; stroke-width: 0.8"/>
      </g>
     </g>
     <g id="text_11">
      <!-- 80 -->
      <g transform="translate(286.209165 322.470438) scale(0.1 -0.1)">
       <defs>
        <path id="DejaVuSans-38" d="M 2034 2216 
Q 1584 2216 1326 1975 
Q 1069 1734 1069 1313 
Q 1069 891 1326 650 
Q 1584 409 2034 409 
Q 2484 409 2743 651 
Q 3003 894 3003 1313 
Q 3003 1734 2745 1975 
Q 2488 2216 2034 2216 
z
M 1403 2484 
Q 997 2584 770 2862 
Q 544 3141 544 3541 
Q 544 4100 942 4425 
Q 1341 4750 2034 4750 
Q 2731 4750 3128 4425 
Q 3525 4100 3525 3541 
Q 3525 3141 3298 2862 
Q 3072 2584 2669 2484 
Q 3125 2378 3379 2068 
Q 3634 1759 3634 1313 
Q 3634 634 3220 271 
Q 2806 -91 2034 -91 
Q 1263 -91 848 271 
Q 434 634 434 1313 
Q 434 1759 690 2068 
Q 947 2378 1403 2484 
z
M 1172 3481 
Q 1172 3119 1398 2916 
Q 1625 2713 2034 2713 
Q 2441 2713 2670 2916 
Q 2900 3119 2900 3481 
Q 2900 3844 2670 4047 
Q 2441 4250 2034 4250 
Q 1625 4250 1398 4047 
Q 1172 3844 1172 3481 
z
" transform="scale(0.015625)"/>
       </defs>
       <use xlink:href="#DejaVuSans-38"/>
       <use xlink:href="#DejaVuSans-30" x="63.623047"/>
      </g>
     </g>
    </g>
    <g id="xtick_10">
     <g id="line2d_17">
      <g>
       <use xlink:href="#mda8dfcba53" x="357.502574" y="307.872" style="stroke: #000000; stroke-width: 0.8"/>
      </g>
     </g>
     <g id="text_12">
      <!-- 100 -->
      <g transform="translate(347.958824 322.470438) scale(0.1 -0.1)">
       <use xlink:href="#DejaVuSans-31"/>
       <use xlink:href="#DejaVuSans-30" x="63.623047"/>
       <use xlink:href="#DejaVuSans-30" x="127.246094"/>
      </g>
     </g>
    </g>
    <g id="text_13">
     <!-- Frequency [MHz] -->
     <g transform="translate(180.752187 336.148562) scale(0.1 -0.1)">
      <defs>
       <path id="DejaVuSans-46" d="M 628 4666 
L 3309 4666 
L 3309 4134 
L 1259 4134 
L 1259 2759 
L 3109 2759 
L 3109 2228 
L 1259 2228 
L 1259 0 
L 628 0 
L 628 4666 
z
" transform="scale(0.015625)"/>
       <path id="DejaVuSans-71" d="M 947 1747 
Q 947 1113 1208 752 
Q 1469 391 1925 391 
Q 2381 391 2643 752 
Q 2906 1113 2906 1747 
Q 2906 2381 2643 2742 
Q 2381 3103 1925 3103 
Q 1469 3103 1208 2742 
Q 947 2381 947 1747 
z
M 2906 525 
Q 2725 213 2448 61 
Q 2172 -91 1784 -91 
Q 1150 -91 751 415 
Q 353 922 353 1747 
Q 353 2572 751 3078 
Q 1150 3584 1784 3584 
Q 2172 3584 2448 3432 
Q 2725 3281 2906 2969 
L 2906 3500 
L 3481 3500 
L 3481 -1331 
L 2906 -1331 
L 2906 525 
z
" transform="scale(0.015625)"/>
       <path id="DejaVuSans-75" d="M 544 1381 
L 544 3500 
L 1119 3500 
L 1119 1403 
Q 1119 906 1312 657 
Q 1506 409 1894 409 
Q 2359 409 2629 706 
Q 2900 1003 2900 1516 
L 2900 3500 
L 3475 3500 
L 3475 0 
L 2900 0 
L 2900 538 
Q 2691 219 2414 64 
Q 2138 -91 1772 -91 
Q 1169 -91 856 284 
Q 544 659 544 1381 
z
M 1991 3584 
L 1991 3584 
z
" transform="scale(0.015625)"/>
       <path id="DejaVuSans-63" d="M 3122 3366 
L 3122 2828 
Q 2878 2963 2633 3030 
Q 2388 3097 2138 3097 
Q 1578 3097 1268 2742 
Q 959 2388 959 1747 
Q 959 1106 1268 751 
Q 1578 397 2138 397 
Q 2388 397 2633 464 
Q 2878 531 3122 666 
L 3122 134 
Q 2881 22 2623 -34 
Q 2366 -91 2075 -91 
Q 1284 -91 818 406 
Q 353 903 353 1747 
Q 353 2603 823 3093 
Q 1294 3584 2113 3584 
Q 2378 3584 2631 3529 
Q 2884 3475 3122 3366 
z
" transform="scale(0.015625)"/>
       <path id="DejaVuSans-79" d="M 2059 -325 
Q 1816 -950 1584 -1140 
Q 1353 -1331 966 -1331 
L 506 -1331 
L 506 -850 
L 844 -850 
Q 1081 -850 1212 -737 
Q 1344 -625 1503 -206 
L 1606 56 
L 191 3500 
L 800 3500 
L 1894 763 
L 2988 3500 
L 3597 3500 
L 2059 -325 
z
" transform="scale(0.015625)"/>
       <path id="DejaVuSans-4d" d="M 628 4666 
L 1569 4666 
L 2759 1491 
L 3956 4666 
L 4897 4666 
L 4897 0 
L 4281 0 
L 4281 4097 
L 3078 897 
L 2444 897 
L 1241 4097 
L 1241 0 
L 628 0 
L 628 4666 
z
" transform="scale(0.015625)"/>
       <path id="DejaVuSans-48" d="M 628 4666 
L 1259 4666 
L 1259 2753 
L 3553 2753 
L 3553 4666 
L 4184 4666 
L 4184 0 
L 3553 0 
L 3553 2222 
L 1259 2222 
L 1259 0 
L 628 0 
L 628 4666 
z
" transform="scale(0.015625)"/>
       <path id="DejaVuSans-7a" d="M 353 3500 
L 3084 3500 
L 3084 2975 
L 922 459 
L 3084 459 
L 3084 0 
L 275 0 
L 275 525 
L 2438 3041 
L 353 3041 
L 353 3500 
z
" transform="scale(0.015625)"/>
      </defs>
      <use xlink:href="#DejaVuSans-46"/>
      <use xlink:href="#DejaVuSans-72" x="50.269531"/>
      <use xlink:href="#DejaVuSans-65" x="89.132812"/>
      <use xlink:href="#DejaVuSans-71" x="150.65625"/>
      <use xlink:href="#DejaVuSans-75" x="214.132812"/>
      <use xlink:href="#DejaVuSans-65" x="277.511719"/>
      <use xlink:href="#DejaVuSans-6e" x="339.035156"/>
      <use xlink:href="#DejaVuSans-63" x="402.414062"/>
      <use xlink:href="#DejaVuSans-79" x="457.394531"/>
      <use xlink:href="#DejaVuSans-20" x="516.574219"/>
      <use xlink:href="#DejaVuSans-5b" x="548.361328"/>
      <use xlink:href="#DejaVuSans-4d" x="587.375"/>
      <use xlink:href="#DejaVuSans-48" x="673.654297"/>
      <use xlink:href="#DejaVuSans-7a" x="748.849609"/>
      <use xlink:href="#DejaVuSans-5d" x="801.339844"/>
     </g>
    </g>
    <g id="text_14">
     <!-- +6 GHz -->
     <g transform="translate(362.893438 335.148562) scale(0.1 -0.1)">
      <defs>
       <path id="DejaVuSans-2b" d="M 2944 4013 
L 2944 2272 
L 4684 2272 
L 4684 1741 
L 2944 1741 
L 2944 0 
L 2419 0 
L 2419 1741 
L 678 1741 
L 678 2272 
L 2419 2272 
L 2419 4013 
L 2944 4013 
z
" transform="scale(0.015625)"/>
       <path id="DejaVuSans-47" d="M 3809 666 
L 3809 1919 
L 2778 1919 
L 2778 2438 
L 4434 2438 
L 4434 434 
Q 4069 175 3628 42 
Q 3188 -91 2688 -91 
Q 1594 -91 976 548 
Q 359 1188 359 2328 
Q 359 3472 976 4111 
Q 1594 4750 2688 4750 
Q 3144 4750 3555 4637 
Q 3966 4525 4313 4306 
L 4313 3634 
Q 3963 3931 3569 4081 
Q 3175 4231 2741 4231 
Q 1884 4231 1454 3753 
Q 1025 3275 1025 2328 
Q 1025 1384 1454 906 
Q 1884 428 2741 428 
Q 3075 428 3337 486 
Q 3600 544 3809 666 
z
" transform="scale(0.015625)"/>
      </defs>
      <use xlink:href="#DejaVuSans-2b"/>
      <use xlink:href="#DejaVuSans-36" x="83.789062"/>
      <use xlink:href="#DejaVuSans-20" x="147.412109"/>
      <use xlink:href="#DejaVuSans-47" x="179.199219"/>
      <use xlink:href="#DejaVuSans-48" x="256.689453"/>
      <use xlink:href="#DejaVuSans-7a" x="331.884766"/>
     </g>
    </g>
   </g>
   <g id="matplotlib.axis_4">
    <g id="ytick_6">
     <g id="line2d_18">
      <g>
       <use xlink:href="#m9c491dcd7d" x="44.210938" y="304.3529" style="stroke: #000000; stroke-width: 0.8"/>
      </g>
     </g>
     <g id="text_15">
      <!-- -10 -->
      <g transform="translate(20.878125 308.152119) scale(0.1 -0.1)">
       <use xlink:href="#DejaVuSans-2d"/>
       <use xlink:href="#DejaVuSans-31" x="36.083984"/>
       <use xlink:href="#DejaVuSans-30" x="99.707031"/>
      </g>
     </g>
    </g>
    <g id="ytick_7">
     <g id="line2d_19">
      <g>
       <use xlink:href="#m9c491dcd7d" x="44.210938" y="277.380808" style="stroke: #000000; stroke-width: 0.8"/>
      </g>
     </g>
     <g id="text_16">
      <!-- -5 -->
      <g transform="translate(27.240625 281.180027) scale(0.1 -0.1)">
       <use xlink:href="#DejaVuSans-2d"/>
       <use xlink:href="#DejaVuSans-35" x="36.083984"/>
      </g>
     </g>
    </g>
    <g id="ytick_8">
     <g id="line2d_20">
      <g>
       <use xlink:href="#m9c491dcd7d" x="44.210938" y="250.408716" style="stroke: #000000; stroke-width: 0.8"/>
      </g>
     </g>
     <g id="text_17">
      <!-- 0 -->
      <g transform="translate(30.848437 254.207934) scale(0.1 -0.1)">
       <use xlink:href="#DejaVuSans-30"/>
      </g>
     </g>
    </g>
    <g id="ytick_9">
     <g id="line2d_21">
      <g>
       <use xlink:href="#m9c491dcd7d" x="44.210938" y="223.436623" style="stroke: #000000; stroke-width: 0.8"/>
      </g>
     </g>
     <g id="text_18">
      <!-- 5 -->
      <g transform="translate(30.848437 227.235842) scale(0.1 -0.1)">
       <use xlink:href="#DejaVuSans-35"/>
      </g>
     </g>
    </g>
    <g id="ytick_10">
     <g id="line2d_22">
      <g>
       <use xlink:href="#m9c491dcd7d" x="44.210938" y="196.464531" style="stroke: #000000; stroke-width: 0.8"/>
      </g>
     </g>
     <g id="text_19">
      <!-- 10 -->
      <g transform="translate(24.485937 200.26375) scale(0.1 -0.1)">
       <use xlink:href="#DejaVuSans-31"/>
       <use xlink:href="#DejaVuSans-30" x="63.623047"/>
      </g>
     </g>
    </g>
    <g id="text_20">
     <!-- Im$(S_{21})$ [mV] -->
     <g transform="translate(14.798437 279.042) rotate(-90) scale(0.1 -0.1)">
      <defs>
       <path id="DejaVuSans-49" d="M 628 4666 
L 1259 4666 
L 1259 0 
L 628 0 
L 628 4666 
z
" transform="scale(0.015625)"/>
      </defs>
      <use xlink:href="#DejaVuSans-49" transform="translate(0 0.015625)"/>
      <use xlink:href="#DejaVuSans-6d" transform="translate(25.867188 0.015625)"/>
      <use xlink:href="#DejaVuSans-28" transform="translate(123.279297 0.015625)"/>
      <use xlink:href="#DejaVuSans-Oblique-53" transform="translate(162.292969 0.015625)"/>
      <use xlink:href="#DejaVuSans-32" transform="translate(225.769531 -16.390625) scale(0.7)"/>
      <use xlink:href="#DejaVuSans-31" transform="translate(270.305664 -16.390625) scale(0.7)"/>
      <use xlink:href="#DejaVuSans-29" transform="translate(317.576172 0.015625)"/>
      <use xlink:href="#DejaVuSans-20" transform="translate(356.589844 0.015625)"/>
      <use xlink:href="#DejaVuSans-5b" transform="translate(388.376953 0.015625)"/>
      <use xlink:href="#DejaVuSans-6d" transform="translate(427.390625 0.015625)"/>
      <use xlink:href="#DejaVuSans-56" transform="translate(524.802734 0.015625)"/>
      <use xlink:href="#DejaVuSans-5d" transform="translate(593.210938 0.015625)"/>
     </g>
    </g>
   </g>
   <g id="line2d_23">
    <path d="M 60.443665 267.956759 
L 62.075095 283.792989 
L 63.706525 290.409528 
L 65.337954 292.768917 
L 66.969384 292.340257 
L 68.600814 290.307882 
L 70.232244 287.879243 
L 71.863674 285.749808 
L 73.495104 284.162356 
L 75.126534 281.934607 
L 76.757964 279.478778 
L 78.389393 276.696842 
L 80.020823 273.650803 
L 81.652253 272.054544 
L 83.283683 269.460087 
L 84.915113 266.436589 
L 86.546543 264.455514 
L 88.177973 262.29777 
L 89.809403 259.102364 
L 91.440832 256.859413 
L 93.072262 254.427202 
L 94.703692 251.359595 
L 101.229412 242.147446 
L 104.492271 238.19763 
L 106.123701 235.54556 
L 107.755131 233.376174 
L 111.017991 229.490213 
L 112.649421 227.216605 
L 114.280851 225.589419 
L 115.912281 223.68954 
L 117.54371 221.966688 
L 119.17514 219.884963 
L 122.438 216.574032 
L 124.06943 215.029342 
L 125.70086 213.133638 
L 127.33229 212.316971 
L 128.96372 210.385873 
L 130.595149 209.132364 
L 132.226579 207.594912 
L 133.858009 206.343599 
L 135.489439 205.433859 
L 137.120869 203.930631 
L 138.752299 203.021577 
L 140.383729 201.468635 
L 142.015159 200.584686 
L 143.646588 199.467403 
L 145.278018 199.074706 
L 146.909448 197.433606 
L 150.172308 196.189906 
L 151.803738 196.189443 
L 153.435168 194.78129 
L 155.066598 194.43239 
L 156.698027 194.322195 
L 158.329457 193.923717 
L 159.960887 192.853535 
L 161.592317 192.410182 
L 163.223747 193.434585 
L 166.486607 192.684573 
L 168.118037 192.941589 
L 169.749467 193.413937 
L 171.380896 193.179508 
L 173.012326 193.566338 
L 174.643756 193.325075 
L 176.275186 194.842575 
L 177.906616 195.355898 
L 179.538046 195.639091 
L 181.169476 196.289396 
L 182.800906 198.010954 
L 184.432335 198.853694 
L 186.063765 199.376439 
L 187.695195 201.117341 
L 189.326625 201.715151 
L 190.958055 202.60399 
L 192.589485 204.692836 
L 194.220915 205.688662 
L 195.852345 207.297483 
L 197.483774 208.432861 
L 200.746634 211.437795 
L 202.378064 212.86833 
L 204.009494 214.701695 
L 205.640924 217.039668 
L 207.272354 218.173541 
L 208.903784 220.022852 
L 210.535213 221.504366 
L 212.166643 223.655545 
L 213.798073 224.900106 
L 215.429503 226.869205 
L 217.060933 229.257254 
L 218.692363 231.314659 
L 220.323793 232.65139 
L 221.955223 234.33558 
L 223.586652 236.422101 
L 225.218082 238.898509 
L 226.849512 240.733191 
L 228.480942 242.364857 
L 231.743802 246.712624 
L 233.375232 248.438978 
L 235.006662 249.793308 
L 236.638091 252.470494 
L 238.269521 253.770642 
L 239.900951 255.916071 
L 241.532381 257.677381 
L 243.163811 259.965834 
L 246.426671 263.204032 
L 249.68953 267.159751 
L 251.32096 268.742764 
L 252.95239 270.047901 
L 254.58382 272.330059 
L 256.21525 274.148016 
L 257.84668 275.62064 
L 259.47811 277.633362 
L 261.10954 278.403303 
L 262.740969 280.159283 
L 266.003829 282.939832 
L 267.635259 284.388024 
L 269.266689 285.487117 
L 270.898119 286.943162 
L 272.529549 287.761007 
L 274.160979 289.670671 
L 275.792408 290.647277 
L 279.055268 292.928434 
L 280.686698 293.429348 
L 282.318128 293.4992 
L 283.949558 295.419722 
L 285.580988 296.220139 
L 288.843848 297.323917 
L 290.475277 297.71894 
L 292.106707 297.363277 
L 293.738137 298.487007 
L 295.369567 298.951238 
L 297.000997 298.709348 
L 298.632427 300.107974 
L 300.263857 298.883224 
L 301.895287 298.505694 
L 303.526716 299.036873 
L 305.158146 298.721693 
L 306.789576 298.994199 
L 308.421006 298.904687 
L 310.052436 298.262545 
L 311.683866 297.814495 
L 313.315296 297.604235 
L 314.946726 296.837239 
L 316.578155 295.622112 
L 318.209585 295.356622 
L 319.841015 295.355621 
L 321.472445 294.054741 
L 323.103875 293.629793 
L 324.735305 292.389607 
L 326.366735 291.886631 
L 327.998165 289.805738 
L 329.629594 289.334222 
L 331.261024 288.470916 
L 332.892454 287.113477 
L 334.523884 285.520111 
L 336.155314 284.581049 
L 337.786744 282.950121 
L 339.418174 281.923445 
L 341.049604 281.041259 
L 342.681033 279.279094 
L 344.312463 278.504685 
L 345.943893 276.318521 
L 347.575323 274.757199 
L 349.206753 273.582058 
L 350.838183 271.267491 
L 354.101043 268.391487 
L 355.732472 266.062122 
L 357.363902 264.34225 
L 358.995332 261.860015 
L 360.626762 259.700268 
L 362.258192 256.868256 
L 363.889622 254.592082 
L 368.783911 245.509209 
L 370.415341 242.106424 
L 372.046771 239.178768 
L 373.678201 235.52959 
L 375.309631 233.473322 
L 376.941061 233.987102 
L 378.572491 241.039914 
L 380.203921 252.81044 
L 381.83535 262.509969 
L 383.46678 265.419266 
L 385.09821 265.082752 
L 385.09821 265.082752 
" clip-path="url(#p114620e062)" style="fill: none; stroke: #1f77b4; stroke-width: 1.5; stroke-linecap: square"/>
    <g clip-path="url(#p114620e062)">
     <use xlink:href="#m6d8032b127" x="60.443665" y="267.956759" style="fill: #1f77b4; stroke: #1f77b4"/>
     <use xlink:href="#m6d8032b127" x="62.075095" y="283.792989" style="fill: #1f77b4; stroke: #1f77b4"/>
     <use xlink:href="#m6d8032b127" x="63.706525" y="290.409528" style="fill: #1f77b4; stroke: #1f77b4"/>
     <use xlink:href="#m6d8032b127" x="65.337954" y="292.768917" style="fill: #1f77b4; stroke: #1f77b4"/>
     <use xlink:href="#m6d8032b127" x="66.969384" y="292.340257" style="fill: #1f77b4; stroke: #1f77b4"/>
     <use xlink:href="#m6d8032b127" x="68.600814" y="290.307882" style="fill: #1f77b4; stroke: #1f77b4"/>
     <use xlink:href="#m6d8032b127" x="70.232244" y="287.879243" style="fill: #1f77b4; stroke: #1f77b4"/>
     <use xlink:href="#m6d8032b127" x="71.863674" y="285.749808" style="fill: #1f77b4; stroke: #1f77b4"/>
     <use xlink:href="#m6d8032b127" x="73.495104" y="284.162356" style="fill: #1f77b4; stroke: #1f77b4"/>
     <use xlink:href="#m6d8032b127" x="75.126534" y="281.934607" style="fill: #1f77b4; stroke: #1f77b4"/>
     <use xlink:href="#m6d8032b127" x="76.757964" y="279.478778" style="fill: #1f77b4; stroke: #1f77b4"/>
     <use xlink:href="#m6d8032b127" x="78.389393" y="276.696842" style="fill: #1f77b4; stroke: #1f77b4"/>
     <use xlink:href="#m6d8032b127" x="80.020823" y="273.650803" style="fill: #1f77b4; stroke: #1f77b4"/>
     <use xlink:href="#m6d8032b127" x="81.652253" y="272.054544" style="fill: #1f77b4; stroke: #1f77b4"/>
     <use xlink:href="#m6d8032b127" x="83.283683" y="269.460087" style="fill: #1f77b4; stroke: #1f77b4"/>
     <use xlink:href="#m6d8032b127" x="84.915113" y="266.436589" style="fill: #1f77b4; stroke: #1f77b4"/>
     <use xlink:href="#m6d8032b127" x="86.546543" y="264.455514" style="fill: #1f77b4; stroke: #1f77b4"/>
     <use xlink:href="#m6d8032b127" x="88.177973" y="262.29777" style="fill: #1f77b4; stroke: #1f77b4"/>
     <use xlink:href="#m6d8032b127" x="89.809403" y="259.102364" style="fill: #1f77b4; stroke: #1f77b4"/>
     <use xlink:href="#m6d8032b127" x="91.440832" y="256.859413" style="fill: #1f77b4; stroke: #1f77b4"/>
     <use xlink:href="#m6d8032b127" x="93.072262" y="254.427202" style="fill: #1f77b4; stroke: #1f77b4"/>
     <use xlink:href="#m6d8032b127" x="94.703692" y="251.359595" style="fill: #1f77b4; stroke: #1f77b4"/>
     <use xlink:href="#m6d8032b127" x="96.335122" y="249.030997" style="fill: #1f77b4; stroke: #1f77b4"/>
     <use xlink:href="#m6d8032b127" x="97.966552" y="246.576222" style="fill: #1f77b4; stroke: #1f77b4"/>
     <use xlink:href="#m6d8032b127" x="99.597982" y="244.345516" style="fill: #1f77b4; stroke: #1f77b4"/>
     <use xlink:href="#m6d8032b127" x="101.229412" y="242.147446" style="fill: #1f77b4; stroke: #1f77b4"/>
     <use xlink:href="#m6d8032b127" x="102.860842" y="240.21188" style="fill: #1f77b4; stroke: #1f77b4"/>
     <use xlink:href="#m6d8032b127" x="104.492271" y="238.19763" style="fill: #1f77b4; stroke: #1f77b4"/>
     <use xlink:href="#m6d8032b127" x="106.123701" y="235.54556" style="fill: #1f77b4; stroke: #1f77b4"/>
     <use xlink:href="#m6d8032b127" x="107.755131" y="233.376174" style="fill: #1f77b4; stroke: #1f77b4"/>
     <use xlink:href="#m6d8032b127" x="109.386561" y="231.448554" style="fill: #1f77b4; stroke: #1f77b4"/>
     <use xlink:href="#m6d8032b127" x="111.017991" y="229.490213" style="fill: #1f77b4; stroke: #1f77b4"/>
     <use xlink:href="#m6d8032b127" x="112.649421" y="227.216605" style="fill: #1f77b4; stroke: #1f77b4"/>
     <use xlink:href="#m6d8032b127" x="114.280851" y="225.589419" style="fill: #1f77b4; stroke: #1f77b4"/>
     <use xlink:href="#m6d8032b127" x="115.912281" y="223.68954" style="fill: #1f77b4; stroke: #1f77b4"/>
     <use xlink:href="#m6d8032b127" x="117.54371" y="221.966688" style="fill: #1f77b4; stroke: #1f77b4"/>
     <use xlink:href="#m6d8032b127" x="119.17514" y="219.884963" style="fill: #1f77b4; stroke: #1f77b4"/>
     <use xlink:href="#m6d8032b127" x="120.80657" y="218.174724" style="fill: #1f77b4; stroke: #1f77b4"/>
     <use xlink:href="#m6d8032b127" x="122.438" y="216.574032" style="fill: #1f77b4; stroke: #1f77b4"/>
     <use xlink:href="#m6d8032b127" x="124.06943" y="215.029342" style="fill: #1f77b4; stroke: #1f77b4"/>
     <use xlink:href="#m6d8032b127" x="125.70086" y="213.133638" style="fill: #1f77b4; stroke: #1f77b4"/>
     <use xlink:href="#m6d8032b127" x="127.33229" y="212.316971" style="fill: #1f77b4; stroke: #1f77b4"/>
     <use xlink:href="#m6d8032b127" x="128.96372" y="210.385873" style="fill: #1f77b4; stroke: #1f77b4"/>
     <use xlink:href="#m6d8032b127" x="130.595149" y="209.132364" style="fill: #1f77b4; stroke: #1f77b4"/>
     <use xlink:href="#m6d8032b127" x="132.226579" y="207.594912" style="fill: #1f77b4; stroke: #1f77b4"/>
     <use xlink:href="#m6d8032b127" x="133.858009" y="206.343599" style="fill: #1f77b4; stroke: #1f77b4"/>
     <use xlink:href="#m6d8032b127" x="135.489439" y="205.433859" style="fill: #1f77b4; stroke: #1f77b4"/>
     <use xlink:href="#m6d8032b127" x="137.120869" y="203.930631" style="fill: #1f77b4; stroke: #1f77b4"/>
     <use xlink:href="#m6d8032b127" x="138.752299" y="203.021577" style="fill: #1f77b4; stroke: #1f77b4"/>
     <use xlink:href="#m6d8032b127" x="140.383729" y="201.468635" style="fill: #1f77b4; stroke: #1f77b4"/>
     <use xlink:href="#m6d8032b127" x="142.015159" y="200.584686" style="fill: #1f77b4; stroke: #1f77b4"/>
     <use xlink:href="#m6d8032b127" x="143.646588" y="199.467403" style="fill: #1f77b4; stroke: #1f77b4"/>
     <use xlink:href="#m6d8032b127" x="145.278018" y="199.074706" style="fill: #1f77b4; stroke: #1f77b4"/>
     <use xlink:href="#m6d8032b127" x="146.909448" y="197.433606" style="fill: #1f77b4; stroke: #1f77b4"/>
     <use xlink:href="#m6d8032b127" x="148.540878" y="196.85474" style="fill: #1f77b4; stroke: #1f77b4"/>
     <use xlink:href="#m6d8032b127" x="150.172308" y="196.189906" style="fill: #1f77b4; stroke: #1f77b4"/>
     <use xlink:href="#m6d8032b127" x="151.803738" y="196.189443" style="fill: #1f77b4; stroke: #1f77b4"/>
     <use xlink:href="#m6d8032b127" x="153.435168" y="194.78129" style="fill: #1f77b4; stroke: #1f77b4"/>
     <use xlink:href="#m6d8032b127" x="155.066598" y="194.43239" style="fill: #1f77b4; stroke: #1f77b4"/>
     <use xlink:href="#m6d8032b127" x="156.698027" y="194.322195" style="fill: #1f77b4; stroke: #1f77b4"/>
     <use xlink:href="#m6d8032b127" x="158.329457" y="193.923717" style="fill: #1f77b4; stroke: #1f77b4"/>
     <use xlink:href="#m6d8032b127" x="159.960887" y="192.853535" style="fill: #1f77b4; stroke: #1f77b4"/>
     <use xlink:href="#m6d8032b127" x="161.592317" y="192.410182" style="fill: #1f77b4; stroke: #1f77b4"/>
     <use xlink:href="#m6d8032b127" x="163.223747" y="193.434585" style="fill: #1f77b4; stroke: #1f77b4"/>
     <use xlink:href="#m6d8032b127" x="164.855177" y="193.067327" style="fill: #1f77b4; stroke: #1f77b4"/>
     <use xlink:href="#m6d8032b127" x="166.486607" y="192.684573" style="fill: #1f77b4; stroke: #1f77b4"/>
     <use xlink:href="#m6d8032b127" x="168.118037" y="192.941589" style="fill: #1f77b4; stroke: #1f77b4"/>
     <use xlink:href="#m6d8032b127" x="169.749467" y="193.413937" style="fill: #1f77b4; stroke: #1f77b4"/>
     <use xlink:href="#m6d8032b127" x="171.380896" y="193.179508" style="fill: #1f77b4; stroke: #1f77b4"/>
     <use xlink:href="#m6d8032b127" x="173.012326" y="193.566338" style="fill: #1f77b4; stroke: #1f77b4"/>
     <use xlink:href="#m6d8032b127" x="174.643756" y="193.325075" style="fill: #1f77b4; stroke: #1f77b4"/>
     <use xlink:href="#m6d8032b127" x="176.275186" y="194.842575" style="fill: #1f77b4; stroke: #1f77b4"/>
     <use xlink:href="#m6d8032b127" x="177.906616" y="195.355898" style="fill: #1f77b4; stroke: #1f77b4"/>
     <use xlink:href="#m6d8032b127" x="179.538046" y="195.639091" style="fill: #1f77b4; stroke: #1f77b4"/>
     <use xlink:href="#m6d8032b127" x="181.169476" y="196.289396" style="fill: #1f77b4; stroke: #1f77b4"/>
     <use xlink:href="#m6d8032b127" x="182.800906" y="198.010954" style="fill: #1f77b4; stroke: #1f77b4"/>
     <use xlink:href="#m6d8032b127" x="184.432335" y="198.853694" style="fill: #1f77b4; stroke: #1f77b4"/>
     <use xlink:href="#m6d8032b127" x="186.063765" y="199.376439" style="fill: #1f77b4; stroke: #1f77b4"/>
     <use xlink:href="#m6d8032b127" x="187.695195" y="201.117341" style="fill: #1f77b4; stroke: #1f77b4"/>
     <use xlink:href="#m6d8032b127" x="189.326625" y="201.715151" style="fill: #1f77b4; stroke: #1f77b4"/>
     <use xlink:href="#m6d8032b127" x="190.958055" y="202.60399" style="fill: #1f77b4; stroke: #1f77b4"/>
     <use xlink:href="#m6d8032b127" x="192.589485" y="204.692836" style="fill: #1f77b4; stroke: #1f77b4"/>
     <use xlink:href="#m6d8032b127" x="194.220915" y="205.688662" style="fill: #1f77b4; stroke: #1f77b4"/>
     <use xlink:href="#m6d8032b127" x="195.852345" y="207.297483" style="fill: #1f77b4; stroke: #1f77b4"/>
     <use xlink:href="#m6d8032b127" x="197.483774" y="208.432861" style="fill: #1f77b4; stroke: #1f77b4"/>
     <use xlink:href="#m6d8032b127" x="199.115204" y="209.965253" style="fill: #1f77b4; stroke: #1f77b4"/>
     <use xlink:href="#m6d8032b127" x="200.746634" y="211.437795" style="fill: #1f77b4; stroke: #1f77b4"/>
     <use xlink:href="#m6d8032b127" x="202.378064" y="212.86833" style="fill: #1f77b4; stroke: #1f77b4"/>
     <use xlink:href="#m6d8032b127" x="204.009494" y="214.701695" style="fill: #1f77b4; stroke: #1f77b4"/>
     <use xlink:href="#m6d8032b127" x="205.640924" y="217.039668" style="fill: #1f77b4; stroke: #1f77b4"/>
     <use xlink:href="#m6d8032b127" x="207.272354" y="218.173541" style="fill: #1f77b4; stroke: #1f77b4"/>
     <use xlink:href="#m6d8032b127" x="208.903784" y="220.022852" style="fill: #1f77b4; stroke: #1f77b4"/>
     <use xlink:href="#m6d8032b127" x="210.535213" y="221.504366" style="fill: #1f77b4; stroke: #1f77b4"/>
     <use xlink:href="#m6d8032b127" x="212.166643" y="223.655545" style="fill: #1f77b4; stroke: #1f77b4"/>
     <use xlink:href="#m6d8032b127" x="213.798073" y="224.900106" style="fill: #1f77b4; stroke: #1f77b4"/>
     <use xlink:href="#m6d8032b127" x="215.429503" y="226.869205" style="fill: #1f77b4; stroke: #1f77b4"/>
     <use xlink:href="#m6d8032b127" x="217.060933" y="229.257254" style="fill: #1f77b4; stroke: #1f77b4"/>
     <use xlink:href="#m6d8032b127" x="218.692363" y="231.314659" style="fill: #1f77b4; stroke: #1f77b4"/>
     <use xlink:href="#m6d8032b127" x="220.323793" y="232.65139" style="fill: #1f77b4; stroke: #1f77b4"/>
     <use xlink:href="#m6d8032b127" x="221.955223" y="234.33558" style="fill: #1f77b4; stroke: #1f77b4"/>
     <use xlink:href="#m6d8032b127" x="223.586652" y="236.422101" style="fill: #1f77b4; stroke: #1f77b4"/>
     <use xlink:href="#m6d8032b127" x="225.218082" y="238.898509" style="fill: #1f77b4; stroke: #1f77b4"/>
     <use xlink:href="#m6d8032b127" x="226.849512" y="240.733191" style="fill: #1f77b4; stroke: #1f77b4"/>
     <use xlink:href="#m6d8032b127" x="228.480942" y="242.364857" style="fill: #1f77b4; stroke: #1f77b4"/>
     <use xlink:href="#m6d8032b127" x="230.112372" y="244.520545" style="fill: #1f77b4; stroke: #1f77b4"/>
     <use xlink:href="#m6d8032b127" x="231.743802" y="246.712624" style="fill: #1f77b4; stroke: #1f77b4"/>
     <use xlink:href="#m6d8032b127" x="233.375232" y="248.438978" style="fill: #1f77b4; stroke: #1f77b4"/>
     <use xlink:href="#m6d8032b127" x="235.006662" y="249.793308" style="fill: #1f77b4; stroke: #1f77b4"/>
     <use xlink:href="#m6d8032b127" x="236.638091" y="252.470494" style="fill: #1f77b4; stroke: #1f77b4"/>
     <use xlink:href="#m6d8032b127" x="238.269521" y="253.770642" style="fill: #1f77b4; stroke: #1f77b4"/>
     <use xlink:href="#m6d8032b127" x="239.900951" y="255.916071" style="fill: #1f77b4; stroke: #1f77b4"/>
     <use xlink:href="#m6d8032b127" x="241.532381" y="257.677381" style="fill: #1f77b4; stroke: #1f77b4"/>
     <use xlink:href="#m6d8032b127" x="243.163811" y="259.965834" style="fill: #1f77b4; stroke: #1f77b4"/>
     <use xlink:href="#m6d8032b127" x="244.795241" y="261.619479" style="fill: #1f77b4; stroke: #1f77b4"/>
     <use xlink:href="#m6d8032b127" x="246.426671" y="263.204032" style="fill: #1f77b4; stroke: #1f77b4"/>
     <use xlink:href="#m6d8032b127" x="248.058101" y="265.115822" style="fill: #1f77b4; stroke: #1f77b4"/>
     <use xlink:href="#m6d8032b127" x="249.68953" y="267.159751" style="fill: #1f77b4; stroke: #1f77b4"/>
     <use xlink:href="#m6d8032b127" x="251.32096" y="268.742764" style="fill: #1f77b4; stroke: #1f77b4"/>
     <use xlink:href="#m6d8032b127" x="252.95239" y="270.047901" style="fill: #1f77b4; stroke: #1f77b4"/>
     <use xlink:href="#m6d8032b127" x="254.58382" y="272.330059" style="fill: #1f77b4; stroke: #1f77b4"/>
     <use xlink:href="#m6d8032b127" x="256.21525" y="274.148016" style="fill: #1f77b4; stroke: #1f77b4"/>
     <use xlink:href="#m6d8032b127" x="257.84668" y="275.62064" style="fill: #1f77b4; stroke: #1f77b4"/>
     <use xlink:href="#m6d8032b127" x="259.47811" y="277.633362" style="fill: #1f77b4; stroke: #1f77b4"/>
     <use xlink:href="#m6d8032b127" x="261.10954" y="278.403303" style="fill: #1f77b4; stroke: #1f77b4"/>
     <use xlink:href="#m6d8032b127" x="262.740969" y="280.159283" style="fill: #1f77b4; stroke: #1f77b4"/>
     <use xlink:href="#m6d8032b127" x="264.372399" y="281.488683" style="fill: #1f77b4; stroke: #1f77b4"/>
     <use xlink:href="#m6d8032b127" x="266.003829" y="282.939832" style="fill: #1f77b4; stroke: #1f77b4"/>
     <use xlink:href="#m6d8032b127" x="267.635259" y="284.388024" style="fill: #1f77b4; stroke: #1f77b4"/>
     <use xlink:href="#m6d8032b127" x="269.266689" y="285.487117" style="fill: #1f77b4; stroke: #1f77b4"/>
     <use xlink:href="#m6d8032b127" x="270.898119" y="286.943162" style="fill: #1f77b4; stroke: #1f77b4"/>
     <use xlink:href="#m6d8032b127" x="272.529549" y="287.761007" style="fill: #1f77b4; stroke: #1f77b4"/>
     <use xlink:href="#m6d8032b127" x="274.160979" y="289.670671" style="fill: #1f77b4; stroke: #1f77b4"/>
     <use xlink:href="#m6d8032b127" x="275.792408" y="290.647277" style="fill: #1f77b4; stroke: #1f77b4"/>
     <use xlink:href="#m6d8032b127" x="277.423838" y="291.799363" style="fill: #1f77b4; stroke: #1f77b4"/>
     <use xlink:href="#m6d8032b127" x="279.055268" y="292.928434" style="fill: #1f77b4; stroke: #1f77b4"/>
     <use xlink:href="#m6d8032b127" x="280.686698" y="293.429348" style="fill: #1f77b4; stroke: #1f77b4"/>
     <use xlink:href="#m6d8032b127" x="282.318128" y="293.4992" style="fill: #1f77b4; stroke: #1f77b4"/>
     <use xlink:href="#m6d8032b127" x="283.949558" y="295.419722" style="fill: #1f77b4; stroke: #1f77b4"/>
     <use xlink:href="#m6d8032b127" x="285.580988" y="296.220139" style="fill: #1f77b4; stroke: #1f77b4"/>
     <use xlink:href="#m6d8032b127" x="287.212418" y="296.818916" style="fill: #1f77b4; stroke: #1f77b4"/>
     <use xlink:href="#m6d8032b127" x="288.843848" y="297.323917" style="fill: #1f77b4; stroke: #1f77b4"/>
     <use xlink:href="#m6d8032b127" x="290.475277" y="297.71894" style="fill: #1f77b4; stroke: #1f77b4"/>
     <use xlink:href="#m6d8032b127" x="292.106707" y="297.363277" style="fill: #1f77b4; stroke: #1f77b4"/>
     <use xlink:href="#m6d8032b127" x="293.738137" y="298.487007" style="fill: #1f77b4; stroke: #1f77b4"/>
     <use xlink:href="#m6d8032b127" x="295.369567" y="298.951238" style="fill: #1f77b4; stroke: #1f77b4"/>
     <use xlink:href="#m6d8032b127" x="297.000997" y="298.709348" style="fill: #1f77b4; stroke: #1f77b4"/>
     <use xlink:href="#m6d8032b127" x="298.632427" y="300.107974" style="fill: #1f77b4; stroke: #1f77b4"/>
     <use xlink:href="#m6d8032b127" x="300.263857" y="298.883224" style="fill: #1f77b4; stroke: #1f77b4"/>
     <use xlink:href="#m6d8032b127" x="301.895287" y="298.505694" style="fill: #1f77b4; stroke: #1f77b4"/>
     <use xlink:href="#m6d8032b127" x="303.526716" y="299.036873" style="fill: #1f77b4; stroke: #1f77b4"/>
     <use xlink:href="#m6d8032b127" x="305.158146" y="298.721693" style="fill: #1f77b4; stroke: #1f77b4"/>
     <use xlink:href="#m6d8032b127" x="306.789576" y="298.994199" style="fill: #1f77b4; stroke: #1f77b4"/>
     <use xlink:href="#m6d8032b127" x="308.421006" y="298.904687" style="fill: #1f77b4; stroke: #1f77b4"/>
     <use xlink:href="#m6d8032b127" x="310.052436" y="298.262545" style="fill: #1f77b4; stroke: #1f77b4"/>
     <use xlink:href="#m6d8032b127" x="311.683866" y="297.814495" style="fill: #1f77b4; stroke: #1f77b4"/>
     <use xlink:href="#m6d8032b127" x="313.315296" y="297.604235" style="fill: #1f77b4; stroke: #1f77b4"/>
     <use xlink:href="#m6d8032b127" x="314.946726" y="296.837239" style="fill: #1f77b4; stroke: #1f77b4"/>
     <use xlink:href="#m6d8032b127" x="316.578155" y="295.622112" style="fill: #1f77b4; stroke: #1f77b4"/>
     <use xlink:href="#m6d8032b127" x="318.209585" y="295.356622" style="fill: #1f77b4; stroke: #1f77b4"/>
     <use xlink:href="#m6d8032b127" x="319.841015" y="295.355621" style="fill: #1f77b4; stroke: #1f77b4"/>
     <use xlink:href="#m6d8032b127" x="321.472445" y="294.054741" style="fill: #1f77b4; stroke: #1f77b4"/>
     <use xlink:href="#m6d8032b127" x="323.103875" y="293.629793" style="fill: #1f77b4; stroke: #1f77b4"/>
     <use xlink:href="#m6d8032b127" x="324.735305" y="292.389607" style="fill: #1f77b4; stroke: #1f77b4"/>
     <use xlink:href="#m6d8032b127" x="326.366735" y="291.886631" style="fill: #1f77b4; stroke: #1f77b4"/>
     <use xlink:href="#m6d8032b127" x="327.998165" y="289.805738" style="fill: #1f77b4; stroke: #1f77b4"/>
     <use xlink:href="#m6d8032b127" x="329.629594" y="289.334222" style="fill: #1f77b4; stroke: #1f77b4"/>
     <use xlink:href="#m6d8032b127" x="331.261024" y="288.470916" style="fill: #1f77b4; stroke: #1f77b4"/>
     <use xlink:href="#m6d8032b127" x="332.892454" y="287.113477" style="fill: #1f77b4; stroke: #1f77b4"/>
     <use xlink:href="#m6d8032b127" x="334.523884" y="285.520111" style="fill: #1f77b4; stroke: #1f77b4"/>
     <use xlink:href="#m6d8032b127" x="336.155314" y="284.581049" style="fill: #1f77b4; stroke: #1f77b4"/>
     <use xlink:href="#m6d8032b127" x="337.786744" y="282.950121" style="fill: #1f77b4; stroke: #1f77b4"/>
     <use xlink:href="#m6d8032b127" x="339.418174" y="281.923445" style="fill: #1f77b4; stroke: #1f77b4"/>
     <use xlink:href="#m6d8032b127" x="341.049604" y="281.041259" style="fill: #1f77b4; stroke: #1f77b4"/>
     <use xlink:href="#m6d8032b127" x="342.681033" y="279.279094" style="fill: #1f77b4; stroke: #1f77b4"/>
     <use xlink:href="#m6d8032b127" x="344.312463" y="278.504685" style="fill: #1f77b4; stroke: #1f77b4"/>
     <use xlink:href="#m6d8032b127" x="345.943893" y="276.318521" style="fill: #1f77b4; stroke: #1f77b4"/>
     <use xlink:href="#m6d8032b127" x="347.575323" y="274.757199" style="fill: #1f77b4; stroke: #1f77b4"/>
     <use xlink:href="#m6d8032b127" x="349.206753" y="273.582058" style="fill: #1f77b4; stroke: #1f77b4"/>
     <use xlink:href="#m6d8032b127" x="350.838183" y="271.267491" style="fill: #1f77b4; stroke: #1f77b4"/>
     <use xlink:href="#m6d8032b127" x="352.469613" y="269.87953" style="fill: #1f77b4; stroke: #1f77b4"/>
     <use xlink:href="#m6d8032b127" x="354.101043" y="268.391487" style="fill: #1f77b4; stroke: #1f77b4"/>
     <use xlink:href="#m6d8032b127" x="355.732472" y="266.062122" style="fill: #1f77b4; stroke: #1f77b4"/>
     <use xlink:href="#m6d8032b127" x="357.363902" y="264.34225" style="fill: #1f77b4; stroke: #1f77b4"/>
     <use xlink:href="#m6d8032b127" x="358.995332" y="261.860015" style="fill: #1f77b4; stroke: #1f77b4"/>
     <use xlink:href="#m6d8032b127" x="360.626762" y="259.700268" style="fill: #1f77b4; stroke: #1f77b4"/>
     <use xlink:href="#m6d8032b127" x="362.258192" y="256.868256" style="fill: #1f77b4; stroke: #1f77b4"/>
     <use xlink:href="#m6d8032b127" x="363.889622" y="254.592082" style="fill: #1f77b4; stroke: #1f77b4"/>
     <use xlink:href="#m6d8032b127" x="365.521052" y="251.622789" style="fill: #1f77b4; stroke: #1f77b4"/>
     <use xlink:href="#m6d8032b127" x="367.152482" y="248.858468" style="fill: #1f77b4; stroke: #1f77b4"/>
     <use xlink:href="#m6d8032b127" x="368.783911" y="245.509209" style="fill: #1f77b4; stroke: #1f77b4"/>
     <use xlink:href="#m6d8032b127" x="370.415341" y="242.106424" style="fill: #1f77b4; stroke: #1f77b4"/>
     <use xlink:href="#m6d8032b127" x="372.046771" y="239.178768" style="fill: #1f77b4; stroke: #1f77b4"/>
     <use xlink:href="#m6d8032b127" x="373.678201" y="235.52959" style="fill: #1f77b4; stroke: #1f77b4"/>
     <use xlink:href="#m6d8032b127" x="375.309631" y="233.473322" style="fill: #1f77b4; stroke: #1f77b4"/>
     <use xlink:href="#m6d8032b127" x="376.941061" y="233.987102" style="fill: #1f77b4; stroke: #1f77b4"/>
     <use xlink:href="#m6d8032b127" x="378.572491" y="241.039914" style="fill: #1f77b4; stroke: #1f77b4"/>
     <use xlink:href="#m6d8032b127" x="380.203921" y="252.81044" style="fill: #1f77b4; stroke: #1f77b4"/>
     <use xlink:href="#m6d8032b127" x="381.83535" y="262.509969" style="fill: #1f77b4; stroke: #1f77b4"/>
     <use xlink:href="#m6d8032b127" x="383.46678" y="265.419266" style="fill: #1f77b4; stroke: #1f77b4"/>
     <use xlink:href="#m6d8032b127" x="385.09821" y="265.082752" style="fill: #1f77b4; stroke: #1f77b4"/>
    </g>
   </g>
   <g id="line2d_24">
    <path d="M 60.443665 294.113029 
L 64.01844 291.211466 
L 67.593214 288.02901 
L 71.492969 284.263033 
L 75.717702 279.87217 
L 80.267416 274.829676 
L 85.467088 268.739757 
L 91.966679 260.768595 
L 103.665942 245.973671 
L 112.440389 235.054685 
L 118.29002 228.114153 
L 123.164713 222.647541 
L 127.714426 217.8721 
L 131.93916 213.76829 
L 135.838915 210.297959 
L 139.413689 207.410001 
L 142.663485 205.045316 
L 145.91328 202.94291 
L 149.163075 201.114745 
L 152.087891 199.712485 
L 155.012707 198.547222 
L 157.937522 197.62428 
L 160.862338 196.947853 
L 163.787154 196.520982 
L 166.38699 196.352586 
L 168.986826 196.383406 
L 171.586662 196.613242 
L 174.511478 197.108506 
L 177.436294 197.852014 
L 180.361109 198.840172 
L 183.285925 200.068238 
L 186.210741 201.53035 
L 189.460536 203.420918 
L 192.710331 205.580734 
L 195.960127 207.997158 
L 199.534901 210.934705 
L 203.434656 214.449449 
L 207.33441 218.259054 
L 211.884123 223.033438 
L 216.758816 228.483688 
L 222.608448 235.382247 
L 230.082977 244.568066 
L 246.981912 265.452013 
L 252.831544 272.258664 
L 257.706236 277.605621 
L 262.25595 282.262018 
L 266.155704 285.954167 
L 270.055458 289.33664 
L 273.630233 292.140145 
L 276.880028 294.42428 
L 280.129824 296.442046 
L 283.379619 298.180977 
L 286.304435 299.498564 
L 289.22925 300.574613 
L 292.154066 301.403388 
L 295.078882 301.980277 
L 297.678718 302.278774 
L 300.278554 302.373818 
L 302.87839 302.264463 
L 305.478227 301.950495 
L 308.078063 301.43243 
L 311.002879 300.607225 
L 313.927694 299.528172 
L 316.85251 298.199289 
L 319.777326 296.625723 
L 322.702141 294.81374 
L 325.951937 292.529786 
L 329.201732 289.972257 
L 332.776507 286.858898 
L 336.351281 283.450584 
L 340.251036 279.422492 
L 344.47577 274.731163 
L 349.350462 268.957368 
L 355.200094 261.647661 
L 365.924418 248.144183 
L 368.524254 245.265699 
L 370.474132 243.432086 
L 371.77405 242.461437 
L 373.073968 241.788282 
L 374.048906 241.550715 
L 374.698865 241.55712 
L 375.348824 241.725045 
L 375.998784 242.08532 
L 376.648743 242.674152 
L 377.298702 243.533386 
L 377.948661 244.710152 
L 378.59862 246.255405 
L 379.248579 248.220545 
L 380.223517 252.050887 
L 381.198456 256.99151 
L 382.498374 264.99539 
L 384.123272 275.052299 
L 384.773231 278.056199 
L 385.09821 279.172553 
L 385.09821 279.172553 
" clip-path="url(#p114620e062)" style="fill: none; stroke: #d62728; stroke-width: 1.5; stroke-linecap: square"/>
   </g>
   <g id="patch_9">
    <path d="M 44.210938 307.872 
L 44.210938 186.912 
" style="fill: none; stroke: #000000; stroke-width: 0.8; stroke-linejoin: miter; stroke-linecap: square"/>
   </g>
   <g id="patch_10">
    <path d="M 401.330938 307.872 
L 401.330938 186.912 
" style="fill: none; stroke: #000000; stroke-width: 0.8; stroke-linejoin: miter; stroke-linecap: square"/>
   </g>
   <g id="patch_11">
    <path d="M 44.210938 307.872 
L 401.330937 307.872 
" style="fill: none; stroke: #000000; stroke-width: 0.8; stroke-linejoin: miter; stroke-linecap: square"/>
   </g>
   <g id="patch_12">
    <path d="M 44.210938 186.912 
L 401.330937 186.912 
" style="fill: none; stroke: #000000; stroke-width: 0.8; stroke-linejoin: miter; stroke-linecap: square"/>
   </g>
  </g>
  <g id="text_21">
   <!-- S21 resonator spectroscopy -->
   <g transform="translate(133.226562 16.318125) scale(0.12 -0.12)">
    <defs>
     <path id="DejaVuSans-53" d="M 3425 4513 
L 3425 3897 
Q 3066 4069 2747 4153 
Q 2428 4238 2131 4238 
Q 1616 4238 1336 4038 
Q 1056 3838 1056 3469 
Q 1056 3159 1242 3001 
Q 1428 2844 1947 2747 
L 2328 2669 
Q 3034 2534 3370 2195 
Q 3706 1856 3706 1288 
Q 3706 609 3251 259 
Q 2797 -91 1919 -91 
Q 1588 -91 1214 -16 
Q 841 59 441 206 
L 441 856 
Q 825 641 1194 531 
Q 1563 422 1919 422 
Q 2459 422 2753 634 
Q 3047 847 3047 1241 
Q 3047 1584 2836 1778 
Q 2625 1972 2144 2069 
L 1759 2144 
Q 1053 2284 737 2584 
Q 422 2884 422 3419 
Q 422 4038 858 4394 
Q 1294 4750 2059 4750 
Q 2388 4750 2728 4690 
Q 3069 4631 3425 4513 
z
" transform="scale(0.015625)"/>
     <path id="DejaVuSans-70" d="M 1159 525 
L 1159 -1331 
L 581 -1331 
L 581 3500 
L 1159 3500 
L 1159 2969 
Q 1341 3281 1617 3432 
Q 1894 3584 2278 3584 
Q 2916 3584 3314 3078 
Q 3713 2572 3713 1747 
Q 3713 922 3314 415 
Q 2916 -91 2278 -91 
Q 1894 -91 1617 61 
Q 1341 213 1159 525 
z
M 3116 1747 
Q 3116 2381 2855 2742 
Q 2594 3103 2138 3103 
Q 1681 3103 1420 2742 
Q 1159 2381 1159 1747 
Q 1159 1113 1420 752 
Q 1681 391 2138 391 
Q 2594 391 2855 752 
Q 3116 1113 3116 1747 
z
" transform="scale(0.015625)"/>
    </defs>
    <use xlink:href="#DejaVuSans-53"/>
    <use xlink:href="#DejaVuSans-32" x="63.476562"/>
    <use xlink:href="#DejaVuSans-31" x="127.099609"/>
    <use xlink:href="#DejaVuSans-20" x="190.722656"/>
    <use xlink:href="#DejaVuSans-72" x="222.509766"/>
    <use xlink:href="#DejaVuSans-65" x="261.373047"/>
    <use xlink:href="#DejaVuSans-73" x="322.896484"/>
    <use xlink:href="#DejaVuSans-6f" x="374.996094"/>
    <use xlink:href="#DejaVuSans-6e" x="436.177734"/>
    <use xlink:href="#DejaVuSans-61" x="499.556641"/>
    <use xlink:href="#DejaVuSans-74" x="560.835938"/>
    <use xlink:href="#DejaVuSans-6f" x="600.044922"/>
    <use xlink:href="#DejaVuSans-72" x="661.226562"/>
    <use xlink:href="#DejaVuSans-20" x="702.339844"/>
    <use xlink:href="#DejaVuSans-73" x="734.126953"/>
    <use xlink:href="#DejaVuSans-70" x="786.226562"/>
    <use xlink:href="#DejaVuSans-65" x="849.703125"/>
    <use xlink:href="#DejaVuSans-63" x="911.226562"/>
    <use xlink:href="#DejaVuSans-74" x="966.207031"/>
    <use xlink:href="#DejaVuSans-72" x="1005.416016"/>
    <use xlink:href="#DejaVuSans-6f" x="1044.279297"/>
    <use xlink:href="#DejaVuSans-73" x="1105.460938"/>
    <use xlink:href="#DejaVuSans-63" x="1157.560547"/>
    <use xlink:href="#DejaVuSans-6f" x="1212.541016"/>
    <use xlink:href="#DejaVuSans-70" x="1273.722656"/>
    <use xlink:href="#DejaVuSans-79" x="1337.199219"/>
   </g>
   <!-- tuid: 20231227-125616-068-a4fc25 -->
   <g transform="translate(109.52 29.7555) scale(0.12 -0.12)">
    <defs>
     <path id="DejaVuSans-33" d="M 2597 2516 
Q 3050 2419 3304 2112 
Q 3559 1806 3559 1356 
Q 3559 666 3084 287 
Q 2609 -91 1734 -91 
Q 1441 -91 1130 -33 
Q 819 25 488 141 
L 488 750 
Q 750 597 1062 519 
Q 1375 441 1716 441 
Q 2309 441 2620 675 
Q 2931 909 2931 1356 
Q 2931 1769 2642 2001 
Q 2353 2234 1838 2234 
L 1294 2234 
L 1294 2753 
L 1863 2753 
Q 2328 2753 2575 2939 
Q 2822 3125 2822 3475 
Q 2822 3834 2567 4026 
Q 2313 4219 1838 4219 
Q 1578 4219 1281 4162 
Q 984 4106 628 3988 
L 628 4550 
Q 988 4650 1302 4700 
Q 1616 4750 1894 4750 
Q 2613 4750 3031 4423 
Q 3450 4097 3450 3541 
Q 3450 3153 3228 2886 
Q 3006 2619 2597 2516 
z
" transform="scale(0.015625)"/>
     <path id="DejaVuSans-37" d="M 525 4666 
L 3525 4666 
L 3525 4397 
L 1831 0 
L 1172 0 
L 2766 4134 
L 525 4134 
L 525 4666 
z
" transform="scale(0.015625)"/>
    </defs>
    <use xlink:href="#DejaVuSans-74"/>
    <use xlink:href="#DejaVuSans-75" x="39.208984"/>
    <use xlink:href="#DejaVuSans-69" x="102.587891"/>
    <use xlink:href="#DejaVuSans-64" x="130.371094"/>
    <use xlink:href="#DejaVuSans-3a" x="193.847656"/>
    <use xlink:href="#DejaVuSans-20" x="227.539062"/>
    <use xlink:href="#DejaVuSans-32" x="259.326172"/>
    <use xlink:href="#DejaVuSans-30" x="322.949219"/>
    <use xlink:href="#DejaVuSans-32" x="386.572266"/>
    <use xlink:href="#DejaVuSans-33" x="450.195312"/>
    <use xlink:href="#DejaVuSans-31" x="513.818359"/>
    <use xlink:href="#DejaVuSans-32" x="577.441406"/>
    <use xlink:href="#DejaVuSans-32" x="641.064453"/>
    <use xlink:href="#DejaVuSans-37" x="704.6875"/>
    <use xlink:href="#DejaVuSans-2d" x="768.310547"/>
    <use xlink:href="#DejaVuSans-31" x="804.394531"/>
    <use xlink:href="#DejaVuSans-32" x="868.017578"/>
    <use xlink:href="#DejaVuSans-35" x="931.640625"/>
    <use xlink:href="#DejaVuSans-36" x="995.263672"/>
    <use xlink:href="#DejaVuSans-31" x="1058.886719"/>
    <use xlink:href="#DejaVuSans-36" x="1122.509766"/>
    <use xlink:href="#DejaVuSans-2d" x="1186.132812"/>
    <use xlink:href="#DejaVuSans-30" x="1222.216797"/>
    <use xlink:href="#DejaVuSans-36" x="1285.839844"/>
    <use xlink:href="#DejaVuSans-38" x="1349.462891"/>
    <use xlink:href="#DejaVuSans-2d" x="1413.085938"/>
    <use xlink:href="#DejaVuSans-61" x="1449.169922"/>
    <use xlink:href="#DejaVuSans-34" x="1510.449219"/>
    <use xlink:href="#DejaVuSans-66" x="1574.072266"/>
    <use xlink:href="#DejaVuSans-63" x="1609.277344"/>
    <use xlink:href="#DejaVuSans-32" x="1664.257812"/>
    <use xlink:href="#DejaVuSans-35" x="1727.880859"/>
   </g>
  </g>
 </g>
 <defs>
  <clipPath id="p8d6f9c740c">
   <rect x="44.210938" y="41.76" width="357.12" height="120.96"/>
  </clipPath>
  <clipPath id="p114620e062">
   <rect x="44.210938" y="186.912" width="357.12" height="120.96"/>
  </clipPath>
 </defs>
</svg>
