<?xml version="1.0" encoding="utf-8" standalone="no"?>
<!DOCTYPE svg PUBLIC "-//W3C//DTD SVG 1.1//EN"
  "http://www.w3.org/Graphics/SVG/1.1/DTD/svg11.dtd">
<svg xmlns:xlink="http://www.w3.org/1999/xlink" width="572.186937pt" height="345.42825pt" viewBox="0 0 572.186937 345.42825" xmlns="http://www.w3.org/2000/svg" version="1.1">
 <metadata>
  <rdf:RDF xmlns:dc="http://purl.org/dc/elements/1.1/" xmlns:cc="http://creativecommons.org/ns#" xmlns:rdf="http://www.w3.org/1999/02/22-rdf-syntax-ns#">
   <cc:Work>
    <dc:type rdf:resource="http://purl.org/dc/dcmitype/StillImage"/>
    <dc:date>2023-12-25T16:27:39.310243</dc:date>
    <dc:format>image/svg+xml</dc:format>
    <dc:creator>
     <cc:Agent>
      <dc:title>Matplotlib v3.8.2, https://matplotlib.org/</dc:title>
     </cc:Agent>
    </dc:creator>
   </cc:Work>
  </rdf:RDF>
 </metadata>
 <defs>
  <style type="text/css">*{stroke-linejoin: round; stroke-linecap: butt}</style>
 </defs>
 <g id="figure_1">
  <g id="patch_1">
   <path d="M 0 345.42825 
L 572.186937 345.42825 
L 572.186937 -0 
L 0 -0 
L 0 345.42825 
z
" style="fill: none; opacity: 0"/>
  </g>
  <g id="axes_1">
   <g id="patch_2">
    <path d="M 44.210938 307.872 
L 401.330938 307.872 
L 401.330938 41.76 
L 44.210938 41.76 
z
" style="fill: #ffffff"/>
   </g>
   <g id="matplotlib.axis_1">
    <g id="xtick_1">
     <g id="line2d_1">
      <defs>
       <path id="mc67d926d92" d="M 0 0 
L 0 3.5 
" style="stroke: #000000; stroke-width: 0.8"/>
      </defs>
      <g>
       <use xlink:href="#mc67d926d92" x="91.368547" y="307.872" style="stroke: #000000; stroke-width: 0.8"/>
      </g>
     </g>
     <g id="text_1">
      <!-- -10 -->
      <g transform="translate(83.20214 322.470438) scale(0.1 -0.1)">
       <defs>
        <path id="DejaVuSans-2d" d="M 313 2009 
L 1997 2009 
L 1997 1497 
L 313 1497 
L 313 2009 
z
" transform="scale(0.015625)"/>
        <path id="DejaVuSans-31" d="M 794 531 
L 1825 531 
L 1825 4091 
L 703 3866 
L 703 4441 
L 1819 4666 
L 2450 4666 
L 2450 531 
L 3481 531 
L 3481 0 
L 794 0 
L 794 531 
z
" transform="scale(0.015625)"/>
        <path id="DejaVuSans-30" d="M 2034 4250 
Q 1547 4250 1301 3770 
Q 1056 3291 1056 2328 
Q 1056 1369 1301 889 
Q 1547 409 2034 409 
Q 2525 409 2770 889 
Q 3016 1369 3016 2328 
Q 3016 3291 2770 3770 
Q 2525 4250 2034 4250 
z
M 2034 4750 
Q 2819 4750 3233 4129 
Q 3647 3509 3647 2328 
Q 3647 1150 3233 529 
Q 2819 -91 2034 -91 
Q 1250 -91 836 529 
Q 422 1150 422 2328 
Q 422 3509 836 4129 
Q 1250 4750 2034 4750 
z
" transform="scale(0.015625)"/>
       </defs>
       <use xlink:href="#DejaVuSans-2d"/>
       <use xlink:href="#DejaVuSans-31" x="36.083984"/>
       <use xlink:href="#DejaVuSans-30" x="99.707031"/>
      </g>
     </g>
    </g>
    <g id="xtick_2">
     <g id="line2d_2">
      <g>
       <use xlink:href="#mc67d926d92" x="152.174026" y="307.872" style="stroke: #000000; stroke-width: 0.8"/>
      </g>
     </g>
     <g id="text_2">
      <!-- -8 -->
      <g transform="translate(147.18887 322.470438) scale(0.1 -0.1)">
       <defs>
        <path id="DejaVuSans-38" d="M 2034 2216 
Q 1584 2216 1326 1975 
Q 1069 1734 1069 1313 
Q 1069 891 1326 650 
Q 1584 409 2034 409 
Q 2484 409 2743 651 
Q 3003 894 3003 1313 
Q 3003 1734 2745 1975 
Q 2488 2216 2034 2216 
z
M 1403 2484 
Q 997 2584 770 2862 
Q 544 3141 544 3541 
Q 544 4100 942 4425 
Q 1341 4750 2034 4750 
Q 2731 4750 3128 4425 
Q 3525 4100 3525 3541 
Q 3525 3141 3298 2862 
Q 3072 2584 2669 2484 
Q 3125 2378 3379 2068 
Q 3634 1759 3634 1313 
Q 3634 634 3220 271 
Q 2806 -91 2034 -91 
Q 1263 -91 848 271 
Q 434 634 434 1313 
Q 434 1759 690 2068 
Q 947 2378 1403 2484 
z
M 1172 3481 
Q 1172 3119 1398 2916 
Q 1625 2713 2034 2713 
Q 2441 2713 2670 2916 
Q 2900 3119 2900 3481 
Q 2900 3844 2670 4047 
Q 2441 4250 2034 4250 
Q 1625 4250 1398 4047 
Q 1172 3844 1172 3481 
z
" transform="scale(0.015625)"/>
       </defs>
       <use xlink:href="#DejaVuSans-2d"/>
       <use xlink:href="#DejaVuSans-38" x="36.083984"/>
      </g>
     </g>
    </g>
    <g id="xtick_3">
     <g id="line2d_3">
      <g>
       <use xlink:href="#mc67d926d92" x="212.979505" y="307.872" style="stroke: #000000; stroke-width: 0.8"/>
      </g>
     </g>
     <g id="text_3">
      <!-- -6 -->
      <g transform="translate(207.994349 322.470438) scale(0.1 -0.1)">
       <defs>
        <path id="DejaVuSans-36" d="M 2113 2584 
Q 1688 2584 1439 2293 
Q 1191 2003 1191 1497 
Q 1191 994 1439 701 
Q 1688 409 2113 409 
Q 2538 409 2786 701 
Q 3034 994 3034 1497 
Q 3034 2003 2786 2293 
Q 2538 2584 2113 2584 
z
M 3366 4563 
L 3366 3988 
Q 3128 4100 2886 4159 
Q 2644 4219 2406 4219 
Q 1781 4219 1451 3797 
Q 1122 3375 1075 2522 
Q 1259 2794 1537 2939 
Q 1816 3084 2150 3084 
Q 2853 3084 3261 2657 
Q 3669 2231 3669 1497 
Q 3669 778 3244 343 
Q 2819 -91 2113 -91 
Q 1303 -91 875 529 
Q 447 1150 447 2328 
Q 447 3434 972 4092 
Q 1497 4750 2381 4750 
Q 2619 4750 2861 4703 
Q 3103 4656 3366 4563 
z
" transform="scale(0.015625)"/>
       </defs>
       <use xlink:href="#DejaVuSans-2d"/>
       <use xlink:href="#DejaVuSans-36" x="36.083984"/>
      </g>
     </g>
    </g>
    <g id="xtick_4">
     <g id="line2d_4">
      <g>
       <use xlink:href="#mc67d926d92" x="273.784985" y="307.872" style="stroke: #000000; stroke-width: 0.8"/>
      </g>
     </g>
     <g id="text_4">
      <!-- -4 -->
      <g transform="translate(268.799828 322.470438) scale(0.1 -0.1)">
       <defs>
        <path id="DejaVuSans-34" d="M 2419 4116 
L 825 1625 
L 2419 1625 
L 2419 4116 
z
M 2253 4666 
L 3047 4666 
L 3047 1625 
L 3713 1625 
L 3713 1100 
L 3047 1100 
L 3047 0 
L 2419 0 
L 2419 1100 
L 313 1100 
L 313 1709 
L 2253 4666 
z
" transform="scale(0.015625)"/>
       </defs>
       <use xlink:href="#DejaVuSans-2d"/>
       <use xlink:href="#DejaVuSans-34" x="36.083984"/>
      </g>
     </g>
    </g>
    <g id="xtick_5">
     <g id="line2d_5">
      <g>
       <use xlink:href="#mc67d926d92" x="334.590464" y="307.872" style="stroke: #000000; stroke-width: 0.8"/>
      </g>
     </g>
     <g id="text_5">
      <!-- -2 -->
      <g transform="translate(329.605308 322.470438) scale(0.1 -0.1)">
       <defs>
        <path id="DejaVuSans-32" d="M 1228 531 
L 3431 531 
L 3431 0 
L 469 0 
L 469 531 
Q 828 903 1448 1529 
Q 2069 2156 2228 2338 
Q 2531 2678 2651 2914 
Q 2772 3150 2772 3378 
Q 2772 3750 2511 3984 
Q 2250 4219 1831 4219 
Q 1534 4219 1204 4116 
Q 875 4013 500 3803 
L 500 4441 
Q 881 4594 1212 4672 
Q 1544 4750 1819 4750 
Q 2544 4750 2975 4387 
Q 3406 4025 3406 3419 
Q 3406 3131 3298 2873 
Q 3191 2616 2906 2266 
Q 2828 2175 2409 1742 
Q 1991 1309 1228 531 
z
" transform="scale(0.015625)"/>
       </defs>
       <use xlink:href="#DejaVuSans-2d"/>
       <use xlink:href="#DejaVuSans-32" x="36.083984"/>
      </g>
     </g>
    </g>
    <g id="xtick_6">
     <g id="line2d_6">
      <g>
       <use xlink:href="#mc67d926d92" x="395.395943" y="307.872" style="stroke: #000000; stroke-width: 0.8"/>
      </g>
     </g>
     <g id="text_6">
      <!-- 0 -->
      <g transform="translate(392.214693 322.470438) scale(0.1 -0.1)">
       <use xlink:href="#DejaVuSans-30"/>
      </g>
     </g>
    </g>
    <g id="text_7">
     <!-- Re$(S_{21})$ [mV] -->
     <g transform="translate(190.770938 336.148562) scale(0.1 -0.1)">
      <defs>
       <path id="DejaVuSans-52" d="M 2841 2188 
Q 3044 2119 3236 1894 
Q 3428 1669 3622 1275 
L 4263 0 
L 3584 0 
L 2988 1197 
Q 2756 1666 2539 1819 
Q 2322 1972 1947 1972 
L 1259 1972 
L 1259 0 
L 628 0 
L 628 4666 
L 2053 4666 
Q 2853 4666 3247 4331 
Q 3641 3997 3641 3322 
Q 3641 2881 3436 2590 
Q 3231 2300 2841 2188 
z
M 1259 4147 
L 1259 2491 
L 2053 2491 
Q 2509 2491 2742 2702 
Q 2975 2913 2975 3322 
Q 2975 3731 2742 3939 
Q 2509 4147 2053 4147 
L 1259 4147 
z
" transform="scale(0.015625)"/>
       <path id="DejaVuSans-65" d="M 3597 1894 
L 3597 1613 
L 953 1613 
Q 991 1019 1311 708 
Q 1631 397 2203 397 
Q 2534 397 2845 478 
Q 3156 559 3463 722 
L 3463 178 
Q 3153 47 2828 -22 
Q 2503 -91 2169 -91 
Q 1331 -91 842 396 
Q 353 884 353 1716 
Q 353 2575 817 3079 
Q 1281 3584 2069 3584 
Q 2775 3584 3186 3129 
Q 3597 2675 3597 1894 
z
M 3022 2063 
Q 3016 2534 2758 2815 
Q 2500 3097 2075 3097 
Q 1594 3097 1305 2825 
Q 1016 2553 972 2059 
L 3022 2063 
z
" transform="scale(0.015625)"/>
       <path id="DejaVuSans-28" d="M 1984 4856 
Q 1566 4138 1362 3434 
Q 1159 2731 1159 2009 
Q 1159 1288 1364 580 
Q 1569 -128 1984 -844 
L 1484 -844 
Q 1016 -109 783 600 
Q 550 1309 550 2009 
Q 550 2706 781 3412 
Q 1013 4119 1484 4856 
L 1984 4856 
z
" transform="scale(0.015625)"/>
       <path id="DejaVuSans-Oblique-53" d="M 3859 4513 
L 3738 3897 
Q 3422 4066 3111 4152 
Q 2800 4238 2509 4238 
Q 1944 4238 1609 3991 
Q 1275 3744 1275 3334 
Q 1275 3109 1398 2989 
Q 1522 2869 2034 2731 
L 2413 2638 
Q 3053 2472 3303 2217 
Q 3553 1963 3553 1503 
Q 3553 797 2998 353 
Q 2444 -91 1538 -91 
Q 1166 -91 791 -17 
Q 416 56 38 206 
L 166 856 
Q 513 641 861 531 
Q 1209 422 1556 422 
Q 2147 422 2503 684 
Q 2859 947 2859 1369 
Q 2859 1650 2717 1795 
Q 2575 1941 2106 2059 
L 1728 2156 
Q 1081 2325 845 2545 
Q 609 2766 609 3163 
Q 609 3859 1145 4304 
Q 1681 4750 2541 4750 
Q 2875 4750 3203 4690 
Q 3531 4631 3859 4513 
z
" transform="scale(0.015625)"/>
       <path id="DejaVuSans-29" d="M 513 4856 
L 1013 4856 
Q 1481 4119 1714 3412 
Q 1947 2706 1947 2009 
Q 1947 1309 1714 600 
Q 1481 -109 1013 -844 
L 513 -844 
Q 928 -128 1133 580 
Q 1338 1288 1338 2009 
Q 1338 2731 1133 3434 
Q 928 4138 513 4856 
z
" transform="scale(0.015625)"/>
       <path id="DejaVuSans-20" transform="scale(0.015625)"/>
       <path id="DejaVuSans-5b" d="M 550 4863 
L 1875 4863 
L 1875 4416 
L 1125 4416 
L 1125 -397 
L 1875 -397 
L 1875 -844 
L 550 -844 
L 550 4863 
z
" transform="scale(0.015625)"/>
       <path id="DejaVuSans-6d" d="M 3328 2828 
Q 3544 3216 3844 3400 
Q 4144 3584 4550 3584 
Q 5097 3584 5394 3201 
Q 5691 2819 5691 2113 
L 5691 0 
L 5113 0 
L 5113 2094 
Q 5113 2597 4934 2840 
Q 4756 3084 4391 3084 
Q 3944 3084 3684 2787 
Q 3425 2491 3425 1978 
L 3425 0 
L 2847 0 
L 2847 2094 
Q 2847 2600 2669 2842 
Q 2491 3084 2119 3084 
Q 1678 3084 1418 2786 
Q 1159 2488 1159 1978 
L 1159 0 
L 581 0 
L 581 3500 
L 1159 3500 
L 1159 2956 
Q 1356 3278 1631 3431 
Q 1906 3584 2284 3584 
Q 2666 3584 2933 3390 
Q 3200 3197 3328 2828 
z
" transform="scale(0.015625)"/>
       <path id="DejaVuSans-56" d="M 1831 0 
L 50 4666 
L 709 4666 
L 2188 738 
L 3669 4666 
L 4325 4666 
L 2547 0 
L 1831 0 
z
" transform="scale(0.015625)"/>
       <path id="DejaVuSans-5d" d="M 1947 4863 
L 1947 -844 
L 622 -844 
L 622 -397 
L 1369 -397 
L 1369 4416 
L 622 4416 
L 622 4863 
L 1947 4863 
z
" transform="scale(0.015625)"/>
      </defs>
      <use xlink:href="#DejaVuSans-52" transform="translate(0 0.015625)"/>
      <use xlink:href="#DejaVuSans-65" transform="translate(69.482422 0.015625)"/>
      <use xlink:href="#DejaVuSans-28" transform="translate(131.005859 0.015625)"/>
      <use xlink:href="#DejaVuSans-Oblique-53" transform="translate(170.019531 0.015625)"/>
      <use xlink:href="#DejaVuSans-32" transform="translate(233.496094 -16.390625) scale(0.7)"/>
      <use xlink:href="#DejaVuSans-31" transform="translate(278.032227 -16.390625) scale(0.7)"/>
      <use xlink:href="#DejaVuSans-29" transform="translate(325.302734 0.015625)"/>
      <use xlink:href="#DejaVuSans-20" transform="translate(364.316406 0.015625)"/>
      <use xlink:href="#DejaVuSans-5b" transform="translate(396.103516 0.015625)"/>
      <use xlink:href="#DejaVuSans-6d" transform="translate(435.117188 0.015625)"/>
      <use xlink:href="#DejaVuSans-56" transform="translate(532.529297 0.015625)"/>
      <use xlink:href="#DejaVuSans-5d" transform="translate(600.9375 0.015625)"/>
     </g>
    </g>
   </g>
   <g id="matplotlib.axis_2">
    <g id="ytick_1">
     <g id="line2d_7">
      <defs>
       <path id="mb15077d419" d="M 0 0 
L -3.5 0 
" style="stroke: #000000; stroke-width: 0.8"/>
      </defs>
      <g>
       <use xlink:href="#mb15077d419" x="44.210938" y="277.031801" style="stroke: #000000; stroke-width: 0.8"/>
      </g>
     </g>
     <g id="text_8">
      <!-- -10 -->
      <g transform="translate(20.878125 280.83102) scale(0.1 -0.1)">
       <use xlink:href="#DejaVuSans-2d"/>
       <use xlink:href="#DejaVuSans-31" x="36.083984"/>
       <use xlink:href="#DejaVuSans-30" x="99.707031"/>
      </g>
     </g>
    </g>
    <g id="ytick_2">
     <g id="line2d_8">
      <g>
       <use xlink:href="#mb15077d419" x="44.210938" y="236.823441" style="stroke: #000000; stroke-width: 0.8"/>
      </g>
     </g>
     <g id="text_9">
      <!-- -8 -->
      <g transform="translate(27.240625 240.622659) scale(0.1 -0.1)">
       <use xlink:href="#DejaVuSans-2d"/>
       <use xlink:href="#DejaVuSans-38" x="36.083984"/>
      </g>
     </g>
    </g>
    <g id="ytick_3">
     <g id="line2d_9">
      <g>
       <use xlink:href="#mb15077d419" x="44.210938" y="196.615081" style="stroke: #000000; stroke-width: 0.8"/>
      </g>
     </g>
     <g id="text_10">
      <!-- -6 -->
      <g transform="translate(27.240625 200.414299) scale(0.1 -0.1)">
       <use xlink:href="#DejaVuSans-2d"/>
       <use xlink:href="#DejaVuSans-36" x="36.083984"/>
      </g>
     </g>
    </g>
    <g id="ytick_4">
     <g id="line2d_10">
      <g>
       <use xlink:href="#mb15077d419" x="44.210938" y="156.406721" style="stroke: #000000; stroke-width: 0.8"/>
      </g>
     </g>
     <g id="text_11">
      <!-- -4 -->
      <g transform="translate(27.240625 160.205939) scale(0.1 -0.1)">
       <use xlink:href="#DejaVuSans-2d"/>
       <use xlink:href="#DejaVuSans-34" x="36.083984"/>
      </g>
     </g>
    </g>
    <g id="ytick_5">
     <g id="line2d_11">
      <g>
       <use xlink:href="#mb15077d419" x="44.210938" y="116.198361" style="stroke: #000000; stroke-width: 0.8"/>
      </g>
     </g>
     <g id="text_12">
      <!-- -2 -->
      <g transform="translate(27.240625 119.997579) scale(0.1 -0.1)">
       <use xlink:href="#DejaVuSans-2d"/>
       <use xlink:href="#DejaVuSans-32" x="36.083984"/>
      </g>
     </g>
    </g>
    <g id="ytick_6">
     <g id="line2d_12">
      <g>
       <use xlink:href="#mb15077d419" x="44.210938" y="75.990001" style="stroke: #000000; stroke-width: 0.8"/>
      </g>
     </g>
     <g id="text_13">
      <!-- 0 -->
      <g transform="translate(30.848437 79.789219) scale(0.1 -0.1)">
       <use xlink:href="#DejaVuSans-30"/>
      </g>
     </g>
    </g>
    <g id="text_14">
     <!-- Im$(S_{21})$ [mV] -->
     <g transform="translate(14.798437 206.466) rotate(-90) scale(0.1 -0.1)">
      <defs>
       <path id="DejaVuSans-49" d="M 628 4666 
L 1259 4666 
L 1259 0 
L 628 0 
L 628 4666 
z
" transform="scale(0.015625)"/>
      </defs>
      <use xlink:href="#DejaVuSans-49" transform="translate(0 0.015625)"/>
      <use xlink:href="#DejaVuSans-6d" transform="translate(25.867188 0.015625)"/>
      <use xlink:href="#DejaVuSans-28" transform="translate(123.279297 0.015625)"/>
      <use xlink:href="#DejaVuSans-Oblique-53" transform="translate(162.292969 0.015625)"/>
      <use xlink:href="#DejaVuSans-32" transform="translate(225.769531 -16.390625) scale(0.7)"/>
      <use xlink:href="#DejaVuSans-31" transform="translate(270.305664 -16.390625) scale(0.7)"/>
      <use xlink:href="#DejaVuSans-29" transform="translate(317.576172 0.015625)"/>
      <use xlink:href="#DejaVuSans-20" transform="translate(356.589844 0.015625)"/>
      <use xlink:href="#DejaVuSans-5b" transform="translate(388.376953 0.015625)"/>
      <use xlink:href="#DejaVuSans-6d" transform="translate(427.390625 0.015625)"/>
      <use xlink:href="#DejaVuSans-56" transform="translate(524.802734 0.015625)"/>
      <use xlink:href="#DejaVuSans-5d" transform="translate(593.210938 0.015625)"/>
     </g>
    </g>
   </g>
   <g id="line2d_13">
    <path d="M 312.401827 292.78205 
L 311.799615 290.121681 
L 308.042468 291.490114 
L 305.579884 292.833448 
L 305.153985 286.862999 
L 295.799849 289.905984 
L 300.624384 291.543586 
L 295.838729 287.954952 
L 294.084173 286.049229 
L 288.373481 287.406313 
L 286.363794 286.232167 
L 289.683325 284.828639 
L 282.869897 286.425777 
L 280.404475 286.209861 
L 276.330973 285.26226 
L 272.24922 284.788481 
L 269.009792 282.265239 
L 269.24611 285.693916 
L 264.108091 281.791001 
L 261.500779 282.242999 
L 257.476819 281.605248 
L 257.368892 282.089809 
L 254.549059 280.442975 
L 252.659413 279.818995 
L 246.606886 280.171318 
L 244.181895 279.135674 
L 238.458166 275.721139 
L 239.1019 275.534534 
L 235.79633 276.139919 
L 233.278825 274.051781 
L 230.186238 271.902643 
L 228.634004 271.605669 
L 228.337551 268.415081 
L 224.28877 271.209762 
L 222.269611 266.482819 
L 216.502711 267.461827 
L 214.195681 267.44967 
L 208.728964 264.529845 
L 208.634173 264.732491 
L 202.607819 264.442675 
L 205.31012 261.268784 
L 199.009857 262.13788 
L 200.534664 261.071921 
L 192.735073 260.991016 
L 190.608317 256.252396 
L 188.783724 256.459625 
L 188.735173 255.753038 
L 181.585422 253.027347 
L 179.344666 251.208553 
L 177.171438 247.940639 
L 172.989679 248.717961 
L 173.56562 248.74533 
L 167.014319 244.887156 
L 164.011737 243.784051 
L 160.689467 240.454786 
L 157.430962 235.613349 
L 153.278842 236.749868 
L 153.996903 232.433499 
L 149.416409 230.256599 
L 147.140271 232.545723 
L 144.267994 226.686058 
L 141.332874 224.753032 
L 135.424778 221.522286 
L 133.800031 219.157778 
L 130.292569 216.551142 
L 128.504413 215.411785 
L 122.401356 207.893239 
L 123.611128 205.638903 
L 113.357799 205.134657 
L 114.83465 200.0158 
L 112.339555 193.577727 
L 108.979527 191.513248 
L 109.980971 188.157335 
L 104.588944 181.789538 
L 108.517751 176.54868 
L 102.864291 170.88974 
L 100.120403 165.476725 
L 102.763724 160.452568 
L 102.614408 153.415112 
L 100.988275 145.526063 
L 103.257185 137.93318 
L 103.022551 128.428834 
L 109.991896 122.311175 
L 111.45495 113.088569 
L 120.265622 101.168535 
L 129.618768 94.232173 
L 142.853787 85.616698 
L 154.12569 75.135505 
L 170.337547 67.905595 
L 191.570122 61.363939 
L 215.411626 58.112831 
L 237.834368 53.856 
L 260.489929 57.352816 
L 290.675594 61.069235 
L 313.115664 69.631043 
L 334.576569 78.398857 
L 352.224548 90.039246 
L 366.527483 103.660131 
L 379.473245 118.989484 
L 384.974816 148.769118 
L 378.992227 161.365315 
L 374.277302 176.611864 
L 367.703459 187.784956 
L 354.798525 196.446242 
L 352.489514 205.896941 
L 335.501309 212.600888 
L 325.205403 217.815295 
L 299.334739 230.360967 
L 284.539267 229.962091 
L 280.710268 230.486308 
L 266.43301 231.528849 
L 259.662093 234.489597 
L 250.527277 234.597238 
L 245.439525 234.285183 
L 239.19042 235.135423 
L 229.173573 230.98822 
L 222.966252 230.869382 
L 216.488915 231.948545 
L 211.508398 227.882248 
L 206.425762 229.798403 
L 201.551917 228.507929 
L 194.729511 227.221668 
L 190.610231 226.954441 
L 188.429017 225.153544 
L 185.807183 222.821119 
L 178.422335 221.248774 
L 174.758791 220.22365 
L 172.84482 217.098493 
L 167.004681 216.210911 
L 163.722512 214.768534 
L 159.647525 214.400105 
L 157.135764 212.790461 
L 154.328242 210.652563 
L 146.459803 208.950162 
L 144.669502 205.949409 
L 142.761372 206.33484 
L 141.652001 204.03225 
L 140.3814 200.861588 
L 136.478337 200.12198 
L 132.141685 198.470017 
L 128.25123 197.936481 
L 125.499983 193.672928 
L 124.164955 192.09122 
L 125.69511 189.653336 
L 119.925999 189.715603 
L 120.916683 188.589276 
L 114.856103 186.802914 
L 116.322425 184.416231 
L 114.850723 181.997619 
L 109.817364 181.828976 
L 110.322542 179.428871 
L 107.14797 178.559884 
L 107.797215 174.040279 
L 104.413225 173.704784 
L 101.352158 174.276033 
L 100.932892 168.712687 
L 98.822804 165.808248 
L 101.138713 165.839306 
L 95.525915 165.630134 
L 96.077333 161.630337 
L 91.607075 161.304139 
L 91.08754 160.650107 
L 85.358399 158.110256 
L 86.213663 154.988221 
L 88.270283 153.072305 
L 85.276975 152.408735 
L 85.083301 150.060618 
L 82.987998 147.540693 
L 82.937566 142.455011 
L 83.049223 141.504616 
L 82.264458 141.333245 
L 80.188035 141.260459 
L 79.927789 140.603698 
L 76.480726 136.6687 
L 77.699608 135.011958 
L 75.231545 132.233144 
L 74.490348 132.258286 
L 74.481964 128.229877 
L 75.597441 126.450892 
L 73.115087 126.701204 
L 71.344853 123.332764 
L 69.200967 122.580169 
L 71.369277 116.581107 
L 68.498221 118.480174 
L 67.329276 115.046018 
L 71.865609 113.128618 
L 64.901017 114.719471 
L 66.731188 110.651754 
L 66.202676 109.363463 
L 64.482379 106.063379 
L 65.544585 105.060974 
L 61.228726 102.874559 
L 65.155553 99.260259 
L 63.519485 97.856011 
L 62.375921 97.262085 
L 65.16991 96.458441 
L 60.443665 95.00489 
L 60.443665 95.00489 
" clip-path="url(#pa552757928)" style="fill: none; stroke: #1f77b4; stroke-width: 1.5; stroke-linecap: square"/>
    <defs>
     <path id="maaf94ae98a" d="M 0 1.5 
C 0.397805 1.5 0.77937 1.341951 1.06066 1.06066 
C 1.341951 0.77937 1.5 0.397805 1.5 0 
C 1.5 -0.397805 1.341951 -0.77937 1.06066 -1.06066 
C 0.77937 -1.341951 0.397805 -1.5 0 -1.5 
C -0.397805 -1.5 -0.77937 -1.341951 -1.06066 -1.06066 
C -1.341951 -0.77937 -1.5 -0.397805 -1.5 0 
C -1.5 0.397805 -1.341951 0.77937 -1.06066 1.06066 
C -0.77937 1.341951 -0.397805 1.5 0 1.5 
z
" style="stroke: #1f77b4"/>
    </defs>
    <g clip-path="url(#pa552757928)">
     <use xlink:href="#maaf94ae98a" x="312.401827" y="292.78205" style="fill: #1f77b4; stroke: #1f77b4"/>
     <use xlink:href="#maaf94ae98a" x="311.799615" y="290.121681" style="fill: #1f77b4; stroke: #1f77b4"/>
     <use xlink:href="#maaf94ae98a" x="308.042468" y="291.490114" style="fill: #1f77b4; stroke: #1f77b4"/>
     <use xlink:href="#maaf94ae98a" x="305.579884" y="292.833448" style="fill: #1f77b4; stroke: #1f77b4"/>
     <use xlink:href="#maaf94ae98a" x="305.153985" y="286.862999" style="fill: #1f77b4; stroke: #1f77b4"/>
     <use xlink:href="#maaf94ae98a" x="295.799849" y="289.905984" style="fill: #1f77b4; stroke: #1f77b4"/>
     <use xlink:href="#maaf94ae98a" x="300.624384" y="291.543586" style="fill: #1f77b4; stroke: #1f77b4"/>
     <use xlink:href="#maaf94ae98a" x="295.838729" y="287.954952" style="fill: #1f77b4; stroke: #1f77b4"/>
     <use xlink:href="#maaf94ae98a" x="294.084173" y="286.049229" style="fill: #1f77b4; stroke: #1f77b4"/>
     <use xlink:href="#maaf94ae98a" x="288.373481" y="287.406313" style="fill: #1f77b4; stroke: #1f77b4"/>
     <use xlink:href="#maaf94ae98a" x="286.363794" y="286.232167" style="fill: #1f77b4; stroke: #1f77b4"/>
     <use xlink:href="#maaf94ae98a" x="289.683325" y="284.828639" style="fill: #1f77b4; stroke: #1f77b4"/>
     <use xlink:href="#maaf94ae98a" x="282.869897" y="286.425777" style="fill: #1f77b4; stroke: #1f77b4"/>
     <use xlink:href="#maaf94ae98a" x="280.404475" y="286.209861" style="fill: #1f77b4; stroke: #1f77b4"/>
     <use xlink:href="#maaf94ae98a" x="276.330973" y="285.26226" style="fill: #1f77b4; stroke: #1f77b4"/>
     <use xlink:href="#maaf94ae98a" x="272.24922" y="284.788481" style="fill: #1f77b4; stroke: #1f77b4"/>
     <use xlink:href="#maaf94ae98a" x="269.009792" y="282.265239" style="fill: #1f77b4; stroke: #1f77b4"/>
     <use xlink:href="#maaf94ae98a" x="269.24611" y="285.693916" style="fill: #1f77b4; stroke: #1f77b4"/>
     <use xlink:href="#maaf94ae98a" x="264.108091" y="281.791001" style="fill: #1f77b4; stroke: #1f77b4"/>
     <use xlink:href="#maaf94ae98a" x="261.500779" y="282.242999" style="fill: #1f77b4; stroke: #1f77b4"/>
     <use xlink:href="#maaf94ae98a" x="257.476819" y="281.605248" style="fill: #1f77b4; stroke: #1f77b4"/>
     <use xlink:href="#maaf94ae98a" x="257.368892" y="282.089809" style="fill: #1f77b4; stroke: #1f77b4"/>
     <use xlink:href="#maaf94ae98a" x="254.549059" y="280.442975" style="fill: #1f77b4; stroke: #1f77b4"/>
     <use xlink:href="#maaf94ae98a" x="252.659413" y="279.818995" style="fill: #1f77b4; stroke: #1f77b4"/>
     <use xlink:href="#maaf94ae98a" x="246.606886" y="280.171318" style="fill: #1f77b4; stroke: #1f77b4"/>
     <use xlink:href="#maaf94ae98a" x="244.181895" y="279.135674" style="fill: #1f77b4; stroke: #1f77b4"/>
     <use xlink:href="#maaf94ae98a" x="238.458166" y="275.721139" style="fill: #1f77b4; stroke: #1f77b4"/>
     <use xlink:href="#maaf94ae98a" x="239.1019" y="275.534534" style="fill: #1f77b4; stroke: #1f77b4"/>
     <use xlink:href="#maaf94ae98a" x="235.79633" y="276.139919" style="fill: #1f77b4; stroke: #1f77b4"/>
     <use xlink:href="#maaf94ae98a" x="233.278825" y="274.051781" style="fill: #1f77b4; stroke: #1f77b4"/>
     <use xlink:href="#maaf94ae98a" x="230.186238" y="271.902643" style="fill: #1f77b4; stroke: #1f77b4"/>
     <use xlink:href="#maaf94ae98a" x="228.634004" y="271.605669" style="fill: #1f77b4; stroke: #1f77b4"/>
     <use xlink:href="#maaf94ae98a" x="228.337551" y="268.415081" style="fill: #1f77b4; stroke: #1f77b4"/>
     <use xlink:href="#maaf94ae98a" x="224.28877" y="271.209762" style="fill: #1f77b4; stroke: #1f77b4"/>
     <use xlink:href="#maaf94ae98a" x="222.269611" y="266.482819" style="fill: #1f77b4; stroke: #1f77b4"/>
     <use xlink:href="#maaf94ae98a" x="216.502711" y="267.461827" style="fill: #1f77b4; stroke: #1f77b4"/>
     <use xlink:href="#maaf94ae98a" x="214.195681" y="267.44967" style="fill: #1f77b4; stroke: #1f77b4"/>
     <use xlink:href="#maaf94ae98a" x="208.728964" y="264.529845" style="fill: #1f77b4; stroke: #1f77b4"/>
     <use xlink:href="#maaf94ae98a" x="208.634173" y="264.732491" style="fill: #1f77b4; stroke: #1f77b4"/>
     <use xlink:href="#maaf94ae98a" x="202.607819" y="264.442675" style="fill: #1f77b4; stroke: #1f77b4"/>
     <use xlink:href="#maaf94ae98a" x="205.31012" y="261.268784" style="fill: #1f77b4; stroke: #1f77b4"/>
     <use xlink:href="#maaf94ae98a" x="199.009857" y="262.13788" style="fill: #1f77b4; stroke: #1f77b4"/>
     <use xlink:href="#maaf94ae98a" x="200.534664" y="261.071921" style="fill: #1f77b4; stroke: #1f77b4"/>
     <use xlink:href="#maaf94ae98a" x="192.735073" y="260.991016" style="fill: #1f77b4; stroke: #1f77b4"/>
     <use xlink:href="#maaf94ae98a" x="190.608317" y="256.252396" style="fill: #1f77b4; stroke: #1f77b4"/>
     <use xlink:href="#maaf94ae98a" x="188.783724" y="256.459625" style="fill: #1f77b4; stroke: #1f77b4"/>
     <use xlink:href="#maaf94ae98a" x="188.735173" y="255.753038" style="fill: #1f77b4; stroke: #1f77b4"/>
     <use xlink:href="#maaf94ae98a" x="181.585422" y="253.027347" style="fill: #1f77b4; stroke: #1f77b4"/>
     <use xlink:href="#maaf94ae98a" x="179.344666" y="251.208553" style="fill: #1f77b4; stroke: #1f77b4"/>
     <use xlink:href="#maaf94ae98a" x="177.171438" y="247.940639" style="fill: #1f77b4; stroke: #1f77b4"/>
     <use xlink:href="#maaf94ae98a" x="172.989679" y="248.717961" style="fill: #1f77b4; stroke: #1f77b4"/>
     <use xlink:href="#maaf94ae98a" x="173.56562" y="248.74533" style="fill: #1f77b4; stroke: #1f77b4"/>
     <use xlink:href="#maaf94ae98a" x="167.014319" y="244.887156" style="fill: #1f77b4; stroke: #1f77b4"/>
     <use xlink:href="#maaf94ae98a" x="164.011737" y="243.784051" style="fill: #1f77b4; stroke: #1f77b4"/>
     <use xlink:href="#maaf94ae98a" x="160.689467" y="240.454786" style="fill: #1f77b4; stroke: #1f77b4"/>
     <use xlink:href="#maaf94ae98a" x="157.430962" y="235.613349" style="fill: #1f77b4; stroke: #1f77b4"/>
     <use xlink:href="#maaf94ae98a" x="153.278842" y="236.749868" style="fill: #1f77b4; stroke: #1f77b4"/>
     <use xlink:href="#maaf94ae98a" x="153.996903" y="232.433499" style="fill: #1f77b4; stroke: #1f77b4"/>
     <use xlink:href="#maaf94ae98a" x="149.416409" y="230.256599" style="fill: #1f77b4; stroke: #1f77b4"/>
     <use xlink:href="#maaf94ae98a" x="147.140271" y="232.545723" style="fill: #1f77b4; stroke: #1f77b4"/>
     <use xlink:href="#maaf94ae98a" x="144.267994" y="226.686058" style="fill: #1f77b4; stroke: #1f77b4"/>
     <use xlink:href="#maaf94ae98a" x="141.332874" y="224.753032" style="fill: #1f77b4; stroke: #1f77b4"/>
     <use xlink:href="#maaf94ae98a" x="135.424778" y="221.522286" style="fill: #1f77b4; stroke: #1f77b4"/>
     <use xlink:href="#maaf94ae98a" x="133.800031" y="219.157778" style="fill: #1f77b4; stroke: #1f77b4"/>
     <use xlink:href="#maaf94ae98a" x="130.292569" y="216.551142" style="fill: #1f77b4; stroke: #1f77b4"/>
     <use xlink:href="#maaf94ae98a" x="128.504413" y="215.411785" style="fill: #1f77b4; stroke: #1f77b4"/>
     <use xlink:href="#maaf94ae98a" x="122.401356" y="207.893239" style="fill: #1f77b4; stroke: #1f77b4"/>
     <use xlink:href="#maaf94ae98a" x="123.611128" y="205.638903" style="fill: #1f77b4; stroke: #1f77b4"/>
     <use xlink:href="#maaf94ae98a" x="113.357799" y="205.134657" style="fill: #1f77b4; stroke: #1f77b4"/>
     <use xlink:href="#maaf94ae98a" x="114.83465" y="200.0158" style="fill: #1f77b4; stroke: #1f77b4"/>
     <use xlink:href="#maaf94ae98a" x="112.339555" y="193.577727" style="fill: #1f77b4; stroke: #1f77b4"/>
     <use xlink:href="#maaf94ae98a" x="108.979527" y="191.513248" style="fill: #1f77b4; stroke: #1f77b4"/>
     <use xlink:href="#maaf94ae98a" x="109.980971" y="188.157335" style="fill: #1f77b4; stroke: #1f77b4"/>
     <use xlink:href="#maaf94ae98a" x="104.588944" y="181.789538" style="fill: #1f77b4; stroke: #1f77b4"/>
     <use xlink:href="#maaf94ae98a" x="108.517751" y="176.54868" style="fill: #1f77b4; stroke: #1f77b4"/>
     <use xlink:href="#maaf94ae98a" x="102.864291" y="170.88974" style="fill: #1f77b4; stroke: #1f77b4"/>
     <use xlink:href="#maaf94ae98a" x="100.120403" y="165.476725" style="fill: #1f77b4; stroke: #1f77b4"/>
     <use xlink:href="#maaf94ae98a" x="102.763724" y="160.452568" style="fill: #1f77b4; stroke: #1f77b4"/>
     <use xlink:href="#maaf94ae98a" x="102.614408" y="153.415112" style="fill: #1f77b4; stroke: #1f77b4"/>
     <use xlink:href="#maaf94ae98a" x="100.988275" y="145.526063" style="fill: #1f77b4; stroke: #1f77b4"/>
     <use xlink:href="#maaf94ae98a" x="103.257185" y="137.93318" style="fill: #1f77b4; stroke: #1f77b4"/>
     <use xlink:href="#maaf94ae98a" x="103.022551" y="128.428834" style="fill: #1f77b4; stroke: #1f77b4"/>
     <use xlink:href="#maaf94ae98a" x="109.991896" y="122.311175" style="fill: #1f77b4; stroke: #1f77b4"/>
     <use xlink:href="#maaf94ae98a" x="111.45495" y="113.088569" style="fill: #1f77b4; stroke: #1f77b4"/>
     <use xlink:href="#maaf94ae98a" x="120.265622" y="101.168535" style="fill: #1f77b4; stroke: #1f77b4"/>
     <use xlink:href="#maaf94ae98a" x="129.618768" y="94.232173" style="fill: #1f77b4; stroke: #1f77b4"/>
     <use xlink:href="#maaf94ae98a" x="142.853787" y="85.616698" style="fill: #1f77b4; stroke: #1f77b4"/>
     <use xlink:href="#maaf94ae98a" x="154.12569" y="75.135505" style="fill: #1f77b4; stroke: #1f77b4"/>
     <use xlink:href="#maaf94ae98a" x="170.337547" y="67.905595" style="fill: #1f77b4; stroke: #1f77b4"/>
     <use xlink:href="#maaf94ae98a" x="191.570122" y="61.363939" style="fill: #1f77b4; stroke: #1f77b4"/>
     <use xlink:href="#maaf94ae98a" x="215.411626" y="58.112831" style="fill: #1f77b4; stroke: #1f77b4"/>
     <use xlink:href="#maaf94ae98a" x="237.834368" y="53.856" style="fill: #1f77b4; stroke: #1f77b4"/>
     <use xlink:href="#maaf94ae98a" x="260.489929" y="57.352816" style="fill: #1f77b4; stroke: #1f77b4"/>
     <use xlink:href="#maaf94ae98a" x="290.675594" y="61.069235" style="fill: #1f77b4; stroke: #1f77b4"/>
     <use xlink:href="#maaf94ae98a" x="313.115664" y="69.631043" style="fill: #1f77b4; stroke: #1f77b4"/>
     <use xlink:href="#maaf94ae98a" x="334.576569" y="78.398857" style="fill: #1f77b4; stroke: #1f77b4"/>
     <use xlink:href="#maaf94ae98a" x="352.224548" y="90.039246" style="fill: #1f77b4; stroke: #1f77b4"/>
     <use xlink:href="#maaf94ae98a" x="366.527483" y="103.660131" style="fill: #1f77b4; stroke: #1f77b4"/>
     <use xlink:href="#maaf94ae98a" x="379.473245" y="118.989484" style="fill: #1f77b4; stroke: #1f77b4"/>
     <use xlink:href="#maaf94ae98a" x="382.66257" y="136.433033" style="fill: #1f77b4; stroke: #1f77b4"/>
     <use xlink:href="#maaf94ae98a" x="384.974816" y="148.769118" style="fill: #1f77b4; stroke: #1f77b4"/>
     <use xlink:href="#maaf94ae98a" x="378.992227" y="161.365315" style="fill: #1f77b4; stroke: #1f77b4"/>
     <use xlink:href="#maaf94ae98a" x="374.277302" y="176.611864" style="fill: #1f77b4; stroke: #1f77b4"/>
     <use xlink:href="#maaf94ae98a" x="367.703459" y="187.784956" style="fill: #1f77b4; stroke: #1f77b4"/>
     <use xlink:href="#maaf94ae98a" x="354.798525" y="196.446242" style="fill: #1f77b4; stroke: #1f77b4"/>
     <use xlink:href="#maaf94ae98a" x="352.489514" y="205.896941" style="fill: #1f77b4; stroke: #1f77b4"/>
     <use xlink:href="#maaf94ae98a" x="335.501309" y="212.600888" style="fill: #1f77b4; stroke: #1f77b4"/>
     <use xlink:href="#maaf94ae98a" x="325.205403" y="217.815295" style="fill: #1f77b4; stroke: #1f77b4"/>
     <use xlink:href="#maaf94ae98a" x="317.124971" y="221.699811" style="fill: #1f77b4; stroke: #1f77b4"/>
     <use xlink:href="#maaf94ae98a" x="304.358196" y="227.833578" style="fill: #1f77b4; stroke: #1f77b4"/>
     <use xlink:href="#maaf94ae98a" x="299.334739" y="230.360967" style="fill: #1f77b4; stroke: #1f77b4"/>
     <use xlink:href="#maaf94ae98a" x="284.539267" y="229.962091" style="fill: #1f77b4; stroke: #1f77b4"/>
     <use xlink:href="#maaf94ae98a" x="280.710268" y="230.486308" style="fill: #1f77b4; stroke: #1f77b4"/>
     <use xlink:href="#maaf94ae98a" x="266.43301" y="231.528849" style="fill: #1f77b4; stroke: #1f77b4"/>
     <use xlink:href="#maaf94ae98a" x="259.662093" y="234.489597" style="fill: #1f77b4; stroke: #1f77b4"/>
     <use xlink:href="#maaf94ae98a" x="250.527277" y="234.597238" style="fill: #1f77b4; stroke: #1f77b4"/>
     <use xlink:href="#maaf94ae98a" x="245.439525" y="234.285183" style="fill: #1f77b4; stroke: #1f77b4"/>
     <use xlink:href="#maaf94ae98a" x="239.19042" y="235.135423" style="fill: #1f77b4; stroke: #1f77b4"/>
     <use xlink:href="#maaf94ae98a" x="229.173573" y="230.98822" style="fill: #1f77b4; stroke: #1f77b4"/>
     <use xlink:href="#maaf94ae98a" x="222.966252" y="230.869382" style="fill: #1f77b4; stroke: #1f77b4"/>
     <use xlink:href="#maaf94ae98a" x="216.488915" y="231.948545" style="fill: #1f77b4; stroke: #1f77b4"/>
     <use xlink:href="#maaf94ae98a" x="211.508398" y="227.882248" style="fill: #1f77b4; stroke: #1f77b4"/>
     <use xlink:href="#maaf94ae98a" x="206.425762" y="229.798403" style="fill: #1f77b4; stroke: #1f77b4"/>
     <use xlink:href="#maaf94ae98a" x="201.551917" y="228.507929" style="fill: #1f77b4; stroke: #1f77b4"/>
     <use xlink:href="#maaf94ae98a" x="194.729511" y="227.221668" style="fill: #1f77b4; stroke: #1f77b4"/>
     <use xlink:href="#maaf94ae98a" x="190.610231" y="226.954441" style="fill: #1f77b4; stroke: #1f77b4"/>
     <use xlink:href="#maaf94ae98a" x="188.429017" y="225.153544" style="fill: #1f77b4; stroke: #1f77b4"/>
     <use xlink:href="#maaf94ae98a" x="185.807183" y="222.821119" style="fill: #1f77b4; stroke: #1f77b4"/>
     <use xlink:href="#maaf94ae98a" x="178.422335" y="221.248774" style="fill: #1f77b4; stroke: #1f77b4"/>
     <use xlink:href="#maaf94ae98a" x="174.758791" y="220.22365" style="fill: #1f77b4; stroke: #1f77b4"/>
     <use xlink:href="#maaf94ae98a" x="172.84482" y="217.098493" style="fill: #1f77b4; stroke: #1f77b4"/>
     <use xlink:href="#maaf94ae98a" x="167.004681" y="216.210911" style="fill: #1f77b4; stroke: #1f77b4"/>
     <use xlink:href="#maaf94ae98a" x="163.722512" y="214.768534" style="fill: #1f77b4; stroke: #1f77b4"/>
     <use xlink:href="#maaf94ae98a" x="159.647525" y="214.400105" style="fill: #1f77b4; stroke: #1f77b4"/>
     <use xlink:href="#maaf94ae98a" x="157.135764" y="212.790461" style="fill: #1f77b4; stroke: #1f77b4"/>
     <use xlink:href="#maaf94ae98a" x="154.328242" y="210.652563" style="fill: #1f77b4; stroke: #1f77b4"/>
     <use xlink:href="#maaf94ae98a" x="146.459803" y="208.950162" style="fill: #1f77b4; stroke: #1f77b4"/>
     <use xlink:href="#maaf94ae98a" x="144.669502" y="205.949409" style="fill: #1f77b4; stroke: #1f77b4"/>
     <use xlink:href="#maaf94ae98a" x="142.761372" y="206.33484" style="fill: #1f77b4; stroke: #1f77b4"/>
     <use xlink:href="#maaf94ae98a" x="141.652001" y="204.03225" style="fill: #1f77b4; stroke: #1f77b4"/>
     <use xlink:href="#maaf94ae98a" x="140.3814" y="200.861588" style="fill: #1f77b4; stroke: #1f77b4"/>
     <use xlink:href="#maaf94ae98a" x="136.478337" y="200.12198" style="fill: #1f77b4; stroke: #1f77b4"/>
     <use xlink:href="#maaf94ae98a" x="132.141685" y="198.470017" style="fill: #1f77b4; stroke: #1f77b4"/>
     <use xlink:href="#maaf94ae98a" x="128.25123" y="197.936481" style="fill: #1f77b4; stroke: #1f77b4"/>
     <use xlink:href="#maaf94ae98a" x="125.499983" y="193.672928" style="fill: #1f77b4; stroke: #1f77b4"/>
     <use xlink:href="#maaf94ae98a" x="124.164955" y="192.09122" style="fill: #1f77b4; stroke: #1f77b4"/>
     <use xlink:href="#maaf94ae98a" x="125.69511" y="189.653336" style="fill: #1f77b4; stroke: #1f77b4"/>
     <use xlink:href="#maaf94ae98a" x="119.925999" y="189.715603" style="fill: #1f77b4; stroke: #1f77b4"/>
     <use xlink:href="#maaf94ae98a" x="120.916683" y="188.589276" style="fill: #1f77b4; stroke: #1f77b4"/>
     <use xlink:href="#maaf94ae98a" x="114.856103" y="186.802914" style="fill: #1f77b4; stroke: #1f77b4"/>
     <use xlink:href="#maaf94ae98a" x="116.322425" y="184.416231" style="fill: #1f77b4; stroke: #1f77b4"/>
     <use xlink:href="#maaf94ae98a" x="114.850723" y="181.997619" style="fill: #1f77b4; stroke: #1f77b4"/>
     <use xlink:href="#maaf94ae98a" x="109.817364" y="181.828976" style="fill: #1f77b4; stroke: #1f77b4"/>
     <use xlink:href="#maaf94ae98a" x="110.322542" y="179.428871" style="fill: #1f77b4; stroke: #1f77b4"/>
     <use xlink:href="#maaf94ae98a" x="107.14797" y="178.559884" style="fill: #1f77b4; stroke: #1f77b4"/>
     <use xlink:href="#maaf94ae98a" x="107.797215" y="174.040279" style="fill: #1f77b4; stroke: #1f77b4"/>
     <use xlink:href="#maaf94ae98a" x="104.413225" y="173.704784" style="fill: #1f77b4; stroke: #1f77b4"/>
     <use xlink:href="#maaf94ae98a" x="101.352158" y="174.276033" style="fill: #1f77b4; stroke: #1f77b4"/>
     <use xlink:href="#maaf94ae98a" x="100.932892" y="168.712687" style="fill: #1f77b4; stroke: #1f77b4"/>
     <use xlink:href="#maaf94ae98a" x="98.822804" y="165.808248" style="fill: #1f77b4; stroke: #1f77b4"/>
     <use xlink:href="#maaf94ae98a" x="101.138713" y="165.839306" style="fill: #1f77b4; stroke: #1f77b4"/>
     <use xlink:href="#maaf94ae98a" x="95.525915" y="165.630134" style="fill: #1f77b4; stroke: #1f77b4"/>
     <use xlink:href="#maaf94ae98a" x="96.077333" y="161.630337" style="fill: #1f77b4; stroke: #1f77b4"/>
     <use xlink:href="#maaf94ae98a" x="91.607075" y="161.304139" style="fill: #1f77b4; stroke: #1f77b4"/>
     <use xlink:href="#maaf94ae98a" x="91.08754" y="160.650107" style="fill: #1f77b4; stroke: #1f77b4"/>
     <use xlink:href="#maaf94ae98a" x="85.358399" y="158.110256" style="fill: #1f77b4; stroke: #1f77b4"/>
     <use xlink:href="#maaf94ae98a" x="86.213663" y="154.988221" style="fill: #1f77b4; stroke: #1f77b4"/>
     <use xlink:href="#maaf94ae98a" x="88.270283" y="153.072305" style="fill: #1f77b4; stroke: #1f77b4"/>
     <use xlink:href="#maaf94ae98a" x="85.276975" y="152.408735" style="fill: #1f77b4; stroke: #1f77b4"/>
     <use xlink:href="#maaf94ae98a" x="85.083301" y="150.060618" style="fill: #1f77b4; stroke: #1f77b4"/>
     <use xlink:href="#maaf94ae98a" x="82.987998" y="147.540693" style="fill: #1f77b4; stroke: #1f77b4"/>
     <use xlink:href="#maaf94ae98a" x="82.937566" y="142.455011" style="fill: #1f77b4; stroke: #1f77b4"/>
     <use xlink:href="#maaf94ae98a" x="83.049223" y="141.504616" style="fill: #1f77b4; stroke: #1f77b4"/>
     <use xlink:href="#maaf94ae98a" x="82.264458" y="141.333245" style="fill: #1f77b4; stroke: #1f77b4"/>
     <use xlink:href="#maaf94ae98a" x="80.188035" y="141.260459" style="fill: #1f77b4; stroke: #1f77b4"/>
     <use xlink:href="#maaf94ae98a" x="79.927789" y="140.603698" style="fill: #1f77b4; stroke: #1f77b4"/>
     <use xlink:href="#maaf94ae98a" x="76.480726" y="136.6687" style="fill: #1f77b4; stroke: #1f77b4"/>
     <use xlink:href="#maaf94ae98a" x="77.699608" y="135.011958" style="fill: #1f77b4; stroke: #1f77b4"/>
     <use xlink:href="#maaf94ae98a" x="75.231545" y="132.233144" style="fill: #1f77b4; stroke: #1f77b4"/>
     <use xlink:href="#maaf94ae98a" x="74.490348" y="132.258286" style="fill: #1f77b4; stroke: #1f77b4"/>
     <use xlink:href="#maaf94ae98a" x="74.481964" y="128.229877" style="fill: #1f77b4; stroke: #1f77b4"/>
     <use xlink:href="#maaf94ae98a" x="75.597441" y="126.450892" style="fill: #1f77b4; stroke: #1f77b4"/>
     <use xlink:href="#maaf94ae98a" x="73.115087" y="126.701204" style="fill: #1f77b4; stroke: #1f77b4"/>
     <use xlink:href="#maaf94ae98a" x="71.344853" y="123.332764" style="fill: #1f77b4; stroke: #1f77b4"/>
     <use xlink:href="#maaf94ae98a" x="69.200967" y="122.580169" style="fill: #1f77b4; stroke: #1f77b4"/>
     <use xlink:href="#maaf94ae98a" x="71.369277" y="116.581107" style="fill: #1f77b4; stroke: #1f77b4"/>
     <use xlink:href="#maaf94ae98a" x="68.498221" y="118.480174" style="fill: #1f77b4; stroke: #1f77b4"/>
     <use xlink:href="#maaf94ae98a" x="67.329276" y="115.046018" style="fill: #1f77b4; stroke: #1f77b4"/>
     <use xlink:href="#maaf94ae98a" x="71.865609" y="113.128618" style="fill: #1f77b4; stroke: #1f77b4"/>
     <use xlink:href="#maaf94ae98a" x="64.901017" y="114.719471" style="fill: #1f77b4; stroke: #1f77b4"/>
     <use xlink:href="#maaf94ae98a" x="66.731188" y="110.651754" style="fill: #1f77b4; stroke: #1f77b4"/>
     <use xlink:href="#maaf94ae98a" x="66.202676" y="109.363463" style="fill: #1f77b4; stroke: #1f77b4"/>
     <use xlink:href="#maaf94ae98a" x="64.482379" y="106.063379" style="fill: #1f77b4; stroke: #1f77b4"/>
     <use xlink:href="#maaf94ae98a" x="65.544585" y="105.060974" style="fill: #1f77b4; stroke: #1f77b4"/>
     <use xlink:href="#maaf94ae98a" x="61.228726" y="102.874559" style="fill: #1f77b4; stroke: #1f77b4"/>
     <use xlink:href="#maaf94ae98a" x="65.155553" y="99.260259" style="fill: #1f77b4; stroke: #1f77b4"/>
     <use xlink:href="#maaf94ae98a" x="63.519485" y="97.856011" style="fill: #1f77b4; stroke: #1f77b4"/>
     <use xlink:href="#maaf94ae98a" x="62.375921" y="97.262085" style="fill: #1f77b4; stroke: #1f77b4"/>
     <use xlink:href="#maaf94ae98a" x="65.16991" y="96.458441" style="fill: #1f77b4; stroke: #1f77b4"/>
     <use xlink:href="#maaf94ae98a" x="60.443665" y="95.00489" style="fill: #1f77b4; stroke: #1f77b4"/>
    </g>
   </g>
   <g id="line2d_14">
    <path d="M 313.823393 295.776 
L 303.474794 294.026924 
L 293.098608 292.038102 
L 283.242593 289.923905 
L 273.360024 287.575709 
L 264.000139 285.132314 
L 254.611952 282.457325 
L 245.191938 279.536037 
L 236.293005 276.545615 
L 227.357505 273.302998 
L 218.942713 270.014286 
L 210.486619 266.461987 
L 202.552706 262.884528 
L 195.14614 259.311738 
L 187.699004 255.470048 
L 180.787328 251.657138 
L 174.420163 247.909845 
L 168.02469 243.891673 
L 162.189586 239.974546 
L 156.34046 235.773472 
L 151.072165 231.718897 
L 145.811121 227.371583 
L 141.153446 223.230661 
L 136.529809 218.796545 
L 132.529062 214.64732 
L 128.59072 210.216914 
L 125.284192 206.17099 
L 122.063661 201.871285 
L 119.46473 198.075637 
L 116.963302 194.069066 
L 114.582896 189.833403 
L 112.352223 185.348928 
L 110.698809 181.567978 
L 109.184982 177.602689 
L 107.835933 173.441035 
L 106.681233 169.070629 
L 105.755571 164.478929 
L 105.235843 160.882458 
L 104.88735 157.149487 
L 104.732207 153.275298 
L 104.795248 149.255662 
L 105.104302 145.087066 
L 105.690493 140.766985 
L 106.588521 136.294228 
L 107.83694 131.669354 
L 108.884762 128.502877 
L 110.120853 125.271507 
L 111.559743 121.977422 
L 113.216812 118.623565 
L 115.108276 115.213761 
L 117.251148 111.752845 
L 119.663176 108.246796 
L 122.362757 104.702894 
L 125.368802 101.129876 
L 128.700578 97.538105 
L 132.377478 93.939742 
L 136.418751 90.348918 
L 140.843164 86.781903 
L 145.668583 83.257261 
L 150.911494 79.795981 
L 156.586426 76.421576 
L 162.70531 73.160138 
L 169.276745 70.040328 
L 176.305205 67.093285 
L 183.790193 64.352443 
L 191.725359 61.853233 
L 200.097629 59.632651 
L 208.886375 57.728695 
L 218.062685 56.17964 
L 222.784729 55.55003 
L 227.588785 55.023182 
L 232.468685 54.603555 
L 237.417683 54.295436 
L 242.428451 54.102912 
L 247.493095 54.029828 
L 252.603171 54.079748 
L 257.749708 54.255921 
L 262.923238 54.56124 
L 268.113833 54.99821 
L 273.311147 55.568911 
L 278.504468 56.274968 
L 283.682771 57.117519 
L 288.834781 58.097193 
L 293.949039 59.214089 
L 299.013972 60.467754 
L 304.017968 61.857175 
L 308.949455 63.380773 
L 313.796976 65.036399 
L 318.549273 66.821338 
L 323.195363 68.732323 
L 327.724615 70.765549 
L 332.126828 72.916693 
L 336.3923 75.180946 
L 340.511893 77.55304 
L 344.477094 80.027286 
L 348.280069 82.597619 
L 351.91371 85.257637 
L 355.371672 88.000652 
L 358.648402 90.819734 
L 361.739163 93.707769 
L 364.640046 96.657503 
L 367.347976 99.661597 
L 369.860705 102.712676 
L 372.176801 105.803379 
L 374.295632 108.926402 
L 376.217337 112.074546 
L 377.942797 115.240757 
L 379.473594 118.418161 
L 380.811973 121.600103 
L 381.960793 124.780173 
L 382.923481 127.952234 
L 383.703983 131.110443 
L 384.306709 134.24927 
L 384.736481 137.363513 
L 384.998484 140.448304 
L 385.09821 143.499123 
L 385.041413 146.511794 
L 384.834056 149.482491 
L 384.482265 152.407731 
L 383.992288 155.284372 
L 383.370452 158.109603 
L 382.623124 160.880937 
L 381.756676 163.596199 
L 380.777453 166.253514 
L 379.691744 168.851293 
L 378.505755 171.388218 
L 375.857217 176.275504 
L 372.879033 180.909692 
L 369.615889 185.288465 
L 366.109601 189.412384 
L 362.398897 193.284414 
L 358.519306 196.909487 
L 354.503146 200.294112 
L 350.37958 203.44601 
L 346.174738 206.373811 
L 341.91186 209.086782 
L 337.611484 211.594598 
L 333.291637 213.907154 
L 328.968041 216.034407 
L 322.504877 218.899439 
L 316.101585 221.40236 
L 309.788052 223.574395 
L 303.587232 225.445033 
L 297.516306 227.04182 
L 291.587687 228.390267 
L 285.809895 229.513844 
L 278.349691 230.698987 
L 271.172833 231.567989 
L 264.279373 232.160971 
L 257.66512 232.513028 
L 251.322913 232.654768 
L 243.763636 232.576442 
L 236.594501 232.255395 
L 229.793459 231.728975 
L 223.33803 231.028509 
L 216.016537 229.994923 
L 209.123988 228.785931 
L 202.62577 227.432085 
L 195.500262 225.702475 
L 188.821525 223.841238 
L 182.547904 221.873614 
L 175.826606 219.520209 
L 169.537008 217.077579 
L 163.636313 214.564094 
L 157.416566 211.669464 
L 151.595784 208.719042 
L 145.548157 205.389974 
L 139.897781 202.019492 
L 134.605115 198.617054 
L 129.156214 194.845927 
L 124.061216 191.051855 
L 118.868765 186.892873 
L 114.023536 182.717925 
L 109.495577 178.530736 
L 104.918964 173.983989 
L 100.657637 169.428725 
L 96.688488 164.866912 
L 92.991881 160.300067 
L 89.296522 155.377687 
L 85.87992 150.452135 
L 82.726795 145.524503 
L 79.824034 140.595784 
L 76.978938 135.314884 
L 74.396269 130.034972 
L 72.065654 124.757206 
L 69.97808 119.48278 
L 68.125674 114.212931 
L 66.501515 108.948946 
L 65.099483 103.692169 
L 63.842691 98.094458 
L 63.56631 96.696765 
L 63.56631 96.696765 
" clip-path="url(#pa552757928)" style="fill: none; stroke: #d62728; stroke-width: 1.5; stroke-linecap: square"/>
   </g>
   <g id="patch_3">
    <path d="M 44.210938 307.872 
L 44.210938 41.76 
" style="fill: none; stroke: #000000; stroke-width: 0.8; stroke-linejoin: miter; stroke-linecap: square"/>
   </g>
   <g id="patch_4">
    <path d="M 401.330938 307.872 
L 401.330938 41.76 
" style="fill: none; stroke: #000000; stroke-width: 0.8; stroke-linejoin: miter; stroke-linecap: square"/>
   </g>
   <g id="patch_5">
    <path d="M 44.210937 307.872 
L 401.330937 307.872 
" style="fill: none; stroke: #000000; stroke-width: 0.8; stroke-linejoin: miter; stroke-linecap: square"/>
   </g>
   <g id="patch_6">
    <path d="M 44.210937 41.76 
L 401.330937 41.76 
" style="fill: none; stroke: #000000; stroke-width: 0.8; stroke-linejoin: miter; stroke-linecap: square"/>
   </g>
   <g id="text_15">
    <g id="patch_7">
     <path d="M 419.186937 102.337163 
L 564.986938 102.337163 
Q 568.986938 102.337163 568.986938 98.337163 
L 568.986938 55.0656 
Q 568.986938 51.0656 564.986938 51.0656 
L 419.186937 51.0656 
Q 415.186937 51.0656 415.186937 55.0656 
L 415.186937 98.337163 
Q 415.186937 102.337163 419.186937 102.337163 
z
" style="fill: #ffffff; opacity: 0.5; stroke: #000000; stroke-linejoin: miter"/>
    </g>
    <!-- Summary -->
    <g transform="translate(419.186937 62.664038) scale(0.1 -0.1)">
     <defs>
      <path id="DejaVuSans-53" d="M 3425 4513 
L 3425 3897 
Q 3066 4069 2747 4153 
Q 2428 4238 2131 4238 
Q 1616 4238 1336 4038 
Q 1056 3838 1056 3469 
Q 1056 3159 1242 3001 
Q 1428 2844 1947 2747 
L 2328 2669 
Q 3034 2534 3370 2195 
Q 3706 1856 3706 1288 
Q 3706 609 3251 259 
Q 2797 -91 1919 -91 
Q 1588 -91 1214 -16 
Q 841 59 441 206 
L 441 856 
Q 825 641 1194 531 
Q 1563 422 1919 422 
Q 2459 422 2753 634 
Q 3047 847 3047 1241 
Q 3047 1584 2836 1778 
Q 2625 1972 2144 2069 
L 1759 2144 
Q 1053 2284 737 2584 
Q 422 2884 422 3419 
Q 422 4038 858 4394 
Q 1294 4750 2059 4750 
Q 2388 4750 2728 4690 
Q 3069 4631 3425 4513 
z
" transform="scale(0.015625)"/>
      <path id="DejaVuSans-75" d="M 544 1381 
L 544 3500 
L 1119 3500 
L 1119 1403 
Q 1119 906 1312 657 
Q 1506 409 1894 409 
Q 2359 409 2629 706 
Q 2900 1003 2900 1516 
L 2900 3500 
L 3475 3500 
L 3475 0 
L 2900 0 
L 2900 538 
Q 2691 219 2414 64 
Q 2138 -91 1772 -91 
Q 1169 -91 856 284 
Q 544 659 544 1381 
z
M 1991 3584 
L 1991 3584 
z
" transform="scale(0.015625)"/>
      <path id="DejaVuSans-61" d="M 2194 1759 
Q 1497 1759 1228 1600 
Q 959 1441 959 1056 
Q 959 750 1161 570 
Q 1363 391 1709 391 
Q 2188 391 2477 730 
Q 2766 1069 2766 1631 
L 2766 1759 
L 2194 1759 
z
M 3341 1997 
L 3341 0 
L 2766 0 
L 2766 531 
Q 2569 213 2275 61 
Q 1981 -91 1556 -91 
Q 1019 -91 701 211 
Q 384 513 384 1019 
Q 384 1609 779 1909 
Q 1175 2209 1959 2209 
L 2766 2209 
L 2766 2266 
Q 2766 2663 2505 2880 
Q 2244 3097 1772 3097 
Q 1472 3097 1187 3025 
Q 903 2953 641 2809 
L 641 3341 
Q 956 3463 1253 3523 
Q 1550 3584 1831 3584 
Q 2591 3584 2966 3190 
Q 3341 2797 3341 1997 
z
" transform="scale(0.015625)"/>
      <path id="DejaVuSans-72" d="M 2631 2963 
Q 2534 3019 2420 3045 
Q 2306 3072 2169 3072 
Q 1681 3072 1420 2755 
Q 1159 2438 1159 1844 
L 1159 0 
L 581 0 
L 581 3500 
L 1159 3500 
L 1159 2956 
Q 1341 3275 1631 3429 
Q 1922 3584 2338 3584 
Q 2397 3584 2469 3576 
Q 2541 3569 2628 3553 
L 2631 2963 
z
" transform="scale(0.015625)"/>
      <path id="DejaVuSans-79" d="M 2059 -325 
Q 1816 -950 1584 -1140 
Q 1353 -1331 966 -1331 
L 506 -1331 
L 506 -850 
L 844 -850 
Q 1081 -850 1212 -737 
Q 1344 -625 1503 -206 
L 1606 56 
L 191 3500 
L 800 3500 
L 1894 763 
L 2988 3500 
L 3597 3500 
L 2059 -325 
z
" transform="scale(0.015625)"/>
     </defs>
     <use xlink:href="#DejaVuSans-53"/>
     <use xlink:href="#DejaVuSans-75" x="63.476562"/>
     <use xlink:href="#DejaVuSans-6d" x="126.855469"/>
     <use xlink:href="#DejaVuSans-6d" x="224.267578"/>
     <use xlink:href="#DejaVuSans-61" x="321.679688"/>
     <use xlink:href="#DejaVuSans-72" x="382.958984"/>
     <use xlink:href="#DejaVuSans-79" x="424.072266"/>
    </g>
    <!-- $Q_I$: 21.63$\pm$0.41 k -->
    <g transform="translate(419.186937 73.86185) scale(0.1 -0.1)">
     <defs>
      <path id="DejaVuSans-Oblique-51" d="M 2309 -84 
Q 2275 -88 2237 -89 
Q 2200 -91 2125 -91 
Q 1250 -91 756 411 
Q 263 913 263 1797 
Q 263 2319 452 2844 
Q 641 3369 978 3788 
Q 1369 4269 1858 4509 
Q 2347 4750 2938 4750 
Q 3794 4750 4287 4245 
Q 4781 3741 4781 2869 
Q 4781 1928 4265 1147 
Q 3750 366 2919 44 
L 3553 -825 
L 2847 -825 
L 2309 -84 
z
M 2919 4238 
Q 2400 4238 2003 3986 
Q 1606 3734 1313 3219 
Q 1125 2891 1026 2522 
Q 928 2153 928 1778 
Q 928 1128 1239 775 
Q 1550 422 2119 422 
Q 2631 422 3032 676 
Q 3434 931 3719 1434 
Q 3909 1772 4009 2142 
Q 4109 2513 4109 2881 
Q 4109 3528 3796 3883 
Q 3484 4238 2919 4238 
z
" transform="scale(0.015625)"/>
      <path id="DejaVuSans-Oblique-49" d="M 1081 4666 
L 1716 4666 
L 806 0 
L 172 0 
L 1081 4666 
z
" transform="scale(0.015625)"/>
      <path id="DejaVuSans-3a" d="M 750 794 
L 1409 794 
L 1409 0 
L 750 0 
L 750 794 
z
M 750 3309 
L 1409 3309 
L 1409 2516 
L 750 2516 
L 750 3309 
z
" transform="scale(0.015625)"/>
      <path id="DejaVuSans-2e" d="M 684 794 
L 1344 794 
L 1344 0 
L 684 0 
L 684 794 
z
" transform="scale(0.015625)"/>
      <path id="DejaVuSans-33" d="M 2597 2516 
Q 3050 2419 3304 2112 
Q 3559 1806 3559 1356 
Q 3559 666 3084 287 
Q 2609 -91 1734 -91 
Q 1441 -91 1130 -33 
Q 819 25 488 141 
L 488 750 
Q 750 597 1062 519 
Q 1375 441 1716 441 
Q 2309 441 2620 675 
Q 2931 909 2931 1356 
Q 2931 1769 2642 2001 
Q 2353 2234 1838 2234 
L 1294 2234 
L 1294 2753 
L 1863 2753 
Q 2328 2753 2575 2939 
Q 2822 3125 2822 3475 
Q 2822 3834 2567 4026 
Q 2313 4219 1838 4219 
Q 1578 4219 1281 4162 
Q 984 4106 628 3988 
L 628 4550 
Q 988 4650 1302 4700 
Q 1616 4750 1894 4750 
Q 2613 4750 3031 4423 
Q 3450 4097 3450 3541 
Q 3450 3153 3228 2886 
Q 3006 2619 2597 2516 
z
" transform="scale(0.015625)"/>
      <path id="DejaVuSans-b1" d="M 2944 4013 
L 2944 2803 
L 4684 2803 
L 4684 2272 
L 2944 2272 
L 2944 1063 
L 2419 1063 
L 2419 2272 
L 678 2272 
L 678 2803 
L 2419 2803 
L 2419 4013 
L 2944 4013 
z
M 678 531 
L 4684 531 
L 4684 0 
L 678 0 
L 678 531 
z
" transform="scale(0.015625)"/>
      <path id="DejaVuSans-6b" d="M 581 4863 
L 1159 4863 
L 1159 1991 
L 2875 3500 
L 3609 3500 
L 1753 1863 
L 3688 0 
L 2938 0 
L 1159 1709 
L 1159 0 
L 581 0 
L 581 4863 
z
" transform="scale(0.015625)"/>
     </defs>
     <use xlink:href="#DejaVuSans-Oblique-51" transform="translate(0 0.015625)"/>
     <use xlink:href="#DejaVuSans-Oblique-49" transform="translate(78.710938 -16.390625) scale(0.7)"/>
     <use xlink:href="#DejaVuSans-3a" transform="translate(102.089844 0.015625)"/>
     <use xlink:href="#DejaVuSans-20" transform="translate(135.78125 0.015625)"/>
     <use xlink:href="#DejaVuSans-32" transform="translate(167.568359 0.015625)"/>
     <use xlink:href="#DejaVuSans-31" transform="translate(231.191406 0.015625)"/>
     <use xlink:href="#DejaVuSans-2e" transform="translate(294.814453 0.015625)"/>
     <use xlink:href="#DejaVuSans-36" transform="translate(326.601562 0.015625)"/>
     <use xlink:href="#DejaVuSans-33" transform="translate(390.224609 0.015625)"/>
     <use xlink:href="#DejaVuSans-b1" transform="translate(453.847656 0.015625)"/>
     <use xlink:href="#DejaVuSans-30" transform="translate(537.636719 0.015625)"/>
     <use xlink:href="#DejaVuSans-2e" transform="translate(601.259766 0.015625)"/>
     <use xlink:href="#DejaVuSans-34" transform="translate(633.046875 0.015625)"/>
     <use xlink:href="#DejaVuSans-31" transform="translate(696.669922 0.015625)"/>
     <use xlink:href="#DejaVuSans-20" transform="translate(760.292969 0.015625)"/>
     <use xlink:href="#DejaVuSans-6b" transform="translate(792.080078 0.015625)"/>
    </g>
    <!-- $Q_C$: 3.167$\pm$0.010 k -->
    <g transform="translate(419.186937 85.059663) scale(0.1 -0.1)">
     <defs>
      <path id="DejaVuSans-Oblique-43" d="M 4447 4306 
L 4319 3641 
Q 4019 3944 3683 4091 
Q 3347 4238 2956 4238 
Q 2422 4238 2017 3981 
Q 1613 3725 1319 3200 
Q 1131 2863 1032 2486 
Q 934 2109 934 1728 
Q 934 1091 1264 756 
Q 1594 422 2222 422 
Q 2656 422 3056 561 
Q 3456 700 3834 978 
L 3688 231 
Q 3316 72 2936 -9 
Q 2556 -91 2175 -91 
Q 1278 -91 773 396 
Q 269 884 269 1753 
Q 269 2309 461 2846 
Q 653 3384 1013 3828 
Q 1394 4300 1883 4525 
Q 2372 4750 3022 4750 
Q 3422 4750 3780 4639 
Q 4138 4528 4447 4306 
z
" transform="scale(0.015625)"/>
      <path id="DejaVuSans-37" d="M 525 4666 
L 3525 4666 
L 3525 4397 
L 1831 0 
L 1172 0 
L 2766 4134 
L 525 4134 
L 525 4666 
z
" transform="scale(0.015625)"/>
     </defs>
     <use xlink:href="#DejaVuSans-Oblique-51" transform="translate(0 0.015625)"/>
     <use xlink:href="#DejaVuSans-Oblique-43" transform="translate(78.710938 -16.390625) scale(0.7)"/>
     <use xlink:href="#DejaVuSans-3a" transform="translate(130.322266 0.015625)"/>
     <use xlink:href="#DejaVuSans-20" transform="translate(164.013672 0.015625)"/>
     <use xlink:href="#DejaVuSans-33" transform="translate(195.800781 0.015625)"/>
     <use xlink:href="#DejaVuSans-2e" transform="translate(259.423828 0.015625)"/>
     <use xlink:href="#DejaVuSans-31" transform="translate(291.210938 0.015625)"/>
     <use xlink:href="#DejaVuSans-36" transform="translate(354.833984 0.015625)"/>
     <use xlink:href="#DejaVuSans-37" transform="translate(418.457031 0.015625)"/>
     <use xlink:href="#DejaVuSans-b1" transform="translate(482.080078 0.015625)"/>
     <use xlink:href="#DejaVuSans-30" transform="translate(565.869141 0.015625)"/>
     <use xlink:href="#DejaVuSans-2e" transform="translate(629.492188 0.015625)"/>
     <use xlink:href="#DejaVuSans-30" transform="translate(661.279297 0.015625)"/>
     <use xlink:href="#DejaVuSans-31" transform="translate(724.902344 0.015625)"/>
     <use xlink:href="#DejaVuSans-30" transform="translate(788.525391 0.015625)"/>
     <use xlink:href="#DejaVuSans-20" transform="translate(852.148438 0.015625)"/>
     <use xlink:href="#DejaVuSans-6b" transform="translate(883.935547 0.015625)"/>
    </g>
    <!-- $f_{res}$: 6.0080237$\pm$4.4e-06 GHz -->
    <g transform="translate(419.186937 96.257475) scale(0.1 -0.1)">
     <defs>
      <path id="DejaVuSans-Oblique-66" d="M 3059 4863 
L 2969 4384 
L 2419 4384 
Q 2106 4384 1964 4261 
Q 1822 4138 1753 3809 
L 1691 3500 
L 2638 3500 
L 2553 3053 
L 1606 3053 
L 1013 0 
L 434 0 
L 1031 3053 
L 481 3053 
L 563 3500 
L 1113 3500 
L 1159 3744 
Q 1278 4363 1576 4613 
Q 1875 4863 2516 4863 
L 3059 4863 
z
" transform="scale(0.015625)"/>
      <path id="DejaVuSans-Oblique-72" d="M 2853 2969 
Q 2766 3016 2653 3041 
Q 2541 3066 2413 3066 
Q 1953 3066 1609 2717 
Q 1266 2369 1153 1784 
L 800 0 
L 225 0 
L 909 3500 
L 1484 3500 
L 1375 2956 
Q 1603 3259 1920 3421 
Q 2238 3584 2597 3584 
Q 2691 3584 2781 3573 
Q 2872 3563 2963 3538 
L 2853 2969 
z
" transform="scale(0.015625)"/>
      <path id="DejaVuSans-Oblique-65" d="M 3078 2063 
Q 3088 2113 3092 2166 
Q 3097 2219 3097 2272 
Q 3097 2653 2873 2875 
Q 2650 3097 2266 3097 
Q 1838 3097 1509 2826 
Q 1181 2556 1013 2059 
L 3078 2063 
z
M 3578 1613 
L 903 1613 
Q 884 1494 878 1425 
Q 872 1356 872 1306 
Q 872 872 1139 634 
Q 1406 397 1894 397 
Q 2269 397 2603 481 
Q 2938 566 3225 728 
L 3116 159 
Q 2806 34 2476 -28 
Q 2147 -91 1806 -91 
Q 1078 -91 686 257 
Q 294 606 294 1247 
Q 294 1794 489 2264 
Q 684 2734 1063 3103 
Q 1306 3334 1642 3459 
Q 1978 3584 2356 3584 
Q 2950 3584 3301 3228 
Q 3653 2872 3653 2272 
Q 3653 2128 3634 1964 
Q 3616 1800 3578 1613 
z
" transform="scale(0.015625)"/>
      <path id="DejaVuSans-Oblique-73" d="M 3200 3397 
L 3091 2853 
Q 2863 2978 2609 3040 
Q 2356 3103 2088 3103 
Q 1634 3103 1373 2948 
Q 1113 2794 1113 2528 
Q 1113 2219 1719 2053 
Q 1766 2041 1788 2034 
L 1972 1978 
Q 2547 1819 2739 1644 
Q 2931 1469 2931 1166 
Q 2931 609 2489 259 
Q 2047 -91 1331 -91 
Q 1053 -91 747 -37 
Q 441 16 72 128 
L 184 722 
Q 500 559 806 475 
Q 1113 391 1394 391 
Q 1816 391 2080 572 
Q 2344 753 2344 1031 
Q 2344 1331 1650 1516 
L 1591 1531 
L 1394 1581 
Q 956 1697 753 1886 
Q 550 2075 550 2369 
Q 550 2928 970 3256 
Q 1391 3584 2113 3584 
Q 2397 3584 2667 3537 
Q 2938 3491 3200 3397 
z
" transform="scale(0.015625)"/>
      <path id="DejaVuSans-47" d="M 3809 666 
L 3809 1919 
L 2778 1919 
L 2778 2438 
L 4434 2438 
L 4434 434 
Q 4069 175 3628 42 
Q 3188 -91 2688 -91 
Q 1594 -91 976 548 
Q 359 1188 359 2328 
Q 359 3472 976 4111 
Q 1594 4750 2688 4750 
Q 3144 4750 3555 4637 
Q 3966 4525 4313 4306 
L 4313 3634 
Q 3963 3931 3569 4081 
Q 3175 4231 2741 4231 
Q 1884 4231 1454 3753 
Q 1025 3275 1025 2328 
Q 1025 1384 1454 906 
Q 1884 428 2741 428 
Q 3075 428 3337 486 
Q 3600 544 3809 666 
z
" transform="scale(0.015625)"/>
      <path id="DejaVuSans-48" d="M 628 4666 
L 1259 4666 
L 1259 2753 
L 3553 2753 
L 3553 4666 
L 4184 4666 
L 4184 0 
L 3553 0 
L 3553 2222 
L 1259 2222 
L 1259 0 
L 628 0 
L 628 4666 
z
" transform="scale(0.015625)"/>
      <path id="DejaVuSans-7a" d="M 353 3500 
L 3084 3500 
L 3084 2975 
L 922 459 
L 3084 459 
L 3084 0 
L 275 0 
L 275 525 
L 2438 3041 
L 353 3041 
L 353 3500 
z
" transform="scale(0.015625)"/>
     </defs>
     <use xlink:href="#DejaVuSans-Oblique-66" transform="translate(0 0.015625)"/>
     <use xlink:href="#DejaVuSans-Oblique-72" transform="translate(35.205078 -16.390625) scale(0.7)"/>
     <use xlink:href="#DejaVuSans-Oblique-65" transform="translate(63.984375 -16.390625) scale(0.7)"/>
     <use xlink:href="#DejaVuSans-Oblique-73" transform="translate(107.050781 -16.390625) scale(0.7)"/>
     <use xlink:href="#DejaVuSans-3a" transform="translate(146.254883 0.015625)"/>
     <use xlink:href="#DejaVuSans-20" transform="translate(179.946289 0.015625)"/>
     <use xlink:href="#DejaVuSans-36" transform="translate(211.733398 0.015625)"/>
     <use xlink:href="#DejaVuSans-2e" transform="translate(275.356445 0.015625)"/>
     <use xlink:href="#DejaVuSans-30" transform="translate(307.143555 0.015625)"/>
     <use xlink:href="#DejaVuSans-30" transform="translate(370.766602 0.015625)"/>
     <use xlink:href="#DejaVuSans-38" transform="translate(434.389648 0.015625)"/>
     <use xlink:href="#DejaVuSans-30" transform="translate(498.012695 0.015625)"/>
     <use xlink:href="#DejaVuSans-32" transform="translate(561.635742 0.015625)"/>
     <use xlink:href="#DejaVuSans-33" transform="translate(625.258789 0.015625)"/>
     <use xlink:href="#DejaVuSans-37" transform="translate(688.881836 0.015625)"/>
     <use xlink:href="#DejaVuSans-b1" transform="translate(752.504883 0.015625)"/>
     <use xlink:href="#DejaVuSans-34" transform="translate(836.293945 0.015625)"/>
     <use xlink:href="#DejaVuSans-2e" transform="translate(899.916992 0.015625)"/>
     <use xlink:href="#DejaVuSans-34" transform="translate(931.704102 0.015625)"/>
     <use xlink:href="#DejaVuSans-65" transform="translate(995.327148 0.015625)"/>
     <use xlink:href="#DejaVuSans-2d" transform="translate(1056.850586 0.015625)"/>
     <use xlink:href="#DejaVuSans-30" transform="translate(1092.93457 0.015625)"/>
     <use xlink:href="#DejaVuSans-36" transform="translate(1156.557617 0.015625)"/>
     <use xlink:href="#DejaVuSans-20" transform="translate(1220.180664 0.015625)"/>
     <use xlink:href="#DejaVuSans-47" transform="translate(1251.967773 0.015625)"/>
     <use xlink:href="#DejaVuSans-48" transform="translate(1329.458008 0.015625)"/>
     <use xlink:href="#DejaVuSans-7a" transform="translate(1404.65332 0.015625)"/>
    </g>
   </g>
  </g>
  <g id="text_16">
   <!-- S21 resonator spectroscopy -->
   <g transform="translate(133.226562 16.318125) scale(0.12 -0.12)">
    <defs>
     <path id="DejaVuSans-73" d="M 2834 3397 
L 2834 2853 
Q 2591 2978 2328 3040 
Q 2066 3103 1784 3103 
Q 1356 3103 1142 2972 
Q 928 2841 928 2578 
Q 928 2378 1081 2264 
Q 1234 2150 1697 2047 
L 1894 2003 
Q 2506 1872 2764 1633 
Q 3022 1394 3022 966 
Q 3022 478 2636 193 
Q 2250 -91 1575 -91 
Q 1294 -91 989 -36 
Q 684 19 347 128 
L 347 722 
Q 666 556 975 473 
Q 1284 391 1588 391 
Q 1994 391 2212 530 
Q 2431 669 2431 922 
Q 2431 1156 2273 1281 
Q 2116 1406 1581 1522 
L 1381 1569 
Q 847 1681 609 1914 
Q 372 2147 372 2553 
Q 372 3047 722 3315 
Q 1072 3584 1716 3584 
Q 2034 3584 2315 3537 
Q 2597 3491 2834 3397 
z
" transform="scale(0.015625)"/>
     <path id="DejaVuSans-6f" d="M 1959 3097 
Q 1497 3097 1228 2736 
Q 959 2375 959 1747 
Q 959 1119 1226 758 
Q 1494 397 1959 397 
Q 2419 397 2687 759 
Q 2956 1122 2956 1747 
Q 2956 2369 2687 2733 
Q 2419 3097 1959 3097 
z
M 1959 3584 
Q 2709 3584 3137 3096 
Q 3566 2609 3566 1747 
Q 3566 888 3137 398 
Q 2709 -91 1959 -91 
Q 1206 -91 779 398 
Q 353 888 353 1747 
Q 353 2609 779 3096 
Q 1206 3584 1959 3584 
z
" transform="scale(0.015625)"/>
     <path id="DejaVuSans-6e" d="M 3513 2113 
L 3513 0 
L 2938 0 
L 2938 2094 
Q 2938 2591 2744 2837 
Q 2550 3084 2163 3084 
Q 1697 3084 1428 2787 
Q 1159 2491 1159 1978 
L 1159 0 
L 581 0 
L 581 3500 
L 1159 3500 
L 1159 2956 
Q 1366 3272 1645 3428 
Q 1925 3584 2291 3584 
Q 2894 3584 3203 3211 
Q 3513 2838 3513 2113 
z
" transform="scale(0.015625)"/>
     <path id="DejaVuSans-74" d="M 1172 4494 
L 1172 3500 
L 2356 3500 
L 2356 3053 
L 1172 3053 
L 1172 1153 
Q 1172 725 1289 603 
Q 1406 481 1766 481 
L 2356 481 
L 2356 0 
L 1766 0 
Q 1100 0 847 248 
Q 594 497 594 1153 
L 594 3053 
L 172 3053 
L 172 3500 
L 594 3500 
L 594 4494 
L 1172 4494 
z
" transform="scale(0.015625)"/>
     <path id="DejaVuSans-70" d="M 1159 525 
L 1159 -1331 
L 581 -1331 
L 581 3500 
L 1159 3500 
L 1159 2969 
Q 1341 3281 1617 3432 
Q 1894 3584 2278 3584 
Q 2916 3584 3314 3078 
Q 3713 2572 3713 1747 
Q 3713 922 3314 415 
Q 2916 -91 2278 -91 
Q 1894 -91 1617 61 
Q 1341 213 1159 525 
z
M 3116 1747 
Q 3116 2381 2855 2742 
Q 2594 3103 2138 3103 
Q 1681 3103 1420 2742 
Q 1159 2381 1159 1747 
Q 1159 1113 1420 752 
Q 1681 391 2138 391 
Q 2594 391 2855 752 
Q 3116 1113 3116 1747 
z
" transform="scale(0.015625)"/>
     <path id="DejaVuSans-63" d="M 3122 3366 
L 3122 2828 
Q 2878 2963 2633 3030 
Q 2388 3097 2138 3097 
Q 1578 3097 1268 2742 
Q 959 2388 959 1747 
Q 959 1106 1268 751 
Q 1578 397 2138 397 
Q 2388 397 2633 464 
Q 2878 531 3122 666 
L 3122 134 
Q 2881 22 2623 -34 
Q 2366 -91 2075 -91 
Q 1284 -91 818 406 
Q 353 903 353 1747 
Q 353 2603 823 3093 
Q 1294 3584 2113 3584 
Q 2378 3584 2631 3529 
Q 2884 3475 3122 3366 
z
" transform="scale(0.015625)"/>
    </defs>
    <use xlink:href="#DejaVuSans-53"/>
    <use xlink:href="#DejaVuSans-32" x="63.476562"/>
    <use xlink:href="#DejaVuSans-31" x="127.099609"/>
    <use xlink:href="#DejaVuSans-20" x="190.722656"/>
    <use xlink:href="#DejaVuSans-72" x="222.509766"/>
    <use xlink:href="#DejaVuSans-65" x="261.373047"/>
    <use xlink:href="#DejaVuSans-73" x="322.896484"/>
    <use xlink:href="#DejaVuSans-6f" x="374.996094"/>
    <use xlink:href="#DejaVuSans-6e" x="436.177734"/>
    <use xlink:href="#DejaVuSans-61" x="499.556641"/>
    <use xlink:href="#DejaVuSans-74" x="560.835938"/>
    <use xlink:href="#DejaVuSans-6f" x="600.044922"/>
    <use xlink:href="#DejaVuSans-72" x="661.226562"/>
    <use xlink:href="#DejaVuSans-20" x="702.339844"/>
    <use xlink:href="#DejaVuSans-73" x="734.126953"/>
    <use xlink:href="#DejaVuSans-70" x="786.226562"/>
    <use xlink:href="#DejaVuSans-65" x="849.703125"/>
    <use xlink:href="#DejaVuSans-63" x="911.226562"/>
    <use xlink:href="#DejaVuSans-74" x="966.207031"/>
    <use xlink:href="#DejaVuSans-72" x="1005.416016"/>
    <use xlink:href="#DejaVuSans-6f" x="1044.279297"/>
    <use xlink:href="#DejaVuSans-73" x="1105.460938"/>
    <use xlink:href="#DejaVuSans-63" x="1157.560547"/>
    <use xlink:href="#DejaVuSans-6f" x="1212.541016"/>
    <use xlink:href="#DejaVuSans-70" x="1273.722656"/>
    <use xlink:href="#DejaVuSans-79" x="1337.199219"/>
   </g>
   <!-- tuid: 20231225-162713-847-51192d -->
   <g transform="translate(107.164063 29.7555) scale(0.12 -0.12)">
    <defs>
     <path id="DejaVuSans-69" d="M 603 3500 
L 1178 3500 
L 1178 0 
L 603 0 
L 603 3500 
z
M 603 4863 
L 1178 4863 
L 1178 4134 
L 603 4134 
L 603 4863 
z
" transform="scale(0.015625)"/>
     <path id="DejaVuSans-64" d="M 2906 2969 
L 2906 4863 
L 3481 4863 
L 3481 0 
L 2906 0 
L 2906 525 
Q 2725 213 2448 61 
Q 2172 -91 1784 -91 
Q 1150 -91 751 415 
Q 353 922 353 1747 
Q 353 2572 751 3078 
Q 1150 3584 1784 3584 
Q 2172 3584 2448 3432 
Q 2725 3281 2906 2969 
z
M 947 1747 
Q 947 1113 1208 752 
Q 1469 391 1925 391 
Q 2381 391 2643 752 
Q 2906 1113 2906 1747 
Q 2906 2381 2643 2742 
Q 2381 3103 1925 3103 
Q 1469 3103 1208 2742 
Q 947 2381 947 1747 
z
" transform="scale(0.015625)"/>
     <path id="DejaVuSans-35" d="M 691 4666 
L 3169 4666 
L 3169 4134 
L 1269 4134 
L 1269 2991 
Q 1406 3038 1543 3061 
Q 1681 3084 1819 3084 
Q 2600 3084 3056 2656 
Q 3513 2228 3513 1497 
Q 3513 744 3044 326 
Q 2575 -91 1722 -91 
Q 1428 -91 1123 -41 
Q 819 9 494 109 
L 494 744 
Q 775 591 1075 516 
Q 1375 441 1709 441 
Q 2250 441 2565 725 
Q 2881 1009 2881 1497 
Q 2881 1984 2565 2268 
Q 2250 2553 1709 2553 
Q 1456 2553 1204 2497 
Q 953 2441 691 2322 
L 691 4666 
z
" transform="scale(0.015625)"/>
     <path id="DejaVuSans-39" d="M 703 97 
L 703 672 
Q 941 559 1184 500 
Q 1428 441 1663 441 
Q 2288 441 2617 861 
Q 2947 1281 2994 2138 
Q 2813 1869 2534 1725 
Q 2256 1581 1919 1581 
Q 1219 1581 811 2004 
Q 403 2428 403 3163 
Q 403 3881 828 4315 
Q 1253 4750 1959 4750 
Q 2769 4750 3195 4129 
Q 3622 3509 3622 2328 
Q 3622 1225 3098 567 
Q 2575 -91 1691 -91 
Q 1453 -91 1209 -44 
Q 966 3 703 97 
z
M 1959 2075 
Q 2384 2075 2632 2365 
Q 2881 2656 2881 3163 
Q 2881 3666 2632 3958 
Q 2384 4250 1959 4250 
Q 1534 4250 1286 3958 
Q 1038 3666 1038 3163 
Q 1038 2656 1286 2365 
Q 1534 2075 1959 2075 
z
" transform="scale(0.015625)"/>
    </defs>
    <use xlink:href="#DejaVuSans-74"/>
    <use xlink:href="#DejaVuSans-75" x="39.208984"/>
    <use xlink:href="#DejaVuSans-69" x="102.587891"/>
    <use xlink:href="#DejaVuSans-64" x="130.371094"/>
    <use xlink:href="#DejaVuSans-3a" x="193.847656"/>
    <use xlink:href="#DejaVuSans-20" x="227.539062"/>
    <use xlink:href="#DejaVuSans-32" x="259.326172"/>
    <use xlink:href="#DejaVuSans-30" x="322.949219"/>
    <use xlink:href="#DejaVuSans-32" x="386.572266"/>
    <use xlink:href="#DejaVuSans-33" x="450.195312"/>
    <use xlink:href="#DejaVuSans-31" x="513.818359"/>
    <use xlink:href="#DejaVuSans-32" x="577.441406"/>
    <use xlink:href="#DejaVuSans-32" x="641.064453"/>
    <use xlink:href="#DejaVuSans-35" x="704.6875"/>
    <use xlink:href="#DejaVuSans-2d" x="768.310547"/>
    <use xlink:href="#DejaVuSans-31" x="804.394531"/>
    <use xlink:href="#DejaVuSans-36" x="868.017578"/>
    <use xlink:href="#DejaVuSans-32" x="931.640625"/>
    <use xlink:href="#DejaVuSans-37" x="995.263672"/>
    <use xlink:href="#DejaVuSans-31" x="1058.886719"/>
    <use xlink:href="#DejaVuSans-33" x="1122.509766"/>
    <use xlink:href="#DejaVuSans-2d" x="1186.132812"/>
    <use xlink:href="#DejaVuSans-38" x="1222.216797"/>
    <use xlink:href="#DejaVuSans-34" x="1285.839844"/>
    <use xlink:href="#DejaVuSans-37" x="1349.462891"/>
    <use xlink:href="#DejaVuSans-2d" x="1413.085938"/>
    <use xlink:href="#DejaVuSans-35" x="1449.169922"/>
    <use xlink:href="#DejaVuSans-31" x="1512.792969"/>
    <use xlink:href="#DejaVuSans-31" x="1576.416016"/>
    <use xlink:href="#DejaVuSans-39" x="1640.039062"/>
    <use xlink:href="#DejaVuSans-32" x="1703.662109"/>
    <use xlink:href="#DejaVuSans-64" x="1767.285156"/>
   </g>
  </g>
 </g>
 <defs>
  <clipPath id="pa552757928">
   <rect x="44.210938" y="41.76" width="357.12" height="266.112"/>
  </clipPath>
 </defs>
</svg>
