<?xml version="1.0" encoding="utf-8" standalone="no"?>
<!DOCTYPE svg PUBLIC "-//W3C//DTD SVG 1.1//EN"
  "http://www.w3.org/Graphics/SVG/1.1/DTD/svg11.dtd">
<svg xmlns:xlink="http://www.w3.org/1999/xlink" width="559.124437pt" height="345.42825pt" viewBox="0 0 559.124437 345.42825" xmlns="http://www.w3.org/2000/svg" version="1.1">
 <metadata>
  <rdf:RDF xmlns:dc="http://purl.org/dc/elements/1.1/" xmlns:cc="http://creativecommons.org/ns#" xmlns:rdf="http://www.w3.org/1999/02/22-rdf-syntax-ns#">
   <cc:Work>
    <dc:type rdf:resource="http://purl.org/dc/dcmitype/StillImage"/>
    <dc:date>2023-12-25T16:27:41.908044</dc:date>
    <dc:format>image/svg+xml</dc:format>
    <dc:creator>
     <cc:Agent>
      <dc:title>Matplotlib v3.8.2, https://matplotlib.org/</dc:title>
     </cc:Agent>
    </dc:creator>
   </cc:Work>
  </rdf:RDF>
 </metadata>
 <defs>
  <style type="text/css">*{stroke-linejoin: round; stroke-linecap: butt}</style>
 </defs>
 <g id="figure_1">
  <g id="patch_1">
   <path d="M 0 345.42825 
L 559.124437 345.42825 
L 559.124437 -0 
L 0 -0 
L 0 345.42825 
z
" style="fill: none; opacity: 0"/>
  </g>
  <g id="axes_1">
   <g id="patch_2">
    <path d="M 37.848438 307.872 
L 394.968438 307.872 
L 394.968438 41.76 
L 37.848438 41.76 
z
" style="fill: #ffffff"/>
   </g>
   <g id="matplotlib.axis_1">
    <g id="xtick_1">
     <g id="line2d_1">
      <defs>
       <path id="m758ee26564" d="M 0 0 
L 0 3.5 
" style="stroke: #000000; stroke-width: 0.8"/>
      </defs>
      <g>
       <use xlink:href="#m758ee26564" x="104.607982" y="307.872" style="stroke: #000000; stroke-width: 0.8"/>
      </g>
     </g>
     <g id="text_1">
      <!-- -8 -->
      <g transform="translate(99.622826 322.470438) scale(0.1 -0.1)">
       <defs>
        <path id="DejaVuSans-2d" d="M 313 2009 
L 1997 2009 
L 1997 1497 
L 313 1497 
L 313 2009 
z
" transform="scale(0.015625)"/>
        <path id="DejaVuSans-38" d="M 2034 2216 
Q 1584 2216 1326 1975 
Q 1069 1734 1069 1313 
Q 1069 891 1326 650 
Q 1584 409 2034 409 
Q 2484 409 2743 651 
Q 3003 894 3003 1313 
Q 3003 1734 2745 1975 
Q 2488 2216 2034 2216 
z
M 1403 2484 
Q 997 2584 770 2862 
Q 544 3141 544 3541 
Q 544 4100 942 4425 
Q 1341 4750 2034 4750 
Q 2731 4750 3128 4425 
Q 3525 4100 3525 3541 
Q 3525 3141 3298 2862 
Q 3072 2584 2669 2484 
Q 3125 2378 3379 2068 
Q 3634 1759 3634 1313 
Q 3634 634 3220 271 
Q 2806 -91 2034 -91 
Q 1263 -91 848 271 
Q 434 634 434 1313 
Q 434 1759 690 2068 
Q 947 2378 1403 2484 
z
M 1172 3481 
Q 1172 3119 1398 2916 
Q 1625 2713 2034 2713 
Q 2441 2713 2670 2916 
Q 2900 3119 2900 3481 
Q 2900 3844 2670 4047 
Q 2441 4250 2034 4250 
Q 1625 4250 1398 4047 
Q 1172 3844 1172 3481 
z
" transform="scale(0.015625)"/>
       </defs>
       <use xlink:href="#DejaVuSans-2d"/>
       <use xlink:href="#DejaVuSans-38" x="36.083984"/>
      </g>
     </g>
    </g>
    <g id="xtick_2">
     <g id="line2d_2">
      <g>
       <use xlink:href="#m758ee26564" x="176.831993" y="307.872" style="stroke: #000000; stroke-width: 0.8"/>
      </g>
     </g>
     <g id="text_2">
      <!-- -6 -->
      <g transform="translate(171.846837 322.470438) scale(0.1 -0.1)">
       <defs>
        <path id="DejaVuSans-36" d="M 2113 2584 
Q 1688 2584 1439 2293 
Q 1191 2003 1191 1497 
Q 1191 994 1439 701 
Q 1688 409 2113 409 
Q 2538 409 2786 701 
Q 3034 994 3034 1497 
Q 3034 2003 2786 2293 
Q 2538 2584 2113 2584 
z
M 3366 4563 
L 3366 3988 
Q 3128 4100 2886 4159 
Q 2644 4219 2406 4219 
Q 1781 4219 1451 3797 
Q 1122 3375 1075 2522 
Q 1259 2794 1537 2939 
Q 1816 3084 2150 3084 
Q 2853 3084 3261 2657 
Q 3669 2231 3669 1497 
Q 3669 778 3244 343 
Q 2819 -91 2113 -91 
Q 1303 -91 875 529 
Q 447 1150 447 2328 
Q 447 3434 972 4092 
Q 1497 4750 2381 4750 
Q 2619 4750 2861 4703 
Q 3103 4656 3366 4563 
z
" transform="scale(0.015625)"/>
       </defs>
       <use xlink:href="#DejaVuSans-2d"/>
       <use xlink:href="#DejaVuSans-36" x="36.083984"/>
      </g>
     </g>
    </g>
    <g id="xtick_3">
     <g id="line2d_3">
      <g>
       <use xlink:href="#m758ee26564" x="249.056004" y="307.872" style="stroke: #000000; stroke-width: 0.8"/>
      </g>
     </g>
     <g id="text_3">
      <!-- -4 -->
      <g transform="translate(244.070848 322.470438) scale(0.1 -0.1)">
       <defs>
        <path id="DejaVuSans-34" d="M 2419 4116 
L 825 1625 
L 2419 1625 
L 2419 4116 
z
M 2253 4666 
L 3047 4666 
L 3047 1625 
L 3713 1625 
L 3713 1100 
L 3047 1100 
L 3047 0 
L 2419 0 
L 2419 1100 
L 313 1100 
L 313 1709 
L 2253 4666 
z
" transform="scale(0.015625)"/>
       </defs>
       <use xlink:href="#DejaVuSans-2d"/>
       <use xlink:href="#DejaVuSans-34" x="36.083984"/>
      </g>
     </g>
    </g>
    <g id="xtick_4">
     <g id="line2d_4">
      <g>
       <use xlink:href="#m758ee26564" x="321.280015" y="307.872" style="stroke: #000000; stroke-width: 0.8"/>
      </g>
     </g>
     <g id="text_4">
      <!-- -2 -->
      <g transform="translate(316.294859 322.470438) scale(0.1 -0.1)">
       <defs>
        <path id="DejaVuSans-32" d="M 1228 531 
L 3431 531 
L 3431 0 
L 469 0 
L 469 531 
Q 828 903 1448 1529 
Q 2069 2156 2228 2338 
Q 2531 2678 2651 2914 
Q 2772 3150 2772 3378 
Q 2772 3750 2511 3984 
Q 2250 4219 1831 4219 
Q 1534 4219 1204 4116 
Q 875 4013 500 3803 
L 500 4441 
Q 881 4594 1212 4672 
Q 1544 4750 1819 4750 
Q 2544 4750 2975 4387 
Q 3406 4025 3406 3419 
Q 3406 3131 3298 2873 
Q 3191 2616 2906 2266 
Q 2828 2175 2409 1742 
Q 1991 1309 1228 531 
z
" transform="scale(0.015625)"/>
       </defs>
       <use xlink:href="#DejaVuSans-2d"/>
       <use xlink:href="#DejaVuSans-32" x="36.083984"/>
      </g>
     </g>
    </g>
    <g id="xtick_5">
     <g id="line2d_5">
      <g>
       <use xlink:href="#m758ee26564" x="393.504027" y="307.872" style="stroke: #000000; stroke-width: 0.8"/>
      </g>
     </g>
     <g id="text_5">
      <!-- 0 -->
      <g transform="translate(390.322777 322.470438) scale(0.1 -0.1)">
       <defs>
        <path id="DejaVuSans-30" d="M 2034 4250 
Q 1547 4250 1301 3770 
Q 1056 3291 1056 2328 
Q 1056 1369 1301 889 
Q 1547 409 2034 409 
Q 2525 409 2770 889 
Q 3016 1369 3016 2328 
Q 3016 3291 2770 3770 
Q 2525 4250 2034 4250 
z
M 2034 4750 
Q 2819 4750 3233 4129 
Q 3647 3509 3647 2328 
Q 3647 1150 3233 529 
Q 2819 -91 2034 -91 
Q 1250 -91 836 529 
Q 422 1150 422 2328 
Q 422 3509 836 4129 
Q 1250 4750 2034 4750 
z
" transform="scale(0.015625)"/>
       </defs>
       <use xlink:href="#DejaVuSans-30"/>
      </g>
     </g>
    </g>
    <g id="text_6">
     <!-- Re$(S_{21})$ [mV] -->
     <g transform="translate(184.408438 336.148562) scale(0.1 -0.1)">
      <defs>
       <path id="DejaVuSans-52" d="M 2841 2188 
Q 3044 2119 3236 1894 
Q 3428 1669 3622 1275 
L 4263 0 
L 3584 0 
L 2988 1197 
Q 2756 1666 2539 1819 
Q 2322 1972 1947 1972 
L 1259 1972 
L 1259 0 
L 628 0 
L 628 4666 
L 2053 4666 
Q 2853 4666 3247 4331 
Q 3641 3997 3641 3322 
Q 3641 2881 3436 2590 
Q 3231 2300 2841 2188 
z
M 1259 4147 
L 1259 2491 
L 2053 2491 
Q 2509 2491 2742 2702 
Q 2975 2913 2975 3322 
Q 2975 3731 2742 3939 
Q 2509 4147 2053 4147 
L 1259 4147 
z
" transform="scale(0.015625)"/>
       <path id="DejaVuSans-65" d="M 3597 1894 
L 3597 1613 
L 953 1613 
Q 991 1019 1311 708 
Q 1631 397 2203 397 
Q 2534 397 2845 478 
Q 3156 559 3463 722 
L 3463 178 
Q 3153 47 2828 -22 
Q 2503 -91 2169 -91 
Q 1331 -91 842 396 
Q 353 884 353 1716 
Q 353 2575 817 3079 
Q 1281 3584 2069 3584 
Q 2775 3584 3186 3129 
Q 3597 2675 3597 1894 
z
M 3022 2063 
Q 3016 2534 2758 2815 
Q 2500 3097 2075 3097 
Q 1594 3097 1305 2825 
Q 1016 2553 972 2059 
L 3022 2063 
z
" transform="scale(0.015625)"/>
       <path id="DejaVuSans-28" d="M 1984 4856 
Q 1566 4138 1362 3434 
Q 1159 2731 1159 2009 
Q 1159 1288 1364 580 
Q 1569 -128 1984 -844 
L 1484 -844 
Q 1016 -109 783 600 
Q 550 1309 550 2009 
Q 550 2706 781 3412 
Q 1013 4119 1484 4856 
L 1984 4856 
z
" transform="scale(0.015625)"/>
       <path id="DejaVuSans-Oblique-53" d="M 3859 4513 
L 3738 3897 
Q 3422 4066 3111 4152 
Q 2800 4238 2509 4238 
Q 1944 4238 1609 3991 
Q 1275 3744 1275 3334 
Q 1275 3109 1398 2989 
Q 1522 2869 2034 2731 
L 2413 2638 
Q 3053 2472 3303 2217 
Q 3553 1963 3553 1503 
Q 3553 797 2998 353 
Q 2444 -91 1538 -91 
Q 1166 -91 791 -17 
Q 416 56 38 206 
L 166 856 
Q 513 641 861 531 
Q 1209 422 1556 422 
Q 2147 422 2503 684 
Q 2859 947 2859 1369 
Q 2859 1650 2717 1795 
Q 2575 1941 2106 2059 
L 1728 2156 
Q 1081 2325 845 2545 
Q 609 2766 609 3163 
Q 609 3859 1145 4304 
Q 1681 4750 2541 4750 
Q 2875 4750 3203 4690 
Q 3531 4631 3859 4513 
z
" transform="scale(0.015625)"/>
       <path id="DejaVuSans-31" d="M 794 531 
L 1825 531 
L 1825 4091 
L 703 3866 
L 703 4441 
L 1819 4666 
L 2450 4666 
L 2450 531 
L 3481 531 
L 3481 0 
L 794 0 
L 794 531 
z
" transform="scale(0.015625)"/>
       <path id="DejaVuSans-29" d="M 513 4856 
L 1013 4856 
Q 1481 4119 1714 3412 
Q 1947 2706 1947 2009 
Q 1947 1309 1714 600 
Q 1481 -109 1013 -844 
L 513 -844 
Q 928 -128 1133 580 
Q 1338 1288 1338 2009 
Q 1338 2731 1133 3434 
Q 928 4138 513 4856 
z
" transform="scale(0.015625)"/>
       <path id="DejaVuSans-20" transform="scale(0.015625)"/>
       <path id="DejaVuSans-5b" d="M 550 4863 
L 1875 4863 
L 1875 4416 
L 1125 4416 
L 1125 -397 
L 1875 -397 
L 1875 -844 
L 550 -844 
L 550 4863 
z
" transform="scale(0.015625)"/>
       <path id="DejaVuSans-6d" d="M 3328 2828 
Q 3544 3216 3844 3400 
Q 4144 3584 4550 3584 
Q 5097 3584 5394 3201 
Q 5691 2819 5691 2113 
L 5691 0 
L 5113 0 
L 5113 2094 
Q 5113 2597 4934 2840 
Q 4756 3084 4391 3084 
Q 3944 3084 3684 2787 
Q 3425 2491 3425 1978 
L 3425 0 
L 2847 0 
L 2847 2094 
Q 2847 2600 2669 2842 
Q 2491 3084 2119 3084 
Q 1678 3084 1418 2786 
Q 1159 2488 1159 1978 
L 1159 0 
L 581 0 
L 581 3500 
L 1159 3500 
L 1159 2956 
Q 1356 3278 1631 3431 
Q 1906 3584 2284 3584 
Q 2666 3584 2933 3390 
Q 3200 3197 3328 2828 
z
" transform="scale(0.015625)"/>
       <path id="DejaVuSans-56" d="M 1831 0 
L 50 4666 
L 709 4666 
L 2188 738 
L 3669 4666 
L 4325 4666 
L 2547 0 
L 1831 0 
z
" transform="scale(0.015625)"/>
       <path id="DejaVuSans-5d" d="M 1947 4863 
L 1947 -844 
L 622 -844 
L 622 -397 
L 1369 -397 
L 1369 4416 
L 622 4416 
L 622 4863 
L 1947 4863 
z
" transform="scale(0.015625)"/>
      </defs>
      <use xlink:href="#DejaVuSans-52" transform="translate(0 0.015625)"/>
      <use xlink:href="#DejaVuSans-65" transform="translate(69.482422 0.015625)"/>
      <use xlink:href="#DejaVuSans-28" transform="translate(131.005859 0.015625)"/>
      <use xlink:href="#DejaVuSans-Oblique-53" transform="translate(170.019531 0.015625)"/>
      <use xlink:href="#DejaVuSans-32" transform="translate(233.496094 -16.390625) scale(0.7)"/>
      <use xlink:href="#DejaVuSans-31" transform="translate(278.032227 -16.390625) scale(0.7)"/>
      <use xlink:href="#DejaVuSans-29" transform="translate(325.302734 0.015625)"/>
      <use xlink:href="#DejaVuSans-20" transform="translate(364.316406 0.015625)"/>
      <use xlink:href="#DejaVuSans-5b" transform="translate(396.103516 0.015625)"/>
      <use xlink:href="#DejaVuSans-6d" transform="translate(435.117188 0.015625)"/>
      <use xlink:href="#DejaVuSans-56" transform="translate(532.529297 0.015625)"/>
      <use xlink:href="#DejaVuSans-5d" transform="translate(600.9375 0.015625)"/>
     </g>
    </g>
   </g>
   <g id="matplotlib.axis_2">
    <g id="ytick_1">
     <g id="line2d_6">
      <defs>
       <path id="m679341e917" d="M 0 0 
L -3.5 0 
" style="stroke: #000000; stroke-width: 0.8"/>
      </defs>
      <g>
       <use xlink:href="#m679341e917" x="37.848438" y="294.279466" style="stroke: #000000; stroke-width: 0.8"/>
      </g>
     </g>
     <g id="text_7">
      <!-- -4 -->
      <g transform="translate(20.878125 298.078685) scale(0.1 -0.1)">
       <use xlink:href="#DejaVuSans-2d"/>
       <use xlink:href="#DejaVuSans-34" x="36.083984"/>
      </g>
     </g>
    </g>
    <g id="ytick_2">
     <g id="line2d_7">
      <g>
       <use xlink:href="#m679341e917" x="37.848438" y="249.229007" style="stroke: #000000; stroke-width: 0.8"/>
      </g>
     </g>
     <g id="text_8">
      <!-- -2 -->
      <g transform="translate(20.878125 253.028226) scale(0.1 -0.1)">
       <use xlink:href="#DejaVuSans-2d"/>
       <use xlink:href="#DejaVuSans-32" x="36.083984"/>
      </g>
     </g>
    </g>
    <g id="ytick_3">
     <g id="line2d_8">
      <g>
       <use xlink:href="#m679341e917" x="37.848438" y="204.178547" style="stroke: #000000; stroke-width: 0.8"/>
      </g>
     </g>
     <g id="text_9">
      <!-- 0 -->
      <g transform="translate(24.485938 207.977766) scale(0.1 -0.1)">
       <use xlink:href="#DejaVuSans-30"/>
      </g>
     </g>
    </g>
    <g id="ytick_4">
     <g id="line2d_9">
      <g>
       <use xlink:href="#m679341e917" x="37.848438" y="159.128088" style="stroke: #000000; stroke-width: 0.8"/>
      </g>
     </g>
     <g id="text_10">
      <!-- 2 -->
      <g transform="translate(24.485938 162.927307) scale(0.1 -0.1)">
       <use xlink:href="#DejaVuSans-32"/>
      </g>
     </g>
    </g>
    <g id="ytick_5">
     <g id="line2d_10">
      <g>
       <use xlink:href="#m679341e917" x="37.848438" y="114.077629" style="stroke: #000000; stroke-width: 0.8"/>
      </g>
     </g>
     <g id="text_11">
      <!-- 4 -->
      <g transform="translate(24.485938 117.876848) scale(0.1 -0.1)">
       <use xlink:href="#DejaVuSans-34"/>
      </g>
     </g>
    </g>
    <g id="ytick_6">
     <g id="line2d_11">
      <g>
       <use xlink:href="#m679341e917" x="37.848438" y="69.027169" style="stroke: #000000; stroke-width: 0.8"/>
      </g>
     </g>
     <g id="text_12">
      <!-- 6 -->
      <g transform="translate(24.485938 72.826388) scale(0.1 -0.1)">
       <use xlink:href="#DejaVuSans-36"/>
      </g>
     </g>
    </g>
    <g id="text_13">
     <!-- Im$(S_{21})$ [mV] -->
     <g transform="translate(14.798438 206.466) rotate(-90) scale(0.1 -0.1)">
      <defs>
       <path id="DejaVuSans-49" d="M 628 4666 
L 1259 4666 
L 1259 0 
L 628 0 
L 628 4666 
z
" transform="scale(0.015625)"/>
      </defs>
      <use xlink:href="#DejaVuSans-49" transform="translate(0 0.015625)"/>
      <use xlink:href="#DejaVuSans-6d" transform="translate(25.867188 0.015625)"/>
      <use xlink:href="#DejaVuSans-28" transform="translate(123.279297 0.015625)"/>
      <use xlink:href="#DejaVuSans-Oblique-53" transform="translate(162.292969 0.015625)"/>
      <use xlink:href="#DejaVuSans-32" transform="translate(225.769531 -16.390625) scale(0.7)"/>
      <use xlink:href="#DejaVuSans-31" transform="translate(270.305664 -16.390625) scale(0.7)"/>
      <use xlink:href="#DejaVuSans-29" transform="translate(317.576172 0.015625)"/>
      <use xlink:href="#DejaVuSans-20" transform="translate(356.589844 0.015625)"/>
      <use xlink:href="#DejaVuSans-5b" transform="translate(388.376953 0.015625)"/>
      <use xlink:href="#DejaVuSans-6d" transform="translate(427.390625 0.015625)"/>
      <use xlink:href="#DejaVuSans-56" transform="translate(524.802734 0.015625)"/>
      <use xlink:href="#DejaVuSans-5d" transform="translate(593.210938 0.015625)"/>
     </g>
    </g>
   </g>
   <g id="line2d_12">
    <path d="M 144.156499 287.947117 
L 142.202809 289.109117 
L 144.674961 286.418121 
L 138.789388 285.037678 
L 137.129565 284.844179 
L 136.837227 283.605469 
L 136.033679 283.960043 
L 134.516712 280.038503 
L 132.821293 279.283945 
L 136.00561 276.864895 
L 131.271003 277.399103 
L 129.249178 274.602444 
L 129.503449 273.579119 
L 127.251149 274.30624 
L 122.664495 271.368851 
L 124.023159 271.750422 
L 120.630477 269.652322 
L 120.860247 266.68933 
L 117.08157 266.08675 
L 116.476116 264.582109 
L 116.754459 264.109059 
L 118.35238 263.450016 
L 109.337532 263.366239 
L 113.752985 260.630395 
L 106.089235 258.5421 
L 110.255121 259.64304 
L 107.775403 257.10165 
L 107.18661 254.96017 
L 103.630216 253.869989 
L 103.351795 251.516278 
L 102.258418 249.020224 
L 102.485797 247.94046 
L 99.339546 245.340895 
L 98.361818 245.313116 
L 94.971136 242.783732 
L 95.316673 240.319883 
L 93.181511 240.070287 
L 92.606675 238.373198 
L 92.124946 238.98155 
L 89.880682 235.86839 
L 84.904936 234.963004 
L 85.913908 231.901172 
L 87.792956 230.496961 
L 85.715736 227.745124 
L 81.02833 224.23269 
L 82.314743 223.752915 
L 79.700401 221.410354 
L 77.913363 217.732297 
L 74.639977 215.752894 
L 74.8819 214.101533 
L 72.812756 211.766333 
L 72.624541 208.474028 
L 69.118484 206.448432 
L 68.862644 202.797372 
L 70.200295 201.02927 
L 67.877546 200.648751 
L 67.331368 194.562965 
L 59.571805 193.518782 
L 64.078171 191.076721 
L 64.293396 186.477505 
L 60.981081 182.667962 
L 56.33374 178.191869 
L 60.61853 174.948055 
L 58.374187 171.681719 
L 55.561751 166.413459 
L 58.396729 163.459002 
L 54.081165 159.105787 
L 56.157914 153.876798 
L 57.302999 149.329106 
L 60.736257 141.301037 
L 60.881387 135.447559 
L 59.927221 130.598062 
L 59.742535 123.748133 
L 66.662718 115.997023 
L 72.621209 107.422177 
L 77.676616 102.498367 
L 85.744237 93.813579 
L 97.446268 89.36502 
L 109.304797 79.360409 
L 130.842081 72.570048 
L 148.096379 62.778524 
L 168.034644 58.896086 
L 189.270769 55.201058 
L 214.11045 55.652052 
L 234.789224 54.831543 
L 262.185618 53.856 
L 288.131927 60.388867 
L 335.803694 85.23169 
L 347.942879 97.655082 
L 363.599099 108.564908 
L 373.347714 120.220366 
L 376.940685 135.414522 
L 374.786157 150.895516 
L 371.202437 164.539841 
L 364.646177 176.747628 
L 356.409511 185.735076 
L 343.367712 195.200538 
L 337.569641 201.823736 
L 323.325794 207.626621 
L 312.462868 209.905358 
L 301.246252 217.125144 
L 292.099563 218.682189 
L 282.804372 221.181055 
L 270.666559 220.263784 
L 263.625708 221.939379 
L 256.009472 222.198046 
L 247.174997 220.031746 
L 244.154627 221.537414 
L 233.267827 220.177024 
L 225.962785 219.130248 
L 219.896996 219.487194 
L 214.483272 218.606897 
L 209.225146 214.420552 
L 203.87305 214.495917 
L 203.966746 214.477308 
L 199.298824 210.778196 
L 189.753282 209.77864 
L 190.683103 210.317593 
L 186.003067 208.287302 
L 185.613348 205.761806 
L 182.567771 206.111783 
L 176.50743 199.45325 
L 176.082468 200.136355 
L 173.412927 197.375128 
L 172.321825 194.606737 
L 169.396444 195.552692 
L 167.693027 194.59094 
L 166.042809 192.857171 
L 167.247483 191.807803 
L 160.680285 185.739526 
L 165.635331 186.268404 
L 157.499574 184.188815 
L 157.264316 183.820425 
L 155.823521 183.564276 
L 157.3261 178.877395 
L 153.913934 177.066157 
L 153.932516 177.374368 
L 148.978882 174.630259 
L 154.60834 173.645081 
L 153.260927 171.095034 
L 151.589343 170.106237 
L 152.152339 170.261076 
L 151.080407 165.95354 
L 148.527927 164.469317 
L 151.320095 165.559131 
L 146.952744 160.762943 
L 147.483751 160.303978 
L 146.011201 158.510494 
L 149.308384 159.048003 
L 146.999984 155.847961 
L 144.235336 153.815714 
L 148.534631 153.704989 
L 145.694714 150.658734 
L 149.451201 149.305019 
L 145.420801 148.93839 
L 148.772202 145.077813 
L 149.135812 143.609436 
L 145.006228 143.441784 
L 148.469632 141.220439 
L 147.743511 139.039613 
L 146.660249 137.388032 
L 147.630018 137.943564 
L 149.441557 134.859944 
L 151.170065 128.983112 
L 147.706268 127.476442 
L 149.063521 126.661704 
L 150.800928 125.370761 
L 148.01464 122.286799 
L 151.061825 122.129515 
L 153.557264 120.794483 
L 155.661965 121.175466 
L 151.565782 119.222302 
L 155.11853 116.661324 
L 150.825469 115.686783 
L 152.522849 112.452188 
L 153.182873 110.689515 
L 155.434508 110.210963 
L 156.50597 108.100954 
L 160.271866 108.279464 
L 154.080273 103.758817 
L 156.92709 104.066831 
L 159.394381 104.754607 
L 161.205842 101.98871 
L 165.85824 100.152457 
L 158.014312 99.255898 
L 164.554735 96.819241 
L 161.269783 96.245785 
L 162.78036 96.645133 
L 165.563432 92.809792 
L 167.260851 92.194643 
L 168.972619 89.564584 
L 171.821122 90.080159 
L 172.347268 86.321773 
L 169.501313 89.019934 
L 169.593519 84.619989 
L 169.593519 84.619989 
" clip-path="url(#pc812a5a65b)" style="fill: none; stroke: #1f77b4; stroke-width: 1.5; stroke-linecap: square"/>
    <defs>
     <path id="me68e2ba7d8" d="M 0 1.5 
C 0.397805 1.5 0.77937 1.341951 1.06066 1.06066 
C 1.341951 0.77937 1.5 0.397805 1.5 0 
C 1.5 -0.397805 1.341951 -0.77937 1.06066 -1.06066 
C 0.77937 -1.341951 0.397805 -1.5 0 -1.5 
C -0.397805 -1.5 -0.77937 -1.341951 -1.06066 -1.06066 
C -1.341951 -0.77937 -1.5 -0.397805 -1.5 0 
C -1.5 0.397805 -1.341951 0.77937 -1.06066 1.06066 
C -0.77937 1.341951 -0.397805 1.5 0 1.5 
z
" style="stroke: #1f77b4"/>
    </defs>
    <g clip-path="url(#pc812a5a65b)">
     <use xlink:href="#me68e2ba7d8" x="144.156499" y="287.947117" style="fill: #1f77b4; stroke: #1f77b4"/>
     <use xlink:href="#me68e2ba7d8" x="142.202809" y="289.109117" style="fill: #1f77b4; stroke: #1f77b4"/>
     <use xlink:href="#me68e2ba7d8" x="144.674961" y="286.418121" style="fill: #1f77b4; stroke: #1f77b4"/>
     <use xlink:href="#me68e2ba7d8" x="138.789388" y="285.037678" style="fill: #1f77b4; stroke: #1f77b4"/>
     <use xlink:href="#me68e2ba7d8" x="137.129565" y="284.844179" style="fill: #1f77b4; stroke: #1f77b4"/>
     <use xlink:href="#me68e2ba7d8" x="136.837227" y="283.605469" style="fill: #1f77b4; stroke: #1f77b4"/>
     <use xlink:href="#me68e2ba7d8" x="136.033679" y="283.960043" style="fill: #1f77b4; stroke: #1f77b4"/>
     <use xlink:href="#me68e2ba7d8" x="134.516712" y="280.038503" style="fill: #1f77b4; stroke: #1f77b4"/>
     <use xlink:href="#me68e2ba7d8" x="132.821293" y="279.283945" style="fill: #1f77b4; stroke: #1f77b4"/>
     <use xlink:href="#me68e2ba7d8" x="136.00561" y="276.864895" style="fill: #1f77b4; stroke: #1f77b4"/>
     <use xlink:href="#me68e2ba7d8" x="131.271003" y="277.399103" style="fill: #1f77b4; stroke: #1f77b4"/>
     <use xlink:href="#me68e2ba7d8" x="129.249178" y="274.602444" style="fill: #1f77b4; stroke: #1f77b4"/>
     <use xlink:href="#me68e2ba7d8" x="129.503449" y="273.579119" style="fill: #1f77b4; stroke: #1f77b4"/>
     <use xlink:href="#me68e2ba7d8" x="127.251149" y="274.30624" style="fill: #1f77b4; stroke: #1f77b4"/>
     <use xlink:href="#me68e2ba7d8" x="122.664495" y="271.368851" style="fill: #1f77b4; stroke: #1f77b4"/>
     <use xlink:href="#me68e2ba7d8" x="124.023159" y="271.750422" style="fill: #1f77b4; stroke: #1f77b4"/>
     <use xlink:href="#me68e2ba7d8" x="120.630477" y="269.652322" style="fill: #1f77b4; stroke: #1f77b4"/>
     <use xlink:href="#me68e2ba7d8" x="120.860247" y="266.68933" style="fill: #1f77b4; stroke: #1f77b4"/>
     <use xlink:href="#me68e2ba7d8" x="117.08157" y="266.08675" style="fill: #1f77b4; stroke: #1f77b4"/>
     <use xlink:href="#me68e2ba7d8" x="116.476116" y="264.582109" style="fill: #1f77b4; stroke: #1f77b4"/>
     <use xlink:href="#me68e2ba7d8" x="116.754459" y="264.109059" style="fill: #1f77b4; stroke: #1f77b4"/>
     <use xlink:href="#me68e2ba7d8" x="118.35238" y="263.450016" style="fill: #1f77b4; stroke: #1f77b4"/>
     <use xlink:href="#me68e2ba7d8" x="109.337532" y="263.366239" style="fill: #1f77b4; stroke: #1f77b4"/>
     <use xlink:href="#me68e2ba7d8" x="113.752985" y="260.630395" style="fill: #1f77b4; stroke: #1f77b4"/>
     <use xlink:href="#me68e2ba7d8" x="106.089235" y="258.5421" style="fill: #1f77b4; stroke: #1f77b4"/>
     <use xlink:href="#me68e2ba7d8" x="110.255121" y="259.64304" style="fill: #1f77b4; stroke: #1f77b4"/>
     <use xlink:href="#me68e2ba7d8" x="107.775403" y="257.10165" style="fill: #1f77b4; stroke: #1f77b4"/>
     <use xlink:href="#me68e2ba7d8" x="107.18661" y="254.96017" style="fill: #1f77b4; stroke: #1f77b4"/>
     <use xlink:href="#me68e2ba7d8" x="103.630216" y="253.869989" style="fill: #1f77b4; stroke: #1f77b4"/>
     <use xlink:href="#me68e2ba7d8" x="103.351795" y="251.516278" style="fill: #1f77b4; stroke: #1f77b4"/>
     <use xlink:href="#me68e2ba7d8" x="102.258418" y="249.020224" style="fill: #1f77b4; stroke: #1f77b4"/>
     <use xlink:href="#me68e2ba7d8" x="102.485797" y="247.94046" style="fill: #1f77b4; stroke: #1f77b4"/>
     <use xlink:href="#me68e2ba7d8" x="99.339546" y="245.340895" style="fill: #1f77b4; stroke: #1f77b4"/>
     <use xlink:href="#me68e2ba7d8" x="98.361818" y="245.313116" style="fill: #1f77b4; stroke: #1f77b4"/>
     <use xlink:href="#me68e2ba7d8" x="94.971136" y="242.783732" style="fill: #1f77b4; stroke: #1f77b4"/>
     <use xlink:href="#me68e2ba7d8" x="95.316673" y="240.319883" style="fill: #1f77b4; stroke: #1f77b4"/>
     <use xlink:href="#me68e2ba7d8" x="93.181511" y="240.070287" style="fill: #1f77b4; stroke: #1f77b4"/>
     <use xlink:href="#me68e2ba7d8" x="92.606675" y="238.373198" style="fill: #1f77b4; stroke: #1f77b4"/>
     <use xlink:href="#me68e2ba7d8" x="92.124946" y="238.98155" style="fill: #1f77b4; stroke: #1f77b4"/>
     <use xlink:href="#me68e2ba7d8" x="89.880682" y="235.86839" style="fill: #1f77b4; stroke: #1f77b4"/>
     <use xlink:href="#me68e2ba7d8" x="84.904936" y="234.963004" style="fill: #1f77b4; stroke: #1f77b4"/>
     <use xlink:href="#me68e2ba7d8" x="85.913908" y="231.901172" style="fill: #1f77b4; stroke: #1f77b4"/>
     <use xlink:href="#me68e2ba7d8" x="87.792956" y="230.496961" style="fill: #1f77b4; stroke: #1f77b4"/>
     <use xlink:href="#me68e2ba7d8" x="85.715736" y="227.745124" style="fill: #1f77b4; stroke: #1f77b4"/>
     <use xlink:href="#me68e2ba7d8" x="81.02833" y="224.23269" style="fill: #1f77b4; stroke: #1f77b4"/>
     <use xlink:href="#me68e2ba7d8" x="82.314743" y="223.752915" style="fill: #1f77b4; stroke: #1f77b4"/>
     <use xlink:href="#me68e2ba7d8" x="79.700401" y="221.410354" style="fill: #1f77b4; stroke: #1f77b4"/>
     <use xlink:href="#me68e2ba7d8" x="77.913363" y="217.732297" style="fill: #1f77b4; stroke: #1f77b4"/>
     <use xlink:href="#me68e2ba7d8" x="74.639977" y="215.752894" style="fill: #1f77b4; stroke: #1f77b4"/>
     <use xlink:href="#me68e2ba7d8" x="74.8819" y="214.101533" style="fill: #1f77b4; stroke: #1f77b4"/>
     <use xlink:href="#me68e2ba7d8" x="72.812756" y="211.766333" style="fill: #1f77b4; stroke: #1f77b4"/>
     <use xlink:href="#me68e2ba7d8" x="72.624541" y="208.474028" style="fill: #1f77b4; stroke: #1f77b4"/>
     <use xlink:href="#me68e2ba7d8" x="69.118484" y="206.448432" style="fill: #1f77b4; stroke: #1f77b4"/>
     <use xlink:href="#me68e2ba7d8" x="68.862644" y="202.797372" style="fill: #1f77b4; stroke: #1f77b4"/>
     <use xlink:href="#me68e2ba7d8" x="70.200295" y="201.02927" style="fill: #1f77b4; stroke: #1f77b4"/>
     <use xlink:href="#me68e2ba7d8" x="67.877546" y="200.648751" style="fill: #1f77b4; stroke: #1f77b4"/>
     <use xlink:href="#me68e2ba7d8" x="67.331368" y="194.562965" style="fill: #1f77b4; stroke: #1f77b4"/>
     <use xlink:href="#me68e2ba7d8" x="59.571805" y="193.518782" style="fill: #1f77b4; stroke: #1f77b4"/>
     <use xlink:href="#me68e2ba7d8" x="64.078171" y="191.076721" style="fill: #1f77b4; stroke: #1f77b4"/>
     <use xlink:href="#me68e2ba7d8" x="64.293396" y="186.477505" style="fill: #1f77b4; stroke: #1f77b4"/>
     <use xlink:href="#me68e2ba7d8" x="60.981081" y="182.667962" style="fill: #1f77b4; stroke: #1f77b4"/>
     <use xlink:href="#me68e2ba7d8" x="56.33374" y="178.191869" style="fill: #1f77b4; stroke: #1f77b4"/>
     <use xlink:href="#me68e2ba7d8" x="60.61853" y="174.948055" style="fill: #1f77b4; stroke: #1f77b4"/>
     <use xlink:href="#me68e2ba7d8" x="58.374187" y="171.681719" style="fill: #1f77b4; stroke: #1f77b4"/>
     <use xlink:href="#me68e2ba7d8" x="55.561751" y="166.413459" style="fill: #1f77b4; stroke: #1f77b4"/>
     <use xlink:href="#me68e2ba7d8" x="58.396729" y="163.459002" style="fill: #1f77b4; stroke: #1f77b4"/>
     <use xlink:href="#me68e2ba7d8" x="54.081165" y="159.105787" style="fill: #1f77b4; stroke: #1f77b4"/>
     <use xlink:href="#me68e2ba7d8" x="56.157914" y="153.876798" style="fill: #1f77b4; stroke: #1f77b4"/>
     <use xlink:href="#me68e2ba7d8" x="57.302999" y="149.329106" style="fill: #1f77b4; stroke: #1f77b4"/>
     <use xlink:href="#me68e2ba7d8" x="60.736257" y="141.301037" style="fill: #1f77b4; stroke: #1f77b4"/>
     <use xlink:href="#me68e2ba7d8" x="60.881387" y="135.447559" style="fill: #1f77b4; stroke: #1f77b4"/>
     <use xlink:href="#me68e2ba7d8" x="59.927221" y="130.598062" style="fill: #1f77b4; stroke: #1f77b4"/>
     <use xlink:href="#me68e2ba7d8" x="59.742535" y="123.748133" style="fill: #1f77b4; stroke: #1f77b4"/>
     <use xlink:href="#me68e2ba7d8" x="66.662718" y="115.997023" style="fill: #1f77b4; stroke: #1f77b4"/>
     <use xlink:href="#me68e2ba7d8" x="72.621209" y="107.422177" style="fill: #1f77b4; stroke: #1f77b4"/>
     <use xlink:href="#me68e2ba7d8" x="77.676616" y="102.498367" style="fill: #1f77b4; stroke: #1f77b4"/>
     <use xlink:href="#me68e2ba7d8" x="85.744237" y="93.813579" style="fill: #1f77b4; stroke: #1f77b4"/>
     <use xlink:href="#me68e2ba7d8" x="97.446268" y="89.36502" style="fill: #1f77b4; stroke: #1f77b4"/>
     <use xlink:href="#me68e2ba7d8" x="109.304797" y="79.360409" style="fill: #1f77b4; stroke: #1f77b4"/>
     <use xlink:href="#me68e2ba7d8" x="130.842081" y="72.570048" style="fill: #1f77b4; stroke: #1f77b4"/>
     <use xlink:href="#me68e2ba7d8" x="148.096379" y="62.778524" style="fill: #1f77b4; stroke: #1f77b4"/>
     <use xlink:href="#me68e2ba7d8" x="168.034644" y="58.896086" style="fill: #1f77b4; stroke: #1f77b4"/>
     <use xlink:href="#me68e2ba7d8" x="189.270769" y="55.201058" style="fill: #1f77b4; stroke: #1f77b4"/>
     <use xlink:href="#me68e2ba7d8" x="214.11045" y="55.652052" style="fill: #1f77b4; stroke: #1f77b4"/>
     <use xlink:href="#me68e2ba7d8" x="234.789224" y="54.831543" style="fill: #1f77b4; stroke: #1f77b4"/>
     <use xlink:href="#me68e2ba7d8" x="262.185618" y="53.856" style="fill: #1f77b4; stroke: #1f77b4"/>
     <use xlink:href="#me68e2ba7d8" x="288.131927" y="60.388867" style="fill: #1f77b4; stroke: #1f77b4"/>
     <use xlink:href="#me68e2ba7d8" x="307.569724" y="70.51056" style="fill: #1f77b4; stroke: #1f77b4"/>
     <use xlink:href="#me68e2ba7d8" x="335.803694" y="85.23169" style="fill: #1f77b4; stroke: #1f77b4"/>
     <use xlink:href="#me68e2ba7d8" x="347.942879" y="97.655082" style="fill: #1f77b4; stroke: #1f77b4"/>
     <use xlink:href="#me68e2ba7d8" x="363.599099" y="108.564908" style="fill: #1f77b4; stroke: #1f77b4"/>
     <use xlink:href="#me68e2ba7d8" x="373.347714" y="120.220366" style="fill: #1f77b4; stroke: #1f77b4"/>
     <use xlink:href="#me68e2ba7d8" x="376.940685" y="135.414522" style="fill: #1f77b4; stroke: #1f77b4"/>
     <use xlink:href="#me68e2ba7d8" x="374.786157" y="150.895516" style="fill: #1f77b4; stroke: #1f77b4"/>
     <use xlink:href="#me68e2ba7d8" x="371.202437" y="164.539841" style="fill: #1f77b4; stroke: #1f77b4"/>
     <use xlink:href="#me68e2ba7d8" x="364.646177" y="176.747628" style="fill: #1f77b4; stroke: #1f77b4"/>
     <use xlink:href="#me68e2ba7d8" x="356.409511" y="185.735076" style="fill: #1f77b4; stroke: #1f77b4"/>
     <use xlink:href="#me68e2ba7d8" x="343.367712" y="195.200538" style="fill: #1f77b4; stroke: #1f77b4"/>
     <use xlink:href="#me68e2ba7d8" x="337.569641" y="201.823736" style="fill: #1f77b4; stroke: #1f77b4"/>
     <use xlink:href="#me68e2ba7d8" x="323.325794" y="207.626621" style="fill: #1f77b4; stroke: #1f77b4"/>
     <use xlink:href="#me68e2ba7d8" x="312.462868" y="209.905358" style="fill: #1f77b4; stroke: #1f77b4"/>
     <use xlink:href="#me68e2ba7d8" x="301.246252" y="217.125144" style="fill: #1f77b4; stroke: #1f77b4"/>
     <use xlink:href="#me68e2ba7d8" x="292.099563" y="218.682189" style="fill: #1f77b4; stroke: #1f77b4"/>
     <use xlink:href="#me68e2ba7d8" x="282.804372" y="221.181055" style="fill: #1f77b4; stroke: #1f77b4"/>
     <use xlink:href="#me68e2ba7d8" x="270.666559" y="220.263784" style="fill: #1f77b4; stroke: #1f77b4"/>
     <use xlink:href="#me68e2ba7d8" x="263.625708" y="221.939379" style="fill: #1f77b4; stroke: #1f77b4"/>
     <use xlink:href="#me68e2ba7d8" x="256.009472" y="222.198046" style="fill: #1f77b4; stroke: #1f77b4"/>
     <use xlink:href="#me68e2ba7d8" x="247.174997" y="220.031746" style="fill: #1f77b4; stroke: #1f77b4"/>
     <use xlink:href="#me68e2ba7d8" x="244.154627" y="221.537414" style="fill: #1f77b4; stroke: #1f77b4"/>
     <use xlink:href="#me68e2ba7d8" x="233.267827" y="220.177024" style="fill: #1f77b4; stroke: #1f77b4"/>
     <use xlink:href="#me68e2ba7d8" x="225.962785" y="219.130248" style="fill: #1f77b4; stroke: #1f77b4"/>
     <use xlink:href="#me68e2ba7d8" x="219.896996" y="219.487194" style="fill: #1f77b4; stroke: #1f77b4"/>
     <use xlink:href="#me68e2ba7d8" x="214.483272" y="218.606897" style="fill: #1f77b4; stroke: #1f77b4"/>
     <use xlink:href="#me68e2ba7d8" x="209.225146" y="214.420552" style="fill: #1f77b4; stroke: #1f77b4"/>
     <use xlink:href="#me68e2ba7d8" x="203.87305" y="214.495917" style="fill: #1f77b4; stroke: #1f77b4"/>
     <use xlink:href="#me68e2ba7d8" x="203.966746" y="214.477308" style="fill: #1f77b4; stroke: #1f77b4"/>
     <use xlink:href="#me68e2ba7d8" x="199.298824" y="210.778196" style="fill: #1f77b4; stroke: #1f77b4"/>
     <use xlink:href="#me68e2ba7d8" x="189.753282" y="209.77864" style="fill: #1f77b4; stroke: #1f77b4"/>
     <use xlink:href="#me68e2ba7d8" x="190.683103" y="210.317593" style="fill: #1f77b4; stroke: #1f77b4"/>
     <use xlink:href="#me68e2ba7d8" x="186.003067" y="208.287302" style="fill: #1f77b4; stroke: #1f77b4"/>
     <use xlink:href="#me68e2ba7d8" x="185.613348" y="205.761806" style="fill: #1f77b4; stroke: #1f77b4"/>
     <use xlink:href="#me68e2ba7d8" x="182.567771" y="206.111783" style="fill: #1f77b4; stroke: #1f77b4"/>
     <use xlink:href="#me68e2ba7d8" x="180.684921" y="204.088266" style="fill: #1f77b4; stroke: #1f77b4"/>
     <use xlink:href="#me68e2ba7d8" x="176.50743" y="199.45325" style="fill: #1f77b4; stroke: #1f77b4"/>
     <use xlink:href="#me68e2ba7d8" x="176.082468" y="200.136355" style="fill: #1f77b4; stroke: #1f77b4"/>
     <use xlink:href="#me68e2ba7d8" x="173.412927" y="197.375128" style="fill: #1f77b4; stroke: #1f77b4"/>
     <use xlink:href="#me68e2ba7d8" x="172.321825" y="194.606737" style="fill: #1f77b4; stroke: #1f77b4"/>
     <use xlink:href="#me68e2ba7d8" x="169.396444" y="195.552692" style="fill: #1f77b4; stroke: #1f77b4"/>
     <use xlink:href="#me68e2ba7d8" x="167.693027" y="194.59094" style="fill: #1f77b4; stroke: #1f77b4"/>
     <use xlink:href="#me68e2ba7d8" x="166.042809" y="192.857171" style="fill: #1f77b4; stroke: #1f77b4"/>
     <use xlink:href="#me68e2ba7d8" x="167.247483" y="191.807803" style="fill: #1f77b4; stroke: #1f77b4"/>
     <use xlink:href="#me68e2ba7d8" x="160.680285" y="185.739526" style="fill: #1f77b4; stroke: #1f77b4"/>
     <use xlink:href="#me68e2ba7d8" x="165.635331" y="186.268404" style="fill: #1f77b4; stroke: #1f77b4"/>
     <use xlink:href="#me68e2ba7d8" x="157.499574" y="184.188815" style="fill: #1f77b4; stroke: #1f77b4"/>
     <use xlink:href="#me68e2ba7d8" x="157.264316" y="183.820425" style="fill: #1f77b4; stroke: #1f77b4"/>
     <use xlink:href="#me68e2ba7d8" x="155.823521" y="183.564276" style="fill: #1f77b4; stroke: #1f77b4"/>
     <use xlink:href="#me68e2ba7d8" x="157.3261" y="178.877395" style="fill: #1f77b4; stroke: #1f77b4"/>
     <use xlink:href="#me68e2ba7d8" x="153.913934" y="177.066157" style="fill: #1f77b4; stroke: #1f77b4"/>
     <use xlink:href="#me68e2ba7d8" x="153.932516" y="177.374368" style="fill: #1f77b4; stroke: #1f77b4"/>
     <use xlink:href="#me68e2ba7d8" x="148.978882" y="174.630259" style="fill: #1f77b4; stroke: #1f77b4"/>
     <use xlink:href="#me68e2ba7d8" x="154.60834" y="173.645081" style="fill: #1f77b4; stroke: #1f77b4"/>
     <use xlink:href="#me68e2ba7d8" x="153.260927" y="171.095034" style="fill: #1f77b4; stroke: #1f77b4"/>
     <use xlink:href="#me68e2ba7d8" x="151.589343" y="170.106237" style="fill: #1f77b4; stroke: #1f77b4"/>
     <use xlink:href="#me68e2ba7d8" x="152.152339" y="170.261076" style="fill: #1f77b4; stroke: #1f77b4"/>
     <use xlink:href="#me68e2ba7d8" x="151.080407" y="165.95354" style="fill: #1f77b4; stroke: #1f77b4"/>
     <use xlink:href="#me68e2ba7d8" x="148.527927" y="164.469317" style="fill: #1f77b4; stroke: #1f77b4"/>
     <use xlink:href="#me68e2ba7d8" x="151.320095" y="165.559131" style="fill: #1f77b4; stroke: #1f77b4"/>
     <use xlink:href="#me68e2ba7d8" x="146.952744" y="160.762943" style="fill: #1f77b4; stroke: #1f77b4"/>
     <use xlink:href="#me68e2ba7d8" x="147.483751" y="160.303978" style="fill: #1f77b4; stroke: #1f77b4"/>
     <use xlink:href="#me68e2ba7d8" x="146.011201" y="158.510494" style="fill: #1f77b4; stroke: #1f77b4"/>
     <use xlink:href="#me68e2ba7d8" x="149.308384" y="159.048003" style="fill: #1f77b4; stroke: #1f77b4"/>
     <use xlink:href="#me68e2ba7d8" x="146.999984" y="155.847961" style="fill: #1f77b4; stroke: #1f77b4"/>
     <use xlink:href="#me68e2ba7d8" x="144.235336" y="153.815714" style="fill: #1f77b4; stroke: #1f77b4"/>
     <use xlink:href="#me68e2ba7d8" x="148.534631" y="153.704989" style="fill: #1f77b4; stroke: #1f77b4"/>
     <use xlink:href="#me68e2ba7d8" x="145.694714" y="150.658734" style="fill: #1f77b4; stroke: #1f77b4"/>
     <use xlink:href="#me68e2ba7d8" x="149.451201" y="149.305019" style="fill: #1f77b4; stroke: #1f77b4"/>
     <use xlink:href="#me68e2ba7d8" x="145.420801" y="148.93839" style="fill: #1f77b4; stroke: #1f77b4"/>
     <use xlink:href="#me68e2ba7d8" x="148.772202" y="145.077813" style="fill: #1f77b4; stroke: #1f77b4"/>
     <use xlink:href="#me68e2ba7d8" x="149.135812" y="143.609436" style="fill: #1f77b4; stroke: #1f77b4"/>
     <use xlink:href="#me68e2ba7d8" x="145.006228" y="143.441784" style="fill: #1f77b4; stroke: #1f77b4"/>
     <use xlink:href="#me68e2ba7d8" x="148.469632" y="141.220439" style="fill: #1f77b4; stroke: #1f77b4"/>
     <use xlink:href="#me68e2ba7d8" x="147.743511" y="139.039613" style="fill: #1f77b4; stroke: #1f77b4"/>
     <use xlink:href="#me68e2ba7d8" x="146.660249" y="137.388032" style="fill: #1f77b4; stroke: #1f77b4"/>
     <use xlink:href="#me68e2ba7d8" x="147.630018" y="137.943564" style="fill: #1f77b4; stroke: #1f77b4"/>
     <use xlink:href="#me68e2ba7d8" x="148.022991" y="137.303277" style="fill: #1f77b4; stroke: #1f77b4"/>
     <use xlink:href="#me68e2ba7d8" x="149.441557" y="134.859944" style="fill: #1f77b4; stroke: #1f77b4"/>
     <use xlink:href="#me68e2ba7d8" x="150.250554" y="132.191445" style="fill: #1f77b4; stroke: #1f77b4"/>
     <use xlink:href="#me68e2ba7d8" x="151.170065" y="128.983112" style="fill: #1f77b4; stroke: #1f77b4"/>
     <use xlink:href="#me68e2ba7d8" x="150.207274" y="128.586943" style="fill: #1f77b4; stroke: #1f77b4"/>
     <use xlink:href="#me68e2ba7d8" x="147.706268" y="127.476442" style="fill: #1f77b4; stroke: #1f77b4"/>
     <use xlink:href="#me68e2ba7d8" x="149.063521" y="126.661704" style="fill: #1f77b4; stroke: #1f77b4"/>
     <use xlink:href="#me68e2ba7d8" x="150.800928" y="125.370761" style="fill: #1f77b4; stroke: #1f77b4"/>
     <use xlink:href="#me68e2ba7d8" x="148.01464" y="122.286799" style="fill: #1f77b4; stroke: #1f77b4"/>
     <use xlink:href="#me68e2ba7d8" x="151.061825" y="122.129515" style="fill: #1f77b4; stroke: #1f77b4"/>
     <use xlink:href="#me68e2ba7d8" x="153.557264" y="120.794483" style="fill: #1f77b4; stroke: #1f77b4"/>
     <use xlink:href="#me68e2ba7d8" x="155.661965" y="121.175466" style="fill: #1f77b4; stroke: #1f77b4"/>
     <use xlink:href="#me68e2ba7d8" x="151.565782" y="119.222302" style="fill: #1f77b4; stroke: #1f77b4"/>
     <use xlink:href="#me68e2ba7d8" x="155.11853" y="116.661324" style="fill: #1f77b4; stroke: #1f77b4"/>
     <use xlink:href="#me68e2ba7d8" x="150.825469" y="115.686783" style="fill: #1f77b4; stroke: #1f77b4"/>
     <use xlink:href="#me68e2ba7d8" x="152.522849" y="112.452188" style="fill: #1f77b4; stroke: #1f77b4"/>
     <use xlink:href="#me68e2ba7d8" x="153.182873" y="110.689515" style="fill: #1f77b4; stroke: #1f77b4"/>
     <use xlink:href="#me68e2ba7d8" x="155.434508" y="110.210963" style="fill: #1f77b4; stroke: #1f77b4"/>
     <use xlink:href="#me68e2ba7d8" x="156.50597" y="108.100954" style="fill: #1f77b4; stroke: #1f77b4"/>
     <use xlink:href="#me68e2ba7d8" x="160.271866" y="108.279464" style="fill: #1f77b4; stroke: #1f77b4"/>
     <use xlink:href="#me68e2ba7d8" x="154.080273" y="103.758817" style="fill: #1f77b4; stroke: #1f77b4"/>
     <use xlink:href="#me68e2ba7d8" x="156.92709" y="104.066831" style="fill: #1f77b4; stroke: #1f77b4"/>
     <use xlink:href="#me68e2ba7d8" x="159.394381" y="104.754607" style="fill: #1f77b4; stroke: #1f77b4"/>
     <use xlink:href="#me68e2ba7d8" x="161.205842" y="101.98871" style="fill: #1f77b4; stroke: #1f77b4"/>
     <use xlink:href="#me68e2ba7d8" x="165.85824" y="100.152457" style="fill: #1f77b4; stroke: #1f77b4"/>
     <use xlink:href="#me68e2ba7d8" x="158.014312" y="99.255898" style="fill: #1f77b4; stroke: #1f77b4"/>
     <use xlink:href="#me68e2ba7d8" x="164.554735" y="96.819241" style="fill: #1f77b4; stroke: #1f77b4"/>
     <use xlink:href="#me68e2ba7d8" x="161.269783" y="96.245785" style="fill: #1f77b4; stroke: #1f77b4"/>
     <use xlink:href="#me68e2ba7d8" x="162.78036" y="96.645133" style="fill: #1f77b4; stroke: #1f77b4"/>
     <use xlink:href="#me68e2ba7d8" x="165.563432" y="92.809792" style="fill: #1f77b4; stroke: #1f77b4"/>
     <use xlink:href="#me68e2ba7d8" x="167.260851" y="92.194643" style="fill: #1f77b4; stroke: #1f77b4"/>
     <use xlink:href="#me68e2ba7d8" x="168.972619" y="89.564584" style="fill: #1f77b4; stroke: #1f77b4"/>
     <use xlink:href="#me68e2ba7d8" x="171.821122" y="90.080159" style="fill: #1f77b4; stroke: #1f77b4"/>
     <use xlink:href="#me68e2ba7d8" x="172.347268" y="86.321773" style="fill: #1f77b4; stroke: #1f77b4"/>
     <use xlink:href="#me68e2ba7d8" x="169.501313" y="89.019934" style="fill: #1f77b4; stroke: #1f77b4"/>
     <use xlink:href="#me68e2ba7d8" x="169.593519" y="84.619989" style="fill: #1f77b4; stroke: #1f77b4"/>
    </g>
   </g>
   <g id="line2d_13">
    <path d="M 125.857519 295.776 
L 120.520436 290.58396 
L 115.321546 285.211937 
L 110.510229 279.929934 
L 105.822788 274.459606 
L 101.258816 268.783216 
L 97.048912 263.195293 
L 92.950502 257.37842 
L 89.184005 251.647336 
L 85.734884 246.013607 
L 82.384398 240.113247 
L 79.341391 234.302213 
L 76.598355 228.595611 
L 74.149601 223.012808 
L 71.990423 217.578471 
L 69.951309 211.831422 
L 68.214947 206.245017 
L 66.776861 200.861021 
L 65.627826 195.730107 
L 64.653525 190.290547 
L 63.972812 185.161303 
L 63.556321 180.417436 
L 63.346918 175.406835 
L 63.368828 170.877048 
L 63.616746 166.108408 
L 64.029756 161.935811 
L 64.665486 157.567717 
L 65.563573 152.989571 
L 66.771457 148.186474 
L 67.99865 144.172059 
L 69.494461 139.996907 
L 71.298392 135.654355 
L 73.456043 131.138784 
L 75.33774 127.636075 
L 77.472843 124.032893 
L 79.889103 120.329368 
L 82.617202 116.526894 
L 85.690958 112.628473 
L 89.147487 108.639131 
L 93.027318 104.566417 
L 97.374413 100.42099 
L 102.236055 96.217319 
L 105.787744 93.391713 
L 109.605977 90.555555 
L 113.70669 87.717031 
L 118.106066 84.885685 
L 122.820342 82.072559 
L 127.865584 79.29034 
L 133.257395 76.553502 
L 139.010564 73.878449 
L 145.138644 71.283635 
L 151.653458 68.789663 
L 158.56453 66.419361 
L 165.878428 64.197796 
L 173.598043 62.15224 
L 181.721794 60.312055 
L 190.242786 58.70848 
L 199.147948 57.37432 
L 208.417165 56.343491 
L 218.022481 55.650445 
L 227.92739 55.329433 
L 238.086307 55.413638 
L 248.444279 55.934162 
L 253.678169 56.366923 
L 258.93699 56.918918 
L 264.211303 57.592942 
L 269.491157 58.391442 
L 274.766122 59.316478 
L 280.025337 60.36969 
L 285.257555 61.552262 
L 290.451204 62.864891 
L 295.594452 64.30776 
L 300.675276 65.880515 
L 305.681539 67.582243 
L 310.601073 69.411456 
L 315.421763 71.366089 
L 320.131635 73.443489 
L 324.718946 75.640419 
L 329.172273 77.953071 
L 333.480603 80.37708 
L 337.63342 82.907544 
L 341.620786 85.539054 
L 345.43342 88.265728 
L 349.062768 91.081249 
L 352.501067 93.978913 
L 355.741402 96.951675 
L 358.77775 99.992201 
L 361.605014 103.092925 
L 364.219054 106.246102 
L 366.616697 109.443873 
L 368.795743 112.678314 
L 370.75496 115.941499 
L 372.494067 119.225554 
L 374.013708 122.522711 
L 375.315419 125.825354 
L 376.401586 129.126071 
L 377.275397 132.417695 
L 377.940786 135.693339 
L 378.402376 138.946432 
L 378.665414 142.170748 
L 378.73571 145.360428 
L 378.619565 148.509996 
L 378.323709 151.614379 
L 377.855231 154.668909 
L 377.221516 157.669332 
L 376.43018 160.611807 
L 375.489013 163.492902 
L 374.405915 166.30959 
L 373.18885 169.059234 
L 371.845791 171.739581 
L 370.384674 174.348744 
L 368.81336 176.885184 
L 367.139595 179.347699 
L 365.370978 181.735396 
L 361.578674 186.284225 
L 357.493293 190.530063 
L 353.167883 194.475039 
L 348.651301 198.124388 
L 343.988008 201.485857 
L 339.218019 204.569152 
L 334.376971 207.385454 
L 329.496289 209.946986 
L 324.603408 212.266649 
L 319.722056 214.357709 
L 314.87254 216.233545 
L 310.07206 217.907446 
L 305.335018 219.392445 
L 298.373814 221.29331 
L 291.612683 222.838179 
L 285.073453 224.064921 
L 278.770439 225.008383 
L 272.711948 225.700334 
L 266.901547 226.169526 
L 261.339132 226.441825 
L 254.302987 226.538289 
L 247.689858 226.373726 
L 241.482975 225.989261 
L 235.662946 225.419925 
L 230.209009 224.695482 
L 223.874051 223.609889 
L 218.036865 222.362092 
L 212.657907 220.98538 
L 207.69986 219.506777 
L 202.257095 217.628552 
L 197.315713 215.665215 
L 192.826405 213.640329 
L 188.745121 211.57227 
L 184.447253 209.123908 
L 180.596767 206.653593 
L 177.146001 204.174347 
L 174.053495 201.695873 
L 170.911793 198.873416 
L 168.144449 196.069062 
L 165.711527 193.288203 
L 163.578686 190.534505 
L 161.501197 187.472013 
L 159.729883 184.448967 
L 158.233807 181.466391 
L 156.986431 178.524595 
L 155.864444 175.303534 
L 154.994401 172.131887 
L 154.35324 169.008642 
L 153.888728 165.627562 
L 153.654534 162.301924 
L 153.638958 158.735176 
L 153.852776 155.230198 
L 154.277486 151.784929 
L 154.957151 148.117711 
L 155.848204 144.516087 
L 157.026992 140.708476 
L 158.417296 136.972398 
L 160.125718 133.046641 
L 162.045896 129.198729 
L 164.312847 125.178144 
L 166.792134 121.242406 
L 169.64552 117.152061 
L 172.712167 113.154534 
L 175.980731 109.248783 
L 179.650383 105.212465 
L 183.524188 101.277559 
L 187.823837 97.233662 
L 188.989966 96.188164 
L 188.989966 96.188164 
" clip-path="url(#pc812a5a65b)" style="fill: none; stroke: #d62728; stroke-width: 1.5; stroke-linecap: square"/>
   </g>
   <g id="patch_3">
    <path d="M 37.848438 307.872 
L 37.848438 41.76 
" style="fill: none; stroke: #000000; stroke-width: 0.8; stroke-linejoin: miter; stroke-linecap: square"/>
   </g>
   <g id="patch_4">
    <path d="M 394.968438 307.872 
L 394.968438 41.76 
" style="fill: none; stroke: #000000; stroke-width: 0.8; stroke-linejoin: miter; stroke-linecap: square"/>
   </g>
   <g id="patch_5">
    <path d="M 37.848437 307.872 
L 394.968438 307.872 
" style="fill: none; stroke: #000000; stroke-width: 0.8; stroke-linejoin: miter; stroke-linecap: square"/>
   </g>
   <g id="patch_6">
    <path d="M 37.848437 41.76 
L 394.968438 41.76 
" style="fill: none; stroke: #000000; stroke-width: 0.8; stroke-linejoin: miter; stroke-linecap: square"/>
   </g>
   <g id="text_14">
    <g id="patch_7">
     <path d="M 412.824438 102.337163 
L 551.924438 102.337163 
Q 555.924438 102.337163 555.924438 98.337163 
L 555.924438 55.0656 
Q 555.924438 51.0656 551.924438 51.0656 
L 412.824438 51.0656 
Q 408.824438 51.0656 408.824438 55.0656 
L 408.824438 98.337163 
Q 408.824438 102.337163 412.824438 102.337163 
z
" style="fill: #ffffff; opacity: 0.5; stroke: #000000; stroke-linejoin: miter"/>
    </g>
    <!-- Summary -->
    <g transform="translate(412.824438 62.664038) scale(0.1 -0.1)">
     <defs>
      <path id="DejaVuSans-53" d="M 3425 4513 
L 3425 3897 
Q 3066 4069 2747 4153 
Q 2428 4238 2131 4238 
Q 1616 4238 1336 4038 
Q 1056 3838 1056 3469 
Q 1056 3159 1242 3001 
Q 1428 2844 1947 2747 
L 2328 2669 
Q 3034 2534 3370 2195 
Q 3706 1856 3706 1288 
Q 3706 609 3251 259 
Q 2797 -91 1919 -91 
Q 1588 -91 1214 -16 
Q 841 59 441 206 
L 441 856 
Q 825 641 1194 531 
Q 1563 422 1919 422 
Q 2459 422 2753 634 
Q 3047 847 3047 1241 
Q 3047 1584 2836 1778 
Q 2625 1972 2144 2069 
L 1759 2144 
Q 1053 2284 737 2584 
Q 422 2884 422 3419 
Q 422 4038 858 4394 
Q 1294 4750 2059 4750 
Q 2388 4750 2728 4690 
Q 3069 4631 3425 4513 
z
" transform="scale(0.015625)"/>
      <path id="DejaVuSans-75" d="M 544 1381 
L 544 3500 
L 1119 3500 
L 1119 1403 
Q 1119 906 1312 657 
Q 1506 409 1894 409 
Q 2359 409 2629 706 
Q 2900 1003 2900 1516 
L 2900 3500 
L 3475 3500 
L 3475 0 
L 2900 0 
L 2900 538 
Q 2691 219 2414 64 
Q 2138 -91 1772 -91 
Q 1169 -91 856 284 
Q 544 659 544 1381 
z
M 1991 3584 
L 1991 3584 
z
" transform="scale(0.015625)"/>
      <path id="DejaVuSans-61" d="M 2194 1759 
Q 1497 1759 1228 1600 
Q 959 1441 959 1056 
Q 959 750 1161 570 
Q 1363 391 1709 391 
Q 2188 391 2477 730 
Q 2766 1069 2766 1631 
L 2766 1759 
L 2194 1759 
z
M 3341 1997 
L 3341 0 
L 2766 0 
L 2766 531 
Q 2569 213 2275 61 
Q 1981 -91 1556 -91 
Q 1019 -91 701 211 
Q 384 513 384 1019 
Q 384 1609 779 1909 
Q 1175 2209 1959 2209 
L 2766 2209 
L 2766 2266 
Q 2766 2663 2505 2880 
Q 2244 3097 1772 3097 
Q 1472 3097 1187 3025 
Q 903 2953 641 2809 
L 641 3341 
Q 956 3463 1253 3523 
Q 1550 3584 1831 3584 
Q 2591 3584 2966 3190 
Q 3341 2797 3341 1997 
z
" transform="scale(0.015625)"/>
      <path id="DejaVuSans-72" d="M 2631 2963 
Q 2534 3019 2420 3045 
Q 2306 3072 2169 3072 
Q 1681 3072 1420 2755 
Q 1159 2438 1159 1844 
L 1159 0 
L 581 0 
L 581 3500 
L 1159 3500 
L 1159 2956 
Q 1341 3275 1631 3429 
Q 1922 3584 2338 3584 
Q 2397 3584 2469 3576 
Q 2541 3569 2628 3553 
L 2631 2963 
z
" transform="scale(0.015625)"/>
      <path id="DejaVuSans-79" d="M 2059 -325 
Q 1816 -950 1584 -1140 
Q 1353 -1331 966 -1331 
L 506 -1331 
L 506 -850 
L 844 -850 
Q 1081 -850 1212 -737 
Q 1344 -625 1503 -206 
L 1606 56 
L 191 3500 
L 800 3500 
L 1894 763 
L 2988 3500 
L 3597 3500 
L 2059 -325 
z
" transform="scale(0.015625)"/>
     </defs>
     <use xlink:href="#DejaVuSans-53"/>
     <use xlink:href="#DejaVuSans-75" x="63.476562"/>
     <use xlink:href="#DejaVuSans-6d" x="126.855469"/>
     <use xlink:href="#DejaVuSans-6d" x="224.267578"/>
     <use xlink:href="#DejaVuSans-61" x="321.679688"/>
     <use xlink:href="#DejaVuSans-72" x="382.958984"/>
     <use xlink:href="#DejaVuSans-79" x="424.072266"/>
    </g>
    <!-- $Q_I$: 15.79$\pm$0.88 k -->
    <g transform="translate(412.824438 73.86185) scale(0.1 -0.1)">
     <defs>
      <path id="DejaVuSans-Oblique-51" d="M 2309 -84 
Q 2275 -88 2237 -89 
Q 2200 -91 2125 -91 
Q 1250 -91 756 411 
Q 263 913 263 1797 
Q 263 2319 452 2844 
Q 641 3369 978 3788 
Q 1369 4269 1858 4509 
Q 2347 4750 2938 4750 
Q 3794 4750 4287 4245 
Q 4781 3741 4781 2869 
Q 4781 1928 4265 1147 
Q 3750 366 2919 44 
L 3553 -825 
L 2847 -825 
L 2309 -84 
z
M 2919 4238 
Q 2400 4238 2003 3986 
Q 1606 3734 1313 3219 
Q 1125 2891 1026 2522 
Q 928 2153 928 1778 
Q 928 1128 1239 775 
Q 1550 422 2119 422 
Q 2631 422 3032 676 
Q 3434 931 3719 1434 
Q 3909 1772 4009 2142 
Q 4109 2513 4109 2881 
Q 4109 3528 3796 3883 
Q 3484 4238 2919 4238 
z
" transform="scale(0.015625)"/>
      <path id="DejaVuSans-Oblique-49" d="M 1081 4666 
L 1716 4666 
L 806 0 
L 172 0 
L 1081 4666 
z
" transform="scale(0.015625)"/>
      <path id="DejaVuSans-3a" d="M 750 794 
L 1409 794 
L 1409 0 
L 750 0 
L 750 794 
z
M 750 3309 
L 1409 3309 
L 1409 2516 
L 750 2516 
L 750 3309 
z
" transform="scale(0.015625)"/>
      <path id="DejaVuSans-35" d="M 691 4666 
L 3169 4666 
L 3169 4134 
L 1269 4134 
L 1269 2991 
Q 1406 3038 1543 3061 
Q 1681 3084 1819 3084 
Q 2600 3084 3056 2656 
Q 3513 2228 3513 1497 
Q 3513 744 3044 326 
Q 2575 -91 1722 -91 
Q 1428 -91 1123 -41 
Q 819 9 494 109 
L 494 744 
Q 775 591 1075 516 
Q 1375 441 1709 441 
Q 2250 441 2565 725 
Q 2881 1009 2881 1497 
Q 2881 1984 2565 2268 
Q 2250 2553 1709 2553 
Q 1456 2553 1204 2497 
Q 953 2441 691 2322 
L 691 4666 
z
" transform="scale(0.015625)"/>
      <path id="DejaVuSans-2e" d="M 684 794 
L 1344 794 
L 1344 0 
L 684 0 
L 684 794 
z
" transform="scale(0.015625)"/>
      <path id="DejaVuSans-37" d="M 525 4666 
L 3525 4666 
L 3525 4397 
L 1831 0 
L 1172 0 
L 2766 4134 
L 525 4134 
L 525 4666 
z
" transform="scale(0.015625)"/>
      <path id="DejaVuSans-39" d="M 703 97 
L 703 672 
Q 941 559 1184 500 
Q 1428 441 1663 441 
Q 2288 441 2617 861 
Q 2947 1281 2994 2138 
Q 2813 1869 2534 1725 
Q 2256 1581 1919 1581 
Q 1219 1581 811 2004 
Q 403 2428 403 3163 
Q 403 3881 828 4315 
Q 1253 4750 1959 4750 
Q 2769 4750 3195 4129 
Q 3622 3509 3622 2328 
Q 3622 1225 3098 567 
Q 2575 -91 1691 -91 
Q 1453 -91 1209 -44 
Q 966 3 703 97 
z
M 1959 2075 
Q 2384 2075 2632 2365 
Q 2881 2656 2881 3163 
Q 2881 3666 2632 3958 
Q 2384 4250 1959 4250 
Q 1534 4250 1286 3958 
Q 1038 3666 1038 3163 
Q 1038 2656 1286 2365 
Q 1534 2075 1959 2075 
z
" transform="scale(0.015625)"/>
      <path id="DejaVuSans-b1" d="M 2944 4013 
L 2944 2803 
L 4684 2803 
L 4684 2272 
L 2944 2272 
L 2944 1063 
L 2419 1063 
L 2419 2272 
L 678 2272 
L 678 2803 
L 2419 2803 
L 2419 4013 
L 2944 4013 
z
M 678 531 
L 4684 531 
L 4684 0 
L 678 0 
L 678 531 
z
" transform="scale(0.015625)"/>
      <path id="DejaVuSans-6b" d="M 581 4863 
L 1159 4863 
L 1159 1991 
L 2875 3500 
L 3609 3500 
L 1753 1863 
L 3688 0 
L 2938 0 
L 1159 1709 
L 1159 0 
L 581 0 
L 581 4863 
z
" transform="scale(0.015625)"/>
     </defs>
     <use xlink:href="#DejaVuSans-Oblique-51" transform="translate(0 0.015625)"/>
     <use xlink:href="#DejaVuSans-Oblique-49" transform="translate(78.710938 -16.390625) scale(0.7)"/>
     <use xlink:href="#DejaVuSans-3a" transform="translate(102.089844 0.015625)"/>
     <use xlink:href="#DejaVuSans-20" transform="translate(135.78125 0.015625)"/>
     <use xlink:href="#DejaVuSans-31" transform="translate(167.568359 0.015625)"/>
     <use xlink:href="#DejaVuSans-35" transform="translate(231.191406 0.015625)"/>
     <use xlink:href="#DejaVuSans-2e" transform="translate(294.814453 0.015625)"/>
     <use xlink:href="#DejaVuSans-37" transform="translate(318.851562 0.015625)"/>
     <use xlink:href="#DejaVuSans-39" transform="translate(382.474609 0.015625)"/>
     <use xlink:href="#DejaVuSans-b1" transform="translate(446.097656 0.015625)"/>
     <use xlink:href="#DejaVuSans-30" transform="translate(529.886719 0.015625)"/>
     <use xlink:href="#DejaVuSans-2e" transform="translate(593.509766 0.015625)"/>
     <use xlink:href="#DejaVuSans-38" transform="translate(622.671875 0.015625)"/>
     <use xlink:href="#DejaVuSans-38" transform="translate(686.294922 0.015625)"/>
     <use xlink:href="#DejaVuSans-20" transform="translate(749.917969 0.015625)"/>
     <use xlink:href="#DejaVuSans-6b" transform="translate(781.705078 0.015625)"/>
    </g>
    <!-- $Q_C$: 3.363$\pm$0.045 k -->
    <g transform="translate(412.824438 85.059663) scale(0.1 -0.1)">
     <defs>
      <path id="DejaVuSans-Oblique-43" d="M 4447 4306 
L 4319 3641 
Q 4019 3944 3683 4091 
Q 3347 4238 2956 4238 
Q 2422 4238 2017 3981 
Q 1613 3725 1319 3200 
Q 1131 2863 1032 2486 
Q 934 2109 934 1728 
Q 934 1091 1264 756 
Q 1594 422 2222 422 
Q 2656 422 3056 561 
Q 3456 700 3834 978 
L 3688 231 
Q 3316 72 2936 -9 
Q 2556 -91 2175 -91 
Q 1278 -91 773 396 
Q 269 884 269 1753 
Q 269 2309 461 2846 
Q 653 3384 1013 3828 
Q 1394 4300 1883 4525 
Q 2372 4750 3022 4750 
Q 3422 4750 3780 4639 
Q 4138 4528 4447 4306 
z
" transform="scale(0.015625)"/>
      <path id="DejaVuSans-33" d="M 2597 2516 
Q 3050 2419 3304 2112 
Q 3559 1806 3559 1356 
Q 3559 666 3084 287 
Q 2609 -91 1734 -91 
Q 1441 -91 1130 -33 
Q 819 25 488 141 
L 488 750 
Q 750 597 1062 519 
Q 1375 441 1716 441 
Q 2309 441 2620 675 
Q 2931 909 2931 1356 
Q 2931 1769 2642 2001 
Q 2353 2234 1838 2234 
L 1294 2234 
L 1294 2753 
L 1863 2753 
Q 2328 2753 2575 2939 
Q 2822 3125 2822 3475 
Q 2822 3834 2567 4026 
Q 2313 4219 1838 4219 
Q 1578 4219 1281 4162 
Q 984 4106 628 3988 
L 628 4550 
Q 988 4650 1302 4700 
Q 1616 4750 1894 4750 
Q 2613 4750 3031 4423 
Q 3450 4097 3450 3541 
Q 3450 3153 3228 2886 
Q 3006 2619 2597 2516 
z
" transform="scale(0.015625)"/>
     </defs>
     <use xlink:href="#DejaVuSans-Oblique-51" transform="translate(0 0.015625)"/>
     <use xlink:href="#DejaVuSans-Oblique-43" transform="translate(78.710938 -16.390625) scale(0.7)"/>
     <use xlink:href="#DejaVuSans-3a" transform="translate(130.322266 0.015625)"/>
     <use xlink:href="#DejaVuSans-20" transform="translate(164.013672 0.015625)"/>
     <use xlink:href="#DejaVuSans-33" transform="translate(195.800781 0.015625)"/>
     <use xlink:href="#DejaVuSans-2e" transform="translate(259.423828 0.015625)"/>
     <use xlink:href="#DejaVuSans-33" transform="translate(291.210938 0.015625)"/>
     <use xlink:href="#DejaVuSans-36" transform="translate(354.833984 0.015625)"/>
     <use xlink:href="#DejaVuSans-33" transform="translate(418.457031 0.015625)"/>
     <use xlink:href="#DejaVuSans-b1" transform="translate(482.080078 0.015625)"/>
     <use xlink:href="#DejaVuSans-30" transform="translate(565.869141 0.015625)"/>
     <use xlink:href="#DejaVuSans-2e" transform="translate(629.492188 0.015625)"/>
     <use xlink:href="#DejaVuSans-30" transform="translate(661.279297 0.015625)"/>
     <use xlink:href="#DejaVuSans-34" transform="translate(724.902344 0.015625)"/>
     <use xlink:href="#DejaVuSans-35" transform="translate(788.525391 0.015625)"/>
     <use xlink:href="#DejaVuSans-20" transform="translate(852.148438 0.015625)"/>
     <use xlink:href="#DejaVuSans-6b" transform="translate(883.935547 0.015625)"/>
    </g>
    <!-- $f_{res}$: 5.837683$\pm$1.4e-05 GHz -->
    <g transform="translate(412.824438 96.257475) scale(0.1 -0.1)">
     <defs>
      <path id="DejaVuSans-Oblique-66" d="M 3059 4863 
L 2969 4384 
L 2419 4384 
Q 2106 4384 1964 4261 
Q 1822 4138 1753 3809 
L 1691 3500 
L 2638 3500 
L 2553 3053 
L 1606 3053 
L 1013 0 
L 434 0 
L 1031 3053 
L 481 3053 
L 563 3500 
L 1113 3500 
L 1159 3744 
Q 1278 4363 1576 4613 
Q 1875 4863 2516 4863 
L 3059 4863 
z
" transform="scale(0.015625)"/>
      <path id="DejaVuSans-Oblique-72" d="M 2853 2969 
Q 2766 3016 2653 3041 
Q 2541 3066 2413 3066 
Q 1953 3066 1609 2717 
Q 1266 2369 1153 1784 
L 800 0 
L 225 0 
L 909 3500 
L 1484 3500 
L 1375 2956 
Q 1603 3259 1920 3421 
Q 2238 3584 2597 3584 
Q 2691 3584 2781 3573 
Q 2872 3563 2963 3538 
L 2853 2969 
z
" transform="scale(0.015625)"/>
      <path id="DejaVuSans-Oblique-65" d="M 3078 2063 
Q 3088 2113 3092 2166 
Q 3097 2219 3097 2272 
Q 3097 2653 2873 2875 
Q 2650 3097 2266 3097 
Q 1838 3097 1509 2826 
Q 1181 2556 1013 2059 
L 3078 2063 
z
M 3578 1613 
L 903 1613 
Q 884 1494 878 1425 
Q 872 1356 872 1306 
Q 872 872 1139 634 
Q 1406 397 1894 397 
Q 2269 397 2603 481 
Q 2938 566 3225 728 
L 3116 159 
Q 2806 34 2476 -28 
Q 2147 -91 1806 -91 
Q 1078 -91 686 257 
Q 294 606 294 1247 
Q 294 1794 489 2264 
Q 684 2734 1063 3103 
Q 1306 3334 1642 3459 
Q 1978 3584 2356 3584 
Q 2950 3584 3301 3228 
Q 3653 2872 3653 2272 
Q 3653 2128 3634 1964 
Q 3616 1800 3578 1613 
z
" transform="scale(0.015625)"/>
      <path id="DejaVuSans-Oblique-73" d="M 3200 3397 
L 3091 2853 
Q 2863 2978 2609 3040 
Q 2356 3103 2088 3103 
Q 1634 3103 1373 2948 
Q 1113 2794 1113 2528 
Q 1113 2219 1719 2053 
Q 1766 2041 1788 2034 
L 1972 1978 
Q 2547 1819 2739 1644 
Q 2931 1469 2931 1166 
Q 2931 609 2489 259 
Q 2047 -91 1331 -91 
Q 1053 -91 747 -37 
Q 441 16 72 128 
L 184 722 
Q 500 559 806 475 
Q 1113 391 1394 391 
Q 1816 391 2080 572 
Q 2344 753 2344 1031 
Q 2344 1331 1650 1516 
L 1591 1531 
L 1394 1581 
Q 956 1697 753 1886 
Q 550 2075 550 2369 
Q 550 2928 970 3256 
Q 1391 3584 2113 3584 
Q 2397 3584 2667 3537 
Q 2938 3491 3200 3397 
z
" transform="scale(0.015625)"/>
      <path id="DejaVuSans-47" d="M 3809 666 
L 3809 1919 
L 2778 1919 
L 2778 2438 
L 4434 2438 
L 4434 434 
Q 4069 175 3628 42 
Q 3188 -91 2688 -91 
Q 1594 -91 976 548 
Q 359 1188 359 2328 
Q 359 3472 976 4111 
Q 1594 4750 2688 4750 
Q 3144 4750 3555 4637 
Q 3966 4525 4313 4306 
L 4313 3634 
Q 3963 3931 3569 4081 
Q 3175 4231 2741 4231 
Q 1884 4231 1454 3753 
Q 1025 3275 1025 2328 
Q 1025 1384 1454 906 
Q 1884 428 2741 428 
Q 3075 428 3337 486 
Q 3600 544 3809 666 
z
" transform="scale(0.015625)"/>
      <path id="DejaVuSans-48" d="M 628 4666 
L 1259 4666 
L 1259 2753 
L 3553 2753 
L 3553 4666 
L 4184 4666 
L 4184 0 
L 3553 0 
L 3553 2222 
L 1259 2222 
L 1259 0 
L 628 0 
L 628 4666 
z
" transform="scale(0.015625)"/>
      <path id="DejaVuSans-7a" d="M 353 3500 
L 3084 3500 
L 3084 2975 
L 922 459 
L 3084 459 
L 3084 0 
L 275 0 
L 275 525 
L 2438 3041 
L 353 3041 
L 353 3500 
z
" transform="scale(0.015625)"/>
     </defs>
     <use xlink:href="#DejaVuSans-Oblique-66" transform="translate(0 0.015625)"/>
     <use xlink:href="#DejaVuSans-Oblique-72" transform="translate(35.205078 -16.390625) scale(0.7)"/>
     <use xlink:href="#DejaVuSans-Oblique-65" transform="translate(63.984375 -16.390625) scale(0.7)"/>
     <use xlink:href="#DejaVuSans-Oblique-73" transform="translate(107.050781 -16.390625) scale(0.7)"/>
     <use xlink:href="#DejaVuSans-3a" transform="translate(146.254883 0.015625)"/>
     <use xlink:href="#DejaVuSans-20" transform="translate(179.946289 0.015625)"/>
     <use xlink:href="#DejaVuSans-35" transform="translate(211.733398 0.015625)"/>
     <use xlink:href="#DejaVuSans-2e" transform="translate(275.356445 0.015625)"/>
     <use xlink:href="#DejaVuSans-38" transform="translate(304.518555 0.015625)"/>
     <use xlink:href="#DejaVuSans-33" transform="translate(368.141602 0.015625)"/>
     <use xlink:href="#DejaVuSans-37" transform="translate(431.764648 0.015625)"/>
     <use xlink:href="#DejaVuSans-36" transform="translate(495.387695 0.015625)"/>
     <use xlink:href="#DejaVuSans-38" transform="translate(559.010742 0.015625)"/>
     <use xlink:href="#DejaVuSans-33" transform="translate(622.633789 0.015625)"/>
     <use xlink:href="#DejaVuSans-b1" transform="translate(686.256836 0.015625)"/>
     <use xlink:href="#DejaVuSans-31" transform="translate(770.045898 0.015625)"/>
     <use xlink:href="#DejaVuSans-2e" transform="translate(833.668945 0.015625)"/>
     <use xlink:href="#DejaVuSans-34" transform="translate(865.456055 0.015625)"/>
     <use xlink:href="#DejaVuSans-65" transform="translate(929.079102 0.015625)"/>
     <use xlink:href="#DejaVuSans-2d" transform="translate(990.602539 0.015625)"/>
     <use xlink:href="#DejaVuSans-30" transform="translate(1026.686523 0.015625)"/>
     <use xlink:href="#DejaVuSans-35" transform="translate(1090.30957 0.015625)"/>
     <use xlink:href="#DejaVuSans-20" transform="translate(1153.932617 0.015625)"/>
     <use xlink:href="#DejaVuSans-47" transform="translate(1185.719727 0.015625)"/>
     <use xlink:href="#DejaVuSans-48" transform="translate(1263.209961 0.015625)"/>
     <use xlink:href="#DejaVuSans-7a" transform="translate(1338.405273 0.015625)"/>
    </g>
   </g>
  </g>
  <g id="text_15">
   <!-- S21 resonator spectroscopy -->
   <g transform="translate(126.864063 16.318125) scale(0.12 -0.12)">
    <defs>
     <path id="DejaVuSans-73" d="M 2834 3397 
L 2834 2853 
Q 2591 2978 2328 3040 
Q 2066 3103 1784 3103 
Q 1356 3103 1142 2972 
Q 928 2841 928 2578 
Q 928 2378 1081 2264 
Q 1234 2150 1697 2047 
L 1894 2003 
Q 2506 1872 2764 1633 
Q 3022 1394 3022 966 
Q 3022 478 2636 193 
Q 2250 -91 1575 -91 
Q 1294 -91 989 -36 
Q 684 19 347 128 
L 347 722 
Q 666 556 975 473 
Q 1284 391 1588 391 
Q 1994 391 2212 530 
Q 2431 669 2431 922 
Q 2431 1156 2273 1281 
Q 2116 1406 1581 1522 
L 1381 1569 
Q 847 1681 609 1914 
Q 372 2147 372 2553 
Q 372 3047 722 3315 
Q 1072 3584 1716 3584 
Q 2034 3584 2315 3537 
Q 2597 3491 2834 3397 
z
" transform="scale(0.015625)"/>
     <path id="DejaVuSans-6f" d="M 1959 3097 
Q 1497 3097 1228 2736 
Q 959 2375 959 1747 
Q 959 1119 1226 758 
Q 1494 397 1959 397 
Q 2419 397 2687 759 
Q 2956 1122 2956 1747 
Q 2956 2369 2687 2733 
Q 2419 3097 1959 3097 
z
M 1959 3584 
Q 2709 3584 3137 3096 
Q 3566 2609 3566 1747 
Q 3566 888 3137 398 
Q 2709 -91 1959 -91 
Q 1206 -91 779 398 
Q 353 888 353 1747 
Q 353 2609 779 3096 
Q 1206 3584 1959 3584 
z
" transform="scale(0.015625)"/>
     <path id="DejaVuSans-6e" d="M 3513 2113 
L 3513 0 
L 2938 0 
L 2938 2094 
Q 2938 2591 2744 2837 
Q 2550 3084 2163 3084 
Q 1697 3084 1428 2787 
Q 1159 2491 1159 1978 
L 1159 0 
L 581 0 
L 581 3500 
L 1159 3500 
L 1159 2956 
Q 1366 3272 1645 3428 
Q 1925 3584 2291 3584 
Q 2894 3584 3203 3211 
Q 3513 2838 3513 2113 
z
" transform="scale(0.015625)"/>
     <path id="DejaVuSans-74" d="M 1172 4494 
L 1172 3500 
L 2356 3500 
L 2356 3053 
L 1172 3053 
L 1172 1153 
Q 1172 725 1289 603 
Q 1406 481 1766 481 
L 2356 481 
L 2356 0 
L 1766 0 
Q 1100 0 847 248 
Q 594 497 594 1153 
L 594 3053 
L 172 3053 
L 172 3500 
L 594 3500 
L 594 4494 
L 1172 4494 
z
" transform="scale(0.015625)"/>
     <path id="DejaVuSans-70" d="M 1159 525 
L 1159 -1331 
L 581 -1331 
L 581 3500 
L 1159 3500 
L 1159 2969 
Q 1341 3281 1617 3432 
Q 1894 3584 2278 3584 
Q 2916 3584 3314 3078 
Q 3713 2572 3713 1747 
Q 3713 922 3314 415 
Q 2916 -91 2278 -91 
Q 1894 -91 1617 61 
Q 1341 213 1159 525 
z
M 3116 1747 
Q 3116 2381 2855 2742 
Q 2594 3103 2138 3103 
Q 1681 3103 1420 2742 
Q 1159 2381 1159 1747 
Q 1159 1113 1420 752 
Q 1681 391 2138 391 
Q 2594 391 2855 752 
Q 3116 1113 3116 1747 
z
" transform="scale(0.015625)"/>
     <path id="DejaVuSans-63" d="M 3122 3366 
L 3122 2828 
Q 2878 2963 2633 3030 
Q 2388 3097 2138 3097 
Q 1578 3097 1268 2742 
Q 959 2388 959 1747 
Q 959 1106 1268 751 
Q 1578 397 2138 397 
Q 2388 397 2633 464 
Q 2878 531 3122 666 
L 3122 134 
Q 2881 22 2623 -34 
Q 2366 -91 2075 -91 
Q 1284 -91 818 406 
Q 353 903 353 1747 
Q 353 2603 823 3093 
Q 1294 3584 2113 3584 
Q 2378 3584 2631 3529 
Q 2884 3475 3122 3366 
z
" transform="scale(0.015625)"/>
    </defs>
    <use xlink:href="#DejaVuSans-53"/>
    <use xlink:href="#DejaVuSans-32" x="63.476562"/>
    <use xlink:href="#DejaVuSans-31" x="127.099609"/>
    <use xlink:href="#DejaVuSans-20" x="190.722656"/>
    <use xlink:href="#DejaVuSans-72" x="222.509766"/>
    <use xlink:href="#DejaVuSans-65" x="261.373047"/>
    <use xlink:href="#DejaVuSans-73" x="322.896484"/>
    <use xlink:href="#DejaVuSans-6f" x="374.996094"/>
    <use xlink:href="#DejaVuSans-6e" x="436.177734"/>
    <use xlink:href="#DejaVuSans-61" x="499.556641"/>
    <use xlink:href="#DejaVuSans-74" x="560.835938"/>
    <use xlink:href="#DejaVuSans-6f" x="600.044922"/>
    <use xlink:href="#DejaVuSans-72" x="661.226562"/>
    <use xlink:href="#DejaVuSans-20" x="702.339844"/>
    <use xlink:href="#DejaVuSans-73" x="734.126953"/>
    <use xlink:href="#DejaVuSans-70" x="786.226562"/>
    <use xlink:href="#DejaVuSans-65" x="849.703125"/>
    <use xlink:href="#DejaVuSans-63" x="911.226562"/>
    <use xlink:href="#DejaVuSans-74" x="966.207031"/>
    <use xlink:href="#DejaVuSans-72" x="1005.416016"/>
    <use xlink:href="#DejaVuSans-6f" x="1044.279297"/>
    <use xlink:href="#DejaVuSans-73" x="1105.460938"/>
    <use xlink:href="#DejaVuSans-63" x="1157.560547"/>
    <use xlink:href="#DejaVuSans-6f" x="1212.541016"/>
    <use xlink:href="#DejaVuSans-70" x="1273.722656"/>
    <use xlink:href="#DejaVuSans-79" x="1337.199219"/>
   </g>
   <!-- tuid: 20231225-162718-807-45ce79 -->
   <g transform="translate(101.437188 29.7555) scale(0.12 -0.12)">
    <defs>
     <path id="DejaVuSans-69" d="M 603 3500 
L 1178 3500 
L 1178 0 
L 603 0 
L 603 3500 
z
M 603 4863 
L 1178 4863 
L 1178 4134 
L 603 4134 
L 603 4863 
z
" transform="scale(0.015625)"/>
     <path id="DejaVuSans-64" d="M 2906 2969 
L 2906 4863 
L 3481 4863 
L 3481 0 
L 2906 0 
L 2906 525 
Q 2725 213 2448 61 
Q 2172 -91 1784 -91 
Q 1150 -91 751 415 
Q 353 922 353 1747 
Q 353 2572 751 3078 
Q 1150 3584 1784 3584 
Q 2172 3584 2448 3432 
Q 2725 3281 2906 2969 
z
M 947 1747 
Q 947 1113 1208 752 
Q 1469 391 1925 391 
Q 2381 391 2643 752 
Q 2906 1113 2906 1747 
Q 2906 2381 2643 2742 
Q 2381 3103 1925 3103 
Q 1469 3103 1208 2742 
Q 947 2381 947 1747 
z
" transform="scale(0.015625)"/>
    </defs>
    <use xlink:href="#DejaVuSans-74"/>
    <use xlink:href="#DejaVuSans-75" x="39.208984"/>
    <use xlink:href="#DejaVuSans-69" x="102.587891"/>
    <use xlink:href="#DejaVuSans-64" x="130.371094"/>
    <use xlink:href="#DejaVuSans-3a" x="193.847656"/>
    <use xlink:href="#DejaVuSans-20" x="227.539062"/>
    <use xlink:href="#DejaVuSans-32" x="259.326172"/>
    <use xlink:href="#DejaVuSans-30" x="322.949219"/>
    <use xlink:href="#DejaVuSans-32" x="386.572266"/>
    <use xlink:href="#DejaVuSans-33" x="450.195312"/>
    <use xlink:href="#DejaVuSans-31" x="513.818359"/>
    <use xlink:href="#DejaVuSans-32" x="577.441406"/>
    <use xlink:href="#DejaVuSans-32" x="641.064453"/>
    <use xlink:href="#DejaVuSans-35" x="704.6875"/>
    <use xlink:href="#DejaVuSans-2d" x="768.310547"/>
    <use xlink:href="#DejaVuSans-31" x="804.394531"/>
    <use xlink:href="#DejaVuSans-36" x="868.017578"/>
    <use xlink:href="#DejaVuSans-32" x="931.640625"/>
    <use xlink:href="#DejaVuSans-37" x="995.263672"/>
    <use xlink:href="#DejaVuSans-31" x="1058.886719"/>
    <use xlink:href="#DejaVuSans-38" x="1122.509766"/>
    <use xlink:href="#DejaVuSans-2d" x="1186.132812"/>
    <use xlink:href="#DejaVuSans-38" x="1222.216797"/>
    <use xlink:href="#DejaVuSans-30" x="1285.839844"/>
    <use xlink:href="#DejaVuSans-37" x="1349.462891"/>
    <use xlink:href="#DejaVuSans-2d" x="1413.085938"/>
    <use xlink:href="#DejaVuSans-34" x="1449.169922"/>
    <use xlink:href="#DejaVuSans-35" x="1512.792969"/>
    <use xlink:href="#DejaVuSans-63" x="1576.416016"/>
    <use xlink:href="#DejaVuSans-65" x="1631.396484"/>
    <use xlink:href="#DejaVuSans-37" x="1692.919922"/>
    <use xlink:href="#DejaVuSans-39" x="1756.542969"/>
   </g>
  </g>
 </g>
 <defs>
  <clipPath id="pc812a5a65b">
   <rect x="37.848438" y="41.76" width="357.12" height="266.112"/>
  </clipPath>
 </defs>
</svg>
