<?xml version="1.0" encoding="utf-8" standalone="no"?>
<!DOCTYPE svg PUBLIC "-//W3C//DTD SVG 1.1//EN"
  "http://www.w3.org/Graphics/SVG/1.1/DTD/svg11.dtd">
<svg xmlns:xlink="http://www.w3.org/1999/xlink" width="656.996313pt" height="345.42825pt" viewBox="0 0 656.996313 345.42825" xmlns="http://www.w3.org/2000/svg" version="1.1">
 <metadata>
  <rdf:RDF xmlns:dc="http://purl.org/dc/elements/1.1/" xmlns:cc="http://creativecommons.org/ns#" xmlns:rdf="http://www.w3.org/1999/02/22-rdf-syntax-ns#">
   <cc:Work>
    <dc:type rdf:resource="http://purl.org/dc/dcmitype/StillImage"/>
    <dc:date>2023-12-25T16:01:04.367910</dc:date>
    <dc:format>image/svg+xml</dc:format>
    <dc:creator>
     <cc:Agent>
      <dc:title>Matplotlib v3.8.2, https://matplotlib.org/</dc:title>
     </cc:Agent>
    </dc:creator>
   </cc:Work>
  </rdf:RDF>
 </metadata>
 <defs>
  <style type="text/css">*{stroke-linejoin: round; stroke-linecap: butt}</style>
 </defs>
 <g id="figure_1">
  <g id="patch_1">
   <path d="M 0 345.42825 
L 656.996313 345.42825 
L 656.996313 -0 
L 0 -0 
L 0 345.42825 
z
" style="fill: none; opacity: 0"/>
  </g>
  <g id="axes_1">
   <g id="patch_2">
    <path d="M 50.573438 307.872 
L 407.693438 307.872 
L 407.693438 41.76 
L 50.573438 41.76 
z
" style="fill: #ffffff"/>
   </g>
   <g id="matplotlib.axis_1">
    <g id="xtick_1">
     <g id="line2d_1">
      <defs>
       <path id="m6d61ab584d" d="M 0 0 
L 0 3.5 
" style="stroke: #000000; stroke-width: 0.8"/>
      </defs>
      <g>
       <use xlink:href="#m6d61ab584d" x="57.563081" y="307.872" style="stroke: #000000; stroke-width: 0.8"/>
      </g>
     </g>
     <g id="text_1">
      <!-- 6 -->
      <g transform="translate(54.381831 322.470438) scale(0.1 -0.1)">
       <defs>
        <path id="DejaVuSans-36" d="M 2113 2584 
Q 1688 2584 1439 2293 
Q 1191 2003 1191 1497 
Q 1191 994 1439 701 
Q 1688 409 2113 409 
Q 2538 409 2786 701 
Q 3034 994 3034 1497 
Q 3034 2003 2786 2293 
Q 2538 2584 2113 2584 
z
M 3366 4563 
L 3366 3988 
Q 3128 4100 2886 4159 
Q 2644 4219 2406 4219 
Q 1781 4219 1451 3797 
Q 1122 3375 1075 2522 
Q 1259 2794 1537 2939 
Q 1816 3084 2150 3084 
Q 2853 3084 3261 2657 
Q 3669 2231 3669 1497 
Q 3669 778 3244 343 
Q 2819 -91 2113 -91 
Q 1303 -91 875 529 
Q 447 1150 447 2328 
Q 447 3434 972 4092 
Q 1497 4750 2381 4750 
Q 2619 4750 2861 4703 
Q 3103 4656 3366 4563 
z
" transform="scale(0.015625)"/>
       </defs>
       <use xlink:href="#DejaVuSans-36"/>
      </g>
     </g>
    </g>
    <g id="xtick_2">
     <g id="line2d_2">
      <g>
       <use xlink:href="#m6d61ab584d" x="98.144899" y="307.872" style="stroke: #000000; stroke-width: 0.8"/>
      </g>
     </g>
     <g id="text_2">
      <!-- 6.5 -->
      <g transform="translate(90.193337 322.470438) scale(0.1 -0.1)">
       <defs>
        <path id="DejaVuSans-2e" d="M 684 794 
L 1344 794 
L 1344 0 
L 684 0 
L 684 794 
z
" transform="scale(0.015625)"/>
        <path id="DejaVuSans-35" d="M 691 4666 
L 3169 4666 
L 3169 4134 
L 1269 4134 
L 1269 2991 
Q 1406 3038 1543 3061 
Q 1681 3084 1819 3084 
Q 2600 3084 3056 2656 
Q 3513 2228 3513 1497 
Q 3513 744 3044 326 
Q 2575 -91 1722 -91 
Q 1428 -91 1123 -41 
Q 819 9 494 109 
L 494 744 
Q 775 591 1075 516 
Q 1375 441 1709 441 
Q 2250 441 2565 725 
Q 2881 1009 2881 1497 
Q 2881 1984 2565 2268 
Q 2250 2553 1709 2553 
Q 1456 2553 1204 2497 
Q 953 2441 691 2322 
L 691 4666 
z
" transform="scale(0.015625)"/>
       </defs>
       <use xlink:href="#DejaVuSans-36"/>
       <use xlink:href="#DejaVuSans-2e" x="63.623047"/>
       <use xlink:href="#DejaVuSans-35" x="95.410156"/>
      </g>
     </g>
    </g>
    <g id="xtick_3">
     <g id="line2d_3">
      <g>
       <use xlink:href="#m6d61ab584d" x="138.726718" y="307.872" style="stroke: #000000; stroke-width: 0.8"/>
      </g>
     </g>
     <g id="text_3">
      <!-- 7 -->
      <g transform="translate(135.545468 322.470438) scale(0.1 -0.1)">
       <defs>
        <path id="DejaVuSans-37" d="M 525 4666 
L 3525 4666 
L 3525 4397 
L 1831 0 
L 1172 0 
L 2766 4134 
L 525 4134 
L 525 4666 
z
" transform="scale(0.015625)"/>
       </defs>
       <use xlink:href="#DejaVuSans-37"/>
      </g>
     </g>
    </g>
    <g id="xtick_4">
     <g id="line2d_4">
      <g>
       <use xlink:href="#m6d61ab584d" x="179.308536" y="307.872" style="stroke: #000000; stroke-width: 0.8"/>
      </g>
     </g>
     <g id="text_4">
      <!-- 7.5 -->
      <g transform="translate(171.356973 322.470438) scale(0.1 -0.1)">
       <use xlink:href="#DejaVuSans-37"/>
       <use xlink:href="#DejaVuSans-2e" x="63.623047"/>
       <use xlink:href="#DejaVuSans-35" x="95.410156"/>
      </g>
     </g>
    </g>
    <g id="xtick_5">
     <g id="line2d_5">
      <g>
       <use xlink:href="#m6d61ab584d" x="219.890354" y="307.872" style="stroke: #000000; stroke-width: 0.8"/>
      </g>
     </g>
     <g id="text_5">
      <!-- 8 -->
      <g transform="translate(216.709104 322.470438) scale(0.1 -0.1)">
       <defs>
        <path id="DejaVuSans-38" d="M 2034 2216 
Q 1584 2216 1326 1975 
Q 1069 1734 1069 1313 
Q 1069 891 1326 650 
Q 1584 409 2034 409 
Q 2484 409 2743 651 
Q 3003 894 3003 1313 
Q 3003 1734 2745 1975 
Q 2488 2216 2034 2216 
z
M 1403 2484 
Q 997 2584 770 2862 
Q 544 3141 544 3541 
Q 544 4100 942 4425 
Q 1341 4750 2034 4750 
Q 2731 4750 3128 4425 
Q 3525 4100 3525 3541 
Q 3525 3141 3298 2862 
Q 3072 2584 2669 2484 
Q 3125 2378 3379 2068 
Q 3634 1759 3634 1313 
Q 3634 634 3220 271 
Q 2806 -91 2034 -91 
Q 1263 -91 848 271 
Q 434 634 434 1313 
Q 434 1759 690 2068 
Q 947 2378 1403 2484 
z
M 1172 3481 
Q 1172 3119 1398 2916 
Q 1625 2713 2034 2713 
Q 2441 2713 2670 2916 
Q 2900 3119 2900 3481 
Q 2900 3844 2670 4047 
Q 2441 4250 2034 4250 
Q 1625 4250 1398 4047 
Q 1172 3844 1172 3481 
z
" transform="scale(0.015625)"/>
       </defs>
       <use xlink:href="#DejaVuSans-38"/>
      </g>
     </g>
    </g>
    <g id="xtick_6">
     <g id="line2d_6">
      <g>
       <use xlink:href="#m6d61ab584d" x="260.472172" y="307.872" style="stroke: #000000; stroke-width: 0.8"/>
      </g>
     </g>
     <g id="text_6">
      <!-- 8.5 -->
      <g transform="translate(252.52061 322.470438) scale(0.1 -0.1)">
       <use xlink:href="#DejaVuSans-38"/>
       <use xlink:href="#DejaVuSans-2e" x="63.623047"/>
       <use xlink:href="#DejaVuSans-35" x="95.410156"/>
      </g>
     </g>
    </g>
    <g id="xtick_7">
     <g id="line2d_7">
      <g>
       <use xlink:href="#m6d61ab584d" x="301.05399" y="307.872" style="stroke: #000000; stroke-width: 0.8"/>
      </g>
     </g>
     <g id="text_7">
      <!-- 9 -->
      <g transform="translate(297.87274 322.470438) scale(0.1 -0.1)">
       <defs>
        <path id="DejaVuSans-39" d="M 703 97 
L 703 672 
Q 941 559 1184 500 
Q 1428 441 1663 441 
Q 2288 441 2617 861 
Q 2947 1281 2994 2138 
Q 2813 1869 2534 1725 
Q 2256 1581 1919 1581 
Q 1219 1581 811 2004 
Q 403 2428 403 3163 
Q 403 3881 828 4315 
Q 1253 4750 1959 4750 
Q 2769 4750 3195 4129 
Q 3622 3509 3622 2328 
Q 3622 1225 3098 567 
Q 2575 -91 1691 -91 
Q 1453 -91 1209 -44 
Q 966 3 703 97 
z
M 1959 2075 
Q 2384 2075 2632 2365 
Q 2881 2656 2881 3163 
Q 2881 3666 2632 3958 
Q 2384 4250 1959 4250 
Q 1534 4250 1286 3958 
Q 1038 3666 1038 3163 
Q 1038 2656 1286 2365 
Q 1534 2075 1959 2075 
z
" transform="scale(0.015625)"/>
       </defs>
       <use xlink:href="#DejaVuSans-39"/>
      </g>
     </g>
    </g>
    <g id="xtick_8">
     <g id="line2d_8">
      <g>
       <use xlink:href="#m6d61ab584d" x="341.635809" y="307.872" style="stroke: #000000; stroke-width: 0.8"/>
      </g>
     </g>
     <g id="text_8">
      <!-- 9.5 -->
      <g transform="translate(333.684246 322.470438) scale(0.1 -0.1)">
       <use xlink:href="#DejaVuSans-39"/>
       <use xlink:href="#DejaVuSans-2e" x="63.623047"/>
       <use xlink:href="#DejaVuSans-35" x="95.410156"/>
      </g>
     </g>
    </g>
    <g id="xtick_9">
     <g id="line2d_9">
      <g>
       <use xlink:href="#m6d61ab584d" x="382.217627" y="307.872" style="stroke: #000000; stroke-width: 0.8"/>
      </g>
     </g>
     <g id="text_9">
      <!-- 10 -->
      <g transform="translate(375.855127 322.470438) scale(0.1 -0.1)">
       <defs>
        <path id="DejaVuSans-31" d="M 794 531 
L 1825 531 
L 1825 4091 
L 703 3866 
L 703 4441 
L 1819 4666 
L 2450 4666 
L 2450 531 
L 3481 531 
L 3481 0 
L 794 0 
L 794 531 
z
" transform="scale(0.015625)"/>
        <path id="DejaVuSans-30" d="M 2034 4250 
Q 1547 4250 1301 3770 
Q 1056 3291 1056 2328 
Q 1056 1369 1301 889 
Q 1547 409 2034 409 
Q 2525 409 2770 889 
Q 3016 1369 3016 2328 
Q 3016 3291 2770 3770 
Q 2525 4250 2034 4250 
z
M 2034 4750 
Q 2819 4750 3233 4129 
Q 3647 3509 3647 2328 
Q 3647 1150 3233 529 
Q 2819 -91 2034 -91 
Q 1250 -91 836 529 
Q 422 1150 422 2328 
Q 422 3509 836 4129 
Q 1250 4750 2034 4750 
z
" transform="scale(0.015625)"/>
       </defs>
       <use xlink:href="#DejaVuSans-31"/>
       <use xlink:href="#DejaVuSans-30" x="63.623047"/>
      </g>
     </g>
    </g>
    <g id="text_10">
     <!-- Frequency [MHz] -->
     <g transform="translate(187.114688 336.148562) scale(0.1 -0.1)">
      <defs>
       <path id="DejaVuSans-46" d="M 628 4666 
L 3309 4666 
L 3309 4134 
L 1259 4134 
L 1259 2759 
L 3109 2759 
L 3109 2228 
L 1259 2228 
L 1259 0 
L 628 0 
L 628 4666 
z
" transform="scale(0.015625)"/>
       <path id="DejaVuSans-72" d="M 2631 2963 
Q 2534 3019 2420 3045 
Q 2306 3072 2169 3072 
Q 1681 3072 1420 2755 
Q 1159 2438 1159 1844 
L 1159 0 
L 581 0 
L 581 3500 
L 1159 3500 
L 1159 2956 
Q 1341 3275 1631 3429 
Q 1922 3584 2338 3584 
Q 2397 3584 2469 3576 
Q 2541 3569 2628 3553 
L 2631 2963 
z
" transform="scale(0.015625)"/>
       <path id="DejaVuSans-65" d="M 3597 1894 
L 3597 1613 
L 953 1613 
Q 991 1019 1311 708 
Q 1631 397 2203 397 
Q 2534 397 2845 478 
Q 3156 559 3463 722 
L 3463 178 
Q 3153 47 2828 -22 
Q 2503 -91 2169 -91 
Q 1331 -91 842 396 
Q 353 884 353 1716 
Q 353 2575 817 3079 
Q 1281 3584 2069 3584 
Q 2775 3584 3186 3129 
Q 3597 2675 3597 1894 
z
M 3022 2063 
Q 3016 2534 2758 2815 
Q 2500 3097 2075 3097 
Q 1594 3097 1305 2825 
Q 1016 2553 972 2059 
L 3022 2063 
z
" transform="scale(0.015625)"/>
       <path id="DejaVuSans-71" d="M 947 1747 
Q 947 1113 1208 752 
Q 1469 391 1925 391 
Q 2381 391 2643 752 
Q 2906 1113 2906 1747 
Q 2906 2381 2643 2742 
Q 2381 3103 1925 3103 
Q 1469 3103 1208 2742 
Q 947 2381 947 1747 
z
M 2906 525 
Q 2725 213 2448 61 
Q 2172 -91 1784 -91 
Q 1150 -91 751 415 
Q 353 922 353 1747 
Q 353 2572 751 3078 
Q 1150 3584 1784 3584 
Q 2172 3584 2448 3432 
Q 2725 3281 2906 2969 
L 2906 3500 
L 3481 3500 
L 3481 -1331 
L 2906 -1331 
L 2906 525 
z
" transform="scale(0.015625)"/>
       <path id="DejaVuSans-75" d="M 544 1381 
L 544 3500 
L 1119 3500 
L 1119 1403 
Q 1119 906 1312 657 
Q 1506 409 1894 409 
Q 2359 409 2629 706 
Q 2900 1003 2900 1516 
L 2900 3500 
L 3475 3500 
L 3475 0 
L 2900 0 
L 2900 538 
Q 2691 219 2414 64 
Q 2138 -91 1772 -91 
Q 1169 -91 856 284 
Q 544 659 544 1381 
z
M 1991 3584 
L 1991 3584 
z
" transform="scale(0.015625)"/>
       <path id="DejaVuSans-6e" d="M 3513 2113 
L 3513 0 
L 2938 0 
L 2938 2094 
Q 2938 2591 2744 2837 
Q 2550 3084 2163 3084 
Q 1697 3084 1428 2787 
Q 1159 2491 1159 1978 
L 1159 0 
L 581 0 
L 581 3500 
L 1159 3500 
L 1159 2956 
Q 1366 3272 1645 3428 
Q 1925 3584 2291 3584 
Q 2894 3584 3203 3211 
Q 3513 2838 3513 2113 
z
" transform="scale(0.015625)"/>
       <path id="DejaVuSans-63" d="M 3122 3366 
L 3122 2828 
Q 2878 2963 2633 3030 
Q 2388 3097 2138 3097 
Q 1578 3097 1268 2742 
Q 959 2388 959 1747 
Q 959 1106 1268 751 
Q 1578 397 2138 397 
Q 2388 397 2633 464 
Q 2878 531 3122 666 
L 3122 134 
Q 2881 22 2623 -34 
Q 2366 -91 2075 -91 
Q 1284 -91 818 406 
Q 353 903 353 1747 
Q 353 2603 823 3093 
Q 1294 3584 2113 3584 
Q 2378 3584 2631 3529 
Q 2884 3475 3122 3366 
z
" transform="scale(0.015625)"/>
       <path id="DejaVuSans-79" d="M 2059 -325 
Q 1816 -950 1584 -1140 
Q 1353 -1331 966 -1331 
L 506 -1331 
L 506 -850 
L 844 -850 
Q 1081 -850 1212 -737 
Q 1344 -625 1503 -206 
L 1606 56 
L 191 3500 
L 800 3500 
L 1894 763 
L 2988 3500 
L 3597 3500 
L 2059 -325 
z
" transform="scale(0.015625)"/>
       <path id="DejaVuSans-20" transform="scale(0.015625)"/>
       <path id="DejaVuSans-5b" d="M 550 4863 
L 1875 4863 
L 1875 4416 
L 1125 4416 
L 1125 -397 
L 1875 -397 
L 1875 -844 
L 550 -844 
L 550 4863 
z
" transform="scale(0.015625)"/>
       <path id="DejaVuSans-4d" d="M 628 4666 
L 1569 4666 
L 2759 1491 
L 3956 4666 
L 4897 4666 
L 4897 0 
L 4281 0 
L 4281 4097 
L 3078 897 
L 2444 897 
L 1241 4097 
L 1241 0 
L 628 0 
L 628 4666 
z
" transform="scale(0.015625)"/>
       <path id="DejaVuSans-48" d="M 628 4666 
L 1259 4666 
L 1259 2753 
L 3553 2753 
L 3553 4666 
L 4184 4666 
L 4184 0 
L 3553 0 
L 3553 2222 
L 1259 2222 
L 1259 0 
L 628 0 
L 628 4666 
z
" transform="scale(0.015625)"/>
       <path id="DejaVuSans-7a" d="M 353 3500 
L 3084 3500 
L 3084 2975 
L 922 459 
L 3084 459 
L 3084 0 
L 275 0 
L 275 525 
L 2438 3041 
L 353 3041 
L 353 3500 
z
" transform="scale(0.015625)"/>
       <path id="DejaVuSans-5d" d="M 1947 4863 
L 1947 -844 
L 622 -844 
L 622 -397 
L 1369 -397 
L 1369 4416 
L 622 4416 
L 622 4863 
L 1947 4863 
z
" transform="scale(0.015625)"/>
      </defs>
      <use xlink:href="#DejaVuSans-46"/>
      <use xlink:href="#DejaVuSans-72" x="50.269531"/>
      <use xlink:href="#DejaVuSans-65" x="89.132812"/>
      <use xlink:href="#DejaVuSans-71" x="150.65625"/>
      <use xlink:href="#DejaVuSans-75" x="214.132812"/>
      <use xlink:href="#DejaVuSans-65" x="277.511719"/>
      <use xlink:href="#DejaVuSans-6e" x="339.035156"/>
      <use xlink:href="#DejaVuSans-63" x="402.414062"/>
      <use xlink:href="#DejaVuSans-79" x="457.394531"/>
      <use xlink:href="#DejaVuSans-20" x="516.574219"/>
      <use xlink:href="#DejaVuSans-5b" x="548.361328"/>
      <use xlink:href="#DejaVuSans-4d" x="587.375"/>
      <use xlink:href="#DejaVuSans-48" x="673.654297"/>
      <use xlink:href="#DejaVuSans-7a" x="748.849609"/>
      <use xlink:href="#DejaVuSans-5d" x="801.339844"/>
     </g>
    </g>
    <g id="text_11">
     <!-- +6 GHz -->
     <g transform="translate(369.255938 335.148562) scale(0.1 -0.1)">
      <defs>
       <path id="DejaVuSans-2b" d="M 2944 4013 
L 2944 2272 
L 4684 2272 
L 4684 1741 
L 2944 1741 
L 2944 0 
L 2419 0 
L 2419 1741 
L 678 1741 
L 678 2272 
L 2419 2272 
L 2419 4013 
L 2944 4013 
z
" transform="scale(0.015625)"/>
       <path id="DejaVuSans-47" d="M 3809 666 
L 3809 1919 
L 2778 1919 
L 2778 2438 
L 4434 2438 
L 4434 434 
Q 4069 175 3628 42 
Q 3188 -91 2688 -91 
Q 1594 -91 976 548 
Q 359 1188 359 2328 
Q 359 3472 976 4111 
Q 1594 4750 2688 4750 
Q 3144 4750 3555 4637 
Q 3966 4525 4313 4306 
L 4313 3634 
Q 3963 3931 3569 4081 
Q 3175 4231 2741 4231 
Q 1884 4231 1454 3753 
Q 1025 3275 1025 2328 
Q 1025 1384 1454 906 
Q 1884 428 2741 428 
Q 3075 428 3337 486 
Q 3600 544 3809 666 
z
" transform="scale(0.015625)"/>
      </defs>
      <use xlink:href="#DejaVuSans-2b"/>
      <use xlink:href="#DejaVuSans-36" x="83.789062"/>
      <use xlink:href="#DejaVuSans-20" x="147.412109"/>
      <use xlink:href="#DejaVuSans-47" x="179.199219"/>
      <use xlink:href="#DejaVuSans-48" x="256.689453"/>
      <use xlink:href="#DejaVuSans-7a" x="331.884766"/>
     </g>
    </g>
   </g>
   <g id="matplotlib.axis_2">
    <g id="ytick_1">
     <g id="line2d_10">
      <defs>
       <path id="mecb8c7d141" d="M 0 0 
L -3.5 0 
" style="stroke: #000000; stroke-width: 0.8"/>
      </defs>
      <g>
       <use xlink:href="#mecb8c7d141" x="50.573438" y="275.698038" style="stroke: #000000; stroke-width: 0.8"/>
      </g>
     </g>
     <g id="text_12">
      <!-- -150 -->
      <g transform="translate(20.878125 279.497257) scale(0.1 -0.1)">
       <defs>
        <path id="DejaVuSans-2d" d="M 313 2009 
L 1997 2009 
L 1997 1497 
L 313 1497 
L 313 2009 
z
" transform="scale(0.015625)"/>
       </defs>
       <use xlink:href="#DejaVuSans-2d"/>
       <use xlink:href="#DejaVuSans-31" x="36.083984"/>
       <use xlink:href="#DejaVuSans-35" x="99.707031"/>
       <use xlink:href="#DejaVuSans-30" x="163.330078"/>
      </g>
     </g>
    </g>
    <g id="ytick_2">
     <g id="line2d_11">
      <g>
       <use xlink:href="#mecb8c7d141" x="50.573438" y="242.084568" style="stroke: #000000; stroke-width: 0.8"/>
      </g>
     </g>
     <g id="text_13">
      <!-- -100 -->
      <g transform="translate(20.878125 245.883787) scale(0.1 -0.1)">
       <use xlink:href="#DejaVuSans-2d"/>
       <use xlink:href="#DejaVuSans-31" x="36.083984"/>
       <use xlink:href="#DejaVuSans-30" x="99.707031"/>
       <use xlink:href="#DejaVuSans-30" x="163.330078"/>
      </g>
     </g>
    </g>
    <g id="ytick_3">
     <g id="line2d_12">
      <g>
       <use xlink:href="#mecb8c7d141" x="50.573438" y="208.471098" style="stroke: #000000; stroke-width: 0.8"/>
      </g>
     </g>
     <g id="text_14">
      <!-- -50 -->
      <g transform="translate(27.240625 212.270317) scale(0.1 -0.1)">
       <use xlink:href="#DejaVuSans-2d"/>
       <use xlink:href="#DejaVuSans-35" x="36.083984"/>
       <use xlink:href="#DejaVuSans-30" x="99.707031"/>
      </g>
     </g>
    </g>
    <g id="ytick_4">
     <g id="line2d_13">
      <g>
       <use xlink:href="#mecb8c7d141" x="50.573438" y="174.857629" style="stroke: #000000; stroke-width: 0.8"/>
      </g>
     </g>
     <g id="text_15">
      <!-- 0 -->
      <g transform="translate(37.210938 178.656847) scale(0.1 -0.1)">
       <use xlink:href="#DejaVuSans-30"/>
      </g>
     </g>
    </g>
    <g id="ytick_5">
     <g id="line2d_14">
      <g>
       <use xlink:href="#mecb8c7d141" x="50.573438" y="141.244159" style="stroke: #000000; stroke-width: 0.8"/>
      </g>
     </g>
     <g id="text_16">
      <!-- 50 -->
      <g transform="translate(30.848438 145.043377) scale(0.1 -0.1)">
       <use xlink:href="#DejaVuSans-35"/>
       <use xlink:href="#DejaVuSans-30" x="63.623047"/>
      </g>
     </g>
    </g>
    <g id="ytick_6">
     <g id="line2d_15">
      <g>
       <use xlink:href="#mecb8c7d141" x="50.573438" y="107.630689" style="stroke: #000000; stroke-width: 0.8"/>
      </g>
     </g>
     <g id="text_17">
      <!-- 100 -->
      <g transform="translate(24.485938 111.429907) scale(0.1 -0.1)">
       <use xlink:href="#DejaVuSans-31"/>
       <use xlink:href="#DejaVuSans-30" x="63.623047"/>
       <use xlink:href="#DejaVuSans-30" x="127.246094"/>
      </g>
     </g>
    </g>
    <g id="ytick_7">
     <g id="line2d_16">
      <g>
       <use xlink:href="#mecb8c7d141" x="50.573438" y="74.017219" style="stroke: #000000; stroke-width: 0.8"/>
      </g>
     </g>
     <g id="text_18">
      <!-- 150 -->
      <g transform="translate(24.485938 77.816438) scale(0.1 -0.1)">
       <use xlink:href="#DejaVuSans-31"/>
       <use xlink:href="#DejaVuSans-35" x="63.623047"/>
       <use xlink:href="#DejaVuSans-30" x="127.246094"/>
      </g>
     </g>
    </g>
    <g id="text_19">
     <!-- Phase0 [deg] -->
     <g transform="translate(14.798438 207.841781) rotate(-90) scale(0.1 -0.1)">
      <defs>
       <path id="DejaVuSans-50" d="M 1259 4147 
L 1259 2394 
L 2053 2394 
Q 2494 2394 2734 2622 
Q 2975 2850 2975 3272 
Q 2975 3691 2734 3919 
Q 2494 4147 2053 4147 
L 1259 4147 
z
M 628 4666 
L 2053 4666 
Q 2838 4666 3239 4311 
Q 3641 3956 3641 3272 
Q 3641 2581 3239 2228 
Q 2838 1875 2053 1875 
L 1259 1875 
L 1259 0 
L 628 0 
L 628 4666 
z
" transform="scale(0.015625)"/>
       <path id="DejaVuSans-68" d="M 3513 2113 
L 3513 0 
L 2938 0 
L 2938 2094 
Q 2938 2591 2744 2837 
Q 2550 3084 2163 3084 
Q 1697 3084 1428 2787 
Q 1159 2491 1159 1978 
L 1159 0 
L 581 0 
L 581 4863 
L 1159 4863 
L 1159 2956 
Q 1366 3272 1645 3428 
Q 1925 3584 2291 3584 
Q 2894 3584 3203 3211 
Q 3513 2838 3513 2113 
z
" transform="scale(0.015625)"/>
       <path id="DejaVuSans-61" d="M 2194 1759 
Q 1497 1759 1228 1600 
Q 959 1441 959 1056 
Q 959 750 1161 570 
Q 1363 391 1709 391 
Q 2188 391 2477 730 
Q 2766 1069 2766 1631 
L 2766 1759 
L 2194 1759 
z
M 3341 1997 
L 3341 0 
L 2766 0 
L 2766 531 
Q 2569 213 2275 61 
Q 1981 -91 1556 -91 
Q 1019 -91 701 211 
Q 384 513 384 1019 
Q 384 1609 779 1909 
Q 1175 2209 1959 2209 
L 2766 2209 
L 2766 2266 
Q 2766 2663 2505 2880 
Q 2244 3097 1772 3097 
Q 1472 3097 1187 3025 
Q 903 2953 641 2809 
L 641 3341 
Q 956 3463 1253 3523 
Q 1550 3584 1831 3584 
Q 2591 3584 2966 3190 
Q 3341 2797 3341 1997 
z
" transform="scale(0.015625)"/>
       <path id="DejaVuSans-73" d="M 2834 3397 
L 2834 2853 
Q 2591 2978 2328 3040 
Q 2066 3103 1784 3103 
Q 1356 3103 1142 2972 
Q 928 2841 928 2578 
Q 928 2378 1081 2264 
Q 1234 2150 1697 2047 
L 1894 2003 
Q 2506 1872 2764 1633 
Q 3022 1394 3022 966 
Q 3022 478 2636 193 
Q 2250 -91 1575 -91 
Q 1294 -91 989 -36 
Q 684 19 347 128 
L 347 722 
Q 666 556 975 473 
Q 1284 391 1588 391 
Q 1994 391 2212 530 
Q 2431 669 2431 922 
Q 2431 1156 2273 1281 
Q 2116 1406 1581 1522 
L 1381 1569 
Q 847 1681 609 1914 
Q 372 2147 372 2553 
Q 372 3047 722 3315 
Q 1072 3584 1716 3584 
Q 2034 3584 2315 3537 
Q 2597 3491 2834 3397 
z
" transform="scale(0.015625)"/>
       <path id="DejaVuSans-64" d="M 2906 2969 
L 2906 4863 
L 3481 4863 
L 3481 0 
L 2906 0 
L 2906 525 
Q 2725 213 2448 61 
Q 2172 -91 1784 -91 
Q 1150 -91 751 415 
Q 353 922 353 1747 
Q 353 2572 751 3078 
Q 1150 3584 1784 3584 
Q 2172 3584 2448 3432 
Q 2725 3281 2906 2969 
z
M 947 1747 
Q 947 1113 1208 752 
Q 1469 391 1925 391 
Q 2381 391 2643 752 
Q 2906 1113 2906 1747 
Q 2906 2381 2643 2742 
Q 2381 3103 1925 3103 
Q 1469 3103 1208 2742 
Q 947 2381 947 1747 
z
" transform="scale(0.015625)"/>
       <path id="DejaVuSans-67" d="M 2906 1791 
Q 2906 2416 2648 2759 
Q 2391 3103 1925 3103 
Q 1463 3103 1205 2759 
Q 947 2416 947 1791 
Q 947 1169 1205 825 
Q 1463 481 1925 481 
Q 2391 481 2648 825 
Q 2906 1169 2906 1791 
z
M 3481 434 
Q 3481 -459 3084 -895 
Q 2688 -1331 1869 -1331 
Q 1566 -1331 1297 -1286 
Q 1028 -1241 775 -1147 
L 775 -588 
Q 1028 -725 1275 -790 
Q 1522 -856 1778 -856 
Q 2344 -856 2625 -561 
Q 2906 -266 2906 331 
L 2906 616 
Q 2728 306 2450 153 
Q 2172 0 1784 0 
Q 1141 0 747 490 
Q 353 981 353 1791 
Q 353 2603 747 3093 
Q 1141 3584 1784 3584 
Q 2172 3584 2450 3431 
Q 2728 3278 2906 2969 
L 2906 3500 
L 3481 3500 
L 3481 434 
z
" transform="scale(0.015625)"/>
      </defs>
      <use xlink:href="#DejaVuSans-50"/>
      <use xlink:href="#DejaVuSans-68" x="60.302734"/>
      <use xlink:href="#DejaVuSans-61" x="123.681641"/>
      <use xlink:href="#DejaVuSans-73" x="184.960938"/>
      <use xlink:href="#DejaVuSans-65" x="237.060547"/>
      <use xlink:href="#DejaVuSans-30" x="298.583984"/>
      <use xlink:href="#DejaVuSans-20" x="362.207031"/>
      <use xlink:href="#DejaVuSans-5b" x="393.994141"/>
      <use xlink:href="#DejaVuSans-64" x="433.007812"/>
      <use xlink:href="#DejaVuSans-65" x="496.484375"/>
      <use xlink:href="#DejaVuSans-67" x="558.007812"/>
      <use xlink:href="#DejaVuSans-5d" x="621.484375"/>
     </g>
    </g>
   </g>
   <g id="line2d_17">
    <path d="M 66.806165 278.552607 
L 78.001149 280.732453 
L 89.196133 282.683477 
L 100.391118 280.77923 
L 111.586102 285.474043 
L 122.781086 287.704792 
L 133.976071 288.181074 
L 145.171055 289.758143 
L 156.366039 291.023664 
L 167.561024 294.378684 
L 178.756008 57.574021 
L 189.950992 63.389726 
L 201.145977 65.053146 
L 212.340961 63.613654 
L 223.535945 293.077564 
L 234.73093 295.396674 
L 245.925914 274.160446 
L 257.120898 249.642392 
L 268.315883 232.917294 
L 279.510867 243.217132 
L 290.705851 248.651174 
L 301.900836 238.128873 
L 313.09582 242.989816 
L 324.290804 243.801978 
L 335.485789 253.8175 
L 346.680773 250.32864 
L 357.875757 253.139196 
L 369.070742 253.093523 
L 380.265726 255.203425 
L 391.46071 250.520994 
" clip-path="url(#pcb0d58c55d)" style="fill: none; stroke: #440154; stroke-width: 1.5; stroke-linecap: square"/>
   </g>
   <g id="line2d_18">
    <path d="M 66.806165 277.601954 
L 78.001149 279.395988 
L 89.196133 280.2105 
L 100.391118 283.309297 
L 111.586102 284.311263 
L 122.781086 286.493855 
L 133.976071 288.364481 
L 145.171055 291.433863 
L 156.366039 293.884209 
L 167.561024 295.579277 
L 178.756008 55.956114 
L 189.950992 58.882028 
L 201.145977 61.273122 
L 212.340961 61.160711 
L 223.535945 55.760008 
L 234.73093 292.899953 
L 245.925914 272.809676 
L 257.120898 247.80097 
L 268.315883 239.328385 
L 279.510867 237.472505 
L 290.705851 239.96325 
L 301.900836 243.082006 
L 313.09582 246.452261 
L 324.290804 247.713115 
L 335.485789 247.723673 
L 346.680773 249.509479 
L 357.875757 251.289827 
L 369.070742 253.530563 
L 380.265726 254.963236 
L 391.46071 255.712133 
" clip-path="url(#pcb0d58c55d)" style="fill: none; stroke: #470d60; stroke-width: 1.5; stroke-linecap: square"/>
   </g>
   <g id="line2d_19">
    <path d="M 66.806165 277.941195 
L 78.001149 278.96022 
L 89.196133 280.893206 
L 100.391118 282.574882 
L 111.586102 284.519035 
L 122.781086 286.221854 
L 133.976071 288.320816 
L 145.171055 291.241294 
L 156.366039 293.331995 
L 167.561024 295.265696 
L 178.756008 56.652259 
L 189.950992 59.005641 
L 201.145977 60.274647 
L 212.340961 61.892981 
L 223.535945 59.786203 
L 234.73093 286.355133 
L 245.925914 262.445491 
L 257.120898 245.542097 
L 268.315883 241.623281 
L 279.510867 239.842581 
L 290.705851 240.499901 
L 301.900836 241.751586 
L 313.09582 244.47438 
L 324.290804 246.83308 
L 335.485789 248.22874 
L 346.680773 250.476848 
L 357.875757 251.700444 
L 369.070742 253.177951 
L 380.265726 255.059044 
L 391.46071 256.128179 
" clip-path="url(#pcb0d58c55d)" style="fill: none; stroke: #481a6c; stroke-width: 1.5; stroke-linecap: square"/>
   </g>
   <g id="line2d_20">
    <path d="M 66.806165 277.65637 
L 78.001149 279.401392 
L 89.196133 281.019488 
L 100.391118 282.51644 
L 111.586102 284.155416 
L 122.781086 285.953579 
L 133.976071 288.686598 
L 145.171055 291.019068 
L 156.366039 293.170429 
L 167.561024 295.579321 
L 178.756008 57.290329 
L 189.950992 59.327901 
L 201.145977 61.685978 
L 212.340961 61.811279 
L 223.535945 59.350198 
L 234.73093 289.844028 
L 245.925914 262.508005 
L 257.120898 244.563122 
L 268.315883 241.416631 
L 279.510867 241.30209 
L 290.705851 241.421529 
L 301.900836 242.370942 
L 313.09582 244.522132 
L 324.290804 246.314244 
L 335.485789 248.662377 
L 346.680773 250.135657 
L 357.875757 251.048719 
L 369.070742 252.753103 
L 380.265726 254.598761 
L 391.46071 255.966054 
" clip-path="url(#pcb0d58c55d)" style="fill: none; stroke: #482576; stroke-width: 1.5; stroke-linecap: square"/>
   </g>
   <g id="line2d_21">
    <path d="M 66.806165 277.999116 
L 78.001149 279.27849 
L 89.196133 280.556251 
L 100.391118 282.586078 
L 111.586102 284.199544 
L 122.781086 286.570151 
L 133.976071 288.324536 
L 145.171055 291.116431 
L 156.366039 293.338441 
L 167.561024 54.130129 
L 178.756008 56.61649 
L 189.950992 59.193325 
L 201.145977 61.896116 
L 212.340961 62.06532 
L 223.535945 59.093099 
L 234.73093 286.573787 
L 245.925914 259.793314 
L 257.120898 244.648739 
L 268.315883 239.281332 
L 279.510867 239.919166 
L 290.705851 240.268148 
L 301.900836 242.692703 
L 313.09582 244.74093 
L 324.290804 246.870474 
L 335.485789 248.166741 
L 346.680773 249.779263 
L 357.875757 251.425056 
L 369.070742 253.106781 
L 380.265726 254.507091 
L 391.46071 255.548969 
" clip-path="url(#pcb0d58c55d)" style="fill: none; stroke: #46307e; stroke-width: 1.5; stroke-linecap: square"/>
   </g>
   <g id="line2d_22">
    <path d="M 66.806165 277.859601 
L 78.001149 279.524402 
L 89.196133 281.023576 
L 100.391118 282.243369 
L 111.586102 284.437221 
L 122.781086 286.402552 
L 133.976071 288.572778 
L 145.171055 290.927416 
L 156.366039 293.538632 
L 167.561024 54.254 
L 178.756008 57.055424 
L 189.950992 59.416634 
L 201.145977 61.761057 
L 212.340961 63.012657 
L 223.535945 58.701474 
L 234.73093 285.768807 
L 245.925914 257.810282 
L 257.120898 242.965657 
L 268.315883 239.696019 
L 279.510867 239.669844 
L 290.705851 240.85954 
L 301.900836 242.317359 
L 313.09582 244.23237 
L 324.290804 246.563277 
L 335.485789 248.124347 
L 346.680773 249.904089 
L 357.875757 251.689603 
L 369.070742 252.845434 
L 380.265726 254.27692 
L 391.46071 255.889374 
" clip-path="url(#pcb0d58c55d)" style="fill: none; stroke: #443b84; stroke-width: 1.5; stroke-linecap: square"/>
   </g>
   <g id="line2d_23">
    <path d="M 66.806165 277.702226 
L 78.001149 279.355404 
L 89.196133 280.802082 
L 100.391118 282.47525 
L 111.586102 284.618466 
L 122.781086 286.656738 
L 133.976071 288.470702 
L 145.171055 290.942695 
L 156.366039 293.812832 
L 167.561024 54.442332 
L 178.756008 57.496775 
L 189.950992 59.81908 
L 201.145977 61.568282 
L 212.340961 60.88459 
L 223.535945 57.068103 
L 234.73093 281.784828 
L 245.925914 255.011203 
L 257.120898 242.728979 
L 268.315883 239.095121 
L 279.510867 239.107492 
L 290.705851 241.133291 
L 301.900836 242.777671 
L 313.09582 244.21954 
L 324.290804 246.573171 
L 335.485789 248.431539 
L 346.680773 249.8639 
L 357.875757 251.538176 
L 369.070742 253.109258 
L 380.265726 254.598442 
L 391.46071 255.954652 
" clip-path="url(#pcb0d58c55d)" style="fill: none; stroke: #404588; stroke-width: 1.5; stroke-linecap: square"/>
   </g>
   <g id="line2d_24">
    <path d="M 66.806165 277.970037 
L 78.001149 279.377831 
L 89.196133 281.091713 
L 100.391118 282.39478 
L 111.586102 284.598887 
L 122.781086 286.277229 
L 133.976071 288.662003 
L 145.171055 291.095393 
L 156.366039 293.383978 
L 167.561024 54.727762 
L 178.756008 56.819265 
L 189.950992 59.150289 
L 201.145977 61.654105 
L 212.340961 60.710022 
L 223.535945 55.474522 
L 234.73093 281.021374 
L 245.925914 254.967951 
L 257.120898 241.848343 
L 268.315883 239.853881 
L 279.510867 239.392812 
L 290.705851 240.926158 
L 301.900836 242.682792 
L 313.09582 244.597126 
L 324.290804 246.664807 
L 335.485789 248.236844 
L 346.680773 250.185004 
L 357.875757 251.649469 
L 369.070742 253.322871 
L 380.265726 254.324167 
L 391.46071 255.770538 
" clip-path="url(#pcb0d58c55d)" style="fill: none; stroke: #3c4f8a; stroke-width: 1.5; stroke-linecap: square"/>
   </g>
   <g id="line2d_25">
    <path d="M 66.806165 278.054846 
L 78.001149 279.378004 
L 89.196133 280.960897 
L 100.391118 282.663354 
L 111.586102 284.546582 
L 122.781086 286.616495 
L 133.976071 288.738856 
L 145.171055 291.10329 
L 156.366039 293.587993 
L 167.561024 54.412534 
L 178.756008 57.444173 
L 189.950992 59.6581 
L 201.145977 61.476518 
L 212.340961 60.513795 
L 223.535945 292.789429 
L 234.73093 273.872965 
L 245.925914 251.162322 
L 257.120898 242.640405 
L 268.315883 240.049831 
L 279.510867 239.489523 
L 290.705851 240.711044 
L 301.900836 242.644837 
L 313.09582 244.500121 
L 324.290804 246.558645 
L 335.485789 248.096714 
L 346.680773 250.205311 
L 357.875757 251.624027 
L 369.070742 253.083212 
L 380.265726 254.582188 
L 391.46071 255.787095 
" clip-path="url(#pcb0d58c55d)" style="fill: none; stroke: #38598c; stroke-width: 1.5; stroke-linecap: square"/>
   </g>
   <g id="line2d_26">
    <path d="M 66.806165 278.001626 
L 78.001149 279.504631 
L 89.196133 281.028567 
L 100.391118 282.582975 
L 111.586102 284.557863 
L 122.781086 286.707784 
L 133.976071 288.713999 
L 145.171055 291.404062 
L 156.366039 293.844778 
L 167.561024 54.504251 
L 178.756008 57.380458 
L 189.950992 59.329594 
L 201.145977 60.605193 
L 212.340961 58.501964 
L 223.535945 294.173651 
L 234.73093 274.311136 
L 245.925914 251.54186 
L 257.120898 241.642664 
L 268.315883 239.661449 
L 279.510867 239.973937 
L 290.705851 241.228059 
L 301.900836 243.030498 
L 313.09582 244.539545 
L 324.290804 246.796726 
L 335.485789 248.447612 
L 346.680773 250.159345 
L 357.875757 251.615679 
L 369.070742 253.044775 
L 380.265726 254.53177 
L 391.46071 255.943063 
" clip-path="url(#pcb0d58c55d)" style="fill: none; stroke: #33628d; stroke-width: 1.5; stroke-linecap: square"/>
   </g>
   <g id="line2d_27">
    <path d="M 66.806165 278.011182 
L 78.001149 279.489995 
L 89.196133 280.986743 
L 100.391118 282.901668 
L 111.586102 284.715494 
L 122.781086 286.648907 
L 133.976071 288.750102 
L 145.171055 291.298041 
L 156.366039 294.06268 
L 167.561024 54.525269 
L 178.756008 57.319677 
L 189.950992 59.185135 
L 201.145977 59.253143 
L 212.340961 54.1481 
L 223.535945 282.094792 
L 234.73093 261.375882 
L 245.925914 248.465281 
L 257.120898 241.985225 
L 268.315883 240.30335 
L 279.510867 240.776088 
L 290.705851 242.093079 
L 301.900836 243.806417 
L 313.09582 245.488967 
L 324.290804 246.978376 
L 335.485789 248.488886 
L 346.680773 250.087651 
L 357.875757 251.70524 
L 369.070742 253.090132 
L 380.265726 254.587129 
L 391.46071 255.847882 
" clip-path="url(#pcb0d58c55d)" style="fill: none; stroke: #2f6b8e; stroke-width: 1.5; stroke-linecap: square"/>
   </g>
   <g id="line2d_28">
    <path d="M 66.806165 278.165561 
L 78.001149 279.549454 
L 89.196133 281.199737 
L 100.391118 282.839242 
L 111.586102 284.814571 
L 122.781086 286.876077 
L 133.976071 288.902222 
L 145.171055 291.196227 
L 156.366039 294.070557 
L 167.561024 54.713676 
L 178.756008 56.494842 
L 189.950992 56.823412 
L 201.145977 54.162641 
L 212.340961 290.567269 
L 223.535945 275.876112 
L 234.73093 257.850277 
L 245.925914 246.316314 
L 257.120898 241.716383 
L 268.315883 241.466762 
L 279.510867 241.035455 
L 290.705851 241.699661 
L 301.900836 243.703534 
L 313.09582 245.438058 
L 324.290804 246.90362 
L 335.485789 248.522308 
L 346.680773 250.199985 
L 357.875757 251.77182 
L 369.070742 253.262824 
L 380.265726 254.590729 
L 391.46071 255.830932 
" clip-path="url(#pcb0d58c55d)" style="fill: none; stroke: #2c738e; stroke-width: 1.5; stroke-linecap: square"/>
   </g>
   <g id="line2d_29">
    <path d="M 66.806165 278.231341 
L 78.001149 279.723952 
L 89.196133 281.252864 
L 100.391118 282.953281 
L 111.586102 284.863533 
L 122.781086 287.000413 
L 133.976071 289.233876 
L 145.171055 291.551259 
L 156.366039 294.122152 
L 167.561024 54.117859 
L 178.756008 56.064393 
L 189.950992 55.379168 
L 201.145977 294.718656 
L 212.340961 288.822678 
L 223.535945 271.828119 
L 234.73093 254.807678 
L 245.925914 245.247502 
L 257.120898 242.349188 
L 268.315883 241.845344 
L 279.510867 241.881487 
L 290.705851 242.278345 
L 301.900836 243.767487 
L 313.09582 245.795276 
L 324.290804 247.542591 
L 335.485789 248.854887 
L 346.680773 250.378724 
L 357.875757 251.902139 
L 369.070742 253.343935 
L 380.265726 254.619122 
L 391.46071 255.925832 
" clip-path="url(#pcb0d58c55d)" style="fill: none; stroke: #297b8e; stroke-width: 1.5; stroke-linecap: square"/>
   </g>
   <g id="line2d_30">
    <path d="M 66.806165 278.139013 
L 78.001149 279.718777 
L 89.196133 281.34842 
L 100.391118 282.868271 
L 111.586102 284.848893 
L 122.781086 287.340462 
L 133.976071 289.426585 
L 145.171055 291.904139 
L 156.366039 293.995057 
L 167.561024 53.989315 
L 178.756008 55.234895 
L 189.950992 55.348417 
L 201.145977 293.078609 
L 212.340961 285.778301 
L 223.535945 268.145509 
L 234.73093 253.226977 
L 245.925914 245.09212 
L 257.120898 242.309661 
L 268.315883 241.409528 
L 279.510867 242.148233 
L 290.705851 243.461433 
L 301.900836 244.982829 
L 313.09582 245.748612 
L 324.290804 247.509561 
L 335.485789 249.360253 
L 346.680773 250.928742 
L 357.875757 252.048376 
L 369.070742 253.515004 
L 380.265726 254.723073 
L 391.46071 255.881054 
" clip-path="url(#pcb0d58c55d)" style="fill: none; stroke: #25838e; stroke-width: 1.5; stroke-linecap: square"/>
   </g>
   <g id="line2d_31">
    <path d="M 66.806165 278.414749 
L 78.001149 279.869643 
L 89.196133 281.676529 
L 100.391118 283.275321 
L 111.586102 285.194574 
L 122.781086 287.528866 
L 133.976071 289.660646 
L 145.171055 292.09505 
L 156.366039 294.385722 
L 167.561024 53.856 
L 178.756008 54.496001 
L 189.950992 295.591489 
L 201.145977 283.754106 
L 212.340961 268.22486 
L 223.535945 254.361417 
L 234.73093 246.73851 
L 245.925914 243.812374 
L 257.120898 242.883118 
L 268.315883 242.983873 
L 279.510867 242.842417 
L 290.705851 244.026442 
L 301.900836 245.581909 
L 313.09582 246.924946 
L 324.290804 248.119863 
L 335.485789 249.385198 
L 346.680773 250.966426 
L 357.875757 252.186901 
L 369.070742 253.648953 
L 380.265726 254.840065 
L 391.46071 255.994957 
" clip-path="url(#pcb0d58c55d)" style="fill: none; stroke: #228c8d; stroke-width: 1.5; stroke-linecap: square"/>
   </g>
   <g id="line2d_32">
    <path d="M 66.806165 278.456291 
L 78.001149 280.079094 
L 89.196133 281.581288 
L 100.391118 283.478764 
L 111.586102 285.605106 
L 122.781086 287.805747 
L 133.976071 290.103735 
L 145.171055 292.554794 
L 156.366039 294.661291 
L 167.561024 295.713 
L 178.756008 294.790463 
L 189.950992 286.698816 
L 201.145977 269.993401 
L 212.340961 256.165898 
L 223.535945 246.805174 
L 234.73093 244.442496 
L 245.925914 243.654233 
L 257.120898 243.152894 
L 268.315883 243.350431 
L 279.510867 244.343769 
L 290.705851 244.842399 
L 301.900836 245.657687 
L 313.09582 247.174139 
L 324.290804 248.436401 
L 335.485789 249.599252 
L 346.680773 250.955157 
L 357.875757 252.346777 
L 369.070742 253.798781 
L 380.265726 254.997154 
L 391.46071 256.147336 
" clip-path="url(#pcb0d58c55d)" style="fill: none; stroke: #1f948c; stroke-width: 1.5; stroke-linecap: square"/>
   </g>
   <g id="line2d_33">
    <path d="M 66.806165 278.682208 
L 78.001149 280.25725 
L 89.196133 281.891599 
L 100.391118 283.72941 
L 111.586102 285.701791 
L 122.781086 288.134812 
L 133.976071 290.730867 
L 145.171055 292.904273 
L 156.366039 294.530269 
L 167.561024 294.912768 
L 178.756008 290.628421 
L 189.950992 276.169148 
L 201.145977 261.765371 
L 212.340961 250.515969 
L 223.535945 245.684038 
L 234.73093 243.91984 
L 245.925914 243.629375 
L 257.120898 243.624251 
L 268.315883 244.417904 
L 279.510867 244.684376 
L 290.705851 245.358866 
L 301.900836 246.457737 
L 313.09582 247.39861 
L 324.290804 248.969654 
L 335.485789 250.034123 
L 346.680773 251.072306 
L 357.875757 252.363082 
L 369.070742 253.7694 
L 380.265726 254.900994 
L 391.46071 256.241668 
" clip-path="url(#pcb0d58c55d)" style="fill: none; stroke: #1e9d89; stroke-width: 1.5; stroke-linecap: square"/>
   </g>
   <g id="line2d_34">
    <path d="M 66.806165 278.668436 
L 78.001149 280.426777 
L 89.196133 282.356299 
L 100.391118 284.27635 
L 111.586102 286.551175 
L 122.781086 288.982025 
L 133.976071 291.68213 
L 145.171055 293.387081 
L 156.366039 294.868203 
L 167.561024 292.139678 
L 178.756008 281.592482 
L 189.950992 268.797441 
L 201.145977 248.343336 
L 212.340961 243.655512 
L 223.535945 242.590249 
L 234.73093 243.240505 
L 245.925914 243.084084 
L 257.120898 244.19664 
L 268.315883 244.939699 
L 279.510867 245.73805 
L 290.705851 246.147193 
L 301.900836 247.189523 
L 313.09582 247.873286 
L 324.290804 249.216123 
L 335.485789 250.445598 
L 346.680773 251.862028 
L 357.875757 252.854004 
L 369.070742 254.059296 
L 380.265726 255.262328 
L 391.46071 256.324567 
" clip-path="url(#pcb0d58c55d)" style="fill: none; stroke: #21a585; stroke-width: 1.5; stroke-linecap: square"/>
   </g>
   <g id="line2d_35">
    <path d="M 66.806165 279.177096 
L 78.001149 280.936939 
L 89.196133 282.487479 
L 100.391118 284.424182 
L 111.586102 287.03138 
L 122.781086 289.38869 
L 133.976071 291.801867 
L 145.171055 294.003795 
L 156.366039 294.458977 
L 167.561024 290.99576 
L 178.756008 275.778948 
L 189.950992 249.856597 
L 201.145977 242.636912 
L 212.340961 241.353712 
L 223.535945 241.433687 
L 234.73093 242.239204 
L 245.925914 243.456109 
L 257.120898 244.235582 
L 268.315883 245.315456 
L 279.510867 246.317191 
L 290.705851 247.285183 
L 301.900836 247.95516 
L 313.09582 248.880013 
L 324.290804 249.85795 
L 335.485789 250.991081 
L 346.680773 252.107119 
L 357.875757 253.028571 
L 369.070742 254.075814 
L 380.265726 255.429011 
L 391.46071 256.54941 
" clip-path="url(#pcb0d58c55d)" style="fill: none; stroke: #26ad81; stroke-width: 1.5; stroke-linecap: square"/>
   </g>
   <g id="line2d_36">
    <path d="M 66.806165 279.35682 
L 78.001149 281.059076 
L 89.196133 283.17867 
L 100.391118 285.079904 
L 111.586102 287.832028 
L 122.781086 290.221572 
L 133.976071 292.892799 
L 145.171055 295.119756 
L 156.366039 293.886822 
L 167.561024 287.177721 
L 178.756008 259.131001 
L 189.950992 245.78264 
L 201.145977 240.641739 
L 212.340961 240.385071 
L 223.535945 240.991051 
L 234.73093 241.830749 
L 245.925914 243.575594 
L 257.120898 244.690839 
L 268.315883 245.710842 
L 279.510867 246.89913 
L 290.705851 247.548708 
L 301.900836 248.461733 
L 313.09582 248.880162 
L 324.290804 250.124279 
L 335.485789 251.250405 
L 346.680773 252.396322 
L 357.875757 253.676873 
L 369.070742 254.360717 
L 380.265726 255.665343 
L 391.46071 256.730148 
" clip-path="url(#pcb0d58c55d)" style="fill: none; stroke: #31b57b; stroke-width: 1.5; stroke-linecap: square"/>
   </g>
   <g id="line2d_37">
    <path d="M 66.806165 279.345478 
L 78.001149 281.126887 
L 89.196133 283.29517 
L 100.391118 285.852528 
L 111.586102 288.325143 
L 122.781086 291.377798 
L 133.976071 294.133693 
L 145.171055 54.373918 
L 156.366039 295.281294 
L 167.561024 279.645066 
L 178.756008 254.276367 
L 189.950992 243.371306 
L 201.145977 239.535841 
L 212.340961 239.510067 
L 223.535945 240.592094 
L 234.73093 241.713224 
L 245.925914 243.251638 
L 257.120898 244.908366 
L 268.315883 245.990731 
L 279.510867 246.922613 
L 290.705851 247.988604 
L 301.900836 249.134755 
L 313.09582 249.780821 
L 324.290804 250.649733 
L 335.485789 251.5626 
L 346.680773 252.711181 
L 357.875757 253.744505 
L 369.070742 254.814278 
L 380.265726 255.675473 
L 391.46071 256.807984 
" clip-path="url(#pcb0d58c55d)" style="fill: none; stroke: #3fbc73; stroke-width: 1.5; stroke-linecap: square"/>
   </g>
   <g id="line2d_38">
    <path d="M 66.806165 279.798805 
L 78.001149 281.687165 
L 89.196133 283.865922 
L 100.391118 286.221136 
L 111.586102 289.274631 
L 122.781086 292.170126 
L 133.976071 295.75771 
L 145.171055 55.022088 
L 156.366039 294.629946 
L 167.561024 275.531455 
L 178.756008 251.769162 
L 189.950992 242.330335 
L 201.145977 239.382594 
L 212.340961 239.168558 
L 223.535945 240.52884 
L 234.73093 241.535603 
L 245.925914 243.3544 
L 257.120898 244.809867 
L 268.315883 246.049551 
L 279.510867 247.3338 
L 290.705851 248.201264 
L 301.900836 249.536512 
L 313.09582 250.630752 
L 324.290804 251.360689 
L 335.485789 251.977756 
L 346.680773 253.003857 
L 357.875757 253.884902 
L 369.070742 255.026356 
L 380.265726 255.991557 
L 391.46071 256.818645 
" clip-path="url(#pcb0d58c55d)" style="fill: none; stroke: #50c46a; stroke-width: 1.5; stroke-linecap: square"/>
   </g>
   <g id="line2d_39">
    <path d="M 66.806165 280.041179 
L 78.001149 282.17826 
L 89.196133 284.528139 
L 100.391118 287.098903 
L 111.586102 290.012436 
L 122.781086 294.222266 
L 133.976071 54.756823 
L 145.171055 56.928558 
L 156.366039 294.798841 
L 167.561024 276.204372 
L 178.756008 252.316761 
L 189.950992 241.470091 
L 201.145977 238.94992 
L 212.340961 239.205705 
L 223.535945 240.130084 
L 234.73093 241.623162 
L 245.925914 243.335199 
L 257.120898 244.79888 
L 268.315883 246.15203 
L 279.510867 247.501369 
L 290.705851 248.733914 
L 301.900836 249.755621 
L 313.09582 251.138915 
L 324.290804 252.052378 
L 335.485789 252.777102 
L 346.680773 253.60554 
L 357.875757 254.459565 
L 369.070742 255.358177 
L 380.265726 256.407572 
L 391.46071 257.064649 
" clip-path="url(#pcb0d58c55d)" style="fill: none; stroke: #63cb5f; stroke-width: 1.5; stroke-linecap: square"/>
   </g>
   <g id="line2d_40">
    <path d="M 66.806165 280.612805 
L 78.001149 282.712796 
L 89.196133 285.201467 
L 100.391118 288.06119 
L 111.586102 291.993071 
L 122.781086 294.89524 
L 133.976071 56.748509 
L 145.171055 58.239244 
L 156.366039 294.246158 
L 167.561024 274.708127 
L 178.756008 250.469847 
L 189.950992 240.768574 
L 201.145977 238.50676 
L 212.340961 238.596534 
L 223.535945 239.872397 
L 234.73093 241.436549 
L 245.925914 243.278218 
L 257.120898 245.082139 
L 268.315883 246.46416 
L 279.510867 247.862423 
L 290.705851 249.169457 
L 301.900836 249.958636 
L 313.09582 251.234841 
L 324.290804 252.0879 
L 335.485789 253.111332 
L 346.680773 253.796198 
L 357.875757 254.684449 
L 369.070742 255.651302 
L 380.265726 256.525879 
L 391.46071 257.372481 
" clip-path="url(#pcb0d58c55d)" style="fill: none; stroke: #77d153; stroke-width: 1.5; stroke-linecap: square"/>
   </g>
   <g id="line2d_41">
    <path d="M 66.806165 281.410148 
L 78.001149 283.57947 
L 89.196133 286.105023 
L 100.391118 289.204165 
L 111.586102 292.781568 
L 122.781086 54.633285 
L 133.976071 58.809321 
L 145.171055 58.689867 
L 156.366039 294.15234 
L 167.561024 274.320815 
L 178.756008 249.812781 
L 189.950992 240.201551 
L 201.145977 238.392535 
L 212.340961 238.582033 
L 223.535945 239.894484 
L 234.73093 241.538872 
L 245.925914 243.273371 
L 257.120898 245.039987 
L 268.315883 246.378227 
L 279.510867 247.858743 
L 290.705851 249.339123 
L 301.900836 250.397363 
L 313.09582 251.406045 
L 324.290804 252.332566 
L 335.485789 253.463429 
L 346.680773 253.939867 
L 357.875757 254.989928 
L 369.070742 255.754916 
L 380.265726 256.812919 
L 391.46071 257.614783 
" clip-path="url(#pcb0d58c55d)" style="fill: none; stroke: #8bd646; stroke-width: 1.5; stroke-linecap: square"/>
   </g>
   <g id="line2d_42">
    <path d="M 66.806165 281.862549 
L 78.001149 284.414064 
L 89.196133 287.355702 
L 100.391118 291.009612 
L 111.586102 294.081062 
L 122.781086 57.598924 
L 133.976071 59.586841 
L 145.171055 59.290999 
L 156.366039 294.74015 
L 167.561024 273.399196 
L 178.756008 248.293963 
L 189.950992 240.013704 
L 201.145977 238.003855 
L 212.340961 238.426516 
L 223.535945 239.842993 
L 234.73093 241.429051 
L 245.925914 243.262184 
L 257.120898 245.002714 
L 268.315883 246.720567 
L 279.510867 248.176946 
L 290.705851 249.530575 
L 301.900836 250.624959 
L 313.09582 251.792766 
L 324.290804 252.717937 
L 335.485789 254.016903 
L 346.680773 254.609821 
L 357.875757 255.413994 
L 369.070742 256.291255 
L 380.265726 256.890584 
L 391.46071 257.903493 
" clip-path="url(#pcb0d58c55d)" style="fill: none; stroke: #a2da37; stroke-width: 1.5; stroke-linecap: square"/>
   </g>
   <g id="line2d_43">
    <path d="M 66.806165 282.3284 
L 78.001149 284.914712 
L 89.196133 288.064056 
L 100.391118 291.237381 
L 111.586102 54.350921 
L 122.781086 57.845707 
L 133.976071 59.975169 
L 145.171055 59.470098 
L 156.366039 294.539421 
L 167.561024 274.321244 
L 178.756008 248.657982 
L 189.950992 239.214916 
L 201.145977 237.820403 
L 212.340961 238.390543 
L 223.535945 239.846676 
L 234.73093 241.502488 
L 245.925914 243.332733 
L 257.120898 244.96445 
L 268.315883 246.669344 
L 279.510867 248.398038 
L 290.705851 249.321496 
L 301.900836 250.808706 
L 313.09582 251.809669 
L 324.290804 252.945976 
L 335.485789 253.948122 
L 346.680773 254.762357 
L 357.875757 255.951365 
L 369.070742 256.787554 
L 380.265726 257.23744 
L 391.46071 258.004442 
" clip-path="url(#pcb0d58c55d)" style="fill: none; stroke: #bade28; stroke-width: 1.5; stroke-linecap: square"/>
   </g>
   <g id="line2d_44">
    <path d="M 66.806165 282.929384 
L 78.001149 285.68002 
L 89.196133 288.45752 
L 100.391118 293.049081 
L 111.586102 55.78551 
L 122.781086 58.353516 
L 133.976071 59.990769 
L 145.171055 59.92794 
L 156.366039 295.776 
L 167.561024 273.761041 
L 178.756008 247.837262 
L 189.950992 239.038922 
L 201.145977 237.804825 
L 212.340961 238.38251 
L 223.535945 239.970639 
L 234.73093 241.626026 
L 245.925914 243.257216 
L 257.120898 244.978123 
L 268.315883 246.685586 
L 279.510867 248.25866 
L 290.705851 249.614132 
L 301.900836 251.039519 
L 313.09582 252.220551 
L 324.290804 253.113563 
L 335.485789 254.230642 
L 346.680773 255.293793 
L 357.875757 256.060302 
L 369.070742 256.882284 
L 380.265726 257.686669 
L 391.46071 258.390676 
" clip-path="url(#pcb0d58c55d)" style="fill: none; stroke: #d2e21b; stroke-width: 1.5; stroke-linecap: square"/>
   </g>
   <g id="line2d_45">
    <path d="M 66.806165 283.884822 
L 78.001149 286.486709 
L 89.196133 290.228879 
L 100.391118 295.238989 
L 111.586102 56.009978 
L 122.781086 58.458193 
L 133.976071 60.298958 
L 145.171055 60.353298 
L 156.366039 54.267432 
L 167.561024 274.647442 
L 178.756008 247.533621 
L 189.950992 238.422241 
L 201.145977 237.383746 
L 212.340961 238.333278 
L 223.535945 239.694611 
L 234.73093 241.661099 
L 245.925914 243.359492 
L 257.120898 245.101745 
L 268.315883 246.785544 
L 279.510867 248.417998 
L 290.705851 249.757692 
L 301.900836 251.020792 
L 313.09582 252.267236 
L 324.290804 253.448902 
L 335.485789 254.375855 
L 346.680773 255.361574 
L 357.875757 256.242313 
L 369.070742 257.172557 
L 380.265726 257.80745 
L 391.46071 258.797956 
" clip-path="url(#pcb0d58c55d)" style="fill: none; stroke: #eae51a; stroke-width: 1.5; stroke-linecap: square"/>
   </g>
   <g id="line2d_46">
    <path d="M 66.806165 284.233122 
L 78.001149 286.926144 
L 89.196133 291.940303 
L 100.391118 295.53595 
L 111.586102 56.035477 
L 122.781086 58.6746 
L 133.976071 60.299957 
L 145.171055 60.419356 
L 156.366039 54.307843 
L 167.561024 275.213049 
L 178.756008 248.282189 
L 189.950992 238.692905 
L 201.145977 237.174521 
L 212.340961 238.413274 
L 223.535945 239.896058 
L 234.73093 241.605114 
L 245.925914 243.300971 
L 257.120898 245.183457 
L 268.315883 246.736225 
L 279.510867 248.595298 
L 290.705851 249.886848 
L 301.900836 251.27587 
L 313.09582 252.400702 
L 324.290804 253.672813 
L 335.485789 254.626495 
L 346.680773 255.729585 
L 357.875757 256.36614 
L 369.070742 257.210207 
L 380.265726 258.13459 
L 391.46071 258.913662 
" clip-path="url(#pcb0d58c55d)" style="fill: none; stroke: #fde725; stroke-width: 1.5; stroke-linecap: square"/>
   </g>
   <g id="patch_3">
    <path d="M 50.573438 307.872 
L 50.573438 41.76 
" style="fill: none; stroke: #000000; stroke-width: 0.8; stroke-linejoin: miter; stroke-linecap: square"/>
   </g>
   <g id="patch_4">
    <path d="M 407.693438 307.872 
L 407.693438 41.76 
" style="fill: none; stroke: #000000; stroke-width: 0.8; stroke-linejoin: miter; stroke-linecap: square"/>
   </g>
   <g id="patch_5">
    <path d="M 50.573437 307.872 
L 407.693437 307.872 
" style="fill: none; stroke: #000000; stroke-width: 0.8; stroke-linejoin: miter; stroke-linecap: square"/>
   </g>
   <g id="patch_6">
    <path d="M 50.573437 41.76 
L 407.693437 41.76 
" style="fill: none; stroke: #000000; stroke-width: 0.8; stroke-linejoin: miter; stroke-linecap: square"/>
   </g>
   <g id="legend_1">
    <g id="patch_7">
     <path d="M 427.549438 307.872 
L 647.796312 307.872 
Q 649.796312 307.872 649.796312 305.872 
L 649.796312 145.412625 
Q 649.796312 143.412625 647.796312 143.412625 
L 427.549438 143.412625 
Q 425.549438 143.412625 425.549438 145.412625 
L 425.549438 305.872 
Q 425.549438 307.872 427.549438 307.872 
z
" style="fill: #ffffff; opacity: 0.8; stroke: #cccccc; stroke-linejoin: miter"/>
    </g>
    <g id="text_20">
     <!-- Readout pulse amplitude () -->
     <g transform="translate(469.572094 155.011063) scale(0.1 -0.1)">
      <defs>
       <path id="DejaVuSans-52" d="M 2841 2188 
Q 3044 2119 3236 1894 
Q 3428 1669 3622 1275 
L 4263 0 
L 3584 0 
L 2988 1197 
Q 2756 1666 2539 1819 
Q 2322 1972 1947 1972 
L 1259 1972 
L 1259 0 
L 628 0 
L 628 4666 
L 2053 4666 
Q 2853 4666 3247 4331 
Q 3641 3997 3641 3322 
Q 3641 2881 3436 2590 
Q 3231 2300 2841 2188 
z
M 1259 4147 
L 1259 2491 
L 2053 2491 
Q 2509 2491 2742 2702 
Q 2975 2913 2975 3322 
Q 2975 3731 2742 3939 
Q 2509 4147 2053 4147 
L 1259 4147 
z
" transform="scale(0.015625)"/>
       <path id="DejaVuSans-6f" d="M 1959 3097 
Q 1497 3097 1228 2736 
Q 959 2375 959 1747 
Q 959 1119 1226 758 
Q 1494 397 1959 397 
Q 2419 397 2687 759 
Q 2956 1122 2956 1747 
Q 2956 2369 2687 2733 
Q 2419 3097 1959 3097 
z
M 1959 3584 
Q 2709 3584 3137 3096 
Q 3566 2609 3566 1747 
Q 3566 888 3137 398 
Q 2709 -91 1959 -91 
Q 1206 -91 779 398 
Q 353 888 353 1747 
Q 353 2609 779 3096 
Q 1206 3584 1959 3584 
z
" transform="scale(0.015625)"/>
       <path id="DejaVuSans-74" d="M 1172 4494 
L 1172 3500 
L 2356 3500 
L 2356 3053 
L 1172 3053 
L 1172 1153 
Q 1172 725 1289 603 
Q 1406 481 1766 481 
L 2356 481 
L 2356 0 
L 1766 0 
Q 1100 0 847 248 
Q 594 497 594 1153 
L 594 3053 
L 172 3053 
L 172 3500 
L 594 3500 
L 594 4494 
L 1172 4494 
z
" transform="scale(0.015625)"/>
       <path id="DejaVuSans-70" d="M 1159 525 
L 1159 -1331 
L 581 -1331 
L 581 3500 
L 1159 3500 
L 1159 2969 
Q 1341 3281 1617 3432 
Q 1894 3584 2278 3584 
Q 2916 3584 3314 3078 
Q 3713 2572 3713 1747 
Q 3713 922 3314 415 
Q 2916 -91 2278 -91 
Q 1894 -91 1617 61 
Q 1341 213 1159 525 
z
M 3116 1747 
Q 3116 2381 2855 2742 
Q 2594 3103 2138 3103 
Q 1681 3103 1420 2742 
Q 1159 2381 1159 1747 
Q 1159 1113 1420 752 
Q 1681 391 2138 391 
Q 2594 391 2855 752 
Q 3116 1113 3116 1747 
z
" transform="scale(0.015625)"/>
       <path id="DejaVuSans-6c" d="M 603 4863 
L 1178 4863 
L 1178 0 
L 603 0 
L 603 4863 
z
" transform="scale(0.015625)"/>
       <path id="DejaVuSans-6d" d="M 3328 2828 
Q 3544 3216 3844 3400 
Q 4144 3584 4550 3584 
Q 5097 3584 5394 3201 
Q 5691 2819 5691 2113 
L 5691 0 
L 5113 0 
L 5113 2094 
Q 5113 2597 4934 2840 
Q 4756 3084 4391 3084 
Q 3944 3084 3684 2787 
Q 3425 2491 3425 1978 
L 3425 0 
L 2847 0 
L 2847 2094 
Q 2847 2600 2669 2842 
Q 2491 3084 2119 3084 
Q 1678 3084 1418 2786 
Q 1159 2488 1159 1978 
L 1159 0 
L 581 0 
L 581 3500 
L 1159 3500 
L 1159 2956 
Q 1356 3278 1631 3431 
Q 1906 3584 2284 3584 
Q 2666 3584 2933 3390 
Q 3200 3197 3328 2828 
z
" transform="scale(0.015625)"/>
       <path id="DejaVuSans-69" d="M 603 3500 
L 1178 3500 
L 1178 0 
L 603 0 
L 603 3500 
z
M 603 4863 
L 1178 4863 
L 1178 4134 
L 603 4134 
L 603 4863 
z
" transform="scale(0.015625)"/>
       <path id="DejaVuSans-28" d="M 1984 4856 
Q 1566 4138 1362 3434 
Q 1159 2731 1159 2009 
Q 1159 1288 1364 580 
Q 1569 -128 1984 -844 
L 1484 -844 
Q 1016 -109 783 600 
Q 550 1309 550 2009 
Q 550 2706 781 3412 
Q 1013 4119 1484 4856 
L 1984 4856 
z
" transform="scale(0.015625)"/>
       <path id="DejaVuSans-29" d="M 513 4856 
L 1013 4856 
Q 1481 4119 1714 3412 
Q 1947 2706 1947 2009 
Q 1947 1309 1714 600 
Q 1481 -109 1013 -844 
L 513 -844 
Q 928 -128 1133 580 
Q 1338 1288 1338 2009 
Q 1338 2731 1133 3434 
Q 928 4138 513 4856 
z
" transform="scale(0.015625)"/>
      </defs>
      <use xlink:href="#DejaVuSans-52"/>
      <use xlink:href="#DejaVuSans-65" x="64.982422"/>
      <use xlink:href="#DejaVuSans-61" x="126.505859"/>
      <use xlink:href="#DejaVuSans-64" x="187.785156"/>
      <use xlink:href="#DejaVuSans-6f" x="251.261719"/>
      <use xlink:href="#DejaVuSans-75" x="312.443359"/>
      <use xlink:href="#DejaVuSans-74" x="375.822266"/>
      <use xlink:href="#DejaVuSans-20" x="415.03125"/>
      <use xlink:href="#DejaVuSans-70" x="446.818359"/>
      <use xlink:href="#DejaVuSans-75" x="510.294922"/>
      <use xlink:href="#DejaVuSans-6c" x="573.673828"/>
      <use xlink:href="#DejaVuSans-73" x="601.457031"/>
      <use xlink:href="#DejaVuSans-65" x="653.556641"/>
      <use xlink:href="#DejaVuSans-20" x="715.080078"/>
      <use xlink:href="#DejaVuSans-61" x="746.867188"/>
      <use xlink:href="#DejaVuSans-6d" x="808.146484"/>
      <use xlink:href="#DejaVuSans-70" x="905.558594"/>
      <use xlink:href="#DejaVuSans-6c" x="969.035156"/>
      <use xlink:href="#DejaVuSans-69" x="996.818359"/>
      <use xlink:href="#DejaVuSans-74" x="1024.601562"/>
      <use xlink:href="#DejaVuSans-75" x="1063.810547"/>
      <use xlink:href="#DejaVuSans-64" x="1127.189453"/>
      <use xlink:href="#DejaVuSans-65" x="1190.666016"/>
      <use xlink:href="#DejaVuSans-20" x="1252.189453"/>
      <use xlink:href="#DejaVuSans-28" x="1283.976562"/>
      <use xlink:href="#DejaVuSans-29" x="1322.990234"/>
     </g>
    </g>
    <g id="line2d_47">
     <path d="M 429.549438 166.189188 
L 439.549438 166.189188 
L 449.549438 166.189188 
" style="fill: none; stroke: #440154; stroke-width: 1.5; stroke-linecap: square"/>
    </g>
    <g id="text_21">
     <!-- 0.01 -->
     <g transform="translate(457.549438 169.689188) scale(0.1 -0.1)">
      <use xlink:href="#DejaVuSans-30"/>
      <use xlink:href="#DejaVuSans-2e" x="63.623047"/>
      <use xlink:href="#DejaVuSans-30" x="95.410156"/>
      <use xlink:href="#DejaVuSans-31" x="159.033203"/>
     </g>
    </g>
    <g id="line2d_48">
     <path d="M 429.549438 180.867313 
L 439.549438 180.867313 
L 449.549438 180.867313 
" style="fill: none; stroke: #470d60; stroke-width: 1.5; stroke-linecap: square"/>
    </g>
    <g id="text_22">
     <!-- 0.0338 -->
     <g transform="translate(457.549438 184.367313) scale(0.1 -0.1)">
      <defs>
       <path id="DejaVuSans-33" d="M 2597 2516 
Q 3050 2419 3304 2112 
Q 3559 1806 3559 1356 
Q 3559 666 3084 287 
Q 2609 -91 1734 -91 
Q 1441 -91 1130 -33 
Q 819 25 488 141 
L 488 750 
Q 750 597 1062 519 
Q 1375 441 1716 441 
Q 2309 441 2620 675 
Q 2931 909 2931 1356 
Q 2931 1769 2642 2001 
Q 2353 2234 1838 2234 
L 1294 2234 
L 1294 2753 
L 1863 2753 
Q 2328 2753 2575 2939 
Q 2822 3125 2822 3475 
Q 2822 3834 2567 4026 
Q 2313 4219 1838 4219 
Q 1578 4219 1281 4162 
Q 984 4106 628 3988 
L 628 4550 
Q 988 4650 1302 4700 
Q 1616 4750 1894 4750 
Q 2613 4750 3031 4423 
Q 3450 4097 3450 3541 
Q 3450 3153 3228 2886 
Q 3006 2619 2597 2516 
z
" transform="scale(0.015625)"/>
      </defs>
      <use xlink:href="#DejaVuSans-30"/>
      <use xlink:href="#DejaVuSans-2e" x="63.623047"/>
      <use xlink:href="#DejaVuSans-30" x="95.410156"/>
      <use xlink:href="#DejaVuSans-33" x="159.033203"/>
      <use xlink:href="#DejaVuSans-33" x="222.65625"/>
      <use xlink:href="#DejaVuSans-38" x="286.279297"/>
     </g>
    </g>
    <g id="line2d_49">
     <path d="M 429.549438 195.545438 
L 439.549438 195.545438 
L 449.549438 195.545438 
" style="fill: none; stroke: #481a6c; stroke-width: 1.5; stroke-linecap: square"/>
    </g>
    <g id="text_23">
     <!-- 0.0576 -->
     <g transform="translate(457.549438 199.045438) scale(0.1 -0.1)">
      <use xlink:href="#DejaVuSans-30"/>
      <use xlink:href="#DejaVuSans-2e" x="63.623047"/>
      <use xlink:href="#DejaVuSans-30" x="95.410156"/>
      <use xlink:href="#DejaVuSans-35" x="159.033203"/>
      <use xlink:href="#DejaVuSans-37" x="222.65625"/>
      <use xlink:href="#DejaVuSans-36" x="286.279297"/>
     </g>
    </g>
    <g id="line2d_50">
     <path d="M 429.549438 210.223563 
L 439.549438 210.223563 
L 449.549438 210.223563 
" style="fill: none; stroke: #482576; stroke-width: 1.5; stroke-linecap: square"/>
    </g>
    <g id="text_24">
     <!-- 0.0814 -->
     <g transform="translate(457.549438 213.723563) scale(0.1 -0.1)">
      <defs>
       <path id="DejaVuSans-34" d="M 2419 4116 
L 825 1625 
L 2419 1625 
L 2419 4116 
z
M 2253 4666 
L 3047 4666 
L 3047 1625 
L 3713 1625 
L 3713 1100 
L 3047 1100 
L 3047 0 
L 2419 0 
L 2419 1100 
L 313 1100 
L 313 1709 
L 2253 4666 
z
" transform="scale(0.015625)"/>
      </defs>
      <use xlink:href="#DejaVuSans-30"/>
      <use xlink:href="#DejaVuSans-2e" x="63.623047"/>
      <use xlink:href="#DejaVuSans-30" x="95.410156"/>
      <use xlink:href="#DejaVuSans-38" x="159.033203"/>
      <use xlink:href="#DejaVuSans-31" x="222.65625"/>
      <use xlink:href="#DejaVuSans-34" x="286.279297"/>
     </g>
    </g>
    <g id="line2d_51">
     <path d="M 429.549438 224.901688 
L 439.549438 224.901688 
L 449.549438 224.901688 
" style="fill: none; stroke: #46307e; stroke-width: 1.5; stroke-linecap: square"/>
    </g>
    <g id="text_25">
     <!-- 0.105 -->
     <g transform="translate(457.549438 228.401688) scale(0.1 -0.1)">
      <use xlink:href="#DejaVuSans-30"/>
      <use xlink:href="#DejaVuSans-2e" x="63.623047"/>
      <use xlink:href="#DejaVuSans-31" x="95.410156"/>
      <use xlink:href="#DejaVuSans-30" x="159.033203"/>
      <use xlink:href="#DejaVuSans-35" x="222.65625"/>
     </g>
    </g>
    <g id="line2d_52">
     <path d="M 429.549438 239.579813 
L 439.549438 239.579813 
L 449.549438 239.579813 
" style="fill: none; stroke: #443b84; stroke-width: 1.5; stroke-linecap: square"/>
    </g>
    <g id="text_26">
     <!-- 0.129 -->
     <g transform="translate(457.549438 243.079813) scale(0.1 -0.1)">
      <defs>
       <path id="DejaVuSans-32" d="M 1228 531 
L 3431 531 
L 3431 0 
L 469 0 
L 469 531 
Q 828 903 1448 1529 
Q 2069 2156 2228 2338 
Q 2531 2678 2651 2914 
Q 2772 3150 2772 3378 
Q 2772 3750 2511 3984 
Q 2250 4219 1831 4219 
Q 1534 4219 1204 4116 
Q 875 4013 500 3803 
L 500 4441 
Q 881 4594 1212 4672 
Q 1544 4750 1819 4750 
Q 2544 4750 2975 4387 
Q 3406 4025 3406 3419 
Q 3406 3131 3298 2873 
Q 3191 2616 2906 2266 
Q 2828 2175 2409 1742 
Q 1991 1309 1228 531 
z
" transform="scale(0.015625)"/>
      </defs>
      <use xlink:href="#DejaVuSans-30"/>
      <use xlink:href="#DejaVuSans-2e" x="63.623047"/>
      <use xlink:href="#DejaVuSans-31" x="95.410156"/>
      <use xlink:href="#DejaVuSans-32" x="159.033203"/>
      <use xlink:href="#DejaVuSans-39" x="222.65625"/>
     </g>
    </g>
    <g id="line2d_53">
     <path d="M 429.549438 254.257938 
L 439.549438 254.257938 
L 449.549438 254.257938 
" style="fill: none; stroke: #404588; stroke-width: 1.5; stroke-linecap: square"/>
    </g>
    <g id="text_27">
     <!-- 0.153 -->
     <g transform="translate(457.549438 257.757938) scale(0.1 -0.1)">
      <use xlink:href="#DejaVuSans-30"/>
      <use xlink:href="#DejaVuSans-2e" x="63.623047"/>
      <use xlink:href="#DejaVuSans-31" x="95.410156"/>
      <use xlink:href="#DejaVuSans-35" x="159.033203"/>
      <use xlink:href="#DejaVuSans-33" x="222.65625"/>
     </g>
    </g>
    <g id="line2d_54">
     <path d="M 429.549438 268.936062 
L 439.549438 268.936062 
L 449.549438 268.936062 
" style="fill: none; stroke: #3c4f8a; stroke-width: 1.5; stroke-linecap: square"/>
    </g>
    <g id="text_28">
     <!-- 0.177 -->
     <g transform="translate(457.549438 272.436062) scale(0.1 -0.1)">
      <use xlink:href="#DejaVuSans-30"/>
      <use xlink:href="#DejaVuSans-2e" x="63.623047"/>
      <use xlink:href="#DejaVuSans-31" x="95.410156"/>
      <use xlink:href="#DejaVuSans-37" x="159.033203"/>
      <use xlink:href="#DejaVuSans-37" x="222.65625"/>
     </g>
    </g>
    <g id="line2d_55">
     <path d="M 429.549438 283.614188 
L 439.549438 283.614188 
L 449.549438 283.614188 
" style="fill: none; stroke: #38598c; stroke-width: 1.5; stroke-linecap: square"/>
    </g>
    <g id="text_29">
     <!-- 0.2 -->
     <g transform="translate(457.549438 287.114188) scale(0.1 -0.1)">
      <use xlink:href="#DejaVuSans-30"/>
      <use xlink:href="#DejaVuSans-2e" x="63.623047"/>
      <use xlink:href="#DejaVuSans-32" x="95.410156"/>
     </g>
    </g>
    <g id="line2d_56">
     <path d="M 429.549438 298.292312 
L 439.549438 298.292312 
L 449.549438 298.292312 
" style="fill: none; stroke: #33628d; stroke-width: 1.5; stroke-linecap: square"/>
    </g>
    <g id="text_30">
     <!-- 0.224 -->
     <g transform="translate(457.549438 301.792312) scale(0.1 -0.1)">
      <use xlink:href="#DejaVuSans-30"/>
      <use xlink:href="#DejaVuSans-2e" x="63.623047"/>
      <use xlink:href="#DejaVuSans-32" x="95.410156"/>
      <use xlink:href="#DejaVuSans-32" x="159.033203"/>
      <use xlink:href="#DejaVuSans-34" x="222.65625"/>
     </g>
    </g>
    <g id="line2d_57">
     <path d="M 512.540062 166.189188 
L 522.540062 166.189188 
L 532.540062 166.189188 
" style="fill: none; stroke: #2f6b8e; stroke-width: 1.5; stroke-linecap: square"/>
    </g>
    <g id="text_31">
     <!-- 0.248 -->
     <g transform="translate(540.540062 169.689188) scale(0.1 -0.1)">
      <use xlink:href="#DejaVuSans-30"/>
      <use xlink:href="#DejaVuSans-2e" x="63.623047"/>
      <use xlink:href="#DejaVuSans-32" x="95.410156"/>
      <use xlink:href="#DejaVuSans-34" x="159.033203"/>
      <use xlink:href="#DejaVuSans-38" x="222.65625"/>
     </g>
    </g>
    <g id="line2d_58">
     <path d="M 512.540062 180.867313 
L 522.540062 180.867313 
L 532.540062 180.867313 
" style="fill: none; stroke: #2c738e; stroke-width: 1.5; stroke-linecap: square"/>
    </g>
    <g id="text_32">
     <!-- 0.272 -->
     <g transform="translate(540.540062 184.367313) scale(0.1 -0.1)">
      <use xlink:href="#DejaVuSans-30"/>
      <use xlink:href="#DejaVuSans-2e" x="63.623047"/>
      <use xlink:href="#DejaVuSans-32" x="95.410156"/>
      <use xlink:href="#DejaVuSans-37" x="159.033203"/>
      <use xlink:href="#DejaVuSans-32" x="222.65625"/>
     </g>
    </g>
    <g id="line2d_59">
     <path d="M 512.540062 195.545438 
L 522.540062 195.545438 
L 532.540062 195.545438 
" style="fill: none; stroke: #297b8e; stroke-width: 1.5; stroke-linecap: square"/>
    </g>
    <g id="text_33">
     <!-- 0.296 -->
     <g transform="translate(540.540062 199.045438) scale(0.1 -0.1)">
      <use xlink:href="#DejaVuSans-30"/>
      <use xlink:href="#DejaVuSans-2e" x="63.623047"/>
      <use xlink:href="#DejaVuSans-32" x="95.410156"/>
      <use xlink:href="#DejaVuSans-39" x="159.033203"/>
      <use xlink:href="#DejaVuSans-36" x="222.65625"/>
     </g>
    </g>
    <g id="line2d_60">
     <path d="M 512.540062 210.223563 
L 522.540062 210.223563 
L 532.540062 210.223563 
" style="fill: none; stroke: #25838e; stroke-width: 1.5; stroke-linecap: square"/>
    </g>
    <g id="text_34">
     <!-- 0.319 -->
     <g transform="translate(540.540062 213.723563) scale(0.1 -0.1)">
      <use xlink:href="#DejaVuSans-30"/>
      <use xlink:href="#DejaVuSans-2e" x="63.623047"/>
      <use xlink:href="#DejaVuSans-33" x="95.410156"/>
      <use xlink:href="#DejaVuSans-31" x="159.033203"/>
      <use xlink:href="#DejaVuSans-39" x="222.65625"/>
     </g>
    </g>
    <g id="line2d_61">
     <path d="M 512.540062 224.901688 
L 522.540062 224.901688 
L 532.540062 224.901688 
" style="fill: none; stroke: #228c8d; stroke-width: 1.5; stroke-linecap: square"/>
    </g>
    <g id="text_35">
     <!-- 0.343 -->
     <g transform="translate(540.540062 228.401688) scale(0.1 -0.1)">
      <use xlink:href="#DejaVuSans-30"/>
      <use xlink:href="#DejaVuSans-2e" x="63.623047"/>
      <use xlink:href="#DejaVuSans-33" x="95.410156"/>
      <use xlink:href="#DejaVuSans-34" x="159.033203"/>
      <use xlink:href="#DejaVuSans-33" x="222.65625"/>
     </g>
    </g>
    <g id="line2d_62">
     <path d="M 512.540062 239.579813 
L 522.540062 239.579813 
L 532.540062 239.579813 
" style="fill: none; stroke: #1f948c; stroke-width: 1.5; stroke-linecap: square"/>
    </g>
    <g id="text_36">
     <!-- 0.367 -->
     <g transform="translate(540.540062 243.079813) scale(0.1 -0.1)">
      <use xlink:href="#DejaVuSans-30"/>
      <use xlink:href="#DejaVuSans-2e" x="63.623047"/>
      <use xlink:href="#DejaVuSans-33" x="95.410156"/>
      <use xlink:href="#DejaVuSans-36" x="159.033203"/>
      <use xlink:href="#DejaVuSans-37" x="222.65625"/>
     </g>
    </g>
    <g id="line2d_63">
     <path d="M 512.540062 254.257938 
L 522.540062 254.257938 
L 532.540062 254.257938 
" style="fill: none; stroke: #1e9d89; stroke-width: 1.5; stroke-linecap: square"/>
    </g>
    <g id="text_37">
     <!-- 0.391 -->
     <g transform="translate(540.540062 257.757938) scale(0.1 -0.1)">
      <use xlink:href="#DejaVuSans-30"/>
      <use xlink:href="#DejaVuSans-2e" x="63.623047"/>
      <use xlink:href="#DejaVuSans-33" x="95.410156"/>
      <use xlink:href="#DejaVuSans-39" x="159.033203"/>
      <use xlink:href="#DejaVuSans-31" x="222.65625"/>
     </g>
    </g>
    <g id="line2d_64">
     <path d="M 512.540062 268.936062 
L 522.540062 268.936062 
L 532.540062 268.936062 
" style="fill: none; stroke: #21a585; stroke-width: 1.5; stroke-linecap: square"/>
    </g>
    <g id="text_38">
     <!-- 0.414 -->
     <g transform="translate(540.540062 272.436062) scale(0.1 -0.1)">
      <use xlink:href="#DejaVuSans-30"/>
      <use xlink:href="#DejaVuSans-2e" x="63.623047"/>
      <use xlink:href="#DejaVuSans-34" x="95.410156"/>
      <use xlink:href="#DejaVuSans-31" x="159.033203"/>
      <use xlink:href="#DejaVuSans-34" x="222.65625"/>
     </g>
    </g>
    <g id="line2d_65">
     <path d="M 512.540062 283.614188 
L 522.540062 283.614188 
L 532.540062 283.614188 
" style="fill: none; stroke: #26ad81; stroke-width: 1.5; stroke-linecap: square"/>
    </g>
    <g id="text_39">
     <!-- 0.438 -->
     <g transform="translate(540.540062 287.114188) scale(0.1 -0.1)">
      <use xlink:href="#DejaVuSans-30"/>
      <use xlink:href="#DejaVuSans-2e" x="63.623047"/>
      <use xlink:href="#DejaVuSans-34" x="95.410156"/>
      <use xlink:href="#DejaVuSans-33" x="159.033203"/>
      <use xlink:href="#DejaVuSans-38" x="222.65625"/>
     </g>
    </g>
    <g id="line2d_66">
     <path d="M 512.540062 298.292312 
L 522.540062 298.292312 
L 532.540062 298.292312 
" style="fill: none; stroke: #31b57b; stroke-width: 1.5; stroke-linecap: square"/>
    </g>
    <g id="text_40">
     <!-- 0.462 -->
     <g transform="translate(540.540062 301.792312) scale(0.1 -0.1)">
      <use xlink:href="#DejaVuSans-30"/>
      <use xlink:href="#DejaVuSans-2e" x="63.623047"/>
      <use xlink:href="#DejaVuSans-34" x="95.410156"/>
      <use xlink:href="#DejaVuSans-36" x="159.033203"/>
      <use xlink:href="#DejaVuSans-32" x="222.65625"/>
     </g>
    </g>
    <g id="line2d_67">
     <path d="M 589.168187 166.189188 
L 599.168187 166.189188 
L 609.168187 166.189188 
" style="fill: none; stroke: #3fbc73; stroke-width: 1.5; stroke-linecap: square"/>
    </g>
    <g id="text_41">
     <!-- 0.486 -->
     <g transform="translate(617.168187 169.689188) scale(0.1 -0.1)">
      <use xlink:href="#DejaVuSans-30"/>
      <use xlink:href="#DejaVuSans-2e" x="63.623047"/>
      <use xlink:href="#DejaVuSans-34" x="95.410156"/>
      <use xlink:href="#DejaVuSans-38" x="159.033203"/>
      <use xlink:href="#DejaVuSans-36" x="222.65625"/>
     </g>
    </g>
    <g id="line2d_68">
     <path d="M 589.168187 180.867313 
L 599.168187 180.867313 
L 609.168187 180.867313 
" style="fill: none; stroke: #50c46a; stroke-width: 1.5; stroke-linecap: square"/>
    </g>
    <g id="text_42">
     <!-- 0.51 -->
     <g transform="translate(617.168187 184.367313) scale(0.1 -0.1)">
      <use xlink:href="#DejaVuSans-30"/>
      <use xlink:href="#DejaVuSans-2e" x="63.623047"/>
      <use xlink:href="#DejaVuSans-35" x="95.410156"/>
      <use xlink:href="#DejaVuSans-31" x="159.033203"/>
     </g>
    </g>
    <g id="line2d_69">
     <path d="M 589.168187 195.545438 
L 599.168187 195.545438 
L 609.168187 195.545438 
" style="fill: none; stroke: #63cb5f; stroke-width: 1.5; stroke-linecap: square"/>
    </g>
    <g id="text_43">
     <!-- 0.533 -->
     <g transform="translate(617.168187 199.045438) scale(0.1 -0.1)">
      <use xlink:href="#DejaVuSans-30"/>
      <use xlink:href="#DejaVuSans-2e" x="63.623047"/>
      <use xlink:href="#DejaVuSans-35" x="95.410156"/>
      <use xlink:href="#DejaVuSans-33" x="159.033203"/>
      <use xlink:href="#DejaVuSans-33" x="222.65625"/>
     </g>
    </g>
    <g id="line2d_70">
     <path d="M 589.168187 210.223563 
L 599.168187 210.223563 
L 609.168187 210.223563 
" style="fill: none; stroke: #77d153; stroke-width: 1.5; stroke-linecap: square"/>
    </g>
    <g id="text_44">
     <!-- 0.557 -->
     <g transform="translate(617.168187 213.723563) scale(0.1 -0.1)">
      <use xlink:href="#DejaVuSans-30"/>
      <use xlink:href="#DejaVuSans-2e" x="63.623047"/>
      <use xlink:href="#DejaVuSans-35" x="95.410156"/>
      <use xlink:href="#DejaVuSans-35" x="159.033203"/>
      <use xlink:href="#DejaVuSans-37" x="222.65625"/>
     </g>
    </g>
    <g id="line2d_71">
     <path d="M 589.168187 224.901688 
L 599.168187 224.901688 
L 609.168187 224.901688 
" style="fill: none; stroke: #8bd646; stroke-width: 1.5; stroke-linecap: square"/>
    </g>
    <g id="text_45">
     <!-- 0.581 -->
     <g transform="translate(617.168187 228.401688) scale(0.1 -0.1)">
      <use xlink:href="#DejaVuSans-30"/>
      <use xlink:href="#DejaVuSans-2e" x="63.623047"/>
      <use xlink:href="#DejaVuSans-35" x="95.410156"/>
      <use xlink:href="#DejaVuSans-38" x="159.033203"/>
      <use xlink:href="#DejaVuSans-31" x="222.65625"/>
     </g>
    </g>
    <g id="line2d_72">
     <path d="M 589.168187 239.579813 
L 599.168187 239.579813 
L 609.168187 239.579813 
" style="fill: none; stroke: #a2da37; stroke-width: 1.5; stroke-linecap: square"/>
    </g>
    <g id="text_46">
     <!-- 0.605 -->
     <g transform="translate(617.168187 243.079813) scale(0.1 -0.1)">
      <use xlink:href="#DejaVuSans-30"/>
      <use xlink:href="#DejaVuSans-2e" x="63.623047"/>
      <use xlink:href="#DejaVuSans-36" x="95.410156"/>
      <use xlink:href="#DejaVuSans-30" x="159.033203"/>
      <use xlink:href="#DejaVuSans-35" x="222.65625"/>
     </g>
    </g>
    <g id="line2d_73">
     <path d="M 589.168187 254.257938 
L 599.168187 254.257938 
L 609.168187 254.257938 
" style="fill: none; stroke: #bade28; stroke-width: 1.5; stroke-linecap: square"/>
    </g>
    <g id="text_47">
     <!-- 0.629 -->
     <g transform="translate(617.168187 257.757938) scale(0.1 -0.1)">
      <use xlink:href="#DejaVuSans-30"/>
      <use xlink:href="#DejaVuSans-2e" x="63.623047"/>
      <use xlink:href="#DejaVuSans-36" x="95.410156"/>
      <use xlink:href="#DejaVuSans-32" x="159.033203"/>
      <use xlink:href="#DejaVuSans-39" x="222.65625"/>
     </g>
    </g>
    <g id="line2d_74">
     <path d="M 589.168187 268.936062 
L 599.168187 268.936062 
L 609.168187 268.936062 
" style="fill: none; stroke: #d2e21b; stroke-width: 1.5; stroke-linecap: square"/>
    </g>
    <g id="text_48">
     <!-- 0.652 -->
     <g transform="translate(617.168187 272.436062) scale(0.1 -0.1)">
      <use xlink:href="#DejaVuSans-30"/>
      <use xlink:href="#DejaVuSans-2e" x="63.623047"/>
      <use xlink:href="#DejaVuSans-36" x="95.410156"/>
      <use xlink:href="#DejaVuSans-35" x="159.033203"/>
      <use xlink:href="#DejaVuSans-32" x="222.65625"/>
     </g>
    </g>
    <g id="line2d_75">
     <path d="M 589.168187 283.614188 
L 599.168187 283.614188 
L 609.168187 283.614188 
" style="fill: none; stroke: #eae51a; stroke-width: 1.5; stroke-linecap: square"/>
    </g>
    <g id="text_49">
     <!-- 0.676 -->
     <g transform="translate(617.168187 287.114188) scale(0.1 -0.1)">
      <use xlink:href="#DejaVuSans-30"/>
      <use xlink:href="#DejaVuSans-2e" x="63.623047"/>
      <use xlink:href="#DejaVuSans-36" x="95.410156"/>
      <use xlink:href="#DejaVuSans-37" x="159.033203"/>
      <use xlink:href="#DejaVuSans-36" x="222.65625"/>
     </g>
    </g>
    <g id="line2d_76">
     <path d="M 589.168187 298.292312 
L 599.168187 298.292312 
L 609.168187 298.292312 
" style="fill: none; stroke: #fde725; stroke-width: 1.5; stroke-linecap: square"/>
    </g>
    <g id="text_50">
     <!-- 0.7 -->
     <g transform="translate(617.168187 301.792312) scale(0.1 -0.1)">
      <use xlink:href="#DejaVuSans-30"/>
      <use xlink:href="#DejaVuSans-2e" x="63.623047"/>
      <use xlink:href="#DejaVuSans-37" x="95.410156"/>
     </g>
    </g>
   </g>
  </g>
  <g id="text_51">
   <!-- x0x1-y1 resonator punchout -->
   <g transform="translate(138.2625 16.318125) scale(0.12 -0.12)">
    <defs>
     <path id="DejaVuSans-78" d="M 3513 3500 
L 2247 1797 
L 3578 0 
L 2900 0 
L 1881 1375 
L 863 0 
L 184 0 
L 1544 1831 
L 300 3500 
L 978 3500 
L 1906 2253 
L 2834 3500 
L 3513 3500 
z
" transform="scale(0.015625)"/>
    </defs>
    <use xlink:href="#DejaVuSans-78"/>
    <use xlink:href="#DejaVuSans-30" x="59.179688"/>
    <use xlink:href="#DejaVuSans-78" x="122.802734"/>
    <use xlink:href="#DejaVuSans-31" x="181.982422"/>
    <use xlink:href="#DejaVuSans-2d" x="245.605469"/>
    <use xlink:href="#DejaVuSans-79" x="279.939453"/>
    <use xlink:href="#DejaVuSans-31" x="339.119141"/>
    <use xlink:href="#DejaVuSans-20" x="402.742188"/>
    <use xlink:href="#DejaVuSans-72" x="434.529297"/>
    <use xlink:href="#DejaVuSans-65" x="473.392578"/>
    <use xlink:href="#DejaVuSans-73" x="534.916016"/>
    <use xlink:href="#DejaVuSans-6f" x="587.015625"/>
    <use xlink:href="#DejaVuSans-6e" x="648.197266"/>
    <use xlink:href="#DejaVuSans-61" x="711.576172"/>
    <use xlink:href="#DejaVuSans-74" x="772.855469"/>
    <use xlink:href="#DejaVuSans-6f" x="812.064453"/>
    <use xlink:href="#DejaVuSans-72" x="873.246094"/>
    <use xlink:href="#DejaVuSans-20" x="914.359375"/>
    <use xlink:href="#DejaVuSans-70" x="946.146484"/>
    <use xlink:href="#DejaVuSans-75" x="1009.623047"/>
    <use xlink:href="#DejaVuSans-6e" x="1073.001953"/>
    <use xlink:href="#DejaVuSans-63" x="1136.380859"/>
    <use xlink:href="#DejaVuSans-68" x="1191.361328"/>
    <use xlink:href="#DejaVuSans-6f" x="1254.740234"/>
    <use xlink:href="#DejaVuSans-75" x="1315.921875"/>
    <use xlink:href="#DejaVuSans-74" x="1379.300781"/>
   </g>
   <!-- tuid: 20231225-160022-835-238653 -->
   <g transform="translate(113.518125 29.7555) scale(0.12 -0.12)">
    <defs>
     <path id="DejaVuSans-3a" d="M 750 794 
L 1409 794 
L 1409 0 
L 750 0 
L 750 794 
z
M 750 3309 
L 1409 3309 
L 1409 2516 
L 750 2516 
L 750 3309 
z
" transform="scale(0.015625)"/>
    </defs>
    <use xlink:href="#DejaVuSans-74"/>
    <use xlink:href="#DejaVuSans-75" x="39.208984"/>
    <use xlink:href="#DejaVuSans-69" x="102.587891"/>
    <use xlink:href="#DejaVuSans-64" x="130.371094"/>
    <use xlink:href="#DejaVuSans-3a" x="193.847656"/>
    <use xlink:href="#DejaVuSans-20" x="227.539062"/>
    <use xlink:href="#DejaVuSans-32" x="259.326172"/>
    <use xlink:href="#DejaVuSans-30" x="322.949219"/>
    <use xlink:href="#DejaVuSans-32" x="386.572266"/>
    <use xlink:href="#DejaVuSans-33" x="450.195312"/>
    <use xlink:href="#DejaVuSans-31" x="513.818359"/>
    <use xlink:href="#DejaVuSans-32" x="577.441406"/>
    <use xlink:href="#DejaVuSans-32" x="641.064453"/>
    <use xlink:href="#DejaVuSans-35" x="704.6875"/>
    <use xlink:href="#DejaVuSans-2d" x="768.310547"/>
    <use xlink:href="#DejaVuSans-31" x="804.394531"/>
    <use xlink:href="#DejaVuSans-36" x="868.017578"/>
    <use xlink:href="#DejaVuSans-30" x="931.640625"/>
    <use xlink:href="#DejaVuSans-30" x="995.263672"/>
    <use xlink:href="#DejaVuSans-32" x="1058.886719"/>
    <use xlink:href="#DejaVuSans-32" x="1122.509766"/>
    <use xlink:href="#DejaVuSans-2d" x="1186.132812"/>
    <use xlink:href="#DejaVuSans-38" x="1222.216797"/>
    <use xlink:href="#DejaVuSans-33" x="1285.839844"/>
    <use xlink:href="#DejaVuSans-35" x="1349.462891"/>
    <use xlink:href="#DejaVuSans-2d" x="1413.085938"/>
    <use xlink:href="#DejaVuSans-32" x="1449.169922"/>
    <use xlink:href="#DejaVuSans-33" x="1512.792969"/>
    <use xlink:href="#DejaVuSans-38" x="1576.416016"/>
    <use xlink:href="#DejaVuSans-36" x="1640.039062"/>
    <use xlink:href="#DejaVuSans-35" x="1703.662109"/>
    <use xlink:href="#DejaVuSans-33" x="1767.285156"/>
   </g>
  </g>
 </g>
 <defs>
  <clipPath id="pcb0d58c55d">
   <rect x="50.573438" y="41.76" width="357.12" height="266.112"/>
  </clipPath>
 </defs>
</svg>
