<?xml version="1.0" encoding="utf-8" standalone="no"?>
<!DOCTYPE svg PUBLIC "-//W3C//DTD SVG 1.1//EN"
  "http://www.w3.org/Graphics/SVG/1.1/DTD/svg11.dtd">
<svg xmlns:xlink="http://www.w3.org/1999/xlink" width="572.171312pt" height="345.42825pt" viewBox="0 0 572.171312 345.42825" xmlns="http://www.w3.org/2000/svg" version="1.1">
 <metadata>
  <rdf:RDF xmlns:dc="http://purl.org/dc/elements/1.1/" xmlns:cc="http://creativecommons.org/ns#" xmlns:rdf="http://www.w3.org/1999/02/22-rdf-syntax-ns#">
   <cc:Work>
    <dc:type rdf:resource="http://purl.org/dc/dcmitype/StillImage"/>
    <dc:date>2023-12-27T13:10:38.292824</dc:date>
    <dc:format>image/svg+xml</dc:format>
    <dc:creator>
     <cc:Agent>
      <dc:title>Matplotlib v3.8.2, https://matplotlib.org/</dc:title>
     </cc:Agent>
    </dc:creator>
   </cc:Work>
  </rdf:RDF>
 </metadata>
 <defs>
  <style type="text/css">*{stroke-linejoin: round; stroke-linecap: butt}</style>
 </defs>
 <g id="figure_1">
  <g id="patch_1">
   <path d="M 0 345.42825 
L 572.171312 345.42825 
L 572.171312 -0 
L 0 -0 
L 0 345.42825 
z
" style="fill: none; opacity: 0"/>
  </g>
  <g id="axes_1">
   <g id="patch_2">
    <path d="M 50.595313 162.72 
L 407.715312 162.72 
L 407.715312 41.76 
L 50.595313 41.76 
z
" style="fill: #ffffff"/>
   </g>
   <g id="matplotlib.axis_1">
    <g id="xtick_1">
     <g id="line2d_1">
      <defs>
       <path id="m05d43912fd" d="M 0 0 
L 0 3.5 
" style="stroke: #000000; stroke-width: 0.8"/>
      </defs>
      <g>
       <use xlink:href="#m05d43912fd" x="88.471676" y="162.72" style="stroke: #000000; stroke-width: 0.8"/>
      </g>
     </g>
    </g>
    <g id="xtick_2">
     <g id="line2d_2">
      <g>
       <use xlink:href="#m05d43912fd" x="131.758949" y="162.72" style="stroke: #000000; stroke-width: 0.8"/>
      </g>
     </g>
    </g>
    <g id="xtick_3">
     <g id="line2d_3">
      <g>
       <use xlink:href="#m05d43912fd" x="175.046222" y="162.72" style="stroke: #000000; stroke-width: 0.8"/>
      </g>
     </g>
    </g>
    <g id="xtick_4">
     <g id="line2d_4">
      <g>
       <use xlink:href="#m05d43912fd" x="218.333494" y="162.72" style="stroke: #000000; stroke-width: 0.8"/>
      </g>
     </g>
    </g>
    <g id="xtick_5">
     <g id="line2d_5">
      <g>
       <use xlink:href="#m05d43912fd" x="261.620767" y="162.72" style="stroke: #000000; stroke-width: 0.8"/>
      </g>
     </g>
    </g>
    <g id="xtick_6">
     <g id="line2d_6">
      <g>
       <use xlink:href="#m05d43912fd" x="304.90804" y="162.72" style="stroke: #000000; stroke-width: 0.8"/>
      </g>
     </g>
    </g>
    <g id="xtick_7">
     <g id="line2d_7">
      <g>
       <use xlink:href="#m05d43912fd" x="348.195312" y="162.72" style="stroke: #000000; stroke-width: 0.8"/>
      </g>
     </g>
    </g>
    <g id="xtick_8">
     <g id="line2d_8">
      <g>
       <use xlink:href="#m05d43912fd" x="391.482585" y="162.72" style="stroke: #000000; stroke-width: 0.8"/>
      </g>
     </g>
    </g>
   </g>
   <g id="matplotlib.axis_2">
    <g id="ytick_1">
     <g id="line2d_9">
      <defs>
       <path id="mac105e7fbb" d="M 0 0 
L -3.5 0 
" style="stroke: #000000; stroke-width: 0.8"/>
      </defs>
      <g>
       <use xlink:href="#mac105e7fbb" x="50.595313" y="143.652147" style="stroke: #000000; stroke-width: 0.8"/>
      </g>
     </g>
     <g id="text_1">
      <!-- 2 -->
      <g transform="translate(37.232813 147.451366) scale(0.1 -0.1)">
       <defs>
        <path id="DejaVuSans-32" d="M 1228 531 
L 3431 531 
L 3431 0 
L 469 0 
L 469 531 
Q 828 903 1448 1529 
Q 2069 2156 2228 2338 
Q 2531 2678 2651 2914 
Q 2772 3150 2772 3378 
Q 2772 3750 2511 3984 
Q 2250 4219 1831 4219 
Q 1534 4219 1204 4116 
Q 875 4013 500 3803 
L 500 4441 
Q 881 4594 1212 4672 
Q 1544 4750 1819 4750 
Q 2544 4750 2975 4387 
Q 3406 4025 3406 3419 
Q 3406 3131 3298 2873 
Q 3191 2616 2906 2266 
Q 2828 2175 2409 1742 
Q 1991 1309 1228 531 
z
" transform="scale(0.015625)"/>
       </defs>
       <use xlink:href="#DejaVuSans-32"/>
      </g>
     </g>
    </g>
    <g id="ytick_2">
     <g id="line2d_10">
      <g>
       <use xlink:href="#mac105e7fbb" x="50.595313" y="122.84303" style="stroke: #000000; stroke-width: 0.8"/>
      </g>
     </g>
     <g id="text_2">
      <!-- 4 -->
      <g transform="translate(37.232813 126.642249) scale(0.1 -0.1)">
       <defs>
        <path id="DejaVuSans-34" d="M 2419 4116 
L 825 1625 
L 2419 1625 
L 2419 4116 
z
M 2253 4666 
L 3047 4666 
L 3047 1625 
L 3713 1625 
L 3713 1100 
L 3047 1100 
L 3047 0 
L 2419 0 
L 2419 1100 
L 313 1100 
L 313 1709 
L 2253 4666 
z
" transform="scale(0.015625)"/>
       </defs>
       <use xlink:href="#DejaVuSans-34"/>
      </g>
     </g>
    </g>
    <g id="ytick_3">
     <g id="line2d_11">
      <g>
       <use xlink:href="#mac105e7fbb" x="50.595313" y="102.033913" style="stroke: #000000; stroke-width: 0.8"/>
      </g>
     </g>
     <g id="text_3">
      <!-- 6 -->
      <g transform="translate(37.232813 105.833132) scale(0.1 -0.1)">
       <defs>
        <path id="DejaVuSans-36" d="M 2113 2584 
Q 1688 2584 1439 2293 
Q 1191 2003 1191 1497 
Q 1191 994 1439 701 
Q 1688 409 2113 409 
Q 2538 409 2786 701 
Q 3034 994 3034 1497 
Q 3034 2003 2786 2293 
Q 2538 2584 2113 2584 
z
M 3366 4563 
L 3366 3988 
Q 3128 4100 2886 4159 
Q 2644 4219 2406 4219 
Q 1781 4219 1451 3797 
Q 1122 3375 1075 2522 
Q 1259 2794 1537 2939 
Q 1816 3084 2150 3084 
Q 2853 3084 3261 2657 
Q 3669 2231 3669 1497 
Q 3669 778 3244 343 
Q 2819 -91 2113 -91 
Q 1303 -91 875 529 
Q 447 1150 447 2328 
Q 447 3434 972 4092 
Q 1497 4750 2381 4750 
Q 2619 4750 2861 4703 
Q 3103 4656 3366 4563 
z
" transform="scale(0.015625)"/>
       </defs>
       <use xlink:href="#DejaVuSans-36"/>
      </g>
     </g>
    </g>
    <g id="ytick_4">
     <g id="line2d_12">
      <g>
       <use xlink:href="#mac105e7fbb" x="50.595313" y="81.224796" style="stroke: #000000; stroke-width: 0.8"/>
      </g>
     </g>
     <g id="text_4">
      <!-- 8 -->
      <g transform="translate(37.232813 85.024015) scale(0.1 -0.1)">
       <defs>
        <path id="DejaVuSans-38" d="M 2034 2216 
Q 1584 2216 1326 1975 
Q 1069 1734 1069 1313 
Q 1069 891 1326 650 
Q 1584 409 2034 409 
Q 2484 409 2743 651 
Q 3003 894 3003 1313 
Q 3003 1734 2745 1975 
Q 2488 2216 2034 2216 
z
M 1403 2484 
Q 997 2584 770 2862 
Q 544 3141 544 3541 
Q 544 4100 942 4425 
Q 1341 4750 2034 4750 
Q 2731 4750 3128 4425 
Q 3525 4100 3525 3541 
Q 3525 3141 3298 2862 
Q 3072 2584 2669 2484 
Q 3125 2378 3379 2068 
Q 3634 1759 3634 1313 
Q 3634 634 3220 271 
Q 2806 -91 2034 -91 
Q 1263 -91 848 271 
Q 434 634 434 1313 
Q 434 1759 690 2068 
Q 947 2378 1403 2484 
z
M 1172 3481 
Q 1172 3119 1398 2916 
Q 1625 2713 2034 2713 
Q 2441 2713 2670 2916 
Q 2900 3119 2900 3481 
Q 2900 3844 2670 4047 
Q 2441 4250 2034 4250 
Q 1625 4250 1398 4047 
Q 1172 3844 1172 3481 
z
" transform="scale(0.015625)"/>
       </defs>
       <use xlink:href="#DejaVuSans-38"/>
      </g>
     </g>
    </g>
    <g id="ytick_5">
     <g id="line2d_13">
      <g>
       <use xlink:href="#mac105e7fbb" x="50.595313" y="60.415679" style="stroke: #000000; stroke-width: 0.8"/>
      </g>
     </g>
     <g id="text_5">
      <!-- 10 -->
      <g transform="translate(30.870313 64.214898) scale(0.1 -0.1)">
       <defs>
        <path id="DejaVuSans-31" d="M 794 531 
L 1825 531 
L 1825 4091 
L 703 3866 
L 703 4441 
L 1819 4666 
L 2450 4666 
L 2450 531 
L 3481 531 
L 3481 0 
L 794 0 
L 794 531 
z
" transform="scale(0.015625)"/>
        <path id="DejaVuSans-30" d="M 2034 4250 
Q 1547 4250 1301 3770 
Q 1056 3291 1056 2328 
Q 1056 1369 1301 889 
Q 1547 409 2034 409 
Q 2525 409 2770 889 
Q 3016 1369 3016 2328 
Q 3016 3291 2770 3770 
Q 2525 4250 2034 4250 
z
M 2034 4750 
Q 2819 4750 3233 4129 
Q 3647 3509 3647 2328 
Q 3647 1150 3233 529 
Q 2819 -91 2034 -91 
Q 1250 -91 836 529 
Q 422 1150 422 2328 
Q 422 3509 836 4129 
Q 1250 4750 2034 4750 
z
" transform="scale(0.015625)"/>
       </defs>
       <use xlink:href="#DejaVuSans-31"/>
       <use xlink:href="#DejaVuSans-30" x="63.623047"/>
      </g>
     </g>
    </g>
    <g id="text_6">
     <!-- $|S_{21}|$ [mV] -->
     <g transform="translate(24.470313 127.19) rotate(-90) scale(0.1 -0.1)">
      <defs>
       <path id="DejaVuSans-7c" d="M 1344 4891 
L 1344 -1509 
L 813 -1509 
L 813 4891 
L 1344 4891 
z
" transform="scale(0.015625)"/>
       <path id="DejaVuSans-Oblique-53" d="M 3859 4513 
L 3738 3897 
Q 3422 4066 3111 4152 
Q 2800 4238 2509 4238 
Q 1944 4238 1609 3991 
Q 1275 3744 1275 3334 
Q 1275 3109 1398 2989 
Q 1522 2869 2034 2731 
L 2413 2638 
Q 3053 2472 3303 2217 
Q 3553 1963 3553 1503 
Q 3553 797 2998 353 
Q 2444 -91 1538 -91 
Q 1166 -91 791 -17 
Q 416 56 38 206 
L 166 856 
Q 513 641 861 531 
Q 1209 422 1556 422 
Q 2147 422 2503 684 
Q 2859 947 2859 1369 
Q 2859 1650 2717 1795 
Q 2575 1941 2106 2059 
L 1728 2156 
Q 1081 2325 845 2545 
Q 609 2766 609 3163 
Q 609 3859 1145 4304 
Q 1681 4750 2541 4750 
Q 2875 4750 3203 4690 
Q 3531 4631 3859 4513 
z
" transform="scale(0.015625)"/>
       <path id="DejaVuSans-20" transform="scale(0.015625)"/>
       <path id="DejaVuSans-5b" d="M 550 4863 
L 1875 4863 
L 1875 4416 
L 1125 4416 
L 1125 -397 
L 1875 -397 
L 1875 -844 
L 550 -844 
L 550 4863 
z
" transform="scale(0.015625)"/>
       <path id="DejaVuSans-6d" d="M 3328 2828 
Q 3544 3216 3844 3400 
Q 4144 3584 4550 3584 
Q 5097 3584 5394 3201 
Q 5691 2819 5691 2113 
L 5691 0 
L 5113 0 
L 5113 2094 
Q 5113 2597 4934 2840 
Q 4756 3084 4391 3084 
Q 3944 3084 3684 2787 
Q 3425 2491 3425 1978 
L 3425 0 
L 2847 0 
L 2847 2094 
Q 2847 2600 2669 2842 
Q 2491 3084 2119 3084 
Q 1678 3084 1418 2786 
Q 1159 2488 1159 1978 
L 1159 0 
L 581 0 
L 581 3500 
L 1159 3500 
L 1159 2956 
Q 1356 3278 1631 3431 
Q 1906 3584 2284 3584 
Q 2666 3584 2933 3390 
Q 3200 3197 3328 2828 
z
" transform="scale(0.015625)"/>
       <path id="DejaVuSans-56" d="M 1831 0 
L 50 4666 
L 709 4666 
L 2188 738 
L 3669 4666 
L 4325 4666 
L 2547 0 
L 1831 0 
z
" transform="scale(0.015625)"/>
       <path id="DejaVuSans-5d" d="M 1947 4863 
L 1947 -844 
L 622 -844 
L 622 -397 
L 1369 -397 
L 1369 4416 
L 622 4416 
L 622 4863 
L 1947 4863 
z
" transform="scale(0.015625)"/>
      </defs>
      <use xlink:href="#DejaVuSans-7c" transform="translate(0 0.578125)"/>
      <use xlink:href="#DejaVuSans-Oblique-53" transform="translate(33.691406 0.578125)"/>
      <use xlink:href="#DejaVuSans-32" transform="translate(97.167969 -15.828125) scale(0.7)"/>
      <use xlink:href="#DejaVuSans-31" transform="translate(141.704102 -15.828125) scale(0.7)"/>
      <use xlink:href="#DejaVuSans-7c" transform="translate(188.974609 0.578125)"/>
      <use xlink:href="#DejaVuSans-20" transform="translate(222.666016 0.578125)"/>
      <use xlink:href="#DejaVuSans-5b" transform="translate(254.453125 0.578125)"/>
      <use xlink:href="#DejaVuSans-6d" transform="translate(293.466797 0.578125)"/>
      <use xlink:href="#DejaVuSans-56" transform="translate(390.878906 0.578125)"/>
      <use xlink:href="#DejaVuSans-5d" transform="translate(459.287109 0.578125)"/>
     </g>
    </g>
   </g>
   <g id="line2d_14">
    <path d="M 66.82804 51.432822 
L 68.45947 49.886326 
L 70.0909 50.250232 
L 71.722329 50.996186 
L 73.353759 52.714722 
L 74.985189 51.947718 
L 76.616619 52.573805 
L 78.248049 54.111045 
L 79.879479 52.221008 
L 81.510909 49.983251 
L 83.142339 51.441039 
L 84.773768 53.977051 
L 86.405198 53.631265 
L 88.036628 51.643879 
L 89.668058 51.164434 
L 91.299488 51.791081 
L 92.930918 54.467428 
L 94.562348 55.582422 
L 96.193778 55.733965 
L 97.825207 53.364109 
L 99.456637 50.298613 
L 101.088067 54.599123 
L 102.719497 54.147052 
L 104.350927 52.953892 
L 105.982357 51.276569 
L 107.613787 50.742013 
L 109.245217 49.536335 
L 110.876646 49.57142 
L 112.508076 55.586583 
L 114.139506 51.358003 
L 115.770936 54.535557 
L 117.402366 53.324355 
L 119.033796 55.473536 
L 120.665226 57.079675 
L 122.296656 59.389679 
L 123.928085 57.007423 
L 125.559515 50.187242 
L 127.190945 60.612485 
L 128.822375 54.258243 
L 130.453805 57.857126 
L 132.085235 57.478459 
L 133.716665 57.809544 
L 135.348095 56.464537 
L 136.979524 66.267986 
L 138.610954 67.907927 
L 140.242384 62.375427 
L 141.873814 69.839242 
L 143.505244 79.33846 
L 145.136674 79.339174 
L 146.768104 83.814022 
L 148.399534 85.661984 
L 150.030963 90.519852 
L 151.662393 112.365426 
L 153.293823 96.205164 
L 154.925253 123.399316 
L 156.556683 129.355992 
L 158.188113 128.681939 
L 159.819543 134.869363 
L 161.450973 140.2133 
L 163.082402 138.119208 
L 164.713832 157.221818 
L 166.345262 125.365023 
L 167.976692 129.581622 
L 169.608122 121.531999 
L 171.239552 112.878434 
L 172.870982 108.627261 
L 174.502412 105.379507 
L 176.133842 109.263786 
L 177.765271 107.413268 
L 179.396701 115.84831 
L 181.028131 118.814082 
L 182.659561 121.349283 
L 184.290991 129.705518 
L 185.922421 133.844819 
L 187.553851 136.256708 
L 189.185281 140.412631 
L 190.81671 132.933421 
L 192.44814 126.814974 
L 194.07957 130.510459 
L 195.711 107.599683 
L 197.34243 97.231789 
L 198.97386 92.880838 
L 200.60529 95.725878 
L 202.23672 91.231234 
L 203.868149 82.398856 
L 205.499579 74.606733 
L 207.131009 75.723294 
L 208.762439 76.102514 
L 210.393869 72.310379 
L 212.025299 70.494215 
L 213.656729 67.537966 
L 215.288159 56.465693 
L 216.919588 58.777256 
L 218.551018 57.33177 
L 220.182448 53.213674 
L 221.813878 52.750569 
L 223.445308 53.912087 
L 225.076738 53.862712 
L 226.708168 48.360428 
L 228.339598 52.309075 
L 229.971027 52.839502 
L 231.602457 51.342093 
L 233.233887 50.959684 
L 234.865317 49.599059 
L 236.496747 49.352213 
L 238.128177 47.904098 
L 239.759607 47.755604 
L 241.391037 54.456984 
L 243.022466 47.612225 
L 244.653896 53.073051 
L 246.285326 50.55469 
L 247.916756 51.971173 
L 249.548186 52.45714 
L 251.179616 53.167372 
L 252.811046 52.990824 
L 254.442476 47.258182 
L 256.073905 52.382811 
L 257.705335 47.75683 
L 259.336765 52.555896 
L 260.968195 51.915533 
L 262.599625 49.66838 
L 264.231055 48.843749 
L 265.862485 49.985887 
L 267.493915 53.890455 
L 269.125344 47.691765 
L 270.756774 53.576661 
L 272.388204 52.261566 
L 274.019634 49.650848 
L 275.651064 50.824522 
L 277.282494 53.022627 
L 278.913924 49.68618 
L 280.545354 51.958802 
L 282.176783 53.422059 
L 283.808213 51.990686 
L 285.439643 49.937274 
L 287.071073 51.721565 
L 288.702503 52.825294 
L 290.333933 53.689308 
L 291.965363 54.146053 
L 293.596793 51.796099 
L 295.228223 55.299418 
L 296.859652 52.997085 
L 298.491082 52.516347 
L 300.122512 54.784157 
L 301.753942 55.390927 
L 303.385372 53.981295 
L 305.016802 57.946388 
L 306.648232 56.312858 
L 308.279662 59.552768 
L 309.911091 56.870752 
L 311.542521 59.673226 
L 313.173951 61.381093 
L 314.805381 62.407968 
L 316.436811 62.222714 
L 318.068241 64.014723 
L 319.699671 66.42211 
L 321.331101 67.029352 
L 322.96253 67.920829 
L 326.22539 73.006964 
L 329.48825 77.937931 
L 332.75111 87.791791 
L 334.38254 91.723203 
L 336.013969 96.675748 
L 337.645399 99.669782 
L 339.276829 106.391521 
L 342.539689 117.681015 
L 344.171119 125.159364 
L 345.802549 131.111159 
L 347.433979 138.797624 
L 349.065408 144.39779 
L 350.696838 147.970999 
L 352.328268 146.982461 
L 353.959698 143.547491 
L 355.591128 141.989341 
L 357.222558 137.968587 
L 358.853988 130.667478 
L 360.485418 126.916893 
L 362.116847 121.375222 
L 367.011137 107.388336 
L 368.642567 105.320956 
L 370.273997 99.577059 
L 371.905427 95.500454 
L 375.168286 92.058768 
L 376.799716 88.468434 
L 378.431146 86.58608 
L 380.062576 83.365319 
L 381.694006 81.1587 
L 383.325436 80.721998 
L 384.956866 78.135352 
L 386.588296 78.073612 
L 388.219725 75.192188 
L 389.851155 73.622727 
L 391.482585 74.434216 
L 391.482585 74.434216 
" clip-path="url(#p3ce5b8c6b5)" style="fill: none; stroke: #1f77b4; stroke-width: 1.5; stroke-linecap: square"/>
    <defs>
     <path id="m364e5161b9" d="M 0 1.5 
C 0.397805 1.5 0.77937 1.341951 1.06066 1.06066 
C 1.341951 0.77937 1.5 0.397805 1.5 0 
C 1.5 -0.397805 1.341951 -0.77937 1.06066 -1.06066 
C 0.77937 -1.341951 0.397805 -1.5 0 -1.5 
C -0.397805 -1.5 -0.77937 -1.341951 -1.06066 -1.06066 
C -1.341951 -0.77937 -1.5 -0.397805 -1.5 0 
C -1.5 0.397805 -1.341951 0.77937 -1.06066 1.06066 
C -0.77937 1.341951 -0.397805 1.5 0 1.5 
z
" style="stroke: #1f77b4"/>
    </defs>
    <g clip-path="url(#p3ce5b8c6b5)">
     <use xlink:href="#m364e5161b9" x="66.82804" y="51.432822" style="fill: #1f77b4; stroke: #1f77b4"/>
     <use xlink:href="#m364e5161b9" x="68.45947" y="49.886326" style="fill: #1f77b4; stroke: #1f77b4"/>
     <use xlink:href="#m364e5161b9" x="70.0909" y="50.250232" style="fill: #1f77b4; stroke: #1f77b4"/>
     <use xlink:href="#m364e5161b9" x="71.722329" y="50.996186" style="fill: #1f77b4; stroke: #1f77b4"/>
     <use xlink:href="#m364e5161b9" x="73.353759" y="52.714722" style="fill: #1f77b4; stroke: #1f77b4"/>
     <use xlink:href="#m364e5161b9" x="74.985189" y="51.947718" style="fill: #1f77b4; stroke: #1f77b4"/>
     <use xlink:href="#m364e5161b9" x="76.616619" y="52.573805" style="fill: #1f77b4; stroke: #1f77b4"/>
     <use xlink:href="#m364e5161b9" x="78.248049" y="54.111045" style="fill: #1f77b4; stroke: #1f77b4"/>
     <use xlink:href="#m364e5161b9" x="79.879479" y="52.221008" style="fill: #1f77b4; stroke: #1f77b4"/>
     <use xlink:href="#m364e5161b9" x="81.510909" y="49.983251" style="fill: #1f77b4; stroke: #1f77b4"/>
     <use xlink:href="#m364e5161b9" x="83.142339" y="51.441039" style="fill: #1f77b4; stroke: #1f77b4"/>
     <use xlink:href="#m364e5161b9" x="84.773768" y="53.977051" style="fill: #1f77b4; stroke: #1f77b4"/>
     <use xlink:href="#m364e5161b9" x="86.405198" y="53.631265" style="fill: #1f77b4; stroke: #1f77b4"/>
     <use xlink:href="#m364e5161b9" x="88.036628" y="51.643879" style="fill: #1f77b4; stroke: #1f77b4"/>
     <use xlink:href="#m364e5161b9" x="89.668058" y="51.164434" style="fill: #1f77b4; stroke: #1f77b4"/>
     <use xlink:href="#m364e5161b9" x="91.299488" y="51.791081" style="fill: #1f77b4; stroke: #1f77b4"/>
     <use xlink:href="#m364e5161b9" x="92.930918" y="54.467428" style="fill: #1f77b4; stroke: #1f77b4"/>
     <use xlink:href="#m364e5161b9" x="94.562348" y="55.582422" style="fill: #1f77b4; stroke: #1f77b4"/>
     <use xlink:href="#m364e5161b9" x="96.193778" y="55.733965" style="fill: #1f77b4; stroke: #1f77b4"/>
     <use xlink:href="#m364e5161b9" x="97.825207" y="53.364109" style="fill: #1f77b4; stroke: #1f77b4"/>
     <use xlink:href="#m364e5161b9" x="99.456637" y="50.298613" style="fill: #1f77b4; stroke: #1f77b4"/>
     <use xlink:href="#m364e5161b9" x="101.088067" y="54.599123" style="fill: #1f77b4; stroke: #1f77b4"/>
     <use xlink:href="#m364e5161b9" x="102.719497" y="54.147052" style="fill: #1f77b4; stroke: #1f77b4"/>
     <use xlink:href="#m364e5161b9" x="104.350927" y="52.953892" style="fill: #1f77b4; stroke: #1f77b4"/>
     <use xlink:href="#m364e5161b9" x="105.982357" y="51.276569" style="fill: #1f77b4; stroke: #1f77b4"/>
     <use xlink:href="#m364e5161b9" x="107.613787" y="50.742013" style="fill: #1f77b4; stroke: #1f77b4"/>
     <use xlink:href="#m364e5161b9" x="109.245217" y="49.536335" style="fill: #1f77b4; stroke: #1f77b4"/>
     <use xlink:href="#m364e5161b9" x="110.876646" y="49.57142" style="fill: #1f77b4; stroke: #1f77b4"/>
     <use xlink:href="#m364e5161b9" x="112.508076" y="55.586583" style="fill: #1f77b4; stroke: #1f77b4"/>
     <use xlink:href="#m364e5161b9" x="114.139506" y="51.358003" style="fill: #1f77b4; stroke: #1f77b4"/>
     <use xlink:href="#m364e5161b9" x="115.770936" y="54.535557" style="fill: #1f77b4; stroke: #1f77b4"/>
     <use xlink:href="#m364e5161b9" x="117.402366" y="53.324355" style="fill: #1f77b4; stroke: #1f77b4"/>
     <use xlink:href="#m364e5161b9" x="119.033796" y="55.473536" style="fill: #1f77b4; stroke: #1f77b4"/>
     <use xlink:href="#m364e5161b9" x="120.665226" y="57.079675" style="fill: #1f77b4; stroke: #1f77b4"/>
     <use xlink:href="#m364e5161b9" x="122.296656" y="59.389679" style="fill: #1f77b4; stroke: #1f77b4"/>
     <use xlink:href="#m364e5161b9" x="123.928085" y="57.007423" style="fill: #1f77b4; stroke: #1f77b4"/>
     <use xlink:href="#m364e5161b9" x="125.559515" y="50.187242" style="fill: #1f77b4; stroke: #1f77b4"/>
     <use xlink:href="#m364e5161b9" x="127.190945" y="60.612485" style="fill: #1f77b4; stroke: #1f77b4"/>
     <use xlink:href="#m364e5161b9" x="128.822375" y="54.258243" style="fill: #1f77b4; stroke: #1f77b4"/>
     <use xlink:href="#m364e5161b9" x="130.453805" y="57.857126" style="fill: #1f77b4; stroke: #1f77b4"/>
     <use xlink:href="#m364e5161b9" x="132.085235" y="57.478459" style="fill: #1f77b4; stroke: #1f77b4"/>
     <use xlink:href="#m364e5161b9" x="133.716665" y="57.809544" style="fill: #1f77b4; stroke: #1f77b4"/>
     <use xlink:href="#m364e5161b9" x="135.348095" y="56.464537" style="fill: #1f77b4; stroke: #1f77b4"/>
     <use xlink:href="#m364e5161b9" x="136.979524" y="66.267986" style="fill: #1f77b4; stroke: #1f77b4"/>
     <use xlink:href="#m364e5161b9" x="138.610954" y="67.907927" style="fill: #1f77b4; stroke: #1f77b4"/>
     <use xlink:href="#m364e5161b9" x="140.242384" y="62.375427" style="fill: #1f77b4; stroke: #1f77b4"/>
     <use xlink:href="#m364e5161b9" x="141.873814" y="69.839242" style="fill: #1f77b4; stroke: #1f77b4"/>
     <use xlink:href="#m364e5161b9" x="143.505244" y="79.33846" style="fill: #1f77b4; stroke: #1f77b4"/>
     <use xlink:href="#m364e5161b9" x="145.136674" y="79.339174" style="fill: #1f77b4; stroke: #1f77b4"/>
     <use xlink:href="#m364e5161b9" x="146.768104" y="83.814022" style="fill: #1f77b4; stroke: #1f77b4"/>
     <use xlink:href="#m364e5161b9" x="148.399534" y="85.661984" style="fill: #1f77b4; stroke: #1f77b4"/>
     <use xlink:href="#m364e5161b9" x="150.030963" y="90.519852" style="fill: #1f77b4; stroke: #1f77b4"/>
     <use xlink:href="#m364e5161b9" x="151.662393" y="112.365426" style="fill: #1f77b4; stroke: #1f77b4"/>
     <use xlink:href="#m364e5161b9" x="153.293823" y="96.205164" style="fill: #1f77b4; stroke: #1f77b4"/>
     <use xlink:href="#m364e5161b9" x="154.925253" y="123.399316" style="fill: #1f77b4; stroke: #1f77b4"/>
     <use xlink:href="#m364e5161b9" x="156.556683" y="129.355992" style="fill: #1f77b4; stroke: #1f77b4"/>
     <use xlink:href="#m364e5161b9" x="158.188113" y="128.681939" style="fill: #1f77b4; stroke: #1f77b4"/>
     <use xlink:href="#m364e5161b9" x="159.819543" y="134.869363" style="fill: #1f77b4; stroke: #1f77b4"/>
     <use xlink:href="#m364e5161b9" x="161.450973" y="140.2133" style="fill: #1f77b4; stroke: #1f77b4"/>
     <use xlink:href="#m364e5161b9" x="163.082402" y="138.119208" style="fill: #1f77b4; stroke: #1f77b4"/>
     <use xlink:href="#m364e5161b9" x="164.713832" y="157.221818" style="fill: #1f77b4; stroke: #1f77b4"/>
     <use xlink:href="#m364e5161b9" x="166.345262" y="125.365023" style="fill: #1f77b4; stroke: #1f77b4"/>
     <use xlink:href="#m364e5161b9" x="167.976692" y="129.581622" style="fill: #1f77b4; stroke: #1f77b4"/>
     <use xlink:href="#m364e5161b9" x="169.608122" y="121.531999" style="fill: #1f77b4; stroke: #1f77b4"/>
     <use xlink:href="#m364e5161b9" x="171.239552" y="112.878434" style="fill: #1f77b4; stroke: #1f77b4"/>
     <use xlink:href="#m364e5161b9" x="172.870982" y="108.627261" style="fill: #1f77b4; stroke: #1f77b4"/>
     <use xlink:href="#m364e5161b9" x="174.502412" y="105.379507" style="fill: #1f77b4; stroke: #1f77b4"/>
     <use xlink:href="#m364e5161b9" x="176.133842" y="109.263786" style="fill: #1f77b4; stroke: #1f77b4"/>
     <use xlink:href="#m364e5161b9" x="177.765271" y="107.413268" style="fill: #1f77b4; stroke: #1f77b4"/>
     <use xlink:href="#m364e5161b9" x="179.396701" y="115.84831" style="fill: #1f77b4; stroke: #1f77b4"/>
     <use xlink:href="#m364e5161b9" x="181.028131" y="118.814082" style="fill: #1f77b4; stroke: #1f77b4"/>
     <use xlink:href="#m364e5161b9" x="182.659561" y="121.349283" style="fill: #1f77b4; stroke: #1f77b4"/>
     <use xlink:href="#m364e5161b9" x="184.290991" y="129.705518" style="fill: #1f77b4; stroke: #1f77b4"/>
     <use xlink:href="#m364e5161b9" x="185.922421" y="133.844819" style="fill: #1f77b4; stroke: #1f77b4"/>
     <use xlink:href="#m364e5161b9" x="187.553851" y="136.256708" style="fill: #1f77b4; stroke: #1f77b4"/>
     <use xlink:href="#m364e5161b9" x="189.185281" y="140.412631" style="fill: #1f77b4; stroke: #1f77b4"/>
     <use xlink:href="#m364e5161b9" x="190.81671" y="132.933421" style="fill: #1f77b4; stroke: #1f77b4"/>
     <use xlink:href="#m364e5161b9" x="192.44814" y="126.814974" style="fill: #1f77b4; stroke: #1f77b4"/>
     <use xlink:href="#m364e5161b9" x="194.07957" y="130.510459" style="fill: #1f77b4; stroke: #1f77b4"/>
     <use xlink:href="#m364e5161b9" x="195.711" y="107.599683" style="fill: #1f77b4; stroke: #1f77b4"/>
     <use xlink:href="#m364e5161b9" x="197.34243" y="97.231789" style="fill: #1f77b4; stroke: #1f77b4"/>
     <use xlink:href="#m364e5161b9" x="198.97386" y="92.880838" style="fill: #1f77b4; stroke: #1f77b4"/>
     <use xlink:href="#m364e5161b9" x="200.60529" y="95.725878" style="fill: #1f77b4; stroke: #1f77b4"/>
     <use xlink:href="#m364e5161b9" x="202.23672" y="91.231234" style="fill: #1f77b4; stroke: #1f77b4"/>
     <use xlink:href="#m364e5161b9" x="203.868149" y="82.398856" style="fill: #1f77b4; stroke: #1f77b4"/>
     <use xlink:href="#m364e5161b9" x="205.499579" y="74.606733" style="fill: #1f77b4; stroke: #1f77b4"/>
     <use xlink:href="#m364e5161b9" x="207.131009" y="75.723294" style="fill: #1f77b4; stroke: #1f77b4"/>
     <use xlink:href="#m364e5161b9" x="208.762439" y="76.102514" style="fill: #1f77b4; stroke: #1f77b4"/>
     <use xlink:href="#m364e5161b9" x="210.393869" y="72.310379" style="fill: #1f77b4; stroke: #1f77b4"/>
     <use xlink:href="#m364e5161b9" x="212.025299" y="70.494215" style="fill: #1f77b4; stroke: #1f77b4"/>
     <use xlink:href="#m364e5161b9" x="213.656729" y="67.537966" style="fill: #1f77b4; stroke: #1f77b4"/>
     <use xlink:href="#m364e5161b9" x="215.288159" y="56.465693" style="fill: #1f77b4; stroke: #1f77b4"/>
     <use xlink:href="#m364e5161b9" x="216.919588" y="58.777256" style="fill: #1f77b4; stroke: #1f77b4"/>
     <use xlink:href="#m364e5161b9" x="218.551018" y="57.33177" style="fill: #1f77b4; stroke: #1f77b4"/>
     <use xlink:href="#m364e5161b9" x="220.182448" y="53.213674" style="fill: #1f77b4; stroke: #1f77b4"/>
     <use xlink:href="#m364e5161b9" x="221.813878" y="52.750569" style="fill: #1f77b4; stroke: #1f77b4"/>
     <use xlink:href="#m364e5161b9" x="223.445308" y="53.912087" style="fill: #1f77b4; stroke: #1f77b4"/>
     <use xlink:href="#m364e5161b9" x="225.076738" y="53.862712" style="fill: #1f77b4; stroke: #1f77b4"/>
     <use xlink:href="#m364e5161b9" x="226.708168" y="48.360428" style="fill: #1f77b4; stroke: #1f77b4"/>
     <use xlink:href="#m364e5161b9" x="228.339598" y="52.309075" style="fill: #1f77b4; stroke: #1f77b4"/>
     <use xlink:href="#m364e5161b9" x="229.971027" y="52.839502" style="fill: #1f77b4; stroke: #1f77b4"/>
     <use xlink:href="#m364e5161b9" x="231.602457" y="51.342093" style="fill: #1f77b4; stroke: #1f77b4"/>
     <use xlink:href="#m364e5161b9" x="233.233887" y="50.959684" style="fill: #1f77b4; stroke: #1f77b4"/>
     <use xlink:href="#m364e5161b9" x="234.865317" y="49.599059" style="fill: #1f77b4; stroke: #1f77b4"/>
     <use xlink:href="#m364e5161b9" x="236.496747" y="49.352213" style="fill: #1f77b4; stroke: #1f77b4"/>
     <use xlink:href="#m364e5161b9" x="238.128177" y="47.904098" style="fill: #1f77b4; stroke: #1f77b4"/>
     <use xlink:href="#m364e5161b9" x="239.759607" y="47.755604" style="fill: #1f77b4; stroke: #1f77b4"/>
     <use xlink:href="#m364e5161b9" x="241.391037" y="54.456984" style="fill: #1f77b4; stroke: #1f77b4"/>
     <use xlink:href="#m364e5161b9" x="243.022466" y="47.612225" style="fill: #1f77b4; stroke: #1f77b4"/>
     <use xlink:href="#m364e5161b9" x="244.653896" y="53.073051" style="fill: #1f77b4; stroke: #1f77b4"/>
     <use xlink:href="#m364e5161b9" x="246.285326" y="50.55469" style="fill: #1f77b4; stroke: #1f77b4"/>
     <use xlink:href="#m364e5161b9" x="247.916756" y="51.971173" style="fill: #1f77b4; stroke: #1f77b4"/>
     <use xlink:href="#m364e5161b9" x="249.548186" y="52.45714" style="fill: #1f77b4; stroke: #1f77b4"/>
     <use xlink:href="#m364e5161b9" x="251.179616" y="53.167372" style="fill: #1f77b4; stroke: #1f77b4"/>
     <use xlink:href="#m364e5161b9" x="252.811046" y="52.990824" style="fill: #1f77b4; stroke: #1f77b4"/>
     <use xlink:href="#m364e5161b9" x="254.442476" y="47.258182" style="fill: #1f77b4; stroke: #1f77b4"/>
     <use xlink:href="#m364e5161b9" x="256.073905" y="52.382811" style="fill: #1f77b4; stroke: #1f77b4"/>
     <use xlink:href="#m364e5161b9" x="257.705335" y="47.75683" style="fill: #1f77b4; stroke: #1f77b4"/>
     <use xlink:href="#m364e5161b9" x="259.336765" y="52.555896" style="fill: #1f77b4; stroke: #1f77b4"/>
     <use xlink:href="#m364e5161b9" x="260.968195" y="51.915533" style="fill: #1f77b4; stroke: #1f77b4"/>
     <use xlink:href="#m364e5161b9" x="262.599625" y="49.66838" style="fill: #1f77b4; stroke: #1f77b4"/>
     <use xlink:href="#m364e5161b9" x="264.231055" y="48.843749" style="fill: #1f77b4; stroke: #1f77b4"/>
     <use xlink:href="#m364e5161b9" x="265.862485" y="49.985887" style="fill: #1f77b4; stroke: #1f77b4"/>
     <use xlink:href="#m364e5161b9" x="267.493915" y="53.890455" style="fill: #1f77b4; stroke: #1f77b4"/>
     <use xlink:href="#m364e5161b9" x="269.125344" y="47.691765" style="fill: #1f77b4; stroke: #1f77b4"/>
     <use xlink:href="#m364e5161b9" x="270.756774" y="53.576661" style="fill: #1f77b4; stroke: #1f77b4"/>
     <use xlink:href="#m364e5161b9" x="272.388204" y="52.261566" style="fill: #1f77b4; stroke: #1f77b4"/>
     <use xlink:href="#m364e5161b9" x="274.019634" y="49.650848" style="fill: #1f77b4; stroke: #1f77b4"/>
     <use xlink:href="#m364e5161b9" x="275.651064" y="50.824522" style="fill: #1f77b4; stroke: #1f77b4"/>
     <use xlink:href="#m364e5161b9" x="277.282494" y="53.022627" style="fill: #1f77b4; stroke: #1f77b4"/>
     <use xlink:href="#m364e5161b9" x="278.913924" y="49.68618" style="fill: #1f77b4; stroke: #1f77b4"/>
     <use xlink:href="#m364e5161b9" x="280.545354" y="51.958802" style="fill: #1f77b4; stroke: #1f77b4"/>
     <use xlink:href="#m364e5161b9" x="282.176783" y="53.422059" style="fill: #1f77b4; stroke: #1f77b4"/>
     <use xlink:href="#m364e5161b9" x="283.808213" y="51.990686" style="fill: #1f77b4; stroke: #1f77b4"/>
     <use xlink:href="#m364e5161b9" x="285.439643" y="49.937274" style="fill: #1f77b4; stroke: #1f77b4"/>
     <use xlink:href="#m364e5161b9" x="287.071073" y="51.721565" style="fill: #1f77b4; stroke: #1f77b4"/>
     <use xlink:href="#m364e5161b9" x="288.702503" y="52.825294" style="fill: #1f77b4; stroke: #1f77b4"/>
     <use xlink:href="#m364e5161b9" x="290.333933" y="53.689308" style="fill: #1f77b4; stroke: #1f77b4"/>
     <use xlink:href="#m364e5161b9" x="291.965363" y="54.146053" style="fill: #1f77b4; stroke: #1f77b4"/>
     <use xlink:href="#m364e5161b9" x="293.596793" y="51.796099" style="fill: #1f77b4; stroke: #1f77b4"/>
     <use xlink:href="#m364e5161b9" x="295.228223" y="55.299418" style="fill: #1f77b4; stroke: #1f77b4"/>
     <use xlink:href="#m364e5161b9" x="296.859652" y="52.997085" style="fill: #1f77b4; stroke: #1f77b4"/>
     <use xlink:href="#m364e5161b9" x="298.491082" y="52.516347" style="fill: #1f77b4; stroke: #1f77b4"/>
     <use xlink:href="#m364e5161b9" x="300.122512" y="54.784157" style="fill: #1f77b4; stroke: #1f77b4"/>
     <use xlink:href="#m364e5161b9" x="301.753942" y="55.390927" style="fill: #1f77b4; stroke: #1f77b4"/>
     <use xlink:href="#m364e5161b9" x="303.385372" y="53.981295" style="fill: #1f77b4; stroke: #1f77b4"/>
     <use xlink:href="#m364e5161b9" x="305.016802" y="57.946388" style="fill: #1f77b4; stroke: #1f77b4"/>
     <use xlink:href="#m364e5161b9" x="306.648232" y="56.312858" style="fill: #1f77b4; stroke: #1f77b4"/>
     <use xlink:href="#m364e5161b9" x="308.279662" y="59.552768" style="fill: #1f77b4; stroke: #1f77b4"/>
     <use xlink:href="#m364e5161b9" x="309.911091" y="56.870752" style="fill: #1f77b4; stroke: #1f77b4"/>
     <use xlink:href="#m364e5161b9" x="311.542521" y="59.673226" style="fill: #1f77b4; stroke: #1f77b4"/>
     <use xlink:href="#m364e5161b9" x="313.173951" y="61.381093" style="fill: #1f77b4; stroke: #1f77b4"/>
     <use xlink:href="#m364e5161b9" x="314.805381" y="62.407968" style="fill: #1f77b4; stroke: #1f77b4"/>
     <use xlink:href="#m364e5161b9" x="316.436811" y="62.222714" style="fill: #1f77b4; stroke: #1f77b4"/>
     <use xlink:href="#m364e5161b9" x="318.068241" y="64.014723" style="fill: #1f77b4; stroke: #1f77b4"/>
     <use xlink:href="#m364e5161b9" x="319.699671" y="66.42211" style="fill: #1f77b4; stroke: #1f77b4"/>
     <use xlink:href="#m364e5161b9" x="321.331101" y="67.029352" style="fill: #1f77b4; stroke: #1f77b4"/>
     <use xlink:href="#m364e5161b9" x="322.96253" y="67.920829" style="fill: #1f77b4; stroke: #1f77b4"/>
     <use xlink:href="#m364e5161b9" x="324.59396" y="70.509867" style="fill: #1f77b4; stroke: #1f77b4"/>
     <use xlink:href="#m364e5161b9" x="326.22539" y="73.006964" style="fill: #1f77b4; stroke: #1f77b4"/>
     <use xlink:href="#m364e5161b9" x="327.85682" y="75.391624" style="fill: #1f77b4; stroke: #1f77b4"/>
     <use xlink:href="#m364e5161b9" x="329.48825" y="77.937931" style="fill: #1f77b4; stroke: #1f77b4"/>
     <use xlink:href="#m364e5161b9" x="331.11968" y="83.030312" style="fill: #1f77b4; stroke: #1f77b4"/>
     <use xlink:href="#m364e5161b9" x="332.75111" y="87.791791" style="fill: #1f77b4; stroke: #1f77b4"/>
     <use xlink:href="#m364e5161b9" x="334.38254" y="91.723203" style="fill: #1f77b4; stroke: #1f77b4"/>
     <use xlink:href="#m364e5161b9" x="336.013969" y="96.675748" style="fill: #1f77b4; stroke: #1f77b4"/>
     <use xlink:href="#m364e5161b9" x="337.645399" y="99.669782" style="fill: #1f77b4; stroke: #1f77b4"/>
     <use xlink:href="#m364e5161b9" x="339.276829" y="106.391521" style="fill: #1f77b4; stroke: #1f77b4"/>
     <use xlink:href="#m364e5161b9" x="340.908259" y="111.856655" style="fill: #1f77b4; stroke: #1f77b4"/>
     <use xlink:href="#m364e5161b9" x="342.539689" y="117.681015" style="fill: #1f77b4; stroke: #1f77b4"/>
     <use xlink:href="#m364e5161b9" x="344.171119" y="125.159364" style="fill: #1f77b4; stroke: #1f77b4"/>
     <use xlink:href="#m364e5161b9" x="345.802549" y="131.111159" style="fill: #1f77b4; stroke: #1f77b4"/>
     <use xlink:href="#m364e5161b9" x="347.433979" y="138.797624" style="fill: #1f77b4; stroke: #1f77b4"/>
     <use xlink:href="#m364e5161b9" x="349.065408" y="144.39779" style="fill: #1f77b4; stroke: #1f77b4"/>
     <use xlink:href="#m364e5161b9" x="350.696838" y="147.970999" style="fill: #1f77b4; stroke: #1f77b4"/>
     <use xlink:href="#m364e5161b9" x="352.328268" y="146.982461" style="fill: #1f77b4; stroke: #1f77b4"/>
     <use xlink:href="#m364e5161b9" x="353.959698" y="143.547491" style="fill: #1f77b4; stroke: #1f77b4"/>
     <use xlink:href="#m364e5161b9" x="355.591128" y="141.989341" style="fill: #1f77b4; stroke: #1f77b4"/>
     <use xlink:href="#m364e5161b9" x="357.222558" y="137.968587" style="fill: #1f77b4; stroke: #1f77b4"/>
     <use xlink:href="#m364e5161b9" x="358.853988" y="130.667478" style="fill: #1f77b4; stroke: #1f77b4"/>
     <use xlink:href="#m364e5161b9" x="360.485418" y="126.916893" style="fill: #1f77b4; stroke: #1f77b4"/>
     <use xlink:href="#m364e5161b9" x="362.116847" y="121.375222" style="fill: #1f77b4; stroke: #1f77b4"/>
     <use xlink:href="#m364e5161b9" x="363.748277" y="116.804836" style="fill: #1f77b4; stroke: #1f77b4"/>
     <use xlink:href="#m364e5161b9" x="365.379707" y="112.207646" style="fill: #1f77b4; stroke: #1f77b4"/>
     <use xlink:href="#m364e5161b9" x="367.011137" y="107.388336" style="fill: #1f77b4; stroke: #1f77b4"/>
     <use xlink:href="#m364e5161b9" x="368.642567" y="105.320956" style="fill: #1f77b4; stroke: #1f77b4"/>
     <use xlink:href="#m364e5161b9" x="370.273997" y="99.577059" style="fill: #1f77b4; stroke: #1f77b4"/>
     <use xlink:href="#m364e5161b9" x="371.905427" y="95.500454" style="fill: #1f77b4; stroke: #1f77b4"/>
     <use xlink:href="#m364e5161b9" x="373.536857" y="93.818445" style="fill: #1f77b4; stroke: #1f77b4"/>
     <use xlink:href="#m364e5161b9" x="375.168286" y="92.058768" style="fill: #1f77b4; stroke: #1f77b4"/>
     <use xlink:href="#m364e5161b9" x="376.799716" y="88.468434" style="fill: #1f77b4; stroke: #1f77b4"/>
     <use xlink:href="#m364e5161b9" x="378.431146" y="86.58608" style="fill: #1f77b4; stroke: #1f77b4"/>
     <use xlink:href="#m364e5161b9" x="380.062576" y="83.365319" style="fill: #1f77b4; stroke: #1f77b4"/>
     <use xlink:href="#m364e5161b9" x="381.694006" y="81.1587" style="fill: #1f77b4; stroke: #1f77b4"/>
     <use xlink:href="#m364e5161b9" x="383.325436" y="80.721998" style="fill: #1f77b4; stroke: #1f77b4"/>
     <use xlink:href="#m364e5161b9" x="384.956866" y="78.135352" style="fill: #1f77b4; stroke: #1f77b4"/>
     <use xlink:href="#m364e5161b9" x="386.588296" y="78.073612" style="fill: #1f77b4; stroke: #1f77b4"/>
     <use xlink:href="#m364e5161b9" x="388.219725" y="75.192188" style="fill: #1f77b4; stroke: #1f77b4"/>
     <use xlink:href="#m364e5161b9" x="389.851155" y="73.622727" style="fill: #1f77b4; stroke: #1f77b4"/>
     <use xlink:href="#m364e5161b9" x="391.482585" y="74.434216" style="fill: #1f77b4; stroke: #1f77b4"/>
    </g>
   </g>
   <g id="line2d_15">
    <path d="M 66.82804 105.473033 
L 91.526484 105.09133 
L 107.125501 104.641865 
L 117.524846 104.131885 
L 124.674395 103.577794 
L 130.199047 102.931729 
L 134.098801 102.272284 
L 137.348597 101.504291 
L 139.948433 100.657759 
L 141.89831 99.81091 
L 143.523208 98.896763 
L 145.148105 97.702106 
L 146.448023 96.449714 
L 147.422962 95.261891 
L 148.397901 93.777063 
L 149.372839 91.881759 
L 150.347778 89.412094 
L 151.322716 86.154315 
L 152.297655 81.971201 
L 153.272593 77.642666 
L 153.597573 76.819725 
L 153.922552 76.892168 
L 154.247532 78.409579 
L 154.572512 81.896916 
L 155.222471 94.881004 
L 156.197409 116.583968 
L 156.522389 121.086992 
L 156.847368 123.978982 
L 157.172348 125.556828 
L 157.497327 126.18322 
L 157.822307 126.181983 
L 158.147286 125.798126 
L 158.797245 124.493024 
L 160.422143 120.910547 
L 161.722061 118.664695 
L 163.021979 116.955744 
L 164.321897 115.640375 
L 165.621815 114.606507 
L 167.246713 113.594341 
L 169.19659 112.664809 
L 171.471447 111.844677 
L 174.071283 111.13825 
L 177.321078 110.480606 
L 181.545812 109.862106 
L 187.070464 109.296444 
L 194.220014 108.799679 
L 203.969399 108.355988 
L 217.943519 107.961032 
L 238.417229 107.624449 
L 270.265222 107.344587 
L 323.236885 107.125455 
L 391.482585 107.003343 
L 391.482585 107.003343 
" clip-path="url(#p3ce5b8c6b5)" style="fill: none; stroke: #d62728; stroke-width: 1.5; stroke-linecap: square"/>
   </g>
   <g id="patch_3">
    <path d="M 50.595313 162.72 
L 50.595313 41.76 
" style="fill: none; stroke: #000000; stroke-width: 0.8; stroke-linejoin: miter; stroke-linecap: square"/>
   </g>
   <g id="patch_4">
    <path d="M 407.715312 162.72 
L 407.715312 41.76 
" style="fill: none; stroke: #000000; stroke-width: 0.8; stroke-linejoin: miter; stroke-linecap: square"/>
   </g>
   <g id="patch_5">
    <path d="M 50.595313 162.72 
L 407.715313 162.72 
" style="fill: none; stroke: #000000; stroke-width: 0.8; stroke-linejoin: miter; stroke-linecap: square"/>
   </g>
   <g id="patch_6">
    <path d="M 50.595313 41.76 
L 407.715313 41.76 
" style="fill: none; stroke: #000000; stroke-width: 0.8; stroke-linejoin: miter; stroke-linecap: square"/>
   </g>
   <g id="text_7">
    <g id="patch_7">
     <path d="M 425.571312 95.079562 
L 564.971312 95.079562 
Q 568.971312 95.079562 568.971312 91.079562 
L 568.971312 47.808 
Q 568.971312 43.808 564.971312 43.808 
L 425.571312 43.808 
Q 421.571312 43.808 421.571312 47.808 
L 421.571312 91.079562 
Q 421.571312 95.079562 425.571312 95.079562 
z
" style="fill: #ffffff; opacity: 0.5; stroke: #000000; stroke-linejoin: miter"/>
    </g>
    <!-- Summary -->
    <g transform="translate(425.571312 55.406437) scale(0.1 -0.1)">
     <defs>
      <path id="DejaVuSans-53" d="M 3425 4513 
L 3425 3897 
Q 3066 4069 2747 4153 
Q 2428 4238 2131 4238 
Q 1616 4238 1336 4038 
Q 1056 3838 1056 3469 
Q 1056 3159 1242 3001 
Q 1428 2844 1947 2747 
L 2328 2669 
Q 3034 2534 3370 2195 
Q 3706 1856 3706 1288 
Q 3706 609 3251 259 
Q 2797 -91 1919 -91 
Q 1588 -91 1214 -16 
Q 841 59 441 206 
L 441 856 
Q 825 641 1194 531 
Q 1563 422 1919 422 
Q 2459 422 2753 634 
Q 3047 847 3047 1241 
Q 3047 1584 2836 1778 
Q 2625 1972 2144 2069 
L 1759 2144 
Q 1053 2284 737 2584 
Q 422 2884 422 3419 
Q 422 4038 858 4394 
Q 1294 4750 2059 4750 
Q 2388 4750 2728 4690 
Q 3069 4631 3425 4513 
z
" transform="scale(0.015625)"/>
      <path id="DejaVuSans-75" d="M 544 1381 
L 544 3500 
L 1119 3500 
L 1119 1403 
Q 1119 906 1312 657 
Q 1506 409 1894 409 
Q 2359 409 2629 706 
Q 2900 1003 2900 1516 
L 2900 3500 
L 3475 3500 
L 3475 0 
L 2900 0 
L 2900 538 
Q 2691 219 2414 64 
Q 2138 -91 1772 -91 
Q 1169 -91 856 284 
Q 544 659 544 1381 
z
M 1991 3584 
L 1991 3584 
z
" transform="scale(0.015625)"/>
      <path id="DejaVuSans-61" d="M 2194 1759 
Q 1497 1759 1228 1600 
Q 959 1441 959 1056 
Q 959 750 1161 570 
Q 1363 391 1709 391 
Q 2188 391 2477 730 
Q 2766 1069 2766 1631 
L 2766 1759 
L 2194 1759 
z
M 3341 1997 
L 3341 0 
L 2766 0 
L 2766 531 
Q 2569 213 2275 61 
Q 1981 -91 1556 -91 
Q 1019 -91 701 211 
Q 384 513 384 1019 
Q 384 1609 779 1909 
Q 1175 2209 1959 2209 
L 2766 2209 
L 2766 2266 
Q 2766 2663 2505 2880 
Q 2244 3097 1772 3097 
Q 1472 3097 1187 3025 
Q 903 2953 641 2809 
L 641 3341 
Q 956 3463 1253 3523 
Q 1550 3584 1831 3584 
Q 2591 3584 2966 3190 
Q 3341 2797 3341 1997 
z
" transform="scale(0.015625)"/>
      <path id="DejaVuSans-72" d="M 2631 2963 
Q 2534 3019 2420 3045 
Q 2306 3072 2169 3072 
Q 1681 3072 1420 2755 
Q 1159 2438 1159 1844 
L 1159 0 
L 581 0 
L 581 3500 
L 1159 3500 
L 1159 2956 
Q 1341 3275 1631 3429 
Q 1922 3584 2338 3584 
Q 2397 3584 2469 3576 
Q 2541 3569 2628 3553 
L 2631 2963 
z
" transform="scale(0.015625)"/>
      <path id="DejaVuSans-79" d="M 2059 -325 
Q 1816 -950 1584 -1140 
Q 1353 -1331 966 -1331 
L 506 -1331 
L 506 -850 
L 844 -850 
Q 1081 -850 1212 -737 
Q 1344 -625 1503 -206 
L 1606 56 
L 191 3500 
L 800 3500 
L 1894 763 
L 2988 3500 
L 3597 3500 
L 2059 -325 
z
" transform="scale(0.015625)"/>
     </defs>
     <use xlink:href="#DejaVuSans-53"/>
     <use xlink:href="#DejaVuSans-75" x="63.476562"/>
     <use xlink:href="#DejaVuSans-6d" x="126.855469"/>
     <use xlink:href="#DejaVuSans-6d" x="224.267578"/>
     <use xlink:href="#DejaVuSans-61" x="321.679688"/>
     <use xlink:href="#DejaVuSans-72" x="382.958984"/>
     <use xlink:href="#DejaVuSans-79" x="424.072266"/>
    </g>
    <!-- $Q_I$: 36$\pm$49 k -->
    <g transform="translate(425.571312 66.60425) scale(0.1 -0.1)">
     <defs>
      <path id="DejaVuSans-Oblique-51" d="M 2309 -84 
Q 2275 -88 2237 -89 
Q 2200 -91 2125 -91 
Q 1250 -91 756 411 
Q 263 913 263 1797 
Q 263 2319 452 2844 
Q 641 3369 978 3788 
Q 1369 4269 1858 4509 
Q 2347 4750 2938 4750 
Q 3794 4750 4287 4245 
Q 4781 3741 4781 2869 
Q 4781 1928 4265 1147 
Q 3750 366 2919 44 
L 3553 -825 
L 2847 -825 
L 2309 -84 
z
M 2919 4238 
Q 2400 4238 2003 3986 
Q 1606 3734 1313 3219 
Q 1125 2891 1026 2522 
Q 928 2153 928 1778 
Q 928 1128 1239 775 
Q 1550 422 2119 422 
Q 2631 422 3032 676 
Q 3434 931 3719 1434 
Q 3909 1772 4009 2142 
Q 4109 2513 4109 2881 
Q 4109 3528 3796 3883 
Q 3484 4238 2919 4238 
z
" transform="scale(0.015625)"/>
      <path id="DejaVuSans-Oblique-49" d="M 1081 4666 
L 1716 4666 
L 806 0 
L 172 0 
L 1081 4666 
z
" transform="scale(0.015625)"/>
      <path id="DejaVuSans-3a" d="M 750 794 
L 1409 794 
L 1409 0 
L 750 0 
L 750 794 
z
M 750 3309 
L 1409 3309 
L 1409 2516 
L 750 2516 
L 750 3309 
z
" transform="scale(0.015625)"/>
      <path id="DejaVuSans-33" d="M 2597 2516 
Q 3050 2419 3304 2112 
Q 3559 1806 3559 1356 
Q 3559 666 3084 287 
Q 2609 -91 1734 -91 
Q 1441 -91 1130 -33 
Q 819 25 488 141 
L 488 750 
Q 750 597 1062 519 
Q 1375 441 1716 441 
Q 2309 441 2620 675 
Q 2931 909 2931 1356 
Q 2931 1769 2642 2001 
Q 2353 2234 1838 2234 
L 1294 2234 
L 1294 2753 
L 1863 2753 
Q 2328 2753 2575 2939 
Q 2822 3125 2822 3475 
Q 2822 3834 2567 4026 
Q 2313 4219 1838 4219 
Q 1578 4219 1281 4162 
Q 984 4106 628 3988 
L 628 4550 
Q 988 4650 1302 4700 
Q 1616 4750 1894 4750 
Q 2613 4750 3031 4423 
Q 3450 4097 3450 3541 
Q 3450 3153 3228 2886 
Q 3006 2619 2597 2516 
z
" transform="scale(0.015625)"/>
      <path id="DejaVuSans-b1" d="M 2944 4013 
L 2944 2803 
L 4684 2803 
L 4684 2272 
L 2944 2272 
L 2944 1063 
L 2419 1063 
L 2419 2272 
L 678 2272 
L 678 2803 
L 2419 2803 
L 2419 4013 
L 2944 4013 
z
M 678 531 
L 4684 531 
L 4684 0 
L 678 0 
L 678 531 
z
" transform="scale(0.015625)"/>
      <path id="DejaVuSans-39" d="M 703 97 
L 703 672 
Q 941 559 1184 500 
Q 1428 441 1663 441 
Q 2288 441 2617 861 
Q 2947 1281 2994 2138 
Q 2813 1869 2534 1725 
Q 2256 1581 1919 1581 
Q 1219 1581 811 2004 
Q 403 2428 403 3163 
Q 403 3881 828 4315 
Q 1253 4750 1959 4750 
Q 2769 4750 3195 4129 
Q 3622 3509 3622 2328 
Q 3622 1225 3098 567 
Q 2575 -91 1691 -91 
Q 1453 -91 1209 -44 
Q 966 3 703 97 
z
M 1959 2075 
Q 2384 2075 2632 2365 
Q 2881 2656 2881 3163 
Q 2881 3666 2632 3958 
Q 2384 4250 1959 4250 
Q 1534 4250 1286 3958 
Q 1038 3666 1038 3163 
Q 1038 2656 1286 2365 
Q 1534 2075 1959 2075 
z
" transform="scale(0.015625)"/>
      <path id="DejaVuSans-6b" d="M 581 4863 
L 1159 4863 
L 1159 1991 
L 2875 3500 
L 3609 3500 
L 1753 1863 
L 3688 0 
L 2938 0 
L 1159 1709 
L 1159 0 
L 581 0 
L 581 4863 
z
" transform="scale(0.015625)"/>
     </defs>
     <use xlink:href="#DejaVuSans-Oblique-51" transform="translate(0 0.015625)"/>
     <use xlink:href="#DejaVuSans-Oblique-49" transform="translate(78.710938 -16.390625) scale(0.7)"/>
     <use xlink:href="#DejaVuSans-3a" transform="translate(102.089844 0.015625)"/>
     <use xlink:href="#DejaVuSans-20" transform="translate(135.78125 0.015625)"/>
     <use xlink:href="#DejaVuSans-33" transform="translate(167.568359 0.015625)"/>
     <use xlink:href="#DejaVuSans-36" transform="translate(231.191406 0.015625)"/>
     <use xlink:href="#DejaVuSans-b1" transform="translate(294.814453 0.015625)"/>
     <use xlink:href="#DejaVuSans-34" transform="translate(378.603516 0.015625)"/>
     <use xlink:href="#DejaVuSans-39" transform="translate(442.226562 0.015625)"/>
     <use xlink:href="#DejaVuSans-20" transform="translate(505.849609 0.015625)"/>
     <use xlink:href="#DejaVuSans-6b" transform="translate(537.636719 0.015625)"/>
    </g>
    <!-- $Q_C$: 37.$\pm$2.8e+04 M -->
    <g transform="translate(425.571312 77.802062) scale(0.1 -0.1)">
     <defs>
      <path id="DejaVuSans-Oblique-43" d="M 4447 4306 
L 4319 3641 
Q 4019 3944 3683 4091 
Q 3347 4238 2956 4238 
Q 2422 4238 2017 3981 
Q 1613 3725 1319 3200 
Q 1131 2863 1032 2486 
Q 934 2109 934 1728 
Q 934 1091 1264 756 
Q 1594 422 2222 422 
Q 2656 422 3056 561 
Q 3456 700 3834 978 
L 3688 231 
Q 3316 72 2936 -9 
Q 2556 -91 2175 -91 
Q 1278 -91 773 396 
Q 269 884 269 1753 
Q 269 2309 461 2846 
Q 653 3384 1013 3828 
Q 1394 4300 1883 4525 
Q 2372 4750 3022 4750 
Q 3422 4750 3780 4639 
Q 4138 4528 4447 4306 
z
" transform="scale(0.015625)"/>
      <path id="DejaVuSans-37" d="M 525 4666 
L 3525 4666 
L 3525 4397 
L 1831 0 
L 1172 0 
L 2766 4134 
L 525 4134 
L 525 4666 
z
" transform="scale(0.015625)"/>
      <path id="DejaVuSans-2e" d="M 684 794 
L 1344 794 
L 1344 0 
L 684 0 
L 684 794 
z
" transform="scale(0.015625)"/>
      <path id="DejaVuSans-65" d="M 3597 1894 
L 3597 1613 
L 953 1613 
Q 991 1019 1311 708 
Q 1631 397 2203 397 
Q 2534 397 2845 478 
Q 3156 559 3463 722 
L 3463 178 
Q 3153 47 2828 -22 
Q 2503 -91 2169 -91 
Q 1331 -91 842 396 
Q 353 884 353 1716 
Q 353 2575 817 3079 
Q 1281 3584 2069 3584 
Q 2775 3584 3186 3129 
Q 3597 2675 3597 1894 
z
M 3022 2063 
Q 3016 2534 2758 2815 
Q 2500 3097 2075 3097 
Q 1594 3097 1305 2825 
Q 1016 2553 972 2059 
L 3022 2063 
z
" transform="scale(0.015625)"/>
      <path id="DejaVuSans-2b" d="M 2944 4013 
L 2944 2272 
L 4684 2272 
L 4684 1741 
L 2944 1741 
L 2944 0 
L 2419 0 
L 2419 1741 
L 678 1741 
L 678 2272 
L 2419 2272 
L 2419 4013 
L 2944 4013 
z
" transform="scale(0.015625)"/>
      <path id="DejaVuSans-4d" d="M 628 4666 
L 1569 4666 
L 2759 1491 
L 3956 4666 
L 4897 4666 
L 4897 0 
L 4281 0 
L 4281 4097 
L 3078 897 
L 2444 897 
L 1241 4097 
L 1241 0 
L 628 0 
L 628 4666 
z
" transform="scale(0.015625)"/>
     </defs>
     <use xlink:href="#DejaVuSans-Oblique-51" transform="translate(0 0.78125)"/>
     <use xlink:href="#DejaVuSans-Oblique-43" transform="translate(78.710938 -15.625) scale(0.7)"/>
     <use xlink:href="#DejaVuSans-3a" transform="translate(130.322266 0.78125)"/>
     <use xlink:href="#DejaVuSans-20" transform="translate(164.013672 0.78125)"/>
     <use xlink:href="#DejaVuSans-33" transform="translate(195.800781 0.78125)"/>
     <use xlink:href="#DejaVuSans-37" transform="translate(259.423828 0.78125)"/>
     <use xlink:href="#DejaVuSans-2e" transform="translate(323.046875 0.78125)"/>
     <use xlink:href="#DejaVuSans-b1" transform="translate(354.833984 0.78125)"/>
     <use xlink:href="#DejaVuSans-32" transform="translate(438.623047 0.78125)"/>
     <use xlink:href="#DejaVuSans-2e" transform="translate(502.246094 0.78125)"/>
     <use xlink:href="#DejaVuSans-38" transform="translate(531.408203 0.78125)"/>
     <use xlink:href="#DejaVuSans-65" transform="translate(595.03125 0.78125)"/>
     <use xlink:href="#DejaVuSans-2b" transform="translate(656.554688 0.78125)"/>
     <use xlink:href="#DejaVuSans-30" transform="translate(740.34375 0.78125)"/>
     <use xlink:href="#DejaVuSans-34" transform="translate(803.966797 0.78125)"/>
     <use xlink:href="#DejaVuSans-20" transform="translate(867.589844 0.78125)"/>
     <use xlink:href="#DejaVuSans-4d" transform="translate(899.376953 0.78125)"/>
    </g>
    <!-- $f_{res}$: 5.999071$\pm$9.6e-05 GHz -->
    <g transform="translate(425.571312 88.999875) scale(0.1 -0.1)">
     <defs>
      <path id="DejaVuSans-Oblique-66" d="M 3059 4863 
L 2969 4384 
L 2419 4384 
Q 2106 4384 1964 4261 
Q 1822 4138 1753 3809 
L 1691 3500 
L 2638 3500 
L 2553 3053 
L 1606 3053 
L 1013 0 
L 434 0 
L 1031 3053 
L 481 3053 
L 563 3500 
L 1113 3500 
L 1159 3744 
Q 1278 4363 1576 4613 
Q 1875 4863 2516 4863 
L 3059 4863 
z
" transform="scale(0.015625)"/>
      <path id="DejaVuSans-Oblique-72" d="M 2853 2969 
Q 2766 3016 2653 3041 
Q 2541 3066 2413 3066 
Q 1953 3066 1609 2717 
Q 1266 2369 1153 1784 
L 800 0 
L 225 0 
L 909 3500 
L 1484 3500 
L 1375 2956 
Q 1603 3259 1920 3421 
Q 2238 3584 2597 3584 
Q 2691 3584 2781 3573 
Q 2872 3563 2963 3538 
L 2853 2969 
z
" transform="scale(0.015625)"/>
      <path id="DejaVuSans-Oblique-65" d="M 3078 2063 
Q 3088 2113 3092 2166 
Q 3097 2219 3097 2272 
Q 3097 2653 2873 2875 
Q 2650 3097 2266 3097 
Q 1838 3097 1509 2826 
Q 1181 2556 1013 2059 
L 3078 2063 
z
M 3578 1613 
L 903 1613 
Q 884 1494 878 1425 
Q 872 1356 872 1306 
Q 872 872 1139 634 
Q 1406 397 1894 397 
Q 2269 397 2603 481 
Q 2938 566 3225 728 
L 3116 159 
Q 2806 34 2476 -28 
Q 2147 -91 1806 -91 
Q 1078 -91 686 257 
Q 294 606 294 1247 
Q 294 1794 489 2264 
Q 684 2734 1063 3103 
Q 1306 3334 1642 3459 
Q 1978 3584 2356 3584 
Q 2950 3584 3301 3228 
Q 3653 2872 3653 2272 
Q 3653 2128 3634 1964 
Q 3616 1800 3578 1613 
z
" transform="scale(0.015625)"/>
      <path id="DejaVuSans-Oblique-73" d="M 3200 3397 
L 3091 2853 
Q 2863 2978 2609 3040 
Q 2356 3103 2088 3103 
Q 1634 3103 1373 2948 
Q 1113 2794 1113 2528 
Q 1113 2219 1719 2053 
Q 1766 2041 1788 2034 
L 1972 1978 
Q 2547 1819 2739 1644 
Q 2931 1469 2931 1166 
Q 2931 609 2489 259 
Q 2047 -91 1331 -91 
Q 1053 -91 747 -37 
Q 441 16 72 128 
L 184 722 
Q 500 559 806 475 
Q 1113 391 1394 391 
Q 1816 391 2080 572 
Q 2344 753 2344 1031 
Q 2344 1331 1650 1516 
L 1591 1531 
L 1394 1581 
Q 956 1697 753 1886 
Q 550 2075 550 2369 
Q 550 2928 970 3256 
Q 1391 3584 2113 3584 
Q 2397 3584 2667 3537 
Q 2938 3491 3200 3397 
z
" transform="scale(0.015625)"/>
      <path id="DejaVuSans-35" d="M 691 4666 
L 3169 4666 
L 3169 4134 
L 1269 4134 
L 1269 2991 
Q 1406 3038 1543 3061 
Q 1681 3084 1819 3084 
Q 2600 3084 3056 2656 
Q 3513 2228 3513 1497 
Q 3513 744 3044 326 
Q 2575 -91 1722 -91 
Q 1428 -91 1123 -41 
Q 819 9 494 109 
L 494 744 
Q 775 591 1075 516 
Q 1375 441 1709 441 
Q 2250 441 2565 725 
Q 2881 1009 2881 1497 
Q 2881 1984 2565 2268 
Q 2250 2553 1709 2553 
Q 1456 2553 1204 2497 
Q 953 2441 691 2322 
L 691 4666 
z
" transform="scale(0.015625)"/>
      <path id="DejaVuSans-2d" d="M 313 2009 
L 1997 2009 
L 1997 1497 
L 313 1497 
L 313 2009 
z
" transform="scale(0.015625)"/>
      <path id="DejaVuSans-47" d="M 3809 666 
L 3809 1919 
L 2778 1919 
L 2778 2438 
L 4434 2438 
L 4434 434 
Q 4069 175 3628 42 
Q 3188 -91 2688 -91 
Q 1594 -91 976 548 
Q 359 1188 359 2328 
Q 359 3472 976 4111 
Q 1594 4750 2688 4750 
Q 3144 4750 3555 4637 
Q 3966 4525 4313 4306 
L 4313 3634 
Q 3963 3931 3569 4081 
Q 3175 4231 2741 4231 
Q 1884 4231 1454 3753 
Q 1025 3275 1025 2328 
Q 1025 1384 1454 906 
Q 1884 428 2741 428 
Q 3075 428 3337 486 
Q 3600 544 3809 666 
z
" transform="scale(0.015625)"/>
      <path id="DejaVuSans-48" d="M 628 4666 
L 1259 4666 
L 1259 2753 
L 3553 2753 
L 3553 4666 
L 4184 4666 
L 4184 0 
L 3553 0 
L 3553 2222 
L 1259 2222 
L 1259 0 
L 628 0 
L 628 4666 
z
" transform="scale(0.015625)"/>
      <path id="DejaVuSans-7a" d="M 353 3500 
L 3084 3500 
L 3084 2975 
L 922 459 
L 3084 459 
L 3084 0 
L 275 0 
L 275 525 
L 2438 3041 
L 353 3041 
L 353 3500 
z
" transform="scale(0.015625)"/>
     </defs>
     <use xlink:href="#DejaVuSans-Oblique-66" transform="translate(0 0.015625)"/>
     <use xlink:href="#DejaVuSans-Oblique-72" transform="translate(35.205078 -16.390625) scale(0.7)"/>
     <use xlink:href="#DejaVuSans-Oblique-65" transform="translate(63.984375 -16.390625) scale(0.7)"/>
     <use xlink:href="#DejaVuSans-Oblique-73" transform="translate(107.050781 -16.390625) scale(0.7)"/>
     <use xlink:href="#DejaVuSans-3a" transform="translate(146.254883 0.015625)"/>
     <use xlink:href="#DejaVuSans-20" transform="translate(179.946289 0.015625)"/>
     <use xlink:href="#DejaVuSans-35" transform="translate(211.733398 0.015625)"/>
     <use xlink:href="#DejaVuSans-2e" transform="translate(275.356445 0.015625)"/>
     <use xlink:href="#DejaVuSans-39" transform="translate(307.143555 0.015625)"/>
     <use xlink:href="#DejaVuSans-39" transform="translate(370.766602 0.015625)"/>
     <use xlink:href="#DejaVuSans-39" transform="translate(434.389648 0.015625)"/>
     <use xlink:href="#DejaVuSans-30" transform="translate(498.012695 0.015625)"/>
     <use xlink:href="#DejaVuSans-37" transform="translate(561.635742 0.015625)"/>
     <use xlink:href="#DejaVuSans-31" transform="translate(625.258789 0.015625)"/>
     <use xlink:href="#DejaVuSans-b1" transform="translate(688.881836 0.015625)"/>
     <use xlink:href="#DejaVuSans-39" transform="translate(772.670898 0.015625)"/>
     <use xlink:href="#DejaVuSans-2e" transform="translate(836.293945 0.015625)"/>
     <use xlink:href="#DejaVuSans-36" transform="translate(868.081055 0.015625)"/>
     <use xlink:href="#DejaVuSans-65" transform="translate(931.704102 0.015625)"/>
     <use xlink:href="#DejaVuSans-2d" transform="translate(993.227539 0.015625)"/>
     <use xlink:href="#DejaVuSans-30" transform="translate(1029.311523 0.015625)"/>
     <use xlink:href="#DejaVuSans-35" transform="translate(1092.93457 0.015625)"/>
     <use xlink:href="#DejaVuSans-20" transform="translate(1156.557617 0.015625)"/>
     <use xlink:href="#DejaVuSans-47" transform="translate(1188.344727 0.015625)"/>
     <use xlink:href="#DejaVuSans-48" transform="translate(1265.834961 0.015625)"/>
     <use xlink:href="#DejaVuSans-7a" transform="translate(1341.030273 0.015625)"/>
    </g>
   </g>
  </g>
  <g id="axes_2">
   <g id="patch_8">
    <path d="M 50.595313 307.872 
L 407.715312 307.872 
L 407.715312 186.912 
L 50.595313 186.912 
z
" style="fill: #ffffff"/>
   </g>
   <g id="matplotlib.axis_3">
    <g id="xtick_9">
     <g id="line2d_16">
      <g>
       <use xlink:href="#m05d43912fd" x="88.471676" y="307.872" style="stroke: #000000; stroke-width: 0.8"/>
      </g>
     </g>
     <g id="text_8">
      <!-- -4 -->
      <g transform="translate(83.48652 322.470438) scale(0.1 -0.1)">
       <use xlink:href="#DejaVuSans-2d"/>
       <use xlink:href="#DejaVuSans-34" x="36.083984"/>
      </g>
     </g>
    </g>
    <g id="xtick_10">
     <g id="line2d_17">
      <g>
       <use xlink:href="#m05d43912fd" x="131.758949" y="307.872" style="stroke: #000000; stroke-width: 0.8"/>
      </g>
     </g>
     <g id="text_9">
      <!-- -2 -->
      <g transform="translate(126.773793 322.470438) scale(0.1 -0.1)">
       <use xlink:href="#DejaVuSans-2d"/>
       <use xlink:href="#DejaVuSans-32" x="36.083984"/>
      </g>
     </g>
    </g>
    <g id="xtick_11">
     <g id="line2d_18">
      <g>
       <use xlink:href="#m05d43912fd" x="175.046222" y="307.872" style="stroke: #000000; stroke-width: 0.8"/>
      </g>
     </g>
     <g id="text_10">
      <!-- 0 -->
      <g transform="translate(171.864972 322.470438) scale(0.1 -0.1)">
       <use xlink:href="#DejaVuSans-30"/>
      </g>
     </g>
    </g>
    <g id="xtick_12">
     <g id="line2d_19">
      <g>
       <use xlink:href="#m05d43912fd" x="218.333494" y="307.872" style="stroke: #000000; stroke-width: 0.8"/>
      </g>
     </g>
     <g id="text_11">
      <!-- 2 -->
      <g transform="translate(215.152244 322.470438) scale(0.1 -0.1)">
       <use xlink:href="#DejaVuSans-32"/>
      </g>
     </g>
    </g>
    <g id="xtick_13">
     <g id="line2d_20">
      <g>
       <use xlink:href="#m05d43912fd" x="261.620767" y="307.872" style="stroke: #000000; stroke-width: 0.8"/>
      </g>
     </g>
     <g id="text_12">
      <!-- 4 -->
      <g transform="translate(258.439517 322.470438) scale(0.1 -0.1)">
       <use xlink:href="#DejaVuSans-34"/>
      </g>
     </g>
    </g>
    <g id="xtick_14">
     <g id="line2d_21">
      <g>
       <use xlink:href="#m05d43912fd" x="304.90804" y="307.872" style="stroke: #000000; stroke-width: 0.8"/>
      </g>
     </g>
     <g id="text_13">
      <!-- 6 -->
      <g transform="translate(301.72679 322.470438) scale(0.1 -0.1)">
       <use xlink:href="#DejaVuSans-36"/>
      </g>
     </g>
    </g>
    <g id="xtick_15">
     <g id="line2d_22">
      <g>
       <use xlink:href="#m05d43912fd" x="348.195312" y="307.872" style="stroke: #000000; stroke-width: 0.8"/>
      </g>
     </g>
     <g id="text_14">
      <!-- 8 -->
      <g transform="translate(345.014063 322.470438) scale(0.1 -0.1)">
       <use xlink:href="#DejaVuSans-38"/>
      </g>
     </g>
    </g>
    <g id="xtick_16">
     <g id="line2d_23">
      <g>
       <use xlink:href="#m05d43912fd" x="391.482585" y="307.872" style="stroke: #000000; stroke-width: 0.8"/>
      </g>
     </g>
     <g id="text_15">
      <!-- 10 -->
      <g transform="translate(385.120085 322.470438) scale(0.1 -0.1)">
       <use xlink:href="#DejaVuSans-31"/>
       <use xlink:href="#DejaVuSans-30" x="63.623047"/>
      </g>
     </g>
    </g>
    <g id="text_16">
     <!-- Frequency [MHz] -->
     <g transform="translate(187.136562 336.148562) scale(0.1 -0.1)">
      <defs>
       <path id="DejaVuSans-46" d="M 628 4666 
L 3309 4666 
L 3309 4134 
L 1259 4134 
L 1259 2759 
L 3109 2759 
L 3109 2228 
L 1259 2228 
L 1259 0 
L 628 0 
L 628 4666 
z
" transform="scale(0.015625)"/>
       <path id="DejaVuSans-71" d="M 947 1747 
Q 947 1113 1208 752 
Q 1469 391 1925 391 
Q 2381 391 2643 752 
Q 2906 1113 2906 1747 
Q 2906 2381 2643 2742 
Q 2381 3103 1925 3103 
Q 1469 3103 1208 2742 
Q 947 2381 947 1747 
z
M 2906 525 
Q 2725 213 2448 61 
Q 2172 -91 1784 -91 
Q 1150 -91 751 415 
Q 353 922 353 1747 
Q 353 2572 751 3078 
Q 1150 3584 1784 3584 
Q 2172 3584 2448 3432 
Q 2725 3281 2906 2969 
L 2906 3500 
L 3481 3500 
L 3481 -1331 
L 2906 -1331 
L 2906 525 
z
" transform="scale(0.015625)"/>
       <path id="DejaVuSans-6e" d="M 3513 2113 
L 3513 0 
L 2938 0 
L 2938 2094 
Q 2938 2591 2744 2837 
Q 2550 3084 2163 3084 
Q 1697 3084 1428 2787 
Q 1159 2491 1159 1978 
L 1159 0 
L 581 0 
L 581 3500 
L 1159 3500 
L 1159 2956 
Q 1366 3272 1645 3428 
Q 1925 3584 2291 3584 
Q 2894 3584 3203 3211 
Q 3513 2838 3513 2113 
z
" transform="scale(0.015625)"/>
       <path id="DejaVuSans-63" d="M 3122 3366 
L 3122 2828 
Q 2878 2963 2633 3030 
Q 2388 3097 2138 3097 
Q 1578 3097 1268 2742 
Q 959 2388 959 1747 
Q 959 1106 1268 751 
Q 1578 397 2138 397 
Q 2388 397 2633 464 
Q 2878 531 3122 666 
L 3122 134 
Q 2881 22 2623 -34 
Q 2366 -91 2075 -91 
Q 1284 -91 818 406 
Q 353 903 353 1747 
Q 353 2603 823 3093 
Q 1294 3584 2113 3584 
Q 2378 3584 2631 3529 
Q 2884 3475 3122 3366 
z
" transform="scale(0.015625)"/>
      </defs>
      <use xlink:href="#DejaVuSans-46"/>
      <use xlink:href="#DejaVuSans-72" x="50.269531"/>
      <use xlink:href="#DejaVuSans-65" x="89.132812"/>
      <use xlink:href="#DejaVuSans-71" x="150.65625"/>
      <use xlink:href="#DejaVuSans-75" x="214.132812"/>
      <use xlink:href="#DejaVuSans-65" x="277.511719"/>
      <use xlink:href="#DejaVuSans-6e" x="339.035156"/>
      <use xlink:href="#DejaVuSans-63" x="402.414062"/>
      <use xlink:href="#DejaVuSans-79" x="457.394531"/>
      <use xlink:href="#DejaVuSans-20" x="516.574219"/>
      <use xlink:href="#DejaVuSans-5b" x="548.361328"/>
      <use xlink:href="#DejaVuSans-4d" x="587.375"/>
      <use xlink:href="#DejaVuSans-48" x="673.654297"/>
      <use xlink:href="#DejaVuSans-7a" x="748.849609"/>
      <use xlink:href="#DejaVuSans-5d" x="801.339844"/>
     </g>
    </g>
    <g id="text_17">
     <!-- +6 GHz -->
     <g transform="translate(369.277812 335.148562) scale(0.1 -0.1)">
      <use xlink:href="#DejaVuSans-2b"/>
      <use xlink:href="#DejaVuSans-36" x="83.789062"/>
      <use xlink:href="#DejaVuSans-20" x="147.412109"/>
      <use xlink:href="#DejaVuSans-47" x="179.199219"/>
      <use xlink:href="#DejaVuSans-48" x="256.689453"/>
      <use xlink:href="#DejaVuSans-7a" x="331.884766"/>
     </g>
    </g>
   </g>
   <g id="matplotlib.axis_4">
    <g id="ytick_6">
     <g id="line2d_24">
      <g>
       <use xlink:href="#mac105e7fbb" x="50.595313" y="277.972028" style="stroke: #000000; stroke-width: 0.8"/>
      </g>
     </g>
     <g id="text_18">
      <!-- -100 -->
      <g transform="translate(20.9 281.771246) scale(0.1 -0.1)">
       <use xlink:href="#DejaVuSans-2d"/>
       <use xlink:href="#DejaVuSans-31" x="36.083984"/>
       <use xlink:href="#DejaVuSans-30" x="99.707031"/>
       <use xlink:href="#DejaVuSans-30" x="163.330078"/>
      </g>
     </g>
    </g>
    <g id="ytick_7">
     <g id="line2d_25">
      <g>
       <use xlink:href="#mac105e7fbb" x="50.595313" y="247.383353" style="stroke: #000000; stroke-width: 0.8"/>
      </g>
     </g>
     <g id="text_19">
      <!-- 0 -->
      <g transform="translate(37.232813 251.182571) scale(0.1 -0.1)">
       <use xlink:href="#DejaVuSans-30"/>
      </g>
     </g>
    </g>
    <g id="ytick_8">
     <g id="line2d_26">
      <g>
       <use xlink:href="#mac105e7fbb" x="50.595313" y="216.794678" style="stroke: #000000; stroke-width: 0.8"/>
      </g>
     </g>
     <g id="text_20">
      <!-- 100 -->
      <g transform="translate(24.507813 220.593896) scale(0.1 -0.1)">
       <use xlink:href="#DejaVuSans-31"/>
       <use xlink:href="#DejaVuSans-30" x="63.623047"/>
       <use xlink:href="#DejaVuSans-30" x="127.246094"/>
      </g>
     </g>
    </g>
    <g id="text_21">
     <!-- $\angle S_{21}$ [deg] -->
     <g transform="translate(14.8 274.592) rotate(-90) scale(0.1 -0.1)">
      <defs>
       <path id="DejaVuSans-2220" d="M 5028 631 
L 5028 0 
L 547 0 
L 3525 4666 
L 4281 4666 
L 1716 631 
L 5028 631 
z
" transform="scale(0.015625)"/>
       <path id="DejaVuSans-64" d="M 2906 2969 
L 2906 4863 
L 3481 4863 
L 3481 0 
L 2906 0 
L 2906 525 
Q 2725 213 2448 61 
Q 2172 -91 1784 -91 
Q 1150 -91 751 415 
Q 353 922 353 1747 
Q 353 2572 751 3078 
Q 1150 3584 1784 3584 
Q 2172 3584 2448 3432 
Q 2725 3281 2906 2969 
z
M 947 1747 
Q 947 1113 1208 752 
Q 1469 391 1925 391 
Q 2381 391 2643 752 
Q 2906 1113 2906 1747 
Q 2906 2381 2643 2742 
Q 2381 3103 1925 3103 
Q 1469 3103 1208 2742 
Q 947 2381 947 1747 
z
" transform="scale(0.015625)"/>
       <path id="DejaVuSans-67" d="M 2906 1791 
Q 2906 2416 2648 2759 
Q 2391 3103 1925 3103 
Q 1463 3103 1205 2759 
Q 947 2416 947 1791 
Q 947 1169 1205 825 
Q 1463 481 1925 481 
Q 2391 481 2648 825 
Q 2906 1169 2906 1791 
z
M 3481 434 
Q 3481 -459 3084 -895 
Q 2688 -1331 1869 -1331 
Q 1566 -1331 1297 -1286 
Q 1028 -1241 775 -1147 
L 775 -588 
Q 1028 -725 1275 -790 
Q 1522 -856 1778 -856 
Q 2344 -856 2625 -561 
Q 2906 -266 2906 331 
L 2906 616 
Q 2728 306 2450 153 
Q 2172 0 1784 0 
Q 1141 0 747 490 
Q 353 981 353 1791 
Q 353 2603 747 3093 
Q 1141 3584 1784 3584 
Q 2172 3584 2450 3431 
Q 2728 3278 2906 2969 
L 2906 3500 
L 3481 3500 
L 3481 434 
z
" transform="scale(0.015625)"/>
      </defs>
      <use xlink:href="#DejaVuSans-2220" transform="translate(0 0.015625)"/>
      <use xlink:href="#DejaVuSans-Oblique-53" transform="translate(89.648438 0.015625)"/>
      <use xlink:href="#DejaVuSans-32" transform="translate(153.125 -16.390625) scale(0.7)"/>
      <use xlink:href="#DejaVuSans-31" transform="translate(197.661133 -16.390625) scale(0.7)"/>
      <use xlink:href="#DejaVuSans-20" transform="translate(244.931641 0.015625)"/>
      <use xlink:href="#DejaVuSans-5b" transform="translate(276.71875 0.015625)"/>
      <use xlink:href="#DejaVuSans-64" transform="translate(315.732422 0.015625)"/>
      <use xlink:href="#DejaVuSans-65" transform="translate(379.208984 0.015625)"/>
      <use xlink:href="#DejaVuSans-67" transform="translate(440.732422 0.015625)"/>
      <use xlink:href="#DejaVuSans-5d" transform="translate(504.208984 0.015625)"/>
     </g>
    </g>
   </g>
   <g id="line2d_27">
    <path d="M 66.82804 220.141235 
L 68.45947 220.942652 
L 71.722329 221.232351 
L 74.985189 221.687488 
L 76.616619 222.237392 
L 78.248049 222.11375 
L 79.879479 222.1884 
L 84.773768 222.949589 
L 86.405198 223.784348 
L 88.036628 223.751933 
L 89.668058 224.096982 
L 91.299488 224.68085 
L 94.562348 224.848646 
L 96.193778 225.278573 
L 97.825207 226.090782 
L 99.456637 226.060069 
L 101.088067 226.270742 
L 102.719497 226.826402 
L 104.350927 227.132161 
L 105.982357 227.696111 
L 107.613787 228.451368 
L 109.245217 228.761979 
L 110.876646 228.479332 
L 112.508076 229.173351 
L 114.139506 230.327254 
L 115.770936 230.18869 
L 117.402366 230.90295 
L 120.665226 231.977256 
L 122.296656 232.845695 
L 123.928085 234.158086 
L 125.559515 234.335548 
L 127.190945 234.732891 
L 130.453805 237.187664 
L 132.085235 237.769583 
L 133.716665 238.792024 
L 135.348095 239.461151 
L 136.979524 240.365564 
L 138.610954 243.776897 
L 140.242384 242.825352 
L 141.873814 246.633035 
L 143.505244 246.885566 
L 145.136674 248.621803 
L 148.399534 253.00857 
L 150.030963 252.766119 
L 151.662393 257.472979 
L 153.293823 258.588079 
L 154.925253 265.087467 
L 156.556683 259.947854 
L 158.188113 261.5898 
L 159.819543 266.661835 
L 161.450973 272.486067 
L 163.082402 268.194386 
L 164.713832 219.212199 
L 166.345262 277.825633 
L 167.976692 206.849882 
L 169.608122 239.422816 
L 171.239552 254.487569 
L 172.870982 255.074469 
L 174.502412 242.090321 
L 176.133842 300.279457 
L 177.765271 257.595201 
L 179.396701 203.401559 
L 181.028131 246.250395 
L 182.659561 271.645218 
L 184.290991 282.118829 
L 185.922421 280.953876 
L 187.553851 275.001449 
L 189.185281 279.042481 
L 190.81671 278.735734 
L 192.44814 288.496112 
L 194.07957 283.166283 
L 195.711 284.856248 
L 197.34243 289.094228 
L 200.60529 293.363316 
L 202.23672 297.535968 
L 203.868149 298.842342 
L 205.499579 300.854182 
L 207.131009 193.281219 
L 208.762439 193.663704 
L 210.393869 194.436987 
L 212.025299 196.101118 
L 213.656729 198.732981 
L 215.288159 199.689186 
L 216.919588 200.228982 
L 218.551018 201.56078 
L 220.182448 202.471596 
L 221.813878 204.030464 
L 223.445308 205.17063 
L 225.076738 205.936821 
L 226.708168 206.089652 
L 228.339598 205.97148 
L 229.971027 206.382363 
L 231.602457 207.919633 
L 233.233887 208.427767 
L 236.496747 210.026037 
L 238.128177 210.539275 
L 239.759607 210.327929 
L 241.391037 210.873189 
L 243.022466 212.051828 
L 244.653896 212.022832 
L 246.285326 212.612884 
L 249.548186 213.247895 
L 251.179616 213.572123 
L 252.811046 214.666063 
L 254.442476 214.831309 
L 256.073905 214.573766 
L 257.705335 215.666853 
L 262.599625 216.51541 
L 264.231055 216.826289 
L 265.862485 216.771142 
L 267.493915 217.516346 
L 270.756774 218.288686 
L 272.388204 218.310988 
L 277.282494 219.417072 
L 278.913924 220.052259 
L 280.545354 220.026383 
L 282.176783 220.937043 
L 283.808213 220.333502 
L 285.439643 221.11105 
L 287.071073 221.724496 
L 288.702503 221.80028 
L 295.228223 223.045956 
L 296.859652 223.164243 
L 298.491082 224.081479 
L 300.122512 224.571114 
L 305.016802 225.432431 
L 306.648232 225.801885 
L 308.279662 225.890481 
L 309.911091 226.476091 
L 313.173951 228.08217 
L 314.805381 228.247315 
L 316.436811 228.756782 
L 318.068241 229.120163 
L 321.331101 230.290342 
L 322.96253 230.704232 
L 324.59396 231.98372 
L 329.48825 233.541805 
L 332.75111 235.164372 
L 336.013969 236.174937 
L 339.276829 237.900675 
L 340.908259 238.342102 
L 342.539689 238.528099 
L 344.171119 237.965067 
L 345.802549 239.05706 
L 347.433979 236.870851 
L 349.065408 233.931353 
L 350.696838 228.965359 
L 352.328268 222.397099 
L 353.959698 216.442961 
L 355.591128 211.764519 
L 357.222558 210.998241 
L 358.853988 211.330616 
L 360.485418 209.987749 
L 362.116847 210.571331 
L 363.748277 210.723422 
L 365.379707 210.346949 
L 368.642567 211.497798 
L 370.273997 212.606895 
L 371.905427 212.486353 
L 373.536857 213.329122 
L 375.168286 213.905118 
L 376.799716 214.039942 
L 378.431146 214.836956 
L 380.062576 215.205113 
L 381.694006 215.778743 
L 383.325436 215.803261 
L 384.956866 216.874364 
L 386.588296 216.497882 
L 389.851155 217.838097 
L 391.482585 218.120304 
L 391.482585 218.120304 
" clip-path="url(#paf2c3011bb)" style="fill: none; stroke: #1f77b4; stroke-width: 1.5; stroke-linecap: square"/>
    <g clip-path="url(#paf2c3011bb)">
     <use xlink:href="#m364e5161b9" x="66.82804" y="220.141235" style="fill: #1f77b4; stroke: #1f77b4"/>
     <use xlink:href="#m364e5161b9" x="68.45947" y="220.942652" style="fill: #1f77b4; stroke: #1f77b4"/>
     <use xlink:href="#m364e5161b9" x="70.0909" y="221.037457" style="fill: #1f77b4; stroke: #1f77b4"/>
     <use xlink:href="#m364e5161b9" x="71.722329" y="221.232351" style="fill: #1f77b4; stroke: #1f77b4"/>
     <use xlink:href="#m364e5161b9" x="73.353759" y="221.47272" style="fill: #1f77b4; stroke: #1f77b4"/>
     <use xlink:href="#m364e5161b9" x="74.985189" y="221.687488" style="fill: #1f77b4; stroke: #1f77b4"/>
     <use xlink:href="#m364e5161b9" x="76.616619" y="222.237392" style="fill: #1f77b4; stroke: #1f77b4"/>
     <use xlink:href="#m364e5161b9" x="78.248049" y="222.11375" style="fill: #1f77b4; stroke: #1f77b4"/>
     <use xlink:href="#m364e5161b9" x="79.879479" y="222.1884" style="fill: #1f77b4; stroke: #1f77b4"/>
     <use xlink:href="#m364e5161b9" x="81.510909" y="222.410621" style="fill: #1f77b4; stroke: #1f77b4"/>
     <use xlink:href="#m364e5161b9" x="83.142339" y="222.528606" style="fill: #1f77b4; stroke: #1f77b4"/>
     <use xlink:href="#m364e5161b9" x="84.773768" y="222.949589" style="fill: #1f77b4; stroke: #1f77b4"/>
     <use xlink:href="#m364e5161b9" x="86.405198" y="223.784348" style="fill: #1f77b4; stroke: #1f77b4"/>
     <use xlink:href="#m364e5161b9" x="88.036628" y="223.751933" style="fill: #1f77b4; stroke: #1f77b4"/>
     <use xlink:href="#m364e5161b9" x="89.668058" y="224.096982" style="fill: #1f77b4; stroke: #1f77b4"/>
     <use xlink:href="#m364e5161b9" x="91.299488" y="224.68085" style="fill: #1f77b4; stroke: #1f77b4"/>
     <use xlink:href="#m364e5161b9" x="92.930918" y="224.802343" style="fill: #1f77b4; stroke: #1f77b4"/>
     <use xlink:href="#m364e5161b9" x="94.562348" y="224.848646" style="fill: #1f77b4; stroke: #1f77b4"/>
     <use xlink:href="#m364e5161b9" x="96.193778" y="225.278573" style="fill: #1f77b4; stroke: #1f77b4"/>
     <use xlink:href="#m364e5161b9" x="97.825207" y="226.090782" style="fill: #1f77b4; stroke: #1f77b4"/>
     <use xlink:href="#m364e5161b9" x="99.456637" y="226.060069" style="fill: #1f77b4; stroke: #1f77b4"/>
     <use xlink:href="#m364e5161b9" x="101.088067" y="226.270742" style="fill: #1f77b4; stroke: #1f77b4"/>
     <use xlink:href="#m364e5161b9" x="102.719497" y="226.826402" style="fill: #1f77b4; stroke: #1f77b4"/>
     <use xlink:href="#m364e5161b9" x="104.350927" y="227.132161" style="fill: #1f77b4; stroke: #1f77b4"/>
     <use xlink:href="#m364e5161b9" x="105.982357" y="227.696111" style="fill: #1f77b4; stroke: #1f77b4"/>
     <use xlink:href="#m364e5161b9" x="107.613787" y="228.451368" style="fill: #1f77b4; stroke: #1f77b4"/>
     <use xlink:href="#m364e5161b9" x="109.245217" y="228.761979" style="fill: #1f77b4; stroke: #1f77b4"/>
     <use xlink:href="#m364e5161b9" x="110.876646" y="228.479332" style="fill: #1f77b4; stroke: #1f77b4"/>
     <use xlink:href="#m364e5161b9" x="112.508076" y="229.173351" style="fill: #1f77b4; stroke: #1f77b4"/>
     <use xlink:href="#m364e5161b9" x="114.139506" y="230.327254" style="fill: #1f77b4; stroke: #1f77b4"/>
     <use xlink:href="#m364e5161b9" x="115.770936" y="230.18869" style="fill: #1f77b4; stroke: #1f77b4"/>
     <use xlink:href="#m364e5161b9" x="117.402366" y="230.90295" style="fill: #1f77b4; stroke: #1f77b4"/>
     <use xlink:href="#m364e5161b9" x="119.033796" y="231.394181" style="fill: #1f77b4; stroke: #1f77b4"/>
     <use xlink:href="#m364e5161b9" x="120.665226" y="231.977256" style="fill: #1f77b4; stroke: #1f77b4"/>
     <use xlink:href="#m364e5161b9" x="122.296656" y="232.845695" style="fill: #1f77b4; stroke: #1f77b4"/>
     <use xlink:href="#m364e5161b9" x="123.928085" y="234.158086" style="fill: #1f77b4; stroke: #1f77b4"/>
     <use xlink:href="#m364e5161b9" x="125.559515" y="234.335548" style="fill: #1f77b4; stroke: #1f77b4"/>
     <use xlink:href="#m364e5161b9" x="127.190945" y="234.732891" style="fill: #1f77b4; stroke: #1f77b4"/>
     <use xlink:href="#m364e5161b9" x="128.822375" y="235.94588" style="fill: #1f77b4; stroke: #1f77b4"/>
     <use xlink:href="#m364e5161b9" x="130.453805" y="237.187664" style="fill: #1f77b4; stroke: #1f77b4"/>
     <use xlink:href="#m364e5161b9" x="132.085235" y="237.769583" style="fill: #1f77b4; stroke: #1f77b4"/>
     <use xlink:href="#m364e5161b9" x="133.716665" y="238.792024" style="fill: #1f77b4; stroke: #1f77b4"/>
     <use xlink:href="#m364e5161b9" x="135.348095" y="239.461151" style="fill: #1f77b4; stroke: #1f77b4"/>
     <use xlink:href="#m364e5161b9" x="136.979524" y="240.365564" style="fill: #1f77b4; stroke: #1f77b4"/>
     <use xlink:href="#m364e5161b9" x="138.610954" y="243.776897" style="fill: #1f77b4; stroke: #1f77b4"/>
     <use xlink:href="#m364e5161b9" x="140.242384" y="242.825352" style="fill: #1f77b4; stroke: #1f77b4"/>
     <use xlink:href="#m364e5161b9" x="141.873814" y="246.633035" style="fill: #1f77b4; stroke: #1f77b4"/>
     <use xlink:href="#m364e5161b9" x="143.505244" y="246.885566" style="fill: #1f77b4; stroke: #1f77b4"/>
     <use xlink:href="#m364e5161b9" x="145.136674" y="248.621803" style="fill: #1f77b4; stroke: #1f77b4"/>
     <use xlink:href="#m364e5161b9" x="146.768104" y="250.785173" style="fill: #1f77b4; stroke: #1f77b4"/>
     <use xlink:href="#m364e5161b9" x="148.399534" y="253.00857" style="fill: #1f77b4; stroke: #1f77b4"/>
     <use xlink:href="#m364e5161b9" x="150.030963" y="252.766119" style="fill: #1f77b4; stroke: #1f77b4"/>
     <use xlink:href="#m364e5161b9" x="151.662393" y="257.472979" style="fill: #1f77b4; stroke: #1f77b4"/>
     <use xlink:href="#m364e5161b9" x="153.293823" y="258.588079" style="fill: #1f77b4; stroke: #1f77b4"/>
     <use xlink:href="#m364e5161b9" x="154.925253" y="265.087467" style="fill: #1f77b4; stroke: #1f77b4"/>
     <use xlink:href="#m364e5161b9" x="156.556683" y="259.947854" style="fill: #1f77b4; stroke: #1f77b4"/>
     <use xlink:href="#m364e5161b9" x="158.188113" y="261.5898" style="fill: #1f77b4; stroke: #1f77b4"/>
     <use xlink:href="#m364e5161b9" x="159.819543" y="266.661835" style="fill: #1f77b4; stroke: #1f77b4"/>
     <use xlink:href="#m364e5161b9" x="161.450973" y="272.486067" style="fill: #1f77b4; stroke: #1f77b4"/>
     <use xlink:href="#m364e5161b9" x="163.082402" y="268.194386" style="fill: #1f77b4; stroke: #1f77b4"/>
     <use xlink:href="#m364e5161b9" x="164.713832" y="219.212199" style="fill: #1f77b4; stroke: #1f77b4"/>
     <use xlink:href="#m364e5161b9" x="166.345262" y="277.825633" style="fill: #1f77b4; stroke: #1f77b4"/>
     <use xlink:href="#m364e5161b9" x="167.976692" y="206.849882" style="fill: #1f77b4; stroke: #1f77b4"/>
     <use xlink:href="#m364e5161b9" x="169.608122" y="239.422816" style="fill: #1f77b4; stroke: #1f77b4"/>
     <use xlink:href="#m364e5161b9" x="171.239552" y="254.487569" style="fill: #1f77b4; stroke: #1f77b4"/>
     <use xlink:href="#m364e5161b9" x="172.870982" y="255.074469" style="fill: #1f77b4; stroke: #1f77b4"/>
     <use xlink:href="#m364e5161b9" x="174.502412" y="242.090321" style="fill: #1f77b4; stroke: #1f77b4"/>
     <use xlink:href="#m364e5161b9" x="176.133842" y="300.279457" style="fill: #1f77b4; stroke: #1f77b4"/>
     <use xlink:href="#m364e5161b9" x="177.765271" y="257.595201" style="fill: #1f77b4; stroke: #1f77b4"/>
     <use xlink:href="#m364e5161b9" x="179.396701" y="203.401559" style="fill: #1f77b4; stroke: #1f77b4"/>
     <use xlink:href="#m364e5161b9" x="181.028131" y="246.250395" style="fill: #1f77b4; stroke: #1f77b4"/>
     <use xlink:href="#m364e5161b9" x="182.659561" y="271.645218" style="fill: #1f77b4; stroke: #1f77b4"/>
     <use xlink:href="#m364e5161b9" x="184.290991" y="282.118829" style="fill: #1f77b4; stroke: #1f77b4"/>
     <use xlink:href="#m364e5161b9" x="185.922421" y="280.953876" style="fill: #1f77b4; stroke: #1f77b4"/>
     <use xlink:href="#m364e5161b9" x="187.553851" y="275.001449" style="fill: #1f77b4; stroke: #1f77b4"/>
     <use xlink:href="#m364e5161b9" x="189.185281" y="279.042481" style="fill: #1f77b4; stroke: #1f77b4"/>
     <use xlink:href="#m364e5161b9" x="190.81671" y="278.735734" style="fill: #1f77b4; stroke: #1f77b4"/>
     <use xlink:href="#m364e5161b9" x="192.44814" y="288.496112" style="fill: #1f77b4; stroke: #1f77b4"/>
     <use xlink:href="#m364e5161b9" x="194.07957" y="283.166283" style="fill: #1f77b4; stroke: #1f77b4"/>
     <use xlink:href="#m364e5161b9" x="195.711" y="284.856248" style="fill: #1f77b4; stroke: #1f77b4"/>
     <use xlink:href="#m364e5161b9" x="197.34243" y="289.094228" style="fill: #1f77b4; stroke: #1f77b4"/>
     <use xlink:href="#m364e5161b9" x="198.97386" y="291.217677" style="fill: #1f77b4; stroke: #1f77b4"/>
     <use xlink:href="#m364e5161b9" x="200.60529" y="293.363316" style="fill: #1f77b4; stroke: #1f77b4"/>
     <use xlink:href="#m364e5161b9" x="202.23672" y="297.535968" style="fill: #1f77b4; stroke: #1f77b4"/>
     <use xlink:href="#m364e5161b9" x="203.868149" y="298.842342" style="fill: #1f77b4; stroke: #1f77b4"/>
     <use xlink:href="#m364e5161b9" x="205.499579" y="300.854182" style="fill: #1f77b4; stroke: #1f77b4"/>
     <use xlink:href="#m364e5161b9" x="207.131009" y="193.281219" style="fill: #1f77b4; stroke: #1f77b4"/>
     <use xlink:href="#m364e5161b9" x="208.762439" y="193.663704" style="fill: #1f77b4; stroke: #1f77b4"/>
     <use xlink:href="#m364e5161b9" x="210.393869" y="194.436987" style="fill: #1f77b4; stroke: #1f77b4"/>
     <use xlink:href="#m364e5161b9" x="212.025299" y="196.101118" style="fill: #1f77b4; stroke: #1f77b4"/>
     <use xlink:href="#m364e5161b9" x="213.656729" y="198.732981" style="fill: #1f77b4; stroke: #1f77b4"/>
     <use xlink:href="#m364e5161b9" x="215.288159" y="199.689186" style="fill: #1f77b4; stroke: #1f77b4"/>
     <use xlink:href="#m364e5161b9" x="216.919588" y="200.228982" style="fill: #1f77b4; stroke: #1f77b4"/>
     <use xlink:href="#m364e5161b9" x="218.551018" y="201.56078" style="fill: #1f77b4; stroke: #1f77b4"/>
     <use xlink:href="#m364e5161b9" x="220.182448" y="202.471596" style="fill: #1f77b4; stroke: #1f77b4"/>
     <use xlink:href="#m364e5161b9" x="221.813878" y="204.030464" style="fill: #1f77b4; stroke: #1f77b4"/>
     <use xlink:href="#m364e5161b9" x="223.445308" y="205.17063" style="fill: #1f77b4; stroke: #1f77b4"/>
     <use xlink:href="#m364e5161b9" x="225.076738" y="205.936821" style="fill: #1f77b4; stroke: #1f77b4"/>
     <use xlink:href="#m364e5161b9" x="226.708168" y="206.089652" style="fill: #1f77b4; stroke: #1f77b4"/>
     <use xlink:href="#m364e5161b9" x="228.339598" y="205.97148" style="fill: #1f77b4; stroke: #1f77b4"/>
     <use xlink:href="#m364e5161b9" x="229.971027" y="206.382363" style="fill: #1f77b4; stroke: #1f77b4"/>
     <use xlink:href="#m364e5161b9" x="231.602457" y="207.919633" style="fill: #1f77b4; stroke: #1f77b4"/>
     <use xlink:href="#m364e5161b9" x="233.233887" y="208.427767" style="fill: #1f77b4; stroke: #1f77b4"/>
     <use xlink:href="#m364e5161b9" x="234.865317" y="209.209562" style="fill: #1f77b4; stroke: #1f77b4"/>
     <use xlink:href="#m364e5161b9" x="236.496747" y="210.026037" style="fill: #1f77b4; stroke: #1f77b4"/>
     <use xlink:href="#m364e5161b9" x="238.128177" y="210.539275" style="fill: #1f77b4; stroke: #1f77b4"/>
     <use xlink:href="#m364e5161b9" x="239.759607" y="210.327929" style="fill: #1f77b4; stroke: #1f77b4"/>
     <use xlink:href="#m364e5161b9" x="241.391037" y="210.873189" style="fill: #1f77b4; stroke: #1f77b4"/>
     <use xlink:href="#m364e5161b9" x="243.022466" y="212.051828" style="fill: #1f77b4; stroke: #1f77b4"/>
     <use xlink:href="#m364e5161b9" x="244.653896" y="212.022832" style="fill: #1f77b4; stroke: #1f77b4"/>
     <use xlink:href="#m364e5161b9" x="246.285326" y="212.612884" style="fill: #1f77b4; stroke: #1f77b4"/>
     <use xlink:href="#m364e5161b9" x="247.916756" y="212.886234" style="fill: #1f77b4; stroke: #1f77b4"/>
     <use xlink:href="#m364e5161b9" x="249.548186" y="213.247895" style="fill: #1f77b4; stroke: #1f77b4"/>
     <use xlink:href="#m364e5161b9" x="251.179616" y="213.572123" style="fill: #1f77b4; stroke: #1f77b4"/>
     <use xlink:href="#m364e5161b9" x="252.811046" y="214.666063" style="fill: #1f77b4; stroke: #1f77b4"/>
     <use xlink:href="#m364e5161b9" x="254.442476" y="214.831309" style="fill: #1f77b4; stroke: #1f77b4"/>
     <use xlink:href="#m364e5161b9" x="256.073905" y="214.573766" style="fill: #1f77b4; stroke: #1f77b4"/>
     <use xlink:href="#m364e5161b9" x="257.705335" y="215.666853" style="fill: #1f77b4; stroke: #1f77b4"/>
     <use xlink:href="#m364e5161b9" x="259.336765" y="215.918787" style="fill: #1f77b4; stroke: #1f77b4"/>
     <use xlink:href="#m364e5161b9" x="260.968195" y="216.130868" style="fill: #1f77b4; stroke: #1f77b4"/>
     <use xlink:href="#m364e5161b9" x="262.599625" y="216.51541" style="fill: #1f77b4; stroke: #1f77b4"/>
     <use xlink:href="#m364e5161b9" x="264.231055" y="216.826289" style="fill: #1f77b4; stroke: #1f77b4"/>
     <use xlink:href="#m364e5161b9" x="265.862485" y="216.771142" style="fill: #1f77b4; stroke: #1f77b4"/>
     <use xlink:href="#m364e5161b9" x="267.493915" y="217.516346" style="fill: #1f77b4; stroke: #1f77b4"/>
     <use xlink:href="#m364e5161b9" x="269.125344" y="217.849036" style="fill: #1f77b4; stroke: #1f77b4"/>
     <use xlink:href="#m364e5161b9" x="270.756774" y="218.288686" style="fill: #1f77b4; stroke: #1f77b4"/>
     <use xlink:href="#m364e5161b9" x="272.388204" y="218.310988" style="fill: #1f77b4; stroke: #1f77b4"/>
     <use xlink:href="#m364e5161b9" x="274.019634" y="218.660335" style="fill: #1f77b4; stroke: #1f77b4"/>
     <use xlink:href="#m364e5161b9" x="275.651064" y="219.030711" style="fill: #1f77b4; stroke: #1f77b4"/>
     <use xlink:href="#m364e5161b9" x="277.282494" y="219.417072" style="fill: #1f77b4; stroke: #1f77b4"/>
     <use xlink:href="#m364e5161b9" x="278.913924" y="220.052259" style="fill: #1f77b4; stroke: #1f77b4"/>
     <use xlink:href="#m364e5161b9" x="280.545354" y="220.026383" style="fill: #1f77b4; stroke: #1f77b4"/>
     <use xlink:href="#m364e5161b9" x="282.176783" y="220.937043" style="fill: #1f77b4; stroke: #1f77b4"/>
     <use xlink:href="#m364e5161b9" x="283.808213" y="220.333502" style="fill: #1f77b4; stroke: #1f77b4"/>
     <use xlink:href="#m364e5161b9" x="285.439643" y="221.11105" style="fill: #1f77b4; stroke: #1f77b4"/>
     <use xlink:href="#m364e5161b9" x="287.071073" y="221.724496" style="fill: #1f77b4; stroke: #1f77b4"/>
     <use xlink:href="#m364e5161b9" x="288.702503" y="221.80028" style="fill: #1f77b4; stroke: #1f77b4"/>
     <use xlink:href="#m364e5161b9" x="290.333933" y="222.125209" style="fill: #1f77b4; stroke: #1f77b4"/>
     <use xlink:href="#m364e5161b9" x="291.965363" y="222.516367" style="fill: #1f77b4; stroke: #1f77b4"/>
     <use xlink:href="#m364e5161b9" x="293.596793" y="222.761397" style="fill: #1f77b4; stroke: #1f77b4"/>
     <use xlink:href="#m364e5161b9" x="295.228223" y="223.045956" style="fill: #1f77b4; stroke: #1f77b4"/>
     <use xlink:href="#m364e5161b9" x="296.859652" y="223.164243" style="fill: #1f77b4; stroke: #1f77b4"/>
     <use xlink:href="#m364e5161b9" x="298.491082" y="224.081479" style="fill: #1f77b4; stroke: #1f77b4"/>
     <use xlink:href="#m364e5161b9" x="300.122512" y="224.571114" style="fill: #1f77b4; stroke: #1f77b4"/>
     <use xlink:href="#m364e5161b9" x="301.753942" y="224.822531" style="fill: #1f77b4; stroke: #1f77b4"/>
     <use xlink:href="#m364e5161b9" x="303.385372" y="225.164379" style="fill: #1f77b4; stroke: #1f77b4"/>
     <use xlink:href="#m364e5161b9" x="305.016802" y="225.432431" style="fill: #1f77b4; stroke: #1f77b4"/>
     <use xlink:href="#m364e5161b9" x="306.648232" y="225.801885" style="fill: #1f77b4; stroke: #1f77b4"/>
     <use xlink:href="#m364e5161b9" x="308.279662" y="225.890481" style="fill: #1f77b4; stroke: #1f77b4"/>
     <use xlink:href="#m364e5161b9" x="309.911091" y="226.476091" style="fill: #1f77b4; stroke: #1f77b4"/>
     <use xlink:href="#m364e5161b9" x="311.542521" y="227.341384" style="fill: #1f77b4; stroke: #1f77b4"/>
     <use xlink:href="#m364e5161b9" x="313.173951" y="228.08217" style="fill: #1f77b4; stroke: #1f77b4"/>
     <use xlink:href="#m364e5161b9" x="314.805381" y="228.247315" style="fill: #1f77b4; stroke: #1f77b4"/>
     <use xlink:href="#m364e5161b9" x="316.436811" y="228.756782" style="fill: #1f77b4; stroke: #1f77b4"/>
     <use xlink:href="#m364e5161b9" x="318.068241" y="229.120163" style="fill: #1f77b4; stroke: #1f77b4"/>
     <use xlink:href="#m364e5161b9" x="319.699671" y="229.725281" style="fill: #1f77b4; stroke: #1f77b4"/>
     <use xlink:href="#m364e5161b9" x="321.331101" y="230.290342" style="fill: #1f77b4; stroke: #1f77b4"/>
     <use xlink:href="#m364e5161b9" x="322.96253" y="230.704232" style="fill: #1f77b4; stroke: #1f77b4"/>
     <use xlink:href="#m364e5161b9" x="324.59396" y="231.98372" style="fill: #1f77b4; stroke: #1f77b4"/>
     <use xlink:href="#m364e5161b9" x="326.22539" y="232.541179" style="fill: #1f77b4; stroke: #1f77b4"/>
     <use xlink:href="#m364e5161b9" x="327.85682" y="233.178403" style="fill: #1f77b4; stroke: #1f77b4"/>
     <use xlink:href="#m364e5161b9" x="329.48825" y="233.541805" style="fill: #1f77b4; stroke: #1f77b4"/>
     <use xlink:href="#m364e5161b9" x="331.11968" y="234.359676" style="fill: #1f77b4; stroke: #1f77b4"/>
     <use xlink:href="#m364e5161b9" x="332.75111" y="235.164372" style="fill: #1f77b4; stroke: #1f77b4"/>
     <use xlink:href="#m364e5161b9" x="334.38254" y="235.716591" style="fill: #1f77b4; stroke: #1f77b4"/>
     <use xlink:href="#m364e5161b9" x="336.013969" y="236.174937" style="fill: #1f77b4; stroke: #1f77b4"/>
     <use xlink:href="#m364e5161b9" x="337.645399" y="237.024626" style="fill: #1f77b4; stroke: #1f77b4"/>
     <use xlink:href="#m364e5161b9" x="339.276829" y="237.900675" style="fill: #1f77b4; stroke: #1f77b4"/>
     <use xlink:href="#m364e5161b9" x="340.908259" y="238.342102" style="fill: #1f77b4; stroke: #1f77b4"/>
     <use xlink:href="#m364e5161b9" x="342.539689" y="238.528099" style="fill: #1f77b4; stroke: #1f77b4"/>
     <use xlink:href="#m364e5161b9" x="344.171119" y="237.965067" style="fill: #1f77b4; stroke: #1f77b4"/>
     <use xlink:href="#m364e5161b9" x="345.802549" y="239.05706" style="fill: #1f77b4; stroke: #1f77b4"/>
     <use xlink:href="#m364e5161b9" x="347.433979" y="236.870851" style="fill: #1f77b4; stroke: #1f77b4"/>
     <use xlink:href="#m364e5161b9" x="349.065408" y="233.931353" style="fill: #1f77b4; stroke: #1f77b4"/>
     <use xlink:href="#m364e5161b9" x="350.696838" y="228.965359" style="fill: #1f77b4; stroke: #1f77b4"/>
     <use xlink:href="#m364e5161b9" x="352.328268" y="222.397099" style="fill: #1f77b4; stroke: #1f77b4"/>
     <use xlink:href="#m364e5161b9" x="353.959698" y="216.442961" style="fill: #1f77b4; stroke: #1f77b4"/>
     <use xlink:href="#m364e5161b9" x="355.591128" y="211.764519" style="fill: #1f77b4; stroke: #1f77b4"/>
     <use xlink:href="#m364e5161b9" x="357.222558" y="210.998241" style="fill: #1f77b4; stroke: #1f77b4"/>
     <use xlink:href="#m364e5161b9" x="358.853988" y="211.330616" style="fill: #1f77b4; stroke: #1f77b4"/>
     <use xlink:href="#m364e5161b9" x="360.485418" y="209.987749" style="fill: #1f77b4; stroke: #1f77b4"/>
     <use xlink:href="#m364e5161b9" x="362.116847" y="210.571331" style="fill: #1f77b4; stroke: #1f77b4"/>
     <use xlink:href="#m364e5161b9" x="363.748277" y="210.723422" style="fill: #1f77b4; stroke: #1f77b4"/>
     <use xlink:href="#m364e5161b9" x="365.379707" y="210.346949" style="fill: #1f77b4; stroke: #1f77b4"/>
     <use xlink:href="#m364e5161b9" x="367.011137" y="210.885255" style="fill: #1f77b4; stroke: #1f77b4"/>
     <use xlink:href="#m364e5161b9" x="368.642567" y="211.497798" style="fill: #1f77b4; stroke: #1f77b4"/>
     <use xlink:href="#m364e5161b9" x="370.273997" y="212.606895" style="fill: #1f77b4; stroke: #1f77b4"/>
     <use xlink:href="#m364e5161b9" x="371.905427" y="212.486353" style="fill: #1f77b4; stroke: #1f77b4"/>
     <use xlink:href="#m364e5161b9" x="373.536857" y="213.329122" style="fill: #1f77b4; stroke: #1f77b4"/>
     <use xlink:href="#m364e5161b9" x="375.168286" y="213.905118" style="fill: #1f77b4; stroke: #1f77b4"/>
     <use xlink:href="#m364e5161b9" x="376.799716" y="214.039942" style="fill: #1f77b4; stroke: #1f77b4"/>
     <use xlink:href="#m364e5161b9" x="378.431146" y="214.836956" style="fill: #1f77b4; stroke: #1f77b4"/>
     <use xlink:href="#m364e5161b9" x="380.062576" y="215.205113" style="fill: #1f77b4; stroke: #1f77b4"/>
     <use xlink:href="#m364e5161b9" x="381.694006" y="215.778743" style="fill: #1f77b4; stroke: #1f77b4"/>
     <use xlink:href="#m364e5161b9" x="383.325436" y="215.803261" style="fill: #1f77b4; stroke: #1f77b4"/>
     <use xlink:href="#m364e5161b9" x="384.956866" y="216.874364" style="fill: #1f77b4; stroke: #1f77b4"/>
     <use xlink:href="#m364e5161b9" x="386.588296" y="216.497882" style="fill: #1f77b4; stroke: #1f77b4"/>
     <use xlink:href="#m364e5161b9" x="388.219725" y="217.159926" style="fill: #1f77b4; stroke: #1f77b4"/>
     <use xlink:href="#m364e5161b9" x="389.851155" y="217.838097" style="fill: #1f77b4; stroke: #1f77b4"/>
     <use xlink:href="#m364e5161b9" x="391.482585" y="218.120304" style="fill: #1f77b4; stroke: #1f77b4"/>
    </g>
   </g>
   <g id="line2d_28">
    <path d="M 66.82804 220.502167 
L 137.023617 254.255005 
L 144.173167 257.899333 
L 147.422962 259.779057 
L 149.372839 261.165898 
L 150.672757 262.384185 
L 151.647696 263.64417 
L 152.297655 264.79609 
L 152.947614 266.371063 
L 153.597573 268.5887 
L 154.572512 273.295846 
L 155.222471 276.269255 
L 155.54745 277.07563 
L 155.87243 277.210846 
L 156.197409 276.679022 
L 156.847368 274.290368 
L 157.822307 270.534931 
L 158.472266 268.960545 
L 159.122225 268.023431 
L 159.772184 267.504353 
L 160.422143 267.248488 
L 161.397082 267.159728 
L 162.697 267.344274 
L 164.646877 267.927249 
L 167.571693 269.081019 
L 173.096344 271.549501 
L 186.095525 277.670013 
L 236.142372 301.595859 
L 237.76727 302.373818 
L 238.092249 192.410182 
L 391.482585 265.870448 
L 391.482585 265.870448 
" clip-path="url(#paf2c3011bb)" style="fill: none; stroke: #d62728; stroke-width: 1.5; stroke-linecap: square"/>
   </g>
   <g id="patch_9">
    <path d="M 50.595313 307.872 
L 50.595313 186.912 
" style="fill: none; stroke: #000000; stroke-width: 0.8; stroke-linejoin: miter; stroke-linecap: square"/>
   </g>
   <g id="patch_10">
    <path d="M 407.715312 307.872 
L 407.715312 186.912 
" style="fill: none; stroke: #000000; stroke-width: 0.8; stroke-linejoin: miter; stroke-linecap: square"/>
   </g>
   <g id="patch_11">
    <path d="M 50.595313 307.872 
L 407.715313 307.872 
" style="fill: none; stroke: #000000; stroke-width: 0.8; stroke-linejoin: miter; stroke-linecap: square"/>
   </g>
   <g id="patch_12">
    <path d="M 50.595313 186.912 
L 407.715313 186.912 
" style="fill: none; stroke: #000000; stroke-width: 0.8; stroke-linejoin: miter; stroke-linecap: square"/>
   </g>
  </g>
  <g id="text_22">
   <!-- S21 resonator spectroscopy -->
   <g transform="translate(139.610938 16.318125) scale(0.12 -0.12)">
    <defs>
     <path id="DejaVuSans-73" d="M 2834 3397 
L 2834 2853 
Q 2591 2978 2328 3040 
Q 2066 3103 1784 3103 
Q 1356 3103 1142 2972 
Q 928 2841 928 2578 
Q 928 2378 1081 2264 
Q 1234 2150 1697 2047 
L 1894 2003 
Q 2506 1872 2764 1633 
Q 3022 1394 3022 966 
Q 3022 478 2636 193 
Q 2250 -91 1575 -91 
Q 1294 -91 989 -36 
Q 684 19 347 128 
L 347 722 
Q 666 556 975 473 
Q 1284 391 1588 391 
Q 1994 391 2212 530 
Q 2431 669 2431 922 
Q 2431 1156 2273 1281 
Q 2116 1406 1581 1522 
L 1381 1569 
Q 847 1681 609 1914 
Q 372 2147 372 2553 
Q 372 3047 722 3315 
Q 1072 3584 1716 3584 
Q 2034 3584 2315 3537 
Q 2597 3491 2834 3397 
z
" transform="scale(0.015625)"/>
     <path id="DejaVuSans-6f" d="M 1959 3097 
Q 1497 3097 1228 2736 
Q 959 2375 959 1747 
Q 959 1119 1226 758 
Q 1494 397 1959 397 
Q 2419 397 2687 759 
Q 2956 1122 2956 1747 
Q 2956 2369 2687 2733 
Q 2419 3097 1959 3097 
z
M 1959 3584 
Q 2709 3584 3137 3096 
Q 3566 2609 3566 1747 
Q 3566 888 3137 398 
Q 2709 -91 1959 -91 
Q 1206 -91 779 398 
Q 353 888 353 1747 
Q 353 2609 779 3096 
Q 1206 3584 1959 3584 
z
" transform="scale(0.015625)"/>
     <path id="DejaVuSans-74" d="M 1172 4494 
L 1172 3500 
L 2356 3500 
L 2356 3053 
L 1172 3053 
L 1172 1153 
Q 1172 725 1289 603 
Q 1406 481 1766 481 
L 2356 481 
L 2356 0 
L 1766 0 
Q 1100 0 847 248 
Q 594 497 594 1153 
L 594 3053 
L 172 3053 
L 172 3500 
L 594 3500 
L 594 4494 
L 1172 4494 
z
" transform="scale(0.015625)"/>
     <path id="DejaVuSans-70" d="M 1159 525 
L 1159 -1331 
L 581 -1331 
L 581 3500 
L 1159 3500 
L 1159 2969 
Q 1341 3281 1617 3432 
Q 1894 3584 2278 3584 
Q 2916 3584 3314 3078 
Q 3713 2572 3713 1747 
Q 3713 922 3314 415 
Q 2916 -91 2278 -91 
Q 1894 -91 1617 61 
Q 1341 213 1159 525 
z
M 3116 1747 
Q 3116 2381 2855 2742 
Q 2594 3103 2138 3103 
Q 1681 3103 1420 2742 
Q 1159 2381 1159 1747 
Q 1159 1113 1420 752 
Q 1681 391 2138 391 
Q 2594 391 2855 752 
Q 3116 1113 3116 1747 
z
" transform="scale(0.015625)"/>
    </defs>
    <use xlink:href="#DejaVuSans-53"/>
    <use xlink:href="#DejaVuSans-32" x="63.476562"/>
    <use xlink:href="#DejaVuSans-31" x="127.099609"/>
    <use xlink:href="#DejaVuSans-20" x="190.722656"/>
    <use xlink:href="#DejaVuSans-72" x="222.509766"/>
    <use xlink:href="#DejaVuSans-65" x="261.373047"/>
    <use xlink:href="#DejaVuSans-73" x="322.896484"/>
    <use xlink:href="#DejaVuSans-6f" x="374.996094"/>
    <use xlink:href="#DejaVuSans-6e" x="436.177734"/>
    <use xlink:href="#DejaVuSans-61" x="499.556641"/>
    <use xlink:href="#DejaVuSans-74" x="560.835938"/>
    <use xlink:href="#DejaVuSans-6f" x="600.044922"/>
    <use xlink:href="#DejaVuSans-72" x="661.226562"/>
    <use xlink:href="#DejaVuSans-20" x="702.339844"/>
    <use xlink:href="#DejaVuSans-73" x="734.126953"/>
    <use xlink:href="#DejaVuSans-70" x="786.226562"/>
    <use xlink:href="#DejaVuSans-65" x="849.703125"/>
    <use xlink:href="#DejaVuSans-63" x="911.226562"/>
    <use xlink:href="#DejaVuSans-74" x="966.207031"/>
    <use xlink:href="#DejaVuSans-72" x="1005.416016"/>
    <use xlink:href="#DejaVuSans-6f" x="1044.279297"/>
    <use xlink:href="#DejaVuSans-73" x="1105.460938"/>
    <use xlink:href="#DejaVuSans-63" x="1157.560547"/>
    <use xlink:href="#DejaVuSans-6f" x="1212.541016"/>
    <use xlink:href="#DejaVuSans-70" x="1273.722656"/>
    <use xlink:href="#DejaVuSans-79" x="1337.199219"/>
   </g>
   <!-- tuid: 20231227-131032-390-f2c098 -->
   <g transform="translate(115.76375 29.7555) scale(0.12 -0.12)">
    <defs>
     <path id="DejaVuSans-69" d="M 603 3500 
L 1178 3500 
L 1178 0 
L 603 0 
L 603 3500 
z
M 603 4863 
L 1178 4863 
L 1178 4134 
L 603 4134 
L 603 4863 
z
" transform="scale(0.015625)"/>
     <path id="DejaVuSans-66" d="M 2375 4863 
L 2375 4384 
L 1825 4384 
Q 1516 4384 1395 4259 
Q 1275 4134 1275 3809 
L 1275 3500 
L 2222 3500 
L 2222 3053 
L 1275 3053 
L 1275 0 
L 697 0 
L 697 3053 
L 147 3053 
L 147 3500 
L 697 3500 
L 697 3744 
Q 697 4328 969 4595 
Q 1241 4863 1831 4863 
L 2375 4863 
z
" transform="scale(0.015625)"/>
    </defs>
    <use xlink:href="#DejaVuSans-74"/>
    <use xlink:href="#DejaVuSans-75" x="39.208984"/>
    <use xlink:href="#DejaVuSans-69" x="102.587891"/>
    <use xlink:href="#DejaVuSans-64" x="130.371094"/>
    <use xlink:href="#DejaVuSans-3a" x="193.847656"/>
    <use xlink:href="#DejaVuSans-20" x="227.539062"/>
    <use xlink:href="#DejaVuSans-32" x="259.326172"/>
    <use xlink:href="#DejaVuSans-30" x="322.949219"/>
    <use xlink:href="#DejaVuSans-32" x="386.572266"/>
    <use xlink:href="#DejaVuSans-33" x="450.195312"/>
    <use xlink:href="#DejaVuSans-31" x="513.818359"/>
    <use xlink:href="#DejaVuSans-32" x="577.441406"/>
    <use xlink:href="#DejaVuSans-32" x="641.064453"/>
    <use xlink:href="#DejaVuSans-37" x="704.6875"/>
    <use xlink:href="#DejaVuSans-2d" x="768.310547"/>
    <use xlink:href="#DejaVuSans-31" x="804.394531"/>
    <use xlink:href="#DejaVuSans-33" x="868.017578"/>
    <use xlink:href="#DejaVuSans-31" x="931.640625"/>
    <use xlink:href="#DejaVuSans-30" x="995.263672"/>
    <use xlink:href="#DejaVuSans-33" x="1058.886719"/>
    <use xlink:href="#DejaVuSans-32" x="1122.509766"/>
    <use xlink:href="#DejaVuSans-2d" x="1186.132812"/>
    <use xlink:href="#DejaVuSans-33" x="1222.216797"/>
    <use xlink:href="#DejaVuSans-39" x="1285.839844"/>
    <use xlink:href="#DejaVuSans-30" x="1349.462891"/>
    <use xlink:href="#DejaVuSans-2d" x="1413.085938"/>
    <use xlink:href="#DejaVuSans-66" x="1449.169922"/>
    <use xlink:href="#DejaVuSans-32" x="1484.375"/>
    <use xlink:href="#DejaVuSans-63" x="1547.998047"/>
    <use xlink:href="#DejaVuSans-30" x="1602.978516"/>
    <use xlink:href="#DejaVuSans-39" x="1666.601562"/>
    <use xlink:href="#DejaVuSans-38" x="1730.224609"/>
   </g>
  </g>
 </g>
 <defs>
  <clipPath id="p3ce5b8c6b5">
   <rect x="50.595313" y="41.76" width="357.12" height="120.96"/>
  </clipPath>
  <clipPath id="paf2c3011bb">
   <rect x="50.595313" y="186.912" width="357.12" height="120.96"/>
  </clipPath>
 </defs>
</svg>
