<?xml version="1.0" encoding="utf-8" standalone="no"?>
<!DOCTYPE svg PUBLIC "-//W3C//DTD SVG 1.1//EN"
  "http://www.w3.org/Graphics/SVG/1.1/DTD/svg11.dtd">
<svg xmlns:xlink="http://www.w3.org/1999/xlink" width="559.424437pt" height="345.42825pt" viewBox="0 0 559.424437 345.42825" xmlns="http://www.w3.org/2000/svg" version="1.1">
 <metadata>
  <rdf:RDF xmlns:dc="http://purl.org/dc/elements/1.1/" xmlns:cc="http://creativecommons.org/ns#" xmlns:rdf="http://www.w3.org/1999/02/22-rdf-syntax-ns#">
   <cc:Work>
    <dc:type rdf:resource="http://purl.org/dc/dcmitype/StillImage"/>
    <dc:date>2023-12-27T18:51:28.190644</dc:date>
    <dc:format>image/svg+xml</dc:format>
    <dc:creator>
     <cc:Agent>
      <dc:title>Matplotlib v3.8.2, https://matplotlib.org/</dc:title>
     </cc:Agent>
    </dc:creator>
   </cc:Work>
  </rdf:RDF>
 </metadata>
 <defs>
  <style type="text/css">*{stroke-linejoin: round; stroke-linecap: butt}</style>
 </defs>
 <g id="figure_1">
  <g id="patch_1">
   <path d="M 0 345.42825 
L 559.424437 345.42825 
L 559.424437 -0 
L 0 -0 
L 0 345.42825 
z
" style="fill: none; opacity: 0"/>
  </g>
  <g id="axes_1">
   <g id="patch_2">
    <path d="M 37.848438 307.872 
L 394.968438 307.872 
L 394.968438 41.76 
L 37.848438 41.76 
z
" style="fill: #ffffff"/>
   </g>
   <g id="matplotlib.axis_1">
    <g id="xtick_1">
     <g id="line2d_1">
      <defs>
       <path id="m1e48544d23" d="M 0 0 
L 0 3.5 
" style="stroke: #000000; stroke-width: 0.8"/>
      </defs>
      <g>
       <use xlink:href="#m1e48544d23" x="69.731761" y="307.872" style="stroke: #000000; stroke-width: 0.8"/>
      </g>
     </g>
     <g id="text_1">
      <!-- -6 -->
      <g transform="translate(64.746605 322.470438) scale(0.1 -0.1)">
       <defs>
        <path id="DejaVuSans-2d" d="M 313 2009 
L 1997 2009 
L 1997 1497 
L 313 1497 
L 313 2009 
z
" transform="scale(0.015625)"/>
        <path id="DejaVuSans-36" d="M 2113 2584 
Q 1688 2584 1439 2293 
Q 1191 2003 1191 1497 
Q 1191 994 1439 701 
Q 1688 409 2113 409 
Q 2538 409 2786 701 
Q 3034 994 3034 1497 
Q 3034 2003 2786 2293 
Q 2538 2584 2113 2584 
z
M 3366 4563 
L 3366 3988 
Q 3128 4100 2886 4159 
Q 2644 4219 2406 4219 
Q 1781 4219 1451 3797 
Q 1122 3375 1075 2522 
Q 1259 2794 1537 2939 
Q 1816 3084 2150 3084 
Q 2853 3084 3261 2657 
Q 3669 2231 3669 1497 
Q 3669 778 3244 343 
Q 2819 -91 2113 -91 
Q 1303 -91 875 529 
Q 447 1150 447 2328 
Q 447 3434 972 4092 
Q 1497 4750 2381 4750 
Q 2619 4750 2861 4703 
Q 3103 4656 3366 4563 
z
" transform="scale(0.015625)"/>
       </defs>
       <use xlink:href="#DejaVuSans-2d"/>
       <use xlink:href="#DejaVuSans-36" x="36.083984"/>
      </g>
     </g>
    </g>
    <g id="xtick_2">
     <g id="line2d_2">
      <g>
       <use xlink:href="#m1e48544d23" x="129.299593" y="307.872" style="stroke: #000000; stroke-width: 0.8"/>
      </g>
     </g>
     <g id="text_2">
      <!-- -5 -->
      <g transform="translate(124.314437 322.470438) scale(0.1 -0.1)">
       <defs>
        <path id="DejaVuSans-35" d="M 691 4666 
L 3169 4666 
L 3169 4134 
L 1269 4134 
L 1269 2991 
Q 1406 3038 1543 3061 
Q 1681 3084 1819 3084 
Q 2600 3084 3056 2656 
Q 3513 2228 3513 1497 
Q 3513 744 3044 326 
Q 2575 -91 1722 -91 
Q 1428 -91 1123 -41 
Q 819 9 494 109 
L 494 744 
Q 775 591 1075 516 
Q 1375 441 1709 441 
Q 2250 441 2565 725 
Q 2881 1009 2881 1497 
Q 2881 1984 2565 2268 
Q 2250 2553 1709 2553 
Q 1456 2553 1204 2497 
Q 953 2441 691 2322 
L 691 4666 
z
" transform="scale(0.015625)"/>
       </defs>
       <use xlink:href="#DejaVuSans-2d"/>
       <use xlink:href="#DejaVuSans-35" x="36.083984"/>
      </g>
     </g>
    </g>
    <g id="xtick_3">
     <g id="line2d_3">
      <g>
       <use xlink:href="#m1e48544d23" x="188.867425" y="307.872" style="stroke: #000000; stroke-width: 0.8"/>
      </g>
     </g>
     <g id="text_3">
      <!-- -4 -->
      <g transform="translate(183.882269 322.470438) scale(0.1 -0.1)">
       <defs>
        <path id="DejaVuSans-34" d="M 2419 4116 
L 825 1625 
L 2419 1625 
L 2419 4116 
z
M 2253 4666 
L 3047 4666 
L 3047 1625 
L 3713 1625 
L 3713 1100 
L 3047 1100 
L 3047 0 
L 2419 0 
L 2419 1100 
L 313 1100 
L 313 1709 
L 2253 4666 
z
" transform="scale(0.015625)"/>
       </defs>
       <use xlink:href="#DejaVuSans-2d"/>
       <use xlink:href="#DejaVuSans-34" x="36.083984"/>
      </g>
     </g>
    </g>
    <g id="xtick_4">
     <g id="line2d_4">
      <g>
       <use xlink:href="#m1e48544d23" x="248.435257" y="307.872" style="stroke: #000000; stroke-width: 0.8"/>
      </g>
     </g>
     <g id="text_4">
      <!-- -3 -->
      <g transform="translate(243.450101 322.470438) scale(0.1 -0.1)">
       <defs>
        <path id="DejaVuSans-33" d="M 2597 2516 
Q 3050 2419 3304 2112 
Q 3559 1806 3559 1356 
Q 3559 666 3084 287 
Q 2609 -91 1734 -91 
Q 1441 -91 1130 -33 
Q 819 25 488 141 
L 488 750 
Q 750 597 1062 519 
Q 1375 441 1716 441 
Q 2309 441 2620 675 
Q 2931 909 2931 1356 
Q 2931 1769 2642 2001 
Q 2353 2234 1838 2234 
L 1294 2234 
L 1294 2753 
L 1863 2753 
Q 2328 2753 2575 2939 
Q 2822 3125 2822 3475 
Q 2822 3834 2567 4026 
Q 2313 4219 1838 4219 
Q 1578 4219 1281 4162 
Q 984 4106 628 3988 
L 628 4550 
Q 988 4650 1302 4700 
Q 1616 4750 1894 4750 
Q 2613 4750 3031 4423 
Q 3450 4097 3450 3541 
Q 3450 3153 3228 2886 
Q 3006 2619 2597 2516 
z
" transform="scale(0.015625)"/>
       </defs>
       <use xlink:href="#DejaVuSans-2d"/>
       <use xlink:href="#DejaVuSans-33" x="36.083984"/>
      </g>
     </g>
    </g>
    <g id="xtick_5">
     <g id="line2d_5">
      <g>
       <use xlink:href="#m1e48544d23" x="308.003089" y="307.872" style="stroke: #000000; stroke-width: 0.8"/>
      </g>
     </g>
     <g id="text_5">
      <!-- -2 -->
      <g transform="translate(303.017933 322.470438) scale(0.1 -0.1)">
       <defs>
        <path id="DejaVuSans-32" d="M 1228 531 
L 3431 531 
L 3431 0 
L 469 0 
L 469 531 
Q 828 903 1448 1529 
Q 2069 2156 2228 2338 
Q 2531 2678 2651 2914 
Q 2772 3150 2772 3378 
Q 2772 3750 2511 3984 
Q 2250 4219 1831 4219 
Q 1534 4219 1204 4116 
Q 875 4013 500 3803 
L 500 4441 
Q 881 4594 1212 4672 
Q 1544 4750 1819 4750 
Q 2544 4750 2975 4387 
Q 3406 4025 3406 3419 
Q 3406 3131 3298 2873 
Q 3191 2616 2906 2266 
Q 2828 2175 2409 1742 
Q 1991 1309 1228 531 
z
" transform="scale(0.015625)"/>
       </defs>
       <use xlink:href="#DejaVuSans-2d"/>
       <use xlink:href="#DejaVuSans-32" x="36.083984"/>
      </g>
     </g>
    </g>
    <g id="xtick_6">
     <g id="line2d_6">
      <g>
       <use xlink:href="#m1e48544d23" x="367.570921" y="307.872" style="stroke: #000000; stroke-width: 0.8"/>
      </g>
     </g>
     <g id="text_6">
      <!-- -1 -->
      <g transform="translate(362.585765 322.470438) scale(0.1 -0.1)">
       <defs>
        <path id="DejaVuSans-31" d="M 794 531 
L 1825 531 
L 1825 4091 
L 703 3866 
L 703 4441 
L 1819 4666 
L 2450 4666 
L 2450 531 
L 3481 531 
L 3481 0 
L 794 0 
L 794 531 
z
" transform="scale(0.015625)"/>
       </defs>
       <use xlink:href="#DejaVuSans-2d"/>
       <use xlink:href="#DejaVuSans-31" x="36.083984"/>
      </g>
     </g>
    </g>
    <g id="text_7">
     <!-- Re$(S_{21})$ [mV] -->
     <g transform="translate(184.408438 336.148562) scale(0.1 -0.1)">
      <defs>
       <path id="DejaVuSans-52" d="M 2841 2188 
Q 3044 2119 3236 1894 
Q 3428 1669 3622 1275 
L 4263 0 
L 3584 0 
L 2988 1197 
Q 2756 1666 2539 1819 
Q 2322 1972 1947 1972 
L 1259 1972 
L 1259 0 
L 628 0 
L 628 4666 
L 2053 4666 
Q 2853 4666 3247 4331 
Q 3641 3997 3641 3322 
Q 3641 2881 3436 2590 
Q 3231 2300 2841 2188 
z
M 1259 4147 
L 1259 2491 
L 2053 2491 
Q 2509 2491 2742 2702 
Q 2975 2913 2975 3322 
Q 2975 3731 2742 3939 
Q 2509 4147 2053 4147 
L 1259 4147 
z
" transform="scale(0.015625)"/>
       <path id="DejaVuSans-65" d="M 3597 1894 
L 3597 1613 
L 953 1613 
Q 991 1019 1311 708 
Q 1631 397 2203 397 
Q 2534 397 2845 478 
Q 3156 559 3463 722 
L 3463 178 
Q 3153 47 2828 -22 
Q 2503 -91 2169 -91 
Q 1331 -91 842 396 
Q 353 884 353 1716 
Q 353 2575 817 3079 
Q 1281 3584 2069 3584 
Q 2775 3584 3186 3129 
Q 3597 2675 3597 1894 
z
M 3022 2063 
Q 3016 2534 2758 2815 
Q 2500 3097 2075 3097 
Q 1594 3097 1305 2825 
Q 1016 2553 972 2059 
L 3022 2063 
z
" transform="scale(0.015625)"/>
       <path id="DejaVuSans-28" d="M 1984 4856 
Q 1566 4138 1362 3434 
Q 1159 2731 1159 2009 
Q 1159 1288 1364 580 
Q 1569 -128 1984 -844 
L 1484 -844 
Q 1016 -109 783 600 
Q 550 1309 550 2009 
Q 550 2706 781 3412 
Q 1013 4119 1484 4856 
L 1984 4856 
z
" transform="scale(0.015625)"/>
       <path id="DejaVuSans-Oblique-53" d="M 3859 4513 
L 3738 3897 
Q 3422 4066 3111 4152 
Q 2800 4238 2509 4238 
Q 1944 4238 1609 3991 
Q 1275 3744 1275 3334 
Q 1275 3109 1398 2989 
Q 1522 2869 2034 2731 
L 2413 2638 
Q 3053 2472 3303 2217 
Q 3553 1963 3553 1503 
Q 3553 797 2998 353 
Q 2444 -91 1538 -91 
Q 1166 -91 791 -17 
Q 416 56 38 206 
L 166 856 
Q 513 641 861 531 
Q 1209 422 1556 422 
Q 2147 422 2503 684 
Q 2859 947 2859 1369 
Q 2859 1650 2717 1795 
Q 2575 1941 2106 2059 
L 1728 2156 
Q 1081 2325 845 2545 
Q 609 2766 609 3163 
Q 609 3859 1145 4304 
Q 1681 4750 2541 4750 
Q 2875 4750 3203 4690 
Q 3531 4631 3859 4513 
z
" transform="scale(0.015625)"/>
       <path id="DejaVuSans-29" d="M 513 4856 
L 1013 4856 
Q 1481 4119 1714 3412 
Q 1947 2706 1947 2009 
Q 1947 1309 1714 600 
Q 1481 -109 1013 -844 
L 513 -844 
Q 928 -128 1133 580 
Q 1338 1288 1338 2009 
Q 1338 2731 1133 3434 
Q 928 4138 513 4856 
z
" transform="scale(0.015625)"/>
       <path id="DejaVuSans-20" transform="scale(0.015625)"/>
       <path id="DejaVuSans-5b" d="M 550 4863 
L 1875 4863 
L 1875 4416 
L 1125 4416 
L 1125 -397 
L 1875 -397 
L 1875 -844 
L 550 -844 
L 550 4863 
z
" transform="scale(0.015625)"/>
       <path id="DejaVuSans-6d" d="M 3328 2828 
Q 3544 3216 3844 3400 
Q 4144 3584 4550 3584 
Q 5097 3584 5394 3201 
Q 5691 2819 5691 2113 
L 5691 0 
L 5113 0 
L 5113 2094 
Q 5113 2597 4934 2840 
Q 4756 3084 4391 3084 
Q 3944 3084 3684 2787 
Q 3425 2491 3425 1978 
L 3425 0 
L 2847 0 
L 2847 2094 
Q 2847 2600 2669 2842 
Q 2491 3084 2119 3084 
Q 1678 3084 1418 2786 
Q 1159 2488 1159 1978 
L 1159 0 
L 581 0 
L 581 3500 
L 1159 3500 
L 1159 2956 
Q 1356 3278 1631 3431 
Q 1906 3584 2284 3584 
Q 2666 3584 2933 3390 
Q 3200 3197 3328 2828 
z
" transform="scale(0.015625)"/>
       <path id="DejaVuSans-56" d="M 1831 0 
L 50 4666 
L 709 4666 
L 2188 738 
L 3669 4666 
L 4325 4666 
L 2547 0 
L 1831 0 
z
" transform="scale(0.015625)"/>
       <path id="DejaVuSans-5d" d="M 1947 4863 
L 1947 -844 
L 622 -844 
L 622 -397 
L 1369 -397 
L 1369 4416 
L 622 4416 
L 622 4863 
L 1947 4863 
z
" transform="scale(0.015625)"/>
      </defs>
      <use xlink:href="#DejaVuSans-52" transform="translate(0 0.015625)"/>
      <use xlink:href="#DejaVuSans-65" transform="translate(69.482422 0.015625)"/>
      <use xlink:href="#DejaVuSans-28" transform="translate(131.005859 0.015625)"/>
      <use xlink:href="#DejaVuSans-Oblique-53" transform="translate(170.019531 0.015625)"/>
      <use xlink:href="#DejaVuSans-32" transform="translate(233.496094 -16.390625) scale(0.7)"/>
      <use xlink:href="#DejaVuSans-31" transform="translate(278.032227 -16.390625) scale(0.7)"/>
      <use xlink:href="#DejaVuSans-29" transform="translate(325.302734 0.015625)"/>
      <use xlink:href="#DejaVuSans-20" transform="translate(364.316406 0.015625)"/>
      <use xlink:href="#DejaVuSans-5b" transform="translate(396.103516 0.015625)"/>
      <use xlink:href="#DejaVuSans-6d" transform="translate(435.117188 0.015625)"/>
      <use xlink:href="#DejaVuSans-56" transform="translate(532.529297 0.015625)"/>
      <use xlink:href="#DejaVuSans-5d" transform="translate(600.9375 0.015625)"/>
     </g>
    </g>
   </g>
   <g id="matplotlib.axis_2">
    <g id="ytick_1">
     <g id="line2d_7">
      <defs>
       <path id="mffab63d40d" d="M 0 0 
L -3.5 0 
" style="stroke: #000000; stroke-width: 0.8"/>
      </defs>
      <g>
       <use xlink:href="#mffab63d40d" x="37.848438" y="294.822059" style="stroke: #000000; stroke-width: 0.8"/>
      </g>
     </g>
     <g id="text_8">
      <!-- -3 -->
      <g transform="translate(20.878125 298.621277) scale(0.1 -0.1)">
       <use xlink:href="#DejaVuSans-2d"/>
       <use xlink:href="#DejaVuSans-33" x="36.083984"/>
      </g>
     </g>
    </g>
    <g id="ytick_2">
     <g id="line2d_8">
      <g>
       <use xlink:href="#mffab63d40d" x="37.848438" y="256.964013" style="stroke: #000000; stroke-width: 0.8"/>
      </g>
     </g>
     <g id="text_9">
      <!-- -2 -->
      <g transform="translate(20.878125 260.763232) scale(0.1 -0.1)">
       <use xlink:href="#DejaVuSans-2d"/>
       <use xlink:href="#DejaVuSans-32" x="36.083984"/>
      </g>
     </g>
    </g>
    <g id="ytick_3">
     <g id="line2d_9">
      <g>
       <use xlink:href="#mffab63d40d" x="37.848438" y="219.105968" style="stroke: #000000; stroke-width: 0.8"/>
      </g>
     </g>
     <g id="text_10">
      <!-- -1 -->
      <g transform="translate(20.878125 222.905186) scale(0.1 -0.1)">
       <use xlink:href="#DejaVuSans-2d"/>
       <use xlink:href="#DejaVuSans-31" x="36.083984"/>
      </g>
     </g>
    </g>
    <g id="ytick_4">
     <g id="line2d_10">
      <g>
       <use xlink:href="#mffab63d40d" x="37.848438" y="181.247922" style="stroke: #000000; stroke-width: 0.8"/>
      </g>
     </g>
     <g id="text_11">
      <!-- 0 -->
      <g transform="translate(24.485938 185.047141) scale(0.1 -0.1)">
       <defs>
        <path id="DejaVuSans-30" d="M 2034 4250 
Q 1547 4250 1301 3770 
Q 1056 3291 1056 2328 
Q 1056 1369 1301 889 
Q 1547 409 2034 409 
Q 2525 409 2770 889 
Q 3016 1369 3016 2328 
Q 3016 3291 2770 3770 
Q 2525 4250 2034 4250 
z
M 2034 4750 
Q 2819 4750 3233 4129 
Q 3647 3509 3647 2328 
Q 3647 1150 3233 529 
Q 2819 -91 2034 -91 
Q 1250 -91 836 529 
Q 422 1150 422 2328 
Q 422 3509 836 4129 
Q 1250 4750 2034 4750 
z
" transform="scale(0.015625)"/>
       </defs>
       <use xlink:href="#DejaVuSans-30"/>
      </g>
     </g>
    </g>
    <g id="ytick_5">
     <g id="line2d_11">
      <g>
       <use xlink:href="#mffab63d40d" x="37.848438" y="143.389877" style="stroke: #000000; stroke-width: 0.8"/>
      </g>
     </g>
     <g id="text_12">
      <!-- 1 -->
      <g transform="translate(24.485938 147.189096) scale(0.1 -0.1)">
       <use xlink:href="#DejaVuSans-31"/>
      </g>
     </g>
    </g>
    <g id="ytick_6">
     <g id="line2d_12">
      <g>
       <use xlink:href="#mffab63d40d" x="37.848438" y="105.531831" style="stroke: #000000; stroke-width: 0.8"/>
      </g>
     </g>
     <g id="text_13">
      <!-- 2 -->
      <g transform="translate(24.485938 109.33105) scale(0.1 -0.1)">
       <use xlink:href="#DejaVuSans-32"/>
      </g>
     </g>
    </g>
    <g id="ytick_7">
     <g id="line2d_13">
      <g>
       <use xlink:href="#mffab63d40d" x="37.848438" y="67.673786" style="stroke: #000000; stroke-width: 0.8"/>
      </g>
     </g>
     <g id="text_14">
      <!-- 3 -->
      <g transform="translate(24.485938 71.473005) scale(0.1 -0.1)">
       <use xlink:href="#DejaVuSans-33"/>
      </g>
     </g>
    </g>
    <g id="text_15">
     <!-- Im$(S_{21})$ [mV] -->
     <g transform="translate(14.798438 206.466) rotate(-90) scale(0.1 -0.1)">
      <defs>
       <path id="DejaVuSans-49" d="M 628 4666 
L 1259 4666 
L 1259 0 
L 628 0 
L 628 4666 
z
" transform="scale(0.015625)"/>
      </defs>
      <use xlink:href="#DejaVuSans-49" transform="translate(0 0.015625)"/>
      <use xlink:href="#DejaVuSans-6d" transform="translate(25.867188 0.015625)"/>
      <use xlink:href="#DejaVuSans-28" transform="translate(123.279297 0.015625)"/>
      <use xlink:href="#DejaVuSans-Oblique-53" transform="translate(162.292969 0.015625)"/>
      <use xlink:href="#DejaVuSans-32" transform="translate(225.769531 -16.390625) scale(0.7)"/>
      <use xlink:href="#DejaVuSans-31" transform="translate(270.305664 -16.390625) scale(0.7)"/>
      <use xlink:href="#DejaVuSans-29" transform="translate(317.576172 0.015625)"/>
      <use xlink:href="#DejaVuSans-20" transform="translate(356.589844 0.015625)"/>
      <use xlink:href="#DejaVuSans-5b" transform="translate(388.376953 0.015625)"/>
      <use xlink:href="#DejaVuSans-6d" transform="translate(427.390625 0.015625)"/>
      <use xlink:href="#DejaVuSans-56" transform="translate(524.802734 0.015625)"/>
      <use xlink:href="#DejaVuSans-5d" transform="translate(593.210938 0.015625)"/>
     </g>
    </g>
   </g>
   <g id="line2d_14">
    <path d="M 124.482886 63.334136 
L 126.43078 66.972478 
L 131.533638 62.064639 
L 131.676099 64.419223 
L 127.402269 60.158318 
L 138.727174 63.350657 
L 142.810883 58.396787 
L 148.327285 58.346688 
L 143.361068 61.682996 
L 159.690278 55.403119 
L 149.732689 64.109216 
L 156.770054 58.584608 
L 163.379196 59.990347 
L 170.853515 64.351985 
L 168.057646 60.011842 
L 176.483796 57.881328 
L 177.471905 56.199036 
L 186.620448 59.627487 
L 186.889914 55.177364 
L 187.371941 57.53129 
L 192.558736 53.856 
L 204.124072 56.947566 
L 202.076462 61.225815 
L 204.676585 59.367908 
L 209.283384 58.954414 
L 217.62579 62.051405 
L 216.532986 63.423484 
L 225.015655 62.344767 
L 225.166975 57.450983 
L 231.043183 62.303997 
L 240.500058 62.727355 
L 244.990003 64.281378 
L 244.752482 66.012536 
L 246.49286 63.591906 
L 252.590746 66.783547 
L 256.81142 62.915052 
L 263.89929 63.483899 
L 267.778781 69.2327 
L 273.825775 70.009506 
L 279.307192 73.768062 
L 279.235671 70.727664 
L 283.746181 75.194803 
L 292.99722 79.833528 
L 287.665507 79.275449 
L 299.092391 79.427062 
L 301.542099 80.341508 
L 302.640917 85.2461 
L 303.322635 84.979205 
L 307.467066 87.733433 
L 314.781011 93.22512 
L 311.629798 90.852453 
L 324.48543 94.754854 
L 320.908192 101.786262 
L 328.661936 102.206168 
L 334.560066 99.309821 
L 336.955778 103.217483 
L 337.800003 109.526951 
L 337.362532 104.92542 
L 343.901963 113.757896 
L 349.506312 117.552413 
L 350.206395 116.780786 
L 351.294608 122.466376 
L 355.008035 127.380668 
L 349.802163 127.260044 
L 358.673285 136.041105 
L 361.490559 135.122837 
L 359.19741 136.897272 
L 363.295345 145.854934 
L 373.511279 147.031384 
L 366.034825 148.212889 
L 365.095928 152.617763 
L 375.556625 154.485286 
L 378.73571 155.316014 
L 376.654926 165.174394 
L 376.222758 168.260247 
L 377.747666 169.513469 
L 369.827663 173.186006 
L 376.636561 178.128697 
L 377.987451 183.618864 
L 375.761554 184.409643 
L 366.255921 188.298976 
L 372.580465 191.787185 
L 365.08681 193.133536 
L 377.26079 198.342711 
L 365.510636 204.155585 
L 363.401593 205.425739 
L 360.61607 206.699346 
L 360.401053 213.11152 
L 366.493636 210.65345 
L 355.353162 213.635035 
L 354.066745 221.118118 
L 355.119585 219.613125 
L 351.619236 225.983913 
L 356.267874 229.935592 
L 345.907216 228.722729 
L 345.7288 234.760536 
L 344.011703 239.268567 
L 335.510475 238.882815 
L 337.259065 244.485017 
L 331.674827 244.838547 
L 330.555186 249.991705 
L 334.860379 250.525782 
L 325.262143 250.623022 
L 318.277028 254.023691 
L 314.747449 261.790107 
L 320.517669 258.147367 
L 310.670207 259.091527 
L 310.394274 262.962036 
L 302.54327 262.335487 
L 302.145117 268.280328 
L 295.18755 266.454725 
L 291.758334 267.930989 
L 284.064341 269.897972 
L 284.426734 270.602732 
L 278.167116 273.060145 
L 281.77436 277.035333 
L 273.206913 277.738366 
L 273.079714 273.465502 
L 265.23854 283.132773 
L 265.732723 276.718174 
L 259.025999 283.825615 
L 257.640125 283.870453 
L 255.041295 284.324306 
L 247.34491 284.11421 
L 242.715025 283.285249 
L 239.060445 283.085099 
L 230.930404 288.241626 
L 231.851648 295.776 
L 226.939686 290.122096 
L 223.603525 290.453023 
L 214.753549 285.748252 
L 214.231494 292.245665 
L 212.877242 292.028541 
L 206.364906 287.503206 
L 202.860612 285.348362 
L 196.797063 289.973853 
L 197.983893 288.074848 
L 195.803781 292.056652 
L 189.175498 289.42083 
L 190.032592 289.529988 
L 190.427189 291.616074 
L 179.286067 290.754523 
L 177.581774 291.464173 
L 165.837376 290.561688 
L 170.619486 284.9772 
L 162.728648 290.67623 
L 160.363395 287.103686 
L 158.121008 290.822993 
L 156.674865 288.819063 
L 158.076841 285.822065 
L 150.683097 290.605951 
L 154.583411 284.00238 
L 136.50367 288.884656 
L 158.006484 286.740045 
L 139.037186 282.706046 
L 132.968077 285.272247 
L 131.626693 291.081545 
L 134.989238 288.770155 
L 130.311176 282.414862 
L 127.415655 279.834399 
L 123.183277 284.90314 
L 131.815779 280.966339 
L 119.211765 283.12591 
L 120.997216 280.466497 
L 112.258402 276.431223 
L 113.681589 278.899938 
L 117.48639 282.003382 
L 106.82529 278.491746 
L 104.843252 275.350081 
L 97.755511 277.366752 
L 102.873825 272.727246 
L 94.846734 279.705308 
L 104.168519 274.216457 
L 99.766779 273.45087 
L 97.761719 273.957905 
L 90.450943 274.642814 
L 89.384264 267.967321 
L 93.687904 268.725838 
L 91.074913 274.583016 
L 89.997046 268.903055 
L 80.972858 269.26423 
L 79.907925 270.439447 
L 85.355457 268.214981 
L 75.287158 266.176733 
L 74.497641 264.08477 
L 78.759895 267.230421 
L 72.013271 264.063152 
L 71.792563 263.407094 
L 76.033283 260.846893 
L 73.768134 258.988986 
L 70.141555 259.975395 
L 62.016429 260.591012 
L 59.916568 254.908586 
L 61.670979 254.010745 
L 55.974544 252.426062 
L 60.811557 258.304077 
L 57.26012 253.877256 
L 54.081165 253.325013 
L 54.081165 253.325013 
" clip-path="url(#pe309df9df3)" style="fill: none; stroke: #1f77b4; stroke-width: 1.5; stroke-linecap: square"/>
    <defs>
     <path id="m4bc0813a09" d="M 0 1.5 
C 0.397805 1.5 0.77937 1.341951 1.06066 1.06066 
C 1.341951 0.77937 1.5 0.397805 1.5 0 
C 1.5 -0.397805 1.341951 -0.77937 1.06066 -1.06066 
C 0.77937 -1.341951 0.397805 -1.5 0 -1.5 
C -0.397805 -1.5 -0.77937 -1.341951 -1.06066 -1.06066 
C -1.341951 -0.77937 -1.5 -0.397805 -1.5 0 
C -1.5 0.397805 -1.341951 0.77937 -1.06066 1.06066 
C -0.77937 1.341951 -0.397805 1.5 0 1.5 
z
" style="stroke: #1f77b4"/>
    </defs>
    <g clip-path="url(#pe309df9df3)">
     <use xlink:href="#m4bc0813a09" x="124.482886" y="63.334136" style="fill: #1f77b4; stroke: #1f77b4"/>
     <use xlink:href="#m4bc0813a09" x="126.43078" y="66.972478" style="fill: #1f77b4; stroke: #1f77b4"/>
     <use xlink:href="#m4bc0813a09" x="131.533638" y="62.064639" style="fill: #1f77b4; stroke: #1f77b4"/>
     <use xlink:href="#m4bc0813a09" x="131.676099" y="64.419223" style="fill: #1f77b4; stroke: #1f77b4"/>
     <use xlink:href="#m4bc0813a09" x="127.402269" y="60.158318" style="fill: #1f77b4; stroke: #1f77b4"/>
     <use xlink:href="#m4bc0813a09" x="138.727174" y="63.350657" style="fill: #1f77b4; stroke: #1f77b4"/>
     <use xlink:href="#m4bc0813a09" x="142.810883" y="58.396787" style="fill: #1f77b4; stroke: #1f77b4"/>
     <use xlink:href="#m4bc0813a09" x="148.327285" y="58.346688" style="fill: #1f77b4; stroke: #1f77b4"/>
     <use xlink:href="#m4bc0813a09" x="143.361068" y="61.682996" style="fill: #1f77b4; stroke: #1f77b4"/>
     <use xlink:href="#m4bc0813a09" x="159.690278" y="55.403119" style="fill: #1f77b4; stroke: #1f77b4"/>
     <use xlink:href="#m4bc0813a09" x="149.732689" y="64.109216" style="fill: #1f77b4; stroke: #1f77b4"/>
     <use xlink:href="#m4bc0813a09" x="156.770054" y="58.584608" style="fill: #1f77b4; stroke: #1f77b4"/>
     <use xlink:href="#m4bc0813a09" x="163.379196" y="59.990347" style="fill: #1f77b4; stroke: #1f77b4"/>
     <use xlink:href="#m4bc0813a09" x="170.853515" y="64.351985" style="fill: #1f77b4; stroke: #1f77b4"/>
     <use xlink:href="#m4bc0813a09" x="168.057646" y="60.011842" style="fill: #1f77b4; stroke: #1f77b4"/>
     <use xlink:href="#m4bc0813a09" x="176.483796" y="57.881328" style="fill: #1f77b4; stroke: #1f77b4"/>
     <use xlink:href="#m4bc0813a09" x="177.471905" y="56.199036" style="fill: #1f77b4; stroke: #1f77b4"/>
     <use xlink:href="#m4bc0813a09" x="186.620448" y="59.627487" style="fill: #1f77b4; stroke: #1f77b4"/>
     <use xlink:href="#m4bc0813a09" x="186.889914" y="55.177364" style="fill: #1f77b4; stroke: #1f77b4"/>
     <use xlink:href="#m4bc0813a09" x="187.371941" y="57.53129" style="fill: #1f77b4; stroke: #1f77b4"/>
     <use xlink:href="#m4bc0813a09" x="189.393166" y="56.073232" style="fill: #1f77b4; stroke: #1f77b4"/>
     <use xlink:href="#m4bc0813a09" x="192.558736" y="53.856" style="fill: #1f77b4; stroke: #1f77b4"/>
     <use xlink:href="#m4bc0813a09" x="204.124072" y="56.947566" style="fill: #1f77b4; stroke: #1f77b4"/>
     <use xlink:href="#m4bc0813a09" x="202.076462" y="61.225815" style="fill: #1f77b4; stroke: #1f77b4"/>
     <use xlink:href="#m4bc0813a09" x="204.676585" y="59.367908" style="fill: #1f77b4; stroke: #1f77b4"/>
     <use xlink:href="#m4bc0813a09" x="209.283384" y="58.954414" style="fill: #1f77b4; stroke: #1f77b4"/>
     <use xlink:href="#m4bc0813a09" x="217.62579" y="62.051405" style="fill: #1f77b4; stroke: #1f77b4"/>
     <use xlink:href="#m4bc0813a09" x="216.532986" y="63.423484" style="fill: #1f77b4; stroke: #1f77b4"/>
     <use xlink:href="#m4bc0813a09" x="225.015655" y="62.344767" style="fill: #1f77b4; stroke: #1f77b4"/>
     <use xlink:href="#m4bc0813a09" x="225.166975" y="57.450983" style="fill: #1f77b4; stroke: #1f77b4"/>
     <use xlink:href="#m4bc0813a09" x="231.043183" y="62.303997" style="fill: #1f77b4; stroke: #1f77b4"/>
     <use xlink:href="#m4bc0813a09" x="240.500058" y="62.727355" style="fill: #1f77b4; stroke: #1f77b4"/>
     <use xlink:href="#m4bc0813a09" x="244.990003" y="64.281378" style="fill: #1f77b4; stroke: #1f77b4"/>
     <use xlink:href="#m4bc0813a09" x="244.752482" y="66.012536" style="fill: #1f77b4; stroke: #1f77b4"/>
     <use xlink:href="#m4bc0813a09" x="246.49286" y="63.591906" style="fill: #1f77b4; stroke: #1f77b4"/>
     <use xlink:href="#m4bc0813a09" x="252.590746" y="66.783547" style="fill: #1f77b4; stroke: #1f77b4"/>
     <use xlink:href="#m4bc0813a09" x="256.81142" y="62.915052" style="fill: #1f77b4; stroke: #1f77b4"/>
     <use xlink:href="#m4bc0813a09" x="263.89929" y="63.483899" style="fill: #1f77b4; stroke: #1f77b4"/>
     <use xlink:href="#m4bc0813a09" x="267.778781" y="69.2327" style="fill: #1f77b4; stroke: #1f77b4"/>
     <use xlink:href="#m4bc0813a09" x="273.825775" y="70.009506" style="fill: #1f77b4; stroke: #1f77b4"/>
     <use xlink:href="#m4bc0813a09" x="279.307192" y="73.768062" style="fill: #1f77b4; stroke: #1f77b4"/>
     <use xlink:href="#m4bc0813a09" x="279.235671" y="70.727664" style="fill: #1f77b4; stroke: #1f77b4"/>
     <use xlink:href="#m4bc0813a09" x="283.746181" y="75.194803" style="fill: #1f77b4; stroke: #1f77b4"/>
     <use xlink:href="#m4bc0813a09" x="292.99722" y="79.833528" style="fill: #1f77b4; stroke: #1f77b4"/>
     <use xlink:href="#m4bc0813a09" x="287.665507" y="79.275449" style="fill: #1f77b4; stroke: #1f77b4"/>
     <use xlink:href="#m4bc0813a09" x="299.092391" y="79.427062" style="fill: #1f77b4; stroke: #1f77b4"/>
     <use xlink:href="#m4bc0813a09" x="301.542099" y="80.341508" style="fill: #1f77b4; stroke: #1f77b4"/>
     <use xlink:href="#m4bc0813a09" x="302.640917" y="85.2461" style="fill: #1f77b4; stroke: #1f77b4"/>
     <use xlink:href="#m4bc0813a09" x="303.322635" y="84.979205" style="fill: #1f77b4; stroke: #1f77b4"/>
     <use xlink:href="#m4bc0813a09" x="307.467066" y="87.733433" style="fill: #1f77b4; stroke: #1f77b4"/>
     <use xlink:href="#m4bc0813a09" x="314.781011" y="93.22512" style="fill: #1f77b4; stroke: #1f77b4"/>
     <use xlink:href="#m4bc0813a09" x="311.629798" y="90.852453" style="fill: #1f77b4; stroke: #1f77b4"/>
     <use xlink:href="#m4bc0813a09" x="324.48543" y="94.754854" style="fill: #1f77b4; stroke: #1f77b4"/>
     <use xlink:href="#m4bc0813a09" x="320.908192" y="101.786262" style="fill: #1f77b4; stroke: #1f77b4"/>
     <use xlink:href="#m4bc0813a09" x="328.661936" y="102.206168" style="fill: #1f77b4; stroke: #1f77b4"/>
     <use xlink:href="#m4bc0813a09" x="334.560066" y="99.309821" style="fill: #1f77b4; stroke: #1f77b4"/>
     <use xlink:href="#m4bc0813a09" x="336.955778" y="103.217483" style="fill: #1f77b4; stroke: #1f77b4"/>
     <use xlink:href="#m4bc0813a09" x="337.800003" y="109.526951" style="fill: #1f77b4; stroke: #1f77b4"/>
     <use xlink:href="#m4bc0813a09" x="337.362532" y="104.92542" style="fill: #1f77b4; stroke: #1f77b4"/>
     <use xlink:href="#m4bc0813a09" x="343.901963" y="113.757896" style="fill: #1f77b4; stroke: #1f77b4"/>
     <use xlink:href="#m4bc0813a09" x="349.506312" y="117.552413" style="fill: #1f77b4; stroke: #1f77b4"/>
     <use xlink:href="#m4bc0813a09" x="350.206395" y="116.780786" style="fill: #1f77b4; stroke: #1f77b4"/>
     <use xlink:href="#m4bc0813a09" x="351.294608" y="122.466376" style="fill: #1f77b4; stroke: #1f77b4"/>
     <use xlink:href="#m4bc0813a09" x="355.008035" y="127.380668" style="fill: #1f77b4; stroke: #1f77b4"/>
     <use xlink:href="#m4bc0813a09" x="349.802163" y="127.260044" style="fill: #1f77b4; stroke: #1f77b4"/>
     <use xlink:href="#m4bc0813a09" x="358.673285" y="136.041105" style="fill: #1f77b4; stroke: #1f77b4"/>
     <use xlink:href="#m4bc0813a09" x="361.490559" y="135.122837" style="fill: #1f77b4; stroke: #1f77b4"/>
     <use xlink:href="#m4bc0813a09" x="359.19741" y="136.897272" style="fill: #1f77b4; stroke: #1f77b4"/>
     <use xlink:href="#m4bc0813a09" x="363.295345" y="145.854934" style="fill: #1f77b4; stroke: #1f77b4"/>
     <use xlink:href="#m4bc0813a09" x="373.511279" y="147.031384" style="fill: #1f77b4; stroke: #1f77b4"/>
     <use xlink:href="#m4bc0813a09" x="366.034825" y="148.212889" style="fill: #1f77b4; stroke: #1f77b4"/>
     <use xlink:href="#m4bc0813a09" x="365.095928" y="152.617763" style="fill: #1f77b4; stroke: #1f77b4"/>
     <use xlink:href="#m4bc0813a09" x="375.556625" y="154.485286" style="fill: #1f77b4; stroke: #1f77b4"/>
     <use xlink:href="#m4bc0813a09" x="378.73571" y="155.316014" style="fill: #1f77b4; stroke: #1f77b4"/>
     <use xlink:href="#m4bc0813a09" x="376.654926" y="165.174394" style="fill: #1f77b4; stroke: #1f77b4"/>
     <use xlink:href="#m4bc0813a09" x="376.222758" y="168.260247" style="fill: #1f77b4; stroke: #1f77b4"/>
     <use xlink:href="#m4bc0813a09" x="377.747666" y="169.513469" style="fill: #1f77b4; stroke: #1f77b4"/>
     <use xlink:href="#m4bc0813a09" x="369.827663" y="173.186006" style="fill: #1f77b4; stroke: #1f77b4"/>
     <use xlink:href="#m4bc0813a09" x="376.636561" y="178.128697" style="fill: #1f77b4; stroke: #1f77b4"/>
     <use xlink:href="#m4bc0813a09" x="377.987451" y="183.618864" style="fill: #1f77b4; stroke: #1f77b4"/>
     <use xlink:href="#m4bc0813a09" x="375.761554" y="184.409643" style="fill: #1f77b4; stroke: #1f77b4"/>
     <use xlink:href="#m4bc0813a09" x="366.255921" y="188.298976" style="fill: #1f77b4; stroke: #1f77b4"/>
     <use xlink:href="#m4bc0813a09" x="372.580465" y="191.787185" style="fill: #1f77b4; stroke: #1f77b4"/>
     <use xlink:href="#m4bc0813a09" x="365.08681" y="193.133536" style="fill: #1f77b4; stroke: #1f77b4"/>
     <use xlink:href="#m4bc0813a09" x="377.26079" y="198.342711" style="fill: #1f77b4; stroke: #1f77b4"/>
     <use xlink:href="#m4bc0813a09" x="365.510636" y="204.155585" style="fill: #1f77b4; stroke: #1f77b4"/>
     <use xlink:href="#m4bc0813a09" x="363.401593" y="205.425739" style="fill: #1f77b4; stroke: #1f77b4"/>
     <use xlink:href="#m4bc0813a09" x="360.61607" y="206.699346" style="fill: #1f77b4; stroke: #1f77b4"/>
     <use xlink:href="#m4bc0813a09" x="360.401053" y="213.11152" style="fill: #1f77b4; stroke: #1f77b4"/>
     <use xlink:href="#m4bc0813a09" x="366.493636" y="210.65345" style="fill: #1f77b4; stroke: #1f77b4"/>
     <use xlink:href="#m4bc0813a09" x="355.353162" y="213.635035" style="fill: #1f77b4; stroke: #1f77b4"/>
     <use xlink:href="#m4bc0813a09" x="354.066745" y="221.118118" style="fill: #1f77b4; stroke: #1f77b4"/>
     <use xlink:href="#m4bc0813a09" x="355.119585" y="219.613125" style="fill: #1f77b4; stroke: #1f77b4"/>
     <use xlink:href="#m4bc0813a09" x="351.619236" y="225.983913" style="fill: #1f77b4; stroke: #1f77b4"/>
     <use xlink:href="#m4bc0813a09" x="356.267874" y="229.935592" style="fill: #1f77b4; stroke: #1f77b4"/>
     <use xlink:href="#m4bc0813a09" x="345.907216" y="228.722729" style="fill: #1f77b4; stroke: #1f77b4"/>
     <use xlink:href="#m4bc0813a09" x="345.7288" y="234.760536" style="fill: #1f77b4; stroke: #1f77b4"/>
     <use xlink:href="#m4bc0813a09" x="344.011703" y="239.268567" style="fill: #1f77b4; stroke: #1f77b4"/>
     <use xlink:href="#m4bc0813a09" x="335.510475" y="238.882815" style="fill: #1f77b4; stroke: #1f77b4"/>
     <use xlink:href="#m4bc0813a09" x="337.259065" y="244.485017" style="fill: #1f77b4; stroke: #1f77b4"/>
     <use xlink:href="#m4bc0813a09" x="331.674827" y="244.838547" style="fill: #1f77b4; stroke: #1f77b4"/>
     <use xlink:href="#m4bc0813a09" x="330.555186" y="249.991705" style="fill: #1f77b4; stroke: #1f77b4"/>
     <use xlink:href="#m4bc0813a09" x="334.860379" y="250.525782" style="fill: #1f77b4; stroke: #1f77b4"/>
     <use xlink:href="#m4bc0813a09" x="325.262143" y="250.623022" style="fill: #1f77b4; stroke: #1f77b4"/>
     <use xlink:href="#m4bc0813a09" x="318.277028" y="254.023691" style="fill: #1f77b4; stroke: #1f77b4"/>
     <use xlink:href="#m4bc0813a09" x="314.747449" y="261.790107" style="fill: #1f77b4; stroke: #1f77b4"/>
     <use xlink:href="#m4bc0813a09" x="320.517669" y="258.147367" style="fill: #1f77b4; stroke: #1f77b4"/>
     <use xlink:href="#m4bc0813a09" x="310.670207" y="259.091527" style="fill: #1f77b4; stroke: #1f77b4"/>
     <use xlink:href="#m4bc0813a09" x="310.394274" y="262.962036" style="fill: #1f77b4; stroke: #1f77b4"/>
     <use xlink:href="#m4bc0813a09" x="302.54327" y="262.335487" style="fill: #1f77b4; stroke: #1f77b4"/>
     <use xlink:href="#m4bc0813a09" x="302.145117" y="268.280328" style="fill: #1f77b4; stroke: #1f77b4"/>
     <use xlink:href="#m4bc0813a09" x="295.18755" y="266.454725" style="fill: #1f77b4; stroke: #1f77b4"/>
     <use xlink:href="#m4bc0813a09" x="291.758334" y="267.930989" style="fill: #1f77b4; stroke: #1f77b4"/>
     <use xlink:href="#m4bc0813a09" x="284.064341" y="269.897972" style="fill: #1f77b4; stroke: #1f77b4"/>
     <use xlink:href="#m4bc0813a09" x="284.426734" y="270.602732" style="fill: #1f77b4; stroke: #1f77b4"/>
     <use xlink:href="#m4bc0813a09" x="278.167116" y="273.060145" style="fill: #1f77b4; stroke: #1f77b4"/>
     <use xlink:href="#m4bc0813a09" x="281.77436" y="277.035333" style="fill: #1f77b4; stroke: #1f77b4"/>
     <use xlink:href="#m4bc0813a09" x="273.206913" y="277.738366" style="fill: #1f77b4; stroke: #1f77b4"/>
     <use xlink:href="#m4bc0813a09" x="273.079714" y="273.465502" style="fill: #1f77b4; stroke: #1f77b4"/>
     <use xlink:href="#m4bc0813a09" x="265.23854" y="283.132773" style="fill: #1f77b4; stroke: #1f77b4"/>
     <use xlink:href="#m4bc0813a09" x="265.732723" y="276.718174" style="fill: #1f77b4; stroke: #1f77b4"/>
     <use xlink:href="#m4bc0813a09" x="259.025999" y="283.825615" style="fill: #1f77b4; stroke: #1f77b4"/>
     <use xlink:href="#m4bc0813a09" x="257.640125" y="283.870453" style="fill: #1f77b4; stroke: #1f77b4"/>
     <use xlink:href="#m4bc0813a09" x="255.041295" y="284.324306" style="fill: #1f77b4; stroke: #1f77b4"/>
     <use xlink:href="#m4bc0813a09" x="247.34491" y="284.11421" style="fill: #1f77b4; stroke: #1f77b4"/>
     <use xlink:href="#m4bc0813a09" x="242.715025" y="283.285249" style="fill: #1f77b4; stroke: #1f77b4"/>
     <use xlink:href="#m4bc0813a09" x="239.342716" y="283.0066" style="fill: #1f77b4; stroke: #1f77b4"/>
     <use xlink:href="#m4bc0813a09" x="239.060445" y="283.085099" style="fill: #1f77b4; stroke: #1f77b4"/>
     <use xlink:href="#m4bc0813a09" x="230.930404" y="288.241626" style="fill: #1f77b4; stroke: #1f77b4"/>
     <use xlink:href="#m4bc0813a09" x="231.851648" y="295.776" style="fill: #1f77b4; stroke: #1f77b4"/>
     <use xlink:href="#m4bc0813a09" x="226.939686" y="290.122096" style="fill: #1f77b4; stroke: #1f77b4"/>
     <use xlink:href="#m4bc0813a09" x="223.603525" y="290.453023" style="fill: #1f77b4; stroke: #1f77b4"/>
     <use xlink:href="#m4bc0813a09" x="214.753549" y="285.748252" style="fill: #1f77b4; stroke: #1f77b4"/>
     <use xlink:href="#m4bc0813a09" x="214.231494" y="292.245665" style="fill: #1f77b4; stroke: #1f77b4"/>
     <use xlink:href="#m4bc0813a09" x="212.877242" y="292.028541" style="fill: #1f77b4; stroke: #1f77b4"/>
     <use xlink:href="#m4bc0813a09" x="206.364906" y="287.503206" style="fill: #1f77b4; stroke: #1f77b4"/>
     <use xlink:href="#m4bc0813a09" x="202.860612" y="285.348362" style="fill: #1f77b4; stroke: #1f77b4"/>
     <use xlink:href="#m4bc0813a09" x="196.797063" y="289.973853" style="fill: #1f77b4; stroke: #1f77b4"/>
     <use xlink:href="#m4bc0813a09" x="197.983893" y="288.074848" style="fill: #1f77b4; stroke: #1f77b4"/>
     <use xlink:href="#m4bc0813a09" x="195.803781" y="292.056652" style="fill: #1f77b4; stroke: #1f77b4"/>
     <use xlink:href="#m4bc0813a09" x="189.175498" y="289.42083" style="fill: #1f77b4; stroke: #1f77b4"/>
     <use xlink:href="#m4bc0813a09" x="190.032592" y="289.529988" style="fill: #1f77b4; stroke: #1f77b4"/>
     <use xlink:href="#m4bc0813a09" x="190.427189" y="291.616074" style="fill: #1f77b4; stroke: #1f77b4"/>
     <use xlink:href="#m4bc0813a09" x="179.286067" y="290.754523" style="fill: #1f77b4; stroke: #1f77b4"/>
     <use xlink:href="#m4bc0813a09" x="177.581774" y="291.464173" style="fill: #1f77b4; stroke: #1f77b4"/>
     <use xlink:href="#m4bc0813a09" x="165.837376" y="290.561688" style="fill: #1f77b4; stroke: #1f77b4"/>
     <use xlink:href="#m4bc0813a09" x="170.619486" y="284.9772" style="fill: #1f77b4; stroke: #1f77b4"/>
     <use xlink:href="#m4bc0813a09" x="162.728648" y="290.67623" style="fill: #1f77b4; stroke: #1f77b4"/>
     <use xlink:href="#m4bc0813a09" x="160.363395" y="287.103686" style="fill: #1f77b4; stroke: #1f77b4"/>
     <use xlink:href="#m4bc0813a09" x="158.121008" y="290.822993" style="fill: #1f77b4; stroke: #1f77b4"/>
     <use xlink:href="#m4bc0813a09" x="156.674865" y="288.819063" style="fill: #1f77b4; stroke: #1f77b4"/>
     <use xlink:href="#m4bc0813a09" x="158.076841" y="285.822065" style="fill: #1f77b4; stroke: #1f77b4"/>
     <use xlink:href="#m4bc0813a09" x="150.683097" y="290.605951" style="fill: #1f77b4; stroke: #1f77b4"/>
     <use xlink:href="#m4bc0813a09" x="154.583411" y="284.00238" style="fill: #1f77b4; stroke: #1f77b4"/>
     <use xlink:href="#m4bc0813a09" x="136.50367" y="288.884656" style="fill: #1f77b4; stroke: #1f77b4"/>
     <use xlink:href="#m4bc0813a09" x="158.006484" y="286.740045" style="fill: #1f77b4; stroke: #1f77b4"/>
     <use xlink:href="#m4bc0813a09" x="139.037186" y="282.706046" style="fill: #1f77b4; stroke: #1f77b4"/>
     <use xlink:href="#m4bc0813a09" x="132.968077" y="285.272247" style="fill: #1f77b4; stroke: #1f77b4"/>
     <use xlink:href="#m4bc0813a09" x="131.626693" y="291.081545" style="fill: #1f77b4; stroke: #1f77b4"/>
     <use xlink:href="#m4bc0813a09" x="134.989238" y="288.770155" style="fill: #1f77b4; stroke: #1f77b4"/>
     <use xlink:href="#m4bc0813a09" x="130.311176" y="282.414862" style="fill: #1f77b4; stroke: #1f77b4"/>
     <use xlink:href="#m4bc0813a09" x="127.415655" y="279.834399" style="fill: #1f77b4; stroke: #1f77b4"/>
     <use xlink:href="#m4bc0813a09" x="123.183277" y="284.90314" style="fill: #1f77b4; stroke: #1f77b4"/>
     <use xlink:href="#m4bc0813a09" x="131.815779" y="280.966339" style="fill: #1f77b4; stroke: #1f77b4"/>
     <use xlink:href="#m4bc0813a09" x="119.211765" y="283.12591" style="fill: #1f77b4; stroke: #1f77b4"/>
     <use xlink:href="#m4bc0813a09" x="120.997216" y="280.466497" style="fill: #1f77b4; stroke: #1f77b4"/>
     <use xlink:href="#m4bc0813a09" x="112.258402" y="276.431223" style="fill: #1f77b4; stroke: #1f77b4"/>
     <use xlink:href="#m4bc0813a09" x="113.681589" y="278.899938" style="fill: #1f77b4; stroke: #1f77b4"/>
     <use xlink:href="#m4bc0813a09" x="117.48639" y="282.003382" style="fill: #1f77b4; stroke: #1f77b4"/>
     <use xlink:href="#m4bc0813a09" x="106.82529" y="278.491746" style="fill: #1f77b4; stroke: #1f77b4"/>
     <use xlink:href="#m4bc0813a09" x="104.843252" y="275.350081" style="fill: #1f77b4; stroke: #1f77b4"/>
     <use xlink:href="#m4bc0813a09" x="97.755511" y="277.366752" style="fill: #1f77b4; stroke: #1f77b4"/>
     <use xlink:href="#m4bc0813a09" x="102.873825" y="272.727246" style="fill: #1f77b4; stroke: #1f77b4"/>
     <use xlink:href="#m4bc0813a09" x="94.846734" y="279.705308" style="fill: #1f77b4; stroke: #1f77b4"/>
     <use xlink:href="#m4bc0813a09" x="104.168519" y="274.216457" style="fill: #1f77b4; stroke: #1f77b4"/>
     <use xlink:href="#m4bc0813a09" x="99.766779" y="273.45087" style="fill: #1f77b4; stroke: #1f77b4"/>
     <use xlink:href="#m4bc0813a09" x="97.761719" y="273.957905" style="fill: #1f77b4; stroke: #1f77b4"/>
     <use xlink:href="#m4bc0813a09" x="90.450943" y="274.642814" style="fill: #1f77b4; stroke: #1f77b4"/>
     <use xlink:href="#m4bc0813a09" x="89.384264" y="267.967321" style="fill: #1f77b4; stroke: #1f77b4"/>
     <use xlink:href="#m4bc0813a09" x="93.687904" y="268.725838" style="fill: #1f77b4; stroke: #1f77b4"/>
     <use xlink:href="#m4bc0813a09" x="91.074913" y="274.583016" style="fill: #1f77b4; stroke: #1f77b4"/>
     <use xlink:href="#m4bc0813a09" x="89.997046" y="268.903055" style="fill: #1f77b4; stroke: #1f77b4"/>
     <use xlink:href="#m4bc0813a09" x="80.972858" y="269.26423" style="fill: #1f77b4; stroke: #1f77b4"/>
     <use xlink:href="#m4bc0813a09" x="79.907925" y="270.439447" style="fill: #1f77b4; stroke: #1f77b4"/>
     <use xlink:href="#m4bc0813a09" x="85.355457" y="268.214981" style="fill: #1f77b4; stroke: #1f77b4"/>
     <use xlink:href="#m4bc0813a09" x="75.287158" y="266.176733" style="fill: #1f77b4; stroke: #1f77b4"/>
     <use xlink:href="#m4bc0813a09" x="74.497641" y="264.08477" style="fill: #1f77b4; stroke: #1f77b4"/>
     <use xlink:href="#m4bc0813a09" x="78.759895" y="267.230421" style="fill: #1f77b4; stroke: #1f77b4"/>
     <use xlink:href="#m4bc0813a09" x="72.013271" y="264.063152" style="fill: #1f77b4; stroke: #1f77b4"/>
     <use xlink:href="#m4bc0813a09" x="71.792563" y="263.407094" style="fill: #1f77b4; stroke: #1f77b4"/>
     <use xlink:href="#m4bc0813a09" x="76.033283" y="260.846893" style="fill: #1f77b4; stroke: #1f77b4"/>
     <use xlink:href="#m4bc0813a09" x="73.768134" y="258.988986" style="fill: #1f77b4; stroke: #1f77b4"/>
     <use xlink:href="#m4bc0813a09" x="70.141555" y="259.975395" style="fill: #1f77b4; stroke: #1f77b4"/>
     <use xlink:href="#m4bc0813a09" x="62.016429" y="260.591012" style="fill: #1f77b4; stroke: #1f77b4"/>
     <use xlink:href="#m4bc0813a09" x="59.916568" y="254.908586" style="fill: #1f77b4; stroke: #1f77b4"/>
     <use xlink:href="#m4bc0813a09" x="61.670979" y="254.010745" style="fill: #1f77b4; stroke: #1f77b4"/>
     <use xlink:href="#m4bc0813a09" x="55.974544" y="252.426062" style="fill: #1f77b4; stroke: #1f77b4"/>
     <use xlink:href="#m4bc0813a09" x="60.811557" y="258.304077" style="fill: #1f77b4; stroke: #1f77b4"/>
     <use xlink:href="#m4bc0813a09" x="57.26012" y="253.877256" style="fill: #1f77b4; stroke: #1f77b4"/>
     <use xlink:href="#m4bc0813a09" x="54.081165" y="253.325013" style="fill: #1f77b4; stroke: #1f77b4"/>
    </g>
   </g>
   <g id="line2d_15">
    <path d="M 122.866146 64.71151 
L 130.792438 63.103305 
L 138.393041 61.776856 
L 146.26645 60.619077 
L 154.41086 59.647546 
L 162.822243 58.880877 
L 170.761633 58.374783 
L 178.912641 58.073047 
L 187.265752 57.991979 
L 195.808904 58.148341 
L 203.727868 58.510887 
L 211.778305 59.096716 
L 219.944653 59.91876 
L 228.208997 60.989798 
L 235.7139 62.176935 
L 243.26507 63.584613 
L 250.84416 65.221143 
L 258.431083 67.094269 
L 266.004022 69.211029 
L 272.704805 71.302152 
L 279.358363 73.594378 
L 285.946105 76.090692 
L 292.448527 78.793294 
L 298.845301 81.703508 
L 305.115375 84.821703 
L 310.480745 87.720241 
L 315.717735 90.776394 
L 320.811355 93.988355 
L 325.746513 97.353609 
L 330.50811 100.868917 
L 335.081147 104.530295 
L 339.450828 108.333004 
L 343.602673 112.271553 
L 347.522635 116.339698 
L 350.68779 119.924554 
L 353.664529 123.594689 
L 356.445141 127.344916 
L 359.022377 131.169688 
L 361.389494 135.063127 
L 363.540309 139.019041 
L 365.469236 143.030953 
L 367.17133 147.092132 
L 368.642315 151.19562 
L 369.878625 155.334273 
L 370.877416 159.500792 
L 371.636597 163.687763 
L 372.154836 167.887696 
L 372.431571 172.093063 
L 372.467011 176.296338 
L 372.262128 180.490038 
L 371.818652 184.666763 
L 371.139052 188.819229 
L 370.22651 192.94031 
L 369.084903 197.02307 
L 367.71876 201.060795 
L 366.133233 205.047026 
L 364.334056 208.975584 
L 362.327499 212.840593 
L 360.120321 216.636505 
L 357.719725 220.358118 
L 355.133308 224.000588 
L 352.369004 227.559442 
L 348.930146 231.60032 
L 345.27384 235.515998 
L 341.413891 239.301358 
L 337.364329 242.951999 
L 333.139312 246.464223 
L 328.753028 249.835024 
L 324.219609 253.062066 
L 318.876325 256.571939 
L 313.379649 259.890307 
L 307.7496 263.016604 
L 302.005578 265.95118 
L 296.166271 268.695224 
L 290.249568 271.250687 
L 283.521938 273.903481 
L 276.740761 276.325634 
L 269.927398 278.52266 
L 263.101669 280.500785 
L 255.52518 282.450269 
L 247.978749 284.147947 
L 240.482886 285.604378 
L 233.055873 286.830491 
L 224.984887 287.926521 
L 217.035367 288.772355 
L 209.223211 289.382941 
L 201.561758 289.77305 
L 193.388544 289.964154 
L 185.419108 289.928303 
L 177.662139 289.683032 
L 169.505772 289.200422 
L 161.611357 288.511901 
L 153.405745 287.561915 
L 145.507814 286.417307 
L 137.915913 285.098598 
L 130.117218 283.513959 
L 122.659296 281.772453 
L 115.070748 279.763718 
L 107.849588 277.619706 
L 100.983474 275.359423 
L 94.062595 272.849433 
L 87.511484 270.245412 
L 80.959709 267.403412 
L 74.784416 264.490438 
L 68.653176 261.35456 
L 62.897803 258.17036 
L 57.222117 254.780211 
L 56.403156 254.269078 
L 56.403156 254.269078 
" clip-path="url(#pe309df9df3)" style="fill: none; stroke: #d62728; stroke-width: 1.5; stroke-linecap: square"/>
   </g>
   <g id="patch_3">
    <path d="M 37.848438 307.872 
L 37.848438 41.76 
" style="fill: none; stroke: #000000; stroke-width: 0.8; stroke-linejoin: miter; stroke-linecap: square"/>
   </g>
   <g id="patch_4">
    <path d="M 394.968438 307.872 
L 394.968438 41.76 
" style="fill: none; stroke: #000000; stroke-width: 0.8; stroke-linejoin: miter; stroke-linecap: square"/>
   </g>
   <g id="patch_5">
    <path d="M 37.848438 307.872 
L 394.968438 307.872 
" style="fill: none; stroke: #000000; stroke-width: 0.8; stroke-linejoin: miter; stroke-linecap: square"/>
   </g>
   <g id="patch_6">
    <path d="M 37.848438 41.76 
L 394.968438 41.76 
" style="fill: none; stroke: #000000; stroke-width: 0.8; stroke-linejoin: miter; stroke-linecap: square"/>
   </g>
   <g id="text_16">
    <g id="patch_7">
     <path d="M 412.824438 102.337163 
L 552.224438 102.337163 
Q 556.224438 102.337163 556.224438 98.337163 
L 556.224438 55.0656 
Q 556.224438 51.0656 552.224438 51.0656 
L 412.824438 51.0656 
Q 408.824438 51.0656 408.824438 55.0656 
L 408.824438 98.337163 
Q 408.824438 102.337163 412.824438 102.337163 
z
" style="fill: #ffffff; opacity: 0.5; stroke: #000000; stroke-linejoin: miter"/>
    </g>
    <!-- Summary -->
    <g transform="translate(412.824438 62.664038) scale(0.1 -0.1)">
     <defs>
      <path id="DejaVuSans-53" d="M 3425 4513 
L 3425 3897 
Q 3066 4069 2747 4153 
Q 2428 4238 2131 4238 
Q 1616 4238 1336 4038 
Q 1056 3838 1056 3469 
Q 1056 3159 1242 3001 
Q 1428 2844 1947 2747 
L 2328 2669 
Q 3034 2534 3370 2195 
Q 3706 1856 3706 1288 
Q 3706 609 3251 259 
Q 2797 -91 1919 -91 
Q 1588 -91 1214 -16 
Q 841 59 441 206 
L 441 856 
Q 825 641 1194 531 
Q 1563 422 1919 422 
Q 2459 422 2753 634 
Q 3047 847 3047 1241 
Q 3047 1584 2836 1778 
Q 2625 1972 2144 2069 
L 1759 2144 
Q 1053 2284 737 2584 
Q 422 2884 422 3419 
Q 422 4038 858 4394 
Q 1294 4750 2059 4750 
Q 2388 4750 2728 4690 
Q 3069 4631 3425 4513 
z
" transform="scale(0.015625)"/>
      <path id="DejaVuSans-75" d="M 544 1381 
L 544 3500 
L 1119 3500 
L 1119 1403 
Q 1119 906 1312 657 
Q 1506 409 1894 409 
Q 2359 409 2629 706 
Q 2900 1003 2900 1516 
L 2900 3500 
L 3475 3500 
L 3475 0 
L 2900 0 
L 2900 538 
Q 2691 219 2414 64 
Q 2138 -91 1772 -91 
Q 1169 -91 856 284 
Q 544 659 544 1381 
z
M 1991 3584 
L 1991 3584 
z
" transform="scale(0.015625)"/>
      <path id="DejaVuSans-61" d="M 2194 1759 
Q 1497 1759 1228 1600 
Q 959 1441 959 1056 
Q 959 750 1161 570 
Q 1363 391 1709 391 
Q 2188 391 2477 730 
Q 2766 1069 2766 1631 
L 2766 1759 
L 2194 1759 
z
M 3341 1997 
L 3341 0 
L 2766 0 
L 2766 531 
Q 2569 213 2275 61 
Q 1981 -91 1556 -91 
Q 1019 -91 701 211 
Q 384 513 384 1019 
Q 384 1609 779 1909 
Q 1175 2209 1959 2209 
L 2766 2209 
L 2766 2266 
Q 2766 2663 2505 2880 
Q 2244 3097 1772 3097 
Q 1472 3097 1187 3025 
Q 903 2953 641 2809 
L 641 3341 
Q 956 3463 1253 3523 
Q 1550 3584 1831 3584 
Q 2591 3584 2966 3190 
Q 3341 2797 3341 1997 
z
" transform="scale(0.015625)"/>
      <path id="DejaVuSans-72" d="M 2631 2963 
Q 2534 3019 2420 3045 
Q 2306 3072 2169 3072 
Q 1681 3072 1420 2755 
Q 1159 2438 1159 1844 
L 1159 0 
L 581 0 
L 581 3500 
L 1159 3500 
L 1159 2956 
Q 1341 3275 1631 3429 
Q 1922 3584 2338 3584 
Q 2397 3584 2469 3576 
Q 2541 3569 2628 3553 
L 2631 2963 
z
" transform="scale(0.015625)"/>
      <path id="DejaVuSans-79" d="M 2059 -325 
Q 1816 -950 1584 -1140 
Q 1353 -1331 966 -1331 
L 506 -1331 
L 506 -850 
L 844 -850 
Q 1081 -850 1212 -737 
Q 1344 -625 1503 -206 
L 1606 56 
L 191 3500 
L 800 3500 
L 1894 763 
L 2988 3500 
L 3597 3500 
L 2059 -325 
z
" transform="scale(0.015625)"/>
     </defs>
     <use xlink:href="#DejaVuSans-53"/>
     <use xlink:href="#DejaVuSans-75" x="63.476562"/>
     <use xlink:href="#DejaVuSans-6d" x="126.855469"/>
     <use xlink:href="#DejaVuSans-6d" x="224.267578"/>
     <use xlink:href="#DejaVuSans-61" x="321.679688"/>
     <use xlink:href="#DejaVuSans-72" x="382.958984"/>
     <use xlink:href="#DejaVuSans-79" x="424.072266"/>
    </g>
    <!-- $Q_I$: 17.56$\pm$0.19 k -->
    <g transform="translate(412.824438 73.86185) scale(0.1 -0.1)">
     <defs>
      <path id="DejaVuSans-Oblique-51" d="M 2309 -84 
Q 2275 -88 2237 -89 
Q 2200 -91 2125 -91 
Q 1250 -91 756 411 
Q 263 913 263 1797 
Q 263 2319 452 2844 
Q 641 3369 978 3788 
Q 1369 4269 1858 4509 
Q 2347 4750 2938 4750 
Q 3794 4750 4287 4245 
Q 4781 3741 4781 2869 
Q 4781 1928 4265 1147 
Q 3750 366 2919 44 
L 3553 -825 
L 2847 -825 
L 2309 -84 
z
M 2919 4238 
Q 2400 4238 2003 3986 
Q 1606 3734 1313 3219 
Q 1125 2891 1026 2522 
Q 928 2153 928 1778 
Q 928 1128 1239 775 
Q 1550 422 2119 422 
Q 2631 422 3032 676 
Q 3434 931 3719 1434 
Q 3909 1772 4009 2142 
Q 4109 2513 4109 2881 
Q 4109 3528 3796 3883 
Q 3484 4238 2919 4238 
z
" transform="scale(0.015625)"/>
      <path id="DejaVuSans-Oblique-49" d="M 1081 4666 
L 1716 4666 
L 806 0 
L 172 0 
L 1081 4666 
z
" transform="scale(0.015625)"/>
      <path id="DejaVuSans-3a" d="M 750 794 
L 1409 794 
L 1409 0 
L 750 0 
L 750 794 
z
M 750 3309 
L 1409 3309 
L 1409 2516 
L 750 2516 
L 750 3309 
z
" transform="scale(0.015625)"/>
      <path id="DejaVuSans-37" d="M 525 4666 
L 3525 4666 
L 3525 4397 
L 1831 0 
L 1172 0 
L 2766 4134 
L 525 4134 
L 525 4666 
z
" transform="scale(0.015625)"/>
      <path id="DejaVuSans-2e" d="M 684 794 
L 1344 794 
L 1344 0 
L 684 0 
L 684 794 
z
" transform="scale(0.015625)"/>
      <path id="DejaVuSans-b1" d="M 2944 4013 
L 2944 2803 
L 4684 2803 
L 4684 2272 
L 2944 2272 
L 2944 1063 
L 2419 1063 
L 2419 2272 
L 678 2272 
L 678 2803 
L 2419 2803 
L 2419 4013 
L 2944 4013 
z
M 678 531 
L 4684 531 
L 4684 0 
L 678 0 
L 678 531 
z
" transform="scale(0.015625)"/>
      <path id="DejaVuSans-39" d="M 703 97 
L 703 672 
Q 941 559 1184 500 
Q 1428 441 1663 441 
Q 2288 441 2617 861 
Q 2947 1281 2994 2138 
Q 2813 1869 2534 1725 
Q 2256 1581 1919 1581 
Q 1219 1581 811 2004 
Q 403 2428 403 3163 
Q 403 3881 828 4315 
Q 1253 4750 1959 4750 
Q 2769 4750 3195 4129 
Q 3622 3509 3622 2328 
Q 3622 1225 3098 567 
Q 2575 -91 1691 -91 
Q 1453 -91 1209 -44 
Q 966 3 703 97 
z
M 1959 2075 
Q 2384 2075 2632 2365 
Q 2881 2656 2881 3163 
Q 2881 3666 2632 3958 
Q 2384 4250 1959 4250 
Q 1534 4250 1286 3958 
Q 1038 3666 1038 3163 
Q 1038 2656 1286 2365 
Q 1534 2075 1959 2075 
z
" transform="scale(0.015625)"/>
      <path id="DejaVuSans-6b" d="M 581 4863 
L 1159 4863 
L 1159 1991 
L 2875 3500 
L 3609 3500 
L 1753 1863 
L 3688 0 
L 2938 0 
L 1159 1709 
L 1159 0 
L 581 0 
L 581 4863 
z
" transform="scale(0.015625)"/>
     </defs>
     <use xlink:href="#DejaVuSans-Oblique-51" transform="translate(0 0.015625)"/>
     <use xlink:href="#DejaVuSans-Oblique-49" transform="translate(78.710938 -16.390625) scale(0.7)"/>
     <use xlink:href="#DejaVuSans-3a" transform="translate(102.089844 0.015625)"/>
     <use xlink:href="#DejaVuSans-20" transform="translate(135.78125 0.015625)"/>
     <use xlink:href="#DejaVuSans-31" transform="translate(167.568359 0.015625)"/>
     <use xlink:href="#DejaVuSans-37" transform="translate(231.191406 0.015625)"/>
     <use xlink:href="#DejaVuSans-2e" transform="translate(294.814453 0.015625)"/>
     <use xlink:href="#DejaVuSans-35" transform="translate(326.601562 0.015625)"/>
     <use xlink:href="#DejaVuSans-36" transform="translate(390.224609 0.015625)"/>
     <use xlink:href="#DejaVuSans-b1" transform="translate(453.847656 0.015625)"/>
     <use xlink:href="#DejaVuSans-30" transform="translate(537.636719 0.015625)"/>
     <use xlink:href="#DejaVuSans-2e" transform="translate(601.259766 0.015625)"/>
     <use xlink:href="#DejaVuSans-31" transform="translate(633.046875 0.015625)"/>
     <use xlink:href="#DejaVuSans-39" transform="translate(696.669922 0.015625)"/>
     <use xlink:href="#DejaVuSans-20" transform="translate(760.292969 0.015625)"/>
     <use xlink:href="#DejaVuSans-6b" transform="translate(792.080078 0.015625)"/>
    </g>
    <!-- $Q_C$: 2.343$\pm$0.017 k -->
    <g transform="translate(412.824438 85.059663) scale(0.1 -0.1)">
     <defs>
      <path id="DejaVuSans-Oblique-43" d="M 4447 4306 
L 4319 3641 
Q 4019 3944 3683 4091 
Q 3347 4238 2956 4238 
Q 2422 4238 2017 3981 
Q 1613 3725 1319 3200 
Q 1131 2863 1032 2486 
Q 934 2109 934 1728 
Q 934 1091 1264 756 
Q 1594 422 2222 422 
Q 2656 422 3056 561 
Q 3456 700 3834 978 
L 3688 231 
Q 3316 72 2936 -9 
Q 2556 -91 2175 -91 
Q 1278 -91 773 396 
Q 269 884 269 1753 
Q 269 2309 461 2846 
Q 653 3384 1013 3828 
Q 1394 4300 1883 4525 
Q 2372 4750 3022 4750 
Q 3422 4750 3780 4639 
Q 4138 4528 4447 4306 
z
" transform="scale(0.015625)"/>
     </defs>
     <use xlink:href="#DejaVuSans-Oblique-51" transform="translate(0 0.015625)"/>
     <use xlink:href="#DejaVuSans-Oblique-43" transform="translate(78.710938 -16.390625) scale(0.7)"/>
     <use xlink:href="#DejaVuSans-3a" transform="translate(130.322266 0.015625)"/>
     <use xlink:href="#DejaVuSans-20" transform="translate(164.013672 0.015625)"/>
     <use xlink:href="#DejaVuSans-32" transform="translate(195.800781 0.015625)"/>
     <use xlink:href="#DejaVuSans-2e" transform="translate(259.423828 0.015625)"/>
     <use xlink:href="#DejaVuSans-33" transform="translate(291.210938 0.015625)"/>
     <use xlink:href="#DejaVuSans-34" transform="translate(354.833984 0.015625)"/>
     <use xlink:href="#DejaVuSans-33" transform="translate(418.457031 0.015625)"/>
     <use xlink:href="#DejaVuSans-b1" transform="translate(482.080078 0.015625)"/>
     <use xlink:href="#DejaVuSans-30" transform="translate(565.869141 0.015625)"/>
     <use xlink:href="#DejaVuSans-2e" transform="translate(629.492188 0.015625)"/>
     <use xlink:href="#DejaVuSans-30" transform="translate(661.279297 0.015625)"/>
     <use xlink:href="#DejaVuSans-31" transform="translate(724.902344 0.015625)"/>
     <use xlink:href="#DejaVuSans-37" transform="translate(788.525391 0.015625)"/>
     <use xlink:href="#DejaVuSans-20" transform="translate(852.148438 0.015625)"/>
     <use xlink:href="#DejaVuSans-6b" transform="translate(883.935547 0.015625)"/>
    </g>
    <!-- $f_{res}$: 6.106787$\pm$1.0e-05 GHz -->
    <g transform="translate(412.824438 96.257475) scale(0.1 -0.1)">
     <defs>
      <path id="DejaVuSans-Oblique-66" d="M 3059 4863 
L 2969 4384 
L 2419 4384 
Q 2106 4384 1964 4261 
Q 1822 4138 1753 3809 
L 1691 3500 
L 2638 3500 
L 2553 3053 
L 1606 3053 
L 1013 0 
L 434 0 
L 1031 3053 
L 481 3053 
L 563 3500 
L 1113 3500 
L 1159 3744 
Q 1278 4363 1576 4613 
Q 1875 4863 2516 4863 
L 3059 4863 
z
" transform="scale(0.015625)"/>
      <path id="DejaVuSans-Oblique-72" d="M 2853 2969 
Q 2766 3016 2653 3041 
Q 2541 3066 2413 3066 
Q 1953 3066 1609 2717 
Q 1266 2369 1153 1784 
L 800 0 
L 225 0 
L 909 3500 
L 1484 3500 
L 1375 2956 
Q 1603 3259 1920 3421 
Q 2238 3584 2597 3584 
Q 2691 3584 2781 3573 
Q 2872 3563 2963 3538 
L 2853 2969 
z
" transform="scale(0.015625)"/>
      <path id="DejaVuSans-Oblique-65" d="M 3078 2063 
Q 3088 2113 3092 2166 
Q 3097 2219 3097 2272 
Q 3097 2653 2873 2875 
Q 2650 3097 2266 3097 
Q 1838 3097 1509 2826 
Q 1181 2556 1013 2059 
L 3078 2063 
z
M 3578 1613 
L 903 1613 
Q 884 1494 878 1425 
Q 872 1356 872 1306 
Q 872 872 1139 634 
Q 1406 397 1894 397 
Q 2269 397 2603 481 
Q 2938 566 3225 728 
L 3116 159 
Q 2806 34 2476 -28 
Q 2147 -91 1806 -91 
Q 1078 -91 686 257 
Q 294 606 294 1247 
Q 294 1794 489 2264 
Q 684 2734 1063 3103 
Q 1306 3334 1642 3459 
Q 1978 3584 2356 3584 
Q 2950 3584 3301 3228 
Q 3653 2872 3653 2272 
Q 3653 2128 3634 1964 
Q 3616 1800 3578 1613 
z
" transform="scale(0.015625)"/>
      <path id="DejaVuSans-Oblique-73" d="M 3200 3397 
L 3091 2853 
Q 2863 2978 2609 3040 
Q 2356 3103 2088 3103 
Q 1634 3103 1373 2948 
Q 1113 2794 1113 2528 
Q 1113 2219 1719 2053 
Q 1766 2041 1788 2034 
L 1972 1978 
Q 2547 1819 2739 1644 
Q 2931 1469 2931 1166 
Q 2931 609 2489 259 
Q 2047 -91 1331 -91 
Q 1053 -91 747 -37 
Q 441 16 72 128 
L 184 722 
Q 500 559 806 475 
Q 1113 391 1394 391 
Q 1816 391 2080 572 
Q 2344 753 2344 1031 
Q 2344 1331 1650 1516 
L 1591 1531 
L 1394 1581 
Q 956 1697 753 1886 
Q 550 2075 550 2369 
Q 550 2928 970 3256 
Q 1391 3584 2113 3584 
Q 2397 3584 2667 3537 
Q 2938 3491 3200 3397 
z
" transform="scale(0.015625)"/>
      <path id="DejaVuSans-38" d="M 2034 2216 
Q 1584 2216 1326 1975 
Q 1069 1734 1069 1313 
Q 1069 891 1326 650 
Q 1584 409 2034 409 
Q 2484 409 2743 651 
Q 3003 894 3003 1313 
Q 3003 1734 2745 1975 
Q 2488 2216 2034 2216 
z
M 1403 2484 
Q 997 2584 770 2862 
Q 544 3141 544 3541 
Q 544 4100 942 4425 
Q 1341 4750 2034 4750 
Q 2731 4750 3128 4425 
Q 3525 4100 3525 3541 
Q 3525 3141 3298 2862 
Q 3072 2584 2669 2484 
Q 3125 2378 3379 2068 
Q 3634 1759 3634 1313 
Q 3634 634 3220 271 
Q 2806 -91 2034 -91 
Q 1263 -91 848 271 
Q 434 634 434 1313 
Q 434 1759 690 2068 
Q 947 2378 1403 2484 
z
M 1172 3481 
Q 1172 3119 1398 2916 
Q 1625 2713 2034 2713 
Q 2441 2713 2670 2916 
Q 2900 3119 2900 3481 
Q 2900 3844 2670 4047 
Q 2441 4250 2034 4250 
Q 1625 4250 1398 4047 
Q 1172 3844 1172 3481 
z
" transform="scale(0.015625)"/>
      <path id="DejaVuSans-47" d="M 3809 666 
L 3809 1919 
L 2778 1919 
L 2778 2438 
L 4434 2438 
L 4434 434 
Q 4069 175 3628 42 
Q 3188 -91 2688 -91 
Q 1594 -91 976 548 
Q 359 1188 359 2328 
Q 359 3472 976 4111 
Q 1594 4750 2688 4750 
Q 3144 4750 3555 4637 
Q 3966 4525 4313 4306 
L 4313 3634 
Q 3963 3931 3569 4081 
Q 3175 4231 2741 4231 
Q 1884 4231 1454 3753 
Q 1025 3275 1025 2328 
Q 1025 1384 1454 906 
Q 1884 428 2741 428 
Q 3075 428 3337 486 
Q 3600 544 3809 666 
z
" transform="scale(0.015625)"/>
      <path id="DejaVuSans-48" d="M 628 4666 
L 1259 4666 
L 1259 2753 
L 3553 2753 
L 3553 4666 
L 4184 4666 
L 4184 0 
L 3553 0 
L 3553 2222 
L 1259 2222 
L 1259 0 
L 628 0 
L 628 4666 
z
" transform="scale(0.015625)"/>
      <path id="DejaVuSans-7a" d="M 353 3500 
L 3084 3500 
L 3084 2975 
L 922 459 
L 3084 459 
L 3084 0 
L 275 0 
L 275 525 
L 2438 3041 
L 353 3041 
L 353 3500 
z
" transform="scale(0.015625)"/>
     </defs>
     <use xlink:href="#DejaVuSans-Oblique-66" transform="translate(0 0.015625)"/>
     <use xlink:href="#DejaVuSans-Oblique-72" transform="translate(35.205078 -16.390625) scale(0.7)"/>
     <use xlink:href="#DejaVuSans-Oblique-65" transform="translate(63.984375 -16.390625) scale(0.7)"/>
     <use xlink:href="#DejaVuSans-Oblique-73" transform="translate(107.050781 -16.390625) scale(0.7)"/>
     <use xlink:href="#DejaVuSans-3a" transform="translate(146.254883 0.015625)"/>
     <use xlink:href="#DejaVuSans-20" transform="translate(179.946289 0.015625)"/>
     <use xlink:href="#DejaVuSans-36" transform="translate(211.733398 0.015625)"/>
     <use xlink:href="#DejaVuSans-2e" transform="translate(275.356445 0.015625)"/>
     <use xlink:href="#DejaVuSans-31" transform="translate(307.143555 0.015625)"/>
     <use xlink:href="#DejaVuSans-30" transform="translate(370.766602 0.015625)"/>
     <use xlink:href="#DejaVuSans-36" transform="translate(434.389648 0.015625)"/>
     <use xlink:href="#DejaVuSans-37" transform="translate(498.012695 0.015625)"/>
     <use xlink:href="#DejaVuSans-38" transform="translate(561.635742 0.015625)"/>
     <use xlink:href="#DejaVuSans-37" transform="translate(625.258789 0.015625)"/>
     <use xlink:href="#DejaVuSans-b1" transform="translate(688.881836 0.015625)"/>
     <use xlink:href="#DejaVuSans-31" transform="translate(772.670898 0.015625)"/>
     <use xlink:href="#DejaVuSans-2e" transform="translate(836.293945 0.015625)"/>
     <use xlink:href="#DejaVuSans-30" transform="translate(868.081055 0.015625)"/>
     <use xlink:href="#DejaVuSans-65" transform="translate(931.704102 0.015625)"/>
     <use xlink:href="#DejaVuSans-2d" transform="translate(993.227539 0.015625)"/>
     <use xlink:href="#DejaVuSans-30" transform="translate(1029.311523 0.015625)"/>
     <use xlink:href="#DejaVuSans-35" transform="translate(1092.93457 0.015625)"/>
     <use xlink:href="#DejaVuSans-20" transform="translate(1156.557617 0.015625)"/>
     <use xlink:href="#DejaVuSans-47" transform="translate(1188.344727 0.015625)"/>
     <use xlink:href="#DejaVuSans-48" transform="translate(1265.834961 0.015625)"/>
     <use xlink:href="#DejaVuSans-7a" transform="translate(1341.030273 0.015625)"/>
    </g>
   </g>
  </g>
  <g id="text_17">
   <!-- S21 resonator spectroscopy -->
   <g transform="translate(126.864063 16.318125) scale(0.12 -0.12)">
    <defs>
     <path id="DejaVuSans-73" d="M 2834 3397 
L 2834 2853 
Q 2591 2978 2328 3040 
Q 2066 3103 1784 3103 
Q 1356 3103 1142 2972 
Q 928 2841 928 2578 
Q 928 2378 1081 2264 
Q 1234 2150 1697 2047 
L 1894 2003 
Q 2506 1872 2764 1633 
Q 3022 1394 3022 966 
Q 3022 478 2636 193 
Q 2250 -91 1575 -91 
Q 1294 -91 989 -36 
Q 684 19 347 128 
L 347 722 
Q 666 556 975 473 
Q 1284 391 1588 391 
Q 1994 391 2212 530 
Q 2431 669 2431 922 
Q 2431 1156 2273 1281 
Q 2116 1406 1581 1522 
L 1381 1569 
Q 847 1681 609 1914 
Q 372 2147 372 2553 
Q 372 3047 722 3315 
Q 1072 3584 1716 3584 
Q 2034 3584 2315 3537 
Q 2597 3491 2834 3397 
z
" transform="scale(0.015625)"/>
     <path id="DejaVuSans-6f" d="M 1959 3097 
Q 1497 3097 1228 2736 
Q 959 2375 959 1747 
Q 959 1119 1226 758 
Q 1494 397 1959 397 
Q 2419 397 2687 759 
Q 2956 1122 2956 1747 
Q 2956 2369 2687 2733 
Q 2419 3097 1959 3097 
z
M 1959 3584 
Q 2709 3584 3137 3096 
Q 3566 2609 3566 1747 
Q 3566 888 3137 398 
Q 2709 -91 1959 -91 
Q 1206 -91 779 398 
Q 353 888 353 1747 
Q 353 2609 779 3096 
Q 1206 3584 1959 3584 
z
" transform="scale(0.015625)"/>
     <path id="DejaVuSans-6e" d="M 3513 2113 
L 3513 0 
L 2938 0 
L 2938 2094 
Q 2938 2591 2744 2837 
Q 2550 3084 2163 3084 
Q 1697 3084 1428 2787 
Q 1159 2491 1159 1978 
L 1159 0 
L 581 0 
L 581 3500 
L 1159 3500 
L 1159 2956 
Q 1366 3272 1645 3428 
Q 1925 3584 2291 3584 
Q 2894 3584 3203 3211 
Q 3513 2838 3513 2113 
z
" transform="scale(0.015625)"/>
     <path id="DejaVuSans-74" d="M 1172 4494 
L 1172 3500 
L 2356 3500 
L 2356 3053 
L 1172 3053 
L 1172 1153 
Q 1172 725 1289 603 
Q 1406 481 1766 481 
L 2356 481 
L 2356 0 
L 1766 0 
Q 1100 0 847 248 
Q 594 497 594 1153 
L 594 3053 
L 172 3053 
L 172 3500 
L 594 3500 
L 594 4494 
L 1172 4494 
z
" transform="scale(0.015625)"/>
     <path id="DejaVuSans-70" d="M 1159 525 
L 1159 -1331 
L 581 -1331 
L 581 3500 
L 1159 3500 
L 1159 2969 
Q 1341 3281 1617 3432 
Q 1894 3584 2278 3584 
Q 2916 3584 3314 3078 
Q 3713 2572 3713 1747 
Q 3713 922 3314 415 
Q 2916 -91 2278 -91 
Q 1894 -91 1617 61 
Q 1341 213 1159 525 
z
M 3116 1747 
Q 3116 2381 2855 2742 
Q 2594 3103 2138 3103 
Q 1681 3103 1420 2742 
Q 1159 2381 1159 1747 
Q 1159 1113 1420 752 
Q 1681 391 2138 391 
Q 2594 391 2855 752 
Q 3116 1113 3116 1747 
z
" transform="scale(0.015625)"/>
     <path id="DejaVuSans-63" d="M 3122 3366 
L 3122 2828 
Q 2878 2963 2633 3030 
Q 2388 3097 2138 3097 
Q 1578 3097 1268 2742 
Q 959 2388 959 1747 
Q 959 1106 1268 751 
Q 1578 397 2138 397 
Q 2388 397 2633 464 
Q 2878 531 3122 666 
L 3122 134 
Q 2881 22 2623 -34 
Q 2366 -91 2075 -91 
Q 1284 -91 818 406 
Q 353 903 353 1747 
Q 353 2603 823 3093 
Q 1294 3584 2113 3584 
Q 2378 3584 2631 3529 
Q 2884 3475 3122 3366 
z
" transform="scale(0.015625)"/>
    </defs>
    <use xlink:href="#DejaVuSans-53"/>
    <use xlink:href="#DejaVuSans-32" x="63.476562"/>
    <use xlink:href="#DejaVuSans-31" x="127.099609"/>
    <use xlink:href="#DejaVuSans-20" x="190.722656"/>
    <use xlink:href="#DejaVuSans-72" x="222.509766"/>
    <use xlink:href="#DejaVuSans-65" x="261.373047"/>
    <use xlink:href="#DejaVuSans-73" x="322.896484"/>
    <use xlink:href="#DejaVuSans-6f" x="374.996094"/>
    <use xlink:href="#DejaVuSans-6e" x="436.177734"/>
    <use xlink:href="#DejaVuSans-61" x="499.556641"/>
    <use xlink:href="#DejaVuSans-74" x="560.835938"/>
    <use xlink:href="#DejaVuSans-6f" x="600.044922"/>
    <use xlink:href="#DejaVuSans-72" x="661.226562"/>
    <use xlink:href="#DejaVuSans-20" x="702.339844"/>
    <use xlink:href="#DejaVuSans-73" x="734.126953"/>
    <use xlink:href="#DejaVuSans-70" x="786.226562"/>
    <use xlink:href="#DejaVuSans-65" x="849.703125"/>
    <use xlink:href="#DejaVuSans-63" x="911.226562"/>
    <use xlink:href="#DejaVuSans-74" x="966.207031"/>
    <use xlink:href="#DejaVuSans-72" x="1005.416016"/>
    <use xlink:href="#DejaVuSans-6f" x="1044.279297"/>
    <use xlink:href="#DejaVuSans-73" x="1105.460938"/>
    <use xlink:href="#DejaVuSans-63" x="1157.560547"/>
    <use xlink:href="#DejaVuSans-6f" x="1212.541016"/>
    <use xlink:href="#DejaVuSans-70" x="1273.722656"/>
    <use xlink:href="#DejaVuSans-79" x="1337.199219"/>
   </g>
   <!-- tuid: 20231227-185123-302-1e1cc3 -->
   <g transform="translate(101.955625 29.7555) scale(0.12 -0.12)">
    <defs>
     <path id="DejaVuSans-69" d="M 603 3500 
L 1178 3500 
L 1178 0 
L 603 0 
L 603 3500 
z
M 603 4863 
L 1178 4863 
L 1178 4134 
L 603 4134 
L 603 4863 
z
" transform="scale(0.015625)"/>
     <path id="DejaVuSans-64" d="M 2906 2969 
L 2906 4863 
L 3481 4863 
L 3481 0 
L 2906 0 
L 2906 525 
Q 2725 213 2448 61 
Q 2172 -91 1784 -91 
Q 1150 -91 751 415 
Q 353 922 353 1747 
Q 353 2572 751 3078 
Q 1150 3584 1784 3584 
Q 2172 3584 2448 3432 
Q 2725 3281 2906 2969 
z
M 947 1747 
Q 947 1113 1208 752 
Q 1469 391 1925 391 
Q 2381 391 2643 752 
Q 2906 1113 2906 1747 
Q 2906 2381 2643 2742 
Q 2381 3103 1925 3103 
Q 1469 3103 1208 2742 
Q 947 2381 947 1747 
z
" transform="scale(0.015625)"/>
    </defs>
    <use xlink:href="#DejaVuSans-74"/>
    <use xlink:href="#DejaVuSans-75" x="39.208984"/>
    <use xlink:href="#DejaVuSans-69" x="102.587891"/>
    <use xlink:href="#DejaVuSans-64" x="130.371094"/>
    <use xlink:href="#DejaVuSans-3a" x="193.847656"/>
    <use xlink:href="#DejaVuSans-20" x="227.539062"/>
    <use xlink:href="#DejaVuSans-32" x="259.326172"/>
    <use xlink:href="#DejaVuSans-30" x="322.949219"/>
    <use xlink:href="#DejaVuSans-32" x="386.572266"/>
    <use xlink:href="#DejaVuSans-33" x="450.195312"/>
    <use xlink:href="#DejaVuSans-31" x="513.818359"/>
    <use xlink:href="#DejaVuSans-32" x="577.441406"/>
    <use xlink:href="#DejaVuSans-32" x="641.064453"/>
    <use xlink:href="#DejaVuSans-37" x="704.6875"/>
    <use xlink:href="#DejaVuSans-2d" x="768.310547"/>
    <use xlink:href="#DejaVuSans-31" x="804.394531"/>
    <use xlink:href="#DejaVuSans-38" x="868.017578"/>
    <use xlink:href="#DejaVuSans-35" x="931.640625"/>
    <use xlink:href="#DejaVuSans-31" x="995.263672"/>
    <use xlink:href="#DejaVuSans-32" x="1058.886719"/>
    <use xlink:href="#DejaVuSans-33" x="1122.509766"/>
    <use xlink:href="#DejaVuSans-2d" x="1186.132812"/>
    <use xlink:href="#DejaVuSans-33" x="1222.216797"/>
    <use xlink:href="#DejaVuSans-30" x="1285.839844"/>
    <use xlink:href="#DejaVuSans-32" x="1349.462891"/>
    <use xlink:href="#DejaVuSans-2d" x="1413.085938"/>
    <use xlink:href="#DejaVuSans-31" x="1449.169922"/>
    <use xlink:href="#DejaVuSans-65" x="1512.792969"/>
    <use xlink:href="#DejaVuSans-31" x="1574.316406"/>
    <use xlink:href="#DejaVuSans-63" x="1637.939453"/>
    <use xlink:href="#DejaVuSans-63" x="1692.919922"/>
    <use xlink:href="#DejaVuSans-33" x="1747.900391"/>
   </g>
  </g>
 </g>
 <defs>
  <clipPath id="pe309df9df3">
   <rect x="37.848438" y="41.76" width="357.12" height="266.112"/>
  </clipPath>
 </defs>
</svg>
