<?xml version="1.0" encoding="utf-8" standalone="no"?>
<!DOCTYPE svg PUBLIC "-//W3C//DTD SVG 1.1//EN"
  "http://www.w3.org/Graphics/SVG/1.1/DTD/svg11.dtd">
<svg xmlns:xlink="http://www.w3.org/1999/xlink" width="555.516625pt" height="345.42825pt" viewBox="0 0 555.516625 345.42825" xmlns="http://www.w3.org/2000/svg" version="1.1">
 <metadata>
  <rdf:RDF xmlns:dc="http://purl.org/dc/elements/1.1/" xmlns:cc="http://creativecommons.org/ns#" xmlns:rdf="http://www.w3.org/1999/02/22-rdf-syntax-ns#">
   <cc:Work>
    <dc:type rdf:resource="http://purl.org/dc/dcmitype/StillImage"/>
    <dc:date>2023-12-27T13:18:31.234567</dc:date>
    <dc:format>image/svg+xml</dc:format>
    <dc:creator>
     <cc:Agent>
      <dc:title>Matplotlib v3.8.2, https://matplotlib.org/</dc:title>
     </cc:Agent>
    </dc:creator>
   </cc:Work>
  </rdf:RDF>
 </metadata>
 <defs>
  <style type="text/css">*{stroke-linejoin: round; stroke-linecap: butt}</style>
 </defs>
 <g id="figure_1">
  <g id="patch_1">
   <path d="M 0 345.42825 
L 555.516625 345.42825 
L 555.516625 -0 
L 0 -0 
L 0 345.42825 
z
" style="fill: none; opacity: 0"/>
  </g>
  <g id="axes_1">
   <g id="patch_2">
    <path d="M 34.240625 307.872 
L 391.360625 307.872 
L 391.360625 41.76 
L 34.240625 41.76 
z
" style="fill: #ffffff"/>
   </g>
   <g id="matplotlib.axis_1">
    <g id="xtick_1">
     <g id="line2d_1">
      <defs>
       <path id="m7f088fdbb3" d="M 0 0 
L 0 3.5 
" style="stroke: #000000; stroke-width: 0.8"/>
      </defs>
      <g>
       <use xlink:href="#m7f088fdbb3" x="84.852784" y="307.872" style="stroke: #000000; stroke-width: 0.8"/>
      </g>
     </g>
     <g id="text_1">
      <!-- -10 -->
      <g transform="translate(76.686378 322.470438) scale(0.1 -0.1)">
       <defs>
        <path id="DejaVuSans-2d" d="M 313 2009 
L 1997 2009 
L 1997 1497 
L 313 1497 
L 313 2009 
z
" transform="scale(0.015625)"/>
        <path id="DejaVuSans-31" d="M 794 531 
L 1825 531 
L 1825 4091 
L 703 3866 
L 703 4441 
L 1819 4666 
L 2450 4666 
L 2450 531 
L 3481 531 
L 3481 0 
L 794 0 
L 794 531 
z
" transform="scale(0.015625)"/>
        <path id="DejaVuSans-30" d="M 2034 4250 
Q 1547 4250 1301 3770 
Q 1056 3291 1056 2328 
Q 1056 1369 1301 889 
Q 1547 409 2034 409 
Q 2525 409 2770 889 
Q 3016 1369 3016 2328 
Q 3016 3291 2770 3770 
Q 2525 4250 2034 4250 
z
M 2034 4750 
Q 2819 4750 3233 4129 
Q 3647 3509 3647 2328 
Q 3647 1150 3233 529 
Q 2819 -91 2034 -91 
Q 1250 -91 836 529 
Q 422 1150 422 2328 
Q 422 3509 836 4129 
Q 1250 4750 2034 4750 
z
" transform="scale(0.015625)"/>
       </defs>
       <use xlink:href="#DejaVuSans-2d"/>
       <use xlink:href="#DejaVuSans-31" x="36.083984"/>
       <use xlink:href="#DejaVuSans-30" x="99.707031"/>
      </g>
     </g>
    </g>
    <g id="xtick_2">
     <g id="line2d_2">
      <g>
       <use xlink:href="#m7f088fdbb3" x="143.150576" y="307.872" style="stroke: #000000; stroke-width: 0.8"/>
      </g>
     </g>
     <g id="text_2">
      <!-- -8 -->
      <g transform="translate(138.16542 322.470438) scale(0.1 -0.1)">
       <defs>
        <path id="DejaVuSans-38" d="M 2034 2216 
Q 1584 2216 1326 1975 
Q 1069 1734 1069 1313 
Q 1069 891 1326 650 
Q 1584 409 2034 409 
Q 2484 409 2743 651 
Q 3003 894 3003 1313 
Q 3003 1734 2745 1975 
Q 2488 2216 2034 2216 
z
M 1403 2484 
Q 997 2584 770 2862 
Q 544 3141 544 3541 
Q 544 4100 942 4425 
Q 1341 4750 2034 4750 
Q 2731 4750 3128 4425 
Q 3525 4100 3525 3541 
Q 3525 3141 3298 2862 
Q 3072 2584 2669 2484 
Q 3125 2378 3379 2068 
Q 3634 1759 3634 1313 
Q 3634 634 3220 271 
Q 2806 -91 2034 -91 
Q 1263 -91 848 271 
Q 434 634 434 1313 
Q 434 1759 690 2068 
Q 947 2378 1403 2484 
z
M 1172 3481 
Q 1172 3119 1398 2916 
Q 1625 2713 2034 2713 
Q 2441 2713 2670 2916 
Q 2900 3119 2900 3481 
Q 2900 3844 2670 4047 
Q 2441 4250 2034 4250 
Q 1625 4250 1398 4047 
Q 1172 3844 1172 3481 
z
" transform="scale(0.015625)"/>
       </defs>
       <use xlink:href="#DejaVuSans-2d"/>
       <use xlink:href="#DejaVuSans-38" x="36.083984"/>
      </g>
     </g>
    </g>
    <g id="xtick_3">
     <g id="line2d_3">
      <g>
       <use xlink:href="#m7f088fdbb3" x="201.448368" y="307.872" style="stroke: #000000; stroke-width: 0.8"/>
      </g>
     </g>
     <g id="text_3">
      <!-- -6 -->
      <g transform="translate(196.463211 322.470438) scale(0.1 -0.1)">
       <defs>
        <path id="DejaVuSans-36" d="M 2113 2584 
Q 1688 2584 1439 2293 
Q 1191 2003 1191 1497 
Q 1191 994 1439 701 
Q 1688 409 2113 409 
Q 2538 409 2786 701 
Q 3034 994 3034 1497 
Q 3034 2003 2786 2293 
Q 2538 2584 2113 2584 
z
M 3366 4563 
L 3366 3988 
Q 3128 4100 2886 4159 
Q 2644 4219 2406 4219 
Q 1781 4219 1451 3797 
Q 1122 3375 1075 2522 
Q 1259 2794 1537 2939 
Q 1816 3084 2150 3084 
Q 2853 3084 3261 2657 
Q 3669 2231 3669 1497 
Q 3669 778 3244 343 
Q 2819 -91 2113 -91 
Q 1303 -91 875 529 
Q 447 1150 447 2328 
Q 447 3434 972 4092 
Q 1497 4750 2381 4750 
Q 2619 4750 2861 4703 
Q 3103 4656 3366 4563 
z
" transform="scale(0.015625)"/>
       </defs>
       <use xlink:href="#DejaVuSans-2d"/>
       <use xlink:href="#DejaVuSans-36" x="36.083984"/>
      </g>
     </g>
    </g>
    <g id="xtick_4">
     <g id="line2d_4">
      <g>
       <use xlink:href="#m7f088fdbb3" x="259.746159" y="307.872" style="stroke: #000000; stroke-width: 0.8"/>
      </g>
     </g>
     <g id="text_4">
      <!-- -4 -->
      <g transform="translate(254.761003 322.470438) scale(0.1 -0.1)">
       <defs>
        <path id="DejaVuSans-34" d="M 2419 4116 
L 825 1625 
L 2419 1625 
L 2419 4116 
z
M 2253 4666 
L 3047 4666 
L 3047 1625 
L 3713 1625 
L 3713 1100 
L 3047 1100 
L 3047 0 
L 2419 0 
L 2419 1100 
L 313 1100 
L 313 1709 
L 2253 4666 
z
" transform="scale(0.015625)"/>
       </defs>
       <use xlink:href="#DejaVuSans-2d"/>
       <use xlink:href="#DejaVuSans-34" x="36.083984"/>
      </g>
     </g>
    </g>
    <g id="xtick_5">
     <g id="line2d_5">
      <g>
       <use xlink:href="#m7f088fdbb3" x="318.043951" y="307.872" style="stroke: #000000; stroke-width: 0.8"/>
      </g>
     </g>
     <g id="text_5">
      <!-- -2 -->
      <g transform="translate(313.058795 322.470438) scale(0.1 -0.1)">
       <defs>
        <path id="DejaVuSans-32" d="M 1228 531 
L 3431 531 
L 3431 0 
L 469 0 
L 469 531 
Q 828 903 1448 1529 
Q 2069 2156 2228 2338 
Q 2531 2678 2651 2914 
Q 2772 3150 2772 3378 
Q 2772 3750 2511 3984 
Q 2250 4219 1831 4219 
Q 1534 4219 1204 4116 
Q 875 4013 500 3803 
L 500 4441 
Q 881 4594 1212 4672 
Q 1544 4750 1819 4750 
Q 2544 4750 2975 4387 
Q 3406 4025 3406 3419 
Q 3406 3131 3298 2873 
Q 3191 2616 2906 2266 
Q 2828 2175 2409 1742 
Q 1991 1309 1228 531 
z
" transform="scale(0.015625)"/>
       </defs>
       <use xlink:href="#DejaVuSans-2d"/>
       <use xlink:href="#DejaVuSans-32" x="36.083984"/>
      </g>
     </g>
    </g>
    <g id="xtick_6">
     <g id="line2d_6">
      <g>
       <use xlink:href="#m7f088fdbb3" x="376.341743" y="307.872" style="stroke: #000000; stroke-width: 0.8"/>
      </g>
     </g>
     <g id="text_6">
      <!-- 0 -->
      <g transform="translate(373.160493 322.470438) scale(0.1 -0.1)">
       <use xlink:href="#DejaVuSans-30"/>
      </g>
     </g>
    </g>
    <g id="text_7">
     <!-- Re$(S_{21})$ [mV] -->
     <g transform="translate(180.800625 336.148562) scale(0.1 -0.1)">
      <defs>
       <path id="DejaVuSans-52" d="M 2841 2188 
Q 3044 2119 3236 1894 
Q 3428 1669 3622 1275 
L 4263 0 
L 3584 0 
L 2988 1197 
Q 2756 1666 2539 1819 
Q 2322 1972 1947 1972 
L 1259 1972 
L 1259 0 
L 628 0 
L 628 4666 
L 2053 4666 
Q 2853 4666 3247 4331 
Q 3641 3997 3641 3322 
Q 3641 2881 3436 2590 
Q 3231 2300 2841 2188 
z
M 1259 4147 
L 1259 2491 
L 2053 2491 
Q 2509 2491 2742 2702 
Q 2975 2913 2975 3322 
Q 2975 3731 2742 3939 
Q 2509 4147 2053 4147 
L 1259 4147 
z
" transform="scale(0.015625)"/>
       <path id="DejaVuSans-65" d="M 3597 1894 
L 3597 1613 
L 953 1613 
Q 991 1019 1311 708 
Q 1631 397 2203 397 
Q 2534 397 2845 478 
Q 3156 559 3463 722 
L 3463 178 
Q 3153 47 2828 -22 
Q 2503 -91 2169 -91 
Q 1331 -91 842 396 
Q 353 884 353 1716 
Q 353 2575 817 3079 
Q 1281 3584 2069 3584 
Q 2775 3584 3186 3129 
Q 3597 2675 3597 1894 
z
M 3022 2063 
Q 3016 2534 2758 2815 
Q 2500 3097 2075 3097 
Q 1594 3097 1305 2825 
Q 1016 2553 972 2059 
L 3022 2063 
z
" transform="scale(0.015625)"/>
       <path id="DejaVuSans-28" d="M 1984 4856 
Q 1566 4138 1362 3434 
Q 1159 2731 1159 2009 
Q 1159 1288 1364 580 
Q 1569 -128 1984 -844 
L 1484 -844 
Q 1016 -109 783 600 
Q 550 1309 550 2009 
Q 550 2706 781 3412 
Q 1013 4119 1484 4856 
L 1984 4856 
z
" transform="scale(0.015625)"/>
       <path id="DejaVuSans-Oblique-53" d="M 3859 4513 
L 3738 3897 
Q 3422 4066 3111 4152 
Q 2800 4238 2509 4238 
Q 1944 4238 1609 3991 
Q 1275 3744 1275 3334 
Q 1275 3109 1398 2989 
Q 1522 2869 2034 2731 
L 2413 2638 
Q 3053 2472 3303 2217 
Q 3553 1963 3553 1503 
Q 3553 797 2998 353 
Q 2444 -91 1538 -91 
Q 1166 -91 791 -17 
Q 416 56 38 206 
L 166 856 
Q 513 641 861 531 
Q 1209 422 1556 422 
Q 2147 422 2503 684 
Q 2859 947 2859 1369 
Q 2859 1650 2717 1795 
Q 2575 1941 2106 2059 
L 1728 2156 
Q 1081 2325 845 2545 
Q 609 2766 609 3163 
Q 609 3859 1145 4304 
Q 1681 4750 2541 4750 
Q 2875 4750 3203 4690 
Q 3531 4631 3859 4513 
z
" transform="scale(0.015625)"/>
       <path id="DejaVuSans-29" d="M 513 4856 
L 1013 4856 
Q 1481 4119 1714 3412 
Q 1947 2706 1947 2009 
Q 1947 1309 1714 600 
Q 1481 -109 1013 -844 
L 513 -844 
Q 928 -128 1133 580 
Q 1338 1288 1338 2009 
Q 1338 2731 1133 3434 
Q 928 4138 513 4856 
z
" transform="scale(0.015625)"/>
       <path id="DejaVuSans-20" transform="scale(0.015625)"/>
       <path id="DejaVuSans-5b" d="M 550 4863 
L 1875 4863 
L 1875 4416 
L 1125 4416 
L 1125 -397 
L 1875 -397 
L 1875 -844 
L 550 -844 
L 550 4863 
z
" transform="scale(0.015625)"/>
       <path id="DejaVuSans-6d" d="M 3328 2828 
Q 3544 3216 3844 3400 
Q 4144 3584 4550 3584 
Q 5097 3584 5394 3201 
Q 5691 2819 5691 2113 
L 5691 0 
L 5113 0 
L 5113 2094 
Q 5113 2597 4934 2840 
Q 4756 3084 4391 3084 
Q 3944 3084 3684 2787 
Q 3425 2491 3425 1978 
L 3425 0 
L 2847 0 
L 2847 2094 
Q 2847 2600 2669 2842 
Q 2491 3084 2119 3084 
Q 1678 3084 1418 2786 
Q 1159 2488 1159 1978 
L 1159 0 
L 581 0 
L 581 3500 
L 1159 3500 
L 1159 2956 
Q 1356 3278 1631 3431 
Q 1906 3584 2284 3584 
Q 2666 3584 2933 3390 
Q 3200 3197 3328 2828 
z
" transform="scale(0.015625)"/>
       <path id="DejaVuSans-56" d="M 1831 0 
L 50 4666 
L 709 4666 
L 2188 738 
L 3669 4666 
L 4325 4666 
L 2547 0 
L 1831 0 
z
" transform="scale(0.015625)"/>
       <path id="DejaVuSans-5d" d="M 1947 4863 
L 1947 -844 
L 622 -844 
L 622 -397 
L 1369 -397 
L 1369 4416 
L 622 4416 
L 622 4863 
L 1947 4863 
z
" transform="scale(0.015625)"/>
      </defs>
      <use xlink:href="#DejaVuSans-52" transform="translate(0 0.015625)"/>
      <use xlink:href="#DejaVuSans-65" transform="translate(69.482422 0.015625)"/>
      <use xlink:href="#DejaVuSans-28" transform="translate(131.005859 0.015625)"/>
      <use xlink:href="#DejaVuSans-Oblique-53" transform="translate(170.019531 0.015625)"/>
      <use xlink:href="#DejaVuSans-32" transform="translate(233.496094 -16.390625) scale(0.7)"/>
      <use xlink:href="#DejaVuSans-31" transform="translate(278.032227 -16.390625) scale(0.7)"/>
      <use xlink:href="#DejaVuSans-29" transform="translate(325.302734 0.015625)"/>
      <use xlink:href="#DejaVuSans-20" transform="translate(364.316406 0.015625)"/>
      <use xlink:href="#DejaVuSans-5b" transform="translate(396.103516 0.015625)"/>
      <use xlink:href="#DejaVuSans-6d" transform="translate(435.117188 0.015625)"/>
      <use xlink:href="#DejaVuSans-56" transform="translate(532.529297 0.015625)"/>
      <use xlink:href="#DejaVuSans-5d" transform="translate(600.9375 0.015625)"/>
     </g>
    </g>
   </g>
   <g id="matplotlib.axis_2">
    <g id="ytick_1">
     <g id="line2d_7">
      <defs>
       <path id="mdb1da0b6b3" d="M 0 0 
L -3.5 0 
" style="stroke: #000000; stroke-width: 0.8"/>
      </defs>
      <g>
       <use xlink:href="#mdb1da0b6b3" x="34.240625" y="273.802329" style="stroke: #000000; stroke-width: 0.8"/>
      </g>
     </g>
     <g id="text_8">
      <!-- 0 -->
      <g transform="translate(20.878125 277.601548) scale(0.1 -0.1)">
       <use xlink:href="#DejaVuSans-30"/>
      </g>
     </g>
    </g>
    <g id="ytick_2">
     <g id="line2d_8">
      <g>
       <use xlink:href="#mdb1da0b6b3" x="34.240625" y="224.637656" style="stroke: #000000; stroke-width: 0.8"/>
      </g>
     </g>
     <g id="text_9">
      <!-- 2 -->
      <g transform="translate(20.878125 228.436875) scale(0.1 -0.1)">
       <use xlink:href="#DejaVuSans-32"/>
      </g>
     </g>
    </g>
    <g id="ytick_3">
     <g id="line2d_9">
      <g>
       <use xlink:href="#mdb1da0b6b3" x="34.240625" y="175.472983" style="stroke: #000000; stroke-width: 0.8"/>
      </g>
     </g>
     <g id="text_10">
      <!-- 4 -->
      <g transform="translate(20.878125 179.272202) scale(0.1 -0.1)">
       <use xlink:href="#DejaVuSans-34"/>
      </g>
     </g>
    </g>
    <g id="ytick_4">
     <g id="line2d_10">
      <g>
       <use xlink:href="#mdb1da0b6b3" x="34.240625" y="126.30831" style="stroke: #000000; stroke-width: 0.8"/>
      </g>
     </g>
     <g id="text_11">
      <!-- 6 -->
      <g transform="translate(20.878125 130.107529) scale(0.1 -0.1)">
       <use xlink:href="#DejaVuSans-36"/>
      </g>
     </g>
    </g>
    <g id="ytick_5">
     <g id="line2d_11">
      <g>
       <use xlink:href="#mdb1da0b6b3" x="34.240625" y="77.143637" style="stroke: #000000; stroke-width: 0.8"/>
      </g>
     </g>
     <g id="text_12">
      <!-- 8 -->
      <g transform="translate(20.878125 80.942856) scale(0.1 -0.1)">
       <use xlink:href="#DejaVuSans-38"/>
      </g>
     </g>
    </g>
    <g id="text_13">
     <!-- Im$(S_{21})$ [mV] -->
     <g transform="translate(14.798438 206.466) rotate(-90) scale(0.1 -0.1)">
      <defs>
       <path id="DejaVuSans-49" d="M 628 4666 
L 1259 4666 
L 1259 0 
L 628 0 
L 628 4666 
z
" transform="scale(0.015625)"/>
      </defs>
      <use xlink:href="#DejaVuSans-49" transform="translate(0 0.015625)"/>
      <use xlink:href="#DejaVuSans-6d" transform="translate(25.867188 0.015625)"/>
      <use xlink:href="#DejaVuSans-28" transform="translate(123.279297 0.015625)"/>
      <use xlink:href="#DejaVuSans-Oblique-53" transform="translate(162.292969 0.015625)"/>
      <use xlink:href="#DejaVuSans-32" transform="translate(225.769531 -16.390625) scale(0.7)"/>
      <use xlink:href="#DejaVuSans-31" transform="translate(270.305664 -16.390625) scale(0.7)"/>
      <use xlink:href="#DejaVuSans-29" transform="translate(317.576172 0.015625)"/>
      <use xlink:href="#DejaVuSans-20" transform="translate(356.589844 0.015625)"/>
      <use xlink:href="#DejaVuSans-5b" transform="translate(388.376953 0.015625)"/>
      <use xlink:href="#DejaVuSans-6d" transform="translate(427.390625 0.015625)"/>
      <use xlink:href="#DejaVuSans-56" transform="translate(524.802734 0.015625)"/>
      <use xlink:href="#DejaVuSans-5d" transform="translate(593.210938 0.015625)"/>
     </g>
    </g>
   </g>
   <g id="line2d_12">
    <path d="M 51.551148 278.600441 
L 51.57083 277.637483 
L 53.327738 276.763204 
L 58.548338 270.28608 
L 57.006895 269.868835 
L 51.815977 266.966697 
L 54.095359 264.926455 
L 55.004144 263.089271 
L 57.301184 262.037073 
L 50.473352 261.985808 
L 58.039186 259.548764 
L 53.243819 254.412159 
L 56.312277 256.143717 
L 54.959842 254.588477 
L 57.186063 251.014585 
L 54.375061 247.155012 
L 55.990425 248.688636 
L 55.970363 246.77593 
L 58.0127 246.94184 
L 54.125611 245.297573 
L 54.094347 243.990092 
L 58.997177 241.495297 
L 57.432032 241.430876 
L 58.508562 237.616164 
L 55.406245 236.2255 
L 54.669129 234.992046 
L 55.677656 228.743065 
L 55.007182 229.686889 
L 61.873746 233.874626 
L 59.839446 228.161004 
L 60.214238 230.240716 
L 62.216261 221.111986 
L 64.170691 223.522024 
L 65.643689 222.363133 
L 58.111619 217.139877 
L 62.4528 217.822332 
L 60.563715 216.368448 
L 62.106931 212.700966 
L 61.307571 211.291034 
L 65.153744 211.311849 
L 65.66527 208.952223 
L 59.036827 205.937174 
L 65.944181 201.652378 
L 66.36128 201.057641 
L 63.901495 201.172099 
L 65.89355 198.355785 
L 67.008338 194.669436 
L 67.129344 196.335265 
L 67.354587 192.304925 
L 65.576857 188.202051 
L 64.725031 188.527894 
L 70.269919 190.541396 
L 66.962612 188.425445 
L 70.872232 188.024933 
L 73.817816 182.647188 
L 70.200967 184.114042 
L 70.143691 178.911735 
L 74.903491 178.796342 
L 75.549535 174.500791 
L 78.645207 173.262988 
L 78.641188 171.228404 
L 77.314544 168.015287 
L 85.124638 162.731773 
L 85.050116 162.661987 
L 80.474169 165.421192 
L 87.203872 157.197218 
L 84.381984 157.6645 
L 84.008174 157.160844 
L 89.2851 153.682543 
L 92.362387 152.002863 
L 87.192069 151.52504 
L 93.884654 147.823159 
L 92.606742 147.732664 
L 94.527693 148.789479 
L 94.091954 139.793516 
L 101.09655 141.608923 
L 105.319129 137.105404 
L 102.141815 132.255867 
L 104.92149 135.252369 
L 103.361344 134.486517 
L 108.791459 129.352875 
L 110.026779 126.413028 
L 111.330481 123.662603 
L 111.957349 122.724864 
L 120.854099 118.211978 
L 117.99503 121.318322 
L 122.523069 120.01559 
L 131.783345 111.905807 
L 123.310815 114.917947 
L 127.04057 111.430599 
L 133.161443 109.661947 
L 138.487006 102.894045 
L 141.599544 100.015124 
L 147.777091 98.97192 
L 152.809124 97.519289 
L 147.33629 98.156992 
L 155.725944 94.428584 
L 162.764937 87.107016 
L 168.629524 95.800727 
L 169.838674 84.470596 
L 172.47978 83.673735 
L 178.605146 87.035443 
L 184.334012 83.863557 
L 192.057022 80.292146 
L 195.703553 76.683988 
L 202.536859 73.808243 
L 208.710514 72.84838 
L 213.725902 74.77008 
L 222.899158 68.996734 
L 233.816727 69.624002 
L 236.775665 68.064999 
L 251.687976 74.302238 
L 254.699 76.668003 
L 266.142208 76.84352 
L 272.537846 75.03852 
L 279.969098 81.108195 
L 289.339021 81.565602 
L 300.921463 89.243863 
L 307.602213 91.661373 
L 312.014308 94.133244 
L 324.94738 105.725064 
L 345.247467 106.62795 
L 351.370207 116.66485 
L 356.138772 128.237456 
L 354.715708 139.396953 
L 362.540422 148.954349 
L 368.008225 163.873825 
L 367.731941 172.783457 
L 369.376892 189.253582 
L 366.379 204.912436 
L 366.011613 209.178898 
L 353.083572 220.766529 
L 350.814253 229.930884 
L 338.188064 241.651921 
L 341.319019 248.381447 
L 325.572287 261.16597 
L 312.96711 265.211708 
L 295.864494 270.120756 
L 288.0363 272.871528 
L 278.116182 275.644076 
L 260.717346 279.007732 
L 260.893382 279.482753 
L 249.028707 280.73454 
L 238.600006 276.106074 
L 217.197252 275.175513 
L 213.50971 273.325493 
L 202.699667 269.338386 
L 195.312622 267.049799 
L 187.536609 265.781626 
L 184.679596 260.831801 
L 180.250097 253.51034 
L 168.589463 253.149003 
L 162.648676 245.961002 
L 160.775508 244.537994 
L 161.351872 227.510626 
L 160.635705 229.938303 
L 153.770343 222.330175 
L 146.318175 216.592162 
L 147.408755 213.18885 
L 143.94905 207.967702 
L 145.431794 207.120456 
L 139.905513 196.098048 
L 138.43916 187.90954 
L 135.904379 188.000221 
L 147.289298 185.657353 
L 144.066892 186.645797 
L 145.650517 178.942184 
L 144.136319 165.400937 
L 147.386667 165.225873 
L 146.820302 161.076751 
L 141.079158 156.896593 
L 146.196504 149.134777 
L 152.434965 145.077831 
L 142.358083 137.740891 
L 156.873831 146.653273 
L 146.394437 142.971513 
L 158.008554 140.082905 
L 159.431112 123.156519 
L 165.552807 125.427867 
L 166.068257 122.757475 
L 167.680994 115.934279 
L 169.080452 115.429796 
L 172.902892 105.856228 
L 170.230965 102.201395 
L 182.327243 107.360177 
L 178.671408 105.086854 
L 190.121356 103.198859 
L 188.274896 81.430675 
L 201.019939 92.246396 
L 199.555232 84.356004 
L 197.198891 77.55341 
L 208.47293 75.703843 
L 208.969235 73.356626 
L 209.807802 70.325805 
L 227.469346 69.120773 
L 235.137454 70.566945 
L 242.314636 62.616615 
L 223.864775 53.856 
L 223.864775 53.856 
" clip-path="url(#p7e5bd027c3)" style="fill: none; stroke: #1f77b4; stroke-width: 1.5; stroke-linecap: square"/>
    <defs>
     <path id="m8980f6d10f" d="M 0 1.5 
C 0.397805 1.5 0.77937 1.341951 1.06066 1.06066 
C 1.341951 0.77937 1.5 0.397805 1.5 0 
C 1.5 -0.397805 1.341951 -0.77937 1.06066 -1.06066 
C 0.77937 -1.341951 0.397805 -1.5 0 -1.5 
C -0.397805 -1.5 -0.77937 -1.341951 -1.06066 -1.06066 
C -1.341951 -0.77937 -1.5 -0.397805 -1.5 0 
C -1.5 0.397805 -1.341951 0.77937 -1.06066 1.06066 
C -0.77937 1.341951 -0.397805 1.5 0 1.5 
z
" style="stroke: #1f77b4"/>
    </defs>
    <g clip-path="url(#p7e5bd027c3)">
     <use xlink:href="#m8980f6d10f" x="51.551148" y="278.600441" style="fill: #1f77b4; stroke: #1f77b4"/>
     <use xlink:href="#m8980f6d10f" x="51.57083" y="277.637483" style="fill: #1f77b4; stroke: #1f77b4"/>
     <use xlink:href="#m8980f6d10f" x="53.327738" y="276.763204" style="fill: #1f77b4; stroke: #1f77b4"/>
     <use xlink:href="#m8980f6d10f" x="58.548338" y="270.28608" style="fill: #1f77b4; stroke: #1f77b4"/>
     <use xlink:href="#m8980f6d10f" x="57.006895" y="269.868835" style="fill: #1f77b4; stroke: #1f77b4"/>
     <use xlink:href="#m8980f6d10f" x="55.055154" y="268.808818" style="fill: #1f77b4; stroke: #1f77b4"/>
     <use xlink:href="#m8980f6d10f" x="51.815977" y="266.966697" style="fill: #1f77b4; stroke: #1f77b4"/>
     <use xlink:href="#m8980f6d10f" x="54.095359" y="264.926455" style="fill: #1f77b4; stroke: #1f77b4"/>
     <use xlink:href="#m8980f6d10f" x="55.004144" y="263.089271" style="fill: #1f77b4; stroke: #1f77b4"/>
     <use xlink:href="#m8980f6d10f" x="57.301184" y="262.037073" style="fill: #1f77b4; stroke: #1f77b4"/>
     <use xlink:href="#m8980f6d10f" x="52.574927" y="261.951836" style="fill: #1f77b4; stroke: #1f77b4"/>
     <use xlink:href="#m8980f6d10f" x="50.473352" y="261.985808" style="fill: #1f77b4; stroke: #1f77b4"/>
     <use xlink:href="#m8980f6d10f" x="58.039186" y="259.548764" style="fill: #1f77b4; stroke: #1f77b4"/>
     <use xlink:href="#m8980f6d10f" x="53.243819" y="254.412159" style="fill: #1f77b4; stroke: #1f77b4"/>
     <use xlink:href="#m8980f6d10f" x="56.312277" y="256.143717" style="fill: #1f77b4; stroke: #1f77b4"/>
     <use xlink:href="#m8980f6d10f" x="54.959842" y="254.588477" style="fill: #1f77b4; stroke: #1f77b4"/>
     <use xlink:href="#m8980f6d10f" x="57.186063" y="251.014585" style="fill: #1f77b4; stroke: #1f77b4"/>
     <use xlink:href="#m8980f6d10f" x="54.375061" y="247.155012" style="fill: #1f77b4; stroke: #1f77b4"/>
     <use xlink:href="#m8980f6d10f" x="55.990425" y="248.688636" style="fill: #1f77b4; stroke: #1f77b4"/>
     <use xlink:href="#m8980f6d10f" x="55.970363" y="246.77593" style="fill: #1f77b4; stroke: #1f77b4"/>
     <use xlink:href="#m8980f6d10f" x="58.0127" y="246.94184" style="fill: #1f77b4; stroke: #1f77b4"/>
     <use xlink:href="#m8980f6d10f" x="54.125611" y="245.297573" style="fill: #1f77b4; stroke: #1f77b4"/>
     <use xlink:href="#m8980f6d10f" x="54.094347" y="243.990092" style="fill: #1f77b4; stroke: #1f77b4"/>
     <use xlink:href="#m8980f6d10f" x="58.997177" y="241.495297" style="fill: #1f77b4; stroke: #1f77b4"/>
     <use xlink:href="#m8980f6d10f" x="57.432032" y="241.430876" style="fill: #1f77b4; stroke: #1f77b4"/>
     <use xlink:href="#m8980f6d10f" x="58.508562" y="237.616164" style="fill: #1f77b4; stroke: #1f77b4"/>
     <use xlink:href="#m8980f6d10f" x="55.406245" y="236.2255" style="fill: #1f77b4; stroke: #1f77b4"/>
     <use xlink:href="#m8980f6d10f" x="54.669129" y="234.992046" style="fill: #1f77b4; stroke: #1f77b4"/>
     <use xlink:href="#m8980f6d10f" x="55.677656" y="228.743065" style="fill: #1f77b4; stroke: #1f77b4"/>
     <use xlink:href="#m8980f6d10f" x="55.007182" y="229.686889" style="fill: #1f77b4; stroke: #1f77b4"/>
     <use xlink:href="#m8980f6d10f" x="61.873746" y="233.874626" style="fill: #1f77b4; stroke: #1f77b4"/>
     <use xlink:href="#m8980f6d10f" x="59.839446" y="228.161004" style="fill: #1f77b4; stroke: #1f77b4"/>
     <use xlink:href="#m8980f6d10f" x="60.214238" y="230.240716" style="fill: #1f77b4; stroke: #1f77b4"/>
     <use xlink:href="#m8980f6d10f" x="62.216261" y="221.111986" style="fill: #1f77b4; stroke: #1f77b4"/>
     <use xlink:href="#m8980f6d10f" x="64.170691" y="223.522024" style="fill: #1f77b4; stroke: #1f77b4"/>
     <use xlink:href="#m8980f6d10f" x="65.643689" y="222.363133" style="fill: #1f77b4; stroke: #1f77b4"/>
     <use xlink:href="#m8980f6d10f" x="58.111619" y="217.139877" style="fill: #1f77b4; stroke: #1f77b4"/>
     <use xlink:href="#m8980f6d10f" x="62.4528" y="217.822332" style="fill: #1f77b4; stroke: #1f77b4"/>
     <use xlink:href="#m8980f6d10f" x="60.563715" y="216.368448" style="fill: #1f77b4; stroke: #1f77b4"/>
     <use xlink:href="#m8980f6d10f" x="62.106931" y="212.700966" style="fill: #1f77b4; stroke: #1f77b4"/>
     <use xlink:href="#m8980f6d10f" x="61.307571" y="211.291034" style="fill: #1f77b4; stroke: #1f77b4"/>
     <use xlink:href="#m8980f6d10f" x="65.153744" y="211.311849" style="fill: #1f77b4; stroke: #1f77b4"/>
     <use xlink:href="#m8980f6d10f" x="65.66527" y="208.952223" style="fill: #1f77b4; stroke: #1f77b4"/>
     <use xlink:href="#m8980f6d10f" x="59.036827" y="205.937174" style="fill: #1f77b4; stroke: #1f77b4"/>
     <use xlink:href="#m8980f6d10f" x="65.944181" y="201.652378" style="fill: #1f77b4; stroke: #1f77b4"/>
     <use xlink:href="#m8980f6d10f" x="66.36128" y="201.057641" style="fill: #1f77b4; stroke: #1f77b4"/>
     <use xlink:href="#m8980f6d10f" x="63.901495" y="201.172099" style="fill: #1f77b4; stroke: #1f77b4"/>
     <use xlink:href="#m8980f6d10f" x="65.89355" y="198.355785" style="fill: #1f77b4; stroke: #1f77b4"/>
     <use xlink:href="#m8980f6d10f" x="67.008338" y="194.669436" style="fill: #1f77b4; stroke: #1f77b4"/>
     <use xlink:href="#m8980f6d10f" x="67.129344" y="196.335265" style="fill: #1f77b4; stroke: #1f77b4"/>
     <use xlink:href="#m8980f6d10f" x="67.354587" y="192.304925" style="fill: #1f77b4; stroke: #1f77b4"/>
     <use xlink:href="#m8980f6d10f" x="65.576857" y="188.202051" style="fill: #1f77b4; stroke: #1f77b4"/>
     <use xlink:href="#m8980f6d10f" x="64.725031" y="188.527894" style="fill: #1f77b4; stroke: #1f77b4"/>
     <use xlink:href="#m8980f6d10f" x="70.269919" y="190.541396" style="fill: #1f77b4; stroke: #1f77b4"/>
     <use xlink:href="#m8980f6d10f" x="66.962612" y="188.425445" style="fill: #1f77b4; stroke: #1f77b4"/>
     <use xlink:href="#m8980f6d10f" x="70.872232" y="188.024933" style="fill: #1f77b4; stroke: #1f77b4"/>
     <use xlink:href="#m8980f6d10f" x="73.817816" y="182.647188" style="fill: #1f77b4; stroke: #1f77b4"/>
     <use xlink:href="#m8980f6d10f" x="70.200967" y="184.114042" style="fill: #1f77b4; stroke: #1f77b4"/>
     <use xlink:href="#m8980f6d10f" x="70.143691" y="178.911735" style="fill: #1f77b4; stroke: #1f77b4"/>
     <use xlink:href="#m8980f6d10f" x="74.903491" y="178.796342" style="fill: #1f77b4; stroke: #1f77b4"/>
     <use xlink:href="#m8980f6d10f" x="75.549535" y="174.500791" style="fill: #1f77b4; stroke: #1f77b4"/>
     <use xlink:href="#m8980f6d10f" x="78.645207" y="173.262988" style="fill: #1f77b4; stroke: #1f77b4"/>
     <use xlink:href="#m8980f6d10f" x="78.641188" y="171.228404" style="fill: #1f77b4; stroke: #1f77b4"/>
     <use xlink:href="#m8980f6d10f" x="77.314544" y="168.015287" style="fill: #1f77b4; stroke: #1f77b4"/>
     <use xlink:href="#m8980f6d10f" x="85.124638" y="162.731773" style="fill: #1f77b4; stroke: #1f77b4"/>
     <use xlink:href="#m8980f6d10f" x="85.050116" y="162.661987" style="fill: #1f77b4; stroke: #1f77b4"/>
     <use xlink:href="#m8980f6d10f" x="80.474169" y="165.421192" style="fill: #1f77b4; stroke: #1f77b4"/>
     <use xlink:href="#m8980f6d10f" x="87.203872" y="157.197218" style="fill: #1f77b4; stroke: #1f77b4"/>
     <use xlink:href="#m8980f6d10f" x="84.381984" y="157.6645" style="fill: #1f77b4; stroke: #1f77b4"/>
     <use xlink:href="#m8980f6d10f" x="84.008174" y="157.160844" style="fill: #1f77b4; stroke: #1f77b4"/>
     <use xlink:href="#m8980f6d10f" x="89.2851" y="153.682543" style="fill: #1f77b4; stroke: #1f77b4"/>
     <use xlink:href="#m8980f6d10f" x="92.362387" y="152.002863" style="fill: #1f77b4; stroke: #1f77b4"/>
     <use xlink:href="#m8980f6d10f" x="87.192069" y="151.52504" style="fill: #1f77b4; stroke: #1f77b4"/>
     <use xlink:href="#m8980f6d10f" x="93.884654" y="147.823159" style="fill: #1f77b4; stroke: #1f77b4"/>
     <use xlink:href="#m8980f6d10f" x="92.606742" y="147.732664" style="fill: #1f77b4; stroke: #1f77b4"/>
     <use xlink:href="#m8980f6d10f" x="94.527693" y="148.789479" style="fill: #1f77b4; stroke: #1f77b4"/>
     <use xlink:href="#m8980f6d10f" x="94.091954" y="139.793516" style="fill: #1f77b4; stroke: #1f77b4"/>
     <use xlink:href="#m8980f6d10f" x="101.09655" y="141.608923" style="fill: #1f77b4; stroke: #1f77b4"/>
     <use xlink:href="#m8980f6d10f" x="105.319129" y="137.105404" style="fill: #1f77b4; stroke: #1f77b4"/>
     <use xlink:href="#m8980f6d10f" x="102.141815" y="132.255867" style="fill: #1f77b4; stroke: #1f77b4"/>
     <use xlink:href="#m8980f6d10f" x="104.92149" y="135.252369" style="fill: #1f77b4; stroke: #1f77b4"/>
     <use xlink:href="#m8980f6d10f" x="103.361344" y="134.486517" style="fill: #1f77b4; stroke: #1f77b4"/>
     <use xlink:href="#m8980f6d10f" x="108.791459" y="129.352875" style="fill: #1f77b4; stroke: #1f77b4"/>
     <use xlink:href="#m8980f6d10f" x="110.026779" y="126.413028" style="fill: #1f77b4; stroke: #1f77b4"/>
     <use xlink:href="#m8980f6d10f" x="111.330481" y="123.662603" style="fill: #1f77b4; stroke: #1f77b4"/>
     <use xlink:href="#m8980f6d10f" x="111.957349" y="122.724864" style="fill: #1f77b4; stroke: #1f77b4"/>
     <use xlink:href="#m8980f6d10f" x="120.854099" y="118.211978" style="fill: #1f77b4; stroke: #1f77b4"/>
     <use xlink:href="#m8980f6d10f" x="117.99503" y="121.318322" style="fill: #1f77b4; stroke: #1f77b4"/>
     <use xlink:href="#m8980f6d10f" x="122.523069" y="120.01559" style="fill: #1f77b4; stroke: #1f77b4"/>
     <use xlink:href="#m8980f6d10f" x="131.783345" y="111.905807" style="fill: #1f77b4; stroke: #1f77b4"/>
     <use xlink:href="#m8980f6d10f" x="123.310815" y="114.917947" style="fill: #1f77b4; stroke: #1f77b4"/>
     <use xlink:href="#m8980f6d10f" x="127.04057" y="111.430599" style="fill: #1f77b4; stroke: #1f77b4"/>
     <use xlink:href="#m8980f6d10f" x="133.161443" y="109.661947" style="fill: #1f77b4; stroke: #1f77b4"/>
     <use xlink:href="#m8980f6d10f" x="138.487006" y="102.894045" style="fill: #1f77b4; stroke: #1f77b4"/>
     <use xlink:href="#m8980f6d10f" x="141.599544" y="100.015124" style="fill: #1f77b4; stroke: #1f77b4"/>
     <use xlink:href="#m8980f6d10f" x="147.777091" y="98.97192" style="fill: #1f77b4; stroke: #1f77b4"/>
     <use xlink:href="#m8980f6d10f" x="152.809124" y="97.519289" style="fill: #1f77b4; stroke: #1f77b4"/>
     <use xlink:href="#m8980f6d10f" x="147.33629" y="98.156992" style="fill: #1f77b4; stroke: #1f77b4"/>
     <use xlink:href="#m8980f6d10f" x="155.725944" y="94.428584" style="fill: #1f77b4; stroke: #1f77b4"/>
     <use xlink:href="#m8980f6d10f" x="162.764937" y="87.107016" style="fill: #1f77b4; stroke: #1f77b4"/>
     <use xlink:href="#m8980f6d10f" x="168.629524" y="95.800727" style="fill: #1f77b4; stroke: #1f77b4"/>
     <use xlink:href="#m8980f6d10f" x="169.838674" y="84.470596" style="fill: #1f77b4; stroke: #1f77b4"/>
     <use xlink:href="#m8980f6d10f" x="172.47978" y="83.673735" style="fill: #1f77b4; stroke: #1f77b4"/>
     <use xlink:href="#m8980f6d10f" x="178.605146" y="87.035443" style="fill: #1f77b4; stroke: #1f77b4"/>
     <use xlink:href="#m8980f6d10f" x="184.334012" y="83.863557" style="fill: #1f77b4; stroke: #1f77b4"/>
     <use xlink:href="#m8980f6d10f" x="192.057022" y="80.292146" style="fill: #1f77b4; stroke: #1f77b4"/>
     <use xlink:href="#m8980f6d10f" x="195.703553" y="76.683988" style="fill: #1f77b4; stroke: #1f77b4"/>
     <use xlink:href="#m8980f6d10f" x="202.536859" y="73.808243" style="fill: #1f77b4; stroke: #1f77b4"/>
     <use xlink:href="#m8980f6d10f" x="208.710514" y="72.84838" style="fill: #1f77b4; stroke: #1f77b4"/>
     <use xlink:href="#m8980f6d10f" x="213.725902" y="74.77008" style="fill: #1f77b4; stroke: #1f77b4"/>
     <use xlink:href="#m8980f6d10f" x="222.899158" y="68.996734" style="fill: #1f77b4; stroke: #1f77b4"/>
     <use xlink:href="#m8980f6d10f" x="233.816727" y="69.624002" style="fill: #1f77b4; stroke: #1f77b4"/>
     <use xlink:href="#m8980f6d10f" x="236.775665" y="68.064999" style="fill: #1f77b4; stroke: #1f77b4"/>
     <use xlink:href="#m8980f6d10f" x="251.687976" y="74.302238" style="fill: #1f77b4; stroke: #1f77b4"/>
     <use xlink:href="#m8980f6d10f" x="254.699" y="76.668003" style="fill: #1f77b4; stroke: #1f77b4"/>
     <use xlink:href="#m8980f6d10f" x="266.142208" y="76.84352" style="fill: #1f77b4; stroke: #1f77b4"/>
     <use xlink:href="#m8980f6d10f" x="272.537846" y="75.03852" style="fill: #1f77b4; stroke: #1f77b4"/>
     <use xlink:href="#m8980f6d10f" x="279.969098" y="81.108195" style="fill: #1f77b4; stroke: #1f77b4"/>
     <use xlink:href="#m8980f6d10f" x="289.339021" y="81.565602" style="fill: #1f77b4; stroke: #1f77b4"/>
     <use xlink:href="#m8980f6d10f" x="300.921463" y="89.243863" style="fill: #1f77b4; stroke: #1f77b4"/>
     <use xlink:href="#m8980f6d10f" x="307.602213" y="91.661373" style="fill: #1f77b4; stroke: #1f77b4"/>
     <use xlink:href="#m8980f6d10f" x="312.014308" y="94.133244" style="fill: #1f77b4; stroke: #1f77b4"/>
     <use xlink:href="#m8980f6d10f" x="324.94738" y="105.725064" style="fill: #1f77b4; stroke: #1f77b4"/>
     <use xlink:href="#m8980f6d10f" x="345.247467" y="106.62795" style="fill: #1f77b4; stroke: #1f77b4"/>
     <use xlink:href="#m8980f6d10f" x="351.370207" y="116.66485" style="fill: #1f77b4; stroke: #1f77b4"/>
     <use xlink:href="#m8980f6d10f" x="356.138772" y="128.237456" style="fill: #1f77b4; stroke: #1f77b4"/>
     <use xlink:href="#m8980f6d10f" x="354.715708" y="139.396953" style="fill: #1f77b4; stroke: #1f77b4"/>
     <use xlink:href="#m8980f6d10f" x="362.540422" y="148.954349" style="fill: #1f77b4; stroke: #1f77b4"/>
     <use xlink:href="#m8980f6d10f" x="368.008225" y="163.873825" style="fill: #1f77b4; stroke: #1f77b4"/>
     <use xlink:href="#m8980f6d10f" x="367.731941" y="172.783457" style="fill: #1f77b4; stroke: #1f77b4"/>
     <use xlink:href="#m8980f6d10f" x="369.376892" y="189.253582" style="fill: #1f77b4; stroke: #1f77b4"/>
     <use xlink:href="#m8980f6d10f" x="366.379" y="204.912436" style="fill: #1f77b4; stroke: #1f77b4"/>
     <use xlink:href="#m8980f6d10f" x="366.011613" y="209.178898" style="fill: #1f77b4; stroke: #1f77b4"/>
     <use xlink:href="#m8980f6d10f" x="353.083572" y="220.766529" style="fill: #1f77b4; stroke: #1f77b4"/>
     <use xlink:href="#m8980f6d10f" x="350.814253" y="229.930884" style="fill: #1f77b4; stroke: #1f77b4"/>
     <use xlink:href="#m8980f6d10f" x="338.188064" y="241.651921" style="fill: #1f77b4; stroke: #1f77b4"/>
     <use xlink:href="#m8980f6d10f" x="341.319019" y="248.381447" style="fill: #1f77b4; stroke: #1f77b4"/>
     <use xlink:href="#m8980f6d10f" x="325.572287" y="261.16597" style="fill: #1f77b4; stroke: #1f77b4"/>
     <use xlink:href="#m8980f6d10f" x="312.96711" y="265.211708" style="fill: #1f77b4; stroke: #1f77b4"/>
     <use xlink:href="#m8980f6d10f" x="295.864494" y="270.120756" style="fill: #1f77b4; stroke: #1f77b4"/>
     <use xlink:href="#m8980f6d10f" x="288.0363" y="272.871528" style="fill: #1f77b4; stroke: #1f77b4"/>
     <use xlink:href="#m8980f6d10f" x="278.116182" y="275.644076" style="fill: #1f77b4; stroke: #1f77b4"/>
     <use xlink:href="#m8980f6d10f" x="260.717346" y="279.007732" style="fill: #1f77b4; stroke: #1f77b4"/>
     <use xlink:href="#m8980f6d10f" x="260.893382" y="279.482753" style="fill: #1f77b4; stroke: #1f77b4"/>
     <use xlink:href="#m8980f6d10f" x="249.028707" y="280.73454" style="fill: #1f77b4; stroke: #1f77b4"/>
     <use xlink:href="#m8980f6d10f" x="238.600006" y="276.106074" style="fill: #1f77b4; stroke: #1f77b4"/>
     <use xlink:href="#m8980f6d10f" x="217.197252" y="275.175513" style="fill: #1f77b4; stroke: #1f77b4"/>
     <use xlink:href="#m8980f6d10f" x="213.50971" y="273.325493" style="fill: #1f77b4; stroke: #1f77b4"/>
     <use xlink:href="#m8980f6d10f" x="202.699667" y="269.338386" style="fill: #1f77b4; stroke: #1f77b4"/>
     <use xlink:href="#m8980f6d10f" x="195.312622" y="267.049799" style="fill: #1f77b4; stroke: #1f77b4"/>
     <use xlink:href="#m8980f6d10f" x="187.536609" y="265.781626" style="fill: #1f77b4; stroke: #1f77b4"/>
     <use xlink:href="#m8980f6d10f" x="184.679596" y="260.831801" style="fill: #1f77b4; stroke: #1f77b4"/>
     <use xlink:href="#m8980f6d10f" x="180.250097" y="253.51034" style="fill: #1f77b4; stroke: #1f77b4"/>
     <use xlink:href="#m8980f6d10f" x="168.589463" y="253.149003" style="fill: #1f77b4; stroke: #1f77b4"/>
     <use xlink:href="#m8980f6d10f" x="162.648676" y="245.961002" style="fill: #1f77b4; stroke: #1f77b4"/>
     <use xlink:href="#m8980f6d10f" x="160.775508" y="244.537994" style="fill: #1f77b4; stroke: #1f77b4"/>
     <use xlink:href="#m8980f6d10f" x="161.351872" y="227.510626" style="fill: #1f77b4; stroke: #1f77b4"/>
     <use xlink:href="#m8980f6d10f" x="160.635705" y="229.938303" style="fill: #1f77b4; stroke: #1f77b4"/>
     <use xlink:href="#m8980f6d10f" x="153.770343" y="222.330175" style="fill: #1f77b4; stroke: #1f77b4"/>
     <use xlink:href="#m8980f6d10f" x="146.318175" y="216.592162" style="fill: #1f77b4; stroke: #1f77b4"/>
     <use xlink:href="#m8980f6d10f" x="147.408755" y="213.18885" style="fill: #1f77b4; stroke: #1f77b4"/>
     <use xlink:href="#m8980f6d10f" x="143.94905" y="207.967702" style="fill: #1f77b4; stroke: #1f77b4"/>
     <use xlink:href="#m8980f6d10f" x="145.431794" y="207.120456" style="fill: #1f77b4; stroke: #1f77b4"/>
     <use xlink:href="#m8980f6d10f" x="139.905513" y="196.098048" style="fill: #1f77b4; stroke: #1f77b4"/>
     <use xlink:href="#m8980f6d10f" x="138.43916" y="187.90954" style="fill: #1f77b4; stroke: #1f77b4"/>
     <use xlink:href="#m8980f6d10f" x="135.904379" y="188.000221" style="fill: #1f77b4; stroke: #1f77b4"/>
     <use xlink:href="#m8980f6d10f" x="147.289298" y="185.657353" style="fill: #1f77b4; stroke: #1f77b4"/>
     <use xlink:href="#m8980f6d10f" x="144.066892" y="186.645797" style="fill: #1f77b4; stroke: #1f77b4"/>
     <use xlink:href="#m8980f6d10f" x="145.650517" y="178.942184" style="fill: #1f77b4; stroke: #1f77b4"/>
     <use xlink:href="#m8980f6d10f" x="144.136319" y="165.400937" style="fill: #1f77b4; stroke: #1f77b4"/>
     <use xlink:href="#m8980f6d10f" x="147.386667" y="165.225873" style="fill: #1f77b4; stroke: #1f77b4"/>
     <use xlink:href="#m8980f6d10f" x="146.820302" y="161.076751" style="fill: #1f77b4; stroke: #1f77b4"/>
     <use xlink:href="#m8980f6d10f" x="141.079158" y="156.896593" style="fill: #1f77b4; stroke: #1f77b4"/>
     <use xlink:href="#m8980f6d10f" x="146.196504" y="149.134777" style="fill: #1f77b4; stroke: #1f77b4"/>
     <use xlink:href="#m8980f6d10f" x="152.434965" y="145.077831" style="fill: #1f77b4; stroke: #1f77b4"/>
     <use xlink:href="#m8980f6d10f" x="142.358083" y="137.740891" style="fill: #1f77b4; stroke: #1f77b4"/>
     <use xlink:href="#m8980f6d10f" x="156.873831" y="146.653273" style="fill: #1f77b4; stroke: #1f77b4"/>
     <use xlink:href="#m8980f6d10f" x="146.394437" y="142.971513" style="fill: #1f77b4; stroke: #1f77b4"/>
     <use xlink:href="#m8980f6d10f" x="158.008554" y="140.082905" style="fill: #1f77b4; stroke: #1f77b4"/>
     <use xlink:href="#m8980f6d10f" x="159.431112" y="123.156519" style="fill: #1f77b4; stroke: #1f77b4"/>
     <use xlink:href="#m8980f6d10f" x="165.552807" y="125.427867" style="fill: #1f77b4; stroke: #1f77b4"/>
     <use xlink:href="#m8980f6d10f" x="166.068257" y="122.757475" style="fill: #1f77b4; stroke: #1f77b4"/>
     <use xlink:href="#m8980f6d10f" x="167.680994" y="115.934279" style="fill: #1f77b4; stroke: #1f77b4"/>
     <use xlink:href="#m8980f6d10f" x="169.080452" y="115.429796" style="fill: #1f77b4; stroke: #1f77b4"/>
     <use xlink:href="#m8980f6d10f" x="172.902892" y="105.856228" style="fill: #1f77b4; stroke: #1f77b4"/>
     <use xlink:href="#m8980f6d10f" x="170.230965" y="102.201395" style="fill: #1f77b4; stroke: #1f77b4"/>
     <use xlink:href="#m8980f6d10f" x="182.327243" y="107.360177" style="fill: #1f77b4; stroke: #1f77b4"/>
     <use xlink:href="#m8980f6d10f" x="178.671408" y="105.086854" style="fill: #1f77b4; stroke: #1f77b4"/>
     <use xlink:href="#m8980f6d10f" x="190.121356" y="103.198859" style="fill: #1f77b4; stroke: #1f77b4"/>
     <use xlink:href="#m8980f6d10f" x="188.274896" y="81.430675" style="fill: #1f77b4; stroke: #1f77b4"/>
     <use xlink:href="#m8980f6d10f" x="201.019939" y="92.246396" style="fill: #1f77b4; stroke: #1f77b4"/>
     <use xlink:href="#m8980f6d10f" x="199.555232" y="84.356004" style="fill: #1f77b4; stroke: #1f77b4"/>
     <use xlink:href="#m8980f6d10f" x="197.198891" y="77.55341" style="fill: #1f77b4; stroke: #1f77b4"/>
     <use xlink:href="#m8980f6d10f" x="208.47293" y="75.703843" style="fill: #1f77b4; stroke: #1f77b4"/>
     <use xlink:href="#m8980f6d10f" x="208.969235" y="73.356626" style="fill: #1f77b4; stroke: #1f77b4"/>
     <use xlink:href="#m8980f6d10f" x="209.807802" y="70.325805" style="fill: #1f77b4; stroke: #1f77b4"/>
     <use xlink:href="#m8980f6d10f" x="227.469346" y="69.120773" style="fill: #1f77b4; stroke: #1f77b4"/>
     <use xlink:href="#m8980f6d10f" x="235.137454" y="70.566945" style="fill: #1f77b4; stroke: #1f77b4"/>
     <use xlink:href="#m8980f6d10f" x="242.314636" y="62.616615" style="fill: #1f77b4; stroke: #1f77b4"/>
     <use xlink:href="#m8980f6d10f" x="223.864775" y="53.856" style="fill: #1f77b4; stroke: #1f77b4"/>
    </g>
   </g>
   <g id="line2d_13">
    <path d="M 58.381853 295.776 
L 57.839607 288.796491 
L 57.516035 281.765021 
L 57.416066 274.682943 
L 57.545086 267.551445 
L 57.909023 260.371535 
L 58.474365 253.546791 
L 59.261279 246.680092 
L 60.276664 239.771753 
L 61.528276 232.821887 
L 63.024898 225.83039 
L 64.666234 219.211835 
L 66.542954 212.555652 
L 68.66592 205.861196 
L 70.890906 199.549661 
L 73.355068 193.20298 
L 76.071971 186.820268 
L 79.057279 180.400595 
L 82.101715 174.374754 
L 85.412882 168.315285 
L 89.010617 162.221757 
L 92.628076 156.532913 
L 96.533939 150.815021 
L 100.416781 145.512071 
L 104.589154 140.186776 
L 109.077173 134.841629 
L 113.494215 129.927721 
L 118.228684 125.004643 
L 122.834069 120.526216 
L 127.75372 116.051396 
L 133.017781 111.588477 
L 138.078185 107.591053 
L 143.473615 103.622584 
L 148.576437 100.130118 
L 153.993952 96.682937 
L 159.753697 93.295819 
L 165.098 90.395716 
L 170.749713 87.570713 
L 176.7328 84.839082 
L 182.144343 82.588642 
L 187.835341 80.439569 
L 193.823697 78.41139 
L 200.127885 76.527069 
L 206.766659 74.813588 
L 212.567997 73.538874 
L 218.625017 72.42585 
L 224.94742 71.49862 
L 231.543779 70.784575 
L 237.022819 70.387562 
L 242.684111 70.164511 
L 248.528863 70.13491 
L 254.556683 70.320117 
L 260.765188 70.743436 
L 267.14953 71.43018 
L 273.701858 72.40768 
L 278.719599 73.349172 
L 283.819064 74.483718 
L 288.992305 75.824911 
L 294.229628 77.386809 
L 299.519392 79.183834 
L 304.847792 81.230647 
L 310.198647 83.541976 
L 315.553179 86.132415 
L 320.889816 89.01617 
L 326.184002 92.206762 
L 331.408045 95.716672 
L 334.836633 98.239536 
L 338.210387 100.912087 
L 341.518682 103.736707 
L 344.750252 106.715269 
L 347.893211 109.849061 
L 350.935087 113.138714 
L 353.862858 116.584122 
L 356.663009 120.184366 
L 359.321598 123.937634 
L 361.824341 127.841145 
L 364.156705 131.891084 
L 366.304021 136.08253 
L 368.251611 140.409403 
L 369.984929 144.864418 
L 371.489711 149.439048 
L 372.752146 154.12351 
L 373.759048 158.90676 
L 374.498036 163.776512 
L 374.957723 168.719278 
L 375.127898 173.720427 
L 374.999708 178.764266 
L 374.56583 183.834153 
L 373.820632 188.912619 
L 372.76031 193.981522 
L 371.38301 199.022216 
L 369.688919 204.015732 
L 367.680329 208.942981 
L 365.361666 213.784961 
L 362.739486 218.522965 
L 359.822435 223.138797 
L 356.621174 227.614973 
L 353.148271 231.934922 
L 349.418059 236.083166 
L 345.446466 240.04548 
L 341.250823 243.809033 
L 336.849653 247.362507 
L 332.262441 250.696179 
L 327.509399 253.801984 
L 322.611228 256.673544 
L 317.588885 259.306173 
L 312.463349 261.696852 
L 307.255407 263.84418 
L 301.985454 265.748308 
L 296.673308 267.410847 
L 291.338054 268.834764 
L 285.997897 270.02427 
L 280.670059 270.984688 
L 275.370676 271.722332 
L 270.114738 272.244365 
L 264.91604 272.558675 
L 259.787153 272.673741 
L 254.739421 272.59851 
L 249.78297 272.34228 
L 244.926729 271.914589 
L 240.178465 271.325117 
L 235.544836 270.583591 
L 231.031437 269.699705 
L 226.642865 268.683047 
L 220.301828 266.929663 
L 214.258461 264.929509 
L 208.517663 262.711977 
L 203.080982 260.304801 
L 197.947106 257.733904 
L 193.112328 255.023311 
L 188.570982 252.195122 
L 184.315823 249.269522 
L 180.338377 246.26483 
L 176.629242 243.197574 
L 173.178351 240.082581 
L 169.975193 236.93308 
L 167.009004 233.760814 
L 164.268923 230.576152 
L 160.948501 226.326233 
L 157.985545 222.088807 
L 155.355544 217.879153 
L 153.03497 213.709776 
L 151.001437 209.59078 
L 149.233796 205.530215 
L 147.712176 201.534372 
L 146.418001 197.608053 
L 145.093879 192.80322 
L 144.067092 188.117131 
L 143.309402 183.552382 
L 142.795245 179.109942 
L 142.50153 174.789511 
L 142.407435 170.589813 
L 142.531749 165.706658 
L 142.887738 160.989912 
L 143.449982 156.434291 
L 144.196096 152.034024 
L 145.2728 147.088656 
L 146.545752 142.336735 
L 147.991389 137.768531 
L 149.829002 132.760497 
L 151.839592 127.966347 
L 154.001017 123.373126 
L 156.58955 118.43079 
L 159.322487 113.711235 
L 162.180759 109.199611 
L 165.484172 104.414043 
L 168.904092 99.851397 
L 172.782292 95.071681 
L 176.76592 90.524804 
L 180.840938 86.19439 
L 185.376999 81.700053 
L 187.291975 79.894243 
L 187.291975 79.894243 
" clip-path="url(#p7e5bd027c3)" style="fill: none; stroke: #d62728; stroke-width: 1.5; stroke-linecap: square"/>
   </g>
   <g id="patch_3">
    <path d="M 34.240625 307.872 
L 34.240625 41.76 
" style="fill: none; stroke: #000000; stroke-width: 0.8; stroke-linejoin: miter; stroke-linecap: square"/>
   </g>
   <g id="patch_4">
    <path d="M 391.360625 307.872 
L 391.360625 41.76 
" style="fill: none; stroke: #000000; stroke-width: 0.8; stroke-linejoin: miter; stroke-linecap: square"/>
   </g>
   <g id="patch_5">
    <path d="M 34.240625 307.872 
L 391.360625 307.872 
" style="fill: none; stroke: #000000; stroke-width: 0.8; stroke-linejoin: miter; stroke-linecap: square"/>
   </g>
   <g id="patch_6">
    <path d="M 34.240625 41.76 
L 391.360625 41.76 
" style="fill: none; stroke: #000000; stroke-width: 0.8; stroke-linejoin: miter; stroke-linecap: square"/>
   </g>
   <g id="text_14">
    <g id="patch_7">
     <path d="M 409.216625 102.337163 
L 548.316625 102.337163 
Q 552.316625 102.337163 552.316625 98.337163 
L 552.316625 55.0656 
Q 552.316625 51.0656 548.316625 51.0656 
L 409.216625 51.0656 
Q 405.216625 51.0656 405.216625 55.0656 
L 405.216625 98.337163 
Q 405.216625 102.337163 409.216625 102.337163 
z
" style="fill: #ffffff; opacity: 0.5; stroke: #000000; stroke-linejoin: miter"/>
    </g>
    <!-- Summary -->
    <g transform="translate(409.216625 62.664038) scale(0.1 -0.1)">
     <defs>
      <path id="DejaVuSans-53" d="M 3425 4513 
L 3425 3897 
Q 3066 4069 2747 4153 
Q 2428 4238 2131 4238 
Q 1616 4238 1336 4038 
Q 1056 3838 1056 3469 
Q 1056 3159 1242 3001 
Q 1428 2844 1947 2747 
L 2328 2669 
Q 3034 2534 3370 2195 
Q 3706 1856 3706 1288 
Q 3706 609 3251 259 
Q 2797 -91 1919 -91 
Q 1588 -91 1214 -16 
Q 841 59 441 206 
L 441 856 
Q 825 641 1194 531 
Q 1563 422 1919 422 
Q 2459 422 2753 634 
Q 3047 847 3047 1241 
Q 3047 1584 2836 1778 
Q 2625 1972 2144 2069 
L 1759 2144 
Q 1053 2284 737 2584 
Q 422 2884 422 3419 
Q 422 4038 858 4394 
Q 1294 4750 2059 4750 
Q 2388 4750 2728 4690 
Q 3069 4631 3425 4513 
z
" transform="scale(0.015625)"/>
      <path id="DejaVuSans-75" d="M 544 1381 
L 544 3500 
L 1119 3500 
L 1119 1403 
Q 1119 906 1312 657 
Q 1506 409 1894 409 
Q 2359 409 2629 706 
Q 2900 1003 2900 1516 
L 2900 3500 
L 3475 3500 
L 3475 0 
L 2900 0 
L 2900 538 
Q 2691 219 2414 64 
Q 2138 -91 1772 -91 
Q 1169 -91 856 284 
Q 544 659 544 1381 
z
M 1991 3584 
L 1991 3584 
z
" transform="scale(0.015625)"/>
      <path id="DejaVuSans-61" d="M 2194 1759 
Q 1497 1759 1228 1600 
Q 959 1441 959 1056 
Q 959 750 1161 570 
Q 1363 391 1709 391 
Q 2188 391 2477 730 
Q 2766 1069 2766 1631 
L 2766 1759 
L 2194 1759 
z
M 3341 1997 
L 3341 0 
L 2766 0 
L 2766 531 
Q 2569 213 2275 61 
Q 1981 -91 1556 -91 
Q 1019 -91 701 211 
Q 384 513 384 1019 
Q 384 1609 779 1909 
Q 1175 2209 1959 2209 
L 2766 2209 
L 2766 2266 
Q 2766 2663 2505 2880 
Q 2244 3097 1772 3097 
Q 1472 3097 1187 3025 
Q 903 2953 641 2809 
L 641 3341 
Q 956 3463 1253 3523 
Q 1550 3584 1831 3584 
Q 2591 3584 2966 3190 
Q 3341 2797 3341 1997 
z
" transform="scale(0.015625)"/>
      <path id="DejaVuSans-72" d="M 2631 2963 
Q 2534 3019 2420 3045 
Q 2306 3072 2169 3072 
Q 1681 3072 1420 2755 
Q 1159 2438 1159 1844 
L 1159 0 
L 581 0 
L 581 3500 
L 1159 3500 
L 1159 2956 
Q 1341 3275 1631 3429 
Q 1922 3584 2338 3584 
Q 2397 3584 2469 3576 
Q 2541 3569 2628 3553 
L 2631 2963 
z
" transform="scale(0.015625)"/>
      <path id="DejaVuSans-79" d="M 2059 -325 
Q 1816 -950 1584 -1140 
Q 1353 -1331 966 -1331 
L 506 -1331 
L 506 -850 
L 844 -850 
Q 1081 -850 1212 -737 
Q 1344 -625 1503 -206 
L 1606 56 
L 191 3500 
L 800 3500 
L 1894 763 
L 2988 3500 
L 3597 3500 
L 2059 -325 
z
" transform="scale(0.015625)"/>
     </defs>
     <use xlink:href="#DejaVuSans-53"/>
     <use xlink:href="#DejaVuSans-75" x="63.476562"/>
     <use xlink:href="#DejaVuSans-6d" x="126.855469"/>
     <use xlink:href="#DejaVuSans-6d" x="224.267578"/>
     <use xlink:href="#DejaVuSans-61" x="321.679688"/>
     <use xlink:href="#DejaVuSans-72" x="382.958984"/>
     <use xlink:href="#DejaVuSans-79" x="424.072266"/>
    </g>
    <!-- $Q_I$: 18.5$\pm$1.1 k -->
    <g transform="translate(409.216625 73.86185) scale(0.1 -0.1)">
     <defs>
      <path id="DejaVuSans-Oblique-51" d="M 2309 -84 
Q 2275 -88 2237 -89 
Q 2200 -91 2125 -91 
Q 1250 -91 756 411 
Q 263 913 263 1797 
Q 263 2319 452 2844 
Q 641 3369 978 3788 
Q 1369 4269 1858 4509 
Q 2347 4750 2938 4750 
Q 3794 4750 4287 4245 
Q 4781 3741 4781 2869 
Q 4781 1928 4265 1147 
Q 3750 366 2919 44 
L 3553 -825 
L 2847 -825 
L 2309 -84 
z
M 2919 4238 
Q 2400 4238 2003 3986 
Q 1606 3734 1313 3219 
Q 1125 2891 1026 2522 
Q 928 2153 928 1778 
Q 928 1128 1239 775 
Q 1550 422 2119 422 
Q 2631 422 3032 676 
Q 3434 931 3719 1434 
Q 3909 1772 4009 2142 
Q 4109 2513 4109 2881 
Q 4109 3528 3796 3883 
Q 3484 4238 2919 4238 
z
" transform="scale(0.015625)"/>
      <path id="DejaVuSans-Oblique-49" d="M 1081 4666 
L 1716 4666 
L 806 0 
L 172 0 
L 1081 4666 
z
" transform="scale(0.015625)"/>
      <path id="DejaVuSans-3a" d="M 750 794 
L 1409 794 
L 1409 0 
L 750 0 
L 750 794 
z
M 750 3309 
L 1409 3309 
L 1409 2516 
L 750 2516 
L 750 3309 
z
" transform="scale(0.015625)"/>
      <path id="DejaVuSans-2e" d="M 684 794 
L 1344 794 
L 1344 0 
L 684 0 
L 684 794 
z
" transform="scale(0.015625)"/>
      <path id="DejaVuSans-35" d="M 691 4666 
L 3169 4666 
L 3169 4134 
L 1269 4134 
L 1269 2991 
Q 1406 3038 1543 3061 
Q 1681 3084 1819 3084 
Q 2600 3084 3056 2656 
Q 3513 2228 3513 1497 
Q 3513 744 3044 326 
Q 2575 -91 1722 -91 
Q 1428 -91 1123 -41 
Q 819 9 494 109 
L 494 744 
Q 775 591 1075 516 
Q 1375 441 1709 441 
Q 2250 441 2565 725 
Q 2881 1009 2881 1497 
Q 2881 1984 2565 2268 
Q 2250 2553 1709 2553 
Q 1456 2553 1204 2497 
Q 953 2441 691 2322 
L 691 4666 
z
" transform="scale(0.015625)"/>
      <path id="DejaVuSans-b1" d="M 2944 4013 
L 2944 2803 
L 4684 2803 
L 4684 2272 
L 2944 2272 
L 2944 1063 
L 2419 1063 
L 2419 2272 
L 678 2272 
L 678 2803 
L 2419 2803 
L 2419 4013 
L 2944 4013 
z
M 678 531 
L 4684 531 
L 4684 0 
L 678 0 
L 678 531 
z
" transform="scale(0.015625)"/>
      <path id="DejaVuSans-6b" d="M 581 4863 
L 1159 4863 
L 1159 1991 
L 2875 3500 
L 3609 3500 
L 1753 1863 
L 3688 0 
L 2938 0 
L 1159 1709 
L 1159 0 
L 581 0 
L 581 4863 
z
" transform="scale(0.015625)"/>
     </defs>
     <use xlink:href="#DejaVuSans-Oblique-51" transform="translate(0 0.015625)"/>
     <use xlink:href="#DejaVuSans-Oblique-49" transform="translate(78.710938 -16.390625) scale(0.7)"/>
     <use xlink:href="#DejaVuSans-3a" transform="translate(102.089844 0.015625)"/>
     <use xlink:href="#DejaVuSans-20" transform="translate(135.78125 0.015625)"/>
     <use xlink:href="#DejaVuSans-31" transform="translate(167.568359 0.015625)"/>
     <use xlink:href="#DejaVuSans-38" transform="translate(231.191406 0.015625)"/>
     <use xlink:href="#DejaVuSans-2e" transform="translate(294.814453 0.015625)"/>
     <use xlink:href="#DejaVuSans-35" transform="translate(326.601562 0.015625)"/>
     <use xlink:href="#DejaVuSans-b1" transform="translate(390.224609 0.015625)"/>
     <use xlink:href="#DejaVuSans-31" transform="translate(474.013672 0.015625)"/>
     <use xlink:href="#DejaVuSans-2e" transform="translate(537.636719 0.015625)"/>
     <use xlink:href="#DejaVuSans-31" transform="translate(569.423828 0.015625)"/>
     <use xlink:href="#DejaVuSans-20" transform="translate(633.046875 0.015625)"/>
     <use xlink:href="#DejaVuSans-6b" transform="translate(664.833984 0.015625)"/>
    </g>
    <!-- $Q_C$: 3.494$\pm$0.049 k -->
    <g transform="translate(409.216625 85.059663) scale(0.1 -0.1)">
     <defs>
      <path id="DejaVuSans-Oblique-43" d="M 4447 4306 
L 4319 3641 
Q 4019 3944 3683 4091 
Q 3347 4238 2956 4238 
Q 2422 4238 2017 3981 
Q 1613 3725 1319 3200 
Q 1131 2863 1032 2486 
Q 934 2109 934 1728 
Q 934 1091 1264 756 
Q 1594 422 2222 422 
Q 2656 422 3056 561 
Q 3456 700 3834 978 
L 3688 231 
Q 3316 72 2936 -9 
Q 2556 -91 2175 -91 
Q 1278 -91 773 396 
Q 269 884 269 1753 
Q 269 2309 461 2846 
Q 653 3384 1013 3828 
Q 1394 4300 1883 4525 
Q 2372 4750 3022 4750 
Q 3422 4750 3780 4639 
Q 4138 4528 4447 4306 
z
" transform="scale(0.015625)"/>
      <path id="DejaVuSans-33" d="M 2597 2516 
Q 3050 2419 3304 2112 
Q 3559 1806 3559 1356 
Q 3559 666 3084 287 
Q 2609 -91 1734 -91 
Q 1441 -91 1130 -33 
Q 819 25 488 141 
L 488 750 
Q 750 597 1062 519 
Q 1375 441 1716 441 
Q 2309 441 2620 675 
Q 2931 909 2931 1356 
Q 2931 1769 2642 2001 
Q 2353 2234 1838 2234 
L 1294 2234 
L 1294 2753 
L 1863 2753 
Q 2328 2753 2575 2939 
Q 2822 3125 2822 3475 
Q 2822 3834 2567 4026 
Q 2313 4219 1838 4219 
Q 1578 4219 1281 4162 
Q 984 4106 628 3988 
L 628 4550 
Q 988 4650 1302 4700 
Q 1616 4750 1894 4750 
Q 2613 4750 3031 4423 
Q 3450 4097 3450 3541 
Q 3450 3153 3228 2886 
Q 3006 2619 2597 2516 
z
" transform="scale(0.015625)"/>
      <path id="DejaVuSans-39" d="M 703 97 
L 703 672 
Q 941 559 1184 500 
Q 1428 441 1663 441 
Q 2288 441 2617 861 
Q 2947 1281 2994 2138 
Q 2813 1869 2534 1725 
Q 2256 1581 1919 1581 
Q 1219 1581 811 2004 
Q 403 2428 403 3163 
Q 403 3881 828 4315 
Q 1253 4750 1959 4750 
Q 2769 4750 3195 4129 
Q 3622 3509 3622 2328 
Q 3622 1225 3098 567 
Q 2575 -91 1691 -91 
Q 1453 -91 1209 -44 
Q 966 3 703 97 
z
M 1959 2075 
Q 2384 2075 2632 2365 
Q 2881 2656 2881 3163 
Q 2881 3666 2632 3958 
Q 2384 4250 1959 4250 
Q 1534 4250 1286 3958 
Q 1038 3666 1038 3163 
Q 1038 2656 1286 2365 
Q 1534 2075 1959 2075 
z
" transform="scale(0.015625)"/>
     </defs>
     <use xlink:href="#DejaVuSans-Oblique-51" transform="translate(0 0.015625)"/>
     <use xlink:href="#DejaVuSans-Oblique-43" transform="translate(78.710938 -16.390625) scale(0.7)"/>
     <use xlink:href="#DejaVuSans-3a" transform="translate(130.322266 0.015625)"/>
     <use xlink:href="#DejaVuSans-20" transform="translate(164.013672 0.015625)"/>
     <use xlink:href="#DejaVuSans-33" transform="translate(195.800781 0.015625)"/>
     <use xlink:href="#DejaVuSans-2e" transform="translate(259.423828 0.015625)"/>
     <use xlink:href="#DejaVuSans-34" transform="translate(291.210938 0.015625)"/>
     <use xlink:href="#DejaVuSans-39" transform="translate(354.833984 0.015625)"/>
     <use xlink:href="#DejaVuSans-34" transform="translate(418.457031 0.015625)"/>
     <use xlink:href="#DejaVuSans-b1" transform="translate(482.080078 0.015625)"/>
     <use xlink:href="#DejaVuSans-30" transform="translate(565.869141 0.015625)"/>
     <use xlink:href="#DejaVuSans-2e" transform="translate(629.492188 0.015625)"/>
     <use xlink:href="#DejaVuSans-30" transform="translate(661.279297 0.015625)"/>
     <use xlink:href="#DejaVuSans-34" transform="translate(724.902344 0.015625)"/>
     <use xlink:href="#DejaVuSans-39" transform="translate(788.525391 0.015625)"/>
     <use xlink:href="#DejaVuSans-20" transform="translate(852.148438 0.015625)"/>
     <use xlink:href="#DejaVuSans-6b" transform="translate(883.935547 0.015625)"/>
    </g>
    <!-- $f_{res}$: 6.008091$\pm$1.8e-05 GHz -->
    <g transform="translate(409.216625 96.257475) scale(0.1 -0.1)">
     <defs>
      <path id="DejaVuSans-Oblique-66" d="M 3059 4863 
L 2969 4384 
L 2419 4384 
Q 2106 4384 1964 4261 
Q 1822 4138 1753 3809 
L 1691 3500 
L 2638 3500 
L 2553 3053 
L 1606 3053 
L 1013 0 
L 434 0 
L 1031 3053 
L 481 3053 
L 563 3500 
L 1113 3500 
L 1159 3744 
Q 1278 4363 1576 4613 
Q 1875 4863 2516 4863 
L 3059 4863 
z
" transform="scale(0.015625)"/>
      <path id="DejaVuSans-Oblique-72" d="M 2853 2969 
Q 2766 3016 2653 3041 
Q 2541 3066 2413 3066 
Q 1953 3066 1609 2717 
Q 1266 2369 1153 1784 
L 800 0 
L 225 0 
L 909 3500 
L 1484 3500 
L 1375 2956 
Q 1603 3259 1920 3421 
Q 2238 3584 2597 3584 
Q 2691 3584 2781 3573 
Q 2872 3563 2963 3538 
L 2853 2969 
z
" transform="scale(0.015625)"/>
      <path id="DejaVuSans-Oblique-65" d="M 3078 2063 
Q 3088 2113 3092 2166 
Q 3097 2219 3097 2272 
Q 3097 2653 2873 2875 
Q 2650 3097 2266 3097 
Q 1838 3097 1509 2826 
Q 1181 2556 1013 2059 
L 3078 2063 
z
M 3578 1613 
L 903 1613 
Q 884 1494 878 1425 
Q 872 1356 872 1306 
Q 872 872 1139 634 
Q 1406 397 1894 397 
Q 2269 397 2603 481 
Q 2938 566 3225 728 
L 3116 159 
Q 2806 34 2476 -28 
Q 2147 -91 1806 -91 
Q 1078 -91 686 257 
Q 294 606 294 1247 
Q 294 1794 489 2264 
Q 684 2734 1063 3103 
Q 1306 3334 1642 3459 
Q 1978 3584 2356 3584 
Q 2950 3584 3301 3228 
Q 3653 2872 3653 2272 
Q 3653 2128 3634 1964 
Q 3616 1800 3578 1613 
z
" transform="scale(0.015625)"/>
      <path id="DejaVuSans-Oblique-73" d="M 3200 3397 
L 3091 2853 
Q 2863 2978 2609 3040 
Q 2356 3103 2088 3103 
Q 1634 3103 1373 2948 
Q 1113 2794 1113 2528 
Q 1113 2219 1719 2053 
Q 1766 2041 1788 2034 
L 1972 1978 
Q 2547 1819 2739 1644 
Q 2931 1469 2931 1166 
Q 2931 609 2489 259 
Q 2047 -91 1331 -91 
Q 1053 -91 747 -37 
Q 441 16 72 128 
L 184 722 
Q 500 559 806 475 
Q 1113 391 1394 391 
Q 1816 391 2080 572 
Q 2344 753 2344 1031 
Q 2344 1331 1650 1516 
L 1591 1531 
L 1394 1581 
Q 956 1697 753 1886 
Q 550 2075 550 2369 
Q 550 2928 970 3256 
Q 1391 3584 2113 3584 
Q 2397 3584 2667 3537 
Q 2938 3491 3200 3397 
z
" transform="scale(0.015625)"/>
      <path id="DejaVuSans-47" d="M 3809 666 
L 3809 1919 
L 2778 1919 
L 2778 2438 
L 4434 2438 
L 4434 434 
Q 4069 175 3628 42 
Q 3188 -91 2688 -91 
Q 1594 -91 976 548 
Q 359 1188 359 2328 
Q 359 3472 976 4111 
Q 1594 4750 2688 4750 
Q 3144 4750 3555 4637 
Q 3966 4525 4313 4306 
L 4313 3634 
Q 3963 3931 3569 4081 
Q 3175 4231 2741 4231 
Q 1884 4231 1454 3753 
Q 1025 3275 1025 2328 
Q 1025 1384 1454 906 
Q 1884 428 2741 428 
Q 3075 428 3337 486 
Q 3600 544 3809 666 
z
" transform="scale(0.015625)"/>
      <path id="DejaVuSans-48" d="M 628 4666 
L 1259 4666 
L 1259 2753 
L 3553 2753 
L 3553 4666 
L 4184 4666 
L 4184 0 
L 3553 0 
L 3553 2222 
L 1259 2222 
L 1259 0 
L 628 0 
L 628 4666 
z
" transform="scale(0.015625)"/>
      <path id="DejaVuSans-7a" d="M 353 3500 
L 3084 3500 
L 3084 2975 
L 922 459 
L 3084 459 
L 3084 0 
L 275 0 
L 275 525 
L 2438 3041 
L 353 3041 
L 353 3500 
z
" transform="scale(0.015625)"/>
     </defs>
     <use xlink:href="#DejaVuSans-Oblique-66" transform="translate(0 0.015625)"/>
     <use xlink:href="#DejaVuSans-Oblique-72" transform="translate(35.205078 -16.390625) scale(0.7)"/>
     <use xlink:href="#DejaVuSans-Oblique-65" transform="translate(63.984375 -16.390625) scale(0.7)"/>
     <use xlink:href="#DejaVuSans-Oblique-73" transform="translate(107.050781 -16.390625) scale(0.7)"/>
     <use xlink:href="#DejaVuSans-3a" transform="translate(146.254883 0.015625)"/>
     <use xlink:href="#DejaVuSans-20" transform="translate(179.946289 0.015625)"/>
     <use xlink:href="#DejaVuSans-36" transform="translate(211.733398 0.015625)"/>
     <use xlink:href="#DejaVuSans-2e" transform="translate(275.356445 0.015625)"/>
     <use xlink:href="#DejaVuSans-30" transform="translate(307.143555 0.015625)"/>
     <use xlink:href="#DejaVuSans-30" transform="translate(370.766602 0.015625)"/>
     <use xlink:href="#DejaVuSans-38" transform="translate(434.389648 0.015625)"/>
     <use xlink:href="#DejaVuSans-30" transform="translate(498.012695 0.015625)"/>
     <use xlink:href="#DejaVuSans-39" transform="translate(561.635742 0.015625)"/>
     <use xlink:href="#DejaVuSans-31" transform="translate(625.258789 0.015625)"/>
     <use xlink:href="#DejaVuSans-b1" transform="translate(688.881836 0.015625)"/>
     <use xlink:href="#DejaVuSans-31" transform="translate(772.670898 0.015625)"/>
     <use xlink:href="#DejaVuSans-2e" transform="translate(836.293945 0.015625)"/>
     <use xlink:href="#DejaVuSans-38" transform="translate(865.456055 0.015625)"/>
     <use xlink:href="#DejaVuSans-65" transform="translate(929.079102 0.015625)"/>
     <use xlink:href="#DejaVuSans-2d" transform="translate(990.602539 0.015625)"/>
     <use xlink:href="#DejaVuSans-30" transform="translate(1026.686523 0.015625)"/>
     <use xlink:href="#DejaVuSans-35" transform="translate(1090.30957 0.015625)"/>
     <use xlink:href="#DejaVuSans-20" transform="translate(1153.932617 0.015625)"/>
     <use xlink:href="#DejaVuSans-47" transform="translate(1185.719727 0.015625)"/>
     <use xlink:href="#DejaVuSans-48" transform="translate(1263.209961 0.015625)"/>
     <use xlink:href="#DejaVuSans-7a" transform="translate(1338.405273 0.015625)"/>
    </g>
   </g>
  </g>
  <g id="text_15">
   <!-- S21 resonator spectroscopy -->
   <g transform="translate(123.25625 16.318125) scale(0.12 -0.12)">
    <defs>
     <path id="DejaVuSans-73" d="M 2834 3397 
L 2834 2853 
Q 2591 2978 2328 3040 
Q 2066 3103 1784 3103 
Q 1356 3103 1142 2972 
Q 928 2841 928 2578 
Q 928 2378 1081 2264 
Q 1234 2150 1697 2047 
L 1894 2003 
Q 2506 1872 2764 1633 
Q 3022 1394 3022 966 
Q 3022 478 2636 193 
Q 2250 -91 1575 -91 
Q 1294 -91 989 -36 
Q 684 19 347 128 
L 347 722 
Q 666 556 975 473 
Q 1284 391 1588 391 
Q 1994 391 2212 530 
Q 2431 669 2431 922 
Q 2431 1156 2273 1281 
Q 2116 1406 1581 1522 
L 1381 1569 
Q 847 1681 609 1914 
Q 372 2147 372 2553 
Q 372 3047 722 3315 
Q 1072 3584 1716 3584 
Q 2034 3584 2315 3537 
Q 2597 3491 2834 3397 
z
" transform="scale(0.015625)"/>
     <path id="DejaVuSans-6f" d="M 1959 3097 
Q 1497 3097 1228 2736 
Q 959 2375 959 1747 
Q 959 1119 1226 758 
Q 1494 397 1959 397 
Q 2419 397 2687 759 
Q 2956 1122 2956 1747 
Q 2956 2369 2687 2733 
Q 2419 3097 1959 3097 
z
M 1959 3584 
Q 2709 3584 3137 3096 
Q 3566 2609 3566 1747 
Q 3566 888 3137 398 
Q 2709 -91 1959 -91 
Q 1206 -91 779 398 
Q 353 888 353 1747 
Q 353 2609 779 3096 
Q 1206 3584 1959 3584 
z
" transform="scale(0.015625)"/>
     <path id="DejaVuSans-6e" d="M 3513 2113 
L 3513 0 
L 2938 0 
L 2938 2094 
Q 2938 2591 2744 2837 
Q 2550 3084 2163 3084 
Q 1697 3084 1428 2787 
Q 1159 2491 1159 1978 
L 1159 0 
L 581 0 
L 581 3500 
L 1159 3500 
L 1159 2956 
Q 1366 3272 1645 3428 
Q 1925 3584 2291 3584 
Q 2894 3584 3203 3211 
Q 3513 2838 3513 2113 
z
" transform="scale(0.015625)"/>
     <path id="DejaVuSans-74" d="M 1172 4494 
L 1172 3500 
L 2356 3500 
L 2356 3053 
L 1172 3053 
L 1172 1153 
Q 1172 725 1289 603 
Q 1406 481 1766 481 
L 2356 481 
L 2356 0 
L 1766 0 
Q 1100 0 847 248 
Q 594 497 594 1153 
L 594 3053 
L 172 3053 
L 172 3500 
L 594 3500 
L 594 4494 
L 1172 4494 
z
" transform="scale(0.015625)"/>
     <path id="DejaVuSans-70" d="M 1159 525 
L 1159 -1331 
L 581 -1331 
L 581 3500 
L 1159 3500 
L 1159 2969 
Q 1341 3281 1617 3432 
Q 1894 3584 2278 3584 
Q 2916 3584 3314 3078 
Q 3713 2572 3713 1747 
Q 3713 922 3314 415 
Q 2916 -91 2278 -91 
Q 1894 -91 1617 61 
Q 1341 213 1159 525 
z
M 3116 1747 
Q 3116 2381 2855 2742 
Q 2594 3103 2138 3103 
Q 1681 3103 1420 2742 
Q 1159 2381 1159 1747 
Q 1159 1113 1420 752 
Q 1681 391 2138 391 
Q 2594 391 2855 752 
Q 3116 1113 3116 1747 
z
" transform="scale(0.015625)"/>
     <path id="DejaVuSans-63" d="M 3122 3366 
L 3122 2828 
Q 2878 2963 2633 3030 
Q 2388 3097 2138 3097 
Q 1578 3097 1268 2742 
Q 959 2388 959 1747 
Q 959 1106 1268 751 
Q 1578 397 2138 397 
Q 2388 397 2633 464 
Q 2878 531 3122 666 
L 3122 134 
Q 2881 22 2623 -34 
Q 2366 -91 2075 -91 
Q 1284 -91 818 406 
Q 353 903 353 1747 
Q 353 2603 823 3093 
Q 1294 3584 2113 3584 
Q 2378 3584 2631 3529 
Q 2884 3475 3122 3366 
z
" transform="scale(0.015625)"/>
    </defs>
    <use xlink:href="#DejaVuSans-53"/>
    <use xlink:href="#DejaVuSans-32" x="63.476562"/>
    <use xlink:href="#DejaVuSans-31" x="127.099609"/>
    <use xlink:href="#DejaVuSans-20" x="190.722656"/>
    <use xlink:href="#DejaVuSans-72" x="222.509766"/>
    <use xlink:href="#DejaVuSans-65" x="261.373047"/>
    <use xlink:href="#DejaVuSans-73" x="322.896484"/>
    <use xlink:href="#DejaVuSans-6f" x="374.996094"/>
    <use xlink:href="#DejaVuSans-6e" x="436.177734"/>
    <use xlink:href="#DejaVuSans-61" x="499.556641"/>
    <use xlink:href="#DejaVuSans-74" x="560.835938"/>
    <use xlink:href="#DejaVuSans-6f" x="600.044922"/>
    <use xlink:href="#DejaVuSans-72" x="661.226562"/>
    <use xlink:href="#DejaVuSans-20" x="702.339844"/>
    <use xlink:href="#DejaVuSans-73" x="734.126953"/>
    <use xlink:href="#DejaVuSans-70" x="786.226562"/>
    <use xlink:href="#DejaVuSans-65" x="849.703125"/>
    <use xlink:href="#DejaVuSans-63" x="911.226562"/>
    <use xlink:href="#DejaVuSans-74" x="966.207031"/>
    <use xlink:href="#DejaVuSans-72" x="1005.416016"/>
    <use xlink:href="#DejaVuSans-6f" x="1044.279297"/>
    <use xlink:href="#DejaVuSans-73" x="1105.460938"/>
    <use xlink:href="#DejaVuSans-63" x="1157.560547"/>
    <use xlink:href="#DejaVuSans-6f" x="1212.541016"/>
    <use xlink:href="#DejaVuSans-70" x="1273.722656"/>
    <use xlink:href="#DejaVuSans-79" x="1337.199219"/>
   </g>
   <!-- tuid: 20231227-131824-607-1c96b9 -->
   <g transform="translate(97.712188 29.7555) scale(0.12 -0.12)">
    <defs>
     <path id="DejaVuSans-69" d="M 603 3500 
L 1178 3500 
L 1178 0 
L 603 0 
L 603 3500 
z
M 603 4863 
L 1178 4863 
L 1178 4134 
L 603 4134 
L 603 4863 
z
" transform="scale(0.015625)"/>
     <path id="DejaVuSans-64" d="M 2906 2969 
L 2906 4863 
L 3481 4863 
L 3481 0 
L 2906 0 
L 2906 525 
Q 2725 213 2448 61 
Q 2172 -91 1784 -91 
Q 1150 -91 751 415 
Q 353 922 353 1747 
Q 353 2572 751 3078 
Q 1150 3584 1784 3584 
Q 2172 3584 2448 3432 
Q 2725 3281 2906 2969 
z
M 947 1747 
Q 947 1113 1208 752 
Q 1469 391 1925 391 
Q 2381 391 2643 752 
Q 2906 1113 2906 1747 
Q 2906 2381 2643 2742 
Q 2381 3103 1925 3103 
Q 1469 3103 1208 2742 
Q 947 2381 947 1747 
z
" transform="scale(0.015625)"/>
     <path id="DejaVuSans-37" d="M 525 4666 
L 3525 4666 
L 3525 4397 
L 1831 0 
L 1172 0 
L 2766 4134 
L 525 4134 
L 525 4666 
z
" transform="scale(0.015625)"/>
     <path id="DejaVuSans-62" d="M 3116 1747 
Q 3116 2381 2855 2742 
Q 2594 3103 2138 3103 
Q 1681 3103 1420 2742 
Q 1159 2381 1159 1747 
Q 1159 1113 1420 752 
Q 1681 391 2138 391 
Q 2594 391 2855 752 
Q 3116 1113 3116 1747 
z
M 1159 2969 
Q 1341 3281 1617 3432 
Q 1894 3584 2278 3584 
Q 2916 3584 3314 3078 
Q 3713 2572 3713 1747 
Q 3713 922 3314 415 
Q 2916 -91 2278 -91 
Q 1894 -91 1617 61 
Q 1341 213 1159 525 
L 1159 0 
L 581 0 
L 581 4863 
L 1159 4863 
L 1159 2969 
z
" transform="scale(0.015625)"/>
    </defs>
    <use xlink:href="#DejaVuSans-74"/>
    <use xlink:href="#DejaVuSans-75" x="39.208984"/>
    <use xlink:href="#DejaVuSans-69" x="102.587891"/>
    <use xlink:href="#DejaVuSans-64" x="130.371094"/>
    <use xlink:href="#DejaVuSans-3a" x="193.847656"/>
    <use xlink:href="#DejaVuSans-20" x="227.539062"/>
    <use xlink:href="#DejaVuSans-32" x="259.326172"/>
    <use xlink:href="#DejaVuSans-30" x="322.949219"/>
    <use xlink:href="#DejaVuSans-32" x="386.572266"/>
    <use xlink:href="#DejaVuSans-33" x="450.195312"/>
    <use xlink:href="#DejaVuSans-31" x="513.818359"/>
    <use xlink:href="#DejaVuSans-32" x="577.441406"/>
    <use xlink:href="#DejaVuSans-32" x="641.064453"/>
    <use xlink:href="#DejaVuSans-37" x="704.6875"/>
    <use xlink:href="#DejaVuSans-2d" x="768.310547"/>
    <use xlink:href="#DejaVuSans-31" x="804.394531"/>
    <use xlink:href="#DejaVuSans-33" x="868.017578"/>
    <use xlink:href="#DejaVuSans-31" x="931.640625"/>
    <use xlink:href="#DejaVuSans-38" x="995.263672"/>
    <use xlink:href="#DejaVuSans-32" x="1058.886719"/>
    <use xlink:href="#DejaVuSans-34" x="1122.509766"/>
    <use xlink:href="#DejaVuSans-2d" x="1186.132812"/>
    <use xlink:href="#DejaVuSans-36" x="1222.216797"/>
    <use xlink:href="#DejaVuSans-30" x="1285.839844"/>
    <use xlink:href="#DejaVuSans-37" x="1349.462891"/>
    <use xlink:href="#DejaVuSans-2d" x="1413.085938"/>
    <use xlink:href="#DejaVuSans-31" x="1449.169922"/>
    <use xlink:href="#DejaVuSans-63" x="1512.792969"/>
    <use xlink:href="#DejaVuSans-39" x="1567.773438"/>
    <use xlink:href="#DejaVuSans-36" x="1631.396484"/>
    <use xlink:href="#DejaVuSans-62" x="1695.019531"/>
    <use xlink:href="#DejaVuSans-39" x="1758.496094"/>
   </g>
  </g>
 </g>
 <defs>
  <clipPath id="p7e5bd027c3">
   <rect x="34.240625" y="41.76" width="357.12" height="266.112"/>
  </clipPath>
 </defs>
</svg>
