<?xml version="1.0" encoding="utf-8" standalone="no"?>
<!DOCTYPE svg PUBLIC "-//W3C//DTD SVG 1.1//EN"
  "http://www.w3.org/Graphics/SVG/1.1/DTD/svg11.dtd">
<svg xmlns:xlink="http://www.w3.org/1999/xlink" width="559.424437pt" height="345.42825pt" viewBox="0 0 559.424437 345.42825" xmlns="http://www.w3.org/2000/svg" version="1.1">
 <metadata>
  <rdf:RDF xmlns:dc="http://purl.org/dc/elements/1.1/" xmlns:cc="http://creativecommons.org/ns#" xmlns:rdf="http://www.w3.org/1999/02/22-rdf-syntax-ns#">
   <cc:Work>
    <dc:type rdf:resource="http://purl.org/dc/dcmitype/StillImage"/>
    <dc:date>2023-12-25T16:27:43.976086</dc:date>
    <dc:format>image/svg+xml</dc:format>
    <dc:creator>
     <cc:Agent>
      <dc:title>Matplotlib v3.8.2, https://matplotlib.org/</dc:title>
     </cc:Agent>
    </dc:creator>
   </cc:Work>
  </rdf:RDF>
 </metadata>
 <defs>
  <style type="text/css">*{stroke-linejoin: round; stroke-linecap: butt}</style>
 </defs>
 <g id="figure_1">
  <g id="patch_1">
   <path d="M 0 345.42825 
L 559.424437 345.42825 
L 559.424437 -0 
L 0 -0 
L 0 345.42825 
z
" style="fill: none; opacity: 0"/>
  </g>
  <g id="axes_1">
   <g id="patch_2">
    <path d="M 37.848438 307.872 
L 394.968438 307.872 
L 394.968438 41.76 
L 37.848438 41.76 
z
" style="fill: #ffffff"/>
   </g>
   <g id="matplotlib.axis_1">
    <g id="xtick_1">
     <g id="line2d_1">
      <defs>
       <path id="m88d21e7775" d="M 0 0 
L 0 3.5 
" style="stroke: #000000; stroke-width: 0.8"/>
      </defs>
      <g>
       <use xlink:href="#m88d21e7775" x="46.645804" y="307.872" style="stroke: #000000; stroke-width: 0.8"/>
      </g>
     </g>
     <g id="text_1">
      <!-- -8 -->
      <g transform="translate(41.660647 322.470438) scale(0.1 -0.1)">
       <defs>
        <path id="DejaVuSans-2d" d="M 313 2009 
L 1997 2009 
L 1997 1497 
L 313 1497 
L 313 2009 
z
" transform="scale(0.015625)"/>
        <path id="DejaVuSans-38" d="M 2034 2216 
Q 1584 2216 1326 1975 
Q 1069 1734 1069 1313 
Q 1069 891 1326 650 
Q 1584 409 2034 409 
Q 2484 409 2743 651 
Q 3003 894 3003 1313 
Q 3003 1734 2745 1975 
Q 2488 2216 2034 2216 
z
M 1403 2484 
Q 997 2584 770 2862 
Q 544 3141 544 3541 
Q 544 4100 942 4425 
Q 1341 4750 2034 4750 
Q 2731 4750 3128 4425 
Q 3525 4100 3525 3541 
Q 3525 3141 3298 2862 
Q 3072 2584 2669 2484 
Q 3125 2378 3379 2068 
Q 3634 1759 3634 1313 
Q 3634 634 3220 271 
Q 2806 -91 2034 -91 
Q 1263 -91 848 271 
Q 434 634 434 1313 
Q 434 1759 690 2068 
Q 947 2378 1403 2484 
z
M 1172 3481 
Q 1172 3119 1398 2916 
Q 1625 2713 2034 2713 
Q 2441 2713 2670 2916 
Q 2900 3119 2900 3481 
Q 2900 3844 2670 4047 
Q 2441 4250 2034 4250 
Q 1625 4250 1398 4047 
Q 1172 3844 1172 3481 
z
" transform="scale(0.015625)"/>
       </defs>
       <use xlink:href="#DejaVuSans-2d"/>
       <use xlink:href="#DejaVuSans-38" x="36.083984"/>
      </g>
     </g>
    </g>
    <g id="xtick_2">
     <g id="line2d_2">
      <g>
       <use xlink:href="#m88d21e7775" x="93.696872" y="307.872" style="stroke: #000000; stroke-width: 0.8"/>
      </g>
     </g>
     <g id="text_2">
      <!-- -7 -->
      <g transform="translate(88.711715 322.470438) scale(0.1 -0.1)">
       <defs>
        <path id="DejaVuSans-37" d="M 525 4666 
L 3525 4666 
L 3525 4397 
L 1831 0 
L 1172 0 
L 2766 4134 
L 525 4134 
L 525 4666 
z
" transform="scale(0.015625)"/>
       </defs>
       <use xlink:href="#DejaVuSans-2d"/>
       <use xlink:href="#DejaVuSans-37" x="36.083984"/>
      </g>
     </g>
    </g>
    <g id="xtick_3">
     <g id="line2d_3">
      <g>
       <use xlink:href="#m88d21e7775" x="140.74794" y="307.872" style="stroke: #000000; stroke-width: 0.8"/>
      </g>
     </g>
     <g id="text_3">
      <!-- -6 -->
      <g transform="translate(135.762783 322.470438) scale(0.1 -0.1)">
       <defs>
        <path id="DejaVuSans-36" d="M 2113 2584 
Q 1688 2584 1439 2293 
Q 1191 2003 1191 1497 
Q 1191 994 1439 701 
Q 1688 409 2113 409 
Q 2538 409 2786 701 
Q 3034 994 3034 1497 
Q 3034 2003 2786 2293 
Q 2538 2584 2113 2584 
z
M 3366 4563 
L 3366 3988 
Q 3128 4100 2886 4159 
Q 2644 4219 2406 4219 
Q 1781 4219 1451 3797 
Q 1122 3375 1075 2522 
Q 1259 2794 1537 2939 
Q 1816 3084 2150 3084 
Q 2853 3084 3261 2657 
Q 3669 2231 3669 1497 
Q 3669 778 3244 343 
Q 2819 -91 2113 -91 
Q 1303 -91 875 529 
Q 447 1150 447 2328 
Q 447 3434 972 4092 
Q 1497 4750 2381 4750 
Q 2619 4750 2861 4703 
Q 3103 4656 3366 4563 
z
" transform="scale(0.015625)"/>
       </defs>
       <use xlink:href="#DejaVuSans-2d"/>
       <use xlink:href="#DejaVuSans-36" x="36.083984"/>
      </g>
     </g>
    </g>
    <g id="xtick_4">
     <g id="line2d_4">
      <g>
       <use xlink:href="#m88d21e7775" x="187.799008" y="307.872" style="stroke: #000000; stroke-width: 0.8"/>
      </g>
     </g>
     <g id="text_4">
      <!-- -5 -->
      <g transform="translate(182.813851 322.470438) scale(0.1 -0.1)">
       <defs>
        <path id="DejaVuSans-35" d="M 691 4666 
L 3169 4666 
L 3169 4134 
L 1269 4134 
L 1269 2991 
Q 1406 3038 1543 3061 
Q 1681 3084 1819 3084 
Q 2600 3084 3056 2656 
Q 3513 2228 3513 1497 
Q 3513 744 3044 326 
Q 2575 -91 1722 -91 
Q 1428 -91 1123 -41 
Q 819 9 494 109 
L 494 744 
Q 775 591 1075 516 
Q 1375 441 1709 441 
Q 2250 441 2565 725 
Q 2881 1009 2881 1497 
Q 2881 1984 2565 2268 
Q 2250 2553 1709 2553 
Q 1456 2553 1204 2497 
Q 953 2441 691 2322 
L 691 4666 
z
" transform="scale(0.015625)"/>
       </defs>
       <use xlink:href="#DejaVuSans-2d"/>
       <use xlink:href="#DejaVuSans-35" x="36.083984"/>
      </g>
     </g>
    </g>
    <g id="xtick_5">
     <g id="line2d_5">
      <g>
       <use xlink:href="#m88d21e7775" x="234.850076" y="307.872" style="stroke: #000000; stroke-width: 0.8"/>
      </g>
     </g>
     <g id="text_5">
      <!-- -4 -->
      <g transform="translate(229.864919 322.470438) scale(0.1 -0.1)">
       <defs>
        <path id="DejaVuSans-34" d="M 2419 4116 
L 825 1625 
L 2419 1625 
L 2419 4116 
z
M 2253 4666 
L 3047 4666 
L 3047 1625 
L 3713 1625 
L 3713 1100 
L 3047 1100 
L 3047 0 
L 2419 0 
L 2419 1100 
L 313 1100 
L 313 1709 
L 2253 4666 
z
" transform="scale(0.015625)"/>
       </defs>
       <use xlink:href="#DejaVuSans-2d"/>
       <use xlink:href="#DejaVuSans-34" x="36.083984"/>
      </g>
     </g>
    </g>
    <g id="xtick_6">
     <g id="line2d_6">
      <g>
       <use xlink:href="#m88d21e7775" x="281.901144" y="307.872" style="stroke: #000000; stroke-width: 0.8"/>
      </g>
     </g>
     <g id="text_6">
      <!-- -3 -->
      <g transform="translate(276.915987 322.470438) scale(0.1 -0.1)">
       <defs>
        <path id="DejaVuSans-33" d="M 2597 2516 
Q 3050 2419 3304 2112 
Q 3559 1806 3559 1356 
Q 3559 666 3084 287 
Q 2609 -91 1734 -91 
Q 1441 -91 1130 -33 
Q 819 25 488 141 
L 488 750 
Q 750 597 1062 519 
Q 1375 441 1716 441 
Q 2309 441 2620 675 
Q 2931 909 2931 1356 
Q 2931 1769 2642 2001 
Q 2353 2234 1838 2234 
L 1294 2234 
L 1294 2753 
L 1863 2753 
Q 2328 2753 2575 2939 
Q 2822 3125 2822 3475 
Q 2822 3834 2567 4026 
Q 2313 4219 1838 4219 
Q 1578 4219 1281 4162 
Q 984 4106 628 3988 
L 628 4550 
Q 988 4650 1302 4700 
Q 1616 4750 1894 4750 
Q 2613 4750 3031 4423 
Q 3450 4097 3450 3541 
Q 3450 3153 3228 2886 
Q 3006 2619 2597 2516 
z
" transform="scale(0.015625)"/>
       </defs>
       <use xlink:href="#DejaVuSans-2d"/>
       <use xlink:href="#DejaVuSans-33" x="36.083984"/>
      </g>
     </g>
    </g>
    <g id="xtick_7">
     <g id="line2d_7">
      <g>
       <use xlink:href="#m88d21e7775" x="328.952212" y="307.872" style="stroke: #000000; stroke-width: 0.8"/>
      </g>
     </g>
     <g id="text_7">
      <!-- -2 -->
      <g transform="translate(323.967055 322.470438) scale(0.1 -0.1)">
       <defs>
        <path id="DejaVuSans-32" d="M 1228 531 
L 3431 531 
L 3431 0 
L 469 0 
L 469 531 
Q 828 903 1448 1529 
Q 2069 2156 2228 2338 
Q 2531 2678 2651 2914 
Q 2772 3150 2772 3378 
Q 2772 3750 2511 3984 
Q 2250 4219 1831 4219 
Q 1534 4219 1204 4116 
Q 875 4013 500 3803 
L 500 4441 
Q 881 4594 1212 4672 
Q 1544 4750 1819 4750 
Q 2544 4750 2975 4387 
Q 3406 4025 3406 3419 
Q 3406 3131 3298 2873 
Q 3191 2616 2906 2266 
Q 2828 2175 2409 1742 
Q 1991 1309 1228 531 
z
" transform="scale(0.015625)"/>
       </defs>
       <use xlink:href="#DejaVuSans-2d"/>
       <use xlink:href="#DejaVuSans-32" x="36.083984"/>
      </g>
     </g>
    </g>
    <g id="xtick_8">
     <g id="line2d_8">
      <g>
       <use xlink:href="#m88d21e7775" x="376.00328" y="307.872" style="stroke: #000000; stroke-width: 0.8"/>
      </g>
     </g>
     <g id="text_8">
      <!-- -1 -->
      <g transform="translate(371.018123 322.470438) scale(0.1 -0.1)">
       <defs>
        <path id="DejaVuSans-31" d="M 794 531 
L 1825 531 
L 1825 4091 
L 703 3866 
L 703 4441 
L 1819 4666 
L 2450 4666 
L 2450 531 
L 3481 531 
L 3481 0 
L 794 0 
L 794 531 
z
" transform="scale(0.015625)"/>
       </defs>
       <use xlink:href="#DejaVuSans-2d"/>
       <use xlink:href="#DejaVuSans-31" x="36.083984"/>
      </g>
     </g>
    </g>
    <g id="text_9">
     <!-- Re$(S_{21})$ [mV] -->
     <g transform="translate(184.408438 336.148562) scale(0.1 -0.1)">
      <defs>
       <path id="DejaVuSans-52" d="M 2841 2188 
Q 3044 2119 3236 1894 
Q 3428 1669 3622 1275 
L 4263 0 
L 3584 0 
L 2988 1197 
Q 2756 1666 2539 1819 
Q 2322 1972 1947 1972 
L 1259 1972 
L 1259 0 
L 628 0 
L 628 4666 
L 2053 4666 
Q 2853 4666 3247 4331 
Q 3641 3997 3641 3322 
Q 3641 2881 3436 2590 
Q 3231 2300 2841 2188 
z
M 1259 4147 
L 1259 2491 
L 2053 2491 
Q 2509 2491 2742 2702 
Q 2975 2913 2975 3322 
Q 2975 3731 2742 3939 
Q 2509 4147 2053 4147 
L 1259 4147 
z
" transform="scale(0.015625)"/>
       <path id="DejaVuSans-65" d="M 3597 1894 
L 3597 1613 
L 953 1613 
Q 991 1019 1311 708 
Q 1631 397 2203 397 
Q 2534 397 2845 478 
Q 3156 559 3463 722 
L 3463 178 
Q 3153 47 2828 -22 
Q 2503 -91 2169 -91 
Q 1331 -91 842 396 
Q 353 884 353 1716 
Q 353 2575 817 3079 
Q 1281 3584 2069 3584 
Q 2775 3584 3186 3129 
Q 3597 2675 3597 1894 
z
M 3022 2063 
Q 3016 2534 2758 2815 
Q 2500 3097 2075 3097 
Q 1594 3097 1305 2825 
Q 1016 2553 972 2059 
L 3022 2063 
z
" transform="scale(0.015625)"/>
       <path id="DejaVuSans-28" d="M 1984 4856 
Q 1566 4138 1362 3434 
Q 1159 2731 1159 2009 
Q 1159 1288 1364 580 
Q 1569 -128 1984 -844 
L 1484 -844 
Q 1016 -109 783 600 
Q 550 1309 550 2009 
Q 550 2706 781 3412 
Q 1013 4119 1484 4856 
L 1984 4856 
z
" transform="scale(0.015625)"/>
       <path id="DejaVuSans-Oblique-53" d="M 3859 4513 
L 3738 3897 
Q 3422 4066 3111 4152 
Q 2800 4238 2509 4238 
Q 1944 4238 1609 3991 
Q 1275 3744 1275 3334 
Q 1275 3109 1398 2989 
Q 1522 2869 2034 2731 
L 2413 2638 
Q 3053 2472 3303 2217 
Q 3553 1963 3553 1503 
Q 3553 797 2998 353 
Q 2444 -91 1538 -91 
Q 1166 -91 791 -17 
Q 416 56 38 206 
L 166 856 
Q 513 641 861 531 
Q 1209 422 1556 422 
Q 2147 422 2503 684 
Q 2859 947 2859 1369 
Q 2859 1650 2717 1795 
Q 2575 1941 2106 2059 
L 1728 2156 
Q 1081 2325 845 2545 
Q 609 2766 609 3163 
Q 609 3859 1145 4304 
Q 1681 4750 2541 4750 
Q 2875 4750 3203 4690 
Q 3531 4631 3859 4513 
z
" transform="scale(0.015625)"/>
       <path id="DejaVuSans-29" d="M 513 4856 
L 1013 4856 
Q 1481 4119 1714 3412 
Q 1947 2706 1947 2009 
Q 1947 1309 1714 600 
Q 1481 -109 1013 -844 
L 513 -844 
Q 928 -128 1133 580 
Q 1338 1288 1338 2009 
Q 1338 2731 1133 3434 
Q 928 4138 513 4856 
z
" transform="scale(0.015625)"/>
       <path id="DejaVuSans-20" transform="scale(0.015625)"/>
       <path id="DejaVuSans-5b" d="M 550 4863 
L 1875 4863 
L 1875 4416 
L 1125 4416 
L 1125 -397 
L 1875 -397 
L 1875 -844 
L 550 -844 
L 550 4863 
z
" transform="scale(0.015625)"/>
       <path id="DejaVuSans-6d" d="M 3328 2828 
Q 3544 3216 3844 3400 
Q 4144 3584 4550 3584 
Q 5097 3584 5394 3201 
Q 5691 2819 5691 2113 
L 5691 0 
L 5113 0 
L 5113 2094 
Q 5113 2597 4934 2840 
Q 4756 3084 4391 3084 
Q 3944 3084 3684 2787 
Q 3425 2491 3425 1978 
L 3425 0 
L 2847 0 
L 2847 2094 
Q 2847 2600 2669 2842 
Q 2491 3084 2119 3084 
Q 1678 3084 1418 2786 
Q 1159 2488 1159 1978 
L 1159 0 
L 581 0 
L 581 3500 
L 1159 3500 
L 1159 2956 
Q 1356 3278 1631 3431 
Q 1906 3584 2284 3584 
Q 2666 3584 2933 3390 
Q 3200 3197 3328 2828 
z
" transform="scale(0.015625)"/>
       <path id="DejaVuSans-56" d="M 1831 0 
L 50 4666 
L 709 4666 
L 2188 738 
L 3669 4666 
L 4325 4666 
L 2547 0 
L 1831 0 
z
" transform="scale(0.015625)"/>
       <path id="DejaVuSans-5d" d="M 1947 4863 
L 1947 -844 
L 622 -844 
L 622 -397 
L 1369 -397 
L 1369 4416 
L 622 4416 
L 622 4863 
L 1947 4863 
z
" transform="scale(0.015625)"/>
      </defs>
      <use xlink:href="#DejaVuSans-52" transform="translate(0 0.015625)"/>
      <use xlink:href="#DejaVuSans-65" transform="translate(69.482422 0.015625)"/>
      <use xlink:href="#DejaVuSans-28" transform="translate(131.005859 0.015625)"/>
      <use xlink:href="#DejaVuSans-Oblique-53" transform="translate(170.019531 0.015625)"/>
      <use xlink:href="#DejaVuSans-32" transform="translate(233.496094 -16.390625) scale(0.7)"/>
      <use xlink:href="#DejaVuSans-31" transform="translate(278.032227 -16.390625) scale(0.7)"/>
      <use xlink:href="#DejaVuSans-29" transform="translate(325.302734 0.015625)"/>
      <use xlink:href="#DejaVuSans-20" transform="translate(364.316406 0.015625)"/>
      <use xlink:href="#DejaVuSans-5b" transform="translate(396.103516 0.015625)"/>
      <use xlink:href="#DejaVuSans-6d" transform="translate(435.117188 0.015625)"/>
      <use xlink:href="#DejaVuSans-56" transform="translate(532.529297 0.015625)"/>
      <use xlink:href="#DejaVuSans-5d" transform="translate(600.9375 0.015625)"/>
     </g>
    </g>
   </g>
   <g id="matplotlib.axis_2">
    <g id="ytick_1">
     <g id="line2d_9">
      <defs>
       <path id="m0e423a75dd" d="M 0 0 
L -3.5 0 
" style="stroke: #000000; stroke-width: 0.8"/>
      </defs>
      <g>
       <use xlink:href="#m0e423a75dd" x="37.848438" y="280.965236" style="stroke: #000000; stroke-width: 0.8"/>
      </g>
     </g>
     <g id="text_10">
      <!-- -4 -->
      <g transform="translate(20.878125 284.764455) scale(0.1 -0.1)">
       <use xlink:href="#DejaVuSans-2d"/>
       <use xlink:href="#DejaVuSans-34" x="36.083984"/>
      </g>
     </g>
    </g>
    <g id="ytick_2">
     <g id="line2d_10">
      <g>
       <use xlink:href="#m0e423a75dd" x="37.848438" y="224.731103" style="stroke: #000000; stroke-width: 0.8"/>
      </g>
     </g>
     <g id="text_11">
      <!-- -2 -->
      <g transform="translate(20.878125 228.530322) scale(0.1 -0.1)">
       <use xlink:href="#DejaVuSans-2d"/>
       <use xlink:href="#DejaVuSans-32" x="36.083984"/>
      </g>
     </g>
    </g>
    <g id="ytick_3">
     <g id="line2d_11">
      <g>
       <use xlink:href="#m0e423a75dd" x="37.848438" y="168.49697" style="stroke: #000000; stroke-width: 0.8"/>
      </g>
     </g>
     <g id="text_12">
      <!-- 0 -->
      <g transform="translate(24.485938 172.296189) scale(0.1 -0.1)">
       <defs>
        <path id="DejaVuSans-30" d="M 2034 4250 
Q 1547 4250 1301 3770 
Q 1056 3291 1056 2328 
Q 1056 1369 1301 889 
Q 1547 409 2034 409 
Q 2525 409 2770 889 
Q 3016 1369 3016 2328 
Q 3016 3291 2770 3770 
Q 2525 4250 2034 4250 
z
M 2034 4750 
Q 2819 4750 3233 4129 
Q 3647 3509 3647 2328 
Q 3647 1150 3233 529 
Q 2819 -91 2034 -91 
Q 1250 -91 836 529 
Q 422 1150 422 2328 
Q 422 3509 836 4129 
Q 1250 4750 2034 4750 
z
" transform="scale(0.015625)"/>
       </defs>
       <use xlink:href="#DejaVuSans-30"/>
      </g>
     </g>
    </g>
    <g id="ytick_4">
     <g id="line2d_12">
      <g>
       <use xlink:href="#m0e423a75dd" x="37.848438" y="112.262837" style="stroke: #000000; stroke-width: 0.8"/>
      </g>
     </g>
     <g id="text_13">
      <!-- 2 -->
      <g transform="translate(24.485938 116.062055) scale(0.1 -0.1)">
       <use xlink:href="#DejaVuSans-32"/>
      </g>
     </g>
    </g>
    <g id="ytick_5">
     <g id="line2d_13">
      <g>
       <use xlink:href="#m0e423a75dd" x="37.848438" y="56.028704" style="stroke: #000000; stroke-width: 0.8"/>
      </g>
     </g>
     <g id="text_14">
      <!-- 4 -->
      <g transform="translate(24.485938 59.827922) scale(0.1 -0.1)">
       <use xlink:href="#DejaVuSans-34"/>
      </g>
     </g>
    </g>
    <g id="text_15">
     <!-- Im$(S_{21})$ [mV] -->
     <g transform="translate(14.798438 206.466) rotate(-90) scale(0.1 -0.1)">
      <defs>
       <path id="DejaVuSans-49" d="M 628 4666 
L 1259 4666 
L 1259 0 
L 628 0 
L 628 4666 
z
" transform="scale(0.015625)"/>
      </defs>
      <use xlink:href="#DejaVuSans-49" transform="translate(0 0.015625)"/>
      <use xlink:href="#DejaVuSans-6d" transform="translate(25.867188 0.015625)"/>
      <use xlink:href="#DejaVuSans-28" transform="translate(123.279297 0.015625)"/>
      <use xlink:href="#DejaVuSans-Oblique-53" transform="translate(162.292969 0.015625)"/>
      <use xlink:href="#DejaVuSans-32" transform="translate(225.769531 -16.390625) scale(0.7)"/>
      <use xlink:href="#DejaVuSans-31" transform="translate(270.305664 -16.390625) scale(0.7)"/>
      <use xlink:href="#DejaVuSans-29" transform="translate(317.576172 0.015625)"/>
      <use xlink:href="#DejaVuSans-20" transform="translate(356.589844 0.015625)"/>
      <use xlink:href="#DejaVuSans-5b" transform="translate(388.376953 0.015625)"/>
      <use xlink:href="#DejaVuSans-6d" transform="translate(427.390625 0.015625)"/>
      <use xlink:href="#DejaVuSans-56" transform="translate(524.802734 0.015625)"/>
      <use xlink:href="#DejaVuSans-5d" transform="translate(593.210938 0.015625)"/>
     </g>
    </g>
   </g>
   <g id="line2d_14">
    <path d="M 97.211132 293.528527 
L 92.407341 295.776 
L 91.735402 291.271989 
L 99.448324 291.10194 
L 93.240178 288.912157 
L 94.788984 286.595762 
L 90.714238 285.220875 
L 87.355921 283.747579 
L 83.056021 281.191388 
L 85.566637 281.462745 
L 83.553322 276.975094 
L 83.799011 274.245344 
L 78.525194 272.223596 
L 79.578793 274.236859 
L 81.65616 267.814971 
L 78.338247 265.294859 
L 73.467594 263.611651 
L 75.326396 262.984538 
L 75.670615 263.058375 
L 73.417946 256.437442 
L 72.214993 257.225599 
L 72.332832 252.576233 
L 63.023498 251.080441 
L 69.022018 251.227535 
L 65.866585 250.06772 
L 69.459097 245.635226 
L 65.380317 245.459958 
L 61.236053 238.319691 
L 65.826897 238.638452 
L 64.776057 236.9912 
L 66.015581 237.365576 
L 66.465788 230.26499 
L 58.788877 232.103809 
L 61.220474 230.71888 
L 60.821397 226.974394 
L 60.183119 224.137505 
L 60.276031 220.452511 
L 61.040984 216.619323 
L 56.801714 218.088803 
L 56.758808 209.200403 
L 62.295577 211.44574 
L 55.451093 209.073516 
L 54.081165 206.796465 
L 57.984848 204.316156 
L 58.027192 196.994272 
L 58.6787 195.128012 
L 59.128141 191.323974 
L 54.988883 191.0586 
L 60.052051 189.329606 
L 57.124071 185.922683 
L 61.139974 182.166568 
L 63.222501 180.695439 
L 58.069996 175.677498 
L 60.618972 172.590801 
L 62.036149 168.320695 
L 61.434442 167.898488 
L 58.436077 165.965686 
L 63.476106 161.718716 
L 63.666067 156.226128 
L 67.729116 153.922919 
L 70.275436 151.118752 
L 74.890338 149.648569 
L 78.116259 145.911318 
L 73.626755 142.997631 
L 82.084046 136.167426 
L 81.937859 135.041614 
L 82.891344 129.379771 
L 87.032236 126.356137 
L 97.379385 125.362615 
L 92.081153 121.392497 
L 99.552575 120.641152 
L 105.013952 114.449659 
L 112.287394 106.660363 
L 116.125084 100.546583 
L 127.355586 103.511459 
L 144.576282 95.889373 
L 151.685097 89.661739 
L 160.923891 87.262502 
L 173.336506 82.42285 
L 181.615328 83.678419 
L 196.206854 78.661637 
L 211.653743 80.038752 
L 220.86521 77.380733 
L 242.495625 76.762594 
L 256.297629 81.75047 
L 272.118822 81.023178 
L 305.865392 87.917392 
L 322.867625 100.719257 
L 340.689107 105.270794 
L 345.041414 114.815518 
L 360.13489 122.369261 
L 362.488593 140.529684 
L 376.551966 150.427996 
L 377.136663 164.771531 
L 373.813028 174.282526 
L 371.853551 189.055776 
L 366.0051 199.120688 
L 354.917056 207.836719 
L 345.594595 218.588051 
L 332.399048 226.191854 
L 320.248569 234.209529 
L 302.911873 242.235141 
L 299.161885 247.015668 
L 276.465613 250.029504 
L 258.376018 251.38278 
L 245.169386 252.758246 
L 229.191586 253.840196 
L 218.538477 251.841523 
L 209.518657 250.013021 
L 193.170997 248.737184 
L 186.333154 247.770859 
L 175.027055 242.306292 
L 167.585462 242.007219 
L 160.024703 239.462108 
L 153.717771 236.947307 
L 145.634631 232.268943 
L 137.584692 231.096918 
L 127.748585 228.584162 
L 128.345592 223.849299 
L 120.532402 220.388655 
L 118.878579 215.864376 
L 114.068659 209.925895 
L 110.731386 210.619519 
L 108.979032 206.226462 
L 101.641895 203.947 
L 106.492985 202.305243 
L 97.2404 199.972578 
L 93.412619 194.882936 
L 95.430582 194.171943 
L 94.600146 191.731621 
L 97.558875 185.840818 
L 95.289861 182.486611 
L 91.778716 182.002838 
L 90.899194 180.503902 
L 84.314751 179.069524 
L 91.499776 175.731525 
L 84.713369 172.983277 
L 88.95034 166.610656 
L 85.872189 162.620575 
L 87.698352 161.295381 
L 88.366614 160.335802 
L 88.669203 159.020803 
L 81.724146 158.086375 
L 83.706712 156.117738 
L 87.311534 152.143224 
L 85.365949 149.861107 
L 86.240058 146.591664 
L 85.014937 145.177127 
L 90.368231 142.981789 
L 93.498687 141.854603 
L 85.636768 136.515764 
L 87.215812 136.553217 
L 88.046249 135.506401 
L 87.341926 131.505942 
L 94.733717 127.226403 
L 88.725083 132.533467 
L 93.723739 128.156771 
L 90.176125 123.863252 
L 93.87626 124.410179 
L 91.728762 118.257481 
L 92.834614 119.916027 
L 94.859217 116.57351 
L 90.545934 110.54477 
L 92.895755 113.209748 
L 98.227494 109.247444 
L 100.295974 106.936238 
L 100.605817 108.414478 
L 99.608047 106.594492 
L 98.708297 104.331635 
L 104.864905 101.901599 
L 99.289061 100.338777 
L 106.93931 100.413591 
L 105.346729 95.003265 
L 107.644143 96.15313 
L 105.869417 93.487083 
L 112.058511 90.763773 
L 106.487162 89.836153 
L 111.185322 89.421211 
L 111.833356 88.347381 
L 109.874593 86.571716 
L 113.020219 82.955797 
L 116.515886 80.355041 
L 115.790161 79.826184 
L 119.734043 77.79653 
L 122.766172 78.305698 
L 118.541409 76.847787 
L 118.847165 77.561679 
L 123.543742 73.366386 
L 128.652217 72.60042 
L 128.332924 69.822534 
L 128.600117 68.582654 
L 132.572756 69.392666 
L 134.221982 68.753435 
L 133.868825 64.053308 
L 133.864841 64.809934 
L 130.992026 62.910647 
L 139.767486 63.611139 
L 141.088736 58.024232 
L 141.088736 58.024232 
" clip-path="url(#p85c14a7674)" style="fill: none; stroke: #1f77b4; stroke-width: 1.5; stroke-linecap: square"/>
    <defs>
     <path id="m6a7fafb61f" d="M 0 1.5 
C 0.397805 1.5 0.77937 1.341951 1.06066 1.06066 
C 1.341951 0.77937 1.5 0.397805 1.5 0 
C 1.5 -0.397805 1.341951 -0.77937 1.06066 -1.06066 
C 0.77937 -1.341951 0.397805 -1.5 0 -1.5 
C -0.397805 -1.5 -0.77937 -1.341951 -1.06066 -1.06066 
C -1.341951 -0.77937 -1.5 -0.397805 -1.5 0 
C -1.5 0.397805 -1.341951 0.77937 -1.06066 1.06066 
C -0.77937 1.341951 -0.397805 1.5 0 1.5 
z
" style="stroke: #1f77b4"/>
    </defs>
    <g clip-path="url(#p85c14a7674)">
     <use xlink:href="#m6a7fafb61f" x="97.211132" y="293.528527" style="fill: #1f77b4; stroke: #1f77b4"/>
     <use xlink:href="#m6a7fafb61f" x="92.407341" y="295.776" style="fill: #1f77b4; stroke: #1f77b4"/>
     <use xlink:href="#m6a7fafb61f" x="91.735402" y="291.271989" style="fill: #1f77b4; stroke: #1f77b4"/>
     <use xlink:href="#m6a7fafb61f" x="99.448324" y="291.10194" style="fill: #1f77b4; stroke: #1f77b4"/>
     <use xlink:href="#m6a7fafb61f" x="93.240178" y="288.912157" style="fill: #1f77b4; stroke: #1f77b4"/>
     <use xlink:href="#m6a7fafb61f" x="94.788984" y="286.595762" style="fill: #1f77b4; stroke: #1f77b4"/>
     <use xlink:href="#m6a7fafb61f" x="90.714238" y="285.220875" style="fill: #1f77b4; stroke: #1f77b4"/>
     <use xlink:href="#m6a7fafb61f" x="87.355921" y="283.747579" style="fill: #1f77b4; stroke: #1f77b4"/>
     <use xlink:href="#m6a7fafb61f" x="83.056021" y="281.191388" style="fill: #1f77b4; stroke: #1f77b4"/>
     <use xlink:href="#m6a7fafb61f" x="85.566637" y="281.462745" style="fill: #1f77b4; stroke: #1f77b4"/>
     <use xlink:href="#m6a7fafb61f" x="83.553322" y="276.975094" style="fill: #1f77b4; stroke: #1f77b4"/>
     <use xlink:href="#m6a7fafb61f" x="83.799011" y="274.245344" style="fill: #1f77b4; stroke: #1f77b4"/>
     <use xlink:href="#m6a7fafb61f" x="78.525194" y="272.223596" style="fill: #1f77b4; stroke: #1f77b4"/>
     <use xlink:href="#m6a7fafb61f" x="79.578793" y="274.236859" style="fill: #1f77b4; stroke: #1f77b4"/>
     <use xlink:href="#m6a7fafb61f" x="81.65616" y="267.814971" style="fill: #1f77b4; stroke: #1f77b4"/>
     <use xlink:href="#m6a7fafb61f" x="78.338247" y="265.294859" style="fill: #1f77b4; stroke: #1f77b4"/>
     <use xlink:href="#m6a7fafb61f" x="73.467594" y="263.611651" style="fill: #1f77b4; stroke: #1f77b4"/>
     <use xlink:href="#m6a7fafb61f" x="75.326396" y="262.984538" style="fill: #1f77b4; stroke: #1f77b4"/>
     <use xlink:href="#m6a7fafb61f" x="75.670615" y="263.058375" style="fill: #1f77b4; stroke: #1f77b4"/>
     <use xlink:href="#m6a7fafb61f" x="73.417946" y="256.437442" style="fill: #1f77b4; stroke: #1f77b4"/>
     <use xlink:href="#m6a7fafb61f" x="72.214993" y="257.225599" style="fill: #1f77b4; stroke: #1f77b4"/>
     <use xlink:href="#m6a7fafb61f" x="72.332832" y="252.576233" style="fill: #1f77b4; stroke: #1f77b4"/>
     <use xlink:href="#m6a7fafb61f" x="63.023498" y="251.080441" style="fill: #1f77b4; stroke: #1f77b4"/>
     <use xlink:href="#m6a7fafb61f" x="69.022018" y="251.227535" style="fill: #1f77b4; stroke: #1f77b4"/>
     <use xlink:href="#m6a7fafb61f" x="65.866585" y="250.06772" style="fill: #1f77b4; stroke: #1f77b4"/>
     <use xlink:href="#m6a7fafb61f" x="69.459097" y="245.635226" style="fill: #1f77b4; stroke: #1f77b4"/>
     <use xlink:href="#m6a7fafb61f" x="65.380317" y="245.459958" style="fill: #1f77b4; stroke: #1f77b4"/>
     <use xlink:href="#m6a7fafb61f" x="61.236053" y="238.319691" style="fill: #1f77b4; stroke: #1f77b4"/>
     <use xlink:href="#m6a7fafb61f" x="65.826897" y="238.638452" style="fill: #1f77b4; stroke: #1f77b4"/>
     <use xlink:href="#m6a7fafb61f" x="64.776057" y="236.9912" style="fill: #1f77b4; stroke: #1f77b4"/>
     <use xlink:href="#m6a7fafb61f" x="66.015581" y="237.365576" style="fill: #1f77b4; stroke: #1f77b4"/>
     <use xlink:href="#m6a7fafb61f" x="66.465788" y="230.26499" style="fill: #1f77b4; stroke: #1f77b4"/>
     <use xlink:href="#m6a7fafb61f" x="58.788877" y="232.103809" style="fill: #1f77b4; stroke: #1f77b4"/>
     <use xlink:href="#m6a7fafb61f" x="61.220474" y="230.71888" style="fill: #1f77b4; stroke: #1f77b4"/>
     <use xlink:href="#m6a7fafb61f" x="60.821397" y="226.974394" style="fill: #1f77b4; stroke: #1f77b4"/>
     <use xlink:href="#m6a7fafb61f" x="60.183119" y="224.137505" style="fill: #1f77b4; stroke: #1f77b4"/>
     <use xlink:href="#m6a7fafb61f" x="60.276031" y="220.452511" style="fill: #1f77b4; stroke: #1f77b4"/>
     <use xlink:href="#m6a7fafb61f" x="61.040984" y="216.619323" style="fill: #1f77b4; stroke: #1f77b4"/>
     <use xlink:href="#m6a7fafb61f" x="56.801714" y="218.088803" style="fill: #1f77b4; stroke: #1f77b4"/>
     <use xlink:href="#m6a7fafb61f" x="56.758808" y="209.200403" style="fill: #1f77b4; stroke: #1f77b4"/>
     <use xlink:href="#m6a7fafb61f" x="62.295577" y="211.44574" style="fill: #1f77b4; stroke: #1f77b4"/>
     <use xlink:href="#m6a7fafb61f" x="55.451093" y="209.073516" style="fill: #1f77b4; stroke: #1f77b4"/>
     <use xlink:href="#m6a7fafb61f" x="54.081165" y="206.796465" style="fill: #1f77b4; stroke: #1f77b4"/>
     <use xlink:href="#m6a7fafb61f" x="57.984848" y="204.316156" style="fill: #1f77b4; stroke: #1f77b4"/>
     <use xlink:href="#m6a7fafb61f" x="58.027192" y="196.994272" style="fill: #1f77b4; stroke: #1f77b4"/>
     <use xlink:href="#m6a7fafb61f" x="58.6787" y="195.128012" style="fill: #1f77b4; stroke: #1f77b4"/>
     <use xlink:href="#m6a7fafb61f" x="59.128141" y="191.323974" style="fill: #1f77b4; stroke: #1f77b4"/>
     <use xlink:href="#m6a7fafb61f" x="54.988883" y="191.0586" style="fill: #1f77b4; stroke: #1f77b4"/>
     <use xlink:href="#m6a7fafb61f" x="60.052051" y="189.329606" style="fill: #1f77b4; stroke: #1f77b4"/>
     <use xlink:href="#m6a7fafb61f" x="57.124071" y="185.922683" style="fill: #1f77b4; stroke: #1f77b4"/>
     <use xlink:href="#m6a7fafb61f" x="61.139974" y="182.166568" style="fill: #1f77b4; stroke: #1f77b4"/>
     <use xlink:href="#m6a7fafb61f" x="63.222501" y="180.695439" style="fill: #1f77b4; stroke: #1f77b4"/>
     <use xlink:href="#m6a7fafb61f" x="58.069996" y="175.677498" style="fill: #1f77b4; stroke: #1f77b4"/>
     <use xlink:href="#m6a7fafb61f" x="60.618972" y="172.590801" style="fill: #1f77b4; stroke: #1f77b4"/>
     <use xlink:href="#m6a7fafb61f" x="62.036149" y="168.320695" style="fill: #1f77b4; stroke: #1f77b4"/>
     <use xlink:href="#m6a7fafb61f" x="61.434442" y="167.898488" style="fill: #1f77b4; stroke: #1f77b4"/>
     <use xlink:href="#m6a7fafb61f" x="58.436077" y="165.965686" style="fill: #1f77b4; stroke: #1f77b4"/>
     <use xlink:href="#m6a7fafb61f" x="63.476106" y="161.718716" style="fill: #1f77b4; stroke: #1f77b4"/>
     <use xlink:href="#m6a7fafb61f" x="63.666067" y="156.226128" style="fill: #1f77b4; stroke: #1f77b4"/>
     <use xlink:href="#m6a7fafb61f" x="67.729116" y="153.922919" style="fill: #1f77b4; stroke: #1f77b4"/>
     <use xlink:href="#m6a7fafb61f" x="70.275436" y="151.118752" style="fill: #1f77b4; stroke: #1f77b4"/>
     <use xlink:href="#m6a7fafb61f" x="74.890338" y="149.648569" style="fill: #1f77b4; stroke: #1f77b4"/>
     <use xlink:href="#m6a7fafb61f" x="78.116259" y="145.911318" style="fill: #1f77b4; stroke: #1f77b4"/>
     <use xlink:href="#m6a7fafb61f" x="73.626755" y="142.997631" style="fill: #1f77b4; stroke: #1f77b4"/>
     <use xlink:href="#m6a7fafb61f" x="82.084046" y="136.167426" style="fill: #1f77b4; stroke: #1f77b4"/>
     <use xlink:href="#m6a7fafb61f" x="81.937859" y="135.041614" style="fill: #1f77b4; stroke: #1f77b4"/>
     <use xlink:href="#m6a7fafb61f" x="82.891344" y="129.379771" style="fill: #1f77b4; stroke: #1f77b4"/>
     <use xlink:href="#m6a7fafb61f" x="87.032236" y="126.356137" style="fill: #1f77b4; stroke: #1f77b4"/>
     <use xlink:href="#m6a7fafb61f" x="97.379385" y="125.362615" style="fill: #1f77b4; stroke: #1f77b4"/>
     <use xlink:href="#m6a7fafb61f" x="92.081153" y="121.392497" style="fill: #1f77b4; stroke: #1f77b4"/>
     <use xlink:href="#m6a7fafb61f" x="99.552575" y="120.641152" style="fill: #1f77b4; stroke: #1f77b4"/>
     <use xlink:href="#m6a7fafb61f" x="105.013952" y="114.449659" style="fill: #1f77b4; stroke: #1f77b4"/>
     <use xlink:href="#m6a7fafb61f" x="112.287394" y="106.660363" style="fill: #1f77b4; stroke: #1f77b4"/>
     <use xlink:href="#m6a7fafb61f" x="116.125084" y="100.546583" style="fill: #1f77b4; stroke: #1f77b4"/>
     <use xlink:href="#m6a7fafb61f" x="127.355586" y="103.511459" style="fill: #1f77b4; stroke: #1f77b4"/>
     <use xlink:href="#m6a7fafb61f" x="137.95159" y="98.889259" style="fill: #1f77b4; stroke: #1f77b4"/>
     <use xlink:href="#m6a7fafb61f" x="144.576282" y="95.889373" style="fill: #1f77b4; stroke: #1f77b4"/>
     <use xlink:href="#m6a7fafb61f" x="151.685097" y="89.661739" style="fill: #1f77b4; stroke: #1f77b4"/>
     <use xlink:href="#m6a7fafb61f" x="160.923891" y="87.262502" style="fill: #1f77b4; stroke: #1f77b4"/>
     <use xlink:href="#m6a7fafb61f" x="173.336506" y="82.42285" style="fill: #1f77b4; stroke: #1f77b4"/>
     <use xlink:href="#m6a7fafb61f" x="181.615328" y="83.678419" style="fill: #1f77b4; stroke: #1f77b4"/>
     <use xlink:href="#m6a7fafb61f" x="196.206854" y="78.661637" style="fill: #1f77b4; stroke: #1f77b4"/>
     <use xlink:href="#m6a7fafb61f" x="211.653743" y="80.038752" style="fill: #1f77b4; stroke: #1f77b4"/>
     <use xlink:href="#m6a7fafb61f" x="220.86521" y="77.380733" style="fill: #1f77b4; stroke: #1f77b4"/>
     <use xlink:href="#m6a7fafb61f" x="242.495625" y="76.762594" style="fill: #1f77b4; stroke: #1f77b4"/>
     <use xlink:href="#m6a7fafb61f" x="256.297629" y="81.75047" style="fill: #1f77b4; stroke: #1f77b4"/>
     <use xlink:href="#m6a7fafb61f" x="272.118822" y="81.023178" style="fill: #1f77b4; stroke: #1f77b4"/>
     <use xlink:href="#m6a7fafb61f" x="288.23336" y="84.35724" style="fill: #1f77b4; stroke: #1f77b4"/>
     <use xlink:href="#m6a7fafb61f" x="305.865392" y="87.917392" style="fill: #1f77b4; stroke: #1f77b4"/>
     <use xlink:href="#m6a7fafb61f" x="322.867625" y="100.719257" style="fill: #1f77b4; stroke: #1f77b4"/>
     <use xlink:href="#m6a7fafb61f" x="340.689107" y="105.270794" style="fill: #1f77b4; stroke: #1f77b4"/>
     <use xlink:href="#m6a7fafb61f" x="345.041414" y="114.815518" style="fill: #1f77b4; stroke: #1f77b4"/>
     <use xlink:href="#m6a7fafb61f" x="360.13489" y="122.369261" style="fill: #1f77b4; stroke: #1f77b4"/>
     <use xlink:href="#m6a7fafb61f" x="362.488593" y="140.529684" style="fill: #1f77b4; stroke: #1f77b4"/>
     <use xlink:href="#m6a7fafb61f" x="376.551966" y="150.427996" style="fill: #1f77b4; stroke: #1f77b4"/>
     <use xlink:href="#m6a7fafb61f" x="377.136663" y="164.771531" style="fill: #1f77b4; stroke: #1f77b4"/>
     <use xlink:href="#m6a7fafb61f" x="373.813028" y="174.282526" style="fill: #1f77b4; stroke: #1f77b4"/>
     <use xlink:href="#m6a7fafb61f" x="371.853551" y="189.055776" style="fill: #1f77b4; stroke: #1f77b4"/>
     <use xlink:href="#m6a7fafb61f" x="366.0051" y="199.120688" style="fill: #1f77b4; stroke: #1f77b4"/>
     <use xlink:href="#m6a7fafb61f" x="354.917056" y="207.836719" style="fill: #1f77b4; stroke: #1f77b4"/>
     <use xlink:href="#m6a7fafb61f" x="345.594595" y="218.588051" style="fill: #1f77b4; stroke: #1f77b4"/>
     <use xlink:href="#m6a7fafb61f" x="332.399048" y="226.191854" style="fill: #1f77b4; stroke: #1f77b4"/>
     <use xlink:href="#m6a7fafb61f" x="320.248569" y="234.209529" style="fill: #1f77b4; stroke: #1f77b4"/>
     <use xlink:href="#m6a7fafb61f" x="302.911873" y="242.235141" style="fill: #1f77b4; stroke: #1f77b4"/>
     <use xlink:href="#m6a7fafb61f" x="299.161885" y="247.015668" style="fill: #1f77b4; stroke: #1f77b4"/>
     <use xlink:href="#m6a7fafb61f" x="276.465613" y="250.029504" style="fill: #1f77b4; stroke: #1f77b4"/>
     <use xlink:href="#m6a7fafb61f" x="258.376018" y="251.38278" style="fill: #1f77b4; stroke: #1f77b4"/>
     <use xlink:href="#m6a7fafb61f" x="245.169386" y="252.758246" style="fill: #1f77b4; stroke: #1f77b4"/>
     <use xlink:href="#m6a7fafb61f" x="229.191586" y="253.840196" style="fill: #1f77b4; stroke: #1f77b4"/>
     <use xlink:href="#m6a7fafb61f" x="218.538477" y="251.841523" style="fill: #1f77b4; stroke: #1f77b4"/>
     <use xlink:href="#m6a7fafb61f" x="209.518657" y="250.013021" style="fill: #1f77b4; stroke: #1f77b4"/>
     <use xlink:href="#m6a7fafb61f" x="193.170997" y="248.737184" style="fill: #1f77b4; stroke: #1f77b4"/>
     <use xlink:href="#m6a7fafb61f" x="186.333154" y="247.770859" style="fill: #1f77b4; stroke: #1f77b4"/>
     <use xlink:href="#m6a7fafb61f" x="175.027055" y="242.306292" style="fill: #1f77b4; stroke: #1f77b4"/>
     <use xlink:href="#m6a7fafb61f" x="167.585462" y="242.007219" style="fill: #1f77b4; stroke: #1f77b4"/>
     <use xlink:href="#m6a7fafb61f" x="160.024703" y="239.462108" style="fill: #1f77b4; stroke: #1f77b4"/>
     <use xlink:href="#m6a7fafb61f" x="153.717771" y="236.947307" style="fill: #1f77b4; stroke: #1f77b4"/>
     <use xlink:href="#m6a7fafb61f" x="145.634631" y="232.268943" style="fill: #1f77b4; stroke: #1f77b4"/>
     <use xlink:href="#m6a7fafb61f" x="137.584692" y="231.096918" style="fill: #1f77b4; stroke: #1f77b4"/>
     <use xlink:href="#m6a7fafb61f" x="127.748585" y="228.584162" style="fill: #1f77b4; stroke: #1f77b4"/>
     <use xlink:href="#m6a7fafb61f" x="128.345592" y="223.849299" style="fill: #1f77b4; stroke: #1f77b4"/>
     <use xlink:href="#m6a7fafb61f" x="120.532402" y="220.388655" style="fill: #1f77b4; stroke: #1f77b4"/>
     <use xlink:href="#m6a7fafb61f" x="118.878579" y="215.864376" style="fill: #1f77b4; stroke: #1f77b4"/>
     <use xlink:href="#m6a7fafb61f" x="114.068659" y="209.925895" style="fill: #1f77b4; stroke: #1f77b4"/>
     <use xlink:href="#m6a7fafb61f" x="110.731386" y="210.619519" style="fill: #1f77b4; stroke: #1f77b4"/>
     <use xlink:href="#m6a7fafb61f" x="108.979032" y="206.226462" style="fill: #1f77b4; stroke: #1f77b4"/>
     <use xlink:href="#m6a7fafb61f" x="101.641895" y="203.947" style="fill: #1f77b4; stroke: #1f77b4"/>
     <use xlink:href="#m6a7fafb61f" x="106.492985" y="202.305243" style="fill: #1f77b4; stroke: #1f77b4"/>
     <use xlink:href="#m6a7fafb61f" x="97.2404" y="199.972578" style="fill: #1f77b4; stroke: #1f77b4"/>
     <use xlink:href="#m6a7fafb61f" x="93.412619" y="194.882936" style="fill: #1f77b4; stroke: #1f77b4"/>
     <use xlink:href="#m6a7fafb61f" x="95.430582" y="194.171943" style="fill: #1f77b4; stroke: #1f77b4"/>
     <use xlink:href="#m6a7fafb61f" x="94.600146" y="191.731621" style="fill: #1f77b4; stroke: #1f77b4"/>
     <use xlink:href="#m6a7fafb61f" x="97.558875" y="185.840818" style="fill: #1f77b4; stroke: #1f77b4"/>
     <use xlink:href="#m6a7fafb61f" x="95.289861" y="182.486611" style="fill: #1f77b4; stroke: #1f77b4"/>
     <use xlink:href="#m6a7fafb61f" x="91.778716" y="182.002838" style="fill: #1f77b4; stroke: #1f77b4"/>
     <use xlink:href="#m6a7fafb61f" x="90.899194" y="180.503902" style="fill: #1f77b4; stroke: #1f77b4"/>
     <use xlink:href="#m6a7fafb61f" x="84.314751" y="179.069524" style="fill: #1f77b4; stroke: #1f77b4"/>
     <use xlink:href="#m6a7fafb61f" x="91.499776" y="175.731525" style="fill: #1f77b4; stroke: #1f77b4"/>
     <use xlink:href="#m6a7fafb61f" x="84.713369" y="172.983277" style="fill: #1f77b4; stroke: #1f77b4"/>
     <use xlink:href="#m6a7fafb61f" x="88.95034" y="166.610656" style="fill: #1f77b4; stroke: #1f77b4"/>
     <use xlink:href="#m6a7fafb61f" x="85.872189" y="162.620575" style="fill: #1f77b4; stroke: #1f77b4"/>
     <use xlink:href="#m6a7fafb61f" x="87.698352" y="161.295381" style="fill: #1f77b4; stroke: #1f77b4"/>
     <use xlink:href="#m6a7fafb61f" x="88.366614" y="160.335802" style="fill: #1f77b4; stroke: #1f77b4"/>
     <use xlink:href="#m6a7fafb61f" x="88.669203" y="159.020803" style="fill: #1f77b4; stroke: #1f77b4"/>
     <use xlink:href="#m6a7fafb61f" x="81.724146" y="158.086375" style="fill: #1f77b4; stroke: #1f77b4"/>
     <use xlink:href="#m6a7fafb61f" x="83.706712" y="156.117738" style="fill: #1f77b4; stroke: #1f77b4"/>
     <use xlink:href="#m6a7fafb61f" x="87.311534" y="152.143224" style="fill: #1f77b4; stroke: #1f77b4"/>
     <use xlink:href="#m6a7fafb61f" x="85.365949" y="149.861107" style="fill: #1f77b4; stroke: #1f77b4"/>
     <use xlink:href="#m6a7fafb61f" x="86.240058" y="146.591664" style="fill: #1f77b4; stroke: #1f77b4"/>
     <use xlink:href="#m6a7fafb61f" x="85.014937" y="145.177127" style="fill: #1f77b4; stroke: #1f77b4"/>
     <use xlink:href="#m6a7fafb61f" x="90.368231" y="142.981789" style="fill: #1f77b4; stroke: #1f77b4"/>
     <use xlink:href="#m6a7fafb61f" x="93.498687" y="141.854603" style="fill: #1f77b4; stroke: #1f77b4"/>
     <use xlink:href="#m6a7fafb61f" x="85.636768" y="136.515764" style="fill: #1f77b4; stroke: #1f77b4"/>
     <use xlink:href="#m6a7fafb61f" x="87.215812" y="136.553217" style="fill: #1f77b4; stroke: #1f77b4"/>
     <use xlink:href="#m6a7fafb61f" x="88.046249" y="135.506401" style="fill: #1f77b4; stroke: #1f77b4"/>
     <use xlink:href="#m6a7fafb61f" x="87.341926" y="131.505942" style="fill: #1f77b4; stroke: #1f77b4"/>
     <use xlink:href="#m6a7fafb61f" x="94.733717" y="127.226403" style="fill: #1f77b4; stroke: #1f77b4"/>
     <use xlink:href="#m6a7fafb61f" x="88.725083" y="132.533467" style="fill: #1f77b4; stroke: #1f77b4"/>
     <use xlink:href="#m6a7fafb61f" x="93.723739" y="128.156771" style="fill: #1f77b4; stroke: #1f77b4"/>
     <use xlink:href="#m6a7fafb61f" x="90.176125" y="123.863252" style="fill: #1f77b4; stroke: #1f77b4"/>
     <use xlink:href="#m6a7fafb61f" x="93.87626" y="124.410179" style="fill: #1f77b4; stroke: #1f77b4"/>
     <use xlink:href="#m6a7fafb61f" x="91.728762" y="118.257481" style="fill: #1f77b4; stroke: #1f77b4"/>
     <use xlink:href="#m6a7fafb61f" x="92.834614" y="119.916027" style="fill: #1f77b4; stroke: #1f77b4"/>
     <use xlink:href="#m6a7fafb61f" x="94.859217" y="116.57351" style="fill: #1f77b4; stroke: #1f77b4"/>
     <use xlink:href="#m6a7fafb61f" x="90.545934" y="110.54477" style="fill: #1f77b4; stroke: #1f77b4"/>
     <use xlink:href="#m6a7fafb61f" x="92.895755" y="113.209748" style="fill: #1f77b4; stroke: #1f77b4"/>
     <use xlink:href="#m6a7fafb61f" x="98.227494" y="109.247444" style="fill: #1f77b4; stroke: #1f77b4"/>
     <use xlink:href="#m6a7fafb61f" x="100.295974" y="106.936238" style="fill: #1f77b4; stroke: #1f77b4"/>
     <use xlink:href="#m6a7fafb61f" x="100.605817" y="108.414478" style="fill: #1f77b4; stroke: #1f77b4"/>
     <use xlink:href="#m6a7fafb61f" x="99.608047" y="106.594492" style="fill: #1f77b4; stroke: #1f77b4"/>
     <use xlink:href="#m6a7fafb61f" x="98.708297" y="104.331635" style="fill: #1f77b4; stroke: #1f77b4"/>
     <use xlink:href="#m6a7fafb61f" x="104.864905" y="101.901599" style="fill: #1f77b4; stroke: #1f77b4"/>
     <use xlink:href="#m6a7fafb61f" x="99.289061" y="100.338777" style="fill: #1f77b4; stroke: #1f77b4"/>
     <use xlink:href="#m6a7fafb61f" x="106.93931" y="100.413591" style="fill: #1f77b4; stroke: #1f77b4"/>
     <use xlink:href="#m6a7fafb61f" x="105.346729" y="95.003265" style="fill: #1f77b4; stroke: #1f77b4"/>
     <use xlink:href="#m6a7fafb61f" x="107.644143" y="96.15313" style="fill: #1f77b4; stroke: #1f77b4"/>
     <use xlink:href="#m6a7fafb61f" x="105.869417" y="93.487083" style="fill: #1f77b4; stroke: #1f77b4"/>
     <use xlink:href="#m6a7fafb61f" x="112.058511" y="90.763773" style="fill: #1f77b4; stroke: #1f77b4"/>
     <use xlink:href="#m6a7fafb61f" x="106.487162" y="89.836153" style="fill: #1f77b4; stroke: #1f77b4"/>
     <use xlink:href="#m6a7fafb61f" x="111.185322" y="89.421211" style="fill: #1f77b4; stroke: #1f77b4"/>
     <use xlink:href="#m6a7fafb61f" x="111.833356" y="88.347381" style="fill: #1f77b4; stroke: #1f77b4"/>
     <use xlink:href="#m6a7fafb61f" x="109.874593" y="86.571716" style="fill: #1f77b4; stroke: #1f77b4"/>
     <use xlink:href="#m6a7fafb61f" x="113.020219" y="82.955797" style="fill: #1f77b4; stroke: #1f77b4"/>
     <use xlink:href="#m6a7fafb61f" x="116.515886" y="80.355041" style="fill: #1f77b4; stroke: #1f77b4"/>
     <use xlink:href="#m6a7fafb61f" x="115.790161" y="79.826184" style="fill: #1f77b4; stroke: #1f77b4"/>
     <use xlink:href="#m6a7fafb61f" x="119.734043" y="77.79653" style="fill: #1f77b4; stroke: #1f77b4"/>
     <use xlink:href="#m6a7fafb61f" x="122.766172" y="78.305698" style="fill: #1f77b4; stroke: #1f77b4"/>
     <use xlink:href="#m6a7fafb61f" x="118.541409" y="76.847787" style="fill: #1f77b4; stroke: #1f77b4"/>
     <use xlink:href="#m6a7fafb61f" x="118.847165" y="77.561679" style="fill: #1f77b4; stroke: #1f77b4"/>
     <use xlink:href="#m6a7fafb61f" x="123.543742" y="73.366386" style="fill: #1f77b4; stroke: #1f77b4"/>
     <use xlink:href="#m6a7fafb61f" x="128.652217" y="72.60042" style="fill: #1f77b4; stroke: #1f77b4"/>
     <use xlink:href="#m6a7fafb61f" x="128.332924" y="69.822534" style="fill: #1f77b4; stroke: #1f77b4"/>
     <use xlink:href="#m6a7fafb61f" x="128.600117" y="68.582654" style="fill: #1f77b4; stroke: #1f77b4"/>
     <use xlink:href="#m6a7fafb61f" x="132.572756" y="69.392666" style="fill: #1f77b4; stroke: #1f77b4"/>
     <use xlink:href="#m6a7fafb61f" x="134.221982" y="68.753435" style="fill: #1f77b4; stroke: #1f77b4"/>
     <use xlink:href="#m6a7fafb61f" x="133.868825" y="64.053308" style="fill: #1f77b4; stroke: #1f77b4"/>
     <use xlink:href="#m6a7fafb61f" x="133.864841" y="64.809934" style="fill: #1f77b4; stroke: #1f77b4"/>
     <use xlink:href="#m6a7fafb61f" x="130.992026" y="62.910647" style="fill: #1f77b4; stroke: #1f77b4"/>
     <use xlink:href="#m6a7fafb61f" x="139.767486" y="63.611139" style="fill: #1f77b4; stroke: #1f77b4"/>
     <use xlink:href="#m6a7fafb61f" x="141.088736" y="58.024232" style="fill: #1f77b4; stroke: #1f77b4"/>
    </g>
   </g>
   <g id="line2d_15">
    <path d="M 112.579313 289.282819 
L 107.260439 284.171331 
L 102.443175 279.240439 
L 97.797631 274.169707 
L 93.332696 268.952907 
L 89.33734 263.945727 
L 85.517733 258.79816 
L 82.137984 253.885695 
L 78.929643 248.838134 
L 75.904774 243.647179 
L 73.287677 238.720063 
L 70.852162 233.654181 
L 68.792343 228.880343 
L 66.912242 223.973446 
L 65.228482 218.924105 
L 63.884681 214.20136 
L 62.736877 209.343418 
L 61.888398 204.847658 
L 61.232976 200.226739 
L 60.791248 195.472191 
L 60.597497 191.126334 
L 60.611547 186.660725 
L 60.856468 182.068018 
L 61.281185 177.939073 
L 61.923994 173.701543 
L 62.808807 169.349958 
L 63.96315 164.878843 
L 65.191049 160.94728 
L 66.663064 156.920828 
L 68.405087 152.796662 
L 70.446484 148.572467 
L 72.820588 144.246669 
L 75.08031 140.563811 
L 77.621847 136.810468 
L 80.4725 132.988005 
L 83.662567 129.098956 
L 87.225614 125.147344 
L 91.198745 121.13907 
L 94.699856 117.897118 
L 98.512275 114.629702 
L 102.660435 111.343825 
L 107.170444 108.048195 
L 112.070044 104.753536 
L 117.388505 101.472941 
L 123.156423 98.222279 
L 129.405417 95.020642 
L 134.427216 92.665159 
L 139.751288 90.361178 
L 145.390974 88.121361 
L 151.359127 85.959994 
L 157.667801 83.893126 
L 164.327872 81.9387 
L 171.348583 80.116673 
L 178.737008 78.449116 
L 186.497428 76.960278 
L 194.630619 75.676615 
L 203.133037 74.626742 
L 211.995935 73.841322 
L 221.204388 73.352849 
L 227.524739 73.208903 
L 233.98047 73.222359 
L 240.561284 73.403678 
L 247.254997 73.763351 
L 254.047421 74.311779 
L 260.922265 75.059147 
L 267.861052 76.015277 
L 274.843063 77.189469 
L 281.845317 78.590321 
L 288.842584 80.225545 
L 295.807448 82.101762 
L 302.710416 84.224302 
L 309.520088 86.596994 
L 316.203379 89.221967 
L 322.725807 92.099454 
L 329.051842 95.227624 
L 335.145308 98.602424 
L 340.969849 102.217467 
L 346.489431 106.063955 
L 351.668885 110.130641 
L 356.474471 114.403851 
L 360.874446 118.867559 
L 364.839626 123.503511 
L 366.650879 125.879812 
L 368.343916 128.291418 
L 369.916038 130.735513 
L 371.364794 133.209187 
L 372.687997 135.709444 
L 373.88373 138.233214 
L 374.950356 140.777364 
L 375.886528 143.33871 
L 376.691187 145.914025 
L 377.363574 148.500057 
L 377.903227 151.093538 
L 378.309984 153.691194 
L 378.583981 156.289761 
L 378.72565 158.885997 
L 378.73571 161.476689 
L 378.61517 164.058671 
L 378.365313 166.628829 
L 377.987692 169.184116 
L 377.484118 171.72156 
L 376.856649 174.238273 
L 376.107578 176.731462 
L 375.23942 179.198433 
L 374.254896 181.636602 
L 373.15692 184.0435 
L 371.948583 186.416779 
L 369.213981 191.053713 
L 366.07875 195.531191 
L 362.57235 199.835151 
L 358.725526 203.953724 
L 354.569812 207.877226 
L 350.137064 211.598108 
L 345.459033 215.110874 
L 340.566986 218.411967 
L 335.491368 221.499632 
L 330.261529 224.373764 
L 324.905491 227.035743 
L 319.449769 229.488268 
L 313.919244 231.735183 
L 308.337068 233.781315 
L 302.724621 235.632311 
L 297.10149 237.294486 
L 291.485485 238.774686 
L 285.892675 240.080156 
L 280.337444 241.218424 
L 272.102577 242.629215 
L 264.017392 243.707479 
L 256.111601 244.479411 
L 248.408618 244.970637 
L 240.926304 245.205873 
L 233.677691 245.208683 
L 226.671664 245.001311 
L 219.913593 244.604586 
L 213.4059 244.037875 
L 207.148572 243.319081 
L 199.191228 242.152367 
L 191.666233 240.779597 
L 184.560897 239.231869 
L 177.859969 237.536497 
L 171.546518 235.717361 
L 165.602636 233.795253 
L 160.009966 231.788215 
L 153.485018 229.18356 
L 147.444823 226.496293 
L 141.855344 223.747835 
L 136.684206 220.955869 
L 131.900929 218.134941 
L 127.477032 215.296974 
L 122.605626 211.882491 
L 118.171779 208.470804 
L 114.137455 205.072289 
L 110.468285 201.694903 
L 107.133277 198.344667 
L 104.104523 195.026064 
L 100.924686 191.198637 
L 98.092028 187.422211 
L 95.575083 183.698965 
L 93.346006 180.030048 
L 91.119467 175.903981 
L 89.204385 171.849012 
L 87.572443 167.864122 
L 86.198844 163.947821 
L 84.935345 159.621727 
L 83.944255 155.377338 
L 83.202048 151.21168 
L 82.688215 147.121743 
L 82.363396 142.662561 
L 82.276978 138.289237 
L 82.410335 133.998004 
L 82.791548 129.368226 
L 83.40027 124.829077 
L 84.220176 120.376491 
L 85.237028 116.006743 
L 86.556318 111.330234 
L 88.080985 106.744271 
L 89.798621 102.24526 
L 91.864521 97.465729 
L 94.131879 92.780832 
L 96.589928 88.187356 
L 99.439392 83.339536 
L 102.488367 78.591375 
L 105.727421 73.940199 
L 109.399169 69.061803 
L 113.27005 64.289669 
L 117.331595 59.621749 
L 121.865387 54.755571 
L 122.737941 53.856 
L 122.737941 53.856 
" clip-path="url(#p85c14a7674)" style="fill: none; stroke: #d62728; stroke-width: 1.5; stroke-linecap: square"/>
   </g>
   <g id="patch_3">
    <path d="M 37.848438 307.872 
L 37.848438 41.76 
" style="fill: none; stroke: #000000; stroke-width: 0.8; stroke-linejoin: miter; stroke-linecap: square"/>
   </g>
   <g id="patch_4">
    <path d="M 394.968438 307.872 
L 394.968438 41.76 
" style="fill: none; stroke: #000000; stroke-width: 0.8; stroke-linejoin: miter; stroke-linecap: square"/>
   </g>
   <g id="patch_5">
    <path d="M 37.848437 307.872 
L 394.968438 307.872 
" style="fill: none; stroke: #000000; stroke-width: 0.8; stroke-linejoin: miter; stroke-linecap: square"/>
   </g>
   <g id="patch_6">
    <path d="M 37.848437 41.76 
L 394.968438 41.76 
" style="fill: none; stroke: #000000; stroke-width: 0.8; stroke-linejoin: miter; stroke-linecap: square"/>
   </g>
   <g id="text_16">
    <g id="patch_7">
     <path d="M 412.824438 102.337163 
L 552.224438 102.337163 
Q 556.224438 102.337163 556.224438 98.337163 
L 556.224438 55.0656 
Q 556.224438 51.0656 552.224438 51.0656 
L 412.824438 51.0656 
Q 408.824438 51.0656 408.824438 55.0656 
L 408.824438 98.337163 
Q 408.824438 102.337163 412.824438 102.337163 
z
" style="fill: #ffffff; opacity: 0.5; stroke: #000000; stroke-linejoin: miter"/>
    </g>
    <!-- Summary -->
    <g transform="translate(412.824438 62.664038) scale(0.1 -0.1)">
     <defs>
      <path id="DejaVuSans-53" d="M 3425 4513 
L 3425 3897 
Q 3066 4069 2747 4153 
Q 2428 4238 2131 4238 
Q 1616 4238 1336 4038 
Q 1056 3838 1056 3469 
Q 1056 3159 1242 3001 
Q 1428 2844 1947 2747 
L 2328 2669 
Q 3034 2534 3370 2195 
Q 3706 1856 3706 1288 
Q 3706 609 3251 259 
Q 2797 -91 1919 -91 
Q 1588 -91 1214 -16 
Q 841 59 441 206 
L 441 856 
Q 825 641 1194 531 
Q 1563 422 1919 422 
Q 2459 422 2753 634 
Q 3047 847 3047 1241 
Q 3047 1584 2836 1778 
Q 2625 1972 2144 2069 
L 1759 2144 
Q 1053 2284 737 2584 
Q 422 2884 422 3419 
Q 422 4038 858 4394 
Q 1294 4750 2059 4750 
Q 2388 4750 2728 4690 
Q 3069 4631 3425 4513 
z
" transform="scale(0.015625)"/>
      <path id="DejaVuSans-75" d="M 544 1381 
L 544 3500 
L 1119 3500 
L 1119 1403 
Q 1119 906 1312 657 
Q 1506 409 1894 409 
Q 2359 409 2629 706 
Q 2900 1003 2900 1516 
L 2900 3500 
L 3475 3500 
L 3475 0 
L 2900 0 
L 2900 538 
Q 2691 219 2414 64 
Q 2138 -91 1772 -91 
Q 1169 -91 856 284 
Q 544 659 544 1381 
z
M 1991 3584 
L 1991 3584 
z
" transform="scale(0.015625)"/>
      <path id="DejaVuSans-61" d="M 2194 1759 
Q 1497 1759 1228 1600 
Q 959 1441 959 1056 
Q 959 750 1161 570 
Q 1363 391 1709 391 
Q 2188 391 2477 730 
Q 2766 1069 2766 1631 
L 2766 1759 
L 2194 1759 
z
M 3341 1997 
L 3341 0 
L 2766 0 
L 2766 531 
Q 2569 213 2275 61 
Q 1981 -91 1556 -91 
Q 1019 -91 701 211 
Q 384 513 384 1019 
Q 384 1609 779 1909 
Q 1175 2209 1959 2209 
L 2766 2209 
L 2766 2266 
Q 2766 2663 2505 2880 
Q 2244 3097 1772 3097 
Q 1472 3097 1187 3025 
Q 903 2953 641 2809 
L 641 3341 
Q 956 3463 1253 3523 
Q 1550 3584 1831 3584 
Q 2591 3584 2966 3190 
Q 3341 2797 3341 1997 
z
" transform="scale(0.015625)"/>
      <path id="DejaVuSans-72" d="M 2631 2963 
Q 2534 3019 2420 3045 
Q 2306 3072 2169 3072 
Q 1681 3072 1420 2755 
Q 1159 2438 1159 1844 
L 1159 0 
L 581 0 
L 581 3500 
L 1159 3500 
L 1159 2956 
Q 1341 3275 1631 3429 
Q 1922 3584 2338 3584 
Q 2397 3584 2469 3576 
Q 2541 3569 2628 3553 
L 2631 2963 
z
" transform="scale(0.015625)"/>
      <path id="DejaVuSans-79" d="M 2059 -325 
Q 1816 -950 1584 -1140 
Q 1353 -1331 966 -1331 
L 506 -1331 
L 506 -850 
L 844 -850 
Q 1081 -850 1212 -737 
Q 1344 -625 1503 -206 
L 1606 56 
L 191 3500 
L 800 3500 
L 1894 763 
L 2988 3500 
L 3597 3500 
L 2059 -325 
z
" transform="scale(0.015625)"/>
     </defs>
     <use xlink:href="#DejaVuSans-53"/>
     <use xlink:href="#DejaVuSans-75" x="63.476562"/>
     <use xlink:href="#DejaVuSans-6d" x="126.855469"/>
     <use xlink:href="#DejaVuSans-6d" x="224.267578"/>
     <use xlink:href="#DejaVuSans-61" x="321.679688"/>
     <use xlink:href="#DejaVuSans-72" x="382.958984"/>
     <use xlink:href="#DejaVuSans-79" x="424.072266"/>
    </g>
    <!-- $Q_I$: 16.91$\pm$0.73 k -->
    <g transform="translate(412.824438 73.86185) scale(0.1 -0.1)">
     <defs>
      <path id="DejaVuSans-Oblique-51" d="M 2309 -84 
Q 2275 -88 2237 -89 
Q 2200 -91 2125 -91 
Q 1250 -91 756 411 
Q 263 913 263 1797 
Q 263 2319 452 2844 
Q 641 3369 978 3788 
Q 1369 4269 1858 4509 
Q 2347 4750 2938 4750 
Q 3794 4750 4287 4245 
Q 4781 3741 4781 2869 
Q 4781 1928 4265 1147 
Q 3750 366 2919 44 
L 3553 -825 
L 2847 -825 
L 2309 -84 
z
M 2919 4238 
Q 2400 4238 2003 3986 
Q 1606 3734 1313 3219 
Q 1125 2891 1026 2522 
Q 928 2153 928 1778 
Q 928 1128 1239 775 
Q 1550 422 2119 422 
Q 2631 422 3032 676 
Q 3434 931 3719 1434 
Q 3909 1772 4009 2142 
Q 4109 2513 4109 2881 
Q 4109 3528 3796 3883 
Q 3484 4238 2919 4238 
z
" transform="scale(0.015625)"/>
      <path id="DejaVuSans-Oblique-49" d="M 1081 4666 
L 1716 4666 
L 806 0 
L 172 0 
L 1081 4666 
z
" transform="scale(0.015625)"/>
      <path id="DejaVuSans-3a" d="M 750 794 
L 1409 794 
L 1409 0 
L 750 0 
L 750 794 
z
M 750 3309 
L 1409 3309 
L 1409 2516 
L 750 2516 
L 750 3309 
z
" transform="scale(0.015625)"/>
      <path id="DejaVuSans-2e" d="M 684 794 
L 1344 794 
L 1344 0 
L 684 0 
L 684 794 
z
" transform="scale(0.015625)"/>
      <path id="DejaVuSans-39" d="M 703 97 
L 703 672 
Q 941 559 1184 500 
Q 1428 441 1663 441 
Q 2288 441 2617 861 
Q 2947 1281 2994 2138 
Q 2813 1869 2534 1725 
Q 2256 1581 1919 1581 
Q 1219 1581 811 2004 
Q 403 2428 403 3163 
Q 403 3881 828 4315 
Q 1253 4750 1959 4750 
Q 2769 4750 3195 4129 
Q 3622 3509 3622 2328 
Q 3622 1225 3098 567 
Q 2575 -91 1691 -91 
Q 1453 -91 1209 -44 
Q 966 3 703 97 
z
M 1959 2075 
Q 2384 2075 2632 2365 
Q 2881 2656 2881 3163 
Q 2881 3666 2632 3958 
Q 2384 4250 1959 4250 
Q 1534 4250 1286 3958 
Q 1038 3666 1038 3163 
Q 1038 2656 1286 2365 
Q 1534 2075 1959 2075 
z
" transform="scale(0.015625)"/>
      <path id="DejaVuSans-b1" d="M 2944 4013 
L 2944 2803 
L 4684 2803 
L 4684 2272 
L 2944 2272 
L 2944 1063 
L 2419 1063 
L 2419 2272 
L 678 2272 
L 678 2803 
L 2419 2803 
L 2419 4013 
L 2944 4013 
z
M 678 531 
L 4684 531 
L 4684 0 
L 678 0 
L 678 531 
z
" transform="scale(0.015625)"/>
      <path id="DejaVuSans-6b" d="M 581 4863 
L 1159 4863 
L 1159 1991 
L 2875 3500 
L 3609 3500 
L 1753 1863 
L 3688 0 
L 2938 0 
L 1159 1709 
L 1159 0 
L 581 0 
L 581 4863 
z
" transform="scale(0.015625)"/>
     </defs>
     <use xlink:href="#DejaVuSans-Oblique-51" transform="translate(0 0.015625)"/>
     <use xlink:href="#DejaVuSans-Oblique-49" transform="translate(78.710938 -16.390625) scale(0.7)"/>
     <use xlink:href="#DejaVuSans-3a" transform="translate(102.089844 0.015625)"/>
     <use xlink:href="#DejaVuSans-20" transform="translate(135.78125 0.015625)"/>
     <use xlink:href="#DejaVuSans-31" transform="translate(167.568359 0.015625)"/>
     <use xlink:href="#DejaVuSans-36" transform="translate(231.191406 0.015625)"/>
     <use xlink:href="#DejaVuSans-2e" transform="translate(294.814453 0.015625)"/>
     <use xlink:href="#DejaVuSans-39" transform="translate(326.601562 0.015625)"/>
     <use xlink:href="#DejaVuSans-31" transform="translate(390.224609 0.015625)"/>
     <use xlink:href="#DejaVuSans-b1" transform="translate(453.847656 0.015625)"/>
     <use xlink:href="#DejaVuSans-30" transform="translate(537.636719 0.015625)"/>
     <use xlink:href="#DejaVuSans-2e" transform="translate(601.259766 0.015625)"/>
     <use xlink:href="#DejaVuSans-37" transform="translate(625.296875 0.015625)"/>
     <use xlink:href="#DejaVuSans-33" transform="translate(688.919922 0.015625)"/>
     <use xlink:href="#DejaVuSans-20" transform="translate(752.542969 0.015625)"/>
     <use xlink:href="#DejaVuSans-6b" transform="translate(784.330078 0.015625)"/>
    </g>
    <!-- $Q_C$: 2.375$\pm$0.018 k -->
    <g transform="translate(412.824438 85.059663) scale(0.1 -0.1)">
     <defs>
      <path id="DejaVuSans-Oblique-43" d="M 4447 4306 
L 4319 3641 
Q 4019 3944 3683 4091 
Q 3347 4238 2956 4238 
Q 2422 4238 2017 3981 
Q 1613 3725 1319 3200 
Q 1131 2863 1032 2486 
Q 934 2109 934 1728 
Q 934 1091 1264 756 
Q 1594 422 2222 422 
Q 2656 422 3056 561 
Q 3456 700 3834 978 
L 3688 231 
Q 3316 72 2936 -9 
Q 2556 -91 2175 -91 
Q 1278 -91 773 396 
Q 269 884 269 1753 
Q 269 2309 461 2846 
Q 653 3384 1013 3828 
Q 1394 4300 1883 4525 
Q 2372 4750 3022 4750 
Q 3422 4750 3780 4639 
Q 4138 4528 4447 4306 
z
" transform="scale(0.015625)"/>
     </defs>
     <use xlink:href="#DejaVuSans-Oblique-51" transform="translate(0 0.015625)"/>
     <use xlink:href="#DejaVuSans-Oblique-43" transform="translate(78.710938 -16.390625) scale(0.7)"/>
     <use xlink:href="#DejaVuSans-3a" transform="translate(130.322266 0.015625)"/>
     <use xlink:href="#DejaVuSans-20" transform="translate(164.013672 0.015625)"/>
     <use xlink:href="#DejaVuSans-32" transform="translate(195.800781 0.015625)"/>
     <use xlink:href="#DejaVuSans-2e" transform="translate(259.423828 0.015625)"/>
     <use xlink:href="#DejaVuSans-33" transform="translate(291.210938 0.015625)"/>
     <use xlink:href="#DejaVuSans-37" transform="translate(354.833984 0.015625)"/>
     <use xlink:href="#DejaVuSans-35" transform="translate(418.457031 0.015625)"/>
     <use xlink:href="#DejaVuSans-b1" transform="translate(482.080078 0.015625)"/>
     <use xlink:href="#DejaVuSans-30" transform="translate(565.869141 0.015625)"/>
     <use xlink:href="#DejaVuSans-2e" transform="translate(629.492188 0.015625)"/>
     <use xlink:href="#DejaVuSans-30" transform="translate(661.279297 0.015625)"/>
     <use xlink:href="#DejaVuSans-31" transform="translate(724.902344 0.015625)"/>
     <use xlink:href="#DejaVuSans-38" transform="translate(788.525391 0.015625)"/>
     <use xlink:href="#DejaVuSans-20" transform="translate(852.148438 0.015625)"/>
     <use xlink:href="#DejaVuSans-6b" transform="translate(883.935547 0.015625)"/>
    </g>
    <!-- $f_{res}$: 6.106676$\pm$1.4e-05 GHz -->
    <g transform="translate(412.824438 96.257475) scale(0.1 -0.1)">
     <defs>
      <path id="DejaVuSans-Oblique-66" d="M 3059 4863 
L 2969 4384 
L 2419 4384 
Q 2106 4384 1964 4261 
Q 1822 4138 1753 3809 
L 1691 3500 
L 2638 3500 
L 2553 3053 
L 1606 3053 
L 1013 0 
L 434 0 
L 1031 3053 
L 481 3053 
L 563 3500 
L 1113 3500 
L 1159 3744 
Q 1278 4363 1576 4613 
Q 1875 4863 2516 4863 
L 3059 4863 
z
" transform="scale(0.015625)"/>
      <path id="DejaVuSans-Oblique-72" d="M 2853 2969 
Q 2766 3016 2653 3041 
Q 2541 3066 2413 3066 
Q 1953 3066 1609 2717 
Q 1266 2369 1153 1784 
L 800 0 
L 225 0 
L 909 3500 
L 1484 3500 
L 1375 2956 
Q 1603 3259 1920 3421 
Q 2238 3584 2597 3584 
Q 2691 3584 2781 3573 
Q 2872 3563 2963 3538 
L 2853 2969 
z
" transform="scale(0.015625)"/>
      <path id="DejaVuSans-Oblique-65" d="M 3078 2063 
Q 3088 2113 3092 2166 
Q 3097 2219 3097 2272 
Q 3097 2653 2873 2875 
Q 2650 3097 2266 3097 
Q 1838 3097 1509 2826 
Q 1181 2556 1013 2059 
L 3078 2063 
z
M 3578 1613 
L 903 1613 
Q 884 1494 878 1425 
Q 872 1356 872 1306 
Q 872 872 1139 634 
Q 1406 397 1894 397 
Q 2269 397 2603 481 
Q 2938 566 3225 728 
L 3116 159 
Q 2806 34 2476 -28 
Q 2147 -91 1806 -91 
Q 1078 -91 686 257 
Q 294 606 294 1247 
Q 294 1794 489 2264 
Q 684 2734 1063 3103 
Q 1306 3334 1642 3459 
Q 1978 3584 2356 3584 
Q 2950 3584 3301 3228 
Q 3653 2872 3653 2272 
Q 3653 2128 3634 1964 
Q 3616 1800 3578 1613 
z
" transform="scale(0.015625)"/>
      <path id="DejaVuSans-Oblique-73" d="M 3200 3397 
L 3091 2853 
Q 2863 2978 2609 3040 
Q 2356 3103 2088 3103 
Q 1634 3103 1373 2948 
Q 1113 2794 1113 2528 
Q 1113 2219 1719 2053 
Q 1766 2041 1788 2034 
L 1972 1978 
Q 2547 1819 2739 1644 
Q 2931 1469 2931 1166 
Q 2931 609 2489 259 
Q 2047 -91 1331 -91 
Q 1053 -91 747 -37 
Q 441 16 72 128 
L 184 722 
Q 500 559 806 475 
Q 1113 391 1394 391 
Q 1816 391 2080 572 
Q 2344 753 2344 1031 
Q 2344 1331 1650 1516 
L 1591 1531 
L 1394 1581 
Q 956 1697 753 1886 
Q 550 2075 550 2369 
Q 550 2928 970 3256 
Q 1391 3584 2113 3584 
Q 2397 3584 2667 3537 
Q 2938 3491 3200 3397 
z
" transform="scale(0.015625)"/>
      <path id="DejaVuSans-47" d="M 3809 666 
L 3809 1919 
L 2778 1919 
L 2778 2438 
L 4434 2438 
L 4434 434 
Q 4069 175 3628 42 
Q 3188 -91 2688 -91 
Q 1594 -91 976 548 
Q 359 1188 359 2328 
Q 359 3472 976 4111 
Q 1594 4750 2688 4750 
Q 3144 4750 3555 4637 
Q 3966 4525 4313 4306 
L 4313 3634 
Q 3963 3931 3569 4081 
Q 3175 4231 2741 4231 
Q 1884 4231 1454 3753 
Q 1025 3275 1025 2328 
Q 1025 1384 1454 906 
Q 1884 428 2741 428 
Q 3075 428 3337 486 
Q 3600 544 3809 666 
z
" transform="scale(0.015625)"/>
      <path id="DejaVuSans-48" d="M 628 4666 
L 1259 4666 
L 1259 2753 
L 3553 2753 
L 3553 4666 
L 4184 4666 
L 4184 0 
L 3553 0 
L 3553 2222 
L 1259 2222 
L 1259 0 
L 628 0 
L 628 4666 
z
" transform="scale(0.015625)"/>
      <path id="DejaVuSans-7a" d="M 353 3500 
L 3084 3500 
L 3084 2975 
L 922 459 
L 3084 459 
L 3084 0 
L 275 0 
L 275 525 
L 2438 3041 
L 353 3041 
L 353 3500 
z
" transform="scale(0.015625)"/>
     </defs>
     <use xlink:href="#DejaVuSans-Oblique-66" transform="translate(0 0.015625)"/>
     <use xlink:href="#DejaVuSans-Oblique-72" transform="translate(35.205078 -16.390625) scale(0.7)"/>
     <use xlink:href="#DejaVuSans-Oblique-65" transform="translate(63.984375 -16.390625) scale(0.7)"/>
     <use xlink:href="#DejaVuSans-Oblique-73" transform="translate(107.050781 -16.390625) scale(0.7)"/>
     <use xlink:href="#DejaVuSans-3a" transform="translate(146.254883 0.015625)"/>
     <use xlink:href="#DejaVuSans-20" transform="translate(179.946289 0.015625)"/>
     <use xlink:href="#DejaVuSans-36" transform="translate(211.733398 0.015625)"/>
     <use xlink:href="#DejaVuSans-2e" transform="translate(275.356445 0.015625)"/>
     <use xlink:href="#DejaVuSans-31" transform="translate(307.143555 0.015625)"/>
     <use xlink:href="#DejaVuSans-30" transform="translate(370.766602 0.015625)"/>
     <use xlink:href="#DejaVuSans-36" transform="translate(434.389648 0.015625)"/>
     <use xlink:href="#DejaVuSans-36" transform="translate(498.012695 0.015625)"/>
     <use xlink:href="#DejaVuSans-37" transform="translate(561.635742 0.015625)"/>
     <use xlink:href="#DejaVuSans-36" transform="translate(625.258789 0.015625)"/>
     <use xlink:href="#DejaVuSans-b1" transform="translate(688.881836 0.015625)"/>
     <use xlink:href="#DejaVuSans-31" transform="translate(772.670898 0.015625)"/>
     <use xlink:href="#DejaVuSans-2e" transform="translate(836.293945 0.015625)"/>
     <use xlink:href="#DejaVuSans-34" transform="translate(868.081055 0.015625)"/>
     <use xlink:href="#DejaVuSans-65" transform="translate(931.704102 0.015625)"/>
     <use xlink:href="#DejaVuSans-2d" transform="translate(993.227539 0.015625)"/>
     <use xlink:href="#DejaVuSans-30" transform="translate(1029.311523 0.015625)"/>
     <use xlink:href="#DejaVuSans-35" transform="translate(1092.93457 0.015625)"/>
     <use xlink:href="#DejaVuSans-20" transform="translate(1156.557617 0.015625)"/>
     <use xlink:href="#DejaVuSans-47" transform="translate(1188.344727 0.015625)"/>
     <use xlink:href="#DejaVuSans-48" transform="translate(1265.834961 0.015625)"/>
     <use xlink:href="#DejaVuSans-7a" transform="translate(1341.030273 0.015625)"/>
    </g>
   </g>
  </g>
  <g id="text_17">
   <!-- S21 resonator spectroscopy -->
   <g transform="translate(126.864063 16.318125) scale(0.12 -0.12)">
    <defs>
     <path id="DejaVuSans-73" d="M 2834 3397 
L 2834 2853 
Q 2591 2978 2328 3040 
Q 2066 3103 1784 3103 
Q 1356 3103 1142 2972 
Q 928 2841 928 2578 
Q 928 2378 1081 2264 
Q 1234 2150 1697 2047 
L 1894 2003 
Q 2506 1872 2764 1633 
Q 3022 1394 3022 966 
Q 3022 478 2636 193 
Q 2250 -91 1575 -91 
Q 1294 -91 989 -36 
Q 684 19 347 128 
L 347 722 
Q 666 556 975 473 
Q 1284 391 1588 391 
Q 1994 391 2212 530 
Q 2431 669 2431 922 
Q 2431 1156 2273 1281 
Q 2116 1406 1581 1522 
L 1381 1569 
Q 847 1681 609 1914 
Q 372 2147 372 2553 
Q 372 3047 722 3315 
Q 1072 3584 1716 3584 
Q 2034 3584 2315 3537 
Q 2597 3491 2834 3397 
z
" transform="scale(0.015625)"/>
     <path id="DejaVuSans-6f" d="M 1959 3097 
Q 1497 3097 1228 2736 
Q 959 2375 959 1747 
Q 959 1119 1226 758 
Q 1494 397 1959 397 
Q 2419 397 2687 759 
Q 2956 1122 2956 1747 
Q 2956 2369 2687 2733 
Q 2419 3097 1959 3097 
z
M 1959 3584 
Q 2709 3584 3137 3096 
Q 3566 2609 3566 1747 
Q 3566 888 3137 398 
Q 2709 -91 1959 -91 
Q 1206 -91 779 398 
Q 353 888 353 1747 
Q 353 2609 779 3096 
Q 1206 3584 1959 3584 
z
" transform="scale(0.015625)"/>
     <path id="DejaVuSans-6e" d="M 3513 2113 
L 3513 0 
L 2938 0 
L 2938 2094 
Q 2938 2591 2744 2837 
Q 2550 3084 2163 3084 
Q 1697 3084 1428 2787 
Q 1159 2491 1159 1978 
L 1159 0 
L 581 0 
L 581 3500 
L 1159 3500 
L 1159 2956 
Q 1366 3272 1645 3428 
Q 1925 3584 2291 3584 
Q 2894 3584 3203 3211 
Q 3513 2838 3513 2113 
z
" transform="scale(0.015625)"/>
     <path id="DejaVuSans-74" d="M 1172 4494 
L 1172 3500 
L 2356 3500 
L 2356 3053 
L 1172 3053 
L 1172 1153 
Q 1172 725 1289 603 
Q 1406 481 1766 481 
L 2356 481 
L 2356 0 
L 1766 0 
Q 1100 0 847 248 
Q 594 497 594 1153 
L 594 3053 
L 172 3053 
L 172 3500 
L 594 3500 
L 594 4494 
L 1172 4494 
z
" transform="scale(0.015625)"/>
     <path id="DejaVuSans-70" d="M 1159 525 
L 1159 -1331 
L 581 -1331 
L 581 3500 
L 1159 3500 
L 1159 2969 
Q 1341 3281 1617 3432 
Q 1894 3584 2278 3584 
Q 2916 3584 3314 3078 
Q 3713 2572 3713 1747 
Q 3713 922 3314 415 
Q 2916 -91 2278 -91 
Q 1894 -91 1617 61 
Q 1341 213 1159 525 
z
M 3116 1747 
Q 3116 2381 2855 2742 
Q 2594 3103 2138 3103 
Q 1681 3103 1420 2742 
Q 1159 2381 1159 1747 
Q 1159 1113 1420 752 
Q 1681 391 2138 391 
Q 2594 391 2855 752 
Q 3116 1113 3116 1747 
z
" transform="scale(0.015625)"/>
     <path id="DejaVuSans-63" d="M 3122 3366 
L 3122 2828 
Q 2878 2963 2633 3030 
Q 2388 3097 2138 3097 
Q 1578 3097 1268 2742 
Q 959 2388 959 1747 
Q 959 1106 1268 751 
Q 1578 397 2138 397 
Q 2388 397 2633 464 
Q 2878 531 3122 666 
L 3122 134 
Q 2881 22 2623 -34 
Q 2366 -91 2075 -91 
Q 1284 -91 818 406 
Q 353 903 353 1747 
Q 353 2603 823 3093 
Q 1294 3584 2113 3584 
Q 2378 3584 2631 3529 
Q 2884 3475 3122 3366 
z
" transform="scale(0.015625)"/>
    </defs>
    <use xlink:href="#DejaVuSans-53"/>
    <use xlink:href="#DejaVuSans-32" x="63.476562"/>
    <use xlink:href="#DejaVuSans-31" x="127.099609"/>
    <use xlink:href="#DejaVuSans-20" x="190.722656"/>
    <use xlink:href="#DejaVuSans-72" x="222.509766"/>
    <use xlink:href="#DejaVuSans-65" x="261.373047"/>
    <use xlink:href="#DejaVuSans-73" x="322.896484"/>
    <use xlink:href="#DejaVuSans-6f" x="374.996094"/>
    <use xlink:href="#DejaVuSans-6e" x="436.177734"/>
    <use xlink:href="#DejaVuSans-61" x="499.556641"/>
    <use xlink:href="#DejaVuSans-74" x="560.835938"/>
    <use xlink:href="#DejaVuSans-6f" x="600.044922"/>
    <use xlink:href="#DejaVuSans-72" x="661.226562"/>
    <use xlink:href="#DejaVuSans-20" x="702.339844"/>
    <use xlink:href="#DejaVuSans-73" x="734.126953"/>
    <use xlink:href="#DejaVuSans-70" x="786.226562"/>
    <use xlink:href="#DejaVuSans-65" x="849.703125"/>
    <use xlink:href="#DejaVuSans-63" x="911.226562"/>
    <use xlink:href="#DejaVuSans-74" x="966.207031"/>
    <use xlink:href="#DejaVuSans-72" x="1005.416016"/>
    <use xlink:href="#DejaVuSans-6f" x="1044.279297"/>
    <use xlink:href="#DejaVuSans-73" x="1105.460938"/>
    <use xlink:href="#DejaVuSans-63" x="1157.560547"/>
    <use xlink:href="#DejaVuSans-6f" x="1212.541016"/>
    <use xlink:href="#DejaVuSans-70" x="1273.722656"/>
    <use xlink:href="#DejaVuSans-79" x="1337.199219"/>
   </g>
   <!-- tuid: 20231225-162724-248-410b16 -->
   <g transform="translate(100.801563 29.7555) scale(0.12 -0.12)">
    <defs>
     <path id="DejaVuSans-69" d="M 603 3500 
L 1178 3500 
L 1178 0 
L 603 0 
L 603 3500 
z
M 603 4863 
L 1178 4863 
L 1178 4134 
L 603 4134 
L 603 4863 
z
" transform="scale(0.015625)"/>
     <path id="DejaVuSans-64" d="M 2906 2969 
L 2906 4863 
L 3481 4863 
L 3481 0 
L 2906 0 
L 2906 525 
Q 2725 213 2448 61 
Q 2172 -91 1784 -91 
Q 1150 -91 751 415 
Q 353 922 353 1747 
Q 353 2572 751 3078 
Q 1150 3584 1784 3584 
Q 2172 3584 2448 3432 
Q 2725 3281 2906 2969 
z
M 947 1747 
Q 947 1113 1208 752 
Q 1469 391 1925 391 
Q 2381 391 2643 752 
Q 2906 1113 2906 1747 
Q 2906 2381 2643 2742 
Q 2381 3103 1925 3103 
Q 1469 3103 1208 2742 
Q 947 2381 947 1747 
z
" transform="scale(0.015625)"/>
     <path id="DejaVuSans-62" d="M 3116 1747 
Q 3116 2381 2855 2742 
Q 2594 3103 2138 3103 
Q 1681 3103 1420 2742 
Q 1159 2381 1159 1747 
Q 1159 1113 1420 752 
Q 1681 391 2138 391 
Q 2594 391 2855 752 
Q 3116 1113 3116 1747 
z
M 1159 2969 
Q 1341 3281 1617 3432 
Q 1894 3584 2278 3584 
Q 2916 3584 3314 3078 
Q 3713 2572 3713 1747 
Q 3713 922 3314 415 
Q 2916 -91 2278 -91 
Q 1894 -91 1617 61 
Q 1341 213 1159 525 
L 1159 0 
L 581 0 
L 581 4863 
L 1159 4863 
L 1159 2969 
z
" transform="scale(0.015625)"/>
    </defs>
    <use xlink:href="#DejaVuSans-74"/>
    <use xlink:href="#DejaVuSans-75" x="39.208984"/>
    <use xlink:href="#DejaVuSans-69" x="102.587891"/>
    <use xlink:href="#DejaVuSans-64" x="130.371094"/>
    <use xlink:href="#DejaVuSans-3a" x="193.847656"/>
    <use xlink:href="#DejaVuSans-20" x="227.539062"/>
    <use xlink:href="#DejaVuSans-32" x="259.326172"/>
    <use xlink:href="#DejaVuSans-30" x="322.949219"/>
    <use xlink:href="#DejaVuSans-32" x="386.572266"/>
    <use xlink:href="#DejaVuSans-33" x="450.195312"/>
    <use xlink:href="#DejaVuSans-31" x="513.818359"/>
    <use xlink:href="#DejaVuSans-32" x="577.441406"/>
    <use xlink:href="#DejaVuSans-32" x="641.064453"/>
    <use xlink:href="#DejaVuSans-35" x="704.6875"/>
    <use xlink:href="#DejaVuSans-2d" x="768.310547"/>
    <use xlink:href="#DejaVuSans-31" x="804.394531"/>
    <use xlink:href="#DejaVuSans-36" x="868.017578"/>
    <use xlink:href="#DejaVuSans-32" x="931.640625"/>
    <use xlink:href="#DejaVuSans-37" x="995.263672"/>
    <use xlink:href="#DejaVuSans-32" x="1058.886719"/>
    <use xlink:href="#DejaVuSans-34" x="1122.509766"/>
    <use xlink:href="#DejaVuSans-2d" x="1186.132812"/>
    <use xlink:href="#DejaVuSans-32" x="1222.216797"/>
    <use xlink:href="#DejaVuSans-34" x="1285.839844"/>
    <use xlink:href="#DejaVuSans-38" x="1349.462891"/>
    <use xlink:href="#DejaVuSans-2d" x="1413.085938"/>
    <use xlink:href="#DejaVuSans-34" x="1449.169922"/>
    <use xlink:href="#DejaVuSans-31" x="1512.792969"/>
    <use xlink:href="#DejaVuSans-30" x="1576.416016"/>
    <use xlink:href="#DejaVuSans-62" x="1640.039062"/>
    <use xlink:href="#DejaVuSans-31" x="1703.515625"/>
    <use xlink:href="#DejaVuSans-36" x="1767.138672"/>
   </g>
  </g>
 </g>
 <defs>
  <clipPath id="p85c14a7674">
   <rect x="37.848438" y="41.76" width="357.12" height="266.112"/>
  </clipPath>
 </defs>
</svg>
