<?xml version="1.0" encoding="utf-8" standalone="no"?>
<!DOCTYPE svg PUBLIC "-//W3C//DTD SVG 1.1//EN"
  "http://www.w3.org/Graphics/SVG/1.1/DTD/svg11.dtd">
<svg xmlns:xlink="http://www.w3.org/1999/xlink" width="572.186937pt" height="345.42825pt" viewBox="0 0 572.186937 345.42825" xmlns="http://www.w3.org/2000/svg" version="1.1">
 <metadata>
  <rdf:RDF xmlns:dc="http://purl.org/dc/elements/1.1/" xmlns:cc="http://creativecommons.org/ns#" xmlns:rdf="http://www.w3.org/1999/02/22-rdf-syntax-ns#">
   <cc:Work>
    <dc:type rdf:resource="http://purl.org/dc/dcmitype/StillImage"/>
    <dc:date>2023-12-25T15:59:27.151598</dc:date>
    <dc:format>image/svg+xml</dc:format>
    <dc:creator>
     <cc:Agent>
      <dc:title>Matplotlib v3.8.2, https://matplotlib.org/</dc:title>
     </cc:Agent>
    </dc:creator>
   </cc:Work>
  </rdf:RDF>
 </metadata>
 <defs>
  <style type="text/css">*{stroke-linejoin: round; stroke-linecap: butt}</style>
 </defs>
 <g id="figure_1">
  <g id="patch_1">
   <path d="M 0 345.42825 
L 572.186937 345.42825 
L 572.186937 -0 
L 0 -0 
L 0 345.42825 
z
" style="fill: none; opacity: 0"/>
  </g>
  <g id="axes_1">
   <g id="patch_2">
    <path d="M 44.210938 307.872 
L 401.330938 307.872 
L 401.330938 41.76 
L 44.210938 41.76 
z
" style="fill: #ffffff"/>
   </g>
   <g id="matplotlib.axis_1">
    <g id="xtick_1">
     <g id="line2d_1">
      <defs>
       <path id="mae1e37d8c2" d="M 0 0 
L 0 3.5 
" style="stroke: #000000; stroke-width: 0.8"/>
      </defs>
      <g>
       <use xlink:href="#mae1e37d8c2" x="55.587587" y="307.872" style="stroke: #000000; stroke-width: 0.8"/>
      </g>
     </g>
     <g id="text_1">
      <!-- -10 -->
      <g transform="translate(47.421181 322.470438) scale(0.1 -0.1)">
       <defs>
        <path id="DejaVuSans-2d" d="M 313 2009 
L 1997 2009 
L 1997 1497 
L 313 1497 
L 313 2009 
z
" transform="scale(0.015625)"/>
        <path id="DejaVuSans-31" d="M 794 531 
L 1825 531 
L 1825 4091 
L 703 3866 
L 703 4441 
L 1819 4666 
L 2450 4666 
L 2450 531 
L 3481 531 
L 3481 0 
L 794 0 
L 794 531 
z
" transform="scale(0.015625)"/>
        <path id="DejaVuSans-30" d="M 2034 4250 
Q 1547 4250 1301 3770 
Q 1056 3291 1056 2328 
Q 1056 1369 1301 889 
Q 1547 409 2034 409 
Q 2525 409 2770 889 
Q 3016 1369 3016 2328 
Q 3016 3291 2770 3770 
Q 2525 4250 2034 4250 
z
M 2034 4750 
Q 2819 4750 3233 4129 
Q 3647 3509 3647 2328 
Q 3647 1150 3233 529 
Q 2819 -91 2034 -91 
Q 1250 -91 836 529 
Q 422 1150 422 2328 
Q 422 3509 836 4129 
Q 1250 4750 2034 4750 
z
" transform="scale(0.015625)"/>
       </defs>
       <use xlink:href="#DejaVuSans-2d"/>
       <use xlink:href="#DejaVuSans-31" x="36.083984"/>
       <use xlink:href="#DejaVuSans-30" x="99.707031"/>
      </g>
     </g>
    </g>
    <g id="xtick_2">
     <g id="line2d_2">
      <g>
       <use xlink:href="#mae1e37d8c2" x="128.853485" y="307.872" style="stroke: #000000; stroke-width: 0.8"/>
      </g>
     </g>
     <g id="text_2">
      <!-- -8 -->
      <g transform="translate(123.868329 322.470438) scale(0.1 -0.1)">
       <defs>
        <path id="DejaVuSans-38" d="M 2034 2216 
Q 1584 2216 1326 1975 
Q 1069 1734 1069 1313 
Q 1069 891 1326 650 
Q 1584 409 2034 409 
Q 2484 409 2743 651 
Q 3003 894 3003 1313 
Q 3003 1734 2745 1975 
Q 2488 2216 2034 2216 
z
M 1403 2484 
Q 997 2584 770 2862 
Q 544 3141 544 3541 
Q 544 4100 942 4425 
Q 1341 4750 2034 4750 
Q 2731 4750 3128 4425 
Q 3525 4100 3525 3541 
Q 3525 3141 3298 2862 
Q 3072 2584 2669 2484 
Q 3125 2378 3379 2068 
Q 3634 1759 3634 1313 
Q 3634 634 3220 271 
Q 2806 -91 2034 -91 
Q 1263 -91 848 271 
Q 434 634 434 1313 
Q 434 1759 690 2068 
Q 947 2378 1403 2484 
z
M 1172 3481 
Q 1172 3119 1398 2916 
Q 1625 2713 2034 2713 
Q 2441 2713 2670 2916 
Q 2900 3119 2900 3481 
Q 2900 3844 2670 4047 
Q 2441 4250 2034 4250 
Q 1625 4250 1398 4047 
Q 1172 3844 1172 3481 
z
" transform="scale(0.015625)"/>
       </defs>
       <use xlink:href="#DejaVuSans-2d"/>
       <use xlink:href="#DejaVuSans-38" x="36.083984"/>
      </g>
     </g>
    </g>
    <g id="xtick_3">
     <g id="line2d_3">
      <g>
       <use xlink:href="#mae1e37d8c2" x="202.119383" y="307.872" style="stroke: #000000; stroke-width: 0.8"/>
      </g>
     </g>
     <g id="text_3">
      <!-- -6 -->
      <g transform="translate(197.134227 322.470438) scale(0.1 -0.1)">
       <defs>
        <path id="DejaVuSans-36" d="M 2113 2584 
Q 1688 2584 1439 2293 
Q 1191 2003 1191 1497 
Q 1191 994 1439 701 
Q 1688 409 2113 409 
Q 2538 409 2786 701 
Q 3034 994 3034 1497 
Q 3034 2003 2786 2293 
Q 2538 2584 2113 2584 
z
M 3366 4563 
L 3366 3988 
Q 3128 4100 2886 4159 
Q 2644 4219 2406 4219 
Q 1781 4219 1451 3797 
Q 1122 3375 1075 2522 
Q 1259 2794 1537 2939 
Q 1816 3084 2150 3084 
Q 2853 3084 3261 2657 
Q 3669 2231 3669 1497 
Q 3669 778 3244 343 
Q 2819 -91 2113 -91 
Q 1303 -91 875 529 
Q 447 1150 447 2328 
Q 447 3434 972 4092 
Q 1497 4750 2381 4750 
Q 2619 4750 2861 4703 
Q 3103 4656 3366 4563 
z
" transform="scale(0.015625)"/>
       </defs>
       <use xlink:href="#DejaVuSans-2d"/>
       <use xlink:href="#DejaVuSans-36" x="36.083984"/>
      </g>
     </g>
    </g>
    <g id="xtick_4">
     <g id="line2d_4">
      <g>
       <use xlink:href="#mae1e37d8c2" x="275.385282" y="307.872" style="stroke: #000000; stroke-width: 0.8"/>
      </g>
     </g>
     <g id="text_4">
      <!-- -4 -->
      <g transform="translate(270.400125 322.470438) scale(0.1 -0.1)">
       <defs>
        <path id="DejaVuSans-34" d="M 2419 4116 
L 825 1625 
L 2419 1625 
L 2419 4116 
z
M 2253 4666 
L 3047 4666 
L 3047 1625 
L 3713 1625 
L 3713 1100 
L 3047 1100 
L 3047 0 
L 2419 0 
L 2419 1100 
L 313 1100 
L 313 1709 
L 2253 4666 
z
" transform="scale(0.015625)"/>
       </defs>
       <use xlink:href="#DejaVuSans-2d"/>
       <use xlink:href="#DejaVuSans-34" x="36.083984"/>
      </g>
     </g>
    </g>
    <g id="xtick_5">
     <g id="line2d_5">
      <g>
       <use xlink:href="#mae1e37d8c2" x="348.65118" y="307.872" style="stroke: #000000; stroke-width: 0.8"/>
      </g>
     </g>
     <g id="text_5">
      <!-- -2 -->
      <g transform="translate(343.666024 322.470438) scale(0.1 -0.1)">
       <defs>
        <path id="DejaVuSans-32" d="M 1228 531 
L 3431 531 
L 3431 0 
L 469 0 
L 469 531 
Q 828 903 1448 1529 
Q 2069 2156 2228 2338 
Q 2531 2678 2651 2914 
Q 2772 3150 2772 3378 
Q 2772 3750 2511 3984 
Q 2250 4219 1831 4219 
Q 1534 4219 1204 4116 
Q 875 4013 500 3803 
L 500 4441 
Q 881 4594 1212 4672 
Q 1544 4750 1819 4750 
Q 2544 4750 2975 4387 
Q 3406 4025 3406 3419 
Q 3406 3131 3298 2873 
Q 3191 2616 2906 2266 
Q 2828 2175 2409 1742 
Q 1991 1309 1228 531 
z
" transform="scale(0.015625)"/>
       </defs>
       <use xlink:href="#DejaVuSans-2d"/>
       <use xlink:href="#DejaVuSans-32" x="36.083984"/>
      </g>
     </g>
    </g>
    <g id="text_6">
     <!-- Re$(S_{21})$ [mV] -->
     <g transform="translate(190.770938 336.148562) scale(0.1 -0.1)">
      <defs>
       <path id="DejaVuSans-52" d="M 2841 2188 
Q 3044 2119 3236 1894 
Q 3428 1669 3622 1275 
L 4263 0 
L 3584 0 
L 2988 1197 
Q 2756 1666 2539 1819 
Q 2322 1972 1947 1972 
L 1259 1972 
L 1259 0 
L 628 0 
L 628 4666 
L 2053 4666 
Q 2853 4666 3247 4331 
Q 3641 3997 3641 3322 
Q 3641 2881 3436 2590 
Q 3231 2300 2841 2188 
z
M 1259 4147 
L 1259 2491 
L 2053 2491 
Q 2509 2491 2742 2702 
Q 2975 2913 2975 3322 
Q 2975 3731 2742 3939 
Q 2509 4147 2053 4147 
L 1259 4147 
z
" transform="scale(0.015625)"/>
       <path id="DejaVuSans-65" d="M 3597 1894 
L 3597 1613 
L 953 1613 
Q 991 1019 1311 708 
Q 1631 397 2203 397 
Q 2534 397 2845 478 
Q 3156 559 3463 722 
L 3463 178 
Q 3153 47 2828 -22 
Q 2503 -91 2169 -91 
Q 1331 -91 842 396 
Q 353 884 353 1716 
Q 353 2575 817 3079 
Q 1281 3584 2069 3584 
Q 2775 3584 3186 3129 
Q 3597 2675 3597 1894 
z
M 3022 2063 
Q 3016 2534 2758 2815 
Q 2500 3097 2075 3097 
Q 1594 3097 1305 2825 
Q 1016 2553 972 2059 
L 3022 2063 
z
" transform="scale(0.015625)"/>
       <path id="DejaVuSans-28" d="M 1984 4856 
Q 1566 4138 1362 3434 
Q 1159 2731 1159 2009 
Q 1159 1288 1364 580 
Q 1569 -128 1984 -844 
L 1484 -844 
Q 1016 -109 783 600 
Q 550 1309 550 2009 
Q 550 2706 781 3412 
Q 1013 4119 1484 4856 
L 1984 4856 
z
" transform="scale(0.015625)"/>
       <path id="DejaVuSans-Oblique-53" d="M 3859 4513 
L 3738 3897 
Q 3422 4066 3111 4152 
Q 2800 4238 2509 4238 
Q 1944 4238 1609 3991 
Q 1275 3744 1275 3334 
Q 1275 3109 1398 2989 
Q 1522 2869 2034 2731 
L 2413 2638 
Q 3053 2472 3303 2217 
Q 3553 1963 3553 1503 
Q 3553 797 2998 353 
Q 2444 -91 1538 -91 
Q 1166 -91 791 -17 
Q 416 56 38 206 
L 166 856 
Q 513 641 861 531 
Q 1209 422 1556 422 
Q 2147 422 2503 684 
Q 2859 947 2859 1369 
Q 2859 1650 2717 1795 
Q 2575 1941 2106 2059 
L 1728 2156 
Q 1081 2325 845 2545 
Q 609 2766 609 3163 
Q 609 3859 1145 4304 
Q 1681 4750 2541 4750 
Q 2875 4750 3203 4690 
Q 3531 4631 3859 4513 
z
" transform="scale(0.015625)"/>
       <path id="DejaVuSans-29" d="M 513 4856 
L 1013 4856 
Q 1481 4119 1714 3412 
Q 1947 2706 1947 2009 
Q 1947 1309 1714 600 
Q 1481 -109 1013 -844 
L 513 -844 
Q 928 -128 1133 580 
Q 1338 1288 1338 2009 
Q 1338 2731 1133 3434 
Q 928 4138 513 4856 
z
" transform="scale(0.015625)"/>
       <path id="DejaVuSans-20" transform="scale(0.015625)"/>
       <path id="DejaVuSans-5b" d="M 550 4863 
L 1875 4863 
L 1875 4416 
L 1125 4416 
L 1125 -397 
L 1875 -397 
L 1875 -844 
L 550 -844 
L 550 4863 
z
" transform="scale(0.015625)"/>
       <path id="DejaVuSans-6d" d="M 3328 2828 
Q 3544 3216 3844 3400 
Q 4144 3584 4550 3584 
Q 5097 3584 5394 3201 
Q 5691 2819 5691 2113 
L 5691 0 
L 5113 0 
L 5113 2094 
Q 5113 2597 4934 2840 
Q 4756 3084 4391 3084 
Q 3944 3084 3684 2787 
Q 3425 2491 3425 1978 
L 3425 0 
L 2847 0 
L 2847 2094 
Q 2847 2600 2669 2842 
Q 2491 3084 2119 3084 
Q 1678 3084 1418 2786 
Q 1159 2488 1159 1978 
L 1159 0 
L 581 0 
L 581 3500 
L 1159 3500 
L 1159 2956 
Q 1356 3278 1631 3431 
Q 1906 3584 2284 3584 
Q 2666 3584 2933 3390 
Q 3200 3197 3328 2828 
z
" transform="scale(0.015625)"/>
       <path id="DejaVuSans-56" d="M 1831 0 
L 50 4666 
L 709 4666 
L 2188 738 
L 3669 4666 
L 4325 4666 
L 2547 0 
L 1831 0 
z
" transform="scale(0.015625)"/>
       <path id="DejaVuSans-5d" d="M 1947 4863 
L 1947 -844 
L 622 -844 
L 622 -397 
L 1369 -397 
L 1369 4416 
L 622 4416 
L 622 4863 
L 1947 4863 
z
" transform="scale(0.015625)"/>
      </defs>
      <use xlink:href="#DejaVuSans-52" transform="translate(0 0.015625)"/>
      <use xlink:href="#DejaVuSans-65" transform="translate(69.482422 0.015625)"/>
      <use xlink:href="#DejaVuSans-28" transform="translate(131.005859 0.015625)"/>
      <use xlink:href="#DejaVuSans-Oblique-53" transform="translate(170.019531 0.015625)"/>
      <use xlink:href="#DejaVuSans-32" transform="translate(233.496094 -16.390625) scale(0.7)"/>
      <use xlink:href="#DejaVuSans-31" transform="translate(278.032227 -16.390625) scale(0.7)"/>
      <use xlink:href="#DejaVuSans-29" transform="translate(325.302734 0.015625)"/>
      <use xlink:href="#DejaVuSans-20" transform="translate(364.316406 0.015625)"/>
      <use xlink:href="#DejaVuSans-5b" transform="translate(396.103516 0.015625)"/>
      <use xlink:href="#DejaVuSans-6d" transform="translate(435.117188 0.015625)"/>
      <use xlink:href="#DejaVuSans-56" transform="translate(532.529297 0.015625)"/>
      <use xlink:href="#DejaVuSans-5d" transform="translate(600.9375 0.015625)"/>
     </g>
    </g>
   </g>
   <g id="matplotlib.axis_2">
    <g id="ytick_1">
     <g id="line2d_6">
      <defs>
       <path id="ma0f96a9b0c" d="M 0 0 
L -3.5 0 
" style="stroke: #000000; stroke-width: 0.8"/>
      </defs>
      <g>
       <use xlink:href="#ma0f96a9b0c" x="44.210938" y="288.19851" style="stroke: #000000; stroke-width: 0.8"/>
      </g>
     </g>
     <g id="text_7">
      <!-- -10 -->
      <g transform="translate(20.878125 291.997728) scale(0.1 -0.1)">
       <use xlink:href="#DejaVuSans-2d"/>
       <use xlink:href="#DejaVuSans-31" x="36.083984"/>
       <use xlink:href="#DejaVuSans-30" x="99.707031"/>
      </g>
     </g>
    </g>
    <g id="ytick_2">
     <g id="line2d_7">
      <g>
       <use xlink:href="#ma0f96a9b0c" x="44.210938" y="243.584439" style="stroke: #000000; stroke-width: 0.8"/>
      </g>
     </g>
     <g id="text_8">
      <!-- -8 -->
      <g transform="translate(27.240625 247.383658) scale(0.1 -0.1)">
       <use xlink:href="#DejaVuSans-2d"/>
       <use xlink:href="#DejaVuSans-38" x="36.083984"/>
      </g>
     </g>
    </g>
    <g id="ytick_3">
     <g id="line2d_8">
      <g>
       <use xlink:href="#ma0f96a9b0c" x="44.210938" y="198.970368" style="stroke: #000000; stroke-width: 0.8"/>
      </g>
     </g>
     <g id="text_9">
      <!-- -6 -->
      <g transform="translate(27.240625 202.769587) scale(0.1 -0.1)">
       <use xlink:href="#DejaVuSans-2d"/>
       <use xlink:href="#DejaVuSans-36" x="36.083984"/>
      </g>
     </g>
    </g>
    <g id="ytick_4">
     <g id="line2d_9">
      <g>
       <use xlink:href="#ma0f96a9b0c" x="44.210938" y="154.356298" style="stroke: #000000; stroke-width: 0.8"/>
      </g>
     </g>
     <g id="text_10">
      <!-- -4 -->
      <g transform="translate(27.240625 158.155516) scale(0.1 -0.1)">
       <use xlink:href="#DejaVuSans-2d"/>
       <use xlink:href="#DejaVuSans-34" x="36.083984"/>
      </g>
     </g>
    </g>
    <g id="ytick_5">
     <g id="line2d_10">
      <g>
       <use xlink:href="#ma0f96a9b0c" x="44.210938" y="109.742227" style="stroke: #000000; stroke-width: 0.8"/>
      </g>
     </g>
     <g id="text_11">
      <!-- -2 -->
      <g transform="translate(27.240625 113.541446) scale(0.1 -0.1)">
       <use xlink:href="#DejaVuSans-2d"/>
       <use xlink:href="#DejaVuSans-32" x="36.083984"/>
      </g>
     </g>
    </g>
    <g id="ytick_6">
     <g id="line2d_11">
      <g>
       <use xlink:href="#ma0f96a9b0c" x="44.210938" y="65.128156" style="stroke: #000000; stroke-width: 0.8"/>
      </g>
     </g>
     <g id="text_12">
      <!-- 0 -->
      <g transform="translate(30.848437 68.927375) scale(0.1 -0.1)">
       <use xlink:href="#DejaVuSans-30"/>
      </g>
     </g>
    </g>
    <g id="text_13">
     <!-- Im$(S_{21})$ [mV] -->
     <g transform="translate(14.798437 206.466) rotate(-90) scale(0.1 -0.1)">
      <defs>
       <path id="DejaVuSans-49" d="M 628 4666 
L 1259 4666 
L 1259 0 
L 628 0 
L 628 4666 
z
" transform="scale(0.015625)"/>
      </defs>
      <use xlink:href="#DejaVuSans-49" transform="translate(0 0.015625)"/>
      <use xlink:href="#DejaVuSans-6d" transform="translate(25.867188 0.015625)"/>
      <use xlink:href="#DejaVuSans-28" transform="translate(123.279297 0.015625)"/>
      <use xlink:href="#DejaVuSans-Oblique-53" transform="translate(162.292969 0.015625)"/>
      <use xlink:href="#DejaVuSans-32" transform="translate(225.769531 -16.390625) scale(0.7)"/>
      <use xlink:href="#DejaVuSans-31" transform="translate(270.305664 -16.390625) scale(0.7)"/>
      <use xlink:href="#DejaVuSans-29" transform="translate(317.576172 0.015625)"/>
      <use xlink:href="#DejaVuSans-20" transform="translate(356.589844 0.015625)"/>
      <use xlink:href="#DejaVuSans-5b" transform="translate(388.376953 0.015625)"/>
      <use xlink:href="#DejaVuSans-6d" transform="translate(427.390625 0.015625)"/>
      <use xlink:href="#DejaVuSans-56" transform="translate(524.802734 0.015625)"/>
      <use xlink:href="#DejaVuSans-5d" transform="translate(593.210938 0.015625)"/>
     </g>
    </g>
   </g>
   <g id="line2d_12">
    <path d="M 374.268713 293.610051 
L 370.773242 292.625844 
L 373.085434 292.277344 
L 369.660036 295.776 
L 365.745681 293.43114 
L 362.812659 293.214451 
L 360.613569 291.836386 
L 357.149237 291.572862 
L 357.791024 292.607343 
L 354.884607 290.123286 
L 351.150802 291.739254 
L 347.14323 290.673873 
L 341.182417 291.311929 
L 338.7747 291.886563 
L 337.985092 289.962949 
L 336.118388 289.322664 
L 332.913309 289.408609 
L 334.064374 288.801888 
L 332.808598 287.901397 
L 323.954054 288.213258 
L 319.726362 287.49146 
L 317.253464 288.098592 
L 313.54873 287.157224 
L 308.432286 287.930578 
L 311.675981 288.260044 
L 303.960851 284.756182 
L 299.687623 286.545128 
L 296.94231 283.460163 
L 296.715787 283.882862 
L 292.718992 284.95328 
L 291.847063 282.123581 
L 287.451705 281.502742 
L 285.332669 282.116703 
L 282.638816 278.93589 
L 277.905385 280.577042 
L 275.207476 278.714599 
L 270.911182 277.490043 
L 271.470012 277.149317 
L 266.797546 277.579814 
L 259.330812 277.023899 
L 261.960637 273.904499 
L 256.716973 275.031026 
L 251.800169 274.309302 
L 247.459414 273.528561 
L 248.200464 272.53876 
L 244.377895 272.026872 
L 243.498688 270.230443 
L 241.346366 269.852714 
L 234.371491 269.462658 
L 232.501526 265.408016 
L 229.788147 266.930702 
L 226.145094 267.59111 
L 219.709005 261.354609 
L 217.066136 264.145198 
L 216.431029 263.251996 
L 214.347984 262.303896 
L 206.640967 259.716507 
L 203.564181 256.840603 
L 203.429603 257.588554 
L 192.842735 255.442245 
L 194.298309 253.815744 
L 190.758536 251.430418 
L 181.740066 248.447743 
L 178.959358 249.07282 
L 175.672235 249.24357 
L 171.501452 244.772573 
L 168.668607 240.269732 
L 161.976885 241.635034 
L 159.403293 238.221137 
L 154.622934 235.65719 
L 148.44737 233.105254 
L 144.723031 229.382136 
L 138.93728 229.891482 
L 132.778975 224.017889 
L 126.629579 219.113877 
L 117.764735 215.999004 
L 121.154064 214.582096 
L 108.070913 209.419137 
L 105.860409 204.478098 
L 99.778222 196.531354 
L 96.352664 190.244338 
L 94.792816 182.078459 
L 86.638361 176.307762 
L 82.097848 164.670108 
L 81.521003 157.110199 
L 77.153125 142.634322 
L 80.419966 132.43692 
L 93.366551 119.289924 
L 101.319339 104.379627 
L 110.027494 88.78594 
L 131.34416 74.188326 
L 161.66991 63.243289 
L 195.186981 57.194683 
L 232.72439 55.686503 
L 265.262474 55.943198 
L 295.455159 63.257068 
L 328.23969 73.771391 
L 351.272017 88.514667 
L 365.746198 105.096871 
L 376.790487 113.218676 
L 384.125308 129.04041 
L 385.09821 147.139391 
L 374.418084 159.409459 
L 360.58589 169.978947 
L 355.97248 179.349597 
L 350.185815 189.876247 
L 336.811955 193.906455 
L 330.989577 200.143803 
L 321.174499 203.07727 
L 310.221679 204.913801 
L 304.607053 210.514159 
L 293.673799 210.66636 
L 290.471224 214.244446 
L 279.690086 214.102174 
L 265.499177 214.928417 
L 263.886477 215.701044 
L 252.684147 218.894693 
L 250.45523 212.780146 
L 244.83965 215.265414 
L 237.974854 217.428674 
L 234.45755 215.913956 
L 223.584466 215.829876 
L 218.34812 215.522617 
L 213.333405 212.729146 
L 209.77319 212.610679 
L 203.557897 212.832139 
L 199.982531 208.721726 
L 195.863168 206.066725 
L 191.862436 207.175139 
L 195.548638 209.737027 
L 187.159428 208.665883 
L 184.206521 206.782153 
L 183.88702 205.90893 
L 178.102422 204.065061 
L 176.042363 205.824681 
L 169.839478 201.617693 
L 163.353121 201.701482 
L 166.447525 199.747161 
L 162.089192 200.289296 
L 160.010362 196.14791 
L 159.036029 195.134159 
L 156.518828 196.025883 
L 149.81438 192.513594 
L 146.55255 192.349817 
L 145.601681 191.898809 
L 143.160836 191.403921 
L 143.590696 188.487914 
L 139.824679 187.806825 
L 135.048814 187.48431 
L 133.361428 184.333573 
L 126.457102 183.336385 
L 127.616082 181.500629 
L 125.342823 182.606354 
L 123.854081 179.57578 
L 120.869081 177.912009 
L 124.208818 175.522227 
L 123.82326 175.771826 
L 115.662323 172.989059 
L 114.753806 172.506715 
L 115.808632 172.28431 
L 105.668167 171.344492 
L 110.425698 170.295554 
L 109.083186 165.786005 
L 104.896336 168.753181 
L 103.859764 166.783822 
L 104.997865 160.930474 
L 102.09467 161.625245 
L 99.313365 162.423349 
L 100.400284 159.214734 
L 95.091042 159.513663 
L 94.843283 158.270969 
L 91.805112 156.410705 
L 87.497127 154.260207 
L 85.838016 154.074853 
L 88.352035 151.746267 
L 82.588673 150.229877 
L 82.872304 148.143262 
L 81.110033 144.726773 
L 79.533681 144.109519 
L 85.064673 143.970395 
L 82.435325 140.236379 
L 79.376356 144.264771 
L 75.849626 139.734274 
L 74.187732 136.082497 
L 69.101154 135.800496 
L 74.637396 136.824467 
L 75.447724 133.404176 
L 71.538738 131.215754 
L 68.554533 128.272989 
L 65.423105 125.77123 
L 67.061099 125.762294 
L 66.374134 124.86328 
L 64.373967 121.377944 
L 66.44699 119.69153 
L 63.911496 119.188965 
L 62.231984 118.340588 
L 60.443665 116.978797 
L 60.443665 116.978797 
" clip-path="url(#p5ab8f228fc)" style="fill: none; stroke: #1f77b4; stroke-width: 1.5; stroke-linecap: square"/>
    <defs>
     <path id="m42179868af" d="M 0 1.5 
C 0.397805 1.5 0.77937 1.341951 1.06066 1.06066 
C 1.341951 0.77937 1.5 0.397805 1.5 0 
C 1.5 -0.397805 1.341951 -0.77937 1.06066 -1.06066 
C 0.77937 -1.341951 0.397805 -1.5 0 -1.5 
C -0.397805 -1.5 -0.77937 -1.341951 -1.06066 -1.06066 
C -1.341951 -0.77937 -1.5 -0.397805 -1.5 0 
C -1.5 0.397805 -1.341951 0.77937 -1.06066 1.06066 
C -0.77937 1.341951 -0.397805 1.5 0 1.5 
z
" style="stroke: #1f77b4"/>
    </defs>
    <g clip-path="url(#p5ab8f228fc)">
     <use xlink:href="#m42179868af" x="374.268713" y="293.610051" style="fill: #1f77b4; stroke: #1f77b4"/>
     <use xlink:href="#m42179868af" x="370.773242" y="292.625844" style="fill: #1f77b4; stroke: #1f77b4"/>
     <use xlink:href="#m42179868af" x="373.085434" y="292.277344" style="fill: #1f77b4; stroke: #1f77b4"/>
     <use xlink:href="#m42179868af" x="369.660036" y="295.776" style="fill: #1f77b4; stroke: #1f77b4"/>
     <use xlink:href="#m42179868af" x="365.745681" y="293.43114" style="fill: #1f77b4; stroke: #1f77b4"/>
     <use xlink:href="#m42179868af" x="362.812659" y="293.214451" style="fill: #1f77b4; stroke: #1f77b4"/>
     <use xlink:href="#m42179868af" x="360.613569" y="291.836386" style="fill: #1f77b4; stroke: #1f77b4"/>
     <use xlink:href="#m42179868af" x="357.149237" y="291.572862" style="fill: #1f77b4; stroke: #1f77b4"/>
     <use xlink:href="#m42179868af" x="357.791024" y="292.607343" style="fill: #1f77b4; stroke: #1f77b4"/>
     <use xlink:href="#m42179868af" x="354.884607" y="290.123286" style="fill: #1f77b4; stroke: #1f77b4"/>
     <use xlink:href="#m42179868af" x="351.150802" y="291.739254" style="fill: #1f77b4; stroke: #1f77b4"/>
     <use xlink:href="#m42179868af" x="347.14323" y="290.673873" style="fill: #1f77b4; stroke: #1f77b4"/>
     <use xlink:href="#m42179868af" x="341.182417" y="291.311929" style="fill: #1f77b4; stroke: #1f77b4"/>
     <use xlink:href="#m42179868af" x="338.7747" y="291.886563" style="fill: #1f77b4; stroke: #1f77b4"/>
     <use xlink:href="#m42179868af" x="337.985092" y="289.962949" style="fill: #1f77b4; stroke: #1f77b4"/>
     <use xlink:href="#m42179868af" x="336.118388" y="289.322664" style="fill: #1f77b4; stroke: #1f77b4"/>
     <use xlink:href="#m42179868af" x="332.913309" y="289.408609" style="fill: #1f77b4; stroke: #1f77b4"/>
     <use xlink:href="#m42179868af" x="334.064374" y="288.801888" style="fill: #1f77b4; stroke: #1f77b4"/>
     <use xlink:href="#m42179868af" x="332.808598" y="287.901397" style="fill: #1f77b4; stroke: #1f77b4"/>
     <use xlink:href="#m42179868af" x="323.954054" y="288.213258" style="fill: #1f77b4; stroke: #1f77b4"/>
     <use xlink:href="#m42179868af" x="319.726362" y="287.49146" style="fill: #1f77b4; stroke: #1f77b4"/>
     <use xlink:href="#m42179868af" x="318.002229" y="287.877907" style="fill: #1f77b4; stroke: #1f77b4"/>
     <use xlink:href="#m42179868af" x="317.253464" y="288.098592" style="fill: #1f77b4; stroke: #1f77b4"/>
     <use xlink:href="#m42179868af" x="313.54873" y="287.157224" style="fill: #1f77b4; stroke: #1f77b4"/>
     <use xlink:href="#m42179868af" x="308.432286" y="287.930578" style="fill: #1f77b4; stroke: #1f77b4"/>
     <use xlink:href="#m42179868af" x="311.675981" y="288.260044" style="fill: #1f77b4; stroke: #1f77b4"/>
     <use xlink:href="#m42179868af" x="303.960851" y="284.756182" style="fill: #1f77b4; stroke: #1f77b4"/>
     <use xlink:href="#m42179868af" x="299.687623" y="286.545128" style="fill: #1f77b4; stroke: #1f77b4"/>
     <use xlink:href="#m42179868af" x="296.94231" y="283.460163" style="fill: #1f77b4; stroke: #1f77b4"/>
     <use xlink:href="#m42179868af" x="296.715787" y="283.882862" style="fill: #1f77b4; stroke: #1f77b4"/>
     <use xlink:href="#m42179868af" x="292.718992" y="284.95328" style="fill: #1f77b4; stroke: #1f77b4"/>
     <use xlink:href="#m42179868af" x="291.847063" y="282.123581" style="fill: #1f77b4; stroke: #1f77b4"/>
     <use xlink:href="#m42179868af" x="287.451705" y="281.502742" style="fill: #1f77b4; stroke: #1f77b4"/>
     <use xlink:href="#m42179868af" x="285.332669" y="282.116703" style="fill: #1f77b4; stroke: #1f77b4"/>
     <use xlink:href="#m42179868af" x="282.638816" y="278.93589" style="fill: #1f77b4; stroke: #1f77b4"/>
     <use xlink:href="#m42179868af" x="277.905385" y="280.577042" style="fill: #1f77b4; stroke: #1f77b4"/>
     <use xlink:href="#m42179868af" x="275.207476" y="278.714599" style="fill: #1f77b4; stroke: #1f77b4"/>
     <use xlink:href="#m42179868af" x="270.911182" y="277.490043" style="fill: #1f77b4; stroke: #1f77b4"/>
     <use xlink:href="#m42179868af" x="271.470012" y="277.149317" style="fill: #1f77b4; stroke: #1f77b4"/>
     <use xlink:href="#m42179868af" x="266.797546" y="277.579814" style="fill: #1f77b4; stroke: #1f77b4"/>
     <use xlink:href="#m42179868af" x="259.330812" y="277.023899" style="fill: #1f77b4; stroke: #1f77b4"/>
     <use xlink:href="#m42179868af" x="261.960637" y="273.904499" style="fill: #1f77b4; stroke: #1f77b4"/>
     <use xlink:href="#m42179868af" x="256.716973" y="275.031026" style="fill: #1f77b4; stroke: #1f77b4"/>
     <use xlink:href="#m42179868af" x="251.800169" y="274.309302" style="fill: #1f77b4; stroke: #1f77b4"/>
     <use xlink:href="#m42179868af" x="247.459414" y="273.528561" style="fill: #1f77b4; stroke: #1f77b4"/>
     <use xlink:href="#m42179868af" x="248.200464" y="272.53876" style="fill: #1f77b4; stroke: #1f77b4"/>
     <use xlink:href="#m42179868af" x="244.377895" y="272.026872" style="fill: #1f77b4; stroke: #1f77b4"/>
     <use xlink:href="#m42179868af" x="243.498688" y="270.230443" style="fill: #1f77b4; stroke: #1f77b4"/>
     <use xlink:href="#m42179868af" x="241.346366" y="269.852714" style="fill: #1f77b4; stroke: #1f77b4"/>
     <use xlink:href="#m42179868af" x="234.371491" y="269.462658" style="fill: #1f77b4; stroke: #1f77b4"/>
     <use xlink:href="#m42179868af" x="232.501526" y="265.408016" style="fill: #1f77b4; stroke: #1f77b4"/>
     <use xlink:href="#m42179868af" x="229.788147" y="266.930702" style="fill: #1f77b4; stroke: #1f77b4"/>
     <use xlink:href="#m42179868af" x="226.145094" y="267.59111" style="fill: #1f77b4; stroke: #1f77b4"/>
     <use xlink:href="#m42179868af" x="219.709005" y="261.354609" style="fill: #1f77b4; stroke: #1f77b4"/>
     <use xlink:href="#m42179868af" x="217.066136" y="264.145198" style="fill: #1f77b4; stroke: #1f77b4"/>
     <use xlink:href="#m42179868af" x="216.431029" y="263.251996" style="fill: #1f77b4; stroke: #1f77b4"/>
     <use xlink:href="#m42179868af" x="214.347984" y="262.303896" style="fill: #1f77b4; stroke: #1f77b4"/>
     <use xlink:href="#m42179868af" x="206.640967" y="259.716507" style="fill: #1f77b4; stroke: #1f77b4"/>
     <use xlink:href="#m42179868af" x="203.564181" y="256.840603" style="fill: #1f77b4; stroke: #1f77b4"/>
     <use xlink:href="#m42179868af" x="203.429603" y="257.588554" style="fill: #1f77b4; stroke: #1f77b4"/>
     <use xlink:href="#m42179868af" x="192.842735" y="255.442245" style="fill: #1f77b4; stroke: #1f77b4"/>
     <use xlink:href="#m42179868af" x="194.298309" y="253.815744" style="fill: #1f77b4; stroke: #1f77b4"/>
     <use xlink:href="#m42179868af" x="190.758536" y="251.430418" style="fill: #1f77b4; stroke: #1f77b4"/>
     <use xlink:href="#m42179868af" x="181.740066" y="248.447743" style="fill: #1f77b4; stroke: #1f77b4"/>
     <use xlink:href="#m42179868af" x="178.959358" y="249.07282" style="fill: #1f77b4; stroke: #1f77b4"/>
     <use xlink:href="#m42179868af" x="175.672235" y="249.24357" style="fill: #1f77b4; stroke: #1f77b4"/>
     <use xlink:href="#m42179868af" x="171.501452" y="244.772573" style="fill: #1f77b4; stroke: #1f77b4"/>
     <use xlink:href="#m42179868af" x="168.668607" y="240.269732" style="fill: #1f77b4; stroke: #1f77b4"/>
     <use xlink:href="#m42179868af" x="161.976885" y="241.635034" style="fill: #1f77b4; stroke: #1f77b4"/>
     <use xlink:href="#m42179868af" x="159.403293" y="238.221137" style="fill: #1f77b4; stroke: #1f77b4"/>
     <use xlink:href="#m42179868af" x="154.622934" y="235.65719" style="fill: #1f77b4; stroke: #1f77b4"/>
     <use xlink:href="#m42179868af" x="148.44737" y="233.105254" style="fill: #1f77b4; stroke: #1f77b4"/>
     <use xlink:href="#m42179868af" x="144.723031" y="229.382136" style="fill: #1f77b4; stroke: #1f77b4"/>
     <use xlink:href="#m42179868af" x="138.93728" y="229.891482" style="fill: #1f77b4; stroke: #1f77b4"/>
     <use xlink:href="#m42179868af" x="132.778975" y="224.017889" style="fill: #1f77b4; stroke: #1f77b4"/>
     <use xlink:href="#m42179868af" x="126.629579" y="219.113877" style="fill: #1f77b4; stroke: #1f77b4"/>
     <use xlink:href="#m42179868af" x="117.764735" y="215.999004" style="fill: #1f77b4; stroke: #1f77b4"/>
     <use xlink:href="#m42179868af" x="121.154064" y="214.582096" style="fill: #1f77b4; stroke: #1f77b4"/>
     <use xlink:href="#m42179868af" x="108.070913" y="209.419137" style="fill: #1f77b4; stroke: #1f77b4"/>
     <use xlink:href="#m42179868af" x="105.860409" y="204.478098" style="fill: #1f77b4; stroke: #1f77b4"/>
     <use xlink:href="#m42179868af" x="99.778222" y="196.531354" style="fill: #1f77b4; stroke: #1f77b4"/>
     <use xlink:href="#m42179868af" x="96.352664" y="190.244338" style="fill: #1f77b4; stroke: #1f77b4"/>
     <use xlink:href="#m42179868af" x="94.792816" y="182.078459" style="fill: #1f77b4; stroke: #1f77b4"/>
     <use xlink:href="#m42179868af" x="86.638361" y="176.307762" style="fill: #1f77b4; stroke: #1f77b4"/>
     <use xlink:href="#m42179868af" x="82.097848" y="164.670108" style="fill: #1f77b4; stroke: #1f77b4"/>
     <use xlink:href="#m42179868af" x="81.521003" y="157.110199" style="fill: #1f77b4; stroke: #1f77b4"/>
     <use xlink:href="#m42179868af" x="77.153125" y="142.634322" style="fill: #1f77b4; stroke: #1f77b4"/>
     <use xlink:href="#m42179868af" x="80.419966" y="132.43692" style="fill: #1f77b4; stroke: #1f77b4"/>
     <use xlink:href="#m42179868af" x="93.366551" y="119.289924" style="fill: #1f77b4; stroke: #1f77b4"/>
     <use xlink:href="#m42179868af" x="101.319339" y="104.379627" style="fill: #1f77b4; stroke: #1f77b4"/>
     <use xlink:href="#m42179868af" x="110.027494" y="88.78594" style="fill: #1f77b4; stroke: #1f77b4"/>
     <use xlink:href="#m42179868af" x="131.34416" y="74.188326" style="fill: #1f77b4; stroke: #1f77b4"/>
     <use xlink:href="#m42179868af" x="161.66991" y="63.243289" style="fill: #1f77b4; stroke: #1f77b4"/>
     <use xlink:href="#m42179868af" x="195.186981" y="57.194683" style="fill: #1f77b4; stroke: #1f77b4"/>
     <use xlink:href="#m42179868af" x="232.72439" y="55.686503" style="fill: #1f77b4; stroke: #1f77b4"/>
     <use xlink:href="#m42179868af" x="265.262474" y="55.943198" style="fill: #1f77b4; stroke: #1f77b4"/>
     <use xlink:href="#m42179868af" x="295.455159" y="63.257068" style="fill: #1f77b4; stroke: #1f77b4"/>
     <use xlink:href="#m42179868af" x="328.23969" y="73.771391" style="fill: #1f77b4; stroke: #1f77b4"/>
     <use xlink:href="#m42179868af" x="351.272017" y="88.514667" style="fill: #1f77b4; stroke: #1f77b4"/>
     <use xlink:href="#m42179868af" x="365.746198" y="105.096871" style="fill: #1f77b4; stroke: #1f77b4"/>
     <use xlink:href="#m42179868af" x="376.790487" y="113.218676" style="fill: #1f77b4; stroke: #1f77b4"/>
     <use xlink:href="#m42179868af" x="384.125308" y="129.04041" style="fill: #1f77b4; stroke: #1f77b4"/>
     <use xlink:href="#m42179868af" x="385.09821" y="147.139391" style="fill: #1f77b4; stroke: #1f77b4"/>
     <use xlink:href="#m42179868af" x="374.418084" y="159.409459" style="fill: #1f77b4; stroke: #1f77b4"/>
     <use xlink:href="#m42179868af" x="360.58589" y="169.978947" style="fill: #1f77b4; stroke: #1f77b4"/>
     <use xlink:href="#m42179868af" x="355.97248" y="179.349597" style="fill: #1f77b4; stroke: #1f77b4"/>
     <use xlink:href="#m42179868af" x="350.185815" y="189.876247" style="fill: #1f77b4; stroke: #1f77b4"/>
     <use xlink:href="#m42179868af" x="336.811955" y="193.906455" style="fill: #1f77b4; stroke: #1f77b4"/>
     <use xlink:href="#m42179868af" x="330.989577" y="200.143803" style="fill: #1f77b4; stroke: #1f77b4"/>
     <use xlink:href="#m42179868af" x="321.174499" y="203.07727" style="fill: #1f77b4; stroke: #1f77b4"/>
     <use xlink:href="#m42179868af" x="310.221679" y="204.913801" style="fill: #1f77b4; stroke: #1f77b4"/>
     <use xlink:href="#m42179868af" x="304.607053" y="210.514159" style="fill: #1f77b4; stroke: #1f77b4"/>
     <use xlink:href="#m42179868af" x="293.673799" y="210.66636" style="fill: #1f77b4; stroke: #1f77b4"/>
     <use xlink:href="#m42179868af" x="290.471224" y="214.244446" style="fill: #1f77b4; stroke: #1f77b4"/>
     <use xlink:href="#m42179868af" x="279.690086" y="214.102174" style="fill: #1f77b4; stroke: #1f77b4"/>
     <use xlink:href="#m42179868af" x="271.820136" y="214.564588" style="fill: #1f77b4; stroke: #1f77b4"/>
     <use xlink:href="#m42179868af" x="265.499177" y="214.928417" style="fill: #1f77b4; stroke: #1f77b4"/>
     <use xlink:href="#m42179868af" x="263.886477" y="215.701044" style="fill: #1f77b4; stroke: #1f77b4"/>
     <use xlink:href="#m42179868af" x="252.684147" y="218.894693" style="fill: #1f77b4; stroke: #1f77b4"/>
     <use xlink:href="#m42179868af" x="250.45523" y="212.780146" style="fill: #1f77b4; stroke: #1f77b4"/>
     <use xlink:href="#m42179868af" x="244.83965" y="215.265414" style="fill: #1f77b4; stroke: #1f77b4"/>
     <use xlink:href="#m42179868af" x="237.974854" y="217.428674" style="fill: #1f77b4; stroke: #1f77b4"/>
     <use xlink:href="#m42179868af" x="234.45755" y="215.913956" style="fill: #1f77b4; stroke: #1f77b4"/>
     <use xlink:href="#m42179868af" x="230.979021" y="215.863707" style="fill: #1f77b4; stroke: #1f77b4"/>
     <use xlink:href="#m42179868af" x="223.584466" y="215.829876" style="fill: #1f77b4; stroke: #1f77b4"/>
     <use xlink:href="#m42179868af" x="218.34812" y="215.522617" style="fill: #1f77b4; stroke: #1f77b4"/>
     <use xlink:href="#m42179868af" x="213.333405" y="212.729146" style="fill: #1f77b4; stroke: #1f77b4"/>
     <use xlink:href="#m42179868af" x="209.77319" y="212.610679" style="fill: #1f77b4; stroke: #1f77b4"/>
     <use xlink:href="#m42179868af" x="203.557897" y="212.832139" style="fill: #1f77b4; stroke: #1f77b4"/>
     <use xlink:href="#m42179868af" x="199.982531" y="208.721726" style="fill: #1f77b4; stroke: #1f77b4"/>
     <use xlink:href="#m42179868af" x="195.863168" y="206.066725" style="fill: #1f77b4; stroke: #1f77b4"/>
     <use xlink:href="#m42179868af" x="191.862436" y="207.175139" style="fill: #1f77b4; stroke: #1f77b4"/>
     <use xlink:href="#m42179868af" x="195.548638" y="209.737027" style="fill: #1f77b4; stroke: #1f77b4"/>
     <use xlink:href="#m42179868af" x="187.159428" y="208.665883" style="fill: #1f77b4; stroke: #1f77b4"/>
     <use xlink:href="#m42179868af" x="184.206521" y="206.782153" style="fill: #1f77b4; stroke: #1f77b4"/>
     <use xlink:href="#m42179868af" x="183.88702" y="205.90893" style="fill: #1f77b4; stroke: #1f77b4"/>
     <use xlink:href="#m42179868af" x="178.102422" y="204.065061" style="fill: #1f77b4; stroke: #1f77b4"/>
     <use xlink:href="#m42179868af" x="176.042363" y="205.824681" style="fill: #1f77b4; stroke: #1f77b4"/>
     <use xlink:href="#m42179868af" x="169.839478" y="201.617693" style="fill: #1f77b4; stroke: #1f77b4"/>
     <use xlink:href="#m42179868af" x="163.353121" y="201.701482" style="fill: #1f77b4; stroke: #1f77b4"/>
     <use xlink:href="#m42179868af" x="166.447525" y="199.747161" style="fill: #1f77b4; stroke: #1f77b4"/>
     <use xlink:href="#m42179868af" x="162.089192" y="200.289296" style="fill: #1f77b4; stroke: #1f77b4"/>
     <use xlink:href="#m42179868af" x="160.010362" y="196.14791" style="fill: #1f77b4; stroke: #1f77b4"/>
     <use xlink:href="#m42179868af" x="159.036029" y="195.134159" style="fill: #1f77b4; stroke: #1f77b4"/>
     <use xlink:href="#m42179868af" x="156.518828" y="196.025883" style="fill: #1f77b4; stroke: #1f77b4"/>
     <use xlink:href="#m42179868af" x="149.81438" y="192.513594" style="fill: #1f77b4; stroke: #1f77b4"/>
     <use xlink:href="#m42179868af" x="146.55255" y="192.349817" style="fill: #1f77b4; stroke: #1f77b4"/>
     <use xlink:href="#m42179868af" x="145.601681" y="191.898809" style="fill: #1f77b4; stroke: #1f77b4"/>
     <use xlink:href="#m42179868af" x="143.160836" y="191.403921" style="fill: #1f77b4; stroke: #1f77b4"/>
     <use xlink:href="#m42179868af" x="143.590696" y="188.487914" style="fill: #1f77b4; stroke: #1f77b4"/>
     <use xlink:href="#m42179868af" x="139.824679" y="187.806825" style="fill: #1f77b4; stroke: #1f77b4"/>
     <use xlink:href="#m42179868af" x="135.048814" y="187.48431" style="fill: #1f77b4; stroke: #1f77b4"/>
     <use xlink:href="#m42179868af" x="133.361428" y="184.333573" style="fill: #1f77b4; stroke: #1f77b4"/>
     <use xlink:href="#m42179868af" x="126.457102" y="183.336385" style="fill: #1f77b4; stroke: #1f77b4"/>
     <use xlink:href="#m42179868af" x="127.616082" y="181.500629" style="fill: #1f77b4; stroke: #1f77b4"/>
     <use xlink:href="#m42179868af" x="125.342823" y="182.606354" style="fill: #1f77b4; stroke: #1f77b4"/>
     <use xlink:href="#m42179868af" x="123.854081" y="179.57578" style="fill: #1f77b4; stroke: #1f77b4"/>
     <use xlink:href="#m42179868af" x="120.869081" y="177.912009" style="fill: #1f77b4; stroke: #1f77b4"/>
     <use xlink:href="#m42179868af" x="124.208818" y="175.522227" style="fill: #1f77b4; stroke: #1f77b4"/>
     <use xlink:href="#m42179868af" x="123.82326" y="175.771826" style="fill: #1f77b4; stroke: #1f77b4"/>
     <use xlink:href="#m42179868af" x="115.662323" y="172.989059" style="fill: #1f77b4; stroke: #1f77b4"/>
     <use xlink:href="#m42179868af" x="114.753806" y="172.506715" style="fill: #1f77b4; stroke: #1f77b4"/>
     <use xlink:href="#m42179868af" x="115.808632" y="172.28431" style="fill: #1f77b4; stroke: #1f77b4"/>
     <use xlink:href="#m42179868af" x="105.668167" y="171.344492" style="fill: #1f77b4; stroke: #1f77b4"/>
     <use xlink:href="#m42179868af" x="110.425698" y="170.295554" style="fill: #1f77b4; stroke: #1f77b4"/>
     <use xlink:href="#m42179868af" x="109.083186" y="165.786005" style="fill: #1f77b4; stroke: #1f77b4"/>
     <use xlink:href="#m42179868af" x="104.896336" y="168.753181" style="fill: #1f77b4; stroke: #1f77b4"/>
     <use xlink:href="#m42179868af" x="103.859764" y="166.783822" style="fill: #1f77b4; stroke: #1f77b4"/>
     <use xlink:href="#m42179868af" x="104.997865" y="160.930474" style="fill: #1f77b4; stroke: #1f77b4"/>
     <use xlink:href="#m42179868af" x="102.09467" y="161.625245" style="fill: #1f77b4; stroke: #1f77b4"/>
     <use xlink:href="#m42179868af" x="99.313365" y="162.423349" style="fill: #1f77b4; stroke: #1f77b4"/>
     <use xlink:href="#m42179868af" x="100.400284" y="159.214734" style="fill: #1f77b4; stroke: #1f77b4"/>
     <use xlink:href="#m42179868af" x="95.091042" y="159.513663" style="fill: #1f77b4; stroke: #1f77b4"/>
     <use xlink:href="#m42179868af" x="94.843283" y="158.270969" style="fill: #1f77b4; stroke: #1f77b4"/>
     <use xlink:href="#m42179868af" x="91.805112" y="156.410705" style="fill: #1f77b4; stroke: #1f77b4"/>
     <use xlink:href="#m42179868af" x="87.497127" y="154.260207" style="fill: #1f77b4; stroke: #1f77b4"/>
     <use xlink:href="#m42179868af" x="85.838016" y="154.074853" style="fill: #1f77b4; stroke: #1f77b4"/>
     <use xlink:href="#m42179868af" x="88.352035" y="151.746267" style="fill: #1f77b4; stroke: #1f77b4"/>
     <use xlink:href="#m42179868af" x="82.588673" y="150.229877" style="fill: #1f77b4; stroke: #1f77b4"/>
     <use xlink:href="#m42179868af" x="82.872304" y="148.143262" style="fill: #1f77b4; stroke: #1f77b4"/>
     <use xlink:href="#m42179868af" x="81.110033" y="144.726773" style="fill: #1f77b4; stroke: #1f77b4"/>
     <use xlink:href="#m42179868af" x="79.533681" y="144.109519" style="fill: #1f77b4; stroke: #1f77b4"/>
     <use xlink:href="#m42179868af" x="85.064673" y="143.970395" style="fill: #1f77b4; stroke: #1f77b4"/>
     <use xlink:href="#m42179868af" x="82.435325" y="140.236379" style="fill: #1f77b4; stroke: #1f77b4"/>
     <use xlink:href="#m42179868af" x="79.376356" y="144.264771" style="fill: #1f77b4; stroke: #1f77b4"/>
     <use xlink:href="#m42179868af" x="75.849626" y="139.734274" style="fill: #1f77b4; stroke: #1f77b4"/>
     <use xlink:href="#m42179868af" x="74.187732" y="136.082497" style="fill: #1f77b4; stroke: #1f77b4"/>
     <use xlink:href="#m42179868af" x="69.101154" y="135.800496" style="fill: #1f77b4; stroke: #1f77b4"/>
     <use xlink:href="#m42179868af" x="74.637396" y="136.824467" style="fill: #1f77b4; stroke: #1f77b4"/>
     <use xlink:href="#m42179868af" x="75.447724" y="133.404176" style="fill: #1f77b4; stroke: #1f77b4"/>
     <use xlink:href="#m42179868af" x="71.538738" y="131.215754" style="fill: #1f77b4; stroke: #1f77b4"/>
     <use xlink:href="#m42179868af" x="68.554533" y="128.272989" style="fill: #1f77b4; stroke: #1f77b4"/>
     <use xlink:href="#m42179868af" x="65.423105" y="125.77123" style="fill: #1f77b4; stroke: #1f77b4"/>
     <use xlink:href="#m42179868af" x="67.061099" y="125.762294" style="fill: #1f77b4; stroke: #1f77b4"/>
     <use xlink:href="#m42179868af" x="66.374134" y="124.86328" style="fill: #1f77b4; stroke: #1f77b4"/>
     <use xlink:href="#m42179868af" x="64.373967" y="121.377944" style="fill: #1f77b4; stroke: #1f77b4"/>
     <use xlink:href="#m42179868af" x="66.44699" y="119.69153" style="fill: #1f77b4; stroke: #1f77b4"/>
     <use xlink:href="#m42179868af" x="63.911496" y="119.188965" style="fill: #1f77b4; stroke: #1f77b4"/>
     <use xlink:href="#m42179868af" x="62.231984" y="118.340588" style="fill: #1f77b4; stroke: #1f77b4"/>
     <use xlink:href="#m42179868af" x="60.443665" y="116.978797" style="fill: #1f77b4; stroke: #1f77b4"/>
    </g>
   </g>
   <g id="line2d_13">
    <path d="M 381.099304 294.472961 
L 369.082953 293.806218 
L 356.976717 292.911053 
L 344.77421 291.780665 
L 333.054775 290.477783 
L 321.228449 288.944985 
L 309.280349 287.170984 
L 297.799085 285.249214 
L 286.168565 283.080987 
L 274.360998 280.645821 
L 262.979527 278.068304 
L 252.020973 275.364739 
L 240.818092 272.365383 
L 230.00632 269.232164 
L 219.58787 265.976187 
L 209.571171 262.609421 
L 199.972334 259.146167 
L 190.816399 255.604881 
L 182.138131 252.01031 
L 173.982083 248.395788 
L 166.401682 244.805418 
L 159.457163 241.295701 
L 152.307121 237.431591 
L 145.877095 233.708376 
L 139.285451 229.609275 
L 133.512959 225.746628 
L 128.625078 222.243594 
L 123.679476 218.445942 
L 118.694779 214.313999 
L 114.696974 210.737144 
L 110.710995 206.890396 
L 106.762656 202.7439 
L 103.846148 199.417467 
L 100.987699 195.888518 
L 98.20924 192.140657 
L 95.53739 188.156436 
L 93.004363 183.91747 
L 90.64903 179.404638 
L 89.200249 176.234295 
L 87.86711 172.927764 
L 86.667724 169.479362 
L 85.622444 165.883622 
L 84.754091 162.135439 
L 84.088181 158.230247 
L 83.653151 154.164237 
L 83.480581 149.934621 
L 83.605378 145.539948 
L 84.065933 140.980485 
L 84.904204 136.258662 
L 86.165712 131.379582 
L 87.899411 126.35161 
L 88.959497 123.785456 
L 90.157378 121.187028 
L 91.499968 118.558592 
L 92.994293 115.90275 
L 94.647464 113.222464 
L 96.466636 110.521082 
L 98.458965 107.802361 
L 100.631558 105.070493 
L 102.991411 102.330122 
L 105.545352 99.586366 
L 108.299959 96.844836 
L 111.261491 94.111647 
L 114.435791 91.393433 
L 117.828198 88.697345 
L 121.443443 86.031058 
L 125.285545 83.402761 
L 129.357693 80.821139 
L 133.662138 78.295356 
L 138.20007 75.835018 
L 142.9715 73.450132 
L 147.975147 71.151056 
L 153.208325 68.948426 
L 158.666836 66.853092 
L 164.344886 64.87602 
L 170.234995 63.028201 
L 176.327943 61.320541 
L 182.612726 59.763744 
L 189.076537 58.368185 
L 195.704778 57.143782 
L 202.481095 56.099863 
L 209.387451 55.24503 
L 216.404222 54.587027 
L 223.510333 54.132615 
L 230.683418 53.887455 
L 237.900018 53.856 
L 245.135798 54.041407 
L 252.365788 54.445466 
L 259.56465 55.068542 
L 266.706944 55.909556 
L 273.767411 56.965967 
L 280.721255 58.233798 
L 287.544417 59.707677 
L 294.213831 61.380899 
L 300.707675 63.245512 
L 307.005584 65.292427 
L 313.088844 67.511535 
L 318.940548 69.891842 
L 324.545724 72.421614 
L 329.891423 75.088531 
L 334.966771 77.879831 
L 339.762991 80.78247 
L 344.273384 83.783265 
L 348.493286 86.869035 
L 352.419996 90.026734 
L 356.052679 93.243567 
L 359.392252 96.507098 
L 362.441248 99.805345 
L 365.203681 103.126856 
L 367.684888 106.460775 
L 369.891379 109.796891 
L 371.830682 113.125675 
L 373.511189 116.438304 
L 374.942008 119.726676 
L 376.132826 122.98341 
L 377.09377 126.201839 
L 377.835289 129.375996 
L 378.368037 132.500595 
L 378.702775 135.571 
L 378.850277 138.5832 
L 378.821248 141.533768 
L 378.626259 144.419833 
L 378.275682 147.239035 
L 377.779644 149.989493 
L 377.147981 152.669762 
L 376.390208 155.278799 
L 375.515492 157.815925 
L 374.53263 160.28079 
L 373.45004 162.673337 
L 371.017392 167.242542 
L 368.277043 171.527825 
L 365.282263 175.536341 
L 362.080319 179.277371 
L 358.712815 182.761694 
L 355.216106 186.001081 
L 351.621752 189.007879 
L 347.95698 191.79468 
L 344.245137 194.374075 
L 340.50613 196.758455 
L 336.756828 198.95987 
L 331.144005 201.944197 
L 325.577918 204.579852 
L 320.087509 206.900984 
L 314.694084 208.938811 
L 309.412875 210.721663 
L 304.25432 212.275116 
L 297.578159 214.028943 
L 291.139674 215.463592 
L 284.940389 216.620468 
L 278.977293 217.535196 
L 271.846128 218.384339 
L 265.058428 218.953259 
L 258.595647 219.283896 
L 251.241561 219.414781 
L 244.293119 219.301799 
L 237.71754 218.984788 
L 230.476316 218.399814 
L 223.655869 217.62202 
L 217.2158 216.684046 
L 210.275449 215.449112 
L 203.73762 214.069663 
L 196.812629 212.375 
L 190.294563 210.554948 
L 183.477263 208.410957 
L 177.059003 206.160275 
L 170.409486 203.58176 
L 164.144412 200.912682 
L 157.701945 197.913681 
L 151.627219 194.83691 
L 145.884613 191.693039 
L 140.003805 188.221146 
L 134.446221 184.688767 
L 128.792406 180.824702 
L 123.45536 176.905018 
L 118.41215 172.935203 
L 113.312998 168.631357 
L 108.5093 164.279893 
L 103.98444 159.884843 
L 99.724413 155.44973 
L 95.458954 150.678316 
L 91.469129 145.868341 
L 87.744587 141.022982 
L 84.276506 136.145207 
L 81.057326 131.237828 
L 78.080528 126.303542 
L 75.340462 121.344955 
L 72.832201 116.36461 
L 72.240837 115.116416 
L 72.240837 115.116416 
" clip-path="url(#p5ab8f228fc)" style="fill: none; stroke: #d62728; stroke-width: 1.5; stroke-linecap: square"/>
   </g>
   <g id="patch_3">
    <path d="M 44.210938 307.872 
L 44.210938 41.76 
" style="fill: none; stroke: #000000; stroke-width: 0.8; stroke-linejoin: miter; stroke-linecap: square"/>
   </g>
   <g id="patch_4">
    <path d="M 401.330938 307.872 
L 401.330938 41.76 
" style="fill: none; stroke: #000000; stroke-width: 0.8; stroke-linejoin: miter; stroke-linecap: square"/>
   </g>
   <g id="patch_5">
    <path d="M 44.210938 307.872 
L 401.330938 307.872 
" style="fill: none; stroke: #000000; stroke-width: 0.8; stroke-linejoin: miter; stroke-linecap: square"/>
   </g>
   <g id="patch_6">
    <path d="M 44.210938 41.76 
L 401.330938 41.76 
" style="fill: none; stroke: #000000; stroke-width: 0.8; stroke-linejoin: miter; stroke-linecap: square"/>
   </g>
   <g id="text_14">
    <g id="patch_7">
     <path d="M 419.186937 102.337163 
L 564.986938 102.337163 
Q 568.986938 102.337163 568.986938 98.337163 
L 568.986938 55.0656 
Q 568.986938 51.0656 564.986938 51.0656 
L 419.186937 51.0656 
Q 415.186937 51.0656 415.186937 55.0656 
L 415.186937 98.337163 
Q 415.186937 102.337163 419.186937 102.337163 
z
" style="fill: #ffffff; opacity: 0.5; stroke: #000000; stroke-linejoin: miter"/>
    </g>
    <!-- Summary -->
    <g transform="translate(419.186937 62.664038) scale(0.1 -0.1)">
     <defs>
      <path id="DejaVuSans-53" d="M 3425 4513 
L 3425 3897 
Q 3066 4069 2747 4153 
Q 2428 4238 2131 4238 
Q 1616 4238 1336 4038 
Q 1056 3838 1056 3469 
Q 1056 3159 1242 3001 
Q 1428 2844 1947 2747 
L 2328 2669 
Q 3034 2534 3370 2195 
Q 3706 1856 3706 1288 
Q 3706 609 3251 259 
Q 2797 -91 1919 -91 
Q 1588 -91 1214 -16 
Q 841 59 441 206 
L 441 856 
Q 825 641 1194 531 
Q 1563 422 1919 422 
Q 2459 422 2753 634 
Q 3047 847 3047 1241 
Q 3047 1584 2836 1778 
Q 2625 1972 2144 2069 
L 1759 2144 
Q 1053 2284 737 2584 
Q 422 2884 422 3419 
Q 422 4038 858 4394 
Q 1294 4750 2059 4750 
Q 2388 4750 2728 4690 
Q 3069 4631 3425 4513 
z
" transform="scale(0.015625)"/>
      <path id="DejaVuSans-75" d="M 544 1381 
L 544 3500 
L 1119 3500 
L 1119 1403 
Q 1119 906 1312 657 
Q 1506 409 1894 409 
Q 2359 409 2629 706 
Q 2900 1003 2900 1516 
L 2900 3500 
L 3475 3500 
L 3475 0 
L 2900 0 
L 2900 538 
Q 2691 219 2414 64 
Q 2138 -91 1772 -91 
Q 1169 -91 856 284 
Q 544 659 544 1381 
z
M 1991 3584 
L 1991 3584 
z
" transform="scale(0.015625)"/>
      <path id="DejaVuSans-61" d="M 2194 1759 
Q 1497 1759 1228 1600 
Q 959 1441 959 1056 
Q 959 750 1161 570 
Q 1363 391 1709 391 
Q 2188 391 2477 730 
Q 2766 1069 2766 1631 
L 2766 1759 
L 2194 1759 
z
M 3341 1997 
L 3341 0 
L 2766 0 
L 2766 531 
Q 2569 213 2275 61 
Q 1981 -91 1556 -91 
Q 1019 -91 701 211 
Q 384 513 384 1019 
Q 384 1609 779 1909 
Q 1175 2209 1959 2209 
L 2766 2209 
L 2766 2266 
Q 2766 2663 2505 2880 
Q 2244 3097 1772 3097 
Q 1472 3097 1187 3025 
Q 903 2953 641 2809 
L 641 3341 
Q 956 3463 1253 3523 
Q 1550 3584 1831 3584 
Q 2591 3584 2966 3190 
Q 3341 2797 3341 1997 
z
" transform="scale(0.015625)"/>
      <path id="DejaVuSans-72" d="M 2631 2963 
Q 2534 3019 2420 3045 
Q 2306 3072 2169 3072 
Q 1681 3072 1420 2755 
Q 1159 2438 1159 1844 
L 1159 0 
L 581 0 
L 581 3500 
L 1159 3500 
L 1159 2956 
Q 1341 3275 1631 3429 
Q 1922 3584 2338 3584 
Q 2397 3584 2469 3576 
Q 2541 3569 2628 3553 
L 2631 2963 
z
" transform="scale(0.015625)"/>
      <path id="DejaVuSans-79" d="M 2059 -325 
Q 1816 -950 1584 -1140 
Q 1353 -1331 966 -1331 
L 506 -1331 
L 506 -850 
L 844 -850 
Q 1081 -850 1212 -737 
Q 1344 -625 1503 -206 
L 1606 56 
L 191 3500 
L 800 3500 
L 1894 763 
L 2988 3500 
L 3597 3500 
L 2059 -325 
z
" transform="scale(0.015625)"/>
     </defs>
     <use xlink:href="#DejaVuSans-53"/>
     <use xlink:href="#DejaVuSans-75" x="63.476562"/>
     <use xlink:href="#DejaVuSans-6d" x="126.855469"/>
     <use xlink:href="#DejaVuSans-6d" x="224.267578"/>
     <use xlink:href="#DejaVuSans-61" x="321.679688"/>
     <use xlink:href="#DejaVuSans-72" x="382.958984"/>
     <use xlink:href="#DejaVuSans-79" x="424.072266"/>
    </g>
    <!-- $Q_I$: 15.10$\pm$0.28 k -->
    <g transform="translate(419.186937 73.86185) scale(0.1 -0.1)">
     <defs>
      <path id="DejaVuSans-Oblique-51" d="M 2309 -84 
Q 2275 -88 2237 -89 
Q 2200 -91 2125 -91 
Q 1250 -91 756 411 
Q 263 913 263 1797 
Q 263 2319 452 2844 
Q 641 3369 978 3788 
Q 1369 4269 1858 4509 
Q 2347 4750 2938 4750 
Q 3794 4750 4287 4245 
Q 4781 3741 4781 2869 
Q 4781 1928 4265 1147 
Q 3750 366 2919 44 
L 3553 -825 
L 2847 -825 
L 2309 -84 
z
M 2919 4238 
Q 2400 4238 2003 3986 
Q 1606 3734 1313 3219 
Q 1125 2891 1026 2522 
Q 928 2153 928 1778 
Q 928 1128 1239 775 
Q 1550 422 2119 422 
Q 2631 422 3032 676 
Q 3434 931 3719 1434 
Q 3909 1772 4009 2142 
Q 4109 2513 4109 2881 
Q 4109 3528 3796 3883 
Q 3484 4238 2919 4238 
z
" transform="scale(0.015625)"/>
      <path id="DejaVuSans-Oblique-49" d="M 1081 4666 
L 1716 4666 
L 806 0 
L 172 0 
L 1081 4666 
z
" transform="scale(0.015625)"/>
      <path id="DejaVuSans-3a" d="M 750 794 
L 1409 794 
L 1409 0 
L 750 0 
L 750 794 
z
M 750 3309 
L 1409 3309 
L 1409 2516 
L 750 2516 
L 750 3309 
z
" transform="scale(0.015625)"/>
      <path id="DejaVuSans-35" d="M 691 4666 
L 3169 4666 
L 3169 4134 
L 1269 4134 
L 1269 2991 
Q 1406 3038 1543 3061 
Q 1681 3084 1819 3084 
Q 2600 3084 3056 2656 
Q 3513 2228 3513 1497 
Q 3513 744 3044 326 
Q 2575 -91 1722 -91 
Q 1428 -91 1123 -41 
Q 819 9 494 109 
L 494 744 
Q 775 591 1075 516 
Q 1375 441 1709 441 
Q 2250 441 2565 725 
Q 2881 1009 2881 1497 
Q 2881 1984 2565 2268 
Q 2250 2553 1709 2553 
Q 1456 2553 1204 2497 
Q 953 2441 691 2322 
L 691 4666 
z
" transform="scale(0.015625)"/>
      <path id="DejaVuSans-2e" d="M 684 794 
L 1344 794 
L 1344 0 
L 684 0 
L 684 794 
z
" transform="scale(0.015625)"/>
      <path id="DejaVuSans-b1" d="M 2944 4013 
L 2944 2803 
L 4684 2803 
L 4684 2272 
L 2944 2272 
L 2944 1063 
L 2419 1063 
L 2419 2272 
L 678 2272 
L 678 2803 
L 2419 2803 
L 2419 4013 
L 2944 4013 
z
M 678 531 
L 4684 531 
L 4684 0 
L 678 0 
L 678 531 
z
" transform="scale(0.015625)"/>
      <path id="DejaVuSans-6b" d="M 581 4863 
L 1159 4863 
L 1159 1991 
L 2875 3500 
L 3609 3500 
L 1753 1863 
L 3688 0 
L 2938 0 
L 1159 1709 
L 1159 0 
L 581 0 
L 581 4863 
z
" transform="scale(0.015625)"/>
     </defs>
     <use xlink:href="#DejaVuSans-Oblique-51" transform="translate(0 0.015625)"/>
     <use xlink:href="#DejaVuSans-Oblique-49" transform="translate(78.710938 -16.390625) scale(0.7)"/>
     <use xlink:href="#DejaVuSans-3a" transform="translate(102.089844 0.015625)"/>
     <use xlink:href="#DejaVuSans-20" transform="translate(135.78125 0.015625)"/>
     <use xlink:href="#DejaVuSans-31" transform="translate(167.568359 0.015625)"/>
     <use xlink:href="#DejaVuSans-35" transform="translate(231.191406 0.015625)"/>
     <use xlink:href="#DejaVuSans-2e" transform="translate(294.814453 0.015625)"/>
     <use xlink:href="#DejaVuSans-31" transform="translate(326.601562 0.015625)"/>
     <use xlink:href="#DejaVuSans-30" transform="translate(390.224609 0.015625)"/>
     <use xlink:href="#DejaVuSans-b1" transform="translate(453.847656 0.015625)"/>
     <use xlink:href="#DejaVuSans-30" transform="translate(537.636719 0.015625)"/>
     <use xlink:href="#DejaVuSans-2e" transform="translate(601.259766 0.015625)"/>
     <use xlink:href="#DejaVuSans-32" transform="translate(627.546875 0.015625)"/>
     <use xlink:href="#DejaVuSans-38" transform="translate(691.169922 0.015625)"/>
     <use xlink:href="#DejaVuSans-20" transform="translate(754.792969 0.015625)"/>
     <use xlink:href="#DejaVuSans-6b" transform="translate(786.580078 0.015625)"/>
    </g>
    <!-- $Q_C$: 4.509$\pm$0.024 k -->
    <g transform="translate(419.186937 85.059663) scale(0.1 -0.1)">
     <defs>
      <path id="DejaVuSans-Oblique-43" d="M 4447 4306 
L 4319 3641 
Q 4019 3944 3683 4091 
Q 3347 4238 2956 4238 
Q 2422 4238 2017 3981 
Q 1613 3725 1319 3200 
Q 1131 2863 1032 2486 
Q 934 2109 934 1728 
Q 934 1091 1264 756 
Q 1594 422 2222 422 
Q 2656 422 3056 561 
Q 3456 700 3834 978 
L 3688 231 
Q 3316 72 2936 -9 
Q 2556 -91 2175 -91 
Q 1278 -91 773 396 
Q 269 884 269 1753 
Q 269 2309 461 2846 
Q 653 3384 1013 3828 
Q 1394 4300 1883 4525 
Q 2372 4750 3022 4750 
Q 3422 4750 3780 4639 
Q 4138 4528 4447 4306 
z
" transform="scale(0.015625)"/>
      <path id="DejaVuSans-39" d="M 703 97 
L 703 672 
Q 941 559 1184 500 
Q 1428 441 1663 441 
Q 2288 441 2617 861 
Q 2947 1281 2994 2138 
Q 2813 1869 2534 1725 
Q 2256 1581 1919 1581 
Q 1219 1581 811 2004 
Q 403 2428 403 3163 
Q 403 3881 828 4315 
Q 1253 4750 1959 4750 
Q 2769 4750 3195 4129 
Q 3622 3509 3622 2328 
Q 3622 1225 3098 567 
Q 2575 -91 1691 -91 
Q 1453 -91 1209 -44 
Q 966 3 703 97 
z
M 1959 2075 
Q 2384 2075 2632 2365 
Q 2881 2656 2881 3163 
Q 2881 3666 2632 3958 
Q 2384 4250 1959 4250 
Q 1534 4250 1286 3958 
Q 1038 3666 1038 3163 
Q 1038 2656 1286 2365 
Q 1534 2075 1959 2075 
z
" transform="scale(0.015625)"/>
     </defs>
     <use xlink:href="#DejaVuSans-Oblique-51" transform="translate(0 0.015625)"/>
     <use xlink:href="#DejaVuSans-Oblique-43" transform="translate(78.710938 -16.390625) scale(0.7)"/>
     <use xlink:href="#DejaVuSans-3a" transform="translate(130.322266 0.015625)"/>
     <use xlink:href="#DejaVuSans-20" transform="translate(164.013672 0.015625)"/>
     <use xlink:href="#DejaVuSans-34" transform="translate(195.800781 0.015625)"/>
     <use xlink:href="#DejaVuSans-2e" transform="translate(259.423828 0.015625)"/>
     <use xlink:href="#DejaVuSans-35" transform="translate(291.210938 0.015625)"/>
     <use xlink:href="#DejaVuSans-30" transform="translate(354.833984 0.015625)"/>
     <use xlink:href="#DejaVuSans-39" transform="translate(418.457031 0.015625)"/>
     <use xlink:href="#DejaVuSans-b1" transform="translate(482.080078 0.015625)"/>
     <use xlink:href="#DejaVuSans-30" transform="translate(565.869141 0.015625)"/>
     <use xlink:href="#DejaVuSans-2e" transform="translate(629.492188 0.015625)"/>
     <use xlink:href="#DejaVuSans-30" transform="translate(661.279297 0.015625)"/>
     <use xlink:href="#DejaVuSans-32" transform="translate(724.902344 0.015625)"/>
     <use xlink:href="#DejaVuSans-34" transform="translate(788.525391 0.015625)"/>
     <use xlink:href="#DejaVuSans-20" transform="translate(852.148438 0.015625)"/>
     <use xlink:href="#DejaVuSans-6b" transform="translate(883.935547 0.015625)"/>
    </g>
    <!-- $f_{res}$: 5.9134846$\pm$5.4e-06 GHz -->
    <g transform="translate(419.186937 96.257475) scale(0.1 -0.1)">
     <defs>
      <path id="DejaVuSans-Oblique-66" d="M 3059 4863 
L 2969 4384 
L 2419 4384 
Q 2106 4384 1964 4261 
Q 1822 4138 1753 3809 
L 1691 3500 
L 2638 3500 
L 2553 3053 
L 1606 3053 
L 1013 0 
L 434 0 
L 1031 3053 
L 481 3053 
L 563 3500 
L 1113 3500 
L 1159 3744 
Q 1278 4363 1576 4613 
Q 1875 4863 2516 4863 
L 3059 4863 
z
" transform="scale(0.015625)"/>
      <path id="DejaVuSans-Oblique-72" d="M 2853 2969 
Q 2766 3016 2653 3041 
Q 2541 3066 2413 3066 
Q 1953 3066 1609 2717 
Q 1266 2369 1153 1784 
L 800 0 
L 225 0 
L 909 3500 
L 1484 3500 
L 1375 2956 
Q 1603 3259 1920 3421 
Q 2238 3584 2597 3584 
Q 2691 3584 2781 3573 
Q 2872 3563 2963 3538 
L 2853 2969 
z
" transform="scale(0.015625)"/>
      <path id="DejaVuSans-Oblique-65" d="M 3078 2063 
Q 3088 2113 3092 2166 
Q 3097 2219 3097 2272 
Q 3097 2653 2873 2875 
Q 2650 3097 2266 3097 
Q 1838 3097 1509 2826 
Q 1181 2556 1013 2059 
L 3078 2063 
z
M 3578 1613 
L 903 1613 
Q 884 1494 878 1425 
Q 872 1356 872 1306 
Q 872 872 1139 634 
Q 1406 397 1894 397 
Q 2269 397 2603 481 
Q 2938 566 3225 728 
L 3116 159 
Q 2806 34 2476 -28 
Q 2147 -91 1806 -91 
Q 1078 -91 686 257 
Q 294 606 294 1247 
Q 294 1794 489 2264 
Q 684 2734 1063 3103 
Q 1306 3334 1642 3459 
Q 1978 3584 2356 3584 
Q 2950 3584 3301 3228 
Q 3653 2872 3653 2272 
Q 3653 2128 3634 1964 
Q 3616 1800 3578 1613 
z
" transform="scale(0.015625)"/>
      <path id="DejaVuSans-Oblique-73" d="M 3200 3397 
L 3091 2853 
Q 2863 2978 2609 3040 
Q 2356 3103 2088 3103 
Q 1634 3103 1373 2948 
Q 1113 2794 1113 2528 
Q 1113 2219 1719 2053 
Q 1766 2041 1788 2034 
L 1972 1978 
Q 2547 1819 2739 1644 
Q 2931 1469 2931 1166 
Q 2931 609 2489 259 
Q 2047 -91 1331 -91 
Q 1053 -91 747 -37 
Q 441 16 72 128 
L 184 722 
Q 500 559 806 475 
Q 1113 391 1394 391 
Q 1816 391 2080 572 
Q 2344 753 2344 1031 
Q 2344 1331 1650 1516 
L 1591 1531 
L 1394 1581 
Q 956 1697 753 1886 
Q 550 2075 550 2369 
Q 550 2928 970 3256 
Q 1391 3584 2113 3584 
Q 2397 3584 2667 3537 
Q 2938 3491 3200 3397 
z
" transform="scale(0.015625)"/>
      <path id="DejaVuSans-33" d="M 2597 2516 
Q 3050 2419 3304 2112 
Q 3559 1806 3559 1356 
Q 3559 666 3084 287 
Q 2609 -91 1734 -91 
Q 1441 -91 1130 -33 
Q 819 25 488 141 
L 488 750 
Q 750 597 1062 519 
Q 1375 441 1716 441 
Q 2309 441 2620 675 
Q 2931 909 2931 1356 
Q 2931 1769 2642 2001 
Q 2353 2234 1838 2234 
L 1294 2234 
L 1294 2753 
L 1863 2753 
Q 2328 2753 2575 2939 
Q 2822 3125 2822 3475 
Q 2822 3834 2567 4026 
Q 2313 4219 1838 4219 
Q 1578 4219 1281 4162 
Q 984 4106 628 3988 
L 628 4550 
Q 988 4650 1302 4700 
Q 1616 4750 1894 4750 
Q 2613 4750 3031 4423 
Q 3450 4097 3450 3541 
Q 3450 3153 3228 2886 
Q 3006 2619 2597 2516 
z
" transform="scale(0.015625)"/>
      <path id="DejaVuSans-47" d="M 3809 666 
L 3809 1919 
L 2778 1919 
L 2778 2438 
L 4434 2438 
L 4434 434 
Q 4069 175 3628 42 
Q 3188 -91 2688 -91 
Q 1594 -91 976 548 
Q 359 1188 359 2328 
Q 359 3472 976 4111 
Q 1594 4750 2688 4750 
Q 3144 4750 3555 4637 
Q 3966 4525 4313 4306 
L 4313 3634 
Q 3963 3931 3569 4081 
Q 3175 4231 2741 4231 
Q 1884 4231 1454 3753 
Q 1025 3275 1025 2328 
Q 1025 1384 1454 906 
Q 1884 428 2741 428 
Q 3075 428 3337 486 
Q 3600 544 3809 666 
z
" transform="scale(0.015625)"/>
      <path id="DejaVuSans-48" d="M 628 4666 
L 1259 4666 
L 1259 2753 
L 3553 2753 
L 3553 4666 
L 4184 4666 
L 4184 0 
L 3553 0 
L 3553 2222 
L 1259 2222 
L 1259 0 
L 628 0 
L 628 4666 
z
" transform="scale(0.015625)"/>
      <path id="DejaVuSans-7a" d="M 353 3500 
L 3084 3500 
L 3084 2975 
L 922 459 
L 3084 459 
L 3084 0 
L 275 0 
L 275 525 
L 2438 3041 
L 353 3041 
L 353 3500 
z
" transform="scale(0.015625)"/>
     </defs>
     <use xlink:href="#DejaVuSans-Oblique-66" transform="translate(0 0.015625)"/>
     <use xlink:href="#DejaVuSans-Oblique-72" transform="translate(35.205078 -16.390625) scale(0.7)"/>
     <use xlink:href="#DejaVuSans-Oblique-65" transform="translate(63.984375 -16.390625) scale(0.7)"/>
     <use xlink:href="#DejaVuSans-Oblique-73" transform="translate(107.050781 -16.390625) scale(0.7)"/>
     <use xlink:href="#DejaVuSans-3a" transform="translate(146.254883 0.015625)"/>
     <use xlink:href="#DejaVuSans-20" transform="translate(179.946289 0.015625)"/>
     <use xlink:href="#DejaVuSans-35" transform="translate(211.733398 0.015625)"/>
     <use xlink:href="#DejaVuSans-2e" transform="translate(275.356445 0.015625)"/>
     <use xlink:href="#DejaVuSans-39" transform="translate(307.143555 0.015625)"/>
     <use xlink:href="#DejaVuSans-31" transform="translate(370.766602 0.015625)"/>
     <use xlink:href="#DejaVuSans-33" transform="translate(434.389648 0.015625)"/>
     <use xlink:href="#DejaVuSans-34" transform="translate(498.012695 0.015625)"/>
     <use xlink:href="#DejaVuSans-38" transform="translate(561.635742 0.015625)"/>
     <use xlink:href="#DejaVuSans-34" transform="translate(625.258789 0.015625)"/>
     <use xlink:href="#DejaVuSans-36" transform="translate(688.881836 0.015625)"/>
     <use xlink:href="#DejaVuSans-b1" transform="translate(752.504883 0.015625)"/>
     <use xlink:href="#DejaVuSans-35" transform="translate(836.293945 0.015625)"/>
     <use xlink:href="#DejaVuSans-2e" transform="translate(899.916992 0.015625)"/>
     <use xlink:href="#DejaVuSans-34" transform="translate(931.704102 0.015625)"/>
     <use xlink:href="#DejaVuSans-65" transform="translate(995.327148 0.015625)"/>
     <use xlink:href="#DejaVuSans-2d" transform="translate(1056.850586 0.015625)"/>
     <use xlink:href="#DejaVuSans-30" transform="translate(1092.93457 0.015625)"/>
     <use xlink:href="#DejaVuSans-36" transform="translate(1156.557617 0.015625)"/>
     <use xlink:href="#DejaVuSans-20" transform="translate(1220.180664 0.015625)"/>
     <use xlink:href="#DejaVuSans-47" transform="translate(1251.967773 0.015625)"/>
     <use xlink:href="#DejaVuSans-48" transform="translate(1329.458008 0.015625)"/>
     <use xlink:href="#DejaVuSans-7a" transform="translate(1404.65332 0.015625)"/>
    </g>
   </g>
  </g>
  <g id="text_15">
   <!-- S21 resonator spectroscopy -->
   <g transform="translate(133.226562 16.318125) scale(0.12 -0.12)">
    <defs>
     <path id="DejaVuSans-73" d="M 2834 3397 
L 2834 2853 
Q 2591 2978 2328 3040 
Q 2066 3103 1784 3103 
Q 1356 3103 1142 2972 
Q 928 2841 928 2578 
Q 928 2378 1081 2264 
Q 1234 2150 1697 2047 
L 1894 2003 
Q 2506 1872 2764 1633 
Q 3022 1394 3022 966 
Q 3022 478 2636 193 
Q 2250 -91 1575 -91 
Q 1294 -91 989 -36 
Q 684 19 347 128 
L 347 722 
Q 666 556 975 473 
Q 1284 391 1588 391 
Q 1994 391 2212 530 
Q 2431 669 2431 922 
Q 2431 1156 2273 1281 
Q 2116 1406 1581 1522 
L 1381 1569 
Q 847 1681 609 1914 
Q 372 2147 372 2553 
Q 372 3047 722 3315 
Q 1072 3584 1716 3584 
Q 2034 3584 2315 3537 
Q 2597 3491 2834 3397 
z
" transform="scale(0.015625)"/>
     <path id="DejaVuSans-6f" d="M 1959 3097 
Q 1497 3097 1228 2736 
Q 959 2375 959 1747 
Q 959 1119 1226 758 
Q 1494 397 1959 397 
Q 2419 397 2687 759 
Q 2956 1122 2956 1747 
Q 2956 2369 2687 2733 
Q 2419 3097 1959 3097 
z
M 1959 3584 
Q 2709 3584 3137 3096 
Q 3566 2609 3566 1747 
Q 3566 888 3137 398 
Q 2709 -91 1959 -91 
Q 1206 -91 779 398 
Q 353 888 353 1747 
Q 353 2609 779 3096 
Q 1206 3584 1959 3584 
z
" transform="scale(0.015625)"/>
     <path id="DejaVuSans-6e" d="M 3513 2113 
L 3513 0 
L 2938 0 
L 2938 2094 
Q 2938 2591 2744 2837 
Q 2550 3084 2163 3084 
Q 1697 3084 1428 2787 
Q 1159 2491 1159 1978 
L 1159 0 
L 581 0 
L 581 3500 
L 1159 3500 
L 1159 2956 
Q 1366 3272 1645 3428 
Q 1925 3584 2291 3584 
Q 2894 3584 3203 3211 
Q 3513 2838 3513 2113 
z
" transform="scale(0.015625)"/>
     <path id="DejaVuSans-74" d="M 1172 4494 
L 1172 3500 
L 2356 3500 
L 2356 3053 
L 1172 3053 
L 1172 1153 
Q 1172 725 1289 603 
Q 1406 481 1766 481 
L 2356 481 
L 2356 0 
L 1766 0 
Q 1100 0 847 248 
Q 594 497 594 1153 
L 594 3053 
L 172 3053 
L 172 3500 
L 594 3500 
L 594 4494 
L 1172 4494 
z
" transform="scale(0.015625)"/>
     <path id="DejaVuSans-70" d="M 1159 525 
L 1159 -1331 
L 581 -1331 
L 581 3500 
L 1159 3500 
L 1159 2969 
Q 1341 3281 1617 3432 
Q 1894 3584 2278 3584 
Q 2916 3584 3314 3078 
Q 3713 2572 3713 1747 
Q 3713 922 3314 415 
Q 2916 -91 2278 -91 
Q 1894 -91 1617 61 
Q 1341 213 1159 525 
z
M 3116 1747 
Q 3116 2381 2855 2742 
Q 2594 3103 2138 3103 
Q 1681 3103 1420 2742 
Q 1159 2381 1159 1747 
Q 1159 1113 1420 752 
Q 1681 391 2138 391 
Q 2594 391 2855 752 
Q 3116 1113 3116 1747 
z
" transform="scale(0.015625)"/>
     <path id="DejaVuSans-63" d="M 3122 3366 
L 3122 2828 
Q 2878 2963 2633 3030 
Q 2388 3097 2138 3097 
Q 1578 3097 1268 2742 
Q 959 2388 959 1747 
Q 959 1106 1268 751 
Q 1578 397 2138 397 
Q 2388 397 2633 464 
Q 2878 531 3122 666 
L 3122 134 
Q 2881 22 2623 -34 
Q 2366 -91 2075 -91 
Q 1284 -91 818 406 
Q 353 903 353 1747 
Q 353 2603 823 3093 
Q 1294 3584 2113 3584 
Q 2378 3584 2631 3529 
Q 2884 3475 3122 3366 
z
" transform="scale(0.015625)"/>
    </defs>
    <use xlink:href="#DejaVuSans-53"/>
    <use xlink:href="#DejaVuSans-32" x="63.476562"/>
    <use xlink:href="#DejaVuSans-31" x="127.099609"/>
    <use xlink:href="#DejaVuSans-20" x="190.722656"/>
    <use xlink:href="#DejaVuSans-72" x="222.509766"/>
    <use xlink:href="#DejaVuSans-65" x="261.373047"/>
    <use xlink:href="#DejaVuSans-73" x="322.896484"/>
    <use xlink:href="#DejaVuSans-6f" x="374.996094"/>
    <use xlink:href="#DejaVuSans-6e" x="436.177734"/>
    <use xlink:href="#DejaVuSans-61" x="499.556641"/>
    <use xlink:href="#DejaVuSans-74" x="560.835938"/>
    <use xlink:href="#DejaVuSans-6f" x="600.044922"/>
    <use xlink:href="#DejaVuSans-72" x="661.226562"/>
    <use xlink:href="#DejaVuSans-20" x="702.339844"/>
    <use xlink:href="#DejaVuSans-73" x="734.126953"/>
    <use xlink:href="#DejaVuSans-70" x="786.226562"/>
    <use xlink:href="#DejaVuSans-65" x="849.703125"/>
    <use xlink:href="#DejaVuSans-63" x="911.226562"/>
    <use xlink:href="#DejaVuSans-74" x="966.207031"/>
    <use xlink:href="#DejaVuSans-72" x="1005.416016"/>
    <use xlink:href="#DejaVuSans-6f" x="1044.279297"/>
    <use xlink:href="#DejaVuSans-73" x="1105.460938"/>
    <use xlink:href="#DejaVuSans-63" x="1157.560547"/>
    <use xlink:href="#DejaVuSans-6f" x="1212.541016"/>
    <use xlink:href="#DejaVuSans-70" x="1273.722656"/>
    <use xlink:href="#DejaVuSans-79" x="1337.199219"/>
   </g>
   <!-- tuid: 20231225-155910-468-188dba -->
   <g transform="translate(107.313125 29.7555) scale(0.12 -0.12)">
    <defs>
     <path id="DejaVuSans-69" d="M 603 3500 
L 1178 3500 
L 1178 0 
L 603 0 
L 603 3500 
z
M 603 4863 
L 1178 4863 
L 1178 4134 
L 603 4134 
L 603 4863 
z
" transform="scale(0.015625)"/>
     <path id="DejaVuSans-64" d="M 2906 2969 
L 2906 4863 
L 3481 4863 
L 3481 0 
L 2906 0 
L 2906 525 
Q 2725 213 2448 61 
Q 2172 -91 1784 -91 
Q 1150 -91 751 415 
Q 353 922 353 1747 
Q 353 2572 751 3078 
Q 1150 3584 1784 3584 
Q 2172 3584 2448 3432 
Q 2725 3281 2906 2969 
z
M 947 1747 
Q 947 1113 1208 752 
Q 1469 391 1925 391 
Q 2381 391 2643 752 
Q 2906 1113 2906 1747 
Q 2906 2381 2643 2742 
Q 2381 3103 1925 3103 
Q 1469 3103 1208 2742 
Q 947 2381 947 1747 
z
" transform="scale(0.015625)"/>
     <path id="DejaVuSans-62" d="M 3116 1747 
Q 3116 2381 2855 2742 
Q 2594 3103 2138 3103 
Q 1681 3103 1420 2742 
Q 1159 2381 1159 1747 
Q 1159 1113 1420 752 
Q 1681 391 2138 391 
Q 2594 391 2855 752 
Q 3116 1113 3116 1747 
z
M 1159 2969 
Q 1341 3281 1617 3432 
Q 1894 3584 2278 3584 
Q 2916 3584 3314 3078 
Q 3713 2572 3713 1747 
Q 3713 922 3314 415 
Q 2916 -91 2278 -91 
Q 1894 -91 1617 61 
Q 1341 213 1159 525 
L 1159 0 
L 581 0 
L 581 4863 
L 1159 4863 
L 1159 2969 
z
" transform="scale(0.015625)"/>
    </defs>
    <use xlink:href="#DejaVuSans-74"/>
    <use xlink:href="#DejaVuSans-75" x="39.208984"/>
    <use xlink:href="#DejaVuSans-69" x="102.587891"/>
    <use xlink:href="#DejaVuSans-64" x="130.371094"/>
    <use xlink:href="#DejaVuSans-3a" x="193.847656"/>
    <use xlink:href="#DejaVuSans-20" x="227.539062"/>
    <use xlink:href="#DejaVuSans-32" x="259.326172"/>
    <use xlink:href="#DejaVuSans-30" x="322.949219"/>
    <use xlink:href="#DejaVuSans-32" x="386.572266"/>
    <use xlink:href="#DejaVuSans-33" x="450.195312"/>
    <use xlink:href="#DejaVuSans-31" x="513.818359"/>
    <use xlink:href="#DejaVuSans-32" x="577.441406"/>
    <use xlink:href="#DejaVuSans-32" x="641.064453"/>
    <use xlink:href="#DejaVuSans-35" x="704.6875"/>
    <use xlink:href="#DejaVuSans-2d" x="768.310547"/>
    <use xlink:href="#DejaVuSans-31" x="804.394531"/>
    <use xlink:href="#DejaVuSans-35" x="868.017578"/>
    <use xlink:href="#DejaVuSans-35" x="931.640625"/>
    <use xlink:href="#DejaVuSans-39" x="995.263672"/>
    <use xlink:href="#DejaVuSans-31" x="1058.886719"/>
    <use xlink:href="#DejaVuSans-30" x="1122.509766"/>
    <use xlink:href="#DejaVuSans-2d" x="1186.132812"/>
    <use xlink:href="#DejaVuSans-34" x="1222.216797"/>
    <use xlink:href="#DejaVuSans-36" x="1285.839844"/>
    <use xlink:href="#DejaVuSans-38" x="1349.462891"/>
    <use xlink:href="#DejaVuSans-2d" x="1413.085938"/>
    <use xlink:href="#DejaVuSans-31" x="1449.169922"/>
    <use xlink:href="#DejaVuSans-38" x="1512.792969"/>
    <use xlink:href="#DejaVuSans-38" x="1576.416016"/>
    <use xlink:href="#DejaVuSans-64" x="1640.039062"/>
    <use xlink:href="#DejaVuSans-62" x="1703.515625"/>
    <use xlink:href="#DejaVuSans-61" x="1766.992188"/>
   </g>
  </g>
 </g>
 <defs>
  <clipPath id="p5ab8f228fc">
   <rect x="44.210938" y="41.76" width="357.12" height="266.112"/>
  </clipPath>
 </defs>
</svg>
