<?xml version="1.0" encoding="utf-8" standalone="no"?>
<!DOCTYPE svg PUBLIC "-//W3C//DTD SVG 1.1//EN"
  "http://www.w3.org/Graphics/SVG/1.1/DTD/svg11.dtd">
<svg xmlns:xlink="http://www.w3.org/1999/xlink" width="565.224437pt" height="345.42825pt" viewBox="0 0 565.224437 345.42825" xmlns="http://www.w3.org/2000/svg" version="1.1">
 <metadata>
  <rdf:RDF xmlns:dc="http://purl.org/dc/elements/1.1/" xmlns:cc="http://creativecommons.org/ns#" xmlns:rdf="http://www.w3.org/1999/02/22-rdf-syntax-ns#">
   <cc:Work>
    <dc:type rdf:resource="http://purl.org/dc/dcmitype/StillImage"/>
    <dc:date>2023-12-27T18:56:47.110810</dc:date>
    <dc:format>image/svg+xml</dc:format>
    <dc:creator>
     <cc:Agent>
      <dc:title>Matplotlib v3.8.2, https://matplotlib.org/</dc:title>
     </cc:Agent>
    </dc:creator>
   </cc:Work>
  </rdf:RDF>
 </metadata>
 <defs>
  <style type="text/css">*{stroke-linejoin: round; stroke-linecap: butt}</style>
 </defs>
 <g id="figure_1">
  <g id="patch_1">
   <path d="M 0 345.42825 
L 565.224437 345.42825 
L 565.224437 -0 
L 0 -0 
L 0 345.42825 
z
" style="fill: none; opacity: 0"/>
  </g>
  <g id="axes_1">
   <g id="patch_2">
    <path d="M 37.848438 307.872 
L 394.968438 307.872 
L 394.968438 41.76 
L 37.848438 41.76 
z
" style="fill: #ffffff"/>
   </g>
   <g id="matplotlib.axis_1">
    <g id="xtick_1">
     <g id="line2d_1">
      <defs>
       <path id="m2c0dbcb9f7" d="M 0 0 
L 0 3.5 
" style="stroke: #000000; stroke-width: 0.8"/>
      </defs>
      <g>
       <use xlink:href="#m2c0dbcb9f7" x="43.890514" y="307.872" style="stroke: #000000; stroke-width: 0.8"/>
      </g>
     </g>
     <g id="text_1">
      <!-- -8 -->
      <g transform="translate(38.905358 322.470438) scale(0.1 -0.1)">
       <defs>
        <path id="DejaVuSans-2d" d="M 313 2009 
L 1997 2009 
L 1997 1497 
L 313 1497 
L 313 2009 
z
" transform="scale(0.015625)"/>
        <path id="DejaVuSans-38" d="M 2034 2216 
Q 1584 2216 1326 1975 
Q 1069 1734 1069 1313 
Q 1069 891 1326 650 
Q 1584 409 2034 409 
Q 2484 409 2743 651 
Q 3003 894 3003 1313 
Q 3003 1734 2745 1975 
Q 2488 2216 2034 2216 
z
M 1403 2484 
Q 997 2584 770 2862 
Q 544 3141 544 3541 
Q 544 4100 942 4425 
Q 1341 4750 2034 4750 
Q 2731 4750 3128 4425 
Q 3525 4100 3525 3541 
Q 3525 3141 3298 2862 
Q 3072 2584 2669 2484 
Q 3125 2378 3379 2068 
Q 3634 1759 3634 1313 
Q 3634 634 3220 271 
Q 2806 -91 2034 -91 
Q 1263 -91 848 271 
Q 434 634 434 1313 
Q 434 1759 690 2068 
Q 947 2378 1403 2484 
z
M 1172 3481 
Q 1172 3119 1398 2916 
Q 1625 2713 2034 2713 
Q 2441 2713 2670 2916 
Q 2900 3119 2900 3481 
Q 2900 3844 2670 4047 
Q 2441 4250 2034 4250 
Q 1625 4250 1398 4047 
Q 1172 3844 1172 3481 
z
" transform="scale(0.015625)"/>
       </defs>
       <use xlink:href="#DejaVuSans-2d"/>
       <use xlink:href="#DejaVuSans-38" x="36.083984"/>
      </g>
     </g>
    </g>
    <g id="xtick_2">
     <g id="line2d_2">
      <g>
       <use xlink:href="#m2c0dbcb9f7" x="90.724239" y="307.872" style="stroke: #000000; stroke-width: 0.8"/>
      </g>
     </g>
     <g id="text_2">
      <!-- -7 -->
      <g transform="translate(85.739083 322.470438) scale(0.1 -0.1)">
       <defs>
        <path id="DejaVuSans-37" d="M 525 4666 
L 3525 4666 
L 3525 4397 
L 1831 0 
L 1172 0 
L 2766 4134 
L 525 4134 
L 525 4666 
z
" transform="scale(0.015625)"/>
       </defs>
       <use xlink:href="#DejaVuSans-2d"/>
       <use xlink:href="#DejaVuSans-37" x="36.083984"/>
      </g>
     </g>
    </g>
    <g id="xtick_3">
     <g id="line2d_3">
      <g>
       <use xlink:href="#m2c0dbcb9f7" x="137.557965" y="307.872" style="stroke: #000000; stroke-width: 0.8"/>
      </g>
     </g>
     <g id="text_3">
      <!-- -6 -->
      <g transform="translate(132.572808 322.470438) scale(0.1 -0.1)">
       <defs>
        <path id="DejaVuSans-36" d="M 2113 2584 
Q 1688 2584 1439 2293 
Q 1191 2003 1191 1497 
Q 1191 994 1439 701 
Q 1688 409 2113 409 
Q 2538 409 2786 701 
Q 3034 994 3034 1497 
Q 3034 2003 2786 2293 
Q 2538 2584 2113 2584 
z
M 3366 4563 
L 3366 3988 
Q 3128 4100 2886 4159 
Q 2644 4219 2406 4219 
Q 1781 4219 1451 3797 
Q 1122 3375 1075 2522 
Q 1259 2794 1537 2939 
Q 1816 3084 2150 3084 
Q 2853 3084 3261 2657 
Q 3669 2231 3669 1497 
Q 3669 778 3244 343 
Q 2819 -91 2113 -91 
Q 1303 -91 875 529 
Q 447 1150 447 2328 
Q 447 3434 972 4092 
Q 1497 4750 2381 4750 
Q 2619 4750 2861 4703 
Q 3103 4656 3366 4563 
z
" transform="scale(0.015625)"/>
       </defs>
       <use xlink:href="#DejaVuSans-2d"/>
       <use xlink:href="#DejaVuSans-36" x="36.083984"/>
      </g>
     </g>
    </g>
    <g id="xtick_4">
     <g id="line2d_4">
      <g>
       <use xlink:href="#m2c0dbcb9f7" x="184.39169" y="307.872" style="stroke: #000000; stroke-width: 0.8"/>
      </g>
     </g>
     <g id="text_4">
      <!-- -5 -->
      <g transform="translate(179.406534 322.470438) scale(0.1 -0.1)">
       <defs>
        <path id="DejaVuSans-35" d="M 691 4666 
L 3169 4666 
L 3169 4134 
L 1269 4134 
L 1269 2991 
Q 1406 3038 1543 3061 
Q 1681 3084 1819 3084 
Q 2600 3084 3056 2656 
Q 3513 2228 3513 1497 
Q 3513 744 3044 326 
Q 2575 -91 1722 -91 
Q 1428 -91 1123 -41 
Q 819 9 494 109 
L 494 744 
Q 775 591 1075 516 
Q 1375 441 1709 441 
Q 2250 441 2565 725 
Q 2881 1009 2881 1497 
Q 2881 1984 2565 2268 
Q 2250 2553 1709 2553 
Q 1456 2553 1204 2497 
Q 953 2441 691 2322 
L 691 4666 
z
" transform="scale(0.015625)"/>
       </defs>
       <use xlink:href="#DejaVuSans-2d"/>
       <use xlink:href="#DejaVuSans-35" x="36.083984"/>
      </g>
     </g>
    </g>
    <g id="xtick_5">
     <g id="line2d_5">
      <g>
       <use xlink:href="#m2c0dbcb9f7" x="231.225415" y="307.872" style="stroke: #000000; stroke-width: 0.8"/>
      </g>
     </g>
     <g id="text_5">
      <!-- -4 -->
      <g transform="translate(226.240259 322.470438) scale(0.1 -0.1)">
       <defs>
        <path id="DejaVuSans-34" d="M 2419 4116 
L 825 1625 
L 2419 1625 
L 2419 4116 
z
M 2253 4666 
L 3047 4666 
L 3047 1625 
L 3713 1625 
L 3713 1100 
L 3047 1100 
L 3047 0 
L 2419 0 
L 2419 1100 
L 313 1100 
L 313 1709 
L 2253 4666 
z
" transform="scale(0.015625)"/>
       </defs>
       <use xlink:href="#DejaVuSans-2d"/>
       <use xlink:href="#DejaVuSans-34" x="36.083984"/>
      </g>
     </g>
    </g>
    <g id="xtick_6">
     <g id="line2d_6">
      <g>
       <use xlink:href="#m2c0dbcb9f7" x="278.05914" y="307.872" style="stroke: #000000; stroke-width: 0.8"/>
      </g>
     </g>
     <g id="text_6">
      <!-- -3 -->
      <g transform="translate(273.073984 322.470438) scale(0.1 -0.1)">
       <defs>
        <path id="DejaVuSans-33" d="M 2597 2516 
Q 3050 2419 3304 2112 
Q 3559 1806 3559 1356 
Q 3559 666 3084 287 
Q 2609 -91 1734 -91 
Q 1441 -91 1130 -33 
Q 819 25 488 141 
L 488 750 
Q 750 597 1062 519 
Q 1375 441 1716 441 
Q 2309 441 2620 675 
Q 2931 909 2931 1356 
Q 2931 1769 2642 2001 
Q 2353 2234 1838 2234 
L 1294 2234 
L 1294 2753 
L 1863 2753 
Q 2328 2753 2575 2939 
Q 2822 3125 2822 3475 
Q 2822 3834 2567 4026 
Q 2313 4219 1838 4219 
Q 1578 4219 1281 4162 
Q 984 4106 628 3988 
L 628 4550 
Q 988 4650 1302 4700 
Q 1616 4750 1894 4750 
Q 2613 4750 3031 4423 
Q 3450 4097 3450 3541 
Q 3450 3153 3228 2886 
Q 3006 2619 2597 2516 
z
" transform="scale(0.015625)"/>
       </defs>
       <use xlink:href="#DejaVuSans-2d"/>
       <use xlink:href="#DejaVuSans-33" x="36.083984"/>
      </g>
     </g>
    </g>
    <g id="xtick_7">
     <g id="line2d_7">
      <g>
       <use xlink:href="#m2c0dbcb9f7" x="324.892865" y="307.872" style="stroke: #000000; stroke-width: 0.8"/>
      </g>
     </g>
     <g id="text_7">
      <!-- -2 -->
      <g transform="translate(319.907709 322.470438) scale(0.1 -0.1)">
       <defs>
        <path id="DejaVuSans-32" d="M 1228 531 
L 3431 531 
L 3431 0 
L 469 0 
L 469 531 
Q 828 903 1448 1529 
Q 2069 2156 2228 2338 
Q 2531 2678 2651 2914 
Q 2772 3150 2772 3378 
Q 2772 3750 2511 3984 
Q 2250 4219 1831 4219 
Q 1534 4219 1204 4116 
Q 875 4013 500 3803 
L 500 4441 
Q 881 4594 1212 4672 
Q 1544 4750 1819 4750 
Q 2544 4750 2975 4387 
Q 3406 4025 3406 3419 
Q 3406 3131 3298 2873 
Q 3191 2616 2906 2266 
Q 2828 2175 2409 1742 
Q 1991 1309 1228 531 
z
" transform="scale(0.015625)"/>
       </defs>
       <use xlink:href="#DejaVuSans-2d"/>
       <use xlink:href="#DejaVuSans-32" x="36.083984"/>
      </g>
     </g>
    </g>
    <g id="xtick_8">
     <g id="line2d_8">
      <g>
       <use xlink:href="#m2c0dbcb9f7" x="371.726591" y="307.872" style="stroke: #000000; stroke-width: 0.8"/>
      </g>
     </g>
     <g id="text_8">
      <!-- -1 -->
      <g transform="translate(366.741434 322.470438) scale(0.1 -0.1)">
       <defs>
        <path id="DejaVuSans-31" d="M 794 531 
L 1825 531 
L 1825 4091 
L 703 3866 
L 703 4441 
L 1819 4666 
L 2450 4666 
L 2450 531 
L 3481 531 
L 3481 0 
L 794 0 
L 794 531 
z
" transform="scale(0.015625)"/>
       </defs>
       <use xlink:href="#DejaVuSans-2d"/>
       <use xlink:href="#DejaVuSans-31" x="36.083984"/>
      </g>
     </g>
    </g>
    <g id="text_9">
     <!-- Re$(S_{21})$ [mV] -->
     <g transform="translate(184.408438 336.148562) scale(0.1 -0.1)">
      <defs>
       <path id="DejaVuSans-52" d="M 2841 2188 
Q 3044 2119 3236 1894 
Q 3428 1669 3622 1275 
L 4263 0 
L 3584 0 
L 2988 1197 
Q 2756 1666 2539 1819 
Q 2322 1972 1947 1972 
L 1259 1972 
L 1259 0 
L 628 0 
L 628 4666 
L 2053 4666 
Q 2853 4666 3247 4331 
Q 3641 3997 3641 3322 
Q 3641 2881 3436 2590 
Q 3231 2300 2841 2188 
z
M 1259 4147 
L 1259 2491 
L 2053 2491 
Q 2509 2491 2742 2702 
Q 2975 2913 2975 3322 
Q 2975 3731 2742 3939 
Q 2509 4147 2053 4147 
L 1259 4147 
z
" transform="scale(0.015625)"/>
       <path id="DejaVuSans-65" d="M 3597 1894 
L 3597 1613 
L 953 1613 
Q 991 1019 1311 708 
Q 1631 397 2203 397 
Q 2534 397 2845 478 
Q 3156 559 3463 722 
L 3463 178 
Q 3153 47 2828 -22 
Q 2503 -91 2169 -91 
Q 1331 -91 842 396 
Q 353 884 353 1716 
Q 353 2575 817 3079 
Q 1281 3584 2069 3584 
Q 2775 3584 3186 3129 
Q 3597 2675 3597 1894 
z
M 3022 2063 
Q 3016 2534 2758 2815 
Q 2500 3097 2075 3097 
Q 1594 3097 1305 2825 
Q 1016 2553 972 2059 
L 3022 2063 
z
" transform="scale(0.015625)"/>
       <path id="DejaVuSans-28" d="M 1984 4856 
Q 1566 4138 1362 3434 
Q 1159 2731 1159 2009 
Q 1159 1288 1364 580 
Q 1569 -128 1984 -844 
L 1484 -844 
Q 1016 -109 783 600 
Q 550 1309 550 2009 
Q 550 2706 781 3412 
Q 1013 4119 1484 4856 
L 1984 4856 
z
" transform="scale(0.015625)"/>
       <path id="DejaVuSans-Oblique-53" d="M 3859 4513 
L 3738 3897 
Q 3422 4066 3111 4152 
Q 2800 4238 2509 4238 
Q 1944 4238 1609 3991 
Q 1275 3744 1275 3334 
Q 1275 3109 1398 2989 
Q 1522 2869 2034 2731 
L 2413 2638 
Q 3053 2472 3303 2217 
Q 3553 1963 3553 1503 
Q 3553 797 2998 353 
Q 2444 -91 1538 -91 
Q 1166 -91 791 -17 
Q 416 56 38 206 
L 166 856 
Q 513 641 861 531 
Q 1209 422 1556 422 
Q 2147 422 2503 684 
Q 2859 947 2859 1369 
Q 2859 1650 2717 1795 
Q 2575 1941 2106 2059 
L 1728 2156 
Q 1081 2325 845 2545 
Q 609 2766 609 3163 
Q 609 3859 1145 4304 
Q 1681 4750 2541 4750 
Q 2875 4750 3203 4690 
Q 3531 4631 3859 4513 
z
" transform="scale(0.015625)"/>
       <path id="DejaVuSans-29" d="M 513 4856 
L 1013 4856 
Q 1481 4119 1714 3412 
Q 1947 2706 1947 2009 
Q 1947 1309 1714 600 
Q 1481 -109 1013 -844 
L 513 -844 
Q 928 -128 1133 580 
Q 1338 1288 1338 2009 
Q 1338 2731 1133 3434 
Q 928 4138 513 4856 
z
" transform="scale(0.015625)"/>
       <path id="DejaVuSans-20" transform="scale(0.015625)"/>
       <path id="DejaVuSans-5b" d="M 550 4863 
L 1875 4863 
L 1875 4416 
L 1125 4416 
L 1125 -397 
L 1875 -397 
L 1875 -844 
L 550 -844 
L 550 4863 
z
" transform="scale(0.015625)"/>
       <path id="DejaVuSans-6d" d="M 3328 2828 
Q 3544 3216 3844 3400 
Q 4144 3584 4550 3584 
Q 5097 3584 5394 3201 
Q 5691 2819 5691 2113 
L 5691 0 
L 5113 0 
L 5113 2094 
Q 5113 2597 4934 2840 
Q 4756 3084 4391 3084 
Q 3944 3084 3684 2787 
Q 3425 2491 3425 1978 
L 3425 0 
L 2847 0 
L 2847 2094 
Q 2847 2600 2669 2842 
Q 2491 3084 2119 3084 
Q 1678 3084 1418 2786 
Q 1159 2488 1159 1978 
L 1159 0 
L 581 0 
L 581 3500 
L 1159 3500 
L 1159 2956 
Q 1356 3278 1631 3431 
Q 1906 3584 2284 3584 
Q 2666 3584 2933 3390 
Q 3200 3197 3328 2828 
z
" transform="scale(0.015625)"/>
       <path id="DejaVuSans-56" d="M 1831 0 
L 50 4666 
L 709 4666 
L 2188 738 
L 3669 4666 
L 4325 4666 
L 2547 0 
L 1831 0 
z
" transform="scale(0.015625)"/>
       <path id="DejaVuSans-5d" d="M 1947 4863 
L 1947 -844 
L 622 -844 
L 622 -397 
L 1369 -397 
L 1369 4416 
L 622 4416 
L 622 4863 
L 1947 4863 
z
" transform="scale(0.015625)"/>
      </defs>
      <use xlink:href="#DejaVuSans-52" transform="translate(0 0.015625)"/>
      <use xlink:href="#DejaVuSans-65" transform="translate(69.482422 0.015625)"/>
      <use xlink:href="#DejaVuSans-28" transform="translate(131.005859 0.015625)"/>
      <use xlink:href="#DejaVuSans-Oblique-53" transform="translate(170.019531 0.015625)"/>
      <use xlink:href="#DejaVuSans-32" transform="translate(233.496094 -16.390625) scale(0.7)"/>
      <use xlink:href="#DejaVuSans-31" transform="translate(278.032227 -16.390625) scale(0.7)"/>
      <use xlink:href="#DejaVuSans-29" transform="translate(325.302734 0.015625)"/>
      <use xlink:href="#DejaVuSans-20" transform="translate(364.316406 0.015625)"/>
      <use xlink:href="#DejaVuSans-5b" transform="translate(396.103516 0.015625)"/>
      <use xlink:href="#DejaVuSans-6d" transform="translate(435.117188 0.015625)"/>
      <use xlink:href="#DejaVuSans-56" transform="translate(532.529297 0.015625)"/>
      <use xlink:href="#DejaVuSans-5d" transform="translate(600.9375 0.015625)"/>
     </g>
    </g>
   </g>
   <g id="matplotlib.axis_2">
    <g id="ytick_1">
     <g id="line2d_9">
      <defs>
       <path id="meb89d6b785" d="M 0 0 
L -3.5 0 
" style="stroke: #000000; stroke-width: 0.8"/>
      </defs>
      <g>
       <use xlink:href="#meb89d6b785" x="37.848438" y="296.048063" style="stroke: #000000; stroke-width: 0.8"/>
      </g>
     </g>
     <g id="text_10">
      <!-- -3 -->
      <g transform="translate(20.878125 299.847282) scale(0.1 -0.1)">
       <use xlink:href="#DejaVuSans-2d"/>
       <use xlink:href="#DejaVuSans-33" x="36.083984"/>
      </g>
     </g>
    </g>
    <g id="ytick_2">
     <g id="line2d_10">
      <g>
       <use xlink:href="#meb89d6b785" x="37.848438" y="257.74007" style="stroke: #000000; stroke-width: 0.8"/>
      </g>
     </g>
     <g id="text_11">
      <!-- -2 -->
      <g transform="translate(20.878125 261.539288) scale(0.1 -0.1)">
       <use xlink:href="#DejaVuSans-2d"/>
       <use xlink:href="#DejaVuSans-32" x="36.083984"/>
      </g>
     </g>
    </g>
    <g id="ytick_3">
     <g id="line2d_11">
      <g>
       <use xlink:href="#meb89d6b785" x="37.848438" y="219.432076" style="stroke: #000000; stroke-width: 0.8"/>
      </g>
     </g>
     <g id="text_12">
      <!-- -1 -->
      <g transform="translate(20.878125 223.231295) scale(0.1 -0.1)">
       <use xlink:href="#DejaVuSans-2d"/>
       <use xlink:href="#DejaVuSans-31" x="36.083984"/>
      </g>
     </g>
    </g>
    <g id="ytick_4">
     <g id="line2d_12">
      <g>
       <use xlink:href="#meb89d6b785" x="37.848438" y="181.124083" style="stroke: #000000; stroke-width: 0.8"/>
      </g>
     </g>
     <g id="text_13">
      <!-- 0 -->
      <g transform="translate(24.485938 184.923302) scale(0.1 -0.1)">
       <defs>
        <path id="DejaVuSans-30" d="M 2034 4250 
Q 1547 4250 1301 3770 
Q 1056 3291 1056 2328 
Q 1056 1369 1301 889 
Q 1547 409 2034 409 
Q 2525 409 2770 889 
Q 3016 1369 3016 2328 
Q 3016 3291 2770 3770 
Q 2525 4250 2034 4250 
z
M 2034 4750 
Q 2819 4750 3233 4129 
Q 3647 3509 3647 2328 
Q 3647 1150 3233 529 
Q 2819 -91 2034 -91 
Q 1250 -91 836 529 
Q 422 1150 422 2328 
Q 422 3509 836 4129 
Q 1250 4750 2034 4750 
z
" transform="scale(0.015625)"/>
       </defs>
       <use xlink:href="#DejaVuSans-30"/>
      </g>
     </g>
    </g>
    <g id="ytick_5">
     <g id="line2d_13">
      <g>
       <use xlink:href="#meb89d6b785" x="37.848438" y="142.816089" style="stroke: #000000; stroke-width: 0.8"/>
      </g>
     </g>
     <g id="text_14">
      <!-- 1 -->
      <g transform="translate(24.485938 146.615308) scale(0.1 -0.1)">
       <use xlink:href="#DejaVuSans-31"/>
      </g>
     </g>
    </g>
    <g id="ytick_6">
     <g id="line2d_14">
      <g>
       <use xlink:href="#meb89d6b785" x="37.848438" y="104.508096" style="stroke: #000000; stroke-width: 0.8"/>
      </g>
     </g>
     <g id="text_15">
      <!-- 2 -->
      <g transform="translate(24.485938 108.307315) scale(0.1 -0.1)">
       <use xlink:href="#DejaVuSans-32"/>
      </g>
     </g>
    </g>
    <g id="ytick_7">
     <g id="line2d_15">
      <g>
       <use xlink:href="#meb89d6b785" x="37.848438" y="66.200103" style="stroke: #000000; stroke-width: 0.8"/>
      </g>
     </g>
     <g id="text_16">
      <!-- 3 -->
      <g transform="translate(24.485938 69.999321) scale(0.1 -0.1)">
       <use xlink:href="#DejaVuSans-33"/>
      </g>
     </g>
    </g>
    <g id="text_17">
     <!-- Im$(S_{21})$ [mV] -->
     <g transform="translate(14.798438 206.466) rotate(-90) scale(0.1 -0.1)">
      <defs>
       <path id="DejaVuSans-49" d="M 628 4666 
L 1259 4666 
L 1259 0 
L 628 0 
L 628 4666 
z
" transform="scale(0.015625)"/>
      </defs>
      <use xlink:href="#DejaVuSans-49" transform="translate(0 0.015625)"/>
      <use xlink:href="#DejaVuSans-6d" transform="translate(25.867188 0.015625)"/>
      <use xlink:href="#DejaVuSans-28" transform="translate(123.279297 0.015625)"/>
      <use xlink:href="#DejaVuSans-Oblique-53" transform="translate(162.292969 0.015625)"/>
      <use xlink:href="#DejaVuSans-32" transform="translate(225.769531 -16.390625) scale(0.7)"/>
      <use xlink:href="#DejaVuSans-31" transform="translate(270.305664 -16.390625) scale(0.7)"/>
      <use xlink:href="#DejaVuSans-29" transform="translate(317.576172 0.015625)"/>
      <use xlink:href="#DejaVuSans-20" transform="translate(356.589844 0.015625)"/>
      <use xlink:href="#DejaVuSans-5b" transform="translate(388.376953 0.015625)"/>
      <use xlink:href="#DejaVuSans-6d" transform="translate(427.390625 0.015625)"/>
      <use xlink:href="#DejaVuSans-56" transform="translate(524.802734 0.015625)"/>
      <use xlink:href="#DejaVuSans-5d" transform="translate(593.210938 0.015625)"/>
     </g>
    </g>
   </g>
   <g id="line2d_16">
    <path d="M 56.882698 198.521439 
L 56.704596 194.640111 
L 57.649761 194.416622 
L 58.906287 189.695858 
L 54.081165 187.484295 
L 58.312546 186.847554 
L 61.785558 185.37853 
L 61.00558 178.841947 
L 64.910247 180.855721 
L 59.906209 180.730253 
L 59.809761 181.500613 
L 62.267801 172.969302 
L 61.899344 178.152307 
L 65.713256 167.216179 
L 65.08301 164.043829 
L 62.385806 165.743578 
L 62.920061 163.414615 
L 69.769179 162.46988 
L 68.673011 156.932678 
L 66.019176 155.060425 
L 67.783163 157.188813 
L 66.691316 151.852185 
L 72.899867 148.810917 
L 73.797647 146.28874 
L 74.361645 148.365436 
L 77.8765 141.987757 
L 72.519157 141.97108 
L 75.356839 142.626203 
L 82.500997 134.76956 
L 83.932625 133.420099 
L 78.856289 128.846054 
L 79.747968 130.405447 
L 83.768861 127.727319 
L 89.228041 122.661964 
L 87.638242 123.568397 
L 86.988574 120.610137 
L 88.04239 121.621952 
L 92.901272 112.908407 
L 96.92796 113.662881 
L 96.621227 109.799602 
L 101.533899 106.685557 
L 110.455669 105.263235 
L 106.102469 101.141908 
L 105.523829 102.568264 
L 114.665036 96.64663 
L 118.989561 95.694575 
L 122.829301 91.92886 
L 122.686585 87.842507 
L 127.740754 86.412159 
L 126.767981 87.692711 
L 133.15382 80.707485 
L 134.019366 82.378789 
L 143.255038 79.458706 
L 149.248067 75.770135 
L 151.051813 72.317197 
L 156.180618 68.868749 
L 161.038838 67.623589 
L 163.749973 63.27898 
L 170.059243 64.119332 
L 175.805634 63.063809 
L 177.473172 61.430682 
L 188.007926 59.377192 
L 194.082557 59.404015 
L 196.092876 59.140519 
L 210.64781 61.287954 
L 216.593657 57.979614 
L 225.137565 53.856 
L 230.241914 54.145987 
L 239.325212 58.24939 
L 245.776384 59.422563 
L 259.933118 63.102817 
L 266.420999 58.953502 
L 277.95532 67.940275 
L 281.375404 67.594561 
L 295.597319 64.001391 
L 298.842963 70.766079 
L 311.993826 78.416158 
L 316.623559 79.698332 
L 322.512208 87.982822 
L 335.615279 93.652189 
L 341.746143 96.676988 
L 344.680426 103.320908 
L 352.709551 111.023761 
L 357.694624 122.905664 
L 362.671257 128.529618 
L 364.478205 134.531016 
L 370.648523 138.739011 
L 368.596868 146.69093 
L 376.776793 157.062429 
L 378.73571 171.153441 
L 376.66077 174.744865 
L 374.223372 185.881236 
L 374.825553 191.558213 
L 374.909494 205.667315 
L 366.039838 208.943384 
L 361.200633 217.037946 
L 359.929617 224.115412 
L 353.762808 236.513744 
L 350.849116 239.045777 
L 347.138618 250.073813 
L 336.743275 255.391644 
L 326.08177 257.048683 
L 327.368039 262.4783 
L 316.103998 267.55426 
L 311.96815 271.692264 
L 306.447857 277.841962 
L 294.739705 278.952131 
L 287.340165 282.801436 
L 279.135378 288.351573 
L 274.916453 286.061577 
L 260.000739 289.382518 
L 259.110484 290.908891 
L 247.801905 293.852512 
L 243.546526 288.76603 
L 236.891017 288.894119 
L 225.978858 295.000192 
L 223.898071 295.776 
L 220.103327 286.842417 
L 210.449575 290.392586 
L 204.739333 290.467277 
L 199.767835 285.263686 
L 193.018979 291.383899 
L 192.171839 287.134941 
L 186.723487 286.877974 
L 180.729187 280.324631 
L 178.390831 280.086337 
L 171.429555 280.47709 
L 168.113138 277.736913 
L 165.34872 276.853436 
L 157.863307 276.454532 
L 153.131939 273.409314 
L 146.953029 268.177194 
L 144.664194 265.415434 
L 148.095718 266.391525 
L 135.470822 261.165186 
L 136.676505 263.054407 
L 134.060142 261.540968 
L 135.783098 259.321421 
L 122.996472 250.872162 
L 127.255054 255.016819 
L 121.949214 248.610902 
L 123.099631 246.119209 
L 114.712675 240.956041 
L 115.654587 242.299056 
L 116.130423 236.489166 
L 114.82636 238.494914 
L 114.273751 234.034194 
L 108.144362 232.664605 
L 108.959115 231.44606 
L 113.558496 227.971954 
L 102.333858 224.177834 
L 104.254186 220.99176 
L 101.899001 217.326228 
L 97.939272 216.374091 
L 98.087072 212.089285 
L 93.623034 212.945689 
L 101.47238 211.664139 
L 89.165556 210.874399 
L 93.136165 209.916315 
L 97.588356 205.524671 
L 94.725354 201.718034 
L 87.575705 198.569472 
L 93.405631 199.118214 
L 96.302545 197.157755 
L 93.567717 190.408329 
L 92.267416 192.057674 
L 90.650823 193.234798 
L 90.681989 189.789221 
L 84.663336 186.269452 
L 84.512485 189.985762 
L 84.427222 181.299747 
L 89.246243 180.416894 
L 90.511971 178.037402 
L 82.983443 177.942999 
L 92.55666 178.19115 
L 81.305686 175.180948 
L 90.857854 172.29347 
L 82.541874 174.034973 
L 86.365955 172.227596 
L 86.028512 163.288606 
L 83.8316 163.796344 
L 87.901709 163.769187 
L 83.221641 166.209105 
L 80.195231 162.778083 
L 88.912003 157.15887 
L 87.010081 162.730257 
L 83.221844 154.688719 
L 80.382434 154.046613 
L 86.420865 150.366942 
L 84.691553 152.749885 
L 84.1996 147.398867 
L 88.071472 150.225712 
L 84.852216 144.906633 
L 90.035576 142.028512 
L 85.610636 143.235038 
L 87.044755 144.202147 
L 87.044755 144.202147 
" clip-path="url(#p5108ab0c0c)" style="fill: none; stroke: #1f77b4; stroke-width: 1.5; stroke-linecap: square"/>
    <defs>
     <path id="mf176939639" d="M 0 1.5 
C 0.397805 1.5 0.77937 1.341951 1.06066 1.06066 
C 1.341951 0.77937 1.5 0.397805 1.5 0 
C 1.5 -0.397805 1.341951 -0.77937 1.06066 -1.06066 
C 0.77937 -1.341951 0.397805 -1.5 0 -1.5 
C -0.397805 -1.5 -0.77937 -1.341951 -1.06066 -1.06066 
C -1.341951 -0.77937 -1.5 -0.397805 -1.5 0 
C -1.5 0.397805 -1.341951 0.77937 -1.06066 1.06066 
C -0.77937 1.341951 -0.397805 1.5 0 1.5 
z
" style="stroke: #1f77b4"/>
    </defs>
    <g clip-path="url(#p5108ab0c0c)">
     <use xlink:href="#mf176939639" x="56.882698" y="198.521439" style="fill: #1f77b4; stroke: #1f77b4"/>
     <use xlink:href="#mf176939639" x="56.704596" y="194.640111" style="fill: #1f77b4; stroke: #1f77b4"/>
     <use xlink:href="#mf176939639" x="57.649761" y="194.416622" style="fill: #1f77b4; stroke: #1f77b4"/>
     <use xlink:href="#mf176939639" x="58.906287" y="189.695858" style="fill: #1f77b4; stroke: #1f77b4"/>
     <use xlink:href="#mf176939639" x="54.081165" y="187.484295" style="fill: #1f77b4; stroke: #1f77b4"/>
     <use xlink:href="#mf176939639" x="58.312546" y="186.847554" style="fill: #1f77b4; stroke: #1f77b4"/>
     <use xlink:href="#mf176939639" x="61.785558" y="185.37853" style="fill: #1f77b4; stroke: #1f77b4"/>
     <use xlink:href="#mf176939639" x="61.00558" y="178.841947" style="fill: #1f77b4; stroke: #1f77b4"/>
     <use xlink:href="#mf176939639" x="64.910247" y="180.855721" style="fill: #1f77b4; stroke: #1f77b4"/>
     <use xlink:href="#mf176939639" x="59.906209" y="180.730253" style="fill: #1f77b4; stroke: #1f77b4"/>
     <use xlink:href="#mf176939639" x="59.809761" y="181.500613" style="fill: #1f77b4; stroke: #1f77b4"/>
     <use xlink:href="#mf176939639" x="62.267801" y="172.969302" style="fill: #1f77b4; stroke: #1f77b4"/>
     <use xlink:href="#mf176939639" x="61.899344" y="178.152307" style="fill: #1f77b4; stroke: #1f77b4"/>
     <use xlink:href="#mf176939639" x="65.713256" y="167.216179" style="fill: #1f77b4; stroke: #1f77b4"/>
     <use xlink:href="#mf176939639" x="65.08301" y="164.043829" style="fill: #1f77b4; stroke: #1f77b4"/>
     <use xlink:href="#mf176939639" x="62.385806" y="165.743578" style="fill: #1f77b4; stroke: #1f77b4"/>
     <use xlink:href="#mf176939639" x="62.920061" y="163.414615" style="fill: #1f77b4; stroke: #1f77b4"/>
     <use xlink:href="#mf176939639" x="69.769179" y="162.46988" style="fill: #1f77b4; stroke: #1f77b4"/>
     <use xlink:href="#mf176939639" x="68.673011" y="156.932678" style="fill: #1f77b4; stroke: #1f77b4"/>
     <use xlink:href="#mf176939639" x="66.019176" y="155.060425" style="fill: #1f77b4; stroke: #1f77b4"/>
     <use xlink:href="#mf176939639" x="67.783163" y="157.188813" style="fill: #1f77b4; stroke: #1f77b4"/>
     <use xlink:href="#mf176939639" x="66.691316" y="151.852185" style="fill: #1f77b4; stroke: #1f77b4"/>
     <use xlink:href="#mf176939639" x="72.899867" y="148.810917" style="fill: #1f77b4; stroke: #1f77b4"/>
     <use xlink:href="#mf176939639" x="73.797647" y="146.28874" style="fill: #1f77b4; stroke: #1f77b4"/>
     <use xlink:href="#mf176939639" x="74.361645" y="148.365436" style="fill: #1f77b4; stroke: #1f77b4"/>
     <use xlink:href="#mf176939639" x="77.8765" y="141.987757" style="fill: #1f77b4; stroke: #1f77b4"/>
     <use xlink:href="#mf176939639" x="72.519157" y="141.97108" style="fill: #1f77b4; stroke: #1f77b4"/>
     <use xlink:href="#mf176939639" x="75.356839" y="142.626203" style="fill: #1f77b4; stroke: #1f77b4"/>
     <use xlink:href="#mf176939639" x="82.500997" y="134.76956" style="fill: #1f77b4; stroke: #1f77b4"/>
     <use xlink:href="#mf176939639" x="83.932625" y="133.420099" style="fill: #1f77b4; stroke: #1f77b4"/>
     <use xlink:href="#mf176939639" x="78.856289" y="128.846054" style="fill: #1f77b4; stroke: #1f77b4"/>
     <use xlink:href="#mf176939639" x="79.747968" y="130.405447" style="fill: #1f77b4; stroke: #1f77b4"/>
     <use xlink:href="#mf176939639" x="83.768861" y="127.727319" style="fill: #1f77b4; stroke: #1f77b4"/>
     <use xlink:href="#mf176939639" x="89.228041" y="122.661964" style="fill: #1f77b4; stroke: #1f77b4"/>
     <use xlink:href="#mf176939639" x="87.638242" y="123.568397" style="fill: #1f77b4; stroke: #1f77b4"/>
     <use xlink:href="#mf176939639" x="86.988574" y="120.610137" style="fill: #1f77b4; stroke: #1f77b4"/>
     <use xlink:href="#mf176939639" x="88.04239" y="121.621952" style="fill: #1f77b4; stroke: #1f77b4"/>
     <use xlink:href="#mf176939639" x="92.901272" y="112.908407" style="fill: #1f77b4; stroke: #1f77b4"/>
     <use xlink:href="#mf176939639" x="96.92796" y="113.662881" style="fill: #1f77b4; stroke: #1f77b4"/>
     <use xlink:href="#mf176939639" x="96.621227" y="109.799602" style="fill: #1f77b4; stroke: #1f77b4"/>
     <use xlink:href="#mf176939639" x="101.533899" y="106.685557" style="fill: #1f77b4; stroke: #1f77b4"/>
     <use xlink:href="#mf176939639" x="110.455669" y="105.263235" style="fill: #1f77b4; stroke: #1f77b4"/>
     <use xlink:href="#mf176939639" x="106.102469" y="101.141908" style="fill: #1f77b4; stroke: #1f77b4"/>
     <use xlink:href="#mf176939639" x="105.523829" y="102.568264" style="fill: #1f77b4; stroke: #1f77b4"/>
     <use xlink:href="#mf176939639" x="114.665036" y="96.64663" style="fill: #1f77b4; stroke: #1f77b4"/>
     <use xlink:href="#mf176939639" x="118.989561" y="95.694575" style="fill: #1f77b4; stroke: #1f77b4"/>
     <use xlink:href="#mf176939639" x="122.829301" y="91.92886" style="fill: #1f77b4; stroke: #1f77b4"/>
     <use xlink:href="#mf176939639" x="122.686585" y="87.842507" style="fill: #1f77b4; stroke: #1f77b4"/>
     <use xlink:href="#mf176939639" x="127.740754" y="86.412159" style="fill: #1f77b4; stroke: #1f77b4"/>
     <use xlink:href="#mf176939639" x="126.767981" y="87.692711" style="fill: #1f77b4; stroke: #1f77b4"/>
     <use xlink:href="#mf176939639" x="133.15382" y="80.707485" style="fill: #1f77b4; stroke: #1f77b4"/>
     <use xlink:href="#mf176939639" x="134.019366" y="82.378789" style="fill: #1f77b4; stroke: #1f77b4"/>
     <use xlink:href="#mf176939639" x="143.255038" y="79.458706" style="fill: #1f77b4; stroke: #1f77b4"/>
     <use xlink:href="#mf176939639" x="149.248067" y="75.770135" style="fill: #1f77b4; stroke: #1f77b4"/>
     <use xlink:href="#mf176939639" x="151.051813" y="72.317197" style="fill: #1f77b4; stroke: #1f77b4"/>
     <use xlink:href="#mf176939639" x="156.180618" y="68.868749" style="fill: #1f77b4; stroke: #1f77b4"/>
     <use xlink:href="#mf176939639" x="161.038838" y="67.623589" style="fill: #1f77b4; stroke: #1f77b4"/>
     <use xlink:href="#mf176939639" x="163.749973" y="63.27898" style="fill: #1f77b4; stroke: #1f77b4"/>
     <use xlink:href="#mf176939639" x="170.059243" y="64.119332" style="fill: #1f77b4; stroke: #1f77b4"/>
     <use xlink:href="#mf176939639" x="175.805634" y="63.063809" style="fill: #1f77b4; stroke: #1f77b4"/>
     <use xlink:href="#mf176939639" x="177.473172" y="61.430682" style="fill: #1f77b4; stroke: #1f77b4"/>
     <use xlink:href="#mf176939639" x="188.007926" y="59.377192" style="fill: #1f77b4; stroke: #1f77b4"/>
     <use xlink:href="#mf176939639" x="194.082557" y="59.404015" style="fill: #1f77b4; stroke: #1f77b4"/>
     <use xlink:href="#mf176939639" x="196.092876" y="59.140519" style="fill: #1f77b4; stroke: #1f77b4"/>
     <use xlink:href="#mf176939639" x="210.64781" y="61.287954" style="fill: #1f77b4; stroke: #1f77b4"/>
     <use xlink:href="#mf176939639" x="216.593657" y="57.979614" style="fill: #1f77b4; stroke: #1f77b4"/>
     <use xlink:href="#mf176939639" x="225.137565" y="53.856" style="fill: #1f77b4; stroke: #1f77b4"/>
     <use xlink:href="#mf176939639" x="230.241914" y="54.145987" style="fill: #1f77b4; stroke: #1f77b4"/>
     <use xlink:href="#mf176939639" x="239.325212" y="58.24939" style="fill: #1f77b4; stroke: #1f77b4"/>
     <use xlink:href="#mf176939639" x="245.776384" y="59.422563" style="fill: #1f77b4; stroke: #1f77b4"/>
     <use xlink:href="#mf176939639" x="250.262639" y="60.60971" style="fill: #1f77b4; stroke: #1f77b4"/>
     <use xlink:href="#mf176939639" x="259.933118" y="63.102817" style="fill: #1f77b4; stroke: #1f77b4"/>
     <use xlink:href="#mf176939639" x="266.420999" y="58.953502" style="fill: #1f77b4; stroke: #1f77b4"/>
     <use xlink:href="#mf176939639" x="277.95532" y="67.940275" style="fill: #1f77b4; stroke: #1f77b4"/>
     <use xlink:href="#mf176939639" x="281.375404" y="67.594561" style="fill: #1f77b4; stroke: #1f77b4"/>
     <use xlink:href="#mf176939639" x="295.597319" y="64.001391" style="fill: #1f77b4; stroke: #1f77b4"/>
     <use xlink:href="#mf176939639" x="298.842963" y="70.766079" style="fill: #1f77b4; stroke: #1f77b4"/>
     <use xlink:href="#mf176939639" x="311.993826" y="78.416158" style="fill: #1f77b4; stroke: #1f77b4"/>
     <use xlink:href="#mf176939639" x="316.623559" y="79.698332" style="fill: #1f77b4; stroke: #1f77b4"/>
     <use xlink:href="#mf176939639" x="322.512208" y="87.982822" style="fill: #1f77b4; stroke: #1f77b4"/>
     <use xlink:href="#mf176939639" x="335.615279" y="93.652189" style="fill: #1f77b4; stroke: #1f77b4"/>
     <use xlink:href="#mf176939639" x="341.746143" y="96.676988" style="fill: #1f77b4; stroke: #1f77b4"/>
     <use xlink:href="#mf176939639" x="344.680426" y="103.320908" style="fill: #1f77b4; stroke: #1f77b4"/>
     <use xlink:href="#mf176939639" x="352.709551" y="111.023761" style="fill: #1f77b4; stroke: #1f77b4"/>
     <use xlink:href="#mf176939639" x="357.694624" y="122.905664" style="fill: #1f77b4; stroke: #1f77b4"/>
     <use xlink:href="#mf176939639" x="362.671257" y="128.529618" style="fill: #1f77b4; stroke: #1f77b4"/>
     <use xlink:href="#mf176939639" x="364.478205" y="134.531016" style="fill: #1f77b4; stroke: #1f77b4"/>
     <use xlink:href="#mf176939639" x="370.648523" y="138.739011" style="fill: #1f77b4; stroke: #1f77b4"/>
     <use xlink:href="#mf176939639" x="368.596868" y="146.69093" style="fill: #1f77b4; stroke: #1f77b4"/>
     <use xlink:href="#mf176939639" x="376.776793" y="157.062429" style="fill: #1f77b4; stroke: #1f77b4"/>
     <use xlink:href="#mf176939639" x="378.73571" y="171.153441" style="fill: #1f77b4; stroke: #1f77b4"/>
     <use xlink:href="#mf176939639" x="376.66077" y="174.744865" style="fill: #1f77b4; stroke: #1f77b4"/>
     <use xlink:href="#mf176939639" x="374.223372" y="185.881236" style="fill: #1f77b4; stroke: #1f77b4"/>
     <use xlink:href="#mf176939639" x="374.825553" y="191.558213" style="fill: #1f77b4; stroke: #1f77b4"/>
     <use xlink:href="#mf176939639" x="374.909494" y="205.667315" style="fill: #1f77b4; stroke: #1f77b4"/>
     <use xlink:href="#mf176939639" x="366.039838" y="208.943384" style="fill: #1f77b4; stroke: #1f77b4"/>
     <use xlink:href="#mf176939639" x="361.200633" y="217.037946" style="fill: #1f77b4; stroke: #1f77b4"/>
     <use xlink:href="#mf176939639" x="359.929617" y="224.115412" style="fill: #1f77b4; stroke: #1f77b4"/>
     <use xlink:href="#mf176939639" x="353.762808" y="236.513744" style="fill: #1f77b4; stroke: #1f77b4"/>
     <use xlink:href="#mf176939639" x="350.849116" y="239.045777" style="fill: #1f77b4; stroke: #1f77b4"/>
     <use xlink:href="#mf176939639" x="347.138618" y="250.073813" style="fill: #1f77b4; stroke: #1f77b4"/>
     <use xlink:href="#mf176939639" x="336.743275" y="255.391644" style="fill: #1f77b4; stroke: #1f77b4"/>
     <use xlink:href="#mf176939639" x="326.08177" y="257.048683" style="fill: #1f77b4; stroke: #1f77b4"/>
     <use xlink:href="#mf176939639" x="327.368039" y="262.4783" style="fill: #1f77b4; stroke: #1f77b4"/>
     <use xlink:href="#mf176939639" x="316.103998" y="267.55426" style="fill: #1f77b4; stroke: #1f77b4"/>
     <use xlink:href="#mf176939639" x="311.96815" y="271.692264" style="fill: #1f77b4; stroke: #1f77b4"/>
     <use xlink:href="#mf176939639" x="306.447857" y="277.841962" style="fill: #1f77b4; stroke: #1f77b4"/>
     <use xlink:href="#mf176939639" x="294.739705" y="278.952131" style="fill: #1f77b4; stroke: #1f77b4"/>
     <use xlink:href="#mf176939639" x="287.340165" y="282.801436" style="fill: #1f77b4; stroke: #1f77b4"/>
     <use xlink:href="#mf176939639" x="279.135378" y="288.351573" style="fill: #1f77b4; stroke: #1f77b4"/>
     <use xlink:href="#mf176939639" x="274.916453" y="286.061577" style="fill: #1f77b4; stroke: #1f77b4"/>
     <use xlink:href="#mf176939639" x="260.000739" y="289.382518" style="fill: #1f77b4; stroke: #1f77b4"/>
     <use xlink:href="#mf176939639" x="259.110484" y="290.908891" style="fill: #1f77b4; stroke: #1f77b4"/>
     <use xlink:href="#mf176939639" x="247.801905" y="293.852512" style="fill: #1f77b4; stroke: #1f77b4"/>
     <use xlink:href="#mf176939639" x="243.546526" y="288.76603" style="fill: #1f77b4; stroke: #1f77b4"/>
     <use xlink:href="#mf176939639" x="236.891017" y="288.894119" style="fill: #1f77b4; stroke: #1f77b4"/>
     <use xlink:href="#mf176939639" x="225.978858" y="295.000192" style="fill: #1f77b4; stroke: #1f77b4"/>
     <use xlink:href="#mf176939639" x="223.898071" y="295.776" style="fill: #1f77b4; stroke: #1f77b4"/>
     <use xlink:href="#mf176939639" x="220.103327" y="286.842417" style="fill: #1f77b4; stroke: #1f77b4"/>
     <use xlink:href="#mf176939639" x="210.449575" y="290.392586" style="fill: #1f77b4; stroke: #1f77b4"/>
     <use xlink:href="#mf176939639" x="204.739333" y="290.467277" style="fill: #1f77b4; stroke: #1f77b4"/>
     <use xlink:href="#mf176939639" x="199.767835" y="285.263686" style="fill: #1f77b4; stroke: #1f77b4"/>
     <use xlink:href="#mf176939639" x="193.018979" y="291.383899" style="fill: #1f77b4; stroke: #1f77b4"/>
     <use xlink:href="#mf176939639" x="192.171839" y="287.134941" style="fill: #1f77b4; stroke: #1f77b4"/>
     <use xlink:href="#mf176939639" x="186.723487" y="286.877974" style="fill: #1f77b4; stroke: #1f77b4"/>
     <use xlink:href="#mf176939639" x="180.729187" y="280.324631" style="fill: #1f77b4; stroke: #1f77b4"/>
     <use xlink:href="#mf176939639" x="178.390831" y="280.086337" style="fill: #1f77b4; stroke: #1f77b4"/>
     <use xlink:href="#mf176939639" x="171.429555" y="280.47709" style="fill: #1f77b4; stroke: #1f77b4"/>
     <use xlink:href="#mf176939639" x="168.113138" y="277.736913" style="fill: #1f77b4; stroke: #1f77b4"/>
     <use xlink:href="#mf176939639" x="165.34872" y="276.853436" style="fill: #1f77b4; stroke: #1f77b4"/>
     <use xlink:href="#mf176939639" x="157.863307" y="276.454532" style="fill: #1f77b4; stroke: #1f77b4"/>
     <use xlink:href="#mf176939639" x="153.131939" y="273.409314" style="fill: #1f77b4; stroke: #1f77b4"/>
     <use xlink:href="#mf176939639" x="146.953029" y="268.177194" style="fill: #1f77b4; stroke: #1f77b4"/>
     <use xlink:href="#mf176939639" x="144.664194" y="265.415434" style="fill: #1f77b4; stroke: #1f77b4"/>
     <use xlink:href="#mf176939639" x="148.095718" y="266.391525" style="fill: #1f77b4; stroke: #1f77b4"/>
     <use xlink:href="#mf176939639" x="135.470822" y="261.165186" style="fill: #1f77b4; stroke: #1f77b4"/>
     <use xlink:href="#mf176939639" x="136.676505" y="263.054407" style="fill: #1f77b4; stroke: #1f77b4"/>
     <use xlink:href="#mf176939639" x="134.060142" y="261.540968" style="fill: #1f77b4; stroke: #1f77b4"/>
     <use xlink:href="#mf176939639" x="135.783098" y="259.321421" style="fill: #1f77b4; stroke: #1f77b4"/>
     <use xlink:href="#mf176939639" x="122.996472" y="250.872162" style="fill: #1f77b4; stroke: #1f77b4"/>
     <use xlink:href="#mf176939639" x="127.255054" y="255.016819" style="fill: #1f77b4; stroke: #1f77b4"/>
     <use xlink:href="#mf176939639" x="124.09269" y="251.253141" style="fill: #1f77b4; stroke: #1f77b4"/>
     <use xlink:href="#mf176939639" x="121.949214" y="248.610902" style="fill: #1f77b4; stroke: #1f77b4"/>
     <use xlink:href="#mf176939639" x="123.099631" y="246.119209" style="fill: #1f77b4; stroke: #1f77b4"/>
     <use xlink:href="#mf176939639" x="114.712675" y="240.956041" style="fill: #1f77b4; stroke: #1f77b4"/>
     <use xlink:href="#mf176939639" x="115.654587" y="242.299056" style="fill: #1f77b4; stroke: #1f77b4"/>
     <use xlink:href="#mf176939639" x="116.130423" y="236.489166" style="fill: #1f77b4; stroke: #1f77b4"/>
     <use xlink:href="#mf176939639" x="114.82636" y="238.494914" style="fill: #1f77b4; stroke: #1f77b4"/>
     <use xlink:href="#mf176939639" x="114.273751" y="234.034194" style="fill: #1f77b4; stroke: #1f77b4"/>
     <use xlink:href="#mf176939639" x="108.144362" y="232.664605" style="fill: #1f77b4; stroke: #1f77b4"/>
     <use xlink:href="#mf176939639" x="108.959115" y="231.44606" style="fill: #1f77b4; stroke: #1f77b4"/>
     <use xlink:href="#mf176939639" x="113.558496" y="227.971954" style="fill: #1f77b4; stroke: #1f77b4"/>
     <use xlink:href="#mf176939639" x="103.844851" y="224.78563" style="fill: #1f77b4; stroke: #1f77b4"/>
     <use xlink:href="#mf176939639" x="107.252683" y="225.953605" style="fill: #1f77b4; stroke: #1f77b4"/>
     <use xlink:href="#mf176939639" x="102.333858" y="224.177834" style="fill: #1f77b4; stroke: #1f77b4"/>
     <use xlink:href="#mf176939639" x="104.254186" y="220.99176" style="fill: #1f77b4; stroke: #1f77b4"/>
     <use xlink:href="#mf176939639" x="101.899001" y="217.326228" style="fill: #1f77b4; stroke: #1f77b4"/>
     <use xlink:href="#mf176939639" x="97.939272" y="216.374091" style="fill: #1f77b4; stroke: #1f77b4"/>
     <use xlink:href="#mf176939639" x="98.087072" y="212.089285" style="fill: #1f77b4; stroke: #1f77b4"/>
     <use xlink:href="#mf176939639" x="93.623034" y="212.945689" style="fill: #1f77b4; stroke: #1f77b4"/>
     <use xlink:href="#mf176939639" x="101.47238" y="211.664139" style="fill: #1f77b4; stroke: #1f77b4"/>
     <use xlink:href="#mf176939639" x="89.165556" y="210.874399" style="fill: #1f77b4; stroke: #1f77b4"/>
     <use xlink:href="#mf176939639" x="93.136165" y="209.916315" style="fill: #1f77b4; stroke: #1f77b4"/>
     <use xlink:href="#mf176939639" x="97.588356" y="205.524671" style="fill: #1f77b4; stroke: #1f77b4"/>
     <use xlink:href="#mf176939639" x="94.725354" y="201.718034" style="fill: #1f77b4; stroke: #1f77b4"/>
     <use xlink:href="#mf176939639" x="87.575705" y="198.569472" style="fill: #1f77b4; stroke: #1f77b4"/>
     <use xlink:href="#mf176939639" x="93.405631" y="199.118214" style="fill: #1f77b4; stroke: #1f77b4"/>
     <use xlink:href="#mf176939639" x="96.302545" y="197.157755" style="fill: #1f77b4; stroke: #1f77b4"/>
     <use xlink:href="#mf176939639" x="93.567717" y="190.408329" style="fill: #1f77b4; stroke: #1f77b4"/>
     <use xlink:href="#mf176939639" x="92.267416" y="192.057674" style="fill: #1f77b4; stroke: #1f77b4"/>
     <use xlink:href="#mf176939639" x="90.650823" y="193.234798" style="fill: #1f77b4; stroke: #1f77b4"/>
     <use xlink:href="#mf176939639" x="90.681989" y="189.789221" style="fill: #1f77b4; stroke: #1f77b4"/>
     <use xlink:href="#mf176939639" x="84.663336" y="186.269452" style="fill: #1f77b4; stroke: #1f77b4"/>
     <use xlink:href="#mf176939639" x="84.512485" y="189.985762" style="fill: #1f77b4; stroke: #1f77b4"/>
     <use xlink:href="#mf176939639" x="84.427222" y="181.299747" style="fill: #1f77b4; stroke: #1f77b4"/>
     <use xlink:href="#mf176939639" x="89.246243" y="180.416894" style="fill: #1f77b4; stroke: #1f77b4"/>
     <use xlink:href="#mf176939639" x="90.511971" y="178.037402" style="fill: #1f77b4; stroke: #1f77b4"/>
     <use xlink:href="#mf176939639" x="82.983443" y="177.942999" style="fill: #1f77b4; stroke: #1f77b4"/>
     <use xlink:href="#mf176939639" x="92.55666" y="178.19115" style="fill: #1f77b4; stroke: #1f77b4"/>
     <use xlink:href="#mf176939639" x="81.305686" y="175.180948" style="fill: #1f77b4; stroke: #1f77b4"/>
     <use xlink:href="#mf176939639" x="90.857854" y="172.29347" style="fill: #1f77b4; stroke: #1f77b4"/>
     <use xlink:href="#mf176939639" x="82.541874" y="174.034973" style="fill: #1f77b4; stroke: #1f77b4"/>
     <use xlink:href="#mf176939639" x="86.365955" y="172.227596" style="fill: #1f77b4; stroke: #1f77b4"/>
     <use xlink:href="#mf176939639" x="86.028512" y="163.288606" style="fill: #1f77b4; stroke: #1f77b4"/>
     <use xlink:href="#mf176939639" x="83.8316" y="163.796344" style="fill: #1f77b4; stroke: #1f77b4"/>
     <use xlink:href="#mf176939639" x="87.901709" y="163.769187" style="fill: #1f77b4; stroke: #1f77b4"/>
     <use xlink:href="#mf176939639" x="83.221641" y="166.209105" style="fill: #1f77b4; stroke: #1f77b4"/>
     <use xlink:href="#mf176939639" x="80.195231" y="162.778083" style="fill: #1f77b4; stroke: #1f77b4"/>
     <use xlink:href="#mf176939639" x="88.912003" y="157.15887" style="fill: #1f77b4; stroke: #1f77b4"/>
     <use xlink:href="#mf176939639" x="87.010081" y="162.730257" style="fill: #1f77b4; stroke: #1f77b4"/>
     <use xlink:href="#mf176939639" x="83.221844" y="154.688719" style="fill: #1f77b4; stroke: #1f77b4"/>
     <use xlink:href="#mf176939639" x="80.382434" y="154.046613" style="fill: #1f77b4; stroke: #1f77b4"/>
     <use xlink:href="#mf176939639" x="86.420865" y="150.366942" style="fill: #1f77b4; stroke: #1f77b4"/>
     <use xlink:href="#mf176939639" x="84.691553" y="152.749885" style="fill: #1f77b4; stroke: #1f77b4"/>
     <use xlink:href="#mf176939639" x="84.1996" y="147.398867" style="fill: #1f77b4; stroke: #1f77b4"/>
     <use xlink:href="#mf176939639" x="88.071472" y="150.225712" style="fill: #1f77b4; stroke: #1f77b4"/>
     <use xlink:href="#mf176939639" x="84.852216" y="144.906633" style="fill: #1f77b4; stroke: #1f77b4"/>
     <use xlink:href="#mf176939639" x="90.035576" y="142.028512" style="fill: #1f77b4; stroke: #1f77b4"/>
     <use xlink:href="#mf176939639" x="85.610636" y="143.235038" style="fill: #1f77b4; stroke: #1f77b4"/>
     <use xlink:href="#mf176939639" x="87.044755" y="144.202147" style="fill: #1f77b4; stroke: #1f77b4"/>
    </g>
   </g>
   <g id="line2d_17">
    <path d="M 63.887549 196.238325 
L 64.505367 190.257212 
L 65.317363 184.502412 
L 66.379846 178.597328 
L 67.622614 172.943809 
L 69.135158 167.147084 
L 70.808019 161.631372 
L 72.606445 156.42276 
L 74.674741 151.099084 
L 77.041351 145.658669 
L 79.500217 140.568593 
L 82.26464 135.380694 
L 85.069125 130.581345 
L 88.178035 125.705934 
L 91.260167 121.256829 
L 94.635417 116.75465 
L 98.32907 112.205865 
L 102.368659 107.61897 
L 106.273925 103.518539 
L 110.49869 99.406285 
L 115.067047 95.294076 
L 119.366273 91.70723 
L 123.966095 88.143031 
L 128.885213 84.615104 
L 134.1429 81.139406 
L 138.933857 78.215829 
L 144.00046 75.357694 
L 149.355076 72.580233 
L 155.009779 69.900637 
L 160.976095 67.338235 
L 167.2647 64.914675 
L 172.758265 63.018433 
L 178.486848 61.250682 
L 184.454052 59.628112 
L 190.662239 58.168775 
L 197.112264 56.892116 
L 203.80318 55.818959 
L 210.731912 54.971487 
L 216.442487 54.471733 
L 222.297621 54.143976 
L 228.291874 54.00121 
L 234.418371 54.056791 
L 240.66867 54.324351 
L 247.032631 54.817698 
L 253.498287 55.550685 
L 260.051724 56.537071 
L 266.676978 57.790347 
L 273.355943 59.323546 
L 280.068316 61.14903 
L 286.791555 63.278249 
L 291.826298 65.080733 
L 296.842006 67.063713 
L 301.826748 69.230495 
L 306.767955 71.5838 
L 311.652456 74.125693 
L 316.466535 76.857518 
L 321.195988 79.779833 
L 325.826203 82.892349 
L 330.342238 86.193868 
L 334.728923 89.682238 
L 338.970963 93.354306 
L 343.053054 97.205883 
L 346.960009 101.231719 
L 350.676886 105.425489 
L 354.189125 109.779794 
L 357.482688 114.286173 
L 360.544196 118.935127 
L 363.361071 123.71616 
L 365.921668 128.617838 
L 368.2154 133.627854 
L 370.23286 138.733115 
L 371.965922 143.919832 
L 373.407839 149.173632 
L 374.553313 154.47967 
L 375.398557 159.822755 
L 375.941333 165.187477 
L 376.180968 170.558343 
L 376.118361 175.919904 
L 375.755953 181.256891 
L 375.097694 186.55434 
L 374.148978 191.797715 
L 372.916575 196.973019 
L 371.408531 202.0669 
L 369.634072 207.066741 
L 367.603488 211.960738 
L 365.328008 216.73797 
L 362.819671 221.38845 
L 360.091202 225.903161 
L 357.155868 230.274088 
L 354.027356 234.494221 
L 350.719643 238.557561 
L 347.246869 242.459108 
L 343.623228 246.194835 
L 339.862854 249.76166 
L 335.979726 253.157404 
L 331.987573 256.380748 
L 327.899803 259.43118 
L 323.729425 262.308939 
L 319.488995 265.014957 
L 315.190564 267.550803 
L 309.388907 270.670991 
L 303.53021 273.49898 
L 297.638253 276.042606 
L 291.734873 278.310842 
L 285.839951 280.313571 
L 279.971438 282.061376 
L 274.145403 283.565354 
L 268.376103 284.836943 
L 262.676066 285.887772 
L 257.056192 286.729532 
L 251.525853 287.373858 
L 244.750835 287.919106 
L 238.140756 288.195718 
L 231.705473 288.224866 
L 225.452318 288.026837 
L 219.386413 287.620927 
L 213.510961 287.02538 
L 207.827513 286.257351 
L 201.260942 285.130568 
L 194.969041 283.804144 
L 188.947873 282.301551 
L 183.191948 280.644147 
L 177.694576 278.851294 
L 171.597609 276.611672 
L 165.829116 274.236217 
L 160.375254 271.74679 
L 155.221797 269.1626 
L 149.681599 266.114693 
L 144.493863 262.986676 
L 139.637889 259.797127 
L 135.093687 256.561869 
L 130.330333 252.884209 
L 125.911557 249.181666 
L 121.813134 245.467468 
L 117.607607 241.340061 
L 113.740984 237.223689 
L 110.186879 233.127912 
L 106.60954 228.655257 
L 103.351864 224.224242 
L 100.131551 219.444545 
L 97.229245 214.726416 
L 94.617259 210.073374 
L 92.08656 205.108506 
L 89.839493 200.22391 
L 87.708271 195.053648 
L 85.849645 189.976103 
L 84.133267 184.637087 
L 82.675795 179.400329 
L 81.380668 173.923829 
L 80.271455 168.224438 
L 79.412234 162.643209 
L 78.750365 156.856909 
L 78.321091 151.191622 
L 78.098433 145.336617 
L 78.079815 144.119756 
L 78.079815 144.119756 
" clip-path="url(#p5108ab0c0c)" style="fill: none; stroke: #d62728; stroke-width: 1.5; stroke-linecap: square"/>
   </g>
   <g id="patch_3">
    <path d="M 37.848438 307.872 
L 37.848438 41.76 
" style="fill: none; stroke: #000000; stroke-width: 0.8; stroke-linejoin: miter; stroke-linecap: square"/>
   </g>
   <g id="patch_4">
    <path d="M 394.968438 307.872 
L 394.968438 41.76 
" style="fill: none; stroke: #000000; stroke-width: 0.8; stroke-linejoin: miter; stroke-linecap: square"/>
   </g>
   <g id="patch_5">
    <path d="M 37.848437 307.872 
L 394.968438 307.872 
" style="fill: none; stroke: #000000; stroke-width: 0.8; stroke-linejoin: miter; stroke-linecap: square"/>
   </g>
   <g id="patch_6">
    <path d="M 37.848437 41.76 
L 394.968438 41.76 
" style="fill: none; stroke: #000000; stroke-width: 0.8; stroke-linejoin: miter; stroke-linecap: square"/>
   </g>
   <g id="text_18">
    <g id="patch_7">
     <path d="M 412.824438 102.337163 
L 558.024438 102.337163 
Q 562.024438 102.337163 562.024438 98.337163 
L 562.024438 55.0656 
Q 562.024438 51.0656 558.024438 51.0656 
L 412.824438 51.0656 
Q 408.824438 51.0656 408.824438 55.0656 
L 408.824438 98.337163 
Q 408.824438 102.337163 412.824438 102.337163 
z
" style="fill: #ffffff; opacity: 0.5; stroke: #000000; stroke-linejoin: miter"/>
    </g>
    <!-- Summary -->
    <g transform="translate(412.824438 62.664038) scale(0.1 -0.1)">
     <defs>
      <path id="DejaVuSans-53" d="M 3425 4513 
L 3425 3897 
Q 3066 4069 2747 4153 
Q 2428 4238 2131 4238 
Q 1616 4238 1336 4038 
Q 1056 3838 1056 3469 
Q 1056 3159 1242 3001 
Q 1428 2844 1947 2747 
L 2328 2669 
Q 3034 2534 3370 2195 
Q 3706 1856 3706 1288 
Q 3706 609 3251 259 
Q 2797 -91 1919 -91 
Q 1588 -91 1214 -16 
Q 841 59 441 206 
L 441 856 
Q 825 641 1194 531 
Q 1563 422 1919 422 
Q 2459 422 2753 634 
Q 3047 847 3047 1241 
Q 3047 1584 2836 1778 
Q 2625 1972 2144 2069 
L 1759 2144 
Q 1053 2284 737 2584 
Q 422 2884 422 3419 
Q 422 4038 858 4394 
Q 1294 4750 2059 4750 
Q 2388 4750 2728 4690 
Q 3069 4631 3425 4513 
z
" transform="scale(0.015625)"/>
      <path id="DejaVuSans-75" d="M 544 1381 
L 544 3500 
L 1119 3500 
L 1119 1403 
Q 1119 906 1312 657 
Q 1506 409 1894 409 
Q 2359 409 2629 706 
Q 2900 1003 2900 1516 
L 2900 3500 
L 3475 3500 
L 3475 0 
L 2900 0 
L 2900 538 
Q 2691 219 2414 64 
Q 2138 -91 1772 -91 
Q 1169 -91 856 284 
Q 544 659 544 1381 
z
M 1991 3584 
L 1991 3584 
z
" transform="scale(0.015625)"/>
      <path id="DejaVuSans-61" d="M 2194 1759 
Q 1497 1759 1228 1600 
Q 959 1441 959 1056 
Q 959 750 1161 570 
Q 1363 391 1709 391 
Q 2188 391 2477 730 
Q 2766 1069 2766 1631 
L 2766 1759 
L 2194 1759 
z
M 3341 1997 
L 3341 0 
L 2766 0 
L 2766 531 
Q 2569 213 2275 61 
Q 1981 -91 1556 -91 
Q 1019 -91 701 211 
Q 384 513 384 1019 
Q 384 1609 779 1909 
Q 1175 2209 1959 2209 
L 2766 2209 
L 2766 2266 
Q 2766 2663 2505 2880 
Q 2244 3097 1772 3097 
Q 1472 3097 1187 3025 
Q 903 2953 641 2809 
L 641 3341 
Q 956 3463 1253 3523 
Q 1550 3584 1831 3584 
Q 2591 3584 2966 3190 
Q 3341 2797 3341 1997 
z
" transform="scale(0.015625)"/>
      <path id="DejaVuSans-72" d="M 2631 2963 
Q 2534 3019 2420 3045 
Q 2306 3072 2169 3072 
Q 1681 3072 1420 2755 
Q 1159 2438 1159 1844 
L 1159 0 
L 581 0 
L 581 3500 
L 1159 3500 
L 1159 2956 
Q 1341 3275 1631 3429 
Q 1922 3584 2338 3584 
Q 2397 3584 2469 3576 
Q 2541 3569 2628 3553 
L 2631 2963 
z
" transform="scale(0.015625)"/>
      <path id="DejaVuSans-79" d="M 2059 -325 
Q 1816 -950 1584 -1140 
Q 1353 -1331 966 -1331 
L 506 -1331 
L 506 -850 
L 844 -850 
Q 1081 -850 1212 -737 
Q 1344 -625 1503 -206 
L 1606 56 
L 191 3500 
L 800 3500 
L 1894 763 
L 2988 3500 
L 3597 3500 
L 2059 -325 
z
" transform="scale(0.015625)"/>
     </defs>
     <use xlink:href="#DejaVuSans-53"/>
     <use xlink:href="#DejaVuSans-75" x="63.476562"/>
     <use xlink:href="#DejaVuSans-6d" x="126.855469"/>
     <use xlink:href="#DejaVuSans-6d" x="224.267578"/>
     <use xlink:href="#DejaVuSans-61" x="321.679688"/>
     <use xlink:href="#DejaVuSans-72" x="382.958984"/>
     <use xlink:href="#DejaVuSans-79" x="424.072266"/>
    </g>
    <!-- $Q_I$: 17.86$\pm$0.31 k -->
    <g transform="translate(412.824438 73.86185) scale(0.1 -0.1)">
     <defs>
      <path id="DejaVuSans-Oblique-51" d="M 2309 -84 
Q 2275 -88 2237 -89 
Q 2200 -91 2125 -91 
Q 1250 -91 756 411 
Q 263 913 263 1797 
Q 263 2319 452 2844 
Q 641 3369 978 3788 
Q 1369 4269 1858 4509 
Q 2347 4750 2938 4750 
Q 3794 4750 4287 4245 
Q 4781 3741 4781 2869 
Q 4781 1928 4265 1147 
Q 3750 366 2919 44 
L 3553 -825 
L 2847 -825 
L 2309 -84 
z
M 2919 4238 
Q 2400 4238 2003 3986 
Q 1606 3734 1313 3219 
Q 1125 2891 1026 2522 
Q 928 2153 928 1778 
Q 928 1128 1239 775 
Q 1550 422 2119 422 
Q 2631 422 3032 676 
Q 3434 931 3719 1434 
Q 3909 1772 4009 2142 
Q 4109 2513 4109 2881 
Q 4109 3528 3796 3883 
Q 3484 4238 2919 4238 
z
" transform="scale(0.015625)"/>
      <path id="DejaVuSans-Oblique-49" d="M 1081 4666 
L 1716 4666 
L 806 0 
L 172 0 
L 1081 4666 
z
" transform="scale(0.015625)"/>
      <path id="DejaVuSans-3a" d="M 750 794 
L 1409 794 
L 1409 0 
L 750 0 
L 750 794 
z
M 750 3309 
L 1409 3309 
L 1409 2516 
L 750 2516 
L 750 3309 
z
" transform="scale(0.015625)"/>
      <path id="DejaVuSans-2e" d="M 684 794 
L 1344 794 
L 1344 0 
L 684 0 
L 684 794 
z
" transform="scale(0.015625)"/>
      <path id="DejaVuSans-b1" d="M 2944 4013 
L 2944 2803 
L 4684 2803 
L 4684 2272 
L 2944 2272 
L 2944 1063 
L 2419 1063 
L 2419 2272 
L 678 2272 
L 678 2803 
L 2419 2803 
L 2419 4013 
L 2944 4013 
z
M 678 531 
L 4684 531 
L 4684 0 
L 678 0 
L 678 531 
z
" transform="scale(0.015625)"/>
      <path id="DejaVuSans-6b" d="M 581 4863 
L 1159 4863 
L 1159 1991 
L 2875 3500 
L 3609 3500 
L 1753 1863 
L 3688 0 
L 2938 0 
L 1159 1709 
L 1159 0 
L 581 0 
L 581 4863 
z
" transform="scale(0.015625)"/>
     </defs>
     <use xlink:href="#DejaVuSans-Oblique-51" transform="translate(0 0.015625)"/>
     <use xlink:href="#DejaVuSans-Oblique-49" transform="translate(78.710938 -16.390625) scale(0.7)"/>
     <use xlink:href="#DejaVuSans-3a" transform="translate(102.089844 0.015625)"/>
     <use xlink:href="#DejaVuSans-20" transform="translate(135.78125 0.015625)"/>
     <use xlink:href="#DejaVuSans-31" transform="translate(167.568359 0.015625)"/>
     <use xlink:href="#DejaVuSans-37" transform="translate(231.191406 0.015625)"/>
     <use xlink:href="#DejaVuSans-2e" transform="translate(294.814453 0.015625)"/>
     <use xlink:href="#DejaVuSans-38" transform="translate(323.976562 0.015625)"/>
     <use xlink:href="#DejaVuSans-36" transform="translate(387.599609 0.015625)"/>
     <use xlink:href="#DejaVuSans-b1" transform="translate(451.222656 0.015625)"/>
     <use xlink:href="#DejaVuSans-30" transform="translate(535.011719 0.015625)"/>
     <use xlink:href="#DejaVuSans-2e" transform="translate(598.634766 0.015625)"/>
     <use xlink:href="#DejaVuSans-33" transform="translate(630.421875 0.015625)"/>
     <use xlink:href="#DejaVuSans-31" transform="translate(694.044922 0.015625)"/>
     <use xlink:href="#DejaVuSans-20" transform="translate(757.667969 0.015625)"/>
     <use xlink:href="#DejaVuSans-6b" transform="translate(789.455078 0.015625)"/>
    </g>
    <!-- $Q_C$: 2.390$\pm$0.010 k -->
    <g transform="translate(412.824438 85.059663) scale(0.1 -0.1)">
     <defs>
      <path id="DejaVuSans-Oblique-43" d="M 4447 4306 
L 4319 3641 
Q 4019 3944 3683 4091 
Q 3347 4238 2956 4238 
Q 2422 4238 2017 3981 
Q 1613 3725 1319 3200 
Q 1131 2863 1032 2486 
Q 934 2109 934 1728 
Q 934 1091 1264 756 
Q 1594 422 2222 422 
Q 2656 422 3056 561 
Q 3456 700 3834 978 
L 3688 231 
Q 3316 72 2936 -9 
Q 2556 -91 2175 -91 
Q 1278 -91 773 396 
Q 269 884 269 1753 
Q 269 2309 461 2846 
Q 653 3384 1013 3828 
Q 1394 4300 1883 4525 
Q 2372 4750 3022 4750 
Q 3422 4750 3780 4639 
Q 4138 4528 4447 4306 
z
" transform="scale(0.015625)"/>
      <path id="DejaVuSans-39" d="M 703 97 
L 703 672 
Q 941 559 1184 500 
Q 1428 441 1663 441 
Q 2288 441 2617 861 
Q 2947 1281 2994 2138 
Q 2813 1869 2534 1725 
Q 2256 1581 1919 1581 
Q 1219 1581 811 2004 
Q 403 2428 403 3163 
Q 403 3881 828 4315 
Q 1253 4750 1959 4750 
Q 2769 4750 3195 4129 
Q 3622 3509 3622 2328 
Q 3622 1225 3098 567 
Q 2575 -91 1691 -91 
Q 1453 -91 1209 -44 
Q 966 3 703 97 
z
M 1959 2075 
Q 2384 2075 2632 2365 
Q 2881 2656 2881 3163 
Q 2881 3666 2632 3958 
Q 2384 4250 1959 4250 
Q 1534 4250 1286 3958 
Q 1038 3666 1038 3163 
Q 1038 2656 1286 2365 
Q 1534 2075 1959 2075 
z
" transform="scale(0.015625)"/>
     </defs>
     <use xlink:href="#DejaVuSans-Oblique-51" transform="translate(0 0.015625)"/>
     <use xlink:href="#DejaVuSans-Oblique-43" transform="translate(78.710938 -16.390625) scale(0.7)"/>
     <use xlink:href="#DejaVuSans-3a" transform="translate(130.322266 0.015625)"/>
     <use xlink:href="#DejaVuSans-20" transform="translate(164.013672 0.015625)"/>
     <use xlink:href="#DejaVuSans-32" transform="translate(195.800781 0.015625)"/>
     <use xlink:href="#DejaVuSans-2e" transform="translate(259.423828 0.015625)"/>
     <use xlink:href="#DejaVuSans-33" transform="translate(291.210938 0.015625)"/>
     <use xlink:href="#DejaVuSans-39" transform="translate(354.833984 0.015625)"/>
     <use xlink:href="#DejaVuSans-30" transform="translate(418.457031 0.015625)"/>
     <use xlink:href="#DejaVuSans-b1" transform="translate(482.080078 0.015625)"/>
     <use xlink:href="#DejaVuSans-30" transform="translate(565.869141 0.015625)"/>
     <use xlink:href="#DejaVuSans-2e" transform="translate(629.492188 0.015625)"/>
     <use xlink:href="#DejaVuSans-30" transform="translate(661.279297 0.015625)"/>
     <use xlink:href="#DejaVuSans-31" transform="translate(724.902344 0.015625)"/>
     <use xlink:href="#DejaVuSans-30" transform="translate(788.525391 0.015625)"/>
     <use xlink:href="#DejaVuSans-20" transform="translate(852.148438 0.015625)"/>
     <use xlink:href="#DejaVuSans-6b" transform="translate(883.935547 0.015625)"/>
    </g>
    <!-- $f_{res}$: 6.1067599$\pm$7.0e-06 GHz -->
    <g transform="translate(412.824438 96.257475) scale(0.1 -0.1)">
     <defs>
      <path id="DejaVuSans-Oblique-66" d="M 3059 4863 
L 2969 4384 
L 2419 4384 
Q 2106 4384 1964 4261 
Q 1822 4138 1753 3809 
L 1691 3500 
L 2638 3500 
L 2553 3053 
L 1606 3053 
L 1013 0 
L 434 0 
L 1031 3053 
L 481 3053 
L 563 3500 
L 1113 3500 
L 1159 3744 
Q 1278 4363 1576 4613 
Q 1875 4863 2516 4863 
L 3059 4863 
z
" transform="scale(0.015625)"/>
      <path id="DejaVuSans-Oblique-72" d="M 2853 2969 
Q 2766 3016 2653 3041 
Q 2541 3066 2413 3066 
Q 1953 3066 1609 2717 
Q 1266 2369 1153 1784 
L 800 0 
L 225 0 
L 909 3500 
L 1484 3500 
L 1375 2956 
Q 1603 3259 1920 3421 
Q 2238 3584 2597 3584 
Q 2691 3584 2781 3573 
Q 2872 3563 2963 3538 
L 2853 2969 
z
" transform="scale(0.015625)"/>
      <path id="DejaVuSans-Oblique-65" d="M 3078 2063 
Q 3088 2113 3092 2166 
Q 3097 2219 3097 2272 
Q 3097 2653 2873 2875 
Q 2650 3097 2266 3097 
Q 1838 3097 1509 2826 
Q 1181 2556 1013 2059 
L 3078 2063 
z
M 3578 1613 
L 903 1613 
Q 884 1494 878 1425 
Q 872 1356 872 1306 
Q 872 872 1139 634 
Q 1406 397 1894 397 
Q 2269 397 2603 481 
Q 2938 566 3225 728 
L 3116 159 
Q 2806 34 2476 -28 
Q 2147 -91 1806 -91 
Q 1078 -91 686 257 
Q 294 606 294 1247 
Q 294 1794 489 2264 
Q 684 2734 1063 3103 
Q 1306 3334 1642 3459 
Q 1978 3584 2356 3584 
Q 2950 3584 3301 3228 
Q 3653 2872 3653 2272 
Q 3653 2128 3634 1964 
Q 3616 1800 3578 1613 
z
" transform="scale(0.015625)"/>
      <path id="DejaVuSans-Oblique-73" d="M 3200 3397 
L 3091 2853 
Q 2863 2978 2609 3040 
Q 2356 3103 2088 3103 
Q 1634 3103 1373 2948 
Q 1113 2794 1113 2528 
Q 1113 2219 1719 2053 
Q 1766 2041 1788 2034 
L 1972 1978 
Q 2547 1819 2739 1644 
Q 2931 1469 2931 1166 
Q 2931 609 2489 259 
Q 2047 -91 1331 -91 
Q 1053 -91 747 -37 
Q 441 16 72 128 
L 184 722 
Q 500 559 806 475 
Q 1113 391 1394 391 
Q 1816 391 2080 572 
Q 2344 753 2344 1031 
Q 2344 1331 1650 1516 
L 1591 1531 
L 1394 1581 
Q 956 1697 753 1886 
Q 550 2075 550 2369 
Q 550 2928 970 3256 
Q 1391 3584 2113 3584 
Q 2397 3584 2667 3537 
Q 2938 3491 3200 3397 
z
" transform="scale(0.015625)"/>
      <path id="DejaVuSans-47" d="M 3809 666 
L 3809 1919 
L 2778 1919 
L 2778 2438 
L 4434 2438 
L 4434 434 
Q 4069 175 3628 42 
Q 3188 -91 2688 -91 
Q 1594 -91 976 548 
Q 359 1188 359 2328 
Q 359 3472 976 4111 
Q 1594 4750 2688 4750 
Q 3144 4750 3555 4637 
Q 3966 4525 4313 4306 
L 4313 3634 
Q 3963 3931 3569 4081 
Q 3175 4231 2741 4231 
Q 1884 4231 1454 3753 
Q 1025 3275 1025 2328 
Q 1025 1384 1454 906 
Q 1884 428 2741 428 
Q 3075 428 3337 486 
Q 3600 544 3809 666 
z
" transform="scale(0.015625)"/>
      <path id="DejaVuSans-48" d="M 628 4666 
L 1259 4666 
L 1259 2753 
L 3553 2753 
L 3553 4666 
L 4184 4666 
L 4184 0 
L 3553 0 
L 3553 2222 
L 1259 2222 
L 1259 0 
L 628 0 
L 628 4666 
z
" transform="scale(0.015625)"/>
      <path id="DejaVuSans-7a" d="M 353 3500 
L 3084 3500 
L 3084 2975 
L 922 459 
L 3084 459 
L 3084 0 
L 275 0 
L 275 525 
L 2438 3041 
L 353 3041 
L 353 3500 
z
" transform="scale(0.015625)"/>
     </defs>
     <use xlink:href="#DejaVuSans-Oblique-66" transform="translate(0 0.015625)"/>
     <use xlink:href="#DejaVuSans-Oblique-72" transform="translate(35.205078 -16.390625) scale(0.7)"/>
     <use xlink:href="#DejaVuSans-Oblique-65" transform="translate(63.984375 -16.390625) scale(0.7)"/>
     <use xlink:href="#DejaVuSans-Oblique-73" transform="translate(107.050781 -16.390625) scale(0.7)"/>
     <use xlink:href="#DejaVuSans-3a" transform="translate(146.254883 0.015625)"/>
     <use xlink:href="#DejaVuSans-20" transform="translate(179.946289 0.015625)"/>
     <use xlink:href="#DejaVuSans-36" transform="translate(211.733398 0.015625)"/>
     <use xlink:href="#DejaVuSans-2e" transform="translate(275.356445 0.015625)"/>
     <use xlink:href="#DejaVuSans-31" transform="translate(307.143555 0.015625)"/>
     <use xlink:href="#DejaVuSans-30" transform="translate(370.766602 0.015625)"/>
     <use xlink:href="#DejaVuSans-36" transform="translate(434.389648 0.015625)"/>
     <use xlink:href="#DejaVuSans-37" transform="translate(498.012695 0.015625)"/>
     <use xlink:href="#DejaVuSans-35" transform="translate(561.635742 0.015625)"/>
     <use xlink:href="#DejaVuSans-39" transform="translate(619.758789 0.015625)"/>
     <use xlink:href="#DejaVuSans-39" transform="translate(683.381836 0.015625)"/>
     <use xlink:href="#DejaVuSans-b1" transform="translate(747.004883 0.015625)"/>
     <use xlink:href="#DejaVuSans-37" transform="translate(830.793945 0.015625)"/>
     <use xlink:href="#DejaVuSans-2e" transform="translate(894.416992 0.015625)"/>
     <use xlink:href="#DejaVuSans-30" transform="translate(926.204102 0.015625)"/>
     <use xlink:href="#DejaVuSans-65" transform="translate(989.827148 0.015625)"/>
     <use xlink:href="#DejaVuSans-2d" transform="translate(1051.350586 0.015625)"/>
     <use xlink:href="#DejaVuSans-30" transform="translate(1087.43457 0.015625)"/>
     <use xlink:href="#DejaVuSans-36" transform="translate(1151.057617 0.015625)"/>
     <use xlink:href="#DejaVuSans-20" transform="translate(1214.680664 0.015625)"/>
     <use xlink:href="#DejaVuSans-47" transform="translate(1246.467773 0.015625)"/>
     <use xlink:href="#DejaVuSans-48" transform="translate(1323.958008 0.015625)"/>
     <use xlink:href="#DejaVuSans-7a" transform="translate(1399.15332 0.015625)"/>
    </g>
   </g>
  </g>
  <g id="text_19">
   <!-- S21 resonator spectroscopy -->
   <g transform="translate(126.864063 16.318125) scale(0.12 -0.12)">
    <defs>
     <path id="DejaVuSans-73" d="M 2834 3397 
L 2834 2853 
Q 2591 2978 2328 3040 
Q 2066 3103 1784 3103 
Q 1356 3103 1142 2972 
Q 928 2841 928 2578 
Q 928 2378 1081 2264 
Q 1234 2150 1697 2047 
L 1894 2003 
Q 2506 1872 2764 1633 
Q 3022 1394 3022 966 
Q 3022 478 2636 193 
Q 2250 -91 1575 -91 
Q 1294 -91 989 -36 
Q 684 19 347 128 
L 347 722 
Q 666 556 975 473 
Q 1284 391 1588 391 
Q 1994 391 2212 530 
Q 2431 669 2431 922 
Q 2431 1156 2273 1281 
Q 2116 1406 1581 1522 
L 1381 1569 
Q 847 1681 609 1914 
Q 372 2147 372 2553 
Q 372 3047 722 3315 
Q 1072 3584 1716 3584 
Q 2034 3584 2315 3537 
Q 2597 3491 2834 3397 
z
" transform="scale(0.015625)"/>
     <path id="DejaVuSans-6f" d="M 1959 3097 
Q 1497 3097 1228 2736 
Q 959 2375 959 1747 
Q 959 1119 1226 758 
Q 1494 397 1959 397 
Q 2419 397 2687 759 
Q 2956 1122 2956 1747 
Q 2956 2369 2687 2733 
Q 2419 3097 1959 3097 
z
M 1959 3584 
Q 2709 3584 3137 3096 
Q 3566 2609 3566 1747 
Q 3566 888 3137 398 
Q 2709 -91 1959 -91 
Q 1206 -91 779 398 
Q 353 888 353 1747 
Q 353 2609 779 3096 
Q 1206 3584 1959 3584 
z
" transform="scale(0.015625)"/>
     <path id="DejaVuSans-6e" d="M 3513 2113 
L 3513 0 
L 2938 0 
L 2938 2094 
Q 2938 2591 2744 2837 
Q 2550 3084 2163 3084 
Q 1697 3084 1428 2787 
Q 1159 2491 1159 1978 
L 1159 0 
L 581 0 
L 581 3500 
L 1159 3500 
L 1159 2956 
Q 1366 3272 1645 3428 
Q 1925 3584 2291 3584 
Q 2894 3584 3203 3211 
Q 3513 2838 3513 2113 
z
" transform="scale(0.015625)"/>
     <path id="DejaVuSans-74" d="M 1172 4494 
L 1172 3500 
L 2356 3500 
L 2356 3053 
L 1172 3053 
L 1172 1153 
Q 1172 725 1289 603 
Q 1406 481 1766 481 
L 2356 481 
L 2356 0 
L 1766 0 
Q 1100 0 847 248 
Q 594 497 594 1153 
L 594 3053 
L 172 3053 
L 172 3500 
L 594 3500 
L 594 4494 
L 1172 4494 
z
" transform="scale(0.015625)"/>
     <path id="DejaVuSans-70" d="M 1159 525 
L 1159 -1331 
L 581 -1331 
L 581 3500 
L 1159 3500 
L 1159 2969 
Q 1341 3281 1617 3432 
Q 1894 3584 2278 3584 
Q 2916 3584 3314 3078 
Q 3713 2572 3713 1747 
Q 3713 922 3314 415 
Q 2916 -91 2278 -91 
Q 1894 -91 1617 61 
Q 1341 213 1159 525 
z
M 3116 1747 
Q 3116 2381 2855 2742 
Q 2594 3103 2138 3103 
Q 1681 3103 1420 2742 
Q 1159 2381 1159 1747 
Q 1159 1113 1420 752 
Q 1681 391 2138 391 
Q 2594 391 2855 752 
Q 3116 1113 3116 1747 
z
" transform="scale(0.015625)"/>
     <path id="DejaVuSans-63" d="M 3122 3366 
L 3122 2828 
Q 2878 2963 2633 3030 
Q 2388 3097 2138 3097 
Q 1578 3097 1268 2742 
Q 959 2388 959 1747 
Q 959 1106 1268 751 
Q 1578 397 2138 397 
Q 2388 397 2633 464 
Q 2878 531 3122 666 
L 3122 134 
Q 2881 22 2623 -34 
Q 2366 -91 2075 -91 
Q 1284 -91 818 406 
Q 353 903 353 1747 
Q 353 2603 823 3093 
Q 1294 3584 2113 3584 
Q 2378 3584 2631 3529 
Q 2884 3475 3122 3366 
z
" transform="scale(0.015625)"/>
    </defs>
    <use xlink:href="#DejaVuSans-53"/>
    <use xlink:href="#DejaVuSans-32" x="63.476562"/>
    <use xlink:href="#DejaVuSans-31" x="127.099609"/>
    <use xlink:href="#DejaVuSans-20" x="190.722656"/>
    <use xlink:href="#DejaVuSans-72" x="222.509766"/>
    <use xlink:href="#DejaVuSans-65" x="261.373047"/>
    <use xlink:href="#DejaVuSans-73" x="322.896484"/>
    <use xlink:href="#DejaVuSans-6f" x="374.996094"/>
    <use xlink:href="#DejaVuSans-6e" x="436.177734"/>
    <use xlink:href="#DejaVuSans-61" x="499.556641"/>
    <use xlink:href="#DejaVuSans-74" x="560.835938"/>
    <use xlink:href="#DejaVuSans-6f" x="600.044922"/>
    <use xlink:href="#DejaVuSans-72" x="661.226562"/>
    <use xlink:href="#DejaVuSans-20" x="702.339844"/>
    <use xlink:href="#DejaVuSans-73" x="734.126953"/>
    <use xlink:href="#DejaVuSans-70" x="786.226562"/>
    <use xlink:href="#DejaVuSans-65" x="849.703125"/>
    <use xlink:href="#DejaVuSans-63" x="911.226562"/>
    <use xlink:href="#DejaVuSans-74" x="966.207031"/>
    <use xlink:href="#DejaVuSans-72" x="1005.416016"/>
    <use xlink:href="#DejaVuSans-6f" x="1044.279297"/>
    <use xlink:href="#DejaVuSans-73" x="1105.460938"/>
    <use xlink:href="#DejaVuSans-63" x="1157.560547"/>
    <use xlink:href="#DejaVuSans-6f" x="1212.541016"/>
    <use xlink:href="#DejaVuSans-70" x="1273.722656"/>
    <use xlink:href="#DejaVuSans-79" x="1337.199219"/>
   </g>
   <!-- tuid: 20231227-185629-014-307df7 -->
   <g transform="translate(102.506875 29.7555) scale(0.12 -0.12)">
    <defs>
     <path id="DejaVuSans-69" d="M 603 3500 
L 1178 3500 
L 1178 0 
L 603 0 
L 603 3500 
z
M 603 4863 
L 1178 4863 
L 1178 4134 
L 603 4134 
L 603 4863 
z
" transform="scale(0.015625)"/>
     <path id="DejaVuSans-64" d="M 2906 2969 
L 2906 4863 
L 3481 4863 
L 3481 0 
L 2906 0 
L 2906 525 
Q 2725 213 2448 61 
Q 2172 -91 1784 -91 
Q 1150 -91 751 415 
Q 353 922 353 1747 
Q 353 2572 751 3078 
Q 1150 3584 1784 3584 
Q 2172 3584 2448 3432 
Q 2725 3281 2906 2969 
z
M 947 1747 
Q 947 1113 1208 752 
Q 1469 391 1925 391 
Q 2381 391 2643 752 
Q 2906 1113 2906 1747 
Q 2906 2381 2643 2742 
Q 2381 3103 1925 3103 
Q 1469 3103 1208 2742 
Q 947 2381 947 1747 
z
" transform="scale(0.015625)"/>
     <path id="DejaVuSans-66" d="M 2375 4863 
L 2375 4384 
L 1825 4384 
Q 1516 4384 1395 4259 
Q 1275 4134 1275 3809 
L 1275 3500 
L 2222 3500 
L 2222 3053 
L 1275 3053 
L 1275 0 
L 697 0 
L 697 3053 
L 147 3053 
L 147 3500 
L 697 3500 
L 697 3744 
Q 697 4328 969 4595 
Q 1241 4863 1831 4863 
L 2375 4863 
z
" transform="scale(0.015625)"/>
    </defs>
    <use xlink:href="#DejaVuSans-74"/>
    <use xlink:href="#DejaVuSans-75" x="39.208984"/>
    <use xlink:href="#DejaVuSans-69" x="102.587891"/>
    <use xlink:href="#DejaVuSans-64" x="130.371094"/>
    <use xlink:href="#DejaVuSans-3a" x="193.847656"/>
    <use xlink:href="#DejaVuSans-20" x="227.539062"/>
    <use xlink:href="#DejaVuSans-32" x="259.326172"/>
    <use xlink:href="#DejaVuSans-30" x="322.949219"/>
    <use xlink:href="#DejaVuSans-32" x="386.572266"/>
    <use xlink:href="#DejaVuSans-33" x="450.195312"/>
    <use xlink:href="#DejaVuSans-31" x="513.818359"/>
    <use xlink:href="#DejaVuSans-32" x="577.441406"/>
    <use xlink:href="#DejaVuSans-32" x="641.064453"/>
    <use xlink:href="#DejaVuSans-37" x="704.6875"/>
    <use xlink:href="#DejaVuSans-2d" x="768.310547"/>
    <use xlink:href="#DejaVuSans-31" x="804.394531"/>
    <use xlink:href="#DejaVuSans-38" x="868.017578"/>
    <use xlink:href="#DejaVuSans-35" x="931.640625"/>
    <use xlink:href="#DejaVuSans-36" x="995.263672"/>
    <use xlink:href="#DejaVuSans-32" x="1058.886719"/>
    <use xlink:href="#DejaVuSans-39" x="1122.509766"/>
    <use xlink:href="#DejaVuSans-2d" x="1186.132812"/>
    <use xlink:href="#DejaVuSans-30" x="1222.216797"/>
    <use xlink:href="#DejaVuSans-31" x="1285.839844"/>
    <use xlink:href="#DejaVuSans-34" x="1349.462891"/>
    <use xlink:href="#DejaVuSans-2d" x="1413.085938"/>
    <use xlink:href="#DejaVuSans-33" x="1449.169922"/>
    <use xlink:href="#DejaVuSans-30" x="1512.792969"/>
    <use xlink:href="#DejaVuSans-37" x="1576.416016"/>
    <use xlink:href="#DejaVuSans-64" x="1640.039062"/>
    <use xlink:href="#DejaVuSans-66" x="1703.515625"/>
    <use xlink:href="#DejaVuSans-37" x="1738.720703"/>
   </g>
  </g>
 </g>
 <defs>
  <clipPath id="p5108ab0c0c">
   <rect x="37.848438" y="41.76" width="357.12" height="266.112"/>
  </clipPath>
 </defs>
</svg>
